<svg height="181.568" viewBox="0 0 207.805 136.176" width="277.073" xmlns="http://www.w3.org/2000/svg" xmlns:xlink="http://www.w3.org/1999/xlink"><symbol id="a" overflow="visible"><path d="m2.938-3.719h1.671c.125 0 .485 0 .485-.344 0-.234-.203-.234-.407-.234h-2.78c-.204 0-.595 0-1.032.469-.328.36-.61.844-.61.89 0 .016 0 .11.126.11.078 0 .093-.047.156-.125.484-.766 1.062-.766 1.265-.766h.829l-.971 3.203c-.046.11-.109.329-.109.36 0 .11.079.281.297.281.329 0 .375-.281.407-.438zm0 0"/></symbol><symbol id="b" overflow="visible"><path d="m5.156-3.719c.14 0 .5 0 .5-.344 0-.234-.218-.234-.39-.234h-2.282c-1.5 0-2.609 1.64-2.609 2.828 0 .875.594 1.579 1.5 1.579 1.172 0 2.5-1.203 2.5-2.734 0-.172 0-.656-.313-1.094zm-3.265 3.61c-.501-.001-.891-.361-.891-1.079 0-.296.11-1.109.469-1.703.422-.687 1.015-.828 1.36-.828.827 0 .905.656.905.969 0 .469-.203 1.281-.53 1.797-.392.578-.938.844-1.313.844zm0 0"/></symbol><symbol id="c" overflow="visible"><path d="m2.328-4.438c0-.187 0-.187-.203-.187-.453.438-1.078.438-1.36.438v.25c.157 0 .626 0 1-.188v3.547c0 .234 0 .328-.687.328h-.266v.25c.125 0 .985-.031 1.235-.031.219 0 1.094.031 1.25.031v-.25h-.267c-.703 0-.703-.094-.703-.328zm0 0"/></symbol><symbol id="d" overflow="visible"><path d="m3.516-1.266h-.236c-.015.157-.094.563-.187.625-.047.047-.578.047-.688.047h-1.28c.734-.64.984-.844 1.39-1.172.516-.406 1-.843 1-1.5 0-.843-.734-1.359-1.624-1.359-.86 0-1.454.61-1.454 1.25 0 .344.297.39.376.39a.365.365 0 0 0 .359-.374c0-.125-.047-.375-.406-.375.218-.485.687-.641 1.015-.641.703 0 1.063.547 1.063 1.11 0 .609-.438 1.078-.656 1.328l-1.672 1.671c-.079.063-.079.079-.079.266h2.876zm0 0"/></symbol><symbol id="e" overflow="visible"><path d="m4.078-2.297h2.782c.141 0 .329 0 .329-.203 0-.188-.188-.188-.329-.188h-2.78v-2.796c0-.141 0-.329-.204-.329-.203 0-.203.188-.203.329v2.796h-2.783c-.141 0-.329 0-.329.188 0 .203.188.203.329.203h2.78v2.797c0 .14 0 .328.204.328.203 0 .203-.187.203-.328zm0 0"/></symbol><clipPath id="f"><path d="m201 22h6.805v26h-6.805zm0 0"/></clipPath><clipPath id="g"><path d="m145 8h62.805v26h-62.805zm0 0"/></clipPath><clipPath id="h"><path d="m145 36h62.805v26h-62.805zm0 0"/></clipPath><path d="m0 6.973v-13.945zm56.695-28.121v13.949m-56.695 14.172c31.496 0 25.199-14.172 56.695-14.172m0-13.949c-31.496 0-25.2 14.176-56.695 14.176" fill="none" stroke="#000" stroke-miterlimit="10" stroke-width=".3985" transform="matrix(1 0 0 -1 9.18 20.938)"/><path d="m17.008-8.957v14.172m22.68-24.379v14.176" fill="none" stroke="#000" stroke-dasharray="2.98883 2.98883" stroke-miterlimit="10" stroke-width=".3985" transform="matrix(1 0 0 -1 9.18 20.938)"/><use x="21.776" xlink:href="#a" y="37.705"/><use x="26.131" xlink:href="#c" y="39.2"/><use x="44.453" xlink:href="#a" y="47.91"/><use x="48.808" xlink:href="#d" y="49.404"/><path d="m-2.836-6.972v13.715" fill="none" stroke="#000" stroke-miterlimit="10" stroke-width=".3985" transform="matrix(1 0 0 -1 9.18 20.938)"/><path d="m-1.194 1.595c.098-.597 1.196-1.495 1.492-1.594-.296-.101-1.394-.996-1.492-1.593" style="fill:none;stroke-width:.31879;stroke-linecap:round;stroke-linejoin:round;stroke:#000;stroke-miterlimit:10" transform="matrix(0 -1 -1 0 6.345 14.197)"/><use x="3.32" xlink:href="#b" y="35.721"/><use x="76.172" xlink:href="#e" y="37.602"/><path d="m2.836 9.81c10.226.085 16.28-1.263 25.097-5.474" fill="none" stroke="#000" stroke-miterlimit="10" stroke-width=".3985" transform="matrix(1 0 0 -1 9.18 20.938)"/><path d="m-1.194 1.594c.1-.598 1.194-1.495 1.493-1.595-.299-.099-1.395-.995-1.495-1.592" style="fill:none;stroke-width:.31879;stroke-linecap:round;stroke-linejoin:round;stroke:#000;stroke-miterlimit:10" transform="matrix(.90233 .43091 .43091 -.90233 37.113 16.601)"/><use x="22.03" xlink:href="#a" y="7.61"/><path d="m85.039-7.199v-13.949zm0 0c31.496 0 25.199 14.172 56.695 14.172m0-13.945c-18.898 0-18.898-14.402 0-14.402m0-13.946c-31.496 0-25.2 14.172-56.695 14.172m0 0v13.949" fill="none" stroke="#000" stroke-miterlimit="10" stroke-width=".3985" transform="matrix(1 0 0 -1 9.18 20.938)"/><g clip-path="url(#f)"><path d="m198.43-21.148v13.949" fill="none" stroke="#000" stroke-miterlimit="10" stroke-width=".3985" transform="matrix(1 0 0 -1 9.18 20.938)"/></g><path d="m141.734-21.375c18.898 0 18.898 14.403 0 14.403" fill="none" stroke="#000" stroke-miterlimit="10" stroke-width=".3985" transform="matrix(1 0 0 -1 9.18 20.938)"/><g clip-path="url(#g)"><path d="m141.734 6.973c31.496 0 25.2-14.172 56.695-14.172" fill="none" stroke="#000" stroke-miterlimit="10" stroke-width=".3985" transform="matrix(1 0 0 -1 9.18 20.938)"/></g><g clip-path="url(#h)"><path d="m198.43-21.148c-31.497 0-25.2-14.172-56.696-14.172" fill="none" stroke="#000" stroke-miterlimit="10" stroke-width=".3985" transform="matrix(1 0 0 -1 9.18 20.938)"/></g><path d="m82.207-21.148v13.488" fill="none" stroke="#000" stroke-miterlimit="10" stroke-width=".3985" transform="matrix(1 0 0 -1 9.18 20.938)"/><path d="m-1.197 1.593c.101-.598 1.195-1.493 1.496-1.594-.3-.098-1.395-.996-1.496-1.594" style="fill:none;stroke-width:.31879;stroke-linecap:round;stroke-linejoin:round;stroke:#000;stroke-miterlimit:10" transform="matrix(0 -1 -1 0 91.386 28.596)"/><use x="88.36" xlink:href="#b" y="49.894"/><path d="m133.23 6.235v-14.457m0-11.903v-15.023m17.008 41.383v-14.457m0-11.903v-15.023" fill="none" stroke="#000" stroke-dasharray="2.98883 2.98883" stroke-miterlimit="10" stroke-width=".3985" transform="matrix(1 0 0 -1 9.18 20.938)"/><use x="137.996" xlink:href="#a" y="9.688"/><use x="142.352" xlink:href="#c" y="11.182"/><use x="155.004" xlink:href="#a" y="9.688"/><use x="159.36" xlink:href="#d" y="11.182"/><path d="m87.875-4.363c10.34.453 16.418 2.14 25.11 6.867" fill="none" stroke="#000" stroke-miterlimit="10" stroke-width=".3985" transform="matrix(1 0 0 -1 9.18 20.938)"/><path d="m-1.194 1.593c.098-.596 1.194-1.494 1.49-1.593-.298-.1-1.39-.996-1.492-1.594" style="fill:none;stroke-width:.31879;stroke-linecap:round;stroke-linejoin:round;stroke:#000;stroke-miterlimit:10" transform="matrix(.87857233 -.47746274 -.47746274 -.87857233 122.165844 18.434723)"/><use x="107.069" xlink:href="#a" y="21.783"/><g fill="none" stroke="#000" stroke-miterlimit="10"><path d="m155.906-70.468c0 2.594-6.344 4.695-14.172 4.695s-14.172-2.102-14.172-4.695c0-2.594 6.344-4.696 14.172-4.696s14.172 2.102 14.172 4.696zm-28.546-28.746.202 28.746m28.543-28.746-.2 28.746m-28.545-28.746c0-2.348 6.45-4.25 14.402-4.25 7.954 0 14.403 1.902 14.403 4.25m-4.853 35.019c-7.105 1.906-12.05 1.906-19.156 0" stroke-width=".3985" transform="matrix(1 0 0 -1 9.18 20.938)"/><path d="m-1.196 1.592c.1-.596 1.196-1.491 1.496-1.592-.297-.1-1.395-.997-1.494-1.593" stroke-linecap="round" stroke-linejoin="round" stroke-width=".31879" transform="matrix(.96591 .25879 .25879 -.96591 160.493 85.132)"/><path d="m-1.195 1.595c.098-.597 1.197-1.495 1.494-1.595-.299-.1-1.396-.996-1.495-1.592" stroke-linecap="round" stroke-linejoin="round" stroke-width=".31879" transform="matrix(-.96591 .25879 .25879 .96591 141.335 85.132)"/></g><use x="131.888" xlink:href="#a" y="87.395"/><path d="m164.61-99.898v33.559" fill="none" stroke="#000" stroke-miterlimit="10" stroke-width=".3985" transform="matrix(1 0 0 -1 9.18 20.938)"/><path d="m-1.194 1.596c.098-.598 1.196-1.496 1.494-1.594-.297-.102-1.395-1-1.493-1.598" style="fill:none;stroke-width:.31879;stroke-linecap:round;stroke-linejoin:round;stroke:#000;stroke-miterlimit:10" transform="matrix(0 -1 -1 0 173.791 87.279)"/><use x="177.309" xlink:href="#b" y="105.973"/><path d="m133.11-102.617.12 35.551m17.13-35.55-.122 35.55" fill="none" stroke="#000" stroke-dasharray="2.98883 2.98883" stroke-miterlimit="10" stroke-width=".3985" transform="matrix(1 0 0 -1 9.18 20.938)"/><use x="137.877" xlink:href="#a" y="131.361"/><use x="142.232" xlink:href="#c" y="132.856"/><use x="155.124" xlink:href="#a" y="131.361"/><use x="159.479" xlink:href="#d" y="132.856"/><path d="m143.957-45.054v-11.34m-4.446 11.34v-11.34m-96.991-14.074c0 7.828-6.345 14.172-14.173 14.172s-14.175-6.344-14.175-14.172 6.347-14.172 14.175-14.172 14.173 6.344 14.173 14.172zm0 0" fill="none" stroke="#000" stroke-miterlimit="10" stroke-width=".3985" transform="matrix(1 0 0 -1 9.18 20.938)"/><path d="m15.5-64.48h25.69m-25.69-11.977h25.69" fill="none" stroke="#000" stroke-dasharray="2.98883 2.98883" stroke-miterlimit="10" stroke-width=".3985" transform="matrix(1 0 0 -1 9.18 20.938)"/><use x="53.892" xlink:href="#a" y="86.813"/><use x="58.247" xlink:href="#d" y="88.308"/><use x="53.892" xlink:href="#a" y="98.793"/><use x="58.247" xlink:href="#c" y="100.287"/><path d="m19.355-74.66h17.525" fill="none" stroke="#000" stroke-miterlimit="10" stroke-width=".3985" transform="matrix(1 0 0 -1 9.18 20.938)"/><path d="m-1.197 1.596c.102-.598 1.195-1.497 1.497-1.594-.3-.102-1.395-1-1.497-1.598" style="fill:none;stroke-width:.31879;stroke-linecap:round;stroke-linejoin:round;stroke:#000;stroke-miterlimit:10" transform="matrix(1 0 0 -1 46.06 95.6)"/><use x="34.502" xlink:href="#b" y="96.226"/><path d="m30.57-45.054v11.34m-4.445-11.34v11.34m-11.102-46.594c-5.277 5.281-5.277 14.398 0 19.68" fill="none" stroke="#000" stroke-miterlimit="10" stroke-width=".3985" transform="matrix(1 0 0 -1 9.18 20.938)"/><path d="m-1.194 1.595c.097-.6 1.193-1.497 1.494-1.595-.3-.101-1.395-.996-1.494-1.593" style="fill:none;stroke-width:.31879;stroke-linecap:round;stroke-linejoin:round;stroke:#000;stroke-miterlimit:10" transform="matrix(.70710678 .70710678 .70710678 -.70710678 24.204762 101.246536)"/><path d="m-1.194 1.593c.1-.597 1.194-1.491 1.495-1.593-.301-.097-1.398-.995-1.495-1.594" style="fill:none;stroke-width:.31879;stroke-linecap:round;stroke-linejoin:round;stroke:#000;stroke-miterlimit:10" transform="matrix(.70710678 -.70710678 -.70710678 -.70710678 24.205049 81.568157)"/><use x="14.152" xlink:href="#a" y="93.55"/></svg>