<svg xmlns="http://www.w3.org/2000/svg" xmlns:xlink="http://www.w3.org/1999/xlink" width="277.073" height="181.568" viewBox="0 0 207.805 136.176"><defs><symbol overflow="visible" id="a"><path style="stroke:none" d="M2.938-3.719h1.671c.125 0 .485 0 .485-.344 0-.234-.203-.234-.407-.234h-2.78c-.204 0-.595 0-1.032.469-.328.36-.61.844-.61.89 0 .016 0 .11.126.11.078 0 .093-.047.156-.125.484-.766 1.062-.766 1.265-.766h.829L1.67-.516c-.046.11-.109.329-.109.36 0 .11.079.281.297.281.329 0 .375-.281.407-.438Zm0 0"/></symbol><symbol overflow="visible" id="d"><path style="stroke:none" d="M5.156-3.719c.14 0 .5 0 .5-.344 0-.234-.218-.234-.39-.234H2.984c-1.5 0-2.609 1.64-2.609 2.828C.375-.594.969.11 1.875.11c1.172 0 2.5-1.203 2.5-2.734 0-.172 0-.656-.313-1.094ZM1.891-.109C1.39-.11 1-.47 1-1.188c0-.296.11-1.109.469-1.703.422-.687 1.015-.828 1.36-.828.827 0 .905.656.905.969 0 .469-.203 1.281-.53 1.797-.392.578-.938.844-1.313.844Zm0 0"/></symbol><symbol overflow="visible" id="b"><path style="stroke:none" d="M2.328-4.438c0-.187 0-.187-.203-.187-.453.438-1.078.438-1.36.438v.25c.157 0 .626 0 1-.188v3.547c0 .234 0 .328-.687.328H.812V0c.125 0 .985-.031 1.235-.031.219 0 1.094.031 1.25.031v-.25H3.03c-.703 0-.703-.094-.703-.328Zm0 0"/></symbol><symbol overflow="visible" id="c"><path style="stroke:none" d="M3.516-1.266H3.28c-.015.157-.094.563-.187.625-.047.047-.578.047-.688.047h-1.28c.734-.64.984-.844 1.39-1.172.516-.406 1-.843 1-1.5 0-.843-.734-1.359-1.624-1.359-.86 0-1.454.61-1.454 1.25 0 .344.297.39.376.39a.365.365 0 0 0 .359-.374c0-.125-.047-.375-.406-.375.218-.485.687-.641 1.015-.641.703 0 1.063.547 1.063 1.11 0 .609-.438 1.078-.656 1.328L.516-.266C.437-.203.437-.187.437 0h2.876Zm0 0"/></symbol><symbol overflow="visible" id="e"><path style="stroke:none" d="M4.078-2.297H6.86c.141 0 .329 0 .329-.203 0-.188-.188-.188-.329-.188H4.08v-2.796c0-.141 0-.329-.204-.329-.203 0-.203.188-.203.329v2.796H.89c-.141 0-.329 0-.329.188 0 .203.188.203.329.203h2.78V.5c0 .14 0 .328.204.328.203 0 .203-.187.203-.328Zm0 0"/></symbol><clipPath id="f"><path d="M201 22h6.805v26H201Zm0 0"/></clipPath><clipPath id="g"><path d="M145 8h62.805v26H145Zm0 0"/></clipPath><clipPath id="h"><path d="M145 36h62.805v26H145Zm0 0"/></clipPath></defs><path style="fill:none;stroke-width:.3985;stroke-linecap:butt;stroke-linejoin:miter;stroke:#000;stroke-opacity:1;stroke-miterlimit:10" d="M0 6.973V-6.972 6.973Zm56.695-28.121v13.949M0 6.973c31.496 0 25.199-14.172 56.695-14.172m0-13.949C25.199-21.148 31.495-6.972 0-6.972" transform="matrix(1 0 0 -1 9.18 20.938)"/><path style="fill:none;stroke-width:.3985;stroke-linecap:butt;stroke-linejoin:miter;stroke:#000;stroke-opacity:1;stroke-dasharray:2.98883,2.98883;stroke-miterlimit:10" d="M17.008-8.957V5.215m22.68-24.379v14.176" transform="matrix(1 0 0 -1 9.18 20.938)"/><use xlink:href="#a" x="21.776" y="37.705" style="fill:#000;fill-opacity:1"/><use xlink:href="#b" x="26.131" y="39.2" style="fill:#000;fill-opacity:1"/><use xlink:href="#a" x="44.453" y="47.91" style="fill:#000;fill-opacity:1"/><use xlink:href="#c" x="48.808" y="49.404" style="fill:#000;fill-opacity:1"/><path style="fill:none;stroke-width:.3985;stroke-linecap:butt;stroke-linejoin:miter;stroke:#000;stroke-opacity:1;stroke-miterlimit:10" d="M-2.836-6.972V6.743" transform="matrix(1 0 0 -1 9.18 20.938)"/><path style="fill:none;stroke-width:.31879;stroke-linecap:round;stroke-linejoin:round;stroke:#000;stroke-opacity:1;stroke-miterlimit:10" d="M-1.194 1.595C-1.096.998.002.1.298.001.002-.1-1.096-.995-1.194-1.592" transform="matrix(0 -1 -1 0 6.345 14.197)"/><use xlink:href="#d" x="3.32" y="35.721" style="fill:#000;fill-opacity:1"/><use xlink:href="#e" x="76.172" y="37.602" style="fill:#000;fill-opacity:1"/><path style="fill:none;stroke-width:.3985;stroke-linecap:butt;stroke-linejoin:miter;stroke:#000;stroke-opacity:1;stroke-miterlimit:10" d="M2.836 9.81c10.226.085 16.28-1.263 25.097-5.474" transform="matrix(1 0 0 -1 9.18 20.938)"/><path style="fill:none;stroke-width:.31879;stroke-linecap:round;stroke-linejoin:round;stroke:#000;stroke-opacity:1;stroke-miterlimit:10" d="M-1.194 1.594C-1.094.996 0 .099.299-.001 0-.1-1.096-.996-1.196-1.593" transform="matrix(.90233 .43091 .43091 -.90233 37.113 16.601)"/><use xlink:href="#a" x="22.03" y="7.61" style="fill:#000;fill-opacity:1"/><path style="fill:none;stroke-width:.3985;stroke-linecap:butt;stroke-linejoin:miter;stroke:#000;stroke-opacity:1;stroke-miterlimit:10" d="M85.039-7.199v-13.949 13.949Zm0 0c31.496 0 25.199 14.172 56.695 14.172m0-13.945c-18.898 0-18.898-14.402 0-14.402m0-13.946c-31.496 0-25.2 14.172-56.695 14.172m0 0v13.949" transform="matrix(1 0 0 -1 9.18 20.938)"/><g clip-path="url(#f)"><path style="fill:none;stroke-width:.3985;stroke-linecap:butt;stroke-linejoin:miter;stroke:#000;stroke-opacity:1;stroke-miterlimit:10" d="M198.43-21.148v13.949" transform="matrix(1 0 0 -1 9.18 20.938)"/></g><path style="fill:none;stroke-width:.3985;stroke-linecap:butt;stroke-linejoin:miter;stroke:#000;stroke-opacity:1;stroke-miterlimit:10" d="M141.734-21.375c18.898 0 18.898 14.403 0 14.403" transform="matrix(1 0 0 -1 9.18 20.938)"/><g clip-path="url(#g)"><path style="fill:none;stroke-width:.3985;stroke-linecap:butt;stroke-linejoin:miter;stroke:#000;stroke-opacity:1;stroke-miterlimit:10" d="M141.734 6.973c31.496 0 25.2-14.172 56.695-14.172" transform="matrix(1 0 0 -1 9.18 20.938)"/></g><g clip-path="url(#h)"><path style="fill:none;stroke-width:.3985;stroke-linecap:butt;stroke-linejoin:miter;stroke:#000;stroke-opacity:1;stroke-miterlimit:10" d="M198.43-21.148c-31.497 0-25.2-14.172-56.696-14.172" transform="matrix(1 0 0 -1 9.18 20.938)"/></g><path style="fill:none;stroke-width:.3985;stroke-linecap:butt;stroke-linejoin:miter;stroke:#000;stroke-opacity:1;stroke-miterlimit:10" d="M82.207-21.148V-7.66" transform="matrix(1 0 0 -1 9.18 20.938)"/><path style="fill:none;stroke-width:.31879;stroke-linecap:round;stroke-linejoin:round;stroke:#000;stroke-opacity:1;stroke-miterlimit:10" d="M-1.197 1.593C-1.096.995-.002.1.299-.001c-.3-.098-1.395-.996-1.496-1.594" transform="matrix(0 -1 -1 0 91.386 28.596)"/><use xlink:href="#d" x="88.36" y="49.894" style="fill:#000;fill-opacity:1"/><path style="fill:none;stroke-width:.3985;stroke-linecap:butt;stroke-linejoin:miter;stroke:#000;stroke-opacity:1;stroke-dasharray:2.98883,2.98883;stroke-miterlimit:10" d="M133.23 6.235V-8.222m0-11.903v-15.023m17.008 41.383V-8.222m0-11.903v-15.023" transform="matrix(1 0 0 -1 9.18 20.938)"/><use xlink:href="#a" x="137.996" y="9.688" style="fill:#000;fill-opacity:1"/><use xlink:href="#b" x="142.352" y="11.182" style="fill:#000;fill-opacity:1"/><use xlink:href="#a" x="155.004" y="9.688" style="fill:#000;fill-opacity:1"/><use xlink:href="#c" x="159.36" y="11.182" style="fill:#000;fill-opacity:1"/><path style="fill:none;stroke-width:.3985;stroke-linecap:butt;stroke-linejoin:miter;stroke:#000;stroke-opacity:1;stroke-miterlimit:10" d="M87.875-4.363c10.34.453 16.418 2.14 25.11 6.867" transform="matrix(1 0 0 -1 9.18 20.938)"/><path style="fill:none;stroke-width:.31879;stroke-linecap:round;stroke-linejoin:round;stroke:#000;stroke-opacity:1;stroke-miterlimit:10" d="M-1.194 1.593C-1.096.997 0 .099.296 0c-.298-.1-1.39-.996-1.492-1.594" transform="scale(.99993 -.99993) rotate(28.522 97.354 231.12)"/><use xlink:href="#a" x="107.069" y="21.783" style="fill:#000;fill-opacity:1"/><path style="fill:none;stroke-width:.3985;stroke-linecap:butt;stroke-linejoin:miter;stroke:#000;stroke-opacity:1;stroke-miterlimit:10" d="M155.906-70.468c0 2.594-6.344 4.695-14.172 4.695s-14.172-2.102-14.172-4.695c0-2.594 6.344-4.696 14.172-4.696s14.172 2.102 14.172 4.696ZM127.36-99.214l.202 28.746m28.543-28.746-.2 28.746M127.36-99.214c0-2.348 6.45-4.25 14.402-4.25 7.954 0 14.403 1.902 14.403 4.25m-4.853 35.019c-7.105 1.906-12.05 1.906-19.156 0" transform="matrix(1 0 0 -1 9.18 20.938)"/><path style="fill:none;stroke-width:.31879;stroke-linecap:round;stroke-linejoin:round;stroke:#000;stroke-opacity:1;stroke-miterlimit:10" d="M-1.196 1.592C-1.096.996 0 .101.3 0 .003-.1-1.095-.997-1.194-1.593" transform="matrix(.96591 .25879 .25879 -.96591 160.493 85.132)"/><path style="fill:none;stroke-width:.31879;stroke-linecap:round;stroke-linejoin:round;stroke:#000;stroke-opacity:1;stroke-miterlimit:10" d="M-1.195 1.595C-1.097.998.002.1.299 0 0-.1-1.097-.996-1.196-1.592" transform="matrix(-.96591 .25879 .25879 .96591 141.335 85.132)"/><use xlink:href="#a" x="131.888" y="87.395" style="fill:#000;fill-opacity:1"/><path style="fill:none;stroke-width:.3985;stroke-linecap:butt;stroke-linejoin:miter;stroke:#000;stroke-opacity:1;stroke-miterlimit:10" d="M164.61-99.898v33.559" transform="matrix(1 0 0 -1 9.18 20.938)"/><path style="fill:none;stroke-width:.31879;stroke-linecap:round;stroke-linejoin:round;stroke:#000;stroke-opacity:1;stroke-miterlimit:10" d="M-1.194 1.596C-1.096.998.002.1.3.002c-.297-.102-1.395-1-1.493-1.598" transform="matrix(0 -1 -1 0 173.791 87.279)"/><use xlink:href="#d" x="177.309" y="105.973" style="fill:#000;fill-opacity:1"/><path style="fill:none;stroke-width:.3985;stroke-linecap:butt;stroke-linejoin:miter;stroke:#000;stroke-opacity:1;stroke-dasharray:2.98883,2.98883;stroke-miterlimit:10" d="m133.11-102.617.12 35.551m17.13-35.55-.122 35.55" transform="matrix(1 0 0 -1 9.18 20.938)"/><use xlink:href="#a" x="137.877" y="131.361" style="fill:#000;fill-opacity:1"/><use xlink:href="#b" x="142.232" y="132.856" style="fill:#000;fill-opacity:1"/><use xlink:href="#a" x="155.124" y="131.361" style="fill:#000;fill-opacity:1"/><use xlink:href="#c" x="159.479" y="132.856" style="fill:#000;fill-opacity:1"/><path style="fill:none;stroke-width:.3985;stroke-linecap:butt;stroke-linejoin:miter;stroke:#000;stroke-opacity:1;stroke-miterlimit:10" d="M143.957-45.054v-11.34m-4.446 11.34v-11.34M42.52-70.468c0 7.828-6.345 14.172-14.173 14.172S14.172-62.64 14.172-70.468 20.519-84.64 28.347-84.64 42.52-78.296 42.52-70.468Zm0 0" transform="matrix(1 0 0 -1 9.18 20.938)"/><path style="fill:none;stroke-width:.3985;stroke-linecap:butt;stroke-linejoin:miter;stroke:#000;stroke-opacity:1;stroke-dasharray:2.98883,2.98883;stroke-miterlimit:10" d="M15.5-64.48h25.69M15.5-76.457h25.69" transform="matrix(1 0 0 -1 9.18 20.938)"/><use xlink:href="#a" x="53.892" y="86.813" style="fill:#000;fill-opacity:1"/><use xlink:href="#c" x="58.247" y="88.308" style="fill:#000;fill-opacity:1"/><use xlink:href="#a" x="53.892" y="98.793" style="fill:#000;fill-opacity:1"/><use xlink:href="#b" x="58.247" y="100.287" style="fill:#000;fill-opacity:1"/><path style="fill:none;stroke-width:.3985;stroke-linecap:butt;stroke-linejoin:miter;stroke:#000;stroke-opacity:1;stroke-miterlimit:10" d="M19.355-74.66H36.88" transform="matrix(1 0 0 -1 9.18 20.938)"/><path style="fill:none;stroke-width:.31879;stroke-linecap:round;stroke-linejoin:round;stroke:#000;stroke-opacity:1;stroke-miterlimit:10" d="M-1.197 1.596C-1.095.998-.002.099.3.002 0-.1-1.095-.998-1.197-1.596" transform="matrix(1 0 0 -1 46.06 95.6)"/><use xlink:href="#d" x="34.502" y="96.226" style="fill:#000;fill-opacity:1"/><path style="fill:none;stroke-width:.3985;stroke-linecap:butt;stroke-linejoin:miter;stroke:#000;stroke-opacity:1;stroke-miterlimit:10" d="M30.57-45.054v11.34m-4.445-11.34v11.34M15.023-80.308c-5.277 5.281-5.277 14.398 0 19.68" transform="matrix(1 0 0 -1 9.18 20.938)"/><path style="fill:none;stroke-width:.31879;stroke-linecap:round;stroke-linejoin:round;stroke:#000;stroke-opacity:1;stroke-miterlimit:10" d="M-1.194 1.595C-1.097.995-.001.098.3 0 0-.101-1.095-.996-1.194-1.593" transform="scale(1 -1) rotate(-45 -110.113 -79.841)"/><path style="fill:none;stroke-width:.31879;stroke-linecap:round;stroke-linejoin:round;stroke:#000;stroke-opacity:1;stroke-miterlimit:10" d="M-1.194 1.593C-1.094.996 0 .102.301 0 0-.097-1.097-.995-1.194-1.594" transform="scale(1 -1) rotate(45 110.564 -11.566)"/><use xlink:href="#a" x="14.152" y="93.55" style="fill:#000;fill-opacity:1"/></svg>