<?xml version="1.0" encoding="UTF-8"?>
<svg xmlns="http://www.w3.org/2000/svg" xmlns:xlink="http://www.w3.org/1999/xlink" width="158.866" height="260.913" viewBox="0 0 158.866 260.913">
<path fill="none" stroke-width="1" stroke-linecap="butt" stroke-linejoin="miter" stroke="rgb(0%, 0%, 0%)" stroke-opacity="1" stroke-miterlimit="4" d="M 6.445312 239.992188 C 6.445312 239.992188 64.769531 210.828125 64.769531 210.828125 " transform="matrix(1, 0, 0, 1, 8, 8)"/>
<path fill-rule="nonzero" fill="rgb(0%, 0%, 0%)" fill-opacity="1" stroke-width="1" stroke-linecap="butt" stroke-linejoin="miter" stroke="rgb(0%, 0%, 0%)" stroke-opacity="1" stroke-miterlimit="4" d="M 67.117188 209.652344 C 67.117188 209.652344 65.058594 211.871094 65.058594 211.871094 C 65.058594 211.871094 65.214844 210.605469 65.214844 210.605469 C 65.214844 210.605469 64.105469 209.972656 64.105469 209.972656 C 64.105469 209.972656 67.117188 209.652344 67.117188 209.652344 Z M 67.117188 209.652344 " transform="matrix(1, 0, 0, 1, 8, 8)"/>
<path fill="none" stroke-width="1" stroke-linecap="butt" stroke-linejoin="miter" stroke="rgb(0%, 0%, 0%)" stroke-opacity="1" stroke-miterlimit="4" d="M 3.402344 238.109375 C 3.402344 238.109375 3.402344 112.898438 3.402344 112.898438 " transform="matrix(1, 0, 0, 1, 8, 8)"/>
<path fill-rule="nonzero" fill="rgb(0%, 0%, 0%)" fill-opacity="1" stroke-width="1" stroke-linecap="butt" stroke-linejoin="miter" stroke="rgb(0%, 0%, 0%)" stroke-opacity="1" stroke-miterlimit="4" d="M 3.402344 110.273438 C 3.402344 110.273438 4.464844 113.109375 4.464844 113.109375 C 4.464844 113.109375 3.402344 112.398438 3.402344 112.398438 C 3.402344 112.398438 2.339844 113.109375 2.339844 113.109375 C 2.339844 113.109375 3.402344 110.273438 3.402344 110.273438 Z M 3.402344 110.273438 " transform="matrix(1, 0, 0, 1, 8, 8)"/>
<path fill="none" stroke-width="1" stroke-linecap="butt" stroke-linejoin="miter" stroke="rgb(0%, 0%, 0%)" stroke-opacity="1" stroke-miterlimit="4" d="M 71.433594 204.09375 C 71.433594 204.09375 71.433594 74.835938 71.433594 74.835938 " transform="matrix(1, 0, 0, 1, 8, 8)"/>
<path fill="none" stroke-width="1" stroke-linecap="butt" stroke-linejoin="miter" stroke="rgb(0%, 0%, 0%)" stroke-opacity="1" stroke-miterlimit="4" d="M 6.445312 103.929688 C 6.445312 103.929688 68.390625 72.953125 68.390625 72.953125 " transform="matrix(1, 0, 0, 1, 8, 8)"/>
<path fill-rule="nonzero" fill="rgb(25.097656%, 25.097656%, 85.098267%)" fill-opacity="1" stroke-width="0.5" stroke-linecap="butt" stroke-linejoin="miter" stroke="rgb(0%, 0%, 0%)" stroke-opacity="1" stroke-miterlimit="4" d="M 3.402344 238.109375 C 1.523438 238.109375 0 239.636719 0 241.511719 C 0 243.390625 1.523438 244.914062 3.402344 244.914062 C 5.277344 244.914062 6.804688 243.390625 6.804688 241.511719 C 6.804688 239.636719 5.277344 238.109375 3.402344 238.109375 Z M 3.402344 238.109375 " transform="matrix(1, 0, 0, 1, 8, 8)"/>
<path fill-rule="nonzero" fill="rgb(0%, 0%, 0%)" fill-opacity="1" stroke-width="0.5" stroke-linecap="butt" stroke-linejoin="miter" stroke="rgb(0%, 0%, 0%)" stroke-opacity="1" stroke-miterlimit="4" d="M 3.402344 204.09375 C 1.523438 204.09375 0 205.617188 0 207.496094 C 0 209.371094 1.523438 210.898438 3.402344 210.898438 C 5.277344 210.898438 6.804688 209.371094 6.804688 207.496094 C 6.804688 205.617188 5.277344 204.09375 3.402344 204.09375 Z M 3.402344 204.09375 " transform="matrix(1, 0, 0, 1, 8, 8)"/>
<path fill-rule="nonzero" fill="rgb(100%, 64.706421%, 0%)" fill-opacity="1" stroke-width="0.5" stroke-linecap="butt" stroke-linejoin="miter" stroke="rgb(0%, 0%, 0%)" stroke-opacity="1" stroke-miterlimit="4" d="M 3.402344 170.078125 C 1.523438 170.078125 0 171.601562 0 173.480469 C 0 175.355469 1.523438 176.882812 3.402344 176.882812 C 5.277344 176.882812 6.804688 175.355469 6.804688 173.480469 C 6.804688 171.601562 5.277344 170.078125 3.402344 170.078125 Z M 3.402344 170.078125 " transform="matrix(1, 0, 0, 1, 8, 8)"/>
<path fill-rule="nonzero" fill="rgb(0%, 39.215088%, 0%)" fill-opacity="1" stroke-width="0.5" stroke-linecap="butt" stroke-linejoin="miter" stroke="rgb(0%, 0%, 0%)" stroke-opacity="1" stroke-miterlimit="4" d="M 3.402344 136.0625 C 1.523438 136.0625 0 137.589844 0 139.464844 C 0 141.339844 1.523438 142.867188 3.402344 142.867188 C 5.277344 142.867188 6.804688 141.339844 6.804688 139.464844 C 6.804688 137.589844 5.277344 136.0625 3.402344 136.0625 Z M 3.402344 136.0625 " transform="matrix(1, 0, 0, 1, 8, 8)"/>
<path fill-rule="nonzero" fill="rgb(25.097656%, 25.097656%, 85.098267%)" fill-opacity="1" stroke-width="0.5" stroke-linecap="butt" stroke-linejoin="miter" stroke="rgb(0%, 0%, 0%)" stroke-opacity="1" stroke-miterlimit="4" d="M 3.402344 102.046875 C 1.523438 102.046875 0 103.570312 0 105.449219 C 0 107.324219 1.523438 108.851562 3.402344 108.851562 C 5.277344 108.851562 6.804688 107.324219 6.804688 105.449219 C 6.804688 103.570312 5.277344 102.046875 3.402344 102.046875 Z M 3.402344 102.046875 " transform="matrix(1, 0, 0, 1, 8, 8)"/>
<path fill-rule="nonzero" fill="rgb(0%, 0%, 0%)" fill-opacity="1" stroke-width="0.5" stroke-linecap="butt" stroke-linejoin="miter" stroke="rgb(0%, 0%, 0%)" stroke-opacity="1" stroke-miterlimit="4" d="M 3.402344 68.03125 C 1.523438 68.03125 0 69.554688 0 71.433594 C 0 73.308594 1.523438 74.835938 3.402344 74.835938 C 5.277344 74.835938 6.804688 73.308594 6.804688 71.433594 C 6.804688 69.554688 5.277344 68.03125 3.402344 68.03125 Z M 3.402344 68.03125 " transform="matrix(1, 0, 0, 1, 8, 8)"/>
<path fill-rule="nonzero" fill="rgb(100%, 64.706421%, 0%)" fill-opacity="1" stroke-width="0.5" stroke-linecap="butt" stroke-linejoin="miter" stroke="rgb(0%, 0%, 0%)" stroke-opacity="1" stroke-miterlimit="4" d="M 3.402344 34.015625 C 1.523438 34.015625 0 35.539062 0 37.417969 C 0 39.292969 1.523438 40.820312 3.402344 40.820312 C 5.277344 40.820312 6.804688 39.292969 6.804688 37.417969 C 6.804688 35.539062 5.277344 34.015625 3.402344 34.015625 Z M 3.402344 34.015625 " transform="matrix(1, 0, 0, 1, 8, 8)"/>
<path fill-rule="nonzero" fill="rgb(0%, 39.215088%, 0%)" fill-opacity="1" stroke-width="0.5" stroke-linecap="butt" stroke-linejoin="miter" stroke="rgb(0%, 0%, 0%)" stroke-opacity="1" stroke-miterlimit="4" d="M 3.402344 0 C 1.523438 0 0 1.523438 0 3.402344 C 0 5.277344 1.523438 6.804688 3.402344 6.804688 C 5.277344 6.804688 6.804688 5.277344 6.804688 3.402344 C 6.804688 1.523438 5.277344 0 3.402344 0 Z M 3.402344 0 " transform="matrix(1, 0, 0, 1, 8, 8)"/>
<path fill-rule="nonzero" fill="rgb(56.471252%, 93.333435%, 56.471252%)" fill-opacity="1" stroke-width="0.5" stroke-linecap="butt" stroke-linejoin="miter" stroke="rgb(0%, 0%, 0%)" stroke-opacity="1" stroke-miterlimit="4" d="M 37.417969 238.109375 C 35.539062 238.109375 34.015625 239.636719 34.015625 241.511719 C 34.015625 243.390625 35.539062 244.914062 37.417969 244.914062 C 39.292969 244.914062 40.820312 243.390625 40.820312 241.511719 C 40.820312 239.636719 39.292969 238.109375 37.417969 238.109375 Z M 37.417969 238.109375 " transform="matrix(1, 0, 0, 1, 8, 8)"/>
<path fill-rule="nonzero" fill="rgb(50.196838%, 0%, 50.196838%)" fill-opacity="1" stroke-width="0.5" stroke-linecap="butt" stroke-linejoin="miter" stroke="rgb(0%, 0%, 0%)" stroke-opacity="1" stroke-miterlimit="4" d="M 37.417969 204.09375 C 35.539062 204.09375 34.015625 205.617188 34.015625 207.496094 C 34.015625 209.371094 35.539062 210.898438 37.417969 210.898438 C 39.292969 210.898438 40.820312 209.371094 40.820312 207.496094 C 40.820312 205.617188 39.292969 204.09375 37.417969 204.09375 Z M 37.417969 204.09375 " transform="matrix(1, 0, 0, 1, 8, 8)"/>
<path fill-rule="nonzero" fill="rgb(100%, 0%, 0%)" fill-opacity="1" stroke-width="0.5" stroke-linecap="butt" stroke-linejoin="miter" stroke="rgb(0%, 0%, 0%)" stroke-opacity="1" stroke-miterlimit="4" d="M 37.417969 170.078125 C 35.539062 170.078125 34.015625 171.601562 34.015625 173.480469 C 34.015625 175.355469 35.539062 176.882812 37.417969 176.882812 C 39.292969 176.882812 40.820312 175.355469 40.820312 173.480469 C 40.820312 171.601562 39.292969 170.078125 37.417969 170.078125 Z M 37.417969 170.078125 " transform="matrix(1, 0, 0, 1, 8, 8)"/>
<path fill-rule="nonzero" fill="rgb(60.392761%, 80.392456%, 19.607544%)" fill-opacity="1" stroke-width="0.5" stroke-linecap="butt" stroke-linejoin="miter" stroke="rgb(0%, 0%, 0%)" stroke-opacity="1" stroke-miterlimit="4" d="M 37.417969 136.0625 C 35.539062 136.0625 34.015625 137.589844 34.015625 139.464844 C 34.015625 141.339844 35.539062 142.867188 37.417969 142.867188 C 39.292969 142.867188 40.820312 141.339844 40.820312 139.464844 C 40.820312 137.589844 39.292969 136.0625 37.417969 136.0625 Z M 37.417969 136.0625 " transform="matrix(1, 0, 0, 1, 8, 8)"/>
<path fill-rule="nonzero" fill="rgb(56.471252%, 93.333435%, 56.471252%)" fill-opacity="1" stroke-width="0.5" stroke-linecap="butt" stroke-linejoin="miter" stroke="rgb(0%, 0%, 0%)" stroke-opacity="1" stroke-miterlimit="4" d="M 37.417969 102.046875 C 35.539062 102.046875 34.015625 103.570312 34.015625 105.449219 C 34.015625 107.324219 35.539062 108.851562 37.417969 108.851562 C 39.292969 108.851562 40.820312 107.324219 40.820312 105.449219 C 40.820312 103.570312 39.292969 102.046875 37.417969 102.046875 Z M 37.417969 102.046875 " transform="matrix(1, 0, 0, 1, 8, 8)"/>
<path fill-rule="nonzero" fill="rgb(50.196838%, 0%, 50.196838%)" fill-opacity="1" stroke-width="0.5" stroke-linecap="butt" stroke-linejoin="miter" stroke="rgb(0%, 0%, 0%)" stroke-opacity="1" stroke-miterlimit="4" d="M 37.417969 68.03125 C 35.539062 68.03125 34.015625 69.554688 34.015625 71.433594 C 34.015625 73.308594 35.539062 74.835938 37.417969 74.835938 C 39.292969 74.835938 40.820312 73.308594 40.820312 71.433594 C 40.820312 69.554688 39.292969 68.03125 37.417969 68.03125 Z M 37.417969 68.03125 " transform="matrix(1, 0, 0, 1, 8, 8)"/>
<path fill-rule="nonzero" fill="rgb(100%, 0%, 0%)" fill-opacity="1" stroke-width="0.5" stroke-linecap="butt" stroke-linejoin="miter" stroke="rgb(0%, 0%, 0%)" stroke-opacity="1" stroke-miterlimit="4" d="M 37.417969 34.015625 C 35.539062 34.015625 34.015625 35.539062 34.015625 37.417969 C 34.015625 39.292969 35.539062 40.820312 37.417969 40.820312 C 39.292969 40.820312 40.820312 39.292969 40.820312 37.417969 C 40.820312 35.539062 39.292969 34.015625 37.417969 34.015625 Z M 37.417969 34.015625 " transform="matrix(1, 0, 0, 1, 8, 8)"/>
<path fill-rule="nonzero" fill="rgb(60.392761%, 80.392456%, 19.607544%)" fill-opacity="1" stroke-width="0.5" stroke-linecap="butt" stroke-linejoin="miter" stroke="rgb(0%, 0%, 0%)" stroke-opacity="1" stroke-miterlimit="4" d="M 37.417969 0 C 35.539062 0 34.015625 1.523438 34.015625 3.402344 C 34.015625 5.277344 35.539062 6.804688 37.417969 6.804688 C 39.292969 6.804688 40.820312 5.277344 40.820312 3.402344 C 40.820312 1.523438 39.292969 0 37.417969 0 Z M 37.417969 0 " transform="matrix(1, 0, 0, 1, 8, 8)"/>
<path fill-rule="nonzero" fill="rgb(0%, 39.215088%, 0%)" fill-opacity="1" stroke-width="0.5" stroke-linecap="butt" stroke-linejoin="miter" stroke="rgb(0%, 0%, 0%)" stroke-opacity="1" stroke-miterlimit="4" d="M 71.433594 238.109375 C 69.554688 238.109375 68.03125 239.636719 68.03125 241.511719 C 68.03125 243.390625 69.554688 244.914062 71.433594 244.914062 C 73.308594 244.914062 74.835938 243.390625 74.835938 241.511719 C 74.835938 239.636719 73.308594 238.109375 71.433594 238.109375 Z M 71.433594 238.109375 " transform="matrix(1, 0, 0, 1, 8, 8)"/>
<path fill-rule="nonzero" fill="rgb(25.097656%, 25.097656%, 85.098267%)" fill-opacity="1" stroke-width="0.5" stroke-linecap="butt" stroke-linejoin="miter" stroke="rgb(0%, 0%, 0%)" stroke-opacity="1" stroke-miterlimit="4" d="M 71.433594 204.09375 C 69.554688 204.09375 68.03125 205.617188 68.03125 207.496094 C 68.03125 209.371094 69.554688 210.898438 71.433594 210.898438 C 73.308594 210.898438 74.835938 209.371094 74.835938 207.496094 C 74.835938 205.617188 73.308594 204.09375 71.433594 204.09375 Z M 71.433594 204.09375 " transform="matrix(1, 0, 0, 1, 8, 8)"/>
<path fill-rule="nonzero" fill="rgb(0%, 0%, 0%)" fill-opacity="1" stroke-width="0.5" stroke-linecap="butt" stroke-linejoin="miter" stroke="rgb(0%, 0%, 0%)" stroke-opacity="1" stroke-miterlimit="4" d="M 71.433594 170.078125 C 69.554688 170.078125 68.03125 171.601562 68.03125 173.480469 C 68.03125 175.355469 69.554688 176.882812 71.433594 176.882812 C 73.308594 176.882812 74.835938 175.355469 74.835938 173.480469 C 74.835938 171.601562 73.308594 170.078125 71.433594 170.078125 Z M 71.433594 170.078125 " transform="matrix(1, 0, 0, 1, 8, 8)"/>
<path fill-rule="nonzero" fill="rgb(100%, 64.706421%, 0%)" fill-opacity="1" stroke-width="0.5" stroke-linecap="butt" stroke-linejoin="miter" stroke="rgb(0%, 0%, 0%)" stroke-opacity="1" stroke-miterlimit="4" d="M 71.433594 136.0625 C 69.554688 136.0625 68.03125 137.589844 68.03125 139.464844 C 68.03125 141.339844 69.554688 142.867188 71.433594 142.867188 C 73.308594 142.867188 74.835938 141.339844 74.835938 139.464844 C 74.835938 137.589844 73.308594 136.0625 71.433594 136.0625 Z M 71.433594 136.0625 " transform="matrix(1, 0, 0, 1, 8, 8)"/>
<path fill-rule="nonzero" fill="rgb(0%, 39.215088%, 0%)" fill-opacity="1" stroke-width="0.5" stroke-linecap="butt" stroke-linejoin="miter" stroke="rgb(0%, 0%, 0%)" stroke-opacity="1" stroke-miterlimit="4" d="M 71.433594 102.046875 C 69.554688 102.046875 68.03125 103.570312 68.03125 105.449219 C 68.03125 107.324219 69.554688 108.851562 71.433594 108.851562 C 73.308594 108.851562 74.835938 107.324219 74.835938 105.449219 C 74.835938 103.570312 73.308594 102.046875 71.433594 102.046875 Z M 71.433594 102.046875 " transform="matrix(1, 0, 0, 1, 8, 8)"/>
<path fill-rule="nonzero" fill="rgb(25.097656%, 25.097656%, 85.098267%)" fill-opacity="1" stroke-width="0.5" stroke-linecap="butt" stroke-linejoin="miter" stroke="rgb(0%, 0%, 0%)" stroke-opacity="1" stroke-miterlimit="4" d="M 71.433594 68.03125 C 69.554688 68.03125 68.03125 69.554688 68.03125 71.433594 C 68.03125 73.308594 69.554688 74.835938 71.433594 74.835938 C 73.308594 74.835938 74.835938 73.308594 74.835938 71.433594 C 74.835938 69.554688 73.308594 68.03125 71.433594 68.03125 Z M 71.433594 68.03125 " transform="matrix(1, 0, 0, 1, 8, 8)"/>
<path fill-rule="nonzero" fill="rgb(0%, 0%, 0%)" fill-opacity="1" stroke-width="0.5" stroke-linecap="butt" stroke-linejoin="miter" stroke="rgb(0%, 0%, 0%)" stroke-opacity="1" stroke-miterlimit="4" d="M 71.433594 34.015625 C 69.554688 34.015625 68.03125 35.539062 68.03125 37.417969 C 68.03125 39.292969 69.554688 40.820312 71.433594 40.820312 C 73.308594 40.820312 74.835938 39.292969 74.835938 37.417969 C 74.835938 35.539062 73.308594 34.015625 71.433594 34.015625 Z M 71.433594 34.015625 " transform="matrix(1, 0, 0, 1, 8, 8)"/>
<path fill-rule="nonzero" fill="rgb(100%, 64.706421%, 0%)" fill-opacity="1" stroke-width="0.5" stroke-linecap="butt" stroke-linejoin="miter" stroke="rgb(0%, 0%, 0%)" stroke-opacity="1" stroke-miterlimit="4" d="M 71.433594 0 C 69.554688 0 68.03125 1.523438 68.03125 3.402344 C 68.03125 5.277344 69.554688 6.804688 71.433594 6.804688 C 73.308594 6.804688 74.835938 5.277344 74.835938 3.402344 C 74.835938 1.523438 73.308594 0 71.433594 0 Z M 71.433594 0 " transform="matrix(1, 0, 0, 1, 8, 8)"/>
<path fill-rule="nonzero" fill="rgb(60.392761%, 80.392456%, 19.607544%)" fill-opacity="1" stroke-width="0.5" stroke-linecap="butt" stroke-linejoin="miter" stroke="rgb(0%, 0%, 0%)" stroke-opacity="1" stroke-miterlimit="4" d="M 105.449219 238.109375 C 103.570312 238.109375 102.046875 239.636719 102.046875 241.511719 C 102.046875 243.390625 103.570312 244.914062 105.449219 244.914062 C 107.324219 244.914062 108.851562 243.390625 108.851562 241.511719 C 108.851562 239.636719 107.324219 238.109375 105.449219 238.109375 Z M 105.449219 238.109375 " transform="matrix(1, 0, 0, 1, 8, 8)"/>
<path fill-rule="nonzero" fill="rgb(56.471252%, 93.333435%, 56.471252%)" fill-opacity="1" stroke-width="0.5" stroke-linecap="butt" stroke-linejoin="miter" stroke="rgb(0%, 0%, 0%)" stroke-opacity="1" stroke-miterlimit="4" d="M 105.449219 204.09375 C 103.570312 204.09375 102.046875 205.617188 102.046875 207.496094 C 102.046875 209.371094 103.570312 210.898438 105.449219 210.898438 C 107.324219 210.898438 108.851562 209.371094 108.851562 207.496094 C 108.851562 205.617188 107.324219 204.09375 105.449219 204.09375 Z M 105.449219 204.09375 " transform="matrix(1, 0, 0, 1, 8, 8)"/>
<path fill-rule="nonzero" fill="rgb(50.196838%, 0%, 50.196838%)" fill-opacity="1" stroke-width="0.5" stroke-linecap="butt" stroke-linejoin="miter" stroke="rgb(0%, 0%, 0%)" stroke-opacity="1" stroke-miterlimit="4" d="M 105.449219 170.078125 C 103.570312 170.078125 102.046875 171.601562 102.046875 173.480469 C 102.046875 175.355469 103.570312 176.882812 105.449219 176.882812 C 107.324219 176.882812 108.851562 175.355469 108.851562 173.480469 C 108.851562 171.601562 107.324219 170.078125 105.449219 170.078125 Z M 105.449219 170.078125 " transform="matrix(1, 0, 0, 1, 8, 8)"/>
<path fill-rule="nonzero" fill="rgb(100%, 0%, 0%)" fill-opacity="1" stroke-width="0.5" stroke-linecap="butt" stroke-linejoin="miter" stroke="rgb(0%, 0%, 0%)" stroke-opacity="1" stroke-miterlimit="4" d="M 105.449219 136.0625 C 103.570312 136.0625 102.046875 137.589844 102.046875 139.464844 C 102.046875 141.339844 103.570312 142.867188 105.449219 142.867188 C 107.324219 142.867188 108.851562 141.339844 108.851562 139.464844 C 108.851562 137.589844 107.324219 136.0625 105.449219 136.0625 Z M 105.449219 136.0625 " transform="matrix(1, 0, 0, 1, 8, 8)"/>
<path fill-rule="nonzero" fill="rgb(60.392761%, 80.392456%, 19.607544%)" fill-opacity="1" stroke-width="0.5" stroke-linecap="butt" stroke-linejoin="miter" stroke="rgb(0%, 0%, 0%)" stroke-opacity="1" stroke-miterlimit="4" d="M 105.449219 102.046875 C 103.570312 102.046875 102.046875 103.570312 102.046875 105.449219 C 102.046875 107.324219 103.570312 108.851562 105.449219 108.851562 C 107.324219 108.851562 108.851562 107.324219 108.851562 105.449219 C 108.851562 103.570312 107.324219 102.046875 105.449219 102.046875 Z M 105.449219 102.046875 " transform="matrix(1, 0, 0, 1, 8, 8)"/>
<path fill-rule="nonzero" fill="rgb(56.471252%, 93.333435%, 56.471252%)" fill-opacity="1" stroke-width="0.5" stroke-linecap="butt" stroke-linejoin="miter" stroke="rgb(0%, 0%, 0%)" stroke-opacity="1" stroke-miterlimit="4" d="M 105.449219 68.03125 C 103.570312 68.03125 102.046875 69.554688 102.046875 71.433594 C 102.046875 73.308594 103.570312 74.835938 105.449219 74.835938 C 107.324219 74.835938 108.851562 73.308594 108.851562 71.433594 C 108.851562 69.554688 107.324219 68.03125 105.449219 68.03125 Z M 105.449219 68.03125 " transform="matrix(1, 0, 0, 1, 8, 8)"/>
<path fill-rule="nonzero" fill="rgb(50.196838%, 0%, 50.196838%)" fill-opacity="1" stroke-width="0.5" stroke-linecap="butt" stroke-linejoin="miter" stroke="rgb(0%, 0%, 0%)" stroke-opacity="1" stroke-miterlimit="4" d="M 105.449219 34.015625 C 103.570312 34.015625 102.046875 35.539062 102.046875 37.417969 C 102.046875 39.292969 103.570312 40.820312 105.449219 40.820312 C 107.324219 40.820312 108.851562 39.292969 108.851562 37.417969 C 108.851562 35.539062 107.324219 34.015625 105.449219 34.015625 Z M 105.449219 34.015625 " transform="matrix(1, 0, 0, 1, 8, 8)"/>
<path fill-rule="nonzero" fill="rgb(100%, 0%, 0%)" fill-opacity="1" stroke-width="0.5" stroke-linecap="butt" stroke-linejoin="miter" stroke="rgb(0%, 0%, 0%)" stroke-opacity="1" stroke-miterlimit="4" d="M 105.449219 0 C 103.570312 0 102.046875 1.523438 102.046875 3.402344 C 102.046875 5.277344 103.570312 6.804688 105.449219 6.804688 C 107.324219 6.804688 108.851562 5.277344 108.851562 3.402344 C 108.851562 1.523438 107.324219 0 105.449219 0 Z M 105.449219 0 " transform="matrix(1, 0, 0, 1, 8, 8)"/>
<path fill-rule="nonzero" fill="rgb(100%, 64.706421%, 0%)" fill-opacity="1" stroke-width="0.5" stroke-linecap="butt" stroke-linejoin="miter" stroke="rgb(0%, 0%, 0%)" stroke-opacity="1" stroke-miterlimit="4" d="M 139.464844 238.109375 C 137.589844 238.109375 136.0625 239.636719 136.0625 241.511719 C 136.0625 243.390625 137.589844 244.914062 139.464844 244.914062 C 141.339844 244.914062 142.867188 243.390625 142.867188 241.511719 C 142.867188 239.636719 141.339844 238.109375 139.464844 238.109375 Z M 139.464844 238.109375 " transform="matrix(1, 0, 0, 1, 8, 8)"/>
<path fill-rule="nonzero" fill="rgb(0%, 39.215088%, 0%)" fill-opacity="1" stroke-width="0.5" stroke-linecap="butt" stroke-linejoin="miter" stroke="rgb(0%, 0%, 0%)" stroke-opacity="1" stroke-miterlimit="4" d="M 139.464844 204.09375 C 137.589844 204.09375 136.0625 205.617188 136.0625 207.496094 C 136.0625 209.371094 137.589844 210.898438 139.464844 210.898438 C 141.339844 210.898438 142.867188 209.371094 142.867188 207.496094 C 142.867188 205.617188 141.339844 204.09375 139.464844 204.09375 Z M 139.464844 204.09375 " transform="matrix(1, 0, 0, 1, 8, 8)"/>
<path fill-rule="nonzero" fill="rgb(25.097656%, 25.097656%, 85.098267%)" fill-opacity="1" stroke-width="0.5" stroke-linecap="butt" stroke-linejoin="miter" stroke="rgb(0%, 0%, 0%)" stroke-opacity="1" stroke-miterlimit="4" d="M 139.464844 170.078125 C 137.589844 170.078125 136.0625 171.601562 136.0625 173.480469 C 136.0625 175.355469 137.589844 176.882812 139.464844 176.882812 C 141.339844 176.882812 142.867188 175.355469 142.867188 173.480469 C 142.867188 171.601562 141.339844 170.078125 139.464844 170.078125 Z M 139.464844 170.078125 " transform="matrix(1, 0, 0, 1, 8, 8)"/>
<path fill-rule="nonzero" fill="rgb(0%, 0%, 0%)" fill-opacity="1" stroke-width="0.5" stroke-linecap="butt" stroke-linejoin="miter" stroke="rgb(0%, 0%, 0%)" stroke-opacity="1" stroke-miterlimit="4" d="M 139.464844 136.0625 C 137.589844 136.0625 136.0625 137.589844 136.0625 139.464844 C 136.0625 141.339844 137.589844 142.867188 139.464844 142.867188 C 141.339844 142.867188 142.867188 141.339844 142.867188 139.464844 C 142.867188 137.589844 141.339844 136.0625 139.464844 136.0625 Z M 139.464844 136.0625 " transform="matrix(1, 0, 0, 1, 8, 8)"/>
<path fill-rule="nonzero" fill="rgb(100%, 64.706421%, 0%)" fill-opacity="1" stroke-width="0.5" stroke-linecap="butt" stroke-linejoin="miter" stroke="rgb(0%, 0%, 0%)" stroke-opacity="1" stroke-miterlimit="4" d="M 139.464844 102.046875 C 137.589844 102.046875 136.0625 103.570312 136.0625 105.449219 C 136.0625 107.324219 137.589844 108.851562 139.464844 108.851562 C 141.339844 108.851562 142.867188 107.324219 142.867188 105.449219 C 142.867188 103.570312 141.339844 102.046875 139.464844 102.046875 Z M 139.464844 102.046875 " transform="matrix(1, 0, 0, 1, 8, 8)"/>
<path fill-rule="nonzero" fill="rgb(0%, 39.215088%, 0%)" fill-opacity="1" stroke-width="0.5" stroke-linecap="butt" stroke-linejoin="miter" stroke="rgb(0%, 0%, 0%)" stroke-opacity="1" stroke-miterlimit="4" d="M 139.464844 68.03125 C 137.589844 68.03125 136.0625 69.554688 136.0625 71.433594 C 136.0625 73.308594 137.589844 74.835938 139.464844 74.835938 C 141.339844 74.835938 142.867188 73.308594 142.867188 71.433594 C 142.867188 69.554688 141.339844 68.03125 139.464844 68.03125 Z M 139.464844 68.03125 " transform="matrix(1, 0, 0, 1, 8, 8)"/>
<path fill-rule="nonzero" fill="rgb(25.097656%, 25.097656%, 85.098267%)" fill-opacity="1" stroke-width="0.5" stroke-linecap="butt" stroke-linejoin="miter" stroke="rgb(0%, 0%, 0%)" stroke-opacity="1" stroke-miterlimit="4" d="M 139.464844 34.015625 C 137.589844 34.015625 136.0625 35.539062 136.0625 37.417969 C 136.0625 39.292969 137.589844 40.820312 139.464844 40.820312 C 141.339844 40.820312 142.867188 39.292969 142.867188 37.417969 C 142.867188 35.539062 141.339844 34.015625 139.464844 34.015625 Z M 139.464844 34.015625 " transform="matrix(1, 0, 0, 1, 8, 8)"/>
<path fill-rule="nonzero" fill="rgb(0%, 0%, 0%)" fill-opacity="1" stroke-width="0.5" stroke-linecap="butt" stroke-linejoin="miter" stroke="rgb(0%, 0%, 0%)" stroke-opacity="1" stroke-miterlimit="4" d="M 139.464844 0 C 137.589844 0 136.0625 1.523438 136.0625 3.402344 C 136.0625 5.277344 137.589844 6.804688 139.464844 6.804688 C 141.339844 6.804688 142.867188 5.277344 142.867188 3.402344 C 142.867188 1.523438 141.339844 0 139.464844 0 Z M 139.464844 0 " transform="matrix(1, 0, 0, 1, 8, 8)"/>
</svg>
