<svg xmlns="http://www.w3.org/2000/svg" xmlns:xlink="http://www.w3.org/1999/xlink" width="568.664" height="103.783" viewBox="0 0 426.498 77.837"><defs><clipPath id="a"><path d="M0 62h16v15.836H0zm0 0"/></clipPath><clipPath id="b"><path d="M0 51h27v26.836H0zm0 0"/></clipPath><clipPath id="g"><path d="M57 62h15v15.836H57zm0 0"/></clipPath><clipPath id="h"><path d="M45 51h39v26.836H45zm0 0"/></clipPath><clipPath id="j"><path d="M109 2h81v75.836h-81zm0 0"/></clipPath><clipPath id="k"><path d="M113 62h16v15.836h-16zm0 0"/></clipPath><clipPath id="l"><path d="M102 51h38v26.836h-38zm0 0"/></clipPath><clipPath id="m"><path d="M170 62h16v15.836h-16zm0 0"/></clipPath><clipPath id="n"><path d="M159 51h38v26.836h-38zm0 0"/></clipPath><clipPath id="o"><path d="M223 2h80v75.836h-80zm0 0"/></clipPath><clipPath id="p"><path d="M227 62h15v15.836h-15zm0 0"/></clipPath><clipPath id="q"><path d="M215 51h39v26.836h-39zm0 0"/></clipPath><clipPath id="r"><path d="M283 62h16v15.836h-16zm0 0"/></clipPath><clipPath id="s"><path d="M272 51h38v26.836h-38zm0 0"/></clipPath><clipPath id="t"><path d="M330 0h96.496v77.836H330zm0 0"/></clipPath><clipPath id="u"><path d="M340 62h16v15.836h-16zm0 0"/></clipPath><clipPath id="v"><path d="M329 51h38v26.836h-38zm0 0"/></clipPath><clipPath id="w"><path d="M411 17h15.496v16H411zm0 0"/></clipPath><clipPath id="x"><path d="M400 6h26.496v38H400zm0 0"/></clipPath><symbol overflow="visible" id="c"><path style="stroke:none" d="M.875-.594c-.031.156-.094.39-.094.438 0 .172.14.265.297.265a.414.414 0 0 0 .375-.28c0-.016.125-.485.188-.735l.218-.89c.047-.235.11-.454.172-.673.031-.172.11-.469.125-.5.14-.312.672-1.219 1.625-1.219.453 0 .531.375.531.704 0 .609-.484 1.89-.64 2.312-.094.234-.11.36-.11.469 0 .469.36.812.829.812.937 0 1.296-1.453 1.296-1.53 0-.11-.078-.11-.109-.11-.11 0-.11.031-.156.187-.203.672-.531 1.235-1.016 1.235-.172 0-.234-.094-.234-.329 0-.25.078-.484.172-.703.187-.53.61-1.625.61-2.203 0-.656-.423-1.062-1.141-1.062-.907 0-1.391.64-1.563.875-.047-.563-.453-.875-.922-.875-.453 0-.64.39-.734.562-.172.344-.297.938-.297.969 0 .11.094.11.11.11.109 0 .109-.016.171-.235.172-.703.375-1.188.735-1.188.187 0 .296.125.296.454 0 .218-.03.328-.156.843zm0 0"/></symbol><symbol overflow="visible" id="d"><path style="stroke:none" d="M2.328-4.438c0-.187 0-.187-.203-.187-.453.438-1.078.438-1.36.438v.25c.157 0 .626 0 1-.188v3.547c0 .234 0 .328-.687.328H.812V0c.125 0 .985-.031 1.235-.031.219 0 1.094.031 1.25.031v-.25H3.03c-.703 0-.703-.094-.703-.328zm0 0"/></symbol><symbol overflow="visible" id="e"><path style="stroke:none" d="M3.516-1.266H3.28c-.015.157-.094.563-.187.625-.047.047-.578.047-.688.047H1.125c.734-.64.984-.844 1.39-1.172.516-.406 1-.843 1-1.5 0-.843-.734-1.359-1.624-1.359-.86 0-1.454.61-1.454 1.25 0 .344.297.39.376.39.156 0 .359-.124.359-.374 0-.125-.047-.375-.406-.375.218-.485.687-.641 1.015-.641.703 0 1.063.547 1.063 1.11 0 .609-.438 1.078-.656 1.328L.516-.266C.437-.203.437-.187.437 0h2.876zm0 0"/></symbol><symbol overflow="visible" id="f"><path style="stroke:none" d="M1.906-2.328c.547 0 .938.375.938 1.125 0 .86-.516 1.125-.906 1.125-.282 0-.907-.078-1.188-.5.328 0 .406-.235.406-.39 0-.22-.172-.376-.39-.376a.38.38 0 0 0-.391.407C.375-.281 1.094.14 1.938.14c.968 0 1.64-.657 1.64-1.344 0-.547-.437-1.094-1.203-1.25.719-.266.984-.781.984-1.219 0-.547-.625-.953-1.406-.953-.766 0-1.36.375-1.36.938 0 .234.157.359.36.359.219 0 .36-.156.36-.344 0-.203-.141-.36-.36-.375.25-.297.719-.375.985-.375.312 0 .75.156.75.75 0 .297-.094.625-.282.828-.219.266-.422.281-.765.313-.172.015-.188.015-.22.015-.015 0-.077.016-.077.094 0 .094.062.094.187.094zm0 0"/></symbol><symbol overflow="visible" id="i"><path style="stroke:none" d="M3.688-1.14v-.25h-.782V-4.5c0-.14 0-.203-.14-.203-.094 0-.125 0-.188.11L.266-1.392v.25h2.062v.563c0 .25 0 .328-.578.328h-.188V0c.36-.016.797-.031 1.047-.031.266 0 .704.015 1.063.031v-.25h-.188c-.578 0-.578-.078-.578-.328v-.563zM2.375-3.939v2.547H.531zm0 0"/></symbol></defs><path style="fill:none;stroke-width:.79701;stroke-linecap:butt;stroke-linejoin:miter;stroke:#000;stroke-opacity:1;stroke-miterlimit:10" d="M.001-.002v56.696h56.692V-.002zm0 0" transform="matrix(1 0 0 -1 7.737 70.1)"/><g clip-path="url(#a)"><path style="stroke:none;fill-rule:nonzero;fill:#ffb2b2;fill-opacity:1" d="M15.074 70.102a7.338 7.338 0 1 0-14.676 0 7.338 7.338 0 0 0 7.34 7.335 7.337 7.337 0 0 0 7.336-7.335zm0 0"/></g><g clip-path="url(#b)"><path style="fill:none;stroke-width:.79701;stroke-linecap:butt;stroke-linejoin:miter;stroke:#000;stroke-opacity:1;stroke-miterlimit:10" d="M7.337-.002a7.338 7.338 0 1 1-14.676 0 7.338 7.338 0 0 1 7.34-7.336A7.337 7.337 0 0 1 7.337-.002zm0 0" transform="matrix(1 0 0 -1 7.737 70.1)"/></g><use xlink:href="#c" x="2.513" y="71.497" style="fill:#000;fill-opacity:1"/><use xlink:href="#d" x="8.493" y="72.991" style="fill:#000;fill-opacity:1"/><path style="fill-rule:nonzero;fill:#ffd9b2;fill-opacity:1;stroke-width:.79701;stroke-linecap:butt;stroke-linejoin:miter;stroke:#000;stroke-opacity:1;stroke-miterlimit:10" d="M7.337 56.694a7.338 7.338 0 1 1-14.676 0 7.339 7.339 0 1 1 14.676 0zm0 0" transform="matrix(1 0 0 -1 7.737 70.1)"/><use xlink:href="#c" x="2.513" y="14.804" style="fill:#000;fill-opacity:1"/><use xlink:href="#e" x="8.493" y="16.299" style="fill:#000;fill-opacity:1"/><path style="fill-rule:nonzero;fill:#b2b2ff;fill-opacity:1;stroke-width:.79701;stroke-linecap:butt;stroke-linejoin:miter;stroke:#000;stroke-opacity:1;stroke-miterlimit:10" d="M64.033 56.694a7.341 7.341 0 1 1-14.677-.002 7.341 7.341 0 0 1 14.677.002zm0 0" transform="matrix(1 0 0 -1 7.737 70.1)"/><use xlink:href="#c" x="59.206" y="14.804" style="fill:#000;fill-opacity:1"/><use xlink:href="#f" x="65.186" y="16.299" style="fill:#000;fill-opacity:1"/><g clip-path="url(#g)"><path style="stroke:none;fill-rule:nonzero;fill:#b2d9d9;fill-opacity:1" d="M71.77 70.102a7.341 7.341 0 0 0-14.68 0 7.34 7.34 0 0 0 14.68 0zm0 0"/></g><g clip-path="url(#h)"><path style="fill:none;stroke-width:.79701;stroke-linecap:butt;stroke-linejoin:miter;stroke:#000;stroke-opacity:1;stroke-miterlimit:10" d="M64.033-.002a7.341 7.341 0 0 1-14.68 0 7.34 7.34 0 0 1 14.68 0zm0 0" transform="matrix(1 0 0 -1 7.737 70.1)"/></g><use xlink:href="#c" x="59.206" y="71.497" style="fill:#000;fill-opacity:1"/><use xlink:href="#i" x="65.186" y="72.991" style="fill:#000;fill-opacity:1"/><g clip-path="url(#j)"><path style="fill:none;stroke-width:.79701;stroke-linecap:butt;stroke-linejoin:miter;stroke:#000;stroke-opacity:1;stroke-miterlimit:10" d="m113.388-.002 56.691 56.696h-56.691L170.079-.002zm0 0" transform="matrix(1 0 0 -1 7.737 70.1)"/></g><g clip-path="url(#k)"><path style="stroke:none;fill-rule:nonzero;fill:#ffb2b2;fill-opacity:1" d="M128.465 70.102a7.339 7.339 0 0 0-7.34-7.34 7.339 7.339 0 1 0 0 14.675 7.338 7.338 0 0 0 7.34-7.335zm0 0"/></g><g clip-path="url(#l)"><path style="fill:none;stroke-width:.79701;stroke-linecap:butt;stroke-linejoin:miter;stroke:#000;stroke-opacity:1;stroke-miterlimit:10" d="M120.728-.002a7.339 7.339 0 0 1-7.34 7.34 7.339 7.339 0 1 1 0-14.675 7.338 7.338 0 0 1 7.34 7.335zm0 0" transform="matrix(1 0 0 -1 7.737 70.1)"/></g><use xlink:href="#c" x="115.899" y="71.497" style="fill:#000;fill-opacity:1"/><use xlink:href="#d" x="121.879" y="72.991" style="fill:#000;fill-opacity:1"/><path style="fill-rule:nonzero;fill:#ffd9b2;fill-opacity:1;stroke-width:.79701;stroke-linecap:butt;stroke-linejoin:miter;stroke:#000;stroke-opacity:1;stroke-miterlimit:10" d="M177.42 56.694a7.339 7.339 0 1 1-14.677 0 7.338 7.338 0 1 1 14.676 0zm0 0" transform="matrix(1 0 0 -1 7.737 70.1)"/><use xlink:href="#c" x="172.591" y="14.804" style="fill:#000;fill-opacity:1"/><use xlink:href="#e" x="178.571" y="16.299" style="fill:#000;fill-opacity:1"/><path style="fill-rule:nonzero;fill:#b2b2ff;fill-opacity:1;stroke-width:.79701;stroke-linecap:butt;stroke-linejoin:miter;stroke:#000;stroke-opacity:1;stroke-miterlimit:10" d="M120.728 56.694a7.339 7.339 0 0 1-7.34 7.34 7.339 7.339 0 0 1-7.34-7.34 7.339 7.339 0 0 1 7.34-7.34 7.339 7.339 0 0 1 7.34 7.34zm0 0" transform="matrix(1 0 0 -1 7.737 70.1)"/><use xlink:href="#c" x="115.899" y="14.804" style="fill:#000;fill-opacity:1"/><use xlink:href="#f" x="121.879" y="16.299" style="fill:#000;fill-opacity:1"/><g clip-path="url(#m)"><path style="stroke:none;fill-rule:nonzero;fill:#b2d9d9;fill-opacity:1" d="M185.156 70.102a7.339 7.339 0 1 0-14.677-.003 7.339 7.339 0 0 0 14.677.003zm0 0"/></g><g clip-path="url(#n)"><path style="fill:none;stroke-width:.79701;stroke-linecap:butt;stroke-linejoin:miter;stroke:#000;stroke-opacity:1;stroke-miterlimit:10" d="M177.42-.002a7.339 7.339 0 1 1-14.678.003 7.339 7.339 0 0 1 14.677-.003zm0 0" transform="matrix(1 0 0 -1 7.737 70.1)"/></g><use xlink:href="#c" x="172.591" y="71.497" style="fill:#000;fill-opacity:1"/><use xlink:href="#i" x="178.571" y="72.991" style="fill:#000;fill-opacity:1"/><g clip-path="url(#o)"><path style="fill:none;stroke-width:.79701;stroke-linecap:butt;stroke-linejoin:miter;stroke:#000;stroke-opacity:1;stroke-miterlimit:10" d="m226.775-.002 56.691 56.696V-.002l-56.691 56.696zm0 0" transform="matrix(1 0 0 -1 7.737 70.1)"/></g><g clip-path="url(#p)"><path style="stroke:none;fill-rule:nonzero;fill:#ffb2b2;fill-opacity:1" d="M241.852 70.102a7.339 7.339 0 0 0-7.34-7.34 7.339 7.339 0 1 0 0 14.675 7.338 7.338 0 0 0 7.34-7.335zm0 0"/></g><g clip-path="url(#q)"><path style="fill:none;stroke-width:.79701;stroke-linecap:butt;stroke-linejoin:miter;stroke:#000;stroke-opacity:1;stroke-miterlimit:10" d="M234.115-.002a7.339 7.339 0 0 1-7.34 7.34 7.339 7.339 0 1 1 0-14.675 7.338 7.338 0 0 1 7.34 7.335zm0 0" transform="matrix(1 0 0 -1 7.737 70.1)"/></g><use xlink:href="#c" x="229.284" y="71.497" style="fill:#000;fill-opacity:1"/><use xlink:href="#d" x="235.264" y="72.991" style="fill:#000;fill-opacity:1"/><path style="fill-rule:nonzero;fill:#ffd9b2;fill-opacity:1;stroke-width:.79701;stroke-linecap:butt;stroke-linejoin:miter;stroke:#000;stroke-opacity:1;stroke-miterlimit:10" d="M290.806 56.694a7.339 7.339 0 1 1-14.676 0 7.338 7.338 0 1 1 14.676 0zm0 0" transform="matrix(1 0 0 -1 7.737 70.1)"/><use xlink:href="#c" x="285.977" y="14.804" style="fill:#000;fill-opacity:1"/><use xlink:href="#e" x="291.957" y="16.299" style="fill:#000;fill-opacity:1"/><g clip-path="url(#r)"><path style="stroke:none;fill-rule:nonzero;fill:#b2d9d9;fill-opacity:1" d="M298.543 70.102a7.339 7.339 0 1 0-14.677-.003 7.339 7.339 0 0 0 14.677.003zm0 0"/></g><g clip-path="url(#s)"><path style="fill:none;stroke-width:.79701;stroke-linecap:butt;stroke-linejoin:miter;stroke:#000;stroke-opacity:1;stroke-miterlimit:10" d="M290.806-.002a7.339 7.339 0 1 1-14.677.003 7.339 7.339 0 0 1 14.677-.003zm0 0" transform="matrix(1 0 0 -1 7.737 70.1)"/></g><use xlink:href="#c" x="285.977" y="71.497" style="fill:#000;fill-opacity:1"/><use xlink:href="#f" x="291.957" y="72.991" style="fill:#000;fill-opacity:1"/><path style="fill-rule:nonzero;fill:#b2b2ff;fill-opacity:1;stroke-width:.79701;stroke-linecap:butt;stroke-linejoin:miter;stroke:#000;stroke-opacity:1;stroke-miterlimit:10" d="M234.115 56.694a7.339 7.339 0 0 1-7.34 7.34 7.339 7.339 0 0 1-7.34-7.34 7.339 7.339 0 0 1 7.34-7.34 7.339 7.339 0 0 1 7.34 7.34zm0 0" transform="matrix(1 0 0 -1 7.737 70.1)"/><use xlink:href="#c" x="229.284" y="14.804" style="fill:#000;fill-opacity:1"/><use xlink:href="#i" x="235.264" y="16.299" style="fill:#000;fill-opacity:1"/><g clip-path="url(#t)"><path style="fill:none;stroke-width:.79701;stroke-linecap:butt;stroke-linejoin:miter;stroke:#000;stroke-opacity:1;stroke-miterlimit:10" d="m340.161-.002 21.262 62.364 49.606-17.008-76.536-5.668zm0 0" transform="matrix(1 0 0 -1 7.737 70.1)"/></g><g clip-path="url(#u)"><path style="stroke:none;fill-rule:nonzero;fill:#ffb2b2;fill-opacity:1" d="M355.238 70.102a7.341 7.341 0 0 0-14.68 0 7.34 7.34 0 0 0 14.68 0zm0 0"/></g><g clip-path="url(#v)"><path style="fill:none;stroke-width:.79701;stroke-linecap:butt;stroke-linejoin:miter;stroke:#000;stroke-opacity:1;stroke-miterlimit:10" d="M347.501-.002a7.341 7.341 0 0 1-14.68 0 7.34 7.34 0 0 1 14.68 0zm0 0" transform="matrix(1 0 0 -1 7.737 70.1)"/></g><use xlink:href="#c" x="342.67" y="71.497" style="fill:#000;fill-opacity:1"/><use xlink:href="#d" x="348.65" y="72.991" style="fill:#000;fill-opacity:1"/><path style="fill-rule:nonzero;fill:#ffd9b2;fill-opacity:1;stroke-width:.79701;stroke-linecap:butt;stroke-linejoin:miter;stroke:#000;stroke-opacity:1;stroke-miterlimit:10" d="M368.76 62.362a7.338 7.338 0 1 1-14.677 0 7.338 7.338 0 0 1 7.34-7.336 7.337 7.337 0 0 1 7.336 7.336zm0 0" transform="matrix(1 0 0 -1 7.737 70.1)"/><use xlink:href="#c" x="363.93" y="9.135" style="fill:#000;fill-opacity:1"/><use xlink:href="#e" x="369.91" y="10.629" style="fill:#000;fill-opacity:1"/><g clip-path="url(#w)"><path style="stroke:none;fill-rule:nonzero;fill:#b2b2ff;fill-opacity:1" d="M426.105 24.746a7.341 7.341 0 0 0-14.68 0c0 4.05 3.29 7.34 7.34 7.34 4.055 0 7.34-3.29 7.34-7.34zm0 0"/></g><g clip-path="url(#x)"><path style="fill:none;stroke-width:.79701;stroke-linecap:butt;stroke-linejoin:miter;stroke:#000;stroke-opacity:1;stroke-miterlimit:10" d="M418.368 45.354a7.341 7.341 0 0 1-14.68 0c0-4.05 3.29-7.34 7.34-7.34 4.055 0 7.34 3.29 7.34 7.34zm0 0" transform="matrix(1 0 0 -1 7.737 70.1)"/></g><use xlink:href="#c" x="413.536" y="26.143" style="fill:#000;fill-opacity:1"/><use xlink:href="#f" x="419.516" y="27.637" style="fill:#000;fill-opacity:1"/><path style="fill-rule:nonzero;fill:#b2d9d9;fill-opacity:1;stroke-width:.79701;stroke-linecap:butt;stroke-linejoin:miter;stroke:#000;stroke-opacity:1;stroke-miterlimit:10" d="M341.833 39.686c0 4.05-3.289 7.34-7.34 7.34a7.341 7.341 0 0 1 0-14.68c4.051 0 7.34 3.285 7.34 7.34zm0 0" transform="matrix(1 0 0 -1 7.737 70.1)"/><use xlink:href="#c" x="337.001" y="31.812" style="fill:#000;fill-opacity:1"/><use xlink:href="#i" x="342.981" y="33.307" style="fill:#000;fill-opacity:1"/></svg>