<svg height="103.783" viewBox="0 0 426.498 77.837" width="568.664" xmlns="http://www.w3.org/2000/svg" xmlns:xlink="http://www.w3.org/1999/xlink"><clipPath id="a"><path d="m0 62h16v15.836h-16zm0 0"/></clipPath><clipPath id="b"><path d="m0 51h27v26.836h-27zm0 0"/></clipPath><clipPath id="c"><path d="m57 62h15v15.836h-15zm0 0"/></clipPath><clipPath id="d"><path d="m45 51h39v26.836h-39zm0 0"/></clipPath><clipPath id="e"><path d="m109 2h81v75.836h-81zm0 0"/></clipPath><clipPath id="f"><path d="m113 62h16v15.836h-16zm0 0"/></clipPath><clipPath id="g"><path d="m102 51h38v26.836h-38zm0 0"/></clipPath><clipPath id="h"><path d="m170 62h16v15.836h-16zm0 0"/></clipPath><clipPath id="i"><path d="m159 51h38v26.836h-38zm0 0"/></clipPath><clipPath id="j"><path d="m223 2h80v75.836h-80zm0 0"/></clipPath><clipPath id="k"><path d="m227 62h15v15.836h-15zm0 0"/></clipPath><clipPath id="l"><path d="m215 51h39v26.836h-39zm0 0"/></clipPath><clipPath id="m"><path d="m283 62h16v15.836h-16zm0 0"/></clipPath><clipPath id="n"><path d="m272 51h38v26.836h-38zm0 0"/></clipPath><clipPath id="o"><path d="m330 0h96.496v77.836h-96.496zm0 0"/></clipPath><clipPath id="p"><path d="m340 62h16v15.836h-16zm0 0"/></clipPath><clipPath id="q"><path d="m329 51h38v26.836h-38zm0 0"/></clipPath><clipPath id="r"><path d="m411 17h15.496v16h-15.496zm0 0"/></clipPath><clipPath id="s"><path d="m400 6h26.496v38h-26.496zm0 0"/></clipPath><symbol id="t" overflow="visible"><path d="m.875-.594c-.031.156-.094.39-.094.438 0 .172.14.265.297.265a.414.414 0 0 0 .375-.28c0-.016.125-.485.188-.735l.218-.89c.047-.235.11-.454.172-.673.031-.172.11-.469.125-.5.14-.312.672-1.219 1.625-1.219.453 0 .531.375.531.704 0 .609-.484 1.89-.64 2.312-.094.234-.11.36-.11.469 0 .469.36.812.829.812.937 0 1.296-1.453 1.296-1.53 0-.11-.078-.11-.109-.11-.11 0-.11.031-.156.187-.203.672-.531 1.235-1.016 1.235-.172 0-.234-.094-.234-.329 0-.25.078-.484.172-.703.187-.53.61-1.625.61-2.203 0-.656-.423-1.062-1.141-1.062-.907 0-1.391.64-1.563.875-.047-.563-.453-.875-.922-.875-.453 0-.64.39-.734.562-.172.344-.297.938-.297.969 0 .11.094.11.11.11.109 0 .109-.016.171-.235.172-.703.375-1.188.735-1.188.187 0 .296.125.296.454 0 .218-.03.328-.156.843zm0 0"/></symbol><symbol id="u" overflow="visible"><path d="m2.328-4.438c0-.187 0-.187-.203-.187-.453.438-1.078.438-1.36.438v.25c.157 0 .626 0 1-.188v3.547c0 .234 0 .328-.687.328h-.266v.25c.125 0 .985-.031 1.235-.031.219 0 1.094.031 1.25.031v-.25h-.267c-.703 0-.703-.094-.703-.328zm0 0"/></symbol><symbol id="v" overflow="visible"><path d="m3.516-1.266h-.236c-.015.157-.094.563-.187.625-.047.047-.578.047-.688.047h-1.28c.734-.64.984-.844 1.39-1.172.516-.406 1-.843 1-1.5 0-.843-.734-1.359-1.624-1.359-.86 0-1.454.61-1.454 1.25 0 .344.297.39.376.39a.365.365 0 0 0 .359-.374c0-.125-.047-.375-.406-.375.218-.485.687-.641 1.015-.641.703 0 1.063.547 1.063 1.11 0 .609-.438 1.078-.656 1.328l-1.672 1.671c-.079.063-.079.079-.079.266h2.876zm0 0"/></symbol><symbol id="w" overflow="visible"><path d="m1.906-2.328c.547 0 .938.375.938 1.125 0 .86-.516 1.125-.906 1.125-.282 0-.907-.078-1.188-.5.328 0 .406-.235.406-.39 0-.22-.172-.376-.39-.376a.38.38 0 0 0 -.391.407c0 .656.719 1.077 1.563 1.077.968 0 1.64-.657 1.64-1.344 0-.547-.437-1.094-1.203-1.25.719-.266.984-.781.984-1.219 0-.547-.625-.953-1.406-.953-.766 0-1.36.375-1.36.938 0 .234.157.359.36.359.219 0 .36-.156.36-.344 0-.203-.141-.36-.36-.375.25-.297.719-.375.985-.375.312 0 .75.156.75.75 0 .297-.094.625-.282.828-.219.266-.422.281-.765.313-.172.015-.188.015-.22.015-.015 0-.077.016-.077.094 0 .094.062.094.187.094zm0 0"/></symbol><symbol id="x" overflow="visible"><path d="m3.688-1.14v-.25h-.782v-3.11c0-.14 0-.203-.14-.203-.094 0-.125 0-.188.11l-2.312 3.201v.25h2.062v.563c0 .25 0 .328-.578.328h-.188v.251c.36-.016.797-.031 1.047-.031.266 0 .704.015 1.063.031v-.25h-.188c-.578 0-.578-.078-.578-.328v-.563zm-1.313-2.799v2.547h-1.844zm0 0"/></symbol><path d="m.001-.002v56.696h56.692v-56.696zm0 0" fill="none" stroke="#000" stroke-miterlimit="10" stroke-width=".79701" transform="matrix(1 0 0 -1 7.737 70.1)"/><g clip-path="url(#a)"><path d="m15.074 70.102a7.338 7.338 0 1 0 -14.676 0 7.338 7.338 0 0 0 7.34 7.335 7.337 7.337 0 0 0 7.336-7.335zm0 0" fill="#ffb2b2"/></g><g clip-path="url(#b)"><path d="m7.337-.002a7.338 7.338 0 1 1 -14.676 0 7.338 7.338 0 0 1 7.34-7.336 7.337 7.337 0 0 1 7.336 7.336zm0 0" fill="none" stroke="#000" stroke-miterlimit="10" stroke-width=".79701" transform="matrix(1 0 0 -1 7.737 70.1)"/></g><use x="2.513" xlink:href="#t" y="71.497"/><use x="8.493" xlink:href="#u" y="72.991"/><path d="m7.337 56.694a7.338 7.338 0 1 1 -14.676 0 7.339 7.339 0 1 1 14.676 0zm0 0" fill="#ffd9b2" stroke="#000" stroke-miterlimit="10" stroke-width=".79701" transform="matrix(1 0 0 -1 7.737 70.1)"/><use x="2.513" xlink:href="#t" y="14.804"/><use x="8.493" xlink:href="#v" y="16.299"/><path d="m64.033 56.694a7.341 7.341 0 1 1 -14.677-.002 7.341 7.341 0 0 1 14.677.002zm0 0" fill="#b2b2ff" stroke="#000" stroke-miterlimit="10" stroke-width=".79701" transform="matrix(1 0 0 -1 7.737 70.1)"/><use x="59.206" xlink:href="#t" y="14.804"/><use x="65.186" xlink:href="#w" y="16.299"/><g clip-path="url(#c)"><path d="m71.77 70.102a7.341 7.341 0 0 0 -14.68 0 7.34 7.34 0 0 0 14.68 0zm0 0" fill="#b2d9d9"/></g><g clip-path="url(#d)"><path d="m64.033-.002a7.341 7.341 0 0 1 -14.68 0 7.34 7.34 0 0 1 14.68 0zm0 0" fill="none" stroke="#000" stroke-miterlimit="10" stroke-width=".79701" transform="matrix(1 0 0 -1 7.737 70.1)"/></g><use x="59.206" xlink:href="#t" y="71.497"/><use x="65.186" xlink:href="#x" y="72.991"/><g clip-path="url(#e)"><path d="m113.388-.002 56.691 56.696h-56.691l56.691-56.696zm0 0" fill="none" stroke="#000" stroke-miterlimit="10" stroke-width=".79701" transform="matrix(1 0 0 -1 7.737 70.1)"/></g><g clip-path="url(#f)"><path d="m128.465 70.102a7.339 7.339 0 0 0 -7.34-7.34 7.339 7.339 0 1 0 0 14.675 7.338 7.338 0 0 0 7.34-7.335zm0 0" fill="#ffb2b2"/></g><g clip-path="url(#g)"><path d="m120.728-.002a7.339 7.339 0 0 1 -7.34 7.34 7.339 7.339 0 1 1 0-14.675 7.338 7.338 0 0 1 7.34 7.335zm0 0" fill="none" stroke="#000" stroke-miterlimit="10" stroke-width=".79701" transform="matrix(1 0 0 -1 7.737 70.1)"/></g><use x="115.899" xlink:href="#t" y="71.497"/><use x="121.879" xlink:href="#u" y="72.991"/><path d="m177.42 56.694a7.339 7.339 0 1 1 -14.677 0 7.338 7.338 0 1 1 14.676 0zm0 0" fill="#ffd9b2" stroke="#000" stroke-miterlimit="10" stroke-width=".79701" transform="matrix(1 0 0 -1 7.737 70.1)"/><use x="172.591" xlink:href="#t" y="14.804"/><use x="178.571" xlink:href="#v" y="16.299"/><path d="m120.728 56.694a7.339 7.339 0 0 1 -7.34 7.34 7.339 7.339 0 0 1 -7.34-7.34 7.339 7.339 0 0 1 7.34-7.34 7.339 7.339 0 0 1 7.34 7.34zm0 0" fill="#b2b2ff" stroke="#000" stroke-miterlimit="10" stroke-width=".79701" transform="matrix(1 0 0 -1 7.737 70.1)"/><use x="115.899" xlink:href="#t" y="14.804"/><use x="121.879" xlink:href="#w" y="16.299"/><g clip-path="url(#h)"><path d="m185.156 70.102a7.339 7.339 0 1 0 -14.677-.003 7.339 7.339 0 0 0 14.677.003zm0 0" fill="#b2d9d9"/></g><g clip-path="url(#i)"><path d="m177.42-.002a7.339 7.339 0 1 1 -14.678.003 7.339 7.339 0 0 1 14.677-.003zm0 0" fill="none" stroke="#000" stroke-miterlimit="10" stroke-width=".79701" transform="matrix(1 0 0 -1 7.737 70.1)"/></g><use x="172.591" xlink:href="#t" y="71.497"/><use x="178.571" xlink:href="#x" y="72.991"/><g clip-path="url(#j)"><path d="m226.775-.002 56.691 56.696v-56.696l-56.691 56.696zm0 0" fill="none" stroke="#000" stroke-miterlimit="10" stroke-width=".79701" transform="matrix(1 0 0 -1 7.737 70.1)"/></g><g clip-path="url(#k)"><path d="m241.852 70.102a7.339 7.339 0 0 0 -7.34-7.34 7.339 7.339 0 1 0 0 14.675 7.338 7.338 0 0 0 7.34-7.335zm0 0" fill="#ffb2b2"/></g><g clip-path="url(#l)"><path d="m234.115-.002a7.339 7.339 0 0 1 -7.34 7.34 7.339 7.339 0 1 1 0-14.675 7.338 7.338 0 0 1 7.34 7.335zm0 0" fill="none" stroke="#000" stroke-miterlimit="10" stroke-width=".79701" transform="matrix(1 0 0 -1 7.737 70.1)"/></g><use x="229.284" xlink:href="#t" y="71.497"/><use x="235.264" xlink:href="#u" y="72.991"/><path d="m290.806 56.694a7.339 7.339 0 1 1 -14.676 0 7.338 7.338 0 1 1 14.676 0zm0 0" fill="#ffd9b2" stroke="#000" stroke-miterlimit="10" stroke-width=".79701" transform="matrix(1 0 0 -1 7.737 70.1)"/><use x="285.977" xlink:href="#t" y="14.804"/><use x="291.957" xlink:href="#v" y="16.299"/><g clip-path="url(#m)"><path d="m298.543 70.102a7.339 7.339 0 1 0 -14.677-.003 7.339 7.339 0 0 0 14.677.003zm0 0" fill="#b2d9d9"/></g><g clip-path="url(#n)"><path d="m290.806-.002a7.339 7.339 0 1 1 -14.677.003 7.339 7.339 0 0 1 14.677-.003zm0 0" fill="none" stroke="#000" stroke-miterlimit="10" stroke-width=".79701" transform="matrix(1 0 0 -1 7.737 70.1)"/></g><use x="285.977" xlink:href="#t" y="71.497"/><use x="291.957" xlink:href="#w" y="72.991"/><path d="m234.115 56.694a7.339 7.339 0 0 1 -7.34 7.34 7.339 7.339 0 0 1 -7.34-7.34 7.339 7.339 0 0 1 7.34-7.34 7.339 7.339 0 0 1 7.34 7.34zm0 0" fill="#b2b2ff" stroke="#000" stroke-miterlimit="10" stroke-width=".79701" transform="matrix(1 0 0 -1 7.737 70.1)"/><use x="229.284" xlink:href="#t" y="14.804"/><use x="235.264" xlink:href="#x" y="16.299"/><g clip-path="url(#o)"><path d="m340.161-.002 21.262 62.364 49.606-17.008-76.536-5.668zm0 0" fill="none" stroke="#000" stroke-miterlimit="10" stroke-width=".79701" transform="matrix(1 0 0 -1 7.737 70.1)"/></g><g clip-path="url(#p)"><path d="m355.238 70.102a7.341 7.341 0 0 0 -14.68 0 7.34 7.34 0 0 0 14.68 0zm0 0" fill="#ffb2b2"/></g><g clip-path="url(#q)"><path d="m347.501-.002a7.341 7.341 0 0 1 -14.68 0 7.34 7.34 0 0 1 14.68 0zm0 0" fill="none" stroke="#000" stroke-miterlimit="10" stroke-width=".79701" transform="matrix(1 0 0 -1 7.737 70.1)"/></g><use x="342.67" xlink:href="#t" y="71.497"/><use x="348.65" xlink:href="#u" y="72.991"/><path d="m368.76 62.362a7.338 7.338 0 1 1 -14.677 0 7.338 7.338 0 0 1 7.34-7.336 7.337 7.337 0 0 1 7.336 7.336zm0 0" fill="#ffd9b2" stroke="#000" stroke-miterlimit="10" stroke-width=".79701" transform="matrix(1 0 0 -1 7.737 70.1)"/><use x="363.93" xlink:href="#t" y="9.135"/><use x="369.91" xlink:href="#v" y="10.629"/><g clip-path="url(#r)"><path d="m426.105 24.746a7.341 7.341 0 0 0 -14.68 0c0 4.05 3.29 7.34 7.34 7.34 4.055 0 7.34-3.29 7.34-7.34zm0 0" fill="#b2b2ff"/></g><g clip-path="url(#s)"><path d="m418.368 45.354a7.341 7.341 0 0 1 -14.68 0c0-4.05 3.29-7.34 7.34-7.34 4.055 0 7.34 3.29 7.34 7.34zm0 0" fill="none" stroke="#000" stroke-miterlimit="10" stroke-width=".79701" transform="matrix(1 0 0 -1 7.737 70.1)"/></g><use x="413.536" xlink:href="#t" y="26.143"/><use x="419.516" xlink:href="#w" y="27.637"/><path d="m341.833 39.686c0 4.05-3.289 7.34-7.34 7.34a7.341 7.341 0 0 1 0-14.68 7.341 7.341 0 0 1 7.34 7.34zm0 0" fill="#b2d9d9" stroke="#000" stroke-miterlimit="10" stroke-width=".79701" transform="matrix(1 0 0 -1 7.737 70.1)"/><use x="337.001" xlink:href="#t" y="31.812"/><use x="342.981" xlink:href="#x" y="33.307"/></svg>