<svg xmlns="http://www.w3.org/2000/svg" xmlns:xlink="http://www.w3.org/1999/xlink" width="502.756" height="107.748" viewBox="0 0 377.067 80.811"><defs><symbol overflow="visible" id="a"><path d="M26.578-13.266c.61 0 1.235 0 1.235-.703 0-.75-.704-.75-1.407-.75H3.313c-.704 0-1.407 0-1.407.75 0 .703.61.703 1.235.703zm-.172 7.36c.703 0 1.407 0 1.407-.75 0-.703-.625-.703-1.235-.703H3.141c-.625 0-1.235 0-1.235.703 0 .75.703.75 1.407.75zm0 0"/></symbol><symbol overflow="visible" id="b"><path d="M.89 2.625c-.14.625-.234.781-1.078.781-.25 0-.453 0-.453.39 0 .048.016.204.25.204.266 0 .563-.031.829-.031h.89C1.75 3.969 2.812 4 3.25 4c.11 0 .36 0 .36-.36 0-.234-.141-.234-.485-.234-.953 0-1.016-.14-1.016-.312 0-.25.922-3.797 1.047-4.266.235.578.797 1.375 1.86 1.375 2.343 0 4.859-3.031 4.859-6.062 0-1.907-1.078-3.25-2.625-3.25-1.328 0-2.438 1.28-2.672 1.562-.156-1.031-.969-1.562-1.797-1.562-.594 0-1.062.296-1.453 1.078-.375.734-.672 2-.672 2.078 0 .094.094.187.235.187.156 0 .187-.015.312-.5.313-1.218.703-2.437 1.531-2.437.47 0 .625.344.625.953 0 .5-.046.703-.14 1.078zM4.47-6.438c.14-.578.718-1.187 1.047-1.468.234-.219.906-.797 1.687-.797.922 0 1.328.922 1.328 1.984 0 1-.578 3.328-1.094 4.407C6.923-1.204 5.97-.204 5.017-.204c-1.407 0-1.625-1.781-1.625-1.86 0-.062.03-.234.062-.328zm0 0"/></symbol><symbol overflow="visible" id="e"><path d="M5.797-13.813a1.11 1.11 0 0 0 .062-.312c0-.203-.203-.203-.234-.203s-.766.047-1.14.094c-.36.015-.657.062-1.032.078-.5.047-.64.062-.64.437 0 .203.203.203.406.203 1.062 0 1.062.188 1.062.407 0 .078 0 .109-.11.484L1.22-.812c-.078.312-.078.359-.078.484 0 .453.343.531.546.531.579 0 .704-.453.875-1.094l.97-3.859c1.484.172 2.374.781 2.374 1.781 0 .125 0 .203-.062.516-.078.312-.078.547-.078.656 0 1.203.78 2 1.828 2 .953 0 1.453-.86 1.625-1.156.422-.766.703-1.922.703-2 0-.11-.094-.188-.219-.188-.187 0-.203.079-.281.407-.297 1.078-.719 2.53-1.781 2.53-.407 0-.672-.202-.672-1 0-.39.078-.843.156-1.155.078-.375.078-.391.078-.641 0-1.219-1.094-1.89-2.984-2.14.734-.454 1.484-1.266 1.765-1.579C7.172-8.03 7.97-8.703 8.922-8.703c.484 0 .594.125.75.25-.766.094-1.063.625-1.063 1.031 0 .5.391.672.688.672.562 0 1.047-.484 1.047-1.14 0-.594-.469-1.22-1.406-1.22-1.126 0-2.063.813-3.532 2.454-.203.25-.968 1.031-1.734 1.328zm0 0"/></symbol><symbol overflow="visible" id="c"><path d="M3.625-6.813c.078-.171.14-.296.14-.453 0-.406-.374-.75-.828-.75-.406 0-.656.266-.75.641L.47-1.109c0 .03-.047.187-.047.203 0 .156.36.265.484.265.078 0 .094-.046.188-.234zm0 0"/></symbol><clipPath id="d"><path d="M67 29h81v51.813H67zm0 0"/></clipPath><clipPath id="f"><path d="M1 29h82v51.813H1zm0 0"/></clipPath><clipPath id="g"><path d="M294 29h81v51.813h-81zm0 0"/></clipPath><clipPath id="h"><path d="M228 29h81v51.813h-81zm0 0"/></clipPath></defs><use xlink:href="#a" x="173.66" y="48.757" fill="rgb(0%,0%,0%)"/><path d="M82.617 41.41a7.473 7.473 0 1 0-14.945 0 7.473 7.473 0 0 0 14.945 0zm211.832 0c-105.916-4.125-109.26-7.472-113.385-7.472a7.473 7.473 0 0 0 0 14.945 7.472 7.472 0 0 0 7.469-7.473zm-105.916 0" fill="rgb(84.999084%,84.999084%,84.999084%)" stroke-width="1.19553" stroke="rgb(54.998779%,54.998779%,54.998779%)" stroke-miterlimit="10"/><path d="M84.145 36.91l46.84-23.418" fill="none" stroke-width="1.19553" stroke="rgb(0%,0%,0%)" stroke-miterlimit="10"/><path d="M128.133 12.066c.57.782 2.781 1.282 3.277 1.211-.355.356-1.281 2.422-.996 3.352" fill="none" stroke-width=".9563234880000001" stroke-linecap="round" stroke-linejoin="round" stroke="rgb(0%,0%,0%)" stroke-miterlimit="10"/><use xlink:href="#b" x="135.759" y="18.789" fill="rgb(0%,0%,0%)"/><use xlink:href="#c" x="145.913" y="11.291" fill="rgb(0%,0%,0%)"/><g clip-path="url(#d)"><path d="M84.145 45.91l46.84 23.418" fill="none" stroke-width="1.19553" stroke="rgb(0%,0%,0%)" stroke-miterlimit="10"/></g><path d="M130.414 66.191c-.285.93.64 2.996.996 3.352-.496-.07-2.707.426-3.277 1.21" fill="none" stroke-width=".9563234880000001" stroke-linecap="round" stroke-linejoin="round" stroke="rgb(0%,0%,0%)" stroke-miterlimit="10"/><use xlink:href="#e" x="135.759" y="77.491" fill="rgb(0%,0%,0%)"/><use xlink:href="#c" x="146.975" y="69.992" fill="rgb(0%,0%,0%)"/><path d="M65.29 36.484L18.452 13.062" fill="none" stroke-width="1.19553" stroke="rgb(0%,0%,0%)" stroke-miterlimit="10"/><path d="M64.719 33.348c-.281.925.644 2.992 1 3.347-.5-.07-2.707.43-3.278 1.215" fill="none" stroke-width=".9563234880000001" stroke-linecap="round" stroke-linejoin="round" stroke="rgb(0%,0%,0%)" stroke-miterlimit="10"/><use xlink:href="#b" x="4.382" y="15.503" fill="rgb(0%,0%,0%)"/><g clip-path="url(#f)"><path d="M65.29 46.336L18.452 69.758" fill="none" stroke-width="1.19553" stroke="rgb(0%,0%,0%)" stroke-miterlimit="10"/></g><path d="M62.441 44.91c.57.785 2.778 1.285 3.278 1.215-.356.355-1.282 2.422-1 3.348" fill="none" stroke-width=".9563234880000001" stroke-linecap="round" stroke-linejoin="round" stroke="rgb(0%,0%,0%)" stroke-miterlimit="10"/><use xlink:href="#e" x="3.321" y="76.931" fill="rgb(0%,0%,0%)"/><path d="M310.918 36.91l46.84-23.418" fill="none" stroke-width="1.19553" stroke="rgb(0%,0%,0%)" stroke-miterlimit="10"/><path d="M354.906 12.066c.57.782 2.782 1.282 3.281 1.211-.359.356-1.285 2.422-1 3.352" fill="none" stroke-width=".9563234880000001" stroke-linecap="round" stroke-linejoin="round" stroke="rgb(0%,0%,0%)" stroke-miterlimit="10"/><use xlink:href="#b" x="362.53" y="15.503" fill="rgb(0%,0%,0%)"/><g clip-path="url(#g)"><path d="M310.918 45.91l46.84 23.418" fill="none" stroke-width="1.19553" stroke="rgb(0%,0%,0%)" stroke-miterlimit="10"/></g><path d="M357.188 66.191c-.286.93.64 2.997 1 3.352-.5-.07-2.711.426-3.282 1.21" fill="none" stroke-width=".9563234880000001" stroke-linecap="round" stroke-linejoin="round" stroke="rgb(0%,0%,0%)" stroke-miterlimit="10"/><use xlink:href="#e" x="362.53" y="76.931" fill="rgb(0%,0%,0%)"/><path d="M292.066 36.484l-46.84-23.422" fill="none" stroke-width="1.19553" stroke="rgb(0%,0%,0%)" stroke-miterlimit="10"/><path d="M291.496 33.348c-.285.925.64 2.992.996 3.347-.496-.07-2.707.43-3.277 1.215" fill="none" stroke-width=".9563234880000001" stroke-linecap="round" stroke-linejoin="round" stroke="rgb(0%,0%,0%)" stroke-miterlimit="10"/><use xlink:href="#b" x="226.711" y="18.789" fill="rgb(0%,0%,0%)"/><use xlink:href="#c" x="236.865" y="11.291" fill="rgb(0%,0%,0%)"/><g clip-path="url(#h)"><path d="M292.066 46.336l-46.84 23.422" fill="none" stroke-width="1.19553" stroke="rgb(0%,0%,0%)" stroke-miterlimit="10"/></g><path d="M289.215 44.91c.57.785 2.781 1.285 3.277 1.215-.355.355-1.281 2.422-.996 3.348" fill="none" stroke-width=".9563234880000001" stroke-linecap="round" stroke-linejoin="round" stroke="rgb(0%,0%,0%)" stroke-miterlimit="10"/><use xlink:href="#e" x="225.649" y="77.491" fill="rgb(0%,0%,0%)"/><use xlink:href="#c" x="236.865" y="69.992" fill="rgb(0%,0%,0%)"/></svg>