<svg height="260.016" viewBox="0 0 243.534 195.012" width="324.712" xmlns="http://www.w3.org/2000/svg" xmlns:xlink="http://www.w3.org/1999/xlink"><symbol id="a" overflow="visible"><path d="m2.938-6.375c0-.25 0-.266-.235-.266-.625.641-1.5.641-1.812.641v.313c.203 0 .78 0 1.296-.266v5.172c0 .36-.03.469-.921.469h-.313v.312c.344-.031 1.203-.031 1.61-.031.39 0 1.265 0 1.609.031v-.313h-.313c-.906 0-.921-.109-.921-.468zm0 0"/></symbol><symbol id="b" overflow="visible"><path d="m1.266-.766 1.062-1.03c1.547-1.376 2.14-1.907 2.14-2.907 0-1.14-.89-1.938-2.109-1.938a1.843 1.843 0 0 0 -1.859 1.813c0 .547.5.547.531.547.172 0 .516-.11.516-.532a.513.513 0 0 0 -.531-.515c-.079 0-.094 0-.125.016.218-.657.765-1.016 1.343-1.016.907 0 1.329.812 1.329 1.625 0 .797-.485 1.578-1.047 2.203l-1.907 2.125c-.109.11-.109.14-.109.375h3.703l.266-1.734h-.235c-.062.296-.124.734-.234.89-.063.078-.719.078-.938.078zm0 0"/></symbol><symbol id="c" overflow="visible"><path d="m2.89-3.516c.813-.265 1.391-.953 1.391-1.75 0-.812-.875-1.375-1.828-1.375-1 0-1.765.594-1.765 1.36 0 .328.218.515.515.515s.5-.218.5-.515c0-.485-.469-.485-.61-.485.298-.5.954-.625 1.313-.625.422 0 .969.22.969 1.11 0 .125-.031.703-.281 1.14-.297.485-.64.516-.89.516a3.29 3.29 0 0 1 -.392.031c-.078.016-.14.031-.14.125 0 .11.062.11.234.11h.438c.812 0 1.187.671 1.187 1.656 0 1.36-.687 1.64-1.125 1.64-.437 0-1.187-.171-1.531-.75.344.047.656-.171.656-.546a.537.537 0 0 0 -.547-.563c-.25 0-.562.14-.562.578 0 .907.922 1.564 2.015 1.564 1.22 0 2.126-.906 2.126-1.922 0-.813-.641-1.594-1.672-1.813zm0 0"/></symbol><symbol id="d" overflow="visible"><path d="m2.938-1.64v.859c0 .36-.032.469-.766.469h-.203v.312c.406-.031.922-.031 1.343-.031.422 0 .938 0 1.36.031v-.313h-.219c-.734 0-.75-.109-.75-.468v-.86h.985v-.312h-.985v-4.531c0-.204 0-.266-.172-.266-.078 0-.11 0-.187.125l-3.064 4.672v.312zm.046-.313h-2.421l2.421-3.719zm0 0"/></symbol><symbol id="e" overflow="visible"><path d="m4.469-2c0-1.188-.813-2.188-1.89-2.188-.47 0-.907.157-1.267.516v-1.953c.204.063.532.125.844.125 1.235 0 1.938-.906 1.938-1.031 0-.063-.032-.11-.11-.11 0 0-.03 0-.078.032a3.22 3.22 0 0 1 -1.36.296 3.4 3.4 0 0 1 -1.327-.28c-.078-.032-.094-.032-.11-.032-.109 0-.109.078-.109.234v2.954c0 .171 0 .25.14.25.079 0 .094-.016.141-.079.11-.156.469-.703 1.282-.703.515 0 .765.453.843.64.156.376.188.75.188 1.25 0 .36 0 .954-.25 1.376-.235.39-.61.64-1.063.64-.719 0-1.297-.53-1.469-1.109.032 0 .063.016.172.016.329 0 .5-.25.5-.485 0-.25-.171-.5-.5-.5-.14 0-.484.079-.484.532 0 .859.688 1.828 1.797 1.828 1.156 0 2.172-.953 2.172-2.219zm0 0"/></symbol><symbol id="f" overflow="visible"><path d="m4.578-3.188c0-.796-.047-1.593-.39-2.328-.455-.968-1.283-1.124-1.688-1.124-.61 0-1.328.266-1.75 1.188-.313.687-.36 1.469-.36 2.266 0 .75.032 1.64.454 2.406a1.83 1.83 0 0 0 1.64 1c.532 0 1.297-.203 1.735-1.157.312-.687.36-1.468.36-2.25zm-2.094 3.188c-.39 0-.984-.25-1.156-1.203-.11-.594-.11-1.516-.11-2.11 0-.64 0-1.296.079-1.828.187-1.187.937-1.28 1.187-1.28.329 0 .985.187 1.172 1.171.11.563.11 1.313.11 1.938 0 .75 0 1.421-.11 2.062-.156.953-.719 1.25-1.172 1.25zm0 0"/></symbol><symbol id="g" overflow="visible"><path d="m1.313-3.266v-.25c0-2.515 1.234-2.875 1.75-2.875.234 0 .656.063.874.407-.156 0-.546 0-.546.437 0 .313.234.469.453.469.156 0 .469-.094.469-.484 0-.594-.438-1.079-1.266-1.079-1.281.001-2.625 1.282-2.625 3.485 0 2.672 1.156 3.375 2.078 3.375 1.11 0 2.063-.938 2.063-2.25 0-1.266-.891-2.219-2-2.219-.672 0-1.047.5-1.25.984zm1.187 3.204c-.625 0-.922-.594-.984-.75-.188-.47-.188-1.266-.188-1.438 0-.781.328-1.781 1.219-1.781.172 0 .625 0 .937.625.172.36.172.875.172 1.36 0 .483 0 .983-.172 1.343-.296.594-.75.64-.984.64zm0 0"/></symbol><symbol id="h" overflow="visible"><path d="m1.625-4.563c-.453-.296-.5-.625-.5-.796 0-.61.656-1.032 1.36-1.032.718 0 1.359.516 1.359 1.235 0 .578-.39 1.047-.985 1.39zm1.453.954c.719-.375 1.203-.891 1.203-1.547 0-.922-.875-1.485-1.781-1.485-1 0-1.813.735-1.813 1.672 0 .172.016.625.438 1.094.11.11.484.36.734.531-.578.297-1.437.844-1.437 1.844 0 1.047 1.016 1.719 2.062 1.719 1.125 0 2.079-.828 2.079-1.89 0-.36-.11-.813-.5-1.235-.188-.203-.344-.297-.985-.703zm-1 .421 1.235.782c.28.187.75.484.75 1.094 0 .734-.75 1.25-1.563 1.25-.86-.001-1.578-.61-1.578-1.438 0-.578.312-1.219 1.156-1.688zm0 0"/></symbol><symbol id="i" overflow="visible"><path d="m2.547 2.5v-.406h-.969v-9.172h.969v-.406h-1.375v9.984zm0 0"/></symbol><symbol id="j" overflow="visible"><path d="m1.094-3.422v2.672c0 .438-.11.438-.782.438v.312c.36-.016.86-.031 1.141-.031.25 0 .766.015 1.11.031v-.313c-.672 0-.782 0-.782-.437v-1.844c0-1.031.719-1.594 1.344-1.594.64 0 .75.532.75 1.11v2.328c0 .438-.11.438-.781.438v.312c.344-.016.86-.031 1.125-.031.25 0 .781.015 1.11.031v-.313c-.657 0-.766 0-.766-.437v-1.844c0-1.031.703-1.594 1.343-1.594.625 0 .735.532.735 1.11v2.328c0 .438-.11.438-.782.438v.312c.344-.016.86-.031 1.125-.031.266 0 .782.015 1.125.031v-.313c-.515 0-.765 0-.78-.296v-1.907c0-.859 0-1.156-.313-1.515-.141-.172-.47-.375-1.047-.375-.828 0-1.282.593-1.438.984-.14-.875-.875-.984-1.328-.984-.734 0-1.203.422-1.484 1.047v-1.047l-1.407.11v.312c.704 0 .782.062.782.562zm0 0"/></symbol><symbol id="k" overflow="visible"><path d="m4.688-2.14c0-1.266-.985-2.329-2.188-2.329-1.25 0-2.219 1.094-2.219 2.329a2.22 2.22 0 0 0 2.203 2.25c1.204 0 2.204-.984 2.204-2.25zm-2.188 2c-.438 0-.875-.204-1.14-.672-.25-.438-.25-1.047-.25-1.407 0-.39 0-.922.234-1.36a1.347 1.347 0 0 1 1.14-.671c.438 0 .86.219 1.125.656.266.422.266 1 .266 1.375 0 .36 0 .906-.219 1.344-.234.453-.672.734-1.156.734zm0 0"/></symbol><symbol id="l" overflow="visible"><path d="m1.766-6.922-1.438.11v.312c.703 0 .781.063.781.563v5.187c0 .438-.109.438-.78.438v.312c.327-.016.859-.031 1.109-.031s.734.015 1.109.031v-.313c-.672 0-.781 0-.781-.437zm0 0"/></symbol><symbol id="m" overflow="visible"><path d="m1.578-7.484h-1.36v.406h.97v9.172h-.97v.406h1.36zm0 0"/></symbol><symbol id="n" overflow="visible"><path d="m6.844-3.266c.156 0 .343 0 .343-.187 0-.203-.187-.203-.328-.203h-5.968c-.141 0-.329 0-.329.203 0 .187.188.187.329.187zm.015 1.938c.141 0 .329 0 .329-.203 0-.188-.188-.188-.344-.188h-5.954c-.141 0-.329 0-.329.188 0 .203.188.203.329.203zm0 0"/></symbol><symbol id="o" overflow="visible"><path d="m4.078-2.297h2.782c.141 0 .329 0 .329-.203 0-.188-.188-.188-.329-.188h-2.78v-2.796c0-.141 0-.329-.204-.329-.203 0-.203.188-.203.329v2.796h-2.783c-.141 0-.329 0-.329.188 0 .203.188.203.329.203h2.78v2.797c0 .14 0 .328.204.328.203 0 .203-.187.203-.328zm0 0"/></symbol><symbol id="p" overflow="visible"><path d="m2.031-.016c0-.656-.25-1.046-.64-1.046a.517.517 0 0 0 -.532.53c0 .266.204.532.532.532a.58.58 0 0 0 .343-.125c.032-.031.047-.031.047-.031.016 0 .016 0 .016.14 0 .75-.344 1.344-.672 1.672-.11.11-.11.125-.11.157 0 .078.048.109.094.109.11 0 .922-.766.922-1.938zm0 0"/></symbol><symbol id="q" overflow="visible"><path d="m4.672-3.703c0-.547-.266-.703-.438-.703-.25 0-.5.265-.5.484 0 .125.047.188.157.297.218.203.343.453.343.813 0 .421-.609 2.703-1.765 2.703-.516 0-.75-.344-.75-.875 0-.547.281-1.282.578-2.11.078-.172.125-.312.125-.5 0-.437-.313-.812-.813-.812-.937 0-1.312 1.453-1.312 1.531 0 .11.094.11.11.11.109 0 .109-.032.156-.188.296-1 .718-1.235 1.015-1.235.078 0 .25 0 .25.313 0 .25-.11.531-.172.703-.437 1.156-.562 1.61-.562 2.047 0 1.078.875 1.234 1.328 1.234 1.672 0 2.25-3.296 2.25-3.812zm0 0"/></symbol><symbol id="r" overflow="visible"><path d="m4.375-7.094c.047-.14.047-.172.047-.187 0-.11-.078-.203-.188-.203-.078 0-.14.03-.171.093l-3.47 9.5c-.046.141-.046.172-.046.188 0 .11.094.203.203.203.125 0 .156-.078.219-.25zm0 0"/></symbol><symbol id="s" overflow="visible"><path d="m.453 1.219c-.078.343-.11.406-.547.406-.11 0-.218 0-.218.188 0 .078.046.125.124.125.266 0 .563-.032.829-.032.343 0 .671.032 1 .032.046 0 .171 0 .171-.204 0-.109-.093-.109-.234-.109-.5 0-.5-.063-.5-.156 0-.125.422-1.75.484-2 .125.297.407.64.922.64 1.157 0 2.407-1.453 2.407-2.921 0-.938-.579-1.594-1.329-1.594-.5 0-.984.36-1.312.75-.094-.547-.531-.75-.89-.75-.47 0-.657.39-.735.562-.188.344-.313.938-.313.969 0 .11.094.11.11.11.11 0 .11-.016.172-.235.172-.703.375-1.188.734-1.188.172 0 .313.079.313.454 0 .234-.032.343-.079.515zm1.75-4.328c.063-.266.344-.547.516-.704.36-.296.64-.374.812-.374.39 0 .64.343.64.937s-.327 1.734-.515 2.11c-.344.702-.812 1.03-1.187 1.03-.656 0-.781-.828-.781-.89 0-.016 0-.031.03-.156zm0 0"/></symbol><symbol id="t" overflow="visible"><path d="m1.906-2.328c.547 0 .938.375.938 1.125 0 .86-.516 1.125-.906 1.125-.282 0-.907-.078-1.188-.5.328 0 .406-.235.406-.39 0-.22-.172-.376-.39-.376a.38.38 0 0 0 -.391.407c0 .656.719 1.077 1.563 1.077.968 0 1.64-.657 1.64-1.344 0-.547-.437-1.094-1.203-1.25.719-.266.984-.781.984-1.219 0-.547-.625-.953-1.406-.953-.766 0-1.36.375-1.36.938 0 .234.157.359.36.359.219 0 .36-.156.36-.344 0-.203-.141-.36-.36-.375.25-.297.719-.375.985-.375.312 0 .75.156.75.75 0 .297-.094.625-.282.828-.219.266-.422.281-.765.313-.172.015-.188.015-.22.015-.015 0-.077.016-.077.094 0 .094.062.094.187.094zm0 0"/></symbol><symbol id="u" overflow="visible"><path d="m3.594-2.219c0-.765-.094-1.328-.406-1.812-.22-.313-.657-.594-1.204-.594-1.624 0-1.624 1.906-1.624 2.406s0 2.36 1.625 2.36c1.61 0 1.61-1.86 1.61-2.36zm-1.61 2.156c-.328 0-.75-.187-.89-.75-.094-.406-.094-.983-.094-1.5 0-.515 0-1.046.094-1.421.156-.547.593-.704.89-.704.375 0 .735.235.86.641.11.375.125.875.125 1.485 0 .515 0 1.03-.094 1.468-.14.64-.61.781-.89.781zm0 0"/></symbol><symbol id="v" overflow="visible"><path d="m2.328-4.438c0-.187 0-.187-.203-.187-.453.438-1.078.438-1.36.438v.25c.157 0 .626 0 1-.188v3.547c0 .234 0 .328-.687.328h-.266v.25c.125 0 .985-.031 1.235-.031.219 0 1.094.031 1.25.031v-.25h-.267c-.703 0-.703-.094-.703-.328zm0 0"/></symbol><symbol id="w" overflow="visible"><path d="m3.516-1.266h-.236c-.015.157-.094.563-.187.625-.047.047-.578.047-.688.047h-1.28c.734-.64.984-.844 1.39-1.172.516-.406 1-.843 1-1.5 0-.843-.734-1.359-1.624-1.359-.86 0-1.454.61-1.454 1.25 0 .344.297.39.376.39a.365.365 0 0 0 .359-.374c0-.125-.047-.375-.406-.375.218-.485.687-.641 1.015-.641.703 0 1.063.547 1.063 1.11 0 .609-.438 1.078-.656 1.328l-1.672 1.671c-.079.063-.079.079-.079.266h2.876zm0 0"/></symbol><symbol id="x" overflow="visible"><path d="m1.219-.453c.343.078.406.11.406.547 0 .11 0 .218.188.218.078 0 .125-.046.125-.124 0-.266-.032-.563-.032-.829 0-.343.032-.671.032-1 0-.046 0-.171-.204-.171-.109 0-.109.093-.109.234 0 .5-.063.5-.156.5-.125 0-1.75-.422-2-.484.297-.125.64-.407.64-.922 0-1.157-1.453-2.407-2.921-2.407-.938 0-1.594.579-1.594 1.329 0 .5.36.984.75 1.312-.547.094-.75.531-.75.89 0 .47.39.657.562.735.344.188.938.313.969.313.11 0 .11-.094.11-.11 0-.11-.016-.11-.235-.172-.703-.172-1.188-.375-1.188-.734 0-.172.079-.313.454-.313.234 0 .343.032.515.079zm-4.328-1.75c-.266-.063-.547-.344-.704-.516-.296-.36-.374-.64-.374-.812 0-.39.343-.64.937-.64s1.734.327 2.11.515c.702.344 1.03.812 1.03 1.187 0 .656-.828.781-.89.781-.016 0-.031 0-.156-.03zm0 0"/></symbol><symbol id="y" overflow="visible"><path d="m2.5-2.547h-.406v.969h-9.172v-.969h-.406v1.375h9.984zm0 0"/></symbol><symbol id="z" overflow="visible"><path d="m-3.156-2.266v-1.687c0-1.188-.797-2.266-1.797-2.266-.984 0-1.86.985-1.86 2.344v3.531h.313v-.25c0-.765.11-.781.469-.781h5.25c.36 0 .469.016.469.781v.25h.312c-.031-.36-.031-1.094-.031-1.469s0-1.125.031-1.484h-.313v.25c0 .766-.109.781-.468.781zm-.25.032h-2.688c-.343 0-.406-.016-.406-.485v-.89c0-1.579 1.063-1.579 1.547-1.579.469 0 1.547 0 1.547 1.579zm0 0"/></symbol><symbol id="A" overflow="visible"><path d="m-.75-3.313c.39-.046.813-.312.813-.78 0-.22-.141-.829-.954-.829h-.562v.25h.562c.579 0 .641.25.641.36 0 .328-.453.375-.5.375h-1.984c-.422 0-.813 0-1.188.359a1.9 1.9 0 0 0 -.547 1.36c0 .827.469 1.515 1.125 1.515.297 0 .469-.203.469-.469a.435.435 0 0 0 -.453-.453c-.125 0-.453.047-.453.516-.36-.282-.469-.766-.469-1.079 0-.5.39-1.062 1.281-1.062h.36c.03.516.062 1.203.359 1.828.344.75.86 1 1.297 1 .812 0 1.062-.969 1.062-1.594a1.38 1.38 0 0 0 -.859-1.296zm-1.64.063h1c.937 0 1.28.719 1.28 1.172 0 .484-.343.89-.843.89-.547 0-1.375-.421-1.438-2.062zm0 0"/></symbol><symbol id="B" overflow="visible"><path d="m-7.484-1.578v1.36h.406v-.97h9.172v.97h.406v-1.36zm0 0"/></symbol><symbol id="C" overflow="visible"><path d="m2.875-4.266c.047-.203.063-.218.219-.25h.453c.64 0 1.437 0 1.437.72 0 .296-.125.733-.453.983-.281.22-.718.329-1.203.329h-.89zm1.266 1.891c.828-.188 1.562-.688 1.562-1.313 0-.593-.703-1.078-1.719-1.078h-2.14c-.125 0-.219 0-.219.157 0 .093.078.093.219.093.015 0 .14 0 .265.016.157.016.157.031.157.11 0 0 0 .046-.016.14l-.938 3.703c-.046.235-.062.297-.609.297-.125 0-.203 0-.203.14 0 .08.047.11.11.11.124 0 .296-.016.421-.016.14 0 .344-.015.469-.015.14 0 .297.015.438.015.156 0 .328.016.468.016.047 0 .156 0 .156-.14 0-.11-.078-.11-.234-.11-.11 0-.14 0-.265-.016-.157-.015-.157-.03-.157-.109 0 0 0-.047.032-.14l.437-1.766h.953c.594 0 .86.297.86.625 0 .093-.063.328-.11.484-.078.328-.11.422-.11.547 0 .547.516.766 1.032.766.64 0 .922-.688.922-.813 0-.015-.016-.094-.125-.094-.094 0-.11.047-.125.125-.094.297-.36.579-.64.579-.188 0-.329-.063-.329-.454 0-.171.047-.53.078-.718.032-.188.032-.25.032-.329 0-.078 0-.312-.204-.515-.125-.14-.312-.235-.468-.297zm0 0"/></symbol><symbol id="D" overflow="visible"><path d="m3.39-4.219c.047-.203.063-.218.22-.234h.406c.437 0 .609 0 .78.047.313.093.329.297.329.547 0 .109 0 .203-.047.562l-.016.078c0 .078.047.11.125.11.11 0 .11-.063.125-.172l.188-1.329c0-.094-.078-.094-.203-.094h-4.281c-.172 0-.188 0-.235.14l-.453 1.237c0 .031-.031.094-.031.125s.016.094.125.094c.094 0 .094-.032.14-.172.407-1.11.641-1.172 1.704-1.172h.28c.22 0 .22 0 .22.062 0 0 0 .047-.032.141l-.921 3.671c-.063.25-.079.328-.813.328-.25 0-.313 0-.313.156 0 .016.016.094.125.094.188 0 .407-.016.594-.016.203 0 .407-.015.594-.015.203 0 .438 0 .64.015.188 0 .391.016.579.016.062 0 .156 0 .156-.156 0-.094-.063-.094-.281-.094-.125 0-.266-.016-.406-.016-.235-.015-.25-.046-.25-.125 0-.062 0-.062.03-.171zm0 0"/></symbol><symbol id="E" overflow="visible"><path d="m3.719-2.531c0-.547-.328-.547-.344-.547a.403.403 0 0 0 -.375.375c0 .11.063.172.11.203.124.11.265.281.265.563 0 .312-.469 1.812-1.297 1.812-.562 0-.562-.5-.562-.625 0-.313.125-.703.39-1.36.047-.14.094-.25.094-.359 0-.375-.313-.61-.656-.61-.704.001-1.016.955-1.016 1.079 0 .078.094.078.125.078.094 0 .094-.031.125-.11.156-.562.453-.843.735-.843.125 0 .171.078.171.234a.998.998 0 0 1 -.125.47c-.296.78-.375 1.077-.375 1.327 0 .688.547.906 1.079.906 1.171 0 1.656-2.015 1.656-2.593zm0 0"/></symbol><symbol id="F" overflow="visible"><path d="m1.328-.547c-.062.235-.078.297-.625.297-.11 0-.203 0-.203.14 0 .11.078.11.203.11h2.703c1.172 0 2.078-.797 2.078-1.484 0-.5-.453-.922-1.203-1 .844-.157 1.547-.688 1.547-1.282 0-.53-.531-1-1.437-1h-2.532c-.14 0-.234 0-.234.157 0 .093.094.093.234.093 0 0 .141 0 .266.016.14.016.156.031.156.11 0 0 0 .046-.031.14zm1.11-2.031.421-1.688c.063-.218.063-.25.36-.25h1.061c.703 0 .875.47.875.735 0 .562-.64 1.203-1.578 1.203zm-.33 2.328c-.218 0-.234-.016-.234-.078 0 0 0-.031.031-.14l.485-1.907h1.484c.64 0 .906.438.906.828 0 .703-.718 1.297-1.562 1.297zm0 0"/></symbol><symbol id="G" overflow="visible"><path d="m1.984-3.172c0-.14-.015-.14-.187-.14-.344.312-.907.312-1 .312h-.078v.219h.078c.11 0 .437-.016.734-.14v2.5c0 .14 0 .202-.531.202h-.25v.219c.266-.016.719-.016 1-.016.297 0 .734 0 1.016.016v-.219h-.25c-.532 0-.532-.062-.532-.203zm0 0"/></symbol><symbol id="H" overflow="visible"><path d="m2.938-.969h-.22c0 .094-.062.406-.14.453-.031.032-.453.032-.531.032h-.969c.328-.235.688-.516.984-.72.454-.312.876-.593.876-1.124 0-.64-.61-.985-1.313-.985-.672 0-1.172.376-1.172.876 0 .25.219.296.297.296a.283.283 0 0 0 .281-.296.27.27 0 0 0 -.281-.282c.14-.234.438-.375.766-.375.484 0 .89.281.89.766 0 .422-.297.75-.672 1.062l-1.218 1.032c-.047.047-.063.047-.063.078v.156h2.313zm0 0"/></symbol><symbol id="I" overflow="visible"><path d="m1.64-1.656c.47 0 .766.297.766.781 0 .516-.312.781-.75.781-.062 0-.656 0-.906-.265.203-.032.266-.172.266-.297a.304.304 0 0 0 -.313-.314c-.156 0-.297.11-.297.328 0 .516.578.75 1.266.75.812 0 1.312-.5 1.312-.984 0-.406-.359-.75-.921-.875.593-.203.75-.578.75-.86 0-.406-.5-.703-1.126-.703-.625 0-1.109.25-1.109.704a.28.28 0 0 0 .281.296.284.284 0 0 0 .282-.296c0-.11-.063-.25-.235-.282.203-.218.656-.234.766-.234.36 0 .61.172.61.516 0 .296-.188.75-.704.78-.14 0-.156 0-.297.016-.047 0-.11 0-.11.079 0 .078.048.078.141.078zm0 0"/></symbol><clipPath id="J"><path d="m238 159h5.535v5h-5.535zm0 0"/></clipPath><clipPath id="K"><path d="m48.86 64h194.277v97.785h-194.278zm0 0"/></clipPath><clipPath id="L"><path d="m48.86.395h194.277v161.39h-194.278zm0 0"/></clipPath><clipPath id="M"><path d="m48.86 107h194.277v54.785h-194.278zm0 0"/></clipPath><path d="m19.43-2.124v4.25m38.855-4.25v4.25m38.855-4.25v4.25m38.855-4.25v4.25m38.86-4.25v4.25m-176.981 27.129h4.25m-4.25 37.828h4.25m-4.25 37.828h4.25m-4.25 37.828h4.25m-2.124-142.739h191.687" fill="none" stroke="#000" stroke-miterlimit="10" stroke-width=".79701" transform="matrix(1 0 0 -1 48.86 161.786)"/><g clip-path="url(#J)"><path d="m243.137 161.785-4.145-2.07 1.555 2.07-1.555 2.074"/></g><path d="m0 0v158.802" fill="none" stroke="#000" stroke-miterlimit="10" stroke-width=".79701" transform="matrix(1 0 0 -1 48.86 161.786)"/><path d="m48.86.395-2.07 4.144 2.07-1.555 2.074 1.555"/><use x="65.798" xlink:href="#a" y="174.052"/><use x="104.653" xlink:href="#b" y="174.052"/><use x="143.509" xlink:href="#c" y="174.052"/><use x="182.365" xlink:href="#d" y="174.052"/><use x="221.221" xlink:href="#e" y="174.052"/><use x="20.323" xlink:href="#b" y="134.773"/><use x="25.304" xlink:href="#p" y="134.773"/><g><use x="28.071" xlink:href="#f" y="134.773"/><use x="33.052" xlink:href="#f" y="134.773"/><use x="38.034" xlink:href="#f" y="134.773"/></g><use x="20.323" xlink:href="#d" y="96.945"/><use x="25.304" xlink:href="#p" y="96.945"/><g><use x="28.071" xlink:href="#f" y="96.945"/><use x="33.052" xlink:href="#f" y="96.945"/><use x="38.034" xlink:href="#f" y="96.945"/></g><use x="20.323" xlink:href="#g" y="59.117"/><use x="25.304" xlink:href="#p" y="59.117"/><g><use x="28.071" xlink:href="#f" y="59.117"/><use x="33.052" xlink:href="#f" y="59.117"/><use x="38.034" xlink:href="#f" y="59.117"/></g><use x="20.323" xlink:href="#h" y="21.289"/><use x="25.304" xlink:href="#p" y="21.289"/><g><use x="28.071" xlink:href="#f" y="21.289"/><use x="33.052" xlink:href="#f" y="21.289"/><use x="38.034" xlink:href="#f" y="21.289"/></g><g clip-path="url(#K)"><path d="m0 85.731 1.964-8.652 1.961-7.195 1.961-6.082 1.965-5.207 1.96-4.508 1.962-3.938 1.965-3.476 1.96-3.09 1.965-2.758 1.961-2.48 1.961-2.246 1.965-2.04 1.961-1.863 1.961-1.703 1.965-1.57 1.96-1.45 1.962-1.34 1.965-1.242 1.96-1.16 1.965-1.078 1.961-1.012 1.961-.945 1.965-.89 1.961-.836 1.961-.793 1.965-.743 1.96-.707 1.966-.668 1.96-.632 1.961-.602 1.965-.57 1.961-.547 1.961-.52 1.965-.496 1.961-.472 1.965-.454 1.96-.433 1.962-.414 1.965-.399 1.96-.382 1.961-.368 1.965-.355 1.961-.34 1.965-.328 1.961-.313 1.96-.304 1.966-.293 1.96-.285 1.962-.274 1.964-.265 1.961-.254 1.965-.25 1.961-.239 1.961-.234 1.965-.223 1.96-.218 1.966-.211 1.96-.207 1.962-.2 1.964-.195 1.961-.187 1.961-.184 1.965-.176 1.961-.176 1.961-.168 1.965-.164 1.96-.16 1.966-.156 1.96-.152 1.962-.149 1.964-.144 1.961-.14 1.961-.138 1.965-.132 1.961-.133 1.965-.13 1.96-.124 1.962-.121 1.965-.117 3.921-.235 1.965-.11 3.922-.218 1.965-.102 1.961-.105 1.965-.098 1.96-.101 1.962-.094 1.965-.094 1.96-.093 1.961-.09 1.965-.09 1.961-.09 1.965-.086 3.922-.164 1.965-.082 1.96-.078" fill="none" stroke="#f00" stroke-miterlimit="10" stroke-width=".79701" transform="matrix(1 0 0 -1 48.86 161.786)"/></g><g clip-path="url(#L)"><path d="m0 161.391 1.964-21.902 1.961-17.238 1.961-13.89 1.965-11.388 1.96-9.488 1.962-8.004 1.965-6.847 1.96-5.907 1.965-5.14 1.961-4.52 1.961-3.992 1.965-3.555 1.961-3.183 1.961-2.864 1.965-2.59 1.96-2.355 1.962-2.144 1.965-1.965 1.96-1.809 1.965-1.664 1.961-1.539 1.961-1.426 1.965-1.324 1.961-1.234 1.961-1.157 1.965-1.078 1.96-1.015 1.966-.95 1.96-.894 1.961-.844 1.965-.797 1.961-.754 1.961-.714 1.965-.676 1.961-.645 1.965-.613 1.96-.582 1.962-.555 1.965-.527 1.96-.508 1.961-.484 1.965-.461 1.961-.442 1.965-.425 1.961-.407 1.96-.394 1.966-.375 1.96-.363 1.962-.348 1.964-.336 1.961-.32 1.965-.313 1.961-.3 1.961-.294 1.965-.28 1.96-.27 1.966-.262 1.96-.254 1.962-.246 1.964-.238 1.961-.23 1.961-.227 1.965-.215 1.961-.211 1.961-.207 1.965-.196 1.96-.195 1.966-.187 1.96-.184 1.962-.176 1.964-.172 1.961-.171 1.961-.165 1.965-.16 1.961-.152 1.965-.152 1.96-.149 1.962-.144 1.965-.141 1.96-.14 1.961-.133 1.965-.13 1.961-.128 1.961-.125 1.965-.125 1.961-.117 1.965-.118 1.96-.117 1.962-.11 1.965-.109 1.96-.109 1.961-.105 1.965-.102 1.961-.101 1.966-.099 1.961-.098 1.96-.094 1.966-.093 1.96-.09" fill="none" stroke="#00f" stroke-miterlimit="10" stroke-width=".79701" transform="matrix(1 0 0 -1 48.86 161.786)"/></g><g clip-path="url(#M)"><path d="m0 10.075 1.964 16.043 1.961 9.004 1.961 4.844 1.965 2.336 1.96.8 1.962-.148 1.965-.738 1.96-1.09 1.965-1.285 1.961-1.403 1.961-1.445 1.965-1.453 1.961-1.43 1.961-1.39 1.965-1.348 1.96-1.293 1.962-1.238 1.965-1.184 1.96-1.129 1.965-1.074 1.961-1.023 1.961-.973 1.965-.926 1.961-.879 1.961-.84 1.965-.8 1.96-.762 1.966-.727 1.96-.691 1.961-.66 1.965-.633 1.961-.602 1.961-.578 1.965-.554 1.961-.528 1.965-.508 1.96-.488 1.962-.469 1.965-.449 1.96-.43 1.961-.418 1.965-.398 1.961-.383 1.965-.37 1.961-.36 1.96-.344 1.966-.332 1.96-.32 1.962-.313 1.964-.3 1.961-.29 1.965-.28 1.961-.27 1.961-.266 1.965-.254 1.96-.246 1.966-.242 1.96-.23 1.962-.227 1.964-.22 1.961-.214 1.961-.207 1.965-.2 1.961-.194 1.961-.192 1.965-.183 1.96-.184 1.966-.172 1.96-.172 1.962-.168 1.964-.16 1.961-.16 1.961-.156 1.965-.149 1.961-.148 1.965-.145 1.96-.136 1.962-.141 1.965-.133 3.921-.258 1.965-.125 3.922-.242 1.965-.117 1.961-.113 1.965-.114 1.96-.109 1.962-.105 1.965-.106 3.921-.203 1.965-.102 1.961-.093 1.965-.098 1.961-.09 1.96-.094 1.966-.09 1.96-.085" fill="none" stroke="#ff8000" stroke-miterlimit="10" stroke-width=".79701" transform="matrix(1 0 0 -1 48.86 161.786)"/></g><use x="122.075" xlink:href="#q" y="189.201"/><g><use x="130.582" xlink:href="#i" y="189.201"/><use x="133.35" xlink:href="#j" y="189.201"/></g><use x="141.652" xlink:href="#t" y="185.585"/><use x="146.121" xlink:href="#r" y="189.201"/><g><use x="151.102" xlink:href="#j" y="189.201"/><use x="159.404" xlink:href="#k" y="189.201"/><use x="164.385" xlink:href="#l" y="189.201"/><use x="167.153" xlink:href="#m" y="189.201"/></g><use x="10.792" xlink:href="#x" y="93.769"/><g><use x="10.792" xlink:href="#y" y="85.435"/><use x="10.792" xlink:href="#z" y="82.667"/></g><g><use x="10.792" xlink:href="#A" y="76.166"/><use x="10.792" xlink:href="#B" y="71.184"/></g><path d="m105.5 110.95h84.492v46.813h-84.493zm0 0" fill="#fff" stroke="#000" stroke-miterlimit="10" stroke-width=".79701" transform="matrix(1 0 0 -1 48.86 161.786)"/><path d="m0 0h17.007" fill="none" stroke="#f00" stroke-miterlimit="10" stroke-width=".79701" transform="matrix(1 0 0 -1 157.747 13.101)"/><use x="177.146" xlink:href="#s" y="16.698"/><use x="182.159" xlink:href="#u" y="18.192"/><use x="189.396" xlink:href="#n" y="16.698"/><use x="201.107" xlink:href="#C" y="12.775"/><use x="208.503" xlink:href="#D" y="12.775"/><path d="m-.002 0h13.176" fill="none" stroke="#000" stroke-miterlimit="10" stroke-width=".398" transform="matrix(1 0 0 -1 201.107 14.207)"/><use x="205.578" xlink:href="#E" y="20.134"/><path d="m0-.002h17.007" fill="none" stroke="#00f" stroke-miterlimit="10" stroke-width=".79701" transform="matrix(1 0 0 -1 157.747 27.35)"/><use x="177.146" xlink:href="#s" y="31.028"/><use x="182.159" xlink:href="#v" y="32.522"/><use x="189.396" xlink:href="#n" y="31.028"/><use x="199.912" xlink:href="#s" y="31.028"/><use x="204.924" xlink:href="#u" y="32.522"/><use x="211.607" xlink:href="#o" y="31.028"/><use x="222.765" xlink:href="#F" y="26.943"/><use x="228.785" xlink:href="#G" y="27.939"/><path d="m0 .002h9.907" fill="none" stroke="#000" stroke-miterlimit="10" stroke-width=".398" transform="matrix(1 0 0 -1 222.765 28.537)"/><use x="223.658" xlink:href="#E" y="34.463"/><use x="227.893" xlink:href="#H" y="32.471"/><path d="m0 0h17.007" fill="none" stroke="#ff8000" stroke-miterlimit="10" stroke-width=".79701" transform="matrix(1 0 0 -1 157.747 41.679)"/><use x="177.146" xlink:href="#s" y="45.357"/><use x="182.159" xlink:href="#w" y="46.851"/><use x="189.396" xlink:href="#n" y="45.357"/><use x="199.912" xlink:href="#s" y="45.357"/><use x="204.924" xlink:href="#v" y="46.851"/><use x="211.607" xlink:href="#o" y="45.357"/><use x="222.765" xlink:href="#F" y="41.272"/><use x="228.785" xlink:href="#H" y="42.269"/><path d="m0-.001h9.907" fill="none" stroke="#000" stroke-miterlimit="10" stroke-width=".398" transform="matrix(1 0 0 -1 222.765 42.866)"/><use x="223.658" xlink:href="#E" y="48.793"/><use x="227.893" xlink:href="#I" y="46.8"/></svg>