<svg xmlns="http://www.w3.org/2000/svg" xmlns:xlink="http://www.w3.org/1999/xlink" width="295.981" height="259.791" viewBox="0 0 221.986 194.843"><defs><symbol overflow="visible" id="a"><path style="stroke:none" d="M4.578-3.188c0-.796-.047-1.593-.39-2.328C3.733-6.484 2.905-6.64 2.5-6.64c-.61 0-1.328.266-1.75 1.188-.313.687-.36 1.469-.36 2.266 0 .75.032 1.64.454 2.406a1.83 1.83 0 0 0 1.64 1c.532 0 1.297-.203 1.735-1.157.312-.687.36-1.468.36-2.25ZM2.484 0c-.39 0-.984-.25-1.156-1.203-.11-.594-.11-1.516-.11-2.11 0-.64 0-1.296.079-1.828.187-1.187.937-1.28 1.187-1.28.329 0 .985.187 1.172 1.171.11.563.11 1.313.11 1.938 0 .75 0 1.421-.11 2.062C3.5-.297 2.937 0 2.484 0Zm0 0"/></symbol><symbol overflow="visible" id="c"><path style="stroke:none" d="m1.266-.766 1.062-1.03c1.547-1.376 2.14-1.907 2.14-2.907 0-1.14-.89-1.938-2.109-1.938A1.843 1.843 0 0 0 .5-4.828c0 .547.5.547.531.547.172 0 .516-.11.516-.532a.513.513 0 0 0-.531-.515c-.079 0-.094 0-.125.016.218-.657.765-1.016 1.343-1.016.907 0 1.329.812 1.329 1.625 0 .797-.485 1.578-1.047 2.203L.609-.375C.5-.265.5-.235.5 0h3.703l.266-1.734h-.235C4.172-1.438 4.11-1 4-.844c-.063.078-.719.078-.938.078Zm0 0"/></symbol><symbol overflow="visible" id="d"><path style="stroke:none" d="M2.938-1.64v.859c0 .36-.032.469-.766.469h-.203V0c.406-.031.922-.031 1.343-.031.422 0 .938 0 1.36.031v-.313h-.219c-.734 0-.75-.109-.75-.468v-.86h.985v-.312h-.985v-4.531c0-.204 0-.266-.172-.266-.078 0-.11 0-.187.125L.28-1.953v.312Zm.046-.313H.563l2.421-3.719Zm0 0"/></symbol><symbol overflow="visible" id="e"><path style="stroke:none" d="M1.313-3.266v-.25c0-2.515 1.234-2.875 1.75-2.875.234 0 .656.063.874.407-.156 0-.546 0-.546.437 0 .313.234.469.453.469.156 0 .469-.094.469-.484 0-.594-.438-1.079-1.266-1.079C1.766-6.64.422-5.359.422-3.156.422-.484 1.578.219 2.5.219c1.11 0 2.063-.938 2.063-2.25 0-1.266-.891-2.219-2-2.219-.672 0-1.047.5-1.25.984ZM2.5-.062c-.625 0-.922-.594-.984-.75-.188-.47-.188-1.266-.188-1.438 0-.781.328-1.781 1.219-1.781.172 0 .625 0 .937.625.172.36.172.875.172 1.36 0 .483 0 .983-.172 1.343-.296.594-.75.64-.984.64Zm0 0"/></symbol><symbol overflow="visible" id="f"><path style="stroke:none" d="M1.625-4.563c-.453-.296-.5-.625-.5-.796 0-.61.656-1.032 1.36-1.032.718 0 1.359.516 1.359 1.235 0 .578-.39 1.047-.985 1.39Zm1.453.954c.719-.375 1.203-.891 1.203-1.547 0-.922-.875-1.485-1.781-1.485-1 0-1.813.735-1.813 1.672 0 .172.016.625.438 1.094.11.11.484.36.734.531C1.281-3.047.422-2.5.422-1.5.422-.453 1.438.219 2.484.219c1.125 0 2.079-.828 2.079-1.89 0-.36-.11-.813-.5-1.235-.188-.203-.344-.297-.985-.703Zm-1 .421 1.235.782c.28.187.75.484.75 1.094 0 .734-.75 1.25-1.563 1.25C1.64-.063.922-.672.922-1.5c0-.578.312-1.219 1.156-1.688Zm0 0"/></symbol><symbol overflow="visible" id="g"><path style="stroke:none" d="M2.938-6.375c0-.25 0-.266-.235-.266C2.078-6 1.203-6 .891-6v.313c.203 0 .78 0 1.296-.266v5.172c0 .36-.03.469-.921.469H.953V0c.344-.031 1.203-.031 1.61-.031.39 0 1.265 0 1.609.031v-.313h-.313c-.906 0-.921-.109-.921-.468Zm0 0"/></symbol><symbol overflow="visible" id="l"><path style="stroke:none" d="m1.766-6.922-1.438.11v.312c.703 0 .781.063.781.563V-.75c0 .438-.109.438-.78.438V0c.327-.016.859-.031 1.109-.031s.734.015 1.109.031v-.313c-.672 0-.781 0-.781-.437Zm0 0"/></symbol><symbol overflow="visible" id="m"><path style="stroke:none" d="M1.094-3.422V-.75c0 .438-.11.438-.782.438V0c.36-.016.86-.031 1.141-.031.25 0 .766.015 1.11.031v-.313c-.672 0-.782 0-.782-.437v-1.844c0-1.031.719-1.594 1.344-1.594.64 0 .75.532.75 1.11V-.75c0 .438-.11.438-.781.438V0c.344-.016.86-.031 1.125-.031.25 0 .781.015 1.11.031v-.313c-.516 0-.766 0-.766-.296v-1.907c0-.859 0-1.156-.313-1.515-.14-.172-.469-.375-1.047-.375-.734 0-1.203.422-1.484 1.047v-1.047l-1.407.11v.312c.704 0 .782.062.782.562Zm0 0"/></symbol><symbol overflow="visible" id="n"><path style="stroke:none" d="M3.297 2.39c0-.03 0-.046-.172-.218C1.891.922 1.562-.968 1.562-2.5c0-1.734.375-3.469 1.61-4.703.125-.125.125-.14.125-.172 0-.078-.031-.11-.094-.11-.11 0-1 .688-1.594 1.954C1.11-4.438.984-3.328.984-2.5c0 .781.11 1.984.657 3.125C2.25 1.844 3.094 2.5 3.203 2.5c.063 0 .094-.031.094-.11Zm0 0"/></symbol><symbol overflow="visible" id="o"><path style="stroke:none" d="M2.875-2.5c0-.766-.11-1.969-.656-3.11C1.625-6.827.766-7.483.672-7.483a.107.107 0 0 0-.11.109c0 .031 0 .047.188.234.984.985 1.547 2.563 1.547 4.641C2.297-.78 1.937.97.703 2.22c-.14.125-.14.14-.14.172 0 .062.046.109.109.109.094 0 1-.688 1.578-1.953.516-1.094.625-2.203.625-3.047Zm0 0"/></symbol><symbol overflow="visible" id="b"><path style="stroke:none" d="M1.906-.531a.534.534 0 0 0-.515-.531.537.537 0 0 0-.532.53.524.524 0 1 0 1.047 0Zm0 0"/></symbol><symbol overflow="visible" id="j"><path style="stroke:none" d="M3.328-3.016c.063-.25.297-1.171.985-1.171.046 0 .296 0 .5.125a.578.578 0 0 0-.47.546c0 .157.11.344.376.344a.546.546 0 0 0 .531-.578c0-.516-.578-.656-.922-.656-.578 0-.922.531-1.047.75-.25-.656-.781-.75-1.078-.75-1.031 0-1.61 1.281-1.61 1.531 0 .11.11.11.126.11.078 0 .11-.032.125-.11.344-1.063 1-1.313 1.344-1.313.187 0 .53.094.53.672 0 .313-.171.97-.53 2.375-.157.61-.516 1.032-.954 1.032-.062 0-.28 0-.5-.125.25-.063.47-.266.47-.547 0-.266-.22-.344-.36-.344-.313 0-.547.25-.547.578 0 .453.484.656.922.656.672 0 1.031-.703 1.047-.75.125.36.484.75 1.078.75 1.031 0 1.594-1.28 1.594-1.53 0-.11-.079-.11-.11-.11-.094 0-.11.047-.14.11-.329 1.077-1 1.312-1.313 1.312-.39 0-.547-.313-.547-.657 0-.218.047-.437.156-.875Zm0 0"/></symbol><symbol overflow="visible" id="k"><path style="stroke:none" d="M6.563-2.297c.171 0 .359 0 .359-.203 0-.188-.188-.188-.36-.188h-5.39c-.172 0-.344 0-.344.188 0 .203.172.203.344.203Zm0 0"/></symbol><clipPath id="h"><path d="M21.895 6.531h194.28V167.93H21.896Zm0 0"/></clipPath><clipPath id="i"><path d="M21.895 97h194.28v70.93H21.896Zm0 0"/></clipPath></defs><path style="fill:none;stroke-width:.79701;stroke-linecap:butt;stroke-linejoin:miter;stroke:#000;stroke-opacity:1;stroke-miterlimit:10" d="M-.001-2.127v4.254m38.859-4.254v4.254m38.855-4.254v4.254m38.856-4.254v4.254m38.855-4.254v4.254m38.856-4.254v4.254M-2.126-.002h4.253M-2.126 32.28h4.253m-4.253 32.28h4.253m-4.253 32.278h4.253m-4.253 32.281h4.253m-4.253 32.282h4.253M-.001-.002h191.69" transform="matrix(1 0 0 -1 21.896 167.928)"/><path style="stroke:none;fill-rule:nonzero;fill:#000;fill-opacity:1" d="m216.176 167.93-4.145-2.075 1.555 2.075-1.555 2.07"/><path style="fill:none;stroke-width:.79701;stroke-linecap:butt;stroke-linejoin:miter;stroke:#000;stroke-opacity:1;stroke-miterlimit:10" d="M-.001-.002v158.809" transform="matrix(1 0 0 -1 21.896 167.928)"/><path style="stroke:none;fill-rule:nonzero;fill:#000;fill-opacity:1" d="m21.895 6.531-2.07 4.145 2.07-1.555 2.074 1.555"/><use xlink:href="#a" x="19.405" y="180.193" style="fill:#000;fill-opacity:1"/><use xlink:href="#a" x="54.386" y="180.193" style="fill:#000;fill-opacity:1"/><use xlink:href="#b" x="59.368" y="180.193" style="fill:#000;fill-opacity:1"/><use xlink:href="#c" x="62.135" y="180.193" style="fill:#000;fill-opacity:1"/><use xlink:href="#a" x="93.242" y="180.193" style="fill:#000;fill-opacity:1"/><use xlink:href="#b" x="98.223" y="180.193" style="fill:#000;fill-opacity:1"/><use xlink:href="#d" x="100.991" y="180.193" style="fill:#000;fill-opacity:1"/><use xlink:href="#a" x="132.098" y="180.193" style="fill:#000;fill-opacity:1"/><use xlink:href="#b" x="137.079" y="180.193" style="fill:#000;fill-opacity:1"/><use xlink:href="#e" x="139.847" y="180.193" style="fill:#000;fill-opacity:1"/><use xlink:href="#a" x="170.954" y="180.193" style="fill:#000;fill-opacity:1"/><use xlink:href="#b" x="175.935" y="180.193" style="fill:#000;fill-opacity:1"/><use xlink:href="#f" x="178.702" y="180.193" style="fill:#000;fill-opacity:1"/><use xlink:href="#g" x="213.684" y="180.193" style="fill:#000;fill-opacity:1"/><use xlink:href="#a" x="11.069" y="171.138" style="fill:#000;fill-opacity:1"/><use xlink:href="#a" x="3.321" y="138.859" style="fill:#000;fill-opacity:1"/><use xlink:href="#b" x="8.302" y="138.859" style="fill:#000;fill-opacity:1"/><use xlink:href="#c" x="11.069" y="138.859" style="fill:#000;fill-opacity:1"/><use xlink:href="#a" x="3.321" y="106.579" style="fill:#000;fill-opacity:1"/><use xlink:href="#b" x="8.302" y="106.579" style="fill:#000;fill-opacity:1"/><use xlink:href="#d" x="11.069" y="106.579" style="fill:#000;fill-opacity:1"/><use xlink:href="#a" x="3.321" y="74.3" style="fill:#000;fill-opacity:1"/><use xlink:href="#b" x="8.302" y="74.3" style="fill:#000;fill-opacity:1"/><use xlink:href="#e" x="11.069" y="74.3" style="fill:#000;fill-opacity:1"/><use xlink:href="#a" x="3.321" y="42.02" style="fill:#000;fill-opacity:1"/><use xlink:href="#b" x="8.302" y="42.02" style="fill:#000;fill-opacity:1"/><use xlink:href="#f" x="11.069" y="42.02" style="fill:#000;fill-opacity:1"/><use xlink:href="#g" x="11.069" y="9.741" style="fill:#000;fill-opacity:1"/><g clip-path="url(#h)"><path style="fill:none;stroke-width:.79701;stroke-linecap:butt;stroke-linejoin:miter;stroke:#00f;stroke-opacity:1;stroke-miterlimit:10" d="m-.001-.002 8.097 6.727 8.094 6.726a15991.3 15991.3 0 0 1 8.094 6.723l8.097 6.727c2.246 1.863 5.848 4.859 8.094 6.722l8.094 6.727a9931.22 9931.22 0 0 0 8.094 6.723c2.25 1.867 5.851 4.859 8.097 6.726l8.094 6.727c2.246 1.863 5.848 4.855 8.094 6.722l8.097 6.727c2.246 1.863 5.848 4.86 8.094 6.723l8.094 6.726a9935.87 9935.87 0 0 0 8.098 6.723l8.093 6.726 8.094 6.727c2.246 1.863 5.848 4.855 8.098 6.723l8.093 6.726a9931.22 9931.22 0 0 1 8.094 6.723l8.094 6.726c2.246 1.864 5.852 4.86 8.098 6.723l8.093 6.727c2.246 1.867 5.848 4.859 8.094 6.722l8.098 6.727" transform="matrix(1 0 0 -1 21.896 167.928)"/></g><g clip-path="url(#i)"><path style="fill:none;stroke-width:.79701;stroke-linecap:butt;stroke-linejoin:miter;stroke:red;stroke-opacity:1;stroke-miterlimit:10" d="M-.001-.002S5.85 16.737 8.096 21.373c2.246 4.637 5.848 9.192 8.094 12.047 2.246 2.856 5.848 6.48 8.094 8.531 2.246 2.051 5.851 4.75 8.097 6.247 2.246 1.5 5.848 3.472 8.094 4.546 2.246 1.075 5.848 2.461 8.094 3.192 2.246.73 5.847 1.629 8.094 2.07 2.25.438 5.851.91 8.097 1.102 2.246.187 5.848.297 8.094.265 2.246-.03 5.848-.265 8.094-.496 2.246-.23 5.851-.754 8.097-1.164 2.246-.406 5.848-1.203 8.094-1.773 2.246-.57 5.848-1.617 8.094-2.336a185.242 185.242 0 0 0 8.098-2.852 214.18 214.18 0 0 0 8.093-3.336 250.57 250.57 0 0 0 8.094-3.781 281.173 281.173 0 0 0 8.098-4.207 303.147 303.147 0 0 0 8.093-4.586 347.827 347.827 0 0 0 8.094-4.976 417.65 417.65 0 0 0 8.094-5.336 442.154 442.154 0 0 0 8.098-5.665 489.11 489.11 0 0 0 8.093-5.988c2.246-1.703 5.848-4.5 8.094-6.285 2.246-1.785 8.098-6.586 8.098-6.586" transform="matrix(1 0 0 -1 21.896 167.928)"/></g><use xlink:href="#j" x="116.187" y="191.522" style="fill:#000;fill-opacity:1"/><path style="fill-rule:nonzero;fill:#fff;fill-opacity:1;stroke-width:.79701;stroke-linecap:butt;stroke-linejoin:miter;stroke:#000;stroke-opacity:1;stroke-miterlimit:10" d="M6.225 129.451h66.277v26.707H6.225Zm0 0" transform="matrix(1 0 0 -1 21.896 167.928)"/><path style="fill:none;stroke-width:.79701;stroke-linecap:butt;stroke-linejoin:miter;stroke:#00f;stroke-opacity:1;stroke-miterlimit:10" d="M-.001.002h17.008" transform="matrix(1 0 0 -1 31.509 18.65)"/><use xlink:href="#j" x="50.909" y="20.048" style="fill:#000;fill-opacity:1"/><path style="fill:none;stroke-width:.79701;stroke-linecap:butt;stroke-linejoin:miter;stroke:red;stroke-opacity:1;stroke-miterlimit:10" d="M.002 0H17.01" transform="matrix(1 0 0 -1 31.51 30.011)"/><use xlink:href="#k" x="50.909" y="32.999" style="fill:#000;fill-opacity:1"/><use xlink:href="#j" x="58.657" y="32.999" style="fill:#000;fill-opacity:1"/><g style="fill:#000;fill-opacity:1"><use xlink:href="#l" x="67.672" y="32.999"/><use xlink:href="#m" x="70.44" y="32.999"/><use xlink:href="#n" x="75.975" y="32.999"/></g><use xlink:href="#j" x="79.849" y="32.999" style="fill:#000;fill-opacity:1"/><use xlink:href="#o" x="85.543" y="32.999" style="fill:#000;fill-opacity:1"/></svg>