<svg height="259.791" viewBox="0 0 221.986 194.843" width="295.981" xmlns="http://www.w3.org/2000/svg" xmlns:xlink="http://www.w3.org/1999/xlink"><symbol id="a" overflow="visible"><path d="m4.578-3.188c0-.796-.047-1.593-.39-2.328-.455-.968-1.283-1.124-1.688-1.124-.61 0-1.328.266-1.75 1.188-.313.687-.36 1.469-.36 2.266 0 .75.032 1.64.454 2.406a1.83 1.83 0 0 0 1.64 1c.532 0 1.297-.203 1.735-1.157.312-.687.36-1.468.36-2.25zm-2.094 3.188c-.39 0-.984-.25-1.156-1.203-.11-.594-.11-1.516-.11-2.11 0-.64 0-1.296.079-1.828.187-1.187.937-1.28 1.187-1.28.329 0 .985.187 1.172 1.171.11.563.11 1.313.11 1.938 0 .75 0 1.421-.11 2.062-.156.953-.719 1.25-1.172 1.25zm0 0"/></symbol><symbol id="b" overflow="visible"><path d="m1.266-.766 1.062-1.03c1.547-1.376 2.14-1.907 2.14-2.907 0-1.14-.89-1.938-2.109-1.938a1.843 1.843 0 0 0 -1.859 1.813c0 .547.5.547.531.547.172 0 .516-.11.516-.532a.513.513 0 0 0 -.531-.515c-.079 0-.094 0-.125.016.218-.657.765-1.016 1.343-1.016.907 0 1.329.812 1.329 1.625 0 .797-.485 1.578-1.047 2.203l-1.907 2.125c-.109.11-.109.14-.109.375h3.703l.266-1.734h-.235c-.062.296-.124.734-.234.89-.063.078-.719.078-.938.078zm0 0"/></symbol><symbol id="c" overflow="visible"><path d="m2.938-1.64v.859c0 .36-.032.469-.766.469h-.203v.312c.406-.031.922-.031 1.343-.031.422 0 .938 0 1.36.031v-.313h-.219c-.734 0-.75-.109-.75-.468v-.86h.985v-.312h-.985v-4.531c0-.204 0-.266-.172-.266-.078 0-.11 0-.187.125l-3.064 4.672v.312zm.046-.313h-2.421l2.421-3.719zm0 0"/></symbol><symbol id="d" overflow="visible"><path d="m1.313-3.266v-.25c0-2.515 1.234-2.875 1.75-2.875.234 0 .656.063.874.407-.156 0-.546 0-.546.437 0 .313.234.469.453.469.156 0 .469-.094.469-.484 0-.594-.438-1.079-1.266-1.079-1.281.001-2.625 1.282-2.625 3.485 0 2.672 1.156 3.375 2.078 3.375 1.11 0 2.063-.938 2.063-2.25 0-1.266-.891-2.219-2-2.219-.672 0-1.047.5-1.25.984zm1.187 3.204c-.625 0-.922-.594-.984-.75-.188-.47-.188-1.266-.188-1.438 0-.781.328-1.781 1.219-1.781.172 0 .625 0 .937.625.172.36.172.875.172 1.36 0 .483 0 .983-.172 1.343-.296.594-.75.64-.984.64zm0 0"/></symbol><symbol id="e" overflow="visible"><path d="m1.625-4.563c-.453-.296-.5-.625-.5-.796 0-.61.656-1.032 1.36-1.032.718 0 1.359.516 1.359 1.235 0 .578-.39 1.047-.985 1.39zm1.453.954c.719-.375 1.203-.891 1.203-1.547 0-.922-.875-1.485-1.781-1.485-1 0-1.813.735-1.813 1.672 0 .172.016.625.438 1.094.11.11.484.36.734.531-.578.297-1.437.844-1.437 1.844 0 1.047 1.016 1.719 2.062 1.719 1.125 0 2.079-.828 2.079-1.89 0-.36-.11-.813-.5-1.235-.188-.203-.344-.297-.985-.703zm-1 .421 1.235.782c.28.187.75.484.75 1.094 0 .734-.75 1.25-1.563 1.25-.86-.001-1.578-.61-1.578-1.438 0-.578.312-1.219 1.156-1.688zm0 0"/></symbol><symbol id="f" overflow="visible"><path d="m2.938-6.375c0-.25 0-.266-.235-.266-.625.641-1.5.641-1.812.641v.313c.203 0 .78 0 1.296-.266v5.172c0 .36-.03.469-.921.469h-.313v.312c.344-.031 1.203-.031 1.61-.031.39 0 1.265 0 1.609.031v-.313h-.313c-.906 0-.921-.109-.921-.468zm0 0"/></symbol><symbol id="g" overflow="visible"><path d="m1.766-6.922-1.438.11v.312c.703 0 .781.063.781.563v5.187c0 .438-.109.438-.78.438v.312c.327-.016.859-.031 1.109-.031s.734.015 1.109.031v-.313c-.672 0-.781 0-.781-.437zm0 0"/></symbol><symbol id="h" overflow="visible"><path d="m1.094-3.422v2.672c0 .438-.11.438-.782.438v.312c.36-.016.86-.031 1.141-.031.25 0 .766.015 1.11.031v-.313c-.672 0-.782 0-.782-.437v-1.844c0-1.031.719-1.594 1.344-1.594.64 0 .75.532.75 1.11v2.328c0 .438-.11.438-.781.438v.312c.344-.016.86-.031 1.125-.031.25 0 .781.015 1.11.031v-.313c-.516 0-.766 0-.766-.296v-1.907c0-.859 0-1.156-.313-1.515-.14-.172-.469-.375-1.047-.375-.734 0-1.203.422-1.484 1.047v-1.047l-1.407.11v.312c.704 0 .782.062.782.562zm0 0"/></symbol><symbol id="i" overflow="visible"><path d="m3.297 2.39c0-.03 0-.046-.172-.218-1.234-1.25-1.563-3.14-1.563-4.672 0-1.734.375-3.469 1.61-4.703.125-.125.125-.14.125-.172 0-.078-.031-.11-.094-.11-.11 0-1 .688-1.594 1.954-.499 1.093-.625 2.203-.625 3.031 0 .781.11 1.984.657 3.125.609 1.219 1.453 1.875 1.562 1.875.063 0 .094-.031.094-.11zm0 0"/></symbol><symbol id="j" overflow="visible"><path d="m2.875-2.5c0-.766-.11-1.969-.656-3.11-.594-1.217-1.453-1.873-1.547-1.873a.107.107 0 0 0 -.11.109c0 .031 0 .047.188.234.984.985 1.547 2.563 1.547 4.641 0 1.719-.36 3.469-1.594 4.719-.14.125-.14.14-.14.172 0 .062.046.109.109.109.094 0 1-.688 1.578-1.953.516-1.094.625-2.203.625-3.047zm0 0"/></symbol><symbol id="k" overflow="visible"><path d="m1.906-.531a.534.534 0 0 0 -.515-.531.537.537 0 0 0 -.532.53.524.524 0 1 0 1.047 0zm0 0"/></symbol><symbol id="l" overflow="visible"><path d="m3.328-3.016c.063-.25.297-1.171.985-1.171.046 0 .296 0 .5.125a.578.578 0 0 0 -.47.546c0 .157.11.344.376.344a.546.546 0 0 0 .531-.578c0-.516-.578-.656-.922-.656-.578 0-.922.531-1.047.75-.25-.656-.781-.75-1.078-.75-1.031 0-1.61 1.281-1.61 1.531 0 .11.11.11.126.11.078 0 .11-.032.125-.11.344-1.063 1-1.313 1.344-1.313.187 0 .53.094.53.672 0 .313-.171.97-.53 2.375-.157.61-.516 1.032-.954 1.032-.062 0-.28 0-.5-.125.25-.063.47-.266.47-.547 0-.266-.22-.344-.36-.344-.313 0-.547.25-.547.578 0 .453.484.656.922.656.672 0 1.031-.703 1.047-.75.125.36.484.75 1.078.75 1.031 0 1.594-1.28 1.594-1.53 0-.11-.079-.11-.11-.11-.094 0-.11.047-.14.11-.329 1.077-1 1.312-1.313 1.312-.39 0-.547-.313-.547-.657 0-.218.047-.437.156-.875zm0 0"/></symbol><symbol id="m" overflow="visible"><path d="m6.563-2.297c.171 0 .359 0 .359-.203 0-.188-.188-.188-.36-.188h-5.39c-.172 0-.344 0-.344.188 0 .203.172.203.344.203zm0 0"/></symbol><clipPath id="n"><path d="m21.895 6.531h194.28v161.399h-194.279zm0 0"/></clipPath><clipPath id="o"><path d="m21.895 97h194.28v70.93h-194.279zm0 0"/></clipPath><path d="m-.001-2.127v4.254m38.859-4.254v4.254m38.855-4.254v4.254m38.856-4.254v4.254m38.855-4.254v4.254m38.856-4.254v4.254m-196.406-2.129h4.253m-4.253 32.282h4.253m-4.253 32.28h4.253m-4.253 32.278h4.253m-4.253 32.281h4.253m-4.253 32.282h4.253m-2.128-161.403h191.69" fill="none" stroke="#000" stroke-miterlimit="10" stroke-width=".79701" transform="matrix(1 0 0 -1 21.896 167.928)"/><path d="m216.176 167.93-4.145-2.075 1.555 2.075-1.555 2.07"/><path d="m-.001-.002v158.809" fill="none" stroke="#000" stroke-miterlimit="10" stroke-width=".79701" transform="matrix(1 0 0 -1 21.896 167.928)"/><path d="m21.895 6.531-2.07 4.145 2.07-1.555 2.074 1.555"/><use x="19.405" xlink:href="#a" y="180.193"/><use x="54.386" xlink:href="#a" y="180.193"/><use x="59.368" xlink:href="#k" y="180.193"/><use x="62.135" xlink:href="#b" y="180.193"/><use x="93.242" xlink:href="#a" y="180.193"/><use x="98.223" xlink:href="#k" y="180.193"/><use x="100.991" xlink:href="#c" y="180.193"/><use x="132.098" xlink:href="#a" y="180.193"/><use x="137.079" xlink:href="#k" y="180.193"/><use x="139.847" xlink:href="#d" y="180.193"/><use x="170.954" xlink:href="#a" y="180.193"/><use x="175.935" xlink:href="#k" y="180.193"/><use x="178.702" xlink:href="#e" y="180.193"/><use x="213.684" xlink:href="#f" y="180.193"/><use x="11.069" xlink:href="#a" y="171.138"/><use x="3.321" xlink:href="#a" y="138.859"/><use x="8.302" xlink:href="#k" y="138.859"/><use x="11.069" xlink:href="#b" y="138.859"/><use x="3.321" xlink:href="#a" y="106.579"/><use x="8.302" xlink:href="#k" y="106.579"/><use x="11.069" xlink:href="#c" y="106.579"/><use x="3.321" xlink:href="#a" y="74.3"/><use x="8.302" xlink:href="#k" y="74.3"/><use x="11.069" xlink:href="#d" y="74.3"/><use x="3.321" xlink:href="#a" y="42.02"/><use x="8.302" xlink:href="#k" y="42.02"/><use x="11.069" xlink:href="#e" y="42.02"/><use x="11.069" xlink:href="#f" y="9.741"/><g clip-path="url(#n)"><path d="m-.001-.002 8.097 6.727 8.094 6.726a15991.3 15991.3 0 0 1 8.094 6.723l8.097 6.727c2.246 1.863 5.848 4.859 8.094 6.722l8.094 6.727a9931.22 9931.22 0 0 0 8.094 6.723c2.25 1.867 5.851 4.859 8.097 6.726l8.094 6.727c2.246 1.863 5.848 4.855 8.094 6.722l8.097 6.727c2.246 1.863 5.848 4.86 8.094 6.723l8.094 6.726a9935.87 9935.87 0 0 0 8.098 6.723l8.093 6.726 8.094 6.727c2.246 1.863 5.848 4.855 8.098 6.723l8.093 6.726a9931.22 9931.22 0 0 1 8.094 6.723l8.094 6.726c2.246 1.864 5.852 4.86 8.098 6.723l8.093 6.727c2.246 1.867 5.848 4.859 8.094 6.722l8.098 6.727" fill="none" stroke="#00f" stroke-miterlimit="10" stroke-width=".79701" transform="matrix(1 0 0 -1 21.896 167.928)"/></g><g clip-path="url(#o)"><path d="m-.001-.002s5.851 16.739 8.097 21.375c2.246 4.637 5.848 9.192 8.094 12.047 2.246 2.856 5.848 6.48 8.094 8.531s5.851 4.75 8.097 6.247c2.246 1.5 5.848 3.472 8.094 4.546 2.246 1.075 5.848 2.461 8.094 3.192 2.246.73 5.847 1.629 8.094 2.07 2.25.438 5.851.91 8.097 1.102 2.246.187 5.848.297 8.094.265 2.246-.03 5.848-.265 8.094-.496 2.246-.23 5.851-.754 8.097-1.164 2.246-.406 5.848-1.203 8.094-1.773s5.848-1.617 8.094-2.336a185.242 185.242 0 0 0 8.098-2.852 214.18 214.18 0 0 0 8.093-3.336 250.57 250.57 0 0 0 8.094-3.781 281.173 281.173 0 0 0 8.098-4.207 303.147 303.147 0 0 0 8.093-4.586 347.827 347.827 0 0 0 8.094-4.976 417.65 417.65 0 0 0 8.094-5.336 442.154 442.154 0 0 0 8.098-5.665 489.11 489.11 0 0 0 8.093-5.988c2.246-1.703 5.848-4.5 8.094-6.285s8.098-6.586 8.098-6.586" fill="none" stroke="#f00" stroke-miterlimit="10" stroke-width=".79701" transform="matrix(1 0 0 -1 21.896 167.928)"/></g><use x="116.187" xlink:href="#l" y="191.522"/><path d="m6.225 129.451h66.277v26.707h-66.277zm0 0" fill="#fff" stroke="#000" stroke-miterlimit="10" stroke-width=".79701" transform="matrix(1 0 0 -1 21.896 167.928)"/><path d="m-.001.002h17.008" fill="none" stroke="#00f" stroke-miterlimit="10" stroke-width=".79701" transform="matrix(1 0 0 -1 31.509 18.65)"/><use x="50.909" xlink:href="#l" y="20.048"/><path d="m.002 0h17.008" fill="none" stroke="#f00" stroke-miterlimit="10" stroke-width=".79701" transform="matrix(1 0 0 -1 31.51 30.011)"/><use x="50.909" xlink:href="#m" y="32.999"/><use x="58.657" xlink:href="#l" y="32.999"/><g><use x="67.672" xlink:href="#g" y="32.999"/><use x="70.44" xlink:href="#h" y="32.999"/><use x="75.975" xlink:href="#i" y="32.999"/></g><use x="79.849" xlink:href="#l" y="32.999"/><use x="85.543" xlink:href="#j" y="32.999"/></svg>