<svg height="236.505" viewBox="0 0 216.564 177.379" width="288.752" xmlns="http://www.w3.org/2000/svg" xmlns:xlink="http://www.w3.org/1999/xlink"><symbol id="a" overflow="visible"><path d="m1.266-.766 1.062-1.03c1.547-1.376 2.14-1.907 2.14-2.907 0-1.14-.89-1.938-2.109-1.938a1.843 1.843 0 0 0 -1.859 1.813c0 .547.5.547.531.547.172 0 .516-.11.516-.532a.513.513 0 0 0 -.531-.515c-.079 0-.094 0-.125.016.218-.657.765-1.016 1.343-1.016.907 0 1.329.812 1.329 1.625 0 .797-.485 1.578-1.047 2.203l-1.907 2.125c-.109.11-.109.14-.109.375h3.703l.266-1.734h-.235c-.062.296-.124.734-.234.89-.063.078-.719.078-.938.078zm0 0"/></symbol><symbol id="b" overflow="visible"><path d="m2.938-1.64v.859c0 .36-.032.469-.766.469h-.203v.312c.406-.031.922-.031 1.343-.031.422 0 .938 0 1.36.031v-.313h-.219c-.734 0-.75-.109-.75-.468v-.86h.985v-.312h-.985v-4.531c0-.204 0-.266-.172-.266-.078 0-.11 0-.187.125l-3.064 4.672v.312zm.046-.313h-2.421l2.421-3.719zm0 0"/></symbol><symbol id="c" overflow="visible"><path d="m1.313-3.266v-.25c0-2.515 1.234-2.875 1.75-2.875.234 0 .656.063.874.407-.156 0-.546 0-.546.437 0 .313.234.469.453.469.156 0 .469-.094.469-.484 0-.594-.438-1.079-1.266-1.079-1.281.001-2.625 1.282-2.625 3.485 0 2.672 1.156 3.375 2.078 3.375 1.11 0 2.063-.938 2.063-2.25 0-1.266-.891-2.219-2-2.219-.672 0-1.047.5-1.25.984zm1.187 3.204c-.625 0-.922-.594-.984-.75-.188-.47-.188-1.266-.188-1.438 0-.781.328-1.781 1.219-1.781.172 0 .625 0 .937.625.172.36.172.875.172 1.36 0 .483 0 .983-.172 1.343-.296.594-.75.64-.984.64zm0 0"/></symbol><symbol id="d" overflow="visible"><path d="m1.625-4.563c-.453-.296-.5-.625-.5-.796 0-.61.656-1.032 1.36-1.032.718 0 1.359.516 1.359 1.235 0 .578-.39 1.047-.985 1.39zm1.453.954c.719-.375 1.203-.891 1.203-1.547 0-.922-.875-1.485-1.781-1.485-1 0-1.813.735-1.813 1.672 0 .172.016.625.438 1.094.11.11.484.36.734.531-.578.297-1.437.844-1.437 1.844 0 1.047 1.016 1.719 2.062 1.719 1.125 0 2.079-.828 2.079-1.89 0-.36-.11-.813-.5-1.235-.188-.203-.344-.297-.985-.703zm-1 .421 1.235.782c.28.187.75.484.75 1.094 0 .734-.75 1.25-1.563 1.25-.86-.001-1.578-.61-1.578-1.438 0-.578.312-1.219 1.156-1.688zm0 0"/></symbol><symbol id="e" overflow="visible"><path d="m2.938-6.375c0-.25 0-.266-.235-.266-.625.641-1.5.641-1.812.641v.313c.203 0 .78 0 1.296-.266v5.172c0 .36-.03.469-.921.469h-.313v.312c.344-.031 1.203-.031 1.61-.031.39 0 1.265 0 1.609.031v-.313h-.313c-.906 0-.921-.109-.921-.468zm0 0"/></symbol><symbol id="f" overflow="visible"><path d="m4.578-3.188c0-.796-.047-1.593-.39-2.328-.455-.968-1.283-1.124-1.688-1.124-.61 0-1.328.266-1.75 1.188-.313.687-.36 1.469-.36 2.266 0 .75.032 1.64.454 2.406a1.83 1.83 0 0 0 1.64 1c.532 0 1.297-.203 1.735-1.157.312-.687.36-1.468.36-2.25zm-2.094 3.188c-.39 0-.984-.25-1.156-1.203-.11-.594-.11-1.516-.11-2.11 0-.64 0-1.296.079-1.828.187-1.187.937-1.28 1.187-1.28.329 0 .985.187 1.172 1.171.11.563.11 1.313.11 1.938 0 .75 0 1.421-.11 2.062-.156.953-.719 1.25-1.172 1.25zm0 0"/></symbol><symbol id="g" overflow="visible"><path d="m4.469-2c0-1.188-.813-2.188-1.89-2.188-.47 0-.907.157-1.267.516v-1.953c.204.063.532.125.844.125 1.235 0 1.938-.906 1.938-1.031 0-.063-.032-.11-.11-.11 0 0-.03 0-.078.032a3.22 3.22 0 0 1 -1.36.296 3.4 3.4 0 0 1 -1.327-.28c-.078-.032-.094-.032-.11-.032-.109 0-.109.078-.109.234v2.954c0 .171 0 .25.14.25.079 0 .094-.016.141-.079.11-.156.469-.703 1.282-.703.515 0 .765.453.843.64.156.376.188.75.188 1.25 0 .36 0 .954-.25 1.376-.235.39-.61.64-1.063.64-.719 0-1.297-.53-1.469-1.109.032 0 .063.016.172.016.329 0 .5-.25.5-.485 0-.25-.171-.5-.5-.5-.14 0-.484.079-.484.532 0 .859.688 1.828 1.797 1.828 1.156 0 2.172-.953 2.172-2.219zm0 0"/></symbol><symbol id="h" overflow="visible"><path d="m4.281-5.578v-.297h-3.593v.297zm0 0"/></symbol><symbol id="i" overflow="visible"><path d="m1.906-.531a.534.534 0 0 0 -.515-.531.537.537 0 0 0 -.532.53.524.524 0 1 0 1.047 0zm0 0"/></symbol><symbol id="j" overflow="visible"><path d="m5.734-5.672c0-.75-.546-1.36-1.359-1.36-.578 0-.86.157-1.203.407-.547.406-1.094 1.375-1.282 2.125l-1.593 6.328c0 .047.047.11.125.11s.11-.032.11-.047l.702-2.766c.188.61.625.969 1.36.969.719 0 1.469-.344 1.922-.781a2.486 2.486 0 0 0 .796-1.829c0-.718-.375-1.25-.734-1.484.578-.344 1.156-.953 1.156-1.672zm-1.796 1.656c-.126.047-.235.063-.485.063-.14 0-.328.015-.437-.031.03-.11.39-.079.5-.079.203 0 .296 0 .421.047zm1.234-1.89c0 .703-.375 1.422-.89 1.734-.282-.11-.47-.125-.766-.125-.22 0-.782-.016-.782.313 0 .28.516.25.688.25.375 0 .531 0 .828-.125.375.359.422.671.438 1.125.015.578-.22 1.328-.5 1.718-.391.532-1.063.891-1.625.891-.766 0-1.141-.578-1.141-1.281 0-.094 0-.25.047-.438l.64-2.515c.22-.86.938-2.454 2.141-2.454.578 0 .922.313.922.907zm0 0"/></symbol><symbol id="k" overflow="visible"><path d="m7.063-2.328c.015-.047.046-.11.046-.14 0 0 0-.11-.125-.11-.093 0-.109.062-.125.125-.656 1.469-1.015 2.14-2.718 2.14h-1.672c-.11-.015-.14-.03-.14-.109 0-.031 0-.047.046-.219l.688-2.734h.984c.844 0 .844.219.844.469 0 .062 0 .187-.063.484-.016.047-.031.078-.031.11 0 .046.031.109.125.109.078 0 .11-.047.156-.203l.563-2.328c0-.063-.047-.11-.125-.11-.079 0-.11.063-.125.172-.22.766-.391 1-1.313 1h-.937l.593-2.406c.094-.36.11-.39.547-.39h1.407c1.203 0 1.515.28 1.515 1.109 0 .234 0 .25-.047.53 0 .048-.015.126-.015.173s.03.125.125.125c.109 0 .125-.063.14-.25l.203-1.735c.032-.265-.015-.265-.265-.265h-5.047c-.188 0-.297 0-.297.203 0 .11.094.11.281.11.375 0 .656 0 .656.171 0 .047 0 .063-.062.25l-1.313 5.267c-.093.39-.109.469-.906.469-.172 0-.281 0-.281.187 0 .124.094.124.281.124h5.172c.234 0 .25-.016.313-.172zm0 0"/></symbol><symbol id="l" overflow="visible"><path d="m4.375-7.094c.047-.14.047-.172.047-.187 0-.11-.078-.203-.188-.203-.078 0-.14.03-.171.093l-3.47 9.5c-.046.141-.046.172-.046.188 0 .11.094.203.203.203.125 0 .156-.078.219-.25zm0 0"/></symbol><symbol id="m" overflow="visible"><path d="m2.86-6.813s0-.109-.126-.109c-.234 0-.953.078-1.218.11-.079 0-.188.015-.188.187 0 .125.094.125.234.125.485 0 .5.063.5.172l-.03.203-1.439 5.734c-.046.141-.046.157-.046.221 0 .234.203.28.297.28a.407.407 0 0 0 .36-.265l.187-.75.218-.89c.063-.235.125-.454.172-.673.016-.062.11-.39.11-.453.03-.094.343-.64.687-.922.219-.156.516-.344.953-.344.422 0 .531.344.531.704 0 .53-.375 1.625-.609 2.234-.078.219-.14.344-.14.547 0 .469.359.812.828.812.937 0 1.296-1.453 1.296-1.53 0-.11-.078-.11-.109-.11-.11 0-.11.031-.156.187-.14.532-.469 1.235-1.016 1.235-.172 0-.234-.094-.234-.329 0-.25.078-.484.172-.703.156-.437.61-1.625.61-2.203 0-.64-.391-1.062-1.141-1.062-.626 0-1.11.312-1.485.765zm0 0"/></symbol><symbol id="n" overflow="visible"><path d="m6.031-3.703c0-.453-.172-.703-.406-.703-.25 0-.516.234-.516.468 0 .094.047.204.141.297a1.1 1.1 0 0 1 .36.844c0 .39-.204.969-.5 1.422-.298.422-.673.766-1.141.766-.563 0-.875-.36-.969-.891.11-.266.344-.906.344-1.188 0-.109-.047-.218-.188-.218-.078 0-.187.031-.265.172-.11.203-.235.843-.235 1.203-.328.468-.719.922-1.344.922-.671 0-.875-.594-.875-1.141 0-1.25 1.016-2.297 1.016-2.422a.18.18 0 0 0 -.187-.187c-.125 0-.204.125-.266.218-.5.735-.875 1.922-.875 2.829 0 .687.219 1.421 1.047 1.421.703 0 1.172-.5 1.531-1.046.094.578.485 1.046 1.094 1.046.781 0 1.25-.609 1.61-1.359.25-.484.624-1.844.624-2.453zm0 0"/></symbol><symbol id="o" overflow="visible"><path d="m3.266-7.094c.046-.11.046-.14.046-.187 0-.11-.078-.203-.187-.203-.094 0-.172.062-.234.234l-1.751 4.578c-.016.063-.047.125-.047.172 0 .031 0 .063.047.172l1.75 4.578c.046.11.093.25.234.25.11 0 .188-.094.188-.203 0-.031 0-.047-.047-.156l-1.765-4.641zm0 0"/></symbol><symbol id="p" overflow="visible"><path d="m2.719-2.328c.047-.11.047-.14.047-.172 0-.016 0-.047-.047-.156l-1.735-4.594c-.062-.172-.124-.234-.234-.234a.207.207 0 0 0 -.203.203c0 .031 0 .047.047.156l1.765 4.625-1.765 4.61c-.047.109-.047.14-.047.187 0 .11.094.203.203.203.125 0 .172-.11.203-.203zm0 0"/></symbol><clipPath id="q"><path d="m212 159h4.563v5h-4.563zm0 0"/></clipPath><clipPath id="r"><path d="m21.895.398h194.273v137.602h-194.273zm0 0"/></clipPath><path d="m29.705-2.125v4.25m38.53-4.25v4.25m38.536-4.25v4.25m38.531-4.25v4.25m38.535-4.25v4.25m-177.132 32.961h4.253m-4.253 35.086h4.253m-4.253 35.086h4.253m-4.253 35.086h4.253m-2.128-140.344h191.683" fill="none" stroke="#000" stroke-miterlimit="10" stroke-width=".79701" transform="matrix(1 0 0 -1 13.065 161.793)"/><g clip-path="url(#q)"><path d="m216.168 161.793-4.145-2.07 1.555 2.07-1.555 2.07"/></g><path d="m8.83 0v158.805" fill="none" stroke="#000" stroke-miterlimit="10" stroke-width=".79701" transform="matrix(1 0 0 -1 13.065 161.793)"/><path d="m21.895.398-2.07 4.145 2.07-1.555 2.074 1.555"/><use x="40.277" xlink:href="#a" y="174.058"/><use x="78.81" xlink:href="#b" y="174.058"/><use x="117.344" xlink:href="#c" y="174.058"/><use x="155.877" xlink:href="#d" y="174.058"/><g><use x="191.919" xlink:href="#e" y="174.058"/><use x="196.9" xlink:href="#f" y="174.058"/></g><use x="3.32" xlink:href="#f" y="129.918"/><use x="8.302" xlink:href="#i" y="129.918"/><use x="11.069" xlink:href="#g" y="129.918"/><use x="11.069" xlink:href="#e" y="94.832"/><use x="3.32" xlink:href="#e" y="59.746"/><use x="8.302" xlink:href="#i" y="59.746"/><use x="11.069" xlink:href="#g" y="59.746"/><use x="11.069" xlink:href="#a" y="24.66"/><g clip-path="url(#r)"><path d="m.001 276.5s6.38-120.988 8.829-147.894c2.453-26.903 6.382-36.75 8.832-46.02 2.449-9.27 6.378-16.387 8.832-20.785 2.449-4.403 6.379-8.551 8.828-10.926 2.449-2.379 6.379-4.832 8.832-6.203 2.449-1.372 6.379-2.852 8.828-3.672 2.453-.82 6.383-1.73 8.832-2.23 2.45-.5 6.379-1.067 8.832-1.38 2.45-.308 6.379-.66 8.828-.855 2.453-.191 6.383-.414 8.832-.535 2.45-.121 6.379-.262 8.832-.336a832.06 832.06 0 0 1 8.828-.215 1658.435 1658.435 0 0 1 17.66-.218c2.454-.02 6.383-.04 8.832-.051 2.45-.016 6.38-.028 8.832-.035 2.45-.008 6.38-.016 8.829-.024l8.832-.012c2.449-.004 6.379-.007 8.832-.007 2.449-.004 6.379-.004 8.828-.008h8.832c2.449-.004 6.379-.004 8.828-.004h8.832" fill="none" stroke="#00f" stroke-miterlimit="10" stroke-width=".79701" transform="matrix(1 0 0 -1 13.065 161.793)"/></g><use x="206.286" xlink:href="#j" y="156.137"/><use x="25.615" xlink:href="#o" y="11.59"/><use x="29.489" xlink:href="#k" y="11.59"/><use x="37.418" xlink:href="#p" y="11.59"/><use x="41.292" xlink:href="#l" y="11.59"/><use x="46.273" xlink:href="#h" y="11.59"/><g><use x="46.273" xlink:href="#m" y="11.59"/><use x="52.013" xlink:href="#n" y="11.59"/></g></svg>