<svg xmlns="http://www.w3.org/2000/svg" xmlns:xlink="http://www.w3.org/1999/xlink" width="265.788" height="227.987" viewBox="0 0 199.341 170.99"><defs><symbol overflow="visible" id="d"><path style="stroke:none" d="M2.234-3.516v-2.578c0-.234 0-.36.22-.39.093-.016.39-.016.593-.016.89 0 2 .047 2 1.484 0 .688-.234 1.5-1.703 1.5Zm2.11.125c.953-.234 1.734-.843 1.734-1.625 0-.953-1.14-1.796-2.594-1.796H.344v.312h.25c.765 0 .781.11.781.469v5.25c0 .36-.016.469-.781.469h-.25V0c.36-.031 1.078-.031 1.453-.031.39 0 1.11 0 1.469.031v-.313h-.25c-.766 0-.782-.109-.782-.468v-2.516h1.141c.156 0 .578 0 .938.344.375.344.375.656.375 1.328 0 .64 0 1.047.406 1.422.406.36.953.422 1.25.422.781 0 .953-.813.953-1.094 0-.063 0-.172-.125-.172-.11 0-.11.094-.125.156C6.984-.17 6.64 0 6.39 0c-.485 0-.563-.516-.704-1.438l-.14-.796c-.172-.641-.656-.97-1.203-1.157Zm0 0"/></symbol><symbol overflow="visible" id="e"><path style="stroke:none" d="M1.11-2.516C1.171-4 2.015-4.25 2.36-4.25c1.015 0 1.124 1.344 1.124 1.734Zm0 .22h2.78c.22 0 .25 0 .25-.22 0-.984-.546-1.953-1.78-1.953-1.158 0-2.08 1.032-2.08 2.282C.281-.86 1.328.108 2.47.108 3.688.11 4.14-1 4.14-1.187c0-.094-.079-.125-.141-.125-.078 0-.11.062-.125.14C3.531-.14 2.625-.14 2.531-.14c-.5 0-.89-.296-1.125-.671-.297-.47-.297-1.125-.297-1.485Zm0 0"/></symbol><symbol overflow="visible" id="f"><path style="stroke:none" d="M3.297 2.39c0-.03 0-.046-.172-.218C1.891.922 1.562-.968 1.562-2.5c0-1.734.375-3.469 1.61-4.703.125-.125.125-.14.125-.172 0-.078-.031-.11-.094-.11-.11 0-1 .688-1.594 1.954C1.11-4.438.984-3.328.984-2.5c0 .781.11 1.984.657 3.125C2.25 1.844 3.094 2.5 3.203 2.5c.063 0 .094-.031.094-.11Zm0 0"/></symbol><symbol overflow="visible" id="i"><path style="stroke:none" d="M2.875-2.5c0-.766-.11-1.969-.656-3.11C1.625-6.827.766-7.483.672-7.483a.107.107 0 0 0-.11.109c0 .031 0 .047.188.234.984.985 1.547 2.563 1.547 4.641C2.297-.78 1.937.97.703 2.22c-.14.125-.14.14-.14.172 0 .062.046.109.109.109.094 0 1-.688 1.578-1.953.516-1.094.625-2.203.625-3.047Zm0 0"/></symbol><symbol overflow="visible" id="g"><path style="stroke:none" d="M.453 1.219c-.078.343-.11.406-.547.406-.11 0-.218 0-.218.188 0 .078.046.125.124.125.266 0 .563-.032.829-.032.343 0 .671.032 1 .032.046 0 .171 0 .171-.204 0-.109-.093-.109-.234-.109-.5 0-.5-.063-.5-.156 0-.125.422-1.75.484-2 .125.297.407.64.922.64 1.157 0 2.407-1.453 2.407-2.921 0-.938-.579-1.594-1.329-1.594-.5 0-.984.36-1.312.75-.094-.547-.531-.75-.89-.75-.47 0-.657.39-.735.562-.188.344-.313.938-.313.969 0 .11.094.11.11.11.11 0 .11-.016.172-.235.172-.703.375-1.188.734-1.188.172 0 .313.079.313.454 0 .234-.032.343-.079.515Zm1.75-4.328c.063-.266.344-.547.516-.704.36-.296.64-.374.812-.374.39 0 .64.343.64.937 0 .594-.327 1.734-.515 2.11-.344.702-.812 1.03-1.187 1.03-.656 0-.781-.828-.781-.89 0-.016 0-.031.03-.156Zm0 0"/></symbol><symbol overflow="visible" id="h"><path style="stroke:none" d="M3.594-2.219c0-.765-.094-1.328-.406-1.812-.22-.313-.657-.594-1.204-.594C.36-4.625.36-2.719.36-2.219c0 .5 0 2.36 1.625 2.36 1.61 0 1.61-1.86 1.61-2.36ZM1.984-.063c-.328 0-.75-.187-.89-.75C1-1.219 1-1.796 1-2.313c0-.515 0-1.046.094-1.421.156-.547.593-.704.89-.704.375 0 .735.235.86.641.11.375.125.875.125 1.485 0 .515 0 1.03-.094 1.468-.14.64-.61.781-.89.781Zm0 0"/></symbol><symbol overflow="visible" id="p"><path style="stroke:none" d="M3.516-1.266H3.28c-.015.157-.094.563-.187.625-.047.047-.578.047-.688.047h-1.28c.734-.64.984-.844 1.39-1.172.516-.406 1-.843 1-1.5 0-.843-.734-1.359-1.624-1.359-.86 0-1.454.61-1.454 1.25 0 .344.297.39.376.39a.365.365 0 0 0 .359-.374c0-.125-.047-.375-.406-.375.218-.485.687-.641 1.015-.641.703 0 1.063.547 1.063 1.11 0 .609-.438 1.078-.656 1.328L.516-.266C.437-.203.437-.187.437 0h2.876Zm0 0"/></symbol><symbol overflow="visible" id="j"><path style="stroke:none" d="M-.594-.875c.156.031.39.094.438.094.172 0 .265-.14.265-.297a.414.414 0 0 0-.28-.375c-.016 0-.485-.125-.735-.188l-.89-.218c-.235-.047-.454-.11-.673-.172a4.482 4.482 0 0 1-.5-.125c-.312-.14-1.219-.672-1.219-1.625 0-.453.375-.531.704-.531.609 0 1.89.484 2.312.64.234.094.36.11.469.11.469 0 .812-.36.812-.829 0-.937-1.453-1.296-1.53-1.296-.11 0-.11.078-.11.109 0 .11.031.11.187.156.672.203 1.235.531 1.235 1.016 0 .172-.094.234-.329.234-.25 0-.484-.078-.703-.172-.53-.187-1.625-.61-2.203-.61-.656 0-1.062.423-1.062 1.141 0 .907.64 1.391.875 1.563-.563.047-.875.453-.875.922 0 .453.39.64.562.734.344.172.938.297.969.297.11 0 .11-.094.11-.11 0-.109-.016-.109-.235-.171-.703-.172-1.188-.375-1.188-.735 0-.187.125-.296.454-.296.218 0 .328.03.843.156Zm0 0"/></symbol><symbol overflow="visible" id="m"><path style="stroke:none" d="M1.219-.453c.343.078.406.11.406.547 0 .11 0 .218.188.218.078 0 .125-.046.125-.124 0-.266-.032-.563-.032-.829 0-.343.032-.671.032-1 0-.046 0-.171-.204-.171-.109 0-.109.093-.109.234 0 .5-.063.5-.156.5-.125 0-1.75-.422-2-.484.297-.125.64-.407.64-.922 0-1.157-1.453-2.407-2.921-2.407-.938 0-1.594.579-1.594 1.329 0 .5.36.984.75 1.312-.547.094-.75.531-.75.89 0 .47.39.657.562.735.344.188.938.313.969.313.11 0 .11-.094.11-.11 0-.11-.016-.11-.235-.172-.703-.172-1.188-.375-1.188-.734 0-.172.079-.313.454-.313.234 0 .343.032.515.079Zm-4.328-1.75c-.266-.063-.547-.344-.704-.516-.296-.36-.374-.64-.374-.812 0-.39.343-.64.937-.64.594 0 1.734.327 2.11.515.702.344 1.03.812 1.03 1.187 0 .656-.828.781-.89.781-.016 0-.031 0-.156-.03Zm0 0"/></symbol><symbol overflow="visible" id="k"><path style="stroke:none" d="M-4.766-.422h.25v-.156c0-.547.079-.563.329-.563h3.625c.234 0 .312.016.312.563v.156H0v-2.953c0-.984-.61-1.703-1.281-1.703-.594 0-1.11.625-1.203 1.469-.125-.688-.547-1.25-1.094-1.25-.625 0-1.188.734-1.188 1.703Zm2.188-1.328h-1.656c-.22 0-.282 0-.282-.328V-3.11c0-.704.5-1.063.938-1.063.5 0 1 .469 1 1.266Zm2.328-.328c0 .328-.063.328-.266.328h-1.859v-1.484c0-.735.594-1.125 1.078-1.125.516 0 1.047.468 1.047 1.234Zm0 0"/></symbol><symbol overflow="visible" id="n"><path style="stroke:none" d="M-2.219-3.594c-.765 0-1.328.094-1.812.406-.313.22-.594.657-.594 1.204C-4.625-.36-2.719-.36-2.219-.36c.5 0 2.36 0 2.36-1.625 0-1.61-1.86-1.61-2.36-1.61Zm2.156 1.61c0 .328-.187.75-.75.89C-1.219-1-1.796-1-2.313-1c-.515 0-1.046 0-1.421-.094-.547-.156-.704-.593-.704-.89 0-.375.235-.735.641-.86.375-.11.875-.125 1.485-.125.515 0 1.03 0 1.468.094.64.14.781.61.781.89Zm0 0"/></symbol><symbol overflow="visible" id="l"><path style="stroke:none" d="M2.39-3.297c-.03 0-.046 0-.218.172C.922-1.891-.968-1.562-2.5-1.562c-1.734 0-3.469-.375-4.703-1.61-.125-.125-.14-.125-.172-.125-.078 0-.11.031-.11.094 0 .11.688 1 1.954 1.594 1.093.5 2.203.625 3.031.625.781 0 1.984-.11 3.125-.657C1.844-2.25 2.5-3.094 2.5-3.203c0-.063-.031-.094-.11-.094Zm0 0"/></symbol><symbol overflow="visible" id="o"><path style="stroke:none" d="M-2.5-2.875c-.766 0-1.969.11-3.11.656-1.218.594-1.874 1.453-1.874 1.547 0 .063.046.11.109.11.031 0 .047 0 .234-.188.985-.984 2.563-1.547 4.641-1.547 1.719 0 3.469.36 4.719 1.594.125.14.14.14.172.14A.106.106 0 0 0 2.5-.672c0-.094-.688-1-1.953-1.578-1.094-.516-2.203-.625-3.047-.625Zm0 0"/></symbol><symbol overflow="visible" id="q"><path style="stroke:none" d="M1.578-1.734a.39.39 0 0 0-.39-.407.4.4 0 0 0-.407.391.4.4 0 0 0 .39.406.4.4 0 0 0 .407-.39Zm0 0"/></symbol><symbol overflow="visible" id="r"><path style="stroke:none" d="M3.39-4.219c.047-.203.063-.218.22-.234h.406c.437 0 .609 0 .78.047.313.093.329.297.329.547 0 .109 0 .203-.047.562l-.016.078c0 .078.047.11.125.11.11 0 .11-.063.125-.172L5.5-4.61c0-.094-.078-.094-.203-.094H1.016c-.172 0-.188 0-.235.14L.328-3.327c0 .031-.031.094-.031.125s.016.094.125.094c.094 0 .094-.032.14-.172.407-1.11.641-1.172 1.704-1.172h.28c.22 0 .22 0 .22.062 0 0 0 .047-.032.141L1.813-.578C1.75-.328 1.734-.25 1-.25c-.25 0-.313 0-.313.156 0 .016.016.094.125.094.188 0 .407-.016.594-.016.203 0 .407-.015.594-.015.203 0 .438 0 .64.015.188 0 .391.016.579.016.062 0 .156 0 .156-.156 0-.094-.063-.094-.281-.094-.125 0-.266-.016-.406-.016-.235-.015-.25-.046-.25-.125 0-.062 0-.062.03-.171Zm0 0"/></symbol><clipPath id="a"><path d="M17.004.398h181.941V150H17.004Zm0 0"/></clipPath><clipPath id="b"><path d="M17.004.398h181.941V146H17.004Zm0 0"/></clipPath><clipPath id="c"><path d="M17.004.398h181.941V133H17.004Zm0 0"/></clipPath></defs><path style="fill:none;stroke-width:.79701;stroke-linecap:butt;stroke-linejoin:miter;stroke:#000;stroke-opacity:1;stroke-miterlimit:10" d="M.002 0h179.351" transform="matrix(1 0 0 -1 17.002 153.988)"/><path style="stroke:none;fill-rule:nonzero;fill:#000;fill-opacity:1" d="m198.945 153.988-4.144-2.074 1.554 2.074-1.554 2.07"/><path style="fill:none;stroke-width:.79701;stroke-linecap:butt;stroke-linejoin:miter;stroke:#000;stroke-opacity:1;stroke-miterlimit:10" d="M.002 0v151" transform="matrix(1 0 0 -1 17.002 153.988)"/><path style="stroke:none;fill-rule:nonzero;fill:#000;fill-opacity:1" d="M17.004.398 14.93 4.543l2.074-1.555 2.07 1.555"/><g clip-path="url(#a)"><path style="fill:none;stroke-width:.79701;stroke-linecap:butt;stroke-linejoin:miter;stroke:red;stroke-opacity:1;stroke-miterlimit:10" d="M7.58 184.773s5.477-74.816 7.582-91.754C17.264 76.086 20.64 69 22.744 62.722c2.102-6.277 5.477-11.652 7.578-14.945 2.106-3.297 5.48-6.785 7.582-8.805 2.106-2.015 5.477-4.382 7.582-5.73 2.102-1.352 5.477-3.035 7.582-3.988 2.102-.957 5.477-2.196 7.578-2.899 2.106-.703 5.477-1.64 7.582-2.172 2.106-.535 5.477-1.258 7.583-1.672 2.101-.41 5.476-.98 7.578-1.304 2.105-.324 5.48-.778 7.582-1.04a384.2 384.2 0 0 1 7.582-.831c2.101-.211 5.476-.508 7.582-.676 2.101-.172 5.476-.414 7.578-.555 2.105-.137 5.476-.336 7.582-.453a984.661 984.661 0 0 1 15.164-.684c2.101-.078 5.476-.19 7.578-.257a1637.269 1637.269 0 0 1 15.164-.395c2.102-.047 5.477-.113 7.578-.152 2.106-.035 5.48-.094 7.582-.125 2.106-.031 7.582-.106 7.582-.106" transform="matrix(1 0 0 -1 17.002 153.988)"/></g><g clip-path="url(#b)"><path style="fill:none;stroke-width:.79701;stroke-linecap:butt;stroke-linejoin:miter;stroke:#fff200;stroke-opacity:1;stroke-miterlimit:10" d="M7.58 368.925s5.477-150.105 7.582-184.152c2.102-34.047 5.477-48.512 7.582-61.242 2.102-12.73 5.477-23.75 7.578-30.512 2.106-6.761 5.48-14.015 7.582-18.219 2.106-4.207 5.477-9.218 7.582-12.082 2.102-2.867 5.477-6.496 7.582-8.57 2.102-2.07 5.477-4.805 7.578-6.37 2.106-1.567 5.477-3.692 7.582-4.915 2.106-1.219 5.477-2.914 7.583-3.89 2.101-.973 5.476-2.348 7.578-3.145 2.105-.793 5.48-1.93 7.582-2.59 2.105-.656 5.476-1.605 7.582-2.16a236.398 236.398 0 0 1 7.582-1.824 306.76 306.76 0 0 1 7.578-1.559c2.105-.402 5.476-.992 7.582-1.34 2.105-.347 5.476-.86 7.582-1.16a497.1 497.1 0 0 1 7.582-1.012 555.72 555.72 0 0 1 7.578-.886c2.106-.235 5.477-.579 7.582-.786a993.39 993.39 0 0 1 7.582-.691 989.76 989.76 0 0 1 7.578-.613c2.106-.164 5.48-.407 7.582-.551 2.106-.14 7.582-.488 7.582-.488" transform="matrix(1 0 0 -1 17.002 153.988)"/></g><g clip-path="url(#c)"><path style="fill:none;stroke-width:.79701;stroke-linecap:butt;stroke-linejoin:miter;stroke:#00f;stroke-opacity:1;stroke-miterlimit:10" d="M7.58 737.605s5.477-300.492 7.582-368.68c2.102-68.187 5.477-97.226 7.582-122.777 2.102-25.55 5.477-47.762 7.578-61.375 2.106-13.613 5.48-28.254 7.582-36.75 2.106-8.5 5.477-18.672 7.582-24.492 2.102-5.82 5.477-13.219 7.582-17.453 2.102-4.23 5.477-9.84 7.578-13.059 2.106-3.215 5.477-7.605 7.582-10.136 2.106-2.528 5.477-6.047 7.583-8.082 2.101-2.04 5.476-4.926 7.578-6.602 2.105-1.68 5.48-4.082 7.582-5.48 2.105-1.403 5.476-3.434 7.582-4.622 2.101-1.187 5.476-2.925 7.582-3.949 2.101-1.02 5.476-2.515 7.578-3.402a217.014 217.014 0 0 1 7.582-2.969 252.296 252.296 0 0 1 7.582-2.61 289.698 289.698 0 0 1 7.582-2.304 340.543 340.543 0 0 1 7.578-2.05c2.106-.54 5.477-1.356 7.582-1.84a480.222 480.222 0 0 1 7.582-1.653 518.825 518.825 0 0 1 7.578-1.492c2.106-.395 5.48-.996 7.582-1.356 2.106-.359 7.582-1.23 7.582-1.23" transform="matrix(1 0 0 -1 17.002 153.988)"/></g><g style="fill:#000;fill-opacity:1"><use xlink:href="#d" x="93.476" y="165.179"/><use xlink:href="#e" x="100.809" y="165.179"/><use xlink:href="#f" x="105.237" y="165.179"/></g><use xlink:href="#g" x="109.112" y="165.179" style="fill:#000;fill-opacity:1"/><use xlink:href="#h" x="114.125" y="166.673" style="fill:#000;fill-opacity:1"/><use xlink:href="#i" x="118.594" y="165.179" style="fill:#000;fill-opacity:1"/><use xlink:href="#j" x="10.792" y="91.832" style="fill:#000;fill-opacity:1"/><use xlink:href="#k" x="12.287" y="85.852" style="fill:#000;fill-opacity:1"/><use xlink:href="#l" x="10.792" y="79.784" style="fill:#000;fill-opacity:1"/><use xlink:href="#m" x="10.792" y="75.91" style="fill:#000;fill-opacity:1"/><use xlink:href="#n" x="12.287" y="70.897" style="fill:#000;fill-opacity:1"/><use xlink:href="#o" x="10.792" y="66.428" style="fill:#000;fill-opacity:1"/><path style="fill:none;stroke-width:.3985;stroke-linecap:butt;stroke-linejoin:miter;stroke:#000;stroke-opacity:1;stroke-miterlimit:10" d="M38.685 40.625c1.618 6.203 6.454 11.101 12.196 12.683" transform="matrix(1 0 0 -1 17.002 153.988)"/><path style="fill:none;stroke-width:.31879;stroke-linecap:round;stroke-linejoin:round;stroke:#000;stroke-opacity:1;stroke-miterlimit:10" d="M-1.196 1.595C-1.097.997 0 .1.298.001c-.299-.1-1.393-.998-1.492-1.595" transform="scale(.99994 -.99994) rotate(15.379 406.818 201.054)"/><use xlink:href="#p" x="62.995" y="112.738" style="fill:#000;fill-opacity:1"/><use xlink:href="#q" x="68.78" y="112.738" style="fill:#000;fill-opacity:1"/><use xlink:href="#r" x="72.96" y="112.738" style="fill:#000;fill-opacity:1"/><path style="fill:none;stroke-width:.3985;stroke-linecap:butt;stroke-linejoin:miter;stroke:#000;stroke-opacity:1;stroke-miterlimit:10" d="M53.748 55.883c2.535 9.683 9.473 16.699 18.684 19.222" transform="matrix(1 0 0 -1 17.002 153.988)"/><path style="fill:none;stroke-width:.31879;stroke-linecap:round;stroke-linejoin:round;stroke:#000;stroke-opacity:1;stroke-miterlimit:10" d="M-1.197 1.594C-1.097.996 0 .1.298.002 0-.098-1.097-.997-1.196-1.594" transform="matrix(.96442 -.2642 -.2642 -.96442 89.434 78.88)"/><use xlink:href="#p" x="80.344" y="93.258" style="fill:#000;fill-opacity:1"/><use xlink:href="#q" x="86.129" y="93.258" style="fill:#000;fill-opacity:1"/><use xlink:href="#r" x="90.31" y="93.258" style="fill:#000;fill-opacity:1"/></svg>