<svg xmlns="http://www.w3.org/2000/svg" xmlns:xlink="http://www.w3.org/1999/xlink" width="464.16" height="170.072" viewBox="0 0 348.12 127.554"><defs><symbol overflow="visible" id="a"><path d="M2.938-3.719h1.671c.125 0 .485 0 .485-.344 0-.234-.203-.234-.407-.234h-2.78c-.204 0-.595 0-1.032.469-.328.36-.61.844-.61.89 0 .016 0 .11.126.11.078 0 .093-.047.156-.125.484-.766 1.062-.766 1.265-.766h.829L1.67-.516c-.046.11-.109.329-.109.36 0 .11.079.281.297.281.329 0 .375-.281.407-.438zm0 0"/></symbol><symbol overflow="visible" id="d"><path d="M5.156-3.719c.14 0 .5 0 .5-.344 0-.234-.218-.234-.39-.234H2.984c-1.5 0-2.609 1.64-2.609 2.828C.375-.594.969.11 1.875.11c1.172 0 2.5-1.203 2.5-2.734 0-.172 0-.656-.313-1.094zM1.891-.109C1.39-.11 1-.47 1-1.188c0-.296.11-1.109.469-1.703.422-.687 1.015-.828 1.36-.828.827 0 .905.656.905.969 0 .469-.203 1.281-.53 1.797-.392.578-.938.844-1.313.844zm0 0"/></symbol><symbol overflow="visible" id="b"><path d="M2.328-4.438c0-.187 0-.187-.203-.187-.453.438-1.078.438-1.36.438v.25c.157 0 .626 0 1-.188v3.547c0 .234 0 .328-.687.328H.812V0c.125 0 .985-.031 1.235-.031.219 0 1.094.031 1.25.031v-.25H3.03c-.703 0-.703-.094-.703-.328zm0 0"/></symbol><symbol overflow="visible" id="c"><path d="M3.516-1.266H3.28c-.015.157-.094.563-.187.625-.047.047-.578.047-.688.047H1.125c.734-.64.984-.844 1.39-1.172.516-.406 1-.843 1-1.5 0-.843-.734-1.359-1.624-1.359-.86 0-1.454.61-1.454 1.25 0 .344.297.39.376.39.156 0 .359-.124.359-.374 0-.125-.047-.375-.406-.375.218-.485.687-.641 1.015-.641.703 0 1.063.547 1.063 1.11 0 .609-.438 1.078-.656 1.328L.516-.266C.437-.203.437-.187.437 0h2.876zm0 0"/></symbol><clipPath id="e"><path d="M240 0h108.121v108H240zm0 0"/></clipPath></defs><path d="M115.48 93.742c-7.828 0-14.171-19.035-14.171-42.52 0-23.484 6.343-42.519 14.171-42.519m-34.015 85.04c-7.828 0-14.176-19.036-14.176-42.52 0-23.485 6.348-42.52 14.176-42.52" fill="none" stroke-width="0.3985" stroke="rgb(0%,0%,0%)" stroke-dasharray="2.98883,2.98883" stroke-miterlimit="10"/><path d="M27.605 93.742c-7.828 0-14.171-19.035-14.171-42.52 0-23.484 6.343-42.519 13.714-42.519" fill="none" stroke-width="0.3985" stroke="rgb(0%,0%,0%)" stroke-miterlimit="10"/><path d="M25.953 7.11c.098.597 1.195 1.492 1.492 1.593-.297.098-1.394.996-1.492 1.594" fill="none" stroke-width="0.31879" stroke-linecap="round" stroke-linejoin="round" stroke="rgb(0%,0%,0%)" stroke-miterlimit="10"/><path d="M41.777 93.742h113.391M41.778 8.703h113.39m-113.39 85.04c-7.829 0-14.173-19.036-14.173-42.52 0-23.485 6.344-42.52 14.172-42.52m127.563 42.52c0-23.485-6.348-42.52-14.172-42.52-7.828 0-14.176 19.035-14.176 42.52 0 23.484 6.348 42.52 14.176 42.52 7.824 0 14.172-19.036 14.172-42.52zm0 0" fill="none" stroke-width="0.3985" stroke="rgb(0%,0%,0%)" stroke-miterlimit="10"/><use xlink:href="#a" x="54.374" y="52.62" fill="rgb(0%,0%,0%)"/><use xlink:href="#b" x="58.73" y="54.115" fill="rgb(0%,0%,0%)"/><use xlink:href="#a" x="88.39" y="52.62" fill="rgb(0%,0%,0%)"/><use xlink:href="#c" x="92.745" y="54.115" fill="rgb(0%,0%,0%)"/><use xlink:href="#d" x="3.321" y="53.367" fill="rgb(0%,0%,0%)"/><path d="M55.953 107.914h84.582" fill="none" stroke-width="0.3985" stroke="rgb(0%,0%,0%)" stroke-miterlimit="10"/><path d="M139.34 106.32c.097.598 1.195 1.496 1.492 1.594-.297.102-1.394.996-1.492 1.594" fill="none" stroke-width="0.31879" stroke-linecap="round" stroke-linejoin="round" stroke="rgb(0%,0%,0%)" stroke-miterlimit="10"/><use xlink:href="#a" x="95.73" y="124.233" fill="rgb(0%,0%,0%)"/><path d="M183.512 51.223h27.64" fill="none" stroke-width="0.79701" stroke="rgb(0%,0%,0%)" stroke-miterlimit="10"/><path d="M209.598 49.148c.129.778 1.554 1.946 1.941 2.075-.387.129-1.812 1.293-1.941 2.07" fill="none" stroke-width="0.6376" stroke-linecap="round" stroke-linejoin="round" stroke="rgb(0%,0%,0%)" stroke-miterlimit="10"/><path d="M319.578 51.223c0-12.528-10.152-22.68-22.68-22.68-12.523 0-22.675 10.152-22.675 22.68 0 12.523 10.152 22.675 22.675 22.675 12.528 0 22.68-10.152 22.68-22.675zm0 0" fill="none" stroke-width="0.3985" stroke="rgb(0%,0%,0%)" stroke-dasharray="2.98883,2.98883" stroke-miterlimit="10"/><g clip-path="url(#e)"><path d="M347.926 51.223c0-28.18-22.844-51.024-51.028-51.024-28.18 0-51.023 22.844-51.023 51.024s22.844 51.023 51.023 51.023c28.184 0 51.028-22.844 51.028-51.023zm0 0" fill="none" stroke-width="0.3985" stroke="rgb(0%,0%,0%)" stroke-dasharray="2.98883,2.98883" stroke-miterlimit="10"/></g><path d="M234.54 51.223l.132 4.078.402 4.058.664 4.028.926 3.976 1.184 3.903 1.437 3.82 1.688 3.715 1.918 3.601 2.16 3.465 2.375 3.317 2.59 3.156 2.789 2.98 2.976 2.785 3.156 2.59 3.317 2.375 3.465 2.16 3.601 1.922 3.715 1.684 3.82 1.437 3.903 1.188 3.976.922 4.028.664 4.058.402 3.621.121" fill="none" stroke-width="0.3985" stroke="rgb(0%,0%,0%)" stroke-miterlimit="10"/><path d="M295.3 111.937c.079.602 1.145 1.532 1.442 1.641-.304.09-1.43.95-1.547 1.543" fill="none" stroke-width=".3187836242" stroke-linecap="round" stroke-linejoin="round" stroke="rgb(0%,0%,0%)" stroke-miterlimit="10"/><use xlink:href="#d" x="234.344" y="90.218" fill="rgb(0%,0%,0%)"/><use xlink:href="#a" x="309.492" y="27.108" fill="rgb(0%,0%,0%)"/><use xlink:href="#b" x="313.848" y="28.603" fill="rgb(0%,0%,0%)"/><use xlink:href="#a" x="332.169" y="10.1" fill="rgb(0%,0%,0%)"/><use xlink:href="#c" x="336.524" y="11.595" fill="rgb(0%,0%,0%)"/><path d="M298.309 51.223a1.409 1.409 0 1 0 0 0zm0 0" fill="rgb(0%,0%,0%)"/></svg>