<svg xmlns="http://www.w3.org/2000/svg" xmlns:xlink="http://www.w3.org/1999/xlink" width="341.485" height="227.835" viewBox="0 0 256.114 170.876"><defs><symbol overflow="visible" id="a"><path d="M1.766-6.922l-1.438.11v.312c.703 0 .781.063.781.563V-.75c0 .438-.109.438-.78.438V0c.327-.016.859-.031 1.109-.031s.734.015 1.109.031v-.313c-.672 0-.781 0-.781-.437zm0 0"/></symbol><symbol overflow="visible" id="b"><path d="M1.766-4.406l-1.391.11v.312c.64 0 .734.062.734.546V-.75c0 .438-.109.438-.78.438V0c.312-.016.859-.031 1.093-.031.36 0 .703.015 1.047.031v-.313c-.672 0-.703-.046-.703-.437zm.03-1.735a.514.514 0 00-.515-.53.537.537 0 00-.531.53c0 .266.219.532.531.532a.514.514 0 00.516-.532zm0 0"/></symbol><symbol overflow="visible" id="c"><path d="M1.094-3.422V-.75c0 .438-.11.438-.782.438V0c.36-.016.86-.031 1.141-.031.25 0 .766.015 1.11.031v-.313c-.672 0-.782 0-.782-.437v-1.844c0-1.031.719-1.594 1.344-1.594.64 0 .75.532.75 1.11V-.75c0 .438-.11.438-.781.438V0c.344-.016.86-.031 1.125-.031.25 0 .781.015 1.11.031v-.313c-.657 0-.766 0-.766-.437v-1.844c0-1.031.703-1.594 1.343-1.594.625 0 .735.532.735 1.11V-.75c0 .438-.11.438-.782.438V0c.344-.016.86-.031 1.125-.031.266 0 .782.015 1.125.031v-.313c-.515 0-.765 0-.78-.296v-1.907c0-.859 0-1.156-.313-1.515-.141-.172-.47-.375-1.047-.375-.828 0-1.282.593-1.438.984-.14-.875-.875-.984-1.328-.984-.734 0-1.203.422-1.484 1.047v-1.047l-1.407.11v.312c.704 0 .782.062.782.562zm0 0"/></symbol><symbol overflow="visible" id="d"><path d="M1.719-3.984h1.437v-.313H1.72v-1.828h-.25c0 .813-.297 1.875-1.282 1.922v.219h.844v2.75c0 1.218.938 1.343 1.297 1.343.703 0 .985-.703.985-1.343v-.563h-.25v.547c0 .734-.297 1.11-.672 1.11-.672 0-.672-.907-.672-1.079zm0 0"/></symbol><symbol overflow="visible" id="e"><path d="M1.11-2.516C1.171-4 2.015-4.25 2.36-4.25c1.015 0 1.124 1.344 1.124 1.734zm0 .22h2.78c.22 0 .25 0 .25-.22 0-.984-.546-1.953-1.78-1.953C1.202-4.469.28-3.437.28-2.187.281-.86 1.328.108 2.47.108 3.688.11 4.14-1 4.14-1.187c0-.094-.079-.125-.141-.125-.078 0-.11.062-.125.14C3.531-.14 2.625-.14 2.531-.14c-.5 0-.89-.296-1.125-.671-.297-.47-.297-1.125-.297-1.485zm0 0"/></symbol><symbol overflow="visible" id="f"><path d="M3.781-.547V.11L5.25 0v-.313c-.688 0-.781-.062-.781-.562v-6.047l-1.422.11v.312c.687 0 .765.063.765.563v2.156a1.582 1.582 0 00-1.25-.625c-1.171 0-2.218.984-2.218 2.265 0 1.266.969 2.25 2.11 2.25.64 0 1.077-.343 1.327-.656zm0-2.672v2.047c0 .172 0 .188-.11.36-.296.484-.733.703-1.171.703-.453 0-.813-.266-1.047-.641-.25-.406-.281-.969-.281-1.39 0-.36.016-.954.297-1.407.218-.312.593-.64 1.14-.64.344 0 .766.156 1.063.593.11.172.11.188.11.375zm0 0"/></symbol><symbol overflow="visible" id="g"><path d="M1.719-3.766v-3.156l-1.438.11v.312c.703 0 .781.063.781.563V0h.25c0-.016.079-.156.36-.625.14.234.562.734 1.297.734 1.187 0 2.219-.984 2.219-2.265 0-1.266-.97-2.25-2.11-2.25-.781 0-1.203.468-1.36.64zM1.75-1.14v-2.046c0-.188 0-.204.11-.36.39-.562.937-.64 1.171-.64.453 0 .813.265 1.047.64.266.406.281.969.281 1.39 0 .36-.015.954-.296 1.407-.22.313-.594.64-1.125.64-.454 0-.813-.234-1.047-.609-.141-.203-.141-.234-.141-.422zm0 0"/></symbol><symbol overflow="visible" id="h"><path d="M4.14-3.344c.25-.64.766-.64.923-.64v-.313c-.235.016-.516.031-.75.031-.172 0-.641-.015-.86-.03v.312c.313 0 .469.171.469.421 0 .11-.016.126-.063.25L2.844-.874 1.75-3.547c-.047-.11-.063-.14-.063-.187 0-.25.36-.25.563-.25v-.313c-.266.016-.922.031-1.094.031-.265 0-.672-.015-.968-.03v.312c.484 0 .671 0 .812.343L2.5 0a6.764 6.764 0 00-.25.594c-.219.547-.5 1.234-1.14 1.234-.048 0-.282 0-.47-.187.313-.032.391-.25.391-.422C1.031.969.844.812.61.812c-.203 0-.421.125-.421.422 0 .454.421.813.921.813.625 0 1.032-.578 1.266-1.14zm0 0"/></symbol><symbol overflow="visible" id="i"><path d="M2.078-1.938c.219.047 1.031.204 1.031.922 0 .5-.343.907-1.125.907-.843 0-1.203-.563-1.39-1.422-.031-.125-.031-.157-.14-.157-.126 0-.126.063-.126.235v1.328c0 .172 0 .234.11.234C.483.11.5.094.688-.094.703-.109.703-.125.89-.312c.437.406.89.421 1.093.421 1.141 0 1.61-.671 1.61-1.39 0-.516-.297-.828-.422-.938-.328-.328-.719-.406-1.14-.484-.563-.11-1.22-.235-1.22-.813 0-.359.25-.765 1.11-.765 1.094 0 1.156.906 1.172 1.203 0 .094.094.094.11.094.14 0 .14-.047.14-.235v-1.015c0-.157 0-.235-.11-.235-.046 0-.078 0-.203.125-.031.032-.125.125-.172.157-.375-.282-.78-.282-.937-.282-1.219 0-1.594.672-1.594 1.235 0 .343.156.625.422.843.328.25.61.313 1.328.454zm0 0"/></symbol><symbol overflow="visible" id="j"><path d="M4.688-2.14c0-1.266-.985-2.329-2.188-2.329C1.25-4.469.281-3.375.281-2.14A2.22 2.22 0 002.484.11c1.204 0 2.204-.984 2.204-2.25zM2.5-.14c-.438 0-.875-.204-1.14-.672-.25-.438-.25-1.047-.25-1.407 0-.39 0-.922.234-1.36a1.347 1.347 0 011.14-.671c.438 0 .86.219 1.125.656.266.422.266 1 .266 1.375 0 .36 0 .906-.219 1.344-.234.453-.672.734-1.156.734zm0 0"/></symbol><symbol overflow="visible" id="k"><path d="M1.672-3.313v-1.093l-1.39.11v.312c.702 0 .78.062.78.562V-.75c0 .438-.109.438-.78.438V0c.39-.016.859-.031 1.14-.031.39 0 .86 0 1.266.031v-.313h-.22c-.734 0-.75-.109-.75-.468v-1.531c0-.985.423-1.876 1.173-1.876.062 0 .093 0 .109.016-.031 0-.234.125-.234.39 0 .266.218.423.437.423a.421.421 0 00.422-.438c0-.312-.313-.61-.734-.61-.735 0-1.094.673-1.22 1.095zm0 0"/></symbol><symbol overflow="visible" id="l"><path d="M1.719-3.75v-.656l-1.438.11v.312c.703 0 .781.062.781.5v4.656c0 .453-.109.453-.78.453v.313c.343-.016.859-.032 1.109-.032.28 0 .78.016 1.125.032v-.313c-.657 0-.766 0-.766-.453V-.594c.047.172.469.703 1.219.703 1.187 0 2.219-.984 2.219-2.265 0-1.266-.954-2.25-2.079-2.25-.78 0-1.203.437-1.39.656zm.031 2.61v-2.22c.281-.515.766-.796 1.281-.796.735 0 1.328.875 1.328 2C4.36-.953 3.672-.11 2.938-.11c-.407 0-.782-.204-1.047-.61-.141-.203-.141-.219-.141-.422zm0 0"/></symbol><symbol overflow="visible" id="m"><path d="M1.094-3.422V-.75c0 .438-.11.438-.782.438V0c.36-.016.86-.031 1.141-.031.25 0 .766.015 1.11.031v-.313c-.672 0-.782 0-.782-.437v-1.844c0-1.031.719-1.594 1.344-1.594.64 0 .75.532.75 1.11V-.75c0 .438-.11.438-.781.438V0c.344-.016.86-.031 1.125-.031.25 0 .781.015 1.11.031v-.313c-.516 0-.766 0-.766-.296v-1.907c0-.859 0-1.156-.313-1.515-.14-.172-.469-.375-1.047-.375-.734 0-1.203.422-1.484 1.047v-1.047l-1.407.11v.312c.704 0 .782.062.782.562zm0 0"/></symbol><symbol overflow="visible" id="n"><path d="M1.75-4.297v-1.156c0-.875.469-1.36.906-1.36.031 0 .188 0 .328.079a.443.443 0 00-.296.421c0 .22.156.422.437.422s.438-.203.438-.437c0-.375-.376-.703-.907-.703-.687 0-1.547.531-1.547 1.593v1.141H.33v.313h.78V-.75c0 .438-.109.438-.765.438V0c.39-.016.86-.031 1.125-.031.406 0 .875 0 1.265.031v-.313h-.203c-.734 0-.75-.109-.75-.468v-3.203h1.125v-.313zm0 0"/></symbol><symbol overflow="visible" id="o"><path d="M3.89-.781v.89L5.329 0v-.313c-.687 0-.766-.062-.766-.562v-3.531l-1.468.11v.312c.687 0 .781.062.781.562v1.766c0 .875-.484 1.547-1.219 1.547-.828 0-.875-.47-.875-.985v-3.312l-1.468.11v.312c.78 0 .78.03.78.906v1.5c0 .781 0 1.687 1.516 1.687.563 0 1-.28 1.282-.89zm0 0"/></symbol><symbol overflow="visible" id="p"><path d="M1.172-2.172c0-1.625.812-2.047 1.344-2.047.093 0 .718.016 1.062.375-.406.031-.469.328-.469.453 0 .266.188.454.454.454.265 0 .468-.157.468-.47 0-.671-.765-1.062-1.531-1.062C1.25-4.469.344-3.39.344-2.156c0 1.281.984 2.265 2.14 2.265 1.329 0 1.657-1.203 1.657-1.296 0-.094-.11-.094-.141-.094-.078 0-.11.031-.125.093C3.594-.265 2.937-.14 2.578-.14c-.531 0-1.406-.421-1.406-2.03zm0 0"/></symbol><symbol overflow="visible" id="q"><path d="M3.313-.75c.046.39.312.813.78.813.22 0 .829-.141.829-.954v-.562h-.25v.562c0 .579-.25.641-.36.641-.328 0-.375-.453-.375-.5v-1.984c0-.422 0-.813-.359-1.188-.39-.39-.89-.547-1.36-.547-.827 0-1.515.469-1.515 1.125 0 .297.203.469.469.469a.435.435 0 00.453-.453c0-.125-.047-.453-.516-.453.282-.36.766-.469 1.079-.469.5 0 1.062.39 1.062 1.281v.36c-.516.03-1.203.062-1.828.359-.75.344-1 .86-1 1.297 0 .812.969 1.062 1.594 1.062.656 0 1.109-.406 1.296-.859zM3.25-2.39v1c0 .937-.719 1.28-1.172 1.28-.484 0-.89-.343-.89-.843 0-.547.421-1.375 2.062-1.438zm0 0"/></symbol><symbol overflow="visible" id="r"><path d="M4.14-3.313c.094-.234.266-.671.923-.671v-.313c-.235.016-.516.031-.75.031-.235 0-.688-.015-.86-.03v.312c.36 0 .469.234.469.421 0 .094-.016.141-.047.25L2.844-.78l-1.11-2.781c-.062-.126-.062-.141-.062-.172 0-.25.39-.25.578-.25v-.313c-.313.016-.86.031-1.094.031-.265 0-.672-.015-.968-.03v.312c.625 0 .671.062.796.359L2.422-.078c.062.14.078.187.203.187.14 0 .172-.093.219-.187zm0 0"/></symbol><symbol overflow="visible" id="s"><path d="M3.484-3.875l-1.28-.297c-.626-.156-1-.687-1-1.266 0-.703.53-1.312 1.312-1.312 1.656 0 1.875 1.64 1.937 2.078.016.063.016.125.125.125.125 0 .125-.047.125-.234v-2c0-.172 0-.25-.11-.25-.062 0-.077.015-.14.14l-.36.563c-.296-.297-.702-.703-1.593-.703-1.11 0-1.938.875-1.938 1.937 0 .828.532 1.563 1.297 1.828.11.032.625.157 1.329.329.265.062.562.14.843.5.203.265.313.593.313.921 0 .704-.5 1.422-1.344 1.422-.281 0-1.047-.047-1.578-.531-.578-.547-.61-1.172-.61-1.531-.015-.11-.093-.11-.125-.11-.125 0-.125.079-.125.25v2c0 .172 0 .235.11.235.062 0 .078-.016.14-.125 0-.016.032-.047.36-.578.312.343.953.703 1.844.703 1.156 0 1.953-.969 1.953-2.078 0-.985-.657-1.813-1.485-2.016zm0 0"/></symbol><symbol overflow="visible" id="t"><path d="M6.172-3.344c.172-.5.484-.64.844-.64v-.313c-.235.016-.516.031-.735.031-.297 0-.734-.015-.922-.03v.312c.36 0 .579.187.579.468 0 .063 0 .094-.063.22L4.969-.75l-.985-2.781c-.03-.125-.046-.14-.046-.188 0-.265.39-.265.593-.265v-.313c-.297.016-.797.031-1.047.031-.296 0-.578-.015-.875-.03v.312c.36 0 .516.015.625.14.047.063.157.36.22.547L2.608-.875l-.953-2.656c-.047-.125-.047-.14-.047-.188 0-.265.391-.265.579-.265v-.313c-.297.016-.86.031-1.079.031-.046 0-.578-.015-.937-.03v.312c.5 0 .625.03.75.343l1.25 3.532c.047.14.078.218.203.218.14 0 .156-.062.203-.203l1.016-2.812L4.609-.078c.032.11.063.187.204.187.125 0 .156-.093.187-.187zm0 0"/></symbol><symbol overflow="visible" id="u"><path d="M1.063-.75c0 .438-.11.438-.782.438V0c.328-.016.797-.031 1.078-.031.313 0 .704.015 1.11.031v-.313c-.672 0-.781 0-.781-.437v-1.031l.64-.547c.766 1.047 1.188 1.61 1.188 1.797 0 .187-.172.219-.36.219V0c.266-.016.86-.031 1.078-.031.282 0 .579.015.86.031v-.313c-.375 0-.594 0-.969-.53L2.859-2.626c-.015-.016-.062-.078-.062-.11 0-.03.719-.64.812-.718.625-.5 1.047-.531 1.25-.531v-.313c-.28.031-.406.031-.687.031-.36 0-.984-.015-1.125-.03v.312c.187 0 .297.109.297.25 0 .203-.14.312-.219.39L1.719-2.14v-4.78L.28-6.813v.312c.703 0 .781.063.781.563zm0 0"/></symbol><symbol overflow="visible" id="F"><path d="M2.219-1.719c-.875 0-.875-1-.875-1.218 0-.266.015-.594.156-.844.078-.11.313-.39.719-.39.86 0 .86.984.86 1.218 0 .265 0 .594-.157.844-.078.109-.313.39-.703.39zm-1.156.39c0-.03 0-.265.156-.468.39.281.812.313 1 .313.922 0 1.61-.688 1.61-1.454 0-.374-.157-.734-.407-.968.36-.344.719-.39.89-.39.032 0 .079 0 .11.015-.11.031-.172.14-.172.265 0 .172.14.282.297.282a.28.28 0 00.281-.297c0-.172-.11-.485-.5-.485-.203 0-.64.063-1.062.47a1.652 1.652 0 00-1.047-.36c-.938 0-1.625.687-1.625 1.453 0 .437.219.812.469 1.031-.125.14-.313.469-.313.828 0 .313.14.688.453.89-.61.157-.922.595-.922.985 0 .719.985 1.266 2.203 1.266 1.172 0 2.204-.5 2.204-1.281 0-.344-.125-.86-.641-1.141-.531-.266-1.11-.266-1.719-.266-.25 0-.672 0-.75-.015-.312-.047-.516-.344-.516-.672zM2.5 1.829C1.484 1.828.797 1.312.797.781c0-.453.375-.828.812-.844h.594c.86 0 1.969 0 1.969.844 0 .547-.703 1.047-1.672 1.047zm0 0"/></symbol><symbol overflow="visible" id="v"><path d="M2.14-4v-2.922l-1.765.078v.469c.61 0 .688 0 .688.39V0h.468l.485-.563c.078.079.562.625 1.453.625 1.484 0 2.515-.906 2.515-2.28 0-1.329-.937-2.266-2.39-2.266-.719 0-1.219.28-1.453.484zm.047 3.016v-2.5c.282-.36.75-.641 1.297-.641 1.22 0 1.22 1.203 1.22 1.906 0 .469 0 1.016-.25 1.406-.298.407-.75.516-1.079.516-.688 0-1.078-.547-1.188-.687zm0 0"/></symbol><symbol overflow="visible" id="w"><path d="M5.406-2.172c0-1.344-.922-2.344-2.547-2.344C1.22-4.516.313-3.5.313-2.172c0 1.235.89 2.235 2.546 2.235 1.672 0 2.547-1.016 2.547-2.235zM2.86-.344c-1.265 0-1.265-1.078-1.265-1.937 0-.453 0-.953.172-1.297.187-.375.609-.578 1.093-.578.422 0 .844.156 1.063.5.203.344.203.89.203 1.375 0 .86 0 1.937-1.266 1.937zm0 0"/></symbol><symbol overflow="visible" id="x"><path d="M1.14-3.547v3.078H.454V0c.281-.016.875-.031 1.25-.031.39 0 .984.015 1.25.031v-.469h-.687v-2.078c0-1.094.859-1.578 1.5-1.578.328 0 .546.203.546.969V-.47h-.687V0c.266-.016.875-.031 1.25-.031.39 0 .984.015 1.25.031v-.469h-.688v-2.578c0-1.047-.53-1.437-1.53-1.437-.954 0-1.485.562-1.75 1.078v-1.078l-1.704.078v.468c.61 0 .688 0 .688.391zm0 0"/></symbol><symbol overflow="visible" id="y"><path d="M4.172-.422v.484L5.984 0v-.469c-.609 0-.687 0-.687-.39v-6.063l-1.766.078v.469c.625 0 .703 0 .703.39v1.954a2.178 2.178 0 00-1.359-.453c-1.453 0-2.5.875-2.5 2.28 0 1.313.922 2.267 2.39 2.267.61 0 1.094-.235 1.407-.485zm0-3.094v2.485c-.14.187-.547.734-1.297.734-1.219 0-1.219-1.203-1.219-1.906 0-.485 0-1.016.25-1.406.297-.422.766-.516 1.078-.516.563 0 .97.313 1.188.61zm0 0"/></symbol><symbol overflow="visible" id="z"><path d="M2.11-2.938c-.376-.062-1.016-.171-1.016-.64 0-.625.922-.625 1.11-.625.75 0 1.124.297 1.171.844.016.156.031.203.234.203.235 0 .235-.047.235-.281v-.797c0-.188 0-.282-.172-.282-.047 0-.063 0-.453.188-.266-.125-.61-.188-1-.188-.313 0-1.844 0-1.844 1.313 0 .39.203.656.406.828.39.344.781.406 1.547.547.36.062 1.094.187 1.094.781 0 .75-.906.75-1.125.75C1.234-.297.984-1.03.859-1.453c-.046-.14-.109-.14-.234-.14-.25 0-.25.062-.25.28v1.094c0 .188 0 .281.188.281.062 0 .078 0 .296-.156.016 0 .235-.14.25-.172.47.329.985.329 1.188.329.312 0 1.844 0 1.844-1.454 0-.437-.204-.78-.547-1.062-.39-.281-.719-.344-1.485-.485zm0 0"/></symbol><symbol overflow="visible" id="A"><path d="M1.031-3.953v2.734c0 1.063.86 1.282 1.578 1.282.75 0 1.204-.579 1.204-1.297v-.532h-.47v.516c0 .672-.327.906-.609.906-.578 0-.578-.64-.578-.86v-2.75h1.469v-.468H2.156v-1.906h-.469c0 1-.484 1.984-1.484 2.016v.359zm0 0"/></symbol><symbol overflow="visible" id="B"><path d="M2.031-3.36v-1.124l-1.656.078v.468c.61 0 .688 0 .688.391v3.078H.375V0c.344-.016.797-.031 1.25-.031C2-.031 2.641-.031 3 0v-.469h-.86v-1.75c0-.687.235-1.906 1.235-1.906 0 .016-.188.172-.188.453 0 .406.329.61.61.61.297 0 .61-.204.61-.61 0-.531-.532-.812-1.063-.812-.688 0-1.094.5-1.313 1.125zm0 0"/></symbol><symbol overflow="visible" id="C"><path d="M4.61-2.172c.218 0 .312 0 .312-.265 0-.313-.063-1.047-.563-1.547-.359-.36-.89-.532-1.578-.532C1.187-4.516.312-3.484.312-2.25c0 1.344 1 2.313 2.61 2.313 1.578 0 2-1.063 2-1.235 0-.172-.188-.172-.234-.172-.172 0-.188.047-.25.203-.204.485-.782.797-1.422.797-1.407 0-1.422-1.328-1.422-1.828zM1.593-2.5c.015-.39.031-.813.234-1.14.266-.391.672-.516.953-.516 1.172 0 1.188 1.312 1.203 1.656zm0 0"/></symbol><symbol overflow="visible" id="D"><path d="M2.547-1.89c-.875 0-.875-.673-.875-1.126 0-.437 0-1.109.875-1.109s.875.672.875 1.11c0 .453 0 1.124-.875 1.124zm-1.219.093c.453.234.969.266 1.219.266 1.437 0 1.984-.782 1.984-1.485 0-.468-.25-.796-.406-.953.297-.156.516-.172.625-.187a.433.433 0 00-.047.203c0 .25.172.422.438.422a.41.41 0 00.421-.422c0-.235-.171-.578-.625-.578-.156 0-.625.031-1.062.375-.172-.125-.594-.328-1.328-.328-1.438 0-1.985.78-1.985 1.468 0 .407.188.829.516 1.047-.281.36-.344.688-.344.89 0 .157.047.641.438.954-.125.031-.86.25-.86.875C.313 1.25.875 2 2.86 2 4.625 2 5.406 1.422 5.406.719c0-.297-.078-.922-.75-1.266-.562-.281-1.156-.281-2.11-.281-.265 0-.718 0-.765-.016a.625.625 0 01-.562-.625c0-.093.047-.25.11-.328zm.61 1.922h1.171c.313 0 1.438 0 1.438.625 0 .36-.39.89-1.688.89-1.187 0-1.687-.452-1.687-.906 0-.609.625-.609.766-.609zm0 0"/></symbol><symbol overflow="visible" id="E"><path d="M1.14-.469H.454V0c.281-.016.875-.031 1.25-.031.39 0 .984.015 1.25.031v-.469h-.687v-2.078c0-1.094.859-1.578 1.5-1.578.328 0 .546.203.546.969V-.47h-.687V0c.266-.016.875-.031 1.25-.031.39 0 .984.015 1.25.031v-.469h-.688v-2.578c0-1.047-.53-1.437-1.53-1.437-.954 0-1.47.578-1.688.968v-3.406l-1.766.078v.469c.61 0 .688 0 .688.39zm0 0"/></symbol><symbol overflow="visible" id="H"><path d="M3.734-.766c0 .313 0 .766 1.032.766h.484c.188 0 .313 0 .313-.234 0-.235-.125-.235-.266-.235-.61-.015-.61-.14-.61-.375v-2.14c0-.891-.703-1.532-2.187-1.532-.563 0-1.781.047-1.781.922 0 .438.344.625.61.625.312 0 .64-.219.64-.625 0-.297-.188-.469-.219-.5.281-.047.594-.062.719-.062.734 0 1.094.422 1.094 1.172v.343c-.72.032-3.25.125-3.25 1.563 0 .953 1.25 1.14 1.937 1.14.797 0 1.266-.406 1.484-.828zm-.171-1.562v.937c0 .97-.922 1.094-1.172 1.094-.5 0-.907-.344-.907-.797 0-1.062 1.579-1.203 2.079-1.234zm0 0"/></symbol><symbol overflow="visible" id="I"><path d="M3.594-4.063a.618.618 0 00-.203.47c0 .437.343.624.609.624.313 0 .64-.219.64-.625 0-.86-1.156-.922-1.734-.922C1.11-4.516.375-3.375.375-2.219.375-.89 1.313.062 2.844.062c1.625 0 1.922-1.156 1.922-1.234 0-.14-.141-.14-.235-.14-.187 0-.187.03-.25.156-.25.625-.734.812-1.234.812-1.39 0-1.39-1.453-1.39-1.922 0-.562 0-1.843 1.28-1.843.36 0 .516.015.657.046zm0 0"/></symbol><symbol overflow="visible" id="J"><path d="M2.234-4.484L.5-4.406v.468c.594 0 .656 0 .656.391v3.078H.47V0c.312-.016.797-.031 1.219-.031.296 0 .812.015 1.156.031v-.469h-.61zm.094-1.672a.767.767 0 00-.765-.766.774.774 0 100 1.547.78.78 0 00.765-.781zm0 0"/></symbol><clipPath id="G"><path d="M28 0h2v170.875h-2zm0 0"/></clipPath><clipPath id="K"><path d="M11 19h245.113v112H11zm0 0"/></clipPath></defs><path d="M28.746 142.133V28.743h127.559v113.39zm0 0" fill="#ccf"/><path d="M156.305 142.133V28.743h99.215v113.39zm0 0" fill="#ffe5cc"/><use xlink:href="#a" x="77.472" y="104.32"/><use xlink:href="#b" x="80.24" y="104.32"/><use xlink:href="#c" x="83.007" y="104.32"/><use xlink:href="#b" x="91.309" y="104.32"/><use xlink:href="#d" x="94.077" y="104.32"/><use xlink:href="#e" x="97.951" y="104.32"/><use xlink:href="#f" x="102.379" y="104.32"/><use xlink:href="#g" x="111.231" y="104.32"/><use xlink:href="#h" x="116.488" y="104.32"/><use xlink:href="#f" x="76.877" y="116.275"/><use xlink:href="#e" x="82.412" y="116.275"/><use xlink:href="#i" x="86.84" y="116.275"/><use xlink:href="#j" x="90.769" y="116.275"/><use xlink:href="#k" x="95.75" y="116.275"/><use xlink:href="#l" x="99.653" y="116.275"/><use xlink:href="#d" x="105.188" y="116.275"/><use xlink:href="#b" x="109.062" y="116.275"/><use xlink:href="#j" x="111.83" y="116.275"/><use xlink:href="#m" x="116.811" y="116.275"/><use xlink:href="#j" x="76.905" y="128.23"/><use xlink:href="#n" x="81.886" y="128.23"/><use xlink:href="#l" x="88.248" y="128.23"/><use xlink:href="#k" x="93.784" y="128.23"/><use xlink:href="#j" x="97.686" y="128.23"/><use xlink:href="#f" x="102.946" y="128.23"/><use xlink:href="#o" x="108.481" y="128.23"/><use xlink:href="#p" x="114.017" y="128.23"/><use xlink:href="#d" x="118.444" y="128.23"/><use xlink:href="#a" x="176.684" y="105.289"/><use xlink:href="#b" x="179.452" y="105.289"/><use xlink:href="#c" x="182.219" y="105.289"/><use xlink:href="#b" x="190.521" y="105.289"/><use xlink:href="#d" x="193.289" y="105.289"/><use xlink:href="#e" x="197.163" y="105.289"/><use xlink:href="#f" x="201.59" y="105.289"/><g><use xlink:href="#g" x="210.443" y="105.289"/></g><g><use xlink:href="#h" x="215.709" y="105.289"/></g><g><use xlink:href="#q" x="177.376" y="117.244"/><use xlink:href="#p" x="182.357" y="117.244"/><use xlink:href="#d" x="186.785" y="117.244"/><use xlink:href="#b" x="190.659" y="117.244"/><use xlink:href="#r" x="193.427" y="117.244"/></g><g><use xlink:href="#q" x="198.127" y="117.244"/><use xlink:href="#d" x="203.108" y="117.244"/><use xlink:href="#b" x="206.983" y="117.244"/><use xlink:href="#j" x="209.75" y="117.244"/><use xlink:href="#m" x="214.732" y="117.244"/></g><g><use xlink:href="#j" x="175.287" y="129.199"/><use xlink:href="#n" x="180.268" y="129.199"/></g><g><use xlink:href="#k" x="186.63" y="129.199"/><use xlink:href="#e" x="190.533" y="129.199"/><use xlink:href="#q" x="194.96" y="129.199"/><use xlink:href="#p" x="199.941" y="129.199"/><use xlink:href="#d" x="204.369" y="129.199"/><use xlink:href="#q" x="208.243" y="129.199"/><use xlink:href="#m" x="213.225" y="129.199"/></g><g><use xlink:href="#d" x="218.491" y="129.199"/></g><path d="M186.715 23.074c0-9.683-13.613-17.535-30.41-17.535-16.793 0-30.41 7.852-30.41 17.535 0 9.684 13.617 17.535 30.41 17.535 16.797 0 30.41-7.851 30.41-17.535zm0 0" fill="#80bfbf"/><g><use xlink:href="#s" x="138.302" y="19.589"/><use xlink:href="#q" x="143.837" y="19.589"/><use xlink:href="#g" x="148.819" y="19.589"/><use xlink:href="#q" x="154.354" y="19.589"/><use xlink:href="#d" x="159.335" y="19.589"/><use xlink:href="#b" x="163.209" y="19.589"/><use xlink:href="#e" x="165.977" y="19.589"/><use xlink:href="#k" x="170.404" y="19.589"/></g><g><use xlink:href="#j" x="136.794" y="31.544"/><use xlink:href="#l" x="141.775" y="31.544"/><use xlink:href="#d" x="147.311" y="31.544"/><use xlink:href="#b" x="151.185" y="31.544"/><use xlink:href="#c" x="153.953" y="31.544"/></g><g><use xlink:href="#o" x="161.975" y="31.544"/><use xlink:href="#c" x="167.511" y="31.544"/></g><path d="M.398 142.133h254.415" fill="none" stroke-width=".797" stroke="#000" stroke-miterlimit="10"/><path d="M253.258 140.059c.129.777 1.554 1.941 1.941 2.074-.387.129-1.812 1.293-1.941 2.07" fill="none" stroke-width=".638" stroke-linecap="round" stroke-linejoin="round" stroke="#000" stroke-miterlimit="10"/><g><use xlink:href="#t" x="32.975" y="152.769"/></g><g><use xlink:href="#e" x="39.891" y="152.769"/><use xlink:href="#q" x="44.318" y="152.769"/><use xlink:href="#u" x="49.3" y="152.769"/></g><g><use xlink:href="#v" x="105.305" y="152.769"/></g><g><use xlink:href="#w" x="111.989" y="152.769"/><use xlink:href="#x" x="117.717" y="152.769"/><use xlink:href="#y" x="124.083" y="152.769"/></g><g><use xlink:href="#z" x="134.263" y="152.769"/><use xlink:href="#A" x="138.782" y="152.769"/><use xlink:href="#B" x="143.238" y="152.769"/><use xlink:href="#C" x="147.956" y="152.769"/><use xlink:href="#x" x="153.207" y="152.769"/><use xlink:href="#D" x="159.572" y="152.769"/><use xlink:href="#A" x="165.301" y="152.769"/><use xlink:href="#E" x="169.756" y="152.769"/></g><g><use xlink:href="#i" x="221.505" y="151.978"/><use xlink:href="#d" x="225.434" y="151.978"/><use xlink:href="#k" x="229.309" y="151.978"/><use xlink:href="#j" x="233.211" y="151.978"/><use xlink:href="#m" x="238.192" y="151.978"/><use xlink:href="#F" x="243.728" y="151.978"/></g><g clip-path="url(#G)"><path d="M28.746 170.477V1.105" fill="none" stroke-width=".797" stroke="#000" stroke-miterlimit="10"/></g><path d="M26.672 2.656c.777-.129 1.945-1.55 2.074-1.941.129.39 1.293 1.812 2.07 1.941" fill="none" stroke-width=".638" stroke-linecap="round" stroke-linejoin="round" stroke="#000" stroke-miterlimit="10"/><g><use xlink:href="#B" x="32.464" y="11.036"/><use xlink:href="#C" x="37.182" y="11.036"/><use xlink:href="#H" x="42.434" y="11.036"/><use xlink:href="#I" x="48.003" y="11.036"/><use xlink:href="#A" x="53.095" y="11.036"/><use xlink:href="#J" x="57.55" y="11.036"/><use xlink:href="#w" x="60.732" y="11.036"/><use xlink:href="#x" x="66.46" y="11.036"/></g><g><use xlink:href="#B" x="76.641" y="11.036"/><use xlink:href="#H" x="81.359" y="11.036"/><use xlink:href="#A" x="86.929" y="11.036"/><use xlink:href="#C" x="91.384" y="11.036"/></g><g clip-path="url(#K)"><path d="M28.746 113.785l109.715-73.144c9.855-6.57 25.137-5.649 34.129 2.058l82.93 71.086" fill="none" stroke-width="1.196" stroke="#000" stroke-miterlimit="10"/></g></svg>