<svg height="304.335pt" viewBox="0 0 504.345 304.335" width="504.345pt" xmlns="http://www.w3.org/2000/svg" xmlns:xlink="http://www.w3.org/1999/xlink"><clipPath id="a"><path d="m305 37h5v40h-5zm0 0"/></clipPath><clipPath id="b"><path d="m305.449219 37.898438c4.558593 12.527343 4.558593 26.257812 0 38.785156 4.847656-13.320313 17.589843-16.582032 31.765625-16.582032v-5.621093c-14.175782 0-26.917969-3.261719-31.765625-16.582031zm31.765625 22.203124h8.539062v-5.621093h-8.539062zm26.527344-13.789062c-2.582032 7.089844-2.582032 14.867188 0 21.957031-2.746094-7.539062-9.960938-8.167969-17.988282-8.167969v-5.621093c8.027344 0 15.242188-.628907 17.988282-8.167969zm0 0"/></clipPath><clipPath id="c"><path d="m360 37h4v40h-4zm0 0"/></clipPath><clipPath id="d"><path d="m305.449219 37.898438c4.558593 12.527343 4.558593 26.257812 0 38.785156 4.847656-13.320313 17.589843-16.582032 31.765625-16.582032v-5.621093c-14.175782 0-26.917969-3.261719-31.765625-16.582031zm31.765625 22.203124h8.539062v-5.621093h-8.539062zm26.527344-13.789062c-2.582032 7.089844-2.582032 14.867188 0 21.957031-2.746094-7.539062-9.960938-8.167969-17.988282-8.167969v-5.621093c8.027344 0 15.242188-.628907 17.988282-8.167969zm0 0"/></clipPath><clipPath id="e"><path d="m309 37h52.8125v40h-52.8125zm0 0"/></clipPath><clipPath id="f"><path d="m305.449219 37.898438c4.558593 12.527343 4.558593 26.257812 0 38.785156 4.847656-13.320313 17.589843-16.582032 31.765625-16.582032v-5.621093c-14.175782 0-26.917969-3.261719-31.765625-16.582031zm31.765625 22.203124h8.539062v-5.621093h-8.539062zm26.527344-13.789062c-2.582032 7.089844-2.582032 14.867188 0 21.957031-2.746094-7.539062-9.960938-8.167969-17.988282-8.167969v-5.621093c8.027344 0 15.242188-.628907 17.988282-8.167969zm0 0"/></clipPath><linearGradient id="g" gradientTransform="matrix(.52945 0 0 -1.134 308.86693 113.991)" gradientUnits="userSpaceOnUse" x1="0" x2="100" y1="0" y2="0"><stop offset="0" stop-color="#ff7f00"/><stop offset=".0078125" stop-color="#ff8000"/><stop offset=".015625" stop-color="#ff8100"/><stop offset=".0234375" stop-color="#ff8100"/><stop offset=".03125" stop-color="#ff8200"/><stop offset=".0390625" stop-color="#ff8300"/><stop offset=".046875" stop-color="#ff8300"/><stop offset=".0546875" stop-color="#ff8400"/><stop offset=".0625" stop-color="#ff8500"/><stop offset=".0703125" stop-color="#ff8500"/><stop offset=".078125" stop-color="#ff8600"/><stop offset=".0859375" stop-color="#ff8700"/><stop offset=".09375" stop-color="#ff8700"/><stop offset=".101562" stop-color="#f80"/><stop offset=".109375" stop-color="#ff8900"/><stop offset=".117188" stop-color="#ff8900"/><stop offset=".125" stop-color="#ff8a00"/><stop offset=".132812" stop-color="#ff8b00"/><stop offset=".140625" stop-color="#ff8b00"/><stop offset=".148437" stop-color="#ff8c00"/><stop offset=".15625" stop-color="#ff8d00"/><stop offset=".164063" stop-color="#ff8e00"/><stop offset=".171875" stop-color="#ff8e00"/><stop offset=".179688" stop-color="#ff8f00"/><stop offset=".1875" stop-color="#ff9000"/><stop offset=".195312" stop-color="#ff9000"/><stop offset=".203125" stop-color="#ff9100"/><stop offset=".210938" stop-color="#ff9200"/><stop offset=".21875" stop-color="#ff9200"/><stop offset=".226562" stop-color="#ff9300"/><stop offset=".234375" stop-color="#ff9400"/><stop offset=".242187" stop-color="#ff9400"/><stop offset=".25" stop-color="#ff9500"/><stop offset=".257812" stop-color="#ff9600"/><stop offset=".265625" stop-color="#ff9600"/><stop offset=".273438" stop-color="#ff9700"/><stop offset=".28125" stop-color="#ff9800"/><stop offset=".289062" stop-color="#f90"/><stop offset=".296875" stop-color="#f90"/><stop offset=".304688" stop-color="#ff9a00"/><stop offset=".3125" stop-color="#ff9b00"/><stop offset=".320312" stop-color="#ff9b00"/><stop offset=".328125" stop-color="#ff9c00"/><stop offset=".335938" stop-color="#ff9d00"/><stop offset=".34375" stop-color="#ff9d00"/><stop offset=".351562" stop-color="#ff9e00"/><stop offset=".359375" stop-color="#ff9f00"/><stop offset=".367188" stop-color="#ff9f00"/><stop offset=".375" stop-color="#ffa000"/><stop offset=".382812" stop-color="#ffa100"/><stop offset=".390625" stop-color="#ffa100"/><stop offset=".398438" stop-color="#ffa200"/><stop offset=".40625" stop-color="#ffa300"/><stop offset=".414062" stop-color="#ffa300"/><stop offset=".421875" stop-color="#ffa400"/><stop offset=".429688" stop-color="#ffa500"/><stop offset=".4375" stop-color="#ffa600"/><stop offset=".445312" stop-color="#ffa600"/><stop offset=".453125" stop-color="#ffa700"/><stop offset=".460938" stop-color="#ffa800"/><stop offset=".46875" stop-color="#ffa800"/><stop offset=".476562" stop-color="#ffa900"/><stop offset=".484375" stop-color="#fa0"/><stop offset=".492188" stop-color="#fa0"/><stop offset=".5" stop-color="#ffab00"/><stop offset=".507812" stop-color="#ffac00"/><stop offset=".515625" stop-color="#ffac00"/><stop offset=".523438" stop-color="#ffad00"/><stop offset=".53125" stop-color="#ffae00"/><stop offset=".539063" stop-color="#ffae00"/><stop offset=".546875" stop-color="#ffaf00"/><stop offset=".554687" stop-color="#ffb000"/><stop offset=".5625" stop-color="#ffb000"/><stop offset=".570312" stop-color="#ffb100"/><stop offset=".578125" stop-color="#ffb200"/><stop offset=".585937" stop-color="#ffb300"/><stop offset=".59375" stop-color="#ffb300"/><stop offset=".601562" stop-color="#ffb400"/><stop offset=".609375" stop-color="#ffb500"/><stop offset=".617188" stop-color="#ffb500"/><stop offset=".625" stop-color="#ffb600"/><stop offset=".632812" stop-color="#ffb700"/><stop offset=".640625" stop-color="#ffb700"/><stop offset=".648438" stop-color="#ffb800"/><stop offset=".65625" stop-color="#ffb900"/><stop offset=".664063" stop-color="#ffb900"/><stop offset=".671875" stop-color="#ffba00"/><stop offset=".679688" stop-color="#fb0"/><stop offset=".6875" stop-color="#fb0"/><stop offset=".695313" stop-color="#ffbc00"/><stop offset=".703125" stop-color="#ffbd00"/><stop offset=".710938" stop-color="#ffbe00"/><stop offset=".71875" stop-color="#ffbe00"/><stop offset=".726563" stop-color="#ffbf00"/><stop offset=".734375" stop-color="#ffc000"/><stop offset=".742187" stop-color="#ffc000"/><stop offset=".75" stop-color="#ffc100"/><stop offset=".757812" stop-color="#ffc200"/><stop offset=".765625" stop-color="#ffc200"/><stop offset=".773437" stop-color="#ffc300"/><stop offset=".78125" stop-color="#ffc400"/><stop offset=".789062" stop-color="#ffc400"/><stop offset=".796875" stop-color="#ffc500"/><stop offset=".804688" stop-color="#ffc600"/><stop offset=".8125" stop-color="#ffc600"/><stop offset=".820312" stop-color="#ffc700"/><stop offset=".828125" stop-color="#ffc800"/><stop offset=".835938" stop-color="#ffc800"/><stop offset=".84375" stop-color="#ffc900"/><stop offset=".851563" stop-color="#ffca00"/><stop offset=".859375" stop-color="#ffcb00"/><stop offset=".867188" stop-color="#ffcb00"/><stop offset=".875" stop-color="#fc0"/><stop offset=".882813" stop-color="#ffcd00"/><stop offset=".890625" stop-color="#ffcd00"/><stop offset=".898438" stop-color="#ffce00"/><stop offset=".90625" stop-color="#ffcf00"/><stop offset=".914062" stop-color="#ffcf00"/><stop offset=".921875" stop-color="#ffd000"/><stop offset=".929687" stop-color="#ffd100"/><stop offset=".9375" stop-color="#ffd100"/><stop offset=".945312" stop-color="#ffd200"/><stop offset=".953125" stop-color="#ffd300"/><stop offset=".960937" stop-color="#ffd300"/><stop offset=".96875" stop-color="#ffd400"/><stop offset=".976562" stop-color="#ffd500"/><stop offset=".984375" stop-color="#ffd600"/><stop offset=".992188" stop-color="#ffd600"/><stop offset="1" stop-color="#ffd700"/></linearGradient><clipPath id="h"><path d="m437 15h67.34375v84h-67.34375zm0 0"/></clipPath><clipPath id="i"><path d="m232 110h40v5h-40zm0 0"/></clipPath><clipPath id="j"><path d="m271.5625 110.566406c-12.523438 4.558594-26.257812 4.558594-38.78125 0 13.320312 4.847656 16.601562 17.589844 16.601562 31.765625h5.582032c0-14.175781 3.28125-26.917969 16.597656-31.765625zm-16.597656 40.625v-8.859375h-5.582032v8.859375zm8.117187 17.867188c-7.046875-2.566406-14.773437-2.566406-21.816406 0 7.492187-2.726563 8.117187-9.894532 8.117187-17.867188h5.582032c0 7.972656.625 15.140625 8.117187 17.867188zm0 0"/></clipPath><clipPath id="k"><path d="m232 166h40v4h-40zm0 0"/></clipPath><clipPath id="l"><path d="m271.5625 110.566406c-12.523438 4.558594-26.257812 4.558594-38.78125 0 13.320312 4.847656 16.601562 17.589844 16.601562 31.765625h5.582032c0-14.175781 3.28125-26.917969 16.597656-31.765625zm-16.597656 40.625v-8.859375h-5.582032v8.859375zm8.117187 17.867188c-7.046875-2.566406-14.773437-2.566406-21.816406 0 7.492187-2.726563 8.117187-9.894532 8.117187-17.867188h5.582032c0 7.972656.625 15.140625 8.117187 17.867188zm0 0"/></clipPath><clipPath id="m"><path d="m232 113.984375h40v53.15625h-40zm0 0"/></clipPath><clipPath id="n"><path d="m271.5625 110.566406c-12.523438 4.558594-26.257812 4.558594-38.78125 0 13.320312 4.847656 16.601562 17.589844 16.601562 31.765625h5.582032c0-14.175781 3.28125-26.917969 16.597656-31.765625zm-16.597656 40.625v-8.859375h-5.582032v8.859375zm8.117187 17.867188c-7.046875-2.566406-14.773437-2.566406-21.816406 0 7.492187-2.726563 8.117187-9.894532 8.117187-17.867188h5.582032c0 7.972656.625 15.140625 8.117187 17.867188zm0 0"/></clipPath><linearGradient id="o" gradientTransform="matrix(0 .53156 1.134 0 195.473 113.98471)" gradientUnits="userSpaceOnUse" x1="0" x2="100" y1="0" y2="0"><stop offset="0" stop-color="#ff7f00"/><stop offset=".00390625" stop-color="#fe7f01"/><stop offset=".0078125" stop-color="#fd7f01"/><stop offset=".0117188" stop-color="#fc7e02"/><stop offset=".015625" stop-color="#fb7e02"/><stop offset=".0195312" stop-color="#fa7d03"/><stop offset=".0234375" stop-color="#f97d03"/><stop offset=".0273438" stop-color="#f87c04"/><stop offset=".03125" stop-color="#f77c04"/><stop offset=".0351562" stop-color="#f67b05"/><stop offset=".0390625" stop-color="#f57b05"/><stop offset=".0429688" stop-color="#f47a06"/><stop offset=".046875" stop-color="#f37a07"/><stop offset=".0507812" stop-color="#f27907"/><stop offset=".0546875" stop-color="#f17908"/><stop offset=".0585938" stop-color="#f07808"/><stop offset=".0625" stop-color="#ef7809"/><stop offset=".0664062" stop-color="#ee7709"/><stop offset=".0703125" stop-color="#ed770a"/><stop offset=".0742188" stop-color="#ec760a"/><stop offset=".078125" stop-color="#eb760b"/><stop offset=".0820312" stop-color="#ea750b"/><stop offset=".0859375" stop-color="#e9750c"/><stop offset=".0898438" stop-color="#e8740c"/><stop offset=".09375" stop-color="#e7740d"/><stop offset=".0976562" stop-color="#e6730e"/><stop offset=".101562" stop-color="#e5730e"/><stop offset=".105469" stop-color="#e4720f"/><stop offset=".109375" stop-color="#e3720f"/><stop offset=".113281" stop-color="#e27110"/><stop offset=".117188" stop-color="#e17110"/><stop offset=".121094" stop-color="#e07011"/><stop offset=".125" stop-color="#df7011"/><stop offset=".128906" stop-color="#de6f12"/><stop offset=".132812" stop-color="#dd6f12"/><stop offset=".136719" stop-color="#dc6e13"/><stop offset=".140625" stop-color="#db6e14"/><stop offset=".144531" stop-color="#da6d14"/><stop offset=".148438" stop-color="#d96d15"/><stop offset=".152344" stop-color="#d86c15"/><stop offset=".15625" stop-color="#d76c16"/><stop offset=".160156" stop-color="#d66b16"/><stop offset=".164062" stop-color="#d56b17"/><stop offset=".167969" stop-color="#d46a17"/><stop offset=".171875" stop-color="#d36a18"/><stop offset=".175781" stop-color="#d26918"/><stop offset=".179688" stop-color="#d16919"/><stop offset=".183594" stop-color="#d0681a"/><stop offset=".1875" stop-color="#cf681a"/><stop offset=".191406" stop-color="#ce671b"/><stop offset=".195312" stop-color="#cd671b"/><stop offset=".199219" stop-color="#cc661c"/><stop offset=".203125" stop-color="#cb661c"/><stop offset=".207031" stop-color="#ca651d"/><stop offset=".210938" stop-color="#c9651d"/><stop offset=".214844" stop-color="#c8641e"/><stop offset=".21875" stop-color="#c7641e"/><stop offset=".222656" stop-color="#c6631f"/><stop offset=".226562" stop-color="#c5631f"/><stop offset=".230469" stop-color="#c46220"/><stop offset=".234375" stop-color="#c36221"/><stop offset=".238281" stop-color="#c26121"/><stop offset=".242188" stop-color="#c16122"/><stop offset=".246094" stop-color="#c06022"/><stop offset=".25" stop-color="#bf6023"/><stop offset=".253906" stop-color="#be5f23"/><stop offset=".257812" stop-color="#bd5f24"/><stop offset=".261719" stop-color="#bc5e24"/><stop offset=".265625" stop-color="#bb5e25"/><stop offset=".269531" stop-color="#ba5d25"/><stop offset=".273438" stop-color="#b95d26"/><stop offset=".277344" stop-color="#b85c27"/><stop offset=".28125" stop-color="#b75c27"/><stop offset=".285156" stop-color="#b65b28"/><stop offset=".289062" stop-color="#b55b28"/><stop offset=".292969" stop-color="#b45a29"/><stop offset=".296875" stop-color="#b35a29"/><stop offset=".300781" stop-color="#b2592a"/><stop offset=".304688" stop-color="#b1592a"/><stop offset=".308594" stop-color="#b0582b"/><stop offset=".3125" stop-color="#af582b"/><stop offset=".316406" stop-color="#ae572c"/><stop offset=".320312" stop-color="#ad572d"/><stop offset=".324219" stop-color="#ac562d"/><stop offset=".328125" stop-color="#ab562e"/><stop offset=".332031" stop-color="#aa552e"/><stop offset=".335938" stop-color="#a9552f"/><stop offset=".339844" stop-color="#a8542f"/><stop offset=".34375" stop-color="#a75430"/><stop offset=".347656" stop-color="#a65330"/><stop offset=".351562" stop-color="#a55331"/><stop offset=".355469" stop-color="#a45231"/><stop offset=".359375" stop-color="#a35232"/><stop offset=".363281" stop-color="#a25132"/><stop offset=".367188" stop-color="#a15133"/><stop offset=".371094" stop-color="#a05034"/><stop offset=".375" stop-color="#9f5034"/><stop offset=".378906" stop-color="#9e4f35"/><stop offset=".382812" stop-color="#9d4f35"/><stop offset=".386719" stop-color="#9c4e36"/><stop offset=".390625" stop-color="#9b4e36"/><stop offset=".394531" stop-color="#9a4d37"/><stop offset=".398438" stop-color="#994d37"/><stop offset=".402344" stop-color="#984c38"/><stop offset=".40625" stop-color="#974c38"/><stop offset=".410156" stop-color="#964b39"/><stop offset=".414062" stop-color="#954b3a"/><stop offset=".417969" stop-color="#944a3a"/><stop offset=".421875" stop-color="#934a3b"/><stop offset=".425781" stop-color="#92493b"/><stop offset=".429688" stop-color="#91493c"/><stop offset=".433594" stop-color="#90483c"/><stop offset=".4375" stop-color="#8f483d"/><stop offset=".441406" stop-color="#8e473d"/><stop offset=".445312" stop-color="#8d473e"/><stop offset=".449219" stop-color="#8c463e"/><stop offset=".453125" stop-color="#8b463f"/><stop offset=".457031" stop-color="#8a4540"/><stop offset=".460938" stop-color="#894540"/><stop offset=".464844" stop-color="#884441"/><stop offset=".46875" stop-color="#874441"/><stop offset=".472656" stop-color="#864342"/><stop offset=".476562" stop-color="#854342"/><stop offset=".480469" stop-color="#844243"/><stop offset=".484375" stop-color="#834243"/><stop offset=".488281" stop-color="#824144"/><stop offset=".492188" stop-color="#814144"/><stop offset=".496094" stop-color="#804045"/><stop offset=".5" stop-color="#7f4045"/><stop offset=".503906" stop-color="#7f3f46"/><stop offset=".507812" stop-color="#7e3f47"/><stop offset=".511719" stop-color="#7d3e47"/><stop offset=".515625" stop-color="#7c3e48"/><stop offset=".519531" stop-color="#7b3d48"/><stop offset=".523437" stop-color="#7a3d49"/><stop offset=".527344" stop-color="#793c49"/><stop offset=".53125" stop-color="#783c4a"/><stop offset=".535156" stop-color="#773b4a"/><stop offset=".539062" stop-color="#763b4b"/><stop offset=".542969" stop-color="#753a4b"/><stop offset=".546875" stop-color="#743a4c"/><stop offset=".550781" stop-color="#73394d"/><stop offset=".554688" stop-color="#72394d"/><stop offset=".558594" stop-color="#71384e"/><stop offset=".5625" stop-color="#70384e"/><stop offset=".566406" stop-color="#6f374f"/><stop offset=".570312" stop-color="#6e374f"/><stop offset=".574219" stop-color="#6d3650"/><stop offset=".578125" stop-color="#6c3650"/><stop offset=".582031" stop-color="#6b3551"/><stop offset=".585938" stop-color="#6a3551"/><stop offset=".589844" stop-color="#693452"/><stop offset=".59375" stop-color="#683453"/><stop offset=".597656" stop-color="#673353"/><stop offset=".601563" stop-color="#663354"/><stop offset=".605469" stop-color="#653254"/><stop offset=".609375" stop-color="#643255"/><stop offset=".613281" stop-color="#633155"/><stop offset=".617188" stop-color="#623156"/><stop offset=".621094" stop-color="#613056"/><stop offset=".625" stop-color="#603057"/><stop offset=".628906" stop-color="#5f2f57"/><stop offset=".632812" stop-color="#5e2f58"/><stop offset=".636719" stop-color="#5d2e58"/><stop offset=".640625" stop-color="#5c2e59"/><stop offset=".644531" stop-color="#5b2d5a"/><stop offset=".648437" stop-color="#5a2d5a"/><stop offset=".652344" stop-color="#592c5b"/><stop offset=".65625" stop-color="#582c5b"/><stop offset=".660156" stop-color="#572b5c"/><stop offset=".664062" stop-color="#562b5c"/><stop offset=".667969" stop-color="#552a5d"/><stop offset=".671875" stop-color="#542a5d"/><stop offset=".675781" stop-color="#53295e"/><stop offset=".679688" stop-color="#52295e"/><stop offset=".683594" stop-color="#51285f"/><stop offset=".6875" stop-color="#502860"/><stop offset=".691406" stop-color="#4f2760"/><stop offset=".695312" stop-color="#4e2761"/><stop offset=".699219" stop-color="#4d2661"/><stop offset=".703125" stop-color="#4c2662"/><stop offset=".707031" stop-color="#4b2562"/><stop offset=".710938" stop-color="#4a2563"/><stop offset=".714844" stop-color="#492463"/><stop offset=".71875" stop-color="#482464"/><stop offset=".722656" stop-color="#472364"/><stop offset=".726563" stop-color="#462365"/><stop offset=".730469" stop-color="#452266"/><stop offset=".734375" stop-color="#426"/><stop offset=".738281" stop-color="#432167"/><stop offset=".742188" stop-color="#422167"/><stop offset=".746094" stop-color="#412068"/><stop offset=".75" stop-color="#402068"/><stop offset=".753906" stop-color="#3f1f69"/><stop offset=".757812" stop-color="#3e1f69"/><stop offset=".761719" stop-color="#3d1e6a"/><stop offset=".765625" stop-color="#3c1e6a"/><stop offset=".769531" stop-color="#3b1d6b"/><stop offset=".773437" stop-color="#3a1d6b"/><stop offset=".777344" stop-color="#391c6c"/><stop offset=".78125" stop-color="#381c6d"/><stop offset=".785156" stop-color="#371b6d"/><stop offset=".789062" stop-color="#361b6e"/><stop offset=".792969" stop-color="#351a6e"/><stop offset=".796875" stop-color="#341a6f"/><stop offset=".800781" stop-color="#33196f"/><stop offset=".804688" stop-color="#321970"/><stop offset=".808594" stop-color="#311870"/><stop offset=".8125" stop-color="#301871"/><stop offset=".816406" stop-color="#2f1771"/><stop offset=".820312" stop-color="#2e1772"/><stop offset=".824219" stop-color="#2d1673"/><stop offset=".828125" stop-color="#2c1673"/><stop offset=".832031" stop-color="#2b1574"/><stop offset=".835938" stop-color="#2a1574"/><stop offset=".839844" stop-color="#291475"/><stop offset=".84375" stop-color="#281475"/><stop offset=".847656" stop-color="#271376"/><stop offset=".851563" stop-color="#261376"/><stop offset=".855469" stop-color="#251277"/><stop offset=".859375" stop-color="#241277"/><stop offset=".863281" stop-color="#231178"/><stop offset=".867188" stop-color="#221179"/><stop offset=".871094" stop-color="#211079"/><stop offset=".875" stop-color="#20107a"/><stop offset=".878906" stop-color="#1f0f7a"/><stop offset=".882812" stop-color="#1e0f7b"/><stop offset=".886719" stop-color="#1d0e7b"/><stop offset=".890625" stop-color="#1c0e7c"/><stop offset=".894531" stop-color="#1b0d7c"/><stop offset=".898437" stop-color="#1a0d7d"/><stop offset=".902344" stop-color="#190c7d"/><stop offset=".90625" stop-color="#180c7e"/><stop offset=".910156" stop-color="#170b7e"/><stop offset=".914062" stop-color="#160b7f"/><stop offset=".917969" stop-color="#150a80"/><stop offset=".921875" stop-color="#140a80"/><stop offset=".925781" stop-color="#130981"/><stop offset=".929688" stop-color="#120981"/><stop offset=".933594" stop-color="#110882"/><stop offset=".9375" stop-color="#100882"/><stop offset=".941406" stop-color="#0f0783"/><stop offset=".945312" stop-color="#0e0783"/><stop offset=".949219" stop-color="#0d0684"/><stop offset=".953125" stop-color="#0c0684"/><stop offset=".957031" stop-color="#0b0585"/><stop offset=".960938" stop-color="#0a0586"/><stop offset=".964844" stop-color="#090486"/><stop offset=".96875" stop-color="#080487"/><stop offset=".972656" stop-color="#070387"/><stop offset=".976563" stop-color="#060388"/><stop offset=".980469" stop-color="#050288"/><stop offset=".984375" stop-color="#040289"/><stop offset=".988281" stop-color="#030189"/><stop offset=".992188" stop-color="#02018a"/><stop offset=".996094" stop-color="#01008a"/><stop offset="1" stop-color="#00008b"/></linearGradient><clipPath id="p"><path d="m239 237h84v67.335938h-84zm0 0"/></clipPath><clipPath id="q"><path d="m174 234h84v70.335938h-84zm0 0"/></clipPath><clipPath id="r"><path d="m194 37h5v40h-5zm0 0"/></clipPath><clipPath id="s"><path d="m198.898438 76.683594c-4.558594-12.527344-4.558594-26.257813 0-38.785156-4.847657 13.320312-17.59375 16.601562-31.765626 16.601562v5.582031c14.171876 0 26.917969 3.28125 31.765626 16.601563zm-40.625-16.601563h8.859374v-5.582031h-8.859374zm-17.867188 8.117188c2.5625-7.046875 2.5625-14.769531 0-21.816407 2.726562 7.492188 9.894531 8.117188 17.867188 8.117188v5.582031c-7.972657 0-15.140626.625-17.867188 8.117188zm0 0"/></clipPath><clipPath id="t"><path d="m140 37h4v40h-4zm0 0"/></clipPath><clipPath id="u"><path d="m198.898438 76.683594c-4.558594-12.527344-4.558594-26.257813 0-38.785156-4.847657 13.320312-17.59375 16.601562-31.765626 16.601562v5.582031c14.171876 0 26.917969 3.28125 31.765626 16.601563zm-40.625-16.601563h8.859374v-5.582031h-8.859374zm-17.867188 8.117188c2.5625-7.046875 2.5625-14.769531 0-21.816407 2.726562 7.492188 9.894531 8.117188 17.867188 8.117188v5.582031c-7.972657 0-15.140626.625-17.867188 8.117188zm0 0"/></clipPath><clipPath id="v"><path d="m142.324219 37h52.675781v40h-52.675781zm0 0"/></clipPath><clipPath id="w"><path d="m198.898438 76.683594c-4.558594-12.527344-4.558594-26.257813 0-38.785156-4.847657 13.320312-17.59375 16.601562-31.765626 16.601562v5.582031c14.171876 0 26.917969 3.28125 31.765626 16.601563zm-40.625-16.601563h8.859374v-5.582031h-8.859374zm-17.867188 8.117188c2.5625-7.046875 2.5625-14.769531 0-21.816407 2.726562 7.492188 9.894531 8.117188 17.867188 8.117188v5.582031c-7.972657 0-15.140626.625-17.867188 8.117188zm0 0"/></clipPath><linearGradient id="x" gradientTransform="matrix(-.53156 0 0 1.134 195.47929 .591)" gradientUnits="userSpaceOnUse" x1="0" x2="100" y1="0" y2="0"><stop offset="0" stop-color="#ff7f00"/><stop offset=".00390625" stop-color="#fe7f00"/><stop offset=".0078125" stop-color="#fd7f01"/><stop offset=".0117188" stop-color="#fc7f01"/><stop offset=".015625" stop-color="#fb7f02"/><stop offset=".0195312" stop-color="#fa7f02"/><stop offset=".0234375" stop-color="#f97f03"/><stop offset=".0273438" stop-color="#f87f03"/><stop offset=".03125" stop-color="#f77f04"/><stop offset=".0351562" stop-color="#f67f04"/><stop offset=".0390625" stop-color="#f57f05"/><stop offset=".0429688" stop-color="#f47f05"/><stop offset=".046875" stop-color="#f37f06"/><stop offset=".0507812" stop-color="#f27f06"/><stop offset=".0546875" stop-color="#f17f07"/><stop offset=".0585938" stop-color="#f07f07"/><stop offset=".0625" stop-color="#ef7f08"/><stop offset=".0664062" stop-color="#ee7f08"/><stop offset=".0703125" stop-color="#ed7f09"/><stop offset=".0742187" stop-color="#ec7f09"/><stop offset=".078125" stop-color="#eb7f0a"/><stop offset=".0820313" stop-color="#ea7f0a"/><stop offset=".0859375" stop-color="#e97f0b"/><stop offset=".0898438" stop-color="#e87f0b"/><stop offset=".09375" stop-color="#e77f0c"/><stop offset=".0976562" stop-color="#e67f0c"/><stop offset=".101562" stop-color="#e57f0d"/><stop offset=".105469" stop-color="#e47f0d"/><stop offset=".109375" stop-color="#e37f0e"/><stop offset=".113281" stop-color="#e27f0e"/><stop offset=".117188" stop-color="#e17f0f"/><stop offset=".121094" stop-color="#e07f0f"/><stop offset=".125" stop-color="#df7f10"/><stop offset=".128906" stop-color="#de7f10"/><stop offset=".132812" stop-color="#dd7f11"/><stop offset=".136719" stop-color="#dc7f11"/><stop offset=".140625" stop-color="#db7f12"/><stop offset=".144531" stop-color="#da7f12"/><stop offset=".148437" stop-color="#d97f13"/><stop offset=".152344" stop-color="#d87f13"/><stop offset=".15625" stop-color="#d77f14"/><stop offset=".160156" stop-color="#d67f14"/><stop offset=".164063" stop-color="#d57f15"/><stop offset=".167969" stop-color="#d47f15"/><stop offset=".171875" stop-color="#d37f16"/><stop offset=".175781" stop-color="#d27f16"/><stop offset=".179688" stop-color="#d17f17"/><stop offset=".183594" stop-color="#d07f17"/><stop offset=".1875" stop-color="#cf7f18"/><stop offset=".191406" stop-color="#ce7f18"/><stop offset=".195312" stop-color="#cd7f19"/><stop offset=".199219" stop-color="#cc7f19"/><stop offset=".203125" stop-color="#cb7f1a"/><stop offset=".207031" stop-color="#ca7f1a"/><stop offset=".210938" stop-color="#c97f1b"/><stop offset=".214844" stop-color="#c87f1b"/><stop offset=".21875" stop-color="#c77f1c"/><stop offset=".222656" stop-color="#c67f1c"/><stop offset=".226562" stop-color="#c57f1d"/><stop offset=".230469" stop-color="#c47f1d"/><stop offset=".234375" stop-color="#c37f1e"/><stop offset=".238281" stop-color="#c27f1e"/><stop offset=".242187" stop-color="#c17f1f"/><stop offset=".246094" stop-color="#c07f1f"/><stop offset=".25" stop-color="#bf7f20"/><stop offset=".253906" stop-color="#be7f20"/><stop offset=".257812" stop-color="#bd7f21"/><stop offset=".261719" stop-color="#bc7f21"/><stop offset=".265625" stop-color="#bb7f22"/><stop offset=".269531" stop-color="#ba7f22"/><stop offset=".273438" stop-color="#b97f23"/><stop offset=".277344" stop-color="#b87f23"/><stop offset=".28125" stop-color="#b77f24"/><stop offset=".285156" stop-color="#b67f24"/><stop offset=".289062" stop-color="#b57f25"/><stop offset=".292969" stop-color="#b47f25"/><stop offset=".296875" stop-color="#b37f26"/><stop offset=".300781" stop-color="#b27f26"/><stop offset=".304688" stop-color="#b17f27"/><stop offset=".308594" stop-color="#b07f27"/><stop offset=".3125" stop-color="#af7f28"/><stop offset=".316406" stop-color="#ae7f28"/><stop offset=".320312" stop-color="#ad7f29"/><stop offset=".324219" stop-color="#ac7f29"/><stop offset=".328125" stop-color="#ab7f2a"/><stop offset=".332031" stop-color="#aa7f2a"/><stop offset=".335938" stop-color="#a97f2b"/><stop offset=".339844" stop-color="#a87f2b"/><stop offset=".34375" stop-color="#a77f2c"/><stop offset=".347656" stop-color="#a67f2c"/><stop offset=".351562" stop-color="#a57f2d"/><stop offset=".355469" stop-color="#a47f2d"/><stop offset=".359375" stop-color="#a37f2e"/><stop offset=".363281" stop-color="#a27f2e"/><stop offset=".367188" stop-color="#a17f2f"/><stop offset=".371094" stop-color="#a07f2f"/><stop offset=".375" stop-color="#9f7f30"/><stop offset=".378906" stop-color="#9e7f30"/><stop offset=".382812" stop-color="#9d7f31"/><stop offset=".386719" stop-color="#9c7f31"/><stop offset=".390625" stop-color="#9b7f32"/><stop offset=".394531" stop-color="#9a7f32"/><stop offset=".398438" stop-color="#997f33"/><stop offset=".402344" stop-color="#987f33"/><stop offset=".40625" stop-color="#977f34"/><stop offset=".410156" stop-color="#967f34"/><stop offset=".414062" stop-color="#957f35"/><stop offset=".417969" stop-color="#947f35"/><stop offset=".421875" stop-color="#937f36"/><stop offset=".425781" stop-color="#927f36"/><stop offset=".429688" stop-color="#917f37"/><stop offset=".433594" stop-color="#907f37"/><stop offset=".4375" stop-color="#8f7f38"/><stop offset=".441406" stop-color="#8e7f38"/><stop offset=".445312" stop-color="#8d7f39"/><stop offset=".449219" stop-color="#8c7f39"/><stop offset=".453125" stop-color="#8b7f3a"/><stop offset=".457031" stop-color="#8a7f3a"/><stop offset=".460938" stop-color="#897f3b"/><stop offset=".464844" stop-color="#887f3b"/><stop offset=".46875" stop-color="#877f3c"/><stop offset=".472656" stop-color="#867f3c"/><stop offset=".476562" stop-color="#857f3d"/><stop offset=".480469" stop-color="#847f3d"/><stop offset=".484375" stop-color="#837f3e"/><stop offset=".488281" stop-color="#827f3e"/><stop offset=".492188" stop-color="#817f3f"/><stop offset=".496094" stop-color="#807f3f"/><stop offset=".5" stop-color="#7f7f40"/><stop offset=".503906" stop-color="#7f7f40"/><stop offset=".507812" stop-color="#7e7f41"/><stop offset=".511719" stop-color="#7d7f41"/><stop offset=".515625" stop-color="#7c7f42"/><stop offset=".519531" stop-color="#7b7f42"/><stop offset=".523438" stop-color="#7a7f43"/><stop offset=".527344" stop-color="#797f43"/><stop offset=".53125" stop-color="#787f44"/><stop offset=".535156" stop-color="#777f44"/><stop offset=".539063" stop-color="#767f45"/><stop offset=".542969" stop-color="#757f45"/><stop offset=".546875" stop-color="#747f46"/><stop offset=".550781" stop-color="#737f46"/><stop offset=".554687" stop-color="#727f47"/><stop offset=".558594" stop-color="#717f47"/><stop offset=".5625" stop-color="#707f48"/><stop offset=".566406" stop-color="#6f7f48"/><stop offset=".570312" stop-color="#6e7f49"/><stop offset=".574219" stop-color="#6d7f49"/><stop offset=".578125" stop-color="#6c7f4a"/><stop offset=".582031" stop-color="#6b7f4a"/><stop offset=".585937" stop-color="#6a7f4b"/><stop offset=".589844" stop-color="#697f4b"/><stop offset=".59375" stop-color="#687f4c"/><stop offset=".597656" stop-color="#677f4c"/><stop offset=".601562" stop-color="#667f4d"/><stop offset=".605469" stop-color="#657f4d"/><stop offset=".609375" stop-color="#647f4e"/><stop offset=".613281" stop-color="#637f4e"/><stop offset=".617188" stop-color="#627f4f"/><stop offset=".621094" stop-color="#617f4f"/><stop offset=".625" stop-color="#607f50"/><stop offset=".628906" stop-color="#5f7f50"/><stop offset=".632812" stop-color="#5e7f51"/><stop offset=".636719" stop-color="#5d7f51"/><stop offset=".640625" stop-color="#5c7f52"/><stop offset=".644531" stop-color="#5b7f52"/><stop offset=".648438" stop-color="#5a7f53"/><stop offset=".652344" stop-color="#597f53"/><stop offset=".65625" stop-color="#587f54"/><stop offset=".660156" stop-color="#577f54"/><stop offset=".664063" stop-color="#567f55"/><stop offset=".667969" stop-color="#557f55"/><stop offset=".671875" stop-color="#547f56"/><stop offset=".675781" stop-color="#537f56"/><stop offset=".679688" stop-color="#527f57"/><stop offset=".683594" stop-color="#517f57"/><stop offset=".6875" stop-color="#507f58"/><stop offset=".691406" stop-color="#4f7f58"/><stop offset=".695313" stop-color="#4e7f59"/><stop offset=".699219" stop-color="#4d7f59"/><stop offset=".703125" stop-color="#4c7f5a"/><stop offset=".707031" stop-color="#4b7f5a"/><stop offset=".710938" stop-color="#4a7f5b"/><stop offset=".714844" stop-color="#497f5b"/><stop offset=".71875" stop-color="#487f5c"/><stop offset=".722656" stop-color="#477f5c"/><stop offset=".726563" stop-color="#467f5d"/><stop offset=".730469" stop-color="#457f5d"/><stop offset=".734375" stop-color="#447f5e"/><stop offset=".738281" stop-color="#437f5e"/><stop offset=".742187" stop-color="#427f5f"/><stop offset=".746094" stop-color="#417f5f"/><stop offset=".75" stop-color="#407f60"/><stop offset=".753906" stop-color="#3f7f60"/><stop offset=".757812" stop-color="#3e7f61"/><stop offset=".761719" stop-color="#3d7f61"/><stop offset=".765625" stop-color="#3c7f62"/><stop offset=".769531" stop-color="#3b7f62"/><stop offset=".773437" stop-color="#3a7f63"/><stop offset=".777344" stop-color="#397f63"/><stop offset=".78125" stop-color="#387f64"/><stop offset=".785156" stop-color="#377f64"/><stop offset=".789062" stop-color="#367f65"/><stop offset=".792969" stop-color="#357f65"/><stop offset=".796875" stop-color="#347f66"/><stop offset=".800781" stop-color="#337f66"/><stop offset=".804688" stop-color="#327f67"/><stop offset=".808594" stop-color="#317f67"/><stop offset=".8125" stop-color="#307f68"/><stop offset=".816406" stop-color="#2f7f68"/><stop offset=".820312" stop-color="#2e7f69"/><stop offset=".824219" stop-color="#2d7f69"/><stop offset=".828125" stop-color="#2c7f6a"/><stop offset=".832031" stop-color="#2b7f6a"/><stop offset=".835938" stop-color="#2a7f6b"/><stop offset=".839844" stop-color="#297f6b"/><stop offset=".84375" stop-color="#287f6c"/><stop offset=".847656" stop-color="#277f6c"/><stop offset=".851563" stop-color="#267f6d"/><stop offset=".855469" stop-color="#257f6d"/><stop offset=".859375" stop-color="#247f6e"/><stop offset=".863281" stop-color="#237f6e"/><stop offset=".867188" stop-color="#227f6f"/><stop offset=".871094" stop-color="#217f6f"/><stop offset=".875" stop-color="#207f70"/><stop offset=".878906" stop-color="#1f7f70"/><stop offset=".882813" stop-color="#1e7f71"/><stop offset=".886719" stop-color="#1d7f71"/><stop offset=".890625" stop-color="#1c7f72"/><stop offset=".894531" stop-color="#1b7f72"/><stop offset=".898438" stop-color="#1a7f73"/><stop offset=".902344" stop-color="#197f73"/><stop offset=".90625" stop-color="#187f74"/><stop offset=".910156" stop-color="#177f74"/><stop offset=".914062" stop-color="#167f75"/><stop offset=".917969" stop-color="#157f75"/><stop offset=".921875" stop-color="#147f76"/><stop offset=".925781" stop-color="#137f76"/><stop offset=".929687" stop-color="#127f77"/><stop offset=".933594" stop-color="#117f77"/><stop offset=".9375" stop-color="#107f78"/><stop offset=".941406" stop-color="#0f7f78"/><stop offset=".945312" stop-color="#0e7f79"/><stop offset=".949219" stop-color="#0d7f79"/><stop offset=".953125" stop-color="#0c7f7a"/><stop offset=".957031" stop-color="#0b7f7a"/><stop offset=".960937" stop-color="#0a7f7b"/><stop offset=".964844" stop-color="#097f7b"/><stop offset=".96875" stop-color="#087f7c"/><stop offset=".972656" stop-color="#077f7c"/><stop offset=".976562" stop-color="#067f7d"/><stop offset=".980469" stop-color="#057f7d"/><stop offset=".984375" stop-color="#047f7e"/><stop offset=".988281" stop-color="#037f7e"/><stop offset=".992188" stop-color="#027f7f"/><stop offset=".996094" stop-color="#017f7f"/><stop offset="1" stop-color="#007f7f"/></linearGradient><symbol id="y" overflow="visible"><path d="m4.375-7.578125c-1.703125-.375-1.75-1.609375-1.75-1.859375 0-.875.5625-1.890625 2.234375-1.890625s3.171875.8125 3.53125 3.0625c.046875.359375.046875.375.375.375.359375 0 .359375-.046875.359375-.4375v-3.25c0-.3125 0-.4375-.25-.4375-.125 0-.171875.015625-.328125.1875l-.75.84375c-.421875-.359375-1.28125-1.03125-2.953125-1.03125-2.46875 0-3.78125 1.546875-3.78125 3.421875 0 1.15625.625 1.96875.859375 2.203125.90625.890625 1.390625 1 3.171875 1.390625 1.71875.390625 1.9375.421875 2.3125.78125.21875.21875.71875.703125.71875 1.578125 0 .75-.359375 2.109375-2.28125 2.109375-1.515625 0-3.921875-.515625-4.046875-3.03125-.015625-.3125-.015625-.359375-.375-.359375s-.359375.046875-.359375.4375v3.25c0 .328125 0 .4375.265625.4375.125 0 .140625-.015625.3125-.171875.1875-.1875.34375-.40625.765625-.84375 1 .796875 2.421875 1.015625 3.453125 1.015625 2.6875 0 3.8125-1.828125 3.8125-3.640625 0-1.625-1.0625-3.171875-2.9375-3.609375zm0 0"/></symbol><symbol id="z" overflow="visible"><path d="m3.84375-10.734375c0-.703125-.578125-1.234375-1.25-1.234375-.703125 0-1.234375.59375-1.234375 1.234375 0 .65625.53125 1.25 1.234375 1.25.671875 0 1.25-.53125 1.25-1.25zm-3.03125 3.125v.734375c1.015625 0 1.140625 0 1.140625.671875v5.46875h-1.203125v.734375c.40625-.03125 1.59375-.03125 2.0625-.03125s1.578125 0 1.984375.03125v-.734375h-1.0625v-7.015625zm0 0"/></symbol><symbol id="A" overflow="visible"><path d="m8.0625-2.015625c0-.203125-.1875-.203125-.359375-.203125-.28125 0-.296875.015625-.390625.21875-.109375.328125-.578125 1.484375-2.171875 1.484375-2.421875 0-2.421875-2.625-2.421875-3.390625 0-1.015625.015625-3.28125 2.28125-3.28125.109375 0 1.125.046875 1.125.125 0 .015625-.015625.03125-.046875.046875-.046875.0625-.28125.3125-.28125.75 0 .71875.59375 1.015625 1.015625 1.015625.375 0 1.015625-.21875 1.015625-1.03125 0-1.421875-1.96875-1.515625-2.90625-1.515625-3.0625 0-4.265625 2-4.265625 3.96875 0 2.34375 1.640625 3.9375 4.171875 3.9375 2.703125 0 3.234375-2 3.234375-2.125zm0 0"/></symbol><symbol id="B" overflow="visible"><path d="m9.140625-5.265625c0-1.640625-.703125-2.484375-2.59375-2.484375-1.75 0-2.59375 1.21875-2.828125 1.734375h-.015625v-5.9375l-2.984375.140625v.734375c1.078125 0 1.1875 0 1.1875.671875v9.671875h-1.1875v.734375c.40625-.03125 1.640625-.03125 2.125-.03125s1.734375 0 2.125.03125v-.734375h-1.1875v-3.671875c0-1.859375 1.390625-2.78125 2.484375-2.78125.640625 0 1 .421875 1 1.734375v4.71875h-1.1875v.734375c.390625-.03125 1.640625-.03125 2.125-.03125.46875 0 1.734375 0 2.125.03125v-.734375h-1.1875zm0 0"/></symbol><symbol id="C" overflow="visible"><path d="m7.78125-3.8125c.390625 0 .5 0 .5-.421875 0-.515625-.125-1.8125-.90625-2.625-.734375-.71875-1.6875-.9375-2.6875-.9375-2.6875 0-4.15625 1.75-4.15625 3.921875 0 2.40625 1.78125 3.984375 4.375 3.984375s3.375-1.828125 3.375-2.125c0-.25-.25-.25-.359375-.25-.28125 0-.296875.046875-.390625.265625-.453125 1.125-1.59375 1.484375-2.421875 1.484375-2.484375 0-2.515625-2.328125-2.515625-3.296875zm-5.1875-.5c.046875-.703125.0625-1.375.421875-1.984375.328125-.5625.921875-.9375 1.671875-.9375 1.84375 0 2 2.0625 2.015625 2.921875zm0 0"/></symbol><symbol id="D" overflow="visible"><path d="m3.578125-3.875c0-.5625.125-3.3125 2.140625-3.3125-.25.203125-.359375.484375-.359375.796875 0 .703125.5625 1 1 1 .421875 0 1-.296875 1-1 0-.875-.90625-1.359375-1.734375-1.359375-1.359375 0-1.9375 1.1875-2.1875 1.90625h-.015625v-1.90625l-2.8125.140625v.734375c1.0625 0 1.1875 0 1.1875.671875v5.46875h-1.1875v.734375c.390625-.03125 1.6875-.03125 2.15625-.03125.5 0 1.90625 0 2.3125.03125v-.734375h-1.5zm0 0"/></symbol><symbol id="E" overflow="visible"><path d="m3.640625-6.90625h2.46875v-.734375h-2.46875v-3.296875h-.734375c-.015625 1.703125-.84375 3.40625-2.546875 3.46875v.5625h1.390625v4.78125c0 1.828125 1.421875 2.234375 2.65625 2.234375 1.28125 0 2.03125-.96875 2.03125-2.25v-.90625h-.71875v.890625c0 1.140625-.515625 1.640625-1.046875 1.640625-1.03125 0-1.03125-1.15625-1.03125-1.546875zm0 0"/></symbol><symbol id="F" overflow="visible"><path d="m2.609375-3.796875h2.015625c1.40625 0 2.671875-.953125 2.671875-2.15625 0-1.15625-1.15625-2.203125-2.765625-2.203125h-4.03125v.34375h.234375c.875 0 .90625.109375.90625.5625v6.34375c0 .4375-.03125.5625-.90625.5625h-.234375v.34375c.28125-.03125 1.265625-.03125 1.609375-.03125.359375 0 1.34375 0 1.625.03125v-.34375h-.234375c-.859375 0-.890625-.125-.890625-.5625zm-.03125-.296875v-3.25c0-.390625.03125-.46875.546875-.46875h1.125c1.9375 0 1.9375 1.34375 1.9375 1.859375 0 .5 0 1.859375-1.9375 1.859375zm0 0"/></symbol><symbol id="G" overflow="visible"><path d="m2-2.78125c0-1.15625.46875-2.25 1.390625-2.25.09375 0 .125 0 .171875.015625-.09375.046875-.28125.109375-.28125.4375 0 .34375.265625.484375.453125.484375.25 0 .484375-.15625.484375-.484375 0-.359375-.328125-.6875-.84375-.6875-1.015625 0-1.359375 1.09375-1.421875 1.328125h-.015625v-1.328125l-1.609375.125v.34375c.8125 0 .921875.09375.921875.671875v3.234375c0 .546875-.140625.546875-.921875.546875v.34375c.34375-.03125 1-.03125 1.359375-.03125.328125 0 1.171875 0 1.4375.03125v-.34375h-.234375c-.875 0-.890625-.140625-.890625-.5625zm0 0"/></symbol><symbol id="H" overflow="visible"><path d="m2.078125-7.359375c0-.3125-.25-.59375-.578125-.59375-.3125 0-.578125.25-.578125.578125 0 .359375.28125.578125.578125.578125.359375 0 .578125-.296875.578125-.5625zm-1.640625 2.21875v.34375c.75 0 .859375.078125.859375.65625v3.25c0 .546875-.125.546875-.90625.546875v.34375c.34375-.03125.90625-.03125 1.265625-.03125.125 0 .8125 0 1.21875.03125v-.34375c-.765625 0-.8125-.0625-.8125-.53125v-4.390625zm0 0"/></symbol><symbol id="I" overflow="visible"><path d="m4.875-4.015625c.109375-.265625.3125-.78125 1.078125-.796875v-.34375c-.34375.03125-.515625.03125-.890625.03125-.25 0-.421875 0-.96875-.03125v.34375c.5.03125.5625.390625.5625.515625 0 .109375-.03125.171875-.09375.3125l-1.21875 3.09375-1.328125-3.375c-.0625-.171875-.078125-.171875-.078125-.234375 0-.3125.453125-.3125.671875-.3125v-.34375c-.296875.03125-.921875.03125-1.25.03125-.390625 0-.421875 0-1.140625-.03125v.34375c.671875 0 .78125.0625.921875.421875l1.71875 4.28125c.0625.171875.078125.234375.21875.234375.09375 0 .15625-.03125.25-.234375zm0 0"/></symbol><symbol id="J" overflow="visible"><path d="m4.609375-3.1875c0-.65625 0-1.125-.515625-1.59375-.421875-.375-.96875-.546875-1.484375-.546875-.984375 0-1.734375.640625-1.734375 1.421875 0 .34375.21875.515625.5.515625s.484375-.203125.484375-.5c0-.484375-.421875-.484375-.609375-.484375.28125-.5.859375-.71875 1.328125-.71875.546875 0 1.265625.453125 1.265625 1.53125v.484375c-2.40625.03125-3.3125 1.03125-3.3125 1.953125 0 .953125 1.09375 1.25 1.828125 1.25.78125 0 1.328125-.484375 1.546875-1.0625.046875.5625.421875 1 .9375 1 .25 0 .9375-.171875.9375-1.125v-.671875h-.265625v.671875c0 .6875-.28125.78125-.453125.78125-.453125 0-.453125-.640625-.453125-.8125zm-.765625 1.5c0 1.171875-.875 1.5625-1.390625 1.5625-.59375 0-1.078125-.421875-1.078125-1 0-1.578125 2.03125-1.71875 2.46875-1.75zm0 0"/></symbol><symbol id="K" overflow="visible"><path d="m2.015625-4.8125h1.671875v-.34375h-1.671875v-2.1875h-.265625c-.015625 1.109375-.453125 2.265625-1.53125 2.296875v.234375h1.015625v3.328125c0 1.328125.875 1.609375 1.515625 1.609375.75 0 1.140625-.75 1.140625-1.609375v-.671875h-.25v.65625c0 .859375-.359375 1.359375-.8125 1.359375-.8125 0-.8125-1.109375-.8125-1.3125zm0 0"/></symbol><symbol id="L" overflow="visible"><path d="m3.234375-2.265625v-.640625h-3.109375v.640625zm0 0"/></symbol><symbol id="M" overflow="visible"><path d="m3.921875-5.0625c0-.203125 0-.265625-.125-.265625-.09375 0-.3125.265625-.40625.375-.359375-.3125-.734375-.375-1.125-.375-1.4375 0-1.875.78125-1.875 1.4375 0 .140625 0 .5625.453125.96875.390625.34375.796875.421875 1.34375.53125.65625.125.8125.171875 1.109375.40625.21875.171875.375.4375.375.78125 0 .515625-.296875 1.078125-1.359375 1.078125-.78125 0-1.359375-.453125-1.625-1.640625-.046875-.21875-.046875-.234375-.046875-.25-.03125-.046875-.078125-.046875-.109375-.046875-.140625 0-.140625.0625-.140625.28125v1.625c0 .21875 0 .28125.125.28125.0625 0 .0625-.015625.265625-.265625.0625-.09375.0625-.109375.25-.296875.453125.5625 1.09375.5625 1.296875.5625 1.25 0 1.875-.703125 1.875-1.640625 0-.640625-.390625-1.03125-.5-1.140625-.421875-.375-.75-.4375-1.546875-.578125-.34375-.078125-1.21875-.25-1.21875-.96875 0-.359375.25-.90625 1.328125-.90625 1.296875 0 1.375 1.109375 1.390625 1.46875.015625.109375.09375.109375.140625.109375.125 0 .125-.0625.125-.28125zm0 0"/></symbol><symbol id="N" overflow="visible"><path d="m2.921875 1.96875c-.765625 0-.90625 0-.90625-.53125v-2.078125c.21875.296875.703125.765625 1.46875.765625 1.375 0 2.59375-1.171875 2.59375-2.703125 0-1.515625-1.125-2.6875-2.4375-2.6875-1.046875 0-1.609375.75-1.640625.796875v-.796875l-1.671875.125v.34375c.84375 0 .921875.09375.921875.609375v5.625c0 .53125-.140625.53125-.921875.53125v.34375c.3125-.015625.96875-.015625 1.296875-.015625.34375 0 1 0 1.296875.015625zm-.90625-5.78125c0-.234375 0-.234375.140625-.4375.359375-.53125.9375-.765625 1.390625-.765625.90625 0 1.609375 1.09375 1.609375 2.4375 0 1.421875-.8125 2.453125-1.71875 2.453125-.375 0-.71875-.15625-.96875-.375-.265625-.28125-.453125-.515625-.453125-.84375zm0 0"/></symbol><symbol id="O" overflow="visible"><path d="m5.3125-2.90625c0-1.109375 0-1.4375-.265625-1.828125-.34375-.46875-.90625-.53125-1.3125-.53125-1.03125 0-1.515625.765625-1.671875 1.140625h-.015625v-4.171875l-1.671875.140625v.34375c.8125 0 .921875.078125.921875.671875v6.25c0 .546875-.140625.546875-.921875.546875v.34375c.3125-.03125.96875-.03125 1.296875-.03125.34375 0 1 0 1.296875.03125v-.34375c-.75 0-.90625 0-.90625-.546875v-2.21875c0-1.25.828125-1.921875 1.578125-1.921875.734375 0 .90625.609375.90625 1.34375v2.796875c0 .546875-.140625.546875-.90625.546875v.34375c.296875-.03125.953125-.03125 1.28125-.03125.34375 0 1 0 1.3125.03125v-.34375c-.609375 0-.90625 0-.921875-.359375zm0 0"/></symbol><symbol id="P" overflow="visible"><path d="m2.34375-7.40625c0-.296875-.25-.546875-.546875-.546875s-.546875.21875-.546875.546875c0 .34375.25.5625.546875.5625s.546875-.25.546875-.5625zm2.265625 0c0-.328125-.265625-.546875-.5625-.546875s-.546875.25-.546875.546875c0 .3125.25.5625.546875.5625s.5625-.21875.5625-.5625zm0 0"/></symbol><symbol id="Q" overflow="visible"><path d="m4.578125-2.765625c.265625 0 .28125 0 .28125-.234375 0-1.203125-.640625-2.328125-2.09375-2.328125-1.359375 0-2.40625 1.234375-2.40625 2.703125 0 1.578125 1.21875 2.75 2.546875 2.75 1.421875 0 1.953125-1.296875 1.953125-1.546875 0-.078125-.046875-.125-.125-.125-.09375 0-.125.0625-.140625.125-.3125 1-1.109375 1.28125-1.625 1.28125-.5 0-1.703125-.34375-1.703125-2.40625v-.21875zm-3.296875-.234375c.09375-1.875 1.140625-2.09375 1.484375-2.09375 1.28125 0 1.34375 1.6875 1.359375 2.09375zm0 0"/></symbol><symbol id="R" overflow="visible"><path d="m2.484375-4.984375c-.609375-.15625-1.140625-.75-1.140625-1.515625 0-.84375.671875-1.59375 1.59375-1.59375 1.96875 0 2.21875 1.9375 2.296875 2.453125.03125.140625.03125.1875.140625.1875.140625 0 .140625-.0625.140625-.265625v-2.421875c0-.21875 0-.28125-.125-.28125-.03125 0-.078125 0-.171875.15625l-.390625.734375c-.578125-.734375-1.359375-.890625-1.890625-.890625-1.328125 0-2.296875 1.078125-2.296875 2.296875 0 .5625.203125 1.09375.65625 1.578125.40625.453125.828125.5625 1.671875.78125.421875.09375 1.078125.265625 1.25.328125.5625.28125.9375.921875.9375 1.59375 0 .90625-.640625 1.75-1.625 1.75-.546875 0-1.28125-.140625-1.875-.640625-.6875-.625-.734375-1.484375-.75-1.890625-.015625-.09375-.109375-.09375-.125-.09375-.140625 0-.140625.0625-.140625.28125v2.40625c0 .21875 0 .28125.125.28125.078125 0 .078125-.015625.171875-.171875.046875-.09375.296875-.53125.390625-.71875.421875.484375 1.1875.890625 2.203125.890625 1.34375 0 2.3125-1.140625 2.3125-2.453125 0-.71875-.28125-1.265625-.59375-1.65625-.4375-.546875-.984375-.671875-1.453125-.796875zm0 0"/></symbol><symbol id="S" overflow="visible"><path d="m4.328125-4.421875c-.140625 0-.59375 0-.59375.484375 0 .296875.203125.5.5.5.265625 0 .5-.171875.5-.515625 0-.796875-.84375-1.375-1.8125-1.375-1.390625 0-2.5 1.234375-2.5 2.75 0 1.53125 1.140625 2.703125 2.5 2.703125 1.578125 0 1.9375-1.4375 1.9375-1.546875s-.09375-.109375-.125-.109375c-.109375 0-.125.03125-.15625.1875-.265625.84375-.90625 1.203125-1.546875 1.203125-.734375 0-1.703125-.640625-1.703125-2.453125 0-1.984375 1.015625-2.46875 1.609375-2.46875.453125 0 1.109375.171875 1.390625.640625zm0 0"/></symbol><symbol id="T" overflow="visible"><path d="m3.640625-5.140625v.34375c.8125 0 .90625.09375.90625.671875v2.140625c0 1.015625-.546875 1.859375-1.4375 1.859375-.984375 0-1.046875-.5625-1.046875-1.1875v-3.953125l-1.6875.125v.34375c.921875 0 .921875.046875.921875 1.109375v1.78125c0 .75 0 1.171875.359375 1.578125.28125.296875.765625.453125 1.375.453125.203125 0 .59375 0 1-.359375.34375-.265625.53125-.71875.53125-.71875v1.078125l1.671875-.125v-.34375c-.8125 0-.921875-.09375-.921875-.671875v-4.25zm0 0"/></symbol><symbol id="U" overflow="visible"><path d="m4.84375-4c.3125-.796875.875-.8125 1.109375-.8125v-.34375c-.34375.03125-.515625.03125-.890625.03125-.28125 0-.3125 0-.96875-.03125v.34375c.4375.03125.546875.3125.546875.515625 0 .109375-.03125.171875-.078125.296875l-1.21875 3.015625-1.328125-3.265625c-.0625-.15625-.0625-.234375-.0625-.25 0-.3125.40625-.3125.65625-.3125v-.34375c-.3125.03125-.90625.03125-1.234375.03125-.453125 0-.484375 0-1.15625-.03125v.34375c.6875 0 .78125.0625.9375.4375l1.78125 4.375c-.515625 1.265625-.515625 1.296875-.578125 1.390625-.203125.359375-.515625.8125-1.0625.8125-.359375 0-.59375-.21875-.59375-.21875s.421875-.046875.421875-.46875c0-.28125-.234375-.4375-.4375-.4375s-.453125.109375-.453125.46875c0 .453125.4375.890625 1.0625.890625.671875 0 1.171875-.578125 1.46875-1.34375zm0 0"/></symbol><symbol id="V" overflow="visible"><path d="m2.0625-4.8125h1.34375v-.34375h-1.375v-1.390625c0-1.078125.546875-1.625 1.046875-1.625.09375 0 .265625.015625.40625.09375-.046875.015625-.34375.125-.34375.46875 0 .265625.1875.46875.46875.46875s.484375-.203125.484375-.484375c0-.4375-.4375-.796875-1.015625-.796875-.828125 0-1.78125.65625-1.78125 1.875v1.390625h-.921875v.34375h.921875v3.921875c0 .546875-.125.546875-.90625.546875v.34375c.34375-.03125 1-.03125 1.359375-.03125.3125 0 1.171875 0 1.4375.03125v-.34375h-.234375c-.875 0-.890625-.140625-.890625-.5625zm0 0"/></symbol><symbol id="W" overflow="visible"><path d="m.359375-5.4375v.265625h.1875c.609375 0 .625.078125.625.375v4.15625c0 .296875-.015625.375-.625.375h-.1875v.265625h3.03125c1.4375 0 2.59375-1.1875 2.59375-2.671875 0-1.53125-1.15625-2.765625-2.59375-2.765625zm1.90625 5.171875c-.375 0-.390625-.046875-.390625-.328125v-4.265625c0-.265625.015625-.3125.390625-.3125h.90625c.625 0 1.140625.25 1.5.640625.5.609375.5 1.46875.5 1.859375 0 .40625 0 1.1875-.5 1.765625-.265625.328125-.78125.640625-1.5.640625zm0 0"/></symbol><symbol id="X" overflow="visible"><path d="m3.34375-2.375c0-.78125-.75-1.171875-1.484375-1.171875-.65625 0-1.25.25-1.25.78125 0 .234375.171875.375.375.375.234375 0 .375-.15625.375-.375 0-.1875-.109375-.328125-.296875-.359375.296875-.203125.734375-.203125.78125-.203125.453125 0 .890625.3125.890625.96875v.234375c-.453125.03125-.984375.046875-1.546875.28125-.703125.3125-.84375.765625-.84375 1.03125 0 .6875.8125.890625 1.359375.890625.578125 0 .9375-.328125 1.125-.640625.03125.296875.234375.609375.59375.609375.078125 0 .75-.03125.75-.765625v-.4375h-.25v.4375c0 .328125-.109375.453125-.28125.453125-.296875 0-.296875-.359375-.296875-.453125zm-.609375 1.25c0 .78125-.640625.984375-.96875.984375-.40625 0-.765625-.28125-.765625-.671875 0-.515625.5-1.0625 1.734375-1.09375zm0 0"/></symbol><symbol id="Y" overflow="visible"><path d="m1.484375-3.171875h1.1875v-.265625h-1.1875v-1.46875h-.25c0 .734375-.328125 1.484375-1.078125 1.515625v.21875h.71875v2.171875c0 .9375.71875 1.078125 1.078125 1.078125.546875 0 .859375-.46875.859375-1.078125v-.4375h-.25v.421875c0 .546875-.25.84375-.546875.84375-.53125 0-.53125-.6875-.53125-.8125zm0 0"/></symbol><symbol id="Z" overflow="visible"><path d="m3.296875-1.8125c.171875 0 .21875 0 .21875-.1875 0-.703125-.390625-1.546875-1.515625-1.546875-.984375 0-1.765625.8125-1.765625 1.796875 0 1.03125.859375 1.828125 1.875 1.828125 1 0 1.40625-.84375 1.40625-1.03125 0-.03125-.03125-.109375-.125-.109375s-.109375.046875-.125.09375c-.28125.78125-.96875.796875-1.109375.796875-.359375 0-.734375-.15625-.96875-.53125-.234375-.359375-.234375-.875-.234375-1.109375zm-2.34375-.21875c.078125-1.109375.75-1.296875 1.046875-1.296875.9375 0 .96875 1.125.96875 1.296875zm0 0"/></symbol><symbol id="aa" overflow="visible"><path d="m3.875-2.421875c0-.65625-.3125-1.09375-1.140625-1.09375-.796875 0-1.15625.578125-1.25.765625v-.765625l-1.15625.09375v.265625c.546875 0 .609375.046875.609375.4375v2.09375c0 .359375-.09375.359375-.609375.359375v.265625c.34375-.03125.6875-.03125.90625-.03125.234375 0 .5625 0 .90625.03125v-.265625c-.5 0-.609375 0-.609375-.359375v-1.4375c0-.84375.640625-1.234375 1.125-1.234375s.609375.34375.609375.84375v1.828125c0 .359375-.09375.359375-.609375.359375v.265625c.34375-.03125.703125-.03125.90625-.03125.234375 0 .578125 0 .921875.03125v-.265625c-.515625 0-.609375 0-.609375-.359375zm0 0"/></symbol><symbol id="ab" overflow="visible"><path d="m2.34375-1.453125v-.515625h-2.25v.515625zm0 0"/></symbol><symbol id="ac" overflow="visible"><path d="m3.53125-2.609375c.1875-.453125.46875-.546875.75-.5625v-.265625c-.265625.03125-.28125.03125-.609375.03125-.078125 0-.453125 0-.703125-.03125v.265625c.28125.015625.359375.1875.359375.328125 0 .078125-.015625.125-.046875.1875l-.859375 2.015625-.953125-2.171875c-.046875-.09375-.046875-.140625-.046875-.15625 0-.203125.296875-.203125.421875-.203125v-.265625c-.34375.03125-.71875.03125-.859375.03125-.171875 0-.546875 0-.8125-.03125v.265625c.484375 0 .53125.046875.65625.3125l1.1875 2.765625c.0625.125.109375.171875.21875.171875s.171875-.0625.203125-.15625zm0 0"/></symbol><symbol id="ad" overflow="visible"><path d="m1.46875-1.8125c0-.609375.25-1.46875 1.015625-1.484375-.046875.03125-.140625.09375-.140625.28125 0 .25.203125.359375.359375.359375.1875 0 .359375-.125.359375-.359375 0-.28125-.25-.5-.609375-.5-.515625 0-.875.390625-1.03125.84375h-.015625v-.84375l-1.125.09375v.265625c.546875 0 .609375.046875.609375.4375v2.09375c0 .359375-.109375.359375-.609375.359375v.265625c.3125-.03125.75-.03125.9375-.03125.46875 0 .484375 0 1 .03125v-.265625h-.15625c-.578125 0-.59375-.078125-.59375-.375zm0 0"/></symbol><symbol id="ae" overflow="visible"><path d="m5.265625-2.625c.0625-.1875.203125-.53125.671875-.546875v-.265625c-.265625.03125-.28125.03125-.625.03125-.25 0-.46875 0-.71875-.03125v.265625c.34375.015625.4375.21875.4375.359375 0 .109375-.03125.15625-.046875.203125l-.75 1.984375-.828125-2.171875c-.03125-.109375-.03125-.125-.03125-.15625 0-.203125.25-.21875.4375-.21875v-.265625c-.3125.03125-.734375.03125-.8125.03125-.171875 0-.5 0-.734375-.03125v.265625c.484375 0 .5.046875.65625.46875l-.734375 1.96875-.796875-2.078125c0-.03125-.03125-.109375-.03125-.140625 0-.21875.296875-.21875.4375-.21875v-.265625c-.34375.03125-.703125.03125-.84375.03125s-.5625 0-.78125-.03125v.265625c.390625 0 .46875.03125.5625.25l1.0625 2.8125c.046875.125.078125.1875.203125.1875.140625 0 .171875-.09375.203125-.1875l.84375-2.234375.84375 2.234375c.046875.09375.078125.1875.21875.1875.125 0 .15625-.078125.1875-.171875zm0 0"/></symbol><symbol id="af" overflow="visible"><path d="m2.65625-3.421875v.265625c.546875 0 .609375.046875.609375.4375v1.390625c0 .6875-.40625 1.1875-1.015625 1.1875-.6875 0-.71875-.34375-.71875-.75v-2.625l-1.203125.09375v.265625c.609375 0 .609375.015625.609375.71875v1.203125c0 .578125 0 1.3125 1.265625 1.3125.75 0 1.046875-.578125 1.078125-.640625h.015625v.640625l1.1875-.078125v-.265625c-.546875 0-.609375-.046875-.609375-.4375v-2.8125zm0 0"/></symbol><symbol id="ag" overflow="visible"><path d="m1.375-.546875c-.25-.03125-.4375-.234375-.4375-.53125 0-.1875.046875-.265625.09375-.328125.34375.1875.65625.234375.84375.234375.78125 0 1.375-.546875 1.375-1.171875 0-.296875-.140625-.5625-.328125-.765625.109375-.09375.375-.265625.765625-.265625-.03125.015625-.078125.0625-.078125.1875 0 .140625.109375.25.25.25.109375 0 .25-.078125.25-.265625 0-.125-.109375-.40625-.453125-.40625-.140625 0-.53125.046875-.890625.375-.203125-.140625-.515625-.28125-.890625-.28125-.78125 0-1.359375.546875-1.359375 1.171875 0 .375.203125.65625.375.8125-.1875.203125-.25.453125-.25.640625 0 .328125.171875.578125.34375.71875-.421875.109375-.75.421875-.75.78125 0 .578125.828125 1.03125 1.875 1.03125 1 0 1.875-.40625 1.875-1.046875 0-.421875-.25-.765625-.515625-.890625-.46875-.25-.859375-.25-1.640625-.25zm.5-.859375c-.734375 0-.734375-.765625-.734375-.9375 0-.296875.03125-.5.15625-.65625.140625-.1875.359375-.28125.578125-.28125.734375 0 .734375.765625.734375.9375 0 .296875-.03125.5-.15625.65625-.171875.234375-.421875.28125-.578125.28125zm.375 1.375c.21875 0 1.265625 0 1.265625.640625 0 .421875-.609375.796875-1.40625.796875s-1.40625-.375-1.40625-.796875c0-.171875.140625-.640625.78125-.640625zm0 0"/></symbol><symbol id="ah" overflow="visible"><path d="m5.171875-4.59375c0-.203125 0-.578125.8125-.578125v-.265625c-.359375.015625-.71875.015625-.9375.015625s-.578125 0-.9375-.015625v.265625c.8125 0 .8125.375.8125.578125v2.75c0 1.09375-.8125 1.75-1.625 1.75-.4375 0-1.40625-.25-1.40625-1.703125v-3c0-.296875.015625-.375.625-.375h.171875v-.265625c-.671875.015625-.6875.015625-1.171875.015625-.46875 0-.484375 0-1.171875-.015625v.265625h.1875c.609375 0 .625.078125.625.375v2.96875c0 1.140625.984375 2 2.125 2 1.0625 0 1.890625-.890625 1.890625-1.984375zm0 0"/></symbol><symbol id="ai" overflow="visible"><path d="m2.09375 1.28125c-.515625 0-.609375 0-.609375-.359375v-1.3125c.375.40625.78125.46875 1.046875.46875 1 0 1.890625-.78125 1.890625-1.796875 0-1-.8125-1.796875-1.78125-1.796875-.3125 0-.765625.078125-1.171875.5v-.5l-1.1875.09375v.265625c.5625 0 .609375.046875.609375.375v3.703125c0 .359375-.109375.359375-.609375.359375v.265625c.34375-.03125.6875-.03125.90625-.03125.234375 0 .5625 0 .90625.03125zm-.609375-3.9375c.1875-.3125.59375-.609375 1.09375-.609375.609375 0 1.125.671875 1.125 1.546875 0 .90625-.578125 1.578125-1.21875 1.578125-.28125 0-.640625-.125-.90625-.515625-.09375-.140625-.09375-.15625-.09375-.296875zm0 0"/></symbol><symbol id="aj" overflow="visible"><path d="m1.515625-5.53125-1.1875.09375v.265625c.546875 0 .609375.046875.609375.4375v4.109375c0 .359375-.09375.359375-.609375.359375v.265625c.3125-.03125.765625-.03125.90625-.03125.15625 0 .578125 0 .890625.03125v-.265625c-.5 0-.609375 0-.609375-.359375zm0 0"/></symbol><symbol id="ak" overflow="visible"><path d="m3.984375-1.703125c0-.984375-.828125-1.84375-1.875-1.84375s-1.875.859375-1.875 1.84375c0 1 .859375 1.78125 1.875 1.78125 1.03125 0 1.875-.78125 1.875-1.78125zm-1.875 1.53125c-.421875 0-.765625-.203125-.9375-.484375-.203125-.328125-.21875-.71875-.21875-1.109375 0-.3125 0-.78125.234375-1.125.21875-.28125.546875-.4375.921875-.4375.421875 0 .765625.203125.9375.46875.21875.34375.234375.765625.234375 1.09375 0 .359375-.015625.796875-.25 1.140625-.203125.3125-.5625.453125-.921875.453125zm0 0"/></symbol><symbol id="al" overflow="visible"><path d="m2.625-5.4375v.265625c.53125 0 .609375.046875.609375.4375v1.6875c-.28125-.3125-.65625-.46875-1.078125-.46875-1 0-1.875.78125-1.875 1.796875 0 .984375.796875 1.796875 1.796875 1.796875.46875 0 .859375-.21875 1.125-.5v.5l1.21875-.078125v-.265625c-.546875 0-.609375-.046875-.609375-.4375v-4.828125zm.578125 4.453125c0 .140625 0 .171875-.125.328125-.21875.328125-.578125.515625-.953125.515625s-.6875-.1875-.875-.484375c-.21875-.3125-.265625-.703125-.265625-1.078125 0-.46875.078125-.796875.265625-1.0625.1875-.296875.546875-.53125.953125-.53125.375 0 .765625.203125 1 .609375zm0 0"/></symbol><symbol id="am" overflow="visible"><path d="m5.171875-4.796875c0-.296875.03125-.375.640625-.375h.171875v-.265625c-.671875.015625-.6875.015625-1.171875.015625s-.5 0-1.171875-.015625v.265625h.171875c.625 0 .640625.078125.640625.375v1.828125h-2.5625v-1.828125c0-.296875.015625-.375.625-.375h.171875v-.265625c-.671875.015625-.6875.015625-1.171875.015625-.46875 0-.484375 0-1.171875-.015625v.265625h.1875c.609375 0 .625.078125.625.375v4.15625c0 .296875-.015625.375-.625.375h-.1875v.265625c.6875-.03125.703125-.03125 1.171875-.03125.484375 0 .5 0 1.171875.03125v-.265625h-.171875c-.609375 0-.625-.078125-.625-.375v-2.0625h2.5625v2.0625c0 .296875-.015625.375-.640625.375h-.171875v.265625c.671875-.03125.6875-.03125 1.171875-.03125s.5 0 1.171875.03125v-.265625h-.171875c-.609375 0-.640625-.078125-.640625-.375zm0 0"/></symbol><symbol id="an" overflow="visible"><path d="m2.9375-3.15625c-.234375.0625-.265625.25-.265625.34375 0 .21875.15625.375.375.375s.375-.140625.375-.390625c0-.484375-.53125-.71875-1.28125-.71875-1.109375 0-1.859375.875-1.859375 1.828125 0 1.015625.828125 1.796875 1.828125 1.796875 1.125 0 1.40625-.9375 1.40625-1.03125s-.109375-.09375-.125-.09375c-.0625 0-.09375 0-.125.078125-.046875.171875-.28125.796875-1.078125.796875-.484375 0-1.203125-.375-1.203125-1.5625 0-1.140625.59375-1.578125 1.171875-1.578125.078125 0 .5 0 .78125.15625zm0 0"/></symbol><symbol id="ao" overflow="visible"><path d="m2.40625-2.171875.671875-.53125c.53125-.421875.859375-.453125 1.0625-.46875v-.265625c-.203125.03125-.3125.03125-.640625.03125-.390625 0-.5-.015625-.84375-.03125v.265625c.15625.015625.1875.109375.1875.15625 0 .171875-.171875.3125-.234375.359375l-1.140625.921875v-3.796875l-1.1875.09375v.265625c.546875 0 .609375.046875.609375.4375v4.109375c0 .359375-.109375.359375-.609375.359375v.265625c.3125-.03125.734375-.03125.875-.03125.15625 0 .578125 0 .890625.03125v-.265625c-.515625 0-.609375 0-.609375-.359375v-.765625l.53125-.4375c.03125 0 .234375.28125.359375.4375s.25.328125.375.484375.28125.359375.28125.484375c0 .140625-.140625.15625-.25.15625v.265625c.34375-.03125.703125-.03125.84375-.03125.296875 0 .46875 0 .734375.03125v-.265625c-.328125 0-.46875-.03125-.765625-.40625zm0 0"/></symbol><symbol id="ap" overflow="visible"><path d="m3.375-5.515625c-.046875-.109375-.0625-.171875-.203125-.171875s-.171875.0625-.203125.171875l-1.78125 4.6875c-.078125.21875-.25.5625-.90625.5625v.265625c.265625-.03125.6875-.03125.828125-.03125.25 0 .5 0 .875.03125v-.265625c-.34375 0-.546875-.171875-.546875-.390625 0-.0625 0-.078125.03125-.171875l.375-1h2.171875l.453125 1.1875c.03125.09375.03125.125.03125.140625 0 .234375-.40625.234375-.640625.234375v.265625c.6875-.03125.703125-.03125 1.140625-.03125s.59375 0 1.046875.03125v-.265625h-.140625c-.5 0-.578125-.0625-.671875-.328125zm-.4375.828125.96875 2.59375h-1.96875zm0 0"/></symbol><symbol id="aq" overflow="visible"><path d="m1.546875-4.90625c0-.234375-.171875-.453125-.4375-.453125-.234375 0-.4375.1875-.4375.4375 0 .28125.234375.453125.4375.453125.28125 0 .4375-.234375.4375-.4375zm-1.1875 1.484375v.265625c.515625 0 .578125.046875.578125.4375v2.09375c0 .359375-.09375.359375-.609375.359375v.265625c.3125-.03125.765625-.03125.890625-.03125.09375 0 .578125 0 .859375.03125v-.265625c-.53125 0-.5625-.03125-.5625-.34375v-2.90625zm0 0"/></symbol><symbol id="ar" overflow="visible"><path d="m3.8125-3.171875h.953125v-.265625h-.984375v-.890625c0-.71875.40625-1.0625.75-1.0625.03125 0 .125 0 .234375.046875-.140625.0625-.1875.203125-.1875.3125 0 .203125.15625.359375.359375.359375.21875 0 .359375-.15625.359375-.359375 0-.34375-.328125-.578125-.75-.578125-.296875 0-.640625.109375-.90625.328125-.265625-.3125-.734375-.328125-.953125-.328125-.796875 0-1.796875.390625-1.796875 1.296875v.875h-.65625v.265625h.65625v2.546875c0 .359375-.109375.359375-.609375.359375v.265625c.3125-.03125.75-.03125.890625-.03125.15625 0 .59375 0 .90625.03125v-.265625c-.515625 0-.609375 0-.609375-.359375v-2.546875h1.765625v2.546875c0 .359375-.109375.359375-.609375.359375v.265625c.3125-.03125.75-.03125.9375-.03125.46875 0 .484375 0 1 .03125v-.265625h-.15625c-.578125 0-.59375-.078125-.59375-.375zm-2.375-.265625v-.859375c0-.78125.703125-1.09375 1.234375-1.09375.078125 0 .375 0 .609375.125-.203125.09375-.234375.265625-.234375.34375 0 .0625.015625.234375.203125.3125-.015625.09375-.015625.25-.015625.28125v.890625zm0 0"/></symbol><symbol id="as" overflow="visible"><path d="m1.859375-3.328125c-.515625-.109375-.890625-.515625-.890625-1 0-.546875.46875-1.046875 1.15625-1.046875 1.375 0 1.5625 1.296875 1.609375 1.59375.015625.09375.015625.140625.125.140625.125 0 .125-.046875.125-.203125v-1.5625c0-.125 0-.203125-.109375-.203125-.0625 0-.078125.015625-.125.109375l-.28125.453125c-.40625-.4375-.90625-.5625-1.34375-.5625-.953125 0-1.65625.71875-1.65625 1.53125 0 .609375.34375.9375.5 1.09375.28125.28125.546875.34375 1.40625.546875.6875.15625.796875.1875 1.0625.46875.078125.078125.28125.34375.28125.734375 0 .5625-.421875 1.140625-1.171875 1.140625-.875 0-1.78125-.421875-1.828125-1.53125-.015625-.125-.015625-.1875-.125-.1875-.125 0-.125.0625-.125.21875v1.546875c0 .140625 0 .21875.109375.21875.0625 0 .0625-.015625.125-.09375.03125-.046875.0625-.125.28125-.453125.5.4375 1.09375.546875 1.578125.546875.984375 0 1.65625-.796875 1.65625-1.640625 0-.703125-.453125-1.40625-1.265625-1.59375zm0 0"/></symbol><symbol id="at" overflow="visible"><path d="m1.515625-3.171875h.96875v-.265625h-.984375v-.890625c0-.703125.390625-1.0625.734375-1.0625.125 0 .203125.03125.234375.046875-.140625.0625-.1875.203125-.1875.3125 0 .203125.15625.359375.359375.359375.21875 0 .359375-.15625.359375-.359375 0-.34375-.328125-.578125-.75-.578125-.59375 0-1.3125.4375-1.3125 1.28125v.890625h-.65625v.265625h.65625v2.546875c0 .359375-.09375.359375-.609375.359375v.265625c.3125-.03125.75-.03125.953125-.03125.46875 0 .484375 0 1 .03125v-.265625h-.15625c-.59375 0-.609375-.078125-.609375-.375zm0 0"/></symbol><symbol id="au" overflow="visible"><path d="m2.84375-3.34375c0-.125 0-.203125-.109375-.203125-.046875 0-.0625 0-.1875.125-.015625 0-.09375.078125-.109375.078125s-.03125 0-.078125-.03125c-.125-.09375-.359375-.171875-.71875-.171875-1.109375 0-1.359375.59375-1.359375.984375s.296875.625.3125.65625c.328125.234375.5.265625 1.046875.359375.375.078125.984375.1875.984375.71875 0 .3125-.203125.6875-.9375.6875-.8125 0-1.046875-.625-1.140625-1.046875-.03125-.109375-.046875-.140625-.140625-.140625-.125 0-.125.0625-.125.21875v.984375c0 .125 0 .203125.09375.203125.0625 0 .0625 0 .203125-.15625.046875-.046875.125-.140625.171875-.1875.359375.328125.734375.34375.9375.34375 1.015625 0 1.359375-.578125 1.359375-1.109375 0-.375-.21875-.9375-1.171875-1.109375-.0625-.015625-.515625-.09375-.546875-.09375-.25-.0625-.625-.234375-.625-.546875 0-.234375.1875-.578125.9375-.578125.890625 0 .9375.65625.953125.875 0 .0625.0625.09375.109375.09375.140625 0 .140625-.0625.140625-.203125zm0 0"/></symbol><symbol id="av" overflow="visible"><path d="m6.21875-2.421875c0-.640625-.28125-1.09375-1.140625-1.09375-.734375 0-1.109375.5-1.234375.734375-.140625-.578125-.59375-.734375-1.109375-.734375-.78125 0-1.140625.546875-1.25.765625v-.765625l-1.15625.09375v.265625c.546875 0 .609375.046875.609375.4375v2.09375c0 .359375-.09375.359375-.609375.359375v.265625c.34375-.03125.6875-.03125.90625-.03125.234375 0 .5625 0 .90625.03125v-.265625c-.5 0-.609375 0-.609375-.359375v-1.4375c0-.84375.640625-1.234375 1.140625-1.234375.515625 0 .609375.40625.609375.84375v1.828125c0 .359375-.109375.359375-.609375.359375v.265625c.34375-.03125.6875-.03125.90625-.03125.234375 0 .5625 0 .90625.03125v-.265625c-.515625 0-.609375 0-.609375-.359375v-1.4375c0-.84375.640625-1.234375 1.140625-1.234375.515625 0 .609375.40625.609375.84375v1.828125c0 .359375-.109375.359375-.609375.359375v.265625c.34375-.03125.6875-.03125.90625-.03125.234375 0 .5625 0 .90625.03125v-.265625c-.515625 0-.609375 0-.609375-.359375zm0 0"/></symbol><symbol id="aw" overflow="visible"><path d="m5.515625-2.078125h-.25c-.203125 1.203125-.375 1.8125-1.8125 1.8125h-1.1875c-.359375 0-.375-.046875-.375-.328125v-2.09375h.765625c.796875 0 .90625.234375.90625.9375h.25v-2.125h-.25c0 .6875-.109375.921875-.90625.921875h-.765625v-1.875c0-.265625.015625-.328125.375-.328125h1.140625c1.3125 0 1.484375.484375 1.625 1.546875h.25l-.234375-1.8125h-4.703125v.265625h.1875c.609375 0 .625.09375.625.390625v4.125c0 .296875-.015625.375-.625.375h-.1875v.265625h4.8125zm0 0"/></symbol><path d="m56.694188.0019375c0 31.3085935-25.382813 56.6914065-56.695313 56.6914065-31.308594 0-56.691406-25.382813-56.691406-56.6914065 0-31.3125005 25.382812-56.6953125 56.691406-56.6953125 31.3125 0 56.695313 25.382812 56.695313 56.6953125zm0 0" fill="#ff7f00" stroke="#ff7f00" stroke-miterlimit="10" stroke-width="1.19553" transform="matrix(1 0 0 -1 252.173 57.291)"/><g><use x="210.06" xlink:href="#y" y="63.268"/><use x="220.819625" xlink:href="#z" y="63.268"/><use x="226.199437" xlink:href="#A" y="63.268"/></g><g><use x="234.27346" xlink:href="#B" y="63.268"/><use x="245.033085" xlink:href="#C" y="63.268"/><use x="253.86975" xlink:href="#D" y="63.268"/><use x="261.780226" xlink:href="#B" y="63.268"/><use x="272.539851" xlink:href="#C" y="63.268"/><use x="281.376516" xlink:href="#z" y="63.268"/><use x="286.756329" xlink:href="#E" y="63.268"/></g><path d="m173.834813.0019375c0 17.7265625-14.371094 32.1015625-32.101563 32.1015625s-32.101562-14.375-32.101562-32.1015625c0-17.7304685 14.371093-32.1054685 32.101562-32.1054685s32.101563 14.375 32.101563 32.1054685zm0 0" fill="#ffd700" stroke="#ffd700" stroke-miterlimit="10" stroke-width="1.19553" transform="matrix(1 0 0 -1 252.173 57.291)"/><g><use x="376.103" xlink:href="#F" y="53.239"/><use x="384.067554" xlink:href="#G" y="53.239"/><use x="388.620094" xlink:href="#H" y="53.239"/><use x="391.871909" xlink:href="#I" y="53.239"/></g><g><use x="397.404775" xlink:href="#J" y="53.239"/><use x="403.258041" xlink:href="#K" y="53.239"/><use x="407.810581" xlink:href="#L" y="53.239"/></g><g><use x="377.289" xlink:href="#M" y="67.187"/><use x="381.906098" xlink:href="#N" y="67.187"/><use x="388.409727" xlink:href="#O" y="67.187"/><use x="394.913356" xlink:href="#P" y="67.187"/></g><g><use x="394.908574" xlink:href="#J" y="67.187"/><use x="400.76184" xlink:href="#G" y="67.187"/><use x="405.31438" xlink:href="#Q" y="67.187"/></g><g clip-path="url(#a)"><g clip-path="url(#b)"><path d="m309.863281.589844h-57.691406v113.402344h57.691406zm0 0" fill="#ff7f00"/></g></g><g clip-path="url(#c)"><g clip-path="url(#d)"><path d="m360.808594.589844h33.097656v113.402344h-33.097656zm0 0" fill="#ffd700"/></g></g><g clip-path="url(#e)"><g clip-path="url(#f)"><path d="m308.867188 76.683594v-38.785156h52.945312v38.785156zm0 0" fill="url(#g)"/></g></g><path d="m503.75 57.289062c0-13.695312-11.105469-24.800781-24.800781-24.800781-13.699219 0-24.804688 11.105469-24.804688 24.800781 0 13.699219 11.105469 24.804688 24.804688 24.804688 13.695312 0 24.800781-11.105469 24.800781-24.804688zm0 0" fill="#ffd700"/><g clip-path="url(#h)"><path d="m251.577.0019375c0 13.6953125-11.105469 24.8007815-24.800781 24.8007815-13.699219 0-24.804688-11.105469-24.804688-24.8007815 0-13.6992185 11.105469-24.8046875 24.804688-24.8046875 13.695312 0 24.800781 11.105469 24.800781 24.8046875zm0 0" fill="none" stroke="#ffd700" stroke-miterlimit="10" stroke-width="1.19553" transform="matrix(1 0 0 -1 252.173 57.291)"/></g><g><use x="466.303" xlink:href="#W" y="54.507"/><use x="472.767548" xlink:href="#X" y="54.507"/><use x="477.002062" xlink:href="#Y" y="54.507"/><use x="480.295308" xlink:href="#Z" y="54.507"/><use x="484.058789" xlink:href="#aa" y="54.507"/><use x="488.763539" xlink:href="#ab" y="54.507"/></g><use x="458.354" xlink:href="#ac" y="63.971"/><g><use x="462.592499" xlink:href="#Z" y="63.971"/><use x="466.35598" xlink:href="#ad" y="63.971"/><use x="469.656399" xlink:href="#ae" y="63.971"/></g><g><use x="475.533551" xlink:href="#Z" y="63.971"/><use x="479.297032" xlink:href="#ad" y="63.971"/><use x="482.59745" xlink:href="#Y" y="63.971"/><use x="485.890695" xlink:href="#af" y="63.971"/><use x="490.595446" xlink:href="#aa" y="63.971"/><use x="495.300196" xlink:href="#ag" y="63.971"/></g><path d="m424.074219 46.3125c2.578125 7.089844 2.578125 14.867188 0 21.957031 2.742187-7.539062 9.960937-8.808593 17.984375-8.808593v-4.339844c-8.023438 0-15.242188-1.269532-17.984375-8.808594zm17.984375 13.148438h-.316406v-4.339844h.316406zm13.582031-10.652344c-1.996094 5.476562-1.996094 11.488281 0 16.964844-2.121094-5.824219-7.699219-6.3125-13.898437-6.3125v-4.339844c6.199218 0 11.777343-.488282 13.898437-6.3125zm0 0" fill="#ffd700"/><path d="m226.67075-60.130875c0 13.695312-11.105469 24.800781-24.804687 24.800781-13.699219 0-24.800782-11.105469-24.800782-24.800781 0-13.699219 11.101563-24.804688 24.800782-24.804688 13.699218 0 24.804687 11.105469 24.804687 24.804688zm0 0" fill="#ffd700" stroke="#ffd700" stroke-miterlimit="10" stroke-width="1.19553" transform="matrix(1 0 0 -1 252.173 57.291)"/><g><use x="440.75" xlink:href="#ah" y="119.415"/><use x="447.092606" xlink:href="#ai" y="119.415"/><use x="451.797356" xlink:href="#aj" y="119.415"/><use x="454.149332" xlink:href="#ak" y="119.415"/><use x="458.383846" xlink:href="#X" y="119.415"/><use x="462.61836" xlink:href="#al" y="119.415"/></g><path d="m423 70.859375c-3.1875 6.835937-8.6875 12.335937-15.527344 15.527344 7.273438-3.394531 13.273438.8125 18.949219 6.488281l3.070313-3.070312c-5.675782-5.675782-9.882813-11.671876-6.492188-18.945313zm6.25 18.707031.242188.238282-3.070313 3.070312-.238281-.238281zm14.292969 5.363282c-5.285157 2.464843-9.535157 6.710937-12 11.996093 2.621093-5.621093-.976563-9.90625-5.359375-14.289062l3.066406-3.070313c4.386719 4.382813 8.671875 7.984375 14.292969 5.363282zm0 0" fill="#ffd700"/><path d="m31.8895-141.732438c0 17.609375-14.277344 31.886719-31.890625 31.886719s-31.890625-14.277344-31.890625-31.886719c0-17.613281 14.277344-31.890625 31.890625-31.890625s31.890625 14.277344 31.890625 31.890625zm0 0" fill="#00008b" stroke="#00008b" stroke-miterlimit="10" stroke-width="1.19553" transform="matrix(1 0 0 -1 252.173 57.291)"/><g fill="#fff"><use x="231.362" xlink:href="#R" y="201.945"/><use x="237.865629" xlink:href="#Q" y="201.945"/><use x="243.068532" xlink:href="#S" y="201.945"/><use x="248.271435" xlink:href="#T" y="201.945"/><use x="254.775064" xlink:href="#G" y="201.945"/><use x="259.327604" xlink:href="#H" y="201.945"/><use x="262.579418" xlink:href="#K" y="201.945"/></g><use fill="#fff" x="266.809168" xlink:href="#U" y="201.945"/><g clip-path="url(#i)"><g clip-path="url(#j)"><path d="m308.875 114.980469v-57.691407h-113.402344v57.691407zm0 0" fill="#ff7f00"/></g></g><g clip-path="url(#k)"><g clip-path="url(#l)"><path d="m308.875 166.136719v32.886719h-113.402344v-32.886719zm0 0" fill="#00008b"/></g></g><g clip-path="url(#m)"><g clip-path="url(#n)"><path d="m232.78125 113.984375h38.78125v53.15625h-38.78125zm0 0" fill="url(#o)"/></g></g><path d="m306.0625 278.9375c0-13.699219-11.105469-24.804688-24.804688-24.804688-13.699218 0-24.800781 11.105469-24.800781 24.804688s11.101563 24.804688 24.800781 24.804688c13.699219 0 24.804688-11.105469 24.804688-24.804688zm0 0" fill="#00008b"/><g clip-path="url(#p)"><path d="m53.8895-221.6465c0 13.699219-11.105469 24.804687-24.804687 24.804687-13.699219 0-24.800782-11.105468-24.800782-24.804687s11.101563-24.804688 24.800782-24.804688c13.699218 0 24.804687 11.105469 24.804687 24.804688zm0 0" fill="none" stroke="#00008b" stroke-miterlimit="10" stroke-width="1.19553" transform="matrix(1 0 0 -1 252.173 57.291)"/></g><g fill="#fff"><g><use x="268.556" xlink:href="#am" y="276.194"/><use x="274.898606" xlink:href="#X" y="276.194"/><use x="279.13312" xlink:href="#an" y="276.194"/></g><use x="282.665468" xlink:href="#ao" y="276.194"/><g><use x="286.895997" xlink:href="#Z" y="276.194"/><use x="290.659478" xlink:href="#ad" y="276.194"/></g><g><use x="266.439" xlink:href="#ap" y="285.659"/><use x="272.781606" xlink:href="#aa" y="285.659"/><use x="277.486356" xlink:href="#ag" y="285.659"/><use x="281.72087" xlink:href="#ad" y="285.659"/><use x="285.021288" xlink:href="#aq" y="285.659"/><use x="287.373265" xlink:href="#ar" y="285.659"/><use x="292.313133" xlink:href="#Z" y="285.659"/></g></g><path d="m272.671875 223.453125c-5.742187 4.820313-13.003906 7.460937-20.5 7.460937 7.972656 0 11.59375 6.3125 14.324219 13.804688l4.078125-1.488281c-2.726563-7.488281-4.007813-14.652344 2.097656-19.777344zm-2.101563 19.773437.003907.003907-4.078125 1.488281-.003906-.007812zm10.6875 10.898438c-5.832031 0-11.480468 2.054688-15.945312 5.804688 4.75-3.988282 3.300781-9.394532 1.179688-15.21875l4.078124-1.484376c2.121094 5.824219 4.484376 10.898438 10.6875 10.898438zm0 0" fill="#00008b"/><path d="m241.035156 276.097656c0-13.699218-11.101562-24.804687-24.800781-24.804687s-24.804687 11.105469-24.804687 24.804687c0 13.699219 11.105468 24.804688 24.804687 24.804688s24.800781-11.105469 24.800781-24.804688zm0 0" fill="#00008b"/><g clip-path="url(#q)"><path d="m-11.137844-218.806656c0 13.699218-11.101562 24.804687-24.800781 24.804687s-24.804687-11.105469-24.804687-24.804687c0-13.699219 11.105468-24.804688 24.804687-24.804688s24.800781 11.105469 24.800781 24.804688zm0 0" fill="none" stroke="#00008b" stroke-miterlimit="10" stroke-width="1.19553" transform="matrix(1 0 0 -1 252.173 57.291)"/></g><g fill="#fff"><use x="199.767" xlink:href="#as" y="278.043"/><use x="204.47175" xlink:href="#ai" y="278.043"/><use x="209.1765" xlink:href="#aq" y="278.043"/><use x="211.528477" xlink:href="#ak" y="278.043"/><use x="215.762991" xlink:href="#aa" y="278.043"/><use x="220.467741" xlink:href="#X" y="278.043"/><use x="224.702255" xlink:href="#ag" y="278.043"/><use x="228.936769" xlink:href="#Z" y="278.043"/></g><path d="m249.394531 230.792969c-7.46875-.652344-14.46875-3.917969-19.769531-9.21875 5.636719 5.636719 3.734375 12.660156.367188 19.886719l3.933593 1.835937c3.367188-7.226563 7.527344-13.199219 15.46875-12.503906zm-15.464843 12.492187-.003907.011719-3.933593-1.835937.003906-.007813zm-.152344 15.265625c-4.125-4.125-9.570313-6.664062-15.378906-7.171875 6.179687.539063 8.976562-4.308594 11.597656-9.925781l3.933594 1.832031c-2.621094 5.621094-4.539063 10.878906-.152344 15.265625zm0 0" fill="#00008b"/><path d="m-109.844875.0019375c0 17.6093745-14.277344 31.8867185-31.890625 31.8867185-17.609375 0-31.890625-14.277344-31.890625-31.8867185 0-17.6132815 14.28125-31.8906255 31.890625-31.8906255 17.613281 0 31.890625 14.277344 31.890625 31.8906255zm0 0" fill="#007f7f" stroke="#007f7f" stroke-miterlimit="10" stroke-width="1.19553" transform="matrix(1 0 0 -1 252.173 57.291)"/><g fill="#fff"><use x="94.67" xlink:href="#R" y="60.279"/><use x="101.173629" xlink:href="#J" y="60.279"/><use x="107.026895" xlink:href="#V" y="60.279"/><use x="110.603891" xlink:href="#Q" y="60.279"/><use x="115.806794" xlink:href="#K" y="60.279"/></g><use fill="#fff" x="120.036543" xlink:href="#U" y="60.279"/><g clip-path="url(#r)"><g clip-path="url(#s)"><path d="m194.484375 113.992188h57.6875v-113.402344h-57.6875zm0 0" fill="#ff7f00"/></g></g><g clip-path="url(#t)"><g clip-path="url(#u)"><path d="m143.324219 113.992188h-32.886719v-113.402344h32.886719zm0 0" fill="#007f7f"/></g></g><g clip-path="url(#v)"><g clip-path="url(#w)"><path d="m195.480469 37.898438v38.785156h-53.15625v-38.785156zm0 0" fill="url(#x)"/></g></g><path d="m-201.969875.0019375c0 13.6953125-11.105469 24.8007815-24.804687 24.8007815-13.699219 0-24.804688-11.105469-24.804688-24.8007815 0-13.6992185 11.105469-24.8046875 24.804688-24.8046875 13.699218 0 24.804687 11.105469 24.804687 24.8046875zm0 0" fill="#007f7f" stroke="#007f7f" stroke-miterlimit="10" stroke-width="1.19553" transform="matrix(1 0 0 -1 252.173 57.291)"/><g fill="#fff"><use x="12.675" xlink:href="#at" y="60.058"/><use x="15.262891" xlink:href="#X" y="60.058"/><use x="19.497406" xlink:href="#aq" y="60.058"/><use x="21.849382" xlink:href="#aj" y="60.058"/><use x="24.201359" xlink:href="#au" y="60.058"/><use x="27.541628" xlink:href="#X" y="60.058"/><use x="31.776142" xlink:href="#at" y="60.058"/><use x="34.364033" xlink:href="#Z" y="60.058"/></g><path d="m80.472656 68.199219c-2.566406-7.046875-2.566406-14.769531 0-21.816407-2.726562 7.492188-9.894531 8.738282-17.867187 8.738282v4.339844c7.972656 0 15.140625 1.246093 17.867187 8.738281zm-17.867187-8.738281v-4.339844zm-13.898438 6.3125c1.992188-5.476563 1.992188-11.488282 0-16.964844 2.121094 5.824218 7.695313 6.3125 13.898438 6.3125v4.339844c-6.203125 0-11.777344.488281-13.898438 6.3125zm0 0" fill="#007f7f"/><path d="m-177.063625-60.130875c0 13.695312-11.105469 24.800781-24.804687 24.800781-13.699219 0-24.800782-11.105469-24.800782-24.800781 0-13.699219 11.101563-24.804688 24.800782-24.804688 13.699218 0 24.804687 11.105469 24.804687 24.804688zm0 0" fill="#007f7f" stroke="#007f7f" stroke-miterlimit="10" stroke-width="1.19553" transform="matrix(1 0 0 -1 252.173 57.291)"/><g fill="#fff"><use x="32.31" xlink:href="#av" y="114.683"/><use x="39.366727" xlink:href="#X" y="114.683"/><use x="43.601241" xlink:href="#aa" y="114.683"/></g><g fill="#fff"><use x="48.066888" xlink:href="#af" y="114.683"/><use x="52.771638" xlink:href="#Z" y="114.683"/><use x="56.535119" xlink:href="#aj" y="114.683"/><use x="58.887095" xlink:href="#aj" y="114.683"/><use x="61.239072" xlink:href="#Z" y="114.683"/></g><use fill="#fff" x="65.010523" xlink:href="#ad" y="114.683"/><g fill="#fff"><use x="36.487" xlink:href="#aw" y="124.147"/><use x="42.246194" xlink:href="#aq" y="124.147"/><use x="44.598171" xlink:href="#aa" y="124.147"/><use x="49.302921" xlink:href="#ag" y="124.147"/><use x="53.537435" xlink:href="#ad" y="124.147"/><use x="56.837853" xlink:href="#aq" y="124.147"/><use x="59.18983" xlink:href="#ar" y="124.147"/></g><path d="m96.960938 86.195312c-6.792969-3.171874-12.257813-8.632812-15.425782-15.425781 3.371094 7.222657-.816406 13.175781-6.457031 18.8125l3.070313 3.066407c5.636718-5.636719 11.585937-9.824219 18.8125-6.453126zm-18.8125 6.453126-3.070313-3.066407.003906-.003906zm-5.359376 14.292968c-2.464843-5.285156-6.714843-9.535156-12-12 5.621094 2.621094 9.90625-.976562 14.292969-5.363281l3.066407 3.070313c-4.382813 4.386718-7.980469 8.671874-5.359376 14.292968zm0 0" fill="#007f7f"/></svg>