<svg xmlns="http://www.w3.org/2000/svg" xmlns:xlink="http://www.w3.org/1999/xlink" width="308.04" height="148.064" viewBox="0 0 231.03 111.048"><defs><symbol overflow="visible" id="a"><path d="M4.578-3.188c0-.796-.047-1.593-.39-2.328C3.733-6.484 2.905-6.64 2.5-6.64c-.61 0-1.328.266-1.75 1.188-.313.687-.36 1.469-.36 2.266 0 .75.032 1.64.454 2.406a1.83 1.83 0 001.64 1c.532 0 1.297-.203 1.735-1.157.312-.687.36-1.468.36-2.25zM2.484 0c-.39 0-.984-.25-1.156-1.203-.11-.594-.11-1.516-.11-2.11 0-.64 0-1.296.079-1.828.187-1.187.937-1.28 1.187-1.28.329 0 .985.187 1.172 1.171.11.563.11 1.313.11 1.938 0 .75 0 1.421-.11 2.062C3.5-.297 2.937 0 2.484 0zm0 0"/></symbol><symbol overflow="visible" id="b"><path d="M2.938-6.375c0-.25 0-.266-.235-.266C2.078-6 1.203-6 .891-6v.313c.203 0 .78 0 1.296-.266v5.172c0 .36-.03.469-.921.469H.953V0c.344-.031 1.203-.031 1.61-.031.39 0 1.265 0 1.609.031v-.313h-.313c-.906 0-.921-.109-.921-.468zm0 0"/></symbol><symbol overflow="visible" id="f"><path d="M6.844-3.266c.156 0 .343 0 .343-.187 0-.203-.187-.203-.328-.203H.891c-.141 0-.329 0-.329.203 0 .187.188.187.329.187zm.015 1.938c.141 0 .329 0 .329-.203 0-.188-.188-.188-.344-.188H.89c-.141 0-.329 0-.329.188 0 .203.188.203.329.203zm0 0"/></symbol><symbol overflow="visible" id="g"><path d="M2.938-1.64v.859c0 .36-.032.469-.766.469h-.203V0c.406-.031.922-.031 1.343-.031.422 0 .938 0 1.36.031v-.313h-.219c-.734 0-.75-.109-.75-.468v-.86h.985v-.312h-.985v-4.531c0-.204 0-.266-.172-.266-.078 0-.11 0-.187.125L.28-1.953v.312zm.046-.313H.563l2.421-3.719zm0 0"/></symbol><symbol overflow="visible" id="h"><path d="M2.89-3.516c.813-.265 1.391-.953 1.391-1.75 0-.812-.875-1.375-1.828-1.375-1 0-1.765.594-1.765 1.36 0 .328.218.515.515.515.297 0 .5-.218.5-.515 0-.485-.469-.485-.61-.485.298-.5.954-.625 1.313-.625.422 0 .969.22.969 1.11 0 .125-.031.703-.281 1.14-.297.485-.64.516-.89.516a3.29 3.29 0 01-.392.031c-.078.016-.14.031-.14.125 0 .11.062.11.234.11h.438c.812 0 1.187.671 1.187 1.656 0 1.36-.687 1.64-1.125 1.64-.437 0-1.187-.171-1.531-.75.344.047.656-.171.656-.546a.537.537 0 00-.547-.563c-.25 0-.562.14-.562.578C.422-.437 1.344.22 2.437.22c1.22 0 2.126-.906 2.126-1.922 0-.813-.641-1.594-1.672-1.813zm0 0"/></symbol><symbol overflow="visible" id="i"><path d="M1.266-.766l1.062-1.03c1.547-1.376 2.14-1.907 2.14-2.907 0-1.14-.89-1.938-2.109-1.938C1.234-6.64.5-5.719.5-4.828c0 .547.5.547.531.547.172 0 .516-.11.516-.532a.513.513 0 00-.531-.515c-.079 0-.094 0-.125.016.218-.657.765-1.016 1.343-1.016.907 0 1.329.812 1.329 1.625 0 .797-.485 1.578-1.047 2.203L.609-.375C.5-.265.5-.235.5 0h3.703l.266-1.734h-.235C4.172-1.438 4.11-1 4-.844c-.063.078-.719.078-.938.078zm0 0"/></symbol><symbol overflow="visible" id="c"><path d="M2.875-6.375h1.14v-.469c-.406.032-1.39.032-1.843.032-.453 0-1.438 0-1.844-.032v.469h1.14v5.906H.329V0c.406-.031 1.39-.031 1.844-.031.453 0 1.437 0 1.844.031v-.469H2.875zm0 0"/></symbol><symbol overflow="visible" id="e"><path d="M4.828-4.203l2.406-1.984c.22-.188.625-.188.938-.188h.156v-.469c-.39.032-.969.032-1.015.032-.375 0-1.094 0-1.454-.032v.469c.125 0 .329 0 .579.063.156.03.046.015.125.046L2.874-3.187v-3.188h1.078v-.469c-.375.032-1.344.032-1.781.032-.422 0-1.406 0-1.781-.032v.469h1.078v5.906H.39V0C.766-.031 1.75-.031 2.17-.031c.438 0 1.407 0 1.782.031v-.469H2.875v-2.094l1-.828L5.938-.687c.046.062.046.078.078.14-.188.078-.391.078-.735.078V0c.407-.031 1.313-.031 1.75-.031.407 0 1.094 0 1.469.031v-.469h-.297c-.531 0-.562-.047-.672-.203zm0 0"/></symbol><symbol overflow="visible" id="d"><path d="M2.734-4.25c.016-.14.016-.39-.234-.39-.172 0-.297.14-.266.265v.125l.141 1.547-1.281-.922C1-3.672.984-3.703.922-3.703c-.14 0-.281.14-.281.281 0 .156.109.203.203.25l1.422.672-1.375.672c-.157.078-.25.125-.25.266 0 .156.14.28.28.28.063 0 .079 0 .329-.187l1.125-.797-.156 1.672c0 .203.187.25.265.25.125 0 .266-.062.266-.25l-.14-1.672 1.265.922c.094.047.11.063.188.063.14 0 .265-.14.265-.282 0-.14-.094-.187-.219-.25-.593-.296-.609-.296-1.39-.671l1.375-.672c.156-.078.234-.11.234-.266 0-.14-.125-.281-.266-.281-.078 0-.093 0-.343.187l-1.11.813zm0 0"/></symbol><symbol overflow="visible" id="j"><path d="M2.469-1.484c.031-.032.047-.063.047-.079 0-.046-.032-.093-.079-.093-.03 0-.046.015-.078.047l-.734.75-.75-.75c-.031-.032-.047-.047-.078-.047-.047 0-.078.047-.078.093 0 .032.015.047.047.079L1.5-.75.766 0C.734.031.719.047.719.078c0 .047.031.078.078.078C.828.156.844.141.875.11l.734-.734.766.766c.016.015.047.015.063.015.046 0 .078-.031.078-.078 0-.015 0-.031-.016-.047 0-.015-.563-.562-.766-.781zm0 0"/></symbol><symbol overflow="visible" id="k"><path d="M1.188-1.89c0-.094-.016-.094-.11-.094-.203.187-.547.187-.594.187H.422v.125h.062c.063 0 .25 0 .422-.078v1.5c0 .078 0 .125-.312.125h-.14V0c.155-.016.421-.016.593-.016s.437 0 .61.016v-.125H1.5c-.313 0-.313-.047-.313-.125zm0 0"/></symbol><symbol overflow="visible" id="l"><path d="M1.797-.953c0-.219 0-1.031-.781-1.031-.782 0-.782.812-.782 1.03 0 .22 0 1.016.782 1.016.78 0 .78-.796.78-1.015zm-.781.922a.441.441 0 01-.438-.344C.531-.531.531-.75.531-.985c0-.234 0-.437.047-.609.078-.25.313-.297.438-.297.218 0 .375.11.437.329.047.14.047.39.047.578 0 .203 0 .437-.047.625-.078.28-.312.328-.437.328zm0 0"/></symbol></defs><path d="M3.52 16.582h11.62V3.52H3.52zm0 0" fill="none" stroke-width=".399" stroke="#000" stroke-miterlimit="10"/><use xlink:href="#a" x="6.84" y="13.26"/><path d="M15.14 16.582h11.626V3.52H15.14zm0 0" fill="none" stroke-width=".399" stroke="#000" stroke-miterlimit="10"/><use xlink:href="#b" x="18.463" y="13.26"/><path d="M26.766 16.582h11.62V3.52h-11.62zm0 0" fill="none" stroke-width=".399" stroke="#000" stroke-miterlimit="10"/><use xlink:href="#b" x="30.085" y="13.26"/><path d="M38.387 16.582h11.62V3.52h-11.62zm0 0" fill="#ffd9b2" stroke-width=".399" stroke="#000" stroke-miterlimit="10"/><use xlink:href="#b" x="41.707" y="13.26"/><path d="M50.008 16.582h11.625V3.52H50.008zm0 0" fill="#ffd9b2" stroke-width=".399" stroke="#000" stroke-miterlimit="10"/><use xlink:href="#a" x="53.33" y="13.26"/><path d="M61.633 16.582h11.62V3.52h-11.62zm0 0" fill="#ffd9b2" stroke-width=".399" stroke="#000" stroke-miterlimit="10"/><use xlink:href="#a" x="64.952" y="13.26"/><path d="M73.254 16.582h11.621V3.52H73.254zm0 0" fill="none" stroke-width=".399" stroke="#000" stroke-miterlimit="10"/><use xlink:href="#a" x="76.574" y="13.26"/><path d="M3.52 29.64h11.62V16.583H3.52zm0 0" fill="none" stroke-width=".399" stroke="#000" stroke-miterlimit="10"/><use xlink:href="#a" x="6.84" y="26.322"/><path d="M15.14 29.64h11.626V16.583H15.14zm0 0" fill="none" stroke-width=".399" stroke="#000" stroke-miterlimit="10"/><use xlink:href="#a" x="18.463" y="26.322"/><path d="M26.766 29.64h11.62V16.583h-11.62zm0 0" fill="none" stroke-width=".399" stroke="#000" stroke-miterlimit="10"/><use xlink:href="#b" x="30.085" y="26.322"/><path d="M38.387 29.64h11.62V16.583h-11.62zm0 0" fill="#ffd9b2" stroke-width=".399" stroke="#000" stroke-miterlimit="10"/><use xlink:href="#b" x="41.707" y="26.322"/><path d="M50.008 29.64h11.625V16.583H50.008zm0 0" fill="#ffd9b2" stroke-width=".399" stroke="#000" stroke-miterlimit="10"/><use xlink:href="#b" x="53.33" y="26.322"/><path d="M61.633 29.64h11.62V16.583h-11.62zm0 0" fill="#ffd9b2" stroke-width=".399" stroke="#000" stroke-miterlimit="10"/><use xlink:href="#a" x="64.952" y="26.322"/><path d="M73.254 29.64h11.621V16.583H73.254zm0 0" fill="none" stroke-width=".399" stroke="#000" stroke-miterlimit="10"/><use xlink:href="#a" x="76.574" y="26.322"/><path d="M3.52 42.703h11.62V29.641H3.52zm0 0" fill="none" stroke-width=".399" stroke="#000" stroke-miterlimit="10"/><use xlink:href="#a" x="6.84" y="39.383"/><path d="M15.14 42.703h11.626V29.641H15.14zm0 0" fill="none" stroke-width=".399" stroke="#000" stroke-miterlimit="10"/><use xlink:href="#a" x="18.463" y="39.383"/><path d="M26.766 42.703h11.62V29.641h-11.62zm0 0" fill="none" stroke-width=".399" stroke="#000" stroke-miterlimit="10"/><use xlink:href="#a" x="30.085" y="39.383"/><path d="M38.387 42.703h11.62V29.641h-11.62zm0 0" fill="#ffd9b2" stroke-width=".399" stroke="#000" stroke-miterlimit="10"/><use xlink:href="#b" x="41.707" y="39.383"/><path d="M50.008 42.703h11.625V29.641H50.008zm0 0" fill="#ffd9b2" stroke-width=".399" stroke="#000" stroke-miterlimit="10"/><use xlink:href="#b" x="53.33" y="39.383"/><path d="M61.633 42.703h11.62V29.641h-11.62zm0 0" fill="#ffd9b2" stroke-width=".399" stroke="#000" stroke-miterlimit="10"/><use xlink:href="#b" x="64.952" y="39.383"/><path d="M73.254 42.703h11.621V29.641H73.254zm0 0" fill="none" stroke-width=".399" stroke="#000" stroke-miterlimit="10"/><use xlink:href="#a" x="76.574" y="39.383"/><path d="M3.52 55.766h11.62V42.703H3.52zm0 0" fill="none" stroke-width=".399" stroke="#000" stroke-miterlimit="10"/><use xlink:href="#a" x="6.84" y="52.445"/><path d="M15.14 55.766h11.626V42.703H15.14zm0 0" fill="none" stroke-width=".399" stroke="#000" stroke-miterlimit="10"/><use xlink:href="#a" x="18.463" y="52.445"/><path d="M26.766 55.766h11.62V42.703h-11.62zm0 0" fill="none" stroke-width=".399" stroke="#000" stroke-miterlimit="10"/><use xlink:href="#a" x="30.085" y="52.445"/><path d="M38.387 55.766h11.62V42.703h-11.62zm0 0" fill="none" stroke-width=".399" stroke="#000" stroke-miterlimit="10"/><use xlink:href="#b" x="41.707" y="52.445"/><path d="M50.008 55.766h11.625V42.703H50.008zm0 0" fill="none" stroke-width=".399" stroke="#000" stroke-miterlimit="10"/><use xlink:href="#b" x="53.33" y="52.445"/><path d="M61.633 55.766h11.62V42.703h-11.62zm0 0" fill="none" stroke-width=".399" stroke="#000" stroke-miterlimit="10"/><use xlink:href="#a" x="64.952" y="52.445"/><path d="M73.254 55.766h11.621V42.703H73.254zm0 0" fill="none" stroke-width=".399" stroke="#000" stroke-miterlimit="10"/><use xlink:href="#a" x="76.574" y="52.445"/><path d="M3.52 68.828h11.62V55.766H3.52zm0 0" fill="none" stroke-width=".399" stroke="#000" stroke-miterlimit="10"/><use xlink:href="#a" x="6.84" y="65.506"/><path d="M15.14 68.828h11.626V55.766H15.14zm0 0" fill="none" stroke-width=".399" stroke="#000" stroke-miterlimit="10"/><use xlink:href="#a" x="18.463" y="65.506"/><path d="M26.766 68.828h11.62V55.766h-11.62zm0 0" fill="none" stroke-width=".399" stroke="#000" stroke-miterlimit="10"/><use xlink:href="#b" x="30.085" y="65.506"/><path d="M38.387 68.828h11.62V55.766h-11.62zm0 0" fill="none" stroke-width=".399" stroke="#000" stroke-miterlimit="10"/><use xlink:href="#b" x="41.707" y="65.506"/><path d="M50.008 68.828h11.625V55.766H50.008zm0 0" fill="none" stroke-width=".399" stroke="#000" stroke-miterlimit="10"/><use xlink:href="#a" x="53.33" y="65.506"/><path d="M61.633 68.828h11.62V55.766h-11.62zm0 0" fill="none" stroke-width=".399" stroke="#000" stroke-miterlimit="10"/><use xlink:href="#a" x="64.952" y="65.506"/><path d="M73.254 68.828h11.621V55.766H73.254zm0 0" fill="none" stroke-width=".399" stroke="#000" stroke-miterlimit="10"/><use xlink:href="#a" x="76.574" y="65.506"/><path d="M3.52 81.887h11.62V68.824H3.52zm0 0" fill="none" stroke-width=".399" stroke="#000" stroke-miterlimit="10"/><use xlink:href="#a" x="6.84" y="78.567"/><path d="M15.14 81.887h11.626V68.824H15.14zm0 0" fill="none" stroke-width=".399" stroke="#000" stroke-miterlimit="10"/><use xlink:href="#b" x="18.463" y="78.567"/><path d="M26.766 81.887h11.62V68.824h-11.62zm0 0" fill="none" stroke-width=".399" stroke="#000" stroke-miterlimit="10"/><use xlink:href="#b" x="30.085" y="78.567"/><path d="M38.387 81.887h11.62V68.824h-11.62zm0 0" fill="none" stroke-width=".399" stroke="#000" stroke-miterlimit="10"/><use xlink:href="#a" x="41.707" y="78.567"/><path d="M50.008 81.887h11.625V68.824H50.008zm0 0" fill="none" stroke-width=".399" stroke="#000" stroke-miterlimit="10"/><use xlink:href="#a" x="53.33" y="78.567"/><path d="M61.633 81.887h11.62V68.824h-11.62zm0 0" fill="none" stroke-width=".399" stroke="#000" stroke-miterlimit="10"/><use xlink:href="#a" x="64.952" y="78.567"/><path d="M73.254 81.887h11.621V68.824H73.254zm0 0" fill="none" stroke-width=".399" stroke="#000" stroke-miterlimit="10"/><use xlink:href="#a" x="76.574" y="78.567"/><path d="M3.52 94.95h11.62V81.886H3.52zm0 0" fill="none" stroke-width=".399" stroke="#000" stroke-miterlimit="10"/><use xlink:href="#b" x="6.84" y="91.629"/><path d="M15.14 94.95h11.626V81.886H15.14zm0 0" fill="none" stroke-width=".399" stroke="#000" stroke-miterlimit="10"/><use xlink:href="#b" x="18.463" y="91.629"/><path d="M26.766 94.95h11.62V81.886h-11.62zm0 0" fill="none" stroke-width=".399" stroke="#000" stroke-miterlimit="10"/><use xlink:href="#a" x="30.085" y="91.629"/><path d="M38.387 94.95h11.62V81.886h-11.62zm0 0" fill="none" stroke-width=".399" stroke="#000" stroke-miterlimit="10"/><use xlink:href="#a" x="41.707" y="91.629"/><path d="M50.008 94.95h11.625V81.886H50.008zm0 0" fill="none" stroke-width=".399" stroke="#000" stroke-miterlimit="10"/><use xlink:href="#a" x="53.33" y="91.629"/><path d="M61.633 94.95h11.62V81.886h-11.62zm0 0" fill="none" stroke-width=".399" stroke="#000" stroke-miterlimit="10"/><use xlink:href="#a" x="64.952" y="91.629"/><path d="M73.254 94.95h11.621V81.886H73.254zm0 0" fill="none" stroke-width=".399" stroke="#000" stroke-miterlimit="10"/><use xlink:href="#a" x="76.574" y="91.629"/><use xlink:href="#c" x="42.026" y="107.727"/><use xlink:href="#d" x="94.108" y="51.552"/><path d="M108.32 42.703h11.621V29.641h-11.62zm0 0" fill="#b2d9d9" stroke-width=".399" stroke="#000" stroke-miterlimit="10"/><use xlink:href="#b" x="111.641" y="39.383"/><path d="M119.941 42.703h11.625V29.641h-11.625zm0 0" fill="#b2d9d9" stroke-width=".399" stroke="#000" stroke-miterlimit="10"/><use xlink:href="#a" x="123.263" y="39.383"/><path d="M131.566 42.703h11.621V29.641h-11.62zm0 0" fill="#b2d9d9" stroke-width=".399" stroke="#000" stroke-miterlimit="10"/><use xlink:href="#b" x="134.886" y="39.383"/><path d="M108.32 55.766h11.621V42.703h-11.62zm0 0" fill="#b2d9d9" stroke-width=".399" stroke="#000" stroke-miterlimit="10"/><use xlink:href="#a" x="111.641" y="52.445"/><path d="M119.941 55.766h11.625V42.703h-11.625zm0 0" fill="#b2d9d9" stroke-width=".399" stroke="#000" stroke-miterlimit="10"/><use xlink:href="#b" x="123.263" y="52.445"/><path d="M131.566 55.766h11.621V42.703h-11.62zm0 0" fill="#b2d9d9" stroke-width=".399" stroke="#000" stroke-miterlimit="10"/><use xlink:href="#a" x="134.886" y="52.445"/><path d="M108.32 68.828h11.621V55.766h-11.62zm0 0" fill="#b2d9d9" stroke-width=".399" stroke="#000" stroke-miterlimit="10"/><use xlink:href="#b" x="111.641" y="65.506"/><path d="M119.941 68.828h11.625V55.766h-11.625zm0 0" fill="#b2d9d9" stroke-width=".399" stroke="#000" stroke-miterlimit="10"/><use xlink:href="#a" x="123.263" y="65.506"/><path d="M131.566 68.828h11.621V55.766h-11.62zm0 0" fill="#b2d9d9" stroke-width=".399" stroke="#000" stroke-miterlimit="10"/><use xlink:href="#b" x="134.886" y="65.506"/><use xlink:href="#e" x="121.264" y="107.727"/><use xlink:href="#f" x="152.419" y="51.062"/><path d="M169.398 29.64h11.622V16.583h-11.622zm0 0" fill="none" stroke-width=".399" stroke="#000" stroke-miterlimit="10"/><use xlink:href="#b" x="172.719" y="26.322"/><path d="M181.02 29.64h11.625V16.583H181.02zm0 0" fill="none" stroke-width=".399" stroke="#000" stroke-miterlimit="10"/><use xlink:href="#g" x="184.342" y="26.322"/><path d="M192.645 29.64h11.62V16.583h-11.62zm0 0" fill="none" stroke-width=".399" stroke="#000" stroke-miterlimit="10"/><use xlink:href="#h" x="195.964" y="26.322"/><path d="M204.266 29.64h11.62V16.583h-11.62zm0 0" fill="#b2b2f0" stroke-width=".399" stroke="#000" stroke-miterlimit="10"/><use xlink:href="#g" x="207.586" y="26.322"/><path d="M215.887 29.64h11.625V16.583h-11.625zm0 0" fill="none" stroke-width=".399" stroke="#000" stroke-miterlimit="10"/><use xlink:href="#b" x="219.209" y="26.322"/><path d="M169.398 42.703h11.622V29.641h-11.622zm0 0" fill="none" stroke-width=".399" stroke="#000" stroke-miterlimit="10"/><use xlink:href="#b" x="172.719" y="39.383"/><path d="M181.02 42.703h11.625V29.641H181.02zm0 0" fill="none" stroke-width=".399" stroke="#000" stroke-miterlimit="10"/><use xlink:href="#i" x="184.342" y="39.383"/><path d="M192.645 42.703h11.62V29.641h-11.62zm0 0" fill="none" stroke-width=".399" stroke="#000" stroke-miterlimit="10"/><use xlink:href="#g" x="195.964" y="39.383"/><path d="M204.266 42.703h11.62V29.641h-11.62zm0 0" fill="none" stroke-width=".399" stroke="#000" stroke-miterlimit="10"/><use xlink:href="#h" x="207.586" y="39.383"/><path d="M215.887 42.703h11.625V29.641h-11.625zm0 0" fill="none" stroke-width=".399" stroke="#000" stroke-miterlimit="10"/><use xlink:href="#h" x="219.209" y="39.383"/><path d="M169.398 55.766h11.622V42.703h-11.622zm0 0" fill="none" stroke-width=".399" stroke="#000" stroke-miterlimit="10"/><use xlink:href="#b" x="172.719" y="52.445"/><path d="M181.02 55.766h11.625V42.703H181.02zm0 0" fill="none" stroke-width=".399" stroke="#000" stroke-miterlimit="10"/><use xlink:href="#i" x="184.342" y="52.445"/><path d="M192.645 55.766h11.62V42.703h-11.62zm0 0" fill="none" stroke-width=".399" stroke="#000" stroke-miterlimit="10"/><use xlink:href="#h" x="195.964" y="52.445"/><path d="M204.266 55.766h11.62V42.703h-11.62zm0 0" fill="none" stroke-width=".399" stroke="#000" stroke-miterlimit="10"/><use xlink:href="#g" x="207.586" y="52.445"/><path d="M215.887 55.766h11.625V42.703h-11.625zm0 0" fill="none" stroke-width=".399" stroke="#000" stroke-miterlimit="10"/><use xlink:href="#b" x="219.209" y="52.445"/><path d="M169.398 68.828h11.622V55.766h-11.622zm0 0" fill="none" stroke-width=".399" stroke="#000" stroke-miterlimit="10"/><use xlink:href="#b" x="172.719" y="65.506"/><path d="M181.02 68.828h11.625V55.766H181.02zm0 0" fill="none" stroke-width=".399" stroke="#000" stroke-miterlimit="10"/><use xlink:href="#h" x="184.342" y="65.506"/><path d="M192.645 68.828h11.62V55.766h-11.62zm0 0" fill="none" stroke-width=".399" stroke="#000" stroke-miterlimit="10"/><use xlink:href="#h" x="195.964" y="65.506"/><path d="M204.266 68.828h11.62V55.766h-11.62zm0 0" fill="none" stroke-width=".399" stroke="#000" stroke-miterlimit="10"/><use xlink:href="#b" x="207.586" y="65.506"/><path d="M215.887 68.828h11.625V55.766h-11.625zm0 0" fill="none" stroke-width=".399" stroke="#000" stroke-miterlimit="10"/><use xlink:href="#b" x="219.209" y="65.506"/><path d="M169.398 81.887h11.622V68.824h-11.622zm0 0" fill="none" stroke-width=".399" stroke="#000" stroke-miterlimit="10"/><use xlink:href="#h" x="172.719" y="78.567"/><path d="M181.02 81.887h11.625V68.824H181.02zm0 0" fill="none" stroke-width=".399" stroke="#000" stroke-miterlimit="10"/><use xlink:href="#h" x="184.342" y="78.567"/><path d="M192.645 81.887h11.62V68.824h-11.62zm0 0" fill="none" stroke-width=".399" stroke="#000" stroke-miterlimit="10"/><use xlink:href="#b" x="195.964" y="78.567"/><path d="M204.266 81.887h11.62V68.824h-11.62zm0 0" fill="none" stroke-width=".399" stroke="#000" stroke-miterlimit="10"/><use xlink:href="#b" x="207.586" y="78.567"/><path d="M215.887 81.887h11.625V68.824h-11.625zm0 0" fill="none" stroke-width=".399" stroke="#000" stroke-miterlimit="10"/><use xlink:href="#a" x="219.209" y="78.567"/><use xlink:href="#c" x="187.088" y="107.727"/><use xlink:href="#d" x="193.646" y="107.727"/><use xlink:href="#e" x="200.841" y="107.727"/><path d="M73.453 3.32l34.668 26.121M73.453 42.902l34.668 26.125" fill="none" stroke-width=".399" stroke="teal" stroke-dasharray="2.98883,2.98883" stroke-miterlimit="10"/><path d="M143.387 29.441L204.07 16.38M143.387 69.027L204.07 29.84" fill="none" stroke-width=".399" stroke="#00c" stroke-dasharray="2.98883,2.98883" stroke-miterlimit="10"/><use xlink:href="#j" x="44.484" y="15.983"/><use xlink:href="#k" x="47.722" y="15.983"/><use xlink:href="#j" x="56.106" y="15.983"/><use xlink:href="#l" x="59.344" y="15.983"/><use xlink:href="#j" x="67.729" y="15.983"/><use xlink:href="#k" x="70.967" y="15.983"/><use xlink:href="#j" x="44.484" y="29.044"/><use xlink:href="#l" x="47.722" y="29.044"/><use xlink:href="#j" x="56.106" y="29.044"/><use xlink:href="#k" x="59.344" y="29.044"/><use xlink:href="#j" x="67.729" y="29.044"/><use xlink:href="#l" x="70.967" y="29.044"/><use xlink:href="#j" x="44.484" y="42.106"/><use xlink:href="#k" x="47.722" y="42.106"/><use xlink:href="#j" x="56.106" y="42.106"/><use xlink:href="#l" x="59.344" y="42.106"/><use xlink:href="#j" x="67.729" y="42.106"/><use xlink:href="#k" x="70.967" y="42.106"/></svg>