<svg xmlns="http://www.w3.org/2000/svg" xmlns:xlink="http://www.w3.org/1999/xlink" width="229.24" height="190.4" viewBox="0 0 171.93 142.8"><defs><symbol overflow="visible" id="c"><path d="M1.36-.781c0 .36-.032.469-.798.469H.329V0h5.75L6.5-2.578h-.25C6-1.031 5.766-.313 4.062-.313H2.734c-.468 0-.484-.062-.484-.39v-2.672h.89c.97 0 1.079.328 1.079 1.172h.25v-2.64h-.25c0 .859-.11 1.171-1.078 1.171H2.25v-2.406c0-.328.016-.39.484-.39h1.282c1.53 0 1.796.546 1.953 1.937h.25l-.282-2.25H.329v.312h.234c.766 0 .797.11.797.469zm0 0"/></symbol><symbol overflow="visible" id="d"><path d="M1.094-3.422V-.75c0 .438-.11.438-.782.438V0c.36-.016.86-.031 1.141-.031.25 0 .766.015 1.11.031v-.313c-.672 0-.782 0-.782-.437v-1.844c0-1.031.719-1.594 1.344-1.594.64 0 .75.532.75 1.11V-.75c0 .438-.11.438-.781.438V0c.344-.016.86-.031 1.125-.031.25 0 .781.015 1.11.031v-.313c-.516 0-.766 0-.766-.296v-1.907c0-.859 0-1.156-.313-1.515-.14-.172-.469-.375-1.047-.375-.734 0-1.203.422-1.484 1.047v-1.047l-1.407.11v.312c.704 0 .782.062.782.562zm0 0"/></symbol><symbol overflow="visible" id="e"><path d="M1.719-3.984h1.437v-.313H1.72v-1.828h-.25c0 .813-.297 1.875-1.282 1.922v.219h.844v2.75c0 1.218.938 1.343 1.297 1.343.703 0 .985-.703.985-1.343v-.563h-.25v.547c0 .734-.297 1.11-.672 1.11-.672 0-.672-.907-.672-1.079zm0 0"/></symbol><symbol overflow="visible" id="f"><path d="M1.094-.75c0 .438-.11.438-.782.438V0c.36-.016.86-.031 1.141-.031.25 0 .766.015 1.11.031v-.313c-.672 0-.782 0-.782-.437v-1.844c0-1.031.719-1.594 1.344-1.594.64 0 .75.532.75 1.11V-.75c0 .438-.11.438-.781.438V0c.344-.016.86-.031 1.125-.031.25 0 .781.015 1.11.031v-.313c-.516 0-.766 0-.766-.296v-1.907c0-.859 0-1.156-.313-1.515-.14-.172-.469-.375-1.047-.375-.844 0-1.281.593-1.453.984v-3.5l-1.438.11v.312c.704 0 .782.063.782.563zm0 0"/></symbol><symbol overflow="visible" id="g"><path d="M3.313-.75c.046.39.312.813.78.813.22 0 .829-.141.829-.954v-.562h-.25v.562c0 .579-.25.641-.36.641-.328 0-.375-.453-.375-.5v-1.984c0-.422 0-.813-.359-1.188-.39-.39-.89-.547-1.36-.547-.827 0-1.515.469-1.515 1.125 0 .297.203.469.469.469a.435.435 0 00.453-.453c0-.125-.047-.453-.516-.453.282-.36.766-.469 1.079-.469.5 0 1.062.39 1.062 1.281v.36c-.516.03-1.203.062-1.828.359-.75.344-1 .86-1 1.297 0 .812.969 1.062 1.594 1.062.656 0 1.109-.406 1.296-.859zM3.25-2.39v1c0 .937-.719 1.28-1.172 1.28-.484 0-.89-.343-.89-.843 0-.547.421-1.375 2.062-1.438zm0 0"/></symbol><symbol overflow="visible" id="h"><path d="M1.766-6.922l-1.438.11v.312c.703 0 .781.063.781.563V-.75c0 .438-.109.438-.78.438V0c.327-.016.859-.031 1.109-.031s.734.015 1.109.031v-.313c-.672 0-.781 0-.781-.437zm0 0"/></symbol><symbol overflow="visible" id="i"><path d="M1.719-3.75v-.656l-1.438.11v.312c.703 0 .781.062.781.5v4.656c0 .453-.109.453-.78.453v.313c.343-.016.859-.032 1.109-.032.28 0 .78.016 1.125.032v-.313c-.657 0-.766 0-.766-.453V-.594c.047.172.469.703 1.219.703 1.187 0 2.219-.984 2.219-2.265 0-1.266-.954-2.25-2.079-2.25-.78 0-1.203.437-1.39.656zm.031 2.61v-2.22c.281-.515.766-.796 1.281-.796.735 0 1.328.875 1.328 2C4.36-.953 3.672-.11 2.938-.11c-.407 0-.782-.204-1.047-.61-.141-.203-.141-.219-.141-.422zm0 0"/></symbol><symbol overflow="visible" id="j"><path d="M4.14-3.344c.25-.64.766-.64.923-.64v-.313c-.235.016-.516.031-.75.031-.172 0-.641-.015-.86-.03v.312c.313 0 .469.171.469.421 0 .11-.016.126-.063.25L2.844-.874 1.75-3.547c-.047-.11-.063-.14-.063-.187 0-.25.36-.25.563-.25v-.313c-.266.016-.922.031-1.094.031-.265 0-.672-.015-.968-.03v.312c.484 0 .671 0 .812.343L2.5 0a6.764 6.764 0 00-.25.594c-.219.547-.5 1.234-1.14 1.234-.048 0-.282 0-.47-.187.313-.032.391-.25.391-.422C1.031.969.844.812.61.812c-.203 0-.421.125-.421.422 0 .454.421.813.921.813.625 0 1.032-.578 1.266-1.14zm0 0"/></symbol><symbol overflow="visible" id="l"><path d="M5.797-6.781H.328v.312h.234c.766 0 .797.11.797.469v5.219c0 .36-.03.469-.796.469H.328V0c.344-.031 1.125-.031 1.516-.031.406 0 1.312 0 1.672.031v-.313h-.329c-.937 0-.937-.124-.937-.468v-2.453h.844c.969 0 1.062.312 1.062 1.156h.25v-2.64h-.25c0 .843-.093 1.171-1.062 1.171H2.25v-2.531c0-.328.016-.39.484-.39h1.188c1.5 0 1.75.562 1.906 1.937h.25zm0 0"/></symbol><symbol overflow="visible" id="m"><path d="M1.672-3.313v-1.093l-1.39.11v.312c.702 0 .78.062.78.562V-.75c0 .438-.109.438-.78.438V0c.39-.016.859-.031 1.14-.031.39 0 .86 0 1.266.031v-.313h-.22c-.734 0-.75-.109-.75-.468v-1.531c0-.985.423-1.876 1.173-1.876.062 0 .093 0 .109.016-.031 0-.234.125-.234.39 0 .266.218.423.437.423a.421.421 0 00.422-.438c0-.312-.313-.61-.734-.61-.735 0-1.094.673-1.22 1.095zm0 0"/></symbol><symbol overflow="visible" id="n"><path d="M1.11-2.516C1.171-4 2.015-4.25 2.36-4.25c1.015 0 1.124 1.344 1.124 1.734zm0 .22h2.78c.22 0 .25 0 .25-.22 0-.984-.546-1.953-1.78-1.953C1.202-4.469.28-3.437.28-2.187.281-.86 1.328.108 2.47.108 3.688.11 4.14-1 4.14-1.187c0-.094-.079-.125-.141-.125-.078 0-.11.062-.125.14C3.531-.14 2.625-.14 2.531-.14c-.5 0-.89-.296-1.125-.671-.297-.47-.297-1.125-.297-1.485zm0 0"/></symbol><symbol overflow="visible" id="o"><path d="M2.219-1.719c-.875 0-.875-1-.875-1.218 0-.266.015-.594.156-.844.078-.11.313-.39.719-.39.86 0 .86.984.86 1.218 0 .265 0 .594-.157.844-.078.109-.313.39-.703.39zm-1.156.39c0-.03 0-.265.156-.468.39.281.812.313 1 .313.922 0 1.61-.688 1.61-1.454 0-.374-.157-.734-.407-.968.36-.344.719-.39.89-.39.032 0 .079 0 .11.015-.11.031-.172.14-.172.265 0 .172.14.282.297.282a.28.28 0 00.281-.297c0-.172-.11-.485-.5-.485-.203 0-.64.063-1.062.47a1.652 1.652 0 00-1.047-.36c-.938 0-1.625.687-1.625 1.453 0 .437.219.812.469 1.031-.125.14-.313.469-.313.828 0 .313.14.688.453.89-.61.157-.922.595-.922.985 0 .719.985 1.266 2.203 1.266 1.172 0 2.204-.5 2.204-1.281 0-.344-.125-.86-.641-1.141-.531-.266-1.11-.266-1.719-.266-.25 0-.672 0-.75-.015-.312-.047-.516-.344-.516-.672zM2.5 1.829C1.484 1.828.797 1.312.797.781c0-.453.375-.828.812-.844h.594c.86 0 1.969 0 1.969.844 0 .547-.703 1.047-1.672 1.047zm0 0"/></symbol><symbol overflow="visible" id="s"><path d="M4.688-2.14c0-1.266-.985-2.329-2.188-2.329C1.25-4.469.281-3.375.281-2.14A2.22 2.22 0 002.484.11c1.204 0 2.204-.984 2.204-2.25zM2.5-.14c-.438 0-.875-.204-1.14-.672-.25-.438-.25-1.047-.25-1.407 0-.39 0-.922.234-1.36a1.347 1.347 0 011.14-.671c.438 0 .86.219 1.125.656.266.422.266 1 .266 1.375 0 .36 0 .906-.219 1.344-.234.453-.672.734-1.156.734zm0 0"/></symbol><symbol overflow="visible" id="k"><path d="M7.61-6.047c.093-.36.109-.453.827-.453.266 0 .344 0 .344-.203 0-.11-.11-.11-.14-.11-.282 0-1 .032-1.282.032-.28 0-.984-.032-1.28-.032-.079 0-.188 0-.188.204 0 .109.093.109.28.109.016 0 .204 0 .376.016.187.03.266.03.266.171 0 .032 0 .047-.032.188l-.593 2.422H3.14l.593-2.344c.079-.36.11-.453.829-.453.265 0 .343 0 .343-.203 0-.11-.11-.11-.14-.11-.282 0-1 .032-1.282.032-.28 0-.984-.032-1.28-.032-.079 0-.188 0-.188.204 0 .109.093.109.28.109.017 0 .204 0 .376.016.172.03.265.03.265.171 0 .032 0 .063-.03.188L1.561-.781c-.093.39-.109.469-.906.469-.172 0-.265 0-.265.203C.39 0 .516 0 .53 0c.281 0 .985-.031 1.266-.031.203 0 .422.015.64.015.22 0 .438.016.641.016.078 0 .203 0 .203-.203 0-.11-.094-.11-.281-.11-.375 0-.64 0-.64-.171 0-.063.015-.11.015-.172l.688-2.735h3.03c-.405 1.657-.64 2.61-.687 2.75-.093.329-.281.329-.906.329-.14 0-.234 0-.234.203 0 .109.125.109.14.109.282 0 .985-.031 1.266-.031.203 0 .422.015.64.015.22 0 .438.016.641.016.078 0 .203 0 .203-.203 0-.11-.093-.11-.281-.11-.36 0-.64 0-.64-.171 0-.063.015-.11.03-.172zm0 0"/></symbol><symbol overflow="visible" id="p"><path d="M7.578-6.922c0-.031-.016-.11-.11-.11-.03 0-.046.016-.155.126l-.688.765c-.094-.14-.547-.89-1.656-.89C2.734-7.031.5-4.828.5-2.516.5-.922 1.61.22 3.219.22c.437 0 .89-.094 1.25-.235.5-.203.687-.406.86-.609.093.25.359.61.452.61.047 0 .078-.032.078-.032.016-.015.11-.406.157-.61l.187-.765.14-.516c.11-.437.11-.468.688-.468.047 0 .157-.016.157-.203 0-.079-.047-.11-.125-.11-.235 0-.829.031-1.047.031-.313 0-1.094-.03-1.407-.03-.078 0-.203 0-.203.202 0 .11.078.11.297.11.016 0 .297 0 .531.015.266.032.313.063.313.188 0 .094-.11.531-.219.906C5.047-.203 3.766-.094 3.406-.094c-.953 0-2-.562-2-2.094 0-.312.094-1.953 1.14-3.25.548-.671 1.517-1.28 2.5-1.28 1.016 0 1.61.765 1.61 1.921 0 .406-.031.406-.031.516 0 .093.11.093.14.093.126 0 .126-.015.188-.203zm0 0"/></symbol><symbol overflow="visible" id="t"><path d="M6.438-6.922a.12.12 0 00-.125-.11c-.047 0-.047.016-.172.157l-.485.563c-.25-.47-.765-.72-1.422-.72-1.265 0-2.453 1.157-2.453 2.36 0 .797.516 1.266 1.032 1.406l1.062.282c.375.093.922.25.922 1.062 0 .89-.813 1.828-1.797 1.828-.64 0-1.75-.218-1.75-1.453 0-.234.063-.484.063-.531.015-.047.015-.063.015-.078 0-.094-.062-.11-.11-.11a.142.142 0 00-.109.047C1.08-2.188.516.094.516.125c0 .047.046.094.109.094.047 0 .063-.016.188-.157L1.296-.5c.422.578 1.11.719 1.687.719 1.36 0 2.532-1.328 2.532-2.563 0-.687-.344-1.031-.485-1.172-.234-.218-.39-.265-1.265-.484-.235-.063-.579-.172-.672-.188a.928.928 0 01-.61-.906c0-.812.797-1.656 1.75-1.656.813 0 1.422.438 1.422 1.547 0 .312-.031.5-.031.562 0 0 0 .094.11.094.109 0 .124-.031.156-.203zm0 0"/></symbol><symbol overflow="visible" id="B"><path d="M1.594-2.047c0-.375.093-1.687 1.125-1.687-.016.015-.156.125-.156.328a.39.39 0 10.78 0c0-.281-.265-.563-.671-.563-.531 0-.906.375-1.125.938v-.938l-1.281.11v.265c.609 0 .687.063.687.516v2.39C.953-.28.86-.28.266-.28V0C.75-.016.859-.031 1.312-.031c.36 0 .579.015 1.141.031v-.281h-.172c-.656 0-.687-.094-.687-.422zm0 0"/></symbol><symbol overflow="visible" id="C"><path d="M3.594-2.047c.187 0 .234 0 .234-.203 0-.922-.5-1.766-1.656-1.766-1.063 0-1.906.938-1.906 2.047 0 1.172.937 2.063 2.03 2.063 1.095 0 1.532-.953 1.532-1.157a.123.123 0 00-.125-.125c-.094 0-.11.063-.125.11a1.273 1.273 0 01-1.234.922c-.438 0-.797-.235-1-.547-.297-.438-.313-.969-.313-1.344zm-2.547-.219c.078-1.39.875-1.53 1.125-1.53.5 0 1.031.374 1.047 1.53zm0 0"/></symbol><symbol overflow="visible" id="D"><path d="M3.063-.64c.046.374.312.687.703.687.218 0 .78-.125.78-.844v-.5h-.25v.484c0 .11 0 .547-.327.547-.313 0-.313-.421-.313-.562v-1.578c0-.516 0-.813-.406-1.188-.328-.297-.766-.422-1.219-.422-.75 0-1.375.375-1.375.954 0 .265.188.421.422.421a.394.394 0 00.406-.406c0-.39-.39-.437-.406-.437.25-.235.688-.313.938-.313.453 0 .968.344.968 1.14v.282c-.484.031-1.156.063-1.75.36-.656.312-.843.78-.843 1.14 0 .734.859.969 1.468.969.735 0 1.079-.485 1.204-.735zm-.079-.626c0 .875-.671 1.141-1.062 1.141-.422 0-.813-.313-.813-.75 0-.594.5-1.219 1.875-1.281zm0 0"/></symbol><symbol overflow="visible" id="E"><path d="M3.266-3.531c-.188.047-.375.172-.375.422a.42.42 0 00.421.421c.235 0 .422-.156.422-.437 0-.547-.625-.89-1.421-.89-1.141 0-2 .952-2 2.077C.313-.78 1.234.095 2.296.095c1.25 0 1.531-1.078 1.531-1.157 0-.109-.094-.109-.125-.109-.094 0-.094.016-.156.172-.203.61-.703.844-1.156.844-.579 0-1.313-.469-1.313-1.797 0-1.39.719-1.813 1.25-1.813.125 0 .61.016.938.235zm0 0"/></symbol><symbol overflow="visible" id="F"><path d="M2.922-3.594v-.265H1.609v-1.657h-.25c0 .75-.312 1.672-1.187 1.704v.218h.781v2.485c0 1 .719 1.203 1.203 1.203.594 0 .906-.563.906-1.203v-.516h-.25v.484c0 .672-.28.985-.593.985-.61 0-.61-.781-.61-.953v-2.485zm0 0"/></symbol><symbol overflow="visible" id="G"><path d="M1.656-3.969l-1.297.11v.265c.579 0 .657.063.657.5v2.406c0 .407-.094.407-.688.407V0c.39-.016.594-.031.984-.031.141 0 .516 0 .954.031v-.281c-.579 0-.61-.047-.61-.39zm.016-1.562a.477.477 0 00-.484-.485.497.497 0 00-.485.485c0 .265.219.484.485.484a.468.468 0 00.484-.484zm0 0"/></symbol><symbol overflow="visible" id="H"><path d="M1.61-3.188c-.016-.046-.048-.109-.048-.171 0-.235.329-.235.5-.235v-.265c-.39.015-.593.015-.984.015-.312 0-.578 0-.906-.015v.265c.422 0 .594 0 .734.344L2.22-.078c.047.156.125.172.203.172.078 0 .156-.016.219-.172l1.218-2.938c.188-.453.5-.562.813-.578v-.265c-.266.015-.672.015-.688.015-.25 0-.53 0-.78-.015v.265c.265.031.405.156.405.39 0 .095 0 .11-.046.204L2.64-.734zm0 0"/></symbol><symbol overflow="visible" id="I"><path d="M1.625-3.172c-.047-.125-.047-.172-.047-.187 0-.235.313-.235.5-.235v-.265c-.453.015-.625.015-1 .015-.031 0-.547 0-.89-.015v.265c.406 0 .578.031.687.266L2.281 0l-.219.531C1.86 1 1.61 1.61 1.016 1.61a.661.661 0 01-.391-.125c.063-.015.313-.078.313-.39A.36.36 0 00.563.719c-.22 0-.391.14-.391.39 0 .391.39.735.844.735.593 0 .968-.532 1.187-1.016l1.625-3.797c.094-.234.266-.594.828-.625v-.265c-.281.015-.562.015-.672.015-.25 0-.53 0-.78-.015v.265c.405.031.405.344.405.39a.589.589 0 01-.062.25L2.64-.811zm0 0"/></symbol><symbol overflow="visible" id="R"><path d="M1.64-6.219l-1.327.094v.281c.609 0 .687.063.687.5v4.657c0 .406-.094.406-.688.406V0c.422-.016.594-.031 1.032-.031.422 0 .547.015 1.015.031v-.281c-.593 0-.687 0-.687-.406v-1.641c0-.953.672-1.406 1.234-1.406.531 0 .64.437.64.968v2.079c0 .406-.093.406-.687.406V0c.422-.016.594-.031 1.032-.031.421 0 .546.015 1.015.031v-.281c-.453 0-.687 0-.687-.281v-1.72c0-.734 0-1-.25-1.312-.203-.25-.547-.375-1-.375-.594 0-1.047.313-1.313.828h-.015zm0 0"/></symbol><symbol overflow="visible" id="aa"><path d="M3.484-1.078c0 .156 0 .187-.125.375a1.3 1.3 0 01-1.046.578c-.391 0-.75-.219-.985-.594-.234-.39-.25-.906-.25-1.203 0-.422.047-.89.281-1.25a1.262 1.262 0 011.047-.562c.375 0 .735.187.969.53.11.142.11.142.11.313zm.032-2.36c-.047-.046-.454-.53-1.141-.53-1.11 0-2.063.89-2.063 2.046 0 1.11.891 2.016 1.954 2.016A1.59 1.59 0 003.484-.47v.563L4.844 0v-.281c-.61 0-.688-.063-.688-.5V-6.22l-1.328.094v.281c.61 0 .688.063.688.5zm0 0"/></symbol><symbol overflow="visible" id="ab"><path d="M3.078-3.781c0-.156 0-.235-.094-.235-.046 0-.062 0-.187.11-.016.015-.094.094-.156.14-.266-.203-.547-.25-.86-.25-1.187 0-1.468.657-1.468 1.11 0 .281.124.515.328.719.296.28.64.343 1.093.421.47.094.61.11.813.266.094.078.312.25.312.578 0 .797-.906.797-1.03.797-.907 0-1.141-.766-1.25-1.25-.032-.094-.048-.14-.141-.14-.126 0-.126.077-.126.234v1.14c0 .157 0 .235.094.235.063 0 .063 0 .235-.172a1.18 1.18 0 01.171-.219c.375.375.797.39 1.016.39 1.11 0 1.484-.64 1.484-1.234 0-.406-.171-.656-.374-.859-.297-.297-.626-.36-1.282-.484-.234-.047-.89-.157-.89-.672 0-.281.203-.672 1.015-.672.969 0 1.032.75 1.047.969.016.109.016.171.125.171.125 0 .125-.062.125-.234zm0 0"/></symbol><symbol overflow="visible" id="ac"><path d="M4.344-1.906c0-1.172-.938-2.11-2.032-2.11-1.14 0-2.046.954-2.046 2.11 0 1.11.921 2 2.03 2 1.142 0 2.048-.906 2.048-2zM2.312-.156c-.453 0-.828-.219-1.03-.563-.235-.39-.25-.86-.25-1.265 0-.344 0-.844.218-1.22a1.222 1.222 0 011.047-.593c.515 0 .875.297 1.062.594.204.375.204.828.204 1.219 0 .328 0 .843-.22 1.234a1.18 1.18 0 01-1.03.594zm0 0"/></symbol><clipPath id="a"><path d="M111 0h60.93v61H111zm0 0"/></clipPath><clipPath id="b"><path d="M105 0h66.93v67H105zm0 0"/></clipPath><clipPath id="q"><path d="M57 88h55v54.8H57zm0 0"/></clipPath><clipPath id="r"><path d="M52 82h66v60.8H52zm0 0"/></clipPath><clipPath id="u"><path d="M109 20h4v21h-4zm0 0"/></clipPath><clipPath id="v"><path d="M112.715 40.969a30.503 30.503 0 010-20.883c-2.613 7.172-9.477 7.988-17.106 7.988v4.906c7.63 0 14.493.817 17.106 7.989zM70.039 32.98h25.57v-4.906H70.04zm-15.695 7.13a28.048 28.048 0 000-19.165c2.394 6.582 8.691 7.13 15.695 7.13v4.905c-7.004 0-13.3.547-15.695 7.13zm0 0"/></clipPath><clipPath id="w"><path d="M54 20h4v21h-4zm0 0"/></clipPath><clipPath id="x"><path d="M112.715 40.969a30.503 30.503 0 010-20.883c-2.613 7.172-9.477 7.988-17.106 7.988v4.906c7.63 0 14.493.817 17.106 7.989zM70.039 32.98h25.57v-4.906H70.04zm-15.695 7.13a28.048 28.048 0 000-19.165c2.394 6.582 8.691 7.13 15.695 7.13v4.905c-7.004 0-13.3.547-15.695 7.13zm0 0"/></clipPath><clipPath id="y"><path d="M110.8 23.3h.071v.2h-.07zm-.1.2h.171v.102h-.172zm-.098.102h.27v.097h-.27zm-.102.097h.371v.102h-.371zm-.102.102h.473v.097h-.473zm-.097.097h.57V24h-.57zm-54.278 0h.079V24h-.079zM110.2 24h.672v.102h-.672zm-54.176 0h.176v.102h-.176zm54.079.102h.77v.097h-.77zm-54.079 0h.278v.097h-.278zm53.977.097h.871v.102H110zm-53.977 0h.375v.102h-.375zm53.875.102h.973v.097h-.973zm-53.875 0h.477v.097h-.477zm53.778.097h1.07v.102h-1.07zm-.102.102h1.172v.102H109.7zm-53.676-.102h.579v.204h-.579zm53.579.204h1.27v.097h-1.27zm-53.579 0h.676v.097h-.676zm53.375.097h1.473v.102h-1.473zm-53.375 0h.778v.102h-.778zm53.278.102h1.57v.097h-1.57zm-53.278 0h.875v.097h-.875zm53.176.097h1.672V25H109.2zm-53.176 0h1.079V25h-1.079zm53.079.102h1.77v.102h-1.77zm-53.079 0H57.2v.102h-1.176zm52.977.102h1.871v.097H109zm-52.977 0h1.278v.097h-1.278zm52.778.097h2.07v.102h-2.07zm-52.778 0h1.375v.102h-1.375zm52.676.102h2.172v.097H108.7zm-52.676 0H57.5v.097h-1.477zm52.477.097h2.371v.102H108.5zm-52.477 0H57.7v.102h-1.676zm52.375.102h2.473v.102h-2.473zm-52.375 0h1.778v.102h-1.778zm52.176.102h2.672v.097H108.2zm-52.176 0H58v.097h-1.977zm52.079.097h2.77v.102h-2.77zm-52.079 0h2.079v.102h-2.079zm51.875.102h2.973v.097h-2.973zm-51.875 0h2.278v.097h-2.278zm51.676.097h3.172V26H107.7zm-51.676 0h2.375V26h-2.375zM107.5 26h3.371v.102H107.5zm-51.477 0h2.579v.102h-2.579zm51.278.102h3.57v.097h-3.57zm-51.278 0h2.778v.097h-2.778zm51.079.097h3.77v.102h-3.77zm-51.079 0H59v.102h-2.977zm50.875.102h3.973v.097h-3.973zm-50.875 0H59.2v.097h-3.176zm50.579.097h4.27v.102h-4.27zm-50.579 0h3.375v.102h-3.375zm50.375.102h4.473v.102h-4.473zm-50.375 0h3.579v.102h-3.579zm50.176.102h4.672v.097H106.2zm-50.176 0h3.778v.097h-3.778zm49.875.097h4.973v.102h-4.973zm-49.875 0h4.079v.102h-4.079zm49.579.102h5.27v.097h-5.27zm-49.579 0h4.278v.097h-4.278zm49.278.097h5.57V27h-5.57zm-49.278 0h4.579V27h-4.579zM105 27h5.871v.102H105zm-48.977 0h4.875v.102h-4.875zm48.579.102h6.27v.097h-6.27zm-48.579 0H61.2v.097h-5.176zm48.176.097h6.672v.102H104.2zm-48.176 0h5.579v.102h-5.579zm47.778.102h7.07v.097h-7.07zm-47.778 0H62v.097h-5.977zm47.278.097h7.57v.102h-7.57zm-47.278 0h6.375v.102h-6.375zm46.676.102h8.172v.102H102.7zm-46.676 0h6.875v.102h-6.875zm46.079.102h8.77v.097h-8.77zm-46.079 0H63.5v.097h-7.477zm45.375.097h9.473v.102h-9.473zm-45.375 0h8.278v.102h-8.278zm44.278.102h10.57v.097h-10.57zm-44.278 0H65.2v.097h-9.176zm42.875.097h11.973V28H98.898zm-42.875 0h10.579V28H56.023zm0 .102h54.848v5H56.023zm41.375 5h13.473v.102H97.398zm-41.375 0H68.2v.102H56.023zm43.676.102h11.172v.097H99.7zm-43.676 0h9.875v.097h-9.875zm44.875.097h9.973v.102h-9.973zm-44.875 0H64.7v.102h-8.676zm45.676.102h9.172v.097H101.7zm-45.676 0h7.875v.097h-7.875zm46.477.097h8.371v.102H102.5zm-46.477 0h7.278v.102h-7.278zM103 33.5h7.871v.102H103zm-46.977 0H62.7v.102h-6.676zm47.477.102h7.371v.097H103.5zm-47.477 0H62.2v.097h-6.176zm47.977.097h6.871v.102H104zm-47.977 0h5.778v.102h-5.778zm48.375.102h6.473v.097h-6.473zm-48.375 0h5.375v.097h-5.375zm48.778.097h6.07V34h-6.07zm-48.778 0h5.079V34h-5.079zm49.079.102h5.77v.102h-5.77zm-49.079 0h4.778v.102h-4.778zm49.375.102h5.473v.097h-5.473zm-49.375 0H60.5v.097h-4.477zm49.676.097h5.172v.102H105.7zm-49.676 0H60.2v.102h-4.176zm49.977.102h4.871v.097H106zm-49.977 0H60v.097h-3.977zm50.278.097h4.57v.102h-4.57zm-50.278 0H59.7v.102h-3.676zm50.477.102h4.371v.102H106.5zm-50.477 0H59.5v.102h-3.477zm50.778.102h4.07v.097h-4.07zm-50.778 0h3.278v.097h-3.278zm50.977.097h3.871v.102H107zm-50.977 0h3.079v.102h-3.079zm51.176.102h3.672v.097H107.2zm-51.176 0h2.875v.097h-2.875zm51.375.097h3.473V35h-3.473zm-51.375 0H58.7V35h-2.676zm51.579.102h3.27v.102h-3.27zm-51.579 0H58.5v.102h-2.477zm51.778.102h3.07v.097h-3.07zm-51.778 0h2.375v.097h-2.375zm51.875.097h2.973v.102h-2.973zm-51.875 0H58.2v.102h-2.176zm52.079.102h2.77v.097h-2.77zm-52.079 0H58v.097h-1.977zm52.278.097h2.57v.102h-2.57zm-52.278 0h1.875v.102h-1.875zm52.375.102h2.473v.102h-2.473zm-52.375 0H57.7v.102h-1.676zm52.579.102h2.27v.097h-2.27zm-52.579 0h1.579v.097h-1.579zm52.676.097h2.172v.102H108.7zm-52.676 0H57.5v.102h-1.477zm52.875.102h1.973v.097h-1.973zm-52.875 0h1.375v.097h-1.375zm52.977.097h1.871V36H109zm-52.977 0h1.278V36h-1.278zm53.079.102h1.77v.102h-1.77zm-53.079 0h1.079v.102h-1.079zm53.278.102h1.57v.097h-1.57zm-53.278 0H57v.097h-.977zm53.375.097h1.473v.102h-1.473zm-53.375 0h.875v.102h-.875zm53.477.102h1.371v.097H109.5zm-53.477 0h.778v.097h-.778zm53.579.097h1.27v.102h-1.27zm-53.579 0h.676v.102h-.676zm53.676.102h1.172v.102H109.7zm-53.676 0h.579v.102h-.579zm53.875.102h.973v.097h-.973zm-53.875 0h.477v.097h-.477zm53.977.097h.871v.102H110zm-53.977 0h.375v.102h-.375zm54.079.102h.77v.097h-.77zm-54.079 0h.278v.097h-.278zm0 .097h.176V37h-.176zm54.176 0h.672v.204h-.672zM56.023 37h.079v.2h-.079zm54.278.102h.57v.097h-.57zm.097.097h.473v.102h-.473zm.102.102h.371v.097h-.371zm.102.097h.27v.102h-.27zm.097.102h.172v.102h-.172zm.102.102h.07v.097h-.07zm0 0"/></clipPath><clipPath id="z"><path d="M112.715 40.969a30.503 30.503 0 010-20.883c-2.613 7.172-9.477 7.988-17.106 7.988v4.906c7.63 0 14.493.817 17.106 7.989zM70.039 32.98h25.57v-4.906H70.04zm-15.695 7.13a28.048 28.048 0 000-19.165c2.394 6.582 8.691 7.13 15.695 7.13v4.905c-7.004 0-13.3.547-15.695 7.13zm0 0"/></clipPath><clipPath id="J"><path d="M91 75h35v25H91zm0 0"/></clipPath><clipPath id="K"><path d="M91.152 89.11a27.197 27.197 0 0115.5 10.331c-4.03-5.484-1.078-10.875 2.7-16.539l-3.965-2.644c-3.778 5.664-7.617 10.46-14.235 8.851zm22.856-21.782l-8.621 12.93 3.965 2.644 8.62-12.933zm2.781-18.703a30.542 30.542 0 0017.375 11.582c-7.414-1.805-11.96 3.41-16.191 9.762l-3.965-2.64c4.23-6.352 7.3-12.556 2.781-18.704zm0 0"/></clipPath><clipPath id="L"><path d="M98 48h37v26H98zm0 0"/></clipPath><clipPath id="M"><path d="M91.152 89.11a27.197 27.197 0 0115.5 10.331c-4.03-5.484-1.078-10.875 2.7-16.539l-3.965-2.644c-3.778 5.664-7.617 10.46-14.235 8.851zm22.856-21.782l-8.621 12.93 3.965 2.644 8.62-12.933zm2.781-18.703a30.542 30.542 0 0017.375 11.582c-7.414-1.805-11.96 3.41-16.191 9.762l-3.965-2.64c4.23-6.352 7.3-12.556 2.781-18.704zm0 0"/></clipPath><clipPath id="N"><path d="M118.398 51.8h.102v.098h-.102zm0 .098h.204V52h-.204zm0 .102h.403v.102h-.403zm.102.102h.398v.097h-.398zm0 .097h.602v.102h-.602zm0 .102h.7v.097h-.7zm0 .097h.898v.102h-.898zm.102.102h.898v.102h-.898zm0 .102h1.097v.097h-1.097zm0 .097h1.199v.102h-1.2zm.097.102H120v.097h-1.3zm0 .097h1.403V53h-1.403zm0 .102h1.602v.102h-1.602zm.102.102h1.597v.097h-1.597zm0 .097h1.8v.102h-1.8zm0 .102h1.898v.097h-1.898zm0 .097h2.097v.102h-2.097zm0 .102H121v.102h-2.2zm0 .102h2.398v.097h-2.398zm0 .097h2.5v.102h-2.5zm0 .102h2.699v.097h-2.7zm0 .097h2.8V54h-2.8zm.097.102h2.903v.102h-2.903zm0 .102h3v.097h-3zm0 .097h3.204v.102h-3.204zm0 .102h3.301v.097h-3.3zm0 .097h3.5v.102h-3.5zm0 .102h3.602v.102h-3.602zm0 .102h3.801v.097h-3.8zm0 .097h3.903v.102h-3.903zm0 .102H123v.097h-4.102zm0 .097h4.204V55h-4.204zm0 .102h4.403v.102h-4.403zm0 .102h4.5v.097h-4.5zm0 .097h4.704v.102h-4.704zm0 .102h4.801v.097h-4.8zm0 .097h5v.102h-5zm.102.102h5v.102h-5zm-.102.102h5.301v.097h-5.3zm0 .097h5.403v.102h-5.403zm0 .102h5.5v.097h-5.5zm0 .097h5.704V56h-5.704zm0 .102h5.903v.102h-5.903zm0 .102h6v.097h-6zm0 .097h6.204v.102h-6.204zm-.097.102h6.398v.097h-6.398zm0 .097h6.597v.102h-6.597zm0 .102h6.699v.102h-6.7zm0 .102h6.898v.097h-6.898zm0 .097h7v.102h-7zm0 .102H126v.097h-7.2zm0 .097h7.3V57h-7.3zm-.102.102h7.602v.102h-7.602zm0 .102h7.7v.097h-7.7zm0 .097h7.903v.102h-7.903zm0 .102h8v.097h-8zm0 .097h8.2v.102h-8.2zm0 .102H127v.102h-8.3zm0 .102h8.5v.097h-8.5zm-.097.097h8.699v.102h-8.7zm0 .102h8.898v.097h-8.898zm0 .097h9V58h-9zm0 .102h9.199v.102h-9.2zm-.102.102h9.398v.097H118.5zm0 .097h9.602v.102H118.5zm0 .102h9.7v.097h-9.7zm-.102.097h10v.102h-10zm0 .102H128.5v.102h-10.102zm0 .102H128.7v.097h-10.3zm-.097.097h10.5v.102h-10.5zm0 .102H129v.097h-10.7zm0 .097h10.8V59h-10.8zm-.102.102h11.102v.102h-11.102zm0 .102h11.2v.097h-11.2zm0 .097h11.403v.102h-11.403zm0 .102h11.5v.097h-11.5zm-.097.097h11.796v.102h-11.796zm0 .102H130v.102h-11.898zm0 .102h12.097v.097h-12.097zm-.102.097h12.3v.102H118zm0 .102h12.5v.097H118zm0 .097h12.3V60H118zm-.102.102h11.704v.102h-11.704zm0 .102h11.204v.097h-11.204zm0 .097H128.7v.102h-10.8zm-.097.102h10.597v.097h-10.597zm0 .097H128v.102h-10.2zm-.102.102h10.102v.102h-10.102zm0 .102h9.801v.097h-9.8zm-.097.097h9.699v.102h-9.7zm0 .102H127v.097h-9.398zm-.102.097h9.3V61h-9.3zm0 .102h9.102v.102H117.5zm-.102.102h9v.097h-9zm0 .097h8.801v.102h-8.8zm0 .102h8.704v.097h-8.704zm-.097.097h8.597v.102h-8.597zm0 .102h8.398v.102h-8.398zm-.102.102h8.403v.097h-8.403zm0 .097h8.2v.102h-8.2zm-.097.102h8.199v.097h-8.2zm0 .097h8V62h-8zM117 62h8v.102h-8zm0 .102h7.8v.097H117zm-.102.097h7.801v.102h-7.8zm0 .102h7.704v.097h-7.704zm0 .097h7.602v.102h-7.602zm-.097.102h7.5v.102h-7.5zm-.102.102h7.5v.097h-7.5zm0 .097h7.403v.102h-7.403zm-.097.102h7.296v.097h-7.296zm0 .097h7.199V63h-7.2zM116.5 63h7.2v.102h-7.2zm0 .102h7.102v.097H116.5zm-.102.097h7.102v.102h-7.102zm0 .102h7v.097h-7zm-.097.097h7v.102h-7zm-.102.102h7v.102h-7zm0 .102h6.903v.097h-6.903zm-.097.097H123v.102h-6.898zm0 .102h6.796v.097h-6.796zm-.102.097h6.8V64H116zm0 .102h6.7v.102H116zm-.102.102h6.704v.097h-6.704zm-.097.097h6.699v.102h-6.7zm0 .102h6.597v.097h-6.597zm-.102.097h6.602v.102h-6.602zm0 .102h6.5v.102h-6.5zm-.097.102h6.5v.097h-6.5zm0 .097H122v.102h-6.398zm-.102.102h6.398v.097H115.5zm-.102.097h6.403V65h-6.403zm0 .102h6.301v.102h-6.3zm-.097.102h6.398v.097h-6.398zm0 .097h6.3v.102h-6.3zm-.102.102h6.301v.097h-6.3zm-.097.097h6.296v.102h-6.296zm0 .102h6.199v.102h-6.2zm-.102.102h6.2v.097H115zm-.102.097h6.204v.2h-6.204zm-.097.2H121V66h-6.2zm0 .101h6.097v.102h-6.097zm-.102.102h6.102v.097h-6.102zm-.097.097h6.097v.2h-6.097zm-.102.2h6.102v.101H114.5zm-.102.101h6.102v.102h-6.102zm0 .102h6v.097h-6zm-.097.097h6v.102h-6zm-.102.102h6.102v.097h-6.102zm0 .097h6V67h-6zm-.097.102h6v.102h-6zm-.102.102h6v.199h-6zm-.102.199h6v.097h-6zm-.097.097h6v.102h-6zm0 .102h5.898v.102h-5.898zm-.102.102h6v.097h-6zm-.097.097h6v.102h-6zm0 .102h5.898v.097h-5.898zm-.102.097h6V68h-6zm-.102.102h6v.102h-6zm0 .102h5.903v.097h-5.903zm-.097.097h5.898v.102h-5.898zm-.102.102h6v.097h-6zm0 .097h5.903v.102h-5.903zm-.097.102H119v.102h-5.898zm-.102.102h6v.097h-6zm0 .097h5.898v.102H113zm-.102.102h5.903v.097h-5.903zm-.097.097h5.898v.204h-5.898zm-.102.204h5.903v.097h-5.903zm-.097.097h5.898v.2h-5.898zm-.102.2h5.898v.101H112.5zm-.102.101h5.903v.2h-5.903zm-.097.2h5.898v.1h-5.898zm-.102.1h5.903v.2h-5.903zm-.097.2H118v.102h-5.898zm-.102.102h5.898v.199H112zm-.102.199h5.903v.097h-5.903zm-.097.097h5.898v.204h-5.898zm-.102.204h5.903v.097h-5.903zm-.097.097h5.898v.2h-5.898zm-.102.2h5.898V71H111.5zm-.102.101h5.903v.2h-5.903zm-.097.2h5.898v.1h-5.898zm-.102.1h5.903v.2h-5.903zm-.097.2H117v.102h-5.898zm-.102.102h5.898v.199H111zm-.102.199h5.903v.097h-5.903zm-.097.097h5.898v.204h-5.898zm-.102.204h5.903v.097h-5.903zm-.097.097h5.898v.2h-5.898zm-.102.2h5.898v.101H110.5zm-.102.101h5.903v.2h-5.903zm-.097.2h5.898v.1h-5.898zm-.102.1h5.903v.2h-5.903zm-.097.2H116v.102h-5.898zm-.102.102h5.898v.199H110zm-.102.199h5.903v.097h-5.903zm-.097.097h5.898v.204h-5.898zm-.102.204h5.903v.097h-5.903zm-.097.097h5.898v.2h-5.898zm-.102.2h5.898V74H109.5zm-.102.101h5.903v.2h-5.903zm-.097.2h5.898v.1h-5.898zm-.102.1h5.903v.2h-5.903zm-.097.2H115v.102h-5.898zm-.102.102h5.898v.199H109zm-.102.199h5.903v.097h-5.903zm-.097.097h5.898v.204h-5.898zm-.102.204h5.903v.097h-5.903zm-.097.097h5.898v.2h-5.898zm-.102.2h5.898v.101H108.5zm-.102.101h5.903v.2h-5.903zm-.097.2h5.898v.1h-5.898zm-.102.1h5.903v.2h-5.903zm-.097.2H114v.102h-5.898zm-.102.102h5.898v.199H108zm-.102.199h5.903v.097h-5.903zm-.097.097h5.898v.204h-5.898zm-.102.204h5.903v.097h-5.903zm-.097.097h5.898v.2h-5.898zm-.102.2h5.898V77H107.5zm-.102.101h5.903v.2h-5.903zm-.097.2h5.898v.1h-5.898zm-.102.1h5.903v.2h-5.903zm-.097.2H113v.102h-5.898zm-.102.102h5.898v.199H107zm-.102.199h5.903v.097h-5.903zm-.097.097h5.898v.204h-5.898zm-.102.204h5.903v.097h-5.903zm-.097.097h5.898v.2h-5.898zm-.102.2h5.898v.101H106.5zm-.102.101h5.903v.2h-5.903zm-.097.2h5.898v.1h-5.898zm-.102.1h5.903v.2h-5.903zm-.097.2H112v.102h-5.898zm-.102.102h5.898v.199H106zm-.102.199h5.903v.097h-5.903zm-.097.097h5.898v.204h-5.898zm-.102.204h5.903v.097h-5.903zm-.097.097h5.898v.2h-5.898zm-.102.2h5.898V80H105.5zm-.102.101h5.903v.2h-5.903zm-.097.2h5.898v.1h-5.898zm-.102.1h5.903v.2h-5.903zm-.097.2H111v.102h-5.898zm-.102.102h5.898v.199H105zm-.102.199h5.903v.097h-5.903zm-.097.097h5.898v.204h-5.898zm-.102.204h5.903v.097h-5.903zm-.097.097h5.898v.2h-5.898zm-.102.2h5.898v.101H104.5zm-.102.101h5.903v.2h-5.903zm-.097.2h5.898v.1h-5.898zm-.102.1h5.903v.098h-5.903zm-.097.098h6V82h-6zm0 .102H110v.102h-5.898zm-.102.102h5.898v.097H104zm-.102.097h6v.102h-6zm0 .102h5.903v.097h-5.903zm-.097.097h5.898v.102h-5.898zm-.102.102h6v.102h-6zm-.097.102h6v.097h-6zm0 .097h5.898v.102h-5.898zm-.102.102h6v.097h-6zm-.102.097h6V83h-6zm-.097.102h6v.2h-6zm-.102.2h6v.1h-6zm-.097.1h6v.098h-6zm-.102.098h6.102v.102H103zm0 .102h6v.102h-6zm-.102.102h6v.097h-6zm-.097.097h6.097v.102h-6.097zm-.102.102h6.102v.097h-6.102zm0 .097h6V84h-6zm-.097.102h6.097v.102h-6.097zm-.102.102h6.102v.097H102.5zm-.102.097h6.204v.102h-6.204zm-.097.102h6.199v.097h-6.2zm-.102.097h6.2v.204h-6.2zm-.097.204h6.199v.097h-6.2zm-.102.097h6.2v.102H102zm-.102.102h6.301v.097h-6.3zm-.097.097h6.3V85h-6.3zm-.102.102H108v.102h-6.3zm-.097.102H108v.097h-6.398zm-.102.097h6.398v.2H101.5zm-.102.2h6.403v.101h-6.403zm-.097.101h6.5v.102h-6.5zm-.102.102h6.5v.097h-6.5zm-.097.097h6.5v.102h-6.5zm-.102.102h6.602v.097H101zm-.102.097h6.602V86h-6.602zm-.097.102h6.699v.102h-6.7zm-.102.102h6.7v.097h-6.7zm-.097.097h6.699v.102h-6.7zm-.102.102h6.8v.097h-6.8zm-.102.097h6.801v.102h-6.8zm-.097.102h6.898v.102h-6.898zm-.2.102h7v.097h-7zm-.101.097h7.102v.102H100zm-.102.102H107v.097h-7.102zm-.097.097h7.097V87h-7.097zm-.102.102h7.2v.102h-7.2zm-.199.102h7.3v.097h-7.3zm-.102.097h7.403v.102h-7.403zm-.097.102h7.398v.097h-7.398zm-.102.097h7.5v.102h-7.5zM99 87.5h7.602v.102H99zm-.102.102h7.704v.097h-7.704zm-.199.097h7.801v.102h-7.8zm-.097.102h7.898v.097h-7.898zm-.204.097h8V88h-8zm-.097.102h8.097v.102h-8.097zm-.2.102h8.2v.097h-8.2zm-.203.097h8.403v.102h-8.403zm-.199.102h8.5v.097h-8.5zm-.199.097h8.7v.102h-8.7zm-.2.102h8.802v.102H97.3zm-.198.102h9v.097h-9zm-.301.097h9.3v.102h-9.3zm-.2.102H106v.097h-9.398zm-.3.097H106V89h-9.7zm-.403.102h10v.102h-10zm-.296.102h10.296v.097H95.602zm-.602.097h10.8v.102H95zm-.602.102h11.403v.097H94.398zm.102.097h11.2v.102H94.5zm.2.102h11v.102h-11zm.1.102h10.9v.097H94.8zm.2.097h10.602v.102H95zm.102.102h10.5v.097h-10.5zm.199.097h10.3V90h-10.3zm.097.102H105.5v.102H95.398zm.204.102h9.898v.097h-9.898zm.097.097h9.801v.102h-9.8zm.2.102h9.5v.097h-9.5zm.101.097h9.398v.102H96zm.2.102h9.198v.102H96.2zm.1.102h9v.097h-9zm.2.097h8.8v.102h-8.8zm.102.102h8.699v.097h-8.7zm.199.097h8.398V91h-8.398zm.097.102h8.301v.102h-8.3zm.204.102h8.097v.097h-8.097zm.097.097h7.903v.102h-7.903zm.2.102h7.703v.097h-7.704zm.101.097h7.602v.102H97.5zm.2.102h7.402v.102h-7.403zm.1.102h7.302v.097H97.8zm.2.097h7v.102h-7zm.102.102H105v.097h-6.898zm.199.097H105V92h-6.7zm.097.102H105v.102h-6.602zm.204.102H105v.097h-6.398zm.097.097H105v.102h-6.3zm.2.102H105v.097h-6.102zm.101.097h5.898v.102H99zm.2.102h5.698v.102H99.2zm.1.102h5.598v.097h-5.597zm.2.097h5.398v.102H99.5zm.102.102h5.296v.097h-5.296zm.199.097h5.097V93h-5.097zm.097.102h4.903v.102h-4.903zm.204.102h4.699v.097h-4.7zm.097.097h4.602v.102h-4.602zm.2.102h4.402v.097h-4.403zm.101.097h4.3v.102h-4.3zm.2.102h4.1v.102h-4.1zm.1.102h4v.097h-4zm.2.097h3.8v.102H101zm.102.102h3.699v.097h-3.7zm.199.097h3.5V94h-3.5zm.097.102h3.403v.102h-3.403zm.204.102h3.199v.097h-3.2zm.097.097h3.102v.102h-3.102zm.2.102h2.902v.097h-2.903zm.101.097h2.898v.102H102zm.2.102h2.698v.102H102.2zm.1.102h2.598v.097h-2.597zm.2.097h2.398v.102H102.5zm.102.102h2.296v.097h-2.296zm.199.097h2.097V95h-2.097zm.097.102h2v.102h-2zm.204.102h1.796v.097h-1.796zm.097.097h1.7v.102h-1.7zm.2.102h1.5v.097h-1.5zm.101.097h1.398v.102H103.5zm.2.102h1.3v.102h-1.3zm.1.102h1.2v.097h-1.2zm.2.097h1v.102h-1zm.102.102h1v.097h-1zm.199.097h.8V96h-.8zm.097.102h.704v.102h-.704zm.204.102h.597v.097h-.597zm.097.097h.5v.102h-.5zm.2.102h.3v.097h-.3zm.101.097h.2v.102h-.2zm.2.102h.1v.102h-.1zm0 0"/></clipPath><clipPath id="O"><path d="M91.152 89.11a27.197 27.197 0 0115.5 10.331c-4.03-5.484-1.078-10.875 2.7-16.539l-3.965-2.644c-3.778 5.664-7.617 10.46-14.235 8.851zm22.856-21.782l-8.621 12.93 3.965 2.644 8.62-12.933zm2.781-18.703a30.542 30.542 0 0017.375 11.582c-7.414-1.805-11.96 3.41-16.191 9.762l-3.965-2.64c4.23-6.352 7.3-12.556 2.781-18.704zm0 0"/></clipPath><clipPath id="P"><path d="M125.219 109.844l24.652-36.98-50.805-33.872-24.656 36.98zm0 0"/></clipPath><clipPath id="S"><path d="M34 47h34v24H34zm0 0"/></clipPath><clipPath id="T"><path d="M50.59 47.117a28.024 28.024 0 01-15.945 10.63c6.804-1.657 10.812 3.237 14.699 9.066l3.965-2.645c-3.887-5.824-6.864-11.406-2.72-17.05zm13.414 33.094L53.309 64.168l-3.965 2.644 10.691 16.043zm14.23 8.852a27.235 27.235 0 00-15.5 10.332c4.032-5.485 1.078-10.875-2.699-16.54l3.969-2.644c3.773 5.664 7.613 10.46 14.23 8.852zm0 0"/></clipPath><clipPath id="U"><path d="M45 76h34v24H45zm0 0"/></clipPath><clipPath id="V"><path d="M50.59 47.117a28.024 28.024 0 01-15.945 10.63c6.804-1.657 10.812 3.237 14.699 9.066l3.965-2.645c-3.887-5.824-6.864-11.406-2.72-17.05zm13.414 33.094L53.309 64.168l-3.965 2.644 10.691 16.043zm14.23 8.852a27.235 27.235 0 00-15.5 10.332c4.032-5.485 1.078-10.875-2.699-16.54l3.969-2.644c3.773 5.664 7.613 10.46 14.23 8.852zm0 0"/></clipPath><clipPath id="W"><path d="M49.102 50h.097v.102h-.097zm-.102.102h.102v.097H49zm-.2.097h.302v.102H48.8zm-.1.102h.402v.097h-.403zm-.2.097h.602v.102H48.5zm-.102.102H49v.102h-.602zm-.199.102H49v.097h-.8zm-.097.097H49v.102h-.898zm-.204.102h1v.097h-1zm-.097.097h1.097V51h-1.097zm-.2.102h1.297v.102h-1.296zm-.101.102h1.3v.097h-1.3zm-.2.097h1.5v.102h-1.5zm-.1.102h1.6v.097h-1.6zm-.2.097h1.8v.102H47zm-.102.102h1.903v.102h-1.903zm-.199.102h2.102v.097h-2.102zm-.097.097h2.097v.102h-2.097zm-.204.102H48.7v.097h-2.3zm-.097.097h2.398V52h-2.398zm-.2.102H48.7v.102h-2.597zm-.101.102h2.7v.097H46zm-.2.097h2.9v.102h-2.9zm-.1.102h3v.097h-3zm-.2.097h3.2v.102h-3.2zm-.102.102H48.7v.102h-3.3zm-.199.102h3.5v.097h-3.5zm-.097.097h3.597v.102h-3.597zm-.204.102H48.7v.097h-3.8zm-.097.097h3.898V53h-3.898zm-.2.102H48.7v.102h-4.097zm-.101.102h4.2v.097h-4.2zm-.2.097h4.4v.102h-4.4zm-.1.102h4.5v.097h-4.5zm-.2.097h4.7v.102H44zm-.102.102H48.7v.102h-4.8zm-.199.102h5v.097h-5zm-.097.097h5.097v.102h-5.097zm-.204.102H48.7v.097h-5.3zm-.097.097h5.398V54h-5.398zm-.2.102h5.7v.102h-5.7zm-.101.102h5.8v.097H43zm-.2.097h6v.102h-6zm-.1.102h6.1v.097h-6.1zm-.2.097h6.3v.102h-6.3zm-.102.102h6.403v.102h-6.403zm-.199.102h6.602v.097h-6.602zm-.097.097h6.796v.102h-6.796zm-.204.102h7v.097h-7zm-.097.097h7.097V55h-7.097zm-.2.102h7.297v.102h-7.296zm-.101.102h7.398v.097H41.5zm-.2.097h7.598v.102h-7.597zm-.1.102H49v.097h-7.8zm-.2.097h8v.102h-8zm-.102.102H49v.102h-8.102zm-.199.102H49v.097h-8.3zm-.097.097h8.5v.102h-8.5zm-.204.102h8.704v.097h-8.704zm-.097.097h8.8V56h-8.8zm-.2.102H49.2v.102h-9.097zm-.101.102h9.2v.097H40zm-.2.097h9.4v.102h-9.4zm-.1.102h9.6v.097h-9.6zm-.2.097h9.8v.102h-9.8zm-.102.102h9.903v.102h-9.903zm-.199.102h10.2v.097h-10.2zm-.097.097h10.296v.102H39.102zm-.204.102h10.5v.097h-10.5zm-.097.097H49.5V57H38.8zm-.2.102H49.5v.102H38.602zm-.101.102h11v.097h-11zm-.2.097h11.302v.102H38.3zm-.1.102h11.402v.097H38.199zm-.2.097h11.602v.102H38zm.3.102h11.4v.102H38.3zm.598.102H49.7v.097H38.9zm.5.097H49.7v.102H39.4zm.403.102h10v.097h-10zm.3.097h9.7V58h-9.7zm.297.102h9.5v.102h-9.5zm.204.102h9.296v.097h-9.296zm.296.097H50v.102h-9.102zm.204.102H50v.097h-8.898zm.199.097h8.8v.102h-8.8zm.199.102h8.602v.102H41.5zm.2.102h8.5v.097h-8.5zm.1.097h8.4v.102h-8.4zm.2.102h8.3v.097H42zm.2.097h8.1V59h-8.1zm.1.102h8.098v.102h-8.097zm.2.102h7.898v.097H42.5zm.102.097H50.5v.102h-7.898zm.199.102H50.5v.097h-7.7zm.097.097H50.5v.102h-7.602zm.204.102h7.5v.102h-7.5zm.097.102h7.403v.097h-7.403zm.102.097h7.398v.102h-7.398zm.097.102H50.7v.097h-7.3zm.204.097H50.8V60h-7.2zm.097.102h7.2v.102h-7.2zm.102.102h7.097v.097h-7.097zm.097.097H51v.102h-7.102zm.102.102h7v.097h-7zm.102.097h7v.102h-7zm.199.102h6.8v.102h-6.8zm.097.102H51.2v.097h-6.8zm.102.097h6.8v.102h-6.8zm.102.102H51.3v.097h-6.7zm.097.097h6.7V61h-6.7zm.102.102h6.597v.102h-6.597zm.097.102H51.5v.097h-6.602zm.102.097h6.602v.102H45zm.102.102h6.5v.097h-6.5zm.097.097h6.5v.102h-6.5zm.102.102h6.398v.102h-6.398zm0 .102h6.5v.097h-6.5zm.097.097h6.403v.102h-6.403zm.102.102h6.398v.097H45.5zm.102.097H52V62h-6.398zm.097.102H52v.102h-6.3zm.102.102h6.3v.097h-6.3zm.097.097h6.204v.102h-6.204zm.102.102h6.2v.097H46zm.102.097H52.3v.204h-6.2zm.097.204h6.2v.097h-6.2zm.102.097H52.5v.102h-6.2zm.097.102H52.5v.097h-6.102zm.102.097h6.102V63H46.5zm0 .102h6.2v.102h-6.2zm.102.102h6.097v.097h-6.097zm.097.097h6.102v.102h-6.102zm.102.102h6.097v.097h-6.097zm.097.097h6v.102h-6zm0 .102H53v.102h-6.102zm.102.102h6v.097h-6zm.102.097h6v.102h-6zm.097.102h6V64h-6zm.102.199h6v.102h-6zm.097.102h6v.097h-6zm.102.097h5.898v.102H47.5zm0 .102h6v.097h-6zm.102.097h6v.102h-6zm.097.102h5.903v.102h-5.903zm.102.102h5.898v.097h-5.898zm0 .097h6v.102h-6zm.097.102h5.903v.097h-5.903zm.102.097h5.898V65H48zM48 65h6v.102h-6zm.102.102H54v.097h-5.898zm.097.097h5.903v.102h-5.903zm.102.102h5.898v.199h-5.898zm.097.199h5.903v.102h-5.903zm.102.102h5.898v.199H48.5zm.102.199H54.5v.097h-5.898zm.097.097h5.903v.204h-5.903zm.102.204h5.898v.097h-5.898zm.097.097h5.903v.2h-5.903zm.102.2h5.898v.101H49zm.102.101H55v.2h-5.898zm.097.2h5.903v.1h-5.903zm.102.1h5.898v.2h-5.898zm.097.2h5.903v.102h-5.903zm.102.102h5.898v.097H49.5zm.102.097h5.796v.102h-5.796zm0 .102H55.5v.097h-5.898zm.097.097h5.903v.102h-5.903zm.102.102h5.8v.102h-5.8zm0 .102h5.898v.097h-5.898zm.097.097h5.903v.102h-5.903zm.102.102h5.8v.097H50zm0 .097h5.898V68H50zm.102.102H56v.102h-5.898zm.097.102H56v.097h-5.8zm0 .097h5.903v.102h-5.903zm.102.102h5.898v.097h-5.898zm.097.097H56.2v.102h-5.8zm0 .102h5.903v.102h-5.903zm.102.102h5.898v.097H50.5zm.102.097h5.796v.102h-5.796zm0 .102H56.5v.097h-5.898zm.097.097h5.903V69h-5.903zm.102.102h5.8v.102h-5.8zm0 .102h5.898v.097h-5.898zm.097.097h5.903v.102h-5.903zm.102.102h5.8v.097H51zm0 .097h5.898v.102H51zm.102.102H57v.102h-5.898zm.097.102H57v.097h-5.8zm0 .097h5.903v.102h-5.903zm.102.102h5.898v.097h-5.898zm.097.097H57.2V70h-5.8zm0 .102h5.903v.102h-5.903zm.102.102h5.898v.097H51.5zm.102.097h5.796v.102h-5.796zm0 .102H57.5v.097h-5.898zm.097.097h5.903v.102h-5.903zm.102.102h5.8v.102h-5.8zm0 .102h5.898v.097h-5.898zm.097.097h5.903v.102h-5.903zm.102.102h5.8v.097H52zm0 .097h5.898V71H52zm.102.102H58v.102h-5.898zm.097.102H58v.097h-5.8zm0 .097h5.903v.102h-5.903zm.102.102h5.898v.097h-5.898zm.097.097H58.2v.102h-5.8zm0 .102h5.903v.102h-5.903zm.102.102h5.898v.097H52.5zm.102.097h5.796v.102h-5.796zm0 .102H58.5v.097h-5.898zm.097.097h5.903V72h-5.903zm.102.102h5.8v.102h-5.8zm0 .102h5.898v.097h-5.898zm.097.097h5.903v.102h-5.903zm.102.102h5.8v.097H53zm0 .097h5.898v.102H53zm.102.102H59v.102h-5.898zm.097.102H59v.097h-5.8zm0 .097h5.903v.102h-5.903zm.102.102h5.898v.097h-5.898zm.097.097H59.2V73h-5.8zm0 .102h5.903v.102h-5.903zm.102.102h5.898v.097H53.5zm.102.097h5.796v.102h-5.796zm0 .102H59.5v.097h-5.898zm.097.097h5.903v.102h-5.903zm.102.102h5.8v.102h-5.8zm0 .102h5.898v.097h-5.898zm.097.097h5.903v.102h-5.903zm.102.102h5.8v.097H54zm0 .097h5.898V74H54zm.102.102H60v.102h-5.898zm.097.102H60v.097h-5.8zm0 .097h5.903v.102h-5.903zm.102.102h5.898v.097h-5.898zm.097.097H60.2v.102h-5.8zm0 .102h5.903v.102h-5.903zm.102.102h5.898v.097H54.5zm.102.097h5.796v.102h-5.796zm0 .102H60.5v.097h-5.898zm.097.097h5.903V75h-5.903zm.102.102h5.8v.102h-5.8zm0 .102h5.898v.097h-5.898zm.097.097h5.903v.102h-5.903zm.102.102h5.8v.097H55zm0 .097h5.898v.102H55zm.102.102H61v.102h-5.898zm.097.102H61v.097h-5.8zm0 .097h5.903v.102h-5.903zm.102.102h5.898v.097h-5.898zm.097.097H61.2V76h-5.8zm0 .102h5.903v.102h-5.903zm.102.102h5.898v.097H55.5zm.102.097h5.796v.102h-5.796zm0 .102H61.5v.097h-5.898zm.097.097h5.903v.102h-5.903zm.102.102h5.8v.102h-5.8zm0 .102h5.898v.097h-5.898zm.097.097h5.903v.102h-5.903zm.102.102h5.8v.097H56zm0 .097h5.898V77H56zm.102.102H62v.102h-5.898zm.097.102H62v.097h-5.8zm0 .097h5.903v.102h-5.903zm.102.102h5.898v.097h-5.898zm.097.097H62.2v.102h-5.8zm0 .102h5.903v.102h-5.903zm.102.102h5.898v.097H56.5zm.102.097h5.796v.102h-5.796zm0 .102H62.5v.097h-5.898zm.097.097h5.903V78h-5.903zm.102.102h5.8v.102h-5.8zm0 .102h5.898v.097h-5.898zm.097.097h5.903v.102h-5.903zm.102.102h5.8v.097H57zm0 .097h5.898v.102H57zm.102.102H63v.102h-5.898zm.097.102H63v.097h-5.8zm0 .097h5.903v.102h-5.903zm.102.102h5.898v.097h-5.898zm.097.097H63.2V79h-5.8zm0 .102h5.903v.102h-5.903zm.102.102h5.898v.097H57.5zm.102.097h5.796v.102h-5.796zm0 .102H63.5v.097h-5.898zm.097.097h5.903v.102h-5.903zm.102.102h5.8v.102h-5.8zm0 .102h5.898v.097h-5.898zm.097.097h5.903v.102h-5.903zm.102.102h5.8v.097H58zm0 .097h5.898V80H58zm.102.102H64v.102h-5.898zm.097.102H64v.097h-5.8zm0 .097h5.903v.102h-5.903zm.102.102h5.898v.097h-5.898zm.097.097H64.2v.102h-5.8zm0 .102h5.903v.102h-5.903zm.102.102h5.898v.097H58.5zm.102.097h5.796v.102h-5.796zm0 .102H64.5v.097h-5.898zm.097.097h5.903V81h-5.903zm.102.102h5.898v.2h-5.898zm.097.2h5.903v.1h-5.903zm.102.1h5.898v.2H59zm.102.2H65v.102h-5.898zm.097.102h5.903v.199h-5.903zm.102.199h5.898v.097h-5.898zm.097.097h5.903v.204h-5.903zm.102.204h5.898v.097H59.5zm.102.097H65.5v.102h-5.898zm0 .102h6v.097h-6zm.097.097h5.903v.102h-5.903zm.102.102h5.898v.102h-5.898zm0 .102h6v.097h-6zm.097.097h6v.102h-6zm.102.102h5.898v.097H60zm0 .097h6V83h-6zm.102.102h6v.2h-6zm.097.2h6v.1h-6zm.102.1h6v.098h-6zm0 .098h6.097v.102h-6.097zm.097.102H66.5v.102h-6.102zm.102.102h6v.097h-6zm0 .097h6.102v.102H60.5zm.102.102h6.097v.097h-6.097zm.097.097h6.102V84h-6.102zm0 .102h6.2v.102h-6.2zm.102.102h6.097v.097h-6.097zm.097.097H67v.102h-6.102zm0 .102h6.204v.097h-6.204zm.102.097h6.2v.102H61zm.102.102H67.3v.102h-6.2zm0 .102h6.296v.097h-6.296zm.097.097h6.2v.102h-6.2zm0 .102H67.5v.097h-6.3zm.102.097h6.3V85h-6.3zm.097.102H67.7v.102h-6.3zm0 .102h6.403v.097h-6.403zm.102.097h6.398v.102H61.5zm0 .102H68v.097h-6.5zm.102.097h6.5v.102h-6.5zm.097.102h6.5v.102h-6.5zm0 .102h6.602v.097h-6.602zm.102.097h6.597v.2h-6.597zm.097.2H68.5V86h-6.602zM62 86h6.7v.102H62zm0 .102h6.8v.097H62zm.102.097h6.796v.102h-6.796zm0 .102H69v.097h-6.898zm.097.097h6.903v.102h-6.903zm0 .102h7v.102h-7zm.102.102h7v.097h-7zm.097.097h7v.102h-7zm0 .102H69.5v.097h-7.102zm.102.097h7.2V87h-7.2zm0 .102h7.3v.102h-7.3zm.102.102h7.296v.097h-7.296zm0 .097H70v.102h-7.398zm.097.102h7.5v.097h-7.5zm0 .097h7.602v.102h-7.602zm.102.102h7.597v.102h-7.597zm0 .102h7.8v.097h-7.8zm.097.097H70.7v.102h-7.8zm0 .102h8v.097h-8zm.102.097h8V88h-8zM63 88h8.2v.102H63zm.102.102h8.296v.097h-8.296zm0 .097h8.5v.102h-8.5zm.097.102h8.602v.097h-8.602zm0 .097H72v.102h-8.8zm.102.102h8.898v.102h-8.898zm0 .102h9.097v.097h-9.097zm.097.097H72.7v.102h-9.3zm0 .102h9.5v.097h-9.5zm.102.097h9.8V89h-9.8zm0 .102h10.102v.102H63.5zm0 .102h10.602v.097H63.5zm.102.097h11.097v.102H63.602zm0 .102h11.5v.097h-11.5zm.097.097h11.2v.102h-11.2zm0 .102h11.102v.102H63.699zm0 .102h10.903v.097H63.699zm.102.097H74.5v.102H63.8zm0 .102h10.5v.097H63.8zm0 .097h10.398V90H63.801zm.097.102H74v.102H63.898zm0 .102h10v.097h-10zm0 .097H73.7v.102h-9.8zm.102.102h9.602v.097H64zm0 .097h9.398v.102H64zm0 .102h9.3v.102H64zm.102.102h9v.097h-9zm0 .097H73v.102h-8.898zm0 .102H72.8v.097h-8.7zm.097.097h8.5V91h-8.5zm0 .102H72.5v.102h-8.3zm0 .102h8.2v.097h-8.2zm.102.097h7.898v.102h-7.898zm0 .102h7.8v.097h-7.8zm0 .097h7.597v.102h-7.597zm0 .102h7.5v.102h-7.5zm0 .102h7.3v.097h-7.3zm0 .097H71.5v.102h-7.2zm.097.102h6.903v.097h-6.903zm0 .097H71.2V92h-6.8zm0 .102H71v.102h-6.602zm0 .102h6.5v.097h-6.5zm0 .097H70.7v.102h-6.3zm0 .102h6.204v.097h-6.204zm.102.097h5.898v.102H64.5zm0 .102h5.7v.102h-5.7zm0 .102h5.602v.097H64.5zm0 .097h5.398v.102H64.5zm0 .102h5.2v.097h-5.2zm0 .097h5.102V93H64.5zm.102.102h4.796v.102h-4.796zm0 .102H69.3v.097h-4.7zm0 .097h4.597v.102h-4.597zm0 .102H69v.097h-4.398zm0 .097h4.296v.102h-4.296zm0 .102H68.8v.102h-4.2zm0 .102h4v.097h-4zm0 .097H68.5v.102h-3.898zm0 .102H68.3v.097h-3.7zm0 .097h3.597V94h-3.597zm0 .102H68v.102h-3.398zm-.102.102h3.398v.097H64.5zm0 .097h3.2v.102h-3.2zm0 .102h3.102v.097H64.5zm0 .097h2.898v.102H64.5zm0 .102h2.8v.102h-2.8zm0 .102h2.602v.097H64.5zm0 .097H67v.102h-2.5zm0 .102h2.3v.097h-2.3zm0 .097h2.2V95h-2.2zm0 .102h2v.102h-2zm0 .102h1.898v.097H64.5zm0 .097h1.7v.102h-1.7zm0 .102h1.602v.097H64.5zm-.102.097h1.5v.102h-1.5zm0 .102h1.403v.102h-1.403zm0 .102h1.204v.097h-1.204zm-.097.097H65.5v.102h-1.2zm0 .102h1v.097h-1zm0 .097h.898V96h-.898zm0 .102H65v.102h-.7zm-.102.102h.7v.097h-.7zm0 .097h.5v.102h-.5zm0 .102h.403v.097h-.403zm-.097.097h.296v.102h-.296zm0 .102h.199v.102h-.2zm0 0"/></clipPath><clipPath id="X"><path d="M50.59 47.117a28.024 28.024 0 01-15.945 10.63c6.804-1.657 10.812 3.237 14.699 9.066l3.965-2.645c-3.887-5.824-6.864-11.406-2.72-17.05zm13.414 33.094L53.309 64.168l-3.965 2.644 10.691 16.043zm14.23 8.852a27.235 27.235 0 00-15.5 10.332c4.032-5.485 1.078-10.875-2.699-16.54l3.969-2.644c3.773 5.664 7.613 10.46 14.23 8.852zm0 0"/></clipPath><clipPath id="Y"><path d="M20.242 69.379l26.047 39.07 46.625-31.082-26.047-39.07zm0 0"/></clipPath><linearGradient id="A" gradientUnits="userSpaceOnUse" x1="0" y1="0" x2="99.999" y2="0" gradientTransform="matrix(-.54848 0 0 .61067 110.872 -.006)"><stop offset="0" stop-color="#ff8000"/><stop offset=".004" stop-color="#fe8000"/><stop offset=".008" stop-color="#fd8001"/><stop offset=".012" stop-color="#fc8001"/><stop offset=".016" stop-color="#fb8002"/><stop offset=".02" stop-color="#fa8002"/><stop offset=".023" stop-color="#f98003"/><stop offset=".027" stop-color="#f88003"/><stop offset=".031" stop-color="#f78004"/><stop offset=".035" stop-color="#f68004"/><stop offset=".039" stop-color="#f58005"/><stop offset=".043" stop-color="#f48005"/><stop offset=".047" stop-color="#f38006"/><stop offset=".051" stop-color="#f28006"/><stop offset=".055" stop-color="#f18007"/><stop offset=".059" stop-color="#f08007"/><stop offset=".063" stop-color="#ef8008"/><stop offset=".066" stop-color="#ee8008"/><stop offset=".07" stop-color="#ed8009"/><stop offset=".074" stop-color="#ec8009"/><stop offset=".078" stop-color="#eb800a"/><stop offset=".082" stop-color="#ea800a"/><stop offset=".086" stop-color="#e9800b"/><stop offset=".09" stop-color="#e8800b"/><stop offset=".094" stop-color="#e7800c"/><stop offset=".098" stop-color="#e6800c"/><stop offset=".102" stop-color="#e5800d"/><stop offset=".105" stop-color="#e4800d"/><stop offset=".109" stop-color="#e3800e"/><stop offset=".113" stop-color="#e2800e"/><stop offset=".117" stop-color="#e1800f"/><stop offset=".121" stop-color="#e0800f"/><stop offset=".125" stop-color="#df8010"/><stop offset=".129" stop-color="#de8010"/><stop offset=".133" stop-color="#dd8011"/><stop offset=".137" stop-color="#dc8011"/><stop offset=".141" stop-color="#db8012"/><stop offset=".145" stop-color="#da8012"/><stop offset=".148" stop-color="#d98013"/><stop offset=".152" stop-color="#d88013"/><stop offset=".156" stop-color="#d78014"/><stop offset=".16" stop-color="#d68014"/><stop offset=".164" stop-color="#d58015"/><stop offset=".168" stop-color="#d48015"/><stop offset=".172" stop-color="#d38016"/><stop offset=".176" stop-color="#d28016"/><stop offset=".18" stop-color="#d18017"/><stop offset=".184" stop-color="#d08017"/><stop offset=".188" stop-color="#cf8018"/><stop offset=".191" stop-color="#ce8018"/><stop offset=".195" stop-color="#cd8019"/><stop offset=".199" stop-color="#cc8019"/><stop offset=".203" stop-color="#cb801a"/><stop offset=".207" stop-color="#ca801a"/><stop offset=".211" stop-color="#c9801b"/><stop offset=".215" stop-color="#c8801b"/><stop offset=".219" stop-color="#c7801c"/><stop offset=".223" stop-color="#c6801c"/><stop offset=".227" stop-color="#c5801d"/><stop offset=".23" stop-color="#c4801d"/><stop offset=".234" stop-color="#c3801e"/><stop offset=".238" stop-color="#c2801e"/><stop offset=".242" stop-color="#c1801f"/><stop offset=".246" stop-color="#c0801f"/><stop offset=".25" stop-color="#bf8020"/><stop offset=".254" stop-color="#be8020"/><stop offset=".258" stop-color="#bd8021"/><stop offset=".262" stop-color="#bc8021"/><stop offset=".266" stop-color="#bb8022"/><stop offset=".27" stop-color="#ba8022"/><stop offset=".273" stop-color="#b98023"/><stop offset=".277" stop-color="#b88023"/><stop offset=".281" stop-color="#b78024"/><stop offset=".285" stop-color="#b68024"/><stop offset=".289" stop-color="#b58025"/><stop offset=".293" stop-color="#b48025"/><stop offset=".297" stop-color="#b38026"/><stop offset=".301" stop-color="#b28026"/><stop offset=".305" stop-color="#b18027"/><stop offset=".309" stop-color="#b08027"/><stop offset=".313" stop-color="#af8028"/><stop offset=".316" stop-color="#ae8028"/><stop offset=".32" stop-color="#ad8029"/><stop offset=".324" stop-color="#ac8029"/><stop offset=".328" stop-color="#ab802a"/><stop offset=".332" stop-color="#aa802a"/><stop offset=".336" stop-color="#a9802b"/><stop offset=".34" stop-color="#a8802b"/><stop offset=".344" stop-color="#a7802c"/><stop offset=".348" stop-color="#a6802c"/><stop offset=".352" stop-color="#a5802d"/><stop offset=".355" stop-color="#a4802d"/><stop offset=".359" stop-color="#a3802e"/><stop offset=".363" stop-color="#a2802e"/><stop offset=".367" stop-color="#a1802f"/><stop offset=".371" stop-color="#a0802f"/><stop offset=".375" stop-color="#9f8030"/><stop offset=".379" stop-color="#9e8030"/><stop offset=".383" stop-color="#9d8031"/><stop offset=".387" stop-color="#9c8031"/><stop offset=".391" stop-color="#9b8032"/><stop offset=".395" stop-color="#9a8032"/><stop offset=".398" stop-color="#998033"/><stop offset=".402" stop-color="#988033"/><stop offset=".406" stop-color="#978034"/><stop offset=".41" stop-color="#968034"/><stop offset=".414" stop-color="#958035"/><stop offset=".418" stop-color="#948035"/><stop offset=".422" stop-color="#938036"/><stop offset=".426" stop-color="#928036"/><stop offset=".43" stop-color="#918037"/><stop offset=".434" stop-color="#908037"/><stop offset=".438" stop-color="#8f8038"/><stop offset=".441" stop-color="#8e8038"/><stop offset=".445" stop-color="#8d8039"/><stop offset=".449" stop-color="#8c8039"/><stop offset=".453" stop-color="#8b803a"/><stop offset=".457" stop-color="#8a803a"/><stop offset=".461" stop-color="#89803b"/><stop offset=".465" stop-color="#88803b"/><stop offset=".469" stop-color="#87803c"/><stop offset=".473" stop-color="#86803c"/><stop offset=".477" stop-color="#85803d"/><stop offset=".48" stop-color="#84803d"/><stop offset=".484" stop-color="#83803e"/><stop offset=".488" stop-color="#82803e"/><stop offset=".492" stop-color="#81803f"/><stop offset=".496" stop-color="#80803f"/><stop offset=".5" stop-color="#808040"/><stop offset=".504" stop-color="#7f8040"/><stop offset=".508" stop-color="#7e8041"/><stop offset=".512" stop-color="#7d8041"/><stop offset=".516" stop-color="#7c8042"/><stop offset=".52" stop-color="#7b8042"/><stop offset=".523" stop-color="#7a8043"/><stop offset=".527" stop-color="#798043"/><stop offset=".531" stop-color="#788044"/><stop offset=".535" stop-color="#778044"/><stop offset=".539" stop-color="#768045"/><stop offset=".543" stop-color="#758045"/><stop offset=".547" stop-color="#748046"/><stop offset=".551" stop-color="#738046"/><stop offset=".555" stop-color="#728047"/><stop offset=".559" stop-color="#718047"/><stop offset=".563" stop-color="#708048"/><stop offset=".566" stop-color="#6f8048"/><stop offset=".57" stop-color="#6e8049"/><stop offset=".574" stop-color="#6d8049"/><stop offset=".578" stop-color="#6c804a"/><stop offset=".582" stop-color="#6b804a"/><stop offset=".586" stop-color="#6a804b"/><stop offset=".59" stop-color="#69804b"/><stop offset=".594" stop-color="#68804c"/><stop offset=".598" stop-color="#67804c"/><stop offset=".602" stop-color="#66804d"/><stop offset=".605" stop-color="#65804d"/><stop offset=".609" stop-color="#64804e"/><stop offset=".613" stop-color="#63804e"/><stop offset=".617" stop-color="#62804f"/><stop offset=".621" stop-color="#61804f"/><stop offset=".625" stop-color="#608050"/><stop offset=".629" stop-color="#5f8050"/><stop offset=".633" stop-color="#5e8051"/><stop offset=".637" stop-color="#5d8051"/><stop offset=".641" stop-color="#5c8052"/><stop offset=".645" stop-color="#5b8052"/><stop offset=".648" stop-color="#5a8053"/><stop offset=".652" stop-color="#598053"/><stop offset=".656" stop-color="#588054"/><stop offset=".66" stop-color="#578054"/><stop offset=".664" stop-color="#568055"/><stop offset=".668" stop-color="#558055"/><stop offset=".672" stop-color="#548056"/><stop offset=".676" stop-color="#538056"/><stop offset=".68" stop-color="#528057"/><stop offset=".684" stop-color="#518057"/><stop offset=".688" stop-color="#508058"/><stop offset=".691" stop-color="#4f8058"/><stop offset=".695" stop-color="#4e8059"/><stop offset=".699" stop-color="#4d8059"/><stop offset=".703" stop-color="#4c805a"/><stop offset=".707" stop-color="#4b805a"/><stop offset=".711" stop-color="#4a805b"/><stop offset=".715" stop-color="#49805b"/><stop offset=".719" stop-color="#48805c"/><stop offset=".723" stop-color="#47805c"/><stop offset=".727" stop-color="#46805d"/><stop offset=".73" stop-color="#45805d"/><stop offset=".734" stop-color="#44805e"/><stop offset=".738" stop-color="#43805e"/><stop offset=".742" stop-color="#42805f"/><stop offset=".746" stop-color="#41805f"/><stop offset=".75" stop-color="#408060"/><stop offset=".754" stop-color="#3f8060"/><stop offset=".758" stop-color="#3e8061"/><stop offset=".762" stop-color="#3d8061"/><stop offset=".766" stop-color="#3c8062"/><stop offset=".77" stop-color="#3b8062"/><stop offset=".773" stop-color="#3a8063"/><stop offset=".777" stop-color="#398063"/><stop offset=".781" stop-color="#388064"/><stop offset=".785" stop-color="#378064"/><stop offset=".789" stop-color="#368065"/><stop offset=".793" stop-color="#358065"/><stop offset=".797" stop-color="#348066"/><stop offset=".801" stop-color="#338066"/><stop offset=".805" stop-color="#328067"/><stop offset=".809" stop-color="#318067"/><stop offset=".813" stop-color="#308068"/><stop offset=".816" stop-color="#2f8068"/><stop offset=".82" stop-color="#2e8069"/><stop offset=".824" stop-color="#2d8069"/><stop offset=".828" stop-color="#2c806a"/><stop offset=".832" stop-color="#2b806a"/><stop offset=".836" stop-color="#2a806b"/><stop offset=".84" stop-color="#29806b"/><stop offset=".844" stop-color="#28806c"/><stop offset=".848" stop-color="#27806c"/><stop offset=".852" stop-color="#26806d"/><stop offset=".855" stop-color="#25806d"/><stop offset=".859" stop-color="#24806e"/><stop offset=".863" stop-color="#23806e"/><stop offset=".867" stop-color="#22806f"/><stop offset=".871" stop-color="#21806f"/><stop offset=".875" stop-color="#208070"/><stop offset=".879" stop-color="#1f8070"/><stop offset=".883" stop-color="#1e8071"/><stop offset=".887" stop-color="#1d8071"/><stop offset=".891" stop-color="#1c8072"/><stop offset=".895" stop-color="#1b8072"/><stop offset=".898" stop-color="#1a8073"/><stop offset=".902" stop-color="#198073"/><stop offset=".906" stop-color="#188074"/><stop offset=".91" stop-color="#178074"/><stop offset=".914" stop-color="#168075"/><stop offset=".918" stop-color="#158075"/><stop offset=".922" stop-color="#148076"/><stop offset=".926" stop-color="#138076"/><stop offset=".93" stop-color="#128077"/><stop offset=".934" stop-color="#118077"/><stop offset=".938" stop-color="#108078"/><stop offset=".941" stop-color="#0f8078"/><stop offset=".945" stop-color="#0e8079"/><stop offset=".949" stop-color="#0d8079"/><stop offset=".953" stop-color="#0c807a"/><stop offset=".957" stop-color="#0b807a"/><stop offset=".961" stop-color="#0a807b"/><stop offset=".965" stop-color="#09807b"/><stop offset=".969" stop-color="#08807c"/><stop offset=".973" stop-color="#07807c"/><stop offset=".977" stop-color="#06807d"/><stop offset=".98" stop-color="#05807d"/><stop offset=".984" stop-color="#04807e"/><stop offset=".988" stop-color="#03807e"/><stop offset=".992" stop-color="#02807f"/><stop offset=".996" stop-color="#01807f"/><stop offset="1" stop-color="#00807f"/></linearGradient><linearGradient id="Q" gradientUnits="userSpaceOnUse" x1="0" y1="0" x2="100.001" y2="0" gradientTransform="matrix(.24654 -.3698 -.50809 -.33871 125.219 109.844)"><stop offset="0" stop-color="#009"/><stop offset=".004" stop-color="#010098"/><stop offset=".008" stop-color="#020198"/><stop offset=".012" stop-color="#030197"/><stop offset=".016" stop-color="#040297"/><stop offset=".02" stop-color="#050296"/><stop offset=".023" stop-color="#060395"/><stop offset=".027" stop-color="#070395"/><stop offset=".031" stop-color="#080494"/><stop offset=".035" stop-color="#090494"/><stop offset=".039" stop-color="#0a0593"/><stop offset=".043" stop-color="#0b0592"/><stop offset=".047" stop-color="#0c0692"/><stop offset=".051" stop-color="#0d0691"/><stop offset=".055" stop-color="#0e0791"/><stop offset=".059" stop-color="#0f0790"/><stop offset=".063" stop-color="#10088f"/><stop offset=".066" stop-color="#11088f"/><stop offset=".07" stop-color="#12098e"/><stop offset=".074" stop-color="#13098e"/><stop offset=".078" stop-color="#140a8d"/><stop offset=".082" stop-color="#150a8c"/><stop offset=".086" stop-color="#160b8c"/><stop offset=".09" stop-color="#170b8b"/><stop offset=".094" stop-color="#180c8b"/><stop offset=".098" stop-color="#190c8a"/><stop offset=".102" stop-color="#1a0d89"/><stop offset=".105" stop-color="#1b0d89"/><stop offset=".109" stop-color="#1c0e88"/><stop offset=".113" stop-color="#1d0e88"/><stop offset=".117" stop-color="#1e0f87"/><stop offset=".121" stop-color="#1f0f86"/><stop offset=".125" stop-color="#201086"/><stop offset=".129" stop-color="#211085"/><stop offset=".133" stop-color="#221185"/><stop offset=".137" stop-color="#231184"/><stop offset=".141" stop-color="#241283"/><stop offset=".145" stop-color="#251283"/><stop offset=".148" stop-color="#261382"/><stop offset=".152" stop-color="#271382"/><stop offset=".156" stop-color="#281481"/><stop offset=".16" stop-color="#291480"/><stop offset=".164" stop-color="#2a1580"/><stop offset=".168" stop-color="#2b157f"/><stop offset=".172" stop-color="#2c167f"/><stop offset=".176" stop-color="#2d167e"/><stop offset=".18" stop-color="#2e177e"/><stop offset=".184" stop-color="#2f177d"/><stop offset=".188" stop-color="#30187c"/><stop offset=".191" stop-color="#31187c"/><stop offset=".195" stop-color="#32197b"/><stop offset=".199" stop-color="#33197b"/><stop offset=".203" stop-color="#341a7a"/><stop offset=".207" stop-color="#351a79"/><stop offset=".211" stop-color="#361b79"/><stop offset=".215" stop-color="#371b78"/><stop offset=".219" stop-color="#381c78"/><stop offset=".223" stop-color="#391c77"/><stop offset=".227" stop-color="#3a1d76"/><stop offset=".23" stop-color="#3b1d76"/><stop offset=".234" stop-color="#3c1e75"/><stop offset=".238" stop-color="#3d1e75"/><stop offset=".242" stop-color="#3e1f74"/><stop offset=".246" stop-color="#3f1f73"/><stop offset=".25" stop-color="#402073"/><stop offset=".254" stop-color="#412072"/><stop offset=".258" stop-color="#422172"/><stop offset=".262" stop-color="#432171"/><stop offset=".266" stop-color="#442270"/><stop offset=".27" stop-color="#452270"/><stop offset=".273" stop-color="#46236f"/><stop offset=".277" stop-color="#47236f"/><stop offset=".281" stop-color="#48246e"/><stop offset=".285" stop-color="#49246d"/><stop offset=".289" stop-color="#4a256d"/><stop offset=".293" stop-color="#4b256c"/><stop offset=".297" stop-color="#4c266c"/><stop offset=".301" stop-color="#4d266b"/><stop offset=".305" stop-color="#4e276a"/><stop offset=".309" stop-color="#4f276a"/><stop offset=".313" stop-color="#502869"/><stop offset=".316" stop-color="#512869"/><stop offset=".32" stop-color="#522968"/><stop offset=".324" stop-color="#532967"/><stop offset=".328" stop-color="#542a67"/><stop offset=".332" stop-color="#552a66"/><stop offset=".336" stop-color="#562b66"/><stop offset=".34" stop-color="#572b65"/><stop offset=".344" stop-color="#582c64"/><stop offset=".348" stop-color="#592c64"/><stop offset=".352" stop-color="#5a2d63"/><stop offset=".355" stop-color="#5b2d63"/><stop offset=".359" stop-color="#5c2e62"/><stop offset=".363" stop-color="#5d2e61"/><stop offset=".367" stop-color="#5e2f61"/><stop offset=".371" stop-color="#5f2f60"/><stop offset=".375" stop-color="#603060"/><stop offset=".379" stop-color="#61305f"/><stop offset=".383" stop-color="#62315e"/><stop offset=".387" stop-color="#63315e"/><stop offset=".391" stop-color="#64325d"/><stop offset=".395" stop-color="#65325d"/><stop offset=".398" stop-color="#66335c"/><stop offset=".402" stop-color="#67335b"/><stop offset=".406" stop-color="#68345b"/><stop offset=".41" stop-color="#69345a"/><stop offset=".414" stop-color="#6a355a"/><stop offset=".418" stop-color="#6b3559"/><stop offset=".422" stop-color="#6c3658"/><stop offset=".426" stop-color="#6d3658"/><stop offset=".43" stop-color="#6e3757"/><stop offset=".434" stop-color="#6f3757"/><stop offset=".438" stop-color="#703856"/><stop offset=".441" stop-color="#713855"/><stop offset=".445" stop-color="#723955"/><stop offset=".449" stop-color="#733954"/><stop offset=".453" stop-color="#743a54"/><stop offset=".457" stop-color="#753a53"/><stop offset=".461" stop-color="#763b52"/><stop offset=".465" stop-color="#773b52"/><stop offset=".469" stop-color="#783c51"/><stop offset=".473" stop-color="#793c51"/><stop offset=".477" stop-color="#7a3d50"/><stop offset=".48" stop-color="#7b3d4f"/><stop offset=".484" stop-color="#7c3e4f"/><stop offset=".488" stop-color="#7d3e4e"/><stop offset=".492" stop-color="#7e3f4e"/><stop offset=".496" stop-color="#7f3f4d"/><stop offset=".5" stop-color="#80404c"/><stop offset=".504" stop-color="#80404c"/><stop offset=".508" stop-color="#81414b"/><stop offset=".512" stop-color="#82414b"/><stop offset=".516" stop-color="#83424a"/><stop offset=".52" stop-color="#84424a"/><stop offset=".523" stop-color="#854349"/><stop offset=".527" stop-color="#864348"/><stop offset=".531" stop-color="#874448"/><stop offset=".535" stop-color="#884447"/><stop offset=".539" stop-color="#894547"/><stop offset=".543" stop-color="#8a4546"/><stop offset=".547" stop-color="#8b4645"/><stop offset=".551" stop-color="#8c4645"/><stop offset=".555" stop-color="#8d4744"/><stop offset=".559" stop-color="#8e4744"/><stop offset=".563" stop-color="#8f4843"/><stop offset=".566" stop-color="#904842"/><stop offset=".57" stop-color="#914942"/><stop offset=".574" stop-color="#924941"/><stop offset=".578" stop-color="#934a41"/><stop offset=".582" stop-color="#944a40"/><stop offset=".586" stop-color="#954b3f"/><stop offset=".59" stop-color="#964b3f"/><stop offset=".594" stop-color="#974c3e"/><stop offset=".598" stop-color="#984c3e"/><stop offset=".602" stop-color="#994d3d"/><stop offset=".605" stop-color="#9a4d3c"/><stop offset=".609" stop-color="#9b4e3c"/><stop offset=".613" stop-color="#9c4e3b"/><stop offset=".617" stop-color="#9d4f3b"/><stop offset=".621" stop-color="#9e4f3a"/><stop offset=".625" stop-color="#9f5039"/><stop offset=".629" stop-color="#a05039"/><stop offset=".633" stop-color="#a15138"/><stop offset=".637" stop-color="#a25138"/><stop offset=".641" stop-color="#a35237"/><stop offset=".645" stop-color="#a45236"/><stop offset=".648" stop-color="#a55336"/><stop offset=".652" stop-color="#a65335"/><stop offset=".656" stop-color="#a75435"/><stop offset=".66" stop-color="#a85434"/><stop offset=".664" stop-color="#a95533"/><stop offset=".668" stop-color="#a53"/><stop offset=".672" stop-color="#ab5632"/><stop offset=".676" stop-color="#ac5632"/><stop offset=".68" stop-color="#ad5731"/><stop offset=".684" stop-color="#ae5730"/><stop offset=".688" stop-color="#af5830"/><stop offset=".691" stop-color="#b0582f"/><stop offset=".695" stop-color="#b1592f"/><stop offset=".699" stop-color="#b2592e"/><stop offset=".703" stop-color="#b35a2d"/><stop offset=".707" stop-color="#b45a2d"/><stop offset=".711" stop-color="#b55b2c"/><stop offset=".715" stop-color="#b65b2c"/><stop offset=".719" stop-color="#b75c2b"/><stop offset=".723" stop-color="#b85c2a"/><stop offset=".727" stop-color="#b95d2a"/><stop offset=".73" stop-color="#ba5d29"/><stop offset=".734" stop-color="#bb5e29"/><stop offset=".738" stop-color="#bc5e28"/><stop offset=".742" stop-color="#bd5f27"/><stop offset=".746" stop-color="#be5f27"/><stop offset=".75" stop-color="#bf6026"/><stop offset=".754" stop-color="#c06026"/><stop offset=".758" stop-color="#c16125"/><stop offset=".762" stop-color="#c26124"/><stop offset=".766" stop-color="#c36224"/><stop offset=".77" stop-color="#c46223"/><stop offset=".773" stop-color="#c56323"/><stop offset=".777" stop-color="#c66322"/><stop offset=".781" stop-color="#c76421"/><stop offset=".785" stop-color="#c86421"/><stop offset=".789" stop-color="#c96520"/><stop offset=".793" stop-color="#ca6520"/><stop offset=".797" stop-color="#cb661f"/><stop offset=".801" stop-color="#cc661e"/><stop offset=".805" stop-color="#cd671e"/><stop offset=".809" stop-color="#ce671d"/><stop offset=".813" stop-color="#cf681d"/><stop offset=".816" stop-color="#d0681c"/><stop offset=".82" stop-color="#d1691b"/><stop offset=".824" stop-color="#d2691b"/><stop offset=".828" stop-color="#d36a1a"/><stop offset=".832" stop-color="#d46a1a"/><stop offset=".836" stop-color="#d56b19"/><stop offset=".84" stop-color="#d66b19"/><stop offset=".844" stop-color="#d76c18"/><stop offset=".848" stop-color="#d86c17"/><stop offset=".852" stop-color="#d96d17"/><stop offset=".855" stop-color="#da6d16"/><stop offset=".859" stop-color="#db6e16"/><stop offset=".863" stop-color="#dc6e15"/><stop offset=".867" stop-color="#dd6f14"/><stop offset=".871" stop-color="#de6f14"/><stop offset=".875" stop-color="#df7013"/><stop offset=".879" stop-color="#e07013"/><stop offset=".883" stop-color="#e17112"/><stop offset=".887" stop-color="#e27111"/><stop offset=".891" stop-color="#e37211"/><stop offset=".895" stop-color="#e47210"/><stop offset=".898" stop-color="#e57310"/><stop offset=".902" stop-color="#e6730f"/><stop offset=".906" stop-color="#e7740e"/><stop offset=".91" stop-color="#e8740e"/><stop offset=".914" stop-color="#e9750d"/><stop offset=".918" stop-color="#ea750d"/><stop offset=".922" stop-color="#eb760c"/><stop offset=".926" stop-color="#ec760b"/><stop offset=".93" stop-color="#ed770b"/><stop offset=".934" stop-color="#ee770a"/><stop offset=".938" stop-color="#ef780a"/><stop offset=".941" stop-color="#f07809"/><stop offset=".945" stop-color="#f17908"/><stop offset=".949" stop-color="#f27908"/><stop offset=".953" stop-color="#f37a07"/><stop offset=".957" stop-color="#f47a07"/><stop offset=".961" stop-color="#f57b06"/><stop offset=".965" stop-color="#f67b05"/><stop offset=".969" stop-color="#f77c05"/><stop offset=".973" stop-color="#f87c04"/><stop offset=".977" stop-color="#f97d04"/><stop offset=".98" stop-color="#fa7d03"/><stop offset=".984" stop-color="#fb7e02"/><stop offset=".988" stop-color="#fc7e02"/><stop offset=".992" stop-color="#fd7f01"/><stop offset=".996" stop-color="#fe7f01"/><stop offset="1" stop-color="#ff8000"/></linearGradient><linearGradient id="Z" gradientUnits="userSpaceOnUse" x1="0" y1="0" x2="100.001" y2="0" gradientTransform="matrix(.26047 .39072 .46623 -.31082 20.244 69.378)"><stop offset="0" stop-color="teal"/><stop offset=".008" stop-color="#007f80"/><stop offset=".016" stop-color="#007e80"/><stop offset=".023" stop-color="#007d80"/><stop offset=".031" stop-color="#007c80"/><stop offset=".039" stop-color="#007b80"/><stop offset=".047" stop-color="#007a81"/><stop offset=".055" stop-color="#007981"/><stop offset=".063" stop-color="#007881"/><stop offset=".07" stop-color="#007781"/><stop offset=".078" stop-color="#007681"/><stop offset=".086" stop-color="#007582"/><stop offset=".094" stop-color="#007482"/><stop offset=".102" stop-color="#007382"/><stop offset=".109" stop-color="#007282"/><stop offset=".117" stop-color="#007182"/><stop offset=".125" stop-color="#007083"/><stop offset=".133" stop-color="#006f83"/><stop offset=".141" stop-color="#006e83"/><stop offset=".148" stop-color="#006d83"/><stop offset=".156" stop-color="#006c83"/><stop offset=".164" stop-color="#006b84"/><stop offset=".172" stop-color="#006a84"/><stop offset=".18" stop-color="#006984"/><stop offset=".188" stop-color="#006884"/><stop offset=".195" stop-color="#006784"/><stop offset=".203" stop-color="#006685"/><stop offset=".211" stop-color="#006585"/><stop offset=".219" stop-color="#006485"/><stop offset=".227" stop-color="#006385"/><stop offset=".234" stop-color="#006285"/><stop offset=".242" stop-color="#006186"/><stop offset=".25" stop-color="#006086"/><stop offset=".258" stop-color="#005f86"/><stop offset=".266" stop-color="#005e86"/><stop offset=".273" stop-color="#005d86"/><stop offset=".281" stop-color="#005c87"/><stop offset=".289" stop-color="#005b87"/><stop offset=".297" stop-color="#005a87"/><stop offset=".305" stop-color="#005987"/><stop offset=".313" stop-color="#005887"/><stop offset=".32" stop-color="#005788"/><stop offset=".328" stop-color="#005688"/><stop offset=".336" stop-color="#058"/><stop offset=".344" stop-color="#005488"/><stop offset=".352" stop-color="#005388"/><stop offset=".359" stop-color="#005289"/><stop offset=".367" stop-color="#005189"/><stop offset=".375" stop-color="#005089"/><stop offset=".383" stop-color="#004f89"/><stop offset=".391" stop-color="#004e89"/><stop offset=".398" stop-color="#004d8a"/><stop offset=".406" stop-color="#004c8a"/><stop offset=".414" stop-color="#004b8a"/><stop offset=".422" stop-color="#004a8a"/><stop offset=".43" stop-color="#00498a"/><stop offset=".438" stop-color="#00488b"/><stop offset=".445" stop-color="#00478b"/><stop offset=".453" stop-color="#00468b"/><stop offset=".461" stop-color="#00458b"/><stop offset=".469" stop-color="#00448b"/><stop offset=".477" stop-color="#00438c"/><stop offset=".484" stop-color="#00428c"/><stop offset=".492" stop-color="#00418c"/><stop offset=".5" stop-color="#00408c"/><stop offset=".508" stop-color="#003f8c"/><stop offset=".516" stop-color="#003e8d"/><stop offset=".523" stop-color="#003d8d"/><stop offset=".531" stop-color="#003c8d"/><stop offset=".539" stop-color="#003b8d"/><stop offset=".547" stop-color="#003a8d"/><stop offset=".555" stop-color="#00398e"/><stop offset=".563" stop-color="#00388e"/><stop offset=".57" stop-color="#00378e"/><stop offset=".578" stop-color="#00368e"/><stop offset=".586" stop-color="#00358e"/><stop offset=".594" stop-color="#00348f"/><stop offset=".602" stop-color="#00338f"/><stop offset=".609" stop-color="#00328f"/><stop offset=".617" stop-color="#00318f"/><stop offset=".625" stop-color="#00308f"/><stop offset=".633" stop-color="#002f90"/><stop offset=".641" stop-color="#002e90"/><stop offset=".648" stop-color="#002d90"/><stop offset=".656" stop-color="#002c90"/><stop offset=".664" stop-color="#002b90"/><stop offset=".672" stop-color="#002a91"/><stop offset=".68" stop-color="#002991"/><stop offset=".688" stop-color="#002891"/><stop offset=".695" stop-color="#002791"/><stop offset=".703" stop-color="#002691"/><stop offset=".711" stop-color="#002592"/><stop offset=".719" stop-color="#002492"/><stop offset=".727" stop-color="#002392"/><stop offset=".734" stop-color="#002292"/><stop offset=".742" stop-color="#002192"/><stop offset=".75" stop-color="#002093"/><stop offset=".758" stop-color="#001f93"/><stop offset=".766" stop-color="#001e93"/><stop offset=".773" stop-color="#001d93"/><stop offset=".781" stop-color="#001c93"/><stop offset=".789" stop-color="#001b94"/><stop offset=".797" stop-color="#001a94"/><stop offset=".805" stop-color="#001994"/><stop offset=".813" stop-color="#001894"/><stop offset=".82" stop-color="#001794"/><stop offset=".828" stop-color="#001695"/><stop offset=".836" stop-color="#001595"/><stop offset=".844" stop-color="#001495"/><stop offset=".852" stop-color="#001395"/><stop offset=".859" stop-color="#001295"/><stop offset=".867" stop-color="#001196"/><stop offset=".875" stop-color="#001096"/><stop offset=".883" stop-color="#000f96"/><stop offset=".891" stop-color="#000e96"/><stop offset=".898" stop-color="#000d96"/><stop offset=".906" stop-color="#000c97"/><stop offset=".914" stop-color="#000b97"/><stop offset=".922" stop-color="#000a97"/><stop offset=".93" stop-color="#000997"/><stop offset=".938" stop-color="#000897"/><stop offset=".945" stop-color="#000798"/><stop offset=".953" stop-color="#000698"/><stop offset=".961" stop-color="#000598"/><stop offset=".969" stop-color="#000498"/><stop offset=".977" stop-color="#000398"/><stop offset=".984" stop-color="#000298"/><stop offset=".992" stop-color="#000199"/><stop offset="1" stop-color="#009"/></linearGradient></defs><g clip-path="url(#a)"><path d="M171.734 30.527c0-16.75-13.582-30.332-30.332-30.332S111.07 13.777 111.07 30.527s13.582 30.332 30.332 30.332 30.332-13.582 30.332-30.332zm0 0" fill="#ff8000"/></g><g clip-path="url(#b)"><path d="M171.734 30.527c0-16.75-13.582-30.332-30.332-30.332S111.07 13.777 111.07 30.527s13.582 30.332 30.332 30.332 30.332-13.582 30.332-30.332zm0 0" fill="none" stroke-width=".3985" stroke="#ff8000" stroke-miterlimit="10"/></g><use xlink:href="#c" x="115.34" y="33.017"/><use xlink:href="#d" x="122.121" y="33.017"/><use xlink:href="#e" x="127.377" y="33.017"/><use xlink:href="#f" x="131.251" y="33.017"/><use xlink:href="#g" x="136.786" y="33.017"/><use xlink:href="#h" x="141.768" y="33.017"/><use xlink:href="#i" x="144.535" y="33.017"/><use xlink:href="#j" x="149.792" y="33.017"/><use xlink:href="#k" x="158.373" y="33.017"/><path d="M55.832 30.527c0-15.363-12.453-27.816-27.816-27.816C12.652 2.71.199 15.164.199 30.527c0 15.364 12.453 27.817 27.817 27.817 15.363 0 27.816-12.453 27.816-27.817zm0 0" fill="teal" stroke-width=".3985" stroke="teal" stroke-miterlimit="10"/><use xlink:href="#l" x="18.8" y="26.985"/><use xlink:href="#m" x="24.477" y="26.985"/><use xlink:href="#n" x="28.379" y="26.985"/><use xlink:href="#n" x="32.806" y="26.985"/><use xlink:href="#c" x="6.997" y="38.94"/><use xlink:href="#d" x="13.777" y="38.94"/><use xlink:href="#n" x="19.313" y="38.94"/><use xlink:href="#m" x="23.74" y="38.94"/><use xlink:href="#o" x="27.642" y="38.94"/><use xlink:href="#j" x="32.624" y="38.94"/><use xlink:href="#p" x="41.202" y="38.94"/><g clip-path="url(#q)"><path d="M111.742 115.566c0-14.93-12.101-27.035-27.031-27.035-14.934 0-27.035 12.106-27.035 27.035 0 14.934 12.101 27.036 27.035 27.036 14.93 0 27.031-12.102 27.031-27.036zm0 0" fill="#009"/></g><g clip-path="url(#r)"><path d="M111.742 115.566c0-14.93-12.101-27.035-27.031-27.035-14.934 0-27.035 12.106-27.035 27.035 0 14.934 12.101 27.036 27.035 27.036 14.93 0 27.031-12.102 27.031-27.036zm0 0" fill="none" stroke-width=".3985" stroke="#009" stroke-miterlimit="10"/></g><use xlink:href="#c" x="62.051" y="118.001" fill="#fff"/><use xlink:href="#d" x="68.832" y="118.001" fill="#fff"/><use xlink:href="#e" x="74.088" y="118.001" fill="#fff"/><use xlink:href="#m" x="77.962" y="118.001" fill="#fff"/><g fill="#fff"><use xlink:href="#s" x="81.865" y="118.001"/><use xlink:href="#i" x="86.846" y="118.001"/></g><use xlink:href="#j" x="92.102" y="118.001" fill="#fff"/><use xlink:href="#t" x="100.684" y="118.001" fill="#fff"/><g clip-path="url(#u)"><g clip-path="url(#v)"><path d="M109.875 61.063h31.527V-.008h-31.527zm0 0" fill="#ff8000"/></g></g><g clip-path="url(#w)"><g clip-path="url(#x)"><path d="M28.016 61.063h29.011V-.008H28.016zm0 0" fill="teal"/></g></g><g clip-path="url(#y)"><g clip-path="url(#z)"><path d="M110.871 23.3v14.4H56.023V23.3zm0 0" fill="url(#A)"/></g></g><use xlink:href="#B" x="64.369" y="20.974"/><use xlink:href="#C" x="67.974" y="20.974"/><use xlink:href="#D" x="72.073" y="20.974"/><use xlink:href="#E" x="76.681" y="20.974"/><use xlink:href="#F" x="80.777" y="20.974"/><use xlink:href="#G" x="84.361" y="20.974"/><use xlink:href="#H" x="86.92" y="20.974"/><use xlink:href="#G" x="91.784" y="20.974"/><use xlink:href="#F" x="94.344" y="20.974"/><use xlink:href="#I" x="97.668" y="20.974"/><g clip-path="url(#J)"><g clip-path="url(#K)"><path d="M74.965 75.145l-15.66 23.488 50.808 33.87 15.66-23.487zm0 0" fill="#009"/></g></g><g clip-path="url(#L)"><g clip-path="url(#M)"><path d="M98.508 39.824l17.488-26.23 50.809 33.87-17.489 26.231zm0 0" fill="#ff8000"/></g></g><g clip-path="url(#N)"><g clip-path="url(#O)"><g clip-path="url(#P)"><path d="M119.39 113.262L73.724 82.816l31.785-47.675 45.668 30.445zm0 0" fill="url(#Q)"/></g></g></g><use xlink:href="#R" x="119.95" y="77.531"/><use xlink:href="#C" x="125.07" y="77.531"/><use xlink:href="#D" x="129.169" y="77.531"/><use xlink:href="#F" x="133.777" y="77.531"/><g clip-path="url(#S)"><g clip-path="url(#T)"><path d="M67.418 39.125l-16.09-24.14L4.703 46.07l16.094 24.137zm0 0" fill="teal"/></g></g><g clip-path="url(#U)"><g clip-path="url(#V)"><path d="M92.36 76.535l15.66 23.488-46.625 31.082-15.66-23.488zm0 0" fill="#009"/></g></g><g clip-path="url(#W)"><g clip-path="url(#X)"><g clip-path="url(#Y)"><path d="M16.492 64.34l47.192-31.465 32.921 49.387-47.19 31.46zm0 0" fill="url(#Z)"/></g></g></g><use xlink:href="#aa" x="20.709" y="83.118"/><use xlink:href="#G" x="25.829" y="83.118"/><use xlink:href="#ab" x="28.389" y="83.118"/><use xlink:href="#ac" x="32.024" y="83.118"/><g><use xlink:href="#B" x="36.632" y="83.118"/><use xlink:href="#aa" x="40.236" y="83.118"/></g><g><use xlink:href="#C" x="45.356" y="83.118"/></g><g><use xlink:href="#B" x="49.455" y="83.118"/></g></svg>