<svg xmlns="http://www.w3.org/2000/svg" xmlns:xlink="http://www.w3.org/1999/xlink" width="738.336" height="154.399" viewBox="0 0 553.752 115.799"><defs><symbol overflow="visible" id="a"><path d="M1.266-.766l1.062-1.03c1.547-1.376 2.14-1.907 2.14-2.907 0-1.14-.89-1.938-2.109-1.938C1.234-6.64.5-5.719.5-4.828c0 .547.5.547.531.547.172 0 .516-.11.516-.532a.513.513 0 0 0-.531-.515c-.079 0-.094 0-.125.016.218-.657.765-1.016 1.343-1.016.907 0 1.329.812 1.329 1.625 0 .797-.485 1.578-1.047 2.203L.609-.375C.5-.265.5-.235.5 0h3.703l.266-1.734h-.235C4.172-1.438 4.11-1 4-.844c-.063.078-.719.078-.938.078zm0 0"/></symbol><symbol overflow="visible" id="b"><path d="M2.64-3.719h1.126c-.329 1.469-.422 1.906-.422 2.578 0 .141 0 .407.078.75.11.438.219.5.36.5.202 0 .421-.171.421-.375 0-.062 0-.078-.062-.218-.297-.72-.297-1.375-.297-1.657 0-.515.078-1.062.187-1.578h1.125c.14 0 .5 0 .5-.344 0-.234-.218-.234-.406-.234H1.906c-.218 0-.593 0-1.031.469-.344.39-.61.844-.61.89 0 .016 0 .11.126.11.078 0 .093-.047.156-.125.484-.766 1.062-.766 1.265-.766h.563c-.313 1.203-.844 2.406-1.266 3.313-.078.156-.078.172-.078.25 0 .187.157.265.282.265.296 0 .375-.28.5-.64.14-.469.14-.485.265-.985zm0 0"/></symbol><clipPath id="c"><path d="M355 22.055h25V36.23h-25zm0 0"/></clipPath><clipPath id="d"><path d="M326 90h21v25.8h-21zm0 0"/></clipPath><clipPath id="e"><path d="M288 53h126v62.8H288zm0 0"/></clipPath><clipPath id="f"><path d="M355 90h20v25.8h-20zm0 0"/></clipPath><clipPath id="g"><path d="M311 73h80v23h-80zm0 0"/></clipPath><clipPath id="h"><path d="M336.707 95.758c-13.957-2.461-21.969-8.035-25.512-14.176V24.891h79.371v56.691c-3.543 6.14-11.554 11.715-25.511 14.176"/></clipPath><clipPath id="i"><path d="M311 67h80v29h-80zm0 0"/></clipPath><clipPath id="j"><path d="M336.707 95.758c-13.957-2.461-21.969-8.035-25.512-14.176V24.891h79.371v56.691c-3.543 6.14-11.554 11.715-25.511 14.176"/></clipPath><clipPath id="k"><path d="M346 71h5v4h-5zm0 0"/></clipPath><clipPath id="l"><path d="M336.707 95.758c-13.957-2.461-21.969-8.035-25.512-14.176V24.891h79.371v56.691c-3.543 6.14-11.554 11.715-25.511 14.176"/></clipPath><clipPath id="m"><path d="M360 95h10v17h-10zm0 0"/></clipPath><clipPath id="n"><path d="M360.8 105.68c0 5.476 1.903 9.922 4.255 9.922 2.347 0 4.25-4.446 4.25-9.922 0-5.48-1.903-9.922-4.25-9.922-2.352 0-4.254 4.441-4.254 9.922"/></clipPath><clipPath id="o"><path d="M332 95h9v17h-9zm0 0"/></clipPath><clipPath id="p"><path d="M340.957 105.68c0 5.476-1.902 9.922-4.25 9.922s-4.254-4.446-4.254-9.922c0-5.48 1.906-9.922 4.254-9.922s4.25 4.441 4.25 9.922"/></clipPath><clipPath id="q"><path d="M491 90h15v25.8h-15zm0 0"/></clipPath><clipPath id="r"><path d="M434 53h119.754v62.8H434zm0 0"/></clipPath><clipPath id="s"><path d="M460 73h74v23h-74zm0 0"/></clipPath><clipPath id="t"><path d="M496.867 95.758c-14.176 0-32.297-4.492-36.851-9.922V29.14h73.699v56.695c-4.555 5.43-22.676 9.922-36.848 9.922"/></clipPath><clipPath id="u"><path d="M460 70h74v26h-74zm0 0"/></clipPath><clipPath id="v"><path d="M496.867 95.758c-14.176 0-32.297-4.492-36.851-9.922V29.14h73.699v56.695c-4.555 5.43-22.676 9.922-36.848 9.922"/></clipPath><clipPath id="w"><path d="M492 74h5v4h-5zm0 0"/></clipPath><clipPath id="x"><path d="M496.867 95.758c-14.176 0-32.297-4.492-36.851-9.922V29.14h73.699v56.695c-4.555 5.43-22.676 9.922-36.848 9.922"/></clipPath></defs><path d="M.797 57.488h112.18" fill="none" stroke-width="1.59404" stroke="rgb(0%,0%,0%)" stroke-miterlimit="10"/><path d="M110.707 54.46c.188 1.138 2.27 2.84 2.84 3.028-.57.192-2.652 1.895-2.84 3.032" fill="none" stroke-width="1.27522" stroke-linecap="round" stroke-linejoin="round" stroke="rgb(0%,0%,0%)" stroke-miterlimit="10"/><path d="M57.488 114.184V2" fill="none" stroke-width="1.59404" stroke="rgb(0%,0%,0%)" stroke-miterlimit="10"/><path d="M54.46 4.273c1.138-.191 2.84-2.273 3.028-2.84.192.567 1.895 2.649 3.032 2.84" fill="none" stroke-width="1.27522" stroke-linecap="round" stroke-linejoin="round" stroke="rgb(0%,0%,0%)" stroke-miterlimit="10"/><path d="M.797 114.184h113.387M.797 85.836h113.387M.797 57.488h113.387M.797 29.141h113.387M.797.805h113.387M.797 114.184V.797m28.348 113.387V.797m28.343 113.387V.797m28.348 113.387V.797m28.336 113.387V.797" fill="none" stroke-width="0.3985" stroke="rgb(0%,0%,0%)" stroke-miterlimit="10"/><path d="M57.488 57.488h28.348V29.141H57.488zm0 0" fill="none" stroke-width="1.59404" stroke="rgb(0%,0%,0%)" stroke-miterlimit="10"/><use xlink:href="#a" x="66.154" y="68.227" fill="rgb(0%,0%,0%)"/><use xlink:href="#b" x="71.136" y="68.227" fill="rgb(0%,0%,0%)"/><use xlink:href="#a" x="90.153" y="46.526" fill="rgb(0%,0%,0%)"/><use xlink:href="#b" x="95.134" y="46.526" fill="rgb(0%,0%,0%)"/><path d="M170.879 57.488h56.691V.797H170.88zm0 0" fill="none" stroke-width="0.3985" stroke="rgb(0%,0%,0%)" stroke-miterlimit="10"/><path d="M203.762 57.488c-1.063-.199-2.79-.797-3.985-1.492v2.988c1.196-.699 2.922-1.297 3.985-1.496m23.808-28.347c-.199 1.062-.797 2.793-1.492 3.988h2.988c-.699-1.195-1.296-2.926-1.496-3.988M196.957.797c-1.062.2-2.789.797-3.984 1.492V-.699c1.195.699 2.922 1.297 3.984 1.496M170.879 29.14c.2 1.062.797 2.793 1.492 3.988h-2.988c.699-1.195 1.297-2.926 1.496-3.988" fill="rgb(0%,0%,0%)"/><path d="M326.785 22.055h56.692" fill="none" stroke-width="0.3985" stroke="rgb(0%,0%,0%)" stroke-miterlimit="10"/><path d="M355.133 22.055c-1.063-.2-2.79-.797-3.985-1.492v2.988c1.196-.7 2.922-1.297 3.985-1.496" fill="rgb(0%,0%,0%)"/><path d="M326.785 36.23h56.692" fill="none" stroke-width="0.3985" stroke="rgb(0%,0%,0%)" stroke-miterlimit="10"/><path d="M355.133 36.23c-1.063-.199-2.79-.796-3.985-1.496v2.989c1.196-.696 2.922-1.293 3.985-1.493" fill="rgb(0%,0%,0%)"/><path d="M326.785 36.23c-3.383 5.856-3.156 14.172-9.922 14.172-16.582 0-16.582-42.52 0-42.52 6.766 0 6.54 8.317 9.922 14.173" fill="none" stroke-width="0.3985" stroke="rgb(0%,0%,0%)" stroke-miterlimit="10"/><path d="M304.426 29.133c-.2 1.062-.797 2.793-1.492 3.988h2.988c-.7-1.195-1.297-2.926-1.496-3.988" fill="rgb(0%,0%,0%)"/><path d="M383.477 22.055c-3.38-5.856-3.157-14.172-9.918-14.172h-56.696m0 42.52h56.696c6.761 0 6.539-8.317 9.918-14.173" fill="none" stroke-width="0.3985" stroke="rgb(0%,0%,0%)" stroke-miterlimit="10"/><g clip-path="url(#c)"><path d="M373.559 7.883c-16.582 0-16.582 42.52 0 42.52" fill="none" stroke-width="0.3985" stroke="rgb(0%,0%,0%)" stroke-miterlimit="10"/></g><path d="M361.121 29.148c.2 1.063.797 2.79 1.496 3.989h-2.992c.7-1.196 1.297-2.926 1.496-3.989" fill="rgb(0%,0%,0%)"/><path d="M474.188 29.14h56.695" fill="none" stroke-width="0.3985" stroke="rgb(0%,0%,0%)" stroke-miterlimit="10"/><path d="M502.535 29.14c-1.062-.199-2.789-.796-3.984-1.492v2.989c1.195-.7 2.922-1.297 3.984-1.496" fill="rgb(0%,0%,0%)"/><path d="M474.188 29.14c0 11.743-4.442 21.262-9.922 21.262s-9.922-9.52-9.922-21.261c0-11.739 4.441-21.258 9.922-21.258 5.48 0 9.921 9.52 9.921 21.258" fill="none" stroke-width="0.3985" stroke="rgb(0%,0%,0%)" stroke-miterlimit="10"/><path d="M454.344 29.145c-.2 1.062-.797 2.793-1.492 3.988h2.988c-.7-1.2-1.297-2.926-1.496-3.988" fill="rgb(0%,0%,0%)"/><path d="M530.883 29.14c0 11.743-4.442 21.262-9.922 21.262h-56.695m66.617-21.261c0-11.739-4.442-21.258-9.922-21.258h-56.695m-293.387 83.62h85.039" fill="none" stroke-width="0.3985" stroke="rgb(0%,0%,0%)" stroke-miterlimit="10"/><path d="M213.398 91.504c-1.062-.2-2.789-.797-3.984-1.492V93c1.195-.7 2.922-1.297 3.984-1.496" fill="rgb(0%,0%,0%)"/><path d="M170.879 91.504c0 5.48-1.906 9.922-4.254 9.922s-4.25-4.442-4.25-9.922c0-5.477 1.902-9.922 4.25-9.922s4.254 4.445 4.254 9.922" fill="none" stroke-width="0.3985" stroke="rgb(0%,0%,0%)" stroke-miterlimit="10"/><path d="M162.855 86.91c-.425.996-1.386 2.55-2.328 3.563l2.914.656c-.418-1.32-.625-3.137-.586-4.219" fill="rgb(0%,0%,0%)"/><path d="M255.918 91.504c0 5.48-1.902 9.922-4.254 9.922h-85.039m89.293-9.922c0-5.477-1.902-9.922-4.254-9.922h-85.039" fill="none" stroke-width="0.3985" stroke="rgb(0%,0%,0%)" stroke-miterlimit="10"/><g clip-path="url(#d)"><path d="M340.957 105.68c0 5.476-1.902 9.922-4.25 9.922s-4.254-4.446-4.254-9.922c0-5.48 1.906-9.922 4.254-9.922s4.25 4.441 4.25 9.922" fill="none" stroke-width="0.3985" stroke="rgb(0%,0%,0%)" stroke-miterlimit="10"/></g><path d="M332.453 105.68c-.2 1.062-.797 2.789-1.492 3.984h2.988c-.699-1.195-1.297-2.922-1.496-3.984" fill="rgb(0%,0%,0%)"/><g clip-path="url(#e)"><path d="M336.707 115.602c-27.918-4.922-42.52-14.176-42.52-28.348 0-14.176 28.344-28.348 56.692-28.348s56.695 14.172 56.695 28.348c0 14.172-14.605 23.426-42.52 28.348" fill="none" stroke-width="0.3985" stroke="rgb(0%,0%,0%)" stroke-miterlimit="10"/></g><g clip-path="url(#f)"><path d="M360.8 105.68c0 5.476 1.903 9.922 4.255 9.922 2.347 0 4.25-4.446 4.25-9.922 0-5.48-1.903-9.922-4.25-9.922-2.352 0-4.254 4.441-4.254 9.922" fill="none" stroke-width="0.3985" stroke="rgb(0%,0%,0%)" stroke-miterlimit="10"/></g><path d="M369.305 105.68c-.2 1.062-.797 2.789-1.493 3.984h2.989c-.7-1.195-1.297-2.922-1.496-3.984" fill="rgb(0%,0%,0%)"/><path d="M336.707 95.758c-13.957-2.461-21.969-8.035-25.512-14.176m53.86 14.176c13.957-2.461 21.968-8.035 25.511-14.176" fill="none" stroke-width="0.3985" stroke="rgb(0%,0%,0%)" stroke-miterlimit="10"/><g clip-path="url(#g)"><g clip-path="url(#h)"><path d="M336.707 135.441c-27.918-4.921-42.52-8.504-42.52-22.675 0-14.172 28.344-34.016 56.692-34.016s56.695 19.844 56.695 34.016c0 14.171-14.605 17.754-42.52 22.675" fill="none" stroke-width="0.3985" stroke="rgb(0%,0%,0%)" stroke-miterlimit="10"/></g></g><g clip-path="url(#i)"><g clip-path="url(#j)"><path d="M336.707 138.277c-27.918-4.922-42.52-8.504-42.52-22.675 0-14.176 22.676-42.524 56.692-42.524 34.016 0 56.695 28.348 56.695 42.524 0 14.171-14.605 17.753-42.52 22.675" fill="none" stroke-width="0.3985" stroke="rgb(0%,0%,0%)" stroke-miterlimit="10"/></g></g><g clip-path="url(#k)"><g clip-path="url(#l)"><path d="M350.879 73.078c-1.063-.2-2.79-.797-3.984-1.492v2.988c1.195-.699 2.921-1.297 3.984-1.496" fill="rgb(0%,0%,0%)"/></g></g><g clip-path="url(#m)"><g clip-path="url(#n)"><path d="M360.8 105.68c27.919-4.922 42.52-8.504 42.52-22.68" fill="none" stroke-width="0.3985" stroke="rgb(0%,0%,0%)" stroke-miterlimit="10"/></g></g><g clip-path="url(#o)"><g clip-path="url(#p)"><path d="M340.957 105.68c-27.914-4.922-42.52-8.504-42.52-22.68" fill="none" stroke-width="0.3985" stroke="rgb(0%,0%,0%)" stroke-miterlimit="10"/></g></g><g clip-path="url(#q)"><path d="M496.867 95.758c1.563 0 2.832 4.441 2.832 9.922 0 5.476-1.27 9.922-2.832 9.922" fill="none" stroke-width="0.3985" stroke="rgb(0%,0%,0%)" stroke-miterlimit="10"/></g><path d="M499.7 105.664c.198 1.063.8 2.79 1.495 3.984h-2.988c.7-1.195 1.293-2.921 1.492-3.984" fill="rgb(0%,0%,0%)"/><g clip-path="url(#r)"><path d="M496.867 115.602c-28.347 0-56.695-9.922-56.695-28.348s28.348-28.348 56.695-28.348c28.344 0 56.692 9.922 56.692 28.348s-28.348 28.348-56.692 28.348" fill="none" stroke-width="0.3985" stroke="rgb(0%,0%,0%)" stroke-miterlimit="10"/></g><path d="M496.867 95.758c-14.176 0-32.297-4.492-36.851-9.922m36.851 9.922c14.172 0 32.293-4.492 36.848-9.922" fill="none" stroke-width="0.3985" stroke="rgb(0%,0%,0%)" stroke-miterlimit="10"/><g clip-path="url(#s)"><g clip-path="url(#t)"><path d="M496.867 135.441c-28.347 0-42.523-9.921-42.523-28.343 0-18.426 14.176-28.348 42.523-28.348 28.344 0 42.52 9.922 42.52 28.348 0 18.422-14.176 28.343-42.52 28.343" fill="none" stroke-width="0.3985" stroke="rgb(0%,0%,0%)" stroke-miterlimit="10"/></g></g><g clip-path="url(#u)"><g clip-path="url(#v)"><path d="M496.867 132.61c-28.347 0-42.523-9.923-42.523-28.348 0-18.426 14.176-28.348 42.523-28.348 28.344 0 42.52 9.922 42.52 28.348 0 18.425-14.176 28.347-42.52 28.347" fill="none" stroke-width="0.3985" stroke="rgb(0%,0%,0%)" stroke-miterlimit="10"/></g></g><g clip-path="url(#w)"><g clip-path="url(#x)"><path d="M496.867 75.914c-1.062-.2-2.793-.797-3.988-1.492v2.988c1.195-.7 2.926-1.297 3.988-1.496" fill="rgb(0%,0%,0%)"/></g></g></svg>