<svg height="148.064" viewBox="0 0 231.03 111.048" width="308.04" xmlns="http://www.w3.org/2000/svg" xmlns:xlink="http://www.w3.org/1999/xlink"><symbol id="a" overflow="visible"><path d="m4.578-3.188c0-.796-.047-1.593-.39-2.328-.455-.968-1.283-1.124-1.688-1.124-.61 0-1.328.266-1.75 1.188-.313.687-.36 1.469-.36 2.266 0 .75.032 1.64.454 2.406a1.83 1.83 0 0 0 1.64 1c.532 0 1.297-.203 1.735-1.157.312-.687.36-1.468.36-2.25zm-2.094 3.188c-.39 0-.984-.25-1.156-1.203-.11-.594-.11-1.516-.11-2.11 0-.64 0-1.296.079-1.828.187-1.187.937-1.28 1.187-1.28.329 0 .985.187 1.172 1.171.11.563.11 1.313.11 1.938 0 .75 0 1.421-.11 2.062-.156.953-.719 1.25-1.172 1.25zm0 0"/></symbol><symbol id="b" overflow="visible"><path d="m2.938-6.375c0-.25 0-.266-.235-.266-.625.641-1.5.641-1.812.641v.313c.203 0 .78 0 1.296-.266v5.172c0 .36-.03.469-.921.469h-.313v.312c.344-.031 1.203-.031 1.61-.031.39 0 1.265 0 1.609.031v-.313h-.313c-.906 0-.921-.109-.921-.468zm0 0"/></symbol><symbol id="c" overflow="visible"><path d="m6.844-3.266c.156 0 .343 0 .343-.187 0-.203-.187-.203-.328-.203h-5.968c-.141 0-.329 0-.329.203 0 .187.188.187.329.187zm.015 1.938c.141 0 .329 0 .329-.203 0-.188-.188-.188-.344-.188h-5.954c-.141 0-.329 0-.329.188 0 .203.188.203.329.203zm0 0"/></symbol><symbol id="d" overflow="visible"><path d="m2.938-1.64v.859c0 .36-.032.469-.766.469h-.203v.312c.406-.031.922-.031 1.343-.031.422 0 .938 0 1.36.031v-.313h-.219c-.734 0-.75-.109-.75-.468v-.86h.985v-.312h-.985v-4.531c0-.204 0-.266-.172-.266-.078 0-.11 0-.187.125l-3.064 4.672v.312zm.046-.313h-2.421l2.421-3.719zm0 0"/></symbol><symbol id="e" overflow="visible"><path d="m2.89-3.516c.813-.265 1.391-.953 1.391-1.75 0-.812-.875-1.375-1.828-1.375-1 0-1.765.594-1.765 1.36 0 .328.218.515.515.515s.5-.218.5-.515c0-.485-.469-.485-.61-.485.298-.5.954-.625 1.313-.625.422 0 .969.22.969 1.11 0 .125-.031.703-.281 1.14-.297.485-.64.516-.89.516a3.29 3.29 0 0 1 -.392.031c-.078.016-.14.031-.14.125 0 .11.062.11.234.11h.438c.812 0 1.187.671 1.187 1.656 0 1.36-.687 1.64-1.125 1.64-.437 0-1.187-.171-1.531-.75.344.047.656-.171.656-.546a.537.537 0 0 0 -.547-.563c-.25 0-.562.14-.562.578 0 .907.922 1.564 2.015 1.564 1.22 0 2.126-.906 2.126-1.922 0-.813-.641-1.594-1.672-1.813zm0 0"/></symbol><symbol id="f" overflow="visible"><path d="m1.266-.766 1.062-1.03c1.547-1.376 2.14-1.907 2.14-2.907 0-1.14-.89-1.938-2.109-1.938a1.843 1.843 0 0 0 -1.859 1.813c0 .547.5.547.531.547.172 0 .516-.11.516-.532a.513.513 0 0 0 -.531-.515c-.079 0-.094 0-.125.016.218-.657.765-1.016 1.343-1.016.907 0 1.329.812 1.329 1.625 0 .797-.485 1.578-1.047 2.203l-1.907 2.125c-.109.11-.109.14-.109.375h3.703l.266-1.734h-.235c-.062.296-.124.734-.234.89-.063.078-.719.078-.938.078zm0 0"/></symbol><symbol id="g" overflow="visible"><path d="m2.875-6.375h1.14v-.469c-.406.032-1.39.032-1.843.032s-1.438 0-1.844-.032v.469h1.14v5.906h-1.139v.469c.406-.031 1.39-.031 1.844-.031.453 0 1.437 0 1.844.031v-.469h-1.142zm0 0"/></symbol><symbol id="h" overflow="visible"><path d="m4.828-4.203 2.406-1.984c.22-.188.625-.188.938-.188h.156v-.469c-.39.032-.969.032-1.015.032-.375 0-1.094 0-1.454-.032v.469c.125 0 .329 0 .579.063.156.03.046.015.125.046l-3.689 3.079v-3.188h1.078v-.469c-.375.032-1.344.032-1.781.032-.422 0-1.406 0-1.781-.032v.469h1.078v5.906h-1.078v.469c.376-.031 1.36-.031 1.78-.031.438 0 1.407 0 1.782.031v-.469h-1.077v-2.094l1-.828 2.063 2.704c.046.062.046.078.078.14-.188.078-.391.078-.735.078v.469c.407-.031 1.313-.031 1.75-.031.407 0 1.094 0 1.469.031v-.469h-.297c-.531 0-.562-.047-.672-.203zm0 0"/></symbol><symbol id="i" overflow="visible"><path d="m2.734-4.25c.016-.14.016-.39-.234-.39-.172 0-.297.14-.266.265v.125l.141 1.547-1.281-.922c-.094-.047-.11-.078-.172-.078-.14 0-.281.14-.281.281 0 .156.109.203.203.25l1.422.672-1.375.672c-.157.078-.25.125-.25.266 0 .156.14.28.28.28.063 0 .079 0 .329-.187l1.125-.797-.156 1.672c0 .203.187.25.265.25.125 0 .266-.062.266-.25l-.14-1.672 1.265.922c.094.047.11.063.188.063.14 0 .265-.14.265-.282 0-.14-.094-.187-.219-.25-.593-.296-.609-.296-1.39-.671l1.375-.672c.156-.078.234-.11.234-.266 0-.14-.125-.281-.266-.281-.078 0-.093 0-.343.187l-1.11.813zm0 0"/></symbol><symbol id="j" overflow="visible"><path d="m2.469-1.484c.031-.032.047-.063.047-.079 0-.046-.032-.093-.079-.093-.03 0-.046.015-.078.047l-.734.75-.75-.75c-.031-.032-.047-.047-.078-.047-.047 0-.078.047-.078.093 0 .032.015.047.047.079l.734.734-.734.75c-.032.031-.047.047-.047.078 0 .047.031.078.078.078.031 0 .047-.015.078-.046l.734-.734.766.766c.016.015.047.015.063.015a.074.074 0 0 0 .078-.078c0-.015 0-.031-.016-.047 0-.015-.563-.562-.766-.781zm0 0"/></symbol><symbol id="k" overflow="visible"><path d="m1.188-1.89c0-.094-.016-.094-.11-.094-.203.187-.547.187-.594.187h-.062v.125h.062c.063 0 .25 0 .422-.078v1.5c0 .078 0 .125-.312.125h-.14v.125c.155-.016.421-.016.593-.016s.437 0 .61.016v-.125h-.157c-.313 0-.313-.047-.313-.125zm0 0"/></symbol><symbol id="l" overflow="visible"><path d="m1.797-.953c0-.219 0-1.031-.781-1.031-.782 0-.782.812-.782 1.03 0 .22 0 1.016.782 1.016.78 0 .78-.796.78-1.015zm-.781.922a.441.441 0 0 1 -.438-.344c-.047-.156-.047-.375-.047-.61 0-.234 0-.437.047-.609.078-.25.313-.297.438-.297.218 0 .375.11.437.329.047.14.047.39.047.578 0 .203 0 .437-.047.625-.078.28-.312.328-.437.328zm0 0"/></symbol><path d="m-5.811-3.322h11.62v13.062h-11.619zm0 0" fill="none" stroke="#000" stroke-miterlimit="10" stroke-width=".3985" transform="matrix(1 0 0 -1 9.331 13.26)"/><use x="6.84" xlink:href="#a" y="13.26"/><path d="m-5.812-3.322h11.625v13.062h-11.625zm0 0" fill="none" stroke="#000" stroke-miterlimit="10" stroke-width=".3985" transform="matrix(1 0 0 -1 20.953 13.26)"/><use x="18.463" xlink:href="#b" y="13.26"/><path d="m-5.81-3.322h11.62v13.062h-11.62zm0 0" fill="none" stroke="#000" stroke-miterlimit="10" stroke-width=".3985" transform="matrix(1 0 0 -1 32.576 13.26)"/><use x="30.085" xlink:href="#b" y="13.26"/><path d="m-5.811-3.322h11.62v13.062h-11.619zm0 0" fill="#ffd9b2" stroke="#000" stroke-miterlimit="10" stroke-width=".3985" transform="matrix(1 0 0 -1 44.198 13.26)"/><use x="41.707" xlink:href="#b" y="13.26"/><path d="m-5.812-3.322h11.625v13.062h-11.625zm0 0" fill="#ffd9b2" stroke="#000" stroke-miterlimit="10" stroke-width=".3985" transform="matrix(1 0 0 -1 55.82 13.26)"/><use x="53.33" xlink:href="#a" y="13.26"/><path d="m-5.81-3.322h11.62v13.062h-11.62zm0 0" fill="#ffd9b2" stroke="#000" stroke-miterlimit="10" stroke-width=".3985" transform="matrix(1 0 0 -1 67.443 13.26)"/><use x="64.952" xlink:href="#a" y="13.26"/><path d="m-5.811-3.322h11.621v13.062h-11.621zm0 0" fill="none" stroke="#000" stroke-miterlimit="10" stroke-width=".3985" transform="matrix(1 0 0 -1 79.065 13.26)"/><use x="76.574" xlink:href="#a" y="13.26"/><path d="m-5.811-3.319h11.62v13.059h-11.619zm0 0" fill="none" stroke="#000" stroke-miterlimit="10" stroke-width=".3985" transform="matrix(1 0 0 -1 9.331 26.322)"/><use x="6.84" xlink:href="#a" y="26.322"/><path d="m-5.812-3.319h11.625v13.059h-11.625zm0 0" fill="none" stroke="#000" stroke-miterlimit="10" stroke-width=".3985" transform="matrix(1 0 0 -1 20.953 26.322)"/><use x="18.463" xlink:href="#a" y="26.322"/><path d="m-5.81-3.319h11.62v13.059h-11.62zm0 0" fill="none" stroke="#000" stroke-miterlimit="10" stroke-width=".3985" transform="matrix(1 0 0 -1 32.576 26.322)"/><use x="30.085" xlink:href="#b" y="26.322"/><path d="m-5.811-3.319h11.62v13.059h-11.619zm0 0" fill="#ffd9b2" stroke="#000" stroke-miterlimit="10" stroke-width=".3985" transform="matrix(1 0 0 -1 44.198 26.322)"/><use x="41.707" xlink:href="#b" y="26.322"/><path d="m-5.812-3.319h11.625v13.059h-11.625zm0 0" fill="#ffd9b2" stroke="#000" stroke-miterlimit="10" stroke-width=".3985" transform="matrix(1 0 0 -1 55.82 26.322)"/><use x="53.33" xlink:href="#b" y="26.322"/><path d="m-5.81-3.319h11.62v13.059h-11.62zm0 0" fill="#ffd9b2" stroke="#000" stroke-miterlimit="10" stroke-width=".3985" transform="matrix(1 0 0 -1 67.443 26.322)"/><use x="64.952" xlink:href="#a" y="26.322"/><path d="m-5.811-3.319h11.621v13.059h-11.621zm0 0" fill="none" stroke="#000" stroke-miterlimit="10" stroke-width=".3985" transform="matrix(1 0 0 -1 79.065 26.322)"/><use x="76.574" xlink:href="#a" y="26.322"/><path d="m-5.811-3.32h11.62v13.062h-11.619zm0 0" fill="none" stroke="#000" stroke-miterlimit="10" stroke-width=".3985" transform="matrix(1 0 0 -1 9.331 39.383)"/><use x="6.84" xlink:href="#a" y="39.383"/><path d="m-5.812-3.32h11.625v13.062h-11.625zm0 0" fill="none" stroke="#000" stroke-miterlimit="10" stroke-width=".3985" transform="matrix(1 0 0 -1 20.953 39.383)"/><use x="18.463" xlink:href="#a" y="39.383"/><path d="m-5.81-3.32h11.62v13.062h-11.62zm0 0" fill="none" stroke="#000" stroke-miterlimit="10" stroke-width=".3985" transform="matrix(1 0 0 -1 32.576 39.383)"/><use x="30.085" xlink:href="#a" y="39.383"/><path d="m-5.811-3.32h11.62v13.062h-11.619zm0 0" fill="#ffd9b2" stroke="#000" stroke-miterlimit="10" stroke-width=".3985" transform="matrix(1 0 0 -1 44.198 39.383)"/><use x="41.707" xlink:href="#b" y="39.383"/><path d="m-5.812-3.32h11.625v13.062h-11.625zm0 0" fill="#ffd9b2" stroke="#000" stroke-miterlimit="10" stroke-width=".3985" transform="matrix(1 0 0 -1 55.82 39.383)"/><use x="53.33" xlink:href="#b" y="39.383"/><path d="m-5.81-3.32h11.62v13.062h-11.62zm0 0" fill="#ffd9b2" stroke="#000" stroke-miterlimit="10" stroke-width=".3985" transform="matrix(1 0 0 -1 67.443 39.383)"/><use x="64.952" xlink:href="#b" y="39.383"/><path d="m-5.811-3.32h11.621v13.062h-11.621zm0 0" fill="none" stroke="#000" stroke-miterlimit="10" stroke-width=".3985" transform="matrix(1 0 0 -1 79.065 39.383)"/><use x="76.574" xlink:href="#a" y="39.383"/><path d="m-5.811-3.32h11.62v13.061h-11.619zm0 0" fill="none" stroke="#000" stroke-miterlimit="10" stroke-width=".3985" transform="matrix(1 0 0 -1 9.331 52.445)"/><use x="6.84" xlink:href="#a" y="52.445"/><path d="m-5.812-3.32h11.625v13.061h-11.625zm0 0" fill="none" stroke="#000" stroke-miterlimit="10" stroke-width=".3985" transform="matrix(1 0 0 -1 20.953 52.445)"/><use x="18.463" xlink:href="#a" y="52.445"/><path d="m-5.81-3.32h11.62v13.061h-11.62zm0 0" fill="none" stroke="#000" stroke-miterlimit="10" stroke-width=".3985" transform="matrix(1 0 0 -1 32.576 52.445)"/><use x="30.085" xlink:href="#a" y="52.445"/><path d="m-5.811-3.32h11.62v13.061h-11.619zm0 0" fill="none" stroke="#000" stroke-miterlimit="10" stroke-width=".3985" transform="matrix(1 0 0 -1 44.198 52.445)"/><use x="41.707" xlink:href="#b" y="52.445"/><path d="m-5.812-3.32h11.625v13.061h-11.625zm0 0" fill="none" stroke="#000" stroke-miterlimit="10" stroke-width=".3985" transform="matrix(1 0 0 -1 55.82 52.445)"/><use x="53.33" xlink:href="#b" y="52.445"/><path d="m-5.81-3.32h11.62v13.061h-11.62zm0 0" fill="none" stroke="#000" stroke-miterlimit="10" stroke-width=".3985" transform="matrix(1 0 0 -1 67.443 52.445)"/><use x="64.952" xlink:href="#a" y="52.445"/><path d="m-5.811-3.32h11.621v13.061h-11.621zm0 0" fill="none" stroke="#000" stroke-miterlimit="10" stroke-width=".3985" transform="matrix(1 0 0 -1 79.065 52.445)"/><use x="76.574" xlink:href="#a" y="52.445"/><path d="m-5.811-3.322h11.62v13.062h-11.619zm0 0" fill="none" stroke="#000" stroke-miterlimit="10" stroke-width=".3985" transform="matrix(1 0 0 -1 9.331 65.506)"/><use x="6.84" xlink:href="#a" y="65.506"/><path d="m-5.812-3.322h11.625v13.062h-11.625zm0 0" fill="none" stroke="#000" stroke-miterlimit="10" stroke-width=".3985" transform="matrix(1 0 0 -1 20.953 65.506)"/><use x="18.463" xlink:href="#a" y="65.506"/><path d="m-5.81-3.322h11.62v13.062h-11.62zm0 0" fill="none" stroke="#000" stroke-miterlimit="10" stroke-width=".3985" transform="matrix(1 0 0 -1 32.576 65.506)"/><use x="30.085" xlink:href="#b" y="65.506"/><path d="m-5.811-3.322h11.62v13.062h-11.619zm0 0" fill="none" stroke="#000" stroke-miterlimit="10" stroke-width=".3985" transform="matrix(1 0 0 -1 44.198 65.506)"/><use x="41.707" xlink:href="#b" y="65.506"/><path d="m-5.812-3.322h11.625v13.062h-11.625zm0 0" fill="none" stroke="#000" stroke-miterlimit="10" stroke-width=".3985" transform="matrix(1 0 0 -1 55.82 65.506)"/><use x="53.33" xlink:href="#a" y="65.506"/><path d="m-5.81-3.322h11.62v13.062h-11.62zm0 0" fill="none" stroke="#000" stroke-miterlimit="10" stroke-width=".3985" transform="matrix(1 0 0 -1 67.443 65.506)"/><use x="64.952" xlink:href="#a" y="65.506"/><path d="m-5.811-3.322h11.621v13.062h-11.621zm0 0" fill="none" stroke="#000" stroke-miterlimit="10" stroke-width=".3985" transform="matrix(1 0 0 -1 79.065 65.506)"/><use x="76.574" xlink:href="#a" y="65.506"/><path d="m-5.811-3.32h11.62v13.063h-11.619zm0 0" fill="none" stroke="#000" stroke-miterlimit="10" stroke-width=".3985" transform="matrix(1 0 0 -1 9.331 78.567)"/><use x="6.84" xlink:href="#a" y="78.567"/><path d="m-5.812-3.32h11.625v13.063h-11.625zm0 0" fill="none" stroke="#000" stroke-miterlimit="10" stroke-width=".3985" transform="matrix(1 0 0 -1 20.953 78.567)"/><use x="18.463" xlink:href="#b" y="78.567"/><path d="m-5.81-3.32h11.62v13.063h-11.62zm0 0" fill="none" stroke="#000" stroke-miterlimit="10" stroke-width=".3985" transform="matrix(1 0 0 -1 32.576 78.567)"/><use x="30.085" xlink:href="#b" y="78.567"/><path d="m-5.811-3.32h11.62v13.063h-11.619zm0 0" fill="none" stroke="#000" stroke-miterlimit="10" stroke-width=".3985" transform="matrix(1 0 0 -1 44.198 78.567)"/><use x="41.707" xlink:href="#a" y="78.567"/><path d="m-5.812-3.32h11.625v13.063h-11.625zm0 0" fill="none" stroke="#000" stroke-miterlimit="10" stroke-width=".3985" transform="matrix(1 0 0 -1 55.82 78.567)"/><use x="53.33" xlink:href="#a" y="78.567"/><path d="m-5.81-3.32h11.62v13.063h-11.62zm0 0" fill="none" stroke="#000" stroke-miterlimit="10" stroke-width=".3985" transform="matrix(1 0 0 -1 67.443 78.567)"/><use x="64.952" xlink:href="#a" y="78.567"/><path d="m-5.811-3.32h11.621v13.063h-11.621zm0 0" fill="none" stroke="#000" stroke-miterlimit="10" stroke-width=".3985" transform="matrix(1 0 0 -1 79.065 78.567)"/><use x="76.574" xlink:href="#a" y="78.567"/><path d="m-5.811-3.32h11.62v13.062h-11.619zm0 0" fill="none" stroke="#000" stroke-miterlimit="10" stroke-width=".3985" transform="matrix(1 0 0 -1 9.331 91.629)"/><use x="6.84" xlink:href="#b" y="91.629"/><path d="m-5.812-3.32h11.625v13.062h-11.625zm0 0" fill="none" stroke="#000" stroke-miterlimit="10" stroke-width=".3985" transform="matrix(1 0 0 -1 20.953 91.629)"/><use x="18.463" xlink:href="#b" y="91.629"/><path d="m-5.81-3.32h11.62v13.062h-11.62zm0 0" fill="none" stroke="#000" stroke-miterlimit="10" stroke-width=".3985" transform="matrix(1 0 0 -1 32.576 91.629)"/><use x="30.085" xlink:href="#a" y="91.629"/><path d="m-5.811-3.32h11.62v13.062h-11.619zm0 0" fill="none" stroke="#000" stroke-miterlimit="10" stroke-width=".3985" transform="matrix(1 0 0 -1 44.198 91.629)"/><use x="41.707" xlink:href="#a" y="91.629"/><path d="m-5.812-3.32h11.625v13.062h-11.625zm0 0" fill="none" stroke="#000" stroke-miterlimit="10" stroke-width=".3985" transform="matrix(1 0 0 -1 55.82 91.629)"/><use x="53.33" xlink:href="#a" y="91.629"/><path d="m-5.81-3.32h11.62v13.062h-11.62zm0 0" fill="none" stroke="#000" stroke-miterlimit="10" stroke-width=".3985" transform="matrix(1 0 0 -1 67.443 91.629)"/><use x="64.952" xlink:href="#a" y="91.629"/><path d="m-5.811-3.32h11.621v13.062h-11.621zm0 0" fill="none" stroke="#000" stroke-miterlimit="10" stroke-width=".3985" transform="matrix(1 0 0 -1 79.065 91.629)"/><use x="76.574" xlink:href="#a" y="91.629"/><use x="42.026" xlink:href="#g" y="107.727"/><use x="94.108" xlink:href="#i" y="51.552"/><path d="m-5.81-3.32h11.62v13.062h-11.62zm0 0" fill="#b2d9d9" stroke="#000" stroke-miterlimit="10" stroke-width=".3985" transform="matrix(1 0 0 -1 114.131 39.383)"/><use x="111.641" xlink:href="#b" y="39.383"/><path d="m-5.813-3.32h11.625v13.062h-11.625zm0 0" fill="#b2d9d9" stroke="#000" stroke-miterlimit="10" stroke-width=".3985" transform="matrix(1 0 0 -1 125.754 39.383)"/><use x="123.263" xlink:href="#a" y="39.383"/><path d="m-5.81-3.32h11.621v13.062h-11.62zm0 0" fill="#b2d9d9" stroke="#000" stroke-miterlimit="10" stroke-width=".3985" transform="matrix(1 0 0 -1 137.376 39.383)"/><use x="134.886" xlink:href="#b" y="39.383"/><path d="m-5.81-3.32h11.62v13.061h-11.62zm0 0" fill="#b2d9d9" stroke="#000" stroke-miterlimit="10" stroke-width=".3985" transform="matrix(1 0 0 -1 114.131 52.445)"/><use x="111.641" xlink:href="#a" y="52.445"/><path d="m-5.813-3.32h11.625v13.061h-11.625zm0 0" fill="#b2d9d9" stroke="#000" stroke-miterlimit="10" stroke-width=".3985" transform="matrix(1 0 0 -1 125.754 52.445)"/><use x="123.263" xlink:href="#b" y="52.445"/><path d="m-5.81-3.32h11.621v13.061h-11.62zm0 0" fill="#b2d9d9" stroke="#000" stroke-miterlimit="10" stroke-width=".3985" transform="matrix(1 0 0 -1 137.376 52.445)"/><use x="134.886" xlink:href="#a" y="52.445"/><path d="m-5.81-3.322h11.62v13.062h-11.62zm0 0" fill="#b2d9d9" stroke="#000" stroke-miterlimit="10" stroke-width=".3985" transform="matrix(1 0 0 -1 114.131 65.506)"/><use x="111.641" xlink:href="#b" y="65.506"/><path d="m-5.813-3.322h11.625v13.062h-11.625zm0 0" fill="#b2d9d9" stroke="#000" stroke-miterlimit="10" stroke-width=".3985" transform="matrix(1 0 0 -1 125.754 65.506)"/><use x="123.263" xlink:href="#a" y="65.506"/><path d="m-5.81-3.322h11.621v13.062h-11.62zm0 0" fill="#b2d9d9" stroke="#000" stroke-miterlimit="10" stroke-width=".3985" transform="matrix(1 0 0 -1 137.376 65.506)"/><use x="134.886" xlink:href="#b" y="65.506"/><use x="121.264" xlink:href="#h" y="107.727"/><use x="152.419" xlink:href="#c" y="51.062"/><path d="m-5.812-3.319h11.622v13.059h-11.622zm0 0" fill="none" stroke="#000" stroke-miterlimit="10" stroke-width=".3985" transform="matrix(1 0 0 -1 175.21 26.322)"/><use x="172.719" xlink:href="#b" y="26.322"/><path d="m-5.812-3.319h11.625v13.059h-11.625zm0 0" fill="none" stroke="#000" stroke-miterlimit="10" stroke-width=".3985" transform="matrix(1 0 0 -1 186.832 26.322)"/><use x="184.342" xlink:href="#d" y="26.322"/><path d="m-5.81-3.319h11.62v13.059h-11.62zm0 0" fill="none" stroke="#000" stroke-miterlimit="10" stroke-width=".3985" transform="matrix(1 0 0 -1 198.455 26.322)"/><use x="195.964" xlink:href="#e" y="26.322"/><path d="m-5.811-3.319h11.62v13.059h-11.619zm0 0" fill="#b2b2f0" stroke="#000" stroke-miterlimit="10" stroke-width=".3985" transform="matrix(1 0 0 -1 210.077 26.322)"/><use x="207.586" xlink:href="#d" y="26.322"/><path d="m-5.812-3.319h11.625v13.059h-11.625zm0 0" fill="none" stroke="#000" stroke-miterlimit="10" stroke-width=".3985" transform="matrix(1 0 0 -1 221.699 26.322)"/><use x="219.209" xlink:href="#b" y="26.322"/><path d="m-5.812-3.32h11.622v13.062h-11.622zm0 0" fill="none" stroke="#000" stroke-miterlimit="10" stroke-width=".3985" transform="matrix(1 0 0 -1 175.21 39.383)"/><use x="172.719" xlink:href="#b" y="39.383"/><path d="m-5.812-3.32h11.625v13.062h-11.625zm0 0" fill="none" stroke="#000" stroke-miterlimit="10" stroke-width=".3985" transform="matrix(1 0 0 -1 186.832 39.383)"/><use x="184.342" xlink:href="#f" y="39.383"/><path d="m-5.81-3.32h11.62v13.062h-11.62zm0 0" fill="none" stroke="#000" stroke-miterlimit="10" stroke-width=".3985" transform="matrix(1 0 0 -1 198.455 39.383)"/><use x="195.964" xlink:href="#d" y="39.383"/><path d="m-5.811-3.32h11.62v13.062h-11.619zm0 0" fill="none" stroke="#000" stroke-miterlimit="10" stroke-width=".3985" transform="matrix(1 0 0 -1 210.077 39.383)"/><use x="207.586" xlink:href="#e" y="39.383"/><path d="m-5.812-3.32h11.625v13.062h-11.625zm0 0" fill="none" stroke="#000" stroke-miterlimit="10" stroke-width=".3985" transform="matrix(1 0 0 -1 221.699 39.383)"/><use x="219.209" xlink:href="#e" y="39.383"/><path d="m-5.812-3.32h11.622v13.061h-11.622zm0 0" fill="none" stroke="#000" stroke-miterlimit="10" stroke-width=".3985" transform="matrix(1 0 0 -1 175.21 52.445)"/><use x="172.719" xlink:href="#b" y="52.445"/><path d="m-5.812-3.32h11.625v13.061h-11.625zm0 0" fill="none" stroke="#000" stroke-miterlimit="10" stroke-width=".3985" transform="matrix(1 0 0 -1 186.832 52.445)"/><use x="184.342" xlink:href="#f" y="52.445"/><path d="m-5.81-3.32h11.62v13.061h-11.62zm0 0" fill="none" stroke="#000" stroke-miterlimit="10" stroke-width=".3985" transform="matrix(1 0 0 -1 198.455 52.445)"/><use x="195.964" xlink:href="#e" y="52.445"/><path d="m-5.811-3.32h11.62v13.061h-11.619zm0 0" fill="none" stroke="#000" stroke-miterlimit="10" stroke-width=".3985" transform="matrix(1 0 0 -1 210.077 52.445)"/><use x="207.586" xlink:href="#d" y="52.445"/><path d="m-5.812-3.32h11.625v13.061h-11.625zm0 0" fill="none" stroke="#000" stroke-miterlimit="10" stroke-width=".3985" transform="matrix(1 0 0 -1 221.699 52.445)"/><use x="219.209" xlink:href="#b" y="52.445"/><path d="m-5.812-3.322h11.622v13.062h-11.622zm0 0" fill="none" stroke="#000" stroke-miterlimit="10" stroke-width=".3985" transform="matrix(1 0 0 -1 175.21 65.506)"/><use x="172.719" xlink:href="#b" y="65.506"/><path d="m-5.812-3.322h11.625v13.062h-11.625zm0 0" fill="none" stroke="#000" stroke-miterlimit="10" stroke-width=".3985" transform="matrix(1 0 0 -1 186.832 65.506)"/><use x="184.342" xlink:href="#e" y="65.506"/><path d="m-5.81-3.322h11.62v13.062h-11.62zm0 0" fill="none" stroke="#000" stroke-miterlimit="10" stroke-width=".3985" transform="matrix(1 0 0 -1 198.455 65.506)"/><use x="195.964" xlink:href="#e" y="65.506"/><path d="m-5.811-3.322h11.62v13.062h-11.619zm0 0" fill="none" stroke="#000" stroke-miterlimit="10" stroke-width=".3985" transform="matrix(1 0 0 -1 210.077 65.506)"/><use x="207.586" xlink:href="#b" y="65.506"/><path d="m-5.812-3.322h11.625v13.062h-11.625zm0 0" fill="none" stroke="#000" stroke-miterlimit="10" stroke-width=".3985" transform="matrix(1 0 0 -1 221.699 65.506)"/><use x="219.209" xlink:href="#b" y="65.506"/><path d="m-5.812-3.32h11.622v13.063h-11.622zm0 0" fill="none" stroke="#000" stroke-miterlimit="10" stroke-width=".3985" transform="matrix(1 0 0 -1 175.21 78.567)"/><use x="172.719" xlink:href="#e" y="78.567"/><path d="m-5.812-3.32h11.625v13.063h-11.625zm0 0" fill="none" stroke="#000" stroke-miterlimit="10" stroke-width=".3985" transform="matrix(1 0 0 -1 186.832 78.567)"/><use x="184.342" xlink:href="#e" y="78.567"/><path d="m-5.81-3.32h11.62v13.063h-11.62zm0 0" fill="none" stroke="#000" stroke-miterlimit="10" stroke-width=".3985" transform="matrix(1 0 0 -1 198.455 78.567)"/><use x="195.964" xlink:href="#b" y="78.567"/><path d="m-5.811-3.32h11.62v13.063h-11.619zm0 0" fill="none" stroke="#000" stroke-miterlimit="10" stroke-width=".3985" transform="matrix(1 0 0 -1 210.077 78.567)"/><use x="207.586" xlink:href="#b" y="78.567"/><path d="m-5.812-3.32h11.625v13.063h-11.625zm0 0" fill="none" stroke="#000" stroke-miterlimit="10" stroke-width=".3985" transform="matrix(1 0 0 -1 221.699 78.567)"/><use x="219.209" xlink:href="#a" y="78.567"/><use x="187.088" xlink:href="#g" y="107.727"/><use x="193.646" xlink:href="#i" y="107.727"/><use x="200.841" xlink:href="#h" y="107.727"/><path d="m29.255 45.914 34.668-26.121m-34.668-13.461 34.668-26.125" fill="none" stroke="#008080" stroke-dasharray="2.98883 2.98883" stroke-miterlimit="10" stroke-width=".3985" transform="matrix(1 0 0 -1 44.198 49.234)"/><path d="m99.189 19.793 60.683 13.062m-60.683-52.648 60.683 39.187" fill="none" stroke="#00c" stroke-dasharray="2.98883 2.98883" stroke-miterlimit="10" stroke-width=".3985" transform="matrix(1 0 0 -1 44.198 49.234)"/><use x="38.474" xlink:href="#j" y="15.945"/><use x="41.712" xlink:href="#k" y="15.945"/><use x="50.096" xlink:href="#j" y="15.945"/><use x="53.334" xlink:href="#l" y="15.945"/><use x="61.718" xlink:href="#j" y="15.945"/><use x="64.956" xlink:href="#k" y="15.945"/><use x="38.474" xlink:href="#j" y="29.006"/><use x="41.712" xlink:href="#l" y="29.006"/><use x="50.096" xlink:href="#j" y="29.006"/><use x="53.334" xlink:href="#k" y="29.006"/><use x="61.718" xlink:href="#j" y="29.006"/><use x="64.956" xlink:href="#l" y="29.006"/><use x="38.474" xlink:href="#j" y="42.068"/><use x="41.712" xlink:href="#k" y="42.068"/><use x="50.096" xlink:href="#j" y="42.068"/><use x="53.334" xlink:href="#l" y="42.068"/><use x="61.718" xlink:href="#j" y="42.068"/><use x="64.956" xlink:href="#k" y="42.068"/></svg>