<svg xmlns="http://www.w3.org/2000/svg" width="340.157" height="340.157" viewBox="0 0 255.118 255.118"><defs><clipPath id="a"><path d="M0 0h255.117v255.117H0zm0 0"/></clipPath><clipPath id="b"><path d="M125 139h125v116.117H125zm0 0"/></clipPath><clipPath id="c"><path d="M5 139h125v116.117H5zm0 0"/></clipPath><clipPath id="d"><path d="M43 170h164v85.117H43zm0 0"/></clipPath></defs><g clip-path="url(#a)"><path d="M255.121 127.559C255.121 57.109 198.008 0 127.56 0 57.109 0-.004 57.11-.004 127.559c0 70.453 57.113 127.562 127.563 127.562 70.449 0 127.562-57.11 127.562-127.562zm0 0" fill="#0d1117"/></g><path d="M147.484 56.691c0-11.004-8.922-19.925-19.925-19.925-11.004 0-19.926 8.922-19.926 19.925 0 11.008 8.922 19.926 19.926 19.926 11.004 0 19.925-8.918 19.925-19.926zm0 0" fill="#399" stroke-width="2.989" stroke="#fff" stroke-miterlimit="10"/><path d="M87.352 116.824c0-11.004-8.922-19.926-19.926-19.926-11.004 0-19.926 8.922-19.926 19.926 0 11.008 8.922 19.926 19.926 19.926 11.004 0 19.926-8.918 19.926-19.926zm0 0" fill="#ffa64c" stroke-width="2.989" stroke="#fff" stroke-miterlimit="10"/><path d="M207.617 116.824c0-11.004-8.922-19.926-19.926-19.926-11.004 0-19.925 8.922-19.925 19.926 0 11.008 8.922 19.926 19.925 19.926 11.004 0 19.926-8.918 19.926-19.926zm0 0" fill="#66f" stroke-width="2.989" stroke="#fff" stroke-miterlimit="10"/><path d="M207.617 201.867c0-11.008-8.922-19.926-19.926-19.926-11.004 0-19.925 8.918-19.925 19.926 0 11.004 8.922 19.926 19.925 19.926 11.004 0 19.926-8.922 19.926-19.926zm0 0" fill="#ff4c4c"/><g clip-path="url(#b)"><path d="M207.617 201.867c0-11.008-8.922-19.926-19.926-19.926-11.004 0-19.925 8.918-19.925 19.926 0 11.004 8.922 19.926 19.925 19.926 11.004 0 19.926-8.922 19.926-19.926zm0 0" fill="none" stroke-width="2.989" stroke="#fff" stroke-miterlimit="10"/></g><path d="M87.352 201.867c0-11.008-8.922-19.926-19.926-19.926-11.004 0-19.926 8.918-19.926 19.926 0 11.004 8.922 19.926 19.926 19.926 11.004 0 19.926-8.922 19.926-19.926zm0 0" fill="#d24c79"/><g clip-path="url(#c)"><path d="M87.352 201.867c0-11.008-8.922-19.926-19.926-19.926-11.004 0-19.926 8.918-19.926 19.926 0 11.004 8.922 19.926 19.926 19.926 11.004 0 19.926-8.922 19.926-19.926zm0 0" fill="none" stroke-width="2.989" stroke="#fff" stroke-miterlimit="10"/></g><path d="M122.016 36.004c-8.954-33.41 20.039-33.41 12.867-6.64" fill="none" stroke-width="2.989" stroke="#fff" stroke-miterlimit="10"/><path d="M133.36 35.04l6.976-7.868-5.453 2.191-3.633-4.625" fill="#fff"/><path d="M148.25 62.238c18.129 4.856 29.04 15.766 32.375 28.219" fill="none" stroke-width="2.989" stroke="#fff" stroke-miterlimit="10"/><path d="M182.148 96.137l2.11-10.301-3.633 4.621-5.453-2.187" fill="#fff"/><path d="M72.969 96.137c4.86-18.133 15.77-29.043 28.222-32.38" fill="none" stroke-width="2.989" stroke="#fff" stroke-miterlimit="10"/><path d="M106.871 62.238l-10.305-2.11 4.625 3.63L99 69.215" fill="#fff"/><path d="M169.14 106.117c-28.085-16.219-55.077-16.219-78.074-2.941" fill="none" stroke-width="2.989" stroke="#fff" stroke-miterlimit="10"/><path d="M85.977 106.117l10.496-.633-5.407-2.308.704-5.836" fill="#fff"/><path d="M85.977 127.535c28.085 16.215 55.078 16.215 78.074 2.938" fill="none" stroke-width="2.989" stroke="#fff" stroke-miterlimit="10"/><path d="M169.14 127.535l-10.495.63 5.406 2.308-.703 5.836" fill="#fff"/><path d="M67.426 138.246v36.32" fill="none" stroke-width="2.989" stroke="#fff" stroke-miterlimit="10"/><path d="M67.426 180.445l4.703-9.402-4.703 3.523-4.703-3.523" fill="#fff"/><path d="M187.691 138.246v36.32" fill="none" stroke-width="2.989" stroke="#fff" stroke-miterlimit="10"/><path d="M187.691 180.445l4.704-9.402-4.704 3.523-4.703-3.523" fill="#fff"/><g clip-path="url(#d)"><path d="M85.977 212.574c28.085 16.219 55.078 16.219 78.074 2.942" fill="none" stroke-width="2.989" stroke="#fff" stroke-miterlimit="10"/></g><path d="M169.14 212.574l-10.495.633 5.406 2.309-.703 5.836" fill="#fff"/><path d="M169.14 191.156c-28.085-16.215-55.077-16.215-78.074-2.937" fill="none" stroke-width="2.989" stroke="#fff" stroke-miterlimit="10"/><path d="M85.977 191.156l10.496-.629-5.407-2.308.704-5.836" fill="#fff"/></svg>