<svg xmlns="http://www.w3.org/2000/svg" width="340.157" height="340.157" viewBox="0 0 255.118 255.118"><defs><clipPath id="a"><path d="M0 0h255.117v255.117H0Zm0 0"/></clipPath><clipPath id="b"><path d="M125 139h125v116.117H125Zm0 0"/></clipPath><clipPath id="c"><path d="M5 139h125v116.117H5Zm0 0"/></clipPath><clipPath id="d"><path d="M43 170h164v85.117H43Zm0 0"/></clipPath></defs><g clip-path="url(#a)"><path style="stroke:none;fill-rule:nonzero;fill:#0d1117;fill-opacity:1" d="M255.121 127.559C255.121 57.109 198.008 0 127.56 0 57.109 0-.004 57.11-.004 127.559c0 70.453 57.113 127.562 127.563 127.562 70.449 0 127.562-57.11 127.562-127.562Zm0 0"/></g><path style="fill-rule:nonzero;fill:#399;fill-opacity:1;stroke-width:2.98883;stroke-linecap:butt;stroke-linejoin:miter;stroke:#fff;stroke-opacity:1;stroke-miterlimit:10" d="M19.925.002c0 11.004-8.921 19.925-19.925 19.925-11.004 0-19.926-8.921-19.926-19.925 0-11.008 8.922-19.926 19.926-19.926 11.004 0 19.925 8.918 19.925 19.926Zm0 0" transform="matrix(1 0 0 -1 127.559 56.693)"/><path style="fill-rule:nonzero;fill:#ffa64c;fill-opacity:1;stroke-width:2.98883;stroke-linecap:butt;stroke-linejoin:miter;stroke:#fff;stroke-opacity:1;stroke-miterlimit:10" d="M-40.207-60.131c0 11.004-8.922 19.926-19.926 19.926-11.004 0-19.926-8.922-19.926-19.926 0-11.008 8.922-19.926 19.926-19.926 11.004 0 19.926 8.918 19.926 19.926Zm0 0" transform="matrix(1 0 0 -1 127.559 56.693)"/><path style="fill-rule:nonzero;fill:#66f;fill-opacity:1;stroke-width:2.98883;stroke-linecap:butt;stroke-linejoin:miter;stroke:#fff;stroke-opacity:1;stroke-miterlimit:10" d="M80.058-60.131c0 11.004-8.922 19.926-19.926 19.926-11.003 0-19.925-8.922-19.925-19.926 0-11.008 8.922-19.926 19.925-19.926 11.004 0 19.926 8.918 19.926 19.926Zm0 0" transform="matrix(1 0 0 -1 127.559 56.693)"/><path style="stroke:none;fill-rule:nonzero;fill:#ff4c4c;fill-opacity:1" d="M207.617 201.867c0-11.008-8.922-19.926-19.926-19.926-11.004 0-19.925 8.918-19.925 19.926 0 11.004 8.922 19.926 19.925 19.926 11.004 0 19.926-8.922 19.926-19.926Zm0 0"/><g clip-path="url(#b)"><path style="fill:none;stroke-width:2.98883;stroke-linecap:butt;stroke-linejoin:miter;stroke:#fff;stroke-opacity:1;stroke-miterlimit:10" d="M80.058-145.174c0 11.008-8.922 19.926-19.926 19.926-11.003 0-19.925-8.918-19.925-19.926 0-11.004 8.922-19.926 19.925-19.926 11.004 0 19.926 8.922 19.926 19.926Zm0 0" transform="matrix(1 0 0 -1 127.559 56.693)"/></g><path style="stroke:none;fill-rule:nonzero;fill:#d24c79;fill-opacity:1" d="M87.352 201.867c0-11.008-8.922-19.926-19.926-19.926-11.004 0-19.926 8.918-19.926 19.926 0 11.004 8.922 19.926 19.926 19.926 11.004 0 19.926-8.922 19.926-19.926Zm0 0"/><g clip-path="url(#c)"><path style="fill:none;stroke-width:2.98883;stroke-linecap:butt;stroke-linejoin:miter;stroke:#fff;stroke-opacity:1;stroke-miterlimit:10" d="M-40.207-145.174c0 11.008-8.922 19.926-19.926 19.926-11.004 0-19.926-8.918-19.926-19.926 0-11.004 8.922-19.926 19.926-19.926 11.004 0 19.926 8.922 19.926 19.926Zm0 0" transform="matrix(1 0 0 -1 127.559 56.693)"/></g><path style="fill:none;stroke-width:2.98883;stroke-linecap:butt;stroke-linejoin:miter;stroke:#fff;stroke-opacity:1;stroke-miterlimit:10" d="M-5.543 20.69C-14.497 54.1 14.496 54.1 7.324 27.33" transform="matrix(1 0 0 -1 127.559 56.693)"/><path style="stroke:none;fill-rule:nonzero;fill:#fff;fill-opacity:1" d="m133.36 35.04 6.976-7.868-5.453 2.191-3.633-4.625"/><path style="fill:none;stroke-width:2.98883;stroke-linecap:butt;stroke-linejoin:miter;stroke:#fff;stroke-opacity:1;stroke-miterlimit:10" d="M20.691-5.545c18.129-4.856 29.04-15.766 32.375-28.219" transform="matrix(1 0 0 -1 127.559 56.693)"/><path style="stroke:none;fill-rule:nonzero;fill:#fff;fill-opacity:1" d="m182.148 96.137 2.11-10.301-3.633 4.621-5.453-2.187"/><path style="fill:none;stroke-width:2.98883;stroke-linecap:butt;stroke-linejoin:miter;stroke:#fff;stroke-opacity:1;stroke-miterlimit:10" d="M-54.59-39.444C-49.73-21.31-38.82-10.4-26.368-7.064" transform="matrix(1 0 0 -1 127.559 56.693)"/><path style="stroke:none;fill-rule:nonzero;fill:#fff;fill-opacity:1" d="m106.871 62.238-10.305-2.11 4.625 3.63L99 69.215"/><path style="fill:none;stroke-width:2.98883;stroke-linecap:butt;stroke-linejoin:miter;stroke:#fff;stroke-opacity:1;stroke-miterlimit:10" d="M41.582-49.424c-28.086 16.219-55.078 16.219-78.075 2.941" transform="matrix(1 0 0 -1 127.559 56.693)"/><path style="stroke:none;fill-rule:nonzero;fill:#fff;fill-opacity:1" d="m85.977 106.117 10.496-.633-5.407-2.308.704-5.836"/><path style="fill:none;stroke-width:2.98883;stroke-linecap:butt;stroke-linejoin:miter;stroke:#fff;stroke-opacity:1;stroke-miterlimit:10" d="M-41.582-70.842c28.086-16.215 55.078-16.215 78.074-2.938" transform="matrix(1 0 0 -1 127.559 56.693)"/><path style="stroke:none;fill-rule:nonzero;fill:#fff;fill-opacity:1" d="m169.14 127.535-10.495.63 5.406 2.308-.703 5.836"/><path style="fill:none;stroke-width:2.98883;stroke-linecap:butt;stroke-linejoin:miter;stroke:#fff;stroke-opacity:1;stroke-miterlimit:10" d="M-60.133-81.553v-36.32" transform="matrix(1 0 0 -1 127.559 56.693)"/><path style="stroke:none;fill-rule:nonzero;fill:#fff;fill-opacity:1" d="m67.426 180.445 4.703-9.402-4.703 3.523-4.703-3.523"/><path style="fill:none;stroke-width:2.98883;stroke-linecap:butt;stroke-linejoin:miter;stroke:#fff;stroke-opacity:1;stroke-miterlimit:10" d="M60.132-81.553v-36.32" transform="matrix(1 0 0 -1 127.559 56.693)"/><path style="stroke:none;fill-rule:nonzero;fill:#fff;fill-opacity:1" d="m187.691 180.445 4.704-9.402-4.704 3.523-4.703-3.523"/><g clip-path="url(#d)"><path style="fill:none;stroke-width:2.98883;stroke-linecap:butt;stroke-linejoin:miter;stroke:#fff;stroke-opacity:1;stroke-miterlimit:10" d="M-41.582-155.881c28.086-16.219 55.078-16.219 78.074-2.942" transform="matrix(1 0 0 -1 127.559 56.693)"/></g><path style="stroke:none;fill-rule:nonzero;fill:#fff;fill-opacity:1" d="m169.14 212.574-10.495.633 5.406 2.309-.703 5.836"/><path style="fill:none;stroke-width:2.98883;stroke-linecap:butt;stroke-linejoin:miter;stroke:#fff;stroke-opacity:1;stroke-miterlimit:10" d="M41.582-134.463c-28.086 16.215-55.078 16.215-78.075 2.937" transform="matrix(1 0 0 -1 127.559 56.693)"/><path style="stroke:none;fill-rule:nonzero;fill:#fff;fill-opacity:1" d="m85.977 191.156 10.496-.629-5.407-2.308.704-5.836"/></svg>