<svg height="236.505" viewBox="0 0 216.565 177.379" width="288.753" xmlns="http://www.w3.org/2000/svg" xmlns:xlink="http://www.w3.org/1999/xlink"><symbol id="a" overflow="visible"><path d="m4.578-3.188c0-.796-.047-1.593-.39-2.328-.455-.968-1.283-1.124-1.688-1.124-.61 0-1.328.266-1.75 1.188-.313.687-.36 1.469-.36 2.266 0 .75.032 1.64.454 2.406a1.83 1.83 0 0 0 1.64 1c.532 0 1.297-.203 1.735-1.157.312-.687.36-1.468.36-2.25zm-2.094 3.188c-.39 0-.984-.25-1.156-1.203-.11-.594-.11-1.516-.11-2.11 0-.64 0-1.296.079-1.828.187-1.187.937-1.28 1.187-1.28.329 0 .985.187 1.172 1.171.11.563.11 1.313.11 1.938 0 .75 0 1.421-.11 2.062-.156.953-.719 1.25-1.172 1.25zm0 0"/></symbol><symbol id="b" overflow="visible"><path d="m4.469-2c0-1.188-.813-2.188-1.89-2.188-.47 0-.907.157-1.267.516v-1.953c.204.063.532.125.844.125 1.235 0 1.938-.906 1.938-1.031 0-.063-.032-.11-.11-.11 0 0-.03 0-.078.032a3.22 3.22 0 0 1 -1.36.296 3.4 3.4 0 0 1 -1.327-.28c-.078-.032-.094-.032-.11-.032-.109 0-.109.078-.109.234v2.954c0 .171 0 .25.14.25.079 0 .094-.016.141-.079.11-.156.469-.703 1.282-.703.515 0 .765.453.843.64.156.376.188.75.188 1.25 0 .36 0 .954-.25 1.376-.235.39-.61.64-1.063.64-.719 0-1.297-.53-1.469-1.109.032 0 .063.016.172.016.329 0 .5-.25.5-.485 0-.25-.171-.5-.5-.5-.14 0-.484.079-.484.532 0 .859.688 1.828 1.797 1.828 1.156 0 2.172-.953 2.172-2.219zm0 0"/></symbol><symbol id="c" overflow="visible"><path d="m2.938-6.375c0-.25 0-.266-.235-.266-.625.641-1.5.641-1.812.641v.313c.203 0 .78 0 1.296-.266v5.172c0 .36-.03.469-.921.469h-.313v.312c.344-.031 1.203-.031 1.61-.031.39 0 1.265 0 1.609.031v-.313h-.313c-.906 0-.921-.109-.921-.468zm0 0"/></symbol><symbol id="d" overflow="visible"><path d="m3.297 2.39c0-.03 0-.046-.172-.218-1.234-1.25-1.563-3.14-1.563-4.672 0-1.734.375-3.469 1.61-4.703.125-.125.125-.14.125-.172 0-.078-.031-.11-.094-.11-.11 0-1 .688-1.594 1.954-.499 1.093-.625 2.203-.625 3.031 0 .781.11 1.984.657 3.125.609 1.219 1.453 1.875 1.562 1.875.063 0 .094-.031.094-.11zm0 0"/></symbol><symbol id="e" overflow="visible"><path d="m2.875-2.5c0-.766-.11-1.969-.656-3.11-.594-1.217-1.453-1.873-1.547-1.873a.107.107 0 0 0 -.11.109c0 .031 0 .047.188.234.984.985 1.547 2.563 1.547 4.641 0 1.719-.36 3.469-1.594 4.719-.14.125-.14.14-.14.172 0 .062.046.109.109.109.094 0 1-.688 1.578-1.953.516-1.094.625-2.203.625-3.047zm0 0"/></symbol><symbol id="f" overflow="visible"><path d="m1.906-.531a.534.534 0 0 0 -.515-.531.537.537 0 0 0 -.532.53.524.524 0 1 0 1.047 0zm0 0"/></symbol><symbol id="g" overflow="visible"><path d="m4.25-6.047c.078-.281.11-.344.234-.375.094-.016.422-.016.625-.016 1.016 0 1.454.032 1.454.813 0 .156-.032.547-.079.797 0 .047-.03.156-.03.187 0 .063.03.141.124.141.11 0 .125-.078.156-.234l.266-1.736c.016-.047.016-.14.016-.172 0-.109-.094-.109-.266-.109h-5.531c-.235 0-.25.016-.328.203l-.594 1.75c0 .016-.063.156-.063.188 0 .046.063.109.125.109.094 0 .11-.063.172-.219.531-1.547.797-1.718 2.266-1.718h.39c.282 0 .282.03.282.125a.775.775 0 0 1 -.047.203l-1.328 5.329c-.094.36-.125.469-1.188.469-.36 0-.422 0-.422.187 0 .125.11.125.172.125.266 0 .547-.016.813-.016.281 0 .578-.015.86-.015.28 0 .546.015.827.015s.578.016.86.016c.093 0 .218 0 .218-.203 0-.11-.078-.11-.343-.11-.235 0-.375 0-.625-.015-.297-.031-.375-.063-.375-.219 0-.015 0-.062.046-.203zm0 0"/></symbol><symbol id="h" overflow="visible"><path d="m4.375-7.094c.047-.14.047-.172.047-.187 0-.11-.078-.203-.188-.203-.078 0-.14.03-.171.093l-3.47 9.5c-.046.141-.046.172-.046.188 0 .11.094.203.203.203.125 0 .156-.078.219-.25zm0 0"/></symbol><symbol id="i" overflow="visible"><path d="m.875-.594c-.031.156-.094.39-.094.438 0 .172.14.265.297.265a.414.414 0 0 0 .375-.28c0-.016.125-.485.188-.735l.218-.89c.047-.235.11-.454.172-.673.031-.172.11-.469.125-.5.14-.312.672-1.219 1.625-1.219.453 0 .531.375.531.704 0 .25-.062.53-.14.828l-.282 1.156-.204.75c-.03.203-.124.547-.124.594 0 .172.14.265.28.265.313 0 .376-.25.454-.562.14-.563.516-2.016.594-2.406.03-.125.562-1.329 1.656-1.329.422 0 .531.344.531.704 0 .562-.422 1.703-.625 2.234-.078.234-.125.344-.125.547 0 .469.344.812.813.812.937 0 1.312-1.453 1.312-1.53 0-.11-.094-.11-.125-.11-.094 0-.094.031-.14.187-.157.532-.47 1.235-1.016 1.235-.172 0-.25-.094-.25-.329 0-.25.094-.484.187-.703.188-.53.61-1.625.61-2.203 0-.64-.407-1.062-1.157-1.062-.734 0-1.25.437-1.625.968 0-.124-.03-.468-.312-.703-.25-.218-.563-.265-.813-.265-.906 0-1.39.64-1.562.875-.047-.578-.469-.875-.922-.875s-.64.39-.734.562a4.68 4.68 0 0 0 -.297.969c0 .11.094.11.11.11.109 0 .109-.016.171-.235.172-.703.375-1.188.735-1.188.156 0 .296.079.296.454 0 .218-.03.328-.156.843zm0 0"/></symbol><symbol id="j" overflow="visible"><path d="m2.031-.016c0-.656-.25-1.046-.64-1.046a.517.517 0 0 0 -.532.53c0 .266.204.532.532.532a.58.58 0 0 0 .343-.125c.032-.031.047-.031.047-.031.016 0 .016 0 .016.14 0 .75-.344 1.344-.672 1.672-.11.11-.11.125-.11.157 0 .078.048.109.094.109.11 0 .922-.766.922-1.938zm0 0"/></symbol><symbol id="k" overflow="visible"><path d="m3.047-2.672c-.25.047-.344.235-.344.39 0 .188.14.266.266.266.156 0 .39-.109.39-.453 0-.469-.53-.61-.906-.61-1.047 0-2.015.97-2.015 1.938 0 .594.406 1.204 1.28 1.204 1.188 0 1.735-.688 1.735-.782 0-.047-.062-.125-.125-.125-.031 0-.047.016-.11.078-.546.641-1.359.641-1.484.641-.5 0-.718-.344-.718-.781 0-.188.093-.953.453-1.438.265-.344.625-.531.984-.531.094 0 .422.016.594.203zm0 0"/></symbol><clipPath id="l"><path d="m212 159h4.566v5h-4.566zm0 0"/></clipPath><clipPath id="m"><path d="m21.895 44h194.277v117.793h-194.277zm0 0"/></clipPath><clipPath id="n"><path d="m21.895 49h120.105v112.793h-120.105zm0 0"/></clipPath><path d="m53.967-2.125v4.25m53.965-4.25v4.25m53.965-4.25v4.25m-164.023 48.313h4.253m-4.253 50.433h4.253m-4.253 50.438h4.253m-2.128-151.309h191.683" fill="none" stroke="#000" stroke-miterlimit="10" stroke-width=".79701" transform="matrix(1 0 0 -1 21.896 161.793)"/><g clip-path="url(#l)"><path d="m216.168 161.793-4.145-2.07 1.555 2.07-1.555 2.07"/></g><path d="m-.001 0v158.805" fill="none" stroke="#000" stroke-miterlimit="10" stroke-width=".79701" transform="matrix(1 0 0 -1 21.896 161.793)"/><path d="m21.895.398-2.07 4.145 2.07-1.555 2.074 1.555"/><use x="69.496" xlink:href="#a" y="174.058"/><use x="74.477" xlink:href="#f" y="174.058"/><use x="77.244" xlink:href="#b" y="174.058"/><use x="127.335" xlink:href="#c" y="174.058"/><use x="177.425" xlink:href="#c" y="174.058"/><use x="182.407" xlink:href="#f" y="174.058"/><use x="185.174" xlink:href="#b" y="174.058"/><use x="3.321" xlink:href="#a" y="114.567"/><use x="8.302" xlink:href="#f" y="114.567"/><use x="11.069" xlink:href="#b" y="114.567"/><use x="11.069" xlink:href="#c" y="64.132"/><use x="3.321" xlink:href="#c" y="13.696"/><use x="8.302" xlink:href="#f" y="13.696"/><use x="11.069" xlink:href="#b" y="13.696"/><g clip-path="url(#m)"><path d="m-.001 100.871h29.89c.18.004.469.016.649.016.18.004.468 0 .648 0h7.148c.18 0 .47-.008.649-.012h1.301c.18 0 .468.004.648 0 .184 0 .473-.008.652-.008.18-.004.47 0 .649 0h.648c.184-.004.473-.011.653-.011h.648c.18 0 .469-.008.649-.008.183-.004.472 0 .652 0l.648-.012.649-.012c.183 0 .472-.008.652-.008h.649c.18 0 .468-.007.648-.011.184-.004.473-.004.652-.008l.649-.012c.18-.004.469-.015.648-.02.184-.003.473-.007.653-.007l.648-.012c.18-.008.469-.015.648-.02l.653-.011c.18-.004.469-.016.648-.02.18-.007.469-.015.649-.02.183-.007.472-.015.652-.023.18-.004.469-.011.648-.02.18-.003.47-.01.649-.019.183-.004.473-.023.652-.03.18-.009.469-.013.649-.02l.648-.032.652-.027.649-.031.648-.032.653-.027.648-.043c.18-.012.469-.027.652-.039l.649-.043a36.214 36.214 0 0 0 1.297-.09 34 34 0 0 0 .652-.05c.18-.012.469-.036.649-.047.18-.016.468-.04.648-.051.184-.016.473-.035.652-.051.18-.016.47-.043.649-.062.18-.016.469-.051.652-.07.18-.016.469-.044.649-.063.18-.016.468-.047.648-.067l.652-.07c.18-.02.47-.05.649-.074.18-.02.469-.059.648-.078.18-.024.469-.059.653-.082.18-.024.468-.067.648-.09.18-.028.469-.067.648-.094.18-.023.47-.062.653-.09.18-.027.469-.07.648-.101l.649-.098.652-.113c.18-.032.469-.078.648-.11.18-.03.47-.09.649-.12.18-.036.469-.087.652-.122.18-.035.469-.098.649-.133s.468-.09.648-.129.469-.109.652-.152c.18-.039.47-.098.649-.14.18-.044.469-.118.648-.165.18-.043.469-.105.653-.148l.648-.172c.18-.05.469-.133.648-.184.18-.05.47-.128.653-.18.18-.054.469-.136.648-.19.18-.055.469-.145.649-.204.18-.058.468-.152.652-.21.18-.063.469-.16.648-.223a42.882 42.882 0 0 0 1.95-.727c.18-.07.468-.195.648-.273.18-.075.469-.203.653-.282.18-.082.468-.21.648-.293.18-.085.469-.226.648-.312.18-.09.47-.23.653-.324.18-.09.468-.242.648-.344.18-.098.469-.266.649-.371l.652-.383c.18-.11.469-.289.648-.406.18-.113.47-.301.649-.422.18-.125.469-.336.652-.465.18-.133.469-.344.649-.484.18-.137.468-.375.648-.524.18-.148.469-.386.652-.547.18-.16.47-.433.649-.605.18-.172.469-.45.648-.633.18-.187.469-.5.653-.7.18-.198.468-.519.648-.733a30.623 30.623 0 0 0 1.3-1.727c.18-.262.47-.7.65-.988.179-.293.468-.782.648-1.11a31.296 31.296 0 0 0 1.3-2.695c.18-.43.47-1.172.649-1.684.18-.515.469-1.382.652-2.02.18-.636.469-1.737.649-2.57.18-.835.468-2.206.648-3.433s.473-2.332.652-5.406c.18-3.078.47-7.64.649-16.77.18-9.129.469-42.23.648-49.035.184-6.805.47 0 .653 0h85.117" fill="none" stroke="#00f" stroke-miterlimit="10" stroke-width="1.19553" transform="matrix(1 0 0 -1 21.896 161.793)"/></g><g clip-path="url(#n)"><path d="m-.001 0 4.5 4.203c1.246 1.168 3.246 3.035 4.496 4.203 1.246 1.164 3.25 3.035 4.496 4.203 1.25 1.164 3.25 3.036 4.496 4.204 1.25 1.164 3.25 3.035 4.5 4.203l4.496 4.203c1.246 1.164 3.25 3.035 4.496 4.203 1.25 1.164 3.25 3.035 4.496 4.203 1.25 1.164 3.25 3.035 4.5 4.203l4.496 4.203c1.246 1.164 3.25 3.035 4.496 4.203 1.25 1.164 3.25 3.036 4.496 4.204 1.25 1.164 3.25 3.035 4.5 4.199 1.246 1.168 3.246 3.039 4.496 4.203 1.247 1.168 3.25 3.039 4.497 4.203 1.25 1.168 3.25 3.04 4.496 4.203 1.25 1.168 3.25 3.04 4.5 4.203 1.246 1.168 3.246 3.04 4.496 4.203 1.246 1.168 3.25 3.04 4.496 4.204 1.25 1.167 3.25 3.039 4.496 4.203 1.25 1.168 3.25 3.039 4.5 4.203 1.246 1.168 3.246 3.039 4.496 4.203 1.246 1.168 3.246 3.035 4.496 4.203 1.246 1.168 4.496 4.203 4.496 4.203" fill="none" stroke="#000" stroke-dasharray="2.98883 2.98883" stroke-miterlimit="10" stroke-width=".79701" transform="matrix(1 0 0 -1 21.896 161.793)"/></g><use x="190.657" xlink:href="#g" y="155.583"/><g><use x="197.585" xlink:href="#h" y="155.583"/><use x="202.566" xlink:href="#g" y="155.583"/></g><use x="208.389" xlink:href="#k" y="157.078"/><use x="25.615" xlink:href="#i" y="11.59"/><g><use x="34.362" xlink:href="#d" y="11.59"/><use x="38.236" xlink:href="#a" y="11.59"/></g><use x="43.218" xlink:href="#j" y="11.59"/><use x="47.649" xlink:href="#g" y="11.59"/><use x="54.851" xlink:href="#e" y="11.59"/></svg>