<svg viewBox="0 0 120 120" xmlns="http://www.w3.org/2000/svg" fill-rule="evenodd" clip-rule="evenodd" stroke-linejoin="round" stroke-miterlimit="2"><path d="M64.956.205a60.083 60.083 0 00-9.912 0l-4.101 9.606a50.98 50.98 0 00-8.194 2.195l-8.355-6.268a60.003 60.003 0 00-8.583 4.956l1.251 10.369a51.034 51.034 0 00-5.999 5.999l-10.369-1.251a60.003 60.003 0 00-4.956 8.583l6.268 8.355a50.98 50.98 0 00-2.195 8.194L.205 55.044a60.083 60.083 0 000 9.912l9.606 4.101a50.98 50.98 0 002.195 8.194l-6.268 8.355a60.003 60.003 0 004.956 8.583l10.369-1.251a51.034 51.034 0 005.999 5.999l-1.251 10.369a60.003 60.003 0 008.583 4.956l8.355-6.268a50.98 50.98 0 008.194 2.195l4.101 9.606c3.298.273 6.614.273 9.912 0l4.101-9.606a50.98 50.98 0 008.194-2.195l8.355 6.268a60.003 60.003 0 008.583-4.956l-1.251-10.369a51.034 51.034 0 005.999-5.999l10.369 1.251a60.003 60.003 0 004.956-8.583l-6.268-8.355a50.98 50.98 0 002.195-8.194l9.606-4.101a60.083 60.083 0 000-9.912l-9.606-4.101a50.98 50.98 0 00-2.195-8.194l6.268-8.355a60.003 60.003 0 00-4.956-8.583l-10.369 1.251a51.034 51.034 0 00-5.999-5.999l1.251-10.369a60.003 60.003 0 00-8.583-4.956l-8.355 6.268a50.98 50.98 0 00-8.194-2.195L64.956.205zM60 15.353c24.641 0 44.647 20.006 44.647 44.647S84.641 104.647 60 104.647 15.353 84.641 15.353 60 35.359 15.353 60 15.353z" fill="#000154"/><circle cx="60" cy="60" r="42.313" fill="#00001d"/><g font-size="158.333" fill="#fff"><text x="126.791" y="273.878" font-family="'TimesNewRomanPSMT','Times New Roman',serif" transform="matrix(.24 0 0 .24 -6.686 7.462)">T<tspan x="217.941" y="273.878">i</tspan></text><text x="261.931" y="273.878" font-family="'TimesNewRomanPS-ItalicMT','Times New Roman',serif" font-style="italic" transform="matrix(.24 0 0 .24 -6.686 7.462)">k</text><text x="332.207" y="273.878" font-family="'TimesNewRomanPSMT','Times New Roman',serif" transform="matrix(.24 0 0 .24 -6.686 7.462)">Z</text></g></svg>