<svg xmlns="http://www.w3.org/2000/svg" viewBox="160 80 600 700"><defs><mask id="A" x="174.51" y="91.03" width="1280.35" height="670.56" maskUnits="userSpaceOnUse"><path d="M1454.86,761.33H174.77V91H1454.86Z" fill="#fff"/></mask></defs><g mask="url(#A)"><path d="M753 112c-90.55-35.3-418.77-48.35-419.32 147.49-95.76 61.31-159.17 161.3-159.17 268.18 0 129.22 104.74 233.91 234 233.91s234-104.74 234-233.91A233.93 233.93 0 0 0 491.82 309c-16.94-6.55-53.74-18.1-83.13-15.62-41.93 26.66-93.06 81.47-117.24 136.06 35.94-43.13 92.12-62 141.88-53.91a154.17 154.17 0 0 1 129.21 152.1c0 85.15-69.31 154.12-154.46 154.12a153.66 153.66 0 0 1-117.24-54c-41.5-48.86-52.2-101.83-43.64-153.6C276.77 292.65 492 189.4 652 149.74c-52.2 27.64-146.33 73-212.22 122.5C631.9 346.43 663 184.44 753 112z" fill="#47a141"/></g></svg>
