<svg height="478.559" viewBox="0 0 495.931 358.919" width="661.241" xmlns="http://www.w3.org/2000/svg" xmlns:xlink="http://www.w3.org/1999/xlink"><symbol id="a" overflow="visible"><path d="m6.64-6.75h-6.092l-.189 2.25h.25c.141-1.61.282-1.938 1.797-1.938.172 0 .438 0 .531.016.22.047.22.156.22.375v5.267c0 .328 0 .469-1.048.469h-.406v.311c.406-.031 1.422-.031 1.89-.031.454 0 1.485 0 1.891.031v-.313h-.406c-1.047 0-1.047-.14-1.047-.468v-5.266c0-.187 0-.328.188-.375.11-.016.375-.016.562-.016 1.516 0 1.657.329 1.797 1.938h.25zm0 0"/></symbol><symbol id="b" overflow="visible"><path d="m1.672-3.313v-1.093l-1.39.11v.312c.702 0 .78.062.78.562v2.672c0 .438-.109.438-.78.438v.312c.39-.016.859-.031 1.14-.031.39 0 .86 0 1.266.031v-.313h-.22c-.734 0-.75-.109-.75-.468v-1.531c0-.985.423-1.876 1.173-1.876.062 0 .093 0 .109.016-.031 0-.234.125-.234.39 0 .266.218.423.437.423a.421.421 0 0 0 .422-.438c0-.312-.313-.61-.734-.61-.735 0-1.094.673-1.22 1.095zm0 0"/></symbol><symbol id="c" overflow="visible"><path d="m3.313-.75c.046.39.312.813.78.813.22 0 .829-.141.829-.954v-.562h-.25v.562c0 .579-.25.641-.36.641-.328 0-.375-.453-.375-.5v-1.984c0-.422 0-.813-.359-1.188a1.9 1.9 0 0 0 -1.36-.547c-.827 0-1.515.469-1.515 1.125 0 .297.203.469.469.469a.435.435 0 0 0 .453-.453c0-.125-.047-.453-.516-.453.282-.36.766-.469 1.079-.469.5 0 1.062.39 1.062 1.281v.36c-.516.03-1.203.062-1.828.359-.75.344-1 .86-1 1.297 0 .812.969 1.062 1.594 1.062a1.38 1.38 0 0 0 1.296-.859zm-.063-1.64v1c0 .937-.719 1.28-1.172 1.28-.484 0-.89-.343-.89-.843 0-.547.421-1.375 2.062-1.438zm0 0"/></symbol><symbol id="d" overflow="visible"><path d="m1.766-4.406-1.391.11v.312c.64 0 .734.062.734.546v2.688c0 .438-.109.438-.78.438v.312c.312-.016.859-.031 1.093-.031.36 0 .703.015 1.047.031v-.313c-.672 0-.703-.046-.703-.437zm.03-1.735a.514.514 0 0 0 -.515-.53.537.537 0 0 0 -.531.53c0 .266.219.532.531.532a.514.514 0 0 0 .516-.532zm0 0"/></symbol><symbol id="e" overflow="visible"><path d="m1.094-3.422v2.672c0 .438-.11.438-.782.438v.312c.36-.016.86-.031 1.141-.031.25 0 .766.015 1.11.031v-.313c-.672 0-.782 0-.782-.437v-1.844c0-1.031.719-1.594 1.344-1.594.64 0 .75.532.75 1.11v2.328c0 .438-.11.438-.781.438v.312c.344-.016.86-.031 1.125-.031.25 0 .781.015 1.11.031v-.313c-.516 0-.766 0-.766-.296v-1.907c0-.859 0-1.156-.313-1.515-.14-.172-.469-.375-1.047-.375-.734 0-1.203.422-1.484 1.047v-1.047l-1.407.11v.312c.704 0 .782.062.782.562zm0 0"/></symbol><symbol id="f" overflow="visible"><path d="m2.219-1.719c-.875 0-.875-1-.875-1.218 0-.266.015-.594.156-.844.078-.11.313-.39.719-.39.86 0 .86.984.86 1.218 0 .265 0 .594-.157.844-.078.109-.313.39-.703.39zm-1.156.39a.8.8 0 0 1 .156-.468c.39.281.812.313 1 .313.922 0 1.61-.688 1.61-1.454 0-.374-.157-.734-.407-.968.36-.344.719-.39.89-.39.032 0 .079 0 .11.015-.11.031-.172.14-.172.265 0 .172.14.282.297.282a.28.28 0 0 0 .281-.297c0-.172-.11-.485-.5-.485-.203 0-.64.063-1.062.47a1.652 1.652 0 0 0 -1.047-.36c-.938 0-1.625.687-1.625 1.453 0 .437.219.812.469 1.031-.125.14-.313.469-.313.828 0 .313.14.688.453.89-.61.157-.922.595-.922.985 0 .719.985 1.266 2.203 1.266 1.172 0 2.204-.5 2.204-1.281 0-.344-.125-.86-.641-1.141-.531-.266-1.11-.266-1.719-.266-.25 0-.672 0-.75-.015-.312-.047-.516-.344-.516-.672zm1.437 3.158c-1.016-.001-1.703-.517-1.703-1.048 0-.453.375-.828.812-.844h.594c.86 0 1.969 0 1.969.844 0 .547-.703 1.047-1.672 1.047zm0 0"/></symbol><symbol id="g" overflow="visible"><path d="m.344-6.813v.313h.25c.765 0 .781.11.781.469v5.25c0 .36-.016.469-.781.469h-.25v.312h3.656c1.672 0 3.047-1.469 3.047-3.344 0-1.906-1.344-3.469-3.047-3.469zm2.375 6.5c-.469 0-.485-.062-.485-.39v-5.39c0-.345.016-.407.485-.407h1c.625 0 1.312.219 1.812.922.438.594.516 1.453.516 2.234 0 1.094-.188 1.703-.547 2.188a2.192 2.192 0 0 1 -1.766.843zm0 0"/></symbol><symbol id="h" overflow="visible"><path d="m1.719-3.984h1.437v-.313h-1.436v-1.828h-.25c0 .813-.297 1.875-1.282 1.922v.219h.844v2.75c0 1.218.938 1.343 1.297 1.343.703 0 .985-.703.985-1.343v-.563h-.25v.547c0 .734-.297 1.11-.672 1.11-.672 0-.672-.907-.672-1.079zm0 0"/></symbol><symbol id="i" overflow="visible"><path d="m2.078-1.938c.219.047 1.031.204 1.031.922 0 .5-.343.907-1.125.907-.843 0-1.203-.563-1.39-1.422-.031-.125-.031-.157-.14-.157-.126 0-.126.063-.126.235v1.328c0 .172 0 .234.11.234.045.001.062-.015.25-.203.015-.015.015-.031.202-.218.437.406.89.421 1.093.421 1.141 0 1.61-.671 1.61-1.39 0-.516-.297-.828-.422-.938-.328-.328-.719-.406-1.14-.484-.563-.11-1.22-.235-1.22-.813 0-.359.25-.765 1.11-.765 1.094 0 1.156.906 1.172 1.203 0 .094.094.094.11.094.14 0 .14-.047.14-.235v-1.015c0-.157 0-.235-.11-.235-.046 0-.078 0-.203.125a1.676 1.676 0 0 1 -.172.157c-.375-.282-.78-.282-.937-.282-1.219 0-1.594.672-1.594 1.235 0 .343.156.625.422.843.328.25.61.313 1.328.454zm0 0"/></symbol><symbol id="j" overflow="visible"><path d="m1.094-3.422v2.672c0 .438-.11.438-.782.438v.312c.36-.016.86-.031 1.141-.031.25 0 .766.015 1.11.031v-.313c-.672 0-.782 0-.782-.437v-1.844c0-1.031.719-1.594 1.344-1.594.64 0 .75.532.75 1.11v2.328c0 .438-.11.438-.781.438v.312c.344-.016.86-.031 1.125-.031.25 0 .781.015 1.11.031v-.313c-.657 0-.766 0-.766-.437v-1.844c0-1.031.703-1.594 1.343-1.594.625 0 .735.532.735 1.11v2.328c0 .438-.11.438-.782.438v.312c.344-.016.86-.031 1.125-.031.266 0 .782.015 1.125.031v-.313c-.515 0-.765 0-.78-.296v-1.907c0-.859 0-1.156-.313-1.515-.141-.172-.47-.375-1.047-.375-.828 0-1.282.593-1.438.984-.14-.875-.875-.984-1.328-.984-.734 0-1.203.422-1.484 1.047v-1.047l-1.407.11v.312c.704 0 .782.062.782.562zm0 0"/></symbol><symbol id="k" overflow="visible"><path d="m1.719-3.75v-.656l-1.438.11v.312c.703 0 .781.062.781.5v4.656c0 .453-.109.453-.78.453v.313c.343-.016.859-.032 1.109-.032.28 0 .78.016 1.125.032v-.313c-.657 0-.766 0-.766-.453v-1.766c.047.172.469.703 1.219.703 1.187 0 2.219-.984 2.219-2.265 0-1.266-.954-2.25-2.079-2.25-.78 0-1.203.437-1.39.656zm.031 2.61v-2.22c.281-.515.766-.796 1.281-.796.735 0 1.328.875 1.328 2 .001 1.203-.687 2.046-1.421 2.046-.407 0-.782-.204-1.047-.61-.141-.203-.141-.219-.141-.422zm0 0"/></symbol><symbol id="l" overflow="visible"><path d="m1.766-6.922-1.438.11v.312c.703 0 .781.063.781.563v5.187c0 .438-.109.438-.78.438v.312c.327-.016.859-.031 1.109-.031s.734.015 1.109.031v-.313c-.672 0-.781 0-.781-.437zm0 0"/></symbol><symbol id="m" overflow="visible"><path d="m1.11-2.516c.061-1.484.905-1.734 1.25-1.734 1.015 0 1.124 1.344 1.124 1.734zm0 .22h2.78c.22 0 .25 0 .25-.22 0-.984-.546-1.953-1.78-1.953-1.158 0-2.08 1.032-2.08 2.282.001 1.327 1.048 2.295 2.19 2.295 1.218.002 1.67-1.108 1.67-1.295 0-.094-.079-.125-.141-.125-.078 0-.11.062-.125.14-.343 1.032-1.249 1.032-1.343 1.032-.5 0-.89-.296-1.125-.671-.297-.47-.297-1.125-.297-1.485zm0 0"/></symbol><symbol id="n" overflow="visible"><path d="m3.781-.547v.657l1.469-.11v-.313c-.688 0-.781-.062-.781-.562v-6.047l-1.422.11v.312c.687 0 .765.063.765.563v2.156a1.582 1.582 0 0 0 -1.25-.625c-1.171 0-2.218.984-2.218 2.265 0 1.266.969 2.25 2.11 2.25.64 0 1.077-.343 1.327-.656zm0-2.672v2.047c0 .172 0 .188-.11.36-.296.484-.733.703-1.171.703-.453 0-.813-.266-1.047-.641-.25-.406-.281-.969-.281-1.39 0-.36.016-.954.297-1.407.218-.312.593-.64 1.14-.64.344 0 .766.156 1.063.593.11.172.11.188.11.375zm0 0"/></symbol><symbol id="o" overflow="visible"><path d="m1.75-4.297v-1.156c0-.875.469-1.36.906-1.36.031 0 .188 0 .328.079a.443.443 0 0 0 -.296.421c0 .22.156.422.437.422s.438-.203.438-.437c0-.375-.376-.703-.907-.703-.687 0-1.547.531-1.547 1.593v1.141h-.779v.313h.78v3.234c0 .438-.109.438-.765.438v.312c.39-.016.86-.031 1.125-.031.406 0 .875 0 1.265.031v-.313h-.203c-.734 0-.75-.109-.75-.468v-3.203h1.125v-.313zm0 0"/></symbol><symbol id="p" overflow="visible"><path d="m3.89-.781v.89l1.439-.109v-.313c-.687 0-.766-.062-.766-.562v-3.531l-1.468.11v.312c.687 0 .781.062.781.562v1.766c0 .875-.484 1.547-1.219 1.547-.828 0-.875-.47-.875-.985v-3.312l-1.468.11v.312c.78 0 .78.03.78.906v1.5c0 .781 0 1.687 1.516 1.687.563 0 1-.28 1.282-.89zm0 0"/></symbol><symbol id="q" overflow="visible"><path d="m1.719-3.766v-3.156l-1.438.11v.312c.703 0 .781.063.781.563v5.937h.25c0-.016.079-.156.36-.625.14.234.562.734 1.297.734 1.187 0 2.219-.984 2.219-2.265 0-1.266-.97-2.25-2.11-2.25-.781 0-1.203.468-1.36.64zm.031 2.626v-2.046c0-.188 0-.204.11-.36.39-.562.937-.64 1.171-.64.453 0 .813.265 1.047.64.266.406.281.969.281 1.39 0 .36-.015.954-.296 1.407-.22.313-.594.64-1.125.64-.454 0-.813-.234-1.047-.609-.141-.203-.141-.234-.141-.422zm0 0"/></symbol><symbol id="r" overflow="visible"><path d="m2.938-6.375c0-.25 0-.266-.235-.266-.625.641-1.5.641-1.812.641v.313c.203 0 .78 0 1.296-.266v5.172c0 .36-.03.469-.921.469h-.313v.312c.344-.031 1.203-.031 1.61-.031.39 0 1.265 0 1.609.031v-.313h-.313c-.906 0-.921-.109-.921-.468zm0 0"/></symbol><symbol id="s" overflow="visible"><path d="m1.266-.766 1.062-1.03c1.547-1.376 2.14-1.907 2.14-2.907 0-1.14-.89-1.938-2.109-1.938a1.843 1.843 0 0 0 -1.859 1.813c0 .547.5.547.531.547.172 0 .516-.11.516-.532a.513.513 0 0 0 -.531-.515c-.079 0-.094 0-.125.016.218-.657.765-1.016 1.343-1.016.907 0 1.329.812 1.329 1.625 0 .797-.485 1.578-1.047 2.203l-1.907 2.125c-.109.11-.109.14-.109.375h3.703l.266-1.734h-.235c-.062.296-.124.734-.234.89-.063.078-.719.078-.938.078zm0 0"/></symbol><symbol id="t" overflow="visible"><path d="m4.688-2.14c0-1.266-.985-2.329-2.188-2.329-1.25 0-2.219 1.094-2.219 2.329a2.22 2.22 0 0 0 2.203 2.25c1.204 0 2.204-.984 2.204-2.25zm-2.188 2c-.438 0-.875-.204-1.14-.672-.25-.438-.25-1.047-.25-1.407 0-.39 0-.922.234-1.36a1.347 1.347 0 0 1 1.14-.671c.438 0 .86.219 1.125.656.266.422.266 1 .266 1.375 0 .36 0 .906-.219 1.344-.234.453-.672.734-1.156.734zm0 0"/></symbol><symbol id="u" overflow="visible"><path d="m2.094-4.406-1.516.11v.312c.766 0 .86.062.86.562v3.938c0 .453-.094 1.312-.735 1.312-.047 0-.281 0-.531-.14a.446.446 0 0 0 .344-.438c0-.266-.172-.469-.454-.469a.451.451 0 0 0 -.468.469c0 .516.562.797 1.14.797.735 0 1.36-.64 1.36-1.547zm0-1.735a.527.527 0 0 0 -.531-.53.537.537 0 0 0 -.532.53c0 .282.25.532.532.532.296 0 .53-.25.53-.532zm0 0"/></symbol><symbol id="v" overflow="visible"><path d="m4.14-3.344c.25-.64.766-.64.923-.64v-.313c-.235.016-.516.031-.75.031-.172 0-.641-.015-.86-.03v.312c.313 0 .469.171.469.421 0 .11-.016.126-.063.25l-1.015 2.439-1.094-2.673c-.047-.11-.063-.14-.063-.187 0-.25.36-.25.563-.25v-.313c-.266.016-.922.031-1.094.031-.265 0-.672-.015-.968-.03v.312c.484 0 .671 0 .812.343l1.5 3.641a6.764 6.764 0 0 0 -.25.594c-.219.547-.5 1.234-1.14 1.234-.048 0-.282 0-.47-.187.313-.032.391-.25.391-.422 0-.25-.187-.407-.421-.407-.203 0-.421.125-.421.422 0 .454.421.813.921.813.625 0 1.032-.578 1.266-1.14zm0 0"/></symbol><symbol id="w" overflow="visible"><path d="m4.14-3.313c.094-.234.266-.671.923-.671v-.313c-.235.016-.516.031-.75.031-.235 0-.688-.015-.86-.03v.312c.36 0 .469.234.469.421 0 .094-.016.141-.047.25l-1.031 2.533-1.11-2.781c-.062-.126-.062-.141-.062-.172 0-.25.39-.25.578-.25v-.313c-.313.016-.86.031-1.094.031-.265 0-.672-.015-.968-.03v.312c.625 0 .671.062.796.359l1.438 3.546c.062.14.078.187.203.187.14 0 .172-.093.219-.187zm0 0"/></symbol><symbol id="x" overflow="visible"><path d="m1.172-2.172c0-1.625.812-2.047 1.344-2.047.093 0 .718.016 1.062.375-.406.031-.469.328-.469.453 0 .266.188.454.454.454.265 0 .468-.157.468-.47 0-.671-.765-1.062-1.531-1.062-1.25 0-2.156 1.079-2.156 2.313 0 1.281.984 2.265 2.14 2.265 1.329 0 1.657-1.203 1.657-1.296 0-.094-.11-.094-.141-.094-.078 0-.11.031-.125.093-.281.923-.938 1.048-1.297 1.048-.531 0-1.406-.421-1.406-2.03zm0 0"/></symbol><symbol id="y" overflow="visible"><path d="m3.297-3.984c.453 0 .515.125.515.53v2.704c0 .438-.109.438-.765.438v.312c.328-.016.844-.031 1.094-.031s.75.015 1.109.031v-.313c-.672 0-.781 0-.781-.437v-3.672l-1.25.094c-.156.016-.172.016-.172.016-.031.015-.047.015-.188.015h-1.171v-1.125c0-.984.859-1.39 1.468-1.39.297 0 .656.109.86.328-.407.03-.47.296-.47.468 0 .329.267.454.454.454.234 0 .453-.157.453-.454 0-.593-.547-1.015-1.281-1.015-.922 0-2.11.515-2.11 1.593v1.141h-.796v.313h.796v3.234c0 .438-.109.438-.78.438v.312c.327-.016.859-.031 1.109-.031s.734.015 1.109.031v-.313c-.672 0-.781 0-.781-.437v-3.234zm0 0"/></symbol><symbol id="z" overflow="visible"><path d="m3.828-1.063a1.06 1.06 0 0 0 -1.062-1.046c-.579 0-1.047.468-1.047 1.046a1.06 1.06 0 0 0 1.047 1.063c.578 0 1.062-.484 1.062-1.063zm0 0"/></symbol><symbol id="A" overflow="visible"><path d="m.875-.594c-.031.156-.094.39-.094.438 0 .172.14.265.297.265a.414.414 0 0 0 .375-.28c0-.016.125-.485.188-.735l.218-.89c.047-.235.11-.454.172-.673.031-.172.11-.469.125-.5.14-.312.672-1.219 1.625-1.219.453 0 .531.375.531.704 0 .609-.484 1.89-.64 2.312-.094.234-.11.36-.11.469 0 .469.36.812.829.812.937 0 1.296-1.453 1.296-1.53 0-.11-.078-.11-.109-.11-.11 0-.11.031-.156.187-.203.672-.531 1.235-1.016 1.235-.172 0-.234-.094-.234-.329 0-.25.078-.484.172-.703.187-.53.61-1.625.61-2.203 0-.656-.423-1.062-1.141-1.062-.907 0-1.391.64-1.563.875-.047-.563-.453-.875-.922-.875-.453 0-.64.39-.734.562-.172.344-.297.938-.297.969 0 .11.094.11.11.11.109 0 .109-.016.171-.235.172-.703.375-1.188.735-1.188.187 0 .296.125.296.454 0 .218-.03.328-.156.843zm0 0"/></symbol><clipPath id="B"><path d="m373 105h122.93v158h-122.93zm0 0"/></clipPath><clipPath id="C"><path d="m217 337h62v21.918h-62zm0 0"/></clipPath><path d="m30.8 8.358h-61.602a3.986 3.986 0 0 1 -3.984-3.985v-8.746a3.986 3.986 0 0 1 3.984-3.984h61.602a3.987 3.987 0 0 1 3.988 3.984v8.746c0 2.2-1.785 3.985-3.988 3.985zm0 0" fill="#fff" stroke="#000" stroke-miterlimit="10" stroke-width=".3985" transform="matrix(1 0 0 -1 251.915 8.557)"/><use x="221.114" xlink:href="#a" y="10.992"/><g><use x="227.482" xlink:href="#b" y="10.992"/><use x="231.384" xlink:href="#c" y="10.992"/><use x="236.366" xlink:href="#d" y="10.992"/><use x="239.133" xlink:href="#e" y="10.992"/><use x="244.669" xlink:href="#d" y="10.992"/><use x="247.436" xlink:href="#e" y="10.992"/><use x="252.971" xlink:href="#f" y="10.992"/></g><g><use x="261.27" xlink:href="#g" y="10.992"/><use x="268.881" xlink:href="#c" y="10.992"/><use x="273.862" xlink:href="#h" y="10.992"/><use x="277.736" xlink:href="#c" y="10.992"/></g><path d="m59.956 46.915h-119.914a3.987 3.987 0 0 1 -3.984-3.989v-8.855c0-2.2 1.785-3.984 3.984-3.984h119.914a3.984 3.984 0 0 1 3.984 3.984v8.855a3.984 3.984 0 0 1 -3.984 3.989zm0 0" fill="#fff" stroke="#000" stroke-miterlimit="10" stroke-width=".3985" transform="matrix(1 0 0 -1 251.915 94.114)"/><g><use x="191.959" xlink:href="#i" y="58.104"/><use x="195.888" xlink:href="#c" y="58.104"/><use x="200.87" xlink:href="#j" y="58.104"/><use x="209.171" xlink:href="#k" y="58.104"/><use x="214.707" xlink:href="#l" y="58.104"/><use x="217.474" xlink:href="#m" y="58.104"/></g><g><use x="225.219" xlink:href="#c" y="58.104"/><use x="230.2" xlink:href="#e" y="58.104"/><use x="235.736" xlink:href="#n" y="58.104"/></g><g><use x="244.598" xlink:href="#o" y="58.104"/><use x="247.643" xlink:href="#m" y="58.104"/><use x="252.07" xlink:href="#c" y="58.104"/><use x="257.052" xlink:href="#h" y="58.104"/><use x="260.926" xlink:href="#p" y="58.104"/><use x="266.461" xlink:href="#b" y="58.104"/><use x="270.364" xlink:href="#m" y="58.104"/></g><g><use x="278.109" xlink:href="#q" y="58.104"/><use x="283.644" xlink:href="#c" y="58.104"/><use x="288.625" xlink:href="#f" y="58.104"/><use x="293.606" xlink:href="#f" y="58.104"/><use x="298.588" xlink:href="#d" y="58.104"/><use x="301.355" xlink:href="#e" y="58.104"/><use x="306.891" xlink:href="#f" y="58.104"/></g><path d="m71.945 121.7a5.636 5.636 0 1 0 -11.273-.001 5.636 5.636 0 0 0 11.273 0zm0 0" fill="#ff4c4c"/><path d="m32.45 163.258a5.636 5.636 0 1 0 -11.27 0 5.636 5.636 0 1 0 11.27 0zm-15.798 41.558a5.636 5.636 0 1 0 -11.273 0 5.633 5.633 0 0 0 5.637 5.633 5.633 5.633 0 0 0 5.636-5.633zm31.598 0a5.636 5.636 0 1 0 -11.273 0 5.633 5.633 0 0 0 5.636 5.633 5.633 5.633 0 0 0 5.637-5.633zm0 0" fill="#8080ff"/><path d="m111.441 163.258a5.636 5.636 0 1 0 -11.272 0 5.636 5.636 0 0 0 11.272 0zm0 0" fill="#ff4c4c"/><path d="m79.844 204.816a5.636 5.636 0 1 0 -11.274 0 5.633 5.633 0 0 0 5.637 5.633 5.633 5.633 0 0 0 5.637-5.633zm-15.797 41.559a5.636 5.636 0 1 0 -11.273 0 5.636 5.636 0 0 0 11.273 0zm31.593 0a5.636 5.636 0 1 0 -11.269 0 5.636 5.636 0 1 0 11.27 0zm0 0" fill="#8080ff"/><path d="m143.035 204.816a5.636 5.636 0 1 0 -11.268-.002 5.636 5.636 0 0 0 11.268.002zm-15.797 41.559a5.636 5.636 0 1 0 -11.273 0 5.636 5.636 0 0 0 11.273 0zm0 0" fill="#ff4c4c"/><path d="m158.836 246.375a5.636 5.636 0 1 0 -11.273 0 5.636 5.636 0 0 0 11.273 0zm0 0" fill="#8080ff"/><path d="m253.621 121.7a5.636 5.636 0 1 0 -11.27 0 5.636 5.636 0 1 0 11.27 0zm-31.594 41.558a5.636 5.636 0 1 0 -11.273 0 5.636 5.636 0 0 0 11.273 0zm0 0" fill="#ff4c4c"/><path d="m206.227 204.816a5.636 5.636 0 1 0 -11.272-.002 5.636 5.636 0 0 0 11.272.002zm-15.797 41.559a5.636 5.636 0 1 0 -11.273 0 5.636 5.636 0 0 0 11.273 0zm31.597 0a5.636 5.636 0 1 0 -11.273 0 5.636 5.636 0 0 0 11.273 0zm0 0" fill="#8080ff"/><path d="m237.824 204.816a5.636 5.636 0 1 0 -11.273 0 5.633 5.633 0 0 0 5.637 5.633 5.633 5.633 0 0 0 5.636-5.633zm0 0" fill="#ff4c4c"/><path d="m285.219 163.258a5.636 5.636 0 1 0 -11.273 0 5.636 5.636 0 0 0 11.273 0zm-15.797 41.558a5.636 5.636 0 1 0 -11.274 0 5.633 5.633 0 0 0 5.637 5.633 5.633 5.633 0 0 0 5.637-5.633zm31.594 0a5.636 5.636 0 1 0 -11.274 0 5.633 5.633 0 0 0 5.637 5.633 5.633 5.633 0 0 0 5.637-5.633zm-15.797 41.559a5.636 5.636 0 1 0 -11.273 0 5.636 5.636 0 0 0 11.273 0zm31.594 0a5.636 5.636 0 1 0 -11.27 0 5.636 5.636 0 1 0 11.27 0zm0 0" fill="#8080ff"/><use x="341.092" xlink:href="#z" y="182.526"/><use x="349.955" xlink:href="#z" y="182.526"/><use x="358.798" xlink:href="#z" y="182.526"/><path d="m443.156 121.7a5.636 5.636 0 0 0 -5.636-5.638 5.633 5.633 0 0 0 -5.633 5.637 5.633 5.633 0 0 0 5.633 5.637 5.636 5.636 0 0 0 5.636-5.637zm0 0" fill="#ff4c4c"/><path d="m411.563 163.258a5.636 5.636 0 1 0 -11.273 0 5.636 5.636 0 0 0 11.272 0zm-15.801 41.558a5.636 5.636 0 1 0 -11.272-.002 5.636 5.636 0 0 0 11.272.002zm31.598 0a5.636 5.636 0 1 0 -11.274 0 5.633 5.633 0 0 0 5.637 5.633 5.633 5.633 0 0 0 5.636-5.633zm0 0" fill="#8080ff"/><path d="m474.754 163.258a5.636 5.636 0 1 0 -11.273 0 5.636 5.636 0 0 0 11.273 0zm-15.797 41.558a5.636 5.636 0 1 0 -11.273 0 5.633 5.633 0 0 0 5.636 5.633 5.633 5.633 0 0 0 5.637-5.633zm0 0" fill="#ff4c4c"/><path d="m443.156 246.375a5.636 5.636 0 0 0 -5.636-5.637 5.633 5.633 0 0 0 -5.633 5.637 5.633 5.633 0 0 0 5.633 5.637 5.636 5.636 0 0 0 5.636-5.637zm0 0" fill="#8080ff"/><path d="m474.754 246.375a5.636 5.636 0 1 0 -11.273 0 5.636 5.636 0 0 0 11.273 0zm0 0" fill="#ff4c4c"/><path d="m490.55 204.816a5.636 5.636 0 1 0 -11.273 0 5.633 5.633 0 0 0 5.637 5.633 5.633 5.633 0 0 0 5.637-5.633zm0 0" fill="#8080ff"/><path d="m0-8.556v-29.89m-189.63-78.927-31.453-33.097m-6.094-9.688-11.652-30.648m15.797 30.648 11.652-30.648m29.79 73.433 31.456-33.097" fill="none" stroke="#000" stroke-miterlimit="10" stroke-width=".3985" transform="matrix(1 0 0 -1 251.915 8.557)"/><path d="m98.719 148.77-1.735-5.676-.074 3.004-15.383-16.184-.765.727 15.383 16.183-3.008-.074zm0 0" fill="#f00"/><path d="m-149.645-159.345-24.532-32.27m-5.605-10.101-11.653-30.649m15.797 30.649 11.653-30.649m21.405 73.02 24.532-32.27" fill="none" stroke="#000" stroke-miterlimit="10" stroke-width=".3985" transform="matrix(1 0 0 -1 251.915 8.557)"/><path d="m133.496 191.68-1.098-5.832-.406 2.976-13.512-17.773-.84.64 13.512 17.774-2.98-.406zm0 0" fill="#f00"/><path d="m-116.59-201.716-11.65-30.649" fill="none" stroke="#000" stroke-miterlimit="10" stroke-width=".3985" transform="matrix(1 0 0 -1 251.915 8.557)"/><path d="m120.25 236.293 4.363-4.02-2.742 1.23 7.934-20.87-.985-.375-7.933 20.87-1.235-2.741zm0 0" fill="#f00"/><path d="m-112.442-201.716 11.648-30.649m93.332 114.578-24.531-32.27" fill="none" stroke="#000" stroke-miterlimit="10" stroke-width=".3985" transform="matrix(1 0 0 -1 251.915 8.557)"/><path d="m220.29 150.121 5.323-2.621-2.976.406 13.511-17.773-.84-.64-13.511 17.773-.406-2.977zm0 0" fill="#f00"/><path d="m-37.599-160.158-11.652-30.648m-4.144-10.91-11.653-30.649m15.798 30.649 11.651-30.649m4.145 72.207 11.652-30.648" fill="none" stroke="#000" stroke-miterlimit="10" stroke-width=".3985" transform="matrix(1 0 0 -1 251.915 8.557)"/><path d="m233.54 194.734.593-5.906-1.23 2.742-7.934-20.87-.989.374 7.934 20.871-2.742-1.23zm0 0" fill="#f00"/><path d="m-.4-117.787 24.536-32.27m1.457-10.101-11.653-30.648m15.801 30.648 11.653-30.648m0-10.91-11.654-30.649m15.798 30.649 11.652-30.649m124.887 114.578-24.531-32.27m-5.606-10.101-11.652-30.648m15.797 30.648 11.652-30.648m21.403 73.019 24.535-32.27" fill="none" stroke="#000" stroke-miterlimit="10" stroke-width=".3985" transform="matrix(1 0 0 -1 251.915 8.557)"/><path d="m465.219 150.121-1.098-5.832-.406 2.977-13.516-17.774-.84.64 13.512 17.774-2.976-.406zm0 0" fill="#f00"/><path d="m215.132-160.158-11.652-30.648" fill="none" stroke="#000" stroke-miterlimit="10" stroke-width=".3985" transform="matrix(1 0 0 -1 251.915 8.557)"/><path d="m461.031 198.176 4.367-4.02-2.742 1.235 7.934-20.871-.988-.375-7.934 20.87-1.23-2.742zm0 0" fill="#f00"/><path d="m199.331-201.716-11.648-30.649m15.797 30.649 11.652-30.649" fill="none" stroke="#000" stroke-miterlimit="10" stroke-width=".3985" transform="matrix(1 0 0 -1 251.915 8.557)"/><path d="m470.473 236.293.593-5.906-1.23 2.742-7.934-20.871-.988.375 7.934 20.87-2.743-1.23zm0 0" fill="#f00"/><path d="m219.276-160.158 11.653-30.648m-322.817 88.48h-155.847a3.986 3.986 0 0 1 -3.985-3.984v-138.344c0-2.2 1.785-3.984 3.985-3.984h155.847a3.984 3.984 0 0 1 3.985 3.984v138.344a3.984 3.984 0 0 1 -3.985 3.984zm157.985 0h-140.051a3.986 3.986 0 0 1 -3.984-3.984v-138.344c0-2.2 1.785-3.984 3.984-3.984h140.05c2.2 0 3.985 1.785 3.985 3.984v138.344a3.986 3.986 0 0 1 -3.984 3.984zm0 0" fill="none" stroke="#000" stroke-miterlimit="10" stroke-width=".3985" transform="matrix(1 0 0 -1 251.915 8.557)"/><g clip-path="url(#B)"><path d="m239.835-102.326h-108.453a3.986 3.986 0 0 1 -3.985-3.984v-138.344c0-2.2 1.786-3.984 3.985-3.984h108.453c2.2 0 3.984 1.785 3.984 3.984v138.344a3.986 3.986 0 0 1 -3.984 3.984zm0 0" fill="none" stroke="#000" stroke-miterlimit="10" stroke-width=".3985" transform="matrix(1 0 0 -1 251.915 8.557)"/></g><use x="3.722" xlink:href="#a" y="121.212"/><g><use x="10.09" xlink:href="#b" y="121.212"/><use x="13.992" xlink:href="#m" y="121.212"/><use x="18.42" xlink:href="#m" y="121.212"/></g><use x="26.165" xlink:href="#r" y="121.212"/><use x="177.5" xlink:href="#a" y="121.212"/><g><use x="183.868" xlink:href="#b" y="121.212"/><use x="187.77" xlink:href="#m" y="121.212"/><use x="192.198" xlink:href="#m" y="121.212"/></g><use x="199.943" xlink:href="#s" y="121.212"/><use x="382.833" xlink:href="#a" y="121.212"/><g><use x="389.201" xlink:href="#b" y="121.212"/><use x="393.103" xlink:href="#m" y="121.212"/><use x="397.531" xlink:href="#m" y="121.212"/></g><use x="405.276" xlink:href="#A" y="121.212"/><path d="m108.05-288.888h-223.996a3.984 3.984 0 0 1 -3.989-3.985v-7.523a3.988 3.988 0 0 1 3.989-3.988h223.996c2.2 0 3.984 1.785 3.984 3.988v7.523a3.984 3.984 0 0 1 -3.984 3.985zm0 0" fill="none" stroke="#000" stroke-miterlimit="10" stroke-width=".3985" transform="matrix(1 0 0 -1 251.915 8.557)"/><g><use x="135.304" xlink:href="#j" y="307.679"/><use x="143.606" xlink:href="#m" y="307.679"/><use x="148.033" xlink:href="#c" y="307.679"/><use x="153.015" xlink:href="#e" y="307.679"/></g><g><use x="161.867" xlink:href="#d" y="307.679"/><use x="164.635" xlink:href="#e" y="307.679"/></g><g><use x="173.498" xlink:href="#b" y="307.679"/><use x="177.4" xlink:href="#m" y="307.679"/><use x="181.827" xlink:href="#f" y="307.679"/><use x="186.809" xlink:href="#b" y="307.679"/><use x="190.711" xlink:href="#m" y="307.679"/><use x="195.138" xlink:href="#i" y="307.679"/><use x="199.068" xlink:href="#i" y="307.679"/><use x="202.997" xlink:href="#d" y="307.679"/><use x="205.764" xlink:href="#t" y="307.679"/><use x="210.746" xlink:href="#e" y="307.679"/></g><g><use x="219.599" xlink:href="#t" y="307.679"/><use x="224.58" xlink:href="#b" y="307.679"/></g><g><use x="231.8" xlink:href="#j" y="307.679"/><use x="240.102" xlink:href="#c" y="307.679"/></g><g><use x="245.641" xlink:href="#u" y="307.679"/><use x="248.685" xlink:href="#t" y="307.679"/><use x="253.667" xlink:href="#b" y="307.679"/><use x="257.569" xlink:href="#d" y="307.679"/><use x="260.337" xlink:href="#h" y="307.679"/></g><use x="263.932" xlink:href="#v" y="307.679"/><use x="272.508" xlink:href="#w" y="307.679"/><g><use x="277.497" xlink:href="#t" y="307.679"/><use x="282.479" xlink:href="#h" y="307.679"/><use x="286.353" xlink:href="#m" y="307.679"/></g><g><use x="294.098" xlink:href="#d" y="307.679"/><use x="296.865" xlink:href="#e" y="307.679"/></g><g><use x="305.718" xlink:href="#x" y="307.679"/><use x="310.146" xlink:href="#l" y="307.679"/><use x="312.913" xlink:href="#c" y="307.679"/><use x="317.895" xlink:href="#i" y="307.679"/><use x="321.824" xlink:href="#i" y="307.679"/><use x="325.753" xlink:href="#d" y="307.679"/><use x="328.521" xlink:href="#y" y="307.679"/><use x="334.056" xlink:href="#x" y="307.679"/><use x="338.483" xlink:href="#c" y="307.679"/><use x="343.465" xlink:href="#h" y="307.679"/><use x="347.339" xlink:href="#d" y="307.679"/><use x="350.107" xlink:href="#t" y="307.679"/><use x="355.088" xlink:href="#e" y="307.679"/></g><g clip-path="url(#C)"><path d="m17.26-334.67h-42.42a3.984 3.984 0 0 1 -3.984-3.984v-7.527a3.981 3.981 0 0 1 3.984-3.985h42.42a3.984 3.984 0 0 1 3.988 3.985v7.527c0 2.2-1.785 3.984-3.988 3.984zm0 0" fill="none" stroke="#000" stroke-miterlimit="10" stroke-width=".3985" transform="matrix(1 0 0 -1 251.915 8.557)"/></g><g><use x="226.089" xlink:href="#k" y="353.462"/><use x="231.624" xlink:href="#b" y="353.462"/><use x="235.527" xlink:href="#m" y="353.462"/><use x="239.954" xlink:href="#n" y="353.462"/><use x="245.489" xlink:href="#d" y="353.462"/><use x="248.257" xlink:href="#x" y="353.462"/><use x="252.684" xlink:href="#h" y="353.462"/><use x="256.559" xlink:href="#d" y="353.462"/><use x="259.326" xlink:href="#t" y="353.462"/><use x="264.308" xlink:href="#e" y="353.462"/></g><path d="m-37.33-59.166-117.105-37.976" fill="none" stroke="#000" stroke-miterlimit="10" stroke-width=".3985" transform="matrix(1 0 0 -1 251.915 8.557)"/><path d="m95.586 106.313 3.523.53-1.629-1.144.649-1.886"/><path d="m-.817-58.498-2.77-38.812" fill="none" stroke="#000" stroke-miterlimit="10" stroke-width=".3985" transform="matrix(1 0 0 -1 251.915 8.557)"/><path d="m248.188 107.855 1.816-3.066-1.676 1.078-1.504-1.305"/><path d="m39.882-58.896 130.23-38.633" fill="none" stroke="#000" stroke-miterlimit="10" stroke-width=".3985" transform="matrix(1 0 0 -1 251.915 8.557)"/><path d="m423.938 106.652-2.606-2.433.695 1.867-1.601 1.187"/><path d="m-156.192-252.76 109.152-31.453" fill="none" stroke="#000" stroke-miterlimit="10" stroke-width=".3985" transform="matrix(1 0 0 -1 251.915 8.557)"/><path d="m206.79 293.32-2.626-2.414.711 1.864-1.59 1.199"/><path d="m-3.93-251.67-.012-32.191" fill="none" stroke="#000" stroke-miterlimit="10" stroke-width=".3985" transform="matrix(1 0 0 -1 251.915 8.557)"/><path d="m247.969 294.41 1.597-3.187-1.593 1.195-1.594-1.195"/><path d="m171.866-252.302-128.644-32.434" fill="none" stroke="#000" stroke-miterlimit="10" stroke-width=".3985" transform="matrix(1 0 0 -1 251.915 8.557)"/><path d="m293.203 293.781 3.48.766-1.546-1.254.77-1.836"/><path d="m-3.95-307.416v-22.226" fill="none" stroke="#000" stroke-miterlimit="10" stroke-width=".3985" transform="matrix(1 0 0 -1 251.915 8.557)"/><path d="m247.965 340.195 1.594-3.191-1.594 1.195-1.594-1.195"/></svg>