<svg xmlns="http://www.w3.org/2000/svg" xmlns:xlink="http://www.w3.org/1999/xlink" width="661.241" height="478.559" viewBox="0 0 495.931 358.919"><defs><symbol overflow="visible" id="a"><path d="M6.64-6.75H.548L.359-4.5h.25C.75-6.11.891-6.438 2.406-6.438c.172 0 .438 0 .531.016.22.047.22.156.22.375V-.78c0 .328 0 .469-1.048.469h-.406V0c.406-.031 1.422-.031 1.89-.031.454 0 1.485 0 1.891.031v-.313h-.406c-1.047 0-1.047-.14-1.047-.468v-5.266c0-.187 0-.328.188-.375.11-.016.375-.016.562-.016 1.516 0 1.657.329 1.797 1.938h.25zm0 0"/></symbol><symbol overflow="visible" id="b"><path d="M1.672-3.313v-1.093l-1.39.11v.312c.702 0 .78.062.78.562V-.75c0 .438-.109.438-.78.438V0c.39-.016.859-.031 1.14-.031.39 0 .86 0 1.266.031v-.313h-.22c-.734 0-.75-.109-.75-.468v-1.531c0-.985.423-1.876 1.173-1.876.062 0 .093 0 .109.016-.031 0-.234.125-.234.39 0 .266.218.423.437.423a.421.421 0 0 0 .422-.438c0-.312-.313-.61-.734-.61-.735 0-1.094.673-1.22 1.095zm0 0"/></symbol><symbol overflow="visible" id="c"><path d="M3.313-.75c.046.39.312.813.78.813.22 0 .829-.141.829-.954v-.562h-.25v.562c0 .579-.25.641-.36.641-.328 0-.375-.453-.375-.5v-1.984c0-.422 0-.813-.359-1.188-.39-.39-.89-.547-1.36-.547-.827 0-1.515.469-1.515 1.125 0 .297.203.469.469.469a.435.435 0 0 0 .453-.453c0-.125-.047-.453-.516-.453.282-.36.766-.469 1.079-.469.5 0 1.062.39 1.062 1.281v.36c-.516.03-1.203.062-1.828.359-.75.344-1 .86-1 1.297 0 .812.969 1.062 1.594 1.062.656 0 1.109-.406 1.296-.859zM3.25-2.39v1c0 .937-.719 1.28-1.172 1.28-.484 0-.89-.343-.89-.843 0-.547.421-1.375 2.062-1.438zm0 0"/></symbol><symbol overflow="visible" id="d"><path d="M1.766-4.406l-1.391.11v.312c.64 0 .734.062.734.546V-.75c0 .438-.109.438-.78.438V0c.312-.016.859-.031 1.093-.031.36 0 .703.015 1.047.031v-.313c-.672 0-.703-.046-.703-.437zm.03-1.735a.514.514 0 0 0-.515-.53.537.537 0 0 0-.531.53c0 .266.219.532.531.532a.514.514 0 0 0 .516-.532zm0 0"/></symbol><symbol overflow="visible" id="e"><path d="M1.094-3.422V-.75c0 .438-.11.438-.782.438V0c.36-.016.86-.031 1.141-.031.25 0 .766.015 1.11.031v-.313c-.672 0-.782 0-.782-.437v-1.844c0-1.031.719-1.594 1.344-1.594.64 0 .75.532.75 1.11V-.75c0 .438-.11.438-.781.438V0c.344-.016.86-.031 1.125-.031.25 0 .781.015 1.11.031v-.313c-.516 0-.766 0-.766-.296v-1.907c0-.859 0-1.156-.313-1.515-.14-.172-.469-.375-1.047-.375-.734 0-1.203.422-1.484 1.047v-1.047l-1.407.11v.312c.704 0 .782.062.782.562zm0 0"/></symbol><symbol overflow="visible" id="f"><path d="M2.219-1.719c-.875 0-.875-1-.875-1.218 0-.266.015-.594.156-.844.078-.11.313-.39.719-.39.86 0 .86.984.86 1.218 0 .265 0 .594-.157.844-.078.109-.313.39-.703.39zm-1.156.39c0-.03 0-.265.156-.468.39.281.812.313 1 .313.922 0 1.61-.688 1.61-1.454 0-.374-.157-.734-.407-.968.36-.344.719-.39.89-.39.032 0 .079 0 .11.015-.11.031-.172.14-.172.265 0 .172.14.282.297.282a.28.28 0 0 0 .281-.297c0-.172-.11-.485-.5-.485-.203 0-.64.063-1.062.47a1.652 1.652 0 0 0-1.047-.36c-.938 0-1.625.687-1.625 1.453 0 .437.219.812.469 1.031-.125.14-.313.469-.313.828 0 .313.14.688.453.89-.61.157-.922.595-.922.985 0 .719.985 1.266 2.203 1.266 1.172 0 2.204-.5 2.204-1.281 0-.344-.125-.86-.641-1.141-.531-.266-1.11-.266-1.719-.266-.25 0-.672 0-.75-.015-.312-.047-.516-.344-.516-.672zM2.5 1.829C1.484 1.828.797 1.312.797.781c0-.453.375-.828.812-.844h.594c.86 0 1.969 0 1.969.844 0 .547-.703 1.047-1.672 1.047zm0 0"/></symbol><symbol overflow="visible" id="g"><path d="M.344-6.813v.313h.25c.765 0 .781.11.781.469v5.25c0 .36-.016.469-.781.469h-.25V0H4c1.672 0 3.047-1.469 3.047-3.344C7.047-5.25 5.703-6.813 4-6.813zm2.375 6.5c-.469 0-.485-.062-.485-.39v-5.39c0-.345.016-.407.485-.407h1c.625 0 1.312.219 1.812.922.438.594.516 1.453.516 2.234 0 1.094-.188 1.703-.547 2.188a2.192 2.192 0 0 1-1.766.843zm0 0"/></symbol><symbol overflow="visible" id="h"><path d="M1.719-3.984h1.437v-.313H1.72v-1.828h-.25c0 .813-.297 1.875-1.282 1.922v.219h.844v2.75c0 1.218.938 1.343 1.297 1.343.703 0 .985-.703.985-1.343v-.563h-.25v.547c0 .734-.297 1.11-.672 1.11-.672 0-.672-.907-.672-1.079zm0 0"/></symbol><symbol overflow="visible" id="i"><path d="M2.078-1.938c.219.047 1.031.204 1.031.922 0 .5-.343.907-1.125.907-.843 0-1.203-.563-1.39-1.422-.031-.125-.031-.157-.14-.157-.126 0-.126.063-.126.235v1.328c0 .172 0 .234.11.234C.483.11.5.094.688-.094.703-.109.703-.125.89-.312c.437.406.89.421 1.093.421 1.141 0 1.61-.671 1.61-1.39 0-.516-.297-.828-.422-.938-.328-.328-.719-.406-1.14-.484-.563-.11-1.22-.235-1.22-.813 0-.359.25-.765 1.11-.765 1.094 0 1.156.906 1.172 1.203 0 .094.094.094.11.094.14 0 .14-.047.14-.235v-1.015c0-.157 0-.235-.11-.235-.046 0-.078 0-.203.125-.031.032-.125.125-.172.157-.375-.282-.78-.282-.937-.282-1.219 0-1.594.672-1.594 1.235 0 .343.156.625.422.843.328.25.61.313 1.328.454zm0 0"/></symbol><symbol overflow="visible" id="j"><path d="M1.094-3.422V-.75c0 .438-.11.438-.782.438V0c.36-.016.86-.031 1.141-.031.25 0 .766.015 1.11.031v-.313c-.672 0-.782 0-.782-.437v-1.844c0-1.031.719-1.594 1.344-1.594.64 0 .75.532.75 1.11V-.75c0 .438-.11.438-.781.438V0c.344-.016.86-.031 1.125-.031.25 0 .781.015 1.11.031v-.313c-.657 0-.766 0-.766-.437v-1.844c0-1.031.703-1.594 1.343-1.594.625 0 .735.532.735 1.11V-.75c0 .438-.11.438-.782.438V0c.344-.016.86-.031 1.125-.031.266 0 .782.015 1.125.031v-.313c-.515 0-.765 0-.78-.296v-1.907c0-.859 0-1.156-.313-1.515-.141-.172-.47-.375-1.047-.375-.828 0-1.282.593-1.438.984-.14-.875-.875-.984-1.328-.984-.734 0-1.203.422-1.484 1.047v-1.047l-1.407.11v.312c.704 0 .782.062.782.562zm0 0"/></symbol><symbol overflow="visible" id="k"><path d="M1.719-3.75v-.656l-1.438.11v.312c.703 0 .781.062.781.5v4.656c0 .453-.109.453-.78.453v.313c.343-.016.859-.032 1.109-.032.28 0 .78.016 1.125.032v-.313c-.657 0-.766 0-.766-.453V-.594c.047.172.469.703 1.219.703 1.187 0 2.219-.984 2.219-2.265 0-1.266-.954-2.25-2.079-2.25-.78 0-1.203.437-1.39.656zm.031 2.61v-2.22c.281-.515.766-.796 1.281-.796.735 0 1.328.875 1.328 2C4.36-.953 3.672-.11 2.938-.11c-.407 0-.782-.204-1.047-.61-.141-.203-.141-.219-.141-.422zm0 0"/></symbol><symbol overflow="visible" id="l"><path d="M1.766-6.922l-1.438.11v.312c.703 0 .781.063.781.563V-.75c0 .438-.109.438-.78.438V0c.327-.016.859-.031 1.109-.031s.734.015 1.109.031v-.313c-.672 0-.781 0-.781-.437zm0 0"/></symbol><symbol overflow="visible" id="m"><path d="M1.11-2.516C1.171-4 2.015-4.25 2.36-4.25c1.015 0 1.124 1.344 1.124 1.734zm0 .22h2.78c.22 0 .25 0 .25-.22 0-.984-.546-1.953-1.78-1.953C1.202-4.469.28-3.437.28-2.187.281-.86 1.328.108 2.47.108 3.688.11 4.14-1 4.14-1.187c0-.094-.079-.125-.141-.125-.078 0-.11.062-.125.14C3.531-.14 2.625-.14 2.531-.14c-.5 0-.89-.296-1.125-.671-.297-.47-.297-1.125-.297-1.485zm0 0"/></symbol><symbol overflow="visible" id="n"><path d="M3.781-.547V.11L5.25 0v-.313c-.688 0-.781-.062-.781-.562v-6.047l-1.422.11v.312c.687 0 .765.063.765.563v2.156a1.582 1.582 0 0 0-1.25-.625c-1.171 0-2.218.984-2.218 2.265 0 1.266.969 2.25 2.11 2.25.64 0 1.077-.343 1.327-.656zm0-2.672v2.047c0 .172 0 .188-.11.36-.296.484-.733.703-1.171.703-.453 0-.813-.266-1.047-.641-.25-.406-.281-.969-.281-1.39 0-.36.016-.954.297-1.407.218-.312.593-.64 1.14-.64.344 0 .766.156 1.063.593.11.172.11.188.11.375zm0 0"/></symbol><symbol overflow="visible" id="o"><path d="M1.75-4.297v-1.156c0-.875.469-1.36.906-1.36.031 0 .188 0 .328.079a.443.443 0 0 0-.296.421c0 .22.156.422.437.422s.438-.203.438-.437c0-.375-.376-.703-.907-.703-.687 0-1.547.531-1.547 1.593v1.141H.33v.313h.78V-.75c0 .438-.109.438-.765.438V0c.39-.016.86-.031 1.125-.031.406 0 .875 0 1.265.031v-.313h-.203c-.734 0-.75-.109-.75-.468v-3.203h1.125v-.313zm0 0"/></symbol><symbol overflow="visible" id="p"><path d="M3.89-.781v.89L5.329 0v-.313c-.687 0-.766-.062-.766-.562v-3.531l-1.468.11v.312c.687 0 .781.062.781.562v1.766c0 .875-.484 1.547-1.219 1.547-.828 0-.875-.47-.875-.985v-3.312l-1.468.11v.312c.78 0 .78.03.78.906v1.5c0 .781 0 1.687 1.516 1.687.563 0 1-.28 1.282-.89zm0 0"/></symbol><symbol overflow="visible" id="q"><path d="M1.719-3.766v-3.156l-1.438.11v.312c.703 0 .781.063.781.563V0h.25c0-.016.079-.156.36-.625.14.234.562.734 1.297.734 1.187 0 2.219-.984 2.219-2.265 0-1.266-.97-2.25-2.11-2.25-.781 0-1.203.468-1.36.64zM1.75-1.14v-2.046c0-.188 0-.204.11-.36.39-.562.937-.64 1.171-.64.453 0 .813.265 1.047.64.266.406.281.969.281 1.39 0 .36-.015.954-.296 1.407-.22.313-.594.64-1.125.64-.454 0-.813-.234-1.047-.609-.141-.203-.141-.234-.141-.422zm0 0"/></symbol><symbol overflow="visible" id="t"><path d="M2.938-6.375c0-.25 0-.266-.235-.266C2.078-6 1.203-6 .891-6v.313c.203 0 .78 0 1.296-.266v5.172c0 .36-.03.469-.921.469H.953V0c.344-.031 1.203-.031 1.61-.031.39 0 1.265 0 1.609.031v-.313h-.313c-.906 0-.921-.109-.921-.468zm0 0"/></symbol><symbol overflow="visible" id="u"><path d="M1.266-.766l1.062-1.03c1.547-1.376 2.14-1.907 2.14-2.907 0-1.14-.89-1.938-2.109-1.938C1.234-6.64.5-5.719.5-4.828c0 .547.5.547.531.547.172 0 .516-.11.516-.532a.513.513 0 0 0-.531-.515c-.079 0-.094 0-.125.016.218-.657.765-1.016 1.343-1.016.907 0 1.329.812 1.329 1.625 0 .797-.485 1.578-1.047 2.203L.609-.375C.5-.265.5-.235.5 0h3.703l.266-1.734h-.235C4.172-1.438 4.11-1 4-.844c-.063.078-.719.078-.938.078zm0 0"/></symbol><symbol overflow="visible" id="w"><path d="M4.688-2.14c0-1.266-.985-2.329-2.188-2.329C1.25-4.469.281-3.375.281-2.14A2.22 2.22 0 0 0 2.484.11c1.204 0 2.204-.984 2.204-2.25zM2.5-.14c-.438 0-.875-.204-1.14-.672-.25-.438-.25-1.047-.25-1.407 0-.39 0-.922.234-1.36a1.347 1.347 0 0 1 1.14-.671c.438 0 .86.219 1.125.656.266.422.266 1 .266 1.375 0 .36 0 .906-.219 1.344-.234.453-.672.734-1.156.734zm0 0"/></symbol><symbol overflow="visible" id="x"><path d="M2.094-4.406l-1.516.11v.312c.766 0 .86.062.86.562V.516c0 .453-.094 1.312-.735 1.312-.047 0-.281 0-.531-.14a.446.446 0 0 0 .344-.438C.516.984.344.781.062.781a.451.451 0 0 0-.468.469c0 .516.562.797 1.14.797.735 0 1.36-.64 1.36-1.547zm0-1.735a.527.527 0 0 0-.531-.53.537.537 0 0 0-.532.53c0 .282.25.532.532.532.296 0 .53-.25.53-.532zm0 0"/></symbol><symbol overflow="visible" id="y"><path d="M4.14-3.344c.25-.64.766-.64.923-.64v-.313c-.235.016-.516.031-.75.031-.172 0-.641-.015-.86-.03v.312c.313 0 .469.171.469.421 0 .11-.016.126-.063.25L2.844-.874 1.75-3.547c-.047-.11-.063-.14-.063-.187 0-.25.36-.25.563-.25v-.313c-.266.016-.922.031-1.094.031-.265 0-.672-.015-.968-.03v.312c.484 0 .671 0 .812.343L2.5 0a6.764 6.764 0 0 0-.25.594c-.219.547-.5 1.234-1.14 1.234-.048 0-.282 0-.47-.187.313-.032.391-.25.391-.422C1.031.969.844.812.61.812c-.203 0-.421.125-.421.422 0 .454.421.813.921.813.625 0 1.032-.578 1.266-1.14zm0 0"/></symbol><symbol overflow="visible" id="z"><path d="M4.14-3.313c.094-.234.266-.671.923-.671v-.313c-.235.016-.516.031-.75.031-.235 0-.688-.015-.86-.03v.312c.36 0 .469.234.469.421 0 .094-.016.141-.047.25L2.844-.78l-1.11-2.781c-.062-.126-.062-.141-.062-.172 0-.25.39-.25.578-.25v-.313c-.313.016-.86.031-1.094.031-.265 0-.672-.015-.968-.03v.312c.625 0 .671.062.796.359L2.422-.078c.062.14.078.187.203.187.14 0 .172-.093.219-.187zm0 0"/></symbol><symbol overflow="visible" id="A"><path d="M1.172-2.172c0-1.625.812-2.047 1.344-2.047.093 0 .718.016 1.062.375-.406.031-.469.328-.469.453 0 .266.188.454.454.454.265 0 .468-.157.468-.47 0-.671-.765-1.062-1.531-1.062C1.25-4.469.344-3.39.344-2.156c0 1.281.984 2.265 2.14 2.265 1.329 0 1.657-1.203 1.657-1.296 0-.094-.11-.094-.141-.094-.078 0-.11.031-.125.093C3.594-.265 2.937-.14 2.578-.14c-.531 0-1.406-.421-1.406-2.03zm0 0"/></symbol><symbol overflow="visible" id="B"><path d="M3.297-3.984c.453 0 .515.125.515.53V-.75c0 .438-.109.438-.765.438V0c.328-.016.844-.031 1.094-.031.25 0 .75.015 1.109.031v-.313c-.672 0-.781 0-.781-.437v-3.672l-1.25.094c-.156.016-.172.016-.172.016-.031.015-.047.015-.188.015H1.688v-1.125c0-.984.859-1.39 1.468-1.39.297 0 .656.109.86.328-.407.03-.47.296-.47.468 0 .329.267.454.454.454.234 0 .453-.157.453-.454 0-.593-.547-1.015-1.281-1.015-.922 0-2.11.515-2.11 1.593v1.141H.266v.313h.796V-.75c0 .438-.109.438-.78.438V0c.327-.016.859-.031 1.109-.031S2.125-.016 2.5 0v-.313c-.672 0-.781 0-.781-.437v-3.234zm0 0"/></symbol><symbol overflow="visible" id="r"><path d="M3.828-1.063a1.06 1.06 0 0 0-1.062-1.046c-.579 0-1.047.468-1.047 1.046A1.06 1.06 0 0 0 2.766 0c.578 0 1.062-.484 1.062-1.063zm0 0"/></symbol><symbol overflow="visible" id="v"><path d="M.875-.594c-.031.156-.094.39-.094.438 0 .172.14.265.297.265a.414.414 0 0 0 .375-.28c0-.016.125-.485.188-.735l.218-.89c.047-.235.11-.454.172-.673.031-.172.11-.469.125-.5.14-.312.672-1.219 1.625-1.219.453 0 .531.375.531.704 0 .609-.484 1.89-.64 2.312-.094.234-.11.36-.11.469 0 .469.36.812.829.812.937 0 1.296-1.453 1.296-1.53 0-.11-.078-.11-.109-.11-.11 0-.11.031-.156.187-.203.672-.531 1.235-1.016 1.235-.172 0-.234-.094-.234-.329 0-.25.078-.484.172-.703.187-.53.61-1.625.61-2.203 0-.656-.423-1.062-1.141-1.062-.907 0-1.391.64-1.563.875-.047-.563-.453-.875-.922-.875-.453 0-.64.39-.734.562-.172.344-.297.938-.297.969 0 .11.094.11.11.11.109 0 .109-.016.171-.235.172-.703.375-1.188.735-1.188.187 0 .296.125.296.454 0 .218-.03.328-.156.843zm0 0"/></symbol><clipPath id="s"><path d="M373 105h122.93v158H373zm0 0"/></clipPath><clipPath id="C"><path d="M217 337h62v21.918h-62zm0 0"/></clipPath></defs><path d="M282.715.2h-61.602a3.986 3.986 0 0 0-3.984 3.984v8.746c0 2.199 1.785 3.984 3.984 3.984h61.602a3.987 3.987 0 0 0 3.988-3.984V4.184c0-2.2-1.785-3.985-3.988-3.985zm0 0" fill="rgb(100%,100%,100%)" stroke-width="0.3985" stroke="rgb(0%,0%,0%)" stroke-miterlimit="10"/><use xlink:href="#a" x="221.114" y="10.992" fill="rgb(0%,0%,0%)"/><g fill="rgb(0%,0%,0%)"><use xlink:href="#b" x="227.482" y="10.992"/><use xlink:href="#c" x="231.384" y="10.992"/><use xlink:href="#d" x="236.366" y="10.992"/><use xlink:href="#e" x="239.133" y="10.992"/><use xlink:href="#d" x="244.669" y="10.992"/><use xlink:href="#e" x="247.436" y="10.992"/><use xlink:href="#f" x="252.971" y="10.992"/></g><g fill="rgb(0%,0%,0%)"><use xlink:href="#g" x="261.27" y="10.992"/><use xlink:href="#c" x="268.881" y="10.992"/><use xlink:href="#h" x="273.862" y="10.992"/><use xlink:href="#c" x="277.736" y="10.992"/></g><path d="M311.871 47.2H191.957a3.987 3.987 0 0 0-3.984 3.988v8.855c0 2.2 1.785 3.984 3.984 3.984h119.914a3.984 3.984 0 0 0 3.984-3.984v-8.855a3.984 3.984 0 0 0-3.984-3.989zm0 0" fill="rgb(100%,100%,100%)" stroke-width="0.3985" stroke="rgb(0%,0%,0%)" stroke-miterlimit="10"/><g fill="rgb(0%,0%,0%)"><use xlink:href="#i" x="191.959" y="58.104"/><use xlink:href="#c" x="195.888" y="58.104"/><use xlink:href="#j" x="200.87" y="58.104"/><use xlink:href="#k" x="209.171" y="58.104"/><use xlink:href="#l" x="214.707" y="58.104"/><use xlink:href="#m" x="217.474" y="58.104"/></g><g fill="rgb(0%,0%,0%)"><use xlink:href="#c" x="225.219" y="58.104"/><use xlink:href="#e" x="230.2" y="58.104"/><use xlink:href="#n" x="235.736" y="58.104"/></g><g fill="rgb(0%,0%,0%)"><use xlink:href="#o" x="244.598" y="58.104"/><use xlink:href="#m" x="247.643" y="58.104"/><use xlink:href="#c" x="252.07" y="58.104"/><use xlink:href="#h" x="257.052" y="58.104"/><use xlink:href="#p" x="260.926" y="58.104"/><use xlink:href="#b" x="266.461" y="58.104"/><use xlink:href="#m" x="270.364" y="58.104"/></g><g fill="rgb(0%,0%,0%)"><use xlink:href="#q" x="278.109" y="58.104"/><use xlink:href="#c" x="283.644" y="58.104"/><use xlink:href="#f" x="288.625" y="58.104"/><use xlink:href="#f" x="293.606" y="58.104"/><use xlink:href="#d" x="298.588" y="58.104"/><use xlink:href="#e" x="301.355" y="58.104"/><use xlink:href="#f" x="306.891" y="58.104"/></g><path d="M71.945 121.7a5.636 5.636 0 1 0-11.273-.001 5.636 5.636 0 0 0 11.273 0zm0 0" fill="rgb(100%,29.998779%,29.998779%)"/><path d="M32.45 163.258a5.636 5.636 0 0 0-11.27 0 5.636 5.636 0 1 0 11.27 0zM.853 246.374C16.653 201.704 14.13 199.18 11.017 199.18a5.636 5.636 0 0 0-5.637 5.636 5.633 5.633 0 0 0 5.637 5.633 5.633 5.633 0 0 0 5.636-5.633zM112.3 368.075c-15.798 38.445-18.321 35.922-21.435 35.922a5.636 5.636 0 0 0-5.636 5.636 5.633 5.633 0 0 0 5.636 5.633 5.633 5.633 0 0 0 5.637-5.633zm-15.798 41.558" fill="rgb(50%,50%,100%)"/><path d="M111.441 163.258a5.636 5.636 0 1 0-11.272 0 5.636 5.636 0 0 0 11.272 0zm0 0" fill="rgb(100%,29.998779%,29.998779%)"/><path d="M79.844 204.816a5.636 5.636 0 1 0-11.274 0 5.633 5.633 0 0 0 5.637 5.633 5.633 5.633 0 0 0 5.637-5.633zM48.25 287.934c79.844 201.703 77.32 199.18 74.207 199.18a5.636 5.636 0 1 0 5.637 5.636zM207.08 451.19c-15.797 38.446-18.32 35.922-21.43 35.922a5.636 5.636 0 1 0 0 11.274 5.636 5.636 0 0 0 5.633-5.637zM95.64 246.375" fill="rgb(50%,50%,100%)"/><path d="M143.035 204.816a5.636 5.636 0 1 0-11.268-.002 5.636 5.636 0 0 0 11.268.002zm-31.594 83.118c143.035 201.703 140.512 199.18 137.399 199.18a5.636 5.636 0 1 0 5.636 5.636zm143.035 204.816" fill="rgb(100%,29.998779%,29.998779%)"/><path d="M158.836 246.375a5.636 5.636 0 1 0-11.273 0 5.636 5.636 0 0 0 11.273 0zm0 0" fill="rgb(50%,50%,100%)"/><path d="M253.621 121.7a5.636 5.636 0 0 0-11.27 0 5.636 5.636 0 1 0 11.27 0zm-63.188 83.116c253.621 118.587 251.098 116.063 247.985 116.063a5.636 5.636 0 1 0 5.636 5.637zm253.621 121.7" fill="rgb(100%,29.998779%,29.998779%)"/><path d="M206.227 204.816a5.636 5.636 0 1 0-11.272-.002 5.636 5.636 0 0 0 11.272.002zm-31.594 83.118c206.227 201.703 203.703 199.18 200.59 199.18a5.636 5.636 0 1 0 5.637 5.636zM459.851 451.19c-15.797 38.446-18.32 35.922-21.433 35.922a5.636 5.636 0 1 0 5.636 5.637zm-15.797 41.559" fill="rgb(50%,50%,100%)"/><path d="M237.824 204.816a5.636 5.636 0 1 0-11.273 0 5.633 5.633 0 0 0 5.637 5.633 5.633 5.633 0 0 0 5.636-5.633zm0 0" fill="rgb(100%,29.998779%,29.998779%)"/><path d="M285.219 163.258a5.636 5.636 0 1 0-11.273 0 5.636 5.636 0 0 0 11.273 0zm-31.594 83.116C269.422 201.704 266.898 199.18 263.785 199.18a5.636 5.636 0 0 0-5.637 5.636 5.633 5.633 0 0 0 5.637 5.633 5.633 5.633 0 0 0 5.637-5.633zM617.83 368.075c-15.797 38.445-18.32 35.922-21.434 35.922a5.636 5.636 0 0 0-5.637 5.636 5.633 5.633 0 0 0 5.637 5.633 5.633 5.633 0 0 0 5.637-5.633zm-63.188 166.234c316.813 160.145 314.29 157.621 311.176 157.621a5.636 5.636 0 1 0 5.637 5.637zm696.812 326.516c-31.594 80.004-34.117 77.48-37.226 77.48a5.636 5.636 0 1 0 0 11.274 5.636 5.636 0 0 0 5.632-5.637zm-31.594 83.117" fill="rgb(50%,50%,100%)"/><use xlink:href="#r" x="341.092" y="182.526" fill="rgb(0%,0%,0%)"/><use xlink:href="#r" x="349.955" y="182.526" fill="rgb(0%,0%,0%)"/><use xlink:href="#r" x="358.798" y="182.526" fill="rgb(0%,0%,0%)"/><path d="M443.156 121.7a5.636 5.636 0 0 0-5.636-5.638 5.633 5.633 0 0 0-5.633 5.637 5.633 5.633 0 0 0 5.633 5.637 5.636 5.636 0 0 0 5.636-5.637zm0 0" fill="rgb(100%,29.998779%,29.998779%)"/><path d="M411.563 163.258a5.636 5.636 0 1 0-11.273 0 5.636 5.636 0 0 0 11.272 0zm-31.602 83.116C395.762 201.704 393.24 199.18 390.13 199.18a5.636 5.636 0 0 0-5.637 5.636 5.633 5.633 0 0 0 5.637 5.633c3.11 0 5.633-2.52 5.633-5.633zm886.32 326.516c-15.8 38.445-18.324 35.922-21.437 35.922a5.636 5.636 0 0 0-5.637 5.636 5.633 5.633 0 0 0 5.637 5.633 5.633 5.633 0 0 0 5.636-5.633zm-15.8 41.558" fill="rgb(50%,50%,100%)"/><path d="M474.754 163.258a5.636 5.636 0 1 0-11.273 0 5.636 5.636 0 0 0 11.273 0zm-31.594 83.116C458.957 201.704 456.433 199.18 453.32 199.18a5.636 5.636 0 0 0-5.636 5.636 5.633 5.633 0 0 0 5.636 5.633 5.633 5.633 0 0 0 5.637-5.633zm474.754 163.258" fill="rgb(100%,29.998779%,29.998779%)"/><path d="M443.156 246.375a5.636 5.636 0 0 0-5.636-5.637 5.633 5.633 0 0 0-5.633 5.637 5.633 5.633 0 0 0 5.633 5.637 5.636 5.636 0 0 0 5.636-5.637zm0 0" fill="rgb(50%,50%,100%)"/><path d="M474.754 246.375a5.636 5.636 0 1 0-11.273 0 5.636 5.636 0 0 0 11.273 0zm0 0" fill="rgb(100%,29.998779%,29.998779%)"/><path d="M490.55 204.816a5.636 5.636 0 1 0-11.273 0 5.633 5.633 0 0 0 5.637 5.633 5.633 5.633 0 0 0 5.637-5.633zm0 0" fill="rgb(50%,50%,100%)"/><path d="M251.914 17.113v29.89M62.285 125.93l-31.453 33.097m-6.094 9.688l-11.652 30.648m15.797-30.648l11.652 30.648m29.793-73.433l31.453 33.097" fill="none" stroke-width="0.3985" stroke="rgb(0%,0%,0%)" stroke-miterlimit="10"/><path d="M98.719 148.77l-1.735-5.676-.074 3.004-15.383-16.184-.765.727 15.383 16.183-3.008-.074zm0 0" fill="rgb(100%,0%,0%)"/><path d="M102.27 167.902l-24.532 32.27m-5.605 10.101L60.48 240.922m15.797-30.649l11.653 30.649m21.402-73.02l24.535 32.27" fill="none" stroke-width="0.3985" stroke="rgb(0%,0%,0%)" stroke-miterlimit="10"/><path d="M133.5 191.68l-1.102-5.832-.406 2.98-13.512-17.777-.84.64 13.512 17.774-2.98-.406zm0 0" fill="rgb(100%,0%,0%)"/><path d="M135.324 210.273l-11.652 30.649" fill="none" stroke-width="0.3985" stroke="rgb(0%,0%,0%)" stroke-miterlimit="10"/><path d="M120.25 236.293l4.367-4.02-2.746 1.23 7.934-20.87-.985-.375-7.933 20.87-1.23-2.741zm0 0" fill="rgb(100%,0%,0%)"/><path d="M139.473 210.273l11.652 30.649m93.328-114.578l-24.531 32.27" fill="none" stroke-width="0.3985" stroke="rgb(0%,0%,0%)" stroke-miterlimit="10"/><path d="M220.29 150.121l5.323-2.621-2.976.406 13.511-17.773-.84-.64-13.511 17.773-.406-2.977zm0 0" fill="rgb(100%,0%,0%)"/><path d="M214.316 168.715l-11.652 30.648m-4.144 10.91l-11.653 30.649m15.797-30.649l11.652 30.649m4.145-72.207l11.652 30.648" fill="none" stroke-width="0.3985" stroke="rgb(0%,0%,0%)" stroke-miterlimit="10"/><path d="M233.54 194.734l.593-5.906-1.23 2.742-7.934-20.87-.989.374 7.934 20.871-2.742-1.23zm0 0" fill="rgb(100%,0%,0%)"/><path d="M251.516 126.344l24.535 32.27m1.457 10.1l-11.653 30.65m15.801-30.65l11.653 30.65m0 10.91l-11.653 30.648m15.797-30.649l11.652 30.649m124.887-114.578l-24.535 32.27m-5.602 10.1l-11.652 30.65M408 168.713l11.652 30.65m21.403-73.02l24.535 32.27" fill="none" stroke-width="0.3985" stroke="rgb(0%,0%,0%)" stroke-miterlimit="10"/><path d="M465.219 150.121l-1.098-5.832-.406 2.977-13.516-17.774-.84.64 13.516 17.774-2.98-.406zm0 0" fill="rgb(100%,0%,0%)"/><path d="M467.047 168.715l-11.652 30.648" fill="none" stroke-width="0.3985" stroke="rgb(0%,0%,0%)" stroke-miterlimit="10"/><path d="M461.031 198.176l4.367-4.016-2.742 1.23 7.934-20.87-.988-.375-7.934 20.87-1.23-2.742zm0 0" fill="rgb(100%,0%,0%)"/><path d="M451.25 210.273l-11.652 30.649m15.797-30.649l11.652 30.649" fill="none" stroke-width="0.3985" stroke="rgb(0%,0%,0%)" stroke-miterlimit="10"/><path d="M470.473 236.293l.593-5.906-1.23 2.742-7.934-20.871-.988.375 7.934 20.87-2.743-1.23zm0 0" fill="rgb(100%,0%,0%)"/><path d="M471.191 168.715l11.653 30.648m-322.817-88.48H4.18a3.986 3.986 0 0 0-3.985 3.984v138.34a3.987 3.987 0 0 0 3.985 3.988h155.847a3.984 3.984 0 0 0 3.985-3.988v-138.34c0-2.199-1.782-3.984-3.985-3.984zM343.803-93.77L111.864 213.209a3.986 3.986 0 0 0-3.984 3.984v138.34a3.987 3.987 0 0 0 3.984 3.988h140.051c2.2 0 3.984-1.785 3.984-3.988v-138.34c0-2.2-1.785-3.984-3.984-3.984zm-91.888 102.326" fill="none" stroke-width="0.3985" stroke="rgb(0%,0%,0%)" stroke-miterlimit="10"/><g clip-path="url(#s)"><path d="M491.75 110.883H383.297a3.986 3.986 0 0 0-3.985 3.984v138.34a3.987 3.987 0 0 0 3.985 3.988H491.75c2.2 0 3.984-1.785 3.984-3.988v-138.34c0-2.199-1.785-3.984-3.984-3.984zm0 0" fill="none" stroke-width="0.3985" stroke="rgb(0%,0%,0%)" stroke-miterlimit="10"/></g><use xlink:href="#a" x="3.722" y="121.212" fill="rgb(0%,0%,0%)"/><g fill="rgb(0%,0%,0%)"><use xlink:href="#b" x="10.09" y="121.212"/><use xlink:href="#m" x="13.992" y="121.212"/><use xlink:href="#m" x="18.42" y="121.212"/></g><use xlink:href="#t" x="26.165" y="121.212" fill="rgb(0%,0%,0%)"/><use xlink:href="#a" x="177.5" y="121.212" fill="rgb(0%,0%,0%)"/><g fill="rgb(0%,0%,0%)"><use xlink:href="#b" x="183.868" y="121.212"/><use xlink:href="#m" x="187.77" y="121.212"/><use xlink:href="#m" x="192.198" y="121.212"/></g><use xlink:href="#u" x="199.943" y="121.212" fill="rgb(0%,0%,0%)"/><use xlink:href="#a" x="382.833" y="121.212" fill="rgb(0%,0%,0%)"/><g fill="rgb(0%,0%,0%)"><use xlink:href="#b" x="389.201" y="121.212"/><use xlink:href="#m" x="393.103" y="121.212"/><use xlink:href="#m" x="397.531" y="121.212"/></g><use xlink:href="#v" x="405.276" y="121.212" fill="rgb(0%,0%,0%)"/><path d="M359.965 297.445H135.969a3.984 3.984 0 0 0-3.989 3.985v7.527c0 2.2 1.786 3.984 3.989 3.984h223.996c2.2 0 3.984-1.785 3.984-3.984v-7.527a3.984 3.984 0 0 0-3.984-3.985zm0 0" fill="none" stroke-width="0.3985" stroke="rgb(0%,0%,0%)" stroke-miterlimit="10"/><g fill="rgb(0%,0%,0%)"><use xlink:href="#j" x="135.304" y="307.679"/><use xlink:href="#m" x="143.606" y="307.679"/><use xlink:href="#c" x="148.033" y="307.679"/><use xlink:href="#e" x="153.015" y="307.679"/></g><g fill="rgb(0%,0%,0%)"><use xlink:href="#d" x="161.867" y="307.679"/><use xlink:href="#e" x="164.635" y="307.679"/></g><g fill="rgb(0%,0%,0%)"><use xlink:href="#b" x="173.498" y="307.679"/><use xlink:href="#m" x="177.4" y="307.679"/><use xlink:href="#f" x="181.827" y="307.679"/><use xlink:href="#b" x="186.809" y="307.679"/><use xlink:href="#m" x="190.711" y="307.679"/><use xlink:href="#i" x="195.138" y="307.679"/><use xlink:href="#i" x="199.068" y="307.679"/><use xlink:href="#d" x="202.997" y="307.679"/><use xlink:href="#w" x="205.764" y="307.679"/><use xlink:href="#e" x="210.746" y="307.679"/></g><g fill="rgb(0%,0%,0%)"><use xlink:href="#w" x="219.599" y="307.679"/><use xlink:href="#b" x="224.58" y="307.679"/></g><g fill="rgb(0%,0%,0%)"><use xlink:href="#j" x="231.8" y="307.679"/><use xlink:href="#c" x="240.102" y="307.679"/></g><g fill="rgb(0%,0%,0%)"><use xlink:href="#x" x="245.641" y="307.679"/><use xlink:href="#w" x="248.685" y="307.679"/><use xlink:href="#b" x="253.667" y="307.679"/><use xlink:href="#d" x="257.569" y="307.679"/><use xlink:href="#h" x="260.337" y="307.679"/></g><use xlink:href="#y" x="263.932" y="307.679" fill="rgb(0%,0%,0%)"/><use xlink:href="#z" x="272.508" y="307.679" fill="rgb(0%,0%,0%)"/><g fill="rgb(0%,0%,0%)"><use xlink:href="#w" x="277.497" y="307.679"/><use xlink:href="#h" x="282.479" y="307.679"/><use xlink:href="#m" x="286.353" y="307.679"/></g><g fill="rgb(0%,0%,0%)"><use xlink:href="#d" x="294.098" y="307.679"/><use xlink:href="#e" x="296.865" y="307.679"/></g><g fill="rgb(0%,0%,0%)"><use xlink:href="#A" x="305.718" y="307.679"/><use xlink:href="#l" x="310.146" y="307.679"/><use xlink:href="#c" x="312.913" y="307.679"/><use xlink:href="#i" x="317.895" y="307.679"/><use xlink:href="#i" x="321.824" y="307.679"/><use xlink:href="#d" x="325.753" y="307.679"/><use xlink:href="#B" x="328.521" y="307.679"/><use xlink:href="#A" x="334.056" y="307.679"/><use xlink:href="#c" x="338.483" y="307.679"/><use xlink:href="#h" x="343.465" y="307.679"/><use xlink:href="#d" x="347.339" y="307.679"/><use xlink:href="#w" x="350.107" y="307.679"/><use xlink:href="#e" x="355.088" y="307.679"/></g><g clip-path="url(#C)"><path d="M269.176 343.227h-42.422a3.984 3.984 0 0 0-3.984 3.984v7.527a3.981 3.981 0 0 0 3.984 3.985h42.422a3.984 3.984 0 0 0 3.988-3.985v-7.527c0-2.2-1.785-3.984-3.988-3.984zm0 0" fill="none" stroke-width="0.3985" stroke="rgb(0%,0%,0%)" stroke-miterlimit="10"/></g><g fill="rgb(0%,0%,0%)"><use xlink:href="#k" x="226.089" y="353.462"/><use xlink:href="#b" x="231.624" y="353.462"/><use xlink:href="#m" x="235.527" y="353.462"/><use xlink:href="#n" x="239.954" y="353.462"/><use xlink:href="#d" x="245.489" y="353.462"/><use xlink:href="#A" x="248.257" y="353.462"/><use xlink:href="#h" x="252.684" y="353.462"/><use xlink:href="#d" x="256.559" y="353.462"/><use xlink:href="#w" x="259.326" y="353.462"/><use xlink:href="#e" x="264.308" y="353.462"/></g><path d="M214.586 67.723L97.48 105.699" fill="none" stroke-width="0.3985" stroke="rgb(0%,0%,0%)" stroke-miterlimit="10"/><path d="M95.586 106.313l3.523.53-1.629-1.144.649-1.886" fill="rgb(0%,0%,0%)"/><path d="M251.098 67.055l-2.77 38.812" fill="none" stroke-width="0.3985" stroke="rgb(0%,0%,0%)" stroke-miterlimit="10"/><path d="M248.188 107.855l1.816-3.066-1.676 1.078-1.504-1.305" fill="rgb(0%,0%,0%)"/><path d="M291.797 67.453l130.23 38.633" fill="none" stroke-width="0.3985" stroke="rgb(0%,0%,0%)" stroke-miterlimit="10"/><path d="M423.938 106.652l-2.606-2.433.695 1.867-1.601 1.187" fill="rgb(0%,0%,0%)"/><path d="M95.723 261.316l109.152 31.454" fill="none" stroke-width="0.3985" stroke="rgb(0%,0%,0%)" stroke-miterlimit="10"/><path d="M206.79 293.32l-2.622-2.414.707 1.864-1.59 1.199" fill="rgb(0%,0%,0%)"/><path d="M247.984 260.227l-.011 32.191" fill="none" stroke-width="0.3985" stroke="rgb(0%,0%,0%)" stroke-miterlimit="10"/><path d="M247.969 294.41l1.597-3.187-1.593 1.195-1.594-1.195" fill="rgb(0%,0%,0%)"/><path d="M423.781 260.86l-128.644 32.433" fill="none" stroke-width="0.3985" stroke="rgb(0%,0%,0%)" stroke-miterlimit="10"/><path d="M293.203 293.781l3.48.766-1.546-1.254.77-1.84" fill="rgb(0%,0%,0%)"/><path d="M247.965 315.973v22.226" fill="none" stroke-width="0.3985" stroke="rgb(0%,0%,0%)" stroke-miterlimit="10"/><path d="M247.965 340.195l1.594-3.191-1.594 1.195-1.594-1.195" fill="rgb(0%,0%,0%)"/></svg>