<svg height="122.388" viewBox="0 0 339.973 91.791" width="453.297" xmlns="http://www.w3.org/2000/svg" xmlns:xlink="http://www.w3.org/1999/xlink"><symbol id="a" overflow="visible"><path d="m5.36-5.938c-.141.141-.47.422-.47.594 0 .094.094.203.188.203s.14-.078.203-.14c.11-.14.344-.422.782-.64.062-.048.171-.095.171-.204 0-.11-.078-.156-.14-.203a1.034 1.034 0 0 1 -.407-.563c-.03-.093-.062-.234-.203-.234-.14 0-.203.14-.203.219 0 .047.078.36.235.578h-3.36c-.156 0-.344 0-.344.203 0 .188.188.188.344.188zm0 0"/></symbol><symbol id="b" overflow="visible"><path d="m1.328-.828c.531-.578.828-.828 1.188-1.14 0 0 .609-.532.968-.891.954-.922 1.172-1.407 1.172-1.454 0-.093-.093-.093-.11-.093-.077 0-.093.015-.155.11-.297.484-.5.64-.735.64-.25 0-.36-.156-.515-.328-.188-.22-.36-.422-.688-.422-.75 0-1.203.922-1.203 1.14 0 .047.031.11.11.11.093 0 .109-.047.14-.11.188-.468.766-.468.844-.468.203 0 .39.062.625.14.406.156.515.156.765.156-.359.422-1.187 1.141-1.375 1.297l-.906.844c-.672.672-1.031 1.234-1.031 1.313 0 .093.11.093.125.093.078.001.093-.015.156-.125.235-.359.531-.625.86-.625.218 0 .328.094.578.375.156.22.343.375.625.375 1 0 1.578-1.265 1.578-1.53 0-.048-.047-.11-.125-.11-.094 0-.11.062-.14.14-.235.641-.876.829-1.204.829-.188 0-.375-.063-.578-.125-.344-.125-.5-.172-.703-.172-.016 0-.172 0-.266.03zm0 0"/></symbol><symbol id="c" overflow="visible"><path d="m3.328-3.016c.063-.25.297-1.171.985-1.171.046 0 .296 0 .5.125a.578.578 0 0 0 -.47.546c0 .157.11.344.376.344a.546.546 0 0 0 .531-.578c0-.516-.578-.656-.922-.656-.578 0-.922.531-1.047.75-.25-.656-.781-.75-1.078-.75-1.031 0-1.61 1.281-1.61 1.531 0 .11.11.11.126.11.078 0 .11-.032.125-.11.344-1.063 1-1.313 1.344-1.313.187 0 .53.094.53.672 0 .313-.171.97-.53 2.375-.157.61-.516 1.032-.954 1.032-.062 0-.28 0-.5-.125.25-.063.47-.266.47-.547 0-.266-.22-.344-.36-.344-.313 0-.547.25-.547.578 0 .453.484.656.922.656.672 0 1.031-.703 1.047-.75.125.36.484.75 1.078.75 1.031 0 1.594-1.28 1.594-1.53 0-.11-.079-.11-.11-.11-.094 0-.11.047-.14.11-.329 1.077-1 1.312-1.313 1.312-.39 0-.547-.313-.547-.657 0-.218.047-.437.156-.875zm0 0"/></symbol><symbol id="d" overflow="visible"><path d="m7.578-6.922c0-.031-.016-.11-.11-.11-.03 0-.046.016-.155.126l-.688.765c-.094-.14-.547-.89-1.656-.89-2.235 0-4.469 2.203-4.469 4.515 0 1.594 1.11 2.736 2.719 2.736.437 0 .89-.094 1.25-.235.5-.203.687-.406.86-.609.093.25.359.61.452.61.047 0 .078-.032.078-.032.016-.015.11-.406.157-.61l.187-.765.14-.516c.11-.437.11-.468.688-.468.047 0 .157-.016.157-.203 0-.079-.047-.11-.125-.11-.235 0-.829.031-1.047.031-.313 0-1.094-.03-1.407-.03-.078 0-.203 0-.203.202 0 .11.078.11.297.11.016 0 .297 0 .531.015.266.032.313.063.313.188 0 .094-.11.531-.219.906-.281 1.093-1.562 1.202-1.922 1.202-.953 0-2-.562-2-2.094 0-.312.094-1.953 1.14-3.25.548-.671 1.517-1.28 2.5-1.28 1.016 0 1.61.765 1.61 1.921 0 .406-.031.406-.031.516 0 .093.11.093.14.093.126 0 .126-.015.188-.203zm0 0"/></symbol><symbol id="e" overflow="visible"><path d="m.453 1.219c-.078.343-.11.406-.547.406-.11 0-.218 0-.218.188 0 .078.046.125.124.125.266 0 .563-.032.829-.032.343 0 .671.032 1 .032.046 0 .171 0 .171-.204 0-.109-.093-.109-.234-.109-.5 0-.5-.063-.5-.156 0-.125.422-1.75.484-2 .125.297.407.64.922.64 1.157 0 2.407-1.453 2.407-2.921 0-.938-.579-1.594-1.329-1.594-.5 0-.984.36-1.312.75-.094-.547-.531-.75-.89-.75-.47 0-.657.39-.735.562-.188.344-.313.938-.313.969 0 .11.094.11.11.11.11 0 .11-.016.172-.235.172-.703.375-1.188.734-1.188.172 0 .313.079.313.454 0 .234-.032.343-.079.515zm1.75-4.328c.063-.266.344-.547.516-.704.36-.296.64-.374.812-.374.39 0 .64.343.64.937s-.327 1.734-.515 2.11c-.344.702-.812 1.03-1.187 1.03-.656 0-.781-.828-.781-.89 0-.016 0-.031.03-.156zm0 0"/></symbol><symbol id="f" overflow="visible"><path d="m1.578-.781c-.094.39-.11.469-.906.469-.156 0-.266 0-.266.187 0 .125.078.125.266.125h3.312c2.063 0 4.032-2.11 4.032-4.281 0-1.407-.844-2.532-2.344-2.532h-3.344c-.187 0-.297 0-.297.188 0 .125.078.125.281.125.126 0 .313.016.422.016.172.03.22.046.22.171 0 .032 0 .063-.032.188zm2.156-5.344c.094-.344.11-.375.547-.375h1.063c.968 0 1.797.531 1.797 1.844 0 .484-.188 2.125-1.047 3.218a2.919 2.919 0 0 1 -2.297 1.125h-1.344c-.094-.015-.125-.03-.125-.109 0-.031 0-.047.047-.219zm0 0"/></symbol><symbol id="g" overflow="visible"><path d="m1.469-4.297a.413.413 0 0 0 -.407-.406.4.4 0 0 0 -.39.406.4.4 0 0 0 .39.406.394.394 0 0 0 .407-.406zm-1.063 1.297v.25c.438 0 .5.047.5.39v1.813c0 .297-.062.297-.515.297v.25c.015 0 .5-.031.78-.031.25 0 .5.015.735.031v-.25c-.406 0-.468 0-.468-.297v-2.531zm0 0"/></symbol><symbol id="h" overflow="visible"><path d="m3.594-2.11c0-.609-.297-.968-1.047-.968-.578 0-.938.312-1.14.687v-.687l-1.033.078v.25c.469 0 .531.047.531.39v1.813c0 .297-.078.297-.531.297v.25c.016 0 .5-.031.797-.031.25 0 .734.031.797.031v-.25c-.453 0-.516 0-.516-.297v-1.265c0-.72.578-1.063 1.031-1.063.485 0 .547.375.547.734v1.594c0 .297-.062.297-.515.297v.25c.015 0 .5-.031.796-.031.25 0 .735.031.797.031v-.25c-.453 0-.515 0-.515-.297zm0 0"/></symbol><symbol id="i" overflow="visible"><path d="m1.438-2.75h.875v-.25h-.907v-.781c0-.64.375-.922.672-.922.063 0 .14 0 .203.031-.094.047-.156.156-.156.281 0 .188.14.313.328.313s.328-.125.328-.313c0-.312-.312-.515-.687-.515-.547 0-1.188.39-1.188 1.125v.781h-.594v.25h.594v2.203c0 .297-.062.297-.515.297v.25c.03 0 .515-.031.796-.031.297 0 .61.015.907.031v-.25h-.14c-.516 0-.516-.078-.516-.313zm0 0"/></symbol><symbol id="j" overflow="visible"><path d="m3.11-1.875c0-.36 0-.625-.329-.89-.281-.235-.61-.345-1.031-.345-.656 0-1.125.25-1.125.671 0 .235.156.344.344.344a.32.32 0 0 0 .328-.328.319.319 0 0 0 -.25-.312c.25-.172.656-.172.687-.172.391 0 .829.25.829.844v.203c-.391.015-.844.046-1.36.234-.625.219-.812.61-.812.922 0 .594.718.765 1.218.765.547 0 .875-.312 1.032-.578.015.282.203.547.53.547.017 0 .688 0 .688-.656v-.39h-.234v.374c0 .079 0 .407-.266.407-.25 0-.25-.329-.25-.407zm-.547.89c0 .672-.594.86-.907.86-.36 0-.687-.234-.687-.578 0-.39.328-.922 1.594-.969zm0 0"/></symbol><symbol id="k" overflow="visible"><path d="m2.25-1.89c.86-.657 1.094-.844 1.563-.86v-.25a4.635 4.635 0 0 1 -.47.031c-.28 0-.562-.015-.827-.031v.25c.078.016.125.063.125.125 0 .11-.141.234-.22.297l-1.03.797v-3.313l-1.047.078v.25c.469 0 .515.063.515.391v3.578c.001.297-.062.297-.515.297v.25c.25-.016.515-.031.765-.031.266 0 .516.015.782.031v-.25c-.454 0-.532 0-.532-.297v-.672l.516-.39.75.953c.078.078.156.187.156.281 0 .11-.125.125-.187.125v.25c.094 0 .578-.031.781-.031s.406.015.61.031v-.25c-.25 0-.407-.016-.61-.266zm0 0"/></symbol><symbol id="l" overflow="visible"><path d="m3.063-1.594c.156 0 .203 0 .203-.14 0-.625-.344-1.375-1.391-1.375a1.59 1.59 0 0 0 -1.61 1.578c0 .89.782 1.593 1.704 1.593.937 0 1.297-.75 1.297-.906 0-.015-.016-.094-.125-.094-.094 0-.11.047-.125.11-.22.562-.75.672-1 .672-.329 0-.641-.14-.844-.406-.266-.329-.266-.75-.266-1.032zm-2.158-.172c.078-.984.703-1.14.969-1.14.86 0 .89.969.906 1.14zm0 0"/></symbol><symbol id="m" overflow="visible"><path d="m1.39-1.594c0-.578.266-1.281.938-1.281a.325.325 0 0 0 -.125.25c0 .234.188.313.313.313.171 0 .328-.11.328-.313 0-.234-.235-.453-.563-.453-.344 0-.734.219-.937.75v-.75l-1 .078v.25c.469 0 .515.047.515.39v1.813c.001.297-.062.297-.515.297v.25c.031 0 .5-.031.797-.031.296 0 .593.015.906.031v-.25h-.14c-.516 0-.516-.078-.516-.313zm0 0"/></symbol><symbol id="n" overflow="visible"><path d="m1.438-4.844-1.048.078v.25c.468 0 .515.063.515.391v3.578c0 .297-.062.297-.515.297v.25c.015 0 .5-.031.78-.031.266 0 .516.015.782.031v-.25c-.453 0-.516 0-.516-.297zm0 0"/></symbol><symbol id="o" overflow="visible"><path d="m2.484-4.766v.25c.47 0 .516.063.516.391v1.453a1.371 1.371 0 0 0 -.969-.406c-.937 0-1.703.703-1.703 1.578s.734 1.563 1.61 1.563c.578 0 .921-.297 1.03-.422v.421l1.08-.062v-.25c-.469 0-.516-.047-.516-.39v-4.204zm.486 4.032a1.125 1.125 0 0 1 -.985.609 1 1 0 0 1 -.812-.438c-.14-.203-.219-.484-.219-.921 0-.172 0-.688.281-1.016a1.11 1.11 0 0 1 .829-.375c.328 0 .64.156.828.406.078.11.078.11.078.25zm0 0"/></symbol><symbol id="p" overflow="visible"><path d="m1.406-2.75h1.078v-.25h-1.078v-1.281h-.25c0 .625-.281 1.312-.953 1.328v.203h.64v1.875c0 .781.595.938.985.938.469 0 .781-.391.781-.938v-.39h-.234v.374c0 .485-.219.735-.5.735-.469 0-.469-.578-.469-.703zm0 0"/></symbol><symbol id="q" overflow="visible"><path d="m3.297 2.39c0-.03 0-.046-.172-.218-1.234-1.25-1.563-3.14-1.563-4.672 0-1.734.375-3.469 1.61-4.703.125-.125.125-.14.125-.172 0-.078-.031-.11-.094-.11-.11 0-1 .688-1.594 1.954-.499 1.093-.625 2.203-.625 3.031 0 .781.11 1.984.657 3.125.609 1.219 1.453 1.875 1.562 1.875.063 0 .094-.031.094-.11zm0 0"/></symbol><symbol id="r" overflow="visible"><path d="m2.875-2.5c0-.766-.11-1.969-.656-3.11-.594-1.217-1.453-1.873-1.547-1.873a.107.107 0 0 0 -.11.109c0 .031 0 .047.188.234.984.985 1.547 2.563 1.547 4.641 0 1.719-.36 3.469-1.594 4.719-.14.125-.14.14-.14.172 0 .062.046.109.109.109.094 0 1-.688 1.578-1.953.516-1.094.625-2.203.625-3.047zm0 0"/></symbol><symbol id="s" overflow="visible"><path d="m1.672-3.313v-1.093l-1.39.11v.312c.702 0 .78.062.78.562v2.672c0 .438-.109.438-.78.438v.312c.39-.016.859-.031 1.14-.031.39 0 .86 0 1.266.031v-.313h-.22c-.734 0-.75-.109-.75-.468v-1.531c0-.985.423-1.876 1.173-1.876.062 0 .093 0 .109.016-.031 0-.234.125-.234.39 0 .266.218.423.437.423a.421.421 0 0 0 .422-.438c0-.312-.313-.61-.734-.61-.735 0-1.094.673-1.22 1.095zm0 0"/></symbol><symbol id="t" overflow="visible"><path d="m1.11-2.516c.061-1.484.905-1.734 1.25-1.734 1.015 0 1.124 1.344 1.124 1.734zm0 .22h2.78c.22 0 .25 0 .25-.22 0-.984-.546-1.953-1.78-1.953-1.158 0-2.08 1.032-2.08 2.282.001 1.327 1.048 2.295 2.19 2.295 1.218.002 1.67-1.108 1.67-1.295 0-.094-.079-.125-.141-.125-.078 0-.11.062-.125.14-.343 1.032-1.249 1.032-1.343 1.032-.5 0-.89-.296-1.125-.671-.297-.47-.297-1.125-.297-1.485zm0 0"/></symbol><symbol id="u" overflow="visible"><path d="m3.313-.75c.046.39.312.813.78.813.22 0 .829-.141.829-.954v-.562h-.25v.562c0 .579-.25.641-.36.641-.328 0-.375-.453-.375-.5v-1.984c0-.422 0-.813-.359-1.188a1.9 1.9 0 0 0 -1.36-.547c-.827 0-1.515.469-1.515 1.125 0 .297.203.469.469.469a.435.435 0 0 0 .453-.453c0-.125-.047-.453-.516-.453.282-.36.766-.469 1.079-.469.5 0 1.062.39 1.062 1.281v.36c-.516.03-1.203.062-1.828.359-.75.344-1 .86-1 1.297 0 .812.969 1.062 1.594 1.062a1.38 1.38 0 0 0 1.296-.859zm-.063-1.64v1c0 .937-.719 1.28-1.172 1.28-.484 0-.89-.343-.89-.843 0-.547.421-1.375 2.062-1.438zm0 0"/></symbol><symbol id="v" overflow="visible"><path d="m1.766-6.922-1.438.11v.312c.703 0 .781.063.781.563v5.187c0 .438-.109.438-.78.438v.312c.327-.016.859-.031 1.109-.031s.734.015 1.109.031v-.313c-.672 0-.781 0-.781-.437zm0 0"/></symbol><symbol id="w" overflow="visible"><path d="m2.344-2.484c0-1.25.969-1.97 1.312-2.22.266-.202.485-.562.485-.984 0-.578-.407-1.343-1.891-1.343-1.078 0-1.688.687-1.688 1.328 0 .344.22.484.454.484.28 0 .453-.203.453-.468 0-.438-.407-.438-.547-.438.297-.531.875-.688 1.297-.688 1.094 0 1.094.688 1.094 1.079 0 .578-.157.765-.344.937a3.469 3.469 0 0 0 -.875 2.25v.438c0 .187 0 .25.125.25s.125-.094.125-.282zm.39 1.953a.534.534 0 0 0 -.515-.531.537.537 0 0 0 -.531.53c0 .298.234.532.53.532a.524.524 0 0 0 .516-.531zm0 0"/></symbol><symbol id="x" overflow="visible"><path d="m1.375-.547c-.25-.031-.438-.233-.438-.531 0-.188.047-.266.094-.328.344.187.657.234.844.234.781 0 1.375-.547 1.375-1.172 0-.297-.14-.562-.328-.765a1.19 1.19 0 0 1 .765-.266c-.03.016-.078.063-.078.188 0 .14.11.25.25.25a.25.25 0 0 0 .25-.266.43.43 0 0 0 -.453-.406c-.14 0-.531.046-.89.375a1.585 1.585 0 0 0 -.891-.282c-.781 0-1.36.547-1.36 1.172 0 .375.204.656.376.813a.934.934 0 0 0 .094 1.36c-.422.108-.75.421-.75.78 0 .579.828 1.032 1.874 1.032 1 0 1.875-.407 1.875-1.047 0-.422-.25-.766-.515-.89-.469-.25-.86-.25-1.64-.25zm.5-.86c-.734 0-.734-.765-.734-.937 0-.297.03-.5.156-.656a.717.717 0 0 1 .578-.281c.734 0 .734.765.734.937 0 .297-.03.5-.156.656a.703.703 0 0 1 -.578.282zm.375 1.377c.219 0 1.266 0 1.266.64 0 .422-.61.797-1.407.797-.796 0-1.406-.375-1.406-.797 0-.171.14-.64.781-.64zm0 0"/></symbol><symbol id="y" overflow="visible"><path d="m3.297-1.813c.172 0 .219 0 .219-.187 0-.703-.391-1.547-1.516-1.547-.984 0-1.766.813-1.766 1.797 0 1.031.86 1.828 1.875 1.828 1 0 1.407-.844 1.407-1.031a.12.12 0 0 0 -.125-.11c-.094 0-.11.047-.125.094a1.14 1.14 0 0 1 -1.11.797c-.36 0-.734-.156-.969-.531-.234-.36-.234-.875-.234-1.11zm-2.344-.217c.078-1.11.75-1.297 1.047-1.297.938 0 .969 1.125.969 1.297zm0 0"/></symbol><symbol id="z" overflow="visible"><path d="m3.875-2.422c0-.656-.313-1.094-1.14-1.094a1.38 1.38 0 0 0 -1.25.766v-.766l-1.157.094v.266c.547 0 .61.047.61.437v2.094c0 .36-.094.36-.61.36v.265c.344-.031.688-.031.906-.031.235 0 .563 0 .907.031v-.266c-.5 0-.61 0-.61-.359v-1.438c0-.843.64-1.234 1.125-1.234s.61.344.61.844v1.828c0 .36-.094.36-.61.36v.265c.344-.031.703-.031.906-.031.235 0 .579 0 .922.031v-.266c-.515 0-.609 0-.609-.359zm0 0"/></symbol><symbol id="A" overflow="visible"><path d="m1.469-1.813c0-.609.25-1.468 1.015-1.484-.046.031-.14.094-.14.281 0 .25.203.36.36.36.187 0 .358-.125.358-.36 0-.28-.25-.5-.609-.5-.515 0-.875.391-1.031.844h-.016v-.844l-1.125.094v.266c.547 0 .61.047.61.437v2.094c0 .36-.11.36-.61.36v.265c.313-.031.75-.031.938-.031.468 0 .484 0 1 .031v-.266h-.156c-.579 0-.594-.078-.594-.375zm0 0"/></symbol><symbol id="B" overflow="visible"><path d="m3.344-2.375c0-.781-.75-1.172-1.485-1.172-.656 0-1.25.25-1.25.781a.36.36 0 0 0 .375.375c.235 0 .375-.156.375-.375 0-.187-.109-.328-.296-.359.296-.203.734-.203.78-.203.454 0 .891.312.891.969v.234c-.453.031-.984.047-1.546.281-.704.313-.844.766-.844 1.032 0 .687.812.89 1.36.89.577 0 .937-.328 1.124-.64.031.296.235.609.594.609.078 0 .75-.031.75-.766v-.437h-.25v.437c0 .328-.11.453-.281.453-.297 0-.297-.359-.297-.453zm-.61 1.25c0 .781-.64.984-.968.984-.407.001-.766-.279-.766-.671 0-.516.5-1.063 1.734-1.094zm0 0"/></symbol><symbol id="C" overflow="visible"><path d="m1.484-3.172h1.188v-.265h-1.188v-1.47h-.25c0 .735-.328 1.485-1.078 1.516v.22h.719v2.171c0 .938.719 1.078 1.078 1.078.547 0 .86-.469.86-1.078v-.438h-.25v.422c0 .547-.25.844-.547.844-.532 0-.532-.687-.532-.812zm0 0"/></symbol><symbol id="D" overflow="visible"><path d="m3.984-1.703c0-.984-.828-1.844-1.875-1.844-1.046 0-1.875.86-1.875 1.844 0 1 .86 1.781 1.875 1.781 1.032 0 1.875-.781 1.875-1.781zm-1.874 1.531c-.421 0-.765-.203-.937-.484-.203-.328-.219-.719-.219-1.11 0-.312 0-.78.235-1.125.218-.28.546-.437.921-.437.422 0 .766.203.938.469.219.343.234.765.234 1.093 0 .36-.015.797-.25 1.141-.203.313-.562.453-.922.453zm0 0"/></symbol><symbol id="E" overflow="visible"><path d="m1.516-5.531-1.188.093v.266c.547 0 .61.047.61.438v4.109c0 .36-.094.36-.61.36v.265c.313-.031.766-.031.906-.031.157 0 .579 0 .891.031v-.266c-.5 0-.61 0-.61-.359zm0 0"/></symbol><symbol id="F" overflow="visible"><path d="m1.547-4.906c0-.235-.172-.453-.438-.453a.437.437 0 0 0 -.437.437.45.45 0 0 0 .437.453.436.436 0 0 0 .438-.437zm-1.188 1.484v.266c.516 0 .579.047.579.437v2.094c0 .36-.094.36-.61.36v.265c.313-.031.766-.031.89-.031.095 0 .579 0 .86.031v-.266c-.531 0-.562-.03-.562-.343v-2.907zm0 0"/></symbol><symbol id="G" overflow="visible"><path d="m2.844-3.344c0-.125 0-.203-.11-.203-.046 0-.062 0-.187.125-.016 0-.094.078-.11.078-.015 0-.03 0-.078-.031-.125-.094-.359-.172-.718-.172-1.11 0-1.36.594-1.36.985 0 .39.297.624.313.656.328.234.5.265 1.047.36.375.077.984.187.984.718 0 .312-.203.687-.938.687-.812.001-1.046-.625-1.139-1.046-.031-.11-.047-.141-.14-.141-.126 0-.126.062-.126.219v.984c0 .125 0 .203.094.203.063 0 .063 0 .203-.156.047-.047.125-.14.172-.188.36.329.734.344.938.344 1.015 0 1.359-.578 1.359-1.11 0-.374-.219-.937-1.172-1.109a10.121 10.121 0 0 0 -.547-.093c-.25-.063-.625-.235-.625-.547 0-.235.188-.578.938-.578.89 0 .937.656.953.875 0 .062.062.093.11.093.14 0 .14-.062.14-.203zm0 0"/></symbol><symbol id="H" overflow="visible"><path d="m2.625-5.438v.266c.531 0 .61.047.61.438v1.687a1.409 1.409 0 0 0 -1.079-.469c-1 0-1.875.782-1.875 1.797 0 .985.797 1.797 1.797 1.797.469 0 .86-.219 1.125-.5v.5l1.219-.078v-.266c-.547 0-.61-.046-.61-.437v-4.828zm.578 4.454c0 .14 0 .171-.125.328a1.146 1.146 0 0 1 -.953.515c-.375 0-.688-.187-.875-.484-.219-.313-.266-.703-.266-1.078 0-.469.079-.797.266-1.063.188-.296.547-.53.953-.53.375 0 .766.202 1 .608zm0 0"/></symbol><symbol id="I" overflow="visible"><path d="m2.938-3.156a.336.336 0 0 0 -.266.344c0 .218.156.374.375.374s.375-.14.375-.39c0-.485-.531-.719-1.281-.719-1.11 0-1.86.875-1.86 1.828 0 1.016.829 1.797 1.829 1.797 1.125 0 1.407-.937 1.407-1.031s-.11-.094-.125-.094c-.063 0-.094 0-.125.078a1.071 1.071 0 0 1 -1.079.797c-.484 0-1.204-.375-1.204-1.562 0-1.141.594-1.579 1.172-1.579.078 0 .5 0 .781.157zm0 0"/></symbol><symbol id="J" overflow="visible"><path d="m6.219-2.422c0-.64-.282-1.094-1.14-1.094-.735 0-1.11.5-1.235.735-.14-.578-.594-.735-1.11-.735a1.37 1.37 0 0 0 -1.25.766v-.766l-1.156.094v.266c.547 0 .61.047.61.437v2.094c0 .36-.094.36-.61.36v.265c.344-.031.688-.031.906-.031.235 0 .563 0 .907.031v-.266c-.5 0-.61 0-.61-.359v-1.438c0-.843.64-1.234 1.14-1.234.517 0 .61.406.61.844v1.828c0 .36-.11.36-.61.36v.265c.345-.031.688-.031.907-.031.235 0 .563 0 .906.031v-.266c-.515 0-.609 0-.609-.359v-1.438c0-.843.64-1.234 1.14-1.234.516 0 .61.406.61.844v1.828c0 .36-.11.36-.61.36v.265c.344-.031.688-.031.907-.031.234 0 .562 0 .906.031v-.266c-.516 0-.61 0-.61-.359zm0 0"/></symbol><symbol id="K" overflow="visible"><path d="m3.563-3.39c0-.735-.282-1.516-.97-1.516-1.046 0-2.155 1.875-2.155 3.468 0 .829.328 1.5.968 1.5 1.047 0 2.157-1.89 2.157-3.453zm-2.344.843c.36-1.5.968-2.156 1.375-2.156.437 0 .437.766.437.89 0 .282-.047.688-.187 1.266zm1.562.25c-.203.766-.36 1.14-.578 1.485-.203.359-.484.687-.797.687-.375 0-.437-.531-.437-.906 0-.453.125-1 .187-1.266zm0 0"/></symbol><clipPath id="L"><path d="m148 61h31v30.79h-31zm0 0"/></clipPath><path d="m97.41 76.414c0-6.613-5.36-11.973-11.972-11.973-6.614 0-11.973 5.36-11.973 11.973s5.36 11.973 11.972 11.973c6.614 0 11.973-5.36 11.973-11.973zm0 0" fill="#66b2b2"/><use x="79.377" xlink:href="#a" y="79.227"/><use x="79.546" xlink:href="#b" y="79.227"/><g><use x="84.178" xlink:href="#g" y="80.721"/><use x="86.433" xlink:href="#h" y="80.721"/></g><g clip-path="url(#L)"><path d="m178.773 76.414c0-8.492-6.882-15.375-15.375-15.375-8.492 0-15.375 6.883-15.375 15.375s6.883 15.379 15.375 15.379c8.493 0 15.375-6.887 15.375-15.379zm0 0" fill="#66b2b2"/></g><use x="153.191" xlink:href="#a" y="79.227"/><use x="153.321" xlink:href="#c" y="79.227"/><g><use x="159.018" xlink:href="#i" y="80.721"/><use x="161.488" xlink:href="#j" y="80.721"/><use x="165.46" xlink:href="#k" y="80.721"/></g><use x="169.429" xlink:href="#l" y="80.721"/><path d="m12.37 0h49.11" fill="none" stroke="#000" stroke-miterlimit="10" stroke-width=".79701" transform="matrix(1 0 0 -1 85.438 76.415)"/><path d="m-1.553 2.071c.129-.777 1.553-1.941 1.941-2.07-.387-.129-1.812-1.297-1.941-2.074" style="fill:none;stroke-width:.6376;stroke-linecap:round;stroke-linejoin:round;stroke:#000;stroke-miterlimit:10" transform="matrix(1 0 0 -1 146.917 76.415)"/><use x="112.078" xlink:href="#d" y="70.205"/><use x="119.912" xlink:href="#q" y="70.205"/><use x="123.653" xlink:href="#a" y="70.205"/><use x="123.783" xlink:href="#c" y="70.205"/><use x="129.48" xlink:href="#r" y="70.205"/><g><use x="105.302" xlink:href="#x" y="85.036"/><use x="109.537" xlink:href="#y" y="85.036"/><use x="113.3" xlink:href="#z" y="85.036"/><use x="118.005" xlink:href="#y" y="85.036"/><use x="121.768" xlink:href="#A" y="85.036"/><use x="125.069" xlink:href="#B" y="85.036"/><use x="129.303" xlink:href="#C" y="85.036"/><use x="132.596" xlink:href="#D" y="85.036"/><use x="136.831" xlink:href="#A" y="85.036"/></g><path d="m-13.079 0h-71.96" fill="none" stroke="#000" stroke-miterlimit="10" stroke-width=".79701" transform="matrix(1 0 0 -1 85.438 76.415)"/><path d="m-1.554 2.071c.129-.777 1.555-1.941 1.941-2.07-.386-.129-1.812-1.297-1.94-2.074" style="fill:none;stroke-width:.6376;stroke-linecap:round;stroke-linejoin:round;stroke:#000;stroke-miterlimit:10" transform="matrix(1 0 0 -1 72.359 76.415)"/><use x="25.562" xlink:href="#e" y="70.205"/><use x="30.575" xlink:href="#K" y="71.7"/><use x="35.082" xlink:href="#q" y="70.205"/><use x="38.789" xlink:href="#a" y="70.205"/><use x="38.958" xlink:href="#b" y="70.205"/><use x="44.028" xlink:href="#r" y="70.205"/><g><use x="15.42" xlink:href="#E" y="85.669"/><use x="17.772" xlink:href="#B" y="85.669"/><use x="22.006" xlink:href="#C" y="85.669"/><use x="25.3" xlink:href="#y" y="85.669"/><use x="29.063" xlink:href="#z" y="85.669"/></g><use x="33.537" xlink:href="#C" y="85.669"/><g><use x="39.651" xlink:href="#z" y="85.669"/><use x="44.356" xlink:href="#D" y="85.669"/><use x="48.591" xlink:href="#F" y="85.669"/><use x="50.943" xlink:href="#G" y="85.669"/><use x="54.283" xlink:href="#y" y="85.669"/></g><path d="m178.293 17c0-8.227-6.668-14.895-14.895-14.895-8.226 0-14.894 6.668-14.894 14.895s6.668 14.895 14.894 14.895c8.227 0 14.895-6.668 14.895-14.895zm0 0" fill="#66b2b2"/><use x="153.727" xlink:href="#a" y="19.813"/><use x="153.857" xlink:href="#c" y="19.813"/><g><use x="159.554" xlink:href="#m" y="21.308"/><use x="162.667" xlink:href="#l" y="21.308"/><use x="166.209" xlink:href="#j" y="21.308"/><use x="170.181" xlink:href="#n" y="21.308"/></g><path d="m61.96 59.415h-69.039" fill="none" stroke="#000" stroke-miterlimit="10" stroke-width=".79701" transform="matrix(1 0 0 -1 85.438 76.415)"/><path d="m-1.555 2.071c.129-.777 1.555-1.941 1.945-2.07-.39-.129-1.816-1.297-1.945-2.074" style="fill:none;stroke-width:.6376;stroke-linecap:round;stroke-linejoin:round;stroke:#000;stroke-miterlimit:10" transform="matrix(1 0 0 -1 147.399 17.001)"/><use x="96.027" xlink:href="#e" y="10.792"/><g><use x="101.039" xlink:href="#o" y="12.286"/><use x="105.439" xlink:href="#j" y="12.286"/><use x="109.411" xlink:href="#p" y="12.286"/><use x="112.524" xlink:href="#j" y="12.286"/></g><use x="116.994" xlink:href="#q" y="10.792"/><use x="120.735" xlink:href="#a" y="10.792"/><use x="120.865" xlink:href="#c" y="10.792"/><use x="126.562" xlink:href="#r" y="10.792"/><path d="m242.016 46.707c0-5.09-4.13-9.219-9.223-9.219-5.09 0-9.219 4.13-9.219 9.219 0 5.094 4.13 9.223 9.219 9.223a9.222 9.222 0 0 0 9.223-9.223zm0 0" fill="#66b2b2"/><use x="229.812" xlink:href="#a" y="50.267"/><use x="229.942" xlink:href="#c" y="50.267"/><g><use x="315.869" xlink:href="#s" y="50.168"/><use x="319.771" xlink:href="#t" y="50.168"/><use x="324.199" xlink:href="#u" y="50.168"/><use x="329.18" xlink:href="#v" y="50.168"/><use x="331.948" xlink:href="#w" y="50.168"/></g><path d="m156.976 29.708h69.031" fill="none" stroke="#000" stroke-miterlimit="10" stroke-width=".79701" transform="matrix(1 0 0 -1 85.438 76.415)"/><path d="m-1.555 2.071c.129-.777 1.554-1.941 1.945-2.07-.39-.129-1.816-1.297-1.945-2.074" style="fill:none;stroke-width:.6376;stroke-linecap:round;stroke-linejoin:round;stroke:#000;stroke-miterlimit:10" transform="matrix(1 0 0 -1 311.446 46.708)"/><use x="266.297" xlink:href="#f" y="40.499"/><use x="274.822" xlink:href="#q" y="40.499"/><use x="278.563" xlink:href="#a" y="40.499"/><use x="278.693" xlink:href="#c" y="40.499"/><use x="284.39" xlink:href="#r" y="40.499"/><g><use x="252.786" xlink:href="#H" y="55.962"/><use x="257.491" xlink:href="#F" y="55.962"/><use x="259.843" xlink:href="#G" y="55.962"/><use x="263.183" xlink:href="#I" y="55.962"/><use x="266.946" xlink:href="#A" y="55.962"/><use x="270.247" xlink:href="#F" y="55.962"/><use x="272.599" xlink:href="#J" y="55.962"/><use x="279.656" xlink:href="#F" y="55.962"/><use x="282.008" xlink:href="#z" y="55.962"/><use x="286.712" xlink:href="#B" y="55.962"/><use x="290.947" xlink:href="#C" y="55.962"/><use x="294.24" xlink:href="#D" y="55.962"/><use x="298.475" xlink:href="#A" y="55.962"/></g><path d="m208.707 76.414a2.112 2.112 0 1 0 -2.113 2.113 2.115 2.115 0 0 0 2.113-2.113zm-.484-59.414a2.112 2.112 0 1 0 -4.227 0 2.112 2.112 0 1 0 4.227 0zm0 0"/><path d="m119.882 2.165c-10.93 18.582-11.074 36.309-.449 55.063" fill="none" stroke="#000" stroke-dasharray="2.98883 2.98883" stroke-miterlimit="10" stroke-width=".79701" transform="matrix(1 0 0 -1 85.438 76.415)"/><path d="m202.227 35.84a4.01 4.01 0 0 0 -8.02 0 4.01 4.01 0 0 0 8.02 0zm0 0" fill="#ff8000"/><g fill="none" stroke="#000" stroke-miterlimit="10"><path d="m93.734 0h24.906m-25.387 59.416h24.907m-1.176-20.16 20.523-6.453" stroke-width=".79701" transform="matrix(1 0 0 -1 85.438 76.415)"/><path d="m-1.555 2.073c.13-.778 1.555-1.943 1.945-2.07-.39-.132-1.815-1.301-1.945-2.075" stroke-linecap="round" stroke-linejoin="round" stroke-width=".6376" transform="matrix(.95393 .29984 .29984 -.95393 222.944 43.612)"/></g></svg>