<svg xmlns="http://www.w3.org/2000/svg" xmlns:xlink="http://www.w3.org/1999/xlink" width="287.603" height="50.3pt" viewBox="0 0 215.702 50.3"><defs><symbol overflow="visible" id="a"><path style="stroke:none" d="M7.172-6.563a.445.445 0 0 0 .031-.156c0-.093-.047-.093-.25-.093H2.75c-.234 0-.25.015-.313.203l-.546 1.796a.793.793 0 0 0-.032.141s0 .11.125.11c.094 0 .11-.079.125-.11C2.5-5.844 3.016-6.5 4.563-6.5h1.625L.625-.266s-.047.141-.047.172C.578 0 .641 0 .828 0h4.328c.25 0 .25-.016.313-.203l.718-2.203c0-.031.032-.11.032-.14 0-.063-.032-.11-.125-.11-.094 0-.11.031-.172.25C5.484-1.062 5-.344 3.312-.344H1.61Zm0 0"/></symbol><symbol overflow="visible" id="d"><path style="stroke:none" d="M7.063-2.328c.015-.047.046-.11.046-.14 0 0 0-.11-.125-.11-.093 0-.109.062-.125.125-.656 1.469-1.015 2.14-2.718 2.14H2.469c-.11-.015-.14-.03-.14-.109 0-.031 0-.047.046-.219l.688-2.734h.984c.844 0 .844.219.844.469 0 .062 0 .187-.063.484-.016.047-.031.078-.031.11 0 .046.031.109.125.109.078 0 .11-.047.156-.203l.563-2.328c0-.063-.047-.11-.125-.11-.079 0-.11.063-.125.172-.22.766-.391 1-1.313 1h-.937l.593-2.406c.094-.36.11-.39.547-.39h1.407c1.203 0 1.515.28 1.515 1.109 0 .234 0 .25-.047.53 0 .048-.015.126-.015.173 0 .047.03.125.125.125.109 0 .125-.063.14-.25l.203-1.735c.032-.265-.015-.265-.265-.265H2.297c-.188 0-.297 0-.297.203 0 .11.094.11.281.11.375 0 .656 0 .656.171 0 .047 0 .063-.062.25L1.562-.78c-.093.39-.109.469-.906.469-.172 0-.281 0-.281.187C.375 0 .469 0 .656 0h5.172c.234 0 .25-.016.313-.172Zm0 0"/></symbol><symbol overflow="visible" id="g"><path style="stroke:none" d="M5.734-5.672c0-.75-.546-1.36-1.359-1.36-.578 0-.86.157-1.203.407C2.625-6.219 2.078-5.25 1.89-4.5L.297 1.828c0 .047.047.11.125.11s.11-.032.11-.047l.702-2.766c.188.61.625.969 1.36.969.719 0 1.469-.344 1.922-.781a2.486 2.486 0 0 0 .796-1.829c0-.718-.375-1.25-.734-1.484.578-.344 1.156-.953 1.156-1.672ZM3.938-4.016c-.126.047-.235.063-.485.063-.14 0-.328.015-.437-.031.03-.11.39-.079.5-.079.203 0 .296 0 .421.047Zm1.234-1.89c0 .703-.375 1.422-.89 1.734-.282-.11-.47-.125-.766-.125-.22 0-.782-.016-.782.313 0 .28.516.25.688.25.375 0 .531 0 .828-.125.375.359.422.671.438 1.125.015.578-.22 1.328-.5 1.718-.391.532-1.063.891-1.625.891-.766 0-1.141-.578-1.141-1.281 0-.094 0-.25.047-.438l.64-2.515c.22-.86.938-2.454 2.141-2.454.578 0 .922.313.922.907Zm0 0"/></symbol><symbol overflow="visible" id="i"><path style="stroke:none" d="M2.297-3.5a6.05 6.05 0 0 0 .156-.64c0-.173-.125-.266-.297-.266-.015 0-.297.015-.39.36L.328 1.718c-.031.125-.031.14-.031.172 0 .14.11.265.281.265.203 0 .328-.187.344-.219.047-.078.172-.609.547-2.14.328.266.781.312.968.312.704 0 1.094-.453 1.329-.734a.904.904 0 0 0 .906.734c.344 0 .578-.234.734-.546.172-.36.297-.97.297-.985 0-.11-.094-.11-.125-.11-.094 0-.11.048-.14.188-.157.64-.344 1.235-.75 1.235-.266 0-.297-.266-.297-.454 0-.218.109-.687.187-1.046l.281-1.079c.032-.14.141-.515.172-.671.047-.235.157-.61.157-.672 0-.172-.141-.266-.297-.266-.047 0-.313.016-.391.344l-.469 1.875c-.11.5-.218.906-.25 1.015-.015.047-.484.954-1.297.954-.5 0-.734-.329-.734-.875 0-.282.063-.563.14-.844Zm0 0"/></symbol><symbol overflow="visible" id="j"><path style="stroke:none" d="M5.156-3.719c.14 0 .5 0 .5-.344 0-.234-.218-.234-.39-.234H2.984c-1.5 0-2.609 1.64-2.609 2.828C.375-.594.969.11 1.875.11c1.172 0 2.5-1.203 2.5-2.734 0-.172 0-.656-.313-1.094ZM1.891-.109C1.39-.11 1-.47 1-1.188c0-.296.11-1.109.469-1.703.422-.687 1.015-.828 1.36-.828.827 0 .905.656.905.969 0 .469-.203 1.281-.53 1.797-.392.578-.938.844-1.313.844Zm0 0"/></symbol><symbol overflow="visible" id="o"><path style="stroke:none" d="M3.656-3.984h.86c.203 0 .296 0 .296-.204 0-.109-.093-.109-.265-.109h-.828l.203-1.14c.047-.204.187-.907.25-1.032.078-.187.25-.343.469-.343.03 0 .296 0 .484.187a.557.557 0 0 0-.547.531c0 .235.188.36.375.36.266 0 .547-.235.547-.61 0-.453-.453-.687-.86-.687-.343 0-.968.187-1.265 1.172-.063.203-.094.312-.328 1.562h-.688c-.203 0-.312 0-.312.188 0 .125.094.125.281.125h.656L2.25-.047c-.188.969-.36 1.875-.875 1.875-.047 0-.281 0-.484-.187.468-.032.562-.391.562-.532 0-.234-.187-.359-.375-.359-.266 0-.547.234-.547.61 0 .437.438.687.844.687.547 0 .953-.594 1.125-.969.328-.625.547-1.828.563-1.906Zm0 0"/></symbol><symbol overflow="visible" id="b"><path style="stroke:none" d="M3.031-.563a3.35 3.35 0 0 0-.11.407c0 .156.126.218.235.218.14 0 .25-.078.281-.14a3.17 3.17 0 0 0 .126-.438c.03-.125.109-.453.156-.625.031-.156.078-.312.11-.468.077-.297.077-.313.218-.532.219-.343.578-.734 1.11-.734.39 0 .421.313.421.484 0 .422-.297 1.188-.422 1.485-.062.203-.093.265-.093.375 0 .375.296.594.656.594.703 0 1-.954 1-1.063 0-.094-.078-.094-.11-.094-.093 0-.093.047-.125.125-.156.563-.468.844-.734.844-.156 0-.188-.094-.188-.25s.047-.25.172-.563c.079-.218.36-.953.36-1.343 0-.11 0-.406-.25-.61a1.17 1.17 0 0 0-.657-.187c-.625 0-1 .422-1.234.703-.047-.594-.547-.703-.906-.703-.578 0-.969.36-1.172.64-.047-.484-.453-.64-.75-.64s-.453.219-.547.375c-.156.265-.25.656-.25.703 0 .078.094.078.125.078.094 0 .094-.016.14-.203.11-.406.25-.75.516-.75.188 0 .235.156.235.344 0 .125-.063.39-.125.578-.047.187-.11.469-.14.625l-.235.89C.828-.344.78-.171.78-.156c0 .156.125.218.235.218a.377.377 0 0 0 .28-.14c.032-.063.079-.297.126-.438.031-.125.11-.453.14-.625.047-.156.094-.312.125-.468.079-.282.094-.344.297-.625.188-.282.516-.641 1.047-.641.39 0 .406.36.406.484 0 .172-.015.266-.124.657Zm0 0"/></symbol><symbol overflow="visible" id="f"><path style="stroke:none" d="M3.047-2.672c-.25.047-.344.235-.344.39 0 .188.14.266.266.266.156 0 .39-.109.39-.453 0-.469-.53-.61-.906-.61-1.047 0-2.015.97-2.015 1.938 0 .594.406 1.204 1.28 1.204 1.188 0 1.735-.688 1.735-.782 0-.047-.062-.125-.125-.125-.031 0-.047.016-.11.078-.546.641-1.359.641-1.484.641-.5 0-.718-.344-.718-.781 0-.188.093-.953.453-1.438.265-.344.625-.531.984-.531.094 0 .422.016.594.203Zm0 0"/></symbol><symbol overflow="visible" id="h"><path style="stroke:none" d="M3.703-2.578c.031-.094.031-.125.031-.14 0-.157-.125-.22-.234-.22a.351.351 0 0 0-.328.266.817.817 0 0 0-.719-.406c-.86 0-1.781.937-1.781 1.937C.672-.42 1.156 0 1.734 0c.329 0 .625-.156.875-.375L2.453.25c-.078.297-.125.484-.39.719-.313.25-.61.25-.782.25-.312 0-.406-.016-.531-.047A.383.383 0 0 0 .969.828c0-.172-.125-.25-.266-.25A.407.407 0 0 0 .297 1c0 .422.61.422 1 .422 1.094 0 1.547-.563 1.656-.953ZM2.75-.922c-.031.094-.031.11-.156.25-.235.297-.578.485-.844.485-.344 0-.516-.313-.516-.672 0-.297.188-1.079.375-1.391.282-.484.61-.625.844-.625.5 0 .625.516.625.594 0 .015 0 .015-.015.094Zm0 0"/></symbol><symbol overflow="visible" id="l"><path style="stroke:none" d="M4.953-4.813c0-.03-.031-.093-.094-.093-.046 0-.046.015-.14.11l-.344.39c-.266-.375-.703-.5-1.125-.5-.984 0-1.86.797-1.86 1.61 0 .093.032.374.235.64.234.265.5.328.969.453.14.031.484.11.594.14.218.047.64.204.64.72 0 .562-.594 1.234-1.375 1.234-.625 0-1.36-.22-1.36-.985 0-.078.016-.234.048-.36v-.03c0-.094-.079-.094-.11-.094-.093 0-.11.016-.125.14L.546-.046a.234.234 0 0 0-.03.11c0 .03.03.078.109.078.031 0 .047-.016.14-.094.079-.094.25-.313.329-.39C1.469.062 2 .14 2.422.14c1.062 0 1.906-.907 1.906-1.735 0-.297-.125-.578-.281-.734-.234-.25-.344-.281-1.25-.5-.14-.031-.375-.078-.438-.11-.171-.062-.468-.234-.468-.624 0-.563.625-1.11 1.343-1.11.766 0 1.125.422 1.125 1.078 0 .094-.03.25-.03.313 0 .11.077.11.124.11.094 0 .11-.048.125-.157Zm0 0"/></symbol><symbol overflow="visible" id="n"><path style="stroke:none" d="M5.813-4c.062-.266.187-.5.734-.516.031 0 .14 0 .14-.14 0-.047-.03-.11-.109-.11-.219 0-.484.032-.719.032-.171 0-.562-.032-.734-.032-.031 0-.14 0-.14.157 0 .093.093.093.156.093.328.016.437.125.437.297 0 .047 0 .094-.031.157l-.75 3.046L3.03-4.64c-.062-.125-.078-.125-.25-.125h-.953c-.125 0-.219 0-.219.157 0 .093.079.093.235.093.14 0 .297.016.437.047L1.36-.75c-.062.266-.187.484-.734.5-.047 0-.14 0-.14.14 0 .079.046.11.093.11.235 0 .5-.031.735-.031.171 0 .562.031.734.031.078 0 .14-.031.14-.14 0-.11-.078-.11-.156-.11-.437-.016-.437-.203-.437-.297 0-.031 0-.062.015-.172l.907-3.562 2.03 4.156C4.595 0 4.626 0 4.704 0c.11 0 .11-.016.14-.14Zm0 0"/></symbol><symbol overflow="visible" id="p"><path style="stroke:none" d="M2.39-2.25h.735c.531 0 .625.094.625.313 0 .109 0 .125-.047.328a.262.262 0 0 0-.031.078c0 .062.062.11.125.11.094 0 .094-.048.14-.173l.376-1.468c0-.032.015-.126.015-.141 0-.078-.047-.11-.11-.11-.093 0-.109.047-.14.172-.14.547-.344.641-.937.641h-.688l.438-1.75c.046-.203.062-.234.343-.234h1.079c.921 0 1.093.218 1.093.812 0 .219-.031.375-.031.422 0 .063.031.125.125.125.11 0 .11-.063.125-.188l.125-1.203c.016-.218-.031-.218-.203-.218H1.828c-.14 0-.219 0-.219.156 0 .094.079.094.22.094 0 0 .14 0 .265.015.14.016.156.032.156.094a.462.462 0 0 1-.031.156l-.906 3.64c-.079.282-.079.329-.625.329-.11 0-.204 0-.204.14 0 .079.047.11.11.11.203 0 .719-.031.922-.031l.53.015c.188 0 .376.016.548.016.047 0 .156 0 .156-.156 0-.094-.078-.094-.234-.094-.016 0-.188 0-.375-.016C2-.28 1.937-.28 1.937-.39c0-.015 0-.046.016-.125Zm0 0"/></symbol><symbol overflow="visible" id="r"><path style="stroke:none" d="M4.984-3.938c.25-.374.485-.546.86-.578.078 0 .156 0 .156-.14 0-.032-.016-.11-.094-.11-.172 0-.39.032-.562.032-.219 0-.516-.032-.719-.032-.063 0-.14.032-.14.157 0 .093.093.093.124.093.22.016.282.11.282.204 0 .109-.047.171-.125.28L2.484-.655l-.64-3.563c-.016-.062-.016-.078-.016-.11 0-.187.39-.187.438-.187.125 0 .218 0 .218-.14a.117.117 0 0 0-.125-.11c-.203 0-.687.032-.89.032-.172 0-.61-.032-.782-.032-.062 0-.14.032-.14.157 0 .093.094.093.172.093.39 0 .406.047.437.235l.766 4.234c.016.14.031.188.156.188.14 0 .172-.047.25-.157Zm0 0"/></symbol><symbol overflow="visible" id="c"><path style="stroke:none" d="M3.297 2.39c0-.03 0-.046-.172-.218C1.891.922 1.562-.968 1.562-2.5c0-1.734.375-3.469 1.61-4.703.125-.125.125-.14.125-.172 0-.078-.031-.11-.094-.11-.11 0-1 .688-1.594 1.954C1.11-4.438.984-3.328.984-2.5c0 .781.11 1.984.657 3.125C2.25 1.844 3.094 2.5 3.203 2.5c.063 0 .094-.031.094-.11Zm0 0"/></symbol><symbol overflow="visible" id="e"><path style="stroke:none" d="M2.875-2.5c0-.766-.11-1.969-.656-3.11C1.625-6.827.766-7.483.672-7.483a.107.107 0 0 0-.11.109c0 .031 0 .047.188.234.984.985 1.547 2.563 1.547 4.641C2.297-.78 1.937.97.703 2.22c-.14.125-.14.14-.14.172 0 .062.046.109.109.109.094 0 1-.688 1.578-1.953.516-1.094.625-2.203.625-3.047Zm0 0"/></symbol><symbol overflow="visible" id="k"><path style="stroke:none" d="M6.844-3.266c.156 0 .343 0 .343-.187 0-.203-.187-.203-.328-.203H.891c-.141 0-.329 0-.329.203 0 .187.188.187.329.187Zm.015 1.938c.141 0 .329 0 .329-.203 0-.188-.188-.188-.344-.188H.89c-.141 0-.329 0-.329.188 0 .203.188.203.329.203Zm0 0"/></symbol><symbol overflow="visible" id="m"><path style="stroke:none" d="M2.688-.438a2.93 2.93 0 0 0-.079.313c0 .11.094.188.188.188a.29.29 0 0 0 .25-.172c0-.032.062-.266.094-.391.156-.672.156-.688.171-.703.063-.125.422-.828 1.032-.828.25 0 .343.125.343.36 0 .28-.203.796-.312 1.077a.433.433 0 0 0-.047.203c0 .266.25.454.531.454.532 0 .813-.657.813-.782 0-.062-.078-.062-.11-.062-.078 0-.078.015-.109.11-.094.296-.328.562-.562.562-.125 0-.157-.079-.157-.188 0-.11.016-.156.063-.266.094-.203.312-.765.312-1.046 0-.375-.265-.594-.734-.594s-.781.281-.984.547c-.047-.5-.547-.547-.75-.547-.485 0-.766.297-.938.5-.016-.438-.484-.5-.61-.5-.5 0-.64.765-.64.765 0 .079.078.079.11.079.078 0 .093-.032.109-.094.078-.297.187-.578.406-.578.156 0 .203.156.203.265 0 .063-.062.25-.078.391a2.557 2.557 0 0 0-.11.438L.97-.484a5.845 5.845 0 0 0-.078.359c0 .11.093.188.187.188.063 0 .172-.047.234-.172 0-.032.063-.266.094-.391.016-.078.078-.297.094-.344.016-.11.047-.219.078-.328 0-.031.188-.39.438-.61.078-.062.28-.25.609-.25.25 0 .344.141.344.36 0 .11-.047.313-.094.453Zm0 0"/></symbol><symbol overflow="visible" id="A"><path style="stroke:none" d="M4.594-1.188a.165.165 0 0 0 .031-.078c0-.03-.016-.093-.094-.093s-.078.015-.14.14c-.36.766-.641 1-1.532 1h-1c-.046 0-.109 0-.156-.015 0-.047 0-.047.016-.094l.328-1.313h.64c.485 0 .5.079.5.235 0 .047 0 .093-.03.218v.047s0 .079.093.079c.078 0 .094-.032.11-.11l.296-1.125v-.078c0-.016-.015-.078-.094-.078-.093 0-.093.031-.124.11-.11.405-.266.468-.735.468h-.61L2.376-3c.047-.156.047-.156.25-.156h.969c.719 0 .922.11.922.64 0 .063-.016.157-.016.235 0 .062.047.094.11.094.093 0 .093-.047.109-.141l.078-.89.016-.079c0-.094-.079-.094-.172-.094H1.547c-.094 0-.172 0-.172.141 0 .094.063.094.188.094.046 0 .218 0 .312.031 0 .047 0 .063-.016.125L1.22-.406c-.047.14-.047.187-.438.187-.125 0-.203 0-.203.14C.578 0 .656 0 .75 0h3.172c.125 0 .125 0 .172-.094Zm0 0"/></symbol><symbol overflow="visible" id="B"><path style="stroke:none" d="M4.766-2.844c.03-.125.078-.328.53-.344.048 0 .126 0 .126-.124 0-.032-.016-.094-.078-.094-.094 0-.188.015-.282.015h-.578c-.093 0-.187-.015-.28-.015-.032 0-.126 0-.126.14 0 .079.078.079.125.079.328.015.36.109.36.203 0 .03-.016.062-.016.093L4-.75 2.5-3.313c-.047-.093-.047-.093-.172-.093h-.765c-.11 0-.188 0-.188.14 0 .079.078.079.188.079.015 0 .218 0 .343.03L1.25-.561c-.031.14-.078.328-.547.343-.031 0-.125 0-.125.14 0 .032.047.079.094.079.078 0 .187-.016.281-.016h.578c.094 0 .188.016.282.016.062 0 .125-.031.125-.14 0-.079-.079-.079-.141-.079-.234-.015-.344-.078-.344-.187 0-.047.016-.078.031-.125l.625-2.5L3.813-.094C3.874 0 3.89 0 3.953 0c.094 0 .11-.031.125-.125Zm0 0"/></symbol><symbol overflow="visible" id="F"><path style="stroke:none" d="M2.125-1.094c.078 0 .203 0 .203-.125 0-.093-.094-.093-.172-.093H1.11c.157-.422.532-.61.985-.61h.25c.078 0 .187 0 .187-.125 0-.094-.078-.094-.172-.094h-.265c-.688 0-1.531.422-1.531 1.188 0 .578.484 1.015 1.171 1.015.063 0 .235 0 .485-.093 0 0 .344-.11.344-.203 0-.047-.032-.125-.079-.125-.03 0-.03 0-.093.03-.188.11-.407.22-.641.22-.188 0-.719-.079-.719-.704 0-.015 0-.14.016-.28Zm0 0"/></symbol><symbol overflow="visible" id="H"><path style="stroke:none" d="M.5.781C.469.86.469.891.469.906c0 .11.094.172.187.172.203 0 .235-.172.266-.281l.265-1.063a.792.792 0 0 0 .641.329c.703 0 1.438-.672 1.438-1.391 0-.531-.407-.875-.922-.875-.578 0-1.219.453-1.375 1.125Zm1.328-.89a.555.555 0 0 1-.562-.454c0-.015.14-.578.14-.578.219-.765.719-.89.938-.89.203 0 .469.125.469.531 0 .203-.094.672-.266.938-.203.312-.5.453-.719.453Zm0 0"/></symbol><symbol overflow="visible" id="I"><path style="stroke:none" d="M4.188-2.781c.046-.047.046-.063.109-.125.078-.11.234-.25.547-.281.062 0 .14 0 .14-.126 0-.03-.015-.093-.078-.093-.078 0-.156.015-.218.015h-.516c-.078 0-.188-.015-.281-.015-.079 0-.125.062-.125.14 0 .079.093.079.125.079.078.015.203.03.203.124 0 .047-.016.11-.094.204L2.25-.47 1.672-3v-.078c0-.078.156-.11.328-.11.063 0 .14 0 .14-.124 0-.047-.015-.094-.078-.094-.109 0-.234.015-.343.015h-.672c-.094 0-.203-.015-.297-.015-.031 0-.11 0-.11.14 0 .079.063.079.157.079.297 0 .297.046.328.14L1.797-.03c.031.093.047.14.172.14.062 0 .125 0 .203-.109Zm0 0"/></symbol><symbol overflow="visible" id="q"><path style="stroke:none" d="M5.281-1.172h-.25c0 .016-.062.344-.125.516-.031.11-.062.156-.484.156h-.594c.11-.39.313-.656.703-1.172.344-.469.657-.922.657-1.484 0-.953-1.016-1.75-2.344-1.75-1.344 0-2.36.797-2.36 1.75 0 .61.344 1.062.829 1.719.203.265.421.578.53.937H1.25C.844-.5.812-.547.781-.625a3.502 3.502 0 0 1-.14-.547H.39L.64 0h1.265c.14 0 .188 0 .188-.156 0-.5-.25-1.094-.406-1.438-.266-.61-.454-1.062-.454-1.578 0-.984.782-1.531 1.61-1.531.812 0 1.594.547 1.594 1.531 0 .531-.204 1-.438 1.547-.156.344-.422.969-.422 1.469 0 .156.031.156.203.156h1.25Zm0 0"/></symbol><symbol overflow="visible" id="s"><path style="stroke:none" d="M3.734-1.344h-.203C3.453-.766 3.328-.219 2.36-.219h-.625C1.5-.219 1.5-.25 1.5-.406V-2.97c0-.156 0-.219.469-.219h.218v-.218c-.28.015-.64.015-.937.015-.297 0-.578 0-.844-.015v.219h.156c.407 0 .407.046.407.203v2.562c0 .156 0 .203-.406.203H.405V0h3.172Zm0 0"/></symbol><symbol overflow="visible" id="t"><path style="stroke:none" d="M2.61-1.484c0-.47-.5-.75-1.126-.75-.296 0-.875.015-.875.437 0 .188.141.266.266.266.125 0 .25-.094.25-.266a.269.269 0 0 0-.11-.219c.173-.046.407-.046.454-.046.437 0 .687.234.687.593v.125c-.469.016-.75.032-1.125.172-.328.11-.625.328-.625.656 0 .454.578.579.985.579.375 0 .671-.157.828-.422.031.187.14.39.39.39.032 0 .61 0 .61-.484V-.72H3v.266c0 .047 0 .266-.188.266-.203 0-.203-.22-.203-.266Zm-.454.78c0 .548-.594.595-.719.595-.296 0-.562-.157-.562-.407 0-.171.094-.625 1.281-.687Zm0 0"/></symbol><symbol overflow="visible" id="u"><path style="stroke:none" d="M1.656.75h-.093c-.329 0-.329-.047-.329-.203v-.781c.22.187.485.296.766.296.766 0 1.375-.515 1.375-1.14 0-.594-.547-1.125-1.281-1.125-.406 0-.703.14-.875.281v-.281l-.844.062v.22c.36 0 .422 0 .422.202V.547c0 .156 0 .203-.328.203H.375v.219c.219-.016.422-.016.64-.016.204 0 .423 0 .641.016Zm-.422-2.406c.22-.297.594-.375.797-.375.485 0 .844.453.844.953 0 .547-.406.969-.906.969a.848.848 0 0 1-.657-.313c-.078-.094-.078-.094-.078-.203Zm0 0"/></symbol><symbol overflow="visible" id="v"><path style="stroke:none" d="m1.25-3.453-.844.047v.219c.375 0 .422.03.422.28v2.485c0 .156 0 .203-.328.203H.406V0c.219-.016.422-.016.625-.016.219 0 .422 0 .64.016v-.219h-.093c-.328 0-.328-.047-.328-.203Zm0 0"/></symbol><symbol overflow="visible" id="w"><path style="stroke:none" d="M2.234-2.016c-.062.063-.109.141-.109.22 0 .171.125.265.266.265.125 0 .265-.078.265-.266 0-.422-.547-.437-.906-.437-.969 0-1.39.656-1.39 1.156 0 .625.578 1.14 1.328 1.14.875 0 1.03-.609 1.03-.656 0-.078-.062-.078-.093-.078-.078 0-.094.016-.11.078-.171.422-.53.469-.75.469-.437 0-.906-.281-.906-.953 0-.219.047-.5.235-.703.234-.266.531-.266.687-.266.14 0 .282 0 .453.031Zm0 0"/></symbol><symbol overflow="visible" id="x"><path style="stroke:none" d="M2.578-1.125c.11 0 .14 0 .14-.11 0-.343-.171-1-1.109-1-.75 0-1.28.547-1.28 1.141C.328-.469.937.063 1.687.063c.796 0 1.03-.563 1.03-.657 0-.078-.077-.078-.093-.078-.078 0-.094.016-.125.078-.125.344-.5.469-.781.469a.89.89 0 0 1-.703-.313C.828-.671.828-.984.828-1.125Zm-1.75-.156c.063-.657.547-.782.781-.782.688 0 .735.641.735.782Zm0 0"/></symbol><symbol overflow="visible" id="y"><path style="stroke:none" d="M1.266-3.078c0-.156-.141-.297-.313-.297a.297.297 0 0 0-.297.297.3.3 0 0 0 .297.312c.172 0 .313-.14.313-.312Zm-.829.937v.22c.344 0 .391.03.391.265v1.234c0 .156 0 .203-.328.203H.406V0c.219-.016.422-.016.625-.016.188 0 .407 0 .594.016v-.219c-.328 0-.375 0-.375-.203v-1.781Zm0 0"/></symbol><symbol overflow="visible" id="z"><path style="stroke:none" d="M2.984-1.5c0-.547-.375-.703-.828-.703-.531 0-.812.297-.937.484v-.484l-.813.062v.22c.375 0 .422.03.422.265v1.234c0 .156 0 .203-.328.203H.406V0c.219-.016.422-.016.64-.016.204 0 .423 0 .641.016v-.219h-.093c-.328 0-.328-.047-.328-.203v-.86c0-.562.515-.75.828-.75.375 0 .453.204.453.516v1.094c0 .156 0 .203-.328.203H2.14V0c.203-.016.421-.016.625-.016.218 0 .421 0 .64.016v-.219h-.094c-.328 0-.328-.047-.328-.203Zm0 0"/></symbol><symbol overflow="visible" id="C"><path style="stroke:none" d="M2.297-1.938c.234-.14.453-.156.547-.156-.016.016-.047.047-.047.125 0 .094.062.172.187.172.11 0 .188-.078.188-.172 0-.14-.11-.297-.344-.297-.125 0-.39.032-.656.235a1.321 1.321 0 0 0-.64-.172c-.595 0-1 .344-1 .734 0 .25.187.438.25.5a.67.67 0 0 0-.141.406.57.57 0 0 0 .218.454C.61-.047.313.125.313.39c0 .39.656.64 1.375.64.671 0 1.39-.218 1.39-.656a.637.637 0 0 0-.375-.578c-.328-.172-.656-.172-1.187-.172H1.14C.906-.406.859-.609.859-.703s.047-.172.063-.172h.031c.203.11.39.14.563.14.593 0 1-.359 1-.734a.655.655 0 0 0-.22-.468ZM1.53-.905c-.437 0-.562-.281-.562-.563 0-.281.125-.562.547-.562.437 0 .562.281.562.562 0 .266-.125.563-.547.563Zm0 .922c.5 0 1.203 0 1.203.375 0 .234-.453.468-1.046.468C1.125.86.655.641.655.375c0-.156.172-.36.547-.36Zm0 0"/></symbol><symbol overflow="visible" id="D"><path style="stroke:none" d="M2.11-3.406v.219c.359 0 .406.03.406.28v.97c-.11-.094-.375-.266-.797-.266-.735 0-1.36.5-1.36 1.125 0 .61.563 1.14 1.313 1.14.406 0 .687-.187.828-.312v.313L3.36 0v-.219c-.376 0-.422-.031-.422-.281v-2.953Zm.39 2.86a.937.937 0 0 1-.813.437.826.826 0 0 1-.656-.313C.875-.64.86-.922.86-1.078c0-.125.016-.453.22-.688a.996.996 0 0 1 .687-.265c.14 0 .5.015.734.36Zm0 0"/></symbol><symbol overflow="visible" id="E"><path style="stroke:none" d="M1.219-1.11c0-.468.265-.921.734-.921 0 0-.062.062-.062.172 0 .171.14.25.25.25.125 0 .25-.079.25-.25 0-.188-.188-.344-.454-.344-.25 0-.562.125-.75.547h-.015v-.547l-.797.062v.22c.375 0 .422.03.422.265v1.234c0 .156 0 .203-.328.203H.375V0c.219-.016.438-.016.64-.016.266 0 .516 0 .72.016v-.219h-.141c-.375 0-.375-.047-.375-.203Zm0 0"/></symbol><symbol overflow="visible" id="G"><path style="stroke:none" d="M4.438-1.703c.078 0 .203 0 .203-.14 0-.141-.157-.141-.22-.141H.704c-.078 0-.219 0-.219.14s.125.14.188.14ZM4.421-.516c.062 0 .219 0 .219-.14s-.125-.14-.204-.14H.672c-.063 0-.188 0-.188.14s.141.14.22.14Zm0 0"/></symbol></defs><use xlink:href="#a" x="4.914" y="10.973" style="fill:#000;fill-opacity:1"/><use xlink:href="#b" x="11.714" y="12.467" style="fill:#000;fill-opacity:1"/><use xlink:href="#c" x="19.282" y="10.973" style="fill:#000;fill-opacity:1"/><use xlink:href="#d" x="23.157" y="10.973" style="fill:#000;fill-opacity:1"/><use xlink:href="#e" x="31.085" y="10.973" style="fill:#000;fill-opacity:1"/><use xlink:href="#a" x="98.692" y="10.973" style="fill:#000;fill-opacity:1"/><use xlink:href="#f" x="105.493" y="12.467" style="fill:#000;fill-opacity:1"/><use xlink:href="#c" x="109.551" y="10.973" style="fill:#000;fill-opacity:1"/><use xlink:href="#g" x="113.426" y="10.973" style="fill:#000;fill-opacity:1"/><use xlink:href="#e" x="119.587" y="10.973" style="fill:#000;fill-opacity:1"/><use xlink:href="#a" x="187.194" y="10.793" style="fill:#000;fill-opacity:1"/><use xlink:href="#h" x="193.994" y="12.287" style="fill:#000;fill-opacity:1"/><use xlink:href="#c" x="198.63" y="10.793" style="fill:#000;fill-opacity:1"/><use xlink:href="#i" x="202.504" y="10.793" style="fill:#000;fill-opacity:1"/><use xlink:href="#e" x="208.507" y="10.793" style="fill:#000;fill-opacity:1"/><use xlink:href="#j" x="3.321" y="43.526" style="fill:#000;fill-opacity:1"/><use xlink:href="#k" x="12.138" y="43.526" style="fill:#000;fill-opacity:1"/><use xlink:href="#l" x="23.85" y="39.441" style="fill:#000;fill-opacity:1"/><use xlink:href="#m" x="28.742" y="40.438" style="fill:#000;fill-opacity:1"/><path style="fill:none;stroke-width:.398;stroke-linecap:butt;stroke-linejoin:miter;stroke:#000;stroke-opacity:1;stroke-miterlimit:10" d="M.002 0h11.503" transform="matrix(1 0 0 -1 23.85 41.035)"/><use xlink:href="#n" x="26.074" y="46.962" style="fill:#000;fill-opacity:1"/><use xlink:href="#o" x="96.735" y="43.364" style="fill:#000;fill-opacity:1"/><use xlink:href="#k" x="105.453" y="43.364" style="fill:#000;fill-opacity:1"/><use xlink:href="#p" x="117.631" y="39.441" style="fill:#000;fill-opacity:1"/><path style="fill:none;stroke-width:.398;stroke-linecap:butt;stroke-linejoin:miter;stroke:#000;stroke-opacity:1;stroke-miterlimit:10" d="M0 .002h7.06" transform="matrix(1 0 0 -1 117.164 40.873)"/><use xlink:href="#n" x="117.164" y="46.8" style="fill:#000;fill-opacity:1"/><use xlink:href="#q" x="196.944" y="39.621" style="fill:#000;fill-opacity:1"/><path style="fill:none;stroke-width:.398;stroke-linecap:butt;stroke-linejoin:miter;stroke:#000;stroke-opacity:1;stroke-miterlimit:10" d="M.001-.002H6.42" transform="matrix(1 0 0 -1 196.577 41.053)"/><use xlink:href="#r" x="196.577" y="46.979" style="fill:#000;fill-opacity:1"/><path style="fill:none;stroke-width:.3985;stroke-linecap:butt;stroke-linejoin:miter;stroke:#000;stroke-opacity:1;stroke-miterlimit:10" d="M0-8.502v-13.715" transform="matrix(1 0 0 -1 19.937 8.482)"/><path style="fill:none;stroke-width:.31879;stroke-linecap:round;stroke-linejoin:round;stroke:#000;stroke-opacity:1;stroke-miterlimit:10" d="M-1.194 1.594C-1.097.997 0 .098.298 0 0-.1-1.097-.996-1.194-1.593" transform="matrix(0 1 1 0 19.937 30.698)"/><path style="fill:none;stroke-width:.3985;stroke-linecap:butt;stroke-linejoin:miter;stroke:#000;stroke-opacity:1;stroke-miterlimit:10" d="M91.141-8.502v-13.715" transform="matrix(1 0 0 -1 19.937 8.482)"/><path style="fill:none;stroke-width:.31879;stroke-linecap:round;stroke-linejoin:round;stroke:#000;stroke-opacity:1;stroke-miterlimit:10" d="M-1.194 1.594C-1.097.996 0 .098.298 0 0-.102-1.097-.996-1.194-1.594" transform="matrix(0 1 1 0 111.078 30.698)"/><path style="fill:none;stroke-width:.3985;stroke-linecap:butt;stroke-linejoin:miter;stroke:#000;stroke-opacity:1;stroke-miterlimit:10" d="M179.852-8.682v-13.715" transform="matrix(1 0 0 -1 19.937 8.482)"/><path style="fill:none;stroke-width:.31879;stroke-linecap:round;stroke-linejoin:round;stroke:#000;stroke-opacity:1;stroke-miterlimit:10" d="M-1.195 1.593C-1.097.995.001.1.298-.001 0-.099-1.097-.997-1.195-1.595" transform="matrix(0 1 1 0 199.79 30.878)"/><path style="fill:none;stroke-width:.3985;stroke-linecap:butt;stroke-linejoin:miter;stroke:#000;stroke-opacity:1;stroke-miterlimit:10" d="M18.543.002h56.235" transform="matrix(1 0 0 -1 19.937 8.482)"/><path style="fill:none;stroke-width:.31879;stroke-linecap:round;stroke-linejoin:round;stroke:#000;stroke-opacity:1;stroke-miterlimit:10" d="M-1.196 1.595C-1.094.998 0 .1.3.002 0-.1-1.094-.995-1.196-1.592" transform="matrix(1 0 0 -1 94.715 8.482)"/><g style="fill:#000;fill-opacity:1"><use xlink:href="#s" x="47.592" y="15.461"/><use xlink:href="#t" x="51.729" y="15.461"/><use xlink:href="#u" x="55.12" y="15.461"/><use xlink:href="#v" x="58.856" y="15.461"/><use xlink:href="#t" x="60.862" y="15.461"/><use xlink:href="#w" x="64.252" y="15.461"/><use xlink:href="#x" x="67.297" y="15.461"/></g><g style="fill:#000;fill-opacity:1"><use xlink:href="#y" x="72.692" y="15.461"/><use xlink:href="#z" x="74.698" y="15.461"/></g><use xlink:href="#A" x="80.788" y="15.461" style="fill:#000;fill-opacity:1"/><path style="fill:none;stroke-width:.3985;stroke-linecap:butt;stroke-linejoin:miter;stroke:#000;stroke-opacity:1;stroke-miterlimit:10" d="M107.047.002h56.235" transform="matrix(1 0 0 -1 19.937 8.482)"/><path style="fill:none;stroke-width:.31879;stroke-linecap:round;stroke-linejoin:round;stroke:#000;stroke-opacity:1;stroke-miterlimit:10" d="M-1.195 1.595C-1.097.998.001.1.298.002 0-.1-1.097-.995-1.195-1.592" transform="matrix(1 0 0 -1 183.218 8.482)"/><g style="fill:#000;fill-opacity:1"><use xlink:href="#s" x="135.779" y="15.461"/><use xlink:href="#t" x="139.916" y="15.461"/><use xlink:href="#u" x="143.307" y="15.461"/><use xlink:href="#v" x="147.043" y="15.461"/><use xlink:href="#t" x="149.049" y="15.461"/><use xlink:href="#w" x="152.439" y="15.461"/><use xlink:href="#x" x="155.484" y="15.461"/></g><g style="fill:#000;fill-opacity:1"><use xlink:href="#y" x="160.879" y="15.461"/><use xlink:href="#z" x="162.885" y="15.461"/></g><use xlink:href="#B" x="168.974" y="15.461" style="fill:#000;fill-opacity:1"/><path style="fill:none;stroke-width:.3985;stroke-linecap:butt;stroke-linejoin:miter;stroke:#000;stroke-opacity:1;stroke-miterlimit:10" d="m20.137-32.319 52.684.047" transform="matrix(1 0 0 -1 19.937 8.482)"/><path style="fill:none;stroke-width:.31879;stroke-linecap:round;stroke-linejoin:round;stroke:#000;stroke-opacity:1;stroke-miterlimit:10" d="M-1.195 1.595C-1.097.998 0 .098.3 0 0-.1-1.095-.995-1.197-1.592" transform="matrix(.99998 -.00089 -.00089 -.99998 92.758 40.755)"/><g style="fill:#000;fill-opacity:1"><use xlink:href="#s" x="37.734" y="34.501"/><use xlink:href="#x" x="41.871" y="34.501"/><use xlink:href="#C" x="44.916" y="34.501"/><use xlink:href="#x" x="48.306" y="34.501"/><use xlink:href="#z" x="51.35" y="34.501"/><use xlink:href="#D" x="55.086" y="34.501"/><use xlink:href="#E" x="58.822" y="34.501"/><use xlink:href="#x" x="61.52" y="34.501"/></g><g style="fill:#000;fill-opacity:1"><use xlink:href="#y" x="66.915" y="34.501"/><use xlink:href="#z" x="68.922" y="34.501"/></g><use xlink:href="#F" x="75.011" y="34.501" style="fill:#000;fill-opacity:1"/><use xlink:href="#G" x="80.105" y="34.501" style="fill:#000;fill-opacity:1"/><use xlink:href="#A" x="88.772" y="32.571" style="fill:#000;fill-opacity:1"/><path style="fill:none;stroke-width:.398;stroke-linecap:butt;stroke-linejoin:miter;stroke:#000;stroke-opacity:1;stroke-miterlimit:10" d="M0-.002h5.902" transform="matrix(1 0 0 -1 88.457 33.256)"/><use xlink:href="#B" x="88.457" y="37.258" style="fill:#000;fill-opacity:1"/><path style="fill:none;stroke-width:.3985;stroke-linecap:butt;stroke-linejoin:miter;stroke:#000;stroke-opacity:1;stroke-miterlimit:10" d="m109-32.291 62.47-.13" transform="matrix(1 0 0 -1 19.937 8.482)"/><path style="fill:none;stroke-width:.31879;stroke-linecap:round;stroke-linejoin:round;stroke:#000;stroke-opacity:1;stroke-miterlimit:10" d="M-1.194 1.594C-1.096.997 0 .101.297 0 0-.1-1.095-.995-1.196-1.593" transform="matrix(.99997 .00203 .00203 -.99997 191.406 40.901)"/><g style="fill:#000;fill-opacity:1"><use xlink:href="#s" x="131.21" y="34.562"/><use xlink:href="#x" x="135.347" y="34.562"/><use xlink:href="#C" x="138.392" y="34.562"/><use xlink:href="#x" x="141.782" y="34.562"/><use xlink:href="#z" x="144.826" y="34.562"/><use xlink:href="#D" x="148.562" y="34.562"/><use xlink:href="#E" x="152.298" y="34.562"/><use xlink:href="#x" x="154.996" y="34.562"/></g><g style="fill:#000;fill-opacity:1"><use xlink:href="#y" x="160.391" y="34.562"/><use xlink:href="#z" x="162.398" y="34.562"/></g><use xlink:href="#H" x="168.487" y="34.562" style="fill:#000;fill-opacity:1"/><use xlink:href="#G" x="174.141" y="34.562" style="fill:#000;fill-opacity:1"/><use xlink:href="#B" x="182.493" y="32.632" style="fill:#000;fill-opacity:1"/><path style="fill:none;stroke-width:.398;stroke-linecap:butt;stroke-linejoin:miter;stroke:#000;stroke-opacity:1;stroke-miterlimit:10" d="M0 0h5.902" transform="matrix(1 0 0 -1 182.493 33.316)"/><use xlink:href="#I" x="182.69" y="37.318" style="fill:#000;fill-opacity:1"/></svg>