<svg xmlns="http://www.w3.org/2000/svg" xmlns:xlink="http://www.w3.org/1999/xlink" width="303.425" height="303.425" viewBox="0 0 227.569 227.569"><defs><symbol overflow="visible" id="b"><path style="stroke:none" d="M2.234-3.516v-2.578c0-.234 0-.36.22-.39.093-.016.39-.016.593-.016.89 0 2 .047 2 1.484 0 .688-.234 1.5-1.703 1.5Zm2.11.125c.953-.234 1.734-.843 1.734-1.625 0-.953-1.14-1.796-2.594-1.796H.344v.312h.25c.765 0 .781.11.781.469v5.25c0 .36-.016.469-.781.469h-.25V0c.36-.031 1.078-.031 1.453-.031.39 0 1.11 0 1.469.031v-.313h-.25c-.766 0-.782-.109-.782-.468v-2.516h1.141c.156 0 .578 0 .938.344.375.344.375.656.375 1.328 0 .64 0 1.047.406 1.422.406.36.953.422 1.25.422.781 0 .953-.813.953-1.094 0-.063 0-.172-.125-.172-.11 0-.11.094-.125.156C6.984-.17 6.64 0 6.39 0c-.485 0-.563-.516-.704-1.438l-.14-.796c-.172-.641-.656-.97-1.203-1.157Zm0 0"/></symbol><symbol overflow="visible" id="c"><path style="stroke:none" d="M1.11-2.516C1.171-4 2.015-4.25 2.36-4.25c1.015 0 1.124 1.344 1.124 1.734Zm0 .22h2.78c.22 0 .25 0 .25-.22 0-.984-.546-1.953-1.78-1.953-1.158 0-2.08 1.032-2.08 2.282C.281-.86 1.328.108 2.47.108 3.688.11 4.14-1 4.14-1.187c0-.094-.079-.125-.141-.125-.078 0-.11.062-.125.14C3.531-.14 2.625-.14 2.531-.14c-.5 0-.89-.296-1.125-.671-.297-.47-.297-1.125-.297-1.485Zm0 0"/></symbol><symbol overflow="visible" id="d"><path style="stroke:none" d="M3.297 2.39c0-.03 0-.046-.172-.218C1.891.922 1.562-.968 1.562-2.5c0-1.734.375-3.469 1.61-4.703.125-.125.125-.14.125-.172 0-.078-.031-.11-.094-.11-.11 0-1 .688-1.594 1.954C1.11-4.438.984-3.328.984-2.5c0 .781.11 1.984.657 3.125C2.25 1.844 3.094 2.5 3.203 2.5c.063 0 .094-.031.094-.11Zm0 0"/></symbol><symbol overflow="visible" id="g"><path style="stroke:none" d="M2.875-2.5c0-.766-.11-1.969-.656-3.11C1.625-6.827.766-7.483.672-7.483a.107.107 0 0 0-.11.109c0 .031 0 .047.188.234.984.985 1.547 2.563 1.547 4.641C2.297-.78 1.937.97.703 2.22c-.14.125-.14.14-.14.172 0 .062.046.109.109.109.094 0 1-.688 1.578-1.953.516-1.094.625-2.203.625-3.047Zm0 0"/></symbol><symbol overflow="visible" id="h"><path style="stroke:none" d="M2.25-6.031c0-.36.016-.469.813-.469h.25v-.313c-.344.032-1.126.032-1.516.032-.375 0-1.172 0-1.516-.032v.313h.25c.797 0 .828.11.828.469v5.25c0 .36-.03.469-.828.469h-.25V0c.344-.031 1.14-.031 1.516-.031.39 0 1.172 0 1.516.031v-.313h-.25c-.797 0-.813-.109-.813-.468Zm0 0"/></symbol><symbol overflow="visible" id="i"><path style="stroke:none" d="M1.094-3.422V-.75c0 .438-.11.438-.782.438V0c.36-.016.86-.031 1.141-.031.25 0 .766.015 1.11.031v-.313c-.672 0-.782 0-.782-.437v-1.844c0-1.031.719-1.594 1.344-1.594.64 0 .75.532.75 1.11V-.75c0 .438-.11.438-.781.438V0c.344-.016.86-.031 1.125-.031.25 0 .781.015 1.11.031v-.313c-.657 0-.766 0-.766-.437v-1.844c0-1.031.703-1.594 1.343-1.594.625 0 .735.532.735 1.11V-.75c0 .438-.11.438-.782.438V0c.344-.016.86-.031 1.125-.031.266 0 .782.015 1.125.031v-.313c-.515 0-.765 0-.78-.296v-1.907c0-.859 0-1.156-.313-1.515-.141-.172-.47-.375-1.047-.375-.828 0-1.282.593-1.438.984-.14-.875-.875-.984-1.328-.984-.734 0-1.203.422-1.484 1.047v-1.047l-1.407.11v.312c.704 0 .782.062.782.562Zm0 0"/></symbol><symbol overflow="visible" id="p"><path style="stroke:none" d="M4.578-3.188c0-.796-.047-1.593-.39-2.328C3.733-6.484 2.905-6.64 2.5-6.64c-.61 0-1.328.266-1.75 1.188-.313.687-.36 1.469-.36 2.266 0 .75.032 1.64.454 2.406a1.83 1.83 0 0 0 1.64 1c.532 0 1.297-.203 1.735-1.157.312-.687.36-1.468.36-2.25ZM2.484 0c-.39 0-.984-.25-1.156-1.203-.11-.594-.11-1.516-.11-2.11 0-.64 0-1.296.079-1.828.187-1.187.937-1.28 1.187-1.28.329 0 .985.187 1.172 1.171.11.563.11 1.313.11 1.938 0 .75 0 1.421-.11 2.062C3.5-.297 2.937 0 2.484 0Zm0 0"/></symbol><symbol overflow="visible" id="s"><path style="stroke:none" d="M1.719-3.75v-.656l-1.438.11v.312c.703 0 .781.062.781.5v4.656c0 .453-.109.453-.78.453v.313c.343-.016.859-.032 1.109-.032.28 0 .78.016 1.125.032v-.313c-.657 0-.766 0-.766-.453V-.594c.047.172.469.703 1.219.703 1.187 0 2.219-.984 2.219-2.265 0-1.266-.954-2.25-2.079-2.25-.78 0-1.203.437-1.39.656Zm.031 2.61v-2.22c.281-.515.766-.796 1.281-.796.735 0 1.328.875 1.328 2C4.36-.953 3.672-.11 2.938-.11c-.407 0-.782-.204-1.047-.61-.141-.203-.141-.219-.141-.422Zm0 0"/></symbol><symbol overflow="visible" id="t"><path style="stroke:none" d="M4.688-2.14c0-1.266-.985-2.329-2.188-2.329C1.25-4.469.281-3.375.281-2.14A2.22 2.22 0 0 0 2.484.11c1.204 0 2.204-.984 2.204-2.25ZM2.5-.14c-.438 0-.875-.204-1.14-.672-.25-.438-.25-1.047-.25-1.407 0-.39 0-.922.234-1.36a1.347 1.347 0 0 1 1.14-.671c.438 0 .86.219 1.125.656.266.422.266 1 .266 1.375 0 .36 0 .906-.219 1.344-.234.453-.672.734-1.156.734Zm0 0"/></symbol><symbol overflow="visible" id="u"><path style="stroke:none" d="m1.766-6.922-1.438.11v.312c.703 0 .781.063.781.563V-.75c0 .438-.109.438-.78.438V0c.327-.016.859-.031 1.109-.031s.734.015 1.109.031v-.313c-.672 0-.781 0-.781-.437Zm0 0"/></symbol><symbol overflow="visible" id="v"><path style="stroke:none" d="M2.078-1.938c.219.047 1.031.204 1.031.922 0 .5-.343.907-1.125.907-.843 0-1.203-.563-1.39-1.422-.031-.125-.031-.157-.14-.157-.126 0-.126.063-.126.235v1.328c0 .172 0 .234.11.234C.483.11.5.094.688-.094.703-.109.703-.125.89-.312c.437.406.89.421 1.093.421 1.141 0 1.61-.671 1.61-1.39 0-.516-.297-.828-.422-.938-.328-.328-.719-.406-1.14-.484-.563-.11-1.22-.235-1.22-.813 0-.359.25-.765 1.11-.765 1.094 0 1.156.906 1.172 1.203 0 .094.094.094.11.094.14 0 .14-.047.14-.235v-1.015c0-.157 0-.235-.11-.235-.046 0-.078 0-.203.125a1.676 1.676 0 0 1-.172.157c-.375-.282-.78-.282-.937-.282-1.219 0-1.594.672-1.594 1.235 0 .343.156.625.422.843.328.25.61.313 1.328.454Zm0 0"/></symbol><symbol overflow="visible" id="w"><path style="stroke:none" d="M1.75-4.297v-1.156c0-.875.469-1.36.906-1.36.031 0 .188 0 .328.079a.443.443 0 0 0-.296.421c0 .22.156.422.437.422s.438-.203.438-.437c0-.375-.376-.703-.907-.703-.687 0-1.547.531-1.547 1.593v1.141H.33v.313h.78V-.75c0 .438-.109.438-.765.438V0c.39-.016.86-.031 1.125-.031.406 0 .875 0 1.265.031v-.313h-.203c-.734 0-.75-.109-.75-.468v-3.203h1.125v-.313Zm0 0"/></symbol><symbol overflow="visible" id="e"><path style="stroke:none" d="M.453 1.219c-.078.343-.11.406-.547.406-.11 0-.218 0-.218.188 0 .078.046.125.124.125.266 0 .563-.032.829-.032.343 0 .671.032 1 .032.046 0 .171 0 .171-.204 0-.109-.093-.109-.234-.109-.5 0-.5-.063-.5-.156 0-.125.422-1.75.484-2 .125.297.407.64.922.64 1.157 0 2.407-1.453 2.407-2.921 0-.938-.579-1.594-1.329-1.594-.5 0-.984.36-1.312.75-.094-.547-.531-.75-.89-.75-.47 0-.657.39-.735.562-.188.344-.313.938-.313.969 0 .11.094.11.11.11.11 0 .11-.016.172-.235.172-.703.375-1.188.734-1.188.172 0 .313.079.313.454 0 .234-.032.343-.079.515Zm1.75-4.328c.063-.266.344-.547.516-.704.36-.296.64-.374.812-.374.39 0 .64.343.64.937 0 .594-.327 1.734-.515 2.11-.344.702-.812 1.03-1.187 1.03-.656 0-.781-.828-.781-.89 0-.016 0-.031.03-.156Zm0 0"/></symbol><symbol overflow="visible" id="r"><path style="stroke:none" d="M7.578-6.922c0-.031-.016-.11-.11-.11-.03 0-.046.016-.155.126l-.688.765c-.094-.14-.547-.89-1.656-.89C2.734-7.031.5-4.828.5-2.516.5-.875 1.672.22 3.203.22c.86 0 1.625-.39 2.156-.86.922-.812 1.094-1.718 1.094-1.75 0-.109-.11-.109-.125-.109-.062 0-.11.031-.125.11-.094.28-.328 1-1.016 1.578-.687.546-1.312.718-1.828.718-.89 0-1.953-.515-1.953-2.062 0-.578.203-2.188 1.203-3.36.61-.703 1.547-1.203 2.438-1.203 1.016 0 1.61.766 1.61 1.922 0 .406-.032.406-.032.516 0 .093.11.093.14.093.126 0 .126-.015.188-.203Zm0 0"/></symbol><symbol overflow="visible" id="x"><path style="stroke:none" d="M2.86-6.813s0-.109-.126-.109c-.234 0-.953.078-1.218.11-.079 0-.188.015-.188.187 0 .125.094.125.234.125.485 0 .5.063.5.172l-.03.203L.593-.391C.547-.25.547-.234.547-.17c0 .234.203.28.297.28a.407.407 0 0 0 .36-.265l.187-.75.218-.89c.063-.235.125-.454.172-.673.016-.062.11-.39.11-.453.03-.094.343-.64.687-.922.219-.156.516-.344.953-.344.422 0 .531.344.531.704 0 .53-.375 1.625-.609 2.234-.078.219-.14.344-.14.547 0 .469.359.812.828.812.937 0 1.296-1.453 1.296-1.53 0-.11-.078-.11-.109-.11-.11 0-.11.031-.156.187-.14.532-.469 1.235-1.016 1.235-.172 0-.234-.094-.234-.329 0-.25.078-.484.172-.703.156-.437.61-1.625.61-2.203 0-.64-.391-1.062-1.141-1.062-.626 0-1.11.312-1.485.765Zm0 0"/></symbol><symbol overflow="visible" id="f"><path style="stroke:none" d="M3.594-2.219c0-.765-.094-1.328-.406-1.812-.22-.313-.657-.594-1.204-.594C.36-4.625.36-2.719.36-2.219c0 .5 0 2.36 1.625 2.36 1.61 0 1.61-1.86 1.61-2.36ZM1.984-.063c-.328 0-.75-.187-.89-.75C1-1.219 1-1.796 1-2.313c0-.515 0-1.046.094-1.421.156-.547.593-.704.89-.704.375 0 .735.235.86.641.11.375.125.875.125 1.485 0 .515 0 1.03-.094 1.468-.14.64-.61.781-.89.781Zm0 0"/></symbol><symbol overflow="visible" id="y"><path style="stroke:none" d="M2.328-4.438c0-.187 0-.187-.203-.187-.453.438-1.078.438-1.36.438v.25c.157 0 .626 0 1-.188v3.547c0 .234 0 .328-.687.328H.812V0c.125 0 .985-.031 1.235-.031.219 0 1.094.031 1.25.031v-.25H3.03c-.703 0-.703-.094-.703-.328Zm0 0"/></symbol><symbol overflow="visible" id="z"><path style="stroke:none" d="M3.516-1.266H3.28c-.015.157-.094.563-.187.625-.047.047-.578.047-.688.047h-1.28c.734-.64.984-.844 1.39-1.172.516-.406 1-.843 1-1.5 0-.843-.734-1.359-1.624-1.359-.86 0-1.454.61-1.454 1.25 0 .344.297.39.376.39a.365.365 0 0 0 .359-.374c0-.125-.047-.375-.406-.375.218-.485.687-.641 1.015-.641.703 0 1.063.547 1.063 1.11 0 .609-.438 1.078-.656 1.328L.516-.266C.437-.203.437-.187.437 0h2.876Zm0 0"/></symbol><symbol overflow="visible" id="A"><path style="stroke:none" d="M1.906-2.328c.547 0 .938.375.938 1.125 0 .86-.516 1.125-.906 1.125-.282 0-.907-.078-1.188-.5.328 0 .406-.235.406-.39 0-.22-.172-.376-.39-.376a.38.38 0 0 0-.391.407C.375-.281 1.094.14 1.938.14c.968 0 1.64-.657 1.64-1.344 0-.547-.437-1.094-1.203-1.25.719-.266.984-.781.984-1.219 0-.547-.625-.953-1.406-.953-.766 0-1.36.375-1.36.938 0 .234.157.359.36.359.219 0 .36-.156.36-.344 0-.203-.141-.36-.36-.375.25-.297.719-.375.985-.375.312 0 .75.156.75.75 0 .297-.094.625-.282.828-.219.266-.422.281-.765.313-.172.015-.188.015-.22.015-.015 0-.077.016-.077.094 0 .094.062.094.187.094Zm0 0"/></symbol><symbol overflow="visible" id="B"><path style="stroke:none" d="M3.688-1.14v-.25h-.782V-4.5c0-.14 0-.203-.14-.203-.094 0-.125 0-.188.11L.266-1.392v.25h2.062v.563c0 .25 0 .328-.578.328h-.188V0c.36-.016.797-.031 1.047-.031.266 0 .704.015 1.063.031v-.25h-.188c-.578 0-.578-.078-.578-.328v-.563ZM2.375-3.939v2.547H.531Zm0 0"/></symbol><symbol overflow="visible" id="j"><path style="stroke:none" d="M2.266-4.36a.276.276 0 0 0-.282-.265c-.187 0-.39.188-.39.39 0 .11.078.266.281.266.188 0 .39-.203.39-.39ZM.844-.811C.813-.72.78-.641.78-.516c0 .329.266.579.656.579.688 0 1-.954 1-1.063 0-.094-.093-.094-.109-.094-.094 0-.11.047-.14.125-.157.563-.454.844-.735.844-.14 0-.172-.094-.172-.25s.047-.281.11-.438c.078-.187.156-.375.218-.562.063-.172.329-.797.344-.89A.5.5 0 0 0 2-2.486c0-.328-.281-.593-.656-.593C.64-3.078.328-2.125.328-2c0 .078.094.078.125.078.094 0 .094-.031.125-.11.172-.593.485-.843.735-.843.109 0 .171.047.171.234 0 .172-.03.266-.203.704Zm0 0"/></symbol><symbol overflow="visible" id="k"><path style="stroke:none" d="M4.766-2.578c0-.203-.094-.5-.375-.5-.172 0-.36.219-.36.39 0 .235.375.282.375.75 0 .454-.453 1.454-1.234 1.454a.75.75 0 0 1-.703-.547c.094-.14.25-.625.25-.813 0-.093-.063-.203-.172-.203-.36 0-.39.75-.39 1-.188.25-.548.563-1 .563-.376 0-.641-.344-.641-.813 0-.812.703-1.484.703-1.594 0-.078-.063-.156-.14-.156-.063 0-.11.031-.157.094a2.59 2.59 0 0 0-.266.406c-.25.422-.422 1-.422 1.516 0 .547.22 1.093.86 1.093.468 0 .875-.296 1.125-.671.14.421.437.671.89.671C4.33.063 4.766-2 4.766-2.578Zm0 0"/></symbol><symbol overflow="visible" id="l"><path style="stroke:none" d="M4.39-1.11c.079 0 .204 0 .204-.14s-.125-.14-.203-.14H1.016c-.079 0-.22 0-.22.14s.141.14.22.14Zm0 0"/></symbol><symbol overflow="visible" id="m"><path style="stroke:none" d="M1.64-1.656c.47 0 .766.297.766.781 0 .516-.312.781-.75.781-.062 0-.656 0-.906-.265.203-.032.266-.172.266-.297A.304.304 0 0 0 .703-.97c-.156 0-.297.11-.297.328 0 .516.578.75 1.266.75.812 0 1.312-.5 1.312-.984 0-.406-.359-.75-.921-.875.593-.203.75-.578.75-.86 0-.406-.5-.703-1.126-.703-.625 0-1.109.25-1.109.704a.28.28 0 0 0 .281.296.284.284 0 0 0 .282-.296c0-.11-.063-.25-.235-.282.203-.218.656-.234.766-.234.36 0 .61.172.61.516 0 .296-.188.75-.704.78-.14 0-.156 0-.297.016-.047 0-.11 0-.11.079 0 .078.048.078.141.078Zm0 0"/></symbol><symbol overflow="visible" id="n"><path style="stroke:none" d="M2.938-.969h-.22c0 .094-.062.406-.14.453-.031.032-.453.032-.531.032h-.969c.328-.235.688-.516.984-.72.454-.312.876-.593.876-1.124 0-.64-.61-.985-1.313-.985-.672 0-1.172.376-1.172.876 0 .25.219.296.297.296a.283.283 0 0 0 .281-.296.27.27 0 0 0-.281-.282c.14-.234.438-.375.766-.375.484 0 .89.281.89.766 0 .422-.297.75-.672 1.062L.516-.234c-.047.047-.063.047-.063.078V0h2.313Zm0 0"/></symbol><symbol overflow="visible" id="o"><path style="stroke:none" d="M1.984-3.172c0-.14-.015-.14-.187-.14C1.453-3 .89-3 .797-3H.719v.219h.078c.11 0 .437-.016.734-.14v2.5c0 .14 0 .202-.531.202H.75V0c.266-.016.719-.016 1-.016.297 0 .734 0 1.016.016v-.219h-.25c-.532 0-.532-.062-.532-.203Zm0 0"/></symbol><clipPath id="a"><path d="M224 111h3.57v6H224Zm0 0"/></clipPath><clipPath id="q"><path d="M74 0h80v227.57H74Zm0 0"/></clipPath></defs><path style="fill:none;stroke-width:.79701;stroke-linecap:butt;stroke-linejoin:miter;stroke:#000;stroke-opacity:1;stroke-miterlimit:10" d="M-113.386 0h226.067" transform="matrix(1 0 0 -1 113.784 113.785)"/><g clip-path="url(#a)"><path style="fill:none;stroke-width:.6376;stroke-linecap:round;stroke-linejoin:round;stroke:#000;stroke-opacity:1;stroke-miterlimit:10" d="M-1.554 2.074C-1.424 1.297.001.13.388 0 0-.13-1.425-1.297-1.554-2.07" transform="matrix(1 0 0 -1 226.464 113.785)"/></g><g style="fill:#000;fill-opacity:1"><use xlink:href="#b" x="194.459" y="107.575"/><use xlink:href="#c" x="201.792" y="107.575"/><use xlink:href="#d" x="206.22" y="107.575"/></g><use xlink:href="#e" x="210.095" y="107.575" style="fill:#000;fill-opacity:1"/><use xlink:href="#f" x="215.107" y="109.069" style="fill:#000;fill-opacity:1"/><use xlink:href="#g" x="219.577" y="107.575" style="fill:#000;fill-opacity:1"/><path style="fill:none;stroke-width:.79701;stroke-linecap:butt;stroke-linejoin:miter;stroke:#000;stroke-opacity:1;stroke-miterlimit:10" d="M.001-104.883v209.059" transform="matrix(1 0 0 -1 113.784 113.785)"/><path style="fill:none;stroke-width:.6376;stroke-linecap:round;stroke-linejoin:round;stroke:#000;stroke-opacity:1;stroke-miterlimit:10" d="M-1.555 2.073C-1.426 1.296 0 .128.39 0 0-.131-1.426-1.294-1.555-2.071" transform="matrix(0 -1 -1 0 113.784 9.609)"/><g style="fill:#000;fill-opacity:1"><use xlink:href="#h" x="46.571" y="19.898"/><use xlink:href="#i" x="50.168" y="19.898"/><use xlink:href="#d" x="58.47" y="19.898"/></g><use xlink:href="#e" x="62.345" y="19.898" style="fill:#000;fill-opacity:1"/><use xlink:href="#f" x="67.358" y="21.392" style="fill:#000;fill-opacity:1"/><use xlink:href="#g" x="71.827" y="19.898" style="fill:#000;fill-opacity:1"/><path style="fill:none;stroke-width:.09962;stroke-linecap:butt;stroke-linejoin:miter;stroke:gray;stroke-opacity:1;stroke-miterlimit:10" d="M-2.835 96.379h-31.531" transform="matrix(1 0 0 -1 113.784 113.785)"/><path style="fill-rule:nonzero;fill:#000;fill-opacity:1;stroke-width:.79701;stroke-linecap:butt;stroke-linejoin:miter;stroke:#000;stroke-opacity:1;stroke-miterlimit:10" d="M.997-85.04a.995.995 0 1 1-1.99.002.995.995 0 0 1 1.99-.001Zm0 0" transform="matrix(1 0 0 -1 113.784 113.785)"/><use xlink:href="#j" x="117.503" y="199.416" style="fill:#000;fill-opacity:1"/><use xlink:href="#k" x="120.775" y="199.416" style="fill:#000;fill-opacity:1"/><use xlink:href="#l" x="125.794" y="202.017" style="fill:#000;fill-opacity:1"/><use xlink:href="#m" x="131.191" y="202.017" style="fill:#000;fill-opacity:1"/><path style="fill-rule:nonzero;fill:#000;fill-opacity:1;stroke-width:.79701;stroke-linecap:butt;stroke-linejoin:miter;stroke:#000;stroke-opacity:1;stroke-miterlimit:10" d="M.997-56.695c0 .55-.445 1-.996 1a.999.999 0 0 1 0-1.997c.55 0 .996.45.996.997Zm0 0" transform="matrix(1 0 0 -1 113.784 113.785)"/><use xlink:href="#j" x="117.503" y="171.069" style="fill:#000;fill-opacity:1"/><use xlink:href="#k" x="120.775" y="171.069" style="fill:#000;fill-opacity:1"/><use xlink:href="#l" x="125.794" y="173.67" style="fill:#000;fill-opacity:1"/><use xlink:href="#n" x="131.191" y="173.67" style="fill:#000;fill-opacity:1"/><path style="fill-rule:nonzero;fill:#000;fill-opacity:1;stroke-width:.79701;stroke-linecap:butt;stroke-linejoin:miter;stroke:#000;stroke-opacity:1;stroke-miterlimit:10" d="M.997-28.348a.995.995 0 1 1-1.99.002.995.995 0 0 1 1.99-.002Zm0 0" transform="matrix(1 0 0 -1 113.784 113.785)"/><use xlink:href="#j" x="117.503" y="142.723" style="fill:#000;fill-opacity:1"/><use xlink:href="#k" x="120.775" y="142.723" style="fill:#000;fill-opacity:1"/><use xlink:href="#l" x="125.794" y="145.324" style="fill:#000;fill-opacity:1"/><use xlink:href="#o" x="131.191" y="145.324" style="fill:#000;fill-opacity:1"/><path style="fill-rule:nonzero;fill:#000;fill-opacity:1;stroke-width:.79701;stroke-linecap:butt;stroke-linejoin:miter;stroke:#000;stroke-opacity:1;stroke-miterlimit:10" d="M.997 28.348a.995.995 0 1 1-1.99.001.995.995 0 0 1 1.99-.002Zm0 0" transform="matrix(1 0 0 -1 113.784 113.785)"/><use xlink:href="#j" x="117.503" y="86.5" style="fill:#000;fill-opacity:1"/><use xlink:href="#k" x="120.775" y="86.5" style="fill:#000;fill-opacity:1"/><use xlink:href="#o" x="125.794" y="88.991" style="fill:#000;fill-opacity:1"/><path style="fill-rule:nonzero;fill:#000;fill-opacity:1;stroke-width:.79701;stroke-linecap:butt;stroke-linejoin:miter;stroke:#000;stroke-opacity:1;stroke-miterlimit:10" d="M.997 56.695a.998.998 0 0 1-.996.996.995.995 0 1 1 .996-.996Zm0 0" transform="matrix(1 0 0 -1 113.784 113.785)"/><use xlink:href="#j" x="117.503" y="58.154" style="fill:#000;fill-opacity:1"/><use xlink:href="#k" x="120.775" y="58.154" style="fill:#000;fill-opacity:1"/><use xlink:href="#n" x="125.794" y="60.644" style="fill:#000;fill-opacity:1"/><path style="fill-rule:nonzero;fill:#000;fill-opacity:1;stroke-width:.79701;stroke-linecap:butt;stroke-linejoin:miter;stroke:#000;stroke-opacity:1;stroke-miterlimit:10" d="M.997 85.039a.995.995 0 1 1-1.99.002.995.995 0 0 1 1.99-.002Zm0 0" transform="matrix(1 0 0 -1 113.784 113.785)"/><use xlink:href="#j" x="117.503" y="29.807" style="fill:#000;fill-opacity:1"/><use xlink:href="#k" x="120.775" y="29.807" style="fill:#000;fill-opacity:1"/><use xlink:href="#m" x="125.794" y="32.298" style="fill:#000;fill-opacity:1"/><path style="fill-rule:nonzero;fill:#000;fill-opacity:1;stroke-width:.79701;stroke-linecap:butt;stroke-linejoin:miter;stroke:#000;stroke-opacity:1;stroke-miterlimit:10" d="M.997 0a.995.995 0 1 1-1.99.002A.995.995 0 0 1 .997 0Zm0 0" transform="matrix(1 0 0 -1 113.784 113.785)"/><use xlink:href="#p" x="117.503" y="110.066" style="fill:#000;fill-opacity:1"/><g clip-path="url(#q)"><path style="fill:none;stroke-width:.79701;stroke-linecap:butt;stroke-linejoin:miter;stroke:#009;stroke-opacity:1;stroke-miterlimit:10" d="M28.345-85.04V85.04c0 15.656-12.688 28.348-28.344 28.348s-28.348-12.692-28.348-28.348m0 0V-85.04c0-15.656 12.692-28.348 28.348-28.348 15.656 0 28.344 12.692 28.344 28.348" transform="matrix(1 0 0 -1 113.784 113.785)"/></g><path style="fill:none;stroke-width:.6376;stroke-linecap:round;stroke-linejoin:round;stroke:#009;stroke-opacity:1;stroke-miterlimit:10" d="M-1.553 2.072C-1.424 1.295.002.131.388.002.002-.131-1.424-1.295-1.553-2.072" transform="matrix(0 -1 -1 0 142.13 199.533)"/><path style="fill:none;stroke-width:.6376;stroke-linecap:round;stroke-linejoin:round;stroke:#009;stroke-opacity:1;stroke-miterlimit:10" d="M-1.556 2.072C-1.423 1.295 0 .131.39.002 0-.131-1.423-1.295-1.556-2.072" transform="matrix(0 -1 -1 0 142.13 54.413)"/><path style="fill:none;stroke-width:.6376;stroke-linecap:round;stroke-linejoin:round;stroke:#009;stroke-opacity:1;stroke-miterlimit:10" d="M-1.555 2.07C-1.426 1.294 0 .13.39 0 0-.129-1.426-1.297-1.555-2.074" transform="matrix(0 1 1 0 85.437 59.133)"/><path style="fill:none;stroke-width:.6376;stroke-linecap:round;stroke-linejoin:round;stroke:#009;stroke-opacity:1;stroke-miterlimit:10" d="M-1.554 2.072C-1.424 1.295 0 .128.388-.001 0-.128-1.423-1.296-1.553-2.07" transform="matrix(.21378 .97684 .97684 -.21378 85.941 204.223)"/><use xlink:href="#r" x="145.85" y="39.272" style="fill:#009;fill-opacity:1"/><use xlink:href="#s" x="161.959" y="73.756" style="fill:#000;fill-opacity:1"/><g style="fill:#000;fill-opacity:1"><use xlink:href="#t" x="167.773" y="73.756"/><use xlink:href="#u" x="172.754" y="73.756"/><use xlink:href="#c" x="175.522" y="73.756"/><use xlink:href="#v" x="179.949" y="73.756"/></g><g style="fill:#000;fill-opacity:1"><use xlink:href="#t" x="187.196" y="73.756"/><use xlink:href="#w" x="192.178" y="73.756"/></g><use xlink:href="#x" x="198.544" y="73.756" style="fill:#000;fill-opacity:1"/><use xlink:href="#d" x="204.284" y="73.756" style="fill:#000;fill-opacity:1"/><use xlink:href="#e" x="208.159" y="73.756" style="fill:#000;fill-opacity:1"/><use xlink:href="#f" x="213.171" y="75.25" style="fill:#000;fill-opacity:1"/><use xlink:href="#g" x="217.64" y="73.756" style="fill:#000;fill-opacity:1"/><path style="stroke:none;fill-rule:nonzero;fill:#000;fill-opacity:1" d="M157.715 28.746a1.41 1.41 0 1 0-2.82 0c0 .777.632 1.406 1.41 1.406.777 0 1.41-.629 1.41-1.406Zm0 0"/><use xlink:href="#e" x="161.83" y="29.922" style="fill:#000;fill-opacity:1"/><use xlink:href="#y" x="166.843" y="31.416" style="fill:#000;fill-opacity:1"/><path style="stroke:none;fill-rule:nonzero;fill:#000;fill-opacity:1" d="M171.887 170.48a1.41 1.41 0 0 0-1.41-1.41c-.778 0-1.407.63-1.407 1.41a1.409 1.409 0 0 0 2.816 0Zm0 0"/><use xlink:href="#e" x="165.736" y="180.294" style="fill:#000;fill-opacity:1"/><use xlink:href="#z" x="170.749" y="181.788" style="fill:#000;fill-opacity:1"/><path style="stroke:none;fill-rule:nonzero;fill:#000;fill-opacity:1" d="M30.152 85.438a1.409 1.409 0 1 0-2.816 0 1.409 1.409 0 1 0 2.816 0Zm0 0"/><use xlink:href="#e" x="24.004" y="77.975" style="fill:#000;fill-opacity:1"/><use xlink:href="#A" x="29.016" y="79.469" style="fill:#000;fill-opacity:1"/><path style="stroke:none;fill-rule:nonzero;fill:#000;fill-opacity:1" d="M58.5 156.305a1.41 1.41 0 1 0-1.41 1.41c.777 0 1.41-.633 1.41-1.41Zm0 0"/><use xlink:href="#e" x="52.35" y="148.841" style="fill:#000;fill-opacity:1"/><use xlink:href="#B" x="57.363" y="150.335" style="fill:#000;fill-opacity:1"/><path style="fill:none;stroke-width:.09962;stroke-linecap:butt;stroke-linejoin:miter;stroke:gray;stroke-opacity:1;stroke-miterlimit:10" d="m70.704 51.222-27.027 32.43M76.09 33.82 57.07-54.926M44.458 42.52-83.245 28.543M64.19 33.82-55.167-41.555" transform="matrix(1 0 0 -1 113.784 113.785)"/></svg>