<svg xmlns="http://www.w3.org/2000/svg" width="379.015" height="379.015" viewBox="0 0 284.261 284.261"><path style="stroke:none;fill-rule:nonzero;fill:#66b2b2;fill-opacity:1" d="M283.863 283.863 142.133 142.13h141.73Zm0 0"/><path style="stroke:none;fill-rule:nonzero;fill:#fff766;fill-opacity:1" d="M283.863 283.863 142.133 142.13v14.176L269.69 283.863Zm0 0"/><path style="stroke:none;fill-rule:nonzero;fill:#f66;fill-opacity:1" d="M142.133 142.129v-9.922h141.73v9.922Zm0 0"/><path style="fill:none;stroke-width:.79701;stroke-linecap:butt;stroke-linejoin:miter;stroke:#000;stroke-opacity:1;stroke-miterlimit:10" d="M-141.733-141.733v283.468h283.465v-283.468Zm0 0" transform="matrix(1 0 0 -1 142.131 142.13)"/><path style="fill:none;stroke-width:.79701;stroke-linecap:butt;stroke-linejoin:miter;stroke:#000;stroke-opacity:1;stroke-dasharray:2.98883,2.98883;stroke-miterlimit:10" d="m-141.733-141.733 283.465 283.468m0-283.468-283.465 283.468m0-141.734h283.465M.002-141.733v283.468" transform="matrix(1 0 0 -1 142.131 142.13)"/><path style="fill-rule:nonzero;fill:#fff766;fill-opacity:1;stroke-width:.79701;stroke-linecap:butt;stroke-linejoin:miter;stroke:#000;stroke-opacity:1;stroke-miterlimit:10" d="M-121.893-121.893v17.007h17.008v-17.007Zm0 226.777v17.008h17.008v-17.008Zm226.778-226.777v17.007h17.007v-17.007Zm0 226.777v17.008h17.007v-17.008Zm0 0" transform="matrix(1 0 0 -1 142.131 142.13)"/><path style="fill-rule:nonzero;fill:#f66;fill-opacity:1;stroke-width:.79701;stroke-linecap:butt;stroke-linejoin:miter;stroke:#000;stroke-opacity:1;stroke-miterlimit:10" d="M-90.71.001a8.506 8.506 0 0 1-8.503 8.504 8.506 8.506 0 0 1-8.504-8.504c0-4.7 3.809-8.504 8.504-8.504A8.503 8.503 0 0 1-90.709.001ZM8.506-99.214A8.506 8.506 0 0 1 .002-90.71a8.506 8.506 0 0 1-8.508-8.504c0-4.695 3.809-8.504 8.508-8.504a8.506 8.506 0 0 1 8.504 8.504ZM107.717.001a8.506 8.506 0 0 1-8.504 8.504A8.506 8.506 0 0 1 90.709.001c0-4.7 3.808-8.504 8.504-8.504a8.503 8.503 0 0 1 8.504 8.504ZM8.506 99.212c0 4.7-3.809 8.508-8.504 8.508a8.507 8.507 0 0 1-8.508-8.508c0-4.695 3.809-8.504 8.508-8.504a8.506 8.506 0 0 1 8.504 8.504Zm0 0" transform="matrix(1 0 0 -1 142.131 142.13)"/><path style="fill-rule:nonzero;fill:#66b2b2;fill-opacity:1;stroke-width:.79701;stroke-linecap:butt;stroke-linejoin:miter;stroke:#000;stroke-opacity:1;stroke-miterlimit:10" d="M-21.694 40.349-33.72 52.376l12.027 12.027L-9.67 52.376ZM-52.377 9.67l-12.024 12.026 12.024 12.028 12.027-12.028Zm0-43.392-12.024 12.028 12.024 12.027 12.027-12.027Zm30.683-30.679L-33.72-52.374l12.027 12.024L-9.67-52.374Zm43.391 0L9.67-52.374 21.697-40.35l12.024-12.024Zm30.68 30.679L40.349-21.694 52.377-9.667l12.027-12.027Zm0 43.392L40.349 21.695l12.028 12.028 12.027-12.028Zm-30.68 30.679L9.67 52.376l12.027 12.027 12.024-12.027Zm0 0" transform="matrix(1 0 0 -1 142.131 142.13)"/></svg>