<svg xmlns="http://www.w3.org/2000/svg" width="379.015" height="379.015" viewBox="0 0 284.261 284.261"><path d="M283.863 283.863L142.133 142.13h141.73zm0 0" fill="#4ca6a6"/><path d="M283.863 283.863L142.133 142.13v14.176L269.69 283.863zm0 0" fill="#fff64d"/><path d="M142.133 142.129v-9.922h141.73v9.922zm0 0" fill="#ff4c4c"/><path d="M.398 283.863V.395h283.465v283.468zm0 0" fill="none" stroke-width=".797" stroke="#000" stroke-miterlimit="10"/><path d="M.398 283.863L283.863.395m0 283.468L.398.395m0 141.734h283.465m-141.73 141.734V.395" fill="none" stroke-width=".797" stroke="#000" stroke-dasharray="2.98883,2.98883" stroke-miterlimit="10"/><path d="M20.238 264.023v-17.007h17.008v17.007zm0 0M20.238 37.246V20.238h17.008v17.008zm0 0M247.016 264.023v-17.007h17.007v17.007zm0 0M247.016 37.246V20.238h17.007v17.008zm0 0" fill="#fff64d" stroke-width=".797" stroke="#000" stroke-miterlimit="10"/><path d="M51.422 142.129a8.506 8.506 0 00-8.504-8.504 8.506 8.506 0 00-8.504 8.504c0 4.7 3.809 8.504 8.504 8.504a8.503 8.503 0 008.504-8.504zm0 0M150.637 241.344a8.506 8.506 0 00-8.504-8.504c-4.7 0-8.508 3.808-8.508 8.504 0 4.695 3.809 8.504 8.508 8.504a8.506 8.506 0 008.504-8.504zm0 0M249.848 142.129a8.506 8.506 0 00-8.504-8.504 8.506 8.506 0 00-8.504 8.504c0 4.7 3.808 8.504 8.504 8.504a8.503 8.503 0 008.504-8.504zm0 0M150.637 42.918c0-4.7-3.809-8.508-8.504-8.508a8.507 8.507 0 00-8.508 8.508c0 4.695 3.809 8.504 8.508 8.504a8.506 8.506 0 008.504-8.504zm0 0" fill="#ff4c4c" stroke-width=".797" stroke="#000" stroke-miterlimit="10"/><path d="M120.438 101.781L108.41 89.754l12.028-12.027 12.023 12.027zm0 0M89.754 132.46L77.73 120.435l12.024-12.028 12.027 12.028zm0 0M89.754 175.852L77.73 163.824l12.024-12.027 12.027 12.027zm0 0M120.438 206.531l-12.028-12.027 12.028-12.024 12.023 12.024zm0 0M163.828 206.531l-12.027-12.027 12.027-12.024 12.024 12.024zm0 0M194.508 175.852l-12.028-12.028 12.028-12.027 12.027 12.027zm0 0M194.508 132.46l-12.028-12.026 12.028-12.028 12.027 12.028zm0 0M163.828 101.781l-12.027-12.027 12.027-12.027 12.024 12.027zm0 0" fill="#4ca6a6" stroke-width=".797" stroke="#000" stroke-miterlimit="10"/></svg>