<svg height="379.015" viewBox="0 0 284.261 284.261" width="379.015" xmlns="http://www.w3.org/2000/svg"><path d="m283.863 283.863-141.73-141.733h141.73zm0 0" fill="#66b2b2"/><path d="m283.863 283.863-141.73-141.733v14.176l127.557 127.557zm0 0" fill="#fff766"/><path d="m142.133 142.129v-9.922h141.73v9.922zm0 0" fill="#f66"/><g stroke="#000" stroke-miterlimit="10" stroke-width=".79701" transform="matrix(1 0 0 -1 142.131 142.13)"><path d="m-141.733-141.733v283.468h283.465v-283.468zm0 0" fill="none"/><path d="m-141.733-141.733 283.465 283.468m0-283.468-283.465 283.468m0-141.734h283.465m-141.73-141.734v283.468" fill="none" stroke-dasharray="2.98883 2.98883"/><path d="m-121.893-121.893v17.007h17.008v-17.007zm0 226.777v17.008h17.008v-17.008zm226.778-226.777v17.007h17.007v-17.007zm0 226.777v17.008h17.007v-17.008zm0 0" fill="#fff766"/><path d="m-90.71.001a8.506 8.506 0 0 1 -8.503 8.504 8.506 8.506 0 0 1 -8.504-8.504c0-4.7 3.809-8.504 8.504-8.504a8.503 8.503 0 0 1 8.504 8.504zm99.216-99.215a8.506 8.506 0 0 1 -8.504 8.504 8.506 8.506 0 0 1 -8.508-8.504c0-4.695 3.809-8.504 8.508-8.504a8.506 8.506 0 0 1 8.504 8.504zm99.211 99.215a8.506 8.506 0 0 1 -8.504 8.504 8.506 8.506 0 0 1 -8.504-8.504c0-4.7 3.808-8.504 8.504-8.504a8.503 8.503 0 0 1 8.504 8.504zm-99.211 99.211c0 4.7-3.809 8.508-8.504 8.508a8.507 8.507 0 0 1 -8.508-8.508c0-4.695 3.809-8.504 8.508-8.504a8.506 8.506 0 0 1 8.504 8.504zm0 0" fill="#f66"/><path d="m-21.694 40.349-12.026 12.027 12.027 12.027 12.023-12.027zm-30.683-30.679-12.024 12.026 12.024 12.028 12.027-12.028zm0-43.392-12.024 12.028 12.024 12.027 12.027-12.027zm30.683-30.679-12.026 12.027 12.027 12.024 12.023-12.024zm43.391 0-12.027 12.027 12.027 12.024 12.024-12.024zm30.68 30.679-12.028 12.028 12.028 12.027 12.027-12.027zm0 43.392-12.028 12.025 12.028 12.028 12.027-12.028zm-30.68 30.679-12.027 12.027 12.027 12.027 12.024-12.027zm0 0" fill="#66b2b2"/></g></svg>