<svg height="214.951" viewBox="0 0 202.467 161.213" width="269.956" xmlns="http://www.w3.org/2000/svg" xmlns:xlink="http://www.w3.org/1999/xlink"><clipPath id="a"><path d="m16 31h180v130.215h-180zm0 0"/></clipPath><clipPath id="b"><path d="m13.984 130.328h1.957v1.059h-1.957zm0 0"/></clipPath><clipPath id="c"><path d="m13.984 130.328h4.946v1.059h-4.946zm0 0"/></clipPath><clipPath id="d"><path d="m16.938 130.328h4.98v1.059h-4.98zm0 0"/></clipPath><clipPath id="e"><path d="m19.926 130.328h4.98v1.059h-4.98zm0 0"/></clipPath><clipPath id="f"><path d="m22.914 130.328h4.98v1.059h-4.98zm0 0"/></clipPath><clipPath id="g"><path d="m25.902 130.328h2.258v1.059h-2.258zm0 0"/></clipPath><clipPath id="h"><path d="m13.984 127.34h1.957v4.047h-1.957zm0 0"/></clipPath><clipPath id="i"><path d="m13.984 127.34h4.946v4.047h-4.946zm0 0"/></clipPath><clipPath id="j"><path d="m16.938 127.34h4.98v4.047h-4.98zm0 0"/></clipPath><clipPath id="k"><path d="m19.926 127.34h4.98v4.047h-4.98zm0 0"/></clipPath><clipPath id="l"><path d="m22.914 127.34h4.98v4.047h-4.98zm0 0"/></clipPath><clipPath id="m"><path d="m25.902 127.34h2.258v4.047h-2.258zm0 0"/></clipPath><clipPath id="n"><path d="m13.984 124.352h1.957v4.98h-1.957zm0 0"/></clipPath><clipPath id="o"><path d="m13.984 124.352h4.946v4.98h-4.946zm0 0"/></clipPath><clipPath id="p"><path d="m16.938 124.352h4.98v4.98h-4.98zm0 0"/></clipPath><clipPath id="q"><path d="m19.926 124.352h4.98v4.98h-4.98zm0 0"/></clipPath><clipPath id="r"><path d="m22.914 124.352h4.98v4.98h-4.98zm0 0"/></clipPath><clipPath id="s"><path d="m25.902 124.352h2.258v4.98h-2.258zm0 0"/></clipPath><clipPath id="t"><path d="m13.984 121.363h1.957v4.98h-1.957zm0 0"/></clipPath><clipPath id="u"><path d="m13.984 121.363h4.946v4.98h-4.946zm0 0"/></clipPath><clipPath id="v"><path d="m16.938 121.363h4.98v4.98h-4.98zm0 0"/></clipPath><clipPath id="w"><path d="m19.926 121.363h4.98v4.98h-4.98zm0 0"/></clipPath><clipPath id="x"><path d="m22.914 121.363h4.98v4.98h-4.98zm0 0"/></clipPath><clipPath id="y"><path d="m25.902 121.363h2.258v4.98h-2.258zm0 0"/></clipPath><clipPath id="z"><path d="m13.984 118.375h1.957v4.98h-1.957zm0 0"/></clipPath><clipPath id="A"><path d="m13.984 118.375h4.946v4.98h-4.946zm0 0"/></clipPath><clipPath id="B"><path d="m16.938 118.375h4.98v4.98h-4.98zm0 0"/></clipPath><clipPath id="C"><path d="m19.926 118.375h4.98v4.98h-4.98zm0 0"/></clipPath><clipPath id="D"><path d="m22.914 118.375h4.98v4.98h-4.98zm0 0"/></clipPath><clipPath id="E"><path d="m25.902 118.375h2.258v4.98h-2.258zm0 0"/></clipPath><clipPath id="F"><path d="m13.984 115.383h1.957v4.984h-1.957zm0 0"/></clipPath><clipPath id="G"><path d="m13.984 115.383h4.946v4.984h-4.946zm0 0"/></clipPath><clipPath id="H"><path d="m16.938 115.383h4.98v4.984h-4.98zm0 0"/></clipPath><clipPath id="I"><path d="m19.926 115.383h4.98v4.984h-4.98zm0 0"/></clipPath><clipPath id="J"><path d="m22.914 115.383h4.98v4.984h-4.98zm0 0"/></clipPath><clipPath id="K"><path d="m25.902 115.383h2.258v4.984h-2.258zm0 0"/></clipPath><clipPath id="L"><path d="m13.984 112.395h1.957v4.98h-1.957zm0 0"/></clipPath><clipPath id="M"><path d="m13.984 112.395h4.946v4.98h-4.946zm0 0"/></clipPath><clipPath id="N"><path d="m16.938 112.395h4.98v4.98h-4.98zm0 0"/></clipPath><clipPath id="O"><path d="m19.926 112.395h4.98v4.98h-4.98zm0 0"/></clipPath><clipPath id="P"><path d="m22.914 112.395h4.98v4.98h-4.98zm0 0"/></clipPath><clipPath id="Q"><path d="m25.902 112.395h2.258v4.98h-2.258zm0 0"/></clipPath><clipPath id="R"><path d="m13.984 109.406h1.957v4.98h-1.957zm0 0"/></clipPath><clipPath id="S"><path d="m13.984 109.406h4.946v4.98h-4.946zm0 0"/></clipPath><clipPath id="T"><path d="m16.938 109.406h4.98v4.98h-4.98zm0 0"/></clipPath><clipPath id="U"><path d="m19.926 109.406h4.98v4.98h-4.98zm0 0"/></clipPath><clipPath id="V"><path d="m22.914 109.406h4.98v4.98h-4.98zm0 0"/></clipPath><clipPath id="W"><path d="m25.902 109.406h2.258v4.98h-2.258zm0 0"/></clipPath><clipPath id="X"><path d="m13.984 106.418h1.957v4.98h-1.957zm0 0"/></clipPath><clipPath id="Y"><path d="m13.984 106.418h4.946v4.98h-4.946zm0 0"/></clipPath><clipPath id="Z"><path d="m16.938 106.418h4.98v4.98h-4.98zm0 0"/></clipPath><clipPath id="aa"><path d="m19.926 106.418h4.98v4.98h-4.98zm0 0"/></clipPath><clipPath id="ab"><path d="m22.914 106.418h4.98v4.98h-4.98zm0 0"/></clipPath><clipPath id="ac"><path d="m25.902 106.418h2.258v4.98h-2.258zm0 0"/></clipPath><clipPath id="ad"><path d="m13.984 103.43h1.957v4.98h-1.957zm0 0"/></clipPath><clipPath id="ae"><path d="m13.984 103.43h4.946v4.98h-4.946zm0 0"/></clipPath><clipPath id="af"><path d="m16.938 103.43h4.98v4.98h-4.98zm0 0"/></clipPath><clipPath id="ag"><path d="m19.926 103.43h4.98v4.98h-4.98zm0 0"/></clipPath><clipPath id="ah"><path d="m22.914 103.43h4.98v4.98h-4.98zm0 0"/></clipPath><clipPath id="ai"><path d="m25.902 103.43h2.258v4.98h-2.258zm0 0"/></clipPath><clipPath id="aj"><path d="m13.984 100.441h1.957v4.98h-1.957zm0 0"/></clipPath><clipPath id="ak"><path d="m13.984 100.441h4.946v4.98h-4.946zm0 0"/></clipPath><clipPath id="al"><path d="m16.938 100.441h4.98v4.98h-4.98zm0 0"/></clipPath><clipPath id="am"><path d="m19.926 100.441h4.98v4.98h-4.98zm0 0"/></clipPath><clipPath id="an"><path d="m22.914 100.441h4.98v4.98h-4.98zm0 0"/></clipPath><clipPath id="ao"><path d="m25.902 100.441h2.258v4.98h-2.258zm0 0"/></clipPath><clipPath id="ap"><path d="m13.984 97.453h1.957v4.98h-1.957zm0 0"/></clipPath><clipPath id="aq"><path d="m13.984 97.453h4.946v4.98h-4.946zm0 0"/></clipPath><clipPath id="ar"><path d="m16.938 97.453h4.98v4.98h-4.98zm0 0"/></clipPath><clipPath id="as"><path d="m19.926 97.453h4.98v4.98h-4.98zm0 0"/></clipPath><clipPath id="at"><path d="m22.914 97.453h4.98v4.98h-4.98zm0 0"/></clipPath><clipPath id="au"><path d="m25.902 97.453h2.258v4.98h-2.258zm0 0"/></clipPath><clipPath id="av"><path d="m13.984 94.46h1.957v4.985h-1.957zm0 0"/></clipPath><clipPath id="aw"><path d="m13.984 94.46h4.946v4.985h-4.946zm0 0"/></clipPath><clipPath id="ax"><path d="m16.938 94.46h4.98v4.985h-4.98zm0 0"/></clipPath><clipPath id="ay"><path d="m19.926 94.46h4.98v4.985h-4.98zm0 0"/></clipPath><clipPath id="az"><path d="m22.914 94.46h4.98v4.985h-4.98zm0 0"/></clipPath><clipPath id="aA"><path d="m25.902 94.46h2.258v4.985h-2.258zm0 0"/></clipPath><clipPath id="aB"><path d="m13.984 91.473h1.957v4.98h-1.957zm0 0"/></clipPath><clipPath id="aC"><path d="m13.984 91.473h4.946v4.98h-4.946zm0 0"/></clipPath><clipPath id="aD"><path d="m16.938 91.473h4.98v4.98h-4.98zm0 0"/></clipPath><clipPath id="aE"><path d="m19.926 91.473h4.98v4.98h-4.98zm0 0"/></clipPath><clipPath id="aF"><path d="m22.914 91.473h4.98v4.98h-4.98zm0 0"/></clipPath><clipPath id="aG"><path d="m25.902 91.473h2.258v4.98h-2.258zm0 0"/></clipPath><clipPath id="aH"><path d="m13.984 88.484h1.957v4.98h-1.957zm0 0"/></clipPath><clipPath id="aI"><path d="m13.984 88.484h4.946v4.98h-4.946zm0 0"/></clipPath><clipPath id="aJ"><path d="m16.938 88.484h4.98v4.98h-4.98zm0 0"/></clipPath><clipPath id="aK"><path d="m19.926 88.484h4.98v4.98h-4.98zm0 0"/></clipPath><clipPath id="aL"><path d="m22.914 88.484h4.98v4.98h-4.98zm0 0"/></clipPath><clipPath id="aM"><path d="m25.902 88.484h2.258v4.98h-2.258zm0 0"/></clipPath><clipPath id="aN"><path d="m13.984 85.496h1.957v4.98h-1.957zm0 0"/></clipPath><clipPath id="aO"><path d="m13.984 85.496h4.946v4.98h-4.946zm0 0"/></clipPath><clipPath id="aP"><path d="m16.938 85.496h4.98v4.98h-4.98zm0 0"/></clipPath><clipPath id="aQ"><path d="m19.926 85.496h4.98v4.98h-4.98zm0 0"/></clipPath><clipPath id="aR"><path d="m22.914 85.496h4.98v4.98h-4.98zm0 0"/></clipPath><clipPath id="aS"><path d="m25.902 85.496h2.258v4.98h-2.258zm0 0"/></clipPath><clipPath id="aT"><path d="m13.984 82.508h1.957v4.98h-1.957zm0 0"/></clipPath><clipPath id="aU"><path d="m13.984 82.508h4.946v4.98h-4.946zm0 0"/></clipPath><clipPath id="aV"><path d="m16.938 82.508h4.98v4.98h-4.98zm0 0"/></clipPath><clipPath id="aW"><path d="m19.926 82.508h4.98v4.98h-4.98zm0 0"/></clipPath><clipPath id="aX"><path d="m22.914 82.508h4.98v4.98h-4.98zm0 0"/></clipPath><clipPath id="aY"><path d="m25.902 82.508h2.258v4.98h-2.258zm0 0"/></clipPath><clipPath id="aZ"><path d="m13.984 79.52h1.957v4.98h-1.957zm0 0"/></clipPath><clipPath id="a0"><path d="m13.984 79.52h4.946v4.98h-4.946zm0 0"/></clipPath><clipPath id="a1"><path d="m16.938 79.52h4.98v4.98h-4.98zm0 0"/></clipPath><clipPath id="a2"><path d="m19.926 79.52h4.98v4.98h-4.98zm0 0"/></clipPath><clipPath id="a3"><path d="m22.914 79.52h4.98v4.98h-4.98zm0 0"/></clipPath><clipPath id="a4"><path d="m25.902 79.52h2.258v4.98h-2.258zm0 0"/></clipPath><clipPath id="a5"><path d="m13.984 76.531h1.957v4.98h-1.957zm0 0"/></clipPath><clipPath id="a6"><path d="m13.984 76.531h4.946v4.98h-4.946zm0 0"/></clipPath><clipPath id="a7"><path d="m16.938 76.531h4.98v4.98h-4.98zm0 0"/></clipPath><clipPath id="a8"><path d="m19.926 76.531h4.98v4.98h-4.98zm0 0"/></clipPath><clipPath id="a9"><path d="m22.914 76.531h4.98v4.98h-4.98zm0 0"/></clipPath><clipPath id="ba"><path d="m25.902 76.531h2.258v4.98h-2.258zm0 0"/></clipPath><clipPath id="bb"><path d="m13.984 73.54h1.957v4.983h-1.957zm0 0"/></clipPath><clipPath id="bc"><path d="m13.984 73.54h4.946v4.983h-4.946zm0 0"/></clipPath><clipPath id="bd"><path d="m16.938 73.54h4.98v4.983h-4.98zm0 0"/></clipPath><clipPath id="be"><path d="m19.926 73.54h4.98v4.983h-4.98zm0 0"/></clipPath><clipPath id="bf"><path d="m22.914 73.54h4.98v4.983h-4.98zm0 0"/></clipPath><clipPath id="bg"><path d="m25.902 73.54h2.258v4.983h-2.258zm0 0"/></clipPath><clipPath id="bh"><path d="m13.984 70.55h1.957v4.985h-1.957zm0 0"/></clipPath><clipPath id="bi"><path d="m13.984 70.55h4.946v4.985h-4.946zm0 0"/></clipPath><clipPath id="bj"><path d="m16.938 70.55h4.98v4.985h-4.98zm0 0"/></clipPath><clipPath id="bk"><path d="m19.926 70.55h4.98v4.985h-4.98zm0 0"/></clipPath><clipPath id="bl"><path d="m22.914 70.55h4.98v4.985h-4.98zm0 0"/></clipPath><clipPath id="bm"><path d="m25.902 70.55h2.258v4.985h-2.258zm0 0"/></clipPath><clipPath id="bn"><path d="m13.984 67.563h1.957v4.98h-1.957zm0 0"/></clipPath><clipPath id="bo"><path d="m13.984 67.563h4.946v4.98h-4.946zm0 0"/></clipPath><clipPath id="bp"><path d="m16.938 67.563h4.98v4.98h-4.98zm0 0"/></clipPath><clipPath id="bq"><path d="m19.926 67.563h4.98v4.98h-4.98zm0 0"/></clipPath><clipPath id="br"><path d="m22.914 67.563h4.98v4.98h-4.98zm0 0"/></clipPath><clipPath id="bs"><path d="m25.902 67.563h2.258v4.98h-2.258zm0 0"/></clipPath><clipPath id="bt"><path d="m13.984 64.574h1.957v4.98h-1.957zm0 0"/></clipPath><clipPath id="bu"><path d="m13.984 64.574h4.946v4.98h-4.946zm0 0"/></clipPath><clipPath id="bv"><path d="m16.938 64.574h4.98v4.98h-4.98zm0 0"/></clipPath><clipPath id="bw"><path d="m19.926 64.574h4.98v4.98h-4.98zm0 0"/></clipPath><clipPath id="bx"><path d="m22.914 64.574h4.98v4.98h-4.98zm0 0"/></clipPath><clipPath id="by"><path d="m25.902 64.574h2.258v4.98h-2.258zm0 0"/></clipPath><clipPath id="bz"><path d="m13.984 61.586h1.957v4.98h-1.957zm0 0"/></clipPath><clipPath id="bA"><path d="m13.984 61.586h4.946v4.98h-4.946zm0 0"/></clipPath><clipPath id="bB"><path d="m16.938 61.586h4.98v4.98h-4.98zm0 0"/></clipPath><clipPath id="bC"><path d="m19.926 61.586h4.98v4.98h-4.98zm0 0"/></clipPath><clipPath id="bD"><path d="m22.914 61.586h4.98v4.98h-4.98zm0 0"/></clipPath><clipPath id="bE"><path d="m25.902 61.586h2.258v4.98h-2.258zm0 0"/></clipPath><clipPath id="bF"><path d="m13.984 58.598h1.957v4.98h-1.957zm0 0"/></clipPath><clipPath id="bG"><path d="m13.984 58.598h4.946v4.98h-4.946zm0 0"/></clipPath><clipPath id="bH"><path d="m16.938 58.598h4.98v4.98h-4.98zm0 0"/></clipPath><clipPath id="bI"><path d="m19.926 58.598h4.98v4.98h-4.98zm0 0"/></clipPath><clipPath id="bJ"><path d="m22.914 58.598h4.98v4.98h-4.98zm0 0"/></clipPath><clipPath id="bK"><path d="m25.902 58.598h2.258v4.98h-2.258zm0 0"/></clipPath><clipPath id="bL"><path d="m13.984 55.61h1.957v4.98h-1.957zm0 0"/></clipPath><clipPath id="bM"><path d="m13.984 55.61h4.946v4.98h-4.946zm0 0"/></clipPath><clipPath id="bN"><path d="m16.938 55.61h4.98v4.98h-4.98zm0 0"/></clipPath><clipPath id="bO"><path d="m19.926 55.61h4.98v4.98h-4.98zm0 0"/></clipPath><clipPath id="bP"><path d="m22.914 55.61h4.98v4.98h-4.98zm0 0"/></clipPath><clipPath id="bQ"><path d="m25.902 55.61h2.258v4.98h-2.258zm0 0"/></clipPath><clipPath id="bR"><path d="m13.984 52.617h1.957v4.985h-1.957zm0 0"/></clipPath><clipPath id="bS"><path d="m13.984 52.617h4.946v4.985h-4.946zm0 0"/></clipPath><clipPath id="bT"><path d="m16.938 52.617h4.98v4.985h-4.98zm0 0"/></clipPath><clipPath id="bU"><path d="m19.926 52.617h4.98v4.985h-4.98zm0 0"/></clipPath><clipPath id="bV"><path d="m22.914 52.617h4.98v4.985h-4.98zm0 0"/></clipPath><clipPath id="bW"><path d="m25.902 52.617h2.258v4.985h-2.258zm0 0"/></clipPath><clipPath id="bX"><path d="m13.984 49.629h1.957v4.984h-1.957zm0 0"/></clipPath><clipPath id="bY"><path d="m13.984 49.629h4.946v4.984h-4.946zm0 0"/></clipPath><clipPath id="bZ"><path d="m16.938 49.629h4.98v4.984h-4.98zm0 0"/></clipPath><clipPath id="b0"><path d="m19.926 49.629h4.98v4.984h-4.98zm0 0"/></clipPath><clipPath id="b1"><path d="m22.914 49.629h4.98v4.984h-4.98zm0 0"/></clipPath><clipPath id="b2"><path d="m25.902 49.629h2.258v4.984h-2.258zm0 0"/></clipPath><clipPath id="b3"><path d="m13.984 46.64h1.957v4.981h-1.957zm0 0"/></clipPath><clipPath id="b4"><path d="m13.984 46.64h4.946v4.981h-4.946zm0 0"/></clipPath><clipPath id="b5"><path d="m16.938 46.64h4.98v4.981h-4.98zm0 0"/></clipPath><clipPath id="b6"><path d="m19.926 46.64h4.98v4.981h-4.98zm0 0"/></clipPath><clipPath id="b7"><path d="m22.914 46.64h4.98v4.981h-4.98zm0 0"/></clipPath><clipPath id="b8"><path d="m25.902 46.64h2.258v4.981h-2.258zm0 0"/></clipPath><clipPath id="b9"><path d="m13.984 43.652h1.957v4.98h-1.957zm0 0"/></clipPath><clipPath id="ca"><path d="m13.984 43.652h4.946v4.98h-4.946zm0 0"/></clipPath><clipPath id="cb"><path d="m16.938 43.652h4.98v4.98h-4.98zm0 0"/></clipPath><clipPath id="cc"><path d="m19.926 43.652h4.98v4.98h-4.98zm0 0"/></clipPath><clipPath id="cd"><path d="m22.914 43.652h4.98v4.98h-4.98zm0 0"/></clipPath><clipPath id="ce"><path d="m25.902 43.652h2.258v4.98h-2.258zm0 0"/></clipPath><clipPath id="cf"><path d="m13.984 40.664h1.957v4.98h-1.957zm0 0"/></clipPath><clipPath id="cg"><path d="m13.984 40.664h4.946v4.98h-4.946zm0 0"/></clipPath><clipPath id="ch"><path d="m16.938 40.664h4.98v4.98h-4.98zm0 0"/></clipPath><clipPath id="ci"><path d="m19.926 40.664h4.98v4.98h-4.98zm0 0"/></clipPath><clipPath id="cj"><path d="m22.914 40.664h4.98v4.98h-4.98zm0 0"/></clipPath><clipPath id="ck"><path d="m25.902 40.664h2.258v4.98h-2.258zm0 0"/></clipPath><clipPath id="cl"><path d="m13.984 37.676h1.957v4.98h-1.957zm0 0"/></clipPath><clipPath id="cm"><path d="m13.984 37.676h4.946v4.98h-4.946zm0 0"/></clipPath><clipPath id="cn"><path d="m16.938 37.676h4.98v4.98h-4.98zm0 0"/></clipPath><clipPath id="co"><path d="m19.926 37.676h4.98v4.98h-4.98zm0 0"/></clipPath><clipPath id="cp"><path d="m22.914 37.676h4.98v4.98h-4.98zm0 0"/></clipPath><clipPath id="cq"><path d="m25.902 37.676h2.258v4.98h-2.258zm0 0"/></clipPath><clipPath id="cr"><path d="m13.984 34.688h1.957v4.98h-1.957zm0 0"/></clipPath><clipPath id="cs"><path d="m13.984 34.688h4.946v4.98h-4.946zm0 0"/></clipPath><clipPath id="ct"><path d="m16.938 34.688h4.98v4.98h-4.98zm0 0"/></clipPath><clipPath id="cu"><path d="m19.926 34.688h4.98v4.98h-4.98zm0 0"/></clipPath><clipPath id="cv"><path d="m22.914 34.688h4.98v4.98h-4.98zm0 0"/></clipPath><clipPath id="cw"><path d="m25.902 34.688h2.258v4.98h-2.258zm0 0"/></clipPath><clipPath id="cx"><path d="m13.984 31.695h1.957v4.985h-1.957zm0 0"/></clipPath><clipPath id="cy"><path d="m13.984 31.695h4.946v4.985h-4.946zm0 0"/></clipPath><clipPath id="cz"><path d="m16.938 31.695h4.98v4.985h-4.98zm0 0"/></clipPath><clipPath id="cA"><path d="m19.926 31.695h4.98v4.985h-4.98zm0 0"/></clipPath><clipPath id="cB"><path d="m22.914 31.695h4.98v4.985h-4.98zm0 0"/></clipPath><clipPath id="cC"><path d="m25.902 31.695h2.258v4.985h-2.258zm0 0"/></clipPath><clipPath id="cD"><path d="m13.984 28.707h1.957v4.984h-1.957zm0 0"/></clipPath><clipPath id="cE"><path d="m13.984 28.707h4.946v4.984h-4.946zm0 0"/></clipPath><clipPath id="cF"><path d="m16.938 28.707h4.98v4.984h-4.98zm0 0"/></clipPath><clipPath id="cG"><path d="m19.926 28.707h4.98v4.984h-4.98zm0 0"/></clipPath><clipPath id="cH"><path d="m22.914 28.707h4.98v4.984h-4.98zm0 0"/></clipPath><clipPath id="cI"><path d="m25.902 28.707h2.258v4.984h-2.258zm0 0"/></clipPath><clipPath id="cJ"><path d="m13.984 25.719h1.957v4.98h-1.957zm0 0"/></clipPath><clipPath id="cK"><path d="m13.984 25.719h4.946v4.98h-4.946zm0 0"/></clipPath><clipPath id="cL"><path d="m16.938 25.719h4.98v4.98h-4.98zm0 0"/></clipPath><clipPath id="cM"><path d="m19.926 25.719h4.98v4.98h-4.98zm0 0"/></clipPath><clipPath id="cN"><path d="m22.914 25.719h4.98v4.98h-4.98zm0 0"/></clipPath><clipPath id="cO"><path d="m25.902 25.719h2.258v4.98h-2.258zm0 0"/></clipPath><clipPath id="cP"><path d="m13.984 23.672h1.957v4.039h-1.957zm0 0"/></clipPath><clipPath id="cQ"><path d="m13.984 23.672h4.946v4.039h-4.946zm0 0"/></clipPath><clipPath id="cR"><path d="m16.938 23.672h4.98v4.039h-4.98zm0 0"/></clipPath><clipPath id="cS"><path d="m19.926 23.672h4.98v4.039h-4.98zm0 0"/></clipPath><clipPath id="cT"><path d="m22.914 23.672h4.98v4.039h-4.98zm0 0"/></clipPath><clipPath id="cU"><path d="m25.902 23.672h2.258v4.039h-2.258zm0 0"/></clipPath><clipPath id="cV"><path d="m13.984 23.672h1.957v1.05h-1.957zm0 0"/></clipPath><clipPath id="cW"><path d="m13.984 23.672h4.946v1.05h-4.946zm0 0"/></clipPath><clipPath id="cX"><path d="m16.938 23.672h4.98v1.05h-4.98zm0 0"/></clipPath><clipPath id="cY"><path d="m19.926 23.672h4.98v1.05h-4.98zm0 0"/></clipPath><clipPath id="cZ"><path d="m22.914 23.672h4.98v1.05h-4.98zm0 0"/></clipPath><clipPath id="c0"><path d="m25.902 23.672h2.258v1.05h-2.258zm0 0"/></clipPath><symbol id="c1" overflow="visible"><path d="m3.328-3.016c.063-.25.297-1.171.985-1.171.046 0 .296 0 .5.125a.578.578 0 0 0 -.47.546c0 .157.11.344.376.344a.546.546 0 0 0 .531-.578c0-.516-.578-.656-.922-.656-.578 0-.922.531-1.047.75-.25-.656-.781-.75-1.078-.75-1.031 0-1.61 1.281-1.61 1.531 0 .11.11.11.126.11.078 0 .11-.032.125-.11.344-1.063 1-1.313 1.344-1.313.187 0 .53.094.53.672 0 .313-.171.97-.53 2.375-.157.61-.516 1.032-.954 1.032-.062 0-.28 0-.5-.125.25-.063.47-.266.47-.547 0-.266-.22-.344-.36-.344-.313 0-.547.25-.547.578 0 .453.484.656.922.656.672 0 1.031-.703 1.047-.75.125.36.484.75 1.078.75 1.031 0 1.594-1.28 1.594-1.53 0-.11-.079-.11-.11-.11-.094 0-.11.047-.14.11-.329 1.077-1 1.312-1.313 1.312-.39 0-.547-.313-.547-.657 0-.218.047-.437.156-.875zm0 0"/></symbol><symbol id="c2" overflow="visible"><path d="m6.328-5.766c.11-.406.281-.703 1.078-.734.047 0 .172-.016.172-.203 0 0 0-.11-.125-.11-.328 0-.687.032-1.016.032-.343 0-.718-.032-1.046-.032-.063 0-.172 0-.172.204 0 .109.093.109.172.109.578.016.687.219.687.438 0 .03-.031.187-.031.203l-.907 3.562c-.328 1.344-1.484 2.203-2.484 2.203-.672 0-1.203-.437-1.203-1.297 0-.015 0-.328.11-.765l.953-3.89c.093-.36.109-.454.843-.454.266 0 .344 0 .344-.203 0-.11-.11-.11-.14-.11-.282 0-1 .032-1.282.032-.281 0-1-.032-1.281-.032-.078 0-.188 0-.188.204 0 .109.079.109.282.109.015 0 .203 0 .375.016.172.03.265.03.265.171 0 .047-.109.47-.171.704l-.22.875c-.093.39-.561 2.264-.608 2.468-.062.266-.062.422-.062.579 0 1.203.906 1.906 1.953 1.906 1.25 0 2.484-1.125 2.813-2.438zm0 0"/></symbol><symbol id="c3" overflow="visible"><path d="m.156-.984c-.015.03-.046.062-.046.093 0 .047.063.141.125.141.047 0 .078-.031.36-.313.078-.078.281-.265.36-.343.093.781.374 1.531 1.109 1.531.406 0 .75-.234.953-.39.14-.094.609-.485.609-.579 0-.031-.031-.125-.11-.125-.03 0-.046.016-.14.094-.64.625-1 .781-1.297.781-.437 0-.61-.531-.61-1.297 0-.062.032-.515.063-.578.016-.031.016-.047.219-.25.797-.797 2.219-2.484 2.219-4.031 0-.172 0-.781-.594-.781-.828 0-1.563 1.64-1.656 1.875-.486 1.093-.798 2.25-.798 3.436zm1.422-1.391c.016-.125.453-2.328 1.016-3.5.265-.531.484-.938.797-.938.343 0 .343.36.343.516 0 1.672-1.687 3.422-2.156 3.922zm0 0"/></symbol><symbol id="c4" overflow="visible"><path d="m3.297 2.39c0-.03 0-.046-.172-.218-1.234-1.25-1.563-3.14-1.563-4.672 0-1.734.375-3.469 1.61-4.703.125-.125.125-.14.125-.172 0-.078-.031-.11-.094-.11-.11 0-1 .688-1.594 1.954-.499 1.093-.625 2.203-.625 3.031 0 .781.11 1.984.657 3.125.609 1.219 1.453 1.875 1.562 1.875.063 0 .094-.031.094-.11zm0 0"/></symbol><symbol id="c5" overflow="visible"><path d="m2.875-2.5c0-.766-.11-1.969-.656-3.11-.594-1.217-1.453-1.873-1.547-1.873a.107.107 0 0 0 -.11.109c0 .031 0 .047.188.234.984.985 1.547 2.563 1.547 4.641 0 1.719-.36 3.469-1.594 4.719-.14.125-.14.14-.14.172 0 .062.046.109.109.109.094 0 1-.688 1.578-1.953.516-1.094.625-2.203.625-3.047zm0 0"/></symbol><symbol id="c6" overflow="visible"><path d="m2.328-4.438c0-.187 0-.187-.203-.187-.453.438-1.078.438-1.36.438v.25c.157 0 .626 0 1-.188v3.547c0 .234 0 .328-.687.328h-.266v.25c.125 0 .985-.031 1.235-.031.219 0 1.094.031 1.25.031v-.25h-.267c-.703 0-.703-.094-.703-.328zm0 0"/></symbol><symbol id="c7" overflow="visible"><path d="m3.813-.984c.64-.657.89-1.594.89-1.657 0-.093-.078-.093-.11-.093-.093 0-.093.015-.14.171-.125.454-.36.891-.656 1.266 0-.11-.016-.578-.031-.64-.11-.688-.625-1.141-1.329-1.141-1.015 0-2 .953-2 1.937.001.641.47 1.204 1.267 1.204.64 0 1.219-.282 1.61-.579.171.5.515.579.734.579.406 0 .656-.329.656-.485-.001-.078-.094-.078-.126-.078-.094 0-.11.031-.125.063-.094.265-.312.312-.39.312-.094 0-.22 0-.25-.86zm-.547.234c-.688.563-1.266.625-1.532.625-.468 0-.718-.313-.718-.781 0-.188.093-.953.453-1.438.328-.422.718-.531.968-.531.547 0 .72.531.766.969.047.297.031.797.063 1.156zm0 0"/></symbol><symbol id="c8" overflow="visible"><path d="m7.203-4.5c0-.219-.078-.313-.14-.313-.047 0-.141.047-.141.282-.047.687-.734 1.093-1.39 1.093-.579 0-1.079-.312-1.595-.656-.53-.36-1.078-.718-1.718-.718-.938 0-1.672.703-1.672 1.625 0 .218.078.296.14.296.094 0 .141-.187.141-.234.047-.828.86-1.125 1.39-1.125.579 0 1.079.297 1.595.656.53.36 1.078.719 1.718.719.922 0 1.672-.719 1.672-1.625zm0 2.328c0-.297-.125-.312-.14-.312-.047 0-.141.046-.141.265-.047.688-.734 1.11-1.39 1.11-.579 0-1.079-.313-1.595-.672-.53-.36-1.078-.719-1.718-.719-.939 0-1.672.719-1.672 1.625 0 .234.078.313.14.313.094 0 .141-.188.141-.235.047-.844.86-1.14 1.39-1.14.579 0 1.079.312 1.595.656.53.36 1.078.718 1.718.718.953 0 1.672-.734 1.672-1.609zm0 0"/></symbol><symbol id="c9" overflow="visible"><path d="m6.172-5.219c.125-.078.203-.11.203-.218 0-.141-.11-.204-.203-.204a.335.335 0 0 0 -.188.063l-5.25 2.86c-.109.077-.187.109-.187.218 0 .125.078.156.187.234l5.25 2.86c.11.062.141.062.188.062a.197.197 0 0 0 .203-.203c0-.11-.078-.14-.203-.219l-5-2.734zm3.047 0c.11-.078.187-.11.187-.218a.194.194 0 0 0 -.187-.204.335.335 0 0 0 -.188.063l-5.25 2.86c-.125.077-.187.109-.187.218 0 .125.062.156.187.234l5.235 2.86c.125.062.156.062.203.062.125 0 .187-.094.187-.203 0-.11-.078-.14-.187-.219l-5.016-2.734zm0 0"/></symbol><path d="m-2.834.001h177.875" fill="none" stroke="#000" stroke-miterlimit="10" stroke-width=".79701" transform="matrix(1 0 0 -1 13.986 131.388)"/><path d="m-1.552 2.072c.128-.778 1.55-1.942 1.941-2.07-.39-.13-1.813-1.298-1.941-2.075" style="fill:none;stroke-width:.6376;stroke-linecap:round;stroke-linejoin:round;stroke:#000;stroke-miterlimit:10" transform="matrix(1 0 0 -1 189.029 131.388)"/><use x="193.453" xlink:href="#c1" y="133.533"/><path d="m-.002-19.842v132.522" fill="none" stroke="#000" stroke-miterlimit="10" stroke-width=".79701" transform="matrix(1 0 0 -1 13.986 131.388)"/><path d="m-1.554 2.072c.13-.777 1.555-1.942 1.942-2.07-.388-.133-1.813-1.297-1.942-2.075" style="fill:none;stroke-width:.6376;stroke-linecap:round;stroke-linejoin:round;stroke:#000;stroke-miterlimit:10" transform="matrix(0 -1 -1 0 13.986 18.708)"/><use x="3.321" xlink:href="#c2" y="11.793"/><use x="11.209" xlink:href="#c4" y="11.793"/><use x="15.083" xlink:href="#c1" y="11.793"/><use x="20.777" xlink:href="#c5" y="11.793"/><g clip-path="url(#a)"><path d="m14.174 88.736s1.137-13.368 1.574-18.059a1371.86 1371.86 0 0 1 1.575-15.73 989.887 989.887 0 0 1 1.574-13.668 721.74 721.74 0 0 1 1.574-11.782 538.655 538.655 0 0 1 1.574-10.125c.438-2.613 1.137-6.46 1.574-8.703a283.262 283.262 0 0 1 1.575-7.437c.437-1.91 1.136-4.711 1.574-6.328a137.204 137.204 0 0 1 1.574-5.309c.438-1.352 1.14-3.305 1.574-4.43a73.998 73.998 0 0 1 1.575-3.672 51.29 51.29 0 0 1 1.574-3.03 38.974 38.974 0 0 1 1.578-2.473c.434-.622 1.137-1.532 1.574-2.012.434-.485 1.137-1.102 1.574-1.461a18.97 18.97 0 0 1 1.575-1.14c.437-.278 1.136-.669 1.574-.856.437-.188 1.137-.395 1.574-.512a16.11 16.11 0 0 1 1.574-.328 11.83 11.83 0 0 1 1.574-.098c.438.008 1.137.114 1.575.164.437.051 1.136.121 1.574.196.437.074 1.137.23 1.574.34a32.9 32.9 0 0 1 1.574.453c.438.132 1.137.359 1.575.52a45.606 45.606 0 0 1 3.148 1.323c.437.2 1.14.547 1.574.747.438.195 1.14.472 1.574.675.438.203 1.141.57 1.575.785.437.215 1.14.543 1.578.766.433.219 1.136.602 1.574.824.434.223 1.137.563 1.574.785.438.22 1.137.59 1.574.809.438.219 1.137.55 1.575.766.437.21 1.136.554 1.574.77.437.21 1.137.562 1.574.765.438.207 1.137.523 1.574.722.438.2 1.137.52 1.575.723.437.2 1.136.527 1.574.719.437.191 1.136.48 1.574.668.437.187 1.137.496 1.574.683.438.184 1.137.473 1.574.649.438.172 1.137.441 1.575.61l1.574.59c.437.163 1.14.421 1.574.581.438.16 1.14.422 1.574.578.438.153 1.14.38 1.574.528.438.144 1.141.382 1.579.523.433.137 1.136.344 1.574.473.433.129 1.137.328 1.574.457.438.129 1.137.347 1.574.472.438.121 1.137.305 1.574.422.438.117 1.137.293 1.575.41.437.114 1.136.305 1.574.414.437.11 1.137.262 1.574.364.438.101 1.137.273 1.574.37.438.095 1.137.231 1.575.325.437.094 1.136.262 1.574.352.437.093 1.136.214 1.574.3.438.082 1.137.223 1.574.305.438.082 1.14.203 1.574.277.438.079 1.137.196 1.575.266l1.574.254c.437.066 1.14.168 1.574.23.438.067 1.14.168 1.574.235.438.066 1.14.183 1.578.246.438.062 1.137.148 1.575.203.433.055 1.136.137 1.574.188.437.05 1.137.136 1.574.187.438.055 1.137.14 1.574.188.438.05 1.137.125 1.575.16.437.035 1.136.054 1.574.093.437.036 1.136.13 1.574.172.437.043 1.137.094 1.574.133.438.04 1.137.11 1.574.149.438.039 1.137.097 1.575.132.437.04 1.136.098 1.574.13.437.034 1.137.09 1.574.12.438.036 1.14.086 1.574.118l1.575.109c.437.031 1.136.074 1.574.105l1.578.098c.433.027 1.137.066 1.57.09.438.027 1.14.062 1.578.086.438.027 1.137.066 1.575.09.433.02 1.136.054 1.574.078l1.574.07 1.574.07c.438.02 1.137.047 1.574.067.438.015 1.137.047 1.575.062.437.02 1.136.047 1.574.063.437.015 1.137.035 1.574.05.438.016 1.137.044 1.574.055.438.016 1.137.035 1.574.051.438.012 1.137.031 1.575.047.437.012 1.136.035 1.574.047l1.574.043c.438.012 1.574.039 1.574.039" fill="none" stroke="#00f" stroke-miterlimit="10" stroke-width=".79701" transform="matrix(1 0 0 -1 13.986 131.388)"/></g><use fill="#00f" x="157.102" xlink:href="#c6" y="140.291"/><path d="m-.002 0h5.18" fill="none" stroke="#00f" stroke-miterlimit="10" stroke-width=".398" transform="matrix(1 0 0 -1 156.498 141.723)"/><g fill="#00f"><use x="156.498" xlink:href="#c7" y="147.649"/><use x="165.64" xlink:href="#c8" y="144.214"/><use x="176.157" xlink:href="#c3" y="144.214"/></g><path d="m14.174 74.431s1.137-25.945 1.574-33.672a829.281 829.281 0 0 1 1.575-22.027 323.56 323.56 0 0 1 1.574-14.04c.437-3.179 1.137-6.913 1.574-8.85.438-1.938 1.137-4.028 1.574-5.118.438-1.094 1.137-2.207 1.574-2.746.438-.54 1.137-.957 1.575-1.13.437-.175 1.136-.175 1.574-.124.437.055 1.137.312 1.574.508.438.191 1.14.62 1.574.886.438.27 1.141.762 1.575 1.055.437.29 1.14.75 1.574 1.05.437.302 1.14.817 1.578 1.114.434.301 1.137.766 1.574 1.04a50.41 50.41 0 0 0 1.574.933 50.23 50.23 0 0 0 3.148 1.695c.438.207 1.138.547 1.575.692.438.148 1.137.222 1.574.359.438.133 1.137.453 1.574.61.438.156 1.137.386 1.575.519a42.724 42.724 0 0 0 3.148.816c.438.098 1.137.23 1.574.313a73.71 73.71 0 0 0 1.575.273 108.82 108.82 0 0 0 3.148.414 111.781 111.781 0 0 0 3.148.297c.438.035 1.141.09 1.575.117.437.032 1.14.075 1.578.098.433.027 1.136.063 1.574.086l1.574.07c.438.02 1.137.043 1.574.059.438.015 1.137.039 1.575.05l1.574.04c.437.011 1.137.03 1.574.039l1.574.027c.438.008 1.137.02 1.575.024l1.574.027c.437.008 1.136.015 1.574.02l1.574.011 1.574.016 1.575.011c.437.004 1.136 0 1.574.008.437.008 1.14.04 1.574.043.438.008 1.14 0 1.574 0h81.871" fill="none" stroke="#ff8000" stroke-miterlimit="10" stroke-width=".79701" transform="matrix(1 0 0 -1 13.986 131.388)"/><use fill="#ff8000" x="154.888" xlink:href="#c6" y="120.266"/><path d="m.001-.001h5.18" fill="none" stroke="#ff8000" stroke-miterlimit="10" stroke-width=".398" transform="matrix(1 0 0 -1 154.284 121.698)"/><use fill="#ff8000" x="154.284" xlink:href="#c7" y="127.624"/><use fill="#ff8000" x="163.427" xlink:href="#c9" y="124.188"/><use fill="#ff8000" x="176.157" xlink:href="#c3" y="124.188"/><g clip-path="url(#b)"><path d="m.002.001 3.086 3.086" fill="none" stroke="#000" stroke-miterlimit="10" stroke-width=".3985" transform="matrix(1 0 0 -1 11.955 134.314)"/></g><g clip-path="url(#c)"><path d="m.001.001 3.086 3.086" fill="none" stroke="#000" stroke-miterlimit="10" stroke-width=".3985" transform="matrix(1 0 0 -1 14.944 134.314)"/></g><g clip-path="url(#d)"><path d="m0 .001 3.087 3.086" fill="none" stroke="#000" stroke-miterlimit="10" stroke-width=".3985" transform="matrix(1 0 0 -1 17.933 134.314)"/></g><g clip-path="url(#e)"><path d="m0 .001 3.09 3.086" fill="none" stroke="#000" stroke-miterlimit="10" stroke-width=".3985" transform="matrix(1 0 0 -1 20.922 134.314)"/></g><g clip-path="url(#f)"><path d="m0 .001 3.09 3.086" fill="none" stroke="#000" stroke-miterlimit="10" stroke-width=".3985" transform="matrix(1 0 0 -1 23.91 134.314)"/></g><g clip-path="url(#g)"><path d="m-.001.001 3.09 3.086" fill="none" stroke="#000" stroke-miterlimit="10" stroke-width=".3985" transform="matrix(1 0 0 -1 26.9 134.314)"/></g><g clip-path="url(#h)"><path d="m.002 0 3.086 3.09" fill="none" stroke="#000" stroke-miterlimit="10" stroke-width=".3985" transform="matrix(1 0 0 -1 11.955 131.325)"/></g><g clip-path="url(#i)"><path d="m.001 0 3.086 3.09" fill="none" stroke="#000" stroke-miterlimit="10" stroke-width=".3985" transform="matrix(1 0 0 -1 14.944 131.325)"/></g><g clip-path="url(#j)"><path d="m0 0 3.087 3.09" fill="none" stroke="#000" stroke-miterlimit="10" stroke-width=".3985" transform="matrix(1 0 0 -1 17.933 131.325)"/></g><g clip-path="url(#k)"><path d="m0 0 3.09 3.09" fill="none" stroke="#000" stroke-miterlimit="10" stroke-width=".3985" transform="matrix(1 0 0 -1 20.922 131.325)"/></g><g clip-path="url(#l)"><path d="m0 0 3.09 3.09" fill="none" stroke="#000" stroke-miterlimit="10" stroke-width=".3985" transform="matrix(1 0 0 -1 23.91 131.325)"/></g><g clip-path="url(#m)"><path d="m-.001 0 3.09 3.09" fill="none" stroke="#000" stroke-miterlimit="10" stroke-width=".3985" transform="matrix(1 0 0 -1 26.9 131.325)"/></g><g clip-path="url(#n)"><path d="m.002 0 3.086 3.09" fill="none" stroke="#000" stroke-miterlimit="10" stroke-width=".3985" transform="matrix(1 0 0 -1 11.955 128.336)"/></g><g clip-path="url(#o)"><path d="m.001 0 3.086 3.09" fill="none" stroke="#000" stroke-miterlimit="10" stroke-width=".3985" transform="matrix(1 0 0 -1 14.944 128.336)"/></g><g clip-path="url(#p)"><path d="m0 0 3.087 3.09" fill="none" stroke="#000" stroke-miterlimit="10" stroke-width=".3985" transform="matrix(1 0 0 -1 17.933 128.336)"/></g><g clip-path="url(#q)"><path d="m0 0 3.09 3.09" fill="none" stroke="#000" stroke-miterlimit="10" stroke-width=".3985" transform="matrix(1 0 0 -1 20.922 128.336)"/></g><g clip-path="url(#r)"><path d="m0 0 3.09 3.09" fill="none" stroke="#000" stroke-miterlimit="10" stroke-width=".3985" transform="matrix(1 0 0 -1 23.91 128.336)"/></g><g clip-path="url(#s)"><path d="m-.001 0 3.09 3.09" fill="none" stroke="#000" stroke-miterlimit="10" stroke-width=".3985" transform="matrix(1 0 0 -1 26.9 128.336)"/></g><g clip-path="url(#t)"><path d="m.002 0 3.086 3.09" fill="none" stroke="#000" stroke-miterlimit="10" stroke-width=".3985" transform="matrix(1 0 0 -1 11.955 125.347)"/></g><g clip-path="url(#u)"><path d="m.001 0 3.086 3.09" fill="none" stroke="#000" stroke-miterlimit="10" stroke-width=".3985" transform="matrix(1 0 0 -1 14.944 125.347)"/></g><g clip-path="url(#v)"><path d="m0 0 3.087 3.09" fill="none" stroke="#000" stroke-miterlimit="10" stroke-width=".3985" transform="matrix(1 0 0 -1 17.933 125.347)"/></g><g clip-path="url(#w)"><path d="m0 0 3.09 3.09" fill="none" stroke="#000" stroke-miterlimit="10" stroke-width=".3985" transform="matrix(1 0 0 -1 20.922 125.347)"/></g><g clip-path="url(#x)"><path d="m0 0 3.09 3.09" fill="none" stroke="#000" stroke-miterlimit="10" stroke-width=".3985" transform="matrix(1 0 0 -1 23.91 125.347)"/></g><g clip-path="url(#y)"><path d="m-.001 0 3.09 3.09" fill="none" stroke="#000" stroke-miterlimit="10" stroke-width=".3985" transform="matrix(1 0 0 -1 26.9 125.347)"/></g><g clip-path="url(#z)"><path d="m.002-.001 3.086 3.09" fill="none" stroke="#000" stroke-miterlimit="10" stroke-width=".3985" transform="matrix(1 0 0 -1 11.955 122.358)"/></g><g clip-path="url(#A)"><path d="m.001-.001 3.086 3.09" fill="none" stroke="#000" stroke-miterlimit="10" stroke-width=".3985" transform="matrix(1 0 0 -1 14.944 122.358)"/></g><g clip-path="url(#B)"><path d="m0-.001 3.087 3.09" fill="none" stroke="#000" stroke-miterlimit="10" stroke-width=".3985" transform="matrix(1 0 0 -1 17.933 122.358)"/></g><g clip-path="url(#C)"><path d="m0-.001 3.09 3.09" fill="none" stroke="#000" stroke-miterlimit="10" stroke-width=".3985" transform="matrix(1 0 0 -1 20.922 122.358)"/></g><g clip-path="url(#D)"><path d="m0-.001 3.09 3.09" fill="none" stroke="#000" stroke-miterlimit="10" stroke-width=".3985" transform="matrix(1 0 0 -1 23.91 122.358)"/></g><g clip-path="url(#E)"><path d="m-.001-.001 3.09 3.09" fill="none" stroke="#000" stroke-miterlimit="10" stroke-width=".3985" transform="matrix(1 0 0 -1 26.9 122.358)"/></g><g clip-path="url(#F)"><path d="m.002-.002 3.086 3.09" fill="none" stroke="#000" stroke-miterlimit="10" stroke-width=".3985" transform="matrix(1 0 0 -1 11.955 119.37)"/></g><g clip-path="url(#G)"><path d="m.001-.002 3.086 3.09" fill="none" stroke="#000" stroke-miterlimit="10" stroke-width=".3985" transform="matrix(1 0 0 -1 14.944 119.37)"/></g><g clip-path="url(#H)"><path d="m0-.002 3.087 3.09" fill="none" stroke="#000" stroke-miterlimit="10" stroke-width=".3985" transform="matrix(1 0 0 -1 17.933 119.37)"/></g><g clip-path="url(#I)"><path d="m0-.002 3.09 3.09" fill="none" stroke="#000" stroke-miterlimit="10" stroke-width=".3985" transform="matrix(1 0 0 -1 20.922 119.37)"/></g><g clip-path="url(#J)"><path d="m0-.002 3.09 3.09" fill="none" stroke="#000" stroke-miterlimit="10" stroke-width=".3985" transform="matrix(1 0 0 -1 23.91 119.37)"/></g><g clip-path="url(#K)"><path d="m-.001-.002 3.09 3.09" fill="none" stroke="#000" stroke-miterlimit="10" stroke-width=".3985" transform="matrix(1 0 0 -1 26.9 119.37)"/></g><g clip-path="url(#L)"><path d="m.002.002 3.086 3.086" fill="none" stroke="#000" stroke-miterlimit="10" stroke-width=".3985" transform="matrix(1 0 0 -1 11.955 116.38)"/></g><g clip-path="url(#M)"><path d="m.001.002 3.086 3.086" fill="none" stroke="#000" stroke-miterlimit="10" stroke-width=".3985" transform="matrix(1 0 0 -1 14.944 116.38)"/></g><g clip-path="url(#N)"><path d="m0 .002 3.087 3.086" fill="none" stroke="#000" stroke-miterlimit="10" stroke-width=".3985" transform="matrix(1 0 0 -1 17.933 116.38)"/></g><g clip-path="url(#O)"><path d="m0 .002 3.09 3.086" fill="none" stroke="#000" stroke-miterlimit="10" stroke-width=".3985" transform="matrix(1 0 0 -1 20.922 116.38)"/></g><g clip-path="url(#P)"><path d="m0 .002 3.09 3.086" fill="none" stroke="#000" stroke-miterlimit="10" stroke-width=".3985" transform="matrix(1 0 0 -1 23.91 116.38)"/></g><g clip-path="url(#Q)"><path d="m-.001.002 3.09 3.086" fill="none" stroke="#000" stroke-miterlimit="10" stroke-width=".3985" transform="matrix(1 0 0 -1 26.9 116.38)"/></g><g clip-path="url(#R)"><path d="m.002.001 3.086 3.086" fill="none" stroke="#000" stroke-miterlimit="10" stroke-width=".3985" transform="matrix(1 0 0 -1 11.955 113.392)"/></g><g clip-path="url(#S)"><path d="m.001.001 3.086 3.086" fill="none" stroke="#000" stroke-miterlimit="10" stroke-width=".3985" transform="matrix(1 0 0 -1 14.944 113.392)"/></g><g clip-path="url(#T)"><path d="m0 .001 3.087 3.086" fill="none" stroke="#000" stroke-miterlimit="10" stroke-width=".3985" transform="matrix(1 0 0 -1 17.933 113.392)"/></g><g clip-path="url(#U)"><path d="m0 .001 3.09 3.086" fill="none" stroke="#000" stroke-miterlimit="10" stroke-width=".3985" transform="matrix(1 0 0 -1 20.922 113.392)"/></g><g clip-path="url(#V)"><path d="m0 .001 3.09 3.086" fill="none" stroke="#000" stroke-miterlimit="10" stroke-width=".3985" transform="matrix(1 0 0 -1 23.91 113.392)"/></g><g clip-path="url(#W)"><path d="m-.001.001 3.09 3.086" fill="none" stroke="#000" stroke-miterlimit="10" stroke-width=".3985" transform="matrix(1 0 0 -1 26.9 113.392)"/></g><g clip-path="url(#X)"><path d="m.002 0 3.086 3.09" fill="none" stroke="#000" stroke-miterlimit="10" stroke-width=".3985" transform="matrix(1 0 0 -1 11.955 110.403)"/></g><g clip-path="url(#Y)"><path d="m.001 0 3.086 3.09" fill="none" stroke="#000" stroke-miterlimit="10" stroke-width=".3985" transform="matrix(1 0 0 -1 14.944 110.403)"/></g><g clip-path="url(#Z)"><path d="m0 0 3.087 3.09" fill="none" stroke="#000" stroke-miterlimit="10" stroke-width=".3985" transform="matrix(1 0 0 -1 17.933 110.403)"/></g><g clip-path="url(#aa)"><path d="m0 0 3.09 3.09" fill="none" stroke="#000" stroke-miterlimit="10" stroke-width=".3985" transform="matrix(1 0 0 -1 20.922 110.403)"/></g><g clip-path="url(#ab)"><path d="m0 0 3.09 3.09" fill="none" stroke="#000" stroke-miterlimit="10" stroke-width=".3985" transform="matrix(1 0 0 -1 23.91 110.403)"/></g><g clip-path="url(#ac)"><path d="m-.001 0 3.09 3.09" fill="none" stroke="#000" stroke-miterlimit="10" stroke-width=".3985" transform="matrix(1 0 0 -1 26.9 110.403)"/></g><g clip-path="url(#ad)"><path d="m.002 0 3.086 3.09" fill="none" stroke="#000" stroke-miterlimit="10" stroke-width=".3985" transform="matrix(1 0 0 -1 11.955 107.414)"/></g><g clip-path="url(#ae)"><path d="m.001 0 3.086 3.09" fill="none" stroke="#000" stroke-miterlimit="10" stroke-width=".3985" transform="matrix(1 0 0 -1 14.944 107.414)"/></g><g clip-path="url(#af)"><path d="m0 0 3.087 3.09" fill="none" stroke="#000" stroke-miterlimit="10" stroke-width=".3985" transform="matrix(1 0 0 -1 17.933 107.414)"/></g><g clip-path="url(#ag)"><path d="m0 0 3.09 3.09" fill="none" stroke="#000" stroke-miterlimit="10" stroke-width=".3985" transform="matrix(1 0 0 -1 20.922 107.414)"/></g><g clip-path="url(#ah)"><path d="m0 0 3.09 3.09" fill="none" stroke="#000" stroke-miterlimit="10" stroke-width=".3985" transform="matrix(1 0 0 -1 23.91 107.414)"/></g><g clip-path="url(#ai)"><path d="m-.001 0 3.09 3.09" fill="none" stroke="#000" stroke-miterlimit="10" stroke-width=".3985" transform="matrix(1 0 0 -1 26.9 107.414)"/></g><g clip-path="url(#aj)"><path d="m.002 0 3.086 3.09" fill="none" stroke="#000" stroke-miterlimit="10" stroke-width=".3985" transform="matrix(1 0 0 -1 11.955 104.425)"/></g><g clip-path="url(#ak)"><path d="m.001 0 3.086 3.09" fill="none" stroke="#000" stroke-miterlimit="10" stroke-width=".3985" transform="matrix(1 0 0 -1 14.944 104.425)"/></g><g clip-path="url(#al)"><path d="m0 0 3.087 3.09" fill="none" stroke="#000" stroke-miterlimit="10" stroke-width=".3985" transform="matrix(1 0 0 -1 17.933 104.425)"/></g><g clip-path="url(#am)"><path d="m0 0 3.09 3.09" fill="none" stroke="#000" stroke-miterlimit="10" stroke-width=".3985" transform="matrix(1 0 0 -1 20.922 104.425)"/></g><g clip-path="url(#an)"><path d="m0 0 3.09 3.09" fill="none" stroke="#000" stroke-miterlimit="10" stroke-width=".3985" transform="matrix(1 0 0 -1 23.91 104.425)"/></g><g clip-path="url(#ao)"><path d="m-.001 0 3.09 3.09" fill="none" stroke="#000" stroke-miterlimit="10" stroke-width=".3985" transform="matrix(1 0 0 -1 26.9 104.425)"/></g><g clip-path="url(#ap)"><path d="m.002-.001 3.086 3.09" fill="none" stroke="#000" stroke-miterlimit="10" stroke-width=".3985" transform="matrix(1 0 0 -1 11.955 101.436)"/></g><g clip-path="url(#aq)"><path d="m.001-.001 3.086 3.09" fill="none" stroke="#000" stroke-miterlimit="10" stroke-width=".3985" transform="matrix(1 0 0 -1 14.944 101.436)"/></g><g clip-path="url(#ar)"><path d="m0-.001 3.087 3.09" fill="none" stroke="#000" stroke-miterlimit="10" stroke-width=".3985" transform="matrix(1 0 0 -1 17.933 101.436)"/></g><g clip-path="url(#as)"><path d="m0-.001 3.09 3.09" fill="none" stroke="#000" stroke-miterlimit="10" stroke-width=".3985" transform="matrix(1 0 0 -1 20.922 101.436)"/></g><g clip-path="url(#at)"><path d="m0-.001 3.09 3.09" fill="none" stroke="#000" stroke-miterlimit="10" stroke-width=".3985" transform="matrix(1 0 0 -1 23.91 101.436)"/></g><g clip-path="url(#au)"><path d="m-.001-.001 3.09 3.09" fill="none" stroke="#000" stroke-miterlimit="10" stroke-width=".3985" transform="matrix(1 0 0 -1 26.9 101.436)"/></g><g clip-path="url(#av)"><path d="m.002-.002 3.086 3.09" fill="none" stroke="#000" stroke-miterlimit="10" stroke-width=".3985" transform="matrix(1 0 0 -1 11.955 98.448)"/></g><g clip-path="url(#aw)"><path d="m.001-.002 3.086 3.09" fill="none" stroke="#000" stroke-miterlimit="10" stroke-width=".3985" transform="matrix(1 0 0 -1 14.944 98.448)"/></g><g clip-path="url(#ax)"><path d="m0-.002 3.087 3.09" fill="none" stroke="#000" stroke-miterlimit="10" stroke-width=".3985" transform="matrix(1 0 0 -1 17.933 98.448)"/></g><g clip-path="url(#ay)"><path d="m0-.002 3.09 3.09" fill="none" stroke="#000" stroke-miterlimit="10" stroke-width=".3985" transform="matrix(1 0 0 -1 20.922 98.448)"/></g><g clip-path="url(#az)"><path d="m0-.002 3.09 3.09" fill="none" stroke="#000" stroke-miterlimit="10" stroke-width=".3985" transform="matrix(1 0 0 -1 23.91 98.448)"/></g><g clip-path="url(#aA)"><path d="m-.001-.002 3.09 3.09" fill="none" stroke="#000" stroke-miterlimit="10" stroke-width=".3985" transform="matrix(1 0 0 -1 26.9 98.448)"/></g><g clip-path="url(#aB)"><path d="m.002.002 3.086 3.086" fill="none" stroke="#000" stroke-miterlimit="10" stroke-width=".3985" transform="matrix(1 0 0 -1 11.955 95.459)"/></g><g clip-path="url(#aC)"><path d="m.001.002 3.086 3.086" fill="none" stroke="#000" stroke-miterlimit="10" stroke-width=".3985" transform="matrix(1 0 0 -1 14.944 95.459)"/></g><g clip-path="url(#aD)"><path d="m0 .002 3.087 3.086" fill="none" stroke="#000" stroke-miterlimit="10" stroke-width=".3985" transform="matrix(1 0 0 -1 17.933 95.459)"/></g><g clip-path="url(#aE)"><path d="m0 .002 3.09 3.086" fill="none" stroke="#000" stroke-miterlimit="10" stroke-width=".3985" transform="matrix(1 0 0 -1 20.922 95.459)"/></g><g clip-path="url(#aF)"><path d="m0 .002 3.09 3.086" fill="none" stroke="#000" stroke-miterlimit="10" stroke-width=".3985" transform="matrix(1 0 0 -1 23.91 95.459)"/></g><g clip-path="url(#aG)"><path d="m-.001.002 3.09 3.086" fill="none" stroke="#000" stroke-miterlimit="10" stroke-width=".3985" transform="matrix(1 0 0 -1 26.9 95.459)"/></g><g clip-path="url(#aH)"><path d="m.002.001 3.086 3.086" fill="none" stroke="#000" stroke-miterlimit="10" stroke-width=".3985" transform="matrix(1 0 0 -1 11.955 92.47)"/></g><g clip-path="url(#aI)"><path d="m.001.001 3.086 3.086" fill="none" stroke="#000" stroke-miterlimit="10" stroke-width=".3985" transform="matrix(1 0 0 -1 14.944 92.47)"/></g><g clip-path="url(#aJ)"><path d="m0 .001 3.087 3.086" fill="none" stroke="#000" stroke-miterlimit="10" stroke-width=".3985" transform="matrix(1 0 0 -1 17.933 92.47)"/></g><g clip-path="url(#aK)"><path d="m0 .001 3.09 3.086" fill="none" stroke="#000" stroke-miterlimit="10" stroke-width=".3985" transform="matrix(1 0 0 -1 20.922 92.47)"/></g><g clip-path="url(#aL)"><path d="m0 .001 3.09 3.086" fill="none" stroke="#000" stroke-miterlimit="10" stroke-width=".3985" transform="matrix(1 0 0 -1 23.91 92.47)"/></g><g clip-path="url(#aM)"><path d="m-.001.001 3.09 3.086" fill="none" stroke="#000" stroke-miterlimit="10" stroke-width=".3985" transform="matrix(1 0 0 -1 26.9 92.47)"/></g><g clip-path="url(#aN)"><path d="m.002 0 3.086 3.087" fill="none" stroke="#000" stroke-miterlimit="10" stroke-width=".3985" transform="matrix(1 0 0 -1 11.955 89.481)"/></g><g clip-path="url(#aO)"><path d="m.001 0 3.086 3.087" fill="none" stroke="#000" stroke-miterlimit="10" stroke-width=".3985" transform="matrix(1 0 0 -1 14.944 89.481)"/></g><g clip-path="url(#aP)"><path d="m0 0 3.087 3.087" fill="none" stroke="#000" stroke-miterlimit="10" stroke-width=".3985" transform="matrix(1 0 0 -1 17.933 89.481)"/></g><g clip-path="url(#aQ)"><path d="m0 0 3.09 3.087" fill="none" stroke="#000" stroke-miterlimit="10" stroke-width=".3985" transform="matrix(1 0 0 -1 20.922 89.481)"/></g><g clip-path="url(#aR)"><path d="m0 0 3.09 3.087" fill="none" stroke="#000" stroke-miterlimit="10" stroke-width=".3985" transform="matrix(1 0 0 -1 23.91 89.481)"/></g><g clip-path="url(#aS)"><path d="m-.001 0 3.09 3.087" fill="none" stroke="#000" stroke-miterlimit="10" stroke-width=".3985" transform="matrix(1 0 0 -1 26.9 89.481)"/></g><g clip-path="url(#aT)"><path d="m.002 0 3.086 3.09" fill="none" stroke="#000" stroke-miterlimit="10" stroke-width=".3985" transform="matrix(1 0 0 -1 11.955 86.492)"/></g><g clip-path="url(#aU)"><path d="m.001 0 3.086 3.09" fill="none" stroke="#000" stroke-miterlimit="10" stroke-width=".3985" transform="matrix(1 0 0 -1 14.944 86.492)"/></g><g clip-path="url(#aV)"><path d="m0 0 3.087 3.09" fill="none" stroke="#000" stroke-miterlimit="10" stroke-width=".3985" transform="matrix(1 0 0 -1 17.933 86.492)"/></g><g clip-path="url(#aW)"><path d="m0 0 3.09 3.09" fill="none" stroke="#000" stroke-miterlimit="10" stroke-width=".3985" transform="matrix(1 0 0 -1 20.922 86.492)"/></g><g clip-path="url(#aX)"><path d="m0 0 3.09 3.09" fill="none" stroke="#000" stroke-miterlimit="10" stroke-width=".3985" transform="matrix(1 0 0 -1 23.91 86.492)"/></g><g clip-path="url(#aY)"><path d="m-.001 0 3.09 3.09" fill="none" stroke="#000" stroke-miterlimit="10" stroke-width=".3985" transform="matrix(1 0 0 -1 26.9 86.492)"/></g><g clip-path="url(#aZ)"><path d="m.002 0 3.086 3.09" fill="none" stroke="#000" stroke-miterlimit="10" stroke-width=".3985" transform="matrix(1 0 0 -1 11.955 83.503)"/></g><g clip-path="url(#a0)"><path d="m.001 0 3.086 3.09" fill="none" stroke="#000" stroke-miterlimit="10" stroke-width=".3985" transform="matrix(1 0 0 -1 14.944 83.503)"/></g><g clip-path="url(#a1)"><path d="m0 0 3.087 3.09" fill="none" stroke="#000" stroke-miterlimit="10" stroke-width=".3985" transform="matrix(1 0 0 -1 17.933 83.503)"/></g><g clip-path="url(#a2)"><path d="m0 0 3.09 3.09" fill="none" stroke="#000" stroke-miterlimit="10" stroke-width=".3985" transform="matrix(1 0 0 -1 20.922 83.503)"/></g><g clip-path="url(#a3)"><path d="m0 0 3.09 3.09" fill="none" stroke="#000" stroke-miterlimit="10" stroke-width=".3985" transform="matrix(1 0 0 -1 23.91 83.503)"/></g><g clip-path="url(#a4)"><path d="m-.001 0 3.09 3.09" fill="none" stroke="#000" stroke-miterlimit="10" stroke-width=".3985" transform="matrix(1 0 0 -1 26.9 83.503)"/></g><g clip-path="url(#a5)"><path d="m.002-.001 3.086 3.09" fill="none" stroke="#000" stroke-miterlimit="10" stroke-width=".3985" transform="matrix(1 0 0 -1 11.955 80.515)"/></g><g clip-path="url(#a6)"><path d="m.001-.001 3.086 3.09" fill="none" stroke="#000" stroke-miterlimit="10" stroke-width=".3985" transform="matrix(1 0 0 -1 14.944 80.515)"/></g><g clip-path="url(#a7)"><path d="m0-.001 3.087 3.09" fill="none" stroke="#000" stroke-miterlimit="10" stroke-width=".3985" transform="matrix(1 0 0 -1 17.933 80.515)"/></g><g clip-path="url(#a8)"><path d="m0-.001 3.09 3.09" fill="none" stroke="#000" stroke-miterlimit="10" stroke-width=".3985" transform="matrix(1 0 0 -1 20.922 80.515)"/></g><g clip-path="url(#a9)"><path d="m0-.001 3.09 3.09" fill="none" stroke="#000" stroke-miterlimit="10" stroke-width=".3985" transform="matrix(1 0 0 -1 23.91 80.515)"/></g><g clip-path="url(#ba)"><path d="m-.001-.001 3.09 3.09" fill="none" stroke="#000" stroke-miterlimit="10" stroke-width=".3985" transform="matrix(1 0 0 -1 26.9 80.515)"/></g><g clip-path="url(#bb)"><path d="m.002-.002 3.086 3.09" fill="none" stroke="#000" stroke-miterlimit="10" stroke-width=".3985" transform="matrix(1 0 0 -1 11.955 77.526)"/></g><g clip-path="url(#bc)"><path d="m.001-.002 3.086 3.09" fill="none" stroke="#000" stroke-miterlimit="10" stroke-width=".3985" transform="matrix(1 0 0 -1 14.944 77.526)"/></g><g clip-path="url(#bd)"><path d="m0-.002 3.087 3.09" fill="none" stroke="#000" stroke-miterlimit="10" stroke-width=".3985" transform="matrix(1 0 0 -1 17.933 77.526)"/></g><g clip-path="url(#be)"><path d="m0-.002 3.09 3.09" fill="none" stroke="#000" stroke-miterlimit="10" stroke-width=".3985" transform="matrix(1 0 0 -1 20.922 77.526)"/></g><g clip-path="url(#bf)"><path d="m0-.002 3.09 3.09" fill="none" stroke="#000" stroke-miterlimit="10" stroke-width=".3985" transform="matrix(1 0 0 -1 23.91 77.526)"/></g><g clip-path="url(#bg)"><path d="m-.001-.002 3.09 3.09" fill="none" stroke="#000" stroke-miterlimit="10" stroke-width=".3985" transform="matrix(1 0 0 -1 26.9 77.526)"/></g><g clip-path="url(#bh)"><path d="m.002.002 3.086 3.086" fill="none" stroke="#000" stroke-miterlimit="10" stroke-width=".3985" transform="matrix(1 0 0 -1 11.955 74.537)"/></g><g clip-path="url(#bi)"><path d="m.001.002 3.086 3.086" fill="none" stroke="#000" stroke-miterlimit="10" stroke-width=".3985" transform="matrix(1 0 0 -1 14.944 74.537)"/></g><g clip-path="url(#bj)"><path d="m0 .002 3.087 3.086" fill="none" stroke="#000" stroke-miterlimit="10" stroke-width=".3985" transform="matrix(1 0 0 -1 17.933 74.537)"/></g><g clip-path="url(#bk)"><path d="m0 .002 3.09 3.086" fill="none" stroke="#000" stroke-miterlimit="10" stroke-width=".3985" transform="matrix(1 0 0 -1 20.922 74.537)"/></g><g clip-path="url(#bl)"><path d="m0 .002 3.09 3.086" fill="none" stroke="#000" stroke-miterlimit="10" stroke-width=".3985" transform="matrix(1 0 0 -1 23.91 74.537)"/></g><g clip-path="url(#bm)"><path d="m-.001.002 3.09 3.086" fill="none" stroke="#000" stroke-miterlimit="10" stroke-width=".3985" transform="matrix(1 0 0 -1 26.9 74.537)"/></g><g clip-path="url(#bn)"><path d="m.002.001 3.086 3.086" fill="none" stroke="#000" stroke-miterlimit="10" stroke-width=".3985" transform="matrix(1 0 0 -1 11.955 71.548)"/></g><g clip-path="url(#bo)"><path d="m.001.001 3.086 3.086" fill="none" stroke="#000" stroke-miterlimit="10" stroke-width=".3985" transform="matrix(1 0 0 -1 14.944 71.548)"/></g><g clip-path="url(#bp)"><path d="m0 .001 3.087 3.086" fill="none" stroke="#000" stroke-miterlimit="10" stroke-width=".3985" transform="matrix(1 0 0 -1 17.933 71.548)"/></g><g clip-path="url(#bq)"><path d="m0 .001 3.09 3.086" fill="none" stroke="#000" stroke-miterlimit="10" stroke-width=".3985" transform="matrix(1 0 0 -1 20.922 71.548)"/></g><g clip-path="url(#br)"><path d="m0 .001 3.09 3.086" fill="none" stroke="#000" stroke-miterlimit="10" stroke-width=".3985" transform="matrix(1 0 0 -1 23.91 71.548)"/></g><g clip-path="url(#bs)"><path d="m-.001.001 3.09 3.086" fill="none" stroke="#000" stroke-miterlimit="10" stroke-width=".3985" transform="matrix(1 0 0 -1 26.9 71.548)"/></g><g clip-path="url(#bt)"><path d="m.002 0 3.086 3.087" fill="none" stroke="#000" stroke-miterlimit="10" stroke-width=".3985" transform="matrix(1 0 0 -1 11.955 68.56)"/></g><g clip-path="url(#bu)"><path d="m.001 0 3.086 3.087" fill="none" stroke="#000" stroke-miterlimit="10" stroke-width=".3985" transform="matrix(1 0 0 -1 14.944 68.56)"/></g><g clip-path="url(#bv)"><path d="m0 0 3.087 3.087" fill="none" stroke="#000" stroke-miterlimit="10" stroke-width=".3985" transform="matrix(1 0 0 -1 17.933 68.56)"/></g><g clip-path="url(#bw)"><path d="m0 0 3.09 3.087" fill="none" stroke="#000" stroke-miterlimit="10" stroke-width=".3985" transform="matrix(1 0 0 -1 20.922 68.56)"/></g><g clip-path="url(#bx)"><path d="m0 0 3.09 3.087" fill="none" stroke="#000" stroke-miterlimit="10" stroke-width=".3985" transform="matrix(1 0 0 -1 23.91 68.56)"/></g><g clip-path="url(#by)"><path d="m-.001 0 3.09 3.087" fill="none" stroke="#000" stroke-miterlimit="10" stroke-width=".3985" transform="matrix(1 0 0 -1 26.9 68.56)"/></g><g clip-path="url(#bz)"><path d="m.002 0 3.086 3.09" fill="none" stroke="#000" stroke-miterlimit="10" stroke-width=".3985" transform="matrix(1 0 0 -1 11.955 65.57)"/></g><g clip-path="url(#bA)"><path d="m.001 0 3.086 3.09" fill="none" stroke="#000" stroke-miterlimit="10" stroke-width=".3985" transform="matrix(1 0 0 -1 14.944 65.57)"/></g><g clip-path="url(#bB)"><path d="m0 0 3.087 3.09" fill="none" stroke="#000" stroke-miterlimit="10" stroke-width=".3985" transform="matrix(1 0 0 -1 17.933 65.57)"/></g><g clip-path="url(#bC)"><path d="m0 0 3.09 3.09" fill="none" stroke="#000" stroke-miterlimit="10" stroke-width=".3985" transform="matrix(1 0 0 -1 20.922 65.57)"/></g><g clip-path="url(#bD)"><path d="m0 0 3.09 3.09" fill="none" stroke="#000" stroke-miterlimit="10" stroke-width=".3985" transform="matrix(1 0 0 -1 23.91 65.57)"/></g><g clip-path="url(#bE)"><path d="m-.001 0 3.09 3.09" fill="none" stroke="#000" stroke-miterlimit="10" stroke-width=".3985" transform="matrix(1 0 0 -1 26.9 65.57)"/></g><g clip-path="url(#bF)"><path d="m.002 0 3.086 3.09" fill="none" stroke="#000" stroke-miterlimit="10" stroke-width=".3985" transform="matrix(1 0 0 -1 11.955 62.582)"/></g><g clip-path="url(#bG)"><path d="m.001 0 3.086 3.09" fill="none" stroke="#000" stroke-miterlimit="10" stroke-width=".3985" transform="matrix(1 0 0 -1 14.944 62.582)"/></g><g clip-path="url(#bH)"><path d="m0 0 3.087 3.09" fill="none" stroke="#000" stroke-miterlimit="10" stroke-width=".3985" transform="matrix(1 0 0 -1 17.933 62.582)"/></g><g clip-path="url(#bI)"><path d="m0 0 3.09 3.09" fill="none" stroke="#000" stroke-miterlimit="10" stroke-width=".3985" transform="matrix(1 0 0 -1 20.922 62.582)"/></g><g clip-path="url(#bJ)"><path d="m0 0 3.09 3.09" fill="none" stroke="#000" stroke-miterlimit="10" stroke-width=".3985" transform="matrix(1 0 0 -1 23.91 62.582)"/></g><g clip-path="url(#bK)"><path d="m-.001 0 3.09 3.09" fill="none" stroke="#000" stroke-miterlimit="10" stroke-width=".3985" transform="matrix(1 0 0 -1 26.9 62.582)"/></g><g clip-path="url(#bL)"><path d="m.002-.001 3.086 3.09" fill="none" stroke="#000" stroke-miterlimit="10" stroke-width=".3985" transform="matrix(1 0 0 -1 11.955 59.593)"/></g><g clip-path="url(#bM)"><path d="m.001-.001 3.086 3.09" fill="none" stroke="#000" stroke-miterlimit="10" stroke-width=".3985" transform="matrix(1 0 0 -1 14.944 59.593)"/></g><g clip-path="url(#bN)"><path d="m0-.001 3.087 3.09" fill="none" stroke="#000" stroke-miterlimit="10" stroke-width=".3985" transform="matrix(1 0 0 -1 17.933 59.593)"/></g><g clip-path="url(#bO)"><path d="m0-.001 3.09 3.09" fill="none" stroke="#000" stroke-miterlimit="10" stroke-width=".3985" transform="matrix(1 0 0 -1 20.922 59.593)"/></g><g clip-path="url(#bP)"><path d="m0-.001 3.09 3.09" fill="none" stroke="#000" stroke-miterlimit="10" stroke-width=".3985" transform="matrix(1 0 0 -1 23.91 59.593)"/></g><g clip-path="url(#bQ)"><path d="m-.001-.001 3.09 3.09" fill="none" stroke="#000" stroke-miterlimit="10" stroke-width=".3985" transform="matrix(1 0 0 -1 26.9 59.593)"/></g><g clip-path="url(#bR)"><path d="m.002-.002 3.086 3.09" fill="none" stroke="#000" stroke-miterlimit="10" stroke-width=".3985" transform="matrix(1 0 0 -1 11.955 56.604)"/></g><g clip-path="url(#bS)"><path d="m.001-.002 3.086 3.09" fill="none" stroke="#000" stroke-miterlimit="10" stroke-width=".3985" transform="matrix(1 0 0 -1 14.944 56.604)"/></g><g clip-path="url(#bT)"><path d="m0-.002 3.087 3.09" fill="none" stroke="#000" stroke-miterlimit="10" stroke-width=".3985" transform="matrix(1 0 0 -1 17.933 56.604)"/></g><g clip-path="url(#bU)"><path d="m0-.002 3.09 3.09" fill="none" stroke="#000" stroke-miterlimit="10" stroke-width=".3985" transform="matrix(1 0 0 -1 20.922 56.604)"/></g><g clip-path="url(#bV)"><path d="m0-.002 3.09 3.09" fill="none" stroke="#000" stroke-miterlimit="10" stroke-width=".3985" transform="matrix(1 0 0 -1 23.91 56.604)"/></g><g clip-path="url(#bW)"><path d="m-.001-.002 3.09 3.09" fill="none" stroke="#000" stroke-miterlimit="10" stroke-width=".3985" transform="matrix(1 0 0 -1 26.9 56.604)"/></g><g clip-path="url(#bX)"><path d="m.002.002 3.086 3.086" fill="none" stroke="#000" stroke-miterlimit="10" stroke-width=".3985" transform="matrix(1 0 0 -1 11.955 53.615)"/></g><g clip-path="url(#bY)"><path d="m.001.002 3.086 3.086" fill="none" stroke="#000" stroke-miterlimit="10" stroke-width=".3985" transform="matrix(1 0 0 -1 14.944 53.615)"/></g><g clip-path="url(#bZ)"><path d="m0 .002 3.087 3.086" fill="none" stroke="#000" stroke-miterlimit="10" stroke-width=".3985" transform="matrix(1 0 0 -1 17.933 53.615)"/></g><g clip-path="url(#b0)"><path d="m0 .002 3.09 3.086" fill="none" stroke="#000" stroke-miterlimit="10" stroke-width=".3985" transform="matrix(1 0 0 -1 20.922 53.615)"/></g><g clip-path="url(#b1)"><path d="m0 .002 3.09 3.086" fill="none" stroke="#000" stroke-miterlimit="10" stroke-width=".3985" transform="matrix(1 0 0 -1 23.91 53.615)"/></g><g clip-path="url(#b2)"><path d="m-.001.002 3.09 3.086" fill="none" stroke="#000" stroke-miterlimit="10" stroke-width=".3985" transform="matrix(1 0 0 -1 26.9 53.615)"/></g><g clip-path="url(#b3)"><path d="m.002.001 3.086 3.086" fill="none" stroke="#000" stroke-miterlimit="10" stroke-width=".3985" transform="matrix(1 0 0 -1 11.955 50.626)"/></g><g clip-path="url(#b4)"><path d="m.001.001 3.086 3.086" fill="none" stroke="#000" stroke-miterlimit="10" stroke-width=".3985" transform="matrix(1 0 0 -1 14.944 50.626)"/></g><g clip-path="url(#b5)"><path d="m0 .001 3.087 3.086" fill="none" stroke="#000" stroke-miterlimit="10" stroke-width=".3985" transform="matrix(1 0 0 -1 17.933 50.626)"/></g><g clip-path="url(#b6)"><path d="m0 .001 3.09 3.086" fill="none" stroke="#000" stroke-miterlimit="10" stroke-width=".3985" transform="matrix(1 0 0 -1 20.922 50.626)"/></g><g clip-path="url(#b7)"><path d="m0 .001 3.09 3.086" fill="none" stroke="#000" stroke-miterlimit="10" stroke-width=".3985" transform="matrix(1 0 0 -1 23.91 50.626)"/></g><g clip-path="url(#b8)"><path d="m-.001.001 3.09 3.086" fill="none" stroke="#000" stroke-miterlimit="10" stroke-width=".3985" transform="matrix(1 0 0 -1 26.9 50.626)"/></g><g clip-path="url(#b9)"><path d="m.002 0 3.086 3.087" fill="none" stroke="#000" stroke-miterlimit="10" stroke-width=".3985" transform="matrix(1 0 0 -1 11.955 47.637)"/></g><g clip-path="url(#ca)"><path d="m.001 0 3.086 3.087" fill="none" stroke="#000" stroke-miterlimit="10" stroke-width=".3985" transform="matrix(1 0 0 -1 14.944 47.637)"/></g><g clip-path="url(#cb)"><path d="m0 0 3.087 3.087" fill="none" stroke="#000" stroke-miterlimit="10" stroke-width=".3985" transform="matrix(1 0 0 -1 17.933 47.637)"/></g><g clip-path="url(#cc)"><path d="m0 0 3.09 3.087" fill="none" stroke="#000" stroke-miterlimit="10" stroke-width=".3985" transform="matrix(1 0 0 -1 20.922 47.637)"/></g><g clip-path="url(#cd)"><path d="m0 0 3.09 3.087" fill="none" stroke="#000" stroke-miterlimit="10" stroke-width=".3985" transform="matrix(1 0 0 -1 23.91 47.637)"/></g><g clip-path="url(#ce)"><path d="m-.001 0 3.09 3.087" fill="none" stroke="#000" stroke-miterlimit="10" stroke-width=".3985" transform="matrix(1 0 0 -1 26.9 47.637)"/></g><g clip-path="url(#cf)"><path d="m.002 0 3.086 3.09" fill="none" stroke="#000" stroke-miterlimit="10" stroke-width=".3985" transform="matrix(1 0 0 -1 11.955 44.649)"/></g><g clip-path="url(#cg)"><path d="m.001 0 3.086 3.09" fill="none" stroke="#000" stroke-miterlimit="10" stroke-width=".3985" transform="matrix(1 0 0 -1 14.944 44.649)"/></g><g clip-path="url(#ch)"><path d="m0 0 3.087 3.09" fill="none" stroke="#000" stroke-miterlimit="10" stroke-width=".3985" transform="matrix(1 0 0 -1 17.933 44.649)"/></g><g clip-path="url(#ci)"><path d="m0 0 3.09 3.09" fill="none" stroke="#000" stroke-miterlimit="10" stroke-width=".3985" transform="matrix(1 0 0 -1 20.922 44.649)"/></g><g clip-path="url(#cj)"><path d="m0 0 3.09 3.09" fill="none" stroke="#000" stroke-miterlimit="10" stroke-width=".3985" transform="matrix(1 0 0 -1 23.91 44.649)"/></g><g clip-path="url(#ck)"><path d="m-.001 0 3.09 3.09" fill="none" stroke="#000" stroke-miterlimit="10" stroke-width=".3985" transform="matrix(1 0 0 -1 26.9 44.649)"/></g><g clip-path="url(#cl)"><path d="m.002 0 3.086 3.09" fill="none" stroke="#000" stroke-miterlimit="10" stroke-width=".3985" transform="matrix(1 0 0 -1 11.955 41.66)"/></g><g clip-path="url(#cm)"><path d="m.001 0 3.086 3.09" fill="none" stroke="#000" stroke-miterlimit="10" stroke-width=".3985" transform="matrix(1 0 0 -1 14.944 41.66)"/></g><g clip-path="url(#cn)"><path d="m0 0 3.087 3.09" fill="none" stroke="#000" stroke-miterlimit="10" stroke-width=".3985" transform="matrix(1 0 0 -1 17.933 41.66)"/></g><g clip-path="url(#co)"><path d="m0 0 3.09 3.09" fill="none" stroke="#000" stroke-miterlimit="10" stroke-width=".3985" transform="matrix(1 0 0 -1 20.922 41.66)"/></g><g clip-path="url(#cp)"><path d="m0 0 3.09 3.09" fill="none" stroke="#000" stroke-miterlimit="10" stroke-width=".3985" transform="matrix(1 0 0 -1 23.91 41.66)"/></g><g clip-path="url(#cq)"><path d="m-.001 0 3.09 3.09" fill="none" stroke="#000" stroke-miterlimit="10" stroke-width=".3985" transform="matrix(1 0 0 -1 26.9 41.66)"/></g><g clip-path="url(#cr)"><path d="m.002 0 3.086 3.089" fill="none" stroke="#000" stroke-miterlimit="10" stroke-width=".3985" transform="matrix(1 0 0 -1 11.955 38.671)"/></g><g clip-path="url(#cs)"><path d="m.001 0 3.086 3.089" fill="none" stroke="#000" stroke-miterlimit="10" stroke-width=".3985" transform="matrix(1 0 0 -1 14.944 38.671)"/></g><g clip-path="url(#ct)"><path d="m0 0 3.087 3.089" fill="none" stroke="#000" stroke-miterlimit="10" stroke-width=".3985" transform="matrix(1 0 0 -1 17.933 38.671)"/></g><g clip-path="url(#cu)"><path d="m0 0 3.09 3.089" fill="none" stroke="#000" stroke-miterlimit="10" stroke-width=".3985" transform="matrix(1 0 0 -1 20.922 38.671)"/></g><g clip-path="url(#cv)"><path d="m0 0 3.09 3.089" fill="none" stroke="#000" stroke-miterlimit="10" stroke-width=".3985" transform="matrix(1 0 0 -1 23.91 38.671)"/></g><g clip-path="url(#cw)"><path d="m-.001 0 3.09 3.089" fill="none" stroke="#000" stroke-miterlimit="10" stroke-width=".3985" transform="matrix(1 0 0 -1 26.9 38.671)"/></g><g clip-path="url(#cx)"><path d="m.002-.001 3.086 3.09" fill="none" stroke="#000" stroke-miterlimit="10" stroke-width=".3985" transform="matrix(1 0 0 -1 11.955 35.682)"/></g><g clip-path="url(#cy)"><path d="m.001-.001 3.086 3.09" fill="none" stroke="#000" stroke-miterlimit="10" stroke-width=".3985" transform="matrix(1 0 0 -1 14.944 35.682)"/></g><g clip-path="url(#cz)"><path d="m0-.001 3.087 3.09" fill="none" stroke="#000" stroke-miterlimit="10" stroke-width=".3985" transform="matrix(1 0 0 -1 17.933 35.682)"/></g><g clip-path="url(#cA)"><path d="m0-.001 3.09 3.09" fill="none" stroke="#000" stroke-miterlimit="10" stroke-width=".3985" transform="matrix(1 0 0 -1 20.922 35.682)"/></g><g clip-path="url(#cB)"><path d="m0-.001 3.09 3.09" fill="none" stroke="#000" stroke-miterlimit="10" stroke-width=".3985" transform="matrix(1 0 0 -1 23.91 35.682)"/></g><g clip-path="url(#cC)"><path d="m-.001-.001 3.09 3.09" fill="none" stroke="#000" stroke-miterlimit="10" stroke-width=".3985" transform="matrix(1 0 0 -1 26.9 35.682)"/></g><g clip-path="url(#cD)"><path d="m.002.002 3.086 3.086" fill="none" stroke="#000" stroke-miterlimit="10" stroke-width=".3985" transform="matrix(1 0 0 -1 11.955 32.693)"/></g><g clip-path="url(#cE)"><path d="m.001.002 3.086 3.086" fill="none" stroke="#000" stroke-miterlimit="10" stroke-width=".3985" transform="matrix(1 0 0 -1 14.944 32.693)"/></g><g clip-path="url(#cF)"><path d="m0 .002 3.087 3.086" fill="none" stroke="#000" stroke-miterlimit="10" stroke-width=".3985" transform="matrix(1 0 0 -1 17.933 32.693)"/></g><g clip-path="url(#cG)"><path d="m0 .002 3.09 3.086" fill="none" stroke="#000" stroke-miterlimit="10" stroke-width=".3985" transform="matrix(1 0 0 -1 20.922 32.693)"/></g><g clip-path="url(#cH)"><path d="m0 .002 3.09 3.086" fill="none" stroke="#000" stroke-miterlimit="10" stroke-width=".3985" transform="matrix(1 0 0 -1 23.91 32.693)"/></g><g clip-path="url(#cI)"><path d="m-.001.002 3.09 3.086" fill="none" stroke="#000" stroke-miterlimit="10" stroke-width=".3985" transform="matrix(1 0 0 -1 26.9 32.693)"/></g><g clip-path="url(#cJ)"><path d="m.002.001 3.086 3.086" fill="none" stroke="#000" stroke-miterlimit="10" stroke-width=".3985" transform="matrix(1 0 0 -1 11.955 29.704)"/></g><g clip-path="url(#cK)"><path d="m.001.001 3.086 3.086" fill="none" stroke="#000" stroke-miterlimit="10" stroke-width=".3985" transform="matrix(1 0 0 -1 14.944 29.704)"/></g><g clip-path="url(#cL)"><path d="m0 .001 3.087 3.086" fill="none" stroke="#000" stroke-miterlimit="10" stroke-width=".3985" transform="matrix(1 0 0 -1 17.933 29.704)"/></g><g clip-path="url(#cM)"><path d="m0 .001 3.09 3.086" fill="none" stroke="#000" stroke-miterlimit="10" stroke-width=".3985" transform="matrix(1 0 0 -1 20.922 29.704)"/></g><g clip-path="url(#cN)"><path d="m0 .001 3.09 3.086" fill="none" stroke="#000" stroke-miterlimit="10" stroke-width=".3985" transform="matrix(1 0 0 -1 23.91 29.704)"/></g><g clip-path="url(#cO)"><path d="m-.001.001 3.09 3.086" fill="none" stroke="#000" stroke-miterlimit="10" stroke-width=".3985" transform="matrix(1 0 0 -1 26.9 29.704)"/></g><g clip-path="url(#cP)"><path d="m.002 0 3.086 3.087" fill="none" stroke="#000" stroke-miterlimit="10" stroke-width=".3985" transform="matrix(1 0 0 -1 11.955 26.716)"/></g><g clip-path="url(#cQ)"><path d="m.001 0 3.086 3.087" fill="none" stroke="#000" stroke-miterlimit="10" stroke-width=".3985" transform="matrix(1 0 0 -1 14.944 26.716)"/></g><g clip-path="url(#cR)"><path d="m0 0 3.087 3.087" fill="none" stroke="#000" stroke-miterlimit="10" stroke-width=".3985" transform="matrix(1 0 0 -1 17.933 26.716)"/></g><g clip-path="url(#cS)"><path d="m0 0 3.09 3.087" fill="none" stroke="#000" stroke-miterlimit="10" stroke-width=".3985" transform="matrix(1 0 0 -1 20.922 26.716)"/></g><g clip-path="url(#cT)"><path d="m0 0 3.09 3.087" fill="none" stroke="#000" stroke-miterlimit="10" stroke-width=".3985" transform="matrix(1 0 0 -1 23.91 26.716)"/></g><g clip-path="url(#cU)"><path d="m-.001 0 3.09 3.087" fill="none" stroke="#000" stroke-miterlimit="10" stroke-width=".3985" transform="matrix(1 0 0 -1 26.9 26.716)"/></g><g clip-path="url(#cV)"><path d="m.002 0 3.086 3.09" fill="none" stroke="#000" stroke-miterlimit="10" stroke-width=".3985" transform="matrix(1 0 0 -1 11.955 23.727)"/></g><g clip-path="url(#cW)"><path d="m.001 0 3.086 3.09" fill="none" stroke="#000" stroke-miterlimit="10" stroke-width=".3985" transform="matrix(1 0 0 -1 14.944 23.727)"/></g><g clip-path="url(#cX)"><path d="m0 0 3.087 3.09" fill="none" stroke="#000" stroke-miterlimit="10" stroke-width=".3985" transform="matrix(1 0 0 -1 17.933 23.727)"/></g><g clip-path="url(#cY)"><path d="m0 0 3.09 3.09" fill="none" stroke="#000" stroke-miterlimit="10" stroke-width=".3985" transform="matrix(1 0 0 -1 20.922 23.727)"/></g><g clip-path="url(#cZ)"><path d="m0 0 3.09 3.09" fill="none" stroke="#000" stroke-miterlimit="10" stroke-width=".3985" transform="matrix(1 0 0 -1 23.91 23.727)"/></g><g clip-path="url(#c0)"><path d="m-.001 0 3.09 3.09" fill="none" stroke="#000" stroke-miterlimit="10" stroke-width=".3985" transform="matrix(1 0 0 -1 26.9 23.727)"/></g><path d="m-.002.001v107.715h14.176v-107.715zm0 0" fill="none" stroke="#000" stroke-miterlimit="10" stroke-width=".79701" transform="matrix(1 0 0 -1 13.986 131.388)"/></svg>