<svg xmlns="http://www.w3.org/2000/svg" xmlns:xlink="http://www.w3.org/1999/xlink" width="265.507" height="159.827" viewBox="0 0 199.13 119.87"><defs><symbol overflow="visible" id="a"><path d="M2.406-3.406h.406c.391-.016.891-.047 1.282-.063-.282.266-.438.422-1.438 1.188C.641-.75.422-.094.422-.062c0 .14.14.14.219.14.171 0 .171-.015.25-.11.359-.5.718-.562.89-.562.266 0 .485.172.64.281.313.22.563.391.938.391 1.11 0 1.844-1.219 1.844-1.594 0-.14-.172-.14-.234-.14-.078 0-.188 0-.219.093-.078.188-.188.438-.86.516-.046.016-2 .094-2.218.094.281-.266.437-.422 1.453-1.188 2.016-1.53 2.234-2.187 2.234-2.218 0-.141-.14-.141-.218-.141-.157 0-.172 0-.235.094-.234.343-.437.578-.672.578-.25 0-.468-.156-.703-.313-.234-.187-.484-.359-.86-.359-.874 0-1.452.875-1.452 1.188 0 .14.172.14.25.14.093 0 .203 0 .218-.125.141-.078.22-.078.516-.11zm0 0"/></symbol><symbol overflow="visible" id="g"><path d="M5.344-4a.744.744 0 00-.532.688c0 .218.157.468.485.468.36 0 .719-.297.719-.781 0-.531-.516-.875-1.125-.875-.579 0-.938.422-1.079.61-.25-.422-.796-.61-1.374-.61C1.188-4.5.516-3.281.516-2.953c0 .14.14.14.234.14.125 0 .188 0 .234-.124.282-.907 1-1.204 1.407-1.204.375 0 .562.172.562.485 0 .203-.14.75-.234 1.11l-.344 1.358c-.14.61-.5.907-.844.907-.047 0-.281 0-.468-.14a.759.759 0 00.53-.688.477.477 0 00-.5-.47c-.343 0-.718.298-.718.782 0 .531.531.875 1.14.875.563 0 .938-.422 1.063-.61.25.423.813.61 1.375.61 1.266 0 1.938-1.219 1.938-1.547 0-.14-.157-.14-.235-.14-.125 0-.187 0-.234.125C5.14-.578 4.422-.281 4-.281c-.375 0-.547-.172-.547-.5 0-.203.125-.735.219-1.11.062-.25.297-1.187.344-1.343.156-.61.5-.907.843-.907.063 0 .282 0 .485.141zm0 0"/></symbol><symbol overflow="visible" id="b"><path d="M2.328-4.438c0-.187 0-.187-.203-.187-.453.438-1.078.438-1.36.438v.25c.157 0 .626 0 1-.188v3.547c0 .234 0 .328-.687.328H.812V0c.125 0 .985-.031 1.235-.031.219 0 1.094.031 1.25.031v-.25H3.03c-.703 0-.703-.094-.703-.328zm0 0"/></symbol><symbol overflow="visible" id="c"><path d="M1.531-2.594A.403.403 0 001.125-3a.4.4 0 00-.406.39c0 .25.203.407.406.407a.4.4 0 00.406-.39zm0 2.203a.403.403 0 00-.406-.406.4.4 0 00-.406.39c0 .25.203.407.406.407a.4.4 0 00.406-.39zm0 0"/></symbol><symbol overflow="visible" id="j"><path d="M3.219-1.578h2.14c.094 0 .25 0 .25-.156 0-.188-.156-.188-.25-.188H3.22v-2.14c0-.079 0-.25-.156-.25-.172 0-.172.156-.172.25v2.14H.75c-.094 0-.266 0-.266.172s.157.172.266.172h2.14v2.14c0 .094 0 .266.157.266.172 0 .172-.172.172-.265zm0 0"/></symbol><symbol overflow="visible" id="d"><path d="M3.984-4.625c0-.016.016-.11.016-.11 0-.046-.016-.109-.11-.109-.14 0-.718.063-.89.078-.047 0-.156.016-.156.157 0 .093.11.093.187.093.328 0 .328.063.328.11s0 .093-.015.156l-.406 1.594c-.141-.235-.376-.422-.72-.422-.89 0-1.796.984-1.796 1.984C.422-.406.875.063 1.484.063c.375 0 .704-.204.985-.485.125.422.531.484.719.484.25 0 .421-.14.546-.359.157-.281.25-.672.25-.703 0-.094-.093-.094-.109-.094-.11 0-.11.032-.156.219-.094.344-.219.75-.516.75-.172 0-.234-.156-.234-.344 0-.125.015-.187.047-.281zM2.5-.875c-.047.203-.203.344-.36.469-.062.062-.343.281-.64.281-.266 0-.516-.188-.516-.672 0-.375.204-1.14.375-1.422.313-.562.672-.656.86-.656.484 0 .625.531.625.61 0 .015-.016.078-.016.093zm0 0"/></symbol><symbol overflow="visible" id="k"><path d="M1.313-.547c-.047.235-.063.297-.61.297C.578-.25.5-.25.5-.094.5 0 .578 0 .703 0h2.485c1.546 0 3.03-1.422 3.03-2.938 0-1.015-.702-1.828-1.827-1.828H1.844c-.14 0-.219 0-.219.157 0 .093.078.093.234.093.11 0 .141 0 .266.016.14.016.14.031.14.11 0 0 0 .046-.015.14zm1.562-3.719c.063-.218.063-.25.36-.25h.89c.781 0 1.438.391 1.438 1.344 0 .156-.079 1.36-.766 2.156a2.35 2.35 0 01-1.734.766h-.938c-.219 0-.234-.016-.234-.078 0 0 0-.031.03-.14zm0 0"/></symbol><symbol overflow="visible" id="e"><path d="M6.844-3.266c.156 0 .343 0 .343-.187 0-.203-.187-.203-.328-.203H.891c-.141 0-.329 0-.329.203 0 .187.188.187.329.187zm.015 1.938c.141 0 .329 0 .329-.203 0-.188-.188-.188-.344-.188H.89c-.141 0-.329 0-.329.188 0 .203.188.203.329.203zm0 0"/></symbol><symbol overflow="visible" id="l"><path d="M4.688-3.766a.562.562 0 00.03-.171c0-.172-.109-.266-.28-.266-.094 0-.375.062-.407.422-.187-.36-.531-.625-.937-.625-1.125 0-2.36 1.39-2.36 2.828C.734-.594 1.328 0 2.047 0c.594 0 1.062-.469 1.156-.578l.016.015C3.016.313 2.89.734 2.89.75c-.047.094-.375 1.078-1.438 1.078a2.68 2.68 0 01-.797-.11.542.542 0 00.406-.515C1.063 1.047.954.86.688.86a.546.546 0 00-.53.579c0 .406.359.609 1.312.609 1.25 0 1.968-.781 2.125-1.375zM3.405-1.28c-.062.265-.297.515-.515.703-.204.172-.516.36-.813.36-.5 0-.64-.516-.64-.923 0-.468.28-1.656.562-2.156.266-.484.688-.89 1.11-.89.656 0 .796.812.796.859 0 .047-.015.11-.031.14zm0 0"/></symbol><symbol overflow="visible" id="o"><path d="M.875-.594c-.031.156-.094.39-.094.438 0 .172.14.265.297.265a.414.414 0 00.375-.28c0-.016.125-.485.188-.735l.218-.89c.047-.235.11-.454.172-.673.031-.172.11-.469.125-.5.14-.312.672-1.219 1.625-1.219.453 0 .531.375.531.704 0 .25-.062.53-.14.828L3.89-1.5l-.204.75c-.03.203-.124.547-.124.594 0 .172.14.265.28.265.313 0 .376-.25.454-.562.14-.563.516-2.016.594-2.406.03-.125.562-1.329 1.656-1.329.422 0 .531.344.531.704 0 .562-.422 1.703-.625 2.234-.078.234-.125.344-.125.547 0 .469.344.812.813.812.937 0 1.312-1.453 1.312-1.53 0-.11-.094-.11-.125-.11-.094 0-.094.031-.14.187-.157.532-.47 1.235-1.016 1.235-.172 0-.25-.094-.25-.329 0-.25.094-.484.187-.703.188-.53.61-1.625.61-2.203 0-.64-.407-1.062-1.157-1.062-.734 0-1.25.437-1.625.968 0-.124-.03-.468-.312-.703-.25-.218-.563-.265-.813-.265-.906 0-1.39.64-1.562.875-.047-.578-.469-.875-.922-.875-.453 0-.64.39-.734.562-.172.36-.297.938-.297.969 0 .11.094.11.11.11.109 0 .109-.016.171-.235.172-.703.375-1.188.735-1.188.156 0 .296.079.296.454 0 .218-.03.328-.156.843zm0 0"/></symbol><clipPath id="f"><path d="M140 0h59.129v57H140zm0 0"/></clipPath><clipPath id="h"><path d="M0 74h46v45.871H0zm0 0"/></clipPath><clipPath id="i"><path d="M0 62h57v57.871H0zm0 0"/></clipPath><clipPath id="m"><path d="M153 74h46v45.871h-46zm0 0"/></clipPath><clipPath id="n"><path d="M142 62h57.129v57.871H142zm0 0"/></clipPath></defs><path d="M45.2 22.59L23.007.395.813 22.59 23.008 44.78zm0 0" fill="#ccf" stroke-width=".797" stroke="#000" stroke-miterlimit="10"/><use xlink:href="#a" x="14.596" y="24.056"/><use xlink:href="#b" x="20.545" y="25.55"/><use xlink:href="#c" x="24.517" y="25.55"/><use xlink:href="#d" x="26.772" y="25.55"/><path d="M108.547 22.59c0-5.485-4.45-9.934-9.934-9.934-5.484 0-9.93 4.45-9.93 9.934 0 5.484 4.446 9.93 9.93 9.93 5.485 0 9.934-4.446 9.934-9.93zm0 0" fill="#fc9" stroke-width=".797" stroke="#000" stroke-miterlimit="10"/><use xlink:href="#e" x="94.738" y="24.733"/><path d="M196.414 22.59L174.22.395 152.027 22.59 174.22 44.78zm0 0" fill="#ccf"/><g clip-path="url(#f)"><path d="M196.414 22.59L174.22.395 152.027 22.59 174.22 44.78zm0 0" fill="none" stroke-width=".797" stroke="#000" stroke-miterlimit="10"/></g><use xlink:href="#g" x="165.499" y="24.056"/><use xlink:href="#b" x="172.065" y="25.55"/><use xlink:href="#c" x="176.037" y="25.55"/><use xlink:href="#d" x="178.291" y="25.55"/><path d="M45.766 22.59h41.812" fill="none" stroke-width=".797" stroke="#000" stroke-miterlimit="10"/><path d="M86.023 20.516c.13.777 1.555 1.945 1.942 2.074-.387.129-1.813 1.293-1.942 2.07" fill="none" stroke-width=".6376000000000001" stroke-linecap="round" stroke-linejoin="round" stroke="#000" stroke-miterlimit="10"/><path d="M108.941 22.59h41.813" fill="none" stroke-width=".797" stroke="#000" stroke-miterlimit="10"/><path d="M149.2 20.516c.128.777 1.554 1.945 1.945 2.074-.391.129-1.817 1.293-1.946 2.07" fill="none" stroke-width=".6376000000000001" stroke-linecap="round" stroke-linejoin="round" stroke="#000" stroke-miterlimit="10"/><g clip-path="url(#h)"><path d="M45.613 96.863L23.008 74.258.398 96.863l22.61 22.61zm0 0" fill="#b2ffb2"/></g><g clip-path="url(#i)"><path d="M45.613 96.863L23.008 74.258.398 96.863l22.61 22.61zm0 0" fill="none" stroke-width=".797" stroke="#000" stroke-miterlimit="10"/></g><use xlink:href="#a" x="8.173" y="97.915"/><use xlink:href="#d" x="14.123" y="99.409"/><use xlink:href="#j" x="18.271" y="99.409"/><use xlink:href="#b" x="24.387" y="99.409"/><use xlink:href="#c" x="28.359" y="99.409"/><use xlink:href="#k" x="30.613" y="99.409"/><path d="M110.035 96.863c0-5.781-4.687-10.468-10.469-10.468-5.78 0-10.468 4.687-10.468 10.468 0 5.785 4.687 10.473 10.468 10.473 5.782 0 10.47-4.688 10.47-10.473zm0 0" fill="#fc9" stroke-width=".797" stroke="#000" stroke-miterlimit="10"/><use xlink:href="#l" x="97.011" y="98.04"/><g clip-path="url(#m)"><path d="M198.734 96.863L176.13 74.258l-22.61 22.605 22.61 22.61zm0 0" fill="#fff8ad"/></g><g clip-path="url(#n)"><path d="M198.734 96.863L176.13 74.258l-22.61 22.605 22.61 22.61zm0 0" fill="none" stroke-width=".797" stroke="#000" stroke-miterlimit="10"/></g><use xlink:href="#g" x="160.984" y="97.915"/><use xlink:href="#d" x="167.549" y="99.409"/><use xlink:href="#j" x="171.697" y="99.409"/><use xlink:href="#b" x="177.813" y="99.409"/><use xlink:href="#c" x="181.784" y="99.409"/><use xlink:href="#k" x="184.039" y="99.409"/><path d="M46.18 96.863h41.812" fill="none" stroke-width=".797" stroke="#000" stroke-miterlimit="10"/><path d="M86.438 94.793c.128.777 1.554 1.941 1.94 2.07-.386.133-1.812 1.297-1.94 2.075" fill="none" stroke-width=".6376000000000001" stroke-linecap="round" stroke-linejoin="round" stroke="#000" stroke-miterlimit="10"/><path d="M110.434 96.863h41.812" fill="none" stroke-width=".797" stroke="#000" stroke-miterlimit="10"/><path d="M150.691 94.793c.13.777 1.555 1.941 1.942 2.07-.387.133-1.813 1.297-1.942 2.075" fill="none" stroke-width=".6376000000000001" stroke-linecap="round" stroke-linejoin="round" stroke="#000" stroke-miterlimit="10"/><path d="M71.219 59.727c0-5.485-4.446-9.93-9.934-9.93-5.484 0-9.93 4.445-9.93 9.93 0 5.484 4.446 9.93 9.93 9.93 5.488 0 9.934-4.446 9.934-9.93zm0 0" fill="#fc9" stroke-width=".797" stroke="#000" stroke-miterlimit="10"/><use xlink:href="#o" x="56.912" y="61.871"/><path d="M34.559 33.797l18.808 18.246" fill="none" stroke-width=".797" stroke="#000" stroke-miterlimit="10"/><path d="M53.695 49.473c-.449.648-.238 2.476-.05 2.84-.368-.176-2.204-.333-2.836.132" fill="none" stroke-width=".6376000000000001" stroke-linecap="round" stroke-linejoin="round" stroke="#000" stroke-miterlimit="10"/><path d="M68.7 66.918l22.558 21.887" fill="none" stroke-width=".797" stroke="#000" stroke-miterlimit="10"/><path d="M91.586 86.234c-.445.649-.238 2.477-.047 2.84-.371-.176-2.203-.332-2.836.137" fill="none" stroke-width=".6376000000000001" stroke-linecap="round" stroke-linejoin="round" stroke="#000" stroke-miterlimit="10"/></svg>