<svg xmlns="http://www.w3.org/2000/svg" xmlns:xlink="http://www.w3.org/1999/xlink" width="605.711" height="175.903" viewBox="0 0 454.283 131.927"><defs><symbol overflow="visible" id="a"><path d="M2.406-3.406h.406c.391-.016.891-.047 1.282-.063-.282.266-.438.422-1.438 1.188C.641-.75.422-.094.422-.062c0 .14.14.14.219.14.171 0 .171-.015.25-.11.359-.5.718-.562.89-.562.266 0 .485.172.64.281.313.22.563.391.938.391 1.11 0 1.844-1.219 1.844-1.594 0-.14-.172-.14-.234-.14-.078 0-.188 0-.219.093-.078.188-.188.438-.86.516-.046.016-2 .094-2.218.094.281-.266.437-.422 1.453-1.188 2.016-1.53 2.234-2.187 2.234-2.218 0-.141-.14-.141-.218-.141-.157 0-.172 0-.235.094-.234.343-.437.578-.672.578-.25 0-.468-.156-.703-.313-.234-.187-.484-.359-.86-.359-.874 0-1.452.875-1.452 1.188 0 .14.172.14.25.14.093 0 .203 0 .218-.125.141-.078.22-.078.516-.11zm0 0"/></symbol><symbol overflow="visible" id="f"><path d="M5.344-4a.744.744 0 00-.532.688c0 .218.157.468.485.468.36 0 .719-.297.719-.781 0-.531-.516-.875-1.125-.875-.579 0-.938.422-1.079.61-.25-.422-.796-.61-1.374-.61C1.188-4.5.516-3.281.516-2.953c0 .14.14.14.234.14.125 0 .188 0 .234-.124.282-.907 1-1.204 1.407-1.204.375 0 .562.172.562.485 0 .203-.14.75-.234 1.11l-.344 1.358c-.14.61-.5.907-.844.907-.047 0-.281 0-.468-.14a.759.759 0 00.53-.688.477.477 0 00-.5-.47c-.343 0-.718.298-.718.782 0 .531.531.875 1.14.875.563 0 .938-.422 1.063-.61.25.423.813.61 1.375.61 1.266 0 1.938-1.219 1.938-1.547 0-.14-.157-.14-.235-.14-.125 0-.187 0-.234.125C5.14-.578 4.422-.281 4-.281c-.375 0-.547-.172-.547-.5 0-.203.125-.735.219-1.11.062-.25.297-1.187.344-1.343.156-.61.5-.907.843-.907.063 0 .282 0 .485.141zm0 0"/></symbol><symbol overflow="visible" id="b"><path d="M2.328-4.438c0-.187 0-.187-.203-.187-.453.438-1.078.438-1.36.438v.25c.157 0 .626 0 1-.188v3.547c0 .234 0 .328-.687.328H.812V0c.125 0 .985-.031 1.235-.031.219 0 1.094.031 1.25.031v-.25H3.03c-.703 0-.703-.094-.703-.328zm0 0"/></symbol><symbol overflow="visible" id="c"><path d="M1.531-2.594A.403.403 0 001.125-3a.4.4 0 00-.406.39c0 .25.203.407.406.407a.4.4 0 00.406-.39zm0 2.203a.403.403 0 00-.406-.406.4.4 0 00-.406.39c0 .25.203.407.406.407a.4.4 0 00.406-.39zm0 0"/></symbol><symbol overflow="visible" id="g"><path d="M3.219-1.578h2.14c.094 0 .25 0 .25-.156 0-.188-.156-.188-.25-.188H3.22v-2.14c0-.079 0-.25-.156-.25-.172 0-.172.156-.172.25v2.14H.75c-.094 0-.266 0-.266.172s.157.172.266.172h2.14v2.14c0 .094 0 .266.157.266.172 0 .172-.172.172-.265zm0 0"/></symbol><symbol overflow="visible" id="d"><path d="M3.984-4.625c0-.016.016-.11.016-.11 0-.046-.016-.109-.11-.109-.14 0-.718.063-.89.078-.047 0-.156.016-.156.157 0 .093.11.093.187.093.328 0 .328.063.328.11s0 .093-.015.156l-.406 1.594c-.141-.235-.376-.422-.72-.422-.89 0-1.796.984-1.796 1.984C.422-.406.875.063 1.484.063c.375 0 .704-.204.985-.485.125.422.531.484.719.484.25 0 .421-.14.546-.359.157-.281.25-.672.25-.703 0-.094-.093-.094-.109-.094-.11 0-.11.032-.156.219-.094.344-.219.75-.516.75-.172 0-.234-.156-.234-.344 0-.125.015-.187.047-.281zM2.5-.875c-.047.203-.203.344-.36.469-.062.062-.343.281-.64.281-.266 0-.516-.188-.516-.672 0-.375.204-1.14.375-1.422.313-.562.672-.656.86-.656.484 0 .625.531.625.61 0 .015-.016.078-.016.093zm0 0"/></symbol><symbol overflow="visible" id="h"><path d="M1.313-.547c-.047.235-.063.297-.61.297C.578-.25.5-.25.5-.094.5 0 .578 0 .703 0h2.485c1.546 0 3.03-1.422 3.03-2.938 0-1.015-.702-1.828-1.827-1.828H1.844c-.14 0-.219 0-.219.157 0 .093.078.093.234.093.11 0 .141 0 .266.016.14.016.14.031.14.11 0 0 0 .046-.015.14zm1.562-3.719c.063-.218.063-.25.36-.25h.89c.781 0 1.438.391 1.438 1.344 0 .156-.079 1.36-.766 2.156a2.35 2.35 0 01-1.734.766h-.938c-.219 0-.234-.016-.234-.078 0 0 0-.031.03-.14zm0 0"/></symbol><symbol overflow="visible" id="e"><path d="M6.844-3.266c.156 0 .343 0 .343-.187 0-.203-.187-.203-.328-.203H.891c-.141 0-.329 0-.329.203 0 .187.188.187.329.187zm.015 1.938c.141 0 .329 0 .329-.203 0-.188-.188-.188-.344-.188H.89c-.141 0-.329 0-.329.188 0 .203.188.203.329.203zm0 0"/></symbol><symbol overflow="visible" id="j"><path d="M1.75-4.297v-1.156c0-.875.469-1.36.906-1.36.031 0 .188 0 .328.079a.443.443 0 00-.296.421c0 .22.156.422.437.422s.438-.203.438-.437c0-.375-.376-.703-.907-.703-.687 0-1.547.531-1.547 1.593v1.141H.33v.313h.78V-.75c0 .438-.109.438-.765.438V0c.39-.016.86-.031 1.125-.031.406 0 .875 0 1.265.031v-.313h-.203c-.734 0-.75-.109-.75-.468v-3.203h1.125v-.313zm0 0"/></symbol><symbol overflow="visible" id="k"><path d="M4.688-2.14c0-1.266-.985-2.329-2.188-2.329C1.25-4.469.281-3.375.281-2.14A2.22 2.22 0 002.484.11c1.204 0 2.204-.984 2.204-2.25zM2.5-.14c-.438 0-.875-.204-1.14-.672-.25-.438-.25-1.047-.25-1.407 0-.39 0-.922.234-1.36a1.347 1.347 0 011.14-.671c.438 0 .86.219 1.125.656.266.422.266 1 .266 1.375 0 .36 0 .906-.219 1.344-.234.453-.672.734-1.156.734zm0 0"/></symbol><symbol overflow="visible" id="l"><path d="M1.672-3.313v-1.093l-1.39.11v.312c.702 0 .78.062.78.562V-.75c0 .438-.109.438-.78.438V0c.39-.016.859-.031 1.14-.031.39 0 .86 0 1.266.031v-.313h-.22c-.734 0-.75-.109-.75-.468v-1.531c0-.985.423-1.876 1.173-1.876.062 0 .093 0 .109.016-.031 0-.234.125-.234.39 0 .266.218.423.437.423a.421.421 0 00.422-.438c0-.312-.313-.61-.734-.61-.735 0-1.094.673-1.22 1.095zm0 0"/></symbol><symbol overflow="visible" id="m"><path d="M6.172-3.344c.172-.5.484-.64.844-.64v-.313c-.235.016-.516.031-.735.031-.297 0-.734-.015-.922-.03v.312c.36 0 .579.187.579.468 0 .063 0 .094-.063.22L4.969-.75l-.985-2.781c-.03-.125-.046-.14-.046-.188 0-.265.39-.265.593-.265v-.313c-.297.016-.797.031-1.047.031-.296 0-.578-.015-.875-.03v.312c.36 0 .516.015.625.14.047.063.157.36.22.547L2.608-.875l-.953-2.656c-.047-.125-.047-.14-.047-.188 0-.265.391-.265.579-.265v-.313c-.297.016-.86.031-1.079.031-.046 0-.578-.015-.937-.03v.312c.5 0 .625.03.75.343l1.25 3.532c.047.14.078.218.203.218.14 0 .156-.062.203-.203l1.016-2.812L4.609-.078c.032.11.063.187.204.187.125 0 .156-.093.187-.187zm0 0"/></symbol><symbol overflow="visible" id="n"><path d="M3.313-.75c.046.39.312.813.78.813.22 0 .829-.141.829-.954v-.562h-.25v.562c0 .579-.25.641-.36.641-.328 0-.375-.453-.375-.5v-1.984c0-.422 0-.813-.359-1.188-.39-.39-.89-.547-1.36-.547-.827 0-1.515.469-1.515 1.125 0 .297.203.469.469.469a.435.435 0 00.453-.453c0-.125-.047-.453-.516-.453.282-.36.766-.469 1.079-.469.5 0 1.062.39 1.062 1.281v.36c-.516.03-1.203.062-1.828.359-.75.344-1 .86-1 1.297 0 .812.969 1.062 1.594 1.062.656 0 1.109-.406 1.296-.859zM3.25-2.39v1c0 .937-.719 1.28-1.172 1.28-.484 0-.89-.343-.89-.843 0-.547.421-1.375 2.062-1.438zm0 0"/></symbol><symbol overflow="visible" id="o"><path d="M3.781-.547V.11L5.25 0v-.313c-.688 0-.781-.062-.781-.562v-6.047l-1.422.11v.312c.687 0 .765.063.765.563v2.156a1.582 1.582 0 00-1.25-.625c-1.171 0-2.218.984-2.218 2.265 0 1.266.969 2.25 2.11 2.25.64 0 1.077-.343 1.327-.656zm0-2.672v2.047c0 .172 0 .188-.11.36-.296.484-.733.703-1.171.703-.453 0-.813-.266-1.047-.641-.25-.406-.281-.969-.281-1.39 0-.36.016-.954.297-1.407.218-.312.593-.64 1.14-.64.344 0 .766.156 1.063.593.11.172.11.188.11.375zm0 0"/></symbol><symbol overflow="visible" id="p"><path d="M1.719-3.75v-.656l-1.438.11v.312c.703 0 .781.062.781.5v4.656c0 .453-.109.453-.78.453v.313c.343-.016.859-.032 1.109-.032.28 0 .78.016 1.125.032v-.313c-.657 0-.766 0-.766-.453V-.594c.047.172.469.703 1.219.703 1.187 0 2.219-.984 2.219-2.265 0-1.266-.954-2.25-2.079-2.25-.78 0-1.203.437-1.39.656zm.031 2.61v-2.22c.281-.515.766-.796 1.281-.796.735 0 1.328.875 1.328 2C4.36-.953 3.672-.11 2.938-.11c-.407 0-.782-.204-1.047-.61-.141-.203-.141-.219-.141-.422zm0 0"/></symbol><symbol overflow="visible" id="q"><path d="M2.078-1.938c.219.047 1.031.204 1.031.922 0 .5-.343.907-1.125.907-.843 0-1.203-.563-1.39-1.422-.031-.125-.031-.157-.14-.157-.126 0-.126.063-.126.235v1.328c0 .172 0 .234.11.234C.483.11.5.094.688-.094.703-.109.703-.125.89-.312c.437.406.89.421 1.093.421 1.141 0 1.61-.671 1.61-1.39 0-.516-.297-.828-.422-.938-.328-.328-.719-.406-1.14-.484-.563-.11-1.22-.235-1.22-.813 0-.359.25-.765 1.11-.765 1.094 0 1.156.906 1.172 1.203 0 .094.094.094.11.094.14 0 .14-.047.14-.235v-1.015c0-.157 0-.235-.11-.235-.046 0-.078 0-.203.125-.031.032-.125.125-.172.157-.375-.282-.78-.282-.937-.282-1.219 0-1.594.672-1.594 1.235 0 .343.156.625.422.843.328.25.61.313 1.328.454zm0 0"/></symbol><symbol overflow="visible" id="u"><path d="M1.766-4.406l-1.391.11v.312c.64 0 .734.062.734.546V-.75c0 .438-.109.438-.78.438V0c.312-.016.859-.031 1.093-.031.36 0 .703.015 1.047.031v-.313c-.672 0-.703-.046-.703-.437zm.03-1.735a.514.514 0 00-.515-.53.537.537 0 00-.531.53c0 .266.219.532.531.532a.514.514 0 00.516-.532zm0 0"/></symbol><symbol overflow="visible" id="v"><path d="M1.094-3.422V-.75c0 .438-.11.438-.782.438V0c.36-.016.86-.031 1.141-.031.25 0 .766.015 1.11.031v-.313c-.672 0-.782 0-.782-.437v-1.844c0-1.031.719-1.594 1.344-1.594.64 0 .75.532.75 1.11V-.75c0 .438-.11.438-.781.438V0c.344-.016.86-.031 1.125-.031.25 0 .781.015 1.11.031v-.313c-.516 0-.766 0-.766-.296v-1.907c0-.859 0-1.156-.313-1.515-.14-.172-.469-.375-1.047-.375-.734 0-1.203.422-1.484 1.047v-1.047l-1.407.11v.312c.704 0 .782.062.782.562zm0 0"/></symbol><symbol overflow="visible" id="w"><path d="M4.14-3.313c.094-.234.266-.671.923-.671v-.313c-.235.016-.516.031-.75.031-.235 0-.688-.015-.86-.03v.312c.36 0 .469.234.469.421 0 .094-.016.141-.047.25L2.844-.78l-1.11-2.781c-.062-.126-.062-.141-.062-.172 0-.25.39-.25.578-.25v-.313c-.313.016-.86.031-1.094.031-.265 0-.672-.015-.968-.03v.312c.625 0 .671.062.796.359L2.422-.078c.062.14.078.187.203.187.14 0 .172-.093.219-.187zm0 0"/></symbol><symbol overflow="visible" id="x"><path d="M1.11-2.516C1.171-4 2.015-4.25 2.36-4.25c1.015 0 1.124 1.344 1.124 1.734zm0 .22h2.78c.22 0 .25 0 .25-.22 0-.984-.546-1.953-1.78-1.953C1.202-4.469.28-3.437.28-2.187.281-.86 1.328.108 2.47.108 3.688.11 4.14-1 4.14-1.187c0-.094-.079-.125-.141-.125-.078 0-.11.062-.125.14C3.531-.14 2.625-.14 2.531-.14c-.5 0-.89-.296-1.125-.671-.297-.47-.297-1.125-.297-1.485zm0 0"/></symbol><symbol overflow="visible" id="i"><path d="M4.688-3.766a.562.562 0 00.03-.171c0-.172-.109-.266-.28-.266-.094 0-.375.062-.407.422-.187-.36-.531-.625-.937-.625-1.125 0-2.36 1.39-2.36 2.828C.734-.594 1.328 0 2.047 0c.594 0 1.062-.469 1.156-.578l.016.015C3.016.313 2.89.734 2.89.75c-.047.094-.375 1.078-1.438 1.078a2.68 2.68 0 01-.797-.11.542.542 0 00.406-.515C1.063 1.047.954.86.688.86a.546.546 0 00-.53.579c0 .406.359.609 1.312.609 1.25 0 1.968-.781 2.125-1.375zM3.405-1.28c-.062.265-.297.515-.515.703-.204.172-.516.36-.813.36-.5 0-.64-.516-.64-.923 0-.468.28-1.656.562-2.156.266-.484.688-.89 1.11-.89.656 0 .796.812.796.859 0 .047-.015.11-.031.14zm0 0"/></symbol><symbol overflow="visible" id="r"><path d="M.875-.594c-.031.156-.094.39-.094.438 0 .172.14.265.297.265a.414.414 0 00.375-.28c0-.016.125-.485.188-.735l.218-.89c.047-.235.11-.454.172-.673.031-.172.11-.469.125-.5.14-.312.672-1.219 1.625-1.219.453 0 .531.375.531.704 0 .25-.062.53-.14.828L3.89-1.5l-.204.75c-.03.203-.124.547-.124.594 0 .172.14.265.28.265.313 0 .376-.25.454-.562.14-.563.516-2.016.594-2.406.03-.125.562-1.329 1.656-1.329.422 0 .531.344.531.704 0 .562-.422 1.703-.625 2.234-.078.234-.125.344-.125.547 0 .469.344.812.813.812.937 0 1.312-1.453 1.312-1.53 0-.11-.094-.11-.125-.11-.094 0-.094.031-.14.187-.157.532-.47 1.235-1.016 1.235-.172 0-.25-.094-.25-.329 0-.25.094-.484.187-.703.188-.53.61-1.625.61-2.203 0-.64-.407-1.062-1.157-1.062-.734 0-1.25.437-1.625.968 0-.124-.03-.468-.312-.703-.25-.218-.563-.265-.813-.265-.906 0-1.39.64-1.562.875-.047-.578-.469-.875-.922-.875-.453 0-.64.39-.734.562-.172.36-.297.938-.297.969 0 .11.094.11.11.11.109 0 .109-.016.171-.235.172-.703.375-1.188.735-1.188.156 0 .296.079.296.454 0 .218-.03.328-.156.843zm0 0"/></symbol><symbol overflow="visible" id="t"><path d="M5.188-1.578c.109 0 .28 0 .28-.156 0-.188-.171-.188-.28-.188H1.03c-.11 0-.281 0-.281.172s.156.172.281.172zm0 0"/></symbol><clipPath id="s"><path d="M396 0h58.281v54H396zm0 0"/></clipPath><clipPath id="y"><path d="M400 60h54.281v66H400zm0 0"/></clipPath></defs><path d="M42.363 21.176L21.59.398.813 21.176 21.59 41.949zm0 0" fill="#ccf" stroke-width=".797" stroke="#000" stroke-miterlimit="10"/><use xlink:href="#a" x="13.178" y="22.641"/><use xlink:href="#b" x="19.128" y="24.136"/><use xlink:href="#c" x="23.1" y="24.136"/><use xlink:href="#d" x="25.355" y="24.136"/><path d="M109.32 21.176c0-6.485-5.254-11.738-11.738-11.738-6.48 0-11.734 5.253-11.734 11.738 0 6.48 5.254 11.734 11.734 11.734 6.484 0 11.738-5.254 11.738-11.734zm0 0" fill="#fc9" stroke-width=".797" stroke="#000" stroke-miterlimit="10"/><use xlink:href="#e" x="93.709" y="23.319"/><path d="M194.355 21.176L173.578.398l-20.773 20.778 20.773 20.773zm0 0" fill="#ccf" stroke-width=".797" stroke="#000" stroke-miterlimit="10"/><use xlink:href="#f" x="164.858" y="22.641"/><use xlink:href="#b" x="171.424" y="24.136"/><use xlink:href="#c" x="175.396" y="24.136"/><use xlink:href="#d" x="177.65" y="24.136"/><path d="M42.93 21.176h41.812" fill="none" stroke-width=".797" stroke="#000" stroke-miterlimit="10"/><path d="M83.188 19.102c.128.777 1.554 1.945 1.94 2.074-.386.129-1.812 1.293-1.94 2.07" fill="none" stroke-width=".638" stroke-linecap="round" stroke-linejoin="round" stroke="#000" stroke-miterlimit="10"/><path d="M109.719 21.176h41.812" fill="none" stroke-width=".797" stroke="#000" stroke-miterlimit="10"/><path d="M149.977 19.102c.128.777 1.554 1.945 1.941 2.074-.387.129-1.813 1.293-1.941 2.07" fill="none" stroke-width=".638" stroke-linecap="round" stroke-linejoin="round" stroke="#000" stroke-miterlimit="10"/><path d="M42.781 92.617L21.59 71.426.398 92.617 21.59 113.81zm0 0" fill="#b2ffb2" stroke-width=".797" stroke="#000" stroke-miterlimit="10"/><use xlink:href="#a" x="6.756" y="93.666"/><use xlink:href="#d" x="12.706" y="95.161"/><use xlink:href="#g" x="16.853" y="95.161"/><use xlink:href="#b" x="22.969" y="95.161"/><use xlink:href="#c" x="26.941" y="95.161"/><use xlink:href="#h" x="29.196" y="95.161"/><path d="M110.703 92.617c0-6.75-5.469-12.222-12.219-12.222-6.75 0-12.222 5.472-12.222 12.222 0 6.75 5.472 12.219 12.222 12.219 6.75 0 12.22-5.469 12.22-12.219zm0 0" fill="#fc9" stroke-width=".797" stroke="#000" stroke-miterlimit="10"/><use xlink:href="#i" x="95.928" y="93.791"/><use xlink:href="#j" x="71.002" y="125.834"/><use xlink:href="#k" x="74.047" y="125.834"/><use xlink:href="#l" x="79.028" y="125.834"/><use xlink:href="#m" x="82.93" y="125.834"/><use xlink:href="#n" x="89.846" y="125.834"/><use xlink:href="#l" x="94.828" y="125.834"/><use xlink:href="#o" x="98.73" y="125.834"/><use xlink:href="#p" x="107.583" y="125.834"/><use xlink:href="#n" x="113.118" y="125.834"/><use xlink:href="#q" x="118.099" y="125.834"/><use xlink:href="#q" x="122.028" y="125.834"/><path d="M196.57 92.617L175.38 71.426l-21.191 21.191 21.19 21.192zm0 0" fill="#fffa99" stroke-width=".797" stroke="#000" stroke-miterlimit="10"/><use xlink:href="#f" x="160.235" y="93.666"/><use xlink:href="#d" x="166.801" y="95.161"/><use xlink:href="#g" x="170.948" y="95.161"/><use xlink:href="#b" x="177.064" y="95.161"/><use xlink:href="#c" x="181.036" y="95.161"/><use xlink:href="#h" x="183.291" y="95.161"/><path d="M43.348 92.617h41.808" fill="none" stroke-width=".797" stroke="#000" stroke-miterlimit="10"/><path d="M83.602 90.543c.128.777 1.554 1.945 1.945 2.074-.39.13-1.817 1.293-1.945 2.07" fill="none" stroke-width=".638" stroke-linecap="round" stroke-linejoin="round" stroke="#000" stroke-miterlimit="10"/><path d="M111.102 92.617h41.812" fill="none" stroke-width=".797" stroke="#000" stroke-miterlimit="10"/><path d="M151.36 90.543c.128.777 1.554 1.945 1.94 2.074-.386.13-1.812 1.293-1.94 2.07" fill="none" stroke-width=".638" stroke-linecap="round" stroke-linejoin="round" stroke="#000" stroke-miterlimit="10"/><path d="M71.773 56.895c0-6.48-5.253-11.735-11.738-11.735-6.48 0-11.734 5.254-11.734 11.735 0 6.484 5.254 11.738 11.734 11.738 6.485 0 11.738-5.254 11.738-11.738zm0 0" fill="#fc9" stroke-width=".797" stroke="#000" stroke-miterlimit="10"/><use xlink:href="#r" x="55.662" y="59.039"/><path d="M32.652 31.453L50.63 48.156" fill="none" stroke-width=".797" stroke="#000" stroke-miterlimit="10"/><path d="M50.898 45.578c-.433.656-.183 2.48.016 2.84-.375-.168-2.21-.285-2.836.195" fill="none" stroke-width=".63798086" stroke-linecap="round" stroke-linejoin="round" stroke="#000" stroke-miterlimit="10"/><path d="M68.926 65.156l19.793 18.39" fill="none" stroke-width=".797" stroke="#000" stroke-miterlimit="10"/><path d="M88.992 80.969c-.433.656-.183 2.48.012 2.84-.371-.168-2.207-.286-2.832.195" fill="none" stroke-width=".63798086" stroke-linecap="round" stroke-linejoin="round" stroke="#000" stroke-miterlimit="10"/><path d="M297.484 21.176L276.711.398l-20.777 20.778 20.777 20.773zm0 0" fill="#ccf" stroke-width=".797" stroke="#000" stroke-miterlimit="10"/><use xlink:href="#a" x="268.296" y="22.641"/><use xlink:href="#b" x="274.246" y="24.136"/><use xlink:href="#c" x="278.218" y="24.136"/><use xlink:href="#d" x="280.473" y="24.136"/><path d="M364.441 21.176c0-6.485-5.253-11.738-11.738-11.738-6.48 0-11.734 5.253-11.734 11.738 0 6.48 5.254 11.734 11.734 11.734 6.485 0 11.738-5.254 11.738-11.734zm0 0" fill="#fc9" stroke-width=".797" stroke="#000" stroke-miterlimit="10"/><use xlink:href="#e" x="348.827" y="23.319"/><path d="M449.477 21.176L428.699.398l-20.773 20.778 20.773 20.773zm0 0" fill="#ccf"/><g clip-path="url(#s)"><path d="M449.477 21.176L428.699.398l-20.773 20.778 20.773 20.773zm0 0" fill="none" stroke-width=".797" stroke="#000" stroke-miterlimit="10"/></g><use xlink:href="#f" x="419.976" y="22.641"/><use xlink:href="#b" x="426.542" y="24.136"/><use xlink:href="#c" x="430.514" y="24.136"/><use xlink:href="#d" x="432.769" y="24.136"/><path d="M298.762 21.176h41.808" fill="none" stroke-width=".797" stroke="#000" stroke-miterlimit="10"/><path d="M300.313 23.246c-.13-.777-1.551-1.941-1.942-2.07.39-.13 1.813-1.297 1.942-2.074" fill="none" stroke-width=".638" stroke-linecap="round" stroke-linejoin="round" stroke="#000" stroke-miterlimit="10"/><path d="M365.547 21.176h41.812" fill="none" stroke-width=".797" stroke="#000" stroke-miterlimit="10"/><path d="M367.102 23.246c-.13-.777-1.555-1.941-1.942-2.07.387-.13 1.813-1.297 1.942-2.074" fill="none" stroke-width=".638" stroke-linecap="round" stroke-linejoin="round" stroke="#000" stroke-miterlimit="10"/><path d="M297.902 92.617l-21.191-21.191-21.191 21.191 21.19 21.192zm0 0" fill="#b2ffb2" stroke-width=".797" stroke="#000" stroke-miterlimit="10"/><use xlink:href="#a" x="261.874" y="93.666"/><use xlink:href="#d" x="267.824" y="95.161"/><use xlink:href="#g" x="271.971" y="95.161"/><use xlink:href="#b" x="278.087" y="95.161"/><use xlink:href="#c" x="282.059" y="95.161"/><use xlink:href="#h" x="284.314" y="95.161"/><path d="M368.027 92.617c0-7.36-5.964-13.324-13.324-13.324-7.355 0-13.32 5.965-13.32 13.324 0 7.356 5.965 13.32 13.32 13.32 7.36 0 13.324-5.964 13.324-13.32zm0 0" fill="#fc9" stroke-width=".797" stroke="#000" stroke-miterlimit="10"/><use xlink:href="#i" x="347.614" y="95.701"/><use xlink:href="#t" x="352.723" y="92.085"/><use xlink:href="#b" x="358.95" y="92.085"/><use xlink:href="#u" x="329.005" y="126.669"/><use xlink:href="#v" x="331.773" y="126.669"/><g><use xlink:href="#w" x="337.029" y="126.669"/></g><g><use xlink:href="#x" x="342.008" y="126.669"/><use xlink:href="#l" x="346.436" y="126.669"/><use xlink:href="#q" x="350.338" y="126.669"/><use xlink:href="#x" x="354.267" y="126.669"/></g><g><use xlink:href="#p" x="362.022" y="126.669"/><use xlink:href="#n" x="367.557" y="126.669"/><use xlink:href="#q" x="372.539" y="126.669"/><use xlink:href="#q" x="376.468" y="126.669"/></g><path d="M453.89 92.617L432.7 71.426l-21.192 21.191 21.191 21.192zm0 0" fill="#fffa99"/><g clip-path="url(#y)"><path d="M453.89 92.617L432.7 71.426l-21.192 21.191 21.191 21.192zm0 0" fill="none" stroke-width=".797" stroke="#000" stroke-miterlimit="10"/></g><g><use xlink:href="#f" x="417.553" y="93.666"/></g><g><use xlink:href="#d" x="424.119" y="95.161"/></g><g><use xlink:href="#g" x="428.266" y="95.161"/><use xlink:href="#b" x="434.382" y="95.161"/><use xlink:href="#c" x="438.354" y="95.161"/></g><g><use xlink:href="#h" x="440.609" y="95.161"/></g><path d="M299.176 92.617h41.808" fill="none" stroke-width=".797" stroke="#000" stroke-miterlimit="10"/><path d="M300.73 94.688c-.128-.778-1.554-1.942-1.945-2.07.39-.13 1.817-1.298 1.945-2.075" fill="none" stroke-width=".638" stroke-linecap="round" stroke-linejoin="round" stroke="#000" stroke-miterlimit="10"/><path d="M369.133 92.617h41.808" fill="none" stroke-width=".797" stroke="#000" stroke-miterlimit="10"/><path d="M370.688 94.688c-.133-.778-1.555-1.942-1.946-2.07.39-.13 1.813-1.298 1.945-2.075" fill="none" stroke-width=".638" stroke-linecap="round" stroke-linejoin="round" stroke="#000" stroke-miterlimit="10"/><path d="M403.438 56.895c0-6.48-5.254-11.735-11.735-11.735-6.484 0-11.738 5.254-11.738 11.735 0 6.484 5.254 11.738 11.738 11.738 6.48 0 11.735-5.254 11.735-11.738zm0 0" fill="#fc9" stroke-width=".797" stroke="#000" stroke-miterlimit="10"/><g><use xlink:href="#r" x="387.324" y="59.039"/></g><path d="M417.844 31.66L400.94 47.977" fill="none" stroke-width=".797" stroke="#000" stroke-miterlimit="10"/><path d="M403.5 48.387c-.633-.469-2.469-.317-2.84-.14.192-.364.406-2.192-.039-2.84" fill="none" stroke-width=".63798086" stroke-linecap="round" stroke-linejoin="round" stroke="#000" stroke-miterlimit="10"/><path d="M382.973 65.324l-17.887 17.27" fill="none" stroke-width=".797" stroke="#000" stroke-miterlimit="10"/><path d="M367.64 83.008c-.632-.469-2.464-.32-2.835-.14.187-.364.406-2.192-.043-2.845" fill="none" stroke-width=".63798086" stroke-linecap="round" stroke-linejoin="round" stroke="#000" stroke-miterlimit="10"/></svg>