<svg xmlns="http://www.w3.org/2000/svg" xmlns:xlink="http://www.w3.org/1999/xlink" width="350.936" height="325.563" viewBox="0 0 263.202 244.172"><defs><symbol overflow="visible" id="a"><path style="stroke:none" d="M2.234-3.516v-2.578c0-.234 0-.36.22-.39.093-.016.39-.016.593-.016.89 0 2 .047 2 1.484 0 .688-.234 1.5-1.703 1.5Zm2.11.125c.953-.234 1.734-.843 1.734-1.625 0-.953-1.14-1.796-2.594-1.796H.344v.312h.25c.765 0 .781.11.781.469v5.25c0 .36-.016.469-.781.469h-.25V0c.36-.031 1.078-.031 1.453-.031.39 0 1.11 0 1.469.031v-.313h-.25c-.766 0-.782-.109-.782-.468v-2.516h1.141c.156 0 .578 0 .938.344.375.344.375.656.375 1.328 0 .64 0 1.047.406 1.422.406.36.953.422 1.25.422.781 0 .953-.813.953-1.094 0-.063 0-.172-.125-.172-.11 0-.11.094-.125.156C6.984-.17 6.64 0 6.39 0c-.485 0-.563-.516-.704-1.438l-.14-.796c-.172-.641-.656-.97-1.203-1.157Zm0 0"/></symbol><symbol overflow="visible" id="b"><path style="stroke:none" d="M1.11-2.516C1.171-4 2.015-4.25 2.36-4.25c1.015 0 1.124 1.344 1.124 1.734Zm0 .22h2.78c.22 0 .25 0 .25-.22 0-.984-.546-1.953-1.78-1.953-1.158 0-2.08 1.032-2.08 2.282C.281-.86 1.328.108 2.47.108 3.688.11 4.14-1 4.14-1.187c0-.094-.079-.125-.141-.125-.078 0-.11.062-.125.14C3.531-.14 2.625-.14 2.531-.14c-.5 0-.89-.296-1.125-.671-.297-.47-.297-1.125-.297-1.485Zm0 0"/></symbol><symbol overflow="visible" id="c"><path style="stroke:none" d="M3.297 2.39c0-.03 0-.046-.172-.218C1.891.922 1.562-.968 1.562-2.5c0-1.734.375-3.469 1.61-4.703.125-.125.125-.14.125-.172 0-.078-.031-.11-.094-.11-.11 0-1 .688-1.594 1.954C1.11-4.438.984-3.328.984-2.5c0 .781.11 1.984.657 3.125C2.25 1.844 3.094 2.5 3.203 2.5c.063 0 .094-.031.094-.11Zm0 0"/></symbol><symbol overflow="visible" id="f"><path style="stroke:none" d="M2.875-2.5c0-.766-.11-1.969-.656-3.11C1.625-6.827.766-7.483.672-7.483a.107.107 0 0 0-.11.109c0 .031 0 .047.188.234.984.985 1.547 2.563 1.547 4.641C2.297-.78 1.937.97.703 2.22c-.14.125-.14.14-.14.172 0 .062.046.109.109.109.094 0 1-.688 1.578-1.953.516-1.094.625-2.203.625-3.047Zm0 0"/></symbol><symbol overflow="visible" id="h"><path style="stroke:none" d="M2.25-6.031c0-.36.016-.469.813-.469h.25v-.313c-.344.032-1.126.032-1.516.032-.375 0-1.172 0-1.516-.032v.313h.25c.797 0 .828.11.828.469v5.25c0 .36-.03.469-.828.469h-.25V0c.344-.031 1.14-.031 1.516-.031.39 0 1.172 0 1.516.031v-.313h-.25c-.797 0-.813-.109-.813-.468Zm0 0"/></symbol><symbol overflow="visible" id="i"><path style="stroke:none" d="M1.094-3.422V-.75c0 .438-.11.438-.782.438V0c.36-.016.86-.031 1.141-.031.25 0 .766.015 1.11.031v-.313c-.672 0-.782 0-.782-.437v-1.844c0-1.031.719-1.594 1.344-1.594.64 0 .75.532.75 1.11V-.75c0 .438-.11.438-.781.438V0c.344-.016.86-.031 1.125-.031.25 0 .781.015 1.11.031v-.313c-.657 0-.766 0-.766-.437v-1.844c0-1.031.703-1.594 1.343-1.594.625 0 .735.532.735 1.11V-.75c0 .438-.11.438-.782.438V0c.344-.016.86-.031 1.125-.031.266 0 .782.015 1.125.031v-.313c-.515 0-.765 0-.78-.296v-1.907c0-.859 0-1.156-.313-1.515-.141-.172-.47-.375-1.047-.375-.828 0-1.282.593-1.438.984-.14-.875-.875-.984-1.328-.984-.734 0-1.203.422-1.484 1.047v-1.047l-1.407.11v.312c.704 0 .782.062.782.562Zm0 0"/></symbol><symbol overflow="visible" id="k"><path style="stroke:none" d="M6.844-3.266c.156 0 .343 0 .343-.187 0-.203-.187-.203-.328-.203H.891c-.141 0-.329 0-.329.203 0 .187.188.187.329.187Zm.015 1.938c.141 0 .329 0 .329-.203 0-.188-.188-.188-.344-.188H.89c-.141 0-.329 0-.329.188 0 .203.188.203.329.203Zm0 0"/></symbol><symbol overflow="visible" id="l"><path style="stroke:none" d="M2.938-6.375c0-.25 0-.266-.235-.266C2.078-6 1.203-6 .891-6v.313c.203 0 .78 0 1.296-.266v5.172c0 .36-.03.469-.921.469H.953V0c.344-.031 1.203-.031 1.61-.031.39 0 1.265 0 1.609.031v-.313h-.313c-.906 0-.921-.109-.921-.468Zm0 0"/></symbol><symbol overflow="visible" id="d"><path style="stroke:none" d="M.453 1.219c-.078.343-.11.406-.547.406-.11 0-.218 0-.218.188 0 .078.046.125.124.125.266 0 .563-.032.829-.032.343 0 .671.032 1 .032.046 0 .171 0 .171-.204 0-.109-.093-.109-.234-.109-.5 0-.5-.063-.5-.156 0-.125.422-1.75.484-2 .125.297.407.64.922.64 1.157 0 2.407-1.453 2.407-2.921 0-.938-.579-1.594-1.329-1.594-.5 0-.984.36-1.312.75-.094-.547-.531-.75-.89-.75-.47 0-.657.39-.735.562-.188.344-.313.938-.313.969 0 .11.094.11.11.11.11 0 .11-.016.172-.235.172-.703.375-1.188.734-1.188.172 0 .313.079.313.454 0 .234-.032.343-.079.515Zm1.75-4.328c.063-.266.344-.547.516-.704.36-.296.64-.374.812-.374.39 0 .64.343.64.937 0 .594-.327 1.734-.515 2.11-.344.702-.812 1.03-1.187 1.03-.656 0-.781-.828-.781-.89 0-.016 0-.031.03-.156Zm0 0"/></symbol><symbol overflow="visible" id="j"><path style="stroke:none" d="M3.89-3.734c-.265.015-.468.234-.468.453 0 .14.094.297.312.297.22 0 .454-.172.454-.563 0-.453-.422-.86-1.188-.86-1.313 0-1.688 1.016-1.688 1.454 0 .781.735.922 1.032.984.515.11 1.031.219 1.031.766 0 .25-.219 1.094-1.422 1.094-.14 0-.906 0-1.14-.532.39.047.64-.25.64-.53 0-.22-.172-.345-.375-.345-.266 0-.562.204-.562.657 0 .562.578.968 1.421.968 1.625 0 2.016-1.203 2.016-1.656a.97.97 0 0 0-.312-.719c-.266-.28-.563-.343-1-.421-.36-.079-.75-.157-.75-.61 0-.281.234-.89 1.109-.89.25 0 .75.078.89.453Zm0 0"/></symbol><symbol overflow="visible" id="e"><path style="stroke:none" d="M3.594-2.219c0-.765-.094-1.328-.406-1.812-.22-.313-.657-.594-1.204-.594C.36-4.625.36-2.719.36-2.219c0 .5 0 2.36 1.625 2.36 1.61 0 1.61-1.86 1.61-2.36ZM1.984-.063c-.328 0-.75-.187-.89-.75C1-1.219 1-1.796 1-2.313c0-.515 0-1.046.094-1.421.156-.547.593-.704.89-.704.375 0 .735.235.86.641.11.375.125.875.125 1.485 0 .515 0 1.03-.094 1.468-.14.64-.61.781-.89.781Zm0 0"/></symbol><symbol overflow="visible" id="m"><path style="stroke:none" d="M6.563-2.297c.171 0 .359 0 .359-.203 0-.188-.188-.188-.36-.188h-5.39c-.172 0-.344 0-.344.188 0 .203.172.203.344.203Zm0 0"/></symbol><clipPath id="g"><path d="M113 17h2v227.172h-2Zm0 0"/></clipPath></defs><path style="fill:none;stroke-width:.79701;stroke-linecap:butt;stroke-linejoin:miter;stroke:#000;stroke-opacity:1;stroke-miterlimit:10" d="M-113.386.001h226.067" transform="matrix(1 0 0 -1 113.784 130.388)"/><path style="fill:none;stroke-width:.6376;stroke-linecap:round;stroke-linejoin:round;stroke:#000;stroke-opacity:1;stroke-miterlimit:10" d="M-1.554 2.072C-1.424 1.294.001.13.388.002 0-.129-1.425-1.297-1.554-2.074" transform="matrix(1 0 0 -1 226.464 130.388)"/><g style="fill:#000;fill-opacity:1"><use xlink:href="#a" x="230.889" y="132.878"/><use xlink:href="#b" x="238.222" y="132.878"/><use xlink:href="#c" x="242.65" y="132.878"/></g><use xlink:href="#d" x="246.525" y="132.878" style="fill:#000;fill-opacity:1"/><use xlink:href="#e" x="251.537" y="134.373" style="fill:#000;fill-opacity:1"/><use xlink:href="#f" x="256.007" y="132.878" style="fill:#000;fill-opacity:1"/><g clip-path="url(#g)"><path style="fill:none;stroke-width:.79701;stroke-linecap:butt;stroke-linejoin:miter;stroke:#000;stroke-opacity:1;stroke-miterlimit:10" d="M.001-113.385V112.68" transform="matrix(1 0 0 -1 113.784 130.388)"/></g><path style="fill:none;stroke-width:.6376;stroke-linecap:round;stroke-linejoin:round;stroke:#000;stroke-opacity:1;stroke-miterlimit:10" d="M-1.554 2.073C-1.424 1.296.001.128.388 0 0-.131-1.425-1.294-1.554-2.071" transform="matrix(0 -1 -1 0 113.784 17.708)"/><g style="fill:#000;fill-opacity:1"><use xlink:href="#h" x="99.219" y="10.792"/><use xlink:href="#i" x="102.816" y="10.792"/><use xlink:href="#c" x="111.118" y="10.792"/></g><use xlink:href="#d" x="114.993" y="10.792" style="fill:#000;fill-opacity:1"/><use xlink:href="#e" x="120.006" y="12.287" style="fill:#000;fill-opacity:1"/><use xlink:href="#f" x="124.475" y="10.792" style="fill:#000;fill-opacity:1"/><path style="fill-rule:nonzero;fill:#f3e5e5;fill-opacity:1;stroke-width:.79701;stroke-linecap:butt;stroke-linejoin:miter;stroke:#8b0000;stroke-opacity:1;stroke-miterlimit:10" d="M3.986 3.986v107.718h107.718V3.986Zm0 0" transform="matrix(1 0 0 -1 113.784 130.388)"/><use xlink:href="#j" x="151.545" y="75.035" style="fill:#000;fill-opacity:1"/><use xlink:href="#c" x="156.215" y="75.035" style="fill:#000;fill-opacity:1"/><use xlink:href="#d" x="160.089" y="75.035" style="fill:#000;fill-opacity:1"/><use xlink:href="#e" x="165.102" y="76.53" style="fill:#000;fill-opacity:1"/><use xlink:href="#f" x="169.571" y="75.035" style="fill:#000;fill-opacity:1"/><use xlink:href="#k" x="176.215" y="75.035" style="fill:#000;fill-opacity:1"/><use xlink:href="#l" x="186.734" y="75.035" style="fill:#000;fill-opacity:1"/><path style="fill-rule:nonzero;fill:#e5e5f3;fill-opacity:1;stroke-width:.79701;stroke-linecap:butt;stroke-linejoin:miter;stroke:#00008b;stroke-opacity:1;stroke-miterlimit:10" d="M-3.983 3.986v107.718h-107.719V3.986Zm0 0" transform="matrix(1 0 0 -1 113.784 130.388)"/><use xlink:href="#j" x="31.984" y="75.035" style="fill:#000;fill-opacity:1"/><use xlink:href="#c" x="36.654" y="75.035" style="fill:#000;fill-opacity:1"/><use xlink:href="#d" x="40.528" y="75.035" style="fill:#000;fill-opacity:1"/><use xlink:href="#e" x="45.541" y="76.53" style="fill:#000;fill-opacity:1"/><use xlink:href="#f" x="50.01" y="75.035" style="fill:#000;fill-opacity:1"/><use xlink:href="#k" x="56.654" y="75.035" style="fill:#000;fill-opacity:1"/><use xlink:href="#m" x="67.168" y="75.035" style="fill:#000;fill-opacity:1"/><use xlink:href="#l" x="74.917" y="75.035" style="fill:#000;fill-opacity:1"/><path style="fill-rule:nonzero;fill:#f3e5e5;fill-opacity:1;stroke-width:.79701;stroke-linecap:butt;stroke-linejoin:miter;stroke:#8b0000;stroke-opacity:1;stroke-miterlimit:10" d="M-3.983-3.987v-107.715h-107.719V-3.987Zm0 0" transform="matrix(1 0 0 -1 113.784 130.388)"/><use xlink:href="#j" x="35.858" y="190.721" style="fill:#000;fill-opacity:1"/><use xlink:href="#c" x="40.528" y="190.721" style="fill:#000;fill-opacity:1"/><use xlink:href="#d" x="44.403" y="190.721" style="fill:#000;fill-opacity:1"/><use xlink:href="#e" x="49.415" y="192.216" style="fill:#000;fill-opacity:1"/><use xlink:href="#f" x="53.885" y="190.721" style="fill:#000;fill-opacity:1"/><use xlink:href="#k" x="60.529" y="190.721" style="fill:#000;fill-opacity:1"/><use xlink:href="#l" x="71.038" y="190.721" style="fill:#000;fill-opacity:1"/><path style="fill-rule:nonzero;fill:#e5e5f3;fill-opacity:1;stroke-width:.79701;stroke-linecap:butt;stroke-linejoin:miter;stroke:#00008b;stroke-opacity:1;stroke-miterlimit:10" d="M3.986-3.987v-107.715h107.718V-3.987Zm0 0" transform="matrix(1 0 0 -1 113.784 130.388)"/><use xlink:href="#j" x="147.67" y="190.721" style="fill:#000;fill-opacity:1"/><use xlink:href="#c" x="152.34" y="190.721" style="fill:#000;fill-opacity:1"/><use xlink:href="#d" x="156.215" y="190.721" style="fill:#000;fill-opacity:1"/><use xlink:href="#e" x="161.227" y="192.216" style="fill:#000;fill-opacity:1"/><use xlink:href="#f" x="165.696" y="190.721" style="fill:#000;fill-opacity:1"/><use xlink:href="#k" x="172.34" y="190.721" style="fill:#000;fill-opacity:1"/><use xlink:href="#m" x="182.854" y="190.721" style="fill:#000;fill-opacity:1"/><use xlink:href="#l" x="190.603" y="190.721" style="fill:#000;fill-opacity:1"/></svg>