<svg height="325.563" viewBox="0 0 263.202 244.172" width="350.936" xmlns="http://www.w3.org/2000/svg" xmlns:xlink="http://www.w3.org/1999/xlink"><symbol id="a" overflow="visible"><path d="m2.234-3.516v-2.578c0-.234 0-.36.22-.39.093-.016.39-.016.593-.016.89 0 2 .047 2 1.484 0 .688-.234 1.5-1.703 1.5zm2.11.125c.953-.234 1.734-.843 1.734-1.625 0-.953-1.14-1.796-2.594-1.796h-3.14v.312h.25c.765 0 .781.11.781.469v5.25c0 .36-.016.469-.781.469h-.25v.312c.36-.031 1.078-.031 1.453-.031.39 0 1.11 0 1.469.031v-.313h-.25c-.766 0-.782-.109-.782-.468v-2.516h1.141c.156 0 .578 0 .938.344.375.344.375.656.375 1.328 0 .64 0 1.047.406 1.422.406.36.953.422 1.25.422.781 0 .953-.813.953-1.094 0-.063 0-.172-.125-.172-.11 0-.11.094-.125.156-.063.721-.407.891-.657.891-.485 0-.563-.516-.704-1.438l-.14-.796c-.172-.641-.656-.97-1.203-1.157zm0 0"/></symbol><symbol id="b" overflow="visible"><path d="m1.11-2.516c.061-1.484.905-1.734 1.25-1.734 1.015 0 1.124 1.344 1.124 1.734zm0 .22h2.78c.22 0 .25 0 .25-.22 0-.984-.546-1.953-1.78-1.953-1.158 0-2.08 1.032-2.08 2.282.001 1.327 1.048 2.295 2.19 2.295 1.218.002 1.67-1.108 1.67-1.295 0-.094-.079-.125-.141-.125-.078 0-.11.062-.125.14-.343 1.032-1.249 1.032-1.343 1.032-.5 0-.89-.296-1.125-.671-.297-.47-.297-1.125-.297-1.485zm0 0"/></symbol><symbol id="c" overflow="visible"><path d="m3.297 2.39c0-.03 0-.046-.172-.218-1.234-1.25-1.563-3.14-1.563-4.672 0-1.734.375-3.469 1.61-4.703.125-.125.125-.14.125-.172 0-.078-.031-.11-.094-.11-.11 0-1 .688-1.594 1.954-.499 1.093-.625 2.203-.625 3.031 0 .781.11 1.984.657 3.125.609 1.219 1.453 1.875 1.562 1.875.063 0 .094-.031.094-.11zm0 0"/></symbol><symbol id="d" overflow="visible"><path d="m2.875-2.5c0-.766-.11-1.969-.656-3.11-.594-1.217-1.453-1.873-1.547-1.873a.107.107 0 0 0 -.11.109c0 .031 0 .047.188.234.984.985 1.547 2.563 1.547 4.641 0 1.719-.36 3.469-1.594 4.719-.14.125-.14.14-.14.172 0 .062.046.109.109.109.094 0 1-.688 1.578-1.953.516-1.094.625-2.203.625-3.047zm0 0"/></symbol><symbol id="e" overflow="visible"><path d="m2.25-6.031c0-.36.016-.469.813-.469h.25v-.313c-.344.032-1.126.032-1.516.032-.375 0-1.172 0-1.516-.032v.313h.25c.797 0 .828.11.828.469v5.25c0 .36-.03.469-.828.469h-.25v.312c.344-.031 1.14-.031 1.516-.031.39 0 1.172 0 1.516.031v-.313h-.25c-.797 0-.813-.109-.813-.468zm0 0"/></symbol><symbol id="f" overflow="visible"><path d="m1.094-3.422v2.672c0 .438-.11.438-.782.438v.312c.36-.016.86-.031 1.141-.031.25 0 .766.015 1.11.031v-.313c-.672 0-.782 0-.782-.437v-1.844c0-1.031.719-1.594 1.344-1.594.64 0 .75.532.75 1.11v2.328c0 .438-.11.438-.781.438v.312c.344-.016.86-.031 1.125-.031.25 0 .781.015 1.11.031v-.313c-.657 0-.766 0-.766-.437v-1.844c0-1.031.703-1.594 1.343-1.594.625 0 .735.532.735 1.11v2.328c0 .438-.11.438-.782.438v.312c.344-.016.86-.031 1.125-.031.266 0 .782.015 1.125.031v-.313c-.515 0-.765 0-.78-.296v-1.907c0-.859 0-1.156-.313-1.515-.141-.172-.47-.375-1.047-.375-.828 0-1.282.593-1.438.984-.14-.875-.875-.984-1.328-.984-.734 0-1.203.422-1.484 1.047v-1.047l-1.407.11v.312c.704 0 .782.062.782.562zm0 0"/></symbol><symbol id="g" overflow="visible"><path d="m6.844-3.266c.156 0 .343 0 .343-.187 0-.203-.187-.203-.328-.203h-5.968c-.141 0-.329 0-.329.203 0 .187.188.187.329.187zm.015 1.938c.141 0 .329 0 .329-.203 0-.188-.188-.188-.344-.188h-5.954c-.141 0-.329 0-.329.188 0 .203.188.203.329.203zm0 0"/></symbol><symbol id="h" overflow="visible"><path d="m2.938-6.375c0-.25 0-.266-.235-.266-.625.641-1.5.641-1.812.641v.313c.203 0 .78 0 1.296-.266v5.172c0 .36-.03.469-.921.469h-.313v.312c.344-.031 1.203-.031 1.61-.031.39 0 1.265 0 1.609.031v-.313h-.313c-.906 0-.921-.109-.921-.468zm0 0"/></symbol><symbol id="i" overflow="visible"><path d="m.453 1.219c-.078.343-.11.406-.547.406-.11 0-.218 0-.218.188 0 .078.046.125.124.125.266 0 .563-.032.829-.032.343 0 .671.032 1 .032.046 0 .171 0 .171-.204 0-.109-.093-.109-.234-.109-.5 0-.5-.063-.5-.156 0-.125.422-1.75.484-2 .125.297.407.64.922.64 1.157 0 2.407-1.453 2.407-2.921 0-.938-.579-1.594-1.329-1.594-.5 0-.984.36-1.312.75-.094-.547-.531-.75-.89-.75-.47 0-.657.39-.735.562-.188.344-.313.938-.313.969 0 .11.094.11.11.11.11 0 .11-.016.172-.235.172-.703.375-1.188.734-1.188.172 0 .313.079.313.454 0 .234-.032.343-.079.515zm1.75-4.328c.063-.266.344-.547.516-.704.36-.296.64-.374.812-.374.39 0 .64.343.64.937s-.327 1.734-.515 2.11c-.344.702-.812 1.03-1.187 1.03-.656 0-.781-.828-.781-.89 0-.016 0-.031.03-.156zm0 0"/></symbol><symbol id="j" overflow="visible"><path d="m3.89-3.734c-.265.015-.468.234-.468.453 0 .14.094.297.312.297.22 0 .454-.172.454-.563 0-.453-.422-.86-1.188-.86-1.313 0-1.688 1.016-1.688 1.454 0 .781.735.922 1.032.984.515.11 1.031.219 1.031.766 0 .25-.219 1.094-1.422 1.094-.14 0-.906 0-1.14-.532.39.047.64-.25.64-.53 0-.22-.172-.345-.375-.345-.266 0-.562.204-.562.657 0 .562.578.968 1.421.968 1.625 0 2.016-1.203 2.016-1.656a.97.97 0 0 0 -.312-.719c-.266-.28-.563-.343-1-.421-.36-.079-.75-.157-.75-.61 0-.281.234-.89 1.109-.89.25 0 .75.078.89.453zm0 0"/></symbol><symbol id="k" overflow="visible"><path d="m3.594-2.219c0-.765-.094-1.328-.406-1.812-.22-.313-.657-.594-1.204-.594-1.624 0-1.624 1.906-1.624 2.406s0 2.36 1.625 2.36c1.61 0 1.61-1.86 1.61-2.36zm-1.61 2.156c-.328 0-.75-.187-.89-.75-.094-.406-.094-.983-.094-1.5 0-.515 0-1.046.094-1.421.156-.547.593-.704.89-.704.375 0 .735.235.86.641.11.375.125.875.125 1.485 0 .515 0 1.03-.094 1.468-.14.64-.61.781-.89.781zm0 0"/></symbol><symbol id="l" overflow="visible"><path d="m6.563-2.297c.171 0 .359 0 .359-.203 0-.188-.188-.188-.36-.188h-5.39c-.172 0-.344 0-.344.188 0 .203.172.203.344.203zm0 0"/></symbol><clipPath id="m"><path d="m113 17h2v227.172h-2zm0 0"/></clipPath><path d="m-113.386.001h226.067" fill="none" stroke="#000" stroke-miterlimit="10" stroke-width=".79701" transform="matrix(1 0 0 -1 113.784 130.388)"/><path d="m-1.554 2.072c.13-.778 1.555-1.942 1.942-2.07-.388-.131-1.813-1.299-1.942-2.076" style="fill:none;stroke-width:.6376;stroke-linecap:round;stroke-linejoin:round;stroke:#000;stroke-miterlimit:10" transform="matrix(1 0 0 -1 226.464 130.388)"/><g><use x="230.889" xlink:href="#a" y="132.878"/><use x="238.222" xlink:href="#b" y="132.878"/><use x="242.65" xlink:href="#c" y="132.878"/></g><use x="246.525" xlink:href="#i" y="132.878"/><use x="251.537" xlink:href="#k" y="134.373"/><use x="256.007" xlink:href="#d" y="132.878"/><g clip-path="url(#m)"><path d="m.001-113.385v226.065" fill="none" stroke="#000" stroke-miterlimit="10" stroke-width=".79701" transform="matrix(1 0 0 -1 113.784 130.388)"/></g><path d="m-1.554 2.073c.13-.777 1.555-1.945 1.942-2.073-.388-.131-1.813-1.294-1.942-2.071" style="fill:none;stroke-width:.6376;stroke-linecap:round;stroke-linejoin:round;stroke:#000;stroke-miterlimit:10" transform="matrix(0 -1 -1 0 113.784 17.708)"/><g><use x="99.219" xlink:href="#e" y="10.792"/><use x="102.816" xlink:href="#f" y="10.792"/><use x="111.118" xlink:href="#c" y="10.792"/></g><use x="114.993" xlink:href="#i" y="10.792"/><use x="120.006" xlink:href="#k" y="12.287"/><use x="124.475" xlink:href="#d" y="10.792"/><path d="m3.986 3.986v107.718h107.718v-107.718zm0 0" fill="#f3e5e5" stroke="#8b0000" stroke-miterlimit="10" stroke-width=".79701" transform="matrix(1 0 0 -1 113.784 130.388)"/><use x="151.545" xlink:href="#j" y="75.035"/><use x="156.215" xlink:href="#c" y="75.035"/><use x="160.089" xlink:href="#i" y="75.035"/><use x="165.102" xlink:href="#k" y="76.53"/><use x="169.571" xlink:href="#d" y="75.035"/><use x="176.215" xlink:href="#g" y="75.035"/><use x="186.734" xlink:href="#h" y="75.035"/><path d="m-3.983 3.986v107.718h-107.719v-107.718zm0 0" fill="#e5e5f3" stroke="#00008b" stroke-miterlimit="10" stroke-width=".79701" transform="matrix(1 0 0 -1 113.784 130.388)"/><use x="31.984" xlink:href="#j" y="75.035"/><use x="36.654" xlink:href="#c" y="75.035"/><use x="40.528" xlink:href="#i" y="75.035"/><use x="45.541" xlink:href="#k" y="76.53"/><use x="50.01" xlink:href="#d" y="75.035"/><use x="56.654" xlink:href="#g" y="75.035"/><use x="67.168" xlink:href="#l" y="75.035"/><use x="74.917" xlink:href="#h" y="75.035"/><path d="m-3.983-3.987v-107.715h-107.719v107.715zm0 0" fill="#f3e5e5" stroke="#8b0000" stroke-miterlimit="10" stroke-width=".79701" transform="matrix(1 0 0 -1 113.784 130.388)"/><use x="35.858" xlink:href="#j" y="190.721"/><use x="40.528" xlink:href="#c" y="190.721"/><use x="44.403" xlink:href="#i" y="190.721"/><use x="49.415" xlink:href="#k" y="192.216"/><use x="53.885" xlink:href="#d" y="190.721"/><use x="60.529" xlink:href="#g" y="190.721"/><use x="71.038" xlink:href="#h" y="190.721"/><path d="m3.986-3.987v-107.715h107.718v107.715zm0 0" fill="#e5e5f3" stroke="#00008b" stroke-miterlimit="10" stroke-width=".79701" transform="matrix(1 0 0 -1 113.784 130.388)"/><use x="147.67" xlink:href="#j" y="190.721"/><use x="152.34" xlink:href="#c" y="190.721"/><use x="156.215" xlink:href="#i" y="190.721"/><use x="161.227" xlink:href="#k" y="192.216"/><use x="165.696" xlink:href="#d" y="190.721"/><use x="172.34" xlink:href="#g" y="190.721"/><use x="182.854" xlink:href="#l" y="190.721"/><use x="190.603" xlink:href="#h" y="190.721"/></svg>