<svg xmlns="http://www.w3.org/2000/svg" xmlns:xlink="http://www.w3.org/1999/xlink" width="415.893" height="121.6" viewBox="0 0 311.92 91.2"><defs><symbol overflow="visible" id="a"><path d="M2.406-3.406h.406c.391-.016.891-.047 1.282-.063-.282.266-.438.422-1.438 1.188C.641-.75.422-.094.422-.062c0 .14.14.14.219.14.171 0 .171-.015.25-.11.359-.5.718-.562.89-.562.266 0 .485.172.64.281.313.22.563.391.938.391 1.11 0 1.844-1.219 1.844-1.594 0-.14-.172-.14-.234-.14-.078 0-.188 0-.219.093-.078.188-.188.438-.86.516-.046.016-2 .094-2.218.094.281-.266.437-.422 1.453-1.188 2.016-1.53 2.234-2.187 2.234-2.218 0-.141-.14-.141-.218-.141-.157 0-.172 0-.235.094-.234.343-.437.578-.672.578-.25 0-.468-.156-.703-.313-.234-.187-.484-.359-.86-.359-.874 0-1.452.875-1.452 1.188 0 .14.172.14.25.14.093 0 .203 0 .218-.125.141-.078.22-.078.516-.11zm0 0"/></symbol><symbol overflow="visible" id="e"><path d="M5.344-4a.744.744 0 00-.532.688c0 .218.157.468.485.468.36 0 .719-.297.719-.781 0-.531-.516-.875-1.125-.875-.579 0-.938.422-1.079.61-.25-.422-.796-.61-1.374-.61C1.188-4.5.516-3.281.516-2.953c0 .14.14.14.234.14.125 0 .188 0 .234-.124.282-.907 1-1.204 1.407-1.204.375 0 .562.172.562.485 0 .203-.14.75-.234 1.11l-.344 1.358c-.14.61-.5.907-.844.907-.047 0-.281 0-.468-.14a.759.759 0 00.53-.688.477.477 0 00-.5-.47c-.343 0-.718.298-.718.782 0 .531.531.875 1.14.875.563 0 .938-.422 1.063-.61.25.423.813.61 1.375.61 1.266 0 1.938-1.219 1.938-1.547 0-.14-.157-.14-.235-.14-.125 0-.187 0-.234.125C5.14-.578 4.422-.281 4-.281c-.375 0-.547-.172-.547-.5 0-.203.125-.735.219-1.11.062-.25.297-1.187.344-1.343.156-.61.5-.907.843-.907.063 0 .282 0 .485.141zm0 0"/></symbol><symbol overflow="visible" id="b"><path d="M1.469-4.297a.413.413 0 00-.407-.406.4.4 0 00-.39.406.4.4 0 00.39.406.394.394 0 00.407-.406zM.406-3v.25c.438 0 .5.047.5.39v1.813c0 .297-.062.297-.515.297V0c.015 0 .5-.031.78-.031.25 0 .5.015.735.031v-.25c-.406 0-.468 0-.468-.297v-2.531zm0 0"/></symbol><symbol overflow="visible" id="c"><path d="M3.594-2.11c0-.609-.297-.968-1.047-.968-.578 0-.938.312-1.14.687v-.687L.374-3v.25c.469 0 .531.047.531.39v1.813c0 .297-.078.297-.531.297V0c.016 0 .5-.031.797-.031.25 0 .734.031.797.031v-.25c-.453 0-.516 0-.516-.297v-1.265c0-.72.578-1.063 1.031-1.063.485 0 .547.375.547.734v1.594c0 .297-.062.297-.515.297V0c.015 0 .5-.031.796-.031.25 0 .735.031.797.031v-.25c-.453 0-.515 0-.515-.297zm0 0"/></symbol><symbol overflow="visible" id="f"><path d="M1.438-2.75h.875V-3h-.907v-.781c0-.64.375-.922.672-.922.063 0 .14 0 .203.031-.094.047-.156.156-.156.281 0 .188.14.313.328.313s.328-.125.328-.313c0-.312-.312-.515-.687-.515-.547 0-1.188.39-1.188 1.125V-3H.312v.25h.594v2.203c0 .297-.062.297-.515.297V0c.03 0 .515-.031.796-.031.297 0 .61.015.907.031v-.25h-.14c-.516 0-.516-.078-.516-.313zm0 0"/></symbol><symbol overflow="visible" id="g"><path d="M3.11-1.875c0-.36 0-.625-.329-.89C2.5-3 2.171-3.11 1.75-3.11c-.656 0-1.125.25-1.125.671 0 .235.156.344.344.344a.32.32 0 00.328-.328.319.319 0 00-.25-.312c.25-.172.656-.172.687-.172.391 0 .829.25.829.844v.203c-.391.015-.844.046-1.36.234-.625.219-.812.61-.812.922 0 .594.718.765 1.218.765.547 0 .875-.312 1.032-.578.015.282.203.547.53.547.017 0 .688 0 .688-.656v-.39h-.234v.374c0 .079 0 .407-.266.407-.25 0-.25-.329-.25-.407zm-.547.89c0 .672-.594.86-.907.86-.36 0-.687-.234-.687-.578 0-.39.328-.922 1.594-.969zm0 0"/></symbol><symbol overflow="visible" id="h"><path d="M2.25-1.89c.86-.657 1.094-.844 1.563-.86V-3c-.141.016-.329.031-.47.031-.28 0-.562-.015-.827-.031v.25c.078.016.125.063.125.125 0 .11-.141.234-.22.297l-1.03.797v-3.313l-1.047.078v.25c.469 0 .515.063.515.391v3.578C.86-.25.797-.25.344-.25V0c.25-.016.515-.031.765-.031.266 0 .516.015.782.031v-.25c-.454 0-.532 0-.532-.297v-.672l.516-.39.75.953c.078.078.156.187.156.281 0 .11-.125.125-.187.125V0c.094 0 .578-.031.781-.031.203 0 .406.015.61.031v-.25c-.25 0-.407-.016-.61-.266zm0 0"/></symbol><symbol overflow="visible" id="i"><path d="M3.063-1.594c.156 0 .203 0 .203-.14 0-.625-.344-1.375-1.391-1.375a1.59 1.59 0 00-1.61 1.578c0 .89.782 1.593 1.704 1.593.937 0 1.297-.75 1.297-.906 0-.015-.016-.094-.125-.094-.094 0-.11.047-.125.11-.22.562-.75.672-1 .672-.329 0-.641-.14-.844-.406-.266-.329-.266-.75-.266-1.032zM.905-1.766c.078-.984.703-1.14.969-1.14.86 0 .89.969.906 1.14zm0 0"/></symbol><symbol overflow="visible" id="y"><path d="M1.39-1.594c0-.578.266-1.281.938-1.281a.325.325 0 00-.125.25c0 .234.188.313.313.313.171 0 .328-.11.328-.313 0-.234-.235-.453-.563-.453-.344 0-.734.219-.937.75v-.75L.344-3v.25c.469 0 .515.047.515.39v1.813C.86-.25.797-.25.344-.25V0c.031 0 .5-.031.797-.031.296 0 .593.015.906.031v-.25h-.14c-.516 0-.516-.078-.516-.313zm0 0"/></symbol><symbol overflow="visible" id="z"><path d="M1.438-4.844L.39-4.766v.25c.468 0 .515.063.515.391v3.578c0 .297-.062.297-.515.297V0c.015 0 .5-.031.78-.031.266 0 .516.015.782.031v-.25c-.453 0-.516 0-.516-.297zm0 0"/></symbol><symbol overflow="visible" id="A"><path d="M2.484-4.766v.25c.47 0 .516.063.516.391v1.453a1.371 1.371 0 00-.969-.406c-.937 0-1.703.703-1.703 1.578 0 .875.734 1.563 1.61 1.563.578 0 .921-.297 1.03-.422v.421L4.048 0v-.25c-.469 0-.516-.047-.516-.39v-4.204zM2.97-.734c-.172.328-.531.609-.985.609-.39 0-.671-.234-.812-.438-.14-.203-.219-.484-.219-.921 0-.172 0-.688.281-1.016.282-.313.625-.375.829-.375.328 0 .64.156.828.406.078.11.078.11.078.25zm0 0"/></symbol><symbol overflow="visible" id="B"><path d="M1.406-2.75h1.078V-3H1.406v-1.281h-.25c0 .625-.281 1.312-.953 1.328v.203h.64v1.875c0 .781.595.938.985.938.469 0 .781-.391.781-.938v-.39h-.234v.374c0 .485-.219.735-.5.735-.469 0-.469-.578-.469-.703zm0 0"/></symbol><symbol overflow="visible" id="j"><path d="M7.578-6.922c0-.031-.016-.11-.11-.11-.03 0-.046.016-.155.126l-.688.765c-.094-.14-.547-.89-1.656-.89C2.734-7.031.5-4.828.5-2.516.5-.922 1.61.22 3.219.22c.437 0 .89-.094 1.25-.235.5-.203.687-.406.86-.609.093.25.359.61.452.61.047 0 .078-.032.078-.032.016-.015.11-.406.157-.61l.187-.765.14-.516c.11-.437.11-.468.688-.468.047 0 .157-.016.157-.203 0-.079-.047-.11-.125-.11-.235 0-.829.031-1.047.031-.313 0-1.094-.03-1.407-.03-.078 0-.203 0-.203.202 0 .11.078.11.297.11.016 0 .297 0 .531.015.266.032.313.063.313.188 0 .094-.11.531-.219.906C5.047-.203 3.766-.094 3.406-.094c-.953 0-2-.562-2-2.094 0-.312.094-1.953 1.14-3.25.548-.671 1.517-1.28 2.5-1.28 1.016 0 1.61.765 1.61 1.921 0 .406-.031.406-.031.516 0 .093.11.093.14.093.126 0 .126-.015.188-.203zm0 0"/></symbol><symbol overflow="visible" id="t"><path d="M.453 1.219c-.078.343-.11.406-.547.406-.11 0-.218 0-.218.188 0 .078.046.125.124.125.266 0 .563-.032.829-.032.343 0 .671.032 1 .032.046 0 .171 0 .171-.204 0-.109-.093-.109-.234-.109-.5 0-.5-.063-.5-.156 0-.125.422-1.75.484-2 .125.297.407.64.922.64 1.157 0 2.407-1.453 2.407-2.921 0-.938-.579-1.594-1.329-1.594-.5 0-.984.36-1.312.75-.094-.547-.531-.75-.89-.75-.47 0-.657.39-.735.562-.188.344-.313.938-.313.969 0 .11.094.11.11.11.11 0 .11-.016.172-.235.172-.703.375-1.188.734-1.188.172 0 .313.079.313.454 0 .234-.032.343-.079.515zm1.75-4.328c.063-.266.344-.547.516-.704.36-.296.64-.374.812-.374.39 0 .64.343.64.937 0 .594-.327 1.734-.515 2.11-.344.702-.812 1.03-1.187 1.03-.656 0-.781-.828-.781-.89 0-.016 0-.031.03-.156zm0 0"/></symbol><symbol overflow="visible" id="H"><path d="M1.578-.781c-.094.39-.11.469-.906.469-.156 0-.266 0-.266.187C.406 0 .484 0 .672 0h3.312c2.063 0 4.032-2.11 4.032-4.281 0-1.407-.844-2.532-2.344-2.532H2.328c-.187 0-.297 0-.297.188 0 .125.078.125.281.125.126 0 .313.016.422.016.172.03.22.046.22.171 0 .032 0 .063-.032.188zm2.156-5.344c.094-.344.11-.375.547-.375h1.063c.968 0 1.797.531 1.797 1.844 0 .484-.188 2.125-1.047 3.218A2.919 2.919 0 013.797-.313H2.453c-.094-.015-.125-.03-.125-.109 0-.031 0-.047.047-.219zm0 0"/></symbol><symbol overflow="visible" id="k"><path d="M3.297 2.39c0-.03 0-.046-.172-.218C1.891.922 1.562-.968 1.562-2.5c0-1.734.375-3.469 1.61-4.703.125-.125.125-.14.125-.172 0-.078-.031-.11-.094-.11-.11 0-1 .688-1.594 1.954C1.11-4.438.984-3.328.984-2.5c0 .781.11 1.984.657 3.125C2.25 1.844 3.094 2.5 3.203 2.5c.063 0 .094-.031.094-.11zm0 0"/></symbol><symbol overflow="visible" id="l"><path d="M2.875-2.5c0-.766-.11-1.969-.656-3.11C1.625-6.827.766-7.483.672-7.483a.107.107 0 00-.11.109c0 .031 0 .047.188.234.984.985 1.547 2.563 1.547 4.641 0 1.719-.36 3.469-1.594 4.719-.14.125-.14.14-.14.172 0 .062.046.109.109.109.094 0 1-.688 1.578-1.953.516-1.094.625-2.203.625-3.047zm0 0"/></symbol><symbol overflow="visible" id="C"><path d="M1.672-3.313v-1.093l-1.39.11v.312c.702 0 .78.062.78.562V-.75c0 .438-.109.438-.78.438V0c.39-.016.859-.031 1.14-.031.39 0 .86 0 1.266.031v-.313h-.22c-.734 0-.75-.109-.75-.468v-1.531c0-.985.423-1.876 1.173-1.876.062 0 .093 0 .109.016-.031 0-.234.125-.234.39 0 .266.218.423.437.423a.421.421 0 00.422-.438c0-.312-.313-.61-.734-.61-.735 0-1.094.673-1.22 1.095zm0 0"/></symbol><symbol overflow="visible" id="D"><path d="M1.11-2.516C1.171-4 2.015-4.25 2.36-4.25c1.015 0 1.124 1.344 1.124 1.734zm0 .22h2.78c.22 0 .25 0 .25-.22 0-.984-.546-1.953-1.78-1.953C1.202-4.469.28-3.437.28-2.187.281-.86 1.328.108 2.47.108 3.688.11 4.14-1 4.14-1.187c0-.094-.079-.125-.141-.125-.078 0-.11.062-.125.14C3.531-.14 2.625-.14 2.531-.14c-.5 0-.89-.296-1.125-.671-.297-.47-.297-1.125-.297-1.485zm0 0"/></symbol><symbol overflow="visible" id="E"><path d="M3.313-.75c.046.39.312.813.78.813.22 0 .829-.141.829-.954v-.562h-.25v.562c0 .579-.25.641-.36.641-.328 0-.375-.453-.375-.5v-1.984c0-.422 0-.813-.359-1.188-.39-.39-.89-.547-1.36-.547-.827 0-1.515.469-1.515 1.125 0 .297.203.469.469.469a.435.435 0 00.453-.453c0-.125-.047-.453-.516-.453.282-.36.766-.469 1.079-.469.5 0 1.062.39 1.062 1.281v.36c-.516.03-1.203.062-1.828.359-.75.344-1 .86-1 1.297 0 .812.969 1.062 1.594 1.062.656 0 1.109-.406 1.296-.859zM3.25-2.39v1c0 .937-.719 1.28-1.172 1.28-.484 0-.89-.343-.89-.843 0-.547.421-1.375 2.062-1.438zm0 0"/></symbol><symbol overflow="visible" id="F"><path d="M1.766-6.922l-1.438.11v.312c.703 0 .781.063.781.563V-.75c0 .438-.109.438-.78.438V0c.327-.016.859-.031 1.109-.031s.734.015 1.109.031v-.313c-.672 0-.781 0-.781-.437zm0 0"/></symbol><symbol overflow="visible" id="G"><path d="M2.344-2.484c0-1.25.969-1.97 1.312-2.22.266-.202.485-.562.485-.984 0-.578-.407-1.343-1.891-1.343-1.078 0-1.688.687-1.688 1.328 0 .344.22.484.454.484.28 0 .453-.203.453-.468 0-.438-.407-.438-.547-.438.297-.531.875-.688 1.297-.688 1.094 0 1.094.688 1.094 1.079 0 .578-.157.765-.344.937-.656.719-.875 1.64-.875 2.25v.438c0 .187 0 .25.125.25s.125-.094.125-.282zm.39 1.953a.534.534 0 00-.515-.531.537.537 0 00-.531.53c0 .298.234.532.53.532a.524.524 0 00.516-.531zm0 0"/></symbol><symbol overflow="visible" id="m"><path d="M1.375-.547C1.125-.578.937-.78.937-1.078c0-.188.047-.266.094-.328.344.187.657.234.844.234.781 0 1.375-.547 1.375-1.172 0-.297-.14-.562-.328-.765.11-.094.375-.266.765-.266-.03.016-.078.063-.078.188 0 .14.11.25.25.25a.25.25 0 00.25-.266.43.43 0 00-.453-.406c-.14 0-.531.046-.89.375a1.585 1.585 0 00-.891-.282c-.781 0-1.36.547-1.36 1.172 0 .375.204.656.376.813a.934.934 0 00.094 1.36c-.422.108-.75.421-.75.78 0 .579.828 1.032 1.874 1.032 1 0 1.875-.407 1.875-1.047 0-.422-.25-.766-.515-.89-.469-.25-.86-.25-1.64-.25zm.5-.86c-.734 0-.734-.765-.734-.937 0-.297.03-.5.156-.656a.717.717 0 01.578-.281c.734 0 .734.765.734.937 0 .297-.03.5-.156.656a.703.703 0 01-.578.282zM2.25-.03c.219 0 1.266 0 1.266.64 0 .422-.61.797-1.407.797-.796 0-1.406-.375-1.406-.797 0-.171.14-.64.781-.64zm0 0"/></symbol><symbol overflow="visible" id="n"><path d="M3.297-1.813c.172 0 .219 0 .219-.187 0-.703-.391-1.547-1.516-1.547-.984 0-1.766.813-1.766 1.797 0 1.031.86 1.828 1.875 1.828 1 0 1.407-.844 1.407-1.031a.12.12 0 00-.125-.11c-.094 0-.11.047-.125.094a1.14 1.14 0 01-1.11.797c-.36 0-.734-.156-.969-.531-.234-.36-.234-.875-.234-1.11zM.953-2.03c.078-1.11.75-1.297 1.047-1.297.938 0 .969 1.125.969 1.297zm0 0"/></symbol><symbol overflow="visible" id="o"><path d="M3.875-2.422c0-.656-.313-1.094-1.14-1.094a1.38 1.38 0 00-1.25.766v-.766l-1.157.094v.266c.547 0 .61.047.61.437v2.094c0 .36-.094.36-.61.36V0c.344-.031.688-.031.906-.031.235 0 .563 0 .907.031v-.266c-.5 0-.61 0-.61-.359v-1.438c0-.843.64-1.234 1.125-1.234s.61.344.61.844v1.828c0 .36-.094.36-.61.36V0c.344-.031.703-.031.906-.031.235 0 .579 0 .922.031v-.266c-.515 0-.609 0-.609-.359zm0 0"/></symbol><symbol overflow="visible" id="p"><path d="M1.469-1.813c0-.609.25-1.468 1.015-1.484-.046.031-.14.094-.14.281 0 .25.203.36.36.36.187 0 .358-.125.358-.36 0-.28-.25-.5-.609-.5-.515 0-.875.391-1.031.844h-.016v-.844l-1.125.094v.266c.547 0 .61.047.61.437v2.094c0 .36-.11.36-.61.36V0c.313-.031.75-.031.938-.031.468 0 .484 0 1 .031v-.266h-.156c-.579 0-.594-.078-.594-.375zm0 0"/></symbol><symbol overflow="visible" id="q"><path d="M3.344-2.375c0-.781-.75-1.172-1.485-1.172-.656 0-1.25.25-1.25.781a.36.36 0 00.375.375c.235 0 .375-.156.375-.375 0-.187-.109-.328-.296-.359.296-.203.734-.203.78-.203.454 0 .891.312.891.969v.234c-.453.031-.984.047-1.546.281-.704.313-.844.766-.844 1.032 0 .687.812.89 1.36.89.577 0 .937-.328 1.124-.64.031.296.235.609.594.609.078 0 .75-.031.75-.766v-.437h-.25v.437c0 .328-.11.453-.281.453-.297 0-.297-.359-.297-.453zm-.61 1.25c0 .781-.64.984-.968.984C1.359-.14 1-.42 1-.812c0-.516.5-1.063 1.734-1.094zm0 0"/></symbol><symbol overflow="visible" id="r"><path d="M1.484-3.172h1.188v-.265H1.484v-1.47h-.25c0 .735-.328 1.485-1.078 1.516v.22h.719V-1c0 .938.719 1.078 1.078 1.078.547 0 .86-.469.86-1.078v-.438h-.25v.422c0 .547-.25.844-.547.844-.532 0-.532-.687-.532-.812zm0 0"/></symbol><symbol overflow="visible" id="s"><path d="M3.984-1.703c0-.984-.828-1.844-1.875-1.844-1.046 0-1.875.86-1.875 1.844 0 1 .86 1.781 1.875 1.781 1.032 0 1.875-.781 1.875-1.781zM2.11-.172c-.421 0-.765-.203-.937-.484-.203-.328-.219-.719-.219-1.11 0-.312 0-.78.235-1.125.218-.28.546-.437.921-.437.422 0 .766.203.938.469.219.343.234.765.234 1.093 0 .36-.015.797-.25 1.141-.203.313-.562.453-.922.453zm0 0"/></symbol><symbol overflow="visible" id="v"><path d="M1.516-5.531l-1.188.093v.266c.547 0 .61.047.61.438v4.109c0 .36-.094.36-.61.36V0c.313-.031.766-.031.906-.031.157 0 .579 0 .891.031v-.266c-.5 0-.61 0-.61-.359zm0 0"/></symbol><symbol overflow="visible" id="w"><path d="M1.547-4.906c0-.235-.172-.453-.438-.453a.437.437 0 00-.437.437.45.45 0 00.437.453.436.436 0 00.438-.437zM.359-3.422v.266c.516 0 .579.047.579.437v2.094c0 .36-.094.36-.61.36V0c.313-.031.766-.031.89-.031.095 0 .579 0 .86.031v-.266c-.531 0-.562-.03-.562-.343v-2.907zm0 0"/></symbol><symbol overflow="visible" id="x"><path d="M2.844-3.344c0-.125 0-.203-.11-.203-.046 0-.062 0-.187.125-.016 0-.094.078-.11.078-.015 0-.03 0-.078-.031-.125-.094-.359-.172-.718-.172-1.11 0-1.36.594-1.36.985 0 .39.297.624.313.656.328.234.5.265 1.047.36.375.077.984.187.984.718 0 .312-.203.687-.938.687C.875-.14.641-.766.548-1.187c-.031-.11-.047-.141-.14-.141-.126 0-.126.062-.126.219v.984c0 .125 0 .203.094.203.063 0 .063 0 .203-.156.047-.047.125-.14.172-.188.36.329.734.344.938.344 1.015 0 1.359-.578 1.359-1.11 0-.374-.219-.937-1.172-1.109a10.121 10.121 0 00-.547-.093c-.25-.063-.625-.235-.625-.547 0-.235.188-.578.938-.578.89 0 .937.656.953.875 0 .062.062.093.11.093.14 0 .14-.062.14-.203zm0 0"/></symbol><symbol overflow="visible" id="I"><path d="M2.625-5.438v.266c.531 0 .61.047.61.438v1.687a1.409 1.409 0 00-1.079-.469c-1 0-1.875.782-1.875 1.797 0 .985.797 1.797 1.797 1.797.469 0 .86-.219 1.125-.5v.5L4.422 0v-.266c-.547 0-.61-.046-.61-.437v-4.828zm.578 4.454c0 .14 0 .171-.125.328a1.146 1.146 0 01-.953.515c-.375 0-.688-.187-.875-.484-.219-.313-.266-.703-.266-1.078 0-.469.079-.797.266-1.063.188-.296.547-.53.953-.53.375 0 .766.202 1 .608zm0 0"/></symbol><symbol overflow="visible" id="J"><path d="M2.938-3.156a.336.336 0 00-.266.344c0 .218.156.374.375.374s.375-.14.375-.39c0-.485-.531-.719-1.281-.719-1.11 0-1.86.875-1.86 1.828C.281-.703 1.11.078 2.11.078c1.125 0 1.407-.937 1.407-1.031 0-.094-.11-.094-.125-.094-.063 0-.094 0-.125.078a1.071 1.071 0 01-1.079.797C1.704-.172.984-.547.984-1.734c0-1.141.594-1.579 1.172-1.579.078 0 .5 0 .781.157zm0 0"/></symbol><symbol overflow="visible" id="K"><path d="M6.219-2.422c0-.64-.282-1.094-1.14-1.094-.735 0-1.11.5-1.235.735-.14-.578-.594-.735-1.11-.735a1.37 1.37 0 00-1.25.766v-.766l-1.156.094v.266c.547 0 .61.047.61.437v2.094c0 .36-.094.36-.61.36V0c.344-.031.688-.031.906-.031.235 0 .563 0 .907.031v-.266c-.5 0-.61 0-.61-.359v-1.438c0-.843.64-1.234 1.14-1.234.517 0 .61.406.61.844v1.828c0 .36-.11.36-.61.36V0c.345-.031.688-.031.907-.031.235 0 .563 0 .906.031v-.266c-.515 0-.609 0-.609-.359v-1.438c0-.843.64-1.234 1.14-1.234.516 0 .61.406.61.844v1.828c0 .36-.11.36-.61.36V0c.344-.031.688-.031.907-.031.234 0 .562 0 .906.031v-.266c-.516 0-.61 0-.61-.359zm0 0"/></symbol><symbol overflow="visible" id="u"><path d="M3.563-3.39c0-.735-.282-1.516-.97-1.516-1.046 0-2.155 1.875-2.155 3.468 0 .829.328 1.5.968 1.5 1.047 0 2.157-1.89 2.157-3.453zm-2.344.843c.36-1.5.968-2.156 1.375-2.156.437 0 .437.766.437.89 0 .282-.047.688-.187 1.266zm1.562.25c-.203.766-.36 1.14-.578 1.485-.203.359-.484.687-.797.687-.375 0-.437-.531-.437-.906 0-.453.125-1 .187-1.266zm0 0"/></symbol><clipPath id="d"><path d="M121 60h31v31.2h-31zm0 0"/></clipPath></defs><path d="M70.73 76.004c0-6.461-5.238-11.7-11.703-11.7-6.46 0-11.699 5.239-11.699 11.7 0 6.465 5.238 11.703 11.7 11.703 6.464 0 11.702-5.238 11.702-11.703zm0 0" fill="#9cc"/><use xlink:href="#a" x="52.477" y="77.472"/><use xlink:href="#b" x="58.427" y="78.966"/><use xlink:href="#c" x="60.682" y="78.966"/><g clip-path="url(#d)"><path d="M151.73 76.004c0-8.39-6.804-15.195-15.195-15.195-8.39 0-15.195 6.804-15.195 15.195 0 8.394 6.805 15.195 15.195 15.195s15.195-6.8 15.195-15.195zm0 0" fill="#9cc"/></g><use xlink:href="#e" x="126.025" y="77.472"/><use xlink:href="#f" x="132.59" y="78.966"/><use xlink:href="#g" x="135.06" y="78.966"/><use xlink:href="#h" x="139.032" y="78.966"/><use xlink:href="#i" x="143.001" y="78.966"/><path d="M71.129 76.004h49.105" fill="none" stroke-width=".797" stroke="#000" stroke-miterlimit="10"/><path d="M118.68 73.934c.129.777 1.554 1.941 1.941 2.07-.387.129-1.812 1.297-1.941 2.074" fill="none" stroke-width=".6376000000000001" stroke-linecap="round" stroke-linejoin="round" stroke="#000" stroke-miterlimit="10"/><use xlink:href="#j" x="84.96" y="69.796"/><use xlink:href="#k" x="92.794" y="69.796"/><use xlink:href="#e" x="96.668" y="69.796"/><use xlink:href="#l" x="103.234" y="69.796"/><use xlink:href="#m" x="78.62" y="84.627"/><use xlink:href="#n" x="82.854" y="84.627"/><use xlink:href="#o" x="86.618" y="84.627"/><use xlink:href="#n" x="91.323" y="84.627"/><use xlink:href="#p" x="95.086" y="84.627"/><use xlink:href="#q" x="98.387" y="84.627"/><use xlink:href="#r" x="102.621" y="84.627"/><use xlink:href="#s" x="105.914" y="84.627"/><use xlink:href="#p" x="110.149" y="84.627"/><path d="M46.223 76.004H2.336" fill="none" stroke-width=".797" stroke="#000" stroke-miterlimit="10"/><path d="M44.668 73.934c.129.777 1.555 1.941 1.941 2.07-.386.129-1.812 1.297-1.941 2.074" fill="none" stroke-width=".6376000000000001" stroke-linecap="round" stroke-linejoin="round" stroke="#000" stroke-miterlimit="10"/><use xlink:href="#t" x="13.023" y="69.796"/><use xlink:href="#u" x="18.036" y="71.29"/><use xlink:href="#k" x="22.543" y="69.796"/><use xlink:href="#a" x="26.418" y="69.796"/><use xlink:href="#l" x="32.367" y="69.796"/><use xlink:href="#v" x="3.321" y="85.259"/><use xlink:href="#q" x="5.673" y="85.259"/><use xlink:href="#r" x="9.908" y="85.259"/><use xlink:href="#n" x="13.201" y="85.259"/><use xlink:href="#o" x="16.964" y="85.259"/><use xlink:href="#r" x="21.43" y="85.259"/><use xlink:href="#o" x="27.553" y="85.259"/><use xlink:href="#s" x="32.257" y="85.259"/><use xlink:href="#w" x="36.492" y="85.259"/><use xlink:href="#x" x="38.844" y="85.259"/><use xlink:href="#n" x="42.184" y="85.259"/><path d="M151.203 16.996c0-8.101-6.566-14.668-14.668-14.668-8.101 0-14.668 6.567-14.668 14.668 0 8.102 6.567 14.672 14.668 14.672 8.102 0 14.668-6.57 14.668-14.672zm0 0" fill="#9cc"/><use xlink:href="#e" x="126.561" y="18.465"/><use xlink:href="#y" x="133.127" y="19.96"/><use xlink:href="#i" x="136.24" y="19.96"/><use xlink:href="#g" x="139.782" y="19.96"/><use xlink:href="#z" x="143.754" y="19.96"/><path d="M120.762 16.996H79.844" fill="none" stroke-width=".797" stroke="#000" stroke-miterlimit="10"/><path d="M119.207 14.926c.129.777 1.555 1.941 1.941 2.07-.386.133-1.812 1.297-1.941 2.074" fill="none" stroke-width=".6376000000000001" stroke-linecap="round" stroke-linejoin="round" stroke="#000" stroke-miterlimit="10"/><use xlink:href="#t" x="83.014" y="10.789"/><use xlink:href="#A" x="88.026" y="12.283"/><use xlink:href="#g" x="92.427" y="12.283"/><use xlink:href="#B" x="96.398" y="12.283"/><use xlink:href="#g" x="99.511" y="12.283"/><use xlink:href="#k" x="103.98" y="10.789"/><use xlink:href="#e" x="107.854" y="10.789"/><use xlink:href="#l" x="114.42" y="10.789"/><path d="M213.96 46.5a8.625 8.625 0 10-17.25 0 8.622 8.622 0 008.626 8.625 8.625 8.625 0 008.625-8.625zm0 0" fill="#9cc"/><use xlink:href="#e" x="202.05" y="48.716"/><use xlink:href="#C" x="287.814" y="49.961"/><use xlink:href="#D" x="291.716" y="49.961"/><use xlink:href="#E" x="296.144" y="49.961"/><use xlink:href="#F" x="301.125" y="49.961"/><use xlink:href="#G" x="303.893" y="49.961"/><path d="M214.36 46.5h69.03" fill="none" stroke-width=".797" stroke="#000" stroke-miterlimit="10"/><path d="M281.836 44.43c.129.777 1.555 1.941 1.941 2.07-.386.133-1.812 1.297-1.941 2.074" fill="none" stroke-width=".6376000000000001" stroke-linecap="round" stroke-linejoin="round" stroke="#000" stroke-miterlimit="10"/><use xlink:href="#H" x="237.806" y="40.292"/><use xlink:href="#k" x="246.331" y="40.292"/><use xlink:href="#e" x="250.205" y="40.292"/><use xlink:href="#l" x="256.771" y="40.292"/><use xlink:href="#I" x="224.731" y="55.756"/><use xlink:href="#w" x="229.436" y="55.756"/><use xlink:href="#x" x="231.788" y="55.756"/><use xlink:href="#J" x="235.128" y="55.756"/><use xlink:href="#p" x="238.892" y="55.756"/><use xlink:href="#w" x="242.192" y="55.756"/><use xlink:href="#K" x="244.544" y="55.756"/><use xlink:href="#w" x="251.601" y="55.756"/><use xlink:href="#o" x="253.953" y="55.756"/><use xlink:href="#q" x="258.657" y="55.756"/><use xlink:href="#r" x="262.892" y="55.756"/><use xlink:href="#s" x="266.185" y="55.756"/><use xlink:href="#p" x="270.42" y="55.756"/><path d="M181.66 76.004a2.115 2.115 0 00-2.113-2.113 2.112 2.112 0 102.113 2.113zm0 0M181.137 16.996c0-1.164-.95-2.113-2.114-2.113-1.168 0-2.117.949-2.117 2.113a2.116 2.116 0 004.23 0zm0 0"/><path d="M178.273 73.84c-10.863-18.434-11.02-36.031-.488-54.656" fill="none" stroke-width=".797" stroke="#000" stroke-dasharray="29.8883,29.8883" stroke-miterlimit="10"/><path d="M175.836 33.64a4.01 4.01 0 10-8.02.003 4.01 4.01 0 008.02-.002zm0 0" fill="#ff8000"/><path d="M152.129 76.004h24.906m-25.433-59.008h24.91m-.57 18.227l20.308 7.793" fill="none" stroke-width=".797" stroke="#000" stroke-miterlimit="10"/><path d="M195.543 40.523c-.156.774.754 2.372 1.07 2.633-.41-.02-2.156.559-2.554 1.239" fill="none" stroke-width=".6376000000000001" stroke-linecap="round" stroke-linejoin="round" stroke="#000" stroke-miterlimit="10"/></svg>