<svg xmlns="http://www.w3.org/2000/svg" xmlns:xlink="http://www.w3.org/1999/xlink" width="453.297" height="122.388" viewBox="0 0 339.973 91.791"><defs><symbol overflow="visible" id="a"><path style="stroke:none" d="M5.36-5.938c-.141.141-.47.422-.47.594 0 .094.094.203.188.203s.14-.078.203-.14c.11-.14.344-.422.782-.64.062-.048.171-.095.171-.204 0-.11-.078-.156-.14-.203a1.034 1.034 0 0 1-.407-.563c-.03-.093-.062-.234-.203-.234-.14 0-.203.14-.203.219 0 .047.078.36.235.578h-3.36c-.156 0-.344 0-.344.203 0 .188.188.188.344.188Zm0 0"/></symbol><symbol overflow="visible" id="b"><path style="stroke:none" d="M1.328-.828c.531-.578.828-.828 1.188-1.14 0 0 .609-.532.968-.891.954-.922 1.172-1.407 1.172-1.454 0-.093-.093-.093-.11-.093-.077 0-.093.015-.155.11-.297.484-.5.64-.735.64-.25 0-.36-.156-.515-.328-.188-.22-.36-.422-.688-.422-.75 0-1.203.922-1.203 1.14 0 .047.031.11.11.11.093 0 .109-.047.14-.11.188-.468.766-.468.844-.468.203 0 .39.062.625.14.406.156.515.156.765.156-.359.422-1.187 1.141-1.375 1.297l-.906.844C.781-.625.422-.063.422.016c0 .093.11.093.125.093C.625.11.64.094.703-.016c.235-.359.531-.625.86-.625.218 0 .328.094.578.375.156.22.343.375.625.375 1 0 1.578-1.265 1.578-1.53 0-.048-.047-.11-.125-.11-.094 0-.11.062-.14.14-.235.641-.876.829-1.204.829-.188 0-.375-.063-.578-.125-.344-.125-.5-.172-.703-.172-.016 0-.172 0-.266.03Zm0 0"/></symbol><symbol overflow="visible" id="f"><path style="stroke:none" d="M3.328-3.016c.063-.25.297-1.171.985-1.171.046 0 .296 0 .5.125a.578.578 0 0 0-.47.546c0 .157.11.344.376.344a.546.546 0 0 0 .531-.578c0-.516-.578-.656-.922-.656-.578 0-.922.531-1.047.75-.25-.656-.781-.75-1.078-.75-1.031 0-1.61 1.281-1.61 1.531 0 .11.11.11.126.11.078 0 .11-.032.125-.11.344-1.063 1-1.313 1.344-1.313.187 0 .53.094.53.672 0 .313-.171.97-.53 2.375-.157.61-.516 1.032-.954 1.032-.062 0-.28 0-.5-.125.25-.063.47-.266.47-.547 0-.266-.22-.344-.36-.344-.313 0-.547.25-.547.578 0 .453.484.656.922.656.672 0 1.031-.703 1.047-.75.125.36.484.75 1.078.75 1.031 0 1.594-1.28 1.594-1.53 0-.11-.079-.11-.11-.11-.094 0-.11.047-.14.11-.329 1.077-1 1.312-1.313 1.312-.39 0-.547-.313-.547-.657 0-.218.047-.437.156-.875Zm0 0"/></symbol><symbol overflow="visible" id="k"><path style="stroke:none" d="M7.578-6.922c0-.031-.016-.11-.11-.11-.03 0-.046.016-.155.126l-.688.765c-.094-.14-.547-.89-1.656-.89C2.734-7.031.5-4.828.5-2.516.5-.922 1.61.22 3.219.22c.437 0 .89-.094 1.25-.235.5-.203.687-.406.86-.609.093.25.359.61.452.61.047 0 .078-.032.078-.032.016-.015.11-.406.157-.61l.187-.765.14-.516c.11-.437.11-.468.688-.468.047 0 .157-.016.157-.203 0-.079-.047-.11-.125-.11-.235 0-.829.031-1.047.031-.313 0-1.094-.03-1.407-.03-.078 0-.203 0-.203.202 0 .11.078.11.297.11.016 0 .297 0 .531.015.266.032.313.063.313.188 0 .094-.11.531-.219.906C5.047-.203 3.766-.094 3.406-.094c-.953 0-2-.562-2-2.094 0-.312.094-1.953 1.14-3.25.548-.671 1.517-1.28 2.5-1.28 1.016 0 1.61.765 1.61 1.921 0 .406-.031.406-.031.516 0 .093.11.093.14.093.126 0 .126-.015.188-.203Zm0 0"/></symbol><symbol overflow="visible" id="u"><path style="stroke:none" d="M.453 1.219c-.078.343-.11.406-.547.406-.11 0-.218 0-.218.188 0 .078.046.125.124.125.266 0 .563-.032.829-.032.343 0 .671.032 1 .032.046 0 .171 0 .171-.204 0-.109-.093-.109-.234-.109-.5 0-.5-.063-.5-.156 0-.125.422-1.75.484-2 .125.297.407.64.922.64 1.157 0 2.407-1.453 2.407-2.921 0-.938-.579-1.594-1.329-1.594-.5 0-.984.36-1.312.75-.094-.547-.531-.75-.89-.75-.47 0-.657.39-.735.562-.188.344-.313.938-.313.969 0 .11.094.11.11.11.11 0 .11-.016.172-.235.172-.703.375-1.188.734-1.188.172 0 .313.079.313.454 0 .234-.032.343-.079.515Zm1.75-4.328c.063-.266.344-.547.516-.704.36-.296.64-.374.812-.374.39 0 .64.343.64.937 0 .594-.327 1.734-.515 2.11-.344.702-.812 1.03-1.187 1.03-.656 0-.781-.828-.781-.89 0-.016 0-.031.03-.156Zm0 0"/></symbol><symbol overflow="visible" id="I"><path style="stroke:none" d="M1.578-.781c-.094.39-.11.469-.906.469-.156 0-.266 0-.266.187C.406 0 .484 0 .672 0h3.312c2.063 0 4.032-2.11 4.032-4.281 0-1.407-.844-2.532-2.344-2.532H2.328c-.187 0-.297 0-.297.188 0 .125.078.125.281.125.126 0 .313.016.422.016.172.03.22.046.22.171 0 .032 0 .063-.032.188Zm2.156-5.344c.094-.344.11-.375.547-.375h1.063c.968 0 1.797.531 1.797 1.844 0 .484-.188 2.125-1.047 3.218A2.919 2.919 0 0 1 3.797-.313H2.453c-.094-.015-.125-.03-.125-.109 0-.031 0-.047.047-.219Zm0 0"/></symbol><symbol overflow="visible" id="c"><path style="stroke:none" d="M1.469-4.297a.413.413 0 0 0-.407-.406.4.4 0 0 0-.39.406.4.4 0 0 0 .39.406.394.394 0 0 0 .407-.406ZM.406-3v.25c.438 0 .5.047.5.39v1.813c0 .297-.062.297-.515.297V0c.015 0 .5-.031.78-.031.25 0 .5.015.735.031v-.25c-.406 0-.468 0-.468-.297v-2.531Zm0 0"/></symbol><symbol overflow="visible" id="d"><path style="stroke:none" d="M3.594-2.11c0-.609-.297-.968-1.047-.968-.578 0-.938.312-1.14.687v-.687L.374-3v.25c.469 0 .531.047.531.39v1.813c0 .297-.078.297-.531.297V0c.016 0 .5-.031.797-.031.25 0 .734.031.797.031v-.25c-.453 0-.516 0-.516-.297v-1.265c0-.72.578-1.063 1.031-1.063.485 0 .547.375.547.734v1.594c0 .297-.062.297-.515.297V0c.015 0 .5-.031.796-.031.25 0 .735.031.797.031v-.25c-.453 0-.515 0-.515-.297Zm0 0"/></symbol><symbol overflow="visible" id="g"><path style="stroke:none" d="M1.438-2.75h.875V-3h-.907v-.781c0-.64.375-.922.672-.922.063 0 .14 0 .203.031-.094.047-.156.156-.156.281 0 .188.14.313.328.313s.328-.125.328-.313c0-.312-.312-.515-.687-.515-.547 0-1.188.39-1.188 1.125V-3H.312v.25h.594v2.203c0 .297-.062.297-.515.297V0c.03 0 .515-.031.796-.031.297 0 .61.015.907.031v-.25h-.14c-.516 0-.516-.078-.516-.313Zm0 0"/></symbol><symbol overflow="visible" id="h"><path style="stroke:none" d="M3.11-1.875c0-.36 0-.625-.329-.89C2.5-3 2.171-3.11 1.75-3.11c-.656 0-1.125.25-1.125.671 0 .235.156.344.344.344a.32.32 0 0 0 .328-.328.319.319 0 0 0-.25-.312c.25-.172.656-.172.687-.172.391 0 .829.25.829.844v.203c-.391.015-.844.046-1.36.234-.625.219-.812.61-.812.922 0 .594.718.765 1.218.765.547 0 .875-.312 1.032-.578.015.282.203.547.53.547.017 0 .688 0 .688-.656v-.39h-.234v.374c0 .079 0 .407-.266.407-.25 0-.25-.329-.25-.407Zm-.547.89c0 .672-.594.86-.907.86-.36 0-.687-.234-.687-.578 0-.39.328-.922 1.594-.969Zm0 0"/></symbol><symbol overflow="visible" id="i"><path style="stroke:none" d="M2.25-1.89c.86-.657 1.094-.844 1.563-.86V-3a4.635 4.635 0 0 1-.47.031c-.28 0-.562-.015-.827-.031v.25c.078.016.125.063.125.125 0 .11-.141.234-.22.297l-1.03.797v-3.313l-1.047.078v.25c.469 0 .515.063.515.391v3.578C.86-.25.797-.25.344-.25V0c.25-.016.515-.031.765-.031.266 0 .516.015.782.031v-.25c-.454 0-.532 0-.532-.297v-.672l.516-.39.75.953c.078.078.156.187.156.281 0 .11-.125.125-.187.125V0c.094 0 .578-.031.781-.031.203 0 .406.015.61.031v-.25c-.25 0-.407-.016-.61-.266Zm0 0"/></symbol><symbol overflow="visible" id="j"><path style="stroke:none" d="M3.063-1.594c.156 0 .203 0 .203-.14 0-.625-.344-1.375-1.391-1.375a1.59 1.59 0 0 0-1.61 1.578c0 .89.782 1.593 1.704 1.593.937 0 1.297-.75 1.297-.906 0-.015-.016-.094-.125-.094-.094 0-.11.047-.125.11-.22.562-.75.672-1 .672-.329 0-.641-.14-.844-.406-.266-.329-.266-.75-.266-1.032ZM.905-1.766c.078-.984.703-1.14.969-1.14.86 0 .89.969.906 1.14Zm0 0"/></symbol><symbol overflow="visible" id="z"><path style="stroke:none" d="M1.39-1.594c0-.578.266-1.281.938-1.281a.325.325 0 0 0-.125.25c0 .234.188.313.313.313.171 0 .328-.11.328-.313 0-.234-.235-.453-.563-.453-.344 0-.734.219-.937.75v-.75L.344-3v.25c.469 0 .515.047.515.39v1.813C.86-.25.797-.25.344-.25V0c.031 0 .5-.031.797-.031.296 0 .593.015.906.031v-.25h-.14c-.516 0-.516-.078-.516-.313Zm0 0"/></symbol><symbol overflow="visible" id="A"><path style="stroke:none" d="M1.438-4.844.39-4.766v.25c.468 0 .515.063.515.391v3.578C.905-.25.843-.25.39-.25V0c.015 0 .5-.031.78-.031.266 0 .516.015.782.031v-.25c-.453 0-.516 0-.516-.297Zm0 0"/></symbol><symbol overflow="visible" id="B"><path style="stroke:none" d="M2.484-4.766v.25c.47 0 .516.063.516.391v1.453a1.371 1.371 0 0 0-.969-.406c-.937 0-1.703.703-1.703 1.578 0 .875.734 1.563 1.61 1.563.578 0 .921-.297 1.03-.422v.421L4.048 0v-.25c-.469 0-.516-.047-.516-.39v-4.204ZM2.97-.734a1.125 1.125 0 0 1-.985.609 1 1 0 0 1-.812-.438c-.14-.203-.219-.484-.219-.921 0-.172 0-.688.281-1.016a1.11 1.11 0 0 1 .829-.375c.328 0 .64.156.828.406.078.11.078.11.078.25Zm0 0"/></symbol><symbol overflow="visible" id="C"><path style="stroke:none" d="M1.406-2.75h1.078V-3H1.406v-1.281h-.25c0 .625-.281 1.312-.953 1.328v.203h.64v1.875c0 .781.595.938.985.938.469 0 .781-.391.781-.938v-.39h-.234v.374c0 .485-.219.735-.5.735-.469 0-.469-.578-.469-.703Zm0 0"/></symbol><symbol overflow="visible" id="l"><path style="stroke:none" d="M3.297 2.39c0-.03 0-.046-.172-.218C1.891.922 1.562-.968 1.562-2.5c0-1.734.375-3.469 1.61-4.703.125-.125.125-.14.125-.172 0-.078-.031-.11-.094-.11-.11 0-1 .688-1.594 1.954C1.11-4.438.984-3.328.984-2.5c0 .781.11 1.984.657 3.125C2.25 1.844 3.094 2.5 3.203 2.5c.063 0 .094-.031.094-.11Zm0 0"/></symbol><symbol overflow="visible" id="m"><path style="stroke:none" d="M2.875-2.5c0-.766-.11-1.969-.656-3.11C1.625-6.827.766-7.483.672-7.483a.107.107 0 0 0-.11.109c0 .031 0 .047.188.234.984.985 1.547 2.563 1.547 4.641C2.297-.78 1.937.97.703 2.22c-.14.125-.14.14-.14.172 0 .062.046.109.109.109.094 0 1-.688 1.578-1.953.516-1.094.625-2.203.625-3.047Zm0 0"/></symbol><symbol overflow="visible" id="D"><path style="stroke:none" d="M1.672-3.313v-1.093l-1.39.11v.312c.702 0 .78.062.78.562V-.75c0 .438-.109.438-.78.438V0c.39-.016.859-.031 1.14-.031.39 0 .86 0 1.266.031v-.313h-.22c-.734 0-.75-.109-.75-.468v-1.531c0-.985.423-1.876 1.173-1.876.062 0 .093 0 .109.016-.031 0-.234.125-.234.39 0 .266.218.423.437.423a.421.421 0 0 0 .422-.438c0-.312-.313-.61-.734-.61-.735 0-1.094.673-1.22 1.095Zm0 0"/></symbol><symbol overflow="visible" id="E"><path style="stroke:none" d="M1.11-2.516C1.171-4 2.015-4.25 2.36-4.25c1.015 0 1.124 1.344 1.124 1.734Zm0 .22h2.78c.22 0 .25 0 .25-.22 0-.984-.546-1.953-1.78-1.953-1.158 0-2.08 1.032-2.08 2.282C.281-.86 1.328.108 2.47.108 3.688.11 4.14-1 4.14-1.187c0-.094-.079-.125-.141-.125-.078 0-.11.062-.125.14C3.531-.14 2.625-.14 2.531-.14c-.5 0-.89-.296-1.125-.671-.297-.47-.297-1.125-.297-1.485Zm0 0"/></symbol><symbol overflow="visible" id="F"><path style="stroke:none" d="M3.313-.75c.046.39.312.813.78.813.22 0 .829-.141.829-.954v-.562h-.25v.562c0 .579-.25.641-.36.641-.328 0-.375-.453-.375-.5v-1.984c0-.422 0-.813-.359-1.188a1.9 1.9 0 0 0-1.36-.547C1.391-4.469.703-4 .703-3.344c0 .297.203.469.469.469a.435.435 0 0 0 .453-.453c0-.125-.047-.453-.516-.453.282-.36.766-.469 1.079-.469.5 0 1.062.39 1.062 1.281v.36c-.516.03-1.203.062-1.828.359-.75.344-1 .86-1 1.297 0 .812.969 1.062 1.594 1.062A1.38 1.38 0 0 0 3.312-.75ZM3.25-2.39v1c0 .937-.719 1.28-1.172 1.28-.484 0-.89-.343-.89-.843 0-.547.421-1.375 2.062-1.438Zm0 0"/></symbol><symbol overflow="visible" id="G"><path style="stroke:none" d="m1.766-6.922-1.438.11v.312c.703 0 .781.063.781.563V-.75c0 .438-.109.438-.78.438V0c.327-.016.859-.031 1.109-.031s.734.015 1.109.031v-.313c-.672 0-.781 0-.781-.437Zm0 0"/></symbol><symbol overflow="visible" id="H"><path style="stroke:none" d="M2.344-2.484c0-1.25.969-1.97 1.312-2.22.266-.202.485-.562.485-.984 0-.578-.407-1.343-1.891-1.343-1.078 0-1.688.687-1.688 1.328 0 .344.22.484.454.484.28 0 .453-.203.453-.468 0-.438-.407-.438-.547-.438.297-.531.875-.688 1.297-.688 1.094 0 1.094.688 1.094 1.079 0 .578-.157.765-.344.937a3.469 3.469 0 0 0-.875 2.25v.438c0 .187 0 .25.125.25s.125-.094.125-.282Zm.39 1.953a.534.534 0 0 0-.515-.531.537.537 0 0 0-.531.53c0 .298.234.532.53.532a.524.524 0 0 0 .516-.531Zm0 0"/></symbol><symbol overflow="visible" id="n"><path style="stroke:none" d="M1.375-.547C1.125-.578.937-.78.937-1.078c0-.188.047-.266.094-.328.344.187.657.234.844.234.781 0 1.375-.547 1.375-1.172 0-.297-.14-.562-.328-.765a1.19 1.19 0 0 1 .765-.266c-.03.016-.078.063-.078.188 0 .14.11.25.25.25a.25.25 0 0 0 .25-.266.43.43 0 0 0-.453-.406c-.14 0-.531.046-.89.375a1.585 1.585 0 0 0-.891-.282c-.781 0-1.36.547-1.36 1.172 0 .375.204.656.376.813a.934.934 0 0 0 .094 1.36c-.422.108-.75.421-.75.78 0 .579.828 1.032 1.874 1.032 1 0 1.875-.407 1.875-1.047 0-.422-.25-.766-.515-.89-.469-.25-.86-.25-1.64-.25Zm.5-.86c-.734 0-.734-.765-.734-.937 0-.297.03-.5.156-.656a.717.717 0 0 1 .578-.281c.734 0 .734.765.734.937 0 .297-.03.5-.156.656a.703.703 0 0 1-.578.282ZM2.25-.03c.219 0 1.266 0 1.266.64 0 .422-.61.797-1.407.797-.796 0-1.406-.375-1.406-.797 0-.171.14-.64.781-.64Zm0 0"/></symbol><symbol overflow="visible" id="o"><path style="stroke:none" d="M3.297-1.813c.172 0 .219 0 .219-.187 0-.703-.391-1.547-1.516-1.547-.984 0-1.766.813-1.766 1.797 0 1.031.86 1.828 1.875 1.828 1 0 1.407-.844 1.407-1.031a.12.12 0 0 0-.125-.11c-.094 0-.11.047-.125.094a1.14 1.14 0 0 1-1.11.797c-.36 0-.734-.156-.969-.531-.234-.36-.234-.875-.234-1.11ZM.953-2.03c.078-1.11.75-1.297 1.047-1.297.938 0 .969 1.125.969 1.297Zm0 0"/></symbol><symbol overflow="visible" id="p"><path style="stroke:none" d="M3.875-2.422c0-.656-.313-1.094-1.14-1.094a1.38 1.38 0 0 0-1.25.766v-.766l-1.157.094v.266c.547 0 .61.047.61.437v2.094c0 .36-.094.36-.61.36V0c.344-.031.688-.031.906-.031.235 0 .563 0 .907.031v-.266c-.5 0-.61 0-.61-.359v-1.438c0-.843.64-1.234 1.125-1.234s.61.344.61.844v1.828c0 .36-.094.36-.61.36V0c.344-.031.703-.031.906-.031.235 0 .579 0 .922.031v-.266c-.515 0-.609 0-.609-.359Zm0 0"/></symbol><symbol overflow="visible" id="q"><path style="stroke:none" d="M1.469-1.813c0-.609.25-1.468 1.015-1.484-.046.031-.14.094-.14.281 0 .25.203.36.36.36.187 0 .358-.125.358-.36 0-.28-.25-.5-.609-.5-.515 0-.875.391-1.031.844h-.016v-.844l-1.125.094v.266c.547 0 .61.047.61.437v2.094c0 .36-.11.36-.61.36V0c.313-.031.75-.031.938-.031.468 0 .484 0 1 .031v-.266h-.156c-.579 0-.594-.078-.594-.375Zm0 0"/></symbol><symbol overflow="visible" id="r"><path style="stroke:none" d="M3.344-2.375c0-.781-.75-1.172-1.485-1.172-.656 0-1.25.25-1.25.781a.36.36 0 0 0 .375.375c.235 0 .375-.156.375-.375 0-.187-.109-.328-.296-.359.296-.203.734-.203.78-.203.454 0 .891.312.891.969v.234c-.453.031-.984.047-1.546.281-.704.313-.844.766-.844 1.032 0 .687.812.89 1.36.89.577 0 .937-.328 1.124-.64.031.296.235.609.594.609.078 0 .75-.031.75-.766v-.437h-.25v.437c0 .328-.11.453-.281.453-.297 0-.297-.359-.297-.453Zm-.61 1.25c0 .781-.64.984-.968.984C1.359-.14 1-.42 1-.812c0-.516.5-1.063 1.734-1.094Zm0 0"/></symbol><symbol overflow="visible" id="s"><path style="stroke:none" d="M1.484-3.172h1.188v-.265H1.484v-1.47h-.25c0 .735-.328 1.485-1.078 1.516v.22h.719V-1c0 .938.719 1.078 1.078 1.078.547 0 .86-.469.86-1.078v-.438h-.25v.422c0 .547-.25.844-.547.844-.532 0-.532-.687-.532-.812Zm0 0"/></symbol><symbol overflow="visible" id="t"><path style="stroke:none" d="M3.984-1.703c0-.984-.828-1.844-1.875-1.844-1.046 0-1.875.86-1.875 1.844 0 1 .86 1.781 1.875 1.781 1.032 0 1.875-.781 1.875-1.781ZM2.11-.172c-.421 0-.765-.203-.937-.484C.97-.984.954-1.375.954-1.766c0-.312 0-.78.235-1.125.218-.28.546-.437.921-.437.422 0 .766.203.938.469.219.343.234.765.234 1.093 0 .36-.015.797-.25 1.141-.203.313-.562.453-.922.453Zm0 0"/></symbol><symbol overflow="visible" id="w"><path style="stroke:none" d="m1.516-5.531-1.188.093v.266c.547 0 .61.047.61.438v4.109c0 .36-.094.36-.61.36V0c.313-.031.766-.031.906-.031.157 0 .579 0 .891.031v-.266c-.5 0-.61 0-.61-.359Zm0 0"/></symbol><symbol overflow="visible" id="x"><path style="stroke:none" d="M1.547-4.906c0-.235-.172-.453-.438-.453a.437.437 0 0 0-.437.437.45.45 0 0 0 .437.453.436.436 0 0 0 .438-.437ZM.359-3.422v.266c.516 0 .579.047.579.437v2.094c0 .36-.094.36-.61.36V0c.313-.031.766-.031.89-.031.095 0 .579 0 .86.031v-.266c-.531 0-.562-.03-.562-.343v-2.907Zm0 0"/></symbol><symbol overflow="visible" id="y"><path style="stroke:none" d="M2.844-3.344c0-.125 0-.203-.11-.203-.046 0-.062 0-.187.125-.016 0-.094.078-.11.078-.015 0-.03 0-.078-.031-.125-.094-.359-.172-.718-.172-1.11 0-1.36.594-1.36.985 0 .39.297.624.313.656.328.234.5.265 1.047.36.375.077.984.187.984.718 0 .312-.203.687-.938.687C.875-.14.641-.766.548-1.187c-.031-.11-.047-.141-.14-.141-.126 0-.126.062-.126.219v.984c0 .125 0 .203.094.203.063 0 .063 0 .203-.156.047-.047.125-.14.172-.188.36.329.734.344.938.344 1.015 0 1.359-.578 1.359-1.11 0-.374-.219-.937-1.172-1.109a10.121 10.121 0 0 0-.547-.093c-.25-.063-.625-.235-.625-.547 0-.235.188-.578.938-.578.89 0 .937.656.953.875 0 .062.062.093.11.093.14 0 .14-.062.14-.203Zm0 0"/></symbol><symbol overflow="visible" id="J"><path style="stroke:none" d="M2.625-5.438v.266c.531 0 .61.047.61.438v1.687a1.409 1.409 0 0 0-1.079-.469c-1 0-1.875.782-1.875 1.797 0 .985.797 1.797 1.797 1.797.469 0 .86-.219 1.125-.5v.5L4.422 0v-.266c-.547 0-.61-.046-.61-.437v-4.828Zm.578 4.454c0 .14 0 .171-.125.328a1.146 1.146 0 0 1-.953.515c-.375 0-.688-.187-.875-.484-.219-.313-.266-.703-.266-1.078 0-.469.079-.797.266-1.063.188-.296.547-.53.953-.53.375 0 .766.202 1 .608Zm0 0"/></symbol><symbol overflow="visible" id="K"><path style="stroke:none" d="M2.938-3.156a.336.336 0 0 0-.266.344c0 .218.156.374.375.374s.375-.14.375-.39c0-.485-.531-.719-1.281-.719-1.11 0-1.86.875-1.86 1.828C.281-.703 1.11.078 2.11.078c1.125 0 1.407-.937 1.407-1.031 0-.094-.11-.094-.125-.094-.063 0-.094 0-.125.078a1.071 1.071 0 0 1-1.079.797C1.704-.172.984-.547.984-1.734c0-1.141.594-1.579 1.172-1.579.078 0 .5 0 .781.157Zm0 0"/></symbol><symbol overflow="visible" id="L"><path style="stroke:none" d="M6.219-2.422c0-.64-.282-1.094-1.14-1.094-.735 0-1.11.5-1.235.735-.14-.578-.594-.735-1.11-.735a1.37 1.37 0 0 0-1.25.766v-.766l-1.156.094v.266c.547 0 .61.047.61.437v2.094c0 .36-.094.36-.61.36V0c.344-.031.688-.031.906-.031.235 0 .563 0 .907.031v-.266c-.5 0-.61 0-.61-.359v-1.438c0-.843.64-1.234 1.14-1.234.517 0 .61.406.61.844v1.828c0 .36-.11.36-.61.36V0c.345-.031.688-.031.907-.031.235 0 .563 0 .906.031v-.266c-.515 0-.609 0-.609-.359v-1.438c0-.843.64-1.234 1.14-1.234.516 0 .61.406.61.844v1.828c0 .36-.11.36-.61.36V0c.344-.031.688-.031.907-.031.234 0 .562 0 .906.031v-.266c-.516 0-.61 0-.61-.359Zm0 0"/></symbol><symbol overflow="visible" id="v"><path style="stroke:none" d="M3.563-3.39c0-.735-.282-1.516-.97-1.516-1.046 0-2.155 1.875-2.155 3.468 0 .829.328 1.5.968 1.5 1.047 0 2.157-1.89 2.157-3.453Zm-2.344.843c.36-1.5.968-2.156 1.375-2.156.437 0 .437.766.437.89 0 .282-.047.688-.187 1.266Zm1.562.25c-.203.766-.36 1.14-.578 1.485-.203.359-.484.687-.797.687-.375 0-.437-.531-.437-.906 0-.453.125-1 .187-1.266Zm0 0"/></symbol><clipPath id="e"><path d="M148 61h31v30.79h-31Zm0 0"/></clipPath></defs><path style="stroke:none;fill-rule:nonzero;fill:#66b2b2;fill-opacity:1" d="M97.41 76.414c0-6.613-5.36-11.973-11.972-11.973-6.614 0-11.973 5.36-11.973 11.973s5.36 11.973 11.972 11.973c6.614 0 11.973-5.36 11.973-11.973Zm0 0"/><use xlink:href="#a" x="79.377" y="79.227" style="fill:#000;fill-opacity:1"/><use xlink:href="#b" x="79.546" y="79.227" style="fill:#000;fill-opacity:1"/><g style="fill:#000;fill-opacity:1"><use xlink:href="#c" x="84.178" y="80.721"/><use xlink:href="#d" x="86.433" y="80.721"/></g><g clip-path="url(#e)"><path style="stroke:none;fill-rule:nonzero;fill:#66b2b2;fill-opacity:1" d="M178.773 76.414c0-8.492-6.882-15.375-15.375-15.375-8.492 0-15.375 6.883-15.375 15.375s6.883 15.379 15.375 15.379c8.493 0 15.375-6.887 15.375-15.379Zm0 0"/></g><use xlink:href="#a" x="153.191" y="79.227" style="fill:#000;fill-opacity:1"/><use xlink:href="#f" x="153.321" y="79.227" style="fill:#000;fill-opacity:1"/><g style="fill:#000;fill-opacity:1"><use xlink:href="#g" x="159.018" y="80.721"/><use xlink:href="#h" x="161.488" y="80.721"/><use xlink:href="#i" x="165.46" y="80.721"/></g><use xlink:href="#j" x="169.429" y="80.721" style="fill:#000;fill-opacity:1"/><path style="fill:none;stroke-width:.79701;stroke-linecap:butt;stroke-linejoin:miter;stroke:#000;stroke-opacity:1;stroke-miterlimit:10" d="M12.37 0h49.11" transform="matrix(1 0 0 -1 85.438 76.415)"/><path style="fill:none;stroke-width:.6376;stroke-linecap:round;stroke-linejoin:round;stroke:#000;stroke-opacity:1;stroke-miterlimit:10" d="M-1.553 2.071C-1.424 1.294 0 .13.388.001.001-.128-1.424-1.296-1.553-2.073" transform="matrix(1 0 0 -1 146.917 76.415)"/><use xlink:href="#k" x="112.078" y="70.205" style="fill:#000;fill-opacity:1"/><use xlink:href="#l" x="119.912" y="70.205" style="fill:#000;fill-opacity:1"/><use xlink:href="#a" x="123.653" y="70.205" style="fill:#000;fill-opacity:1"/><use xlink:href="#f" x="123.783" y="70.205" style="fill:#000;fill-opacity:1"/><use xlink:href="#m" x="129.48" y="70.205" style="fill:#000;fill-opacity:1"/><g style="fill:#000;fill-opacity:1"><use xlink:href="#n" x="105.302" y="85.036"/><use xlink:href="#o" x="109.537" y="85.036"/><use xlink:href="#p" x="113.3" y="85.036"/><use xlink:href="#o" x="118.005" y="85.036"/><use xlink:href="#q" x="121.768" y="85.036"/><use xlink:href="#r" x="125.069" y="85.036"/><use xlink:href="#s" x="129.303" y="85.036"/><use xlink:href="#t" x="132.596" y="85.036"/><use xlink:href="#q" x="136.831" y="85.036"/></g><path style="fill:none;stroke-width:.79701;stroke-linecap:butt;stroke-linejoin:miter;stroke:#000;stroke-opacity:1;stroke-miterlimit:10" d="M-13.079 0h-71.96" transform="matrix(1 0 0 -1 85.438 76.415)"/><path style="fill:none;stroke-width:.6376;stroke-linecap:round;stroke-linejoin:round;stroke:#000;stroke-opacity:1;stroke-miterlimit:10" d="M-1.554 2.071C-1.425 1.294.001.13.387.001c-.386-.129-1.812-1.297-1.94-2.074" transform="matrix(1 0 0 -1 72.359 76.415)"/><use xlink:href="#u" x="25.562" y="70.205" style="fill:#000;fill-opacity:1"/><use xlink:href="#v" x="30.575" y="71.7" style="fill:#000;fill-opacity:1"/><use xlink:href="#l" x="35.082" y="70.205" style="fill:#000;fill-opacity:1"/><use xlink:href="#a" x="38.789" y="70.205" style="fill:#000;fill-opacity:1"/><use xlink:href="#b" x="38.958" y="70.205" style="fill:#000;fill-opacity:1"/><use xlink:href="#m" x="44.028" y="70.205" style="fill:#000;fill-opacity:1"/><g style="fill:#000;fill-opacity:1"><use xlink:href="#w" x="15.42" y="85.669"/><use xlink:href="#r" x="17.772" y="85.669"/><use xlink:href="#s" x="22.006" y="85.669"/><use xlink:href="#o" x="25.3" y="85.669"/><use xlink:href="#p" x="29.063" y="85.669"/></g><use xlink:href="#s" x="33.537" y="85.669" style="fill:#000;fill-opacity:1"/><g style="fill:#000;fill-opacity:1"><use xlink:href="#p" x="39.651" y="85.669"/><use xlink:href="#t" x="44.356" y="85.669"/><use xlink:href="#x" x="48.591" y="85.669"/><use xlink:href="#y" x="50.943" y="85.669"/><use xlink:href="#o" x="54.283" y="85.669"/></g><path style="stroke:none;fill-rule:nonzero;fill:#66b2b2;fill-opacity:1" d="M178.293 17c0-8.227-6.668-14.895-14.895-14.895-8.226 0-14.894 6.668-14.894 14.895s6.668 14.895 14.894 14.895c8.227 0 14.895-6.668 14.895-14.895Zm0 0"/><use xlink:href="#a" x="153.727" y="19.813" style="fill:#000;fill-opacity:1"/><use xlink:href="#f" x="153.857" y="19.813" style="fill:#000;fill-opacity:1"/><g style="fill:#000;fill-opacity:1"><use xlink:href="#z" x="159.554" y="21.308"/><use xlink:href="#j" x="162.667" y="21.308"/><use xlink:href="#h" x="166.209" y="21.308"/><use xlink:href="#A" x="170.181" y="21.308"/></g><path style="fill:none;stroke-width:.79701;stroke-linecap:butt;stroke-linejoin:miter;stroke:#000;stroke-opacity:1;stroke-miterlimit:10" d="M61.96 59.415H-7.079" transform="matrix(1 0 0 -1 85.438 76.415)"/><path style="fill:none;stroke-width:.6376;stroke-linecap:round;stroke-linejoin:round;stroke:#000;stroke-opacity:1;stroke-miterlimit:10" d="M-1.555 2.071C-1.426 1.294 0 .13.39.001 0-.128-1.426-1.296-1.555-2.073" transform="matrix(1 0 0 -1 147.399 17.001)"/><use xlink:href="#u" x="96.027" y="10.792" style="fill:#000;fill-opacity:1"/><g style="fill:#000;fill-opacity:1"><use xlink:href="#B" x="101.039" y="12.286"/><use xlink:href="#h" x="105.439" y="12.286"/><use xlink:href="#C" x="109.411" y="12.286"/><use xlink:href="#h" x="112.524" y="12.286"/></g><use xlink:href="#l" x="116.994" y="10.792" style="fill:#000;fill-opacity:1"/><use xlink:href="#a" x="120.735" y="10.792" style="fill:#000;fill-opacity:1"/><use xlink:href="#f" x="120.865" y="10.792" style="fill:#000;fill-opacity:1"/><use xlink:href="#m" x="126.562" y="10.792" style="fill:#000;fill-opacity:1"/><path style="stroke:none;fill-rule:nonzero;fill:#66b2b2;fill-opacity:1" d="M242.016 46.707c0-5.09-4.13-9.219-9.223-9.219-5.09 0-9.219 4.13-9.219 9.219 0 5.094 4.13 9.223 9.219 9.223a9.222 9.222 0 0 0 9.223-9.223Zm0 0"/><use xlink:href="#a" x="229.812" y="50.267" style="fill:#000;fill-opacity:1"/><use xlink:href="#f" x="229.942" y="50.267" style="fill:#000;fill-opacity:1"/><g style="fill:#000;fill-opacity:1"><use xlink:href="#D" x="315.869" y="50.168"/><use xlink:href="#E" x="319.771" y="50.168"/><use xlink:href="#F" x="324.199" y="50.168"/><use xlink:href="#G" x="329.18" y="50.168"/><use xlink:href="#H" x="331.948" y="50.168"/></g><path style="fill:none;stroke-width:.79701;stroke-linecap:butt;stroke-linejoin:miter;stroke:#000;stroke-opacity:1;stroke-miterlimit:10" d="M156.976 29.708h69.031" transform="matrix(1 0 0 -1 85.438 76.415)"/><path style="fill:none;stroke-width:.6376;stroke-linecap:round;stroke-linejoin:round;stroke:#000;stroke-opacity:1;stroke-miterlimit:10" d="M-1.555 2.071C-1.426 1.294-.001.13.39.001 0-.128-1.426-1.296-1.555-2.073" transform="matrix(1 0 0 -1 311.446 46.708)"/><use xlink:href="#I" x="266.297" y="40.499" style="fill:#000;fill-opacity:1"/><use xlink:href="#l" x="274.822" y="40.499" style="fill:#000;fill-opacity:1"/><use xlink:href="#a" x="278.563" y="40.499" style="fill:#000;fill-opacity:1"/><use xlink:href="#f" x="278.693" y="40.499" style="fill:#000;fill-opacity:1"/><use xlink:href="#m" x="284.39" y="40.499" style="fill:#000;fill-opacity:1"/><g style="fill:#000;fill-opacity:1"><use xlink:href="#J" x="252.786" y="55.962"/><use xlink:href="#x" x="257.491" y="55.962"/><use xlink:href="#y" x="259.843" y="55.962"/><use xlink:href="#K" x="263.183" y="55.962"/><use xlink:href="#q" x="266.946" y="55.962"/><use xlink:href="#x" x="270.247" y="55.962"/><use xlink:href="#L" x="272.599" y="55.962"/><use xlink:href="#x" x="279.656" y="55.962"/><use xlink:href="#p" x="282.008" y="55.962"/><use xlink:href="#r" x="286.712" y="55.962"/><use xlink:href="#s" x="290.947" y="55.962"/><use xlink:href="#t" x="294.24" y="55.962"/><use xlink:href="#q" x="298.475" y="55.962"/></g><path style="stroke:none;fill-rule:nonzero;fill:#000;fill-opacity:1" d="M208.707 76.414a2.112 2.112 0 1 0-2.113 2.113 2.115 2.115 0 0 0 2.113-2.113ZM208.223 17a2.112 2.112 0 1 0-4.227 0 2.112 2.112 0 1 0 4.227 0Zm0 0"/><path style="fill:none;stroke-width:.79701;stroke-linecap:butt;stroke-linejoin:miter;stroke:#000;stroke-opacity:1;stroke-dasharray:2.98883,2.98883;stroke-miterlimit:10" d="M119.882 2.165c-10.93 18.582-11.074 36.309-.449 55.063" transform="matrix(1 0 0 -1 85.438 76.415)"/><path style="stroke:none;fill-rule:nonzero;fill:#ff8000;fill-opacity:1" d="M202.227 35.84a4.01 4.01 0 0 0-8.02 0 4.01 4.01 0 0 0 8.02 0Zm0 0"/><path style="fill:none;stroke-width:.79701;stroke-linecap:butt;stroke-linejoin:miter;stroke:#000;stroke-opacity:1;stroke-miterlimit:10" d="M93.734 0h24.906M93.253 59.416h24.907m-1.176-20.16 20.523-6.453" transform="matrix(1 0 0 -1 85.438 76.415)"/><path style="fill:none;stroke-width:.6376;stroke-linecap:round;stroke-linejoin:round;stroke:#000;stroke-opacity:1;stroke-miterlimit:10" d="M-1.555 2.073C-1.425 1.295 0 .13.39.003 0-.129-1.425-1.298-1.555-2.072" transform="matrix(.95393 .29984 .29984 -.95393 222.944 43.612)"/></svg>