<svg xmlns="http://www.w3.org/2000/svg" xmlns:xlink="http://www.w3.org/1999/xlink" width="208.828" height="148.231" viewBox="0 0 156.621 111.173"><defs><clipPath id="i"><path d="M67 62.355h2.738V63H67Zm0 0"/></clipPath><clipPath id="j"><path d="M81.957 55.586a7.085 7.085 0 0 0-7.086-7.086 7.085 7.085 0 0 0-7.086 7.086 7.085 7.085 0 0 0 7.086 7.086 7.085 7.085 0 0 0 7.086-7.086Zm0 0"/></clipPath><clipPath id="k"><path d="M67.746 62.355h4.98V63h-4.98Zm0 0"/></clipPath><clipPath id="l"><path d="M81.957 55.586a7.085 7.085 0 0 0-7.086-7.086 7.085 7.085 0 0 0-7.086 7.086 7.085 7.085 0 0 0 7.086 7.086 7.085 7.085 0 0 0 7.086-7.086Zm0 0"/></clipPath><clipPath id="m"><path d="M70.734 62.355h4.985V63h-4.985Zm0 0"/></clipPath><clipPath id="n"><path d="M81.957 55.586a7.085 7.085 0 0 0-7.086-7.086 7.085 7.085 0 0 0-7.086 7.086 7.085 7.085 0 0 0 7.086 7.086 7.085 7.085 0 0 0 7.086-7.086Zm0 0"/></clipPath><clipPath id="o"><path d="M73.723 62.355h4.984V63h-4.984Zm0 0"/></clipPath><clipPath id="p"><path d="M81.957 55.586a7.085 7.085 0 0 0-7.086-7.086 7.085 7.085 0 0 0-7.086 7.086 7.085 7.085 0 0 0 7.086 7.086 7.085 7.085 0 0 0 7.086-7.086Zm0 0"/></clipPath><clipPath id="q"><path d="M76.715 62.355h4.98V63h-4.98Zm0 0"/></clipPath><clipPath id="r"><path d="M81.957 55.586a7.085 7.085 0 0 0-7.086-7.086 7.085 7.085 0 0 0-7.086 7.086 7.085 7.085 0 0 0 7.086 7.086 7.085 7.085 0 0 0 7.086-7.086Zm0 0"/></clipPath><clipPath id="s"><path d="M79.703 62.355H82V63h-2.297Zm0 0"/></clipPath><clipPath id="t"><path d="M81.957 55.586a7.085 7.085 0 0 0-7.086-7.086 7.085 7.085 0 0 0-7.086 7.086 7.085 7.085 0 0 0 7.086 7.086 7.085 7.085 0 0 0 7.086-7.086Zm0 0"/></clipPath><clipPath id="u"><path d="M67 59.367h2.738V63H67Zm0 0"/></clipPath><clipPath id="v"><path d="M81.957 55.586a7.085 7.085 0 0 0-7.086-7.086 7.085 7.085 0 0 0-7.086 7.086 7.085 7.085 0 0 0 7.086 7.086 7.085 7.085 0 0 0 7.086-7.086Zm0 0"/></clipPath><clipPath id="w"><path d="M67.746 59.367h4.98V63h-4.98Zm0 0"/></clipPath><clipPath id="x"><path d="M81.957 55.586a7.085 7.085 0 0 0-7.086-7.086 7.085 7.085 0 0 0-7.086 7.086 7.085 7.085 0 0 0 7.086 7.086 7.085 7.085 0 0 0 7.086-7.086Zm0 0"/></clipPath><clipPath id="y"><path d="M70.734 59.367h4.985V63h-4.985Zm0 0"/></clipPath><clipPath id="z"><path d="M81.957 55.586a7.085 7.085 0 0 0-7.086-7.086 7.085 7.085 0 0 0-7.086 7.086 7.085 7.085 0 0 0 7.086 7.086 7.085 7.085 0 0 0 7.086-7.086Zm0 0"/></clipPath><clipPath id="A"><path d="M73.723 59.367h4.984V63h-4.984Zm0 0"/></clipPath><clipPath id="B"><path d="M81.957 55.586a7.085 7.085 0 0 0-7.086-7.086 7.085 7.085 0 0 0-7.086 7.086 7.085 7.085 0 0 0 7.086 7.086 7.085 7.085 0 0 0 7.086-7.086Zm0 0"/></clipPath><clipPath id="C"><path d="M76.715 59.367h4.98V63h-4.98Zm0 0"/></clipPath><clipPath id="D"><path d="M81.957 55.586a7.085 7.085 0 0 0-7.086-7.086 7.085 7.085 0 0 0-7.086 7.086 7.085 7.085 0 0 0 7.086 7.086 7.085 7.085 0 0 0 7.086-7.086Zm0 0"/></clipPath><clipPath id="E"><path d="M79.703 59.367H82V63h-2.297Zm0 0"/></clipPath><clipPath id="F"><path d="M81.957 55.586a7.085 7.085 0 0 0-7.086-7.086 7.085 7.085 0 0 0-7.086 7.086 7.085 7.085 0 0 0 7.086 7.086 7.085 7.085 0 0 0 7.086-7.086Zm0 0"/></clipPath><clipPath id="G"><path d="M67 56.379h2.738v4.98H67Zm0 0"/></clipPath><clipPath id="H"><path d="M81.957 55.586a7.085 7.085 0 0 0-7.086-7.086 7.085 7.085 0 0 0-7.086 7.086 7.085 7.085 0 0 0 7.086 7.086 7.085 7.085 0 0 0 7.086-7.086Zm0 0"/></clipPath><clipPath id="I"><path d="M67.746 56.379h4.98v4.98h-4.98Zm0 0"/></clipPath><clipPath id="J"><path d="M81.957 55.586a7.085 7.085 0 0 0-7.086-7.086 7.085 7.085 0 0 0-7.086 7.086 7.085 7.085 0 0 0 7.086 7.086 7.085 7.085 0 0 0 7.086-7.086Zm0 0"/></clipPath><clipPath id="K"><path d="M70.734 56.379h4.985v4.98h-4.985Zm0 0"/></clipPath><clipPath id="L"><path d="M81.957 55.586a7.085 7.085 0 0 0-7.086-7.086 7.085 7.085 0 0 0-7.086 7.086 7.085 7.085 0 0 0 7.086 7.086 7.085 7.085 0 0 0 7.086-7.086Zm0 0"/></clipPath><clipPath id="M"><path d="M73.723 56.379h4.984v4.98h-4.984Zm0 0"/></clipPath><clipPath id="N"><path d="M81.957 55.586a7.085 7.085 0 0 0-7.086-7.086 7.085 7.085 0 0 0-7.086 7.086 7.085 7.085 0 0 0 7.086 7.086 7.085 7.085 0 0 0 7.086-7.086Zm0 0"/></clipPath><clipPath id="O"><path d="M76.715 56.379h4.98v4.98h-4.98Zm0 0"/></clipPath><clipPath id="P"><path d="M81.957 55.586a7.085 7.085 0 0 0-7.086-7.086 7.085 7.085 0 0 0-7.086 7.086 7.085 7.085 0 0 0 7.086 7.086 7.085 7.085 0 0 0 7.086-7.086Zm0 0"/></clipPath><clipPath id="Q"><path d="M79.703 56.379H82v4.98h-2.297Zm0 0"/></clipPath><clipPath id="R"><path d="M81.957 55.586a7.085 7.085 0 0 0-7.086-7.086 7.085 7.085 0 0 0-7.086 7.086 7.085 7.085 0 0 0 7.086 7.086 7.085 7.085 0 0 0 7.086-7.086Zm0 0"/></clipPath><clipPath id="S"><path d="M67 53.39h2.738v4.981H67Zm0 0"/></clipPath><clipPath id="T"><path d="M81.957 55.586a7.085 7.085 0 0 0-7.086-7.086 7.085 7.085 0 0 0-7.086 7.086 7.085 7.085 0 0 0 7.086 7.086 7.085 7.085 0 0 0 7.086-7.086Zm0 0"/></clipPath><clipPath id="U"><path d="M67.746 53.39h4.98v4.981h-4.98Zm0 0"/></clipPath><clipPath id="V"><path d="M81.957 55.586a7.085 7.085 0 0 0-7.086-7.086 7.085 7.085 0 0 0-7.086 7.086 7.085 7.085 0 0 0 7.086 7.086 7.085 7.085 0 0 0 7.086-7.086Zm0 0"/></clipPath><clipPath id="W"><path d="M70.734 53.39h4.985v4.981h-4.985Zm0 0"/></clipPath><clipPath id="X"><path d="M81.957 55.586a7.085 7.085 0 0 0-7.086-7.086 7.085 7.085 0 0 0-7.086 7.086 7.085 7.085 0 0 0 7.086 7.086 7.085 7.085 0 0 0 7.086-7.086Zm0 0"/></clipPath><clipPath id="Y"><path d="M73.723 53.39h4.984v4.981h-4.984Zm0 0"/></clipPath><clipPath id="Z"><path d="M81.957 55.586a7.085 7.085 0 0 0-7.086-7.086 7.085 7.085 0 0 0-7.086 7.086 7.085 7.085 0 0 0 7.086 7.086 7.085 7.085 0 0 0 7.086-7.086Zm0 0"/></clipPath><clipPath id="aa"><path d="M76.715 53.39h4.98v4.981h-4.98Zm0 0"/></clipPath><clipPath id="ab"><path d="M81.957 55.586a7.085 7.085 0 0 0-7.086-7.086 7.085 7.085 0 0 0-7.086 7.086 7.085 7.085 0 0 0 7.086 7.086 7.085 7.085 0 0 0 7.086-7.086Zm0 0"/></clipPath><clipPath id="ac"><path d="M79.703 53.39H82v4.981h-2.297Zm0 0"/></clipPath><clipPath id="ad"><path d="M81.957 55.586a7.085 7.085 0 0 0-7.086-7.086 7.085 7.085 0 0 0-7.086 7.086 7.085 7.085 0 0 0 7.086 7.086 7.085 7.085 0 0 0 7.086-7.086Zm0 0"/></clipPath><clipPath id="ae"><path d="M67 50.398h2.738v4.985H67Zm0 0"/></clipPath><clipPath id="af"><path d="M81.957 55.586a7.085 7.085 0 0 0-7.086-7.086 7.085 7.085 0 0 0-7.086 7.086 7.085 7.085 0 0 0 7.086 7.086 7.085 7.085 0 0 0 7.086-7.086Zm0 0"/></clipPath><clipPath id="ag"><path d="M67.746 50.398h4.98v4.985h-4.98Zm0 0"/></clipPath><clipPath id="ah"><path d="M81.957 55.586a7.085 7.085 0 0 0-7.086-7.086 7.085 7.085 0 0 0-7.086 7.086 7.085 7.085 0 0 0 7.086 7.086 7.085 7.085 0 0 0 7.086-7.086Zm0 0"/></clipPath><clipPath id="ai"><path d="M70.734 50.398h4.985v4.985h-4.985Zm0 0"/></clipPath><clipPath id="aj"><path d="M81.957 55.586a7.085 7.085 0 0 0-7.086-7.086 7.085 7.085 0 0 0-7.086 7.086 7.085 7.085 0 0 0 7.086 7.086 7.085 7.085 0 0 0 7.086-7.086Zm0 0"/></clipPath><clipPath id="ak"><path d="M73.723 50.398h4.984v4.985h-4.984Zm0 0"/></clipPath><clipPath id="al"><path d="M81.957 55.586a7.085 7.085 0 0 0-7.086-7.086 7.085 7.085 0 0 0-7.086 7.086 7.085 7.085 0 0 0 7.086 7.086 7.085 7.085 0 0 0 7.086-7.086Zm0 0"/></clipPath><clipPath id="am"><path d="M76.715 50.398h4.98v4.985h-4.98Zm0 0"/></clipPath><clipPath id="an"><path d="M81.957 55.586a7.085 7.085 0 0 0-7.086-7.086 7.085 7.085 0 0 0-7.086 7.086 7.085 7.085 0 0 0 7.086 7.086 7.085 7.085 0 0 0 7.086-7.086Zm0 0"/></clipPath><clipPath id="ao"><path d="M79.703 50.398H82v4.985h-2.297Zm0 0"/></clipPath><clipPath id="ap"><path d="M81.957 55.586a7.085 7.085 0 0 0-7.086-7.086 7.085 7.085 0 0 0-7.086 7.086 7.085 7.085 0 0 0 7.086 7.086 7.085 7.085 0 0 0 7.086-7.086Zm0 0"/></clipPath><clipPath id="aq"><path d="M67 48h2.738v4.395H67Zm0 0"/></clipPath><clipPath id="ar"><path d="M81.957 55.586a7.085 7.085 0 0 0-7.086-7.086 7.085 7.085 0 0 0-7.086 7.086 7.085 7.085 0 0 0 7.086 7.086 7.085 7.085 0 0 0 7.086-7.086Zm0 0"/></clipPath><clipPath id="as"><path d="M67.746 48h4.98v4.395h-4.98Zm0 0"/></clipPath><clipPath id="at"><path d="M81.957 55.586a7.085 7.085 0 0 0-7.086-7.086 7.085 7.085 0 0 0-7.086 7.086 7.085 7.085 0 0 0 7.086 7.086 7.085 7.085 0 0 0 7.086-7.086Zm0 0"/></clipPath><clipPath id="au"><path d="M70.734 48h4.985v4.395h-4.985Zm0 0"/></clipPath><clipPath id="av"><path d="M81.957 55.586a7.085 7.085 0 0 0-7.086-7.086 7.085 7.085 0 0 0-7.086 7.086 7.085 7.085 0 0 0 7.086 7.086 7.085 7.085 0 0 0 7.086-7.086Zm0 0"/></clipPath><clipPath id="aw"><path d="M73.723 48h4.984v4.395h-4.984Zm0 0"/></clipPath><clipPath id="ax"><path d="M81.957 55.586a7.085 7.085 0 0 0-7.086-7.086 7.085 7.085 0 0 0-7.086 7.086 7.085 7.085 0 0 0 7.086 7.086 7.085 7.085 0 0 0 7.086-7.086Zm0 0"/></clipPath><clipPath id="ay"><path d="M76.715 48h4.98v4.395h-4.98Zm0 0"/></clipPath><clipPath id="az"><path d="M81.957 55.586a7.085 7.085 0 0 0-7.086-7.086 7.085 7.085 0 0 0-7.086 7.086 7.085 7.085 0 0 0 7.086 7.086 7.085 7.085 0 0 0 7.086-7.086Zm0 0"/></clipPath><clipPath id="aA"><path d="M79.703 48H82v4.395h-2.297Zm0 0"/></clipPath><clipPath id="aB"><path d="M81.957 55.586a7.085 7.085 0 0 0-7.086-7.086 7.085 7.085 0 0 0-7.086 7.086 7.085 7.085 0 0 0 7.086 7.086 7.085 7.085 0 0 0 7.086-7.086Zm0 0"/></clipPath><clipPath id="aC"><path d="M67 48h2.738v1.402H67Zm0 0"/></clipPath><clipPath id="aD"><path d="M81.957 55.586a7.085 7.085 0 0 0-7.086-7.086 7.085 7.085 0 0 0-7.086 7.086 7.085 7.085 0 0 0 7.086 7.086 7.085 7.085 0 0 0 7.086-7.086Zm0 0"/></clipPath><clipPath id="aE"><path d="M67.746 48h4.98v1.402h-4.98Zm0 0"/></clipPath><clipPath id="aF"><path d="M81.957 55.586a7.085 7.085 0 0 0-7.086-7.086 7.085 7.085 0 0 0-7.086 7.086 7.085 7.085 0 0 0 7.086 7.086 7.085 7.085 0 0 0 7.086-7.086Zm0 0"/></clipPath><clipPath id="aG"><path d="M70.734 48h4.985v1.402h-4.985Zm0 0"/></clipPath><clipPath id="aH"><path d="M81.957 55.586a7.085 7.085 0 0 0-7.086-7.086 7.085 7.085 0 0 0-7.086 7.086 7.085 7.085 0 0 0 7.086 7.086 7.085 7.085 0 0 0 7.086-7.086Zm0 0"/></clipPath><clipPath id="aI"><path d="M73.723 48h4.984v1.402h-4.984Zm0 0"/></clipPath><clipPath id="aJ"><path d="M81.957 55.586a7.085 7.085 0 0 0-7.086-7.086 7.085 7.085 0 0 0-7.086 7.086 7.085 7.085 0 0 0 7.086 7.086 7.085 7.085 0 0 0 7.086-7.086Zm0 0"/></clipPath><clipPath id="aK"><path d="M76.715 48h4.98v1.402h-4.98Zm0 0"/></clipPath><clipPath id="aL"><path d="M81.957 55.586a7.085 7.085 0 0 0-7.086-7.086 7.085 7.085 0 0 0-7.086 7.086 7.085 7.085 0 0 0 7.086 7.086 7.085 7.085 0 0 0 7.086-7.086Zm0 0"/></clipPath><clipPath id="aM"><path d="M79.703 48H82v1.402h-2.297Zm0 0"/></clipPath><clipPath id="aN"><path d="M81.957 55.586a7.085 7.085 0 0 0-7.086-7.086 7.085 7.085 0 0 0-7.086 7.086 7.085 7.085 0 0 0 7.086 7.086 7.085 7.085 0 0 0 7.086-7.086Zm0 0"/></clipPath><symbol overflow="visible" id="a"><path style="stroke:none" d="M1.688 1.688c-.032.14-.047.156-.047.203 0 .218.187.28.296.28a.413.413 0 0 0 .36-.265c.031-.078.078-.406.36-1.812.077 0 .155.015.327.015 1.657 0 3.188-1.562 3.188-3.14 0-.781-.39-1.375-1.14-1.375-1.438 0-2.048 1.937-2.641 3.875C1.312-.734.75-1.281.75-2c0-.281.234-1.375.828-2.063.094-.093.094-.109.094-.14 0-.031-.031-.094-.125-.094C1.266-4.297.5-2.844.5-1.89c0 .938.656 1.657 1.719 1.907ZM3.077-.47c-.094 0-.11 0-.187-.015-.125 0-.125 0-.125-.032 0-.015.171-.937.187-1.078.313-1.281 1.094-2.234 1.985-2.234.687 0 .953.531.953 1.015C5.89-1.688 4.608-.47 3.077-.47Zm0 0"/></symbol><symbol overflow="visible" id="e"><path style="stroke:none" d="M.453 1.219c-.078.343-.11.406-.547.406-.11 0-.218 0-.218.188 0 .078.046.125.124.125.266 0 .563-.032.829-.032.343 0 .671.032 1 .032.046 0 .171 0 .171-.204 0-.109-.093-.109-.234-.109-.5 0-.5-.063-.5-.156 0-.125.422-1.75.484-2 .125.297.407.64.922.64 1.157 0 2.407-1.453 2.407-2.921 0-.938-.579-1.594-1.329-1.594-.5 0-.984.36-1.312.75-.094-.547-.531-.75-.89-.75-.47 0-.657.39-.735.562-.188.344-.313.938-.313.969 0 .11.094.11.11.11.11 0 .11-.016.172-.235.172-.703.375-1.188.734-1.188.172 0 .313.079.313.454 0 .234-.032.343-.079.515Zm1.75-4.328c.063-.266.344-.547.516-.704.36-.296.64-.374.812-.374.39 0 .64.343.64.937 0 .594-.327 1.734-.515 2.11-.344.702-.812 1.03-1.187 1.03-.656 0-.781-.828-.781-.89 0-.016 0-.031.03-.156Zm0 0"/></symbol><symbol overflow="visible" id="aU"><path style="stroke:none" d="M2.031-.016c0-.656-.25-1.046-.64-1.046a.517.517 0 0 0-.532.53c0 .266.204.532.532.532a.58.58 0 0 0 .343-.125c.032-.031.047-.031.047-.031.016 0 .016 0 .016.14 0 .75-.344 1.344-.672 1.672-.11.11-.11.125-.11.157 0 .078.048.109.094.109.11 0 .922-.766.922-1.938Zm0 0"/></symbol><symbol overflow="visible" id="b"><path style="stroke:none" d="M2.938-2.656c-.141-.235-.376-.422-.72-.422-.89 0-1.796.984-1.796 1.984C.422-.406.875.063 1.484.063c.375 0 .704-.204.985-.485.125.422.531.484.719.484.25 0 .421-.14.546-.359.157-.281.25-.672.25-.703 0-.094-.093-.094-.109-.094-.11 0-.11.032-.156.219-.094.344-.219.75-.516.75-.172 0-.234-.156-.234-.344 0-.11.062-.375.11-.547.046-.187.124-.468.155-.625l.141-.53c.047-.188.125-.517.125-.548 0-.156-.125-.219-.234-.219-.125 0-.282.079-.329.282ZM2.5-.875c-.047.203-.203.344-.36.469-.062.062-.343.281-.64.281-.266 0-.516-.188-.516-.672 0-.375.204-1.14.375-1.422.313-.562.672-.656.86-.656.484 0 .625.531.625.61 0 .015-.016.078-.016.093Zm0 0"/></symbol><symbol overflow="visible" id="c"><path style="stroke:none" d="M1.844-4.625c0-.016.031-.11.031-.11 0-.046-.031-.109-.125-.109-.14 0-.719.063-.89.078-.047 0-.157.016-.157.157 0 .093.11.093.188.093.328 0 .328.063.328.11s-.063.328-.11.484l-.156.64C.891-3.031.516-1.515.5-1.421c-.047.172-.047.266-.047.344 0 .703.453 1.14 1.031 1.14.875 0 1.797-.937 1.797-1.968 0-.813-.562-1.172-1.047-1.172-.359 0-.671.203-.875.39Zm-.36 4.5c-.328 0-.53-.297-.53-.719 0-.25.062-.484.265-1.281.031-.125.031-.14.172-.297.265-.297.578-.453.828-.453.265 0 .5.203.5.672 0 .281-.14 1-.36 1.406-.171.344-.515.672-.875.672Zm0 0"/></symbol><symbol overflow="visible" id="d"><path style="stroke:none" d="M3.047-2.672c-.25.047-.344.235-.344.39 0 .188.14.266.266.266.156 0 .39-.109.39-.453 0-.469-.53-.61-.906-.61-1.047 0-2.015.97-2.015 1.938 0 .594.406 1.204 1.28 1.204 1.188 0 1.735-.688 1.735-.782 0-.047-.062-.125-.125-.125-.031 0-.047.016-.11.078-.546.641-1.359.641-1.484.641-.5 0-.718-.344-.718-.781 0-.188.093-.953.453-1.438.265-.344.625-.531.984-.531.094 0 .422.016.594.203Zm0 0"/></symbol><symbol overflow="visible" id="aR"><path style="stroke:none" d="M2.188-4.625c0-.016.015-.11.015-.11 0-.046-.015-.109-.11-.109-.14 0-.718.063-.89.078-.047 0-.156.016-.156.157 0 .093.11.093.187.093.329 0 .329.063.329.11s-.016.093-.016.156L.563-.312c-.047.124-.047.14-.047.156 0 .11.093.218.25.218.187 0 .265-.124.312-.28.016-.032.313-1.266.344-1.36.5.047.89.219.89.578 0 .031 0 .063-.015.14-.031.094-.031.141-.031.22 0 .484.406.703.75.703.671 0 .875-1.047.875-1.063 0-.094-.079-.094-.11-.094-.094 0-.11.047-.14.172-.079.297-.266.797-.61.797-.187 0-.25-.172-.25-.36 0-.124 0-.14.047-.312a.724.724 0 0 0 .031-.219c0-.625-.828-.718-1.125-.734.204-.125.454-.36.579-.469.359-.328.703-.656 1.093-.656.078 0 .172.016.235.094a.396.396 0 0 0-.36.39c0 .141.11.25.266.25.203 0 .406-.156.406-.437a.5.5 0 0 0-.531-.5c-.406 0-.766.297-1.125.625-.297.265-.516.484-.813.61Zm0 0"/></symbol><symbol overflow="visible" id="aS"><path style="stroke:none" d="M1.469-.11c0 .376-.063.829-.547 1.266-.016.032-.047.063-.047.094 0 .047.063.094.094.094.11 0 .703-.563.703-1.39 0-.423-.172-.75-.5-.75a.387.387 0 0 0-.39.39c0 .219.155.406.405.406.172 0 .282-.11.282-.11Zm0 0"/></symbol><symbol overflow="visible" id="f"><path style="stroke:none" d="M2.328-4.438c0-.187 0-.187-.203-.187-.453.438-1.078.438-1.36.438v.25c.157 0 .626 0 1-.188v3.547c0 .234 0 .328-.687.328H.812V0c.125 0 .985-.031 1.235-.031.219 0 1.094.031 1.25.031v-.25H3.03c-.703 0-.703-.094-.703-.328Zm0 0"/></symbol><symbol overflow="visible" id="g"><path style="stroke:none" d="M3.516-1.266H3.28c-.015.157-.094.563-.187.625-.047.047-.578.047-.688.047h-1.28c.734-.64.984-.844 1.39-1.172.516-.406 1-.843 1-1.5 0-.843-.734-1.359-1.624-1.359-.86 0-1.454.61-1.454 1.25 0 .344.297.39.376.39a.365.365 0 0 0 .359-.374c0-.125-.047-.375-.406-.375.218-.485.687-.641 1.015-.641.703 0 1.063.547 1.063 1.11 0 .609-.438 1.078-.656 1.328L.516-.266C.437-.203.437-.187.437 0h2.876Zm0 0"/></symbol><symbol overflow="visible" id="h"><path style="stroke:none" d="M1.906-2.328c.547 0 .938.375.938 1.125 0 .86-.516 1.125-.906 1.125-.282 0-.907-.078-1.188-.5.328 0 .406-.235.406-.39 0-.22-.172-.376-.39-.376a.38.38 0 0 0-.391.407C.375-.281 1.094.14 1.938.14c.968 0 1.64-.657 1.64-1.344 0-.547-.437-1.094-1.203-1.25.719-.266.984-.781.984-1.219 0-.547-.625-.953-1.406-.953-.766 0-1.36.375-1.36.938 0 .234.157.359.36.359.219 0 .36-.156.36-.344 0-.203-.141-.36-.36-.375.25-.297.719-.375.985-.375.312 0 .75.156.75.75 0 .297-.094.625-.282.828-.219.266-.422.281-.765.313-.172.015-.188.015-.22.015-.015 0-.077.016-.077.094 0 .094.062.094.187.094Zm0 0"/></symbol><symbol overflow="visible" id="aP"><path style="stroke:none" d="M2.469-5.219C1.156-4.297.797-2.812.797-1.75c0 .984.297 2.516 1.672 3.484.062 0 .14 0 .14-.078 0-.047-.015-.062-.062-.11C1.609.704 1.28-.468 1.28-1.733c0-1.891.719-2.813 1.282-3.329.03-.03.046-.046.046-.078 0-.078-.078-.078-.14-.078Zm0 0"/></symbol><symbol overflow="visible" id="aQ"><path style="stroke:none" d="M.625-5.219c-.047 0-.125 0-.125.078 0 .032.016.047.063.11.593.547 1.265 1.484 1.265 3.281 0 1.453-.453 2.563-1.203 3.234C.5 1.61.5 1.61.5 1.656c0 .032.016.078.078.078.094 0 .75-.453 1.219-1.328.297-.578.5-1.328.5-2.14C2.297-2.72 2-4.25.625-5.22Zm0 0"/></symbol><symbol overflow="visible" id="aO"><path style="stroke:none" d="M5.516-6.781H.328v.312h.234c.766 0 .797.11.797.469v5.219c0 .36-.03.469-.796.469H.328V0c.344-.031 1.125-.031 1.516-.031.406 0 1.312 0 1.672.031v-.313h-.329c-.937 0-.937-.124-.937-.468v-5.297c0-.328.016-.39.484-.39h1.032c1.421 0 1.625.593 1.78 1.937h.25Zm0 0"/></symbol><symbol overflow="visible" id="aT"><path style="stroke:none" d="M3.297 2.39c0-.03 0-.046-.172-.218C1.891.922 1.562-.968 1.562-2.5c0-1.734.375-3.469 1.61-4.703.125-.125.125-.14.125-.172 0-.078-.031-.11-.094-.11-.11 0-1 .688-1.594 1.954C1.11-4.438.984-3.328.984-2.5c0 .781.11 1.984.657 3.125C2.25 1.844 3.094 2.5 3.203 2.5c.063 0 .094-.031.094-.11Zm0 0"/></symbol><symbol overflow="visible" id="aV"><path style="stroke:none" d="M2.875-2.5c0-.766-.11-1.969-.656-3.11C1.625-6.827.766-7.483.672-7.483a.107.107 0 0 0-.11.109c0 .031 0 .047.188.234.984.985 1.547 2.563 1.547 4.641C2.297-.78 1.937.97.703 2.22c-.14.125-.14.14-.14.172 0 .062.046.109.109.109.094 0 1-.688 1.578-1.953.516-1.094.625-2.203.625-3.047Zm0 0"/></symbol></defs><path style="fill:none;stroke-width:.3985;stroke-linecap:butt;stroke-linejoin:miter;stroke:#000;stroke-opacity:1;stroke-miterlimit:10" d="M-56.694 0H0l42.52 42.52M0 0l42.52-42.52" transform="matrix(1 0 0 -1 74.87 55.586)"/><use xlink:href="#a" x="3.321" y="56.763" style="fill:#000;fill-opacity:1"/><use xlink:href="#b" x="9.838" y="58.257" style="fill:#000;fill-opacity:1"/><use xlink:href="#a" x="120.909" y="7.61" style="fill:#000;fill-opacity:1"/><use xlink:href="#c" x="127.427" y="9.104" style="fill:#000;fill-opacity:1"/><use xlink:href="#a" x="120.909" y="105.915" style="fill:#000;fill-opacity:1"/><use xlink:href="#d" x="127.427" y="107.41" style="fill:#000;fill-opacity:1"/><path style="fill:none;stroke-width:.3985;stroke-linecap:butt;stroke-linejoin:miter;stroke:#000;stroke-opacity:1;stroke-miterlimit:10" d="M-48.19 4.98h27.89" transform="matrix(1 0 0 -1 74.87 55.586)"/><path style="fill:none;stroke-width:.31879;stroke-linecap:round;stroke-linejoin:round;stroke:#000;stroke-opacity:1;stroke-miterlimit:10" d="M-1.194 1.593C-1.096.995.001.1.298-.001.001-.099-1.096-.997-1.194-1.595" transform="matrix(1 0 0 -1 54.569 50.605)"/><use xlink:href="#e" x="36.113" y="45.148" style="fill:#000;fill-opacity:1"/><use xlink:href="#f" x="41.126" y="46.643" style="fill:#000;fill-opacity:1"/><path style="fill:none;stroke-width:.3985;stroke-linecap:butt;stroke-linejoin:miter;stroke:#000;stroke-opacity:1;stroke-miterlimit:10" d="m11.661 16.645 22.356 22.351" transform="matrix(1 0 0 -1 74.87 55.586)"/><path style="fill:none;stroke-width:.31879;stroke-linecap:round;stroke-linejoin:round;stroke:#000;stroke-opacity:1;stroke-miterlimit:10" d="M-1.195 1.592C-1.096.996 0 .098.299 0 0-.101-1.096-1-1.195-1.595" transform="scale(-1 1) rotate(45 -90.274 -84.984)"/><use xlink:href="#e" x="84.545" y="22.471" style="fill:#000;fill-opacity:1"/><use xlink:href="#g" x="89.558" y="23.965" style="fill:#000;fill-opacity:1"/><path style="fill:none;stroke-width:.3985;stroke-linecap:butt;stroke-linejoin:miter;stroke:#000;stroke-opacity:1;stroke-miterlimit:10" d="m16.646-11.664 22.351-22.352" transform="matrix(1 0 0 -1 74.87 55.586)"/><path style="fill:none;stroke-width:.31879;stroke-linecap:round;stroke-linejoin:round;stroke:#000;stroke-opacity:1;stroke-miterlimit:10" d="M-1.195 1.596C-1.096.994-.002.1.299.003-.002-.1-1.096-.995-1.198-1.594" transform="scale(-1 1) rotate(-45 35.42 144.093)"/><use xlink:href="#e" x="106.048" y="72.806" style="fill:#000;fill-opacity:1"/><use xlink:href="#h" x="111.061" y="74.301" style="fill:#000;fill-opacity:1"/><path style="fill-rule:nonzero;fill:#fff;fill-opacity:1;stroke-width:.3985;stroke-linecap:butt;stroke-linejoin:miter;stroke:#000;stroke-opacity:1;stroke-miterlimit:10" d="M7.087 0A7.085 7.085 0 0 1 .001 7.086 7.085 7.085 0 0 1-7.085 0 7.085 7.085 0 0 1 .001-7.086 7.085 7.085 0 0 1 7.087 0Zm0 0" transform="matrix(1 0 0 -1 74.87 55.586)"/><g clip-path="url(#i)"><g clip-path="url(#j)"><path style="fill:none;stroke-width:.3985;stroke-linecap:butt;stroke-linejoin:miter;stroke:#000;stroke-opacity:1;stroke-miterlimit:10" d="m0 0 3.09 3.087" transform="matrix(1 0 0 -1 65.754 66.34)"/></g></g><g clip-path="url(#k)"><g clip-path="url(#l)"><path style="fill:none;stroke-width:.3985;stroke-linecap:butt;stroke-linejoin:miter;stroke:#000;stroke-opacity:1;stroke-miterlimit:10" d="m0 0 3.089 3.087" transform="matrix(1 0 0 -1 68.743 66.34)"/></g></g><g clip-path="url(#m)"><g clip-path="url(#n)"><path style="fill:none;stroke-width:.3985;stroke-linecap:butt;stroke-linejoin:miter;stroke:#000;stroke-opacity:1;stroke-miterlimit:10" d="m-.001 0 3.09 3.087" transform="matrix(1 0 0 -1 71.732 66.34)"/></g></g><g clip-path="url(#o)"><g clip-path="url(#p)"><path style="fill:none;stroke-width:.3985;stroke-linecap:butt;stroke-linejoin:miter;stroke:#000;stroke-opacity:1;stroke-miterlimit:10" d="m.002 0 3.086 3.087" transform="matrix(1 0 0 -1 74.72 66.34)"/></g></g><g clip-path="url(#q)"><g clip-path="url(#r)"><path style="fill:none;stroke-width:.3985;stroke-linecap:butt;stroke-linejoin:miter;stroke:#000;stroke-opacity:1;stroke-miterlimit:10" d="m.001 0 3.086 3.087" transform="matrix(1 0 0 -1 77.71 66.34)"/></g></g><g clip-path="url(#s)"><g clip-path="url(#t)"><path style="fill:none;stroke-width:.3985;stroke-linecap:butt;stroke-linejoin:miter;stroke:#000;stroke-opacity:1;stroke-miterlimit:10" d="m0 0 3.087 3.087" transform="matrix(1 0 0 -1 80.698 66.34)"/></g></g><g clip-path="url(#u)"><g clip-path="url(#v)"><path style="fill:none;stroke-width:.3985;stroke-linecap:butt;stroke-linejoin:miter;stroke:#000;stroke-opacity:1;stroke-miterlimit:10" d="m0 0 3.09 3.09" transform="matrix(1 0 0 -1 65.754 63.352)"/></g></g><g clip-path="url(#w)"><g clip-path="url(#x)"><path style="fill:none;stroke-width:.3985;stroke-linecap:butt;stroke-linejoin:miter;stroke:#000;stroke-opacity:1;stroke-miterlimit:10" d="m0 0 3.089 3.09" transform="matrix(1 0 0 -1 68.743 63.352)"/></g></g><g clip-path="url(#y)"><g clip-path="url(#z)"><path style="fill:none;stroke-width:.3985;stroke-linecap:butt;stroke-linejoin:miter;stroke:#000;stroke-opacity:1;stroke-miterlimit:10" d="m-.001 0 3.09 3.09" transform="matrix(1 0 0 -1 71.732 63.352)"/></g></g><g clip-path="url(#A)"><g clip-path="url(#B)"><path style="fill:none;stroke-width:.3985;stroke-linecap:butt;stroke-linejoin:miter;stroke:#000;stroke-opacity:1;stroke-miterlimit:10" d="m.002 0 3.086 3.09" transform="matrix(1 0 0 -1 74.72 63.352)"/></g></g><g clip-path="url(#C)"><g clip-path="url(#D)"><path style="fill:none;stroke-width:.3985;stroke-linecap:butt;stroke-linejoin:miter;stroke:#000;stroke-opacity:1;stroke-miterlimit:10" d="m.001 0 3.086 3.09" transform="matrix(1 0 0 -1 77.71 63.352)"/></g></g><g clip-path="url(#E)"><g clip-path="url(#F)"><path style="fill:none;stroke-width:.3985;stroke-linecap:butt;stroke-linejoin:miter;stroke:#000;stroke-opacity:1;stroke-miterlimit:10" d="m0 0 3.087 3.09" transform="matrix(1 0 0 -1 80.698 63.352)"/></g></g><g clip-path="url(#G)"><g clip-path="url(#H)"><path style="fill:none;stroke-width:.3985;stroke-linecap:butt;stroke-linejoin:miter;stroke:#000;stroke-opacity:1;stroke-miterlimit:10" d="m0 0 3.09 3.09" transform="matrix(1 0 0 -1 65.754 60.363)"/></g></g><g clip-path="url(#I)"><g clip-path="url(#J)"><path style="fill:none;stroke-width:.3985;stroke-linecap:butt;stroke-linejoin:miter;stroke:#000;stroke-opacity:1;stroke-miterlimit:10" d="m0 0 3.089 3.09" transform="matrix(1 0 0 -1 68.743 60.363)"/></g></g><g clip-path="url(#K)"><g clip-path="url(#L)"><path style="fill:none;stroke-width:.3985;stroke-linecap:butt;stroke-linejoin:miter;stroke:#000;stroke-opacity:1;stroke-miterlimit:10" d="m-.001 0 3.09 3.09" transform="matrix(1 0 0 -1 71.732 60.363)"/></g></g><g clip-path="url(#M)"><g clip-path="url(#N)"><path style="fill:none;stroke-width:.3985;stroke-linecap:butt;stroke-linejoin:miter;stroke:#000;stroke-opacity:1;stroke-miterlimit:10" d="m.002 0 3.086 3.09" transform="matrix(1 0 0 -1 74.72 60.363)"/></g></g><g clip-path="url(#O)"><g clip-path="url(#P)"><path style="fill:none;stroke-width:.3985;stroke-linecap:butt;stroke-linejoin:miter;stroke:#000;stroke-opacity:1;stroke-miterlimit:10" d="m.001 0 3.086 3.09" transform="matrix(1 0 0 -1 77.71 60.363)"/></g></g><g clip-path="url(#Q)"><g clip-path="url(#R)"><path style="fill:none;stroke-width:.3985;stroke-linecap:butt;stroke-linejoin:miter;stroke:#000;stroke-opacity:1;stroke-miterlimit:10" d="m0 0 3.087 3.09" transform="matrix(1 0 0 -1 80.698 60.363)"/></g></g><g clip-path="url(#S)"><g clip-path="url(#T)"><path style="fill:none;stroke-width:.3985;stroke-linecap:butt;stroke-linejoin:miter;stroke:#000;stroke-opacity:1;stroke-miterlimit:10" d="m0 0 3.09 3.089" transform="matrix(1 0 0 -1 65.754 57.374)"/></g></g><g clip-path="url(#U)"><g clip-path="url(#V)"><path style="fill:none;stroke-width:.3985;stroke-linecap:butt;stroke-linejoin:miter;stroke:#000;stroke-opacity:1;stroke-miterlimit:10" d="m0 0 3.089 3.089" transform="matrix(1 0 0 -1 68.743 57.374)"/></g></g><g clip-path="url(#W)"><g clip-path="url(#X)"><path style="fill:none;stroke-width:.3985;stroke-linecap:butt;stroke-linejoin:miter;stroke:#000;stroke-opacity:1;stroke-miterlimit:10" d="m-.001 0 3.09 3.089" transform="matrix(1 0 0 -1 71.732 57.374)"/></g></g><g clip-path="url(#Y)"><g clip-path="url(#Z)"><path style="fill:none;stroke-width:.3985;stroke-linecap:butt;stroke-linejoin:miter;stroke:#000;stroke-opacity:1;stroke-miterlimit:10" d="m.002 0 3.086 3.089" transform="matrix(1 0 0 -1 74.72 57.374)"/></g></g><g clip-path="url(#aa)"><g clip-path="url(#ab)"><path style="fill:none;stroke-width:.3985;stroke-linecap:butt;stroke-linejoin:miter;stroke:#000;stroke-opacity:1;stroke-miterlimit:10" d="m.001 0 3.086 3.089" transform="matrix(1 0 0 -1 77.71 57.374)"/></g></g><g clip-path="url(#ac)"><g clip-path="url(#ad)"><path style="fill:none;stroke-width:.3985;stroke-linecap:butt;stroke-linejoin:miter;stroke:#000;stroke-opacity:1;stroke-miterlimit:10" d="m0 0 3.087 3.089" transform="matrix(1 0 0 -1 80.698 57.374)"/></g></g><g clip-path="url(#ae)"><g clip-path="url(#af)"><path style="fill:none;stroke-width:.3985;stroke-linecap:butt;stroke-linejoin:miter;stroke:#000;stroke-opacity:1;stroke-miterlimit:10" d="m0-.001 3.09 3.09" transform="matrix(1 0 0 -1 65.754 54.385)"/></g></g><g clip-path="url(#ag)"><g clip-path="url(#ah)"><path style="fill:none;stroke-width:.3985;stroke-linecap:butt;stroke-linejoin:miter;stroke:#000;stroke-opacity:1;stroke-miterlimit:10" d="m0-.001 3.089 3.09" transform="matrix(1 0 0 -1 68.743 54.385)"/></g></g><g clip-path="url(#ai)"><g clip-path="url(#aj)"><path style="fill:none;stroke-width:.3985;stroke-linecap:butt;stroke-linejoin:miter;stroke:#000;stroke-opacity:1;stroke-miterlimit:10" d="m-.001-.001 3.09 3.09" transform="matrix(1 0 0 -1 71.732 54.385)"/></g></g><g clip-path="url(#ak)"><g clip-path="url(#al)"><path style="fill:none;stroke-width:.3985;stroke-linecap:butt;stroke-linejoin:miter;stroke:#000;stroke-opacity:1;stroke-miterlimit:10" d="m.002-.001 3.086 3.09" transform="matrix(1 0 0 -1 74.72 54.385)"/></g></g><g clip-path="url(#am)"><g clip-path="url(#an)"><path style="fill:none;stroke-width:.3985;stroke-linecap:butt;stroke-linejoin:miter;stroke:#000;stroke-opacity:1;stroke-miterlimit:10" d="m.001-.001 3.086 3.09" transform="matrix(1 0 0 -1 77.71 54.385)"/></g></g><g clip-path="url(#ao)"><g clip-path="url(#ap)"><path style="fill:none;stroke-width:.3985;stroke-linecap:butt;stroke-linejoin:miter;stroke:#000;stroke-opacity:1;stroke-miterlimit:10" d="m0-.001 3.087 3.09" transform="matrix(1 0 0 -1 80.698 54.385)"/></g></g><g clip-path="url(#aq)"><g clip-path="url(#ar)"><path style="fill:none;stroke-width:.3985;stroke-linecap:butt;stroke-linejoin:miter;stroke:#000;stroke-opacity:1;stroke-miterlimit:10" d="m0 .002 3.09 3.086" transform="matrix(1 0 0 -1 65.754 51.396)"/></g></g><g clip-path="url(#as)"><g clip-path="url(#at)"><path style="fill:none;stroke-width:.3985;stroke-linecap:butt;stroke-linejoin:miter;stroke:#000;stroke-opacity:1;stroke-miterlimit:10" d="m0 .002 3.089 3.086" transform="matrix(1 0 0 -1 68.743 51.396)"/></g></g><g clip-path="url(#au)"><g clip-path="url(#av)"><path style="fill:none;stroke-width:.3985;stroke-linecap:butt;stroke-linejoin:miter;stroke:#000;stroke-opacity:1;stroke-miterlimit:10" d="m-.001.002 3.09 3.086" transform="matrix(1 0 0 -1 71.732 51.396)"/></g></g><g clip-path="url(#aw)"><g clip-path="url(#ax)"><path style="fill:none;stroke-width:.3985;stroke-linecap:butt;stroke-linejoin:miter;stroke:#000;stroke-opacity:1;stroke-miterlimit:10" d="m.002.002 3.086 3.086" transform="matrix(1 0 0 -1 74.72 51.396)"/></g></g><g clip-path="url(#ay)"><g clip-path="url(#az)"><path style="fill:none;stroke-width:.3985;stroke-linecap:butt;stroke-linejoin:miter;stroke:#000;stroke-opacity:1;stroke-miterlimit:10" d="m.001.002 3.086 3.086" transform="matrix(1 0 0 -1 77.71 51.396)"/></g></g><g clip-path="url(#aA)"><g clip-path="url(#aB)"><path style="fill:none;stroke-width:.3985;stroke-linecap:butt;stroke-linejoin:miter;stroke:#000;stroke-opacity:1;stroke-miterlimit:10" d="m0 .002 3.087 3.086" transform="matrix(1 0 0 -1 80.698 51.396)"/></g></g><g clip-path="url(#aC)"><g clip-path="url(#aD)"><path style="fill:none;stroke-width:.3985;stroke-linecap:butt;stroke-linejoin:miter;stroke:#000;stroke-opacity:1;stroke-miterlimit:10" d="m0 .001 3.09 3.086" transform="matrix(1 0 0 -1 65.754 48.408)"/></g></g><g clip-path="url(#aE)"><g clip-path="url(#aF)"><path style="fill:none;stroke-width:.3985;stroke-linecap:butt;stroke-linejoin:miter;stroke:#000;stroke-opacity:1;stroke-miterlimit:10" d="m0 .001 3.089 3.086" transform="matrix(1 0 0 -1 68.743 48.408)"/></g></g><g clip-path="url(#aG)"><g clip-path="url(#aH)"><path style="fill:none;stroke-width:.3985;stroke-linecap:butt;stroke-linejoin:miter;stroke:#000;stroke-opacity:1;stroke-miterlimit:10" d="m-.001.001 3.09 3.086" transform="matrix(1 0 0 -1 71.732 48.408)"/></g></g><g clip-path="url(#aI)"><g clip-path="url(#aJ)"><path style="fill:none;stroke-width:.3985;stroke-linecap:butt;stroke-linejoin:miter;stroke:#000;stroke-opacity:1;stroke-miterlimit:10" d="m.002.001 3.086 3.086" transform="matrix(1 0 0 -1 74.72 48.408)"/></g></g><g clip-path="url(#aK)"><g clip-path="url(#aL)"><path style="fill:none;stroke-width:.3985;stroke-linecap:butt;stroke-linejoin:miter;stroke:#000;stroke-opacity:1;stroke-miterlimit:10" d="m.001.001 3.086 3.086" transform="matrix(1 0 0 -1 77.71 48.408)"/></g></g><g clip-path="url(#aM)"><g clip-path="url(#aN)"><path style="fill:none;stroke-width:.3985;stroke-linecap:butt;stroke-linejoin:miter;stroke:#000;stroke-opacity:1;stroke-miterlimit:10" d="m0 .001 3.087 3.086" transform="matrix(1 0 0 -1 80.698 48.408)"/></g></g><use xlink:href="#aO" x="83.371" y="58.608" style="fill:#000;fill-opacity:1"/><g style="fill:#000;fill-opacity:1"><use xlink:href="#aP" x="89.598" y="53.433"/><use xlink:href="#h" x="92.711" y="53.433"/><use xlink:href="#aQ" x="96.683" y="53.433"/></g><use xlink:href="#aR" x="89.598" y="61.614" style="fill:#000;fill-opacity:1"/><g style="fill:#000;fill-opacity:1"><use xlink:href="#aS" x="94.001" y="61.614"/><use xlink:href="#b" x="96.367" y="61.614"/><use xlink:href="#c" x="100.688" y="61.614"/><use xlink:href="#d" x="104.192" y="61.614"/></g><use xlink:href="#aT" x="108.251" y="58.608" style="fill:#000;fill-opacity:1"/><use xlink:href="#e" x="112.125" y="58.608" style="fill:#000;fill-opacity:1"/><use xlink:href="#f" x="117.138" y="60.103" style="fill:#000;fill-opacity:1"/><use xlink:href="#aU" x="121.607" y="58.608" style="fill:#000;fill-opacity:1"/><use xlink:href="#e" x="126.038" y="58.608" style="fill:#000;fill-opacity:1"/><use xlink:href="#g" x="131.047" y="60.103" style="fill:#000;fill-opacity:1"/><use xlink:href="#aU" x="135.517" y="58.608" style="fill:#000;fill-opacity:1"/><use xlink:href="#e" x="139.948" y="58.608" style="fill:#000;fill-opacity:1"/><use xlink:href="#h" x="144.957" y="60.103" style="fill:#000;fill-opacity:1"/><use xlink:href="#aV" x="149.426" y="58.608" style="fill:#000;fill-opacity:1"/></svg>