<svg xmlns="http://www.w3.org/2000/svg" xmlns:xlink="http://www.w3.org/1999/xlink" width="326.839" height="178.687" viewBox="0 0 245.129 134.015"><defs><symbol overflow="visible" id="a"><path d="M2.39-2.531h1.297c.079 0 .376 0 .376-.281C4.063-3 3.874-3 3.75-3H1.562c-.203 0-.421.016-.78.344-.204.187-.47.547-.47.61 0 .077.094.077.126.077.078 0 .078-.015.124-.078.344-.484.782-.484.938-.484h.625L1.422-.297c-.031.11-.031.11-.031.156 0 .188.171.22.234.22.266 0 .313-.25.328-.345zm0 0"/></symbol><symbol overflow="visible" id="d"><path d="M4.078-2.531c.11 0 .188 0 .25-.047a.345.345 0 0 0 .125-.235C4.453-3 4.266-3 4.141-3H2.359C1.25-3 .406-1.906.406-1.062.406-.422.891.063 1.61.063c.875 0 1.875-.782 1.875-1.86 0-.11 0-.422-.203-.734zM1.61-.125c-.375 0-.687-.25-.687-.75 0-.203.125-1.656 1.328-1.656.344 0 .719.14.719.656 0 .14-.063.766-.406 1.234-.297.375-.688.516-.954.516zm0 0"/></symbol><symbol overflow="visible" id="b"><path d="M1.984-3.172c0-.14-.015-.14-.187-.14C1.453-3 .89-3 .797-3H.719v.219h.078c.11 0 .437-.016.734-.14v2.5c0 .14 0 .202-.531.202H.75V0c.266-.016.719-.016 1-.016.297 0 .734 0 1.016.016v-.219h-.25c-.532 0-.532-.062-.532-.203zm0 0"/></symbol><symbol overflow="visible" id="c"><path d="M2.938-.969h-.22c0 .094-.062.406-.14.453-.031.032-.453.032-.531.032h-.969c.328-.235.688-.516.984-.72.454-.312.876-.593.876-1.124 0-.64-.61-.985-1.313-.985-.672 0-1.172.376-1.172.876 0 .25.219.296.297.296a.283.283 0 0 0 .281-.296.27.27 0 0 0-.281-.282c.14-.234.438-.375.766-.375.484 0 .89.281.89.766 0 .422-.297.75-.672 1.062L.516-.234c-.047.047-.063.047-.063.078V0h2.313zm0 0"/></symbol><symbol overflow="visible" id="e"><path d="M3.219-1.578h2.14c.094 0 .25 0 .25-.156 0-.188-.156-.188-.25-.188H3.22v-2.14c0-.079 0-.25-.156-.25-.172 0-.172.156-.172.25v2.14H.75c-.094 0-.266 0-.266.172s.157.172.266.172h2.14v2.14c0 .094 0 .266.157.266.172 0 .172-.172.172-.265zm0 0"/></symbol></defs><path d="M10.75 25.277c-2.75 0-4.98-3.12-4.98-6.972 0-3.852 2.23-6.973 4.98-6.973m56.695 28.121c-2.754 0-4.984-3.125-4.984-6.976 0-3.852 2.23-6.973 4.984-6.973M10.75 11.332c31.496 0 25.2 14.172 56.695 14.172m0 13.95c-31.496 0-25.199-14.177-56.695-14.177m56.695.227c18.895 0 18.895 13.95 0 13.95" fill="none" stroke-width="0.3985" stroke="rgb(0%,0%,0%)" stroke-miterlimit="10"/><path d="M27.758 27.262c3.555-4.235 3.555-9.938 0-14.172m22.676 24.379c-3.551-4.235-3.551-9.942 0-14.176" fill="none" stroke-width="0.3985" stroke="rgb(0%,0%,0%)" stroke-dasharray="2.98883,2.98883" stroke-miterlimit="10"/><use xlink:href="#a" x="23.977" y="33.112" fill="rgb(0%,0%,0%)"/><use xlink:href="#b" x="27.651" y="34.108" fill="rgb(0%,0%,0%)"/><use xlink:href="#a" x="46.654" y="43.317" fill="rgb(0%,0%,0%)"/><use xlink:href="#c" x="50.328" y="44.313" fill="rgb(0%,0%,0%)"/><path d="M5.082 25.277c-3.555-4.234-3.555-9.937-.297-13.82" fill="none" stroke-width="0.3985" stroke="rgb(0%,0%,0%)" stroke-miterlimit="10"/><path d="M2.797 11.348c.523.308 1.914.047 2.18-.121-.114.293-.133 1.71.261 2.171" fill="none" stroke-width=".3187836242" stroke-linecap="round" stroke-linejoin="round" stroke="rgb(0%,0%,0%)" stroke-miterlimit="10"/><use xlink:href="#d" x="2.647" y="31.128" fill="rgb(0%,0%,0%)"/><use xlink:href="#e" x="88.479" y="34.221" fill="rgb(0%,0%,0%)"/><path d="M13.586 8.496c10.226-.086 16.281 1.262 25.098 5.473" fill="none" stroke-width="0.3985" stroke="rgb(0%,0%,0%)" stroke-miterlimit="10"/><path d="M38.293 12.016c-.168.582.434 1.863.66 2.082-.312-.04-1.687.297-2.035.793" fill="none" stroke-width=".31877087260000003" stroke-linecap="round" stroke-linejoin="round" stroke="rgb(0%,0%,0%)" stroke-miterlimit="10"/><use xlink:href="#a" x="24.1" y="5.65" fill="rgb(0%,0%,0%)"/><path d="M109.965 39.453c-2.754 0-4.98-3.125-4.98-6.976 0-3.852 2.226-6.973 4.98-6.973m0 0c31.492 0 25.2-14.172 56.691-14.172m0 13.945c-18.898 0-18.898 14.403 0 14.403m0 13.945c-31.492 0-25.199-14.172-56.691-14.172m113.387 0c-2.75 0-4.98-3.125-4.98-6.976 0-3.852 2.23-6.973 4.98-6.973M166.656 39.68c18.899 0 18.899-14.403 0-14.403m0-13.945c31.496 0 25.2 14.172 56.696 14.172m0 13.95c-31.497 0-25.2 14.171-56.696 14.171m56.696-28.121c18.898 0 18.898 13.95 0 13.95m-119.059 0c-3.55-4.235-3.55-9.942-.293-13.825" fill="none" stroke-width="0.3985" stroke="rgb(0%,0%,0%)" stroke-miterlimit="10"/><path d="M102.012 25.52c.52.308 1.91.046 2.18-.118-.114.293-.133 1.707.261 2.168" fill="none" stroke-width=".3187836242" stroke-linecap="round" stroke-linejoin="round" stroke="rgb(0%,0%,0%)" stroke-miterlimit="10"/><use xlink:href="#d" x="101.86" y="45.301" fill="rgb(0%,0%,0%)"/><path d="M158.152 12.07c3.625 4.317 3.625 10.137 0 14.453m0 26.364c-3.62-4.317-3.62-10.137 0-14.457m17.008-26.36c-3.62 4.317-3.62 10.137 0 14.453m0 26.364c3.625-4.317 3.625-10.137 0-14.457" fill="none" stroke-width="0.3985" stroke="rgb(0%,0%,0%)" stroke-dasharray="2.98883,2.98883" stroke-miterlimit="10"/><use xlink:href="#a" x="154.37" y="8.226" fill="rgb(0%,0%,0%)"/><use xlink:href="#b" x="158.044" y="9.222" fill="rgb(0%,0%,0%)"/><use xlink:href="#a" x="171.378" y="8.226" fill="rgb(0%,0%,0%)"/><use xlink:href="#c" x="175.052" y="9.222" fill="rgb(0%,0%,0%)"/><path d="M112.797 22.668c10.344-.453 16.418-2.14 25.11-6.867" fill="none" stroke-width="0.3985" stroke="rgb(0%,0%,0%)" stroke-miterlimit="10"/><path d="M136.098 14.973c.37.476 1.761.742 2.074.687-.215.23-.75 1.54-.555 2.113" fill="none" stroke-width=".3187676847" stroke-linecap="round" stroke-linejoin="round" stroke="rgb(0%,0%,0%)" stroke-miterlimit="10"/><use xlink:href="#a" x="121.896" y="16.989" fill="rgb(0%,0%,0%)"/><path d="M166.656 96.145c-18.898 0-18.898 14.398 0 14.398m0 13.95c-37.793 0-37.793-42.294 0-42.294m0 28.344c18.899 0 18.899-14.398 0-14.398m0-13.946c37.797 0 37.797 42.293 0 42.293" fill="none" stroke-width="0.3985" stroke="rgb(0%,0%,0%)" stroke-miterlimit="10"/><path d="M158.152 82.938c3.625 4.316 3.625 10.136 0 14.453m0 26.363c-3.62-4.317-3.62-10.137 0-14.457m17.008-26.36c-3.62 4.317-3.62 10.137 0 14.454m0 26.363c3.625-4.317 3.625-10.137 0-14.457" fill="none" stroke-width="0.3985" stroke="rgb(0%,0%,0%)" stroke-dasharray="2.98883,2.98883" stroke-miterlimit="10"/><use xlink:href="#a" x="154.37" y="129.602" fill="rgb(0%,0%,0%)"/><use xlink:href="#b" x="158.044" y="130.598" fill="rgb(0%,0%,0%)"/><use xlink:href="#a" x="171.378" y="129.602" fill="rgb(0%,0%,0%)"/><use xlink:href="#c" x="175.052" y="130.598" fill="rgb(0%,0%,0%)"/><path d="M135.477 97.676c3.386-9.617 9.816-15.133 19.39-16.922" fill="none" stroke-width="0.3985" stroke="rgb(0%,0%,0%)" stroke-miterlimit="10"/><path d="M153.398 79.406c.211.567 1.454 1.246 1.762 1.29-.273.156-1.187 1.238-1.176 1.843" fill="none" stroke-width=".31877087260000003" stroke-linecap="round" stroke-linejoin="round" stroke="rgb(0%,0%,0%)" stroke-miterlimit="10"/><use xlink:href="#a" x="128.147" y="94.828" fill="rgb(0%,0%,0%)"/><path d="M139.727 103.344c3.386-2.84 7.953-2.84 10.988-.293" fill="none" stroke-width="0.3985" stroke="rgb(0%,0%,0%)" stroke-miterlimit="10"/><path d="M150.824 101.062c-.308.52-.043 1.91.121 2.18-.293-.113-1.71-.133-2.172.262" fill="none" stroke-width="0.31879" stroke-linecap="round" stroke-linejoin="round" stroke="rgb(0%,0%,0%)" stroke-miterlimit="10"/><use xlink:href="#d" x="142.573" y="109.193" fill="rgb(0%,0%,0%)"/><path d="M164.531 60.824v11.34m4.254 0v-11.34m-108.43 42.52c0-11.739-9.515-21.258-21.257-21.258-11.743 0-21.262 9.52-21.262 21.258 0 11.742 9.52 21.261 21.262 21.261s21.257-9.52 21.257-21.261zm0 0" fill="none" stroke-width="0.3985" stroke="rgb(0%,0%,0%)" stroke-miterlimit="10"/><path d="M37.242 124.523c-4.273-15.953-4.273-26.402 0-42.355" fill="none" stroke-width="0.3985" stroke="rgb(0%,0%,0%)" stroke-dasharray="2.98883,2.98883" stroke-miterlimit="10"/><use xlink:href="#a" x="33.462" y="130.372" fill="rgb(0%,0%,0%)"/><use xlink:href="#c" x="37.136" y="131.368" fill="rgb(0%,0%,0%)"/><path d="M48.082 122.613c9.66-11.511 9.66-27.023 0-38.535" fill="none" stroke-width="0.3985" stroke="rgb(0%,0%,0%)" stroke-dasharray="2.98883,2.98883" stroke-miterlimit="10"/><use xlink:href="#a" x="50.927" y="85.079" fill="rgb(0%,0%,0%)"/><use xlink:href="#b" x="54.601" y="86.076" fill="rgb(0%,0%,0%)"/><path d="M28.238 112.457c-2.43-6.68-2.43-11.547-.156-17.793" fill="none" stroke-width="0.3985" stroke="rgb(0%,0%,0%)" stroke-miterlimit="10"/><path d="M26.176 95.242c.597.113 1.812-.61 2.008-.86-.008.317.46 1.653.988 1.954" fill="none" stroke-width=".3187836242" stroke-linecap="round" stroke-linejoin="round" stroke="rgb(0%,0%,0%)" stroke-miterlimit="10"/><use xlink:href="#d" x="20.484" y="104.845" fill="rgb(0%,0%,0%)"/><path d="M36.973 60.824v11.34m4.25 0v-11.34m-20.457 57.371c-8.047-8.043-8.047-21.656 0-29.699" fill="none" stroke-width="0.3985" stroke="rgb(0%,0%,0%)" stroke-miterlimit="10"/><path d="M21.047 116.223c-.352.492-.211 1.902-.07 2.183-.282-.14-1.692-.281-2.184.07" fill="none" stroke-width=".31878681210000004" stroke-linecap="round" stroke-linejoin="round" stroke="rgb(0%,0%,0%)" stroke-miterlimit="10"/><path d="M18.793 88.215c.492.351 1.902.21 2.184.07-.141.281-.282 1.692.07 2.184" fill="none" stroke-width=".31878681210000004" stroke-linecap="round" stroke-linejoin="round" stroke="rgb(0%,0%,0%)" stroke-miterlimit="10"/><use xlink:href="#a" x="8.325" y="104.845" fill="rgb(0%,0%,0%)"/></svg>