<svg xmlns="http://www.w3.org/2000/svg" xmlns:xlink="http://www.w3.org/1999/xlink" width="324.947" height="186.373" viewBox="0 0 243.71 139.78"><defs><symbol overflow="visible" id="a"><path style="stroke:none" d="M2.938-3.719h1.671c.125 0 .485 0 .485-.344 0-.234-.203-.234-.407-.234h-2.78c-.204 0-.595 0-1.032.469-.328.36-.61.844-.61.89 0 .016 0 .11.126.11.078 0 .093-.047.156-.125.484-.766 1.062-.766 1.265-.766h.829L1.67-.516c-.046.11-.109.329-.109.36 0 .11.079.281.297.281.329 0 .375-.281.407-.438Zm0 0"/></symbol><symbol overflow="visible" id="d"><path style="stroke:none" d="M5.156-3.719c.14 0 .5 0 .5-.344 0-.234-.218-.234-.39-.234H2.984c-1.5 0-2.609 1.64-2.609 2.828C.375-.594.969.11 1.875.11c1.172 0 2.5-1.203 2.5-2.734 0-.172 0-.656-.313-1.094ZM1.891-.109C1.39-.11 1-.47 1-1.188c0-.296.11-1.109.469-1.703.422-.687 1.015-.828 1.36-.828.827 0 .905.656.905.969 0 .469-.203 1.281-.53 1.797-.392.578-.938.844-1.313.844Zm0 0"/></symbol><symbol overflow="visible" id="b"><path style="stroke:none" d="M2.328-4.438c0-.187 0-.187-.203-.187-.453.438-1.078.438-1.36.438v.25c.157 0 .626 0 1-.188v3.547c0 .234 0 .328-.687.328H.812V0c.125 0 .985-.031 1.235-.031.219 0 1.094.031 1.25.031v-.25H3.03c-.703 0-.703-.094-.703-.328Zm0 0"/></symbol><symbol overflow="visible" id="c"><path style="stroke:none" d="M3.516-1.266H3.28c-.015.157-.094.563-.187.625-.047.047-.578.047-.688.047h-1.28c.734-.64.984-.844 1.39-1.172.516-.406 1-.843 1-1.5 0-.843-.734-1.359-1.624-1.359-.86 0-1.454.61-1.454 1.25 0 .344.297.39.376.39a.365.365 0 0 0 .359-.374c0-.125-.047-.375-.406-.375.218-.485.687-.641 1.015-.641.703 0 1.063.547 1.063 1.11 0 .609-.438 1.078-.656 1.328L.516-.266C.437-.203.437-.187.437 0h2.876Zm0 0"/></symbol><symbol overflow="visible" id="e"><path style="stroke:none" d="M4.078-2.297H6.86c.141 0 .329 0 .329-.203 0-.188-.188-.188-.329-.188H4.08v-2.796c0-.141 0-.329-.204-.329-.203 0-.203.188-.203.329v2.796H.89c-.141 0-.329 0-.329.188 0 .203.188.203.329.203h2.78V.5c0 .14 0 .328.204.328.203 0 .203-.187.203-.328Zm0 0"/></symbol><clipPath id="f"><path d="M218 22h25.71v26H218Zm0 0"/></clipPath></defs><path style="fill:none;stroke-width:.3985;stroke-linecap:butt;stroke-linejoin:miter;stroke:#000;stroke-opacity:1;stroke-miterlimit:10" d="M0-6.972c-2.75 0-4.98 3.12-4.98 6.973 0 3.851 2.23 6.972 4.98 6.972m56.692-28.121c-2.75 0-4.98 3.121-4.98 6.973 0 3.851 2.23 6.976 4.98 6.976M0 6.973c31.497 0 25.2-14.172 56.692-14.172" transform="matrix(1 0 0 -1 12.015 20.938)"/><path style="fill:none;stroke-width:.3985;stroke-linecap:butt;stroke-linejoin:miter;stroke:#000;stroke-opacity:1;stroke-miterlimit:10" d="M56.692-21.148C25.2-21.148 31.497-6.972.001-6.972m56.691-.227c18.898 0 18.898-13.949 0-13.949" transform="matrix(1 0 0 -1 12.015 20.938)"/><path style="fill:none;stroke-width:.3985;stroke-linecap:butt;stroke-linejoin:miter;stroke:#000;stroke-opacity:1;stroke-dasharray:2.98883,2.98883;stroke-miterlimit:10" d="M17.008-8.957c3.551 4.23 3.551 9.938 0 14.172m22.676-24.379c-3.55 4.235-3.55 9.942 0 14.176" transform="matrix(1 0 0 -1 12.015 20.938)"/><use xlink:href="#a" x="24.611" y="37.705" style="fill:#000;fill-opacity:1"/><use xlink:href="#b" x="28.966" y="39.2" style="fill:#000;fill-opacity:1"/><use xlink:href="#a" x="47.287" y="47.91" style="fill:#000;fill-opacity:1"/><use xlink:href="#c" x="51.643" y="49.404" style="fill:#000;fill-opacity:1"/><path style="fill:none;stroke-width:.3985;stroke-linecap:butt;stroke-linejoin:miter;stroke:#000;stroke-opacity:1;stroke-miterlimit:10" d="M-5.667-6.972c-3.555 4.23-3.555 9.937-.297 13.82" transform="matrix(1 0 0 -1 12.015 20.938)"/><path style="fill:none;stroke-width:.31879;stroke-linecap:round;stroke-linejoin:round;stroke:#000;stroke-opacity:1;stroke-miterlimit:10" d="M-1.195 1.594C-1.097.997 0 .097.3.002.002-.1-1.097-.996-1.196-1.595" transform="scale(.99998 -.99998) rotate(50.001 18.133 -.557)"/><use xlink:href="#d" x="3.321" y="35.721" style="fill:#000;fill-opacity:1"/><use xlink:href="#e" x="88.928" y="37.602" style="fill:#000;fill-opacity:1"/><path style="fill:none;stroke-width:.3985;stroke-linecap:butt;stroke-linejoin:miter;stroke:#000;stroke-opacity:1;stroke-miterlimit:10" d="M2.837 9.81c10.226.085 16.28-1.263 25.097-5.474" transform="matrix(1 0 0 -1 12.015 20.938)"/><path style="fill:none;stroke-width:.31879;stroke-linecap:round;stroke-linejoin:round;stroke:#000;stroke-opacity:1;stroke-miterlimit:10" d="M-1.197 1.592C-1.094.996.001.1.3 0 0-.1-1.095-.995-1.195-1.593" transform="matrix(.90233 .43091 .43091 -.90233 39.948 16.601)"/><use xlink:href="#a" x="24.864" y="7.61" style="fill:#000;fill-opacity:1"/><path style="fill:none;stroke-width:.3985;stroke-linecap:butt;stroke-linejoin:miter;stroke:#000;stroke-opacity:1;stroke-miterlimit:10" d="M99.215-21.148c-2.753 0-4.984 3.121-4.984 6.973 0 3.851 2.23 6.976 4.984 6.976m0 0c31.493 0 25.2 14.172 56.692 14.172m0-13.945c-18.899 0-18.899-14.402 0-14.402m0-13.946c-31.492 0-25.2 14.172-56.692 14.172m113.387 0c-2.754 0-4.98 3.121-4.98 6.973 0 3.851 2.226 6.976 4.98 6.976m-56.695-14.176c18.898 0 18.898 14.403 0 14.403" transform="matrix(1 0 0 -1 12.015 20.938)"/><path style="fill:none;stroke-width:.3985;stroke-linecap:butt;stroke-linejoin:miter;stroke:#000;stroke-opacity:1;stroke-miterlimit:10" d="M155.907 6.973c31.496 0 25.2-14.172 56.695-14.172m0-13.949c-31.496 0-25.199-14.172-56.695-14.172" transform="matrix(1 0 0 -1 12.015 20.938)"/><g clip-path="url(#f)"><path style="fill:none;stroke-width:.3985;stroke-linecap:butt;stroke-linejoin:miter;stroke:#000;stroke-opacity:1;stroke-miterlimit:10" d="M212.602-7.199c18.899 0 18.899-13.949 0-13.949" transform="matrix(1 0 0 -1 12.015 20.938)"/></g><path style="fill:none;stroke-width:.3985;stroke-linecap:butt;stroke-linejoin:miter;stroke:#000;stroke-opacity:1;stroke-miterlimit:10" d="M93.544-21.148c-3.551 4.234-3.551 9.941-.293 13.824" transform="matrix(1 0 0 -1 12.015 20.938)"/><path style="fill:none;stroke-width:.31879;stroke-linecap:round;stroke-linejoin:round;stroke:#000;stroke-opacity:1;stroke-miterlimit:10" d="M-1.193 1.594C-1.095.997 0 .1.298-.001c-.3-.098-1.393-.995-1.493-1.594" transform="scale(.99998 -.99998) rotate(50.001 82.939 98.739)"/><use xlink:href="#d" x="102.533" y="49.894" style="fill:#000;fill-opacity:1"/><path style="fill:none;stroke-width:.3985;stroke-linecap:butt;stroke-linejoin:miter;stroke:#000;stroke-opacity:1;stroke-dasharray:2.98883,2.98883;stroke-miterlimit:10" d="M147.403 6.235c3.625-4.317 3.625-10.137 0-14.457m0-11.903c2.984-3.558 2.984-8.351 0-11.906m17.008 38.266c-3.621-4.317-3.621-10.137 0-14.457m0-11.903c-2.985-3.558-2.985-8.351 0-11.906" transform="matrix(1 0 0 -1 12.015 20.938)"/><use xlink:href="#a" x="155.004" y="9.688" style="fill:#000;fill-opacity:1"/><use xlink:href="#b" x="159.359" y="11.182" style="fill:#000;fill-opacity:1"/><use xlink:href="#a" x="172.012" y="9.688" style="fill:#000;fill-opacity:1"/><use xlink:href="#c" x="176.367" y="11.182" style="fill:#000;fill-opacity:1"/><path style="fill:none;stroke-width:.3985;stroke-linecap:butt;stroke-linejoin:miter;stroke:#000;stroke-opacity:1;stroke-miterlimit:10" d="M102.047-4.363c10.344.453 16.418 2.14 25.11 6.867" transform="matrix(1 0 0 -1 12.015 20.938)"/><path style="fill:none;stroke-width:.31879;stroke-linecap:round;stroke-linejoin:round;stroke:#000;stroke-opacity:1;stroke-miterlimit:10" d="M-1.194 1.593C-1.096.997-.001.099.3-.002-.002-.1-1.094-.996-1.196-1.594" transform="scale(.99993 -.99993) rotate(28.522 105.859 264.58)"/><use xlink:href="#a" x="122.659" y="18.948" style="fill:#000;fill-opacity:1"/><path style="fill:none;stroke-width:.3985;stroke-linecap:butt;stroke-linejoin:miter;stroke:#000;stroke-opacity:1;stroke-miterlimit:10" d="M155.907-77.84c-18.899 0-18.899-14.402 0-14.402" transform="matrix(1 0 0 -1 12.015 20.938)"/><path style="fill:none;stroke-width:.3985;stroke-linecap:butt;stroke-linejoin:miter;stroke:#000;stroke-opacity:1;stroke-miterlimit:10" d="M155.907-106.187c-37.793 0-37.793 42.293 0 42.293m0-28.348c18.898 0 18.898 14.403 0 14.403" transform="matrix(1 0 0 -1 12.015 20.938)"/><path style="fill:none;stroke-width:.3985;stroke-linecap:butt;stroke-linejoin:miter;stroke:#000;stroke-opacity:1;stroke-miterlimit:10" d="M155.907-63.894c37.797 0 37.797-42.293 0-42.293" transform="matrix(1 0 0 -1 12.015 20.938)"/><path style="fill:none;stroke-width:.3985;stroke-linecap:butt;stroke-linejoin:miter;stroke:#000;stroke-opacity:1;stroke-dasharray:2.98883,2.98883;stroke-miterlimit:10" d="M147.403-64.632c3.625-4.317 3.625-10.137 0-14.457m0-11.903c2.984-3.558 2.984-8.351 0-11.906m17.008 38.266c-3.621-4.317-3.621-10.137 0-14.457m0-11.903c-2.985-3.558-2.985-8.351 0-11.906" transform="matrix(1 0 0 -1 12.015 20.938)"/><use xlink:href="#a" x="155.004" y="119.739" style="fill:#000;fill-opacity:1"/><use xlink:href="#b" x="159.359" y="121.233" style="fill:#000;fill-opacity:1"/><use xlink:href="#a" x="172.012" y="119.739" style="fill:#000;fill-opacity:1"/><use xlink:href="#c" x="176.367" y="121.233" style="fill:#000;fill-opacity:1"/><path style="fill:none;stroke-width:.3985;stroke-linecap:butt;stroke-linejoin:miter;stroke:#000;stroke-opacity:1;stroke-miterlimit:10" d="M124.727-79.37c3.387 9.617 9.817 15.132 19.39 16.921" transform="matrix(1 0 0 -1 12.015 20.938)"/><path style="fill:none;stroke-width:.31879;stroke-linecap:round;stroke-linejoin:round;stroke:#000;stroke-opacity:1;stroke-miterlimit:10" d="M-1.196 1.593C-1.098.995-.002.098.298-.002 0-.1-1.097-.997-1.197-1.594" transform="scale(.99994 -.99994) rotate(10.6 527.531 799.888)"/><use xlink:href="#a" x="127.736" y="96.788" style="fill:#000;fill-opacity:1"/><path style="fill:none;stroke-width:.3985;stroke-linecap:butt;stroke-linejoin:miter;stroke:#000;stroke-opacity:1;stroke-miterlimit:10" d="M128.977-85.039c3.387 2.84 7.953 2.84 10.988.293" transform="matrix(1 0 0 -1 12.015 20.938)"/><path style="fill:none;stroke-width:.31879;stroke-linecap:round;stroke-linejoin:round;stroke:#000;stroke-opacity:1;stroke-miterlimit:10" d="M-1.195 1.593C-1.097.997.003.1.3.001.002-.1-1.097-.997-1.196-1.595" transform="scale(1 -1) rotate(-40 -69.19 -261.623)"/><use xlink:href="#d" x="144.511" y="113.787" style="fill:#000;fill-opacity:1"/><path style="fill:none;stroke-width:.3985;stroke-linecap:butt;stroke-linejoin:miter;stroke:#000;stroke-opacity:1;stroke-miterlimit:10" d="M153.782-42.519v-11.34m4.25 0v11.34M49.606-85.039c0 11.739-9.516 21.258-21.258 21.258-11.742 0-21.261-9.52-21.261-21.258 0-11.742 9.52-21.261 21.261-21.261 11.742 0 21.258 9.52 21.258 21.261Zm0 0" transform="matrix(1 0 0 -1 12.015 20.938)"/><path style="fill:none;stroke-width:.3985;stroke-linecap:butt;stroke-linejoin:miter;stroke:#000;stroke-opacity:1;stroke-dasharray:2.98883,2.98883;stroke-miterlimit:10" d="M26.493-106.218c-4.274 15.953-4.274 26.402 0 42.355" transform="matrix(1 0 0 -1 12.015 20.938)"/><use xlink:href="#a" x="34.096" y="134.965" style="fill:#000;fill-opacity:1"/><use xlink:href="#c" x="38.451" y="136.459" style="fill:#000;fill-opacity:1"/><path style="fill:none;stroke-width:.3985;stroke-linecap:butt;stroke-linejoin:miter;stroke:#000;stroke-opacity:1;stroke-dasharray:2.98883,2.98883;stroke-miterlimit:10" d="M37.333-104.308c9.66 11.512 9.66 27.023 0 38.535" transform="matrix(1 0 0 -1 12.015 20.938)"/><use xlink:href="#a" x="52.866" y="88.107" style="fill:#000;fill-opacity:1"/><use xlink:href="#b" x="57.221" y="89.601" style="fill:#000;fill-opacity:1"/><path style="fill:none;stroke-width:.3985;stroke-linecap:butt;stroke-linejoin:miter;stroke:#000;stroke-opacity:1;stroke-miterlimit:10" d="M17.489-94.152c-2.43 6.68-2.43 11.543-.156 17.793" transform="matrix(1 0 0 -1 12.015 20.938)"/><path style="fill:none;stroke-width:.31879;stroke-linecap:round;stroke-linejoin:round;stroke:#000;stroke-opacity:1;stroke-miterlimit:10" d="M-1.194 1.594C-1.097.998 0 .1.296 0 0-.1-1.093-.997-1.196-1.595" transform="scale(.99998 -.99998) rotate(69.999 84.155 -27.693)"/><use xlink:href="#d" x="22.422" y="108.122" style="fill:#000;fill-opacity:1"/><path style="fill:none;stroke-width:.3985;stroke-linecap:butt;stroke-linejoin:miter;stroke:#000;stroke-opacity:1;stroke-miterlimit:10" d="M26.22-42.519v-11.34m4.253 0v11.34M10.012-99.89c-8.043 8.043-8.043 21.656 0 29.7" transform="matrix(1 0 0 -1 12.015 20.938)"/><path style="fill:none;stroke-width:.31879;stroke-linecap:round;stroke-linejoin:round;stroke:#000;stroke-opacity:1;stroke-miterlimit:10" d="M-1.194 1.596C-1.098.996-.001.099.297-.001 0-.1-1.095-.995-1.197-1.595" transform="scale(1 -1) rotate(-45 -134.84 -87.006)"/><path style="fill:none;stroke-width:.31879;stroke-linecap:round;stroke-linejoin:round;stroke:#000;stroke-opacity:1;stroke-miterlimit:10" d="M-1.197 1.594C-1.095.995-.001.1.297.001c-.298-.1-1.395-.997-1.492-1.597" transform="scale(1 -1) rotate(45 121.017 -18.973)"/><use xlink:href="#a" x="7.409" y="108.122" style="fill:#000;fill-opacity:1"/></svg>