<svg height="186.373" viewBox="0 0 243.71 139.78" width="324.947" xmlns="http://www.w3.org/2000/svg" xmlns:xlink="http://www.w3.org/1999/xlink"><symbol id="a" overflow="visible"><path d="m2.938-3.719h1.671c.125 0 .485 0 .485-.344 0-.234-.203-.234-.407-.234h-2.78c-.204 0-.595 0-1.032.469-.328.36-.61.844-.61.89 0 .016 0 .11.126.11.078 0 .093-.047.156-.125.484-.766 1.062-.766 1.265-.766h.829l-.971 3.203c-.046.11-.109.329-.109.36 0 .11.079.281.297.281.329 0 .375-.281.407-.438zm0 0"/></symbol><symbol id="b" overflow="visible"><path d="m5.156-3.719c.14 0 .5 0 .5-.344 0-.234-.218-.234-.39-.234h-2.282c-1.5 0-2.609 1.64-2.609 2.828 0 .875.594 1.579 1.5 1.579 1.172 0 2.5-1.203 2.5-2.734 0-.172 0-.656-.313-1.094zm-3.265 3.61c-.501-.001-.891-.361-.891-1.079 0-.296.11-1.109.469-1.703.422-.687 1.015-.828 1.36-.828.827 0 .905.656.905.969 0 .469-.203 1.281-.53 1.797-.392.578-.938.844-1.313.844zm0 0"/></symbol><symbol id="c" overflow="visible"><path d="m2.328-4.438c0-.187 0-.187-.203-.187-.453.438-1.078.438-1.36.438v.25c.157 0 .626 0 1-.188v3.547c0 .234 0 .328-.687.328h-.266v.25c.125 0 .985-.031 1.235-.031.219 0 1.094.031 1.25.031v-.25h-.267c-.703 0-.703-.094-.703-.328zm0 0"/></symbol><symbol id="d" overflow="visible"><path d="m3.516-1.266h-.236c-.015.157-.094.563-.187.625-.047.047-.578.047-.688.047h-1.28c.734-.64.984-.844 1.39-1.172.516-.406 1-.843 1-1.5 0-.843-.734-1.359-1.624-1.359-.86 0-1.454.61-1.454 1.25 0 .344.297.39.376.39a.365.365 0 0 0 .359-.374c0-.125-.047-.375-.406-.375.218-.485.687-.641 1.015-.641.703 0 1.063.547 1.063 1.11 0 .609-.438 1.078-.656 1.328l-1.672 1.671c-.079.063-.079.079-.079.266h2.876zm0 0"/></symbol><symbol id="e" overflow="visible"><path d="m4.078-2.297h2.782c.141 0 .329 0 .329-.203 0-.188-.188-.188-.329-.188h-2.78v-2.796c0-.141 0-.329-.204-.329-.203 0-.203.188-.203.329v2.796h-2.783c-.141 0-.329 0-.329.188 0 .203.188.203.329.203h2.78v2.797c0 .14 0 .328.204.328.203 0 .203-.187.203-.328zm0 0"/></symbol><clipPath id="f"><path d="m218 22h25.71v26h-25.71zm0 0"/></clipPath><path d="m0-6.972c-2.75 0-4.98 3.12-4.98 6.973 0 3.851 2.23 6.972 4.98 6.972m56.692-28.121c-2.75 0-4.98 3.121-4.98 6.973 0 3.851 2.23 6.976 4.98 6.976m-56.692 14.172c31.497 0 25.2-14.172 56.692-14.172" fill="none" stroke="#000" stroke-miterlimit="10" stroke-width=".3985" transform="matrix(1 0 0 -1 12.015 20.938)"/><path d="m56.692-21.148c-31.492 0-25.195 14.176-56.691 14.176m56.691-.227c18.898 0 18.898-13.949 0-13.949" fill="none" stroke="#000" stroke-miterlimit="10" stroke-width=".3985" transform="matrix(1 0 0 -1 12.015 20.938)"/><path d="m17.008-8.957c3.551 4.23 3.551 9.938 0 14.172m22.676-24.379c-3.55 4.235-3.55 9.942 0 14.176" fill="none" stroke="#000" stroke-dasharray="2.98883 2.98883" stroke-miterlimit="10" stroke-width=".3985" transform="matrix(1 0 0 -1 12.015 20.938)"/><use x="24.611" xlink:href="#a" y="37.705"/><use x="28.966" xlink:href="#c" y="39.2"/><use x="47.287" xlink:href="#a" y="47.91"/><use x="51.643" xlink:href="#d" y="49.404"/><path d="m-5.667-6.972c-3.555 4.23-3.555 9.937-.297 13.82" fill="none" stroke="#000" stroke-miterlimit="10" stroke-width=".3985" transform="matrix(1 0 0 -1 12.015 20.938)"/><path d="m-1.195 1.594c.098-.597 1.195-1.497 1.495-1.592-.298-.102-1.397-.998-1.496-1.597" style="fill:none;stroke-width:.31879;stroke-linecap:round;stroke-linejoin:round;stroke:#000;stroke-miterlimit:10" transform="matrix(.64276138 -.76604034 -.76604034 -.64276138 6.050761 14.08958)"/><use x="3.321" xlink:href="#b" y="35.721"/><use x="88.928" xlink:href="#e" y="37.602"/><path d="m2.837 9.81c10.226.085 16.28-1.263 25.097-5.474" fill="none" stroke="#000" stroke-miterlimit="10" stroke-width=".3985" transform="matrix(1 0 0 -1 12.015 20.938)"/><path d="m-1.197 1.592c.103-.596 1.198-1.492 1.497-1.592-.3-.1-1.395-.995-1.495-1.593" style="fill:none;stroke-width:.31879;stroke-linecap:round;stroke-linejoin:round;stroke:#000;stroke-miterlimit:10" transform="matrix(.90233 .43091 .43091 -.90233 39.948 16.601)"/><use x="24.864" xlink:href="#a" y="7.61"/><path d="m99.215-21.148c-2.753 0-4.984 3.121-4.984 6.973 0 3.851 2.23 6.976 4.984 6.976m0 0c31.493 0 25.2 14.172 56.692 14.172m0-13.945c-18.899 0-18.899-14.402 0-14.402m0-13.946c-31.492 0-25.2 14.172-56.692 14.172m113.387 0c-2.754 0-4.98 3.121-4.98 6.973 0 3.851 2.226 6.976 4.98 6.976m-56.695-14.176c18.898 0 18.898 14.403 0 14.403" fill="none" stroke="#000" stroke-miterlimit="10" stroke-width=".3985" transform="matrix(1 0 0 -1 12.015 20.938)"/><path d="m155.907 6.973c31.496 0 25.2-14.172 56.695-14.172m0-13.949c-31.496 0-25.199-14.172-56.695-14.172" fill="none" stroke="#000" stroke-miterlimit="10" stroke-width=".3985" transform="matrix(1 0 0 -1 12.015 20.938)"/><g clip-path="url(#f)"><path d="m212.602-7.199c18.899 0 18.899-13.949 0-13.949" fill="none" stroke="#000" stroke-miterlimit="10" stroke-width=".3985" transform="matrix(1 0 0 -1 12.015 20.938)"/></g><path d="m93.544-21.148c-3.551 4.234-3.551 9.941-.293 13.824" fill="none" stroke="#000" stroke-miterlimit="10" stroke-width=".3985" transform="matrix(1 0 0 -1 12.015 20.938)"/><path d="m-1.193 1.594c.098-.597 1.193-1.494 1.491-1.595-.3-.098-1.393-.995-1.493-1.594" style="fill:none;stroke-width:.31879;stroke-linecap:round;stroke-linejoin:round;stroke:#000;stroke-miterlimit:10" transform="matrix(.64276138 -.76604034 -.76604034 -.64276138 105.265412 28.263211)"/><use x="102.533" xlink:href="#b" y="49.894"/><path d="m147.403 6.235c3.625-4.317 3.625-10.137 0-14.457m0-11.903c2.984-3.558 2.984-8.351 0-11.906m17.008 38.266c-3.621-4.317-3.621-10.137 0-14.457m0-11.903c-2.985-3.558-2.985-8.351 0-11.906" fill="none" stroke="#000" stroke-dasharray="2.98883 2.98883" stroke-miterlimit="10" stroke-width=".3985" transform="matrix(1 0 0 -1 12.015 20.938)"/><use x="155.004" xlink:href="#a" y="9.688"/><use x="159.359" xlink:href="#c" y="11.182"/><use x="172.012" xlink:href="#a" y="9.688"/><use x="176.367" xlink:href="#d" y="11.182"/><path d="m102.047-4.363c10.344.453 16.418 2.14 25.11 6.867" fill="none" stroke="#000" stroke-miterlimit="10" stroke-width=".3985" transform="matrix(1 0 0 -1 12.015 20.938)"/><path d="m-1.194 1.593c.098-.596 1.193-1.494 1.494-1.595-.302-.098-1.394-.994-1.496-1.592" style="fill:none;stroke-width:.31879;stroke-linecap:round;stroke-linejoin:round;stroke:#000;stroke-miterlimit:10" transform="matrix(.87857233 -.47746274 -.47746274 -.87857233 139.173894 18.434915)"/><use x="122.659" xlink:href="#a" y="18.948"/><g transform="matrix(1 0 0 -1 12.015 20.938)"><path d="m155.907-77.84c-18.899 0-18.899-14.402 0-14.402" fill="none" stroke="#000" stroke-miterlimit="10" stroke-width=".3985"/><path d="m155.907-106.187c-37.793 0-37.793 42.293 0 42.293m0-28.348c18.898 0 18.898 14.403 0 14.403" fill="none" stroke="#000" stroke-miterlimit="10" stroke-width=".3985"/><path d="m155.907-63.894c37.797 0 37.797-42.293 0-42.293" fill="none" stroke="#000" stroke-miterlimit="10" stroke-width=".3985"/><path d="m147.403-64.632c3.625-4.317 3.625-10.137 0-14.457m0-11.903c2.984-3.558 2.984-8.351 0-11.906m17.008 38.266c-3.621-4.317-3.621-10.137 0-14.457m0-11.903c-2.985-3.558-2.985-8.351 0-11.906" fill="none" stroke="#000" stroke-dasharray="2.98883 2.98883" stroke-miterlimit="10" stroke-width=".3985"/></g><use x="155.004" xlink:href="#a" y="119.739"/><use x="159.359" xlink:href="#c" y="121.233"/><use x="172.012" xlink:href="#a" y="119.739"/><use x="176.367" xlink:href="#d" y="121.233"/><path d="m124.727-79.37c3.387 9.617 9.817 15.132 19.39 16.921" fill="none" stroke="#000" stroke-miterlimit="10" stroke-width=".3985" transform="matrix(1 0 0 -1 12.015 20.938)"/><path d="m-1.196 1.593c.098-.598 1.194-1.495 1.494-1.595-.298-.098-1.395-.995-1.495-1.592" style="fill:none;stroke-width:.31879;stroke-linecap:round;stroke-linejoin:round;stroke:#000;stroke-miterlimit:10" transform="matrix(.98287637 -.18394031 -.18394031 -.98287637 156.133242 83.385227)"/><use x="127.736" xlink:href="#a" y="96.788"/><path d="m128.977-85.039c3.387 2.84 7.953 2.84 10.988.293" fill="none" stroke="#000" stroke-miterlimit="10" stroke-width=".3985" transform="matrix(1 0 0 -1 12.015 20.938)"/><path d="m-1.195 1.593c.098-.596 1.198-1.493 1.495-1.592-.298-.101-1.397-.998-1.496-1.596" style="fill:none;stroke-width:.31879;stroke-linecap:round;stroke-linejoin:round;stroke:#000;stroke-miterlimit:10" transform="matrix(.76604444 .64278761 .64278761 -.76604444 151.980638 105.682629)"/><use x="144.511" xlink:href="#b" y="113.787"/><path d="m153.782-42.519v-11.34m4.25 0v11.34m-108.426-42.52c0 11.739-9.516 21.258-21.258 21.258s-21.261-9.52-21.261-21.258c0-11.742 9.52-21.261 21.261-21.261 11.742 0 21.258 9.52 21.258 21.261zm0 0" fill="none" stroke="#000" stroke-miterlimit="10" stroke-width=".3985" transform="matrix(1 0 0 -1 12.015 20.938)"/><path d="m26.493-106.218c-4.274 15.953-4.274 26.402 0 42.355" fill="none" stroke="#000" stroke-dasharray="2.98883 2.98883" stroke-miterlimit="10" stroke-width=".3985" transform="matrix(1 0 0 -1 12.015 20.938)"/><use x="34.096" xlink:href="#a" y="134.965"/><use x="38.451" xlink:href="#d" y="136.459"/><path d="m37.333-104.308c9.66 11.512 9.66 27.023 0 38.535" fill="none" stroke="#000" stroke-dasharray="2.98883 2.98883" stroke-miterlimit="10" stroke-width=".3985" transform="matrix(1 0 0 -1 12.015 20.938)"/><use x="52.866" xlink:href="#a" y="88.107"/><use x="57.221" xlink:href="#c" y="89.601"/><path d="m17.489-94.152c-2.43 6.68-2.43 11.543-.156 17.793" fill="none" stroke="#000" stroke-miterlimit="10" stroke-width=".3985" transform="matrix(1 0 0 -1 12.015 20.938)"/><path d="m-1.194 1.594c.097-.596 1.194-1.494 1.49-1.594-.296-.1-1.389-.997-1.492-1.595" style="fill:none;stroke-width:.31879;stroke-linecap:round;stroke-linejoin:round;stroke:#000;stroke-miterlimit:10" transform="matrix(.3420297 -.93966786 -.93966786 -.3420297 29.347585 97.298366)"/><use x="22.422" xlink:href="#b" y="108.122"/><path d="m26.22-42.519v-11.34m4.253 0v11.34m-20.461-57.371c-8.043 8.043-8.043 21.656 0 29.7" fill="none" stroke="#000" stroke-miterlimit="10" stroke-width=".3985" transform="matrix(1 0 0 -1 12.015 20.938)"/><path d="m-1.194 1.596c.096-.6 1.193-1.497 1.491-1.597-.297-.099-1.392-.994-1.494-1.594" style="fill:none;stroke-width:.31879;stroke-linecap:round;stroke-linejoin:round;stroke:#000;stroke-miterlimit:10" transform="matrix(.70710678 .70710678 .70710678 -.70710678 22.028811 120.829746)"/><path d="m-1.197 1.594c.102-.599 1.196-1.494 1.494-1.593-.298-.1-1.395-.997-1.492-1.597" style="fill:none;stroke-width:.31879;stroke-linecap:round;stroke-linejoin:round;stroke:#000;stroke-miterlimit:10" transform="matrix(.70710678 -.70710678 -.70710678 -.70710678 22.029122 91.129004)"/><use x="7.409" xlink:href="#a" y="108.122"/></svg>