<svg xmlns="http://www.w3.org/2000/svg" xmlns:xlink="http://www.w3.org/1999/xlink" width="489.24" height="276.44" viewBox="0 0 366.93 207.33"><defs><symbol overflow="visible" id="a"><path d="M9.14-5.656c.25-.438.485-.797 1.126-.844.078-.016.187-.016.187-.203 0-.031-.047-.11-.125-.11-.234 0-.515.032-.765.032-.344 0-.704-.032-1.047-.032-.047 0-.188 0-.188.188 0 .11.094.125.156.125.235.016.594.094.594.39 0 .11-.062.188-.14.329L6.25-1.094 5.875-6.03c0-.203-.016-.453.703-.469.172 0 .266 0 .266-.203 0-.094-.11-.11-.14-.11-.407 0-.829.032-1.22.032-.234 0-.812-.032-1.046-.032-.063 0-.188 0-.188.204 0 .109.094.109.234.109.438 0 .516.063.532.25l.062.766-2.531 4.39-.375-5.047c0-.125 0-.343.765-.359.094 0 .204 0 .204-.203 0-.11-.125-.11-.141-.11-.39 0-.813.032-1.219.032-.36 0-.718-.032-1.047-.032-.062 0-.187 0-.187.188 0 .125.094.125.25.125.5 0 .515.094.531.375l.453 6.078c0 .188.016.266.157.266.109 0 .14-.063.234-.203l2.937-5.094.36 5.031c.031.219.047.266.156.266.14 0 .203-.094.25-.188zm0 0"/></symbol><symbol overflow="visible" id="d"><path d="M6.266-5.672c.484-.781.906-.812 1.265-.828.125-.016.14-.172.14-.188 0-.078-.062-.125-.14-.125-.25 0-.547.032-.812.032-.328 0-.672-.032-.985-.032-.062 0-.187 0-.187.188 0 .11.078.125.156.125.266.016.453.125.453.328 0 .156-.14.375-.14.375L2.953-.922l-.687-5.281c0-.172.234-.297.687-.297.14 0 .25 0 .25-.203 0-.078-.078-.11-.125-.11-.406 0-.828.032-1.25.032h-.547c-.172 0-.36-.032-.531-.032-.078 0-.188 0-.188.188 0 .125.079.125.25.125.547 0 .563.094.594.344l.782 6.14c.03.204.078.235.203.235.156 0 .203-.047.28-.172zm0 0"/></symbol><symbol overflow="visible" id="j"><path d="M3.328-3.016c.063-.25.297-1.171.985-1.171.046 0 .296 0 .5.125a.578.578 0 00-.47.546c0 .157.11.344.376.344a.546.546 0 00.531-.578c0-.516-.578-.656-.922-.656-.578 0-.922.531-1.047.75-.25-.656-.781-.75-1.078-.75-1.031 0-1.61 1.281-1.61 1.531 0 .11.11.11.126.11.078 0 .11-.032.125-.11.344-1.063 1-1.313 1.344-1.313.187 0 .53.094.53.672 0 .313-.171.97-.53 2.375-.157.61-.516 1.032-.954 1.032-.062 0-.28 0-.5-.125.25-.063.47-.266.47-.547 0-.266-.22-.344-.36-.344-.313 0-.547.25-.547.578 0 .453.484.656.922.656.672 0 1.031-.703 1.047-.75.125.36.484.75 1.078.75 1.031 0 1.594-1.28 1.594-1.53 0-.11-.079-.11-.11-.11-.094 0-.11.047-.14.11-.329 1.077-1 1.312-1.313 1.312-.39 0-.547-.313-.547-.657 0-.218.047-.437.156-.875zm0 0"/></symbol><symbol overflow="visible" id="m"><path d="M.453 1.219c-.078.343-.11.406-.547.406-.11 0-.218 0-.218.188 0 .078.046.125.124.125.266 0 .563-.032.829-.032.343 0 .671.032 1 .032.046 0 .171 0 .171-.204 0-.109-.093-.109-.234-.109-.5 0-.5-.063-.5-.156 0-.125.422-1.75.484-2 .125.297.407.64.922.64 1.157 0 2.407-1.453 2.407-2.921 0-.938-.579-1.594-1.329-1.594-.5 0-.984.36-1.312.75-.094-.547-.531-.75-.89-.75-.47 0-.657.39-.735.562-.188.344-.313.938-.313.969 0 .11.094.11.11.11.11 0 .11-.016.172-.235.172-.703.375-1.188.734-1.188.172 0 .313.079.313.454 0 .234-.032.343-.079.515zm1.75-4.328c.063-.266.344-.547.516-.704.36-.296.64-.374.812-.374.39 0 .64.343.64.937 0 .594-.327 1.734-.515 2.11-.344.702-.812 1.03-1.187 1.03-.656 0-.781-.828-.781-.89 0-.016 0-.031.03-.156zm0 0"/></symbol><symbol overflow="visible" id="q"><path d="M2.031-.016c0-.656-.25-1.046-.64-1.046a.517.517 0 00-.532.53c0 .266.204.532.532.532a.58.58 0 00.343-.125c.032-.031.047-.031.047-.031.016 0 .016 0 .016.14 0 .75-.344 1.344-.672 1.672-.11.11-.11.125-.11.157 0 .078.048.109.094.109.11 0 .922-.766.922-1.938zm0 0"/></symbol><symbol overflow="visible" id="K"><path d="M9.234-6.047c.094-.36.11-.453.86-.453.219 0 .312 0 .312-.203 0-.11-.094-.11-.265-.11H8.828c-.265 0-.281 0-.39.188L4.796-.937l-.781-5.641c-.032-.234-.047-.234-.313-.234h-1.36c-.187 0-.296 0-.296.187 0 .125.094.125.281.125.14 0 .313.016.438.016.156.03.218.046.218.171 0 .032-.015.063-.046.188L1.671-1.062c-.094.406-.266.718-1.078.75-.047 0-.172.015-.172.187 0 .094.062.125.14.125.313 0 .657-.031 1-.031.329 0 .688.031 1.016.031.047 0 .188 0 .188-.203 0-.11-.11-.11-.188-.11-.562 0-.672-.203-.672-.437 0-.063 0-.125.032-.234l1.359-5.422h.015l.86 6.172c.016.125.031.234.14.234.11 0 .172-.11.22-.172l4.03-6.312h.016L7.141-.781c-.094.39-.11.469-.907.469-.156 0-.265 0-.265.187 0 .125.11.125.14.125.282 0 .954-.031 1.235-.031.406 0 .843.031 1.25.031.062 0 .187 0 .187-.203 0-.11-.094-.11-.281-.11-.36 0-.64 0-.64-.171 0-.047 0-.063.046-.25zm0 0"/></symbol><symbol overflow="visible" id="b"><path d="M2.328-4.438c0-.187 0-.187-.203-.187-.453.438-1.078.438-1.36.438v.25c.157 0 .626 0 1-.188v3.547c0 .234 0 .328-.687.328H.812V0c.125 0 .985-.031 1.235-.031.219 0 1.094.031 1.25.031v-.25H3.03c-.703 0-.703-.094-.703-.328zm0 0"/></symbol><symbol overflow="visible" id="c"><path d="M3.516-1.266H3.28c-.015.157-.094.563-.187.625-.047.047-.578.047-.688.047H1.125c.734-.64.984-.844 1.39-1.172.516-.406 1-.843 1-1.5 0-.843-.734-1.359-1.624-1.359-.86 0-1.454.61-1.454 1.25 0 .344.297.39.376.39.156 0 .359-.124.359-.374 0-.125-.047-.375-.406-.375.218-.485.687-.641 1.015-.641.703 0 1.063.547 1.063 1.11 0 .609-.438 1.078-.656 1.328L.516-.266C.437-.203.437-.187.437 0h2.876zm0 0"/></symbol><symbol overflow="visible" id="l"><path d="M1.906-2.328c.547 0 .938.375.938 1.125 0 .86-.516 1.125-.906 1.125-.282 0-.907-.078-1.188-.5.328 0 .406-.235.406-.39 0-.22-.172-.376-.39-.376a.38.38 0 00-.391.407C.375-.281 1.094.14 1.938.14c.968 0 1.64-.657 1.64-1.344 0-.547-.437-1.094-1.203-1.25.719-.266.984-.781.984-1.219 0-.547-.625-.953-1.406-.953-.766 0-1.36.375-1.36.938 0 .234.157.359.36.359.219 0 .36-.156.36-.344 0-.203-.141-.36-.36-.375.25-.297.719-.375.985-.375.312 0 .75.156.75.75 0 .297-.094.625-.282.828-.219.266-.422.281-.765.313-.172.015-.188.015-.22.015-.015 0-.077.016-.077.094 0 .094.062.094.187.094zm0 0"/></symbol><symbol overflow="visible" id="e"><path d="M2.89-3.516c.813-.265 1.391-.953 1.391-1.75 0-.812-.875-1.375-1.828-1.375-1 0-1.765.594-1.765 1.36 0 .328.218.515.515.515.297 0 .5-.218.5-.515 0-.485-.469-.485-.61-.485.298-.5.954-.625 1.313-.625.422 0 .969.22.969 1.11 0 .125-.031.703-.281 1.14-.297.485-.64.516-.89.516a3.29 3.29 0 01-.392.031c-.078.016-.14.031-.14.125 0 .11.062.11.234.11h.438c.812 0 1.187.671 1.187 1.656 0 1.36-.687 1.64-1.125 1.64-.437 0-1.187-.171-1.531-.75.344.047.656-.171.656-.546a.537.537 0 00-.547-.563c-.25 0-.562.14-.562.578C.422-.437 1.344.22 2.437.22c1.22 0 2.126-.906 2.126-1.922 0-.813-.641-1.594-1.672-1.813zm0 0"/></symbol><symbol overflow="visible" id="f"><path d="M2.938-6.375c0-.25 0-.266-.235-.266C2.078-6 1.203-6 .891-6v.313c.203 0 .78 0 1.296-.266v5.172c0 .36-.03.469-.921.469H.953V0c.344-.031 1.203-.031 1.61-.031.39 0 1.265 0 1.609.031v-.313h-.313c-.906 0-.921-.109-.921-.468zm0 0"/></symbol><symbol overflow="visible" id="g"><path d="M1.266-.766l1.062-1.03c1.547-1.376 2.14-1.907 2.14-2.907 0-1.14-.89-1.938-2.109-1.938C1.234-6.64.5-5.719.5-4.828c0 .547.5.547.531.547.172 0 .516-.11.516-.532a.513.513 0 00-.531-.515c-.079 0-.094 0-.125.016.218-.657.765-1.016 1.343-1.016.907 0 1.329.812 1.329 1.625 0 .797-.485 1.578-1.047 2.203L.609-.375C.5-.265.5-.235.5 0h3.703l.266-1.734h-.235C4.172-1.438 4.11-1 4-.844c-.063.078-.719.078-.938.078zm0 0"/></symbol><symbol overflow="visible" id="k"><path d="M2.5-6.922l-1.344 1.36.172.171L2.5-6.406l1.14 1.015.172-.171zm0 0"/></symbol><symbol overflow="visible" id="n"><path d="M3.297 2.39c0-.03 0-.046-.172-.218C1.891.922 1.562-.968 1.562-2.5c0-1.734.375-3.469 1.61-4.703.125-.125.125-.14.125-.172 0-.078-.031-.11-.094-.11-.11 0-1 .688-1.594 1.954C1.11-4.438.984-3.328.984-2.5c0 .781.11 1.984.657 3.125C2.25 1.844 3.094 2.5 3.203 2.5c.063 0 .094-.031.094-.11zm0 0"/></symbol><symbol overflow="visible" id="p"><path d="M2.875-2.5c0-.766-.11-1.969-.656-3.11C1.625-6.827.766-7.483.672-7.483a.107.107 0 00-.11.109c0 .031 0 .047.188.234.984.985 1.547 2.563 1.547 4.641 0 1.719-.36 3.469-1.594 4.719-.14.125-.14.14-.14.172 0 .062.046.109.109.109.094 0 1-.688 1.578-1.953.516-1.094.625-2.203.625-3.047zm0 0"/></symbol><symbol overflow="visible" id="M"><path d="M6.844-3.266c.156 0 .343 0 .343-.187 0-.203-.187-.203-.328-.203H.891c-.141 0-.329 0-.329.203 0 .187.188.187.329.187zm.015 1.938c.141 0 .329 0 .329-.203 0-.188-.188-.188-.344-.188H.89c-.141 0-.329 0-.329.188 0 .203.188.203.329.203zm0 0"/></symbol><symbol overflow="visible" id="o"><path d="M1.578-7.125c0-.172 0-.36-.187-.36-.204 0-.204.188-.204.36v9.266c0 .171 0 .359.204.359.187 0 .187-.188.187-.36zm0 0"/></symbol><symbol overflow="visible" id="r"><path d="M5.5-3.578c0-1.094-.875-1.844-2.563-1.844-.671 0-2.078.063-2.078 1.078 0 .5.391.703.704.703.359 0 .703-.25.703-.703 0-.218-.079-.437-.282-.562.391-.11.688-.11.907-.11.812 0 1.312.454 1.312 1.438v.469c-1.89 0-3.797.53-3.797 1.859C.406-.172 1.796.078 2.625.078c.906 0 1.5-.515 1.734-1.031 0 .437 0 .953 1.204.953h.625c.25 0 .343 0 .343-.266 0-.25-.11-.25-.281-.25C5.5-.53 5.5-.719 5.5-.984zM4.203-1.656c0 1.125-1.016 1.328-1.39 1.328-.594 0-1.079-.39-1.079-.938 0-1.093 1.297-1.453 2.47-1.515zm0 0"/></symbol><symbol overflow="visible" id="s"><path d="M4.219-5.281v.515c.734 0 .828 0 .828.47v2.343c0 .906-.547 1.625-1.469 1.625-.906 0-.953-.297-.953-.953v-4.094L.5-5.281v.515c.75 0 .828 0 .828.47v2.827c0 1.188.797 1.547 2.078 1.547.281 0 1.172 0 1.688-.969h.015v.97L7.172 0v-.516c-.734 0-.828 0-.828-.468v-4.391zm0 0"/></symbol><symbol overflow="visible" id="t"><path d="M2.516-4.797H4.25v-.516H2.516v-2.28h-.5c0 1.187-.579 2.374-1.766 2.405v.391h.969v3.328c0 1.266.984 1.547 1.843 1.547.876 0 1.407-.672 1.407-1.562v-.625h-.5v.609c0 .797-.36 1.14-.735 1.14-.718 0-.718-.796-.718-1.078zm0 0"/></symbol><symbol overflow="visible" id="u"><path d="M6.328-2.625c0-1.61-1.094-2.797-2.969-2.797-1.953 0-2.984 1.25-2.984 2.797C.375-1.047 1.469.078 3.344.078c1.953 0 2.984-1.187 2.984-2.703zM3.36-.359c-1.546 0-1.546-1.391-1.546-2.375 0-.563 0-1.157.218-1.594.266-.484.797-.688 1.313-.688.687 0 1.11.313 1.312.657.25.421.25 1.046.25 1.625 0 .984 0 2.375-1.547 2.375zm0 0"/></symbol><symbol overflow="visible" id="v"><path d="M5.406-2.64c.266 0 .344 0 .344-.297 0-.36-.078-1.266-.64-1.813-.5-.516-1.173-.672-1.86-.672-1.86 0-2.875 1.219-2.875 2.734C.375-1.016 1.609.079 3.406.079 5.22.078 5.75-1.188 5.75-1.406c0-.172-.188-.172-.25-.172-.188 0-.203.031-.281.187-.313.782-1.094 1.032-1.672 1.032-1.735 0-1.735-1.61-1.735-2.282zm-3.593-.344c.015-.5.03-.954.28-1.391a1.32 1.32 0 011.157-.64c1.281 0 1.39 1.437 1.406 2.03zm0 0"/></symbol><symbol overflow="visible" id="w"><path d="M6.344-3.656c0-1.14-.485-1.719-1.797-1.719-.86 0-1.61.422-2.016 1.313h-.015v-1.313L.5-5.281v.515c.75 0 .828 0 .828.47v3.78H.5V0c.281-.031 1.14-.031 1.469-.031.343 0 1.203 0 1.484.031v-.516h-.828v-2.546c0-1.282.953-1.922 1.719-1.922.453 0 .703.28.703 1.187v3.281h-.828V0c.281-.031 1.14-.031 1.468-.031.344 0 1.204 0 1.485.031v-.516h-.828zm0 0"/></symbol><symbol overflow="visible" id="x"><path d="M5.594-1.406c0-.14-.125-.14-.25-.14-.188 0-.203.015-.266.155-.078.235-.406 1.032-1.5 1.032-1.687 0-1.687-1.813-1.687-2.36 0-.703.015-2.265 1.578-2.265.078 0 .781.03.781.078 0 .015 0 .031-.031.047a.733.733 0 00-.188.515c0 .5.407.703.703.703.25 0 .704-.156.704-.718 0-.985-1.375-1.063-2.016-1.063-2.125 0-2.969 1.39-2.969 2.766 0 1.625 1.14 2.734 2.89 2.734 1.876 0 2.25-1.39 2.25-1.484zm0 0"/></symbol><symbol overflow="visible" id="y"><path d="M4.14-8.203v.515c.75 0 .829 0 .829.47v2.405a2.45 2.45 0 00-1.61-.562C1.656-5.375.453-4.328.453-2.656.453-.937 1.641.078 3.234.078a2.51 2.51 0 001.672-.625v.625L7.046 0v-.516c-.75 0-.827 0-.827-.468v-7.313zm.766 7c-.5.719-1.11.875-1.531.875-1.484 0-1.484-1.516-1.484-2.297 0-.563 0-1.172.265-1.625.36-.656 1.078-.734 1.344-.734.5 0 1.016.218 1.406.734zm0 0"/></symbol><symbol overflow="visible" id="z"><path d="M2.484-2.688c0-.39.079-2.296 1.485-2.296-.172.125-.25.328-.25.546 0 .5.39.704.687.704.297 0 .703-.204.703-.704 0-.609-.625-.937-1.203-.937-.937 0-1.344.828-1.515 1.328h-.016v-1.328l-1.953.094v.515c.734 0 .828 0 .828.47v3.78H.422V0c.266-.031 1.172-.031 1.5-.031.344 0 1.312 0 1.61.031v-.516H2.483zm0 0"/></symbol><symbol overflow="visible" id="A"><path d="M6.375-1.516L3.5-7.953c-.11-.25-.219-.25-.469-.25H.484v.515H1.75v6.813c0 .266 0 .281-.313.328a9.664 9.664 0 01-.671.031H.484V0c.282-.031 1.22-.031 1.547-.031.328 0 1.281 0 1.547.031v-.516h-.265c-.329 0-.344 0-.641-.03-.344-.048-.36-.063-.36-.329v-6.672h.016L5.578-.25c.063.125.14.25.344.25.203 0 .266-.125.328-.25l3.313-7.438h.015v7.172H8.313V0c.312-.031 1.562-.031 1.968-.031.406 0 1.64 0 1.969.031v-.516h-1.266v-7.171h1.266v-.516H9.703c-.25 0-.36 0-.469.25zm0 0"/></symbol><symbol overflow="visible" id="B"><path d="M5.469-8.094c-.078-.219-.11-.265-.39-.265-.298 0-.329.046-.407.265L1.703-.797c-.078.188-.078.219-.406.25-.313.031-.36.031-.61.031H.47V0C.78-.031 1.5-.031 1.844-.031c.312 0 1.187 0 1.468.031v-.516c-.265 0-.718 0-1.046-.125.03-.109.03-.14.046-.187l.641-1.547h3.203l.75 1.86H5.781V0c.39-.031 1.547-.031 2-.031.375 0 1.61 0 1.907.031v-.516H8.546zm-.922 1.766l1.39 3.437h-2.78zm0 0"/></symbol><symbol overflow="visible" id="C"><path d="M.453-8.203v.515H1.72v7.172H.453V0h5.031c2.297 0 4.063-1.469 4.063-4.031 0-2.703-1.813-4.172-4.063-4.172zM3.234-.516v-7.171h1.797c1.047 0 1.875.406 2.313 1.03.36.485.578 1.079.578 2.61 0 1.406-.172 2.031-.594 2.594-.422.547-1.219.937-2.297.937zm0 0"/></symbol><symbol overflow="visible" id="D"><path d="M8.438-3.234h-.5c-.25 1.78-.688 2.718-2.782 2.718h-1.86v-3.453H4c1.156 0 1.266.485 1.266 1.406h.5v-3.312h-.5c0 .89-.11 1.39-1.266 1.39h-.703v-3.14h1.86c1.843 0 2.234.781 2.405 2.313h.5L7.72-8.142H.453v.516H1.72v7.11H.453V0h7.469zm0 0"/></symbol><symbol overflow="visible" id="E"><path d="M10.094-3.656c0-1.094-.469-1.719-1.813-1.719-1.203 0-1.765.813-1.953 1.188-.203-1.016-1.016-1.188-1.781-1.188-1.14 0-1.766.734-2.016 1.313h-.015v-1.313L.5-5.281v.515c.75 0 .828 0 .828.47v3.78H.5V0c.281-.031 1.14-.031 1.469-.031.343 0 1.203 0 1.484.031v-.516h-.828v-2.546c0-1.297.969-1.922 1.719-1.922.453 0 .718.265.718 1.187v3.281h-.828V0C4.5-.031 5.36-.031 5.704-.031c.327 0 1.202 0 1.484.031v-.516h-.829v-2.546c0-1.297.97-1.922 1.72-1.922.437 0 .702.265.702 1.187v3.281h-.828V0c.281-.031 1.14-.031 1.484-.031.329 0 1.204 0 1.47.031v-.516h-.813zm0 0"/></symbol><symbol overflow="visible" id="F"><path d="M4.5-5.11c0-.218 0-.312-.172-.312-.078 0-.094 0-.281.11a1.225 1.225 0 01-.234.156c-.329-.188-.782-.266-1.204-.266-.359 0-2.156 0-2.156 1.563 0 1.25 1.484 1.515 1.86 1.578.312.062.718.125.765.125.469.11.953.406.953.906 0 .922-1.093.922-1.343.922-.61 0-1.36-.188-1.704-1.344-.062-.234-.078-.25-.28-.25-.25 0-.25.031-.25.313v1.375c0 .218 0 .312.187.312.078 0 .093 0 .343-.203l.313-.219c.531.422 1.172.422 1.39.422.657 0 2.157-.156 2.157-1.734 0-.578-.313-.969-.547-1.188-.5-.406-.906-.484-1.547-.594-.766-.14-1.484-.265-1.484-.843 0-.782 1.062-.782 1.312-.782 1.328 0 1.406.844 1.422 1.141.016.156.11.156.25.156.25 0 .25-.03.25-.312zm0 0"/></symbol><symbol overflow="visible" id="G"><path d="M3.969-3.344l1.5-1.219c.156-.125.281-.234 1.11-.234v-.516c-.313.032-.548.032-1 .032-.313 0-.97 0-1.25-.032v.516c.14 0 .421.047.421.14 0 .048-.063.095-.094.11l-2.172 1.75v-5.5l-2.062.094v.515c.734 0 .828 0 .828.47v6.702H.422V0c.266-.031 1.094-.031 1.422-.031.312 0 1.14 0 1.422.031v-.516h-.829v-1.593c.188-.157.376-.313.641-.516l1.438 1.86c.093.093.093.124.093.124 0 .125-.25.125-.406.125V0c.281-.031 1.063-.031 1.39-.031.61 0 .782 0 1.282.031v-.516c-.188 0-.438 0-.563-.015-.171-.031-.218-.063-.343-.235zm0 0"/></symbol><symbol overflow="visible" id="H"><path d="M4.75-3v.016c-.14.109-.25.25-.39.375L2.624-.875c-.234.234-.672.563-.672.828 0 .172.156.328.344.328.172 0 .25-.125.344-.219l2.375-2.374c.046-.047.14-.172.203-.172.078 0 .156.125.203.171L7.812.063c.094.093.204.218.344.218a.337.337 0 00.328-.312v-.032c0-.234-.406-.546-.625-.78L6.11-2.579c-.14-.14-.265-.297-.421-.406L7.452-4.75c.344-.344 1.031-.89 1.031-1.188a.33.33 0 00-.328-.328c-.156 0-.265.141-.36.235l-2.374 2.36c-.047.046-.125.171-.203.171-.063 0-.157-.125-.203-.172L2.64-6.047c-.094-.094-.172-.219-.344-.219a.334.334 0 00-.344.329c0 .265.453.593.688.828l1.718 1.734c.141.125.25.266.391.375zm0 0"/></symbol><symbol overflow="visible" id="I"><path d="M7.875-2.75c.203 0 .422 0 .422-.234 0-.25-.219-.25-.422-.25H1.406c-.203 0-.422 0-.422.25 0 .234.22.234.422.234zm0 0"/></symbol><symbol overflow="visible" id="J"><path d="M9.969-2.75c-.656.5-.985 1-1.078 1.14-.532.829-.625 1.579-.625 1.594 0 .141.14.141.234.141.203 0 .219-.016.266-.234.265-1.172.968-2.172 2.328-2.72.14-.046.172-.077.172-.155 0-.094-.063-.125-.094-.141-.516-.203-1.969-.797-2.422-2.797-.031-.156-.047-.187-.25-.187-.094 0-.234 0-.234.14 0 .032.093.782.609 1.578.234.36.578.782 1.094 1.157H1.094c-.219 0-.438 0-.438.25 0 .234.219.234.438.234zm0 0"/></symbol><symbol overflow="visible" id="L"><path d="M4.984-3.938c.25-.374.485-.546.86-.578.078 0 .156 0 .156-.14 0-.032-.016-.11-.094-.11-.172 0-.39.032-.562.032-.219 0-.516-.032-.719-.032-.063 0-.14.032-.14.157 0 .093.093.093.124.093.22.016.282.11.282.204 0 .109-.047.171-.125.28L2.484-.655l-.64-3.563c-.016-.062-.016-.078-.016-.11 0-.187.39-.187.438-.187.125 0 .218 0 .218-.14a.117.117 0 00-.125-.11c-.203 0-.687.032-.89.032-.172 0-.61-.032-.782-.032-.062 0-.14.032-.14.157 0 .093.094.093.172.093.39 0 .406.047.437.235l.766 4.234c.016.14.031.188.156.188.14 0 .172-.047.25-.157zm0 0"/></symbol><symbol overflow="visible" id="N"><path d="M7.219-3.938l.125-.187c.14-.188.312-.36.656-.39.078 0 .156 0 .156-.141 0-.047-.031-.11-.094-.11-.156 0-.359.032-.53.032-.235 0-.548-.032-.766-.032-.047 0-.157 0-.157.157 0 .093.094.093.125.093.157.016.391.063.391.25 0 .079-.078.204-.11.25L5.048-.78l-.375-3.531c0-.188.406-.204.484-.204.094 0 .188 0 .188-.14 0-.016 0-.11-.125-.11s-.297.016-.422.032h-.469c-.156 0-.562-.032-.719-.032-.046 0-.14 0-.14.157 0 .093.078.093.172.093.296 0 .343.063.359.125 0 .047.016.235.047.454L2.125-.781l-.36-3.422c0-.031-.015-.094-.015-.11 0-.203.438-.203.484-.203.094 0 .188 0 .188-.14 0-.032-.016-.11-.11-.11-.203 0-.703.032-.89.032-.234 0-.531-.032-.734-.032-.079 0-.141.032-.141.157 0 .093.078.093.187.093.329 0 .329.047.36.22l.453 4.25c.016.14.031.187.156.187.11 0 .172-.063.203-.141l2.172-3.578.39 3.531c.016.156.048.188.157.188.11 0 .156-.063.203-.141zm0 0"/></symbol><symbol overflow="visible" id="O"><path d="M2.938-.969h-.22c0 .094-.062.406-.14.453-.031.032-.453.032-.531.032h-.969c.328-.235.688-.516.984-.72.454-.312.876-.593.876-1.124 0-.64-.61-.985-1.313-.985-.672 0-1.172.376-1.172.876 0 .25.219.296.297.296a.283.283 0 00.281-.296.27.27 0 00-.281-.282c.14-.234.438-.375.766-.375.484 0 .89.281.89.766 0 .422-.297.75-.672 1.062L.516-.234c-.047.047-.063.047-.063.078V0h2.313zm0 0"/></symbol><symbol overflow="visible" id="P"><path d="M1.984-3.172c0-.14-.015-.14-.187-.14C1.453-3 .89-3 .797-3H.719v.219h.078c.11 0 .437-.016.734-.14v2.5c0 .14 0 .202-.531.202H.75V0c.266-.016.719-.016 1-.016.297 0 .734 0 1.016.016v-.219h-.25c-.532 0-.532-.062-.532-.203zm0 0"/></symbol><clipPath id="h"><path d="M329 90h37.93v42H329zm0 0"/></clipPath><clipPath id="i"><path d="M329 48h37.93v41H329zm0 0"/></clipPath></defs><path d="M88.422 153.508a8.58 8.58 0 00-8.578-8.578 8.58 8.58 0 00-8.578 8.578c0 4.738 3.84 8.582 8.578 8.582 4.738 0 8.578-3.844 8.578-8.582zm0 0M60.078 153.508a8.58 8.58 0 00-17.16 0c0 4.738 3.84 8.582 8.578 8.582a8.584 8.584 0 008.582-8.582zm0 0M31.73 153.508a8.58 8.58 0 10-17.16.005 8.58 8.58 0 0017.16-.005zm0 0M102.598 110.988a8.58 8.58 0 00-8.578-8.578c-4.739 0-8.582 3.84-8.582 8.578a8.584 8.584 0 008.582 8.582c4.734 0 8.578-3.843 8.578-8.582zm0 0M74.25 110.988a8.577 8.577 0 00-8.578-8.578c-4.738 0-8.582 3.84-8.582 8.578a8.584 8.584 0 008.582 8.582c4.738 0 8.578-3.843 8.578-8.582zm0 0M45.902 110.988a8.577 8.577 0 00-8.578-8.578 8.577 8.577 0 00-8.578 8.578c0 4.739 3.84 8.582 8.578 8.582 4.739 0 8.578-3.843 8.578-8.582zm0 0M17.555 110.988a8.577 8.577 0 00-8.578-8.578 8.577 8.577 0 00-8.579 8.578c0 4.739 3.84 8.582 8.579 8.582 4.738 0 8.578-3.843 8.578-8.582zm0 0M102.598 68.469a8.58 8.58 0 00-8.578-8.578c-4.739 0-8.582 3.84-8.582 8.578 0 4.738 3.843 8.578 8.582 8.578a8.58 8.58 0 008.578-8.578zm0 0M74.25 68.469a8.577 8.577 0 00-8.578-8.578c-4.738 0-8.582 3.84-8.582 8.578 0 4.738 3.844 8.578 8.582 8.578a8.577 8.577 0 008.578-8.578zm0 0M45.902 68.469a8.577 8.577 0 00-8.578-8.578 8.577 8.577 0 00-8.578 8.578 8.577 8.577 0 008.578 8.578 8.577 8.577 0 008.578-8.578zm0 0M17.555 68.469a8.577 8.577 0 00-8.578-8.578 8.577 8.577 0 00-8.579 8.578 8.577 8.577 0 008.579 8.578 8.577 8.577 0 008.578-8.578zm0 0M88.422 25.95a8.577 8.577 0 00-8.578-8.579 8.577 8.577 0 00-8.578 8.578 8.577 8.577 0 008.578 8.578 8.577 8.577 0 008.578-8.578zm0 0M60.078 25.95c0-4.74-3.844-8.579-8.582-8.579a8.577 8.577 0 00-8.578 8.578 8.577 8.577 0 008.578 8.578c4.738 0 8.582-3.84 8.582-8.578zm0 0M31.73 25.95a8.577 8.577 0 00-8.578-8.579 8.578 8.578 0 100 17.156 8.577 8.577 0 008.578-8.578zm0 0" fill="none" stroke-width=".797" stroke="#000" stroke-miterlimit="10"/><path d="M82.996 144.047l7.723-23.16" fill="none" stroke-width=".3985" stroke="#000" stroke-miterlimit="10"/><path d="M88.828 121.516c.598.093 1.797-.66 1.984-.914 0 .316.504 1.64 1.04 1.921" fill="none" stroke-width=".31880000000000003" stroke-linecap="round" stroke-linejoin="round" stroke="#000" stroke-miterlimit="10"/><path d="M58.555 146.46l28.086-28.093" fill="none" stroke-width=".3985" stroke="#000" stroke-miterlimit="10"/><path d="M84.668 118.086c.492.352 1.902.21 2.184.07-.141.282-.282 1.688.07 2.184" fill="none" stroke-width=".31880000000000003" stroke-linecap="round" stroke-linejoin="round" stroke="#000" stroke-miterlimit="10"/><path d="M31.703 148.379l53.371-32.024" fill="none" stroke-width=".3985" stroke="#000" stroke-miterlimit="10"/><path d="M83.227 115.605c.394.461 1.793.665 2.101.598-.203.238-.683 1.57-.46 2.137" fill="none" stroke-width=".31880000000000003" stroke-linecap="round" stroke-linejoin="round" stroke="#000" stroke-miterlimit="10"/><path d="M76.691 144.047l-7.722-23.16" fill="none" stroke-width=".3985" stroke="#000" stroke-miterlimit="10"/><path d="M67.836 122.523c.535-.28 1.039-1.605 1.039-1.921.188.253 1.387 1.007 1.984.914" fill="none" stroke-width=".31880000000000003" stroke-linecap="round" stroke-linejoin="round" stroke="#000" stroke-miterlimit="10"/><path d="M54.652 144.047l7.72-23.16" fill="none" stroke-width=".3985" stroke="#000" stroke-miterlimit="10"/><path d="M60.48 121.516c.602.093 1.797-.66 1.985-.914 0 .316.504 1.64 1.043 1.921" fill="none" stroke-width=".31880000000000003" stroke-linecap="round" stroke-linejoin="round" stroke="#000" stroke-miterlimit="10"/><path d="M30.203 146.457l28.09-28.09" fill="none" stroke-width=".3985" stroke="#000" stroke-miterlimit="10"/><path d="M56.32 118.086c.496.352 1.903.21 2.184.07-.14.282-.281 1.688.07 2.184" fill="none" stroke-width=".31880000000000003" stroke-linecap="round" stroke-linejoin="round" stroke="#000" stroke-miterlimit="10"/><path d="M72.79 146.46L44.7 118.368" fill="none" stroke-width=".3985" stroke="#000" stroke-miterlimit="10"/><path d="M44.418 120.34c.352-.496.21-1.902.07-2.184.282.14 1.692.282 2.184-.07" fill="none" stroke-width=".31880000000000003" stroke-linecap="round" stroke-linejoin="round" stroke="#000" stroke-miterlimit="10"/><path d="M48.344 144.047l-7.723-23.16" fill="none" stroke-width=".3985" stroke="#000" stroke-miterlimit="10"/><path d="M39.488 122.523c.535-.28 1.04-1.605 1.04-1.921.19.253 1.386 1.007 1.984.914" fill="none" stroke-width=".31880000000000003" stroke-linecap="round" stroke-linejoin="round" stroke="#000" stroke-miterlimit="10"/><path d="M26.305 144.047l7.718-23.16" fill="none" stroke-width=".3985" stroke="#000" stroke-miterlimit="10"/><path d="M32.137 121.516c.597.093 1.793-.66 1.984-.914 0 .316.504 1.64 1.04 1.921" fill="none" stroke-width=".31880000000000003" stroke-linecap="round" stroke-linejoin="round" stroke="#000" stroke-miterlimit="10"/><path d="M71.293 148.379l-53.371-32.024" fill="none" stroke-width=".3985" stroke="#000" stroke-miterlimit="10"/><path d="M18.129 118.34c.219-.567-.258-1.899-.465-2.137.309.067 1.711-.137 2.102-.598" fill="none" stroke-width=".31880000000000003" stroke-linecap="round" stroke-linejoin="round" stroke="#000" stroke-miterlimit="10"/><path d="M44.441 146.46l-28.09-28.093" fill="none" stroke-width=".3985" stroke="#000" stroke-miterlimit="10"/><path d="M16.07 120.34c.352-.496.211-1.902.07-2.184.282.14 1.692.282 2.188-.07" fill="none" stroke-width=".31880000000000003" stroke-linecap="round" stroke-linejoin="round" stroke="#000" stroke-miterlimit="10"/><path d="M19.996 144.047l-7.719-23.16" fill="none" stroke-width=".3985" stroke="#000" stroke-miterlimit="10"/><path d="M11.14 122.523c.536-.28 1.04-1.605 1.04-1.921.191.253 1.386 1.007 1.984.914" fill="none" stroke-width=".31880000000000003" stroke-linecap="round" stroke-linejoin="round" stroke="#000" stroke-miterlimit="10"/><path d="M94.02 101.016V78.902" fill="none" stroke-width=".3985" stroke="#000" stroke-miterlimit="10"/><path d="M92.422 80.098c.598-.102 1.496-1.196 1.598-1.496.097.3.996 1.394 1.59 1.496" fill="none" stroke-width=".31880000000000003" stroke-linecap="round" stroke-linejoin="round" stroke="#000" stroke-miterlimit="10"/><path d="M71.203 102.691L88.23 77.148" fill="none" stroke-width=".3985" stroke="#000" stroke-miterlimit="10"/><path d="M86.242 77.262c.551.246 1.906-.168 2.156-.364-.085.305.055 1.715.497 2.13" fill="none" stroke-width=".31880000000000003" stroke-linecap="round" stroke-linejoin="round" stroke="#000" stroke-miterlimit="10"/><path d="M45.3 105.004l40.372-30.277" fill="none" stroke-width=".3985" stroke="#000" stroke-miterlimit="10"/><path d="M83.758 74.172c.441.418 1.855.476 2.152.379-.18.258-.515 1.633-.238 2.172" fill="none" stroke-width=".31880000000000003" stroke-linecap="round" stroke-linejoin="round" stroke="#000" stroke-miterlimit="10"/><path d="M17.898 106.531l66.79-33.398" fill="none" stroke-width=".3985" stroke="#000" stroke-miterlimit="10"/><path d="M82.906 72.242c.356.492 1.739.805 2.047.758-.223.223-.8 1.516-.621 2.094" fill="none" stroke-width=".31880000000000003" stroke-linecap="round" stroke-linejoin="round" stroke="#000" stroke-miterlimit="10"/><path d="M88.484 102.691L71.457 77.148" fill="none" stroke-width=".3985" stroke="#000" stroke-miterlimit="10"/><path d="M70.793 79.027c.441-.414.582-1.824.5-2.129.246.196 1.602.61 2.152.364" fill="none" stroke-width=".31880000000000003" stroke-linecap="round" stroke-linejoin="round" stroke="#000" stroke-miterlimit="10"/><path d="M65.672 101.016V78.902" fill="none" stroke-width=".3985" stroke="#000" stroke-miterlimit="10"/><path d="M64.078 80.098c.598-.102 1.492-1.196 1.594-1.496.098.3.996 1.394 1.594 1.496" fill="none" stroke-width=".31880000000000003" stroke-linecap="round" stroke-linejoin="round" stroke="#000" stroke-miterlimit="10"/><path d="M42.855 102.691l17.028-25.543" fill="none" stroke-width=".3985" stroke="#000" stroke-miterlimit="10"/><path d="M57.895 77.262c.554.246 1.906-.168 2.156-.364-.082.305.054 1.715.496 2.13" fill="none" stroke-width=".31880000000000003" stroke-linecap="round" stroke-linejoin="round" stroke="#000" stroke-miterlimit="10"/><path d="M16.957 105.004l40.367-30.277" fill="none" stroke-width=".3985" stroke="#000" stroke-miterlimit="10"/><path d="M55.414 74.172c.438.418 1.852.476 2.152.379-.18.258-.52 1.633-.242 2.172" fill="none" stroke-width=".31880000000000003" stroke-linecap="round" stroke-linejoin="round" stroke="#000" stroke-miterlimit="10"/><path d="M86.04 105.004L45.667 74.727" fill="none" stroke-width=".3985" stroke="#000" stroke-miterlimit="10"/><path d="M45.668 76.723c.281-.54-.059-1.914-.238-2.172.3.097 1.715.039 2.152-.38" fill="none" stroke-width=".31880000000000003" stroke-linecap="round" stroke-linejoin="round" stroke="#000" stroke-miterlimit="10"/><path d="M60.137 102.691L43.109 77.148" fill="none" stroke-width=".3985" stroke="#000" stroke-miterlimit="10"/><path d="M42.445 79.027c.446-.414.582-1.824.5-2.129.246.196 1.602.61 2.153.364" fill="none" stroke-width=".31880000000000003" stroke-linecap="round" stroke-linejoin="round" stroke="#000" stroke-miterlimit="10"/><path d="M37.324 101.016V78.902" fill="none" stroke-width=".3985" stroke="#000" stroke-miterlimit="10"/><path d="M35.73 80.098c.598-.102 1.493-1.196 1.594-1.496.098.3.996 1.394 1.594 1.496" fill="none" stroke-width=".31880000000000003" stroke-linecap="round" stroke-linejoin="round" stroke="#000" stroke-miterlimit="10"/><path d="M14.508 102.691l17.031-25.543" fill="none" stroke-width=".3985" stroke="#000" stroke-miterlimit="10"/><path d="M29.547 77.262c.555.246 1.906-.168 2.156-.364-.082.305.055 1.715.496 2.13" fill="none" stroke-width=".31880000000000003" stroke-linecap="round" stroke-linejoin="round" stroke="#000" stroke-miterlimit="10"/><path d="M85.098 106.531l-66.79-33.398" fill="none" stroke-width=".3985" stroke="#000" stroke-miterlimit="10"/><path d="M18.664 75.094c.18-.578-.402-1.871-.625-2.094.313.047 1.695-.266 2.05-.758" fill="none" stroke-width=".31880000000000003" stroke-linecap="round" stroke-linejoin="round" stroke="#000" stroke-miterlimit="10"/><path d="M57.691 105.004L17.324 74.727" fill="none" stroke-width=".3985" stroke="#000" stroke-miterlimit="10"/><path d="M17.324 76.723c.278-.54-.062-1.914-.242-2.172.3.097 1.715.039 2.152-.38" fill="none" stroke-width=".31880000000000003" stroke-linecap="round" stroke-linejoin="round" stroke="#000" stroke-miterlimit="10"/><path d="M31.793 102.691L14.762 77.148" fill="none" stroke-width=".3985" stroke="#000" stroke-miterlimit="10"/><path d="M14.102 79.027c.441-.414.578-1.824.496-2.129.25.196 1.601.61 2.156.364" fill="none" stroke-width=".31880000000000003" stroke-linecap="round" stroke-linejoin="round" stroke="#000" stroke-miterlimit="10"/><path d="M8.977 101.016V78.902" fill="none" stroke-width=".3985" stroke="#000" stroke-miterlimit="10"/><path d="M7.383 80.098c.597-.102 1.496-1.196 1.594-1.496.101.3.996 1.394 1.593 1.496" fill="none" stroke-width=".31880000000000003" stroke-linecap="round" stroke-linejoin="round" stroke="#000" stroke-miterlimit="10"/><path d="M90.863 59.008l-7.718-23.164" fill="none" stroke-width=".3985" stroke="#000" stroke-miterlimit="10"/><path d="M82.008 37.484c.535-.285 1.039-1.605 1.039-1.922.191.25 1.387 1.008 1.984.915" fill="none" stroke-width=".31880000000000003" stroke-linecap="round" stroke-linejoin="round" stroke="#000" stroke-miterlimit="10"/><path d="M68.824 59.008l7.723-23.164" fill="none" stroke-width=".3985" stroke="#000" stroke-miterlimit="10"/><path d="M74.656 36.477c.598.093 1.793-.664 1.985-.914 0 .316.504 1.636 1.039 1.921" fill="none" stroke-width=".31880000000000003" stroke-linecap="round" stroke-linejoin="round" stroke="#000" stroke-miterlimit="10"/><path d="M44.379 61.422l28.09-28.098" fill="none" stroke-width=".3985" stroke="#000" stroke-miterlimit="10"/><path d="M70.496 33.043c.492.352 1.902.21 2.184.07-.14.282-.282 1.692.07 2.184" fill="none" stroke-width=".31880000000000003" stroke-linecap="round" stroke-linejoin="round" stroke="#000" stroke-miterlimit="10"/><path d="M17.531 63.34l53.367-32.024" fill="none" stroke-width=".3985" stroke="#000" stroke-miterlimit="10"/><path d="M69.055 30.563c.39.464 1.793.667 2.101.597-.207.242-.683 1.574-.46 2.137" fill="none" stroke-width=".31880000000000003" stroke-linecap="round" stroke-linejoin="round" stroke="#000" stroke-miterlimit="10"/><path d="M86.96 61.422L58.876 33.324" fill="none" stroke-width=".3985" stroke="#000" stroke-miterlimit="10"/><path d="M58.594 35.297c.351-.492.21-1.902.07-2.184.281.14 1.688.282 2.184-.07" fill="none" stroke-width=".31880000000000003" stroke-linecap="round" stroke-linejoin="round" stroke="#000" stroke-miterlimit="10"/><path d="M62.516 59.008l-7.72-23.164" fill="none" stroke-width=".3985" stroke="#000" stroke-miterlimit="10"/><path d="M53.66 37.484c.54-.285 1.043-1.605 1.043-1.922.188.25 1.383 1.008 1.984.915" fill="none" stroke-width=".31880000000000003" stroke-linecap="round" stroke-linejoin="round" stroke="#000" stroke-miterlimit="10"/><path d="M40.477 59.008l7.722-23.164" fill="none" stroke-width=".3985" stroke="#000" stroke-miterlimit="10"/><path d="M46.309 36.477c.597.093 1.796-.664 1.984-.914 0 .316.504 1.636 1.039 1.921" fill="none" stroke-width=".31880000000000003" stroke-linecap="round" stroke-linejoin="round" stroke="#000" stroke-miterlimit="10"/><path d="M16.031 61.422l28.09-28.098" fill="none" stroke-width=".3985" stroke="#000" stroke-miterlimit="10"/><path d="M42.148 33.043c.493.352 1.903.21 2.184.07-.14.282-.281 1.692.07 2.184" fill="none" stroke-width=".31880000000000003" stroke-linecap="round" stroke-linejoin="round" stroke="#000" stroke-miterlimit="10"/><path d="M85.465 63.34L32.094 31.316" fill="none" stroke-width=".3985" stroke="#000" stroke-miterlimit="10"/><path d="M32.3 33.297c.223-.563-.257-1.895-.46-2.137.308.07 1.707-.133 2.101-.597" fill="none" stroke-width=".31880000000000003" stroke-linecap="round" stroke-linejoin="round" stroke="#000" stroke-miterlimit="10"/><path d="M58.617 61.418l-28.09-28.094" fill="none" stroke-width=".3985" stroke="#000" stroke-miterlimit="10"/><path d="M30.246 35.297c.352-.492.211-1.902.07-2.184.282.14 1.692.282 2.184-.07" fill="none" stroke-width=".31880000000000003" stroke-linecap="round" stroke-linejoin="round" stroke="#000" stroke-miterlimit="10"/><path d="M34.168 59.008l-7.719-23.164" fill="none" stroke-width=".3985" stroke="#000" stroke-miterlimit="10"/><path d="M25.316 37.484c.536-.285 1.04-1.605 1.04-1.922.187.25 1.386 1.008 1.984.915" fill="none" stroke-width=".31880000000000003" stroke-linecap="round" stroke-linejoin="round" stroke="#000" stroke-miterlimit="10"/><path d="M12.133 59.008l7.719-23.164" fill="none" stroke-width=".3985" stroke="#000" stroke-miterlimit="10"/><path d="M17.96 36.477c.599.093 1.798-.664 1.985-.914 0 .316.504 1.636 1.04 1.921" fill="none" stroke-width=".31880000000000003" stroke-linecap="round" stroke-linejoin="round" stroke="#000" stroke-miterlimit="10"/><use xlink:href="#a" x="94.739" y="134.907"/><use xlink:href="#b" x="104.149" y="136.401"/><use xlink:href="#a" x="101.826" y="92.387"/><use xlink:href="#c" x="111.235" y="93.882"/><use xlink:href="#d" x="94.739" y="50.615"/><path d="M343.719 153.508c0-4.832-3.918-8.75-8.754-8.75-4.832 0-8.754 3.918-8.754 8.75a8.755 8.755 0 0017.508 0zm0 0" fill="none" stroke-width=".797" stroke="#000" stroke-miterlimit="10"/><use xlink:href="#e" x="332.471" y="156.72"/><path d="M315.371 153.508c0-4.832-3.918-8.75-8.754-8.75-4.832 0-8.754 3.918-8.754 8.75a8.755 8.755 0 0017.508 0zm0 0" fill="none" stroke-width=".797" stroke="#000" stroke-miterlimit="10"/><use xlink:href="#f" x="304.125" y="156.72"/><path d="M287.023 153.508a8.75 8.75 0 00-8.75-8.75c-4.836 0-8.753 3.918-8.753 8.75a8.752 8.752 0 008.753 8.754c4.832 0 8.75-3.918 8.75-8.754zm0 0" fill="none" stroke-width=".797" stroke="#000" stroke-miterlimit="10"/><use xlink:href="#g" x="275.778" y="156.72"/><g clip-path="url(#h)"><path d="M357.89 110.988c0-4.832-3.917-8.754-8.75-8.754a8.755 8.755 0 000 17.508c4.833 0 8.75-3.918 8.75-8.754zm0 0" fill="none" stroke-width=".797" stroke="#000" stroke-miterlimit="10"/></g><use xlink:href="#g" x="346.644" y="114.201"/><path d="M329.547 110.988a8.755 8.755 0 10-17.506.002 8.755 8.755 0 0017.506-.002zm0 0" fill="none" stroke-width=".797" stroke="#000" stroke-miterlimit="10"/><use xlink:href="#f" x="318.298" y="114.201"/><path d="M301.2 110.988a8.755 8.755 0 10-17.51.002 8.755 8.755 0 0017.51-.002zm0 0" fill="none" stroke-width=".797" stroke="#000" stroke-miterlimit="10"/><use xlink:href="#g" x="289.951" y="114.201"/><path d="M272.852 110.988a8.755 8.755 0 10-17.51.002 8.755 8.755 0 0017.51-.002zm0 0" fill="none" stroke-width=".797" stroke="#000" stroke-miterlimit="10"/><use xlink:href="#g" x="261.605" y="114.201"/><g clip-path="url(#i)"><path d="M357.89 68.469c0-4.832-3.917-8.754-8.75-8.754a8.755 8.755 0 000 17.508c4.833 0 8.75-3.918 8.75-8.754zm0 0" fill="none" stroke-width=".797" stroke="#000" stroke-miterlimit="10"/></g><use xlink:href="#f" x="346.644" y="71.681"/><path d="M329.547 68.469a8.755 8.755 0 10-17.506.002 8.755 8.755 0 0017.506-.002zm0 0" fill="none" stroke-width=".797" stroke="#000" stroke-miterlimit="10"/><use xlink:href="#g" x="318.298" y="71.681"/><path d="M301.2 68.469a8.755 8.755 0 10-17.51.001 8.755 8.755 0 0017.51-.001zm0 0" fill="none" stroke-width=".797" stroke="#000" stroke-miterlimit="10"/><use xlink:href="#g" x="289.951" y="71.681"/><path d="M272.852 68.469a8.755 8.755 0 10-17.51.001 8.755 8.755 0 0017.51-.001zm0 0" fill="none" stroke-width=".797" stroke="#000" stroke-miterlimit="10"/><use xlink:href="#f" x="261.605" y="71.681"/><path d="M343.719 25.95a8.755 8.755 0 10-17.506.002 8.755 8.755 0 0017.506-.003zm0 0" fill="none" stroke-width=".797" stroke="#000" stroke-miterlimit="10"/><use xlink:href="#e" x="332.471" y="29.161"/><path d="M315.371 25.95a8.755 8.755 0 10-17.506.002 8.755 8.755 0 0017.506-.003zm0 0" fill="none" stroke-width=".797" stroke="#000" stroke-miterlimit="10"/><use xlink:href="#f" x="304.125" y="29.161"/><path d="M287.023 25.95c0-4.837-3.918-8.755-8.75-8.755a8.752 8.752 0 00-8.753 8.754 8.752 8.752 0 008.753 8.754c4.832 0 8.75-3.918 8.75-8.754zm0 0" fill="none" stroke-width=".797" stroke="#000" stroke-miterlimit="10"/><use xlink:href="#g" x="275.778" y="29.161"/><path d="M313.793 146.336l27.848-27.848" fill="none" stroke-width=".3985" stroke="#000" stroke-miterlimit="10"/><path d="M339.664 118.207c.496.352 1.906.211 2.188.07-.141.282-.282 1.692.07 2.184" fill="none" stroke-width=".31880000000000003" stroke-linecap="round" stroke-linejoin="round" stroke="#000" stroke-miterlimit="10"/><path d="M309.828 143.883l7.61-22.832" fill="none" stroke-width=".3985" stroke="#000" stroke-miterlimit="10"/><path d="M315.547 121.68c.598.097 1.797-.66 1.984-.914 0 .316.504 1.64 1.04 1.922" fill="none" stroke-width=".31880000000000003" stroke-linecap="round" stroke-linejoin="round" stroke="#000" stroke-miterlimit="10"/><path d="M303.41 143.883l-7.61-22.832" fill="none" stroke-width=".3985" stroke="#000" stroke-miterlimit="10"/><path d="M294.664 122.688c.535-.282 1.04-1.606 1.04-1.922.19.254 1.386 1.011 1.983.914" fill="none" stroke-width=".31880000000000003" stroke-linecap="round" stroke-linejoin="round" stroke="#000" stroke-miterlimit="10"/><path d="M299.441 146.336l-27.843-27.848" fill="none" stroke-width=".3985" stroke="#000" stroke-miterlimit="10"/><path d="M271.316 120.46c.352-.491.211-1.901.07-2.183.282.141 1.692.282 2.184-.07" fill="none" stroke-width=".31880000000000003" stroke-linecap="round" stroke-linejoin="round" stroke="#000" stroke-miterlimit="10"/><path d="M286.973 148.29l53.07-31.845" fill="none" stroke-width=".3985" stroke="#000" stroke-miterlimit="10"/><path d="M338.2 115.695c.394.461 1.792.664 2.1.598-.202.238-.683 1.57-.46 2.137" fill="none" stroke-width=".31880000000000003" stroke-linecap="round" stroke-linejoin="round" stroke="#000" stroke-miterlimit="10"/><path d="M281.48 143.883l7.61-22.832" fill="none" stroke-width=".3985" stroke="#000" stroke-miterlimit="10"/><path d="M287.2 121.68c.6.097 1.796-.66 1.988-.914 0 .316.503 1.64 1.039 1.922" fill="none" stroke-width=".31880000000000003" stroke-linecap="round" stroke-linejoin="round" stroke="#000" stroke-miterlimit="10"/><path d="M275.063 143.883l-7.61-22.832" fill="none" stroke-width=".3985" stroke="#000" stroke-miterlimit="10"/><path d="M266.316 122.688c.54-.282 1.043-1.606 1.043-1.922.188.254 1.383 1.011 1.985.914" fill="none" stroke-width=".31880000000000003" stroke-linecap="round" stroke-linejoin="round" stroke="#000" stroke-miterlimit="10"/><path d="M343.512 102.547l-16.836-25.254" fill="none" stroke-width=".3985" stroke="#000" stroke-miterlimit="10"/><path d="M326.012 79.172c.441-.414.582-1.824.496-2.125.25.191 1.605.605 2.156.36" fill="none" stroke-width=".31880000000000003" stroke-linecap="round" stroke-linejoin="round" stroke="#000" stroke-miterlimit="10"/><path d="M341.02 104.902l-40.09-30.07" fill="none" stroke-width=".3985" stroke="#000" stroke-miterlimit="10"/><path d="M300.93 76.824c.28-.539-.059-1.91-.239-2.172.297.102 1.711.043 2.153-.379" fill="none" stroke-width=".31880000000000003" stroke-linecap="round" stroke-linejoin="round" stroke="#000" stroke-miterlimit="10"/><path d="M326.422 102.547l16.836-25.254" fill="none" stroke-width=".3985" stroke="#000" stroke-miterlimit="10"/><path d="M341.266 77.406c.554.246 1.906-.168 2.156-.36-.082.302.055 1.712.496 2.126" fill="none" stroke-width=".31880000000000003" stroke-linecap="round" stroke-linejoin="round" stroke="#000" stroke-miterlimit="10"/><path d="M320.793 100.844v-21.77" fill="none" stroke-width=".3985" stroke="#000" stroke-miterlimit="10"/><path d="M319.2 80.27c.597-.098 1.491-1.196 1.593-1.493.098.297.996 1.395 1.594 1.493" fill="none" stroke-width=".31880000000000003" stroke-linecap="round" stroke-linejoin="round" stroke="#000" stroke-miterlimit="10"/><path d="M315.164 102.547l-16.836-25.254" fill="none" stroke-width=".3985" stroke="#000" stroke-miterlimit="10"/><path d="M297.664 79.172c.441-.414.582-1.824.5-2.125.246.191 1.602.605 2.152.36" fill="none" stroke-width=".31880000000000003" stroke-linecap="round" stroke-linejoin="round" stroke="#000" stroke-miterlimit="10"/><path d="M312.676 104.902l-40.094-30.07" fill="none" stroke-width=".3985" stroke="#000" stroke-miterlimit="10"/><path d="M272.582 76.824c.281-.539-.059-1.91-.238-2.172.3.102 1.715.043 2.152-.379" fill="none" stroke-width=".31880000000000003" stroke-linecap="round" stroke-linejoin="round" stroke="#000" stroke-miterlimit="10"/><path d="M298.074 102.547l16.836-25.254" fill="none" stroke-width=".3985" stroke="#000" stroke-miterlimit="10"/><path d="M312.922 77.406c.55.246 1.902-.168 2.152-.36-.082.302.055 1.712.496 2.126" fill="none" stroke-width=".31880000000000003" stroke-linecap="round" stroke-linejoin="round" stroke="#000" stroke-miterlimit="10"/><path d="M292.445 100.844v-21.77" fill="none" stroke-width=".3985" stroke="#000" stroke-miterlimit="10"/><path d="M290.852 80.27c.597-.098 1.496-1.196 1.593-1.493.102.297.996 1.395 1.594 1.493" fill="none" stroke-width=".31880000000000003" stroke-linecap="round" stroke-linejoin="round" stroke="#000" stroke-miterlimit="10"/><path d="M272.215 104.902l40.094-30.07" fill="none" stroke-width=".3985" stroke="#000" stroke-miterlimit="10"/><path d="M310.395 74.273c.437.422 1.851.48 2.152.38-.18.261-.52 1.632-.238 2.171" fill="none" stroke-width=".31880000000000003" stroke-linecap="round" stroke-linejoin="round" stroke="#000" stroke-miterlimit="10"/><path d="M269.727 102.547l16.836-25.254" fill="none" stroke-width=".3985" stroke="#000" stroke-miterlimit="10"/><path d="M284.574 77.406c.551.246 1.906-.168 2.153-.36-.082.302.054 1.712.5 2.126" fill="none" stroke-width=".31880000000000003" stroke-linecap="round" stroke-linejoin="round" stroke="#000" stroke-miterlimit="10"/><path d="M345.93 58.844l-7.61-22.832" fill="none" stroke-width=".3985" stroke="#000" stroke-miterlimit="10"/><path d="M337.184 37.648c.539-.285 1.043-1.605 1.043-1.921.187.253 1.382 1.007 1.984.914" fill="none" stroke-width=".31880000000000003" stroke-linecap="round" stroke-linejoin="round" stroke="#000" stroke-miterlimit="10"/><path d="M340.438 63.246l-53.07-31.84" fill="none" stroke-width=".3985" stroke="#000" stroke-miterlimit="10"/><path d="M287.57 33.387c.223-.563-.254-1.895-.46-2.133.308.066 1.706-.137 2.1-.602" fill="none" stroke-width=".31880000000000003" stroke-linecap="round" stroke-linejoin="round" stroke="#000" stroke-miterlimit="10"/><path d="M324 58.844l7.613-22.832" fill="none" stroke-width=".3985" stroke="#000" stroke-miterlimit="10"/><path d="M329.723 36.64c.597.094 1.793-.66 1.984-.913 0 .316.504 1.636 1.04 1.921" fill="none" stroke-width=".31880000000000003" stroke-linecap="round" stroke-linejoin="round" stroke="#000" stroke-miterlimit="10"/><path d="M299.621 61.293l27.844-27.844" fill="none" stroke-width=".3985" stroke="#000" stroke-miterlimit="10"/><path d="M325.492 33.168c.492.352 1.903.21 2.184.07-.14.282-.281 1.692.07 2.184" fill="none" stroke-width=".31880000000000003" stroke-linecap="round" stroke-linejoin="round" stroke="#000" stroke-miterlimit="10"/><path d="M272.8 63.246l53.071-31.84" fill="none" stroke-width=".3985" stroke="#000" stroke-miterlimit="10"/><path d="M324.027 30.652c.391.465 1.793.668 2.102.602-.207.238-.684 1.57-.465 2.133" fill="none" stroke-width=".31880000000000003" stroke-linecap="round" stroke-linejoin="round" stroke="#000" stroke-miterlimit="10"/><path d="M267.309 58.844l7.609-22.832" fill="none" stroke-width=".3985" stroke="#000" stroke-miterlimit="10"/><path d="M273.027 36.64c.602.094 1.797-.66 1.985-.913 0 .316.504 1.636 1.039 1.921" fill="none" stroke-width=".31880000000000003" stroke-linecap="round" stroke-linejoin="round" stroke="#000" stroke-miterlimit="10"/><use xlink:href="#j" x="74.762" y="170.297"/><use xlink:href="#b" x="80.456" y="171.791"/><use xlink:href="#k" x="75.395" y="11.96"/><use xlink:href="#j" x="74.762" y="11.96"/><use xlink:href="#b" x="80.456" y="13.454"/><use xlink:href="#j" x="329.88" y="170.471"/><use xlink:href="#b" x="335.574" y="171.965"/><use xlink:href="#j" x="46.415" y="170.297"/><use xlink:href="#c" x="52.109" y="171.791"/><use xlink:href="#k" x="47.049" y="11.96"/><use xlink:href="#j" x="46.415" y="11.96"/><use xlink:href="#c" x="52.109" y="13.453"/><use xlink:href="#j" x="301.534" y="170.47"/><use xlink:href="#c" x="307.227" y="171.965"/><use xlink:href="#j" x="18.069" y="170.297"/><use xlink:href="#l" x="23.762" y="171.79"/><use xlink:href="#k" x="18.702" y="11.959"/><use xlink:href="#j" x="18.069" y="11.959"/><use xlink:href="#l" x="23.762" y="13.453"/><use xlink:href="#j" x="273.186" y="170.47"/><use xlink:href="#l" x="278.88" y="171.964"/><use xlink:href="#m" x="327.757" y="10.788"/><use xlink:href="#n" x="332.769" y="10.788"/><use xlink:href="#j" x="336.643" y="10.788"/><use xlink:href="#l" x="342.337" y="12.283"/><use xlink:href="#o" x="346.808" y="10.788"/><use xlink:href="#j" x="349.574" y="10.788"/><use xlink:href="#c" x="355.268" y="12.283"/><use xlink:href="#p" x="359.737" y="10.788"/><use xlink:href="#m" x="295.152" y="10.788"/><use xlink:href="#n" x="300.164" y="10.788"/><use xlink:href="#j" x="304.039" y="10.788"/><use xlink:href="#c" x="309.733" y="12.283"/><use xlink:href="#p" x="314.202" y="10.788"/><use xlink:href="#m" x="235.887" y="10.788"/><use xlink:href="#n" x="240.899" y="10.788"/><use xlink:href="#j" x="244.774" y="10.788"/><use xlink:href="#b" x="250.468" y="12.283"/><use xlink:href="#o" x="254.937" y="10.788"/><use xlink:href="#j" x="257.704" y="10.788"/><use xlink:href="#c" x="263.398" y="12.283"/><use xlink:href="#q" x="267.868" y="10.788"/><use xlink:href="#j" x="272.3" y="10.788"/><use xlink:href="#l" x="277.989" y="12.283"/><use xlink:href="#p" x="282.459" y="10.788"/><use xlink:href="#r" x="15.433" y="202.655"/><use xlink:href="#s" x="21.972" y="202.655"/><use xlink:href="#t" x="29.444" y="202.655"/><use xlink:href="#u" x="34.674" y="202.655"/><use xlink:href="#v" x="41.769" y="202.655"/><use xlink:href="#w" x="47.906" y="202.655"/><use xlink:href="#x" x="55.378" y="202.655"/><use xlink:href="#u" x="61.356" y="202.655"/><use xlink:href="#y" x="68.463" y="202.655"/><use xlink:href="#v" x="75.935" y="202.655"/><use xlink:href="#z" x="82.072" y="202.655"/><use xlink:href="#A" x="285.589" y="202.73"/><use xlink:href="#B" x="298.347" y="202.73"/><use xlink:href="#C" x="308.503" y="202.73"/><use xlink:href="#D" x="318.812" y="202.73"/><use xlink:href="#E" x="165.464" y="202.655"/><use xlink:href="#r" x="176.672" y="202.655"/><use xlink:href="#F" x="183.211" y="202.655"/><use xlink:href="#G" x="188.515" y="202.655"/><use xlink:href="#F" x="195.613" y="202.655"/><use xlink:href="#H" x="118.701" y="202.514"/><use xlink:href="#I" x="233.044" y="202.123"/><use xlink:href="#J" x="240.346" y="202.123"/><path d="M164.883 54.297h45.355m-45.355-11.34h45.355m-45.355-11.34h45.355m-45.355-11.332h45.355m-45.355 34.012V20.28m11.34 34.016V20.28m11.34 34.016V20.28m11.335 34.016V20.28m11.336 34.016V20.28" fill="none" stroke-width=".3985" stroke="#000" stroke-miterlimit="10"/><use xlink:href="#K" x="130.924" y="39.947"/><use xlink:href="#L" x="140.589" y="41.441"/><use xlink:href="#M" x="150.275" y="39.947"/><path d="M164.883 42.957h45.355v-11.34h-45.355zm0 0"/><path d="M176.223 54.297h22.675v-11.34h-22.675zm0 0"/><path d="M164.883 110.988h45.355m-45.355-11.34h45.355m-45.355-11.335h45.355m-45.355-11.34h45.355M164.883 65.64h45.355m-45.355 45.347V65.633m11.34 45.355V65.633m11.34 45.355V65.633m11.335 45.355V65.633m11.336 45.355V65.633" fill="none" stroke-width=".3985" stroke="#000" stroke-miterlimit="10"/><use xlink:href="#K" x="128.444" y="90.471"/><use xlink:href="#N" x="138.109" y="91.966"/><use xlink:href="#O" x="145.602" y="92.962"/><use xlink:href="#M" x="152.755" y="90.471"/><path d="M164.883 110.988h11.34v-11.34h-11.34zm0 0M164.883 76.973h11.34v-11.34h-11.34zm0 0M187.563 110.988h22.675v-11.34h-22.675zm0 0M187.563 76.973h22.675v-11.34h-22.675zm0 0"/><path d="M164.883 167.68h34.015m-34.015-11.336h34.015m-34.015-11.34h34.015m-34.015-11.34h34.015m-34.015-11.332h34.015m-34.015 45.348v-45.352m11.34 45.352v-45.352m11.34 45.352v-45.352m11.332 45.352v-45.352" fill="none" stroke-width=".3985" stroke="#000" stroke-miterlimit="10"/><use xlink:href="#K" x="128.444" y="147.163"/><use xlink:href="#N" x="138.109" y="148.658"/><g><use xlink:href="#P" x="145.602" y="149.654"/></g><g><use xlink:href="#M" x="152.755" y="147.163"/></g><path d="M164.883 167.68h11.34v-45.352h-11.34zm0 0M187.563 145.004h11.335v-11.34h-11.335zm0 0"/></svg>