<svg xmlns="http://www.w3.org/2000/svg" xmlns:xlink="http://www.w3.org/1999/xlink" width="757.5" height="303.956" viewBox="0 0 568.125 227.967"><defs><symbol overflow="visible" id="j"><path d="M1.266-.766l1.062-1.03c1.547-1.376 2.14-1.907 2.14-2.907 0-1.14-.89-1.938-2.109-1.938C1.234-6.64.5-5.719.5-4.828c0 .547.5.547.531.547.172 0 .516-.11.516-.532a.513.513 0 0 0-.531-.515c-.079 0-.094 0-.125.016.218-.657.765-1.016 1.343-1.016.907 0 1.329.812 1.329 1.625 0 .797-.485 1.578-1.047 2.203L.609-.375C.5-.265.5-.235.5 0h3.703l.266-1.734h-.235C4.172-1.438 4.11-1 4-.844c-.063.078-.719.078-.938.078zm0 0"/></symbol><symbol overflow="visible" id="n"><path d="M3.297 2.39c0-.03 0-.046-.172-.218C1.891.922 1.562-.968 1.562-2.5c0-1.734.375-3.469 1.61-4.703.125-.125.125-.14.125-.172 0-.078-.031-.11-.094-.11-.11 0-1 .688-1.594 1.954C1.11-4.438.984-3.328.984-2.5c0 .781.11 1.984.657 3.125C2.25 1.844 3.094 2.5 3.203 2.5c.063 0 .094-.031.094-.11zm0 0"/></symbol><symbol overflow="visible" id="o"><path d="M4.078-2.297H6.86c.141 0 .329 0 .329-.203 0-.188-.188-.188-.329-.188H4.08v-2.796c0-.141 0-.329-.204-.329-.203 0-.203.188-.203.329v2.796H.89c-.141 0-.329 0-.329.188 0 .203.188.203.329.203h2.78V.5c0 .14 0 .328.204.328.203 0 .203-.187.203-.328zm0 0"/></symbol><symbol overflow="visible" id="p"><path d="M2.875-2.5c0-.766-.11-1.969-.656-3.11C1.625-6.827.766-7.483.672-7.483a.107.107 0 0 0-.11.109c0 .031 0 .047.188.234.984.985 1.547 2.563 1.547 4.641 0 1.719-.36 3.469-1.594 4.719-.14.125-.14.14-.14.172 0 .062.046.109.109.109.094 0 1-.688 1.578-1.953.516-1.094.625-2.203.625-3.047zm0 0"/></symbol><symbol overflow="visible" id="q"><path d="M6.844-3.266c.156 0 .343 0 .343-.187 0-.203-.187-.203-.328-.203H.891c-.141 0-.329 0-.329.203 0 .187.188.187.329.187zm.015 1.938c.141 0 .329 0 .329-.203 0-.188-.188-.188-.344-.188H.89c-.141 0-.329 0-.329.188 0 .203.188.203.329.203zm0 0"/></symbol><symbol overflow="visible" id="r"><path d="M2.938-6.375c0-.25 0-.266-.235-.266C2.078-6 1.203-6 .891-6v.313c.203 0 .78 0 1.296-.266v5.172c0 .36-.03.469-.921.469H.953V0c.344-.031 1.203-.031 1.61-.031.39 0 1.265 0 1.609.031v-.313h-.313c-.906 0-.921-.109-.921-.468zm0 0"/></symbol><symbol overflow="visible" id="t"><path d="M4.578-3.188c0-.796-.047-1.593-.39-2.328C3.733-6.484 2.905-6.64 2.5-6.64c-.61 0-1.328.266-1.75 1.188-.313.687-.36 1.469-.36 2.266 0 .75.032 1.64.454 2.406a1.83 1.83 0 0 0 1.64 1c.532 0 1.297-.203 1.735-1.157.312-.687.36-1.468.36-2.25zM2.484 0c-.39 0-.984-.25-1.156-1.203-.11-.594-.11-1.516-.11-2.11 0-.64 0-1.296.079-1.828.187-1.187.937-1.28 1.187-1.28.329 0 .985.187 1.172 1.171.11.563.11 1.313.11 1.938 0 .75 0 1.421-.11 2.062C3.5-.297 2.937 0 2.484 0zm0 0"/></symbol><symbol overflow="visible" id="F"><path d="M2.547 2.5v-.406h-.969v-9.172h.969v-.406H1.172V2.5zm0 0"/></symbol><symbol overflow="visible" id="G"><path d="M1.578-7.484H.218v.406h.97v9.172h-.97V2.5h1.36zm0 0"/></symbol><symbol overflow="visible" id="k"><path d="M2.64-3.719h1.126c-.329 1.469-.422 1.906-.422 2.578 0 .141 0 .407.078.75.11.438.219.5.36.5.202 0 .421-.171.421-.375 0-.062 0-.078-.062-.218-.297-.72-.297-1.375-.297-1.657 0-.515.078-1.062.187-1.578h1.125c.14 0 .5 0 .5-.344 0-.234-.218-.234-.406-.234H1.906c-.218 0-.593 0-1.031.469-.344.39-.61.844-.61.89 0 .016 0 .11.126.11.078 0 .093-.047.156-.125.484-.766 1.062-.766 1.265-.766h.563c-.313 1.203-.844 2.406-1.266 3.313-.078.156-.078.172-.078.25 0 .187.157.265.282.265.296 0 .375-.28.5-.64.14-.469.14-.485.265-.985zm0 0"/></symbol><symbol overflow="visible" id="s"><path d="M2.031-.016c0-.656-.25-1.046-.64-1.046a.517.517 0 0 0-.532.53c0 .266.204.532.532.532a.58.58 0 0 0 .343-.125c.032-.031.047-.031.047-.031.016 0 .016 0 .016.14 0 .75-.344 1.344-.672 1.672-.11.11-.11.125-.11.157 0 .078.048.109.094.109.11 0 .922-.766.922-1.938zm0 0"/></symbol><symbol overflow="visible" id="l"><path d="M5.61-3.156c.077-.281.187-.766.187-.828 0-.22-.156-.438-.469-.438-.156 0-.516.078-.656.531-.031.125-.484 1.938-.563 2.266a8.482 8.482 0 0 0-.156.703c-.172.235-.562.64-1.078.64-.578 0-.594-.5-.594-.718 0-.61.313-1.39.594-2.11.094-.265.125-.328.125-.5 0-.578-.578-.89-1.125-.89C.812-4.5.312-3.156.312-2.953c0 .14.157.14.25.14.11 0 .188 0 .22-.124.327-1.11.874-1.204 1.03-1.204.079 0 .172 0 .172.204 0 .234-.125.515-.156.624-.422 1.047-.61 1.61-.61 2.094 0 1.14 1 1.297 1.579 1.297.297 0 .734-.031 1.265-.547.329.485.907.547 1.141.547.375 0 .656-.203.875-.562.234-.407.375-.938.375-.985 0-.14-.156-.14-.25-.14-.11 0-.14 0-.187.046-.032.016-.032.032-.079.282-.203.781-.421 1-.687 1-.14 0-.219-.094-.219-.36 0-.171.032-.343.125-.734.078-.281.172-.672.235-.89zm0 0"/></symbol><symbol overflow="visible" id="m"><path d="M5.39-3.61c0-.906-.671-.906-.671-.906-.407 0-.766.422-.766.75 0 .282.219.407.297.454.422.25.5.437.5.624 0 .22-.578 2.407-1.734 2.407-.72 0-.72-.594-.72-.781 0-.579.282-1.297.595-2.094C2.969-3.36 3-3.453 3-3.61c0-.579-.578-.891-1.125-.891C.812-4.5.312-3.156.312-2.953c0 .14.157.14.25.14.11 0 .188 0 .22-.124.327-1.079.859-1.204 1.03-1.204.079 0 .172 0 .172.204 0 .234-.125.515-.156.593-.453 1.156-.61 1.61-.61 2.094 0 1.047.86 1.328 1.735 1.328 1.719 0 2.438-2.828 2.438-3.687zm0 0"/></symbol><clipPath id="a"><path d="M56 0h2v227.969h-2zm0 0"/></clipPath><clipPath id="b"><path d="M0 0h228v227.969H0zm0 0"/></clipPath><clipPath id="c"><path d="M.598.594H227.37V227.37H.598zm0 0"/></clipPath><clipPath id="d"><path d="M.598 10H14v15H.598zm0 0"/></clipPath><clipPath id="e"><path d="M89 .594h4V3h-4zm0 0"/></clipPath><clipPath id="f"><path d="M84 .594h15V8H84zm0 0"/></clipPath><clipPath id="g"><path d="M203 214h15v13.371h-15zm0 0"/></clipPath><clipPath id="h"><path d="M225 135h2.371v4H225zm0 0"/></clipPath><clipPath id="i"><path d="M220 129h7.371v15H220zm0 0"/></clipPath><clipPath id="u"><path d="M396 0h3v227.969h-3zm0 0"/></clipPath><clipPath id="v"><path d="M340 0h228v227.969H340zm0 0"/></clipPath><clipPath id="w"><path d="M340.758.594h226.777V227.37H340.758zm0 0"/></clipPath><clipPath id="x"><path d="M345 .594h3V3h-3zm0 0"/></clipPath><clipPath id="y"><path d="M340.758.594H354V8h-13.242zm0 0"/></clipPath><clipPath id="z"><path d="M430 .594h3V3h-3zm0 0"/></clipPath><clipPath id="A"><path d="M424 .594h15V8h-15zm0 0"/></clipPath><clipPath id="B"><path d="M515 .594h3V3h-3zm0 0"/></clipPath><clipPath id="C"><path d="M509 .594h15V8h-15zm0 0"/></clipPath><clipPath id="D"><path d="M566 169h1.535v4H566zm0 0"/></clipPath><clipPath id="E"><path d="M560 163h7.535v15H560zm0 0"/></clipPath></defs><path d="M.598 170.676h225.816" fill="none" stroke-width="1.19553" stroke="rgb(0%,0%,0%)" stroke-miterlimit="10"/><path d="M224.504 168.125c.156.957 1.91 2.39 2.39 2.55-.48.16-2.234 1.595-2.39 2.552" fill="none" stroke-width="0.9564" stroke-linecap="round" stroke-linejoin="round" stroke="rgb(0%,0%,0%)" stroke-miterlimit="10"/><g clip-path="url(#a)"><path d="M57.29 227.371V1.551" fill="none" stroke-width="1.19553" stroke="rgb(0%,0%,0%)" stroke-miterlimit="10"/></g><path d="M54.742 3.465c.953-.16 2.39-1.914 2.547-2.39.16.476 1.598 2.23 2.55 2.39" fill="none" stroke-width="0.9564" stroke-linecap="round" stroke-linejoin="round" stroke="rgb(0%,0%,0%)" stroke-miterlimit="10"/><g clip-path="url(#b)"><path d="M.598 227.371V.594H227.37V227.37zm0 0" fill="none" stroke-width="0.3985" stroke="rgb(0%,0%,0%)" stroke-miterlimit="10"/></g><g clip-path="url(#c)"><path d="M-203.5 386.11l453.55-90.708m-436.542 5.668l453.55-90.707m-436.542 5.668l453.55-90.71m-436.543 5.667l453.551-90.707m-436.543 5.668l453.551-90.707m-476.227 476.223l90.708-453.547m-5.668 436.539L17.605-39.09m-5.668 436.54l90.708-453.548m-5.668 436.54l90.71-453.547m-5.667 436.539l90.707-453.547" fill="none" stroke-width="0.19925" stroke="rgb(50%,50%,50%)" stroke-dasharray="2.98883,2.98883" stroke-miterlimit="10"/></g><path d="M7.676 17.602c0-.778-.633-1.407-1.41-1.407a1.409 1.409 0 1 0 0 2.817 1.41 1.41 0 0 0 1.41-1.41zm0 0" fill="rgb(0%,0%,0%)"/><g clip-path="url(#d)"><path d="M7.676 17.602c0-.778-.633-1.407-1.41-1.407a1.409 1.409 0 1 0 0 2.817 1.41 1.41 0 0 0 1.41-1.41zm0 0" fill="none" stroke-width="0.3985" stroke="rgb(0%,0%,0%)" stroke-miterlimit="10"/></g><path d="M58.7 170.676a1.409 1.409 0 0 0-2.816 0 1.409 1.409 0 1 0 2.815 0zm-2.818 0c1.409-.782.78-1.41-.001-1.41-.778 0-1.406.628-1.406 1.41 0 .777.628 1.406 1.406 1.406.781 0 1.41-.63 1.41-1.406zm1.409 0" fill="rgb(0%,0%,0%)" stroke-width="0.3985" stroke="rgb(0%,0%,0%)" stroke-miterlimit="10"/><g clip-path="url(#e)"><path d="M92.715.594c0-.778-.63-1.406-1.41-1.406-.778 0-1.407.628-1.407 1.406 0 .781.63 1.41 1.407 1.41.78 0 1.41-.629 1.41-1.41zm0 0" fill="rgb(0%,0%,0%)"/></g><g clip-path="url(#f)"><path d="M92.715.594c0-.778-.63-1.406-1.41-1.406-.778 0-1.407.628-1.407 1.406 0 .781.63 1.41 1.407 1.41.78 0 1.41-.629 1.41-1.41zm0 0" fill="none" stroke-width="0.3985" stroke="rgb(0%,0%,0%)" stroke-miterlimit="10"/></g><path d="M143.742 153.668c0-.777-.633-1.41-1.41-1.41-.777 0-1.41.633-1.41 1.41 0 .777.633 1.41 1.41 1.41.777 0 1.41-.633 1.41-1.41zM-29.16 187.684c86.451-17.79 85.818-18.418 85.04-18.418a1.409 1.409 0 0 0 0 2.816c.778 0 1.411-.629 1.411-1.406zM57.29 136.66" fill="rgb(0%,0%,0%)" stroke-width="0.3985" stroke="rgb(0%,0%,0%)" stroke-miterlimit="10"/><path d="M211.773 221.7c0-.778-.632-1.407-1.41-1.407a1.409 1.409 0 1 0 0 2.816 1.41 1.41 0 0 0 1.41-1.41zm0 0" fill="rgb(0%,0%,0%)"/><g clip-path="url(#g)"><path d="M211.773 221.7c0-.778-.632-1.407-1.41-1.407a1.409 1.409 0 1 0 0 2.816 1.41 1.41 0 0 0 1.41-1.41zm0 0" fill="none" stroke-width="0.3985" stroke="rgb(0%,0%,0%)" stroke-miterlimit="10"/></g><g clip-path="url(#h)"><path d="M228.781 136.66c0-.777-.633-1.41-1.41-1.41-.777 0-1.41.633-1.41 1.41 0 .778.633 1.41 1.41 1.41.777 0 1.41-.632 1.41-1.41zm0 0" fill="rgb(0%,0%,0%)"/></g><g clip-path="url(#i)"><path d="M228.781 136.66c0-.777-.633-1.41-1.41-1.41-.777 0-1.41.633-1.41 1.41 0 .777.633 1.41 1.41 1.41.777 0 1.41-.633 1.41-1.41zm0 0" fill="none" stroke-width="0.3985" stroke="rgb(0%,0%,0%)" stroke-miterlimit="10"/></g><path d="M57.29 170.676l78.358-15.672" fill="none" stroke-width="1.59404" stroke="rgb(0%,0%,54.499817%)" stroke-miterlimit="10"/><path d="M142.332 153.668c-2.055.023-5.496-.445-7.98-1.3l1.113 5.57c1.965-1.747 4.96-3.504 6.867-4.27" fill="rgb(0%,0%,54.499817%)"/><path d="M145.371 160.2h24.441v-13.063h-24.44zm0 0" fill="rgb(100%,100%,100%)" stroke-width="0.09962" stroke="rgb(0%,0%,0%)" stroke-miterlimit="10"/><use xlink:href="#j" x="148.689" y="156.879" fill="rgb(0%,0%,0%)"/><use xlink:href="#k" x="153.671" y="156.879" fill="rgb(0%,0%,0%)"/><use xlink:href="#l" x="159.707" y="156.879" fill="rgb(0%,0%,0%)"/><path d="M57.29 170.676l15.67-78.36" fill="none" stroke-width="1.59404" stroke="rgb(0%,0%,54.499817%)" stroke-miterlimit="10"/><path d="M74.297 85.637c-.766 1.906-2.524 4.898-4.266 6.867l5.567 1.113c-.852-2.488-1.325-5.926-1.301-7.98" fill="rgb(0%,0%,54.499817%)"/><path d="M62.46 82.598h23.677V69.535H62.46zm0 0" fill="rgb(100%,100%,100%)" stroke-width="0.09962" stroke="rgb(0%,0%,0%)" stroke-miterlimit="10"/><use xlink:href="#j" x="65.782" y="79.278" fill="rgb(0%,0%,0%)"/><use xlink:href="#k" x="70.764" y="79.278" fill="rgb(0%,0%,0%)"/><use xlink:href="#m" x="76.8" y="79.278" fill="rgb(0%,0%,0%)"/><path d="M57.29 170.676l97.23-97.23" fill="none" stroke-width="1.59404" stroke="rgb(0%,0%,54.499817%)" stroke-miterlimit="10"/><path d="M159.34 68.629c-1.695 1.16-4.82 2.676-7.363 3.344l4.015 4.015c.672-2.543 2.188-5.664 3.348-7.36" fill="rgb(0%,0%,54.499817%)"/><path d="M162.379 76.93h50.383V60.324h-50.383zm0 0" fill="rgb(100%,100%,100%)" stroke-width="0.09962" stroke="rgb(0%,0%,0%)" stroke-miterlimit="10"/><use xlink:href="#j" x="165.697" y="71.12" fill="rgb(0%,0%,0%)"/><use xlink:href="#k" x="170.678" y="71.12" fill="rgb(0%,0%,0%)"/><use xlink:href="#n" x="176.715" y="71.12" fill="rgb(0%,0%,0%)"/><use xlink:href="#l" x="180.589" y="71.12" fill="rgb(0%,0%,0%)"/><use xlink:href="#o" x="189.588" y="71.12" fill="rgb(0%,0%,0%)"/><use xlink:href="#m" x="199.55" y="71.12" fill="rgb(0%,0%,0%)"/><use xlink:href="#p" x="205.565" y="71.12" fill="rgb(0%,0%,0%)"/><path d="M57.29 170.676l17.007-85.04L159.34 68.63l-17.008 85.039zm0 0" fill="rgb(50%,50%,50%)" fill-opacity="0.3" stroke-width="0.3985" stroke="rgb(0%,0%,0%)" stroke-miterlimit="10"/><path d="M262.582 170.676h48.625" fill="none" stroke-width="1.59404" stroke="rgb(0%,0%,0%)" stroke-miterlimit="10"/><path d="M262.184 166.293v8.766" fill="none" stroke-width="1.59404" stroke-linecap="square" stroke="rgb(0%,0%,0%)" stroke-miterlimit="10"/><path d="M308.934 167.648c.191 1.133 2.273 2.84 2.84 3.028-.567.191-2.649 1.894-2.84 3.027" fill="none" stroke-width="1.27522" stroke-linecap="round" stroke-linejoin="round" stroke="rgb(0%,0%,0%)" stroke-miterlimit="10"/><use xlink:href="#l" x="265.793" y="164.068" fill="rgb(0%,0%,0%)"/><use xlink:href="#q" x="275.345" y="164.068" fill="rgb(0%,0%,0%)"/><g fill="rgb(0%,0%,0%)"><use xlink:href="#n" x="285.864" y="164.068"/><use xlink:href="#r" x="289.738" y="164.068"/></g><use xlink:href="#s" x="294.717" y="164.068" fill="rgb(0%,0%,0%)"/><g fill="rgb(0%,0%,0%)"><use xlink:href="#t" x="299.145" y="164.068"/><use xlink:href="#p" x="304.126" y="164.068"/></g><path d="M340.758 170.676h225.82" fill="none" stroke-width="1.19553" stroke="rgb(0%,0%,0%)" stroke-miterlimit="10"/><path d="M564.664 168.125c.16.957 1.914 2.39 2.39 2.55-.476.16-2.23 1.595-2.39 2.552" fill="none" stroke-width="0.9564" stroke-linecap="round" stroke-linejoin="round" stroke="rgb(0%,0%,0%)" stroke-miterlimit="10"/><g clip-path="url(#u)"><path d="M397.453 227.371V1.551" fill="none" stroke-width="1.19553" stroke="rgb(0%,0%,0%)" stroke-miterlimit="10"/></g><path d="M394.902 3.465c.957-.16 2.391-1.914 2.551-2.39.16.476 1.594 2.23 2.55 2.39" fill="none" stroke-width="0.9564" stroke-linecap="round" stroke-linejoin="round" stroke="rgb(0%,0%,0%)" stroke-miterlimit="10"/><g clip-path="url(#v)"><path d="M340.758 227.371V.594h226.777V227.37zm0 0" fill="none" stroke-width="0.3985" stroke="rgb(0%,0%,0%)" stroke-miterlimit="10"/></g><g clip-path="url(#w)"><path d="M136.664 340.758h453.547m-436.54-85.043H607.22m-436.54-85.04h453.548m-436.54-85.038h453.547M204.695.594h453.547M182.02 397.449l90.707-453.547m-5.668 453.547l90.707-453.547m-5.668 453.547l90.71-453.547m-5.667 453.547l90.707-453.547M522.18 397.45l90.707-453.547" fill="none" stroke-width="0.19925" stroke="rgb(50%,50%,50%)" stroke-dasharray="2.98883,2.98883" stroke-miterlimit="10"/></g><g clip-path="url(#x)"><path d="M347.836.594c0-.778-.629-1.406-1.406-1.406a1.407 1.407 0 1 0 1.406 1.406zm0 0" fill="rgb(0%,0%,0%)"/></g><g clip-path="url(#y)"><path d="M347.836.594c0-.778-.629-1.406-1.406-1.406a1.407 1.407 0 1 0 1.406 1.406zm0 0" fill="none" stroke-width="0.3985" stroke="rgb(0%,0%,0%)" stroke-miterlimit="10"/></g><path d="M398.863 170.676c0-.778-.633-1.41-1.41-1.41-.777 0-1.41.632-1.41 1.41 0 .777.633 1.41 1.41 1.41.777 0 1.41-.633 1.41-1.41zm-683.144 0c341.572-.782 340.94-1.41 340.162-1.41a1.409 1.409 0 0 0 0 2.816c.777 0 1.41-.63 1.41-1.406zm341.572 0" fill="rgb(0%,0%,0%)" stroke-width="0.3985" stroke="rgb(0%,0%,0%)" stroke-miterlimit="10"/><g clip-path="url(#z)"><path d="M432.879.594c0-.778-.633-1.406-1.41-1.406a1.409 1.409 0 1 0 0 2.816 1.41 1.41 0 0 0 1.41-1.41zm0 0" fill="rgb(0%,0%,0%)"/></g><g clip-path="url(#A)"><path d="M432.879.594c0-.778-.633-1.406-1.41-1.406a1.409 1.409 0 1 0 0 2.816 1.41 1.41 0 0 0 1.41-1.41zm0 0" fill="none" stroke-width="0.3985" stroke="rgb(0%,0%,0%)" stroke-miterlimit="10"/></g><path d="M483.902 170.676a1.409 1.409 0 0 0-2.816 0 1.409 1.409 0 1 0 2.816 0zm-853.222 0c426.611-.782 425.978-1.41 425.2-1.41-.777 0-1.405.628-1.405 1.41a1.409 1.409 0 0 0 2.816 0zm426.611 0" fill="rgb(0%,0%,0%)" stroke-width="0.3985" stroke="rgb(0%,0%,0%)" stroke-miterlimit="10"/><g clip-path="url(#B)"><path d="M517.918.594a1.409 1.409 0 1 0-2.817.005 1.409 1.409 0 0 0 2.817-.005zm0 0" fill="rgb(0%,0%,0%)"/></g><g clip-path="url(#C)"><path d="M517.918.594a1.409 1.409 0 1 0-2.817.005 1.409 1.409 0 0 0 2.817-.005zm0 0" fill="none" stroke-width="0.3985" stroke="rgb(0%,0%,0%)" stroke-miterlimit="10"/></g><g clip-path="url(#D)"><path d="M568.941 170.676a1.409 1.409 0 1 0-2.816 0 1.409 1.409 0 0 0 2.816 0zm0 0" fill="rgb(0%,0%,0%)"/></g><g clip-path="url(#E)"><path d="M568.941 170.676a1.409 1.409 0 1 0-2.816 0 1.409 1.409 0 0 0 2.816 0zm0 0" fill="none" stroke-width="0.3985" stroke="rgb(0%,0%,0%)" stroke-miterlimit="10"/></g><path d="M397.453 170.676h78.227" fill="none" stroke-width="1.59404" stroke="rgb(0%,0%,54.499817%)" stroke-miterlimit="10"/><path d="M482.492 170.676c-2.02-.38-5.3-1.516-7.57-2.84v5.68c2.27-1.325 5.55-2.461 7.57-2.84" fill="rgb(0%,0%,54.499817%)"/><path d="M473.664 186.777h17.66v-13.062h-17.66zm0 0" fill="rgb(100%,100%,100%)" stroke-width="0.09962" stroke="rgb(0%,0%,0%)" stroke-miterlimit="10"/><use xlink:href="#j" x="476.979" y="183.455" fill="rgb(0%,0%,0%)"/><use xlink:href="#k" x="481.96" y="183.455" fill="rgb(0%,0%,0%)"/><path d="M397.453 170.676l15.672-78.36" fill="none" stroke-width="1.59404" stroke="rgb(0%,0%,54.499817%)" stroke-miterlimit="10"/><path d="M414.46 85.637c-.765 1.906-2.522 4.898-4.269 6.867l5.57 1.113c-.855-2.488-1.324-5.926-1.3-7.98" fill="rgb(0%,0%,54.499817%)"/><path d="M402.625 82.598h23.672V69.535h-23.672zm0 0" fill="rgb(100%,100%,100%)" stroke-width="0.09962" stroke="rgb(0%,0%,0%)" stroke-miterlimit="10"/><use xlink:href="#j" x="405.94" y="79.278" fill="rgb(0%,0%,0%)"/><use xlink:href="#k" x="410.921" y="79.278" fill="rgb(0%,0%,0%)"/><use xlink:href="#m" x="416.958" y="79.278" fill="rgb(0%,0%,0%)"/><path d="M397.453 170.676l96.813-80.68" fill="none" stroke-width="1.59404" stroke="rgb(0%,0%,54.499817%)" stroke-miterlimit="10"/><path d="M499.5 85.637c-1.793 1-5.04 2.226-7.633 2.664l3.637 4.363c.894-2.473 2.687-5.445 3.996-7.027" fill="rgb(0%,0%,54.499817%)"/><path d="M502.54 93.937h63.522V77.332H502.54zm0 0" fill="rgb(100%,100%,100%)" stroke-width="0.09962" stroke="rgb(0%,0%,0%)" stroke-miterlimit="10"/><use xlink:href="#j" x="505.855" y="88.127" fill="rgb(0%,0%,0%)"/><use xlink:href="#k" x="510.836" y="88.127" fill="rgb(0%,0%,0%)"/><g fill="rgb(0%,0%,0%)"><use xlink:href="#F" x="516.872" y="88.127"/><use xlink:href="#n" x="519.64" y="88.127"/><use xlink:href="#r" x="523.514" y="88.127"/></g><use xlink:href="#s" x="528.495" y="88.127" fill="rgb(0%,0%,0%)"/><g fill="rgb(0%,0%,0%)"><use xlink:href="#t" x="532.923" y="88.127"/><use xlink:href="#p" x="537.904" y="88.127"/></g><use xlink:href="#o" x="543.99" y="88.127" fill="rgb(0%,0%,0%)"/><use xlink:href="#m" x="553.955" y="88.127" fill="rgb(0%,0%,0%)"/><use xlink:href="#G" x="559.97" y="88.127" fill="rgb(0%,0%,0%)"/><path d="M397.453 170.676l17.008-85.04H499.5l-17.008 85.04zm0 0" fill="rgb(50%,50%,50%)" fill-opacity="0.3" stroke-width="0.3985" stroke="rgb(0%,0%,0%)" stroke-miterlimit="10"/></svg>