<svg xmlns="http://www.w3.org/2000/svg" xmlns:xlink="http://www.w3.org/1999/xlink" width="278.965" height="173.881" viewBox="0 0 209.224 130.411"><defs><symbol overflow="visible" id="a"><path d="M2.39-2.531h1.297c.079 0 .376 0 .376-.281C4.063-3 3.874-3 3.75-3H1.562c-.203 0-.421.016-.78.344-.204.187-.47.547-.47.61 0 .077.094.077.126.077.078 0 .078-.015.124-.078.344-.484.782-.484.938-.484h.625L1.422-.297c-.031.11-.031.11-.031.156 0 .188.171.22.234.22.266 0 .313-.25.328-.345zm0 0"/></symbol><symbol overflow="visible" id="d"><path d="M4.078-2.531c.11 0 .188 0 .25-.047a.345.345 0 0 0 .125-.235C4.453-3 4.266-3 4.141-3H2.359C1.25-3 .406-1.906.406-1.062.406-.422.891.063 1.61.063c.875 0 1.875-.782 1.875-1.86 0-.11 0-.422-.203-.734zM1.61-.125c-.375 0-.687-.25-.687-.75 0-.203.125-1.656 1.328-1.656.344 0 .719.14.719.656 0 .14-.063.766-.406 1.234-.297.375-.688.516-.954.516zm0 0"/></symbol><symbol overflow="visible" id="b"><path d="M1.984-3.172c0-.14-.015-.14-.187-.14C1.453-3 .89-3 .797-3H.719v.219h.078c.11 0 .437-.016.734-.14v2.5c0 .14 0 .202-.531.202H.75V0c.266-.016.719-.016 1-.016.297 0 .734 0 1.016.016v-.219h-.25c-.532 0-.532-.062-.532-.203zm0 0"/></symbol><symbol overflow="visible" id="c"><path d="M2.938-.969h-.22c0 .094-.062.406-.14.453-.031.032-.453.032-.531.032h-.969c.328-.235.688-.516.984-.72.454-.312.876-.593.876-1.124 0-.64-.61-.985-1.313-.985-.672 0-1.172.376-1.172.876 0 .25.219.296.297.296a.283.283 0 0 0 .281-.296.27.27 0 0 0-.281-.282c.14-.234.438-.375.766-.375.484 0 .89.281.89.766 0 .422-.297.75-.672 1.062L.516-.234c-.047.047-.063.047-.063.078V0h2.313zm0 0"/></symbol><symbol overflow="visible" id="e"><path d="M3.219-1.578h2.14c.094 0 .25 0 .25-.156 0-.188-.156-.188-.25-.188H3.22v-2.14c0-.079 0-.25-.156-.25-.172 0-.172.156-.172.25v2.14H.75c-.094 0-.266 0-.266.172s.157.172.266.172h2.14v2.14c0 .094 0 .266.157.266.172 0 .172-.172.172-.265zm0 0"/></symbol><clipPath id="f"><path d="M200 19h9.223v27H200zm0 0"/></clipPath><clipPath id="g"><path d="M144 5h65.223v27H144zm0 0"/></clipPath><clipPath id="h"><path d="M144 33h65.223v27H144zm0 0"/></clipPath></defs><path d="M7.914 11.332v0zm.002 13.946l-.001-13.95V-9.59M-48.78-23.762c31.496 0 25.199 14.172 56.695 14.172m0 13.95c-31.496 0-25.2-14.177-56.695-14.177" fill="none" stroke-width="0.3985" stroke="rgb(0%,0%,0%)" stroke-miterlimit="10"/><path d="M24.922 27.262V13.09m22.68 24.379V23.293" fill="none" stroke-width="0.3985" stroke="rgb(0%,0%,0%)" stroke-dasharray="2.98883,2.98883" stroke-miterlimit="10"/><use xlink:href="#a" x="21.142" y="33.112" fill="rgb(0%,0%,0%)"/><use xlink:href="#b" x="24.816" y="34.108" fill="rgb(0%,0%,0%)"/><use xlink:href="#a" x="43.819" y="43.316" fill="rgb(0%,0%,0%)"/><use xlink:href="#c" x="47.493" y="44.313" fill="rgb(0%,0%,0%)"/><path d="M5.082 25.277V11.562" fill="none" stroke-width="0.3985" stroke="rgb(0%,0%,0%)" stroke-miterlimit="10"/><path d="M3.484 12.758c.598-.098 1.496-1.195 1.598-1.492.098.296.996 1.394 1.594 1.492" fill="none" stroke-width="0.31879" stroke-linecap="round" stroke-linejoin="round" stroke="rgb(0%,0%,0%)" stroke-miterlimit="10"/><use xlink:href="#d" x="2.647" y="31.127" fill="rgb(0%,0%,0%)"/><use xlink:href="#e" x="75.723" y="34.221" fill="rgb(0%,0%,0%)"/><path d="M10.75 8.496c10.227-.086 16.285 1.262 25.098 5.473" fill="none" stroke-width="0.3985" stroke="rgb(0%,0%,0%)" stroke-miterlimit="10"/><path d="M35.457 12.016c-.168.582.434 1.863.66 2.082-.312-.04-1.687.297-2.035.793" fill="none" stroke-width=".31877087260000003" stroke-linecap="round" stroke-linejoin="round" stroke="rgb(0%,0%,0%)" stroke-miterlimit="10"/><use xlink:href="#a" x="21.266" y="5.649" fill="rgb(0%,0%,0%)"/><path d="M92.957 25.504v0zM-77.127 11.106C39.407 32.703 33.11 18.53 64.606 18.53m0 13.945c-18.898 0-18.898 14.403 0 14.403m0 13.945c-31.496 0-25.199-14.172-56.691-14.172m0 0v-6.977-6.972" fill="none" stroke-width="0.3985" stroke="rgb(0%,0%,0%)" stroke-miterlimit="10"/><g clip-path="url(#f)"><path d="M206.344 39.453v-6.976-6.973" fill="none" stroke-width="0.3985" stroke="rgb(0%,0%,0%)" stroke-miterlimit="10"/></g><path d="M149.648 39.68c18.899 0 18.899-14.403 0-14.403" fill="none" stroke-width="0.3985" stroke="rgb(0%,0%,0%)" stroke-miterlimit="10"/><g clip-path="url(#g)"><path d="M149.648 11.332c31.497 0 25.2 14.172 56.696 14.172" fill="none" stroke-width="0.3985" stroke="rgb(0%,0%,0%)" stroke-miterlimit="10"/></g><g clip-path="url(#h)"><path d="M206.344 39.453c-31.496 0-25.2 14.172-56.696 14.172" fill="none" stroke-width="0.3985" stroke="rgb(0%,0%,0%)" stroke-miterlimit="10"/></g><path d="M90.121 39.453V25.961" fill="none" stroke-width="0.3985" stroke="rgb(0%,0%,0%)" stroke-miterlimit="10"/><path d="M88.527 27.16c.598-.101 1.493-1.2 1.594-1.496.098.297.996 1.395 1.594 1.496" fill="none" stroke-width="0.31879" stroke-linecap="round" stroke-linejoin="round" stroke="rgb(0%,0%,0%)" stroke-miterlimit="10"/><use xlink:href="#d" x="87.686" y="45.302" fill="rgb(0%,0%,0%)"/><path d="M141.145 12.07v14.453m0 11.907v15.023m17.007-41.383v14.453m0 11.907v15.023" fill="none" stroke-width="0.3985" stroke="rgb(0%,0%,0%)" stroke-dasharray="2.98883,2.98883" stroke-miterlimit="10"/><use xlink:href="#a" x="137.362" y="8.226" fill="rgb(0%,0%,0%)"/><use xlink:href="#b" x="141.036" y="9.222" fill="rgb(0%,0%,0%)"/><use xlink:href="#a" x="154.37" y="8.226" fill="rgb(0%,0%,0%)"/><use xlink:href="#c" x="158.044" y="9.222" fill="rgb(0%,0%,0%)"/><path d="M95.79 22.668c10.343-.453 16.417-2.14 25.108-6.867" fill="none" stroke-width="0.3985" stroke="rgb(0%,0%,0%)" stroke-miterlimit="10"/><path d="M119.09 14.973c.37.476 1.762.742 2.074.687-.219.23-.75 1.54-.555 2.113" fill="none" stroke-width=".3187676847" stroke-linecap="round" stroke-linejoin="round" stroke="rgb(0%,0%,0%)" stroke-miterlimit="10"/><use xlink:href="#a" x="106.305" y="19.823" fill="rgb(0%,0%,0%)"/><path d="M163.824 117.52c0-2.348-6.347-4.254-14.176-4.254-7.828 0-14.171 1.906-14.171 4.254 0 2.347 6.343 4.25 14.171 4.25 7.829 0 14.176-1.903 14.176-4.25zm0 0" fill="none" stroke-width="0.3985" stroke="rgb(0%,0%,0%)" stroke-miterlimit="10"/><path d="M135.477 117.32h28.347V88.973h-28.347zm0 0" fill="rgb(100%,100%,100%)"/><path d="M163.824 88.773c0-2.347-6.347-4.253-14.176-4.253-7.828 0-14.171 1.906-14.171 4.253 0 2.348 6.343 4.254 14.171 4.254 7.829 0 14.176-1.906 14.176-4.254zm0 0" fill="rgb(100%,100%,100%)" stroke-width="0.3985" stroke="rgb(0%,0%,0%)" stroke-miterlimit="10"/><path d="M135.477 117.52V88.773m28.347 28.747V88.773m-4.594-5.96c-7.109-1.903-12.054-1.903-19.16 0" fill="none" stroke-width="0.3985" stroke="rgb(0%,0%,0%)" stroke-miterlimit="10"/><path d="M158.484 80.965c-.054.601.77 1.754 1.032 1.926-.313.02-1.602.601-1.856 1.152" fill="none" stroke-width=".3187836242" stroke-linecap="round" stroke-linejoin="round" stroke="rgb(0%,0%,0%)" stroke-miterlimit="10"/><path d="M141.637 84.043c-.25-.55-1.543-1.133-1.856-1.152.262-.172 1.09-1.325 1.031-1.926" fill="none" stroke-width=".3187836242" stroke-linecap="round" stroke-linejoin="round" stroke="rgb(0%,0%,0%)" stroke-miterlimit="10"/><use xlink:href="#a" x="132.299" y="84.432" fill="rgb(0%,0%,0%)"/><path d="M168.176 117.691V84.133" fill="none" stroke-width="0.3985" stroke="rgb(0%,0%,0%)" stroke-miterlimit="10"/><path d="M166.582 85.328c.598-.098 1.492-1.195 1.594-1.496.097.3.996 1.398 1.594 1.496" fill="none" stroke-width="0.31879" stroke-linecap="round" stroke-linejoin="round" stroke="rgb(0%,0%,0%)" stroke-miterlimit="10"/><use xlink:href="#d" x="171.02" y="102.183" fill="rgb(0%,0%,0%)"/><path d="M141.145 120.922v-35.55m17.007 35.55v-35.55" fill="none" stroke-width="0.3985" stroke="rgb(0%,0%,0%)" stroke-dasharray="2.98883,2.98883" stroke-miterlimit="10"/><use xlink:href="#a" x="137.362" y="126.768" fill="rgb(0%,0%,0%)"/><use xlink:href="#b" x="141.036" y="127.764" fill="rgb(0%,0%,0%)"/><use xlink:href="#a" x="154.37" y="126.768" fill="rgb(0%,0%,0%)"/><use xlink:href="#c" x="158.044" y="127.764" fill="rgb(0%,0%,0%)"/><path d="M151.871 63.36V74.7m-4.445-11.34V74.7M50.434 88.772c0-7.828-6.344-14.171-14.172-14.171S22.09 80.945 22.09 88.773c0 7.829 6.344 14.172 14.172 14.172s14.172-6.343 14.172-14.172zm0 0" fill="none" stroke-width="0.3985" stroke="rgb(0%,0%,0%)" stroke-miterlimit="10"/><path d="M23.418 82.785h25.687M23.418 94.762h25.687" fill="none" stroke-width="0.3985" stroke="rgb(0%,0%,0%)" stroke-dasharray="2.98883,2.98883" stroke-miterlimit="10"/><use xlink:href="#a" x="51.953" y="83.786" fill="rgb(0%,0%,0%)"/><use xlink:href="#c" x="55.628" y="84.782" fill="rgb(0%,0%,0%)"/><use xlink:href="#a" x="51.953" y="95.765" fill="rgb(0%,0%,0%)"/><use xlink:href="#b" x="55.628" y="96.761" fill="rgb(0%,0%,0%)"/><path d="M27.27 92.965h17.527" fill="none" stroke-width="0.3985" stroke="rgb(0%,0%,0%)" stroke-miterlimit="10"/><path d="M43.598 91.371c.101.598 1.199 1.496 1.496 1.594-.297.101-1.395.996-1.496 1.594" fill="none" stroke-width="0.31879" stroke-linecap="round" stroke-linejoin="round" stroke="rgb(0%,0%,0%)" stroke-miterlimit="10"/><use xlink:href="#d" x="33.828" y="92.239" fill="rgb(0%,0%,0%)"/><path d="M38.484 63.36V52.02M34.04 63.36V52.02M22.941 98.613c-5.28-5.281-5.28-14.398 0-19.68" fill="none" stroke-width="0.3985" stroke="rgb(0%,0%,0%)" stroke-miterlimit="10"/><path d="M23.223 96.64c-.352.493-.211 1.903-.07 2.184-.282-.14-1.692-.281-2.184.07" fill="none" stroke-width=".31878681210000004" stroke-linecap="round" stroke-linejoin="round" stroke="rgb(0%,0%,0%)" stroke-miterlimit="10"/><path d="M20.969 78.652c.492.352 1.902.211 2.183.07-.14.282-.28 1.692.07 2.184" fill="none" stroke-width=".31878681210000004" stroke-linecap="round" stroke-linejoin="round" stroke="rgb(0%,0%,0%)" stroke-miterlimit="10"/><use xlink:href="#a" x="14.563" y="90.274" fill="rgb(0%,0%,0%)"/></svg>