<svg xmlns="http://www.w3.org/2000/svg" xmlns:xlink="http://www.w3.org/1999/xlink" width="267.08" height="129.328" viewBox="0 0 200.31 96.996"><defs><symbol overflow="visible" id="a"><path d="M.422.969c-.078.25-.094.312-.406.312-.11 0-.204 0-.204.157 0 .062.063.109.11.109.078 0 .11-.031.703-.031.563 0 .734.03.797.03.031 0 .14 0 .14-.155 0-.11-.109-.11-.203-.11-.375 0-.375-.047-.375-.125 0-.047.141-.61.375-1.547.11.188.36.47.782.47.984 0 2-1.126 2-2.282C4.14-3 3.64-3.516 3-3.516c-.484 0-.86.329-1.094.563-.172-.563-.703-.563-.781-.563-.281 0-.484.188-.61.438-.187.36-.28.765-.28.781 0 .078.062.11.124.11.11 0 .11-.032.172-.25.094-.407.235-.86.563-.86.203 0 .265.188.265.375 0 .078-.03.281-.046.344zm1.453-3.422c.047-.14.047-.156.172-.297.297-.36.64-.547.922-.547.406 0 .547.39.547.75 0 .297-.172 1.156-.407 1.625-.203.422-.593.781-.968.781-.532 0-.672-.625-.672-.687 0-.016.015-.094.031-.125zm0 0"/></symbol><symbol overflow="visible" id="b"><path d="M3.219-1.125H3c-.016.094-.078.484-.156.547-.047.047-.531.047-.625.047h-1.11l.766-.625c.203-.172.734-.547.922-.735.172-.171.422-.484.422-.906 0-.75-.672-1.187-1.485-1.187-.765 0-1.296.515-1.296 1.078 0 .297.25.344.312.344a.32.32 0 0 0 .328-.329c0-.125-.078-.328-.344-.328.141-.297.5-.531.922-.531.625 0 .953.469.953.953 0 .422-.28.86-.687 1.25L.5-.25C.437-.187.437-.187.437 0h2.594zm0 0"/></symbol><symbol overflow="visible" id="c"><path d="M1.766-1.984c.5 0 .843.343.843.953 0 .656-.39.937-.828.937C1.61-.094 1-.125.734-.469c.235-.031.329-.187.329-.344a.328.328 0 0 0-.344-.343.34.34 0 0 0-.344.36c0 .593.656.921 1.422.921.89 0 1.469-.563 1.469-1.156 0-.438-.329-.907-1.047-1.078.484-.157.86-.547.86-1.032 0-.484-.563-.843-1.282-.843-.703 0-1.234.328-1.234.812 0 .266.203.328.328.328.156 0 .312-.094.312-.312 0-.188-.125-.297-.297-.313.281-.312.828-.312.89-.312.298 0 .688.14.688.64 0 .329-.187.907-.796.938-.11 0-.266.015-.313.015-.063.016-.125.016-.125.11s.063.094.156.094zm0 0"/></symbol><symbol overflow="visible" id="d"><path d="M3.375-.984v-.235h-.703v-2.64c0-.141 0-.188-.14-.188-.11 0-.126.031-.173.094L.281-1.22v.235h1.86V-.5c0 .188 0 .266-.5.266h-.188V0c.125 0 .688-.031.953-.031.266 0 .828.031.938.031v-.234h-.172c-.5 0-.5-.078-.5-.266v-.484zM2.172-3.391v2.172H.532zm0 0"/></symbol><symbol overflow="visible" id="e"><path d="M2.14-3.797c0-.187-.015-.187-.203-.187-.39.39-1 .39-1.218.39v.235c.156 0 .562 0 .922-.172v3.015c0 .204 0 .282-.625.282h-.25V0c.328-.031.796-.031 1.125-.031.328 0 .796 0 1.125.031v-.234h-.25c-.625 0-.625-.078-.625-.282zm0 0"/></symbol><symbol overflow="visible" id="h"><path d="M4.61-3.375C4.515-4 4.11-4.563 3.327-4.563c-.61 0-1.25.172-2.031.938a2.953 2.953 0 0 0-.89 2.063c0 .625.437 1.78 1.827 1.78 2.375 0 3.407-3.343 3.407-4.78 0-1.579-.922-2.579-2.157-2.579-1.437 0-1.906 1.297-1.906 1.579 0 .14.094.343.39.343a.544.544 0 0 0 .532-.515c0-.36-.313-.36-.469-.36.438-.734 1.156-.797 1.438-.797.734 0 1.422.516 1.422 1.813 0 .39-.063.89-.266 1.703zM2.265-.062c-1.094 0-1.094-1.032-1.094-1.125 0-.266.25-1.657.656-2.266.39-.563.89-.89 1.5-.89 1.094 0 1.11 1.124 1.11 1.327 0 .72-.641 2.954-2.172 2.954zm0 0"/></symbol><symbol overflow="visible" id="j"><path d="M3.734-6.125c.063-.234.094-.328.282-.36.093-.015.406-.015.609-.015.703 0 1.813 0 1.813.984 0 .344-.157 1.032-.547 1.422-.266.25-.782.578-1.688.578h-1.11zm1.438 2.734c1.016-.218 2.187-.921 2.187-1.921 0-.86-.89-1.5-2.203-1.5H2.328c-.203 0-.297 0-.297.203 0 .109.094.109.281.109.016 0 .204 0 .376.016.187.03.265.03.265.171 0 .032 0 .063-.031.188L1.578-.781c-.094.39-.11.469-.906.469-.172 0-.266 0-.266.203C.406 0 .531 0 .546 0c.282 0 .985-.031 1.25-.031.282 0 1 .031 1.282.031.078 0 .188 0 .188-.203 0-.11-.079-.11-.282-.11-.359 0-.64 0-.64-.171 0-.063.015-.11.031-.172l.656-2.64H4.22c.906 0 1.078.562 1.078.905 0 .141-.078.454-.14.688-.063.281-.157.64-.157.844C5 .219 6.203.219 6.328.219c.844 0 1.203-1 1.203-1.14 0-.126-.11-.126-.125-.126-.093 0-.11.063-.125.14-.25.735-.687.907-.906.907-.328 0-.406-.219-.406-.61 0-.312.062-.812.11-1.14.015-.14.03-.328.03-.469 0-.765-.671-1.078-.937-1.172zm0 0"/></symbol><symbol overflow="visible" id="o"><path d="M.453 1.219c-.078.343-.11.406-.547.406-.11 0-.218 0-.218.188 0 .078.046.125.124.125.266 0 .563-.032.829-.032.343 0 .671.032 1 .032.046 0 .171 0 .171-.204 0-.109-.093-.109-.234-.109-.5 0-.5-.063-.5-.156 0-.125.422-1.75.484-2 .125.297.407.64.922.64 1.157 0 2.407-1.453 2.407-2.921 0-.938-.579-1.594-1.329-1.594-.5 0-.984.36-1.312.75-.094-.547-.531-.75-.89-.75-.47 0-.657.39-.735.562-.188.344-.313.938-.313.969 0 .11.094.11.11.11.11 0 .11-.016.172-.235.172-.703.375-1.188.734-1.188.172 0 .313.079.313.454 0 .234-.032.343-.079.515zm1.75-4.328c.063-.266.344-.547.516-.704.36-.296.64-.374.812-.374.39 0 .64.343.64.937 0 .594-.327 1.734-.515 2.11-.344.702-.812 1.03-1.187 1.03-.656 0-.781-.828-.781-.89 0-.016 0-.031.03-.156zm0 0"/></symbol><symbol overflow="visible" id="q"><path d="M2.031-.016c0-.656-.25-1.046-.64-1.046a.517.517 0 0 0-.532.53c0 .266.204.532.532.532a.58.58 0 0 0 .343-.125c.032-.031.047-.031.047-.031.016 0 .016 0 .016.14 0 .75-.344 1.344-.672 1.672-.11.11-.11.125-.11.157 0 .078.048.109.094.109.11 0 .922-.766.922-1.938zm0 0"/></symbol><symbol overflow="visible" id="ar"><path d="M7.578-6.922c0-.031-.016-.11-.11-.11-.03 0-.046.016-.155.126l-.688.765c-.094-.14-.547-.89-1.656-.89C2.734-7.031.5-4.828.5-2.516.5-.922 1.61.22 3.219.22c.437 0 .89-.094 1.25-.235.5-.203.687-.406.86-.609.093.25.359.61.452.61.047 0 .078-.032.078-.032.016-.015.11-.406.157-.61l.187-.765.14-.516c.11-.437.11-.468.688-.468.047 0 .157-.016.157-.203 0-.079-.047-.11-.125-.11-.235 0-.829.031-1.047.031-.313 0-1.094-.03-1.407-.03-.078 0-.203 0-.203.202 0 .11.078.11.297.11.016 0 .297 0 .531.015.266.032.313.063.313.188 0 .094-.11.531-.219.906C5.047-.203 3.766-.094 3.406-.094c-.953 0-2-.562-2-2.094 0-.312.094-1.953 1.14-3.25.548-.671 1.517-1.28 2.5-1.28 1.016 0 1.61.765 1.61 1.921 0 .406-.031.406-.031.516 0 .093.11.093.14.093.126 0 .126-.015.188-.203zm0 0"/></symbol><symbol overflow="visible" id="bt"><path d="M1.688 1.688c-.032.14-.047.156-.047.203 0 .218.187.28.296.28a.413.413 0 0 0 .36-.265c.031-.078.078-.406.36-1.812.077 0 .155.015.327.015 1.657 0 3.188-1.562 3.188-3.14 0-.781-.39-1.375-1.14-1.375-1.438 0-2.048 1.937-2.641 3.875C1.312-.734.75-1.281.75-2c0-.281.234-1.375.828-2.063.094-.093.094-.109.094-.14 0-.031-.031-.094-.125-.094C1.266-4.297.5-2.844.5-1.89c0 .938.656 1.657 1.719 1.907zM3.077-.47c-.094 0-.11 0-.187-.015-.125 0-.125 0-.125-.032 0-.015.171-.937.187-1.078.313-1.281 1.094-2.234 1.985-2.234.687 0 .953.531.953 1.015 0 1.126-1.282 2.344-2.813 2.344zm0 0"/></symbol><symbol overflow="visible" id="bv"><path d="M4.5-4.297c0-.047-.031-.094-.094-.094-.11 0-.515.391-.672.688-.218-.547-.609-.703-.937-.703-1.172 0-2.39 1.468-2.39 2.922C.406-.516.983.109 1.718.109c.422 0 .812-.234 1.172-.593-.094.343-.422 1.687-.454 1.78-.078.282-.156.313-.718.329-.125 0-.219 0-.219.203 0 0 0 .11.125.11.313 0 .672-.032 1-.032.328 0 .688.032 1.031.032.047 0 .172 0 .172-.204 0-.109-.094-.109-.265-.109-.47 0-.47-.063-.47-.156 0-.078.016-.14.032-.219zM1.75-.109c-.61 0-.64-.766-.64-.938 0-.484.28-1.562.452-1.984.313-.735.829-1.156 1.235-1.156.656 0 .797.812.797.875 0 .062-.547 2.25-.578 2.28-.157.282-.72.923-1.266.923zm0 0"/></symbol><symbol overflow="visible" id="i"><path d="M2.188-4.625c0-.016.015-.11.015-.11 0-.046-.015-.109-.11-.109-.14 0-.718.063-.89.078-.047 0-.156.016-.156.157 0 .093.11.093.187.093.329 0 .329.063.329.11s-.016.093-.016.156L.563-.312c-.047.124-.047.14-.047.156 0 .11.093.218.25.218.187 0 .265-.124.312-.28.016-.032.313-1.266.344-1.36.5.047.89.219.89.578 0 .031 0 .063-.015.14-.031.094-.031.141-.031.22 0 .484.406.703.75.703.671 0 .875-1.047.875-1.063 0-.094-.079-.094-.11-.094-.094 0-.11.047-.14.172-.079.297-.266.797-.61.797-.187 0-.25-.172-.25-.36 0-.124 0-.14.047-.312a.724.724 0 0 0 .031-.219c0-.625-.828-.718-1.125-.734.204-.125.454-.36.579-.469.359-.328.703-.656 1.093-.656.078 0 .172.016.235.094a.396.396 0 0 0-.36.39c0 .141.11.25.266.25.203 0 .406-.156.406-.437a.5.5 0 0 0-.531-.5c-.406 0-.766.297-1.125.625-.297.265-.516.484-.813.61zm0 0"/></symbol><symbol overflow="visible" id="k"><path d="M1.469-.11c0 .376-.063.829-.547 1.266-.016.032-.047.063-.047.094 0 .047.063.094.094.094.11 0 .703-.563.703-1.39 0-.423-.172-.75-.5-.75a.387.387 0 0 0-.39.39c0 .219.155.406.405.406.172 0 .282-.11.282-.11zm0 0"/></symbol><symbol overflow="visible" id="l"><path d="M2.266-4.36a.276.276 0 0 0-.282-.265c-.187 0-.39.188-.39.39 0 .11.078.266.281.266.188 0 .39-.203.39-.39zM.844-.811C.813-.72.78-.641.78-.516c0 .329.266.579.656.579.688 0 1-.954 1-1.063 0-.094-.093-.094-.109-.094-.094 0-.11.047-.14.125-.157.563-.454.844-.735.844-.14 0-.172-.094-.172-.25s.047-.281.11-.438c.078-.187.156-.375.218-.562.063-.172.329-.797.344-.89A.5.5 0 0 0 2-2.486c0-.328-.281-.593-.656-.593C.64-3.078.328-2.125.328-2c0 .078.094.078.125.078.094 0 .094-.031.125-.11.172-.593.485-.843.735-.843.109 0 .171.047.171.234 0 .172-.03.266-.203.704zm0 0"/></symbol><symbol overflow="visible" id="m"><path d="M3.063-4.36a.276.276 0 0 0-.282-.265c-.203 0-.39.203-.39.39 0 .11.078.266.28.266.188 0 .392-.187.392-.39zM1.577.345c-.11.484-.484.875-.89.875-.094 0-.172 0-.25-.032A.424.424 0 0 0 .671.829c0-.172-.14-.25-.281-.25C.187.578 0 .766 0 .984c0 .266.266.438.688.438.421 0 1.234-.25 1.453-1.094l.625-2.5c.015-.078.03-.14.03-.25 0-.375-.327-.656-.733-.656C1.28-3.078.843-2.11.843-2c0 .078.095.078.11.078.078 0 .094-.016.14-.125.173-.406.532-.828.938-.828.172 0 .235.11.235.344 0 .078 0 .172-.016.203zm0 0"/></symbol><symbol overflow="visible" id="br"><path d="M1.969-4.625c0-.016.031-.11.031-.11 0-.046-.031-.109-.125-.109-.14 0-.719.063-.89.078-.047 0-.141.016-.141.157 0 .093.094.093.172.093.343 0 .343.063.343.11s-.015.093-.03.156L.452-.812c-.016.078-.016.156-.016.218 0 .453.391.656.72.656.171 0 .39-.046.562-.359.156-.266.25-.672.25-.703 0-.094-.094-.094-.11-.094-.109 0-.125.047-.14.172-.094.344-.235.797-.532.797C1-.125.954-.297.954-.469.953-.547.97-.672 1-.75zm0 0"/></symbol><symbol overflow="visible" id="bu"><path d="M2.938-2.656c-.141-.235-.376-.422-.72-.422-.89 0-1.796.984-1.796 1.984C.422-.406.875.063 1.484.063c.375 0 .704-.204.985-.485.125.422.531.484.719.484.25 0 .421-.14.546-.359.157-.281.25-.672.25-.703 0-.094-.093-.094-.109-.094-.11 0-.11.032-.156.219-.094.344-.219.75-.516.75-.172 0-.234-.156-.234-.344 0-.11.062-.375.11-.547.046-.187.124-.468.155-.625l.141-.53c.047-.188.125-.517.125-.548 0-.156-.125-.219-.234-.219-.125 0-.282.079-.329.282zM2.5-.875c-.047.203-.203.344-.36.469-.062.062-.343.281-.64.281-.266 0-.516-.188-.516-.672 0-.375.204-1.14.375-1.422.313-.562.672-.656.86-.656.484 0 .625.531.625.61 0 .015-.016.078-.016.093zm0 0"/></symbol><symbol overflow="visible" id="n"><path d="M3.297 2.39c0-.03 0-.046-.172-.218C1.891.922 1.562-.968 1.562-2.5c0-1.734.375-3.469 1.61-4.703.125-.125.125-.14.125-.172 0-.078-.031-.11-.094-.11-.11 0-1 .688-1.594 1.954C1.11-4.438.984-3.328.984-2.5c0 .781.11 1.984.657 3.125C2.25 1.844 3.094 2.5 3.203 2.5c.063 0 .094-.031.094-.11zm0 0"/></symbol><symbol overflow="visible" id="s"><path d="M2.875-2.5c0-.766-.11-1.969-.656-3.11C1.625-6.827.766-7.483.672-7.483a.107.107 0 0 0-.11.109c0 .031 0 .047.188.234.984.985 1.547 2.563 1.547 4.641 0 1.719-.36 3.469-1.594 4.719-.14.125-.14.14-.14.172 0 .062.046.109.109.109.094 0 1-.688 1.578-1.953.516-1.094.625-2.203.625-3.047zm0 0"/></symbol><symbol overflow="visible" id="bw"><path d="M5.516-6.781H.328v.312h.234c.766 0 .797.11.797.469v5.219c0 .36-.03.469-.796.469H.328V0c.344-.031 1.125-.031 1.516-.031.406 0 1.312 0 1.672.031v-.313h-.329c-.937 0-.937-.124-.937-.468v-5.297c0-.328.016-.39.484-.39h1.032c1.421 0 1.625.593 1.78 1.937h.25zm0 0"/></symbol><symbol overflow="visible" id="p"><path d="M2.328-4.438c0-.187 0-.187-.203-.187-.453.438-1.078.438-1.36.438v.25c.157 0 .626 0 1-.188v3.547c0 .234 0 .328-.687.328H.812V0c.125 0 .985-.031 1.235-.031.219 0 1.094.031 1.25.031v-.25H3.03c-.703 0-.703-.094-.703-.328zm0 0"/></symbol><symbol overflow="visible" id="r"><path d="M3.516-1.266H3.28c-.015.157-.094.563-.187.625-.047.047-.578.047-.688.047H1.125c.734-.64.984-.844 1.39-1.172.516-.406 1-.843 1-1.5 0-.843-.734-1.359-1.624-1.359-.86 0-1.454.61-1.454 1.25 0 .344.297.39.376.39.156 0 .359-.124.359-.374 0-.125-.047-.375-.406-.375.218-.485.687-.641 1.015-.641.703 0 1.063.547 1.063 1.11 0 .609-.438 1.078-.656 1.328L.516-.266C.437-.203.437-.187.437 0h2.876zm0 0"/></symbol><symbol overflow="visible" id="as"><path d="M1.906-2.328c.547 0 .938.375.938 1.125 0 .86-.516 1.125-.906 1.125-.282 0-.907-.078-1.188-.5.328 0 .406-.235.406-.39 0-.22-.172-.376-.39-.376a.38.38 0 0 0-.391.407C.375-.281 1.094.14 1.938.14c.968 0 1.64-.657 1.64-1.344 0-.547-.437-1.094-1.203-1.25.719-.266.984-.781.984-1.219 0-.547-.625-.953-1.406-.953-.766 0-1.36.375-1.36.938 0 .234.157.359.36.359.219 0 .36-.156.36-.344 0-.203-.141-.36-.36-.375.25-.297.719-.375.985-.375.312 0 .75.156.75.75 0 .297-.094.625-.282.828-.219.266-.422.281-.765.313-.172.015-.188.015-.22.015-.015 0-.077.016-.077.094 0 .094.062.094.187.094zm0 0"/></symbol><symbol overflow="visible" id="bs"><path d="M3.688-1.14v-.25h-.782V-4.5c0-.14 0-.203-.14-.203-.094 0-.125 0-.188.11L.266-1.392v.25h2.062v.563c0 .25 0 .328-.578.328h-.188V0c.36-.016.797-.031 1.047-.031.266 0 .704.015 1.063.031v-.25h-.188c-.578 0-.578-.078-.578-.328v-.563zM2.375-3.939v2.547H.531zm0 0"/></symbol><symbol overflow="visible" id="bx"><path d="M2.469-5.219C1.156-4.297.797-2.812.797-1.75c0 .984.297 2.516 1.672 3.484.062 0 .14 0 .14-.078 0-.047-.015-.062-.062-.11C1.609.704 1.28-.468 1.28-1.733c0-1.891.719-2.813 1.282-3.329.03-.03.046-.046.046-.078 0-.078-.078-.078-.14-.078zm0 0"/></symbol><symbol overflow="visible" id="by"><path d="M.625-5.219c-.047 0-.125 0-.125.078 0 .032.016.047.063.11.593.547 1.265 1.484 1.265 3.281 0 1.453-.453 2.563-1.203 3.234C.5 1.61.5 1.61.5 1.656c0 .032.016.078.078.078.094 0 .75-.453 1.219-1.328.297-.578.5-1.328.5-2.14C2.297-2.72 2-4.25.625-5.22zm0 0"/></symbol><symbol overflow="visible" id="bz"><path d="M6.563-2.297c.171 0 .359 0 .359-.203 0-.188-.188-.188-.36-.188h-5.39c-.172 0-.344 0-.344.188 0 .203.172.203.344.203zm0 0"/></symbol><clipPath id="f"><path d="M120 44h10v9h-10zm0 0"/></clipPath><clipPath id="g"><path d="M129.063 48.496a4.25 4.25 0 0 0-4.25-4.25 4.25 4.25 0 0 0-4.254 4.25 4.251 4.251 0 0 0 4.254 4.254 4.25 4.25 0 0 0 4.25-4.254zm0 0"/></clipPath><clipPath id="t"><path d="M92 24.27h1.648V25H92zm0 0"/></clipPath><clipPath id="u"><path d="M100.715 20.152a4.253 4.253 0 0 0-4.25-4.254 4.256 4.256 0 0 0-4.254 4.254 4.253 4.253 0 0 0 8.504 0zm0 0"/></clipPath><clipPath id="v"><path d="M92 24.27h4.64V25H92zm0 0"/></clipPath><clipPath id="w"><path d="M100.715 20.152a4.253 4.253 0 0 0-4.25-4.254 4.256 4.256 0 0 0-4.254 4.254 4.253 4.253 0 0 0 8.504 0zm0 0"/></clipPath><clipPath id="x"><path d="M94.645 24.27h4.984V25h-4.984zm0 0"/></clipPath><clipPath id="y"><path d="M100.715 20.152a4.253 4.253 0 0 0-4.25-4.254 4.256 4.256 0 0 0-4.254 4.254 4.253 4.253 0 0 0 8.504 0zm0 0"/></clipPath><clipPath id="z"><path d="M97.637 24.27H101V25h-3.363zm0 0"/></clipPath><clipPath id="A"><path d="M100.715 20.152a4.253 4.253 0 0 0-4.25-4.254 4.256 4.256 0 0 0-4.254 4.254 4.253 4.253 0 0 0 8.504 0zm0 0"/></clipPath><clipPath id="B"><path d="M100.625 24.27H101V25h-.375zm0 0"/></clipPath><clipPath id="C"><path d="M100.715 20.152a4.253 4.253 0 0 0-4.25-4.254 4.256 4.256 0 0 0-4.254 4.254 4.253 4.253 0 0 0 8.504 0zm0 0"/></clipPath><clipPath id="D"><path d="M92 21.277h1.648V25H92zm0 0"/></clipPath><clipPath id="E"><path d="M100.715 20.152a4.253 4.253 0 0 0-4.25-4.254 4.256 4.256 0 0 0-4.254 4.254 4.253 4.253 0 0 0 8.504 0zm0 0"/></clipPath><clipPath id="F"><path d="M92 21.277h4.64V25H92zm0 0"/></clipPath><clipPath id="G"><path d="M100.715 20.152a4.253 4.253 0 0 0-4.25-4.254 4.256 4.256 0 0 0-4.254 4.254 4.253 4.253 0 0 0 8.504 0zm0 0"/></clipPath><clipPath id="H"><path d="M94.645 21.277h4.984V25h-4.984zm0 0"/></clipPath><clipPath id="I"><path d="M100.715 20.152a4.253 4.253 0 0 0-4.25-4.254 4.256 4.256 0 0 0-4.254 4.254 4.253 4.253 0 0 0 8.504 0zm0 0"/></clipPath><clipPath id="J"><path d="M97.637 21.277H101V25h-3.363zm0 0"/></clipPath><clipPath id="K"><path d="M100.715 20.152a4.253 4.253 0 0 0-4.25-4.254 4.256 4.256 0 0 0-4.254 4.254 4.253 4.253 0 0 0 8.504 0zm0 0"/></clipPath><clipPath id="L"><path d="M100.625 21.277H101V25h-.375zm0 0"/></clipPath><clipPath id="M"><path d="M100.715 20.152a4.253 4.253 0 0 0-4.25-4.254 4.256 4.256 0 0 0-4.254 4.254 4.253 4.253 0 0 0 8.504 0zm0 0"/></clipPath><clipPath id="N"><path d="M92 18.29h1.648v4.983H92zm0 0"/></clipPath><clipPath id="O"><path d="M100.715 20.152a4.253 4.253 0 0 0-4.25-4.254 4.256 4.256 0 0 0-4.254 4.254 4.253 4.253 0 0 0 8.504 0zm0 0"/></clipPath><clipPath id="P"><path d="M92 18.29h4.64v4.983H92zm0 0"/></clipPath><clipPath id="Q"><path d="M100.715 20.152a4.253 4.253 0 0 0-4.25-4.254 4.256 4.256 0 0 0-4.254 4.254 4.253 4.253 0 0 0 8.504 0zm0 0"/></clipPath><clipPath id="R"><path d="M94.645 18.29h4.984v4.983h-4.984zm0 0"/></clipPath><clipPath id="S"><path d="M100.715 20.152a4.253 4.253 0 0 0-4.25-4.254 4.256 4.256 0 0 0-4.254 4.254 4.253 4.253 0 0 0 8.504 0zm0 0"/></clipPath><clipPath id="T"><path d="M97.637 18.29H101v4.983h-3.363zm0 0"/></clipPath><clipPath id="U"><path d="M100.715 20.152a4.253 4.253 0 0 0-4.25-4.254 4.256 4.256 0 0 0-4.254 4.254 4.253 4.253 0 0 0 8.504 0zm0 0"/></clipPath><clipPath id="V"><path d="M100.625 18.29H101v4.983h-.375zm0 0"/></clipPath><clipPath id="W"><path d="M100.715 20.152a4.253 4.253 0 0 0-4.25-4.254 4.256 4.256 0 0 0-4.254 4.254 4.253 4.253 0 0 0 8.504 0zm0 0"/></clipPath><clipPath id="X"><path d="M92 15.3h1.648v4.981H92zm0 0"/></clipPath><clipPath id="Y"><path d="M100.715 20.152a4.253 4.253 0 0 0-4.25-4.254 4.256 4.256 0 0 0-4.254 4.254 4.253 4.253 0 0 0 8.504 0zm0 0"/></clipPath><clipPath id="Z"><path d="M92 15.3h4.64v4.981H92zm0 0"/></clipPath><clipPath id="aa"><path d="M100.715 20.152a4.253 4.253 0 0 0-4.25-4.254 4.256 4.256 0 0 0-4.254 4.254 4.253 4.253 0 0 0 8.504 0zm0 0"/></clipPath><clipPath id="ab"><path d="M94.645 15.3h4.984v4.981h-4.984zm0 0"/></clipPath><clipPath id="ac"><path d="M100.715 20.152a4.253 4.253 0 0 0-4.25-4.254 4.256 4.256 0 0 0-4.254 4.254 4.253 4.253 0 0 0 8.504 0zm0 0"/></clipPath><clipPath id="ad"><path d="M97.637 15.3H101v4.981h-3.363zm0 0"/></clipPath><clipPath id="ae"><path d="M100.715 20.152a4.253 4.253 0 0 0-4.25-4.254 4.256 4.256 0 0 0-4.254 4.254 4.253 4.253 0 0 0 8.504 0zm0 0"/></clipPath><clipPath id="af"><path d="M100.625 15.3H101v4.981h-.375zm0 0"/></clipPath><clipPath id="ag"><path d="M100.715 20.152a4.253 4.253 0 0 0-4.25-4.254 4.256 4.256 0 0 0-4.254 4.254 4.253 4.253 0 0 0 8.504 0zm0 0"/></clipPath><clipPath id="ah"><path d="M92 15h1.648v2.293H92zm0 0"/></clipPath><clipPath id="ai"><path d="M100.715 20.152a4.253 4.253 0 0 0-4.25-4.254 4.256 4.256 0 0 0-4.254 4.254 4.253 4.253 0 0 0 8.504 0zm0 0"/></clipPath><clipPath id="aj"><path d="M92 15h4.64v2.293H92zm0 0"/></clipPath><clipPath id="ak"><path d="M100.715 20.152a4.253 4.253 0 0 0-4.25-4.254 4.256 4.256 0 0 0-4.254 4.254 4.253 4.253 0 0 0 8.504 0zm0 0"/></clipPath><clipPath id="al"><path d="M94.645 15h4.984v2.293h-4.984zm0 0"/></clipPath><clipPath id="am"><path d="M100.715 20.152a4.253 4.253 0 0 0-4.25-4.254 4.256 4.256 0 0 0-4.254 4.254 4.253 4.253 0 0 0 8.504 0zm0 0"/></clipPath><clipPath id="an"><path d="M97.637 15H101v2.293h-3.363zm0 0"/></clipPath><clipPath id="ao"><path d="M100.715 20.152a4.253 4.253 0 0 0-4.25-4.254 4.256 4.256 0 0 0-4.254 4.254 4.253 4.253 0 0 0 8.504 0zm0 0"/></clipPath><clipPath id="ap"><path d="M100.625 15H101v2.293h-.375zm0 0"/></clipPath><clipPath id="aq"><path d="M100.715 20.152a4.253 4.253 0 0 0-4.25-4.254 4.256 4.256 0 0 0-4.254 4.254 4.253 4.253 0 0 0 8.504 0zm0 0"/></clipPath><clipPath id="at"><path d="M92 81.055h1.648V82H92zm0 0"/></clipPath><clipPath id="au"><path d="M100.715 76.844a4.253 4.253 0 0 0-8.504 0 4.256 4.256 0 0 0 4.254 4.254 4.253 4.253 0 0 0 4.25-4.254zm0 0"/></clipPath><clipPath id="av"><path d="M92 81.055h4.64V82H92zm0 0"/></clipPath><clipPath id="aw"><path d="M100.715 76.844a4.253 4.253 0 0 0-8.504 0 4.256 4.256 0 0 0 4.254 4.254 4.253 4.253 0 0 0 4.25-4.254zm0 0"/></clipPath><clipPath id="ax"><path d="M94.645 81.055h4.984V82h-4.984zm0 0"/></clipPath><clipPath id="ay"><path d="M100.715 76.844a4.253 4.253 0 0 0-8.504 0 4.256 4.256 0 0 0 4.254 4.254 4.253 4.253 0 0 0 4.25-4.254zm0 0"/></clipPath><clipPath id="az"><path d="M97.637 81.055H101V82h-3.363zm0 0"/></clipPath><clipPath id="aA"><path d="M100.715 76.844a4.253 4.253 0 0 0-8.504 0 4.256 4.256 0 0 0 4.254 4.254 4.253 4.253 0 0 0 4.25-4.254zm0 0"/></clipPath><clipPath id="aB"><path d="M100.625 81.055H101V82h-.375zm0 0"/></clipPath><clipPath id="aC"><path d="M100.715 76.844a4.253 4.253 0 0 0-8.504 0 4.256 4.256 0 0 0 4.254 4.254 4.253 4.253 0 0 0 4.25-4.254zm0 0"/></clipPath><clipPath id="aD"><path d="M92 78.066h1.648V82H92zm0 0"/></clipPath><clipPath id="aE"><path d="M100.715 76.844a4.253 4.253 0 0 0-8.504 0 4.256 4.256 0 0 0 4.254 4.254 4.253 4.253 0 0 0 4.25-4.254zm0 0"/></clipPath><clipPath id="aF"><path d="M92 78.066h4.64V82H92zm0 0"/></clipPath><clipPath id="aG"><path d="M100.715 76.844a4.253 4.253 0 0 0-8.504 0 4.256 4.256 0 0 0 4.254 4.254 4.253 4.253 0 0 0 4.25-4.254zm0 0"/></clipPath><clipPath id="aH"><path d="M94.645 78.066h4.984V82h-4.984zm0 0"/></clipPath><clipPath id="aI"><path d="M100.715 76.844a4.253 4.253 0 0 0-8.504 0 4.256 4.256 0 0 0 4.254 4.254 4.253 4.253 0 0 0 4.25-4.254zm0 0"/></clipPath><clipPath id="aJ"><path d="M97.637 78.066H101V82h-3.363zm0 0"/></clipPath><clipPath id="aK"><path d="M100.715 76.844a4.253 4.253 0 0 0-8.504 0 4.256 4.256 0 0 0 4.254 4.254 4.253 4.253 0 0 0 4.25-4.254zm0 0"/></clipPath><clipPath id="aL"><path d="M100.625 78.066H101V82h-.375zm0 0"/></clipPath><clipPath id="aM"><path d="M100.715 76.844a4.253 4.253 0 0 0-8.504 0 4.256 4.256 0 0 0 4.254 4.254 4.253 4.253 0 0 0 4.25-4.254zm0 0"/></clipPath><clipPath id="aN"><path d="M92 75.078h1.648v4.98H92zm0 0"/></clipPath><clipPath id="aO"><path d="M100.715 76.844a4.253 4.253 0 0 0-8.504 0 4.256 4.256 0 0 0 4.254 4.254 4.253 4.253 0 0 0 4.25-4.254zm0 0"/></clipPath><clipPath id="aP"><path d="M92 75.078h4.64v4.98H92zm0 0"/></clipPath><clipPath id="aQ"><path d="M100.715 76.844a4.253 4.253 0 0 0-8.504 0 4.256 4.256 0 0 0 4.254 4.254 4.253 4.253 0 0 0 4.25-4.254zm0 0"/></clipPath><clipPath id="aR"><path d="M94.645 75.078h4.984v4.98h-4.984zm0 0"/></clipPath><clipPath id="aS"><path d="M100.715 76.844a4.253 4.253 0 0 0-8.504 0 4.256 4.256 0 0 0 4.254 4.254 4.253 4.253 0 0 0 4.25-4.254zm0 0"/></clipPath><clipPath id="aT"><path d="M97.637 75.078H101v4.98h-3.363zm0 0"/></clipPath><clipPath id="aU"><path d="M100.715 76.844a4.253 4.253 0 0 0-8.504 0 4.256 4.256 0 0 0 4.254 4.254 4.253 4.253 0 0 0 4.25-4.254zm0 0"/></clipPath><clipPath id="aV"><path d="M100.625 75.078H101v4.98h-.375zm0 0"/></clipPath><clipPath id="aW"><path d="M100.715 76.844a4.253 4.253 0 0 0-8.504 0 4.256 4.256 0 0 0 4.254 4.254 4.253 4.253 0 0 0 4.25-4.254zm0 0"/></clipPath><clipPath id="aX"><path d="M92 72.09h1.648v4.98H92zm0 0"/></clipPath><clipPath id="aY"><path d="M100.715 76.844a4.253 4.253 0 0 0-8.504 0 4.256 4.256 0 0 0 4.254 4.254 4.253 4.253 0 0 0 4.25-4.254zm0 0"/></clipPath><clipPath id="aZ"><path d="M92 72.09h4.64v4.98H92zm0 0"/></clipPath><clipPath id="ba"><path d="M100.715 76.844a4.253 4.253 0 0 0-8.504 0 4.256 4.256 0 0 0 4.254 4.254 4.253 4.253 0 0 0 4.25-4.254zm0 0"/></clipPath><clipPath id="bb"><path d="M94.645 72.09h4.984v4.98h-4.984zm0 0"/></clipPath><clipPath id="bc"><path d="M100.715 76.844a4.253 4.253 0 0 0-8.504 0 4.256 4.256 0 0 0 4.254 4.254 4.253 4.253 0 0 0 4.25-4.254zm0 0"/></clipPath><clipPath id="bd"><path d="M97.637 72.09H101v4.98h-3.363zm0 0"/></clipPath><clipPath id="be"><path d="M100.715 76.844a4.253 4.253 0 0 0-8.504 0 4.256 4.256 0 0 0 4.254 4.254 4.253 4.253 0 0 0 4.25-4.254zm0 0"/></clipPath><clipPath id="bf"><path d="M100.625 72.09H101v4.98h-.375zm0 0"/></clipPath><clipPath id="bg"><path d="M100.715 76.844a4.253 4.253 0 0 0-8.504 0 4.256 4.256 0 0 0 4.254 4.254 4.253 4.253 0 0 0 4.25-4.254zm0 0"/></clipPath><clipPath id="bh"><path d="M92 72h1.648v2.082H92zm0 0"/></clipPath><clipPath id="bi"><path d="M100.715 76.844a4.253 4.253 0 0 0-8.504 0 4.256 4.256 0 0 0 4.254 4.254 4.253 4.253 0 0 0 4.25-4.254zm0 0"/></clipPath><clipPath id="bj"><path d="M92 72h4.64v2.082H92zm0 0"/></clipPath><clipPath id="bk"><path d="M100.715 76.844a4.253 4.253 0 0 0-8.504 0 4.256 4.256 0 0 0 4.254 4.254 4.253 4.253 0 0 0 4.25-4.254zm0 0"/></clipPath><clipPath id="bl"><path d="M94.645 72h4.984v2.082h-4.984zm0 0"/></clipPath><clipPath id="bm"><path d="M100.715 76.844a4.253 4.253 0 0 0-8.504 0 4.256 4.256 0 0 0 4.254 4.254 4.253 4.253 0 0 0 4.25-4.254zm0 0"/></clipPath><clipPath id="bn"><path d="M97.637 72H101v2.082h-3.363zm0 0"/></clipPath><clipPath id="bo"><path d="M100.715 76.844a4.253 4.253 0 0 0-8.504 0 4.256 4.256 0 0 0 4.254 4.254 4.253 4.253 0 0 0 4.25-4.254zm0 0"/></clipPath><clipPath id="bp"><path d="M100.625 72H101v2.082h-.375zm0 0"/></clipPath><clipPath id="bq"><path d="M100.715 76.844a4.253 4.253 0 0 0-8.504 0 4.256 4.256 0 0 0 4.254 4.254 4.253 4.253 0 0 0 4.25-4.254zm0 0"/></clipPath><clipPath id="bA"><path d="M63 51.168h.762V54H63zm0 0"/></clipPath><clipPath id="bB"><path d="M73.078 48.496a4.96 4.96 0 0 0-4.96-4.957 4.96 4.96 0 1 0 0 9.918 4.96 4.96 0 0 0 4.96-4.96zm0 0"/></clipPath><clipPath id="bC"><path d="M63 51.168h3.75V54H63zm0 0"/></clipPath><clipPath id="bD"><path d="M73.078 48.496a4.96 4.96 0 0 0-4.96-4.957 4.96 4.96 0 1 0 0 9.918 4.96 4.96 0 0 0 4.96-4.96zm0 0"/></clipPath><clipPath id="bE"><path d="M64.758 51.168h4.98V54h-4.98zm0 0"/></clipPath><clipPath id="bF"><path d="M73.078 48.496a4.96 4.96 0 0 0-4.96-4.957 4.96 4.96 0 1 0 0 9.918 4.96 4.96 0 0 0 4.96-4.96zm0 0"/></clipPath><clipPath id="bG"><path d="M67.746 51.168h4.98V54h-4.98zm0 0"/></clipPath><clipPath id="bH"><path d="M73.078 48.496a4.96 4.96 0 0 0-4.96-4.957 4.96 4.96 0 1 0 0 9.918 4.96 4.96 0 0 0 4.96-4.96zm0 0"/></clipPath><clipPath id="bI"><path d="M70.734 51.168H74V54h-3.266zm0 0"/></clipPath><clipPath id="bJ"><path d="M73.078 48.496a4.96 4.96 0 0 0-4.96-4.957 4.96 4.96 0 1 0 0 9.918 4.96 4.96 0 0 0 4.96-4.96zm0 0"/></clipPath><clipPath id="bK"><path d="M63 48.18h.762v4.98H63zm0 0"/></clipPath><clipPath id="bL"><path d="M73.078 48.496a4.96 4.96 0 0 0-4.96-4.957 4.96 4.96 0 1 0 0 9.918 4.96 4.96 0 0 0 4.96-4.96zm0 0"/></clipPath><clipPath id="bM"><path d="M63 48.18h3.75v4.98H63zm0 0"/></clipPath><clipPath id="bN"><path d="M73.078 48.496a4.96 4.96 0 0 0-4.96-4.957 4.96 4.96 0 1 0 0 9.918 4.96 4.96 0 0 0 4.96-4.96zm0 0"/></clipPath><clipPath id="bO"><path d="M64.758 48.18h4.98v4.98h-4.98zm0 0"/></clipPath><clipPath id="bP"><path d="M73.078 48.496a4.96 4.96 0 0 0-4.96-4.957 4.96 4.96 0 1 0 0 9.918 4.96 4.96 0 0 0 4.96-4.96zm0 0"/></clipPath><clipPath id="bQ"><path d="M67.746 48.18h4.98v4.98h-4.98zm0 0"/></clipPath><clipPath id="bR"><path d="M73.078 48.496a4.96 4.96 0 0 0-4.96-4.957 4.96 4.96 0 1 0 0 9.918 4.96 4.96 0 0 0 4.96-4.96zm0 0"/></clipPath><clipPath id="bS"><path d="M70.734 48.18H74v4.98h-3.266zm0 0"/></clipPath><clipPath id="bT"><path d="M73.078 48.496a4.96 4.96 0 0 0-4.96-4.957 4.96 4.96 0 1 0 0 9.918 4.96 4.96 0 0 0 4.96-4.96zm0 0"/></clipPath><clipPath id="bU"><path d="M63 45.191h.762v4.98H63zm0 0"/></clipPath><clipPath id="bV"><path d="M73.078 48.496a4.96 4.96 0 0 0-4.96-4.957 4.96 4.96 0 1 0 0 9.918 4.96 4.96 0 0 0 4.96-4.96zm0 0"/></clipPath><clipPath id="bW"><path d="M63 45.191h3.75v4.98H63zm0 0"/></clipPath><clipPath id="bX"><path d="M73.078 48.496a4.96 4.96 0 0 0-4.96-4.957 4.96 4.96 0 1 0 0 9.918 4.96 4.96 0 0 0 4.96-4.96zm0 0"/></clipPath><clipPath id="bY"><path d="M64.758 45.191h4.98v4.98h-4.98zm0 0"/></clipPath><clipPath id="bZ"><path d="M73.078 48.496a4.96 4.96 0 0 0-4.96-4.957 4.96 4.96 0 1 0 0 9.918 4.96 4.96 0 0 0 4.96-4.96zm0 0"/></clipPath><clipPath id="ca"><path d="M67.746 45.191h4.98v4.98h-4.98zm0 0"/></clipPath><clipPath id="cb"><path d="M73.078 48.496a4.96 4.96 0 0 0-4.96-4.957 4.96 4.96 0 1 0 0 9.918 4.96 4.96 0 0 0 4.96-4.96zm0 0"/></clipPath><clipPath id="cc"><path d="M70.734 45.191H74v4.98h-3.266zm0 0"/></clipPath><clipPath id="cd"><path d="M73.078 48.496a4.96 4.96 0 0 0-4.96-4.957 4.96 4.96 0 1 0 0 9.918 4.96 4.96 0 0 0 4.96-4.96zm0 0"/></clipPath><clipPath id="ce"><path d="M63 43h.762v4.184H63zm0 0"/></clipPath><clipPath id="cf"><path d="M73.078 48.496a4.96 4.96 0 0 0-4.96-4.957 4.96 4.96 0 1 0 0 9.918 4.96 4.96 0 0 0 4.96-4.96zm0 0"/></clipPath><clipPath id="cg"><path d="M63 43h3.75v4.184H63zm0 0"/></clipPath><clipPath id="ch"><path d="M73.078 48.496a4.96 4.96 0 0 0-4.96-4.957 4.96 4.96 0 1 0 0 9.918 4.96 4.96 0 0 0 4.96-4.96zm0 0"/></clipPath><clipPath id="ci"><path d="M64.758 43h4.98v4.184h-4.98zm0 0"/></clipPath><clipPath id="cj"><path d="M73.078 48.496a4.96 4.96 0 0 0-4.96-4.957 4.96 4.96 0 1 0 0 9.918 4.96 4.96 0 0 0 4.96-4.96zm0 0"/></clipPath><clipPath id="ck"><path d="M67.746 43h4.98v4.184h-4.98zm0 0"/></clipPath><clipPath id="cl"><path d="M73.078 48.496a4.96 4.96 0 0 0-4.96-4.957 4.96 4.96 0 1 0 0 9.918 4.96 4.96 0 0 0 4.96-4.96zm0 0"/></clipPath><clipPath id="cm"><path d="M70.734 43H74v4.184h-3.266zm0 0"/></clipPath><clipPath id="cn"><path d="M73.078 48.496a4.96 4.96 0 0 0-4.96-4.957 4.96 4.96 0 1 0 0 9.918 4.96 4.96 0 0 0 4.96-4.96zm0 0"/></clipPath><clipPath id="co"><path d="M63 43h.762v1.191H63zm0 0"/></clipPath><clipPath id="cp"><path d="M73.078 48.496a4.96 4.96 0 0 0-4.96-4.957 4.96 4.96 0 1 0 0 9.918 4.96 4.96 0 0 0 4.96-4.96zm0 0"/></clipPath><clipPath id="cq"><path d="M63 43h3.75v1.191H63zm0 0"/></clipPath><clipPath id="cr"><path d="M73.078 48.496a4.96 4.96 0 0 0-4.96-4.957 4.96 4.96 0 1 0 0 9.918 4.96 4.96 0 0 0 4.96-4.96zm0 0"/></clipPath><clipPath id="cs"><path d="M64.758 43h4.98v1.191h-4.98zm0 0"/></clipPath><clipPath id="ct"><path d="M73.078 48.496a4.96 4.96 0 0 0-4.96-4.957 4.96 4.96 0 1 0 0 9.918 4.96 4.96 0 0 0 4.96-4.96zm0 0"/></clipPath><clipPath id="cu"><path d="M67.746 43h4.98v1.191h-4.98zm0 0"/></clipPath><clipPath id="cv"><path d="M73.078 48.496a4.96 4.96 0 0 0-4.96-4.957 4.96 4.96 0 1 0 0 9.918 4.96 4.96 0 0 0 4.96-4.96zm0 0"/></clipPath><clipPath id="cw"><path d="M70.734 43H74v1.191h-3.266zm0 0"/></clipPath><clipPath id="cx"><path d="M73.078 48.496a4.96 4.96 0 0 0-4.96-4.957 4.96 4.96 0 1 0 0 9.918 4.96 4.96 0 0 0 4.96-4.96zm0 0"/></clipPath></defs><path d="M124.813 48.496c0-15.652-12.692-28.344-28.348-28.344-15.656 0-28.348 12.692-28.348 28.344 0 15.656 12.692 28.348 28.348 28.348 15.656 0 28.347-12.692 28.347-28.348zm0 0" fill="none" stroke-width="0.79701" stroke="rgb(0%,0%,0%)" stroke-miterlimit="10"/><path d="M116.64 31.52c.462-.641.278-2.473.094-2.84.368.183 2.196.367 2.84-.094" fill="none" stroke-width=".637593624" stroke-linecap="round" stroke-linejoin="round" stroke="rgb(0%,0%,0%)" stroke-miterlimit="10"/><use xlink:href="#a" x="106.091" y="35.605" fill="rgb(0%,0%,0%)"/><use xlink:href="#b" x="110.354" y="36.712" fill="rgb(0%,0%,0%)"/><path d="M79.484 28.32c-.64-.457-2.472-.273-2.84-.093.184-.364.368-2.196-.09-2.836" fill="none" stroke-width=".637593624" stroke-linecap="round" stroke-linejoin="round" stroke="rgb(0%,0%,0%)" stroke-miterlimit="10"/><use xlink:href="#a" x="78.423" y="35.605" fill="rgb(0%,0%,0%)"/><use xlink:href="#c" x="82.686" y="36.712" fill="rgb(0%,0%,0%)"/><path d="M76.285 65.477c-.457.64-.273 2.472-.09 2.84-.367-.184-2.199-.368-2.84.093" fill="none" stroke-width=".637593624" stroke-linecap="round" stroke-linejoin="round" stroke="rgb(0%,0%,0%)" stroke-miterlimit="10"/><use xlink:href="#a" x="78.423" y="63.273" fill="rgb(0%,0%,0%)"/><use xlink:href="#d" x="82.686" y="64.38" fill="rgb(0%,0%,0%)"/><path d="M113.445 68.676c.64.457 2.473.273 2.836.094-.18.363-.363 2.195.094 2.835" fill="none" stroke-width=".637593624" stroke-linecap="round" stroke-linejoin="round" stroke="rgb(0%,0%,0%)" stroke-miterlimit="10"/><use xlink:href="#a" x="106.091" y="63.273" fill="rgb(0%,0%,0%)"/><use xlink:href="#e" x="110.354" y="64.38" fill="rgb(0%,0%,0%)"/><path d="M116.64 31.52c.462-.641.278-2.473.094-2.84.368.183 2.196.367 2.84-.094" fill="none" stroke-width=".637593624" stroke-linecap="round" stroke-linejoin="round" stroke="rgb(0%,0%,0%)" stroke-miterlimit="10"/><use xlink:href="#a" x="106.091" y="35.605" fill="rgb(0%,0%,0%)"/><use xlink:href="#b" x="110.354" y="36.712" fill="rgb(0%,0%,0%)"/><path d="M79.484 28.32c-.64-.457-2.472-.273-2.84-.093.184-.364.368-2.196-.09-2.836" fill="none" stroke-width=".637593624" stroke-linecap="round" stroke-linejoin="round" stroke="rgb(0%,0%,0%)" stroke-miterlimit="10"/><use xlink:href="#a" x="78.423" y="35.605" fill="rgb(0%,0%,0%)"/><use xlink:href="#c" x="82.686" y="36.712" fill="rgb(0%,0%,0%)"/><path d="M76.285 65.477c-.457.64-.273 2.472-.09 2.84-.367-.184-2.199-.368-2.84.093" fill="none" stroke-width=".637593624" stroke-linecap="round" stroke-linejoin="round" stroke="rgb(0%,0%,0%)" stroke-miterlimit="10"/><use xlink:href="#a" x="78.423" y="63.273" fill="rgb(0%,0%,0%)"/><use xlink:href="#d" x="82.686" y="64.38" fill="rgb(0%,0%,0%)"/><path d="M113.445 68.676c.64.457 2.473.273 2.836.094-.18.363-.363 2.195.094 2.835" fill="none" stroke-width=".637593624" stroke-linecap="round" stroke-linejoin="round" stroke="rgb(0%,0%,0%)" stroke-miterlimit="10"/><use xlink:href="#a" x="106.091" y="63.273" fill="rgb(0%,0%,0%)"/><use xlink:href="#e" x="110.354" y="64.38" fill="rgb(0%,0%,0%)"/><path d="M116.64 31.52c.462-.641.278-2.473.094-2.84.368.183 2.196.367 2.84-.094" fill="none" stroke-width=".637593624" stroke-linecap="round" stroke-linejoin="round" stroke="rgb(0%,0%,0%)" stroke-miterlimit="10"/><use xlink:href="#a" x="106.091" y="35.605" fill="rgb(0%,0%,0%)"/><use xlink:href="#b" x="110.354" y="36.712" fill="rgb(0%,0%,0%)"/><path d="M79.484 28.32c-.64-.457-2.472-.273-2.84-.093.184-.364.368-2.196-.09-2.836" fill="none" stroke-width=".637593624" stroke-linecap="round" stroke-linejoin="round" stroke="rgb(0%,0%,0%)" stroke-miterlimit="10"/><use xlink:href="#a" x="78.423" y="35.605" fill="rgb(0%,0%,0%)"/><use xlink:href="#c" x="82.686" y="36.712" fill="rgb(0%,0%,0%)"/><path d="M76.285 65.477c-.457.64-.273 2.472-.09 2.84-.367-.184-2.199-.368-2.84.093" fill="none" stroke-width=".637593624" stroke-linecap="round" stroke-linejoin="round" stroke="rgb(0%,0%,0%)" stroke-miterlimit="10"/><use xlink:href="#a" x="78.423" y="63.273" fill="rgb(0%,0%,0%)"/><use xlink:href="#d" x="82.686" y="64.38" fill="rgb(0%,0%,0%)"/><path d="M113.445 68.676c.64.457 2.473.273 2.836.094-.18.363-.363 2.195.094 2.835" fill="none" stroke-width=".637593624" stroke-linecap="round" stroke-linejoin="round" stroke="rgb(0%,0%,0%)" stroke-miterlimit="10"/><use xlink:href="#a" x="106.091" y="63.273" fill="rgb(0%,0%,0%)"/><use xlink:href="#e" x="110.354" y="64.38" fill="rgb(0%,0%,0%)"/><path d="M116.64 31.52c.462-.641.278-2.473.094-2.84.368.183 2.196.367 2.84-.094" fill="none" stroke-width=".637593624" stroke-linecap="round" stroke-linejoin="round" stroke="rgb(0%,0%,0%)" stroke-miterlimit="10"/><use xlink:href="#a" x="106.091" y="35.605" fill="rgb(0%,0%,0%)"/><use xlink:href="#b" x="110.354" y="36.712" fill="rgb(0%,0%,0%)"/><path d="M79.484 28.32c-.64-.457-2.472-.273-2.84-.093.184-.364.368-2.196-.09-2.836" fill="none" stroke-width=".637593624" stroke-linecap="round" stroke-linejoin="round" stroke="rgb(0%,0%,0%)" stroke-miterlimit="10"/><use xlink:href="#a" x="78.423" y="35.605" fill="rgb(0%,0%,0%)"/><use xlink:href="#c" x="82.686" y="36.712" fill="rgb(0%,0%,0%)"/><path d="M76.285 65.477c-.457.64-.273 2.472-.09 2.84-.367-.184-2.199-.368-2.84.093" fill="none" stroke-width=".637593624" stroke-linecap="round" stroke-linejoin="round" stroke="rgb(0%,0%,0%)" stroke-miterlimit="10"/><use xlink:href="#a" x="78.423" y="63.273" fill="rgb(0%,0%,0%)"/><use xlink:href="#d" x="82.686" y="64.38" fill="rgb(0%,0%,0%)"/><path d="M113.445 68.676c.64.457 2.473.273 2.836.094-.18.363-.363 2.195.094 2.835" fill="none" stroke-width=".637593624" stroke-linecap="round" stroke-linejoin="round" stroke="rgb(0%,0%,0%)" stroke-miterlimit="10"/><use xlink:href="#a" x="106.091" y="63.273" fill="rgb(0%,0%,0%)"/><use xlink:href="#e" x="110.354" y="64.38" fill="rgb(0%,0%,0%)"/><path d="M129.063 48.496a4.25 4.25 0 0 0-4.25-4.25 4.25 4.25 0 0 0-4.254 4.25 4.251 4.251 0 0 0 4.254 4.254 4.25 4.25 0 0 0 4.25-4.254zm0 0" fill="rgb(100%,100%,100%)"/><g clip-path="url(#f)"><g clip-path="url(#g)"><path d="M129.063 52.75l-8.504-8.504m0 8.504l8.504-8.504" fill="none" stroke-width="0.3985" stroke="rgb(0%,0%,0%)" stroke-miterlimit="10"/></g></g><path d="M129.063 48.496a4.25 4.25 0 0 0-4.25-4.25 4.25 4.25 0 0 0-4.254 4.25 4.251 4.251 0 0 0 4.254 4.254 4.25 4.25 0 0 0 4.25-4.254zm0 0" fill="none" stroke-width="0.3985" stroke="rgb(0%,0%,0%)" stroke-miterlimit="10"/><use xlink:href="#h" x="134.308" y="50.809" fill="rgb(0%,0%,0%)"/><use xlink:href="#i" x="139.597" y="52.303" fill="rgb(0%,0%,0%)"/><use xlink:href="#j" x="144.499" y="50.809" fill="rgb(0%,0%,0%)"/><use xlink:href="#i" x="152.063" y="52.303" fill="rgb(0%,0%,0%)"/><g fill="rgb(0%,0%,0%)"><use xlink:href="#k" x="156.466" y="52.303"/><use xlink:href="#l" x="158.832" y="52.303"/><use xlink:href="#m" x="161.651" y="52.303"/></g><use xlink:href="#n" x="165.85" y="50.809" fill="rgb(0%,0%,0%)"/><use xlink:href="#o" x="169.724" y="50.809" fill="rgb(0%,0%,0%)"/><use xlink:href="#p" x="174.736" y="52.303" fill="rgb(0%,0%,0%)"/><use xlink:href="#q" x="179.206" y="50.809" fill="rgb(0%,0%,0%)"/><use xlink:href="#o" x="183.637" y="50.809" fill="rgb(0%,0%,0%)"/><use xlink:href="#r" x="188.646" y="52.303" fill="rgb(0%,0%,0%)"/><use xlink:href="#s" x="193.115" y="50.809" fill="rgb(0%,0%,0%)"/><path d="M100.715 20.152a4.253 4.253 0 0 0-4.25-4.254 4.256 4.256 0 0 0-4.254 4.254 4.253 4.253 0 0 0 8.504 0zm0 0" fill="rgb(100%,100%,100%)" stroke-width="0.3985" stroke="rgb(0%,0%,0%)" stroke-miterlimit="10"/><g clip-path="url(#t)"><g clip-path="url(#u)"><path d="M89.664 28.254l3.09-3.09" fill="none" stroke-width="0.3985" stroke="rgb(0%,0%,0%)" stroke-miterlimit="10"/></g></g><g clip-path="url(#v)"><g clip-path="url(#w)"><path d="M92.652 28.254l3.09-3.09" fill="none" stroke-width="0.3985" stroke="rgb(0%,0%,0%)" stroke-miterlimit="10"/></g></g><g clip-path="url(#x)"><g clip-path="url(#y)"><path d="M95.64 28.254l3.09-3.09" fill="none" stroke-width="0.3985" stroke="rgb(0%,0%,0%)" stroke-miterlimit="10"/></g></g><g clip-path="url(#z)"><g clip-path="url(#A)"><path d="M98.633 28.254l3.086-3.09" fill="none" stroke-width="0.3985" stroke="rgb(0%,0%,0%)" stroke-miterlimit="10"/></g></g><g clip-path="url(#B)"><g clip-path="url(#C)"><path d="M101.621 28.254l3.086-3.09" fill="none" stroke-width="0.3985" stroke="rgb(0%,0%,0%)" stroke-miterlimit="10"/></g></g><g clip-path="url(#D)"><g clip-path="url(#E)"><path d="M89.664 25.266l3.09-3.09" fill="none" stroke-width="0.3985" stroke="rgb(0%,0%,0%)" stroke-miterlimit="10"/></g></g><g clip-path="url(#F)"><g clip-path="url(#G)"><path d="M92.652 25.266l3.09-3.09" fill="none" stroke-width="0.3985" stroke="rgb(0%,0%,0%)" stroke-miterlimit="10"/></g></g><g clip-path="url(#H)"><g clip-path="url(#I)"><path d="M95.64 25.266l3.09-3.09" fill="none" stroke-width="0.3985" stroke="rgb(0%,0%,0%)" stroke-miterlimit="10"/></g></g><g clip-path="url(#J)"><g clip-path="url(#K)"><path d="M98.633 25.266l3.086-3.09" fill="none" stroke-width="0.3985" stroke="rgb(0%,0%,0%)" stroke-miterlimit="10"/></g></g><g clip-path="url(#L)"><g clip-path="url(#M)"><path d="M101.621 25.266l3.086-3.09" fill="none" stroke-width="0.3985" stroke="rgb(0%,0%,0%)" stroke-miterlimit="10"/></g></g><g clip-path="url(#N)"><g clip-path="url(#O)"><path d="M89.664 22.273l3.09-3.085" fill="none" stroke-width="0.3985" stroke="rgb(0%,0%,0%)" stroke-miterlimit="10"/></g></g><g clip-path="url(#P)"><g clip-path="url(#Q)"><path d="M92.652 22.273l3.09-3.085" fill="none" stroke-width="0.3985" stroke="rgb(0%,0%,0%)" stroke-miterlimit="10"/></g></g><g clip-path="url(#R)"><g clip-path="url(#S)"><path d="M95.64 22.273l3.09-3.085" fill="none" stroke-width="0.3985" stroke="rgb(0%,0%,0%)" stroke-miterlimit="10"/></g></g><g clip-path="url(#T)"><g clip-path="url(#U)"><path d="M98.633 22.273l3.086-3.085" fill="none" stroke-width="0.3985" stroke="rgb(0%,0%,0%)" stroke-miterlimit="10"/></g></g><g clip-path="url(#V)"><g clip-path="url(#W)"><path d="M101.621 22.273l3.086-3.085" fill="none" stroke-width="0.3985" stroke="rgb(0%,0%,0%)" stroke-miterlimit="10"/></g></g><g clip-path="url(#X)"><g clip-path="url(#Y)"><path d="M89.664 19.285l3.09-3.086" fill="none" stroke-width="0.3985" stroke="rgb(0%,0%,0%)" stroke-miterlimit="10"/></g></g><g clip-path="url(#Z)"><g clip-path="url(#aa)"><path d="M92.652 19.285l3.09-3.086" fill="none" stroke-width="0.3985" stroke="rgb(0%,0%,0%)" stroke-miterlimit="10"/></g></g><g clip-path="url(#ab)"><g clip-path="url(#ac)"><path d="M95.64 19.285l3.09-3.086" fill="none" stroke-width="0.3985" stroke="rgb(0%,0%,0%)" stroke-miterlimit="10"/></g></g><g clip-path="url(#ad)"><g clip-path="url(#ae)"><path d="M98.633 19.285l3.086-3.086" fill="none" stroke-width="0.3985" stroke="rgb(0%,0%,0%)" stroke-miterlimit="10"/></g></g><g clip-path="url(#af)"><g clip-path="url(#ag)"><path d="M101.621 19.285l3.086-3.086" fill="none" stroke-width="0.3985" stroke="rgb(0%,0%,0%)" stroke-miterlimit="10"/></g></g><g clip-path="url(#ah)"><g clip-path="url(#ai)"><path d="M89.664 16.297l3.09-3.086" fill="none" stroke-width="0.3985" stroke="rgb(0%,0%,0%)" stroke-miterlimit="10"/></g></g><g clip-path="url(#aj)"><g clip-path="url(#ak)"><path d="M92.652 16.297l3.09-3.086" fill="none" stroke-width="0.3985" stroke="rgb(0%,0%,0%)" stroke-miterlimit="10"/></g></g><g clip-path="url(#al)"><g clip-path="url(#am)"><path d="M95.64 16.297l3.09-3.086" fill="none" stroke-width="0.3985" stroke="rgb(0%,0%,0%)" stroke-miterlimit="10"/></g></g><g clip-path="url(#an)"><g clip-path="url(#ao)"><path d="M98.633 16.297l3.086-3.086" fill="none" stroke-width="0.3985" stroke="rgb(0%,0%,0%)" stroke-miterlimit="10"/></g></g><g clip-path="url(#ap)"><g clip-path="url(#aq)"><path d="M101.621 16.297l3.086-3.086" fill="none" stroke-width="0.3985" stroke="rgb(0%,0%,0%)" stroke-miterlimit="10"/></g></g><use xlink:href="#ar" x="69.292" y="10.793" fill="rgb(0%,0%,0%)"/><use xlink:href="#i" x="77.125" y="12.287" fill="rgb(0%,0%,0%)"/><g fill="rgb(0%,0%,0%)"><use xlink:href="#k" x="81.528" y="12.287"/><use xlink:href="#m" x="83.894" y="12.287"/></g><use xlink:href="#i" x="87.595" y="12.287" fill="rgb(0%,0%,0%)"/><use xlink:href="#n" x="92.496" y="10.793" fill="rgb(0%,0%,0%)"/><use xlink:href="#o" x="96.37" y="10.793" fill="rgb(0%,0%,0%)"/><use xlink:href="#r" x="101.383" y="12.287" fill="rgb(0%,0%,0%)"/><use xlink:href="#q" x="105.852" y="10.793" fill="rgb(0%,0%,0%)"/><use xlink:href="#o" x="110.283" y="10.793" fill="rgb(0%,0%,0%)"/><use xlink:href="#as" x="115.293" y="12.287" fill="rgb(0%,0%,0%)"/><use xlink:href="#s" x="119.762" y="10.793" fill="rgb(0%,0%,0%)"/><path d="M100.715 76.844a4.253 4.253 0 0 0-8.504 0 4.256 4.256 0 0 0 4.254 4.254 4.253 4.253 0 0 0 4.25-4.254zm0 0" fill="rgb(100%,100%,100%)" stroke-width="0.3985" stroke="rgb(0%,0%,0%)" stroke-miterlimit="10"/><g clip-path="url(#at)"><g clip-path="url(#au)"><path d="M89.664 85.04l3.09-3.087" fill="none" stroke-width="0.3985" stroke="rgb(0%,0%,0%)" stroke-miterlimit="10"/></g></g><g clip-path="url(#av)"><g clip-path="url(#aw)"><path d="M92.652 85.04l3.09-3.087" fill="none" stroke-width="0.3985" stroke="rgb(0%,0%,0%)" stroke-miterlimit="10"/></g></g><g clip-path="url(#ax)"><g clip-path="url(#ay)"><path d="M95.64 85.04l3.09-3.087" fill="none" stroke-width="0.3985" stroke="rgb(0%,0%,0%)" stroke-miterlimit="10"/></g></g><g clip-path="url(#az)"><g clip-path="url(#aA)"><path d="M98.633 85.04l3.086-3.087" fill="none" stroke-width="0.3985" stroke="rgb(0%,0%,0%)" stroke-miterlimit="10"/></g></g><g clip-path="url(#aB)"><g clip-path="url(#aC)"><path d="M101.621 85.04l3.086-3.087" fill="none" stroke-width="0.3985" stroke="rgb(0%,0%,0%)" stroke-miterlimit="10"/></g></g><g clip-path="url(#aD)"><g clip-path="url(#aE)"><path d="M89.664 82.05l3.09-3.085" fill="none" stroke-width="0.3985" stroke="rgb(0%,0%,0%)" stroke-miterlimit="10"/></g></g><g clip-path="url(#aF)"><g clip-path="url(#aG)"><path d="M92.652 82.05l3.09-3.085" fill="none" stroke-width="0.3985" stroke="rgb(0%,0%,0%)" stroke-miterlimit="10"/></g></g><g clip-path="url(#aH)"><g clip-path="url(#aI)"><path d="M95.64 82.05l3.09-3.085" fill="none" stroke-width="0.3985" stroke="rgb(0%,0%,0%)" stroke-miterlimit="10"/></g></g><g clip-path="url(#aJ)"><g clip-path="url(#aK)"><path d="M98.633 82.05l3.086-3.085" fill="none" stroke-width="0.3985" stroke="rgb(0%,0%,0%)" stroke-miterlimit="10"/></g></g><g clip-path="url(#aL)"><g clip-path="url(#aM)"><path d="M101.621 82.05l3.086-3.085" fill="none" stroke-width="0.3985" stroke="rgb(0%,0%,0%)" stroke-miterlimit="10"/></g></g><g clip-path="url(#aN)"><g clip-path="url(#aO)"><path d="M89.664 79.063l3.09-3.09" fill="none" stroke-width="0.3985" stroke="rgb(0%,0%,0%)" stroke-miterlimit="10"/></g></g><g clip-path="url(#aP)"><g clip-path="url(#aQ)"><path d="M92.652 79.063l3.09-3.09" fill="none" stroke-width="0.3985" stroke="rgb(0%,0%,0%)" stroke-miterlimit="10"/></g></g><g clip-path="url(#aR)"><g clip-path="url(#aS)"><path d="M95.64 79.063l3.09-3.09" fill="none" stroke-width="0.3985" stroke="rgb(0%,0%,0%)" stroke-miterlimit="10"/></g></g><g clip-path="url(#aT)"><g clip-path="url(#aU)"><path d="M98.633 79.063l3.086-3.09" fill="none" stroke-width="0.3985" stroke="rgb(0%,0%,0%)" stroke-miterlimit="10"/></g></g><g clip-path="url(#aV)"><g clip-path="url(#aW)"><path d="M101.621 79.063l3.086-3.09" fill="none" stroke-width="0.3985" stroke="rgb(0%,0%,0%)" stroke-miterlimit="10"/></g></g><g clip-path="url(#aX)"><g clip-path="url(#aY)"><path d="M89.664 76.074l3.09-3.09" fill="none" stroke-width="0.3985" stroke="rgb(0%,0%,0%)" stroke-miterlimit="10"/></g></g><g clip-path="url(#aZ)"><g clip-path="url(#ba)"><path d="M92.652 76.074l3.09-3.09" fill="none" stroke-width="0.3985" stroke="rgb(0%,0%,0%)" stroke-miterlimit="10"/></g></g><g clip-path="url(#bb)"><g clip-path="url(#bc)"><path d="M95.64 76.074l3.09-3.09" fill="none" stroke-width="0.3985" stroke="rgb(0%,0%,0%)" stroke-miterlimit="10"/></g></g><g clip-path="url(#bd)"><g clip-path="url(#be)"><path d="M98.633 76.074l3.086-3.09" fill="none" stroke-width="0.3985" stroke="rgb(0%,0%,0%)" stroke-miterlimit="10"/></g></g><g clip-path="url(#bf)"><g clip-path="url(#bg)"><path d="M101.621 76.074l3.086-3.09" fill="none" stroke-width="0.3985" stroke="rgb(0%,0%,0%)" stroke-miterlimit="10"/></g></g><g clip-path="url(#bh)"><g clip-path="url(#bi)"><path d="M89.664 73.086l3.09-3.09" fill="none" stroke-width="0.3985" stroke="rgb(0%,0%,0%)" stroke-miterlimit="10"/></g></g><g clip-path="url(#bj)"><g clip-path="url(#bk)"><path d="M92.652 73.086l3.09-3.09" fill="none" stroke-width="0.3985" stroke="rgb(0%,0%,0%)" stroke-miterlimit="10"/></g></g><g clip-path="url(#bl)"><g clip-path="url(#bm)"><path d="M95.64 73.086l3.09-3.09" fill="none" stroke-width="0.3985" stroke="rgb(0%,0%,0%)" stroke-miterlimit="10"/></g></g><g clip-path="url(#bn)"><g clip-path="url(#bo)"><path d="M98.633 73.086l3.086-3.09" fill="none" stroke-width="0.3985" stroke="rgb(0%,0%,0%)" stroke-miterlimit="10"/></g></g><g clip-path="url(#bp)"><g clip-path="url(#bq)"><path d="M101.621 73.086l3.086-3.09" fill="none" stroke-width="0.3985" stroke="rgb(0%,0%,0%)" stroke-miterlimit="10"/></g></g><use xlink:href="#ar" x="70.654" y="90.825" fill="rgb(0%,0%,0%)"/><use xlink:href="#i" x="78.487" y="92.319" fill="rgb(0%,0%,0%)"/><g fill="rgb(0%,0%,0%)"><use xlink:href="#k" x="82.89" y="92.319"/><use xlink:href="#br" x="85.256" y="92.319"/></g><use xlink:href="#l" x="87.817" y="92.319" fill="rgb(0%,0%,0%)"/><use xlink:href="#n" x="91.134" y="90.825" fill="rgb(0%,0%,0%)"/><use xlink:href="#o" x="95.008" y="90.825" fill="rgb(0%,0%,0%)"/><use xlink:href="#bs" x="100.021" y="92.319" fill="rgb(0%,0%,0%)"/><use xlink:href="#q" x="104.49" y="90.825" fill="rgb(0%,0%,0%)"/><use xlink:href="#o" x="108.921" y="90.825" fill="rgb(0%,0%,0%)"/><use xlink:href="#p" x="113.93" y="92.319" fill="rgb(0%,0%,0%)"/><use xlink:href="#s" x="118.4" y="90.825" fill="rgb(0%,0%,0%)"/><path d="M39.77 48.496h28.347" fill="none" stroke-width="0.3985" stroke="rgb(0%,0%,0%)" stroke-miterlimit="10"/><use xlink:href="#bt" x="45.441" y="56.307" fill="rgb(0%,0%,0%)"/><use xlink:href="#bu" x="51.958" y="57.802" fill="rgb(0%,0%,0%)"/><path d="M44.75 43.516h10.715" fill="none" stroke-width="0.59776" stroke="rgb(0%,0%,0%)" stroke-miterlimit="10"/><path d="M54.09 41.684c.117.687 1.375 1.718 1.719 1.832-.344.117-1.602 1.148-1.72 1.836" fill="none" stroke-width="0.4782" stroke-linecap="round" stroke-linejoin="round" stroke="rgb(0%,0%,0%)" stroke-miterlimit="10"/><use xlink:href="#bv" x="47.999" y="37.96" fill="rgb(0%,0%,0%)"/><use xlink:href="#bw" x="3.321" y="23.174" fill="rgb(0%,0%,0%)"/><g fill="rgb(0%,0%,0%)"><use xlink:href="#bx" x="9.547" y="17.999"/><use xlink:href="#as" x="12.66" y="17.999"/><use xlink:href="#by" x="16.632" y="17.999"/></g><use xlink:href="#i" x="9.547" y="26.179" fill="rgb(0%,0%,0%)"/><g fill="rgb(0%,0%,0%)"><use xlink:href="#k" x="13.95" y="26.179"/><use xlink:href="#bu" x="16.316" y="26.179"/><use xlink:href="#i" x="20.637" y="26.179"/></g><use xlink:href="#br" x="25.04" y="26.179" fill="rgb(0%,0%,0%)"/><use xlink:href="#n" x="28.1" y="23.174" fill="rgb(0%,0%,0%)"/><use xlink:href="#bv" x="31.974" y="23.174" fill="rgb(0%,0%,0%)"/><use xlink:href="#q" x="36.78" y="23.174" fill="rgb(0%,0%,0%)"/><use xlink:href="#o" x="41.211" y="23.174" fill="rgb(0%,0%,0%)"/><use xlink:href="#as" x="46.22" y="24.668" fill="rgb(0%,0%,0%)"/><use xlink:href="#q" x="50.689" y="23.174" fill="rgb(0%,0%,0%)"/><use xlink:href="#bz" x="55.117" y="23.174" fill="rgb(0%,0%,0%)"/><use xlink:href="#o" x="62.866" y="23.174" fill="rgb(0%,0%,0%)"/><use xlink:href="#bs" x="67.878" y="24.668" fill="rgb(0%,0%,0%)"/><use xlink:href="#s" x="72.347" y="23.174" fill="rgb(0%,0%,0%)"/><path d="M55.59 25.398l12.527 23.098" fill="none" stroke-width="0.3985" stroke="rgb(50%,50%,50%)" stroke-miterlimit="10"/><path d="M73.078 48.496a4.96 4.96 0 0 0-4.96-4.957 4.96 4.96 0 1 0 0 9.918 4.96 4.96 0 0 0 4.96-4.96zm0 0" fill="rgb(100%,100%,100%)" stroke-width="0.3985" stroke="rgb(0%,0%,0%)" stroke-miterlimit="10"/><g clip-path="url(#bA)"><g clip-path="url(#bB)"><path d="M59.777 55.152l3.086-3.09" fill="none" stroke-width="0.3985" stroke="rgb(0%,0%,0%)" stroke-miterlimit="10"/></g></g><g clip-path="url(#bC)"><g clip-path="url(#bD)"><path d="M62.766 55.152l3.09-3.09" fill="none" stroke-width="0.3985" stroke="rgb(0%,0%,0%)" stroke-miterlimit="10"/></g></g><g clip-path="url(#bE)"><g clip-path="url(#bF)"><path d="M65.754 55.152l3.09-3.09" fill="none" stroke-width="0.3985" stroke="rgb(0%,0%,0%)" stroke-miterlimit="10"/></g></g><g clip-path="url(#bG)"><g clip-path="url(#bH)"><path d="M68.742 55.152l3.09-3.09" fill="none" stroke-width="0.3985" stroke="rgb(0%,0%,0%)" stroke-miterlimit="10"/></g></g><g clip-path="url(#bI)"><g clip-path="url(#bJ)"><path d="M71.73 55.152l3.09-3.09" fill="none" stroke-width="0.3985" stroke="rgb(0%,0%,0%)" stroke-miterlimit="10"/></g></g><g clip-path="url(#bK)"><g clip-path="url(#bL)"><path d="M59.777 52.164l3.086-3.09" fill="none" stroke-width="0.3985" stroke="rgb(0%,0%,0%)" stroke-miterlimit="10"/></g></g><g clip-path="url(#bM)"><g clip-path="url(#bN)"><path d="M62.766 52.164l3.09-3.09" fill="none" stroke-width="0.3985" stroke="rgb(0%,0%,0%)" stroke-miterlimit="10"/></g></g><g clip-path="url(#bO)"><g clip-path="url(#bP)"><path d="M65.754 52.164l3.09-3.09" fill="none" stroke-width="0.3985" stroke="rgb(0%,0%,0%)" stroke-miterlimit="10"/></g></g><g clip-path="url(#bQ)"><g clip-path="url(#bR)"><path d="M68.742 52.164l3.09-3.09" fill="none" stroke-width="0.3985" stroke="rgb(0%,0%,0%)" stroke-miterlimit="10"/></g></g><g clip-path="url(#bS)"><g clip-path="url(#bT)"><path d="M71.73 52.164l3.09-3.09" fill="none" stroke-width="0.3985" stroke="rgb(0%,0%,0%)" stroke-miterlimit="10"/></g></g><g clip-path="url(#bU)"><g clip-path="url(#bV)"><path d="M59.777 49.176l3.086-3.09" fill="none" stroke-width="0.3985" stroke="rgb(0%,0%,0%)" stroke-miterlimit="10"/></g></g><g clip-path="url(#bW)"><g clip-path="url(#bX)"><path d="M62.766 49.176l3.09-3.09" fill="none" stroke-width="0.3985" stroke="rgb(0%,0%,0%)" stroke-miterlimit="10"/></g></g><g clip-path="url(#bY)"><g clip-path="url(#bZ)"><path d="M65.754 49.176l3.09-3.09" fill="none" stroke-width="0.3985" stroke="rgb(0%,0%,0%)" stroke-miterlimit="10"/></g></g><g clip-path="url(#ca)"><g clip-path="url(#cb)"><path d="M68.742 49.176l3.09-3.09" fill="none" stroke-width="0.3985" stroke="rgb(0%,0%,0%)" stroke-miterlimit="10"/></g></g><g clip-path="url(#cc)"><g clip-path="url(#cd)"><path d="M71.73 49.176l3.09-3.09" fill="none" stroke-width="0.3985" stroke="rgb(0%,0%,0%)" stroke-miterlimit="10"/></g></g><g clip-path="url(#ce)"><g clip-path="url(#cf)"><path d="M59.777 46.188l3.086-3.09" fill="none" stroke-width="0.3985" stroke="rgb(0%,0%,0%)" stroke-miterlimit="10"/></g></g><g clip-path="url(#cg)"><g clip-path="url(#ch)"><path d="M62.766 46.188l3.09-3.09" fill="none" stroke-width="0.3985" stroke="rgb(0%,0%,0%)" stroke-miterlimit="10"/></g></g><g clip-path="url(#ci)"><g clip-path="url(#cj)"><path d="M65.754 46.188l3.09-3.09" fill="none" stroke-width="0.3985" stroke="rgb(0%,0%,0%)" stroke-miterlimit="10"/></g></g><g clip-path="url(#ck)"><g clip-path="url(#cl)"><path d="M68.742 46.188l3.09-3.09" fill="none" stroke-width="0.3985" stroke="rgb(0%,0%,0%)" stroke-miterlimit="10"/></g></g><g clip-path="url(#cm)"><g clip-path="url(#cn)"><path d="M71.73 46.188l3.09-3.09" fill="none" stroke-width="0.3985" stroke="rgb(0%,0%,0%)" stroke-miterlimit="10"/></g></g><g clip-path="url(#co)"><g clip-path="url(#cp)"><path d="M59.777 43.195l3.086-3.086" fill="none" stroke-width="0.3985" stroke="rgb(0%,0%,0%)" stroke-miterlimit="10"/></g></g><g clip-path="url(#cq)"><g clip-path="url(#cr)"><path d="M62.766 43.195l3.09-3.086" fill="none" stroke-width="0.3985" stroke="rgb(0%,0%,0%)" stroke-miterlimit="10"/></g></g><g clip-path="url(#cs)"><g clip-path="url(#ct)"><path d="M65.754 43.195l3.09-3.086" fill="none" stroke-width="0.3985" stroke="rgb(0%,0%,0%)" stroke-miterlimit="10"/></g></g><g clip-path="url(#cu)"><g clip-path="url(#cv)"><path d="M68.742 43.195l3.09-3.086" fill="none" stroke-width="0.3985" stroke="rgb(0%,0%,0%)" stroke-miterlimit="10"/></g></g><g clip-path="url(#cw)"><g clip-path="url(#cx)"><path d="M71.73 43.195l3.09-3.086" fill="none" stroke-width="0.3985" stroke="rgb(0%,0%,0%)" stroke-miterlimit="10"/></g></g></svg>