<svg xmlns="http://www.w3.org/2000/svg" xmlns:xlink="http://www.w3.org/1999/xlink" width="258.456" height="176.436"><defs><path id="b" d="M7.672-2.969H.875c-.172 0-.266.078-.266.219 0 .14.094.219.266.219h6.797c.187 0 .266-.078.266-.219 0-.125-.125-.219-.266-.219m0 0"/><path id="c" d="M3.89-7.453c-.109 0-.187.062-.265.156L.313-2.187v.39h2.859v.906c0 .204-.031.329-.11.391-.078.047-.296.078-.656.078h-.265V0c.312-.016.812-.031 1.5-.031s1.187.015 1.5.031v-.422h-.266c-.36 0-.578-.031-.656-.078-.078-.062-.11-.187-.11-.39v-.907h1.079v-.422H4.109v-5.047c0-.109-.078-.187-.218-.187m-.64 1.375v3.86H.734Zm0 0"/><path id="d" d="M2.61-7.328c-.563 0-1.032.203-1.438.594s-.625.859-.625 1.422c0 .375.281.656.625.656.328 0 .594-.297.594-.625 0-.36-.266-.61-.61-.61h-.078c.203-.53.688-1 1.39-1 .891 0 1.407.782 1.407 1.72 0 .734-.375 1.53-1.125 2.359L.688-.47C.53-.313.547-.313.547 0h4.078l.328-1.984h-.36q-.14.843-.234.984c-.062.047-.39.078-1 .078H1.531l1.063-1.047c.75-.703 1.703-1.468 2.015-2.047.22-.39.329-.765.329-1.156 0-1.297-1.016-2.156-2.329-2.156m0 0"/><path id="e" d="M2.734.234c1.563 0 2.329-1.25 2.329-3.75 0-1.687-.36-2.812-1.047-3.359-.391-.297-.813-.453-1.266-.453-1.547 0-2.328 1.266-2.328 3.812C.422-1.5.969.234 2.734.234m1.235-6c.078.391.11 1.094.11 2.11s-.048 1.765-.126 2.25Q3.743-.094 2.734-.094c-.25 0-.5-.093-.734-.281-.297-.25-.469-.766-.547-1.562-.031-.282-.047-.844-.047-1.72 0-.952.032-1.624.094-1.984.094-.609.297-1 .594-1.156.25-.14.453-.203.64-.203.72 0 1.11.594 1.235 1.234m0 0"/><path id="g" d="M5.797-4.11c0-.5-.5-.75-1.047-.75q-.703 0-1.125.75c-.234-.5-.625-.75-1.187-.75-.532 0-.97.25-1.329.75-.296.423-.453.75-.453.954 0 .094.063.156.172.156.094 0 .156-.062.188-.156.203-.64.672-1.39 1.406-1.39.36 0 .531.234.531.687 0 .234-.187 1.093-.578 2.562-.187.734-.516 1.094-.984 1.094-.157 0-.297-.031-.422-.078.281-.11.422-.313.422-.594 0-.297-.141-.437-.438-.437-.36 0-.64.312-.64.671 0 .516.53.766 1.062.766.469 0 .844-.25 1.14-.766.204.516.594.766 1.172.766q.798 0 1.313-.75c.297-.437.453-.75.453-.953 0-.11-.047-.156-.156-.156-.11 0-.156.046-.188.156-.187.625-.687 1.375-1.406 1.375-.36 0-.547-.219-.547-.672 0-.14.063-.437.172-.937l.375-1.485c.219-.828.547-1.25 1.031-1.25a.9.9 0 0 1 .422.094c-.297.094-.437.297-.437.594 0 .28.156.422.453.422.344 0 .625-.313.625-.672m0 0"/><path id="j" d="M-4.86-1.797c0 .5.266.89.829 1.156q.632.33.89.329c.094 0 .157-.063.157-.188 0-.156-.079-.156-.235-.203-.875-.25-1.312-.61-1.312-1.063 0-.14.093-.218.297-.218q.258 0 .75.187c1.125.406 1.89.625 2.297.625.828 0 1.328-.516 1.328-1.375 0-.36-.125-.703-.391-1 1.453.375 2.172.985 2.172 1.813 0 .375-.125.625-.36.75-.015-.438-.234-.657-.624-.657-.282 0-.422.141-.422.438 0 .406.343.656.75.656.609 0 .984-.547.984-1.187C2.25-3 1.094-4.031.016-4.312l-4.157-1.032a1.3 1.3 0 0 0-.265-.047c-.219 0-.328.125-.328.36a.44.44 0 0 0 .25.406c.234.078.422.125.593.156l2.829.703c.39.11.89.704.89 1.188 0 .422-.281.625-.844.625-.453 0-1.156-.188-2.109-.547-.39-.14-.64-.219-.797-.219-.547 0-.937.39-.937.922m0 0"/><path id="t" d="M2.984-6.797q-.907 0-.906.703v2.516h.531c.594 0 1.047-.117 1.36-.36q.482-.356.484-1.328-.002-1.53-1.469-1.53m-.906 5.453q-.002.658.172.828.17.16.781.172.047.064.047.203 0 .128-.047.157A83 83 0 0 0 1.61 0Q1.171-.001.188.016.14-.012.14-.141q0-.139.047-.203.622-.013.78-.172.172-.17.173-.828V-5.75q-.001-.655-.172-.812-.16-.17-.781-.188Q.14-6.795.14-6.922q0-.14.047-.187 1.03.016 1.421.015.186.002.641-.031.452-.047.734-.047c.426 0 .79.04 1.094.11q.451.094.797.421a1.8 1.8 0 0 1 .594 1.375q-.002.752-.485 1.235-.468.47-.984.64l1.39 2.313q.25.423.485.64a.84.84 0 0 0 .578.204q.06.14 0 .265Q6.294.108 6 .11q-.862 0-1.453-.984L3.375-2.781a.78.78 0 0 0-.406-.313c-.168-.07-.465-.11-.89-.11Zm0 0"/><path id="u" d="m1.36-3.11 2-.03q.168 0 .156-.141-.001-.64-.266-.89a.88.88 0 0 0-.64-.266 1 1 0 0 0-.297.046 1.6 1.6 0 0 0-.344.157q-.205.111-.375.406c-.106.2-.184.437-.235.719m2.89 2.094q.188.001.234.172Q3.746.11 2.61.11 1.514.11.922-.594.406-1.186.406-2.219q0-1.171.703-1.875.705-.716 1.5-.718 1.86 0 1.86 1.921-.002.188-.203.188l-2.938-.031c0 .617.117 1.12.36 1.515.32.524.722.782 1.203.782q.45.001.75-.125.292-.125.609-.454m0 0"/><path id="v" d="M1.64 0Q1.06-.001.204.016.156-.012.156-.141q0-.139.047-.203Q.824-.357 1-.516q.17-.17.172-.828V-5.75Q1.17-6.405 1-6.562q-.176-.17-.797-.188-.047-.045-.047-.172 0-.14.047-.187 1.013.016 1.422.015.436 0 1.438-.015.03.045.03.187c.009.086 0 .14-.03.172q-.627.018-.797.188c-.118.105-.172.375-.172.812v4.547q0 .422.14.594.154.174.5.172h.688q.81 0 1.203-.375.406-.373.594-1.063c.125-.02.242 0 .36.063A24 24 0 0 1 5.296.016 89 89 0 0 0 3.984 0Zm0 0"/><path id="w" d="M1.89-5.75v2.828q0 .458.016.75.028.3.157.688.139.39.39.625.528.515 1.313.515c.351 0 .66-.054.922-.172a1.7 1.7 0 0 0 .593-.406 2 2 0 0 0 .328-.64q.124-.389.141-.72.03-.326.031-.765V-5.75q0-.34-.031-.516a.47.47 0 0 0-.172-.296.54.54 0 0 0-.281-.125 7 7 0 0 0-.516-.063q-.047-.045-.047-.172 0-.14.047-.187.996.016 1.266.015.28 0 1.125-.015.047.045.047.187c0 .086-.016.14-.047.172q-.535.065-.688.219-.157.159-.156.781v2.5q-.001.785-.125 1.36a3.3 3.3 0 0 1-.422 1.046q-.297.471-.86.719c-.374.152-.839.234-1.39.234A3.5 3.5 0 0 1 2.641 0a2.7 2.7 0 0 1-.813-.375c-.273-.187-.484-.46-.64-.828q-.235-.562-.235-1.36V-5.75c0-.437-.055-.707-.156-.812q-.16-.17-.688-.188-.046-.045-.046-.172 0-.14.046-.187a66 66 0 0 0 2.797 0q.047.045.047.187c0 .086-.015.14-.047.172q-.656.018-.844.188c-.117.105-.171.375-.171.812m0 0"/><path id="x" d="M4.14-7.234q.544 0 .954.093.42.094.765.235c.227.086.422.14.579.172q.2.926.25 1.687a.7.7 0 0 1-.36.063 4.6 4.6 0 0 0-.266-.703 2.4 2.4 0 0 0-.406-.563 1.5 1.5 0 0 0-.672-.437 3 3 0 0 0-1-.157q-1.003.001-1.765.922c-.5.617-.75 1.39-.75 2.328q0 .75.281 1.5.294.737.922 1.281a2.16 2.16 0 0 0 1.453.532q1.265 0 1.703-.422v-1.688c0-.195-.062-.328-.187-.39q-.188-.095-.703-.14-.05-.048-.063-.188 0-.14.063-.203c.632.023 1.085.03 1.359.03.289 0 .613-.007.969-.03q.06.063.062.203-.002.14-.062.187-.252.035-.375.14c-.086.075-.125.204-.125.391v1.282c0 .105.054.203.172.297-.711.617-1.731.921-3.063.921q-1.547 0-2.516-.984-.953-.998-.953-2.5Q.404-4.53.953-5.437q.563-.904 1.406-1.344.855-.452 1.782-.453m0 0"/><path id="y" d="M3.094-3.969q.668.002.828-.125.153-.138.172-.625.045-.06.172-.062.14.002.187.062a29 29 0 0 0 0 1.922q-.047.047-.187.047-.127 0-.172-.047a1.7 1.7 0 0 0-.063-.422q-.047-.141-.265-.234c-.149-.07-.371-.11-.672-.11h-1v2.438q-.002.393.125.547.14.14.484.14h1.281c.696 0 1.176-.476 1.438-1.437a.65.65 0 0 1 .39.063q-.14.86-.406 1.828A73 73 0 0 0 3.984 0H1.625C1.219 0 .742.004.203.016Q.156-.012.156-.141q0-.139.047-.203.607-.013.781-.172.172-.17.172-.828V-5.75q0-.655-.172-.812-.174-.17-.78-.188-.048-.045-.048-.172 0-.14.047-.187.873.016 1.406.015h2.813q.279 0 .547-.047.03.001.031.032.093.374.25 1.593a.57.57 0 0 1-.375.063q-.204-.668-.437-.938-.224-.264-.797-.265h-.828q-.425.002-.579.156-.14.16-.14.547v1.984Zm0 0"/><path id="z" d="m3.219-2.562-.86.234c-.699.18-1.046.578-1.046 1.203q-.001.3.203.547c.132.156.328.234.578.234s.57-.16.969-.484c.101-.082.156-.176.156-.281Zm0 2.03h-.016l-.219.173c-.398.312-.796.468-1.203.468-.93 0-1.39-.394-1.39-1.187 0-.363.164-.688.5-.969q.497-.42 1.328-.625l.937-.234q.062-.013.063-.125 0-1.437-.89-1.438-.363.001-.626.125-.251.11-.25.344-.001.159.016.219a.7.7 0 0 1 .047.187q-.002.128-.157.25a.57.57 0 0 1-.375.125q-.375 0-.375-.39 0-.47.563-.844.56-.375 1.25-.375c1.101 0 1.656.621 1.656 1.86v1.984q.012.13.047.28.029.16.094.22.075.063.187.062.2.002.407-.172.152.082.187.297c-.273.274-.621.406-1.047.406-.25 0-.43-.054-.531-.156a1.05 1.05 0 0 1-.203-.484m0 0"/><path id="A" d="M.953-1.344v-4.812q-.001-.34-.031-.516c-.012-.125-.059-.21-.14-.266Q.67-7.014.593-7.015a4 4 0 0 0-.36-.03q-.11-.124-.062-.329.984-.076 1.547-.312.14 0 .14.125c-.03.292-.046.68-.046 1.156v3.828q.357-.046.75-.344.387-.293.874-.89.059-.077.094-.141.03-.077.047-.172.028-.092-.078-.156-.095-.076-.312-.094-.047-.045-.047-.172 0-.14.046-.203.516.033 1.079.031.45.002.953-.031.06.064.062.203c0 .086-.023.14-.062.172q-.766.082-1.14.484l-.97 1q-.046.035-.046.11c0 .031.023.086.078.156L4.594-.812q.187.268.39.343c.133.055.317.094.547.125q.062.064.063.203c0 .086-.024.137-.063.157A23 23 0 0 0 4.625 0c-.156 0-.383.004-.672.016q-.047 0-.047-.047-.017-.171-.469-.781l-.796-1.063a1.6 1.6 0 0 0-.36-.36 2 2 0 0 0-.469-.062v.953q0 .659.11.813.105.158.469.187.046.064.046.203 0 .128-.046.157A29 29 0 0 0 1.39 0Q.934-.001.203.016.156-.012.156-.141q0-.139.047-.203.48-.03.61-.187.14-.155.14-.813m0 0"/><path id="B" d="M2.25 1.766q-.457.78-1.078.78a.65.65 0 0 1-.375-.108.36.36 0 0 1-.14-.297q0-.142.14-.313a.44.44 0 0 1 .344-.156 1 1 0 0 1 .156.016c.062.007.117.015.172.015q.373 0 .547-.312c.175-.368.316-.703.422-1.016Q2.576 0 2.28-.656L1.047-3.562c-.149-.32-.274-.532-.375-.626q-.16-.14-.5-.187C.148-4.406.14-4.461.14-4.547c0-.094.007-.16.03-.203q.453.033.892.031.434.002 1.25-.031.046.064.046.203c0 .086-.015.14-.046.172q-.44.034-.5.203-.048.176.14.516l.969 2.281q.14.315.265.016L4.28-3.891q.123-.247-.047-.343-.157-.106-.484-.141-.047-.045-.047-.172 0-.14.047-.203.656.033 1 .031.341.002.781-.031.062.064.063.203c0 .086-.024.14-.063.172q-.375.047-.547.188-.175.14-.343.515Q3.827-1.937 2.703.813q-.235.544-.453.953m0 0"/><path id="D" d="M4.344-6.937q.14.752.187 1.421c-.086.063-.203.086-.36.063a4 4 0 0 0-.202-.531 1.8 1.8 0 0 0-.281-.438 1.2 1.2 0 0 0-.47-.328 1.9 1.9 0 0 0-.671-.11q-.47 0-.844.376-.361.374-.36.843-.002.268.126.5.139.237.297.391c.101.105.25.21.437.313q.28.16.438.218.17.066.453.172.389.142.672.297a3 3 0 0 1 .547.406c.187.156.328.352.421.578q.141.33.141.735 0 .534-.281 1.015-.27.47-.75.766Q3.263.112 2.5.11 1.966.107 1.39-.017.829-.14.517-.14C.398-.609.328-1.164.296-1.812a.44.44 0 0 1 .36-.032Q.996-.28 2.578-.28q.668 0 1.016-.344.359-.358.36-1.016 0-.31-.095-.562a1.6 1.6 0 0 0-.218-.406 1.4 1.4 0 0 0-.36-.297 3 3 0 0 0-.39-.203l-.407-.172a5.4 5.4 0 0 1-.718-.313q-.3-.17-.594-.406c-.2-.164-.352-.36-.453-.578a1.75 1.75 0 0 1-.156-.75q0-.857.609-1.375.607-.53 1.484-.531.622 0 1.078.14.451.128.61.157m0 0"/><path id="E" d="M.984-6.594q0-.2.188-.36a.6.6 0 0 1 .39-.155q.2 0 .36.187a.54.54 0 0 1 .172.375q0 .188-.188.36a.54.54 0 0 1-.39.171.5.5 0 0 1-.36-.171.57.57 0 0 1-.172-.407M2-1.344q-.001.659.125.813.122.158.656.187.062.064.063.203c0 .086-.024.137-.063.157a50 50 0 0 0-2.453 0Q.281-.012.281-.141q0-.139.047-.203.528-.03.656-.187.141-.155.141-.813v-2.14Q1.124-3.952 1-4.062c-.086-.083-.281-.141-.594-.172a.46.46 0 0 1-.015-.313q1.013-.124 1.5-.312.14 0 .14.078-.033.703-.031 1.25Zm0 0"/><path id="F" d="M3.5-3.062q0-.686-.281-1.047-.268-.375-.781-.375-.877 0-.876 1.172c0 .199.008.374.032.53.02.15.062.298.125.454q.107.235.312.36.218.126.547.124.92 0 .922-1.218M1.453.108Q1.11.514 1.11 1.141q-.002.499.454.78c.312.196.601.298.875.298q.513 0 1-.14a2.2 2.2 0 0 0 .812-.423q.342-.28.344-.656A.56.56 0 0 0 4.47.64a2 2 0 0 0-.44-.326Q3.687.124 2.703.14q-.063 0-.344.015c-.18.008-.336.016-.468.016a3 3 0 0 1-.438-.063m3.422-4.375a.31.31 0 0 1-.297-.187q-.095-.14-.219-.14a.46.46 0 0 0-.234.093 1 1 0 0 0-.203.172q.468.485.469 1.14-.001.785-.547 1.235c-.367.305-.805.453-1.313.453q-.611 0-1-.234a1.06 1.06 0 0 0-.203.64q0 .316.203.469a.83.83 0 0 0 .5.156l.328-.015q.435-.047.75-.047 1.155 0 1.594.36.482.386.484.89c0 .375-.156.71-.468 1.015q-.455.452-1.157.657a5 5 0 0 1-1.468.218q-.737-.002-1.235-.296c-.336-.188-.5-.508-.5-.954q0-.783.891-1.328C.914-.133.75-.414.75-.812q-.001-.294.125-.61a1.4 1.4 0 0 1 .36-.5q-.58-.544-.579-1.234 0-.733.563-1.203a2 2 0 0 1 1.328-.47c.445 0 .828.106 1.14.313q.202-.264.532-.406c.218-.101.406-.156.562-.156a.53.53 0 0 1 .36.125c.101.074.156.168.156.281a.38.38 0 0 1-.14.297.42.42 0 0 1-.282.11m0 0"/><path id="G" d="M1.875-3.937q-.001.14.125 0 .795-.891 1.672-.891.421 0 .719.234c.195.149.328.34.39.578q.014.095.11 0 .762-.81 1.812-.812c.445 0 .75.152.906.453.157.305.235.734.235 1.297v1.734q-.001.659.11.813.122.158.593.187.047.064.047.203 0 .128-.047.157a40 40 0 0 0-2.25 0Q6.25-.012 6.25-.141q0-.139.047-.203.435-.03.547-.187.124-.155.125-.813V-3.28q-.001-.516-.172-.75-.158-.235-.484-.235-.785 0-1.454.735.014.143.016.437v1.75q-.001.659.11.813c.07.105.25.168.53.187a.3.3 0 0 1 .048.188q0 .13-.047.172a36 36 0 0 0-2.203 0q-.034-.042-.032-.172-.002-.14.031-.188.468-.03.579-.187C3.96-.633 4-.906 4-1.344V-3.25q-.002-.997-.719-1.016-.532 0-1.187.657a.68.68 0 0 0-.188.468v1.797q0 .458.063.657.059.205.172.265.122.048.437.078.047.047.047.188 0 .13-.047.172a42 42 0 0 0-2.297 0Q.234-.012.234-.141q0-.139.047-.203.48-.03.61-.187.14-.155.14-.813v-2.14q-.001-.468-.125-.578C.82-4.145.625-4.203.313-4.234a.46.46 0 0 1-.016-.313 6.3 6.3 0 0 0 1.36-.312q.076 0 .124.078.059.129.094.843m0 0"/><path id="H" d="M.453-2.25q0-1.091.61-1.812C1.5-4.57 2.07-4.828 2.78-4.828c.531 0 .973.133 1.328.39q.545.393.766.938.218.532.219 1.14c0 .774-.242 1.391-.719 1.86q-.626.61-1.61.61c-.742 0-1.312-.239-1.718-.72a2.48 2.48 0 0 1-.594-1.64M2.61-4.437q-1.218 0-1.218 1.921c0 .243.023.485.078.735q.092.362.25.718.169.346.484.563.31.22.719.219.48 0 .844-.39.375-.39.375-1.329-.001-1.186-.407-1.812-.41-.624-1.125-.626m0 0"/><path id="I" d="M3.797-1.36v-2.093q-.001-.247-.031-.36a.7.7 0 0 0-.157-.234 1.08 1.08 0 0 0-.89-.39q-.657 0-1.031.546-.315.458-.313 1.454c0 .648.117 1.148.36 1.5q.357.531.843.53.436.001 1.047-.53a.54.54 0 0 0 .172-.422m-.125.813Q2.874.11 2.297.11C1.71.11 1.254-.1.922-.53Q.436-1.187.437-2.234q0-1.171.75-1.938a2.3 2.3 0 0 1 1.657-.656q.152 0 .36.047a4 4 0 0 1 .343.093q.14.047.156.047.094.001.094-.109v-1.406q-.002-.34-.016-.516c-.011-.125-.058-.21-.14-.266a.5.5 0 0 0-.188-.078 4 4 0 0 0-.36-.03q-.127-.124-.062-.329.968-.076 1.531-.312.141 0 .141.125c-.023.292-.039.68-.047 1.156v4.984q-.001.422.157.594.152.157.656.203c.031.031.047.086.047.156q0 .095-.047.14c-.586.063-1.016.212-1.297.438a.27.27 0 0 1-.219 0 3.6 3.6 0 0 1-.11-.64q-.018-.061-.077-.063-.048 0-.094.047m0 0"/><path id="J" d="M3.844-1.344q0 .658.187.828.188.16.89.172.048.064.048.203 0 .128-.047.157Q3.81-.001 3.39 0q-.469-.001-1.547.016c-.024-.02-.032-.07-.032-.157a.44.44 0 0 1 .032-.203q.702-.013.89-.172.188-.17.188-.828v-4.234q-.001-.53-.125-.813-.112-.28-.406-.28h-.532q-.562 0-.937.265-.363.269-.516.906a1.2 1.2 0 0 1-.375-.047q.217-.951.282-1.61 0-.03.046-.03 1.109.093 2.563.093h.937q1.466 0 2.47-.093.03 0 .03.03.012.738.141 1.563a.9.9 0 0 1-.375.063q-.127-.622-.5-.875-.375-.265-1.031-.266h-.235q-.282 0-.406.281-.11.282-.11.844Zm0 0"/><path id="K" d="M2.031-3.937c.508-.594 1.11-.891 1.797-.891q.622 0 .922.375.282.392.281 1.469v1.64q-.001.659.125.813.14.14.625.187a.5.5 0 0 1 .032.203q-.001.128-.032.157a45 45 0 0 0-2.297 0q-.046-.042-.046-.172 0-.14.046-.188.452-.03.563-.187.124-.155.125-.813v-1.672q-.001-.574-.125-.843c-.149-.27-.344-.407-.594-.407q-.675 0-1.344.657a.68.68 0 0 0-.187.468v1.797q-.001.659.11.813.122.14.562.187.047.064.047.203 0 .128-.047.157a41 41 0 0 0-2.313 0Q.234-.012.234-.141q0-.139.047-.203.514-.03.64-.187.142-.155.141-.813v-2.14q0-.468-.125-.578-.125-.125-.593-.172a.53.53 0 0 1-.031-.313q.825-.107 1.359-.312.076 0 .14.078.06.14.079.843 0 .141.14 0m0 0"/><path id="L" d="M1.844-3.14v1.796c0 .313.015.54.047.672q.059.19.172.25.122.065.437.078.047.047.047.188 0 .13-.047.172A39 39 0 0 0 1.406 0Q.92-.001.203.016.156-.026.156-.156q0-.14.047-.188.263-.013.39-.031a.4.4 0 0 0 .22-.14.45.45 0 0 0 .125-.282q.03-.186.03-.547v-4.812q-.001-.34-.015-.516c-.012-.125-.058-.21-.14-.266a.5.5 0 0 0-.188-.078 4 4 0 0 0-.36-.03q-.126-.124-.061-.33.968-.076 1.531-.312.153 0 .141.125c-.023.292-.031.68-.031 1.156l-.016 2.468q0 .143.094.016-.001-.014.016-.015.796-.891 1.875-.891.623 0 .906.375c.195.262.297.75.297 1.469v1.64c0 .438.039.711.125.813q.123.14.609.187.047.064.047.203 0 .128-.047.157a39 39 0 0 0-2.281 0q-.047-.042-.047-.172 0-.14.047-.188.45-.03.562-.187c.07-.102.11-.375.11-.813v-1.672q-.001-.574-.125-.843-.204-.406-.578-.407-.75 0-1.407.657a.68.68 0 0 0-.187.468m0 0"/><clipPath id="a"><path d="M20 142h238.457v13H20Zm0 0"/></clipPath><clipPath id="f"><path d="M247 139h11.457v16H247Zm0 0"/></clipPath><clipPath id="h"><path d="M20 1h238.457v12H20Zm0 0"/></clipPath><clipPath id="i"><path d="M247 1h11.457v15H247Zm0 0"/></clipPath><clipPath id="k"><path d="M247 1h11.457v154H247Zm0 0"/></clipPath><clipPath id="l"><path d="M244 114h14.457v12H244Zm0 0"/></clipPath><clipPath id="m"><path d="M244 57h14.457v13H244Zm0 0"/></clipPath><clipPath id="n"><path d="M244 1h14.457v12H244Zm0 0"/></clipPath><clipPath id="o"><path d="M17 0h241.457v129H17Zm0 0"/></clipPath><clipPath id="p"><path d="M17 0h241.457v134H17Zm0 0"/></clipPath><clipPath id="q"><path d="M17 0h241.457v130H17Zm0 0"/></clipPath><clipPath id="r"><path d="M17 83h241.457v46H17Zm0 0"/></clipPath><clipPath id="s"><path d="M17 83h241.457v74H17Zm0 0"/></clipPath></defs><g clip-path="url(#a)"><path fill="none" stroke="#000" stroke-linecap="square" d="M25.934 148.488h226.773"/></g><path fill="none" stroke="#000" d="M25.934 148.488v-2.836"/><use xlink:href="#b" x="18.905" y="160.254"/><use xlink:href="#c" x="27.463" y="160.254"/><path fill="none" stroke="#000" d="M82.629 148.488v-2.836"/><use xlink:href="#b" x="75.598" y="160.254"/><use xlink:href="#d" x="84.156" y="160.254"/><path fill="none" stroke="#000" d="M139.32 148.488v-2.836"/><use xlink:href="#e" x="136.57" y="160.254"/><path fill="none" stroke="#000" d="M196.012 148.488v-2.836"/><use xlink:href="#d" x="193.263" y="160.254"/><g clip-path="url(#f)"><path fill="none" stroke="#000" d="M252.707 148.488v-2.836"/></g><use xlink:href="#c" x="249.956" y="160.254"/><use xlink:href="#g" x="134.035" y="173.436"/><g clip-path="url(#h)"><path fill="none" stroke="#000" stroke-linecap="square" d="M25.934 6.758h226.773"/></g><path fill="none" stroke="#000" d="M25.934 6.758V9.59m56.695-2.832V9.59m56.691-2.832V9.59m56.692-2.832V9.59"/><g clip-path="url(#i)"><path fill="none" stroke="#000" d="M252.707 6.758V9.59"/></g><path fill="none" stroke="#000" stroke-linecap="square" d="M25.934 148.488V6.758"/><path fill="none" stroke="#000" d="M25.934 120.156h2.836"/><use xlink:href="#e" x="16.182" y="123.914"/><path fill="none" stroke="#000" d="M25.934 63.457h2.836"/><use xlink:href="#d" x="16.182" y="67.214"/><path fill="none" stroke="#000" d="M25.934 6.758h2.836"/><use xlink:href="#c" x="16.182" y="10.513"/><use xlink:href="#j" x="10.513" y="78.594"/><g clip-path="url(#k)"><path fill="none" stroke="#000" stroke-linecap="square" d="M252.707 148.488V6.758"/></g><g clip-path="url(#l)"><path fill="none" stroke="#000" d="M252.707 120.156h-2.836"/></g><g clip-path="url(#m)"><path fill="none" stroke="#000" d="M252.707 63.457h-2.836"/></g><g clip-path="url(#n)"><path fill="none" stroke="#000" d="M252.707 6.758h-2.836"/></g><path fill="none" stroke="#000" stroke-width=".5" d="M25.934 120.156h226.773M139.32 148.488V6.758"/><g clip-path="url(#o)"><path fill="none" stroke="#FF4136" stroke-width="1.5" d="M25.934 120.156h111.074l4.625-2.312 4.629-4.63L248.078 11.388l4.629-4.63"/></g><g clip-path="url(#p)"><path fill="none" stroke="#0074D9" stroke-width="1.5" d="M25.934 120.16h4.628l4.63.004 4.624.012 4.63.011 4.628.028 4.63.039 4.628.062 4.625.098 4.629.14 4.629.192 4.629.266 4.625.336 4.629.418 4.629.496 4.628.558 4.625.594 4.63.582 4.628.508 4.63.355 4.624.118 4.63-.22 4.628-.648 4.629-1.152 4.629-1.719 4.625-2.312 4.629-2.91 4.629-3.477 4.629-3.98 4.625-4.41 4.628-4.747 4.63-4.984 4.628-5.137 4.625-5.21 4.63-5.223 4.628-5.188 4.629-5.12 4.629-5.052 4.625-4.965 4.629-4.89 4.629-4.824 4.629-4.766 4.625-4.727 4.629-4.691 4.628-4.668 4.63-4.656 4.624-4.64 4.63-4.638 4.628-4.632 4.629-4.633"/></g><g clip-path="url(#q)"><path fill="none" stroke="#2ECC40" stroke-width="1.5" d="m25.934 121.293 4.628-.047 4.63-.047 4.624-.047 4.63-.047 4.628-.046 4.63-.043 4.628-.047 4.625-.047 4.629-.047 9.258-.094 4.625-.047 4.629-.043 4.629-.046 4.628-.047 4.625-.047 4.63-.047 4.628-.043 4.63-.05 4.624-.044 4.63-.047 4.628-.047 4.629-.046 4.629-.047 4.625-2.336 4.629-4.63L248.078 11.388l4.629-4.63"/></g><g clip-path="url(#r)"><path fill="none" stroke="#FF851B" stroke-width="1.5" d="m25.934 119.648 4.628-.09 4.63-.101 4.624-.121 4.63-.14 4.628-.165 4.63-.191 4.628-.223 4.625-.254 4.629-.297 4.629-.34 4.629-.386 4.625-.442 4.629-.503 4.629-.563 4.628-.633 4.625-.707 4.63-.773 4.628-.848 4.63-.922 4.624-.98 4.63-1.043 4.628-1.09 4.629-1.125 4.629-1.148 4.625-1.16 4.629-1.15 4.629-1.124 4.629-1.09 4.625-1.043 4.628-.98 4.63-.922 4.628-.848 4.625-.773 4.63-.707 4.628-.633 4.629-.563 4.629-.504 4.625-.441 4.629-.387 4.629-.34 4.629-.296 4.625-.254 4.629-.223 4.628-.191 4.63-.164 4.624-.141 4.63-.121 4.628-.102 4.629-.09"/></g><g clip-path="url(#s)"><path fill="none" stroke="#B10DC9" stroke-width="1.5" d="m25.934 148.488 4.628-.008 4.63-.007 4.624-.016 4.63-.02 4.628-.027 4.63-.039 4.628-.05 4.625-.071 4.629-.098 4.629-.136 4.629-.192 4.625-.258 4.629-.355 4.629-.484 4.628-.657 4.625-.886 4.63-1.184 4.628-1.555 4.63-2.007 4.624-2.536 4.63-3.105 4.628-3.668 4.629-4.164 4.629-4.496 4.625-4.621 4.629-4.496 4.629-4.165 4.629-3.671 4.625-3.102 4.628-2.535 4.63-2.008 4.628-1.555 4.625-1.183 4.63-.887 4.628-.656 4.629-.485 4.629-.355 4.625-.262 4.629-.187 4.629-.137 4.629-.098 4.625-.074 4.629-.05 4.628-.036 4.63-.027 4.624-.02 4.63-.015 4.628-.012 4.629-.004"/></g><path fill="none" stroke="#000" stroke-width=".1" d="M25.934 148.488V6.758m28.347 141.73V6.758m28.348 141.73V6.758m28.344 141.73V6.758m28.347 141.73V6.758m28.348 141.73V6.758m28.344 141.73V6.758m28.348 141.73V6.758m28.347 141.73V6.758M25.934 148.488h226.773M25.934 120.14h226.773M25.934 91.797h226.773M25.934 63.45h226.773M25.934 35.102h226.773M25.934 6.758h226.773"/><path fill="#FFF" fill-opacity=".784" stroke="#000" d="M28.77 9.59h83.988v62.28H28.77zm0 0"/><path fill="none" stroke="#FF4136" stroke-width="1.5" d="M31.605 16.047h21.258"/><use xlink:href="#t" x="55.698" y="19.666"/><use xlink:href="#u" x="62.154" y="19.666"/><use xlink:href="#v" x="67.069" y="19.666"/><use xlink:href="#w" x="72.875" y="19.666"/><path fill="none" stroke="#0074D9" stroke-width="1.5" d="M31.605 28.387h21.258"/><use xlink:href="#x" x="55.698" y="32.009"/><use xlink:href="#y" x="63.228" y="32.009"/><use xlink:href="#v" x="69.351" y="32.009"/><use xlink:href="#w" x="75.158" y="32.009"/><path fill="none" stroke="#2ECC40" stroke-width="1.5" d="M31.605 40.73h21.258"/><use xlink:href="#v" x="55.698" y="44.351"/><use xlink:href="#u" x="61.504" y="44.351"/><use xlink:href="#z" x="66.419" y="44.351"/><use xlink:href="#A" x="71.441" y="44.351"/><use xlink:href="#B" x="77.07" y="44.351"/><use xlink:href="#C" x="82.731" y="44.351"/><use xlink:href="#t" x="85.481" y="44.351"/><use xlink:href="#u" x="91.937" y="44.351"/><use xlink:href="#v" x="96.851" y="44.351"/><use xlink:href="#w" x="102.658" y="44.351"/><path fill="none" stroke="#FF851B" stroke-width="1.5" d="M31.605 53.074h21.258"/><use xlink:href="#D" x="55.698" y="56.694"/><use xlink:href="#E" x="61.032" y="56.694"/><use xlink:href="#F" x="64.013" y="56.694"/><use xlink:href="#G" x="69.513" y="56.694"/><use xlink:href="#H" x="78.198" y="56.694"/><use xlink:href="#E" x="83.741" y="56.694"/><use xlink:href="#I" x="86.722" y="56.694"/><path fill="none" stroke="#B10DC9" stroke-width="1.5" d="M31.605 65.418h21.258"/><use xlink:href="#J" x="55.698" y="69.036"/><use xlink:href="#z" x="61.724" y="69.036"/><use xlink:href="#K" x="66.746" y="69.036"/><use xlink:href="#L" x="72.708" y="69.036"/></svg>