<svg xmlns="http://www.w3.org/2000/svg" xmlns:xlink="http://www.w3.org/1999/xlink" width="326.973" height="249.28" viewBox="0 0 245.23 186.96"><defs><clipPath id="d"><path d="M68 83h98v36H68zm0 0"/></clipPath><clipPath id="e"><path d="M231.71 113.8V22.478L99.22.195 37.438 47.98v91.32l132.492 22.286zm0 0"/></clipPath><clipPath id="f"><path d="M62 78h110v47H62zm0 0"/></clipPath><clipPath id="g"><path d="M231.71 113.8V22.478L99.22.195 37.438 47.98v91.32l132.492 22.286zm0 0"/></clipPath><clipPath id="h"><path d="M103 118h98v36h-98zm0 0"/></clipPath><clipPath id="i"><path d="M231.71 113.8V22.478L99.22.195 37.438 47.98v91.32l132.492 22.286zm0 0"/></clipPath><clipPath id="j"><path d="M98 113h109v47H98zm0 0"/></clipPath><clipPath id="k"><path d="M231.71 113.8V22.478L99.22.195 37.438 47.98v91.32l132.492 22.286zm0 0"/></clipPath><clipPath id="l"><path d="M37 45h195v71H37zm0 0"/></clipPath><clipPath id="m"><path d="M231.71 113.8V22.478L99.22.195 37.438 47.98v91.32l132.492 22.286zm0 0"/></clipPath><clipPath id="n"><path d="M37 40h195v82H37zm0 0"/></clipPath><clipPath id="o"><path d="M231.71 113.8V22.478L99.22.195 37.438 47.98v91.32l132.492 22.286zm0 0"/></clipPath><clipPath id="p"><path d="M134 18h98v36h-98zm0 0"/></clipPath><clipPath id="q"><path d="M231.71 113.8V22.478L99.22.195 37.438 47.98v91.32l132.492 22.286zm0 0"/></clipPath><clipPath id="r"><path d="M128 13h104v47H128zm0 0"/></clipPath><clipPath id="s"><path d="M231.71 113.8V22.478L99.22.195 37.438 47.98v91.32l132.492 22.286zm0 0"/></clipPath><clipPath id="t"><path d="M37 31h98v36H37zm0 0"/></clipPath><clipPath id="u"><path d="M231.71 113.8V22.478L99.22.195 37.438 47.98v91.32l132.492 22.286zm0 0"/></clipPath><clipPath id="v"><path d="M37 26h104v47H37zm0 0"/></clipPath><clipPath id="w"><path d="M231.71 113.8V22.478L99.22.195 37.438 47.98v91.32l132.492 22.286zm0 0"/></clipPath><symbol overflow="visible" id="a"><path d="M6.563-2.297c.171 0 .359 0 .359-.203 0-.188-.188-.188-.36-.188h-5.39c-.172 0-.344 0-.344.188 0 .203.172.203.344.203zm0 0"/></symbol><symbol overflow="visible" id="b"><path d="M2.938-6.375c0-.25 0-.266-.235-.266C2.078-6 1.203-6 .891-6v.313c.203 0 .78 0 1.296-.266v5.172c0 .36-.03.469-.921.469H.953V0c.344-.031 1.203-.031 1.61-.031.39 0 1.265 0 1.609.031v-.313h-.313c-.906 0-.921-.109-.921-.468zm0 0"/></symbol><symbol overflow="visible" id="c"><path d="M4.578-3.188c0-.796-.047-1.593-.39-2.328C3.733-6.484 2.905-6.64 2.5-6.64c-.61 0-1.328.266-1.75 1.188-.313.687-.36 1.469-.36 2.266 0 .75.032 1.64.454 2.406a1.83 1.83 0 001.64 1c.532 0 1.297-.203 1.735-1.157.312-.687.36-1.468.36-2.25zM2.484 0c-.39 0-.984-.25-1.156-1.203-.11-.594-.11-1.516-.11-2.11 0-.64 0-1.296.079-1.828.187-1.187.937-1.28 1.187-1.28.329 0 .985.187 1.172 1.171.11.563.11 1.313.11 1.938 0 .75 0 1.421-.11 2.062C3.5-.297 2.937 0 2.484 0zm0 0"/></symbol><symbol overflow="visible" id="x"><path d="M2.234-3.516v-2.578c0-.234 0-.36.22-.39.093-.016.39-.016.593-.016.89 0 2 .047 2 1.484 0 .688-.234 1.5-1.703 1.5zm2.11.125c.953-.234 1.734-.843 1.734-1.625 0-.953-1.14-1.796-2.594-1.796H.344v.312h.25c.765 0 .781.11.781.469v5.25c0 .36-.016.469-.781.469h-.25V0c.36-.031 1.078-.031 1.453-.031.39 0 1.11 0 1.469.031v-.313h-.25c-.766 0-.782-.109-.782-.468v-2.516h1.141c.156 0 .578 0 .938.344.375.344.375.656.375 1.328 0 .64 0 1.047.406 1.422.406.36.953.422 1.25.422.781 0 .953-.813.953-1.094 0-.063 0-.172-.125-.172-.11 0-.11.094-.125.156C6.984-.17 6.64 0 6.39 0c-.485 0-.563-.516-.704-1.438l-.14-.796c-.172-.641-.656-.97-1.203-1.157zm0 0"/></symbol><symbol overflow="visible" id="y"><path d="M1.11-2.516C1.171-4 2.015-4.25 2.36-4.25c1.015 0 1.124 1.344 1.124 1.734zm0 .22h2.78c.22 0 .25 0 .25-.22 0-.984-.546-1.953-1.78-1.953C1.202-4.469.28-3.437.28-2.187.281-.86 1.328.108 2.47.108 3.688.11 4.14-1 4.14-1.187c0-.094-.079-.125-.141-.125-.078 0-.11.062-.125.14C3.531-.14 2.625-.14 2.531-.14c-.5 0-.89-.296-1.125-.671-.297-.47-.297-1.125-.297-1.485zm0 0"/></symbol><symbol overflow="visible" id="z"><path d="M3.297 2.39c0-.03 0-.046-.172-.218C1.891.922 1.562-.968 1.562-2.5c0-1.734.375-3.469 1.61-4.703.125-.125.125-.14.125-.172 0-.078-.031-.11-.094-.11-.11 0-1 .688-1.594 1.954C1.11-4.438.984-3.328.984-2.5c0 .781.11 1.984.657 3.125C2.25 1.844 3.094 2.5 3.203 2.5c.063 0 .094-.031.094-.11zm0 0"/></symbol><symbol overflow="visible" id="C"><path d="M2.875-2.5c0-.766-.11-1.969-.656-3.11C1.625-6.827.766-7.483.672-7.483a.107.107 0 00-.11.109c0 .031 0 .047.188.234.984.985 1.547 2.563 1.547 4.641 0 1.719-.36 3.469-1.594 4.719-.14.125-.14.14-.14.172 0 .062.046.109.109.109.094 0 1-.688 1.578-1.953.516-1.094.625-2.203.625-3.047zm0 0"/></symbol><symbol overflow="visible" id="D"><path d="M2.25-6.031c0-.36.016-.469.813-.469h.25v-.313c-.344.032-1.126.032-1.516.032-.375 0-1.172 0-1.516-.032v.313h.25c.797 0 .828.11.828.469v5.25c0 .36-.03.469-.828.469h-.25V0c.344-.031 1.14-.031 1.516-.031.39 0 1.172 0 1.516.031v-.313h-.25c-.797 0-.813-.109-.813-.468zm0 0"/></symbol><symbol overflow="visible" id="E"><path d="M1.094-3.422V-.75c0 .438-.11.438-.782.438V0c.36-.016.86-.031 1.141-.031.25 0 .766.015 1.11.031v-.313c-.672 0-.782 0-.782-.437v-1.844c0-1.031.719-1.594 1.344-1.594.64 0 .75.532.75 1.11V-.75c0 .438-.11.438-.781.438V0c.344-.016.86-.031 1.125-.031.25 0 .781.015 1.11.031v-.313c-.657 0-.766 0-.766-.437v-1.844c0-1.031.703-1.594 1.343-1.594.625 0 .735.532.735 1.11V-.75c0 .438-.11.438-.782.438V0c.344-.016.86-.031 1.125-.031.266 0 .782.015 1.125.031v-.313c-.515 0-.765 0-.78-.296v-1.907c0-.859 0-1.156-.313-1.515-.141-.172-.47-.375-1.047-.375-.828 0-1.282.593-1.438.984-.14-.875-.875-.984-1.328-.984-.734 0-1.203.422-1.484 1.047v-1.047l-1.407.11v.312c.704 0 .782.062.782.562zm0 0"/></symbol><symbol overflow="visible" id="A"><path d="M.453 1.219c-.078.343-.11.406-.547.406-.11 0-.218 0-.218.188 0 .078.046.125.124.125.266 0 .563-.032.829-.032.343 0 .671.032 1 .032.046 0 .171 0 .171-.204 0-.109-.093-.109-.234-.109-.5 0-.5-.063-.5-.156 0-.125.422-1.75.484-2 .125.297.407.64.922.64 1.157 0 2.407-1.453 2.407-2.921 0-.938-.579-1.594-1.329-1.594-.5 0-.984.36-1.312.75-.094-.547-.531-.75-.89-.75-.47 0-.657.39-.735.562-.188.344-.313.938-.313.969 0 .11.094.11.11.11.11 0 .11-.016.172-.235.172-.703.375-1.188.734-1.188.172 0 .313.079.313.454 0 .234-.032.343-.079.515zm1.75-4.328c.063-.266.344-.547.516-.704.36-.296.64-.374.812-.374.39 0 .64.343.64.937 0 .594-.327 1.734-.515 2.11-.344.702-.812 1.03-1.187 1.03-.656 0-.781-.828-.781-.89 0-.016 0-.031.03-.156zm0 0"/></symbol><symbol overflow="visible" id="B"><path d="M3.594-2.219c0-.765-.094-1.328-.406-1.812-.22-.313-.657-.594-1.204-.594C.36-4.625.36-2.719.36-2.219c0 .5 0 2.36 1.625 2.36 1.61 0 1.61-1.86 1.61-2.36zM1.984-.063c-.328 0-.75-.187-.89-.75C1-1.219 1-1.796 1-2.313c0-.515 0-1.046.094-1.421.156-.547.593-.704.89-.704.375 0 .735.235.86.641.11.375.125.875.125 1.485 0 .515 0 1.03-.094 1.468-.14.64-.61.781-.89.781zm0 0"/></symbol><symbol overflow="visible" id="F"><path d="M-3.734-3.89c.015.265.234.468.453.468.14 0 .297-.094.297-.312 0-.22-.172-.454-.563-.454-.453 0-.86.422-.86 1.188 0 1.313 1.016 1.688 1.454 1.688.781 0 .922-.735.984-1.032.11-.515.219-1.031.766-1.031.25 0 1.094.219 1.094 1.422 0 .14 0 .906-.532 1.14a.552.552 0 00-.53-.64c-.22 0-.345.172-.345.375 0 .266.204.562.657.562.562 0 .968-.578.968-1.421 0-1.625-1.203-2.016-1.656-2.016a.97.97 0 00-.719.312c-.28.266-.343.563-.421 1-.079.36-.157.75-.61.75-.281 0-.89-.234-.89-1.109 0-.25.078-.75.453-.89zm0 0"/></symbol><symbol overflow="visible" id="H"><path d="M1.219-.453c.343.078.406.11.406.547 0 .11 0 .218.188.218.078 0 .125-.046.125-.124 0-.266-.032-.563-.032-.829 0-.343.032-.671.032-1 0-.046 0-.171-.204-.171-.109 0-.109.093-.109.234 0 .5-.063.5-.156.5-.125 0-1.75-.422-2-.484.297-.125.64-.407.64-.922 0-1.157-1.453-2.407-2.921-2.407-.938 0-1.594.579-1.594 1.329 0 .5.36.984.75 1.312-.547.094-.75.531-.75.89 0 .47.39.657.562.735.344.188.938.313.969.313.11 0 .11-.094.11-.11 0-.11-.016-.11-.235-.172-.703-.172-1.188-.375-1.188-.734 0-.172.079-.313.454-.313.234 0 .343.032.515.079zm-4.328-1.75c-.266-.063-.547-.344-.704-.516-.296-.36-.374-.64-.374-.812 0-.39.343-.64.937-.64.594 0 1.734.327 2.11.515.702.344 1.03.812 1.03 1.187 0 .656-.828.781-.89.781-.016 0-.031 0-.156-.03zm0 0"/></symbol><symbol overflow="visible" id="G"><path d="M2.39-3.297c-.03 0-.046 0-.218.172C.922-1.891-.968-1.562-2.5-1.562c-1.734 0-3.469-.375-4.703-1.61-.125-.125-.14-.125-.172-.125-.078 0-.11.031-.11.094 0 .11.688 1 1.954 1.594 1.093.5 2.203.625 3.031.625.781 0 1.984-.11 3.125-.657C1.844-2.25 2.5-3.094 2.5-3.203c0-.063-.031-.094-.11-.094zm0 0"/></symbol><symbol overflow="visible" id="J"><path d="M-2.5-2.875c-.766 0-1.969.11-3.11.656-1.218.594-1.874 1.453-1.874 1.547 0 .063.046.11.109.11.031 0 .047 0 .234-.188.985-.984 2.563-1.547 4.641-1.547 1.719 0 3.469.36 4.719 1.594.125.14.14.14.172.14.062 0 .109-.046.109-.109 0-.094-.688-1-1.953-1.578-1.094-.516-2.203-.625-3.047-.625zm0 0"/></symbol><symbol overflow="visible" id="I"><path d="M-2.219-3.594c-.765 0-1.328.094-1.812.406-.313.22-.594.657-.594 1.204C-4.625-.36-2.719-.36-2.219-.36c.5 0 2.36 0 2.36-1.625 0-1.61-1.86-1.61-2.36-1.61zm2.156 1.61c0 .328-.187.75-.75.89C-1.219-1-1.796-1-2.313-1c-.515 0-1.046 0-1.421-.094-.547-.156-.704-.593-.704-.89 0-.375.235-.735.641-.86.375-.11.875-.125 1.485-.125.515 0 1.03 0 1.468.094.64.14.781.61.781.89zm0 0"/></symbol></defs><path d="M37.438 139.3h0m66.246 11.145h0m66.246 11.14h0m-70.711-70.07h0m66.246 11.141h0m66.246 11.145h0M37.438 139.3h0m30.89-23.89h0m30.89-23.894h0m70.712 70.07h0m30.89-23.895h0m30.89-23.89h0" fill="none" stroke-width=".19920000000000002" stroke="gray" stroke-miterlimit="10"/><path d="M37.438 139.3l132.492 22.286M99.219 91.516L231.71 113.8M37.438 139.3l61.78-47.784M169.93 161.586l61.78-47.785" fill="none" stroke-width=".3985" stroke="#000" stroke-miterlimit="10"/><use xlink:href="#a" x="27.08" y="150.234"/><use xlink:href="#b" x="34.829" y="150.234"/><use xlink:href="#c" x="97.683" y="160.805"/><use xlink:href="#b" x="163.928" y="171.946"/><use xlink:href="#a" x="171.125" y="173.322"/><use xlink:href="#b" x="178.874" y="173.322"/><use xlink:href="#c" x="204.145" y="147.782"/><use xlink:href="#b" x="235.035" y="123.889"/><path d="M99.219.195h0m66.246 11.14h0m66.246 11.142h0M37.438 47.98h0m30.89-23.894h0M99.218.196h0" fill="none" stroke-width=".19920000000000002" stroke="gray" stroke-miterlimit="10"/><path d="M99.219.195L231.71 22.477M37.438 47.98L99.218.195" fill="none" stroke-width=".3985" stroke="#000" stroke-miterlimit="10"/><path d="M37.438 139.3h0m30.89-23.89h0m30.89-23.894h0M37.439 47.98h0m30.89-23.894h0M99.218.196h0M37.438 131.691h0m0-38.05h0m0-38.051h0m61.78 28.316h0m0-38.05h0m0-38.051h0" fill="none" stroke-width=".19920000000000002" stroke="gray" stroke-miterlimit="10"/><path d="M37.438 139.3V47.98M99.219 91.516V.196" fill="none" stroke-width=".3985" stroke="#000" stroke-miterlimit="10"/><use xlink:href="#a" x="21.188" y="136.967"/><use xlink:href="#b" x="28.937" y="136.967"/><use xlink:href="#c" x="28.936" y="98.36"/><use xlink:href="#b" x="28.936" y="60.31"/><path d="M169.93 161.586h0m30.89-23.895h0m30.89-23.89h0M231.71 106.188h0m0-38.047h0m0-38.051h0" fill="none" stroke-width=".19920000000000002" stroke="gray" stroke-miterlimit="10"/><path d="M231.71 113.8V22.478" fill="none" stroke-width=".3985" stroke="#000" stroke-miterlimit="10"/><path d="M37.438 139.3h0m66.246 11.145h0m66.246 11.14h0M37.438 131.691h0m0-38.05h0m0-38.051h0M99.219 91.516h0m66.246 11.14h0m66.246 11.145h0M99.219.195h0m66.246 11.14h0m66.246 11.142h0M99.219 83.906h0m0-38.05h0m0-38.051h0m132.492 98.383h0m0-38.047h0m0-38.051h0" fill="none" stroke-width=".19920000000000002" stroke="gray" stroke-miterlimit="10"/><g clip-path="url(#d)"><g clip-path="url(#e)"><path d="M99.219 83.906l66.246 11.14-30.89 23.895-66.247-11.14zm0 0" fill="#b2b2ff"/></g></g><g clip-path="url(#f)"><g clip-path="url(#g)"><path d="M99.219 83.906l66.246 11.14-30.89 23.895-66.247-11.14zm0 0" fill="none" stroke-width=".3985" stroke="#b2b2ff" stroke-miterlimit="10"/></g></g><g clip-path="url(#h)"><g clip-path="url(#i)"><path d="M200.82 130.082l-66.246-11.14-30.89 23.89 66.246 11.145zm0 0" fill="#b2b2ff"/></g></g><g clip-path="url(#j)"><g clip-path="url(#k)"><path d="M200.82 130.082l-66.246-11.14-30.89 23.89 66.246 11.145zm0 0" fill="none" stroke-width=".3985" stroke="#b2b2ff" stroke-miterlimit="10"/></g></g><g clip-path="url(#l)"><g clip-path="url(#m)"><path d="M99.219 45.855L231.71 68.141l-61.781 47.785L37.437 93.64zm0 0" fill="gray" fill-opacity=".1"/></g></g><g clip-path="url(#n)"><g clip-path="url(#o)"><path d="M99.219 45.855L231.71 68.141l-61.781 47.785L37.437 93.64zm0 0" fill="none" stroke-width=".3985" stroke="gray" stroke-opacity=".1" stroke-miterlimit="10"/></g></g><g clip-path="url(#p)"><g clip-path="url(#q)"><path d="M165.465 18.945L231.71 30.09l-30.89 23.89-66.247-11.14zm0 0" fill="#f93"/></g></g><g clip-path="url(#r)"><g clip-path="url(#s)"><path d="M165.465 18.945L231.71 30.09l-30.89 23.89-66.247-11.14zm0 0" fill="none" stroke-width=".3985" stroke="#f93" stroke-miterlimit="10"/></g></g><g clip-path="url(#t)"><g clip-path="url(#u)"><path d="M134.574 42.84L68.328 31.7l-30.89 23.89 66.246 11.14zm0 0" fill="#f93"/></g></g><g clip-path="url(#v)"><g clip-path="url(#w)"><path d="M134.574 42.84L68.328 31.7l-30.89 23.89 66.246 11.14zm0 0" fill="none" stroke-width=".3985" stroke="#f93" stroke-miterlimit="10"/></g></g><use xlink:href="#x" x="75.342" y="181.149"/><use xlink:href="#y" x="82.676" y="181.149"/><use xlink:href="#z" x="87.103" y="181.149"/><use xlink:href="#A" x="90.978" y="181.149"/><use xlink:href="#B" x="95.99" y="182.643"/><use xlink:href="#C" x="100.46" y="181.149"/><use xlink:href="#D" x="212.777" y="171.543"/><use xlink:href="#E" x="216.375" y="171.543"/><use xlink:href="#z" x="224.676" y="171.543"/><use xlink:href="#A" x="228.551" y="171.543"/><use xlink:href="#B" x="233.564" y="173.038"/><use xlink:href="#C" x="238.033" y="171.543"/><use xlink:href="#F" x="10.792" y="111.902"/><use xlink:href="#G" x="10.792" y="107.232"/><use xlink:href="#H" x="10.792" y="103.357"/><use xlink:href="#I" x="12.286" y="98.345"/><use xlink:href="#J" x="10.792" y="93.875"/></svg>