<svg xmlns="http://www.w3.org/2000/svg" xmlns:xlink="http://www.w3.org/1999/xlink" width="324.449" height="248.811" viewBox="0 0 243.337 186.608"><defs><symbol overflow="visible" id="a"><path d="M6.563-2.297c.171 0 .359 0 .359-.203 0-.188-.188-.188-.36-.188h-5.39c-.172 0-.344 0-.344.188 0 .203.172.203.344.203zm0 0"/></symbol><symbol overflow="visible" id="x"><path d="M5.719-6.984c-.094-.141-.094-.157-.235-.157-.687 0-1.906.282-2.421 1.125-.157-.28-.641-1.015-1.391-1.015-.688 0-1.125.625-1.125 1.203 0 .375.234.625.515.906.547.563.547.719.547 1.094 0 .594-.046 1.187-.484 1.187-.266 0-.313-.375-.328-.546 0-.079-.016-.157-.125-.157-.125 0-.125.11-.125.14 0 .188.094.782.578.782.813 0 .813-1.281.813-1.5 0-.312-.032-.687-.704-1.312-.28-.25-.39-.391-.39-.625 0-.422.297-.954.812-.954.516 0 .922.782.922 1.954v2.937c0 .094 0 1.922-.656 1.922-.36 0-.734-.313-.938-.938.016 0 .22-.062.22-.156 0-.062-.079-.11-.11-.11a1.01 1.01 0 0 0-.203.063C.875-1.203.828-1.312.75-1.312c-.047 0-.125.093-.125.14 0 .031.016.094.047.125-.063.016-.219.063-.219.156 0 .047.063.11.11.11A.88.88 0 0 0 .75-.844C1.063.016 1.578.22 1.922.22c.703 0 1.5-.906 1.5-2.938v-.719h1.14l.125 2.188c0 .063-.03.14-.03.328 0 .594.484 1.14 1.155 1.14.125 0 .157 0 .344-.14l.719-.562C6.985-.578 7-.594 7-.625c0-.078-.156-.14-.188-.14-.046 0-.406.28-.859.656A.946.946 0 0 1 5.5-.922c0-.187.031-.219.031-.328 0-.297-.047-.813-.062-1.125-.016-.203-.063-1-.063-1.14.563-.172 1.64-.813 1.657-.829a.106.106 0 0 0 .062-.093c0-.016-.063-.141-.078-.141zM6.28-4.25c-.922.5-1.125.5-1.422.5H3.422v-.484c0-.688-.094-1.079-.203-1.391.344-.953 1.64-1.14 1.64-1.14.032 0 .079.109.094.109zm0 0"/></symbol><symbol overflow="visible" id="C"><path d="M2.86-3.344c0-.078-.063-.11-.094-.11C1.25-3.546.859-4.546.859-5.14c0-.984.907-1.671 1.813-1.671.562 0 .89.359 1.312.906.454.562.938 1.172 1.782 1.172.703 0 1.14-.313 1.14-.704 0-.125-.093-.125-.156-.125-.125 0-.14.047-.156.141-.078.469-.782.469-.797.469-.14 0-.203-.031-.36-.328-.89-1.64-2.312-1.75-2.718-1.75-1.219 0-2.172.843-2.172 1.89 0 1.235 1.234 1.907 2.14 1.907.063 0 .172 0 .172-.11zM.812-1.828c-.172 0-.266 0-.266.11 0 .03 0 .109.094.109.343.03.671.046 1.437.75C3.141.109 3.36.109 4.156.109c.516 0 .938 0 1.422-.343.36-.235.64-.641.64-1.141 0-.36-.14-.563-.5-.969-.39-.437-.421-.61-.421-.844 0-.421.11-.89.469-.89.015 0 .75 0 .828.703.015.063.031.125.156.125s.156-.047.156-.14c0-.422-.453-.907-1.156-.907-.719 0-1.297.516-1.297 1.14 0 .407.234.657.531 1 .375.407.407.579.407.782 0 .922-1.032 1.25-1.22 1.25-.062 0-.327-.078-.655-.297-.172-.14-.454-.39-.5-.422-.72-.687-1.11-.984-1.797-.984zm0 0"/></symbol><symbol overflow="visible" id="b"><path d="M2.938-6.375c0-.25 0-.266-.235-.266C2.078-6 1.203-6 .891-6v.313c.203 0 .78 0 1.296-.266v5.172c0 .36-.03.469-.921.469H.953V0c.344-.031 1.203-.031 1.61-.031.39 0 1.265 0 1.609.031v-.313h-.313c-.906 0-.921-.109-.921-.468zm0 0"/></symbol><symbol overflow="visible" id="c"><path d="M4.578-3.188c0-.796-.047-1.593-.39-2.328C3.733-6.484 2.905-6.64 2.5-6.64c-.61 0-1.328.266-1.75 1.188-.313.687-.36 1.469-.36 2.266 0 .75.032 1.64.454 2.406a1.83 1.83 0 0 0 1.64 1c.532 0 1.297-.203 1.735-1.157.312-.687.36-1.468.36-2.25zM2.484 0c-.39 0-.984-.25-1.156-1.203-.11-.594-.11-1.516-.11-2.11 0-.64 0-1.296.079-1.828.187-1.187.937-1.28 1.187-1.28.329 0 .985.187 1.172 1.171.11.563.11 1.313.11 1.938 0 .75 0 1.421-.11 2.062C3.5-.297 2.937 0 2.484 0zm0 0"/></symbol><symbol overflow="visible" id="y"><path d="M3.297 2.39c0-.03 0-.046-.172-.218C1.891.922 1.562-.968 1.562-2.5c0-1.734.375-3.469 1.61-4.703.125-.125.125-.14.125-.172 0-.078-.031-.11-.094-.11-.11 0-1 .688-1.594 1.954C1.11-4.438.984-3.328.984-2.5c0 .781.11 1.984.657 3.125C2.25 1.844 3.094 2.5 3.203 2.5c.063 0 .094-.031.094-.11zm0 0"/></symbol><symbol overflow="visible" id="B"><path d="M2.875-2.5c0-.766-.11-1.969-.656-3.11C1.625-6.827.766-7.483.672-7.483a.107.107 0 0 0-.11.109c0 .031 0 .047.188.234.984.985 1.547 2.563 1.547 4.641 0 1.719-.36 3.469-1.594 4.719-.14.125-.14.14-.14.172 0 .062.046.109.109.109.094 0 1-.688 1.578-1.953.516-1.094.625-2.203.625-3.047zm0 0"/></symbol><symbol overflow="visible" id="z"><path d="M.453 1.219c-.078.343-.11.406-.547.406-.11 0-.218 0-.218.188 0 .078.046.125.124.125.266 0 .563-.032.829-.032.343 0 .671.032 1 .032.046 0 .171 0 .171-.204 0-.109-.093-.109-.234-.109-.5 0-.5-.063-.5-.156 0-.125.422-1.75.484-2 .125.297.407.64.922.64 1.157 0 2.407-1.453 2.407-2.921 0-.938-.579-1.594-1.329-1.594-.5 0-.984.36-1.312.75-.094-.547-.531-.75-.89-.75-.47 0-.657.39-.735.562-.188.344-.313.938-.313.969 0 .11.094.11.11.11.11 0 .11-.016.172-.235.172-.703.375-1.188.734-1.188.172 0 .313.079.313.454 0 .234-.032.343-.079.515zm1.75-4.328c.063-.266.344-.547.516-.704.36-.296.64-.374.812-.374.39 0 .64.343.64.937 0 .594-.327 1.734-.515 2.11-.344.702-.812 1.03-1.187 1.03-.656 0-.781-.828-.781-.89 0-.016 0-.031.03-.156zm0 0"/></symbol><symbol overflow="visible" id="A"><path d="M3.594-2.219c0-.765-.094-1.328-.406-1.812-.22-.313-.657-.594-1.204-.594C.36-4.625.36-2.719.36-2.219c0 .5 0 2.36 1.625 2.36 1.61 0 1.61-1.86 1.61-2.36zM1.984-.063c-.328 0-.75-.187-.89-.75C1-1.219 1-1.796 1-2.313c0-.515 0-1.046.094-1.421.156-.547.593-.704.89-.704.375 0 .735.235.86.641.11.375.125.875.125 1.485 0 .515 0 1.03-.094 1.468-.14.64-.61.781-.89.781zm0 0"/></symbol><symbol overflow="visible" id="D"><path d="M-3.734-3.89c.015.265.234.468.453.468.14 0 .297-.094.297-.312 0-.22-.172-.454-.563-.454-.453 0-.86.422-.86 1.188 0 1.313 1.016 1.688 1.454 1.688.781 0 .922-.735.984-1.032.11-.515.219-1.031.766-1.031.25 0 1.094.219 1.094 1.422 0 .14 0 .906-.532 1.14a.552.552 0 0 0-.53-.64c-.22 0-.345.172-.345.375 0 .266.204.562.657.562.562 0 .968-.578.968-1.421 0-1.625-1.203-2.016-1.656-2.016a.97.97 0 0 0-.719.312c-.28.266-.343.563-.421 1-.079.36-.157.75-.61.75-.281 0-.89-.234-.89-1.109 0-.25.078-.75.453-.89zm0 0"/></symbol><symbol overflow="visible" id="F"><path d="M1.219-.453c.343.078.406.11.406.547 0 .11 0 .218.188.218.078 0 .125-.046.125-.124 0-.266-.032-.563-.032-.829 0-.343.032-.671.032-1 0-.046 0-.171-.204-.171-.109 0-.109.093-.109.234 0 .5-.063.5-.156.5-.125 0-1.75-.422-2-.484.297-.125.64-.407.64-.922 0-1.157-1.453-2.407-2.921-2.407-.938 0-1.594.579-1.594 1.329 0 .5.36.984.75 1.312-.547.094-.75.531-.75.89 0 .47.39.657.562.735.344.188.938.313.969.313.11 0 .11-.094.11-.11 0-.11-.016-.11-.235-.172-.703-.172-1.188-.375-1.188-.734 0-.172.079-.313.454-.313.234 0 .343.032.515.079zm-4.328-1.75c-.266-.063-.547-.344-.704-.516-.296-.36-.374-.64-.374-.812 0-.39.343-.64.937-.64.594 0 1.734.327 2.11.515.702.344 1.03.812 1.03 1.187 0 .656-.828.781-.89.781-.016 0-.031 0-.156-.03zm0 0"/></symbol><symbol overflow="visible" id="E"><path d="M2.39-3.297c-.03 0-.046 0-.218.172C.922-1.891-.968-1.562-2.5-1.562c-1.734 0-3.469-.375-4.703-1.61-.125-.125-.14-.125-.172-.125-.078 0-.11.031-.11.094 0 .11.688 1 1.954 1.594 1.093.5 2.203.625 3.031.625.781 0 1.984-.11 3.125-.657C1.844-2.25 2.5-3.094 2.5-3.203c0-.063-.031-.094-.11-.094zm0 0"/></symbol><symbol overflow="visible" id="H"><path d="M-2.5-2.875c-.766 0-1.969.11-3.11.656-1.218.594-1.874 1.453-1.874 1.547 0 .063.046.11.109.11.031 0 .047 0 .234-.188.985-.984 2.563-1.547 4.641-1.547 1.719 0 3.469.36 4.719 1.594.125.14.14.14.172.14.062 0 .109-.046.109-.109 0-.094-.688-1-1.953-1.578-1.094-.516-2.203-.625-3.047-.625zm0 0"/></symbol><symbol overflow="visible" id="G"><path d="M-2.219-3.594c-.765 0-1.328.094-1.812.406-.313.22-.594.657-.594 1.204C-4.625-.36-2.719-.36-2.219-.36c.5 0 2.36 0 2.36-1.625 0-1.61-1.86-1.61-2.36-1.61zm2.156 1.61c0 .328-.187.75-.75.89C-1.219-1-1.796-1-2.313-1c-.515 0-1.046 0-1.421-.094-.547-.156-.704-.593-.704-.89 0-.375.235-.735.641-.86.375-.11.875-.125 1.485-.125.515 0 1.03 0 1.468.094.64.14.781.61.781.89zm0 0"/></symbol><clipPath id="d"><path d="M68 83h98v36H68zm0 0"/></clipPath><clipPath id="e"><path d="M231.71 113.805V22.48L99.22.2 37.438 47.983v91.32L169.93 161.59zm0 0"/></clipPath><clipPath id="f"><path d="M62 78h110v47H62zm0 0"/></clipPath><clipPath id="g"><path d="M231.71 113.805V22.48L99.22.2 37.438 47.983v91.32L169.93 161.59zm0 0"/></clipPath><clipPath id="h"><path d="M103 118h98v36h-98zm0 0"/></clipPath><clipPath id="i"><path d="M231.71 113.805V22.48L99.22.2 37.438 47.983v91.32L169.93 161.59zm0 0"/></clipPath><clipPath id="j"><path d="M98 113h109v47H98zm0 0"/></clipPath><clipPath id="k"><path d="M231.71 113.805V22.48L99.22.2 37.438 47.983v91.32L169.93 161.59zm0 0"/></clipPath><clipPath id="l"><path d="M37 45h195v71H37zm0 0"/></clipPath><clipPath id="m"><path d="M231.71 113.805V22.48L99.22.2 37.438 47.983v91.32L169.93 161.59zm0 0"/></clipPath><clipPath id="n"><path d="M37 40h195v82H37zm0 0"/></clipPath><clipPath id="o"><path d="M231.71 113.805V22.48L99.22.2 37.438 47.983v91.32L169.93 161.59zm0 0"/></clipPath><clipPath id="p"><path d="M134 18h98v36h-98zm0 0"/></clipPath><clipPath id="q"><path d="M231.71 113.805V22.48L99.22.2 37.438 47.983v91.32L169.93 161.59zm0 0"/></clipPath><clipPath id="r"><path d="M128 13h104v47H128zm0 0"/></clipPath><clipPath id="s"><path d="M231.71 113.805V22.48L99.22.2 37.438 47.983v91.32L169.93 161.59zm0 0"/></clipPath><clipPath id="t"><path d="M37 31h98v36H37zm0 0"/></clipPath><clipPath id="u"><path d="M231.71 113.805V22.48L99.22.2 37.438 47.983v91.32L169.93 161.59zm0 0"/></clipPath><clipPath id="v"><path d="M37 26h104v47H37zm0 0"/></clipPath><clipPath id="w"><path d="M231.71 113.805V22.48L99.22.2 37.438 47.983v91.32L169.93 161.59zm0 0"/></clipPath></defs><path d="M37.438 139.305L169.93 161.59M99.219 91.52l132.492 22.285m-194.274 25.5L99.22 91.52m70.71 70.07l61.782-47.785" fill="none" stroke-width="0.3985" stroke="rgb(0%,0%,0%)" stroke-miterlimit="10"/><use xlink:href="#a" x="27.08" y="150.236" fill="rgb(0%,0%,0%)"/><use xlink:href="#b" x="34.829" y="150.236" fill="rgb(0%,0%,0%)"/><use xlink:href="#c" x="97.683" y="160.807" fill="rgb(0%,0%,0%)"/><use xlink:href="#b" x="163.928" y="171.949" fill="rgb(0%,0%,0%)"/><use xlink:href="#a" x="171.125" y="173.325" fill="rgb(0%,0%,0%)"/><use xlink:href="#b" x="178.874" y="173.325" fill="rgb(0%,0%,0%)"/><use xlink:href="#c" x="204.145" y="147.784" fill="rgb(0%,0%,0%)"/><use xlink:href="#b" x="235.035" y="123.892" fill="rgb(0%,0%,0%)"/><path d="M99.219.2L231.71 22.48M37.437 47.984L99.22.2" fill="none" stroke-width="0.3985" stroke="rgb(0%,0%,0%)" stroke-miterlimit="10"/><path d="M37.438 139.305v-91.32m61.78 43.535V.2" fill="none" stroke-width="0.3985" stroke="rgb(0%,0%,0%)" stroke-miterlimit="10"/><use xlink:href="#a" x="21.188" y="136.97" fill="rgb(0%,0%,0%)"/><use xlink:href="#b" x="28.937" y="136.97" fill="rgb(0%,0%,0%)"/><use xlink:href="#c" x="28.936" y="98.363" fill="rgb(0%,0%,0%)"/><use xlink:href="#b" x="28.936" y="60.313" fill="rgb(0%,0%,0%)"/><path d="M231.71 113.805V22.48" fill="none" stroke-width="0.3985" stroke="rgb(0%,0%,0%)" stroke-miterlimit="10"/><g clip-path="url(#d)"><g clip-path="url(#e)"><path d="M99.219 83.91l66.246 11.14-30.89 23.895-66.247-11.144zm0 0" fill="rgb(79.998779%,79.998779%,100%)"/></g></g><g clip-path="url(#f)"><g clip-path="url(#g)"><path d="M99.219 83.91l66.246 11.14-30.89 23.895-66.247-11.144zm0 0" fill="none" stroke-width="0.3985" stroke="rgb(79.998779%,79.998779%,100%)" stroke-miterlimit="10"/></g></g><g clip-path="url(#h)"><g clip-path="url(#i)"><path d="M200.82 130.086l-66.246-11.14-30.89 23.89 66.246 11.14zm0 0" fill="rgb(79.998779%,79.998779%,100%)"/></g></g><g clip-path="url(#j)"><g clip-path="url(#k)"><path d="M200.82 130.086l-66.246-11.14-30.89 23.89 66.246 11.14zm0 0" fill="none" stroke-width="0.3985" stroke="rgb(79.998779%,79.998779%,100%)" stroke-miterlimit="10"/></g></g><g clip-path="url(#l)"><g clip-path="url(#m)"><path d="M99.219 45.86L231.71 68.14l-61.781 47.786L37.437 93.645zm0 0" fill="rgb(50%,50%,50%)" fill-opacity="0.1"/></g></g><g clip-path="url(#n)"><g clip-path="url(#o)"><path d="M99.219 45.86L231.71 68.14l-61.781 47.786L37.437 93.645zm0 0" fill="none" stroke-width="0.3985" stroke="rgb(50%,50%,50%)" stroke-opacity="0.1" stroke-miterlimit="10"/></g></g><g clip-path="url(#p)"><g clip-path="url(#q)"><path d="M165.465 18.95l66.246 11.14-30.89 23.894-66.247-11.14zm0 0" fill="rgb(100%,59.999084%,19.999695%)"/></g></g><g clip-path="url(#r)"><g clip-path="url(#s)"><path d="M165.465 18.95l66.246 11.14-30.89 23.894-66.247-11.14zm0 0" fill="none" stroke-width="0.3985" stroke="rgb(100%,59.999084%,19.999695%)" stroke-miterlimit="10"/></g></g><g clip-path="url(#t)"><g clip-path="url(#u)"><path d="M134.574 42.844L68.328 31.699l-30.89 23.895 66.246 11.14zm0 0" fill="rgb(100%,59.999084%,19.999695%)"/></g></g><g clip-path="url(#v)"><g clip-path="url(#w)"><path d="M134.574 42.844L68.328 31.699l-30.89 23.895 66.246 11.14zm0 0" fill="none" stroke-width="0.3985" stroke="rgb(100%,59.999084%,19.999695%)" stroke-miterlimit="10"/></g></g><use xlink:href="#x" x="77.799" y="180.797" fill="rgb(0%,0%,0%)"/><use xlink:href="#y" x="84.994" y="180.797" fill="rgb(0%,0%,0%)"/><use xlink:href="#z" x="88.869" y="180.797" fill="rgb(0%,0%,0%)"/><use xlink:href="#A" x="93.881" y="182.291" fill="rgb(0%,0%,0%)"/><use xlink:href="#B" x="98.351" y="180.797" fill="rgb(0%,0%,0%)"/><use xlink:href="#C" x="214.199" y="170.446" fill="rgb(0%,0%,0%)"/><use xlink:href="#y" x="221.394" y="170.446" fill="rgb(0%,0%,0%)"/><use xlink:href="#z" x="225.269" y="170.446" fill="rgb(0%,0%,0%)"/><use xlink:href="#A" x="230.281" y="171.941" fill="rgb(0%,0%,0%)"/><use xlink:href="#B" x="234.75" y="170.446" fill="rgb(0%,0%,0%)"/><use xlink:href="#D" x="10.792" y="111.905" fill="rgb(0%,0%,0%)"/><use xlink:href="#E" x="10.792" y="107.235" fill="rgb(0%,0%,0%)"/><use xlink:href="#F" x="10.792" y="103.36" fill="rgb(0%,0%,0%)"/><use xlink:href="#G" x="12.286" y="98.348" fill="rgb(0%,0%,0%)"/><use xlink:href="#H" x="10.792" y="93.878" fill="rgb(0%,0%,0%)"/></svg>