<svg xmlns="http://www.w3.org/2000/svg" xmlns:xlink="http://www.w3.org/1999/xlink" width="983.933" height="179.997" viewBox="0 0 737.95 134.998"><defs><symbol overflow="visible" id="a"><path d="M4.578-3.188c0-.796-.047-1.593-.39-2.328C3.733-6.484 2.905-6.64 2.5-6.64c-.61 0-1.328.266-1.75 1.188-.313.687-.36 1.469-.36 2.266 0 .75.032 1.64.454 2.406a1.83 1.83 0 0 0 1.64 1c.532 0 1.297-.203 1.735-1.157.312-.687.36-1.468.36-2.25zM2.484 0c-.39 0-.984-.25-1.156-1.203-.11-.594-.11-1.516-.11-2.11 0-.64 0-1.296.079-1.828.187-1.187.937-1.28 1.187-1.28.329 0 .985.187 1.172 1.171.11.563.11 1.313.11 1.938 0 .75 0 1.421-.11 2.062C3.5-.297 2.937 0 2.484 0zm0 0"/></symbol><symbol overflow="visible" id="d"><path d="M2.75-1.86v-.577H.11v.578zm0 0"/></symbol><symbol overflow="visible" id="e"><path d="M1.172-2.172c0-1.625.812-2.047 1.344-2.047.093 0 .718.016 1.062.375-.406.031-.469.328-.469.453 0 .266.188.454.454.454.265 0 .468-.157.468-.47 0-.671-.765-1.062-1.531-1.062C1.25-4.469.344-3.39.344-2.156c0 1.281.984 2.265 2.14 2.265 1.329 0 1.657-1.203 1.657-1.296 0-.094-.11-.094-.141-.094-.078 0-.11.031-.125.093C3.594-.265 2.937-.14 2.578-.14c-.531 0-1.406-.421-1.406-2.03zm0 0"/></symbol><symbol overflow="visible" id="f"><path d="M4.688-2.14c0-1.266-.985-2.329-2.188-2.329C1.25-4.469.281-3.375.281-2.14A2.22 2.22 0 0 0 2.484.11c1.204 0 2.204-.984 2.204-2.25zM2.5-.14c-.438 0-.875-.204-1.14-.672-.25-.438-.25-1.047-.25-1.407 0-.39 0-.922.234-1.36a1.347 1.347 0 0 1 1.14-.671c.438 0 .86.219 1.125.656.266.422.266 1 .266 1.375 0 .36 0 .906-.219 1.344-.234.453-.672.734-1.156.734zm0 0"/></symbol><symbol overflow="visible" id="g"><path d="M1.094-3.422V-.75c0 .438-.11.438-.782.438V0c.36-.016.86-.031 1.141-.031.25 0 .766.015 1.11.031v-.313c-.672 0-.782 0-.782-.437v-1.844c0-1.031.719-1.594 1.344-1.594.64 0 .75.532.75 1.11V-.75c0 .438-.11.438-.781.438V0c.344-.016.86-.031 1.125-.031.25 0 .781.015 1.11.031v-.313c-.516 0-.766 0-.766-.296v-1.907c0-.859 0-1.156-.313-1.515-.14-.172-.469-.375-1.047-.375-.734 0-1.203.422-1.484 1.047v-1.047l-1.407.11v.312c.704 0 .782.062.782.562zm0 0"/></symbol><symbol overflow="visible" id="h"><path d="M1.719-3.984h1.437v-.313H1.72v-1.828h-.25c0 .813-.297 1.875-1.282 1.922v.219h.844v2.75c0 1.218.938 1.343 1.297 1.343.703 0 .985-.703.985-1.343v-.563h-.25v.547c0 .734-.297 1.11-.672 1.11-.672 0-.672-.907-.672-1.079zm0 0"/></symbol><symbol overflow="visible" id="i"><path d="M3.89-.781v.89L5.329 0v-.313c-.687 0-.766-.062-.766-.562v-3.531l-1.468.11v.312c.687 0 .781.062.781.562v1.766c0 .875-.484 1.547-1.219 1.547-.828 0-.875-.47-.875-.985v-3.312l-1.468.11v.312c.78 0 .78.03.78.906v1.5c0 .781 0 1.687 1.516 1.687.563 0 1-.28 1.282-.89zm0 0"/></symbol><symbol overflow="visible" id="j"><path d="M1.672-3.313v-1.093l-1.39.11v.312c.702 0 .78.062.78.562V-.75c0 .438-.109.438-.78.438V0c.39-.016.859-.031 1.14-.031.39 0 .86 0 1.266.031v-.313h-.22c-.734 0-.75-.109-.75-.468v-1.531c0-.985.423-1.876 1.173-1.876.062 0 .093 0 .109.016-.031 0-.234.125-.234.39 0 .266.218.423.437.423a.421.421 0 0 0 .422-.438c0-.312-.313-.61-.734-.61-.735 0-1.094.673-1.22 1.095zm0 0"/></symbol><symbol overflow="visible" id="b"><path d="M4.61-3.375c.046-.219.14-.594.14-.656 0-.172-.14-.266-.281-.266a.414.414 0 0 0-.375.281c-.032.063-.5 1.97-.563 2.235a2.336 2.336 0 0 0-.094.656c0 .11 0 .125.016.172-.234.531-.531.844-.922.844-.797 0-.797-.735-.797-.907 0-.312.047-.703.516-1.937.11-.297.172-.438.172-.64a.797.797 0 0 0-.813-.813C.656-4.406.297-2.953.297-2.875c0 .11.094.11.11.11.109 0 .109-.032.156-.188.28-.922.656-1.235 1.015-1.235.094 0 .25.016.25.329 0 .25-.11.53-.187.703-.438 1.172-.547 1.625-.547 2.015C1.094-.234 1.75.11 2.5.11c.172 0 .64 0 1.031-.703.266.64.953.703 1.25.703.75 0 1.188-.625 1.453-1.218.329-.782.657-2.125.657-2.594 0-.547-.266-.703-.438-.703-.25 0-.5.265-.5.484 0 .125.063.188.14.266.11.11.36.36.36.844 0 .343-.281 1.312-.547 1.828-.25.53-.61.875-1.093.875-.47 0-.735-.297-.735-.875 0-.266.063-.579.11-.72zm0 0"/></symbol><symbol overflow="visible" id="c"><path d="M1.328-.828c.531-.578.828-.828 1.188-1.14 0 0 .609-.532.968-.891.954-.922 1.172-1.407 1.172-1.454 0-.093-.093-.093-.11-.093-.077 0-.093.015-.155.11-.297.484-.5.64-.735.64-.25 0-.36-.156-.515-.328-.188-.22-.36-.422-.688-.422-.75 0-1.203.922-1.203 1.14 0 .047.031.11.11.11.093 0 .109-.047.14-.11.188-.468.766-.468.844-.468.203 0 .39.062.625.14.406.156.515.156.765.156-.359.422-1.187 1.141-1.375 1.297l-.906.844C.781-.625.422-.063.422.016c0 .093.11.093.125.093C.625.11.64.094.703-.016c.235-.359.531-.625.86-.625.218 0 .328.094.578.375.156.22.343.375.625.375 1 0 1.578-1.265 1.578-1.53 0-.048-.047-.11-.125-.11-.094 0-.11.062-.14.14-.235.641-.876.829-1.204.829-.188 0-.375-.063-.578-.125-.344-.125-.5-.172-.703-.172-.016 0-.172 0-.266.03zm0 0"/></symbol><symbol overflow="visible" id="o"><path d="M13.61-4.75c.359 0 .718 0 .718-.422 0-.406-.36-.406-.719-.406H2.438c-.344 0-.72 0-.72.406 0 .422.376.422.72.422zm0 0"/></symbol><symbol overflow="visible" id="p"><path d="M17.234-4.75c-1.14.86-1.703 1.719-1.859 1.984-.938 1.422-1.094 2.72-1.094 2.75 0 .25.235.25.406.25.344 0 .376-.047.454-.421.468-2.016 1.687-3.766 4.03-4.704.25-.093.313-.125.313-.28 0-.141-.125-.204-.172-.22-.906-.359-3.406-1.39-4.187-4.859-.063-.25-.094-.313-.438-.313-.171 0-.406 0-.406.25 0 .047.172 1.344 1.047 2.735a7.976 7.976 0 0 0 1.906 2H1.875c-.36 0-.734 0-.734.406 0 .422.375.422.734.422zm0 0"/></symbol><symbol overflow="visible" id="q"><path d="M13.281-6.625c.313 0 .625 0 .625-.36 0-.374-.36-.374-.703-.374H1.656c-.36 0-.703 0-.703.375 0 .359.313.359.61.359zm-.078 3.672c.344 0 .703 0 .703-.375 0-.344-.312-.344-.625-.344H1.562c-.296 0-.609 0-.609.344 0 .375.344.375.703.375zm0 0"/></symbol><clipPath id="k"><path d="M329 1h137v133.996H329zm0 0"/></clipPath><clipPath id="l"><path d="M499 1h137v133.996H499zm0 0"/></clipPath><clipPath id="m"><path d="M703 12h34.95v35H703zm0 0"/></clipPath><clipPath id="n"><path d="M698 6h39.95v47H698zm0 0"/></clipPath></defs><path d="M113.586 69.86c0-31.31-25.383-56.692-56.695-56.692C25.582 13.168.199 38.551.199 69.859c0 31.313 25.383 56.696 56.692 56.696 31.312 0 56.695-25.383 56.695-56.696zm0 0" fill="rgb(89.99939%,89.99939%,89.99939%)" stroke-width="0.3985" stroke="rgb(0%,0%,0%)" stroke-miterlimit="10"/><path d="M84.355 23.613c.348-1.097-.734-3.562-1.152-3.988.59.09 3.219-.48 3.906-1.406" fill="none" stroke-width="1.2751817434000001" stroke-linecap="round" stroke-linejoin="round" stroke="rgb(0%,0%,0%)" stroke-miterlimit="10"/><path d="M58.883 69.86a1.993 1.993 0 1 0-1.992 1.995 1.994 1.994 0 0 0 1.992-1.996zm40.23-40.227a1.99 1.99 0 0 0-1.992-1.992 1.993 1.993 0 1 0 1.992 1.992zm0 0" fill="rgb(0%,0%,0%)" stroke-width="0.3985" stroke="rgb(0%,0%,0%)" stroke-miterlimit="10"/><use xlink:href="#a" x="60.412" y="66.341" fill="rgb(0%,0%,0%)"/><use xlink:href="#b" x="100.641" y="31.776" fill="rgb(0%,0%,0%)"/><use xlink:href="#c" x="36.216" y="9.449" fill="rgb(0%,0%,0%)"/><g fill="rgb(0%,0%,0%)"><use xlink:href="#d" x="41.287" y="9.449"/><use xlink:href="#e" x="44.608" y="9.449"/><use xlink:href="#f" x="49.035" y="9.449"/><use xlink:href="#g" x="54.016" y="9.449"/></g><g fill="rgb(0%,0%,0%)"><use xlink:href="#h" x="59.272" y="9.449"/><use xlink:href="#f" x="63.147" y="9.449"/><use xlink:href="#i" x="68.128" y="9.449"/><use xlink:href="#j" x="73.663" y="9.449"/></g><path d="M32.695 6.383c-8.004 0-15.34 10.078-11.691 16.398" fill="none" stroke-width="0.79701" stroke="rgb(0%,0%,0%)" stroke-miterlimit="10"/><path d="M22.02 20.398c-.606.5-.903 2.317-.82 2.72-.31-.274-2.032-.923-2.766-.65" fill="none" stroke-width=".6375872479999999" stroke-linecap="round" stroke-linejoin="round" stroke="rgb(0%,0%,0%)" stroke-miterlimit="10"/><path d="M283.668 69.86c0-31.31-25.383-56.692-56.695-56.692-31.313 0-56.696 25.383-56.696 56.691 0 31.313 25.383 56.696 56.696 56.696 31.312 0 56.695-25.383 56.695-56.696zm0 0" fill="rgb(89.99939%,89.99939%,89.99939%)" stroke-width="0.3985" stroke="rgb(0%,0%,0%)" stroke-miterlimit="10"/><path d="M254.434 23.613c.347-1.097-.73-3.562-1.153-3.988.594.09 3.223-.48 3.906-1.406" fill="none" stroke-width="1.2751817434000001" stroke-linecap="round" stroke-linejoin="round" stroke="rgb(0%,0%,0%)" stroke-miterlimit="10"/><path d="M228.965 69.86a1.993 1.993 0 1 0-1.992 1.995 1.994 1.994 0 0 0 1.992-1.996zm40.23-40.227a1.99 1.99 0 0 0-1.992-1.992 1.993 1.993 0 1 0 1.992 1.992zm0 0" fill="rgb(0%,0%,0%)" stroke-width="0.3985" stroke="rgb(0%,0%,0%)" stroke-miterlimit="10"/><use xlink:href="#a" x="230.491" y="66.341" fill="rgb(0%,0%,0%)"/><use xlink:href="#b" x="270.719" y="31.777" fill="rgb(0%,0%,0%)"/><use xlink:href="#c" x="206.295" y="9.449" fill="rgb(0%,0%,0%)"/><g fill="rgb(0%,0%,0%)"><use xlink:href="#d" x="211.366" y="9.449"/><use xlink:href="#e" x="214.687" y="9.449"/><use xlink:href="#f" x="219.114" y="9.449"/><use xlink:href="#g" x="224.095" y="9.449"/></g><g fill="rgb(0%,0%,0%)"><use xlink:href="#h" x="229.351" y="9.449"/><use xlink:href="#f" x="233.226" y="9.449"/><use xlink:href="#i" x="238.207" y="9.449"/><use xlink:href="#j" x="243.742" y="9.449"/></g><path d="M202.777 6.383c-8.004 0-15.34 10.078-11.691 16.398" fill="none" stroke-width="0.79701" stroke="rgb(0%,0%,0%)" stroke-miterlimit="10"/><path d="M192.102 20.398c-.61.5-.907 2.317-.825 2.72-.304-.274-2.027-.923-2.765-.65" fill="none" stroke-width=".6375872479999999" stroke-linecap="round" stroke-linejoin="round" stroke="rgb(0%,0%,0%)" stroke-miterlimit="10"/><path d="M453.746 69.86c0-31.31-25.379-56.692-56.691-56.692-31.313 0-56.696 25.383-56.696 56.691 0 31.313 25.383 56.696 56.696 56.696 31.312 0 56.691-25.383 56.691-56.696zm0 0" fill="rgb(89.99939%,89.99939%,89.99939%)"/><path d="M454.293 29.633c0-9.395-7.617-17.008-17.008-17.008-9.394 0-17.012 7.613-17.012 17.008 0 9.39 7.618 17.008 17.012 17.008 9.39 0 17.008-7.618 17.008-17.008zm0 0" fill="rgb(89.99939%,89.99939%,89.99939%)"/><path d="M448.309 20.367c.515-1.031-.164-3.633-.512-4.12.57.179 3.258.03 4.078-.778" fill="none" stroke-width="1.2751944956" stroke-linecap="round" stroke-linejoin="round" stroke="rgb(0%,0%,0%)" stroke-miterlimit="10"/><path d="M399.047 69.86a1.993 1.993 0 1 0-1.992 1.995 1.994 1.994 0 0 0 1.992-1.996zm40.23-40.227a1.994 1.994 0 1 0-3.988 0c0 1.097.895 1.992 1.996 1.992a1.996 1.996 0 0 0 1.992-1.992zm0 0" fill="rgb(0%,0%,0%)" stroke-width="0.3985" stroke="rgb(0%,0%,0%)" stroke-miterlimit="10"/><use xlink:href="#a" x="400.569" y="66.341" fill="rgb(0%,0%,0%)"/><use xlink:href="#b" x="440.798" y="31.777" fill="rgb(0%,0%,0%)"/><g clip-path="url(#k)"><path d="M447.234 43.457c7.625-5.488 9.356-16.113 3.868-23.738a17.015 17.015 0 0 0-15.504-6.989 17.009 17.009 0 0 0-12.098 6.985l-.004-.016c-27.7-14.597-61.988-3.98-76.586 23.719-14.598 27.695-3.98 61.984 23.715 76.582 27.7 14.602 61.988 3.984 76.586-23.715a56.694 56.694 0 0 0 .02-52.832" fill="none" stroke-width="0.79701" stroke="rgb(0%,0%,0%)" stroke-miterlimit="10"/></g><path d="M623.828 69.86c0-31.31-25.383-56.692-56.691-56.692-31.313 0-56.696 25.383-56.696 56.691 0 31.313 25.383 56.696 56.696 56.696 31.308 0 56.691-25.383 56.691-56.696zm0 0" fill="rgb(89.99939%,89.99939%,89.99939%)"/><path d="M624.371 29.633c0-9.395-7.613-17.008-17.008-17.008-9.39 0-17.008 7.613-17.008 17.008 0 9.39 7.618 17.008 17.008 17.008 9.395 0 17.008-7.618 17.008-17.008zm0 0" fill="rgb(100%,100%,100%)"/><path d="M569.129 69.86a1.996 1.996 0 0 0-1.992-1.993 1.996 1.996 0 0 0-1.996 1.992c0 1.102.894 1.996 1.996 1.996a1.996 1.996 0 0 0 1.992-1.996zm40.226-40.227a1.993 1.993 0 1 0-3.983.002 1.993 1.993 0 0 0 3.983-.002zm0 0" fill="rgb(0%,0%,0%)" stroke-width="0.3985" stroke="rgb(0%,0%,0%)" stroke-miterlimit="10"/><use xlink:href="#a" x="570.648" y="66.341" fill="rgb(0%,0%,0%)"/><use xlink:href="#b" x="610.877" y="31.777" fill="rgb(0%,0%,0%)"/><g clip-path="url(#l)"><path d="M617.316 43.457c-7.625 5.488-18.25 3.758-23.738-3.867a17.002 17.002 0 0 1 .004-19.875l-.008-.016c-27.695-14.597-61.984-3.98-76.582 23.719-14.601 27.695-3.98 61.984 23.715 76.582 27.7 14.602 61.988 3.984 76.586-23.715a56.705 56.705 0 0 0 .02-52.832" fill="none" stroke-width="0.79701" stroke="rgb(0%,0%,0%)" stroke-miterlimit="10"/></g><path d="M592.29 43.285c.858-.765 1.19-3.437 1.046-4.02.465.38 3.016 1.231 4.078.786" fill="none" stroke-width="1.2751689912" stroke-linecap="round" stroke-linejoin="round" stroke="rgb(0%,0%,0%)" stroke-miterlimit="10"/><g clip-path="url(#m)"><path d="M737.758 29.633c0-9.395-7.613-17.008-17.008-17.008-9.39 0-17.008 7.613-17.008 17.008 0 9.39 7.617 17.008 17.008 17.008 9.395 0 17.008-7.618 17.008-17.008zm0 0" fill="rgb(89.99939%,89.99939%,89.99939%)"/></g><g clip-path="url(#n)"><path d="M737.758 29.633c0-9.395-7.613-17.008-17.008-17.008-9.39 0-17.008 7.613-17.008 17.008 0 9.39 7.617 17.008 17.008 17.008 9.395 0 17.008-7.618 17.008-17.008zm0 0" fill="none" stroke-width="0.3985" stroke="rgb(0%,0%,0%)" stroke-miterlimit="10"/></g><path d="M731.777 20.367c.516-1.031-.164-3.633-.511-4.12.57.179 3.257.03 4.078-.778" fill="none" stroke-width="1.2751944956" stroke-linecap="round" stroke-linejoin="round" stroke="rgb(0%,0%,0%)" stroke-miterlimit="10"/><path d="M682.516 69.86a1.993 1.993 0 0 0-3.984 0c0 1.1.89 1.995 1.991 1.995a1.996 1.996 0 0 0 1.993-1.996zm40.226-40.227a1.993 1.993 0 1 0-3.983.002 1.993 1.993 0 0 0 3.983-.002zm0 0" fill="rgb(0%,0%,0%)" stroke-width="0.3985" stroke="rgb(0%,0%,0%)" stroke-miterlimit="10"/><use xlink:href="#a" x="684.034" y="66.341" fill="rgb(0%,0%,0%)"/><use xlink:href="#b" x="724.263" y="31.777" fill="rgb(0%,0%,0%)"/><use xlink:href="#o" x="133.896" y="75.026" fill="rgb(0%,0%,0%)"/><use xlink:href="#p" x="301.679" y="73.651" fill="rgb(0%,0%,0%)"/><use xlink:href="#o" x="474.053" y="75.026" fill="rgb(0%,0%,0%)"/><use xlink:href="#q" x="644.731" y="73.534" fill="rgb(0%,0%,0%)"/></svg>