<svg height="236.505" viewBox="0 0 216.565 177.379" width="288.753" xmlns="http://www.w3.org/2000/svg" xmlns:xlink="http://www.w3.org/1999/xlink"><symbol id="a" overflow="visible"><path d="m4.578-3.188c0-.796-.047-1.593-.39-2.328-.455-.968-1.283-1.124-1.688-1.124-.61 0-1.328.266-1.75 1.188-.313.687-.36 1.469-.36 2.266 0 .75.032 1.64.454 2.406a1.83 1.83 0 0 0 1.64 1c.532 0 1.297-.203 1.735-1.157.312-.687.36-1.468.36-2.25zm-2.094 3.188c-.39 0-.984-.25-1.156-1.203-.11-.594-.11-1.516-.11-2.11 0-.64 0-1.296.079-1.828.187-1.187.937-1.28 1.187-1.28.329 0 .985.187 1.172 1.171.11.563.11 1.313.11 1.938 0 .75 0 1.421-.11 2.062-.156.953-.719 1.25-1.172 1.25zm0 0"/></symbol><symbol id="b" overflow="visible"><path d="m1.266-.766 1.062-1.03c1.547-1.376 2.14-1.907 2.14-2.907 0-1.14-.89-1.938-2.109-1.938a1.843 1.843 0 0 0 -1.859 1.813c0 .547.5.547.531.547.172 0 .516-.11.516-.532a.513.513 0 0 0 -.531-.515c-.079 0-.094 0-.125.016.218-.657.765-1.016 1.343-1.016.907 0 1.329.812 1.329 1.625 0 .797-.485 1.578-1.047 2.203l-1.907 2.125c-.109.11-.109.14-.109.375h3.703l.266-1.734h-.235c-.062.296-.124.734-.234.89-.063.078-.719.078-.938.078zm0 0"/></symbol><symbol id="c" overflow="visible"><path d="m2.938-1.64v.859c0 .36-.032.469-.766.469h-.203v.312c.406-.031.922-.031 1.343-.031.422 0 .938 0 1.36.031v-.313h-.219c-.734 0-.75-.109-.75-.468v-.86h.985v-.312h-.985v-4.531c0-.204 0-.266-.172-.266-.078 0-.11 0-.187.125l-3.064 4.672v.312zm.046-.313h-2.421l2.421-3.719zm0 0"/></symbol><symbol id="d" overflow="visible"><path d="m1.313-3.266v-.25c0-2.515 1.234-2.875 1.75-2.875.234 0 .656.063.874.407-.156 0-.546 0-.546.437 0 .313.234.469.453.469.156 0 .469-.094.469-.484 0-.594-.438-1.079-1.266-1.079-1.281.001-2.625 1.282-2.625 3.485 0 2.672 1.156 3.375 2.078 3.375 1.11 0 2.063-.938 2.063-2.25 0-1.266-.891-2.219-2-2.219-.672 0-1.047.5-1.25.984zm1.187 3.204c-.625 0-.922-.594-.984-.75-.188-.47-.188-1.266-.188-1.438 0-.781.328-1.781 1.219-1.781.172 0 .625 0 .937.625.172.36.172.875.172 1.36 0 .483 0 .983-.172 1.343-.296.594-.75.64-.984.64zm0 0"/></symbol><symbol id="e" overflow="visible"><path d="m1.625-4.563c-.453-.296-.5-.625-.5-.796 0-.61.656-1.032 1.36-1.032.718 0 1.359.516 1.359 1.235 0 .578-.39 1.047-.985 1.39zm1.453.954c.719-.375 1.203-.891 1.203-1.547 0-.922-.875-1.485-1.781-1.485-1 0-1.813.735-1.813 1.672 0 .172.016.625.438 1.094.11.11.484.36.734.531-.578.297-1.437.844-1.437 1.844 0 1.047 1.016 1.719 2.062 1.719 1.125 0 2.079-.828 2.079-1.89 0-.36-.11-.813-.5-1.235-.188-.203-.344-.297-.985-.703zm-1 .421 1.235.782c.28.187.75.484.75 1.094 0 .734-.75 1.25-1.563 1.25-.86-.001-1.578-.61-1.578-1.438 0-.578.312-1.219 1.156-1.688zm0 0"/></symbol><symbol id="f" overflow="visible"><path d="m2.938-6.375c0-.25 0-.266-.235-.266-.625.641-1.5.641-1.812.641v.313c.203 0 .78 0 1.296-.266v5.172c0 .36-.03.469-.921.469h-.313v.312c.344-.031 1.203-.031 1.61-.031.39 0 1.265 0 1.609.031v-.313h-.313c-.906 0-.921-.109-.921-.468zm0 0"/></symbol><symbol id="g" overflow="visible"><path d="m4.469-2c0-1.188-.813-2.188-1.89-2.188-.47 0-.907.157-1.267.516v-1.953c.204.063.532.125.844.125 1.235 0 1.938-.906 1.938-1.031 0-.063-.032-.11-.11-.11 0 0-.03 0-.078.032a3.22 3.22 0 0 1 -1.36.296 3.4 3.4 0 0 1 -1.327-.28c-.078-.032-.094-.032-.11-.032-.109 0-.109.078-.109.234v2.954c0 .171 0 .25.14.25.079 0 .094-.016.141-.079.11-.156.469-.703 1.282-.703.515 0 .765.453.843.64.156.376.188.75.188 1.25 0 .36 0 .954-.25 1.376-.235.39-.61.64-1.063.64-.719 0-1.297-.53-1.469-1.109.032 0 .063.016.172.016.329 0 .5-.25.5-.485 0-.25-.171-.5-.5-.5-.14 0-.484.079-.484.532 0 .859.688 1.828 1.797 1.828 1.156 0 2.172-.953 2.172-2.219zm0 0"/></symbol><symbol id="h" overflow="visible"><path d="m1.906-.531a.534.534 0 0 0 -.515-.531.537.537 0 0 0 -.532.53.524.524 0 1 0 1.047 0zm0 0"/></symbol><symbol id="i" overflow="visible"><path d="m4.25-6.047c.078-.281.11-.344.234-.375.094-.016.422-.016.625-.016 1.016 0 1.454.032 1.454.813 0 .156-.032.547-.079.797 0 .047-.03.156-.03.187 0 .063.03.141.124.141.11 0 .125-.078.156-.234l.266-1.736c.016-.047.016-.14.016-.172 0-.109-.094-.109-.266-.109h-5.531c-.235 0-.25.016-.328.203l-.594 1.75c0 .016-.063.156-.063.188 0 .046.063.109.125.109.094 0 .11-.063.172-.219.531-1.547.797-1.718 2.266-1.718h.39c.282 0 .282.03.282.125a.775.775 0 0 1 -.047.203l-1.328 5.329c-.094.36-.125.469-1.188.469-.36 0-.422 0-.422.187 0 .125.11.125.172.125.266 0 .547-.016.813-.016.281 0 .578-.015.86-.015.28 0 .546.015.827.015s.578.016.86.016c.093 0 .218 0 .218-.203 0-.11-.078-.11-.343-.11-.235 0-.375 0-.625-.015-.297-.031-.375-.063-.375-.219 0-.015 0-.062.046-.203zm0 0"/></symbol><symbol id="j" overflow="visible"><path d="m2.672 4.156-1.11-1.936c-.046-.063-.046-.078-.093-.078a.557.557 0 0 0 -.203.093l-.485.282a.106.106 0 0 0 -.062.093c0 .032.031.079.078.079.031 0 .14-.063.203-.094l.203-.125 1.234 2.156c.047.078.047.078.126.078.093 0 .124-.031.156-.094l2.844-4.64c.046-.063.046-.078.046-.11a.14.14 0 0 0 -.14-.14c-.078 0-.11.062-.14.11zm0 0"/></symbol><symbol id="k" overflow="visible"><path d="m4.39-1.11c.079 0 .204 0 .204-.14s-.125-.14-.203-.14h-3.375c-.079 0-.22 0-.22.14s.141.14.22.14zm0 0"/></symbol><symbol id="l" overflow="visible"><path d="m1.64-1.656c.47 0 .766.297.766.781 0 .516-.312.781-.75.781-.062 0-.656 0-.906-.265.203-.032.266-.172.266-.297a.304.304 0 0 0 -.313-.314c-.156 0-.297.11-.297.328 0 .516.578.75 1.266.75.812 0 1.312-.5 1.312-.984 0-.406-.359-.75-.921-.875.593-.203.75-.578.75-.86 0-.406-.5-.703-1.126-.703-.625 0-1.109.25-1.109.704a.28.28 0 0 0 .281.296.284.284 0 0 0 .282-.296c0-.11-.063-.25-.235-.282.203-.218.656-.234.766-.234.36 0 .61.172.61.516 0 .296-.188.75-.704.78-.14 0-.156 0-.297.016-.047 0-.11 0-.11.079 0 .078.048.078.141.078zm0 0"/></symbol><symbol id="m" overflow="visible"><path d="m2.203-3.625s.016-.016.016-.047c0-.015-.016-.062-.094-.062-.094 0-1.375.796-1.375 2.484s1.281 2.5 1.375 2.5c.078 0 .094-.047.094-.078s-.031-.047-.047-.063c-.875-.703-1.047-1.718-1.047-2.359 0-1.219.563-2.016 1.078-2.375zm0 0"/></symbol><symbol id="n" overflow="visible"><path d="m1.984-3.172c0-.14-.015-.14-.187-.14-.344.312-.907.312-1 .312h-.078v.219h.078c.11 0 .437-.016.734-.14v2.5c0 .14 0 .202-.531.202h-.25v.219c.266-.016.719-.016 1-.016.297 0 .734 0 1.016.016v-.219h-.25c-.532 0-.532-.062-.532-.203zm0 0"/></symbol><symbol id="o" overflow="visible"><path d="m1.953-1.25c0-1.688-1.281-2.484-1.39-2.484-.079 0-.079.062-.079.062 0 .016 0 .031.032.063.75.593 1.046 1.468 1.046 2.359 0 .453-.078.922-.25 1.328-.233.563-.562.844-.796 1.047-.016 0-.032.031-.032.047s0 .078.079.078c.109 0 1.39-.797 1.39-2.5zm0 0"/></symbol><symbol id="p" overflow="visible"><path d="m2.938-.969h-.22c0 .094-.062.406-.14.453-.031.032-.453.032-.531.032h-.969c.328-.235.688-.516.984-.72.454-.312.876-.593.876-1.124 0-.64-.61-.985-1.313-.985-.672 0-1.172.376-1.172.876 0 .25.219.296.297.296a.283.283 0 0 0 .281-.296.27.27 0 0 0 -.281-.282c.14-.234.438-.375.766-.375.484 0 .89.281.89.766 0 .422-.297.75-.672 1.062l-1.218 1.032c-.047.047-.063.047-.063.078v.156h2.313zm0 0"/></symbol><symbol id="q" overflow="visible"><path d="m2.89-2.969c.047-.156.047-.172.25-.172h.532c.562 0 .64.157.64.47 0 .03 0 .124-.046.358v.047c0 .047.03.094.109.094.094 0 .094-.047.11-.14l.124-.891c.016-.047.016-.063.016-.078 0-.078-.078-.078-.172-.078h-3.483c-.14 0-.14 0-.188.093l-.328.922a.392.392 0 0 1 -.031.078c0 .032.031.094.11.094.077 0 .093-.015.124-.14.235-.594.375-.829 1.047-.829h.547c.031 0 .11 0 .156.016v.031l-.673 2.656c-.03.157-.046.22-.578.22h-.11c-.093 0-.109 0-.124.015a.177.177 0 0 0 -.047.125c0 .015.016.078.094.078.156 0 .312-.016.469-.016h.937c.156 0 .313.016.469.016.031 0 .125 0 .125-.14 0-.079-.078-.079-.156-.079h-.11c-.14 0-.265 0-.406-.031-.031 0-.063-.016-.063-.063 0-.03 0-.03.016-.109zm0 0"/></symbol><symbol id="r" overflow="visible"><path d="m2.563-1.922a.314.314 0 0 0 -.22.297c0 .125.095.203.22.203.109 0 .296-.094.296-.344 0-.375-.484-.437-.75-.437-.843 0-1.578.687-1.578 1.344 0 .437.328.921 1.078.921.094 0 .485 0 .829-.14.328-.125.53-.36.53-.406 0-.047-.062-.125-.109-.125-.015 0-.03.015-.109.093-.219.25-.64.407-1.14.407-.423 0-.626-.235-.626-.579 0-.515.344-1.343 1.125-1.343.047 0 .297 0 .454.11zm0 0"/></symbol><symbol id="s" overflow="visible"><path d="m3.016-3.484c.03-.079.03-.094.03-.11a.14.14 0 0 0 -.14-.14c-.078 0-.125.046-.156.125l-2.094 4.609c-.031.078-.031.094-.031.11 0 .077.063.14.14.14.079 0 .11-.063.141-.125zm0 0"/></symbol><symbol id="t" overflow="visible"><path d="m2.688-.438a2.93 2.93 0 0 0 -.079.313c0 .11.094.188.188.188a.29.29 0 0 0 .25-.172c0-.032.062-.266.094-.391.156-.672.156-.688.171-.703.063-.125.422-.828 1.032-.828.25 0 .343.125.343.36 0 .28-.203.796-.312 1.077a.433.433 0 0 0 -.047.203c0 .266.25.454.531.454.532 0 .813-.657.813-.782 0-.062-.078-.062-.11-.062-.078 0-.078.015-.109.11-.094.296-.328.562-.562.562-.125 0-.157-.079-.157-.188 0-.11.016-.156.063-.266.094-.203.312-.765.312-1.046 0-.375-.265-.594-.734-.594s-.781.281-.984.547c-.047-.5-.547-.547-.75-.547-.485 0-.766.297-.938.5-.016-.438-.484-.5-.61-.5-.5 0-.64.765-.64.765 0 .079.078.079.11.079.078 0 .093-.032.109-.094.078-.297.187-.578.406-.578.156 0 .203.156.203.265 0 .063-.062.25-.078.391a2.557 2.557 0 0 0 -.11.438l-.123.453a5.845 5.845 0 0 0 -.078.359c0 .11.093.188.187.188.063 0 .172-.047.234-.172 0-.032.063-.266.094-.391.016-.078.078-.297.094-.344.016-.11.047-.219.078-.328 0-.031.188-.39.438-.61.078-.062.28-.25.609-.25.25 0 .344.141.344.36 0 .11-.047.313-.094.453zm0 0"/></symbol><clipPath id="u"><path d="m212 159h4.566v5h-4.566zm0 0"/></clipPath><clipPath id="v"><path d="m21.895.395h188.105v161.398h-188.105zm0 0"/></clipPath><clipPath id="w"><path d="m21.895 35h194.273v126.793h-194.273zm0 0"/></clipPath><clipPath id="x"><path d="m21.895 112h188.105v49.793h-188.105zm0 0"/></clipPath><path d="m35.323-2.125v4.25m35.324-4.25v4.25m35.32-4.25v4.25m35.325-4.25v4.25m35.324-4.25v4.25m-178.742 26.695h4.253m-4.253 28.82h4.253m-4.253 28.821h4.253m-4.253 28.82h4.253m-4.253 28.825h4.253m-2.128-144.106h191.683" fill="none" stroke="#000" stroke-miterlimit="10" stroke-width=".79701" transform="matrix(1 0 0 -1 21.896 161.793)"/><g clip-path="url(#u)"><path d="m216.168 161.793-4.145-2.07 1.555 2.07-1.555 2.07"/></g><path d="m-.001 0v158.805" fill="none" stroke="#000" stroke-miterlimit="10" stroke-width=".79701" transform="matrix(1 0 0 -1 21.896 161.793)"/><path d="m21.895.398-2.07 4.145 2.07-1.555 2.074 1.555"/><use x="50.853" xlink:href="#a" y="174.058"/><use x="55.834" xlink:href="#h" y="174.058"/><use x="58.602" xlink:href="#b" y="174.058"/><use x="86.175" xlink:href="#a" y="174.058"/><use x="91.156" xlink:href="#h" y="174.058"/><use x="93.924" xlink:href="#c" y="174.058"/><use x="121.497" xlink:href="#a" y="174.058"/><use x="126.479" xlink:href="#h" y="174.058"/><use x="129.246" xlink:href="#d" y="174.058"/><use x="156.82" xlink:href="#a" y="174.058"/><use x="161.801" xlink:href="#h" y="174.058"/><use x="164.568" xlink:href="#e" y="174.058"/><use x="196.016" xlink:href="#f" y="174.058"/><use x="3.321" xlink:href="#a" y="136.183"/><use x="8.302" xlink:href="#h" y="136.183"/><use x="11.069" xlink:href="#g" y="136.183"/><use x="11.069" xlink:href="#f" y="107.362"/><use x="3.321" xlink:href="#f" y="78.542"/><use x="8.302" xlink:href="#h" y="78.542"/><use x="11.069" xlink:href="#g" y="78.542"/><use x="11.069" xlink:href="#b" y="49.722"/><use x="3.321" xlink:href="#b" y="20.901"/><use x="8.302" xlink:href="#h" y="20.901"/><use x="11.069" xlink:href="#g" y="20.901"/><g clip-path="url(#v)"><path d="m2.624 812.711s1.898-193.73 2.625-242.379c.73-48.648 1.898-84.191 2.628-108.238.727-24.043 1.895-49.828 2.625-65.059.727-15.23 1.895-33.887 2.625-44.71.727-10.829 1.895-25.071 2.625-33.31.727-8.234 1.895-19.503 2.625-26.062.727-6.562 1.895-15.824 2.625-21.226.727-5.403 1.895-13.149 2.625-17.704a698.291 698.291 0 0 1 2.625-15.109 592.645 592.645 0 0 1 2.625-13.11 517.404 517.404 0 0 1 2.625-11.546 450.907 450.907 0 0 1 2.625-10.274c.727-2.71 1.899-6.804 2.625-9.25a407.26 407.26 0 0 1 2.625-8.367c.73-2.222 1.899-5.617 2.625-7.652a359.1 359.1 0 0 1 2.625-7.035c.73-1.88 1.899-4.758 2.625-6.5a324.82 324.82 0 0 1 2.625-6.043c.73-1.625 1.899-4.13 2.625-5.649a319.47 319.47 0 0 1 2.625-5.293c.73-1.422 1.899-3.632 2.625-4.976a280.61 280.61 0 0 1 2.625-4.715 248.39 248.39 0 0 1 5.254-8.688 232.935 232.935 0 0 1 2.625-4.03 244.422 244.422 0 0 1 2.625-3.852 243.505 243.505 0 0 1 2.625-3.692 245.551 245.551 0 0 1 5.25-6.957 297.33 297.33 0 0 1 2.625-3.285 233.672 233.672 0 0 1 5.25-6.25 247.29 247.29 0 0 1 2.625-2.957c.727-.816 1.899-2.113 2.625-2.906a265.01 265.01 0 0 1 2.625-2.817 369.98 369.98 0 0 1 2.625-2.746 430.069 430.069 0 0 1 5.25-5.304c.73-.72 1.899-1.86 2.625-2.563.73-.707 1.899-1.82 2.625-2.512.73-.687 1.899-1.793 2.625-2.472.73-.684 1.899-1.766 2.625-2.438a704.565 704.565 0 0 1 5.25-4.785c.73-.652 1.899-1.687 2.625-2.336.73-.648 1.899-1.683 2.63-2.328.726-.64 1.894-1.676 2.624-2.316.727-.637 1.895-1.649 2.625-2.286a1576.28 1576.28 0 0 1 5.25-4.582c.727-.632 1.895-1.644 2.625-2.277.727-.637 1.895-1.656 2.625-2.297.727-.64 1.895-1.672 2.625-2.316.727-.649 1.899-1.696 2.625-2.348.73-.652 1.899-1.707 2.625-2.367a284.531 284.531 0 0 0 5.25-4.852 209.171 209.171 0 0 0 5.25-5.184c.73-.745 1.899-1.952 2.625-2.738.73-.78 1.899-2.078 2.625-2.914.73-.836 1.899-2.21 2.625-3.117.73-.902 1.899-2.39 2.625-3.406.73-1.016 1.899-2.703 2.625-3.914.73-1.207 1.899-3.11 2.625-4.8.73-1.696 2.625-7.403 2.625-7.403" fill="none" stroke="#00f" stroke-miterlimit="10" stroke-width=".79701" transform="matrix(1 0 0 -1 21.896 161.793)"/></g><g clip-path="url(#w)"><path d="m-.001 0s5.851.594 8.097.98c2.246.383 5.848 1.22 8.094 1.79s5.848 1.617 8.094 2.32a235.11 235.11 0 0 1 8.093 2.746c2.247.812 5.852 2.207 8.098 3.117 2.246.914 5.848 2.45 8.094 3.445 2.246 1 5.847 2.668 8.094 3.747a409.765 409.765 0 0 1 8.093 4.023 450.208 450.208 0 0 1 8.098 4.285 466.9 466.9 0 0 1 8.094 4.524 521.68 521.68 0 0 1 8.094 4.765 565.569 565.569 0 0 1 8.093 4.98 626.48 626.48 0 0 1 8.098 5.204 692.567 692.567 0 0 1 8.094 5.39 718.68 718.68 0 0 1 8.093 5.606 798.055 798.055 0 0 1 8.094 5.781 765.211 765.211 0 0 1 8.098 5.961 924.503 924.503 0 0 1 8.094 6.16c2.246 1.735 5.847 4.543 8.093 6.32a981.401 981.401 0 0 1 8.094 6.493c2.246 1.824 5.852 4.785 8.098 6.652a1130.81 1130.81 0 0 1 8.093 6.793c2.247 1.91 5.848 5.016 8.094 6.969 2.246 1.957 8.094 7.12 8.094 7.12" fill="none" stroke="#f00" stroke-miterlimit="10" stroke-width=".79701" transform="matrix(1 0 0 -1 21.896 161.793)"/></g><g clip-path="url(#x)"><path d="m-.001 0 2.625 1.473a434.993 434.993 0 0 0 15.754 8.36 545.357 545.357 0 0 0 5.25 2.598c.726.35 1.894.913 2.624 1.26.727.344 1.895.895 2.625 1.235.727.34 1.895.879 2.625 1.21.727.333 1.895.86 2.625 1.188.727.324 1.899.844 2.625 1.16a481.935 481.935 0 0 0 5.25 2.23c.73.306 1.899.798 2.625 1.095.73.296 1.899.754 2.625 1.039.73.285 1.899.746 2.625 1.027.73.277 1.899.723 2.625.996.73.27 1.899.7 2.625.965.73.262 1.899.68 2.625.937.73.254 1.899.657 2.625.907.73.246 1.899.64 2.63.879.726.238 1.894.605 2.624.836.727.23 1.895.601 2.625.824.727.222 1.895.574 2.625.785.727.21 1.895.535 2.625.738.727.203 1.895.531 2.625.727.727.191 1.895.484 2.625.668.727.183 1.895.468 2.625.64.727.176 1.895.45 2.625.614.727.164 1.895.414 2.625.566.727.156 1.895.395 2.625.535.727.145 1.899.364 2.625.492.727.133 1.899.332 2.625.45.73.12 1.899.3 2.625.41.73.105 1.899.273 2.625.37a208.448 208.448 0 0 0 5.25.59c.73.071 1.899.176 2.625.235.73.059 1.899.137 2.625.18.73.043 1.899.097 2.625.125a148.153 148.153 0 0 0 5.25.094c.73-.004 1.899-.02 2.625-.036.73-.02 1.899-.066 2.63-.101a167.9 167.9 0 0 0 2.624-.164 121.01 121.01 0 0 0 2.625-.227 123.037 123.037 0 0 0 5.25-.683c.727-.114 1.895-.309 2.625-.446a92.384 92.384 0 0 0 2.625-.55c.727-.16 1.895-.43 2.625-.622a82.493 82.493 0 0 0 5.25-1.582c.73-.25 1.899-.672 2.625-.957.73-.28 1.899-.765 2.625-1.093.73-.325 1.899-.883 2.625-1.258a64.445 64.445 0 0 0 2.625-1.442 54.3 54.3 0 0 0 2.625-1.625 50.884 50.884 0 0 0 2.625-1.898 50.425 50.425 0 0 0 2.625-2.195c.73-.664 1.899-1.79 2.625-2.598.73-.809 1.899-2.188 2.625-3.223.73-1.039 1.899-2.691 2.625-4.258.73-1.57 2.625-7.05 2.625-7.05" fill="none" stroke="#ff8000" stroke-miterlimit="10" stroke-width=".79701" transform="matrix(1 0 0 -1 21.896 161.793)"/></g><use x="205.242" xlink:href="#i" y="158.074"/><path d="m107.198 122.117h82.789v35.653h-82.79zm0 0" fill="#fff" stroke="#000" stroke-miterlimit="10" stroke-width=".79701" transform="matrix(1 0 0 -1 21.896 161.793)"/><path d="m.001-.002h17.009" fill="none" stroke="#00f" stroke-miterlimit="10" stroke-width=".79701" transform="matrix(1 0 0 -1 132.479 11.631)"/><use x="151.878" xlink:href="#j" y="9.552"/><path d="m0 .002h3.39" fill="none" stroke="#000" stroke-miterlimit="10" stroke-width=".279" transform="matrix(1 0 0 -1 157.344 9.412)"/><use x="157.344" xlink:href="#l" y="13.757"/><use x="161.955" xlink:href="#m" y="13.757"/><use x="164.654" xlink:href="#q" y="13.757"/><use x="168.8" xlink:href="#r" y="14.753"/><g><use x="172.533" xlink:href="#s" y="13.757"/><use x="176.2" xlink:href="#q" y="13.757"/></g><use x="182.841" xlink:href="#k" y="13.757"/><g><use x="189.867" xlink:href="#n" y="13.757"/><use x="193.257" xlink:href="#o" y="13.757"/></g><use x="195.955" xlink:href="#n" y="11.747"/><use x="199.345" xlink:href="#s" y="11.747"/><use x="203.012" xlink:href="#p" y="11.747"/><path d="m.001.002h17.009" fill="none" stroke="#f00" stroke-miterlimit="10" stroke-width=".79701" transform="matrix(1 0 0 -1 132.479 22.857)"/><use x="151.878" xlink:href="#j" y="20.777"/><path d="m0 .001h3.39" fill="none" stroke="#000" stroke-miterlimit="10" stroke-width=".279" transform="matrix(1 0 0 -1 157.344 20.638)"/><use x="157.344" xlink:href="#l" y="24.983"/><use x="161.955" xlink:href="#m" y="24.983"/><use x="164.654" xlink:href="#q" y="24.983"/><g><use x="169.492" xlink:href="#s" y="24.983"/><use x="173.159" xlink:href="#q" y="24.983"/></g><use x="177.305" xlink:href="#r" y="25.979"/><use x="181.038" xlink:href="#o" y="24.983"/><use x="183.736" xlink:href="#l" y="22.972"/><use x="187.126" xlink:href="#s" y="22.972"/><use x="190.793" xlink:href="#p" y="22.972"/><path d="m.001-.001h17.009" fill="none" stroke="#ff8000" stroke-miterlimit="10" stroke-width=".79701" transform="matrix(1 0 0 -1 132.479 33.077)"/><use x="151.878" xlink:href="#t" y="34.198"/><use x="157.995" xlink:href="#r" y="35.194"/><use x="161.728" xlink:href="#m" y="34.198"/><use x="164.427" xlink:href="#q" y="34.198"/><use x="169.437" xlink:href="#o" y="34.198"/></svg>