<svg height="150.883" viewBox="0 0 217.194 113.162" width="289.592" xmlns="http://www.w3.org/2000/svg" xmlns:xlink="http://www.w3.org/1999/xlink"><clipPath id="a"><path d="m94 18h9v8h-9zm0 0"/></clipPath><clipPath id="b"><path d="m102.063 22.145a3.543 3.543 0 1 0 -7.086-.001 3.543 3.543 0 0 0 7.085 0zm0 0"/></clipPath><clipPath id="c"><path d="m69 34.457h3.727v2.543h-3.727zm0 0"/></clipPath><clipPath id="d"><path d="m77.008 32.523a3.546 3.546 0 0 0 -3.543-3.546 3.546 3.546 0 0 0 0 7.09 3.543 3.543 0 0 0 3.543-3.544zm0 0"/></clipPath><clipPath id="e"><path d="m70.734 34.457h4.985v2.543h-4.985zm0 0"/></clipPath><clipPath id="f"><path d="m77.008 32.523a3.546 3.546 0 0 0 -3.543-3.546 3.546 3.546 0 0 0 0 7.09 3.543 3.543 0 0 0 3.543-3.544zm0 0"/></clipPath><clipPath id="g"><path d="m73.723 34.457h4.277v2.543h-4.277zm0 0"/></clipPath><clipPath id="h"><path d="m77.008 32.523a3.546 3.546 0 0 0 -3.543-3.546 3.546 3.546 0 0 0 0 7.09 3.543 3.543 0 0 0 3.543-3.544zm0 0"/></clipPath><clipPath id="i"><path d="m76.715 34.457h1.285v2.543h-1.285zm0 0"/></clipPath><clipPath id="j"><path d="m77.008 32.523a3.546 3.546 0 0 0 -3.543-3.546 3.546 3.546 0 0 0 0 7.09 3.543 3.543 0 0 0 3.543-3.544zm0 0"/></clipPath><clipPath id="k"><path d="m69 31.469h3.727v4.98h-3.727zm0 0"/></clipPath><clipPath id="l"><path d="m77.008 32.523a3.546 3.546 0 0 0 -3.543-3.546 3.546 3.546 0 0 0 0 7.09 3.543 3.543 0 0 0 3.543-3.544zm0 0"/></clipPath><clipPath id="m"><path d="m70.734 31.469h4.985v4.98h-4.985zm0 0"/></clipPath><clipPath id="n"><path d="m77.008 32.523a3.546 3.546 0 0 0 -3.543-3.546 3.546 3.546 0 0 0 0 7.09 3.543 3.543 0 0 0 3.543-3.544zm0 0"/></clipPath><clipPath id="o"><path d="m73.723 31.469h4.277v4.98h-4.277zm0 0"/></clipPath><clipPath id="p"><path d="m77.008 32.523a3.546 3.546 0 0 0 -3.543-3.546 3.546 3.546 0 0 0 0 7.09 3.543 3.543 0 0 0 3.543-3.544zm0 0"/></clipPath><clipPath id="q"><path d="m76.715 31.469h1.285v4.98h-1.285zm0 0"/></clipPath><clipPath id="r"><path d="m77.008 32.523a3.546 3.546 0 0 0 -3.543-3.546 3.546 3.546 0 0 0 0 7.09 3.543 3.543 0 0 0 3.543-3.544zm0 0"/></clipPath><clipPath id="s"><path d="m69 28.477h3.727v4.984h-3.727zm0 0"/></clipPath><clipPath id="t"><path d="m77.008 32.523a3.546 3.546 0 0 0 -3.543-3.546 3.546 3.546 0 0 0 0 7.09 3.543 3.543 0 0 0 3.543-3.544zm0 0"/></clipPath><clipPath id="u"><path d="m70.734 28.477h4.985v4.984h-4.985zm0 0"/></clipPath><clipPath id="v"><path d="m77.008 32.523a3.546 3.546 0 0 0 -3.543-3.546 3.546 3.546 0 0 0 0 7.09 3.543 3.543 0 0 0 3.543-3.544zm0 0"/></clipPath><clipPath id="w"><path d="m73.723 28.477h4.277v4.984h-4.277zm0 0"/></clipPath><clipPath id="x"><path d="m77.008 32.523a3.546 3.546 0 0 0 -3.543-3.546 3.546 3.546 0 0 0 0 7.09 3.543 3.543 0 0 0 3.543-3.544zm0 0"/></clipPath><clipPath id="y"><path d="m76.715 28.477h1.285v4.984h-1.285zm0 0"/></clipPath><clipPath id="z"><path d="m77.008 32.523a3.546 3.546 0 0 0 -3.543-3.546 3.546 3.546 0 0 0 0 7.09 3.543 3.543 0 0 0 3.543-3.544zm0 0"/></clipPath><clipPath id="A"><path d="m69 28h3.727v2.473h-3.727zm0 0"/></clipPath><clipPath id="B"><path d="m77.008 32.523a3.546 3.546 0 0 0 -3.543-3.546 3.546 3.546 0 0 0 0 7.09 3.543 3.543 0 0 0 3.543-3.544zm0 0"/></clipPath><clipPath id="C"><path d="m70.734 28h4.985v2.473h-4.985zm0 0"/></clipPath><clipPath id="D"><path d="m77.008 32.523a3.546 3.546 0 0 0 -3.543-3.546 3.546 3.546 0 0 0 0 7.09 3.543 3.543 0 0 0 3.543-3.544zm0 0"/></clipPath><clipPath id="E"><path d="m73.723 28h4.277v2.473h-4.277zm0 0"/></clipPath><clipPath id="F"><path d="m77.008 32.523a3.546 3.546 0 0 0 -3.543-3.546 3.546 3.546 0 0 0 0 7.09 3.543 3.543 0 0 0 3.543-3.544zm0 0"/></clipPath><clipPath id="G"><path d="m76.715 28h1.285v2.473h-1.285zm0 0"/></clipPath><clipPath id="H"><path d="m77.008 32.523a3.546 3.546 0 0 0 -3.543-3.546 3.546 3.546 0 0 0 0 7.09 3.543 3.543 0 0 0 3.543-3.544zm0 0"/></clipPath><clipPath id="I"><path d="m120 34.457h.55v2.543h-.55zm0 0"/></clipPath><clipPath id="J"><path d="m127.117 32.523a3.546 3.546 0 0 0 -3.543-3.546 3.546 3.546 0 0 0 0 7.09 3.543 3.543 0 0 0 3.543-3.544zm0 0"/></clipPath><clipPath id="K"><path d="m120 34.457h3.54v2.543h-3.54zm0 0"/></clipPath><clipPath id="L"><path d="m127.117 32.523a3.546 3.546 0 0 0 -3.543-3.546 3.546 3.546 0 0 0 0 7.09 3.543 3.543 0 0 0 3.543-3.544zm0 0"/></clipPath><clipPath id="M"><path d="m121.547 34.457h4.98v2.543h-4.98zm0 0"/></clipPath><clipPath id="N"><path d="m127.117 32.523a3.546 3.546 0 0 0 -3.543-3.546 3.546 3.546 0 0 0 0 7.09 3.543 3.543 0 0 0 3.543-3.544zm0 0"/></clipPath><clipPath id="O"><path d="m124.535 34.457h3.465v2.543h-3.465zm0 0"/></clipPath><clipPath id="P"><path d="m127.117 32.523a3.546 3.546 0 0 0 -3.543-3.546 3.546 3.546 0 0 0 0 7.09 3.543 3.543 0 0 0 3.543-3.544zm0 0"/></clipPath><clipPath id="Q"><path d="m120 31.469h.55v4.98h-.55zm0 0"/></clipPath><clipPath id="R"><path d="m127.117 32.523a3.546 3.546 0 0 0 -3.543-3.546 3.546 3.546 0 0 0 0 7.09 3.543 3.543 0 0 0 3.543-3.544zm0 0"/></clipPath><clipPath id="S"><path d="m120 31.469h3.54v4.98h-3.54zm0 0"/></clipPath><clipPath id="T"><path d="m127.117 32.523a3.546 3.546 0 0 0 -3.543-3.546 3.546 3.546 0 0 0 0 7.09 3.543 3.543 0 0 0 3.543-3.544zm0 0"/></clipPath><clipPath id="U"><path d="m121.547 31.469h4.98v4.98h-4.98zm0 0"/></clipPath><clipPath id="V"><path d="m127.117 32.523a3.546 3.546 0 0 0 -3.543-3.546 3.546 3.546 0 0 0 0 7.09 3.543 3.543 0 0 0 3.543-3.544zm0 0"/></clipPath><clipPath id="W"><path d="m124.535 31.469h3.465v4.98h-3.465zm0 0"/></clipPath><clipPath id="X"><path d="m127.117 32.523a3.546 3.546 0 0 0 -3.543-3.546 3.546 3.546 0 0 0 0 7.09 3.543 3.543 0 0 0 3.543-3.544zm0 0"/></clipPath><clipPath id="Y"><path d="m120 28.477h.55v4.984h-.55zm0 0"/></clipPath><clipPath id="Z"><path d="m127.117 32.523a3.546 3.546 0 0 0 -3.543-3.546 3.546 3.546 0 0 0 0 7.09 3.543 3.543 0 0 0 3.543-3.544zm0 0"/></clipPath><clipPath id="aa"><path d="m120 28.477h3.54v4.984h-3.54zm0 0"/></clipPath><clipPath id="ab"><path d="m127.117 32.523a3.546 3.546 0 0 0 -3.543-3.546 3.546 3.546 0 0 0 0 7.09 3.543 3.543 0 0 0 3.543-3.544zm0 0"/></clipPath><clipPath id="ac"><path d="m121.547 28.477h4.98v4.984h-4.98zm0 0"/></clipPath><clipPath id="ad"><path d="m127.117 32.523a3.546 3.546 0 0 0 -3.543-3.546 3.546 3.546 0 0 0 0 7.09 3.543 3.543 0 0 0 3.543-3.544zm0 0"/></clipPath><clipPath id="ae"><path d="m124.535 28.477h3.465v4.984h-3.465zm0 0"/></clipPath><clipPath id="af"><path d="m127.117 32.523a3.546 3.546 0 0 0 -3.543-3.546 3.546 3.546 0 0 0 0 7.09 3.543 3.543 0 0 0 3.543-3.544zm0 0"/></clipPath><clipPath id="ag"><path d="m120 28h.55v2.473h-.55zm0 0"/></clipPath><clipPath id="ah"><path d="m127.117 32.523a3.546 3.546 0 0 0 -3.543-3.546 3.546 3.546 0 0 0 0 7.09 3.543 3.543 0 0 0 3.543-3.544zm0 0"/></clipPath><clipPath id="ai"><path d="m120 28h3.54v2.473h-3.54zm0 0"/></clipPath><clipPath id="aj"><path d="m127.117 32.523a3.546 3.546 0 0 0 -3.543-3.546 3.546 3.546 0 0 0 0 7.09 3.543 3.543 0 0 0 3.543-3.544zm0 0"/></clipPath><clipPath id="ak"><path d="m121.547 28h4.98v2.473h-4.98zm0 0"/></clipPath><clipPath id="al"><path d="m127.117 32.523a3.546 3.546 0 0 0 -3.543-3.546 3.546 3.546 0 0 0 0 7.09 3.543 3.543 0 0 0 3.543-3.544zm0 0"/></clipPath><clipPath id="am"><path d="m124.535 28h3.465v2.473h-3.465zm0 0"/></clipPath><clipPath id="an"><path d="m127.117 32.523a3.546 3.546 0 0 0 -3.543-3.546 3.546 3.546 0 0 0 0 7.09 3.543 3.543 0 0 0 3.543-3.544zm0 0"/></clipPath><clipPath id="ao"><path d="m94 94.234h2.64v2.766h-2.64zm0 0"/></clipPath><clipPath id="ap"><path d="m102.063 93.012a3.543 3.543 0 1 0 -7.086-.001 3.543 3.543 0 0 0 7.085 0zm0 0"/></clipPath><clipPath id="aq"><path d="m94.645 94.234h4.984v2.766h-4.984zm0 0"/></clipPath><clipPath id="ar"><path d="m102.063 93.012a3.543 3.543 0 1 0 -7.086-.001 3.543 3.543 0 0 0 7.085 0zm0 0"/></clipPath><clipPath id="as"><path d="m97.637 94.234h4.98v2.766h-4.98zm0 0"/></clipPath><clipPath id="at"><path d="m102.063 93.012a3.543 3.543 0 1 0 -7.086-.001 3.543 3.543 0 0 0 7.085 0zm0 0"/></clipPath><clipPath id="au"><path d="m100.625 94.234h2.375v2.766h-2.375zm0 0"/></clipPath><clipPath id="av"><path d="m102.063 93.012a3.543 3.543 0 1 0 -7.086-.001 3.543 3.543 0 0 0 7.085 0zm0 0"/></clipPath><clipPath id="aw"><path d="m94 91.242h2.64v4.985h-2.64zm0 0"/></clipPath><clipPath id="ax"><path d="m102.063 93.012a3.543 3.543 0 1 0 -7.086-.001 3.543 3.543 0 0 0 7.085 0zm0 0"/></clipPath><clipPath id="ay"><path d="m94.645 91.242h4.984v4.985h-4.984zm0 0"/></clipPath><clipPath id="az"><path d="m102.063 93.012a3.543 3.543 0 1 0 -7.086-.001 3.543 3.543 0 0 0 7.085 0zm0 0"/></clipPath><clipPath id="aA"><path d="m97.637 91.242h4.98v4.985h-4.98zm0 0"/></clipPath><clipPath id="aB"><path d="m102.063 93.012a3.543 3.543 0 1 0 -7.086-.001 3.543 3.543 0 0 0 7.085 0zm0 0"/></clipPath><clipPath id="aC"><path d="m100.625 91.242h2.375v4.985h-2.375zm0 0"/></clipPath><clipPath id="aD"><path d="m102.063 93.012a3.543 3.543 0 1 0 -7.086-.001 3.543 3.543 0 0 0 7.085 0zm0 0"/></clipPath><clipPath id="aE"><path d="m94 89h2.64v4.238h-2.64zm0 0"/></clipPath><clipPath id="aF"><path d="m102.063 93.012a3.543 3.543 0 1 0 -7.086-.001 3.543 3.543 0 0 0 7.085 0zm0 0"/></clipPath><clipPath id="aG"><path d="m94.645 89h4.984v4.238h-4.984zm0 0"/></clipPath><clipPath id="aH"><path d="m102.063 93.012a3.543 3.543 0 1 0 -7.086-.001 3.543 3.543 0 0 0 7.085 0zm0 0"/></clipPath><clipPath id="aI"><path d="m97.637 89h4.98v4.238h-4.98zm0 0"/></clipPath><clipPath id="aJ"><path d="m102.063 93.012a3.543 3.543 0 1 0 -7.086-.001 3.543 3.543 0 0 0 7.085 0zm0 0"/></clipPath><clipPath id="aK"><path d="m100.625 89h2.375v4.238h-2.375zm0 0"/></clipPath><clipPath id="aL"><path d="m102.063 93.012a3.543 3.543 0 1 0 -7.086-.001 3.543 3.543 0 0 0 7.085 0zm0 0"/></clipPath><clipPath id="aM"><path d="m94 89h2.64v1.246h-2.64zm0 0"/></clipPath><clipPath id="aN"><path d="m102.063 93.012a3.543 3.543 0 1 0 -7.086-.001 3.543 3.543 0 0 0 7.085 0zm0 0"/></clipPath><clipPath id="aO"><path d="m94.645 89h4.984v1.246h-4.984zm0 0"/></clipPath><clipPath id="aP"><path d="m102.063 93.012a3.543 3.543 0 1 0 -7.086-.001 3.543 3.543 0 0 0 7.085 0zm0 0"/></clipPath><clipPath id="aQ"><path d="m97.637 89h4.98v1.246h-4.98zm0 0"/></clipPath><clipPath id="aR"><path d="m102.063 93.012a3.543 3.543 0 1 0 -7.086-.001 3.543 3.543 0 0 0 7.085 0zm0 0"/></clipPath><clipPath id="aS"><path d="m100.625 89h2.375v1.246h-2.375zm0 0"/></clipPath><clipPath id="aT"><path d="m102.063 93.012a3.543 3.543 0 1 0 -7.086-.001 3.543 3.543 0 0 0 7.085 0zm0 0"/></clipPath><clipPath id="aU"><path d="m57 61.355h.785v1.645h-.785zm0 0"/></clipPath><clipPath id="aV"><path d="m68.402 57.578a5.315 5.315 0 1 0 -10.63-.003 5.315 5.315 0 0 0 10.63.003zm0 0"/></clipPath><clipPath id="aW"><path d="m57 61.355h3.773v1.645h-3.773zm0 0"/></clipPath><clipPath id="aX"><path d="m68.402 57.578a5.315 5.315 0 1 0 -10.63-.003 5.315 5.315 0 0 0 10.63.003zm0 0"/></clipPath><clipPath id="aY"><path d="m58.781 61.355h4.98v1.645h-4.98zm0 0"/></clipPath><clipPath id="aZ"><path d="m68.402 57.578a5.315 5.315 0 1 0 -10.63-.003 5.315 5.315 0 0 0 10.63.003zm0 0"/></clipPath><clipPath id="a0"><path d="m61.77 61.355h4.98v1.645h-4.98zm0 0"/></clipPath><clipPath id="a1"><path d="m68.402 57.578a5.315 5.315 0 1 0 -10.63-.003 5.315 5.315 0 0 0 10.63.003zm0 0"/></clipPath><clipPath id="a2"><path d="m64.758 61.355h4.242v1.645h-4.242zm0 0"/></clipPath><clipPath id="a3"><path d="m68.402 57.578a5.315 5.315 0 1 0 -10.63-.003 5.315 5.315 0 0 0 10.63.003zm0 0"/></clipPath><clipPath id="a4"><path d="m67.746 61.355h1.254v1.645h-1.254zm0 0"/></clipPath><clipPath id="a5"><path d="m68.402 57.578a5.315 5.315 0 1 0 -10.63-.003 5.315 5.315 0 0 0 10.63.003zm0 0"/></clipPath><clipPath id="a6"><path d="m57 58.367h.785v4.633h-.785zm0 0"/></clipPath><clipPath id="a7"><path d="m68.402 57.578a5.315 5.315 0 1 0 -10.63-.003 5.315 5.315 0 0 0 10.63.003zm0 0"/></clipPath><clipPath id="a8"><path d="m57 58.367h3.773v4.633h-3.773zm0 0"/></clipPath><clipPath id="a9"><path d="m68.402 57.578a5.315 5.315 0 1 0 -10.63-.003 5.315 5.315 0 0 0 10.63.003zm0 0"/></clipPath><clipPath id="ba"><path d="m58.781 58.367h4.98v4.633h-4.98zm0 0"/></clipPath><clipPath id="bb"><path d="m68.402 57.578a5.315 5.315 0 1 0 -10.63-.003 5.315 5.315 0 0 0 10.63.003zm0 0"/></clipPath><clipPath id="bc"><path d="m61.77 58.367h4.98v4.633h-4.98zm0 0"/></clipPath><clipPath id="bd"><path d="m68.402 57.578a5.315 5.315 0 1 0 -10.63-.003 5.315 5.315 0 0 0 10.63.003zm0 0"/></clipPath><clipPath id="be"><path d="m64.758 58.367h4.242v4.633h-4.242zm0 0"/></clipPath><clipPath id="bf"><path d="m68.402 57.578a5.315 5.315 0 1 0 -10.63-.003 5.315 5.315 0 0 0 10.63.003zm0 0"/></clipPath><clipPath id="bg"><path d="m67.746 58.367h1.254v4.633h-1.254zm0 0"/></clipPath><clipPath id="bh"><path d="m68.402 57.578a5.315 5.315 0 1 0 -10.63-.003 5.315 5.315 0 0 0 10.63.003zm0 0"/></clipPath><clipPath id="bi"><path d="m57 55.379h.785v4.98h-.785zm0 0"/></clipPath><clipPath id="bj"><path d="m68.402 57.578a5.315 5.315 0 1 0 -10.63-.003 5.315 5.315 0 0 0 10.63.003zm0 0"/></clipPath><clipPath id="bk"><path d="m57 55.379h3.773v4.98h-3.773zm0 0"/></clipPath><clipPath id="bl"><path d="m68.402 57.578a5.315 5.315 0 1 0 -10.63-.003 5.315 5.315 0 0 0 10.63.003zm0 0"/></clipPath><clipPath id="bm"><path d="m58.781 55.379h4.98v4.98h-4.98zm0 0"/></clipPath><clipPath id="bn"><path d="m68.402 57.578a5.315 5.315 0 1 0 -10.63-.003 5.315 5.315 0 0 0 10.63.003zm0 0"/></clipPath><clipPath id="bo"><path d="m61.77 55.379h4.98v4.98h-4.98zm0 0"/></clipPath><clipPath id="bp"><path d="m68.402 57.578a5.315 5.315 0 1 0 -10.63-.003 5.315 5.315 0 0 0 10.63.003zm0 0"/></clipPath><clipPath id="bq"><path d="m64.758 55.379h4.242v4.98h-4.242zm0 0"/></clipPath><clipPath id="br"><path d="m68.402 57.578a5.315 5.315 0 1 0 -10.63-.003 5.315 5.315 0 0 0 10.63.003zm0 0"/></clipPath><clipPath id="bs"><path d="m67.746 55.379h1.254v4.98h-1.254zm0 0"/></clipPath><clipPath id="bt"><path d="m68.402 57.578a5.315 5.315 0 1 0 -10.63-.003 5.315 5.315 0 0 0 10.63.003zm0 0"/></clipPath><clipPath id="bu"><path d="m57 52.39h.785v4.981h-.785zm0 0"/></clipPath><clipPath id="bv"><path d="m68.402 57.578a5.315 5.315 0 1 0 -10.63-.003 5.315 5.315 0 0 0 10.63.003zm0 0"/></clipPath><clipPath id="bw"><path d="m57 52.39h3.773v4.981h-3.773zm0 0"/></clipPath><clipPath id="bx"><path d="m68.402 57.578a5.315 5.315 0 1 0 -10.63-.003 5.315 5.315 0 0 0 10.63.003zm0 0"/></clipPath><clipPath id="by"><path d="m58.781 52.39h4.98v4.981h-4.98zm0 0"/></clipPath><clipPath id="bz"><path d="m68.402 57.578a5.315 5.315 0 1 0 -10.63-.003 5.315 5.315 0 0 0 10.63.003zm0 0"/></clipPath><clipPath id="bA"><path d="m61.77 52.39h4.98v4.981h-4.98zm0 0"/></clipPath><clipPath id="bB"><path d="m68.402 57.578a5.315 5.315 0 1 0 -10.63-.003 5.315 5.315 0 0 0 10.63.003zm0 0"/></clipPath><clipPath id="bC"><path d="m64.758 52.39h4.242v4.981h-4.242zm0 0"/></clipPath><clipPath id="bD"><path d="m68.402 57.578a5.315 5.315 0 1 0 -10.63-.003 5.315 5.315 0 0 0 10.63.003zm0 0"/></clipPath><clipPath id="bE"><path d="m67.746 52.39h1.254v4.981h-1.254zm0 0"/></clipPath><clipPath id="bF"><path d="m68.402 57.578a5.315 5.315 0 1 0 -10.63-.003 5.315 5.315 0 0 0 10.63.003zm0 0"/></clipPath><clipPath id="bG"><path d="m57 52h.785v2.383h-.785zm0 0"/></clipPath><clipPath id="bH"><path d="m68.402 57.578a5.315 5.315 0 1 0 -10.63-.003 5.315 5.315 0 0 0 10.63.003zm0 0"/></clipPath><clipPath id="bI"><path d="m57 52h3.773v2.383h-3.773zm0 0"/></clipPath><clipPath id="bJ"><path d="m68.402 57.578a5.315 5.315 0 1 0 -10.63-.003 5.315 5.315 0 0 0 10.63.003zm0 0"/></clipPath><clipPath id="bK"><path d="m58.781 52h4.98v2.383h-4.98zm0 0"/></clipPath><clipPath id="bL"><path d="m68.402 57.578a5.315 5.315 0 1 0 -10.63-.003 5.315 5.315 0 0 0 10.63.003zm0 0"/></clipPath><clipPath id="bM"><path d="m61.77 52h4.98v2.383h-4.98zm0 0"/></clipPath><clipPath id="bN"><path d="m68.402 57.578a5.315 5.315 0 1 0 -10.63-.003 5.315 5.315 0 0 0 10.63.003zm0 0"/></clipPath><clipPath id="bO"><path d="m64.758 52h4.242v2.383h-4.242zm0 0"/></clipPath><clipPath id="bP"><path d="m68.402 57.578a5.315 5.315 0 1 0 -10.63-.003 5.315 5.315 0 0 0 10.63.003zm0 0"/></clipPath><clipPath id="bQ"><path d="m67.746 52h1.254v2.383h-1.254zm0 0"/></clipPath><clipPath id="bR"><path d="m68.402 57.578a5.315 5.315 0 1 0 -10.63-.003 5.315 5.315 0 0 0 10.63.003zm0 0"/></clipPath><clipPath id="bS"><path d="m128 61.355h1.516v1.645h-1.516zm0 0"/></clipPath><clipPath id="bT"><path d="m139.27 57.578a5.315 5.315 0 1 0 -10.63-.003 5.315 5.315 0 0 0 10.63.003zm0 0"/></clipPath><clipPath id="bU"><path d="m128 61.355h4.504v1.645h-4.504zm0 0"/></clipPath><clipPath id="bV"><path d="m139.27 57.578a5.315 5.315 0 1 0 -10.63-.003 5.315 5.315 0 0 0 10.63.003zm0 0"/></clipPath><clipPath id="bW"><path d="m130.512 61.355h4.98v1.645h-4.98zm0 0"/></clipPath><clipPath id="bX"><path d="m139.27 57.578a5.315 5.315 0 1 0 -10.63-.003 5.315 5.315 0 0 0 10.63.003zm0 0"/></clipPath><clipPath id="bY"><path d="m133.5 61.355h4.984v1.645h-4.984zm0 0"/></clipPath><clipPath id="bZ"><path d="m139.27 57.578a5.315 5.315 0 1 0 -10.63-.003 5.315 5.315 0 0 0 10.63.003zm0 0"/></clipPath><clipPath id="b0"><path d="m136.488 61.355h3.512v1.645h-3.512zm0 0"/></clipPath><clipPath id="b1"><path d="m139.27 57.578a5.315 5.315 0 1 0 -10.63-.003 5.315 5.315 0 0 0 10.63.003zm0 0"/></clipPath><clipPath id="b2"><path d="m128 58.367h1.516v4.633h-1.516zm0 0"/></clipPath><clipPath id="b3"><path d="m139.27 57.578a5.315 5.315 0 1 0 -10.63-.003 5.315 5.315 0 0 0 10.63.003zm0 0"/></clipPath><clipPath id="b4"><path d="m128 58.367h4.504v4.633h-4.504zm0 0"/></clipPath><clipPath id="b5"><path d="m139.27 57.578a5.315 5.315 0 1 0 -10.63-.003 5.315 5.315 0 0 0 10.63.003zm0 0"/></clipPath><clipPath id="b6"><path d="m130.512 58.367h4.98v4.633h-4.98zm0 0"/></clipPath><clipPath id="b7"><path d="m139.27 57.578a5.315 5.315 0 1 0 -10.63-.003 5.315 5.315 0 0 0 10.63.003zm0 0"/></clipPath><clipPath id="b8"><path d="m133.5 58.367h4.984v4.633h-4.984zm0 0"/></clipPath><clipPath id="b9"><path d="m139.27 57.578a5.315 5.315 0 1 0 -10.63-.003 5.315 5.315 0 0 0 10.63.003zm0 0"/></clipPath><clipPath id="ca"><path d="m136.488 58.367h3.512v4.633h-3.512zm0 0"/></clipPath><clipPath id="cb"><path d="m139.27 57.578a5.315 5.315 0 1 0 -10.63-.003 5.315 5.315 0 0 0 10.63.003zm0 0"/></clipPath><clipPath id="cc"><path d="m128 55.379h1.516v4.98h-1.516zm0 0"/></clipPath><clipPath id="cd"><path d="m139.27 57.578a5.315 5.315 0 1 0 -10.63-.003 5.315 5.315 0 0 0 10.63.003zm0 0"/></clipPath><clipPath id="ce"><path d="m128 55.379h4.504v4.98h-4.504zm0 0"/></clipPath><clipPath id="cf"><path d="m139.27 57.578a5.315 5.315 0 1 0 -10.63-.003 5.315 5.315 0 0 0 10.63.003zm0 0"/></clipPath><clipPath id="cg"><path d="m130.512 55.379h4.98v4.98h-4.98zm0 0"/></clipPath><clipPath id="ch"><path d="m139.27 57.578a5.315 5.315 0 1 0 -10.63-.003 5.315 5.315 0 0 0 10.63.003zm0 0"/></clipPath><clipPath id="ci"><path d="m133.5 55.379h4.984v4.98h-4.984zm0 0"/></clipPath><clipPath id="cj"><path d="m139.27 57.578a5.315 5.315 0 1 0 -10.63-.003 5.315 5.315 0 0 0 10.63.003zm0 0"/></clipPath><clipPath id="ck"><path d="m136.488 55.379h3.512v4.98h-3.512zm0 0"/></clipPath><clipPath id="cl"><path d="m139.27 57.578a5.315 5.315 0 1 0 -10.63-.003 5.315 5.315 0 0 0 10.63.003zm0 0"/></clipPath><clipPath id="cm"><path d="m128 52.39h1.516v4.981h-1.516zm0 0"/></clipPath><clipPath id="cn"><path d="m139.27 57.578a5.315 5.315 0 1 0 -10.63-.003 5.315 5.315 0 0 0 10.63.003zm0 0"/></clipPath><clipPath id="co"><path d="m128 52.39h4.504v4.981h-4.504zm0 0"/></clipPath><clipPath id="cp"><path d="m139.27 57.578a5.315 5.315 0 1 0 -10.63-.003 5.315 5.315 0 0 0 10.63.003zm0 0"/></clipPath><clipPath id="cq"><path d="m130.512 52.39h4.98v4.981h-4.98zm0 0"/></clipPath><clipPath id="cr"><path d="m139.27 57.578a5.315 5.315 0 1 0 -10.63-.003 5.315 5.315 0 0 0 10.63.003zm0 0"/></clipPath><clipPath id="cs"><path d="m133.5 52.39h4.984v4.981h-4.984zm0 0"/></clipPath><clipPath id="ct"><path d="m139.27 57.578a5.315 5.315 0 1 0 -10.63-.003 5.315 5.315 0 0 0 10.63.003zm0 0"/></clipPath><clipPath id="cu"><path d="m136.488 52.39h3.512v4.981h-3.512zm0 0"/></clipPath><clipPath id="cv"><path d="m139.27 57.578a5.315 5.315 0 1 0 -10.63-.003 5.315 5.315 0 0 0 10.63.003zm0 0"/></clipPath><clipPath id="cw"><path d="m128 52h1.516v2.383h-1.516zm0 0"/></clipPath><clipPath id="cx"><path d="m139.27 57.578a5.315 5.315 0 1 0 -10.63-.003 5.315 5.315 0 0 0 10.63.003zm0 0"/></clipPath><clipPath id="cy"><path d="m128 52h4.504v2.383h-4.504zm0 0"/></clipPath><clipPath id="cz"><path d="m139.27 57.578a5.315 5.315 0 1 0 -10.63-.003 5.315 5.315 0 0 0 10.63.003zm0 0"/></clipPath><clipPath id="cA"><path d="m130.512 52h4.98v2.383h-4.98zm0 0"/></clipPath><clipPath id="cB"><path d="m139.27 57.578a5.315 5.315 0 1 0 -10.63-.003 5.315 5.315 0 0 0 10.63.003zm0 0"/></clipPath><clipPath id="cC"><path d="m133.5 52h4.984v2.383h-4.984zm0 0"/></clipPath><clipPath id="cD"><path d="m139.27 57.578a5.315 5.315 0 1 0 -10.63-.003 5.315 5.315 0 0 0 10.63.003zm0 0"/></clipPath><clipPath id="cE"><path d="m136.488 52h3.512v2.383h-3.512zm0 0"/></clipPath><clipPath id="cF"><path d="m139.27 57.578a5.315 5.315 0 1 0 -10.63-.003 5.315 5.315 0 0 0 10.63.003zm0 0"/></clipPath><symbol id="cG" overflow="visible"><path d="m.422.969c-.078.25-.094.312-.406.312-.11 0-.204 0-.204.157 0 .062.063.109.11.109.078 0 .11-.031.703-.031.563 0 .734.03.797.03.031 0 .14 0 .14-.155 0-.11-.109-.11-.203-.11-.375 0-.375-.047-.375-.125 0-.047.141-.61.375-1.547.11.188.36.47.782.47.984 0 2-1.126 2-2.282-.001-.797-.501-1.313-1.141-1.313-.484 0-.86.329-1.094.563-.172-.563-.703-.563-.781-.563-.281 0-.484.188-.61.438-.187.36-.28.765-.28.781 0 .078.062.11.124.11.11 0 .11-.032.172-.25.094-.407.235-.86.563-.86.203 0 .265.188.265.375 0 .078-.03.281-.046.344zm1.453-3.422c.047-.14.047-.156.172-.297.297-.36.64-.547.922-.547.406 0 .547.39.547.75 0 .297-.172 1.156-.407 1.625-.203.422-.593.781-.968.781-.532 0-.672-.625-.672-.687a.46.46 0 0 1 .031-.125zm0 0"/></symbol><symbol id="cH" overflow="visible"><path d="m.969-1.984c.015-.297.031-.797.234-1.157.266-.468.656-.64 1.016-.64.14 0 .422.015.562.187-.219.047-.265.188-.265.297 0 .156.109.281.296.281.172 0 .282-.109.282-.296 0-.376-.266-.672-.875-.672-.938 0-1.844.812-1.844 2.093 0 1.454.672 2.016 1.469 2.016.234 0 .64-.031 1-.39.203-.188.422-.422.422-.954 0-.203-.016-.593-.375-.922-.22-.203-.485-.406-.985-.406-.422 0-.734.219-.937.563zm.875 1.89c-.844 0-.844-1.031-.844-1.265 0-.5.328-1 .875-1 .313 0 .484.125.625.312.172.235.172.516.172.828 0 .407-.016.61-.219.86-.14.171-.328.265-.61.265zm0 0"/></symbol><symbol id="cI" overflow="visible"><path d="m2.14-3.797c0-.187-.015-.187-.203-.187-.39.39-1 .39-1.218.39v.235c.156 0 .562 0 .922-.172v3.015c0 .204 0 .282-.625.282h-.25v.234c.328-.031.796-.031 1.125-.031.328 0 .796 0 1.125.031v-.234h-.25c-.625 0-.625-.078-.625-.282zm0 0"/></symbol><symbol id="cJ" overflow="visible"><path d="m3.219-1.125h-.219c-.016.094-.078.484-.156.547-.047.047-.531.047-.625.047h-1.11l.766-.625c.203-.172.734-.547.922-.735.172-.171.422-.484.422-.906 0-.75-.672-1.187-1.485-1.187-.765 0-1.296.515-1.296 1.078 0 .297.25.344.312.344a.32.32 0 0 0 .328-.329c0-.125-.078-.328-.344-.328.141-.297.5-.531.922-.531.625 0 .953.469.953.953 0 .422-.28.86-.687 1.25l-1.422 1.297c-.063.063-.063.063-.063.25h2.594zm0 0"/></symbol><symbol id="cK" overflow="visible"><path d="m1.766-1.984c.5 0 .843.343.843.953 0 .656-.39.937-.828.937-.171 0-.781-.031-1.047-.375.235-.031.329-.187.329-.344a.328.328 0 0 0 -.344-.343.34.34 0 0 0 -.344.36c0 .593.656.921 1.422.921.89 0 1.469-.563 1.469-1.156 0-.438-.329-.907-1.047-1.078.484-.157.86-.547.86-1.032 0-.484-.563-.843-1.282-.843-.703 0-1.234.328-1.234.812 0 .266.203.328.328.328.156 0 .312-.094.312-.312 0-.188-.125-.297-.297-.313.281-.312.828-.312.89-.312.298 0 .688.14.688.64 0 .329-.187.907-.796.938-.11 0-.266.015-.313.015-.063.016-.125.016-.125.11s.063.094.156.094zm0 0"/></symbol><symbol id="cL" overflow="visible"><path d="m3.375-.984v-.235h-.703v-2.64c0-.141 0-.188-.14-.188-.11 0-.126.031-.173.094l-2.078 2.733v.235h1.86v.485c0 .188 0 .266-.5.266h-.188v.234c.125 0 .688-.031.953-.031.266 0 .828.031.938.031v-.234h-.172c-.5 0-.5-.078-.5-.266v-.484zm-1.203-2.407v2.172h-1.64zm0 0"/></symbol><symbol id="cM" overflow="visible"><path d="m1.016-3.328c.203.062.406.078.609.078.14 0 .469 0 .844-.203.11-.063.469-.313.469-.438 0-.078-.047-.093-.079-.093-.015 0-.015 0-.093.03a2.513 2.513 0 0 1 -.907.173c-.296 0-.609-.063-.89-.156-.047-.033-.079-.048-.094-.048-.094 0-.094.078-.094.171v1.797c0 .094 0 .172.11.172.062 0 .078-.031.109-.078.156-.187.422-.39.89-.39.735 0 .735.89.735 1.078 0 .234-.016.578-.219.828a.95.95 0 0 1 -.719.312c-.406.001-.827-.217-.967-.577.297 0 .328-.234.328-.297a.304.304 0 0 0 -.313-.312.303.303 0 0 0 -.296.328c-.001.547.514 1.078 1.263 1.078.828 0 1.516-.578 1.516-1.328a1.3 1.3 0 0 0 -1.328-1.297c-.375 0-.688.125-.875.281zm0 0"/></symbol><symbol id="cN" overflow="visible"><path d="m4.61-3.375c-.095-.625-.5-1.188-1.283-1.188-.61 0-1.25.172-2.031.938a2.953 2.953 0 0 0 -.89 2.063c0 .625.437 1.78 1.827 1.78 2.375 0 3.407-3.343 3.407-4.78 0-1.579-.922-2.579-2.157-2.579-1.437 0-1.906 1.297-1.906 1.579 0 .14.094.343.39.343a.544.544 0 0 0 .532-.515c0-.36-.313-.36-.469-.36.438-.734 1.156-.797 1.438-.797.734 0 1.422.516 1.422 1.813 0 .39-.063.89-.266 1.703zm-2.345 3.313c-1.094 0-1.094-1.032-1.094-1.125 0-.266.25-1.657.656-2.266.39-.563.89-.89 1.5-.89 1.094 0 1.11 1.124 1.11 1.327 0 .72-.641 2.954-2.172 2.954zm0 0"/></symbol><symbol id="cO" overflow="visible"><path d="m3.734-6.125c.063-.234.094-.328.282-.36.093-.015.406-.015.609-.015.703 0 1.813 0 1.813.984 0 .344-.157 1.032-.547 1.422-.266.25-.782.578-1.688.578h-1.11zm1.438 2.734c1.016-.218 2.187-.921 2.187-1.921 0-.86-.89-1.5-2.203-1.5h-2.828c-.203 0-.297 0-.297.203 0 .109.094.109.281.109.016 0 .204 0 .376.016.187.03.265.03.265.171 0 .032 0 .063-.031.188l-1.344 5.344c-.094.39-.11.469-.906.469-.172 0-.266 0-.266.203 0 .109.125.109.14.109.282 0 .985-.031 1.25-.031.282 0 1 .031 1.282.031.078 0 .188 0 .188-.203 0-.11-.079-.11-.282-.11-.359 0-.64 0-.64-.171 0-.063.015-.11.031-.172l.656-2.64h1.189c.906 0 1.078.562 1.078.905 0 .141-.078.454-.14.688-.063.281-.157.64-.157.844-.001 1.078 1.202 1.078 1.327 1.078.844 0 1.203-1 1.203-1.14 0-.126-.11-.126-.125-.126-.093 0-.11.063-.125.14-.25.735-.687.907-.906.907-.328 0-.406-.219-.406-.61 0-.312.062-.812.11-1.14a4.9 4.9 0 0 0 .03-.469c0-.765-.671-1.078-.937-1.172zm0 0"/></symbol><symbol id="cP" overflow="visible"><path d="m.453 1.219c-.078.343-.11.406-.547.406-.11 0-.218 0-.218.188 0 .078.046.125.124.125.266 0 .563-.032.829-.032.343 0 .671.032 1 .032.046 0 .171 0 .171-.204 0-.109-.093-.109-.234-.109-.5 0-.5-.063-.5-.156 0-.125.422-1.75.484-2 .125.297.407.64.922.64 1.157 0 2.407-1.453 2.407-2.921 0-.938-.579-1.594-1.329-1.594-.5 0-.984.36-1.312.75-.094-.547-.531-.75-.89-.75-.47 0-.657.39-.735.562-.188.344-.313.938-.313.969 0 .11.094.11.11.11.11 0 .11-.016.172-.235.172-.703.375-1.188.734-1.188.172 0 .313.079.313.454 0 .234-.032.343-.079.515zm1.75-4.328c.063-.266.344-.547.516-.704.36-.296.64-.374.812-.374.39 0 .64.343.64.937s-.327 1.734-.515 2.11c-.344.702-.812 1.03-1.187 1.03-.656 0-.781-.828-.781-.89 0-.016 0-.031.03-.156zm0 0"/></symbol><symbol id="cQ" overflow="visible"><path d="m2.031-.016c0-.656-.25-1.046-.64-1.046a.517.517 0 0 0 -.532.53c0 .266.204.532.532.532a.58.58 0 0 0 .343-.125c.032-.031.047-.031.047-.031.016 0 .016 0 .016.14 0 .75-.344 1.344-.672 1.672-.11.11-.11.125-.11.157 0 .078.048.109.094.109.11 0 .922-.766.922-1.938zm0 0"/></symbol><symbol id="cR" overflow="visible"><path d="m7.578-6.922c0-.031-.016-.11-.11-.11-.03 0-.046.016-.155.126l-.688.765c-.094-.14-.547-.89-1.656-.89-2.235 0-4.469 2.203-4.469 4.515 0 1.594 1.11 2.736 2.719 2.736.437 0 .89-.094 1.25-.235.5-.203.687-.406.86-.609.093.25.359.61.452.61.047 0 .078-.032.078-.032.016-.015.11-.406.157-.61l.187-.765.14-.516c.11-.437.11-.468.688-.468.047 0 .157-.016.157-.203 0-.079-.047-.11-.125-.11-.235 0-.829.031-1.047.031-.313 0-1.094-.03-1.407-.03-.078 0-.203 0-.203.202 0 .11.078.11.297.11.016 0 .297 0 .531.015.266.032.313.063.313.188 0 .094-.11.531-.219.906-.281 1.093-1.562 1.202-1.922 1.202-.953 0-2-.562-2-2.094 0-.312.094-1.953 1.14-3.25.548-.671 1.517-1.28 2.5-1.28 1.016 0 1.61.765 1.61 1.921 0 .406-.031.406-.031.516 0 .093.11.093.14.093.126 0 .126-.015.188-.203zm0 0"/></symbol><symbol id="cS" overflow="visible"><path d="m1.688 1.688c-.032.14-.047.156-.047.203 0 .218.187.28.296.28a.413.413 0 0 0 .36-.265c.031-.078.078-.406.36-1.812.077 0 .155.015.327.015 1.657 0 3.188-1.562 3.188-3.14 0-.781-.39-1.375-1.14-1.375-1.438 0-2.048 1.937-2.641 3.875-1.079-.203-1.641-.75-1.641-1.469 0-.281.234-1.375.828-2.063.094-.093.094-.109.094-.14s-.031-.094-.125-.094c-.281 0-1.047 1.453-1.047 2.407 0 .938.656 1.657 1.719 1.907zm1.389-2.158c-.094 0-.11 0-.187-.015-.125 0-.125 0-.125-.032 0-.015.171-.937.187-1.078.313-1.281 1.094-2.234 1.985-2.234.687 0 .953.531.953 1.015 0 1.126-1.282 2.344-2.813 2.344zm0 0"/></symbol><symbol id="cT" overflow="visible"><path d="m4.5-4.297c0-.047-.031-.094-.094-.094-.11 0-.515.391-.672.688-.218-.547-.609-.703-.937-.703-1.172 0-2.39 1.468-2.39 2.922-.001.968.576 1.593 1.311 1.593.422 0 .812-.234 1.172-.593-.094.343-.422 1.687-.454 1.78-.078.282-.156.313-.718.329-.125 0-.219 0-.219.203 0 0 0 .11.125.11.313 0 .672-.032 1-.032s.688.032 1.031.032c.047 0 .172 0 .172-.204 0-.109-.094-.109-.265-.109-.47 0-.47-.063-.47-.156 0-.078.016-.14.032-.219zm-2.75 4.188c-.61 0-.64-.766-.64-.938 0-.484.28-1.562.452-1.984.313-.735.829-1.156 1.235-1.156.656 0 .797.812.797.875 0 .062-.547 2.25-.578 2.28-.157.282-.72.923-1.266.923zm0 0"/></symbol><symbol id="cU" overflow="visible"><path d="m2.188-4.625c0-.016.015-.11.015-.11 0-.046-.015-.109-.11-.109-.14 0-.718.063-.89.078-.047 0-.156.016-.156.157 0 .093.11.093.187.093.329 0 .329.063.329.11s-.016.093-.016.156l-.984 3.938c-.047.124-.047.14-.047.156 0 .11.093.218.25.218.187 0 .265-.124.312-.28.016-.032.313-1.266.344-1.36.5.047.89.219.89.578 0 .031 0 .063-.015.14-.031.094-.031.141-.031.22 0 .484.406.703.75.703.671 0 .875-1.047.875-1.063 0-.094-.079-.094-.11-.094-.094 0-.11.047-.14.172-.079.297-.266.797-.61.797-.187 0-.25-.172-.25-.36 0-.124 0-.14.047-.312a.724.724 0 0 0 .031-.219c0-.625-.828-.718-1.125-.734.204-.125.454-.36.579-.469.359-.328.703-.656 1.093-.656.078 0 .172.016.235.094a.396.396 0 0 0 -.36.39c0 .141.11.25.266.25.203 0 .406-.156.406-.437a.5.5 0 0 0 -.531-.5c-.406 0-.766.297-1.125.625-.297.265-.516.484-.813.61zm0 0"/></symbol><symbol id="cV" overflow="visible"><path d="m1.469-.11c0 .376-.063.829-.547 1.266-.016.032-.047.063-.047.094 0 .047.063.094.094.094.11 0 .703-.563.703-1.39 0-.423-.172-.75-.5-.75a.387.387 0 0 0 -.39.39c0 .219.155.406.405.406.172 0 .282-.11.282-.11zm0 0"/></symbol><symbol id="cW" overflow="visible"><path d="m2.266-4.36a.276.276 0 0 0 -.282-.265c-.187 0-.39.188-.39.39 0 .11.078.266.281.266.188 0 .39-.203.39-.39zm-1.422 3.549c-.031.091-.064.17-.064.295 0 .329.266.579.656.579.688 0 1-.954 1-1.063 0-.094-.093-.094-.109-.094-.094 0-.11.047-.14.125-.157.563-.454.844-.735.844-.14 0-.172-.094-.172-.25s.047-.281.11-.438c.078-.187.156-.375.218-.562.063-.172.329-.797.344-.89a.5.5 0 0 0 .048-.221c0-.328-.281-.593-.656-.593-.704.001-1.016.954-1.016 1.079 0 .078.094.078.125.078.094 0 .094-.031.125-.11.172-.593.485-.843.735-.843.109 0 .171.047.171.234 0 .172-.03.266-.203.704zm0 0"/></symbol><symbol id="cX" overflow="visible"><path d="m3.063-4.36a.276.276 0 0 0 -.282-.265c-.203 0-.39.203-.39.39 0 .11.078.266.28.266.188 0 .392-.187.392-.39zm-1.486 4.705c-.11.484-.484.875-.89.875-.094 0-.172 0-.25-.032a.424.424 0 0 0 .234-.359c0-.172-.14-.25-.281-.25-.203-.001-.39.187-.39.405 0 .266.266.438.688.438.421 0 1.234-.25 1.453-1.094l.625-2.5c.015-.078.03-.14.03-.25 0-.375-.327-.656-.733-.656-.783 0-1.22.968-1.22 1.078 0 .078.095.078.11.078.078 0 .094-.016.14-.125.173-.406.532-.828.938-.828.172 0 .235.11.235.344 0 .078 0 .172-.016.203zm0 0"/></symbol><symbol id="cY" overflow="visible"><path d="m.844-.438c-.016.094-.064.267-.064.282 0 .156.125.218.235.218a.377.377 0 0 0 .28-.14c.032-.063.079-.297.126-.438.031-.125.11-.453.14-.625.047-.156.094-.312.125-.468.079-.282.094-.344.297-.625.188-.282.516-.641 1.047-.641.39 0 .406.36.406.484 0 .422-.296 1.188-.406 1.485-.078.203-.11.265-.11.375 0 .375.298.594.657.594.703 0 1-.954 1-1.063 0-.094-.078-.094-.11-.094-.093 0-.093.047-.124.125-.157.563-.469.844-.735.844-.156 0-.187-.094-.187-.25s.047-.25.172-.563c.078-.218.36-.953.36-1.343 0-.672-.532-.797-.907-.797-.578 0-.969.36-1.172.64-.047-.484-.453-.64-.75-.64s-.453.219-.547.375c-.156.265-.25.656-.25.703 0 .078.094.078.125.078.094 0 .094-.016.14-.203.11-.406.25-.75.516-.75.188 0 .235.156.235.344 0 .125-.063.39-.125.578-.047.187-.11.469-.14.625zm0 0"/></symbol><symbol id="cZ" overflow="visible"><path d="m1.969-4.625c0-.016.031-.11.031-.11 0-.046-.031-.109-.125-.109-.14 0-.719.063-.89.078-.047 0-.141.016-.141.157 0 .093.094.093.172.093.343 0 .343.063.343.11s-.015.093-.03.156l-.877 3.438c-.016.078-.016.156-.016.218 0 .453.391.656.72.656.171 0 .39-.046.562-.359.156-.266.25-.672.25-.703 0-.094-.094-.094-.11-.094-.109 0-.125.047-.14.172-.094.344-.235.797-.532.797-.186 0-.232-.172-.232-.344a.889.889 0 0 1 .046-.281zm0 0"/></symbol><symbol id="c0" overflow="visible"><path d="m3.031-.563a3.35 3.35 0 0 0 -.11.407c0 .156.126.218.235.218.14 0 .25-.078.281-.14a3.17 3.17 0 0 0 .126-.438c.03-.125.109-.453.156-.625.031-.156.078-.312.11-.468.077-.297.077-.313.218-.532.219-.343.578-.734 1.11-.734.39 0 .421.313.421.484 0 .422-.297 1.188-.422 1.485-.062.203-.093.265-.093.375 0 .375.296.594.656.594.703 0 1-.954 1-1.063 0-.094-.078-.094-.11-.094-.093 0-.093.047-.125.125-.156.563-.468.844-.734.844-.156 0-.188-.094-.188-.25s.047-.25.172-.563c.079-.218.36-.953.36-1.343 0-.11 0-.406-.25-.61a1.17 1.17 0 0 0 -.657-.187c-.625 0-1 .422-1.234.703-.047-.594-.547-.703-.906-.703-.578 0-.969.36-1.172.64-.047-.484-.453-.64-.75-.64s-.453.219-.547.375c-.156.265-.25.656-.25.703 0 .078.094.078.125.078.094 0 .094-.016.14-.203.11-.406.25-.75.516-.75.188 0 .235.156.235.344 0 .125-.063.39-.125.578-.047.187-.11.469-.14.625l-.235.89c-.016.094-.064.267-.064.282 0 .156.125.218.235.218a.377.377 0 0 0 .28-.14c.032-.063.079-.297.126-.438.031-.125.11-.453.14-.625.047-.156.094-.312.125-.468.079-.282.094-.344.297-.625.188-.282.516-.641 1.047-.641.39 0 .406.36.406.484 0 .172-.015.266-.124.657zm0 0"/></symbol><symbol id="c1" overflow="visible"><path d="m2.938-2.656c-.141-.235-.376-.422-.72-.422-.89 0-1.796.984-1.796 1.984 0 .688.453 1.157 1.062 1.157.375 0 .704-.204.985-.485.125.422.531.484.719.484.25 0 .421-.14.546-.359.157-.281.25-.672.25-.703 0-.094-.093-.094-.109-.094-.11 0-.11.032-.156.219-.094.344-.219.75-.516.75-.172 0-.234-.156-.234-.344 0-.11.062-.375.11-.547.046-.187.124-.468.155-.625l.141-.53c.047-.188.125-.517.125-.548 0-.156-.125-.219-.234-.219-.125 0-.282.079-.329.282zm-.438 1.781c-.047.203-.203.344-.36.469-.062.062-.343.281-.64.281-.266 0-.516-.188-.516-.672 0-.375.204-1.14.375-1.422.313-.562.672-.656.86-.656.484 0 .625.531.625.61 0 .015-.016.078-.016.093zm0 0"/></symbol><symbol id="c2" overflow="visible"><path d="m1.844-4.625c0-.016.031-.11.031-.11 0-.046-.031-.109-.125-.109-.14 0-.719.063-.89.078-.047 0-.157.016-.157.157 0 .093.11.093.188.093.328 0 .328.063.328.11s-.063.328-.11.484l-.156.64c-.062.251-.437 1.767-.453 1.861-.047.172-.047.266-.047.344 0 .703.453 1.14 1.031 1.14.875 0 1.797-.937 1.797-1.968 0-.813-.562-1.172-1.047-1.172-.359 0-.671.203-.875.39zm-.36 4.5c-.328 0-.53-.297-.53-.719 0-.25.062-.484.265-1.281.031-.125.031-.14.172-.297.265-.297.578-.453.828-.453.265 0 .5.203.5.672 0 .281-.14 1-.36 1.406-.171.344-.515.672-.875.672zm0 0"/></symbol><symbol id="c3" overflow="visible"><path d="m3.297 2.39c0-.03 0-.046-.172-.218-1.234-1.25-1.563-3.14-1.563-4.672 0-1.734.375-3.469 1.61-4.703.125-.125.125-.14.125-.172 0-.078-.031-.11-.094-.11-.11 0-1 .688-1.594 1.954-.499 1.093-.625 2.203-.625 3.031 0 .781.11 1.984.657 3.125.609 1.219 1.453 1.875 1.562 1.875.063 0 .094-.031.094-.11zm0 0"/></symbol><symbol id="c4" overflow="visible"><path d="m2.875-2.5c0-.766-.11-1.969-.656-3.11-.594-1.217-1.453-1.873-1.547-1.873a.107.107 0 0 0 -.11.109c0 .031 0 .047.188.234.984.985 1.547 2.563 1.547 4.641 0 1.719-.36 3.469-1.594 4.719-.14.125-.14.14-.14.172 0 .062.046.109.109.109.094 0 1-.688 1.578-1.953.516-1.094.625-2.203.625-3.047zm0 0"/></symbol><symbol id="c5" overflow="visible"><path d="m5.516-6.781h-5.188v.312h.234c.766 0 .797.11.797.469v5.219c0 .36-.03.469-.796.469h-.235v.312c.344-.031 1.125-.031 1.516-.031.406 0 1.312 0 1.672.031v-.313h-.329c-.937 0-.937-.124-.937-.468v-5.297c0-.328.016-.39.484-.39h1.032c1.421 0 1.625.593 1.78 1.937h.25zm0 0"/></symbol><symbol id="c6" overflow="visible"><path d="m2.328-4.438c0-.187 0-.187-.203-.187-.453.438-1.078.438-1.36.438v.25c.157 0 .626 0 1-.188v3.547c0 .234 0 .328-.687.328h-.266v.25c.125 0 .985-.031 1.235-.031.219 0 1.094.031 1.25.031v-.25h-.267c-.703 0-.703-.094-.703-.328zm0 0"/></symbol><symbol id="c7" overflow="visible"><path d="m3.516-1.266h-.236c-.015.157-.094.563-.187.625-.047.047-.578.047-.688.047h-1.28c.734-.64.984-.844 1.39-1.172.516-.406 1-.843 1-1.5 0-.843-.734-1.359-1.624-1.359-.86 0-1.454.61-1.454 1.25 0 .344.297.39.376.39a.365.365 0 0 0 .359-.374c0-.125-.047-.375-.406-.375.218-.485.687-.641 1.015-.641.703 0 1.063.547 1.063 1.11 0 .609-.438 1.078-.656 1.328l-1.672 1.671c-.079.063-.079.079-.079.266h2.876zm0 0"/></symbol><symbol id="c8" overflow="visible"><path d="m1.906-2.328c.547 0 .938.375.938 1.125 0 .86-.516 1.125-.906 1.125-.282 0-.907-.078-1.188-.5.328 0 .406-.235.406-.39 0-.22-.172-.376-.39-.376a.38.38 0 0 0 -.391.407c0 .656.719 1.077 1.563 1.077.968 0 1.64-.657 1.64-1.344 0-.547-.437-1.094-1.203-1.25.719-.266.984-.781.984-1.219 0-.547-.625-.953-1.406-.953-.766 0-1.36.375-1.36.938 0 .234.157.359.36.359.219 0 .36-.156.36-.344 0-.203-.141-.36-.36-.375.25-.297.719-.375.985-.375.312 0 .75.156.75.75 0 .297-.094.625-.282.828-.219.266-.422.281-.765.313-.172.015-.188.015-.22.015-.015 0-.077.016-.077.094 0 .094.062.094.187.094zm0 0"/></symbol><symbol id="c9" overflow="visible"><path d="m1.047-2.281c0-.563.047-1.078.312-1.516.235-.375.61-.625 1.063-.625.203 0 .484.047.625.234-.172.016-.328.141-.328.344a.32.32 0 0 0 .328.328c.219 0 .344-.14.344-.343 0-.407-.297-.766-.985-.766-1 0-2.031.922-2.031 2.422 0 1.797.844 2.343 1.625 2.343.844 0 1.578-.657 1.578-1.563 0-.89-.703-1.547-1.515-1.547-.563 0-.86.375-1.016.688zm.953 2.203c-.36 0-.625-.203-.781-.516-.094-.203-.157-.562-.157-.969 0-.687.407-1.203.97-1.203a.79.79 0 0 1 .702.375c.172.266.172.563.172.97 0 .39 0 .687-.187.968a.815.815 0 0 1 -.719.375zm0 0"/></symbol><symbol id="da" overflow="visible"><path d="m3.688-1.14v-.25h-.782v-3.11c0-.14 0-.203-.14-.203-.094 0-.125 0-.188.11l-2.312 3.201v.25h2.062v.563c0 .25 0 .328-.578.328h-.188v.251c.36-.016.797-.031 1.047-.031.266 0 .704.015 1.063.031v-.25h-.188c-.578 0-.578-.078-.578-.328v-.563zm-1.313-2.799v2.547h-1.844zm0 0"/></symbol><symbol id="db" overflow="visible"><path d="m1.078-3.89c.36.093.563.093.672.093.922 0 1.469-.625 1.469-.734 0-.078-.047-.094-.078-.094-.016 0-.032 0-.063.016-.172.062-.531.203-1.047.203-.203 0-.562-.016-1.015-.188-.079-.031-.094-.031-.094-.031-.094 0-.094.078-.094.188v2.046c0 .125 0 .204.11.204.062 0 .078 0 .14-.094.297-.375.734-.438.969-.438a.72.72 0 0 1 .64.39c.126.235.172.5.172.907 0 .203 0 .61-.218.922a.984.984 0 0 1 -.813.422c-.453 0-.922-.25-1.094-.719.266.016.407-.156.407-.344 0-.296-.266-.343-.36-.343 0 0-.344 0-.344.375 0 .625.579 1.25 1.407 1.25.89 0 1.672-.657 1.672-1.547 0-.782-.594-1.5-1.454-1.5-.312 0-.671.062-.984.328zm0 0"/></symbol><symbol id="dc" overflow="visible"><path d="m2.469-5.219c-1.313.922-1.672 2.407-1.672 3.469 0 .984.297 2.516 1.672 3.484.062 0 .14 0 .14-.078 0-.047-.015-.062-.062-.11-.938-.842-1.267-2.014-1.267-3.279 0-1.891.719-2.813 1.282-3.329.03-.03.046-.046.046-.078 0-.078-.078-.078-.14-.078zm0 0"/></symbol><symbol id="dd" overflow="visible"><path d="m.625-5.219c-.047 0-.125 0-.125.078 0 .032.016.047.063.11.593.547 1.265 1.484 1.265 3.281 0 1.453-.453 2.563-1.203 3.234-.125.126-.125.126-.125.172 0 .032.016.078.078.078.094 0 .75-.453 1.219-1.328.297-.578.5-1.328.5-2.14 0-.986-.297-2.516-1.672-3.486zm0 0"/></symbol><symbol id="de" overflow="visible"><path d="m6.563-2.297c.171 0 .359 0 .359-.203 0-.188-.188-.188-.36-.188h-5.39c-.172 0-.344 0-.344.188 0 .203.172.203.344.203zm0 0"/></symbol><path d="m35.433-.001c0 19.57-15.863 35.433-35.433 35.433s-35.434-15.862-35.434-35.432 15.863-35.435 35.434-35.435c19.57 0 35.433 15.865 35.433 35.435zm0 0" fill="none" stroke="#000" stroke-miterlimit="10" stroke-width=".79701" transform="matrix(1 0 0 -1 98.52 57.577)"/><path d="m-1.554 2.07c.127-.776 1.556-1.94 1.942-2.07-.389-.13-1.814-1.294-1.942-2.07" style="fill:none;stroke-width:.6376;stroke-linecap:round;stroke-linejoin:round;stroke:#000;stroke-miterlimit:10" transform="matrix(-.38301517 -.9236771 -.9236771 .38301517 131.535844 44.666361)"/><use x="119.131" xlink:href="#cG" y="48.157"/><use x="123.394" xlink:href="#cH" y="49.264"/><path d="m-1.553 2.075c.129-.78 1.553-1.945 1.942-2.075-.389-.128-1.814-1.294-1.945-2.07" style="fill:none;stroke-width:.6376;stroke-linecap:round;stroke-linejoin:round;stroke:#000;stroke-miterlimit:10" transform="matrix(-.92369715 -.3829668 -.3829668 .92369715 112.733827 25.102003)"/><use x="105.238" xlink:href="#cG" y="31.983"/><use x="109.501" xlink:href="#cI" y="33.09"/><path d="m-1.556 2.071c.13-.777 1.556-1.941 1.946-2.07-.389-.131-1.815-1.296-1.943-2.076" style="fill:none;stroke-width:.6376;stroke-linecap:round;stroke-linejoin:round;stroke:#000;stroke-miterlimit:10" transform="matrix(-.92368 .38301 .38301 .92368 85.61 24.561)"/><use x="83.258" xlink:href="#cG" y="31.984"/><use x="87.521" xlink:href="#cJ" y="33.091"/><path d="m-1.556 2.072c.133-.778 1.556-1.944 1.947-2.073-.391-.129-1.815-1.294-1.945-2.071" style="fill:none;stroke-width:.6376;stroke-linecap:round;stroke-linejoin:round;stroke:#000;stroke-miterlimit:10" transform="matrix(-.38297 .9237 .9237 .38297 66.045 43.362)"/><use x="69.494" xlink:href="#cG" y="48.322"/><use x="73.757" xlink:href="#cK" y="49.429"/><path d="m-1.552 2.071c.13-.776 1.554-1.941 1.939-2.071-.387-.127-1.81-1.296-1.94-2.072" style="fill:none;stroke-width:.6376;stroke-linecap:round;stroke-linejoin:round;stroke:#000;stroke-miterlimit:10" transform="matrix(.7071 .70708 .70708 -.7071 72.965 82.133)"/><use x="75.469" xlink:href="#cG" y="77.364"/><use x="79.732" xlink:href="#cL" y="78.471"/><path d="m-1.554 2.072c.13-.776 1.554-1.942 1.944-2.072-.389-.13-1.814-1.295-1.944-2.07" style="fill:none;stroke-width:.6376;stroke-linecap:round;stroke-linejoin:round;stroke:#000;stroke-miterlimit:10" transform="matrix(.7070803 -.70710498 -.70710498 -.7070803 123.077473 83.13225)"/><use x="112.938" xlink:href="#cG" y="77.363"/><use x="117.2" xlink:href="#cM" y="78.47"/><path d="m-1.554 2.07c.127-.776 1.556-1.94 1.942-2.07-.389-.13-1.814-1.294-1.942-2.07" style="fill:none;stroke-width:.6376;stroke-linecap:round;stroke-linejoin:round;stroke:#000;stroke-miterlimit:10" transform="matrix(-.38301517 -.9236771 -.9236771 .38301517 131.535844 44.666361)"/><use x="119.131" xlink:href="#cG" y="48.157"/><use x="123.394" xlink:href="#cH" y="49.264"/><path d="m-1.553 2.075c.129-.78 1.553-1.945 1.942-2.075-.389-.128-1.814-1.294-1.945-2.07" style="fill:none;stroke-width:.6376;stroke-linecap:round;stroke-linejoin:round;stroke:#000;stroke-miterlimit:10" transform="matrix(-.92369715 -.3829668 -.3829668 .92369715 112.733827 25.102003)"/><use x="105.238" xlink:href="#cG" y="31.983"/><use x="109.501" xlink:href="#cI" y="33.09"/><path d="m-1.556 2.071c.13-.777 1.556-1.941 1.946-2.07-.389-.131-1.815-1.296-1.943-2.076" style="fill:none;stroke-width:.6376;stroke-linecap:round;stroke-linejoin:round;stroke:#000;stroke-miterlimit:10" transform="matrix(-.92368 .38301 .38301 .92368 85.61 24.561)"/><use x="83.258" xlink:href="#cG" y="31.984"/><use x="87.521" xlink:href="#cJ" y="33.091"/><path d="m-1.556 2.072c.133-.778 1.556-1.944 1.947-2.073-.391-.129-1.815-1.294-1.945-2.071" style="fill:none;stroke-width:.6376;stroke-linecap:round;stroke-linejoin:round;stroke:#000;stroke-miterlimit:10" transform="matrix(-.38297 .9237 .9237 .38297 66.045 43.362)"/><use x="69.494" xlink:href="#cG" y="48.322"/><use x="73.757" xlink:href="#cK" y="49.429"/><path d="m-1.552 2.071c.13-.776 1.554-1.941 1.939-2.071-.387-.127-1.81-1.296-1.94-2.072" style="fill:none;stroke-width:.6376;stroke-linecap:round;stroke-linejoin:round;stroke:#000;stroke-miterlimit:10" transform="matrix(.7071 .70708 .70708 -.7071 72.965 82.133)"/><use x="75.469" xlink:href="#cG" y="77.364"/><use x="79.732" xlink:href="#cL" y="78.471"/><path d="m-1.554 2.072c.13-.776 1.554-1.942 1.944-2.072-.389-.13-1.814-1.295-1.944-2.07" style="fill:none;stroke-width:.6376;stroke-linecap:round;stroke-linejoin:round;stroke:#000;stroke-miterlimit:10" transform="matrix(.7070803 -.70710498 -.70710498 -.7070803 123.077473 83.13225)"/><use x="112.938" xlink:href="#cG" y="77.363"/><use x="117.2" xlink:href="#cM" y="78.47"/><path d="m-1.554 2.07c.127-.776 1.556-1.94 1.942-2.07-.389-.13-1.814-1.294-1.942-2.07" style="fill:none;stroke-width:.6376;stroke-linecap:round;stroke-linejoin:round;stroke:#000;stroke-miterlimit:10" transform="matrix(-.38301517 -.9236771 -.9236771 .38301517 131.535844 44.666361)"/><use x="119.131" xlink:href="#cG" y="48.157"/><use x="123.394" xlink:href="#cH" y="49.264"/><path d="m-1.553 2.075c.129-.78 1.553-1.945 1.942-2.075-.389-.128-1.814-1.294-1.945-2.07" style="fill:none;stroke-width:.6376;stroke-linecap:round;stroke-linejoin:round;stroke:#000;stroke-miterlimit:10" transform="matrix(-.92369715 -.3829668 -.3829668 .92369715 112.733827 25.102003)"/><use x="105.238" xlink:href="#cG" y="31.983"/><use x="109.501" xlink:href="#cI" y="33.09"/><path d="m-1.556 2.071c.13-.777 1.556-1.941 1.946-2.07-.389-.131-1.815-1.296-1.943-2.076" style="fill:none;stroke-width:.6376;stroke-linecap:round;stroke-linejoin:round;stroke:#000;stroke-miterlimit:10" transform="matrix(-.92368 .38301 .38301 .92368 85.61 24.561)"/><use x="83.258" xlink:href="#cG" y="31.984"/><use x="87.521" xlink:href="#cJ" y="33.091"/><path d="m-1.556 2.072c.133-.778 1.556-1.944 1.947-2.073-.391-.129-1.815-1.294-1.945-2.071" style="fill:none;stroke-width:.6376;stroke-linecap:round;stroke-linejoin:round;stroke:#000;stroke-miterlimit:10" transform="matrix(-.38297 .9237 .9237 .38297 66.045 43.362)"/><use x="69.494" xlink:href="#cG" y="48.322"/><use x="73.757" xlink:href="#cK" y="49.429"/><path d="m-1.552 2.071c.13-.776 1.554-1.941 1.939-2.071-.387-.127-1.81-1.296-1.94-2.072" style="fill:none;stroke-width:.6376;stroke-linecap:round;stroke-linejoin:round;stroke:#000;stroke-miterlimit:10" transform="matrix(.7071 .70708 .70708 -.7071 72.965 82.133)"/><use x="75.469" xlink:href="#cG" y="77.364"/><use x="79.732" xlink:href="#cL" y="78.471"/><path d="m-1.554 2.072c.13-.776 1.554-1.942 1.944-2.072-.389-.13-1.814-1.295-1.944-2.07" style="fill:none;stroke-width:.6376;stroke-linecap:round;stroke-linejoin:round;stroke:#000;stroke-miterlimit:10" transform="matrix(.7070803 -.70710498 -.70710498 -.7070803 123.077473 83.13225)"/><use x="112.938" xlink:href="#cG" y="77.363"/><use x="117.2" xlink:href="#cM" y="78.47"/><path d="m-1.554 2.07c.127-.776 1.556-1.94 1.942-2.07-.389-.13-1.814-1.294-1.942-2.07" style="fill:none;stroke-width:.6376;stroke-linecap:round;stroke-linejoin:round;stroke:#000;stroke-miterlimit:10" transform="matrix(-.38301517 -.9236771 -.9236771 .38301517 131.535844 44.666361)"/><use x="119.131" xlink:href="#cG" y="48.157"/><use x="123.394" xlink:href="#cH" y="49.264"/><path d="m-1.553 2.075c.129-.78 1.553-1.945 1.942-2.075-.389-.128-1.814-1.294-1.945-2.07" style="fill:none;stroke-width:.6376;stroke-linecap:round;stroke-linejoin:round;stroke:#000;stroke-miterlimit:10" transform="matrix(-.92369715 -.3829668 -.3829668 .92369715 112.733827 25.102003)"/><use x="105.238" xlink:href="#cG" y="31.983"/><use x="109.501" xlink:href="#cI" y="33.09"/><path d="m-1.556 2.071c.13-.777 1.556-1.941 1.946-2.07-.389-.131-1.815-1.296-1.943-2.076" style="fill:none;stroke-width:.6376;stroke-linecap:round;stroke-linejoin:round;stroke:#000;stroke-miterlimit:10" transform="matrix(-.92368 .38301 .38301 .92368 85.61 24.561)"/><use x="83.258" xlink:href="#cG" y="31.984"/><use x="87.521" xlink:href="#cJ" y="33.091"/><path d="m-1.556 2.072c.133-.778 1.556-1.944 1.947-2.073-.391-.129-1.815-1.294-1.945-2.071" style="fill:none;stroke-width:.6376;stroke-linecap:round;stroke-linejoin:round;stroke:#000;stroke-miterlimit:10" transform="matrix(-.38297 .9237 .9237 .38297 66.045 43.362)"/><use x="69.494" xlink:href="#cG" y="48.322"/><use x="73.757" xlink:href="#cK" y="49.429"/><path d="m-1.552 2.071c.13-.776 1.554-1.941 1.939-2.071-.387-.127-1.81-1.296-1.94-2.072" style="fill:none;stroke-width:.6376;stroke-linecap:round;stroke-linejoin:round;stroke:#000;stroke-miterlimit:10" transform="matrix(.7071 .70708 .70708 -.7071 72.965 82.133)"/><use x="75.469" xlink:href="#cG" y="77.364"/><use x="79.732" xlink:href="#cL" y="78.471"/><path d="m-1.554 2.072c.13-.776 1.554-1.942 1.944-2.072-.389-.13-1.814-1.295-1.944-2.07" style="fill:none;stroke-width:.6376;stroke-linecap:round;stroke-linejoin:round;stroke:#000;stroke-miterlimit:10" transform="matrix(.7070803 -.70710498 -.70710498 -.7070803 123.077473 83.13225)"/><use x="112.938" xlink:href="#cG" y="77.363"/><use x="117.2" xlink:href="#cM" y="78.47"/><path d="m-1.554 2.07c.127-.776 1.556-1.94 1.942-2.07-.389-.13-1.814-1.294-1.942-2.07" style="fill:none;stroke-width:.6376;stroke-linecap:round;stroke-linejoin:round;stroke:#000;stroke-miterlimit:10" transform="matrix(-.38301517 -.9236771 -.9236771 .38301517 131.535844 44.666361)"/><use x="119.131" xlink:href="#cG" y="48.157"/><use x="123.394" xlink:href="#cH" y="49.264"/><path d="m-1.553 2.075c.129-.78 1.553-1.945 1.942-2.075-.389-.128-1.814-1.294-1.945-2.07" style="fill:none;stroke-width:.6376;stroke-linecap:round;stroke-linejoin:round;stroke:#000;stroke-miterlimit:10" transform="matrix(-.92369715 -.3829668 -.3829668 .92369715 112.733827 25.102003)"/><use x="105.238" xlink:href="#cG" y="31.983"/><use x="109.501" xlink:href="#cI" y="33.09"/><path d="m-1.556 2.071c.13-.777 1.556-1.941 1.946-2.07-.389-.131-1.815-1.296-1.943-2.076" style="fill:none;stroke-width:.6376;stroke-linecap:round;stroke-linejoin:round;stroke:#000;stroke-miterlimit:10" transform="matrix(-.92368 .38301 .38301 .92368 85.61 24.561)"/><use x="83.258" xlink:href="#cG" y="31.984"/><use x="87.521" xlink:href="#cJ" y="33.091"/><path d="m-1.556 2.072c.133-.778 1.556-1.944 1.947-2.073-.391-.129-1.815-1.294-1.945-2.071" style="fill:none;stroke-width:.6376;stroke-linecap:round;stroke-linejoin:round;stroke:#000;stroke-miterlimit:10" transform="matrix(-.38297 .9237 .9237 .38297 66.045 43.362)"/><use x="69.494" xlink:href="#cG" y="48.322"/><use x="73.757" xlink:href="#cK" y="49.429"/><path d="m-1.552 2.071c.13-.776 1.554-1.941 1.939-2.071-.387-.127-1.81-1.296-1.94-2.072" style="fill:none;stroke-width:.6376;stroke-linecap:round;stroke-linejoin:round;stroke:#000;stroke-miterlimit:10" transform="matrix(.7071 .70708 .70708 -.7071 72.965 82.133)"/><use x="75.469" xlink:href="#cG" y="77.364"/><use x="79.732" xlink:href="#cL" y="78.471"/><path d="m-1.554 2.072c.13-.776 1.554-1.942 1.944-2.072-.389-.13-1.814-1.295-1.944-2.07" style="fill:none;stroke-width:.6376;stroke-linecap:round;stroke-linejoin:round;stroke:#000;stroke-miterlimit:10" transform="matrix(.7070803 -.70710498 -.70710498 -.7070803 123.077473 83.13225)"/><use x="112.938" xlink:href="#cG" y="77.363"/><use x="117.2" xlink:href="#cM" y="78.47"/><path d="m-1.554 2.07c.127-.776 1.556-1.94 1.942-2.07-.389-.13-1.814-1.294-1.942-2.07" style="fill:none;stroke-width:.6376;stroke-linecap:round;stroke-linejoin:round;stroke:#000;stroke-miterlimit:10" transform="matrix(-.38301517 -.9236771 -.9236771 .38301517 131.535844 44.666361)"/><use x="119.131" xlink:href="#cG" y="48.157"/><use x="123.394" xlink:href="#cH" y="49.264"/><path d="m-1.553 2.075c.129-.78 1.553-1.945 1.942-2.075-.389-.128-1.814-1.294-1.945-2.07" style="fill:none;stroke-width:.6376;stroke-linecap:round;stroke-linejoin:round;stroke:#000;stroke-miterlimit:10" transform="matrix(-.92369715 -.3829668 -.3829668 .92369715 112.733827 25.102003)"/><use x="105.238" xlink:href="#cG" y="31.983"/><use x="109.501" xlink:href="#cI" y="33.09"/><path d="m-1.556 2.071c.13-.777 1.556-1.941 1.946-2.07-.389-.131-1.815-1.296-1.943-2.076" style="fill:none;stroke-width:.6376;stroke-linecap:round;stroke-linejoin:round;stroke:#000;stroke-miterlimit:10" transform="matrix(-.92368 .38301 .38301 .92368 85.61 24.561)"/><use x="83.258" xlink:href="#cG" y="31.984"/><use x="87.521" xlink:href="#cJ" y="33.091"/><path d="m-1.556 2.072c.133-.778 1.556-1.944 1.947-2.073-.391-.129-1.815-1.294-1.945-2.071" style="fill:none;stroke-width:.6376;stroke-linecap:round;stroke-linejoin:round;stroke:#000;stroke-miterlimit:10" transform="matrix(-.38297 .9237 .9237 .38297 66.045 43.362)"/><use x="69.494" xlink:href="#cG" y="48.322"/><use x="73.757" xlink:href="#cK" y="49.429"/><path d="m-1.552 2.071c.13-.776 1.554-1.941 1.939-2.071-.387-.127-1.81-1.296-1.94-2.072" style="fill:none;stroke-width:.6376;stroke-linecap:round;stroke-linejoin:round;stroke:#000;stroke-miterlimit:10" transform="matrix(.7071 .70708 .70708 -.7071 72.965 82.133)"/><use x="75.469" xlink:href="#cG" y="77.364"/><use x="79.732" xlink:href="#cL" y="78.471"/><path d="m-1.554 2.072c.13-.776 1.554-1.942 1.944-2.072-.389-.13-1.814-1.295-1.944-2.07" style="fill:none;stroke-width:.6376;stroke-linecap:round;stroke-linejoin:round;stroke:#000;stroke-miterlimit:10" transform="matrix(.7070803 -.70710498 -.70710498 -.7070803 123.077473 83.13225)"/><use x="112.938" xlink:href="#cG" y="77.363"/><use x="117.2" xlink:href="#cM" y="78.47"/><path d="m102.063 22.145a3.543 3.543 0 1 0 -7.086-.001 3.543 3.543 0 0 0 7.085 0zm0 0" fill="#fff"/><g clip-path="url(#a)"><g clip-path="url(#b)"><path d="m3.542 31.89-7.085 7.085m0-7.085 7.085 7.085" fill="none" stroke="#000" stroke-miterlimit="10" stroke-width=".3985" transform="matrix(1 0 0 -1 98.52 57.577)"/></g></g><path d="m3.542 35.432a3.543 3.543 0 1 1 -7.085.001 3.543 3.543 0 0 1 7.085 0zm0 0" fill="none" stroke="#000" stroke-miterlimit="10" stroke-width=".3985" transform="matrix(1 0 0 -1 98.52 57.577)"/><use x="67.179" xlink:href="#cN" y="10.793"/><use x="72.468" xlink:href="#cU" y="12.287"/><use x="77.37" xlink:href="#cO" y="10.793"/><use x="84.934" xlink:href="#cU" y="12.287"/><g><use x="89.337" xlink:href="#cV" y="12.287"/><use x="91.703" xlink:href="#cW" y="12.287"/><use x="94.522" xlink:href="#cX" y="12.287"/></g><use x="98.721" xlink:href="#c3" y="10.793"/><use x="102.595" xlink:href="#cP" y="10.793"/><use x="107.608" xlink:href="#c6" y="12.287"/><use x="112.077" xlink:href="#cQ" y="10.793"/><use x="116.508" xlink:href="#cP" y="10.793"/><use x="121.517" xlink:href="#c7" y="12.287"/><use x="125.987" xlink:href="#c4" y="10.793"/><path d="m-21.512 25.054a3.546 3.546 0 0 1 -3.543 3.546 3.546 3.546 0 0 1 0-7.09 3.543 3.543 0 0 1 3.543 3.544zm0 0" fill="#fff" stroke="#000" stroke-miterlimit="10" stroke-width=".3985" transform="matrix(1 0 0 -1 98.52 57.577)"/><g clip-path="url(#c)"><g clip-path="url(#d)"><path d="m0 0 3.089 3.09" fill="none" stroke="#000" stroke-miterlimit="10" stroke-width=".3985" transform="matrix(1 0 0 -1 68.743 38.441)"/></g></g><g clip-path="url(#e)"><g clip-path="url(#f)"><path d="m-.001 0 3.09 3.09" fill="none" stroke="#000" stroke-miterlimit="10" stroke-width=".3985" transform="matrix(1 0 0 -1 71.732 38.441)"/></g></g><g clip-path="url(#g)"><g clip-path="url(#h)"><path d="m.002 0 3.086 3.09" fill="none" stroke="#000" stroke-miterlimit="10" stroke-width=".3985" transform="matrix(1 0 0 -1 74.72 38.441)"/></g></g><g clip-path="url(#i)"><g clip-path="url(#j)"><path d="m.001 0 3.086 3.09" fill="none" stroke="#000" stroke-miterlimit="10" stroke-width=".3985" transform="matrix(1 0 0 -1 77.71 38.441)"/></g></g><g clip-path="url(#k)"><g clip-path="url(#l)"><path d="m0 0 3.089 3.09" fill="none" stroke="#000" stroke-miterlimit="10" stroke-width=".3985" transform="matrix(1 0 0 -1 68.743 35.452)"/></g></g><g clip-path="url(#m)"><g clip-path="url(#n)"><path d="m-.001 0 3.09 3.09" fill="none" stroke="#000" stroke-miterlimit="10" stroke-width=".3985" transform="matrix(1 0 0 -1 71.732 35.452)"/></g></g><g clip-path="url(#o)"><g clip-path="url(#p)"><path d="m.002 0 3.086 3.09" fill="none" stroke="#000" stroke-miterlimit="10" stroke-width=".3985" transform="matrix(1 0 0 -1 74.72 35.452)"/></g></g><g clip-path="url(#q)"><g clip-path="url(#r)"><path d="m.001 0 3.086 3.09" fill="none" stroke="#000" stroke-miterlimit="10" stroke-width=".3985" transform="matrix(1 0 0 -1 77.71 35.452)"/></g></g><g clip-path="url(#s)"><g clip-path="url(#t)"><path d="m0-.001 3.089 3.09" fill="none" stroke="#000" stroke-miterlimit="10" stroke-width=".3985" transform="matrix(1 0 0 -1 68.743 32.464)"/></g></g><g clip-path="url(#u)"><g clip-path="url(#v)"><path d="m-.001-.001 3.09 3.09" fill="none" stroke="#000" stroke-miterlimit="10" stroke-width=".3985" transform="matrix(1 0 0 -1 71.732 32.464)"/></g></g><g clip-path="url(#w)"><g clip-path="url(#x)"><path d="m.002-.001 3.086 3.09" fill="none" stroke="#000" stroke-miterlimit="10" stroke-width=".3985" transform="matrix(1 0 0 -1 74.72 32.464)"/></g></g><g clip-path="url(#y)"><g clip-path="url(#z)"><path d="m.001-.001 3.086 3.09" fill="none" stroke="#000" stroke-miterlimit="10" stroke-width=".3985" transform="matrix(1 0 0 -1 77.71 32.464)"/></g></g><g clip-path="url(#A)"><g clip-path="url(#B)"><path d="m0-.002 3.089 3.09" fill="none" stroke="#000" stroke-miterlimit="10" stroke-width=".3985" transform="matrix(1 0 0 -1 68.743 29.475)"/></g></g><g clip-path="url(#C)"><g clip-path="url(#D)"><path d="m-.001-.002 3.09 3.09" fill="none" stroke="#000" stroke-miterlimit="10" stroke-width=".3985" transform="matrix(1 0 0 -1 71.732 29.475)"/></g></g><g clip-path="url(#E)"><g clip-path="url(#F)"><path d="m.002-.002 3.086 3.09" fill="none" stroke="#000" stroke-miterlimit="10" stroke-width=".3985" transform="matrix(1 0 0 -1 74.72 29.475)"/></g></g><g clip-path="url(#G)"><g clip-path="url(#H)"><path d="m.001-.002 3.086 3.09" fill="none" stroke="#000" stroke-miterlimit="10" stroke-width=".3985" transform="matrix(1 0 0 -1 77.71 29.475)"/></g></g><use x="15.601" xlink:href="#cR" y="26.152"/><use x="23.434" xlink:href="#cU" y="27.647"/><g><use x="27.837" xlink:href="#cV" y="27.647"/><use x="30.203" xlink:href="#cX" y="27.647"/></g><use x="33.904" xlink:href="#cU" y="27.647"/><use x="38.805" xlink:href="#c3" y="26.152"/><use x="42.68" xlink:href="#cP" y="26.152"/><use x="47.692" xlink:href="#c7" y="27.647"/><use x="52.161" xlink:href="#cQ" y="26.152"/><use x="56.592" xlink:href="#cP" y="26.152"/><use x="61.602" xlink:href="#c8" y="27.647"/><use x="66.071" xlink:href="#c4" y="26.152"/><path d="m28.597 25.054a3.546 3.546 0 0 1 -3.543 3.546 3.546 3.546 0 0 1 0-7.09 3.543 3.543 0 0 1 3.543 3.544zm0 0" fill="#fff" stroke="#000" stroke-miterlimit="10" stroke-width=".3985" transform="matrix(1 0 0 -1 98.52 57.577)"/><g clip-path="url(#I)"><g clip-path="url(#J)"><path d="m-.002 0 3.09 3.09" fill="none" stroke="#000" stroke-miterlimit="10" stroke-width=".3985" transform="matrix(1 0 0 -1 116.564 38.441)"/></g></g><g clip-path="url(#K)"><g clip-path="url(#L)"><path d="m.001 0 3.086 3.09" fill="none" stroke="#000" stroke-miterlimit="10" stroke-width=".3985" transform="matrix(1 0 0 -1 119.553 38.441)"/></g></g><g clip-path="url(#M)"><g clip-path="url(#N)"><path d="m0 0 3.087 3.09" fill="none" stroke="#000" stroke-miterlimit="10" stroke-width=".3985" transform="matrix(1 0 0 -1 122.542 38.441)"/></g></g><g clip-path="url(#O)"><g clip-path="url(#P)"><path d="m0 0 3.09 3.09" fill="none" stroke="#000" stroke-miterlimit="10" stroke-width=".3985" transform="matrix(1 0 0 -1 125.53 38.441)"/></g></g><g clip-path="url(#Q)"><g clip-path="url(#R)"><path d="m-.002 0 3.09 3.09" fill="none" stroke="#000" stroke-miterlimit="10" stroke-width=".3985" transform="matrix(1 0 0 -1 116.564 35.452)"/></g></g><g clip-path="url(#S)"><g clip-path="url(#T)"><path d="m.001 0 3.086 3.09" fill="none" stroke="#000" stroke-miterlimit="10" stroke-width=".3985" transform="matrix(1 0 0 -1 119.553 35.452)"/></g></g><g clip-path="url(#U)"><g clip-path="url(#V)"><path d="m0 0 3.087 3.09" fill="none" stroke="#000" stroke-miterlimit="10" stroke-width=".3985" transform="matrix(1 0 0 -1 122.542 35.452)"/></g></g><g clip-path="url(#W)"><g clip-path="url(#X)"><path d="m0 0 3.09 3.09" fill="none" stroke="#000" stroke-miterlimit="10" stroke-width=".3985" transform="matrix(1 0 0 -1 125.53 35.452)"/></g></g><g clip-path="url(#Y)"><g clip-path="url(#Z)"><path d="m-.002-.001 3.09 3.09" fill="none" stroke="#000" stroke-miterlimit="10" stroke-width=".3985" transform="matrix(1 0 0 -1 116.564 32.464)"/></g></g><g clip-path="url(#aa)"><g clip-path="url(#ab)"><path d="m.001-.001 3.086 3.09" fill="none" stroke="#000" stroke-miterlimit="10" stroke-width=".3985" transform="matrix(1 0 0 -1 119.553 32.464)"/></g></g><g clip-path="url(#ac)"><g clip-path="url(#ad)"><path d="m0-.001 3.087 3.09" fill="none" stroke="#000" stroke-miterlimit="10" stroke-width=".3985" transform="matrix(1 0 0 -1 122.542 32.464)"/></g></g><g clip-path="url(#ae)"><g clip-path="url(#af)"><path d="m0-.001 3.09 3.09" fill="none" stroke="#000" stroke-miterlimit="10" stroke-width=".3985" transform="matrix(1 0 0 -1 125.53 32.464)"/></g></g><g clip-path="url(#ag)"><g clip-path="url(#ah)"><path d="m-.002-.002 3.09 3.09" fill="none" stroke="#000" stroke-miterlimit="10" stroke-width=".3985" transform="matrix(1 0 0 -1 116.564 29.475)"/></g></g><g clip-path="url(#ai)"><g clip-path="url(#aj)"><path d="m.001-.002 3.086 3.09" fill="none" stroke="#000" stroke-miterlimit="10" stroke-width=".3985" transform="matrix(1 0 0 -1 119.553 29.475)"/></g></g><g clip-path="url(#ak)"><g clip-path="url(#al)"><path d="m0-.002 3.087 3.09" fill="none" stroke="#000" stroke-miterlimit="10" stroke-width=".3985" transform="matrix(1 0 0 -1 122.542 29.475)"/></g></g><g clip-path="url(#am)"><g clip-path="url(#an)"><path d="m0-.002 3.09 3.09" fill="none" stroke="#000" stroke-miterlimit="10" stroke-width=".3985" transform="matrix(1 0 0 -1 125.53 29.475)"/></g></g><use x="127.095" xlink:href="#cR" y="26.152"/><use x="134.928" xlink:href="#cU" y="27.647"/><g><use x="139.331" xlink:href="#cV" y="27.647"/><use x="141.697" xlink:href="#cY" y="27.647"/><use x="146.622" xlink:href="#cW" y="27.647"/></g><use x="149.939" xlink:href="#c3" y="26.152"/><use x="153.814" xlink:href="#cP" y="26.152"/><use x="158.826" xlink:href="#c9" y="27.647"/><use x="163.295" xlink:href="#cQ" y="26.152"/><use x="167.726" xlink:href="#cP" y="26.152"/><use x="172.736" xlink:href="#c6" y="27.647"/><use x="177.205" xlink:href="#c4" y="26.152"/><path d="m3.542-35.435a3.543 3.543 0 1 1 -7.085.001 3.543 3.543 0 0 1 7.085 0zm0 0" fill="#fff" stroke="#000" stroke-miterlimit="10" stroke-width=".3985" transform="matrix(1 0 0 -1 98.52 57.577)"/><g clip-path="url(#ao)"><g clip-path="url(#ap)"><path d="m-.001 0 3.09 3.089" fill="none" stroke="#000" stroke-miterlimit="10" stroke-width=".3985" transform="matrix(1 0 0 -1 92.654 98.218)"/></g></g><g clip-path="url(#aq)"><g clip-path="url(#ar)"><path d="m-.002 0 3.09 3.089" fill="none" stroke="#000" stroke-miterlimit="10" stroke-width=".3985" transform="matrix(1 0 0 -1 95.643 98.218)"/></g></g><g clip-path="url(#as)"><g clip-path="url(#at)"><path d="m.001 0 3.086 3.089" fill="none" stroke="#000" stroke-miterlimit="10" stroke-width=".3985" transform="matrix(1 0 0 -1 98.631 98.218)"/></g></g><g clip-path="url(#au)"><g clip-path="url(#av)"><path d="m0 0 3.087 3.089" fill="none" stroke="#000" stroke-miterlimit="10" stroke-width=".3985" transform="matrix(1 0 0 -1 101.62 98.218)"/></g></g><g clip-path="url(#aw)"><g clip-path="url(#ax)"><path d="m-.001-.001 3.09 3.09" fill="none" stroke="#000" stroke-miterlimit="10" stroke-width=".3985" transform="matrix(1 0 0 -1 92.654 95.229)"/></g></g><g clip-path="url(#ay)"><g clip-path="url(#az)"><path d="m-.002-.001 3.09 3.09" fill="none" stroke="#000" stroke-miterlimit="10" stroke-width=".3985" transform="matrix(1 0 0 -1 95.643 95.229)"/></g></g><g clip-path="url(#aA)"><g clip-path="url(#aB)"><path d="m.001-.001 3.086 3.09" fill="none" stroke="#000" stroke-miterlimit="10" stroke-width=".3985" transform="matrix(1 0 0 -1 98.631 95.229)"/></g></g><g clip-path="url(#aC)"><g clip-path="url(#aD)"><path d="m0-.001 3.087 3.09" fill="none" stroke="#000" stroke-miterlimit="10" stroke-width=".3985" transform="matrix(1 0 0 -1 101.62 95.229)"/></g></g><g clip-path="url(#aE)"><g clip-path="url(#aF)"><path d="m-.001.002 3.09 3.086" fill="none" stroke="#000" stroke-miterlimit="10" stroke-width=".3985" transform="matrix(1 0 0 -1 92.654 92.24)"/></g></g><g clip-path="url(#aG)"><g clip-path="url(#aH)"><path d="m-.002.002 3.09 3.086" fill="none" stroke="#000" stroke-miterlimit="10" stroke-width=".3985" transform="matrix(1 0 0 -1 95.643 92.24)"/></g></g><g clip-path="url(#aI)"><g clip-path="url(#aJ)"><path d="m.001.002 3.086 3.086" fill="none" stroke="#000" stroke-miterlimit="10" stroke-width=".3985" transform="matrix(1 0 0 -1 98.631 92.24)"/></g></g><g clip-path="url(#aK)"><g clip-path="url(#aL)"><path d="m0 .002 3.087 3.086" fill="none" stroke="#000" stroke-miterlimit="10" stroke-width=".3985" transform="matrix(1 0 0 -1 101.62 92.24)"/></g></g><g clip-path="url(#aM)"><g clip-path="url(#aN)"><path d="m-.001.001 3.09 3.086" fill="none" stroke="#000" stroke-miterlimit="10" stroke-width=".3985" transform="matrix(1 0 0 -1 92.654 89.251)"/></g></g><g clip-path="url(#aO)"><g clip-path="url(#aP)"><path d="m-.002.001 3.09 3.086" fill="none" stroke="#000" stroke-miterlimit="10" stroke-width=".3985" transform="matrix(1 0 0 -1 95.643 89.251)"/></g></g><g clip-path="url(#aQ)"><g clip-path="url(#aR)"><path d="m.001.001 3.086 3.086" fill="none" stroke="#000" stroke-miterlimit="10" stroke-width=".3985" transform="matrix(1 0 0 -1 98.631 89.251)"/></g></g><g clip-path="url(#aS)"><g clip-path="url(#aT)"><path d="m0 .001 3.087 3.086" fill="none" stroke="#000" stroke-miterlimit="10" stroke-width=".3985" transform="matrix(1 0 0 -1 101.62 89.251)"/></g></g><use x="70.585" xlink:href="#cR" y="106.991"/><use x="78.418" xlink:href="#cU" y="108.485"/><g><use x="82.821" xlink:href="#cV" y="108.485"/><use x="85.187" xlink:href="#cZ" y="108.485"/></g><use x="87.748" xlink:href="#c0" y="108.485"/><use x="95.315" xlink:href="#c3" y="106.991"/><use x="99.19" xlink:href="#cP" y="106.991"/><use x="104.202" xlink:href="#da" y="108.485"/><use x="108.671" xlink:href="#cQ" y="106.991"/><use x="113.102" xlink:href="#cP" y="106.991"/><use x="118.112" xlink:href="#db" y="108.485"/><use x="122.581" xlink:href="#c4" y="106.991"/><path d="m-70.868-.001h35.434" fill="none" stroke="#000" stroke-miterlimit="10" stroke-width=".3985" transform="matrix(1 0 0 -1 98.52 57.577)"/><use x="36.159" xlink:href="#cS" y="65.387"/><use x="42.676" xlink:href="#c1" y="66.881"/><path d="m-65.887 4.983h16.031" fill="none" stroke="#000" stroke-miterlimit="10" stroke-width=".59776" transform="matrix(1 0 0 -1 98.52 57.577)"/><path d="m-1.375 1.834c.113-.688 1.375-1.719 1.719-1.832-.344-.117-1.606-1.149-1.719-1.836" style="fill:none;stroke-width:.4782;stroke-linecap:round;stroke-linejoin:round;stroke:#000;stroke-miterlimit:10" transform="matrix(1 0 0 -1 48.664 52.596)"/><use x="36.483" xlink:href="#cT" y="47.04"/><use x="40.93" xlink:href="#c6" y="48.534"/><path d="m35.433-.001h35.434" fill="none" stroke="#000" stroke-miterlimit="10" stroke-width=".3985" transform="matrix(1 0 0 -1 98.52 57.577)"/><use x="149.954" xlink:href="#cS" y="65.387"/><use x="156.471" xlink:href="#c2" y="66.881"/><path d="m49.273 4.983h16.031" fill="none" stroke="#000" stroke-miterlimit="10" stroke-width=".59776" transform="matrix(1 0 0 -1 98.52 57.577)"/><path d="m-1.374 1.834c.114-.688 1.375-1.719 1.72-1.832-.346-.117-1.606-1.149-1.721-1.836" style="fill:none;stroke-width:.4782;stroke-linecap:round;stroke-linejoin:round;stroke:#000;stroke-miterlimit:10" transform="matrix(1 0 0 -1 163.823 52.596)"/><use x="151.64" xlink:href="#cT" y="47.04"/><use x="156.088" xlink:href="#c7" y="48.534"/><use x="3.321" xlink:href="#c5" y="96.033"/><g><use x="9.547" xlink:href="#dc" y="90.858"/><use x="12.66" xlink:href="#c8" y="90.858"/><use x="16.632" xlink:href="#dd" y="90.858"/></g><use x="9.547" xlink:href="#cU" y="99.038"/><g><use x="13.95" xlink:href="#cV" y="99.038"/><use x="16.316" xlink:href="#c1" y="99.038"/><use x="20.637" xlink:href="#cU" y="99.038"/></g><use x="25.04" xlink:href="#cZ" y="99.038"/><use x="28.1" xlink:href="#c3" y="96.033"/><use x="31.974" xlink:href="#cT" y="96.033"/><use x="36.422" xlink:href="#c6" y="97.527"/><use x="40.891" xlink:href="#cQ" y="96.033"/><use x="45.322" xlink:href="#cP" y="96.033"/><use x="50.332" xlink:href="#c8" y="97.527"/><use x="54.801" xlink:href="#cQ" y="96.033"/><use x="59.229" xlink:href="#de" y="96.033"/><use x="66.977" xlink:href="#cP" y="96.033"/><use x="71.99" xlink:href="#da" y="97.527"/><use x="76.459" xlink:href="#c4" y="96.033"/><path d="m-53.465-30.048 18.03 30.047" fill="none" stroke="#808080" stroke-miterlimit="10" stroke-width=".3985" transform="matrix(1 0 0 -1 98.52 57.577)"/><path d="m-30.118-.001a5.315 5.315 0 1 1 -10.63.003 5.315 5.315 0 0 1 10.631-.002zm0 0" fill="#fff" stroke="#000" stroke-miterlimit="10" stroke-width=".3985" transform="matrix(1 0 0 -1 98.52 57.577)"/><g clip-path="url(#aU)"><g clip-path="url(#aV)"><path d="m.002 0 3.086 3.087" fill="none" stroke="#000" stroke-miterlimit="10" stroke-width=".3985" transform="matrix(1 0 0 -1 53.799 65.34)"/></g></g><g clip-path="url(#aW)"><g clip-path="url(#aX)"><path d="m.001 0 3.086 3.087" fill="none" stroke="#000" stroke-miterlimit="10" stroke-width=".3985" transform="matrix(1 0 0 -1 56.788 65.34)"/></g></g><g clip-path="url(#aY)"><g clip-path="url(#aZ)"><path d="m0 0 3.087 3.087" fill="none" stroke="#000" stroke-miterlimit="10" stroke-width=".3985" transform="matrix(1 0 0 -1 59.777 65.34)"/></g></g><g clip-path="url(#a0)"><g clip-path="url(#a1)"><path d="m0 0 3.09 3.087" fill="none" stroke="#000" stroke-miterlimit="10" stroke-width=".3985" transform="matrix(1 0 0 -1 62.765 65.34)"/></g></g><g clip-path="url(#a2)"><g clip-path="url(#a3)"><path d="m0 0 3.09 3.087" fill="none" stroke="#000" stroke-miterlimit="10" stroke-width=".3985" transform="matrix(1 0 0 -1 65.754 65.34)"/></g></g><g clip-path="url(#a4)"><g clip-path="url(#a5)"><path d="m0 0 3.089 3.087" fill="none" stroke="#000" stroke-miterlimit="10" stroke-width=".3985" transform="matrix(1 0 0 -1 68.743 65.34)"/></g></g><g clip-path="url(#a6)"><g clip-path="url(#a7)"><path d="m.002 0 3.086 3.09" fill="none" stroke="#000" stroke-miterlimit="10" stroke-width=".3985" transform="matrix(1 0 0 -1 53.799 62.352)"/></g></g><g clip-path="url(#a8)"><g clip-path="url(#a9)"><path d="m.001 0 3.086 3.09" fill="none" stroke="#000" stroke-miterlimit="10" stroke-width=".3985" transform="matrix(1 0 0 -1 56.788 62.352)"/></g></g><g clip-path="url(#ba)"><g clip-path="url(#bb)"><path d="m0 0 3.087 3.09" fill="none" stroke="#000" stroke-miterlimit="10" stroke-width=".3985" transform="matrix(1 0 0 -1 59.777 62.352)"/></g></g><g clip-path="url(#bc)"><g clip-path="url(#bd)"><path d="m0 0 3.09 3.09" fill="none" stroke="#000" stroke-miterlimit="10" stroke-width=".3985" transform="matrix(1 0 0 -1 62.765 62.352)"/></g></g><g clip-path="url(#be)"><g clip-path="url(#bf)"><path d="m0 0 3.09 3.09" fill="none" stroke="#000" stroke-miterlimit="10" stroke-width=".3985" transform="matrix(1 0 0 -1 65.754 62.352)"/></g></g><g clip-path="url(#bg)"><g clip-path="url(#bh)"><path d="m0 0 3.089 3.09" fill="none" stroke="#000" stroke-miterlimit="10" stroke-width=".3985" transform="matrix(1 0 0 -1 68.743 62.352)"/></g></g><g clip-path="url(#bi)"><g clip-path="url(#bj)"><path d="m.002 0 3.086 3.09" fill="none" stroke="#000" stroke-miterlimit="10" stroke-width=".3985" transform="matrix(1 0 0 -1 53.799 59.363)"/></g></g><g clip-path="url(#bk)"><g clip-path="url(#bl)"><path d="m.001 0 3.086 3.09" fill="none" stroke="#000" stroke-miterlimit="10" stroke-width=".3985" transform="matrix(1 0 0 -1 56.788 59.363)"/></g></g><g clip-path="url(#bm)"><g clip-path="url(#bn)"><path d="m0 0 3.087 3.09" fill="none" stroke="#000" stroke-miterlimit="10" stroke-width=".3985" transform="matrix(1 0 0 -1 59.777 59.363)"/></g></g><g clip-path="url(#bo)"><g clip-path="url(#bp)"><path d="m0 0 3.09 3.09" fill="none" stroke="#000" stroke-miterlimit="10" stroke-width=".3985" transform="matrix(1 0 0 -1 62.765 59.363)"/></g></g><g clip-path="url(#bq)"><g clip-path="url(#br)"><path d="m0 0 3.09 3.09" fill="none" stroke="#000" stroke-miterlimit="10" stroke-width=".3985" transform="matrix(1 0 0 -1 65.754 59.363)"/></g></g><g clip-path="url(#bs)"><g clip-path="url(#bt)"><path d="m0 0 3.089 3.09" fill="none" stroke="#000" stroke-miterlimit="10" stroke-width=".3985" transform="matrix(1 0 0 -1 68.743 59.363)"/></g></g><g clip-path="url(#bu)"><g clip-path="url(#bv)"><path d="m.002 0 3.086 3.09" fill="none" stroke="#000" stroke-miterlimit="10" stroke-width=".3985" transform="matrix(1 0 0 -1 53.799 56.374)"/></g></g><g clip-path="url(#bw)"><g clip-path="url(#bx)"><path d="m.001 0 3.086 3.09" fill="none" stroke="#000" stroke-miterlimit="10" stroke-width=".3985" transform="matrix(1 0 0 -1 56.788 56.374)"/></g></g><g clip-path="url(#by)"><g clip-path="url(#bz)"><path d="m0 0 3.087 3.09" fill="none" stroke="#000" stroke-miterlimit="10" stroke-width=".3985" transform="matrix(1 0 0 -1 59.777 56.374)"/></g></g><g clip-path="url(#bA)"><g clip-path="url(#bB)"><path d="m0 0 3.09 3.09" fill="none" stroke="#000" stroke-miterlimit="10" stroke-width=".3985" transform="matrix(1 0 0 -1 62.765 56.374)"/></g></g><g clip-path="url(#bC)"><g clip-path="url(#bD)"><path d="m0 0 3.09 3.09" fill="none" stroke="#000" stroke-miterlimit="10" stroke-width=".3985" transform="matrix(1 0 0 -1 65.754 56.374)"/></g></g><g clip-path="url(#bE)"><g clip-path="url(#bF)"><path d="m0 0 3.089 3.09" fill="none" stroke="#000" stroke-miterlimit="10" stroke-width=".3985" transform="matrix(1 0 0 -1 68.743 56.374)"/></g></g><g clip-path="url(#bG)"><g clip-path="url(#bH)"><path d="m.002-.001 3.086 3.09" fill="none" stroke="#000" stroke-miterlimit="10" stroke-width=".3985" transform="matrix(1 0 0 -1 53.799 53.385)"/></g></g><g clip-path="url(#bI)"><g clip-path="url(#bJ)"><path d="m.001-.001 3.086 3.09" fill="none" stroke="#000" stroke-miterlimit="10" stroke-width=".3985" transform="matrix(1 0 0 -1 56.788 53.385)"/></g></g><g clip-path="url(#bK)"><g clip-path="url(#bL)"><path d="m0-.001 3.087 3.09" fill="none" stroke="#000" stroke-miterlimit="10" stroke-width=".3985" transform="matrix(1 0 0 -1 59.777 53.385)"/></g></g><g clip-path="url(#bM)"><g clip-path="url(#bN)"><path d="m0-.001 3.09 3.09" fill="none" stroke="#000" stroke-miterlimit="10" stroke-width=".3985" transform="matrix(1 0 0 -1 62.765 53.385)"/></g></g><g clip-path="url(#bO)"><g clip-path="url(#bP)"><path d="m0-.001 3.09 3.09" fill="none" stroke="#000" stroke-miterlimit="10" stroke-width=".3985" transform="matrix(1 0 0 -1 65.754 53.385)"/></g></g><g clip-path="url(#bQ)"><g clip-path="url(#bR)"><path d="m0-.001 3.089 3.09" fill="none" stroke="#000" stroke-miterlimit="10" stroke-width=".3985" transform="matrix(1 0 0 -1 68.743 53.385)"/></g></g><use x="124.899" xlink:href="#c5" y="96.033"/><g><use x="131.125" xlink:href="#dc" y="90.858"/><use x="134.238" xlink:href="#c8" y="90.858"/><use x="138.21" xlink:href="#dd" y="90.858"/></g><use x="131.125" xlink:href="#cU" y="99.038"/><g><use x="135.528" xlink:href="#cV" y="99.038"/><use x="137.894" xlink:href="#c2" y="99.038"/><use x="141.397" xlink:href="#c0" y="99.038"/><use x="148.467" xlink:href="#cY" y="99.038"/></g><use x="153.891" xlink:href="#c3" y="96.033"/><use x="157.766" xlink:href="#de" y="96.033"/><use x="165.514" xlink:href="#cT" y="96.033"/><use x="169.962" xlink:href="#c7" y="97.527"/><use x="174.431" xlink:href="#cQ" y="96.033"/><use x="178.862" xlink:href="#cP" y="96.033"/><use x="183.871" xlink:href="#db" y="97.527"/><use x="188.341" xlink:href="#cQ" y="96.033"/><use x="192.769" xlink:href="#de" y="96.033"/><use x="200.517" xlink:href="#cP" y="96.033"/><use x="205.53" xlink:href="#c9" y="97.527"/><use x="209.999" xlink:href="#c4" y="96.033"/><path d="m55.582-29.864-20.149 29.863" fill="none" stroke="#808080" stroke-miterlimit="10" stroke-width=".3985" transform="matrix(1 0 0 -1 98.52 57.577)"/><path d="m40.75-.001a5.315 5.315 0 1 1 -10.63.003 5.315 5.315 0 0 1 10.63-.002zm0 0" fill="#fff" stroke="#000" stroke-miterlimit="10" stroke-width=".3985" transform="matrix(1 0 0 -1 98.52 57.577)"/><g clip-path="url(#bS)"><g clip-path="url(#bT)"><path d="m0 0 3.09 3.087" fill="none" stroke="#000" stroke-miterlimit="10" stroke-width=".3985" transform="matrix(1 0 0 -1 125.53 65.34)"/></g></g><g clip-path="url(#bU)"><g clip-path="url(#bV)"><path d="m0 0 3.09 3.087" fill="none" stroke="#000" stroke-miterlimit="10" stroke-width=".3985" transform="matrix(1 0 0 -1 128.52 65.34)"/></g></g><g clip-path="url(#bW)"><g clip-path="url(#bX)"><path d="m0 0 3.09 3.087" fill="none" stroke="#000" stroke-miterlimit="10" stroke-width=".3985" transform="matrix(1 0 0 -1 131.509 65.34)"/></g></g><g clip-path="url(#bY)"><g clip-path="url(#bZ)"><path d="m-.001 0 3.09 3.087" fill="none" stroke="#000" stroke-miterlimit="10" stroke-width=".3985" transform="matrix(1 0 0 -1 134.497 65.34)"/></g></g><g clip-path="url(#b0)"><g clip-path="url(#b1)"><path d="m-.002 0 3.09 3.087" fill="none" stroke="#000" stroke-miterlimit="10" stroke-width=".3985" transform="matrix(1 0 0 -1 137.486 65.34)"/></g></g><g clip-path="url(#b2)"><g clip-path="url(#b3)"><path d="m0 0 3.09 3.09" fill="none" stroke="#000" stroke-miterlimit="10" stroke-width=".3985" transform="matrix(1 0 0 -1 125.53 62.352)"/></g></g><g clip-path="url(#b4)"><g clip-path="url(#b5)"><path d="m0 0 3.09 3.09" fill="none" stroke="#000" stroke-miterlimit="10" stroke-width=".3985" transform="matrix(1 0 0 -1 128.52 62.352)"/></g></g><g clip-path="url(#b6)"><g clip-path="url(#b7)"><path d="m0 0 3.09 3.09" fill="none" stroke="#000" stroke-miterlimit="10" stroke-width=".3985" transform="matrix(1 0 0 -1 131.509 62.352)"/></g></g><g clip-path="url(#b8)"><g clip-path="url(#b9)"><path d="m-.001 0 3.09 3.09" fill="none" stroke="#000" stroke-miterlimit="10" stroke-width=".3985" transform="matrix(1 0 0 -1 134.497 62.352)"/></g></g><g clip-path="url(#ca)"><g clip-path="url(#cb)"><path d="m-.002 0 3.09 3.09" fill="none" stroke="#000" stroke-miterlimit="10" stroke-width=".3985" transform="matrix(1 0 0 -1 137.486 62.352)"/></g></g><g clip-path="url(#cc)"><g clip-path="url(#cd)"><path d="m0 0 3.09 3.09" fill="none" stroke="#000" stroke-miterlimit="10" stroke-width=".3985" transform="matrix(1 0 0 -1 125.53 59.363)"/></g></g><g clip-path="url(#ce)"><g clip-path="url(#cf)"><path d="m0 0 3.09 3.09" fill="none" stroke="#000" stroke-miterlimit="10" stroke-width=".3985" transform="matrix(1 0 0 -1 128.52 59.363)"/></g></g><g clip-path="url(#cg)"><g clip-path="url(#ch)"><path d="m0 0 3.09 3.09" fill="none" stroke="#000" stroke-miterlimit="10" stroke-width=".3985" transform="matrix(1 0 0 -1 131.509 59.363)"/></g></g><g clip-path="url(#ci)"><g clip-path="url(#cj)"><path d="m-.001 0 3.09 3.09" fill="none" stroke="#000" stroke-miterlimit="10" stroke-width=".3985" transform="matrix(1 0 0 -1 134.497 59.363)"/></g></g><g clip-path="url(#ck)"><g clip-path="url(#cl)"><path d="m-.002 0 3.09 3.09" fill="none" stroke="#000" stroke-miterlimit="10" stroke-width=".3985" transform="matrix(1 0 0 -1 137.486 59.363)"/></g></g><g clip-path="url(#cm)"><g clip-path="url(#cn)"><path d="m0 0 3.09 3.09" fill="none" stroke="#000" stroke-miterlimit="10" stroke-width=".3985" transform="matrix(1 0 0 -1 125.53 56.374)"/></g></g><g clip-path="url(#co)"><g clip-path="url(#cp)"><path d="m0 0 3.09 3.09" fill="none" stroke="#000" stroke-miterlimit="10" stroke-width=".3985" transform="matrix(1 0 0 -1 128.52 56.374)"/></g></g><g clip-path="url(#cq)"><g clip-path="url(#cr)"><path d="m0 0 3.09 3.09" fill="none" stroke="#000" stroke-miterlimit="10" stroke-width=".3985" transform="matrix(1 0 0 -1 131.509 56.374)"/></g></g><g clip-path="url(#cs)"><g clip-path="url(#ct)"><path d="m-.001 0 3.09 3.09" fill="none" stroke="#000" stroke-miterlimit="10" stroke-width=".3985" transform="matrix(1 0 0 -1 134.497 56.374)"/></g></g><g clip-path="url(#cu)"><g clip-path="url(#cv)"><path d="m-.002 0 3.09 3.09" fill="none" stroke="#000" stroke-miterlimit="10" stroke-width=".3985" transform="matrix(1 0 0 -1 137.486 56.374)"/></g></g><g clip-path="url(#cw)"><g clip-path="url(#cx)"><path d="m0-.001 3.09 3.09" fill="none" stroke="#000" stroke-miterlimit="10" stroke-width=".3985" transform="matrix(1 0 0 -1 125.53 53.385)"/></g></g><g clip-path="url(#cy)"><g clip-path="url(#cz)"><path d="m0-.001 3.09 3.09" fill="none" stroke="#000" stroke-miterlimit="10" stroke-width=".3985" transform="matrix(1 0 0 -1 128.52 53.385)"/></g></g><g clip-path="url(#cA)"><g clip-path="url(#cB)"><path d="m0-.001 3.09 3.09" fill="none" stroke="#000" stroke-miterlimit="10" stroke-width=".3985" transform="matrix(1 0 0 -1 131.509 53.385)"/></g></g><g clip-path="url(#cC)"><g clip-path="url(#cD)"><path d="m-.001-.001 3.09 3.09" fill="none" stroke="#000" stroke-miterlimit="10" stroke-width=".3985" transform="matrix(1 0 0 -1 134.497 53.385)"/></g></g><g clip-path="url(#cE)"><g clip-path="url(#cF)"><path d="m-.002-.001 3.09 3.09" fill="none" stroke="#000" stroke-miterlimit="10" stroke-width=".3985" transform="matrix(1 0 0 -1 137.486 53.385)"/></g></g></svg>