<svg xmlns="http://www.w3.org/2000/svg" xmlns:xlink="http://www.w3.org/1999/xlink" width="289.592" height="150.883" viewBox="0 0 217.194 113.162"><defs><symbol overflow="visible" id="a"><path d="M.422.969c-.078.25-.094.312-.406.312-.11 0-.204 0-.204.157 0 .062.063.109.11.109.078 0 .11-.031.703-.031.563 0 .734.03.797.03.031 0 .14 0 .14-.155 0-.11-.109-.11-.203-.11-.375 0-.375-.047-.375-.125 0-.047.141-.61.375-1.547.11.188.36.47.782.47.984 0 2-1.126 2-2.282C4.14-3 3.64-3.516 3-3.516c-.484 0-.86.329-1.094.563-.172-.563-.703-.563-.781-.563-.281 0-.484.188-.61.438-.187.36-.28.765-.28.781 0 .078.062.11.124.11.11 0 .11-.032.172-.25.094-.407.235-.86.563-.86.203 0 .265.188.265.375 0 .078-.03.281-.046.344zm1.453-3.422c.047-.14.047-.156.172-.297.297-.36.64-.547.922-.547.406 0 .547.39.547.75 0 .297-.172 1.156-.407 1.625-.203.422-.593.781-.968.781-.532 0-.672-.625-.672-.687 0-.016.015-.094.031-.125zm0 0"/></symbol><symbol overflow="visible" id="b"><path d="M.969-1.984c.015-.297.031-.797.234-1.157.266-.468.656-.64 1.016-.64.14 0 .422.015.562.187-.219.047-.265.188-.265.297 0 .156.109.281.296.281.172 0 .282-.109.282-.296 0-.376-.266-.672-.875-.672-.938 0-1.844.812-1.844 2.093 0 1.454.672 2.016 1.469 2.016.234 0 .64-.031 1-.39.203-.188.422-.422.422-.954 0-.203-.016-.593-.375-.922-.22-.203-.485-.406-.985-.406-.422 0-.734.219-.937.563zm.875 1.89C1-.094 1-1.125 1-1.359c0-.5.328-1 .875-1 .313 0 .484.125.625.312.172.235.172.516.172.828 0 .407-.016.61-.219.86-.14.171-.328.265-.61.265zm0 0"/></symbol><symbol overflow="visible" id="c"><path d="M2.14-3.797c0-.187-.015-.187-.203-.187-.39.39-1 .39-1.218.39v.235c.156 0 .562 0 .922-.172v3.015c0 .204 0 .282-.625.282h-.25V0c.328-.031.796-.031 1.125-.031.328 0 .796 0 1.125.031v-.234h-.25c-.625 0-.625-.078-.625-.282zm0 0"/></symbol><symbol overflow="visible" id="d"><path d="M3.219-1.125H3c-.016.094-.078.484-.156.547-.047.047-.531.047-.625.047h-1.11l.766-.625c.203-.172.734-.547.922-.735.172-.171.422-.484.422-.906 0-.75-.672-1.187-1.485-1.187-.765 0-1.296.515-1.296 1.078 0 .297.25.344.312.344a.32.32 0 0 0 .328-.329c0-.125-.078-.328-.344-.328.141-.297.5-.531.922-.531.625 0 .953.469.953.953 0 .422-.28.86-.687 1.25L.5-.25C.437-.187.437-.187.437 0h2.594zm0 0"/></symbol><symbol overflow="visible" id="e"><path d="M1.766-1.984c.5 0 .843.343.843.953 0 .656-.39.937-.828.937C1.61-.094 1-.125.734-.469c.235-.031.329-.187.329-.344a.328.328 0 0 0-.344-.343.34.34 0 0 0-.344.36c0 .593.656.921 1.422.921.89 0 1.469-.563 1.469-1.156 0-.438-.329-.907-1.047-1.078.484-.157.86-.547.86-1.032 0-.484-.563-.843-1.282-.843-.703 0-1.234.328-1.234.812 0 .266.203.328.328.328.156 0 .312-.094.312-.312 0-.188-.125-.297-.297-.313.281-.312.828-.312.89-.312.298 0 .688.14.688.64 0 .329-.187.907-.796.938-.11 0-.266.015-.313.015-.063.016-.125.016-.125.11s.063.094.156.094zm0 0"/></symbol><symbol overflow="visible" id="f"><path d="M3.375-.984v-.235h-.703v-2.64c0-.141 0-.188-.14-.188-.11 0-.126.031-.173.094L.281-1.22v.235h1.86V-.5c0 .188 0 .266-.5.266h-.188V0c.125 0 .688-.031.953-.031.266 0 .828.031.938.031v-.234h-.172c-.5 0-.5-.078-.5-.266v-.484zM2.172-3.391v2.172H.532zm0 0"/></symbol><symbol overflow="visible" id="g"><path d="M1.016-3.328c.203.062.406.078.609.078.14 0 .469 0 .844-.203.11-.063.469-.313.469-.438 0-.078-.047-.093-.079-.093-.015 0-.015 0-.093.03a2.513 2.513 0 0 1-.907.173c-.296 0-.609-.063-.89-.156C.922-3.97.89-3.985.875-3.985c-.094 0-.094.078-.094.171v1.797c0 .094 0 .172.11.172.062 0 .078-.031.109-.078.156-.187.422-.39.89-.39.735 0 .735.89.735 1.078 0 .234-.016.578-.219.828a.95.95 0 0 1-.719.312C1.281-.094.86-.312.72-.672c.297 0 .328-.234.328-.297a.304.304 0 0 0-.313-.312.303.303 0 0 0-.296.328C.438-.406.953.125 1.702.125c.828 0 1.516-.578 1.516-1.328A1.3 1.3 0 0 0 1.89-2.5c-.375 0-.688.125-.875.281zm0 0"/></symbol><symbol overflow="visible" id="j"><path d="M4.61-3.375C4.515-4 4.11-4.563 3.327-4.563c-.61 0-1.25.172-2.031.938a2.953 2.953 0 0 0-.89 2.063c0 .625.437 1.78 1.827 1.78 2.375 0 3.407-3.343 3.407-4.78 0-1.579-.922-2.579-2.157-2.579-1.437 0-1.906 1.297-1.906 1.579 0 .14.094.343.39.343a.544.544 0 0 0 .532-.515c0-.36-.313-.36-.469-.36.438-.734 1.156-.797 1.438-.797.734 0 1.422.516 1.422 1.813 0 .39-.063.89-.266 1.703zM2.265-.062c-1.094 0-1.094-1.032-1.094-1.125 0-.266.25-1.657.656-2.266.39-.563.89-.89 1.5-.89 1.094 0 1.11 1.124 1.11 1.327 0 .72-.641 2.954-2.172 2.954zm0 0"/></symbol><symbol overflow="visible" id="l"><path d="M3.734-6.125c.063-.234.094-.328.282-.36.093-.015.406-.015.609-.015.703 0 1.813 0 1.813.984 0 .344-.157 1.032-.547 1.422-.266.25-.782.578-1.688.578h-1.11zm1.438 2.734c1.016-.218 2.187-.921 2.187-1.921 0-.86-.89-1.5-2.203-1.5H2.328c-.203 0-.297 0-.297.203 0 .109.094.109.281.109.016 0 .204 0 .376.016.187.03.265.03.265.171 0 .032 0 .063-.031.188L1.578-.781c-.094.39-.11.469-.906.469-.172 0-.266 0-.266.203C.406 0 .531 0 .546 0c.282 0 .985-.031 1.25-.031.282 0 1 .031 1.282.031.078 0 .188 0 .188-.203 0-.11-.079-.11-.282-.11-.359 0-.64 0-.64-.171 0-.063.015-.11.031-.172l.656-2.64H4.22c.906 0 1.078.562 1.078.905 0 .141-.078.454-.14.688-.063.281-.157.64-.157.844C5 .219 6.203.219 6.328.219c.844 0 1.203-1 1.203-1.14 0-.126-.11-.126-.125-.126-.093 0-.11.063-.125.14-.25.735-.687.907-.906.907-.328 0-.406-.219-.406-.61 0-.312.062-.812.11-1.14.015-.14.03-.328.03-.469 0-.765-.671-1.078-.937-1.172zm0 0"/></symbol><symbol overflow="visible" id="q"><path d="M.453 1.219c-.078.343-.11.406-.547.406-.11 0-.218 0-.218.188 0 .078.046.125.124.125.266 0 .563-.032.829-.032.343 0 .671.032 1 .032.046 0 .171 0 .171-.204 0-.109-.093-.109-.234-.109-.5 0-.5-.063-.5-.156 0-.125.422-1.75.484-2 .125.297.407.64.922.64 1.157 0 2.407-1.453 2.407-2.921 0-.938-.579-1.594-1.329-1.594-.5 0-.984.36-1.312.75-.094-.547-.531-.75-.89-.75-.47 0-.657.39-.735.562-.188.344-.313.938-.313.969 0 .11.094.11.11.11.11 0 .11-.016.172-.235.172-.703.375-1.188.734-1.188.172 0 .313.079.313.454 0 .234-.032.343-.079.515zm1.75-4.328c.063-.266.344-.547.516-.704.36-.296.64-.374.812-.374.39 0 .64.343.64.937 0 .594-.327 1.734-.515 2.11-.344.702-.812 1.03-1.187 1.03-.656 0-.781-.828-.781-.89 0-.016 0-.031.03-.156zm0 0"/></symbol><symbol overflow="visible" id="s"><path d="M2.031-.016c0-.656-.25-1.046-.64-1.046a.517.517 0 0 0-.532.53c0 .266.204.532.532.532a.58.58 0 0 0 .343-.125c.032-.031.047-.031.047-.031.016 0 .016 0 .016.14 0 .75-.344 1.344-.672 1.672-.11.11-.11.125-.11.157 0 .078.048.109.094.109.11 0 .922-.766.922-1.938zm0 0"/></symbol><symbol overflow="visible" id="ab"><path d="M7.578-6.922c0-.031-.016-.11-.11-.11-.03 0-.046.016-.155.126l-.688.765c-.094-.14-.547-.89-1.656-.89C2.734-7.031.5-4.828.5-2.516.5-.922 1.61.22 3.219.22c.437 0 .89-.094 1.25-.235.5-.203.687-.406.86-.609.093.25.359.61.452.61.047 0 .078-.032.078-.032.016-.015.11-.406.157-.61l.187-.765.14-.516c.11-.437.11-.468.688-.468.047 0 .157-.016.157-.203 0-.079-.047-.11-.125-.11-.235 0-.829.031-1.047.031-.313 0-1.094-.03-1.407-.03-.078 0-.203 0-.203.202 0 .11.078.11.297.11.016 0 .297 0 .531.015.266.032.313.063.313.188 0 .094-.11.531-.219.906C5.047-.203 3.766-.094 3.406-.094c-.953 0-2-.562-2-2.094 0-.312.094-1.953 1.14-3.25.548-.671 1.517-1.28 2.5-1.28 1.016 0 1.61.765 1.61 1.921 0 .406-.031.406-.031.516 0 .093.11.093.14.093.126 0 .126-.015.188-.203zm0 0"/></symbol><symbol overflow="visible" id="bv"><path d="M1.688 1.688c-.032.14-.047.156-.047.203 0 .218.187.28.296.28a.413.413 0 0 0 .36-.265c.031-.078.078-.406.36-1.812.077 0 .155.015.327.015 1.657 0 3.188-1.562 3.188-3.14 0-.781-.39-1.375-1.14-1.375-1.438 0-2.048 1.937-2.641 3.875C1.312-.734.75-1.281.75-2c0-.281.234-1.375.828-2.063.094-.093.094-.109.094-.14 0-.031-.031-.094-.125-.094C1.266-4.297.5-2.844.5-1.89c0 .938.656 1.657 1.719 1.907zM3.077-.47c-.094 0-.11 0-.187-.015-.125 0-.125 0-.125-.032 0-.015.171-.937.187-1.078.313-1.281 1.094-2.234 1.985-2.234.687 0 .953.531.953 1.015 0 1.126-1.282 2.344-2.813 2.344zm0 0"/></symbol><symbol overflow="visible" id="bx"><path d="M4.5-4.297c0-.047-.031-.094-.094-.094-.11 0-.515.391-.672.688-.218-.547-.609-.703-.937-.703-1.172 0-2.39 1.468-2.39 2.922C.406-.516.983.109 1.718.109c.422 0 .812-.234 1.172-.593-.094.343-.422 1.687-.454 1.78-.078.282-.156.313-.718.329-.125 0-.219 0-.219.203 0 0 0 .11.125.11.313 0 .672-.032 1-.032.328 0 .688.032 1.031.032.047 0 .172 0 .172-.204 0-.109-.094-.109-.265-.109-.47 0-.47-.063-.47-.156 0-.078.016-.14.032-.219zM1.75-.109c-.61 0-.64-.766-.64-.938 0-.484.28-1.562.452-1.984.313-.735.829-1.156 1.235-1.156.656 0 .797.812.797.875 0 .062-.547 2.25-.578 2.28-.157.282-.72.923-1.266.923zm0 0"/></symbol><symbol overflow="visible" id="k"><path d="M2.188-4.625c0-.016.015-.11.015-.11 0-.046-.015-.109-.11-.109-.14 0-.718.063-.89.078-.047 0-.156.016-.156.157 0 .093.11.093.187.093.329 0 .329.063.329.11s-.016.093-.016.156L.563-.312c-.047.124-.047.14-.047.156 0 .11.093.218.25.218.187 0 .265-.124.312-.28.016-.032.313-1.266.344-1.36.5.047.89.219.89.578 0 .031 0 .063-.015.14-.031.094-.031.141-.031.22 0 .484.406.703.75.703.671 0 .875-1.047.875-1.063 0-.094-.079-.094-.11-.094-.094 0-.11.047-.14.172-.079.297-.266.797-.61.797-.187 0-.25-.172-.25-.36 0-.124 0-.14.047-.312a.724.724 0 0 0 .031-.219c0-.625-.828-.718-1.125-.734.204-.125.454-.36.579-.469.359-.328.703-.656 1.093-.656.078 0 .172.016.235.094a.396.396 0 0 0-.36.39c0 .141.11.25.266.25.203 0 .406-.156.406-.437a.5.5 0 0 0-.531-.5c-.406 0-.766.297-1.125.625-.297.265-.516.484-.813.61zm0 0"/></symbol><symbol overflow="visible" id="m"><path d="M1.469-.11c0 .376-.063.829-.547 1.266-.016.032-.047.063-.047.094 0 .047.063.094.094.094.11 0 .703-.563.703-1.39 0-.423-.172-.75-.5-.75a.387.387 0 0 0-.39.39c0 .219.155.406.405.406.172 0 .282-.11.282-.11zm0 0"/></symbol><symbol overflow="visible" id="n"><path d="M2.266-4.36a.276.276 0 0 0-.282-.265c-.187 0-.39.188-.39.39 0 .11.078.266.281.266.188 0 .39-.203.39-.39zM.844-.811C.813-.72.78-.641.78-.516c0 .329.266.579.656.579.688 0 1-.954 1-1.063 0-.094-.093-.094-.109-.094-.094 0-.11.047-.14.125-.157.563-.454.844-.735.844-.14 0-.172-.094-.172-.25s.047-.281.11-.438c.078-.187.156-.375.218-.562.063-.172.329-.797.344-.89A.5.5 0 0 0 2-2.486c0-.328-.281-.593-.656-.593C.64-3.078.328-2.125.328-2c0 .078.094.078.125.078.094 0 .094-.031.125-.11.172-.593.485-.843.735-.843.109 0 .171.047.171.234 0 .172-.03.266-.203.704zm0 0"/></symbol><symbol overflow="visible" id="o"><path d="M3.063-4.36a.276.276 0 0 0-.282-.265c-.203 0-.39.203-.39.39 0 .11.078.266.28.266.188 0 .392-.187.392-.39zM1.577.345c-.11.484-.484.875-.89.875-.094 0-.172 0-.25-.032A.424.424 0 0 0 .671.829c0-.172-.14-.25-.281-.25C.187.578 0 .766 0 .984c0 .266.266.438.688.438.421 0 1.234-.25 1.453-1.094l.625-2.5c.015-.078.03-.14.03-.25 0-.375-.327-.656-.733-.656C1.28-3.078.843-2.11.843-2c0 .078.095.078.11.078.078 0 .094-.016.14-.125.173-.406.532-.828.938-.828.172 0 .235.11.235.344 0 .078 0 .172-.016.203zm0 0"/></symbol><symbol overflow="visible" id="aJ"><path d="M.844-.438C.828-.344.78-.171.78-.156c0 .156.125.218.235.218a.377.377 0 0 0 .28-.14c.032-.063.079-.297.126-.438.031-.125.11-.453.14-.625.047-.156.094-.312.125-.468.079-.282.094-.344.297-.625.188-.282.516-.641 1.047-.641.39 0 .406.36.406.484 0 .422-.296 1.188-.406 1.485-.078.203-.11.265-.11.375 0 .375.298.594.657.594.703 0 1-.954 1-1.063 0-.094-.078-.094-.11-.094-.093 0-.093.047-.124.125-.157.563-.469.844-.735.844-.156 0-.187-.094-.187-.25s.047-.25.172-.563c.078-.218.36-.953.36-1.343 0-.672-.532-.797-.907-.797-.578 0-.969.36-1.172.64-.047-.484-.453-.64-.75-.64s-.453.219-.547.375c-.156.265-.25.656-.25.703 0 .078.094.078.125.078.094 0 .094-.016.14-.203.11-.406.25-.75.516-.75.188 0 .235.156.235.344 0 .125-.063.39-.125.578-.047.187-.11.469-.14.625zm0 0"/></symbol><symbol overflow="visible" id="br"><path d="M1.969-4.625c0-.016.031-.11.031-.11 0-.046-.031-.109-.125-.109-.14 0-.719.063-.89.078-.047 0-.141.016-.141.157 0 .093.094.093.172.093.343 0 .343.063.343.11s-.015.093-.03.156L.452-.812c-.016.078-.016.156-.016.218 0 .453.391.656.72.656.171 0 .39-.046.562-.359.156-.266.25-.672.25-.703 0-.094-.094-.094-.11-.094-.109 0-.125.047-.14.172-.094.344-.235.797-.532.797C1-.125.954-.297.954-.469.953-.547.97-.672 1-.75zm0 0"/></symbol><symbol overflow="visible" id="bs"><path d="M3.031-.563c-.047.141-.11.375-.11.407 0 .156.126.218.235.218.14 0 .25-.078.281-.14a3.17 3.17 0 0 0 .126-.438c.03-.125.109-.453.156-.625.031-.156.078-.312.11-.468.077-.297.077-.313.218-.532.219-.343.578-.734 1.11-.734.39 0 .421.313.421.484 0 .422-.297 1.188-.422 1.485-.062.203-.093.265-.093.375 0 .375.296.594.656.594.703 0 1-.954 1-1.063 0-.094-.078-.094-.11-.094-.093 0-.093.047-.125.125-.156.563-.468.844-.734.844-.156 0-.188-.094-.188-.25s.047-.25.172-.563c.079-.218.36-.953.36-1.343 0-.11 0-.406-.25-.61a1.17 1.17 0 0 0-.657-.187c-.625 0-1 .422-1.234.703-.047-.594-.547-.703-.906-.703-.578 0-.969.36-1.172.64-.047-.484-.453-.64-.75-.64s-.453.219-.547.375c-.156.265-.25.656-.25.703 0 .078.094.078.125.078.094 0 .094-.016.14-.203.11-.406.25-.75.516-.75.188 0 .235.156.235.344 0 .125-.063.39-.125.578-.047.187-.11.469-.14.625l-.235.89C.828-.344.78-.171.78-.156c0 .156.125.218.235.218a.377.377 0 0 0 .28-.14c.032-.063.079-.297.126-.438.031-.125.11-.453.14-.625.047-.156.094-.312.125-.468.079-.282.094-.344.297-.625.188-.282.516-.641 1.047-.641.39 0 .406.36.406.484 0 .172-.015.266-.124.657zm0 0"/></symbol><symbol overflow="visible" id="bw"><path d="M2.938-2.656c-.141-.235-.376-.422-.72-.422-.89 0-1.796.984-1.796 1.984C.422-.406.875.063 1.484.063c.375 0 .704-.204.985-.485.125.422.531.484.719.484.25 0 .421-.14.546-.359.157-.281.25-.672.25-.703 0-.094-.093-.094-.109-.094-.11 0-.11.032-.156.219-.094.344-.219.75-.516.75-.172 0-.234-.156-.234-.344 0-.11.062-.375.11-.547.046-.187.124-.468.155-.625l.141-.53c.047-.188.125-.517.125-.548 0-.156-.125-.219-.234-.219-.125 0-.282.079-.329.282zM2.5-.875c-.047.203-.203.344-.36.469-.062.062-.343.281-.64.281-.266 0-.516-.188-.516-.672 0-.375.204-1.14.375-1.422.313-.562.672-.656.86-.656.484 0 .625.531.625.61 0 .015-.016.078-.016.093zm0 0"/></symbol><symbol overflow="visible" id="by"><path d="M1.844-4.625c0-.016.031-.11.031-.11 0-.046-.031-.109-.125-.109-.14 0-.719.063-.89.078-.047 0-.157.016-.157.157 0 .093.11.093.188.093.328 0 .328.063.328.11s-.063.328-.11.484l-.156.64C.891-3.031.516-1.515.5-1.421c-.047.172-.047.266-.047.344 0 .703.453 1.14 1.031 1.14.875 0 1.797-.937 1.797-1.968 0-.813-.562-1.172-1.047-1.172-.359 0-.671.203-.875.39zm-.36 4.5c-.328 0-.53-.297-.53-.719 0-.25.062-.484.265-1.281.031-.125.031-.14.172-.297.265-.297.578-.453.828-.453.265 0 .5.203.5.672 0 .281-.14 1-.36 1.406-.171.344-.515.672-.875.672zm0 0"/></symbol><symbol overflow="visible" id="p"><path d="M3.297 2.39c0-.03 0-.046-.172-.218C1.891.922 1.562-.968 1.562-2.5c0-1.734.375-3.469 1.61-4.703.125-.125.125-.14.125-.172 0-.078-.031-.11-.094-.11-.11 0-1 .688-1.594 1.954C1.11-4.438.984-3.328.984-2.5c0 .781.11 1.984.657 3.125C2.25 1.844 3.094 2.5 3.203 2.5c.063 0 .094-.031.094-.11zm0 0"/></symbol><symbol overflow="visible" id="u"><path d="M2.875-2.5c0-.766-.11-1.969-.656-3.11C1.625-6.827.766-7.483.672-7.483a.107.107 0 0 0-.11.109c0 .031 0 .047.188.234.984.985 1.547 2.563 1.547 4.641 0 1.719-.36 3.469-1.594 4.719-.14.125-.14.14-.14.172 0 .062.046.109.109.109.094 0 1-.688 1.578-1.953.516-1.094.625-2.203.625-3.047zm0 0"/></symbol><symbol overflow="visible" id="bz"><path d="M5.516-6.781H.328v.312h.234c.766 0 .797.11.797.469v5.219c0 .36-.03.469-.796.469H.328V0c.344-.031 1.125-.031 1.516-.031.406 0 1.312 0 1.672.031v-.313h-.329c-.937 0-.937-.124-.937-.468v-5.297c0-.328.016-.39.484-.39h1.032c1.421 0 1.625.593 1.78 1.937h.25zm0 0"/></symbol><symbol overflow="visible" id="r"><path d="M2.328-4.438c0-.187 0-.187-.203-.187-.453.438-1.078.438-1.36.438v.25c.157 0 .626 0 1-.188v3.547c0 .234 0 .328-.687.328H.812V0c.125 0 .985-.031 1.235-.031.219 0 1.094.031 1.25.031v-.25H3.03c-.703 0-.703-.094-.703-.328zm0 0"/></symbol><symbol overflow="visible" id="t"><path d="M3.516-1.266H3.28c-.015.157-.094.563-.187.625-.047.047-.578.047-.688.047H1.125c.734-.64.984-.844 1.39-1.172.516-.406 1-.843 1-1.5 0-.843-.734-1.359-1.624-1.359-.86 0-1.454.61-1.454 1.25 0 .344.297.39.376.39.156 0 .359-.124.359-.374 0-.125-.047-.375-.406-.375.218-.485.687-.641 1.015-.641.703 0 1.063.547 1.063 1.11 0 .609-.438 1.078-.656 1.328L.516-.266C.437-.203.437-.187.437 0h2.876zm0 0"/></symbol><symbol overflow="visible" id="ac"><path d="M1.906-2.328c.547 0 .938.375.938 1.125 0 .86-.516 1.125-.906 1.125-.282 0-.907-.078-1.188-.5.328 0 .406-.235.406-.39 0-.22-.172-.376-.39-.376a.38.38 0 0 0-.391.407C.375-.281 1.094.14 1.938.14c.968 0 1.64-.657 1.64-1.344 0-.547-.437-1.094-1.203-1.25.719-.266.984-.781.984-1.219 0-.547-.625-.953-1.406-.953-.766 0-1.36.375-1.36.938 0 .234.157.359.36.359.219 0 .36-.156.36-.344 0-.203-.141-.36-.36-.375.25-.297.719-.375.985-.375.312 0 .75.156.75.75 0 .297-.094.625-.282.828-.219.266-.422.281-.765.313-.172.015-.188.015-.22.015-.015 0-.077.016-.077.094 0 .094.062.094.187.094zm0 0"/></symbol><symbol overflow="visible" id="aK"><path d="M1.047-2.281c0-.563.047-1.078.312-1.516.235-.375.61-.625 1.063-.625.203 0 .484.047.625.234-.172.016-.328.141-.328.344a.32.32 0 0 0 .328.328c.219 0 .344-.14.344-.343 0-.407-.297-.766-.985-.766-1 0-2.031.922-2.031 2.422C.375-.406 1.219.14 2 .14c.844 0 1.578-.657 1.578-1.563 0-.89-.703-1.547-1.515-1.547-.563 0-.86.375-1.016.688zM2-.078c-.36 0-.625-.203-.781-.516-.094-.203-.157-.562-.157-.969 0-.687.407-1.203.97-1.203.312 0 .53.125.702.375.172.266.172.563.172.97 0 .39 0 .687-.187.968A.815.815 0 0 1 2-.078zm0 0"/></symbol><symbol overflow="visible" id="bt"><path d="M3.688-1.14v-.25h-.782V-4.5c0-.14 0-.203-.14-.203-.094 0-.125 0-.188.11L.266-1.392v.25h2.062v.563c0 .25 0 .328-.578.328h-.188V0c.36-.016.797-.031 1.047-.031.266 0 .704.015 1.063.031v-.25h-.188c-.578 0-.578-.078-.578-.328v-.563zM2.375-3.939v2.547H.531zm0 0"/></symbol><symbol overflow="visible" id="bu"><path d="M1.078-3.89c.36.093.563.093.672.093.922 0 1.469-.625 1.469-.734 0-.078-.047-.094-.078-.094-.016 0-.032 0-.063.016-.172.062-.531.203-1.047.203-.203 0-.562-.016-1.015-.188-.079-.031-.094-.031-.094-.031-.094 0-.094.078-.094.188v2.046c0 .125 0 .204.11.204.062 0 .078 0 .14-.094.297-.375.734-.438.969-.438.422 0 .61.328.64.39.126.235.172.5.172.907 0 .203 0 .61-.218.922a.984.984 0 0 1-.813.422c-.453 0-.922-.25-1.094-.719.266.016.407-.156.407-.344 0-.296-.266-.343-.36-.343 0 0-.344 0-.344.375 0 .625.579 1.25 1.407 1.25.89 0 1.672-.657 1.672-1.547 0-.782-.594-1.5-1.454-1.5-.312 0-.671.062-.984.328zm0 0"/></symbol><symbol overflow="visible" id="bA"><path d="M2.469-5.219C1.156-4.297.797-2.812.797-1.75c0 .984.297 2.516 1.672 3.484.062 0 .14 0 .14-.078 0-.047-.015-.062-.062-.11C1.609.704 1.28-.468 1.28-1.733c0-1.891.719-2.813 1.282-3.329.03-.03.046-.046.046-.078 0-.078-.078-.078-.14-.078zm0 0"/></symbol><symbol overflow="visible" id="bB"><path d="M.625-5.219c-.047 0-.125 0-.125.078 0 .032.016.047.063.11.593.547 1.265 1.484 1.265 3.281 0 1.453-.453 2.563-1.203 3.234C.5 1.61.5 1.61.5 1.656c0 .032.016.078.078.078.094 0 .75-.453 1.219-1.328.297-.578.5-1.328.5-2.14C2.297-2.72 2-4.25.625-5.22zm0 0"/></symbol><symbol overflow="visible" id="bC"><path d="M6.563-2.297c.171 0 .359 0 .359-.203 0-.188-.188-.188-.36-.188h-5.39c-.172 0-.344 0-.344.188 0 .203.172.203.344.203zm0 0"/></symbol><clipPath id="h"><path d="M94 18h9v8h-9zm0 0"/></clipPath><clipPath id="i"><path d="M102.063 22.145a3.543 3.543 0 1 0-7.086-.001 3.543 3.543 0 0 0 7.085 0zm0 0"/></clipPath><clipPath id="v"><path d="M69 34.457h3.727V37H69zm0 0"/></clipPath><clipPath id="w"><path d="M77.008 32.523a3.546 3.546 0 0 0-3.543-3.546 3.546 3.546 0 0 0 0 7.09 3.543 3.543 0 0 0 3.543-3.544zm0 0"/></clipPath><clipPath id="x"><path d="M70.734 34.457h4.985V37h-4.985zm0 0"/></clipPath><clipPath id="y"><path d="M77.008 32.523a3.546 3.546 0 0 0-3.543-3.546 3.546 3.546 0 0 0 0 7.09 3.543 3.543 0 0 0 3.543-3.544zm0 0"/></clipPath><clipPath id="z"><path d="M73.723 34.457H78V37h-4.277zm0 0"/></clipPath><clipPath id="A"><path d="M77.008 32.523a3.546 3.546 0 0 0-3.543-3.546 3.546 3.546 0 0 0 0 7.09 3.543 3.543 0 0 0 3.543-3.544zm0 0"/></clipPath><clipPath id="B"><path d="M76.715 34.457H78V37h-1.285zm0 0"/></clipPath><clipPath id="C"><path d="M77.008 32.523a3.546 3.546 0 0 0-3.543-3.546 3.546 3.546 0 0 0 0 7.09 3.543 3.543 0 0 0 3.543-3.544zm0 0"/></clipPath><clipPath id="D"><path d="M69 31.469h3.727v4.98H69zm0 0"/></clipPath><clipPath id="E"><path d="M77.008 32.523a3.546 3.546 0 0 0-3.543-3.546 3.546 3.546 0 0 0 0 7.09 3.543 3.543 0 0 0 3.543-3.544zm0 0"/></clipPath><clipPath id="F"><path d="M70.734 31.469h4.985v4.98h-4.985zm0 0"/></clipPath><clipPath id="G"><path d="M77.008 32.523a3.546 3.546 0 0 0-3.543-3.546 3.546 3.546 0 0 0 0 7.09 3.543 3.543 0 0 0 3.543-3.544zm0 0"/></clipPath><clipPath id="H"><path d="M73.723 31.469H78v4.98h-4.277zm0 0"/></clipPath><clipPath id="I"><path d="M77.008 32.523a3.546 3.546 0 0 0-3.543-3.546 3.546 3.546 0 0 0 0 7.09 3.543 3.543 0 0 0 3.543-3.544zm0 0"/></clipPath><clipPath id="J"><path d="M76.715 31.469H78v4.98h-1.285zm0 0"/></clipPath><clipPath id="K"><path d="M77.008 32.523a3.546 3.546 0 0 0-3.543-3.546 3.546 3.546 0 0 0 0 7.09 3.543 3.543 0 0 0 3.543-3.544zm0 0"/></clipPath><clipPath id="L"><path d="M69 28.477h3.727v4.984H69zm0 0"/></clipPath><clipPath id="M"><path d="M77.008 32.523a3.546 3.546 0 0 0-3.543-3.546 3.546 3.546 0 0 0 0 7.09 3.543 3.543 0 0 0 3.543-3.544zm0 0"/></clipPath><clipPath id="N"><path d="M70.734 28.477h4.985v4.984h-4.985zm0 0"/></clipPath><clipPath id="O"><path d="M77.008 32.523a3.546 3.546 0 0 0-3.543-3.546 3.546 3.546 0 0 0 0 7.09 3.543 3.543 0 0 0 3.543-3.544zm0 0"/></clipPath><clipPath id="P"><path d="M73.723 28.477H78v4.984h-4.277zm0 0"/></clipPath><clipPath id="Q"><path d="M77.008 32.523a3.546 3.546 0 0 0-3.543-3.546 3.546 3.546 0 0 0 0 7.09 3.543 3.543 0 0 0 3.543-3.544zm0 0"/></clipPath><clipPath id="R"><path d="M76.715 28.477H78v4.984h-1.285zm0 0"/></clipPath><clipPath id="S"><path d="M77.008 32.523a3.546 3.546 0 0 0-3.543-3.546 3.546 3.546 0 0 0 0 7.09 3.543 3.543 0 0 0 3.543-3.544zm0 0"/></clipPath><clipPath id="T"><path d="M69 28h3.727v2.473H69zm0 0"/></clipPath><clipPath id="U"><path d="M77.008 32.523a3.546 3.546 0 0 0-3.543-3.546 3.546 3.546 0 0 0 0 7.09 3.543 3.543 0 0 0 3.543-3.544zm0 0"/></clipPath><clipPath id="V"><path d="M70.734 28h4.985v2.473h-4.985zm0 0"/></clipPath><clipPath id="W"><path d="M77.008 32.523a3.546 3.546 0 0 0-3.543-3.546 3.546 3.546 0 0 0 0 7.09 3.543 3.543 0 0 0 3.543-3.544zm0 0"/></clipPath><clipPath id="X"><path d="M73.723 28H78v2.473h-4.277zm0 0"/></clipPath><clipPath id="Y"><path d="M77.008 32.523a3.546 3.546 0 0 0-3.543-3.546 3.546 3.546 0 0 0 0 7.09 3.543 3.543 0 0 0 3.543-3.544zm0 0"/></clipPath><clipPath id="Z"><path d="M76.715 28H78v2.473h-1.285zm0 0"/></clipPath><clipPath id="aa"><path d="M77.008 32.523a3.546 3.546 0 0 0-3.543-3.546 3.546 3.546 0 0 0 0 7.09 3.543 3.543 0 0 0 3.543-3.544zm0 0"/></clipPath><clipPath id="ad"><path d="M120 34.457h.55V37H120zm0 0"/></clipPath><clipPath id="ae"><path d="M127.117 32.523a3.546 3.546 0 0 0-3.543-3.546 3.546 3.546 0 0 0 0 7.09 3.543 3.543 0 0 0 3.543-3.544zm0 0"/></clipPath><clipPath id="af"><path d="M120 34.457h3.54V37H120zm0 0"/></clipPath><clipPath id="ag"><path d="M127.117 32.523a3.546 3.546 0 0 0-3.543-3.546 3.546 3.546 0 0 0 0 7.09 3.543 3.543 0 0 0 3.543-3.544zm0 0"/></clipPath><clipPath id="ah"><path d="M121.547 34.457h4.98V37h-4.98zm0 0"/></clipPath><clipPath id="ai"><path d="M127.117 32.523a3.546 3.546 0 0 0-3.543-3.546 3.546 3.546 0 0 0 0 7.09 3.543 3.543 0 0 0 3.543-3.544zm0 0"/></clipPath><clipPath id="aj"><path d="M124.535 34.457H128V37h-3.465zm0 0"/></clipPath><clipPath id="ak"><path d="M127.117 32.523a3.546 3.546 0 0 0-3.543-3.546 3.546 3.546 0 0 0 0 7.09 3.543 3.543 0 0 0 3.543-3.544zm0 0"/></clipPath><clipPath id="al"><path d="M120 31.469h.55v4.98H120zm0 0"/></clipPath><clipPath id="am"><path d="M127.117 32.523a3.546 3.546 0 0 0-3.543-3.546 3.546 3.546 0 0 0 0 7.09 3.543 3.543 0 0 0 3.543-3.544zm0 0"/></clipPath><clipPath id="an"><path d="M120 31.469h3.54v4.98H120zm0 0"/></clipPath><clipPath id="ao"><path d="M127.117 32.523a3.546 3.546 0 0 0-3.543-3.546 3.546 3.546 0 0 0 0 7.09 3.543 3.543 0 0 0 3.543-3.544zm0 0"/></clipPath><clipPath id="ap"><path d="M121.547 31.469h4.98v4.98h-4.98zm0 0"/></clipPath><clipPath id="aq"><path d="M127.117 32.523a3.546 3.546 0 0 0-3.543-3.546 3.546 3.546 0 0 0 0 7.09 3.543 3.543 0 0 0 3.543-3.544zm0 0"/></clipPath><clipPath id="ar"><path d="M124.535 31.469H128v4.98h-3.465zm0 0"/></clipPath><clipPath id="as"><path d="M127.117 32.523a3.546 3.546 0 0 0-3.543-3.546 3.546 3.546 0 0 0 0 7.09 3.543 3.543 0 0 0 3.543-3.544zm0 0"/></clipPath><clipPath id="at"><path d="M120 28.477h.55v4.984H120zm0 0"/></clipPath><clipPath id="au"><path d="M127.117 32.523a3.546 3.546 0 0 0-3.543-3.546 3.546 3.546 0 0 0 0 7.09 3.543 3.543 0 0 0 3.543-3.544zm0 0"/></clipPath><clipPath id="av"><path d="M120 28.477h3.54v4.984H120zm0 0"/></clipPath><clipPath id="aw"><path d="M127.117 32.523a3.546 3.546 0 0 0-3.543-3.546 3.546 3.546 0 0 0 0 7.09 3.543 3.543 0 0 0 3.543-3.544zm0 0"/></clipPath><clipPath id="ax"><path d="M121.547 28.477h4.98v4.984h-4.98zm0 0"/></clipPath><clipPath id="ay"><path d="M127.117 32.523a3.546 3.546 0 0 0-3.543-3.546 3.546 3.546 0 0 0 0 7.09 3.543 3.543 0 0 0 3.543-3.544zm0 0"/></clipPath><clipPath id="az"><path d="M124.535 28.477H128v4.984h-3.465zm0 0"/></clipPath><clipPath id="aA"><path d="M127.117 32.523a3.546 3.546 0 0 0-3.543-3.546 3.546 3.546 0 0 0 0 7.09 3.543 3.543 0 0 0 3.543-3.544zm0 0"/></clipPath><clipPath id="aB"><path d="M120 28h.55v2.473H120zm0 0"/></clipPath><clipPath id="aC"><path d="M127.117 32.523a3.546 3.546 0 0 0-3.543-3.546 3.546 3.546 0 0 0 0 7.09 3.543 3.543 0 0 0 3.543-3.544zm0 0"/></clipPath><clipPath id="aD"><path d="M120 28h3.54v2.473H120zm0 0"/></clipPath><clipPath id="aE"><path d="M127.117 32.523a3.546 3.546 0 0 0-3.543-3.546 3.546 3.546 0 0 0 0 7.09 3.543 3.543 0 0 0 3.543-3.544zm0 0"/></clipPath><clipPath id="aF"><path d="M121.547 28h4.98v2.473h-4.98zm0 0"/></clipPath><clipPath id="aG"><path d="M127.117 32.523a3.546 3.546 0 0 0-3.543-3.546 3.546 3.546 0 0 0 0 7.09 3.543 3.543 0 0 0 3.543-3.544zm0 0"/></clipPath><clipPath id="aH"><path d="M124.535 28H128v2.473h-3.465zm0 0"/></clipPath><clipPath id="aI"><path d="M127.117 32.523a3.546 3.546 0 0 0-3.543-3.546 3.546 3.546 0 0 0 0 7.09 3.543 3.543 0 0 0 3.543-3.544zm0 0"/></clipPath><clipPath id="aL"><path d="M94 94.234h2.64V97H94zm0 0"/></clipPath><clipPath id="aM"><path d="M102.063 93.012a3.543 3.543 0 1 0-7.086-.001 3.543 3.543 0 0 0 7.085 0zm0 0"/></clipPath><clipPath id="aN"><path d="M94.645 94.234h4.984V97h-4.984zm0 0"/></clipPath><clipPath id="aO"><path d="M102.063 93.012a3.543 3.543 0 1 0-7.086-.001 3.543 3.543 0 0 0 7.085 0zm0 0"/></clipPath><clipPath id="aP"><path d="M97.637 94.234h4.98V97h-4.98zm0 0"/></clipPath><clipPath id="aQ"><path d="M102.063 93.012a3.543 3.543 0 1 0-7.086-.001 3.543 3.543 0 0 0 7.085 0zm0 0"/></clipPath><clipPath id="aR"><path d="M100.625 94.234H103V97h-2.375zm0 0"/></clipPath><clipPath id="aS"><path d="M102.063 93.012a3.543 3.543 0 1 0-7.086-.001 3.543 3.543 0 0 0 7.085 0zm0 0"/></clipPath><clipPath id="aT"><path d="M94 91.242h2.64v4.985H94zm0 0"/></clipPath><clipPath id="aU"><path d="M102.063 93.012a3.543 3.543 0 1 0-7.086-.001 3.543 3.543 0 0 0 7.085 0zm0 0"/></clipPath><clipPath id="aV"><path d="M94.645 91.242h4.984v4.985h-4.984zm0 0"/></clipPath><clipPath id="aW"><path d="M102.063 93.012a3.543 3.543 0 1 0-7.086-.001 3.543 3.543 0 0 0 7.085 0zm0 0"/></clipPath><clipPath id="aX"><path d="M97.637 91.242h4.98v4.985h-4.98zm0 0"/></clipPath><clipPath id="aY"><path d="M102.063 93.012a3.543 3.543 0 1 0-7.086-.001 3.543 3.543 0 0 0 7.085 0zm0 0"/></clipPath><clipPath id="aZ"><path d="M100.625 91.242H103v4.985h-2.375zm0 0"/></clipPath><clipPath id="ba"><path d="M102.063 93.012a3.543 3.543 0 1 0-7.086-.001 3.543 3.543 0 0 0 7.085 0zm0 0"/></clipPath><clipPath id="bb"><path d="M94 89h2.64v4.238H94zm0 0"/></clipPath><clipPath id="bc"><path d="M102.063 93.012a3.543 3.543 0 1 0-7.086-.001 3.543 3.543 0 0 0 7.085 0zm0 0"/></clipPath><clipPath id="bd"><path d="M94.645 89h4.984v4.238h-4.984zm0 0"/></clipPath><clipPath id="be"><path d="M102.063 93.012a3.543 3.543 0 1 0-7.086-.001 3.543 3.543 0 0 0 7.085 0zm0 0"/></clipPath><clipPath id="bf"><path d="M97.637 89h4.98v4.238h-4.98zm0 0"/></clipPath><clipPath id="bg"><path d="M102.063 93.012a3.543 3.543 0 1 0-7.086-.001 3.543 3.543 0 0 0 7.085 0zm0 0"/></clipPath><clipPath id="bh"><path d="M100.625 89H103v4.238h-2.375zm0 0"/></clipPath><clipPath id="bi"><path d="M102.063 93.012a3.543 3.543 0 1 0-7.086-.001 3.543 3.543 0 0 0 7.085 0zm0 0"/></clipPath><clipPath id="bj"><path d="M94 89h2.64v1.246H94zm0 0"/></clipPath><clipPath id="bk"><path d="M102.063 93.012a3.543 3.543 0 1 0-7.086-.001 3.543 3.543 0 0 0 7.085 0zm0 0"/></clipPath><clipPath id="bl"><path d="M94.645 89h4.984v1.246h-4.984zm0 0"/></clipPath><clipPath id="bm"><path d="M102.063 93.012a3.543 3.543 0 1 0-7.086-.001 3.543 3.543 0 0 0 7.085 0zm0 0"/></clipPath><clipPath id="bn"><path d="M97.637 89h4.98v1.246h-4.98zm0 0"/></clipPath><clipPath id="bo"><path d="M102.063 93.012a3.543 3.543 0 1 0-7.086-.001 3.543 3.543 0 0 0 7.085 0zm0 0"/></clipPath><clipPath id="bp"><path d="M100.625 89H103v1.246h-2.375zm0 0"/></clipPath><clipPath id="bq"><path d="M102.063 93.012a3.543 3.543 0 1 0-7.086-.001 3.543 3.543 0 0 0 7.085 0zm0 0"/></clipPath><clipPath id="bD"><path d="M57 61.355h.785V63H57zm0 0"/></clipPath><clipPath id="bE"><path d="M68.402 57.578a5.315 5.315 0 1 0-10.63-.003 5.315 5.315 0 0 0 10.63.003zm0 0"/></clipPath><clipPath id="bF"><path d="M57 61.355h3.773V63H57zm0 0"/></clipPath><clipPath id="bG"><path d="M68.402 57.578a5.315 5.315 0 1 0-10.63-.003 5.315 5.315 0 0 0 10.63.003zm0 0"/></clipPath><clipPath id="bH"><path d="M58.781 61.355h4.98V63h-4.98zm0 0"/></clipPath><clipPath id="bI"><path d="M68.402 57.578a5.315 5.315 0 1 0-10.63-.003 5.315 5.315 0 0 0 10.63.003zm0 0"/></clipPath><clipPath id="bJ"><path d="M61.77 61.355h4.98V63h-4.98zm0 0"/></clipPath><clipPath id="bK"><path d="M68.402 57.578a5.315 5.315 0 1 0-10.63-.003 5.315 5.315 0 0 0 10.63.003zm0 0"/></clipPath><clipPath id="bL"><path d="M64.758 61.355H69V63h-4.242zm0 0"/></clipPath><clipPath id="bM"><path d="M68.402 57.578a5.315 5.315 0 1 0-10.63-.003 5.315 5.315 0 0 0 10.63.003zm0 0"/></clipPath><clipPath id="bN"><path d="M67.746 61.355H69V63h-1.254zm0 0"/></clipPath><clipPath id="bO"><path d="M68.402 57.578a5.315 5.315 0 1 0-10.63-.003 5.315 5.315 0 0 0 10.63.003zm0 0"/></clipPath><clipPath id="bP"><path d="M57 58.367h.785V63H57zm0 0"/></clipPath><clipPath id="bQ"><path d="M68.402 57.578a5.315 5.315 0 1 0-10.63-.003 5.315 5.315 0 0 0 10.63.003zm0 0"/></clipPath><clipPath id="bR"><path d="M57 58.367h3.773V63H57zm0 0"/></clipPath><clipPath id="bS"><path d="M68.402 57.578a5.315 5.315 0 1 0-10.63-.003 5.315 5.315 0 0 0 10.63.003zm0 0"/></clipPath><clipPath id="bT"><path d="M58.781 58.367h4.98V63h-4.98zm0 0"/></clipPath><clipPath id="bU"><path d="M68.402 57.578a5.315 5.315 0 1 0-10.63-.003 5.315 5.315 0 0 0 10.63.003zm0 0"/></clipPath><clipPath id="bV"><path d="M61.77 58.367h4.98V63h-4.98zm0 0"/></clipPath><clipPath id="bW"><path d="M68.402 57.578a5.315 5.315 0 1 0-10.63-.003 5.315 5.315 0 0 0 10.63.003zm0 0"/></clipPath><clipPath id="bX"><path d="M64.758 58.367H69V63h-4.242zm0 0"/></clipPath><clipPath id="bY"><path d="M68.402 57.578a5.315 5.315 0 1 0-10.63-.003 5.315 5.315 0 0 0 10.63.003zm0 0"/></clipPath><clipPath id="bZ"><path d="M67.746 58.367H69V63h-1.254zm0 0"/></clipPath><clipPath id="ca"><path d="M68.402 57.578a5.315 5.315 0 1 0-10.63-.003 5.315 5.315 0 0 0 10.63.003zm0 0"/></clipPath><clipPath id="cb"><path d="M57 55.379h.785v4.98H57zm0 0"/></clipPath><clipPath id="cc"><path d="M68.402 57.578a5.315 5.315 0 1 0-10.63-.003 5.315 5.315 0 0 0 10.63.003zm0 0"/></clipPath><clipPath id="cd"><path d="M57 55.379h3.773v4.98H57zm0 0"/></clipPath><clipPath id="ce"><path d="M68.402 57.578a5.315 5.315 0 1 0-10.63-.003 5.315 5.315 0 0 0 10.63.003zm0 0"/></clipPath><clipPath id="cf"><path d="M58.781 55.379h4.98v4.98h-4.98zm0 0"/></clipPath><clipPath id="cg"><path d="M68.402 57.578a5.315 5.315 0 1 0-10.63-.003 5.315 5.315 0 0 0 10.63.003zm0 0"/></clipPath><clipPath id="ch"><path d="M61.77 55.379h4.98v4.98h-4.98zm0 0"/></clipPath><clipPath id="ci"><path d="M68.402 57.578a5.315 5.315 0 1 0-10.63-.003 5.315 5.315 0 0 0 10.63.003zm0 0"/></clipPath><clipPath id="cj"><path d="M64.758 55.379H69v4.98h-4.242zm0 0"/></clipPath><clipPath id="ck"><path d="M68.402 57.578a5.315 5.315 0 1 0-10.63-.003 5.315 5.315 0 0 0 10.63.003zm0 0"/></clipPath><clipPath id="cl"><path d="M67.746 55.379H69v4.98h-1.254zm0 0"/></clipPath><clipPath id="cm"><path d="M68.402 57.578a5.315 5.315 0 1 0-10.63-.003 5.315 5.315 0 0 0 10.63.003zm0 0"/></clipPath><clipPath id="cn"><path d="M57 52.39h.785v4.981H57zm0 0"/></clipPath><clipPath id="co"><path d="M68.402 57.578a5.315 5.315 0 1 0-10.63-.003 5.315 5.315 0 0 0 10.63.003zm0 0"/></clipPath><clipPath id="cp"><path d="M57 52.39h3.773v4.981H57zm0 0"/></clipPath><clipPath id="cq"><path d="M68.402 57.578a5.315 5.315 0 1 0-10.63-.003 5.315 5.315 0 0 0 10.63.003zm0 0"/></clipPath><clipPath id="cr"><path d="M58.781 52.39h4.98v4.981h-4.98zm0 0"/></clipPath><clipPath id="cs"><path d="M68.402 57.578a5.315 5.315 0 1 0-10.63-.003 5.315 5.315 0 0 0 10.63.003zm0 0"/></clipPath><clipPath id="ct"><path d="M61.77 52.39h4.98v4.981h-4.98zm0 0"/></clipPath><clipPath id="cu"><path d="M68.402 57.578a5.315 5.315 0 1 0-10.63-.003 5.315 5.315 0 0 0 10.63.003zm0 0"/></clipPath><clipPath id="cv"><path d="M64.758 52.39H69v4.981h-4.242zm0 0"/></clipPath><clipPath id="cw"><path d="M68.402 57.578a5.315 5.315 0 1 0-10.63-.003 5.315 5.315 0 0 0 10.63.003zm0 0"/></clipPath><clipPath id="cx"><path d="M67.746 52.39H69v4.981h-1.254zm0 0"/></clipPath><clipPath id="cy"><path d="M68.402 57.578a5.315 5.315 0 1 0-10.63-.003 5.315 5.315 0 0 0 10.63.003zm0 0"/></clipPath><clipPath id="cz"><path d="M57 52h.785v2.383H57zm0 0"/></clipPath><clipPath id="cA"><path d="M68.402 57.578a5.315 5.315 0 1 0-10.63-.003 5.315 5.315 0 0 0 10.63.003zm0 0"/></clipPath><clipPath id="cB"><path d="M57 52h3.773v2.383H57zm0 0"/></clipPath><clipPath id="cC"><path d="M68.402 57.578a5.315 5.315 0 1 0-10.63-.003 5.315 5.315 0 0 0 10.63.003zm0 0"/></clipPath><clipPath id="cD"><path d="M58.781 52h4.98v2.383h-4.98zm0 0"/></clipPath><clipPath id="cE"><path d="M68.402 57.578a5.315 5.315 0 1 0-10.63-.003 5.315 5.315 0 0 0 10.63.003zm0 0"/></clipPath><clipPath id="cF"><path d="M61.77 52h4.98v2.383h-4.98zm0 0"/></clipPath><clipPath id="cG"><path d="M68.402 57.578a5.315 5.315 0 1 0-10.63-.003 5.315 5.315 0 0 0 10.63.003zm0 0"/></clipPath><clipPath id="cH"><path d="M64.758 52H69v2.383h-4.242zm0 0"/></clipPath><clipPath id="cI"><path d="M68.402 57.578a5.315 5.315 0 1 0-10.63-.003 5.315 5.315 0 0 0 10.63.003zm0 0"/></clipPath><clipPath id="cJ"><path d="M67.746 52H69v2.383h-1.254zm0 0"/></clipPath><clipPath id="cK"><path d="M68.402 57.578a5.315 5.315 0 1 0-10.63-.003 5.315 5.315 0 0 0 10.63.003zm0 0"/></clipPath><clipPath id="cL"><path d="M128 61.355h1.516V63H128zm0 0"/></clipPath><clipPath id="cM"><path d="M139.27 57.578a5.315 5.315 0 1 0-10.63-.003 5.315 5.315 0 0 0 10.63.003zm0 0"/></clipPath><clipPath id="cN"><path d="M128 61.355h4.504V63H128zm0 0"/></clipPath><clipPath id="cO"><path d="M139.27 57.578a5.315 5.315 0 1 0-10.63-.003 5.315 5.315 0 0 0 10.63.003zm0 0"/></clipPath><clipPath id="cP"><path d="M130.512 61.355h4.98V63h-4.98zm0 0"/></clipPath><clipPath id="cQ"><path d="M139.27 57.578a5.315 5.315 0 1 0-10.63-.003 5.315 5.315 0 0 0 10.63.003zm0 0"/></clipPath><clipPath id="cR"><path d="M133.5 61.355h4.984V63H133.5zm0 0"/></clipPath><clipPath id="cS"><path d="M139.27 57.578a5.315 5.315 0 1 0-10.63-.003 5.315 5.315 0 0 0 10.63.003zm0 0"/></clipPath><clipPath id="cT"><path d="M136.488 61.355H140V63h-3.512zm0 0"/></clipPath><clipPath id="cU"><path d="M139.27 57.578a5.315 5.315 0 1 0-10.63-.003 5.315 5.315 0 0 0 10.63.003zm0 0"/></clipPath><clipPath id="cV"><path d="M128 58.367h1.516V63H128zm0 0"/></clipPath><clipPath id="cW"><path d="M139.27 57.578a5.315 5.315 0 1 0-10.63-.003 5.315 5.315 0 0 0 10.63.003zm0 0"/></clipPath><clipPath id="cX"><path d="M128 58.367h4.504V63H128zm0 0"/></clipPath><clipPath id="cY"><path d="M139.27 57.578a5.315 5.315 0 1 0-10.63-.003 5.315 5.315 0 0 0 10.63.003zm0 0"/></clipPath><clipPath id="cZ"><path d="M130.512 58.367h4.98V63h-4.98zm0 0"/></clipPath><clipPath id="da"><path d="M139.27 57.578a5.315 5.315 0 1 0-10.63-.003 5.315 5.315 0 0 0 10.63.003zm0 0"/></clipPath><clipPath id="db"><path d="M133.5 58.367h4.984V63H133.5zm0 0"/></clipPath><clipPath id="dc"><path d="M139.27 57.578a5.315 5.315 0 1 0-10.63-.003 5.315 5.315 0 0 0 10.63.003zm0 0"/></clipPath><clipPath id="dd"><path d="M136.488 58.367H140V63h-3.512zm0 0"/></clipPath><clipPath id="de"><path d="M139.27 57.578a5.315 5.315 0 1 0-10.63-.003 5.315 5.315 0 0 0 10.63.003zm0 0"/></clipPath><clipPath id="df"><path d="M128 55.379h1.516v4.98H128zm0 0"/></clipPath><clipPath id="dg"><path d="M139.27 57.578a5.315 5.315 0 1 0-10.63-.003 5.315 5.315 0 0 0 10.63.003zm0 0"/></clipPath><clipPath id="dh"><path d="M128 55.379h4.504v4.98H128zm0 0"/></clipPath><clipPath id="di"><path d="M139.27 57.578a5.315 5.315 0 1 0-10.63-.003 5.315 5.315 0 0 0 10.63.003zm0 0"/></clipPath><clipPath id="dj"><path d="M130.512 55.379h4.98v4.98h-4.98zm0 0"/></clipPath><clipPath id="dk"><path d="M139.27 57.578a5.315 5.315 0 1 0-10.63-.003 5.315 5.315 0 0 0 10.63.003zm0 0"/></clipPath><clipPath id="dl"><path d="M133.5 55.379h4.984v4.98H133.5zm0 0"/></clipPath><clipPath id="dm"><path d="M139.27 57.578a5.315 5.315 0 1 0-10.63-.003 5.315 5.315 0 0 0 10.63.003zm0 0"/></clipPath><clipPath id="dn"><path d="M136.488 55.379H140v4.98h-3.512zm0 0"/></clipPath><clipPath id="do"><path d="M139.27 57.578a5.315 5.315 0 1 0-10.63-.003 5.315 5.315 0 0 0 10.63.003zm0 0"/></clipPath><clipPath id="dp"><path d="M128 52.39h1.516v4.981H128zm0 0"/></clipPath><clipPath id="dq"><path d="M139.27 57.578a5.315 5.315 0 1 0-10.63-.003 5.315 5.315 0 0 0 10.63.003zm0 0"/></clipPath><clipPath id="dr"><path d="M128 52.39h4.504v4.981H128zm0 0"/></clipPath><clipPath id="ds"><path d="M139.27 57.578a5.315 5.315 0 1 0-10.63-.003 5.315 5.315 0 0 0 10.63.003zm0 0"/></clipPath><clipPath id="dt"><path d="M130.512 52.39h4.98v4.981h-4.98zm0 0"/></clipPath><clipPath id="du"><path d="M139.27 57.578a5.315 5.315 0 1 0-10.63-.003 5.315 5.315 0 0 0 10.63.003zm0 0"/></clipPath><clipPath id="dv"><path d="M133.5 52.39h4.984v4.981H133.5zm0 0"/></clipPath><clipPath id="dw"><path d="M139.27 57.578a5.315 5.315 0 1 0-10.63-.003 5.315 5.315 0 0 0 10.63.003zm0 0"/></clipPath><clipPath id="dx"><path d="M136.488 52.39H140v4.981h-3.512zm0 0"/></clipPath><clipPath id="dy"><path d="M139.27 57.578a5.315 5.315 0 1 0-10.63-.003 5.315 5.315 0 0 0 10.63.003zm0 0"/></clipPath><clipPath id="dz"><path d="M128 52h1.516v2.383H128zm0 0"/></clipPath><clipPath id="dA"><path d="M139.27 57.578a5.315 5.315 0 1 0-10.63-.003 5.315 5.315 0 0 0 10.63.003zm0 0"/></clipPath><clipPath id="dB"><path d="M128 52h4.504v2.383H128zm0 0"/></clipPath><clipPath id="dC"><path d="M139.27 57.578a5.315 5.315 0 1 0-10.63-.003 5.315 5.315 0 0 0 10.63.003zm0 0"/></clipPath><clipPath id="dD"><path d="M130.512 52h4.98v2.383h-4.98zm0 0"/></clipPath><clipPath id="dE"><path d="M139.27 57.578a5.315 5.315 0 1 0-10.63-.003 5.315 5.315 0 0 0 10.63.003zm0 0"/></clipPath><clipPath id="dF"><path d="M133.5 52h4.984v2.383H133.5zm0 0"/></clipPath><clipPath id="dG"><path d="M139.27 57.578a5.315 5.315 0 1 0-10.63-.003 5.315 5.315 0 0 0 10.63.003zm0 0"/></clipPath><clipPath id="dH"><path d="M136.488 52H140v2.383h-3.512zm0 0"/></clipPath><clipPath id="dI"><path d="M139.27 57.578a5.315 5.315 0 1 0-10.63-.003 5.315 5.315 0 0 0 10.63.003zm0 0"/></clipPath></defs><path d="M133.953 57.578c0-19.57-15.863-35.433-35.433-35.433S63.086 38.008 63.086 57.578 78.949 93.012 98.52 93.012c19.57 0 35.433-15.864 35.433-35.434zm0 0" fill="none" stroke-width="0.79701" stroke="rgb(0%,0%,0%)" stroke-miterlimit="10"/><path d="M130.219 46.895c.668-.415 1.195-2.18 1.168-2.586.27.308 1.89 1.18 2.66 1" fill="none" stroke-width=".637561744" stroke-linecap="round" stroke-linejoin="round" stroke="rgb(0%,0%,0%)" stroke-miterlimit="10"/><use xlink:href="#a" x="119.131" y="48.157" fill="rgb(0%,0%,0%)"/><use xlink:href="#b" x="123.394" y="49.264" fill="rgb(0%,0%,0%)"/><path d="M113.375 27.613c.18-.77-.691-2.39-1-2.66.41.031 2.172-.5 2.59-1.168" fill="none" stroke-width=".637561744" stroke-linecap="round" stroke-linejoin="round" stroke="rgb(0%,0%,0%)" stroke-miterlimit="10"/><use xlink:href="#a" x="105.238" y="31.983" fill="rgb(0%,0%,0%)"/><use xlink:href="#c" x="109.501" y="33.09" fill="rgb(0%,0%,0%)"/><path d="M87.84 25.879c-.418-.668-2.18-1.2-2.59-1.168.309-.27 1.18-1.89 1-2.66" fill="none" stroke-width=".637561744" stroke-linecap="round" stroke-linejoin="round" stroke="rgb(0%,0%,0%)" stroke-miterlimit="10"/><use xlink:href="#a" x="83.258" y="31.984" fill="rgb(0%,0%,0%)"/><use xlink:href="#d" x="87.521" y="33.091" fill="rgb(0%,0%,0%)"/><path d="M68.555 42.719c-.766-.176-2.39.691-2.66 1.004.03-.41-.5-2.172-1.168-2.59" fill="none" stroke-width=".637561744" stroke-linecap="round" stroke-linejoin="round" stroke="rgb(0%,0%,0%)" stroke-miterlimit="10"/><use xlink:href="#a" x="69.494" y="48.322" fill="rgb(0%,0%,0%)"/><use xlink:href="#e" x="73.757" y="49.429" fill="rgb(0%,0%,0%)"/><path d="M73.332 79.57c-.457.64-.273 2.473-.094 2.836-.363-.183-2.195-.363-2.836.094" fill="none" stroke-width=".6375872479999999" stroke-linecap="round" stroke-linejoin="round" stroke="rgb(0%,0%,0%)" stroke-miterlimit="10"/><use xlink:href="#a" x="75.469" y="77.364" fill="rgb(0%,0%,0%)"/><use xlink:href="#f" x="79.732" y="78.471" fill="rgb(0%,0%,0%)"/><path d="M120.512 82.766c.64.457 2.472.273 2.84.09-.184.367-.368 2.199.09 2.84" fill="none" stroke-width=".6375872479999999" stroke-linecap="round" stroke-linejoin="round" stroke="rgb(0%,0%,0%)" stroke-miterlimit="10"/><use xlink:href="#a" x="112.938" y="77.363" fill="rgb(0%,0%,0%)"/><use xlink:href="#g" x="117.2" y="78.47" fill="rgb(0%,0%,0%)"/><path d="M130.219 46.895c.668-.415 1.195-2.18 1.168-2.586.27.308 1.89 1.18 2.66 1" fill="none" stroke-width=".637561744" stroke-linecap="round" stroke-linejoin="round" stroke="rgb(0%,0%,0%)" stroke-miterlimit="10"/><use xlink:href="#a" x="119.131" y="48.157" fill="rgb(0%,0%,0%)"/><use xlink:href="#b" x="123.394" y="49.264" fill="rgb(0%,0%,0%)"/><path d="M113.375 27.613c.18-.77-.691-2.39-1-2.66.41.031 2.172-.5 2.59-1.168" fill="none" stroke-width=".637561744" stroke-linecap="round" stroke-linejoin="round" stroke="rgb(0%,0%,0%)" stroke-miterlimit="10"/><use xlink:href="#a" x="105.238" y="31.983" fill="rgb(0%,0%,0%)"/><use xlink:href="#c" x="109.501" y="33.09" fill="rgb(0%,0%,0%)"/><path d="M87.84 25.879c-.418-.668-2.18-1.2-2.59-1.168.309-.27 1.18-1.89 1-2.66" fill="none" stroke-width=".637561744" stroke-linecap="round" stroke-linejoin="round" stroke="rgb(0%,0%,0%)" stroke-miterlimit="10"/><use xlink:href="#a" x="83.258" y="31.984" fill="rgb(0%,0%,0%)"/><use xlink:href="#d" x="87.521" y="33.091" fill="rgb(0%,0%,0%)"/><path d="M68.555 42.719c-.766-.176-2.39.691-2.66 1.004.03-.41-.5-2.172-1.168-2.59" fill="none" stroke-width=".637561744" stroke-linecap="round" stroke-linejoin="round" stroke="rgb(0%,0%,0%)" stroke-miterlimit="10"/><use xlink:href="#a" x="69.494" y="48.322" fill="rgb(0%,0%,0%)"/><use xlink:href="#e" x="73.757" y="49.429" fill="rgb(0%,0%,0%)"/><path d="M73.332 79.57c-.457.64-.273 2.473-.094 2.836-.363-.183-2.195-.363-2.836.094" fill="none" stroke-width=".6375872479999999" stroke-linecap="round" stroke-linejoin="round" stroke="rgb(0%,0%,0%)" stroke-miterlimit="10"/><use xlink:href="#a" x="75.469" y="77.364" fill="rgb(0%,0%,0%)"/><use xlink:href="#f" x="79.732" y="78.471" fill="rgb(0%,0%,0%)"/><path d="M120.512 82.766c.64.457 2.472.273 2.84.09-.184.367-.368 2.199.09 2.84" fill="none" stroke-width=".6375872479999999" stroke-linecap="round" stroke-linejoin="round" stroke="rgb(0%,0%,0%)" stroke-miterlimit="10"/><use xlink:href="#a" x="112.938" y="77.363" fill="rgb(0%,0%,0%)"/><use xlink:href="#g" x="117.2" y="78.47" fill="rgb(0%,0%,0%)"/><path d="M130.219 46.895c.668-.415 1.195-2.18 1.168-2.586.27.308 1.89 1.18 2.66 1" fill="none" stroke-width=".637561744" stroke-linecap="round" stroke-linejoin="round" stroke="rgb(0%,0%,0%)" stroke-miterlimit="10"/><use xlink:href="#a" x="119.131" y="48.157" fill="rgb(0%,0%,0%)"/><use xlink:href="#b" x="123.394" y="49.264" fill="rgb(0%,0%,0%)"/><path d="M113.375 27.613c.18-.77-.691-2.39-1-2.66.41.031 2.172-.5 2.59-1.168" fill="none" stroke-width=".637561744" stroke-linecap="round" stroke-linejoin="round" stroke="rgb(0%,0%,0%)" stroke-miterlimit="10"/><use xlink:href="#a" x="105.238" y="31.983" fill="rgb(0%,0%,0%)"/><use xlink:href="#c" x="109.501" y="33.09" fill="rgb(0%,0%,0%)"/><path d="M87.84 25.879c-.418-.668-2.18-1.2-2.59-1.168.309-.27 1.18-1.89 1-2.66" fill="none" stroke-width=".637561744" stroke-linecap="round" stroke-linejoin="round" stroke="rgb(0%,0%,0%)" stroke-miterlimit="10"/><use xlink:href="#a" x="83.258" y="31.984" fill="rgb(0%,0%,0%)"/><use xlink:href="#d" x="87.521" y="33.091" fill="rgb(0%,0%,0%)"/><path d="M68.555 42.719c-.766-.176-2.39.691-2.66 1.004.03-.41-.5-2.172-1.168-2.59" fill="none" stroke-width=".637561744" stroke-linecap="round" stroke-linejoin="round" stroke="rgb(0%,0%,0%)" stroke-miterlimit="10"/><use xlink:href="#a" x="69.494" y="48.322" fill="rgb(0%,0%,0%)"/><use xlink:href="#e" x="73.757" y="49.429" fill="rgb(0%,0%,0%)"/><path d="M73.332 79.57c-.457.64-.273 2.473-.094 2.836-.363-.183-2.195-.363-2.836.094" fill="none" stroke-width=".6375872479999999" stroke-linecap="round" stroke-linejoin="round" stroke="rgb(0%,0%,0%)" stroke-miterlimit="10"/><use xlink:href="#a" x="75.469" y="77.364" fill="rgb(0%,0%,0%)"/><use xlink:href="#f" x="79.732" y="78.471" fill="rgb(0%,0%,0%)"/><path d="M120.512 82.766c.64.457 2.472.273 2.84.09-.184.367-.368 2.199.09 2.84" fill="none" stroke-width=".6375872479999999" stroke-linecap="round" stroke-linejoin="round" stroke="rgb(0%,0%,0%)" stroke-miterlimit="10"/><use xlink:href="#a" x="112.938" y="77.363" fill="rgb(0%,0%,0%)"/><use xlink:href="#g" x="117.2" y="78.47" fill="rgb(0%,0%,0%)"/><path d="M130.219 46.895c.668-.415 1.195-2.18 1.168-2.586.27.308 1.89 1.18 2.66 1" fill="none" stroke-width=".637561744" stroke-linecap="round" stroke-linejoin="round" stroke="rgb(0%,0%,0%)" stroke-miterlimit="10"/><use xlink:href="#a" x="119.131" y="48.157" fill="rgb(0%,0%,0%)"/><use xlink:href="#b" x="123.394" y="49.264" fill="rgb(0%,0%,0%)"/><path d="M113.375 27.613c.18-.77-.691-2.39-1-2.66.41.031 2.172-.5 2.59-1.168" fill="none" stroke-width=".637561744" stroke-linecap="round" stroke-linejoin="round" stroke="rgb(0%,0%,0%)" stroke-miterlimit="10"/><use xlink:href="#a" x="105.238" y="31.983" fill="rgb(0%,0%,0%)"/><use xlink:href="#c" x="109.501" y="33.09" fill="rgb(0%,0%,0%)"/><path d="M87.84 25.879c-.418-.668-2.18-1.2-2.59-1.168.309-.27 1.18-1.89 1-2.66" fill="none" stroke-width=".637561744" stroke-linecap="round" stroke-linejoin="round" stroke="rgb(0%,0%,0%)" stroke-miterlimit="10"/><use xlink:href="#a" x="83.258" y="31.984" fill="rgb(0%,0%,0%)"/><use xlink:href="#d" x="87.521" y="33.091" fill="rgb(0%,0%,0%)"/><path d="M68.555 42.719c-.766-.176-2.39.691-2.66 1.004.03-.41-.5-2.172-1.168-2.59" fill="none" stroke-width=".637561744" stroke-linecap="round" stroke-linejoin="round" stroke="rgb(0%,0%,0%)" stroke-miterlimit="10"/><use xlink:href="#a" x="69.494" y="48.322" fill="rgb(0%,0%,0%)"/><use xlink:href="#e" x="73.757" y="49.429" fill="rgb(0%,0%,0%)"/><path d="M73.332 79.57c-.457.64-.273 2.473-.094 2.836-.363-.183-2.195-.363-2.836.094" fill="none" stroke-width=".6375872479999999" stroke-linecap="round" stroke-linejoin="round" stroke="rgb(0%,0%,0%)" stroke-miterlimit="10"/><use xlink:href="#a" x="75.469" y="77.364" fill="rgb(0%,0%,0%)"/><use xlink:href="#f" x="79.732" y="78.471" fill="rgb(0%,0%,0%)"/><path d="M120.512 82.766c.64.457 2.472.273 2.84.09-.184.367-.368 2.199.09 2.84" fill="none" stroke-width=".6375872479999999" stroke-linecap="round" stroke-linejoin="round" stroke="rgb(0%,0%,0%)" stroke-miterlimit="10"/><use xlink:href="#a" x="112.938" y="77.363" fill="rgb(0%,0%,0%)"/><use xlink:href="#g" x="117.2" y="78.47" fill="rgb(0%,0%,0%)"/><path d="M130.219 46.895c.668-.415 1.195-2.18 1.168-2.586.27.308 1.89 1.18 2.66 1" fill="none" stroke-width=".637561744" stroke-linecap="round" stroke-linejoin="round" stroke="rgb(0%,0%,0%)" stroke-miterlimit="10"/><use xlink:href="#a" x="119.131" y="48.157" fill="rgb(0%,0%,0%)"/><use xlink:href="#b" x="123.394" y="49.264" fill="rgb(0%,0%,0%)"/><path d="M113.375 27.613c.18-.77-.691-2.39-1-2.66.41.031 2.172-.5 2.59-1.168" fill="none" stroke-width=".637561744" stroke-linecap="round" stroke-linejoin="round" stroke="rgb(0%,0%,0%)" stroke-miterlimit="10"/><use xlink:href="#a" x="105.238" y="31.983" fill="rgb(0%,0%,0%)"/><use xlink:href="#c" x="109.501" y="33.09" fill="rgb(0%,0%,0%)"/><path d="M87.84 25.879c-.418-.668-2.18-1.2-2.59-1.168.309-.27 1.18-1.89 1-2.66" fill="none" stroke-width=".637561744" stroke-linecap="round" stroke-linejoin="round" stroke="rgb(0%,0%,0%)" stroke-miterlimit="10"/><use xlink:href="#a" x="83.258" y="31.984" fill="rgb(0%,0%,0%)"/><use xlink:href="#d" x="87.521" y="33.091" fill="rgb(0%,0%,0%)"/><path d="M68.555 42.719c-.766-.176-2.39.691-2.66 1.004.03-.41-.5-2.172-1.168-2.59" fill="none" stroke-width=".637561744" stroke-linecap="round" stroke-linejoin="round" stroke="rgb(0%,0%,0%)" stroke-miterlimit="10"/><use xlink:href="#a" x="69.494" y="48.322" fill="rgb(0%,0%,0%)"/><use xlink:href="#e" x="73.757" y="49.429" fill="rgb(0%,0%,0%)"/><path d="M73.332 79.57c-.457.64-.273 2.473-.094 2.836-.363-.183-2.195-.363-2.836.094" fill="none" stroke-width=".6375872479999999" stroke-linecap="round" stroke-linejoin="round" stroke="rgb(0%,0%,0%)" stroke-miterlimit="10"/><use xlink:href="#a" x="75.469" y="77.364" fill="rgb(0%,0%,0%)"/><use xlink:href="#f" x="79.732" y="78.471" fill="rgb(0%,0%,0%)"/><path d="M120.512 82.766c.64.457 2.472.273 2.84.09-.184.367-.368 2.199.09 2.84" fill="none" stroke-width=".6375872479999999" stroke-linecap="round" stroke-linejoin="round" stroke="rgb(0%,0%,0%)" stroke-miterlimit="10"/><use xlink:href="#a" x="112.938" y="77.363" fill="rgb(0%,0%,0%)"/><use xlink:href="#g" x="117.2" y="78.47" fill="rgb(0%,0%,0%)"/><path d="M130.219 46.895c.668-.415 1.195-2.18 1.168-2.586.27.308 1.89 1.18 2.66 1" fill="none" stroke-width=".637561744" stroke-linecap="round" stroke-linejoin="round" stroke="rgb(0%,0%,0%)" stroke-miterlimit="10"/><use xlink:href="#a" x="119.131" y="48.157" fill="rgb(0%,0%,0%)"/><use xlink:href="#b" x="123.394" y="49.264" fill="rgb(0%,0%,0%)"/><path d="M113.375 27.613c.18-.77-.691-2.39-1-2.66.41.031 2.172-.5 2.59-1.168" fill="none" stroke-width=".637561744" stroke-linecap="round" stroke-linejoin="round" stroke="rgb(0%,0%,0%)" stroke-miterlimit="10"/><use xlink:href="#a" x="105.238" y="31.983" fill="rgb(0%,0%,0%)"/><use xlink:href="#c" x="109.501" y="33.09" fill="rgb(0%,0%,0%)"/><path d="M87.84 25.879c-.418-.668-2.18-1.2-2.59-1.168.309-.27 1.18-1.89 1-2.66" fill="none" stroke-width=".637561744" stroke-linecap="round" stroke-linejoin="round" stroke="rgb(0%,0%,0%)" stroke-miterlimit="10"/><use xlink:href="#a" x="83.258" y="31.984" fill="rgb(0%,0%,0%)"/><use xlink:href="#d" x="87.521" y="33.091" fill="rgb(0%,0%,0%)"/><path d="M68.555 42.719c-.766-.176-2.39.691-2.66 1.004.03-.41-.5-2.172-1.168-2.59" fill="none" stroke-width=".637561744" stroke-linecap="round" stroke-linejoin="round" stroke="rgb(0%,0%,0%)" stroke-miterlimit="10"/><use xlink:href="#a" x="69.494" y="48.322" fill="rgb(0%,0%,0%)"/><use xlink:href="#e" x="73.757" y="49.429" fill="rgb(0%,0%,0%)"/><path d="M73.332 79.57c-.457.64-.273 2.473-.094 2.836-.363-.183-2.195-.363-2.836.094" fill="none" stroke-width=".6375872479999999" stroke-linecap="round" stroke-linejoin="round" stroke="rgb(0%,0%,0%)" stroke-miterlimit="10"/><use xlink:href="#a" x="75.469" y="77.364" fill="rgb(0%,0%,0%)"/><use xlink:href="#f" x="79.732" y="78.471" fill="rgb(0%,0%,0%)"/><path d="M120.512 82.766c.64.457 2.472.273 2.84.09-.184.367-.368 2.199.09 2.84" fill="none" stroke-width=".6375872479999999" stroke-linecap="round" stroke-linejoin="round" stroke="rgb(0%,0%,0%)" stroke-miterlimit="10"/><use xlink:href="#a" x="112.938" y="77.363" fill="rgb(0%,0%,0%)"/><use xlink:href="#g" x="117.2" y="78.47" fill="rgb(0%,0%,0%)"/><path d="M102.063 22.145a3.543 3.543 0 1 0-7.086-.001 3.543 3.543 0 0 0 7.085 0zm0 0" fill="rgb(100%,100%,100%)"/><g clip-path="url(#h)"><g clip-path="url(#i)"><path d="M102.063 25.687l-7.086-7.085m0 7.085l7.085-7.085" fill="none" stroke-width="0.3985" stroke="rgb(0%,0%,0%)" stroke-miterlimit="10"/></g></g><path d="M102.063 22.145a3.543 3.543 0 1 0-7.086-.001 3.543 3.543 0 0 0 7.085 0zm0 0" fill="none" stroke-width="0.3985" stroke="rgb(0%,0%,0%)" stroke-miterlimit="10"/><use xlink:href="#j" x="67.179" y="10.793" fill="rgb(0%,0%,0%)"/><use xlink:href="#k" x="72.468" y="12.287" fill="rgb(0%,0%,0%)"/><use xlink:href="#l" x="77.37" y="10.793" fill="rgb(0%,0%,0%)"/><use xlink:href="#k" x="84.934" y="12.287" fill="rgb(0%,0%,0%)"/><g fill="rgb(0%,0%,0%)"><use xlink:href="#m" x="89.337" y="12.287"/><use xlink:href="#n" x="91.703" y="12.287"/><use xlink:href="#o" x="94.522" y="12.287"/></g><use xlink:href="#p" x="98.721" y="10.793" fill="rgb(0%,0%,0%)"/><use xlink:href="#q" x="102.595" y="10.793" fill="rgb(0%,0%,0%)"/><use xlink:href="#r" x="107.608" y="12.287" fill="rgb(0%,0%,0%)"/><use xlink:href="#s" x="112.077" y="10.793" fill="rgb(0%,0%,0%)"/><use xlink:href="#q" x="116.508" y="10.793" fill="rgb(0%,0%,0%)"/><use xlink:href="#t" x="121.517" y="12.287" fill="rgb(0%,0%,0%)"/><use xlink:href="#u" x="125.987" y="10.793" fill="rgb(0%,0%,0%)"/><path d="M77.008 32.523a3.546 3.546 0 0 0-3.543-3.546 3.546 3.546 0 0 0 0 7.09 3.543 3.543 0 0 0 3.543-3.544zm0 0" fill="rgb(100%,100%,100%)" stroke-width="0.3985" stroke="rgb(0%,0%,0%)" stroke-miterlimit="10"/><g clip-path="url(#v)"><g clip-path="url(#w)"><path d="M68.742 38.441l3.09-3.09" fill="none" stroke-width="0.3985" stroke="rgb(0%,0%,0%)" stroke-miterlimit="10"/></g></g><g clip-path="url(#x)"><g clip-path="url(#y)"><path d="M71.73 38.441l3.09-3.09" fill="none" stroke-width="0.3985" stroke="rgb(0%,0%,0%)" stroke-miterlimit="10"/></g></g><g clip-path="url(#z)"><g clip-path="url(#A)"><path d="M74.723 38.441l3.086-3.09" fill="none" stroke-width="0.3985" stroke="rgb(0%,0%,0%)" stroke-miterlimit="10"/></g></g><g clip-path="url(#B)"><g clip-path="url(#C)"><path d="M77.71 38.441l3.087-3.09" fill="none" stroke-width="0.3985" stroke="rgb(0%,0%,0%)" stroke-miterlimit="10"/></g></g><g clip-path="url(#D)"><g clip-path="url(#E)"><path d="M68.742 35.453l3.09-3.09" fill="none" stroke-width="0.3985" stroke="rgb(0%,0%,0%)" stroke-miterlimit="10"/></g></g><g clip-path="url(#F)"><g clip-path="url(#G)"><path d="M71.73 35.453l3.09-3.09" fill="none" stroke-width="0.3985" stroke="rgb(0%,0%,0%)" stroke-miterlimit="10"/></g></g><g clip-path="url(#H)"><g clip-path="url(#I)"><path d="M74.723 35.453l3.086-3.09" fill="none" stroke-width="0.3985" stroke="rgb(0%,0%,0%)" stroke-miterlimit="10"/></g></g><g clip-path="url(#J)"><g clip-path="url(#K)"><path d="M77.71 35.453l3.087-3.09" fill="none" stroke-width="0.3985" stroke="rgb(0%,0%,0%)" stroke-miterlimit="10"/></g></g><g clip-path="url(#L)"><g clip-path="url(#M)"><path d="M68.742 32.465l3.09-3.09" fill="none" stroke-width="0.3985" stroke="rgb(0%,0%,0%)" stroke-miterlimit="10"/></g></g><g clip-path="url(#N)"><g clip-path="url(#O)"><path d="M71.73 32.465l3.09-3.09" fill="none" stroke-width="0.3985" stroke="rgb(0%,0%,0%)" stroke-miterlimit="10"/></g></g><g clip-path="url(#P)"><g clip-path="url(#Q)"><path d="M74.723 32.465l3.086-3.09" fill="none" stroke-width="0.3985" stroke="rgb(0%,0%,0%)" stroke-miterlimit="10"/></g></g><g clip-path="url(#R)"><g clip-path="url(#S)"><path d="M77.71 32.465l3.087-3.09" fill="none" stroke-width="0.3985" stroke="rgb(0%,0%,0%)" stroke-miterlimit="10"/></g></g><g clip-path="url(#T)"><g clip-path="url(#U)"><path d="M68.742 29.477l3.09-3.09" fill="none" stroke-width="0.3985" stroke="rgb(0%,0%,0%)" stroke-miterlimit="10"/></g></g><g clip-path="url(#V)"><g clip-path="url(#W)"><path d="M71.73 29.477l3.09-3.09" fill="none" stroke-width="0.3985" stroke="rgb(0%,0%,0%)" stroke-miterlimit="10"/></g></g><g clip-path="url(#X)"><g clip-path="url(#Y)"><path d="M74.723 29.477l3.086-3.09" fill="none" stroke-width="0.3985" stroke="rgb(0%,0%,0%)" stroke-miterlimit="10"/></g></g><g clip-path="url(#Z)"><g clip-path="url(#aa)"><path d="M77.71 29.477l3.087-3.09" fill="none" stroke-width="0.3985" stroke="rgb(0%,0%,0%)" stroke-miterlimit="10"/></g></g><use xlink:href="#ab" x="15.601" y="26.152" fill="rgb(0%,0%,0%)"/><use xlink:href="#k" x="23.434" y="27.647" fill="rgb(0%,0%,0%)"/><g fill="rgb(0%,0%,0%)"><use xlink:href="#m" x="27.837" y="27.647"/><use xlink:href="#o" x="30.203" y="27.647"/></g><use xlink:href="#k" x="33.904" y="27.647" fill="rgb(0%,0%,0%)"/><use xlink:href="#p" x="38.805" y="26.152" fill="rgb(0%,0%,0%)"/><use xlink:href="#q" x="42.68" y="26.152" fill="rgb(0%,0%,0%)"/><use xlink:href="#t" x="47.692" y="27.647" fill="rgb(0%,0%,0%)"/><use xlink:href="#s" x="52.161" y="26.152" fill="rgb(0%,0%,0%)"/><use xlink:href="#q" x="56.592" y="26.152" fill="rgb(0%,0%,0%)"/><use xlink:href="#ac" x="61.602" y="27.647" fill="rgb(0%,0%,0%)"/><use xlink:href="#u" x="66.071" y="26.152" fill="rgb(0%,0%,0%)"/><path d="M127.117 32.523a3.546 3.546 0 0 0-3.543-3.546 3.546 3.546 0 0 0 0 7.09 3.543 3.543 0 0 0 3.543-3.544zm0 0" fill="rgb(100%,100%,100%)" stroke-width="0.3985" stroke="rgb(0%,0%,0%)" stroke-miterlimit="10"/><g clip-path="url(#ad)"><g clip-path="url(#ae)"><path d="M116.563 38.441l3.09-3.09" fill="none" stroke-width="0.3985" stroke="rgb(0%,0%,0%)" stroke-miterlimit="10"/></g></g><g clip-path="url(#af)"><g clip-path="url(#ag)"><path d="M119.555 38.441l3.086-3.09" fill="none" stroke-width="0.3985" stroke="rgb(0%,0%,0%)" stroke-miterlimit="10"/></g></g><g clip-path="url(#ah)"><g clip-path="url(#ai)"><path d="M122.543 38.441l3.086-3.09" fill="none" stroke-width="0.3985" stroke="rgb(0%,0%,0%)" stroke-miterlimit="10"/></g></g><g clip-path="url(#aj)"><g clip-path="url(#ak)"><path d="M125.531 38.441l3.09-3.09" fill="none" stroke-width="0.3985" stroke="rgb(0%,0%,0%)" stroke-miterlimit="10"/></g></g><g clip-path="url(#al)"><g clip-path="url(#am)"><path d="M116.563 35.453l3.09-3.09" fill="none" stroke-width="0.3985" stroke="rgb(0%,0%,0%)" stroke-miterlimit="10"/></g></g><g clip-path="url(#an)"><g clip-path="url(#ao)"><path d="M119.555 35.453l3.086-3.09" fill="none" stroke-width="0.3985" stroke="rgb(0%,0%,0%)" stroke-miterlimit="10"/></g></g><g clip-path="url(#ap)"><g clip-path="url(#aq)"><path d="M122.543 35.453l3.086-3.09" fill="none" stroke-width="0.3985" stroke="rgb(0%,0%,0%)" stroke-miterlimit="10"/></g></g><g clip-path="url(#ar)"><g clip-path="url(#as)"><path d="M125.531 35.453l3.09-3.09" fill="none" stroke-width="0.3985" stroke="rgb(0%,0%,0%)" stroke-miterlimit="10"/></g></g><g clip-path="url(#at)"><g clip-path="url(#au)"><path d="M116.563 32.465l3.09-3.09" fill="none" stroke-width="0.3985" stroke="rgb(0%,0%,0%)" stroke-miterlimit="10"/></g></g><g clip-path="url(#av)"><g clip-path="url(#aw)"><path d="M119.555 32.465l3.086-3.09" fill="none" stroke-width="0.3985" stroke="rgb(0%,0%,0%)" stroke-miterlimit="10"/></g></g><g clip-path="url(#ax)"><g clip-path="url(#ay)"><path d="M122.543 32.465l3.086-3.09" fill="none" stroke-width="0.3985" stroke="rgb(0%,0%,0%)" stroke-miterlimit="10"/></g></g><g clip-path="url(#az)"><g clip-path="url(#aA)"><path d="M125.531 32.465l3.09-3.09" fill="none" stroke-width="0.3985" stroke="rgb(0%,0%,0%)" stroke-miterlimit="10"/></g></g><g clip-path="url(#aB)"><g clip-path="url(#aC)"><path d="M116.563 29.477l3.09-3.09" fill="none" stroke-width="0.3985" stroke="rgb(0%,0%,0%)" stroke-miterlimit="10"/></g></g><g clip-path="url(#aD)"><g clip-path="url(#aE)"><path d="M119.555 29.477l3.086-3.09" fill="none" stroke-width="0.3985" stroke="rgb(0%,0%,0%)" stroke-miterlimit="10"/></g></g><g clip-path="url(#aF)"><g clip-path="url(#aG)"><path d="M122.543 29.477l3.086-3.09" fill="none" stroke-width="0.3985" stroke="rgb(0%,0%,0%)" stroke-miterlimit="10"/></g></g><g clip-path="url(#aH)"><g clip-path="url(#aI)"><path d="M125.531 29.477l3.09-3.09" fill="none" stroke-width="0.3985" stroke="rgb(0%,0%,0%)" stroke-miterlimit="10"/></g></g><use xlink:href="#ab" x="127.095" y="26.152" fill="rgb(0%,0%,0%)"/><use xlink:href="#k" x="134.928" y="27.647" fill="rgb(0%,0%,0%)"/><g fill="rgb(0%,0%,0%)"><use xlink:href="#m" x="139.331" y="27.647"/><use xlink:href="#aJ" x="141.697" y="27.647"/><use xlink:href="#n" x="146.622" y="27.647"/></g><use xlink:href="#p" x="149.939" y="26.152" fill="rgb(0%,0%,0%)"/><use xlink:href="#q" x="153.814" y="26.152" fill="rgb(0%,0%,0%)"/><use xlink:href="#aK" x="158.826" y="27.647" fill="rgb(0%,0%,0%)"/><use xlink:href="#s" x="163.295" y="26.152" fill="rgb(0%,0%,0%)"/><use xlink:href="#q" x="167.726" y="26.152" fill="rgb(0%,0%,0%)"/><use xlink:href="#r" x="172.736" y="27.647" fill="rgb(0%,0%,0%)"/><use xlink:href="#u" x="177.205" y="26.152" fill="rgb(0%,0%,0%)"/><path d="M102.063 93.012a3.543 3.543 0 1 0-7.086-.001 3.543 3.543 0 0 0 7.085 0zm0 0" fill="rgb(100%,100%,100%)" stroke-width="0.3985" stroke="rgb(0%,0%,0%)" stroke-miterlimit="10"/><g clip-path="url(#aL)"><g clip-path="url(#aM)"><path d="M92.652 98.219l3.09-3.09" fill="none" stroke-width="0.3985" stroke="rgb(0%,0%,0%)" stroke-miterlimit="10"/></g></g><g clip-path="url(#aN)"><g clip-path="url(#aO)"><path d="M95.64 98.219l3.09-3.09" fill="none" stroke-width="0.3985" stroke="rgb(0%,0%,0%)" stroke-miterlimit="10"/></g></g><g clip-path="url(#aP)"><g clip-path="url(#aQ)"><path d="M98.633 98.219l3.086-3.09" fill="none" stroke-width="0.3985" stroke="rgb(0%,0%,0%)" stroke-miterlimit="10"/></g></g><g clip-path="url(#aR)"><g clip-path="url(#aS)"><path d="M101.621 98.219l3.086-3.09" fill="none" stroke-width="0.3985" stroke="rgb(0%,0%,0%)" stroke-miterlimit="10"/></g></g><g clip-path="url(#aT)"><g clip-path="url(#aU)"><path d="M92.652 95.23l3.09-3.09" fill="none" stroke-width="0.3985" stroke="rgb(0%,0%,0%)" stroke-miterlimit="10"/></g></g><g clip-path="url(#aV)"><g clip-path="url(#aW)"><path d="M95.64 95.23l3.09-3.09" fill="none" stroke-width="0.3985" stroke="rgb(0%,0%,0%)" stroke-miterlimit="10"/></g></g><g clip-path="url(#aX)"><g clip-path="url(#aY)"><path d="M98.633 95.23l3.086-3.09" fill="none" stroke-width="0.3985" stroke="rgb(0%,0%,0%)" stroke-miterlimit="10"/></g></g><g clip-path="url(#aZ)"><g clip-path="url(#ba)"><path d="M101.621 95.23l3.086-3.09" fill="none" stroke-width="0.3985" stroke="rgb(0%,0%,0%)" stroke-miterlimit="10"/></g></g><g clip-path="url(#bb)"><g clip-path="url(#bc)"><path d="M92.652 92.238l3.09-3.086" fill="none" stroke-width="0.3985" stroke="rgb(0%,0%,0%)" stroke-miterlimit="10"/></g></g><g clip-path="url(#bd)"><g clip-path="url(#be)"><path d="M95.64 92.238l3.09-3.086" fill="none" stroke-width="0.3985" stroke="rgb(0%,0%,0%)" stroke-miterlimit="10"/></g></g><g clip-path="url(#bf)"><g clip-path="url(#bg)"><path d="M98.633 92.238l3.086-3.086" fill="none" stroke-width="0.3985" stroke="rgb(0%,0%,0%)" stroke-miterlimit="10"/></g></g><g clip-path="url(#bh)"><g clip-path="url(#bi)"><path d="M101.621 92.238l3.086-3.086" fill="none" stroke-width="0.3985" stroke="rgb(0%,0%,0%)" stroke-miterlimit="10"/></g></g><g clip-path="url(#bj)"><g clip-path="url(#bk)"><path d="M92.652 89.25l3.09-3.086" fill="none" stroke-width="0.3985" stroke="rgb(0%,0%,0%)" stroke-miterlimit="10"/></g></g><g clip-path="url(#bl)"><g clip-path="url(#bm)"><path d="M95.64 89.25l3.09-3.086" fill="none" stroke-width="0.3985" stroke="rgb(0%,0%,0%)" stroke-miterlimit="10"/></g></g><g clip-path="url(#bn)"><g clip-path="url(#bo)"><path d="M98.633 89.25l3.086-3.086" fill="none" stroke-width="0.3985" stroke="rgb(0%,0%,0%)" stroke-miterlimit="10"/></g></g><g clip-path="url(#bp)"><g clip-path="url(#bq)"><path d="M101.621 89.25l3.086-3.086" fill="none" stroke-width="0.3985" stroke="rgb(0%,0%,0%)" stroke-miterlimit="10"/></g></g><use xlink:href="#ab" x="70.585" y="106.991" fill="rgb(0%,0%,0%)"/><use xlink:href="#k" x="78.418" y="108.485" fill="rgb(0%,0%,0%)"/><g fill="rgb(0%,0%,0%)"><use xlink:href="#m" x="82.821" y="108.485"/><use xlink:href="#br" x="85.187" y="108.485"/></g><use xlink:href="#bs" x="87.748" y="108.485" fill="rgb(0%,0%,0%)"/><use xlink:href="#p" x="95.315" y="106.991" fill="rgb(0%,0%,0%)"/><use xlink:href="#q" x="99.19" y="106.991" fill="rgb(0%,0%,0%)"/><use xlink:href="#bt" x="104.202" y="108.485" fill="rgb(0%,0%,0%)"/><use xlink:href="#s" x="108.671" y="106.991" fill="rgb(0%,0%,0%)"/><use xlink:href="#q" x="113.102" y="106.991" fill="rgb(0%,0%,0%)"/><use xlink:href="#bu" x="118.112" y="108.485" fill="rgb(0%,0%,0%)"/><use xlink:href="#u" x="122.581" y="106.991" fill="rgb(0%,0%,0%)"/><path d="M27.652 57.578h35.434" fill="none" stroke-width="0.3985" stroke="rgb(0%,0%,0%)" stroke-miterlimit="10"/><use xlink:href="#bv" x="36.159" y="65.387" fill="rgb(0%,0%,0%)"/><use xlink:href="#bw" x="42.676" y="66.881" fill="rgb(0%,0%,0%)"/><path d="M32.633 52.594h16.031" fill="none" stroke-width="0.59776" stroke="rgb(0%,0%,0%)" stroke-miterlimit="10"/><path d="M47.29 50.762c.112.687 1.374 1.718 1.718 1.832-.344.117-1.606 1.148-1.719 1.836" fill="none" stroke-width="0.4782" stroke-linecap="round" stroke-linejoin="round" stroke="rgb(0%,0%,0%)" stroke-miterlimit="10"/><use xlink:href="#bx" x="36.483" y="47.04" fill="rgb(0%,0%,0%)"/><use xlink:href="#r" x="40.93" y="48.534" fill="rgb(0%,0%,0%)"/><path d="M133.953 57.578h35.434" fill="none" stroke-width="0.3985" stroke="rgb(0%,0%,0%)" stroke-miterlimit="10"/><use xlink:href="#bv" x="149.954" y="65.387" fill="rgb(0%,0%,0%)"/><use xlink:href="#by" x="156.471" y="66.881" fill="rgb(0%,0%,0%)"/><path d="M147.793 52.594h16.031" fill="none" stroke-width="0.59776" stroke="rgb(0%,0%,0%)" stroke-miterlimit="10"/><path d="M162.45 50.762c.113.687 1.374 1.718 1.718 1.832-.344.117-1.606 1.148-1.719 1.836" fill="none" stroke-width="0.4782" stroke-linecap="round" stroke-linejoin="round" stroke="rgb(0%,0%,0%)" stroke-miterlimit="10"/><use xlink:href="#bx" x="151.64" y="47.04" fill="rgb(0%,0%,0%)"/><use xlink:href="#t" x="156.088" y="48.534" fill="rgb(0%,0%,0%)"/><use xlink:href="#bz" x="3.321" y="96.033" fill="rgb(0%,0%,0%)"/><g fill="rgb(0%,0%,0%)"><use xlink:href="#bA" x="9.547" y="90.858"/><use xlink:href="#ac" x="12.66" y="90.858"/><use xlink:href="#bB" x="16.632" y="90.858"/></g><use xlink:href="#k" x="9.547" y="99.038" fill="rgb(0%,0%,0%)"/><g fill="rgb(0%,0%,0%)"><use xlink:href="#m" x="13.95" y="99.038"/><use xlink:href="#bw" x="16.316" y="99.038"/><use xlink:href="#k" x="20.637" y="99.038"/></g><use xlink:href="#br" x="25.04" y="99.038" fill="rgb(0%,0%,0%)"/><use xlink:href="#p" x="28.1" y="96.033" fill="rgb(0%,0%,0%)"/><use xlink:href="#bx" x="31.974" y="96.033" fill="rgb(0%,0%,0%)"/><use xlink:href="#r" x="36.422" y="97.527" fill="rgb(0%,0%,0%)"/><use xlink:href="#s" x="40.891" y="96.033" fill="rgb(0%,0%,0%)"/><use xlink:href="#q" x="45.322" y="96.033" fill="rgb(0%,0%,0%)"/><use xlink:href="#ac" x="50.332" y="97.527" fill="rgb(0%,0%,0%)"/><use xlink:href="#s" x="54.801" y="96.033" fill="rgb(0%,0%,0%)"/><use xlink:href="#bC" x="59.229" y="96.033" fill="rgb(0%,0%,0%)"/><use xlink:href="#q" x="66.977" y="96.033" fill="rgb(0%,0%,0%)"/><use xlink:href="#bt" x="71.99" y="97.527" fill="rgb(0%,0%,0%)"/><use xlink:href="#u" x="76.459" y="96.033" fill="rgb(0%,0%,0%)"/><path d="M45.055 87.625l18.03-30.047" fill="none" stroke-width="0.3985" stroke="rgb(50%,50%,50%)" stroke-miterlimit="10"/><path d="M68.402 57.578a5.315 5.315 0 1 0-10.63-.003 5.315 5.315 0 0 0 10.63.003zm0 0" fill="rgb(100%,100%,100%)" stroke-width="0.3985" stroke="rgb(0%,0%,0%)" stroke-miterlimit="10"/><g clip-path="url(#bD)"><g clip-path="url(#bE)"><path d="M53.8 65.34l3.087-3.086" fill="none" stroke-width="0.3985" stroke="rgb(0%,0%,0%)" stroke-miterlimit="10"/></g></g><g clip-path="url(#bF)"><g clip-path="url(#bG)"><path d="M56.79 65.34l3.085-3.086" fill="none" stroke-width="0.3985" stroke="rgb(0%,0%,0%)" stroke-miterlimit="10"/></g></g><g clip-path="url(#bH)"><g clip-path="url(#bI)"><path d="M59.777 65.34l3.086-3.086" fill="none" stroke-width="0.3985" stroke="rgb(0%,0%,0%)" stroke-miterlimit="10"/></g></g><g clip-path="url(#bJ)"><g clip-path="url(#bK)"><path d="M62.766 65.34l3.09-3.086" fill="none" stroke-width="0.3985" stroke="rgb(0%,0%,0%)" stroke-miterlimit="10"/></g></g><g clip-path="url(#bL)"><g clip-path="url(#bM)"><path d="M65.754 65.34l3.09-3.086" fill="none" stroke-width="0.3985" stroke="rgb(0%,0%,0%)" stroke-miterlimit="10"/></g></g><g clip-path="url(#bN)"><g clip-path="url(#bO)"><path d="M68.742 65.34l3.09-3.086" fill="none" stroke-width="0.3985" stroke="rgb(0%,0%,0%)" stroke-miterlimit="10"/></g></g><g clip-path="url(#bP)"><g clip-path="url(#bQ)"><path d="M53.8 62.352l3.087-3.09" fill="none" stroke-width="0.3985" stroke="rgb(0%,0%,0%)" stroke-miterlimit="10"/></g></g><g clip-path="url(#bR)"><g clip-path="url(#bS)"><path d="M56.79 62.352l3.085-3.09" fill="none" stroke-width="0.3985" stroke="rgb(0%,0%,0%)" stroke-miterlimit="10"/></g></g><g clip-path="url(#bT)"><g clip-path="url(#bU)"><path d="M59.777 62.352l3.086-3.09" fill="none" stroke-width="0.3985" stroke="rgb(0%,0%,0%)" stroke-miterlimit="10"/></g></g><g clip-path="url(#bV)"><g clip-path="url(#bW)"><path d="M62.766 62.352l3.09-3.09" fill="none" stroke-width="0.3985" stroke="rgb(0%,0%,0%)" stroke-miterlimit="10"/></g></g><g clip-path="url(#bX)"><g clip-path="url(#bY)"><path d="M65.754 62.352l3.09-3.09" fill="none" stroke-width="0.3985" stroke="rgb(0%,0%,0%)" stroke-miterlimit="10"/></g></g><g clip-path="url(#bZ)"><g clip-path="url(#ca)"><path d="M68.742 62.352l3.09-3.09" fill="none" stroke-width="0.3985" stroke="rgb(0%,0%,0%)" stroke-miterlimit="10"/></g></g><g clip-path="url(#cb)"><g clip-path="url(#cc)"><path d="M53.8 59.363l3.087-3.09" fill="none" stroke-width="0.3985" stroke="rgb(0%,0%,0%)" stroke-miterlimit="10"/></g></g><g clip-path="url(#cd)"><g clip-path="url(#ce)"><path d="M56.79 59.363l3.085-3.09" fill="none" stroke-width="0.3985" stroke="rgb(0%,0%,0%)" stroke-miterlimit="10"/></g></g><g clip-path="url(#cf)"><g clip-path="url(#cg)"><path d="M59.777 59.363l3.086-3.09" fill="none" stroke-width="0.3985" stroke="rgb(0%,0%,0%)" stroke-miterlimit="10"/></g></g><g clip-path="url(#ch)"><g clip-path="url(#ci)"><path d="M62.766 59.363l3.09-3.09" fill="none" stroke-width="0.3985" stroke="rgb(0%,0%,0%)" stroke-miterlimit="10"/></g></g><g clip-path="url(#cj)"><g clip-path="url(#ck)"><path d="M65.754 59.363l3.09-3.09" fill="none" stroke-width="0.3985" stroke="rgb(0%,0%,0%)" stroke-miterlimit="10"/></g></g><g clip-path="url(#cl)"><g clip-path="url(#cm)"><path d="M68.742 59.363l3.09-3.09" fill="none" stroke-width="0.3985" stroke="rgb(0%,0%,0%)" stroke-miterlimit="10"/></g></g><g clip-path="url(#cn)"><g clip-path="url(#co)"><path d="M53.8 56.375l3.087-3.09" fill="none" stroke-width="0.3985" stroke="rgb(0%,0%,0%)" stroke-miterlimit="10"/></g></g><g clip-path="url(#cp)"><g clip-path="url(#cq)"><path d="M56.79 56.375l3.085-3.09" fill="none" stroke-width="0.3985" stroke="rgb(0%,0%,0%)" stroke-miterlimit="10"/></g></g><g clip-path="url(#cr)"><g clip-path="url(#cs)"><path d="M59.777 56.375l3.086-3.09" fill="none" stroke-width="0.3985" stroke="rgb(0%,0%,0%)" stroke-miterlimit="10"/></g></g><g clip-path="url(#ct)"><g clip-path="url(#cu)"><path d="M62.766 56.375l3.09-3.09" fill="none" stroke-width="0.3985" stroke="rgb(0%,0%,0%)" stroke-miterlimit="10"/></g></g><g clip-path="url(#cv)"><g clip-path="url(#cw)"><path d="M65.754 56.375l3.09-3.09" fill="none" stroke-width="0.3985" stroke="rgb(0%,0%,0%)" stroke-miterlimit="10"/></g></g><g clip-path="url(#cx)"><g clip-path="url(#cy)"><path d="M68.742 56.375l3.09-3.09" fill="none" stroke-width="0.3985" stroke="rgb(0%,0%,0%)" stroke-miterlimit="10"/></g></g><g clip-path="url(#cz)"><g clip-path="url(#cA)"><path d="M53.8 53.387l3.087-3.09" fill="none" stroke-width="0.3985" stroke="rgb(0%,0%,0%)" stroke-miterlimit="10"/></g></g><g clip-path="url(#cB)"><g clip-path="url(#cC)"><path d="M56.79 53.387l3.085-3.09" fill="none" stroke-width="0.3985" stroke="rgb(0%,0%,0%)" stroke-miterlimit="10"/></g></g><g clip-path="url(#cD)"><g clip-path="url(#cE)"><path d="M59.777 53.387l3.086-3.09" fill="none" stroke-width="0.3985" stroke="rgb(0%,0%,0%)" stroke-miterlimit="10"/></g></g><g clip-path="url(#cF)"><g clip-path="url(#cG)"><path d="M62.766 53.387l3.09-3.09" fill="none" stroke-width="0.3985" stroke="rgb(0%,0%,0%)" stroke-miterlimit="10"/></g></g><g clip-path="url(#cH)"><g clip-path="url(#cI)"><path d="M65.754 53.387l3.09-3.09" fill="none" stroke-width="0.3985" stroke="rgb(0%,0%,0%)" stroke-miterlimit="10"/></g></g><g clip-path="url(#cJ)"><g clip-path="url(#cK)"><path d="M68.742 53.387l3.09-3.09" fill="none" stroke-width="0.3985" stroke="rgb(0%,0%,0%)" stroke-miterlimit="10"/></g></g><use xlink:href="#bz" x="124.899" y="96.033" fill="rgb(0%,0%,0%)"/><g fill="rgb(0%,0%,0%)"><use xlink:href="#bA" x="131.125" y="90.858"/><use xlink:href="#ac" x="134.238" y="90.858"/><use xlink:href="#bB" x="138.21" y="90.858"/></g><use xlink:href="#k" x="131.125" y="99.038" fill="rgb(0%,0%,0%)"/><g fill="rgb(0%,0%,0%)"><use xlink:href="#m" x="135.528" y="99.038"/><use xlink:href="#by" x="137.894" y="99.038"/><use xlink:href="#bs" x="141.397" y="99.038"/><use xlink:href="#aJ" x="148.467" y="99.038"/></g><use xlink:href="#p" x="153.891" y="96.033" fill="rgb(0%,0%,0%)"/><use xlink:href="#bC" x="157.766" y="96.033" fill="rgb(0%,0%,0%)"/><use xlink:href="#bx" x="165.514" y="96.033" fill="rgb(0%,0%,0%)"/><use xlink:href="#t" x="169.962" y="97.527" fill="rgb(0%,0%,0%)"/><use xlink:href="#s" x="174.431" y="96.033" fill="rgb(0%,0%,0%)"/><use xlink:href="#q" x="178.862" y="96.033" fill="rgb(0%,0%,0%)"/><use xlink:href="#bu" x="183.871" y="97.527" fill="rgb(0%,0%,0%)"/><use xlink:href="#s" x="188.341" y="96.033" fill="rgb(0%,0%,0%)"/><use xlink:href="#bC" x="192.769" y="96.033" fill="rgb(0%,0%,0%)"/><use xlink:href="#q" x="200.517" y="96.033" fill="rgb(0%,0%,0%)"/><use xlink:href="#aK" x="205.53" y="97.527" fill="rgb(0%,0%,0%)"/><use xlink:href="#u" x="209.999" y="96.033" fill="rgb(0%,0%,0%)"/><path d="M154.102 87.441l-20.149-29.863" fill="none" stroke-width="0.3985" stroke="rgb(50%,50%,50%)" stroke-miterlimit="10"/><path d="M139.27 57.578a5.315 5.315 0 1 0-10.63-.003 5.315 5.315 0 0 0 10.63.003zm0 0" fill="rgb(100%,100%,100%)" stroke-width="0.3985" stroke="rgb(0%,0%,0%)" stroke-miterlimit="10"/><g clip-path="url(#cL)"><g clip-path="url(#cM)"><path d="M125.531 65.34l3.09-3.086" fill="none" stroke-width="0.3985" stroke="rgb(0%,0%,0%)" stroke-miterlimit="10"/></g></g><g clip-path="url(#cN)"><g clip-path="url(#cO)"><path d="M128.52 65.34l3.09-3.086" fill="none" stroke-width="0.3985" stroke="rgb(0%,0%,0%)" stroke-miterlimit="10"/></g></g><g clip-path="url(#cP)"><g clip-path="url(#cQ)"><path d="M131.508 65.34l3.09-3.086" fill="none" stroke-width="0.3985" stroke="rgb(0%,0%,0%)" stroke-miterlimit="10"/></g></g><g clip-path="url(#cR)"><g clip-path="url(#cS)"><path d="M134.496 65.34l3.09-3.086" fill="none" stroke-width="0.3985" stroke="rgb(0%,0%,0%)" stroke-miterlimit="10"/></g></g><g clip-path="url(#cT)"><g clip-path="url(#cU)"><path d="M137.484 65.34l3.09-3.086" fill="none" stroke-width="0.3985" stroke="rgb(0%,0%,0%)" stroke-miterlimit="10"/></g></g><g clip-path="url(#cV)"><g clip-path="url(#cW)"><path d="M125.531 62.352l3.09-3.09" fill="none" stroke-width="0.3985" stroke="rgb(0%,0%,0%)" stroke-miterlimit="10"/></g></g><g clip-path="url(#cX)"><g clip-path="url(#cY)"><path d="M128.52 62.352l3.09-3.09" fill="none" stroke-width="0.3985" stroke="rgb(0%,0%,0%)" stroke-miterlimit="10"/></g></g><g clip-path="url(#cZ)"><g clip-path="url(#da)"><path d="M131.508 62.352l3.09-3.09" fill="none" stroke-width="0.3985" stroke="rgb(0%,0%,0%)" stroke-miterlimit="10"/></g></g><g clip-path="url(#db)"><g clip-path="url(#dc)"><path d="M134.496 62.352l3.09-3.09" fill="none" stroke-width="0.3985" stroke="rgb(0%,0%,0%)" stroke-miterlimit="10"/></g></g><g clip-path="url(#dd)"><g clip-path="url(#de)"><path d="M137.484 62.352l3.09-3.09" fill="none" stroke-width="0.3985" stroke="rgb(0%,0%,0%)" stroke-miterlimit="10"/></g></g><g clip-path="url(#df)"><g clip-path="url(#dg)"><path d="M125.531 59.363l3.09-3.09" fill="none" stroke-width="0.3985" stroke="rgb(0%,0%,0%)" stroke-miterlimit="10"/></g></g><g clip-path="url(#dh)"><g clip-path="url(#di)"><path d="M128.52 59.363l3.09-3.09" fill="none" stroke-width="0.3985" stroke="rgb(0%,0%,0%)" stroke-miterlimit="10"/></g></g><g clip-path="url(#dj)"><g clip-path="url(#dk)"><path d="M131.508 59.363l3.09-3.09" fill="none" stroke-width="0.3985" stroke="rgb(0%,0%,0%)" stroke-miterlimit="10"/></g></g><g clip-path="url(#dl)"><g clip-path="url(#dm)"><path d="M134.496 59.363l3.09-3.09" fill="none" stroke-width="0.3985" stroke="rgb(0%,0%,0%)" stroke-miterlimit="10"/></g></g><g clip-path="url(#dn)"><g clip-path="url(#do)"><path d="M137.484 59.363l3.09-3.09" fill="none" stroke-width="0.3985" stroke="rgb(0%,0%,0%)" stroke-miterlimit="10"/></g></g><g clip-path="url(#dp)"><g clip-path="url(#dq)"><path d="M125.531 56.375l3.09-3.09" fill="none" stroke-width="0.3985" stroke="rgb(0%,0%,0%)" stroke-miterlimit="10"/></g></g><g clip-path="url(#dr)"><g clip-path="url(#ds)"><path d="M128.52 56.375l3.09-3.09" fill="none" stroke-width="0.3985" stroke="rgb(0%,0%,0%)" stroke-miterlimit="10"/></g></g><g clip-path="url(#dt)"><g clip-path="url(#du)"><path d="M131.508 56.375l3.09-3.09" fill="none" stroke-width="0.3985" stroke="rgb(0%,0%,0%)" stroke-miterlimit="10"/></g></g><g clip-path="url(#dv)"><g clip-path="url(#dw)"><path d="M134.496 56.375l3.09-3.09" fill="none" stroke-width="0.3985" stroke="rgb(0%,0%,0%)" stroke-miterlimit="10"/></g></g><g clip-path="url(#dx)"><g clip-path="url(#dy)"><path d="M137.484 56.375l3.09-3.09" fill="none" stroke-width="0.3985" stroke="rgb(0%,0%,0%)" stroke-miterlimit="10"/></g></g><g clip-path="url(#dz)"><g clip-path="url(#dA)"><path d="M125.531 53.387l3.09-3.09" fill="none" stroke-width="0.3985" stroke="rgb(0%,0%,0%)" stroke-miterlimit="10"/></g></g><g clip-path="url(#dB)"><g clip-path="url(#dC)"><path d="M128.52 53.387l3.09-3.09" fill="none" stroke-width="0.3985" stroke="rgb(0%,0%,0%)" stroke-miterlimit="10"/></g></g><g clip-path="url(#dD)"><g clip-path="url(#dE)"><path d="M131.508 53.387l3.09-3.09" fill="none" stroke-width="0.3985" stroke="rgb(0%,0%,0%)" stroke-miterlimit="10"/></g></g><g clip-path="url(#dF)"><g clip-path="url(#dG)"><path d="M134.496 53.387l3.09-3.09" fill="none" stroke-width="0.3985" stroke="rgb(0%,0%,0%)" stroke-miterlimit="10"/></g></g><g clip-path="url(#dH)"><g clip-path="url(#dI)"><path d="M137.484 53.387l3.09-3.09" fill="none" stroke-width="0.3985" stroke="rgb(0%,0%,0%)" stroke-miterlimit="10"/></g></g></svg>