<svg height="282.787" viewBox="0 0 334.686 212.09" width="446.248" xmlns="http://www.w3.org/2000/svg" xmlns:xlink="http://www.w3.org/1999/xlink"><symbol id="a" overflow="visible"><path d="m4.5-4.297c0-.047-.031-.094-.094-.094-.11 0-.515.391-.672.688-.218-.547-.609-.703-.937-.703-1.172 0-2.39 1.468-2.39 2.922-.001.968.576 1.593 1.311 1.593.422 0 .812-.234 1.172-.593-.094.343-.422 1.687-.454 1.78-.078.282-.156.313-.718.329-.125 0-.219 0-.219.203 0 0 0 .11.125.11.313 0 .672-.032 1-.032s.688.032 1.031.032c.047 0 .172 0 .172-.204 0-.109-.094-.109-.265-.109-.47 0-.47-.063-.47-.156 0-.078.016-.14.032-.219zm-2.75 4.188c-.61 0-.64-.766-.64-.938 0-.484.28-1.562.452-1.984.313-.735.829-1.156 1.235-1.156.656 0 .797.812.797.875 0 .062-.547 2.25-.578 2.28-.157.282-.72.923-1.266.923zm0 0"/></symbol><symbol id="b" overflow="visible"><path d="m3.016-3.156h1.703c1.406 0 2.797-1.031 2.797-2.14 0-.782-.657-1.516-1.97-1.516h-3.217c-.187 0-.297 0-.297.187 0 .125.078.125.281.125.126 0 .313.016.422.016.172.03.22.046.22.171 0 .032 0 .063-.032.188l-1.345 5.344c-.094.39-.11.469-.906.469-.156 0-.266 0-.266.187 0 .125.11.125.14.125.282 0 .985-.031 1.266-.031.22 0 .438.015.641.015.219 0 .438.016.64.016.079 0 .204 0 .204-.203 0-.11-.094-.11-.281-.11-.36 0-.641 0-.641-.171 0-.063.016-.11.031-.172zm.718-2.969c.094-.344.11-.375.547-.375h.953c.829 0 1.36.266 1.36.953 0 .39-.203 1.25-.594 1.61-.5.453-1.094.53-1.531.53h-1.407zm0 0"/></symbol><symbol id="c" overflow="visible"><path d="m2.328-4.438c0-.187 0-.187-.203-.187-.453.438-1.078.438-1.36.438v.25c.157 0 .626 0 1-.188v3.547c0 .234 0 .328-.687.328h-.266v.25c.125 0 .985-.031 1.235-.031.219 0 1.094.031 1.25.031v-.25h-.267c-.703 0-.703-.094-.703-.328zm0 0"/></symbol><symbol id="d" overflow="visible"><path d="m3.516-1.266h-.236c-.015.157-.094.563-.187.625-.047.047-.578.047-.688.047h-1.28c.734-.64.984-.844 1.39-1.172.516-.406 1-.843 1-1.5 0-.843-.734-1.359-1.624-1.359-.86 0-1.454.61-1.454 1.25 0 .344.297.39.376.39a.365.365 0 0 0 .359-.374c0-.125-.047-.375-.406-.375.218-.485.687-.641 1.015-.641.703 0 1.063.547 1.063 1.11 0 .609-.438 1.078-.656 1.328l-1.672 1.671c-.079.063-.079.079-.079.266h2.876zm0 0"/></symbol><symbol id="e" overflow="visible"><path d="m3.375 9.25c.25 0 .266-.016.344-.172l4.36-9.094c.046-.109.046-.125.046-.14 0-.094-.063-.157-.156-.157-.11 0-.14.063-.172.157l-4.11 8.578-1.703-3.953-1.109.843.125.125.563-.421zm0 0"/></symbol><symbol id="f" overflow="visible"><path d="m1.016-.61.843-.828c1.235-1.093 1.72-1.53 1.72-2.328 0-.906-.72-1.546-1.688-1.546-.907 0-1.5.734-1.5 1.453 0 .437.406.437.437.437a.41.41 0 0 0 .406-.422.398.398 0 0 0 -.421-.406h-.11c.188-.516.625-.813 1.078-.813.735 0 1.078.641 1.078 1.297 0 .641-.406 1.266-.843 1.766l-1.532 1.703c-.093.094-.093.11-.093.297h2.968l.22-1.39h-.204c-.031.25-.094.593-.172.718-.062.063-.578.063-.75.063zm0 0"/></symbol><symbol id="g" overflow="visible"><path d="m5.64-1.86a.52.52 0 0 0 .048-.109s0-.093-.094-.093c-.078 0-.094.046-.11.109-.514 1.172-.812 1.703-2.171 1.703h-1.344c-.078-.016-.11-.016-.11-.078 0-.031 0-.047.047-.188l.547-2.171h.781c.672 0 .672.156.672.359 0 .062 0 .156-.047.39-.015.047-.03.063-.03.094 0 .032.03.078.108.078.063 0 .094-.03.126-.156l.453-1.86a.1.1 0 0 0 -.094-.093c-.078 0-.094.047-.125.14-.156.61-.297.797-1.031.797h-.75l.468-1.921c.079-.282.079-.313.438-.313h1.125c.969 0 1.203.234 1.203.89 0 .188 0 .204-.031.423v.14c0 .031.015.094.093.094.079 0 .094-.047.11-.203l.156-1.375c.031-.219-.016-.219-.219-.219h-4.015c-.157 0-.235 0-.235.156 0 .094.063.094.22.094.296 0 .515 0 .515.14 0 .032 0 .048-.047.188l-1.047 4.219c-.078.313-.094.375-.719.375-.14 0-.234 0-.234.156 0 .094.078.094.233.094h4.125c.188 0 .203-.016.25-.14zm0 0"/></symbol><symbol id="h" overflow="visible"><path d="m3.5-5.672c.031-.11.031-.14.031-.14 0-.094-.062-.157-.156-.157-.047 0-.11.016-.125.063l-2.766 7.593c-.046.11-.046.141-.046.141 0 .094.078.156.156.156.11 0 .125-.046.172-.187zm0 0"/></symbol><symbol id="i" overflow="visible"><path d="m.703-.469c-.031.125-.078.297-.078.344 0 .14.11.219.234.219.094 0 .235-.063.297-.235 0-.015.11-.39.157-.578l.171-.719c.047-.187.094-.359.141-.53.031-.141.094-.376.094-.407.125-.25.547-.969 1.297-.969.359 0 .437.297.437.563 0 .187-.062.422-.125.656l-.219.922-.156.61c-.031.155-.11.421-.11.468 0 .14.11.219.235.219.25 0 .297-.203.36-.453.109-.454.406-1.61.468-1.922.031-.11.453-1.063 1.328-1.063.329 0 .422.266.422.563 0 .453-.328 1.36-.5 1.781-.062.188-.093.281-.093.438a.64.64 0 0 0 .656.656c.75 0 1.031-1.172 1.031-1.235 0-.078-.063-.078-.094-.078-.078 0-.078.032-.11.14-.124.423-.374.985-.812.985-.14 0-.203-.078-.203-.25 0-.203.078-.39.157-.578.14-.406.484-1.297.484-1.75 0-.515-.328-.844-.922-.844s-1 .344-1.297.766c-.015-.11-.031-.375-.25-.563-.203-.171-.453-.203-.656-.203-.719 0-1.11.5-1.25.688-.031-.453-.375-.688-.734-.688-.36 0-.516.297-.579.454-.156.28-.25.75-.25.765 0 .078.078.078.094.078.078 0 .094 0 .14-.187.126-.563.282-.938.579-.938.125 0 .25.063.25.36 0 .171-.031.265-.14.671zm0 0"/></symbol><symbol id="j" overflow="visible"><path d="m2.281-5.438c0-.015 0-.093-.094-.093-.187 0-.765.062-.968.078-.078.016-.157.016-.157.156 0 .094.063.094.188.094.39 0 .406.062.406.14l-.031.157-1.156 4.593c-.031.11-.031.126-.031.172 0 .188.156.235.234.235a.34.34 0 0 0 .265-.172c.047-.078.407-1.547.454-1.75.265.031.921.156.921.687 0 .047 0 .079-.03.157a1.932 1.932 0 0 0 -.032.28c0 .47.328.798.734.798.25 0 .454-.14.641-.422a3.39 3.39 0 0 0 .281-.813c0-.078-.078-.078-.094-.078-.078 0-.093.032-.109.14-.172.579-.343.986-.703.986-.14 0-.25-.078-.25-.375 0-.125.031-.312.063-.437.03-.14.03-.172.03-.25 0-.516-.5-.75-1.171-.828.234-.157.5-.407.672-.594.39-.422.75-.766 1.14-.766h.079c.093.016.109.016.171.063l.032.031a.453.453 0 0 0 -.454.438c0 .124.079.28.297.28.204 0 .438-.171.438-.484 0-.25-.188-.5-.547-.5-.219 0-.578.063-1.156.688-.266.312-.578.625-.89.75zm0 0"/></symbol><clipPath id="k"><path d="m155 13h2v199.09h-2zm0 0"/></clipPath><path d="m-155.906-.001h311.106" fill="none" stroke="#000" stroke-miterlimit="10" stroke-width=".79701" transform="matrix(1 0 0 -1 156.304 112.479)"/><path d="m-1.555 2.073c.13-.778 1.555-1.943 1.942-2.074-.387-.13-1.813-1.293-1.942-2.07" style="fill:none;stroke-width:.6376;stroke-linecap:round;stroke-linejoin:round;stroke:#000;stroke-miterlimit:10" transform="matrix(1 0 0 -1 311.504 112.479)"/><use x="315.928" xlink:href="#a" y="113.655"/><use x="320.376" xlink:href="#c" y="115.149"/><g clip-path="url(#k)"><path d="m0-99.212v197.718" fill="none" stroke="#000" stroke-miterlimit="10" stroke-width=".79701" transform="matrix(1 0 0 -1 156.304 112.479)"/></g><path d="m-1.555 2.074c.13-.778 1.555-1.946 1.942-2.075-.387-.129-1.813-1.293-1.942-2.069" style="fill:none;stroke-width:.6376;stroke-linecap:round;stroke-linejoin:round;stroke:#000;stroke-miterlimit:10" transform="matrix(0 -1 -1 0 156.304 13.973)"/><use x="151.846" xlink:href="#a" y="7.61"/><use x="156.293" xlink:href="#d" y="9.105"/><path d="m141.735-.001c0 46.968-63.457 85.043-141.734 85.043-78.278 0-141.735-38.075-141.735-85.043 0-46.965 63.457-85.04 141.735-85.04 78.277 0 141.734 38.075 141.734 85.04zm0 0" fill="#00f" fill-opacity=".05" stroke="#00f" stroke-miterlimit="10" stroke-width=".79701" transform="matrix(1 0 0 -1 156.304 112.479)"/><use x="302.748" xlink:href="#e" y="80.409"/><path d="m0 0h26.641" fill="none" stroke="#000" stroke-miterlimit="10" stroke-width=".398" transform="matrix(.8 0 0 -.8 310.718 80.25)"/><use x="310.718" xlink:href="#f" y="87.223"/><use x="314.703" xlink:href="#g" y="87.223"/><g><use x="321.049" xlink:href="#h" y="87.223"/><use x="325.034" xlink:href="#i" y="87.223"/></g><path d="m141.735-.001 13.832 19.851" fill="none" stroke="#808080" stroke-miterlimit="10" stroke-width=".19925" transform="matrix(1 0 0 -1 156.304 112.479)"/><use x="176.535" xlink:href="#e" y="5.257"/><path d="m-.002-.001h23.394" fill="none" stroke="#000" stroke-miterlimit="10" stroke-width=".398" transform="matrix(.8 0 0 -.8 184.505 5.097)"/><use x="184.505" xlink:href="#f" y="12.071"/><use x="188.49" xlink:href="#g" y="12.071"/><g><use x="194.836" xlink:href="#h" y="12.071"/><use x="198.821" xlink:href="#j" y="12.071"/></g><path d="m0 85.041 18.708 9.961" fill="none" stroke="#808080" stroke-miterlimit="10" stroke-width=".19925" transform="matrix(1 0 0 -1 156.304 112.479)"/><use fill="#00f" x="264.078" xlink:href="#b" y="96.194"/></svg>