<svg height="73.764" viewBox="0 0 98.265 55.323" width="131.02" xmlns="http://www.w3.org/2000/svg" xmlns:xlink="http://www.w3.org/1999/xlink"><symbol id="a" overflow="visible"><path d="m4.61-3.375c-.095-.625-.5-1.188-1.283-1.188-.61 0-1.25.172-2.031.938a2.953 2.953 0 0 0 -.89 2.063c0 .625.437 1.78 1.827 1.78 2.375 0 3.407-3.343 3.407-4.78 0-1.579-.922-2.579-2.157-2.579-1.437 0-1.906 1.297-1.906 1.579 0 .14.094.343.39.343a.544.544 0 0 0 .532-.515c0-.36-.313-.36-.469-.36.438-.734 1.156-.797 1.438-.797.734 0 1.422.516 1.422 1.813 0 .39-.063.89-.266 1.703zm-2.345 3.313c-1.094 0-1.094-1.032-1.094-1.125 0-.266.25-1.657.656-2.266.39-.563.89-.89 1.5-.89 1.094 0 1.11 1.124 1.11 1.327 0 .72-.641 2.954-2.172 2.954zm0 0"/></symbol><symbol id="b" overflow="visible"><path d="m6.266-5.672c.484-.781.906-.812 1.265-.828.125-.016.14-.172.14-.188 0-.078-.062-.125-.14-.125-.25 0-.547.032-.812.032-.328 0-.672-.032-.985-.032-.062 0-.187 0-.187.188 0 .11.078.125.156.125.266.016.453.125.453.328 0 .156-.14.375-.14.375l-3.063 4.875-.687-5.281c0-.172.234-.297.687-.297.14 0 .25 0 .25-.203 0-.078-.078-.11-.125-.11-.406 0-.828.032-1.25.032h-.547c-.172 0-.36-.032-.531-.032-.078 0-.188 0-.188.188 0 .125.079.125.25.125.547 0 .563.094.594.344l.782 6.14c.03.204.078.235.203.235.156 0 .203-.047.28-.172zm0 0"/></symbol><symbol id="c" overflow="visible"><path d="m5.813-4.016c.109-.109.109-.125.109-.156a.123.123 0 0 0 -.125-.125c-.063 0-.094.047-.156.125l-2.282 2.532c-.406-1.265-.484-1.515-.703-2.03-.11-.235-.328-.735-1.203-.735-.578 0-.844.515-.844.656 0 .016 0 .094.125.094.079 0 .11-.047.125-.11a.616.616 0 0 1 .532-.421c.296 0 .593.765.765 1.203.313.78.64 1.937.64 1.968 0 .016 0 .032-.077.11l-2.297 2.561c-.11.11-.11.125-.11.157 0 .062.063.125.11.125.078 0 .125-.079.172-.11l2.281-2.562c.313 1.03.438 1.421.672 1.984.125.297.344.797 1.234.797.578 0 .844-.516.844-.656 0-.047-.016-.11-.11-.11-.109 0-.109.047-.14.14-.094.25-.344.407-.531.407-.5 0-1.188-2.422-1.407-3.187zm0 0"/></symbol><symbol id="d" overflow="visible"><path d="m4.5-4.297c0-.047-.031-.094-.094-.094-.11 0-.515.391-.672.688-.218-.547-.609-.703-.937-.703-1.172 0-2.39 1.468-2.39 2.922-.001.968.576 1.593 1.311 1.593.422 0 .812-.234 1.172-.593-.094.343-.422 1.687-.454 1.78-.078.282-.156.313-.718.329-.125 0-.219 0-.219.203 0 0 0 .11.125.11.313 0 .672-.032 1-.032s.688.032 1.031.032c.047 0 .172 0 .172-.204 0-.109-.094-.109-.265-.109-.47 0-.47-.063-.47-.156 0-.078.016-.14.032-.219zm-2.75 4.188c-.61 0-.64-.766-.64-.938 0-.484.28-1.562.452-1.984.313-.735.829-1.156 1.235-1.156.656 0 .797.812.797.875 0 .062-.547 2.25-.578 2.28-.157.282-.72.923-1.266.923zm0 0"/></symbol><symbol id="e" overflow="visible"><path d="m1.719-2.75h.703c.14 0 .219 0 .219-.156-.001-.094-.079-.094-.204-.094h-.656l.25-1.031a.324.324 0 0 0 .031-.094c0-.14-.109-.234-.25-.234-.171 0-.265.125-.328.296-.046.188.047-.156-.265 1.063h-.703c-.125 0-.22 0-.22.156 0 .094.079.094.204.094h.656l-.406 1.64c-.047.173-.11.423-.11.516 0 .406.36.656.75.656.782 0 1.22-.968 1.22-1.062s-.094-.094-.11-.094c-.094 0-.094.016-.156.14-.188.438-.547.829-.922.829-.156 0-.25-.094-.25-.344 0-.062.031-.219.047-.281zm0 0"/></symbol><symbol id="f" overflow="visible"><path d="m6.844-3.266c.156 0 .343 0 .343-.187 0-.203-.187-.203-.328-.203h-5.968c-.141 0-.329 0-.329.203 0 .187.188.187.329.187zm.015 1.938c.141 0 .329 0 .329-.203 0-.188-.188-.188-.344-.188h-5.954c-.141 0-.329 0-.329.188 0 .203.188.203.329.203zm0 0"/></symbol><clipPath id="g"><path d="m86 19h12.266v18h-12.266zm0 0"/></clipPath><clipPath id="h"><path d="m87 20h11.266v16h-11.266zm0 0"/></clipPath><clipPath id="i"><path d="m60 6h38.266v26h-38.266zm0 0"/></clipPath><clipPath id="j"><path d="m60 23h38.266v27h-38.266zm0 0"/></clipPath><use xlink:href="#a" y="29.806"/><use x="5.289" xlink:href="#e" y="31.301"/><use x="9.992" xlink:href="#a" y="23.066"/><use x="15.839" xlink:href="#b" y="23.066"/><path d="m0 0h13.867" fill="none" stroke="#000" stroke-miterlimit="10" stroke-width=".398" transform="matrix(1 0 0 -1 9.992 27.316)"/><use x="10.888" xlink:href="#a" y="36.64"/><use x="16.735" xlink:href="#c" y="36.64"/><use x="27.823" xlink:href="#f" y="29.806"/><path d="m29.766.002c0 .781-.637 1.414-1.418 1.414a1.415 1.415 0 1 1 0-2.832c.781 0 1.418.633 1.418 1.418zm0 0" stroke="#000" stroke-miterlimit="10" stroke-width=".3985" transform="matrix(1 0 0 -1 38.539 27.662)"/><path d="m0 .002h26.93" fill="none" stroke="#000" stroke-miterlimit="10" stroke-width=".3985" transform="matrix(1 0 0 -1 38.539 27.662)"/><g clip-path="url(#g)"><path d="m59.527.002a2.834 2.834 0 1 1 -5.668-.004 2.834 2.834 0 0 1 5.668.004zm0 0" fill="none" stroke="#000" stroke-miterlimit="10" stroke-width=".3985" transform="matrix(1 0 0 -1 38.539 27.662)"/></g><g clip-path="url(#h)"><path d="m54.688-2.006 4.011 4.012m-4.011 0 4.011-4.012" fill="none" stroke="#000" stroke-miterlimit="10" stroke-width=".3985" transform="matrix(1 0 0 -1 38.539 27.662)"/></g><g clip-path="url(#i)"><path d="m28.348 1.416-.016.504-.621.52-.434.554-.125.559.23.53.54.458.71.383.724.324.57.316.305.375.015.48-.226.61-.332.719-.286.758-.093.703.18.55.472.344.695.122.809-.04.789-.09.652-.015.457.172.258.414.113.644.063.793.11.801.238.66.402.399.562.086.672-.2.707-.386.68-.41.598-.282.5-.027.41.285.36.555.359.71.394.704.453.527.512.23.55-.116.555-.422.536-.606.5-.617.472-.465.461-.187.485.129.523.402.574.555.606.53.605.345.563.046.48-.296.383-.586.297-.754.25-.754.27-.598.355-.344.488-.05.629.18.742.288.77.25.699.067.543-.195.32-.48.098-.704-.063-.805-.117-.785-.043-.648.145-.461.398-.27.637-.144.781-.11.793-.172.64-.3.368-.454.031-.578-.273-.652-.469-.66-.5-.613-.363-.547-.102-.477 1.324-.863" fill="none" stroke="#000" stroke-miterlimit="10" stroke-width=".3985" transform="matrix(1 0 0 -1 38.539 27.662)"/></g><path d="m83.102 12.934-5.38-1.918.216 4.363zm0 0"/><use x="78.033" xlink:href="#d" y="7.61"/><g clip-path="url(#j)"><path d="m56.695-2.834-.035-.504.567-.578.375-.594.066-.57-.281-.504-.582-.402-.746-.309-.754-.25-.598-.258-.34-.34-.062-.48.164-.63.258-.75.207-.78.027-.711-.238-.531-.5-.29-.707-.054-.801.12-.774.169-.648.082-.473-.125-.297-.387-.175-.633-.14-.78-.192-.786-.301-.633-.442-.355-.566-.032-.648.266-.668.453-.637.48-.566.34-.493.07-.433-.238-.414-.515-.43-.672-.46-.66-.509-.48-.531-.176-.535.171-.512.473-.473.652-.437.668-.422.508-.441.235-.492-.082-.563-.348-.625-.492-.656-.469-.637-.285-.566.012-.45.343-.32.621-.219.778-.172.777-.21.625-.32.371-.481.102-.645-.114-.765-.218-.79-.168h-.706l-.516.254-.274.507-.027.707.145.797.195.766.105.645-.097.472-.367.309-.622.207-.765.187-.774.25-.609.364-.316.484.027.578.336.621.531.61.559.562.418.508.148.465-1.23.992" fill="none" stroke="#000" stroke-miterlimit="10" stroke-width=".3985" transform="matrix(1 0 0 -1 38.539 27.662)"/></g><path d="m77.77 42.121 5.16 2.45.218-4.368zm0 0"/><use x="78.033" xlink:href="#d" y="50.065"/></svg>