<svg height="426.532" viewBox="0 0 323.465 319.899" width="431.287" xmlns="http://www.w3.org/2000/svg" xmlns:xlink="http://www.w3.org/1999/xlink"><symbol id="a" overflow="visible"><path d="m6.563-2.297c.171 0 .359 0 .359-.203 0-.188-.188-.188-.36-.188h-5.39c-.172 0-.344 0-.344.188 0 .203.172.203.344.203zm0 0"/></symbol><symbol id="b" overflow="visible"><path d="m8.313-2.297c-.547.422-.813.828-.891.969-.453.687-.531 1.312-.531 1.312 0 .125.125.125.203.125.156 0 .172-.015.218-.203.22-.969.813-1.812 1.938-2.265.125-.047.156-.063.156-.141 0-.063-.062-.094-.078-.11-.453-.156-1.656-.656-2.031-2.328-.031-.125-.047-.156-.203-.156-.078 0-.203 0-.203.125 0 .016.093.64.5 1.313.203.297.5.64.921.969h-7.405c-.172 0-.36 0-.36.187 0 .203.188.203.36.203zm0 0"/></symbol><symbol id="c" overflow="visible"><path d="m3.328-3.016c.063-.25.297-1.171.985-1.171.046 0 .296 0 .5.125a.578.578 0 0 0 -.47.546c0 .157.11.344.376.344a.546.546 0 0 0 .531-.578c0-.516-.578-.656-.922-.656-.578 0-.922.531-1.047.75-.25-.656-.781-.75-1.078-.75-1.031 0-1.61 1.281-1.61 1.531 0 .11.11.11.126.11.078 0 .11-.032.125-.11.344-1.063 1-1.313 1.344-1.313.187 0 .53.094.53.672 0 .313-.171.97-.53 2.375-.157.61-.516 1.032-.954 1.032-.062 0-.28 0-.5-.125.25-.063.47-.266.47-.547 0-.266-.22-.344-.36-.344-.313 0-.547.25-.547.578 0 .453.484.656.922.656.672 0 1.031-.703 1.047-.75.125.36.484.75 1.078.75 1.031 0 1.594-1.28 1.594-1.53 0-.11-.079-.11-.11-.11-.094 0-.11.047-.14.11-.329 1.077-1 1.312-1.313 1.312-.39 0-.547-.313-.547-.657 0-.218.047-.437.156-.875zm0 0"/></symbol><symbol id="d" overflow="visible"><path d="m4.844-3.797c.047-.14.047-.156.047-.234 0-.172-.141-.266-.297-.266a.455.455 0 0 0 -.344.203c-.016.063-.11.36-.14.547-.079.25-.141.531-.204.797l-.453 1.797c-.031.14-.469.844-1.125.844-.5 0-.61-.438-.61-.813 0-.453.173-1.078.5-1.953.157-.406.204-.516.204-.719 0-.437-.313-.812-.813-.812-.953 0-1.312 1.453-1.312 1.531 0 .11.094.11.11.11.109 0 .109-.032.156-.188.28-.938.671-1.235 1.015-1.235.078 0 .25 0 .25.313 0 .25-.11.516-.172.703-.406 1.063-.578 1.625-.578 2.094 0 .89.625 1.187 1.219 1.187.39 0 .719-.171 1-.453-.125.516-.25 1.016-.64 1.547-.266.328-.641.625-1.095.625-.14 0-.593-.031-.765-.422.156 0 .297 0 .422-.125a.493.493 0 0 0 .203-.406c0-.313-.266-.344-.36-.344-.233 0-.562.156-.562.64 0 .5.438.876 1.063.876 1.015 0 2.046-.906 2.328-2.031zm0 0"/></symbol><symbol id="e" overflow="visible"><path d="m1.328-.828c.531-.578.828-.828 1.188-1.14 0 0 .609-.532.968-.891.954-.922 1.172-1.407 1.172-1.454 0-.093-.093-.093-.11-.093-.077 0-.093.015-.155.11-.297.484-.5.64-.735.64-.25 0-.36-.156-.515-.328-.188-.22-.36-.422-.688-.422-.75 0-1.203.922-1.203 1.14 0 .047.031.11.11.11.093 0 .109-.047.14-.11.188-.468.766-.468.844-.468.203 0 .39.062.625.14.406.156.515.156.765.156-.359.422-1.187 1.141-1.375 1.297l-.906.844c-.672.672-1.031 1.234-1.031 1.313 0 .093.11.093.125.093.078.001.093-.015.156-.125.235-.359.531-.625.86-.625.218 0 .328.094.578.375.156.22.343.375.625.375 1 0 1.578-1.265 1.578-1.53 0-.048-.047-.11-.125-.11-.094 0-.11.062-.14.14-.235.641-.876.829-1.204.829-.188 0-.375-.063-.578-.125-.344-.125-.5-.172-.703-.172-.016 0-.172 0-.266.03zm0 0"/></symbol><symbol id="f" overflow="visible"><path d="m3.484-.563c.11.407.47.672.891.672.344 0 .578-.234.734-.546.172-.36.297-.97.297-.985 0-.11-.078-.11-.11-.11-.109 0-.109.048-.14.188-.14.563-.328 1.235-.75 1.235-.203 0-.312-.125-.312-.454 0-.218.125-.687.203-1.046l.281-1.079c.031-.14.125-.515.172-.671.047-.235.14-.61.14-.672 0-.172-.14-.266-.28-.266-.048 0-.313.016-.391.344a419.28 419.28 0 0 0 -.75 3c-.016.047-.406.844-1.14.844-.517 0-.61-.454-.61-.813 0-.562.281-1.344.531-2.031.125-.313.172-.453.172-.64 0-.438-.313-.813-.813-.813-.953 0-1.312 1.453-1.312 1.531 0 .11.094.11.11.11.109 0 .109-.032.156-.188.25-.86.64-1.235 1.015-1.235.094 0 .25.016.25.329 0 .234-.11.53-.172.671-.375 1-.578 1.61-.578 2.094 0 .954.688 1.204 1.219 1.204.656 0 1.015-.453 1.187-.671zm0 0"/></symbol><symbol id="g" overflow="visible"><path d="m4.672-3.703c0-.547-.266-.703-.438-.703-.25 0-.5.265-.5.484 0 .125.047.188.157.297.218.203.343.453.343.813 0 .421-.609 2.703-1.765 2.703-.516 0-.75-.344-.75-.875 0-.547.281-1.282.578-2.11.078-.172.125-.312.125-.5 0-.437-.313-.812-.813-.812-.937 0-1.312 1.453-1.312 1.531 0 .11.094.11.11.11.109 0 .109-.032.156-.188.296-1 .718-1.235 1.015-1.235.078 0 .25 0 .25.313 0 .25-.11.531-.172.703-.437 1.156-.562 1.61-.562 2.047 0 1.078.875 1.234 1.328 1.234 1.672 0 2.25-3.296 2.25-3.812zm0 0"/></symbol><symbol id="h" overflow="visible"><path d="m4.813-6.656c0-.047.015-.11.015-.157 0-.093-.062-.109-.11-.109-.109 0-.109.031-.155.203l-1.658 6.594c-.75-.094-1.125-.469-1.125-1.125 0-.203 0-.453.532-1.844.046-.125.109-.297.109-.5 0-.437-.313-.812-.813-.812-.953 0-1.312 1.453-1.312 1.531 0 .11.094.11.11.11.109 0 .109-.032.156-.188.28-.938.671-1.235 1.015-1.235.078 0 .25 0 .25.313 0 .266-.11.516-.234.86-.485 1.265-.485 1.515-.485 1.687 0 .953.782 1.36 1.735 1.422-.078.36-.078.375-.219.906-.016.11-.219.906-.219.938 0 .015 0 .109.11.109.03 0 .078 0 .093-.047.032-.016.094-.266.125-.406l.377-1.485c.375 0 1.25 0 2.188-1.062a3.86 3.86 0 0 0 .719-1.203c.093-.25.312-1.11.312-1.547 0-.563-.266-.703-.437-.703-.25 0-.5.265-.5.484 0 .125.062.188.156.266.11.11.36.36.36.844 0 .64-.516 1.453-.876 1.812-.875.89-1.515.89-1.875.89zm0 0"/></symbol><symbol id="i" overflow="visible"><path d="m4.61-3.375c.046-.219.14-.594.14-.656 0-.172-.14-.266-.281-.266a.414.414 0 0 0 -.375.281c-.032.063-.5 1.97-.563 2.235a2.336 2.336 0 0 0 -.094.656c0 .11 0 .125.016.172-.234.531-.531.844-.922.844-.797 0-.797-.735-.797-.907 0-.312.047-.703.516-1.937.11-.297.172-.438.172-.64a.797.797 0 0 0 -.813-.813c-.953 0-1.312 1.453-1.312 1.531 0 .11.094.11.11.11.109 0 .109-.032.156-.188.28-.922.656-1.235 1.015-1.235.094 0 .25.016.25.329 0 .25-.11.53-.187.703-.438 1.172-.547 1.625-.547 2.015 0 .907.656 1.251 1.406 1.251.172 0 .64 0 1.031-.703.266.64.953.703 1.25.703.75 0 1.188-.625 1.453-1.218.329-.782.657-2.125.657-2.594 0-.547-.266-.703-.438-.703-.25 0-.5.265-.5.484 0 .125.063.188.14.266.11.11.36.36.36.844 0 .343-.281 1.312-.547 1.828-.25.53-.61.875-1.093.875-.47 0-.735-.297-.735-.875 0-.266.063-.579.11-.72zm0 0"/></symbol><symbol id="j" overflow="visible"><path d="m4.531-4.984c0-.657-.172-2.047-1.187-2.047-1.39 0-2.922 2.812-2.922 5.093 0 .938.281 2.048 1.187 2.048 1.407 0 2.922-2.859 2.922-5.093zm-3.061 1.359c.172-.625.375-1.422.781-2.14.266-.485.625-1.048 1.078-1.048.485 0 .547.641.547 1.204 0 .5-.078 1-.313 1.984zm2 .328c-.11.453-.313 1.297-.703 2.016-.344.687-.72 1.172-1.157 1.172-.328 0-.53-.297-.53-1.22 0-.421.062-1 .312-1.968zm0 0"/></symbol><symbol id="k" overflow="visible"><path d="m1.688 1.688c-.032.14-.047.156-.047.203 0 .218.187.28.296.28a.413.413 0 0 0 .36-.265c.031-.078.078-.406.36-1.812.077 0 .155.015.327.015 1.657 0 3.188-1.562 3.188-3.14 0-.781-.39-1.375-1.14-1.375-1.438 0-2.048 1.937-2.641 3.875-1.079-.203-1.641-.75-1.641-1.469 0-.281.234-1.375.828-2.063.094-.093.094-.109.094-.14s-.031-.094-.125-.094c-.281 0-1.047 1.453-1.047 2.407 0 .938.656 1.657 1.719 1.907zm1.389-2.158c-.094 0-.11 0-.187-.015-.125 0-.125 0-.125-.032 0-.015.171-.937.187-1.078.313-1.281 1.094-2.234 1.985-2.234.687 0 .953.531.953 1.015 0 1.126-1.282 2.344-2.813 2.344zm0 0"/></symbol><symbol id="l" overflow="visible"><path d="m2.328-4.438c0-.187 0-.187-.203-.187-.453.438-1.078.438-1.36.438v.25c.157 0 .626 0 1-.188v3.547c0 .234 0 .328-.687.328h-.266v.25c.125 0 .985-.031 1.235-.031.219 0 1.094.031 1.25.031v-.25h-.267c-.703 0-.703-.094-.703-.328zm0 0"/></symbol><path d="m-.002 0-88.707-36.156" fill="none" stroke="#000" stroke-miterlimit="10" stroke-width=".79701" transform="matrix(1 0 0 -1 161.732 159.949)"/><path d="m70.625 197.082 4.621.356-2.223-1.333.66-2.507"/><use x="56.946" xlink:href="#a" y="204.456"/><use x="56.944" xlink:href="#b" y="204.456"/><use x="59.081" xlink:href="#c" y="207.749"/><path d="m-.002 0 106.086-30.446" fill="none" stroke="#000" stroke-miterlimit="10" stroke-width=".79701" transform="matrix(1 0 0 -1 161.732 159.949)"/><path d="m270.305 191.11-3.41-3.137.921 2.422-2.066 1.562"/><use x="274.024" xlink:href="#a" y="198.483"/><use x="274.022" xlink:href="#b" y="198.483"/><use x="276.384" xlink:href="#d" y="201.776"/><path d="m-.002 0v130.597" fill="none" stroke="#000" stroke-miterlimit="10" stroke-width=".79701" transform="matrix(1 0 0 -1 161.732 159.949)"/><path d="m161.73 26.762-2.07 4.144 2.07-1.554 2.075 1.554"/><use x="156.751" xlink:href="#a" y="19.752"/><use x="156.749" xlink:href="#b" y="19.752"/><use x="159.197" xlink:href="#e" y="23.045"/><path d="m-.002 0-56.14-41.172" fill="none" stroke="#00f" stroke-miterlimit="10" stroke-width=".79701" transform="matrix(1 0 0 -1 161.732 159.949)"/><path d="m101.832 203.879c1.266-.606 3.535-1.309 5.324-1.496l-2.297-3.133c-.714 1.648-2.066 3.605-3.027 4.629" fill="#00f"/><use fill="#00f" x="88.151" xlink:href="#a" y="211.253"/><use fill="#00f" x="88.149" xlink:href="#b" y="211.253"/><use fill="#00f" x="90.281" xlink:href="#f" y="214.547"/><path d="m-.002 0 123.852-19.754" fill="none" stroke="#00f" stroke-miterlimit="10" stroke-width=".79701" transform="matrix(1 0 0 -1 161.732 159.949)"/><path d="m290.184 180.438c-1.32-.473-3.418-1.594-4.809-2.735l-.613 3.836c1.68-.648 4.02-1.062 5.422-1.101" fill="#00f"/><use fill="#00f" x="293.903" xlink:href="#a" y="180.619"/><use fill="#00f" x="293.901" xlink:href="#b" y="180.619"/><use fill="#00f" x="296.291" xlink:href="#g" y="183.912"/><path d="m-59.9-43.93c70.945-11.316 155.27-.82 188.352 23.442 33.082 24.261 2.39 53.101-68.551 64.417-70.946 11.317-155.274.825-188.356-23.44-33.082-24.264-2.385-53.104 68.555-64.419" fill="none" stroke="#00f" stroke-dasharray="2.98883 2.98883" stroke-miterlimit="10" stroke-width=".3985" transform="matrix(1 0 0 -1 161.732 159.949)"/><use fill="#00f" x="234.836" xlink:href="#h" y="188.819"/><path d="m75.998-21.813c5.57 2.27 10.254 4.785 10.157 4.715" fill="none" stroke="#00f" stroke-miterlimit="10" stroke-width=".79701" transform="matrix(1 0 0 -1 161.732 159.949)"/><path d="m251.648 174.29c-1.27.608-3.539 1.312-5.328 1.5l2.297 3.132c.719-1.652 2.07-3.606 3.031-4.633" fill="#00f"/><use fill="#00f" x="97.864" xlink:href="#h" y="199.201"/><path d="m-63.771-25.992c6.637-1.903 13.988-3.504 17.238-4.024" fill="none" stroke="#00f" stroke-miterlimit="10" stroke-width=".79701" transform="matrix(1 0 0 -1 161.732 159.949)"/><path d="m119.805 190.7c-1.325-.473-3.418-1.595-4.813-2.735l-.61 3.836c1.677-.649 4.016-1.063 5.423-1.102" fill="#00f"/><path d="m-.002 0-56.3-74.836" fill="none" stroke="#f00" stroke-miterlimit="10" stroke-width=".79701" transform="matrix(1 0 0 -1 161.732 159.949)"/><path d="m103.871 236.855 4.149-2.066-2.59-.004-.723-2.488" fill="#f00"/><use fill="#f00" x="90.191" xlink:href="#a" y="244.228"/><use fill="#f00" x="90.189" xlink:href="#b" y="244.228"/><use fill="#f00" x="91.472" xlink:href="#i" y="247.521"/><path d="m-.002 0-15.164 114.71" fill="none" stroke="#f00" stroke-miterlimit="10" stroke-width=".79701" transform="matrix(1 0 0 -1 161.732 159.949)"/><g fill="#f00"><path d="m146.227 42.672-1.512 4.379 1.851-1.813 2.258 1.27"/><use x="128.077" xlink:href="#a" y="34.166"/><use x="128.075" xlink:href="#b" y="34.166"/><use x="130.523" xlink:href="#e" y="37.459"/><use x="138.04" xlink:href="#l" y="38.953"/></g><path d="m-15.505 117.277c-31.955-42.473-50.918-129.41-42.356-194.183 8.563-64.77 41.41-82.848 73.363-40.372 31.958 42.473 50.922 129.41 42.36 194.184-8.563 64.77-41.41 82.848-73.367 40.371" fill="none" stroke="#f00" stroke-dasharray="2.98883 2.98883" stroke-miterlimit="10" stroke-width=".3985" transform="matrix(1 0 0 -1 161.732 159.949)"/><use fill="#f00" x="123.882" xlink:href="#j" y="198.886"/><path d="m-41.931-30.75c0-8.145.48-15.91.82-18.461" fill="none" stroke="#f00" stroke-miterlimit="10" stroke-width=".79701" transform="matrix(1 0 0 -1 161.732 159.949)"/><path d="m121.23 213.781c.075-1.402.551-3.73 1.247-5.39l-3.852.511c1.102 1.422 2.168 3.543 2.605 4.88" fill="#f00"/><use fill="#f00" x="153.782" xlink:href="#j" y="67.818"/><path d="m-.002 93.23c-3.66-2.687-7.312-6.433-8.046-7.414" fill="none" stroke="#f00" stroke-miterlimit="10" stroke-width=".79701" transform="matrix(1 0 0 -1 161.732 159.949)"/><path d="m150.879 77.855c1.039-.945 3.008-2.273 4.668-2.968l-3.106-2.336c-.21 1.785-.937 4.047-1.562 5.304" fill="#f00"/><path d="m-.002 0-21.93-77.094" fill="none" stroke="#0f0" stroke-miterlimit="10" stroke-width=".79701" transform="matrix(1 0 0 -1 161.732 159.949)"/><path d="m139.09 239.535 3.129-3.418-2.418.926-1.57-2.059" fill="#0f0"/><use fill="#0f0" x="131.875" xlink:href="#a" y="246.909"/><use fill="#0f0" x="131.873" xlink:href="#b" y="246.909"/><use fill="#0f0" x="134.01" xlink:href="#c" y="250.202"/><use fill="#0f0" x="141.838" xlink:href="#l" y="251.697"/><path d="m-.002 0 136.462.113" fill="none" stroke="#0f0" stroke-miterlimit="10" stroke-width=".79701" transform="matrix(1 0 0 -1 161.732 159.949)"/><path d="m300.781 159.836-4.144-2.07 1.554 2.07-1.55 2.074" fill="#0f0"/><use fill="#0f0" x="304.5" xlink:href="#a" y="158.798"/><use fill="#0f0" x="304.498" xlink:href="#b" y="158.798"/><use fill="#0f0" x="306.86" xlink:href="#d" y="162.091"/><use fill="#0f0" x="314.463" xlink:href="#l" y="164.526"/><path d="m-22.642-79.586c76.797.062 149.187 35.746 161.691 79.7 12.504 43.956-39.613 79.537-116.406 79.471-76.797-.063-149.188-35.746-161.691-79.7-12.508-43.955 39.608-79.533 116.406-79.47" fill="none" stroke="#0f0" stroke-dasharray="2.98883 2.98883" stroke-miterlimit="10" stroke-width=".3985" transform="matrix(1 0 0 -1 161.732 159.949)"/><use fill="#0f0" x="259.878" xlink:href="#k" y="168.316"/><path d="m89.913-14.34c3.539 4.7 6.035 9.555 6.144 9.937" fill="none" stroke="#0f0" stroke-miterlimit="10" stroke-width=".79701" transform="matrix(1 0 0 -1 161.732 159.949)"/><path d="m259.066 159.867c-.628 1.258-1.992 3.207-3.289 4.453l3.739 1.063c-.446-1.742-.579-4.113-.45-5.516" fill="#0f0"/><use fill="#0f0" x="130.059" xlink:href="#k" y="223.198"/><path d="m-40.502-53.832c7.856-1.25 16.153-1.883 19.993-1.883" fill="none" stroke="#0f0" stroke-miterlimit="10" stroke-width=".79701" transform="matrix(1 0 0 -1 161.732 159.949)"/><path d="m145.883 215.66c-1.38-.258-3.625-1.035-5.18-1.941l.004 3.886c1.55-.906 3.797-1.687 5.176-1.945" fill="#0f0"/></svg>