<svg height="197.849pt" viewBox="0 0 243.276 197.849" width="243.276pt" xmlns="http://www.w3.org/2000/svg" xmlns:xlink="http://www.w3.org/1999/xlink"><clipPath id="a"><path d="m159 15h3v16h-3zm0 0"/></clipPath><clipPath id="b"><path d="m161.535156 30.207031c-1.714844-4.710937-1.714844-9.878906 0-14.59375-1.824218 5.015625-6.621094 5.433594-11.953125 5.433594v3.730469c5.332031 0 10.128907.417968 11.953125 5.429687zm-58.96875-5.429687h47.015625v-3.730469h-47.015625zm-12.839844 5.972656c1.84375-5.0625 1.84375-10.613281 0-15.675781 1.960938 5.382812 7.109376 5.972656 12.839844 5.972656v3.730469c-5.730468 0-10.878906.589844-12.839844 5.972656zm0 0"/></clipPath><clipPath id="c"><path d="m89 15h4v16h-4zm0 0"/></clipPath><clipPath id="d"><path d="m161.535156 30.207031c-1.714844-4.710937-1.714844-9.878906 0-14.59375-1.824218 5.015625-6.621094 5.433594-11.953125 5.433594v3.730469c5.332031 0 10.128907.417968 11.953125 5.429687zm-58.96875-5.429687h47.015625v-3.730469h-47.015625zm-12.839844 5.972656c1.84375-5.0625 1.84375-10.613281 0-15.675781 1.960938 5.382812 7.109376 5.972656 12.839844 5.972656v3.730469c-5.730468 0-10.878906.589844-12.839844 5.972656zm0 0"/></clipPath><clipPath id="e"><path d="m91.101562 15h68.898438v16h-68.898438zm0 0"/></clipPath><clipPath id="f"><path d="m161.535156 30.207031c-1.714844-4.710937-1.714844-9.878906 0-14.59375-1.824218 5.015625-6.621094 5.433594-11.953125 5.433594v3.730469c5.332031 0 10.128907.417968 11.953125 5.429687zm-58.96875-5.429687h47.015625v-3.730469h-47.015625zm-12.839844 5.972656c1.84375-5.0625 1.84375-10.613281 0-15.675781 1.960938 5.382812 7.109376 5.972656 12.839844 5.972656v3.730469c-5.730468 0-10.878906.589844-12.839844 5.972656zm0 0"/></clipPath><linearGradient id="g" gradientTransform="matrix(-.69148 0 0 .45831 160.24893 -.0035)" gradientUnits="userSpaceOnUse" x1="0" x2="100" y1="0" y2="0"><stop offset="0" stop-color="#ff7f00"/><stop offset=".00390625" stop-color="#fe7f00"/><stop offset=".0078125" stop-color="#fd7f01"/><stop offset=".0117188" stop-color="#fc7f01"/><stop offset=".015625" stop-color="#fb7f02"/><stop offset=".0195312" stop-color="#fa7f02"/><stop offset=".0234375" stop-color="#f97f03"/><stop offset=".0273438" stop-color="#f87f03"/><stop offset=".03125" stop-color="#f77f04"/><stop offset=".0351562" stop-color="#f67f04"/><stop offset=".0390625" stop-color="#f57f05"/><stop offset=".0429688" stop-color="#f47f05"/><stop offset=".046875" stop-color="#f37f06"/><stop offset=".0507812" stop-color="#f27f06"/><stop offset=".0546875" stop-color="#f17f07"/><stop offset=".0585938" stop-color="#f07f07"/><stop offset=".0625" stop-color="#ef7f08"/><stop offset=".0664062" stop-color="#ee7f08"/><stop offset=".0703125" stop-color="#ed7f09"/><stop offset=".0742187" stop-color="#ec7f09"/><stop offset=".078125" stop-color="#eb7f0a"/><stop offset=".0820313" stop-color="#ea7f0a"/><stop offset=".0859375" stop-color="#e97f0b"/><stop offset=".0898438" stop-color="#e87f0b"/><stop offset=".09375" stop-color="#e77f0c"/><stop offset=".0976562" stop-color="#e67f0c"/><stop offset=".101562" stop-color="#e57f0d"/><stop offset=".105469" stop-color="#e47f0d"/><stop offset=".109375" stop-color="#e37f0e"/><stop offset=".113281" stop-color="#e27f0e"/><stop offset=".117188" stop-color="#e17f0f"/><stop offset=".121094" stop-color="#e07f0f"/><stop offset=".125" stop-color="#df7f10"/><stop offset=".128906" stop-color="#de7f10"/><stop offset=".132812" stop-color="#dd7f11"/><stop offset=".136719" stop-color="#dc7f11"/><stop offset=".140625" stop-color="#db7f12"/><stop offset=".144531" stop-color="#da7f12"/><stop offset=".148437" stop-color="#d97f13"/><stop offset=".152344" stop-color="#d87f13"/><stop offset=".15625" stop-color="#d77f14"/><stop offset=".160156" stop-color="#d67f14"/><stop offset=".164063" stop-color="#d57f15"/><stop offset=".167969" stop-color="#d47f15"/><stop offset=".171875" stop-color="#d37f16"/><stop offset=".175781" stop-color="#d27f16"/><stop offset=".179688" stop-color="#d17f17"/><stop offset=".183594" stop-color="#d07f17"/><stop offset=".1875" stop-color="#cf7f18"/><stop offset=".191406" stop-color="#ce7f18"/><stop offset=".195312" stop-color="#cd7f19"/><stop offset=".199219" stop-color="#cc7f19"/><stop offset=".203125" stop-color="#cb7f1a"/><stop offset=".207031" stop-color="#ca7f1a"/><stop offset=".210938" stop-color="#c97f1b"/><stop offset=".214844" stop-color="#c87f1b"/><stop offset=".21875" stop-color="#c77f1c"/><stop offset=".222656" stop-color="#c67f1c"/><stop offset=".226562" stop-color="#c57f1d"/><stop offset=".230469" stop-color="#c47f1d"/><stop offset=".234375" stop-color="#c37f1e"/><stop offset=".238281" stop-color="#c27f1e"/><stop offset=".242187" stop-color="#c17f1f"/><stop offset=".246094" stop-color="#c07f1f"/><stop offset=".25" stop-color="#bf7f20"/><stop offset=".253906" stop-color="#be7f20"/><stop offset=".257812" stop-color="#bd7f21"/><stop offset=".261719" stop-color="#bc7f21"/><stop offset=".265625" stop-color="#bb7f22"/><stop offset=".269531" stop-color="#ba7f22"/><stop offset=".273438" stop-color="#b97f23"/><stop offset=".277344" stop-color="#b87f23"/><stop offset=".28125" stop-color="#b77f24"/><stop offset=".285156" stop-color="#b67f24"/><stop offset=".289062" stop-color="#b57f25"/><stop offset=".292969" stop-color="#b47f25"/><stop offset=".296875" stop-color="#b37f26"/><stop offset=".300781" stop-color="#b27f26"/><stop offset=".304688" stop-color="#b17f27"/><stop offset=".308594" stop-color="#b07f27"/><stop offset=".3125" stop-color="#af7f28"/><stop offset=".316406" stop-color="#ae7f28"/><stop offset=".320312" stop-color="#ad7f29"/><stop offset=".324219" stop-color="#ac7f29"/><stop offset=".328125" stop-color="#ab7f2a"/><stop offset=".332031" stop-color="#aa7f2a"/><stop offset=".335938" stop-color="#a97f2b"/><stop offset=".339844" stop-color="#a87f2b"/><stop offset=".34375" stop-color="#a77f2c"/><stop offset=".347656" stop-color="#a67f2c"/><stop offset=".351562" stop-color="#a57f2d"/><stop offset=".355469" stop-color="#a47f2d"/><stop offset=".359375" stop-color="#a37f2e"/><stop offset=".363281" stop-color="#a27f2e"/><stop offset=".367188" stop-color="#a17f2f"/><stop offset=".371094" stop-color="#a07f2f"/><stop offset=".375" stop-color="#9f7f30"/><stop offset=".378906" stop-color="#9e7f30"/><stop offset=".382812" stop-color="#9d7f31"/><stop offset=".386719" stop-color="#9c7f31"/><stop offset=".390625" stop-color="#9b7f32"/><stop offset=".394531" stop-color="#9a7f32"/><stop offset=".398438" stop-color="#997f33"/><stop offset=".402344" stop-color="#987f33"/><stop offset=".40625" stop-color="#977f34"/><stop offset=".410156" stop-color="#967f34"/><stop offset=".414062" stop-color="#957f35"/><stop offset=".417969" stop-color="#947f35"/><stop offset=".421875" stop-color="#937f36"/><stop offset=".425781" stop-color="#927f36"/><stop offset=".429688" stop-color="#917f37"/><stop offset=".433594" stop-color="#907f37"/><stop offset=".4375" stop-color="#8f7f38"/><stop offset=".441406" stop-color="#8e7f38"/><stop offset=".445312" stop-color="#8d7f39"/><stop offset=".449219" stop-color="#8c7f39"/><stop offset=".453125" stop-color="#8b7f3a"/><stop offset=".457031" stop-color="#8a7f3a"/><stop offset=".460938" stop-color="#897f3b"/><stop offset=".464844" stop-color="#887f3b"/><stop offset=".46875" stop-color="#877f3c"/><stop offset=".472656" stop-color="#867f3c"/><stop offset=".476562" stop-color="#857f3d"/><stop offset=".480469" stop-color="#847f3d"/><stop offset=".484375" stop-color="#837f3e"/><stop offset=".488281" stop-color="#827f3e"/><stop offset=".492188" stop-color="#817f3f"/><stop offset=".496094" stop-color="#807f3f"/><stop offset=".5" stop-color="#7f7f40"/><stop offset=".503906" stop-color="#7f7f40"/><stop offset=".507812" stop-color="#7e7f41"/><stop offset=".511719" stop-color="#7d7f41"/><stop offset=".515625" stop-color="#7c7f42"/><stop offset=".519531" stop-color="#7b7f42"/><stop offset=".523438" stop-color="#7a7f43"/><stop offset=".527344" stop-color="#797f43"/><stop offset=".53125" stop-color="#787f44"/><stop offset=".535156" stop-color="#777f44"/><stop offset=".539063" stop-color="#767f45"/><stop offset=".542969" stop-color="#757f45"/><stop offset=".546875" stop-color="#747f46"/><stop offset=".550781" stop-color="#737f46"/><stop offset=".554687" stop-color="#727f47"/><stop offset=".558594" stop-color="#717f47"/><stop offset=".5625" stop-color="#707f48"/><stop offset=".566406" stop-color="#6f7f48"/><stop offset=".570312" stop-color="#6e7f49"/><stop offset=".574219" stop-color="#6d7f49"/><stop offset=".578125" stop-color="#6c7f4a"/><stop offset=".582031" stop-color="#6b7f4a"/><stop offset=".585937" stop-color="#6a7f4b"/><stop offset=".589844" stop-color="#697f4b"/><stop offset=".59375" stop-color="#687f4c"/><stop offset=".597656" stop-color="#677f4c"/><stop offset=".601562" stop-color="#667f4d"/><stop offset=".605469" stop-color="#657f4d"/><stop offset=".609375" stop-color="#647f4e"/><stop offset=".613281" stop-color="#637f4e"/><stop offset=".617188" stop-color="#627f4f"/><stop offset=".621094" stop-color="#617f4f"/><stop offset=".625" stop-color="#607f50"/><stop offset=".628906" stop-color="#5f7f50"/><stop offset=".632812" stop-color="#5e7f51"/><stop offset=".636719" stop-color="#5d7f51"/><stop offset=".640625" stop-color="#5c7f52"/><stop offset=".644531" stop-color="#5b7f52"/><stop offset=".648438" stop-color="#5a7f53"/><stop offset=".652344" stop-color="#597f53"/><stop offset=".65625" stop-color="#587f54"/><stop offset=".660156" stop-color="#577f54"/><stop offset=".664063" stop-color="#567f55"/><stop offset=".667969" stop-color="#557f55"/><stop offset=".671875" stop-color="#547f56"/><stop offset=".675781" stop-color="#537f56"/><stop offset=".679688" stop-color="#527f57"/><stop offset=".683594" stop-color="#517f57"/><stop offset=".6875" stop-color="#507f58"/><stop offset=".691406" stop-color="#4f7f58"/><stop offset=".695313" stop-color="#4e7f59"/><stop offset=".699219" stop-color="#4d7f59"/><stop offset=".703125" stop-color="#4c7f5a"/><stop offset=".707031" stop-color="#4b7f5a"/><stop offset=".710938" stop-color="#4a7f5b"/><stop offset=".714844" stop-color="#497f5b"/><stop offset=".71875" stop-color="#487f5c"/><stop offset=".722656" stop-color="#477f5c"/><stop offset=".726563" stop-color="#467f5d"/><stop offset=".730469" stop-color="#457f5d"/><stop offset=".734375" stop-color="#447f5e"/><stop offset=".738281" stop-color="#437f5e"/><stop offset=".742187" stop-color="#427f5f"/><stop offset=".746094" stop-color="#417f5f"/><stop offset=".75" stop-color="#407f60"/><stop offset=".753906" stop-color="#3f7f60"/><stop offset=".757812" stop-color="#3e7f61"/><stop offset=".761719" stop-color="#3d7f61"/><stop offset=".765625" stop-color="#3c7f62"/><stop offset=".769531" stop-color="#3b7f62"/><stop offset=".773437" stop-color="#3a7f63"/><stop offset=".777344" stop-color="#397f63"/><stop offset=".78125" stop-color="#387f64"/><stop offset=".785156" stop-color="#377f64"/><stop offset=".789062" stop-color="#367f65"/><stop offset=".792969" stop-color="#357f65"/><stop offset=".796875" stop-color="#347f66"/><stop offset=".800781" stop-color="#337f66"/><stop offset=".804688" stop-color="#327f67"/><stop offset=".808594" stop-color="#317f67"/><stop offset=".8125" stop-color="#307f68"/><stop offset=".816406" stop-color="#2f7f68"/><stop offset=".820312" stop-color="#2e7f69"/><stop offset=".824219" stop-color="#2d7f69"/><stop offset=".828125" stop-color="#2c7f6a"/><stop offset=".832031" stop-color="#2b7f6a"/><stop offset=".835938" stop-color="#2a7f6b"/><stop offset=".839844" stop-color="#297f6b"/><stop offset=".84375" stop-color="#287f6c"/><stop offset=".847656" stop-color="#277f6c"/><stop offset=".851563" stop-color="#267f6d"/><stop offset=".855469" stop-color="#257f6d"/><stop offset=".859375" stop-color="#247f6e"/><stop offset=".863281" stop-color="#237f6e"/><stop offset=".867188" stop-color="#227f6f"/><stop offset=".871094" stop-color="#217f6f"/><stop offset=".875" stop-color="#207f70"/><stop offset=".878906" stop-color="#1f7f70"/><stop offset=".882813" stop-color="#1e7f71"/><stop offset=".886719" stop-color="#1d7f71"/><stop offset=".890625" stop-color="#1c7f72"/><stop offset=".894531" stop-color="#1b7f72"/><stop offset=".898438" stop-color="#1a7f73"/><stop offset=".902344" stop-color="#197f73"/><stop offset=".90625" stop-color="#187f74"/><stop offset=".910156" stop-color="#177f74"/><stop offset=".914062" stop-color="#167f75"/><stop offset=".917969" stop-color="#157f75"/><stop offset=".921875" stop-color="#147f76"/><stop offset=".925781" stop-color="#137f76"/><stop offset=".929687" stop-color="#127f77"/><stop offset=".933594" stop-color="#117f77"/><stop offset=".9375" stop-color="#107f78"/><stop offset=".941406" stop-color="#0f7f78"/><stop offset=".945312" stop-color="#0e7f79"/><stop offset=".949219" stop-color="#0d7f79"/><stop offset=".953125" stop-color="#0c7f7a"/><stop offset=".957031" stop-color="#0b7f7a"/><stop offset=".960937" stop-color="#0a7f7b"/><stop offset=".964844" stop-color="#097f7b"/><stop offset=".96875" stop-color="#087f7c"/><stop offset=".972656" stop-color="#077f7c"/><stop offset=".976562" stop-color="#067f7d"/><stop offset=".980469" stop-color="#057f7d"/><stop offset=".984375" stop-color="#047f7e"/><stop offset=".988281" stop-color="#037f7e"/><stop offset=".992188" stop-color="#027f7f"/><stop offset=".996094" stop-color="#017f7f"/><stop offset="1" stop-color="#007f7f"/></linearGradient><clipPath id="h"><path d="m147 35h30v21h-30zm0 0"/></clipPath><clipPath id="i"><path d="m176.535156 43.640625c-4.871094-1.1875-9.171875-4.054687-12.140625-8.097656 3.15625 4.300781.84375 8.523437-2.113281 12.960937l3.105469 2.070313c2.957031-4.4375 5.964843-8.195313 11.148437-6.933594zm-28.519531 32.992187 17.371094-26.058593-3.105469-2.070313-17.375 26.058594zm-2.234375 15.941407c-3.601562-4.902344-8.820312-8.382813-14.730469-9.820313 6.285157 1.53125 10.265625-2.808594 13.855469-8.191406l3.109375 2.070312c-3.589844 5.382813-6.066406 10.726563-2.234375 15.941407zm0 0"/></clipPath><clipPath id="j"><path d="m131 71h31v22h-31zm0 0"/></clipPath><clipPath id="k"><path d="m176.535156 43.640625c-4.871094-1.1875-9.171875-4.054687-12.140625-8.097656 3.15625 4.300781.84375 8.523437-2.113281 12.960937l3.105469 2.070313c2.957031-4.4375 5.964843-8.195313 11.148437-6.933594zm-28.519531 32.992187 17.371094-26.058593-3.105469-2.070313-17.375 26.058594zm-2.234375 15.941407c-3.601562-4.902344-8.820312-8.382813-14.730469-9.820313 6.285157 1.53125 10.265625-2.808594 13.855469-8.191406l3.109375 2.070312c-3.589844 5.382813-6.066406 10.726563-2.234375 15.941407zm0 0"/></clipPath><clipPath id="l"><path d="m131 35h46v58h-46zm0 0"/></clipPath><clipPath id="m"><path d="m176.535156 43.640625c-4.871094-1.1875-9.171875-4.054687-12.140625-8.097656 3.15625 4.300781.84375 8.523437-2.113281 12.960937l3.105469 2.070313c2.957031-4.4375 5.964843-8.195313 11.148437-6.933594zm-28.519531 32.992187 17.371094-26.058593-3.105469-2.070313-17.375 26.058594zm-2.234375 15.941407c-3.601562-4.902344-8.820312-8.382813-14.730469-9.820313 6.285157 1.53125 10.265625-2.808594 13.855469-8.191406l3.109375 2.070312c-3.589844 5.382813-6.066406 10.726563-2.234375 15.941407zm0 0"/></clipPath><clipPath id="n"><path d="m148.210938 26.304688-30.5 45.753906 43.074218 28.714844 30.503906-45.753907zm0 0"/></clipPath><linearGradient id="o" gradientTransform="matrix(-.30502 .45753 .43077 .28717 148.21133 26.30435)" gradientUnits="userSpaceOnUse" x1="0" x2="100.00128" y1="0" y2="0"><stop offset="0" stop-color="#ff7f00"/><stop offset=".00390625" stop-color="#fe7f01"/><stop offset=".0078125" stop-color="#fd7f01"/><stop offset=".0117188" stop-color="#fc7e02"/><stop offset=".015625" stop-color="#fb7e02"/><stop offset=".0195312" stop-color="#fa7d03"/><stop offset=".0234375" stop-color="#f97d03"/><stop offset=".0273438" stop-color="#f87c04"/><stop offset=".03125" stop-color="#f77c04"/><stop offset=".0351562" stop-color="#f67b05"/><stop offset=".0390625" stop-color="#f57b05"/><stop offset=".0429688" stop-color="#f47a06"/><stop offset=".046875" stop-color="#f37a07"/><stop offset=".0507812" stop-color="#f27907"/><stop offset=".0546875" stop-color="#f17908"/><stop offset=".0585938" stop-color="#f07808"/><stop offset=".0625" stop-color="#ef7809"/><stop offset=".0664062" stop-color="#ee7709"/><stop offset=".0703125" stop-color="#ed770a"/><stop offset=".0742188" stop-color="#ec760a"/><stop offset=".078125" stop-color="#eb760b"/><stop offset=".0820312" stop-color="#ea750b"/><stop offset=".0859375" stop-color="#e9750c"/><stop offset=".0898438" stop-color="#e8740c"/><stop offset=".09375" stop-color="#e7740d"/><stop offset=".0976562" stop-color="#e6730e"/><stop offset=".101562" stop-color="#e5730e"/><stop offset=".105469" stop-color="#e4720f"/><stop offset=".109375" stop-color="#e3720f"/><stop offset=".113281" stop-color="#e27110"/><stop offset=".117188" stop-color="#e17110"/><stop offset=".121094" stop-color="#e07011"/><stop offset=".125" stop-color="#df7011"/><stop offset=".128906" stop-color="#de6f12"/><stop offset=".132812" stop-color="#dd6f12"/><stop offset=".136719" stop-color="#dc6e13"/><stop offset=".140625" stop-color="#db6e14"/><stop offset=".144531" stop-color="#da6d14"/><stop offset=".148438" stop-color="#d96d15"/><stop offset=".152344" stop-color="#d86c15"/><stop offset=".15625" stop-color="#d76c16"/><stop offset=".160156" stop-color="#d66b16"/><stop offset=".164062" stop-color="#d56b17"/><stop offset=".167969" stop-color="#d46a17"/><stop offset=".171875" stop-color="#d36a18"/><stop offset=".175781" stop-color="#d26918"/><stop offset=".179688" stop-color="#d16919"/><stop offset=".183594" stop-color="#d0681a"/><stop offset=".1875" stop-color="#cf681a"/><stop offset=".191406" stop-color="#ce671b"/><stop offset=".195312" stop-color="#cd671b"/><stop offset=".199219" stop-color="#cc661c"/><stop offset=".203125" stop-color="#cb661c"/><stop offset=".207031" stop-color="#ca651d"/><stop offset=".210938" stop-color="#c9651d"/><stop offset=".214844" stop-color="#c8641e"/><stop offset=".21875" stop-color="#c7641e"/><stop offset=".222656" stop-color="#c6631f"/><stop offset=".226562" stop-color="#c5631f"/><stop offset=".230469" stop-color="#c46220"/><stop offset=".234375" stop-color="#c36221"/><stop offset=".238281" stop-color="#c26121"/><stop offset=".242188" stop-color="#c16122"/><stop offset=".246094" stop-color="#c06022"/><stop offset=".25" stop-color="#bf6023"/><stop offset=".253906" stop-color="#be5f23"/><stop offset=".257812" stop-color="#bd5f24"/><stop offset=".261719" stop-color="#bc5e24"/><stop offset=".265625" stop-color="#bb5e25"/><stop offset=".269531" stop-color="#ba5d25"/><stop offset=".273438" stop-color="#b95d26"/><stop offset=".277344" stop-color="#b85c27"/><stop offset=".28125" stop-color="#b75c27"/><stop offset=".285156" stop-color="#b65b28"/><stop offset=".289062" stop-color="#b55b28"/><stop offset=".292969" stop-color="#b45a29"/><stop offset=".296875" stop-color="#b35a29"/><stop offset=".300781" stop-color="#b2592a"/><stop offset=".304688" stop-color="#b1592a"/><stop offset=".308594" stop-color="#b0582b"/><stop offset=".3125" stop-color="#af582b"/><stop offset=".316406" stop-color="#ae572c"/><stop offset=".320312" stop-color="#ad572d"/><stop offset=".324219" stop-color="#ac562d"/><stop offset=".328125" stop-color="#ab562e"/><stop offset=".332031" stop-color="#aa552e"/><stop offset=".335938" stop-color="#a9552f"/><stop offset=".339844" stop-color="#a8542f"/><stop offset=".34375" stop-color="#a75430"/><stop offset=".347656" stop-color="#a65330"/><stop offset=".351562" stop-color="#a55331"/><stop offset=".355469" stop-color="#a45231"/><stop offset=".359375" stop-color="#a35232"/><stop offset=".363281" stop-color="#a25132"/><stop offset=".367188" stop-color="#a15133"/><stop offset=".371094" stop-color="#a05034"/><stop offset=".375" stop-color="#9f5034"/><stop offset=".378906" stop-color="#9e4f35"/><stop offset=".382812" stop-color="#9d4f35"/><stop offset=".386719" stop-color="#9c4e36"/><stop offset=".390625" stop-color="#9b4e36"/><stop offset=".394531" stop-color="#9a4d37"/><stop offset=".398438" stop-color="#994d37"/><stop offset=".402344" stop-color="#984c38"/><stop offset=".40625" stop-color="#974c38"/><stop offset=".410156" stop-color="#964b39"/><stop offset=".414062" stop-color="#954b3a"/><stop offset=".417969" stop-color="#944a3a"/><stop offset=".421875" stop-color="#934a3b"/><stop offset=".425781" stop-color="#92493b"/><stop offset=".429688" stop-color="#91493c"/><stop offset=".433594" stop-color="#90483c"/><stop offset=".4375" stop-color="#8f483d"/><stop offset=".441406" stop-color="#8e473d"/><stop offset=".445312" stop-color="#8d473e"/><stop offset=".449219" stop-color="#8c463e"/><stop offset=".453125" stop-color="#8b463f"/><stop offset=".457031" stop-color="#8a4540"/><stop offset=".460938" stop-color="#894540"/><stop offset=".464844" stop-color="#884441"/><stop offset=".46875" stop-color="#874441"/><stop offset=".472656" stop-color="#864342"/><stop offset=".476562" stop-color="#854342"/><stop offset=".480469" stop-color="#844243"/><stop offset=".484375" stop-color="#834243"/><stop offset=".488281" stop-color="#824144"/><stop offset=".492188" stop-color="#814144"/><stop offset=".496094" stop-color="#804045"/><stop offset=".5" stop-color="#7f4045"/><stop offset=".503906" stop-color="#7f3f46"/><stop offset=".507812" stop-color="#7e3f47"/><stop offset=".511719" stop-color="#7d3e47"/><stop offset=".515625" stop-color="#7c3e48"/><stop offset=".519531" stop-color="#7b3d48"/><stop offset=".523438" stop-color="#7a3d49"/><stop offset=".527344" stop-color="#793c49"/><stop offset=".53125" stop-color="#783c4a"/><stop offset=".535156" stop-color="#773b4a"/><stop offset=".539062" stop-color="#763b4b"/><stop offset=".542969" stop-color="#753a4b"/><stop offset=".546875" stop-color="#743a4c"/><stop offset=".550781" stop-color="#73394d"/><stop offset=".554688" stop-color="#72394d"/><stop offset=".558594" stop-color="#71384e"/><stop offset=".5625" stop-color="#70384e"/><stop offset=".566406" stop-color="#6f374f"/><stop offset=".570312" stop-color="#6e374f"/><stop offset=".574219" stop-color="#6d3650"/><stop offset=".578125" stop-color="#6c3650"/><stop offset=".582031" stop-color="#6b3551"/><stop offset=".585938" stop-color="#6a3551"/><stop offset=".589844" stop-color="#693452"/><stop offset=".59375" stop-color="#683453"/><stop offset=".597656" stop-color="#673353"/><stop offset=".601562" stop-color="#663354"/><stop offset=".605469" stop-color="#653254"/><stop offset=".609375" stop-color="#643255"/><stop offset=".613281" stop-color="#633155"/><stop offset=".617188" stop-color="#623156"/><stop offset=".621094" stop-color="#613056"/><stop offset=".625" stop-color="#603057"/><stop offset=".628906" stop-color="#5f2f57"/><stop offset=".632812" stop-color="#5e2f58"/><stop offset=".636719" stop-color="#5d2e58"/><stop offset=".640625" stop-color="#5c2e59"/><stop offset=".644531" stop-color="#5b2d5a"/><stop offset=".648438" stop-color="#5a2d5a"/><stop offset=".652344" stop-color="#592c5b"/><stop offset=".65625" stop-color="#582c5b"/><stop offset=".660156" stop-color="#572b5c"/><stop offset=".664062" stop-color="#562b5c"/><stop offset=".667969" stop-color="#552a5d"/><stop offset=".671875" stop-color="#542a5d"/><stop offset=".675781" stop-color="#53295e"/><stop offset=".679688" stop-color="#52295e"/><stop offset=".683594" stop-color="#51285f"/><stop offset=".6875" stop-color="#502860"/><stop offset=".691406" stop-color="#4f2760"/><stop offset=".695312" stop-color="#4e2761"/><stop offset=".699219" stop-color="#4d2661"/><stop offset=".703125" stop-color="#4c2662"/><stop offset=".707031" stop-color="#4b2562"/><stop offset=".710938" stop-color="#4a2563"/><stop offset=".714844" stop-color="#492463"/><stop offset=".71875" stop-color="#482464"/><stop offset=".722656" stop-color="#472364"/><stop offset=".726562" stop-color="#462365"/><stop offset=".730469" stop-color="#452266"/><stop offset=".734375" stop-color="#426"/><stop offset=".738281" stop-color="#432167"/><stop offset=".742188" stop-color="#422167"/><stop offset=".746094" stop-color="#412068"/><stop offset=".75" stop-color="#402068"/><stop offset=".753906" stop-color="#3f1f69"/><stop offset=".757812" stop-color="#3e1f69"/><stop offset=".761719" stop-color="#3d1e6a"/><stop offset=".765625" stop-color="#3c1e6a"/><stop offset=".769531" stop-color="#3b1d6b"/><stop offset=".773438" stop-color="#3a1d6b"/><stop offset=".777344" stop-color="#391c6c"/><stop offset=".78125" stop-color="#381c6d"/><stop offset=".785156" stop-color="#371b6d"/><stop offset=".789062" stop-color="#361b6e"/><stop offset=".792969" stop-color="#351a6e"/><stop offset=".796875" stop-color="#341a6f"/><stop offset=".800781" stop-color="#33196f"/><stop offset=".804688" stop-color="#321970"/><stop offset=".808594" stop-color="#311870"/><stop offset=".8125" stop-color="#301871"/><stop offset=".816406" stop-color="#2f1771"/><stop offset=".820312" stop-color="#2e1772"/><stop offset=".824219" stop-color="#2d1673"/><stop offset=".828125" stop-color="#2c1673"/><stop offset=".832031" stop-color="#2b1574"/><stop offset=".835938" stop-color="#2a1574"/><stop offset=".839844" stop-color="#291475"/><stop offset=".84375" stop-color="#281475"/><stop offset=".847656" stop-color="#271376"/><stop offset=".851562" stop-color="#261376"/><stop offset=".855469" stop-color="#251277"/><stop offset=".859375" stop-color="#241277"/><stop offset=".863281" stop-color="#231178"/><stop offset=".867188" stop-color="#221179"/><stop offset=".871094" stop-color="#211079"/><stop offset=".875" stop-color="#20107a"/><stop offset=".878906" stop-color="#1f0f7a"/><stop offset=".882812" stop-color="#1e0f7b"/><stop offset=".886719" stop-color="#1d0e7b"/><stop offset=".890625" stop-color="#1c0e7c"/><stop offset=".894531" stop-color="#1b0d7c"/><stop offset=".898438" stop-color="#1a0d7d"/><stop offset=".902344" stop-color="#190c7d"/><stop offset=".90625" stop-color="#180c7e"/><stop offset=".910156" stop-color="#170b7e"/><stop offset=".914062" stop-color="#160b7f"/><stop offset=".917969" stop-color="#150a80"/><stop offset=".921875" stop-color="#140a80"/><stop offset=".925781" stop-color="#130981"/><stop offset=".929688" stop-color="#120981"/><stop offset=".933594" stop-color="#110882"/><stop offset=".9375" stop-color="#100882"/><stop offset=".941406" stop-color="#0f0783"/><stop offset=".945312" stop-color="#0e0783"/><stop offset=".949219" stop-color="#0d0684"/><stop offset=".953125" stop-color="#0c0684"/><stop offset=".957031" stop-color="#0b0585"/><stop offset=".960938" stop-color="#0a0586"/><stop offset=".964844" stop-color="#090486"/><stop offset=".96875" stop-color="#080487"/><stop offset=".972656" stop-color="#070387"/><stop offset=".976562" stop-color="#060388"/><stop offset=".980469" stop-color="#050288"/><stop offset=".984375" stop-color="#040289"/><stop offset=".988281" stop-color="#030189"/><stop offset=".992188" stop-color="#02018a"/><stop offset=".996094" stop-color="#01008a"/><stop offset="1" stop-color="#00008b"/></linearGradient><clipPath id="p"><path d="m73 36h30v22h-30zm0 0"/></clipPath><clipPath id="q"><path d="m86.660156 36.480469c-3.191406 4.339843-7.808594 7.417969-13.042968 8.691406 5.566406-1.355469 8.796874 2.683594 11.976562 7.449219l3.335938-2.226563c-3.179688-4.765625-5.660157-9.300781-2.269532-13.914062zm18.351563 38.042969-16.082031-24.128907-3.335938 2.226563 16.082031 24.125zm13.742187 8.269531c-5.910156 1.4375-11.128906 4.917969-14.730468 9.820312 3.832031-5.214843 1.242187-10.480469-2.347657-15.867187l3.335938-2.222656c3.589843 5.382812 7.457031 9.800781 13.742187 8.269531zm0 0"/></clipPath><clipPath id="r"><path d="m88 71h31v22h-31zm0 0"/></clipPath><clipPath id="s"><path d="m86.660156 36.480469c-3.191406 4.339843-7.808594 7.417969-13.042968 8.691406 5.566406-1.355469 8.796874 2.683594 11.976562 7.449219l3.335938-2.226563c-3.179688-4.765625-5.660157-9.300781-2.269532-13.914062zm18.351563 38.042969-16.082031-24.128907-3.335938 2.226563 16.082031 24.125zm13.742187 8.269531c-5.910156 1.4375-11.128906 4.917969-14.730468 9.820312 3.832031-5.214843 1.242187-10.480469-2.347657-15.867187l3.335938-2.222656c3.589843 5.382812 7.457031 9.800781 13.742187 8.269531zm0 0"/></clipPath><clipPath id="t"><path d="m73 36h46v57h-46zm0 0"/></clipPath><clipPath id="u"><path d="m86.660156 36.480469c-3.191406 4.339843-7.808594 7.417969-13.042968 8.691406 5.566406-1.355469 8.796874 2.683594 11.976562 7.449219l3.335938-2.226563c-3.179688-4.765625-5.660157-9.300781-2.269532-13.914062zm18.351563 38.042969-16.082031-24.128907-3.335938 2.226563 16.082031 24.125zm13.742187 8.269531c-5.910156 1.4375-11.128906 4.917969-14.730468 9.820312 3.832031-5.214843 1.242187-10.480469-2.347657-15.867187l3.335938-2.222656c3.589843 5.382812 7.457031 9.800781 13.742187 8.269531zm0 0"/></clipPath><clipPath id="v"><path d="m59.367188 56.335938 29.625 44.441406 43.078124-28.71875-29.625-44.441406zm0 0"/></clipPath><linearGradient id="w" gradientTransform="matrix(.29626 .44441 .43077 -.28717 59.36748 56.3348)" gradientUnits="userSpaceOnUse" x1="0" x2="100.00128" y1="0" y2="0"><stop offset="0" stop-color="#007f7f"/><stop offset=".0078125" stop-color="#007f80"/><stop offset=".015625" stop-color="#007e80"/><stop offset=".0234375" stop-color="#007d80"/><stop offset=".03125" stop-color="#007c80"/><stop offset=".0390625" stop-color="#007b80"/><stop offset=".046875" stop-color="#007a80"/><stop offset=".0546875" stop-color="#007980"/><stop offset=".0625" stop-color="#007880"/><stop offset=".0703125" stop-color="#007780"/><stop offset=".078125" stop-color="#007680"/><stop offset=".0859375" stop-color="#007580"/><stop offset=".09375" stop-color="#007481"/><stop offset=".101562" stop-color="#007381"/><stop offset=".109375" stop-color="#007281"/><stop offset=".117188" stop-color="#007181"/><stop offset=".125" stop-color="#007081"/><stop offset=".132812" stop-color="#006f81"/><stop offset=".140625" stop-color="#006e81"/><stop offset=".148438" stop-color="#006d81"/><stop offset=".15625" stop-color="#006c81"/><stop offset=".164062" stop-color="#006b81"/><stop offset=".171875" stop-color="#006a81"/><stop offset=".179688" stop-color="#006982"/><stop offset=".1875" stop-color="#006882"/><stop offset=".195312" stop-color="#006782"/><stop offset=".203125" stop-color="#006682"/><stop offset=".210938" stop-color="#006582"/><stop offset=".21875" stop-color="#006482"/><stop offset=".226562" stop-color="#006382"/><stop offset=".234375" stop-color="#006282"/><stop offset=".242188" stop-color="#006182"/><stop offset=".25" stop-color="#006082"/><stop offset=".257812" stop-color="#005f82"/><stop offset=".265625" stop-color="#005e82"/><stop offset=".273438" stop-color="#005d83"/><stop offset=".28125" stop-color="#005c83"/><stop offset=".289062" stop-color="#005b83"/><stop offset=".296875" stop-color="#005a83"/><stop offset=".304688" stop-color="#005983"/><stop offset=".3125" stop-color="#005883"/><stop offset=".320312" stop-color="#005783"/><stop offset=".328125" stop-color="#005683"/><stop offset=".335938" stop-color="#005583"/><stop offset=".34375" stop-color="#005483"/><stop offset=".351562" stop-color="#005383"/><stop offset=".359375" stop-color="#005284"/><stop offset=".367188" stop-color="#005184"/><stop offset=".375" stop-color="#005084"/><stop offset=".382812" stop-color="#004f84"/><stop offset=".390625" stop-color="#004e84"/><stop offset=".398438" stop-color="#004d84"/><stop offset=".40625" stop-color="#004c84"/><stop offset=".414062" stop-color="#004b84"/><stop offset=".421875" stop-color="#004a84"/><stop offset=".429688" stop-color="#004984"/><stop offset=".4375" stop-color="#004884"/><stop offset=".445312" stop-color="#004785"/><stop offset=".453125" stop-color="#004685"/><stop offset=".460938" stop-color="#004585"/><stop offset=".46875" stop-color="#004485"/><stop offset=".476562" stop-color="#004385"/><stop offset=".484375" stop-color="#004285"/><stop offset=".492188" stop-color="#004185"/><stop offset=".5" stop-color="#004085"/><stop offset=".507812" stop-color="#003f85"/><stop offset=".515625" stop-color="#003e85"/><stop offset=".523438" stop-color="#003d85"/><stop offset=".53125" stop-color="#003c86"/><stop offset=".539062" stop-color="#003b86"/><stop offset=".546875" stop-color="#003a86"/><stop offset=".554688" stop-color="#003986"/><stop offset=".5625" stop-color="#003886"/><stop offset=".570312" stop-color="#003786"/><stop offset=".578125" stop-color="#003686"/><stop offset=".585938" stop-color="#003586"/><stop offset=".59375" stop-color="#003486"/><stop offset=".601562" stop-color="#003386"/><stop offset=".609375" stop-color="#003286"/><stop offset=".617188" stop-color="#003187"/><stop offset=".625" stop-color="#003087"/><stop offset=".632812" stop-color="#002f87"/><stop offset=".640625" stop-color="#002e87"/><stop offset=".648438" stop-color="#002d87"/><stop offset=".65625" stop-color="#002c87"/><stop offset=".664062" stop-color="#002b87"/><stop offset=".671875" stop-color="#002a87"/><stop offset=".679688" stop-color="#002987"/><stop offset=".6875" stop-color="#002887"/><stop offset=".695312" stop-color="#002787"/><stop offset=".703125" stop-color="#002688"/><stop offset=".710938" stop-color="#002588"/><stop offset=".71875" stop-color="#002488"/><stop offset=".726562" stop-color="#002388"/><stop offset=".734375" stop-color="#028"/><stop offset=".742188" stop-color="#002188"/><stop offset=".75" stop-color="#002088"/><stop offset=".757812" stop-color="#001f88"/><stop offset=".765625" stop-color="#001e88"/><stop offset=".773438" stop-color="#001d88"/><stop offset=".78125" stop-color="#001c88"/><stop offset=".789062" stop-color="#001b89"/><stop offset=".796875" stop-color="#001a89"/><stop offset=".804688" stop-color="#001989"/><stop offset=".8125" stop-color="#001889"/><stop offset=".820312" stop-color="#001789"/><stop offset=".828125" stop-color="#001689"/><stop offset=".835938" stop-color="#001589"/><stop offset=".84375" stop-color="#001489"/><stop offset=".851562" stop-color="#001389"/><stop offset=".859375" stop-color="#001289"/><stop offset=".867188" stop-color="#001189"/><stop offset=".875" stop-color="#001089"/><stop offset=".882812" stop-color="#000f8a"/><stop offset=".890625" stop-color="#000e8a"/><stop offset=".898438" stop-color="#000d8a"/><stop offset=".90625" stop-color="#000c8a"/><stop offset=".914062" stop-color="#000b8a"/><stop offset=".921875" stop-color="#000a8a"/><stop offset=".929688" stop-color="#00098a"/><stop offset=".9375" stop-color="#00088a"/><stop offset=".945312" stop-color="#00078a"/><stop offset=".953125" stop-color="#00068a"/><stop offset=".960938" stop-color="#00058a"/><stop offset=".96875" stop-color="#00048b"/><stop offset=".976562" stop-color="#00038b"/><stop offset=".984375" stop-color="#00028b"/><stop offset=".992188" stop-color="#00018b"/><stop offset="1" stop-color="#00008b"/></linearGradient><clipPath id="x"><path d="m159 15h3v16h-3zm0 0"/></clipPath><clipPath id="y"><path d="m161.535156 30.207031c-1.714844-4.710937-1.714844-9.878906 0-14.59375-1.824218 5.015625-6.621094 5.433594-11.953125 5.433594v3.730469c5.332031 0 10.128907.417968 11.953125 5.429687zm-58.96875-5.429687h47.015625v-3.730469h-47.015625zm-12.839844 5.972656c1.84375-5.0625 1.84375-10.613281 0-15.675781 1.960938 5.382812 7.109376 5.972656 12.839844 5.972656v3.730469c-5.730468 0-10.878906.589844-12.839844 5.972656zm0 0"/></clipPath><clipPath id="z"><path d="m89 15h4v16h-4zm0 0"/></clipPath><clipPath id="A"><path d="m161.535156 30.207031c-1.714844-4.710937-1.714844-9.878906 0-14.59375-1.824218 5.015625-6.621094 5.433594-11.953125 5.433594v3.730469c5.332031 0 10.128907.417968 11.953125 5.429687zm-58.96875-5.429687h47.015625v-3.730469h-47.015625zm-12.839844 5.972656c1.84375-5.0625 1.84375-10.613281 0-15.675781 1.960938 5.382812 7.109376 5.972656 12.839844 5.972656v3.730469c-5.730468 0-10.878906.589844-12.839844 5.972656zm0 0"/></clipPath><clipPath id="B"><path d="m91.101562 15h68.898438v16h-68.898438zm0 0"/></clipPath><clipPath id="C"><path d="m161.535156 30.207031c-1.714844-4.710937-1.714844-9.878906 0-14.59375-1.824218 5.015625-6.621094 5.433594-11.953125 5.433594v3.730469c5.332031 0 10.128907.417968 11.953125 5.429687zm-58.96875-5.429687h47.015625v-3.730469h-47.015625zm-12.839844 5.972656c1.84375-5.0625 1.84375-10.613281 0-15.675781 1.960938 5.382812 7.109376 5.972656 12.839844 5.972656v3.730469c-5.730468 0-10.878906.589844-12.839844 5.972656zm0 0"/></clipPath><clipPath id="D"><path d="m147 35h30v21h-30zm0 0"/></clipPath><clipPath id="E"><path d="m176.535156 43.640625c-4.871094-1.1875-9.171875-4.054687-12.140625-8.097656 3.15625 4.300781.84375 8.523437-2.113281 12.960937l3.105469 2.070313c2.957031-4.4375 5.964843-8.195313 11.148437-6.933594zm-28.519531 32.992187 17.371094-26.058593-3.105469-2.070313-17.375 26.058594zm-2.234375 15.941407c-3.601562-4.902344-8.820312-8.382813-14.730469-9.820313 6.285157 1.53125 10.265625-2.808594 13.855469-8.191406l3.109375 2.070312c-3.589844 5.382813-6.066406 10.726563-2.234375 15.941407zm0 0"/></clipPath><clipPath id="F"><path d="m131 71h31v22h-31zm0 0"/></clipPath><clipPath id="G"><path d="m176.535156 43.640625c-4.871094-1.1875-9.171875-4.054687-12.140625-8.097656 3.15625 4.300781.84375 8.523437-2.113281 12.960937l3.105469 2.070313c2.957031-4.4375 5.964843-8.195313 11.148437-6.933594zm-28.519531 32.992187 17.371094-26.058593-3.105469-2.070313-17.375 26.058594zm-2.234375 15.941407c-3.601562-4.902344-8.820312-8.382813-14.730469-9.820313 6.285157 1.53125 10.265625-2.808594 13.855469-8.191406l3.109375 2.070312c-3.589844 5.382813-6.066406 10.726563-2.234375 15.941407zm0 0"/></clipPath><clipPath id="H"><path d="m131 35h46v58h-46zm0 0"/></clipPath><clipPath id="I"><path d="m176.535156 43.640625c-4.871094-1.1875-9.171875-4.054687-12.140625-8.097656 3.15625 4.300781.84375 8.523437-2.113281 12.960937l3.105469 2.070313c2.957031-4.4375 5.964843-8.195313 11.148437-6.933594zm-28.519531 32.992187 17.371094-26.058593-3.105469-2.070313-17.375 26.058594zm-2.234375 15.941407c-3.601562-4.902344-8.820312-8.382813-14.730469-9.820313 6.285157 1.53125 10.265625-2.808594 13.855469-8.191406l3.109375 2.070312c-3.589844 5.382813-6.066406 10.726563-2.234375 15.941407zm0 0"/></clipPath><clipPath id="J"><path d="m148.210938 26.304688-30.5 45.753906 43.074218 28.714844 30.503906-45.753907zm0 0"/></clipPath><clipPath id="K"><path d="m73 36h30v22h-30zm0 0"/></clipPath><clipPath id="L"><path d="m86.660156 36.480469c-3.191406 4.339843-7.808594 7.417969-13.042968 8.691406 5.566406-1.355469 8.796874 2.683594 11.976562 7.449219l3.335938-2.226563c-3.179688-4.765625-5.660157-9.300781-2.269532-13.914062zm18.351563 38.042969-16.082031-24.128907-3.335938 2.226563 16.082031 24.125zm13.742187 8.269531c-5.910156 1.4375-11.128906 4.917969-14.730468 9.820312 3.832031-5.214843 1.242187-10.480469-2.347657-15.867187l3.335938-2.222656c3.589843 5.382812 7.457031 9.800781 13.742187 8.269531zm0 0"/></clipPath><clipPath id="M"><path d="m88 71h31v22h-31zm0 0"/></clipPath><clipPath id="N"><path d="m86.660156 36.480469c-3.191406 4.339843-7.808594 7.417969-13.042968 8.691406 5.566406-1.355469 8.796874 2.683594 11.976562 7.449219l3.335938-2.226563c-3.179688-4.765625-5.660157-9.300781-2.269532-13.914062zm18.351563 38.042969-16.082031-24.128907-3.335938 2.226563 16.082031 24.125zm13.742187 8.269531c-5.910156 1.4375-11.128906 4.917969-14.730468 9.820312 3.832031-5.214843 1.242187-10.480469-2.347657-15.867187l3.335938-2.222656c3.589843 5.382812 7.457031 9.800781 13.742187 8.269531zm0 0"/></clipPath><clipPath id="O"><path d="m73 36h46v57h-46zm0 0"/></clipPath><clipPath id="P"><path d="m86.660156 36.480469c-3.191406 4.339843-7.808594 7.417969-13.042968 8.691406 5.566406-1.355469 8.796874 2.683594 11.976562 7.449219l3.335938-2.226563c-3.179688-4.765625-5.660157-9.300781-2.269532-13.914062zm18.351563 38.042969-16.082031-24.128907-3.335938 2.226563 16.082031 24.125zm13.742187 8.269531c-5.910156 1.4375-11.128906 4.917969-14.730468 9.820312 3.832031-5.214843 1.242187-10.480469-2.347657-15.867187l3.335938-2.222656c3.589843 5.382812 7.457031 9.800781 13.742187 8.269531zm0 0"/></clipPath><clipPath id="Q"><path d="m59.367188 56.335938 29.625 44.441406 43.078124-28.71875-29.625-44.441406zm0 0"/></clipPath><symbol id="R" overflow="visible"><path d="m1.359375-.78125c0 .359375-.03125.46875-.796875.46875h-.234375v.3125h5.75l.421875-2.578125h-.25c-.25 1.546875-.484375 2.265625-2.1875 2.265625h-1.328125c-.46875 0-.484375-.0625-.484375-.390625v-2.671875h.890625c.96875 0 1.078125.328125 1.078125 1.171875h.25v-2.640625h-.25c0 .859375-.109375 1.171875-1.078125 1.171875h-.890625v-2.40625c0-.328125.015625-.390625.484375-.390625h1.28125c1.53125 0 1.796875.546875 1.953125 1.9375h.25l-.28125-2.25h-5.609375v.3125h.234375c.765625 0 .796875.109375.796875.46875zm0 0"/></symbol><symbol id="S" overflow="visible"><path d="m1.09375-3.421875v2.671875c0 .4375-.109375.4375-.78125.4375v.3125c.359375-.015625.859375-.03125 1.140625-.03125.25 0 .765625.015625 1.109375.03125v-.3125c-.671875 0-.78125 0-.78125-.4375v-1.84375c0-1.03125.71875-1.59375 1.34375-1.59375.640625 0 .75.53125.75 1.109375v2.328125c0 .4375-.109375.4375-.78125.4375v.3125c.34375-.015625.859375-.03125 1.125-.03125.25 0 .78125.015625 1.109375.03125v-.3125c-.515625 0-.765625 0-.765625-.296875v-1.90625c0-.859375 0-1.15625-.3125-1.515625-.140625-.171875-.46875-.375-1.046875-.375-.734375 0-1.203125.421875-1.484375 1.046875v-1.046875l-1.40625.109375v.3125c.703125 0 .78125.0625.78125.5625zm0 0"/></symbol><symbol id="T" overflow="visible"><path d="m1.109375-2.515625c.0625-1.484375.90625-1.734375 1.25-1.734375 1.015625 0 1.125 1.34375 1.125 1.734375zm0 .21875h2.78125c.21875 0 .25 0 .25-.21875 0-.984375-.546875-1.953125-1.78125-1.953125-1.15625 0-2.078125 1.03125-2.078125 2.28125 0 1.328125 1.046875 2.296875 2.1875 2.296875 1.21875 0 1.671875-1.109375 1.671875-1.296875 0-.09375-.078125-.125-.140625-.125-.078125 0-.109375.0625-.125.140625-.34375 1.03125-1.25 1.03125-1.34375 1.03125-.5 0-.890625-.296875-1.125-.671875-.296875-.46875-.296875-1.125-.296875-1.484375zm0 0"/></symbol><symbol id="U" overflow="visible"><path d="m1.671875-3.3125v-1.09375l-1.390625.109375v.3125c.703125 0 .78125.0625.78125.5625v2.671875c0 .4375-.109375.4375-.78125.4375v.3125c.390625-.015625.859375-.03125 1.140625-.03125.390625 0 .859375 0 1.265625.03125v-.3125h-.21875c-.734375 0-.75-.109375-.75-.46875v-1.53125c0-.984375.421875-1.875 1.171875-1.875.0625 0 .09375 0 .109375.015625-.03125 0-.234375.125-.234375.390625s.21875.421875.4375.421875c.171875 0 .421875-.125.421875-.4375s-.3125-.609375-.734375-.609375c-.734375 0-1.09375.671875-1.21875 1.09375zm0 0"/></symbol><symbol id="V" overflow="visible"><path d="m2.21875-1.71875c-.875 0-.875-1-.875-1.21875 0-.265625.015625-.59375.15625-.84375.078125-.109375.3125-.390625.71875-.390625.859375 0 .859375.984375.859375 1.21875 0 .265625 0 .59375-.15625.84375-.078125.109375-.3125.390625-.703125.390625zm-1.15625.390625c0-.03125 0-.265625.15625-.46875.390625.28125.8125.3125 1 .3125.921875 0 1.609375-.6875 1.609375-1.453125 0-.375-.15625-.734375-.40625-.96875.359375-.34375.71875-.390625.890625-.390625.03125 0 .078125 0 .109375.015625-.109375.03125-.171875.140625-.171875.265625 0 .171875.140625.28125.296875.28125.09375 0 .28125-.0625.28125-.296875 0-.171875-.109375-.484375-.5-.484375-.203125 0-.640625.0625-1.0625.46875-.421875-.328125-.828125-.359375-1.046875-.359375-.9375 0-1.625.6875-1.625 1.453125 0 .4375.21875.8125.46875 1.03125-.125.140625-.3125.46875-.3125.828125 0 .3125.140625.6875.453125.890625-.609375.15625-.921875.59375-.921875.984375 0 .71875.984375 1.265625 2.203125 1.265625 1.171875 0 2.203125-.5 2.203125-1.28125 0-.34375-.125-.859375-.640625-1.140625-.53125-.265625-1.109375-.265625-1.71875-.265625-.25 0-.671875 0-.75-.015625-.3125-.046875-.515625-.34375-.515625-.671875zm1.4375 3.15625c-1.015625 0-1.703125-.515625-1.703125-1.046875 0-.453125.375-.828125.8125-.84375h.59375c.859375 0 1.96875 0 1.96875.84375 0 .546875-.703125 1.046875-1.671875 1.046875zm0 0"/></symbol><symbol id="W" overflow="visible"><path d="m1.765625-4.40625-1.390625.109375v.3125c.640625 0 .734375.0625.734375.546875v2.6875c0 .4375-.109375.4375-.78125.4375v.3125c.3125-.015625.859375-.03125 1.09375-.03125.359375 0 .703125.015625 1.046875.03125v-.3125c-.671875 0-.703125-.046875-.703125-.4375zm.03125-1.734375c0-.3125-.234375-.53125-.515625-.53125-.3125 0-.53125.265625-.53125.53125s.21875.53125.53125.53125c.28125 0 .515625-.21875.515625-.53125zm0 0"/></symbol><symbol id="X" overflow="visible"><path d="m3.984375-4.171875 1.796875-1.734375c.078125-.078125.609375-.578125 1.421875-.59375v-.3125c-.265625.03125-.578125.03125-.859375.03125-.359375 0-.921875 0-1.265625-.03125v.3125c.40625.015625.46875.234375.46875.328125 0 .15625-.109375.265625-.1875.328125l-3.109375 2.984375v-3.171875c0-.359375.015625-.46875.78125-.46875h.234375v-.3125c-.34375.03125-1.078125.03125-1.46875.03125-.375 0-1.125 0-1.46875-.03125v.3125h.234375c.765625 0 .796875.109375.796875.46875v5.25c0 .359375-.03125.46875-.796875.46875h-.234375v.3125c.34375-.03125 1.09375-.03125 1.46875-.03125s1.125 0 1.46875.03125v-.3125h-.234375c-.765625 0-.78125-.109375-.78125-.46875v-1.734375l1.15625-1.109375 1.796875 2.671875c.0625.09375.15625.21875.15625.34375 0 .296875-.390625.296875-.59375.296875v.3125c.34375-.03125 1.046875-.03125 1.421875-.03125.359375 0 .734375.015625 1.15625.03125v-.3125c-.546875 0-.75-.03125-1.046875-.46875zm0 0"/></symbol><symbol id="Y" overflow="visible"><path d="m4.6875-2.140625c0-1.265625-.984375-2.328125-2.1875-2.328125-1.25 0-2.21875 1.09375-2.21875 2.328125 0 1.296875 1.03125 2.25 2.203125 2.25 1.203125 0 2.203125-.984375 2.203125-2.25zm-2.1875 2c-.4375 0-.875-.203125-1.140625-.671875-.25-.4375-.25-1.046875-.25-1.40625 0-.390625 0-.921875.234375-1.359375.265625-.453125.734375-.671875 1.140625-.671875.4375 0 .859375.21875 1.125.65625.265625.421875.265625 1 .265625 1.375 0 .359375 0 .90625-.21875 1.34375-.234375.453125-.671875.734375-1.15625.734375zm0 0"/></symbol><symbol id="Z" overflow="visible"><path d="m1.09375-3.421875v2.671875c0 .4375-.109375.4375-.78125.4375v.3125c.359375-.015625.859375-.03125 1.140625-.03125.25 0 .765625.015625 1.109375.03125v-.3125c-.671875 0-.78125 0-.78125-.4375v-1.84375c0-1.03125.71875-1.59375 1.34375-1.59375.640625 0 .75.53125.75 1.109375v2.328125c0 .4375-.109375.4375-.78125.4375v.3125c.34375-.015625.859375-.03125 1.125-.03125.25 0 .78125.015625 1.109375.03125v-.3125c-.65625 0-.765625 0-.765625-.4375v-1.84375c0-1.03125.703125-1.59375 1.34375-1.59375.625 0 .734375.53125.734375 1.109375v2.328125c0 .4375-.109375.4375-.78125.4375v.3125c.34375-.015625.859375-.03125 1.125-.03125s.78125.015625 1.125.03125v-.3125c-.515625 0-.765625 0-.78125-.296875v-1.90625c0-.859375 0-1.15625-.3125-1.515625-.140625-.171875-.46875-.375-1.046875-.375-.828125 0-1.28125.59375-1.4375.984375-.140625-.875-.875-.984375-1.328125-.984375-.734375 0-1.203125.421875-1.484375 1.046875v-1.046875l-1.40625.109375v.3125c.703125 0 .78125.0625.78125.5625zm0 0"/></symbol><symbol id="aa" overflow="visible"><path d="m1.75-4.296875v-1.15625c0-.875.46875-1.359375.90625-1.359375.03125 0 .1875 0 .328125.078125-.109375.03125-.296875.171875-.296875.421875 0 .21875.15625.421875.4375.421875s.4375-.203125.4375-.4375c0-.375-.375-.703125-.90625-.703125-.6875 0-1.546875.53125-1.546875 1.59375v1.140625h-.78125v.3125h.78125v3.234375c0 .4375-.109375.4375-.765625.4375v.3125c.390625-.015625.859375-.03125 1.125-.03125.40625 0 .875 0 1.265625.03125v-.3125h-.203125c-.734375 0-.75-.109375-.75-.46875v-3.203125h1.125v-.3125zm0 0"/></symbol><symbol id="ab" overflow="visible"><path d="m1.71875-3.984375h1.4375v-.3125h-1.4375v-1.828125h-.25c0 .8125-.296875 1.875-1.28125 1.921875v.21875h.84375v2.75c0 1.21875.9375 1.34375 1.296875 1.34375.703125 0 .984375-.703125.984375-1.34375v-.5625h-.25v.546875c0 .734375-.296875 1.109375-.671875 1.109375-.671875 0-.671875-.90625-.671875-1.078125zm0 0"/></symbol><symbol id="ac" overflow="visible"><path d="m3.484375-3.875-1.28125-.296875c-.625-.15625-1-.6875-1-1.265625 0-.703125.53125-1.3125 1.3125-1.3125 1.65625 0 1.875 1.640625 1.9375 2.078125.015625.0625.015625.125.125.125.125 0 .125-.046875.125-.234375v-2c0-.171875 0-.25-.109375-.25-.0625 0-.078125.015625-.140625.140625l-.359375.5625c-.296875-.296875-.703125-.703125-1.59375-.703125-1.109375 0-1.9375.875-1.9375 1.9375 0 .828125.53125 1.5625 1.296875 1.828125.109375.03125.625.15625 1.328125.328125.265625.0625.5625.140625.84375.5.203125.265625.3125.59375.3125.921875 0 .703125-.5 1.421875-1.34375 1.421875-.28125 0-1.046875-.046875-1.578125-.53125-.578125-.546875-.609375-1.171875-.609375-1.53125-.015625-.109375-.09375-.109375-.125-.109375-.125 0-.125.078125-.125.25v2c0 .171875 0 .234375.109375.234375.0625 0 .078125-.015625.140625-.125 0-.015625.03125-.046875.359375-.578125.3125.34375.953125.703125 1.84375.703125 1.15625 0 1.953125-.96875 1.953125-2.078125 0-.984375-.65625-1.8125-1.484375-2.015625zm0 0"/></symbol><symbol id="ad" overflow="visible"><path d="m1.171875-2.171875c0-1.625.8125-2.046875 1.34375-2.046875.09375 0 .71875.015625 1.0625.375-.40625.03125-.46875.328125-.46875.453125 0 .265625.1875.453125.453125.453125s.46875-.15625.46875-.46875c0-.671875-.765625-1.0625-1.53125-1.0625-1.25 0-2.15625 1.078125-2.15625 2.3125 0 1.28125.984375 2.265625 2.140625 2.265625 1.328125 0 1.65625-1.203125 1.65625-1.296875s-.109375-.09375-.140625-.09375c-.078125 0-.109375.03125-.125.09375-.28125.921875-.9375 1.046875-1.296875 1.046875-.53125 0-1.40625-.421875-1.40625-2.03125zm0 0"/></symbol><symbol id="ae" overflow="visible"><path d="m1.09375-.75c0 .4375-.109375.4375-.78125.4375v.3125c.359375-.015625.859375-.03125 1.140625-.03125.25 0 .765625.015625 1.109375.03125v-.3125c-.671875 0-.78125 0-.78125-.4375v-1.84375c0-1.03125.71875-1.59375 1.34375-1.59375.640625 0 .75.53125.75 1.109375v2.328125c0 .4375-.109375.4375-.78125.4375v.3125c.34375-.015625.859375-.03125 1.125-.03125.25 0 .78125.015625 1.109375.03125v-.3125c-.515625 0-.765625 0-.765625-.296875v-1.90625c0-.859375 0-1.15625-.3125-1.515625-.140625-.171875-.46875-.375-1.046875-.375-.84375 0-1.28125.59375-1.453125.984375v-3.5l-1.4375.109375v.3125c.703125 0 .78125.0625.78125.5625zm0 0"/></symbol><symbol id="af" overflow="visible"><path d="m1.71875-3.75v-.65625l-1.4375.109375v.3125c.703125 0 .78125.0625.78125.5v4.65625c0 .453125-.109375.453125-.78125.453125v.3125c.34375-.015625.859375-.03125 1.109375-.03125.28125 0 .78125.015625 1.125.03125v-.3125c-.65625 0-.765625 0-.765625-.453125v-1.765625c.046875.171875.46875.703125 1.21875.703125 1.1875 0 2.21875-.984375 2.21875-2.265625 0-1.265625-.953125-2.25-2.078125-2.25-.78125 0-1.203125.4375-1.390625.65625zm.03125 2.609375v-2.21875c.28125-.515625.765625-.796875 1.28125-.796875.734375 0 1.328125.875 1.328125 2 0 1.203125-.6875 2.046875-1.421875 2.046875-.40625 0-.78125-.203125-1.046875-.609375-.140625-.203125-.140625-.21875-.140625-.421875zm0 0"/></symbol><symbol id="ag" overflow="visible"><path d="m2.078125-1.9375c.21875.046875 1.03125.203125 1.03125.921875 0 .5-.34375.90625-1.125.90625-.84375 0-1.203125-.5625-1.390625-1.421875-.03125-.125-.03125-.15625-.140625-.15625-.125 0-.125.0625-.125.234375v1.328125c0 .171875 0 .234375.109375.234375.046875 0 .0625-.015625.25-.203125.015625-.015625.015625-.03125.203125-.21875.4375.40625.890625.421875 1.09375.421875 1.140625 0 1.609375-.671875 1.609375-1.390625 0-.515625-.296875-.828125-.421875-.9375-.328125-.328125-.71875-.40625-1.140625-.484375-.5625-.109375-1.21875-.234375-1.21875-.8125 0-.359375.25-.765625 1.109375-.765625 1.09375 0 1.15625.90625 1.171875 1.203125 0 .09375.09375.09375.109375.09375.140625 0 .140625-.046875.140625-.234375v-1.015625c0-.15625 0-.234375-.109375-.234375-.046875 0-.078125 0-.203125.125-.03125.03125-.125.125-.171875.15625-.375-.28125-.78125-.28125-.9375-.28125-1.21875 0-1.59375.671875-1.59375 1.234375 0 .34375.15625.625.421875.84375.328125.25.609375.3125 1.328125.453125zm0 0"/></symbol><symbol id="ah" overflow="visible"><path d="m1.90625-.53125c0-.28125-.234375-.53125-.515625-.53125-.296875 0-.53125.25-.53125.53125 0 .296875.234375.53125.53125.53125.28125 0 .515625-.234375.515625-.53125zm0 0"/></symbol><symbol id="ai" overflow="visible"><path d="m2.265625-3.15625h1.6875c1.1875 0 2.265625-.796875 2.265625-1.796875 0-.984375-.984375-1.859375-2.34375-1.859375h-3.53125v.3125h.25c.765625 0 .78125.109375.78125.46875v5.25c0 .359375-.015625.46875-.78125.46875h-.25v.3125c.359375-.03125 1.09375-.03125 1.46875-.03125s1.125 0 1.484375.03125v-.3125h-.25c-.765625 0-.78125-.109375-.78125-.46875zm-.03125-.25v-2.6875c0-.34375.015625-.40625.484375-.40625h.890625c1.578125 0 1.578125 1.0625 1.578125 1.546875 0 .46875 0 1.546875-1.578125 1.546875zm0 0"/></symbol><symbol id="aj" overflow="visible"><path d="m2.03125-6.171875c0-.234375-.203125-.5-.5-.5-.28125 0-.5.21875-.5.5s.21875.5.5.5c.296875 0 .5-.265625.5-.5zm1.921875 0c0-.28125-.21875-.5-.5-.5-.296875 0-.5.265625-.5.5s.203125.5.5.5c.28125 0 .5-.21875.5-.5zm0 0"/></symbol><symbol id="ak" overflow="visible"><path d="m3.3125-.75c.046875.390625.3125.8125.78125.8125.21875 0 .828125-.140625.828125-.953125v-.5625h-.25v.5625c0 .578125-.25.640625-.359375.640625-.328125 0-.375-.453125-.375-.5v-1.984375c0-.421875 0-.8125-.359375-1.1875-.390625-.390625-.890625-.546875-1.359375-.546875-.828125 0-1.515625.46875-1.515625 1.125 0 .296875.203125.46875.46875.46875.28125 0 .453125-.203125.453125-.453125 0-.125-.046875-.453125-.515625-.453125.28125-.359375.765625-.46875 1.078125-.46875.5 0 1.0625.390625 1.0625 1.28125v.359375c-.515625.03125-1.203125.0625-1.828125.359375-.75.34375-1 .859375-1 1.296875 0 .8125.96875 1.0625 1.59375 1.0625.65625 0 1.109375-.40625 1.296875-.859375zm-.0625-1.640625v1c0 .9375-.71875 1.28125-1.171875 1.28125-.484375 0-.890625-.34375-.890625-.84375 0-.546875.421875-1.375 2.0625-1.4375zm0 0"/></symbol><symbol id="al" overflow="visible"><path d="m3.296875-3.984375c.453125 0 .515625.125.515625.53125v2.703125c0 .4375-.109375.4375-.765625.4375v.3125c.328125-.015625.84375-.03125 1.09375-.03125s.75.015625 1.109375.03125v-.3125c-.671875 0-.78125 0-.78125-.4375v-3.671875l-1.25.09375c-.15625.015625-.171875.015625-.171875.015625-.03125.015625-.046875.015625-.1875.015625h-1.171875v-1.125c0-.984375.859375-1.390625 1.46875-1.390625.296875 0 .65625.109375.859375.328125-.40625.03125-.46875.296875-.46875.46875 0 .328125.265625.453125.453125.453125.234375 0 .453125-.15625.453125-.453125 0-.59375-.546875-1.015625-1.28125-1.015625-.921875 0-2.109375.515625-2.109375 1.59375v1.140625h-.796875v.3125h.796875v3.234375c0 .4375-.109375.4375-.78125.4375v.3125c.328125-.015625.859375-.03125 1.109375-.03125s.734375.015625 1.109375.03125v-.3125c-.671875 0-.78125 0-.78125-.4375v-3.234375zm0 0"/></symbol><symbol id="am" overflow="visible"><path d="m3.890625-4c.09375-.109375.09375-.125.09375-.171875 0-.125-.09375-.125-.265625-.125h-3.1875l-.109375 1.609375h.25c.0625-1.015625.25-1.390625 1.34375-1.390625h1.140625l-2.78125 3.765625c-.09375.109375-.09375.125-.09375.171875 0 .140625.0625.140625.25.140625h3.296875l.171875-1.859375h-.25c-.09375 1.171875-.296875 1.609375-1.453125 1.609375h-1.1875zm0 0"/></symbol><symbol id="an" overflow="visible"><path d="m2.40625-6.59375c-.09375-.21875-.125-.21875-.359375-.21875h-1.671875v.3125h.234375c.765625 0 .78125.109375.78125.46875v4.984375c0 .265625 0 .734375-1.015625.734375v.3125c.34375-.015625.828125-.03125 1.15625-.03125s.828125.015625 1.171875.03125v-.3125c-1.03125 0-1.03125-.46875-1.03125-.734375v-5.375h.015625l2.40625 6.203125c.046875.125.09375.21875.1875.21875.109375 0 .140625-.078125.1875-.1875l2.453125-6.3125v5.71875c0 .359375-.015625.46875-.78125.46875h-.234375v.3125c.359375-.03125 1.046875-.03125 1.4375-.03125.375 0 1.046875 0 1.421875.03125v-.3125h-.25c-.765625 0-.78125-.109375-.78125-.46875v-5.25c0-.359375.015625-.46875.78125-.46875h.25v-.3125h-1.6875c-.265625 0-.265625.015625-.328125.1875l-2.1875 5.625zm0 0"/></symbol><symbol id="ao" overflow="visible"><path d="m1.765625-6.921875-1.4375.109375v.3125c.703125 0 .78125.0625.78125.5625v5.1875c0 .4375-.109375.4375-.78125.4375v.3125c.328125-.015625.859375-.03125 1.109375-.03125s.734375.015625 1.109375.03125v-.3125c-.671875 0-.78125 0-.78125-.4375zm0 0"/></symbol><symbol id="ap" overflow="visible"><path d="m7.09375-4.046875c.09375-.25.265625-.46875.71875-.46875v-.25c-.0625.015625-.453125.03125-.65625.03125-.28125 0-.578125-.015625-.875-.03125v.25c.390625.015625.578125.1875.578125.359375 0 .03125 0 .046875-.03125.140625l-1.15625 3.21875-1.21875-3.421875c-.015625-.078125-.015625-.09375-.015625-.09375 0-.203125.390625-.203125.578125-.203125v-.25c-.359375.015625-.796875.03125-1.046875.03125-.28125 0-.5625 0-.84375-.03125v.25c.359375 0 .484375.015625.5625.109375.046875.0625.140625.3125.1875.46875l-1.109375 3.140625-1.21875-3.390625c-.03125-.09375-.03125-.109375-.03125-.125 0-.203125.390625-.203125.578125-.203125v-.25c-.359375.015625-.796875.03125-1.046875.03125-.28125 0-.5625 0-.84375-.03125v.25c.4375 0 .5625 0 .640625.265625l1.515625 4.234375c.046875.109375.078125.15625.1875.15625.125 0 .15625-.078125.1875-.15625l1.265625-3.5625 1.28125 3.5625c.03125.078125.0625.15625.1875.15625.109375 0 .140625-.046875.1875-.15625zm0 0"/></symbol><symbol id="aq" overflow="visible"><path d="m3.109375-1.875c0-.359375 0-.625-.328125-.890625-.28125-.234375-.609375-.34375-1.03125-.34375-.65625 0-1.125.25-1.125.671875 0 .234375.15625.34375.34375.34375s.328125-.140625.328125-.328125c0-.109375-.0625-.265625-.25-.3125.25-.171875.65625-.171875.6875-.171875.390625 0 .828125.25.828125.84375v.203125c-.390625.015625-.84375.046875-1.359375.234375-.625.21875-.8125.609375-.8125.921875 0 .59375.71875.765625 1.21875.765625.546875 0 .875-.3125 1.03125-.578125.015625.28125.203125.546875.53125.546875.015625 0 .6875 0 .6875-.65625v-.390625h-.234375v.375c0 .078125 0 .40625-.265625.40625-.25 0-.25-.328125-.25-.40625zm-.546875.890625c0 .671875-.59375.859375-.90625.859375-.359375 0-.6875-.234375-.6875-.578125 0-.390625.328125-.921875 1.59375-.96875zm0 0"/></symbol><symbol id="ar" overflow="visible"><path d="m2.640625-2.921875c0-.125 0-.1875-.09375-.1875-.03125 0-.046875 0-.140625.078125-.015625.015625-.078125.078125-.125.109375-.21875-.140625-.46875-.1875-.734375-.1875-1 0-1.234375.53125-1.234375.875 0 .21875.09375.40625.265625.546875.265625.21875.53125.265625.96875.34375.34375.0625.90625.15625.90625.625 0 .265625-.1875.59375-.859375.59375s-.90625-.4375-1.03125-.90625c-.03125-.09375-.03125-.125-.125-.125-.125 0-.125.046875-.125.1875v.859375c0 .109375 0 .171875.09375.171875.0625 0 .203125-.140625.34375-.296875.296875.296875.671875.296875.84375.296875.90625 0 1.25-.484375 1.25-.96875 0-.265625-.125-.484375-.3125-.640625-.265625-.25-.578125-.3125-.828125-.34375-.546875-.109375-1-.1875-1-.5625 0-.21875.1875-.484375.84375-.484375.8125 0 .84375.5625.859375.765625 0 .078125.09375.078125.109375.078125.125 0 .125-.046875.125-.1875zm0 0"/></symbol><symbol id="as" overflow="visible"><path d="m2.703125-2.78125c-.125.0625-.1875.171875-.1875.3125 0 .1875.125.328125.328125.328125.1875 0 .328125-.125.328125-.34375 0-.625-.96875-.625-1.15625-.625-1.046875 0-1.6875.796875-1.6875 1.609375 0 .875.734375 1.5625 1.65625 1.5625 1.03125 0 1.28125-.8125 1.28125-.90625 0-.078125-.09375-.078125-.125-.078125-.09375 0-.09375.015625-.125.125-.15625.421875-.53125.640625-.953125.640625-.484375 0-1.109375-.359375-1.109375-1.359375 0-.875.4375-1.375 1.078125-1.375.09375 0 .421875 0 .671875.109375zm0 0"/></symbol><symbol id="at" overflow="visible"><path d="m3.59375-2.109375c0-.609375-.296875-.96875-1.046875-.96875-.625 0-.96875.375-1.125.640625v-2.40625l-1.046875.078125v.25c.46875 0 .53125.0625.53125.390625v3.578125c0 .296875-.078125.296875-.53125.296875v.25c.015625 0 .5-.03125.796875-.03125.25 0 .734375.03125.796875.03125v-.25c-.453125 0-.515625 0-.515625-.296875v-1.265625c0-.71875.578125-1.0625 1.03125-1.0625.484375 0 .546875.375.546875.734375v1.59375c0 .296875-.0625.296875-.515625.296875v.25c.015625 0 .5-.03125.796875-.03125.25 0 .734375.03125.796875.03125v-.25c-.453125 0-.515625 0-.515625-.296875zm0 0"/></symbol><symbol id="au" overflow="visible"><path d="m5.734375-2.109375c0-.609375-.3125-.96875-1.046875-.96875-.5625 0-.9375.296875-1.125.65625-.140625-.5-.515625-.65625-1.015625-.65625-.578125 0-.9375.3125-1.140625.6875v-.6875l-1.03125.078125v.25c.46875 0 .53125.046875.53125.390625v1.8125c0 .296875-.078125.296875-.53125.296875v.25c.015625 0 .5-.03125.796875-.03125.25 0 .734375.03125.796875.03125v-.25c-.453125 0-.515625 0-.515625-.296875v-1.265625c0-.71875.578125-1.0625 1.03125-1.0625.484375 0 .546875.375.546875.734375v1.59375c0 .296875-.0625.296875-.515625.296875v.25c.015625 0 .5-.03125.796875-.03125.25 0 .734375.03125.796875.03125v-.25c-.453125 0-.515625 0-.515625-.296875v-1.265625c0-.71875.578125-1.0625 1.03125-1.0625.484375 0 .546875.375.546875.734375v1.59375c0 .296875-.0625.296875-.515625.296875v.25c.015625 0 .5-.03125.796875-.03125.25 0 .734375.03125.796875.03125v-.25c-.453125 0-.515625 0-.515625-.296875zm0 0"/></symbol><symbol id="av" overflow="visible"><path d="m1.46875-4.296875c0-.203125-.171875-.40625-.40625-.40625-.203125 0-.390625.171875-.390625.40625 0 .25.203125.40625.390625.40625.234375 0 .40625-.171875.40625-.40625zm-1.0625 1.296875v.25c.4375 0 .5.046875.5.390625v1.8125c0 .296875-.0625.296875-.515625.296875v.25c.015625 0 .5-.03125.78125-.03125.25 0 .5.015625.734375.03125v-.25c-.40625 0-.46875 0-.46875-.296875v-2.53125zm0 0"/></symbol><symbol id="aw" overflow="visible"><path d="m3.59375-2.109375c0-.609375-.296875-.96875-1.046875-.96875-.578125 0-.9375.3125-1.140625.6875v-.6875l-1.03125.078125v.25c.46875 0 .53125.046875.53125.390625v1.8125c0 .296875-.078125.296875-.53125.296875v.25c.015625 0 .5-.03125.796875-.03125.25 0 .734375.03125.796875.03125v-.25c-.453125 0-.515625 0-.515625-.296875v-1.265625c0-.71875.578125-1.0625 1.03125-1.0625.484375 0 .546875.375.546875.734375v1.59375c0 .296875-.0625.296875-.515625.296875v.25c.015625 0 .5-.03125.796875-.03125.25 0 .734375.03125.796875.03125v-.25c-.453125 0-.515625 0-.515625-.296875zm0 0"/></symbol><symbol id="ax" overflow="visible"><path d="m3.0625-1.59375c.15625 0 .203125 0 .203125-.140625 0-.625-.34375-1.375-1.390625-1.375-.90625 0-1.609375.71875-1.609375 1.578125 0 .890625.78125 1.59375 1.703125 1.59375.9375 0 1.296875-.75 1.296875-.90625 0-.015625-.015625-.09375-.125-.09375-.09375 0-.109375.046875-.125.109375-.21875.5625-.75.671875-1 .671875-.328125 0-.640625-.140625-.84375-.40625-.265625-.328125-.265625-.75-.265625-1.03125zm-2.15625-.171875c.078125-.984375.703125-1.140625.96875-1.140625.859375 0 .890625.96875.90625 1.140625zm0 0"/></symbol><symbol id="ay" overflow="visible"><path d="m4.859375-4.046875c.09375-.21875.265625-.453125.796875-.46875v-.25c-.203125.03125-.484375.03125-.6875.03125-.265625 0-.78125-.03125-.828125-.03125v.25c.25 0 .484375.125.484375.328125 0 .0625-.015625.109375-.046875.15625l-1.4375 3.359375-1.5-3.53125c-.046875-.078125-.046875-.09375-.046875-.125 0-.1875.359375-.1875.546875-.1875v-.25c-.34375.015625-.78125.03125-1.03125.03125-.34375 0-.875-.03125-.890625-.03125v.25h.109375c.375 0 .5.046875.59375.25l1.8125 4.25c.046875.109375.0625.15625.203125.15625.0625 0 .140625 0 .203125-.140625zm0 0"/></symbol><symbol id="az" overflow="visible"><path d="m1.390625-1.59375c0-.578125.265625-1.28125.9375-1.28125-.0625.046875-.125.140625-.125.25 0 .234375.1875.3125.3125.3125.171875 0 .328125-.109375.328125-.3125 0-.234375-.234375-.453125-.5625-.453125-.34375 0-.734375.21875-.9375.75v-.75l-1 .078125v.25c.46875 0 .515625.046875.515625.390625v1.8125c0 .296875-.0625.296875-.515625.296875v.25c.03125 0 .5-.03125.796875-.03125s.59375.015625.90625.03125v-.25h-.140625c-.515625 0-.515625-.078125-.515625-.3125zm0 0"/></symbol><symbol id="aA" overflow="visible"><path d="m1.40625-2.75h1.078125v-.25h-1.078125v-1.28125h-.25c0 .625-.28125 1.3125-.953125 1.328125v.203125h.640625v1.875c0 .78125.59375.9375.984375.9375.46875 0 .78125-.390625.78125-.9375v-.390625h-.234375v.375c0 .484375-.21875.734375-.5.734375-.46875 0-.46875-.578125-.46875-.703125zm0 0"/></symbol><symbol id="aB" overflow="visible"><path d="m1.734375-2.90625c-.609375-.140625-.796875-.578125-.796875-.875 0-.453125.421875-.890625 1.0625-.890625.9375 0 1.34375.625 1.453125 1.359375.015625.09375.015625.140625.125.140625s.109375-.046875.109375-.1875v-1.359375c0-.125 0-.1875-.09375-.1875-.046875 0-.0625.03125-.109375.109375l-.265625.390625c-.453125-.46875-1.03125-.5-1.21875-.5-.890625 0-1.515625.640625-1.515625 1.34375 0 .390625.171875.6875.421875.921875.28125.265625.515625.3125 1.265625.484375.640625.140625.78125.171875.984375.359375.15625.171875.296875.390625.296875.703125 0 .484375-.40625.984375-1.0625.984375-.6875 0-1.609375-.265625-1.671875-1.3125 0-.125 0-.15625-.109375-.15625-.125 0-.125.046875-.125.1875v1.34375c0 .125 0 .1875.09375.1875.0625 0 .078125-.015625.125-.078125.0625-.09375.203125-.3125.25-.40625.4375.390625.984375.484375 1.4375.484375.90625 0 1.515625-.6875 1.515625-1.4375 0-.625-.4375-1.21875-1.140625-1.375zm0 0"/></symbol><symbol id="aC" overflow="visible"><path d="m4.53125-1.828125h-.234375c-.078125.671875-.171875 1.578125-1.5 1.578125h-.6875c-.328125 0-.34375-.0625-.34375-.265625v-3.671875c0-.234375 0-.328125.65625-.328125h.25v-.25c-.15625.015625-1.046875.03125-1.21875.03125-.265625 0-1.0625-.03125-1.0625-.03125v.25h.171875c.53125 0 .546875.078125.546875.328125v3.625c0 .234375-.015625.3125-.546875.3125h-.171875v.25h3.9375zm0 0"/></symbol><symbol id="aD" overflow="visible"><path d="m3.6875-1.484375c0-.875-.75-1.625-1.703125-1.625-.96875 0-1.71875.75-1.71875 1.625 0 .859375.765625 1.546875 1.71875 1.546875.9375 0 1.703125-.6875 1.703125-1.546875zm-1.703125 1.328125c-.265625 0-.640625-.078125-.875-.421875-.1875-.28125-.203125-.640625-.203125-.96875 0-.296875 0-.71875.25-1.015625.171875-.203125.46875-.34375.828125-.34375.40625 0 .703125.1875.859375.40625.1875.265625.203125.625.203125.953125s-.015625.703125-.21875.984375c-.1875.265625-.5.40625-.84375.40625zm0 0"/></symbol><symbol id="aE" overflow="visible"><path d="m2.25-1.890625c.859375-.65625 1.09375-.84375 1.5625-.859375v-.25c-.140625.015625-.328125.03125-.46875.03125-.28125 0-.5625-.015625-.828125-.03125v.25c.078125.015625.125.0625.125.125 0 .109375-.140625.234375-.21875.296875l-1.03125.796875v-3.3125l-1.046875.078125v.25c.46875 0 .515625.0625.515625.390625v3.578125c0 .296875-.0625.296875-.515625.296875v.25c.25-.015625.515625-.03125.765625-.03125.265625 0 .515625.015625.78125.03125v-.25c-.453125 0-.53125 0-.53125-.296875v-.671875l.515625-.390625.75.953125c.078125.078125.15625.1875.15625.28125 0 .109375-.125.125-.1875.125v.25c.09375 0 .578125-.03125.78125-.03125s.40625.015625.609375.03125v-.25c-.25 0-.40625-.015625-.609375-.265625zm0 0"/></symbol><symbol id="aF" overflow="visible"><path d="m19.375-30.140625c-1-2.140625-3.78125-5.53125-8.3125-5.53125-5.828125 0-8.328125 5.09375-8.328125 11.3125 0 4.640625 1.890625 9.359375 9.171875 16.296875 1.09375.984375 2.734375 2.53125 3.140625 3.03125 1.390625 1.640625 2.34375 3.28125 3.234375 5.578125.25.65625.453125 1.09375 1.09375 1.09375.703125 0 .90625-.546875 1-.84375 1.6875-4.234375 3.234375-5.828125 4.78125-7.265625 5.421875-5.1875 10.859375-10.421875 10.859375-17.890625 0-6.421875-2.59375-11.3125-8.3125-11.3125-4.546875 0-7.28125 3.34375-8.328125 5.53125zm0 28.203125c-.640625-1.40625-2.140625-3.984375-4.28125-5.9375-8.625-7.71875-10.359375-12.25-10.359375-16.484375 0-3.1875.6875-9.3125 6.328125-9.3125 1.390625 0 6.015625.59375 7.3125 7.078125.203125.9375.90625.984375 1 .984375.796875 0 .953125-.6875 1.046875-1.140625 1.09375-5.578125 4.984375-6.921875 7.28125-6.921875 1.890625 0 3.828125.703125 4.96875 2.84375 1.34375 2.578125 1.34375 5.828125 1.34375 6.46875 0 2.984375-.734375 7.515625-8.40625 14.75-3.1875 2.984375-4.640625 4.328125-6.234375 7.671875zm0 0"/></symbol><symbol id="aG" overflow="visible"><path d="m11.65625-37.40625v2.28125c-4.875 0-8.859375 4.734375-8.859375 9.515625 0 4.046875 2.484375 7.734375 6.515625 9.078125 1.140625.390625 2.34375.1875 2.34375 1.234375v14.203125c-3.390625 0-6.828125-2.390625-7.421875-5.875.25.046875.546875.09375.796875.09375 1.296875 0 2.296875-.953125 2.296875-2.234375 0-1.296875-1-2.34375-2.296875-2.34375-1.4375 0-2.34375 1.09375-2.34375 2.6875 0 4.875 3.34375 8.46875 8.421875 9.21875.34375 0 .546875.140625.546875.546875v1.734375h1.546875v-2.28125c5.578125 0 8.90625-5.9375 8.90625-10.21875 0-4.234375-2.484375-8.21875-6.5625-9.71875-1.25-.4375-2.390625-.296875-2.390625-1.34375 0-.25.046875-.484375.046875-.6875v-12.0625c2.34375 0 4.828125 1 6.28125 2.890625.546875.703125.796875 1.5 1.140625 2.296875-.25-.046875-.546875-.109375-.796875-.109375-1.453125 0-2.296875 1.15625-2.296875 2.34375 0 1.40625 1.15625 2.25 2.296875 2.25 1.34375 0 2.28125-1 2.28125-2.546875 0-4.734375-3.125-7.921875-8.359375-8.671875-.34375 0-.546875-.140625-.546875-.546875v-1.734375zm1.546875 36.3125v-14.453125c3.390625.65625 6.375 3.390625 6.375 7.234375 0 3.375-2.34375 6.671875-6.375 7.21875zm-1.546875-32.484375v13.0625c-3.09375-.5625-6.375-2.75-6.375-6.53125 0-3.390625 2.984375-6.234375 6.375-6.53125zm0 0"/></symbol><path d="m77.82875.00184375c0 11.67187525-9.460938 21.13281225-21.136719 21.13281225-11.671875 0-21.132812-9.460937-21.132812-21.13281225 0-11.67578175 9.460937-21.13671875 21.132812-21.13671875 11.675781 0 21.136719 9.460937 21.136719 21.13671875zm0 0" fill="#ff7f00" stroke="#ff7f00" stroke-miterlimit="10" stroke-width=".3985" transform="matrix(1 0 0 -1 124.89 22.912)"/><g><use x="165.172" xlink:href="#R" y="25.347"/><use x="171.952546" xlink:href="#S" y="25.347"/><use x="177.487766" xlink:href="#T" y="25.347"/><use x="181.915146" xlink:href="#U" y="25.347"/><use x="185.817496" xlink:href="#V" y="25.347"/><use x="190.798796" xlink:href="#W" y="25.347"/><use x="193.566406" xlink:href="#T" y="25.347"/></g><path d="m-33.979844.00184375c0 12.54296825-10.167969 22.71093725-22.714844 22.71093725-12.542968 0-22.710937-10.167969-22.710937-22.71093725 0-12.54687475 10.167969-22.71484375 22.710937-22.71484375 12.546875 0 22.714844 10.167969 22.714844 22.71484375zm0 0" fill="#007f7f" stroke="#007f7f" stroke-miterlimit="10" stroke-width=".3985" transform="matrix(1 0 0 -1 124.89 22.912)"/><g><use x="49.78" xlink:href="#X" y="26.371"/><use x="57.52891" xlink:href="#Y" y="26.371"/><use x="62.51021" xlink:href="#Z" y="26.371"/><use x="70.812045" xlink:href="#aa" y="26.371"/><use x="73.856615" xlink:href="#Y" y="26.371"/><use x="78.837915" xlink:href="#U" y="26.371"/><use x="82.740266" xlink:href="#ab" y="26.371"/></g><path d="m25.684219-85.041125c0 14.1875-11.5 25.6875-25.683594 25.6875-14.1875 0-25.6875-11.5-25.6875-25.6875 0-14.183594 11.5-25.683594 25.6875-25.683594 14.183594 0 25.683594 11.5 25.683594 25.683594zm0 0" fill="#00008b" stroke="#00008b" stroke-miterlimit="10" stroke-width=".3985" transform="matrix(1 0 0 -1 124.89 22.912)"/><g fill="#fff"><use x="103.428" xlink:href="#ac" y="111.411"/><use x="108.963221" xlink:href="#W" y="111.411"/><use x="111.730831" xlink:href="#ad" y="111.411"/></g><g fill="#fff"><use x="115.879257" xlink:href="#ae" y="111.411"/><use x="121.414478" xlink:href="#T" y="111.411"/><use x="125.841857" xlink:href="#U" y="111.411"/><use x="129.744208" xlink:href="#ae" y="111.411"/><use x="135.279428" xlink:href="#T" y="111.411"/><use x="139.706808" xlink:href="#W" y="111.411"/><use x="142.474418" xlink:href="#ab" y="111.411"/></g><g clip-path="url(#a)"><g clip-path="url(#b)"><path d="m159.253906 45.828125h22.328125v-45.83203125h-22.328125zm0 0" fill="#ff7f00"/></g></g><g clip-path="url(#c)"><g clip-path="url(#d)"><path d="m92.105469 45.828125h-23.910157v-45.83203125h23.910157zm0 0" fill="#007f7f"/></g></g><g clip-path="url(#e)"><g clip-path="url(#f)"><path d="m160.25 15.074219v15.675781h-69.148438v-15.675781zm0 0" fill="url(#g)"/></g></g><g clip-path="url(#h)"><g clip-path="url(#i)"><path d="m190.738281 55.851562 12.382813-18.582031-43.078125-28.714843-12.382813 18.578124zm0 0" fill="#ff7f00"/></g></g><g clip-path="url(#j)"><g clip-path="url(#k)"><path d="m161.339844 99.941406-14.90625 22.367188-43.078125-28.71875 14.910156-22.363282zm0 0" fill="#00008b"/></g></g><g clip-path="url(#l)"><g clip-path="url(#m)"><g clip-path="url(#n)"><path d="m145.046875 14.550781 57.808594 38.539063-40.316407 60.476562-57.808593-38.539062zm0 0" fill="url(#o)"/></g></g></g><g clip-path="url(#p)"><g clip-path="url(#q)"><path d="m102.996094 28.445312-13.261719-19.890624-43.078125 28.714843 13.261719 19.894531zm0 0" fill="#007f7f"/></g></g><g clip-path="url(#r)"><g clip-path="url(#s)"><path d="m131.515625 71.226562 14.910156 22.363282-43.078125 28.71875-14.910156-22.367188zm0 0" fill="#00008b"/></g></g><g clip-path="url(#t)"><g clip-path="url(#u)"><g clip-path="url(#v)"><path d="m47.710938 53.75 57.15625-38.101562 39.792968 59.691406-57.152344 38.105468zm0 0" fill="url(#w)"/></g></g></g><g clip-path="url(#x)"><g clip-path="url(#y)"><path d="m159.253906 45.828125h22.328125v-45.83203125h-22.328125zm0 0" fill="#ff7f00"/></g></g><g clip-path="url(#z)"><g clip-path="url(#A)"><path d="m92.105469 45.828125h-23.910157v-45.83203125h23.910157zm0 0" fill="#007f7f"/></g></g><g clip-path="url(#B)"><g clip-path="url(#C)"><path d="m160.25 15.074219v15.675781h-69.148438v-15.675781zm0 0" fill="url(#g)"/></g></g><use x="98.761" xlink:href="#ap" y="15.103"/><g><use x="106.144859" xlink:href="#aq" y="15.103"/><use x="110.116439" xlink:href="#ar" y="15.103"/><use x="113.27278" xlink:href="#as" y="15.103"/></g><g><use x="116.598586" xlink:href="#at" y="15.103"/><use x="120.999053" xlink:href="#au" y="15.103"/><use x="127.543965" xlink:href="#aq" y="15.103"/><use x="131.515544" xlink:href="#ar" y="15.103"/><use x="134.671886" xlink:href="#as" y="15.103"/></g><g><use x="137.997691" xlink:href="#at" y="15.103"/><use x="142.398159" xlink:href="#av" y="15.103"/><use x="144.653486" xlink:href="#aw" y="15.103"/><use x="149.053953" xlink:href="#ax" y="15.103"/></g><g clip-path="url(#D)"><g clip-path="url(#E)"><path d="m190.738281 55.851562 12.382813-18.582031-43.078125-28.714843-12.382813 18.578124zm0 0" fill="#ff7f00"/></g></g><g clip-path="url(#F)"><g clip-path="url(#G)"><path d="m161.339844 99.941406-14.90625 22.367188-43.078125-28.71875 14.910156-22.363282zm0 0" fill="#00008b"/></g></g><g clip-path="url(#H)"><g clip-path="url(#I)"><g clip-path="url(#J)"><path d="m145.046875 14.550781 57.808594 38.539063-40.316407 60.476562-57.808593-38.539062zm0 0" fill="url(#o)"/></g></g></g><use x="162.307" xlink:href="#ay" y="65.922"/><g><use x="167.546416" xlink:href="#ax" y="65.922"/><use x="171.088409" xlink:href="#az" y="65.922"/><use x="174.201513" xlink:href="#au" y="65.922"/><use x="180.746425" xlink:href="#av" y="65.922"/><use x="183.001751" xlink:href="#ax" y="65.922"/><use x="186.543745" xlink:href="#aA" y="65.922"/><use x="189.656849" xlink:href="#ax" y="65.922"/><use x="193.198842" xlink:href="#az" y="65.922"/></g><g clip-path="url(#K)"><g clip-path="url(#L)"><path d="m102.996094 28.445312-13.261719-19.890624-43.078125 28.714843 13.261719 19.894531zm0 0" fill="#007f7f"/></g></g><g clip-path="url(#M)"><g clip-path="url(#N)"><path d="m131.515625 71.226562 14.910156 22.363282-43.078125 28.71875-14.910156-22.367188zm0 0" fill="#00008b"/></g></g><g clip-path="url(#O)"><g clip-path="url(#P)"><g clip-path="url(#Q)"><path d="m47.710938 53.75 57.15625-38.101562 39.792968 59.691406-57.152344 38.105468zm0 0" fill="url(#w)"/></g></g></g><g><use x="44.301" xlink:href="#aB" y="66.617"/><use x="48.701468" xlink:href="#au" y="66.617"/><use x="55.246379" xlink:href="#aq" y="66.617"/><use x="59.217958" xlink:href="#az" y="66.617"/><use x="62.331063" xlink:href="#aA" y="66.617"/></g><g><use x="68.12908" xlink:href="#aC" y="66.617"/><use x="73.055372" xlink:href="#aD" y="66.617"/></g><use x="77.243139" xlink:href="#as" y="66.617"/><g><use x="80.568944" xlink:href="#aE" y="66.617"/><use x="84.754619" xlink:href="#ar" y="66.617"/></g><use x="20.478" xlink:href="#aF" y="178.712"/><use x="3.321" xlink:href="#af" y="192.591"/><g><use x="9.135173" xlink:href="#T" y="192.591"/><use x="13.562553" xlink:href="#U" y="192.591"/><use x="17.464903" xlink:href="#ag" y="192.591"/><use x="21.394153" xlink:href="#ah" y="192.591"/></g><g><use x="28.585157" xlink:href="#ai" y="192.591"/><use x="35.365703" xlink:href="#U" y="192.591"/><use x="39.268053" xlink:href="#W" y="192.591"/><use x="42.035664" xlink:href="#Y" y="192.591"/><use x="47.016964" xlink:href="#U" y="192.591"/><use x="50.919314" xlink:href="#W" y="192.591"/><use x="53.686924" xlink:href="#ab" y="192.591"/><use x="57.561379" xlink:href="#aj" y="192.591"/></g><g><use x="57.561379" xlink:href="#ak" y="192.591"/><use x="62.542679" xlink:href="#ab" y="192.591"/><use x="66.417135" xlink:href="#T" y="192.591"/><use x="70.844514" xlink:href="#S" y="192.591"/></g><use x="197.479" xlink:href="#aG" y="181.936"/><g><use x="179.903" xlink:href="#al" y="193.615"/><use x="185.438221" xlink:href="#S" y="193.615"/><use x="190.973441" xlink:href="#ak" y="193.615"/><use x="195.954741" xlink:href="#S" y="193.615"/><use x="201.489962" xlink:href="#am" y="193.615"/><use x="205.917341" xlink:href="#ah" y="193.615"/></g><g><use x="213.108346" xlink:href="#an" y="193.615"/><use x="222.241061" xlink:href="#W" y="193.615"/><use x="225.008672" xlink:href="#ab" y="193.615"/><use x="228.883127" xlink:href="#ab" y="193.615"/><use x="232.757582" xlink:href="#T" y="193.615"/><use x="237.184961" xlink:href="#ao" y="193.615"/></g></svg>