<svg height="246.497" viewBox="0 0 405.651 184.873" width="540.868" xmlns="http://www.w3.org/2000/svg" xmlns:xlink="http://www.w3.org/1999/xlink"><symbol id="a" overflow="visible"><path d="m1.328-.828c.531-.578.828-.828 1.188-1.14 0 0 .609-.532.968-.891.954-.922 1.172-1.407 1.172-1.454 0-.093-.093-.093-.11-.093-.077 0-.093.015-.155.11-.297.484-.5.64-.735.64-.25 0-.36-.156-.515-.328-.188-.22-.36-.422-.688-.422-.75 0-1.203.922-1.203 1.14 0 .047.031.11.11.11.093 0 .109-.047.14-.11.188-.468.766-.468.844-.468.203 0 .39.062.625.14.406.156.515.156.765.156-.359.422-1.187 1.141-1.375 1.297l-.906.844c-.672.672-1.031 1.234-1.031 1.313 0 .093.11.093.125.093.078.001.093-.015.156-.125.235-.359.531-.625.86-.625.218 0 .328.094.578.375.156.22.343.375.625.375 1 0 1.578-1.265 1.578-1.53 0-.048-.047-.11-.125-.11-.094 0-.11.062-.14.14-.235.641-.876.829-1.204.829-.188 0-.375-.063-.578-.125-.344-.125-.5-.172-.703-.172-.016 0-.172 0-.266.03zm0 0"/></symbol><symbol id="b" overflow="visible"><path d="m3.656-3.984h.86c.203 0 .296 0 .296-.204 0-.109-.093-.109-.265-.109h-.828l.203-1.14c.047-.204.187-.907.25-1.032.078-.187.25-.343.469-.343.03 0 .296 0 .484.187a.557.557 0 0 0 -.547.531c0 .235.188.36.375.36.266 0 .547-.235.547-.61 0-.453-.453-.687-.86-.687-.343 0-.968.187-1.265 1.172-.063.203-.094.312-.328 1.562h-.688c-.203 0-.312 0-.312.188 0 .125.094.125.281.125h.656l-.734 3.937c-.188.969-.36 1.875-.875 1.875-.047 0-.281 0-.484-.187.468-.032.562-.391.562-.532 0-.234-.187-.359-.375-.359-.266 0-.547.234-.547.61 0 .437.438.687.844.687.547 0 .953-.594 1.125-.969.328-.625.547-1.828.563-1.906zm0 0"/></symbol><symbol id="c" overflow="visible"><path d="m3.328-3.016c.063-.25.297-1.171.985-1.171.046 0 .296 0 .5.125a.578.578 0 0 0 -.47.546c0 .157.11.344.376.344a.546.546 0 0 0 .531-.578c0-.516-.578-.656-.922-.656-.578 0-.922.531-1.047.75-.25-.656-.781-.75-1.078-.75-1.031 0-1.61 1.281-1.61 1.531 0 .11.11.11.126.11.078 0 .11-.032.125-.11.344-1.063 1-1.313 1.344-1.313.187 0 .53.094.53.672 0 .313-.171.97-.53 2.375-.157.61-.516 1.032-.954 1.032-.062 0-.28 0-.5-.125.25-.063.47-.266.47-.547 0-.266-.22-.344-.36-.344-.313 0-.547.25-.547.578 0 .453.484.656.922.656.672 0 1.031-.703 1.047-.75.125.36.484.75 1.078.75 1.031 0 1.594-1.28 1.594-1.53 0-.11-.079-.11-.11-.11-.094 0-.11.047-.14.11-.329 1.077-1 1.312-1.313 1.312-.39 0-.547-.313-.547-.657 0-.218.047-.437.156-.875zm0 0"/></symbol><symbol id="d" overflow="visible"><path d="m2.328-4.438c0-.187 0-.187-.203-.187-.453.438-1.078.438-1.36.438v.25c.157 0 .626 0 1-.188v3.547c0 .234 0 .328-.687.328h-.266v.25c.125 0 .985-.031 1.235-.031.219 0 1.094.031 1.25.031v-.25h-.267c-.703 0-.703-.094-.703-.328zm0 0"/></symbol><symbol id="e" overflow="visible"><path d="m3.516-1.266h-.236c-.015.157-.094.563-.187.625-.047.047-.578.047-.688.047h-1.28c.734-.64.984-.844 1.39-1.172.516-.406 1-.843 1-1.5 0-.843-.734-1.359-1.624-1.359-.86 0-1.454.61-1.454 1.25 0 .344.297.39.376.39a.365.365 0 0 0 .359-.374c0-.125-.047-.375-.406-.375.218-.485.687-.641 1.015-.641.703 0 1.063.547 1.063 1.11 0 .609-.438 1.078-.656 1.328l-1.672 1.671c-.079.063-.079.079-.079.266h2.876zm0 0"/></symbol><symbol id="f" overflow="visible"><path d="m8.36-7.797c.078-.078.14-.156.14-.266 0-.093-.016-.093-.281-.093h-4.939c-.281 0-.297 0-.36.219l-.655 2.156c-.047.11-.047.14-.047.156 0 .063.047.125.125.125.094 0 .125-.047.172-.203.438-1.297 1.015-2.11 2.907-2.11h1.968l-6.546 7.408c-.11.125-.156.172-.156.312 0 .093.046.093.28.093h5.11c.266 0 .281-.016.36-.234l.828-2.641a.462.462 0 0 0 .03-.156c0-.063-.046-.125-.109-.125-.093 0-.109.015-.203.312-.5 1.547-1.03 2.469-3.109 2.469h-2.063zm0 0"/></symbol><symbol id="g" overflow="visible"><path d="m5.672-4.86-1.125-2.608c.156-.281.516-.343.672-.343.062 0 .203-.016.203-.22 0-.124-.11-.124-.188-.124-.203 0-.437.015-.64.015h-.704c-.72 0-1.25-.015-1.266-.015-.094 0-.203 0-.203.219 0 .125.094.125.25.125.703 0 .75.109.86.406l1.421 3.312-2.592 2.781c-.421.468-.937.921-1.828.968-.14.016-.234.016-.234.219 0 .047.016.125.14.125.172 0 .344-.031.516-.031h.563c.39 0 .796.031 1.171.031.079 0 .235 0 .235-.219 0-.11-.094-.125-.156-.125-.25-.031-.407-.156-.407-.344 0-.203.157-.359.5-.718l1.063-1.157c.265-.265.89-.968 1.156-1.234l1.25 2.953c.016.016.063.14.063.156 0 .11-.266.313-.641.344-.078 0-.203.016-.203.219 0 .125.125.125.172.125.203 0 .453-.031.656-.031h1.313c.218 0 .437.031.64.031.094 0 .219 0 .219-.234 0-.11-.125-.11-.235-.11-.703-.015-.734-.078-.937-.515l-1.579-3.704 1.516-1.625c.125-.125.39-.421.5-.546.515-.532 1-1.016 1.968-1.079.11-.015.235-.015.235-.218 0-.125-.11-.125-.157-.125-.171 0-.343.015-.515.015h-.547c-.375 0-.797-.015-1.172-.015-.078 0-.219 0-.219.203 0 .125.078.14.14.14.204.016.407.11.407.344l-.016.016c-.015.094-.03.203-.171.36zm0 0"/></symbol><symbol id="h" overflow="visible"><path d="m5.188-1.578c.109 0 .28 0 .28-.156 0-.188-.171-.188-.28-.188h-4.158c-.11 0-.281 0-.281.172s.156.172.281.172zm0 0"/></symbol><symbol id="i" overflow="visible"><path d="m3.344-1.469c.015.157.031.188-.078.39a1.344 1.344 0 0 1 -.985.704c-.39.031-.765-.14-1.047-.484-.264-.375-.328-.875-.374-1.172-.047-.422-.047-.89.14-1.281.156-.313.5-.626.984-.672.375-.047.75.109 1.016.421.125.126.125.126.156.297zm-.219-2.343c-.063-.047-.516-.47-1.203-.391-1.094.125-1.953 1.11-1.828 2.266.125 1.092 1.125 1.889 2.172 1.78a1.635 1.635 0 0 0 1.156-.702l.062.562 1.329-.233-.033-.282c-.61.062-.687.015-.75-.422l-.593-5.407-1.297.235.03.281c.61-.063.688-.016.735.422zm0 0"/></symbol><symbol id="j" overflow="visible"><path d="m3.36-2.422c.187-.031.234-.031.203-.234-.094-.922-.688-1.703-1.844-1.563-1.047.11-1.797 1.125-1.672 2.235a2.066 2.066 0 0 0 2.25 1.828c1.094-.125 1.422-1.125 1.39-1.328 0-.063-.046-.125-.124-.11-.094 0-.11.078-.126.125-.187.938-1 1.047-1.124 1.047a1.177 1.177 0 0 1 -1.063-.422c-.328-.406-.406-.922-.438-1.296zm-2.563.063c-.078-1.407.687-1.641.937-1.657.5-.062 1.079.25 1.22 1.407zm0 0"/></symbol><symbol id="k" overflow="visible"><path d="m2.516-3.906-.032-.25-1.312.156-.188-1.656-.25.015c.079.75-.109 1.72-.984 1.829l.031.218.781-.094.266 2.47c.11 1 .844 1.124 1.328 1.077.594-.062.844-.671.766-1.312l-.047-.5-.25.031.047.469c.078.672-.172 1.016-.485 1.047-.609.078-.703-.703-.718-.875l-.266-2.469zm0 0"/></symbol><symbol id="l" overflow="visible"><path d="m5.984-3.656c.11-.016.282-.031.266-.219-.031-.203-.219-.188-.344-.172l-5.437.61c-.14.015-.328.03-.297.234.016.187.187.172.312.156zm.172 1.812c.125-.015.313-.031.297-.218-.031-.188-.203-.172-.312-.157l-5.5.61c-.125.015-.297.03-.266.218.016.188.203.172.344.157zm0 0"/></symbol><symbol id="m" overflow="visible"><path d="m3.938-2.031-.25.031c0 .125-.016.64-.11.797-.047.078-.656.156-.844.172l-1.578.171.782-.922c1.328-1.421 1.812-1.968 1.702-2.859-.11-1.03-1.016-1.656-2.125-1.53-1.015.108-1.625.999-1.546 1.811a.466.466 0 0 0 .531.437.448.448 0 0 0 .406-.515c-.031-.266-.234-.453-.515-.422-.047.015-.063.015-.11.03.156-.655.688-1 1.172-1.062.906-.093 1.313.72 1.375 1.344.11.89-.5 1.703-.875 2.219l-1.422 1.938c-.11.125-.094.141-.078.344l3.407-.375zm0 0"/></symbol><symbol id="n" overflow="visible"><path d="m3.906-3.328c-.078-.594-.187-1.36-.578-2-.484-.797-1.172-.922-1.687-.86-.547.063-1.204.329-1.5 1.25-.203.641-.172 1.36-.094 2.032.062.594.172 1.453.64 2.125.5.703 1.204.781 1.61.734.578-.062 1.234-.39 1.5-1.266.203-.625.187-1.296.11-2.015zm-1.61 3.047c-.28.031-.937-.031-1.202-1.031-.157-.485-.235-1.267-.297-1.783-.063-.609-.14-1.295-.094-1.811.078-.813.625-1.032.938-1.063.343-.047.937.078 1.203.89.14.47.219 1.157.281 1.72.063.562.14 1.312.11 1.843-.079 1.047-.72 1.204-.938 1.235zm0 0"/></symbol><symbol id="o" overflow="visible"><path d="m4.313-5.984c.03-.313.062-.391.562-.438.11-.016.219-.031.188-.203 0 0 0-.11-.141-.094-.063.016-.422.063-.484.078a6.667 6.667 0 0 1 -.516.063c-.219.031-.453.047-.672.062-.203.032-.406.032-.625.063-.063 0-.188.016-.172.172.016.125.11.11.328.093.047-.015.281-.03.5-.046.203.015.266.015.281.14v.172l-.577 4.282c-.125.813-.671 1.36-1.14 1.407-.297.03-.735-.047-.907-.438.016.016.032.016.094 0 .344-.031.532-.375.5-.64-.031-.22-.218-.344-.437-.313-.188.016-.563.203-.5.75.078.594.61.953 1.297.875.859-.094 1.718-.797 1.843-1.703zm0 0"/></symbol><symbol id="p" overflow="visible"><path d="m4.594-1.86c.093 0 .25-.015.218-.171-.015-.156-.171-.14-.265-.14l-3.734.421c-.11.016-.25.031-.235.188.031.156.172.14.281.125zm0 0"/></symbol><symbol id="q" overflow="visible"><path d="m1.703-4.016c-.016-.171-.031-.171-.219-.156-.343.422-.937.484-1.156.516l.016.234c.156-.015.547-.062.89-.281l.329 3c.03.203.03.281-.579.36l-.25.03.032.235c.328-.078.78-.125 1.109-.156a9.103 9.103 0 0 1 1.125-.094l-.031-.234-.25.015c-.625.078-.625 0-.656-.203zm0 0"/></symbol><symbol id="r" overflow="visible"><path d="m3.25-1.36-.031-.234-.703.078-.282-2.609c-.015-.14-.03-.188-.171-.172-.11.016-.11.047-.157.11l-1.765 2.937.03.234 1.845-.203.046.485c.032.187.032.265-.468.312l-.188.031.032.235c.125-.016.687-.11.953-.14.265-.032.828-.063.937-.079l-.031-.234-.172.03c-.5.048-.5-.03-.531-.218l-.047-.484zm-1.469-2.25.235 2.157-1.625.172zm0 0"/></symbol><symbol id="s" overflow="visible"><path d="m2.297-2.61.61-.078c.124 0 .202-.015.187-.156 0-.094-.078-.078-.188-.078l-.578.063c.063-1 .063-1.016.078-1.125.016-.125.016-.157.094-.25.078-.047.125-.094.219-.094a.574.574 0 0 1 .281.016c-.125.062-.219.187-.203.328.015.125.14.218.281.203a.351.351 0 0 0 .297-.406c-.031-.313-.422-.375-.688-.344-.265.015-.656.187-.78.812-.032.14-.032.266-.048.485-.015.187 0 .265-.03.437l-.485.047c-.125.016-.203.031-.188.188 0 .078.078.062.188.062l.468-.063c-.078 1.36-.125 1.844-.125 1.938-.077 1.047-.092 1.11-.14 1.234-.078.141-.157.266-.297.282-.031 0-.172.015-.266-.016a.368.368 0 0 0 .204-.36c-.017-.123-.142-.202-.283-.186a.336.336 0 0 0 -.297.39c.032.345.422.407.672.376.313-.032.516-.328.61-.485.218-.375.265-1.109.265-1.156zm0 0"/></symbol><symbol id="t" overflow="visible"><path d="m1.734-.063c-.015-.14-.03-.328-.218-.312-.204.031-.188.219-.172.36l.562 5.093c.016.14.047.344.235.313.203-.016.171-.204.156-.36zm0 0"/></symbol><symbol id="u" overflow="visible"><path d="m3.656.094c-.047.14-.062.172-.25.297-.39.296-.844.328-1.172.218-.359-.125-.64-.437-.734-.875-.125-.437.031-.937.125-1.218.125-.391.328-.829.672-1.094a1.25 1.25 0 0 1 1.172-.203c.36.11.64.422.75.812.062.172.062.172.015.328zm.766-2.25c-.016-.063-.266-.64-.922-.86-1.047-.343-2.234.188-2.594 1.282-.36 1.062.204 2.203 1.219 2.546.61.204 1.125-.03 1.328-.14l-.172.531 1.313.328.093-.265c-.578-.188-.64-.282-.5-.688l1.72-5.172-1.282-.328-.094.266c.578.203.625.281.485.703zm0 0"/></symbol><symbol id="v" overflow="visible"><path d="m4.047-.797c.187.063.219.063.297-.14.281-.875.078-1.829-1.016-2.188-1.015-.344-2.11.281-2.453 1.328-.375 1.125.234 2.267 1.266 2.61 1.046.358 1.749-.423 1.828-.625.015-.047 0-.11-.078-.141-.094-.031-.125.031-.157.062a1.27 1.27 0 0 1 -1.468.485c-.407-.125-.672-.485-.766-.844-.14-.5.016-1.016.125-1.36zm-2.328-1.031c.5-1.282 1.311-1.172 1.547-1.094.468.156.843.688.5 1.781zm0 0"/></symbol><symbol id="w" overflow="visible"><path d="m3.906-2.484.078-.25-1.234-.407.531-1.578-.234-.078c-.25.719-.828 1.484-1.688 1.234l-.062.204.75.25-.797 2.359c-.313.938.313 1.375.766 1.531.562.188 1.03-.25 1.234-.86l.172-.5-.235-.077-.156.469c-.219.64-.578.843-.875.75-.578-.188-.328-.938-.281-1.094l.797-2.36zm0 0"/></symbol><symbol id="x" overflow="visible"><path d="m6.953-.813c.125.047.281.094.344-.093.062-.188-.11-.235-.25-.281l-5.188-1.736c-.125-.047-.312-.11-.375.078-.062.188.11.25.22.281zm-.61 1.736c.141.047.313.094.376-.11.061-.172-.094-.218-.219-.266l-5.25-1.75c-.11-.031-.281-.094-.344.078-.062.203.125.266.25.313zm0 0"/></symbol><symbol id="y" overflow="visible"><path d="m4.422-.203-.234-.078c-.047.11-.282.594-.438.703-.078.031-.656-.156-.828-.219l-1.516-.5 1.11-.516c1.78-.734 2.453-1.015 2.734-1.875.328-.984-.234-1.921-1.281-2.28-.985-.329-1.906.218-2.156.984-.141.437.203.609.28.64.188.063.485 0 .579-.312.094-.25-.016-.5-.281-.578-.047-.016-.063-.032-.125-.032a1.404 1.404 0 0 1 1.515-.468c.86.296.89 1.187.688 1.78-.282.86-1.172 1.345-1.719 1.673l-2.11 1.14c-.14.078-.14.094-.202.282l3.25 1.093zm0 0"/></symbol><symbol id="z" overflow="visible"><path d="m4.938-1.39c.187-.563.406-1.313.328-2.048-.11-.921-.688-1.328-1.188-1.484-.516-.172-1.234-.203-1.875.5-.453.484-.734 1.172-.953 1.797-.188.563-.438 1.406-.313 2.188a1.743 1.743 0 0 0 1.173 1.342c.563.188 1.266.172 1.891-.5.438-.484.719-1.11.938-1.797zm-2.735 2.092c-.265-.092-.843-.405-.672-1.421.063-.515.313-1.265.469-1.75.203-.578.422-1.25.688-1.687.421-.703 1-.672 1.296-.578.329.109.813.468.72 1.312-.063.485-.282 1.156-.47 1.688-.171.53-.406 1.234-.671 1.718-.5.922-1.141.782-1.36.72zm0 0"/></symbol><symbol id="A" overflow="visible"><path d="m6.438-3.625c.156-.266.187-.328.671-.172.094.031.204.078.266-.078 0 0 .031-.11-.094-.156-.062-.016-.406-.125-.468-.14-.079 0-.344-.095-.5-.141-.204-.079-.422-.172-.625-.235-.204-.062-.407-.156-.61-.219-.062-.015-.172-.062-.219.094-.046.11.032.14.25.219.047.016.266.078.485.172.172.093.234.125.187.25-.015.047-.047.11-.062.156l-2.313 3.625c-.469.703-1.186.953-1.625.813-.281-.094-.671-.344-.656-.783.016.032.031.032.078.047.344.11.656-.11.75-.36.078-.234-.062-.421-.266-.484-.203-.062-.593-.062-.78.485-.189.562.154 1.095.826 1.312.813.281 1.875 0 2.375-.765zm0 0"/></symbol><symbol id="B" overflow="visible"><path d="m4.938.219c.093.031.25.093.296-.047.063-.156-.093-.219-.187-.25l-3.563-1.188c-.109-.03-.234-.078-.296.079-.047.14.078.187.187.218zm0 0"/></symbol><symbol id="C" overflow="visible"><path d="m3.234-2.938c.063-.171.047-.171-.125-.234-.5.25-1.078.063-1.28 0l-.079.219c.14.047.531.172.922.125l-.953 2.86c-.063.187-.078.265-.672.077l-.25-.093-.078.218c.328.078.781.235 1.094.329.312.109.75.25 1.046.39l.079-.219-.235-.078c-.593-.203-.578-.281-.515-.469zm0 0"/></symbol><symbol id="D" overflow="visible"><path d="m3.516.125.078-.219-.672-.218.828-2.5c.047-.141.063-.188-.063-.235-.109-.031-.14 0-.203.047l-2.828 1.938-.078.218 1.766.578-.156.47c-.063.171-.079.25-.547.093l-.188-.063-.078.22c.125.046.672.187.922.28.25.079.765.282.875.329l.078-.22-.156-.062c-.485-.156-.469-.234-.406-.406l.156-.469zm-.376-2.656-.687 2.061-1.562-.514zm0 0"/></symbol><symbol id="E" overflow="visible"><path d="m3.188-1.406.578.203c.109.031.187.062.234-.078.031-.094-.047-.125-.156-.157l-.547-.187c.484-.86.484-.875.562-.984.063-.094.079-.141.188-.188.094-.031.14-.047.234-.015.078.03.172.078.25.14-.14.016-.281.094-.328.235-.047.124.031.25.172.296.14.047.36-.015.438-.25.093-.312-.22-.515-.47-.609-.265-.078-.671-.094-1.046.422-.078.125-.14.25-.25.437-.094.141-.11.22-.219.36l-.453-.157c-.125-.03-.203-.062-.25.094-.031.078.047.11.156.14l.438.141c-.64 1.204-.875 1.626-.922 1.688-.5.938-.547.984-.625 1.063-.14.109-.266.187-.422.14-.031-.016-.156-.047-.234-.125a.392.392 0 0 0 .328-.25c.046-.125-.031-.233-.172-.281a.348.348 0 0 0 -.438.218c-.109.328.22.546.454.625.312.109.625-.079.78-.172.36-.25.704-.875.72-.922zm0 0"/></symbol><symbol id="F" overflow="visible"><path d="m1.594.672c.047-.14.11-.313-.063-.375-.187-.063-.25.11-.297.25l-1.609 4.86c-.047.124-.11.327.063.39.187.062.25-.125.296-.266zm0 0"/></symbol><symbol id="G" overflow="visible"><path d="m6.375-.031c.172.062.328.11.406-.094.047-.172-.125-.219-.281-.281l-4.688-1.564c-.14-.047-.328-.11-.375.063-.078.203.094.265.25.312zm0 0"/></symbol><path d="m-85.04.001h169.372" fill="none" stroke="#000" stroke-miterlimit="10" stroke-width=".79701" transform="matrix(1 0 0 -1 85.438 91.251)"/><path d="m-1.552 2.071c.129-.777 1.55-1.941 1.941-2.07-.389-.129-1.812-1.297-1.941-2.074" style="fill:none;stroke-width:.6376;stroke-linecap:round;stroke-linejoin:round;stroke:#000;stroke-miterlimit:10" transform="matrix(1 0 0 -1 169.771 91.251)"/><use x="165.926" xlink:href="#a" y="99.26"/><use x="170.559" xlink:href="#d" y="100.754"/><path d="m0-85.042v169.375" fill="none" stroke="#000" stroke-miterlimit="10" stroke-width=".79701" transform="matrix(1 0 0 -1 85.438 91.251)"/><path d="m-1.555 2.07c.13-.776 1.555-1.94 1.942-2.07-.387-.127-1.813-1.295-1.942-2.073" style="fill:none;stroke-width:.6376;stroke-linecap:round;stroke-linejoin:round;stroke:#000;stroke-miterlimit:10" transform="matrix(0 -1 -1 0 85.438 6.918)"/><use x="89.157" xlink:href="#a" y="7.61"/><use x="93.79" xlink:href="#e" y="9.104"/><path d="m0 .001v28.348h28.347v-28.349zm0 0" fill="#b2b2ff" stroke="#000" stroke-miterlimit="10" stroke-width=".79701" transform="matrix(1 0 0 -1 85.438 91.251)"/><use x="4.118" xlink:href="#f" y="18.1"/><path d="m104.882 76.536h16.301" fill="none" stroke="#000" stroke-miterlimit="10" stroke-width=".79701" transform="matrix(1 0 0 -1 85.438 91.251)"/><path d="m-1.556 2.074c.133-.777 1.556-1.944 1.946-2.074-.39-.13-1.813-1.297-1.946-2.07" style="fill:none;stroke-width:.6376;stroke-linecap:round;stroke-linejoin:round;stroke:#000;stroke-miterlimit:10" transform="matrix(1 0 0 -1 206.622 14.715)"/><use x="195.849" xlink:href="#b" y="25.354"/><path d="m105.59-76.538h16.3" fill="none" stroke="#000" stroke-miterlimit="10" stroke-width=".79701" transform="matrix(1 0 0 -1 85.438 91.251)"/><path d="m-1.553 2.072c.129-.777 1.555-1.941 1.941-2.07-.386-.133-1.812-1.297-1.941-2.074" style="fill:none;stroke-width:.6376;stroke-linecap:round;stroke-linejoin:round;stroke:#000;stroke-miterlimit:10" transform="matrix(-1 0 0 1 191.029 167.787)"/><use x="190.501" xlink:href="#b" y="179.615"/><use x="196.451" xlink:href="#h" y="176"/><use x="202.677" xlink:href="#d" y="176"/><path d="m141.734.001h169.375" fill="none" stroke="#000" stroke-miterlimit="10" stroke-width=".79701" transform="matrix(1 0 0 -1 85.438 91.251)"/><path d="m-1.554 2.071c.13-.777 1.555-1.941 1.942-2.07-.388-.129-1.813-1.297-1.942-2.074" style="fill:none;stroke-width:.6376;stroke-linecap:round;stroke-linejoin:round;stroke:#000;stroke-miterlimit:10" transform="matrix(1 0 0 -1 396.546 91.251)"/><use x="392.167" xlink:href="#c" y="99.26"/><use x="397.861" xlink:href="#d" y="100.754"/><path d="m226.777-85.042v169.375" fill="none" stroke="#000" stroke-miterlimit="10" stroke-width=".79701" transform="matrix(1 0 0 -1 85.438 91.251)"/><path d="m-1.555 2.072c.13-.777 1.555-1.941 1.942-2.074-.387-.128-1.813-1.293-1.942-2.07" style="fill:none;stroke-width:.6376;stroke-linecap:round;stroke-linejoin:round;stroke:#000;stroke-miterlimit:10" transform="matrix(0 -1 -1 0 312.213 6.918)"/><use x="315.929" xlink:href="#c" y="7.61"/><use x="321.622" xlink:href="#d" y="9.104"/><path d="m226.777.001v56.691h56.691v-56.691zm0 0" fill="#ffb2b2" stroke="#000" stroke-miterlimit="10" stroke-width=".79701" transform="matrix(1 0 0 -1 85.438 91.251)"/><path d="m226.777.001v-56.695h56.691v56.694zm0 0" fill="#b2ffb2" stroke="#000" stroke-miterlimit="10" stroke-width=".79701" transform="matrix(1 0 0 -1 85.438 91.251)"/><use x="382.875" xlink:href="#g" y="18.1"/><path d="m32.066 28.759 246.98 27.445" fill="none" stroke="#800000" stroke-dasharray=".79701 1.99255" stroke-miterlimit="10" stroke-width=".79701" transform="matrix(1 0 0 -1 85.438 91.251)"/><path d="m-1.554 2.071c.13-.777 1.554-1.94 1.944-2.07-.388-.131-1.815-1.298-1.944-2.073" style="fill:none;stroke-width:.6376;stroke-linecap:round;stroke-linejoin:round;stroke:#800000;stroke-miterlimit:10" transform="matrix(.99384628 -.11040644 -.11040644 -.99384628 364.472151 35.046649)"/><g fill="#800000"><use x="199.464" xlink:href="#i" y="71.805"/><use x="204.552" xlink:href="#j" y="71.24"/><use x="208.627" xlink:href="#k" y="70.787"/></g><use fill="#800000" x="213.714" xlink:href="#o" y="70.222"/><use fill="#800000" x="219.177" xlink:href="#p" y="65.672"/><use fill="#800000" x="224.897" xlink:href="#q" y="65.037"/><use fill="#800000" x="219.045" xlink:href="#s" y="72.222"/><use fill="#800000" x="232" xlink:href="#l" y="68.191"/><use fill="#800000" x="240.232" xlink:href="#t" y="54.194"/><use fill="#800000" x="240.826" xlink:href="#t" y="59.541"/><use fill="#800000" x="241.42" xlink:href="#t" y="64.888"/><use fill="#800000" x="242.014" xlink:href="#t" y="70.235"/><use fill="#800000" x="244.11" xlink:href="#m" y="61.282"/><use fill="#800000" x="258.59" xlink:href="#n" y="59.674"/><use fill="#800000" x="245.32" xlink:href="#n" y="72.173"/><use fill="#800000" x="259.8" xlink:href="#m" y="70.564"/><use fill="#800000" x="262.345" xlink:href="#t" y="51.738"/><use fill="#800000" x="262.939" xlink:href="#t" y="57.085"/><use fill="#800000" x="263.533" xlink:href="#t" y="62.432"/><use fill="#800000" x="264.127" xlink:href="#t" y="67.779"/><use fill="#800000" x="265.648" xlink:href="#p" y="53.649"/><use fill="#800000" x="271.368" xlink:href="#q" y="53.013"/><use fill="#800000" x="271.592" xlink:href="#l" y="63.792"/><use fill="#800000" x="282.042" xlink:href="#q" y="58.935"/><path d="m0-.001 3.654.001" fill="none" stroke="#800000" stroke-miterlimit="10" stroke-width=".379" transform="matrix(.99385 -.11041 -.11041 -.99385 282.2 60.358)"/><use fill="#800000" x="282.783" xlink:href="#r" y="65.609"/><path d="m32.066 27.11 247.012-82.343" fill="none" stroke="#008000" stroke-dasharray=".79701 1.99255" stroke-miterlimit="10" stroke-width=".79701" transform="matrix(1 0 0 -1 85.438 91.251)"/><path d="m-1.556 2.073c.13-.776 1.558-1.943 1.943-2.074-.385-.129-1.812-1.296-1.94-2.072" style="fill:none;stroke-width:.6376;stroke-linecap:round;stroke-linejoin:round;stroke:#008000;stroke-miterlimit:10" transform="matrix(.94864 .31622 .31622 -.94864 364.516 146.486)"/><g fill="#008000"><g><use x="186.851" xlink:href="#u" y="106.559"/><use x="191.708" xlink:href="#v" y="108.178"/><use x="195.597" xlink:href="#w" y="109.474"/></g><use x="200.453" xlink:href="#A" y="111.093"/><use x="207.319" xlink:href="#B" y="109.251"/><use x="212.78" xlink:href="#C" y="111.071"/><use x="204.455" xlink:href="#E" y="115.143"/><use x="217.907" xlink:href="#x" y="116.911"/><use x="231.246" xlink:href="#F" y="107.653"/><use x="229.544" xlink:href="#F" y="112.756"/><use x="227.843" xlink:href="#F" y="117.86"/><use x="226.142" xlink:href="#F" y="122.964"/><use x="231.797" xlink:href="#y" y="115.712"/><use x="249.021" xlink:href="#z" y="121.454"/><use x="228.332" xlink:href="#z" y="126.109"/><use x="242.153" xlink:href="#G" y="130.716"/><use x="248.953" xlink:href="#y" y="132.983"/><use x="259.153" xlink:href="#F" y="116.955"/><use x="257.451" xlink:href="#F" y="122.059"/><use x="255.75" xlink:href="#F" y="127.163"/><use x="254.049" xlink:href="#F" y="132.266"/><use x="261.35" xlink:href="#B" y="120.074"/><use x="266.811" xlink:href="#C" y="121.895"/><use x="262.497" xlink:href="#x" y="131.775"/><use x="271.724" xlink:href="#G" y="134.851"/><use x="280.819" xlink:href="#C" y="134.01"/></g><path d="m0 .001h3.653" fill="none" stroke="#008000" stroke-miterlimit="10" stroke-width=".379" transform="matrix(.94864 .31622 .31622 -.94864 280.366 135.368)"/><use fill="#008000" x="278.695" xlink:href="#D" y="140.381"/></svg>