<svg xmlns="http://www.w3.org/2000/svg" xmlns:xlink="http://www.w3.org/1999/xlink" width="540.868" height="246.497" viewBox="0 0 405.651 184.873"><defs><symbol overflow="visible" id="a"><path style="stroke:none" d="M1.328-.828c.531-.578.828-.828 1.188-1.14 0 0 .609-.532.968-.891.954-.922 1.172-1.407 1.172-1.454 0-.093-.093-.093-.11-.093-.077 0-.093.015-.155.11-.297.484-.5.64-.735.64-.25 0-.36-.156-.515-.328-.188-.22-.36-.422-.688-.422-.75 0-1.203.922-1.203 1.14 0 .047.031.11.11.11.093 0 .109-.047.14-.11.188-.468.766-.468.844-.468.203 0 .39.062.625.14.406.156.515.156.765.156-.359.422-1.187 1.141-1.375 1.297l-.906.844C.781-.625.422-.063.422.016c0 .093.11.093.125.093C.625.11.64.094.703-.016c.235-.359.531-.625.86-.625.218 0 .328.094.578.375.156.22.343.375.625.375 1 0 1.578-1.265 1.578-1.53 0-.048-.047-.11-.125-.11-.094 0-.11.062-.14.14-.235.641-.876.829-1.204.829-.188 0-.375-.063-.578-.125-.344-.125-.5-.172-.703-.172-.016 0-.172 0-.266.03Zm0 0"/></symbol><symbol overflow="visible" id="e"><path style="stroke:none" d="M3.656-3.984h.86c.203 0 .296 0 .296-.204 0-.109-.093-.109-.265-.109h-.828l.203-1.14c.047-.204.187-.907.25-1.032.078-.187.25-.343.469-.343.03 0 .296 0 .484.187a.557.557 0 0 0-.547.531c0 .235.188.36.375.36.266 0 .547-.235.547-.61 0-.453-.453-.687-.86-.687-.343 0-.968.187-1.265 1.172-.063.203-.094.312-.328 1.562h-.688c-.203 0-.312 0-.312.188 0 .125.094.125.281.125h.656L2.25-.047c-.188.969-.36 1.875-.875 1.875-.047 0-.281 0-.484-.187.468-.032.562-.391.562-.532 0-.234-.187-.359-.375-.359-.266 0-.547.234-.547.61 0 .437.438.687.844.687.547 0 .953-.594 1.125-.969.328-.625.547-1.828.563-1.906Zm0 0"/></symbol><symbol overflow="visible" id="g"><path style="stroke:none" d="M3.328-3.016c.063-.25.297-1.171.985-1.171.046 0 .296 0 .5.125a.578.578 0 0 0-.47.546c0 .157.11.344.376.344a.546.546 0 0 0 .531-.578c0-.516-.578-.656-.922-.656-.578 0-.922.531-1.047.75-.25-.656-.781-.75-1.078-.75-1.031 0-1.61 1.281-1.61 1.531 0 .11.11.11.126.11.078 0 .11-.032.125-.11.344-1.063 1-1.313 1.344-1.313.187 0 .53.094.53.672 0 .313-.171.97-.53 2.375-.157.61-.516 1.032-.954 1.032-.062 0-.28 0-.5-.125.25-.063.47-.266.47-.547 0-.266-.22-.344-.36-.344-.313 0-.547.25-.547.578 0 .453.484.656.922.656.672 0 1.031-.703 1.047-.75.125.36.484.75 1.078.75 1.031 0 1.594-1.28 1.594-1.53 0-.11-.079-.11-.11-.11-.094 0-.11.047-.14.11-.329 1.077-1 1.312-1.313 1.312-.39 0-.547-.313-.547-.657 0-.218.047-.437.156-.875Zm0 0"/></symbol><symbol overflow="visible" id="b"><path style="stroke:none" d="M2.328-4.438c0-.187 0-.187-.203-.187-.453.438-1.078.438-1.36.438v.25c.157 0 .626 0 1-.188v3.547c0 .234 0 .328-.687.328H.812V0c.125 0 .985-.031 1.235-.031.219 0 1.094.031 1.25.031v-.25H3.03c-.703 0-.703-.094-.703-.328Zm0 0"/></symbol><symbol overflow="visible" id="c"><path style="stroke:none" d="M3.516-1.266H3.28c-.015.157-.094.563-.187.625-.047.047-.578.047-.688.047h-1.28c.734-.64.984-.844 1.39-1.172.516-.406 1-.843 1-1.5 0-.843-.734-1.359-1.624-1.359-.86 0-1.454.61-1.454 1.25 0 .344.297.39.376.39a.365.365 0 0 0 .359-.374c0-.125-.047-.375-.406-.375.218-.485.687-.641 1.015-.641.703 0 1.063.547 1.063 1.11 0 .609-.438 1.078-.656 1.328L.516-.266C.437-.203.437-.187.437 0h2.876Zm0 0"/></symbol><symbol overflow="visible" id="d"><path style="stroke:none" d="M8.36-7.797c.078-.078.14-.156.14-.266 0-.093-.016-.093-.281-.093H3.28c-.281 0-.297 0-.36.219l-.655 2.156c-.047.11-.047.14-.047.156 0 .063.047.125.125.125.094 0 .125-.047.172-.203C2.953-7 3.53-7.813 5.422-7.813H7.39L.844-.405c-.11.125-.156.172-.156.312C.688 0 .734 0 .968 0h5.11c.266 0 .281-.016.36-.234l.828-2.641a.462.462 0 0 0 .03-.156c0-.063-.046-.125-.109-.125-.093 0-.109.015-.203.312-.5 1.547-1.03 2.469-3.109 2.469H1.812Zm0 0"/></symbol><symbol overflow="visible" id="h"><path style="stroke:none" d="M5.672-4.86 4.547-7.468c.156-.281.516-.343.672-.343.062 0 .203-.016.203-.22 0-.124-.11-.124-.188-.124-.203 0-.437.015-.64.015H3.89c-.72 0-1.25-.015-1.266-.015-.094 0-.203 0-.203.219 0 .125.094.125.25.125.703 0 .75.109.86.406l1.421 3.312L2.36-1.312c-.421.468-.937.921-1.828.968-.14.016-.234.016-.234.219 0 .047.016.125.14.125.172 0 .344-.031.516-.031h.563c.39 0 .796.031 1.171.031.079 0 .235 0 .235-.219 0-.11-.094-.125-.156-.125-.25-.031-.407-.156-.407-.344 0-.203.157-.359.5-.718l1.063-1.157c.265-.265.89-.968 1.156-1.234l1.25 2.953c.016.016.063.14.063.156 0 .11-.266.313-.641.344-.078 0-.203.016-.203.219 0 .125.125.125.172.125.203 0 .453-.031.656-.031h1.313c.218 0 .437.031.64.031.094 0 .219 0 .219-.234 0-.11-.125-.11-.235-.11-.703-.015-.734-.078-.937-.515L5.797-4.563l1.516-1.625c.125-.125.39-.421.5-.546.515-.532 1-1.016 1.968-1.079.11-.015.235-.015.235-.218 0-.125-.11-.125-.157-.125-.171 0-.343.015-.515.015h-.547c-.375 0-.797-.015-1.172-.015-.078 0-.219 0-.219.203 0 .125.078.14.14.14.204.016.407.11.407.344l-.016.016c-.015.094-.03.203-.171.36Zm0 0"/></symbol><symbol overflow="visible" id="f"><path style="stroke:none" d="M5.188-1.578c.109 0 .28 0 .28-.156 0-.188-.171-.188-.28-.188H1.03c-.11 0-.281 0-.281.172s.156.172.281.172Zm0 0"/></symbol><symbol overflow="visible" id="i"><path style="stroke:none" d="M3.344-1.469c.015.157.031.188-.078.39a1.344 1.344 0 0 1-.985.704c-.39.031-.765-.14-1.047-.484C.97-1.234.906-1.734.86-2.031c-.047-.422-.047-.89.14-1.281.156-.313.5-.626.984-.672.375-.047.75.109 1.016.421.125.126.125.126.156.297Zm-.219-2.343c-.063-.047-.516-.47-1.203-.391C.828-4.078-.031-3.093.094-1.937.219-.845 1.219-.048 2.266-.157a1.635 1.635 0 0 0 1.156-.702l.062.562L4.813-.53 4.78-.812c-.61.062-.687.015-.75-.422l-.593-5.407-1.297.235.03.281c.61-.063.688-.016.735.422Zm0 0"/></symbol><symbol overflow="visible" id="j"><path style="stroke:none" d="M3.36-2.422c.187-.031.234-.031.203-.234-.094-.922-.688-1.703-1.844-1.563C.672-4.109-.078-3.094.047-1.984a2.066 2.066 0 0 0 2.25 1.828c1.094-.125 1.422-1.125 1.39-1.328 0-.063-.046-.125-.124-.11-.094 0-.11.078-.126.125-.187.938-1 1.047-1.124 1.047A1.177 1.177 0 0 1 1.25-.844C.922-1.25.844-1.766.812-2.14Zm-2.563.063C.719-3.766 1.484-4 1.734-4.016c.5-.062 1.079.25 1.22 1.407Zm0 0"/></symbol><symbol overflow="visible" id="k"><path style="stroke:none" d="m2.516-3.906-.032-.25L1.172-4 .984-5.656l-.25.015c.079.75-.109 1.72-.984 1.829l.031.218.781-.094.266 2.47c.11 1 .844 1.124 1.328 1.077.594-.062.844-.671.766-1.312l-.047-.5-.25.031.047.469C2.75-.781 2.5-.437 2.187-.406c-.609.078-.703-.703-.718-.875L1.203-3.75Zm0 0"/></symbol><symbol overflow="visible" id="p"><path style="stroke:none" d="M5.984-3.656c.11-.016.282-.031.266-.219-.031-.203-.219-.188-.344-.172l-5.437.61c-.14.015-.328.03-.297.234.016.187.187.172.312.156Zm.172 1.812c.125-.015.313-.031.297-.218-.031-.188-.203-.172-.312-.157l-5.5.61c-.125.015-.297.03-.266.218.016.188.203.172.344.157Zm0 0"/></symbol><symbol overflow="visible" id="r"><path style="stroke:none" d="M3.938-2.031 3.688-2c0 .125-.016.64-.11.797-.047.078-.656.156-.844.172L1.156-.86l.782-.922C3.266-3.203 3.75-3.75 3.64-4.641c-.11-1.03-1.016-1.656-2.125-1.53C.5-6.063-.11-5.172-.031-4.36a.466.466 0 0 0 .531.437.448.448 0 0 0 .406-.515C.875-4.704.672-4.891.391-4.86c-.047.015-.063.015-.11.03.156-.655.688-1 1.172-1.062.906-.093 1.313.72 1.375 1.344.11.89-.5 1.703-.875 2.219L.531-.391c-.11.125-.094.141-.078.344L3.86-.422Zm0 0"/></symbol><symbol overflow="visible" id="s"><path style="stroke:none" d="M3.906-3.328c-.078-.594-.187-1.36-.578-2-.484-.797-1.172-.922-1.687-.86-.547.063-1.204.329-1.5 1.25-.203.641-.172 1.36-.094 2.032.062.594.172 1.453.64 2.125.5.703 1.204.781 1.61.734.578-.062 1.234-.39 1.5-1.266.203-.625.187-1.296.11-2.015ZM2.296-.281c-.28.031-.937-.031-1.202-1.031C.937-1.797.859-2.579.797-3.095.734-3.704.657-4.39.703-4.906c.078-.813.625-1.032.938-1.063.343-.047.937.078 1.203.89.14.47.219 1.157.281 1.72.063.562.14 1.312.11 1.843-.079 1.047-.72 1.204-.938 1.235Zm0 0"/></symbol><symbol overflow="visible" id="l"><path style="stroke:none" d="M4.313-5.984c.03-.313.062-.391.562-.438.11-.016.219-.031.188-.203 0 0 0-.11-.141-.094-.063.016-.422.063-.484.078a6.667 6.667 0 0 1-.516.063c-.219.031-.453.047-.672.062-.203.032-.406.032-.625.063-.063 0-.188.016-.172.172.016.125.11.11.328.093.047-.015.281-.03.5-.046.203.015.266.015.281.14v.172L2.985-1.64c-.125.813-.671 1.36-1.14 1.407-.297.03-.735-.047-.907-.438.016.016.032.016.094 0 .344-.031.532-.375.5-.64-.031-.22-.218-.344-.437-.313-.188.016-.563.203-.5.75.078.594.61.953 1.297.875.859-.094 1.718-.797 1.843-1.703Zm0 0"/></symbol><symbol overflow="visible" id="m"><path style="stroke:none" d="M4.594-1.86c.093 0 .25-.015.218-.171-.015-.156-.171-.14-.265-.14L.813-1.75c-.11.016-.25.031-.235.188.031.156.172.14.281.125Zm0 0"/></symbol><symbol overflow="visible" id="n"><path style="stroke:none" d="M1.703-4.016c-.016-.171-.031-.171-.219-.156-.343.422-.937.484-1.156.516l.016.234c.156-.015.547-.062.89-.281l.329 3c.03.203.03.281-.579.36l-.25.03.032.235c.328-.078.78-.125 1.109-.156A9.103 9.103 0 0 1 3-.328l-.031-.234-.25.015c-.625.078-.625 0-.656-.203Zm0 0"/></symbol><symbol overflow="visible" id="t"><path style="stroke:none" d="m3.25-1.36-.031-.234-.703.078-.282-2.609c-.015-.14-.03-.188-.171-.172-.11.016-.11.047-.157.11L.141-1.25l.03.234 1.845-.203.046.485c.032.187.032.265-.468.312l-.188.031.032.235c.125-.016.687-.11.953-.14.265-.032.828-.063.937-.079l-.031-.234-.172.03c-.5.048-.5-.03-.531-.218l-.047-.484ZM1.781-3.61l.235 2.157-1.625.172Zm0 0"/></symbol><symbol overflow="visible" id="o"><path style="stroke:none" d="m2.297-2.61.61-.078c.124 0 .202-.015.187-.156 0-.094-.078-.078-.188-.078l-.578.063c.063-1 .063-1.016.078-1.125.016-.125.016-.157.094-.25.078-.047.125-.094.219-.094A.574.574 0 0 1 3-4.312c-.125.062-.219.187-.203.328.015.125.14.218.281.203a.351.351 0 0 0 .297-.406c-.031-.313-.422-.375-.688-.344-.265.015-.656.187-.78.812-.032.14-.032.266-.048.485-.015.187 0 .265-.03.437l-.485.047c-.125.016-.203.031-.188.188 0 .078.078.062.188.062l.468-.063c-.078 1.36-.125 1.844-.125 1.938C1.61.422 1.595.485 1.547.609 1.469.75 1.39.875 1.25.891c-.031 0-.172.015-.266-.016a.368.368 0 0 0 .204-.36C1.171.392 1.046.313.905.329a.336.336 0 0 0-.297.39c.032.345.422.407.672.376.313-.032.516-.328.61-.485.218-.375.265-1.109.265-1.156Zm0 0"/></symbol><symbol overflow="visible" id="q"><path style="stroke:none" d="M1.734-.063c-.015-.14-.03-.328-.218-.312-.204.031-.188.219-.172.36l.562 5.093c.016.14.047.344.235.313.203-.016.171-.204.156-.36Zm0 0"/></symbol><symbol overflow="visible" id="u"><path style="stroke:none" d="M3.656.094c-.047.14-.062.172-.25.297-.39.296-.844.328-1.172.218-.359-.125-.64-.437-.734-.875-.125-.437.031-.937.125-1.218.125-.391.328-.829.672-1.094a1.25 1.25 0 0 1 1.172-.203c.36.11.64.422.75.812.062.172.062.172.015.328Zm.766-2.25c-.016-.063-.266-.64-.922-.86-1.047-.343-2.234.188-2.594 1.282C.546-.672 1.11.469 2.125.812c.61.204 1.125-.03 1.328-.14l-.172.531 1.313.328.093-.265c-.578-.188-.64-.282-.5-.688l1.72-5.172-1.282-.328-.094.266c.578.203.625.281.485.703Zm0 0"/></symbol><symbol overflow="visible" id="v"><path style="stroke:none" d="M4.047-.797c.187.063.219.063.297-.14.281-.875.078-1.829-1.016-2.188-1.015-.344-2.11.281-2.453 1.328C.5-.672 1.109.47 2.141.813 3.187 1.171 3.89.39 3.969.188c.015-.047 0-.11-.078-.141-.094-.031-.125.031-.157.062a1.27 1.27 0 0 1-1.468.485C1.859.469 1.594.109 1.5-.25c-.14-.5.016-1.016.125-1.36ZM1.719-1.828C2.219-3.11 3.03-3 3.266-2.922c.468.156.843.688.5 1.781Zm0 0"/></symbol><symbol overflow="visible" id="w"><path style="stroke:none" d="m3.906-2.484.078-.25-1.234-.407.531-1.578-.234-.078c-.25.719-.828 1.484-1.688 1.234l-.062.204.75.25L1.25-.75C.937.188 1.563.625 2.016.781c.562.188 1.03-.25 1.234-.86l.172-.5-.235-.077-.156.469c-.219.64-.578.843-.875.75-.578-.188-.328-.938-.281-1.094l.797-2.36Zm0 0"/></symbol><symbol overflow="visible" id="B"><path style="stroke:none" d="M6.953-.813c.125.047.281.094.344-.093.062-.188-.11-.235-.25-.281L1.859-2.923c-.125-.047-.312-.11-.375.078-.062.188.11.25.22.281ZM6.343.923c.141.047.313.094.376-.11C6.78.641 6.625.595 6.5.547l-5.25-1.75c-.11-.031-.281-.094-.344.078-.062.203.125.266.25.313Zm0 0"/></symbol><symbol overflow="visible" id="D"><path style="stroke:none" d="m4.422-.203-.234-.078c-.047.11-.282.594-.438.703-.078.031-.656-.156-.828-.219l-1.516-.5 1.11-.516c1.78-.734 2.453-1.015 2.734-1.875.328-.984-.234-1.921-1.281-2.28-.985-.329-1.906.218-2.156.984-.141.437.203.609.28.64.188.063.485 0 .579-.312.094-.25-.016-.5-.281-.578-.047-.016-.063-.032-.125-.032a1.404 1.404 0 0 1 1.515-.468c.86.296.89 1.187.688 1.78-.282.86-1.172 1.345-1.719 1.673L.64-.141C.5-.063.5-.047.438.141l3.25 1.093Zm0 0"/></symbol><symbol overflow="visible" id="E"><path style="stroke:none" d="M4.938-1.39c.187-.563.406-1.313.328-2.048-.11-.921-.688-1.328-1.188-1.484-.516-.172-1.234-.203-1.875.5-.453.484-.734 1.172-.953 1.797-.188.563-.438 1.406-.313 2.188A1.743 1.743 0 0 0 2.11.905c.563.188 1.266.172 1.891-.5.438-.484.719-1.11.938-1.797ZM2.203.702C1.938.61 1.36.297 1.531-.719c.063-.515.313-1.265.469-1.75.203-.578.422-1.25.688-1.687.421-.703 1-.672 1.296-.578.329.109.813.468.72 1.312-.063.485-.282 1.156-.47 1.688-.171.53-.406 1.234-.671 1.718-.5.922-1.141.782-1.36.72Zm0 0"/></symbol><symbol overflow="visible" id="x"><path style="stroke:none" d="M6.438-3.625c.156-.266.187-.328.671-.172.094.031.204.078.266-.078 0 0 .031-.11-.094-.156-.062-.016-.406-.125-.468-.14-.079 0-.344-.095-.5-.141-.204-.079-.422-.172-.625-.235-.204-.062-.407-.156-.61-.219-.062-.015-.172-.062-.219.094-.046.11.032.14.25.219.047.016.266.078.485.172.172.093.234.125.187.25-.015.047-.047.11-.062.156L3.406-.25C2.937.453 2.22.703 1.781.563 1.5.469 1.11.219 1.125-.22c.016.032.031.032.078.047.344.11.656-.11.75-.36.078-.234-.062-.421-.266-.484-.203-.062-.593-.062-.78.485C.718.03 1.061.563 1.733.78c.813.281 1.875 0 2.375-.765Zm0 0"/></symbol><symbol overflow="visible" id="y"><path style="stroke:none" d="M4.938.219c.093.031.25.093.296-.047.063-.156-.093-.219-.187-.25L1.484-1.266c-.109-.03-.234-.078-.296.079-.047.14.078.187.187.218Zm0 0"/></symbol><symbol overflow="visible" id="z"><path style="stroke:none" d="M3.234-2.938c.063-.171.047-.171-.125-.234-.5.25-1.078.063-1.28 0l-.079.219c.14.047.531.172.922.125L1.719.032c-.063.187-.078.265-.672.077L.797.016.719.234c.328.078.781.235 1.094.329.312.109.75.25 1.046.39l.079-.219-.235-.078C2.11.453 2.125.375 2.188.187Zm0 0"/></symbol><symbol overflow="visible" id="G"><path style="stroke:none" d="m3.516.125.078-.219-.672-.218.828-2.5c.047-.141.063-.188-.063-.235-.109-.031-.14 0-.203.047L.656-1.062l-.078.218 1.766.578-.156.47c-.063.171-.079.25-.547.093L1.453.234l-.078.22c.125.046.672.187.922.28.25.079.765.282.875.329l.078-.22-.156-.062C2.609.625 2.625.547 2.688.375l.156-.469ZM3.14-2.531 2.453-.47.891-.984Zm0 0"/></symbol><symbol overflow="visible" id="A"><path style="stroke:none" d="m3.188-1.406.578.203c.109.031.187.062.234-.078.031-.094-.047-.125-.156-.157l-.547-.187c.484-.86.484-.875.562-.984.063-.094.079-.141.188-.188.094-.031.14-.047.234-.015.078.03.172.078.25.14-.14.016-.281.094-.328.235-.047.124.031.25.172.296.14.047.36-.015.438-.25.093-.312-.22-.515-.47-.609-.265-.078-.671-.094-1.046.422-.078.125-.14.25-.25.437-.094.141-.11.22-.219.36l-.453-.157c-.125-.03-.203-.062-.25.094-.031.078.047.11.156.14l.438.141C2.079-.359 1.844.063 1.797.125c-.5.938-.547.984-.625 1.063-.14.109-.266.187-.422.14-.031-.016-.156-.047-.234-.125a.392.392 0 0 0 .328-.25C.89.828.813.72.672.672A.348.348 0 0 0 .234.89c-.109.328.22.546.454.625.312.109.625-.079.78-.172.36-.25.704-.875.72-.922Zm0 0"/></symbol><symbol overflow="visible" id="C"><path style="stroke:none" d="M1.594.672c.047-.14.11-.313-.063-.375-.187-.063-.25.11-.297.25l-1.609 4.86c-.047.124-.11.327.063.39.187.062.25-.125.296-.266Zm0 0"/></symbol><symbol overflow="visible" id="F"><path style="stroke:none" d="M6.375-.031c.172.062.328.11.406-.094.047-.172-.125-.219-.281-.281L1.812-1.97c-.14-.047-.328-.11-.375.063-.078.203.094.265.25.312Zm0 0"/></symbol></defs><path style="fill:none;stroke-width:.79701;stroke-linecap:butt;stroke-linejoin:miter;stroke:#000;stroke-opacity:1;stroke-miterlimit:10" d="M-85.04.001H84.332" transform="matrix(1 0 0 -1 85.438 91.251)"/><path style="fill:none;stroke-width:.6376;stroke-linecap:round;stroke-linejoin:round;stroke:#000;stroke-opacity:1;stroke-miterlimit:10" d="M-1.552 2.071C-1.423 1.294-.002.13.389.001 0-.128-1.423-1.296-1.552-2.073" transform="matrix(1 0 0 -1 169.771 91.251)"/><use xlink:href="#a" x="165.926" y="99.26" style="fill:#000;fill-opacity:1"/><use xlink:href="#b" x="170.559" y="100.754" style="fill:#000;fill-opacity:1"/><path style="fill:none;stroke-width:.79701;stroke-linecap:butt;stroke-linejoin:miter;stroke:#000;stroke-opacity:1;stroke-miterlimit:10" d="M0-85.042V84.333" transform="matrix(1 0 0 -1 85.438 91.251)"/><path style="fill:none;stroke-width:.6376;stroke-linecap:round;stroke-linejoin:round;stroke:#000;stroke-opacity:1;stroke-miterlimit:10" d="M-1.555 2.07C-1.425 1.294 0 .13.387 0 0-.127-1.426-1.295-1.555-2.073" transform="matrix(0 -1 -1 0 85.438 6.918)"/><use xlink:href="#a" x="89.157" y="7.61" style="fill:#000;fill-opacity:1"/><use xlink:href="#c" x="93.79" y="9.104" style="fill:#000;fill-opacity:1"/><path style="fill-rule:nonzero;fill:#b2b2ff;fill-opacity:1;stroke-width:.79701;stroke-linecap:butt;stroke-linejoin:miter;stroke:#000;stroke-opacity:1;stroke-miterlimit:10" d="M0 .001v28.348h28.347V0Zm0 0" transform="matrix(1 0 0 -1 85.438 91.251)"/><use xlink:href="#d" x="4.118" y="18.1" style="fill:#000;fill-opacity:1"/><path style="fill:none;stroke-width:.79701;stroke-linecap:butt;stroke-linejoin:miter;stroke:#000;stroke-opacity:1;stroke-miterlimit:10" d="M104.882 76.536h16.301" transform="matrix(1 0 0 -1 85.438 91.251)"/><path style="fill:none;stroke-width:.6376;stroke-linecap:round;stroke-linejoin:round;stroke:#000;stroke-opacity:1;stroke-miterlimit:10" d="M-1.556 2.074C-1.423 1.297 0 .13.39 0 0-.13-1.423-1.297-1.556-2.07" transform="matrix(1 0 0 -1 206.622 14.715)"/><use xlink:href="#e" x="195.849" y="25.354" style="fill:#000;fill-opacity:1"/><path style="fill:none;stroke-width:.79701;stroke-linecap:butt;stroke-linejoin:miter;stroke:#000;stroke-opacity:1;stroke-miterlimit:10" d="M105.59-76.538h16.3" transform="matrix(1 0 0 -1 85.438 91.251)"/><path style="fill:none;stroke-width:.6376;stroke-linecap:round;stroke-linejoin:round;stroke:#000;stroke-opacity:1;stroke-miterlimit:10" d="M-1.553 2.072C-1.424 1.295.002.131.388.002.002-.131-1.424-1.295-1.553-2.072" transform="matrix(-1 0 0 1 191.029 167.787)"/><use xlink:href="#e" x="190.501" y="179.615" style="fill:#000;fill-opacity:1"/><use xlink:href="#f" x="196.451" y="176" style="fill:#000;fill-opacity:1"/><use xlink:href="#b" x="202.677" y="176" style="fill:#000;fill-opacity:1"/><path style="fill:none;stroke-width:.79701;stroke-linecap:butt;stroke-linejoin:miter;stroke:#000;stroke-opacity:1;stroke-miterlimit:10" d="M141.734.001h169.375" transform="matrix(1 0 0 -1 85.438 91.251)"/><path style="fill:none;stroke-width:.6376;stroke-linecap:round;stroke-linejoin:round;stroke:#000;stroke-opacity:1;stroke-miterlimit:10" d="M-1.554 2.071C-1.424 1.294.001.13.388.001 0-.128-1.425-1.296-1.554-2.073" transform="matrix(1 0 0 -1 396.546 91.251)"/><use xlink:href="#g" x="392.167" y="99.26" style="fill:#000;fill-opacity:1"/><use xlink:href="#b" x="397.861" y="100.754" style="fill:#000;fill-opacity:1"/><path style="fill:none;stroke-width:.79701;stroke-linecap:butt;stroke-linejoin:miter;stroke:#000;stroke-opacity:1;stroke-miterlimit:10" d="M226.777-85.042V84.333" transform="matrix(1 0 0 -1 85.438 91.251)"/><path style="fill:none;stroke-width:.6376;stroke-linecap:round;stroke-linejoin:round;stroke:#000;stroke-opacity:1;stroke-miterlimit:10" d="M-1.555 2.072C-1.425 1.295 0 .131.387-.002 0-.13-1.426-1.295-1.555-2.072" transform="matrix(0 -1 -1 0 312.213 6.918)"/><use xlink:href="#g" x="315.929" y="7.61" style="fill:#000;fill-opacity:1"/><use xlink:href="#b" x="321.622" y="9.104" style="fill:#000;fill-opacity:1"/><path style="fill-rule:nonzero;fill:#ffb2b2;fill-opacity:1;stroke-width:.79701;stroke-linecap:butt;stroke-linejoin:miter;stroke:#000;stroke-opacity:1;stroke-miterlimit:10" d="M226.777.001v56.691h56.691V.001Zm0 0" transform="matrix(1 0 0 -1 85.438 91.251)"/><path style="fill-rule:nonzero;fill:#b2ffb2;fill-opacity:1;stroke-width:.79701;stroke-linecap:butt;stroke-linejoin:miter;stroke:#000;stroke-opacity:1;stroke-miterlimit:10" d="M226.777.001v-56.695h56.691V0Zm0 0" transform="matrix(1 0 0 -1 85.438 91.251)"/><use xlink:href="#h" x="382.875" y="18.1" style="fill:#000;fill-opacity:1"/><path style="fill:none;stroke-width:.79701;stroke-linecap:butt;stroke-linejoin:miter;stroke:maroon;stroke-opacity:1;stroke-dasharray:.79701,1.99255;stroke-miterlimit:10" d="m32.066 28.759 246.98 27.445" transform="matrix(1 0 0 -1 85.438 91.251)"/><path style="fill:none;stroke-width:.6376;stroke-linecap:round;stroke-linejoin:round;stroke:maroon;stroke-opacity:1;stroke-miterlimit:10" d="M-1.554 2.071C-1.424 1.294 0 .131.39.001.002-.13-1.425-1.297-1.554-2.072" transform="scale(.99996 -.99996) rotate(6.339 498.706 3273.57)"/><g style="fill:maroon;fill-opacity:1"><use xlink:href="#i" x="199.464" y="71.805"/><use xlink:href="#j" x="204.552" y="71.24"/><use xlink:href="#k" x="208.627" y="70.787"/></g><use xlink:href="#l" x="213.714" y="70.222" style="fill:maroon;fill-opacity:1"/><use xlink:href="#m" x="219.177" y="65.672" style="fill:maroon;fill-opacity:1"/><use xlink:href="#n" x="224.897" y="65.037" style="fill:maroon;fill-opacity:1"/><use xlink:href="#o" x="219.045" y="72.222" style="fill:maroon;fill-opacity:1"/><use xlink:href="#p" x="232" y="68.191" style="fill:maroon;fill-opacity:1"/><use xlink:href="#q" x="240.232" y="54.194" style="fill:maroon;fill-opacity:1"/><use xlink:href="#q" x="240.826" y="59.541" style="fill:maroon;fill-opacity:1"/><use xlink:href="#q" x="241.42" y="64.888" style="fill:maroon;fill-opacity:1"/><use xlink:href="#q" x="242.014" y="70.235" style="fill:maroon;fill-opacity:1"/><use xlink:href="#r" x="244.11" y="61.282" style="fill:maroon;fill-opacity:1"/><use xlink:href="#s" x="258.59" y="59.674" style="fill:maroon;fill-opacity:1"/><use xlink:href="#s" x="245.32" y="72.173" style="fill:maroon;fill-opacity:1"/><use xlink:href="#r" x="259.8" y="70.564" style="fill:maroon;fill-opacity:1"/><use xlink:href="#q" x="262.345" y="51.738" style="fill:maroon;fill-opacity:1"/><use xlink:href="#q" x="262.939" y="57.085" style="fill:maroon;fill-opacity:1"/><use xlink:href="#q" x="263.533" y="62.432" style="fill:maroon;fill-opacity:1"/><use xlink:href="#q" x="264.127" y="67.779" style="fill:maroon;fill-opacity:1"/><use xlink:href="#m" x="265.648" y="53.649" style="fill:maroon;fill-opacity:1"/><use xlink:href="#n" x="271.368" y="53.013" style="fill:maroon;fill-opacity:1"/><use xlink:href="#p" x="271.592" y="63.792" style="fill:maroon;fill-opacity:1"/><use xlink:href="#n" x="282.042" y="58.935" style="fill:maroon;fill-opacity:1"/><path style="fill:none;stroke-width:.379;stroke-linecap:butt;stroke-linejoin:miter;stroke:maroon;stroke-opacity:1;stroke-miterlimit:10" d="M0-.001 3.654 0" transform="matrix(.99385 -.11041 -.11041 -.99385 282.2 60.358)"/><use xlink:href="#t" x="282.783" y="65.609" style="fill:maroon;fill-opacity:1"/><path style="fill:none;stroke-width:.79701;stroke-linecap:butt;stroke-linejoin:miter;stroke:green;stroke-opacity:1;stroke-dasharray:.79701,1.99255;stroke-miterlimit:10" d="m32.066 27.11 247.012-82.343" transform="matrix(1 0 0 -1 85.438 91.251)"/><path style="fill:none;stroke-width:.6376;stroke-linecap:round;stroke-linejoin:round;stroke:green;stroke-opacity:1;stroke-miterlimit:10" d="M-1.556 2.073C-1.426 1.297.002.13.387-.001.002-.13-1.425-1.297-1.553-2.073" transform="matrix(.94864 .31622 .31622 -.94864 364.516 146.486)"/><g style="fill:green;fill-opacity:1"><use xlink:href="#u" x="186.851" y="106.559"/><use xlink:href="#v" x="191.708" y="108.178"/><use xlink:href="#w" x="195.597" y="109.474"/></g><use xlink:href="#x" x="200.453" y="111.093" style="fill:green;fill-opacity:1"/><use xlink:href="#y" x="207.319" y="109.251" style="fill:green;fill-opacity:1"/><use xlink:href="#z" x="212.78" y="111.071" style="fill:green;fill-opacity:1"/><use xlink:href="#A" x="204.455" y="115.143" style="fill:green;fill-opacity:1"/><use xlink:href="#B" x="217.907" y="116.911" style="fill:green;fill-opacity:1"/><use xlink:href="#C" x="231.246" y="107.653" style="fill:green;fill-opacity:1"/><use xlink:href="#C" x="229.544" y="112.756" style="fill:green;fill-opacity:1"/><use xlink:href="#C" x="227.843" y="117.86" style="fill:green;fill-opacity:1"/><use xlink:href="#C" x="226.142" y="122.964" style="fill:green;fill-opacity:1"/><use xlink:href="#D" x="231.797" y="115.712" style="fill:green;fill-opacity:1"/><use xlink:href="#E" x="249.021" y="121.454" style="fill:green;fill-opacity:1"/><use xlink:href="#E" x="228.332" y="126.109" style="fill:green;fill-opacity:1"/><use xlink:href="#F" x="242.153" y="130.716" style="fill:green;fill-opacity:1"/><use xlink:href="#D" x="248.953" y="132.983" style="fill:green;fill-opacity:1"/><use xlink:href="#C" x="259.153" y="116.955" style="fill:green;fill-opacity:1"/><use xlink:href="#C" x="257.451" y="122.059" style="fill:green;fill-opacity:1"/><use xlink:href="#C" x="255.75" y="127.163" style="fill:green;fill-opacity:1"/><use xlink:href="#C" x="254.049" y="132.266" style="fill:green;fill-opacity:1"/><use xlink:href="#y" x="261.35" y="120.074" style="fill:green;fill-opacity:1"/><use xlink:href="#z" x="266.811" y="121.895" style="fill:green;fill-opacity:1"/><use xlink:href="#B" x="262.497" y="131.775" style="fill:green;fill-opacity:1"/><use xlink:href="#F" x="271.724" y="134.851" style="fill:green;fill-opacity:1"/><use xlink:href="#z" x="280.819" y="134.01" style="fill:green;fill-opacity:1"/><path style="fill:none;stroke-width:.379;stroke-linecap:butt;stroke-linejoin:miter;stroke:green;stroke-opacity:1;stroke-miterlimit:10" d="M0 .001h3.653" transform="matrix(.94864 .31622 .31622 -.94864 280.366 135.368)"/><use xlink:href="#G" x="278.695" y="140.381" style="fill:green;fill-opacity:1"/></svg>