<svg xmlns="http://www.w3.org/2000/svg" xmlns:xlink="http://www.w3.org/1999/xlink" width="540.868" height="248.069" viewBox="0 0 405.651 186.052"><defs><symbol overflow="visible" id="a"><path d="M1.328-.828c.531-.578.828-.828 1.188-1.14 0 0 .609-.532.968-.891.954-.922 1.172-1.407 1.172-1.454 0-.093-.093-.093-.11-.093-.077 0-.093.015-.155.11-.297.484-.5.64-.735.64-.25 0-.36-.156-.515-.328-.188-.22-.36-.422-.688-.422-.75 0-1.203.922-1.203 1.14 0 .047.031.11.11.11.093 0 .109-.047.14-.11.188-.468.766-.468.844-.468.203 0 .39.062.625.14.406.156.515.156.765.156-.359.422-1.187 1.141-1.375 1.297l-.906.844C.781-.625.422-.063.422.016c0 .093.11.093.125.093C.625.11.64.094.703-.016c.235-.359.531-.625.86-.625.218 0 .328.094.578.375.156.22.343.375.625.375 1 0 1.578-1.265 1.578-1.53 0-.048-.047-.11-.125-.11-.094 0-.11.062-.14.14-.235.641-.876.829-1.204.829-.188 0-.375-.063-.578-.125-.344-.125-.5-.172-.703-.172-.016 0-.172 0-.266.03zm0 0"/></symbol><symbol overflow="visible" id="e"><path d="M3.656-3.984h.86c.203 0 .296 0 .296-.204 0-.109-.093-.109-.265-.109h-.828l.203-1.14c.047-.204.187-.907.25-1.032.078-.187.25-.343.469-.343.03 0 .296 0 .484.187a.557.557 0 0 0-.547.531c0 .235.188.36.375.36.266 0 .547-.235.547-.61 0-.453-.453-.687-.86-.687-.343 0-.968.187-1.265 1.172-.063.203-.094.312-.328 1.562h-.688c-.203 0-.312 0-.312.188 0 .125.094.125.281.125h.656L2.25-.047c-.188.969-.36 1.875-.875 1.875-.047 0-.281 0-.484-.187.468-.032.562-.391.562-.532 0-.234-.187-.359-.375-.359-.266 0-.547.234-.547.61 0 .437.438.687.844.687.547 0 .953-.594 1.125-.969.328-.625.547-1.828.563-1.906zm0 0"/></symbol><symbol overflow="visible" id="g"><path d="M3.328-3.016c.063-.25.297-1.171.985-1.171.046 0 .296 0 .5.125a.578.578 0 0 0-.47.546c0 .157.11.344.376.344a.546.546 0 0 0 .531-.578c0-.516-.578-.656-.922-.656-.578 0-.922.531-1.047.75-.25-.656-.781-.75-1.078-.75-1.031 0-1.61 1.281-1.61 1.531 0 .11.11.11.126.11.078 0 .11-.032.125-.11.344-1.063 1-1.313 1.344-1.313.187 0 .53.094.53.672 0 .313-.171.97-.53 2.375-.157.61-.516 1.032-.954 1.032-.062 0-.28 0-.5-.125.25-.063.47-.266.47-.547 0-.266-.22-.344-.36-.344-.313 0-.547.25-.547.578 0 .453.484.656.922.656.672 0 1.031-.703 1.047-.75.125.36.484.75 1.078.75 1.031 0 1.594-1.28 1.594-1.53 0-.11-.079-.11-.11-.11-.094 0-.11.047-.14.11-.329 1.077-1 1.312-1.313 1.312-.39 0-.547-.313-.547-.657 0-.218.047-.437.156-.875zm0 0"/></symbol><symbol overflow="visible" id="b"><path d="M2.328-4.438c0-.187 0-.187-.203-.187-.453.438-1.078.438-1.36.438v.25c.157 0 .626 0 1-.188v3.547c0 .234 0 .328-.687.328H.812V0c.125 0 .985-.031 1.235-.031.219 0 1.094.031 1.25.031v-.25H3.03c-.703 0-.703-.094-.703-.328zm0 0"/></symbol><symbol overflow="visible" id="c"><path d="M3.516-1.266H3.28c-.015.157-.094.563-.187.625-.047.047-.578.047-.688.047H1.125c.734-.64.984-.844 1.39-1.172.516-.406 1-.843 1-1.5 0-.843-.734-1.359-1.624-1.359-.86 0-1.454.61-1.454 1.25 0 .344.297.39.376.39.156 0 .359-.124.359-.374 0-.125-.047-.375-.406-.375.218-.485.687-.641 1.015-.641.703 0 1.063.547 1.063 1.11 0 .609-.438 1.078-.656 1.328L.516-.266C.437-.203.437-.187.437 0h2.876zm0 0"/></symbol><symbol overflow="visible" id="d"><path d="M8.36-7.797c.078-.078.14-.156.14-.266 0-.093-.016-.093-.281-.093H3.28c-.281 0-.297 0-.36.219l-.655 2.156c-.047.11-.047.14-.047.156 0 .063.047.125.125.125.094 0 .125-.047.172-.203C2.953-7 3.53-7.813 5.422-7.813H7.39L.844-.405c-.11.125-.156.172-.156.312C.688 0 .734 0 .968 0h5.11c.266 0 .281-.016.36-.234l.828-2.641a.462.462 0 0 0 .03-.156c0-.063-.046-.125-.109-.125-.093 0-.109.015-.203.312-.5 1.547-1.03 2.469-3.109 2.469H1.812zm0 0"/></symbol><symbol overflow="visible" id="h"><path d="M5.672-4.86L4.547-7.468c.156-.281.516-.343.672-.343.062 0 .203-.016.203-.22 0-.124-.11-.124-.188-.124-.203 0-.437.015-.64.015H3.89c-.72 0-1.25-.015-1.266-.015-.094 0-.203 0-.203.219 0 .125.094.125.25.125.703 0 .75.109.86.406l1.421 3.312L2.36-1.312c-.421.468-.937.921-1.828.968-.14.016-.234.016-.234.219 0 .047.016.125.14.125.172 0 .344-.031.516-.031h.563c.39 0 .796.031 1.171.031.079 0 .235 0 .235-.219 0-.11-.094-.125-.156-.125-.25-.031-.407-.156-.407-.344 0-.203.157-.359.5-.718l1.063-1.157c.265-.265.89-.968 1.156-1.234l1.25 2.953c.016.016.063.14.063.156 0 .11-.266.313-.641.344-.078 0-.203.016-.203.219 0 .125.125.125.172.125.203 0 .453-.031.656-.031h1.313c.218 0 .437.031.64.031.094 0 .219 0 .219-.234 0-.11-.125-.11-.235-.11-.703-.015-.734-.078-.937-.515L5.797-4.563l1.516-1.625c.125-.125.39-.421.5-.546.515-.532 1-1.016 1.968-1.079.11-.015.235-.015.235-.218 0-.125-.11-.125-.157-.125-.171 0-.343.015-.515.015h-.547c-.375 0-.797-.015-1.172-.015-.078 0-.219 0-.219.203 0 .125.078.14.14.14.204.016.407.11.407.344l-.016.016c-.015.094-.03.203-.171.36zm0 0"/></symbol><symbol overflow="visible" id="f"><path d="M5.188-1.578c.109 0 .28 0 .28-.156 0-.188-.171-.188-.28-.188H1.03c-.11 0-.281 0-.281.172s.156.172.281.172zm0 0"/></symbol><symbol overflow="visible" id="i"><path d="M3.703-.969l.078.656L5.22-.578l-.032-.313c-.687.079-.796.016-.843-.484l-.672-6-1.39.266.03.312c.688-.062.782-.016.829.469l.234 2.14a1.595 1.595 0 0 0-1.313-.468C.891-4.531-.03-3.438.11-2.156c.141 1.25 1.204 2.125 2.344 2 .64-.078 1.031-.469 1.25-.813zm-.297-2.656l.235 2.031c.015.172.015.188-.079.375-.234.516-.656.782-1.093.828-.453.063-.844-.171-1.11-.515-.28-.39-.375-.922-.421-1.344-.047-.36-.094-.953.125-1.438.187-.328.515-.703 1.062-.75a1.3 1.3 0 0 1 1.14.454c.126.156.126.171.141.359zm0 0"/></symbol><symbol overflow="visible" id="j"><path d="M.828-2.625c-.094-1.469.703-1.813 1.047-1.86C2.891-4.593 3.141-3.28 3.188-2.89zm.031.219l2.75-.297c.22-.031.25-.031.22-.25-.11-.985-.75-1.875-1.985-1.75-1.14.125-1.938 1.25-1.797 2.5C.187-.891 1.328-.031 2.469-.156 3.688-.296 4-1.453 3.984-1.641c-.015-.078-.093-.109-.156-.093-.078 0-.11.062-.11.14C3.5-.53 2.595-.437 2.5-.422c-.5.063-.922-.203-1.203-.547C.969-1.39.89-2.047.859-2.406zm0 0"/></symbol><symbol overflow="visible" id="k"><path d="M1.266-4.14l1.437-.157-.031-.312-1.438.156-.203-1.828-.25.031C.86-5.437.703-4.344-.28-4.187l.031.218.844-.094.297 2.72C1.03-.126 1.969-.11 2.328-.142c.703-.078.906-.812.828-1.453l-.062-.547-.25.016.062.531c.078.735-.172 1.14-.547 1.188-.671.078-.765-.828-.796-1zm0 0"/></symbol><symbol overflow="visible" id="p"><path d="M6.438-4c.156-.016.343-.047.328-.234-.032-.204-.22-.172-.36-.157l-5.922.657c-.14.015-.328.03-.296.234.015.188.203.172.343.156zm.234 1.938c.14-.016.328-.047.297-.25-.016-.188-.203-.157-.36-.141l-5.906.656c-.14.016-.328.031-.312.219.03.203.218.187.359.172zm0 0"/></symbol><symbol overflow="visible" id="r"><path d="M1.188-.906l.921-1.125C3.5-3.578 4.031-4.187 3.922-5.171 3.797-6.313 2.828-6.985 1.609-6.86a1.838 1.838 0 0 0-1.64 2c.062.546.562.5.594.5.171-.032.484-.172.437-.594-.031-.25-.25-.5-.578-.453-.078 0-.094 0-.125.031.156-.688.64-1.11 1.219-1.172.906-.094 1.421.672 1.515 1.484.078.797-.312 1.61-.812 2.297L.563-.437C.469-.329.469-.297.5-.064l3.672-.406.078-1.75-.234.031c-.032.313-.047.735-.141.907-.047.078-.688.156-.906.172zm0 0"/></symbol><symbol overflow="visible" id="s"><path d="M4.188-3.672c-.079-.781-.22-1.578-.641-2.281-.547-.89-1.39-.969-1.797-.922C1.14-6.797.469-6.469.14-5.5c-.234.719-.187 1.5-.109 2.281.094.75.219 1.64.719 2.344a1.82 1.82 0 0 0 1.75.813c.531-.047 1.266-.344 1.578-1.344.25-.703.203-1.485.11-2.266zm-1.72 3.39c-.39.048-1.015-.14-1.296-1.062-.156-.578-.25-1.5-.313-2.093C.781-4.064.703-4.72.72-5.25c.047-1.203.797-1.375 1.047-1.406.328-.032 1 .062 1.296 1.031.172.547.25 1.297.329 1.906.078.75.156 1.422.109 2.063-.047.968-.578 1.328-1.031 1.375zm0 0"/></symbol><symbol overflow="visible" id="l"><path d="M4.688-6.64c.046-.329.062-.423.609-.485.156-.016.266-.031.25-.219-.016-.093-.078-.11-.156-.11-.25.032-.86.126-1.11.157-.328.047-1.14.094-1.453.14-.078 0-.203.016-.187.22.015.109.093.093.359.078.203-.032.313-.047.563-.047.234 0 .312.015.328.14 0 .063-.016.141-.016.22l-.64 4.687C3.108-.891 2.5-.281 1.984-.22c-.266.032-.798-.015-1-.515h.124c.375-.047.579-.422.547-.72-.031-.296-.312-.374-.484-.359-.156.016-.64.204-.563.86.063.625.657 1.031 1.438.953.906-.11 1.86-.875 2-1.875zm0 0"/></symbol><symbol overflow="visible" id="m"><path d="M4.984-2.14c.11 0 .282-.032.266-.188-.031-.188-.203-.156-.313-.156l-4.125.468c-.109 0-.28.032-.25.204.016.171.172.156.297.14zm0 0"/></symbol><symbol overflow="visible" id="n"><path d="M1.828-4.656c-.031-.188-.031-.188-.234-.172-.407.484-1.016.562-1.297.594l.031.25c.156-.032.61-.079.969-.297l.39 3.515c.032.235.032.329-.64.391L.78-.344l.031.25c.125-.015.97-.14 1.22-.156.218-.031 1.093-.094 1.25-.11L3.25-.61l-.266.032c-.703.078-.703-.016-.734-.25zm0 0"/></symbol><symbol overflow="visible" id="t"><path d="M3.547-1.547l-.031-.234-.782.078-.343-3.094c-.016-.14-.016-.203-.157-.187-.093.015-.125.015-.171.14L.109-1.406l.032.234 2.046-.219.063.563c.031.25.031.328-.547.39l-.187.016.03.25c.36-.062.798-.125 1.048-.14.265-.032.703-.063 1.062-.094l-.031-.25-.188.015c-.578.063-.578-.015-.609-.265l-.062-.563zM1.922-4.172l.281 2.531-1.828.204zm0 0"/></symbol><symbol overflow="visible" id="o"><path d="M2.531-3.047l.672-.078c.14-.016.235-.016.203-.172 0-.094-.094-.094-.219-.078l-.64.078c.062-.906.062-1.219.11-1.422.015-.172.155-.328.327-.343 0 0 .188-.016.313.046-.266.125-.25.375-.25.407.015.156.156.25.312.234.172-.016.36-.203.329-.469-.032-.328-.391-.453-.735-.422-.312.032-.625.25-.781.61-.11.281-.125.578-.188 1.422l-.546.046c-.141.016-.235.032-.22.188.016.094.11.078.235.078l.516-.062c0 .046-.157 2.578-.25 3.343-.016.157-.078.688-.39.735-.016 0-.173.015-.329-.047.266-.125.281-.375.266-.406C1.25.484 1.125.375.969.406A.39.39 0 0 0 .625.86c.031.313.375.454.719.422.422-.047.687-.531.75-.687.187-.5.265-1.375.281-1.453zm0 0"/></symbol><symbol overflow="visible" id="q"><path d="M2.078 5.64c.016.157.047.36.25.329.219-.016.188-.219.172-.375l-.625-5.64c-.016-.157-.031-.36-.234-.345-.22.032-.204.22-.188.391zm0 0"/></symbol><symbol overflow="visible" id="u"><path d="M3.766.688l-.204.625 1.422.343.094-.297c-.656-.218-.719-.312-.562-.78l1.906-5.735L5.047-5.5l-.094.297c.656.219.688.297.531.781L4.813-2.39a1.616 1.616 0 0 0-.985-.984C2.703-3.75 1.406-3.141 1-1.922.61-.719 1.219.531 2.297.891c.61.203 1.125 0 1.469-.204zm.843-2.532L3.97.094c-.063.156-.063.172-.235.297-.421.359-.921.421-1.328.296C1.97.531 1.72.172 1.61-.265c-.109-.453.047-.984.172-1.39.125-.344.328-.907.735-1.235.296-.234.765-.421 1.28-.25.329.11.688.375.829.891.047.203.047.219-.016.406zm0 0"/></symbol><symbol overflow="visible" id="v"><path d="M1.844-2.047C2.375-3.422 3.25-3.39 3.578-3.28c.969.312.656 1.64.531 2zm-.078.219l2.64.89c.219.063.235.079.313-.14.312-.938.093-2.016-1.078-2.406-1.094-.375-2.282.312-2.688 1.5C.531-.72 1.234.53 2.313.89c1.156.39 1.921-.532 1.984-.704.031-.093-.016-.156-.078-.171-.078-.032-.14.03-.172.093C3.39.97 2.53.688 2.453.656 1.97.5 1.703.094 1.578-.328c-.125-.547.078-1.172.188-1.5zm0 0"/></symbol><symbol overflow="visible" id="w"><path d="M2.89-3.234l1.376.453.093-.297-1.375-.453.579-1.735-.235-.078c-.25.766-.875 1.688-1.828 1.422l-.063.203.813.266-.875 2.61C.985.311 1.844.733 2.172.843c.672.219 1.156-.36 1.36-.969l.171-.531-.234-.078-.172.515c-.235.703-.625.953-.985.828-.64-.203-.359-1.062-.296-1.218zm0 0"/></symbol><symbol overflow="visible" id="B"><path d="M7.531-.922c.14.047.313.094.375-.094.063-.187-.11-.234-.25-.28L2-3.188c-.125-.047-.313-.11-.375.078-.063.187.125.25.25.296zM6.921.906c.141.047.313.094.376-.094.062-.171-.11-.218-.25-.265L1.39-1.343c-.125-.048-.313-.11-.375.062-.063.187.125.25.25.297zm0 0"/></symbol><symbol overflow="visible" id="D"><path d="M1.438-.313l1.328-.656c1.906-.828 2.64-1.14 2.953-2.094.36-1.078-.235-2.109-1.39-2.484A1.83 1.83 0 0 0 2-4.422c-.172.516.313.672.344.688.156.046.515.046.64-.344a.49.49 0 0 0-.328-.64c-.078-.032-.094-.032-.125-.048a1.43 1.43 0 0 1 1.594-.53c.86.296 1 1.187.734 1.952-.25.766-.953 1.344-1.671 1.766L.703-.172C.547-.094.547-.062.47.156l3.515 1.172.797-1.562-.218-.063c-.157.25-.344.64-.5.766C3.969.53 3.343.313 3.14.25zm0 0"/></symbol><symbol overflow="visible" id="E"><path d="M5.36-1.578c.25-.75.452-1.516.359-2.328-.125-1.063-.875-1.469-1.25-1.594-.578-.203-1.344-.172-2.032.563-.515.562-.796 1.28-1.046 2.03-.25.72-.5 1.579-.344 2.438.156.89.781 1.297 1.25 1.453.5.172 1.297.235 2-.546.516-.547.812-1.266 1.062-2.016zm-3 2.36c-.376-.126-.86-.548-.72-1.5.079-.595.376-1.47.563-2.032.203-.61.406-1.234.656-1.719.547-1.062 1.297-.922 1.532-.843.312.109.875.484.734 1.484-.063.562-.297 1.281-.5 1.875-.234.703-.453 1.344-.766 1.922-.437.86-1.078.953-1.5.812zm0 0"/></symbol><symbol overflow="visible" id="x"><path d="M7.031-4.063c.188-.28.25-.375.766-.203.156.063.25.094.297-.078.031-.093-.016-.156-.078-.172-.235-.078-.829-.234-1.079-.328-.312-.093-1.062-.39-1.375-.484-.078-.031-.187-.063-.25.14-.03.094.047.11.297.204.204.062.313.093.532.187.218.11.265.156.218.297-.015.047-.046.11-.093.188L3.719-.345C3.203.516 2.39.796 1.89.625c-.25-.078-.72-.344-.688-.89 0 .03.063.046.094.062.375.125.719-.125.812-.406.11-.297-.109-.5-.28-.547-.157-.063-.673-.094-.876.547C.75-.016 1.11.594 1.86.844c.86.281 2.063 0 2.61-.844zm0 0"/></symbol><symbol overflow="visible" id="y"><path d="M5.422.14c.11.032.266.094.312-.046.063-.188-.093-.25-.203-.281L1.594-1.5c-.11-.031-.266-.094-.328.078-.047.156.093.203.218.25zm0 0"/></symbol><symbol overflow="visible" id="z"><path d="M3.61-3.469c.062-.187.062-.187-.126-.25-.562.281-1.156.078-1.437-.015l-.078.234c.156.063.593.203 1 .156L1.859.016c-.078.218-.109.312-.765.093L.844.016.766.25c.125.047.953.281 1.187.36.219.078 1.031.39 1.172.437l.078-.234-.25-.094C2.281.5 2.313.406 2.391.188zm0 0"/></symbol><symbol overflow="visible" id="F"><path d="M3.86.094l.078-.235-.75-.25.984-2.953c.047-.14.062-.203-.063-.25-.093-.031-.125-.047-.203.047L.687-1.234.61-1l1.954.656-.172.531c-.079.235-.11.313-.657.126L1.563.266 1.484.5c.344.094.766.219 1 .297.266.078.657.234 1 .36l.079-.235L3.39.875c-.563-.188-.532-.266-.454-.5l.172-.531zM3.5-2.984L2.687-.563.938-1.14zm0 0"/></symbol><symbol overflow="visible" id="A"><path d="M3.578-1.703l.625.203c.14.047.234.078.281-.063.032-.093-.062-.125-.187-.171l-.594-.188c.422-.797.563-1.078.688-1.266.078-.124.265-.218.421-.171 0 0 .188.062.297.187-.312 0-.406.219-.421.25-.047.14.046.297.187.344.188.062.422-.016.5-.281.11-.297-.156-.579-.5-.688-.297-.094-.656-.031-.953.219-.219.219-.36.5-.766 1.219l-.515-.172c-.125-.047-.22-.078-.266.062-.031.094.063.125.172.172l.5.156C3.03-1.844 1.812.391 1.422 1.047c-.078.14-.375.594-.688.484A.556.556 0 0 1 .47 1.36c.297 0 .406-.234.422-.265C.937.954.859.812.703.75a.44.44 0 0 0-.515.281c-.094.297.156.578.484.688.422.14.86-.188.984-.313.39-.36.813-1.125.86-1.187zm0 0"/></symbol><symbol overflow="visible" id="C"><path d="M-.469 5.984c-.047.141-.11.344.094.422.203.063.266-.14.313-.281L1.734.735c.047-.141.11-.329-.078-.391-.218-.078-.281.094-.328.25zm0 0"/></symbol></defs><path d="M.398 92.43H169.77" fill="none" stroke-width="0.79701" stroke="rgb(0%,0%,0%)" stroke-miterlimit="10"/><path d="M168.219 90.36c.129.777 1.55 1.94 1.941 2.07-.39.129-1.812 1.297-1.941 2.074" fill="none" stroke-width="0.6376" stroke-linecap="round" stroke-linejoin="round" stroke="rgb(0%,0%,0%)" stroke-miterlimit="10"/><use xlink:href="#a" x="165.926" y="100.439" fill="rgb(0%,0%,0%)"/><use xlink:href="#b" x="170.559" y="101.933" fill="rgb(0%,0%,0%)"/><path d="M85.438 177.469V8.098" fill="none" stroke-width="0.79701" stroke="rgb(0%,0%,0%)" stroke-miterlimit="10"/><path d="M83.367 9.652c.778-.129 1.942-1.554 2.07-1.945.13.39 1.297 1.816 2.075 1.945" fill="none" stroke-width="0.6376" stroke-linecap="round" stroke-linejoin="round" stroke="rgb(0%,0%,0%)" stroke-miterlimit="10"/><use xlink:href="#a" x="89.157" y="8.789" fill="rgb(0%,0%,0%)"/><use xlink:href="#c" x="93.79" y="10.283" fill="rgb(0%,0%,0%)"/><path d="M85.438 92.43V64.082h28.347V92.43zm0 0" fill="rgb(69.999695%,69.999695%,100%)" stroke-width="0.79701" stroke="rgb(0%,0%,0%)" stroke-miterlimit="10"/><use xlink:href="#d" x="4.118" y="19.279" fill="rgb(0%,0%,0%)"/><path d="M190.32 15.895h16.301" fill="none" stroke-width="0.79701" stroke="rgb(0%,0%,0%)" stroke-miterlimit="10"/><path d="M205.066 13.82c.133.778 1.555 1.946 1.946 2.075-.39.128-1.813 1.293-1.946 2.07" fill="none" stroke-width="0.6376" stroke-linecap="round" stroke-linejoin="round" stroke="rgb(0%,0%,0%)" stroke-miterlimit="10"/><use xlink:href="#e" x="195.849" y="10.239" fill="rgb(0%,0%,0%)"/><path d="M191.027 168.965h16.301" fill="none" stroke-width="0.79701" stroke="rgb(0%,0%,0%)" stroke-miterlimit="10"/><path d="M192.582 171.04c-.129-.778-1.555-1.942-1.941-2.075.386-.13 1.812-1.293 1.941-2.07" fill="none" stroke-width="0.6376" stroke-linecap="round" stroke-linejoin="round" stroke="rgb(0%,0%,0%)" stroke-miterlimit="10"/><use xlink:href="#e" x="190.501" y="180.794" fill="rgb(0%,0%,0%)"/><use xlink:href="#f" x="196.451" y="177.179" fill="rgb(0%,0%,0%)"/><use xlink:href="#b" x="202.677" y="177.179" fill="rgb(0%,0%,0%)"/><path d="M227.172 92.43h169.375" fill="none" stroke-width="0.79701" stroke="rgb(0%,0%,0%)" stroke-miterlimit="10"/><path d="M394.992 90.36c.13.777 1.555 1.94 1.942 2.07-.387.129-1.813 1.297-1.942 2.074" fill="none" stroke-width="0.6376" stroke-linecap="round" stroke-linejoin="round" stroke="rgb(0%,0%,0%)" stroke-miterlimit="10"/><use xlink:href="#g" x="392.167" y="100.439" fill="rgb(0%,0%,0%)"/><use xlink:href="#b" x="397.861" y="101.933" fill="rgb(0%,0%,0%)"/><path d="M312.215 177.469V8.098" fill="none" stroke-width="0.79701" stroke="rgb(0%,0%,0%)" stroke-miterlimit="10"/><path d="M310.14 9.652c.778-.129 1.942-1.554 2.075-1.945.129.39 1.293 1.816 2.07 1.945" fill="none" stroke-width="0.6376" stroke-linecap="round" stroke-linejoin="round" stroke="rgb(0%,0%,0%)" stroke-miterlimit="10"/><use xlink:href="#g" x="315.929" y="8.789" fill="rgb(0%,0%,0%)"/><use xlink:href="#b" x="321.622" y="10.283" fill="rgb(0%,0%,0%)"/><path d="M312.215 92.43V35.738h56.691V92.43zm0 0" fill="rgb(100%,69.999695%,69.999695%)" stroke-width="0.79701" stroke="rgb(0%,0%,0%)" stroke-miterlimit="10"/><path d="M312.215 92.43v56.695h56.691V92.43zm0 0" fill="rgb(69.999695%,100%,69.999695%)" stroke-width="0.79701" stroke="rgb(0%,0%,0%)" stroke-miterlimit="10"/><use xlink:href="#h" x="382.875" y="19.279" fill="rgb(0%,0%,0%)"/><path d="M117.504 63.672l246.98-27.445" fill="none" stroke-width="0.79701" stroke="rgb(50%,0%,0%)" stroke-dasharray="0.79701,1.99255" stroke-miterlimit="10"/><path d="M362.71 34.34c.216.758 1.759 1.758 2.161 1.844-.371.171-1.66 1.488-1.703 2.273" fill="none" stroke-width=".6375744959999999" stroke-linecap="round" stroke-linejoin="round" stroke="rgb(50%,0%,0%)" stroke-miterlimit="10"/><g fill="rgb(50%,0%,0%)"><use xlink:href="#i" x="188.77" y="42.487"/><use xlink:href="#j" x="194.271" y="41.876"/><use xlink:href="#k" x="198.671" y="41.387"/></g><use xlink:href="#l" x="204.172" y="40.776" fill="rgb(50%,0%,0%)"/><use xlink:href="#m" x="210.144" y="35.824" fill="rgb(50%,0%,0%)"/><use xlink:href="#n" x="216.333" y="35.137" fill="rgb(50%,0%,0%)"/><use xlink:href="#o" x="209.994" y="43.152" fill="rgb(50%,0%,0%)"/><use xlink:href="#p" x="223.995" y="38.574" fill="rgb(50%,0%,0%)"/><use xlink:href="#q" x="232.851" y="23.056" fill="rgb(50%,0%,0%)"/><use xlink:href="#q" x="233.511" y="28.997" fill="rgb(50%,0%,0%)"/><use xlink:href="#q" x="234.171" y="34.937" fill="rgb(50%,0%,0%)"/><use xlink:href="#q" x="234.831" y="40.878" fill="rgb(50%,0%,0%)"/><use xlink:href="#r" x="237.076" y="31.006" fill="rgb(50%,0%,0%)"/><use xlink:href="#s" x="251.928" y="29.356" fill="rgb(50%,0%,0%)"/><use xlink:href="#s" x="238.396" y="42.888" fill="rgb(50%,0%,0%)"/><use xlink:href="#r" x="253.248" y="41.238" fill="rgb(50%,0%,0%)"/><use xlink:href="#q" x="255.955" y="20.489" fill="rgb(50%,0%,0%)"/><use xlink:href="#q" x="256.615" y="26.43" fill="rgb(50%,0%,0%)"/><use xlink:href="#q" x="257.275" y="32.37" fill="rgb(50%,0%,0%)"/><use xlink:href="#q" x="257.935" y="38.312" fill="rgb(50%,0%,0%)"/><use xlink:href="#m" x="259.527" y="22.57" fill="rgb(50%,0%,0%)"/><use xlink:href="#n" x="265.716" y="21.883" fill="rgb(50%,0%,0%)"/><use xlink:href="#p" x="274.231" y="32.993" fill="rgb(50%,0%,0%)"/><use xlink:href="#n" x="285.437" y="27.801" fill="rgb(50%,0%,0%)"/><path d="M285.594 29.223l3.949-.438" fill="none" stroke-width=".39798408" stroke="rgb(50%,0%,0%)" stroke-miterlimit="10"/><use xlink:href="#t" x="286.249" y="35.114" fill="rgb(50%,0%,0%)"/><path d="M117.504 65.32l247.012 82.344" fill="none" stroke-width="0.79701" stroke="rgb(0%,50%,0%)" stroke-dasharray="0.79701,1.99255" stroke-miterlimit="10"/><path d="M363.695 145.207c-.12.777.864 2.336 1.188 2.582-.406 0-2.13.652-2.496 1.352" fill="none" stroke-width=".6375744959999999" stroke-linecap="round" stroke-linejoin="round" stroke="rgb(0%,50%,0%)" stroke-miterlimit="10"/><g fill="rgb(0%,50%,0%)"><use xlink:href="#u" x="186.164" y="109.498"/><use xlink:href="#v" x="191.415" y="111.248"/><use xlink:href="#w" x="195.615" y="112.648"/></g><use xlink:href="#x" x="200.866" y="114.399" fill="rgb(0%,50%,0%)"/><use xlink:href="#y" x="208.363" y="112.407" fill="rgb(0%,50%,0%)"/><use xlink:href="#z" x="214.27" y="114.375" fill="rgb(0%,50%,0%)"/><use xlink:href="#A" x="205.156" y="118.997" fill="rgb(0%,50%,0%)"/><use xlink:href="#B" x="219.788" y="120.706" fill="rgb(0%,50%,0%)"/><use xlink:href="#C" x="234.332" y="110.327" fill="rgb(0%,50%,0%)"/><use xlink:href="#C" x="232.441" y="115.998" fill="rgb(0%,50%,0%)"/><use xlink:href="#C" x="230.551" y="121.669" fill="rgb(0%,50%,0%)"/><use xlink:href="#C" x="228.661" y="127.339" fill="rgb(0%,50%,0%)"/><use xlink:href="#D" x="234.836" y="119.317" fill="rgb(0%,50%,0%)"/><use xlink:href="#E" x="249.012" y="124.042" fill="rgb(0%,50%,0%)"/><use xlink:href="#E" x="231.055" y="130.658" fill="rgb(0%,50%,0%)"/><use xlink:href="#D" x="245.232" y="135.383" fill="rgb(0%,50%,0%)"/><use xlink:href="#C" x="256.384" y="117.678" fill="rgb(0%,50%,0%)"/><use xlink:href="#C" x="254.493" y="123.349" fill="rgb(0%,50%,0%)"/><use xlink:href="#C" x="252.603" y="129.02" fill="rgb(0%,50%,0%)"/><use xlink:href="#C" x="250.713" y="134.69" fill="rgb(0%,50%,0%)"/><use xlink:href="#y" x="258.755" y="121.065" fill="rgb(0%,50%,0%)"/><use xlink:href="#z" x="264.662" y="123.034" fill="rgb(0%,50%,0%)"/><use xlink:href="#B" x="267.738" y="136.69" fill="rgb(0%,50%,0%)"/><use xlink:href="#z" x="280.088" y="136.673" fill="rgb(0%,50%,0%)"/><path d="M279.637 138.031l3.765 1.254" fill="none" stroke-width=".39798408" stroke="rgb(0%,50%,0%)" stroke-miterlimit="10"/><use xlink:href="#F" x="277.761" y="143.653" fill="rgb(0%,50%,0%)"/></svg>