<svg xmlns="http://www.w3.org/2000/svg" xmlns:xlink="http://www.w3.org/1999/xlink" width="248.757" height="242.953" viewBox="0 0 186.568 182.215"><defs><symbol overflow="visible" id="a"><path d="M5.719-6.984c-.094-.141-.094-.157-.235-.157-.687 0-1.906.282-2.421 1.125-.157-.28-.641-1.015-1.391-1.015-.688 0-1.125.625-1.125 1.203 0 .375.234.625.515.906.547.563.547.719.547 1.094 0 .594-.046 1.187-.484 1.187-.266 0-.313-.375-.328-.546 0-.079-.016-.157-.125-.157-.125 0-.125.11-.125.14 0 .188.094.782.578.782.813 0 .813-1.281.813-1.5 0-.312-.032-.687-.704-1.312-.28-.25-.39-.391-.39-.625 0-.422.297-.954.812-.954.516 0 .922.782.922 1.954v2.937c0 .094 0 1.922-.656 1.922-.36 0-.734-.313-.938-.938.016 0 .22-.062.22-.156 0-.062-.079-.11-.11-.11a1.01 1.01 0 0 0-.203.063C.875-1.203.828-1.312.75-1.312c-.047 0-.125.093-.125.14 0 .031.016.094.047.125-.063.016-.219.063-.219.156 0 .047.063.11.11.11A.88.88 0 0 0 .75-.844C1.063.016 1.578.22 1.922.22c.703 0 1.5-.906 1.5-2.938v-.719h1.14l.125 2.188c0 .063-.03.14-.03.328 0 .594.484 1.14 1.155 1.14.125 0 .157 0 .344-.14l.719-.562C6.985-.578 7-.594 7-.625c0-.078-.156-.14-.188-.14-.046 0-.406.28-.859.656A.946.946 0 0 1 5.5-.922c0-.187.031-.219.031-.328 0-.297-.047-.813-.062-1.125-.016-.203-.063-1-.063-1.14.563-.172 1.64-.813 1.657-.829a.106.106 0 0 0 .062-.093c0-.016-.063-.141-.078-.141zM6.28-4.25c-.922.5-1.125.5-1.422.5H3.422v-.484c0-.688-.094-1.079-.203-1.391.344-.953 1.64-1.14 1.64-1.14.032 0 .079.109.094.109zm0 0"/></symbol><symbol overflow="visible" id="f"><path d="M2.86-3.344c0-.078-.063-.11-.094-.11C1.25-3.546.859-4.546.859-5.14c0-.984.907-1.671 1.813-1.671.562 0 .89.359 1.312.906.454.562.938 1.172 1.782 1.172.703 0 1.14-.313 1.14-.704 0-.125-.093-.125-.156-.125-.125 0-.14.047-.156.141-.078.469-.782.469-.797.469-.14 0-.203-.031-.36-.328-.89-1.64-2.312-1.75-2.718-1.75-1.219 0-2.172.843-2.172 1.89 0 1.235 1.234 1.907 2.14 1.907.063 0 .172 0 .172-.11zM.812-1.828c-.172 0-.266 0-.266.11 0 .03 0 .109.094.109.343.03.671.046 1.437.75C3.141.109 3.36.109 4.156.109c.516 0 .938 0 1.422-.343.36-.235.64-.641.64-1.141 0-.36-.14-.563-.5-.969-.39-.437-.421-.61-.421-.844 0-.421.11-.89.469-.89.015 0 .75 0 .828.703.015.063.031.125.156.125s.156-.047.156-.14c0-.422-.453-.907-1.156-.907-.719 0-1.297.516-1.297 1.14 0 .407.234.657.531 1 .375.407.407.579.407.782 0 .922-1.032 1.25-1.22 1.25-.062 0-.327-.078-.655-.297-.172-.14-.454-.39-.5-.422-.72-.687-1.11-.984-1.797-.984zm0 0"/></symbol><symbol overflow="visible" id="b"><path d="M3.297 2.39c0-.03 0-.046-.172-.218C1.891.922 1.562-.968 1.562-2.5c0-1.734.375-3.469 1.61-4.703.125-.125.125-.14.125-.172 0-.078-.031-.11-.094-.11-.11 0-1 .688-1.594 1.954C1.11-4.438.984-3.328.984-2.5c0 .781.11 1.984.657 3.125C2.25 1.844 3.094 2.5 3.203 2.5c.063 0 .094-.031.094-.11zm0 0"/></symbol><symbol overflow="visible" id="e"><path d="M2.875-2.5c0-.766-.11-1.969-.656-3.11C1.625-6.827.766-7.483.672-7.483a.107.107 0 0 0-.11.109c0 .031 0 .047.188.234.984.985 1.547 2.563 1.547 4.641 0 1.719-.36 3.469-1.594 4.719-.14.125-.14.14-.14.172 0 .062.046.109.109.109.094 0 1-.688 1.578-1.953.516-1.094.625-2.203.625-3.047zm0 0"/></symbol><symbol overflow="visible" id="m"><path d="M4.578-3.188c0-.796-.047-1.593-.39-2.328C3.733-6.484 2.905-6.64 2.5-6.64c-.61 0-1.328.266-1.75 1.188-.313.687-.36 1.469-.36 2.266 0 .75.032 1.64.454 2.406a1.83 1.83 0 0 0 1.64 1c.532 0 1.297-.203 1.735-1.157.312-.687.36-1.468.36-2.25zM2.484 0c-.39 0-.984-.25-1.156-1.203-.11-.594-.11-1.516-.11-2.11 0-.64 0-1.296.079-1.828.187-1.187.937-1.28 1.187-1.28.329 0 .985.187 1.172 1.171.11.563.11 1.313.11 1.938 0 .75 0 1.421-.11 2.062C3.5-.297 2.937 0 2.484 0zm0 0"/></symbol><symbol overflow="visible" id="p"><path d="M1.719-3.75v-.656l-1.438.11v.312c.703 0 .781.062.781.5v4.656c0 .453-.109.453-.78.453v.313c.343-.016.859-.032 1.109-.032.28 0 .78.016 1.125.032v-.313c-.657 0-.766 0-.766-.453V-.594c.047.172.469.703 1.219.703 1.187 0 2.219-.984 2.219-2.265 0-1.266-.954-2.25-2.079-2.25-.78 0-1.203.437-1.39.656zm.031 2.61v-2.22c.281-.515.766-.796 1.281-.796.735 0 1.328.875 1.328 2C4.36-.953 3.672-.11 2.938-.11c-.407 0-.782-.204-1.047-.61-.141-.203-.141-.219-.141-.422zm0 0"/></symbol><symbol overflow="visible" id="q"><path d="M4.688-2.14c0-1.266-.985-2.329-2.188-2.329C1.25-4.469.281-3.375.281-2.14A2.22 2.22 0 0 0 2.484.11c1.204 0 2.204-.984 2.204-2.25zM2.5-.14c-.438 0-.875-.204-1.14-.672-.25-.438-.25-1.047-.25-1.407 0-.39 0-.922.234-1.36a1.347 1.347 0 0 1 1.14-.671c.438 0 .86.219 1.125.656.266.422.266 1 .266 1.375 0 .36 0 .906-.219 1.344-.234.453-.672.734-1.156.734zm0 0"/></symbol><symbol overflow="visible" id="r"><path d="M1.766-6.922l-1.438.11v.312c.703 0 .781.063.781.563V-.75c0 .438-.109.438-.78.438V0c.327-.016.859-.031 1.109-.031s.734.015 1.109.031v-.313c-.672 0-.781 0-.781-.437zm0 0"/></symbol><symbol overflow="visible" id="s"><path d="M1.11-2.516C1.171-4 2.015-4.25 2.36-4.25c1.015 0 1.124 1.344 1.124 1.734zm0 .22h2.78c.22 0 .25 0 .25-.22 0-.984-.546-1.953-1.78-1.953C1.202-4.469.28-3.437.28-2.187.281-.86 1.328.108 2.47.108 3.688.11 4.14-1 4.14-1.187c0-.094-.079-.125-.141-.125-.078 0-.11.062-.125.14C3.531-.14 2.625-.14 2.531-.14c-.5 0-.89-.296-1.125-.671-.297-.47-.297-1.125-.297-1.485zm0 0"/></symbol><symbol overflow="visible" id="t"><path d="M2.078-1.938c.219.047 1.031.204 1.031.922 0 .5-.343.907-1.125.907-.843 0-1.203-.563-1.39-1.422-.031-.125-.031-.157-.14-.157-.126 0-.126.063-.126.235v1.328c0 .172 0 .234.11.234C.483.11.5.094.688-.094.703-.109.703-.125.89-.312c.437.406.89.421 1.093.421 1.141 0 1.61-.671 1.61-1.39 0-.516-.297-.828-.422-.938-.328-.328-.719-.406-1.14-.484-.563-.11-1.22-.235-1.22-.813 0-.359.25-.765 1.11-.765 1.094 0 1.156.906 1.172 1.203 0 .094.094.094.11.094.14 0 .14-.047.14-.235v-1.015c0-.157 0-.235-.11-.235-.046 0-.078 0-.203.125-.031.032-.125.125-.172.157-.375-.282-.78-.282-.937-.282-1.219 0-1.594.672-1.594 1.235 0 .343.156.625.422.843.328.25.61.313 1.328.454zm0 0"/></symbol><symbol overflow="visible" id="u"><path d="M1.75-4.297v-1.156c0-.875.469-1.36.906-1.36.031 0 .188 0 .328.079a.443.443 0 0 0-.296.421c0 .22.156.422.437.422s.438-.203.438-.437c0-.375-.376-.703-.907-.703-.687 0-1.547.531-1.547 1.593v1.141H.33v.313h.78V-.75c0 .438-.109.438-.765.438V0c.39-.016.86-.031 1.125-.031.406 0 .875 0 1.265.031v-.313h-.203c-.734 0-.75-.109-.75-.468v-3.203h1.125v-.313zm0 0"/></symbol><symbol overflow="visible" id="c"><path d="M.453 1.219c-.078.343-.11.406-.547.406-.11 0-.218 0-.218.188 0 .078.046.125.124.125.266 0 .563-.032.829-.032.343 0 .671.032 1 .032.046 0 .171 0 .171-.204 0-.109-.093-.109-.234-.109-.5 0-.5-.063-.5-.156 0-.125.422-1.75.484-2 .125.297.407.64.922.64 1.157 0 2.407-1.453 2.407-2.921 0-.938-.579-1.594-1.329-1.594-.5 0-.984.36-1.312.75-.094-.547-.531-.75-.89-.75-.47 0-.657.39-.735.562-.188.344-.313.938-.313.969 0 .11.094.11.11.11.11 0 .11-.016.172-.235.172-.703.375-1.188.734-1.188.172 0 .313.079.313.454 0 .234-.032.343-.079.515zm1.75-4.328c.063-.266.344-.547.516-.704.36-.296.64-.374.812-.374.39 0 .64.343.64.937 0 .594-.327 1.734-.515 2.11-.344.702-.812 1.03-1.187 1.03-.656 0-.781-.828-.781-.89 0-.016 0-.031.03-.156zm0 0"/></symbol><symbol overflow="visible" id="o"><path d="M7.578-6.922c0-.031-.016-.11-.11-.11-.03 0-.046.016-.155.126l-.688.765c-.094-.14-.547-.89-1.656-.89C2.734-7.031.5-4.828.5-2.516.5-.875 1.672.22 3.203.22c.86 0 1.625-.39 2.156-.86.922-.812 1.094-1.718 1.094-1.75 0-.109-.11-.109-.125-.109-.062 0-.11.031-.125.11-.094.28-.328 1-1.016 1.578-.687.546-1.312.718-1.828.718-.89 0-1.953-.515-1.953-2.062 0-.578.203-2.188 1.203-3.36.61-.703 1.547-1.203 2.438-1.203 1.016 0 1.61.766 1.61 1.922 0 .406-.032.406-.032.516 0 .093.11.093.14.093.126 0 .126-.015.188-.203zm0 0"/></symbol><symbol overflow="visible" id="v"><path d="M2.86-6.813s0-.109-.126-.109c-.234 0-.953.078-1.218.11-.079 0-.188.015-.188.187 0 .125.094.125.234.125.485 0 .5.063.5.172l-.03.203L.593-.391C.547-.25.547-.234.547-.17c0 .234.203.28.297.28a.407.407 0 0 0 .36-.265l.187-.75.218-.89c.063-.235.125-.454.172-.673.016-.062.11-.39.11-.453.03-.094.343-.64.687-.922.219-.156.516-.344.953-.344.422 0 .531.344.531.704 0 .53-.375 1.625-.609 2.234-.078.219-.14.344-.14.547 0 .469.359.812.828.812.937 0 1.296-1.453 1.296-1.53 0-.11-.078-.11-.109-.11-.11 0-.11.031-.156.187-.14.532-.469 1.235-1.016 1.235-.172 0-.234-.094-.234-.329 0-.25.078-.484.172-.703.156-.437.61-1.625.61-2.203 0-.64-.391-1.062-1.141-1.062-.626 0-1.11.312-1.485.765zm0 0"/></symbol><symbol overflow="visible" id="d"><path d="M3.594-2.219c0-.765-.094-1.328-.406-1.812-.22-.313-.657-.594-1.204-.594C.36-4.625.36-2.719.36-2.219c0 .5 0 2.36 1.625 2.36 1.61 0 1.61-1.86 1.61-2.36zM1.984-.063c-.328 0-.75-.187-.89-.75C1-1.219 1-1.796 1-2.313c0-.515 0-1.046.094-1.421.156-.547.593-.704.89-.704.375 0 .735.235.86.641.11.375.125.875.125 1.485 0 .515 0 1.03-.094 1.468-.14.64-.61.781-.89.781zm0 0"/></symbol><symbol overflow="visible" id="w"><path d="M2.328-4.438c0-.187 0-.187-.203-.187-.453.438-1.078.438-1.36.438v.25c.157 0 .626 0 1-.188v3.547c0 .234 0 .328-.687.328H.812V0c.125 0 .985-.031 1.235-.031.219 0 1.094.031 1.25.031v-.25H3.03c-.703 0-.703-.094-.703-.328zm0 0"/></symbol><symbol overflow="visible" id="x"><path d="M3.516-1.266H3.28c-.015.157-.094.563-.187.625-.047.047-.578.047-.688.047H1.125c.734-.64.984-.844 1.39-1.172.516-.406 1-.843 1-1.5 0-.843-.734-1.359-1.624-1.359-.86 0-1.454.61-1.454 1.25 0 .344.297.39.376.39.156 0 .359-.124.359-.374 0-.125-.047-.375-.406-.375.218-.485.687-.641 1.015-.641.703 0 1.063.547 1.063 1.11 0 .609-.438 1.078-.656 1.328L.516-.266C.437-.203.437-.187.437 0h2.876zm0 0"/></symbol><symbol overflow="visible" id="y"><path d="M1.906-2.328c.547 0 .938.375.938 1.125 0 .86-.516 1.125-.906 1.125-.282 0-.907-.078-1.188-.5.328 0 .406-.235.406-.39 0-.22-.172-.376-.39-.376a.38.38 0 0 0-.391.407C.375-.281 1.094.14 1.938.14c.968 0 1.64-.657 1.64-1.344 0-.547-.437-1.094-1.203-1.25.719-.266.984-.781.984-1.219 0-.547-.625-.953-1.406-.953-.766 0-1.36.375-1.36.938 0 .234.157.359.36.359.219 0 .36-.156.36-.344 0-.203-.141-.36-.36-.375.25-.297.719-.375.985-.375.312 0 .75.156.75.75 0 .297-.094.625-.282.828-.219.266-.422.281-.765.313-.172.015-.188.015-.22.015-.015 0-.077.016-.077.094 0 .094.062.094.187.094zm0 0"/></symbol><symbol overflow="visible" id="z"><path d="M3.688-1.14v-.25h-.782V-4.5c0-.14 0-.203-.14-.203-.094 0-.125 0-.188.11L.266-1.392v.25h2.062v.563c0 .25 0 .328-.578.328h-.188V0c.36-.016.797-.031 1.047-.031.266 0 .704.015 1.063.031v-.25h-.188c-.578 0-.578-.078-.578-.328v-.563zM2.375-3.939v2.547H.531zm0 0"/></symbol><symbol overflow="visible" id="g"><path d="M2.266-4.36a.276.276 0 0 0-.282-.265c-.187 0-.39.188-.39.39 0 .11.078.266.281.266.188 0 .39-.203.39-.39zM.844-.811C.813-.72.78-.641.78-.516c0 .329.266.579.656.579.688 0 1-.954 1-1.063 0-.094-.093-.094-.109-.094-.094 0-.11.047-.14.125-.157.563-.454.844-.735.844-.14 0-.172-.094-.172-.25s.047-.281.11-.438c.078-.187.156-.375.218-.562.063-.172.329-.797.344-.89A.5.5 0 0 0 2-2.486c0-.328-.281-.593-.656-.593C.64-3.078.328-2.125.328-2c0 .078.094.078.125.078.094 0 .094-.031.125-.11.172-.593.485-.843.735-.843.109 0 .171.047.171.234 0 .172-.03.266-.203.704zm0 0"/></symbol><symbol overflow="visible" id="h"><path d="M4.766-2.578c0-.203-.094-.5-.375-.5-.172 0-.36.219-.36.39 0 .235.375.282.375.75 0 .454-.453 1.454-1.234 1.454-.328 0-.61-.235-.703-.547.094-.14.25-.625.25-.813 0-.093-.063-.203-.172-.203-.36 0-.39.75-.39 1-.188.25-.548.563-1 .563-.376 0-.641-.344-.641-.813 0-.812.703-1.484.703-1.594 0-.078-.063-.156-.14-.156-.063 0-.11.031-.157.094-.094.11-.188.265-.266.406-.25.422-.422 1-.422 1.516 0 .547.22 1.093.86 1.093.468 0 .875-.296 1.125-.671.14.421.437.671.89.671C4.33.063 4.766-2 4.766-2.578zm0 0"/></symbol><symbol overflow="visible" id="i"><path d="M4.39-1.11c.079 0 .204 0 .204-.14s-.125-.14-.203-.14H1.016c-.079 0-.22 0-.22.14s.141.14.22.14zm0 0"/></symbol><symbol overflow="visible" id="j"><path d="M1.64-1.656c.47 0 .766.297.766.781 0 .516-.312.781-.75.781-.062 0-.656 0-.906-.265.203-.032.266-.172.266-.297A.304.304 0 0 0 .703-.97c-.156 0-.297.11-.297.328 0 .516.578.75 1.266.75.812 0 1.312-.5 1.312-.984 0-.406-.359-.75-.921-.875.593-.203.75-.578.75-.86 0-.406-.5-.703-1.126-.703-.625 0-1.109.25-1.109.704a.28.28 0 0 0 .281.296c.141 0 .282-.109.282-.296 0-.11-.063-.25-.235-.282.203-.218.656-.234.766-.234.36 0 .61.172.61.516 0 .296-.188.75-.704.78-.14 0-.156 0-.297.016-.047 0-.11 0-.11.079 0 .078.048.078.141.078zm0 0"/></symbol><symbol overflow="visible" id="k"><path d="M2.938-.969h-.22c0 .094-.062.406-.14.453-.031.032-.453.032-.531.032h-.969c.328-.235.688-.516.984-.72.454-.312.876-.593.876-1.124 0-.64-.61-.985-1.313-.985-.672 0-1.172.376-1.172.876 0 .25.219.296.297.296a.283.283 0 0 0 .281-.296.27.27 0 0 0-.281-.282c.14-.234.438-.375.766-.375.484 0 .89.281.89.766 0 .422-.297.75-.672 1.062L.516-.234c-.047.047-.063.047-.063.078V0h2.313zm0 0"/></symbol><symbol overflow="visible" id="l"><path d="M1.984-3.172c0-.14-.015-.14-.187-.14C1.453-3 .89-3 .797-3H.719v.219h.078c.11 0 .437-.016.734-.14v2.5c0 .14 0 .202-.531.202H.75V0c.266-.016.719-.016 1-.016.297 0 .734 0 1.016.016v-.219h-.25c-.532 0-.532-.062-.532-.203zm0 0"/></symbol><clipPath id="n"><path d="M57 0h69v182.215H57zm0 0"/></clipPath></defs><path d="M146.227 48.39L126.28 24.46m25.328 41.33l-14.765 68.91m-16.871-77.61L24.867 68.219m114.836-2.43L47.277 124.16" fill="none" stroke-width="0.09962" stroke="rgb(50%,50%,50%)" stroke-miterlimit="10"/><path d="M.398 91.11H181.11" fill="none" stroke-width="0.79701" stroke="rgb(0%,0%,0%)" stroke-miterlimit="10"/><path d="M179.555 89.035c.129.778 1.554 1.942 1.945 2.074-.39.13-1.816 1.293-1.945 2.07" fill="none" stroke-width="0.6376" stroke-linecap="round" stroke-linejoin="round" stroke="rgb(0%,0%,0%)" stroke-miterlimit="10"/><use xlink:href="#a" x="153.672" y="84.898" fill="rgb(0%,0%,0%)"/><use xlink:href="#b" x="160.867" y="84.898" fill="rgb(0%,0%,0%)"/><use xlink:href="#c" x="164.741" y="84.898" fill="rgb(0%,0%,0%)"/><use xlink:href="#d" x="169.754" y="86.392" fill="rgb(0%,0%,0%)"/><use xlink:href="#e" x="174.223" y="84.898" fill="rgb(0%,0%,0%)"/><path d="M91.105 175.016V7.91" fill="none" stroke-width="0.79701" stroke="rgb(0%,0%,0%)" stroke-miterlimit="10"/><path d="M89.035 9.46c.778-.128 1.942-1.55 2.07-1.94.133.39 1.297 1.812 2.075 1.94" fill="none" stroke-width="0.6376" stroke-linecap="round" stroke-linejoin="round" stroke="rgb(0%,0%,0%)" stroke-miterlimit="10"/><use xlink:href="#f" x="36.209" y="18.193" fill="rgb(0%,0%,0%)"/><use xlink:href="#b" x="43.404" y="18.193" fill="rgb(0%,0%,0%)"/><use xlink:href="#c" x="47.279" y="18.193" fill="rgb(0%,0%,0%)"/><use xlink:href="#d" x="52.291" y="19.687" fill="rgb(0%,0%,0%)"/><use xlink:href="#e" x="56.76" y="18.193" fill="rgb(0%,0%,0%)"/><path d="M88.273 15.703L64.352 15.7" fill="none" stroke-width="0.09962" stroke="rgb(50%,50%,50%)" stroke-miterlimit="10"/><path d="M91.902 159.14a.798.798 0 1 0-1.592.002.798.798 0 0 0 1.592-.001zm0 0" fill="rgb(0%,0%,0%)" stroke-width="0.79701" stroke="rgb(0%,0%,0%)" stroke-miterlimit="10"/><g fill="rgb(0%,0%,0%)"><use xlink:href="#g" x="94.826" y="159.731"/><use xlink:href="#h" x="97.645" y="159.731"/></g><use xlink:href="#i" x="101.442" y="162.332" fill="rgb(0%,0%,0%)"/><use xlink:href="#j" x="106.838" y="162.332" fill="rgb(0%,0%,0%)"/><path d="M91.902 136.465a.798.798 0 1 0-1.592.002.798.798 0 0 0 1.592-.002zm0 0" fill="rgb(0%,0%,0%)" stroke-width="0.79701" stroke="rgb(0%,0%,0%)" stroke-miterlimit="10"/><g fill="rgb(0%,0%,0%)"><use xlink:href="#g" x="94.826" y="137.054"/><use xlink:href="#h" x="97.645" y="137.054"/></g><use xlink:href="#i" x="101.442" y="139.655" fill="rgb(0%,0%,0%)"/><use xlink:href="#k" x="106.838" y="139.655" fill="rgb(0%,0%,0%)"/><path d="M91.902 113.785a.798.798 0 1 0-1.592.002.798.798 0 0 0 1.592-.002zm0 0" fill="rgb(0%,0%,0%)" stroke-width="0.79701" stroke="rgb(0%,0%,0%)" stroke-miterlimit="10"/><g fill="rgb(0%,0%,0%)"><use xlink:href="#g" x="94.826" y="114.376"/><use xlink:href="#h" x="97.645" y="114.376"/></g><use xlink:href="#i" x="101.442" y="116.978" fill="rgb(0%,0%,0%)"/><use xlink:href="#l" x="106.838" y="116.978" fill="rgb(0%,0%,0%)"/><path d="M91.902 68.43a.798.798 0 1 0-1.595.001.798.798 0 0 0 1.595-.001zm0 0" fill="rgb(0%,0%,0%)" stroke-width="0.79701" stroke="rgb(0%,0%,0%)" stroke-miterlimit="10"/><g fill="rgb(0%,0%,0%)"><use xlink:href="#g" x="94.826" y="69.492"/><use xlink:href="#h" x="97.645" y="69.492"/></g><use xlink:href="#l" x="101.442" y="71.983" fill="rgb(0%,0%,0%)"/><path d="M91.902 45.754a.798.798 0 1 0-1.592.002.798.798 0 0 0 1.592-.002zm0 0" fill="rgb(0%,0%,0%)" stroke-width="0.79701" stroke="rgb(0%,0%,0%)" stroke-miterlimit="10"/><g fill="rgb(0%,0%,0%)"><use xlink:href="#g" x="94.826" y="46.815"/><use xlink:href="#h" x="97.645" y="46.815"/></g><use xlink:href="#k" x="101.442" y="49.306" fill="rgb(0%,0%,0%)"/><path d="M91.902 23.074a.798.798 0 1 0-1.595.002.798.798 0 0 0 1.595-.002zm0 0" fill="rgb(0%,0%,0%)" stroke-width="0.79701" stroke="rgb(0%,0%,0%)" stroke-miterlimit="10"/><g fill="rgb(0%,0%,0%)"><use xlink:href="#g" x="94.826" y="24.138"/><use xlink:href="#h" x="97.645" y="24.138"/></g><use xlink:href="#j" x="101.442" y="26.628" fill="rgb(0%,0%,0%)"/><path d="M91.902 91.11a.798.798 0 1 0-1.592.002.798.798 0 0 0 1.592-.003zm0 0" fill="rgb(0%,0%,0%)" stroke-width="0.79701" stroke="rgb(0%,0%,0%)" stroke-miterlimit="10"/><use xlink:href="#m" x="94.826" y="87.389" fill="rgb(0%,0%,0%)"/><g clip-path="url(#n)"><path d="M113.785 159.14V23.075c0-12.523-10.152-22.676-22.68-22.676-12.523 0-22.675 10.153-22.675 22.676m0 0v136.067c0 12.523 10.152 22.675 22.675 22.675 12.528 0 22.68-10.152 22.68-22.675" fill="none" stroke-width="0.79701" stroke="rgb(0%,0%,54.499817%)" stroke-miterlimit="10"/></g><path d="M111.71 161.402c.778-.129 1.946-1.554 2.075-1.941.13.387 1.293 1.812 2.07 1.941" fill="none" stroke-width="0.6376" stroke-linecap="round" stroke-linejoin="round" stroke="rgb(0%,0%,54.499817%)" stroke-miterlimit="10"/><path d="M111.71 45.309c.778-.13 1.946-1.555 2.075-1.946.13.39 1.293 1.817 2.07 1.946" fill="none" stroke-width="0.6376" stroke-linecap="round" stroke-linejoin="round" stroke="rgb(0%,0%,54.499817%)" stroke-miterlimit="10"/><path d="M70.5 45.691c-.777.13-1.941 1.555-2.07 1.942-.13-.387-1.297-1.813-2.075-1.942" fill="none" stroke-width="0.6376" stroke-linecap="round" stroke-linejoin="round" stroke="rgb(0%,0%,54.499817%)" stroke-miterlimit="10"/><path d="M70.496 161.36c-.734.288-1.566 1.933-1.61 2.34-.21-.352-1.652-1.497-2.44-1.458" fill="none" stroke-width=".637561744" stroke-linecap="round" stroke-linejoin="round" stroke="rgb(0%,0%,54.499817%)" stroke-miterlimit="10"/><use xlink:href="#o" x="117.504" y="33.603" fill="rgb(0%,0%,54.499817%)"/><use xlink:href="#p" x="123.692" y="59.582" fill="rgb(0%,0%,0%)"/><g fill="rgb(0%,0%,0%)"><use xlink:href="#q" x="129.506" y="59.582"/><use xlink:href="#r" x="134.487" y="59.582"/><use xlink:href="#s" x="137.255" y="59.582"/><use xlink:href="#t" x="141.682" y="59.582"/></g><g fill="rgb(0%,0%,0%)"><use xlink:href="#q" x="148.929" y="59.582"/><use xlink:href="#u" x="153.911" y="59.582"/></g><use xlink:href="#v" x="160.277" y="59.582" fill="rgb(0%,0%,0%)"/><use xlink:href="#b" x="166.017" y="59.582" fill="rgb(0%,0%,0%)"/><use xlink:href="#c" x="169.891" y="59.582" fill="rgb(0%,0%,0%)"/><use xlink:href="#d" x="174.904" y="61.077" fill="rgb(0%,0%,0%)"/><use xlink:href="#e" x="179.373" y="59.582" fill="rgb(0%,0%,0%)"/><path d="M126.531 23.074c0-.777-.629-1.406-1.406-1.406a1.407 1.407 0 1 0 1.406 1.406zm0 0" fill="rgb(0%,0%,0%)"/><use xlink:href="#c" x="130.652" y="24.248" fill="rgb(0%,0%,0%)"/><use xlink:href="#w" x="135.664" y="25.743" fill="rgb(0%,0%,0%)"/><path d="M137.871 136.465a1.407 1.407 0 1 0-2.816 0c0 .777.629 1.406 1.406 1.406.781 0 1.41-.629 1.41-1.406zm0 0" fill="rgb(0%,0%,0%)"/><use xlink:href="#c" x="131.723" y="146.281" fill="rgb(0%,0%,0%)"/><use xlink:href="#x" x="136.736" y="147.775" fill="rgb(0%,0%,0%)"/><path d="M24.484 68.43c0-.778-.632-1.41-1.41-1.41-.777 0-1.41.632-1.41 1.41 0 .777.633 1.41 1.41 1.41.778 0 1.41-.633 1.41-1.41zm0 0" fill="rgb(0%,0%,0%)"/><use xlink:href="#c" x="18.331" y="60.965" fill="rgb(0%,0%,0%)"/><use xlink:href="#y" x="23.344" y="62.46" fill="rgb(0%,0%,0%)"/><path d="M47.16 125.125a1.409 1.409 0 0 0-2.816 0 1.409 1.409 0 1 0 2.816 0zm0 0" fill="rgb(0%,0%,0%)"/><use xlink:href="#c" x="41.01" y="117.661" fill="rgb(0%,0%,0%)"/><use xlink:href="#z" x="46.022" y="119.156" fill="rgb(0%,0%,0%)"/></svg>