<svg xmlns="http://www.w3.org/2000/svg" xmlns:xlink="http://www.w3.org/1999/xlink" width="304.993" height="81.967" viewBox="0 0 228.745 61.475"><defs><symbol overflow="visible" id="b"><path d="M.422.969c-.078.25-.094.312-.406.312-.11 0-.204 0-.204.157 0 .062.063.109.11.109.078 0 .11-.031.703-.031.563 0 .734.03.797.03.031 0 .14 0 .14-.155 0-.11-.109-.11-.203-.11-.375 0-.375-.047-.375-.125 0-.047.141-.61.375-1.547.11.188.36.47.782.47.984 0 2-1.126 2-2.282C4.14-3 3.64-3.516 3-3.516c-.484 0-.86.329-1.094.563-.172-.563-.703-.563-.781-.563-.281 0-.484.188-.61.438-.187.36-.28.765-.28.781 0 .078.062.11.124.11.11 0 .11-.032.172-.25.094-.407.235-.86.563-.86.203 0 .265.188.265.375 0 .078-.03.281-.046.344zm1.453-3.422c.047-.14.047-.156.172-.297.297-.36.64-.547.922-.547.406 0 .547.39.547.75 0 .297-.172 1.156-.407 1.625-.203.422-.593.781-.968.781-.532 0-.672-.625-.672-.687 0-.016.015-.094.031-.125zm0 0"/></symbol><symbol overflow="visible" id="c"><path d="M2.14-3.797c0-.187-.015-.187-.203-.187-.39.39-1 .39-1.218.39v.235c.156 0 .562 0 .922-.172v3.015c0 .204 0 .282-.625.282h-.25V0c.328-.031.796-.031 1.125-.031.328 0 .796 0 1.125.031v-.234h-.25c-.625 0-.625-.078-.625-.282zm0 0"/></symbol><symbol overflow="visible" id="e"><path d="M3.219-1.125H3c-.016.094-.078.484-.156.547-.047.047-.531.047-.625.047h-1.11l.766-.625c.203-.172.734-.547.922-.735.172-.171.422-.484.422-.906 0-.75-.672-1.187-1.485-1.187-.765 0-1.296.515-1.296 1.078 0 .297.25.344.312.344a.32.32 0 0 0 .328-.329c0-.125-.078-.328-.344-.328.141-.297.5-.531.922-.531.625 0 .953.469.953.953 0 .422-.28.86-.687 1.25L.5-.25C.437-.187.437-.187.437 0h2.594zm0 0"/></symbol><symbol overflow="visible" id="i"><path d="M4.61-3.375C4.515-4 4.11-4.563 3.327-4.563c-.61 0-1.25.172-2.031.938a2.953 2.953 0 0 0-.89 2.063c0 .625.437 1.78 1.827 1.78 2.375 0 3.407-3.343 3.407-4.78 0-1.579-.922-2.579-2.157-2.579-1.437 0-1.906 1.297-1.906 1.579 0 .14.094.343.39.343a.544.544 0 0 0 .532-.515c0-.36-.313-.36-.469-.36.438-.734 1.156-.797 1.438-.797.734 0 1.422.516 1.422 1.813 0 .39-.063.89-.266 1.703zM2.265-.062c-1.094 0-1.094-1.032-1.094-1.125 0-.266.25-1.657.656-2.266.39-.563.89-.89 1.5-.89 1.094 0 1.11 1.124 1.11 1.327 0 .72-.641 2.954-2.172 2.954zm0 0"/></symbol><symbol overflow="visible" id="k"><path d="M3.734-6.125c.063-.234.094-.328.282-.36.093-.015.406-.015.609-.015.703 0 1.813 0 1.813.984 0 .344-.157 1.032-.547 1.422-.266.25-.782.578-1.688.578h-1.11zm1.438 2.734c1.016-.218 2.187-.921 2.187-1.921 0-.86-.89-1.5-2.203-1.5H2.328c-.203 0-.297 0-.297.203 0 .109.094.109.281.109.016 0 .204 0 .376.016.187.03.265.03.265.171 0 .032 0 .063-.031.188L1.578-.781c-.094.39-.11.469-.906.469-.172 0-.266 0-.266.203C.406 0 .531 0 .546 0c.282 0 .985-.031 1.25-.031.282 0 1 .031 1.282.031.078 0 .188 0 .188-.203 0-.11-.079-.11-.282-.11-.359 0-.64 0-.64-.171 0-.063.015-.11.031-.172l.656-2.64H4.22c.906 0 1.078.562 1.078.905 0 .141-.078.454-.14.688-.063.281-.157.64-.157.844C5 .219 6.203.219 6.328.219c.844 0 1.203-1 1.203-1.14 0-.126-.11-.126-.125-.126-.093 0-.11.063-.125.14-.25.735-.687.907-.906.907-.328 0-.406-.219-.406-.61 0-.312.062-.812.11-1.14.015-.14.03-.328.03-.469 0-.765-.671-1.078-.937-1.172zm0 0"/></symbol><symbol overflow="visible" id="p"><path d="M.453 1.219c-.078.343-.11.406-.547.406-.11 0-.218 0-.218.188 0 .078.046.125.124.125.266 0 .563-.032.829-.032.343 0 .671.032 1 .032.046 0 .171 0 .171-.204 0-.109-.093-.109-.234-.109-.5 0-.5-.063-.5-.156 0-.125.422-1.75.484-2 .125.297.407.64.922.64 1.157 0 2.407-1.453 2.407-2.921 0-.938-.579-1.594-1.329-1.594-.5 0-.984.36-1.312.75-.094-.547-.531-.75-.89-.75-.47 0-.657.39-.735.562-.188.344-.313.938-.313.969 0 .11.094.11.11.11.11 0 .11-.016.172-.235.172-.703.375-1.188.734-1.188.172 0 .313.079.313.454 0 .234-.032.343-.079.515zm1.75-4.328c.063-.266.344-.547.516-.704.36-.296.64-.374.812-.374.39 0 .64.343.64.937 0 .594-.327 1.734-.515 2.11-.344.702-.812 1.03-1.187 1.03-.656 0-.781-.828-.781-.89 0-.016 0-.031.03-.156zm0 0"/></symbol><symbol overflow="visible" id="r"><path d="M2.031-.016c0-.656-.25-1.046-.64-1.046a.517.517 0 0 0-.532.53c0 .266.204.532.532.532a.58.58 0 0 0 .343-.125c.032-.031.047-.031.047-.031.016 0 .016 0 .016.14 0 .75-.344 1.344-.672 1.672-.11.11-.11.125-.11.157 0 .078.048.109.094.109.11 0 .922-.766.922-1.938zm0 0"/></symbol><symbol overflow="visible" id="j"><path d="M2.188-4.625c0-.016.015-.11.015-.11 0-.046-.015-.109-.11-.109-.14 0-.718.063-.89.078-.047 0-.156.016-.156.157 0 .093.11.093.187.093.329 0 .329.063.329.11s-.016.093-.016.156L.563-.312c-.047.124-.047.14-.047.156 0 .11.093.218.25.218.187 0 .265-.124.312-.28.016-.032.313-1.266.344-1.36.5.047.89.219.89.578 0 .031 0 .063-.015.14-.031.094-.031.141-.031.22 0 .484.406.703.75.703.671 0 .875-1.047.875-1.063 0-.094-.079-.094-.11-.094-.094 0-.11.047-.14.172-.079.297-.266.797-.61.797-.187 0-.25-.172-.25-.36 0-.124 0-.14.047-.312a.724.724 0 0 0 .031-.219c0-.625-.828-.718-1.125-.734.204-.125.454-.36.579-.469.359-.328.703-.656 1.093-.656.078 0 .172.016.235.094a.396.396 0 0 0-.36.39c0 .141.11.25.266.25.203 0 .406-.156.406-.437a.5.5 0 0 0-.531-.5c-.406 0-.766.297-1.125.625-.297.265-.516.484-.813.61zm0 0"/></symbol><symbol overflow="visible" id="l"><path d="M1.469-.11c0 .376-.063.829-.547 1.266-.016.032-.047.063-.047.094 0 .047.063.094.094.094.11 0 .703-.563.703-1.39 0-.423-.172-.75-.5-.75a.387.387 0 0 0-.39.39c0 .219.155.406.405.406.172 0 .282-.11.282-.11zm0 0"/></symbol><symbol overflow="visible" id="m"><path d="M2.266-4.36a.276.276 0 0 0-.282-.265c-.187 0-.39.188-.39.39 0 .11.078.266.281.266.188 0 .39-.203.39-.39zM.844-.811C.813-.72.78-.641.78-.516c0 .329.266.579.656.579.688 0 1-.954 1-1.063 0-.094-.093-.094-.109-.094-.094 0-.11.047-.14.125-.157.563-.454.844-.735.844-.14 0-.172-.094-.172-.25s.047-.281.11-.438c.078-.187.156-.375.218-.562.063-.172.329-.797.344-.89A.5.5 0 0 0 2-2.486c0-.328-.281-.593-.656-.593C.64-3.078.328-2.125.328-2c0 .078.094.078.125.078.094 0 .094-.031.125-.11.172-.593.485-.843.735-.843.109 0 .171.047.171.234 0 .172-.03.266-.203.704zm0 0"/></symbol><symbol overflow="visible" id="n"><path d="M3.063-4.36a.276.276 0 0 0-.282-.265c-.203 0-.39.203-.39.39 0 .11.078.266.28.266.188 0 .392-.187.392-.39zM1.577.345c-.11.484-.484.875-.89.875-.094 0-.172 0-.25-.032A.424.424 0 0 0 .671.829c0-.172-.14-.25-.281-.25C.187.578 0 .766 0 .984c0 .266.266.438.688.438.421 0 1.234-.25 1.453-1.094l.625-2.5c.015-.078.03-.14.03-.25 0-.375-.327-.656-.733-.656C1.28-3.078.843-2.11.843-2c0 .078.095.078.11.078.078 0 .094-.016.14-.125.173-.406.532-.828.938-.828.172 0 .235.11.235.344 0 .078 0 .172-.016.203zm0 0"/></symbol><symbol overflow="visible" id="o"><path d="M3.297 2.39c0-.03 0-.046-.172-.218C1.891.922 1.562-.968 1.562-2.5c0-1.734.375-3.469 1.61-4.703.125-.125.125-.14.125-.172 0-.078-.031-.11-.094-.11-.11 0-1 .688-1.594 1.954C1.11-4.438.984-3.328.984-2.5c0 .781.11 1.984.657 3.125C2.25 1.844 3.094 2.5 3.203 2.5c.063 0 .094-.031.094-.11zm0 0"/></symbol><symbol overflow="visible" id="t"><path d="M2.875-2.5c0-.766-.11-1.969-.656-3.11C1.625-6.827.766-7.483.672-7.483a.107.107 0 0 0-.11.109c0 .031 0 .047.188.234.984.985 1.547 2.563 1.547 4.641 0 1.719-.36 3.469-1.594 4.719-.14.125-.14.14-.14.172 0 .062.046.109.109.109.094 0 1-.688 1.578-1.953.516-1.094.625-2.203.625-3.047zm0 0"/></symbol><symbol overflow="visible" id="at"><path d="M5.516-6.781H.328v.312h.234c.766 0 .797.11.797.469v5.219c0 .36-.03.469-.796.469H.328V0c.344-.031 1.125-.031 1.516-.031.406 0 1.312 0 1.672.031v-.313h-.329c-.937 0-.937-.124-.937-.468v-5.297c0-.328.016-.39.484-.39h1.032c1.421 0 1.625.593 1.78 1.937h.25zm0 0"/></symbol><symbol overflow="visible" id="aw"><path d="M4.078-2.297H6.86c.141 0 .329 0 .329-.203 0-.188-.188-.188-.329-.188H4.08v-2.796c0-.141 0-.329-.204-.329-.203 0-.203.188-.203.329v2.796H.89c-.141 0-.329 0-.329.188 0 .203.188.203.329.203h2.78V.5c0 .14 0 .328.204.328.203 0 .203-.187.203-.328zm0 0"/></symbol><symbol overflow="visible" id="q"><path d="M2.328-4.438c0-.187 0-.187-.203-.187-.453.438-1.078.438-1.36.438v.25c.157 0 .626 0 1-.188v3.547c0 .234 0 .328-.687.328H.812V0c.125 0 .985-.031 1.235-.031.219 0 1.094.031 1.25.031v-.25H3.03c-.703 0-.703-.094-.703-.328zm0 0"/></symbol><symbol overflow="visible" id="s"><path d="M3.516-1.266H3.28c-.015.157-.094.563-.187.625-.047.047-.578.047-.688.047H1.125c.734-.64.984-.844 1.39-1.172.516-.406 1-.843 1-1.5 0-.843-.734-1.359-1.624-1.359-.86 0-1.454.61-1.454 1.25 0 .344.297.39.376.39.156 0 .359-.124.359-.374 0-.125-.047-.375-.406-.375.218-.485.687-.641 1.015-.641.703 0 1.063.547 1.063 1.11 0 .609-.438 1.078-.656 1.328L.516-.266C.437-.203.437-.187.437 0h2.876zm0 0"/></symbol><symbol overflow="visible" id="au"><path d="M2.469-5.219C1.156-4.297.797-2.812.797-1.75c0 .984.297 2.516 1.672 3.484.062 0 .14 0 .14-.078 0-.047-.015-.062-.062-.11C1.609.704 1.28-.468 1.28-1.733c0-1.891.719-2.813 1.282-3.329.03-.03.046-.046.046-.078 0-.078-.078-.078-.14-.078zm0 0"/></symbol><symbol overflow="visible" id="av"><path d="M.625-5.219c-.047 0-.125 0-.125.078 0 .032.016.047.063.11.593.547 1.265 1.484 1.265 3.281 0 1.453-.453 2.563-1.203 3.234C.5 1.61.5 1.61.5 1.656c0 .032.016.078.078.078.094 0 .75-.453 1.219-1.328.297-.578.5-1.328.5-2.14C2.297-2.72 2-4.25.625-5.22zm0 0"/></symbol><symbol overflow="visible" id="as"><path d="M2.016 11.547h1.906v-.39H2.406V0h1.516v-.406H2.016zm0 0"/></symbol><symbol overflow="visible" id="ax"><path d="M2.14 11.547V-.406H.22V0h1.515v11.156H.22v.39zm0 0"/></symbol><symbol overflow="visible" id="ay"><path d="M5.188-1.578c.109 0 .28 0 .28-.156 0-.188-.171-.188-.28-.188H1.03c-.11 0-.281 0-.281.172s.156.172.281.172zm0 0"/></symbol><clipPath id="a"><path d="M60 0h80v61.477H60zm0 0"/></clipPath><clipPath id="d"><path d="M97 56h3v5.477h-3zm0 0"/></clipPath><clipPath id="f"><path d="M97 56h3v5.477h-3zm0 0"/></clipPath><clipPath id="g"><path d="M67 26h9v9h-9zm0 0"/></clipPath><clipPath id="h"><path d="M75.766 30.738a4.253 4.253 0 1 0-8.506-.002 4.253 4.253 0 0 0 8.506.002zm0 0"/></clipPath><clipPath id="u"><path d="M123 33.578h.54V36H123zm0 0"/></clipPath><clipPath id="v"><path d="M133.168 30.738a4.96 4.96 0 1 0-9.92 0 4.96 4.96 0 0 0 9.92 0zm0 0"/></clipPath><clipPath id="w"><path d="M123 33.578h3.527V36H123zm0 0"/></clipPath><clipPath id="x"><path d="M133.168 30.738a4.96 4.96 0 1 0-9.92 0 4.96 4.96 0 0 0 9.92 0zm0 0"/></clipPath><clipPath id="y"><path d="M124.535 33.578h4.98V36h-4.98zm0 0"/></clipPath><clipPath id="z"><path d="M133.168 30.738a4.96 4.96 0 1 0-9.92 0 4.96 4.96 0 0 0 9.92 0zm0 0"/></clipPath><clipPath id="A"><path d="M127.523 33.578h4.98V36h-4.98zm0 0"/></clipPath><clipPath id="B"><path d="M133.168 30.738a4.96 4.96 0 1 0-9.92 0 4.96 4.96 0 0 0 9.92 0zm0 0"/></clipPath><clipPath id="C"><path d="M130.512 33.578H134V36h-3.488zm0 0"/></clipPath><clipPath id="D"><path d="M133.168 30.738a4.96 4.96 0 1 0-9.92 0 4.96 4.96 0 0 0 9.92 0zm0 0"/></clipPath><clipPath id="E"><path d="M123 30.59h.54v4.98H123zm0 0"/></clipPath><clipPath id="F"><path d="M133.168 30.738a4.96 4.96 0 1 0-9.92 0 4.96 4.96 0 0 0 9.92 0zm0 0"/></clipPath><clipPath id="G"><path d="M123 30.59h3.527v4.98H123zm0 0"/></clipPath><clipPath id="H"><path d="M133.168 30.738a4.96 4.96 0 1 0-9.92 0 4.96 4.96 0 0 0 9.92 0zm0 0"/></clipPath><clipPath id="I"><path d="M124.535 30.59h4.98v4.98h-4.98zm0 0"/></clipPath><clipPath id="J"><path d="M133.168 30.738a4.96 4.96 0 1 0-9.92 0 4.96 4.96 0 0 0 9.92 0zm0 0"/></clipPath><clipPath id="K"><path d="M127.523 30.59h4.98v4.98h-4.98zm0 0"/></clipPath><clipPath id="L"><path d="M133.168 30.738a4.96 4.96 0 1 0-9.92 0 4.96 4.96 0 0 0 9.92 0zm0 0"/></clipPath><clipPath id="M"><path d="M130.512 30.59H134v4.98h-3.488zm0 0"/></clipPath><clipPath id="N"><path d="M133.168 30.738a4.96 4.96 0 1 0-9.92 0 4.96 4.96 0 0 0 9.92 0zm0 0"/></clipPath><clipPath id="O"><path d="M123 27.602h.54v4.98H123zm0 0"/></clipPath><clipPath id="P"><path d="M133.168 30.738a4.96 4.96 0 1 0-9.92 0 4.96 4.96 0 0 0 9.92 0zm0 0"/></clipPath><clipPath id="Q"><path d="M123 27.602h3.527v4.98H123zm0 0"/></clipPath><clipPath id="R"><path d="M133.168 30.738a4.96 4.96 0 1 0-9.92 0 4.96 4.96 0 0 0 9.92 0zm0 0"/></clipPath><clipPath id="S"><path d="M124.535 27.602h4.98v4.98h-4.98zm0 0"/></clipPath><clipPath id="T"><path d="M133.168 30.738a4.96 4.96 0 1 0-9.92 0 4.96 4.96 0 0 0 9.92 0zm0 0"/></clipPath><clipPath id="U"><path d="M127.523 27.602h4.98v4.98h-4.98zm0 0"/></clipPath><clipPath id="V"><path d="M133.168 30.738a4.96 4.96 0 1 0-9.92 0 4.96 4.96 0 0 0 9.92 0zm0 0"/></clipPath><clipPath id="W"><path d="M130.512 27.602H134v4.98h-3.488zm0 0"/></clipPath><clipPath id="X"><path d="M133.168 30.738a4.96 4.96 0 1 0-9.92 0 4.96 4.96 0 0 0 9.92 0zm0 0"/></clipPath><clipPath id="Y"><path d="M123 25h.54v4.594H123zm0 0"/></clipPath><clipPath id="Z"><path d="M133.168 30.738a4.96 4.96 0 1 0-9.92 0 4.96 4.96 0 0 0 9.92 0zm0 0"/></clipPath><clipPath id="aa"><path d="M123 25h3.527v4.594H123zm0 0"/></clipPath><clipPath id="ab"><path d="M133.168 30.738a4.96 4.96 0 1 0-9.92 0 4.96 4.96 0 0 0 9.92 0zm0 0"/></clipPath><clipPath id="ac"><path d="M124.535 25h4.98v4.594h-4.98zm0 0"/></clipPath><clipPath id="ad"><path d="M133.168 30.738a4.96 4.96 0 1 0-9.92 0 4.96 4.96 0 0 0 9.92 0zm0 0"/></clipPath><clipPath id="ae"><path d="M127.523 25h4.98v4.594h-4.98zm0 0"/></clipPath><clipPath id="af"><path d="M133.168 30.738a4.96 4.96 0 1 0-9.92 0 4.96 4.96 0 0 0 9.92 0zm0 0"/></clipPath><clipPath id="ag"><path d="M130.512 25H134v4.594h-3.488zm0 0"/></clipPath><clipPath id="ah"><path d="M133.168 30.738a4.96 4.96 0 1 0-9.92 0 4.96 4.96 0 0 0 9.92 0zm0 0"/></clipPath><clipPath id="ai"><path d="M123 25h.54v1.605H123zm0 0"/></clipPath><clipPath id="aj"><path d="M133.168 30.738a4.96 4.96 0 1 0-9.92 0 4.96 4.96 0 0 0 9.92 0zm0 0"/></clipPath><clipPath id="ak"><path d="M123 25h3.527v1.605H123zm0 0"/></clipPath><clipPath id="al"><path d="M133.168 30.738a4.96 4.96 0 1 0-9.92 0 4.96 4.96 0 0 0 9.92 0zm0 0"/></clipPath><clipPath id="am"><path d="M124.535 25h4.98v1.605h-4.98zm0 0"/></clipPath><clipPath id="an"><path d="M133.168 30.738a4.96 4.96 0 1 0-9.92 0 4.96 4.96 0 0 0 9.92 0zm0 0"/></clipPath><clipPath id="ao"><path d="M127.523 25h4.98v1.605h-4.98zm0 0"/></clipPath><clipPath id="ap"><path d="M133.168 30.738a4.96 4.96 0 1 0-9.92 0 4.96 4.96 0 0 0 9.92 0zm0 0"/></clipPath><clipPath id="aq"><path d="M130.512 25H134v1.605h-3.488zm0 0"/></clipPath><clipPath id="ar"><path d="M133.168 30.738a4.96 4.96 0 1 0-9.92 0 4.96 4.96 0 0 0 9.92 0zm0 0"/></clipPath></defs><g clip-path="url(#a)"><path d="M128.207 30.738c0-15.656-12.691-28.347-28.348-28.347-15.652 0-28.343 12.691-28.343 28.347 0 15.657 12.691 28.348 28.343 28.348 15.657 0 28.348-12.691 28.348-28.348zm0 0" fill="none" stroke-width="0.79701" stroke="rgb(0%,0%,0%)" stroke-miterlimit="10"/></g><path d="M102.121 4.465c-.129-.778-1.555-1.945-1.941-2.074.386-.13 1.812-1.293 1.941-2.07" fill="none" stroke-width="0.6376" stroke-linecap="round" stroke-linejoin="round" stroke="rgb(0%,0%,0%)" stroke-miterlimit="10"/><use xlink:href="#b" x="95.654" y="9.542" fill="rgb(0%,0%,0%)"/><use xlink:href="#c" x="99.917" y="10.649" fill="rgb(0%,0%,0%)"/><g clip-path="url(#d)"><path d="M97.598 57.012c.132.777 1.554 1.945 1.945 2.074-.39.129-1.813 1.293-1.945 2.07" fill="none" stroke-width="0.6376" stroke-linecap="round" stroke-linejoin="round" stroke="rgb(0%,0%,0%)" stroke-miterlimit="10"/></g><use xlink:href="#b" x="95.654" y="53.815" fill="rgb(0%,0%,0%)"/><use xlink:href="#e" x="99.917" y="54.922" fill="rgb(0%,0%,0%)"/><path d="M102.121 4.465c-.129-.778-1.555-1.945-1.941-2.074.386-.13 1.812-1.293 1.941-2.07" fill="none" stroke-width="0.6376" stroke-linecap="round" stroke-linejoin="round" stroke="rgb(0%,0%,0%)" stroke-miterlimit="10"/><use xlink:href="#b" x="95.654" y="9.542" fill="rgb(0%,0%,0%)"/><use xlink:href="#c" x="99.917" y="10.649" fill="rgb(0%,0%,0%)"/><g clip-path="url(#f)"><path d="M97.598 57.012c.132.777 1.554 1.945 1.945 2.074-.39.129-1.813 1.293-1.945 2.07" fill="none" stroke-width="0.6376" stroke-linecap="round" stroke-linejoin="round" stroke="rgb(0%,0%,0%)" stroke-miterlimit="10"/></g><use xlink:href="#b" x="95.654" y="53.815" fill="rgb(0%,0%,0%)"/><use xlink:href="#e" x="99.917" y="54.922" fill="rgb(0%,0%,0%)"/><path d="M75.766 30.738a4.253 4.253 0 1 0-8.506-.002 4.253 4.253 0 0 0 8.506.002zm0 0" fill="rgb(100%,100%,100%)"/><g clip-path="url(#g)"><g clip-path="url(#h)"><path d="M75.766 34.988l-8.504-8.504m0 8.504l8.504-8.504" fill="none" stroke-width="0.3985" stroke="rgb(0%,0%,0%)" stroke-miterlimit="10"/></g></g><path d="M75.766 30.738a4.253 4.253 0 1 0-8.506-.002 4.253 4.253 0 0 0 8.506.002zm0 0" fill="none" stroke-width="0.3985" stroke="rgb(0%,0%,0%)" stroke-miterlimit="10"/><use xlink:href="#i" x="3.32" y="33.048" fill="rgb(0%,0%,0%)"/><use xlink:href="#j" x="8.61" y="34.543" fill="rgb(0%,0%,0%)"/><use xlink:href="#k" x="13.511" y="33.048" fill="rgb(0%,0%,0%)"/><use xlink:href="#j" x="21.076" y="34.543" fill="rgb(0%,0%,0%)"/><g fill="rgb(0%,0%,0%)"><use xlink:href="#l" x="25.479" y="34.543"/><use xlink:href="#m" x="27.845" y="34.543"/><use xlink:href="#n" x="30.664" y="34.543"/></g><use xlink:href="#o" x="34.862" y="33.048" fill="rgb(0%,0%,0%)"/><use xlink:href="#p" x="38.737" y="33.048" fill="rgb(0%,0%,0%)"/><use xlink:href="#q" x="43.749" y="34.543" fill="rgb(0%,0%,0%)"/><use xlink:href="#r" x="48.218" y="33.048" fill="rgb(0%,0%,0%)"/><use xlink:href="#p" x="52.649" y="33.048" fill="rgb(0%,0%,0%)"/><use xlink:href="#s" x="57.659" y="34.543" fill="rgb(0%,0%,0%)"/><use xlink:href="#t" x="62.128" y="33.048" fill="rgb(0%,0%,0%)"/><path d="M133.168 30.738a4.96 4.96 0 1 0-9.92 0 4.96 4.96 0 0 0 9.92 0zm0 0" fill="rgb(100%,100%,100%)" stroke-width="0.3985" stroke="rgb(0%,0%,0%)" stroke-miterlimit="10"/><g clip-path="url(#u)"><g clip-path="url(#v)"><path d="M119.555 37.563l3.086-3.086" fill="none" stroke-width="0.3985" stroke="rgb(0%,0%,0%)" stroke-miterlimit="10"/></g></g><g clip-path="url(#w)"><g clip-path="url(#x)"><path d="M122.543 37.563l3.086-3.086" fill="none" stroke-width="0.3985" stroke="rgb(0%,0%,0%)" stroke-miterlimit="10"/></g></g><g clip-path="url(#y)"><g clip-path="url(#z)"><path d="M125.531 37.563l3.09-3.086" fill="none" stroke-width="0.3985" stroke="rgb(0%,0%,0%)" stroke-miterlimit="10"/></g></g><g clip-path="url(#A)"><g clip-path="url(#B)"><path d="M128.52 37.563l3.09-3.086" fill="none" stroke-width="0.3985" stroke="rgb(0%,0%,0%)" stroke-miterlimit="10"/></g></g><g clip-path="url(#C)"><g clip-path="url(#D)"><path d="M131.508 37.563l3.09-3.086" fill="none" stroke-width="0.3985" stroke="rgb(0%,0%,0%)" stroke-miterlimit="10"/></g></g><g clip-path="url(#E)"><g clip-path="url(#F)"><path d="M119.555 34.574l3.086-3.086" fill="none" stroke-width="0.3985" stroke="rgb(0%,0%,0%)" stroke-miterlimit="10"/></g></g><g clip-path="url(#G)"><g clip-path="url(#H)"><path d="M122.543 34.574l3.086-3.086" fill="none" stroke-width="0.3985" stroke="rgb(0%,0%,0%)" stroke-miterlimit="10"/></g></g><g clip-path="url(#I)"><g clip-path="url(#J)"><path d="M125.531 34.574l3.09-3.086" fill="none" stroke-width="0.3985" stroke="rgb(0%,0%,0%)" stroke-miterlimit="10"/></g></g><g clip-path="url(#K)"><g clip-path="url(#L)"><path d="M128.52 34.574l3.09-3.086" fill="none" stroke-width="0.3985" stroke="rgb(0%,0%,0%)" stroke-miterlimit="10"/></g></g><g clip-path="url(#M)"><g clip-path="url(#N)"><path d="M131.508 34.574l3.09-3.086" fill="none" stroke-width="0.3985" stroke="rgb(0%,0%,0%)" stroke-miterlimit="10"/></g></g><g clip-path="url(#O)"><g clip-path="url(#P)"><path d="M119.555 31.586l3.086-3.086" fill="none" stroke-width="0.3985" stroke="rgb(0%,0%,0%)" stroke-miterlimit="10"/></g></g><g clip-path="url(#Q)"><g clip-path="url(#R)"><path d="M122.543 31.586l3.086-3.086" fill="none" stroke-width="0.3985" stroke="rgb(0%,0%,0%)" stroke-miterlimit="10"/></g></g><g clip-path="url(#S)"><g clip-path="url(#T)"><path d="M125.531 31.586l3.09-3.086" fill="none" stroke-width="0.3985" stroke="rgb(0%,0%,0%)" stroke-miterlimit="10"/></g></g><g clip-path="url(#U)"><g clip-path="url(#V)"><path d="M128.52 31.586l3.09-3.086" fill="none" stroke-width="0.3985" stroke="rgb(0%,0%,0%)" stroke-miterlimit="10"/></g></g><g clip-path="url(#W)"><g clip-path="url(#X)"><path d="M131.508 31.586l3.09-3.086" fill="none" stroke-width="0.3985" stroke="rgb(0%,0%,0%)" stroke-miterlimit="10"/></g></g><g clip-path="url(#Y)"><g clip-path="url(#Z)"><path d="M119.555 28.598l3.086-3.09" fill="none" stroke-width="0.3985" stroke="rgb(0%,0%,0%)" stroke-miterlimit="10"/></g></g><g clip-path="url(#aa)"><g clip-path="url(#ab)"><path d="M122.543 28.598l3.086-3.09" fill="none" stroke-width="0.3985" stroke="rgb(0%,0%,0%)" stroke-miterlimit="10"/></g></g><g clip-path="url(#ac)"><g clip-path="url(#ad)"><path d="M125.531 28.598l3.09-3.09" fill="none" stroke-width="0.3985" stroke="rgb(0%,0%,0%)" stroke-miterlimit="10"/></g></g><g clip-path="url(#ae)"><g clip-path="url(#af)"><path d="M128.52 28.598l3.09-3.09" fill="none" stroke-width="0.3985" stroke="rgb(0%,0%,0%)" stroke-miterlimit="10"/></g></g><g clip-path="url(#ag)"><g clip-path="url(#ah)"><path d="M131.508 28.598l3.09-3.09" fill="none" stroke-width="0.3985" stroke="rgb(0%,0%,0%)" stroke-miterlimit="10"/></g></g><g clip-path="url(#ai)"><g clip-path="url(#aj)"><path d="M119.555 25.61l3.086-3.09" fill="none" stroke-width="0.3985" stroke="rgb(0%,0%,0%)" stroke-miterlimit="10"/></g></g><g clip-path="url(#ak)"><g clip-path="url(#al)"><path d="M122.543 25.61l3.086-3.09" fill="none" stroke-width="0.3985" stroke="rgb(0%,0%,0%)" stroke-miterlimit="10"/></g></g><g clip-path="url(#am)"><g clip-path="url(#an)"><path d="M125.531 25.61l3.09-3.09" fill="none" stroke-width="0.3985" stroke="rgb(0%,0%,0%)" stroke-miterlimit="10"/></g></g><g clip-path="url(#ao)"><g clip-path="url(#ap)"><path d="M128.52 25.61l3.09-3.09" fill="none" stroke-width="0.3985" stroke="rgb(0%,0%,0%)" stroke-miterlimit="10"/></g></g><g clip-path="url(#aq)"><g clip-path="url(#ar)"><path d="M131.508 25.61l3.09-3.09" fill="none" stroke-width="0.3985" stroke="rgb(0%,0%,0%)" stroke-miterlimit="10"/></g></g><use xlink:href="#as" x="133.72" y="25.247" fill="rgb(0%,0%,0%)"/><use xlink:href="#at" x="137.871" y="33.317" fill="rgb(0%,0%,0%)"/><g fill="rgb(0%,0%,0%)"><use xlink:href="#au" x="144.098" y="28.142"/><use xlink:href="#s" x="147.211" y="28.142"/><use xlink:href="#av" x="151.183" y="28.142"/></g><use xlink:href="#j" x="144.098" y="36.322" fill="rgb(0%,0%,0%)"/><use xlink:href="#aw" x="157.008" y="33.317" fill="rgb(0%,0%,0%)"/><use xlink:href="#k" x="166.97" y="33.317" fill="rgb(0%,0%,0%)"/><use xlink:href="#j" x="174.535" y="34.811" fill="rgb(0%,0%,0%)"/><use xlink:href="#ax" x="179.437" y="25.247" fill="rgb(0%,0%,0%)"/><use xlink:href="#ay" x="183.588" y="27.311" fill="rgb(0%,0%,0%)"/><use xlink:href="#q" x="189.814" y="27.311" fill="rgb(0%,0%,0%)"/><use xlink:href="#n" x="183.588" y="37.302" fill="rgb(0%,0%,0%)"/><use xlink:href="#m" x="187.289" y="37.302" fill="rgb(0%,0%,0%)"/><use xlink:href="#o" x="194.284" y="33.317" fill="rgb(0%,0%,0%)"/><use xlink:href="#p" x="198.158" y="33.317" fill="rgb(0%,0%,0%)"/><use xlink:href="#s" x="203.171" y="34.811" fill="rgb(0%,0%,0%)"/><use xlink:href="#r" x="207.64" y="33.317" fill="rgb(0%,0%,0%)"/><use xlink:href="#p" x="212.071" y="33.317" fill="rgb(0%,0%,0%)"/><use xlink:href="#q" x="217.08" y="34.811" fill="rgb(0%,0%,0%)"/><use xlink:href="#t" x="221.55" y="33.317" fill="rgb(0%,0%,0%)"/></svg>