<svg height="216.264" viewBox="0 0 256.072 162.198" width="341.429" xmlns="http://www.w3.org/2000/svg" xmlns:xlink="http://www.w3.org/1999/xlink"><symbol id="a" overflow="visible"><path d="m2.86-6.813s0-.109-.126-.109c-.234 0-.953.078-1.218.11-.079 0-.188.015-.188.187 0 .125.094.125.234.125.485 0 .5.063.5.172l-.03.203-1.439 5.734c-.046.141-.046.157-.046.221 0 .234.203.28.297.28a.418.418 0 0 0 .328-.203c.047-.093.5-1.937.562-2.187.344.031 1.157.187 1.157.844 0 .078 0 .109-.032.218-.015.11-.03.235-.03.344 0 .578.39.984.905.984.297 0 .579-.156.797-.53.25-.438.36-.985.36-1 0-.11-.094-.11-.125-.11-.094 0-.11.047-.141.187-.203.719-.422 1.235-.86 1.235-.203 0-.328-.11-.328-.47 0-.171.047-.405.079-.562.046-.171.046-.203.046-.312 0-.64-.624-.922-1.484-1.047.313-.172.64-.484.86-.734.484-.532.937-.954 1.421-.954.063 0 .079 0 .094.016.125.016.125.016.219.078.016 0 .016.016.031.032a.569.569 0 0 0 -.562.546c0 .157.109.344.375.344.265 0 .546-.219.546-.61 0-.296-.234-.624-.671-.624-.282 0-.735.078-1.454.875-.343.375-.734.781-1.109.922zm0 0"/></symbol><symbol id="b" overflow="visible"><path d="m4.5-4.297c0-.047-.031-.094-.094-.094-.11 0-.515.391-.672.688-.218-.547-.609-.703-.937-.703-1.172 0-2.39 1.468-2.39 2.922-.001.968.576 1.593 1.311 1.593.422 0 .812-.234 1.172-.593-.094.343-.422 1.687-.454 1.78-.078.282-.156.313-.718.329-.125 0-.219 0-.219.203 0 0 0 .11.125.11.313 0 .672-.032 1-.032s.688.032 1.031.032c.047 0 .172 0 .172-.204 0-.109-.094-.109-.265-.109-.47 0-.47-.063-.47-.156 0-.078.016-.14.032-.219zm-2.75 4.188c-.61 0-.64-.766-.64-.938 0-.484.28-1.562.452-1.984.313-.735.829-1.156 1.235-1.156.656 0 .797.812.797.875 0 .062-.547 2.25-.578 2.28-.157.282-.72.923-1.266.923zm0 0"/></symbol><symbol id="c" overflow="visible"><path d="m8.313-2.297c-.547.422-.813.828-.891.969-.453.687-.531 1.312-.531 1.312 0 .125.125.125.203.125.156 0 .172-.015.218-.203.22-.969.813-1.812 1.938-2.265.125-.047.156-.063.156-.141 0-.063-.062-.094-.078-.11-.453-.156-1.656-.656-2.031-2.328-.031-.125-.047-.156-.203-.156-.078 0-.203 0-.203.125 0 .016.093.64.5 1.313.203.297.5.64.921.969h-7.405c-.172 0-.36 0-.36.187 0 .203.188.203.36.203zm0 0"/></symbol><symbol id="d" overflow="visible"><path d="m5.719-6.984c-.094-.141-.094-.157-.235-.157-.687 0-1.906.282-2.421 1.125-.157-.28-.641-1.015-1.391-1.015-.688 0-1.125.625-1.125 1.203 0 .375.234.625.515.906.547.563.547.719.547 1.094 0 .594-.046 1.187-.484 1.187-.266 0-.313-.375-.328-.546 0-.079-.016-.157-.125-.157-.125 0-.125.11-.125.14 0 .188.094.782.578.782.813 0 .813-1.281.813-1.5 0-.312-.032-.687-.704-1.312-.28-.25-.39-.391-.39-.625 0-.422.297-.954.812-.954.516 0 .922.782.922 1.954v2.937c0 .094 0 1.922-.656 1.922-.36 0-.734-.313-.938-.938.016 0 .22-.062.22-.156 0-.062-.079-.11-.11-.11a1.01 1.01 0 0 0 -.203.063c-.016-.062-.063-.171-.141-.171-.047 0-.125.093-.125.14a.21.21 0 0 0 .047.125c-.063.016-.219.063-.219.156 0 .047.063.11.11.11a.88.88 0 0 0 .187-.063c.313.86.828 1.064 1.172 1.064.703 0 1.5-.906 1.5-2.938v-.719h1.14l.125 2.188c0 .063-.03.14-.03.328 0 .594.484 1.14 1.155 1.14.125 0 .157 0 .344-.14l.719-.562c.11-.095.125-.111.125-.142 0-.078-.156-.14-.188-.14-.046 0-.406.28-.859.656a.946.946 0 0 1 -.453-.813c0-.187.031-.219.031-.328 0-.297-.047-.813-.062-1.125-.016-.203-.063-1-.063-1.14.563-.172 1.64-.813 1.657-.829a.106.106 0 0 0 .062-.093c0-.016-.063-.141-.078-.141zm.561 2.734c-.922.5-1.125.5-1.422.5h-1.436v-.484c0-.688-.094-1.079-.203-1.391.344-.953 1.64-1.14 1.64-1.14.032 0 .079.109.094.109zm0 0"/></symbol><symbol id="e" overflow="visible"><path d="m2.86-3.344c0-.078-.063-.11-.094-.11-1.516-.092-1.907-1.092-1.907-1.686 0-.984.907-1.671 1.813-1.671.562 0 .89.359 1.312.906.454.562.938 1.172 1.782 1.172.703 0 1.14-.313 1.14-.704 0-.125-.093-.125-.156-.125-.125 0-.14.047-.156.141-.078.469-.782.469-.797.469-.14 0-.203-.031-.36-.328-.89-1.64-2.312-1.75-2.718-1.75-1.219 0-2.172.843-2.172 1.89 0 1.235 1.234 1.907 2.14 1.907.063 0 .172 0 .172-.11zm-2.048 1.516c-.172 0-.266 0-.266.11 0 .03 0 .109.094.109.343.03.671.046 1.437.75 1.064.968 1.283.968 2.079.968.516 0 .938 0 1.422-.343.36-.235.64-.641.64-1.141 0-.36-.14-.563-.5-.969-.39-.437-.421-.61-.421-.844 0-.421.11-.89.469-.89.015 0 .75 0 .828.703.015.063.031.125.156.125s.156-.047.156-.14c0-.422-.453-.907-1.156-.907-.719 0-1.297.516-1.297 1.14 0 .407.234.657.531 1 .375.407.407.579.407.782 0 .922-1.032 1.25-1.22 1.25-.062 0-.327-.078-.655-.297-.172-.14-.454-.39-.5-.422-.72-.687-1.11-.984-1.797-.984zm0 0"/></symbol><symbol id="f" overflow="visible"><path d="m4.578-3.188c0-.796-.047-1.593-.39-2.328-.455-.968-1.283-1.124-1.688-1.124-.61 0-1.328.266-1.75 1.188-.313.687-.36 1.469-.36 2.266 0 .75.032 1.64.454 2.406a1.83 1.83 0 0 0 1.64 1c.532 0 1.297-.203 1.735-1.157.312-.687.36-1.468.36-2.25zm-2.094 3.188c-.39 0-.984-.25-1.156-1.203-.11-.594-.11-1.516-.11-2.11 0-.64 0-1.296.079-1.828.187-1.187.937-1.28 1.187-1.28.329 0 .985.187 1.172 1.171.11.563.11 1.313.11 1.938 0 .75 0 1.421-.11 2.062-.156.953-.719 1.25-1.172 1.25zm0 0"/></symbol><symbol id="g" overflow="visible"><path d="m3.297 2.39c0-.03 0-.046-.172-.218-1.234-1.25-1.563-3.14-1.563-4.672 0-1.734.375-3.469 1.61-4.703.125-.125.125-.14.125-.172 0-.078-.031-.11-.094-.11-.11 0-1 .688-1.594 1.954-.499 1.093-.625 2.203-.625 3.031 0 .781.11 1.984.657 3.125.609 1.219 1.453 1.875 1.562 1.875.063 0 .094-.031.094-.11zm0 0"/></symbol><symbol id="h" overflow="visible"><path d="m2.875-2.5c0-.766-.11-1.969-.656-3.11-.594-1.217-1.453-1.873-1.547-1.873a.107.107 0 0 0 -.11.109c0 .031 0 .047.188.234.984.985 1.547 2.563 1.547 4.641 0 1.719-.36 3.469-1.594 4.719-.14.125-.14.14-.14.172 0 .062.046.109.109.109.094 0 1-.688 1.578-1.953.516-1.094.625-2.203.625-3.047zm0 0"/></symbol><symbol id="i" overflow="visible"><path d="m3.594-2.219c0-.765-.094-1.328-.406-1.812-.22-.313-.657-.594-1.204-.594-1.624 0-1.624 1.906-1.624 2.406s0 2.36 1.625 2.36c1.61 0 1.61-1.86 1.61-2.36zm-1.61 2.156c-.328 0-.75-.187-.89-.75-.094-.406-.094-.983-.094-1.5 0-.515 0-1.046.094-1.421.156-.547.593-.704.89-.704.375 0 .735.235.86.641.11.375.125.875.125 1.485 0 .515 0 1.03-.094 1.468-.14.64-.61.781-.89.781zm0 0"/></symbol><clipPath id="j"><path d="m30 2h2v160.2h-2zm0 0"/></clipPath><clipPath id="k"><path d="m39 .395h179v41.605h-179zm0 0"/></clipPath><clipPath id="l"><path d="m39 121h179v40.8h-179zm0 0"/></clipPath><path d="m-.002 80.701h191.684" fill="none" stroke="#000" stroke-miterlimit="10" stroke-width=".79701" transform="matrix(1 0 0 -1 30.9 161.799)"/><path d="m225.172 81.098-4.145-2.07 1.555 2.07-1.555 2.07"/><g clip-path="url(#j)"><path d="m-.002-.002v158.817" fill="none" stroke="#000" stroke-miterlimit="10" stroke-width=".79701" transform="matrix(1 0 0 -1 30.9 161.799)"/></g><path d="m30.898.395-2.07 4.144 2.07-1.555 2.075 1.555"/><path d="m19.428 121.053s4.68-1.484 6.477-1.98c1.797-.493 4.675-1.184 6.472-1.586 1.797-.407 4.68-.989 6.477-1.329 1.797-.343 4.68-.843 6.476-1.136 1.797-.297 4.68-.739 6.477-1a459.97 459.97 0 0 1 6.477-.883 609.326 609.326 0 0 1 12.949-1.516 908.83 908.83 0 0 1 6.476-.66c1.797-.172 4.68-.441 6.477-.605 1.797-.16 4.68-.41 6.476-.559a1282.002 1282.002 0 0 1 19.426-1.461c1.797-.125 4.68-.312 6.477-.43 1.797-.117 4.68-.296 6.476-.406 1.797-.11 4.676-.277 6.473-.383a3806.449 3806.449 0 0 1 12.953-.707c1.797-.093 4.68-.238 6.477-.328 1.797-.086 4.68-.226 6.476-.308a3431.818 3431.818 0 0 1 12.95-.59c1.796-.078 6.476-.274 6.476-.274" fill="none" stroke="#f00" stroke-miterlimit="10" stroke-width=".79701" transform="matrix(1 0 0 -1 30.9 161.799)"/><g clip-path="url(#k)"><path d="m19.428 161.404s4.68-3.02 6.477-4.035c1.797-1.02 4.675-2.46 6.472-3.3s4.68-2.047 6.477-2.754c1.797-.703 4.68-1.727 6.476-2.328a205.08 205.08 0 0 1 6.477-1.997c1.797-.515 4.68-1.277 6.477-1.726a295.26 295.26 0 0 1 6.472-1.516 354.43 354.43 0 0 1 6.477-1.336c1.797-.347 4.68-.87 6.476-1.183 1.797-.313 4.68-.782 6.477-1.063a537.76 537.76 0 0 1 6.476-.957 524.43 524.43 0 0 1 6.473-.863c1.797-.23 4.68-.578 6.477-.785a911.43 911.43 0 0 1 6.476-.719c1.797-.191 4.68-.484 6.477-.656a906.604 906.604 0 0 1 12.95-1.164c1.8-.153 4.679-.38 6.476-.52a1201.574 1201.574 0 0 1 12.953-.926c1.797-.12 4.68-.304 6.476-.418a1746.9 1746.9 0 0 1 12.95-.757c1.796-.098 6.476-.344 6.476-.344" fill="none" stroke="#f00" stroke-miterlimit="10" stroke-width=".79701" transform="matrix(1 0 0 -1 30.9 161.799)"/></g><path d="m19.428 40.35s4.68 1.484 6.477 1.98c1.797.492 4.675 1.184 6.472 1.586 1.797.406 4.68.988 6.477 1.328 1.797.344 4.68.844 6.476 1.137 1.797.297 4.68.738 6.477 1s4.68.652 6.477.883a609.326 609.326 0 0 0 12.949 1.515c1.797.192 4.68.485 6.476.66 1.797.172 4.68.442 6.477.606 1.797.16 4.68.41 6.476.559a1282.002 1282.002 0 0 0 19.426 1.461c1.797.125 4.68.312 6.477.43 1.797.117 4.68.296 6.476.406 1.797.109 4.676.277 6.473.382a3806.449 3806.449 0 0 0 12.953.707c1.797.094 4.68.239 6.477.325a3430.979 3430.979 0 0 0 25.902 1.176" fill="none" stroke="#00f" stroke-miterlimit="10" stroke-width=".79701" transform="matrix(1 0 0 -1 30.9 161.799)"/><g clip-path="url(#l)"><path d="m19.428-.002s4.68 3.02 6.477 4.035c1.797 1.02 4.675 2.461 6.472 3.301s4.68 2.047 6.477 2.754c1.797.703 4.68 1.727 6.476 2.328 1.797.598 4.68 1.477 6.477 1.996 1.797.516 4.68 1.278 6.477 1.727 1.796.45 4.675 1.12 6.472 1.515s4.68.985 6.477 1.332c1.797.352 4.68.875 6.476 1.188 1.797.313 4.68.781 6.477 1.063 1.797.28 4.68.703 6.476.957 1.797.25 4.676.636 6.473.863 1.797.23 4.68.578 6.477.785a729.154 729.154 0 0 0 12.953 1.379c1.797.172 4.68.441 6.476.601 1.797.165 4.676.41 6.473.559 1.8.152 4.68.383 6.477.52a1201.574 1201.574 0 0 0 12.953.926 1746.9 1746.9 0 0 0 25.902 1.52" fill="none" stroke="#00f" stroke-miterlimit="10" stroke-width=".79701" transform="matrix(1 0 0 -1 30.9 161.799)"/></g><path d="m76.979 138.33c-5.117-20.351-7.262-33.715-8.719-53.941" fill="none" stroke="#000" stroke-dasharray="2.98883 2.98883" stroke-miterlimit="10" stroke-width=".79701" transform="matrix(1 0 0 -1 30.9 161.799)"/><path d="m-1.556 2.072c.13-.777 1.558-1.944 1.943-2.072-.387-.13-1.81-1.294-1.943-2.07" style="fill:none;stroke-width:.6376;stroke-linecap:round;stroke-linejoin:round;stroke:#000;stroke-miterlimit:10" transform="matrix(-.07178 .99738 .99738 .07178 99.161 77.411)"/><use x="104.036" xlink:href="#a" y="68.282"/><use x="112.303" xlink:href="#c" y="68.282"/><use x="125.033" xlink:href="#f" y="68.282"/><path d="m76.979 23.072c-5.117 20.356-7.262 33.715-8.719 53.942" fill="none" stroke="#000" stroke-dasharray="2.98883 2.98883" stroke-miterlimit="10" stroke-width=".79701" transform="matrix(1 0 0 -1 30.9 161.799)"/><path d="m-1.556 2.071c.132-.777 1.556-1.94 1.943-2.07-.387-.131-1.813-1.296-1.94-2.074" style="fill:none;stroke-width:.6376;stroke-linecap:round;stroke-linejoin:round;stroke:#000;stroke-miterlimit:10" transform="matrix(-.07177311 -.99738088 -.99738088 .07177311 99.161158 84.784974)"/><use x="70.619" xlink:href="#a" y="100.834"/><use x="78.886" xlink:href="#c" y="100.834"/><use x="91.616" xlink:href="#f" y="100.834"/><use x="228.891" xlink:href="#d" y="83.59"/><use x="236.086" xlink:href="#g" y="83.59"/><use x="239.96" xlink:href="#b" y="83.59"/><use x="244.408" xlink:href="#i" y="85.084"/><use x="248.877" xlink:href="#h" y="83.59"/><use x="3.321" xlink:href="#e" y="11.59"/><use x="10.516" xlink:href="#g" y="11.59"/><use x="14.39" xlink:href="#b" y="11.59"/><use x="18.838" xlink:href="#i" y="13.084"/><use x="23.307" xlink:href="#h" y="11.59"/></svg>