<svg xmlns="http://www.w3.org/2000/svg" xmlns:xlink="http://www.w3.org/1999/xlink" width="661.527" height="162.629" viewBox="0 0 496.145 121.972"><defs><clipPath id="d"><path d="M102 102h20v19.973h-20Zm0 0"/></clipPath><clipPath id="i"><path d="M374 102h21v19.973h-21Zm0 0"/></clipPath><clipPath id="j"><path d="M476 51h20.145v20H476Zm0 0"/></clipPath><clipPath id="s"><path d="M310.602 81.793h17.007v17.008h-17.007Zm0 0"/></clipPath><clipPath id="t"><path d="M337.754 69.473h17.008v17.011h-17.008Zm0 0"/></clipPath><clipPath id="u"><path d="M310.602 57.156h17.007v17.008h-17.007Zm0 0"/></clipPath><clipPath id="v"><path d="M338.3 26.371h17.009V43.38H338.3Zm0 0"/></clipPath><clipPath id="w"><path d="M338.3 78.555h17.009v17.007H338.3Zm0 0"/></clipPath><clipPath id="x"><path d="M310.602 47.77h17.007v17.007h-17.007Zm0 0"/></clipPath><clipPath id="y"><path d="M337.754 35.45h17.008v17.01h-17.008Zm0 0"/></clipPath><clipPath id="z"><path d="M310.602 23.133h17.007V40.14h-17.007Zm0 0"/></clipPath><clipPath id="A"><path d="M412.484 85.113h17.008v17.008h-17.008Zm0 0"/></clipPath><clipPath id="B"><path d="M439.863 58.781h17.012V75.79h-17.012Zm0 0"/></clipPath><clipPath id="C"><path d="M412.8 41.633h17.009V58.64H412.8Zm0 0"/></clipPath><clipPath id="D"><path d="M440.168 33.652h17.008V50.66h-17.008Zm0 0"/></clipPath><symbol overflow="visible" id="a"><path style="stroke:none" d="M2.828-6.234c0-.204-.14-.36-.36-.36-.28 0-.546.266-.546.532 0 .187.14.359.375.359.234 0 .531-.234.531-.531Zm-.75 3.75c.11-.282.11-.313.219-.579.078-.203.125-.343.125-.53 0-.438-.313-.813-.813-.813-.937 0-1.312 1.453-1.312 1.531 0 .11.094.11.11.11.109 0 .109-.032.156-.188.28-.938.671-1.235 1.015-1.235.078 0 .25 0 .25.313 0 .219-.078.422-.11.531-.077.25-.53 1.406-.687 1.844-.11.25-.234.578-.234.797 0 .469.344.812.812.812.938 0 1.313-1.437 1.313-1.53 0-.11-.094-.11-.125-.11-.094 0-.094.031-.14.187C2.468-.719 2.14-.109 1.64-.109c-.172 0-.25-.094-.25-.329 0-.25.062-.39.296-1Zm0 0"/></symbol><symbol overflow="visible" id="e"><path style="stroke:none" d="M2.86-6.813s0-.109-.126-.109c-.234 0-.953.078-1.218.11-.079 0-.188.015-.188.187 0 .125.094.125.234.125.485 0 .5.063.5.172l-.03.203L.593-.391C.547-.25.547-.234.547-.17c0 .234.203.28.297.28a.407.407 0 0 0 .36-.265l.187-.75.218-.89c.063-.235.125-.454.172-.673.016-.062.11-.39.11-.453.03-.094.343-.64.687-.922.219-.156.516-.344.953-.344.422 0 .531.344.531.704 0 .53-.375 1.625-.609 2.234-.078.219-.14.344-.14.547 0 .469.359.812.828.812.937 0 1.296-1.453 1.296-1.53 0-.11-.078-.11-.109-.11-.11 0-.11.031-.156.187-.14.532-.469 1.235-1.016 1.235-.172 0-.234-.094-.234-.329 0-.25.078-.484.172-.703.156-.437.61-1.625.61-2.203 0-.64-.391-1.062-1.141-1.062-.626 0-1.11.312-1.485.765Zm0 0"/></symbol><symbol overflow="visible" id="h"><path style="stroke:none" d="M4.672-2.719c0-1.047-.688-1.687-1.594-1.687C1.75-4.406.406-2.984.406-1.578.406-.594 1.078.109 2 .109c1.328 0 2.672-1.375 2.672-2.828ZM2.016-.109c-.438 0-.875-.313-.875-1.094 0-.484.265-1.563.578-2.063.5-.765 1.078-.921 1.36-.921.577 0 .874.484.874 1.078 0 .39-.203 1.437-.578 2.078-.36.578-.906.922-1.36.922Zm0 0"/></symbol><symbol overflow="visible" id="b"><path style="stroke:none" d="M2.938-6.375c0-.25 0-.266-.235-.266C2.078-6 1.203-6 .891-6v.313c.203 0 .78 0 1.296-.266v5.172c0 .36-.03.469-.921.469H.953V0c.344-.031 1.203-.031 1.61-.031.39 0 1.265 0 1.609.031v-.313h-.313c-.906 0-.921-.109-.921-.468Zm0 0"/></symbol><symbol overflow="visible" id="c"><path style="stroke:none" d="m1.266-.766 1.062-1.03c1.547-1.376 2.14-1.907 2.14-2.907 0-1.14-.89-1.938-2.109-1.938A1.843 1.843 0 0 0 .5-4.828c0 .547.5.547.531.547.172 0 .516-.11.516-.532a.513.513 0 0 0-.531-.515c-.079 0-.094 0-.125.016.218-.657.765-1.016 1.343-1.016.907 0 1.329.812 1.329 1.625 0 .797-.485 1.578-1.047 2.203L.609-.375C.5-.265.5-.235.5 0h3.703l.266-1.734h-.235C4.172-1.438 4.11-1 4-.844c-.063.078-.719.078-.938.078Zm0 0"/></symbol><symbol overflow="visible" id="f"><path style="stroke:none" d="M2.89-3.516c.813-.265 1.391-.953 1.391-1.75 0-.812-.875-1.375-1.828-1.375-1 0-1.765.594-1.765 1.36 0 .328.218.515.515.515.297 0 .5-.218.5-.515 0-.485-.469-.485-.61-.485.298-.5.954-.625 1.313-.625.422 0 .969.22.969 1.11 0 .125-.031.703-.281 1.14-.297.485-.64.516-.89.516a3.29 3.29 0 0 1-.392.031c-.078.016-.14.031-.14.125 0 .11.062.11.234.11h.438c.812 0 1.187.671 1.187 1.656 0 1.36-.687 1.64-1.125 1.64-.437 0-1.187-.171-1.531-.75.344.047.656-.171.656-.546a.537.537 0 0 0-.547-.563c-.25 0-.562.14-.562.578C.422-.437 1.344.22 2.437.22c1.22 0 2.126-.906 2.126-1.922 0-.813-.641-1.594-1.672-1.813Zm0 0"/></symbol><symbol overflow="visible" id="g"><path style="stroke:none" d="M2.938-1.64v.859c0 .36-.032.469-.766.469h-.203V0c.406-.031.922-.031 1.343-.031.422 0 .938 0 1.36.031v-.313h-.219c-.734 0-.75-.109-.75-.468v-.86h.985v-.312h-.985v-4.531c0-.204 0-.266-.172-.266-.078 0-.11 0-.187.125L.28-1.953v.312Zm.046-.313H.563l2.421-3.719Zm0 0"/></symbol><symbol overflow="visible" id="k"><path style="stroke:none" d="M3-1.594c0-.36 0-1.718-1.313-1.718C.391-3.313.391-1.954.391-1.595.39-1.234.39.11 1.687.11 3 .11 3-1.234 3-1.594ZM1.687-.062c-.171 0-.593-.063-.718-.563C.89-.891.89-1.25.89-1.656c0-.375 0-.719.078-1 .125-.422.515-.5.719-.5.375 0 .64.187.734.547.078.25.078.656.078.953 0 .343 0 .75-.078 1.047-.125.484-.531.546-.735.546Zm0 0"/></symbol><symbol overflow="visible" id="m"><path style="stroke:none" d="M2.938-.969h-.22c0 .094-.062.406-.14.453-.031.032-.453.032-.531.032h-.969c.328-.235.688-.516.984-.72.454-.312.876-.593.876-1.124 0-.64-.61-.985-1.313-.985-.672 0-1.172.376-1.172.876 0 .25.219.296.297.296a.283.283 0 0 0 .281-.296.27.27 0 0 0-.281-.282c.14-.234.438-.375.766-.375.484 0 .89.281.89.766 0 .422-.297.75-.672 1.062L.516-.234c-.047.047-.063.047-.063.078V0h2.313Zm0 0"/></symbol><symbol overflow="visible" id="n"><path style="stroke:none" d="M.984-2.75c.25.063.485.063.532.063.343 0 .593-.094.718-.157.125-.062.47-.281.47-.39 0-.079-.063-.079-.079-.079s-.016 0-.078.016c-.188.063-.5.14-.828.14-.282 0-.547-.046-.813-.14-.062-.015-.062-.015-.078-.015-.078 0-.078.046-.078.124v1.5c0 .094 0 .157.11.157.046 0 .046-.016.093-.063.188-.218.453-.328.797-.328.281 0 .453.156.516.266.109.172.14.39.14.64 0 .204-.015.485-.219.672a.822.822 0 0 1-.609.25c-.328 0-.687-.14-.844-.437.204-.016.282-.156.282-.281a.282.282 0 1 0-.563.016c0 .5.484.905 1.125.905.75 0 1.36-.5 1.36-1.109 0-.563-.485-1.094-1.172-1.094-.313 0-.579.078-.782.25Zm0 0"/></symbol><symbol overflow="visible" id="p"><path style="stroke:none" d="M1.984-3.172c0-.14-.015-.14-.187-.14C1.453-3 .89-3 .797-3H.719v.219h.078c.11 0 .437-.016.734-.14v2.5c0 .14 0 .202-.531.202H.75V0c.266-.016.719-.016 1-.016.297 0 .734 0 1.016.016v-.219h-.25c-.532 0-.532-.062-.532-.203Zm0 0"/></symbol><symbol overflow="visible" id="q"><path style="stroke:none" d="M3.078-.813v-.218h-.625V-3.22c0-.125 0-.156-.14-.156-.094 0-.094 0-.157.078L.312-1.03v.218H1.97v.391c0 .156 0 .203-.422.203H1.36V0c.235-.016.563-.016.86-.016.281 0 .61 0 .844.016v-.219H2.89c-.438 0-.438-.047-.438-.203v-.39Zm-1.062-2.03v1.812H.546Zm0 0"/></symbol><symbol overflow="visible" id="r"><path style="stroke:none" d="M2.469-1.578c0 .312-.031.687-.203.984a.96.96 0 0 1-.86.5c-.047 0-.36 0-.531-.125.125-.031.203-.125.203-.25 0-.172-.11-.265-.266-.265-.078 0-.265.046-.265.28 0 .563.734.563.875.563.844 0 1.562-.718 1.562-1.75 0-1.203-.578-1.671-1.265-1.671-.5 0-.75.171-.953.343a.937.937 0 0 0-.36.781c0 .282.078.532.344.766.234.203.469.344.89.344.204 0 .563-.078.829-.5Zm-.813.328c-.203 0-.39-.031-.578-.266-.14-.171-.156-.39-.156-.671 0-.36.015-.516.203-.72.078-.077.234-.218.594-.218.734 0 .734.813.734 1.031 0 .406-.297.844-.797.844Zm0 0"/></symbol><symbol overflow="visible" id="l"><path style="stroke:none" d="M1.453-.297a.313.313 0 0 0-.312-.312.31.31 0 0 0-.297.312c0 .156.14.297.297.297.171 0 .312-.14.312-.297Zm0 0"/></symbol><symbol overflow="visible" id="o"><path style="stroke:none" d="M4.39-1.11c.079 0 .204 0 .204-.14s-.125-.14-.203-.14H1.016c-.079 0-.22 0-.22.14s.141.14.22.14Zm0 0"/></symbol></defs><path style="stroke:none;fill-rule:nonzero;fill:#9f9;fill-opacity:1" d="M19.926 77.992c0-5.5-4.461-9.96-9.961-9.96a9.964 9.964 0 1 0 9.96 9.96Zm0 0"/><use xlink:href="#a" x="5.756" y="81.279" style="fill:#000;fill-opacity:1"/><use xlink:href="#b" x="9.188" y="81.279" style="fill:#000;fill-opacity:1"/><path style="stroke:none;fill-rule:nonzero;fill:#9f9;fill-opacity:1" d="M19.926 43.977c0-5.504-4.461-9.961-9.961-9.961C4.46 34.016 0 38.473 0 43.976a9.964 9.964 0 1 0 19.925.001Zm0 0"/><use xlink:href="#a" x="5.756" y="47.263" style="fill:#000;fill-opacity:1"/><use xlink:href="#c" x="9.188" y="47.263" style="fill:#000;fill-opacity:1"/><g clip-path="url(#d)"><path style="stroke:none;fill-rule:nonzero;fill:#99f;fill-opacity:1" d="M121.973 112.008c0-5.5-4.457-9.961-9.961-9.961-5.504 0-9.965 4.46-9.965 9.96 0 5.505 4.46 9.966 9.965 9.966 5.504 0 9.96-4.461 9.96-9.965Zm0 0"/></g><use xlink:href="#e" x="106.649" y="115.469" style="fill:#000;fill-opacity:1"/><use xlink:href="#b" x="112.389" y="115.469" style="fill:#000;fill-opacity:1"/><path style="stroke:none;fill-rule:nonzero;fill:#99f;fill-opacity:1" d="M121.973 77.992a9.96 9.96 0 0 0-9.961-9.96 9.964 9.964 0 1 0 0 19.925c5.504 0 9.96-4.46 9.96-9.965Zm0 0"/><use xlink:href="#e" x="106.649" y="81.453" style="fill:#000;fill-opacity:1"/><use xlink:href="#c" x="112.389" y="81.453" style="fill:#000;fill-opacity:1"/><path style="stroke:none;fill-rule:nonzero;fill:#99f;fill-opacity:1" d="M121.973 43.977a9.958 9.958 0 0 0-9.961-9.961c-5.504 0-9.965 4.457-9.965 9.96a9.964 9.964 0 0 0 9.965 9.965c5.504 0 9.96-4.46 9.96-9.964Zm0 0"/><use xlink:href="#e" x="106.649" y="47.437" style="fill:#000;fill-opacity:1"/><use xlink:href="#f" x="112.389" y="47.437" style="fill:#000;fill-opacity:1"/><path style="stroke:none;fill-rule:nonzero;fill:#99f;fill-opacity:1" d="M121.973 9.96c0-5.503-4.457-9.964-9.961-9.964-5.504 0-9.965 4.461-9.965 9.965s4.46 9.96 9.965 9.96a9.958 9.958 0 0 0 9.96-9.96Zm0 0"/><use xlink:href="#e" x="106.649" y="13.422" style="fill:#000;fill-opacity:1"/><use xlink:href="#g" x="112.389" y="13.422" style="fill:#000;fill-opacity:1"/><path style="stroke:none;fill-rule:nonzero;fill:#f99;fill-opacity:1" d="M224.023 60.984c0-5.504-4.46-9.96-9.964-9.96-5.5 0-9.961 4.456-9.961 9.96 0 5.504 4.46 9.965 9.96 9.965a9.963 9.963 0 0 0 9.965-9.965Zm0 0"/><use xlink:href="#h" x="211.642" y="63.131" style="fill:#000;fill-opacity:1"/><path style="fill:none;stroke-width:.3985;stroke-linecap:butt;stroke-linejoin:miter;stroke:#4c4c4c;stroke-opacity:1;stroke-miterlimit:10" d="m9.642 64.834 81.403-27.137" transform="matrix(1 0 0 -1 9.963 146.025)"/><path style="fill:none;stroke-width:.31879;stroke-linecap:round;stroke-linejoin:round;stroke:#4c4c4c;stroke-opacity:1;stroke-miterlimit:10" d="M-1.196 1.594C-1.096.997 0 .098.3 0 0-.1-1.094-.996-1.195-1.594" transform="matrix(.94864 .31621 .31621 -.94864 101.01 108.327)"/><path style="fill:none;stroke-width:.3985;stroke-linecap:butt;stroke-linejoin:miter;stroke:#4c4c4c;stroke-opacity:1;stroke-miterlimit:10" d="m10.162 68.048 80.29-.003" transform="matrix(1 0 0 -1 9.963 146.025)"/><path style="fill:none;stroke-width:.31879;stroke-linecap:round;stroke-linejoin:round;stroke:#4c4c4c;stroke-opacity:1;stroke-miterlimit:10" d="M-1.194 1.596C-1.096.994.001.1.298-.002.001-.099-1.096-.998-1.194-1.596" transform="matrix(1 0 0 -1 100.413 77.979)"/><path style="fill:none;stroke-width:.3985;stroke-linecap:butt;stroke-linejoin:miter;stroke:#4c4c4c;stroke-opacity:1;stroke-miterlimit:10" d="m9.642 71.26 81.403 27.136" transform="matrix(1 0 0 -1 9.963 146.025)"/><path style="fill:none;stroke-width:.31879;stroke-linecap:round;stroke-linejoin:round;stroke:#4c4c4c;stroke-opacity:1;stroke-miterlimit:10" d="M-1.195 1.594C-1.098.997-.001.1.3 0 0-.098-1.095-.997-1.195-1.594" transform="scale(.99995 -.99995) rotate(18.435 197.27 287.424)"/><path style="fill:none;stroke-width:.3985;stroke-linecap:butt;stroke-linejoin:miter;stroke:#4c4c4c;stroke-opacity:1;stroke-miterlimit:10" d="M8.455 73.685 92.4 129.646" transform="matrix(1 0 0 -1 9.963 146.025)"/><path style="fill:none;stroke-width:.31879;stroke-linecap:round;stroke-linejoin:round;stroke:#4c4c4c;stroke-opacity:1;stroke-miterlimit:10" d="M-1.196 1.594C-1.096.997 0 .098.3.001 0-.1-1.097-.997-1.195-1.594" transform="scale(.99995 -.99995) rotate(33.689 78.233 160.866)"/><path style="fill:none;stroke-width:.3985;stroke-linecap:butt;stroke-linejoin:miter;stroke:#4c4c4c;stroke-opacity:1;stroke-miterlimit:10" d="M8.459 96.431 92.4 40.466" transform="matrix(1 0 0 -1 9.963 146.025)"/><path style="fill:none;stroke-width:.31879;stroke-linecap:round;stroke-linejoin:round;stroke:#4c4c4c;stroke-opacity:1;stroke-miterlimit:10" d="M-1.197 1.595C-1.097.995.001.102.3 0 0-.1-1.094-.995-1.197-1.594" transform="matrix(.83202 .55467 .55467 -.83202 102.365 105.557)"/><path style="fill:none;stroke-width:.3985;stroke-linecap:butt;stroke-linejoin:miter;stroke:#4c4c4c;stroke-opacity:1;stroke-miterlimit:10" d="M9.642 98.857 91.045 71.72" transform="matrix(1 0 0 -1 9.963 146.025)"/><path style="fill:none;stroke-width:.31879;stroke-linecap:round;stroke-linejoin:round;stroke:#4c4c4c;stroke-opacity:1;stroke-miterlimit:10" d="M-1.196 1.594C-1.096.997.002.099.299 0c-.3-.1-1.394-.995-1.495-1.593" transform="matrix(.94864 .31621 .31621 -.94864 101.01 74.304)"/><path style="fill:none;stroke-width:.3985;stroke-linecap:butt;stroke-linejoin:miter;stroke:#4c4c4c;stroke-opacity:1;stroke-miterlimit:10" d="M10.162 102.072h80.29" transform="matrix(1 0 0 -1 9.963 146.025)"/><path style="fill:none;stroke-width:.31879;stroke-linecap:round;stroke-linejoin:round;stroke:#4c4c4c;stroke-opacity:1;stroke-miterlimit:10" d="M-1.194 1.596C-1.096.998.001.1.298.002c-.297-.102-1.394-1-1.492-1.598" transform="matrix(1 0 0 -1 100.413 43.955)"/><path style="fill:none;stroke-width:.3985;stroke-linecap:butt;stroke-linejoin:miter;stroke:#4c4c4c;stroke-opacity:1;stroke-miterlimit:10" d="m9.642 105.283 81.403 27.137" transform="matrix(1 0 0 -1 9.963 146.025)"/><path style="fill:none;stroke-width:.31879;stroke-linecap:round;stroke-linejoin:round;stroke:#4c4c4c;stroke-opacity:1;stroke-miterlimit:10" d="M-1.195 1.594C-1.097.997 0 .1.3 0c-.301-.1-1.395-.996-1.495-1.593" transform="scale(.99995 -.99995) rotate(18.435 92.434 304.435)"/><path style="fill:none;stroke-width:.3985;stroke-linecap:butt;stroke-linejoin:miter;stroke:#4c4c4c;stroke-opacity:1;stroke-miterlimit:10" d="m111.158 38.568 82.586 41.293" transform="matrix(1 0 0 -1 9.963 146.025)"/><path style="fill:none;stroke-width:.31879;stroke-linecap:round;stroke-linejoin:round;stroke:#4c4c4c;stroke-opacity:1;stroke-miterlimit:10" d="M-1.196 1.594C-1.096.998.001.1.3-.001c-.3-.1-1.398-.996-1.496-1.594" transform="scale(.99992 -.99992) rotate(26.565 242.014 398.419)"/><path style="fill:none;stroke-width:.3985;stroke-linecap:butt;stroke-linejoin:miter;stroke:#4c4c4c;stroke-opacity:1;stroke-miterlimit:10" d="m112.092 69.716 80.586 13.43" transform="matrix(1 0 0 -1 9.963 146.025)"/><path style="fill:none;stroke-width:.31879;stroke-linecap:round;stroke-linejoin:round;stroke:#4c4c4c;stroke-opacity:1;stroke-miterlimit:10" d="M-1.194 1.595C-1.096.997 0 .101.3 0 0-.1-1.095-.995-1.194-1.593" transform="scale(.99994 -.99994) rotate(9.462 481.235 1192.921)"/><path style="fill:none;stroke-width:.3985;stroke-linecap:butt;stroke-linejoin:miter;stroke:#4c4c4c;stroke-opacity:1;stroke-miterlimit:10" d="m112.096 100.4 80.582-13.43" transform="matrix(1 0 0 -1 9.963 146.025)"/><path style="fill:none;stroke-width:.31879;stroke-linecap:round;stroke-linejoin:round;stroke:#4c4c4c;stroke-opacity:1;stroke-miterlimit:10" d="M-1.194 1.593C-1.095.996 0 .1.299 0c-.3-.101-1.395-.997-1.493-1.595" transform="matrix(.98634 .16438 .16438 -.98634 202.639 59.056)"/><path style="fill:none;stroke-width:.3985;stroke-linecap:butt;stroke-linejoin:miter;stroke:#4c4c4c;stroke-opacity:1;stroke-miterlimit:10" d="m111.158 131.548 82.59-41.293" transform="matrix(1 0 0 -1 9.963 146.025)"/><path style="fill:none;stroke-width:.31879;stroke-linecap:round;stroke-linejoin:round;stroke:#4c4c4c;stroke-opacity:1;stroke-miterlimit:10" d="M-1.197 1.595C-1.094.995 0 .1.298.002 0-.1-1.094-.996-1.197-1.593" transform="matrix(.89438 .4472 .4472 -.89438 203.709 55.77)"/><path style="stroke:none;fill-rule:nonzero;fill:#9f9;fill-opacity:1" d="M292.055 77.992c0-5.5-4.461-9.96-9.961-9.96a9.964 9.964 0 1 0 9.96 9.96Zm0 0"/><use xlink:href="#a" x="277.881" y="81.279" style="fill:#000;fill-opacity:1"/><use xlink:href="#b" x="281.313" y="81.279" style="fill:#000;fill-opacity:1"/><path style="stroke:none;fill-rule:nonzero;fill:#9f9;fill-opacity:1" d="M292.055 43.977c0-5.504-4.461-9.961-9.961-9.961-5.504 0-9.965 4.457-9.965 9.96a9.964 9.964 0 1 0 19.925.001Zm0 0"/><use xlink:href="#a" x="277.881" y="47.263" style="fill:#000;fill-opacity:1"/><use xlink:href="#c" x="281.313" y="47.263" style="fill:#000;fill-opacity:1"/><g clip-path="url(#i)"><path style="stroke:none;fill-rule:nonzero;fill:#99f;fill-opacity:1" d="M394.102 112.008c0-5.5-4.461-9.961-9.961-9.961-5.504 0-9.965 4.46-9.965 9.96 0 5.505 4.46 9.966 9.965 9.966 5.5 0 9.96-4.461 9.96-9.965Zm0 0"/></g><use xlink:href="#e" x="378.774" y="115.469" style="fill:#000;fill-opacity:1"/><use xlink:href="#b" x="384.514" y="115.469" style="fill:#000;fill-opacity:1"/><path style="stroke:none;fill-rule:nonzero;fill:#99f;fill-opacity:1" d="M394.102 77.992c0-5.5-4.461-9.96-9.961-9.96a9.964 9.964 0 1 0 9.96 9.96Zm0 0"/><use xlink:href="#e" x="378.774" y="81.453" style="fill:#000;fill-opacity:1"/><use xlink:href="#c" x="384.514" y="81.453" style="fill:#000;fill-opacity:1"/><path style="stroke:none;fill-rule:nonzero;fill:#99f;fill-opacity:1" d="M394.102 43.977c0-5.504-4.461-9.961-9.961-9.961-5.504 0-9.965 4.457-9.965 9.96a9.964 9.964 0 1 0 19.925.001Zm0 0"/><use xlink:href="#e" x="378.774" y="47.437" style="fill:#000;fill-opacity:1"/><use xlink:href="#f" x="384.514" y="47.437" style="fill:#000;fill-opacity:1"/><path style="stroke:none;fill-rule:nonzero;fill:#99f;fill-opacity:1" d="M394.102 9.96c0-5.503-4.461-9.964-9.961-9.964-5.504 0-9.965 4.461-9.965 9.965s4.46 9.96 9.965 9.96c5.5 0 9.96-4.456 9.96-9.96Zm0 0"/><use xlink:href="#e" x="378.774" y="13.422" style="fill:#000;fill-opacity:1"/><use xlink:href="#g" x="384.514" y="13.422" style="fill:#000;fill-opacity:1"/><g clip-path="url(#j)"><path style="stroke:none;fill-rule:nonzero;fill:#f99;fill-opacity:1" d="M496.152 60.984c0-5.504-4.46-9.96-9.964-9.96-5.5 0-9.961 4.456-9.961 9.96a9.964 9.964 0 1 0 19.925 0Zm0 0"/></g><use xlink:href="#h" x="483.767" y="63.131" style="fill:#000;fill-opacity:1"/><path style="fill:none;stroke-width:.3985;stroke-linecap:butt;stroke-linejoin:miter;stroke:#4c4c4c;stroke-opacity:1;stroke-miterlimit:10" d="m281.771 64.834 81.403-27.137" transform="matrix(1 0 0 -1 9.963 146.025)"/><path style="fill:none;stroke-width:.31879;stroke-linecap:round;stroke-linejoin:round;stroke:#4c4c4c;stroke-opacity:1;stroke-miterlimit:10" d="M-1.196 1.594C-1.096.997 0 .098.3 0 0-.1-1.094-.996-1.196-1.593" transform="matrix(.94864 .31621 .31621 -.94864 373.138 108.327)"/><path style="fill:none;stroke-width:.3985;stroke-linecap:butt;stroke-linejoin:miter;stroke:#4c4c4c;stroke-opacity:1;stroke-miterlimit:10" d="m282.295 68.048 80.281-.003" transform="matrix(1 0 0 -1 9.963 146.025)"/><path style="fill:none;stroke-width:.31879;stroke-linecap:round;stroke-linejoin:round;stroke:#4c4c4c;stroke-opacity:1;stroke-miterlimit:10" d="M-1.197 1.596C-1.096.994-.002.1.299-.002c-.3-.097-1.395-.996-1.496-1.594" transform="matrix(1 0 0 -1 372.541 77.979)"/><path style="fill:none;stroke-width:.3985;stroke-linecap:butt;stroke-linejoin:miter;stroke:#4c4c4c;stroke-opacity:1;stroke-miterlimit:10" d="m281.771 71.26 81.403 27.136" transform="matrix(1 0 0 -1 9.963 146.025)"/><path style="fill:none;stroke-width:.31879;stroke-linecap:round;stroke-linejoin:round;stroke:#4c4c4c;stroke-opacity:1;stroke-miterlimit:10" d="M-1.195 1.594C-1.095.996-.001.1.299 0 0-.097-1.095-.997-1.195-1.593" transform="scale(.99995 -.99995) rotate(18.435 333.34 1125.94)"/><path style="fill:none;stroke-width:.3985;stroke-linecap:butt;stroke-linejoin:miter;stroke:#4c4c4c;stroke-opacity:1;stroke-miterlimit:10" d="m280.584 73.685 83.945 55.961" transform="matrix(1 0 0 -1 9.963 146.025)"/><path style="fill:none;stroke-width:.31879;stroke-linecap:round;stroke-linejoin:round;stroke:#4c4c4c;stroke-opacity:1;stroke-miterlimit:10" d="M-1.195 1.594C-1.095.997 0 .098.3 0 0-.1-1.097-.998-1.194-1.595" transform="scale(.99995 -.99995) rotate(33.689 214.303 610.29)"/><path style="fill:none;stroke-width:.3985;stroke-linecap:butt;stroke-linejoin:miter;stroke:#4c4c4c;stroke-opacity:1;stroke-miterlimit:10" d="m280.588 96.431 83.941-55.965" transform="matrix(1 0 0 -1 9.963 146.025)"/><path style="fill:none;stroke-width:.31879;stroke-linecap:round;stroke-linejoin:round;stroke:#4c4c4c;stroke-opacity:1;stroke-miterlimit:10" d="M-1.197 1.595C-1.094.997 0 .102.298 0 0-.1-1.095-.995-1.198-1.594" transform="scale(.99996 -.99996) rotate(-33.69 12.93 -671.25)"/><path style="fill:none;stroke-width:.3985;stroke-linecap:butt;stroke-linejoin:miter;stroke:#4c4c4c;stroke-opacity:1;stroke-miterlimit:10" d="m281.771 98.857 81.403-27.137" transform="matrix(1 0 0 -1 9.963 146.025)"/><path style="fill:none;stroke-width:.31879;stroke-linecap:round;stroke-linejoin:round;stroke:#4c4c4c;stroke-opacity:1;stroke-miterlimit:10" d="M-1.196 1.594C-1.096.997 0 .098.3 0 0-.1-1.094-.995-1.196-1.593" transform="matrix(.94864 .31621 .31621 -.94864 373.138 74.304)"/><path style="fill:none;stroke-width:.3985;stroke-linecap:butt;stroke-linejoin:miter;stroke:#4c4c4c;stroke-opacity:1;stroke-miterlimit:10" d="M282.295 102.072h80.281" transform="matrix(1 0 0 -1 9.963 146.025)"/><path style="fill:none;stroke-width:.31879;stroke-linecap:round;stroke-linejoin:round;stroke:#4c4c4c;stroke-opacity:1;stroke-miterlimit:10" d="M-1.197 1.596C-1.096.998-.002.1.299.002c-.3-.102-1.395-1-1.496-1.598" transform="matrix(1 0 0 -1 372.541 43.955)"/><path style="fill:none;stroke-width:.3985;stroke-linecap:butt;stroke-linejoin:miter;stroke:#4c4c4c;stroke-opacity:1;stroke-miterlimit:10" d="m281.771 105.283 81.403 27.137" transform="matrix(1 0 0 -1 9.963 146.025)"/><path style="fill:none;stroke-width:.31879;stroke-linecap:round;stroke-linejoin:round;stroke:#4c4c4c;stroke-opacity:1;stroke-miterlimit:10" d="M-1.194 1.594C-1.097.997 0 .1.3 0 0-.1-1.094-.997-1.194-1.593" transform="matrix(.94864 -.31621 -.31621 -.94864 373.14 13.606)"/><path style="fill:none;stroke-width:.3985;stroke-linecap:butt;stroke-linejoin:miter;stroke:#4c4c4c;stroke-opacity:1;stroke-miterlimit:10" d="m383.287 38.568 82.586 41.293" transform="matrix(1 0 0 -1 9.963 146.025)"/><path style="fill:none;stroke-width:.31879;stroke-linecap:round;stroke-linejoin:round;stroke:#4c4c4c;stroke-opacity:1;stroke-miterlimit:10" d="M-1.195 1.593C-1.095.998.002.1.297 0c-.299-.1-1.394-.997-1.492-1.595" transform="scale(.99992 -.99992) rotate(26.565 378.089 974.852)"/><path style="fill:none;stroke-width:.3985;stroke-linecap:butt;stroke-linejoin:miter;stroke:#4c4c4c;stroke-opacity:1;stroke-miterlimit:10" d="m384.22 69.716 80.587 13.43" transform="matrix(1 0 0 -1 9.963 146.025)"/><path style="fill:none;stroke-width:.31879;stroke-linecap:round;stroke-linejoin:round;stroke:#4c4c4c;stroke-opacity:1;stroke-miterlimit:10" d="M-1.194 1.595C-1.096.997-.001.101.299 0 0-.1-1.095-.995-1.195-1.593" transform="scale(.99994 -.99994) rotate(9.462 617.307 2837.148)"/><path style="fill:none;stroke-width:.3985;stroke-linecap:butt;stroke-linejoin:miter;stroke:#4c4c4c;stroke-opacity:1;stroke-miterlimit:10" d="m384.22 100.4 80.587-13.43" transform="matrix(1 0 0 -1 9.963 146.025)"/><path style="fill:none;stroke-width:.31879;stroke-linecap:round;stroke-linejoin:round;stroke:#4c4c4c;stroke-opacity:1;stroke-miterlimit:10" d="M-1.195 1.593C-1.095.996.001.1.3 0 0-.101-1.095-.997-1.193-1.595" transform="matrix(.98634 .16438 .16438 -.98634 474.768 59.056)"/><path style="fill:none;stroke-width:.3985;stroke-linecap:butt;stroke-linejoin:miter;stroke:#4c4c4c;stroke-opacity:1;stroke-miterlimit:10" d="m383.29 131.548 82.587-41.293" transform="matrix(1 0 0 -1 9.963 146.025)"/><path style="fill:none;stroke-width:.31879;stroke-linecap:round;stroke-linejoin:round;stroke:#4c4c4c;stroke-opacity:1;stroke-miterlimit:10" d="M-1.197 1.595C-1.094.995 0 .1.298.002 0-.1-1.094-.996-1.197-1.594" transform="matrix(.89438 .4472 .4472 -.89438 475.838 55.77)"/><path style="stroke:none;fill-rule:nonzero;fill:#fff;fill-opacity:1" d="M40.398 93.895H53.45v-7.196H40.4Zm0 0"/><use xlink:href="#k" x="42.392" y="91.904" style="fill:#000;fill-opacity:1"/><use xlink:href="#l" x="45.782" y="91.904" style="fill:#000;fill-opacity:1"/><use xlink:href="#m" x="48.065" y="91.904" style="fill:#000;fill-opacity:1"/><path style="stroke:none;fill-rule:nonzero;fill:#fff;fill-opacity:1" d="M65.855 81.578h16.442v-7.195H65.855Zm0 0"/><use xlink:href="#k" x="67.848" y="79.585" style="fill:#000;fill-opacity:1"/><use xlink:href="#l" x="71.238" y="79.585" style="fill:#000;fill-opacity:1"/><g style="fill:#000;fill-opacity:1"><use xlink:href="#k" x="73.521" y="79.585"/><use xlink:href="#n" x="76.911" y="79.585"/></g><path style="stroke:none;fill-rule:nonzero;fill:#fff;fill-opacity:1" d="M37.7 69.727h18.445V61.59H37.699Zm0 0"/><use xlink:href="#o" x="39.693" y="66.905" style="fill:#000;fill-opacity:1"/><use xlink:href="#k" x="45.089" y="66.905" style="fill:#000;fill-opacity:1"/><use xlink:href="#l" x="48.479" y="66.905" style="fill:#000;fill-opacity:1"/><use xlink:href="#p" x="50.762" y="66.905" style="fill:#000;fill-opacity:1"/><path style="stroke:none;fill-rule:nonzero;fill:#fff;fill-opacity:1" d="M63.703 38.941H85.54v-8.136H63.703Zm0 0"/><use xlink:href="#o" x="65.695" y="36.12" style="fill:#000;fill-opacity:1"/><use xlink:href="#k" x="71.092" y="36.12" style="fill:#000;fill-opacity:1"/><use xlink:href="#l" x="74.482" y="36.12" style="fill:#000;fill-opacity:1"/><g style="fill:#000;fill-opacity:1"><use xlink:href="#m" x="76.765" y="36.12"/><use xlink:href="#n" x="80.155" y="36.12"/></g><path style="stroke:none;fill-rule:nonzero;fill:#fff;fill-opacity:1" d="M66.402 90.66h16.442v-7.195H66.402Zm0 0"/><use xlink:href="#k" x="68.395" y="88.668" style="fill:#000;fill-opacity:1"/><use xlink:href="#l" x="71.785" y="88.668" style="fill:#000;fill-opacity:1"/><g style="fill:#000;fill-opacity:1"><use xlink:href="#n" x="74.068" y="88.668"/><use xlink:href="#n" x="77.458" y="88.668"/></g><path style="stroke:none;fill-rule:nonzero;fill:#fff;fill-opacity:1" d="M40.398 59.875H53.45V52.68H40.4Zm0 0"/><use xlink:href="#k" x="42.392" y="57.882" style="fill:#000;fill-opacity:1"/><use xlink:href="#l" x="45.782" y="57.882" style="fill:#000;fill-opacity:1"/><use xlink:href="#q" x="48.065" y="57.882" style="fill:#000;fill-opacity:1"/><path style="stroke:none;fill-rule:nonzero;fill:#fff;fill-opacity:1" d="M65.855 47.55h16.442v-7.195H65.855Zm0 0"/><use xlink:href="#k" x="67.848" y="45.561" style="fill:#000;fill-opacity:1"/><use xlink:href="#l" x="71.238" y="45.561" style="fill:#000;fill-opacity:1"/><g style="fill:#000;fill-opacity:1"><use xlink:href="#m" x="73.521" y="45.561"/><use xlink:href="#n" x="76.911" y="45.561"/></g><path style="stroke:none;fill-rule:nonzero;fill:#fff;fill-opacity:1" d="M40.398 35.234H53.45V28.04H40.4Zm0 0"/><use xlink:href="#k" x="42.391" y="33.242" style="fill:#000;fill-opacity:1"/><use xlink:href="#l" x="45.781" y="33.242" style="fill:#000;fill-opacity:1"/><use xlink:href="#p" x="48.064" y="33.242" style="fill:#000;fill-opacity:1"/><path style="stroke:none;fill-rule:nonzero;fill:#fff;fill-opacity:1" d="M142.281 97.215h13.047V90.02h-13.047Zm0 0"/><use xlink:href="#k" x="144.27" y="95.222" style="fill:#000;fill-opacity:1"/><use xlink:href="#l" x="147.661" y="95.222" style="fill:#000;fill-opacity:1"/><use xlink:href="#m" x="149.944" y="95.222" style="fill:#000;fill-opacity:1"/><path style="stroke:none;fill-rule:nonzero;fill:#fff;fill-opacity:1" d="M167.969 70.883h16.437v-7.195H167.97Zm0 0"/><use xlink:href="#k" x="169.959" y="68.892" style="fill:#000;fill-opacity:1"/><use xlink:href="#l" x="173.349" y="68.892" style="fill:#000;fill-opacity:1"/><g style="fill:#000;fill-opacity:1"><use xlink:href="#n" x="175.632" y="68.892"/><use xlink:href="#n" x="179.022" y="68.892"/></g><path style="stroke:none;fill-rule:nonzero;fill:#fff;fill-opacity:1" d="M142.598 53.734h13.05V46.54h-13.05Zm0 0"/><use xlink:href="#k" x="144.589" y="51.743" style="fill:#000;fill-opacity:1"/><use xlink:href="#l" x="147.979" y="51.743" style="fill:#000;fill-opacity:1"/><use xlink:href="#r" x="150.262" y="51.743" style="fill:#000;fill-opacity:1"/><path style="stroke:none;fill-rule:nonzero;fill:#fff;fill-opacity:1" d="M168.27 45.758h16.437v-7.196H168.27Zm0 0"/><use xlink:href="#p" x="170.259" y="43.766" style="fill:#000;fill-opacity:1"/><use xlink:href="#l" x="173.649" y="43.766" style="fill:#000;fill-opacity:1"/><g style="fill:#000;fill-opacity:1"><use xlink:href="#m" x="175.933" y="43.766"/><use xlink:href="#n" x="179.323" y="43.766"/></g><g clip-path="url(#s)"><path style="fill:none;stroke-width:2.59032;stroke-linecap:butt;stroke-linejoin:miter;stroke:#fff;stroke-opacity:1;stroke-miterlimit:10" d="M280.795 55.728h19.273l1.133.004 1.137.031 1.133.153 1.132.52 1.133 1.21 1.137 1.875 1.133 1.656 1.133.223 1.132-1.371 1.133-1.938 1.137-1.421 1.133-.668 1.133-.215 1.132-.051 1.133-.008h19.274-.696" transform="matrix(1 0 0 -1 9.963 146.025)"/><path style="fill:none;stroke-width:.99628;stroke-linecap:butt;stroke-linejoin:miter;stroke:#ff8000;stroke-opacity:1;stroke-miterlimit:10" d="M280.795 55.728h19.273l1.133.004 1.137.031 1.133.153 1.132.52 1.133 1.21 1.137 1.875 1.133 1.656 1.133.223 1.132-1.371 1.133-1.938 1.137-1.421 1.133-.668 1.133-.215 1.132-.051 1.133-.008h19.274-.696" transform="matrix(1 0 0 -1 9.963 146.025)"/></g><g clip-path="url(#t)"><path style="fill:none;stroke-width:2.59032;stroke-linecap:butt;stroke-linejoin:miter;stroke:#fff;stroke-opacity:1;stroke-miterlimit:10" d="M307.947 68.045h18.14l1.134.003 1.132.008 1.133.067 1.137.265 1.133.801 1.133 1.61 1.132 2.074 1.133 1.32 1.137-.473 1.133-1.86 1.133-1.956 1.132-1.2 1.133-.488 1.137-.14 1.133-.028 1.132-.003h19.274-.695" transform="matrix(1 0 0 -1 9.963 146.025)"/><path style="fill:none;stroke-width:.99628;stroke-linecap:butt;stroke-linejoin:miter;stroke:#ff8000;stroke-opacity:1;stroke-miterlimit:10" d="M307.947 68.045h18.14l1.134.003 1.132.008 1.133.067 1.137.265 1.133.801 1.133 1.61 1.132 2.074 1.133 1.32 1.137-.473 1.133-1.86 1.133-1.956 1.132-1.2 1.133-.488 1.137-.14 1.133-.028 1.132-.003h19.274-.695" transform="matrix(1 0 0 -1 9.963 146.025)"/></g><g clip-path="url(#u)"><path style="fill:none;stroke-width:2.59032;stroke-linecap:butt;stroke-linejoin:miter;stroke:#fff;stroke-opacity:1;stroke-miterlimit:10" d="M280.795 80.365h18.14l1.133.004 1.133.023 1.133.125 1.137.473 1.132 1.223 1.133 2.097 1.133 2.192 1.137.796 1.133-1.253 1.132-2.293 1.133-1.922 1.137-1.004 1.133-.356 1.133-.09 1.132-.011 1.133-.004h19.274-.696" transform="matrix(1 0 0 -1 9.963 146.025)"/><path style="fill:none;stroke-width:.99628;stroke-linecap:butt;stroke-linejoin:miter;stroke:#ff8000;stroke-opacity:1;stroke-miterlimit:10" d="M280.795 80.365h18.14l1.133.004 1.133.023 1.133.125 1.137.473 1.132 1.223 1.133 2.097 1.133 2.192 1.137.796 1.133-1.253 1.132-2.293 1.133-1.922 1.137-1.004 1.133-.356 1.133-.09 1.132-.011 1.133-.004h19.274-.696" transform="matrix(1 0 0 -1 9.963 146.025)"/></g><g clip-path="url(#v)"><path style="fill:none;stroke-width:2.59032;stroke-linecap:butt;stroke-linejoin:miter;stroke:#fff;stroke-opacity:1;stroke-miterlimit:10" d="M308.494 111.15h18.14l1.133.008 1.133.055 1.133.253 1.137.825 1.133 1.843 1.132 2.676 1.133 2.145 1.133.015 1.137-2.14 1.133-2.676 1.132-1.852 1.133-.832 1.137-.257 1.133-.055 1.133-.008h20.406-.696" transform="matrix(1 0 0 -1 9.963 146.025)"/><path style="fill:none;stroke-width:.99628;stroke-linecap:butt;stroke-linejoin:miter;stroke:#ff8000;stroke-opacity:1;stroke-miterlimit:10" d="M308.494 111.15h18.14l1.133.008 1.133.055 1.133.253 1.137.825 1.133 1.843 1.132 2.676 1.133 2.145 1.133.015 1.137-2.14 1.133-2.676 1.132-1.852 1.133-.832 1.137-.257 1.133-.055 1.133-.008h20.406-.696" transform="matrix(1 0 0 -1 9.963 146.025)"/></g><g clip-path="url(#w)"><path style="fill:none;stroke-width:2.59032;stroke-linecap:butt;stroke-linejoin:miter;stroke:#fff;stroke-opacity:1;stroke-miterlimit:10" d="M308.498 58.966h21.539l1.133.02 1.133.09 1.132.34 1.133.875 1.137 1.515 1.133 1.574 1.133.57 1.132-.902 1.137-1.652 1.133-1.379 1.133-.722 1.133-.254 1.132-.063 1.137-.012h18.137-.692" transform="matrix(1 0 0 -1 9.963 146.025)"/><path style="fill:none;stroke-width:.99628;stroke-linecap:butt;stroke-linejoin:miter;stroke:#ff8000;stroke-opacity:1;stroke-miterlimit:10" d="M308.498 58.966h21.539l1.133.02 1.133.09 1.132.34 1.133.875 1.137 1.515 1.133 1.574 1.133.57 1.132-.902 1.137-1.652 1.133-1.379 1.133-.722 1.133-.254 1.132-.063 1.137-.012h18.137-.692" transform="matrix(1 0 0 -1 9.963 146.025)"/></g><g clip-path="url(#x)"><path style="fill:none;stroke-width:2.59032;stroke-linecap:butt;stroke-linejoin:miter;stroke:#fff;stroke-opacity:1;stroke-miterlimit:10" d="M280.799 89.752H301.2l1.137.003 1.133.032 1.132.144 1.133.465 1.137 1.04 1.133 1.519 1.133 1.215 1.132.003 1.133-1.207 1.137-1.515 1.133-1.051 1.133-.469 1.132-.144 1.133-.032 1.137-.003h18.137-.696" transform="matrix(1 0 0 -1 9.963 146.025)"/><path style="fill:none;stroke-width:.99628;stroke-linecap:butt;stroke-linejoin:miter;stroke:#ff8000;stroke-opacity:1;stroke-miterlimit:10" d="M280.799 89.752H301.2l1.137.003 1.133.032 1.132.144 1.133.465 1.137 1.04 1.133 1.519 1.133 1.215 1.132.003 1.133-1.207 1.137-1.515 1.133-1.051 1.133-.469 1.132-.144 1.133-.032 1.137-.003h18.137-.696" transform="matrix(1 0 0 -1 9.963 146.025)"/></g><g clip-path="url(#y)"><path style="fill:none;stroke-width:2.59032;stroke-linecap:butt;stroke-linejoin:miter;stroke:#fff;stroke-opacity:1;stroke-miterlimit:10" d="M307.947 102.072h20.406l1.133.008 1.137.054 1.133.227 1.133.633 1.132 1.222 1.133 1.47 1.137.808 1.133-.496 1.133-1.399 1.132-1.344 1.133-.78 1.137-.305 1.133-.082 1.132-.016h19.274-.695" transform="matrix(1 0 0 -1 9.963 146.025)"/><path style="fill:none;stroke-width:.99628;stroke-linecap:butt;stroke-linejoin:miter;stroke:#ff8000;stroke-opacity:1;stroke-miterlimit:10" d="M307.947 102.072h20.406l1.133.008 1.137.054 1.133.227 1.133.633 1.132 1.222 1.133 1.47 1.137.808 1.133-.496 1.133-1.399 1.132-1.344 1.133-.78 1.137-.305 1.133-.082 1.132-.016h19.274-.695" transform="matrix(1 0 0 -1 9.963 146.025)"/></g><g clip-path="url(#z)"><path style="fill:none;stroke-width:2.59032;stroke-linecap:butt;stroke-linejoin:miter;stroke:#fff;stroke-opacity:1;stroke-miterlimit:10" d="M280.795 114.388h19.273l1.133.004 1.133.02 1.137.097 1.132.348 1.133.856 1.133 1.402 1.137 1.351 1.133.344 1.132-.937 1.133-1.493 1.133-1.164 1.137-.578 1.133-.195 1.132-.047 1.133-.008h19.274-.696" transform="matrix(1 0 0 -1 9.963 146.025)"/><path style="fill:none;stroke-width:.99628;stroke-linecap:butt;stroke-linejoin:miter;stroke:#ff8000;stroke-opacity:1;stroke-miterlimit:10" d="M280.795 114.388h19.273l1.133.004 1.133.02 1.137.097 1.132.348 1.133.856 1.133 1.402 1.137 1.351 1.133.344 1.132-.937 1.133-1.493 1.133-1.164 1.137-.578 1.133-.195 1.132-.047 1.133-.008h19.274-.696" transform="matrix(1 0 0 -1 9.963 146.025)"/></g><g clip-path="url(#A)"><path style="fill:none;stroke-width:2.59032;stroke-linecap:butt;stroke-linejoin:miter;stroke:#fff;stroke-opacity:1;stroke-miterlimit:10" d="M382.678 52.408h19.27l1.136.004 1.133.031 1.132.152 1.133.516 1.137 1.215 1.133 1.875 1.133 1.656 1.132.223 1.137-1.371 1.133-1.942 1.133-1.418 1.133-.668 1.132-.218 1.137-.047 1.133-.008h19.273-.695" transform="matrix(1 0 0 -1 9.963 146.025)"/><path style="fill:none;stroke-width:.99628;stroke-linecap:butt;stroke-linejoin:miter;stroke:#ff8000;stroke-opacity:1;stroke-miterlimit:10" d="M382.678 52.408h19.27l1.136.004 1.133.031 1.132.152 1.133.516 1.137 1.215 1.133 1.875 1.133 1.656 1.132.223 1.137-1.371 1.133-1.942 1.133-1.418 1.133-.668 1.132-.218 1.137-.047 1.133-.008h19.273-.695" transform="matrix(1 0 0 -1 9.963 146.025)"/></g><g clip-path="url(#B)"><path style="fill:none;stroke-width:2.59032;stroke-linecap:butt;stroke-linejoin:miter;stroke:#fff;stroke-opacity:1;stroke-miterlimit:10" d="M410.06 78.74h21.54l1.132.02 1.133.09 1.137.34 1.133.874 1.132 1.516 1.133 1.574 1.133.57 1.137-.902 1.133-1.652 1.132-1.38 1.133-.722 1.137-.254 1.133-.062 1.133-.012h18.14-.695" transform="matrix(1 0 0 -1 9.963 146.025)"/><path style="fill:none;stroke-width:.99628;stroke-linecap:butt;stroke-linejoin:miter;stroke:#ff8000;stroke-opacity:1;stroke-miterlimit:10" d="M410.06 78.74h21.54l1.132.02 1.133.09 1.137.34 1.133.874 1.132 1.516 1.133 1.574 1.133.57 1.137-.902 1.133-1.652 1.132-1.38 1.133-.722 1.137-.254 1.133-.062 1.133-.012h18.14-.695" transform="matrix(1 0 0 -1 9.963 146.025)"/></g><g clip-path="url(#C)"><path style="fill:none;stroke-width:2.59032;stroke-linecap:butt;stroke-linejoin:miter;stroke:#fff;stroke-opacity:1;stroke-miterlimit:10" d="M382.994 95.888h21.54l1.136.004 1.133.008 1.132.05 1.133.22 1.133.617 1.137 1.183 1.133 1.426 1.132.781 1.133-.476 1.137-1.356 1.133-1.304 1.133-.762 1.132-.293 1.133-.078 1.137-.016 1.133-.004h15.87-.695" transform="matrix(1 0 0 -1 9.963 146.025)"/><path style="fill:none;stroke-width:.99628;stroke-linecap:butt;stroke-linejoin:miter;stroke:#ff8000;stroke-opacity:1;stroke-miterlimit:10" d="M382.994 95.888h21.54l1.136.004 1.133.008 1.132.05 1.133.22 1.133.617 1.137 1.183 1.133 1.426 1.132.781 1.133-.476 1.137-1.356 1.133-1.304 1.133-.762 1.132-.293 1.133-.078 1.137-.016 1.133-.004h15.87-.695" transform="matrix(1 0 0 -1 9.963 146.025)"/></g><g clip-path="url(#D)"><path style="fill:none;stroke-width:2.59032;stroke-linecap:butt;stroke-linejoin:miter;stroke:#fff;stroke-opacity:1;stroke-miterlimit:10" d="M410.361 103.869h23.809l1.133.004 1.132.03 1.133.138 1.133.422 1.137.902 1.133 1.23 1.132.89 1.133-.14 1.137-1.047 1.133-1.199 1.133-.777 1.132-.332 1.133-.098 1.137-.023h15.871-.695" transform="matrix(1 0 0 -1 9.963 146.025)"/><path style="fill:none;stroke-width:.99628;stroke-linecap:butt;stroke-linejoin:miter;stroke:#ff8000;stroke-opacity:1;stroke-miterlimit:10" d="M410.361 103.869h23.809l1.133.004 1.132.03 1.133.138 1.133.422 1.137.902 1.133 1.23 1.132.89 1.133-.14 1.137-1.047 1.133-1.199 1.133-.777 1.132-.332 1.133-.098 1.137-.023h15.871-.695" transform="matrix(1 0 0 -1 9.963 146.025)"/></g></svg>