<svg height="162.629" viewBox="0 0 496.145 121.972" width="661.527" xmlns="http://www.w3.org/2000/svg" xmlns:xlink="http://www.w3.org/1999/xlink"><clipPath id="a"><path d="m102 102h20v19.973h-20zm0 0"/></clipPath><clipPath id="b"><path d="m374 102h21v19.973h-21zm0 0"/></clipPath><clipPath id="c"><path d="m476 51h20.145v20h-20.145zm0 0"/></clipPath><clipPath id="d"><path d="m310.602 81.793h17.007v17.008h-17.007zm0 0"/></clipPath><clipPath id="e"><path d="m337.754 69.473h17.008v17.011h-17.008zm0 0"/></clipPath><clipPath id="f"><path d="m310.602 57.156h17.007v17.008h-17.007zm0 0"/></clipPath><clipPath id="g"><path d="m338.3 26.371h17.009v17.009h-17.009zm0 0"/></clipPath><clipPath id="h"><path d="m338.3 78.555h17.009v17.007h-17.009zm0 0"/></clipPath><clipPath id="i"><path d="m310.602 47.77h17.007v17.007h-17.007zm0 0"/></clipPath><clipPath id="j"><path d="m337.754 35.45h17.008v17.01h-17.008zm0 0"/></clipPath><clipPath id="k"><path d="m310.602 23.133h17.007v17.007h-17.007zm0 0"/></clipPath><clipPath id="l"><path d="m412.484 85.113h17.008v17.008h-17.008zm0 0"/></clipPath><clipPath id="m"><path d="m439.863 58.781h17.012v17.009h-17.012zm0 0"/></clipPath><clipPath id="n"><path d="m412.8 41.633h17.009v17.007h-17.009zm0 0"/></clipPath><clipPath id="o"><path d="m440.168 33.652h17.008v17.008h-17.008zm0 0"/></clipPath><symbol id="p" overflow="visible"><path d="m2.828-6.234c0-.204-.14-.36-.36-.36-.28 0-.546.266-.546.532 0 .187.14.359.375.359.234 0 .531-.234.531-.531zm-.75 3.75c.11-.282.11-.313.219-.579.078-.203.125-.343.125-.53 0-.438-.313-.813-.813-.813-.937 0-1.312 1.453-1.312 1.531 0 .11.094.11.11.11.109 0 .109-.032.156-.188.28-.938.671-1.235 1.015-1.235.078 0 .25 0 .25.313 0 .219-.078.422-.11.531-.077.25-.53 1.406-.687 1.844-.11.25-.234.578-.234.797 0 .469.344.812.812.812.938 0 1.313-1.437 1.313-1.53 0-.11-.094-.11-.125-.11-.094 0-.094.031-.14.187-.189.625-.517 1.235-1.017 1.235-.172 0-.25-.094-.25-.329 0-.25.062-.39.296-1zm0 0"/></symbol><symbol id="q" overflow="visible"><path d="m2.86-6.813s0-.109-.126-.109c-.234 0-.953.078-1.218.11-.079 0-.188.015-.188.187 0 .125.094.125.234.125.485 0 .5.063.5.172l-.03.203-1.439 5.734c-.046.141-.046.157-.046.221 0 .234.203.28.297.28a.407.407 0 0 0 .36-.265l.187-.75.218-.89c.063-.235.125-.454.172-.673.016-.062.11-.39.11-.453.03-.094.343-.64.687-.922.219-.156.516-.344.953-.344.422 0 .531.344.531.704 0 .53-.375 1.625-.609 2.234-.078.219-.14.344-.14.547 0 .469.359.812.828.812.937 0 1.296-1.453 1.296-1.53 0-.11-.078-.11-.109-.11-.11 0-.11.031-.156.187-.14.532-.469 1.235-1.016 1.235-.172 0-.234-.094-.234-.329 0-.25.078-.484.172-.703.156-.437.61-1.625.61-2.203 0-.64-.391-1.062-1.141-1.062-.626 0-1.11.312-1.485.765zm0 0"/></symbol><symbol id="r" overflow="visible"><path d="m4.672-2.719c0-1.047-.688-1.687-1.594-1.687-1.328 0-2.672 1.422-2.672 2.828 0 .984.672 1.687 1.594 1.687 1.328 0 2.672-1.375 2.672-2.828zm-2.656 2.61c-.438 0-.875-.313-.875-1.094 0-.484.265-1.563.578-2.063.5-.765 1.078-.921 1.36-.921.577 0 .874.484.874 1.078 0 .39-.203 1.437-.578 2.078-.36.578-.906.922-1.36.922zm0 0"/></symbol><symbol id="s" overflow="visible"><path d="m2.938-6.375c0-.25 0-.266-.235-.266-.625.641-1.5.641-1.812.641v.313c.203 0 .78 0 1.296-.266v5.172c0 .36-.03.469-.921.469h-.313v.312c.344-.031 1.203-.031 1.61-.031.39 0 1.265 0 1.609.031v-.313h-.313c-.906 0-.921-.109-.921-.468zm0 0"/></symbol><symbol id="t" overflow="visible"><path d="m1.266-.766 1.062-1.03c1.547-1.376 2.14-1.907 2.14-2.907 0-1.14-.89-1.938-2.109-1.938a1.843 1.843 0 0 0 -1.859 1.813c0 .547.5.547.531.547.172 0 .516-.11.516-.532a.513.513 0 0 0 -.531-.515c-.079 0-.094 0-.125.016.218-.657.765-1.016 1.343-1.016.907 0 1.329.812 1.329 1.625 0 .797-.485 1.578-1.047 2.203l-1.907 2.125c-.109.11-.109.14-.109.375h3.703l.266-1.734h-.235c-.062.296-.124.734-.234.89-.063.078-.719.078-.938.078zm0 0"/></symbol><symbol id="u" overflow="visible"><path d="m2.89-3.516c.813-.265 1.391-.953 1.391-1.75 0-.812-.875-1.375-1.828-1.375-1 0-1.765.594-1.765 1.36 0 .328.218.515.515.515s.5-.218.5-.515c0-.485-.469-.485-.61-.485.298-.5.954-.625 1.313-.625.422 0 .969.22.969 1.11 0 .125-.031.703-.281 1.14-.297.485-.64.516-.89.516a3.29 3.29 0 0 1 -.392.031c-.078.016-.14.031-.14.125 0 .11.062.11.234.11h.438c.812 0 1.187.671 1.187 1.656 0 1.36-.687 1.64-1.125 1.64-.437 0-1.187-.171-1.531-.75.344.047.656-.171.656-.546a.537.537 0 0 0 -.547-.563c-.25 0-.562.14-.562.578 0 .907.922 1.564 2.015 1.564 1.22 0 2.126-.906 2.126-1.922 0-.813-.641-1.594-1.672-1.813zm0 0"/></symbol><symbol id="v" overflow="visible"><path d="m2.938-1.64v.859c0 .36-.032.469-.766.469h-.203v.312c.406-.031.922-.031 1.343-.031.422 0 .938 0 1.36.031v-.313h-.219c-.734 0-.75-.109-.75-.468v-.86h.985v-.312h-.985v-4.531c0-.204 0-.266-.172-.266-.078 0-.11 0-.187.125l-3.064 4.672v.312zm.046-.313h-2.421l2.421-3.719zm0 0"/></symbol><symbol id="w" overflow="visible"><path d="m3-1.594c0-.36 0-1.718-1.313-1.718-1.296-.001-1.296 1.358-1.296 1.717-.001.361-.001 1.705 1.296 1.705 1.313 0 1.313-1.344 1.313-1.704zm-1.313 1.532c-.171 0-.593-.063-.718-.563-.079-.266-.079-.625-.079-1.031 0-.375 0-.719.078-1 .125-.422.515-.5.719-.5.375 0 .64.187.734.547.078.25.078.656.078.953 0 .343 0 .75-.078 1.047-.125.484-.531.546-.735.546zm0 0"/></symbol><symbol id="x" overflow="visible"><path d="m2.938-.969h-.22c0 .094-.062.406-.14.453-.031.032-.453.032-.531.032h-.969c.328-.235.688-.516.984-.72.454-.312.876-.593.876-1.124 0-.64-.61-.985-1.313-.985-.672 0-1.172.376-1.172.876 0 .25.219.296.297.296a.283.283 0 0 0 .281-.296.27.27 0 0 0 -.281-.282c.14-.234.438-.375.766-.375.484 0 .89.281.89.766 0 .422-.297.75-.672 1.062l-1.218 1.032c-.047.047-.063.047-.063.078v.156h2.313zm0 0"/></symbol><symbol id="y" overflow="visible"><path d="m.984-2.75c.25.063.485.063.532.063.343 0 .593-.094.718-.157.125-.062.47-.281.47-.39 0-.079-.063-.079-.079-.079s-.016 0-.078.016c-.188.063-.5.14-.828.14-.282 0-.547-.046-.813-.14-.062-.015-.062-.015-.078-.015-.078 0-.078.046-.078.124v1.5c0 .094 0 .157.11.157.046 0 .046-.016.093-.063.188-.218.453-.328.797-.328.281 0 .453.156.516.266.109.172.14.39.14.64 0 .204-.015.485-.219.672a.822.822 0 0 1 -.609.25c-.328 0-.687-.14-.844-.437.204-.016.282-.156.282-.281a.282.282 0 1 0 -.563.016c0 .5.484.905 1.125.905.75 0 1.36-.5 1.36-1.109 0-.563-.485-1.094-1.172-1.094-.313 0-.579.078-.782.25zm0 0"/></symbol><symbol id="z" overflow="visible"><path d="m1.984-3.172c0-.14-.015-.14-.187-.14-.344.312-.907.312-1 .312h-.078v.219h.078c.11 0 .437-.016.734-.14v2.5c0 .14 0 .202-.531.202h-.25v.219c.266-.016.719-.016 1-.016.297 0 .734 0 1.016.016v-.219h-.25c-.532 0-.532-.062-.532-.203zm0 0"/></symbol><symbol id="A" overflow="visible"><path d="m3.078-.813v-.218h-.625v-2.189c0-.125 0-.156-.14-.156-.094 0-.094 0-.157.078l-1.844 2.268v.218h1.658v.391c0 .156 0 .203-.422.203h-.188v.218c.235-.016.563-.016.86-.016.281 0 .61 0 .844.016v-.219h-.174c-.438 0-.438-.047-.438-.203v-.39zm-1.062-2.03v1.812h-1.47zm0 0"/></symbol><symbol id="B" overflow="visible"><path d="m2.469-1.578c0 .312-.031.687-.203.984a.96.96 0 0 1 -.86.5c-.047 0-.36 0-.531-.125.125-.031.203-.125.203-.25 0-.172-.11-.265-.266-.265-.078 0-.265.046-.265.28 0 .563.734.563.875.563.844 0 1.562-.718 1.562-1.75 0-1.203-.578-1.671-1.265-1.671-.5 0-.75.171-.953.343a.937.937 0 0 0 -.36.781c0 .282.078.532.344.766.234.203.469.344.89.344.204 0 .563-.078.829-.5zm-.813.328c-.203 0-.39-.031-.578-.266-.14-.171-.156-.39-.156-.671 0-.36.015-.516.203-.72.078-.077.234-.218.594-.218.734 0 .734.813.734 1.031 0 .406-.297.844-.797.844zm0 0"/></symbol><symbol id="C" overflow="visible"><path d="m1.453-.297a.313.313 0 0 0 -.312-.312.31.31 0 0 0 -.297.312c0 .156.14.297.297.297.171 0 .312-.14.312-.297zm0 0"/></symbol><symbol id="D" overflow="visible"><path d="m4.39-1.11c.079 0 .204 0 .204-.14s-.125-.14-.203-.14h-3.375c-.079 0-.22 0-.22.14s.141.14.22.14zm0 0"/></symbol><path d="m19.926 77.992c0-5.5-4.461-9.96-9.961-9.96a9.964 9.964 0 1 0 9.96 9.96zm0 0" fill="#9f9"/><use x="5.756" xlink:href="#p" y="81.279"/><use x="9.188" xlink:href="#s" y="81.279"/><path d="m19.926 43.977c0-5.504-4.461-9.961-9.961-9.961-5.505 0-9.965 4.457-9.965 9.96a9.964 9.964 0 1 0 19.925.001zm0 0" fill="#9f9"/><use x="5.756" xlink:href="#p" y="47.263"/><use x="9.188" xlink:href="#t" y="47.263"/><g clip-path="url(#a)"><path d="m121.973 112.008c0-5.5-4.457-9.961-9.961-9.961s-9.965 4.46-9.965 9.96c0 5.505 4.46 9.966 9.965 9.966 5.504 0 9.96-4.461 9.96-9.965zm0 0" fill="#99f"/></g><use x="106.649" xlink:href="#q" y="115.469"/><use x="112.389" xlink:href="#s" y="115.469"/><path d="m121.973 77.992a9.96 9.96 0 0 0 -9.961-9.96 9.964 9.964 0 1 0 0 19.925c5.504 0 9.96-4.46 9.96-9.965zm0 0" fill="#99f"/><use x="106.649" xlink:href="#q" y="81.453"/><use x="112.389" xlink:href="#t" y="81.453"/><path d="m121.973 43.977a9.958 9.958 0 0 0 -9.961-9.961c-5.504 0-9.965 4.457-9.965 9.96a9.964 9.964 0 0 0 9.965 9.965c5.504 0 9.96-4.46 9.96-9.964zm0 0" fill="#99f"/><use x="106.649" xlink:href="#q" y="47.437"/><use x="112.389" xlink:href="#u" y="47.437"/><path d="m121.973 9.96c0-5.503-4.457-9.964-9.961-9.964s-9.965 4.461-9.965 9.965 4.46 9.96 9.965 9.96a9.958 9.958 0 0 0 9.96-9.96zm0 0" fill="#99f"/><use x="106.649" xlink:href="#q" y="13.422"/><use x="112.389" xlink:href="#v" y="13.422"/><path d="m224.023 60.984c0-5.504-4.46-9.96-9.964-9.96-5.5 0-9.961 4.456-9.961 9.96s4.46 9.965 9.96 9.965a9.963 9.963 0 0 0 9.965-9.965zm0 0" fill="#f99"/><use x="211.642" xlink:href="#r" y="63.131"/><g fill="none"><path d="m9.642 64.834 81.403-27.137" stroke="#4c4c4c" stroke-miterlimit="10" stroke-width=".3985" transform="matrix(1 0 0 -1 9.963 146.025)"/><path d="m-1.196 1.594c.1-.597 1.196-1.496 1.496-1.594-.3-.1-1.394-.996-1.495-1.594" stroke="#4c4c4c" stroke-linecap="round" stroke-linejoin="round" stroke-miterlimit="10" stroke-width=".31879" transform="matrix(.94864 .31621 .31621 -.94864 101.01 108.327)"/><path d="m10.162 68.048 80.29-.003" stroke="#4c4c4c" stroke-miterlimit="10" stroke-width=".3985" transform="matrix(1 0 0 -1 9.963 146.025)"/><path d="m-1.194 1.596c.098-.602 1.195-1.496 1.492-1.598-.297-.097-1.394-.996-1.492-1.594" stroke="#4c4c4c" stroke-linecap="round" stroke-linejoin="round" stroke-miterlimit="10" stroke-width=".31879" transform="matrix(1 0 0 -1 100.413 77.979)"/><path d="m9.642 71.26 81.403 27.136" stroke="#4c4c4c" stroke-miterlimit="10" stroke-width=".3985" transform="matrix(1 0 0 -1 9.963 146.025)"/><path d="m-1.195 1.594c.097-.597 1.194-1.494 1.495-1.594-.3-.098-1.395-.997-1.495-1.594" stroke="#4c4c4c" stroke-linecap="round" stroke-linejoin="round" stroke-miterlimit="10" stroke-width=".31879" transform="matrix(.94863558 -.3162128 -.3162128 -.94863558 101.009944 47.630304)"/><path d="m8.455 73.685 83.945 55.961" stroke="#4c4c4c" stroke-miterlimit="10" stroke-width=".3985" transform="matrix(1 0 0 -1 9.963 146.025)"/><path d="m-1.196 1.594c.1-.597 1.196-1.496 1.496-1.593-.3-.101-1.397-.998-1.495-1.595" stroke="#4c4c4c" stroke-linecap="round" stroke-linejoin="round" stroke-miterlimit="10" stroke-width=".31879" transform="matrix(.83201903 -.55465696 -.55465696 -.83201903 102.36319 16.378094)"/><path d="m8.459 96.431 83.941-55.965" stroke="#4c4c4c" stroke-miterlimit="10" stroke-width=".3985" transform="matrix(1 0 0 -1 9.963 146.025)"/><path d="m-1.197 1.595c.1-.6 1.198-1.493 1.497-1.595-.3-.1-1.394-.995-1.497-1.594" stroke="#4c4c4c" stroke-linecap="round" stroke-linejoin="round" stroke-miterlimit="10" stroke-width=".31879" transform="matrix(.83202 .55467 .55467 -.83202 102.365 105.557)"/><path d="m9.642 98.857 81.403-27.137" stroke="#4c4c4c" stroke-miterlimit="10" stroke-width=".3985" transform="matrix(1 0 0 -1 9.963 146.025)"/><path d="m-1.196 1.594c.1-.597 1.198-1.495 1.495-1.594-.3-.1-1.394-.995-1.495-1.593" stroke="#4c4c4c" stroke-linecap="round" stroke-linejoin="round" stroke-miterlimit="10" stroke-width=".31879" transform="matrix(.94864 .31621 .31621 -.94864 101.01 74.304)"/><path d="m10.162 102.072h80.29" stroke="#4c4c4c" stroke-miterlimit="10" stroke-width=".3985" transform="matrix(1 0 0 -1 9.963 146.025)"/><path d="m-1.194 1.596c.098-.598 1.195-1.496 1.492-1.594-.297-.102-1.394-1-1.492-1.598" stroke="#4c4c4c" stroke-linecap="round" stroke-linejoin="round" stroke-miterlimit="10" stroke-width=".31879" transform="matrix(1 0 0 -1 100.413 43.955)"/><path d="m9.642 105.283 81.403 27.137" stroke="#4c4c4c" stroke-miterlimit="10" stroke-width=".3985" transform="matrix(1 0 0 -1 9.963 146.025)"/><path d="m-1.195 1.594c.098-.597 1.195-1.494 1.495-1.594-.301-.1-1.395-.996-1.495-1.593" stroke="#4c4c4c" stroke-linecap="round" stroke-linejoin="round" stroke-miterlimit="10" stroke-width=".31879" transform="matrix(.94863558 -.3162128 -.3162128 -.94863558 101.009441 13.606909)"/><path d="m111.158 38.568 82.586 41.293" stroke="#4c4c4c" stroke-miterlimit="10" stroke-width=".3985" transform="matrix(1 0 0 -1 9.963 146.025)"/><path d="m-1.196 1.594c.1-.596 1.197-1.494 1.496-1.595-.3-.1-1.398-.996-1.496-1.594" stroke="#4c4c4c" stroke-linecap="round" stroke-linejoin="round" stroke-miterlimit="10" stroke-width=".31879" transform="matrix(.89435604 -.44717702 -.44717702 -.89435604 203.711778 66.16441)"/><path d="m112.092 69.716 80.586 13.43" stroke="#4c4c4c" stroke-miterlimit="10" stroke-width=".3985" transform="matrix(1 0 0 -1 9.963 146.025)"/><path d="m-1.194 1.595c.098-.598 1.194-1.494 1.494-1.595-.3-.1-1.395-.995-1.494-1.593" stroke="#4c4c4c" stroke-linecap="round" stroke-linejoin="round" stroke-miterlimit="10" stroke-width=".31879" transform="matrix(.98633566 -.16438358 -.16438358 -.98633566 202.643503 62.878233)"/><path d="m112.096 100.4 80.582-13.43" stroke="#4c4c4c" stroke-miterlimit="10" stroke-width=".3985" transform="matrix(1 0 0 -1 9.963 146.025)"/><path d="m-1.194 1.593c.099-.597 1.194-1.493 1.493-1.593-.3-.101-1.395-.997-1.493-1.595" stroke="#4c4c4c" stroke-linecap="round" stroke-linejoin="round" stroke-miterlimit="10" stroke-width=".31879" transform="matrix(.98634 .16438 .16438 -.98634 202.639 59.056)"/><path d="m111.158 131.548 82.59-41.293" stroke="#4c4c4c" stroke-miterlimit="10" stroke-width=".3985" transform="matrix(1 0 0 -1 9.963 146.025)"/><path d="m-1.197 1.595c.103-.6 1.197-1.495 1.495-1.593-.298-.102-1.392-.998-1.495-1.595" stroke="#4c4c4c" stroke-linecap="round" stroke-linejoin="round" stroke-miterlimit="10" stroke-width=".31879" transform="matrix(.89438 .4472 .4472 -.89438 203.709 55.77)"/></g><path d="m292.055 77.992c0-5.5-4.461-9.96-9.961-9.96a9.964 9.964 0 1 0 9.96 9.96zm0 0" fill="#9f9"/><use x="277.881" xlink:href="#p" y="81.279"/><use x="281.313" xlink:href="#s" y="81.279"/><path d="m292.055 43.977c0-5.504-4.461-9.961-9.961-9.961-5.504 0-9.965 4.457-9.965 9.96a9.964 9.964 0 1 0 19.925.001zm0 0" fill="#9f9"/><use x="277.881" xlink:href="#p" y="47.263"/><use x="281.313" xlink:href="#t" y="47.263"/><g clip-path="url(#b)"><path d="m394.102 112.008c0-5.5-4.461-9.961-9.961-9.961-5.504 0-9.965 4.46-9.965 9.96 0 5.505 4.46 9.966 9.965 9.966 5.5 0 9.96-4.461 9.96-9.965zm0 0" fill="#99f"/></g><use x="378.774" xlink:href="#q" y="115.469"/><use x="384.514" xlink:href="#s" y="115.469"/><path d="m394.102 77.992c0-5.5-4.461-9.96-9.961-9.96a9.964 9.964 0 1 0 9.96 9.96zm0 0" fill="#99f"/><use x="378.774" xlink:href="#q" y="81.453"/><use x="384.514" xlink:href="#t" y="81.453"/><path d="m394.102 43.977c0-5.504-4.461-9.961-9.961-9.961-5.504 0-9.965 4.457-9.965 9.96a9.964 9.964 0 1 0 19.925.001zm0 0" fill="#99f"/><use x="378.774" xlink:href="#q" y="47.437"/><use x="384.514" xlink:href="#u" y="47.437"/><path d="m394.102 9.96c0-5.503-4.461-9.964-9.961-9.964-5.504 0-9.965 4.461-9.965 9.965s4.46 9.96 9.965 9.96c5.5 0 9.96-4.456 9.96-9.96zm0 0" fill="#99f"/><use x="378.774" xlink:href="#q" y="13.422"/><use x="384.514" xlink:href="#v" y="13.422"/><g clip-path="url(#c)"><path d="m496.152 60.984c0-5.504-4.46-9.96-9.964-9.96-5.5 0-9.961 4.456-9.961 9.96a9.964 9.964 0 1 0 19.925 0zm0 0" fill="#f99"/></g><use x="483.767" xlink:href="#r" y="63.131"/><path d="m281.771 64.834 81.403-27.137" fill="none" stroke="#4c4c4c" stroke-miterlimit="10" stroke-width=".3985" transform="matrix(1 0 0 -1 9.963 146.025)"/><path d="m-1.196 1.594c.1-.597 1.196-1.496 1.496-1.594-.3-.1-1.394-.996-1.496-1.593" style="fill:none;stroke-width:.31879;stroke-linecap:round;stroke-linejoin:round;stroke:#4c4c4c;stroke-miterlimit:10" transform="matrix(.94864 .31621 .31621 -.94864 373.138 108.327)"/><path d="m282.295 68.048 80.281-.003" fill="none" stroke="#4c4c4c" stroke-miterlimit="10" stroke-width=".3985" transform="matrix(1 0 0 -1 9.963 146.025)"/><path d="m-1.197 1.596c.101-.602 1.195-1.496 1.496-1.598-.3-.097-1.395-.996-1.496-1.594" style="fill:none;stroke-width:.31879;stroke-linecap:round;stroke-linejoin:round;stroke:#4c4c4c;stroke-miterlimit:10" transform="matrix(1 0 0 -1 372.541 77.979)"/><path d="m281.771 71.26 81.403 27.136" fill="none" stroke="#4c4c4c" stroke-miterlimit="10" stroke-width=".3985" transform="matrix(1 0 0 -1 9.963 146.025)"/><path d="m-1.195 1.594c.1-.598 1.194-1.494 1.494-1.594-.299-.097-1.394-.997-1.494-1.593" style="fill:none;stroke-width:.31879;stroke-linecap:round;stroke-linejoin:round;stroke:#4c4c4c;stroke-miterlimit:10" transform="matrix(.94863558 -.3162128 -.3162128 -.94863558 373.141791 47.629419)"/><path d="m280.584 73.685 83.945 55.961" fill="none" stroke="#4c4c4c" stroke-miterlimit="10" stroke-width=".3985" transform="matrix(1 0 0 -1 9.963 146.025)"/><path d="m-1.195 1.594c.1-.597 1.195-1.496 1.495-1.594-.3-.1-1.397-.998-1.494-1.595" style="fill:none;stroke-width:.31879;stroke-linecap:round;stroke-linejoin:round;stroke:#4c4c4c;stroke-miterlimit:10" transform="matrix(.83201903 -.55465696 -.55465696 -.83201903 374.489707 16.378056)"/><path d="m280.588 96.431 83.941-55.965" fill="none" stroke="#4c4c4c" stroke-miterlimit="10" stroke-width=".3985" transform="matrix(1 0 0 -1 9.963 146.025)"/><path d="m-1.197 1.595c.103-.598 1.197-1.493 1.495-1.595-.298-.1-1.393-.995-1.496-1.594" style="fill:none;stroke-width:.31879;stroke-linecap:round;stroke-linejoin:round;stroke:#4c4c4c;stroke-miterlimit:10" transform="matrix(.83201767 .55467703 .55467703 -.83201767 374.498449 105.559318)"/><path d="m281.771 98.857 81.403-27.137" fill="none" stroke="#4c4c4c" stroke-miterlimit="10" stroke-width=".3985" transform="matrix(1 0 0 -1 9.963 146.025)"/><path d="m-1.196 1.594c.1-.597 1.196-1.496 1.496-1.594-.3-.1-1.394-.995-1.496-1.593" style="fill:none;stroke-width:.31879;stroke-linecap:round;stroke-linejoin:round;stroke:#4c4c4c;stroke-miterlimit:10" transform="matrix(.94864 .31621 .31621 -.94864 373.138 74.304)"/><path d="m282.295 102.072h80.281" fill="none" stroke="#4c4c4c" stroke-miterlimit="10" stroke-width=".3985" transform="matrix(1 0 0 -1 9.963 146.025)"/><path d="m-1.197 1.596c.101-.598 1.195-1.496 1.496-1.594-.3-.102-1.395-1-1.496-1.598" style="fill:none;stroke-width:.31879;stroke-linecap:round;stroke-linejoin:round;stroke:#4c4c4c;stroke-miterlimit:10" transform="matrix(1 0 0 -1 372.541 43.955)"/><path d="m281.771 105.283 81.403 27.137" fill="none" stroke="#4c4c4c" stroke-miterlimit="10" stroke-width=".3985" transform="matrix(1 0 0 -1 9.963 146.025)"/><path d="m-1.194 1.594c.097-.597 1.194-1.494 1.494-1.594-.3-.1-1.394-.997-1.494-1.593" style="fill:none;stroke-width:.31879;stroke-linecap:round;stroke-linejoin:round;stroke:#4c4c4c;stroke-miterlimit:10" transform="matrix(.94864 -.31621 -.31621 -.94864 373.14 13.606)"/><path d="m383.287 38.568 82.586 41.293" fill="none" stroke="#4c4c4c" stroke-miterlimit="10" stroke-width=".3985" transform="matrix(1 0 0 -1 9.963 146.025)"/><path d="m-1.195 1.593c.1-.595 1.197-1.493 1.492-1.593-.299-.1-1.394-.997-1.492-1.595" style="fill:none;stroke-width:.31879;stroke-linecap:round;stroke-linejoin:round;stroke:#4c4c4c;stroke-miterlimit:10" transform="matrix(.89435604 -.44717702 -.44717702 -.89435604 475.843985 66.163471)"/><path d="m384.22 69.716 80.587 13.43" fill="none" stroke="#4c4c4c" stroke-miterlimit="10" stroke-width=".3985" transform="matrix(1 0 0 -1 9.963 146.025)"/><path d="m-1.194 1.595c.098-.598 1.193-1.494 1.493-1.595-.299-.1-1.394-.995-1.494-1.593" style="fill:none;stroke-width:.31879;stroke-linecap:round;stroke-linejoin:round;stroke:#4c4c4c;stroke-miterlimit:10" transform="matrix(.98633566 -.16438358 -.16438358 -.98633566 474.778587 62.87762)"/><path d="m384.22 100.4 80.587-13.43" fill="none" stroke="#4c4c4c" stroke-miterlimit="10" stroke-width=".3985" transform="matrix(1 0 0 -1 9.963 146.025)"/><path d="m-1.195 1.593c.1-.597 1.196-1.493 1.495-1.593-.3-.101-1.395-.997-1.493-1.595" style="fill:none;stroke-width:.31879;stroke-linecap:round;stroke-linejoin:round;stroke:#4c4c4c;stroke-miterlimit:10" transform="matrix(.98634 .16438 .16438 -.98634 474.768 59.056)"/><path d="m383.29 131.548 82.587-41.293" fill="none" stroke="#4c4c4c" stroke-miterlimit="10" stroke-width=".3985" transform="matrix(1 0 0 -1 9.963 146.025)"/><path d="m-1.197 1.595c.103-.6 1.197-1.495 1.495-1.593-.298-.102-1.392-.998-1.495-1.596" style="fill:none;stroke-width:.31879;stroke-linecap:round;stroke-linejoin:round;stroke:#4c4c4c;stroke-miterlimit:10" transform="matrix(.89438 .4472 .4472 -.89438 475.838 55.77)"/><path d="m40.398 93.895h13.052v-7.196h-13.05zm0 0" fill="#fff"/><use x="42.392" xlink:href="#w" y="91.904"/><use x="45.782" xlink:href="#C" y="91.904"/><use x="48.065" xlink:href="#x" y="91.904"/><path d="m65.855 81.578h16.442v-7.195h-16.442zm0 0" fill="#fff"/><use x="67.848" xlink:href="#w" y="79.585"/><use x="71.238" xlink:href="#C" y="79.585"/><g><use x="73.521" xlink:href="#w" y="79.585"/><use x="76.911" xlink:href="#y" y="79.585"/></g><path d="m37.7 69.727h18.445v-8.137h-18.446zm0 0" fill="#fff"/><use x="39.693" xlink:href="#D" y="66.905"/><use x="45.089" xlink:href="#w" y="66.905"/><use x="48.479" xlink:href="#C" y="66.905"/><use x="50.762" xlink:href="#z" y="66.905"/><path d="m63.703 38.941h21.837v-8.136h-21.837zm0 0" fill="#fff"/><use x="65.695" xlink:href="#D" y="36.12"/><use x="71.092" xlink:href="#w" y="36.12"/><use x="74.482" xlink:href="#C" y="36.12"/><g><use x="76.765" xlink:href="#x" y="36.12"/><use x="80.155" xlink:href="#y" y="36.12"/></g><path d="m66.402 90.66h16.442v-7.195h-16.442zm0 0" fill="#fff"/><use x="68.395" xlink:href="#w" y="88.668"/><use x="71.785" xlink:href="#C" y="88.668"/><g><use x="74.068" xlink:href="#y" y="88.668"/><use x="77.458" xlink:href="#y" y="88.668"/></g><path d="m40.398 59.875h13.052v-7.195h-13.05zm0 0" fill="#fff"/><use x="42.392" xlink:href="#w" y="57.882"/><use x="45.782" xlink:href="#C" y="57.882"/><use x="48.065" xlink:href="#A" y="57.882"/><path d="m65.855 47.55h16.442v-7.195h-16.442zm0 0" fill="#fff"/><use x="67.848" xlink:href="#w" y="45.561"/><use x="71.238" xlink:href="#C" y="45.561"/><g><use x="73.521" xlink:href="#x" y="45.561"/><use x="76.911" xlink:href="#y" y="45.561"/></g><path d="m40.398 35.234h13.052v-7.194h-13.05zm0 0" fill="#fff"/><use x="42.391" xlink:href="#w" y="33.242"/><use x="45.781" xlink:href="#C" y="33.242"/><use x="48.064" xlink:href="#z" y="33.242"/><path d="m142.281 97.215h13.047v-7.195h-13.047zm0 0" fill="#fff"/><use x="144.27" xlink:href="#w" y="95.222"/><use x="147.661" xlink:href="#C" y="95.222"/><use x="149.944" xlink:href="#x" y="95.222"/><path d="m167.969 70.883h16.437v-7.195h-16.436zm0 0" fill="#fff"/><use x="169.959" xlink:href="#w" y="68.892"/><use x="173.349" xlink:href="#C" y="68.892"/><g><use x="175.632" xlink:href="#y" y="68.892"/><use x="179.022" xlink:href="#y" y="68.892"/></g><path d="m142.598 53.734h13.05v-7.194h-13.05zm0 0" fill="#fff"/><use x="144.589" xlink:href="#w" y="51.743"/><use x="147.979" xlink:href="#C" y="51.743"/><use x="150.262" xlink:href="#B" y="51.743"/><path d="m168.27 45.758h16.437v-7.196h-16.437zm0 0" fill="#fff"/><use x="170.259" xlink:href="#z" y="43.766"/><use x="173.649" xlink:href="#C" y="43.766"/><g><use x="175.933" xlink:href="#x" y="43.766"/><use x="179.323" xlink:href="#y" y="43.766"/></g><g clip-path="url(#d)" fill="none" stroke-miterlimit="10"><path d="m280.795 55.728h19.273l1.133.004 1.137.031 1.133.153 1.132.52 1.133 1.21 1.137 1.875 1.133 1.656 1.133.223 1.132-1.371 1.133-1.938 1.137-1.421 1.133-.668 1.133-.215 1.132-.051 1.133-.008h19.274-.696" stroke="#fff" stroke-width="2.59032" transform="matrix(1 0 0 -1 9.963 146.025)"/><path d="m280.795 55.728h19.273l1.133.004 1.137.031 1.133.153 1.132.52 1.133 1.21 1.137 1.875 1.133 1.656 1.133.223 1.132-1.371 1.133-1.938 1.137-1.421 1.133-.668 1.133-.215 1.132-.051 1.133-.008h19.274-.696" stroke="#ff8000" stroke-width=".99628" transform="matrix(1 0 0 -1 9.963 146.025)"/></g><g clip-path="url(#e)" fill="none" stroke-miterlimit="10"><path d="m307.947 68.045h18.14l1.134.003 1.132.008 1.133.067 1.137.265 1.133.801 1.133 1.61 1.132 2.074 1.133 1.32 1.137-.473 1.133-1.86 1.133-1.956 1.132-1.2 1.133-.488 1.137-.14 1.133-.028 1.132-.003h19.274-.695" stroke="#fff" stroke-width="2.59032" transform="matrix(1 0 0 -1 9.963 146.025)"/><path d="m307.947 68.045h18.14l1.134.003 1.132.008 1.133.067 1.137.265 1.133.801 1.133 1.61 1.132 2.074 1.133 1.32 1.137-.473 1.133-1.86 1.133-1.956 1.132-1.2 1.133-.488 1.137-.14 1.133-.028 1.132-.003h19.274-.695" stroke="#ff8000" stroke-width=".99628" transform="matrix(1 0 0 -1 9.963 146.025)"/></g><g clip-path="url(#f)" fill="none" stroke-miterlimit="10"><path d="m280.795 80.365h18.14l1.133.004 1.133.023 1.133.125 1.137.473 1.132 1.223 1.133 2.097 1.133 2.192 1.137.796 1.133-1.253 1.132-2.293 1.133-1.922 1.137-1.004 1.133-.356 1.133-.09 1.132-.011 1.133-.004h19.274-.696" stroke="#fff" stroke-width="2.59032" transform="matrix(1 0 0 -1 9.963 146.025)"/><path d="m280.795 80.365h18.14l1.133.004 1.133.023 1.133.125 1.137.473 1.132 1.223 1.133 2.097 1.133 2.192 1.137.796 1.133-1.253 1.132-2.293 1.133-1.922 1.137-1.004 1.133-.356 1.133-.09 1.132-.011 1.133-.004h19.274-.696" stroke="#ff8000" stroke-width=".99628" transform="matrix(1 0 0 -1 9.963 146.025)"/></g><g clip-path="url(#g)" fill="none" stroke-miterlimit="10"><path d="m308.494 111.15h18.14l1.133.008 1.133.055 1.133.253 1.137.825 1.133 1.843 1.132 2.676 1.133 2.145 1.133.015 1.137-2.14 1.133-2.676 1.132-1.852 1.133-.832 1.137-.257 1.133-.055 1.133-.008h20.406-.696" stroke="#fff" stroke-width="2.59032" transform="matrix(1 0 0 -1 9.963 146.025)"/><path d="m308.494 111.15h18.14l1.133.008 1.133.055 1.133.253 1.137.825 1.133 1.843 1.132 2.676 1.133 2.145 1.133.015 1.137-2.14 1.133-2.676 1.132-1.852 1.133-.832 1.137-.257 1.133-.055 1.133-.008h20.406-.696" stroke="#ff8000" stroke-width=".99628" transform="matrix(1 0 0 -1 9.963 146.025)"/></g><g clip-path="url(#h)" fill="none" stroke-miterlimit="10"><path d="m308.498 58.966h21.539l1.133.02 1.133.09 1.132.34 1.133.875 1.137 1.515 1.133 1.574 1.133.57 1.132-.902 1.137-1.652 1.133-1.379 1.133-.722 1.133-.254 1.132-.063 1.137-.012h18.137-.692" stroke="#fff" stroke-width="2.59032" transform="matrix(1 0 0 -1 9.963 146.025)"/><path d="m308.498 58.966h21.539l1.133.02 1.133.09 1.132.34 1.133.875 1.137 1.515 1.133 1.574 1.133.57 1.132-.902 1.137-1.652 1.133-1.379 1.133-.722 1.133-.254 1.132-.063 1.137-.012h18.137-.692" stroke="#ff8000" stroke-width=".99628" transform="matrix(1 0 0 -1 9.963 146.025)"/></g><g clip-path="url(#i)" fill="none" stroke-miterlimit="10"><path d="m280.799 89.752h20.401l1.137.003 1.133.032 1.132.144 1.133.465 1.137 1.04 1.133 1.519 1.133 1.215 1.132.003 1.133-1.207 1.137-1.515 1.133-1.051 1.133-.469 1.132-.144 1.133-.032 1.137-.003h18.137-.696" stroke="#fff" stroke-width="2.59032" transform="matrix(1 0 0 -1 9.963 146.025)"/><path d="m280.799 89.752h20.401l1.137.003 1.133.032 1.132.144 1.133.465 1.137 1.04 1.133 1.519 1.133 1.215 1.132.003 1.133-1.207 1.137-1.515 1.133-1.051 1.133-.469 1.132-.144 1.133-.032 1.137-.003h18.137-.696" stroke="#ff8000" stroke-width=".99628" transform="matrix(1 0 0 -1 9.963 146.025)"/></g><g clip-path="url(#j)" fill="none" stroke-miterlimit="10"><path d="m307.947 102.072h20.406l1.133.008 1.137.054 1.133.227 1.133.633 1.132 1.222 1.133 1.47 1.137.808 1.133-.496 1.133-1.399 1.132-1.344 1.133-.78 1.137-.305 1.133-.082 1.132-.016h19.274-.695" stroke="#fff" stroke-width="2.59032" transform="matrix(1 0 0 -1 9.963 146.025)"/><path d="m307.947 102.072h20.406l1.133.008 1.137.054 1.133.227 1.133.633 1.132 1.222 1.133 1.47 1.137.808 1.133-.496 1.133-1.399 1.132-1.344 1.133-.78 1.137-.305 1.133-.082 1.132-.016h19.274-.695" stroke="#ff8000" stroke-width=".99628" transform="matrix(1 0 0 -1 9.963 146.025)"/></g><g clip-path="url(#k)" fill="none" stroke-miterlimit="10"><path d="m280.795 114.388h19.273l1.133.004 1.133.02 1.137.097 1.132.348 1.133.856 1.133 1.402 1.137 1.351 1.133.344 1.132-.937 1.133-1.493 1.133-1.164 1.137-.578 1.133-.195 1.132-.047 1.133-.008h19.274-.696" stroke="#fff" stroke-width="2.59032" transform="matrix(1 0 0 -1 9.963 146.025)"/><path d="m280.795 114.388h19.273l1.133.004 1.133.02 1.137.097 1.132.348 1.133.856 1.133 1.402 1.137 1.351 1.133.344 1.132-.937 1.133-1.493 1.133-1.164 1.137-.578 1.133-.195 1.132-.047 1.133-.008h19.274-.696" stroke="#ff8000" stroke-width=".99628" transform="matrix(1 0 0 -1 9.963 146.025)"/></g><g clip-path="url(#l)" fill="none" stroke-miterlimit="10"><path d="m382.678 52.408h19.27l1.136.004 1.133.031 1.132.152 1.133.516 1.137 1.215 1.133 1.875 1.133 1.656 1.132.223 1.137-1.371 1.133-1.942 1.133-1.418 1.133-.668 1.132-.218 1.137-.047 1.133-.008h19.273-.695" stroke="#fff" stroke-width="2.59032" transform="matrix(1 0 0 -1 9.963 146.025)"/><path d="m382.678 52.408h19.27l1.136.004 1.133.031 1.132.152 1.133.516 1.137 1.215 1.133 1.875 1.133 1.656 1.132.223 1.137-1.371 1.133-1.942 1.133-1.418 1.133-.668 1.132-.218 1.137-.047 1.133-.008h19.273-.695" stroke="#ff8000" stroke-width=".99628" transform="matrix(1 0 0 -1 9.963 146.025)"/></g><g clip-path="url(#m)" fill="none" stroke-miterlimit="10"><path d="m410.06 78.74h21.54l1.132.02 1.133.09 1.137.34 1.133.874 1.132 1.516 1.133 1.574 1.133.57 1.137-.902 1.133-1.652 1.132-1.38 1.133-.722 1.137-.254 1.133-.062 1.133-.012h18.14-.695" stroke="#fff" stroke-width="2.59032" transform="matrix(1 0 0 -1 9.963 146.025)"/><path d="m410.06 78.74h21.54l1.132.02 1.133.09 1.137.34 1.133.874 1.132 1.516 1.133 1.574 1.133.57 1.137-.902 1.133-1.652 1.132-1.38 1.133-.722 1.137-.254 1.133-.062 1.133-.012h18.14-.695" stroke="#ff8000" stroke-width=".99628" transform="matrix(1 0 0 -1 9.963 146.025)"/></g><g clip-path="url(#n)" fill="none" stroke-miterlimit="10"><path d="m382.994 95.888h21.54l1.136.004 1.133.008 1.132.05 1.133.22 1.133.617 1.137 1.183 1.133 1.426 1.132.781 1.133-.476 1.137-1.356 1.133-1.304 1.133-.762 1.132-.293 1.133-.078 1.137-.016 1.133-.004h15.87-.695" stroke="#fff" stroke-width="2.59032" transform="matrix(1 0 0 -1 9.963 146.025)"/><path d="m382.994 95.888h21.54l1.136.004 1.133.008 1.132.05 1.133.22 1.133.617 1.137 1.183 1.133 1.426 1.132.781 1.133-.476 1.137-1.356 1.133-1.304 1.133-.762 1.132-.293 1.133-.078 1.137-.016 1.133-.004h15.87-.695" stroke="#ff8000" stroke-width=".99628" transform="matrix(1 0 0 -1 9.963 146.025)"/></g><g clip-path="url(#o)" fill="none" stroke-miterlimit="10"><path d="m410.361 103.869h23.809l1.133.004 1.132.03 1.133.138 1.133.422 1.137.902 1.133 1.23 1.132.89 1.133-.14 1.137-1.047 1.133-1.199 1.133-.777 1.132-.332 1.133-.098 1.137-.023h15.871-.695" stroke="#fff" stroke-width="2.59032" transform="matrix(1 0 0 -1 9.963 146.025)"/><path d="m410.361 103.869h23.809l1.133.004 1.132.03 1.133.138 1.133.422 1.137.902 1.133 1.23 1.132.89 1.133-.14 1.137-1.047 1.133-1.199 1.133-.777 1.132-.332 1.133-.098 1.137-.023h15.871-.695" stroke="#ff8000" stroke-width=".99628" transform="matrix(1 0 0 -1 9.963 146.025)"/></g></svg>