<svg height="280.385" viewBox="0 0 477.159 210.289" width="636.212" xmlns="http://www.w3.org/2000/svg" xmlns:xlink="http://www.w3.org/1999/xlink"><symbol id="a" overflow="visible"><path d="m2.297-3.5a6.05 6.05 0 0 0 .156-.64c0-.173-.125-.266-.297-.266-.015 0-.297.015-.39.36l-1.438 5.764c-.031.125-.031.14-.031.172 0 .14.11.265.281.265.203 0 .328-.187.344-.219.047-.078.172-.609.547-2.14.328.266.781.312.968.312.704 0 1.094-.453 1.329-.734a.904.904 0 0 0 .906.734c.344 0 .578-.234.734-.546.172-.36.297-.97.297-.985 0-.11-.094-.11-.125-.11-.094 0-.11.048-.14.188-.157.64-.344 1.235-.75 1.235-.266 0-.297-.266-.297-.454 0-.218.109-.687.187-1.046l.281-1.079c.032-.14.141-.515.172-.671.047-.235.157-.61.157-.672 0-.172-.141-.266-.297-.266-.047 0-.313.016-.391.344l-.469 1.875c-.11.5-.218.906-.25 1.015-.015.047-.484.954-1.297.954-.5 0-.734-.329-.734-.875 0-.282.063-.563.14-.844zm0 0"/></symbol><symbol id="b" overflow="visible"><path d="m5.156-3.719c.14 0 .5 0 .5-.344 0-.234-.218-.234-.39-.234h-2.282c-1.5 0-2.609 1.64-2.609 2.828 0 .875.594 1.579 1.5 1.579 1.172 0 2.5-1.203 2.5-2.734 0-.172 0-.656-.313-1.094zm-3.265 3.61c-.501-.001-.891-.361-.891-1.079 0-.296.11-1.109.469-1.703.422-.687 1.015-.828 1.36-.828.827 0 .905.656.905.969 0 .469-.203 1.281-.53 1.797-.392.578-.938.844-1.313.844zm0 0"/></symbol><symbol id="c" overflow="visible"><path d="m3.328-3.016c.063-.25.297-1.171.985-1.171.046 0 .296 0 .5.125a.578.578 0 0 0 -.47.546c0 .157.11.344.376.344a.546.546 0 0 0 .531-.578c0-.516-.578-.656-.922-.656-.578 0-.922.531-1.047.75-.25-.656-.781-.75-1.078-.75-1.031 0-1.61 1.281-1.61 1.531 0 .11.11.11.126.11.078 0 .11-.032.125-.11.344-1.063 1-1.313 1.344-1.313.187 0 .53.094.53.672 0 .313-.171.97-.53 2.375-.157.61-.516 1.032-.954 1.032-.062 0-.28 0-.5-.125.25-.063.47-.266.47-.547 0-.266-.22-.344-.36-.344-.313 0-.547.25-.547.578 0 .453.484.656.922.656.672 0 1.031-.703 1.047-.75.125.36.484.75 1.078.75 1.031 0 1.594-1.28 1.594-1.53 0-.11-.079-.11-.11-.11-.094 0-.11.047-.14.11-.329 1.077-1 1.312-1.313 1.312-.39 0-.547-.313-.547-.657 0-.218.047-.437.156-.875zm0 0"/></symbol><symbol id="d" overflow="visible"><path d="m2.078-1.938c.219.047 1.031.204 1.031.922 0 .5-.343.907-1.125.907-.843 0-1.203-.563-1.39-1.422-.031-.125-.031-.157-.14-.157-.126 0-.126.063-.126.235v1.328c0 .172 0 .234.11.234.045.001.062-.015.25-.203.015-.015.015-.031.202-.218.437.406.89.421 1.093.421 1.141 0 1.61-.671 1.61-1.39 0-.516-.297-.828-.422-.938-.328-.328-.719-.406-1.14-.484-.563-.11-1.22-.235-1.22-.813 0-.359.25-.765 1.11-.765 1.094 0 1.156.906 1.172 1.203 0 .094.094.094.11.094.14 0 .14-.047.14-.235v-1.015c0-.157 0-.235-.11-.235-.046 0-.078 0-.203.125a1.676 1.676 0 0 1 -.172.157c-.375-.282-.78-.282-.937-.282-1.219 0-1.594.672-1.594 1.235 0 .343.156.625.422.843.328.25.61.313 1.328.454zm0 0"/></symbol><symbol id="e" overflow="visible"><path d="m3.313-.75c.046.39.312.813.78.813.22 0 .829-.141.829-.954v-.562h-.25v.562c0 .579-.25.641-.36.641-.328 0-.375-.453-.375-.5v-1.984c0-.422 0-.813-.359-1.188a1.9 1.9 0 0 0 -1.36-.547c-.827 0-1.515.469-1.515 1.125 0 .297.203.469.469.469a.435.435 0 0 0 .453-.453c0-.125-.047-.453-.516-.453.282-.36.766-.469 1.079-.469.5 0 1.062.39 1.062 1.281v.36c-.516.03-1.203.062-1.828.359-.75.344-1 .86-1 1.297 0 .812.969 1.062 1.594 1.062a1.38 1.38 0 0 0 1.296-.859zm-.063-1.64v1c0 .937-.719 1.28-1.172 1.28-.484 0-.89-.343-.89-.843 0-.547.421-1.375 2.062-1.438zm0 0"/></symbol><symbol id="f" overflow="visible"><path d="m1.094-3.422v2.672c0 .438-.11.438-.782.438v.312c.36-.016.86-.031 1.141-.031.25 0 .766.015 1.11.031v-.313c-.672 0-.782 0-.782-.437v-1.844c0-1.031.719-1.594 1.344-1.594.64 0 .75.532.75 1.11v2.328c0 .438-.11.438-.781.438v.312c.344-.016.86-.031 1.125-.031.25 0 .781.015 1.11.031v-.313c-.657 0-.766 0-.766-.437v-1.844c0-1.031.703-1.594 1.343-1.594.625 0 .735.532.735 1.11v2.328c0 .438-.11.438-.782.438v.312c.344-.016.86-.031 1.125-.031.266 0 .782.015 1.125.031v-.313c-.515 0-.765 0-.78-.296v-1.907c0-.859 0-1.156-.313-1.515-.141-.172-.47-.375-1.047-.375-.828 0-1.282.593-1.438.984-.14-.875-.875-.984-1.328-.984-.734 0-1.203.422-1.484 1.047v-1.047l-1.407.11v.312c.704 0 .782.062.782.562zm0 0"/></symbol><symbol id="g" overflow="visible"><path d="m1.719-3.75v-.656l-1.438.11v.312c.703 0 .781.062.781.5v4.656c0 .453-.109.453-.78.453v.313c.343-.016.859-.032 1.109-.032.28 0 .78.016 1.125.032v-.313c-.657 0-.766 0-.766-.453v-1.766c.047.172.469.703 1.219.703 1.187 0 2.219-.984 2.219-2.265 0-1.266-.954-2.25-2.079-2.25-.78 0-1.203.437-1.39.656zm.031 2.61v-2.22c.281-.515.766-.796 1.281-.796.735 0 1.328.875 1.328 2 .001 1.203-.687 2.046-1.421 2.046-.407 0-.782-.204-1.047-.61-.141-.203-.141-.219-.141-.422zm0 0"/></symbol><symbol id="h" overflow="visible"><path d="m1.766-6.922-1.438.11v.312c.703 0 .781.063.781.563v5.187c0 .438-.109.438-.78.438v.312c.327-.016.859-.031 1.109-.031s.734.015 1.109.031v-.313c-.672 0-.781 0-.781-.437zm0 0"/></symbol><symbol id="i" overflow="visible"><path d="m1.11-2.516c.061-1.484.905-1.734 1.25-1.734 1.015 0 1.124 1.344 1.124 1.734zm0 .22h2.78c.22 0 .25 0 .25-.22 0-.984-.546-1.953-1.78-1.953-1.158 0-2.08 1.032-2.08 2.282.001 1.327 1.048 2.295 2.19 2.295 1.218.002 1.67-1.108 1.67-1.295 0-.094-.079-.125-.141-.125-.078 0-.11.062-.125.14-.343 1.032-1.249 1.032-1.343 1.032-.5 0-.89-.296-1.125-.671-.297-.47-.297-1.125-.297-1.485zm0 0"/></symbol><symbol id="j" overflow="visible"><path d="m2.5-6.922-1.344 1.36.172.171 1.172-1.015 1.14 1.015.172-.171zm0 0"/></symbol><symbol id="k" overflow="visible"><path d="m1.766-4.406-1.391.11v.312c.64 0 .734.062.734.546v2.688c0 .438-.109.438-.78.438v.312c.312-.016.859-.031 1.093-.031.36 0 .703.015 1.047.031v-.313c-.672 0-.703-.046-.703-.437zm.03-1.735a.514.514 0 0 0 -.515-.53.537.537 0 0 0 -.531.53c0 .266.219.532.531.532a.514.514 0 0 0 .516-.532zm0 0"/></symbol><symbol id="l" overflow="visible"><path d="m1.094-3.422v2.672c0 .438-.11.438-.782.438v.312c.36-.016.86-.031 1.141-.031.25 0 .766.015 1.11.031v-.313c-.672 0-.782 0-.782-.437v-1.844c0-1.031.719-1.594 1.344-1.594.64 0 .75.532.75 1.11v2.328c0 .438-.11.438-.781.438v.312c.344-.016.86-.031 1.125-.031.25 0 .781.015 1.11.031v-.313c-.516 0-.766 0-.766-.296v-1.907c0-.859 0-1.156-.313-1.515-.14-.172-.469-.375-1.047-.375-.734 0-1.203.422-1.484 1.047v-1.047l-1.407.11v.312c.704 0 .782.062.782.562zm0 0"/></symbol><symbol id="m" overflow="visible"><path d="m3.89-.781v.89l1.439-.109v-.313c-.687 0-.766-.062-.766-.562v-3.531l-1.468.11v.312c.687 0 .781.062.781.562v1.766c0 .875-.484 1.547-1.219 1.547-.828 0-.875-.47-.875-.985v-3.312l-1.468.11v.312c.78 0 .78.03.78.906v1.5c0 .781 0 1.687 1.516 1.687.563 0 1-.28 1.282-.89zm0 0"/></symbol><symbol id="n" overflow="visible"><path d="m1.719-3.984h1.437v-.313h-1.436v-1.828h-.25c0 .813-.297 1.875-1.282 1.922v.219h.844v2.75c0 1.218.938 1.343 1.297 1.343.703 0 .985-.703.985-1.343v-.563h-.25v.547c0 .734-.297 1.11-.672 1.11-.672 0-.672-.907-.672-1.079zm0 0"/></symbol><symbol id="o" overflow="visible"><path d="m4.688-2.14c0-1.266-.985-2.329-2.188-2.329-1.25 0-2.219 1.094-2.219 2.329a2.22 2.22 0 0 0 2.203 2.25c1.204 0 2.204-.984 2.204-2.25zm-2.188 2c-.438 0-.875-.204-1.14-.672-.25-.438-.25-1.047-.25-1.407 0-.39 0-.922.234-1.36a1.347 1.347 0 0 1 1.14-.671c.438 0 .86.219 1.125.656.266.422.266 1 .266 1.375 0 .36 0 .906-.219 1.344-.234.453-.672.734-1.156.734zm0 0"/></symbol><symbol id="p" overflow="visible"><path d="m2.328-4.438c0-.187 0-.187-.203-.187-.453.438-1.078.438-1.36.438v.25c.157 0 .626 0 1-.188v3.547c0 .234 0 .328-.687.328h-.266v.25c.125 0 .985-.031 1.235-.031.219 0 1.094.031 1.25.031v-.25h-.267c-.703 0-.703-.094-.703-.328zm0 0"/></symbol><symbol id="q" overflow="visible"><path d="m3.516-1.266h-.236c-.015.157-.094.563-.187.625-.047.047-.578.047-.688.047h-1.28c.734-.64.984-.844 1.39-1.172.516-.406 1-.843 1-1.5 0-.843-.734-1.359-1.624-1.359-.86 0-1.454.61-1.454 1.25 0 .344.297.39.376.39a.365.365 0 0 0 .359-.374c0-.125-.047-.375-.406-.375.218-.485.687-.641 1.015-.641.703 0 1.063.547 1.063 1.11 0 .609-.438 1.078-.656 1.328l-1.672 1.671c-.079.063-.079.079-.079.266h2.876zm0 0"/></symbol><symbol id="r" overflow="visible"><path d="m1.906-2.328c.547 0 .938.375.938 1.125 0 .86-.516 1.125-.906 1.125-.282 0-.907-.078-1.188-.5.328 0 .406-.235.406-.39 0-.22-.172-.376-.39-.376a.38.38 0 0 0 -.391.407c0 .656.719 1.077 1.563 1.077.968 0 1.64-.657 1.64-1.344 0-.547-.437-1.094-1.203-1.25.719-.266.984-.781.984-1.219 0-.547-.625-.953-1.406-.953-.766 0-1.36.375-1.36.938 0 .234.157.359.36.359.219 0 .36-.156.36-.344 0-.203-.141-.36-.36-.375.25-.297.719-.375.985-.375.312 0 .75.156.75.75 0 .297-.094.625-.282.828-.219.266-.422.281-.765.313-.172.015-.188.015-.22.015-.015 0-.077.016-.077.094 0 .094.062.094.187.094zm0 0"/></symbol><symbol id="s" overflow="visible"><path d="m3.688-1.14v-.25h-.782v-3.11c0-.14 0-.203-.14-.203-.094 0-.125 0-.188.11l-2.312 3.201v.25h2.062v.563c0 .25 0 .328-.578.328h-.188v.251c.36-.016.797-.031 1.047-.031.266 0 .704.015 1.063.031v-.25h-.188c-.578 0-.578-.078-.578-.328v-.563zm-1.313-2.799v2.547h-1.844zm0 0"/></symbol><symbol id="t" overflow="visible"><path d="m1.078-3.89c.36.093.563.093.672.093.922 0 1.469-.625 1.469-.734 0-.078-.047-.094-.078-.094-.016 0-.032 0-.063.016-.172.062-.531.203-1.047.203-.203 0-.562-.016-1.015-.188-.079-.031-.094-.031-.094-.031-.094 0-.094.078-.094.188v2.046c0 .125 0 .204.11.204.062 0 .078 0 .14-.094.297-.375.734-.438.969-.438a.72.72 0 0 1 .64.39c.126.235.172.5.172.907 0 .203 0 .61-.218.922a.984.984 0 0 1 -.813.422c-.453 0-.922-.25-1.094-.719.266.016.407-.156.407-.344 0-.296-.266-.343-.36-.343 0 0-.344 0-.344.375 0 .625.579 1.25 1.407 1.25.89 0 1.672-.657 1.672-1.547 0-.782-.594-1.5-1.454-1.5-.312 0-.671.062-.984.328zm0 0"/></symbol><clipPath id="u"><path d="m6 181h40v29.29h-40zm0 0"/></clipPath><clipPath id="v"><path d="m431 181h41v29.29h-41zm0 0"/></clipPath><clipPath id="w"><path d="m194 175h40v35.29h-40zm0 0"/></clipPath><path d="m65.275 17.01c0 4.738-3.844 8.578-8.583 8.578a8.577 8.577 0 0 1 -8.578-8.578c0-4.739 3.84-8.582 8.578-8.582a8.584 8.584 0 0 1 8.583 8.582zm0-39.688c0 4.738-3.844 8.578-8.583 8.578a8.577 8.577 0 0 1 -8.578-8.578 8.577 8.577 0 0 1 8.578-8.578c4.739 0 8.583 3.84 8.583 8.578zm0-39.683c0 4.738-3.844 8.578-8.583 8.578a8.577 8.577 0 0 1 -8.578-8.578c0-4.739 3.84-8.582 8.578-8.582a8.584 8.584 0 0 1 8.583 8.582zm0-39.688a8.584 8.584 0 0 1 -8.583 8.582c-4.738 0-8.578-3.844-8.578-8.582a8.577 8.577 0 0 1 8.578-8.578c4.739 0 8.583 3.84 8.583 8.578zm0 0" fill="none" stroke="#000" stroke-miterlimit="10" stroke-width=".79701" transform="matrix(1 0 0 -1 -30.712 59.58)"/><g clip-path="url(#u)"><path d="m65.275-141.732c0 4.738-3.844 8.578-8.583 8.578a8.577 8.577 0 0 1 -8.578-8.578 8.577 8.577 0 0 1 8.578-8.579c4.739 0 8.583 3.84 8.583 8.579zm0 0" fill="none" stroke="#000" stroke-miterlimit="10" stroke-width=".79701" transform="matrix(1 0 0 -1 -30.712 59.58)"/></g><path d="m121.966 2.834a8.577 8.577 0 0 1 -8.578 8.578 8.577 8.577 0 0 1 -8.578-8.578 8.577 8.577 0 0 1 8.578-8.578 8.577 8.577 0 0 1 8.578 8.578zm0-39.684a8.577 8.577 0 0 1 -8.578 8.578 8.577 8.577 0 0 1 -8.578-8.578 8.577 8.577 0 0 1 8.578-8.578 8.577 8.577 0 0 1 8.578 8.578zm0-39.687c0 4.738-3.84 8.582-8.578 8.582-4.739 0-8.578-3.844-8.578-8.582a8.577 8.577 0 0 1 8.578-8.578 8.577 8.577 0 0 1 8.578 8.578zm0-39.683a8.577 8.577 0 0 1 -8.578 8.577 8.577 8.577 0 0 1 -8.578-8.578 8.577 8.577 0 0 1 8.578-8.578 8.577 8.577 0 0 1 8.578 8.578zm56.695 104.882c0 4.738-3.844 8.578-8.582 8.578a8.58 8.58 0 0 1 -8.578-8.578 8.58 8.58 0 0 1 8.578-8.578c4.738 0 8.582 3.84 8.582 8.578zm0-39.687a8.584 8.584 0 0 1 -8.582 8.582 8.58 8.58 0 0 1 0-17.16c4.738 0 8.582 3.84 8.582 8.578zm0-39.685c0 4.74-3.844 8.58-8.582 8.58a8.58 8.58 0 0 1 -8.578-8.58 8.58 8.58 0 0 1 8.578-8.577c4.738 0 8.582 3.84 8.582 8.578zm0 0" fill="none" stroke="#000" stroke-miterlimit="10" stroke-width=".79701" transform="matrix(1 0 0 -1 -30.712 59.58)"/><path d="m66.368 14.588 36.899-9.223" fill="none" stroke="#000" stroke-miterlimit="10" stroke-width=".3985" transform="matrix(1 0 0 -1 -30.712 59.58)"/><path d="m-1.196 1.594c.101-.599 1.195-1.494 1.494-1.596-.297-.098-1.395-.992-1.494-1.593" style="fill:none;stroke-width:.31879;stroke-linecap:round;stroke-linejoin:round;stroke:#000;stroke-miterlimit:10" transform="matrix(.97012 .24252 .24252 -.97012 72.555 54.215)"/><path d="m65.79-18.584 38.082 17.137" fill="none" stroke="#000" stroke-miterlimit="10" stroke-width=".3985" transform="matrix(1 0 0 -1 -30.712 59.58)"/><path d="m-1.195 1.594c.1-.597 1.195-1.493 1.493-1.593-.298-.101-1.394-.996-1.492-1.594" style="fill:none;stroke-width:.31879;stroke-linecap:round;stroke-linejoin:round;stroke:#000;stroke-miterlimit:10" transform="matrix(.91188125 -.4103323 -.4103323 -.91188125 73.16044 61.025079)"/><path d="m63.24-54.838 43.3 49.8" fill="none" stroke="#000" stroke-miterlimit="10" stroke-width=".3985" transform="matrix(1 0 0 -1 -30.712 59.58)"/><path d="m-1.194 1.594c.1-.597 1.194-1.494 1.494-1.594-.3-.101-1.395-.997-1.495-1.596" style="fill:none;stroke-width:.31879;stroke-linecap:round;stroke-linejoin:round;stroke:#000;stroke-miterlimit:10" transform="matrix(.65617 -.7546 -.7546 -.65617 75.83 64.617)"/><path d="m61.435-93.275 46.992 86.933" fill="none" stroke="#000" stroke-miterlimit="10" stroke-width=".3985" transform="matrix(1 0 0 -1 -30.712 59.58)"/><path d="m-1.194 1.593c.1-.595 1.194-1.495 1.49-1.593-.296-.098-1.391-.996-1.491-1.592" style="fill:none;stroke-width:.31879;stroke-linecap:round;stroke-linejoin:round;stroke:#000;stroke-miterlimit:10" transform="matrix(.47548345 -.8796451 -.8796451 -.47548345 77.71424 65.921256)"/><path d="m60.333-132.447 49.247 125.57" fill="none" stroke="#000" stroke-miterlimit="10" stroke-width=".3985" transform="matrix(1 0 0 -1 -30.712 59.58)"/><path d="m-1.197 1.595c.1-.598 1.195-1.495 1.495-1.595-.298-.1-1.393-.996-1.494-1.594" style="fill:none;stroke-width:.31879;stroke-linecap:round;stroke-linejoin:round;stroke:#000;stroke-miterlimit:10" transform="matrix(.36506612 -.93091715 -.93091715 -.36506612 78.867023 66.455863)"/><path d="m63.923 10.139 41.902-39.805" fill="none" stroke="#000" stroke-miterlimit="10" stroke-width=".3985" transform="matrix(1 0 0 -1 -30.712 59.58)"/><path d="m-1.196 1.595c.1-.599 1.194-1.495 1.495-1.595-.299-.1-1.393-.996-1.494-1.593" style="fill:none;stroke-width:.31879;stroke-linecap:round;stroke-linejoin:round;stroke:#000;stroke-miterlimit:10" transform="matrix(.72496 .6887 .6887 -.72496 75.112 89.246)"/><path d="m66.368-25.096 36.899-9.226" fill="none" stroke="#000" stroke-miterlimit="10" stroke-width=".3985" transform="matrix(1 0 0 -1 -30.712 59.58)"/><path d="m-1.196 1.596c.1-.6 1.195-1.497 1.494-1.596-.298-.098-1.394-.997-1.494-1.593" style="fill:none;stroke-width:.31879;stroke-linecap:round;stroke-linejoin:round;stroke:#000;stroke-miterlimit:10" transform="matrix(.97012 .24252 .24252 -.97012 72.555 93.9)"/><path d="m65.79-58.272 38.082 17.141" fill="none" stroke="#000" stroke-miterlimit="10" stroke-width=".3985" transform="matrix(1 0 0 -1 -30.712 59.58)"/><path d="m-1.196 1.592c.1-.597 1.196-1.492 1.493-1.592-.296-.099-1.394-.997-1.492-1.595" style="fill:none;stroke-width:.31879;stroke-linecap:round;stroke-linejoin:round;stroke:#000;stroke-miterlimit:10" transform="matrix(.91188125 -.4103323 -.4103323 -.91188125 73.160291 100.710398)"/><path d="m63.24-94.522 43.3 49.801" fill="none" stroke="#000" stroke-miterlimit="10" stroke-width=".3985" transform="matrix(1 0 0 -1 -30.712 59.58)"/><path d="m-1.196 1.592c.1-.597 1.194-1.492 1.495-1.594-.299-.098-1.393-.994-1.493-1.593" style="fill:none;stroke-width:.31879;stroke-linecap:round;stroke-linejoin:round;stroke:#000;stroke-miterlimit:10" transform="matrix(.65617 -.7546 -.7546 -.65617 75.83 104.302)"/><path d="m61.435-132.96 46.992 86.935" fill="none" stroke="#000" stroke-miterlimit="10" stroke-width=".3985" transform="matrix(1 0 0 -1 -30.712 59.58)"/><path d="m-1.196 1.592c.1-.595 1.198-1.493 1.494-1.59-.3-.1-1.392-.997-1.496-1.595" style="fill:none;stroke-width:.31879;stroke-linecap:round;stroke-linejoin:round;stroke:#000;stroke-miterlimit:10" transform="matrix(.47548345 -.8796451 -.8796451 -.47548345 77.714242 105.606481)"/><path d="m61.864 8.478 46.118-76.093" fill="none" stroke="#000" stroke-miterlimit="10" stroke-width=".3985" transform="matrix(1 0 0 -1 -30.712 59.58)"/><path d="m-1.195 1.593c.1-.596 1.197-1.493 1.495-1.59-.3-.103-1.396-1-1.494-1.599" style="fill:none;stroke-width:.31879;stroke-linecap:round;stroke-linejoin:round;stroke:#000;stroke-miterlimit:10" transform="matrix(.51828 .85516 .85516 -.51828 77.269 127.195)"/><path d="m63.923-29.545 41.902-39.805" fill="none" stroke="#000" stroke-miterlimit="10" stroke-width=".3985" transform="matrix(1 0 0 -1 -30.712 59.58)"/><path d="m-1.194 1.594c.098-.597 1.194-1.495 1.492-1.594-.298-.1-1.393-.995-1.494-1.592" style="fill:none;stroke-width:.31879;stroke-linecap:round;stroke-linejoin:round;stroke:#000;stroke-miterlimit:10" transform="matrix(.72496 .6887 .6887 -.72496 75.112 128.931)"/><path d="m66.368-64.78 36.899-9.226" fill="none" stroke="#000" stroke-miterlimit="10" stroke-width=".3985" transform="matrix(1 0 0 -1 -30.712 59.58)"/><path d="m-1.196 1.594c.101-.6 1.195-1.494 1.494-1.596-.297-.098-1.395-.993-1.494-1.593" style="fill:none;stroke-width:.31879;stroke-linecap:round;stroke-linejoin:round;stroke:#000;stroke-miterlimit:10" transform="matrix(.97012 .24252 .24252 -.97012 72.555 133.586)"/><path d="m65.79-97.955 38.082 17.137" fill="none" stroke="#000" stroke-miterlimit="10" stroke-width=".3985" transform="matrix(1 0 0 -1 -30.712 59.58)"/><path d="m-1.195 1.594c.1-.598 1.195-1.494 1.493-1.594-.298-.101-1.395-.995-1.493-1.594" style="fill:none;stroke-width:.31879;stroke-linecap:round;stroke-linejoin:round;stroke:#000;stroke-miterlimit:10" transform="matrix(.91188125 -.4103323 -.4103323 -.91188125 73.160199 140.393988)"/><path d="m63.24-134.205 43.3 49.797" fill="none" stroke="#000" stroke-miterlimit="10" stroke-width=".3985" transform="matrix(1 0 0 -1 -30.712 59.58)"/><path d="m-1.195 1.593c.1-.596 1.195-1.492 1.495-1.593-.3-.1-1.396-.997-1.496-1.596" style="fill:none;stroke-width:.31879;stroke-linecap:round;stroke-linejoin:round;stroke:#000;stroke-miterlimit:10" transform="matrix(.65617101 -.75459897 -.75459897 -.65617101 75.82968 143.987909)"/><path d="m60.599 7.83 48.703-114.453" fill="none" stroke="#000" stroke-miterlimit="10" stroke-width=".3985" transform="matrix(1 0 0 -1 -30.712 59.58)"/><path d="m-1.197 1.595c.102-.6 1.198-1.495 1.495-1.596-.297-.098-1.395-.994-1.493-1.593" style="fill:none;stroke-width:.31879;stroke-linecap:round;stroke-linejoin:round;stroke:#000;stroke-miterlimit:10" transform="matrix(.39154 .92014 .92014 -.39154 78.591 166.202)"/><path d="m61.864-31.205 46.118-76.094" fill="none" stroke="#000" stroke-miterlimit="10" stroke-width=".3985" transform="matrix(1 0 0 -1 -30.712 59.58)"/><path d="m-1.196 1.593c.1-.595 1.196-1.492 1.496-1.592-.303-.1-1.396-1-1.497-1.596" style="fill:none;stroke-width:.31879;stroke-linecap:round;stroke-linejoin:round;stroke:#000;stroke-miterlimit:10" transform="matrix(.51828 .85516 .85516 -.51828 77.269 166.88)"/><path d="m63.923-69.233 41.902-39.804" fill="none" stroke="#000" stroke-miterlimit="10" stroke-width=".3985" transform="matrix(1 0 0 -1 -30.712 59.58)"/><path d="m-1.196 1.595c.1-.599 1.194-1.495 1.495-1.595-.299-.1-1.393-.996-1.494-1.593" style="fill:none;stroke-width:.31879;stroke-linecap:round;stroke-linejoin:round;stroke:#000;stroke-miterlimit:10" transform="matrix(.72496 .6887 .6887 -.72496 75.112 168.617)"/><path d="m66.368-104.467 36.899-9.223" fill="none" stroke="#000" stroke-miterlimit="10" stroke-width=".3985" transform="matrix(1 0 0 -1 -30.712 59.58)"/><path d="m-1.196 1.595c.101-.599 1.195-1.497 1.494-1.596-.298-.098-1.394-.996-1.494-1.593" style="fill:none;stroke-width:.31879;stroke-linecap:round;stroke-linejoin:round;stroke:#000;stroke-miterlimit:10" transform="matrix(.97012 .24252 .24252 -.97012 72.555 173.271)"/><path d="m65.79-137.643 38.082 17.141" fill="none" stroke="#000" stroke-miterlimit="10" stroke-width=".3985" transform="matrix(1 0 0 -1 -30.712 59.58)"/><path d="m-1.195 1.596c.098-.601 1.195-1.497 1.492-1.597-.296-.099-1.394-.996-1.492-1.594" style="fill:none;stroke-width:.31879;stroke-linecap:round;stroke-linejoin:round;stroke:#000;stroke-miterlimit:10" transform="matrix(.91188125 -.4103323 -.4103323 -.91188125 73.159962 180.078897)"/><path d="m123.064.416 36.894-9.223" fill="none" stroke="#000" stroke-miterlimit="10" stroke-width=".3985" transform="matrix(1 0 0 -1 -30.712 59.58)"/><path d="m-1.194 1.596c.097-.6 1.194-1.497 1.494-1.596-.301-.099-1.398-.997-1.494-1.593" style="fill:none;stroke-width:.31879;stroke-linecap:round;stroke-linejoin:round;stroke:#000;stroke-miterlimit:10" transform="matrix(.97012 .24252 .24252 -.97012 129.248 68.389)"/><path d="m122.482-32.76 38.085 17.14" fill="none" stroke="#000" stroke-miterlimit="10" stroke-width=".3985" transform="matrix(1 0 0 -1 -30.712 59.58)"/><path d="m-1.193 1.595c.098-.6 1.193-1.497 1.492-1.597-.297-.097-1.395-.995-1.493-1.594" style="fill:none;stroke-width:.31879;stroke-linecap:round;stroke-linejoin:round;stroke:#000;stroke-miterlimit:10" transform="matrix(.91188 -.41034 -.41034 -.91188 129.856 75.2)"/><path d="m119.93-69.01 43.305 49.8" fill="none" stroke="#000" stroke-miterlimit="10" stroke-width=".3985" transform="matrix(1 0 0 -1 -30.712 59.58)"/><path d="m-1.198 1.594c.102-.6 1.198-1.496 1.495-1.594-.298-.098-1.39-.997-1.493-1.593" style="fill:none;stroke-width:.31879;stroke-linecap:round;stroke-linejoin:round;stroke:#000;stroke-miterlimit:10" transform="matrix(.65617 -.7546 -.7546 -.65617 132.524 78.79)"/><path d="m118.13-107.447 46.992 86.933" fill="none" stroke="#000" stroke-miterlimit="10" stroke-width=".3985" transform="matrix(1 0 0 -1 -30.712 59.58)"/><path d="m-1.197 1.594c.1-.598 1.197-1.493 1.496-1.594-.298-.098-1.393-.997-1.496-1.594" style="fill:none;stroke-width:.31879;stroke-linecap:round;stroke-linejoin:round;stroke:#000;stroke-miterlimit:10" transform="matrix(.47548345 -.8796451 -.8796451 -.47548345 134.408071 80.0945)"/><path d="m120.618-4.033 41.899-39.805" fill="none" stroke="#000" stroke-miterlimit="10" stroke-width=".3985" transform="matrix(1 0 0 -1 -30.712 59.58)"/><path d="m-1.196 1.592c.1-.594 1.196-1.493 1.495-1.592-.298-.1-1.396-.997-1.497-1.594" style="fill:none;stroke-width:.31879;stroke-linecap:round;stroke-linejoin:round;stroke:#000;stroke-miterlimit:10" transform="matrix(.72496 .6887 .6887 -.72496 131.806 103.42)"/><path d="m123.064-39.268 36.894-9.226" fill="none" stroke="#000" stroke-miterlimit="10" stroke-width=".3985" transform="matrix(1 0 0 -1 -30.712 59.58)"/><path d="m-1.194 1.594c.097-.596 1.195-1.494 1.494-1.592-.3-.102-1.398-.997-1.494-1.597" style="fill:none;stroke-width:.31879;stroke-linecap:round;stroke-linejoin:round;stroke:#000;stroke-miterlimit:10" transform="matrix(.97012 .24252 .24252 -.97012 129.248 108.074)"/><path d="m122.482-72.443 38.085 17.14" fill="none" stroke="#000" stroke-miterlimit="10" stroke-width=".3985" transform="matrix(1 0 0 -1 -30.712 59.58)"/><path d="m-1.194 1.593c.1-.597 1.194-1.493 1.493-1.593-.298-.1-1.395-.996-1.492-1.594" style="fill:none;stroke-width:.31879;stroke-linecap:round;stroke-linejoin:round;stroke:#000;stroke-miterlimit:10" transform="matrix(.91188125 -.4103323 -.4103323 -.91188125 129.852972 114.88296)"/><path d="m119.93-108.693 43.305 49.796" fill="none" stroke="#000" stroke-miterlimit="10" stroke-width=".3985" transform="matrix(1 0 0 -1 -30.712 59.58)"/><path d="m-1.196 1.595c.102-.6 1.196-1.495 1.494-1.594-.3-.1-1.393-.999-1.496-1.595" style="fill:none;stroke-width:.31879;stroke-linecap:round;stroke-linejoin:round;stroke:#000;stroke-miterlimit:10" transform="matrix(.65617101 -.75459897 -.75459897 -.65617101 132.524155 118.475976)"/><path d="m118.556-5.693 46.117-76.094" fill="none" stroke="#000" stroke-miterlimit="10" stroke-width=".3985" transform="matrix(1 0 0 -1 -30.712 59.58)"/><path d="m-1.195 1.595c.099-.598 1.195-1.495 1.495-1.595-.302-.1-1.394-.996-1.495-1.593" style="fill:none;stroke-width:.31879;stroke-linecap:round;stroke-linejoin:round;stroke:#000;stroke-miterlimit:10" transform="matrix(.51828 .85516 .85516 -.51828 133.962 141.368)"/><path d="m120.618-43.72 41.899-39.805" fill="none" stroke="#000" stroke-miterlimit="10" stroke-width=".3985" transform="matrix(1 0 0 -1 -30.712 59.58)"/><path d="m-1.197 1.593c.103-.597 1.197-1.492 1.495-1.591-.298-.1-1.396-.998-1.494-1.598" style="fill:none;stroke-width:.31879;stroke-linecap:round;stroke-linejoin:round;stroke:#000;stroke-miterlimit:10" transform="matrix(.72496 .6887 .6887 -.72496 131.806 143.105)"/><path d="m123.064-78.955 36.894-9.223" fill="none" stroke="#000" stroke-miterlimit="10" stroke-width=".3985" transform="matrix(1 0 0 -1 -30.712 59.58)"/><path d="m-1.194 1.596c.097-.6 1.196-1.497 1.494-1.596-.301-.1-1.397-.998-1.494-1.593" style="fill:none;stroke-width:.31879;stroke-linecap:round;stroke-linejoin:round;stroke:#000;stroke-miterlimit:10" transform="matrix(.97012 .24252 .24252 -.97012 129.248 147.76)"/><path d="m122.482-112.13 38.085 17.14" fill="none" stroke="#000" stroke-miterlimit="10" stroke-width=".3985" transform="matrix(1 0 0 -1 -30.712 59.58)"/><path d="m-1.194 1.595c.1-.598 1.195-1.497 1.492-1.597-.296-.098-1.394-.996-1.492-1.594" style="fill:none;stroke-width:.31879;stroke-linecap:round;stroke-linejoin:round;stroke:#000;stroke-miterlimit:10" transform="matrix(.91188125 -.4103323 -.4103323 -.91188125 129.853057 154.567371)"/><path d="m377.087-11.338a8.577 8.577 0 0 1 -8.578 8.578 8.577 8.577 0 0 1 -8.578-8.578 8.577 8.577 0 0 1 8.578-8.578 8.577 8.577 0 0 1 8.578 8.578zm0-39.687c0 4.738-3.84 8.582-8.578 8.582s-8.578-3.844-8.578-8.582a8.577 8.577 0 0 1 8.578-8.579 8.577 8.577 0 0 1 8.578 8.579zm0-39.685a8.577 8.577 0 0 1 -8.578 8.58 8.577 8.577 0 0 1 -8.578-8.58 8.577 8.577 0 0 1 8.578-8.577 8.577 8.577 0 0 1 8.578 8.578zm56.695 93.544c0 4.738-3.843 8.578-8.582 8.578a8.58 8.58 0 0 1 -8.578-8.578 8.58 8.58 0 0 1 8.578-8.578c4.739 0 8.582 3.84 8.582 8.578zm0-39.684c0 4.739-3.843 8.578-8.582 8.578a8.58 8.58 0 0 1 -8.578-8.578 8.58 8.58 0 0 1 8.578-8.578c4.739 0 8.582 3.84 8.582 8.578zm0-39.687a8.584 8.584 0 0 1 -8.582 8.582 8.58 8.58 0 0 1 0-17.16c4.739 0 8.582 3.84 8.582 8.578zm0-39.683c0 4.737-3.843 8.577-8.582 8.577a8.58 8.58 0 0 1 -8.578-8.578 8.58 8.58 0 0 1 8.578-8.578c4.739 0 8.582 3.84 8.582 8.578zm56.692 133.23a8.577 8.577 0 0 1 -8.578 8.578 8.577 8.577 0 0 1 -8.579-8.578 8.58 8.58 0 0 1 8.579-8.582c4.738 0 8.578 3.843 8.578 8.582zm0-39.688a8.577 8.577 0 0 1 -8.578 8.578 8.577 8.577 0 0 1 -8.579-8.578 8.577 8.577 0 0 1 8.579-8.578 8.577 8.577 0 0 1 8.578 8.578zm0-39.683a8.577 8.577 0 0 1 -8.578 8.578 8.577 8.577 0 0 1 -8.579-8.578 8.58 8.58 0 0 1 8.579-8.582c4.738 0 8.578 3.843 8.578 8.582zm0-39.688c0 4.738-3.84 8.582-8.578 8.582-4.739 0-8.579-3.844-8.579-8.582a8.577 8.577 0 0 1 8.579-8.578 8.577 8.577 0 0 1 8.578 8.578zm0 0" fill="none" stroke="#000" stroke-miterlimit="10" stroke-width=".79701" transform="matrix(1 0 0 -1 -30.712 59.58)"/><g clip-path="url(#v)"><path d="m490.474-141.732a8.577 8.577 0 0 1 -8.578 8.578 8.577 8.577 0 0 1 -8.579-8.578 8.577 8.577 0 0 1 8.579-8.579 8.577 8.577 0 0 1 8.578 8.579zm0 0" fill="none" stroke="#000" stroke-miterlimit="10" stroke-width=".79701" transform="matrix(1 0 0 -1 -30.712 59.58)"/></g><g stroke="#000" stroke-miterlimit="10"><path d="m378.185-8.92 36.898 9.227" fill="none" stroke-width=".3985" transform="matrix(1 0 0 -1 -30.712 59.58)"/><path d="m-1.195 1.593c.1-.597 1.195-1.495 1.494-1.594-.299-.098-1.397-.995-1.494-1.595" fill="none" stroke-linecap="round" stroke-linejoin="round" stroke-width=".31879" transform="matrix(.97012 -.24252 -.24252 -.97012 384.37 59.275)"/><path d="m375.74-44.154 41.897 39.804" fill="none" stroke-width=".3985" transform="matrix(1 0 0 -1 -30.712 59.58)"/><path d="m-1.197 1.595c.101-.597 1.197-1.497 1.497-1.595-.3-.1-1.394-.997-1.498-1.594" fill="none" stroke-linecap="round" stroke-linejoin="round" stroke-width=".31879" transform="matrix(.72496 -.6887 -.6887 -.72496 386.927 63.93)"/><path d="m373.677-82.182 46.12 76.094" fill="none" stroke-width=".3985" transform="matrix(1 0 0 -1 -30.712 59.58)"/><path d="m-1.196 1.593c.101-.596 1.198-1.493 1.495-1.592-.3-.1-1.396-.997-1.495-1.596" fill="none" stroke-linecap="round" stroke-linejoin="round" stroke-width=".31879" transform="matrix(.51827497 -.85516727 -.85516727 -.51827497 389.088236 65.665068)"/><path d="m377.603-15.432 38.086-17.136" fill="none" stroke-width=".3985" transform="matrix(1 0 0 -1 -30.712 59.58)"/><path d="m-1.197 1.592c.102-.597 1.198-1.491 1.497-1.593-.298-.099-1.394-.995-1.494-1.593" fill="none" stroke-linecap="round" stroke-linejoin="round" stroke-width=".31879" transform="matrix(.91188 .41034 .41034 -.91188 384.977 92.15)"/><path d="m378.185-48.604 36.898 9.223" fill="none" stroke-width=".3985" transform="matrix(1 0 0 -1 -30.712 59.58)"/><path d="m-1.195 1.595c.1-.597 1.197-1.495 1.495-1.595-.3-.1-1.397-.995-1.495-1.594" fill="none" stroke-linecap="round" stroke-linejoin="round" stroke-width=".31879" transform="matrix(.97011443 -.24252423 -.24252423 -.97011443 384.377114 98.961307)"/><path d="m375.74-83.842 41.898 39.809" fill="none" stroke-width=".3985" transform="matrix(1 0 0 -1 -30.712 59.58)"/><path d="m-1.196 1.596c.099-.6 1.197-1.496 1.496-1.596-.3-.101-1.396-1-1.497-1.593" fill="none" stroke-linecap="round" stroke-linejoin="round" stroke-width=".31879" transform="matrix(.72495833 -.68870562 -.68870562 -.72495833 386.930695 103.615585)"/><path d="m375.052-18.865 43.305-49.797" fill="none" stroke-width=".3985" transform="matrix(1 0 0 -1 -30.712 59.58)"/><path d="m-1.195 1.593c.097-.597 1.195-1.495 1.493-1.594-.298-.098-1.393-.994-1.495-1.593" fill="none" stroke-linecap="round" stroke-linejoin="round" stroke-width=".31879" transform="matrix(.65617 .7546 .7546 -.65617 387.645 128.244)"/><path d="m377.603-55.115 38.086-17.14" fill="none" stroke-width=".3985" transform="matrix(1 0 0 -1 -30.712 59.58)"/><path d="m-1.197 1.594c.101-.597 1.2-1.495 1.496-1.594-.298-.1-1.394-.995-1.494-1.592" fill="none" stroke-linecap="round" stroke-linejoin="round" stroke-width=".31879" transform="matrix(.91188 .41034 .41034 -.91188 384.977 131.835)"/><path d="m378.185-88.291 36.898 9.226" fill="none" stroke-width=".3985" transform="matrix(1 0 0 -1 -30.712 59.58)"/><path d="m-1.195 1.593c.1-.597 1.195-1.495 1.494-1.594-.299-.099-1.397-.996-1.493-1.592" fill="none" stroke-linecap="round" stroke-linejoin="round" stroke-width=".31879" transform="matrix(.97011443 -.24252423 -.24252423 -.97011443 384.377245 138.647182)"/><path d="m373.251-20.111 46.992-86.934" fill="none" stroke-width=".3985" transform="matrix(1 0 0 -1 -30.712 59.58)"/><path d="m-1.195 1.593c.1-.596 1.195-1.493 1.493-1.593-.299-.1-1.395-.995-1.493-1.595" fill="none" stroke-linecap="round" stroke-linejoin="round" stroke-width=".31879" transform="matrix(.47548 .87965 .87965 -.47548 389.53 166.625)"/><path d="m375.052-58.549 43.305-49.8" fill="none" stroke-width=".3985" transform="matrix(1 0 0 -1 -30.712 59.58)"/><path d="m-1.196 1.594c.1-.6 1.195-1.495 1.495-1.596-.297-.098-1.395-.992-1.494-1.594" fill="none" stroke-linecap="round" stroke-linejoin="round" stroke-width=".31879" transform="matrix(.65617 .7546 .7546 -.65617 387.645 167.929)"/><path d="m377.603-94.803 38.086-17.137" fill="none" stroke-width=".3985" transform="matrix(1 0 0 -1 -30.712 59.58)"/><path d="m-1.197 1.592c.102-.597 1.198-1.491 1.497-1.592-.298-.1-1.394-.996-1.494-1.594" fill="none" stroke-linecap="round" stroke-linejoin="round" stroke-width=".31879" transform="matrix(.91188 .41034 .41034 -.91188 384.977 171.521)"/><path d="m434.876 5.252 36.899 9.226" fill="none" stroke-width=".3985" transform="matrix(1 0 0 -1 -30.712 59.58)"/><path d="m-1.196 1.596c.1-.601 1.196-1.496 1.494-1.594-.3-.102-1.393-.997-1.494-1.595" fill="none" stroke-linecap="round" stroke-linejoin="round" stroke-width=".31879" transform="matrix(.97011443 -.24252423 -.24252423 -.97011443 441.071004 45.101267)"/><path d="m432.435-29.983 41.898 39.805" fill="none" stroke-width=".3985" transform="matrix(1 0 0 -1 -30.712 59.58)"/><path d="m-1.197 1.593c.101-.597 1.197-1.492 1.494-1.592-.295-.102-1.394-.997-1.492-1.594" fill="none" stroke-linecap="round" stroke-linejoin="round" stroke-width=".31879" transform="matrix(.72496 -.6887 -.6887 -.72496 443.621 49.756)"/><path d="m430.372-68.006 46.118 76.094" fill="none" stroke-width=".3985" transform="matrix(1 0 0 -1 -30.712 59.58)"/><path d="m-1.195 1.596c.098-.599 1.195-1.496 1.495-1.598-.298-.098-1.394-.995-1.495-1.59" fill="none" stroke-linecap="round" stroke-linejoin="round" stroke-width=".31879" transform="matrix(.51827497 -.85516727 -.85516727 -.51827497 445.781911 51.49169)"/><path d="m429.107-107.045 48.703 114.453" fill="none" stroke-width=".3985" transform="matrix(1 0 0 -1 -30.712 59.58)"/><path d="m-1.197 1.593c.101-.597 1.196-1.493 1.496-1.591-.299-.103-1.396-.998-1.494-1.596" fill="none" stroke-linecap="round" stroke-linejoin="round" stroke-width=".31879" transform="matrix(.3915425 -.92013829 -.92013829 -.3915425 447.097593 52.17089)"/><path d="m434.298-1.256 38.086-17.14" fill="none" stroke-width=".3985" transform="matrix(1 0 0 -1 -30.712 59.58)"/><path d="m-1.196 1.595c.101-.597 1.196-1.497 1.496-1.593-.301-.101-1.398-.997-1.497-1.595" fill="none" stroke-linecap="round" stroke-linejoin="round" stroke-width=".31879" transform="matrix(.91188 .41034 .41034 -.91188 441.671 77.976)"/><path d="m434.876-34.432 36.899 9.227" fill="none" stroke-width=".3985" transform="matrix(1 0 0 -1 -30.712 59.58)"/><path d="m-1.197 1.594c.1-.597 1.197-1.495 1.494-1.594-.297-.099-1.392-.997-1.494-1.595" fill="none" stroke-linecap="round" stroke-linejoin="round" stroke-width=".31879" transform="matrix(.97011443 -.24252423 -.24252423 -.97011443 441.071165 84.787384)"/><path d="m432.435-69.666 41.898 39.805" fill="none" stroke-width=".3985" transform="matrix(1 0 0 -1 -30.712 59.58)"/><path d="m-1.196 1.594c.101-.597 1.194-1.494 1.496-1.592-.3-.104-1.396-.997-1.497-1.597" fill="none" stroke-linecap="round" stroke-linejoin="round" stroke-width=".31879" transform="matrix(.72495833 -.68870562 -.68870562 -.72495833 443.624595 89.441719)"/><path d="m430.372-107.693 46.118 76.093" fill="none" stroke-width=".3985" transform="matrix(1 0 0 -1 -30.712 59.58)"/><path d="m-1.197 1.595c.101-.597 1.198-1.495 1.497-1.596-.3-.1-1.396-.997-1.497-1.592" fill="none" stroke-linecap="round" stroke-linejoin="round" stroke-width=".31879" transform="matrix(.51827497 -.85516727 -.85516727 -.51827497 445.78259 91.177309)"/><path d="m431.747-4.69 43.305-49.8" fill="none" stroke-width=".3985" transform="matrix(1 0 0 -1 -30.712 59.58)"/><path d="m-1.196 1.595c.1-.6 1.195-1.495 1.496-1.595-.298-.099-1.396-.998-1.495-1.594" fill="none" stroke-linecap="round" stroke-linejoin="round" stroke-width=".31879" transform="matrix(.65617 .7546 .7546 -.65617 444.339 114.07)"/><path d="m434.298-40.943 38.086-17.137" fill="none" stroke-width=".3985" transform="matrix(1 0 0 -1 -30.712 59.58)"/><path d="m-1.196 1.593c.102-.597 1.196-1.493 1.497-1.593-.302-.1-1.398-.997-1.497-1.595" fill="none" stroke-linecap="round" stroke-linejoin="round" stroke-width=".31879" transform="matrix(.91188 .41034 .41034 -.91188 441.671 117.662)"/><path d="m434.876-74.115 36.899 9.222" fill="none" stroke-width=".3985" transform="matrix(1 0 0 -1 -30.712 59.58)"/><path d="m-1.196 1.595c.1-.6 1.196-1.495 1.494-1.593-.3-.103-1.393-.997-1.494-1.596" fill="none" stroke-linecap="round" stroke-linejoin="round" stroke-width=".31879" transform="matrix(.97011443 -.24252423 -.24252423 -.97011443 441.071054 124.473288)"/><path d="m432.435-109.354 41.898 39.805" fill="none" stroke-width=".3985" transform="matrix(1 0 0 -1 -30.712 59.58)"/><path d="m-1.194 1.596c.098-.6 1.193-1.496 1.491-1.596-.296-.101-1.395-.997-1.493-1.593" fill="none" stroke-linecap="round" stroke-linejoin="round" stroke-width=".31879" transform="matrix(.72495833 -.68870562 -.68870562 -.72495833 443.625198 129.126849)"/><path d="m429.946-5.94 46.989-86.933" fill="none" stroke-width=".3985" transform="matrix(1 0 0 -1 -30.712 59.58)"/><path d="m-1.196 1.595c.098-.599 1.195-1.494 1.496-1.594-.299-.101-1.395-.996-1.496-1.594" fill="none" stroke-linecap="round" stroke-linejoin="round" stroke-width=".31879" transform="matrix(.47548 .87965 .87965 -.47548 446.224 152.451)"/><path d="m431.747-44.377 43.305-49.8" fill="none" stroke-width=".3985" transform="matrix(1 0 0 -1 -30.712 59.58)"/><path d="m-1.195 1.594c.097-.597 1.196-1.495 1.493-1.594-.297-.098-1.395-.997-1.494-1.593" fill="none" stroke-linecap="round" stroke-linejoin="round" stroke-width=".31879" transform="matrix(.65617 .7546 .7546 -.65617 444.339 153.756)"/><path d="m434.298-80.627 38.086-17.14" fill="none" stroke-width=".3985" transform="matrix(1 0 0 -1 -30.712 59.58)"/><path d="m-1.196 1.594c.101-.597 1.196-1.496 1.496-1.592-.3-.102-1.397-.998-1.497-1.595" fill="none" stroke-linecap="round" stroke-linejoin="round" stroke-width=".31879" transform="matrix(.91188 .41034 .41034 -.91188 441.671 157.347)"/><path d="m434.876-113.803 36.899 9.227" fill="none" stroke-width=".3985" transform="matrix(1 0 0 -1 -30.712 59.58)"/><path d="m-1.197 1.593c.1-.596 1.197-1.495 1.494-1.593-.297-.1-1.392-.997-1.494-1.596" fill="none" stroke-linecap="round" stroke-linejoin="round" stroke-width=".31879" transform="matrix(.97011443 -.24252423 -.24252423 -.97011443 441.071244 164.159647)"/><path d="m428.845-6.451 49.242-125.57" fill="none" stroke-width=".3985" transform="matrix(1 0 0 -1 -30.712 59.58)"/><path d="m-1.197 1.593c.101-.598 1.198-1.494 1.494-1.593-.297-.097-1.394-.998-1.493-1.592" fill="none" stroke-linecap="round" stroke-linejoin="round" stroke-width=".31879" transform="matrix(.36506612 .93091715 .93091715 -.36506612 447.374874 191.602254)"/><path d="m429.946-45.623 46.989-86.934" fill="none" stroke-width=".3985" transform="matrix(1 0 0 -1 -30.712 59.58)"/><path d="m-1.195 1.594c.098-.599 1.196-1.494 1.493-1.592-.298-.1-1.392-.998-1.493-1.596" fill="none" stroke-linecap="round" stroke-linejoin="round" stroke-width=".31879" transform="matrix(.47548345 .8796451 .8796451 -.47548345 446.221452 192.134659)"/><path d="m431.747-84.06 43.305-49.801" fill="none" stroke-width=".3985" transform="matrix(1 0 0 -1 -30.712 59.58)"/><path d="m-1.196 1.595c.1-.6 1.196-1.495 1.496-1.596-.298-.098-1.395-.997-1.495-1.594" fill="none" stroke-linecap="round" stroke-linejoin="round" stroke-width=".31879" transform="matrix(.65617 .7546 .7546 -.65617 444.339 193.441)"/><path d="m434.298-120.315 38.086-17.136" fill="none" stroke-width=".3985" transform="matrix(1 0 0 -1 -30.712 59.58)"/><path d="m-1.196 1.593c.102-.597 1.196-1.493 1.497-1.593-.302-.1-1.398-.997-1.497-1.595" fill="none" stroke-linecap="round" stroke-linejoin="round" stroke-width=".31879" transform="matrix(.91188 .41034 .41034 -.91188 441.671 197.033)"/><path d="m253.31-22.678a8.577 8.577 0 0 1 -8.578 8.578 8.578 8.578 0 1 1 0-17.156 8.577 8.577 0 0 1 8.578 8.578zm0 0" fill="#fff200" fill-opacity=".2" stroke-width=".79701" transform="matrix(1 0 0 -1 -30.712 59.58)"/><path d="m253.31-79.37a8.577 8.577 0 0 1 -8.578 8.579 8.578 8.578 0 0 1 -8.583-8.578 8.581 8.581 0 0 1 8.583-8.582c4.738 0 8.578 3.843 8.578 8.582zm0 0" fill="#00f" fill-opacity=".1" stroke-width=".79701" transform="matrix(1 0 0 -1 -30.712 59.58)"/><path d="m310.001-79.37a8.577 8.577 0 0 1 -8.578 8.579 8.577 8.577 0 0 1 -8.578-8.578c0-4.739 3.84-8.582 8.578-8.582s8.578 3.843 8.578 8.582zm0 0" fill="#0f0" fill-opacity=".1" stroke-width=".79701" transform="matrix(1 0 0 -1 -30.712 59.58)"/><path d="m253.31 5.67a8.577 8.577 0 0 1 -8.578 8.578 8.578 8.578 0 1 1 0-17.156 8.577 8.577 0 0 1 8.578 8.578zm0 0" fill="#fff200" fill-opacity=".2" stroke-width=".79701" transform="matrix(1 0 0 -1 -30.712 59.58)"/><path d="m253.31-107.717a8.577 8.577 0 0 1 -8.578 8.578 8.578 8.578 0 0 1 -8.583-8.578 8.581 8.581 0 0 1 8.583-8.582c4.738 0 8.578 3.844 8.578 8.582zm0 0" fill="#00f" fill-opacity=".1" stroke-width=".79701" transform="matrix(1 0 0 -1 -30.712 59.58)"/><path d="m310.001-51.025c0 4.738-3.84 8.582-8.578 8.582s-8.578-3.844-8.578-8.582a8.577 8.577 0 0 1 8.578-8.579 8.577 8.577 0 0 1 8.577 8.579zm0 0" fill="#0f0" fill-opacity=".1" stroke-width=".79701" transform="matrix(1 0 0 -1 -30.712 59.58)"/><path d="m253.31 34.017a8.577 8.577 0 0 1 -8.578 8.579 8.578 8.578 0 1 1 0-17.157 8.577 8.577 0 0 1 8.578 8.578zm0 0" fill="#fff200" fill-opacity=".2" stroke-width=".79701" transform="matrix(1 0 0 -1 -30.712 59.58)"/></g><path d="m222.598 195.645a8.577 8.577 0 0 0 -8.578-8.579 8.578 8.578 0 1 0 0 17.157 8.577 8.577 0 0 0 8.578-8.578zm0 0" fill="#00f" fill-opacity=".1"/><g clip-path="url(#w)"><path d="m253.31-136.065a8.577 8.577 0 0 1 -8.578 8.579 8.578 8.578 0 1 1 0-17.157 8.577 8.577 0 0 1 8.578 8.578zm0 0" fill="none" stroke="#000" stroke-miterlimit="10" stroke-width=".79701" transform="matrix(1 0 0 -1 -30.712 59.58)"/></g><path d="m310.001-22.678a8.577 8.577 0 0 1 -8.578 8.578 8.577 8.577 0 0 1 -8.578-8.578 8.577 8.577 0 0 1 8.578-8.578 8.577 8.577 0 0 1 8.577 8.578zm0 0" fill="#0f0" fill-opacity=".1" stroke="#000" stroke-miterlimit="10" stroke-width=".79701" transform="matrix(1 0 0 -1 -30.712 59.58)"/><path d="m232.43-34.975h24.598v81.29h-24.597zm0 0" style="fill:#fff200;fill-opacity:.45;stroke-width:.3985;stroke:#000;stroke-opacity:.45;stroke-miterlimit:10" transform="matrix(1 0 0 -1 -30.712 59.58)"/><use x="211.013" xlink:href="#a" y="7.61"/><path d="m232.43-148.361h24.598v81.289h-24.597zm0 0" style="fill:#00f;fill-opacity:.3;stroke-width:.3985;stroke:#000;stroke-opacity:.3;stroke-miterlimit:10" transform="matrix(1 0 0 -1 -30.712 59.58)"/><use x="210.989" xlink:href="#b" y="122.933"/><path d="m289.126-91.67h24.594v81.29h-24.594zm0 0" style="fill:#0f0;fill-opacity:.3;stroke-width:.3985;stroke:#000;stroke-opacity:.3;stroke-miterlimit:10" transform="matrix(1 0 0 -1 -30.712 59.58)"/><g><use x="255.736" xlink:href="#d" y="64.303"/><use x="259.665" xlink:href="#e" y="64.303"/><use x="264.647" xlink:href="#f" y="64.303"/><use x="272.948" xlink:href="#g" y="64.303"/><use x="278.484" xlink:href="#h" y="64.303"/><use x="281.251" xlink:href="#i" y="64.303"/></g><path d="m257.712-106.85 30.504 54.555" fill="none" stroke="#000" stroke-miterlimit="10" stroke-width=".3985" transform="matrix(1 0 0 -1 -30.712 59.58)"/><path d="m-1.196 1.592c.101-.597 1.197-1.493 1.494-1.592-.298-.1-1.394-.997-1.494-1.595" style="fill:none;stroke-width:.31879;stroke-linecap:round;stroke-linejoin:round;stroke:#000;stroke-miterlimit:10" transform="matrix(.488 -.87279 -.87279 -.488 257.504 111.873)"/><path d="m257.712 4.799 30.504-54.555" fill="none" stroke="#000" stroke-miterlimit="10" stroke-width=".3985" transform="matrix(1 0 0 -1 -30.712 59.58)"/><path d="m-1.196 1.595c.1-.597 1.195-1.495 1.493-1.595-.297-.1-1.393-.994-1.49-1.593" style="fill:none;stroke-width:.31879;stroke-linecap:round;stroke-linejoin:round;stroke:#000;stroke-miterlimit:10" transform="matrix(.488 .87279 .87279 -.488 257.504 109.334)"/><path d="m179.942-12.838 54.473-8.273" fill="none" stroke="#000" stroke-miterlimit="10" stroke-width=".3985" transform="matrix(1 0 0 -1 -30.712 59.58)"/><path d="m-1.196 1.596c.1-.602 1.196-1.498 1.496-1.596-.3-.1-1.393-.998-1.496-1.594" style="fill:none;stroke-width:.31879;stroke-linecap:round;stroke-linejoin:round;stroke:#000;stroke-miterlimit:10" transform="matrix(.9886 .15016 .15016 -.9886 203.704 80.69)"/><path d="m177.45-18.057 59.57-54.289" fill="none" stroke="#000" stroke-miterlimit="10" stroke-width=".3985" transform="matrix(1 0 0 -1 -30.712 59.58)"/><path d="m-1.194 1.595c.097-.6 1.195-1.496 1.491-1.596-.297-.096-1.392-.994-1.492-1.592" style="fill:none;stroke-width:.31879;stroke-linecap:round;stroke-linejoin:round;stroke:#000;stroke-miterlimit:10" transform="matrix(.73906 .67355 .67355 -.73906 206.308 131.924)"/><path d="m308.427-72.268 52.758 53.5" fill="none" stroke="#000" stroke-miterlimit="10" stroke-width=".3985" transform="matrix(1 0 0 -1 -30.712 59.58)"/><path d="m-1.197 1.595c.101-.597 1.197-1.497 1.498-1.595-.302-.1-1.397-.993-1.495-1.594" style="fill:none;stroke-width:.31879;stroke-linecap:round;stroke-linejoin:round;stroke:#000;stroke-miterlimit:10" transform="matrix(.70209 -.712 -.712 -.70209 330.472 78.346)"/><path d="m179.806-9.123 54.754 12.476" fill="none" stroke="#000" stroke-miterlimit="10" stroke-width=".3985" transform="matrix(1 0 0 -1 -30.712 59.58)"/><path d="m-1.194 1.595c.1-.6 1.194-1.494 1.491-1.594-.299-.1-1.393-.997-1.493-1.595" style="fill:none;stroke-width:.31879;stroke-linecap:round;stroke-linejoin:round;stroke:#000;stroke-miterlimit:10" transform="matrix(.97495921 -.2221138 -.2221138 -.97495921 203.841033 56.226421)"/><path d="m176.189-19.225 62.151-80.245" fill="none" stroke="#000" stroke-miterlimit="10" stroke-width=".3985" transform="matrix(1 0 0 -1 -30.712 59.58)"/><path d="m-1.197 1.593c.101-.597 1.195-1.494 1.494-1.593-.296-.101-1.393-.995-1.493-1.595" style="fill:none;stroke-width:.31879;stroke-linecap:round;stroke-linejoin:round;stroke:#000;stroke-miterlimit:10" transform="matrix(.61232 .79056 .79056 -.61232 207.63 159.05)"/><path d="m310.61-75.49 48.29 20.406" fill="none" stroke="#000" stroke-miterlimit="10" stroke-width=".3985" transform="matrix(1 0 0 -1 -30.712 59.58)"/><path d="m-1.197 1.596c.1-.598 1.197-1.498 1.498-1.596-.301-.098-1.397-.996-1.497-1.594" style="fill:none;stroke-width:.31879;stroke-linecap:round;stroke-linejoin:round;stroke:#000;stroke-miterlimit:10" transform="matrix(.92110781 -.38920485 -.38920485 -.92110781 328.192567 114.66483)"/><path d="m178.603-6.158 57.21 34.758" fill="none" stroke="#000" stroke-miterlimit="10" stroke-width=".3985" transform="matrix(1 0 0 -1 -30.712 59.58)"/><path d="m-1.194 1.594c.097-.6 1.194-1.494 1.491-1.594-.299-.1-1.391-.995-1.493-1.59" style="fill:none;stroke-width:.31879;stroke-linecap:round;stroke-linejoin:round;stroke:#000;stroke-miterlimit:10" transform="matrix(.85456166 -.51923441 -.51923441 -.85456166 205.104125 30.979586)"/><path d="m175.204-19.897 64.168-107.214" fill="none" stroke="#000" stroke-miterlimit="10" stroke-width=".3985" transform="matrix(1 0 0 -1 -30.712 59.58)"/><path d="m-1.196 1.595c.102-.598 1.195-1.495 1.494-1.596-.296-.099-1.393-.996-1.494-1.591" style="fill:none;stroke-width:.31879;stroke-linecap:round;stroke-linejoin:round;stroke:#000;stroke-miterlimit:10" transform="matrix(.51353 .85803 .85803 -.51353 208.66 186.693)"/><path d="m311.259-81.033 46.965-7.938" fill="none" stroke="#000" stroke-miterlimit="10" stroke-width=".3985" transform="matrix(1 0 0 -1 -30.712 59.58)"/><path d="m-1.196 1.593c.101-.597 1.196-1.494 1.494-1.594-.296-.098-1.393-.996-1.494-1.592" style="fill:none;stroke-width:.31879;stroke-linecap:round;stroke-linejoin:round;stroke:#000;stroke-miterlimit:10" transform="matrix(.98596 .16663 .16663 -.98596 327.511 148.551)"/><path d="m179.403-47.483 55.575 21.102" fill="none" stroke="#000" stroke-miterlimit="10" stroke-width=".3985" transform="matrix(1 0 0 -1 -30.712 59.58)"/><path d="m-1.195 1.594c.099-.598 1.195-1.495 1.492-1.595-.297-.099-1.394-.996-1.491-1.594" style="fill:none;stroke-width:.31879;stroke-linecap:round;stroke-linejoin:round;stroke:#000;stroke-miterlimit:10" transform="matrix(.93479742 -.35498422 -.35498422 -.93479742 204.266513 85.960922)"/><path d="m179.403-54.565 55.575-21.101" fill="none" stroke="#000" stroke-miterlimit="10" stroke-width=".3985" transform="matrix(1 0 0 -1 -30.712 59.58)"/><path d="m-1.194 1.595c.097-.598 1.194-1.497 1.492-1.597-.297-.098-1.394-.994-1.493-1.591" style="fill:none;stroke-width:.31879;stroke-linecap:round;stroke-linejoin:round;stroke:#000;stroke-miterlimit:10" transform="matrix(.93481 .35498 .35498 -.93481 204.265 135.248)"/><path d="m310.009-45.947 49.523 29.297" fill="none" stroke="#000" stroke-miterlimit="10" stroke-width=".3985" transform="matrix(1 0 0 -1 -30.712 59.58)"/><path d="m-1.193 1.595c.096-.597 1.194-1.496 1.493-1.596-.3-.1-1.396-.995-1.496-1.594" style="fill:none;stroke-width:.31879;stroke-linecap:round;stroke-linejoin:round;stroke:#000;stroke-miterlimit:10" transform="matrix(.86062819 -.50911602 -.50911602 -.86062819 328.816407 76.229469)"/><path d="m178.024-44.99 58.399 44.35" fill="none" stroke="#000" stroke-miterlimit="10" stroke-width=".3985" transform="matrix(1 0 0 -1 -30.712 59.58)"/><path d="m-1.195 1.596c.098-.6 1.194-1.496 1.495-1.597-.302-.1-1.395-.996-1.494-1.593" style="fill:none;stroke-width:.31879;stroke-linecap:round;stroke-linejoin:round;stroke:#000;stroke-miterlimit:10" transform="matrix(.79634 -.6048 -.6048 -.79634 205.71 60.22)"/><path d="m178.024-57.057 58.399-44.351" fill="none" stroke="#000" stroke-miterlimit="10" stroke-width=".3985" transform="matrix(1 0 0 -1 -30.712 59.58)"/><path d="m-1.195 1.594c.1-.596 1.195-1.496 1.495-1.593-.3-.1-1.396-.996-1.495-1.596" style="fill:none;stroke-width:.31879;stroke-linecap:round;stroke-linejoin:round;stroke:#000;stroke-miterlimit:10" transform="matrix(.79634 .6048 .6048 -.79634 205.71 160.988)"/><path d="m311.396-51.025h46.68" fill="none" stroke="#000" stroke-miterlimit="10" stroke-width=".3985" transform="matrix(1 0 0 -1 -30.712 59.58)"/><path d="m-1.197 1.592c.102-.597 1.195-1.492 1.496-1.594-.299-.097-1.394-.996-1.496-1.593" style="fill:none;stroke-width:.31879;stroke-linecap:round;stroke-linejoin:round;stroke:#000;stroke-miterlimit:10" transform="matrix(1 0 0 -1 327.365 110.604)"/><path d="m176.661-43.53 61.188 69.708" fill="none" stroke="#000" stroke-miterlimit="10" stroke-width=".3985" transform="matrix(1 0 0 -1 -30.712 59.58)"/><path d="m-1.196 1.595c.1-.599 1.198-1.495 1.493-1.595-.297-.1-1.393-.994-1.49-1.594" style="fill:none;stroke-width:.31879;stroke-linecap:round;stroke-linejoin:round;stroke:#000;stroke-miterlimit:10" transform="matrix(.65966713 -.75151798 -.75151798 -.65966713 207.13852 33.403245)"/><path d="m176.661-58.518 61.188-69.707" fill="none" stroke="#000" stroke-miterlimit="10" stroke-width=".3985" transform="matrix(1 0 0 -1 -30.712 59.58)"/><path d="m-1.194 1.595c.097-.6 1.193-1.495 1.493-1.597-.298-.097-1.397-.993-1.496-1.592" style="fill:none;stroke-width:.31879;stroke-linecap:round;stroke-linejoin:round;stroke:#000;stroke-miterlimit:10" transform="matrix(.65967 .75151 .75151 -.65967 207.136 187.805)"/><path d="m310.009-56.104 49.523-29.293" fill="none" stroke="#000" stroke-miterlimit="10" stroke-width=".3985" transform="matrix(1 0 0 -1 -30.712 59.58)"/><path d="m-1.196 1.595c.1-.599 1.196-1.493 1.496-1.593-.3-.1-1.397-.999-1.493-1.596" style="fill:none;stroke-width:.31879;stroke-linecap:round;stroke-linejoin:round;stroke:#000;stroke-miterlimit:10" transform="matrix(.86063 .50912 .50912 -.86063 328.819 144.978)"/><path d="m177.45-83.99 59.57 54.285" fill="none" stroke="#000" stroke-miterlimit="10" stroke-width=".3985" transform="matrix(1 0 0 -1 -30.712 59.58)"/><path d="m-1.195 1.594c.1-.598 1.195-1.496 1.493-1.594-.298-.099-1.395-.995-1.491-1.594" style="fill:none;stroke-width:.31879;stroke-linecap:round;stroke-linejoin:round;stroke:#000;stroke-miterlimit:10" transform="matrix(.73905794 -.6735528 -.6735528 -.73905794 206.309146 89.283477)"/><path d="m179.942-89.213 54.473 8.277" fill="none" stroke="#000" stroke-miterlimit="10" stroke-width=".3985" transform="matrix(1 0 0 -1 -30.712 59.58)"/><path d="m-1.197 1.594c.103-.597 1.196-1.494 1.496-1.595-.299-.099-1.396-.997-1.494-1.594" style="fill:none;stroke-width:.31879;stroke-linecap:round;stroke-linejoin:round;stroke:#000;stroke-miterlimit:10" transform="matrix(.9886 -.15016 -.15016 -.9886 203.704 140.517)"/><path d="m311.259-21.014 46.965 7.938" fill="none" stroke="#000" stroke-miterlimit="10" stroke-width=".3985" transform="matrix(1 0 0 -1 -30.712 59.58)"/><path d="m-1.196 1.593c.102-.595 1.198-1.493 1.494-1.591-.298-.1-1.393-.997-1.493-1.594" style="fill:none;stroke-width:.31879;stroke-linecap:round;stroke-linejoin:round;stroke:#000;stroke-miterlimit:10" transform="matrix(.98595724 -.16663828 -.16663828 -.98595724 327.527721 72.658947)"/><path d="m176.189-82.826 62.152 80.25" fill="none" stroke="#000" stroke-miterlimit="10" stroke-width=".3985" transform="matrix(1 0 0 -1 -30.712 59.58)"/><path d="m-1.195 1.596c.1-.6 1.194-1.497 1.493-1.596-.3-.098-1.393-.995-1.494-1.592" style="fill:none;stroke-width:.31879;stroke-linecap:round;stroke-linejoin:round;stroke:#000;stroke-miterlimit:10" transform="matrix(.61231698 -.79056177 -.79056177 -.61231698 207.630448 62.157379)"/><path d="m179.806-92.924 54.754-12.476" fill="none" stroke="#000" stroke-miterlimit="10" stroke-width=".3985" transform="matrix(1 0 0 -1 -30.712 59.58)"/><path d="m-1.196 1.594c.1-.598 1.194-1.494 1.493-1.594-.297-.1-1.392-.995-1.492-1.595" style="fill:none;stroke-width:.31879;stroke-linecap:round;stroke-linejoin:round;stroke:#000;stroke-miterlimit:10" transform="matrix(.97496 .22212 .22212 -.97496 203.847 164.98)"/><path d="m310.61-26.56 48.29-20.403" fill="none" stroke="#000" stroke-miterlimit="10" stroke-width=".3985" transform="matrix(1 0 0 -1 -30.712 59.58)"/><path d="m-1.196 1.595c.1-.598 1.196-1.497 1.496-1.595-.3-.1-1.397-.997-1.497-1.595" style="fill:none;stroke-width:.31879;stroke-linecap:round;stroke-linejoin:round;stroke:#000;stroke-miterlimit:10" transform="matrix(.92111 .3892 .3892 -.92111 328.188 106.544)"/><path d="m175.204-82.15 64.168 107.214" fill="none" stroke="#000" stroke-miterlimit="10" stroke-width=".3985" transform="matrix(1 0 0 -1 -30.712 59.58)"/><path d="m-1.196 1.592c.102-.595 1.196-1.492 1.496-1.591-.3-.102-1.393-.997-1.495-1.596" style="fill:none;stroke-width:.31879;stroke-linecap:round;stroke-linejoin:round;stroke:#000;stroke-miterlimit:10" transform="matrix(.51352071 -.85803058 -.85803058 -.51352071 208.66048 34.5137)"/><path d="m178.603-95.889 57.21-34.758" fill="none" stroke="#000" stroke-miterlimit="10" stroke-width=".3985" transform="matrix(1 0 0 -1 -30.712 59.58)"/><path d="m-1.196 1.592c.101-.596 1.196-1.495 1.493-1.592-.297-.099-1.392-.997-1.492-1.593" style="fill:none;stroke-width:.31879;stroke-linecap:round;stroke-linejoin:round;stroke:#000;stroke-miterlimit:10" transform="matrix(.85457 .51923 .51923 -.85457 205.102 190.228)"/><path d="m308.427-29.78 52.758-53.503" fill="none" stroke="#000" stroke-miterlimit="10" stroke-width=".3985" transform="matrix(1 0 0 -1 -30.712 59.58)"/><path d="m-1.195 1.596c.099-.602 1.196-1.497 1.495-1.596-.3-.097-1.396-.997-1.497-1.595" style="fill:none;stroke-width:.31879;stroke-linecap:round;stroke-linejoin:round;stroke:#000;stroke-miterlimit:10" transform="matrix(.70209 .712 .712 -.70209 330.472 142.862)"/><use x="3.32" xlink:href="#c" y="43.97"/><use x="9.014" xlink:href="#p" y="45.464"/><use x="464.308" xlink:href="#j" y="45.284"/><use x="463.675" xlink:href="#c" y="45.284"/><use x="469.369" xlink:href="#p" y="46.778"/><use x="3.32" xlink:href="#c" y="83.654"/><use x="9.014" xlink:href="#q" y="85.149"/><use x="464.308" xlink:href="#j" y="84.969"/><use x="463.675" xlink:href="#c" y="84.969"/><use x="469.369" xlink:href="#q" y="86.463"/><use x="3.32" xlink:href="#c" y="123.339"/><use x="9.014" xlink:href="#r" y="124.834"/><use x="464.308" xlink:href="#j" y="124.654"/><use x="463.675" xlink:href="#c" y="124.654"/><use x="469.369" xlink:href="#r" y="126.148"/><use x="3.32" xlink:href="#c" y="163.024"/><use x="9.014" xlink:href="#s" y="164.518"/><use x="464.308" xlink:href="#j" y="164.339"/><use x="463.675" xlink:href="#c" y="164.339"/><use x="469.369" xlink:href="#s" y="165.833"/><use x="3.32" xlink:href="#c" y="202.709"/><use x="9.014" xlink:href="#t" y="204.203"/><use x="464.308" xlink:href="#j" y="204.023"/><use x="463.675" xlink:href="#c" y="204.023"/><use x="469.369" xlink:href="#t" y="205.518"/><g><use x="14.358" xlink:href="#k" y="25.303"/><use x="17.126" xlink:href="#l" y="25.303"/><use x="22.661" xlink:href="#g" y="25.303"/><use x="28.196" xlink:href="#m" y="25.303"/><use x="33.731" xlink:href="#n" y="25.303"/></g><g><use x="436.51" xlink:href="#o" y="25.303"/><use x="441.491" xlink:href="#m" y="25.303"/><use x="447.027" xlink:href="#n" y="25.303"/><use x="450.901" xlink:href="#g" y="25.303"/><use x="456.436" xlink:href="#m" y="25.303"/><use x="461.971" xlink:href="#n" y="25.303"/></g></svg>