<svg height="385.451" viewBox="0 0 800.831 289.088" width="1067.775" xmlns="http://www.w3.org/2000/svg" xmlns:xlink="http://www.w3.org/1999/xlink"><symbol id="a" overflow="visible"><path d="m22.75 18.14c0-.078 0-.218-.219-.437-3.421-3.5-12.561-13.015-12.561-36.219 0-23.203 9-32.64 12.64-36.359 0-.078.141-.219.141-.453 0-.219-.219-.36-.516-.36-.812 0-7.14 5.5-10.78 13.672-3.72 8.25-4.767 16.282-4.767 23.422 0 5.36.532 14.422 4.985 24.016 3.578 7.734 9.672 13.172 10.562 13.172.375 0 .516-.157.516-.453zm0 0"/></symbol><symbol id="b" overflow="visible"><path d="m19.563-18.516c0-5.359-.532-14.422-4.985-24.015-3.578-7.735-9.672-13.157-10.562-13.157-.22 0-.516.063-.516.438 0 .156.063.219.14.375 3.579 3.719 12.641 13.156 12.641 36.281 0 23.203-9 32.64-12.64 36.36-.079.156-.141.234-.141.375 0 .375.297.453.516.453.812 0 7.14-5.5 10.78-13.688 3.72-8.25 4.767-16.281 4.767-23.422zm0 0"/></symbol><symbol id="c" overflow="visible"><path d="m16.328-5.703c.422 0 .875 0 .875-.484 0-.5-.453-.5-.875-.5h-13.406c-.422 0-.86 0-.86.5 0 .484.438.484.86.484zm0 0"/></symbol><symbol id="d" overflow="visible"><path d="m19.328-16.375c.047-.078.125-.25.125-.36 0-.171-.031-.187-.594-.187h-17.093c-.579 0-.594.016-.594.188 0 .109.062.28.11.359l8.358 16.719c.171.328.25.469.671.469.422 0 .485-.141.672-.47zm-15.094 1.234h13.61l-6.797 13.625zm0 0"/></symbol><symbol id="e" overflow="visible"><path d="m8.234-11.422v-.469h-7.014v.47zm0 0"/></symbol><symbol id="f" overflow="visible"><path d="m8.61-3.203h-.376c-.203 1.469-.359 1.719-.453 1.844-.093.156-1.578.156-1.875.156h-3.968a126.4 126.4 0 0 1 3.952-3.969c1.25-1.187 2.718-2.594 2.718-4.64 0-2.438-1.937-3.844-4.109-3.844-2.266 0-3.656 2-3.656 3.86 0 .812.61.921.844.921.218 0 .828-.125.828-.86 0-.64-.532-.828-.829-.828-.125 0-.234.032-.328.063.391-1.75 1.594-2.61 2.86-2.61 1.797 0 2.968 1.422 2.968 3.297 0 1.797-1.046 3.344-2.234 4.688l-4.109 4.656v.469h7.282zm0 0"/></symbol><symbol id="g" overflow="visible"><path d="m7.875-4.86c.078-.077.078-.124.078-.327 0-2.11-1.11-3.938-3.469-3.938-2.187 0-3.921 2.078-3.921 4.625 0 2.688 1.953 4.672 4.14 4.672 2.313 0 3.234-2.203 3.234-2.625 0-.156-.125-.156-.171-.156-.141 0-.172.046-.25.296-.454 1.407-1.594 2.11-2.657 2.11-.89 0-1.78-.5-2.343-1.406-.641-1.063-.641-2.282-.641-3.25zm-5.969-.312c.14-2.969 1.735-3.625 2.563-3.625 1.39 0 2.343 1.313 2.375 3.625zm0 0"/></symbol><symbol id="h" overflow="visible"><path d="m5.375-4.813a49.332 49.332 0 0 1 1.89-2.39c.688-.797 1.47-1.125 2.376-1.14v-.532c-.344.016-1.063.031-1.438.031-.562 0-1.203 0-1.672-.031v.531c.282.047.453.25.453.531 0 .375-.203.61-.312.75l-1.532 1.938-1.812-2.375c-.187-.219-.187-.266-.187-.375 0-.25.203-.453.562-.469v-.531c-.5.031-1.39.031-1.906.031-.563 0-1.219 0-1.672-.031v.531c1.11 0 1.36.078 1.86.703l2.374 3.079c.047.03.141.156.141.218 0 .094-1.797 2.297-2.016 2.594-.937 1.11-1.906 1.188-2.468 1.219v.531a42.673 42.673 0 0 1 1.453-.047c.406 0 1.312 0 1.687.047v-.531c-.125-.031-.453-.063-.453-.547 0-.375.172-.594.36-.844l1.703-2.11 1.796 2.345c.172.218.422.53.422.671 0 .297-.25.454-.578.485v.531c.5-.047 1.375-.047 1.89-.047.563 0 1.22 0 1.688.047v-.531c-1.046 0-1.343-.047-1.843-.688zm0 0"/></symbol><symbol id="i" overflow="visible"><path d="m3.125-8.344h2.89v-.531h-2.89v-3.828h-.375c-.047 2.125-.766 3.983-2.516 4.031v.328h1.797v5.797c0 .406 0 2.719 2.39 2.719 1.22 0 1.923-1.203 1.923-2.735v-1.171h-.375v1.156c0 1.422-.563 2.375-1.422 2.375-.594 0-1.422-.422-1.422-2.297zm0 0"/></symbol><symbol id="j" overflow="visible"><path d="m8.578-6.281c0-1.047-.219-2.766-2.656-2.766-1.625 0-2.469 1.266-2.781 2.078h-.016v-2.078l-2.438.235v.53c1.22 0 1.407.126 1.407 1.11v5.75c0 .781-.094.89-1.406.89v.532c.484-.047 1.406-.047 1.937-.047s1.469 0 1.953.047v-.531c-1.312 0-1.39-.094-1.39-.89v-3.97c0-1.906 1.156-3.328 2.593-3.328 1.532 0 1.703 1.36 1.703 2.36v4.937c0 .781-.093.89-1.406.89v.532c.484-.047 1.406-.047 1.938-.047.53 0 1.468 0 1.968.047v-.531c-1.328 0-1.406-.094-1.406-.89zm0 0"/></symbol><symbol id="k" overflow="visible"><path d="m8.906-4.422c0-2.64-1.922-4.703-4.172-4.703s-4.171 2.063-4.171 4.703c0 2.61 1.921 4.594 4.171 4.594s4.172-1.984 4.172-4.594zm-4.172 4.219c-.968 0-1.796-.578-2.28-1.39-.517-.923-.579-2.079-.579-2.985 0-.875.047-1.953.578-2.875.422-.688 1.219-1.344 2.281-1.344.922 0 1.704.516 2.204 1.235.64.968.64 2.343.64 2.984 0 .797-.031 2.031-.594 3.031-.578.953-1.468 1.344-2.25 1.344zm0 0"/></symbol><symbol id="l" overflow="visible"><path d="m5.266-3.984v-.907h-5.188v.907zm0 0"/></symbol><symbol id="m" overflow="visible"><path d="m3.094-4.875c0-1.984.86-3.844 2.406-3.844.14 0 .281.016.422.078 0 0-.453.157-.453.688 0 .5.39.703.703.703.25 0 .703-.14.703-.719 0-.672-.656-1.078-1.36-1.078-1.562 0-2.25 1.531-2.452 2.25h-.033v-2.25l-2.39.235v.53c1.218 0 1.406.126 1.406 1.11v5.75c0 .781-.078.89-1.406.89v.532c.5-.047 1.453-.047 1.984-.047.594 0 1.656 0 2.203.047v-.531c-1.484 0-1.734 0-1.734-.938zm0 0"/></symbol><symbol id="n" overflow="visible"><path d="m3.156-14.328-2.453.219v.53c1.219 0 1.406.126 1.406 1.126v11.031c0 .781-.078.89-1.406.89v.532c.5-.047 1.406-.047 1.922-.047.531 0 1.438 0 1.938.047v-.531c-1.313 0-1.407-.094-1.407-.89zm0 0"/></symbol><symbol id="o" overflow="visible"><path d="m3.422-.844a.83.83 0 0 0 -.844-.844c-.406 0-.844.329-.844.844a.83.83 0 0 0 .844.844.84.84 0 0 0 .844-.844zm0 0"/></symbol><symbol id="p" overflow="visible"><path d="m9.047-14.031c0-.36-.016-.39-.14-.39-.126 0-.173.093-.25.265l-.626 1.375c-.781-1.14-1.984-1.656-3.281-1.656a3.768 3.768 0 0 0 -3.797 3.78c0 .641.14 1.548.844 2.423.766.937 1.484 1.109 3.14 1.546.625.157 1.657.422 1.86.516 1.172.484 1.797 1.734 1.797 2.89 0 1.485-1.047 3.079-2.844 3.079-2.219 0-4.281-1.25-4.422-4.14-.031-.329-.047-.345-.187-.345-.172 0-.188.016-.188.438v4.172c0 .375.016.39.14.39.141 0 .188-.109.47-.75.03-.062.03-.093.421-.89 1.032 1.375 2.766 1.656 3.766 1.656 2.25 0 3.828-1.875 3.828-4.062 0-1.079-.39-1.907-.61-2.282-.874-1.312-1.796-1.562-2.796-1.812-.14-.063-.188-.063-1.344-.36-1.11-.28-1.578-.421-2.094-.984-.593-.64-.796-1.297-.796-1.969 0-1.328 1.078-2.796 2.828-2.796 2.203 0 3.562 1.546 3.875 4.124.062.376.078.391.218.391.188 0 .188-.062.188-.406zm0 0"/></symbol><symbol id="q" overflow="visible"><path d="m7.203-7.234c-.39 0-.969 0-.969.734 0 .578.485.734.75.734.141 0 .735-.062.735-.78 0-1.47-1.39-2.579-2.985-2.579-2.187 0-4.046 2.016-4.046 4.656 0 2.75 1.937 4.64 4.046 4.64 2.563 0 3.204-2.374 3.204-2.608 0-.079-.032-.141-.172-.141-.141 0-.172.015-.25.281-.532 1.672-1.72 2.094-2.594 2.094-1.328 0-2.922-1.219-2.922-4.281 0-3.141 1.531-4.282 2.75-4.282.813 0 2 .407 2.453 1.532zm0 0"/></symbol><symbol id="r" overflow="visible"><path d="m8.578-6.281c0-1.047-.219-2.766-2.656-2.766-1.688 0-2.516 1.36-2.766 2.047h-.015v-7.328l-2.454.219v.53c1.22 0 1.407.126 1.407 1.126v11.031c0 .781-.094.89-1.406.89v.532c.484-.047 1.406-.047 1.937-.047s1.469 0 1.953.047v-.531c-1.312 0-1.39-.094-1.39-.89v-3.97c0-1.906 1.156-3.328 2.593-3.328 1.532 0 1.703 1.36 1.703 2.36v4.937c0 .781-.093.89-1.406.89v.532c.484-.047 1.406-.047 1.938-.047.53 0 1.468 0 1.968.047v-.531c-1.328 0-1.406-.094-1.406-.89zm0 0"/></symbol><symbol id="s" overflow="visible"><path d="m3.656-12.75a.81.81 0 0 0 -.812-.828c-.531 0-.813.469-.813.812 0 .407.328.829.813.829.437 0 .812-.36.812-.813zm3.781 0a.833.833 0 0 0 -.828-.828.817.817 0 0 0 -.812.812.82.82 0 1 0 1.64.016zm0 0"/></symbol><symbol id="t" overflow="visible"><path d="m6.031-14.11v.532c1.219 0 1.407.125 1.407 1.125v4.828c-.079-.094-.938-1.422-2.61-1.422-2.094 0-4.14 1.875-4.14 4.61 0 2.702 1.921 4.608 3.936 4.608 1.75 0 2.672-1.375 2.766-1.516v1.517l2.5-.172v-.531c-1.22 0-1.407-.125-1.407-1.125v-12.672zm1.36 11.626c0 .625-.375 1.187-.844 1.593-.703.625-1.406.72-1.797.72-.594-.001-2.75-.299-2.75-4.251 0-4.048 2.406-4.298 2.938-4.298.953 0 1.718.531 2.187 1.281.266.438.266.5.266.875zm0 0"/></symbol><symbol id="u" overflow="visible"><path d="m3.203-12.719c0-.453-.375-.86-.844-.86a.854.854 0 0 0 -.843.86.84.84 0 0 0 .843.844.85.85 0 0 0 .844-.844zm-2.422 3.906v.532c1.156 0 1.328.125 1.328 1.11v5.75c0 .78-.078.89-1.406.89v.531c.5-.047 1.39-.047 1.906-.047.485 0 1.344 0 1.813.047v-.531c-1.219 0-1.266-.125-1.266-.875v-7.64zm0 0"/></symbol><symbol id="v" overflow="visible"><path d="m2.297-3.719a3.08 3.08 0 0 0 1.89.656c1.641 0 3.047-1.28 3.047-2.984 0-.547-.171-1.375-.796-2.016.578-.609 1.437-.812 1.906-.812.078 0 .203 0 .312.063-.078.015-.265.093-.265.421 0 .266.187.454.453.454.312 0 .469-.204.469-.47 0-.39-.313-.812-.97-.812-.827 0-1.546.406-2.124.938a2.987 2.987 0 0 0 -2.032-.766c-1.625 0-3.03 1.281-3.03 3 0 1.172.687 1.922.89 2.125-.625.719-.625 1.563-.625 1.672 0 .531.203 1.328.906 1.75-1.062.266-1.922 1.094-1.922 2.125 0 1.5 1.969 2.594 4.328 2.594 2.266 0 4.313-1.063 4.313-2.61 0-2.812-3.063-2.812-4.64-2.812-.485 0-1.329 0-1.438-.016-.64-.11-1.063-.687-1.063-1.406 0-.188 0-.64.39-1.094zm1.89.313c-1.812 0-1.812-2.235-1.812-2.64 0-.423 0-2.657 1.813-2.657 1.828 0 1.828 2.234 1.828 2.656 0 .406 0 2.64-1.829 2.64zm.547 7.265c-2.062 0-3.5-1.093-3.5-2.234 0-.64.36-1.234.813-1.563.515-.359.719-.359 2.125-.359 1.687 0 4.047 0 4.047 1.922 0 1.14-1.422 2.234-3.485 2.234zm0 0"/></symbol><symbol id="w" overflow="visible"><path d="m8.484-9.047h-.328l-.61 2.047c-.484-1.094-1.343-2.047-2.734-2.047-2.109 0-4.125 1.875-4.125 4.61.001 2.702 1.892 4.608 3.955 4.608 1.593 0 2.484-1.219 2.75-1.688v4.127c0 .782-.079.875-1.407.875v.547c.5-.047 1.407-.047 1.954-.047.53 0 1.468 0 1.953.047v-.547c-1.313 0-1.407-.078-1.407-.875zm-1.046 6.219c0 .89-.75 1.719-.813 1.781-.64.719-1.375.875-1.875.875-1.547 0-2.75-1.953-2.75-4.25 0-2.422 1.36-4.25 2.953-4.25 1.656 0 2.484 1.875 2.484 2.953zm0 0"/></symbol><symbol id="x" overflow="visible"><path d="m6.078-8.813v.532c1.219 0 1.406.125 1.406 1.11v3.765c0 1.734-.937 3.234-2.468 3.234-1.688 0-1.829-1-1.829-2.078v-6.797l-2.5.235v.53c.829 0 1.375 0 1.407.829v3.969c0 1.375 0 2.265.531 2.843.266.266.781.813 2.266.813 1.765 0 2.437-1.5 2.609-1.922h.016v1.922l2.468-.172v-.531c-1.218 0-1.406-.125-1.406-1.125v-7.39zm0 0"/></symbol><symbol id="y" overflow="visible"><path d="m7.438-5.344c0-1.375 0-2.093-.875-2.89a3.468 3.468 0 0 0 -2.344-.891c-1.64 0-2.813 1.281-2.813 2.64 0 .766.625.798.735.798.28 0 .75-.157.75-.735 0-.516-.391-.75-.75-.75-.079 0-.172.031-.235.047.422-1.297 1.547-1.672 2.266-1.672 1.031 0 2.172.906 2.172 2.64v.907c-1.219.047-2.688.203-3.844.828-1.297.719-1.672 1.75-1.672 2.547 0 1.578 1.86 2.047 2.953 2.047 1.14 0 2.188-.64 2.64-1.828.049.906.627 1.734 1.533 1.734.438 0 1.531-.281 1.531-1.922v-1.156h-.375v1.188c0 1.25-.562 1.421-.828 1.421-.844 0-.844-1.078-.844-1.984zm-1.095 2.469c0 1.797-1.282 2.703-2.422 2.703-1.031 0-1.828-.75-1.828-1.703 0-.625.265-1.719 1.453-2.375 1-.563 2.14-.64 2.797-.688zm0 0"/></symbol><symbol id="z" overflow="visible"><path d="m8.078-7.016c.188-.468.516-1.28 1.719-1.328v-.531c-.39.016-.922.031-1.313.031-.421 0-1.109 0-1.515-.031v.531c.515.047.797.281.797.828 0 .188 0 .22-.125.516l-2.266 5.734-2.469-6.187c-.125-.266-.125-.313-.125-.39 0-.5.688-.5 1-.5v-.532c-.5.031-1.406.031-1.922.031-.562 0-1.203 0-1.656-.031v.531c.781 0 1.219 0 1.469.64l3 7.516c.125.313.14.36.328.36s.203-.047.328-.36zm0 0"/></symbol><symbol id="A" overflow="visible"><path d="m6.375-8.719c0-.375-.016-.39-.14-.39-.079 0-.094.015-.344.328-.063.078-.25.297-.313.375-.656-.703-1.594-.719-1.937-.719-2.297 0-3.125 1.188-3.125 2.39 0 1.86 2.109 2.298 2.703 2.423 1.312.265 1.765.343 2.187.718.282.25.735.703.735 1.453 0 .86-.5 1.97-2.407 1.97-1.796 0-2.437-1.36-2.812-3.173-.047-.297-.047-.312-.219-.312s-.187.015-.187.437v2.969c0 .375.015.39.14.39.11 0 .125-.015.235-.187.125-.187.437-.672.562-.875.407.547 1.125 1.094 2.281 1.094 2.047 0 3.141-1.125 3.141-2.735a2.377 2.377 0 0 0 -.828-1.859c-.61-.64-1.344-.781-2.203-.953-1.14-.25-2.578-.531-2.578-1.797 0-.531.28-1.672 2.375-1.672 2.203 0 2.328 2.063 2.375 2.735.015.093.125.125.187.125.172 0 .172-.063.172-.422zm0 0"/></symbol><symbol id="B" overflow="visible"><path d="m1.078-14.11v.532c1.422 0 1.656 0 1.656.937v11.172c0 .938-.234.938-1.656.938v.531h6.563c3.328 0 6-3.063 6-6.938 0-3.906-2.625-7.171-6-7.171zm3.844 13.58c-.828 0-.875-.11-.875-.813v-11.422c0-.703.047-.812.875-.812h2.312c1.704 0 4.875 1.015 4.875 6.64 0 2.907-.859 4.094-1.25 4.641a4.524 4.524 0 0 1 -3.625 1.766zm0 0"/></symbol><symbol id="C" overflow="visible"><path d="m8.063-7.063c.515-1.265 1.437-1.28 1.734-1.28v-.532c-.39.016-.922.031-1.313.031-.421 0-1.109 0-1.515-.031v.531c.781.063.797.64.797.797 0 .219-.047.313-.141.563l-2.25 5.578-2.469-6.032c-.094-.25-.094-.39-.094-.406 0-.453.47-.5.97-.5v-.531c-.5.031-1.391.031-1.907.031-.547 0-1.219 0-1.672-.031v.531c1.125 0 1.25.11 1.516.766l3.078 7.578c-.938 2.438-1.469 3.86-2.767 3.86-.234 0-.75-.063-1.125-.438.485-.031.688-.328.688-.672 0-.36-.25-.656-.672-.656-.453 0-.672.297-.672.672 0 .828.844 1.421 1.781 1.421 1.19.001 1.94-1.155 2.345-2.187zm0 0"/></symbol><symbol id="D" overflow="visible"><path d="m4.547 3.484c-1.328 0-1.406-.078-1.406-.875v-3.875c.593.876 1.468 1.438 2.562 1.438 2.063 0 4.156-1.828 4.156-4.64 0-2.595-1.796-4.579-3.937-4.579-1.234 0-2.25.688-2.828 1.5v-1.5l-2.454.235v.53c1.218 0 1.406.126 1.406 1.11v9.782c0 .782-.078.875-1.406.875v.547c.5-.047 1.406-.047 1.937-.047.547 0 1.469 0 1.969.047zm-1.407-9.968c0-.297 0-.72.812-1.485a2.8 2.8 0 0 1 1.828-.703c1.516 0 2.75 1.875 2.75 4.235 0 2.343-1.328 4.265-2.953 4.265-.75 0-1.547-.344-2.172-1.312-.265-.454-.265-.579-.265-.907zm0 0"/></symbol><symbol id="E" overflow="visible"><path d="m4.094-6.625h3.296c2.671 0 4.609-1.734 4.609-3.703s-1.906-3.781-4.61-3.781h-6.31v.53c1.422 0 1.656 0 1.656.938v11.172c0 .938-.234.938-1.656.938v.531c.594-.047 1.688-.047 2.328-.047s1.735 0 2.344.047v-.531c-1.438 0-1.656 0-1.656-.938zm-.047-.438v-5.703c0-.703.047-.812.875-.812h2.078c2.672 0 3.438 1.531 3.438 3.25 0 1.875-.922 3.265-3.438 3.265zm0 0"/></symbol><symbol id="F" overflow="visible"><path d="m11.594-12.64c0-.938.219-.938 1.64-.938v-.531c-.593.046-1.687.046-2.328.046-.64 0-1.734 0-2.328-.046v.53c1.422 0 1.64 0 1.64.938v5.047h-6.154v-5.047c0-.937.234-.937 1.656-.937v-.531c-.594.046-1.688.046-2.328.046-.641 0-1.735 0-2.344-.046v.53c1.437 0 1.656 0 1.656.938v11.172c0 .938-.219.938-1.656.938v.531c.61-.047 1.703-.047 2.344-.047.64 0 1.734 0 2.328.047v-.531c-1.422 0-1.657 0-1.657-.938v-5.593h6.157v5.593c0 .938-.219.938-1.64.938v.531c.593-.047 1.687-.047 2.327-.047s1.735 0 2.328.047v-.531c-1.421 0-1.64 0-1.64-.938zm0 0"/></symbol><symbol id="G" overflow="visible"><path d="m11.203-5.219h-.375c-.172 2.032-.437 4.689-3.968 4.689h-1.922c-.829 0-.875-.11-.875-.813v-11.281c0-.734.046-.953 1.625-.953h.453v-.531c-.86.046-1.844.046-2.688.046-.64 0-1.797 0-2.406-.046v.53c1.437 0 1.656 0 1.656.938v11.172c0 .938-.219.938-1.656.938v.53h9.656zm0 0"/></symbol><symbol id="H" overflow="visible"><path d="m7.5-14.281c-.11-.266-.14-.328-.36-.328-.202 0-.234.062-.343.328l-4.375 12.406c-.39 1.11-1.219 1.344-1.953 1.344v.531c.375-.047 1.203-.047 1.594-.047.515 0 1.343 0 1.843.047v-.531c-.969-.047-1.125-.703-1.125-.953 0-.188.047-.297.094-.422l1.094-3.078h5.406l1.25 3.515c.094.25.094.297.094.375 0 .563-.89.563-1.281.563v.531c.593-.047 1.671-.047 2.312-.047.547 0 1.578 0 2.063.047v-.531c-1.094 0-1.454 0-1.735-.766zm-.828 1.656 2.516 7.11h-5.033zm0 0"/></symbol><symbol id="I" overflow="visible"><path d="m12.828-4.11c0-.78.063-.89 1.344-.89v-.531c-.5.031-1.61.031-2.172.031-.578 0-2.188-.016-2.969-.031v.531h.61c1.78 0 1.828.234 1.828.969v1.36c0 2.28-2.688 2.468-3.328 2.468-2.125 0-5.625-1.469-5.625-6.86 0-5.39 3.437-6.843 5.437-6.843 2.328 0 4.031 2.031 4.422 4.906.047.234.047.281.219.281.234 0 .234-.047.234-.406v-4.906c0-.36-.015-.39-.14-.39-.094 0-.11.03-.25.265l-.907 1.734c-1.015-1.265-2.25-2.015-3.844-2.015-3.53 0-6.734 3.124-6.734 7.374 0 4.236 3.14 7.392 6.767 7.392 1.687 0 3.312-.594 3.953-1.781.344.86.922 1.437 1.031 1.437.11 0 .125-.03.125-.39zm0 0"/></symbol><symbol id="J" overflow="visible"><path d="m3.094-14.328-2.454.218v.53c1.218 0 1.406.126 1.406 1.126v12.454h.375l.594-1.469c.594.969 1.485 1.64 2.688 1.64 2.063 0 4.156-1.827 4.156-4.64 0-2.64-1.859-4.578-3.953-4.578-1.281 0-2.187.688-2.812 1.485zm.046 7.828c0-.375 0-.438.28-.875.813-1.234 1.97-1.344 2.36-1.344.625 0 2.75.328 2.75 4.235 0 4.093-2.437 4.312-2.937 4.312-.64 0-1.563-.234-2.235-1.437-.218-.391-.218-.438-.218-.813zm0 0"/></symbol><symbol id="K" overflow="visible"><path d="m13.969-6.281c0-1.032-.188-2.766-2.656-2.766-1.391 0-2.376.953-2.735 2.063h-.031c-.25-1.688-1.469-2.063-2.625-2.063-1.625 0-2.469 1.266-2.781 2.078h-.016v-2.078l-2.438.235v.53c1.22 0 1.407.126 1.407 1.11v5.75c0 .781-.094.89-1.406.89v.532c.484-.047 1.406-.047 1.937-.047s1.469 0 1.953.047v-.531c-1.312 0-1.39-.094-1.39-.89v-3.97c0-1.906 1.156-3.328 2.593-3.328 1.532 0 1.703 1.36 1.703 2.36v4.937c0 .781-.093.89-1.406.89v.532c.484-.047 1.406-.047 1.938-.047.53 0 1.468 0 1.968.047v-.531c-1.328 0-1.406-.094-1.406-.89v-3.97c0-1.906 1.156-3.328 2.594-3.328 1.531 0 1.703 1.36 1.703 2.36v4.937c0 .781-.094.89-1.406.89v.532c.484-.047 1.406-.047 1.937-.047s1.469 0 1.969.047v-.531c-1.328 0-1.406-.094-1.406-.89zm0 0"/></symbol><symbol id="L" overflow="visible"><path d="m5.797-13.813a1.11 1.11 0 0 0 .062-.312c0-.203-.203-.203-.234-.203s-1.047.078-1.14.094c-.36.015-.657.062-1.032.078-.515.047-.672.062-.672.437 0 .203.172.203.469.203 1 0 1.031.188 1.031.407 0 .109-.047.28-.062.343l-3 11.954c-.078.312-.078.359-.078.484 0 .453.343.531.546.531.36 0 .625-.266.735-.5l.922-3.734c.11-.453.234-.89.328-1.344.234-.86.234-.89.625-1.484.39-.594 1.328-1.844 2.906-1.844.828 0 1.125.625 1.125 1.453 0 1.156-.812 3.406-1.265 4.64-.188.5-.282.766-.282 1.141 0 .938.64 1.672 1.625 1.672 1.922 0 2.64-3.031 2.64-3.156 0-.11-.077-.188-.202-.188-.188 0-.203.063-.313.407-.469 1.656-1.234 2.53-2.062 2.53-.203 0-.531-.03-.531-.687 0-.53.25-1.203.328-1.421.375-1 1.296-3.438 1.296-4.626 0-1.25-.718-2.171-2.296-2.171-1.172 0-2.204.562-3.047 1.625zm0 0"/></symbol><symbol id="M" overflow="visible"><path d="m4.25-6.047c.047-.125.563-1.156 1.328-1.828.531-.484 1.234-.828 2.047-.828.828 0 1.11.625 1.11 1.453 0 .125 0 .531-.25 1.5l-.516 2.14c-.157.61-.547 2.141-.594 2.376-.078.312-.203.843-.203.921 0 .297.219.516.531.516.625 0 .719-.469.906-1.219l1.25-4.937c.032-.156 1.11-2.75 3.375-2.75.829 0 1.125.625 1.125 1.453 0 1.156-.812 3.406-1.265 4.64-.188.5-.281.766-.281 1.141 0 .938.64 1.672 1.624 1.672 1.922 0 2.641-3.031 2.641-3.156 0-.11-.078-.188-.203-.188-.188 0-.203.063-.313.407-.468 1.656-1.234 2.53-2.062 2.53-.203 0-.531-.03-.531-.687 0-.53.25-1.203.328-1.421.375-1 1.297-3.438 1.297-4.626 0-1.25-.719-2.171-2.297-2.171-1.375 0-2.5.78-3.313 2-.062-1.11-.75-2-2.296-2-1.844 0-2.813 1.296-3.188 1.812-.063-1.172-.906-1.812-1.813-1.812-.593 0-1.078.296-1.468 1.078-.375.734-.657 2-.657 2.078 0 .094.079.187.22.187.171 0 .187-.015.312-.5.312-1.218.703-2.437 1.531-2.437.469 0 .64.344.64.953 0 .453-.203 1.266-.359 1.906l-.578 2.235c-.078.39-.297 1.312-.406 1.687-.14.531-.375 1.516-.375 1.61 0 .296.234.515.547.515a.776.776 0 0 0 .687-.437c.047-.094.235-.813.344-1.235l.453-1.86zm0 0"/></symbol><symbol id="N" overflow="visible"><path d="m11.047-12.328c-.25.219-1.016.953-1.016 1.234 0 .203.188.39.406.39.188 0 .266-.124.407-.327a5.012 5.012 0 0 1 1.531-1.281c.203-.126.344-.188.344-.407 0-.187-.156-.297-.281-.39-.579-.407-.72-.954-.782-1.204-.062-.171-.125-.421-.422-.421a.383.383 0 0 0 -.375.406c0 .172.125.672.516 1.234h-6.938c-.343 0-.703 0-.703.39 0 .376.375.376.704.376zm0 0"/></symbol><symbol id="O" overflow="visible"><path d="m8.031-8.453c-.64.125-.969.578-.969 1.031 0 .5.391.672.688.672.578 0 1.047-.5 1.047-1.125 0-.656-.64-1.234-1.672-1.234-.828 0-1.781.375-2.64 1.625-.141-1.094-.97-1.625-1.798-1.625-.812 0-1.218.625-1.468 1.078-.344.734-.657 1.984-.657 2.078s.079.187.22.187c.171 0 .187-.015.312-.5.312-1.234.703-2.437 1.531-2.437.5 0 .64.36.64.953 0 .453-.203 1.266-.359 1.906l-.578 2.235c-.078.39-.297 1.312-.406 1.687-.14.531-.375 1.516-.375 1.61 0 .296.234.515.547.515.219 0 .61-.14.734-.547.063-.172.828-3.297.953-3.765.11-.454.219-.891.328-1.344.079-.297.172-.625.235-.89.062-.188.61-1.204 1.125-1.657.25-.219.797-.703 1.64-.703.329 0 .657.062.922.25zm0 0"/></symbol><symbol id="P" overflow="visible"><path d="m15.453-12.594c.188-.703.219-.922 1.688-.922.375 0 .578 0 .578-.359 0-.234-.188-.234-.313-.234-.36 0-.797.046-1.187.046h-2.439c-.39 0-.828-.046-1.219-.046-.14 0-.39 0-.39.39 0 .203.14.203.531.203 1.235 0 1.235.172 1.235.407 0 .03 0 .156-.079.468l-1.265 5h-6.234l1.235-4.953c.187-.703.234-.922 1.703-.922.375 0 .578 0 .578-.359 0-.234-.188-.234-.313-.234-.374 0-.796.046-1.203.046h-2.437c-.39 0-.813-.046-1.219-.046-.14 0-.39 0-.39.39 0 .203.156.203.546.203 1.235 0 1.235.172 1.235.407 0 .03 0 .156-.078.468l-2.797 11.111c-.189.717-.219.936-1.656.936-.47 0-.61 0-.61.39 0 .204.219.204.281.204.375 0 .813-.047 1.204-.047h2.437c.39 0 .828.047 1.219.047.172 0 .39 0 .39-.39 0-.204-.187-.204-.5-.204-1.25 0-1.25-.172-1.25-.375 0-.015 0-.172.032-.328l1.437-5.75h6.25c-.344 1.36-1.406 5.688-1.437 5.813-.235.609-.563.609-1.782.64-.25 0-.437 0-.437.39 0 .204.234.204.297.204.36 0 .797-.047 1.187-.047h2.438c.39 0 .828.047 1.219.047.171 0 .39 0 .39-.39 0-.204-.172-.204-.484-.204-1.266 0-1.266-.172-1.266-.375 0-.015 0-.172.047-.328zm0 0"/></symbol><symbol id="Q" overflow="visible"><path d="m9.797-8.422c-.672.125-.922.61-.922 1 0 .5.406.672.688.672.624 0 1.062-.547 1.062-1.094 0-.875-1-1.265-1.86-1.265-1.265 0-1.968 1.234-2.156 1.625-.468-1.547-1.749-1.626-2.125-1.626-2.109 0-3.218 2.703-3.218 3.156 0 .094.078.187.218.187.172 0 .204-.125.25-.203.704-2.297 2.094-2.734 2.688-2.734.922 0 1.11.875 1.11 1.375 0 .453-.126.922-.36 1.922l-.703 2.828c-.313 1.235-.922 2.376-2.016 2.376-.094 0-.61 0-1.047-.266.735-.156.907-.765.907-1.015 0-.422-.313-.657-.704-.657-.5 0-1.03.422-1.03 1.094 0 .86.968 1.25 1.859 1.25.984 0 1.687-.781 2.124-1.625.329 1.219 1.361 1.625 2.126 1.625 2.11 0 3.235-2.703 3.235-3.156 0-.11-.094-.188-.219-.188-.187 0-.203.11-.265.266-.565 1.828-1.751 2.672-2.689 2.672-.719 0-1.11-.547-1.11-1.39 0-.454.079-.782.407-2.141l.734-2.813c.297-1.234 1-2.156 1.953-2.156.047 0 .625 0 1.063.281zm0 0"/></symbol><symbol id="R" overflow="visible"><path d="m8.078-7.766c-.39 0-.578 0-.875.25a1.05 1.05 0 0 0 -.344.735c0 .422.313.672.704.672.5 0 1.046-.422 1.046-1.25 0-.985-.953-1.75-2.375-1.75-2.703-.001-5.406 2.953-5.406 5.889 0 1.797 1.11 3.422 3.219 3.422 2.812.001 4.593-2.186 4.593-2.452 0-.125-.125-.234-.22-.234-.062 0-.077.03-.265.218-1.311 1.75-3.28 2.063-4.061 2.063-1.422 0-1.89-1.25-1.89-2.281 0-.72.358-2.72 1.108-4.125.532-.97 1.641-2.094 2.954-2.094.265 0 1.39.047 1.812.937zm0 0"/></symbol><symbol id="S" overflow="visible"><path d="m5.844-2.953c0-.11-.078-.188-.203-.188-.188 0-.204.063-.313.407-.531 1.89-1.375 2.53-2.062 2.53-.25 0-.532-.062-.532-.687 0-.562.235-1.171.47-1.796l1.436-3.844c.062-.157.218-.532.218-.922 0-.875-.625-1.656-1.64-1.656-1.89 0-2.656 3-2.656 3.156 0 .094.078.187.218.187.188 0 .203-.078.297-.375.484-1.734 1.281-2.562 2.078-2.562.188 0 .547.031.547.687 0 .532-.281 1.22-.437 1.672l-1.453 3.844c-.125.328-.25.656-.25 1.031 0 .938.641 1.672 1.641 1.672 1.906 0 2.64-3.015 2.64-3.156zm-.157-9.938a.695.695 0 0 0 -.703-.687c-.484 0-1.015.469-1.015 1 0 .515.437.687.672.687.562 0 1.046-.546 1.046-1zm0 0"/></symbol><symbol id="T" overflow="visible"><path d="m7.188-2.672h-.313c-.172 1.219-.313 1.438-.39 1.531-.08.141-1.314.141-1.564.141h-3.296c.61-.672 1.813-1.89 3.281-3.313 1.047-.984 2.282-2.156 2.282-3.859 0-2.031-1.625-3.203-3.438-3.203-1.89 0-3.047 1.656-3.047 3.219 0 .672.5.75.703.75.172 0 .688-.094.688-.703 0-.532-.438-.688-.688-.688a.673.673 0 0 0 -.265.047c.328-1.453 1.328-2.188 2.375-2.188 1.5 0 2.468 1.188 2.468 2.766 0 1.485-.875 2.781-1.859 3.906l-3.422 3.876v.39h6.063zm0 0"/></symbol><symbol id="U" overflow="visible"><path d="m13.266-14.797c-.313.281-1.22 1.14-1.22 1.485 0 .25.22.468.47.468.218 0 .328-.14.5-.39a6.016 6.016 0 0 1 1.828-1.532c.25-.156.422-.234.422-.5 0-.218-.204-.343-.344-.468-.703-.47-.875-1.141-.938-1.438-.078-.203-.156-.5-.5-.5a.451.451 0 0 0 -.453.469c0 .234.156.828.625 1.484h-8.328c-.422 0-.844 0-.844.485 0 .437.454.437.844.437zm0 0"/></symbol><symbol id="V" overflow="visible"><path d="m11.328-9.266c0-1.562-.797-1.656-1-1.656-.594 0-1.14.594-1.14 1.078 0 .297.187.469.28.578.25.22.891.891.891 2.172 0 1.047-1.484 6.844-4.468 6.844-1.5 0-1.797-1.266-1.797-2.172 0-1.25.562-2.984 1.234-4.765.39-1.016.5-1.266.5-1.766 0-1.031-.75-1.969-1.969-1.969-2.265 0-3.187 3.594-3.187 3.781 0 .11.094.235.265.235.235 0 .25-.11.344-.453.61-2.125 1.563-3.079 2.516-3.079.219 0 .64 0 .64.829 0 .64-.28 1.359-.64 2.296-1.188 3.173-1.188 3.939-1.188 4.533 0 .547.063 1.562.829 2.265.906.766 2.14.766 2.359.766 4.11 0 5.531-8.11 5.531-9.516zm0 0"/></symbol><symbol id="W" overflow="visible"><path d="m9.64-10.14c-.765.156-1.171.703-1.171 1.25 0 .593.484.78.828.78.687 0 1.265-.593 1.265-1.328 0-.796-.78-1.484-2.015-1.484-.985 0-2.125.438-3.172 1.953-.172-1.312-1.156-1.953-2.156-1.953-.969 0-1.453.735-1.75 1.281-.422.891-.797 2.375-.797 2.5 0 .11.094.235.265.235.204 0 .235-.032.375-.61.375-1.484.844-2.921 1.829-2.921.593 0 .78.421.78 1.14 0 .547-.25 1.516-.421 2.281l-.703 2.672a39.183 39.183 0 0 1 -.5 2.047c-.172.64-.438 1.797-.438 1.922a.62.62 0 0 0 .641.625c.281 0 .75-.172.89-.672.079-.203 1-3.937 1.141-4.516.125-.546.282-1.062.407-1.609.093-.344.187-.734.265-1.062.078-.22.75-1.438 1.36-1.985.296-.265.953-.844 1.968-.844.39 0 .781.079 1.11.297zm0 0"/></symbol><symbol id="X" overflow="visible"><path d="m10.656-16.969c0-.234-.172-.234-.25-.234-.219 0-.25.047-.344.469l-1.342 5.328c-.063.328-.094.36-.125.375-.016.047-.188.078-.25.078-4.063.344-7.172 3.687-7.172 6.797 0 2.672 2.047 4.312 4.625 4.453-.203.766-.375 1.562-.563 2.328-.359 1.313-.546 2.14-.546 2.234 0 .047 0 .204.25.204.062 0 .171 0 .218-.11.047-.047.203-.64.297-.969l.921-3.687c4.234-.219 7.453-3.688 7.453-6.813 0-2.5-1.89-4.28-4.64-4.468zm-1.61 6.485c1.642.093 3.267 1.015 3.267 3.453 0 2.797-1.954 6.515-5.813 6.812zm-3.123 10.28c-1.219-.062-3.25-.718-3.25-3.437 0-3.125 2.265-6.593 5.828-6.812zm0 0"/></symbol><symbol id="Y" overflow="visible"><path d="m17.219-5.75c.031-.078.11-.25.11-.344 0-.125-.11-.25-.25-.25-.11 0-.157.032-.235.094-.047.031-.047.078-.266.578-1.469 3.469-2.531 4.953-6.484 4.953h-3.625c-.344 0-.39 0-.547-.031-.266-.016-.297-.063-.297-.266 0-.171.047-.328.094-.546l1.718-6.844h2.454c1.937 0 2.078.422 2.078 1.172 0 .25 0 .468-.172 1.218a.634.634 0 0 0 -.078.266c0 .172.125.25.281.25.219 0 .234-.172.344-.516l1.406-5.75a.246.246 0 0 0 -.25-.25c-.219 0-.234.094-.344.438-.5 1.906-.984 2.453-3.187 2.453h-2.36l1.532-6.094c.234-.86.28-.937 1.296-.937h3.547c3.047 0 3.657.812 3.657 2.703 0 .015 0 .719-.094 1.531-.031.094-.047.25-.047.297 0 .203.125.281.266.281.172 0 .28-.11.328-.547l.515-4.343c0-.078.047-.313.047-.375 0-.266-.218-.266-.672-.266h-12.093c-.47 0-.72 0-.72.438 0 .28.188.28.61.28 1.532 0 1.532.173 1.532.438 0 .125-.032.235-.094.5l-3.36 13.39c-.218.86-.265 1.11-2 1.11-.468 0-.718 0-.718.453 0 .266.14.266.64.266h12.439c.547 0 .578-.031.75-.422zm0 0"/></symbol><symbol id="Z" overflow="visible"><path d="m9.344-5.75h6.562c.344 0 .766 0 .766-.422 0-.437-.39-.437-.766-.437h-6.562v-6.579c0-.343 0-.765-.422-.765-.453 0-.453.39-.453.765v6.579h-6.563c-.343 0-.765 0-.765.421 0 .438.39.438.765.438h6.564v6.563c0 .359 0 .78.422.78.453 0 .453-.405.453-.78zm0 0"/></symbol><symbol id="aa" overflow="visible"><path d="m7.578 6.047c0-.031 0-.078-.062-.156-1.141-1.157-4.188-4.329-4.188-12.063s2.985-10.875 4.203-12.11c0-.03.047-.077.047-.155 0-.079-.062-.125-.172-.125-.265 0-2.375 1.828-3.593 4.562-1.235 2.75-1.579 5.422-1.579 7.813 0 1.78.172 4.796 1.657 8 1.187 2.577 3.218 4.375 3.515 4.375.125 0 .172-.047.172-.141zm0 0"/></symbol><symbol id="ab" overflow="visible"><path d="m6.516-6.172c0-1.781-.172-4.812-1.657-8-1.187-2.578-3.218-4.39-3.515-4.39-.078 0-.172.03-.172.156 0 .047.016.062.047.125 1.187 1.234 4.203 4.375 4.203 12.093 0 7.72-3 10.875-4.203 12.11-.032.047-.047.078-.047.125 0 .125.094.14.172.14.265 0 2.375-1.828 3.593-4.546 1.235-2.75 1.579-5.438 1.579-7.813zm0 0"/></symbol><symbol id="ac" overflow="visible"><path d="m15.938-7.953c.374 0 .734 0 .734-.422 0-.453-.422-.453-.844-.453h-13.844c-.421 0-.843 0-.843.453 0 .422.375.422.75.422zm-.11 4.406c.422 0 .844 0 .844-.437 0-.422-.36-.422-.735-.422h-14.045c-.375 0-.75 0-.75.422 0 .437.421.437.843.437zm0 0"/></symbol><clipPath id="ad"><path d="m729 114h71.832v61h-71.832zm0 0"/></clipPath><clipPath id="ae"><path d="m724 109h76.832v72h-76.832zm0 0"/></clipPath><use x="9.962" xlink:href="#a" y="163.132"/><path d="m123.677 29.888h-95.767a3.984 3.984 0 0 1 -3.984-3.985v-51.803a3.984 3.984 0 0 1 3.984-3.989h95.766a3.987 3.987 0 0 1 3.984 3.989v51.804c0 2.2-1.785 3.985-3.984 3.985zm0 0" fill="#ffd9b2" stroke="#000" stroke-miterlimit="10" stroke-width=".3985" transform="matrix(1 0 0 -1 23.128 144.544)"/><use x="57.016" xlink:href="#c" y="153.974"/><use x="81.485" xlink:href="#e" y="144.215"/><use x="80.63" xlink:href="#L" y="144.215"/><use x="92.276" xlink:href="#T" y="136.513"/><path d="m.001 0h27.172" fill="none" stroke="#000" stroke-miterlimit="10" stroke-width=".991" transform="matrix(1 0 0 -1 77.491 147.777)"/><use x="77.491" xlink:href="#f" y="162.584"/><use x="86.967" xlink:href="#M" y="162.584"/><use x="112.345" xlink:href="#U" y="147.709"/><use x="109.99" xlink:href="#d" y="153.974"/><use x="130.646" xlink:href="#f" y="144.979"/><use x="129.963" xlink:href="#N" y="163.673"/><use x="130.637" xlink:href="#O" y="163.673"/><use x="163.085" xlink:href="#Z" y="150.74"/><path d="m253.169 29.888h-79.086a3.986 3.986 0 0 1 -3.984-3.985v-51.803a3.987 3.987 0 0 1 3.984-3.989h79.086c2.2 0 3.984 1.786 3.984 3.989v51.804c0 2.2-1.785 3.985-3.984 3.985zm0 0" fill="#ffb2b2" stroke="#000" stroke-miterlimit="10" stroke-width=".3985" transform="matrix(1 0 0 -1 23.128 144.544)"/><use x="203.188" xlink:href="#V" y="150.74"/><g><use x="214.921" xlink:href="#g" y="154.909"/><use x="223.318" xlink:href="#h" y="154.909"/><use x="233.333" xlink:href="#i" y="154.909"/></g><use x="241.149" xlink:href="#aa" y="150.74"/><use x="249.107" xlink:href="#U" y="150.74"/><use x="249.915" xlink:href="#W" y="150.74"/><use x="261.539" xlink:href="#ab" y="150.74"/><use x="292.577" xlink:href="#Z" y="150.74"/><path d="m375.294 29.888h-71.715a3.986 3.986 0 0 1 -3.984-3.985v-51.803a3.987 3.987 0 0 1 3.984-3.989h71.715c2.2 0 3.984 1.786 3.984 3.989v51.804c0 2.2-1.785 3.985-3.984 3.985zm0 0" fill="#ffb2b2" stroke="#000" stroke-miterlimit="10" stroke-width=".3985" transform="matrix(1 0 0 -1 23.128 144.544)"/><use x="332.68" xlink:href="#V" y="150.74"/><use x="344.414" xlink:href="#P" y="156.322"/><use x="363.272" xlink:href="#aa" y="150.74"/><use x="371.23" xlink:href="#U" y="150.74"/><use x="372.038" xlink:href="#W" y="150.74"/><use x="383.661" xlink:href="#ab" y="150.74"/><use x="414.699" xlink:href="#Z" y="150.74"/><path d="m470.095 29.888h-44.395a3.986 3.986 0 0 1 -3.984-3.985v-51.803a3.987 3.987 0 0 1 3.984-3.989h44.395a3.987 3.987 0 0 1 3.984 3.989v51.804c0 2.2-1.785 3.985-3.984 3.985zm0 0" fill="#ffb2b2" stroke="#000" stroke-miterlimit="10" stroke-width=".3985" transform="matrix(1 0 0 -1 23.128 144.544)"/><use x="454.803" xlink:href="#V" y="148.021"/><g><use x="466.536" xlink:href="#Q" y="151.739"/><use x="478.033" xlink:href="#R" y="151.739"/></g><use x="507.96" xlink:href="#b" y="163.132"/><path d="m588.802 29.888h-62.887a3.986 3.986 0 0 1 -3.984-3.985v-51.803a3.987 3.987 0 0 1 3.984-3.989h62.887a3.984 3.984 0 0 1 3.984 3.989v51.804c0 2.2-1.781 3.985-3.984 3.985zm0 0" fill="#d9d9d9" stroke="#000" stroke-miterlimit="10" stroke-width=".3985" transform="matrix(1 0 0 -1 23.128 144.544)"/><use x="555.015" xlink:href="#X" y="150.74"/><use x="569.379" xlink:href="#S" y="155.748"/><use x="576.779" xlink:href="#aa" y="150.74"/><use x="584.737" xlink:href="#U" y="150.74"/><use x="585.545" xlink:href="#W" y="150.74"/><use x="597.169" xlink:href="#ab" y="150.74"/><use x="636.786" xlink:href="#ac" y="148.951"/><path d="m693.692 29.888h-37.32a3.987 3.987 0 0 1 -3.988-3.985v-51.803a3.988 3.988 0 0 1 3.988-3.989h37.32c2.2 0 3.985 1.786 3.985 3.989v51.804c0 2.2-1.785 3.985-3.985 3.985zm0 0" fill="#b2b2ff" stroke="#000" stroke-miterlimit="10" stroke-width=".3985" transform="matrix(1 0 0 -1 23.128 144.544)"/><use x="685.468" xlink:href="#Y" y="150.509"/><use x="703.434" xlink:href="#S" y="155.517"/><g clip-path="url(#ad)"><path d="m796.656 114.656h-62.886a3.987 3.987 0 0 0 -3.989 3.985v51.804a3.988 3.988 0 0 0 3.989 3.989h62.886c2.2 0 3.985-1.786 3.985-3.989v-51.804c0-2.2-1.786-3.985-3.985-3.985zm0 0" fill="#d9d9d9"/></g><g clip-path="url(#ae)"><path d="m773.528 29.888h-62.886a3.987 3.987 0 0 1 -3.989-3.985v-51.803a3.988 3.988 0 0 1 3.989-3.989h62.886c2.2 0 3.985 1.786 3.985 3.989v51.804c0 2.2-1.786 3.985-3.985 3.985zm0 0" fill="none" stroke="#000" stroke-miterlimit="10" stroke-width=".3985" transform="matrix(1 0 0 -1 23.128 144.544)"/></g><use x="739.737" xlink:href="#X" y="150.74"/><use x="754.101" xlink:href="#S" y="155.748"/><use x="761.501" xlink:href="#aa" y="150.74"/><use x="769.459" xlink:href="#U" y="150.74"/><use x="770.267" xlink:href="#W" y="150.74"/><use x="781.891" xlink:href="#ab" y="150.74"/><g><use x="25.902" xlink:href="#j" y="17.67"/><use x="36.458" xlink:href="#k" y="17.67"/><use x="45.934" xlink:href="#j" y="17.67"/><use x="56.491" xlink:href="#l" y="17.67"/><use x="62.729" xlink:href="#m" y="17.67"/><use x="70.045" xlink:href="#g" y="17.67"/><use x="78.443" xlink:href="#n" y="17.67"/><use x="83.6" xlink:href="#o" y="17.67"/></g><g><use x="97.146" xlink:href="#p" y="17.67"/><use x="107.703" xlink:href="#q" y="17.67"/></g><g><use x="115.563" xlink:href="#r" y="17.67"/><use x="126.119" xlink:href="#m" y="17.67"/><use x="133.436" xlink:href="#s" y="17.67"/></g><g><use x="133.448" xlink:href="#k" y="17.67"/><use x="142.924" xlink:href="#t" y="17.67"/><use x="153.481" xlink:href="#u" y="17.67"/><use x="158.638" xlink:href="#j" y="17.67"/><use x="169.194" xlink:href="#v" y="17.67"/><use x="178.67" xlink:href="#g" y="17.67"/><use x="187.067" xlink:href="#m" y="17.67"/></g><g><use x="200.603" xlink:href="#g" y="17.67"/><use x="209.001" xlink:href="#w" y="17.67"/><use x="219.016" xlink:href="#x" y="17.67"/><use x="229.572" xlink:href="#y" y="17.67"/><use x="239.048" xlink:href="#i" y="17.67"/></g><g><use x="246.385" xlink:href="#u" y="17.67"/><use x="251.543" xlink:href="#k" y="17.67"/><use x="261.019" xlink:href="#j" y="17.67"/></g><g><use x="25.902" xlink:href="#k" y="42.576"/><use x="35.378" xlink:href="#m" y="42.576"/></g><g><use x="48.934" xlink:href="#m" y="42.576"/><use x="56.251" xlink:href="#g" y="42.576"/><use x="64.648" xlink:href="#n" y="42.576"/><use x="69.806" xlink:href="#y" y="42.576"/><use x="79.282" xlink:href="#i" y="42.576"/><use x="86.598" xlink:href="#u" y="42.576"/><use x="91.755" xlink:href="#z" y="42.576"/><use x="101.771" xlink:href="#u" y="42.576"/><use x="106.928" xlink:href="#A" y="42.576"/><use x="114.354" xlink:href="#i" y="42.576"/><use x="121.671" xlink:href="#u" y="42.576"/><use x="126.828" xlink:href="#q" y="42.576"/></g><g><use x="141.465" xlink:href="#B" y="42.576"/><use x="156.065" xlink:href="#u" y="42.576"/><use x="161.223" xlink:href="#m" y="42.576"/><use x="168.539" xlink:href="#y" y="42.576"/><use x="178.015" xlink:href="#q" y="42.576"/></g><g><use x="192.653" xlink:href="#g" y="42.576"/><use x="201.05" xlink:href="#w" y="42.576"/><use x="211.065" xlink:href="#x" y="42.576"/><use x="221.621" xlink:href="#y" y="42.576"/><use x="231.097" xlink:href="#i" y="42.576"/><use x="238.414" xlink:href="#u" y="42.576"/><use x="243.571" xlink:href="#k" y="42.576"/><use x="253.047" xlink:href="#j" y="42.576"/></g><g><use x="71.937" xlink:href="#q" y="256.842"/><use x="80.334" xlink:href="#m" y="256.842"/><use x="87.651" xlink:href="#C" y="256.842"/><use x="97.666" xlink:href="#A" y="256.842"/><use x="105.092" xlink:href="#i" y="256.842"/><use x="112.409" xlink:href="#y" y="256.842"/><use x="121.884" xlink:href="#n" y="256.842"/></g><g><use x="133.282" xlink:href="#u" y="256.842"/><use x="138.439" xlink:href="#k" y="256.842"/><use x="147.915" xlink:href="#j" y="256.842"/><use x="158.472" xlink:href="#A" y="256.842"/></g><g><use x="172.138" xlink:href="#k" y="256.842"/><use x="181.614" xlink:href="#m" y="256.842"/></g><g><use x="71.937" xlink:href="#D" y="281.748"/><use x="82.493" xlink:href="#A" y="281.748"/><use x="89.92" xlink:href="#g" y="281.748"/><use x="98.317" xlink:href="#x" y="281.748"/><use x="108.873" xlink:href="#t" y="281.748"/><use x="119.43" xlink:href="#k" y="281.748"/><use x="128.906" xlink:href="#D" y="281.748"/></g><g><use x="139.999" xlink:href="#k" y="281.748"/><use x="149.475" xlink:href="#i" y="281.748"/><use x="156.792" xlink:href="#g" y="281.748"/><use x="165.189" xlink:href="#j" y="281.748"/></g><g><use x="175.208" xlink:href="#i" y="281.748"/><use x="182.525" xlink:href="#u" y="281.748"/><use x="187.682" xlink:href="#y" y="281.748"/><use x="197.158" xlink:href="#n" y="281.748"/></g><use x="329.759" xlink:href="#E" y="256.609"/><g><use x="342.202" xlink:href="#k" y="256.609"/><use x="351.678" xlink:href="#u" y="256.609"/><use x="356.835" xlink:href="#A" y="256.609"/><use x="364.261" xlink:href="#A" y="256.609"/><use x="371.687" xlink:href="#k" y="256.609"/><use x="381.163" xlink:href="#j" y="256.609"/></g><g><use x="397.96" xlink:href="#g" y="256.609"/><use x="406.357" xlink:href="#w" y="256.609"/><use x="416.372" xlink:href="#x" y="256.609"/><use x="426.929" xlink:href="#y" y="256.609"/><use x="436.404" xlink:href="#i" y="256.609"/><use x="443.721" xlink:href="#u" y="256.609"/><use x="448.878" xlink:href="#k" y="256.609"/><use x="458.354" xlink:href="#j" y="256.609"/></g><g><use x="329.759" xlink:href="#k" y="281.516"/><use x="339.235" xlink:href="#m" y="281.516"/></g><g><use x="352.791" xlink:href="#F" y="281.516"/><use x="367.117" xlink:href="#y" y="281.516"/><use x="376.593" xlink:href="#m" y="281.516"/><use x="383.909" xlink:href="#i" y="281.516"/><use x="391.226" xlink:href="#m" y="281.516"/><use x="398.542" xlink:href="#g" y="281.516"/><use x="406.94" xlink:href="#g" y="281.516"/></g><use x="421.577" xlink:href="#D" y="281.516"/><g><use x="432.671" xlink:href="#k" y="281.516"/><use x="442.146" xlink:href="#i" y="281.516"/><use x="449.463" xlink:href="#g" y="281.516"/><use x="457.86" xlink:href="#j" y="281.516"/></g><g><use x="467.88" xlink:href="#i" y="281.516"/><use x="475.196" xlink:href="#u" y="281.516"/><use x="480.353" xlink:href="#y" y="281.516"/><use x="489.829" xlink:href="#n" y="281.516"/></g><g><use x="304.485" xlink:href="#G" y="17.67"/><use x="316.387" xlink:href="#B" y="17.67"/></g><use x="330.449" xlink:href="#H" y="17.67"/><g><use x="351.015" xlink:href="#k" y="17.67"/><use x="360.491" xlink:href="#m" y="17.67"/></g><g><use x="374.047" xlink:href="#I" y="17.67"/><use x="389.055" xlink:href="#I" y="17.67"/><use x="404.062" xlink:href="#H" y="17.67"/></g><g><use x="304.485" xlink:href="#k" y="42.576"/><use x="313.961" xlink:href="#m" y="42.576"/></g><use x="327.517" xlink:href="#r" y="42.576"/><g><use x="337.537" xlink:href="#C" y="42.576"/><use x="347.552" xlink:href="#J" y="42.576"/><use x="358.108" xlink:href="#m" y="42.576"/><use x="365.425" xlink:href="#u" y="42.576"/><use x="370.582" xlink:href="#t" y="42.576"/><use x="381.139" xlink:href="#A" y="42.576"/></g><g><use x="520.327" xlink:href="#D" y="17.67"/><use x="530.883" xlink:href="#r" y="17.67"/></g><g><use x="540.903" xlink:href="#C" y="17.67"/><use x="550.918" xlink:href="#A" y="17.67"/><use x="558.344" xlink:href="#u" y="17.67"/><use x="563.501" xlink:href="#q" y="17.67"/><use x="571.899" xlink:href="#y" y="17.67"/><use x="581.374" xlink:href="#n" y="17.67"/></g><g><use x="592.772" xlink:href="#k" y="17.67"/><use x="602.248" xlink:href="#m" y="17.67"/><use x="609.564" xlink:href="#J" y="17.67"/><use x="620.121" xlink:href="#u" y="17.67"/><use x="625.278" xlink:href="#i" y="17.67"/><use x="632.595" xlink:href="#y" y="17.67"/><use x="642.07" xlink:href="#n" y="17.67"/><use x="647.228" xlink:href="#A" y="17.67"/></g><g><use x="660.894" xlink:href="#k" y="17.67"/><use x="670.37" xlink:href="#m" y="17.67"/></g><g><use x="683.926" xlink:href="#j" y="17.67"/><use x="694.483" xlink:href="#k" y="17.67"/><use x="703.959" xlink:href="#i" y="17.67"/></g><g><use x="520.327" xlink:href="#K" y="42.576"/><use x="536.281" xlink:href="#g" y="42.576"/><use x="544.678" xlink:href="#A" y="42.576"/><use x="552.104" xlink:href="#r" y="42.576"/></g><g><use x="568.9" xlink:href="#t" y="42.576"/><use x="579.457" xlink:href="#g" y="42.576"/><use x="587.854" xlink:href="#j" y="42.576"/><use x="598.411" xlink:href="#A" y="42.576"/><use x="605.837" xlink:href="#u" y="42.576"/><use x="610.994" xlink:href="#i" y="42.576"/></g><use x="617.773" xlink:href="#C" y="42.576"/><use x="634.008" xlink:href="#y" y="42.576"/><use x="643.504" xlink:href="#j" y="42.576"/><use x="654.04" xlink:href="#t" y="42.576"/><g><use x="670.837" xlink:href="#J" y="42.576"/><use x="681.393" xlink:href="#y" y="42.576"/><use x="690.869" xlink:href="#A" y="42.576"/><use x="698.295" xlink:href="#u" y="42.576"/><use x="703.453" xlink:href="#A" y="42.576"/></g><g><use x="717.119" xlink:href="#A" y="42.576"/><use x="724.545" xlink:href="#g" y="42.576"/><use x="732.942" xlink:href="#i" y="42.576"/></g><g><use x="637.161" xlink:href="#J" y="256.842"/><use x="647.717" xlink:href="#y" y="256.842"/><use x="657.193" xlink:href="#j" y="256.842"/><use x="667.75" xlink:href="#t" y="256.842"/></g><g><use x="684.546" xlink:href="#A" y="256.842"/><use x="691.972" xlink:href="#i" y="256.842"/><use x="699.289" xlink:href="#m" y="256.842"/><use x="706.606" xlink:href="#x" y="256.842"/><use x="717.162" xlink:href="#q" y="256.842"/><use x="725.559" xlink:href="#i" y="256.842"/><use x="732.876" xlink:href="#x" y="256.842"/><use x="743.432" xlink:href="#m" y="256.842"/><use x="750.749" xlink:href="#g" y="256.842"/></g><g><use x="637.161" xlink:href="#k" y="281.748"/><use x="646.637" xlink:href="#m" y="281.748"/></g><g><use x="660.193" xlink:href="#j" y="281.748"/><use x="670.75" xlink:href="#k" y="281.748"/><use x="680.226" xlink:href="#i" y="281.748"/></g><path d="m111.614 94.43-33.613-60.373" fill="none" stroke="#000" stroke-miterlimit="10" stroke-width="1.59404" transform="matrix(1 0 0 -1 23.128 144.544)"/><path d="m98.922 114.457c1.25-1.469 3.57-4.078 6.164-5.234-2.742.64-4.066-.098-4.965-2.762.387 2.812-.61 6.156-1.2 7.996zm0 0"/><path d="m141.981-94.429 68.266 61.305" fill="none" stroke="#000" stroke-miterlimit="10" stroke-width="1.59404" transform="matrix(1 0 0 -1 23.128 144.544)"/><path d="m236.754 174.633c-1.66.98-4.7 2.695-7.527 2.945 2.796.285 3.808 1.41 3.793 4.227.55-2.785 2.578-5.625 3.734-7.172zm0 0"/><path d="m375.302-94.429-33.653 60.375" fill="none" stroke="#000" stroke-miterlimit="10" stroke-width="1.59404" transform="matrix(1 0 0 -1 23.128 144.544)"/><path d="m362.563 174.633c.593 1.836 1.59 5.18 1.207 7.996.898-2.668 2.222-3.406 4.96-2.766-2.593-1.156-4.914-3.761-6.168-5.23zm0 0"/><path d="m368.99 94.43 75.386-61.472" fill="none" stroke="#000" stroke-miterlimit="10" stroke-width="1.59404" transform="matrix(1 0 0 -1 23.128 144.544)"/><path d="m471.027 114.457c-1.23-1.488-3.39-4.23-4.074-6.984.149 2.808-.808 3.98-3.59 4.398 2.836.117 5.957 1.684 7.664 2.586zm0 0"/><path d="m593.18 94.43-33.613-60.374" fill="none" stroke="#000" stroke-miterlimit="10" stroke-width="1.59404" transform="matrix(1 0 0 -1 23.128 144.544)"/><path d="m580.488 114.457c1.25-1.469 3.57-4.078 6.164-5.234-2.742.64-4.062-.098-4.965-2.762.387 2.812-.609 6.156-1.199 7.996zm0 0"/><path d="m645.067 94.43 93.23-61.831" fill="none" stroke="#000" stroke-miterlimit="10" stroke-width="1.59404" transform="matrix(1 0 0 -1 23.128 144.544)"/><path d="m765.21 114.457c-1.366-1.363-3.788-3.875-4.737-6.55.425 2.78-.41 4.042-3.141 4.73 2.836-.164 6.094 1.09 7.879 1.82zm0 0"/><path d="m675.032-94.429v59.797" fill="none" stroke="#000" stroke-miterlimit="10" stroke-width="1.59404" transform="matrix(1 0 0 -1 23.128 144.544)"/><path d="m698.16 174.633c-.379 1.89-1.137 5.3-2.84 7.57 2.082-1.894 3.598-1.894 5.68 0-1.703-2.27-2.46-5.68-2.84-7.57zm0 0"/></svg>