<svg xmlns="http://www.w3.org/2000/svg" xmlns:xlink="http://www.w3.org/1999/xlink" width="852.451" height="313.994"><defs><path id="a" d="M22.75 18.14c0-.078 0-.218-.219-.437C19.11 14.203 9.97 4.688 9.97-18.516c0-23.203 9-32.64 12.64-36.359 0-.078.141-.219.141-.453 0-.219-.219-.36-.516-.36-.812 0-7.14 5.5-10.78 13.672-3.72 8.25-4.767 16.282-4.767 23.422 0 5.36.532 14.422 4.985 24.016 3.578 7.734 9.672 13.172 10.562 13.172.375 0 .516-.157.516-.453m0 0"/><path id="w" d="M19.563-18.516c0-5.359-.532-14.422-4.985-24.015C11-50.266 4.906-55.688 4.016-55.688c-.22 0-.516.063-.516.438 0 .156.063.219.14.375 3.579 3.719 12.641 13.156 12.641 36.281 0 23.203-9 32.64-12.64 36.36-.079.156-.141.234-.141.375 0 .375.297.453.516.453.812 0 7.14-5.5 10.78-13.688 3.72-8.25 4.767-16.281 4.767-23.422m0 0"/><path id="b" d="M16.328-5.703c.422 0 .875 0 .875-.484 0-.5-.453-.5-.875-.5H2.922c-.422 0-.86 0-.86.5 0 .484.438.484.86.484Zm0 0"/><path id="i" d="M19.328-16.375c.047-.078.125-.25.125-.36 0-.171-.031-.187-.594-.187H1.766c-.578 0-.594.016-.594.188 0 .109.062.28.11.359L9.64.344c.172.328.25.469.672.469.421 0 .484-.141.671-.47ZM4.234-15.141h13.61L11.047-1.516Zm0 0"/><path id="c" d="M8.234-11.422v-.469H1.22v.47Zm0 0"/><path id="f" d="M8.61-3.203h-.376c-.203 1.469-.359 1.719-.453 1.844-.093.156-1.578.156-1.875.156H1.938A126 126 0 0 1 5.89-5.172c1.25-1.187 2.718-2.594 2.718-4.64 0-2.438-1.937-3.844-4.109-3.844-2.266 0-3.656 2-3.656 3.86 0 .812.61.921.844.921.218 0 .828-.125.828-.86 0-.64-.532-.828-.828-.828-.125 0-.235.032-.329.063.391-1.75 1.594-2.61 2.86-2.61 1.797 0 2.968 1.422 2.968 3.297 0 1.797-1.046 3.344-2.234 4.688L.843-.469V0h7.282Zm0 0"/><path id="n" d="M7.875-4.86c.078-.077.078-.124.078-.327 0-2.11-1.11-3.938-3.469-3.938C2.297-9.125.563-7.047.563-4.5c0 2.688 1.953 4.672 4.14 4.672 2.313 0 3.234-2.203 3.234-2.625 0-.156-.125-.156-.171-.156-.141 0-.172.046-.25.297C7.063-.907 5.922-.203 4.859-.203c-.89 0-1.78-.5-2.343-1.406-.641-1.063-.641-2.282-.641-3.25Zm-5.969-.312c.14-2.969 1.735-3.625 2.563-3.625 1.39 0 2.343 1.313 2.375 3.625Zm0 0"/><path id="o" d="M5.375-4.812a49 49 0 0 1 1.89-2.391c.688-.797 1.47-1.125 2.376-1.14v-.532c-.344.016-1.063.031-1.438.031-.562 0-1.203 0-1.672-.031v.531c.282.047.453.25.453.531 0 .375-.203.61-.312.75L5.14-5.124 3.328-7.5c-.187-.219-.187-.266-.187-.375 0-.25.203-.453.562-.469v-.531c-.5.031-1.39.031-1.906.031-.563 0-1.219 0-1.672-.031v.531c1.11 0 1.36.078 1.86.703l2.374 3.079c.047.03.141.156.141.218 0 .094-1.797 2.297-2.016 2.594C1.547-.64.578-.562.016-.531V0a43 43 0 0 1 1.453-.047c.406 0 1.312 0 1.687.047v-.531c-.125-.031-.453-.063-.453-.547 0-.375.172-.594.36-.844l1.703-2.11 1.797 2.345c.171.218.421.53.421.671 0 .297-.25.454-.578.485V0c.5-.047 1.375-.047 1.89-.047.563 0 1.22 0 1.688.047v-.531c-1.046 0-1.343-.047-1.843-.688Zm0 0"/><path id="p" d="M3.125-8.344h2.89v-.531h-2.89v-3.828H2.75C2.703-10.578 1.984-8.72.234-8.672v.328h1.797v5.797c0 .406 0 2.719 2.39 2.719 1.22 0 1.923-1.203 1.923-2.734v-1.172h-.375v1.156c0 1.422-.563 2.375-1.422 2.375-.594 0-1.422-.422-1.422-2.297Zm0 0"/><path id="B" d="M8.578-6.281c0-1.047-.219-2.766-2.656-2.766-1.625 0-2.469 1.266-2.781 2.078h-.016v-2.078l-2.437.235v.53c1.218 0 1.406.126 1.406 1.11v5.75c0 .781-.094.89-1.406.89V0c.484-.047 1.406-.047 1.937-.047s1.469 0 1.953.047v-.531c-1.312 0-1.39-.094-1.39-.89v-3.97c0-1.906 1.156-3.328 2.593-3.328 1.532 0 1.703 1.36 1.703 2.36v4.937c0 .781-.093.89-1.406.89V0c.484-.047 1.406-.047 1.938-.047.53 0 1.468 0 1.968.047v-.531c-1.328 0-1.406-.094-1.406-.89Zm0 0"/><path id="C" d="M8.906-4.422c0-2.64-1.922-4.703-4.172-4.703S.563-7.062.563-4.422c0 2.61 1.921 4.594 4.171 4.594s4.172-1.984 4.172-4.594M4.734-.203c-.968 0-1.796-.578-2.28-1.39-.517-.923-.579-2.079-.579-2.985 0-.875.047-1.953.578-2.875.422-.688 1.219-1.344 2.281-1.344.922 0 1.704.516 2.204 1.235.64.968.64 2.343.64 2.984 0 .797-.031 2.031-.594 3.031-.578.953-1.468 1.344-2.25 1.344m0 0"/><path id="D" d="M5.266-3.984v-.907H.078v.907Zm0 0"/><path id="E" d="M3.094-4.875c0-1.984.86-3.844 2.406-3.844.14 0 .281.016.422.078 0 0-.453.157-.453.688 0 .5.39.703.703.703.25 0 .703-.14.703-.719 0-.672-.656-1.078-1.36-1.078-1.562 0-2.25 1.531-2.452 2.25H3.03v-2.25l-2.39.235v.53c1.218 0 1.406.126 1.406 1.11v5.75c0 .781-.078.89-1.406.89V0c.5-.047 1.453-.047 1.984-.047.594 0 1.656 0 2.203.047v-.531c-1.484 0-1.734 0-1.734-.938Zm0 0"/><path id="F" d="m3.156-14.328-2.453.219v.53c1.219 0 1.406.126 1.406 1.126v11.031c0 .781-.078.89-1.406.89V0c.5-.047 1.406-.047 1.922-.047.531 0 1.438 0 1.938.047v-.531c-1.313 0-1.407-.094-1.407-.89Zm0 0"/><path id="G" d="M3.422-.844a.83.83 0 0 0-.844-.843c-.406 0-.844.328-.844.843A.83.83 0 0 0 2.578 0a.84.84 0 0 0 .844-.844m0 0"/><path id="H" d="M9.047-14.031c0-.36-.016-.39-.14-.39-.126 0-.173.093-.25.265l-.626 1.375c-.781-1.14-1.984-1.656-3.281-1.656a3.77 3.77 0 0 0-3.797 3.78c0 .641.14 1.548.844 2.423.766.937 1.484 1.109 3.14 1.547.625.156 1.657.421 1.86.515 1.172.484 1.797 1.734 1.797 2.89 0 1.485-1.047 3.079-2.844 3.079-2.219 0-4.281-1.25-4.422-4.14-.031-.329-.047-.344-.187-.344-.172 0-.188.015-.188.437v4.172c0 .375.016.39.14.39.141 0 .188-.109.47-.75.03-.062.03-.093.421-.89C3.016.047 4.75.328 5.75.328c2.25 0 3.828-1.875 3.828-4.062 0-1.078-.39-1.907-.61-2.282-.874-1.312-1.796-1.562-2.796-1.812-.14-.063-.188-.063-1.344-.36-1.11-.28-1.578-.421-2.094-.984-.593-.64-.796-1.297-.796-1.969 0-1.328 1.078-2.796 2.828-2.796 2.203 0 3.562 1.546 3.875 4.124.062.376.078.391.218.391.188 0 .188-.062.188-.406Zm0 0"/><path id="I" d="M7.203-7.234c-.39 0-.969 0-.969.734 0 .578.485.734.75.734.141 0 .735-.062.735-.78 0-1.47-1.39-2.579-2.985-2.579-2.187 0-4.046 2.016-4.046 4.656 0 2.75 1.937 4.64 4.046 4.64 2.563 0 3.204-2.374 3.204-2.608 0-.079-.032-.141-.172-.141-.141 0-.172.015-.25.281C6.984-.625 5.796-.203 4.922-.203 3.594-.203 2-1.422 2-4.484c0-3.141 1.531-4.282 2.75-4.282.813 0 2 .407 2.453 1.532m0 0"/><path id="J" d="M8.578-6.281c0-1.047-.219-2.766-2.656-2.766-1.688 0-2.516 1.36-2.766 2.047h-.015v-7.328l-2.453.219v.53c1.218 0 1.406.126 1.406 1.126v11.031c0 .781-.094.89-1.406.89V0c.484-.047 1.406-.047 1.937-.047s1.469 0 1.953.047v-.531c-1.312 0-1.39-.094-1.39-.89v-3.97c0-1.906 1.156-3.328 2.593-3.328 1.532 0 1.703 1.36 1.703 2.36v4.937c0 .781-.093.89-1.406.89V0c.484-.047 1.406-.047 1.938-.047.53 0 1.468 0 1.968.047v-.531c-1.328 0-1.406-.094-1.406-.89Zm0 0"/><path id="K" d="M3.656-12.75a.81.81 0 0 0-.812-.828c-.531 0-.813.469-.813.812 0 .407.328.829.813.829.437 0 .812-.36.812-.813m3.782 0a.833.833 0 0 0-.829-.828.817.817 0 0 0-.812.812.82.82 0 1 0 1.64.016m0 0"/><path id="L" d="M6.031-14.11v.532c1.219 0 1.407.125 1.407 1.125v4.828c-.079-.094-.938-1.422-2.61-1.422-2.094 0-4.14 1.875-4.14 4.61C.688-1.735 2.609.172 4.624.172c1.75 0 2.672-1.375 2.766-1.516V.172L9.89 0v-.531c-1.22 0-1.407-.125-1.407-1.125v-12.672Zm1.36 11.626c0 .625-.375 1.187-.844 1.593-.703.625-1.406.72-1.797.72C4.156-.172 2-.47 2-4.422 2-8.47 4.406-8.72 4.938-8.72c.953 0 1.718.531 2.187 1.281.266.438.266.5.266.875Zm0 0"/><path id="M" d="M3.203-12.719c0-.453-.375-.86-.844-.86a.854.854 0 0 0-.843.86.84.84 0 0 0 .843.844.85.85 0 0 0 .844-.844M.781-8.813v.532c1.156 0 1.328.125 1.328 1.11v5.75c0 .78-.078.89-1.406.89V0c.5-.047 1.39-.047 1.906-.047.485 0 1.344 0 1.813.047v-.531c-1.219 0-1.266-.125-1.266-.875v-7.64Zm0 0"/><path id="N" d="M2.297-3.719a3.08 3.08 0 0 0 1.89.656c1.641 0 3.047-1.28 3.047-2.984 0-.547-.171-1.375-.796-2.016.578-.609 1.437-.812 1.906-.812.078 0 .203 0 .312.063-.078.015-.265.093-.265.421 0 .266.187.454.453.454.312 0 .469-.204.469-.47 0-.39-.313-.812-.97-.812-.827 0-1.546.406-2.124.938a3 3 0 0 0-2.032-.766c-1.625 0-3.03 1.281-3.03 3 0 1.172.687 1.922.89 2.125-.625.719-.625 1.563-.625 1.672 0 .531.203 1.328.906 1.75C1.266-.234.406.594.406 1.625c0 1.5 1.969 2.594 4.328 2.594 2.266 0 4.313-1.063 4.313-2.61 0-2.812-3.063-2.812-4.64-2.812-.485 0-1.329 0-1.438-.016-.64-.11-1.063-.687-1.063-1.406 0-.187 0-.64.39-1.094m1.89.313c-1.812 0-1.812-2.235-1.812-2.64 0-.423 0-2.657 1.813-2.657 1.828 0 1.828 2.234 1.828 2.656 0 .406 0 2.64-1.828 2.64m.547 7.265c-2.062 0-3.5-1.093-3.5-2.234 0-.64.36-1.234.813-1.562.515-.36.719-.36 2.125-.36 1.687 0 4.047 0 4.047 1.922 0 1.14-1.422 2.234-3.485 2.234m0 0"/><path id="O" d="M8.484-9.047h-.328L7.546-7c-.484-1.094-1.343-2.047-2.734-2.047-2.109 0-4.124 1.875-4.124 4.61C.688-1.735 2.577.172 4.64.172c1.593 0 2.484-1.219 2.75-1.688V2.61c0 .782-.079.875-1.407.875v.547c.5-.047 1.407-.047 1.954-.047.53 0 1.468 0 1.953.047v-.547c-1.313 0-1.407-.078-1.407-.875ZM7.438-2.828c0 .89-.75 1.719-.813 1.781-.64.719-1.375.875-1.875.875C3.203-.172 2-2.125 2-4.422c0-2.422 1.36-4.25 2.953-4.25 1.656 0 2.484 1.875 2.484 2.953Zm0 0"/><path id="P" d="M6.078-8.812v.53c1.219 0 1.406.126 1.406 1.11v3.766c0 1.734-.937 3.234-2.468 3.234-1.688 0-1.828-1-1.828-2.078v-6.797l-2.5.235v.53c.828 0 1.375 0 1.406.829v3.969c0 1.375 0 2.265.531 2.843.266.266.781.813 2.266.813 1.765 0 2.437-1.5 2.609-1.922h.016V.172L9.984 0v-.531c-1.218 0-1.406-.125-1.406-1.125v-7.39Zm0 0"/><path id="Q" d="M7.438-5.344c0-1.375 0-2.093-.875-2.89a3.47 3.47 0 0 0-2.344-.891c-1.64 0-2.813 1.281-2.813 2.64 0 .766.625.798.735.798.28 0 .75-.157.75-.735 0-.516-.391-.75-.75-.75-.079 0-.172.031-.235.047.422-1.297 1.547-1.672 2.266-1.672 1.031 0 2.172.906 2.172 2.64v.907c-1.219.047-2.688.203-3.844.828C1.203-3.703.828-2.672.828-1.875.828-.297 2.688.172 3.781.172c1.14 0 2.188-.64 2.64-1.828C6.47-.75 7.048.078 7.954.078c.438 0 1.531-.281 1.531-1.922V-3H9.11v1.188c0 1.25-.562 1.421-.828 1.421-.844 0-.844-1.078-.844-1.984ZM6.344-2.875c0 1.797-1.282 2.703-2.422 2.703-1.031 0-1.828-.75-1.828-1.703 0-.625.265-1.719 1.453-2.375 1-.562 2.14-.64 2.797-.687Zm0 0"/><path id="R" d="M8.078-7.016c.188-.468.516-1.28 1.719-1.328v-.531c-.39.016-.922.031-1.313.031-.421 0-1.109 0-1.515-.031v.531c.515.047.797.281.797.828 0 .188 0 .22-.125.516L5.375-1.266 2.906-7.453c-.125-.266-.125-.313-.125-.39 0-.5.688-.5 1-.5v-.532c-.5.031-1.406.031-1.922.031-.562 0-1.203 0-1.656-.031v.531c.781 0 1.219 0 1.469.64l3 7.517c.125.312.14.359.328.359s.203-.047.328-.36Zm0 0"/><path id="S" d="M6.375-8.719c0-.375-.016-.39-.14-.39-.079 0-.094.015-.344.328-.063.078-.25.297-.313.375-.656-.703-1.594-.719-1.937-.719-2.297 0-3.125 1.188-3.125 2.39 0 1.86 2.109 2.298 2.703 2.423 1.312.265 1.765.343 2.187.718.282.25.735.703.735 1.453 0 .86-.5 1.97-2.407 1.97-1.796 0-2.437-1.36-2.812-3.173-.047-.297-.047-.312-.219-.312s-.187.015-.187.437V-.25c0 .375.015.39.14.39.11 0 .125-.015.235-.187.125-.187.437-.672.562-.875C1.86-.375 2.578.172 3.734.172c2.047 0 3.141-1.125 3.141-2.734 0-1.047-.547-1.61-.828-1.86-.61-.64-1.344-.781-2.203-.953-1.14-.25-2.578-.531-2.578-1.797 0-.531.28-1.672 2.375-1.672 2.203 0 2.328 2.063 2.375 2.735.015.093.125.125.187.125.172 0 .172-.063.172-.422Zm0 0"/><path id="T" d="M1.078-14.11v.532c1.422 0 1.656 0 1.656.937v11.172c0 .938-.234.938-1.656.938V0h6.563c3.328 0 6-3.062 6-6.937 0-3.907-2.625-7.172-6-7.172ZM4.922-.53c-.828 0-.875-.11-.875-.813v-11.422c0-.703.047-.812.875-.812h2.312c1.704 0 4.875 1.015 4.875 6.64 0 2.907-.859 4.094-1.25 4.641A4.52 4.52 0 0 1 7.234-.53Zm0 0"/><path id="U" d="M4.547 3.484c-1.328 0-1.406-.078-1.406-.875v-3.875C3.734-.39 4.609.172 5.703.172c2.063 0 4.156-1.828 4.156-4.64 0-2.594-1.796-4.579-3.937-4.579-1.234 0-2.25.688-2.828 1.5v-1.5L.64-8.812v.53c1.218 0 1.406.126 1.406 1.11V2.61c0 .782-.078.875-1.406.875v.547c.5-.047 1.406-.047 1.937-.047.547 0 1.469 0 1.969.047ZM3.14-6.484c0-.297 0-.72.812-1.485a2.8 2.8 0 0 1 1.828-.703c1.516 0 2.75 1.875 2.75 4.235 0 2.343-1.328 4.265-2.953 4.265-.75 0-1.547-.344-2.172-1.312-.265-.453-.265-.578-.265-.907Zm0 0"/><path id="V" d="M6.328 5.047c0-.031 0-.063-.062-.125-.953-.969-3.5-3.625-3.5-10.063 0-6.453 2.5-9.078 3.515-10.109 0-.016.047-.062.047-.125 0-.062-.062-.094-.156-.094-.219 0-1.984 1.531-2.984 3.797-1.047 2.297-1.329 4.531-1.329 6.5 0 1.5.141 4.016 1.391 6.688.984 2.14 2.672 3.656 2.922 3.656.11 0 .156-.047.156-.125m0 0"/><path id="W" d="M3.156-8.344h2.36v-.531H3.125v-2.5c0-1.719.86-2.797 1.75-2.797.266 0 .578.078.781.235-.156.03-.593.187-.593.703 0 .53.406.703.703.703.28 0 .703-.172.703-.703 0-.797-.75-1.266-1.578-1.266-1.172 0-2.782.969-2.782 3.156v2.469H.453v.531H2.11v6.922c0 .781-.078.89-1.406.89V0c.5-.047 1.438-.047 1.985-.047.593 0 1.656 0 2.203.047v-.531c-1.485 0-1.735 0-1.735-.938Zm0 0"/><path id="X" d="M8.406-14.75c.11-.266.11-.312.11-.344a.357.357 0 0 0-.36-.375c-.25 0-.328.156-.406.406L1.047 4.422c-.094.266-.094.312-.094.344 0 .25.188.375.344.375.25 0 .328-.157.422-.407Zm0 0"/><path id="Y" d="M4.094-6.625H7.39c2.672 0 4.609-1.734 4.609-3.703s-1.906-3.781-4.61-3.781h-6.31v.53c1.422 0 1.656 0 1.656.938v11.172c0 .938-.234.938-1.656.938V0c.594-.047 1.688-.047 2.328-.047s1.735 0 2.344.047v-.531c-1.437 0-1.656 0-1.656-.938Zm-.047-.437v-5.704c0-.703.047-.812.875-.812H7c2.672 0 3.438 1.531 3.438 3.25 0 1.875-.922 3.265-3.438 3.265Zm0 0"/><path id="Z" d="M7.5-14.281c-.11-.266-.14-.328-.36-.328-.202 0-.234.062-.343.328L2.422-1.875C2.032-.765 1.203-.531.469-.531V0c.375-.047 1.203-.047 1.594-.047.515 0 1.343 0 1.843.047v-.531c-.969-.047-1.125-.703-1.125-.953 0-.188.047-.297.094-.422l1.094-3.078h5.406l1.25 3.515c.094.25.094.297.094.375 0 .563-.89.563-1.281.563V0c.593-.047 1.671-.047 2.312-.047.547 0 1.578 0 2.063.047v-.531c-1.094 0-1.454 0-1.735-.766Zm-.828 1.656 2.516 7.11H4.156Zm0 0"/><path id="aa" d="M17.828-12.25c.188-.562.5-1.281 1.688-1.328v-.531a43 43 0 0 1-1.438.046c-.515 0-1.422 0-1.922-.046v.53c.922.032 1.313.548 1.313 1.048 0 .14-.016.219-.094.453L14.172-1.875l-3.375-10.75c-.063-.203-.078-.281-.078-.375 0-.578.906-.578 1.297-.578v-.531c-.594.046-1.625.046-2.266.046-.516 0-1.453 0-1.922-.046v.53c.953 0 1.203.063 1.406.438.079.188.407 1.266.407 1.329a.7.7 0 0 1-.063.265l-3.031 9.64-3.36-10.718c-.109-.281-.109-.328-.109-.375 0-.578.906-.578 1.328-.578v-.531c-.61.046-1.64.046-2.281.046-.531 0-1.437 0-1.937-.046v.53c1.234 0 1.328.126 1.53.798L5.75-.016c.094.313.094.344.281.344.172 0 .235-.031.313-.328l3.515-11.203L13.36 0c.094.297.157.328.313.328.187 0 .187-.031.297-.344Zm0 0"/><path id="ab" d="M13.969-6.281c0-1.032-.188-2.766-2.656-2.766-1.391 0-2.376.953-2.735 2.063h-.031c-.25-1.688-1.469-2.063-2.625-2.063-1.625 0-2.469 1.266-2.781 2.078h-.016v-2.078l-2.437.235v.53c1.218 0 1.406.126 1.406 1.11v5.75c0 .781-.094.89-1.406.89V0c.484-.047 1.406-.047 1.937-.047s1.469 0 1.953.047v-.531c-1.312 0-1.39-.094-1.39-.89v-3.97c0-1.906 1.156-3.328 2.593-3.328 1.532 0 1.703 1.36 1.703 2.36v4.937c0 .781-.093.89-1.406.89V0c.484-.047 1.406-.047 1.938-.047.53 0 1.468 0 1.968.047v-.531c-1.328 0-1.406-.094-1.406-.89v-3.97c0-1.906 1.156-3.328 2.594-3.328 1.531 0 1.703 1.36 1.703 2.36v4.937c0 .781-.094.89-1.406.89V0c.484-.047 1.406-.047 1.937-.047s1.469 0 1.969.047v-.531c-1.328 0-1.406-.094-1.406-.89Zm0 0"/><path id="ac" d="M5.438-5.14c0-1.485-.157-4.016-1.391-6.672-.984-2.157-2.688-3.657-2.938-3.657-.062 0-.14.016-.14.125q0 .047.047.094C2-14.219 4.53-11.594 4.53-5.172c0 6.453-2.5 9.078-3.515 10.11-.032.046-.047.062-.047.109 0 .094.078.125.14.125.235 0 1.985-1.531 3-3.813 1.032-2.28 1.329-4.515 1.329-6.5m0 0"/><path id="ad" d="M11.594-12.64c0-.938.219-.938 1.64-.938v-.531c-.593.046-1.687.046-2.328.046s-1.734 0-2.328-.046v.53c1.422 0 1.64 0 1.64.938v5.047H4.064v-5.047c0-.937.234-.937 1.656-.937v-.531c-.594.046-1.688.046-2.328.046-.641 0-1.735 0-2.344-.046v.53c1.437 0 1.656 0 1.656.938v11.172c0 .938-.219.938-1.656.938V0c.61-.047 1.703-.047 2.344-.047s1.734 0 2.328.047v-.531c-1.422 0-1.657 0-1.657-.938v-5.593h6.157v5.593c0 .938-.219.938-1.64.938V0c.593-.047 1.687-.047 2.327-.047s1.735 0 2.328.047v-.531c-1.421 0-1.64 0-1.64-.938Zm0 0"/><path id="ae" d="M8.063-7.062C8.578-8.328 9.5-8.344 9.797-8.344v-.531c-.39.016-.922.031-1.313.031-.421 0-1.109 0-1.515-.031v.531c.781.063.797.64.797.797 0 .219-.047.313-.141.563l-2.25 5.578-2.469-6.031c-.094-.25-.094-.391-.094-.407 0-.453.47-.5.97-.5v-.531c-.5.031-1.391.031-1.907.031-.547 0-1.219 0-1.672-.031v.531c1.125 0 1.25.11 1.516.766L4.797 0C3.859 2.438 3.328 3.86 2.03 3.86c-.234 0-.75-.063-1.125-.438.485-.031.688-.328.688-.672 0-.36-.25-.656-.672-.656-.453 0-.672.297-.672.672 0 .828.844 1.422 1.781 1.422C3.22 4.188 3.97 3.03 4.375 2Zm0 0"/><path id="af" d="M11.203-5.219h-.375C10.656-3.187 10.391-.53 6.86-.53H4.938c-.829 0-.875-.11-.875-.813v-11.281c0-.734.046-.953 1.625-.953h.453v-.531c-.86.046-1.844.046-2.688.046-.64 0-1.797 0-2.406-.046v.53c1.437 0 1.656 0 1.656.938v11.172c0 .938-.219.938-1.656.938V0h9.656Zm0 0"/><path id="ag" d="M12.828-4.11c0-.78.063-.89 1.344-.89v-.531c-.5.031-1.61.031-2.172.031-.578 0-2.187-.016-2.969-.031V-5h.61c1.78 0 1.828.234 1.828.969v1.36c0 2.28-2.688 2.468-3.328 2.468-2.125 0-5.625-1.469-5.625-6.86 0-5.39 3.437-6.843 5.437-6.843 2.328 0 4.031 2.031 4.422 4.906.047.234.047.281.219.281.234 0 .234-.047.234-.406v-4.906c0-.36-.015-.39-.14-.39-.094 0-.11.03-.25.265l-.907 1.734c-1.015-1.265-2.25-2.015-3.844-2.015-3.53 0-6.734 3.124-6.734 7.374C.953-2.827 4.093.329 7.72.329c1.687 0 3.312-.594 3.953-1.781.344.86.922 1.437 1.031 1.437.11 0 .125-.03.125-.39Zm0 0"/><path id="ah" d="M3.094-14.328.64-14.11v.53c1.218 0 1.406.126 1.406 1.126V0h.375l.594-1.469C3.609-.5 4.5.171 5.703.171c2.063 0 4.156-1.827 4.156-4.64 0-2.64-1.859-4.578-3.953-4.578-1.281 0-2.187.688-2.812 1.485ZM3.14-6.5c0-.375 0-.437.28-.875.813-1.234 1.97-1.344 2.36-1.344.625 0 2.75.328 2.75 4.235 0 4.093-2.437 4.312-2.937 4.312-.64 0-1.563-.234-2.235-1.437C3.14-2 3.14-2.047 3.14-2.422Zm0 0"/><path id="ai" d="M12.016-7.062c.422-1.22 1.25-1.266 1.562-1.282v-.531c-.422.016-.828.031-1.25.031-.39 0-1.281 0-1.625-.031v.531c.64.047.985.406.985.922 0 .156-.032.344-.079.484l-1.937 5.61-2.11-6.094c-.046-.14-.109-.297-.109-.39 0-.532.703-.532 1.031-.532v-.531c-.468.031-1.343.031-1.828.031-.515 0-1.062 0-1.531-.031v.531c1.14 0 1.14.047 1.563 1.344L4.797-1.469 2.75-7.437c-.11-.266-.11-.313-.11-.375 0-.532.704-.532 1.032-.532v-.531c-.485.031-1.36.031-1.875.031-.453 0-1.156 0-1.594-.031v.531c.906 0 1.14.063 1.36.75L4.108-.172c.079.281.141.344.313.344.14 0 .219-.047.328-.36l2.125-6.234L9.031-.187c.094.312.188.359.328.359.157 0 .22-.063.313-.344Zm0 0"/><path id="aj" d="M12.531-5.219h-.36C11.72-2.187 11.439-.53 7.814-.53H4.938c-.829 0-.875-.11-.875-.813v-5.703h1.953c1.937 0 2.125.703 2.125 2.422h.375V-10H8.14c0 1.719-.188 2.422-2.125 2.422H4.063v-5.14c0-.704.046-.813.875-.813h2.828c3.203 0 3.578 1.281 3.859 4.031H12l-.5-4.562H1.047v.53c1.437 0 1.656 0 1.656.938v11.125c0 .938-.219.938-1.656.938V0h10.75Zm0 0"/><path id="ak" d="M12.188-12.203c.187-.453.515-1.344 1.906-1.375v-.531c-.485.046-1.016.046-1.531.046-.5 0-1.344 0-1.829-.046v.53c1.047.063 1.079.798 1.079.923 0 .219-.063.36-.126.531L7.626-1.531 3.359-12.656c-.046-.156-.093-.25-.093-.36 0-.562.828-.562 1.265-.562v-.531c-.672.046-1.64.046-2.328.046-.531 0-1.5 0-2-.046v.53c1.203 0 1.422.095 1.672.75L6.797 0c.11.297.125.328.344.328.234 0 .25-.031.359-.328Zm0 0"/><path id="d" d="M5.797-13.812a1.1 1.1 0 0 0 .062-.313c0-.203-.203-.203-.234-.203s-1.047.078-1.14.094c-.36.015-.657.062-1.032.078-.515.047-.672.062-.672.437 0 .203.172.203.469.203 1 0 1.031.188 1.031.407 0 .109-.047.28-.062.343l-3 11.954c-.078.312-.078.359-.078.484 0 .453.343.531.547.531.359 0 .625-.265.734-.5l.922-3.734c.11-.453.234-.89.328-1.344.234-.86.234-.89.625-1.484.39-.594 1.328-1.844 2.906-1.844.828 0 1.125.625 1.125 1.453 0 1.156-.812 3.406-1.265 4.64-.188.5-.282.766-.282 1.141 0 .938.64 1.672 1.625 1.672 1.922 0 2.64-3.031 2.64-3.156 0-.11-.077-.188-.202-.188-.188 0-.203.063-.313.407-.469 1.656-1.234 2.53-2.062 2.53-.203 0-.531-.03-.531-.687 0-.53.25-1.203.328-1.421.375-1 1.297-3.438 1.297-4.626 0-1.25-.72-2.171-2.297-2.171-1.172 0-2.203.562-3.047 1.625Zm0 0"/><path id="g" d="M4.25-6.047c.047-.125.563-1.156 1.328-1.828.531-.484 1.234-.828 2.047-.828.828 0 1.11.625 1.11 1.453 0 .125 0 .531-.25 1.5l-.516 2.14c-.157.61-.547 2.141-.594 2.376-.078.312-.203.843-.203.922 0 .296.219.515.531.515.625 0 .719-.469.906-1.219l1.25-4.937c.032-.156 1.11-2.75 3.375-2.75.829 0 1.125.625 1.125 1.453 0 1.156-.812 3.406-1.265 4.64-.188.5-.281.766-.281 1.141 0 .938.64 1.672 1.624 1.672 1.922 0 2.641-3.031 2.641-3.156 0-.11-.078-.188-.203-.188-.187 0-.203.063-.312.407-.47 1.656-1.235 2.53-2.063 2.53-.203 0-.531-.03-.531-.687 0-.53.25-1.203.328-1.421.375-1 1.297-3.438 1.297-4.626 0-1.25-.719-2.171-2.297-2.171-1.375 0-2.5.78-3.313 2-.062-1.11-.75-2-2.296-2-1.844 0-2.813 1.297-3.188 1.812-.062-1.172-.906-1.812-1.812-1.812-.594 0-1.079.297-1.47 1.078-.374.734-.655 2-.655 2.078 0 .094.078.187.218.187.172 0 .188-.015.313-.5.312-1.218.703-2.437 1.531-2.437.469 0 .64.344.64.953 0 .453-.203 1.266-.359 1.906l-.578 2.235c-.078.39-.297 1.312-.406 1.687-.14.531-.375 1.516-.375 1.61 0 .296.234.515.547.515a.78.78 0 0 0 .687-.437c.047-.094.235-.813.344-1.235l.453-1.86Zm0 0"/><path id="j" d="M11.047-12.328c-.25.219-1.016.953-1.016 1.234 0 .203.188.39.406.39.188 0 .266-.124.407-.327a5 5 0 0 1 1.531-1.281c.203-.126.344-.188.344-.407 0-.187-.156-.297-.281-.39-.579-.407-.72-.953-.782-1.203-.062-.172-.125-.422-.422-.422a.383.383 0 0 0-.375.406c0 .172.125.672.516 1.234H4.438c-.344 0-.704 0-.704.39 0 .376.375.376.704.376Zm0 0"/><path id="k" d="M8.031-8.453c-.64.125-.969.578-.969 1.031 0 .5.391.672.688.672.578 0 1.047-.5 1.047-1.125 0-.656-.64-1.234-1.672-1.234-.828 0-1.781.375-2.64 1.625-.141-1.094-.97-1.625-1.798-1.625-.812 0-1.218.625-1.468 1.078-.344.734-.657 1.984-.657 2.078s.079.187.22.187c.171 0 .187-.015.312-.5.312-1.234.703-2.437 1.531-2.437.5 0 .64.36.64.953 0 .453-.203 1.266-.359 1.906l-.578 2.235c-.078.39-.297 1.312-.406 1.687-.14.531-.375 1.516-.375 1.61 0 .296.234.515.547.515.219 0 .61-.14.734-.547.063-.172.828-3.297.953-3.765.11-.453.219-.891.328-1.344.079-.297.172-.625.235-.89.062-.188.61-1.204 1.125-1.657.25-.219.797-.703 1.64-.703.329 0 .657.062.922.25m0 0"/><path id="t" d="M15.453-12.594c.188-.703.219-.922 1.688-.922.375 0 .578 0 .578-.359 0-.234-.188-.234-.313-.234-.36 0-.797.046-1.187.046H13.78c-.39 0-.828-.046-1.219-.046-.14 0-.39 0-.39.39 0 .203.14.203.531.203 1.235 0 1.235.172 1.235.407 0 .03 0 .156-.079.468l-1.265 5H6.359l1.235-4.953c.187-.703.234-.922 1.703-.922.375 0 .578 0 .578-.359 0-.234-.187-.234-.312-.234-.376 0-.797.046-1.204.046H5.922c-.39 0-.813-.046-1.219-.046-.14 0-.39 0-.39.39 0 .203.156.203.546.203 1.235 0 1.235.172 1.235.407 0 .03 0 .156-.078.468L3.219-1.53C3.03-.813 3-.594 1.563-.594c-.47 0-.61 0-.61.39 0 .204.219.204.281.204.375 0 .813-.047 1.204-.047h2.437c.39 0 .828.047 1.219.047.172 0 .39 0 .39-.39 0-.204-.187-.204-.5-.204-1.25 0-1.25-.172-1.25-.375 0-.015 0-.172.032-.328l1.437-5.75h6.25c-.344 1.36-1.406 5.688-1.437 5.813-.235.609-.563.609-1.782.64-.25 0-.437 0-.437.39 0 .204.234.204.297.204.36 0 .797-.047 1.187-.047h2.438c.39 0 .828.047 1.219.047.171 0 .39 0 .39-.39 0-.204-.172-.204-.484-.204-1.266 0-1.266-.172-1.266-.375 0-.015 0-.172.047-.328Zm0 0"/><path id="u" d="M9.797-8.422c-.672.125-.922.61-.922 1 0 .5.406.672.688.672.624 0 1.062-.547 1.062-1.094 0-.875-1-1.265-1.86-1.265-1.265 0-1.968 1.234-2.156 1.625C6.141-9.031 4.86-9.11 4.484-9.11c-2.109 0-3.218 2.703-3.218 3.156 0 .094.078.187.218.187.172 0 .204-.125.25-.203.704-2.297 2.094-2.734 2.688-2.734.922 0 1.11.875 1.11 1.375 0 .453-.126.922-.36 1.922l-.703 2.828C4.156-1.344 3.547-.203 2.453-.203c-.094 0-.61 0-1.047-.266.735-.156.907-.765.907-1.015 0-.422-.313-.657-.704-.657-.5 0-1.03.422-1.03 1.094 0 .86.968 1.25 1.859 1.25.984 0 1.687-.781 2.125-1.625C4.89-.203 5.922.203 6.688.203c2.109 0 3.234-2.703 3.234-3.156 0-.11-.094-.188-.219-.188-.187 0-.203.11-.265.266C8.875-1.047 7.688-.203 6.75-.203c-.719 0-1.11-.547-1.11-1.39 0-.454.079-.782.407-2.141l.734-2.813c.297-1.234 1-2.156 1.953-2.156.047 0 .625 0 1.063.281m0 0"/><path id="v" d="M8.078-7.766c-.39 0-.578 0-.875.25a1.05 1.05 0 0 0-.344.735c0 .422.313.672.704.672.5 0 1.046-.422 1.046-1.25 0-.985-.953-1.75-2.375-1.75C3.531-9.11.828-6.156.828-3.22c0 1.797 1.11 3.422 3.219 3.422C6.859.203 8.64-1.984 8.64-2.25c0-.125-.125-.234-.22-.234-.062 0-.077.03-.265.218C6.844-.516 4.875-.203 4.094-.203c-1.422 0-1.89-1.25-1.89-2.281 0-.72.358-2.72 1.108-4.125.532-.97 1.641-2.094 2.954-2.094.265 0 1.39.047 1.812.937m0 0"/><path id="y" d="M5.844-2.953c0-.11-.078-.188-.203-.188-.188 0-.203.063-.313.407-.531 1.89-1.375 2.53-2.062 2.53-.25 0-.532-.062-.532-.687 0-.562.235-1.171.47-1.796L4.64-6.531c.062-.157.218-.532.218-.922 0-.875-.625-1.656-1.64-1.656-1.89 0-2.656 3-2.656 3.156 0 .094.078.187.218.187.188 0 .203-.078.297-.375.484-1.734 1.281-2.562 2.078-2.562.188 0 .547.031.547.687 0 .532-.281 1.22-.437 1.672L1.813-2.5c-.125.328-.25.656-.25 1.031 0 .938.64 1.672 1.64 1.672 1.906 0 2.64-3.015 2.64-3.156m-.157-9.938a.695.695 0 0 0-.703-.687c-.484 0-1.015.469-1.015 1 0 .515.437.687.672.687.562 0 1.047-.546 1.047-1m0 0"/><path id="e" d="M7.188-2.672h-.313c-.172 1.219-.312 1.438-.39 1.531C6.405-1 5.171-1 4.921-1H1.625c.61-.672 1.813-1.89 3.281-3.312 1.047-.985 2.282-2.157 2.282-3.86 0-2.031-1.625-3.203-3.438-3.203-1.89 0-3.047 1.656-3.047 3.219 0 .672.5.75.703.75.172 0 .688-.094.688-.703 0-.532-.438-.688-.688-.688a.7.7 0 0 0-.265.047c.328-1.453 1.328-2.187 2.375-2.187 1.5 0 2.468 1.187 2.468 2.765 0 1.485-.875 2.781-1.859 3.906L.703-.39V0h6.063Zm0 0"/><path id="h" d="M13.266-14.797c-.313.281-1.22 1.14-1.22 1.485 0 .25.22.468.47.468.218 0 .328-.14.5-.39a6 6 0 0 1 1.828-1.532c.25-.156.422-.234.422-.5 0-.218-.203-.343-.344-.468-.703-.47-.875-1.141-.938-1.438-.078-.203-.156-.5-.5-.5a.45.45 0 0 0-.453.469c0 .234.156.828.625 1.484H5.328c-.422 0-.844 0-.844.485 0 .437.454.437.844.437Zm0 0"/><path id="m" d="M11.328-9.266c0-1.562-.797-1.656-1-1.656-.594 0-1.14.594-1.14 1.078 0 .297.187.469.28.578.25.22.891.891.891 2.172 0 1.047-1.484 6.844-4.468 6.844-1.5 0-1.797-1.266-1.797-2.172 0-1.25.562-2.984 1.234-4.765.39-1.016.5-1.266.5-1.766 0-1.031-.75-1.969-1.969-1.969-2.265 0-3.187 3.594-3.187 3.781 0 .11.094.235.265.235.235 0 .25-.11.344-.453.61-2.125 1.563-3.078 2.516-3.078.219 0 .64 0 .64.828 0 .64-.28 1.359-.64 2.297-1.188 3.171-1.188 3.937-1.188 4.53 0 .548.063 1.563.829 2.266.906.766 2.14.766 2.359.766 4.11 0 5.531-8.11 5.531-9.516m0 0"/><path id="r" d="M9.64-10.14c-.765.156-1.171.703-1.171 1.25 0 .593.484.78.828.78.687 0 1.265-.593 1.265-1.328 0-.796-.78-1.484-2.015-1.484-.985 0-2.125.438-3.172 1.953-.172-1.312-1.156-1.953-2.156-1.953-.969 0-1.453.735-1.75 1.281-.422.891-.797 2.375-.797 2.5 0 .11.094.235.265.235.204 0 .235-.032.375-.61.375-1.484.844-2.921 1.829-2.921.593 0 .78.421.78 1.14 0 .547-.25 1.516-.421 2.281l-.703 2.672a39 39 0 0 1-.5 2.047c-.172.64-.438 1.797-.438 1.922A.62.62 0 0 0 2.5.25c.281 0 .75-.172.89-.672.079-.203 1-3.937 1.141-4.515.125-.547.282-1.063.407-1.61.093-.344.187-.734.265-1.062.078-.22.75-1.438 1.36-1.985.296-.265.953-.844 1.968-.844.39 0 .781.079 1.11.297m0 0"/><path id="x" d="M10.656-16.969c0-.234-.172-.234-.25-.234-.219 0-.25.047-.344.469L8.72-11.406c-.063.328-.094.36-.125.375-.016.047-.188.078-.25.078-4.063.344-7.172 3.687-7.172 6.797C1.173-1.484 3.22.156 5.798.297c-.203.766-.375 1.562-.563 2.328-.359 1.313-.546 2.14-.546 2.234 0 .047 0 .204.25.204.062 0 .171 0 .218-.11.047-.047.203-.64.297-.969L6.375.297c4.234-.219 7.453-3.688 7.453-6.813 0-2.5-1.89-4.28-4.64-4.468Zm-1.61 6.485c1.642.093 3.267 1.015 3.267 3.453 0 2.797-1.954 6.515-5.813 6.812ZM5.923-.204c-1.219-.062-3.25-.718-3.25-3.437 0-3.125 2.266-6.593 5.828-6.812Zm0 0"/><path id="A" d="M17.219-5.75c.031-.078.11-.25.11-.344 0-.125-.11-.25-.25-.25-.11 0-.157.032-.235.094-.047.031-.047.078-.266.578-1.469 3.469-2.531 4.953-6.484 4.953H6.469c-.344 0-.39 0-.547-.031-.266-.016-.297-.062-.297-.266 0-.171.047-.328.094-.546l1.718-6.844h2.454c1.937 0 2.078.422 2.078 1.172 0 .25 0 .468-.172 1.218a.6.6 0 0 0-.078.266c0 .172.125.25.281.25.219 0 .234-.172.344-.516l1.406-5.75a.246.246 0 0 0-.25-.25c-.219 0-.234.094-.344.438-.5 1.906-.984 2.453-3.187 2.453h-2.36l1.532-6.094c.234-.86.28-.937 1.297-.937h3.546c3.047 0 3.657.812 3.657 2.703 0 .015 0 .719-.094 1.531-.031.094-.047.25-.047.297 0 .203.125.281.266.281.172 0 .28-.11.328-.547l.515-4.343c0-.078.047-.313.047-.375 0-.266-.218-.266-.672-.266H5.891c-.47 0-.72 0-.72.438 0 .28.188.28.61.28 1.532 0 1.532.173 1.532.438 0 .125-.032.235-.094.5l-3.36 13.39c-.218.86-.265 1.11-2 1.11-.468 0-.718 0-.718.453 0 .266.14.266.64.266H14.22c.547 0 .578-.031.75-.422Zm0 0"/><path id="l" d="M9.344-5.75h6.562c.344 0 .766 0 .766-.422 0-.437-.39-.437-.766-.437H9.344v-6.578c0-.344 0-.766-.422-.766-.453 0-.453.39-.453.765v6.579H1.906c-.343 0-.765 0-.765.422 0 .437.39.437.765.437H8.47V.813c0 .359 0 .78.422.78.453 0 .453-.405.453-.78Zm0 0"/><path id="q" d="M7.578 6.047c0-.031 0-.078-.062-.156C6.375 4.734 3.328 1.563 3.328-6.172c0-7.734 2.985-10.875 4.203-12.11 0-.03.047-.077.047-.155 0-.079-.062-.125-.172-.125-.265 0-2.375 1.828-3.593 4.562-1.235 2.75-1.579 5.422-1.579 7.813 0 1.78.172 4.796 1.657 8C5.078 4.39 7.109 6.188 7.406 6.188c.125 0 .172-.047.172-.141m0 0"/><path id="s" d="M6.516-6.172c0-1.781-.172-4.812-1.657-8-1.187-2.578-3.218-4.39-3.515-4.39-.078 0-.172.03-.172.156 0 .047.016.062.047.125 1.187 1.234 4.203 4.375 4.203 12.093 0 7.72-3 10.875-4.203 12.11-.032.047-.047.078-.047.125 0 .125.094.14.172.14.265 0 2.375-1.828 3.593-4.546 1.235-2.75 1.579-5.438 1.579-7.813m0 0"/><path id="z" d="M15.938-7.953c.374 0 .734 0 .734-.422 0-.453-.422-.453-.844-.453H1.984c-.421 0-.843 0-.843.453 0 .422.375.422.75.422Zm-.11 4.406c.422 0 .844 0 .844-.437 0-.422-.36-.422-.735-.422H1.892c-.375 0-.75 0-.75.422 0 .437.422.437.843.437Zm0 0"/></defs><use xlink:href="#a" x="9.962" y="163.131"/><path fill="#FFD9B2" stroke="#000" stroke-miterlimit="10" stroke-width=".399" d="M146.805 114.656H51.039a3.98 3.98 0 0 0-3.984 3.985v51.804a3.98 3.98 0 0 0 3.984 3.985h95.766a3.984 3.984 0 0 0 3.984-3.985v-51.804a3.984 3.984 0 0 0-3.984-3.985Zm0 0"/><use xlink:href="#b" x="57.016" y="154.549"/><use xlink:href="#c" x="81.485" y="144.79"/><use xlink:href="#d" x="80.63" y="144.79"/><use xlink:href="#e" x="92.276" y="137.088"/><path fill="none" stroke="#000" stroke-miterlimit="10" stroke-width=".398" d="M77.492 148.352h27.172"/><use xlink:href="#f" x="77.491" y="163.097"/><use xlink:href="#g" x="86.967" y="163.097"/><use xlink:href="#h" x="112.345" y="148.283"/><use xlink:href="#i" x="109.99" y="154.549"/><use xlink:href="#f" x="130.646" y="145.554"/><use xlink:href="#j" x="129.963" y="161.876"/><use xlink:href="#k" x="130.637" y="161.876"/><use xlink:href="#l" x="163.085" y="150.739"/><path fill="#FFB2B2" stroke="#000" stroke-miterlimit="10" stroke-width=".399" d="M276.297 114.656H197.21a3.984 3.984 0 0 0-3.984 3.985v51.804a3.984 3.984 0 0 0 3.984 3.985h79.086c2.2 0 3.984-1.782 3.984-3.985v-51.804a3.984 3.984 0 0 0-3.984-3.985Zm0 0"/><use xlink:href="#m" x="203.188" y="150.739"/><use xlink:href="#n" x="214.921" y="154.909"/><use xlink:href="#o" x="223.318" y="154.909"/><use xlink:href="#p" x="233.333" y="154.909"/><use xlink:href="#q" x="241.149" y="150.739"/><use xlink:href="#h" x="249.107" y="150.739"/><use xlink:href="#r" x="249.915" y="150.739"/><use xlink:href="#s" x="261.539" y="150.739"/><use xlink:href="#l" x="292.577" y="150.739"/><path fill="#FFB2B2" stroke="#000" stroke-miterlimit="10" stroke-width=".399" d="M398.422 114.656h-71.715a3.984 3.984 0 0 0-3.984 3.985v51.804a3.984 3.984 0 0 0 3.984 3.985h71.715c2.2 0 3.984-1.782 3.984-3.985v-51.804a3.984 3.984 0 0 0-3.984-3.985Zm0 0"/><use xlink:href="#m" x="332.68" y="150.739"/><use xlink:href="#t" x="344.414" y="156.321"/><use xlink:href="#q" x="363.272" y="150.739"/><use xlink:href="#h" x="371.23" y="150.739"/><use xlink:href="#r" x="372.038" y="150.739"/><use xlink:href="#s" x="383.661" y="150.739"/><use xlink:href="#l" x="414.699" y="150.739"/><path fill="#FFB2B2" stroke="#000" stroke-miterlimit="10" stroke-width=".399" d="M493.223 114.656h-44.395a3.984 3.984 0 0 0-3.984 3.985v51.804a3.984 3.984 0 0 0 3.984 3.985h44.395a3.984 3.984 0 0 0 3.984-3.985v-51.804a3.984 3.984 0 0 0-3.984-3.985Zm0 0"/><use xlink:href="#m" x="454.803" y="148.02"/><use xlink:href="#u" x="466.536" y="151.738"/><use xlink:href="#v" x="478.033" y="151.738"/><use xlink:href="#w" x="507.96" y="163.131"/><path fill="#D9D9D9" stroke="#000" stroke-miterlimit="10" stroke-width=".399" d="M611.93 114.656h-62.887a3.984 3.984 0 0 0-3.984 3.985v51.804a3.984 3.984 0 0 0 3.984 3.985h62.887a3.98 3.98 0 0 0 3.984-3.985v-51.804a3.98 3.98 0 0 0-3.984-3.985Zm0 0"/><use xlink:href="#x" x="555.015" y="150.739"/><use xlink:href="#y" x="569.379" y="155.748"/><use xlink:href="#q" x="576.779" y="150.739"/><use xlink:href="#h" x="584.737" y="150.739"/><use xlink:href="#r" x="585.545" y="150.739"/><use xlink:href="#s" x="597.169" y="150.739"/><use xlink:href="#z" x="636.786" y="148.95"/><path fill="#B2B2FF" stroke="#000" stroke-miterlimit="10" stroke-width=".399" d="M716.82 114.656H679.5a3.984 3.984 0 0 0-3.988 3.985v51.804a3.984 3.984 0 0 0 3.988 3.985h37.32c2.2 0 3.985-1.782 3.985-3.985v-51.804a3.984 3.984 0 0 0-3.985-3.985Zm0 0"/><use xlink:href="#A" x="685.468" y="150.508"/><use xlink:href="#y" x="703.434" y="155.516"/><path fill="#D9D9D9" stroke="#000" stroke-miterlimit="10" stroke-width=".399" d="M796.656 114.656H733.77a3.984 3.984 0 0 0-3.989 3.985v51.804a3.984 3.984 0 0 0 3.989 3.985h62.886c2.2 0 3.985-1.782 3.985-3.985v-51.804a3.984 3.984 0 0 0-3.985-3.985Zm0 0"/><use xlink:href="#x" x="739.737" y="150.739"/><use xlink:href="#y" x="754.101" y="155.748"/><use xlink:href="#q" x="761.501" y="150.739"/><use xlink:href="#h" x="769.459" y="150.739"/><use xlink:href="#r" x="770.267" y="150.739"/><use xlink:href="#s" x="781.891" y="150.739"/><use xlink:href="#B" x="25.902" y="17.669"/><use xlink:href="#C" x="36.458" y="17.669"/><use xlink:href="#B" x="45.934" y="17.669"/><use xlink:href="#D" x="56.491" y="17.669"/><use xlink:href="#E" x="62.729" y="17.669"/><use xlink:href="#n" x="70.045" y="17.669"/><use xlink:href="#F" x="78.443" y="17.669"/><use xlink:href="#G" x="83.6" y="17.669"/><use xlink:href="#H" x="97.146" y="17.669"/><use xlink:href="#I" x="107.703" y="17.669"/><use xlink:href="#J" x="115.563" y="17.669"/><use xlink:href="#E" x="126.119" y="17.669"/><use xlink:href="#K" x="133.436" y="17.669"/><use xlink:href="#C" x="133.448" y="17.669"/><use xlink:href="#L" x="142.924" y="17.669"/><use xlink:href="#M" x="153.481" y="17.669"/><use xlink:href="#B" x="158.638" y="17.669"/><use xlink:href="#N" x="169.194" y="17.669"/><use xlink:href="#n" x="178.67" y="17.669"/><use xlink:href="#E" x="187.067" y="17.669"/><use xlink:href="#n" x="200.603" y="17.669"/><use xlink:href="#O" x="209.001" y="17.669"/><use xlink:href="#P" x="219.016" y="17.669"/><use xlink:href="#Q" x="229.572" y="17.669"/><use xlink:href="#p" x="239.048" y="17.669"/><use xlink:href="#M" x="246.385" y="17.669"/><use xlink:href="#C" x="251.543" y="17.669"/><use xlink:href="#B" x="261.019" y="17.669"/><use xlink:href="#C" x="25.902" y="42.575"/><use xlink:href="#E" x="35.378" y="42.575"/><use xlink:href="#E" x="48.934" y="42.575"/><use xlink:href="#n" x="56.251" y="42.575"/><use xlink:href="#F" x="64.648" y="42.575"/><use xlink:href="#Q" x="69.806" y="42.575"/><use xlink:href="#p" x="79.282" y="42.575"/><use xlink:href="#M" x="86.598" y="42.575"/><use xlink:href="#R" x="91.755" y="42.575"/><use xlink:href="#M" x="101.771" y="42.575"/><use xlink:href="#S" x="106.928" y="42.575"/><use xlink:href="#p" x="114.354" y="42.575"/><use xlink:href="#M" x="121.671" y="42.575"/><use xlink:href="#I" x="126.828" y="42.575"/><use xlink:href="#T" x="141.465" y="42.575"/><use xlink:href="#M" x="156.065" y="42.575"/><use xlink:href="#E" x="161.223" y="42.575"/><use xlink:href="#Q" x="168.539" y="42.575"/><use xlink:href="#I" x="178.015" y="42.575"/><use xlink:href="#n" x="192.653" y="42.575"/><use xlink:href="#O" x="201.05" y="42.575"/><use xlink:href="#P" x="211.065" y="42.575"/><use xlink:href="#Q" x="221.621" y="42.575"/><use xlink:href="#p" x="231.097" y="42.575"/><use xlink:href="#M" x="238.414" y="42.575"/><use xlink:href="#C" x="243.571" y="42.575"/><use xlink:href="#B" x="253.047" y="42.575"/><use xlink:href="#U" x="15.605" y="236.916"/><use xlink:href="#S" x="26.161" y="236.916"/><use xlink:href="#n" x="33.588" y="236.916"/><use xlink:href="#P" x="41.985" y="236.916"/><use xlink:href="#L" x="52.541" y="236.916"/><use xlink:href="#C" x="63.098" y="236.916"/><use xlink:href="#U" x="72.574" y="236.916"/><use xlink:href="#C" x="83.667" y="236.916"/><use xlink:href="#p" x="93.143" y="236.916"/><use xlink:href="#n" x="100.46" y="236.916"/><use xlink:href="#B" x="108.857" y="236.916"/><use xlink:href="#p" x="118.876" y="236.916"/><use xlink:href="#M" x="126.193" y="236.916"/><use xlink:href="#Q" x="131.35" y="236.916"/><use xlink:href="#F" x="140.826" y="236.916"/><use xlink:href="#V" x="15.605" y="261.822"/><use xlink:href="#P" x="22.922" y="261.822"/><use xlink:href="#F" x="33.478" y="261.822"/><use xlink:href="#p" x="38.635" y="261.822"/><use xlink:href="#E" x="45.952" y="261.822"/><use xlink:href="#Q" x="53.269" y="261.822"/><use xlink:href="#S" x="62.744" y="261.822"/><use xlink:href="#C" x="70.171" y="261.822"/><use xlink:href="#W" x="79.646" y="261.822"/><use xlink:href="#p" x="85.345" y="261.822"/><use xlink:href="#X" x="92.662" y="261.822"/><use xlink:href="#Y" x="102.137" y="261.822"/><use xlink:href="#Z" x="113.506" y="261.822"/><use xlink:href="#aa" x="125.662" y="261.822"/><use xlink:href="#X" x="145.384" y="261.822"/><use xlink:href="#B" x="154.86" y="261.822"/><use xlink:href="#C" x="165.416" y="261.822"/><use xlink:href="#E" x="174.892" y="261.822"/><use xlink:href="#ab" x="182.209" y="261.822"/><use xlink:href="#D" x="198.162" y="261.822"/><use xlink:href="#I" x="204.4" y="261.822"/><use xlink:href="#C" x="212.798" y="261.822"/><use xlink:href="#B" x="222.273" y="261.822"/><use xlink:href="#S" x="232.83" y="261.822"/><use xlink:href="#n" x="240.256" y="261.822"/><use xlink:href="#E" x="248.653" y="261.822"/><use xlink:href="#R" x="255.97" y="261.822"/><use xlink:href="#M" x="265.985" y="261.822"/><use xlink:href="#B" x="271.142" y="261.822"/><use xlink:href="#N" x="281.699" y="261.822"/><use xlink:href="#ac" x="291.175" y="261.822"/><use xlink:href="#C" x="15.605" y="286.729"/><use xlink:href="#E" x="25.081" y="286.729"/><use xlink:href="#Q" x="38.637" y="286.729"/><use xlink:href="#F" x="48.113" y="286.729"/><use xlink:href="#F" x="53.271" y="286.729"/><use xlink:href="#D" x="58.428" y="286.729"/><use xlink:href="#n" x="64.666" y="286.729"/><use xlink:href="#F" x="73.063" y="286.729"/><use xlink:href="#n" x="78.221" y="286.729"/><use xlink:href="#I" x="86.618" y="286.729"/><use xlink:href="#p" x="95.015" y="286.729"/><use xlink:href="#E" x="102.332" y="286.729"/><use xlink:href="#C" x="109.648" y="286.729"/><use xlink:href="#B" x="119.124" y="286.729"/><use xlink:href="#ad" x="303.768" y="256.841"/><use xlink:href="#Q" x="318.093" y="256.841"/><use xlink:href="#E" x="327.569" y="256.841"/><use xlink:href="#p" x="334.886" y="256.841"/><use xlink:href="#E" x="342.202" y="256.841"/><use xlink:href="#n" x="349.519" y="256.841"/><use xlink:href="#n" x="357.916" y="256.841"/><use xlink:href="#U" x="372.553" y="256.841"/><use xlink:href="#C" x="383.647" y="256.841"/><use xlink:href="#p" x="393.123" y="256.841"/><use xlink:href="#n" x="400.44" y="256.841"/><use xlink:href="#B" x="408.837" y="256.841"/><use xlink:href="#p" x="418.856" y="256.841"/><use xlink:href="#M" x="426.173" y="256.841"/><use xlink:href="#Q" x="431.33" y="256.841"/><use xlink:href="#F" x="440.806" y="256.841"/><use xlink:href="#W" x="303.768" y="281.748"/><use xlink:href="#E" x="309.467" y="281.748"/><use xlink:href="#C" x="316.783" y="281.748"/><use xlink:href="#ab" x="326.259" y="281.748"/><use xlink:href="#S" x="348.453" y="281.748"/><use xlink:href="#C" x="355.879" y="281.748"/><use xlink:href="#F" x="365.355" y="281.748"/><use xlink:href="#R" x="370.512" y="281.748"/><use xlink:href="#M" x="380.527" y="281.748"/><use xlink:href="#B" x="385.684" y="281.748"/><use xlink:href="#N" x="396.241" y="281.748"/><use xlink:href="#Y" x="411.957" y="281.748"/><use xlink:href="#C" x="424.4" y="281.748"/><use xlink:href="#M" x="433.876" y="281.748"/><use xlink:href="#S" x="439.033" y="281.748"/><use xlink:href="#S" x="446.459" y="281.748"/><use xlink:href="#C" x="453.885" y="281.748"/><use xlink:href="#B" x="463.361" y="281.748"/><use xlink:href="#n" x="480.158" y="281.748"/><use xlink:href="#O" x="488.555" y="281.748"/><use xlink:href="#G" x="498.57" y="281.748"/><use xlink:href="#C" x="303.768" y="306.654"/><use xlink:href="#E" x="313.244" y="306.654"/><use xlink:href="#M" x="326.8" y="306.654"/><use xlink:href="#B" x="331.958" y="306.654"/><use xlink:href="#p" x="341.977" y="306.654"/><use xlink:href="#n" x="349.294" y="306.654"/><use xlink:href="#N" x="357.691" y="306.654"/><use xlink:href="#E" x="367.167" y="306.654"/><use xlink:href="#Q" x="374.483" y="306.654"/><use xlink:href="#p" x="383.959" y="306.654"/><use xlink:href="#M" x="391.276" y="306.654"/><use xlink:href="#B" x="396.433" y="306.654"/><use xlink:href="#N" x="406.99" y="306.654"/><use xlink:href="#I" x="422.705" y="306.654"/><use xlink:href="#J" x="430.565" y="306.654"/><use xlink:href="#Q" x="441.122" y="306.654"/><use xlink:href="#E" x="450.598" y="306.654"/><use xlink:href="#N" x="457.914" y="306.654"/><use xlink:href="#n" x="467.39" y="306.654"/><use xlink:href="#L" x="482.028" y="306.654"/><use xlink:href="#n" x="492.584" y="306.654"/><use xlink:href="#B" x="500.961" y="306.654"/><use xlink:href="#S" x="511.517" y="306.654"/><use xlink:href="#M" x="518.943" y="306.654"/><use xlink:href="#p" x="524.101" y="306.654"/><use xlink:href="#ae" x="530.88" y="306.654"/><use xlink:href="#af" x="304.485" y="17.669"/><use xlink:href="#T" x="316.387" y="17.669"/><use xlink:href="#Z" x="330.449" y="17.669"/><use xlink:href="#C" x="351.015" y="17.669"/><use xlink:href="#E" x="360.491" y="17.669"/><use xlink:href="#ag" x="374.047" y="17.669"/><use xlink:href="#ag" x="389.055" y="17.669"/><use xlink:href="#Z" x="404.062" y="17.669"/><use xlink:href="#C" x="304.485" y="42.575"/><use xlink:href="#E" x="313.961" y="42.575"/><use xlink:href="#J" x="327.517" y="42.575"/><use xlink:href="#ae" x="337.537" y="42.575"/><use xlink:href="#ah" x="347.552" y="42.575"/><use xlink:href="#E" x="358.108" y="42.575"/><use xlink:href="#M" x="365.425" y="42.575"/><use xlink:href="#L" x="370.582" y="42.575"/><use xlink:href="#S" x="381.139" y="42.575"/><use xlink:href="#U" x="520.327" y="17.669"/><use xlink:href="#J" x="530.883" y="17.669"/><use xlink:href="#ae" x="540.903" y="17.669"/><use xlink:href="#S" x="550.918" y="17.669"/><use xlink:href="#M" x="558.344" y="17.669"/><use xlink:href="#I" x="563.501" y="17.669"/><use xlink:href="#Q" x="571.899" y="17.669"/><use xlink:href="#F" x="581.374" y="17.669"/><use xlink:href="#C" x="592.772" y="17.669"/><use xlink:href="#E" x="602.248" y="17.669"/><use xlink:href="#ah" x="609.564" y="17.669"/><use xlink:href="#M" x="620.121" y="17.669"/><use xlink:href="#p" x="625.278" y="17.669"/><use xlink:href="#Q" x="632.595" y="17.669"/><use xlink:href="#F" x="642.07" y="17.669"/><use xlink:href="#S" x="647.228" y="17.669"/><use xlink:href="#C" x="660.894" y="17.669"/><use xlink:href="#E" x="670.37" y="17.669"/><use xlink:href="#B" x="683.926" y="17.669"/><use xlink:href="#C" x="694.483" y="17.669"/><use xlink:href="#p" x="703.959" y="17.669"/><use xlink:href="#ab" x="520.327" y="42.575"/><use xlink:href="#n" x="536.281" y="42.575"/><use xlink:href="#S" x="544.678" y="42.575"/><use xlink:href="#J" x="552.104" y="42.575"/><use xlink:href="#L" x="568.9" y="42.575"/><use xlink:href="#n" x="579.457" y="42.575"/><use xlink:href="#B" x="587.854" y="42.575"/><use xlink:href="#S" x="598.411" y="42.575"/><use xlink:href="#M" x="605.837" y="42.575"/><use xlink:href="#p" x="610.994" y="42.575"/><use xlink:href="#ae" x="617.773" y="42.575"/><use xlink:href="#Q" x="634.008" y="42.575"/><use xlink:href="#B" x="643.504" y="42.575"/><use xlink:href="#L" x="654.04" y="42.575"/><use xlink:href="#ah" x="670.837" y="42.575"/><use xlink:href="#Q" x="681.393" y="42.575"/><use xlink:href="#S" x="690.869" y="42.575"/><use xlink:href="#M" x="698.295" y="42.575"/><use xlink:href="#S" x="703.453" y="42.575"/><use xlink:href="#S" x="717.119" y="42.575"/><use xlink:href="#n" x="724.545" y="42.575"/><use xlink:href="#p" x="732.942" y="42.575"/><use xlink:href="#R" x="547.172" y="256.609"/><use xlink:href="#M" x="557.187" y="256.609"/><use xlink:href="#n" x="562.344" y="256.609"/><use xlink:href="#ai" x="570.742" y="256.609"/><use xlink:href="#aj" x="590.776" y="256.609"/><use xlink:href="#ak" x="603.756" y="256.609"/><use xlink:href="#S" x="618.082" y="256.609"/><use xlink:href="#Q" x="631.748" y="256.609"/><use xlink:href="#S" x="641.224" y="256.609"/><use xlink:href="#ab" x="654.89" y="256.609"/><use xlink:href="#n" x="670.843" y="256.609"/><use xlink:href="#E" x="679.241" y="256.609"/><use xlink:href="#n" x="686.557" y="256.609"/><use xlink:href="#af" x="701.194" y="256.609"/><use xlink:href="#Q" x="713.075" y="256.609"/><use xlink:href="#N" x="722.572" y="256.609"/><use xlink:href="#E" x="732.048" y="256.609"/><use xlink:href="#Q" x="739.364" y="256.609"/><use xlink:href="#B" x="748.84" y="256.609"/><use xlink:href="#N" x="759.397" y="256.609"/><use xlink:href="#n" x="768.872" y="256.609"/><use xlink:href="#ab" x="547.172" y="281.515"/><use xlink:href="#P" x="562.588" y="281.515"/><use xlink:href="#F" x="573.145" y="281.515"/><use xlink:href="#p" x="578.302" y="281.515"/><use xlink:href="#M" x="585.619" y="281.515"/><use xlink:href="#U" x="590.776" y="281.515"/><use xlink:href="#F" x="601.333" y="281.515"/><use xlink:href="#M" x="606.49" y="281.515"/><use xlink:href="#n" x="611.647" y="281.515"/><use xlink:href="#E" x="620.045" y="281.515"/><use xlink:href="#S" x="627.361" y="281.515"/><use xlink:href="#C" x="641.027" y="281.515"/><use xlink:href="#E" x="650.503" y="281.515"/><use xlink:href="#ah" x="664.06" y="281.515"/><use xlink:href="#Q" x="674.616" y="281.515"/><use xlink:href="#B" x="684.092" y="281.515"/><use xlink:href="#L" x="694.649" y="281.515"/><use xlink:href="#S" x="711.445" y="281.515"/><use xlink:href="#p" x="718.871" y="281.515"/><use xlink:href="#E" x="726.188" y="281.515"/><use xlink:href="#P" x="733.504" y="281.515"/><use xlink:href="#I" x="744.061" y="281.515"/><use xlink:href="#p" x="752.458" y="281.515"/><use xlink:href="#P" x="759.775" y="281.515"/><use xlink:href="#E" x="770.331" y="281.515"/><use xlink:href="#n" x="777.648" y="281.515"/><use xlink:href="#Q" x="792.264" y="281.515"/><use xlink:href="#U" x="801.74" y="281.515"/><use xlink:href="#U" x="812.297" y="281.515"/><use xlink:href="#E" x="822.853" y="281.515"/><use xlink:href="#C" x="830.17" y="281.515"/><use xlink:href="#o" x="839.108" y="281.515"/><path fill="none" stroke="#000" stroke-miterlimit="10" stroke-width="1.594" d="m134.742 50.113-33.613 60.371"/><path d="M98.922 114.457c1.25-1.473 3.57-4.078 6.164-5.234-2.742.64-4.066-.098-4.965-2.762.387 2.812-.61 6.156-1.2 7.996m0 0"/><path fill="none" stroke="#000" stroke-miterlimit="10" stroke-width="1.594" d="m171.367 240.215 62.18-62.367"/><path d="M236.754 174.629c-1.606 1.074-4.547 2.953-7.356 3.36 2.809.128 3.883 1.198 4.02 4.007.398-2.809 2.27-5.758 3.336-7.367m0 0"/><path fill="none" stroke="#000" stroke-miterlimit="10" stroke-width="1.594" d="m400.305 238.973-35.442-60.422"/><path d="M362.563 174.629c.632 1.824 1.703 5.148 1.382 7.969.84-2.688 2.145-3.453 4.899-2.871-2.617-1.098-4.996-3.657-6.281-5.098m0 0"/><path fill="none" stroke="#000" stroke-miterlimit="10" stroke-width="1.594" d="m392.117 50.113 75.387 61.473"/><path d="M471.027 114.457c-1.23-1.492-3.39-4.23-4.074-6.988.149 2.812-.808 3.984-3.59 4.402 2.836.113 5.957 1.68 7.664 2.586m0 0"/><path fill="none" stroke="#000" stroke-miterlimit="10" stroke-width="1.594" d="m616.309 50.113-33.614 60.371"/><path d="M580.488 114.457c1.25-1.473 3.57-4.078 6.164-5.234-2.742.64-4.062-.098-4.965-2.762.387 2.812-.609 6.156-1.199 7.996m0 0"/><path fill="none" stroke="#000" stroke-miterlimit="10" stroke-width="1.594" d="m668.195 50.113 93.23 61.832"/><path d="M765.21 114.457c-1.366-1.363-3.788-3.879-4.737-6.55.425 2.78-.41 4.042-3.141 4.73 2.836-.164 6.094 1.09 7.879 1.82m0 0"/><path fill="none" stroke="#000" stroke-miterlimit="10" stroke-width="1.594" d="M698.16 238.973v-59.801"/><path d="M698.16 174.629c-.379 1.894-1.137 5.3-2.84 7.574 2.082-1.894 3.598-1.894 5.68 0-1.703-2.273-2.46-5.68-2.84-7.574m0 0"/></svg>