<svg height="76.653" viewBox="0 0 295.6 57.49" width="295.6pt" xmlns="http://www.w3.org/2000/svg" xmlns:xlink="http://www.w3.org/1999/xlink"><symbol id="a" overflow="visible"><path d="m6.563-2.297c.171 0 .359 0 .359-.203 0-.188-.188-.188-.36-.188h-5.39c-.172 0-.344 0-.344.188 0 .203.172.203.344.203zm0 0"/></symbol><symbol id="b" overflow="visible"><path d="m4.234 11.563c.297 0 .313-.016.407-.204l5.453-11.375c.078-.14.078-.156.078-.187a.197.197 0 0 0 -.203-.203c-.125 0-.172.094-.219.203l-5.14 10.733-2.127-4.952-1.39 1.078.156.157.703-.547zm0 0"/></symbol><symbol id="c" overflow="visible"><path d="m5.36-5.938c-.141.141-.47.422-.47.594 0 .094.094.203.188.203s.14-.078.203-.14c.11-.14.344-.422.782-.64.062-.048.171-.095.171-.204 0-.11-.078-.156-.14-.203a1.034 1.034 0 0 1 -.407-.563c-.03-.093-.062-.234-.203-.234-.14 0-.203.14-.203.219 0 .047.078.36.235.578h-3.36c-.156 0-.344 0-.344.203 0 .188.188.188.344.188zm0 0"/></symbol><symbol id="d" overflow="visible"><path d="m.453 1.219c-.078.343-.11.406-.547.406-.11 0-.218 0-.218.188 0 .078.046.125.124.125.266 0 .563-.032.829-.032.343 0 .671.032 1 .032.046 0 .171 0 .171-.204 0-.109-.093-.109-.234-.109-.5 0-.5-.063-.5-.156 0-.125.422-1.75.484-2 .125.297.407.64.922.64 1.157 0 2.407-1.453 2.407-2.921 0-.938-.579-1.594-1.329-1.594-.5 0-.984.36-1.312.75-.094-.547-.531-.75-.89-.75-.47 0-.657.39-.735.562-.188.344-.313.938-.313.969 0 .11.094.11.11.11.11 0 .11-.016.172-.235.172-.703.375-1.188.734-1.188.172 0 .313.079.313.454 0 .234-.032.343-.079.515zm1.75-4.328c.063-.266.344-.547.516-.704.36-.296.64-.374.812-.374.39 0 .64.343.64.937s-.327 1.734-.515 2.11c-.344.702-.812 1.03-1.187 1.03-.656 0-.781-.828-.781-.89 0-.016 0-.031.03-.156zm0 0"/></symbol><symbol id="e" overflow="visible"><path d="m3.516-1.266h-.236c-.015.157-.094.563-.187.625-.047.047-.578.047-.688.047h-1.28c.734-.64.984-.844 1.39-1.172.516-.406 1-.843 1-1.5 0-.843-.734-1.359-1.624-1.359-.86 0-1.454.61-1.454 1.25 0 .344.297.39.376.39a.365.365 0 0 0 .359-.374c0-.125-.047-.375-.406-.375.218-.485.687-.641 1.015-.641.703 0 1.063.547 1.063 1.11 0 .609-.438 1.078-.656 1.328l-1.672 1.671c-.079.063-.079.079-.079.266h2.876zm0 0"/></symbol><symbol id="f" overflow="visible"><path d="m3.594-2.219c0-.765-.094-1.328-.406-1.812-.22-.313-.657-.594-1.204-.594-1.624 0-1.624 1.906-1.624 2.406s0 2.36 1.625 2.36c1.61 0 1.61-1.86 1.61-2.36zm-1.61 2.156c-.328 0-.75-.187-.89-.75-.094-.406-.094-.983-.094-1.5 0-.515 0-1.046.094-1.421.156-.547.593-.704.89-.704.375 0 .735.235.86.641.11.375.125.875.125 1.485 0 .515 0 1.03-.094 1.468-.14.64-.61.781-.89.781zm0 0"/></symbol><symbol id="g" overflow="visible"><path d="m2.234-3.516v-2.578c0-.234 0-.36.22-.39.093-.016.39-.016.593-.016.89 0 2 .047 2 1.484 0 .688-.234 1.5-1.703 1.5zm2.11.125c.953-.234 1.734-.843 1.734-1.625 0-.953-1.14-1.796-2.594-1.796h-3.14v.312h.25c.765 0 .781.11.781.469v5.25c0 .36-.016.469-.781.469h-.25v.312c.36-.031 1.078-.031 1.453-.031.39 0 1.11 0 1.469.031v-.313h-.25c-.766 0-.782-.109-.782-.468v-2.516h1.141c.156 0 .578 0 .938.344.375.344.375.656.375 1.328 0 .64 0 1.047.406 1.422.406.36.953.422 1.25.422.781 0 .953-.813.953-1.094 0-.063 0-.172-.125-.172-.11 0-.11.094-.125.156-.063.721-.407.891-.657.891-.485 0-.563-.516-.704-1.438l-.14-.796c-.172-.641-.656-.97-1.203-1.157zm0 0"/></symbol><symbol id="h" overflow="visible"><path d="m1.11-2.516c.061-1.484.905-1.734 1.25-1.734 1.015 0 1.124 1.344 1.124 1.734zm0 .22h2.78c.22 0 .25 0 .25-.22 0-.984-.546-1.953-1.78-1.953-1.158 0-2.08 1.032-2.08 2.282.001 1.327 1.048 2.295 2.19 2.295 1.218.002 1.67-1.108 1.67-1.295 0-.094-.079-.125-.141-.125-.078 0-.11.062-.125.14-.343 1.032-1.249 1.032-1.343 1.032-.5 0-.89-.296-1.125-.671-.297-.47-.297-1.125-.297-1.485zm0 0"/></symbol><symbol id="i" overflow="visible"><path d="m3.297 2.39c0-.03 0-.046-.172-.218-1.234-1.25-1.563-3.14-1.563-4.672 0-1.734.375-3.469 1.61-4.703.125-.125.125-.14.125-.172 0-.078-.031-.11-.094-.11-.11 0-1 .688-1.594 1.954-.499 1.093-.625 2.203-.625 3.031 0 .781.11 1.984.657 3.125.609 1.219 1.453 1.875 1.562 1.875.063 0 .094-.031.094-.11zm0 0"/></symbol><symbol id="j" overflow="visible"><path d="m2.875-2.5c0-.766-.11-1.969-.656-3.11-.594-1.217-1.453-1.873-1.547-1.873a.107.107 0 0 0 -.11.109c0 .031 0 .047.188.234.984.985 1.547 2.563 1.547 4.641 0 1.719-.36 3.469-1.594 4.719-.14.125-.14.14-.14.172 0 .062.046.109.109.109.094 0 1-.688 1.578-1.953.516-1.094.625-2.203.625-3.047zm0 0"/></symbol><symbol id="k" overflow="visible"><path d="m2.25-6.031c0-.36.016-.469.813-.469h.25v-.313c-.344.032-1.126.032-1.516.032-.375 0-1.172 0-1.516-.032v.313h.25c.797 0 .828.11.828.469v5.25c0 .36-.03.469-.828.469h-.25v.312c.344-.031 1.14-.031 1.516-.031.39 0 1.172 0 1.516.031v-.313h-.25c-.797 0-.813-.109-.813-.468zm0 0"/></symbol><symbol id="l" overflow="visible"><path d="m1.094-3.422v2.672c0 .438-.11.438-.782.438v.312c.36-.016.86-.031 1.141-.031.25 0 .766.015 1.11.031v-.313c-.672 0-.782 0-.782-.437v-1.844c0-1.031.719-1.594 1.344-1.594.64 0 .75.532.75 1.11v2.328c0 .438-.11.438-.781.438v.312c.344-.016.86-.031 1.125-.031.25 0 .781.015 1.11.031v-.313c-.657 0-.766 0-.766-.437v-1.844c0-1.031.703-1.594 1.343-1.594.625 0 .735.532.735 1.11v2.328c0 .438-.11.438-.782.438v.312c.344-.016.86-.031 1.125-.031.266 0 .782.015 1.125.031v-.313c-.515 0-.765 0-.78-.296v-1.907c0-.859 0-1.156-.313-1.515-.141-.172-.47-.375-1.047-.375-.828 0-1.282.593-1.438.984-.14-.875-.875-.984-1.328-.984-.734 0-1.203.422-1.484 1.047v-1.047l-1.407.11v.312c.704 0 .782.062.782.562zm0 0"/></symbol><clipPath id="m"><path d="m0 15h295.602v28h-295.602zm0 0"/></clipPath><clipPath id="n"><path d="m292 26h3.602v6h-3.602zm0 0"/></clipPath><clipPath id="o"><path d="m153 0h1v57.488h-1zm0 0"/></clipPath><path d="m84.594 28.746a1.99 1.99 0 0 0 -1.992-1.992 1.993 1.993 0 1 0 1.992 1.992zm141.734 0a1.99 1.99 0 0 0 -1.992-1.992 1.993 1.993 0 1 0 1.992 1.992zm0 0"/><use x="69.006" xlink:href="#a" y="22.214"/><use x="76.755" xlink:href="#b" y="13.469"/><path d="m0 0h9.481" fill="none" stroke="#000" stroke-miterlimit="10" stroke-width=".398" transform="matrix(1 0 0 -1 86.718 13.27)"/><use x="86.797" xlink:href="#c" y="22.214"/><use x="86.717" xlink:href="#d" y="22.214"/><use x="91.73" xlink:href="#e" y="19.336"/><use x="214.613" xlink:href="#b" y="13.469"/><path d="m-.002 0h9.485" fill="none" stroke="#000" stroke-miterlimit="10" stroke-width=".398" transform="matrix(1 0 0 -1 224.576 13.27)"/><use x="224.655" xlink:href="#c" y="22.214"/><use x="224.575" xlink:href="#d" y="22.214"/><use x="229.588" xlink:href="#e" y="19.336"/><g clip-path="url(#m)"><path d="m-153.074-.001 1.496 1.992 2.988-3.984 2.988 3.984 2.988-3.984 2.993 3.984 2.988-3.984 2.988 3.984 2.989-3.984 2.988 3.984 2.988-3.984 2.988 3.984 2.993-3.984 2.988 3.984 2.988-3.984 2.988 3.984 2.989-3.984 2.988 3.984 2.988-3.984 2.992 3.984 2.989-3.984 2.988 3.984 2.988-3.984 2.989 3.984 2.988-3.984 2.988 3.984 2.992-3.984 2.989 3.984 2.988-3.984m141.746 1.992 2.977 1.992 2.988-3.984 2.988 3.983 2.988-3.984 2.989 3.984 2.992-3.984 2.988 3.984 2.988-3.984 2.989 3.984 2.988-3.984 2.988 3.984 2.989-3.984 2.992 3.984 2.988-3.984 2.988 3.984 2.989-3.984 2.988 3.984 2.988-3.984 2.988 3.984 2.993-3.984 2.988 3.984 2.988-3.984 2.988 3.984 1.496-1.99h-.066" fill="none" stroke="#009" stroke-miterlimit="10" stroke-width=".79701" transform="matrix(1 0 0 -1 153.469 28.745)"/></g><g clip-path="url(#n)"><path d="m-1.555 2.073c.13-.777 1.555-1.945 1.942-2.073-.387-.13-1.813-1.294-1.942-2.071" style="fill:none;stroke-width:.6376;stroke-linecap:round;stroke-linejoin:round;stroke:#009;stroke-miterlimit:10" transform="matrix(1 0 0 -1 294.496 28.745)"/></g><g><use x="262.49" xlink:href="#g" y="22.535"/><use x="269.823" xlink:href="#h" y="22.535"/><use x="274.251" xlink:href="#i" y="22.535"/></g><use x="278.126" xlink:href="#d" y="22.535"/><use x="283.139" xlink:href="#f" y="24.03"/><use x="287.608" xlink:href="#j" y="22.535"/><path d="m-70.867-.001h141.734" fill="none" stroke="#000" stroke-miterlimit="10" stroke-width=".79701" transform="matrix(1 0 0 -1 153.469 28.745)"/><g clip-path="url(#o)"><path d="m0-28.349v55.989" fill="none" stroke="#000" stroke-miterlimit="10" stroke-width=".79701" transform="matrix(1 0 0 -1 153.469 28.745)"/></g><path d="m-1.555 2.07c.13-.776 1.555-1.94 1.942-2.07-.387-.129-1.813-1.297-1.942-2.074" style="fill:none;stroke-width:.6376;stroke-linecap:round;stroke-linejoin:round;stroke:#000;stroke-miterlimit:10" transform="matrix(0 -1 -1 0 153.469 1.106)"/><g><use x="120.52" xlink:href="#k" y="11.689"/><use x="124.117" xlink:href="#l" y="11.689"/><use x="132.419" xlink:href="#i" y="11.689"/></g><use x="136.294" xlink:href="#d" y="11.689"/><use x="141.307" xlink:href="#f" y="13.184"/><use x="145.776" xlink:href="#j" y="11.689"/></svg>