<svg height="236.507" viewBox="0 0 208.822 177.38" width="278.429" xmlns="http://www.w3.org/2000/svg" xmlns:xlink="http://www.w3.org/1999/xlink"><symbol id="a" overflow="visible"><path d="m4.578-3.188c0-.796-.047-1.593-.39-2.328-.455-.968-1.283-1.124-1.688-1.124-.61 0-1.328.266-1.75 1.188-.313.687-.36 1.469-.36 2.266 0 .75.032 1.64.454 2.406a1.83 1.83 0 0 0 1.64 1c.532 0 1.297-.203 1.735-1.157.312-.687.36-1.468.36-2.25zm-2.094 3.188c-.39 0-.984-.25-1.156-1.203-.11-.594-.11-1.516-.11-2.11 0-.64 0-1.296.079-1.828.187-1.187.937-1.28 1.187-1.28.329 0 .985.187 1.172 1.171.11.563.11 1.313.11 1.938 0 .75 0 1.421-.11 2.062-.156.953-.719 1.25-1.172 1.25zm0 0"/></symbol><symbol id="b" overflow="visible"><path d="m1.266-.766 1.062-1.03c1.547-1.376 2.14-1.907 2.14-2.907 0-1.14-.89-1.938-2.109-1.938a1.843 1.843 0 0 0 -1.859 1.813c0 .547.5.547.531.547.172 0 .516-.11.516-.532a.513.513 0 0 0 -.531-.515c-.079 0-.094 0-.125.016.218-.657.765-1.016 1.343-1.016.907 0 1.329.812 1.329 1.625 0 .797-.485 1.578-1.047 2.203l-1.907 2.125c-.109.11-.109.14-.109.375h3.703l.266-1.734h-.235c-.062.296-.124.734-.234.89-.063.078-.719.078-.938.078zm0 0"/></symbol><symbol id="c" overflow="visible"><path d="m2.938-1.64v.859c0 .36-.032.469-.766.469h-.203v.312c.406-.031.922-.031 1.343-.031.422 0 .938 0 1.36.031v-.313h-.219c-.734 0-.75-.109-.75-.468v-.86h.985v-.312h-.985v-4.531c0-.204 0-.266-.172-.266-.078 0-.11 0-.187.125l-3.064 4.672v.312zm.046-.313h-2.421l2.421-3.719zm0 0"/></symbol><symbol id="d" overflow="visible"><path d="m1.313-3.266v-.25c0-2.515 1.234-2.875 1.75-2.875.234 0 .656.063.874.407-.156 0-.546 0-.546.437 0 .313.234.469.453.469.156 0 .469-.094.469-.484 0-.594-.438-1.079-1.266-1.079-1.281.001-2.625 1.282-2.625 3.485 0 2.672 1.156 3.375 2.078 3.375 1.11 0 2.063-.938 2.063-2.25 0-1.266-.891-2.219-2-2.219-.672 0-1.047.5-1.25.984zm1.187 3.204c-.625 0-.922-.594-.984-.75-.188-.47-.188-1.266-.188-1.438 0-.781.328-1.781 1.219-1.781.172 0 .625 0 .937.625.172.36.172.875.172 1.36 0 .483 0 .983-.172 1.343-.296.594-.75.64-.984.64zm0 0"/></symbol><symbol id="e" overflow="visible"><path d="m1.625-4.563c-.453-.296-.5-.625-.5-.796 0-.61.656-1.032 1.36-1.032.718 0 1.359.516 1.359 1.235 0 .578-.39 1.047-.985 1.39zm1.453.954c.719-.375 1.203-.891 1.203-1.547 0-.922-.875-1.485-1.781-1.485-1 0-1.813.735-1.813 1.672 0 .172.016.625.438 1.094.11.11.484.36.734.531-.578.297-1.437.844-1.437 1.844 0 1.047 1.016 1.719 2.062 1.719 1.125 0 2.079-.828 2.079-1.89 0-.36-.11-.813-.5-1.235-.188-.203-.344-.297-.985-.703zm-1 .421 1.235.782c.28.187.75.484.75 1.094 0 .734-.75 1.25-1.563 1.25-.86-.001-1.578-.61-1.578-1.438 0-.578.312-1.219 1.156-1.688zm0 0"/></symbol><symbol id="f" overflow="visible"><path d="m2.938-6.375c0-.25 0-.266-.235-.266-.625.641-1.5.641-1.812.641v.313c.203 0 .78 0 1.296-.266v5.172c0 .36-.03.469-.921.469h-.313v.312c.344-.031 1.203-.031 1.61-.031.39 0 1.265 0 1.609.031v-.313h-.313c-.906 0-.921-.109-.921-.468zm0 0"/></symbol><symbol id="g" overflow="visible"><path d="m2.89-3.516c.813-.265 1.391-.953 1.391-1.75 0-.812-.875-1.375-1.828-1.375-1 0-1.765.594-1.765 1.36 0 .328.218.515.515.515s.5-.218.5-.515c0-.485-.469-.485-.61-.485.298-.5.954-.625 1.313-.625.422 0 .969.22.969 1.11 0 .125-.031.703-.281 1.14-.297.485-.64.516-.89.516a3.29 3.29 0 0 1 -.392.031c-.078.016-.14.031-.14.125 0 .11.062.11.234.11h.438c.812 0 1.187.671 1.187 1.656 0 1.36-.687 1.64-1.125 1.64-.437 0-1.187-.171-1.531-.75.344.047.656-.171.656-.546a.537.537 0 0 0 -.547-.563c-.25 0-.562.14-.562.578 0 .907.922 1.564 2.015 1.564 1.22 0 2.126-.906 2.126-1.922 0-.813-.641-1.594-1.672-1.813zm0 0"/></symbol><symbol id="h" overflow="visible"><path d="m4.469-2c0-1.188-.813-2.188-1.89-2.188-.47 0-.907.157-1.267.516v-1.953c.204.063.532.125.844.125 1.235 0 1.938-.906 1.938-1.031 0-.063-.032-.11-.11-.11 0 0-.03 0-.078.032a3.22 3.22 0 0 1 -1.36.296 3.4 3.4 0 0 1 -1.327-.28c-.078-.032-.094-.032-.11-.032-.109 0-.109.078-.109.234v2.954c0 .171 0 .25.14.25.079 0 .094-.016.141-.079.11-.156.469-.703 1.282-.703.515 0 .765.453.843.64.156.376.188.75.188 1.25 0 .36 0 .954-.25 1.376-.235.39-.61.64-1.063.64-.719 0-1.297-.53-1.469-1.109.032 0 .063.016.172.016.329 0 .5-.25.5-.485 0-.25-.171-.5-.5-.5-.14 0-.484.079-.484.532 0 .859.688 1.828 1.797 1.828 1.156 0 2.172-.953 2.172-2.219zm0 0"/></symbol><symbol id="i" overflow="visible"><path d="m1.766-6.922-1.438.11v.312c.703 0 .781.063.781.563v5.187c0 .438-.109.438-.78.438v.312c.327-.016.859-.031 1.109-.031s.734.015 1.109.031v-.313c-.672 0-.781 0-.781-.437zm0 0"/></symbol><symbol id="j" overflow="visible"><path d="m1.094-3.422v2.672c0 .438-.11.438-.782.438v.312c.36-.016.86-.031 1.141-.031.25 0 .766.015 1.11.031v-.313c-.672 0-.782 0-.782-.437v-1.844c0-1.031.719-1.594 1.344-1.594.64 0 .75.532.75 1.11v2.328c0 .438-.11.438-.781.438v.312c.344-.016.86-.031 1.125-.031.25 0 .781.015 1.11.031v-.313c-.516 0-.766 0-.766-.296v-1.907c0-.859 0-1.156-.313-1.515-.14-.172-.469-.375-1.047-.375-.734 0-1.203.422-1.484 1.047v-1.047l-1.407.11v.312c.704 0 .782.062.782.562zm0 0"/></symbol><symbol id="k" overflow="visible"><path d="m3.297 2.39c0-.03 0-.046-.172-.218-1.234-1.25-1.563-3.14-1.563-4.672 0-1.734.375-3.469 1.61-4.703.125-.125.125-.14.125-.172 0-.078-.031-.11-.094-.11-.11 0-1 .688-1.594 1.954-.499 1.093-.625 2.203-.625 3.031 0 .781.11 1.984.657 3.125.609 1.219 1.453 1.875 1.562 1.875.063 0 .094-.031.094-.11zm0 0"/></symbol><symbol id="l" overflow="visible"><path d="m2.875-2.5c0-.766-.11-1.969-.656-3.11-.594-1.217-1.453-1.873-1.547-1.873a.107.107 0 0 0 -.11.109c0 .031 0 .047.188.234.984.985 1.547 2.563 1.547 4.641 0 1.719-.36 3.469-1.594 4.719-.14.125-.14.14-.14.172 0 .062.046.109.109.109.094 0 1-.688 1.578-1.953.516-1.094.625-2.203.625-3.047zm0 0"/></symbol><symbol id="m" overflow="visible"><path d="m1.906-.531a.534.534 0 0 0 -.515-.531.537.537 0 0 0 -.532.53.524.524 0 1 0 1.047 0zm0 0"/></symbol><symbol id="n" overflow="visible"><path d="m1.328-.828c.531-.578.828-.828 1.188-1.14 0 0 .609-.532.968-.891.954-.922 1.172-1.407 1.172-1.454 0-.093-.093-.093-.11-.093-.077 0-.093.015-.155.11-.297.484-.5.64-.735.64-.25 0-.36-.156-.515-.328-.188-.22-.36-.422-.688-.422-.75 0-1.203.922-1.203 1.14 0 .047.031.11.11.11.093 0 .109-.047.14-.11.188-.468.766-.468.844-.468.203 0 .39.062.625.14.406.156.515.156.765.156-.359.422-1.187 1.141-1.375 1.297l-.906.844c-.672.672-1.031 1.234-1.031 1.313 0 .093.11.093.125.093.078.001.093-.015.156-.125.235-.359.531-.625.86-.625.218 0 .328.094.578.375.156.22.343.375.625.375 1 0 1.578-1.265 1.578-1.53 0-.048-.047-.11-.125-.11-.094 0-.11.062-.14.14-.235.641-.876.829-1.204.829-.188 0-.375-.063-.578-.125-.344-.125-.5-.172-.703-.172-.016 0-.172 0-.266.03zm0 0"/></symbol><symbol id="o" overflow="visible"><path d="m6.563-2.297c.171 0 .359 0 .359-.203 0-.188-.188-.188-.36-.188h-5.39c-.172 0-.344 0-.344.188 0 .203.172.203.344.203zm0 0"/></symbol><clipPath id="p"><path d="m204 159h4.82v5h-4.82zm0 0"/></clipPath><clipPath id="q"><path d="m14.148.398h194.278v161.395h-194.278zm0 0"/></clipPath><path d="m38.986-2.128v4.254m38.988-4.254v4.254m38.988-4.254v4.254m38.985-4.254v4.254m-158.074 26.214h4.253m-4.253 28.34h4.253m-4.253 28.337h4.253m-4.253 28.34h4.253m-4.253 28.34h4.253m-2.125-141.696h191.689" fill="none" stroke="#000" stroke-miterlimit="10" stroke-width=".79701" transform="matrix(1 0 0 -1 14.147 161.794)"/><g clip-path="url(#p)"><path d="m208.426 161.793-4.145-2.07 1.555 2.07-1.555 2.074"/></g><path d="m.001.001v158.805" fill="none" stroke="#000" stroke-miterlimit="10" stroke-width=".79701" transform="matrix(1 0 0 -1 14.147 161.794)"/><path d="m14.148.398-2.074 4.145 2.074-1.555 2.07 1.555"/><use x="46.768" xlink:href="#a" y="174.059"/><use x="51.75" xlink:href="#m" y="174.059"/><use x="54.517" xlink:href="#b" y="174.059"/><use x="85.755" xlink:href="#a" y="174.059"/><use x="90.736" xlink:href="#m" y="174.059"/><use x="93.503" xlink:href="#c" y="174.059"/><use x="124.741" xlink:href="#a" y="174.059"/><use x="129.723" xlink:href="#m" y="174.059"/><use x="132.49" xlink:href="#d" y="174.059"/><use x="163.728" xlink:href="#a" y="174.059"/><use x="168.709" xlink:href="#m" y="174.059"/><use x="171.476" xlink:href="#e" y="174.059"/><use x="3.321" xlink:href="#f" y="136.665"/><use x="3.321" xlink:href="#b" y="108.326"/><use x="3.321" xlink:href="#g" y="79.987"/><use x="3.321" xlink:href="#c" y="51.648"/><use x="3.321" xlink:href="#h" y="23.308"/><g clip-path="url(#q)"><path d="m.001.001 1.439.211 1.437.21 1.442.212c.398.062 1.039.156 1.437.215.403.062 1.04.156 1.442.218.398.059 1.039.157 1.437.215.399.063 1.04.16 1.438.223.402.062 1.043.16 1.441.223.399.058 1.04.16 1.438.222.402.059 1.043.16 1.441.223l1.438.226c.398.067 1.039.168 1.441.23.398.063 1.039.165 1.437.231.399.063 1.04.168 1.438.23.402.067 1.043.173 1.441.235l1.438.239 1.441.238 1.438.238c.398.066 1.039.176 1.437.242.403.07 1.043.18 1.442.246.398.067 1.039.18 1.437.246l1.442.25c.398.067 1.039.18 1.437.25l1.442.254 1.437.254c.398.07 1.04.188 1.438.258.402.07 1.039.188 1.44.262.4.07 1.04.195 1.438.265.399.075 1.04.192 1.442.266.398.074 1.039.191 1.437.27l1.438.265c.402.074 1.043.2 1.441.274.399.078 1.04.199 1.438.277.398.074 1.039.195 1.441.273l1.438.282c.398.078 1.039.203 1.437.285.402.078 1.043.207 1.442.285.398.082 1.039.21 1.437.29l1.441.292 1.438.293c.398.082 1.039.219 1.441.3.399.083 1.04.216 1.438.302.398.082 1.039.218 1.437.304l1.442.309c.398.086 1.039.223 1.437.312.399.086 1.04.227 1.442.313.398.09 1.039.23 1.437.32.399.09 1.04.23 1.438.32.402.094 1.043.239 1.441.329l1.438.328c.398.093 1.039.242 1.441.332l1.437.34c.399.093 1.04.246 1.438.34.402.097 1.043.25 1.441.347l1.438.352 1.441.351c.399.102 1.04.258 1.438.36.398.101 1.039.261 1.437.363.403.101 1.043.266 1.442.367.398.106 1.039.27 1.437.375.403.102 1.04.274 1.442.379.398.105 1.039.273 1.437.383.399.105 1.04.277 1.441.387l1.438.394c.398.11 1.04.29 1.438.398.402.114 1.042.293 1.44.407.4.113 1.04.297 1.438.41.399.113 1.04.3 1.442.418l1.437.422c.399.117 1.04.312 1.442.43l1.437.437c.399.121 1.04.32 1.438.441l1.441.45 1.438.46c.398.125 1.039.332 1.437.465.402.13 1.043.34 1.442.473.398.133 1.039.344 1.437.48.402.133 1.04.352 1.441.489.399.136 1.04.36 1.438.496l1.441.508c.399.14 1.04.37 1.438.515s1.039.383 1.437.528c.403.148 1.043.386 1.442.535.398.152 1.039.394 1.437.547.399.152 1.04.398 1.442.554.398.157 1.039.407 1.437.567.399.16 1.04.418 1.438.582.402.16 1.043.422 1.441.586l1.438.605a229.352 229.352 0 0 1 2.879 1.246c.398.18 1.039.465 1.44.645.4.18 1.04.476 1.438.66l1.438.676c.398.191 1.043.496 1.441.691.399.195 1.04.512 1.438.711.398.2 1.039.523 1.437.727.403.203 1.043.535 1.442.746.398.21 1.039.55 1.437.765.403.22 1.04.567 1.442.79a191.855 191.855 0 0 1 2.879 1.645 95.673 95.673 0 0 1 2.875 1.75 111.75 111.75 0 0 1 2.878 1.858c.403.27 1.04.703 1.442.98.398.278 1.039.727 1.437 1.012a116.164 116.164 0 0 1 2.879 2.148c.399.31 1.04.813 1.438 1.138.398.32 1.043.843 1.441 1.18a88.316 88.316 0 0 1 2.875 2.523 82.082 82.082 0 0 1 4.32 4.269c.399.426 1.04 1.13 1.438 1.578.398.454 1.039 1.196 1.441 1.672a76.49 76.49 0 0 1 2.875 3.672 80.172 80.172 0 0 1 1.442 2.031 89.04 89.04 0 0 1 1.437 2.192 84.31 84.31 0 0 1 1.442 2.37 86.477 86.477 0 0 1 1.437 2.595c.399.754 1.04 2.011 1.442 2.843a100.64 100.64 0 0 1 1.437 3.168c.399.934 1.04 2.504 1.438 3.567a110.96 110.96 0 0 1 1.441 4.082 124.25 124.25 0 0 1 1.437 4.77 147.45 147.45 0 0 1 1.442 5.738c.398 1.797 1.039 4.859 1.437 7.203.399 2.344 1.04 6.281 1.438 9.683.402 3.399 1.043 8.192 1.441 14.817.399 6.625 1.438 32.926 1.438 32.926" fill="none" stroke="#00f" stroke-miterlimit="10" stroke-width=".79701" transform="matrix(1 0 0 -1 14.147 161.794)"/></g><use x="199.634" xlink:href="#n" y="158.075"/><path d="m6.228 139.22h75.457v16.937h-75.457zm0 0" fill="#fff" stroke="#000" stroke-miterlimit="10" stroke-width=".79701" transform="matrix(1 0 0 -1 14.147 161.794)"/><path d="m0 .002h17.01" fill="none" stroke="#00f" stroke-miterlimit="10" stroke-width=".79701" transform="matrix(1 0 0 -1 23.761 14.107)"/><use x="43.16" xlink:href="#o" y="17.096"/><g><use x="52.569" xlink:href="#i" y="17.096"/><use x="55.337" xlink:href="#j" y="17.096"/><use x="60.872" xlink:href="#k" y="17.096"/><use x="64.746" xlink:href="#f" y="17.096"/></g><use x="71.941" xlink:href="#o" y="17.096"/><use x="81.903" xlink:href="#n" y="17.096"/><use x="86.975" xlink:href="#l" y="17.096"/></svg>