<svg xmlns="http://www.w3.org/2000/svg" xmlns:xlink="http://www.w3.org/1999/xlink" width="275.588" height="426.809" viewBox="0 0 206.691 320.107"><defs><symbol overflow="visible" id="a"><path style="stroke:none" d="M4.672-3.703c0-.547-.266-.703-.438-.703-.25 0-.5.265-.5.484 0 .125.047.188.157.297.218.203.343.453.343.813 0 .421-.609 2.703-1.765 2.703-.516 0-.75-.344-.75-.875 0-.547.281-1.282.578-2.11.078-.172.125-.312.125-.5 0-.437-.313-.812-.813-.812-.937 0-1.312 1.453-1.312 1.531 0 .11.094.11.11.11.109 0 .109-.032.156-.188.296-1 .718-1.235 1.015-1.235.078 0 .25 0 .25.313 0 .25-.11.531-.172.703-.437 1.156-.562 1.61-.562 2.047 0 1.078.875 1.234 1.328 1.234 1.672 0 2.25-3.296 2.25-3.812Zm0 0"/></symbol><symbol overflow="visible" id="o"><path style="stroke:none" d="M7.61-6.047c.093-.36.109-.453.827-.453.266 0 .344 0 .344-.203 0-.11-.11-.11-.14-.11-.282 0-1 .032-1.282.032-.28 0-.984-.032-1.28-.032-.079 0-.188 0-.188.204 0 .109.093.109.28.109.016 0 .204 0 .376.016.187.03.266.03.266.171 0 .032 0 .047-.032.188l-.593 2.422H3.14l.593-2.344c.079-.36.11-.453.829-.453.265 0 .343 0 .343-.203 0-.11-.11-.11-.14-.11-.282 0-1 .032-1.282.032-.28 0-.984-.032-1.28-.032-.079 0-.188 0-.188.204 0 .109.093.109.28.109.017 0 .204 0 .376.016.172.03.265.03.265.171 0 .032 0 .063-.03.188L1.561-.781c-.093.39-.109.469-.906.469-.172 0-.265 0-.265.203C.39 0 .516 0 .53 0c.281 0 .985-.031 1.266-.031.203 0 .422.015.64.015.22 0 .438.016.641.016.078 0 .203 0 .203-.203 0-.11-.094-.11-.281-.11-.375 0-.64 0-.64-.171 0-.063.015-.11.015-.172l.688-2.735h3.03c-.405 1.657-.64 2.61-.687 2.75-.093.329-.281.329-.906.329-.14 0-.234 0-.234.203 0 .109.125.109.14.109.282 0 .985-.031 1.266-.031.203 0 .422.015.64.015.22 0 .438.016.641.016.078 0 .203 0 .203-.203 0-.11-.093-.11-.281-.11-.36 0-.64 0-.64-.171 0-.063.015-.11.03-.172Zm0 0"/></symbol><symbol overflow="visible" id="y"><path style="stroke:none" d="M4.36-6.672c0-.031.03-.14.03-.14 0-.016 0-.11-.124-.11-.094 0-.11.031-.157.203l-.578 2.297C1.953-4.359.484-3.047.484-1.688c0 .954.704 1.735 1.922 1.813-.078.297-.156.625-.234.938-.125.468-.219.843-.219.875 0 .093.078.109.125.109s.063-.016.094-.047a3 3 0 0 0 .11-.39L2.655.124C4.266.062 5.72-1.281 5.72-2.609c0-.797-.532-1.704-1.922-1.813ZM2.452-.094C1.858-.125 1.14-.484 1.14-1.469c0-1.203.859-2.593 2.343-2.734Zm1.281-4.11c.766.048 1.329.5 1.329 1.376 0 1.187-.86 2.61-2.344 2.734Zm0 0"/></symbol><symbol overflow="visible" id="A"><path style="stroke:none" d="M7.063-2.328c.015-.047.046-.11.046-.14 0 0 0-.11-.125-.11-.093 0-.109.062-.125.125-.656 1.469-1.015 2.14-2.718 2.14H2.469c-.11-.015-.14-.03-.14-.109 0-.031 0-.047.046-.219l.688-2.734h.984c.844 0 .844.219.844.469 0 .062 0 .187-.063.484-.016.047-.031.078-.031.11 0 .046.031.109.125.109.078 0 .11-.047.156-.203l.563-2.328c0-.063-.047-.11-.125-.11-.079 0-.11.063-.125.172-.22.766-.391 1-1.313 1h-.937l.593-2.406c.094-.36.11-.39.547-.39h1.407c1.203 0 1.515.28 1.515 1.109 0 .234 0 .25-.047.53 0 .048-.015.126-.015.173 0 .047.03.125.125.125.109 0 .125-.063.14-.25l.203-1.735c.032-.265-.015-.265-.265-.265H2.297c-.188 0-.297 0-.297.203 0 .11.094.11.281.11.375 0 .656 0 .656.171 0 .047 0 .063-.062.25L1.562-.78c-.093.39-.109.469-.906.469-.172 0-.281 0-.281.187C.375 0 .469 0 .656 0h5.172c.234 0 .25-.016.313-.172Zm0 0"/></symbol><symbol overflow="visible" id="B"><path style="stroke:none" d="M.328 1.719c-.031.125-.031.14-.031.172 0 .14.11.265.281.265.203 0 .328-.187.344-.219.062-.078.375-1.421.64-2.5.204.407.516.672.985.672C3.719.11 5-1.297 5-2.78c0-1.063-.656-1.625-1.375-1.625-.969 0-2.016 1-2.313 2.218ZM2.547-.11c-.703 0-.86-.797-.86-.891 0-.031.047-.234.079-.36.28-1.124.375-1.484.593-1.874.438-.735.938-.954 1.235-.954.375 0 .687.297.687.985 0 .547-.281 1.656-.547 2.14-.328.641-.812.954-1.187.954Zm0 0"/></symbol><symbol overflow="visible" id="G"><path style="stroke:none" d="M3.656-3.984h.86c.203 0 .296 0 .296-.204 0-.109-.093-.109-.265-.109h-.828l.203-1.14c.047-.204.187-.907.25-1.032.078-.187.25-.343.469-.343.03 0 .296 0 .484.187a.557.557 0 0 0-.547.531c0 .235.188.36.375.36.266 0 .547-.235.547-.61 0-.453-.453-.687-.86-.687-.343 0-.968.187-1.265 1.172-.063.203-.094.312-.328 1.562h-.688c-.203 0-.312 0-.312.188 0 .125.094.125.281.125h.656L2.25-.047c-.188.969-.36 1.875-.875 1.875-.047 0-.281 0-.484-.187.468-.032.562-.391.562-.532 0-.234-.187-.359-.375-.359-.266 0-.547.234-.547.61 0 .437.438.687.844.687.547 0 .953-.594 1.125-.969.328-.625.547-1.828.563-1.906Zm0 0"/></symbol><symbol overflow="visible" id="aw"><path style="stroke:none" d="M4.25-6.047c.078-.281.11-.344.234-.375.094-.016.422-.016.625-.016 1.016 0 1.454.032 1.454.813 0 .156-.032.547-.079.797 0 .047-.03.156-.03.187 0 .063.03.141.124.141.11 0 .125-.078.156-.234L7-6.47c.016-.047.016-.14.016-.172 0-.109-.094-.109-.266-.109H1.219c-.235 0-.25.016-.328.203l-.594 1.75c0 .016-.063.156-.063.188 0 .046.063.109.125.109.094 0 .11-.063.172-.219.531-1.547.797-1.718 2.266-1.718h.39c.282 0 .282.03.282.125a.775.775 0 0 1-.047.203L2.094-.781C2-.421 1.969-.312.906-.312c-.36 0-.422 0-.422.187C.484 0 .594 0 .656 0c.266 0 .547-.016.813-.016.281 0 .578-.015.86-.015.28 0 .546.015.827.015.281 0 .578.016.86.016.093 0 .218 0 .218-.203 0-.11-.078-.11-.343-.11-.235 0-.375 0-.625-.015-.297-.031-.375-.063-.375-.219 0-.015 0-.062.046-.203Zm0 0"/></symbol><symbol overflow="visible" id="aA"><path style="stroke:none" d="M6.266-5.672c.484-.781.906-.812 1.265-.828.125-.016.14-.172.14-.188 0-.078-.062-.125-.14-.125-.25 0-.547.032-.812.032-.328 0-.672-.032-.985-.032-.062 0-.187 0-.187.188 0 .11.078.125.156.125.266.016.453.125.453.328 0 .156-.14.375-.14.375L2.953-.922l-.687-5.281c0-.172.234-.297.687-.297.14 0 .25 0 .25-.203 0-.078-.078-.11-.125-.11-.406 0-.828.032-1.25.032h-.547c-.172 0-.36-.032-.531-.032-.078 0-.188 0-.188.188 0 .125.079.125.25.125.547 0 .563.094.594.344l.782 6.14c.03.204.078.235.203.235.156 0 .203-.047.28-.172Zm0 0"/></symbol><symbol overflow="visible" id="b"><path style="stroke:none" d="M3.063-1.594c.156 0 .203 0 .203-.14 0-.625-.344-1.375-1.391-1.375a1.59 1.59 0 0 0-1.61 1.578c0 .89.782 1.593 1.704 1.593.937 0 1.297-.75 1.297-.906 0-.015-.016-.094-.125-.094-.094 0-.11.047-.125.11-.22.562-.75.672-1 .672-.329 0-.641-.14-.844-.406-.266-.329-.266-.75-.266-1.032ZM.905-1.766c.078-.984.703-1.14.969-1.14.86 0 .89.969.906 1.14Zm0 0"/></symbol><symbol overflow="visible" id="c"><path style="stroke:none" d="m2.36-1.563-.047-.062c0-.031.453-.516.515-.578.25-.281.485-.547 1.047-.547V-3a7.76 7.76 0 0 1-.594.031c-.203 0-.484-.015-.687-.031v.25c.11.016.14.094.14.156 0 .016 0 .125-.109.235l-.484.546-.579-.656c-.078-.078-.078-.11-.078-.14 0-.094.094-.141.188-.141V-3c-.25.016-.516.031-.781.031-.204 0-.47-.015-.672-.031v.25c.312 0 .5 0 .687.203l.86 1c.015.016.062.063.062.078 0 .016-.531.594-.594.672-.265.281-.5.531-1.046.547V0C.39-.016.546-.031.765-.031c.203 0 .484.015.687.031v-.25c-.078-.016-.14-.063-.14-.156 0-.14.078-.235.187-.344l.5-.547.594.703c.14.14.14.156.14.203 0 .125-.156.141-.187.141V0c.062 0 .562-.031.781-.031.219 0 .453.015.672.031v-.25c-.469 0-.516-.047-.688-.219Zm0 0"/></symbol><symbol overflow="visible" id="d"><path style="stroke:none" d="M1.406-2.75h1.078V-3H1.406v-1.281h-.25c0 .625-.281 1.312-.953 1.328v.203h.64v1.875c0 .781.595.938.985.938.469 0 .781-.391.781-.938v-.39h-.234v.374c0 .485-.219.735-.5.735-.469 0-.469-.578-.469-.703Zm0 0"/></symbol><symbol overflow="visible" id="k"><path style="stroke:none" d="M4.766-4.188c0-.25.015-.328.546-.328h.172v-.25a28.66 28.66 0 0 1-1.046.032c-.266 0-.704-.016-1.063-.032v.25h.172c.531 0 .547.079.547.329v1.593H1.766v-1.594c0-.25.015-.328.562-.328h.156v-.25c-.343.016-.796.032-1.046.032S.734-4.75.39-4.766v.25h.171c.532 0 .547.079.547.329v3.625c0 .234-.015.312-.546.312H.39V0c.343-.016.796-.031 1.046-.031S2.14-.016 2.483 0v-.25h-.156c-.547 0-.562-.078-.562-.313v-1.78h2.328v1.78c0 .235-.016.313-.547.313h-.172V0c.36-.016.797-.031 1.047-.031.266 0 .703.015 1.062.031v-.25h-.171c-.532 0-.547-.078-.547-.313Zm0 0"/></symbol><symbol overflow="visible" id="m"><path style="stroke:none" d="M2.703-2.781a.328.328 0 0 0-.187.312c0 .188.125.328.328.328.187 0 .328-.125.328-.343 0-.625-.969-.625-1.156-.625C.969-3.11.328-2.313.328-1.5c0 .875.734 1.563 1.656 1.563 1.032 0 1.282-.813 1.282-.907 0-.078-.094-.078-.125-.078-.094 0-.094.016-.125.125-.157.422-.532.64-.954.64-.484 0-1.109-.359-1.109-1.359 0-.875.438-1.375 1.078-1.375.094 0 .422 0 .672.11Zm0 0"/></symbol><symbol overflow="visible" id="s"><path style="stroke:none" d="M3.36-3.875v-.266H.593v.266Zm0 0"/></symbol><symbol overflow="visible" id="v"><path style="stroke:none" d="M3.516-1.266H3.28c-.015.157-.094.563-.187.625-.047.047-.578.047-.688.047h-1.28c.734-.64.984-.844 1.39-1.172.516-.406 1-.843 1-1.5 0-.843-.734-1.359-1.624-1.359-.86 0-1.454.61-1.454 1.25 0 .344.297.39.376.39a.365.365 0 0 0 .359-.374c0-.125-.047-.375-.406-.375.218-.485.687-.641 1.015-.641.703 0 1.063.547 1.063 1.11 0 .609-.438 1.078-.656 1.328L.516-.266C.437-.203.437-.187.437 0h2.876Zm0 0"/></symbol><symbol overflow="visible" id="E"><path style="stroke:none" d="M5.36-2.344c.093 0 .25 0 .25-.172 0-.171-.157-.171-.25-.171H.75c-.094 0-.266 0-.266.171 0 .172.157.172.266.172Zm0 1.531c.093 0 .25 0 .25-.156 0-.187-.157-.187-.25-.187H.75c-.11 0-.266 0-.266.187 0 .156.172.156.266.156Zm0 0"/></symbol><symbol overflow="visible" id="F"><path style="stroke:none" d="M2.328-4.438c0-.187 0-.187-.203-.187-.453.438-1.078.438-1.36.438v.25c.157 0 .626 0 1-.188v3.547c0 .234 0 .328-.687.328H.812V0c.125 0 .985-.031 1.235-.031.219 0 1.094.031 1.25.031v-.25H3.03c-.703 0-.703-.094-.703-.328Zm0 0"/></symbol><symbol overflow="visible" id="ae"><path style="stroke:none" d="M1.469-4.297a.413.413 0 0 0-.407-.406.4.4 0 0 0-.39.406.4.4 0 0 0 .39.406.394.394 0 0 0 .407-.406ZM.406-3v.25c.438 0 .5.047.5.39v1.813c0 .297-.062.297-.515.297V0c.015 0 .5-.031.78-.031.25 0 .5.015.735.031v-.25c-.406 0-.468 0-.468-.297v-2.531Zm0 0"/></symbol><symbol overflow="visible" id="af"><path style="stroke:none" d="M3.594-2.11c0-.609-.297-.968-1.047-.968-.578 0-.938.312-1.14.687v-.687L.374-3v.25c.469 0 .531.047.531.39v1.813c0 .297-.078.297-.531.297V0c.016 0 .5-.031.797-.031.25 0 .734.031.797.031v-.25c-.453 0-.516 0-.516-.297v-1.265c0-.72.578-1.063 1.031-1.063.485 0 .547.375.547.734v1.594c0 .297-.062.297-.515.297V0c.015 0 .5-.031.796-.031.25 0 .735.031.797.031v-.25c-.453 0-.515 0-.515-.297Zm0 0"/></symbol><symbol overflow="visible" id="an"><path style="stroke:none" d="M2.719-3.031c-.078.015-.11.015-.125.015C2.578-3 2.563-3 2.469-3h-1.11v-.766c0-.687.72-.937 1.204-.937.234 0 .468.047.656.187-.25.063-.281.25-.281.329 0 .218.171.343.343.343.125 0 .344-.078.344-.344 0-.39-.39-.718-1.047-.718-.719 0-1.719.328-1.719 1.14V-3H.266v.25h.593v2.203C.86-.25.797-.25.344-.25V0c.015 0 .5-.031.781-.031.266 0 .516.015.781.031v-.25c-.453 0-.515 0-.515-.297V-2.75h1.39c.281 0 .328.063.328.375v1.828c0 .297-.062.297-.515.297V0c.015 0 .5-.031.781-.031.266 0 .516.015.781.031v-.25c-.453 0-.515 0-.515-.297v-2.547Zm0 0"/></symbol><symbol overflow="visible" id="e"><path style="stroke:none" d="M1.469-.11c0 .376-.063.829-.547 1.266-.016.032-.047.063-.047.094 0 .047.063.094.094.094.11 0 .703-.563.703-1.39 0-.423-.172-.75-.5-.75a.387.387 0 0 0-.39.39c0 .219.155.406.405.406.172 0 .282-.11.282-.11Zm0 0"/></symbol><symbol overflow="visible" id="f"><path style="stroke:none" d="M3-2.625c-.172.047-.297.188-.297.328 0 .172.14.235.235.235.078 0 .343-.047.343-.407 0-.453-.5-.61-.937-.61-1.078 0-1.281.813-1.281 1.017 0 .265.156.437.25.515.171.14.296.172.78.25.157.031.595.11.595.453 0 .125-.079.39-.36.563-.281.156-.625.156-.703.156-.281 0-.672-.063-.844-.297.235-.031.39-.203.39-.39 0-.172-.124-.266-.265-.266C.703-1.078.5-.906.5-.61c0 .421.438.671 1.11.671 1.296 0 1.53-.875 1.53-1.14 0-.64-.703-.766-.968-.813-.063-.015-.235-.046-.281-.062-.25-.047-.375-.188-.375-.344 0-.156.125-.344.28-.453.188-.11.423-.125.548-.125.14 0 .5.016.656.25Zm0 0"/></symbol><symbol overflow="visible" id="p"><path style="stroke:none" d="M3.984-2.797c-.03-.062-.046-.078-.046-.094 0-.015.015-.015.171-.125l.704-.5c.921-.64 1.359-.953 1.843-1 .078 0 .172 0 .172-.14 0-.063-.047-.094-.094-.094-.156 0-.328.016-.484.016-.188 0-.656-.032-.844-.032-.047 0-.14 0-.14.157 0 .015 0 .093.093.093.094.016.188.032.188.11 0 .125-.219.281-.313.343L2.328-2.015l.547-2.203c.063-.234.078-.297.61-.297.124 0 .218 0 .218-.14a.107.107 0 0 0-.11-.11c-.202 0-.718.032-.921.032h-.485a3.841 3.841 0 0 0-.437-.032c-.031 0-.14 0-.14.157 0 .093.077.093.234.093.11 0 .14 0 .265.016.141.016.157.031.157.11 0 0 0 .046-.032.14L1.297-.547c-.047.235-.063.297-.61.297-.125 0-.203 0-.203.156 0 0 0 .094.11.094.203 0 .703-.031.906-.031.11 0 .36 0 .484.015.141 0 .313.016.438.016.047 0 .156 0 .156-.156 0-.094-.094-.094-.234-.094 0 0-.14 0-.266-.016-.156-.015-.156-.03-.156-.109 0-.047.078-.313.328-1.328l1.156-.813L4.422-.562c.047.093.047.093.047.125 0 .171-.203.187-.328.187-.079 0-.172 0-.172.156 0 0 0 .094.11.094.202 0 .702-.031.89-.031.218 0 .5.031.687.031.094 0 .14-.047.14-.14 0-.11-.093-.11-.155-.11-.125 0-.344-.016-.47-.234Zm0 0"/></symbol><symbol overflow="visible" id="q"><path style="stroke:none" d="M4.953-4.813c0-.03-.031-.093-.094-.093-.046 0-.046.015-.14.11l-.344.39c-.266-.375-.703-.5-1.125-.5-.984 0-1.86.797-1.86 1.61 0 .093.032.374.235.64.234.265.5.328.969.453.14.031.484.11.594.14.218.047.64.204.64.72 0 .562-.594 1.234-1.375 1.234-.625 0-1.36-.22-1.36-.985 0-.078.016-.234.048-.36v-.03c0-.094-.079-.094-.11-.094-.093 0-.11.016-.125.14L.546-.046a.234.234 0 0 0-.03.11c0 .03.03.078.109.078.031 0 .047-.016.14-.094.079-.094.25-.313.329-.39C1.469.062 2 .14 2.422.14c1.062 0 1.906-.907 1.906-1.735 0-.297-.125-.578-.281-.734-.234-.25-.344-.281-1.25-.5-.14-.031-.375-.078-.438-.11-.171-.062-.468-.234-.468-.624 0-.563.625-1.11 1.343-1.11.766 0 1.125.422 1.125 1.078 0 .094-.03.25-.03.313 0 .11.077.11.124.11.094 0 .11-.048.125-.157Zm0 0"/></symbol><symbol overflow="visible" id="t"><path style="stroke:none" d="M2.188-4.625c0-.016.015-.11.015-.11 0-.046-.015-.109-.11-.109-.14 0-.718.063-.89.078-.047 0-.156.016-.156.157 0 .093.11.093.187.093.329 0 .329.063.329.11s-.016.093-.016.156L.563-.312c-.047.124-.047.14-.047.156 0 .11.093.218.25.218a.317.317 0 0 0 .28-.171c.016-.047.079-.297.11-.438l.172-.625c.016-.11.094-.375.11-.469.062-.265.062-.28.203-.5.234-.343.578-.734 1.125-.734.39 0 .406.313.406.484 0 .422-.297 1.188-.406 1.485-.079.203-.11.265-.11.375 0 .375.313.594.656.594.704 0 1.016-.954 1.016-1.063 0-.094-.094-.094-.125-.094-.094 0-.094.047-.125.125-.156.563-.469.844-.734.844-.156 0-.188-.094-.188-.25s.047-.25.172-.563c.078-.218.36-.953.36-1.343 0-.11 0-.406-.25-.61a1.17 1.17 0 0 0-.657-.187c-.5 0-.875.281-1.125.578Zm0 0"/></symbol><symbol overflow="visible" id="w"><path style="stroke:none" d="M3.031-.563a3.35 3.35 0 0 0-.11.407c0 .156.126.218.235.218.14 0 .25-.078.281-.14a3.17 3.17 0 0 0 .126-.438c.03-.125.109-.453.156-.625.031-.156.078-.312.11-.468.077-.297.077-.313.218-.532.219-.343.578-.734 1.11-.734.39 0 .421.313.421.484 0 .422-.297 1.188-.422 1.485-.062.203-.093.265-.093.375 0 .375.296.594.656.594.703 0 1-.954 1-1.063 0-.094-.078-.094-.11-.094-.093 0-.093.047-.125.125-.156.563-.468.844-.734.844-.156 0-.188-.094-.188-.25s.047-.25.172-.563c.079-.218.36-.953.36-1.343 0-.11 0-.406-.25-.61a1.17 1.17 0 0 0-.657-.187c-.625 0-1 .422-1.234.703-.047-.594-.547-.703-.906-.703-.578 0-.969.36-1.172.64-.047-.484-.453-.64-.75-.64s-.453.219-.547.375c-.156.265-.25.656-.25.703 0 .078.094.078.125.078.094 0 .094-.016.14-.203.11-.406.25-.75.516-.75.188 0 .235.156.235.344 0 .125-.063.39-.125.578-.047.187-.11.469-.14.625l-.235.89C.828-.344.78-.171.78-.156c0 .156.125.218.235.218a.377.377 0 0 0 .28-.14c.032-.063.079-.297.126-.438.031-.125.11-.453.14-.625.047-.156.094-.312.125-.468.079-.282.094-.344.297-.625.188-.282.516-.641 1.047-.641.39 0 .406.36.406.484 0 .172-.015.266-.124.657Zm0 0"/></symbol><symbol overflow="visible" id="z"><path style="stroke:none" d="M2.266-4.36a.276.276 0 0 0-.282-.265c-.187 0-.39.188-.39.39 0 .11.078.266.281.266.188 0 .39-.203.39-.39ZM.844-.811C.813-.72.78-.641.78-.516c0 .329.266.579.656.579.688 0 1-.954 1-1.063 0-.094-.093-.094-.109-.094-.094 0-.11.047-.14.125-.157.563-.454.844-.735.844-.14 0-.172-.094-.172-.25s.047-.281.11-.438c.078-.187.156-.375.218-.562.063-.172.329-.797.344-.89A.5.5 0 0 0 2-2.486c0-.328-.281-.593-.656-.593C.64-3.078.328-2.125.328-2c0 .078.094.078.125.078.094 0 .094-.031.125-.11.172-.593.485-.843.735-.843.109 0 .171.047.171.234 0 .172-.03.266-.203.704Zm0 0"/></symbol><symbol overflow="visible" id="D"><path style="stroke:none" d="M.844-.438C.828-.344.78-.171.78-.156c0 .156.125.218.235.218a.377.377 0 0 0 .28-.14c.032-.063.079-.297.126-.438.031-.125.11-.453.14-.625.047-.156.094-.312.125-.468.079-.282.094-.344.297-.625.188-.282.516-.641 1.047-.641.39 0 .406.36.406.484 0 .422-.296 1.188-.406 1.485-.078.203-.11.265-.11.375 0 .375.298.594.657.594.703 0 1-.954 1-1.063 0-.094-.078-.094-.11-.094-.093 0-.093.047-.124.125-.157.563-.469.844-.735.844-.156 0-.187-.094-.187-.25s.047-.25.172-.563c.078-.218.36-.953.36-1.343 0-.672-.532-.797-.907-.797-.578 0-.969.36-1.172.64-.047-.484-.453-.64-.75-.64s-.453.219-.547.375c-.156.265-.25.656-.25.703 0 .078.094.078.125.078.094 0 .094-.016.14-.203.11-.406.25-.75.516-.75.188 0 .235.156.235.344 0 .125-.063.39-.125.578-.047.187-.11.469-.14.625Zm0 0"/></symbol><symbol overflow="visible" id="aq"><path style="stroke:none" d="M4.984-3.938c.25-.374.485-.546.86-.578.078 0 .156 0 .156-.14 0-.032-.016-.11-.094-.11-.172 0-.39.032-.562.032-.219 0-.516-.032-.719-.032-.063 0-.14.032-.14.157 0 .093.093.093.124.093.22.016.282.11.282.204 0 .109-.047.171-.125.28L2.484-.655l-.64-3.563c-.016-.062-.016-.078-.016-.11 0-.187.39-.187.438-.187.125 0 .218 0 .218-.14a.117.117 0 0 0-.125-.11c-.203 0-.687.032-.89.032-.172 0-.61-.032-.782-.032-.062 0-.14.032-.14.157 0 .093.094.093.172.093.39 0 .406.047.437.235l.766 4.234c.016.14.031.188.156.188.14 0 .172-.047.25-.157Zm0 0"/></symbol><symbol overflow="visible" id="ax"><path style="stroke:none" d="M1.563-1.594c.187 0 .75-.015 1.125-.14.515-.188.609-.516.609-.72 0-.39-.39-.624-.86-.624-.843 0-1.968.64-1.968 1.844 0 .703.437 1.296 1.25 1.296 1.187 0 1.734-.687 1.734-.78 0-.048-.062-.126-.125-.126-.031 0-.047.016-.11.078-.546.641-1.359.641-1.484.641-.421 0-.703-.281-.703-.844 0-.094 0-.234.094-.625Zm-.391-.187c.297-1.016 1.062-1.094 1.266-1.094.296 0 .562.156.562.422 0 .672-1.188.672-1.484.672Zm0 0"/></symbol><symbol overflow="visible" id="aB"><path style="stroke:none" d="M5.86-4.188c.062-.265.077-.328.593-.328.156 0 .234 0 .234-.14 0-.032-.015-.11-.109-.11-.203 0-.703.032-.906.032h-.484a4.43 4.43 0 0 0-.438-.032c-.047 0-.156 0-.156.157 0 .093.093.093.234.093 0 0 .14 0 .266.016.14.016.156.031.156.11 0 0 0 .046-.031.14l-.407 1.656H2.47l.406-1.625c.063-.234.078-.297.61-.297.124 0 .218 0 .218-.14 0-.032-.031-.11-.11-.11-.202 0-.718.032-.921.032h-.485a3.841 3.841 0 0 0-.437-.032c-.031 0-.14 0-.14.157 0 .093.077.093.218.093.016 0 .14 0 .266.016.156.016.172.031.172.11 0 0 0 .046-.032.14L1.297-.547c-.047.235-.063.297-.61.297-.109 0-.203 0-.203.14 0 .079.047.11.11.11.203 0 .703-.031.906-.031.11 0 .36 0 .484.015.141 0 .313.016.438.016.031 0 .156 0 .156-.14 0-.11-.078-.11-.234-.11-.11 0-.14 0-.266-.016-.156-.015-.156-.03-.156-.109 0 0 0-.047.031-.14l.453-1.829H4.75L4.297-.547c-.063.235-.078.297-.625.297-.11 0-.203 0-.203.14 0 .079.047.11.11.11.202 0 .702-.031.905-.031.125 0 .36 0 .485.015.14 0 .312.016.453.016.031 0 .14 0 .14-.14 0-.11-.078-.11-.234-.11-.11 0-.14 0-.266-.016-.156-.015-.156-.03-.156-.109 0-.031.032-.11.032-.14Zm0 0"/></symbol><symbol overflow="visible" id="aC"><path style="stroke:none" d="M1.734-.734c-.062.234-.296.609-.656.609-.016 0-.234 0-.375-.094a.437.437 0 0 0 .313-.39c0-.157-.125-.25-.282-.25a.407.407 0 0 0-.406.421c0 .344.39.5.734.5.329 0 .61-.187.782-.484.172.36.547.484.828.484.812 0 1.234-.859 1.234-1.062 0-.094-.094-.094-.11-.094-.108 0-.108.047-.14.125-.14.485-.562.844-.953.844-.281 0-.422-.188-.422-.453 0-.188.172-.813.36-1.594.14-.531.453-.703.687-.703.016 0 .219 0 .375.094a.431.431 0 0 0-.312.39c0 .141.125.25.28.25a.403.403 0 0 0 .392-.421c0-.391-.454-.516-.72-.516-.359 0-.64.234-.78.5-.126-.281-.454-.5-.844-.5C.937-3.078.5-2.218.5-2c0 .078.094.078.11.078.093 0 .093-.016.14-.11.172-.546.61-.843.953-.843.234 0 .422.125.422.453 0 .14-.094.485-.156.735Zm0 0"/></symbol><symbol overflow="visible" id="aD"><path style="stroke:none" d="M3.047-2.672c-.25.047-.344.235-.344.39 0 .188.14.266.266.266.156 0 .39-.109.39-.453 0-.469-.53-.61-.906-.61-1.047 0-2.015.97-2.015 1.938 0 .594.406 1.204 1.28 1.204 1.188 0 1.735-.688 1.735-.782 0-.047-.062-.125-.125-.125-.031 0-.047.016-.11.078-.546.641-1.359.641-1.484.641-.5 0-.718-.344-.718-.781 0-.188.093-.953.453-1.438.265-.344.625-.531.984-.531.094 0 .422.016.594.203Zm0 0"/></symbol><symbol overflow="visible" id="aE"><path style="stroke:none" d="M2.875-4.203c.063-.25.078-.313.61-.313.171 0 .25 0 .25-.14a.107.107 0 0 0-.11-.11c-.14 0-.328.032-.469.032h-.953c-.156 0-.328-.032-.484-.032-.047 0-.14 0-.14.157 0 .093.077.093.234.093 0 0 .14 0 .25.016.14.016.203.031.203.11 0 .03-.016.077-.032.14L1.297-.547c-.047.219-.078.297-.594.297-.187 0-.25 0-.25.156 0 0 0 .094.11.094.203 0 .734-.031.937-.031l.484.015c.141 0 .329.016.47.016.046 0 .155 0 .155-.156 0-.094-.093-.094-.218-.094-.016 0-.172 0-.313-.016-.156-.015-.156-.046-.156-.109 0 0 0-.047.031-.14Zm0 0"/></symbol><symbol overflow="visible" id="g"><path style="stroke:none" d="M3.297 2.39c0-.03 0-.046-.172-.218C1.891.922 1.562-.968 1.562-2.5c0-1.734.375-3.469 1.61-4.703.125-.125.125-.14.125-.172 0-.078-.031-.11-.094-.11-.11 0-1 .688-1.594 1.954C1.11-4.438.984-3.328.984-2.5c0 .781.11 1.984.657 3.125C2.25 1.844 3.094 2.5 3.203 2.5c.063 0 .094-.031.094-.11Zm0 0"/></symbol><symbol overflow="visible" id="i"><path style="stroke:none" d="M2.875-2.5c0-.766-.11-1.969-.656-3.11C1.625-6.827.766-7.483.672-7.483a.107.107 0 0 0-.11.109c0 .031 0 .047.188.234.984.985 1.547 2.563 1.547 4.641C2.297-.78 1.937.97.703 2.22c-.14.125-.14.14-.14.172 0 .062.046.109.109.109.094 0 1-.688 1.578-1.953.516-1.094.625-2.203.625-3.047Zm0 0"/></symbol><symbol overflow="visible" id="j"><path style="stroke:none" d="M6.844-3.266c.156 0 .343 0 .343-.187 0-.203-.187-.203-.328-.203H.891c-.141 0-.329 0-.329.203 0 .187.188.187.329.187Zm.015 1.938c.141 0 .329 0 .329-.203 0-.188-.188-.188-.344-.188H.89c-.141 0-.329 0-.329.188 0 .203.188.203.329.203Zm0 0"/></symbol><symbol overflow="visible" id="l"><path style="stroke:none" d="M4.078-2.297H6.86c.141 0 .329 0 .329-.203 0-.188-.188-.188-.329-.188H4.08v-2.796c0-.141 0-.329-.204-.329-.203 0-.203.188-.203.329v2.796H.89c-.141 0-.329 0-.329.188 0 .203.188.203.329.203h2.78V.5c0 .14 0 .328.204.328.203 0 .203-.187.203-.328Zm0 0"/></symbol><symbol overflow="visible" id="n"><path style="stroke:none" d="m2.5-6.922-1.344 1.36.172.171L2.5-6.406l1.14 1.015.172-.171Zm0 0"/></symbol><symbol overflow="visible" id="I"><path style="stroke:none" d="M.563-3.406C.563-1.344 2.171.219 4.03.219c1.625 0 2.594-1.39 2.594-2.547 0-.094 0-.172-.125-.172-.11 0-.11.063-.125.172C6.297-.906 5.235-.094 4.141-.094c-.61 0-2.563-.328-2.563-3.312 0-2.969 1.953-3.313 2.563-3.313 1.078 0 1.968.907 2.171 2.36.016.14.016.171.157.171.156 0 .156-.03.156-.234v-2.36c0-.171 0-.25-.11-.25-.03 0-.077 0-.156.126l-.5.734c-.359-.36-.875-.86-1.828-.86-1.875 0-3.468 1.595-3.468 3.626Zm0 0"/></symbol><symbol overflow="visible" id="J"><path style="stroke:none" d="M4.688-2.14c0-1.266-.985-2.329-2.188-2.329C1.25-4.469.281-3.375.281-2.14A2.22 2.22 0 0 0 2.484.11c1.204 0 2.204-.984 2.204-2.25ZM2.5-.14c-.438 0-.875-.204-1.14-.672-.25-.438-.25-1.047-.25-1.407 0-.39 0-.922.234-1.36a1.347 1.347 0 0 1 1.14-.671c.438 0 .86.219 1.125.656.266.422.266 1 .266 1.375 0 .36 0 .906-.219 1.344-.234.453-.672.734-1.156.734Zm0 0"/></symbol><symbol overflow="visible" id="K"><path style="stroke:none" d="M1.094-3.422V-.75c0 .438-.11.438-.782.438V0c.36-.016.86-.031 1.141-.031.25 0 .766.015 1.11.031v-.313c-.672 0-.782 0-.782-.437v-1.844c0-1.031.719-1.594 1.344-1.594.64 0 .75.532.75 1.11V-.75c0 .438-.11.438-.781.438V0c.344-.016.86-.031 1.125-.031.25 0 .781.015 1.11.031v-.313c-.516 0-.766 0-.766-.296v-1.907c0-.859 0-1.156-.313-1.515-.14-.172-.469-.375-1.047-.375-.734 0-1.203.422-1.484 1.047v-1.047l-1.407.11v.312c.704 0 .782.062.782.562Zm0 0"/></symbol><symbol overflow="visible" id="L"><path style="stroke:none" d="M4.14-3.313c.094-.234.266-.671.923-.671v-.313c-.235.016-.516.031-.75.031-.235 0-.688-.015-.86-.03v.312c.36 0 .469.234.469.421 0 .094-.016.141-.047.25L2.844-.78l-1.11-2.781c-.062-.126-.062-.141-.062-.172 0-.25.39-.25.578-.25v-.313c-.313.016-.86.031-1.094.031-.265 0-.672-.015-.968-.03v.312c.625 0 .671.062.796.359L2.422-.078c.062.14.078.187.203.187.14 0 .172-.093.219-.187Zm0 0"/></symbol><symbol overflow="visible" id="M"><path style="stroke:none" d="M1.11-2.516C1.171-4 2.015-4.25 2.36-4.25c1.015 0 1.124 1.344 1.124 1.734Zm0 .22h2.78c.22 0 .25 0 .25-.22 0-.984-.546-1.953-1.78-1.953-1.158 0-2.08 1.032-2.08 2.282C.281-.86 1.328.108 2.47.108 3.688.11 4.14-1 4.14-1.187c0-.094-.079-.125-.141-.125-.078 0-.11.062-.125.14C3.531-.14 2.625-.14 2.531-.14c-.5 0-.89-.296-1.125-.671-.297-.47-.297-1.125-.297-1.485Zm0 0"/></symbol><symbol overflow="visible" id="N"><path style="stroke:none" d="M1.672-3.313v-1.093l-1.39.11v.312c.702 0 .78.062.78.562V-.75c0 .438-.109.438-.78.438V0c.39-.016.859-.031 1.14-.031.39 0 .86 0 1.266.031v-.313h-.22c-.734 0-.75-.109-.75-.468v-1.531c0-.985.423-1.876 1.173-1.876.062 0 .093 0 .109.016-.031 0-.234.125-.234.39 0 .266.218.423.437.423a.421.421 0 0 0 .422-.438c0-.312-.313-.61-.734-.61-.735 0-1.094.673-1.22 1.095Zm0 0"/></symbol><symbol overflow="visible" id="O"><path style="stroke:none" d="M2.219-1.719c-.875 0-.875-1-.875-1.218 0-.266.015-.594.156-.844.078-.11.313-.39.719-.39.86 0 .86.984.86 1.218 0 .265 0 .594-.157.844-.078.109-.313.39-.703.39Zm-1.156.39a.8.8 0 0 1 .156-.468c.39.281.812.313 1 .313.922 0 1.61-.688 1.61-1.454 0-.374-.157-.734-.407-.968.36-.344.719-.39.89-.39.032 0 .079 0 .11.015-.11.031-.172.14-.172.265 0 .172.14.282.297.282a.28.28 0 0 0 .281-.297c0-.172-.11-.485-.5-.485-.203 0-.64.063-1.062.47a1.652 1.652 0 0 0-1.047-.36c-.938 0-1.625.687-1.625 1.453 0 .437.219.812.469 1.031-.125.14-.313.469-.313.828 0 .313.14.688.453.89-.61.157-.922.595-.922.985 0 .719.985 1.266 2.203 1.266 1.172 0 2.204-.5 2.204-1.281 0-.344-.125-.86-.641-1.141-.531-.266-1.11-.266-1.719-.266-.25 0-.672 0-.75-.015-.312-.047-.516-.344-.516-.672ZM2.5 1.829C1.484 1.828.797 1.312.797.781c0-.453.375-.828.812-.844h.594c.86 0 1.969 0 1.969.844 0 .547-.703 1.047-1.672 1.047Zm0 0"/></symbol><symbol overflow="visible" id="P"><path style="stroke:none" d="M1.172-2.172c0-1.625.812-2.047 1.344-2.047.093 0 .718.016 1.062.375-.406.031-.469.328-.469.453 0 .266.188.454.454.454.265 0 .468-.157.468-.47 0-.671-.765-1.062-1.531-1.062C1.25-4.469.344-3.39.344-2.156c0 1.281.984 2.265 2.14 2.265 1.329 0 1.657-1.203 1.657-1.296 0-.094-.11-.094-.141-.094-.078 0-.11.031-.125.093C3.594-.265 2.937-.14 2.578-.14c-.531 0-1.406-.421-1.406-2.03Zm0 0"/></symbol><symbol overflow="visible" id="Q"><path style="stroke:none" d="m1.766-4.406-1.391.11v.312c.64 0 .734.062.734.546V-.75c0 .438-.109.438-.78.438V0c.312-.016.859-.031 1.093-.031.36 0 .703.015 1.047.031v-.313c-.672 0-.703-.046-.703-.437Zm.03-1.735a.514.514 0 0 0-.515-.53.537.537 0 0 0-.531.53c0 .266.219.532.531.532a.514.514 0 0 0 .516-.532Zm0 0"/></symbol><symbol overflow="visible" id="R"><path style="stroke:none" d="M1.719-3.984h1.437v-.313H1.72v-1.828h-.25c0 .813-.297 1.875-1.282 1.922v.219h.844v2.75c0 1.218.938 1.343 1.297 1.343.703 0 .985-.703.985-1.343v-.563h-.25v.547c0 .734-.297 1.11-.672 1.11-.672 0-.672-.907-.672-1.079Zm0 0"/></symbol><symbol overflow="visible" id="S"><path style="stroke:none" d="M2.078-1.938c.219.047 1.031.204 1.031.922 0 .5-.343.907-1.125.907-.843 0-1.203-.563-1.39-1.422-.031-.125-.031-.157-.14-.157-.126 0-.126.063-.126.235v1.328c0 .172 0 .234.11.234C.483.11.5.094.688-.094.703-.109.703-.125.89-.312c.437.406.89.421 1.093.421 1.141 0 1.61-.671 1.61-1.39 0-.516-.297-.828-.422-.938-.328-.328-.719-.406-1.14-.484-.563-.11-1.22-.235-1.22-.813 0-.359.25-.765 1.11-.765 1.094 0 1.156.906 1.172 1.203 0 .094.094.094.11.094.14 0 .14-.047.14-.235v-1.015c0-.157 0-.235-.11-.235-.046 0-.078 0-.203.125a1.676 1.676 0 0 1-.172.157c-.375-.282-.78-.282-.937-.282-1.219 0-1.594.672-1.594 1.235 0 .343.156.625.422.843.328.25.61.313 1.328.454Zm0 0"/></symbol><symbol overflow="visible" id="T"><path style="stroke:none" d="M3.313-.75c.046.39.312.813.78.813.22 0 .829-.141.829-.954v-.562h-.25v.562c0 .579-.25.641-.36.641-.328 0-.375-.453-.375-.5v-1.984c0-.422 0-.813-.359-1.188a1.9 1.9 0 0 0-1.36-.547C1.391-4.469.703-4 .703-3.344c0 .297.203.469.469.469a.435.435 0 0 0 .453-.453c0-.125-.047-.453-.516-.453.282-.36.766-.469 1.079-.469.5 0 1.062.39 1.062 1.281v.36c-.516.03-1.203.062-1.828.359-.75.344-1 .86-1 1.297 0 .812.969 1.062 1.594 1.062A1.38 1.38 0 0 0 3.312-.75ZM3.25-2.39v1c0 .937-.719 1.28-1.172 1.28-.484 0-.89-.343-.89-.843 0-.547.421-1.375 2.062-1.438Zm0 0"/></symbol><symbol overflow="visible" id="U"><path style="stroke:none" d="M3.297-3.984c.453 0 .515.125.515.53V-.75c0 .438-.109.438-.765.438V0c.328-.016.844-.031 1.094-.031.25 0 .75.015 1.109.031v-.313c-.672 0-.781 0-.781-.437v-3.672l-1.25.094c-.156.016-.172.016-.172.016-.031.015-.047.015-.188.015H1.688v-1.125c0-.984.859-1.39 1.468-1.39.297 0 .656.109.86.328-.407.03-.47.296-.47.468 0 .329.267.454.454.454.234 0 .453-.157.453-.454 0-.593-.547-1.015-1.281-1.015-.922 0-2.11.515-2.11 1.593v1.141H.266v.313h.796V-.75c0 .438-.109.438-.78.438V0c.327-.016.859-.031 1.109-.031S2.125-.016 2.5 0v-.313c-.672 0-.781 0-.781-.437v-3.234Zm0 0"/></symbol><symbol overflow="visible" id="V"><path style="stroke:none" d="M3.781-.547V.11L5.25 0v-.313c-.688 0-.781-.062-.781-.562v-6.047l-1.422.11v.312c.687 0 .765.063.765.563v2.156a1.582 1.582 0 0 0-1.25-.625c-1.171 0-2.218.984-2.218 2.265 0 1.266.969 2.25 2.11 2.25.64 0 1.077-.343 1.327-.656Zm0-2.672v2.047c0 .172 0 .188-.11.36-.296.484-.733.703-1.171.703-.453 0-.813-.266-1.047-.641-.25-.406-.281-.969-.281-1.39 0-.36.016-.954.297-1.407.218-.312.593-.64 1.14-.64.344 0 .766.156 1.063.593.11.172.11.188.11.375Zm0 0"/></symbol><symbol overflow="visible" id="W"><path style="stroke:none" d="M2.344-2.484c0-1.25.969-1.97 1.312-2.22.266-.202.485-.562.485-.984 0-.578-.407-1.343-1.891-1.343-1.078 0-1.688.687-1.688 1.328 0 .344.22.484.454.484.28 0 .453-.203.453-.468 0-.438-.407-.438-.547-.438.297-.531.875-.688 1.297-.688 1.094 0 1.094.688 1.094 1.079 0 .578-.157.765-.344.937a3.469 3.469 0 0 0-.875 2.25v.438c0 .187 0 .25.125.25s.125-.094.125-.282Zm.39 1.953a.534.534 0 0 0-.515-.531.537.537 0 0 0-.531.53c0 .298.234.532.53.532a.524.524 0 0 0 .516-.531Zm0 0"/></symbol><symbol overflow="visible" id="Z"><path style="stroke:none" d="m3.484-3.875-1.28-.297c-.626-.156-1-.687-1-1.266 0-.703.53-1.312 1.312-1.312 1.656 0 1.875 1.64 1.937 2.078.016.063.016.125.125.125.125 0 .125-.047.125-.234v-2c0-.172 0-.25-.11-.25-.062 0-.077.015-.14.14l-.36.563c-.296-.297-.702-.703-1.593-.703-1.11 0-1.938.875-1.938 1.937 0 .828.532 1.563 1.297 1.828.11.032.625.157 1.329.329.265.062.562.14.843.5.203.265.313.593.313.921 0 .704-.5 1.422-1.344 1.422-.281 0-1.047-.047-1.578-.531-.578-.547-.61-1.172-.61-1.531-.015-.11-.093-.11-.125-.11-.125 0-.125.079-.125.25v2c0 .172 0 .235.11.235.062 0 .078-.016.14-.125 0-.016.032-.047.36-.578.312.343.953.703 1.844.703 1.156 0 1.953-.969 1.953-2.078 0-.985-.657-1.813-1.485-2.016Zm0 0"/></symbol><symbol overflow="visible" id="aa"><path style="stroke:none" d="M3.89-.781v.89L5.329 0v-.313c-.687 0-.766-.062-.766-.562v-3.531l-1.468.11v.312c.687 0 .781.062.781.562v1.766c0 .875-.484 1.547-1.219 1.547-.828 0-.875-.47-.875-.985v-3.312l-1.468.11v.312c.78 0 .78.03.78.906v1.5c0 .781 0 1.687 1.516 1.687.563 0 1-.28 1.282-.89Zm0 0"/></symbol><symbol overflow="visible" id="ab"><path style="stroke:none" d="M1.719-3.75v-.656l-1.438.11v.312c.703 0 .781.062.781.5v4.656c0 .453-.109.453-.78.453v.313c.343-.016.859-.032 1.109-.032.28 0 .78.016 1.125.032v-.313c-.657 0-.766 0-.766-.453V-.594c.047.172.469.703 1.219.703 1.187 0 2.219-.984 2.219-2.265 0-1.266-.954-2.25-2.079-2.25-.78 0-1.203.437-1.39.656Zm.031 2.61v-2.22c.281-.515.766-.796 1.281-.796.735 0 1.328.875 1.328 2C4.36-.953 3.672-.11 2.938-.11c-.407 0-.782-.204-1.047-.61-.141-.203-.141-.219-.141-.422Zm0 0"/></symbol><symbol overflow="visible" id="ac"><path style="stroke:none" d="m1.766-6.922-1.438.11v.312c.703 0 .781.063.781.563V-.75c0 .438-.109.438-.78.438V0c.327-.016.859-.031 1.109-.031s.734.015 1.109.031v-.313c-.672 0-.781 0-.781-.437Zm0 0"/></symbol><symbol overflow="visible" id="ad"><path style="stroke:none" d="M4.14-3.344c.25-.64.766-.64.923-.64v-.313c-.235.016-.516.031-.75.031-.172 0-.641-.015-.86-.03v.312c.313 0 .469.171.469.421 0 .11-.016.126-.063.25L2.844-.874 1.75-3.547c-.047-.11-.063-.14-.063-.187 0-.25.36-.25.563-.25v-.313c-.266.016-.922.031-1.094.031-.265 0-.672-.015-.968-.03v.312c.484 0 .671 0 .812.343L2.5 0a6.764 6.764 0 0 0-.25.594c-.219.547-.5 1.234-1.14 1.234-.048 0-.282 0-.47-.187.313-.032.391-.25.391-.422C1.031.969.844.812.61.812c-.203 0-.421.125-.421.422 0 .454.421.813.921.813.625 0 1.032-.578 1.266-1.14Zm0 0"/></symbol><symbol overflow="visible" id="ag"><path style="stroke:none" d="m3.984-4.172 1.797-1.734A2.17 2.17 0 0 1 7.203-6.5v-.313c-.266.032-.578.032-.86.032-.359 0-.921 0-1.265-.032v.313c.406.016.469.234.469.328 0 .156-.11.266-.188.328L2.25-2.859v-3.172c0-.36.016-.469.781-.469h.235v-.313c-.344.032-1.079.032-1.47.032-.374 0-1.124 0-1.468-.032v.313h.234c.766 0 .797.11.797.469v5.25c0 .36-.03.469-.796.469H.328V0c.344-.031 1.094-.031 1.469-.031s1.125 0 1.469.031v-.313H3.03c-.765 0-.781-.109-.781-.468v-1.735l1.156-1.109L5.203-.953c.063.094.156.219.156.344 0 .296-.39.296-.593.296V0c.343-.031 1.046-.031 1.421-.031.36 0 .735.015 1.157.031v-.313c-.547 0-.75-.03-1.047-.468Zm0 0"/></symbol><symbol overflow="visible" id="ah"><path style="stroke:none" d="M1.094-.75c0 .438-.11.438-.782.438V0c.36-.016.86-.031 1.141-.031.25 0 .766.015 1.11.031v-.313c-.672 0-.782 0-.782-.437v-1.844c0-1.031.719-1.594 1.344-1.594.64 0 .75.532.75 1.11V-.75c0 .438-.11.438-.781.438V0c.344-.016.86-.031 1.125-.031.25 0 .781.015 1.11.031v-.313c-.516 0-.766 0-.766-.296v-1.907c0-.859 0-1.156-.313-1.515-.14-.172-.469-.375-1.047-.375-.844 0-1.281.593-1.453.984v-3.5l-1.438.11v.312c.704 0 .782.063.782.563Zm0 0"/></symbol><symbol overflow="visible" id="ai"><path style="stroke:none" d="M1.094-3.422V-.75c0 .438-.11.438-.782.438V0c.36-.016.86-.031 1.141-.031.25 0 .766.015 1.11.031v-.313c-.672 0-.782 0-.782-.437v-1.844c0-1.031.719-1.594 1.344-1.594.64 0 .75.532.75 1.11V-.75c0 .438-.11.438-.781.438V0c.344-.016.86-.031 1.125-.031.25 0 .781.015 1.11.031v-.313c-.657 0-.766 0-.766-.437v-1.844c0-1.031.703-1.594 1.343-1.594.625 0 .735.532.735 1.11V-.75c0 .438-.11.438-.782.438V0c.344-.016.86-.031 1.125-.031.266 0 .782.015 1.125.031v-.313c-.515 0-.765 0-.78-.296v-1.907c0-.859 0-1.156-.313-1.515-.141-.172-.47-.375-1.047-.375-.828 0-1.282.593-1.438.984-.14-.875-.875-.984-1.328-.984-.734 0-1.203.422-1.484 1.047v-1.047l-1.407.11v.312c.704 0 .782.062.782.562Zm0 0"/></symbol><symbol overflow="visible" id="aj"><path style="stroke:none" d="M3.781-.61v1.782c0 .453-.11.453-.765.453v.313c.328-.016.859-.032 1.109-.032.266 0 .781.016 1.125.032v-.313c-.672 0-.781 0-.781-.453v-5.578H4.25l-.375.906c-.125-.281-.531-.906-1.328-.906-1.156 0-2.203.968-2.203 2.265 0 1.25.969 2.25 2.125 2.25.687 0 1.094-.421 1.312-.718Zm.031-2.156v1.407c0 .328-.171.609-.39.843a1.271 1.271 0 0 1-.922.407c-.719 0-1.328-.891-1.328-2.032 0-1.187.687-2.015 1.437-2.015.797 0 1.204.86 1.204 1.39Zm0 0"/></symbol><symbol overflow="visible" id="am"><path style="stroke:none" d="M5.797-2.297c0 1.406-.969 2.203-1.906 2.203-.47 0-1.641-.25-1.641-2.14v-3.797c0-.36.016-.469.781-.469h.235v-.313c-.344.032-1.079.032-1.47.032-.374 0-1.124 0-1.468-.032v.313h.234c.766 0 .797.11.797.469v3.765C1.36-.875 2.516.22 3.875.22c1.14 0 2.031-.922 2.203-2.063.031-.203.031-.297.031-.687v-3.19c0-.328 0-.781 1.032-.781v-.313c-.36.016-.844.032-1.172.032-.36 0-.828-.016-1.188-.032v.313c1.016 0 1.016.469 1.016.734Zm0 0"/></symbol><symbol overflow="visible" id="ao"><path style="stroke:none" d="M3.89-4c.094-.11.094-.125.094-.172 0-.125-.093-.125-.265-.125H.53l-.11 1.61h.25c.063-1.016.25-1.391 1.345-1.391h1.14L.375-.312c-.094.109-.094.124-.094.171C.281 0 .344 0 .531 0h3.297L4-1.86h-.25C3.656-.686 3.453-.25 2.297-.25H1.109Zm0 0"/></symbol><symbol overflow="visible" id="ap"><path style="stroke:none" d="M1.75-4.297v-1.156c0-.875.469-1.36.906-1.36.031 0 .188 0 .328.079a.443.443 0 0 0-.296.421c0 .22.156.422.437.422s.438-.203.438-.437c0-.375-.376-.703-.907-.703-.687 0-1.547.531-1.547 1.593v1.141H.33v.313h.78V-.75c0 .438-.109.438-.765.438V0c.39-.016.86-.031 1.125-.031.406 0 .875 0 1.265.031v-.313h-.203c-.734 0-.75-.109-.75-.468v-3.203h1.125v-.313Zm0 0"/></symbol><symbol overflow="visible" id="au"><path style="stroke:none" d="M2.547 2.5v-.406h-.969v-9.172h.969v-.406H1.172V2.5Zm0 0"/></symbol><symbol overflow="visible" id="av"><path style="stroke:none" d="M1.578-7.484H.218v.406h.97v9.172h-.97V2.5h1.36Zm0 0"/></symbol><symbol overflow="visible" id="aQ"><path style="stroke:none" d="M6.078-5.86c.375-.593.953-.64 1.281-.64v-.313c-.312.032-.703.032-.984.032-.297 0-.875-.016-1.14-.032v.313c.406 0 .562.188.562.39 0 .11-.063.235-.094.298l-1.64 2.671L2.25-6.078c-.063-.11-.063-.125-.063-.172 0-.203.25-.25.688-.25v-.313c-.36.032-1.078.032-1.469.032-.422 0-.875 0-1.297-.032v.313h.188c.672 0 .75.11.906.375l2.094 3.406V-.78c0 .36-.016.469-.781.469h-.25V0c.359-.031 1.078-.031 1.468-.031.375 0 1.094 0 1.454.031v-.313h-.235c-.766 0-.797-.093-.797-.484v-1.922Zm0 0"/></symbol><symbol overflow="visible" id="aR"><path style="stroke:none" d="M2.313-6.672c-.094-.125-.094-.14-.282-.14H.328v.312h.297c.14 0 .344.016.484.016.235.03.25.046.25.234v5.203c0 .266 0 .734-1.03.734V0c.343-.016.843-.031 1.171-.031.328 0 .813.015 1.156.031v-.313c-1.015 0-1.015-.468-1.015-.734v-5.187c.046.046.046.062.093.125L5.797-.125c.094.11.11.125.172.125.14 0 .14-.063.14-.266v-5.5c0-.265 0-.734 1.032-.734v-.313c-.36.016-.844.032-1.172.032-.328 0-.813-.016-1.157-.032v.313c1.016 0 1.016.469 1.016.734V-1.5Zm0 0"/></symbol><symbol overflow="visible" id="h"><path style="stroke:none" d="M4.422-4a.728.728 0 0 0-.61.688c0 .218.172.468.5.468.344 0 .72-.281.72-.797 0-.453-.36-.859-.97-.859a1.8 1.8 0 0 0-1.328.594C2.5-4.36 1.922-4.5 1.563-4.5c-.36 0-.641.203-.86.563-.25.39-.39.921-.39.984 0 .14.156.14.25.14.109 0 .14 0 .187-.046.031-.016.031-.047.094-.297.187-.75.406-.985.672-.985.156 0 .234.094.234.36 0 .172-.031.281-.14.75-.048.172-.22.828-.282 1.078-.047.187-.156.64-.203.812-.063.266-.172.72-.172.782 0 .203.156.437.469.437a.704.704 0 0 0 .656-.531c0-.031.688-2.735.688-2.797.046-.156.046-.172.171-.313.235-.296.594-.578 1.094-.578.25 0 .36.11.39.141Zm0 0"/></symbol><symbol overflow="visible" id="r"><path style="stroke:none" d="M6.563-2.297c.171 0 .359 0 .359-.203 0-.188-.188-.188-.36-.188h-5.39c-.172 0-.344 0-.344.188 0 .203.172.203.344.203Zm0 0"/></symbol><symbol overflow="visible" id="H"><path style="stroke:none" d="M1.578-7.125c0-.172 0-.36-.187-.36-.204 0-.204.188-.204.36v9.266c0 .171 0 .359.204.359.187 0 .187-.188.187-.36Zm0 0"/></symbol><symbol overflow="visible" id="ay"><path style="stroke:none" d="M2.828-6.156c0-.39.25-1.032 1.344-1.094a.117.117 0 0 0 .078-.11c0-.124-.078-.124-.188-.124-.984 0-1.906.515-1.906 1.25v2.28c0 .392 0 .704-.406 1.032-.344.297-.719.313-.938.313C.75-2.594.72-2.547.72-2.5c0 .11.062.11.156.125.656.031 1.14.39 1.25.875.031.11.031.14.031.5V.969c0 .422 0 .734.469 1.11.39.296 1.047.421 1.438.421.109 0 .187 0 .187-.125 0-.094-.047-.094-.156-.11-.625-.03-1.11-.359-1.25-.859-.016-.093-.016-.11-.016-.468v-2.094c0-.453-.094-.625-.406-.953-.203-.204-.5-.297-.781-.391.828-.219 1.187-.688 1.187-1.266Zm0 0"/></symbol><symbol overflow="visible" id="az"><path style="stroke:none" d="M2.156 1.172c0 .39-.265 1.031-1.344 1.094-.062.015-.093.062-.093.109 0 .125.11.125.203.125.969 0 1.89-.5 1.906-1.25v-2.281c0-.39 0-.703.39-1.032.345-.296.735-.312.954-.312.047-.016.078-.063.078-.125 0-.094-.047-.094-.156-.11-.657-.03-1.14-.39-1.25-.874-.016-.11-.016-.141-.016-.5v-1.97c0-.421 0-.734-.484-1.109-.406-.312-1.094-.421-1.422-.421-.094 0-.203 0-.203.125 0 .093.062.093.156.109.625.031 1.125.36 1.25.86.031.093.031.109.031.468v2.094c0 .453.078.625.39.953.22.203.5.297.782.375-.812.234-1.172.703-1.172 1.281Zm0 0"/></symbol><symbol overflow="visible" id="u"><path style="stroke:none" d="M2.938-.969h-.22c0 .094-.062.406-.14.453-.031.032-.453.032-.531.032h-.969c.328-.235.688-.516.984-.72.454-.312.876-.593.876-1.124 0-.64-.61-.985-1.313-.985-.672 0-1.172.376-1.172.876 0 .25.219.296.297.296a.283.283 0 0 0 .281-.296.27.27 0 0 0-.281-.282c.14-.234.438-.375.766-.375.484 0 .89.281.89.766 0 .422-.297.75-.672 1.062L.516-.234c-.047.047-.063.047-.063.078V0h2.313Zm0 0"/></symbol><symbol overflow="visible" id="ar"><path style="stroke:none" d="M2.578-1.125c.11 0 .14 0 .14-.11 0-.343-.171-1-1.109-1-.75 0-1.28.547-1.28 1.141C.328-.469.937.063 1.687.063c.796 0 1.03-.563 1.03-.657 0-.078-.077-.078-.093-.078-.078 0-.094.016-.125.078-.125.344-.5.469-.781.469a.89.89 0 0 1-.703-.313C.828-.671.828-.984.828-1.125Zm-1.75-.156c.063-.657.547-.782.781-.782.688 0 .735.641.735.782Zm0 0"/></symbol><symbol overflow="visible" id="as"><path style="stroke:none" d="M3.188-2.14c-.141 0-.282.015-.47.015-.171 0-.374-.016-.562-.016v.22c.094 0 .11.077.11.093 0 .078-.063.14-.204.266l-.25.25c-.218-.22-.484-.485-.484-.532 0-.078.11-.078.125-.078v-.219c-.203 0-.578.016-.61.016-.202 0-.343 0-.546-.016v.22H.39c.312 0 .312 0 .578.265l.594.593-.547.547c-.141.125-.329.297-.75.297V0c.14-.016.28-.016.468-.016.172 0 .375 0 .563.016v-.219c-.078-.015-.094-.062-.094-.093 0-.094.063-.157.094-.188l.406-.406.516.515c.047.063.047.063.047.079 0 .093-.11.093-.125.093V0c.203-.016.578-.016.609-.016.203 0 .344 0 .547.016v-.219h-.094c-.265 0-.328-.047-.375-.078-.062-.031-.64-.64-.86-.86.61-.64.75-.765 1.22-.765Zm0 0"/></symbol><symbol overflow="visible" id="at"><path style="stroke:none" d="M1.219-1.922h.89v-.219h-.89v-.921h-.203c0 .468-.25.953-.766.968v.172h.531v1.297c0 .563.469.688.781.688.375 0 .657-.282.657-.688v-.281H2v.265c0 .375-.219.516-.39.516-.391 0-.391-.39-.391-.5Zm0 0"/></symbol><symbol overflow="visible" id="x"><path style="stroke:none" d="M8.906-6.547c.063-.125.063-.156.063-.172 0-.125-.094-.125-.281-.125H.843c-.219 0-.25 0-.281.14l3.75 6.688c.125.22.187.266.453.266.296 0 .343-.078.453-.266Zm-6.172.89h5.063L5.266-1.171Zm0 0"/></symbol><symbol overflow="visible" id="C"><path style="stroke:none" d="M4.203 5.328.656 9.703c-.078.094-.094.11-.094.156 0 .11.094.11.282.11h8.25l.86-2.485h-.25c-.25.75-.907 1.36-1.767 1.641-.156.063-.843.297-2.312.297H1.391L4.859 5.14c.063-.094.079-.11.079-.157 0-.046 0-.046-.063-.14L1.641.406h3.937c1.14 0 3.438.063 4.125 1.922h.25L9.093 0H.844c-.28 0-.28.016-.28.313Zm0 0"/></symbol><symbol overflow="visible" id="aF"><path style="stroke:none" d="m6.734-6.047 3.407-2.906c.187-.156.312-.266 1.593-.266v-.625c-.859.031-.89.031-1.53.031-.438 0-1.548 0-1.907-.03v.624c.312 0 .656.016 1.031.156v.016L3.953-4.469v-4.75h1.531v-.625c-.421.031-1.953.031-2.468.031-.516 0-2.047 0-2.47-.03v.624h1.516v8.61H.548V0C.969-.031 2.5-.031 3.016-.031c.515 0 2.046 0 2.468.031v-.61h-1.53v-3.078l1.483-1.265 3 4c.032.047.079.125.079.172 0 .172-.704.172-1.016.172V0c.453-.031 1.797-.031 2.344-.031.422 0 1.781 0 2.11.031v-.61h-.392c-.78 0-.828-.078-.984-.28Zm0 0"/></symbol><symbol overflow="visible" id="aG"><path style="stroke:none" d="M7.61-3.14c0-1.939-1.33-3.36-3.58-3.36C1.688-6.5.438-5 .438-3.14.438-1.267 1.766.093 4.015.093c2.343 0 3.593-1.422 3.593-3.235ZM4.03-.438c-1.86 0-1.86-1.672-1.86-2.844 0-.672 0-1.39.267-1.906.312-.579.968-.844 1.578-.844.812 0 1.328.39 1.578.797.281.515.281 1.265.281 1.953 0 1.187 0 2.844-1.844 2.844Zm0 0"/></symbol><symbol overflow="visible" id="aH"><path style="stroke:none" d="M7.61-4.39c0-1.36-.579-2.063-2.157-2.063A2.574 2.574 0 0 0 3.093-5h-.015v-4.953l-2.469.11v.624c.875 0 .985 0 .985.563V-.61H.609V0c.329-.031 1.36-.031 1.75-.031.407 0 1.454 0 1.782.031v-.61h-.985v-3.062c0-1.547 1.14-2.312 2.063-2.312.531 0 .828.343.828 1.437v3.938h-.984V0c.328-.031 1.359-.031 1.765-.031.406 0 1.453 0 1.781.031v-.61h-1Zm0 0"/></symbol><symbol overflow="visible" id="aI"><path style="stroke:none" d="M7.61-4.39c0-1.36-.579-2.063-2.157-2.063-1.031 0-1.922.5-2.406 1.578H3.03v-1.578l-2.422.11v.624c.875 0 .985 0 .985.563V-.61H.609V0c.329-.031 1.36-.031 1.75-.031.407 0 1.454 0 1.782.031v-.61h-.985v-3.062c0-1.547 1.14-2.312 2.063-2.312.531 0 .828.343.828 1.437v3.938h-.984V0c.328-.031 1.359-.031 1.765-.031.406 0 1.453 0 1.781.031v-.61h-1Zm0 0"/></symbol><symbol overflow="visible" id="aJ"><path style="stroke:none" d="M4.469-2.531v-1.313H.172v1.313Zm0 0"/></symbol><symbol overflow="visible" id="aK"><path style="stroke:none" d="M3.64-6.313c-1.42-.312-1.452-1.342-1.452-1.546 0-.735.47-1.579 1.86-1.579 1.39 0 2.64.672 2.937 2.547.047.313.047.329.313.329.312 0 .312-.047.312-.375v-2.704c0-.265 0-.375-.218-.375-.11 0-.141.016-.282.157l-.609.703c-.36-.297-1.078-.86-2.469-.86-2.047 0-3.14 1.297-3.14 2.86 0 .953.515 1.64.718 1.828.75.75 1.141.844 2.641 1.172 1.438.312 1.61.343 1.922.64.187.188.594.594.594 1.329 0 .609-.297 1.75-1.907 1.75-1.265 0-3.25-.438-3.375-2.532 0-.265 0-.297-.296-.297-.297 0-.297.032-.297.375v2.688c0 .281 0 .375.218.375.094 0 .11-.016.25-.14.157-.157.297-.345.657-.704.828.656 2 .844 2.859.844 2.234 0 3.188-1.516 3.188-3.047 0-1.344-.891-2.64-2.454-2.984Zm0 0"/></symbol><symbol overflow="visible" id="aL"><path style="stroke:none" d="M6.594-4.281C6.594-5.61 5.547-6.5 3.53-6.5c-.812 0-2.5.078-2.5 1.281 0 .594.453.86.844.86.438 0 .844-.297.844-.844 0-.281-.094-.531-.344-.688.484-.14.828-.14 1.094-.14.984 0 1.562.547 1.562 1.734v.563c-2.265 0-4.547.64-4.547 2.234C.484-.203 2.156.094 3.141.094c1.109 0 1.812-.61 2.093-1.235 0 .532 0 1.141 1.454 1.141h.734c.297 0 .406 0 .406-.313 0-.296-.125-.296-.328-.296-.906-.016-.906-.25-.906-.579ZM5.03-2c0 1.36-1.203 1.61-1.656 1.61-.703 0-1.297-.47-1.297-1.126 0-1.312 1.547-1.75 2.953-1.828Zm0 0"/></symbol><symbol overflow="visible" id="aM"><path style="stroke:none" d="M12.11-4.39c0-1.313-.563-2.063-2.172-2.063-1.454 0-2.126.969-2.344 1.437-.235-1.218-1.203-1.437-2.125-1.437-1.375 0-2.125.89-2.422 1.578H3.03v-1.578l-2.422.11v.624c.875 0 .985 0 .985.563V-.61H.609V0c.329-.031 1.36-.031 1.75-.031.407 0 1.454 0 1.782.031v-.61h-.985v-3.062c0-1.562 1.156-2.312 2.063-2.312.531 0 .843.312.843 1.437v3.938h-.984V0c.328-.031 1.36-.031 1.766-.031.406 0 1.453 0 1.781.031v-.61h-1v-3.062c0-1.562 1.172-2.312 2.078-2.312.531 0 .844.312.844 1.437v3.938h-1V0c.344-.031 1.375-.031 1.765-.031.407 0 1.454 0 1.782.031v-.61h-.985Zm0 0"/></symbol><symbol overflow="visible" id="aN"><path style="stroke:none" d="M6.484-3.172c.329 0 .422 0 .422-.36 0-.421-.11-1.5-.765-2.171-.61-.61-1.407-.797-2.235-.797C1.656-6.5.437-5.031.437-3.234.438-1.22 1.923.094 4.095.094c2.156 0 2.812-1.532 2.812-1.766 0-.219-.218-.219-.312-.219-.219 0-.235.047-.328.235-.375.922-1.313 1.218-2 1.218-2.079 0-2.094-1.921-2.094-2.734Zm-4.312-.406c.015-.594.031-1.156.344-1.672a1.59 1.59 0 0 1 1.39-.781c1.531 0 1.656 1.734 1.672 2.453Zm0 0"/></symbol><symbol overflow="visible" id="aO"><path style="stroke:none" d="M3.031-5.75h2.063v-.625H3.03v-2.734h-.61C2.407-7.688 1.72-6.266.298-6.22v.469H1.47v3.984C1.469-.25 2.64.094 3.672.094c1.062 0 1.687-.813 1.687-1.875v-.75h-.593v.734c0 .953-.438 1.36-.875 1.36-.86 0-.86-.954-.86-1.282Zm0 0"/></symbol><symbol overflow="visible" id="aP"><path style="stroke:none" d="M4.984-9.844v.625c.875 0 .985 0 .985.563v2.89a2.95 2.95 0 0 0-1.938-.687C2-6.453.547-5.187.547-3.187c0 2.046 1.422 3.28 3.328 3.28.781 0 1.453-.28 2.016-.75v.75L8.453 0v-.61c-.89 0-1 0-1-.562v-8.781Zm.907 8.39C5.297-.577 4.562-.39 4.047-.39c-1.781 0-1.781-1.812-1.781-2.765 0-.672 0-1.39.312-1.938.453-.797 1.297-.89 1.625-.89.594 0 1.219.265 1.688.89Zm0 0"/></symbol><clipPath id="X"><path d="M0 2h206.691v29H0Zm0 0"/></clipPath><clipPath id="Y"><path d="M0 0h206.691v42H0Zm0 0"/></clipPath><clipPath id="ak"><path d="M0 276h206.691v42H0Zm0 0"/></clipPath><clipPath id="al"><path d="M0 265h206.691v55.105H0Zm0 0"/></clipPath></defs><path style="fill-rule:nonzero;fill:#eee;fill-opacity:1;stroke-width:.79701;stroke-linecap:butt;stroke-linejoin:miter;stroke:#000;stroke-opacity:1;stroke-miterlimit:10" d="M74.056 9.964H-74.057a3.987 3.987 0 0 1-3.984-3.988V-5.977a3.984 3.984 0 0 1 3.984-3.985H74.056c2.2 0 3.985 1.782 3.985 3.985V5.976a3.987 3.987 0 0 1-3.985 3.988Zm0 0" transform="matrix(1 0 0 -1 103.346 83.683)"/><use xlink:href="#a" x="28.626" y="85.994" style="fill:#000;fill-opacity:1"/><g style="fill:#000;fill-opacity:1"><use xlink:href="#b" x="33.455" y="87.488"/><use xlink:href="#c" x="36.997" y="87.488"/><use xlink:href="#d" x="41.183" y="87.488"/></g><g style="fill:#000;fill-opacity:1"><use xlink:href="#e" x="44.296" y="87.488"/><use xlink:href="#f" x="46.662" y="87.488"/></g><use xlink:href="#g" x="50.921" y="85.994" style="fill:#000;fill-opacity:1"/><use xlink:href="#h" x="54.795" y="85.994" style="fill:#000;fill-opacity:1"/><use xlink:href="#i" x="60.381" y="85.994" style="fill:#000;fill-opacity:1"/><use xlink:href="#j" x="67.025" y="85.994" style="fill:#000;fill-opacity:1"/><use xlink:href="#a" x="77.538" y="85.994" style="fill:#000;fill-opacity:1"/><use xlink:href="#k" x="82.367" y="87.488" style="fill:#000;fill-opacity:1"/><use xlink:href="#g" x="88.746" y="85.994" style="fill:#000;fill-opacity:1"/><use xlink:href="#h" x="92.621" y="85.994" style="fill:#000;fill-opacity:1"/><use xlink:href="#i" x="98.206" y="85.994" style="fill:#000;fill-opacity:1"/><use xlink:href="#l" x="103.226" y="85.994" style="fill:#000;fill-opacity:1"/><use xlink:href="#a" x="112.127" y="85.994" style="fill:#000;fill-opacity:1"/><g style="fill:#000;fill-opacity:1"><use xlink:href="#c" x="116.956" y="87.488"/><use xlink:href="#m" x="121.142" y="87.488"/></g><use xlink:href="#g" x="125.182" y="85.994" style="fill:#000;fill-opacity:1"/><use xlink:href="#h" x="129.056" y="85.994" style="fill:#000;fill-opacity:1"/><use xlink:href="#i" x="134.642" y="85.994" style="fill:#000;fill-opacity:1"/><use xlink:href="#l" x="139.662" y="85.994" style="fill:#000;fill-opacity:1"/><use xlink:href="#a" x="148.563" y="85.994" style="fill:#000;fill-opacity:1"/><g style="fill:#000;fill-opacity:1"><use xlink:href="#b" x="153.392" y="87.488"/><use xlink:href="#c" x="156.934" y="87.488"/><use xlink:href="#d" x="161.12" y="87.488"/></g><use xlink:href="#g" x="164.731" y="85.994" style="fill:#000;fill-opacity:1"/><use xlink:href="#h" x="168.606" y="85.994" style="fill:#000;fill-opacity:1"/><use xlink:href="#i" x="174.191" y="85.994" style="fill:#000;fill-opacity:1"/><path style="fill-rule:nonzero;fill:#eee;fill-opacity:1;stroke-width:.79701;stroke-linecap:butt;stroke-linejoin:miter;stroke:#000;stroke-opacity:1;stroke-miterlimit:10" d="M74.056-24.934H-74.057a3.986 3.986 0 0 1-3.984-3.985v-12.246a3.986 3.986 0 0 1 3.984-3.984H74.056c2.2 0 3.985 1.785 3.985 3.984v12.246c0 2.2-1.785 3.985-3.985 3.985Zm0 0" transform="matrix(1 0 0 -1 103.346 83.683)"/><use xlink:href="#n" x="44.595" y="119.557" style="fill:#000;fill-opacity:1"/><use xlink:href="#o" x="41.987" y="122.075" style="fill:#000;fill-opacity:1"/><use xlink:href="#p" x="50.268" y="123.57" style="fill:#000;fill-opacity:1"/><use xlink:href="#q" x="57.45" y="123.57" style="fill:#000;fill-opacity:1"/><use xlink:href="#j" x="67.845" y="122.075" style="fill:#000;fill-opacity:1"/><use xlink:href="#r" x="80.217" y="122.075" style="fill:#000;fill-opacity:1"/><use xlink:href="#s" x="90.461" y="118.153" style="fill:#000;fill-opacity:1"/><use xlink:href="#t" x="90.35" y="118.153" style="fill:#000;fill-opacity:1"/><use xlink:href="#u" x="95.014" y="115.146" style="fill:#000;fill-opacity:1"/><path style="fill:none;stroke-width:.398;stroke-linecap:butt;stroke-linejoin:miter;stroke:#000;stroke-opacity:1;stroke-miterlimit:10" d="M0 0h11.042" transform="matrix(1 0 0 -1 89.161 119.585)"/><use xlink:href="#v" x="89.161" y="125.511" style="fill:#000;fill-opacity:1"/><use xlink:href="#w" x="93.132" y="125.511" style="fill:#000;fill-opacity:1"/><use xlink:href="#x" x="101.398" y="122.075" style="fill:#000;fill-opacity:1"/><use xlink:href="#v" x="110.945" y="117.703" style="fill:#000;fill-opacity:1"/><use xlink:href="#l" x="118.371" y="122.075" style="fill:#000;fill-opacity:1"/><use xlink:href="#a" x="129.075" y="122.075" style="fill:#000;fill-opacity:1"/><g style="fill:#000;fill-opacity:1"><use xlink:href="#b" x="133.904" y="123.57"/><use xlink:href="#c" x="137.446" y="123.57"/><use xlink:href="#d" x="141.632" y="123.57"/></g><g style="fill:#000;fill-opacity:1"><use xlink:href="#e" x="144.746" y="123.57"/><use xlink:href="#f" x="147.112" y="123.57"/></g><use xlink:href="#g" x="151.37" y="122.075" style="fill:#000;fill-opacity:1"/><use xlink:href="#h" x="155.245" y="122.075" style="fill:#000;fill-opacity:1"/><use xlink:href="#i" x="160.83" y="122.075" style="fill:#000;fill-opacity:1"/><path style="fill-rule:nonzero;fill:#eee;fill-opacity:1;stroke-width:.79701;stroke-linecap:butt;stroke-linejoin:miter;stroke:#000;stroke-opacity:1;stroke-miterlimit:10" d="M74.056-60.118H-74.057a3.987 3.987 0 0 1-3.984-3.988V-76.06a3.984 3.984 0 0 1 3.984-3.985H74.056c2.2 0 3.985 1.782 3.985 3.985v11.953a3.987 3.987 0 0 1-3.985 3.988Zm0 0" transform="matrix(1 0 0 -1 103.346 83.683)"/><use xlink:href="#n" x="57.169" y="154.719" style="fill:#000;fill-opacity:1"/><use xlink:href="#o" x="54.561" y="157.237" style="fill:#000;fill-opacity:1"/><use xlink:href="#p" x="62.843" y="158.732" style="fill:#000;fill-opacity:1"/><use xlink:href="#q" x="70.025" y="158.732" style="fill:#000;fill-opacity:1"/><use xlink:href="#y" x="75.797" y="157.237" style="fill:#000;fill-opacity:1"/><use xlink:href="#z" x="81.733" y="158.732" style="fill:#000;fill-opacity:1"/><use xlink:href="#g" x="85.05" y="157.237" style="fill:#000;fill-opacity:1"/><use xlink:href="#h" x="88.924" y="157.237" style="fill:#000;fill-opacity:1"/><use xlink:href="#i" x="94.51" y="157.237" style="fill:#000;fill-opacity:1"/><use xlink:href="#j" x="104.751" y="157.237" style="fill:#000;fill-opacity:1"/><use xlink:href="#A" x="118.872" y="157.237" style="fill:#000;fill-opacity:1"/><use xlink:href="#z" x="126.226" y="158.732" style="fill:#000;fill-opacity:1"/><use xlink:href="#y" x="129.543" y="157.237" style="fill:#000;fill-opacity:1"/><use xlink:href="#z" x="135.479" y="158.732" style="fill:#000;fill-opacity:1"/><use xlink:href="#g" x="138.796" y="157.237" style="fill:#000;fill-opacity:1"/><use xlink:href="#h" x="142.67" y="157.237" style="fill:#000;fill-opacity:1"/><use xlink:href="#i" x="148.256" y="157.237" style="fill:#000;fill-opacity:1"/><path style="fill-rule:nonzero;fill:#eee;fill-opacity:1;stroke-width:.79701;stroke-linecap:butt;stroke-linejoin:miter;stroke:#000;stroke-opacity:1;stroke-miterlimit:10" d="M74.056-95.016H-74.057a3.986 3.986 0 0 1-3.984-3.985v-11.957a3.986 3.986 0 0 1 3.984-3.984H74.056c2.2 0 3.985 1.785 3.985 3.984V-99c0 2.2-1.785 3.985-3.985 3.985Zm0 0" transform="matrix(1 0 0 -1 103.346 83.683)"/><use xlink:href="#B" x="48.965" y="191.22" style="fill:#000;fill-opacity:1"/><use xlink:href="#g" x="54.116" y="191.22" style="fill:#000;fill-opacity:1"/><use xlink:href="#h" x="57.99" y="191.22" style="fill:#000;fill-opacity:1"/><use xlink:href="#i" x="63.576" y="191.22" style="fill:#000;fill-opacity:1"/><use xlink:href="#j" x="73.039" y="191.22" style="fill:#000;fill-opacity:1"/><use xlink:href="#C" x="86.383" y="183.748" style="fill:#000;fill-opacity:1"/><use xlink:href="#D" x="96.899" y="186.211" style="fill:#000;fill-opacity:1"/><use xlink:href="#z" x="96.899" y="194.209" style="fill:#000;fill-opacity:1"/><g style="fill:#000;fill-opacity:1"><use xlink:href="#E" x="99.718" y="194.209"/><use xlink:href="#F" x="105.834" y="194.209"/></g><use xlink:href="#G" x="111.964" y="191.22" style="fill:#000;fill-opacity:1"/><use xlink:href="#z" x="116.841" y="192.715" style="fill:#000;fill-opacity:1"/><use xlink:href="#H" x="121.818" y="191.22" style="fill:#000;fill-opacity:1"/><use xlink:href="#y" x="124.586" y="191.22" style="fill:#000;fill-opacity:1"/><use xlink:href="#z" x="130.522" y="192.715" style="fill:#000;fill-opacity:1"/><use xlink:href="#g" x="133.839" y="191.22" style="fill:#000;fill-opacity:1"/><use xlink:href="#h" x="137.713" y="191.22" style="fill:#000;fill-opacity:1"/><use xlink:href="#z" x="143.299" y="192.715" style="fill:#000;fill-opacity:1"/><use xlink:href="#i" x="146.615" y="191.22" style="fill:#000;fill-opacity:1"/><use xlink:href="#H" x="150.49" y="191.22" style="fill:#000;fill-opacity:1"/><use xlink:href="#v" x="153.257" y="187.605" style="fill:#000;fill-opacity:1"/><path style="fill-rule:nonzero;fill:#eee;fill-opacity:1;stroke-width:.79701;stroke-linecap:butt;stroke-linejoin:miter;stroke:#000;stroke-opacity:1;stroke-miterlimit:10" d="M74.056-129.91H-74.057a3.986 3.986 0 0 1-3.984-3.985v-11.957c0-2.2 1.785-3.985 3.984-3.985H74.056c2.2 0 3.985 1.786 3.985 3.985v11.957c0 2.2-1.785 3.984-3.985 3.984Zm0 0" transform="matrix(1 0 0 -1 103.346 83.683)"/><g style="fill:#000;fill-opacity:1"><use xlink:href="#I" x="34.618" y="226.046"/><use xlink:href="#J" x="41.813" y="226.046"/><use xlink:href="#K" x="46.794" y="226.046"/></g><use xlink:href="#L" x="52.051" y="226.046" style="fill:#000;fill-opacity:1"/><g style="fill:#000;fill-opacity:1"><use xlink:href="#M" x="57.03" y="226.046"/><use xlink:href="#N" x="61.457" y="226.046"/><use xlink:href="#O" x="65.36" y="226.046"/><use xlink:href="#M" x="70.341" y="226.046"/><use xlink:href="#K" x="74.768" y="226.046"/><use xlink:href="#P" x="80.303" y="226.046"/><use xlink:href="#M" x="84.731" y="226.046"/></g><g style="fill:#000;fill-opacity:1"><use xlink:href="#P" x="92.486" y="226.046"/><use xlink:href="#N" x="96.913" y="226.046"/><use xlink:href="#Q" x="100.815" y="226.046"/><use xlink:href="#R" x="103.583" y="226.046"/><use xlink:href="#M" x="107.458" y="226.046"/><use xlink:href="#N" x="111.885" y="226.046"/><use xlink:href="#Q" x="115.787" y="226.046"/><use xlink:href="#J" x="118.555" y="226.046"/><use xlink:href="#K" x="123.536" y="226.046"/></g><g style="fill:#000;fill-opacity:1"><use xlink:href="#S" x="132.389" y="226.046"/><use xlink:href="#T" x="136.318" y="226.046"/><use xlink:href="#R" x="141.3" y="226.046"/><use xlink:href="#Q" x="145.174" y="226.046"/><use xlink:href="#S" x="147.942" y="226.046"/><use xlink:href="#U" x="151.871" y="226.046"/><use xlink:href="#M" x="157.406" y="226.046"/><use xlink:href="#V" x="161.833" y="226.046"/><use xlink:href="#W" x="167.369" y="226.046"/></g><g clip-path="url(#X)"><path style="stroke:none;fill-rule:nonzero;fill:#ffd9b2;fill-opacity:1" d="M202.309 2.398H4.383A3.984 3.984 0 0 0 .398 6.383v20.035c0 2.2 1.786 3.984 3.985 3.984h197.926a3.984 3.984 0 0 0 3.984-3.984V6.383a3.981 3.981 0 0 0-3.984-3.985Zm0 0"/></g><g clip-path="url(#Y)"><path style="fill:none;stroke-width:.79701;stroke-linecap:butt;stroke-linejoin:miter;stroke:#000;stroke-opacity:1;stroke-miterlimit:10" d="M98.963 81.285H-98.963a3.984 3.984 0 0 1-3.985-3.985V57.265c0-2.2 1.786-3.984 3.985-3.984H98.963a3.984 3.984 0 0 1 3.984 3.984V77.3a3.981 3.981 0 0 1-3.984 3.985Zm0 0" transform="matrix(1 0 0 -1 103.346 83.683)"/></g><g style="fill:#000;fill-opacity:1"><use xlink:href="#Z" x="43.626" y="12.637"/><use xlink:href="#aa" x="49.161" y="12.637"/><use xlink:href="#ab" x="54.696" y="12.637"/><use xlink:href="#ab" x="60.232" y="12.637"/><use xlink:href="#ac" x="65.767" y="12.637"/><use xlink:href="#ad" x="68.534" y="12.637"/></g><g style="fill:#000;fill-opacity:1"><use xlink:href="#Q" x="77.11" y="12.637"/><use xlink:href="#K" x="79.878" y="12.637"/><use xlink:href="#Q" x="85.413" y="12.637"/><use xlink:href="#R" x="88.181" y="12.637"/><use xlink:href="#Q" x="92.055" y="12.637"/><use xlink:href="#T" x="94.823" y="12.637"/><use xlink:href="#ac" x="99.804" y="12.637"/></g><g style="fill:#000;fill-opacity:1"><use xlink:href="#V" x="105.889" y="12.637"/><use xlink:href="#M" x="111.424" y="12.637"/><use xlink:href="#K" x="115.852" y="12.637"/><use xlink:href="#S" x="121.387" y="12.637"/><use xlink:href="#Q" x="125.316" y="12.637"/><use xlink:href="#R" x="128.084" y="12.637"/></g><use xlink:href="#ad" x="131.679" y="12.637" style="fill:#000;fill-opacity:1"/><g style="fill:#000;fill-opacity:1"><use xlink:href="#O" x="140.265" y="12.637"/><use xlink:href="#aa" x="145.247" y="12.637"/><use xlink:href="#M" x="150.782" y="12.637"/><use xlink:href="#S" x="155.209" y="12.637"/><use xlink:href="#S" x="159.138" y="12.637"/></g><use xlink:href="#B" x="33.608" y="24.592" style="fill:#000;fill-opacity:1"/><g style="fill:#000;fill-opacity:1"><use xlink:href="#ae" x="38.759" y="26.087"/><use xlink:href="#af" x="41.014" y="26.087"/><use xlink:href="#ae" x="45.415" y="26.087"/></g><use xlink:href="#g" x="48.168" y="24.592" style="fill:#000;fill-opacity:1"/><use xlink:href="#h" x="52.043" y="24.592" style="fill:#000;fill-opacity:1"/><use xlink:href="#i" x="57.628" y="24.592" style="fill:#000;fill-opacity:1"/><g style="fill:#000;fill-opacity:1"><use xlink:href="#R" x="64.82" y="24.592"/><use xlink:href="#J" x="68.694" y="24.592"/></g><g style="fill:#000;fill-opacity:1"><use xlink:href="#ag" x="77.003" y="24.592"/><use xlink:href="#J" x="84.752" y="24.592"/><use xlink:href="#ah" x="89.733" y="24.592"/><use xlink:href="#K" x="95.269" y="24.592"/></g><g style="fill:#000;fill-opacity:1"><use xlink:href="#Z" x="104.121" y="24.592"/><use xlink:href="#ah" x="109.657" y="24.592"/><use xlink:href="#T" x="115.192" y="24.592"/><use xlink:href="#ai" x="120.173" y="24.592"/></g><g style="fill:#000;fill-opacity:1"><use xlink:href="#M" x="131.793" y="24.592"/><use xlink:href="#aj" x="136.22" y="24.592"/><use xlink:href="#aa" x="141.478" y="24.592"/><use xlink:href="#T" x="147.013" y="24.592"/><use xlink:href="#R" x="151.995" y="24.592"/><use xlink:href="#Q" x="155.869" y="24.592"/><use xlink:href="#J" x="158.637" y="24.592"/><use xlink:href="#K" x="163.618" y="24.592"/><use xlink:href="#S" x="169.153" y="24.592"/></g><g clip-path="url(#ak)"><path style="stroke:none;fill-rule:nonzero;fill:#b2b2ff;fill-opacity:1" d="M202.309 276.836H4.383a3.987 3.987 0 0 0-3.985 3.988v32.903a3.984 3.984 0 0 0 3.985 3.984h197.926a3.981 3.981 0 0 0 3.984-3.984v-32.903a3.984 3.984 0 0 0-3.984-3.988Zm0 0"/></g><g clip-path="url(#al)"><path style="fill:none;stroke-width:.79701;stroke-linecap:butt;stroke-linejoin:miter;stroke:#000;stroke-opacity:1;stroke-miterlimit:10" d="M98.963-193.153H-98.963a3.987 3.987 0 0 1-3.985-3.988v-32.903a3.984 3.984 0 0 1 3.985-3.984H98.963a3.981 3.981 0 0 1 3.984 3.984v32.903a3.984 3.984 0 0 1-3.984 3.988Zm0 0" transform="matrix(1 0 0 -1 103.346 83.683)"/></g><g style="fill:#000;fill-opacity:1"><use xlink:href="#am" x="40.527" y="287.627"/><use xlink:href="#S" x="47.999" y="287.627"/><use xlink:href="#M" x="51.928" y="287.627"/></g><use xlink:href="#B" x="59.677" y="287.627" style="fill:#000;fill-opacity:1"/><g style="fill:#000;fill-opacity:1"><use xlink:href="#an" x="64.828" y="289.122"/><use xlink:href="#af" x="69.339" y="289.122"/></g><use xlink:href="#g" x="74.237" y="287.627" style="fill:#000;fill-opacity:1"/><use xlink:href="#h" x="78.111" y="287.627" style="fill:#000;fill-opacity:1"/><use xlink:href="#i" x="83.697" y="287.627" style="fill:#000;fill-opacity:1"/><g style="fill:#000;fill-opacity:1"><use xlink:href="#R" x="90.889" y="287.627"/><use xlink:href="#J" x="94.763" y="287.627"/></g><g style="fill:#000;fill-opacity:1"><use xlink:href="#ai" x="103.072" y="287.627"/><use xlink:href="#Q" x="111.374" y="287.627"/><use xlink:href="#K" x="114.142" y="287.627"/><use xlink:href="#Q" x="119.677" y="287.627"/><use xlink:href="#ai" x="122.445" y="287.627"/><use xlink:href="#Q" x="130.746" y="287.627"/><use xlink:href="#ao" x="133.514" y="287.627"/><use xlink:href="#M" x="137.941" y="287.627"/></g><g style="fill:#000;fill-opacity:1"><use xlink:href="#R" x="145.686" y="287.627"/><use xlink:href="#J" x="149.561" y="287.627"/><use xlink:href="#R" x="154.542" y="287.627"/><use xlink:href="#T" x="158.417" y="287.627"/><use xlink:href="#ac" x="163.398" y="287.627"/></g><g style="fill:#000;fill-opacity:1"><use xlink:href="#M" x="39.752" y="299.582"/><use xlink:href="#K" x="44.179" y="299.582"/><use xlink:href="#M" x="49.715" y="299.582"/><use xlink:href="#N" x="54.142" y="299.582"/><use xlink:href="#O" x="58.044" y="299.582"/><use xlink:href="#ad" x="63.026" y="299.582"/></g><g style="fill:#000;fill-opacity:1"><use xlink:href="#ap" x="71.601" y="299.582"/><use xlink:href="#aa" x="74.646" y="299.582"/><use xlink:href="#K" x="80.181" y="299.582"/><use xlink:href="#P" x="85.716" y="299.582"/><use xlink:href="#R" x="90.144" y="299.582"/><use xlink:href="#Q" x="94.018" y="299.582"/><use xlink:href="#J" x="96.786" y="299.582"/><use xlink:href="#K" x="101.767" y="299.582"/><use xlink:href="#T" x="107.302" y="299.582"/><use xlink:href="#ac" x="112.284" y="299.582"/></g><use xlink:href="#A" x="118.373" y="299.582" style="fill:#000;fill-opacity:1"/><use xlink:href="#aq" x="125.727" y="301.077" style="fill:#000;fill-opacity:1"/><g style="fill:#000;fill-opacity:1"><use xlink:href="#ar" x="130.432" y="302.073"/><use xlink:href="#as" x="133.476" y="302.073"/><use xlink:href="#at" x="137.039" y="302.073"/></g><use xlink:href="#au" x="140.734" y="299.582" style="fill:#000;fill-opacity:1"/><use xlink:href="#B" x="143.501" y="299.582" style="fill:#000;fill-opacity:1"/><use xlink:href="#av" x="148.652" y="299.582" style="fill:#000;fill-opacity:1"/><use xlink:href="#j" x="159.19" y="299.582" style="fill:#000;fill-opacity:1"/><use xlink:href="#aw" x="17.07" y="311.538" style="fill:#000;fill-opacity:1"/><g style="fill:#000;fill-opacity:1"><use xlink:href="#ax" x="22.892" y="313.032"/><use xlink:href="#e" x="26.672" y="313.032"/><use xlink:href="#f" x="29.038" y="313.032"/></g><use xlink:href="#au" x="33.296" y="311.538" style="fill:#000;fill-opacity:1"/><use xlink:href="#y" x="36.064" y="311.538" style="fill:#000;fill-opacity:1"/><use xlink:href="#z" x="42" y="313.032" style="fill:#000;fill-opacity:1"/><use xlink:href="#ay" x="45.317" y="311.538" style="fill:#000;fill-opacity:1"/><use xlink:href="#B" x="50.298" y="311.538" style="fill:#000;fill-opacity:1"/><use xlink:href="#az" x="55.449" y="311.538" style="fill:#000;fill-opacity:1"/><use xlink:href="#av" x="60.43" y="311.538" style="fill:#000;fill-opacity:1"/><use xlink:href="#l" x="66.157" y="311.538" style="fill:#000;fill-opacity:1"/><use xlink:href="#aA" x="76.858" y="311.538" style="fill:#000;fill-opacity:1"/><g style="fill:#000;fill-opacity:1"><use xlink:href="#ax" x="82.669" y="313.032"/><use xlink:href="#ax" x="86.449" y="313.032"/><use xlink:href="#e" x="90.229" y="313.032"/><use xlink:href="#aB" x="92.595" y="313.032"/></g><use xlink:href="#au" x="100.151" y="311.538" style="fill:#000;fill-opacity:1"/><use xlink:href="#B" x="102.919" y="311.538" style="fill:#000;fill-opacity:1"/><use xlink:href="#av" x="108.07" y="311.538" style="fill:#000;fill-opacity:1"/><use xlink:href="#l" x="113.797" y="311.538" style="fill:#000;fill-opacity:1"/><use xlink:href="#A" x="124.497" y="311.538" style="fill:#000;fill-opacity:1"/><g style="fill:#000;fill-opacity:1"><use xlink:href="#aC" x="131.851" y="313.032"/><use xlink:href="#aD" x="136.369" y="313.032"/></g><use xlink:href="#au" x="140.428" y="311.538" style="fill:#000;fill-opacity:1"/><use xlink:href="#B" x="143.195" y="311.538" style="fill:#000;fill-opacity:1"/><use xlink:href="#av" x="148.346" y="311.538" style="fill:#000;fill-opacity:1"/><use xlink:href="#l" x="154.073" y="311.538" style="fill:#000;fill-opacity:1"/><use xlink:href="#aA" x="164.773" y="311.538" style="fill:#000;fill-opacity:1"/><g style="fill:#000;fill-opacity:1"><use xlink:href="#ax" x="170.585" y="313.032"/><use xlink:href="#aE" x="174.365" y="313.032"/></g><use xlink:href="#au" x="178.936" y="311.538" style="fill:#000;fill-opacity:1"/><use xlink:href="#B" x="181.703" y="311.538" style="fill:#000;fill-opacity:1"/><use xlink:href="#av" x="186.854" y="311.538" style="fill:#000;fill-opacity:1"/><path style="fill:none;stroke-width:.79701;stroke-linecap:butt;stroke-linejoin:miter;stroke:#000;stroke-opacity:1;stroke-miterlimit:10" d="M.002 52.882V13.468" transform="matrix(1 0 0 -1 103.346 83.683)"/><path style="stroke:none;fill-rule:nonzero;fill:#000;fill-opacity:1" d="M103.348 73.32c.257-1.293.777-3.625 1.941-5.18-1.426 1.297-2.46 1.297-3.887 0 1.168 1.555 1.684 3.887 1.946 5.18Zm0 0"/><path style="fill:none;stroke-width:.79701;stroke-linecap:butt;stroke-linejoin:miter;stroke:#000;stroke-opacity:1;stroke-miterlimit:10" d="M.002-10.36v-11.066" transform="matrix(1 0 0 -1 103.346 83.683)"/><path style="stroke:none;fill-rule:nonzero;fill:#000;fill-opacity:1" d="M103.348 108.219c.257-1.297.777-3.63 1.941-5.18-1.426 1.293-2.46 1.293-3.887 0 1.168 1.55 1.684 3.883 1.946 5.18Zm0 0"/><path style="fill:none;stroke-width:.79701;stroke-linecap:butt;stroke-linejoin:miter;stroke:#000;stroke-opacity:1;stroke-miterlimit:10" d="M.002-45.547v-11.067" transform="matrix(1 0 0 -1 103.346 83.683)"/><path style="stroke:none;fill-rule:nonzero;fill:#000;fill-opacity:1" d="M103.348 143.402c.257-1.293.777-3.625 1.941-5.18-1.426 1.298-2.46 1.298-3.887 0 1.168 1.555 1.684 3.887 1.946 5.18Zm0 0"/><path style="fill:none;stroke-width:.79701;stroke-linecap:butt;stroke-linejoin:miter;stroke:#000;stroke-opacity:1;stroke-miterlimit:10" d="M.002-80.442v-11.066" transform="matrix(1 0 0 -1 103.346 83.683)"/><path style="stroke:none;fill-rule:nonzero;fill:#000;fill-opacity:1" d="M103.348 178.3c.257-1.296.777-3.624 1.941-5.179-1.426 1.293-2.46 1.293-3.887 0 1.168 1.555 1.684 3.883 1.946 5.18Zm0 0"/><path style="fill:none;stroke-width:.79701;stroke-linecap:butt;stroke-linejoin:miter;stroke:#000;stroke-opacity:1;stroke-miterlimit:10" d="M.002-115.34v-11.067" transform="matrix(1 0 0 -1 103.346 83.683)"/><path style="stroke:none;fill-rule:nonzero;fill:#000;fill-opacity:1" d="M103.348 213.195c.257-1.293.777-3.625 1.941-5.18-1.426 1.298-2.46 1.298-3.887 0 1.168 1.555 1.684 3.887 1.946 5.18Zm0 0"/><path style="fill:none;stroke-width:.3985;stroke-linecap:butt;stroke-linejoin:miter;stroke:#000;stroke-opacity:1;stroke-dasharray:2.98883,2.98883;stroke-miterlimit:10" d="M-98.366-170.16h196.73V30.287h-196.73Zm0 0" transform="matrix(1 0 0 -1 103.346 83.683)"/><path style="fill-rule:nonzero;fill:#fff;fill-opacity:1;stroke-width:.3985;stroke-linecap:butt;stroke-linejoin:miter;stroke:#000;stroke-opacity:1;stroke-miterlimit:10" d="M-74.405 22.515H74.404V39.12H-74.405Zm0 0" transform="matrix(1 0 0 -1 103.346 83.683)"/><g style="fill:#000;fill-opacity:1"><use xlink:href="#aF" x="32.262" y="57.847"/><use xlink:href="#aG" x="44.898" y="57.847"/><use xlink:href="#aH" x="52.968" y="57.847"/><use xlink:href="#aI" x="61.934" y="57.847"/><use xlink:href="#aJ" x="70.901" y="57.847"/><use xlink:href="#aK" x="76.28" y="57.847"/><use xlink:href="#aH" x="85.247" y="57.847"/><use xlink:href="#aL" x="94.213" y="57.847"/><use xlink:href="#aM" x="102.059" y="57.847"/></g><g style="fill:#000;fill-opacity:1"><use xlink:href="#aM" x="120.889" y="57.847"/><use xlink:href="#aN" x="134.338" y="57.847"/><use xlink:href="#aO" x="141.702" y="57.847"/><use xlink:href="#aH" x="147.978" y="57.847"/><use xlink:href="#aG" x="156.945" y="57.847"/></g><use xlink:href="#aP" x="165.459" y="57.847" style="fill:#000;fill-opacity:1"/><path style="fill:none;stroke-width:.79701;stroke-linecap:butt;stroke-linejoin:miter;stroke:#000;stroke-opacity:1;stroke-miterlimit:10" d="M.002-150.235v-39.414" transform="matrix(1 0 0 -1 103.346 83.683)"/><path style="stroke:none;fill-rule:nonzero;fill:#000;fill-opacity:1" d="M103.348 276.438c.257-1.293.777-3.625 1.941-5.18-1.426 1.297-2.46 1.297-3.887 0 1.168 1.555 1.684 3.887 1.946 5.18Zm0 0"/><path style="fill-rule:nonzero;fill:#fff;fill-opacity:1;stroke-width:.79701;stroke-linecap:butt;stroke-linejoin:miter;stroke:#000;stroke-opacity:1;stroke-miterlimit:10" d="M-24.475-178.22h21.64v13.45h-21.64Zm0 0" transform="matrix(1 0 0 -1 103.346 83.683)"/><use xlink:href="#aQ" x="82.191" y="258.58" style="fill:#000;fill-opacity:1"/><g style="fill:#000;fill-opacity:1"><use xlink:href="#M" x="88.836" y="258.58"/><use xlink:href="#S" x="93.263" y="258.58"/></g><path style="fill:none;stroke-width:.79701;stroke-linecap:butt;stroke-linejoin:miter;stroke:#000;stroke-opacity:1;stroke-miterlimit:10" d="M.002-160.2h88.402" transform="matrix(1 0 0 -1 103.346 83.683)"/><path style="fill-rule:nonzero;fill:#fff;fill-opacity:1;stroke-width:.79701;stroke-linecap:butt;stroke-linejoin:miter;stroke:#000;stroke-opacity:1;stroke-miterlimit:10" d="M34.654-176.481h19.094v13.45H34.654Zm0 0" transform="matrix(1 0 0 -1 103.346 83.683)"/><g style="fill:#000;fill-opacity:1"><use xlink:href="#aR" x="141.32" y="256.842"/><use xlink:href="#J" x="148.792" y="256.842"/></g><path style="fill:none;stroke-width:.79701;stroke-linecap:butt;stroke-linejoin:miter;stroke:#000;stroke-opacity:1;stroke-miterlimit:10" d="M88.404-160.2V0h-6.855" transform="matrix(1 0 0 -1 103.346 83.683)"/><path style="stroke:none;fill-rule:nonzero;fill:#000;fill-opacity:1" d="M181.785 83.684c1.297.257 3.63.777 5.18 1.941-1.293-1.426-1.293-2.46 0-3.883-1.55 1.164-3.883 1.684-5.18 1.942Zm0 0"/></svg>