<svg xmlns="http://www.w3.org/2000/svg" xmlns:xlink="http://www.w3.org/1999/xlink" width="344.847" height="325.563" viewBox="0 0 258.635 244.172"><defs><symbol overflow="visible" id="a"><path d="M5.719-6.984c-.094-.141-.094-.157-.235-.157-.687 0-1.906.282-2.421 1.125-.157-.28-.641-1.015-1.391-1.015-.688 0-1.125.625-1.125 1.203 0 .375.234.625.515.906.547.563.547.719.547 1.094 0 .594-.046 1.187-.484 1.187-.266 0-.313-.375-.328-.546 0-.079-.016-.157-.125-.157-.125 0-.125.11-.125.14 0 .188.094.782.578.782.813 0 .813-1.281.813-1.5 0-.312-.032-.687-.704-1.312-.28-.25-.39-.391-.39-.625 0-.422.297-.954.812-.954.516 0 .922.782.922 1.954v2.937c0 .094 0 1.922-.656 1.922-.36 0-.734-.313-.938-.938.016 0 .22-.062.22-.156 0-.062-.079-.11-.11-.11a1.01 1.01 0 0 0-.203.063C.875-1.203.828-1.312.75-1.312c-.047 0-.125.093-.125.14 0 .031.016.094.047.125-.063.016-.219.063-.219.156 0 .047.063.11.11.11A.88.88 0 0 0 .75-.844C1.063.016 1.578.22 1.922.22c.703 0 1.5-.906 1.5-2.938v-.719h1.14l.125 2.188c0 .063-.03.14-.03.328 0 .594.484 1.14 1.155 1.14.125 0 .157 0 .344-.14l.719-.562C6.985-.578 7-.594 7-.625c0-.078-.156-.14-.188-.14-.046 0-.406.28-.859.656A.946.946 0 0 1 5.5-.922c0-.187.031-.219.031-.328 0-.297-.047-.813-.062-1.125-.016-.203-.063-1-.063-1.14.563-.172 1.64-.813 1.657-.829a.106.106 0 0 0 .062-.093c0-.016-.063-.141-.078-.141zM6.28-4.25c-.922.5-1.125.5-1.422.5H3.422v-.484c0-.688-.094-1.079-.203-1.391.344-.953 1.64-1.14 1.64-1.14.032 0 .079.109.094.109zm0 0"/></symbol><symbol overflow="visible" id="g"><path d="M2.86-3.344c0-.078-.063-.11-.094-.11C1.25-3.546.859-4.546.859-5.14c0-.984.907-1.671 1.813-1.671.562 0 .89.359 1.312.906.454.562.938 1.172 1.782 1.172.703 0 1.14-.313 1.14-.704 0-.125-.093-.125-.156-.125-.125 0-.14.047-.156.141-.078.469-.782.469-.797.469-.14 0-.203-.031-.36-.328-.89-1.64-2.312-1.75-2.718-1.75-1.219 0-2.172.843-2.172 1.89 0 1.235 1.234 1.907 2.14 1.907.063 0 .172 0 .172-.11zM.812-1.828c-.172 0-.266 0-.266.11 0 .03 0 .109.094.109.343.03.671.046 1.437.75C3.141.109 3.36.109 4.156.109c.516 0 .938 0 1.422-.343.36-.235.64-.641.64-1.141 0-.36-.14-.563-.5-.969-.39-.437-.421-.61-.421-.844 0-.421.11-.89.469-.89.015 0 .75 0 .828.703.015.063.031.125.156.125s.156-.047.156-.14c0-.422-.453-.907-1.156-.907-.719 0-1.297.516-1.297 1.14 0 .407.234.657.531 1 .375.407.407.579.407.782 0 .922-1.032 1.25-1.22 1.25-.062 0-.327-.078-.655-.297-.172-.14-.454-.39-.5-.422-.72-.687-1.11-.984-1.797-.984zm0 0"/></symbol><symbol overflow="visible" id="k"><path d="M6.563-2.297c.171 0 .359 0 .359-.203 0-.188-.188-.188-.36-.188h-5.39c-.172 0-.344 0-.344.188 0 .203.172.203.344.203zm0 0"/></symbol><symbol overflow="visible" id="b"><path d="M3.297 2.39c0-.03 0-.046-.172-.218C1.891.922 1.562-.968 1.562-2.5c0-1.734.375-3.469 1.61-4.703.125-.125.125-.14.125-.172 0-.078-.031-.11-.094-.11-.11 0-1 .688-1.594 1.954C1.11-4.438.984-3.328.984-2.5c0 .781.11 1.984.657 3.125C2.25 1.844 3.094 2.5 3.203 2.5c.063 0 .094-.031.094-.11zm0 0"/></symbol><symbol overflow="visible" id="e"><path d="M2.875-2.5c0-.766-.11-1.969-.656-3.11C1.625-6.827.766-7.483.672-7.483a.107.107 0 0 0-.11.109c0 .031 0 .047.188.234.984.985 1.547 2.563 1.547 4.641 0 1.719-.36 3.469-1.594 4.719-.14.125-.14.14-.14.172 0 .062.046.109.109.109.094 0 1-.688 1.578-1.953.516-1.094.625-2.203.625-3.047zm0 0"/></symbol><symbol overflow="visible" id="i"><path d="M6.844-3.266c.156 0 .343 0 .343-.187 0-.203-.187-.203-.328-.203H.891c-.141 0-.329 0-.329.203 0 .187.188.187.329.187zm.015 1.938c.141 0 .329 0 .329-.203 0-.188-.188-.188-.344-.188H.89c-.141 0-.329 0-.329.188 0 .203.188.203.329.203zm0 0"/></symbol><symbol overflow="visible" id="j"><path d="M2.938-6.375c0-.25 0-.266-.235-.266C2.078-6 1.203-6 .891-6v.313c.203 0 .78 0 1.296-.266v5.172c0 .36-.03.469-.921.469H.953V0c.344-.031 1.203-.031 1.61-.031.39 0 1.265 0 1.609.031v-.313h-.313c-.906 0-.921-.109-.921-.468zm0 0"/></symbol><symbol overflow="visible" id="c"><path d="M.453 1.219c-.078.343-.11.406-.547.406-.11 0-.218 0-.218.188 0 .078.046.125.124.125.266 0 .563-.032.829-.032.343 0 .671.032 1 .032.046 0 .171 0 .171-.204 0-.109-.093-.109-.234-.109-.5 0-.5-.063-.5-.156 0-.125.422-1.75.484-2 .125.297.407.64.922.64 1.157 0 2.407-1.453 2.407-2.921 0-.938-.579-1.594-1.329-1.594-.5 0-.984.36-1.312.75-.094-.547-.531-.75-.89-.75-.47 0-.657.39-.735.562-.188.344-.313.938-.313.969 0 .11.094.11.11.11.11 0 .11-.016.172-.235.172-.703.375-1.188.734-1.188.172 0 .313.079.313.454 0 .234-.032.343-.079.515zm1.75-4.328c.063-.266.344-.547.516-.704.36-.296.64-.374.812-.374.39 0 .64.343.64.937 0 .594-.327 1.734-.515 2.11-.344.702-.812 1.03-1.187 1.03-.656 0-.781-.828-.781-.89 0-.016 0-.031.03-.156zm0 0"/></symbol><symbol overflow="visible" id="h"><path d="M3.89-3.734c-.265.015-.468.234-.468.453 0 .14.094.297.312.297.22 0 .454-.172.454-.563 0-.453-.422-.86-1.188-.86-1.313 0-1.688 1.016-1.688 1.454 0 .781.735.922 1.032.984.515.11 1.031.219 1.031.766 0 .25-.219 1.094-1.422 1.094-.14 0-.906 0-1.14-.532.39.047.64-.25.64-.53 0-.22-.172-.345-.375-.345-.266 0-.562.204-.562.657 0 .562.578.968 1.421.968 1.625 0 2.016-1.203 2.016-1.656a.97.97 0 0 0-.312-.719c-.266-.28-.563-.343-1-.421-.36-.079-.75-.157-.75-.61 0-.281.234-.89 1.109-.89.25 0 .75.078.89.453zm0 0"/></symbol><symbol overflow="visible" id="d"><path d="M3.594-2.219c0-.765-.094-1.328-.406-1.812-.22-.313-.657-.594-1.204-.594C.36-4.625.36-2.719.36-2.219c0 .5 0 2.36 1.625 2.36 1.61 0 1.61-1.86 1.61-2.36zM1.984-.063c-.328 0-.75-.187-.89-.75C1-1.219 1-1.796 1-2.313c0-.515 0-1.046.094-1.421.156-.547.593-.704.89-.704.375 0 .735.235.86.641.11.375.125.875.125 1.485 0 .515 0 1.03-.094 1.468-.14.64-.61.781-.89.781zm0 0"/></symbol><clipPath id="f"><path d="M113 17h2v227.172h-2zm0 0"/></clipPath></defs><path d="M.398 130.387h226.067" fill="none" stroke-width="0.79701" stroke="rgb(0%,0%,0%)" stroke-miterlimit="10"/><path d="M224.91 128.316c.13.778 1.555 1.942 1.942 2.07-.387.13-1.813 1.298-1.942 2.075" fill="none" stroke-width="0.6376" stroke-linecap="round" stroke-linejoin="round" stroke="rgb(0%,0%,0%)" stroke-miterlimit="10"/><use xlink:href="#a" x="230.889" y="132.878" fill="rgb(0%,0%,0%)"/><use xlink:href="#b" x="238.084" y="132.878" fill="rgb(0%,0%,0%)"/><use xlink:href="#c" x="241.959" y="132.878" fill="rgb(0%,0%,0%)"/><use xlink:href="#d" x="246.971" y="134.373" fill="rgb(0%,0%,0%)"/><use xlink:href="#e" x="251.44" y="132.878" fill="rgb(0%,0%,0%)"/><g clip-path="url(#f)"><path d="M113.785 243.773V17.707" fill="none" stroke-width="0.79701" stroke="rgb(0%,0%,0%)" stroke-miterlimit="10"/></g><path d="M111.71 19.262c.778-.13 1.946-1.555 2.075-1.942.13.387 1.293 1.813 2.07 1.942" fill="none" stroke-width="0.6376" stroke-linecap="round" stroke-linejoin="round" stroke="rgb(0%,0%,0%)" stroke-miterlimit="10"/><use xlink:href="#g" x="101.571" y="10.792" fill="rgb(0%,0%,0%)"/><use xlink:href="#b" x="108.767" y="10.792" fill="rgb(0%,0%,0%)"/><use xlink:href="#c" x="112.641" y="10.792" fill="rgb(0%,0%,0%)"/><use xlink:href="#d" x="117.653" y="12.287" fill="rgb(0%,0%,0%)"/><use xlink:href="#e" x="122.123" y="10.792" fill="rgb(0%,0%,0%)"/><path d="M117.77 126.402V18.684h107.718v107.718zm0 0" fill="rgb(95.449829%,89.99939%,89.99939%)" stroke-width="0.79701" stroke="rgb(54.499817%,0%,0%)" stroke-miterlimit="10"/><use xlink:href="#h" x="151.545" y="75.035" fill="rgb(0%,0%,0%)"/><use xlink:href="#b" x="156.215" y="75.035" fill="rgb(0%,0%,0%)"/><use xlink:href="#c" x="160.089" y="75.035" fill="rgb(0%,0%,0%)"/><use xlink:href="#d" x="165.102" y="76.53" fill="rgb(0%,0%,0%)"/><use xlink:href="#e" x="169.571" y="75.035" fill="rgb(0%,0%,0%)"/><use xlink:href="#i" x="176.215" y="75.035" fill="rgb(0%,0%,0%)"/><use xlink:href="#j" x="186.734" y="75.035" fill="rgb(0%,0%,0%)"/><path d="M109.8 126.402V18.684H2.083v107.718zm0 0" fill="rgb(89.99939%,89.99939%,95.449829%)" stroke-width="0.79701" stroke="rgb(0%,0%,54.499817%)" stroke-miterlimit="10"/><use xlink:href="#h" x="31.984" y="75.035" fill="rgb(0%,0%,0%)"/><use xlink:href="#b" x="36.654" y="75.035" fill="rgb(0%,0%,0%)"/><use xlink:href="#c" x="40.528" y="75.035" fill="rgb(0%,0%,0%)"/><use xlink:href="#d" x="45.541" y="76.53" fill="rgb(0%,0%,0%)"/><use xlink:href="#e" x="50.01" y="75.035" fill="rgb(0%,0%,0%)"/><use xlink:href="#i" x="56.654" y="75.035" fill="rgb(0%,0%,0%)"/><use xlink:href="#k" x="67.168" y="75.035" fill="rgb(0%,0%,0%)"/><use xlink:href="#j" x="74.917" y="75.035" fill="rgb(0%,0%,0%)"/><path d="M109.8 134.375V242.09H2.083V134.375zm0 0" fill="rgb(95.449829%,89.99939%,89.99939%)" stroke-width="0.79701" stroke="rgb(54.499817%,0%,0%)" stroke-miterlimit="10"/><use xlink:href="#h" x="35.858" y="190.721" fill="rgb(0%,0%,0%)"/><use xlink:href="#b" x="40.528" y="190.721" fill="rgb(0%,0%,0%)"/><use xlink:href="#c" x="44.403" y="190.721" fill="rgb(0%,0%,0%)"/><use xlink:href="#d" x="49.415" y="192.216" fill="rgb(0%,0%,0%)"/><use xlink:href="#e" x="53.885" y="190.721" fill="rgb(0%,0%,0%)"/><use xlink:href="#i" x="60.529" y="190.721" fill="rgb(0%,0%,0%)"/><use xlink:href="#j" x="71.038" y="190.721" fill="rgb(0%,0%,0%)"/><path d="M117.77 134.375V242.09h107.718V134.375zm0 0" fill="rgb(89.99939%,89.99939%,95.449829%)" stroke-width="0.79701" stroke="rgb(0%,0%,54.499817%)" stroke-miterlimit="10"/><use xlink:href="#h" x="147.67" y="190.721" fill="rgb(0%,0%,0%)"/><use xlink:href="#b" x="152.34" y="190.721" fill="rgb(0%,0%,0%)"/><use xlink:href="#c" x="156.215" y="190.721" fill="rgb(0%,0%,0%)"/><use xlink:href="#d" x="161.227" y="192.216" fill="rgb(0%,0%,0%)"/><use xlink:href="#e" x="165.696" y="190.721" fill="rgb(0%,0%,0%)"/><use xlink:href="#i" x="172.34" y="190.721" fill="rgb(0%,0%,0%)"/><use xlink:href="#k" x="182.854" y="190.721" fill="rgb(0%,0%,0%)"/><use xlink:href="#j" x="190.603" y="190.721" fill="rgb(0%,0%,0%)"/></svg>