<svg height="175.903" viewBox="0 0 454.283 131.927" width="605.711" xmlns="http://www.w3.org/2000/svg" xmlns:xlink="http://www.w3.org/1999/xlink"><symbol id="a" overflow="visible"><path d="m2.406-3.406h.406c.391-.016.891-.047 1.282-.063-.282.266-.438.422-1.438 1.188-2.015 1.531-2.234 2.187-2.234 2.219 0 .14.14.14.219.14.171 0 .171-.015.25-.11.359-.5.718-.562.89-.562.266 0 .485.172.64.281.313.22.563.391.938.391 1.11 0 1.844-1.219 1.844-1.594 0-.14-.172-.14-.234-.14-.078 0-.188 0-.219.093-.078.188-.188.438-.86.516-.046.016-2 .094-2.218.094.281-.266.437-.422 1.453-1.188 2.016-1.53 2.234-2.187 2.234-2.218 0-.141-.14-.141-.218-.141-.157 0-.172 0-.235.094-.234.343-.437.578-.672.578-.25 0-.468-.156-.703-.313-.234-.187-.484-.359-.86-.359-.874 0-1.452.875-1.452 1.188 0 .14.172.14.25.14.093 0 .203 0 .218-.125.141-.078.22-.078.516-.11zm0 0"/></symbol><symbol id="b" overflow="visible"><path d="m5.344-4a.744.744 0 0 0 -.532.688c0 .218.157.468.485.468.36 0 .719-.297.719-.781 0-.531-.516-.875-1.125-.875-.579 0-.938.422-1.079.61-.25-.422-.796-.61-1.374-.61-1.25 0-1.922 1.219-1.922 1.547 0 .14.14.14.234.14.125 0 .188 0 .234-.124.282-.907 1-1.204 1.407-1.204.375 0 .562.172.562.485 0 .203-.14.75-.234 1.11l-.344 1.358c-.14.61-.5.907-.844.907-.047 0-.281 0-.468-.14a.759.759 0 0 0 .53-.688.477.477 0 0 0 -.5-.47c-.343 0-.718.298-.718.782 0 .531.531.875 1.14.875.563 0 .938-.422 1.063-.61.25.423.813.61 1.375.61 1.266 0 1.938-1.219 1.938-1.547 0-.14-.157-.14-.235-.14-.125 0-.187 0-.234.125-.282.906-1 1.203-1.422 1.203-.375 0-.547-.172-.547-.5 0-.203.125-.735.219-1.11.062-.25.297-1.187.344-1.343.156-.61.5-.907.843-.907.063 0 .282 0 .485.141zm0 0"/></symbol><symbol id="c" overflow="visible"><path d="m2.328-4.438c0-.187 0-.187-.203-.187-.453.438-1.078.438-1.36.438v.25c.157 0 .626 0 1-.188v3.547c0 .234 0 .328-.687.328h-.266v.25c.125 0 .985-.031 1.235-.031.219 0 1.094.031 1.25.031v-.25h-.267c-.703 0-.703-.094-.703-.328zm0 0"/></symbol><symbol id="d" overflow="visible"><path d="m1.531-2.594a.403.403 0 0 0 -.406-.406.4.4 0 0 0 -.406.39c0 .25.203.407.406.407a.4.4 0 0 0 .406-.39zm0 2.203a.403.403 0 0 0 -.406-.406.4.4 0 0 0 -.406.39c0 .25.203.407.406.407a.4.4 0 0 0 .406-.39zm0 0"/></symbol><symbol id="e" overflow="visible"><path d="m3.219-1.578h2.14c.094 0 .25 0 .25-.156 0-.188-.156-.188-.25-.188h-2.139v-2.14c0-.079 0-.25-.156-.25-.172 0-.172.156-.172.25v2.14h-2.142c-.094 0-.266 0-.266.172s.157.172.266.172h2.14v2.14c0 .094 0 .266.157.266.172 0 .172-.172.172-.265zm0 0"/></symbol><symbol id="f" overflow="visible"><path d="m3.984-4.625c0-.016.016-.11.016-.11 0-.046-.016-.109-.11-.109-.14 0-.718.063-.89.078-.047 0-.156.016-.156.157 0 .093.11.093.187.093.328 0 .328.063.328.11s0 .093-.015.156l-.406 1.594c-.141-.235-.376-.422-.72-.422-.89 0-1.796.984-1.796 1.984 0 .688.453 1.157 1.062 1.157.375 0 .704-.204.985-.485.125.422.531.484.719.484.25 0 .421-.14.546-.359.157-.281.25-.672.25-.703 0-.094-.093-.094-.109-.094-.11 0-.11.032-.156.219-.094.344-.219.75-.516.75-.172 0-.234-.156-.234-.344 0-.125.015-.187.047-.281zm-1.484 3.75c-.047.203-.203.344-.36.469-.062.062-.343.281-.64.281-.266 0-.516-.188-.516-.672 0-.375.204-1.14.375-1.422.313-.562.672-.656.86-.656.484 0 .625.531.625.61 0 .015-.016.078-.016.093zm0 0"/></symbol><symbol id="g" overflow="visible"><path d="m1.313-.547c-.047.235-.063.297-.61.297-.125 0-.203 0-.203.156 0 .094.078.094.203.094h2.485c1.546 0 3.03-1.422 3.03-2.938 0-1.015-.702-1.828-1.827-1.828h-2.547c-.14 0-.219 0-.219.157 0 .093.078.093.234.093.11 0 .141 0 .266.016.14.016.14.031.14.11 0 0 0 .046-.015.14zm1.562-3.719c.063-.218.063-.25.36-.25h.89c.781 0 1.438.391 1.438 1.344 0 .156-.079 1.36-.766 2.156a2.35 2.35 0 0 1 -1.734.766h-.938c-.219 0-.234-.016-.234-.078 0 0 0-.031.03-.14zm0 0"/></symbol><symbol id="h" overflow="visible"><path d="m6.844-3.266c.156 0 .343 0 .343-.187 0-.203-.187-.203-.328-.203h-5.968c-.141 0-.329 0-.329.203 0 .187.188.187.329.187zm.015 1.938c.141 0 .329 0 .329-.203 0-.188-.188-.188-.344-.188h-5.954c-.141 0-.329 0-.329.188 0 .203.188.203.329.203zm0 0"/></symbol><symbol id="i" overflow="visible"><path d="m1.75-4.297v-1.156c0-.875.469-1.36.906-1.36.031 0 .188 0 .328.079a.443.443 0 0 0 -.296.421c0 .22.156.422.437.422s.438-.203.438-.437c0-.375-.376-.703-.907-.703-.687 0-1.547.531-1.547 1.593v1.141h-.779v.313h.78v3.234c0 .438-.109.438-.765.438v.312c.39-.016.86-.031 1.125-.031.406 0 .875 0 1.265.031v-.313h-.203c-.734 0-.75-.109-.75-.468v-3.203h1.125v-.313zm0 0"/></symbol><symbol id="j" overflow="visible"><path d="m4.688-2.14c0-1.266-.985-2.329-2.188-2.329-1.25 0-2.219 1.094-2.219 2.329a2.22 2.22 0 0 0 2.203 2.25c1.204 0 2.204-.984 2.204-2.25zm-2.188 2c-.438 0-.875-.204-1.14-.672-.25-.438-.25-1.047-.25-1.407 0-.39 0-.922.234-1.36a1.347 1.347 0 0 1 1.14-.671c.438 0 .86.219 1.125.656.266.422.266 1 .266 1.375 0 .36 0 .906-.219 1.344-.234.453-.672.734-1.156.734zm0 0"/></symbol><symbol id="k" overflow="visible"><path d="m1.672-3.313v-1.093l-1.39.11v.312c.702 0 .78.062.78.562v2.672c0 .438-.109.438-.78.438v.312c.39-.016.859-.031 1.14-.031.39 0 .86 0 1.266.031v-.313h-.22c-.734 0-.75-.109-.75-.468v-1.531c0-.985.423-1.876 1.173-1.876.062 0 .093 0 .109.016-.031 0-.234.125-.234.39 0 .266.218.423.437.423a.421.421 0 0 0 .422-.438c0-.312-.313-.61-.734-.61-.735 0-1.094.673-1.22 1.095zm0 0"/></symbol><symbol id="l" overflow="visible"><path d="m6.172-3.344c.172-.5.484-.64.844-.64v-.313c-.235.016-.516.031-.735.031-.297 0-.734-.015-.922-.03v.312c.36 0 .579.187.579.468 0 .063 0 .094-.063.22l-.906 2.546-.985-2.781c-.03-.125-.046-.14-.046-.188 0-.265.39-.265.593-.265v-.313a25.02 25.02 0 0 1 -1.047.031c-.296 0-.578-.015-.875-.03v.312c.36 0 .516.015.625.14.047.063.157.36.22.547l-.846 2.422-.953-2.656c-.047-.125-.047-.14-.047-.188 0-.265.391-.265.579-.265v-.313c-.297.016-.86.031-1.079.031-.046 0-.578-.015-.937-.03v.312c.5 0 .625.03.75.343l1.25 3.532c.047.14.078.218.203.218.14 0 .156-.062.203-.203l1.016-2.812 1.016 2.828c.032.11.063.187.204.187.125 0 .156-.093.187-.187zm0 0"/></symbol><symbol id="m" overflow="visible"><path d="m3.313-.75c.046.39.312.813.78.813.22 0 .829-.141.829-.954v-.562h-.25v.562c0 .579-.25.641-.36.641-.328 0-.375-.453-.375-.5v-1.984c0-.422 0-.813-.359-1.188a1.9 1.9 0 0 0 -1.36-.547c-.827 0-1.515.469-1.515 1.125 0 .297.203.469.469.469a.435.435 0 0 0 .453-.453c0-.125-.047-.453-.516-.453.282-.36.766-.469 1.079-.469.5 0 1.062.39 1.062 1.281v.36c-.516.03-1.203.062-1.828.359-.75.344-1 .86-1 1.297 0 .812.969 1.062 1.594 1.062a1.38 1.38 0 0 0 1.296-.859zm-.063-1.64v1c0 .937-.719 1.28-1.172 1.28-.484 0-.89-.343-.89-.843 0-.547.421-1.375 2.062-1.438zm0 0"/></symbol><symbol id="n" overflow="visible"><path d="m3.781-.547v.657l1.469-.11v-.313c-.688 0-.781-.062-.781-.562v-6.047l-1.422.11v.312c.687 0 .765.063.765.563v2.156a1.582 1.582 0 0 0 -1.25-.625c-1.171 0-2.218.984-2.218 2.265 0 1.266.969 2.25 2.11 2.25.64 0 1.077-.343 1.327-.656zm0-2.672v2.047c0 .172 0 .188-.11.36-.296.484-.733.703-1.171.703-.453 0-.813-.266-1.047-.641-.25-.406-.281-.969-.281-1.39 0-.36.016-.954.297-1.407.218-.312.593-.64 1.14-.64.344 0 .766.156 1.063.593.11.172.11.188.11.375zm0 0"/></symbol><symbol id="o" overflow="visible"><path d="m1.719-3.75v-.656l-1.438.11v.312c.703 0 .781.062.781.5v4.656c0 .453-.109.453-.78.453v.313c.343-.016.859-.032 1.109-.032.28 0 .78.016 1.125.032v-.313c-.657 0-.766 0-.766-.453v-1.766c.047.172.469.703 1.219.703 1.187 0 2.219-.984 2.219-2.265 0-1.266-.954-2.25-2.079-2.25-.78 0-1.203.437-1.39.656zm.031 2.61v-2.22c.281-.515.766-.796 1.281-.796.735 0 1.328.875 1.328 2 .001 1.203-.687 2.046-1.421 2.046-.407 0-.782-.204-1.047-.61-.141-.203-.141-.219-.141-.422zm0 0"/></symbol><symbol id="p" overflow="visible"><path d="m2.078-1.938c.219.047 1.031.204 1.031.922 0 .5-.343.907-1.125.907-.843 0-1.203-.563-1.39-1.422-.031-.125-.031-.157-.14-.157-.126 0-.126.063-.126.235v1.328c0 .172 0 .234.11.234.045.001.062-.015.25-.203.015-.015.015-.031.202-.218.437.406.89.421 1.093.421 1.141 0 1.61-.671 1.61-1.39 0-.516-.297-.828-.422-.938-.328-.328-.719-.406-1.14-.484-.563-.11-1.22-.235-1.22-.813 0-.359.25-.765 1.11-.765 1.094 0 1.156.906 1.172 1.203 0 .094.094.094.11.094.14 0 .14-.047.14-.235v-1.015c0-.157 0-.235-.11-.235-.046 0-.078 0-.203.125a1.676 1.676 0 0 1 -.172.157c-.375-.282-.78-.282-.937-.282-1.219 0-1.594.672-1.594 1.235 0 .343.156.625.422.843.328.25.61.313 1.328.454zm0 0"/></symbol><symbol id="q" overflow="visible"><path d="m1.766-4.406-1.391.11v.312c.64 0 .734.062.734.546v2.688c0 .438-.109.438-.78.438v.312c.312-.016.859-.031 1.093-.031.36 0 .703.015 1.047.031v-.313c-.672 0-.703-.046-.703-.437zm.03-1.735a.514.514 0 0 0 -.515-.53.537.537 0 0 0 -.531.53c0 .266.219.532.531.532a.514.514 0 0 0 .516-.532zm0 0"/></symbol><symbol id="r" overflow="visible"><path d="m1.094-3.422v2.672c0 .438-.11.438-.782.438v.312c.36-.016.86-.031 1.141-.031.25 0 .766.015 1.11.031v-.313c-.672 0-.782 0-.782-.437v-1.844c0-1.031.719-1.594 1.344-1.594.64 0 .75.532.75 1.11v2.328c0 .438-.11.438-.781.438v.312c.344-.016.86-.031 1.125-.031.25 0 .781.015 1.11.031v-.313c-.516 0-.766 0-.766-.296v-1.907c0-.859 0-1.156-.313-1.515-.14-.172-.469-.375-1.047-.375-.734 0-1.203.422-1.484 1.047v-1.047l-1.407.11v.312c.704 0 .782.062.782.562zm0 0"/></symbol><symbol id="s" overflow="visible"><path d="m4.14-3.313c.094-.234.266-.671.923-.671v-.313c-.235.016-.516.031-.75.031-.235 0-.688-.015-.86-.03v.312c.36 0 .469.234.469.421 0 .094-.016.141-.047.25l-1.031 2.533-1.11-2.781c-.062-.126-.062-.141-.062-.172 0-.25.39-.25.578-.25v-.313c-.313.016-.86.031-1.094.031-.265 0-.672-.015-.968-.03v.312c.625 0 .671.062.796.359l1.438 3.546c.062.14.078.187.203.187.14 0 .172-.093.219-.187zm0 0"/></symbol><symbol id="t" overflow="visible"><path d="m1.11-2.516c.061-1.484.905-1.734 1.25-1.734 1.015 0 1.124 1.344 1.124 1.734zm0 .22h2.78c.22 0 .25 0 .25-.22 0-.984-.546-1.953-1.78-1.953-1.158 0-2.08 1.032-2.08 2.282.001 1.327 1.048 2.295 2.19 2.295 1.218.002 1.67-1.108 1.67-1.295 0-.094-.079-.125-.141-.125-.078 0-.11.062-.125.14-.343 1.032-1.249 1.032-1.343 1.032-.5 0-.89-.296-1.125-.671-.297-.47-.297-1.125-.297-1.485zm0 0"/></symbol><symbol id="u" overflow="visible"><path d="m4.688-3.766a.562.562 0 0 0 .03-.171c0-.172-.109-.266-.28-.266-.094 0-.375.062-.407.422-.187-.36-.531-.625-.937-.625-1.125 0-2.36 1.39-2.36 2.828 0 .984.594 1.578 1.313 1.578.594 0 1.062-.469 1.156-.578l.016.015c-.203.876-.329 1.297-.329 1.313-.047.094-.375 1.078-1.438 1.078a2.68 2.68 0 0 1 -.797-.11.542.542 0 0 0 .406-.515c.002-.156-.107-.343-.373-.343a.546.546 0 0 0 -.53.579c0 .406.359.609 1.312.609 1.25 0 1.968-.781 2.125-1.375zm-1.283 2.486c-.062.265-.297.515-.515.703-.204.172-.516.36-.813.36-.5 0-.64-.516-.64-.923 0-.468.28-1.656.562-2.156.266-.484.688-.89 1.11-.89.656 0 .796.812.796.859s-.015.11-.031.14zm0 0"/></symbol><symbol id="v" overflow="visible"><path d="m.875-.594c-.031.156-.094.39-.094.438 0 .172.14.265.297.265a.414.414 0 0 0 .375-.28c0-.016.125-.485.188-.735l.218-.89c.047-.235.11-.454.172-.673.031-.172.11-.469.125-.5.14-.312.672-1.219 1.625-1.219.453 0 .531.375.531.704 0 .25-.062.53-.14.828l-.282 1.156-.204.75c-.03.203-.124.547-.124.594 0 .172.14.265.28.265.313 0 .376-.25.454-.562.14-.563.516-2.016.594-2.406.03-.125.562-1.329 1.656-1.329.422 0 .531.344.531.704 0 .562-.422 1.703-.625 2.234-.078.234-.125.344-.125.547 0 .469.344.812.813.812.937 0 1.312-1.453 1.312-1.53 0-.11-.094-.11-.125-.11-.094 0-.094.031-.14.187-.157.532-.47 1.235-1.016 1.235-.172 0-.25-.094-.25-.329 0-.25.094-.484.187-.703.188-.53.61-1.625.61-2.203 0-.64-.407-1.062-1.157-1.062-.734 0-1.25.437-1.625.968 0-.124-.03-.468-.312-.703-.25-.218-.563-.265-.813-.265-.906 0-1.39.64-1.562.875-.047-.578-.469-.875-.922-.875s-.64.39-.734.562a4.68 4.68 0 0 0 -.297.969c0 .11.094.11.11.11.109 0 .109-.016.171-.235.172-.703.375-1.188.735-1.188.156 0 .296.079.296.454 0 .218-.03.328-.156.843zm0 0"/></symbol><symbol id="w" overflow="visible"><path d="m5.188-1.578c.109 0 .28 0 .28-.156 0-.188-.171-.188-.28-.188h-4.158c-.11 0-.281 0-.281.172s.156.172.281.172zm0 0"/></symbol><clipPath id="x"><path d="m396 0h58.281v54h-58.281zm0 0"/></clipPath><clipPath id="y"><path d="m400 60h54.281v66h-54.281zm0 0"/></clipPath><path d="m20.774 0-20.773 20.776-20.777-20.777 20.776-20.773zm0 0" fill="#ccf" stroke="#000" stroke-miterlimit="10" stroke-width=".79701" transform="matrix(1 0 0 -1 21.589 21.175)"/><use x="13.178" xlink:href="#a" y="22.641"/><g><use x="19.128" xlink:href="#c" y="24.136"/><use x="23.1" xlink:href="#d" y="24.136"/></g><use x="25.355" xlink:href="#f" y="24.136"/><path d="m87.731 0c0 6.484-5.254 11.738-11.738 11.738-6.48 0-11.734-5.254-11.734-11.739 0-6.48 5.254-11.734 11.734-11.734 6.484 0 11.738 5.254 11.738 11.734zm0 0" fill="#fc9" stroke="#000" stroke-miterlimit="10" stroke-width=".79701" transform="matrix(1 0 0 -1 21.589 21.175)"/><use x="93.709" xlink:href="#h" y="23.319"/><path d="m172.766 0-20.776 20.776-20.774-20.777 20.773-20.773zm0 0" fill="#ccf" stroke="#000" stroke-miterlimit="10" stroke-width=".79701" transform="matrix(1 0 0 -1 21.589 21.175)"/><use x="164.858" xlink:href="#b" y="22.641"/><g><use x="171.424" xlink:href="#c" y="24.136"/><use x="175.396" xlink:href="#d" y="24.136"/></g><use x="177.65" xlink:href="#f" y="24.136"/><g stroke="#000" stroke-miterlimit="10"><path d="m21.34 0h41.813" fill="none" stroke-width=".79701" transform="matrix(1 0 0 -1 21.589 21.175)"/><path d="m-1.554 2.073c.13-.777 1.555-1.945 1.942-2.073-.388-.13-1.813-1.294-1.942-2.07" fill="none" stroke-linecap="round" stroke-linejoin="round" stroke-width=".6376" transform="matrix(1 0 0 -1 84.741 21.175)"/><path d="m88.13 0h41.812" fill="none" stroke-width=".79701" transform="matrix(1 0 0 -1 21.589 21.175)"/><path d="m-1.553 2.073c.128-.777 1.553-1.945 1.941-2.073-.387-.13-1.813-1.294-1.941-2.07" fill="none" stroke-linecap="round" stroke-linejoin="round" stroke-width=".6376" transform="matrix(1 0 0 -1 151.53 21.175)"/><path d="m21.192-71.442-21.191 21.191-21.192-21.191 21.192-21.192zm0 0" fill="#b2ffb2" stroke-width=".79701" transform="matrix(1 0 0 -1 21.589 21.175)"/></g><use x="6.756" xlink:href="#a" y="93.666"/><use x="12.706" xlink:href="#f" y="95.161"/><g><use x="16.853" xlink:href="#e" y="95.161"/><use x="22.969" xlink:href="#c" y="95.161"/><use x="26.941" xlink:href="#d" y="95.161"/></g><use x="29.196" xlink:href="#g" y="95.161"/><path d="m89.114-71.442c0 6.75-5.469 12.222-12.219 12.222s-12.222-5.472-12.222-12.222 5.472-12.219 12.222-12.219 12.22 5.469 12.22 12.219zm0 0" fill="#fc9" stroke="#000" stroke-miterlimit="10" stroke-width=".79701" transform="matrix(1 0 0 -1 21.589 21.175)"/><use x="95.928" xlink:href="#u" y="93.791"/><g><use x="71.002" xlink:href="#i" y="125.834"/><use x="74.047" xlink:href="#j" y="125.834"/><use x="79.028" xlink:href="#k" y="125.834"/><use x="82.93" xlink:href="#l" y="125.834"/></g><g><use x="89.846" xlink:href="#m" y="125.834"/><use x="94.828" xlink:href="#k" y="125.834"/><use x="98.73" xlink:href="#n" y="125.834"/></g><g><use x="107.583" xlink:href="#o" y="125.834"/><use x="113.118" xlink:href="#m" y="125.834"/><use x="118.099" xlink:href="#p" y="125.834"/><use x="122.028" xlink:href="#p" y="125.834"/></g><path d="m174.981-71.442-21.191 21.191-21.191-21.191 21.19-21.192zm0 0" fill="#fffa99" stroke="#000" stroke-miterlimit="10" stroke-width=".79701" transform="matrix(1 0 0 -1 21.589 21.175)"/><use x="160.235" xlink:href="#b" y="93.666"/><use x="166.801" xlink:href="#f" y="95.161"/><g><use x="170.948" xlink:href="#e" y="95.161"/><use x="177.064" xlink:href="#c" y="95.161"/><use x="181.036" xlink:href="#d" y="95.161"/></g><use x="183.291" xlink:href="#g" y="95.161"/><path d="m21.759-71.442h41.808" fill="none" stroke="#000" stroke-miterlimit="10" stroke-width=".79701" transform="matrix(1 0 0 -1 21.589 21.175)"/><path d="m-1.555 2.073c.129-.777 1.555-1.945 1.945-2.074-.39-.13-1.816-1.293-1.945-2.07" style="fill:none;stroke-width:.6376;stroke-linecap:round;stroke-linejoin:round;stroke:#000;stroke-miterlimit:10" transform="matrix(1 0 0 -1 85.156 92.616)"/><path d="m89.513-71.442h41.812" fill="none" stroke="#000" stroke-miterlimit="10" stroke-width=".79701" transform="matrix(1 0 0 -1 21.589 21.175)"/><path d="m-1.555 2.073c.13-.777 1.555-1.945 1.942-2.074-.387-.13-1.813-1.293-1.942-2.07" style="fill:none;stroke-width:.6376;stroke-linecap:round;stroke-linejoin:round;stroke:#000;stroke-miterlimit:10" transform="matrix(1 0 0 -1 152.914 92.616)"/><path d="m50.184-35.72c0 6.48-5.253 11.735-11.738 11.735-6.48 0-11.734-5.254-11.734-11.735 0-6.484 5.254-11.738 11.734-11.738 6.485 0 11.738 5.254 11.738 11.738zm0 0" fill="#fc9" stroke="#000" stroke-miterlimit="10" stroke-width=".79701" transform="matrix(1 0 0 -1 21.589 21.175)"/><use x="55.662" xlink:href="#v" y="59.039"/><path d="m11.063-10.278 17.977-16.703" fill="none" stroke="#000" stroke-miterlimit="10" stroke-width=".79701" transform="matrix(1 0 0 -1 21.589 21.175)"/><path d="m-1.556 2.071c.13-.775 1.554-1.941 1.946-2.07-.39-.132-1.814-1.295-1.945-2.073" style="fill:none;stroke-width:.6376;stroke-linecap:round;stroke-linejoin:round;stroke:#000;stroke-miterlimit:10" transform="matrix(.73259 .68063 .68063 -.73259 50.628 48.154)"/><path d="m47.337-43.981 19.793-18.39" fill="none" stroke="#000" stroke-miterlimit="10" stroke-width=".79701" transform="matrix(1 0 0 -1 21.589 21.175)"/><path d="m-1.555 2.073c.13-.776 1.555-1.943 1.942-2.073-.386-.13-1.811-1.293-1.942-2.07" style="fill:none;stroke-width:.6376;stroke-linecap:round;stroke-linejoin:round;stroke:#000;stroke-miterlimit:10" transform="matrix(.73259 .68062 .68062 -.73259 88.72 83.545)"/><path d="m275.895 0-20.773 20.777-20.777-20.778 20.777-20.773zm0 0" fill="#ccf" stroke="#000" stroke-miterlimit="10" stroke-width=".79701" transform="matrix(1 0 0 -1 21.589 21.175)"/><use x="268.296" xlink:href="#a" y="22.641"/><g><use x="274.246" xlink:href="#c" y="24.136"/><use x="278.218" xlink:href="#d" y="24.136"/></g><use x="280.473" xlink:href="#f" y="24.136"/><path d="m342.852 0c0 6.484-5.253 11.738-11.738 11.738-6.48 0-11.734-5.254-11.734-11.739 0-6.48 5.254-11.734 11.734-11.734 6.485 0 11.738 5.254 11.738 11.734zm0 0" fill="#fc9" stroke="#000" stroke-miterlimit="10" stroke-width=".79701" transform="matrix(1 0 0 -1 21.589 21.175)"/><use x="348.827" xlink:href="#h" y="23.319"/><path d="m449.477 21.176-20.778-20.778-20.773 20.778 20.773 20.773zm0 0" fill="#ccf"/><g clip-path="url(#x)"><path d="m427.888 0-20.778 20.776-20.773-20.777 20.773-20.773zm0 0" fill="none" stroke="#000" stroke-miterlimit="10" stroke-width=".79701" transform="matrix(1 0 0 -1 21.589 21.175)"/></g><use x="419.976" xlink:href="#b" y="22.641"/><g><use x="426.542" xlink:href="#c" y="24.136"/><use x="430.514" xlink:href="#d" y="24.136"/></g><use x="432.769" xlink:href="#f" y="24.136"/><path d="m277.173 0h41.808" fill="none" stroke="#000" stroke-miterlimit="10" stroke-width=".79701" transform="matrix(1 0 0 -1 21.589 21.175)"/><path d="m-1.552 2.071c.127-.777 1.55-1.941 1.939-2.07-.39-.13-1.812-1.297-1.94-2.074" style="fill:none;stroke-width:.6376;stroke-linecap:round;stroke-linejoin:round;stroke:#000;stroke-miterlimit:10" transform="matrix(-1 0 0 1 298.76 21.175)"/><path d="m343.958 0h41.812" fill="none" stroke="#000" stroke-miterlimit="10" stroke-width=".79701" transform="matrix(1 0 0 -1 21.589 21.175)"/><path d="m-1.554 2.071c.13-.777 1.555-1.941 1.942-2.07-.388-.131-1.813-1.297-1.942-2.074" style="fill:none;stroke-width:.6376;stroke-linecap:round;stroke-linejoin:round;stroke:#000;stroke-miterlimit:10" transform="matrix(-1 0 0 1 365.548 21.175)"/><path d="m276.313-71.442-21.191 21.191-21.191-21.191 21.19-21.192zm0 0" fill="#b2ffb2" stroke="#000" stroke-miterlimit="10" stroke-width=".79701" transform="matrix(1 0 0 -1 21.589 21.175)"/><use x="261.874" xlink:href="#a" y="93.666"/><use x="267.824" xlink:href="#f" y="95.161"/><g><use x="271.971" xlink:href="#e" y="95.161"/><use x="278.087" xlink:href="#c" y="95.161"/><use x="282.059" xlink:href="#d" y="95.161"/></g><use x="284.314" xlink:href="#g" y="95.161"/><path d="m346.438-71.442c0 7.36-5.964 13.324-13.324 13.324-7.355 0-13.32-5.965-13.32-13.324 0-7.356 5.965-13.32 13.32-13.32 7.36 0 13.324 5.964 13.324 13.32zm0 0" fill="#fc9" stroke="#000" stroke-miterlimit="10" stroke-width=".79701" transform="matrix(1 0 0 -1 21.589 21.175)"/><use x="346.798" xlink:href="#u" y="95.701"/><use x="351.907" xlink:href="#w" y="92.085"/><use x="358.134" xlink:href="#c" y="92.085"/><g><use x="329.005" xlink:href="#q" y="126.669"/><use x="331.773" xlink:href="#r" y="126.669"/></g><use x="337.029" xlink:href="#s" y="126.669"/><g><use x="342.008" xlink:href="#t" y="126.669"/><use x="346.436" xlink:href="#k" y="126.669"/><use x="350.338" xlink:href="#p" y="126.669"/><use x="354.267" xlink:href="#t" y="126.669"/></g><g><use x="362.022" xlink:href="#o" y="126.669"/><use x="367.557" xlink:href="#m" y="126.669"/><use x="372.539" xlink:href="#p" y="126.669"/><use x="376.468" xlink:href="#p" y="126.669"/></g><path d="m453.89 92.617-21.19-21.191-21.192 21.191 21.191 21.192zm0 0" fill="#fffa99"/><g clip-path="url(#y)"><path d="m432.302-71.442-21.192 21.191-21.19-21.191 21.191-21.192zm0 0" fill="none" stroke="#000" stroke-miterlimit="10" stroke-width=".79701" transform="matrix(1 0 0 -1 21.589 21.175)"/></g><use x="417.553" xlink:href="#b" y="93.666"/><use x="424.119" xlink:href="#f" y="95.161"/><g><use x="428.266" xlink:href="#e" y="95.161"/><use x="434.382" xlink:href="#c" y="95.161"/><use x="438.354" xlink:href="#d" y="95.161"/></g><use x="440.609" xlink:href="#g" y="95.161"/><path d="m277.587-71.442h41.808" fill="none" stroke="#000" stroke-miterlimit="10" stroke-width=".79701" transform="matrix(1 0 0 -1 21.589 21.175)"/><path d="m-1.555 2.072c.128-.778 1.554-1.942 1.945-2.07-.39-.131-1.817-1.299-1.945-2.076" style="fill:none;stroke-width:.6376;stroke-linecap:round;stroke-linejoin:round;stroke:#000;stroke-miterlimit:10" transform="matrix(-1 0 0 1 299.175 92.616)"/><path d="m347.544-71.442h41.808" fill="none" stroke="#000" stroke-miterlimit="10" stroke-width=".79701" transform="matrix(1 0 0 -1 21.589 21.175)"/><path d="m-1.556 2.072c.133-.778 1.556-1.942 1.946-2.07-.39-.131-1.813-1.299-1.946-2.076" style="fill:none;stroke-width:.6376;stroke-linecap:round;stroke-linejoin:round;stroke:#000;stroke-miterlimit:10" transform="matrix(-1 0 0 1 369.132 92.616)"/><path d="m381.849-35.72c0 6.48-5.254 11.735-11.735 11.735-6.484 0-11.738-5.254-11.738-11.735 0-6.484 5.254-11.738 11.738-11.738 6.48 0 11.735 5.254 11.735 11.738zm0 0" fill="#fc9" stroke="#000" stroke-miterlimit="10" stroke-width=".79701" transform="matrix(1 0 0 -1 21.589 21.175)"/><use x="387.324" xlink:href="#v" y="59.039"/><path d="m396.255-10.485-16.903-16.317" fill="none" stroke="#000" stroke-miterlimit="10" stroke-width=".79701" transform="matrix(1 0 0 -1 21.589 21.175)"/><path d="m-1.555 2.073c.13-.776 1.555-1.942 1.945-2.073-.39-.13-1.814-1.295-1.944-2.07" style="fill:none;stroke-width:.6376;stroke-linecap:round;stroke-linejoin:round;stroke:#000;stroke-miterlimit:10" transform="matrix(-.7194 .69456 .69456 .7194 400.941 47.975)"/><path d="m361.384-44.15-17.887-17.269" fill="none" stroke="#000" stroke-miterlimit="10" stroke-width=".79701" transform="matrix(1 0 0 -1 21.589 21.175)"/><path d="m-1.553 2.072c.13-.776 1.55-1.942 1.943-2.07-.388-.132-1.815-1.296-1.945-2.077" style="fill:none;stroke-width:.6376;stroke-linecap:round;stroke-linejoin:round;stroke:#000;stroke-miterlimit:10" transform="matrix(-.7194 .69456 .69456 .7194 365.084 82.596)"/></svg>