<svg xmlns="http://www.w3.org/2000/svg" xmlns:xlink="http://www.w3.org/1999/xlink" width="116.281" height="57.677" viewBox="0 0 87.211 43.258"><defs><clipPath id="a"><path d="M12 0h63v43.258H12Zm0 0"/></clipPath><clipPath id="b"><path d="M40 0h7v7h-7Zm0 0"/></clipPath><clipPath id="c"><path d="M46.582 3.176a2.976 2.976 0 1 0-5.952-.002 2.976 2.976 0 0 0 5.952.002Zm0 0"/></clipPath><clipPath id="g"><path d="M19 24.328h2.918V27H19Zm0 0"/></clipPath><clipPath id="h"><path d="M67.414 23.016a3.963 3.963 0 0 0-3.965-3.965 3.966 3.966 0 1 0 0 7.933 3.966 3.966 0 0 0 3.965-3.968Zm-39.684 0a3.966 3.966 0 0 0-3.968-3.965 3.966 3.966 0 1 0 0 7.933 3.97 3.97 0 0 0 3.968-3.968Zm0 0"/></clipPath><clipPath id="i"><path d="M19.926 24.328h4.98V27h-4.98Zm0 0"/></clipPath><clipPath id="j"><path d="M67.414 23.016a3.963 3.963 0 0 0-3.965-3.965 3.966 3.966 0 1 0 0 7.933 3.966 3.966 0 0 0 3.965-3.968Zm-39.684 0a3.966 3.966 0 0 0-3.968-3.965 3.966 3.966 0 1 0 0 7.933 3.97 3.97 0 0 0 3.968-3.968Zm0 0"/></clipPath><clipPath id="k"><path d="M22.914 24.328h4.98V27h-4.98Zm0 0"/></clipPath><clipPath id="l"><path d="M67.414 23.016a3.963 3.963 0 0 0-3.965-3.965 3.966 3.966 0 1 0 0 7.933 3.966 3.966 0 0 0 3.965-3.968Zm-39.684 0a3.966 3.966 0 0 0-3.968-3.965 3.966 3.966 0 1 0 0 7.933 3.97 3.97 0 0 0 3.968-3.968Zm0 0"/></clipPath><clipPath id="m"><path d="M25.902 24.328h4.98V27h-4.98Zm0 0"/></clipPath><clipPath id="n"><path d="M67.414 23.016a3.963 3.963 0 0 0-3.965-3.965 3.966 3.966 0 1 0 0 7.933 3.966 3.966 0 0 0 3.965-3.968Zm-39.684 0a3.966 3.966 0 0 0-3.968-3.965 3.966 3.966 0 1 0 0 7.933 3.97 3.97 0 0 0 3.968-3.968Zm0 0"/></clipPath><clipPath id="o"><path d="M28.89 24.328h4.985V27h-4.984Zm0 0"/></clipPath><clipPath id="p"><path d="M67.414 23.016a3.963 3.963 0 0 0-3.965-3.965 3.966 3.966 0 1 0 0 7.933 3.966 3.966 0 0 0 3.965-3.968Zm-39.684 0a3.966 3.966 0 0 0-3.968-3.965 3.966 3.966 0 1 0 0 7.933 3.97 3.97 0 0 0 3.968-3.968Zm0 0"/></clipPath><clipPath id="q"><path d="M31.879 24.328h4.984V27H31.88Zm0 0"/></clipPath><clipPath id="r"><path d="M67.414 23.016a3.963 3.963 0 0 0-3.965-3.965 3.966 3.966 0 1 0 0 7.933 3.966 3.966 0 0 0 3.965-3.968Zm-39.684 0a3.966 3.966 0 0 0-3.968-3.965 3.966 3.966 0 1 0 0 7.933 3.97 3.97 0 0 0 3.968-3.968Zm0 0"/></clipPath><clipPath id="s"><path d="M34.871 24.328h4.98V27h-4.98Zm0 0"/></clipPath><clipPath id="t"><path d="M67.414 23.016a3.963 3.963 0 0 0-3.965-3.965 3.966 3.966 0 1 0 0 7.933 3.966 3.966 0 0 0 3.965-3.968Zm-39.684 0a3.966 3.966 0 0 0-3.968-3.965 3.966 3.966 0 1 0 0 7.933 3.97 3.97 0 0 0 3.968-3.968Zm0 0"/></clipPath><clipPath id="u"><path d="M37.86 24.328h4.98V27h-4.98Zm0 0"/></clipPath><clipPath id="v"><path d="M67.414 23.016a3.963 3.963 0 0 0-3.965-3.965 3.966 3.966 0 1 0 0 7.933 3.966 3.966 0 0 0 3.965-3.968Zm-39.684 0a3.966 3.966 0 0 0-3.968-3.965 3.966 3.966 0 1 0 0 7.933 3.97 3.97 0 0 0 3.968-3.968Zm0 0"/></clipPath><clipPath id="w"><path d="M40.848 24.328h4.98V27h-4.98Zm0 0"/></clipPath><clipPath id="x"><path d="M67.414 23.016a3.963 3.963 0 0 0-3.965-3.965 3.966 3.966 0 1 0 0 7.933 3.966 3.966 0 0 0 3.965-3.968Zm-39.684 0a3.966 3.966 0 0 0-3.968-3.965 3.966 3.966 0 1 0 0 7.933 3.97 3.97 0 0 0 3.968-3.968Zm0 0"/></clipPath><clipPath id="y"><path d="M43.836 24.328h4.98V27h-4.98Zm0 0"/></clipPath><clipPath id="z"><path d="M67.414 23.016a3.963 3.963 0 0 0-3.965-3.965 3.966 3.966 0 1 0 0 7.933 3.966 3.966 0 0 0 3.965-3.968Zm-39.684 0a3.966 3.966 0 0 0-3.968-3.965 3.966 3.966 0 1 0 0 7.933 3.97 3.97 0 0 0 3.968-3.968Zm0 0"/></clipPath><clipPath id="A"><path d="M46.824 24.328h4.98V27h-4.98Zm0 0"/></clipPath><clipPath id="B"><path d="M67.414 23.016a3.963 3.963 0 0 0-3.965-3.965 3.966 3.966 0 1 0 0 7.933 3.966 3.966 0 0 0 3.965-3.968Zm-39.684 0a3.966 3.966 0 0 0-3.968-3.965 3.966 3.966 0 1 0 0 7.933 3.97 3.97 0 0 0 3.968-3.968Zm0 0"/></clipPath><clipPath id="C"><path d="M49.813 24.328h4.984V27h-4.984Zm0 0"/></clipPath><clipPath id="D"><path d="M67.414 23.016a3.963 3.963 0 0 0-3.965-3.965 3.966 3.966 0 1 0 0 7.933 3.966 3.966 0 0 0 3.965-3.968Zm-39.684 0a3.966 3.966 0 0 0-3.968-3.965 3.966 3.966 0 1 0 0 7.933 3.97 3.97 0 0 0 3.968-3.968Zm0 0"/></clipPath><clipPath id="E"><path d="M52.8 24.328h4.985V27h-4.984Zm0 0"/></clipPath><clipPath id="F"><path d="M67.414 23.016a3.963 3.963 0 0 0-3.965-3.965 3.966 3.966 0 1 0 0 7.933 3.966 3.966 0 0 0 3.965-3.968Zm-39.684 0a3.966 3.966 0 0 0-3.968-3.965 3.966 3.966 0 1 0 0 7.933 3.97 3.97 0 0 0 3.968-3.968Zm0 0"/></clipPath><clipPath id="G"><path d="M55.793 24.328h4.98V27h-4.98Zm0 0"/></clipPath><clipPath id="H"><path d="M67.414 23.016a3.963 3.963 0 0 0-3.965-3.965 3.966 3.966 0 1 0 0 7.933 3.966 3.966 0 0 0 3.965-3.968Zm-39.684 0a3.966 3.966 0 0 0-3.968-3.965 3.966 3.966 0 1 0 0 7.933 3.97 3.97 0 0 0 3.968-3.968Zm0 0"/></clipPath><clipPath id="I"><path d="M58.781 24.328h4.98V27h-4.98Zm0 0"/></clipPath><clipPath id="J"><path d="M67.414 23.016a3.963 3.963 0 0 0-3.965-3.965 3.966 3.966 0 1 0 0 7.933 3.966 3.966 0 0 0 3.965-3.968Zm-39.684 0a3.966 3.966 0 0 0-3.968-3.965 3.966 3.966 0 1 0 0 7.933 3.97 3.97 0 0 0 3.968-3.968Zm0 0"/></clipPath><clipPath id="K"><path d="M61.77 24.328h4.98V27h-4.98Zm0 0"/></clipPath><clipPath id="L"><path d="M67.414 23.016a3.963 3.963 0 0 0-3.965-3.965 3.966 3.966 0 1 0 0 7.933 3.966 3.966 0 0 0 3.965-3.968Zm-39.684 0a3.966 3.966 0 0 0-3.968-3.965 3.966 3.966 0 1 0 0 7.933 3.97 3.97 0 0 0 3.968-3.968Zm0 0"/></clipPath><clipPath id="M"><path d="M64.758 24.328H68V27h-3.242Zm0 0"/></clipPath><clipPath id="N"><path d="M67.414 23.016a3.963 3.963 0 0 0-3.965-3.965 3.966 3.966 0 1 0 0 7.933 3.966 3.966 0 0 0 3.965-3.968Zm-39.684 0a3.966 3.966 0 0 0-3.968-3.965 3.966 3.966 0 1 0 0 7.933 3.97 3.97 0 0 0 3.968-3.968Zm0 0"/></clipPath><clipPath id="O"><path d="M19 21.34h2.918v4.98H19Zm0 0"/></clipPath><clipPath id="P"><path d="M67.414 23.016a3.963 3.963 0 0 0-3.965-3.965 3.966 3.966 0 1 0 0 7.933 3.966 3.966 0 0 0 3.965-3.968Zm-39.684 0a3.966 3.966 0 0 0-3.968-3.965 3.966 3.966 0 1 0 0 7.933 3.97 3.97 0 0 0 3.968-3.968Zm0 0"/></clipPath><clipPath id="Q"><path d="M19.926 21.34h4.98v4.98h-4.98Zm0 0"/></clipPath><clipPath id="R"><path d="M67.414 23.016a3.963 3.963 0 0 0-3.965-3.965 3.966 3.966 0 1 0 0 7.933 3.966 3.966 0 0 0 3.965-3.968Zm-39.684 0a3.966 3.966 0 0 0-3.968-3.965 3.966 3.966 0 1 0 0 7.933 3.97 3.97 0 0 0 3.968-3.968Zm0 0"/></clipPath><clipPath id="S"><path d="M22.914 21.34h4.98v4.98h-4.98Zm0 0"/></clipPath><clipPath id="T"><path d="M67.414 23.016a3.963 3.963 0 0 0-3.965-3.965 3.966 3.966 0 1 0 0 7.933 3.966 3.966 0 0 0 3.965-3.968Zm-39.684 0a3.966 3.966 0 0 0-3.968-3.965 3.966 3.966 0 1 0 0 7.933 3.97 3.97 0 0 0 3.968-3.968Zm0 0"/></clipPath><clipPath id="U"><path d="M25.902 21.34h4.98v4.98h-4.98Zm0 0"/></clipPath><clipPath id="V"><path d="M67.414 23.016a3.963 3.963 0 0 0-3.965-3.965 3.966 3.966 0 1 0 0 7.933 3.966 3.966 0 0 0 3.965-3.968Zm-39.684 0a3.966 3.966 0 0 0-3.968-3.965 3.966 3.966 0 1 0 0 7.933 3.97 3.97 0 0 0 3.968-3.968Zm0 0"/></clipPath><clipPath id="W"><path d="M28.89 21.34h4.985v4.98h-4.984Zm0 0"/></clipPath><clipPath id="X"><path d="M67.414 23.016a3.963 3.963 0 0 0-3.965-3.965 3.966 3.966 0 1 0 0 7.933 3.966 3.966 0 0 0 3.965-3.968Zm-39.684 0a3.966 3.966 0 0 0-3.968-3.965 3.966 3.966 0 1 0 0 7.933 3.97 3.97 0 0 0 3.968-3.968Zm0 0"/></clipPath><clipPath id="Y"><path d="M31.879 21.34h4.984v4.98H31.88Zm0 0"/></clipPath><clipPath id="Z"><path d="M67.414 23.016a3.963 3.963 0 0 0-3.965-3.965 3.966 3.966 0 1 0 0 7.933 3.966 3.966 0 0 0 3.965-3.968Zm-39.684 0a3.966 3.966 0 0 0-3.968-3.965 3.966 3.966 0 1 0 0 7.933 3.97 3.97 0 0 0 3.968-3.968Zm0 0"/></clipPath><clipPath id="aa"><path d="M34.871 21.34h4.98v4.98h-4.98Zm0 0"/></clipPath><clipPath id="ab"><path d="M67.414 23.016a3.963 3.963 0 0 0-3.965-3.965 3.966 3.966 0 1 0 0 7.933 3.966 3.966 0 0 0 3.965-3.968Zm-39.684 0a3.966 3.966 0 0 0-3.968-3.965 3.966 3.966 0 1 0 0 7.933 3.97 3.97 0 0 0 3.968-3.968Zm0 0"/></clipPath><clipPath id="ac"><path d="M37.86 21.34h4.98v4.98h-4.98Zm0 0"/></clipPath><clipPath id="ad"><path d="M67.414 23.016a3.963 3.963 0 0 0-3.965-3.965 3.966 3.966 0 1 0 0 7.933 3.966 3.966 0 0 0 3.965-3.968Zm-39.684 0a3.966 3.966 0 0 0-3.968-3.965 3.966 3.966 0 1 0 0 7.933 3.97 3.97 0 0 0 3.968-3.968Zm0 0"/></clipPath><clipPath id="ae"><path d="M40.848 21.34h4.98v4.98h-4.98Zm0 0"/></clipPath><clipPath id="af"><path d="M67.414 23.016a3.963 3.963 0 0 0-3.965-3.965 3.966 3.966 0 1 0 0 7.933 3.966 3.966 0 0 0 3.965-3.968Zm-39.684 0a3.966 3.966 0 0 0-3.968-3.965 3.966 3.966 0 1 0 0 7.933 3.97 3.97 0 0 0 3.968-3.968Zm0 0"/></clipPath><clipPath id="ag"><path d="M43.836 21.34h4.98v4.98h-4.98Zm0 0"/></clipPath><clipPath id="ah"><path d="M67.414 23.016a3.963 3.963 0 0 0-3.965-3.965 3.966 3.966 0 1 0 0 7.933 3.966 3.966 0 0 0 3.965-3.968Zm-39.684 0a3.966 3.966 0 0 0-3.968-3.965 3.966 3.966 0 1 0 0 7.933 3.97 3.97 0 0 0 3.968-3.968Zm0 0"/></clipPath><clipPath id="ai"><path d="M46.824 21.34h4.98v4.98h-4.98Zm0 0"/></clipPath><clipPath id="aj"><path d="M67.414 23.016a3.963 3.963 0 0 0-3.965-3.965 3.966 3.966 0 1 0 0 7.933 3.966 3.966 0 0 0 3.965-3.968Zm-39.684 0a3.966 3.966 0 0 0-3.968-3.965 3.966 3.966 0 1 0 0 7.933 3.97 3.97 0 0 0 3.968-3.968Zm0 0"/></clipPath><clipPath id="ak"><path d="M49.813 21.34h4.984v4.98h-4.984Zm0 0"/></clipPath><clipPath id="al"><path d="M67.414 23.016a3.963 3.963 0 0 0-3.965-3.965 3.966 3.966 0 1 0 0 7.933 3.966 3.966 0 0 0 3.965-3.968Zm-39.684 0a3.966 3.966 0 0 0-3.968-3.965 3.966 3.966 0 1 0 0 7.933 3.97 3.97 0 0 0 3.968-3.968Zm0 0"/></clipPath><clipPath id="am"><path d="M52.8 21.34h4.985v4.98h-4.984Zm0 0"/></clipPath><clipPath id="an"><path d="M67.414 23.016a3.963 3.963 0 0 0-3.965-3.965 3.966 3.966 0 1 0 0 7.933 3.966 3.966 0 0 0 3.965-3.968Zm-39.684 0a3.966 3.966 0 0 0-3.968-3.965 3.966 3.966 0 1 0 0 7.933 3.97 3.97 0 0 0 3.968-3.968Zm0 0"/></clipPath><clipPath id="ao"><path d="M55.793 21.34h4.98v4.98h-4.98Zm0 0"/></clipPath><clipPath id="ap"><path d="M67.414 23.016a3.963 3.963 0 0 0-3.965-3.965 3.966 3.966 0 1 0 0 7.933 3.966 3.966 0 0 0 3.965-3.968Zm-39.684 0a3.966 3.966 0 0 0-3.968-3.965 3.966 3.966 0 1 0 0 7.933 3.97 3.97 0 0 0 3.968-3.968Zm0 0"/></clipPath><clipPath id="aq"><path d="M58.781 21.34h4.98v4.98h-4.98Zm0 0"/></clipPath><clipPath id="ar"><path d="M67.414 23.016a3.963 3.963 0 0 0-3.965-3.965 3.966 3.966 0 1 0 0 7.933 3.966 3.966 0 0 0 3.965-3.968Zm-39.684 0a3.966 3.966 0 0 0-3.968-3.965 3.966 3.966 0 1 0 0 7.933 3.97 3.97 0 0 0 3.968-3.968Zm0 0"/></clipPath><clipPath id="as"><path d="M61.77 21.34h4.98v4.98h-4.98Zm0 0"/></clipPath><clipPath id="at"><path d="M67.414 23.016a3.963 3.963 0 0 0-3.965-3.965 3.966 3.966 0 1 0 0 7.933 3.966 3.966 0 0 0 3.965-3.968Zm-39.684 0a3.966 3.966 0 0 0-3.968-3.965 3.966 3.966 0 1 0 0 7.933 3.97 3.97 0 0 0 3.968-3.968Zm0 0"/></clipPath><clipPath id="au"><path d="M64.758 21.34H68v4.98h-3.242Zm0 0"/></clipPath><clipPath id="av"><path d="M67.414 23.016a3.963 3.963 0 0 0-3.965-3.965 3.966 3.966 0 1 0 0 7.933 3.966 3.966 0 0 0 3.965-3.968Zm-39.684 0a3.966 3.966 0 0 0-3.968-3.965 3.966 3.966 0 1 0 0 7.933 3.97 3.97 0 0 0 3.968-3.968Zm0 0"/></clipPath><clipPath id="aw"><path d="M19 19h2.918v4.332H19Zm0 0"/></clipPath><clipPath id="ax"><path d="M67.414 23.016a3.963 3.963 0 0 0-3.965-3.965 3.966 3.966 0 1 0 0 7.933 3.966 3.966 0 0 0 3.965-3.968Zm-39.684 0a3.966 3.966 0 0 0-3.968-3.965 3.966 3.966 0 1 0 0 7.933 3.97 3.97 0 0 0 3.968-3.968Zm0 0"/></clipPath><clipPath id="ay"><path d="M19.926 19h4.98v4.332h-4.98Zm0 0"/></clipPath><clipPath id="az"><path d="M67.414 23.016a3.963 3.963 0 0 0-3.965-3.965 3.966 3.966 0 1 0 0 7.933 3.966 3.966 0 0 0 3.965-3.968Zm-39.684 0a3.966 3.966 0 0 0-3.968-3.965 3.966 3.966 0 1 0 0 7.933 3.97 3.97 0 0 0 3.968-3.968Zm0 0"/></clipPath><clipPath id="aA"><path d="M22.914 19h4.98v4.332h-4.98Zm0 0"/></clipPath><clipPath id="aB"><path d="M67.414 23.016a3.963 3.963 0 0 0-3.965-3.965 3.966 3.966 0 1 0 0 7.933 3.966 3.966 0 0 0 3.965-3.968Zm-39.684 0a3.966 3.966 0 0 0-3.968-3.965 3.966 3.966 0 1 0 0 7.933 3.97 3.97 0 0 0 3.968-3.968Zm0 0"/></clipPath><clipPath id="aC"><path d="M25.902 19h4.98v4.332h-4.98Zm0 0"/></clipPath><clipPath id="aD"><path d="M67.414 23.016a3.963 3.963 0 0 0-3.965-3.965 3.966 3.966 0 1 0 0 7.933 3.966 3.966 0 0 0 3.965-3.968Zm-39.684 0a3.966 3.966 0 0 0-3.968-3.965 3.966 3.966 0 1 0 0 7.933 3.97 3.97 0 0 0 3.968-3.968Zm0 0"/></clipPath><clipPath id="aE"><path d="M28.89 19h4.985v4.332h-4.984Zm0 0"/></clipPath><clipPath id="aF"><path d="M67.414 23.016a3.963 3.963 0 0 0-3.965-3.965 3.966 3.966 0 1 0 0 7.933 3.966 3.966 0 0 0 3.965-3.968Zm-39.684 0a3.966 3.966 0 0 0-3.968-3.965 3.966 3.966 0 1 0 0 7.933 3.97 3.97 0 0 0 3.968-3.968Zm0 0"/></clipPath><clipPath id="aG"><path d="M31.879 19h4.984v4.332H31.88Zm0 0"/></clipPath><clipPath id="aH"><path d="M67.414 23.016a3.963 3.963 0 0 0-3.965-3.965 3.966 3.966 0 1 0 0 7.933 3.966 3.966 0 0 0 3.965-3.968Zm-39.684 0a3.966 3.966 0 0 0-3.968-3.965 3.966 3.966 0 1 0 0 7.933 3.97 3.97 0 0 0 3.968-3.968Zm0 0"/></clipPath><clipPath id="aI"><path d="M34.871 19h4.98v4.332h-4.98Zm0 0"/></clipPath><clipPath id="aJ"><path d="M67.414 23.016a3.963 3.963 0 0 0-3.965-3.965 3.966 3.966 0 1 0 0 7.933 3.966 3.966 0 0 0 3.965-3.968Zm-39.684 0a3.966 3.966 0 0 0-3.968-3.965 3.966 3.966 0 1 0 0 7.933 3.97 3.97 0 0 0 3.968-3.968Zm0 0"/></clipPath><clipPath id="aK"><path d="M37.86 19h4.98v4.332h-4.98Zm0 0"/></clipPath><clipPath id="aL"><path d="M67.414 23.016a3.963 3.963 0 0 0-3.965-3.965 3.966 3.966 0 1 0 0 7.933 3.966 3.966 0 0 0 3.965-3.968Zm-39.684 0a3.966 3.966 0 0 0-3.968-3.965 3.966 3.966 0 1 0 0 7.933 3.97 3.97 0 0 0 3.968-3.968Zm0 0"/></clipPath><clipPath id="aM"><path d="M40.848 19h4.98v4.332h-4.98Zm0 0"/></clipPath><clipPath id="aN"><path d="M67.414 23.016a3.963 3.963 0 0 0-3.965-3.965 3.966 3.966 0 1 0 0 7.933 3.966 3.966 0 0 0 3.965-3.968Zm-39.684 0a3.966 3.966 0 0 0-3.968-3.965 3.966 3.966 0 1 0 0 7.933 3.97 3.97 0 0 0 3.968-3.968Zm0 0"/></clipPath><clipPath id="aO"><path d="M43.836 19h4.98v4.332h-4.98Zm0 0"/></clipPath><clipPath id="aP"><path d="M67.414 23.016a3.963 3.963 0 0 0-3.965-3.965 3.966 3.966 0 1 0 0 7.933 3.966 3.966 0 0 0 3.965-3.968Zm-39.684 0a3.966 3.966 0 0 0-3.968-3.965 3.966 3.966 0 1 0 0 7.933 3.97 3.97 0 0 0 3.968-3.968Zm0 0"/></clipPath><clipPath id="aQ"><path d="M46.824 19h4.98v4.332h-4.98Zm0 0"/></clipPath><clipPath id="aR"><path d="M67.414 23.016a3.963 3.963 0 0 0-3.965-3.965 3.966 3.966 0 1 0 0 7.933 3.966 3.966 0 0 0 3.965-3.968Zm-39.684 0a3.966 3.966 0 0 0-3.968-3.965 3.966 3.966 0 1 0 0 7.933 3.97 3.97 0 0 0 3.968-3.968Zm0 0"/></clipPath><clipPath id="aS"><path d="M49.813 19h4.984v4.332h-4.984Zm0 0"/></clipPath><clipPath id="aT"><path d="M67.414 23.016a3.963 3.963 0 0 0-3.965-3.965 3.966 3.966 0 1 0 0 7.933 3.966 3.966 0 0 0 3.965-3.968Zm-39.684 0a3.966 3.966 0 0 0-3.968-3.965 3.966 3.966 0 1 0 0 7.933 3.97 3.97 0 0 0 3.968-3.968Zm0 0"/></clipPath><clipPath id="aU"><path d="M52.8 19h4.985v4.332h-4.984Zm0 0"/></clipPath><clipPath id="aV"><path d="M67.414 23.016a3.963 3.963 0 0 0-3.965-3.965 3.966 3.966 0 1 0 0 7.933 3.966 3.966 0 0 0 3.965-3.968Zm-39.684 0a3.966 3.966 0 0 0-3.968-3.965 3.966 3.966 0 1 0 0 7.933 3.97 3.97 0 0 0 3.968-3.968Zm0 0"/></clipPath><clipPath id="aW"><path d="M55.793 19h4.98v4.332h-4.98Zm0 0"/></clipPath><clipPath id="aX"><path d="M67.414 23.016a3.963 3.963 0 0 0-3.965-3.965 3.966 3.966 0 1 0 0 7.933 3.966 3.966 0 0 0 3.965-3.968Zm-39.684 0a3.966 3.966 0 0 0-3.968-3.965 3.966 3.966 0 1 0 0 7.933 3.97 3.97 0 0 0 3.968-3.968Zm0 0"/></clipPath><clipPath id="aY"><path d="M58.781 19h4.98v4.332h-4.98Zm0 0"/></clipPath><clipPath id="aZ"><path d="M67.414 23.016a3.963 3.963 0 0 0-3.965-3.965 3.966 3.966 0 1 0 0 7.933 3.966 3.966 0 0 0 3.965-3.968Zm-39.684 0a3.966 3.966 0 0 0-3.968-3.965 3.966 3.966 0 1 0 0 7.933 3.97 3.97 0 0 0 3.968-3.968Zm0 0"/></clipPath><clipPath id="ba"><path d="M61.77 19h4.98v4.332h-4.98Zm0 0"/></clipPath><clipPath id="bb"><path d="M67.414 23.016a3.963 3.963 0 0 0-3.965-3.965 3.966 3.966 0 1 0 0 7.933 3.966 3.966 0 0 0 3.965-3.968Zm-39.684 0a3.966 3.966 0 0 0-3.968-3.965 3.966 3.966 0 1 0 0 7.933 3.97 3.97 0 0 0 3.968-3.968Zm0 0"/></clipPath><clipPath id="bc"><path d="M64.758 19H68v4.332h-3.242Zm0 0"/></clipPath><clipPath id="bd"><path d="M67.414 23.016a3.963 3.963 0 0 0-3.965-3.965 3.966 3.966 0 1 0 0 7.933 3.966 3.966 0 0 0 3.965-3.968Zm-39.684 0a3.966 3.966 0 0 0-3.968-3.965 3.966 3.966 0 1 0 0 7.933 3.97 3.97 0 0 0 3.968-3.968Zm0 0"/></clipPath><clipPath id="be"><path d="M19 19h2.918v1.344H19Zm0 0"/></clipPath><clipPath id="bf"><path d="M67.414 23.016a3.963 3.963 0 0 0-3.965-3.965 3.966 3.966 0 1 0 0 7.933 3.966 3.966 0 0 0 3.965-3.968Zm-39.684 0a3.966 3.966 0 0 0-3.968-3.965 3.966 3.966 0 1 0 0 7.933 3.97 3.97 0 0 0 3.968-3.968Zm0 0"/></clipPath><clipPath id="bg"><path d="M19.926 19h4.98v1.344h-4.98Zm0 0"/></clipPath><clipPath id="bh"><path d="M67.414 23.016a3.963 3.963 0 0 0-3.965-3.965 3.966 3.966 0 1 0 0 7.933 3.966 3.966 0 0 0 3.965-3.968Zm-39.684 0a3.966 3.966 0 0 0-3.968-3.965 3.966 3.966 0 1 0 0 7.933 3.97 3.97 0 0 0 3.968-3.968Zm0 0"/></clipPath><clipPath id="bi"><path d="M22.914 19h4.98v1.344h-4.98Zm0 0"/></clipPath><clipPath id="bj"><path d="M67.414 23.016a3.963 3.963 0 0 0-3.965-3.965 3.966 3.966 0 1 0 0 7.933 3.966 3.966 0 0 0 3.965-3.968Zm-39.684 0a3.966 3.966 0 0 0-3.968-3.965 3.966 3.966 0 1 0 0 7.933 3.97 3.97 0 0 0 3.968-3.968Zm0 0"/></clipPath><clipPath id="bk"><path d="M25.902 19h4.98v1.344h-4.98Zm0 0"/></clipPath><clipPath id="bl"><path d="M67.414 23.016a3.963 3.963 0 0 0-3.965-3.965 3.966 3.966 0 1 0 0 7.933 3.966 3.966 0 0 0 3.965-3.968Zm-39.684 0a3.966 3.966 0 0 0-3.968-3.965 3.966 3.966 0 1 0 0 7.933 3.97 3.97 0 0 0 3.968-3.968Zm0 0"/></clipPath><clipPath id="bm"><path d="M28.89 19h4.985v1.344h-4.984Zm0 0"/></clipPath><clipPath id="bn"><path d="M67.414 23.016a3.963 3.963 0 0 0-3.965-3.965 3.966 3.966 0 1 0 0 7.933 3.966 3.966 0 0 0 3.965-3.968Zm-39.684 0a3.966 3.966 0 0 0-3.968-3.965 3.966 3.966 0 1 0 0 7.933 3.97 3.97 0 0 0 3.968-3.968Zm0 0"/></clipPath><clipPath id="bo"><path d="M31.879 19h4.984v1.344H31.88Zm0 0"/></clipPath><clipPath id="bp"><path d="M67.414 23.016a3.963 3.963 0 0 0-3.965-3.965 3.966 3.966 0 1 0 0 7.933 3.966 3.966 0 0 0 3.965-3.968Zm-39.684 0a3.966 3.966 0 0 0-3.968-3.965 3.966 3.966 0 1 0 0 7.933 3.97 3.97 0 0 0 3.968-3.968Zm0 0"/></clipPath><clipPath id="bq"><path d="M34.871 19h4.98v1.344h-4.98Zm0 0"/></clipPath><clipPath id="br"><path d="M67.414 23.016a3.963 3.963 0 0 0-3.965-3.965 3.966 3.966 0 1 0 0 7.933 3.966 3.966 0 0 0 3.965-3.968Zm-39.684 0a3.966 3.966 0 0 0-3.968-3.965 3.966 3.966 0 1 0 0 7.933 3.97 3.97 0 0 0 3.968-3.968Zm0 0"/></clipPath><clipPath id="bs"><path d="M37.86 19h4.98v1.344h-4.98Zm0 0"/></clipPath><clipPath id="bt"><path d="M67.414 23.016a3.963 3.963 0 0 0-3.965-3.965 3.966 3.966 0 1 0 0 7.933 3.966 3.966 0 0 0 3.965-3.968Zm-39.684 0a3.966 3.966 0 0 0-3.968-3.965 3.966 3.966 0 1 0 0 7.933 3.97 3.97 0 0 0 3.968-3.968Zm0 0"/></clipPath><clipPath id="bu"><path d="M40.848 19h4.98v1.344h-4.98Zm0 0"/></clipPath><clipPath id="bv"><path d="M67.414 23.016a3.963 3.963 0 0 0-3.965-3.965 3.966 3.966 0 1 0 0 7.933 3.966 3.966 0 0 0 3.965-3.968Zm-39.684 0a3.966 3.966 0 0 0-3.968-3.965 3.966 3.966 0 1 0 0 7.933 3.97 3.97 0 0 0 3.968-3.968Zm0 0"/></clipPath><clipPath id="bw"><path d="M43.836 19h4.98v1.344h-4.98Zm0 0"/></clipPath><clipPath id="bx"><path d="M67.414 23.016a3.963 3.963 0 0 0-3.965-3.965 3.966 3.966 0 1 0 0 7.933 3.966 3.966 0 0 0 3.965-3.968Zm-39.684 0a3.966 3.966 0 0 0-3.968-3.965 3.966 3.966 0 1 0 0 7.933 3.97 3.97 0 0 0 3.968-3.968Zm0 0"/></clipPath><clipPath id="by"><path d="M46.824 19h4.98v1.344h-4.98Zm0 0"/></clipPath><clipPath id="bz"><path d="M67.414 23.016a3.963 3.963 0 0 0-3.965-3.965 3.966 3.966 0 1 0 0 7.933 3.966 3.966 0 0 0 3.965-3.968Zm-39.684 0a3.966 3.966 0 0 0-3.968-3.965 3.966 3.966 0 1 0 0 7.933 3.97 3.97 0 0 0 3.968-3.968Zm0 0"/></clipPath><clipPath id="bA"><path d="M49.813 19h4.984v1.344h-4.984Zm0 0"/></clipPath><clipPath id="bB"><path d="M67.414 23.016a3.963 3.963 0 0 0-3.965-3.965 3.966 3.966 0 1 0 0 7.933 3.966 3.966 0 0 0 3.965-3.968Zm-39.684 0a3.966 3.966 0 0 0-3.968-3.965 3.966 3.966 0 1 0 0 7.933 3.97 3.97 0 0 0 3.968-3.968Zm0 0"/></clipPath><clipPath id="bC"><path d="M52.8 19h4.985v1.344h-4.984Zm0 0"/></clipPath><clipPath id="bD"><path d="M67.414 23.016a3.963 3.963 0 0 0-3.965-3.965 3.966 3.966 0 1 0 0 7.933 3.966 3.966 0 0 0 3.965-3.968Zm-39.684 0a3.966 3.966 0 0 0-3.968-3.965 3.966 3.966 0 1 0 0 7.933 3.97 3.97 0 0 0 3.968-3.968Zm0 0"/></clipPath><clipPath id="bE"><path d="M55.793 19h4.98v1.344h-4.98Zm0 0"/></clipPath><clipPath id="bF"><path d="M67.414 23.016a3.963 3.963 0 0 0-3.965-3.965 3.966 3.966 0 1 0 0 7.933 3.966 3.966 0 0 0 3.965-3.968Zm-39.684 0a3.966 3.966 0 0 0-3.968-3.965 3.966 3.966 0 1 0 0 7.933 3.97 3.97 0 0 0 3.968-3.968Zm0 0"/></clipPath><clipPath id="bG"><path d="M58.781 19h4.98v1.344h-4.98Zm0 0"/></clipPath><clipPath id="bH"><path d="M67.414 23.016a3.963 3.963 0 0 0-3.965-3.965 3.966 3.966 0 1 0 0 7.933 3.966 3.966 0 0 0 3.965-3.968Zm-39.684 0a3.966 3.966 0 0 0-3.968-3.965 3.966 3.966 0 1 0 0 7.933 3.97 3.97 0 0 0 3.968-3.968Zm0 0"/></clipPath><clipPath id="bI"><path d="M61.77 19h4.98v1.344h-4.98Zm0 0"/></clipPath><clipPath id="bJ"><path d="M67.414 23.016a3.963 3.963 0 0 0-3.965-3.965 3.966 3.966 0 1 0 0 7.933 3.966 3.966 0 0 0 3.965-3.968Zm-39.684 0a3.966 3.966 0 0 0-3.968-3.965 3.966 3.966 0 1 0 0 7.933 3.97 3.97 0 0 0 3.968-3.968Zm0 0"/></clipPath><clipPath id="bK"><path d="M64.758 19H68v1.344h-3.242Zm0 0"/></clipPath><clipPath id="bL"><path d="M67.414 23.016a3.963 3.963 0 0 0-3.965-3.965 3.966 3.966 0 1 0 0 7.933 3.966 3.966 0 0 0 3.965-3.968Zm-39.684 0a3.966 3.966 0 0 0-3.968-3.965 3.966 3.966 0 1 0 0 7.933 3.97 3.97 0 0 0 3.968-3.968Zm0 0"/></clipPath><symbol overflow="visible" id="d"><path style="stroke:none" d="M4.61-3.375C4.515-4 4.11-4.563 3.327-4.563c-.61 0-1.25.172-2.031.938a2.953 2.953 0 0 0-.89 2.063c0 .625.437 1.78 1.827 1.78 2.375 0 3.407-3.343 3.407-4.78 0-1.579-.922-2.579-2.157-2.579-1.437 0-1.906 1.297-1.906 1.579 0 .14.094.343.39.343a.544.544 0 0 0 .532-.515c0-.36-.313-.36-.469-.36.438-.734 1.156-.797 1.438-.797.734 0 1.422.516 1.422 1.813 0 .39-.063.89-.266 1.703ZM2.265-.062c-1.094 0-1.094-1.032-1.094-1.125 0-.266.25-1.657.656-2.266.39-.563.89-.89 1.5-.89 1.094 0 1.11 1.124 1.11 1.327 0 .72-.641 2.954-2.172 2.954Zm0 0"/></symbol><symbol overflow="visible" id="f"><path style="stroke:none" d="M3.734-6.125c.063-.234.094-.328.282-.36.093-.015.406-.015.609-.015.703 0 1.813 0 1.813.984 0 .344-.157 1.032-.547 1.422-.266.25-.782.578-1.688.578h-1.11Zm1.438 2.734c1.016-.218 2.187-.921 2.187-1.921 0-.86-.89-1.5-2.203-1.5H2.328c-.203 0-.297 0-.297.203 0 .109.094.109.281.109.016 0 .204 0 .376.016.187.03.265.03.265.171 0 .032 0 .063-.031.188L1.578-.781c-.094.39-.11.469-.906.469-.172 0-.266 0-.266.203C.406 0 .531 0 .546 0c.282 0 .985-.031 1.25-.031.282 0 1 .031 1.282.031.078 0 .188 0 .188-.203 0-.11-.079-.11-.282-.11-.359 0-.64 0-.64-.171 0-.063.015-.11.031-.172l.656-2.64H4.22c.906 0 1.078.562 1.078.905 0 .141-.078.454-.14.688-.063.281-.157.64-.157.844C5 .219 6.203.219 6.328.219c.844 0 1.203-1 1.203-1.14 0-.126-.11-.126-.125-.126-.093 0-.11.063-.125.14-.25.735-.687.907-.906.907-.328 0-.406-.219-.406-.61 0-.312.062-.812.11-1.14a4.9 4.9 0 0 0 .03-.469c0-.765-.671-1.078-.937-1.172Zm0 0"/></symbol><symbol overflow="visible" id="e"><path style="stroke:none" d="M2.188-4.625c0-.016.015-.11.015-.11 0-.046-.015-.109-.11-.109-.14 0-.718.063-.89.078-.047 0-.156.016-.156.157 0 .093.11.093.187.093.329 0 .329.063.329.11s-.016.093-.016.156L.563-.312c-.047.124-.047.14-.047.156 0 .11.093.218.25.218.187 0 .265-.124.312-.28.016-.032.313-1.266.344-1.36.5.047.89.219.89.578 0 .031 0 .063-.015.14-.031.094-.031.141-.031.22 0 .484.406.703.75.703.671 0 .875-1.047.875-1.063 0-.094-.079-.094-.11-.094-.094 0-.11.047-.14.172-.079.297-.266.797-.61.797-.187 0-.25-.172-.25-.36 0-.124 0-.14.047-.312a.724.724 0 0 0 .031-.219c0-.625-.828-.718-1.125-.734.204-.125.454-.36.579-.469.359-.328.703-.656 1.093-.656.078 0 .172.016.235.094a.396.396 0 0 0-.36.39c0 .141.11.25.266.25.203 0 .406-.156.406-.437a.5.5 0 0 0-.531-.5c-.406 0-.766.297-1.125.625-.297.265-.516.484-.813.61Zm0 0"/></symbol><symbol overflow="visible" id="bM"><path style="stroke:none" d="M5.516-6.781H.328v.312h.234c.766 0 .797.11.797.469v5.219c0 .36-.03.469-.796.469H.328V0c.344-.031 1.125-.031 1.516-.031.406 0 1.312 0 1.672.031v-.313h-.329c-.937 0-.937-.124-.937-.468v-5.297c0-.328.016-.39.484-.39h1.032c1.421 0 1.625.593 1.78 1.937h.25Zm0 0"/></symbol><symbol overflow="visible" id="bN"><path style="stroke:none" d="M2.469-5.219C1.156-4.297.797-2.812.797-1.75c0 .984.297 2.516 1.672 3.484.062 0 .14 0 .14-.078 0-.047-.015-.062-.062-.11C1.609.704 1.28-.468 1.28-1.733c0-1.891.719-2.813 1.282-3.329.03-.03.046-.046.046-.078 0-.078-.078-.078-.14-.078Zm0 0"/></symbol><symbol overflow="visible" id="bO"><path style="stroke:none" d="M1.906-2.328c.547 0 .938.375.938 1.125 0 .86-.516 1.125-.906 1.125-.282 0-.907-.078-1.188-.5.328 0 .406-.235.406-.39 0-.22-.172-.376-.39-.376a.38.38 0 0 0-.391.407C.375-.281 1.094.14 1.938.14c.968 0 1.64-.657 1.64-1.344 0-.547-.437-1.094-1.203-1.25.719-.266.984-.781.984-1.219 0-.547-.625-.953-1.406-.953-.766 0-1.36.375-1.36.938 0 .234.157.359.36.359.219 0 .36-.156.36-.344 0-.203-.141-.36-.36-.375.25-.297.719-.375.985-.375.312 0 .75.156.75.75 0 .297-.094.625-.282.828-.219.266-.422.281-.765.313-.172.015-.188.015-.22.015-.015 0-.077.016-.077.094 0 .094.062.094.187.094Zm0 0"/></symbol><symbol overflow="visible" id="bP"><path style="stroke:none" d="M.625-5.219c-.047 0-.125 0-.125.078 0 .032.016.047.063.11.593.547 1.265 1.484 1.265 3.281 0 1.453-.453 2.563-1.203 3.234C.5 1.61.5 1.61.5 1.656c0 .032.016.078.078.078.094 0 .75-.453 1.219-1.328.297-.578.5-1.328.5-2.14C2.297-2.72 2-4.25.625-5.22Zm0 0"/></symbol></defs><g clip-path="url(#a)"><path style="fill:none;stroke-width:.79701;stroke-linecap:butt;stroke-linejoin:miter;stroke:#000;stroke-opacity:1;stroke-miterlimit:10" d="M19.844.001c0 10.957-8.887 19.84-19.844 19.84-10.96 0-19.843-8.883-19.843-19.84 0-10.96 8.883-19.843 19.843-19.843 10.957 0 19.844 8.882 19.844 19.843Zm0 0" transform="matrix(1 0 0 -1 43.605 23.017)"/></g><path style="fill:none;stroke-width:.3985;stroke-linecap:butt;stroke-linejoin:miter;stroke:#000;stroke-opacity:1;stroke-miterlimit:10" d="M-39.687.001h19.844m39.687 0h19.84" transform="matrix(1 0 0 -1 43.605 23.017)"/><path style="stroke:none;fill-rule:nonzero;fill:#fff;fill-opacity:1" d="M46.582 3.176a2.976 2.976 0 1 0-5.952-.002 2.976 2.976 0 0 0 5.952.002Zm0 0"/><g clip-path="url(#b)"><g clip-path="url(#c)"><path style="fill:none;stroke-width:.3985;stroke-linecap:butt;stroke-linejoin:miter;stroke:#000;stroke-opacity:1;stroke-miterlimit:10" d="m2.977 16.869-5.953 5.949m0-5.95 5.953 5.95" transform="matrix(1 0 0 -1 43.605 23.017)"/></g></g><path style="fill:none;stroke-width:.3985;stroke-linecap:butt;stroke-linejoin:miter;stroke:#000;stroke-opacity:1;stroke-miterlimit:10" d="M2.977 19.841a2.976 2.976 0 1 1-5.952.002 2.976 2.976 0 0 1 5.952-.002Zm0 0" transform="matrix(1 0 0 -1 43.605 23.017)"/><use xlink:href="#d" x="32.277" y="15.008" style="fill:#000;fill-opacity:1"/><use xlink:href="#e" x="37.566" y="16.502" style="fill:#000;fill-opacity:1"/><use xlink:href="#f" x="42.468" y="15.008" style="fill:#000;fill-opacity:1"/><use xlink:href="#e" x="50.032" y="16.502" style="fill:#000;fill-opacity:1"/><path style="fill-rule:nonzero;fill:#fff;fill-opacity:1;stroke-width:.3985;stroke-linecap:butt;stroke-linejoin:miter;stroke:#000;stroke-opacity:1;stroke-miterlimit:10" d="M23.81.001a3.963 3.963 0 0 1-3.966 3.965 3.966 3.966 0 1 1 0-7.933A3.966 3.966 0 0 1 23.81 0Zm-39.685 0a3.966 3.966 0 0 1-3.968 3.965 3.966 3.966 0 1 1 0-7.933A3.97 3.97 0 0 1-15.875 0Zm0 0" transform="matrix(1 0 0 -1 43.605 23.017)"/><g clip-path="url(#g)"><g clip-path="url(#h)"><path style="fill:none;stroke-width:.3985;stroke-linecap:butt;stroke-linejoin:miter;stroke:#000;stroke-opacity:1;stroke-miterlimit:10" d="m0 .001 3.087 3.086" transform="matrix(1 0 0 -1 17.933 28.314)"/></g></g><g clip-path="url(#i)"><g clip-path="url(#j)"><path style="fill:none;stroke-width:.3985;stroke-linecap:butt;stroke-linejoin:miter;stroke:#000;stroke-opacity:1;stroke-miterlimit:10" d="m0 .001 3.09 3.086" transform="matrix(1 0 0 -1 20.922 28.314)"/></g></g><g clip-path="url(#k)"><g clip-path="url(#l)"><path style="fill:none;stroke-width:.3985;stroke-linecap:butt;stroke-linejoin:miter;stroke:#000;stroke-opacity:1;stroke-miterlimit:10" d="m0 .001 3.09 3.086" transform="matrix(1 0 0 -1 23.91 28.314)"/></g></g><g clip-path="url(#m)"><g clip-path="url(#n)"><path style="fill:none;stroke-width:.3985;stroke-linecap:butt;stroke-linejoin:miter;stroke:#000;stroke-opacity:1;stroke-miterlimit:10" d="m-.001.001 3.09 3.086" transform="matrix(1 0 0 -1 26.9 28.314)"/></g></g><g clip-path="url(#o)"><g clip-path="url(#p)"><path style="fill:none;stroke-width:.3985;stroke-linecap:butt;stroke-linejoin:miter;stroke:#000;stroke-opacity:1;stroke-miterlimit:10" d="m-.002.001 3.09 3.086" transform="matrix(1 0 0 -1 29.888 28.314)"/></g></g><g clip-path="url(#q)"><g clip-path="url(#r)"><path style="fill:none;stroke-width:.3985;stroke-linecap:butt;stroke-linejoin:miter;stroke:#000;stroke-opacity:1;stroke-miterlimit:10" d="m.002.001 3.086 3.086" transform="matrix(1 0 0 -1 32.877 28.314)"/></g></g><g clip-path="url(#s)"><g clip-path="url(#t)"><path style="fill:none;stroke-width:.3985;stroke-linecap:butt;stroke-linejoin:miter;stroke:#000;stroke-opacity:1;stroke-miterlimit:10" d="m.001.001 3.086 3.086" transform="matrix(1 0 0 -1 35.866 28.314)"/></g></g><g clip-path="url(#u)"><g clip-path="url(#v)"><path style="fill:none;stroke-width:.3985;stroke-linecap:butt;stroke-linejoin:miter;stroke:#000;stroke-opacity:1;stroke-miterlimit:10" d="m0 .001 3.087 3.086" transform="matrix(1 0 0 -1 38.855 28.314)"/></g></g><g clip-path="url(#w)"><g clip-path="url(#x)"><path style="fill:none;stroke-width:.3985;stroke-linecap:butt;stroke-linejoin:miter;stroke:#000;stroke-opacity:1;stroke-miterlimit:10" d="m0 .001 3.09 3.086" transform="matrix(1 0 0 -1 41.844 28.314)"/></g></g><g clip-path="url(#y)"><g clip-path="url(#z)"><path style="fill:none;stroke-width:.3985;stroke-linecap:butt;stroke-linejoin:miter;stroke:#000;stroke-opacity:1;stroke-miterlimit:10" d="m0 .001 3.09 3.086" transform="matrix(1 0 0 -1 44.832 28.314)"/></g></g><g clip-path="url(#A)"><g clip-path="url(#B)"><path style="fill:none;stroke-width:.3985;stroke-linecap:butt;stroke-linejoin:miter;stroke:#000;stroke-opacity:1;stroke-miterlimit:10" d="m-.001.001 3.09 3.086" transform="matrix(1 0 0 -1 47.821 28.314)"/></g></g><g clip-path="url(#C)"><g clip-path="url(#D)"><path style="fill:none;stroke-width:.3985;stroke-linecap:butt;stroke-linejoin:miter;stroke:#000;stroke-opacity:1;stroke-miterlimit:10" d="m-.002.001 3.09 3.086" transform="matrix(1 0 0 -1 50.81 28.314)"/></g></g><g clip-path="url(#E)"><g clip-path="url(#F)"><path style="fill:none;stroke-width:.3985;stroke-linecap:butt;stroke-linejoin:miter;stroke:#000;stroke-opacity:1;stroke-miterlimit:10" d="m.002.001 3.086 3.086" transform="matrix(1 0 0 -1 53.799 28.314)"/></g></g><g clip-path="url(#G)"><g clip-path="url(#H)"><path style="fill:none;stroke-width:.3985;stroke-linecap:butt;stroke-linejoin:miter;stroke:#000;stroke-opacity:1;stroke-miterlimit:10" d="m.001.001 3.086 3.086" transform="matrix(1 0 0 -1 56.788 28.314)"/></g></g><g clip-path="url(#I)"><g clip-path="url(#J)"><path style="fill:none;stroke-width:.3985;stroke-linecap:butt;stroke-linejoin:miter;stroke:#000;stroke-opacity:1;stroke-miterlimit:10" d="m0 .001 3.087 3.086" transform="matrix(1 0 0 -1 59.777 28.314)"/></g></g><g clip-path="url(#K)"><g clip-path="url(#L)"><path style="fill:none;stroke-width:.3985;stroke-linecap:butt;stroke-linejoin:miter;stroke:#000;stroke-opacity:1;stroke-miterlimit:10" d="m0 .001 3.09 3.086" transform="matrix(1 0 0 -1 62.765 28.314)"/></g></g><g clip-path="url(#M)"><g clip-path="url(#N)"><path style="fill:none;stroke-width:.3985;stroke-linecap:butt;stroke-linejoin:miter;stroke:#000;stroke-opacity:1;stroke-miterlimit:10" d="m0 .001 3.09 3.086" transform="matrix(1 0 0 -1 65.754 28.314)"/></g></g><g clip-path="url(#O)"><g clip-path="url(#P)"><path style="fill:none;stroke-width:.3985;stroke-linecap:butt;stroke-linejoin:miter;stroke:#000;stroke-opacity:1;stroke-miterlimit:10" d="m0 0 3.087 3.087" transform="matrix(1 0 0 -1 17.933 25.325)"/></g></g><g clip-path="url(#Q)"><g clip-path="url(#R)"><path style="fill:none;stroke-width:.3985;stroke-linecap:butt;stroke-linejoin:miter;stroke:#000;stroke-opacity:1;stroke-miterlimit:10" d="m0 0 3.09 3.087" transform="matrix(1 0 0 -1 20.922 25.325)"/></g></g><g clip-path="url(#S)"><g clip-path="url(#T)"><path style="fill:none;stroke-width:.3985;stroke-linecap:butt;stroke-linejoin:miter;stroke:#000;stroke-opacity:1;stroke-miterlimit:10" d="m0 0 3.09 3.087" transform="matrix(1 0 0 -1 23.91 25.325)"/></g></g><g clip-path="url(#U)"><g clip-path="url(#V)"><path style="fill:none;stroke-width:.3985;stroke-linecap:butt;stroke-linejoin:miter;stroke:#000;stroke-opacity:1;stroke-miterlimit:10" d="m-.001 0 3.09 3.087" transform="matrix(1 0 0 -1 26.9 25.325)"/></g></g><g clip-path="url(#W)"><g clip-path="url(#X)"><path style="fill:none;stroke-width:.3985;stroke-linecap:butt;stroke-linejoin:miter;stroke:#000;stroke-opacity:1;stroke-miterlimit:10" d="m-.002 0 3.09 3.087" transform="matrix(1 0 0 -1 29.888 25.325)"/></g></g><g clip-path="url(#Y)"><g clip-path="url(#Z)"><path style="fill:none;stroke-width:.3985;stroke-linecap:butt;stroke-linejoin:miter;stroke:#000;stroke-opacity:1;stroke-miterlimit:10" d="m.002 0 3.086 3.087" transform="matrix(1 0 0 -1 32.877 25.325)"/></g></g><g clip-path="url(#aa)"><g clip-path="url(#ab)"><path style="fill:none;stroke-width:.3985;stroke-linecap:butt;stroke-linejoin:miter;stroke:#000;stroke-opacity:1;stroke-miterlimit:10" d="m.001 0 3.086 3.087" transform="matrix(1 0 0 -1 35.866 25.325)"/></g></g><g clip-path="url(#ac)"><g clip-path="url(#ad)"><path style="fill:none;stroke-width:.3985;stroke-linecap:butt;stroke-linejoin:miter;stroke:#000;stroke-opacity:1;stroke-miterlimit:10" d="m0 0 3.087 3.087" transform="matrix(1 0 0 -1 38.855 25.325)"/></g></g><g clip-path="url(#ae)"><g clip-path="url(#af)"><path style="fill:none;stroke-width:.3985;stroke-linecap:butt;stroke-linejoin:miter;stroke:#000;stroke-opacity:1;stroke-miterlimit:10" d="m0 0 3.09 3.087" transform="matrix(1 0 0 -1 41.844 25.325)"/></g></g><g clip-path="url(#ag)"><g clip-path="url(#ah)"><path style="fill:none;stroke-width:.3985;stroke-linecap:butt;stroke-linejoin:miter;stroke:#000;stroke-opacity:1;stroke-miterlimit:10" d="m0 0 3.09 3.087" transform="matrix(1 0 0 -1 44.832 25.325)"/></g></g><g clip-path="url(#ai)"><g clip-path="url(#aj)"><path style="fill:none;stroke-width:.3985;stroke-linecap:butt;stroke-linejoin:miter;stroke:#000;stroke-opacity:1;stroke-miterlimit:10" d="m-.001 0 3.09 3.087" transform="matrix(1 0 0 -1 47.821 25.325)"/></g></g><g clip-path="url(#ak)"><g clip-path="url(#al)"><path style="fill:none;stroke-width:.3985;stroke-linecap:butt;stroke-linejoin:miter;stroke:#000;stroke-opacity:1;stroke-miterlimit:10" d="m-.002 0 3.09 3.087" transform="matrix(1 0 0 -1 50.81 25.325)"/></g></g><g clip-path="url(#am)"><g clip-path="url(#an)"><path style="fill:none;stroke-width:.3985;stroke-linecap:butt;stroke-linejoin:miter;stroke:#000;stroke-opacity:1;stroke-miterlimit:10" d="m.002 0 3.086 3.087" transform="matrix(1 0 0 -1 53.799 25.325)"/></g></g><g clip-path="url(#ao)"><g clip-path="url(#ap)"><path style="fill:none;stroke-width:.3985;stroke-linecap:butt;stroke-linejoin:miter;stroke:#000;stroke-opacity:1;stroke-miterlimit:10" d="m.001 0 3.086 3.087" transform="matrix(1 0 0 -1 56.788 25.325)"/></g></g><g clip-path="url(#aq)"><g clip-path="url(#ar)"><path style="fill:none;stroke-width:.3985;stroke-linecap:butt;stroke-linejoin:miter;stroke:#000;stroke-opacity:1;stroke-miterlimit:10" d="m0 0 3.087 3.087" transform="matrix(1 0 0 -1 59.777 25.325)"/></g></g><g clip-path="url(#as)"><g clip-path="url(#at)"><path style="fill:none;stroke-width:.3985;stroke-linecap:butt;stroke-linejoin:miter;stroke:#000;stroke-opacity:1;stroke-miterlimit:10" d="m0 0 3.09 3.087" transform="matrix(1 0 0 -1 62.765 25.325)"/></g></g><g clip-path="url(#au)"><g clip-path="url(#av)"><path style="fill:none;stroke-width:.3985;stroke-linecap:butt;stroke-linejoin:miter;stroke:#000;stroke-opacity:1;stroke-miterlimit:10" d="m0 0 3.09 3.087" transform="matrix(1 0 0 -1 65.754 25.325)"/></g></g><g clip-path="url(#aw)"><g clip-path="url(#ax)"><path style="fill:none;stroke-width:.3985;stroke-linecap:butt;stroke-linejoin:miter;stroke:#000;stroke-opacity:1;stroke-miterlimit:10" d="m0 0 3.087 3.09" transform="matrix(1 0 0 -1 17.933 22.336)"/></g></g><g clip-path="url(#ay)"><g clip-path="url(#az)"><path style="fill:none;stroke-width:.3985;stroke-linecap:butt;stroke-linejoin:miter;stroke:#000;stroke-opacity:1;stroke-miterlimit:10" d="m0 0 3.09 3.09" transform="matrix(1 0 0 -1 20.922 22.336)"/></g></g><g clip-path="url(#aA)"><g clip-path="url(#aB)"><path style="fill:none;stroke-width:.3985;stroke-linecap:butt;stroke-linejoin:miter;stroke:#000;stroke-opacity:1;stroke-miterlimit:10" d="m0 0 3.09 3.09" transform="matrix(1 0 0 -1 23.91 22.336)"/></g></g><g clip-path="url(#aC)"><g clip-path="url(#aD)"><path style="fill:none;stroke-width:.3985;stroke-linecap:butt;stroke-linejoin:miter;stroke:#000;stroke-opacity:1;stroke-miterlimit:10" d="m-.001 0 3.09 3.09" transform="matrix(1 0 0 -1 26.9 22.336)"/></g></g><g clip-path="url(#aE)"><g clip-path="url(#aF)"><path style="fill:none;stroke-width:.3985;stroke-linecap:butt;stroke-linejoin:miter;stroke:#000;stroke-opacity:1;stroke-miterlimit:10" d="m-.002 0 3.09 3.09" transform="matrix(1 0 0 -1 29.888 22.336)"/></g></g><g clip-path="url(#aG)"><g clip-path="url(#aH)"><path style="fill:none;stroke-width:.3985;stroke-linecap:butt;stroke-linejoin:miter;stroke:#000;stroke-opacity:1;stroke-miterlimit:10" d="m.002 0 3.086 3.09" transform="matrix(1 0 0 -1 32.877 22.336)"/></g></g><g clip-path="url(#aI)"><g clip-path="url(#aJ)"><path style="fill:none;stroke-width:.3985;stroke-linecap:butt;stroke-linejoin:miter;stroke:#000;stroke-opacity:1;stroke-miterlimit:10" d="m.001 0 3.086 3.09" transform="matrix(1 0 0 -1 35.866 22.336)"/></g></g><g clip-path="url(#aK)"><g clip-path="url(#aL)"><path style="fill:none;stroke-width:.3985;stroke-linecap:butt;stroke-linejoin:miter;stroke:#000;stroke-opacity:1;stroke-miterlimit:10" d="m0 0 3.087 3.09" transform="matrix(1 0 0 -1 38.855 22.336)"/></g></g><g clip-path="url(#aM)"><g clip-path="url(#aN)"><path style="fill:none;stroke-width:.3985;stroke-linecap:butt;stroke-linejoin:miter;stroke:#000;stroke-opacity:1;stroke-miterlimit:10" d="m0 0 3.09 3.09" transform="matrix(1 0 0 -1 41.844 22.336)"/></g></g><g clip-path="url(#aO)"><g clip-path="url(#aP)"><path style="fill:none;stroke-width:.3985;stroke-linecap:butt;stroke-linejoin:miter;stroke:#000;stroke-opacity:1;stroke-miterlimit:10" d="m0 0 3.09 3.09" transform="matrix(1 0 0 -1 44.832 22.336)"/></g></g><g clip-path="url(#aQ)"><g clip-path="url(#aR)"><path style="fill:none;stroke-width:.3985;stroke-linecap:butt;stroke-linejoin:miter;stroke:#000;stroke-opacity:1;stroke-miterlimit:10" d="m-.001 0 3.09 3.09" transform="matrix(1 0 0 -1 47.821 22.336)"/></g></g><g clip-path="url(#aS)"><g clip-path="url(#aT)"><path style="fill:none;stroke-width:.3985;stroke-linecap:butt;stroke-linejoin:miter;stroke:#000;stroke-opacity:1;stroke-miterlimit:10" d="m-.002 0 3.09 3.09" transform="matrix(1 0 0 -1 50.81 22.336)"/></g></g><g clip-path="url(#aU)"><g clip-path="url(#aV)"><path style="fill:none;stroke-width:.3985;stroke-linecap:butt;stroke-linejoin:miter;stroke:#000;stroke-opacity:1;stroke-miterlimit:10" d="m.002 0 3.086 3.09" transform="matrix(1 0 0 -1 53.799 22.336)"/></g></g><g clip-path="url(#aW)"><g clip-path="url(#aX)"><path style="fill:none;stroke-width:.3985;stroke-linecap:butt;stroke-linejoin:miter;stroke:#000;stroke-opacity:1;stroke-miterlimit:10" d="m.001 0 3.086 3.09" transform="matrix(1 0 0 -1 56.788 22.336)"/></g></g><g clip-path="url(#aY)"><g clip-path="url(#aZ)"><path style="fill:none;stroke-width:.3985;stroke-linecap:butt;stroke-linejoin:miter;stroke:#000;stroke-opacity:1;stroke-miterlimit:10" d="m0 0 3.087 3.09" transform="matrix(1 0 0 -1 59.777 22.336)"/></g></g><g clip-path="url(#ba)"><g clip-path="url(#bb)"><path style="fill:none;stroke-width:.3985;stroke-linecap:butt;stroke-linejoin:miter;stroke:#000;stroke-opacity:1;stroke-miterlimit:10" d="m0 0 3.09 3.09" transform="matrix(1 0 0 -1 62.765 22.336)"/></g></g><g clip-path="url(#bc)"><g clip-path="url(#bd)"><path style="fill:none;stroke-width:.3985;stroke-linecap:butt;stroke-linejoin:miter;stroke:#000;stroke-opacity:1;stroke-miterlimit:10" d="m0 0 3.09 3.09" transform="matrix(1 0 0 -1 65.754 22.336)"/></g></g><g clip-path="url(#be)"><g clip-path="url(#bf)"><path style="fill:none;stroke-width:.3985;stroke-linecap:butt;stroke-linejoin:miter;stroke:#000;stroke-opacity:1;stroke-miterlimit:10" d="m0 0 3.087 3.09" transform="matrix(1 0 0 -1 17.933 19.347)"/></g></g><g clip-path="url(#bg)"><g clip-path="url(#bh)"><path style="fill:none;stroke-width:.3985;stroke-linecap:butt;stroke-linejoin:miter;stroke:#000;stroke-opacity:1;stroke-miterlimit:10" d="m0 0 3.09 3.09" transform="matrix(1 0 0 -1 20.922 19.347)"/></g></g><g clip-path="url(#bi)"><g clip-path="url(#bj)"><path style="fill:none;stroke-width:.3985;stroke-linecap:butt;stroke-linejoin:miter;stroke:#000;stroke-opacity:1;stroke-miterlimit:10" d="m0 0 3.09 3.09" transform="matrix(1 0 0 -1 23.91 19.347)"/></g></g><g clip-path="url(#bk)"><g clip-path="url(#bl)"><path style="fill:none;stroke-width:.3985;stroke-linecap:butt;stroke-linejoin:miter;stroke:#000;stroke-opacity:1;stroke-miterlimit:10" d="m-.001 0 3.09 3.09" transform="matrix(1 0 0 -1 26.9 19.347)"/></g></g><g clip-path="url(#bm)"><g clip-path="url(#bn)"><path style="fill:none;stroke-width:.3985;stroke-linecap:butt;stroke-linejoin:miter;stroke:#000;stroke-opacity:1;stroke-miterlimit:10" d="m-.002 0 3.09 3.09" transform="matrix(1 0 0 -1 29.888 19.347)"/></g></g><g clip-path="url(#bo)"><g clip-path="url(#bp)"><path style="fill:none;stroke-width:.3985;stroke-linecap:butt;stroke-linejoin:miter;stroke:#000;stroke-opacity:1;stroke-miterlimit:10" d="m.002 0 3.086 3.09" transform="matrix(1 0 0 -1 32.877 19.347)"/></g></g><g clip-path="url(#bq)"><g clip-path="url(#br)"><path style="fill:none;stroke-width:.3985;stroke-linecap:butt;stroke-linejoin:miter;stroke:#000;stroke-opacity:1;stroke-miterlimit:10" d="m.001 0 3.086 3.09" transform="matrix(1 0 0 -1 35.866 19.347)"/></g></g><g clip-path="url(#bs)"><g clip-path="url(#bt)"><path style="fill:none;stroke-width:.3985;stroke-linecap:butt;stroke-linejoin:miter;stroke:#000;stroke-opacity:1;stroke-miterlimit:10" d="m0 0 3.087 3.09" transform="matrix(1 0 0 -1 38.855 19.347)"/></g></g><g clip-path="url(#bu)"><g clip-path="url(#bv)"><path style="fill:none;stroke-width:.3985;stroke-linecap:butt;stroke-linejoin:miter;stroke:#000;stroke-opacity:1;stroke-miterlimit:10" d="m0 0 3.09 3.09" transform="matrix(1 0 0 -1 41.844 19.347)"/></g></g><g clip-path="url(#bw)"><g clip-path="url(#bx)"><path style="fill:none;stroke-width:.3985;stroke-linecap:butt;stroke-linejoin:miter;stroke:#000;stroke-opacity:1;stroke-miterlimit:10" d="m0 0 3.09 3.09" transform="matrix(1 0 0 -1 44.832 19.347)"/></g></g><g clip-path="url(#by)"><g clip-path="url(#bz)"><path style="fill:none;stroke-width:.3985;stroke-linecap:butt;stroke-linejoin:miter;stroke:#000;stroke-opacity:1;stroke-miterlimit:10" d="m-.001 0 3.09 3.09" transform="matrix(1 0 0 -1 47.821 19.347)"/></g></g><g clip-path="url(#bA)"><g clip-path="url(#bB)"><path style="fill:none;stroke-width:.3985;stroke-linecap:butt;stroke-linejoin:miter;stroke:#000;stroke-opacity:1;stroke-miterlimit:10" d="m-.002 0 3.09 3.09" transform="matrix(1 0 0 -1 50.81 19.347)"/></g></g><g clip-path="url(#bC)"><g clip-path="url(#bD)"><path style="fill:none;stroke-width:.3985;stroke-linecap:butt;stroke-linejoin:miter;stroke:#000;stroke-opacity:1;stroke-miterlimit:10" d="m.002 0 3.086 3.09" transform="matrix(1 0 0 -1 53.799 19.347)"/></g></g><g clip-path="url(#bE)"><g clip-path="url(#bF)"><path style="fill:none;stroke-width:.3985;stroke-linecap:butt;stroke-linejoin:miter;stroke:#000;stroke-opacity:1;stroke-miterlimit:10" d="m.001 0 3.086 3.09" transform="matrix(1 0 0 -1 56.788 19.347)"/></g></g><g clip-path="url(#bG)"><g clip-path="url(#bH)"><path style="fill:none;stroke-width:.3985;stroke-linecap:butt;stroke-linejoin:miter;stroke:#000;stroke-opacity:1;stroke-miterlimit:10" d="m0 0 3.087 3.09" transform="matrix(1 0 0 -1 59.777 19.347)"/></g></g><g clip-path="url(#bI)"><g clip-path="url(#bJ)"><path style="fill:none;stroke-width:.3985;stroke-linecap:butt;stroke-linejoin:miter;stroke:#000;stroke-opacity:1;stroke-miterlimit:10" d="m0 0 3.09 3.09" transform="matrix(1 0 0 -1 62.765 19.347)"/></g></g><g clip-path="url(#bK)"><g clip-path="url(#bL)"><path style="fill:none;stroke-width:.3985;stroke-linecap:butt;stroke-linejoin:miter;stroke:#000;stroke-opacity:1;stroke-miterlimit:10" d="m0 0 3.09 3.09" transform="matrix(1 0 0 -1 65.754 19.347)"/></g></g><use xlink:href="#bM" x="66.968" y="16.492" style="fill:#000;fill-opacity:1"/><g style="fill:#000;fill-opacity:1"><use xlink:href="#bN" x="73.194" y="11.317"/><use xlink:href="#bO" x="76.307" y="11.317"/><use xlink:href="#bP" x="80.279" y="11.317"/></g><use xlink:href="#e" x="73.194" y="19.497" style="fill:#000;fill-opacity:1"/><use xlink:href="#bM" x="3.321" y="16.492" style="fill:#000;fill-opacity:1"/><g style="fill:#000;fill-opacity:1"><use xlink:href="#bN" x="9.547" y="11.317"/><use xlink:href="#bO" x="12.66" y="11.317"/><use xlink:href="#bP" x="16.632" y="11.317"/></g><use xlink:href="#e" x="9.547" y="19.497" style="fill:#000;fill-opacity:1"/></svg>