<svg height="57.677" viewBox="0 0 87.211 43.258" width="116.281" xmlns="http://www.w3.org/2000/svg" xmlns:xlink="http://www.w3.org/1999/xlink"><clipPath id="a"><path d="m12 0h63v43.258h-63zm0 0"/></clipPath><clipPath id="b"><path d="m40 0h7v7h-7zm0 0"/></clipPath><clipPath id="c"><path d="m46.582 3.176a2.976 2.976 0 1 0 -5.952-.002 2.976 2.976 0 0 0 5.952.002zm0 0"/></clipPath><clipPath id="d"><path d="m19 24.328h2.918v2.672h-2.918zm0 0"/></clipPath><clipPath id="e"><path d="m67.414 23.016a3.963 3.963 0 0 0 -3.965-3.965 3.966 3.966 0 1 0 0 7.933 3.966 3.966 0 0 0 3.965-3.968zm-39.684 0a3.966 3.966 0 0 0 -3.968-3.965 3.966 3.966 0 1 0 0 7.933 3.97 3.97 0 0 0 3.968-3.968zm0 0"/></clipPath><clipPath id="f"><path d="m19.926 24.328h4.98v2.672h-4.98zm0 0"/></clipPath><clipPath id="g"><path d="m67.414 23.016a3.963 3.963 0 0 0 -3.965-3.965 3.966 3.966 0 1 0 0 7.933 3.966 3.966 0 0 0 3.965-3.968zm-39.684 0a3.966 3.966 0 0 0 -3.968-3.965 3.966 3.966 0 1 0 0 7.933 3.97 3.97 0 0 0 3.968-3.968zm0 0"/></clipPath><clipPath id="h"><path d="m22.914 24.328h4.98v2.672h-4.98zm0 0"/></clipPath><clipPath id="i"><path d="m67.414 23.016a3.963 3.963 0 0 0 -3.965-3.965 3.966 3.966 0 1 0 0 7.933 3.966 3.966 0 0 0 3.965-3.968zm-39.684 0a3.966 3.966 0 0 0 -3.968-3.965 3.966 3.966 0 1 0 0 7.933 3.97 3.97 0 0 0 3.968-3.968zm0 0"/></clipPath><clipPath id="j"><path d="m25.902 24.328h4.98v2.672h-4.98zm0 0"/></clipPath><clipPath id="k"><path d="m67.414 23.016a3.963 3.963 0 0 0 -3.965-3.965 3.966 3.966 0 1 0 0 7.933 3.966 3.966 0 0 0 3.965-3.968zm-39.684 0a3.966 3.966 0 0 0 -3.968-3.965 3.966 3.966 0 1 0 0 7.933 3.97 3.97 0 0 0 3.968-3.968zm0 0"/></clipPath><clipPath id="l"><path d="m28.89 24.328h4.985v2.672h-4.984zm0 0"/></clipPath><clipPath id="m"><path d="m67.414 23.016a3.963 3.963 0 0 0 -3.965-3.965 3.966 3.966 0 1 0 0 7.933 3.966 3.966 0 0 0 3.965-3.968zm-39.684 0a3.966 3.966 0 0 0 -3.968-3.965 3.966 3.966 0 1 0 0 7.933 3.97 3.97 0 0 0 3.968-3.968zm0 0"/></clipPath><clipPath id="n"><path d="m31.879 24.328h4.984v2.672h-4.983zm0 0"/></clipPath><clipPath id="o"><path d="m67.414 23.016a3.963 3.963 0 0 0 -3.965-3.965 3.966 3.966 0 1 0 0 7.933 3.966 3.966 0 0 0 3.965-3.968zm-39.684 0a3.966 3.966 0 0 0 -3.968-3.965 3.966 3.966 0 1 0 0 7.933 3.97 3.97 0 0 0 3.968-3.968zm0 0"/></clipPath><clipPath id="p"><path d="m34.871 24.328h4.98v2.672h-4.98zm0 0"/></clipPath><clipPath id="q"><path d="m67.414 23.016a3.963 3.963 0 0 0 -3.965-3.965 3.966 3.966 0 1 0 0 7.933 3.966 3.966 0 0 0 3.965-3.968zm-39.684 0a3.966 3.966 0 0 0 -3.968-3.965 3.966 3.966 0 1 0 0 7.933 3.97 3.97 0 0 0 3.968-3.968zm0 0"/></clipPath><clipPath id="r"><path d="m37.86 24.328h4.98v2.672h-4.98zm0 0"/></clipPath><clipPath id="s"><path d="m67.414 23.016a3.963 3.963 0 0 0 -3.965-3.965 3.966 3.966 0 1 0 0 7.933 3.966 3.966 0 0 0 3.965-3.968zm-39.684 0a3.966 3.966 0 0 0 -3.968-3.965 3.966 3.966 0 1 0 0 7.933 3.97 3.97 0 0 0 3.968-3.968zm0 0"/></clipPath><clipPath id="t"><path d="m40.848 24.328h4.98v2.672h-4.98zm0 0"/></clipPath><clipPath id="u"><path d="m67.414 23.016a3.963 3.963 0 0 0 -3.965-3.965 3.966 3.966 0 1 0 0 7.933 3.966 3.966 0 0 0 3.965-3.968zm-39.684 0a3.966 3.966 0 0 0 -3.968-3.965 3.966 3.966 0 1 0 0 7.933 3.97 3.97 0 0 0 3.968-3.968zm0 0"/></clipPath><clipPath id="v"><path d="m43.836 24.328h4.98v2.672h-4.98zm0 0"/></clipPath><clipPath id="w"><path d="m67.414 23.016a3.963 3.963 0 0 0 -3.965-3.965 3.966 3.966 0 1 0 0 7.933 3.966 3.966 0 0 0 3.965-3.968zm-39.684 0a3.966 3.966 0 0 0 -3.968-3.965 3.966 3.966 0 1 0 0 7.933 3.97 3.97 0 0 0 3.968-3.968zm0 0"/></clipPath><clipPath id="x"><path d="m46.824 24.328h4.98v2.672h-4.98zm0 0"/></clipPath><clipPath id="y"><path d="m67.414 23.016a3.963 3.963 0 0 0 -3.965-3.965 3.966 3.966 0 1 0 0 7.933 3.966 3.966 0 0 0 3.965-3.968zm-39.684 0a3.966 3.966 0 0 0 -3.968-3.965 3.966 3.966 0 1 0 0 7.933 3.97 3.97 0 0 0 3.968-3.968zm0 0"/></clipPath><clipPath id="z"><path d="m49.813 24.328h4.984v2.672h-4.984zm0 0"/></clipPath><clipPath id="A"><path d="m67.414 23.016a3.963 3.963 0 0 0 -3.965-3.965 3.966 3.966 0 1 0 0 7.933 3.966 3.966 0 0 0 3.965-3.968zm-39.684 0a3.966 3.966 0 0 0 -3.968-3.965 3.966 3.966 0 1 0 0 7.933 3.97 3.97 0 0 0 3.968-3.968zm0 0"/></clipPath><clipPath id="B"><path d="m52.8 24.328h4.985v2.672h-4.984zm0 0"/></clipPath><clipPath id="C"><path d="m67.414 23.016a3.963 3.963 0 0 0 -3.965-3.965 3.966 3.966 0 1 0 0 7.933 3.966 3.966 0 0 0 3.965-3.968zm-39.684 0a3.966 3.966 0 0 0 -3.968-3.965 3.966 3.966 0 1 0 0 7.933 3.97 3.97 0 0 0 3.968-3.968zm0 0"/></clipPath><clipPath id="D"><path d="m55.793 24.328h4.98v2.672h-4.98zm0 0"/></clipPath><clipPath id="E"><path d="m67.414 23.016a3.963 3.963 0 0 0 -3.965-3.965 3.966 3.966 0 1 0 0 7.933 3.966 3.966 0 0 0 3.965-3.968zm-39.684 0a3.966 3.966 0 0 0 -3.968-3.965 3.966 3.966 0 1 0 0 7.933 3.97 3.97 0 0 0 3.968-3.968zm0 0"/></clipPath><clipPath id="F"><path d="m58.781 24.328h4.98v2.672h-4.98zm0 0"/></clipPath><clipPath id="G"><path d="m67.414 23.016a3.963 3.963 0 0 0 -3.965-3.965 3.966 3.966 0 1 0 0 7.933 3.966 3.966 0 0 0 3.965-3.968zm-39.684 0a3.966 3.966 0 0 0 -3.968-3.965 3.966 3.966 0 1 0 0 7.933 3.97 3.97 0 0 0 3.968-3.968zm0 0"/></clipPath><clipPath id="H"><path d="m61.77 24.328h4.98v2.672h-4.98zm0 0"/></clipPath><clipPath id="I"><path d="m67.414 23.016a3.963 3.963 0 0 0 -3.965-3.965 3.966 3.966 0 1 0 0 7.933 3.966 3.966 0 0 0 3.965-3.968zm-39.684 0a3.966 3.966 0 0 0 -3.968-3.965 3.966 3.966 0 1 0 0 7.933 3.97 3.97 0 0 0 3.968-3.968zm0 0"/></clipPath><clipPath id="J"><path d="m64.758 24.328h3.242v2.672h-3.242zm0 0"/></clipPath><clipPath id="K"><path d="m67.414 23.016a3.963 3.963 0 0 0 -3.965-3.965 3.966 3.966 0 1 0 0 7.933 3.966 3.966 0 0 0 3.965-3.968zm-39.684 0a3.966 3.966 0 0 0 -3.968-3.965 3.966 3.966 0 1 0 0 7.933 3.97 3.97 0 0 0 3.968-3.968zm0 0"/></clipPath><clipPath id="L"><path d="m19 21.34h2.918v4.98h-2.918zm0 0"/></clipPath><clipPath id="M"><path d="m67.414 23.016a3.963 3.963 0 0 0 -3.965-3.965 3.966 3.966 0 1 0 0 7.933 3.966 3.966 0 0 0 3.965-3.968zm-39.684 0a3.966 3.966 0 0 0 -3.968-3.965 3.966 3.966 0 1 0 0 7.933 3.97 3.97 0 0 0 3.968-3.968zm0 0"/></clipPath><clipPath id="N"><path d="m19.926 21.34h4.98v4.98h-4.98zm0 0"/></clipPath><clipPath id="O"><path d="m67.414 23.016a3.963 3.963 0 0 0 -3.965-3.965 3.966 3.966 0 1 0 0 7.933 3.966 3.966 0 0 0 3.965-3.968zm-39.684 0a3.966 3.966 0 0 0 -3.968-3.965 3.966 3.966 0 1 0 0 7.933 3.97 3.97 0 0 0 3.968-3.968zm0 0"/></clipPath><clipPath id="P"><path d="m22.914 21.34h4.98v4.98h-4.98zm0 0"/></clipPath><clipPath id="Q"><path d="m67.414 23.016a3.963 3.963 0 0 0 -3.965-3.965 3.966 3.966 0 1 0 0 7.933 3.966 3.966 0 0 0 3.965-3.968zm-39.684 0a3.966 3.966 0 0 0 -3.968-3.965 3.966 3.966 0 1 0 0 7.933 3.97 3.97 0 0 0 3.968-3.968zm0 0"/></clipPath><clipPath id="R"><path d="m25.902 21.34h4.98v4.98h-4.98zm0 0"/></clipPath><clipPath id="S"><path d="m67.414 23.016a3.963 3.963 0 0 0 -3.965-3.965 3.966 3.966 0 1 0 0 7.933 3.966 3.966 0 0 0 3.965-3.968zm-39.684 0a3.966 3.966 0 0 0 -3.968-3.965 3.966 3.966 0 1 0 0 7.933 3.97 3.97 0 0 0 3.968-3.968zm0 0"/></clipPath><clipPath id="T"><path d="m28.89 21.34h4.985v4.98h-4.984zm0 0"/></clipPath><clipPath id="U"><path d="m67.414 23.016a3.963 3.963 0 0 0 -3.965-3.965 3.966 3.966 0 1 0 0 7.933 3.966 3.966 0 0 0 3.965-3.968zm-39.684 0a3.966 3.966 0 0 0 -3.968-3.965 3.966 3.966 0 1 0 0 7.933 3.97 3.97 0 0 0 3.968-3.968zm0 0"/></clipPath><clipPath id="V"><path d="m31.879 21.34h4.984v4.98h-4.983zm0 0"/></clipPath><clipPath id="W"><path d="m67.414 23.016a3.963 3.963 0 0 0 -3.965-3.965 3.966 3.966 0 1 0 0 7.933 3.966 3.966 0 0 0 3.965-3.968zm-39.684 0a3.966 3.966 0 0 0 -3.968-3.965 3.966 3.966 0 1 0 0 7.933 3.97 3.97 0 0 0 3.968-3.968zm0 0"/></clipPath><clipPath id="X"><path d="m34.871 21.34h4.98v4.98h-4.98zm0 0"/></clipPath><clipPath id="Y"><path d="m67.414 23.016a3.963 3.963 0 0 0 -3.965-3.965 3.966 3.966 0 1 0 0 7.933 3.966 3.966 0 0 0 3.965-3.968zm-39.684 0a3.966 3.966 0 0 0 -3.968-3.965 3.966 3.966 0 1 0 0 7.933 3.97 3.97 0 0 0 3.968-3.968zm0 0"/></clipPath><clipPath id="Z"><path d="m37.86 21.34h4.98v4.98h-4.98zm0 0"/></clipPath><clipPath id="aa"><path d="m67.414 23.016a3.963 3.963 0 0 0 -3.965-3.965 3.966 3.966 0 1 0 0 7.933 3.966 3.966 0 0 0 3.965-3.968zm-39.684 0a3.966 3.966 0 0 0 -3.968-3.965 3.966 3.966 0 1 0 0 7.933 3.97 3.97 0 0 0 3.968-3.968zm0 0"/></clipPath><clipPath id="ab"><path d="m40.848 21.34h4.98v4.98h-4.98zm0 0"/></clipPath><clipPath id="ac"><path d="m67.414 23.016a3.963 3.963 0 0 0 -3.965-3.965 3.966 3.966 0 1 0 0 7.933 3.966 3.966 0 0 0 3.965-3.968zm-39.684 0a3.966 3.966 0 0 0 -3.968-3.965 3.966 3.966 0 1 0 0 7.933 3.97 3.97 0 0 0 3.968-3.968zm0 0"/></clipPath><clipPath id="ad"><path d="m43.836 21.34h4.98v4.98h-4.98zm0 0"/></clipPath><clipPath id="ae"><path d="m67.414 23.016a3.963 3.963 0 0 0 -3.965-3.965 3.966 3.966 0 1 0 0 7.933 3.966 3.966 0 0 0 3.965-3.968zm-39.684 0a3.966 3.966 0 0 0 -3.968-3.965 3.966 3.966 0 1 0 0 7.933 3.97 3.97 0 0 0 3.968-3.968zm0 0"/></clipPath><clipPath id="af"><path d="m46.824 21.34h4.98v4.98h-4.98zm0 0"/></clipPath><clipPath id="ag"><path d="m67.414 23.016a3.963 3.963 0 0 0 -3.965-3.965 3.966 3.966 0 1 0 0 7.933 3.966 3.966 0 0 0 3.965-3.968zm-39.684 0a3.966 3.966 0 0 0 -3.968-3.965 3.966 3.966 0 1 0 0 7.933 3.97 3.97 0 0 0 3.968-3.968zm0 0"/></clipPath><clipPath id="ah"><path d="m49.813 21.34h4.984v4.98h-4.984zm0 0"/></clipPath><clipPath id="ai"><path d="m67.414 23.016a3.963 3.963 0 0 0 -3.965-3.965 3.966 3.966 0 1 0 0 7.933 3.966 3.966 0 0 0 3.965-3.968zm-39.684 0a3.966 3.966 0 0 0 -3.968-3.965 3.966 3.966 0 1 0 0 7.933 3.97 3.97 0 0 0 3.968-3.968zm0 0"/></clipPath><clipPath id="aj"><path d="m52.8 21.34h4.985v4.98h-4.984zm0 0"/></clipPath><clipPath id="ak"><path d="m67.414 23.016a3.963 3.963 0 0 0 -3.965-3.965 3.966 3.966 0 1 0 0 7.933 3.966 3.966 0 0 0 3.965-3.968zm-39.684 0a3.966 3.966 0 0 0 -3.968-3.965 3.966 3.966 0 1 0 0 7.933 3.97 3.97 0 0 0 3.968-3.968zm0 0"/></clipPath><clipPath id="al"><path d="m55.793 21.34h4.98v4.98h-4.98zm0 0"/></clipPath><clipPath id="am"><path d="m67.414 23.016a3.963 3.963 0 0 0 -3.965-3.965 3.966 3.966 0 1 0 0 7.933 3.966 3.966 0 0 0 3.965-3.968zm-39.684 0a3.966 3.966 0 0 0 -3.968-3.965 3.966 3.966 0 1 0 0 7.933 3.97 3.97 0 0 0 3.968-3.968zm0 0"/></clipPath><clipPath id="an"><path d="m58.781 21.34h4.98v4.98h-4.98zm0 0"/></clipPath><clipPath id="ao"><path d="m67.414 23.016a3.963 3.963 0 0 0 -3.965-3.965 3.966 3.966 0 1 0 0 7.933 3.966 3.966 0 0 0 3.965-3.968zm-39.684 0a3.966 3.966 0 0 0 -3.968-3.965 3.966 3.966 0 1 0 0 7.933 3.97 3.97 0 0 0 3.968-3.968zm0 0"/></clipPath><clipPath id="ap"><path d="m61.77 21.34h4.98v4.98h-4.98zm0 0"/></clipPath><clipPath id="aq"><path d="m67.414 23.016a3.963 3.963 0 0 0 -3.965-3.965 3.966 3.966 0 1 0 0 7.933 3.966 3.966 0 0 0 3.965-3.968zm-39.684 0a3.966 3.966 0 0 0 -3.968-3.965 3.966 3.966 0 1 0 0 7.933 3.97 3.97 0 0 0 3.968-3.968zm0 0"/></clipPath><clipPath id="ar"><path d="m64.758 21.34h3.242v4.98h-3.242zm0 0"/></clipPath><clipPath id="as"><path d="m67.414 23.016a3.963 3.963 0 0 0 -3.965-3.965 3.966 3.966 0 1 0 0 7.933 3.966 3.966 0 0 0 3.965-3.968zm-39.684 0a3.966 3.966 0 0 0 -3.968-3.965 3.966 3.966 0 1 0 0 7.933 3.97 3.97 0 0 0 3.968-3.968zm0 0"/></clipPath><clipPath id="at"><path d="m19 19h2.918v4.332h-2.918zm0 0"/></clipPath><clipPath id="au"><path d="m67.414 23.016a3.963 3.963 0 0 0 -3.965-3.965 3.966 3.966 0 1 0 0 7.933 3.966 3.966 0 0 0 3.965-3.968zm-39.684 0a3.966 3.966 0 0 0 -3.968-3.965 3.966 3.966 0 1 0 0 7.933 3.97 3.97 0 0 0 3.968-3.968zm0 0"/></clipPath><clipPath id="av"><path d="m19.926 19h4.98v4.332h-4.98zm0 0"/></clipPath><clipPath id="aw"><path d="m67.414 23.016a3.963 3.963 0 0 0 -3.965-3.965 3.966 3.966 0 1 0 0 7.933 3.966 3.966 0 0 0 3.965-3.968zm-39.684 0a3.966 3.966 0 0 0 -3.968-3.965 3.966 3.966 0 1 0 0 7.933 3.97 3.97 0 0 0 3.968-3.968zm0 0"/></clipPath><clipPath id="ax"><path d="m22.914 19h4.98v4.332h-4.98zm0 0"/></clipPath><clipPath id="ay"><path d="m67.414 23.016a3.963 3.963 0 0 0 -3.965-3.965 3.966 3.966 0 1 0 0 7.933 3.966 3.966 0 0 0 3.965-3.968zm-39.684 0a3.966 3.966 0 0 0 -3.968-3.965 3.966 3.966 0 1 0 0 7.933 3.97 3.97 0 0 0 3.968-3.968zm0 0"/></clipPath><clipPath id="az"><path d="m25.902 19h4.98v4.332h-4.98zm0 0"/></clipPath><clipPath id="aA"><path d="m67.414 23.016a3.963 3.963 0 0 0 -3.965-3.965 3.966 3.966 0 1 0 0 7.933 3.966 3.966 0 0 0 3.965-3.968zm-39.684 0a3.966 3.966 0 0 0 -3.968-3.965 3.966 3.966 0 1 0 0 7.933 3.97 3.97 0 0 0 3.968-3.968zm0 0"/></clipPath><clipPath id="aB"><path d="m28.89 19h4.985v4.332h-4.984zm0 0"/></clipPath><clipPath id="aC"><path d="m67.414 23.016a3.963 3.963 0 0 0 -3.965-3.965 3.966 3.966 0 1 0 0 7.933 3.966 3.966 0 0 0 3.965-3.968zm-39.684 0a3.966 3.966 0 0 0 -3.968-3.965 3.966 3.966 0 1 0 0 7.933 3.97 3.97 0 0 0 3.968-3.968zm0 0"/></clipPath><clipPath id="aD"><path d="m31.879 19h4.984v4.332h-4.983zm0 0"/></clipPath><clipPath id="aE"><path d="m67.414 23.016a3.963 3.963 0 0 0 -3.965-3.965 3.966 3.966 0 1 0 0 7.933 3.966 3.966 0 0 0 3.965-3.968zm-39.684 0a3.966 3.966 0 0 0 -3.968-3.965 3.966 3.966 0 1 0 0 7.933 3.97 3.97 0 0 0 3.968-3.968zm0 0"/></clipPath><clipPath id="aF"><path d="m34.871 19h4.98v4.332h-4.98zm0 0"/></clipPath><clipPath id="aG"><path d="m67.414 23.016a3.963 3.963 0 0 0 -3.965-3.965 3.966 3.966 0 1 0 0 7.933 3.966 3.966 0 0 0 3.965-3.968zm-39.684 0a3.966 3.966 0 0 0 -3.968-3.965 3.966 3.966 0 1 0 0 7.933 3.97 3.97 0 0 0 3.968-3.968zm0 0"/></clipPath><clipPath id="aH"><path d="m37.86 19h4.98v4.332h-4.98zm0 0"/></clipPath><clipPath id="aI"><path d="m67.414 23.016a3.963 3.963 0 0 0 -3.965-3.965 3.966 3.966 0 1 0 0 7.933 3.966 3.966 0 0 0 3.965-3.968zm-39.684 0a3.966 3.966 0 0 0 -3.968-3.965 3.966 3.966 0 1 0 0 7.933 3.97 3.97 0 0 0 3.968-3.968zm0 0"/></clipPath><clipPath id="aJ"><path d="m40.848 19h4.98v4.332h-4.98zm0 0"/></clipPath><clipPath id="aK"><path d="m67.414 23.016a3.963 3.963 0 0 0 -3.965-3.965 3.966 3.966 0 1 0 0 7.933 3.966 3.966 0 0 0 3.965-3.968zm-39.684 0a3.966 3.966 0 0 0 -3.968-3.965 3.966 3.966 0 1 0 0 7.933 3.97 3.97 0 0 0 3.968-3.968zm0 0"/></clipPath><clipPath id="aL"><path d="m43.836 19h4.98v4.332h-4.98zm0 0"/></clipPath><clipPath id="aM"><path d="m67.414 23.016a3.963 3.963 0 0 0 -3.965-3.965 3.966 3.966 0 1 0 0 7.933 3.966 3.966 0 0 0 3.965-3.968zm-39.684 0a3.966 3.966 0 0 0 -3.968-3.965 3.966 3.966 0 1 0 0 7.933 3.97 3.97 0 0 0 3.968-3.968zm0 0"/></clipPath><clipPath id="aN"><path d="m46.824 19h4.98v4.332h-4.98zm0 0"/></clipPath><clipPath id="aO"><path d="m67.414 23.016a3.963 3.963 0 0 0 -3.965-3.965 3.966 3.966 0 1 0 0 7.933 3.966 3.966 0 0 0 3.965-3.968zm-39.684 0a3.966 3.966 0 0 0 -3.968-3.965 3.966 3.966 0 1 0 0 7.933 3.97 3.97 0 0 0 3.968-3.968zm0 0"/></clipPath><clipPath id="aP"><path d="m49.813 19h4.984v4.332h-4.984zm0 0"/></clipPath><clipPath id="aQ"><path d="m67.414 23.016a3.963 3.963 0 0 0 -3.965-3.965 3.966 3.966 0 1 0 0 7.933 3.966 3.966 0 0 0 3.965-3.968zm-39.684 0a3.966 3.966 0 0 0 -3.968-3.965 3.966 3.966 0 1 0 0 7.933 3.97 3.97 0 0 0 3.968-3.968zm0 0"/></clipPath><clipPath id="aR"><path d="m52.8 19h4.985v4.332h-4.984zm0 0"/></clipPath><clipPath id="aS"><path d="m67.414 23.016a3.963 3.963 0 0 0 -3.965-3.965 3.966 3.966 0 1 0 0 7.933 3.966 3.966 0 0 0 3.965-3.968zm-39.684 0a3.966 3.966 0 0 0 -3.968-3.965 3.966 3.966 0 1 0 0 7.933 3.97 3.97 0 0 0 3.968-3.968zm0 0"/></clipPath><clipPath id="aT"><path d="m55.793 19h4.98v4.332h-4.98zm0 0"/></clipPath><clipPath id="aU"><path d="m67.414 23.016a3.963 3.963 0 0 0 -3.965-3.965 3.966 3.966 0 1 0 0 7.933 3.966 3.966 0 0 0 3.965-3.968zm-39.684 0a3.966 3.966 0 0 0 -3.968-3.965 3.966 3.966 0 1 0 0 7.933 3.97 3.97 0 0 0 3.968-3.968zm0 0"/></clipPath><clipPath id="aV"><path d="m58.781 19h4.98v4.332h-4.98zm0 0"/></clipPath><clipPath id="aW"><path d="m67.414 23.016a3.963 3.963 0 0 0 -3.965-3.965 3.966 3.966 0 1 0 0 7.933 3.966 3.966 0 0 0 3.965-3.968zm-39.684 0a3.966 3.966 0 0 0 -3.968-3.965 3.966 3.966 0 1 0 0 7.933 3.97 3.97 0 0 0 3.968-3.968zm0 0"/></clipPath><clipPath id="aX"><path d="m61.77 19h4.98v4.332h-4.98zm0 0"/></clipPath><clipPath id="aY"><path d="m67.414 23.016a3.963 3.963 0 0 0 -3.965-3.965 3.966 3.966 0 1 0 0 7.933 3.966 3.966 0 0 0 3.965-3.968zm-39.684 0a3.966 3.966 0 0 0 -3.968-3.965 3.966 3.966 0 1 0 0 7.933 3.97 3.97 0 0 0 3.968-3.968zm0 0"/></clipPath><clipPath id="aZ"><path d="m64.758 19h3.242v4.332h-3.242zm0 0"/></clipPath><clipPath id="a0"><path d="m67.414 23.016a3.963 3.963 0 0 0 -3.965-3.965 3.966 3.966 0 1 0 0 7.933 3.966 3.966 0 0 0 3.965-3.968zm-39.684 0a3.966 3.966 0 0 0 -3.968-3.965 3.966 3.966 0 1 0 0 7.933 3.97 3.97 0 0 0 3.968-3.968zm0 0"/></clipPath><clipPath id="a1"><path d="m19 19h2.918v1.344h-2.918zm0 0"/></clipPath><clipPath id="a2"><path d="m67.414 23.016a3.963 3.963 0 0 0 -3.965-3.965 3.966 3.966 0 1 0 0 7.933 3.966 3.966 0 0 0 3.965-3.968zm-39.684 0a3.966 3.966 0 0 0 -3.968-3.965 3.966 3.966 0 1 0 0 7.933 3.97 3.97 0 0 0 3.968-3.968zm0 0"/></clipPath><clipPath id="a3"><path d="m19.926 19h4.98v1.344h-4.98zm0 0"/></clipPath><clipPath id="a4"><path d="m67.414 23.016a3.963 3.963 0 0 0 -3.965-3.965 3.966 3.966 0 1 0 0 7.933 3.966 3.966 0 0 0 3.965-3.968zm-39.684 0a3.966 3.966 0 0 0 -3.968-3.965 3.966 3.966 0 1 0 0 7.933 3.97 3.97 0 0 0 3.968-3.968zm0 0"/></clipPath><clipPath id="a5"><path d="m22.914 19h4.98v1.344h-4.98zm0 0"/></clipPath><clipPath id="a6"><path d="m67.414 23.016a3.963 3.963 0 0 0 -3.965-3.965 3.966 3.966 0 1 0 0 7.933 3.966 3.966 0 0 0 3.965-3.968zm-39.684 0a3.966 3.966 0 0 0 -3.968-3.965 3.966 3.966 0 1 0 0 7.933 3.97 3.97 0 0 0 3.968-3.968zm0 0"/></clipPath><clipPath id="a7"><path d="m25.902 19h4.98v1.344h-4.98zm0 0"/></clipPath><clipPath id="a8"><path d="m67.414 23.016a3.963 3.963 0 0 0 -3.965-3.965 3.966 3.966 0 1 0 0 7.933 3.966 3.966 0 0 0 3.965-3.968zm-39.684 0a3.966 3.966 0 0 0 -3.968-3.965 3.966 3.966 0 1 0 0 7.933 3.97 3.97 0 0 0 3.968-3.968zm0 0"/></clipPath><clipPath id="a9"><path d="m28.89 19h4.985v1.344h-4.984zm0 0"/></clipPath><clipPath id="ba"><path d="m67.414 23.016a3.963 3.963 0 0 0 -3.965-3.965 3.966 3.966 0 1 0 0 7.933 3.966 3.966 0 0 0 3.965-3.968zm-39.684 0a3.966 3.966 0 0 0 -3.968-3.965 3.966 3.966 0 1 0 0 7.933 3.97 3.97 0 0 0 3.968-3.968zm0 0"/></clipPath><clipPath id="bb"><path d="m31.879 19h4.984v1.344h-4.983zm0 0"/></clipPath><clipPath id="bc"><path d="m67.414 23.016a3.963 3.963 0 0 0 -3.965-3.965 3.966 3.966 0 1 0 0 7.933 3.966 3.966 0 0 0 3.965-3.968zm-39.684 0a3.966 3.966 0 0 0 -3.968-3.965 3.966 3.966 0 1 0 0 7.933 3.97 3.97 0 0 0 3.968-3.968zm0 0"/></clipPath><clipPath id="bd"><path d="m34.871 19h4.98v1.344h-4.98zm0 0"/></clipPath><clipPath id="be"><path d="m67.414 23.016a3.963 3.963 0 0 0 -3.965-3.965 3.966 3.966 0 1 0 0 7.933 3.966 3.966 0 0 0 3.965-3.968zm-39.684 0a3.966 3.966 0 0 0 -3.968-3.965 3.966 3.966 0 1 0 0 7.933 3.97 3.97 0 0 0 3.968-3.968zm0 0"/></clipPath><clipPath id="bf"><path d="m37.86 19h4.98v1.344h-4.98zm0 0"/></clipPath><clipPath id="bg"><path d="m67.414 23.016a3.963 3.963 0 0 0 -3.965-3.965 3.966 3.966 0 1 0 0 7.933 3.966 3.966 0 0 0 3.965-3.968zm-39.684 0a3.966 3.966 0 0 0 -3.968-3.965 3.966 3.966 0 1 0 0 7.933 3.97 3.97 0 0 0 3.968-3.968zm0 0"/></clipPath><clipPath id="bh"><path d="m40.848 19h4.98v1.344h-4.98zm0 0"/></clipPath><clipPath id="bi"><path d="m67.414 23.016a3.963 3.963 0 0 0 -3.965-3.965 3.966 3.966 0 1 0 0 7.933 3.966 3.966 0 0 0 3.965-3.968zm-39.684 0a3.966 3.966 0 0 0 -3.968-3.965 3.966 3.966 0 1 0 0 7.933 3.97 3.97 0 0 0 3.968-3.968zm0 0"/></clipPath><clipPath id="bj"><path d="m43.836 19h4.98v1.344h-4.98zm0 0"/></clipPath><clipPath id="bk"><path d="m67.414 23.016a3.963 3.963 0 0 0 -3.965-3.965 3.966 3.966 0 1 0 0 7.933 3.966 3.966 0 0 0 3.965-3.968zm-39.684 0a3.966 3.966 0 0 0 -3.968-3.965 3.966 3.966 0 1 0 0 7.933 3.97 3.97 0 0 0 3.968-3.968zm0 0"/></clipPath><clipPath id="bl"><path d="m46.824 19h4.98v1.344h-4.98zm0 0"/></clipPath><clipPath id="bm"><path d="m67.414 23.016a3.963 3.963 0 0 0 -3.965-3.965 3.966 3.966 0 1 0 0 7.933 3.966 3.966 0 0 0 3.965-3.968zm-39.684 0a3.966 3.966 0 0 0 -3.968-3.965 3.966 3.966 0 1 0 0 7.933 3.97 3.97 0 0 0 3.968-3.968zm0 0"/></clipPath><clipPath id="bn"><path d="m49.813 19h4.984v1.344h-4.984zm0 0"/></clipPath><clipPath id="bo"><path d="m67.414 23.016a3.963 3.963 0 0 0 -3.965-3.965 3.966 3.966 0 1 0 0 7.933 3.966 3.966 0 0 0 3.965-3.968zm-39.684 0a3.966 3.966 0 0 0 -3.968-3.965 3.966 3.966 0 1 0 0 7.933 3.97 3.97 0 0 0 3.968-3.968zm0 0"/></clipPath><clipPath id="bp"><path d="m52.8 19h4.985v1.344h-4.984zm0 0"/></clipPath><clipPath id="bq"><path d="m67.414 23.016a3.963 3.963 0 0 0 -3.965-3.965 3.966 3.966 0 1 0 0 7.933 3.966 3.966 0 0 0 3.965-3.968zm-39.684 0a3.966 3.966 0 0 0 -3.968-3.965 3.966 3.966 0 1 0 0 7.933 3.97 3.97 0 0 0 3.968-3.968zm0 0"/></clipPath><clipPath id="br"><path d="m55.793 19h4.98v1.344h-4.98zm0 0"/></clipPath><clipPath id="bs"><path d="m67.414 23.016a3.963 3.963 0 0 0 -3.965-3.965 3.966 3.966 0 1 0 0 7.933 3.966 3.966 0 0 0 3.965-3.968zm-39.684 0a3.966 3.966 0 0 0 -3.968-3.965 3.966 3.966 0 1 0 0 7.933 3.97 3.97 0 0 0 3.968-3.968zm0 0"/></clipPath><clipPath id="bt"><path d="m58.781 19h4.98v1.344h-4.98zm0 0"/></clipPath><clipPath id="bu"><path d="m67.414 23.016a3.963 3.963 0 0 0 -3.965-3.965 3.966 3.966 0 1 0 0 7.933 3.966 3.966 0 0 0 3.965-3.968zm-39.684 0a3.966 3.966 0 0 0 -3.968-3.965 3.966 3.966 0 1 0 0 7.933 3.97 3.97 0 0 0 3.968-3.968zm0 0"/></clipPath><clipPath id="bv"><path d="m61.77 19h4.98v1.344h-4.98zm0 0"/></clipPath><clipPath id="bw"><path d="m67.414 23.016a3.963 3.963 0 0 0 -3.965-3.965 3.966 3.966 0 1 0 0 7.933 3.966 3.966 0 0 0 3.965-3.968zm-39.684 0a3.966 3.966 0 0 0 -3.968-3.965 3.966 3.966 0 1 0 0 7.933 3.97 3.97 0 0 0 3.968-3.968zm0 0"/></clipPath><clipPath id="bx"><path d="m64.758 19h3.242v1.344h-3.242zm0 0"/></clipPath><clipPath id="by"><path d="m67.414 23.016a3.963 3.963 0 0 0 -3.965-3.965 3.966 3.966 0 1 0 0 7.933 3.966 3.966 0 0 0 3.965-3.968zm-39.684 0a3.966 3.966 0 0 0 -3.968-3.965 3.966 3.966 0 1 0 0 7.933 3.97 3.97 0 0 0 3.968-3.968zm0 0"/></clipPath><symbol id="bz" overflow="visible"><path d="m4.61-3.375c-.095-.625-.5-1.188-1.283-1.188-.61 0-1.25.172-2.031.938a2.953 2.953 0 0 0 -.89 2.063c0 .625.437 1.78 1.827 1.78 2.375 0 3.407-3.343 3.407-4.78 0-1.579-.922-2.579-2.157-2.579-1.437 0-1.906 1.297-1.906 1.579 0 .14.094.343.39.343a.544.544 0 0 0 .532-.515c0-.36-.313-.36-.469-.36.438-.734 1.156-.797 1.438-.797.734 0 1.422.516 1.422 1.813 0 .39-.063.89-.266 1.703zm-2.345 3.313c-1.094 0-1.094-1.032-1.094-1.125 0-.266.25-1.657.656-2.266.39-.563.89-.89 1.5-.89 1.094 0 1.11 1.124 1.11 1.327 0 .72-.641 2.954-2.172 2.954zm0 0"/></symbol><symbol id="bA" overflow="visible"><path d="m3.734-6.125c.063-.234.094-.328.282-.36.093-.015.406-.015.609-.015.703 0 1.813 0 1.813.984 0 .344-.157 1.032-.547 1.422-.266.25-.782.578-1.688.578h-1.11zm1.438 2.734c1.016-.218 2.187-.921 2.187-1.921 0-.86-.89-1.5-2.203-1.5h-2.828c-.203 0-.297 0-.297.203 0 .109.094.109.281.109.016 0 .204 0 .376.016.187.03.265.03.265.171 0 .032 0 .063-.031.188l-1.344 5.344c-.094.39-.11.469-.906.469-.172 0-.266 0-.266.203 0 .109.125.109.14.109.282 0 .985-.031 1.25-.031.282 0 1 .031 1.282.031.078 0 .188 0 .188-.203 0-.11-.079-.11-.282-.11-.359 0-.64 0-.64-.171 0-.063.015-.11.031-.172l.656-2.64h1.189c.906 0 1.078.562 1.078.905 0 .141-.078.454-.14.688-.063.281-.157.64-.157.844-.001 1.078 1.202 1.078 1.327 1.078.844 0 1.203-1 1.203-1.14 0-.126-.11-.126-.125-.126-.093 0-.11.063-.125.14-.25.735-.687.907-.906.907-.328 0-.406-.219-.406-.61 0-.312.062-.812.11-1.14a4.9 4.9 0 0 0 .03-.469c0-.765-.671-1.078-.937-1.172zm0 0"/></symbol><symbol id="bB" overflow="visible"><path d="m2.188-4.625c0-.016.015-.11.015-.11 0-.046-.015-.109-.11-.109-.14 0-.718.063-.89.078-.047 0-.156.016-.156.157 0 .093.11.093.187.093.329 0 .329.063.329.11s-.016.093-.016.156l-.984 3.938c-.047.124-.047.14-.047.156 0 .11.093.218.25.218.187 0 .265-.124.312-.28.016-.032.313-1.266.344-1.36.5.047.89.219.89.578 0 .031 0 .063-.015.14-.031.094-.031.141-.031.22 0 .484.406.703.75.703.671 0 .875-1.047.875-1.063 0-.094-.079-.094-.11-.094-.094 0-.11.047-.14.172-.079.297-.266.797-.61.797-.187 0-.25-.172-.25-.36 0-.124 0-.14.047-.312a.724.724 0 0 0 .031-.219c0-.625-.828-.718-1.125-.734.204-.125.454-.36.579-.469.359-.328.703-.656 1.093-.656.078 0 .172.016.235.094a.396.396 0 0 0 -.36.39c0 .141.11.25.266.25.203 0 .406-.156.406-.437a.5.5 0 0 0 -.531-.5c-.406 0-.766.297-1.125.625-.297.265-.516.484-.813.61zm0 0"/></symbol><symbol id="bC" overflow="visible"><path d="m5.516-6.781h-5.188v.312h.234c.766 0 .797.11.797.469v5.219c0 .36-.03.469-.796.469h-.235v.312c.344-.031 1.125-.031 1.516-.031.406 0 1.312 0 1.672.031v-.313h-.329c-.937 0-.937-.124-.937-.468v-5.297c0-.328.016-.39.484-.39h1.032c1.421 0 1.625.593 1.78 1.937h.25zm0 0"/></symbol><symbol id="bD" overflow="visible"><path d="m2.469-5.219c-1.313.922-1.672 2.407-1.672 3.469 0 .984.297 2.516 1.672 3.484.062 0 .14 0 .14-.078 0-.047-.015-.062-.062-.11-.938-.842-1.267-2.014-1.267-3.279 0-1.891.719-2.813 1.282-3.329.03-.03.046-.046.046-.078 0-.078-.078-.078-.14-.078zm0 0"/></symbol><symbol id="bE" overflow="visible"><path d="m1.906-2.328c.547 0 .938.375.938 1.125 0 .86-.516 1.125-.906 1.125-.282 0-.907-.078-1.188-.5.328 0 .406-.235.406-.39 0-.22-.172-.376-.39-.376a.38.38 0 0 0 -.391.407c0 .656.719 1.077 1.563 1.077.968 0 1.64-.657 1.64-1.344 0-.547-.437-1.094-1.203-1.25.719-.266.984-.781.984-1.219 0-.547-.625-.953-1.406-.953-.766 0-1.36.375-1.36.938 0 .234.157.359.36.359.219 0 .36-.156.36-.344 0-.203-.141-.36-.36-.375.25-.297.719-.375.985-.375.312 0 .75.156.75.75 0 .297-.094.625-.282.828-.219.266-.422.281-.765.313-.172.015-.188.015-.22.015-.015 0-.077.016-.077.094 0 .094.062.094.187.094zm0 0"/></symbol><symbol id="bF" overflow="visible"><path d="m.625-5.219c-.047 0-.125 0-.125.078 0 .032.016.047.063.11.593.547 1.265 1.484 1.265 3.281 0 1.453-.453 2.563-1.203 3.234-.125.126-.125.126-.125.172 0 .032.016.078.078.078.094 0 .75-.453 1.219-1.328.297-.578.5-1.328.5-2.14 0-.986-.297-2.516-1.672-3.486zm0 0"/></symbol><g clip-path="url(#a)"><path d="m19.844.001c0 10.957-8.887 19.84-19.844 19.84-10.96 0-19.843-8.883-19.843-19.84 0-10.96 8.883-19.843 19.843-19.843 10.957 0 19.844 8.882 19.844 19.843zm0 0" fill="none" stroke="#000" stroke-miterlimit="10" stroke-width=".79701" transform="matrix(1 0 0 -1 43.605 23.017)"/></g><path d="m-39.687.001h19.844m39.687 0h19.84" fill="none" stroke="#000" stroke-miterlimit="10" stroke-width=".3985" transform="matrix(1 0 0 -1 43.605 23.017)"/><path d="m46.582 3.176a2.976 2.976 0 1 0 -5.952-.002 2.976 2.976 0 0 0 5.952.002zm0 0" fill="#fff"/><g clip-path="url(#b)"><g clip-path="url(#c)"><path d="m2.977 16.869-5.953 5.949m0-5.95 5.953 5.95" fill="none" stroke="#000" stroke-miterlimit="10" stroke-width=".3985" transform="matrix(1 0 0 -1 43.605 23.017)"/></g></g><path d="m2.977 19.841a2.976 2.976 0 1 1 -5.952.002 2.976 2.976 0 0 1 5.952-.002zm0 0" fill="none" stroke="#000" stroke-miterlimit="10" stroke-width=".3985" transform="matrix(1 0 0 -1 43.605 23.017)"/><use x="32.277" xlink:href="#bz" y="15.008"/><use x="37.566" xlink:href="#bB" y="16.502"/><use x="42.468" xlink:href="#bA" y="15.008"/><use x="50.032" xlink:href="#bB" y="16.502"/><path d="m23.81.001a3.963 3.963 0 0 1 -3.966 3.965 3.966 3.966 0 1 1 0-7.933 3.966 3.966 0 0 1 3.966 3.967zm-39.685 0a3.966 3.966 0 0 1 -3.968 3.965 3.966 3.966 0 1 1 0-7.933 3.97 3.97 0 0 1 3.968 3.967zm0 0" fill="#fff" stroke="#000" stroke-miterlimit="10" stroke-width=".3985" transform="matrix(1 0 0 -1 43.605 23.017)"/><g clip-path="url(#d)"><g clip-path="url(#e)"><path d="m0 .001 3.087 3.086" fill="none" stroke="#000" stroke-miterlimit="10" stroke-width=".3985" transform="matrix(1 0 0 -1 17.933 28.314)"/></g></g><g clip-path="url(#f)"><g clip-path="url(#g)"><path d="m0 .001 3.09 3.086" fill="none" stroke="#000" stroke-miterlimit="10" stroke-width=".3985" transform="matrix(1 0 0 -1 20.922 28.314)"/></g></g><g clip-path="url(#h)"><g clip-path="url(#i)"><path d="m0 .001 3.09 3.086" fill="none" stroke="#000" stroke-miterlimit="10" stroke-width=".3985" transform="matrix(1 0 0 -1 23.91 28.314)"/></g></g><g clip-path="url(#j)"><g clip-path="url(#k)"><path d="m-.001.001 3.09 3.086" fill="none" stroke="#000" stroke-miterlimit="10" stroke-width=".3985" transform="matrix(1 0 0 -1 26.9 28.314)"/></g></g><g clip-path="url(#l)"><g clip-path="url(#m)"><path d="m-.002.001 3.09 3.086" fill="none" stroke="#000" stroke-miterlimit="10" stroke-width=".3985" transform="matrix(1 0 0 -1 29.888 28.314)"/></g></g><g clip-path="url(#n)"><g clip-path="url(#o)"><path d="m.002.001 3.086 3.086" fill="none" stroke="#000" stroke-miterlimit="10" stroke-width=".3985" transform="matrix(1 0 0 -1 32.877 28.314)"/></g></g><g clip-path="url(#p)"><g clip-path="url(#q)"><path d="m.001.001 3.086 3.086" fill="none" stroke="#000" stroke-miterlimit="10" stroke-width=".3985" transform="matrix(1 0 0 -1 35.866 28.314)"/></g></g><g clip-path="url(#r)"><g clip-path="url(#s)"><path d="m0 .001 3.087 3.086" fill="none" stroke="#000" stroke-miterlimit="10" stroke-width=".3985" transform="matrix(1 0 0 -1 38.855 28.314)"/></g></g><g clip-path="url(#t)"><g clip-path="url(#u)"><path d="m0 .001 3.09 3.086" fill="none" stroke="#000" stroke-miterlimit="10" stroke-width=".3985" transform="matrix(1 0 0 -1 41.844 28.314)"/></g></g><g clip-path="url(#v)"><g clip-path="url(#w)"><path d="m0 .001 3.09 3.086" fill="none" stroke="#000" stroke-miterlimit="10" stroke-width=".3985" transform="matrix(1 0 0 -1 44.832 28.314)"/></g></g><g clip-path="url(#x)"><g clip-path="url(#y)"><path d="m-.001.001 3.09 3.086" fill="none" stroke="#000" stroke-miterlimit="10" stroke-width=".3985" transform="matrix(1 0 0 -1 47.821 28.314)"/></g></g><g clip-path="url(#z)"><g clip-path="url(#A)"><path d="m-.002.001 3.09 3.086" fill="none" stroke="#000" stroke-miterlimit="10" stroke-width=".3985" transform="matrix(1 0 0 -1 50.81 28.314)"/></g></g><g clip-path="url(#B)"><g clip-path="url(#C)"><path d="m.002.001 3.086 3.086" fill="none" stroke="#000" stroke-miterlimit="10" stroke-width=".3985" transform="matrix(1 0 0 -1 53.799 28.314)"/></g></g><g clip-path="url(#D)"><g clip-path="url(#E)"><path d="m.001.001 3.086 3.086" fill="none" stroke="#000" stroke-miterlimit="10" stroke-width=".3985" transform="matrix(1 0 0 -1 56.788 28.314)"/></g></g><g clip-path="url(#F)"><g clip-path="url(#G)"><path d="m0 .001 3.087 3.086" fill="none" stroke="#000" stroke-miterlimit="10" stroke-width=".3985" transform="matrix(1 0 0 -1 59.777 28.314)"/></g></g><g clip-path="url(#H)"><g clip-path="url(#I)"><path d="m0 .001 3.09 3.086" fill="none" stroke="#000" stroke-miterlimit="10" stroke-width=".3985" transform="matrix(1 0 0 -1 62.765 28.314)"/></g></g><g clip-path="url(#J)"><g clip-path="url(#K)"><path d="m0 .001 3.09 3.086" fill="none" stroke="#000" stroke-miterlimit="10" stroke-width=".3985" transform="matrix(1 0 0 -1 65.754 28.314)"/></g></g><g clip-path="url(#L)"><g clip-path="url(#M)"><path d="m0 0 3.087 3.087" fill="none" stroke="#000" stroke-miterlimit="10" stroke-width=".3985" transform="matrix(1 0 0 -1 17.933 25.325)"/></g></g><g clip-path="url(#N)"><g clip-path="url(#O)"><path d="m0 0 3.09 3.087" fill="none" stroke="#000" stroke-miterlimit="10" stroke-width=".3985" transform="matrix(1 0 0 -1 20.922 25.325)"/></g></g><g clip-path="url(#P)"><g clip-path="url(#Q)"><path d="m0 0 3.09 3.087" fill="none" stroke="#000" stroke-miterlimit="10" stroke-width=".3985" transform="matrix(1 0 0 -1 23.91 25.325)"/></g></g><g clip-path="url(#R)"><g clip-path="url(#S)"><path d="m-.001 0 3.09 3.087" fill="none" stroke="#000" stroke-miterlimit="10" stroke-width=".3985" transform="matrix(1 0 0 -1 26.9 25.325)"/></g></g><g clip-path="url(#T)"><g clip-path="url(#U)"><path d="m-.002 0 3.09 3.087" fill="none" stroke="#000" stroke-miterlimit="10" stroke-width=".3985" transform="matrix(1 0 0 -1 29.888 25.325)"/></g></g><g clip-path="url(#V)"><g clip-path="url(#W)"><path d="m.002 0 3.086 3.087" fill="none" stroke="#000" stroke-miterlimit="10" stroke-width=".3985" transform="matrix(1 0 0 -1 32.877 25.325)"/></g></g><g clip-path="url(#X)"><g clip-path="url(#Y)"><path d="m.001 0 3.086 3.087" fill="none" stroke="#000" stroke-miterlimit="10" stroke-width=".3985" transform="matrix(1 0 0 -1 35.866 25.325)"/></g></g><g clip-path="url(#Z)"><g clip-path="url(#aa)"><path d="m0 0 3.087 3.087" fill="none" stroke="#000" stroke-miterlimit="10" stroke-width=".3985" transform="matrix(1 0 0 -1 38.855 25.325)"/></g></g><g clip-path="url(#ab)"><g clip-path="url(#ac)"><path d="m0 0 3.09 3.087" fill="none" stroke="#000" stroke-miterlimit="10" stroke-width=".3985" transform="matrix(1 0 0 -1 41.844 25.325)"/></g></g><g clip-path="url(#ad)"><g clip-path="url(#ae)"><path d="m0 0 3.09 3.087" fill="none" stroke="#000" stroke-miterlimit="10" stroke-width=".3985" transform="matrix(1 0 0 -1 44.832 25.325)"/></g></g><g clip-path="url(#af)"><g clip-path="url(#ag)"><path d="m-.001 0 3.09 3.087" fill="none" stroke="#000" stroke-miterlimit="10" stroke-width=".3985" transform="matrix(1 0 0 -1 47.821 25.325)"/></g></g><g clip-path="url(#ah)"><g clip-path="url(#ai)"><path d="m-.002 0 3.09 3.087" fill="none" stroke="#000" stroke-miterlimit="10" stroke-width=".3985" transform="matrix(1 0 0 -1 50.81 25.325)"/></g></g><g clip-path="url(#aj)"><g clip-path="url(#ak)"><path d="m.002 0 3.086 3.087" fill="none" stroke="#000" stroke-miterlimit="10" stroke-width=".3985" transform="matrix(1 0 0 -1 53.799 25.325)"/></g></g><g clip-path="url(#al)"><g clip-path="url(#am)"><path d="m.001 0 3.086 3.087" fill="none" stroke="#000" stroke-miterlimit="10" stroke-width=".3985" transform="matrix(1 0 0 -1 56.788 25.325)"/></g></g><g clip-path="url(#an)"><g clip-path="url(#ao)"><path d="m0 0 3.087 3.087" fill="none" stroke="#000" stroke-miterlimit="10" stroke-width=".3985" transform="matrix(1 0 0 -1 59.777 25.325)"/></g></g><g clip-path="url(#ap)"><g clip-path="url(#aq)"><path d="m0 0 3.09 3.087" fill="none" stroke="#000" stroke-miterlimit="10" stroke-width=".3985" transform="matrix(1 0 0 -1 62.765 25.325)"/></g></g><g clip-path="url(#ar)"><g clip-path="url(#as)"><path d="m0 0 3.09 3.087" fill="none" stroke="#000" stroke-miterlimit="10" stroke-width=".3985" transform="matrix(1 0 0 -1 65.754 25.325)"/></g></g><g clip-path="url(#at)"><g clip-path="url(#au)"><path d="m0 0 3.087 3.09" fill="none" stroke="#000" stroke-miterlimit="10" stroke-width=".3985" transform="matrix(1 0 0 -1 17.933 22.336)"/></g></g><g clip-path="url(#av)"><g clip-path="url(#aw)"><path d="m0 0 3.09 3.09" fill="none" stroke="#000" stroke-miterlimit="10" stroke-width=".3985" transform="matrix(1 0 0 -1 20.922 22.336)"/></g></g><g clip-path="url(#ax)"><g clip-path="url(#ay)"><path d="m0 0 3.09 3.09" fill="none" stroke="#000" stroke-miterlimit="10" stroke-width=".3985" transform="matrix(1 0 0 -1 23.91 22.336)"/></g></g><g clip-path="url(#az)"><g clip-path="url(#aA)"><path d="m-.001 0 3.09 3.09" fill="none" stroke="#000" stroke-miterlimit="10" stroke-width=".3985" transform="matrix(1 0 0 -1 26.9 22.336)"/></g></g><g clip-path="url(#aB)"><g clip-path="url(#aC)"><path d="m-.002 0 3.09 3.09" fill="none" stroke="#000" stroke-miterlimit="10" stroke-width=".3985" transform="matrix(1 0 0 -1 29.888 22.336)"/></g></g><g clip-path="url(#aD)"><g clip-path="url(#aE)"><path d="m.002 0 3.086 3.09" fill="none" stroke="#000" stroke-miterlimit="10" stroke-width=".3985" transform="matrix(1 0 0 -1 32.877 22.336)"/></g></g><g clip-path="url(#aF)"><g clip-path="url(#aG)"><path d="m.001 0 3.086 3.09" fill="none" stroke="#000" stroke-miterlimit="10" stroke-width=".3985" transform="matrix(1 0 0 -1 35.866 22.336)"/></g></g><g clip-path="url(#aH)"><g clip-path="url(#aI)"><path d="m0 0 3.087 3.09" fill="none" stroke="#000" stroke-miterlimit="10" stroke-width=".3985" transform="matrix(1 0 0 -1 38.855 22.336)"/></g></g><g clip-path="url(#aJ)"><g clip-path="url(#aK)"><path d="m0 0 3.09 3.09" fill="none" stroke="#000" stroke-miterlimit="10" stroke-width=".3985" transform="matrix(1 0 0 -1 41.844 22.336)"/></g></g><g clip-path="url(#aL)"><g clip-path="url(#aM)"><path d="m0 0 3.09 3.09" fill="none" stroke="#000" stroke-miterlimit="10" stroke-width=".3985" transform="matrix(1 0 0 -1 44.832 22.336)"/></g></g><g clip-path="url(#aN)"><g clip-path="url(#aO)"><path d="m-.001 0 3.09 3.09" fill="none" stroke="#000" stroke-miterlimit="10" stroke-width=".3985" transform="matrix(1 0 0 -1 47.821 22.336)"/></g></g><g clip-path="url(#aP)"><g clip-path="url(#aQ)"><path d="m-.002 0 3.09 3.09" fill="none" stroke="#000" stroke-miterlimit="10" stroke-width=".3985" transform="matrix(1 0 0 -1 50.81 22.336)"/></g></g><g clip-path="url(#aR)"><g clip-path="url(#aS)"><path d="m.002 0 3.086 3.09" fill="none" stroke="#000" stroke-miterlimit="10" stroke-width=".3985" transform="matrix(1 0 0 -1 53.799 22.336)"/></g></g><g clip-path="url(#aT)"><g clip-path="url(#aU)"><path d="m.001 0 3.086 3.09" fill="none" stroke="#000" stroke-miterlimit="10" stroke-width=".3985" transform="matrix(1 0 0 -1 56.788 22.336)"/></g></g><g clip-path="url(#aV)"><g clip-path="url(#aW)"><path d="m0 0 3.087 3.09" fill="none" stroke="#000" stroke-miterlimit="10" stroke-width=".3985" transform="matrix(1 0 0 -1 59.777 22.336)"/></g></g><g clip-path="url(#aX)"><g clip-path="url(#aY)"><path d="m0 0 3.09 3.09" fill="none" stroke="#000" stroke-miterlimit="10" stroke-width=".3985" transform="matrix(1 0 0 -1 62.765 22.336)"/></g></g><g clip-path="url(#aZ)"><g clip-path="url(#a0)"><path d="m0 0 3.09 3.09" fill="none" stroke="#000" stroke-miterlimit="10" stroke-width=".3985" transform="matrix(1 0 0 -1 65.754 22.336)"/></g></g><g clip-path="url(#a1)"><g clip-path="url(#a2)"><path d="m0 0 3.087 3.09" fill="none" stroke="#000" stroke-miterlimit="10" stroke-width=".3985" transform="matrix(1 0 0 -1 17.933 19.347)"/></g></g><g clip-path="url(#a3)"><g clip-path="url(#a4)"><path d="m0 0 3.09 3.09" fill="none" stroke="#000" stroke-miterlimit="10" stroke-width=".3985" transform="matrix(1 0 0 -1 20.922 19.347)"/></g></g><g clip-path="url(#a5)"><g clip-path="url(#a6)"><path d="m0 0 3.09 3.09" fill="none" stroke="#000" stroke-miterlimit="10" stroke-width=".3985" transform="matrix(1 0 0 -1 23.91 19.347)"/></g></g><g clip-path="url(#a7)"><g clip-path="url(#a8)"><path d="m-.001 0 3.09 3.09" fill="none" stroke="#000" stroke-miterlimit="10" stroke-width=".3985" transform="matrix(1 0 0 -1 26.9 19.347)"/></g></g><g clip-path="url(#a9)"><g clip-path="url(#ba)"><path d="m-.002 0 3.09 3.09" fill="none" stroke="#000" stroke-miterlimit="10" stroke-width=".3985" transform="matrix(1 0 0 -1 29.888 19.347)"/></g></g><g clip-path="url(#bb)"><g clip-path="url(#bc)"><path d="m.002 0 3.086 3.09" fill="none" stroke="#000" stroke-miterlimit="10" stroke-width=".3985" transform="matrix(1 0 0 -1 32.877 19.347)"/></g></g><g clip-path="url(#bd)"><g clip-path="url(#be)"><path d="m.001 0 3.086 3.09" fill="none" stroke="#000" stroke-miterlimit="10" stroke-width=".3985" transform="matrix(1 0 0 -1 35.866 19.347)"/></g></g><g clip-path="url(#bf)"><g clip-path="url(#bg)"><path d="m0 0 3.087 3.09" fill="none" stroke="#000" stroke-miterlimit="10" stroke-width=".3985" transform="matrix(1 0 0 -1 38.855 19.347)"/></g></g><g clip-path="url(#bh)"><g clip-path="url(#bi)"><path d="m0 0 3.09 3.09" fill="none" stroke="#000" stroke-miterlimit="10" stroke-width=".3985" transform="matrix(1 0 0 -1 41.844 19.347)"/></g></g><g clip-path="url(#bj)"><g clip-path="url(#bk)"><path d="m0 0 3.09 3.09" fill="none" stroke="#000" stroke-miterlimit="10" stroke-width=".3985" transform="matrix(1 0 0 -1 44.832 19.347)"/></g></g><g clip-path="url(#bl)"><g clip-path="url(#bm)"><path d="m-.001 0 3.09 3.09" fill="none" stroke="#000" stroke-miterlimit="10" stroke-width=".3985" transform="matrix(1 0 0 -1 47.821 19.347)"/></g></g><g clip-path="url(#bn)"><g clip-path="url(#bo)"><path d="m-.002 0 3.09 3.09" fill="none" stroke="#000" stroke-miterlimit="10" stroke-width=".3985" transform="matrix(1 0 0 -1 50.81 19.347)"/></g></g><g clip-path="url(#bp)"><g clip-path="url(#bq)"><path d="m.002 0 3.086 3.09" fill="none" stroke="#000" stroke-miterlimit="10" stroke-width=".3985" transform="matrix(1 0 0 -1 53.799 19.347)"/></g></g><g clip-path="url(#br)"><g clip-path="url(#bs)"><path d="m.001 0 3.086 3.09" fill="none" stroke="#000" stroke-miterlimit="10" stroke-width=".3985" transform="matrix(1 0 0 -1 56.788 19.347)"/></g></g><g clip-path="url(#bt)"><g clip-path="url(#bu)"><path d="m0 0 3.087 3.09" fill="none" stroke="#000" stroke-miterlimit="10" stroke-width=".3985" transform="matrix(1 0 0 -1 59.777 19.347)"/></g></g><g clip-path="url(#bv)"><g clip-path="url(#bw)"><path d="m0 0 3.09 3.09" fill="none" stroke="#000" stroke-miterlimit="10" stroke-width=".3985" transform="matrix(1 0 0 -1 62.765 19.347)"/></g></g><g clip-path="url(#bx)"><g clip-path="url(#by)"><path d="m0 0 3.09 3.09" fill="none" stroke="#000" stroke-miterlimit="10" stroke-width=".3985" transform="matrix(1 0 0 -1 65.754 19.347)"/></g></g><use x="66.968" xlink:href="#bC" y="16.492"/><g><use x="73.194" xlink:href="#bD" y="11.317"/><use x="76.307" xlink:href="#bE" y="11.317"/><use x="80.279" xlink:href="#bF" y="11.317"/></g><use x="73.194" xlink:href="#bB" y="19.497"/><use x="3.321" xlink:href="#bC" y="16.492"/><g><use x="9.547" xlink:href="#bD" y="11.317"/><use x="12.66" xlink:href="#bE" y="11.317"/><use x="16.632" xlink:href="#bF" y="11.317"/></g><use x="9.547" xlink:href="#bB" y="19.497"/></svg>