<svg height="393.348" viewBox="0 0 331.008 295.011" width="441.344" xmlns="http://www.w3.org/2000/svg" xmlns:xlink="http://www.w3.org/1999/xlink"><clipPath id="a"><path d="m45 164h10v20h-10zm0 0"/></clipPath><clipPath id="b"><path d="m45.059 173.934c36.41-36.474 47.441-77.762 34.061-127.532 62.82 46.207 127 53.336 198.43 22.035-25.164 45.958-24.188 89.07 3.031 133.844-54.418 3.356-92.121 28.34-116.422 77.149-19.691-58.97-58.191-93.067-119.101-105.496"/></clipPath><clipPath id="c"><path d="m45 159h15v30h-15zm0 0"/></clipPath><clipPath id="d"><path d="m45.059 173.934c36.41-36.474 47.441-77.762 34.061-127.532 62.82 46.207 127 53.336 198.43 22.035-25.164 45.958-24.188 89.07 3.031 133.844-54.418 3.356-92.121 28.34-116.422 77.149-19.691-58.97-58.191-93.067-119.101-105.496"/></clipPath><clipPath id="e"><path d="m45 155h19v38h-19zm0 0"/></clipPath><clipPath id="f"><path d="m45.059 173.934c36.41-36.474 47.441-77.762 34.061-127.532 62.82 46.207 127 53.336 198.43 22.035-25.164 45.958-24.188 89.07 3.031 133.844-54.418 3.356-92.121 28.34-116.422 77.149-19.691-58.97-58.191-93.067-119.101-105.496"/></clipPath><clipPath id="g"><path d="m45 151h23v46h-23zm0 0"/></clipPath><clipPath id="h"><path d="m45.059 173.934c36.41-36.474 47.441-77.762 34.061-127.532 62.82 46.207 127 53.336 198.43 22.035-25.164 45.958-24.188 89.07 3.031 133.844-54.418 3.356-92.121 28.34-116.422 77.149-19.691-58.97-58.191-93.067-119.101-105.496"/></clipPath><clipPath id="i"><path d="m45 147h27v54h-27zm0 0"/></clipPath><clipPath id="j"><path d="m45.059 173.934c36.41-36.474 47.441-77.762 34.061-127.532 62.82 46.207 127 53.336 198.43 22.035-25.164 45.958-24.188 89.07 3.031 133.844-54.418 3.356-92.121 28.34-116.422 77.149-19.691-58.97-58.191-93.067-119.101-105.496"/></clipPath><clipPath id="k"><path d="m45 142h32v64h-32zm0 0"/></clipPath><clipPath id="l"><path d="m45.059 173.934c36.41-36.474 47.441-77.762 34.061-127.532 62.82 46.207 127 53.336 198.43 22.035-25.164 45.958-24.188 89.07 3.031 133.844-54.418 3.356-92.121 28.34-116.422 77.149-19.691-58.97-58.191-93.067-119.101-105.496"/></clipPath><clipPath id="m"><path d="m69 46h21v11h-21zm0 0"/></clipPath><clipPath id="n"><path d="m45.059 173.934c36.41-36.474 47.441-77.762 34.061-127.532 62.82 46.207 127 53.336 198.43 22.035-25.164 45.958-24.188 89.07 3.031 133.844-54.418 3.356-92.121 28.34-116.422 77.149-19.691-58.97-58.191-93.067-119.101-105.496"/></clipPath><clipPath id="o"><path d="m64 46h30v15h-30zm0 0"/></clipPath><clipPath id="p"><path d="m45.059 173.934c36.41-36.474 47.441-77.762 34.061-127.532 62.82 46.207 127 53.336 198.43 22.035-25.164 45.958-24.188 89.07 3.031 133.844-54.418 3.356-92.121 28.34-116.422 77.149-19.691-58.97-58.191-93.067-119.101-105.496"/></clipPath><clipPath id="q"><path d="m60 46h38v19h-38zm0 0"/></clipPath><clipPath id="r"><path d="m45.059 173.934c36.41-36.474 47.441-77.762 34.061-127.532 62.82 46.207 127 53.336 198.43 22.035-25.164 45.958-24.188 89.07 3.031 133.844-54.418 3.356-92.121 28.34-116.422 77.149-19.691-58.97-58.191-93.067-119.101-105.496"/></clipPath><clipPath id="s"><path d="m56 46h46v24h-46zm0 0"/></clipPath><clipPath id="t"><path d="m45.059 173.934c36.41-36.474 47.441-77.762 34.061-127.532 62.82 46.207 127 53.336 198.43 22.035-25.164 45.958-24.188 89.07 3.031 133.844-54.418 3.356-92.121 28.34-116.422 77.149-19.691-58.97-58.191-93.067-119.101-105.496"/></clipPath><clipPath id="u"><path d="m52 46h55v28h-55zm0 0"/></clipPath><clipPath id="v"><path d="m45.059 173.934c36.41-36.474 47.441-77.762 34.061-127.532 62.82 46.207 127 53.336 198.43 22.035-25.164 45.958-24.188 89.07 3.031 133.844-54.418 3.356-92.121 28.34-116.422 77.149-19.691-58.97-58.191-93.067-119.101-105.496"/></clipPath><clipPath id="w"><path d="m47 46h64v32h-64zm0 0"/></clipPath><clipPath id="x"><path d="m45.059 173.934c36.41-36.474 47.441-77.762 34.061-127.532 62.82 46.207 127 53.336 198.43 22.035-25.164 45.958-24.188 89.07 3.031 133.844-54.418 3.356-92.121 28.34-116.422 77.149-19.691-58.97-58.191-93.067-119.101-105.496"/></clipPath><clipPath id="y"><path d="m267 58h14v21h-14zm0 0"/></clipPath><clipPath id="z"><path d="m45.059 173.934c36.41-36.474 47.441-77.762 34.061-127.532 62.82 46.207 127 53.336 198.43 22.035-25.164 45.958-24.188 89.07 3.031 133.844-54.418 3.356-92.121 28.34-116.422 77.149-19.691-58.97-58.191-93.067-119.101-105.496"/></clipPath><clipPath id="A"><path d="m263 54h18v29h-18zm0 0"/></clipPath><clipPath id="B"><path d="m45.059 173.934c36.41-36.474 47.441-77.762 34.061-127.532 62.82 46.207 127 53.336 198.43 22.035-25.164 45.958-24.188 89.07 3.031 133.844-54.418 3.356-92.121 28.34-116.422 77.149-19.691-58.97-58.191-93.067-119.101-105.496"/></clipPath><clipPath id="C"><path d="m259 50h22v37h-22zm0 0"/></clipPath><clipPath id="D"><path d="m45.059 173.934c36.41-36.474 47.441-77.762 34.061-127.532 62.82 46.207 127 53.336 198.43 22.035-25.164 45.958-24.188 89.07 3.031 133.844-54.418 3.356-92.121 28.34-116.422 77.149-19.691-58.97-58.191-93.067-119.101-105.496"/></clipPath><clipPath id="E"><path d="m254 46h27v46h-27zm0 0"/></clipPath><clipPath id="F"><path d="m45.059 173.934c36.41-36.474 47.441-77.762 34.061-127.532 62.82 46.207 127 53.336 198.43 22.035-25.164 45.958-24.188 89.07 3.031 133.844-54.418 3.356-92.121 28.34-116.422 77.149-19.691-58.97-58.191-93.067-119.101-105.496"/></clipPath><clipPath id="G"><path d="m250 46h31v50h-31zm0 0"/></clipPath><clipPath id="H"><path d="m45.059 173.934c36.41-36.474 47.441-77.762 34.061-127.532 62.82 46.207 127 53.336 198.43 22.035-25.164 45.958-24.188 89.07 3.031 133.844-54.418 3.356-92.121 28.34-116.422 77.149-19.691-58.97-58.191-93.067-119.101-105.496"/></clipPath><clipPath id="I"><path d="m246 46h35v54h-35zm0 0"/></clipPath><clipPath id="J"><path d="m45.059 173.934c36.41-36.474 47.441-77.762 34.061-127.532 62.82 46.207 127 53.336 198.43 22.035-25.164 45.958-24.188 89.07 3.031 133.844-54.418 3.356-92.121 28.34-116.422 77.149-19.691-58.97-58.191-93.067-119.101-105.496"/></clipPath><clipPath id="K"><path d="m270 192h11v21h-11zm0 0"/></clipPath><clipPath id="L"><path d="m45.059 173.934c36.41-36.474 47.441-77.762 34.061-127.532 62.82 46.207 127 53.336 198.43 22.035-25.164 45.958-24.188 89.07 3.031 133.844-54.418 3.356-92.121 28.34-116.422 77.149-19.691-58.97-58.191-93.067-119.101-105.496"/></clipPath><clipPath id="M"><path d="m266 188h15v29h-15zm0 0"/></clipPath><clipPath id="N"><path d="m45.059 173.934c36.41-36.474 47.441-77.762 34.061-127.532 62.82 46.207 127 53.336 198.43 22.035-25.164 45.958-24.188 89.07 3.031 133.844-54.418 3.356-92.121 28.34-116.422 77.149-19.691-58.97-58.191-93.067-119.101-105.496"/></clipPath><clipPath id="O"><path d="m262 183h19v38h-19zm0 0"/></clipPath><clipPath id="P"><path d="m45.059 173.934c36.41-36.474 47.441-77.762 34.061-127.532 62.82 46.207 127 53.336 198.43 22.035-25.164 45.958-24.188 89.07 3.031 133.844-54.418 3.356-92.121 28.34-116.422 77.149-19.691-58.97-58.191-93.067-119.101-105.496"/></clipPath><clipPath id="Q"><path d="m257 179h24v46h-24zm0 0"/></clipPath><clipPath id="R"><path d="m45.059 173.934c36.41-36.474 47.441-77.762 34.061-127.532 62.82 46.207 127 53.336 198.43 22.035-25.164 45.958-24.188 89.07 3.031 133.844-54.418 3.356-92.121 28.34-116.422 77.149-19.691-58.97-58.191-93.067-119.101-105.496"/></clipPath><clipPath id="S"><path d="m253 175h28v55h-28zm0 0"/></clipPath><clipPath id="T"><path d="m45.059 173.934c36.41-36.474 47.441-77.762 34.061-127.532 62.82 46.207 127 53.336 198.43 22.035-25.164 45.958-24.188 89.07 3.031 133.844-54.418 3.356-92.121 28.34-116.422 77.149-19.691-58.97-58.191-93.067-119.101-105.496"/></clipPath><clipPath id="U"><path d="m249 171h32v63h-32zm0 0"/></clipPath><clipPath id="V"><path d="m45.059 173.934c36.41-36.474 47.441-77.762 34.061-127.532 62.82 46.207 127 53.336 198.43 22.035-25.164 45.958-24.188 89.07 3.031 133.844-54.418 3.356-92.121 28.34-116.422 77.149-19.691-58.97-58.191-93.067-119.101-105.496"/></clipPath><clipPath id="W"><path d="m154 269h21v11h-21zm0 0"/></clipPath><clipPath id="X"><path d="m45.059 173.934c36.41-36.474 47.441-77.762 34.061-127.532 62.82 46.207 127 53.336 198.43 22.035-25.164 45.958-24.188 89.07 3.031 133.844-54.418 3.356-92.121 28.34-116.422 77.149-19.691-58.97-58.191-93.067-119.101-105.496"/></clipPath><clipPath id="Y"><path d="m150 265h29v15h-29zm0 0"/></clipPath><clipPath id="Z"><path d="m45.059 173.934c36.41-36.474 47.441-77.762 34.061-127.532 62.82 46.207 127 53.336 198.43 22.035-25.164 45.958-24.188 89.07 3.031 133.844-54.418 3.356-92.121 28.34-116.422 77.149-19.691-58.97-58.191-93.067-119.101-105.496"/></clipPath><clipPath id="aa"><path d="m145 261h38v19h-38zm0 0"/></clipPath><clipPath id="ab"><path d="m45.059 173.934c36.41-36.474 47.441-77.762 34.061-127.532 62.82 46.207 127 53.336 198.43 22.035-25.164 45.958-24.188 89.07 3.031 133.844-54.418 3.356-92.121 28.34-116.422 77.149-19.691-58.97-58.191-93.067-119.101-105.496"/></clipPath><clipPath id="ac"><path d="m141 256h46v24h-46zm0 0"/></clipPath><clipPath id="ad"><path d="m45.059 173.934c36.41-36.474 47.441-77.762 34.061-127.532 62.82 46.207 127 53.336 198.43 22.035-25.164 45.958-24.188 89.07 3.031 133.844-54.418 3.356-92.121 28.34-116.422 77.149-19.691-58.97-58.191-93.067-119.101-105.496"/></clipPath><clipPath id="ae"><path d="m137 252h55v28h-55zm0 0"/></clipPath><clipPath id="af"><path d="m45.059 173.934c36.41-36.474 47.441-77.762 34.061-127.532 62.82 46.207 127 53.336 198.43 22.035-25.164 45.958-24.188 89.07 3.031 133.844-54.418 3.356-92.121 28.34-116.422 77.149-19.691-58.97-58.191-93.067-119.101-105.496"/></clipPath><clipPath id="ag"><path d="m133 248h63v32h-63zm0 0"/></clipPath><clipPath id="ah"><path d="m45.059 173.934c36.41-36.474 47.441-77.762 34.061-127.532 62.82 46.207 127 53.336 198.43 22.035-25.164 45.958-24.188 89.07 3.031 133.844-54.418 3.356-92.121 28.34-116.422 77.149-19.691-58.97-58.191-93.067-119.101-105.496"/></clipPath><clipPath id="ai"><path d="m45 164h10v20h-10zm0 0"/></clipPath><clipPath id="aj"><path d="m45.059 173.934c36.41-36.474 47.441-77.762 34.061-127.532 62.82 46.207 127 53.336 198.43 22.035-25.164 45.958-24.188 89.07 3.031 133.844-54.418 3.356-92.121 28.34-116.422 77.149-19.691-58.97-58.191-93.067-119.101-105.496"/></clipPath><clipPath id="ak"><path d="m45 159h15v30h-15zm0 0"/></clipPath><clipPath id="al"><path d="m45.059 173.934c36.41-36.474 47.441-77.762 34.061-127.532 62.82 46.207 127 53.336 198.43 22.035-25.164 45.958-24.188 89.07 3.031 133.844-54.418 3.356-92.121 28.34-116.422 77.149-19.691-58.97-58.191-93.067-119.101-105.496"/></clipPath><clipPath id="am"><path d="m45 155h19v38h-19zm0 0"/></clipPath><clipPath id="an"><path d="m45.059 173.934c36.41-36.474 47.441-77.762 34.061-127.532 62.82 46.207 127 53.336 198.43 22.035-25.164 45.958-24.188 89.07 3.031 133.844-54.418 3.356-92.121 28.34-116.422 77.149-19.691-58.97-58.191-93.067-119.101-105.496"/></clipPath><clipPath id="ao"><path d="m45 151h23v46h-23zm0 0"/></clipPath><clipPath id="ap"><path d="m45.059 173.934c36.41-36.474 47.441-77.762 34.061-127.532 62.82 46.207 127 53.336 198.43 22.035-25.164 45.958-24.188 89.07 3.031 133.844-54.418 3.356-92.121 28.34-116.422 77.149-19.691-58.97-58.191-93.067-119.101-105.496"/></clipPath><clipPath id="aq"><path d="m45 147h27v54h-27zm0 0"/></clipPath><clipPath id="ar"><path d="m45.059 173.934c36.41-36.474 47.441-77.762 34.061-127.532 62.82 46.207 127 53.336 198.43 22.035-25.164 45.958-24.188 89.07 3.031 133.844-54.418 3.356-92.121 28.34-116.422 77.149-19.691-58.97-58.191-93.067-119.101-105.496"/></clipPath><clipPath id="as"><path d="m45 142h32v64h-32zm0 0"/></clipPath><clipPath id="at"><path d="m45.059 173.934c36.41-36.474 47.441-77.762 34.061-127.532 62.82 46.207 127 53.336 198.43 22.035-25.164 45.958-24.188 89.07 3.031 133.844-54.418 3.356-92.121 28.34-116.422 77.149-19.691-58.97-58.191-93.067-119.101-105.496"/></clipPath><clipPath id="au"><path d="m28 29h270v266.012h-270zm0 0"/></clipPath><symbol id="av" overflow="visible"><path d="m1.094-.75c0 .438-.11.438-.782.438v.312c.36-.016.86-.031 1.141-.031.25 0 .766.015 1.11.031v-.313c-.672 0-.782 0-.782-.437v-1.844c0-1.031.719-1.594 1.344-1.594.64 0 .75.532.75 1.11v2.328c0 .438-.11.438-.781.438v.312c.344-.016.86-.031 1.125-.031.25 0 .781.015 1.11.031v-.313c-.516 0-.766 0-.766-.296v-1.907c0-.859 0-1.156-.313-1.515-.14-.172-.469-.375-1.047-.375-.844 0-1.281.593-1.453.984v-3.5l-1.438.11v.312c.704 0 .782.063.782.563zm0 0"/></symbol><symbol id="aw" overflow="visible"><path d="m1.11-2.516c.061-1.484.905-1.734 1.25-1.734 1.015 0 1.124 1.344 1.124 1.734zm0 .22h2.78c.22 0 .25 0 .25-.22 0-.984-.546-1.953-1.78-1.953-1.158 0-2.08 1.032-2.08 2.282.001 1.327 1.048 2.295 2.19 2.295 1.218.002 1.67-1.108 1.67-1.295 0-.094-.079-.125-.141-.125-.078 0-.11.062-.125.14-.343 1.032-1.249 1.032-1.343 1.032-.5 0-.89-.296-1.125-.671-.297-.47-.297-1.125-.297-1.485zm0 0"/></symbol><symbol id="ax" overflow="visible"><path d="m1.719-3.984h1.437v-.313h-1.436v-1.828h-.25c0 .813-.297 1.875-1.282 1.922v.219h.844v2.75c0 1.218.938 1.343 1.297 1.343.703 0 .985-.703.985-1.343v-.563h-.25v.547c0 .734-.297 1.11-.672 1.11-.672 0-.672-.907-.672-1.079zm0 0"/></symbol><symbol id="ay" overflow="visible"><path d="m1.672-3.313v-1.093l-1.39.11v.312c.702 0 .78.062.78.562v2.672c0 .438-.109.438-.78.438v.312c.39-.016.859-.031 1.14-.031.39 0 .86 0 1.266.031v-.313h-.22c-.734 0-.75-.109-.75-.468v-1.531c0-.985.423-1.876 1.173-1.876.062 0 .093 0 .109.016-.031 0-.234.125-.234.39 0 .266.218.423.437.423a.421.421 0 0 0 .422-.438c0-.312-.313-.61-.734-.61-.735 0-1.094.673-1.22 1.095zm0 0"/></symbol><symbol id="az" overflow="visible"><path d="m4.688-2.14c0-1.266-.985-2.329-2.188-2.329-1.25 0-2.219 1.094-2.219 2.329a2.22 2.22 0 0 0 2.203 2.25c1.204 0 2.204-.984 2.204-2.25zm-2.188 2c-.438 0-.875-.204-1.14-.672-.25-.438-.25-1.047-.25-1.407 0-.39 0-.922.234-1.36a1.347 1.347 0 0 1 1.14-.671c.438 0 .86.219 1.125.656.266.422.266 1 .266 1.375 0 .36 0 .906-.219 1.344-.234.453-.672.734-1.156.734zm0 0"/></symbol><symbol id="aA" overflow="visible"><path d="m1.766-4.406-1.391.11v.312c.64 0 .734.062.734.546v2.688c0 .438-.109.438-.78.438v.312c.312-.016.859-.031 1.093-.031.36 0 .703.015 1.047.031v-.313c-.672 0-.703-.046-.703-.437zm.03-1.735a.514.514 0 0 0 -.515-.53.537.537 0 0 0 -.531.53c0 .266.219.532.531.532a.514.514 0 0 0 .516-.532zm0 0"/></symbol><symbol id="aB" overflow="visible"><path d="m1.172-2.172c0-1.625.812-2.047 1.344-2.047.093 0 .718.016 1.062.375-.406.031-.469.328-.469.453 0 .266.188.454.454.454.265 0 .468-.157.468-.47 0-.671-.765-1.062-1.531-1.062-1.25 0-2.156 1.079-2.156 2.313 0 1.281.984 2.265 2.14 2.265 1.329 0 1.657-1.203 1.657-1.296 0-.094-.11-.094-.141-.094-.078 0-.11.031-.125.093-.281.923-.938 1.048-1.297 1.048-.531 0-1.406-.421-1.406-2.03zm0 0"/></symbol><symbol id="aC" overflow="visible"><path d="m3.297 2.39c0-.03 0-.046-.172-.218-1.234-1.25-1.563-3.14-1.563-4.672 0-1.734.375-3.469 1.61-4.703.125-.125.125-.14.125-.172 0-.078-.031-.11-.094-.11-.11 0-1 .688-1.594 1.954-.499 1.093-.625 2.203-.625 3.031 0 .781.11 1.984.657 3.125.609 1.219 1.453 1.875 1.562 1.875.063 0 .094-.031.094-.11zm0 0"/></symbol><symbol id="aD" overflow="visible"><path d="m2.89-3.516c.813-.265 1.391-.953 1.391-1.75 0-.812-.875-1.375-1.828-1.375-1 0-1.765.594-1.765 1.36 0 .328.218.515.515.515s.5-.218.5-.515c0-.485-.469-.485-.61-.485.298-.5.954-.625 1.313-.625.422 0 .969.22.969 1.11 0 .125-.031.703-.281 1.14-.297.485-.64.516-.89.516a3.29 3.29 0 0 1 -.392.031c-.078.016-.14.031-.14.125 0 .11.062.11.234.11h.438c.812 0 1.187.671 1.187 1.656 0 1.36-.687 1.64-1.125 1.64-.437 0-1.187-.171-1.531-.75.344.047.656-.171.656-.546a.537.537 0 0 0 -.547-.563c-.25 0-.562.14-.562.578 0 .907.922 1.564 2.015 1.564 1.22 0 2.126-.906 2.126-1.922 0-.813-.641-1.594-1.672-1.813zm0 0"/></symbol><symbol id="aE" overflow="visible"><path d="m1.266-.766 1.062-1.03c1.547-1.376 2.14-1.907 2.14-2.907 0-1.14-.89-1.938-2.109-1.938a1.843 1.843 0 0 0 -1.859 1.813c0 .547.5.547.531.547.172 0 .516-.11.516-.532a.513.513 0 0 0 -.531-.515c-.079 0-.094 0-.125.016.218-.657.765-1.016 1.343-1.016.907 0 1.329.812 1.329 1.625 0 .797-.485 1.578-1.047 2.203l-1.907 2.125c-.109.11-.109.14-.109.375h3.703l.266-1.734h-.235c-.062.296-.124.734-.234.89-.063.078-.719.078-.938.078zm0 0"/></symbol><symbol id="aF" overflow="visible"><path d="m2.875-2.5c0-.766-.11-1.969-.656-3.11-.594-1.217-1.453-1.873-1.547-1.873a.107.107 0 0 0 -.11.109c0 .031 0 .047.188.234.984.985 1.547 2.563 1.547 4.641 0 1.719-.36 3.469-1.594 4.719-.14.125-.14.14-.14.172 0 .062.046.109.109.109.094 0 1-.688 1.578-1.953.516-1.094.625-2.203.625-3.047zm0 0"/></symbol><symbol id="aG" overflow="visible"><path d="m1.625-4.563c-.453-.296-.5-.625-.5-.796 0-.61.656-1.032 1.36-1.032.718 0 1.359.516 1.359 1.235 0 .578-.39 1.047-.985 1.39zm1.453.954c.719-.375 1.203-.891 1.203-1.547 0-.922-.875-1.485-1.781-1.485-1 0-1.813.735-1.813 1.672 0 .172.016.625.438 1.094.11.11.484.36.734.531-.578.297-1.437.844-1.437 1.844 0 1.047 1.016 1.719 2.062 1.719 1.125 0 2.079-.828 2.079-1.89 0-.36-.11-.813-.5-1.235-.188-.203-.344-.297-.985-.703zm-1 .421 1.235.782c.28.187.75.484.75 1.094 0 .734-.75 1.25-1.563 1.25-.86-.001-1.578-.61-1.578-1.438 0-.578.312-1.219 1.156-1.688zm0 0"/></symbol><symbol id="aH" overflow="visible"><path d="m6.64-6.75h-6.092l-.189 2.25h.25c.141-1.61.282-1.938 1.797-1.938.172 0 .438 0 .531.016.22.047.22.156.22.375v5.267c0 .328 0 .469-1.048.469h-.406v.311c.406-.031 1.422-.031 1.89-.031.454 0 1.485 0 1.891.031v-.313h-.406c-1.047 0-1.047-.14-1.047-.468v-5.266c0-.187 0-.328.188-.375.11-.016.375-.016.562-.016 1.516 0 1.657.329 1.797 1.938h.25zm0 0"/></symbol><symbol id="aI" overflow="visible"><path d="m4.14-3.344c.25-.64.766-.64.923-.64v-.313c-.235.016-.516.031-.75.031-.172 0-.641-.015-.86-.03v.312c.313 0 .469.171.469.421 0 .11-.016.126-.063.25l-1.015 2.439-1.094-2.673c-.047-.11-.063-.14-.063-.187 0-.25.36-.25.563-.25v-.313c-.266.016-.922.031-1.094.031-.265 0-.672-.015-.968-.03v.312c.484 0 .671 0 .812.343l1.5 3.641a6.764 6.764 0 0 0 -.25.594c-.219.547-.5 1.234-1.14 1.234-.048 0-.282 0-.47-.187.313-.032.391-.25.391-.422 0-.25-.187-.407-.421-.407-.203 0-.421.125-.421.422 0 .454.421.813.921.813.625 0 1.032-.578 1.266-1.14zm0 0"/></symbol><symbol id="aJ" overflow="visible"><path d="m1.719-3.75v-.656l-1.438.11v.312c.703 0 .781.062.781.5v4.656c0 .453-.109.453-.78.453v.313c.343-.016.859-.032 1.109-.032.28 0 .78.016 1.125.032v-.313c-.657 0-.766 0-.766-.453v-1.766c.047.172.469.703 1.219.703 1.187 0 2.219-.984 2.219-2.265 0-1.266-.954-2.25-2.079-2.25-.78 0-1.203.437-1.39.656zm.031 2.61v-2.22c.281-.515.766-.796 1.281-.796.735 0 1.328.875 1.328 2 .001 1.203-.687 2.046-1.421 2.046-.407 0-.782-.204-1.047-.61-.141-.203-.141-.219-.141-.422zm0 0"/></symbol><symbol id="aK" overflow="visible"><path d="m2.25-6.031c0-.36.016-.469.813-.469h.25v-.313c-.344.032-1.126.032-1.516.032-.375 0-1.172 0-1.516-.032v.313h.25c.797 0 .828.11.828.469v5.25c0 .36-.03.469-.828.469h-.25v.312c.344-.031 1.14-.031 1.516-.031.39 0 1.172 0 1.516.031v-.313h-.25c-.797 0-.813-.109-.813-.468zm0 0"/></symbol><symbol id="aL" overflow="visible"><path d="m3.969-6.938c-.047-.125-.078-.203-.235-.203-.156 0-.187.063-.234.204l-2.063 5.953c-.187.514-.577.671-1.124.671v.313c.235-.016.672-.031 1.016-.031.313 0 .828.015 1.156.031v-.313c-.5 0-.75-.25-.75-.5 0-.03.016-.14.016-.156l.469-1.297h2.453l.53 1.516a.58.58 0 0 1 .031.14c0 .297-.562.297-.828.297v.313c.36-.031 1.063-.031 1.438-.031.422 0 .89.015 1.297.031v-.313h-.172c-.594 0-.735-.062-.844-.39zm-.531 1.11 1.124 3.25h-2.233zm0 0"/></symbol><symbol id="aM" overflow="visible"><path d="m2.219-3.656v-2.438c0-.343.015-.406.484-.406h1.235c.968 0 1.312.844 1.312 1.375 0 .64-.484 1.469-1.594 1.469zm2.344.094c.968-.188 1.656-.829 1.656-1.563 0-.86-.922-1.688-2.219-1.688h-3.64v.313h.234c.765 0 .797.11.797.469v5.25c0 .36-.032.469-.797.469h-.235v.312h3.907c1.328 0 2.218-.89 2.218-1.828 0-.86-.812-1.61-1.921-1.734zm-.61 3.25h-1.25c-.469 0-.484-.063-.484-.391v-2.719h1.875c.984 0 1.406.922 1.406 1.594 0 .703-.531 1.516-1.547 1.516zm0 0"/></symbol><symbol id="aN" overflow="visible"><path d="m1.094-3.422v2.672c0 .438-.11.438-.782.438v.312c.36-.016.86-.031 1.141-.031.25 0 .766.015 1.11.031v-.313c-.672 0-.782 0-.782-.437v-1.844c0-1.031.719-1.594 1.344-1.594.64 0 .75.532.75 1.11v2.328c0 .438-.11.438-.781.438v.312c.344-.016.86-.031 1.125-.031.25 0 .781.015 1.11.031v-.313c-.657 0-.766 0-.766-.437v-1.844c0-1.031.703-1.594 1.343-1.594.625 0 .735.532.735 1.11v2.328c0 .438-.11.438-.782.438v.312c.344-.016.86-.031 1.125-.031.266 0 .782.015 1.125.031v-.313c-.515 0-.765 0-.78-.296v-1.907c0-.859 0-1.156-.313-1.515-.141-.172-.47-.375-1.047-.375-.828 0-1.282.593-1.438.984-.14-.875-.875-.984-1.328-.984-.734 0-1.203.422-1.484 1.047v-1.047l-1.407.11v.312c.704 0 .782.062.782.562zm0 0"/></symbol><symbol id="aO" overflow="visible"><path d="m3.313-.75c.046.39.312.813.78.813.22 0 .829-.141.829-.954v-.562h-.25v.562c0 .579-.25.641-.36.641-.328 0-.375-.453-.375-.5v-1.984c0-.422 0-.813-.359-1.188a1.9 1.9 0 0 0 -1.36-.547c-.827 0-1.515.469-1.515 1.125 0 .297.203.469.469.469a.435.435 0 0 0 .453-.453c0-.125-.047-.453-.516-.453.282-.36.766-.469 1.079-.469.5 0 1.062.39 1.062 1.281v.36c-.516.03-1.203.062-1.828.359-.75.344-1 .86-1 1.297 0 .812.969 1.062 1.594 1.062a1.38 1.38 0 0 0 1.296-.859zm-.063-1.64v1c0 .937-.719 1.28-1.172 1.28-.484 0-.89-.343-.89-.843 0-.547.421-1.375 2.062-1.438zm0 0"/></symbol><symbol id="aP" overflow="visible"><path d="m2.75-1.86v-.577h-2.64v.578zm0 0"/></symbol><symbol id="aQ" overflow="visible"><path d="m3.297-3.984c.453 0 .515.125.515.53v2.704c0 .438-.109.438-.765.438v.312c.328-.016.844-.031 1.094-.031s.75.015 1.109.031v-.313c-.672 0-.781 0-.781-.437v-3.672l-1.25.094c-.156.016-.172.016-.172.016-.031.015-.047.015-.188.015h-1.171v-1.125c0-.984.859-1.39 1.468-1.39.297 0 .656.109.86.328-.407.03-.47.296-.47.468 0 .329.267.454.454.454.234 0 .453-.157.453-.454 0-.593-.547-1.015-1.281-1.015-.922 0-2.11.515-2.11 1.593v1.141h-.796v.313h.796v3.234c0 .438-.109.438-.78.438v.312c.327-.016.859-.031 1.109-.031s.734.015 1.109.031v-.313c-.672 0-.781 0-.781-.437v-3.234zm0 0"/></symbol><symbol id="aR" overflow="visible"><path d="m1.094-3.422v2.672c0 .438-.11.438-.782.438v.312c.36-.016.86-.031 1.141-.031.25 0 .766.015 1.11.031v-.313c-.672 0-.782 0-.782-.437v-1.844c0-1.031.719-1.594 1.344-1.594.64 0 .75.532.75 1.11v2.328c0 .438-.11.438-.781.438v.312c.344-.016.86-.031 1.125-.031.25 0 .781.015 1.11.031v-.313c-.516 0-.766 0-.766-.296v-1.907c0-.859 0-1.156-.313-1.515-.14-.172-.469-.375-1.047-.375-.734 0-1.203.422-1.484 1.047v-1.047l-1.407.11v.312c.704 0 .782.062.782.562zm0 0"/></symbol><symbol id="aS" overflow="visible"><path d="m2.406-6.594c-.094-.218-.125-.218-.36-.218h-1.67v.312h.234c.766 0 .782.11.782.469v4.984c0 .266 0 .734-1.016.734v.313c.344-.016.828-.031 1.156-.031s.828.015 1.172.031v-.313c-1.031 0-1.031-.468-1.031-.734v-5.375h.016l2.405 6.203c.047.125.093.219.187.219.11 0 .14-.078.188-.188l2.453-6.312v5.719c0 .36-.016.469-.781.469h-.235v.312c.36-.031 1.047-.031 1.438-.031.375 0 1.047 0 1.422.031v-.313h-.25c-.766 0-.782-.109-.782-.468v-5.25c0-.36.016-.469.782-.469h.25v-.313h-1.688c-.266 0-.266.016-.328.188l-2.188 5.625zm0 0"/></symbol><symbol id="aT" overflow="visible"><path d="m3.781-.547v.657l1.469-.11v-.313c-.688 0-.781-.062-.781-.562v-6.047l-1.422.11v.312c.687 0 .765.063.765.563v2.156a1.582 1.582 0 0 0 -1.25-.625c-1.171 0-2.218.984-2.218 2.265 0 1.266.969 2.25 2.11 2.25.64 0 1.077-.343 1.327-.656zm0-2.672v2.047c0 .172 0 .188-.11.36-.296.484-.733.703-1.171.703-.453 0-.813-.266-1.047-.641-.25-.406-.281-.969-.281-1.39 0-.36.016-.954.297-1.407.218-.312.593-.64 1.14-.64.344 0 .766.156 1.063.593.11.172.11.188.11.375zm0 0"/></symbol><symbol id="aU" overflow="visible"><path d="m3.89-.781v.89l1.439-.109v-.313c-.687 0-.766-.062-.766-.562v-3.531l-1.468.11v.312c.687 0 .781.062.781.562v1.766c0 .875-.484 1.547-1.219 1.547-.828 0-.875-.47-.875-.985v-3.312l-1.468.11v.312c.78 0 .78.03.78.906v1.5c0 .781 0 1.687 1.516 1.687.563 0 1-.28 1.282-.89zm0 0"/></symbol><symbol id="aV" overflow="visible"><path d="m1.766-6.922-1.438.11v.312c.703 0 .781.063.781.563v5.187c0 .438-.109.438-.78.438v.312c.327-.016.859-.031 1.109-.031s.734.015 1.109.031v-.313c-.672 0-.781 0-.781-.437zm0 0"/></symbol><symbol id="aW" overflow="visible"><path d="m1.75-4.297v-1.156c0-.875.469-1.36.906-1.36.031 0 .188 0 .328.079a.443.443 0 0 0 -.296.421c0 .22.156.422.437.422s.438-.203.438-.437c0-.375-.376-.703-.907-.703-.687 0-1.547.531-1.547 1.593v1.141h-.779v.313h.78v3.234c0 .438-.109.438-.765.438v.312c.39-.016.86-.031 1.125-.031.406 0 .875 0 1.265.031v-.313h-.203c-.734 0-.75-.109-.75-.468v-3.203h1.125v-.313zm0 0"/></symbol><symbol id="aX" overflow="visible"><path d="m6.75-1.61h-.25a3.74 3.74 0 0 1 -.188.72c-.046.156-.078.25-.656.25h-.796c.141-.563.438-1.047.891-1.704.469-.703.875-1.39.875-2.187 0-1.375-1.344-2.5-3.031-2.5-1.703 0-3.031 1.14-3.031 2.5 0 .797.406 1.484.875 2.187.437.656.75 1.14.89 1.703h-.797c-.578 0-.61-.093-.656-.234-.094-.234-.14-.484-.188-.734h-.25l.328 1.609h1.593c.22 0 .25 0 .25-.203 0-.703-.312-1.578-.53-2.219-.22-.578-.5-1.36-.5-2.11 0-1.593 1.109-2.28 2.015-2.28.953 0 2.015.718 2.015 2.28 0 .75-.28 1.5-.562 2.313-.156.422-.469 1.328-.469 2.016 0 .203.031.203.25.203h1.594zm0 0"/></symbol><symbol id="aY" overflow="visible"><path d="m3.484-3.875-1.28-.297c-.626-.156-1-.687-1-1.266 0-.703.53-1.312 1.312-1.312 1.656 0 1.875 1.64 1.937 2.078.016.063.016.125.125.125.125 0 .125-.047.125-.234v-2c0-.172 0-.25-.11-.25-.062 0-.077.015-.14.14l-.36.563c-.296-.297-.702-.703-1.593-.703-1.11 0-1.938.875-1.938 1.937 0 .828.532 1.563 1.297 1.828.11.032.625.157 1.329.329.265.062.562.14.843.5.203.265.313.593.313.921 0 .704-.5 1.422-1.344 1.422-.281 0-1.047-.047-1.578-.531-.578-.547-.61-1.172-.61-1.531-.015-.11-.093-.11-.125-.11-.125 0-.125.079-.125.25v2c0 .172 0 .235.11.235.062 0 .078-.016.14-.125 0-.016.032-.047.36-.578.312.343.953.703 1.844.703 1.156 0 1.953-.969 1.953-2.078 0-.985-.657-1.813-1.485-2.016zm0 0"/></symbol><symbol id="aZ" overflow="visible"><path d="m2.078-1.938c.219.047 1.031.204 1.031.922 0 .5-.343.907-1.125.907-.843 0-1.203-.563-1.39-1.422-.031-.125-.031-.157-.14-.157-.126 0-.126.063-.126.235v1.328c0 .172 0 .234.11.234.045.001.062-.015.25-.203.015-.015.015-.031.202-.218.437.406.89.421 1.093.421 1.141 0 1.61-.671 1.61-1.39 0-.516-.297-.828-.422-.938-.328-.328-.719-.406-1.14-.484-.563-.11-1.22-.235-1.22-.813 0-.359.25-.765 1.11-.765 1.094 0 1.156.906 1.172 1.203 0 .094.094.094.11.094.14 0 .14-.047.14-.235v-1.015c0-.157 0-.235-.11-.235-.046 0-.078 0-.203.125a1.676 1.676 0 0 1 -.172.157c-.375-.282-.78-.282-.937-.282-1.219 0-1.594.672-1.594 1.235 0 .343.156.625.422.843.328.25.61.313 1.328.454zm0 0"/></symbol><symbol id="a0" overflow="visible"><path d="m6.438-6.922a.12.12 0 0 0 -.125-.11c-.047 0-.047.016-.172.157l-.485.563c-.25-.47-.765-.72-1.422-.72-1.265 0-2.453 1.157-2.453 2.36 0 .797.516 1.266 1.032 1.406l1.062.282c.375.093.922.25.922 1.062 0 .89-.813 1.828-1.797 1.828-.64 0-1.75-.218-1.75-1.453 0-.234.063-.484.063-.531.015-.047.015-.063.015-.078 0-.094-.062-.11-.11-.11a.142.142 0 0 0 -.109.047c-.029.031-.593 2.313-.593 2.344 0 .047.046.094.109.094.047 0 .063-.016.188-.157l.483-.562c.422.578 1.11.719 1.687.719 1.36 0 2.532-1.328 2.532-2.563 0-.687-.344-1.031-.485-1.172-.234-.218-.39-.265-1.265-.484-.235-.063-.579-.172-.672-.188a.928.928 0 0 1 -.61-.906c0-.812.797-1.656 1.75-1.656.813 0 1.422.438 1.422 1.547 0 .312-.031.5-.031.562 0 0 0 .094.11.094.109 0 .124-.031.156-.203zm0 0"/></symbol><symbol id="a1" overflow="visible"><path d="m7.375-4.344c0-1.61-1.063-2.687-2.547-2.687-2.14 0-4.344 2.265-4.344 4.593 0 1.658 1.126 2.658 2.563 2.658 2.11 0 4.328-2.188 4.328-4.563zm-4.281 4.297c-.985 0-1.672-.797-1.672-2.11 0-.452.14-1.905.906-3.062.688-1.047 1.656-1.562 2.453-1.562.813 0 1.703.562 1.703 2.047 0 .718-.265 2.265-1.25 3.5-.484.609-1.296 1.187-2.14 1.187zm0 0"/></symbol><symbol id="a2" overflow="visible"><path d="m7.063-2.328c.015-.047.046-.11.046-.14 0 0 0-.11-.125-.11-.093 0-.109.062-.125.125-.656 1.469-1.015 2.14-2.718 2.14h-1.672c-.11-.015-.14-.03-.14-.109 0-.031 0-.047.046-.219l.688-2.734h.984c.844 0 .844.219.844.469 0 .062 0 .187-.063.484-.016.047-.031.078-.031.11 0 .046.031.109.125.109.078 0 .11-.047.156-.203l.563-2.328c0-.063-.047-.11-.125-.11-.079 0-.11.063-.125.172-.22.766-.391 1-1.313 1h-.937l.593-2.406c.094-.36.11-.39.547-.39h1.407c1.203 0 1.515.28 1.515 1.109 0 .234 0 .25-.047.53 0 .048-.015.126-.015.173s.03.125.125.125c.109 0 .125-.063.14-.25l.203-1.735c.032-.265-.015-.265-.265-.265h-5.047c-.188 0-.297 0-.297.203 0 .11.094.11.281.11.375 0 .656 0 .656.171 0 .047 0 .063-.062.25l-1.313 5.267c-.093.39-.109.469-.906.469-.172 0-.281 0-.281.187 0 .124.094.124.281.124h5.172c.234 0 .25-.016.313-.172zm0 0"/></symbol><symbol id="a3" overflow="visible"><path d="m3.875-2.766-1.984-1.984c-.125-.125-.141-.14-.22-.14a.197.197 0 0 0 -.202.202c0 .063.015.079.125.188l2 2-2 2.016c-.11.109-.125.125-.125.187 0 .125.093.203.203.203.078 0 .094-.015.219-.14l1.984-1.986 2.063 2.064a.236.236 0 0 0 .14.062c.125 0 .203-.078.203-.203 0-.016 0-.047-.031-.11a208.102 208.102 0 0 1 -2.094-2.093l1.828-1.813c.047-.062.204-.187.25-.25 0-.015.047-.062.047-.125 0-.125-.078-.203-.203-.203-.078 0-.11.032-.219.141zm0 0"/></symbol><symbol id="a4" overflow="visible"><path d="m7.64-1.828-3.436-7.703c-.125-.313-.266-.313-.562-.313h-3.048v.625h1.515v8.172c0 .313-.015.328-.39.39-.25.032-.547.048-.797.048h-.328v.609c.328-.031 1.436-.031 1.844-.031.406 0 1.53 0 1.859.031v-.61h-.328c-.39 0-.406 0-.75-.046-.422-.063-.438-.078-.438-.39v-8h.016l3.906 8.75c.063.155.156.296.39.296.25 0 .345-.14.407-.297l3.969-8.922h.015v8.61h-1.514v.609c.39-.031 1.875-.031 2.36-.031.5 0 1.983 0 2.374.031v-.61h-1.515v-8.609h1.515v-.625h-3.062c-.297 0-.422 0-.547.313zm0 0"/></symbol><symbol id="a5" overflow="visible"><path d="m4.469-2.531v-1.313h-4.297v1.313zm0 0"/></symbol><symbol id="a6" overflow="visible"><path d="m10.328-9.703h-9.453l-.281 3.39h.594c.125-1.562.25-2.78 2.312-2.78h1.156v8.483h-2.156v.61c1.14-.031 2.625-.031 3.11-.031.874 0 1.968 0 3.109.031v-.61h-2.156v-8.484h1.14c2.063 0 2.188 1.203 2.313 2.781h.593zm0 0"/></symbol><symbol id="a7" overflow="visible"><path d="m7.61-4.39c0-1.36-.579-2.063-2.157-2.063a2.574 2.574 0 0 0 -2.36 1.453h-.015v-4.953l-2.469.11v.624c.875 0 .985 0 .985.563v8.046h-.985v.61c.329-.031 1.36-.031 1.75-.031.407 0 1.454 0 1.782.031v-.61h-.985v-3.062c0-1.547 1.14-2.312 2.063-2.312.531 0 .828.343.828 1.437v3.938h-.984v.609c.328-.031 1.359-.031 1.765-.031s1.453 0 1.781.031v-.61h-1zm0 0"/></symbol><symbol id="a8" overflow="visible"><path d="m6.484-3.172c.329 0 .422 0 .422-.36 0-.421-.11-1.5-.765-2.171-.61-.61-1.407-.797-2.235-.797-2.25 0-3.469 1.469-3.469 3.266.001 2.014 1.486 3.328 3.658 3.328 2.156 0 2.812-1.532 2.812-1.766 0-.219-.218-.219-.312-.219-.219 0-.235.047-.328.235-.375.922-1.313 1.218-2 1.218-2.079 0-2.094-1.921-2.094-2.734zm-4.312-.406c.015-.594.031-1.156.344-1.672a1.59 1.59 0 0 1 1.39-.781c1.531 0 1.656 1.734 1.672 2.453zm0 0"/></symbol><symbol id="a9" overflow="visible"><path d="m7.61-3.14c0-1.939-1.33-3.36-3.58-3.36-2.342 0-3.592 1.5-3.592 3.36 0 1.873 1.328 3.233 3.577 3.233 2.343 0 3.593-1.422 3.593-3.235zm-3.58 2.702c-1.86 0-1.86-1.672-1.86-2.844 0-.672 0-1.39.267-1.906.312-.579.968-.844 1.578-.844.812 0 1.328.39 1.578.797.281.515.281 1.265.281 1.953 0 1.187 0 2.844-1.844 2.844zm0 0"/></symbol><symbol id="ba" overflow="visible"><path d="m2.984-3.234c0-.47.094-2.75 1.782-2.75a.83.83 0 0 0 -.313.656c0 .594.484.844.844.844s.828-.25.828-.844c0-.719-.75-1.125-1.438-1.125-1.125 0-1.625.984-1.812 1.594h-.016v-1.594l-2.359.11v.624c.89 0 .984 0 .984.563v4.546h-.984v.61c.328-.031 1.406-.031 1.813-.031.406 0 1.578 0 1.921.031v-.61h-1.25zm0 0"/></symbol><symbol id="bb" overflow="visible"><path d="m7.094-5.438c.093-.203.156-.312 1.062-.312v-.625c-.484.031-.547.031-1.125.031-.39 0-.422 0-1.234-.031v.625c.016 0 .687 0 .687.188 0 .046-.046.125-.062.171l-1.672 3.611-1.844-3.97h.797v-.625c-.344.031-1.328.031-1.719.031-.421 0-1.265 0-1.64-.031v.625h.922l2.656 5.75c-.078.172-.281.594-.344.766-.312.64-.765 1.625-1.765 1.625-.063 0-.235 0-.391-.079.031-.015.453-.187.453-.734 0-.469-.344-.781-.766-.781-.453 0-.796.312-.796.797 0 .672.64 1.281 1.5 1.281 1.171 0 1.953-1.063 2.234-1.703zm0 0"/></symbol><g><use x="3.321" xlink:href="#av" y="170.169"/><use x="8.856" xlink:href="#aw" y="170.169"/><use x="13.284" xlink:href="#ax" y="170.169"/><use x="17.158" xlink:href="#aw" y="170.169"/><use x="21.585" xlink:href="#ay" y="170.169"/><use x="25.488" xlink:href="#az" y="170.169"/><use x="30.469" xlink:href="#ax" y="170.169"/><use x="34.344" xlink:href="#aA" y="170.169"/><use x="37.111" xlink:href="#aB" y="170.169"/></g><use x="6.294" xlink:href="#a0" y="182.124"/><use x="12.981" xlink:href="#a1" y="182.124"/><g><use x="20.853" xlink:href="#aC" y="182.124"/><use x="24.727" xlink:href="#aD" y="182.124"/><use x="29.709" xlink:href="#aE" y="182.124"/><use x="34.69" xlink:href="#aF" y="182.124"/></g><g><use x="60.013" xlink:href="#av" y="28.436"/><use x="65.548" xlink:href="#aw" y="28.436"/><use x="69.976" xlink:href="#ax" y="28.436"/><use x="73.85" xlink:href="#aw" y="28.436"/><use x="78.277" xlink:href="#ay" y="28.436"/><use x="82.18" xlink:href="#az" y="28.436"/><use x="87.161" xlink:href="#ax" y="28.436"/><use x="91.036" xlink:href="#aA" y="28.436"/><use x="93.803" xlink:href="#aB" y="28.436"/></g><use x="52.375" xlink:href="#a2" y="40.392"/><g><use x="60.304" xlink:href="#aC" y="40.392"/><use x="64.178" xlink:href="#aG" y="40.392"/><use x="69.16" xlink:href="#aF" y="40.392"/></g><use x="75.248" xlink:href="#a3" y="40.392"/><use x="85.211" xlink:href="#a2" y="40.392"/><g><use x="93.139" xlink:href="#aC" y="40.392"/><use x="97.013" xlink:href="#aG" y="40.392"/><use x="101.995" xlink:href="#aF" y="40.392"/></g><use x="255.547" xlink:href="#aH" y="62.982"/><g><use x="262.463" xlink:href="#aI" y="62.982"/><use x="267.721" xlink:href="#aJ" y="62.982"/></g><use x="273.535" xlink:href="#aw" y="62.982"/><use x="281.28" xlink:href="#aK" y="62.982"/><use x="285.157" xlink:href="#aK" y="62.982"/><use x="292.072" xlink:href="#aL" y="62.982"/><use x="284.101" xlink:href="#aH" y="204.714"/><g><use x="291.017" xlink:href="#aI" y="204.714"/><use x="296.275" xlink:href="#aJ" y="204.714"/></g><use x="302.089" xlink:href="#aw" y="204.714"/><use x="309.834" xlink:href="#aK" y="204.714"/><use x="313.711" xlink:href="#aK" y="204.714"/><use x="320.626" xlink:href="#aM" y="204.714"/><use x="149.494" xlink:href="#aH" y="289.753"/><g><use x="156.41" xlink:href="#aI" y="289.753"/><use x="161.668" xlink:href="#aJ" y="289.753"/></g><use x="167.482" xlink:href="#aw" y="289.753"/><use x="175.227" xlink:href="#aK" y="289.753"/><g fill="none" stroke="#000" stroke-miterlimit="10"><path d="m-143.861-13.695c-8.297 45.926 4.816 82.433 40.441 112.586" stroke-width=".3985" transform="matrix(1 0 0 -1 164.162 145.586)"/><path d="m-1.195 1.593c.098-.597 1.195-1.493 1.495-1.592-.3-.1-1.396-.998-1.496-1.595" stroke-linecap="round" stroke-linejoin="round" stroke-width=".31879" transform="matrix(.17781 .98402 .98402 -.17781 20.301 159.28)"/><path d="m-1.198 1.594c.103-.598 1.198-1.494 1.498-1.594-.3-.1-1.395-.994-1.495-1.596" stroke-linecap="round" stroke-linejoin="round" stroke-width=".31879" transform="matrix(.76326196 -.64601175 -.64601175 -.76326196 60.740879 46.696935)"/></g><g><use x="29.009" xlink:href="#aB" y="104.902"/><use x="33.436" xlink:href="#az" y="104.902"/><use x="38.418" xlink:href="#aN" y="104.902"/><use x="46.72" xlink:href="#aJ" y="104.902"/><use x="52.255" xlink:href="#aO" y="104.902"/><use x="57.236" xlink:href="#aB" y="104.902"/><use x="61.663" xlink:href="#aP" y="104.902"/></g><g><use x="27.625" xlink:href="#ax" y="116.857"/><use x="31.499" xlink:href="#aA" y="116.857"/><use x="34.267" xlink:href="#aQ" y="116.857"/><use x="39.802" xlink:href="#aB" y="116.857"/><use x="44.23" xlink:href="#aO" y="116.857"/><use x="49.211" xlink:href="#ax" y="116.857"/><use x="53.085" xlink:href="#aA" y="116.857"/><use x="55.853" xlink:href="#az" y="116.857"/><use x="60.834" xlink:href="#aR" y="116.857"/></g><path d="m-54.338 125.645c59.48 19.746 110.5 9.234 157.34-32.407" fill="none" stroke="#000" stroke-miterlimit="10" stroke-width=".3985" transform="matrix(1 0 0 -1 164.162 145.586)"/><path d="m-1.196 1.596c.101-.601 1.196-1.496 1.496-1.595-.301-.102-1.397-.998-1.496-1.595" style="fill:none;stroke-width:.31879;stroke-linecap:round;stroke-linejoin:round;stroke:#000;stroke-miterlimit:10" transform="matrix(-.94905 .31499 .31499 .94905 109.824 19.94)"/><path d="m-1.196 1.594c.1-.596 1.196-1.494 1.496-1.594-.3-.099-1.395-.995-1.494-1.595" style="fill:none;stroke-width:.31879;stroke-linecap:round;stroke-linejoin:round;stroke:#000;stroke-miterlimit:10" transform="matrix(.7473 .66438 .66438 -.7473 267.163 52.349)"/><g><use x="149.271" xlink:href="#aS" y="23.621"/><use x="158.404" xlink:href="#aP" y="23.621"/><use x="161.724" xlink:href="#ax" y="23.621"/><use x="165.599" xlink:href="#av" y="23.621"/><use x="171.134" xlink:href="#aw" y="23.621"/><use x="175.561" xlink:href="#az" y="23.621"/><use x="180.543" xlink:href="#ay" y="23.621"/><use x="184.445" xlink:href="#aI" y="23.621"/></g><path d="m120.62 76.8c32.445-37.558 40.234-78.292 23.929-125.167" fill="none" stroke="#000" stroke-miterlimit="10" stroke-width=".3985" transform="matrix(1 0 0 -1 164.162 145.586)"/><path d="m-1.194 1.594c.099-.596 1.192-1.494 1.493-1.594-.299-.1-1.393-.996-1.496-1.594" style="fill:none;stroke-width:.31879;stroke-linecap:round;stroke-linejoin:round;stroke:#000;stroke-miterlimit:10" transform="matrix(-.65372443 -.75673269 -.75673269 .65372443 284.793176 68.787746)"/><path d="m-1.196 1.593c.1-.598 1.198-1.494 1.496-1.593-.3-.1-1.395-.994-1.496-1.596" style="fill:none;stroke-width:.31879;stroke-linecap:round;stroke-linejoin:round;stroke:#000;stroke-miterlimit:10" transform="matrix(-.32848 .94447 .94447 .32848 308.712 193.954)"/><g><use x="270.491" xlink:href="#aH" y="138.324"/><use x="277.686" xlink:href="#aP" y="138.324"/><use x="281.007" xlink:href="#aT" y="138.324"/><use x="286.542" xlink:href="#aU" y="138.324"/><use x="292.077" xlink:href="#aO" y="138.324"/><use x="297.058" xlink:href="#aV" y="138.324"/><use x="299.826" xlink:href="#aA" y="138.324"/><use x="302.593" xlink:href="#ax" y="138.324"/></g><use x="306.189" xlink:href="#aI" y="138.324"/><path d="m137.15-64.992c-25.167-49.008-63.48-73.708-118.503-76.414" fill="none" stroke="#000" stroke-miterlimit="10" stroke-width=".3985" transform="matrix(1 0 0 -1 164.162 145.586)"/><path d="m-1.195 1.595c.1-.598 1.193-1.494 1.495-1.594-.3-.101-1.394-.997-1.496-1.594" style="fill:none;stroke-width:.31879;stroke-linecap:round;stroke-linejoin:round;stroke:#000;stroke-miterlimit:10" transform="matrix(.45686688 -.88950135 -.88950135 -.45686688 301.311996 210.581193)"/><path d="m-1.195 1.592c.1-.595 1.195-1.494 1.495-1.59-.3-.105-1.395-1.001-1.495-1.599" style="fill:none;stroke-width:.31879;stroke-linecap:round;stroke-linejoin:round;stroke:#000;stroke-miterlimit:10" transform="matrix(-.99875 .04907 .04907 .99875 182.807 286.992)"/><g><use x="205.397" xlink:href="#az" y="250.624"/><use x="210.378" xlink:href="#ay" y="250.624"/><use x="214.281" xlink:href="#aA" y="250.624"/><use x="217.048" xlink:href="#aw" y="250.624"/><use x="221.476" xlink:href="#aR" y="250.624"/></g><g><use x="226.732" xlink:href="#ax" y="250.624"/><use x="230.606" xlink:href="#aA" y="250.624"/><use x="233.374" xlink:href="#aW" y="250.624"/><use x="236.419" xlink:href="#az" y="250.624"/><use x="241.4" xlink:href="#aV" y="250.624"/><use x="244.167" xlink:href="#aT" y="250.624"/></g><g><use x="209.009" xlink:href="#aO" y="262.579"/><use x="213.99" xlink:href="#aB" y="262.579"/><use x="218.418" xlink:href="#ax" y="262.579"/><use x="222.292" xlink:href="#aA" y="262.579"/><use x="225.06" xlink:href="#az" y="262.579"/><use x="230.041" xlink:href="#aR" y="262.579"/></g><use x="238.894" xlink:href="#aX" y="262.579"/><path d="m-18.639-138.898c-58.203 9.48-96.5 40.777-117.386 95.921" fill="none" stroke="#000" stroke-miterlimit="10" stroke-width=".3985" transform="matrix(1 0 0 -1 164.162 145.586)"/><path d="m-1.197 1.593c.102-.597 1.197-1.491 1.495-1.593-.298-.1-1.394-.995-1.494-1.593" style="fill:none;stroke-width:.31879;stroke-linecap:round;stroke-linejoin:round;stroke:#000;stroke-miterlimit:10" transform="matrix(.98695 .16077 .16077 -.98695 145.523 284.483)"/><path d="m-1.196 1.593c.1-.598 1.197-1.494 1.493-1.594-.297-.099-1.392-.997-1.493-1.594" style="fill:none;stroke-width:.31879;stroke-linecap:round;stroke-linejoin:round;stroke:#000;stroke-miterlimit:10" transform="matrix(-.35423 -.9351 -.9351 .35423 28.136 188.564)"/><g><use x="76.394" xlink:href="#aY" y="248.144"/><use x="81.929" xlink:href="#aP" y="248.144"/><use x="85.25" xlink:href="#aT" y="248.144"/><use x="90.785" xlink:href="#aU" y="248.144"/><use x="96.32" xlink:href="#aO" y="248.144"/><use x="101.301" xlink:href="#aV" y="248.144"/><use x="104.069" xlink:href="#aA" y="248.144"/><use x="106.837" xlink:href="#ax" y="248.144"/></g><use x="110.432" xlink:href="#aI" y="248.144"/><g clip-path="url(#a)"><g clip-path="url(#b)"><path d="m-114.853-28.348a4.253 4.253 0 0 1 -4.25 4.254 4.256 4.256 0 0 1 -4.254-4.254 4.253 4.253 0 0 1 8.504 0zm0 0" fill="none" stroke="#00008b" stroke-miterlimit="10" stroke-width=".3985" transform="matrix(1 0 0 -1 164.162 145.586)"/></g></g><g clip-path="url(#c)"><g clip-path="url(#d)"><path d="m-110.6-28.348c0 4.7-3.808 8.504-8.503 8.504a8.5 8.5 0 0 1 -8.504-8.504 8.503 8.503 0 0 1 8.504-8.504 8.506 8.506 0 0 1 8.503 8.504zm0 0" fill="none" stroke="#00008b" stroke-miterlimit="10" stroke-width=".3985" transform="matrix(1 0 0 -1 164.162 145.586)"/></g></g><g clip-path="url(#e)"><g clip-path="url(#f)"><path d="m-106.35-28.348c0 7.047-5.71 12.758-12.753 12.758-7.047 0-12.758-5.71-12.758-12.758 0-7.043 5.71-12.754 12.758-12.754 7.043 0 12.753 5.711 12.753 12.754zm0 0" fill="none" stroke="#00008b" stroke-miterlimit="10" stroke-width=".3985" transform="matrix(1 0 0 -1 164.162 145.586)"/></g></g><g clip-path="url(#g)"><g clip-path="url(#h)"><path d="m-102.1-28.348c0 9.395-7.613 17.008-17.003 17.008-9.395 0-17.008-7.613-17.008-17.008 0-9.39 7.613-17.007 17.008-17.007 9.39 0 17.003 7.617 17.003 17.007zm0 0" fill="none" stroke="#00008b" stroke-miterlimit="10" stroke-width=".3985" transform="matrix(1 0 0 -1 164.162 145.586)"/></g></g><g clip-path="url(#i)"><g clip-path="url(#j)"><path d="m-97.846-28.348c0 11.743-9.52 21.262-21.257 21.262-11.743 0-21.262-9.52-21.262-21.262s9.52-21.257 21.262-21.257c11.738 0 21.257 9.515 21.257 21.257zm0 0" fill="none" stroke="#00008b" stroke-miterlimit="10" stroke-width=".3985" transform="matrix(1 0 0 -1 164.162 145.586)"/></g></g><g clip-path="url(#k)"><g clip-path="url(#l)"><path d="m-93.596-28.348c0 14.09-11.418 25.512-25.507 25.512-14.09 0-25.512-11.422-25.512-25.512s11.422-25.511 25.512-25.511 25.507 11.422 25.507 25.511zm0 0" fill="none" stroke="#00008b" stroke-miterlimit="10" stroke-width=".3985" transform="matrix(1 0 0 -1 164.162 145.586)"/></g></g><g clip-path="url(#m)"><g clip-path="url(#n)"><path d="m-80.787 99.184a4.256 4.256 0 0 1 -4.254 4.254 4.253 4.253 0 1 1 4.254-4.254zm0 0" fill="none" stroke="#00008b" stroke-miterlimit="10" stroke-width=".3985" transform="matrix(1 0 0 -1 164.162 145.586)"/></g></g><g clip-path="url(#o)"><g clip-path="url(#p)"><path d="m-76.537 99.184a8.504 8.504 0 0 1 -8.504 8.504 8.503 8.503 0 0 1 -8.504-8.504 8.506 8.506 0 0 1 8.504-8.504 8.506 8.506 0 0 1 8.504 8.504zm0 0" fill="none" stroke="#00008b" stroke-miterlimit="10" stroke-width=".3985" transform="matrix(1 0 0 -1 164.162 145.586)"/></g></g><g clip-path="url(#q)"><g clip-path="url(#r)"><path d="m-72.283 99.184c0 7.047-5.711 12.757-12.758 12.757-7.043 0-12.754-5.71-12.754-12.757 0-7.043 5.711-12.754 12.754-12.754 7.047 0 12.758 5.71 12.758 12.754zm0 0" fill="none" stroke="#00008b" stroke-miterlimit="10" stroke-width=".3985" transform="matrix(1 0 0 -1 164.162 145.586)"/></g></g><g clip-path="url(#s)"><g clip-path="url(#t)"><path d="m-68.033 99.184c0 9.394-7.613 17.007-17.008 17.007-9.394 0-17.008-7.613-17.008-17.007 0-9.391 7.614-17.008 17.008-17.008 9.395 0 17.008 7.617 17.008 17.008zm0 0" fill="none" stroke="#00008b" stroke-miterlimit="10" stroke-width=".3985" transform="matrix(1 0 0 -1 164.162 145.586)"/></g></g><g clip-path="url(#u)"><g clip-path="url(#v)"><path d="m-63.783 99.184c0 11.742-9.516 21.261-21.258 21.261s-21.258-9.52-21.258-21.261c0-11.739 9.516-21.258 21.258-21.258s21.258 9.52 21.258 21.258zm0 0" fill="none" stroke="#00008b" stroke-miterlimit="10" stroke-width=".3985" transform="matrix(1 0 0 -1 164.162 145.586)"/></g></g><g clip-path="url(#w)"><g clip-path="url(#x)"><path d="m-59.53 99.184c0 14.09-11.421 25.511-25.51 25.511-14.09 0-25.513-11.421-25.513-25.511s11.423-25.508 25.513-25.508 25.512 11.418 25.512 25.508zm0 0" fill="none" stroke="#00008b" stroke-miterlimit="10" stroke-width=".3985" transform="matrix(1 0 0 -1 164.162 145.586)"/></g></g><g clip-path="url(#y)"><g clip-path="url(#z)"><path d="m117.639 77.148a4.25 4.25 0 0 1 -4.25 4.25 4.25 4.25 0 0 1 -4.254-4.25 4.253 4.253 0 1 1 8.504 0zm0 0" fill="none" stroke="#00008b" stroke-miterlimit="10" stroke-width=".3985" transform="matrix(1 0 0 -1 164.162 145.586)"/></g></g><g clip-path="url(#A)"><g clip-path="url(#B)"><path d="m121.893 77.148a8.506 8.506 0 0 1 -8.504 8.504 8.503 8.503 0 0 1 -8.504-8.504 8.503 8.503 0 0 1 8.504-8.503 8.506 8.506 0 0 1 8.504 8.504zm0 0" fill="none" stroke="#00008b" stroke-miterlimit="10" stroke-width=".3985" transform="matrix(1 0 0 -1 164.162 145.586)"/></g></g><g clip-path="url(#C)"><g clip-path="url(#D)"><path d="m126.143 77.148c0 7.043-5.711 12.754-12.754 12.754-7.047 0-12.758-5.71-12.758-12.754 0-7.046 5.71-12.757 12.758-12.757 7.043 0 12.754 5.71 12.754 12.757zm0 0" fill="none" stroke="#00008b" stroke-miterlimit="10" stroke-width=".3985" transform="matrix(1 0 0 -1 164.162 145.586)"/></g></g><g clip-path="url(#E)"><g clip-path="url(#F)"><path d="m130.397 77.148c0 9.395-7.618 17.008-17.008 17.008-9.395 0-17.008-7.613-17.008-17.008 0-9.394 7.613-17.007 17.008-17.007 9.39 0 17.008 7.613 17.008 17.008zm0 0" fill="none" stroke="#00008b" stroke-miterlimit="10" stroke-width=".3985" transform="matrix(1 0 0 -1 164.162 145.586)"/></g></g><g clip-path="url(#G)"><g clip-path="url(#H)"><path d="m134.647 77.148c0 11.743-9.52 21.258-21.258 21.258-11.742 0-21.262-9.515-21.262-21.258 0-11.742 9.52-21.257 21.262-21.257 11.738 0 21.258 9.515 21.258 21.258zm0 0" fill="none" stroke="#00008b" stroke-miterlimit="10" stroke-width=".3985" transform="matrix(1 0 0 -1 164.162 145.586)"/></g></g><g clip-path="url(#I)"><g clip-path="url(#J)"><path d="m138.897 77.148c0 14.09-11.418 25.512-25.508 25.512s-25.512-11.422-25.512-25.51c0-14.09 11.422-25.512 25.512-25.512s25.508 11.422 25.508 25.511zm0 0" fill="none" stroke="#00008b" stroke-miterlimit="10" stroke-width=".3985" transform="matrix(1 0 0 -1 164.162 145.586)"/></g></g><g clip-path="url(#K)"><g clip-path="url(#L)"><path d="m120.674-56.695a4.254 4.254 0 0 1 -4.254 4.254 4.25 4.25 0 0 1 -4.25-4.254 4.253 4.253 0 0 1 8.504 0zm0 0" fill="none" stroke="#00008b" stroke-miterlimit="10" stroke-width=".3985" transform="matrix(1 0 0 -1 164.162 145.586)"/></g></g><g clip-path="url(#M)"><g clip-path="url(#N)"><path d="m124.924-56.695a8.504 8.504 0 0 1 -8.504 8.504 8.503 8.503 0 0 1 -8.504-8.504 8.506 8.506 0 0 1 8.504-8.504 8.506 8.506 0 0 1 8.504 8.504zm0 0" fill="none" stroke="#00008b" stroke-miterlimit="10" stroke-width=".3985" transform="matrix(1 0 0 -1 164.162 145.586)"/></g></g><g clip-path="url(#O)"><g clip-path="url(#P)"><path d="m129.178-56.695c0 7.047-5.711 12.758-12.758 12.758-7.043 0-12.754-5.711-12.754-12.758 0-7.043 5.711-12.754 12.754-12.754 7.047 0 12.758 5.71 12.758 12.754zm0 0" fill="none" stroke="#00008b" stroke-miterlimit="10" stroke-width=".3985" transform="matrix(1 0 0 -1 164.162 145.586)"/></g></g><g clip-path="url(#Q)"><g clip-path="url(#R)"><path d="m133.428-56.695c0 9.394-7.613 17.008-17.008 17.008-9.39 0-17.008-7.614-17.008-17.008 0-9.39 7.617-17.004 17.008-17.004 9.395 0 17.008 7.613 17.008 17.004zm0 0" fill="none" stroke="#00008b" stroke-miterlimit="10" stroke-width=".3985" transform="matrix(1 0 0 -1 164.162 145.586)"/></g></g><g clip-path="url(#S)"><g clip-path="url(#T)"><path d="m137.682-56.695c0 11.742-9.52 21.261-21.262 21.261s-21.258-9.52-21.258-21.261c0-11.739 9.516-21.258 21.258-21.258s21.262 9.52 21.262 21.258zm0 0" fill="none" stroke="#00008b" stroke-miterlimit="10" stroke-width=".3985" transform="matrix(1 0 0 -1 164.162 145.586)"/></g></g><g clip-path="url(#U)"><g clip-path="url(#V)"><path d="m141.932-56.695c0 14.09-11.422 25.511-25.512 25.511s-25.512-11.421-25.512-25.511 11.422-25.508 25.512-25.508 25.512 11.418 25.512 25.508zm0 0" fill="none" stroke="#00008b" stroke-miterlimit="10" stroke-width=".3985" transform="matrix(1 0 0 -1 164.162 145.586)"/></g></g><g clip-path="url(#W)"><g clip-path="url(#X)"><path d="m4.252-133.844a4.251 4.251 0 0 1 -4.254 4.254 4.25 4.25 0 0 1 -4.25-4.254 4.25 4.25 0 0 1 4.25-4.25 4.25 4.25 0 0 1 4.254 4.25zm0 0" fill="none" stroke="#00008b" stroke-miterlimit="10" stroke-width=".3985" transform="matrix(1 0 0 -1 164.162 145.586)"/></g></g><g clip-path="url(#Y)"><g clip-path="url(#Z)"><path d="m8.502-133.844a8.5 8.5 0 0 1 -8.504 8.504 8.5 8.5 0 0 1 -8.5-8.504 8.5 8.5 0 0 1 8.5-8.5 8.5 8.5 0 0 1 8.504 8.5zm0 0" fill="none" stroke="#00008b" stroke-miterlimit="10" stroke-width=".3985" transform="matrix(1 0 0 -1 164.162 145.586)"/></g></g><g clip-path="url(#aa)"><g clip-path="url(#ab)"><path d="m12.756-133.844c0 7.047-5.711 12.758-12.758 12.758-7.043 0-12.754-5.71-12.754-12.758 0-7.043 5.711-12.754 12.754-12.754 7.047 0 12.758 5.711 12.758 12.754zm0 0" fill="none" stroke="#00008b" stroke-miterlimit="10" stroke-width=".3985" transform="matrix(1 0 0 -1 164.162 145.586)"/></g></g><g clip-path="url(#ac)"><g clip-path="url(#ad)"><path d="m17.006-133.844c0 9.395-7.613 17.008-17.008 17.008-9.39 0-17.004-7.613-17.004-17.008 0-9.39 7.614-17.004 17.004-17.004 9.395 0 17.008 7.614 17.008 17.004zm0 0" fill="none" stroke="#00008b" stroke-miterlimit="10" stroke-width=".3985" transform="matrix(1 0 0 -1 164.162 145.586)"/></g></g><g clip-path="url(#ae)"><g clip-path="url(#af)"><path d="m21.26-133.844c0 11.742-9.52 21.262-21.262 21.262-11.738 0-21.258-9.52-21.258-21.262 0-11.738 9.52-21.257 21.258-21.257 11.742 0 21.262 9.519 21.262 21.257zm0 0" fill="none" stroke="#00008b" stroke-miterlimit="10" stroke-width=".3985" transform="matrix(1 0 0 -1 164.162 145.586)"/></g></g><g clip-path="url(#ag)"><g clip-path="url(#ah)"><path d="m25.51-133.844c0 14.09-11.422 25.512-25.512 25.512-14.086 0-25.508-11.422-25.508-25.512 0-14.086 11.422-25.507 25.508-25.507 14.09 0 25.512 11.421 25.512 25.507zm0 0" fill="none" stroke="#00008b" stroke-miterlimit="10" stroke-width=".3985" transform="matrix(1 0 0 -1 164.162 145.586)"/></g></g><g clip-path="url(#ai)"><g clip-path="url(#aj)"><path d="m-114.853-28.348a4.253 4.253 0 0 1 -4.25 4.254 4.256 4.256 0 0 1 -4.254-4.254 4.253 4.253 0 0 1 8.504 0zm0 0" fill="none" stroke="#00008b" stroke-miterlimit="10" stroke-width=".3985" transform="matrix(1 0 0 -1 164.162 145.586)"/></g></g><g clip-path="url(#ak)"><g clip-path="url(#al)"><path d="m-110.6-28.348c0 4.7-3.808 8.504-8.503 8.504a8.5 8.5 0 0 1 -8.504-8.504 8.503 8.503 0 0 1 8.504-8.504 8.506 8.506 0 0 1 8.503 8.504zm0 0" fill="none" stroke="#00008b" stroke-miterlimit="10" stroke-width=".3985" transform="matrix(1 0 0 -1 164.162 145.586)"/></g></g><g clip-path="url(#am)"><g clip-path="url(#an)"><path d="m-106.35-28.348c0 7.047-5.71 12.758-12.753 12.758-7.047 0-12.758-5.71-12.758-12.758 0-7.043 5.71-12.754 12.758-12.754 7.043 0 12.753 5.711 12.753 12.754zm0 0" fill="none" stroke="#00008b" stroke-miterlimit="10" stroke-width=".3985" transform="matrix(1 0 0 -1 164.162 145.586)"/></g></g><g clip-path="url(#ao)"><g clip-path="url(#ap)"><path d="m-102.1-28.348c0 9.395-7.613 17.008-17.003 17.008-9.395 0-17.008-7.613-17.008-17.008 0-9.39 7.613-17.007 17.008-17.007 9.39 0 17.003 7.617 17.003 17.007zm0 0" fill="none" stroke="#00008b" stroke-miterlimit="10" stroke-width=".3985" transform="matrix(1 0 0 -1 164.162 145.586)"/></g></g><g clip-path="url(#aq)"><g clip-path="url(#ar)"><path d="m-97.846-28.348c0 11.743-9.52 21.262-21.257 21.262-11.743 0-21.262-9.52-21.262-21.262s9.52-21.257 21.262-21.257c11.738 0 21.257 9.515 21.257 21.257zm0 0" fill="none" stroke="#00008b" stroke-miterlimit="10" stroke-width=".3985" transform="matrix(1 0 0 -1 164.162 145.586)"/></g></g><g clip-path="url(#as)"><g clip-path="url(#at)"><path d="m-93.596-28.348c0 14.09-11.418 25.512-25.507 25.512-14.09 0-25.512-11.422-25.512-25.512s11.422-25.511 25.512-25.511 25.507 11.422 25.507 25.511zm0 0" fill="none" stroke="#00008b" stroke-miterlimit="10" stroke-width=".3985" transform="matrix(1 0 0 -1 164.162 145.586)"/></g></g><path d="m45.059 173.934c36.41-36.474 47.441-77.762 34.061-127.532 62.82 46.207 127 53.336 198.43 22.035-25.164 45.958-24.188 89.07 3.031 133.844-54.418 3.356-92.121 28.34-116.422 77.149-19.691-58.97-58.191-93.067-119.101-105.496" fill="#808080" fill-opacity=".3"/><g clip-path="url(#au)"><path d="m-119.103-28.348c36.41 36.473 47.441 77.762 34.062 127.532 62.82-46.207 127-53.336 198.43-22.035-25.164-45.959-24.189-89.07 3.031-133.844-54.418-3.356-92.121-28.34-116.422-77.149-19.691 58.97-58.191 93.067-119.101 105.496" fill="none" stroke="#808080" stroke-miterlimit="10" stroke-width="1.19553" transform="matrix(1 0 0 -1 164.162 145.586)"/></g><g><use x="123.01" xlink:href="#aJ" y="137.383"/><use x="128.545" xlink:href="#aO" y="137.383"/><use x="133.527" xlink:href="#ay" y="137.383"/><use x="137.429" xlink:href="#aO" y="137.383"/><use x="142.41" xlink:href="#aN" y="137.383"/><use x="150.712" xlink:href="#aw" y="137.383"/><use x="155.139" xlink:href="#ax" y="137.383"/><use x="159.014" xlink:href="#aw" y="137.383"/><use x="163.441" xlink:href="#ay" y="137.383"/></g><g><use x="170.661" xlink:href="#aZ" y="137.383"/><use x="174.59" xlink:href="#aJ" y="137.383"/><use x="180.126" xlink:href="#aO" y="137.383"/><use x="185.107" xlink:href="#aB" y="137.383"/><use x="189.534" xlink:href="#aw" y="137.383"/></g><g><use x="197.289" xlink:href="#az" y="137.383"/><use x="202.27" xlink:href="#aW" y="137.383"/></g><g><use x="128.338" xlink:href="#a4" y="157.917"/><use x="143.647" xlink:href="#a5" y="157.917"/><use x="149.027" xlink:href="#a6" y="157.917"/><use x="160.251" xlink:href="#a7" y="157.917"/><use x="169.217" xlink:href="#a8" y="157.917"/><use x="176.581" xlink:href="#a9" y="157.917"/><use x="184.651" xlink:href="#ba" y="157.917"/><use x="191.243" xlink:href="#bb" y="157.917"/></g></svg>