<svg xmlns="http://www.w3.org/2000/svg" xmlns:xlink="http://www.w3.org/1999/xlink" width="441.344" height="393.348" viewBox="0 0 331.008 295.011"><defs><symbol overflow="visible" id="a"><path d="M1.094-.75c0 .438-.11.438-.782.438V0c.36-.016.86-.031 1.141-.031.25 0 .766.015 1.11.031v-.313c-.672 0-.782 0-.782-.437v-1.844c0-1.031.719-1.594 1.344-1.594.64 0 .75.532.75 1.11V-.75c0 .438-.11.438-.781.438V0c.344-.016.86-.031 1.125-.031.25 0 .781.015 1.11.031v-.313c-.516 0-.766 0-.766-.296v-1.907c0-.859 0-1.156-.313-1.515-.14-.172-.469-.375-1.047-.375-.844 0-1.281.593-1.453.984v-3.5l-1.438.11v.312c.704 0 .782.063.782.563zm0 0"/></symbol><symbol overflow="visible" id="b"><path d="M1.11-2.516C1.171-4 2.015-4.25 2.36-4.25c1.015 0 1.124 1.344 1.124 1.734zm0 .22h2.78c.22 0 .25 0 .25-.22 0-.984-.546-1.953-1.78-1.953C1.202-4.469.28-3.437.28-2.187.281-.86 1.328.108 2.47.108 3.688.11 4.14-1 4.14-1.187c0-.094-.079-.125-.141-.125-.078 0-.11.062-.125.14C3.531-.14 2.625-.14 2.531-.14c-.5 0-.89-.296-1.125-.671-.297-.47-.297-1.125-.297-1.485zm0 0"/></symbol><symbol overflow="visible" id="c"><path d="M1.719-3.984h1.437v-.313H1.72v-1.828h-.25c0 .813-.297 1.875-1.282 1.922v.219h.844v2.75c0 1.218.938 1.343 1.297 1.343.703 0 .985-.703.985-1.343v-.563h-.25v.547c0 .734-.297 1.11-.672 1.11-.672 0-.672-.907-.672-1.079zm0 0"/></symbol><symbol overflow="visible" id="d"><path d="M1.672-3.313v-1.093l-1.39.11v.312c.702 0 .78.062.78.562V-.75c0 .438-.109.438-.78.438V0c.39-.016.859-.031 1.14-.031.39 0 .86 0 1.266.031v-.313h-.22c-.734 0-.75-.109-.75-.468v-1.531c0-.985.423-1.876 1.173-1.876.062 0 .093 0 .109.016-.031 0-.234.125-.234.39 0 .266.218.423.437.423a.421.421 0 0 0 .422-.438c0-.312-.313-.61-.734-.61-.735 0-1.094.673-1.22 1.095zm0 0"/></symbol><symbol overflow="visible" id="e"><path d="M4.688-2.14c0-1.266-.985-2.329-2.188-2.329C1.25-4.469.281-3.375.281-2.14A2.22 2.22 0 0 0 2.484.11c1.204 0 2.204-.984 2.204-2.25zM2.5-.14c-.438 0-.875-.204-1.14-.672-.25-.438-.25-1.047-.25-1.407 0-.39 0-.922.234-1.36a1.347 1.347 0 0 1 1.14-.671c.438 0 .86.219 1.125.656.266.422.266 1 .266 1.375 0 .36 0 .906-.219 1.344-.234.453-.672.734-1.156.734zm0 0"/></symbol><symbol overflow="visible" id="f"><path d="M1.766-4.406l-1.391.11v.312c.64 0 .734.062.734.546V-.75c0 .438-.109.438-.78.438V0c.312-.016.859-.031 1.093-.031.36 0 .703.015 1.047.031v-.313c-.672 0-.703-.046-.703-.437zm.03-1.735a.514.514 0 0 0-.515-.53.537.537 0 0 0-.531.53c0 .266.219.532.531.532a.514.514 0 0 0 .516-.532zm0 0"/></symbol><symbol overflow="visible" id="g"><path d="M1.172-2.172c0-1.625.812-2.047 1.344-2.047.093 0 .718.016 1.062.375-.406.031-.469.328-.469.453 0 .266.188.454.454.454.265 0 .468-.157.468-.47 0-.671-.765-1.062-1.531-1.062C1.25-4.469.344-3.39.344-2.156c0 1.281.984 2.265 2.14 2.265 1.329 0 1.657-1.203 1.657-1.296 0-.094-.11-.094-.141-.094-.078 0-.11.031-.125.093C3.594-.265 2.937-.14 2.578-.14c-.531 0-1.406-.421-1.406-2.03zm0 0"/></symbol><symbol overflow="visible" id="j"><path d="M3.297 2.39c0-.03 0-.046-.172-.218C1.891.922 1.562-.968 1.562-2.5c0-1.734.375-3.469 1.61-4.703.125-.125.125-.14.125-.172 0-.078-.031-.11-.094-.11-.11 0-1 .688-1.594 1.954C1.11-4.438.984-3.328.984-2.5c0 .781.11 1.984.657 3.125C2.25 1.844 3.094 2.5 3.203 2.5c.063 0 .094-.031.094-.11zm0 0"/></symbol><symbol overflow="visible" id="k"><path d="M2.89-3.516c.813-.265 1.391-.953 1.391-1.75 0-.812-.875-1.375-1.828-1.375-1 0-1.765.594-1.765 1.36 0 .328.218.515.515.515.297 0 .5-.218.5-.515 0-.485-.469-.485-.61-.485.298-.5.954-.625 1.313-.625.422 0 .969.22.969 1.11 0 .125-.031.703-.281 1.14-.297.485-.64.516-.89.516a3.29 3.29 0 0 1-.392.031c-.078.016-.14.031-.14.125 0 .11.062.11.234.11h.438c.812 0 1.187.671 1.187 1.656 0 1.36-.687 1.64-1.125 1.64-.437 0-1.187-.171-1.531-.75.344.047.656-.171.656-.546a.537.537 0 0 0-.547-.563c-.25 0-.562.14-.562.578C.422-.437 1.344.22 2.437.22c1.22 0 2.126-.906 2.126-1.922 0-.813-.641-1.594-1.672-1.813zm0 0"/></symbol><symbol overflow="visible" id="l"><path d="M1.266-.766l1.062-1.03c1.547-1.376 2.14-1.907 2.14-2.907 0-1.14-.89-1.938-2.109-1.938C1.234-6.64.5-5.719.5-4.828c0 .547.5.547.531.547.172 0 .516-.11.516-.532a.513.513 0 0 0-.531-.515c-.079 0-.094 0-.125.016.218-.657.765-1.016 1.343-1.016.907 0 1.329.812 1.329 1.625 0 .797-.485 1.578-1.047 2.203L.609-.375C.5-.265.5-.235.5 0h3.703l.266-1.734h-.235C4.172-1.438 4.11-1 4-.844c-.063.078-.719.078-.938.078zm0 0"/></symbol><symbol overflow="visible" id="m"><path d="M2.875-2.5c0-.766-.11-1.969-.656-3.11C1.625-6.827.766-7.483.672-7.483a.107.107 0 0 0-.11.109c0 .031 0 .047.188.234.984.985 1.547 2.563 1.547 4.641 0 1.719-.36 3.469-1.594 4.719-.14.125-.14.14-.14.172 0 .062.046.109.109.109.094 0 1-.688 1.578-1.953.516-1.094.625-2.203.625-3.047zm0 0"/></symbol><symbol overflow="visible" id="o"><path d="M1.625-4.563c-.453-.296-.5-.625-.5-.796 0-.61.656-1.032 1.36-1.032.718 0 1.359.516 1.359 1.235 0 .578-.39 1.047-.985 1.39zm1.453.954c.719-.375 1.203-.891 1.203-1.547 0-.922-.875-1.485-1.781-1.485-1 0-1.813.735-1.813 1.672 0 .172.016.625.438 1.094.11.11.484.36.734.531C1.281-3.047.422-2.5.422-1.5.422-.453 1.438.219 2.484.219c1.125 0 2.079-.828 2.079-1.89 0-.36-.11-.813-.5-1.235-.188-.203-.344-.297-.985-.703zm-1 .421l1.235.782c.28.187.75.484.75 1.094 0 .734-.75 1.25-1.563 1.25C1.64-.063.922-.672.922-1.5c0-.578.312-1.219 1.156-1.688zm0 0"/></symbol><symbol overflow="visible" id="q"><path d="M6.64-6.75H.548L.359-4.5h.25C.75-6.11.891-6.438 2.406-6.438c.172 0 .438 0 .531.016.22.047.22.156.22.375V-.78c0 .328 0 .469-1.048.469h-.406V0c.406-.031 1.422-.031 1.89-.031.454 0 1.485 0 1.891.031v-.313h-.406c-1.047 0-1.047-.14-1.047-.468v-5.266c0-.187 0-.328.188-.375.11-.016.375-.016.562-.016 1.516 0 1.657.329 1.797 1.938h.25zm0 0"/></symbol><symbol overflow="visible" id="r"><path d="M4.14-3.344c.25-.64.766-.64.923-.64v-.313c-.235.016-.516.031-.75.031-.172 0-.641-.015-.86-.03v.312c.313 0 .469.171.469.421 0 .11-.016.126-.063.25L2.844-.874 1.75-3.547c-.047-.11-.063-.14-.063-.187 0-.25.36-.25.563-.25v-.313c-.266.016-.922.031-1.094.031-.265 0-.672-.015-.968-.03v.312c.484 0 .671 0 .812.343L2.5 0a6.764 6.764 0 0 0-.25.594c-.219.547-.5 1.234-1.14 1.234-.048 0-.282 0-.47-.187.313-.032.391-.25.391-.422C1.031.969.844.812.61.812c-.203 0-.421.125-.421.422 0 .454.421.813.921.813.625 0 1.032-.578 1.266-1.14zm0 0"/></symbol><symbol overflow="visible" id="s"><path d="M1.719-3.75v-.656l-1.438.11v.312c.703 0 .781.062.781.5v4.656c0 .453-.109.453-.78.453v.313c.343-.016.859-.032 1.109-.032.28 0 .78.016 1.125.032v-.313c-.657 0-.766 0-.766-.453V-.594c.047.172.469.703 1.219.703 1.187 0 2.219-.984 2.219-2.265 0-1.266-.954-2.25-2.079-2.25-.78 0-1.203.437-1.39.656zm.031 2.61v-2.22c.281-.515.766-.796 1.281-.796.735 0 1.328.875 1.328 2C4.36-.953 3.672-.11 2.938-.11c-.407 0-.782-.204-1.047-.61-.141-.203-.141-.219-.141-.422zm0 0"/></symbol><symbol overflow="visible" id="t"><path d="M2.25-6.031c0-.36.016-.469.813-.469h.25v-.313c-.344.032-1.126.032-1.516.032-.375 0-1.172 0-1.516-.032v.313h.25c.797 0 .828.11.828.469v5.25c0 .36-.03.469-.828.469h-.25V0c.344-.031 1.14-.031 1.516-.031.39 0 1.172 0 1.516.031v-.313h-.25c-.797 0-.813-.109-.813-.468zm0 0"/></symbol><symbol overflow="visible" id="u"><path d="M3.969-6.938c-.047-.125-.078-.203-.235-.203-.156 0-.187.063-.234.204L1.437-.984C1.25-.47.86-.313.313-.313V0c.235-.016.672-.031 1.016-.031.313 0 .828.015 1.156.031v-.313c-.5 0-.75-.25-.75-.5 0-.03.016-.14.016-.156l.469-1.297h2.453L5.203-.75a.58.58 0 0 1 .031.14c0 .297-.562.297-.828.297V0c.36-.031 1.063-.031 1.438-.031.422 0 .89.015 1.297.031v-.313h-.172c-.594 0-.735-.062-.844-.39zm-.531 1.11l1.124 3.25H2.329zm0 0"/></symbol><symbol overflow="visible" id="v"><path d="M2.219-3.656v-2.438c0-.343.015-.406.484-.406h1.235c.968 0 1.312.844 1.312 1.375 0 .64-.484 1.469-1.594 1.469zm2.344.094c.968-.188 1.656-.829 1.656-1.563 0-.86-.922-1.688-2.219-1.688H.36v.313h.234c.765 0 .797.11.797.469v5.25c0 .36-.032.469-.797.469H.359V0h3.907c1.328 0 2.218-.89 2.218-1.828 0-.86-.812-1.61-1.921-1.734zm-.61 3.25h-1.25c-.469 0-.484-.063-.484-.391v-2.719h1.875c.984 0 1.406.922 1.406 1.594 0 .703-.531 1.516-1.547 1.516zm0 0"/></symbol><symbol overflow="visible" id="w"><path d="M1.094-3.422V-.75c0 .438-.11.438-.782.438V0c.36-.016.86-.031 1.141-.031.25 0 .766.015 1.11.031v-.313c-.672 0-.782 0-.782-.437v-1.844c0-1.031.719-1.594 1.344-1.594.64 0 .75.532.75 1.11V-.75c0 .438-.11.438-.781.438V0c.344-.016.86-.031 1.125-.031.25 0 .781.015 1.11.031v-.313c-.657 0-.766 0-.766-.437v-1.844c0-1.031.703-1.594 1.343-1.594.625 0 .735.532.735 1.11V-.75c0 .438-.11.438-.782.438V0c.344-.016.86-.031 1.125-.031.266 0 .782.015 1.125.031v-.313c-.515 0-.765 0-.78-.296v-1.907c0-.859 0-1.156-.313-1.515-.141-.172-.47-.375-1.047-.375-.828 0-1.282.593-1.438.984-.14-.875-.875-.984-1.328-.984-.734 0-1.203.422-1.484 1.047v-1.047l-1.407.11v.312c.704 0 .782.062.782.562zm0 0"/></symbol><symbol overflow="visible" id="x"><path d="M3.313-.75c.046.39.312.813.78.813.22 0 .829-.141.829-.954v-.562h-.25v.562c0 .579-.25.641-.36.641-.328 0-.375-.453-.375-.5v-1.984c0-.422 0-.813-.359-1.188-.39-.39-.89-.547-1.36-.547-.827 0-1.515.469-1.515 1.125 0 .297.203.469.469.469a.435.435 0 0 0 .453-.453c0-.125-.047-.453-.516-.453.282-.36.766-.469 1.079-.469.5 0 1.062.39 1.062 1.281v.36c-.516.03-1.203.062-1.828.359-.75.344-1 .86-1 1.297 0 .812.969 1.062 1.594 1.062.656 0 1.109-.406 1.296-.859zM3.25-2.39v1c0 .937-.719 1.28-1.172 1.28-.484 0-.89-.343-.89-.843 0-.547.421-1.375 2.062-1.438zm0 0"/></symbol><symbol overflow="visible" id="y"><path d="M2.75-1.86v-.577H.11v.578zm0 0"/></symbol><symbol overflow="visible" id="z"><path d="M3.297-3.984c.453 0 .515.125.515.53V-.75c0 .438-.109.438-.765.438V0c.328-.016.844-.031 1.094-.031.25 0 .75.015 1.109.031v-.313c-.672 0-.781 0-.781-.437v-3.672l-1.25.094c-.156.016-.172.016-.172.016-.031.015-.047.015-.188.015H1.688v-1.125c0-.984.859-1.39 1.468-1.39.297 0 .656.109.86.328-.407.03-.47.296-.47.468 0 .329.267.454.454.454.234 0 .453-.157.453-.454 0-.593-.547-1.015-1.281-1.015-.922 0-2.11.515-2.11 1.593v1.141H.266v.313h.796V-.75c0 .438-.109.438-.78.438V0c.327-.016.859-.031 1.109-.031S2.125-.016 2.5 0v-.313c-.672 0-.781 0-.781-.437v-3.234zm0 0"/></symbol><symbol overflow="visible" id="A"><path d="M1.094-3.422V-.75c0 .438-.11.438-.782.438V0c.36-.016.86-.031 1.141-.031.25 0 .766.015 1.11.031v-.313c-.672 0-.782 0-.782-.437v-1.844c0-1.031.719-1.594 1.344-1.594.64 0 .75.532.75 1.11V-.75c0 .438-.11.438-.781.438V0c.344-.016.86-.031 1.125-.031.25 0 .781.015 1.11.031v-.313c-.516 0-.766 0-.766-.296v-1.907c0-.859 0-1.156-.313-1.515-.14-.172-.469-.375-1.047-.375-.734 0-1.203.422-1.484 1.047v-1.047l-1.407.11v.312c.704 0 .782.062.782.562zm0 0"/></symbol><symbol overflow="visible" id="B"><path d="M2.406-6.594c-.094-.218-.125-.218-.36-.218H.376v.312h.234c.766 0 .782.11.782.469v4.984c0 .266 0 .734-1.016.734V0c.344-.016.828-.031 1.156-.031.328 0 .828.015 1.172.031v-.313c-1.031 0-1.031-.468-1.031-.734v-5.375h.016L4.094-.219c.047.125.093.219.187.219.11 0 .14-.078.188-.188L6.922-6.5v5.719c0 .36-.016.469-.781.469h-.235V0c.36-.031 1.047-.031 1.438-.031.375 0 1.047 0 1.422.031v-.313h-.25c-.766 0-.782-.109-.782-.468v-5.25c0-.36.016-.469.782-.469h.25v-.313H7.078c-.266 0-.266.016-.328.188L4.562-1zm0 0"/></symbol><symbol overflow="visible" id="C"><path d="M3.781-.547V.11L5.25 0v-.313c-.688 0-.781-.062-.781-.562v-6.047l-1.422.11v.312c.687 0 .765.063.765.563v2.156a1.582 1.582 0 0 0-1.25-.625c-1.171 0-2.218.984-2.218 2.265 0 1.266.969 2.25 2.11 2.25.64 0 1.077-.343 1.327-.656zm0-2.672v2.047c0 .172 0 .188-.11.36-.296.484-.733.703-1.171.703-.453 0-.813-.266-1.047-.641-.25-.406-.281-.969-.281-1.39 0-.36.016-.954.297-1.407.218-.312.593-.64 1.14-.64.344 0 .766.156 1.063.593.11.172.11.188.11.375zm0 0"/></symbol><symbol overflow="visible" id="D"><path d="M3.89-.781v.89L5.329 0v-.313c-.687 0-.766-.062-.766-.562v-3.531l-1.468.11v.312c.687 0 .781.062.781.562v1.766c0 .875-.484 1.547-1.219 1.547-.828 0-.875-.47-.875-.985v-3.312l-1.468.11v.312c.78 0 .78.03.78.906v1.5c0 .781 0 1.687 1.516 1.687.563 0 1-.28 1.282-.89zm0 0"/></symbol><symbol overflow="visible" id="E"><path d="M1.766-6.922l-1.438.11v.312c.703 0 .781.063.781.563V-.75c0 .438-.109.438-.78.438V0c.327-.016.859-.031 1.109-.031s.734.015 1.109.031v-.313c-.672 0-.781 0-.781-.437zm0 0"/></symbol><symbol overflow="visible" id="F"><path d="M1.75-4.297v-1.156c0-.875.469-1.36.906-1.36.031 0 .188 0 .328.079a.443.443 0 0 0-.296.421c0 .22.156.422.437.422s.438-.203.438-.437c0-.375-.376-.703-.907-.703-.687 0-1.547.531-1.547 1.593v1.141H.33v.313h.78V-.75c0 .438-.109.438-.765.438V0c.39-.016.86-.031 1.125-.031.406 0 .875 0 1.265.031v-.313h-.203c-.734 0-.75-.109-.75-.468v-3.203h1.125v-.313zm0 0"/></symbol><symbol overflow="visible" id="G"><path d="M6.75-1.61H6.5a3.74 3.74 0 0 1-.188.72c-.046.156-.078.25-.656.25H4.86c.141-.563.438-1.047.891-1.704.469-.703.875-1.39.875-2.187 0-1.375-1.344-2.5-3.031-2.5-1.703 0-3.031 1.14-3.031 2.5 0 .797.406 1.484.875 2.187.437.656.75 1.14.89 1.703h-.797c-.578 0-.61-.093-.656-.234-.094-.234-.14-.484-.188-.734h-.25L.766 0h1.593c.22 0 .25 0 .25-.203 0-.703-.312-1.578-.53-2.219-.22-.578-.5-1.36-.5-2.11 0-1.593 1.109-2.28 2.015-2.28.953 0 2.015.718 2.015 2.28 0 .75-.28 1.5-.562 2.313-.156.422-.469 1.328-.469 2.016 0 .203.031.203.25.203h1.594zm0 0"/></symbol><symbol overflow="visible" id="H"><path d="M3.484-3.875l-1.28-.297c-.626-.156-1-.687-1-1.266 0-.703.53-1.312 1.312-1.312 1.656 0 1.875 1.64 1.937 2.078.016.063.016.125.125.125.125 0 .125-.047.125-.234v-2c0-.172 0-.25-.11-.25-.062 0-.077.015-.14.14l-.36.563c-.296-.297-.702-.703-1.593-.703-1.11 0-1.938.875-1.938 1.937 0 .828.532 1.563 1.297 1.828.11.032.625.157 1.329.329.265.062.562.14.843.5.203.265.313.593.313.921 0 .704-.5 1.422-1.344 1.422-.281 0-1.047-.047-1.578-.531-.578-.547-.61-1.172-.61-1.531-.015-.11-.093-.11-.125-.11-.125 0-.125.079-.125.25v2c0 .172 0 .235.11.235.062 0 .078-.016.14-.125 0-.016.032-.047.36-.578.312.343.953.703 1.844.703 1.156 0 1.953-.969 1.953-2.078 0-.985-.657-1.813-1.485-2.016zm0 0"/></symbol><symbol overflow="visible" id="bd"><path d="M2.078-1.938c.219.047 1.031.204 1.031.922 0 .5-.343.907-1.125.907-.843 0-1.203-.563-1.39-1.422-.031-.125-.031-.157-.14-.157-.126 0-.126.063-.126.235v1.328c0 .172 0 .234.11.234C.483.11.5.094.688-.094.703-.109.703-.125.89-.312c.437.406.89.421 1.093.421 1.141 0 1.61-.671 1.61-1.39 0-.516-.297-.828-.422-.938-.328-.328-.719-.406-1.14-.484-.563-.11-1.22-.235-1.22-.813 0-.359.25-.765 1.11-.765 1.094 0 1.156.906 1.172 1.203 0 .094.094.094.11.094.14 0 .14-.047.14-.235v-1.015c0-.157 0-.235-.11-.235-.046 0-.078 0-.203.125-.031.032-.125.125-.172.157-.375-.282-.78-.282-.937-.282-1.219 0-1.594.672-1.594 1.235 0 .343.156.625.422.843.328.25.61.313 1.328.454zm0 0"/></symbol><symbol overflow="visible" id="h"><path d="M6.438-6.922a.12.12 0 0 0-.125-.11c-.047 0-.047.016-.172.157l-.485.563c-.25-.47-.765-.72-1.422-.72-1.265 0-2.453 1.157-2.453 2.36 0 .797.516 1.266 1.032 1.406l1.062.282c.375.093.922.25.922 1.062 0 .89-.813 1.828-1.797 1.828-.64 0-1.75-.218-1.75-1.453 0-.234.063-.484.063-.531.015-.047.015-.063.015-.078 0-.094-.062-.11-.11-.11a.142.142 0 0 0-.109.047C1.08-2.188.516.094.516.125c0 .047.046.094.109.094.047 0 .063-.016.188-.157L1.296-.5c.422.578 1.11.719 1.687.719 1.36 0 2.532-1.328 2.532-2.563 0-.687-.344-1.031-.485-1.172-.234-.218-.39-.265-1.265-.484-.235-.063-.579-.172-.672-.188a.928.928 0 0 1-.61-.906c0-.812.797-1.656 1.75-1.656.813 0 1.422.438 1.422 1.547 0 .312-.031.5-.031.562 0 0 0 .094.11.094.109 0 .124-.031.156-.203zm0 0"/></symbol><symbol overflow="visible" id="i"><path d="M7.375-4.344c0-1.61-1.063-2.687-2.547-2.687-2.14 0-4.344 2.265-4.344 4.593C.484-.78 1.61.22 3.047.22c2.11 0 4.328-2.188 4.328-4.563zM3.094-.047c-.985 0-1.672-.797-1.672-2.11 0-.452.14-1.905.906-3.062.688-1.047 1.656-1.562 2.453-1.562.813 0 1.703.562 1.703 2.047 0 .718-.265 2.265-1.25 3.5-.484.609-1.296 1.187-2.14 1.187zm0 0"/></symbol><symbol overflow="visible" id="n"><path d="M7.063-2.328c.015-.047.046-.11.046-.14 0 0 0-.11-.125-.11-.093 0-.109.062-.125.125-.656 1.469-1.015 2.14-2.718 2.14H2.469c-.11-.015-.14-.03-.14-.109 0-.031 0-.047.046-.219l.688-2.734h.984c.844 0 .844.219.844.469 0 .062 0 .187-.063.484-.016.047-.031.078-.031.11 0 .046.031.109.125.109.078 0 .11-.047.156-.203l.563-2.328c0-.063-.047-.11-.125-.11-.079 0-.11.063-.125.172-.22.766-.391 1-1.313 1h-.937l.593-2.406c.094-.36.11-.39.547-.39h1.407c1.203 0 1.515.28 1.515 1.109 0 .234 0 .25-.047.53 0 .048-.015.126-.015.173 0 .047.03.125.125.125.109 0 .125-.063.14-.25l.203-1.735c.032-.265-.015-.265-.265-.265H2.297c-.188 0-.297 0-.297.203 0 .11.094.11.281.11.375 0 .656 0 .656.171 0 .047 0 .063-.062.25L1.562-.78c-.093.39-.109.469-.906.469-.172 0-.281 0-.281.187C.375 0 .469 0 .656 0h5.172c.234 0 .25-.016.313-.172zm0 0"/></symbol><symbol overflow="visible" id="p"><path d="M3.875-2.766L1.891-4.75c-.125-.125-.141-.14-.22-.14a.197.197 0 0 0-.202.202c0 .063.015.079.125.188l2 2-2 2.016c-.11.109-.125.125-.125.187 0 .125.093.203.203.203.078 0 .094-.015.219-.14L3.875-2.22 5.938-.156a.236.236 0 0 0 .14.062c.125 0 .203-.078.203-.203 0-.016 0-.047-.031-.11C6.234-.421 4.656-1.983 4.156-2.5l1.828-1.813c.047-.062.204-.187.25-.25 0-.015.047-.062.047-.125 0-.125-.078-.203-.203-.203-.078 0-.11.032-.219.141zm0 0"/></symbol><symbol overflow="visible" id="be"><path d="M7.64-1.828L4.204-9.531c-.125-.313-.266-.313-.562-.313H.594v.625h1.515v8.172c0 .313-.015.328-.39.39-.25.032-.547.048-.797.048H.594V0C.922-.031 2.03-.031 2.438-.031c.406 0 1.53 0 1.859.031v-.61h-.328c-.39 0-.406 0-.75-.046-.422-.063-.438-.078-.438-.39v-8h.016l3.906 8.75c.063.155.156.296.39.296.25 0 .345-.14.407-.297l3.969-8.922h.015v8.61H9.97V0c.39-.031 1.875-.031 2.36-.031.5 0 1.983 0 2.374.031v-.61h-1.515v-8.609h1.515v-.625h-3.062c-.297 0-.422 0-.547.313zm0 0"/></symbol><symbol overflow="visible" id="bf"><path d="M4.469-2.531v-1.313H.172v1.313zm0 0"/></symbol><symbol overflow="visible" id="bg"><path d="M10.328-9.703H.875l-.281 3.39h.594c.125-1.562.25-2.78 2.312-2.78h1.156V-.61H2.5V0c1.14-.031 2.625-.031 3.11-.031.874 0 1.968 0 3.109.031v-.61H6.563v-8.484h1.14c2.063 0 2.188 1.203 2.313 2.781h.593zm0 0"/></symbol><symbol overflow="visible" id="bh"><path d="M7.61-4.39c0-1.36-.579-2.063-2.157-2.063A2.574 2.574 0 0 0 3.093-5h-.015v-4.953l-2.469.11v.624c.875 0 .985 0 .985.563V-.61H.609V0c.329-.031 1.36-.031 1.75-.031.407 0 1.454 0 1.782.031v-.61h-.985v-3.062c0-1.547 1.14-2.312 2.063-2.312.531 0 .828.343.828 1.437v3.938h-.984V0c.328-.031 1.359-.031 1.765-.031.406 0 1.453 0 1.781.031v-.61h-1zm0 0"/></symbol><symbol overflow="visible" id="bi"><path d="M6.484-3.172c.329 0 .422 0 .422-.36 0-.421-.11-1.5-.765-2.171-.61-.61-1.407-.797-2.235-.797C1.656-6.5.437-5.031.437-3.234.438-1.22 1.923.094 4.095.094c2.156 0 2.812-1.532 2.812-1.766 0-.219-.218-.219-.312-.219-.219 0-.235.047-.328.235-.375.922-1.313 1.218-2 1.218-2.079 0-2.094-1.921-2.094-2.734zm-4.312-.406c.015-.594.031-1.156.344-1.672a1.59 1.59 0 0 1 1.39-.781c1.531 0 1.656 1.734 1.672 2.453zm0 0"/></symbol><symbol overflow="visible" id="bj"><path d="M7.61-3.14C7.61-5.079 6.28-6.5 4.03-6.5 1.688-6.5.438-5 .438-3.14.438-1.267 1.766.093 4.015.093c2.343 0 3.593-1.422 3.593-3.235zM4.03-.438c-1.86 0-1.86-1.672-1.86-2.844 0-.672 0-1.39.267-1.906.312-.579.968-.844 1.578-.844.812 0 1.328.39 1.578.797.281.515.281 1.265.281 1.953 0 1.187 0 2.844-1.844 2.844zm0 0"/></symbol><symbol overflow="visible" id="bk"><path d="M2.984-3.234c0-.47.094-2.75 1.782-2.75a.83.83 0 0 0-.313.656c0 .594.484.844.844.844s.828-.25.828-.844c0-.719-.75-1.125-1.438-1.125-1.125 0-1.625.984-1.812 1.594h-.016v-1.594L.5-6.343v.624c.89 0 .984 0 .984.563V-.61H.5V0c.328-.031 1.406-.031 1.813-.031.406 0 1.578 0 1.921.031v-.61h-1.25zm0 0"/></symbol><symbol overflow="visible" id="bl"><path d="M7.094-5.438c.093-.203.156-.312 1.062-.312v-.625c-.484.031-.547.031-1.125.031-.39 0-.422 0-1.234-.031v.625c.016 0 .687 0 .687.188 0 .046-.046.125-.062.171L4.75-1.78 2.906-5.75h.797v-.625c-.344.031-1.328.031-1.719.031-.421 0-1.265 0-1.64-.031v.625h.922L3.922 0c-.078.172-.281.594-.344.766-.312.64-.765 1.625-1.765 1.625-.063 0-.235 0-.391-.079.031-.015.453-.187.453-.734 0-.469-.344-.781-.766-.781-.453 0-.796.312-.796.797 0 .672.64 1.281 1.5 1.281 1.171 0 1.953-1.063 2.234-1.703zm0 0"/></symbol><clipPath id="I"><path d="M45 164h10v20H45zm0 0"/></clipPath><clipPath id="J"><path d="M45.059 173.934C81.469 137.46 92.5 96.172 79.12 46.402c62.82 46.207 127 53.336 198.43 22.035-25.164 45.958-24.188 89.07 3.031 133.844-54.418 3.356-92.121 28.34-116.422 77.145C144.47 220.46 105.97 186.363 45.06 173.934"/></clipPath><clipPath id="K"><path d="M45 159h15v30H45zm0 0"/></clipPath><clipPath id="L"><path d="M45.059 173.934C81.469 137.46 92.5 96.172 79.12 46.402c62.82 46.207 127 53.336 198.43 22.035-25.164 45.958-24.188 89.07 3.031 133.844-54.418 3.356-92.121 28.34-116.422 77.145C144.47 220.46 105.97 186.363 45.06 173.934"/></clipPath><clipPath id="M"><path d="M45 155h19v38H45zm0 0"/></clipPath><clipPath id="N"><path d="M45.059 173.934C81.469 137.46 92.5 96.172 79.12 46.402c62.82 46.207 127 53.336 198.43 22.035-25.164 45.958-24.188 89.07 3.031 133.844-54.418 3.356-92.121 28.34-116.422 77.145C144.47 220.46 105.97 186.363 45.06 173.934"/></clipPath><clipPath id="O"><path d="M45 151h23v46H45zm0 0"/></clipPath><clipPath id="P"><path d="M45.059 173.934C81.469 137.46 92.5 96.172 79.12 46.402c62.82 46.207 127 53.336 198.43 22.035-25.164 45.958-24.188 89.07 3.031 133.844-54.418 3.356-92.121 28.34-116.422 77.145C144.47 220.46 105.97 186.363 45.06 173.934"/></clipPath><clipPath id="Q"><path d="M45 147h27v54H45zm0 0"/></clipPath><clipPath id="R"><path d="M45.059 173.934C81.469 137.46 92.5 96.172 79.12 46.402c62.82 46.207 127 53.336 198.43 22.035-25.164 45.958-24.188 89.07 3.031 133.844-54.418 3.356-92.121 28.34-116.422 77.145C144.47 220.46 105.97 186.363 45.06 173.934"/></clipPath><clipPath id="S"><path d="M45 142h32v64H45zm0 0"/></clipPath><clipPath id="T"><path d="M45.059 173.934C81.469 137.46 92.5 96.172 79.12 46.402c62.82 46.207 127 53.336 198.43 22.035-25.164 45.958-24.188 89.07 3.031 133.844-54.418 3.356-92.121 28.34-116.422 77.145C144.47 220.46 105.97 186.363 45.06 173.934"/></clipPath><clipPath id="U"><path d="M69 46h21v11H69zm0 0"/></clipPath><clipPath id="V"><path d="M45.059 173.934C81.469 137.46 92.5 96.172 79.12 46.402c62.82 46.207 127 53.336 198.43 22.035-25.164 45.958-24.188 89.07 3.031 133.844-54.418 3.356-92.121 28.34-116.422 77.145C144.47 220.46 105.97 186.363 45.06 173.934"/></clipPath><clipPath id="W"><path d="M64 46h30v15H64zm0 0"/></clipPath><clipPath id="X"><path d="M45.059 173.934C81.469 137.46 92.5 96.172 79.12 46.402c62.82 46.207 127 53.336 198.43 22.035-25.164 45.958-24.188 89.07 3.031 133.844-54.418 3.356-92.121 28.34-116.422 77.145C144.47 220.46 105.97 186.363 45.06 173.934"/></clipPath><clipPath id="Y"><path d="M60 46h38v19H60zm0 0"/></clipPath><clipPath id="Z"><path d="M45.059 173.934C81.469 137.46 92.5 96.172 79.12 46.402c62.82 46.207 127 53.336 198.43 22.035-25.164 45.958-24.188 89.07 3.031 133.844-54.418 3.356-92.121 28.34-116.422 77.145C144.47 220.46 105.97 186.363 45.06 173.934"/></clipPath><clipPath id="aa"><path d="M56 46h46v24H56zm0 0"/></clipPath><clipPath id="ab"><path d="M45.059 173.934C81.469 137.46 92.5 96.172 79.12 46.402c62.82 46.207 127 53.336 198.43 22.035-25.164 45.958-24.188 89.07 3.031 133.844-54.418 3.356-92.121 28.34-116.422 77.145C144.47 220.46 105.97 186.363 45.06 173.934"/></clipPath><clipPath id="ac"><path d="M52 46h55v28H52zm0 0"/></clipPath><clipPath id="ad"><path d="M45.059 173.934C81.469 137.46 92.5 96.172 79.12 46.402c62.82 46.207 127 53.336 198.43 22.035-25.164 45.958-24.188 89.07 3.031 133.844-54.418 3.356-92.121 28.34-116.422 77.145C144.47 220.46 105.97 186.363 45.06 173.934"/></clipPath><clipPath id="ae"><path d="M47 46h64v32H47zm0 0"/></clipPath><clipPath id="af"><path d="M45.059 173.934C81.469 137.46 92.5 96.172 79.12 46.402c62.82 46.207 127 53.336 198.43 22.035-25.164 45.958-24.188 89.07 3.031 133.844-54.418 3.356-92.121 28.34-116.422 77.145C144.47 220.46 105.97 186.363 45.06 173.934"/></clipPath><clipPath id="ag"><path d="M267 58h14v21h-14zm0 0"/></clipPath><clipPath id="ah"><path d="M45.059 173.934C81.469 137.46 92.5 96.172 79.12 46.402c62.82 46.207 127 53.336 198.43 22.035-25.164 45.958-24.188 89.07 3.031 133.844-54.418 3.356-92.121 28.34-116.422 77.145C144.47 220.46 105.97 186.363 45.06 173.934"/></clipPath><clipPath id="ai"><path d="M263 54h18v29h-18zm0 0"/></clipPath><clipPath id="aj"><path d="M45.059 173.934C81.469 137.46 92.5 96.172 79.12 46.402c62.82 46.207 127 53.336 198.43 22.035-25.164 45.958-24.188 89.07 3.031 133.844-54.418 3.356-92.121 28.34-116.422 77.145C144.47 220.46 105.97 186.363 45.06 173.934"/></clipPath><clipPath id="ak"><path d="M259 50h22v37h-22zm0 0"/></clipPath><clipPath id="al"><path d="M45.059 173.934C81.469 137.46 92.5 96.172 79.12 46.402c62.82 46.207 127 53.336 198.43 22.035-25.164 45.958-24.188 89.07 3.031 133.844-54.418 3.356-92.121 28.34-116.422 77.145C144.47 220.46 105.97 186.363 45.06 173.934"/></clipPath><clipPath id="am"><path d="M254 46h27v46h-27zm0 0"/></clipPath><clipPath id="an"><path d="M45.059 173.934C81.469 137.46 92.5 96.172 79.12 46.402c62.82 46.207 127 53.336 198.43 22.035-25.164 45.958-24.188 89.07 3.031 133.844-54.418 3.356-92.121 28.34-116.422 77.145C144.47 220.46 105.97 186.363 45.06 173.934"/></clipPath><clipPath id="ao"><path d="M250 46h31v50h-31zm0 0"/></clipPath><clipPath id="ap"><path d="M45.059 173.934C81.469 137.46 92.5 96.172 79.12 46.402c62.82 46.207 127 53.336 198.43 22.035-25.164 45.958-24.188 89.07 3.031 133.844-54.418 3.356-92.121 28.34-116.422 77.145C144.47 220.46 105.97 186.363 45.06 173.934"/></clipPath><clipPath id="aq"><path d="M246 46h35v54h-35zm0 0"/></clipPath><clipPath id="ar"><path d="M45.059 173.934C81.469 137.46 92.5 96.172 79.12 46.402c62.82 46.207 127 53.336 198.43 22.035-25.164 45.958-24.188 89.07 3.031 133.844-54.418 3.356-92.121 28.34-116.422 77.145C144.47 220.46 105.97 186.363 45.06 173.934"/></clipPath><clipPath id="as"><path d="M270 192h11v21h-11zm0 0"/></clipPath><clipPath id="at"><path d="M45.059 173.934C81.469 137.46 92.5 96.172 79.12 46.402c62.82 46.207 127 53.336 198.43 22.035-25.164 45.958-24.188 89.07 3.031 133.844-54.418 3.356-92.121 28.34-116.422 77.145C144.47 220.46 105.97 186.363 45.06 173.934"/></clipPath><clipPath id="au"><path d="M266 188h15v29h-15zm0 0"/></clipPath><clipPath id="av"><path d="M45.059 173.934C81.469 137.46 92.5 96.172 79.12 46.402c62.82 46.207 127 53.336 198.43 22.035-25.164 45.958-24.188 89.07 3.031 133.844-54.418 3.356-92.121 28.34-116.422 77.145C144.47 220.46 105.97 186.363 45.06 173.934"/></clipPath><clipPath id="aw"><path d="M262 183h19v38h-19zm0 0"/></clipPath><clipPath id="ax"><path d="M45.059 173.934C81.469 137.46 92.5 96.172 79.12 46.402c62.82 46.207 127 53.336 198.43 22.035-25.164 45.958-24.188 89.07 3.031 133.844-54.418 3.356-92.121 28.34-116.422 77.145C144.47 220.46 105.97 186.363 45.06 173.934"/></clipPath><clipPath id="ay"><path d="M257 179h24v46h-24zm0 0"/></clipPath><clipPath id="az"><path d="M45.059 173.934C81.469 137.46 92.5 96.172 79.12 46.402c62.82 46.207 127 53.336 198.43 22.035-25.164 45.958-24.188 89.07 3.031 133.844-54.418 3.356-92.121 28.34-116.422 77.145C144.47 220.46 105.97 186.363 45.06 173.934"/></clipPath><clipPath id="aA"><path d="M253 175h28v55h-28zm0 0"/></clipPath><clipPath id="aB"><path d="M45.059 173.934C81.469 137.46 92.5 96.172 79.12 46.402c62.82 46.207 127 53.336 198.43 22.035-25.164 45.958-24.188 89.07 3.031 133.844-54.418 3.356-92.121 28.34-116.422 77.145C144.47 220.46 105.97 186.363 45.06 173.934"/></clipPath><clipPath id="aC"><path d="M249 171h32v63h-32zm0 0"/></clipPath><clipPath id="aD"><path d="M45.059 173.934C81.469 137.46 92.5 96.172 79.12 46.402c62.82 46.207 127 53.336 198.43 22.035-25.164 45.958-24.188 89.07 3.031 133.844-54.418 3.356-92.121 28.34-116.422 77.145C144.47 220.46 105.97 186.363 45.06 173.934"/></clipPath><clipPath id="aE"><path d="M154 269h21v11h-21zm0 0"/></clipPath><clipPath id="aF"><path d="M45.059 173.934C81.469 137.46 92.5 96.172 79.12 46.402c62.82 46.207 127 53.336 198.43 22.035-25.164 45.958-24.188 89.07 3.031 133.844-54.418 3.356-92.121 28.34-116.422 77.145C144.47 220.46 105.97 186.363 45.06 173.934"/></clipPath><clipPath id="aG"><path d="M150 265h29v15h-29zm0 0"/></clipPath><clipPath id="aH"><path d="M45.059 173.934C81.469 137.46 92.5 96.172 79.12 46.402c62.82 46.207 127 53.336 198.43 22.035-25.164 45.958-24.188 89.07 3.031 133.844-54.418 3.356-92.121 28.34-116.422 77.145C144.47 220.46 105.97 186.363 45.06 173.934"/></clipPath><clipPath id="aI"><path d="M145 261h38v19h-38zm0 0"/></clipPath><clipPath id="aJ"><path d="M45.059 173.934C81.469 137.46 92.5 96.172 79.12 46.402c62.82 46.207 127 53.336 198.43 22.035-25.164 45.958-24.188 89.07 3.031 133.844-54.418 3.356-92.121 28.34-116.422 77.145C144.47 220.46 105.97 186.363 45.06 173.934"/></clipPath><clipPath id="aK"><path d="M141 256h46v24h-46zm0 0"/></clipPath><clipPath id="aL"><path d="M45.059 173.934C81.469 137.46 92.5 96.172 79.12 46.402c62.82 46.207 127 53.336 198.43 22.035-25.164 45.958-24.188 89.07 3.031 133.844-54.418 3.356-92.121 28.34-116.422 77.145C144.47 220.46 105.97 186.363 45.06 173.934"/></clipPath><clipPath id="aM"><path d="M137 252h55v28h-55zm0 0"/></clipPath><clipPath id="aN"><path d="M45.059 173.934C81.469 137.46 92.5 96.172 79.12 46.402c62.82 46.207 127 53.336 198.43 22.035-25.164 45.958-24.188 89.07 3.031 133.844-54.418 3.356-92.121 28.34-116.422 77.145C144.47 220.46 105.97 186.363 45.06 173.934"/></clipPath><clipPath id="aO"><path d="M133 248h63v32h-63zm0 0"/></clipPath><clipPath id="aP"><path d="M45.059 173.934C81.469 137.46 92.5 96.172 79.12 46.402c62.82 46.207 127 53.336 198.43 22.035-25.164 45.958-24.188 89.07 3.031 133.844-54.418 3.356-92.121 28.34-116.422 77.145C144.47 220.46 105.97 186.363 45.06 173.934"/></clipPath><clipPath id="aQ"><path d="M45 164h10v20H45zm0 0"/></clipPath><clipPath id="aR"><path d="M45.059 173.934C81.469 137.46 92.5 96.172 79.12 46.402c62.82 46.207 127 53.336 198.43 22.035-25.164 45.958-24.188 89.07 3.031 133.844-54.418 3.356-92.121 28.34-116.422 77.145C144.47 220.46 105.97 186.363 45.06 173.934"/></clipPath><clipPath id="aS"><path d="M45 159h15v30H45zm0 0"/></clipPath><clipPath id="aT"><path d="M45.059 173.934C81.469 137.46 92.5 96.172 79.12 46.402c62.82 46.207 127 53.336 198.43 22.035-25.164 45.958-24.188 89.07 3.031 133.844-54.418 3.356-92.121 28.34-116.422 77.145C144.47 220.46 105.97 186.363 45.06 173.934"/></clipPath><clipPath id="aU"><path d="M45 155h19v38H45zm0 0"/></clipPath><clipPath id="aV"><path d="M45.059 173.934C81.469 137.46 92.5 96.172 79.12 46.402c62.82 46.207 127 53.336 198.43 22.035-25.164 45.958-24.188 89.07 3.031 133.844-54.418 3.356-92.121 28.34-116.422 77.145C144.47 220.46 105.97 186.363 45.06 173.934"/></clipPath><clipPath id="aW"><path d="M45 151h23v46H45zm0 0"/></clipPath><clipPath id="aX"><path d="M45.059 173.934C81.469 137.46 92.5 96.172 79.12 46.402c62.82 46.207 127 53.336 198.43 22.035-25.164 45.958-24.188 89.07 3.031 133.844-54.418 3.356-92.121 28.34-116.422 77.145C144.47 220.46 105.97 186.363 45.06 173.934"/></clipPath><clipPath id="aY"><path d="M45 147h27v54H45zm0 0"/></clipPath><clipPath id="aZ"><path d="M45.059 173.934C81.469 137.46 92.5 96.172 79.12 46.402c62.82 46.207 127 53.336 198.43 22.035-25.164 45.958-24.188 89.07 3.031 133.844-54.418 3.356-92.121 28.34-116.422 77.145C144.47 220.46 105.97 186.363 45.06 173.934"/></clipPath><clipPath id="ba"><path d="M45 142h32v64H45zm0 0"/></clipPath><clipPath id="bb"><path d="M45.059 173.934C81.469 137.46 92.5 96.172 79.12 46.402c62.82 46.207 127 53.336 198.43 22.035-25.164 45.958-24.188 89.07 3.031 133.844-54.418 3.356-92.121 28.34-116.422 77.145C144.47 220.46 105.97 186.363 45.06 173.934"/></clipPath><clipPath id="bc"><path d="M28 29h270v266.012H28zm0 0"/></clipPath></defs><g fill="rgb(0%,0%,0%)"><use xlink:href="#a" x="3.321" y="170.169"/><use xlink:href="#b" x="8.856" y="170.169"/><use xlink:href="#c" x="13.284" y="170.169"/><use xlink:href="#b" x="17.158" y="170.169"/><use xlink:href="#d" x="21.585" y="170.169"/><use xlink:href="#e" x="25.488" y="170.169"/><use xlink:href="#c" x="30.469" y="170.169"/><use xlink:href="#f" x="34.344" y="170.169"/><use xlink:href="#g" x="37.111" y="170.169"/></g><use xlink:href="#h" x="6.294" y="182.124" fill="rgb(0%,0%,0%)"/><use xlink:href="#i" x="12.981" y="182.124" fill="rgb(0%,0%,0%)"/><g fill="rgb(0%,0%,0%)"><use xlink:href="#j" x="20.853" y="182.124"/><use xlink:href="#k" x="24.727" y="182.124"/><use xlink:href="#l" x="29.709" y="182.124"/><use xlink:href="#m" x="34.69" y="182.124"/></g><g fill="rgb(0%,0%,0%)"><use xlink:href="#a" x="60.013" y="28.436"/><use xlink:href="#b" x="65.548" y="28.436"/><use xlink:href="#c" x="69.976" y="28.436"/><use xlink:href="#b" x="73.85" y="28.436"/><use xlink:href="#d" x="78.277" y="28.436"/><use xlink:href="#e" x="82.18" y="28.436"/><use xlink:href="#c" x="87.161" y="28.436"/><use xlink:href="#f" x="91.036" y="28.436"/><use xlink:href="#g" x="93.803" y="28.436"/></g><use xlink:href="#n" x="52.375" y="40.392" fill="rgb(0%,0%,0%)"/><g fill="rgb(0%,0%,0%)"><use xlink:href="#j" x="60.304" y="40.392"/><use xlink:href="#o" x="64.178" y="40.392"/><use xlink:href="#m" x="69.16" y="40.392"/></g><use xlink:href="#p" x="75.248" y="40.392" fill="rgb(0%,0%,0%)"/><use xlink:href="#n" x="85.211" y="40.392" fill="rgb(0%,0%,0%)"/><g fill="rgb(0%,0%,0%)"><use xlink:href="#j" x="93.139" y="40.392"/><use xlink:href="#o" x="97.013" y="40.392"/><use xlink:href="#m" x="101.995" y="40.392"/></g><use xlink:href="#q" x="255.547" y="62.982" fill="rgb(0%,0%,0%)"/><g fill="rgb(0%,0%,0%)"><use xlink:href="#r" x="262.463" y="62.982"/><use xlink:href="#s" x="267.721" y="62.982"/></g><use xlink:href="#b" x="273.535" y="62.982" fill="rgb(0%,0%,0%)"/><use xlink:href="#t" x="281.28" y="62.982" fill="rgb(0%,0%,0%)"/><use xlink:href="#t" x="285.157" y="62.982" fill="rgb(0%,0%,0%)"/><use xlink:href="#u" x="292.072" y="62.982" fill="rgb(0%,0%,0%)"/><use xlink:href="#q" x="284.101" y="204.714" fill="rgb(0%,0%,0%)"/><g fill="rgb(0%,0%,0%)"><use xlink:href="#r" x="291.017" y="204.714"/><use xlink:href="#s" x="296.275" y="204.714"/></g><use xlink:href="#b" x="302.089" y="204.714" fill="rgb(0%,0%,0%)"/><use xlink:href="#t" x="309.834" y="204.714" fill="rgb(0%,0%,0%)"/><use xlink:href="#t" x="313.711" y="204.714" fill="rgb(0%,0%,0%)"/><use xlink:href="#v" x="320.626" y="204.714" fill="rgb(0%,0%,0%)"/><use xlink:href="#q" x="149.494" y="289.753" fill="rgb(0%,0%,0%)"/><g fill="rgb(0%,0%,0%)"><use xlink:href="#r" x="156.41" y="289.753"/><use xlink:href="#s" x="161.668" y="289.753"/></g><use xlink:href="#b" x="167.482" y="289.753" fill="rgb(0%,0%,0%)"/><use xlink:href="#t" x="175.227" y="289.753" fill="rgb(0%,0%,0%)"/><path d="M20.3 159.281C12 113.355 25.118 76.848 60.743 46.695" fill="none" stroke-width="0.3985" stroke="rgb(0%,0%,0%)" stroke-miterlimit="10"/><path d="M21.656 157.82c-.57.203-1.258 1.442-1.3 1.754-.153-.277-1.231-1.195-1.836-1.187" fill="none" stroke-width=".3187772484" stroke-linecap="round" stroke-linejoin="round" stroke="rgb(0%,0%,0%)" stroke-miterlimit="10"/><path d="M58.797 46.254c.465.39 1.879.367 2.172.25-.164.27-.422 1.66-.11 2.184" fill="none" stroke-width=".3187740605" stroke-linecap="round" stroke-linejoin="round" stroke="rgb(0%,0%,0%)" stroke-miterlimit="10"/><g fill="rgb(0%,0%,0%)"><use xlink:href="#g" x="29.009" y="104.902"/><use xlink:href="#e" x="33.436" y="104.902"/><use xlink:href="#w" x="38.418" y="104.902"/><use xlink:href="#s" x="46.72" y="104.902"/><use xlink:href="#x" x="52.255" y="104.902"/><use xlink:href="#g" x="57.236" y="104.902"/><use xlink:href="#y" x="61.663" y="104.902"/></g><g fill="rgb(0%,0%,0%)"><use xlink:href="#c" x="27.625" y="116.857"/><use xlink:href="#f" x="31.499" y="116.857"/><use xlink:href="#z" x="34.267" y="116.857"/><use xlink:href="#g" x="39.802" y="116.857"/><use xlink:href="#x" x="44.23" y="116.857"/><use xlink:href="#c" x="49.211" y="116.857"/><use xlink:href="#f" x="53.085" y="116.857"/><use xlink:href="#e" x="55.853" y="116.857"/><use xlink:href="#A" x="60.834" y="116.857"/></g><path d="M109.824 19.941c59.48-19.742 110.5-9.234 157.34 32.407" fill="none" stroke-width="0.3985" stroke="rgb(0%,0%,0%)" stroke-miterlimit="10"/><path d="M111.46 21.078c-.284-.539-1.605-1.043-1.92-1.043.253-.187 1.01-1.387.917-1.984" fill="none" stroke-width=".3187772484" stroke-linecap="round" stroke-linejoin="round" stroke="rgb(0%,0%,0%)" stroke-miterlimit="10"/><path d="M267.328 50.363c-.324.512-.098 1.91.059 2.184-.29-.125-1.703-.184-2.176.2" fill="none" stroke-width=".3187676847" stroke-linecap="round" stroke-linejoin="round" stroke="rgb(0%,0%,0%)" stroke-miterlimit="10"/><g fill="rgb(0%,0%,0%)"><use xlink:href="#B" x="149.271" y="23.621"/><use xlink:href="#y" x="158.404" y="23.621"/><use xlink:href="#c" x="161.724" y="23.621"/><use xlink:href="#a" x="165.599" y="23.621"/><use xlink:href="#b" x="171.134" y="23.621"/><use xlink:href="#e" x="175.561" y="23.621"/><use xlink:href="#d" x="180.543" y="23.621"/><use xlink:href="#r" x="184.445" y="23.621"/></g><path d="M284.781 68.785c32.446 37.559 40.235 78.293 23.93 125.168" fill="none" stroke-width="0.3985" stroke="rgb(0%,0%,0%)" stroke-miterlimit="10"/><path d="M284.355 70.73c.387-.464.352-1.878.23-2.171.27.16 1.665.402 2.185.09" fill="none" stroke-width=".3187772484" stroke-linecap="round" stroke-linejoin="round" stroke="rgb(0%,0%,0%)" stroke-miterlimit="10"/><path d="M310.61 193.348c-.598-.102-1.805.64-1.997.89.004-.316-.484-1.644-1.015-1.937" fill="none" stroke-width=".3187772484" stroke-linecap="round" stroke-linejoin="round" stroke="rgb(0%,0%,0%)" stroke-miterlimit="10"/><g fill="rgb(0%,0%,0%)"><use xlink:href="#q" x="270.491" y="138.324"/><use xlink:href="#y" x="277.686" y="138.324"/><use xlink:href="#C" x="281.007" y="138.324"/><use xlink:href="#D" x="286.542" y="138.324"/><use xlink:href="#x" x="292.077" y="138.324"/><use xlink:href="#E" x="297.058" y="138.324"/><use xlink:href="#f" x="299.826" y="138.324"/><use xlink:href="#c" x="302.593" y="138.324"/></g><use xlink:href="#r" x="306.189" y="138.324" fill="rgb(0%,0%,0%)"/><path d="M301.313 210.578c-25.168 49.008-63.481 73.707-118.504 76.414" fill="none" stroke-width="0.3985" stroke="rgb(0%,0%,0%)" stroke-miterlimit="10"/><path d="M299.348 210.914c.578.184 1.879-.379 2.101-.602-.047.313.25 1.696.735 2.06" fill="none" stroke-width=".3187804363" stroke-linecap="round" stroke-linejoin="round" stroke="rgb(0%,0%,0%)" stroke-miterlimit="10"/><path d="M184.078 288.523c-.129-.59-1.266-1.433-1.57-1.515.293-.117 1.344-1.067 1.414-1.668" fill="none" stroke-width=".3187740605" stroke-linecap="round" stroke-linejoin="round" stroke="rgb(0%,0%,0%)" stroke-miterlimit="10"/><g fill="rgb(0%,0%,0%)"><use xlink:href="#e" x="205.397" y="250.624"/><use xlink:href="#d" x="210.378" y="250.624"/><use xlink:href="#f" x="214.281" y="250.624"/><use xlink:href="#b" x="217.048" y="250.624"/><use xlink:href="#A" x="221.476" y="250.624"/></g><g fill="rgb(0%,0%,0%)"><use xlink:href="#c" x="226.732" y="250.624"/><use xlink:href="#f" x="230.606" y="250.624"/><use xlink:href="#F" x="233.374" y="250.624"/><use xlink:href="#e" x="236.419" y="250.624"/><use xlink:href="#E" x="241.4" y="250.624"/><use xlink:href="#C" x="244.167" y="250.624"/></g><g fill="rgb(0%,0%,0%)"><use xlink:href="#x" x="209.009" y="262.579"/><use xlink:href="#g" x="213.99" y="262.579"/><use xlink:href="#c" x="218.418" y="262.579"/><use xlink:href="#f" x="222.292" y="262.579"/><use xlink:href="#e" x="225.06" y="262.579"/><use xlink:href="#A" x="230.041" y="262.579"/></g><use xlink:href="#G" x="238.894" y="262.579" fill="rgb(0%,0%,0%)"/><path d="M145.523 284.484C87.32 275 49.023 243.707 28.137 188.563" fill="none" stroke-width="0.3985" stroke="rgb(0%,0%,0%)" stroke-miterlimit="10"/><path d="M144.598 282.719c.004.605.941 1.668 1.218 1.812-.308.051-1.535.758-1.73 1.332" fill="none" stroke-width=".3187772484" stroke-linecap="round" stroke-linejoin="round" stroke="rgb(0%,0%,0%)" stroke-miterlimit="10"/><path d="M27.07 190.246c.524-.305.973-1.648.961-1.96.2.241 1.426.948 2.02.831" fill="none" stroke-width=".3187740605" stroke-linecap="round" stroke-linejoin="round" stroke="rgb(0%,0%,0%)" stroke-miterlimit="10"/><g fill="rgb(0%,0%,0%)"><use xlink:href="#H" x="76.394" y="248.144"/><use xlink:href="#y" x="81.929" y="248.144"/><use xlink:href="#C" x="85.25" y="248.144"/><use xlink:href="#D" x="90.785" y="248.144"/><use xlink:href="#x" x="96.32" y="248.144"/><use xlink:href="#E" x="101.301" y="248.144"/><use xlink:href="#f" x="104.069" y="248.144"/><use xlink:href="#c" x="106.837" y="248.144"/></g><use xlink:href="#r" x="110.432" y="248.144" fill="rgb(0%,0%,0%)"/><g clip-path="url(#I)"><g clip-path="url(#J)"><path d="M49.309 173.934a4.253 4.253 0 1 0-8.506-.003 4.253 4.253 0 0 0 8.506.003zm0 0" fill="none" stroke-width="0.3985" stroke="rgb(0%,0%,54.499817%)" stroke-miterlimit="10"/></g></g><g clip-path="url(#K)"><g clip-path="url(#L)"><path d="M53.563 173.934c0-4.7-3.81-8.504-8.504-8.504a8.5 8.5 0 0 0-8.504 8.504 8.503 8.503 0 0 0 8.504 8.504 8.506 8.506 0 0 0 8.504-8.504zm0 0" fill="none" stroke-width="0.3985" stroke="rgb(0%,0%,54.499817%)" stroke-miterlimit="10"/></g></g><g clip-path="url(#M)"><g clip-path="url(#N)"><path d="M57.813 173.934c0-7.047-5.711-12.758-12.754-12.758-7.047 0-12.758 5.71-12.758 12.758 0 7.043 5.71 12.754 12.758 12.754 7.043 0 12.754-5.711 12.754-12.754zm0 0" fill="none" stroke-width="0.3985" stroke="rgb(0%,0%,54.499817%)" stroke-miterlimit="10"/></g></g><g clip-path="url(#O)"><g clip-path="url(#P)"><path d="M62.063 173.934c0-9.395-7.614-17.008-17.004-17.008-9.395 0-17.008 7.613-17.008 17.008 0 9.39 7.613 17.007 17.008 17.007 9.39 0 17.004-7.617 17.004-17.007zm0 0" fill="none" stroke-width="0.3985" stroke="rgb(0%,0%,54.499817%)" stroke-miterlimit="10"/></g></g><g clip-path="url(#Q)"><g clip-path="url(#R)"><path d="M66.316 173.934c0-11.743-9.52-21.262-21.257-21.262-11.743 0-21.262 9.52-21.262 21.262s9.52 21.257 21.262 21.257c11.738 0 21.257-9.515 21.257-21.257zm0 0" fill="none" stroke-width="0.3985" stroke="rgb(0%,0%,54.499817%)" stroke-miterlimit="10"/></g></g><g clip-path="url(#S)"><g clip-path="url(#T)"><path d="M70.566 173.934c0-14.09-11.418-25.512-25.507-25.512-14.09 0-25.512 11.422-25.512 25.512s11.422 25.511 25.512 25.511 25.507-11.422 25.507-25.511zm0 0" fill="none" stroke-width="0.3985" stroke="rgb(0%,0%,54.499817%)" stroke-miterlimit="10"/></g></g><g clip-path="url(#U)"><g clip-path="url(#V)"><path d="M83.375 46.402a4.254 4.254 0 0 0-4.254-4.254 4.25 4.25 0 0 0-4.25 4.254 4.253 4.253 0 0 0 8.504 0zm0 0" fill="none" stroke-width="0.3985" stroke="rgb(0%,0%,54.499817%)" stroke-miterlimit="10"/></g></g><g clip-path="url(#W)"><g clip-path="url(#X)"><path d="M87.625 46.402c0-4.699-3.809-8.504-8.504-8.504a8.503 8.503 0 0 0-8.504 8.504 8.506 8.506 0 0 0 8.504 8.504 8.506 8.506 0 0 0 8.504-8.504zm0 0" fill="none" stroke-width="0.3985" stroke="rgb(0%,0%,54.499817%)" stroke-miterlimit="10"/></g></g><g clip-path="url(#Y)"><g clip-path="url(#Z)"><path d="M91.879 46.402c0-7.047-5.711-12.757-12.758-12.757-7.043 0-12.754 5.71-12.754 12.757 0 7.043 5.711 12.754 12.754 12.754 7.047 0 12.758-5.71 12.758-12.754zm0 0" fill="none" stroke-width="0.3985" stroke="rgb(0%,0%,54.499817%)" stroke-miterlimit="10"/></g></g><g clip-path="url(#aa)"><g clip-path="url(#ab)"><path d="M96.129 46.402c0-9.394-7.613-17.007-17.008-17.007-9.39 0-17.008 7.613-17.008 17.007 0 9.391 7.617 17.008 17.008 17.008 9.395 0 17.008-7.617 17.008-17.008zm0 0" fill="none" stroke-width="0.3985" stroke="rgb(0%,0%,54.499817%)" stroke-miterlimit="10"/></g></g><g clip-path="url(#ac)"><g clip-path="url(#ad)"><path d="M100.379 46.402c0-11.742-9.516-21.261-21.258-21.261-11.742 0-21.258 9.52-21.258 21.261 0 11.739 9.516 21.258 21.258 21.258 11.742 0 21.258-9.52 21.258-21.258zm0 0" fill="none" stroke-width="0.3985" stroke="rgb(0%,0%,54.499817%)" stroke-miterlimit="10"/></g></g><g clip-path="url(#ae)"><g clip-path="url(#af)"><path d="M104.633 46.402c0-14.09-11.422-25.511-25.512-25.511S53.61 32.313 53.61 46.402c0 14.09 11.422 25.508 25.512 25.508s25.512-11.418 25.512-25.508zm0 0" fill="none" stroke-width="0.3985" stroke="rgb(0%,0%,54.499817%)" stroke-miterlimit="10"/></g></g><g clip-path="url(#ag)"><g clip-path="url(#ah)"><path d="M281.8 68.438a4.25 4.25 0 0 0-4.25-4.25 4.25 4.25 0 0 0-4.253 4.25 4.253 4.253 0 0 0 8.504 0zm0 0" fill="none" stroke-width="0.3985" stroke="rgb(0%,0%,54.499817%)" stroke-miterlimit="10"/></g></g><g clip-path="url(#ai)"><g clip-path="url(#aj)"><path d="M286.055 68.438a8.506 8.506 0 0 0-8.504-8.504 8.503 8.503 0 0 0-8.504 8.504 8.503 8.503 0 0 0 8.504 8.503 8.506 8.506 0 0 0 8.504-8.503zm0 0" fill="none" stroke-width="0.3985" stroke="rgb(0%,0%,54.499817%)" stroke-miterlimit="10"/></g></g><g clip-path="url(#ak)"><g clip-path="url(#al)"><path d="M290.305 68.438c0-7.043-5.711-12.754-12.754-12.754-7.047 0-12.758 5.71-12.758 12.754 0 7.046 5.71 12.757 12.758 12.757 7.043 0 12.754-5.71 12.754-12.757zm0 0" fill="none" stroke-width="0.3985" stroke="rgb(0%,0%,54.499817%)" stroke-miterlimit="10"/></g></g><g clip-path="url(#am)"><g clip-path="url(#an)"><path d="M294.555 68.438c0-9.395-7.614-17.008-17.004-17.008-9.395 0-17.008 7.613-17.008 17.008 0 9.394 7.613 17.007 17.008 17.007 9.39 0 17.004-7.613 17.004-17.007zm0 0" fill="none" stroke-width="0.3985" stroke="rgb(0%,0%,54.499817%)" stroke-miterlimit="10"/></g></g><g clip-path="url(#ao)"><g clip-path="url(#ap)"><path d="M298.809 68.438c0-11.743-9.52-21.258-21.258-21.258-11.742 0-21.262 9.515-21.262 21.258 0 11.742 9.52 21.257 21.262 21.257 11.738 0 21.258-9.515 21.258-21.257zm0 0" fill="none" stroke-width="0.3985" stroke="rgb(0%,0%,54.499817%)" stroke-miterlimit="10"/></g></g><g clip-path="url(#aq)"><g clip-path="url(#ar)"><path d="M303.059 68.438c0-14.09-11.418-25.512-25.508-25.512s-25.512 11.422-25.512 25.512 11.422 25.511 25.512 25.511 25.508-11.422 25.508-25.511zm0 0" fill="none" stroke-width="0.3985" stroke="rgb(0%,0%,54.499817%)" stroke-miterlimit="10"/></g></g><g clip-path="url(#as)"><g clip-path="url(#at)"><path d="M284.836 202.281a4.254 4.254 0 0 0-4.254-4.254 4.25 4.25 0 0 0-4.25 4.254 4.253 4.253 0 0 0 8.504 0zm0 0" fill="none" stroke-width="0.3985" stroke="rgb(0%,0%,54.499817%)" stroke-miterlimit="10"/></g></g><g clip-path="url(#au)"><g clip-path="url(#av)"><path d="M289.086 202.281c0-4.699-3.809-8.504-8.504-8.504a8.503 8.503 0 0 0-8.504 8.504 8.506 8.506 0 0 0 8.504 8.504 8.506 8.506 0 0 0 8.504-8.504zm0 0" fill="none" stroke-width="0.3985" stroke="rgb(0%,0%,54.499817%)" stroke-miterlimit="10"/></g></g><g clip-path="url(#aw)"><g clip-path="url(#ax)"><path d="M293.34 202.281c0-7.047-5.711-12.758-12.758-12.758-7.043 0-12.754 5.711-12.754 12.758 0 7.043 5.711 12.754 12.754 12.754 7.047 0 12.758-5.71 12.758-12.754zm0 0" fill="none" stroke-width="0.3985" stroke="rgb(0%,0%,54.499817%)" stroke-miterlimit="10"/></g></g><g clip-path="url(#ay)"><g clip-path="url(#az)"><path d="M297.59 202.281c0-9.394-7.613-17.008-17.008-17.008-9.39 0-17.008 7.614-17.008 17.008 0 9.39 7.617 17.004 17.008 17.004 9.395 0 17.008-7.613 17.008-17.004zm0 0" fill="none" stroke-width="0.3985" stroke="rgb(0%,0%,54.499817%)" stroke-miterlimit="10"/></g></g><g clip-path="url(#aA)"><g clip-path="url(#aB)"><path d="M301.844 202.281c0-11.742-9.52-21.261-21.262-21.261s-21.258 9.52-21.258 21.261c0 11.739 9.516 21.258 21.258 21.258 11.742 0 21.262-9.52 21.262-21.258zm0 0" fill="none" stroke-width="0.3985" stroke="rgb(0%,0%,54.499817%)" stroke-miterlimit="10"/></g></g><g clip-path="url(#aC)"><g clip-path="url(#aD)"><path d="M306.094 202.281c0-14.09-11.422-25.511-25.512-25.511S255.07 188.19 255.07 202.28s11.422 25.508 25.512 25.508 25.512-11.418 25.512-25.508zm0 0" fill="none" stroke-width="0.3985" stroke="rgb(0%,0%,54.499817%)" stroke-miterlimit="10"/></g></g><g clip-path="url(#aE)"><g clip-path="url(#aF)"><path d="M168.414 279.426a4.25 4.25 0 0 0-4.254-4.25 4.25 4.25 0 0 0-4.25 4.25 4.25 4.25 0 0 0 4.25 4.254 4.251 4.251 0 0 0 4.254-4.254zm0 0" fill="none" stroke-width="0.3985" stroke="rgb(0%,0%,54.499817%)" stroke-miterlimit="10"/></g></g><g clip-path="url(#aG)"><g clip-path="url(#aH)"><path d="M172.664 279.426a8.5 8.5 0 0 0-8.504-8.5 8.499 8.499 0 0 0-8.5 8.5 8.5 8.5 0 0 0 8.5 8.504 8.5 8.5 0 0 0 8.504-8.504zm0 0" fill="none" stroke-width="0.3985" stroke="rgb(0%,0%,54.499817%)" stroke-miterlimit="10"/></g></g><g clip-path="url(#aI)"><g clip-path="url(#aJ)"><path d="M176.918 279.426c0-7.043-5.711-12.754-12.758-12.754-7.043 0-12.754 5.71-12.754 12.754 0 7.047 5.711 12.758 12.754 12.758 7.047 0 12.758-5.711 12.758-12.758zm0 0" fill="none" stroke-width="0.3985" stroke="rgb(0%,0%,54.499817%)" stroke-miterlimit="10"/></g></g><g clip-path="url(#aK)"><g clip-path="url(#aL)"><path d="M181.168 279.426c0-9.39-7.613-17.004-17.008-17.004-9.39 0-17.004 7.613-17.004 17.004 0 9.394 7.614 17.008 17.004 17.008 9.395 0 17.008-7.614 17.008-17.008zm0 0" fill="none" stroke-width="0.3985" stroke="rgb(0%,0%,54.499817%)" stroke-miterlimit="10"/></g></g><g clip-path="url(#aM)"><g clip-path="url(#aN)"><path d="M185.422 279.426c0-11.738-9.52-21.258-21.262-21.258-11.738 0-21.258 9.52-21.258 21.258 0 11.742 9.52 21.262 21.258 21.262 11.742 0 21.262-9.52 21.262-21.262zm0 0" fill="none" stroke-width="0.3985" stroke="rgb(0%,0%,54.499817%)" stroke-miterlimit="10"/></g></g><g clip-path="url(#aO)"><g clip-path="url(#aP)"><path d="M189.672 279.426c0-14.086-11.422-25.508-25.512-25.508-14.086 0-25.508 11.422-25.508 25.508 0 14.09 11.422 25.512 25.508 25.512 14.09 0 25.512-11.422 25.512-25.512zm0 0" fill="none" stroke-width="0.3985" stroke="rgb(0%,0%,54.499817%)" stroke-miterlimit="10"/></g></g><g clip-path="url(#aQ)"><g clip-path="url(#aR)"><path d="M49.309 173.934a4.253 4.253 0 1 0-8.506-.003 4.253 4.253 0 0 0 8.506.003zm0 0" fill="none" stroke-width="0.3985" stroke="rgb(0%,0%,54.499817%)" stroke-miterlimit="10"/></g></g><g clip-path="url(#aS)"><g clip-path="url(#aT)"><path d="M53.563 173.934c0-4.7-3.81-8.504-8.504-8.504a8.5 8.5 0 0 0-8.504 8.504 8.503 8.503 0 0 0 8.504 8.504 8.506 8.506 0 0 0 8.504-8.504zm0 0" fill="none" stroke-width="0.3985" stroke="rgb(0%,0%,54.499817%)" stroke-miterlimit="10"/></g></g><g clip-path="url(#aU)"><g clip-path="url(#aV)"><path d="M57.813 173.934c0-7.047-5.711-12.758-12.754-12.758-7.047 0-12.758 5.71-12.758 12.758 0 7.043 5.71 12.754 12.758 12.754 7.043 0 12.754-5.711 12.754-12.754zm0 0" fill="none" stroke-width="0.3985" stroke="rgb(0%,0%,54.499817%)" stroke-miterlimit="10"/></g></g><g clip-path="url(#aW)"><g clip-path="url(#aX)"><path d="M62.063 173.934c0-9.395-7.614-17.008-17.004-17.008-9.395 0-17.008 7.613-17.008 17.008 0 9.39 7.613 17.007 17.008 17.007 9.39 0 17.004-7.617 17.004-17.007zm0 0" fill="none" stroke-width="0.3985" stroke="rgb(0%,0%,54.499817%)" stroke-miterlimit="10"/></g></g><g clip-path="url(#aY)"><g clip-path="url(#aZ)"><path d="M66.316 173.934c0-11.743-9.52-21.262-21.257-21.262-11.743 0-21.262 9.52-21.262 21.262s9.52 21.257 21.262 21.257c11.738 0 21.257-9.515 21.257-21.257zm0 0" fill="none" stroke-width="0.3985" stroke="rgb(0%,0%,54.499817%)" stroke-miterlimit="10"/></g></g><g clip-path="url(#ba)"><g clip-path="url(#bb)"><path d="M70.566 173.934c0-14.09-11.418-25.512-25.507-25.512-14.09 0-25.512 11.422-25.512 25.512s11.422 25.511 25.512 25.511 25.507-11.422 25.507-25.511zm0 0" fill="none" stroke-width="0.3985" stroke="rgb(0%,0%,54.499817%)" stroke-miterlimit="10"/></g></g><path d="M45.059 173.934C81.469 137.46 92.5 96.172 79.12 46.402c62.82 46.207 127 53.336 198.43 22.035-25.164 45.958-24.188 89.07 3.031 133.844-54.418 3.356-92.121 28.34-116.422 77.145C144.47 220.46 105.97 186.363 45.06 173.934" fill="rgb(50%,50%,50%)" fill-opacity="0.3"/><g clip-path="url(#bc)"><path d="M45.059 173.934C81.469 137.46 92.5 96.172 79.12 46.402c62.82 46.207 127 53.336 198.43 22.036-25.164 45.957-24.188 89.07 3.031 133.843-54.418 3.356-92.121 28.34-116.422 77.145C144.47 220.46 105.97 186.363 45.06 173.934" fill="none" stroke-width="1.19553" stroke="rgb(50%,50%,50%)" stroke-miterlimit="10"/></g><g fill="rgb(0%,0%,0%)"><use xlink:href="#s" x="123.01" y="137.383"/><use xlink:href="#x" x="128.545" y="137.383"/><use xlink:href="#d" x="133.527" y="137.383"/><use xlink:href="#x" x="137.429" y="137.383"/><use xlink:href="#w" x="142.41" y="137.383"/><use xlink:href="#b" x="150.712" y="137.383"/><use xlink:href="#c" x="155.139" y="137.383"/><use xlink:href="#b" x="159.014" y="137.383"/><use xlink:href="#d" x="163.441" y="137.383"/></g><g fill="rgb(0%,0%,0%)"><use xlink:href="#bd" x="170.661" y="137.383"/><use xlink:href="#s" x="174.59" y="137.383"/><use xlink:href="#x" x="180.126" y="137.383"/><use xlink:href="#g" x="185.107" y="137.383"/><use xlink:href="#b" x="189.534" y="137.383"/></g><g fill="rgb(0%,0%,0%)"><use xlink:href="#e" x="197.289" y="137.383"/><use xlink:href="#F" x="202.27" y="137.383"/></g><g fill="rgb(0%,0%,0%)"><use xlink:href="#be" x="128.338" y="157.917"/><use xlink:href="#bf" x="143.647" y="157.917"/><use xlink:href="#bg" x="149.027" y="157.917"/><use xlink:href="#bh" x="160.251" y="157.917"/><use xlink:href="#bi" x="169.217" y="157.917"/><use xlink:href="#bj" x="176.581" y="157.917"/><use xlink:href="#bk" x="184.651" y="157.917"/><use xlink:href="#bl" x="191.243" y="157.917"/></g></svg>