<svg xmlns="http://www.w3.org/2000/svg" xmlns:xlink="http://www.w3.org/1999/xlink" width="227.835" height="252.88" viewBox="0 0 170.876 189.66"><defs><symbol overflow="visible" id="a"><path d="M1.781-1.14C1.391-.485 1-.345.563-.314c-.125.016-.22.016-.22.204 0 .062.063.109.141.109.266 0 .579-.031.844-.031.344 0 .688.031 1 .031.063 0 .188 0 .188-.188 0-.109-.079-.124-.157-.124-.218-.016-.468-.094-.468-.344 0-.125.062-.235.14-.375l.766-1.266h2.5c.016.203.156 1.563.156 1.656 0 .297-.516.329-.719.329-.14 0-.234 0-.234.203C4.5 0 4.61 0 4.64 0c.407 0 .829-.031 1.235-.031.25 0 .89.031 1.14.031.048 0 .173 0 .173-.203 0-.11-.094-.11-.235-.11-.61 0-.61-.062-.64-.359l-.61-6.219c-.016-.203-.016-.25-.187-.25-.157 0-.204.079-.266.172zm1.203-1.47l1.954-3.296.328 3.297zm0 0"/></symbol><symbol overflow="visible" id="d"><path d="M1.594-.781c-.094.39-.125.469-.907.469-.171 0-.265 0-.265.203C.422 0 .516 0 .688 0H4.25C5.828 0 7-1.172 7-2.156c0-.719-.578-1.297-1.547-1.406 1.031-.188 2.078-.922 2.078-1.876 0-.734-.656-1.375-1.843-1.375h-3.36c-.187 0-.281 0-.281.204 0 .109.094.109.281.109.016 0 .203 0 .375.016.172.03.266.03.266.171 0 .032-.016.063-.031.188zm1.5-2.875l.625-2.469c.094-.344.11-.375.531-.375h1.297c.875 0 1.078.594 1.078 1.031 0 .875-.86 1.813-2.063 1.813zM2.656-.312h-.219c-.109-.016-.14-.032-.14-.11 0-.031 0-.047.062-.219l.688-2.78h1.875c.953 0 1.156.733 1.156 1.155 0 .985-.89 1.954-2.078 1.954zm0 0"/></symbol><symbol overflow="visible" id="e"><path d="M7.578-6.922c0-.031-.016-.11-.11-.11-.03 0-.046.016-.155.126l-.688.765c-.094-.14-.547-.89-1.656-.89C2.734-7.031.5-4.828.5-2.516.5-.875 1.672.22 3.203.22c.86 0 1.625-.39 2.156-.86.922-.812 1.094-1.718 1.094-1.75 0-.109-.11-.109-.125-.109-.062 0-.11.031-.125.11-.094.28-.328 1-1.016 1.578-.687.546-1.312.718-1.828.718-.89 0-1.953-.515-1.953-2.062 0-.578.203-2.188 1.203-3.36.61-.703 1.547-1.203 2.438-1.203 1.016 0 1.61.766 1.61 1.922 0 .406-.032.406-.032.516 0 .093.11.093.14.093.126 0 .126-.015.188-.203zm0 0"/></symbol><symbol overflow="visible" id="r"><path d="M2.828-6.234c0-.204-.14-.36-.36-.36-.28 0-.546.266-.546.532 0 .187.14.359.375.359.234 0 .531-.234.531-.531zm-.75 3.75c.11-.282.11-.313.219-.579.078-.203.125-.343.125-.53 0-.438-.313-.813-.813-.813-.937 0-1.312 1.453-1.312 1.531 0 .11.094.11.11.11.109 0 .109-.032.156-.188.28-.938.671-1.235 1.015-1.235.078 0 .25 0 .25.313 0 .219-.078.422-.11.531-.077.25-.53 1.406-.687 1.844-.11.25-.234.578-.234.797 0 .469.344.812.812.812.938 0 1.313-1.437 1.313-1.53 0-.11-.094-.11-.125-.11-.094 0-.094.031-.14.187C2.468-.719 2.14-.109 1.64-.109c-.172 0-.25-.094-.25-.329 0-.25.062-.39.296-1zm0 0"/></symbol><symbol overflow="visible" id="s"><path d="M3.016-3.234h.968c.75 0 .829.156.829.437 0 .078 0 .188-.063.5-.031.047-.031.078-.031.11 0 .078.062.109.11.109.109 0 .109-.031.155-.203l.547-2.172c.032-.11.032-.125.032-.156a.117.117 0 0 0-.125-.11c-.094 0-.11.047-.141.219-.219.766-.438.953-1.297.953h-.906l.64-2.531c.094-.36.11-.39.547-.39h1.313c1.218 0 1.453.327 1.453 1.093 0 .234 0 .266-.031.547C7-4.703 7-4.688 7-4.656c0 .047.031.125.125.125.11 0 .11-.063.125-.25l.203-1.735c.031-.265-.016-.265-.266-.265h-4.89c-.188 0-.297 0-.297.203 0 .11.094.11.281.11.375 0 .656 0 .656.171 0 .047 0 .063-.062.25L1.562-.78c-.093.39-.109.469-.906.469-.172 0-.281 0-.281.187C.375 0 .5 0 .531 0c.281 0 1.031-.031 1.313-.031C2.172-.031 3 0 3.328 0c.094 0 .203 0 .203-.188 0-.078-.047-.109-.047-.109-.03-.016-.062-.016-.28-.016-.22 0-.267 0-.517-.015-.296-.031-.328-.078-.328-.203 0-.016 0-.078.047-.219zm0 0"/></symbol><symbol overflow="visible" id="b"><path d="M2.016-3.297c.062-.11.062-.172.062-.219 0-.218-.187-.375-.406-.375-.266 0-.344.22-.375.329L.375-.547a.33.33 0 0 0-.047.11c0 .078.219.156.281.156.047 0 .047-.016.094-.125zm0 0"/></symbol><symbol overflow="visible" id="o"><path d="M6.563-2.297c.171 0 .359 0 .359-.203 0-.188-.188-.188-.36-.188h-5.39c-.172 0-.344 0-.344.188 0 .203.172.203.344.203zm0 0"/></symbol><symbol overflow="visible" id="p"><path d="M2.328-4.438c0-.187 0-.187-.203-.187-.453.438-1.078.438-1.36.438v.25c.157 0 .626 0 1-.188v3.547c0 .234 0 .328-.687.328H.812V0c.125 0 .985-.031 1.235-.031.219 0 1.094.031 1.25.031v-.25H3.03c-.703 0-.703-.094-.703-.328zm0 0"/></symbol><symbol overflow="visible" id="q"><path d="M3.516-1.266H3.28c-.015.157-.094.563-.187.625-.047.047-.578.047-.688.047H1.125c.734-.64.984-.844 1.39-1.172.516-.406 1-.843 1-1.5 0-.843-.734-1.359-1.624-1.359-.86 0-1.454.61-1.454 1.25 0 .344.297.39.376.39.156 0 .359-.124.359-.374 0-.125-.047-.375-.406-.375.218-.485.687-.641 1.015-.641.703 0 1.063.547 1.063 1.11 0 .609-.438 1.078-.656 1.328L.516-.266C.437-.203.437-.187.437 0h2.876zm0 0"/></symbol><symbol overflow="visible" id="t"><path d="M3.594-2.219c0-.765-.094-1.328-.406-1.812-.22-.313-.657-.594-1.204-.594C.36-4.625.36-2.719.36-2.219c0 .5 0 2.36 1.625 2.36 1.61 0 1.61-1.86 1.61-2.36zM1.984-.063c-.328 0-.75-.187-.89-.75C1-1.219 1-1.796 1-2.313c0-.515 0-1.046.094-1.421.156-.547.593-.704.89-.704.375 0 .735.235.86.641.11.375.125.875.125 1.485 0 .515 0 1.03-.094 1.468-.14.64-.61.781-.89.781zm0 0"/></symbol><clipPath id="c"><path d="M0 79h170.875v98H0zm0 0"/></clipPath><clipPath id="f"><path d="M79 79h91.875v98H79zm0 0"/></clipPath><clipPath id="g"><path d="M42 0h86v171H42zm0 0"/></clipPath><clipPath id="h"><path d="M170.477.395v85.043c-46.965 0-85.04 38.074-85.04 85.039 0-46.965-38.074-85.04-85.039-85.04V.395zm0 0"/></clipPath><clipPath id="i"><path d="M170.477.395v85.043c-46.965 0-85.04 38.074-85.04 85.039 0-46.965-38.074-85.04-85.039-85.04V.395zm0 0"/></clipPath><clipPath id="j"><path d="M0 85h170.875v86H0zm0 0"/></clipPath><clipPath id="k"><path d="M170.477.395v85.043c-46.965 0-85.04 38.074-85.04 85.039 0-46.965-38.074-85.04-85.039-85.04V.395zm0 0"/></clipPath><clipPath id="l"><path d="M170.477.395v85.043c-46.965 0-85.04 38.074-85.04 85.039 0-46.965-38.074-85.04-85.039-85.04V.395zm0 0"/></clipPath><clipPath id="m"><path d="M0 170h170.875v1H0zm0 0"/></clipPath><clipPath id="n"><path d="M167 168h3.875v5H167zm0 0"/></clipPath></defs><path d="M42.918 170.477V.855" fill="none" stroke-width="0.3985" stroke="rgb(0%,0%,54.499817%)" stroke-miterlimit="10"/><path d="M41.324 2.05c.598-.1 1.492-1.195 1.594-1.495.098.3.996 1.394 1.594 1.496" fill="none" stroke-width="0.31879" stroke-linecap="round" stroke-linejoin="round" stroke="rgb(0%,0%,54.499817%)" stroke-miterlimit="10"/><use xlink:href="#a" x="31.926" y="47.902" fill="rgb(0%,0%,54.499817%)"/><path d="M127.957 170.477V.855" fill="none" stroke-width="0.3985" stroke="rgb(0%,0%,54.499817%)" stroke-miterlimit="10"/><path d="M126.363 2.05c.598-.1 1.496-1.195 1.594-1.495.102.3.996 1.394 1.594 1.496" fill="none" stroke-width="0.31879" stroke-linecap="round" stroke-linejoin="round" stroke="rgb(0%,0%,54.499817%)" stroke-miterlimit="10"/><use xlink:href="#a" x="131.477" y="47.902" fill="rgb(0%,0%,54.499817%)"/><use xlink:href="#b" x="138.949" y="44.287" fill="rgb(0%,0%,54.499817%)"/><g clip-path="url(#c)"><path d="M170.477 170.477c0-46.965-38.07-85.04-85.04-85.04-46.964 0-85.039 38.075-85.039 85.04" fill="none" stroke-width="0.3985" stroke="rgb(54.499817%,0%,0%)" stroke-miterlimit="10"/></g><use xlink:href="#d" x="60.559" y="82.966" fill="rgb(54.499817%,0%,0%)"/><use xlink:href="#d" x="102.261" y="82.966" fill="rgb(54.499817%,0%,0%)"/><use xlink:href="#b" x="110.317" y="79.351" fill="rgb(54.499817%,0%,0%)"/><path d="M85.438 170.477c0-46.965-38.075-85.04-85.04-85.04" fill="none" stroke-width="0.3985" stroke="rgb(0%,39.199829%,0%)" stroke-miterlimit="10"/><use xlink:href="#e" x="57.843" y="130.822" fill="rgb(0%,39.199829%,0%)"/><g clip-path="url(#f)"><path d="M170.477 85.438c-46.965 0-85.04 38.074-85.04 85.039" fill="none" stroke-width="0.3985" stroke="rgb(0%,39.199829%,0%)" stroke-miterlimit="10"/></g><use xlink:href="#e" x="105.2" y="131.504" fill="rgb(0%,39.199829%,0%)"/><use xlink:href="#b" x="113.033" y="127.889" fill="rgb(0%,39.199829%,0%)"/><g clip-path="url(#g)"><g clip-path="url(#h)"><g clip-path="url(#i)"><path d="M42.918 170.477V.395h85.039v170.082zm0 0" fill="rgb(50%,50%,50%)" fill-opacity="0.3"/></g></g></g><g clip-path="url(#j)"><g clip-path="url(#k)"><g clip-path="url(#l)"><path d="M170.477 170.477c0-46.965-38.07-85.04-85.04-85.04-46.964 0-85.039 38.075-85.039 85.04" fill="rgb(50%,50%,50%)" fill-opacity="0.6"/></g></g></g><g clip-path="url(#m)"><path d="M.398 170.477H169.77" fill="none" stroke-width="0.79701" stroke="rgb(0%,0%,0%)" stroke-miterlimit="10"/></g><g clip-path="url(#n)"><path d="M168.219 168.406c.129.778 1.55 1.942 1.941 2.07-.39.13-1.812 1.297-1.941 2.075" fill="none" stroke-width="0.6376" stroke-linecap="round" stroke-linejoin="round" stroke="rgb(0%,0%,0%)" stroke-miterlimit="10"/></g><path d="M85.438 178.98V1.102" fill="none" stroke-width="0.79701" stroke="rgb(0%,0%,0%)" stroke-miterlimit="10"/><path d="M83.367 2.656c.778-.129 1.942-1.554 2.07-1.941.13.387 1.297 1.812 2.075 1.941" fill="none" stroke-width="0.6376" stroke-linecap="round" stroke-linejoin="round" stroke="rgb(0%,0%,0%)" stroke-miterlimit="10"/><path d="M42.918 172.18v-3.403" fill="none" stroke-width="0.79701" stroke="rgb(0%,0%,0%)" stroke-miterlimit="10"/><use xlink:href="#o" x="35.863" y="182.904" fill="rgb(0%,0%,0%)"/><use xlink:href="#p" x="44.807" y="178.981" fill="rgb(0%,0%,0%)"/><path d="M44.809 180.414h3.968" fill="none" stroke-width="0.398" stroke="rgb(0%,0%,0%)" stroke-miterlimit="10"/><use xlink:href="#q" x="44.807" y="186.339" fill="rgb(0%,0%,0%)"/><path d="M127.957 172.18v-3.403" fill="none" stroke-width="0.79701" stroke="rgb(0%,0%,0%)" stroke-miterlimit="10"/><use xlink:href="#p" x="125.972" y="178.981" fill="rgb(0%,0%,0%)"/><path d="M125.973 180.414h3.968" fill="none" stroke-width="0.398" stroke="rgb(0%,0%,0%)" stroke-miterlimit="10"/><use xlink:href="#q" x="125.972" y="186.339" fill="rgb(0%,0%,0%)"/><path d="M83.738 85.438h3.403" fill="none" stroke-width="0.79701" stroke="rgb(0%,0%,0%)" stroke-miterlimit="10"/><use xlink:href="#r" x="88.866" y="93.734" fill="rgb(0%,0%,0%)"/><use xlink:href="#s" x="88.958" y="45.574" fill="rgb(0%,0%,0%)"/><use xlink:href="#t" x="95.364" y="47.069" fill="rgb(0%,0%,0%)"/><use xlink:href="#s" x="71.042" y="104.953" fill="rgb(0%,0%,0%)"/><use xlink:href="#b" x="78.832" y="101.338" fill="rgb(0%,0%,0%)"/><use xlink:href="#t" x="77.449" y="107.426" fill="rgb(0%,0%,0%)"/></svg>