<svg height="252.88" viewBox="0 0 170.876 189.66" width="227.835" xmlns="http://www.w3.org/2000/svg" xmlns:xlink="http://www.w3.org/1999/xlink"><clipPath id="a"><path d="m0 79h170.875v98h-170.875zm0 0"/></clipPath><clipPath id="b"><path d="m79 79h91.875v98h-91.875zm0 0"/></clipPath><clipPath id="c"><path d="m42 0h86v171h-86zm0 0"/></clipPath><clipPath id="d"><path d="m170.477.395v85.043c-46.965 0-85.04 38.074-85.04 85.039 0-46.965-38.074-85.04-85.039-85.04v-85.042zm0 0"/></clipPath><clipPath id="e"><path d="m170.477.395v85.043c-46.965 0-85.04 38.074-85.04 85.039 0-46.965-38.074-85.04-85.039-85.04v-85.042zm0 0"/></clipPath><clipPath id="f"><path d="m0 85h170.875v86h-170.875zm0 0"/></clipPath><clipPath id="g"><path d="m170.477.395v85.043c-46.965 0-85.04 38.074-85.04 85.039 0-46.965-38.074-85.04-85.039-85.04v-85.042zm0 0"/></clipPath><clipPath id="h"><path d="m170.477.395v85.043c-46.965 0-85.04 38.074-85.04 85.039 0-46.965-38.074-85.04-85.039-85.04v-85.042zm0 0"/></clipPath><clipPath id="i"><path d="m0 170h170.875v1h-170.875zm0 0"/></clipPath><clipPath id="j"><path d="m167 168h3.875v5h-3.875zm0 0"/></clipPath><symbol id="k" overflow="visible"><path d="m1.781-1.14c-.39.655-.781.795-1.218.826-.125.016-.22.016-.22.204 0 .062.063.109.141.109.266 0 .579-.031.844-.031.344 0 .688.031 1 .031.063 0 .188 0 .188-.188 0-.109-.079-.124-.157-.124-.218-.016-.468-.094-.468-.344 0-.125.062-.235.14-.375l.766-1.266h2.5c.016.203.156 1.563.156 1.656 0 .297-.516.329-.719.329-.14 0-.234 0-.234.203 0 .11.11.11.14.11.407 0 .829-.031 1.235-.031.25 0 .89.031 1.14.031.048 0 .173 0 .173-.203 0-.11-.094-.11-.235-.11-.61 0-.61-.062-.64-.359l-.61-6.219c-.016-.203-.016-.25-.187-.25-.157 0-.204.079-.266.172zm1.203-1.47 1.954-3.296.328 3.297zm0 0"/></symbol><symbol id="l" overflow="visible"><path d="m1.594-.781c-.094.39-.125.469-.907.469-.171 0-.265 0-.265.203 0 .109.094.109.266.109h3.562c1.578 0 2.75-1.172 2.75-2.156 0-.719-.578-1.297-1.547-1.406 1.031-.188 2.078-.922 2.078-1.876 0-.734-.656-1.375-1.843-1.375h-3.36c-.187 0-.281 0-.281.204 0 .109.094.109.281.109.016 0 .203 0 .375.016.172.03.266.03.266.171 0 .032-.016.063-.031.188zm1.5-2.875.625-2.469c.094-.344.11-.375.531-.375h1.297c.875 0 1.078.594 1.078 1.031 0 .875-.86 1.813-2.063 1.813zm-.438 3.344h-.219c-.109-.016-.14-.032-.14-.11 0-.031 0-.047.062-.219l.688-2.78h1.875c.953 0 1.156.733 1.156 1.155 0 .985-.89 1.954-2.078 1.954zm0 0"/></symbol><symbol id="m" overflow="visible"><path d="m7.578-6.922c0-.031-.016-.11-.11-.11-.03 0-.046.016-.155.126l-.688.765c-.094-.14-.547-.89-1.656-.89-2.235 0-4.469 2.203-4.469 4.515 0 1.641 1.172 2.736 2.703 2.736.86 0 1.625-.39 2.156-.86.922-.812 1.094-1.718 1.094-1.75 0-.109-.11-.109-.125-.109-.062 0-.11.031-.125.11-.094.28-.328 1-1.016 1.578-.687.546-1.312.718-1.828.718-.89 0-1.953-.515-1.953-2.062 0-.578.203-2.188 1.203-3.36.61-.703 1.547-1.203 2.438-1.203 1.016 0 1.61.766 1.61 1.922 0 .406-.032.406-.032.516 0 .093.11.093.14.093.126 0 .126-.015.188-.203zm0 0"/></symbol><symbol id="n" overflow="visible"><path d="m2.828-6.234c0-.204-.14-.36-.36-.36-.28 0-.546.266-.546.532 0 .187.14.359.375.359.234 0 .531-.234.531-.531zm-.75 3.75c.11-.282.11-.313.219-.579.078-.203.125-.343.125-.53 0-.438-.313-.813-.813-.813-.937 0-1.312 1.453-1.312 1.531 0 .11.094.11.11.11.109 0 .109-.032.156-.188.28-.938.671-1.235 1.015-1.235.078 0 .25 0 .25.313 0 .219-.078.422-.11.531-.077.25-.53 1.406-.687 1.844-.11.25-.234.578-.234.797 0 .469.344.812.812.812.938 0 1.313-1.437 1.313-1.53 0-.11-.094-.11-.125-.11-.094 0-.094.031-.14.187-.189.625-.517 1.235-1.017 1.235-.172 0-.25-.094-.25-.329 0-.25.062-.39.296-1zm0 0"/></symbol><symbol id="o" overflow="visible"><path d="m3.016-3.234h.968c.75 0 .829.156.829.437 0 .078 0 .188-.063.5-.031.047-.031.078-.031.11 0 .078.062.109.11.109.109 0 .109-.031.155-.203l.547-2.172c.032-.11.032-.125.032-.156a.117.117 0 0 0 -.125-.11c-.094 0-.11.047-.141.219-.219.766-.438.953-1.297.953h-.906l.64-2.531c.094-.36.11-.39.547-.39h1.313c1.218 0 1.453.327 1.453 1.093 0 .234 0 .266-.031.547-.016.125-.016.14-.016.172 0 .047.031.125.125.125.11 0 .11-.063.125-.25l.203-1.735c.031-.265-.016-.265-.266-.265h-4.89c-.188 0-.297 0-.297.203 0 .11.094.11.281.11.375 0 .656 0 .656.171 0 .047 0 .063-.062.25l-1.313 5.267c-.093.39-.109.469-.906.469-.172 0-.281 0-.281.187 0 .124.125.124.156.124.281 0 1.031-.031 1.313-.031.328 0 1.156.031 1.484.031.094 0 .203 0 .203-.188 0-.078-.047-.109-.047-.109-.03-.016-.062-.016-.28-.016-.22 0-.267 0-.517-.015-.296-.031-.328-.078-.328-.203 0-.016 0-.078.047-.219zm0 0"/></symbol><symbol id="p" overflow="visible"><path d="m2.016-3.297c.062-.11.062-.172.062-.219 0-.218-.187-.375-.406-.375-.266 0-.344.22-.375.329l-.922 3.015a.33.33 0 0 0 -.047.11c0 .078.219.156.281.156.047 0 .047-.016.094-.125zm0 0"/></symbol><symbol id="q" overflow="visible"><path d="m6.563-2.297c.171 0 .359 0 .359-.203 0-.188-.188-.188-.36-.188h-5.39c-.172 0-.344 0-.344.188 0 .203.172.203.344.203zm0 0"/></symbol><symbol id="r" overflow="visible"><path d="m2.328-4.438c0-.187 0-.187-.203-.187-.453.438-1.078.438-1.36.438v.25c.157 0 .626 0 1-.188v3.547c0 .234 0 .328-.687.328h-.266v.25c.125 0 .985-.031 1.235-.031.219 0 1.094.031 1.25.031v-.25h-.267c-.703 0-.703-.094-.703-.328zm0 0"/></symbol><symbol id="s" overflow="visible"><path d="m3.516-1.266h-.236c-.015.157-.094.563-.187.625-.047.047-.578.047-.688.047h-1.28c.734-.64.984-.844 1.39-1.172.516-.406 1-.843 1-1.5 0-.843-.734-1.359-1.624-1.359-.86 0-1.454.61-1.454 1.25 0 .344.297.39.376.39a.365.365 0 0 0 .359-.374c0-.125-.047-.375-.406-.375.218-.485.687-.641 1.015-.641.703 0 1.063.547 1.063 1.11 0 .609-.438 1.078-.656 1.328l-1.672 1.671c-.079.063-.079.079-.079.266h2.876zm0 0"/></symbol><symbol id="t" overflow="visible"><path d="m3.594-2.219c0-.765-.094-1.328-.406-1.812-.22-.313-.657-.594-1.204-.594-1.624 0-1.624 1.906-1.624 2.406s0 2.36 1.625 2.36c1.61 0 1.61-1.86 1.61-2.36zm-1.61 2.156c-.328 0-.75-.187-.89-.75-.094-.406-.094-.983-.094-1.5 0-.515 0-1.046.094-1.421.156-.547.593-.704.89-.704.375 0 .735.235.86.641.11.375.125.875.125 1.485 0 .515 0 1.03-.094 1.468-.14.64-.61.781-.89.781zm0 0"/></symbol><path d="m-42.52 0v169.622" fill="none" stroke="#00008b" stroke-miterlimit="10" stroke-width=".3985" transform="matrix(1 0 0 -1 85.438 170.477)"/><path d="m-1.197 1.594c.102-.598 1.197-1.494 1.497-1.594-.3-.098-1.395-.996-1.497-1.594" style="fill:none;stroke-width:.31879;stroke-linecap:round;stroke-linejoin:round;stroke:#00008b;stroke-miterlimit:10" transform="matrix(0 -1 -1 0 42.918 .854)"/><use fill="#00008b" x="31.926" xlink:href="#k" y="47.902"/><path d="m42.519 0v169.622" fill="none" stroke="#00008b" stroke-miterlimit="10" stroke-width=".3985" transform="matrix(1 0 0 -1 85.438 170.477)"/><path d="m-1.197 1.595c.102-.598 1.197-1.496 1.497-1.595-.3-.1-1.395-.995-1.497-1.593" style="fill:none;stroke-width:.31879;stroke-linecap:round;stroke-linejoin:round;stroke:#00008b;stroke-miterlimit:10" transform="matrix(0 -1 -1 0 127.958 .854)"/><use fill="#00008b" x="131.477" xlink:href="#k" y="47.902"/><use fill="#00008b" x="138.949" xlink:href="#p" y="44.287"/><g clip-path="url(#a)"><path d="m85.039 0c0 46.965-38.07 85.04-85.04 85.04-46.964 0-85.039-38.075-85.039-85.04" fill="none" stroke="#8b0000" stroke-miterlimit="10" stroke-width=".3985" transform="matrix(1 0 0 -1 85.438 170.477)"/></g><use fill="#8b0000" x="60.559" xlink:href="#l" y="82.966"/><use fill="#8b0000" x="102.261" xlink:href="#l" y="82.966"/><use fill="#8b0000" x="110.317" xlink:href="#p" y="79.351"/><path d="m0 0c0 46.965-38.075 85.04-85.04 85.04" fill="none" stroke="#006400" stroke-miterlimit="10" stroke-width=".3985" transform="matrix(1 0 0 -1 85.438 170.477)"/><use fill="#006400" x="57.843" xlink:href="#m" y="130.822"/><g clip-path="url(#b)"><path d="m85.039 85.04c-46.965 0-85.04-38.075-85.04-85.04" fill="none" stroke="#006400" stroke-miterlimit="10" stroke-width=".3985" transform="matrix(1 0 0 -1 85.438 170.477)"/></g><use fill="#006400" x="105.2" xlink:href="#m" y="131.504"/><use fill="#006400" x="113.033" xlink:href="#p" y="127.889"/><g clip-path="url(#c)"><g clip-path="url(#d)"><g clip-path="url(#e)"><path d="m42.918 170.477v-170.082h85.039v170.082zm0 0" fill="#808080" fill-opacity=".3"/></g></g></g><g clip-path="url(#f)"><g clip-path="url(#g)"><g clip-path="url(#h)"><path d="m170.477 170.477c0-46.965-38.07-85.04-85.04-85.04-46.964 0-85.039 38.075-85.039 85.04" fill="#808080" fill-opacity=".6"/></g></g></g><g clip-path="url(#i)"><path d="m-85.04 0h169.372" fill="none" stroke="#000" stroke-miterlimit="10" stroke-width=".79701" transform="matrix(1 0 0 -1 85.438 170.477)"/></g><g clip-path="url(#j)"><path d="m-1.552 2.07c.129-.776 1.55-1.94 1.941-2.07-.389-.128-1.812-1.296-1.941-2.074" style="fill:none;stroke-width:.6376;stroke-linecap:round;stroke-linejoin:round;stroke:#000;stroke-miterlimit:10" transform="matrix(1 0 0 -1 169.771 170.477)"/></g><g fill="none" stroke-miterlimit="10"><path d="m0-8.503v177.875" stroke="#000" stroke-width=".79701" transform="matrix(1 0 0 -1 85.438 170.477)"/><path d="m-1.552 2.07c.129-.776 1.55-1.94 1.941-2.07-.389-.127-1.812-1.295-1.941-2.073" stroke="#000" stroke-linecap="round" stroke-linejoin="round" stroke-width=".6376" transform="matrix(0 -1 -1 0 85.438 1.104)"/><path d="m-42.52-1.703v3.403" stroke="#000" stroke-width=".79701" transform="matrix(1 0 0 -1 85.438 170.477)"/></g><use x="35.863" xlink:href="#q" y="182.904"/><use x="44.807" xlink:href="#r" y="178.981"/><path d="m.002-.001h3.968" fill="none" stroke="#000" stroke-miterlimit="10" stroke-width=".398" transform="matrix(1 0 0 -1 44.807 180.413)"/><use x="44.807" xlink:href="#s" y="186.339"/><path d="m42.519-1.703v3.403" fill="none" stroke="#000" stroke-miterlimit="10" stroke-width=".79701" transform="matrix(1 0 0 -1 85.438 170.477)"/><use x="125.972" xlink:href="#r" y="178.981"/><path d="m0-.001h3.97" fill="none" stroke="#000" stroke-miterlimit="10" stroke-width=".398" transform="matrix(1 0 0 -1 125.972 180.413)"/><use x="125.972" xlink:href="#s" y="186.339"/><path d="m-1.7 85.04h3.403" fill="none" stroke="#000" stroke-miterlimit="10" stroke-width=".79701" transform="matrix(1 0 0 -1 85.438 170.477)"/><use x="88.866" xlink:href="#n" y="93.734"/><use x="88.958" xlink:href="#o" y="45.574"/><use x="95.364" xlink:href="#t" y="47.069"/><use x="71.042" xlink:href="#o" y="104.953"/><use x="78.832" xlink:href="#p" y="101.338"/><use x="77.449" xlink:href="#t" y="107.426"/></svg>