<svg height="16058.3pt" viewBox="0 0 374.528 16058.3" width="499.371" xmlns="http://www.w3.org/2000/svg" xmlns:xlink="http://www.w3.org/1999/xlink"><symbol id="a" overflow="visible"><path d="m2.469-3.5c.015-.078.312-.672.765-1.047a1.639 1.639 0 0 1 1.172-.484c.485 0 .657.36.657.828 0 .687-.5 2.047-.735 2.703-.11.281-.172.438-.172.656 0 .531.375.969.953.969 1.11 0 1.532-1.766 1.532-1.828 0-.063-.047-.11-.125-.11-.11 0-.125.032-.188.235-.266.984-.719 1.453-1.187 1.453-.125 0-.313 0-.313-.39 0-.297.125-.657.203-.829.235-.656.735-1.984.735-2.672 0-.718-.407-1.25-1.313-1.25-1.078 0-1.625.75-1.844 1.047-.046-.687-.53-1.047-1.062-1.047-.375 0-.64.22-.844.625-.219.438-.375 1.157-.375 1.204 0 .046.047.109.125.109.094 0 .11-.016.188-.297.187-.719.406-1.406.875-1.406.28 0 .375.187.375.547 0 .265-.125.734-.204 1.109l-.343 1.281c-.047.235-.172.766-.235.985-.078.312-.218.875-.218.937 0 .156.14.297.312.297.14 0 .313-.078.406-.25.032-.063.141-.484.204-.719l.25-1.078zm0 0"/></symbol><symbol id="b" overflow="visible"><path d="m3.234-2.313v-.687h-3.109v.688zm0 0"/></symbol><symbol id="c" overflow="visible"><path d="m4.797-1.297a2.787 2.787 0 0 1 -1.828.672c-1 0-1.64-.875-1.64-2.047 0-.984.484-2.078 1.671-2.078.797 0 1.14.203 1.656.547l.14-.781c-.702-.407-1.093-.5-1.796-.5-1.656 0-2.578 1.453-2.578 2.812 0 1.532 1.094 2.797 2.531 2.797.578 0 1.25-.156 1.906-.625 0-.031-.03-.406-.046-.453zm0 0"/></symbol><symbol id="d" overflow="visible"><path d="m5.063-3.594c0-.734-.157-1.828-1.594-1.828-.828 0-1.375.469-1.656.813v-3.688h-.892v8.297h.906v-2.969c0-.75.281-1.734 1.188-1.734 1.109 0 1.14.766 1.14 1.187v3.516h.907zm0 0"/></symbol><symbol id="e" overflow="visible"><path d="m4.672-3.5c0-1.156-.828-1.984-1.938-1.984-.718 0-1.25.171-1.843.5l.078.78c.531-.374 1.078-.593 1.765-.593.547 0 1.032.453 1.032 1.313v.5c-.532.015-1.25.062-1.97.296-.812.266-1.265.72-1.265 1.313 0 .531.313 1.5 1.328 1.5.657 0 1.485-.203 1.938-.563v.438h.875zm-.906 1.89c0 .25 0 .532-.391.766a1.89 1.89 0 0 1 -.906.25c-.656 0-1.094-.344-1.094-.797 0-.812 1.656-.984 2.39-.984zm0 0"/></symbol><symbol id="f" overflow="visible"><path d="m5.063-3.594c0-.734-.157-1.828-1.594-1.828-.672 0-1.25.297-1.703.875v-.812h-.844v5.359h.906v-2.969c0-.75.281-1.734 1.188-1.734 1.109 0 1.14.766 1.14 1.187v3.516h.907zm0 0"/></symbol><symbol id="g" overflow="visible"><path d="m4.86-2.688c0-.515-.048-1.25-.423-1.874-.5-.829-1.328-.922-1.671-.922-1.297 0-2.376 1.234-2.376 2.796 0 1.579 1.157 2.814 2.53 2.814.563 0 1.22-.156 1.876-.64 0-.047-.047-.422-.047-.438s-.031-.281-.031-.328c-.703.593-1.407.687-1.766.687-.922 0-1.703-.828-1.734-2.094zm-3.563-.64c.203-.813.766-1.438 1.469-1.438.359 0 1.187.157 1.39 1.438zm0 0"/></symbol><symbol id="h" overflow="visible"><path d="m1.813-8.297h-.875v8.297h.875zm0 0"/></symbol><symbol id="i" overflow="visible"><path d="m2.5-8.297h-1.36v8.297h.923v-7.375c.171.813 2.109 5.922 2.562 7.125h.875c.39-1.031 2.36-6.234 2.578-7.14h.016v7.39h.922v-8.297h-1.36l-1.375 3.688c-.61 1.671-1.078 2.921-1.203 3.468h-.016c-.03-.203-.187-.64-.343-1.109-.219-.64-.219-.672-.407-1.156zm0 0"/></symbol><symbol id="j" overflow="visible"><path d="m7.969-4.125c0-2.531-1.719-4.422-3.657-4.422-1.984 0-3.671 1.922-3.671 4.422-.001 2.516 1.734 4.375 3.656 4.375 1.984 0 3.672-1.875 3.672-4.375zm-3.657 3.625c-1.39 0-2.64-1.5-2.64-3.797 0-2.203 1.297-3.516 2.625-3.516 1.375 0 2.64 1.344 2.64 3.516.001 2.344-1.28 3.797-2.624 3.797zm0 0"/></symbol><symbol id="k" overflow="visible"><path d="m5.438-7.953c-.485-.266-1.094-.594-2.157-.594-1.594 0-2.64 1.14-2.64 2.344 0 .844.515 1.39.578 1.453.593.61 1 .703 1.75.906 1.031.25 1.187.297 1.578.688.203.219.375.594.375 1.015 0 .829-.672 1.594-1.703 1.594a3.752 3.752 0 0 1 -2.516-1l-.172.969a4.894 4.894 0 0 0 2.689.828c1.53 0 2.624-1.188 2.624-2.516 0-.765-.375-1.328-.625-1.625-.563-.593-1-.718-1.797-.921-.813-.204-1.11-.266-1.375-.516-.156-.172-.485-.469-.485-1 0-.734.657-1.438 1.72-1.438 1.015 0 1.546.391 1.984.766zm0 0"/></symbol><symbol id="l" overflow="visible"><path d="m5.656-3.781v-.719h-3.546v-3.031h1.532c.156 0 .296.015.437.015h2.063v-.75h-5.064v8.266h1.032v-3.781zm0 0"/></symbol><symbol id="m" overflow="visible"><path d="m5.969-3.938v-.718h-3.86v-2.875h1.625c.141 0 .282.015.422.015h2.157v-.75h-5.236v8.266h5.39v-.813h-1.56c-.156 0-.297.016-.437.016h-2.36v-3.14zm0 0"/></symbol><symbol id="n" overflow="visible"><path d="m4.5-7.5h1.063c.14 0 .28.016.421.016h1.563v-.75h-7.125v.75h1.578c.14 0 .281-.016.422-.016h1.062v7.5h1.016zm0 0"/></symbol><symbol id="o" overflow="visible"><path d="m4.094-4.172c-.594-.328-.938-.422-1.547-.422-1.375 0-2.188 1.204-2.188 2.375.001 1.235.907 2.329 2.157 2.329.53 0 1.078-.14 1.625-.515l-.063-.656a2.517 2.517 0 0 1 -1.562.53c-.829 0-1.375-.718-1.375-1.687 0-.781.359-1.734 1.421-1.734.516 0 .86.078 1.407.437zm0 0"/></symbol><symbol id="p" overflow="visible"><path d="m1.625-6.781h-.89v.89h.89zm-.063 2.36h-.75v4.421h.75zm0 0"/></symbol><symbol id="q" overflow="visible"><path d="m1.563-2.14c0-.985.718-1.704 1.703-1.735v-.656c-.891 0-1.438.5-1.75.953v-.906h-.704v4.484h.75zm0 0"/></symbol><symbol id="r" overflow="visible"><path d="m4.344-4.422h-.782v2.89c.001.751-.562 1.096-1.202 1.096-.703 0-.78-.266-.78-.688v-3.297h-.768v3.328c.001.718.218 1.203 1.047 1.203.532 0 1.235-.156 1.735-.593v.483h.75zm0 0"/></symbol><symbol id="s" overflow="visible"><path d="m1.75-3.844h1.406v-.578h-1.406v-1.266h-.688v1.266h-.874v.578h.844v2.656c0 .594.14 1.297.828 1.297s1.204-.25 1.454-.375l-.157-.593a1.407 1.407 0 0 1 -.906.328c-.36 0-.5-.297-.5-.828zm0 0"/></symbol><symbol id="t" overflow="visible"><path d="m1.563-6.922h-.75v6.922h.78v-.453c.235.219.673.562 1.345.562.984 0 1.843-1 1.843-2.328 0-1.234-.672-2.312-1.61-2.312-.39 0-1.015.093-1.608.578zm.03 3.578c.157-.234.516-.578 1.063-.578.594 0 1.344.422 1.344 1.703 0 1.297-.828 1.719-1.438 1.719-.39 0-.718-.172-.968-.64zm0 0"/></symbol><symbol id="u" overflow="visible"><path d="m4.672-2.188c0-1.343-1-2.406-2.172-2.406-1.234 0-2.203 1.094-2.203 2.407 0 1.312 1.016 2.295 2.187 2.295 1.188 0 2.188-1 2.188-2.296zm-2.188 1.658c-.687 0-1.406-.563-1.406-1.766s.75-1.687 1.406-1.687c.704 0 1.407.515 1.407 1.687 0 1.188-.672 1.766-1.407 1.766zm0 0"/></symbol><symbol id="v" overflow="visible"><path d="m3.984-2.875c0-1.016-.734-1.719-1.656-1.719-.64 0-1.094.157-1.562.422l.062.656a2.543 2.543 0 0 1 1.5-.484c.469 0 .875.39.875 1.125v.438c-1.5.015-2.765.437-2.765 1.312 0 .422.265 1.234 1.14 1.234.14 0 1.078-.015 1.656-.468v.359h.75zm-.78 1.563c0 .187 0 .437-.345.625-.28.171-.671.187-.78.187-.47 0-.923-.234-.923-.64 0-.704 1.61-.766 2.047-.798zm0 0"/></symbol><symbol id="w" overflow="visible"><path d="m4.328-6.922h-.75v2.938a2.289 2.289 0 0 0 -1.453-.547c-.984 0-1.766 1.031-1.766 2.311.001 1.314.766 2.33 1.721 2.33.327 0 .905-.093 1.468-.625v.515h.781zm-.781 5.532c0 .141-.016.329-.328.61a1.09 1.09 0 0 1 -.735.281c-.625 0-1.343-.469-1.343-1.703 0-1.313.859-1.719 1.437-1.719.453 0 .75.219.969.547zm0 0"/></symbol><symbol id="x" overflow="visible"><path d="m2.75-1.922v-.578h-2.64v.578zm0 0"/></symbol><symbol id="y" overflow="visible"><path d="m1.594-.453c.312.281.75.562 1.343.562.97 0 1.844-.984 1.844-2.328 0-1.203-.625-2.312-1.578-2.312-.594 0-1.172.203-1.64.593v-.484h-.75v6.36h.78zm0-2.86a1.259 1.259 0 0 1 1.062-.578c.75 0 1.344.75 1.344 1.672 0 1.016-.703 1.719-1.453 1.719-.39 0-.656-.203-.86-.469-.093-.14-.093-.172-.093-.344zm0 0"/></symbol><symbol id="z" overflow="visible"><path d="m4.125-2.188c0-.328-.016-1.078-.39-1.687a1.629 1.629 0 0 0 -1.376-.719c-1.109 0-2.015 1.064-2.015 2.344 0 1.313.969 2.36 2.156 2.36a2.81 2.81 0 0 0 1.594-.516l-.063-.656a2.35 2.35 0 0 1 -1.515.562c-.797 0-1.438-.703-1.47-1.688zm-3.031-.546c.156-.75.687-1.25 1.265-1.25.516 0 1.063.328 1.204 1.25zm0 0"/></symbol><symbol id="A" overflow="visible"><path d="m3.422-4.281a3.19 3.19 0 0 0 -1.438-.313c-.25 0-1.656 0-1.656 1.297 0 .5.297.813.547 1 .297.219.516.266 1.063.375.359.063.937.188.937.719 0 .687-.781.687-.938.687-.796 0-1.358-.374-1.53-.484l-.127.672c.313.156.86.437 1.672.437.188 0 .734 0 1.156-.312.313-.25.485-.64.485-1.078 0-.547-.375-.875-.39-.907-.392-.359-.657-.421-1.157-.5-.546-.108-1.016-.217-1.016-.702.001-.61.72-.61.861-.61.312 0 .843.031 1.406.375zm0 0"/></symbol><symbol id="B" overflow="visible"><path d="m7.11-2.969c0-.672-.157-1.562-1.376-1.562-.593 0-1.109.281-1.484.812-.25-.75-.953-.812-1.266-.812-.718 0-1.187.406-1.453.765v-.718h-.718v4.484h.765v-2.438c0-.687.281-1.484 1.016-1.484.922 0 .969.64.969 1.016v2.906h.78v-2.438c0-.687.266-1.484 1.016-1.484.922 0 .97.64.97 1.016v2.906h.78zm0 0"/></symbol><symbol id="C" overflow="visible"><path d="m4.344-2.969c0-.656-.157-1.562-1.375-1.562-.89 0-1.39.672-1.438.75v-.703h-.718v4.484h.765v-2.438c0-.656.25-1.484 1.016-1.484.953 0 .969.703.969 1.016v2.906h.78zm0 0"/></symbol><symbol id="D" overflow="visible"><path d="m1.563-6.922h-.75v6.922h.75zm0 0"/></symbol><symbol id="E" overflow="visible"><path d="m3.516-3.89c.218 0 .484-.047.734-.047.172 0 .563.03.578.03l-.11-.624a4.17 4.17 0 0 0 -1.562.312 1.542 1.542 0 0 0 -.953-.312c-.86 0-1.578.718-1.578 1.625 0 .36.125.719.328.984-.297.406-.297.797-.297.844 0 .266.094.547.266.766-.516.295-.64.765-.64 1.014 0 .75.984 1.344 2.202 1.344 1.22 0 2.204-.578 2.204-1.344 0-1.39-1.657-1.39-2.047-1.39h-.875c-.125 0-.579 0-.579-.532 0-.11.032-.265.11-.36.203.157.531.298.906.298.89 0 1.594-.75 1.594-1.625 0-.485-.219-.86-.328-1zm-1.313 2.03c-.375 0-.89-.218-.89-1.046s.515-1.063.89-1.063c.422 0 .89.281.89 1.063 0 .765-.468 1.047-.89 1.047zm.453 1.892c.219-.001 1.344-.001 1.344.688 0 .437-.688.765-1.5.765-.813 0-1.516-.312-1.516-.78 0-.032 0-.673.766-.673zm0 0"/></symbol><symbol id="F" overflow="visible"><path d="m.453 1.219c-.078.343-.11.406-.547.406-.11 0-.218 0-.218.188 0 .078.046.125.124.125.266 0 .563-.032.829-.032.343 0 .671.032 1 .032.046 0 .171 0 .171-.204 0-.109-.093-.109-.234-.109-.5 0-.5-.063-.5-.156 0-.125.422-1.75.484-2 .125.297.407.64.922.64 1.157 0 2.407-1.453 2.407-2.921 0-.938-.579-1.594-1.329-1.594-.5 0-.984.36-1.312.75-.094-.547-.531-.75-.89-.75-.47 0-.657.39-.735.562-.188.344-.313.938-.313.969 0 .11.094.11.11.11.11 0 .11-.016.172-.235.172-.703.375-1.188.734-1.188.172 0 .313.079.313.454 0 .234-.032.343-.079.515zm1.75-4.328c.063-.266.344-.547.516-.704.36-.296.64-.374.812-.374.39 0 .64.343.64.937s-.327 1.734-.515 2.11c-.344.702-.812 1.03-1.187 1.03-.656 0-.781-.828-.781-.89 0-.016 0-.031.03-.156zm0 0"/></symbol><symbol id="G" overflow="visible"><path d="m.875-.594c-.031.156-.094.39-.094.438 0 .172.14.265.297.265a.414.414 0 0 0 .375-.28c0-.016.125-.485.188-.735l.218-.89c.047-.235.11-.454.172-.673.031-.172.11-.469.125-.5.14-.312.672-1.219 1.625-1.219.453 0 .531.375.531.704 0 .609-.484 1.89-.64 2.312-.094.234-.11.36-.11.469 0 .469.36.812.829.812.937 0 1.296-1.453 1.296-1.53 0-.11-.078-.11-.109-.11-.11 0-.11.031-.156.187-.203.672-.531 1.235-1.016 1.235-.172 0-.234-.094-.234-.329 0-.25.078-.484.172-.703.187-.53.61-1.625.61-2.203 0-.656-.423-1.062-1.141-1.062-.907 0-1.391.64-1.563.875-.047-.563-.453-.875-.922-.875-.453 0-.64.39-.734.562-.172.344-.297.938-.297.969 0 .11.094.11.11.11.109 0 .109-.016.171-.235.172-.703.375-1.188.735-1.188.187 0 .296.125.296.454 0 .218-.03.328-.156.843zm0 0"/></symbol><clipPath id="H"><path d="m165.254 58h5.746v2.906h-5.746zm0 0"/></clipPath><clipPath id="I"><path d="m169.086 58h12.914v2.906h-12.914zm0 0"/></clipPath><clipPath id="J"><path d="m181 58h13v2.906h-13zm0 0"/></clipPath><clipPath id="K"><path d="m192 58h13v2.906h-13zm0 0"/></clipPath><clipPath id="L"><path d="m203.102 58h12.898v2.906h-12.898zm0 0"/></clipPath><clipPath id="M"><path d="m215 58h13v2.906h-13zm0 0"/></clipPath><clipPath id="N"><path d="m226 58h13v2.906h-13zm0 0"/></clipPath><clipPath id="O"><path d="m237.117 58h12.883v2.906h-12.883zm0 0"/></clipPath><clipPath id="P"><path d="m249 58h12.633v2.906h-12.633zm0 0"/></clipPath><clipPath id="Q"><path d="m260 58h1.633v2.906h-1.633zm0 0"/></clipPath><clipPath id="R"><path d="m165.254 47h5.746v13h-5.746zm0 0"/></clipPath><clipPath id="S"><path d="m169.086 47h12.914v13h-12.914zm0 0"/></clipPath><clipPath id="T"><path d="m203.102 47h12.898v13h-12.898zm0 0"/></clipPath><clipPath id="U"><path d="m237.117 47h12.883v13h-12.883zm0 0"/></clipPath><clipPath id="V"><path d="m249 47h12.633v13h-12.633zm0 0"/></clipPath><clipPath id="W"><path d="m260 47h1.633v13h-1.633zm0 0"/></clipPath><clipPath id="X"><path d="m165.254 36h5.746v13h-5.746zm0 0"/></clipPath><clipPath id="Y"><path d="m169.086 36h12.914v13h-12.914zm0 0"/></clipPath><clipPath id="Z"><path d="m203.102 36h12.898v13h-12.898zm0 0"/></clipPath><clipPath id="aa"><path d="m237.117 36h12.883v13h-12.883zm0 0"/></clipPath><clipPath id="ab"><path d="m249 36h12.633v13h-12.633zm0 0"/></clipPath><clipPath id="ac"><path d="m260 36h1.633v13h-1.633zm0 0"/></clipPath><clipPath id="ad"><path d="m165.254 32.559h5.746v5.156h-5.746zm0 0"/></clipPath><clipPath id="ae"><path d="m169.086 32.559h12.914v5.156h-12.914zm0 0"/></clipPath><clipPath id="af"><path d="m181 32.559h13v5.156h-13zm0 0"/></clipPath><clipPath id="ag"><path d="m192 32.559h13v5.156h-13zm0 0"/></clipPath><clipPath id="ah"><path d="m203.102 32.559h12.898v5.156h-12.898zm0 0"/></clipPath><clipPath id="ai"><path d="m215 32.559h13v5.156h-13zm0 0"/></clipPath><clipPath id="aj"><path d="m226 32.559h13v5.156h-13zm0 0"/></clipPath><clipPath id="ak"><path d="m237.117 32.559h12.883v5.156h-12.883zm0 0"/></clipPath><clipPath id="al"><path d="m249 32.559h12.633v5.156h-12.633zm0 0"/></clipPath><clipPath id="am"><path d="m260 32.559h1.633v5.156h-1.633zm0 0"/></clipPath><use x="8.302" xlink:href="#a" y="16050"/><g><use x="15.289" xlink:href="#b" y="16050"/><use x="19.191" xlink:href="#c" y="16050"/><use x="24.394" xlink:href="#d" y="16050"/><use x="30.399" xlink:href="#e" y="16050"/><use x="36.003" xlink:href="#f" y="16050"/><use x="42.008" xlink:href="#f" y="16050"/><use x="48.013" xlink:href="#g" y="16050"/><use x="53.216" xlink:href="#h" y="16050"/></g><g><use x="59.866" xlink:href="#i" y="16050"/><use x="70.022" xlink:href="#j" y="16050"/><use x="78.656" xlink:href="#k" y="16050"/><use x="85.16" xlink:href="#l" y="16050"/><use x="91.808" xlink:href="#m" y="16050"/></g><use x="98.794" xlink:href="#n" y="16050"/><path d="m-.002-.002v-7.085h311.817v7.085zm0 0" fill="#008080" stroke="#000" stroke-miterlimit="10" stroke-width=".3985" transform="matrix(1 0 0 -1 57.537 117.6)"/><g><use x="187.166" xlink:href="#o" y="135.871"/><use x="191.593" xlink:href="#p" y="135.871"/><use x="193.973" xlink:href="#q" y="135.871"/><use x="197.378" xlink:href="#o" y="135.871"/><use x="201.805" xlink:href="#r" y="135.871"/><use x="206.953" xlink:href="#p" y="135.871"/><use x="209.333" xlink:href="#s" y="135.871"/></g><use x="216.248" xlink:href="#t" y="135.871"/><g><use x="221.674" xlink:href="#u" y="135.871"/><use x="226.656" xlink:href="#v" y="135.871"/></g><g><use x="231.165" xlink:href="#q" y="135.871"/><use x="234.569" xlink:href="#w" y="135.871"/></g><path d="m-.002-.002v56.696h311.817v-56.696zm0 0" fill="#ffbf80" stroke="#000" stroke-miterlimit="10" stroke-width=".3985" transform="matrix(1 0 0 -1 57.537 117.6)"/><use x="165.288" xlink:href="#F" y="99.692"/><g><use x="170.3" xlink:href="#x" y="99.692"/><use x="173.621" xlink:href="#w" y="99.692"/><use x="178.768" xlink:href="#u" y="99.692"/><use x="183.75" xlink:href="#y" y="99.692"/></g><g><use x="189.176" xlink:href="#z" y="99.692"/><use x="193.604" xlink:href="#w" y="99.692"/></g><g><use x="202.069" xlink:href="#A" y="99.692"/><use x="205.887" xlink:href="#z" y="99.692"/><use x="210.315" xlink:href="#B" y="99.692"/><use x="218.229" xlink:href="#p" y="99.692"/><use x="220.609" xlink:href="#o" y="99.692"/><use x="225.037" xlink:href="#u" y="99.692"/><use x="230.018" xlink:href="#C" y="99.692"/><use x="235.165" xlink:href="#w" y="99.692"/><use x="240.313" xlink:href="#r" y="99.692"/><use x="245.461" xlink:href="#o" y="99.692"/><use x="249.888" xlink:href="#s" y="99.692"/><use x="253.486" xlink:href="#u" y="99.692"/></g><use x="258.188" xlink:href="#q" y="99.692"/><g clip-path="url(#H)"><path d="m0 2.835h11.34m-11.34 5.668h11.34m-8.504-8.504v2.836m5.668 0v5.668m-5.668 0v2.835" fill="none" stroke="#f00" stroke-miterlimit="10" stroke-width=".79701" transform="matrix(1 0 0 -1 158.742 70.733)"/></g><g clip-path="url(#I)"><path d="m.002 2.835h11.335m-11.335 5.668h11.335m-8.503-8.504v2.836m5.671 0v5.668m-5.671 0v2.835" fill="none" stroke="#f00" stroke-miterlimit="10" stroke-width=".79701" transform="matrix(1 0 0 -1 170.08 70.733)"/></g><g clip-path="url(#J)"><path d="m-.001 2.835h11.34m-11.34 5.668h11.34m-8.504-8.504v2.836m5.668 0v5.668m-5.668 0v2.835" fill="none" stroke="#f00" stroke-miterlimit="10" stroke-width=".79701" transform="matrix(1 0 0 -1 181.42 70.733)"/></g><g clip-path="url(#K)"><path d="m0 2.835h11.34m-11.34 5.668h11.34m-8.504-8.504v2.836m5.668 0v5.668m-5.668 0v2.835" fill="none" stroke="#f00" stroke-miterlimit="10" stroke-width=".79701" transform="matrix(1 0 0 -1 192.758 70.733)"/></g><g clip-path="url(#L)"><path d="m.001 2.835h11.336m-11.336 5.668h11.336m-8.504-8.504v2.836m5.672 0v5.668m-5.672 0v2.835" fill="none" stroke="#f00" stroke-miterlimit="10" stroke-width=".79701" transform="matrix(1 0 0 -1 204.097 70.733)"/></g><g clip-path="url(#M)"><path d="m-.002 2.835h11.34m-11.34 5.668h11.34m-8.504-8.504v2.836m5.668 0v5.668m-5.668 0v2.835" fill="none" stroke="#f00" stroke-miterlimit="10" stroke-width=".79701" transform="matrix(1 0 0 -1 215.435 70.733)"/></g><g clip-path="url(#N)"><path d="m0 2.835h11.34m-11.34 5.668h11.34m-8.506-8.504v2.836m5.668 0v5.668m-5.668 0v2.835" fill="none" stroke="#f00" stroke-miterlimit="10" stroke-width=".79701" transform="matrix(1 0 0 -1 226.774 70.733)"/></g><g clip-path="url(#O)"><path d="m0 2.835h11.34m-11.34 5.668h11.34m-8.503-8.504v2.836m5.667 0v5.668m-5.667 0v2.835" fill="none" stroke="#f00" stroke-miterlimit="10" stroke-width=".79701" transform="matrix(1 0 0 -1 238.113 70.733)"/></g><g clip-path="url(#P)"><path d="m.002 2.835h11.336m-11.336 5.668h11.336m-8.504-8.504v2.836m5.672 0v5.668m-5.672 0v2.835" fill="none" stroke="#f00" stroke-miterlimit="10" stroke-width=".79701" transform="matrix(1 0 0 -1 249.451 70.733)"/></g><g clip-path="url(#Q)"><path d="m-.001 2.835h11.34m-11.34 5.668h11.34m-8.504-8.504v2.836m5.668 0v5.668m-5.668 0v2.835" fill="none" stroke="#f00" stroke-miterlimit="10" stroke-width=".79701" transform="matrix(1 0 0 -1 260.79 70.733)"/></g><g clip-path="url(#R)"><path d="m0 2.836h11.34m-11.34 5.668h11.34m-8.504-8.504v2.836m5.668 0v5.668m-5.668 0v2.836" fill="none" stroke="#f00" stroke-miterlimit="10" stroke-width=".79701" transform="matrix(1 0 0 -1 158.742 59.394)"/></g><g clip-path="url(#S)"><path d="m.002 2.836h11.335m-11.335 5.668h11.335m-8.503-8.504v2.836m5.671 0v5.668m-5.671 0v2.836" fill="none" stroke="#f00" stroke-miterlimit="10" stroke-width=".79701" transform="matrix(1 0 0 -1 170.08 59.394)"/></g><path d="m-.001 2.836h11.34m-11.34 5.668h11.34m-8.504-8.504v2.836m5.668 0v5.668m-5.668 0v2.836" fill="none" stroke="#f00" stroke-miterlimit="10" stroke-width=".79701" transform="matrix(1 0 0 -1 181.42 59.394)"/><path d="m0 2.836h11.34m-11.34 5.668h11.34m-8.504-8.504v2.836m5.668 0v5.668m-5.668 0v2.836" fill="none" stroke="#f00" stroke-miterlimit="10" stroke-width=".79701" transform="matrix(1 0 0 -1 192.758 59.394)"/><g clip-path="url(#T)"><path d="m.001 2.836h11.336m-11.336 5.668h11.336m-8.504-8.504v2.836m5.672 0v5.668m-5.672 0v2.836" fill="none" stroke="#f00" stroke-miterlimit="10" stroke-width=".79701" transform="matrix(1 0 0 -1 204.097 59.394)"/></g><path d="m-.002 2.836h11.34m-11.34 5.668h11.34m-8.504-8.504v2.836m5.668 0v5.668m-5.668 0v2.836" fill="none" stroke="#f00" stroke-miterlimit="10" stroke-width=".79701" transform="matrix(1 0 0 -1 215.435 59.394)"/><path d="m0 2.836h11.34m-11.34 5.668h11.34m-8.506-8.504v2.836m5.668 0v5.668m-5.668 0v2.836" fill="none" stroke="#f00" stroke-miterlimit="10" stroke-width=".79701" transform="matrix(1 0 0 -1 226.774 59.394)"/><g clip-path="url(#U)"><path d="m0 2.836h11.34m-11.34 5.668h11.34m-8.503-8.504v2.836m5.667 0v5.668m-5.667 0v2.836" fill="none" stroke="#f00" stroke-miterlimit="10" stroke-width=".79701" transform="matrix(1 0 0 -1 238.113 59.394)"/></g><g clip-path="url(#V)"><path d="m.002 2.836h11.336m-11.336 5.668h11.336m-8.504-8.504v2.836m5.672 0v5.668m-5.672 0v2.836" fill="none" stroke="#f00" stroke-miterlimit="10" stroke-width=".79701" transform="matrix(1 0 0 -1 249.451 59.394)"/></g><g clip-path="url(#W)"><path d="m-.001 2.836h11.34m-11.34 5.668h11.34m-8.504-8.504v2.836m5.668 0v5.668m-5.668 0v2.836" fill="none" stroke="#f00" stroke-miterlimit="10" stroke-width=".79701" transform="matrix(1 0 0 -1 260.79 59.394)"/></g><g clip-path="url(#X)"><path d="m0 2.833h11.34m-11.34 5.672h11.34m-8.504-8.505v2.832m5.668 0v5.672m-5.668 0v2.832" fill="none" stroke="#f00" stroke-miterlimit="10" stroke-width=".79701" transform="matrix(1 0 0 -1 158.742 48.056)"/></g><g clip-path="url(#Y)"><path d="m.002 2.833h11.335m-11.335 5.672h11.335m-8.503-8.505v2.832m5.671 0v5.672m-5.671 0v2.832" fill="none" stroke="#f00" stroke-miterlimit="10" stroke-width=".79701" transform="matrix(1 0 0 -1 170.08 48.056)"/></g><path d="m-.001 2.833h11.34m-11.34 5.672h11.34m-8.504-8.505v2.832m5.668 0v5.672m-5.668 0v2.832" fill="none" stroke="#f00" stroke-miterlimit="10" stroke-width=".79701" transform="matrix(1 0 0 -1 181.42 48.056)"/><path d="m0 2.833h11.34m-11.34 5.672h11.34m-8.504-8.505v2.832m5.668 0v5.672m-5.668 0v2.832" fill="none" stroke="#f00" stroke-miterlimit="10" stroke-width=".79701" transform="matrix(1 0 0 -1 192.758 48.056)"/><g clip-path="url(#Z)"><path d="m.001 2.833h11.336m-11.336 5.672h11.336m-8.504-8.505v2.832m5.672 0v5.672m-5.672 0v2.832" fill="none" stroke="#f00" stroke-miterlimit="10" stroke-width=".79701" transform="matrix(1 0 0 -1 204.097 48.056)"/></g><path d="m-.002 2.833h11.34m-11.34 5.672h11.34m-8.504-8.505v2.832m5.668 0v5.672m-5.668 0v2.832" fill="none" stroke="#f00" stroke-miterlimit="10" stroke-width=".79701" transform="matrix(1 0 0 -1 215.435 48.056)"/><path d="m0 2.833h11.34m-11.34 5.672h11.34m-8.506-8.505v2.832m5.668 0v5.672m-5.668 0v2.832" fill="none" stroke="#f00" stroke-miterlimit="10" stroke-width=".79701" transform="matrix(1 0 0 -1 226.774 48.056)"/><g clip-path="url(#aa)"><path d="m0 2.833h11.34m-11.34 5.672h11.34m-8.503-8.505v2.832m5.667 0v5.672m-5.667 0v2.832" fill="none" stroke="#f00" stroke-miterlimit="10" stroke-width=".79701" transform="matrix(1 0 0 -1 238.113 48.056)"/></g><g clip-path="url(#ab)"><path d="m.002 2.833h11.336m-11.336 5.672h11.336m-8.504-8.505v2.832m5.672 0v5.672m-5.672 0v2.832" fill="none" stroke="#f00" stroke-miterlimit="10" stroke-width=".79701" transform="matrix(1 0 0 -1 249.451 48.056)"/></g><g clip-path="url(#ac)"><path d="m-.001 2.833h11.34m-11.34 5.672h11.34m-8.504-8.505v2.832m5.668 0v5.672m-5.668 0v2.832" fill="none" stroke="#f00" stroke-miterlimit="10" stroke-width=".79701" transform="matrix(1 0 0 -1 260.79 48.056)"/></g><g clip-path="url(#ad)"><path d="m0 2.834h11.34m-11.34 5.672h11.34m-8.504-8.508v2.836m5.668 0v5.672m-5.668 0v2.832" fill="none" stroke="#f00" stroke-miterlimit="10" stroke-width=".79701" transform="matrix(1 0 0 -1 158.742 36.717)"/></g><g clip-path="url(#ae)"><path d="m.002 2.834h11.335m-11.335 5.672h11.335m-8.503-8.508v2.836m5.671 0v5.672m-5.671 0v2.832" fill="none" stroke="#f00" stroke-miterlimit="10" stroke-width=".79701" transform="matrix(1 0 0 -1 170.08 36.717)"/></g><g clip-path="url(#af)"><path d="m-.001 2.834h11.34m-11.34 5.672h11.34m-8.504-8.508v2.836m5.668 0v5.672m-5.668 0v2.832" fill="none" stroke="#f00" stroke-miterlimit="10" stroke-width=".79701" transform="matrix(1 0 0 -1 181.42 36.717)"/></g><g clip-path="url(#ag)"><path d="m0 2.834h11.34m-11.34 5.672h11.34m-8.504-8.508v2.836m5.668 0v5.672m-5.668 0v2.832" fill="none" stroke="#f00" stroke-miterlimit="10" stroke-width=".79701" transform="matrix(1 0 0 -1 192.758 36.717)"/></g><g clip-path="url(#ah)"><path d="m.001 2.834h11.336m-11.336 5.672h11.336m-8.504-8.508v2.836m5.672 0v5.672m-5.672 0v2.832" fill="none" stroke="#f00" stroke-miterlimit="10" stroke-width=".79701" transform="matrix(1 0 0 -1 204.097 36.717)"/></g><g clip-path="url(#ai)"><path d="m-.002 2.834h11.34m-11.34 5.672h11.34m-8.504-8.508v2.836m5.668 0v5.672m-5.668 0v2.832" fill="none" stroke="#f00" stroke-miterlimit="10" stroke-width=".79701" transform="matrix(1 0 0 -1 215.435 36.717)"/></g><g clip-path="url(#aj)"><path d="m0 2.834h11.34m-11.34 5.672h11.34m-8.506-8.508v2.836m5.668 0v5.672m-5.668 0v2.832" fill="none" stroke="#f00" stroke-miterlimit="10" stroke-width=".79701" transform="matrix(1 0 0 -1 226.774 36.717)"/></g><g clip-path="url(#ak)"><path d="m0 2.834h11.34m-11.34 5.672h11.34m-8.503-8.508v2.836m5.667 0v5.672m-5.667 0v2.832" fill="none" stroke="#f00" stroke-miterlimit="10" stroke-width=".79701" transform="matrix(1 0 0 -1 238.113 36.717)"/></g><g clip-path="url(#al)"><path d="m.002 2.834h11.336m-11.336 5.672h11.336m-8.504-8.508v2.836m5.672 0v5.672m-5.672 0v2.832" fill="none" stroke="#f00" stroke-miterlimit="10" stroke-width=".79701" transform="matrix(1 0 0 -1 249.451 36.717)"/></g><g clip-path="url(#am)"><path d="m-.001 2.834h11.34m-11.34 5.672h11.34m-8.504-8.508v2.836m5.668 0v5.672m-5.668 0v2.832" fill="none" stroke="#f00" stroke-miterlimit="10" stroke-width=".79701" transform="matrix(1 0 0 -1 260.79 36.717)"/></g><path d="m107.717 56.694v28.346h96.379v-28.346zm0 0" fill="none" stroke="#000" stroke-miterlimit="10" stroke-width=".3985" transform="matrix(1 0 0 -1 57.537 117.6)"/><path d="m175.404 76.319h-38.992a.995.995 0 0 1 -.996-.996v-8.91c0-.551.445-.997.996-.997h38.992c.551 0 .996.446.996.996v8.91a.996.996 0 0 1 -.996.997zm0 0" fill="#fff" stroke="#000" stroke-miterlimit="10" stroke-width=".09962" transform="matrix(1 0 0 -1 57.537 117.6)"/><g><use x="194.942" xlink:href="#w" y="50.193"/><use x="200.09" xlink:href="#p" y="50.193"/><use x="202.47" xlink:href="#z" y="50.193"/><use x="206.897" xlink:href="#D" y="50.193"/><use x="209.277" xlink:href="#z" y="50.193"/><use x="213.705" xlink:href="#o" y="50.193"/><use x="218.132" xlink:href="#s" y="50.193"/><use x="221.729" xlink:href="#q" y="50.193"/><use x="225.134" xlink:href="#p" y="50.193"/><use x="227.514" xlink:href="#o" y="50.193"/></g><path d="m113.389 85.041v14.172h85.039v-14.172zm0 0" fill="#e5e5ff" stroke="#000" stroke-miterlimit="10" stroke-width=".3985" transform="matrix(1 0 0 -1 57.537 117.6)"/><g><use x="204.545" xlink:href="#E" y="14.04"/><use x="209.526" xlink:href="#v" y="14.04"/><use x="214.314" xlink:href="#s" y="14.04"/><use x="217.912" xlink:href="#z" y="14.04"/></g><path d="m35.432 56.694v14.172h49.61v-14.172zm0 0" fill="#e5e5ff" stroke="#000" stroke-miterlimit="10" stroke-width=".3985" transform="matrix(1 0 0 -1 57.537 117.6)"/><g><use x="104.669" xlink:href="#A" y="44.323"/><use x="108.488" xlink:href="#u" y="44.323"/><use x="113.469" xlink:href="#r" y="44.323"/><use x="118.617" xlink:href="#q" y="44.323"/><use x="122.021" xlink:href="#o" y="44.323"/><use x="126.448" xlink:href="#z" y="44.323"/></g><path d="m226.775 56.694v14.172h49.606v-14.172zm0 0" fill="#e5e5ff" stroke="#000" stroke-miterlimit="10" stroke-width=".3985" transform="matrix(1 0 0 -1 57.537 117.6)"/><g><use x="298.678" xlink:href="#w" y="44.323"/><use x="303.826" xlink:href="#q" y="44.323"/><use x="307.23" xlink:href="#v" y="44.323"/><use x="312.018" xlink:href="#p" y="44.323"/><use x="314.398" xlink:href="#C" y="44.323"/></g><path d="m28.346 28.346v28.348h85.043v-28.348zm0 0" fill="#a6ffa6" stroke="#000" stroke-miterlimit="10" stroke-width=".3985" transform="matrix(1 0 0 -1 57.537 117.6)"/><use x="111.188" xlink:href="#G" y="72.517"/><g><use x="117.168" xlink:href="#x" y="72.517"/><use x="120.489" xlink:href="#w" y="72.517"/><use x="125.636" xlink:href="#u" y="72.517"/><use x="130.618" xlink:href="#y" y="72.517"/></g><g><use x="136.044" xlink:href="#z" y="72.517"/><use x="140.472" xlink:href="#w" y="72.517"/></g><g><use x="98.639" xlink:href="#A" y="84.472"/><use x="102.458" xlink:href="#z" y="84.472"/><use x="106.885" xlink:href="#B" y="84.472"/><use x="114.799" xlink:href="#p" y="84.472"/><use x="117.179" xlink:href="#o" y="84.472"/><use x="121.607" xlink:href="#u" y="84.472"/><use x="126.588" xlink:href="#C" y="84.472"/><use x="131.736" xlink:href="#w" y="84.472"/><use x="136.883" xlink:href="#r" y="84.472"/><use x="142.031" xlink:href="#o" y="84.472"/><use x="146.458" xlink:href="#s" y="84.472"/><use x="150.056" xlink:href="#u" y="84.472"/></g><use x="154.758" xlink:href="#q" y="84.472"/><path d="m198.428 28.346v28.348h85.039v-28.348zm0 0" fill="#a6ffa6" stroke="#000" stroke-miterlimit="10" stroke-width=".3985" transform="matrix(1 0 0 -1 57.537 117.6)"/><use x="281.267" xlink:href="#G" y="72.517"/><g><use x="287.247" xlink:href="#x" y="72.517"/><use x="290.568" xlink:href="#w" y="72.517"/><use x="295.715" xlink:href="#u" y="72.517"/><use x="300.697" xlink:href="#y" y="72.517"/></g><g><use x="306.123" xlink:href="#z" y="72.517"/><use x="310.551" xlink:href="#w" y="72.517"/></g><g><use x="268.718" xlink:href="#A" y="84.472"/><use x="272.537" xlink:href="#z" y="84.472"/><use x="276.964" xlink:href="#B" y="84.472"/><use x="284.878" xlink:href="#p" y="84.472"/><use x="287.258" xlink:href="#o" y="84.472"/><use x="291.686" xlink:href="#u" y="84.472"/><use x="296.667" xlink:href="#C" y="84.472"/><use x="301.815" xlink:href="#w" y="84.472"/><use x="306.962" xlink:href="#r" y="84.472"/><use x="312.11" xlink:href="#o" y="84.472"/><use x="316.537" xlink:href="#s" y="84.472"/><use x="320.135" xlink:href="#u" y="84.472"/></g><use x="324.837" xlink:href="#q" y="84.472"/></svg>