<svg xmlns="http://www.w3.org/2000/svg" xmlns:xlink="http://www.w3.org/1999/xlink" width="429.563" height="221.18" viewBox="0 0 322.172 165.885"><defs><symbol overflow="visible" id="a"><path style="stroke:none" d="M4.094-4.172c-.594-.328-.938-.422-1.547-.422C1.172-4.594.359-3.39.359-2.219.36-.984 1.266.11 2.516.11c.53 0 1.078-.14 1.625-.515l-.063-.656a2.517 2.517 0 0 1-1.562.53c-.829 0-1.375-.718-1.375-1.687 0-.781.359-1.734 1.421-1.734.516 0 .86.078 1.407.437Zm0 0"/></symbol><symbol overflow="visible" id="b"><path style="stroke:none" d="M1.625-6.781h-.89v.89h.89Zm-.063 2.36h-.75V0h.75Zm0 0"/></symbol><symbol overflow="visible" id="c"><path style="stroke:none" d="M1.563-2.14c0-.985.718-1.704 1.703-1.735v-.656c-.891 0-1.438.5-1.75.953v-.906H.812V0h.75Zm0 0"/></symbol><symbol overflow="visible" id="d"><path style="stroke:none" d="M4.344-4.422h-.782v2.89C3.563-.781 3-.436 2.36-.436c-.703 0-.78-.266-.78-.688v-3.297H.812v3.328C.813-.375 1.03.11 1.859.11c.532 0 1.235-.156 1.735-.593V0h.75Zm0 0"/></symbol><symbol overflow="visible" id="e"><path style="stroke:none" d="M1.75-3.844h1.406v-.578H1.75v-1.266h-.688v1.266H.188v.578h.844v2.656c0 .594.14 1.297.828 1.297s1.204-.25 1.454-.375l-.157-.593a1.407 1.407 0 0 1-.906.328c-.36 0-.5-.297-.5-.828Zm0 0"/></symbol><symbol overflow="visible" id="f"><path style="stroke:none" d="M1.563-6.922h-.75V0h.78v-.453c.235.219.673.562 1.345.562.984 0 1.843-1 1.843-2.328 0-1.234-.672-2.312-1.61-2.312-.39 0-1.015.093-1.608.578Zm.03 3.578c.157-.234.516-.578 1.063-.578C3.25-3.922 4-3.5 4-2.219 4-.922 3.172-.5 2.562-.5c-.39 0-.718-.172-.968-.64Zm0 0"/></symbol><symbol overflow="visible" id="g"><path style="stroke:none" d="M4.672-2.188c0-1.343-1-2.406-2.172-2.406C1.266-4.594.297-3.5.297-2.187.297-.875 1.313.108 2.484.108c1.188 0 2.188-1 2.188-2.296ZM2.484-.53c-.687 0-1.406-.563-1.406-1.766s.75-1.687 1.406-1.687c.704 0 1.407.515 1.407 1.687 0 1.188-.672 1.766-1.407 1.766Zm0 0"/></symbol><symbol overflow="visible" id="h"><path style="stroke:none" d="M3.984-2.875c0-1.016-.734-1.719-1.656-1.719-.64 0-1.094.157-1.562.422l.062.656A2.543 2.543 0 0 1 2.328-4c.469 0 .875.39.875 1.125v.438C1.703-2.422.438-2 .438-1.125c0 .422.265 1.234 1.14 1.234.14 0 1.078-.015 1.656-.468V0h.75Zm-.78 1.563c0 .187 0 .437-.345.625-.28.171-.671.187-.78.187-.47 0-.923-.234-.923-.64 0-.704 1.61-.766 2.047-.798Zm0 0"/></symbol><symbol overflow="visible" id="i"><path style="stroke:none" d="M4.328-6.922h-.75v2.938a2.289 2.289 0 0 0-1.453-.547C1.141-4.531.359-3.5.359-2.22.36-.906 1.125.11 2.08.11c.327 0 .905-.093 1.468-.625V0h.781ZM3.547-1.39c0 .141-.016.329-.328.61a1.09 1.09 0 0 1-.735.281c-.625 0-1.343-.469-1.343-1.703 0-1.313.859-1.719 1.437-1.719.453 0 .75.219.969.547Zm0 0"/></symbol><symbol overflow="visible" id="k"><path style="stroke:none" d="M2.75-1.922V-2.5H.11v.578Zm0 0"/></symbol><symbol overflow="visible" id="l"><path style="stroke:none" d="M4.453-4.422h-.75C2.406-1.25 2.375-.797 2.375-.562h-.016c-.062-.672-.859-2.532-.89-2.625L.922-4.423H.14L2.078 0c-.125.313-.328.813-.36.89-.265.579-.437.579-.577.579-.157 0-.47-.032-.766-.157l.047.657c.219.047.5.078.719.078.359 0 .718-.125 1.125-1.14Zm0 0"/></symbol><symbol overflow="visible" id="m"><path style="stroke:none" d="M1.594-.453c.312.281.75.562 1.343.562.97 0 1.844-.984 1.844-2.328 0-1.203-.625-2.312-1.578-2.312-.594 0-1.172.203-1.64.593v-.484h-.75v6.36h.78Zm0-2.86a1.259 1.259 0 0 1 1.062-.578c.75 0 1.344.75 1.344 1.672C4-1.203 3.297-.5 2.547-.5c-.39 0-.656-.203-.86-.469-.093-.14-.093-.172-.093-.344Zm0 0"/></symbol><symbol overflow="visible" id="n"><path style="stroke:none" d="M4.125-2.188c0-.328-.016-1.078-.39-1.687a1.629 1.629 0 0 0-1.376-.719C1.25-4.594.344-3.53.344-2.25.344-.937 1.313.11 2.5.11a2.81 2.81 0 0 0 1.594-.516l-.063-.656A2.35 2.35 0 0 1 2.516-.5c-.797 0-1.438-.703-1.47-1.688Zm-3.031-.546c.156-.75.687-1.25 1.265-1.25.516 0 1.063.328 1.204 1.25Zm0 0"/></symbol><symbol overflow="visible" id="o"><path style="stroke:none" d="M3.422-4.281a3.19 3.19 0 0 0-1.438-.313c-.25 0-1.656 0-1.656 1.297 0 .5.297.813.547 1 .297.219.516.266 1.063.375.359.063.937.188.937.719 0 .687-.781.687-.938.687C1.141-.516.579-.89.407-1L.28-.328c.313.156.86.437 1.672.437.188 0 .734 0 1.156-.312.313-.25.485-.64.485-1.078 0-.547-.375-.875-.39-.907-.392-.359-.657-.421-1.157-.5C1.5-2.796 1.03-2.905 1.03-3.39 1.031-4 1.75-4 1.891-4c.312 0 .843.031 1.406.375Zm0 0"/></symbol><symbol overflow="visible" id="p"><path style="stroke:none" d="M7.11-2.969c0-.672-.157-1.562-1.376-1.562-.593 0-1.109.281-1.484.812-.25-.75-.953-.812-1.266-.812-.718 0-1.187.406-1.453.765v-.718H.813V0h.765v-2.438c0-.687.281-1.484 1.016-1.484.922 0 .969.64.969 1.016V0h.78v-2.438c0-.687.266-1.484 1.016-1.484.922 0 .97.64.97 1.016V0h.78Zm0 0"/></symbol><symbol overflow="visible" id="q"><path style="stroke:none" d="M4.344-2.969c0-.656-.157-1.562-1.375-1.562-.89 0-1.39.672-1.438.75v-.703H.813V0h.765v-2.438c0-.656.25-1.484 1.016-1.484.953 0 .969.703.969 1.016V0h.78Zm0 0"/></symbol><symbol overflow="visible" id="Q"><path style="stroke:none" d="M1.563-6.922h-.75V0h.75Zm0 0"/></symbol><symbol overflow="visible" id="R"><path style="stroke:none" d="M3.516-3.89c.218 0 .484-.047.734-.047.172 0 .563.03.578.03l-.11-.624a4.17 4.17 0 0 0-1.562.312 1.542 1.542 0 0 0-.953-.312c-.86 0-1.578.718-1.578 1.625 0 .36.125.719.328.984-.297.406-.297.797-.297.844 0 .266.094.547.266.766C.406-.017.282.453.282.702c0 .75.984 1.344 2.202 1.344 1.22 0 2.204-.578 2.204-1.344 0-1.39-1.657-1.39-2.047-1.39h-.875c-.125 0-.579 0-.579-.532 0-.11.032-.265.11-.36.203.157.531.298.906.298.89 0 1.594-.75 1.594-1.625 0-.485-.219-.86-.328-1ZM2.203-1.86c-.375 0-.89-.218-.89-1.046 0-.828.515-1.063.89-1.063.422 0 .89.281.89 1.063 0 .765-.468 1.047-.89 1.047ZM2.656.032C2.875.031 4 .031 4 .72c0 .437-.688.765-1.5.765-.813 0-1.516-.312-1.516-.78 0-.032 0-.673.766-.673Zm0 0"/></symbol><symbol overflow="visible" id="j"><path style="stroke:none" d="M.453 1.219c-.078.343-.11.406-.547.406-.11 0-.218 0-.218.188 0 .078.046.125.124.125.266 0 .563-.032.829-.032.343 0 .671.032 1 .032.046 0 .171 0 .171-.204 0-.109-.093-.109-.234-.109-.5 0-.5-.063-.5-.156 0-.125.422-1.75.484-2 .125.297.407.64.922.64 1.157 0 2.407-1.453 2.407-2.921 0-.938-.579-1.594-1.329-1.594-.5 0-.984.36-1.312.75-.094-.547-.531-.75-.89-.75-.47 0-.657.39-.735.562-.188.344-.313.938-.313.969 0 .11.094.11.11.11.11 0 .11-.016.172-.235.172-.703.375-1.188.734-1.188.172 0 .313.079.313.454 0 .234-.032.343-.079.515Zm1.75-4.328c.063-.266.344-.547.516-.704.36-.296.64-.374.812-.374.39 0 .64.343.64.937 0 .594-.327 1.734-.515 2.11-.344.702-.812 1.03-1.187 1.03-.656 0-.781-.828-.781-.89 0-.016 0-.031.03-.156Zm0 0"/></symbol><symbol overflow="visible" id="S"><path style="stroke:none" d="M.875-.594c-.031.156-.094.39-.094.438 0 .172.14.265.297.265a.414.414 0 0 0 .375-.28c0-.016.125-.485.188-.735l.218-.89c.047-.235.11-.454.172-.673.031-.172.11-.469.125-.5.14-.312.672-1.219 1.625-1.219.453 0 .531.375.531.704 0 .609-.484 1.89-.64 2.312-.094.234-.11.36-.11.469 0 .469.36.812.829.812.937 0 1.296-1.453 1.296-1.53 0-.11-.078-.11-.109-.11-.11 0-.11.031-.156.187-.203.672-.531 1.235-1.016 1.235-.172 0-.234-.094-.234-.329 0-.25.078-.484.172-.703.187-.53.61-1.625.61-2.203 0-.656-.423-1.062-1.141-1.062-.907 0-1.391.64-1.563.875-.047-.563-.453-.875-.922-.875-.453 0-.64.39-.734.562-.172.344-.297.938-.297.969 0 .11.094.11.11.11.109 0 .109-.016.171-.235.172-.703.375-1.188.735-1.188.187 0 .296.125.296.454 0 .218-.03.328-.156.843Zm0 0"/></symbol><symbol overflow="visible" id="T"><path style="stroke:none" d="M2.469-3.5c.015-.078.312-.672.765-1.047a1.639 1.639 0 0 1 1.172-.484c.485 0 .657.36.657.828 0 .687-.5 2.047-.735 2.703-.11.281-.172.438-.172.656 0 .531.375.969.953.969 1.11 0 1.532-1.766 1.532-1.828 0-.063-.047-.11-.125-.11-.11 0-.125.032-.188.235-.266.984-.719 1.453-1.187 1.453-.125 0-.313 0-.313-.39 0-.297.125-.657.203-.829.235-.656.735-1.984.735-2.672 0-.718-.407-1.25-1.313-1.25-1.078 0-1.625.75-1.844 1.047-.046-.687-.53-1.047-1.062-1.047-.375 0-.64.22-.844.625-.219.438-.375 1.157-.375 1.204 0 .046.047.109.125.109.094 0 .11-.016.188-.297.187-.719.406-1.406.875-1.406.28 0 .375.187.375.547 0 .265-.125.734-.204 1.109l-.343 1.281c-.047.235-.172.766-.235.985-.078.312-.218.875-.218.937 0 .156.14.297.312.297.14 0 .313-.078.406-.25.032-.063.141-.484.204-.719l.25-1.078Zm0 0"/></symbol><symbol overflow="visible" id="U"><path style="stroke:none" d="M3.234-2.313V-3H.125v.688Zm0 0"/></symbol><symbol overflow="visible" id="V"><path style="stroke:none" d="M2.047-4.61h1.64v-.702h-1.64v-1.516h-.828v1.516h-1v.703h.969v3.203c0 .703.156 1.531.984 1.531.797 0 1.36-.281 1.719-.469l-.172-.703c-.422.375-.86.422-1.078.422-.532 0-.594-.563-.594-.984Zm0 0"/></symbol><symbol overflow="visible" id="W"><path style="stroke:none" d="M5.172-5.313h-.89C3.733-3.89 2.811-1.546 2.765-.688H2.75c-.063-.718-.688-2.28-.797-2.53L1.11-5.314H.172L2.39 0l-.422 1.094c-.266.593-.438.656-.657.656-.171 0-.546-.047-.921-.188l.078.782a4.5 4.5 0 0 0 .844.094c.296 0 .843 0 1.359-1.313Zm0 0"/></symbol><symbol overflow="visible" id="X"><path style="stroke:none" d="M1.844-.531c.406.36.906.656 1.547.656 1.156 0 2.171-1.172 2.171-2.797 0-1.437-.75-2.75-1.875-2.75-.484 0-1.25.156-1.874.672v-.563H.938v7.625h.906Zm0-3.485a1.465 1.465 0 0 1 1.218-.671c.876 0 1.594.89 1.594 2.03 0 1.204-.812 2.063-1.703 2.063-.328 0-.562-.125-.781-.297-.297-.25-.328-.468-.328-.656Zm0 0"/></symbol><symbol overflow="visible" id="Y"><path style="stroke:none" d="M4.86-2.688c0-.515-.048-1.25-.423-1.874-.5-.829-1.328-.922-1.671-.922C1.469-5.484.39-4.25.39-2.688.39-1.109 1.547.126 2.92.126c.563 0 1.22-.156 1.876-.64 0-.047-.047-.422-.047-.438 0-.016-.031-.281-.031-.328-.703.593-1.407.687-1.766.687-.922 0-1.703-.828-1.734-2.094Zm-3.563-.64c.203-.813.766-1.438 1.469-1.438.359 0 1.187.157 1.39 1.438Zm0 0"/></symbol><symbol overflow="visible" id="Z"><path style="stroke:none" d="M2.5-8.297H1.14V0h.923v-7.375c.171.813 2.109 5.922 2.562 7.125H5.5c.39-1.031 2.36-6.234 2.578-7.14h.016V0h.922v-8.297h-1.36L6.281-4.609c-.61 1.671-1.078 2.921-1.203 3.468h-.016c-.03-.203-.187-.64-.343-1.109-.219-.64-.219-.672-.407-1.156Zm0 0"/></symbol><symbol overflow="visible" id="aa"><path style="stroke:none" d="M7.969-4.125c0-2.531-1.719-4.422-3.657-4.422-1.984 0-3.671 1.922-3.671 4.422C.64-1.609 2.375.25 4.297.25c1.984 0 3.672-1.875 3.672-4.375ZM4.312-.5c-1.39 0-2.64-1.5-2.64-3.797 0-2.203 1.297-3.516 2.625-3.516 1.375 0 2.64 1.344 2.64 3.516C6.938-1.953 5.657-.5 4.313-.5Zm0 0"/></symbol><symbol overflow="visible" id="ab"><path style="stroke:none" d="M5.438-7.953c-.485-.266-1.094-.594-2.157-.594-1.594 0-2.64 1.14-2.64 2.344 0 .844.515 1.39.578 1.453.593.61 1 .703 1.75.906 1.031.25 1.187.297 1.578.688.203.219.375.594.375 1.015 0 .829-.672 1.594-1.703 1.594a3.752 3.752 0 0 1-2.516-1l-.172.969A4.894 4.894 0 0 0 3.22.25c1.53 0 2.624-1.188 2.624-2.516 0-.765-.375-1.328-.625-1.625-.563-.593-1-.718-1.797-.921-.813-.204-1.11-.266-1.375-.516-.156-.172-.485-.469-.485-1 0-.734.657-1.438 1.72-1.438 1.015 0 1.546.391 1.984.766Zm0 0"/></symbol><symbol overflow="visible" id="ac"><path style="stroke:none" d="M5.656-3.781V-4.5H2.11v-3.031h1.532c.156 0 .296.015.437.015h2.063v-.75H1.078V0H2.11v-3.781Zm0 0"/></symbol><symbol overflow="visible" id="ad"><path style="stroke:none" d="M5.969-3.938v-.718h-3.86v-2.875h1.625c.141 0 .282.015.422.015h2.157v-.75H1.077V0h5.39v-.813h-1.56c-.156 0-.297.016-.437.016H2.11v-3.14Zm0 0"/></symbol><symbol overflow="visible" id="ae"><path style="stroke:none" d="M4.5-7.5h1.063c.14 0 .28.016.421.016h1.563v-.75H.422v.75H2c.14 0 .281-.016.422-.016h1.062V0H4.5Zm0 0"/></symbol><clipPath id="r"><path d="M112.898 74H114v8.617h-1.102Zm0 0"/></clipPath><clipPath id="s"><path d="M112.898 74H126v8.617h-13.102Zm0 0"/></clipPath><clipPath id="t"><path d="M124 74h13v8.617h-13Zm0 0"/></clipPath><clipPath id="u"><path d="M135.066 74H148v8.617h-12.934Zm0 0"/></clipPath><clipPath id="v"><path d="M147 74h13v8.617h-13Zm0 0"/></clipPath><clipPath id="w"><path d="M158 74h13v8.617h-13Zm0 0"/></clipPath><clipPath id="x"><path d="M169.086 74H182v8.617h-12.914Zm0 0"/></clipPath><clipPath id="y"><path d="M181 74h13v8.617h-13Zm0 0"/></clipPath><clipPath id="z"><path d="M192 74h13v8.617h-13Zm0 0"/></clipPath><clipPath id="A"><path d="M203.102 74h6.175v8.617h-6.175Zm0 0"/></clipPath><clipPath id="B"><path d="M112.898 63H114v13h-1.102Zm0 0"/></clipPath><clipPath id="C"><path d="M112.898 63H126v13h-13.102Zm0 0"/></clipPath><clipPath id="D"><path d="M135.066 63H148v13h-12.934Zm0 0"/></clipPath><clipPath id="E"><path d="M169.086 63H182v13h-12.914Zm0 0"/></clipPath><clipPath id="F"><path d="M203.102 63h6.175v13h-6.175Zm0 0"/></clipPath><clipPath id="G"><path d="M112.898 54.273H114v10.559h-1.102Zm0 0"/></clipPath><clipPath id="H"><path d="M112.898 54.273H126v10.559h-13.102Zm0 0"/></clipPath><clipPath id="I"><path d="M124 54.273h13v10.559h-13Zm0 0"/></clipPath><clipPath id="J"><path d="M135.066 54.273H148v10.559h-12.934Zm0 0"/></clipPath><clipPath id="K"><path d="M147 54.273h13v10.559h-13Zm0 0"/></clipPath><clipPath id="L"><path d="M158 54.273h13v10.559h-13Zm0 0"/></clipPath><clipPath id="M"><path d="M169.086 54.273H182v10.559h-12.914Zm0 0"/></clipPath><clipPath id="N"><path d="M181 54.273h13v10.559h-13Zm0 0"/></clipPath><clipPath id="O"><path d="M192 54.273h13v10.559h-13Zm0 0"/></clipPath><clipPath id="P"><path d="M203.102 54.273h6.175v10.559h-6.175Zm0 0"/></clipPath></defs><path style="fill-rule:nonzero;fill:teal;fill-opacity:1;stroke-width:.3985;stroke-linecap:butt;stroke-linejoin:miter;stroke:#000;stroke-opacity:1;stroke-miterlimit:10" d="M-.001 0v-7.086h311.816V0Zm0 0" transform="matrix(1 0 0 -1 5.181 139.312)"/><g style="fill:#000;fill-opacity:1"><use xlink:href="#a" x="134.81" y="157.583"/><use xlink:href="#b" x="139.237" y="157.583"/><use xlink:href="#c" x="141.617" y="157.583"/><use xlink:href="#a" x="145.022" y="157.583"/><use xlink:href="#d" x="149.449" y="157.583"/><use xlink:href="#b" x="154.597" y="157.583"/><use xlink:href="#e" x="156.977" y="157.583"/></g><use xlink:href="#f" x="163.892" y="157.583" style="fill:#000;fill-opacity:1"/><g style="fill:#000;fill-opacity:1"><use xlink:href="#g" x="169.318" y="157.583"/><use xlink:href="#h" x="174.3" y="157.583"/></g><g style="fill:#000;fill-opacity:1"><use xlink:href="#c" x="178.809" y="157.583"/><use xlink:href="#i" x="182.213" y="157.583"/></g><path style="fill-rule:nonzero;fill:#ffbf80;fill-opacity:1;stroke-width:.3985;stroke-linecap:butt;stroke-linejoin:miter;stroke:#000;stroke-opacity:1;stroke-miterlimit:10" d="M-.001 0v56.695h311.816V-.001Zm0 0" transform="matrix(1 0 0 -1 5.181 139.312)"/><use xlink:href="#j" x="116.612" y="121.404" style="fill:#000;fill-opacity:1"/><g style="fill:#000;fill-opacity:1"><use xlink:href="#k" x="121.625" y="121.404"/><use xlink:href="#e" x="124.946" y="121.404"/></g><g style="fill:#000;fill-opacity:1"><use xlink:href="#l" x="128.264" y="121.404"/><use xlink:href="#m" x="132.858" y="121.404"/></g><use xlink:href="#n" x="138.284" y="121.404" style="fill:#000;fill-opacity:1"/><g style="fill:#000;fill-opacity:1"><use xlink:href="#o" x="146.029" y="121.404"/><use xlink:href="#n" x="149.848" y="121.404"/><use xlink:href="#p" x="154.275" y="121.404"/><use xlink:href="#b" x="162.19" y="121.404"/><use xlink:href="#a" x="164.57" y="121.404"/></g><g style="fill:#000;fill-opacity:1"><use xlink:href="#g" x="169.007" y="121.404"/><use xlink:href="#q" x="173.988" y="121.404"/></g><g style="fill:#000;fill-opacity:1"><use xlink:href="#i" x="179.126" y="121.404"/><use xlink:href="#d" x="184.274" y="121.404"/><use xlink:href="#a" x="189.421" y="121.404"/><use xlink:href="#e" x="193.849" y="121.404"/><use xlink:href="#g" x="197.446" y="121.404"/></g><use xlink:href="#c" x="202.159" y="121.404" style="fill:#000;fill-opacity:1"/><g clip-path="url(#r)"><path style="fill:none;stroke-width:.79701;stroke-linecap:butt;stroke-linejoin:miter;stroke:red;stroke-opacity:1;stroke-miterlimit:10" d="M-.001 2.834h11.34M-.002 8.502h11.34M2.834-.002v2.836m5.667 0v5.668m-5.667 0v2.836" transform="matrix(1 0 0 -1 102.048 86.514)"/></g><g clip-path="url(#s)"><path style="fill:none;stroke-width:.79701;stroke-linecap:butt;stroke-linejoin:miter;stroke:red;stroke-opacity:1;stroke-miterlimit:10" d="M0 2.834h11.34M0 8.502h11.34M2.836-.002v2.836m5.668 0v5.668m-5.668 0v2.836" transform="matrix(1 0 0 -1 113.387 86.514)"/></g><g clip-path="url(#t)"><path style="fill:none;stroke-width:.79701;stroke-linecap:butt;stroke-linejoin:miter;stroke:red;stroke-opacity:1;stroke-miterlimit:10" d="M0 2.834h11.337M0 8.502h11.336M2.833-.002v2.836m5.672 0v5.668m-5.672 0v2.836" transform="matrix(1 0 0 -1 124.726 86.514)"/></g><g clip-path="url(#u)"><path style="fill:none;stroke-width:.79701;stroke-linecap:butt;stroke-linejoin:miter;stroke:red;stroke-opacity:1;stroke-miterlimit:10" d="M-.002 2.834h11.34M-.002 8.502h11.34M2.834-.002v2.836m5.672 0v5.668m-5.672 0v2.836" transform="matrix(1 0 0 -1 136.064 86.514)"/></g><g clip-path="url(#v)"><path style="fill:none;stroke-width:.79701;stroke-linecap:butt;stroke-linejoin:miter;stroke:red;stroke-opacity:1;stroke-miterlimit:10" d="M0 2.834h11.34M0 8.502h11.34M2.834-.002v2.836m5.668 0v5.668m-5.668 0v2.836" transform="matrix(1 0 0 -1 147.403 86.514)"/></g><g clip-path="url(#w)"><path style="fill:none;stroke-width:.79701;stroke-linecap:butt;stroke-linejoin:miter;stroke:red;stroke-opacity:1;stroke-miterlimit:10" d="M0 2.834h11.34M0 8.502h11.34M2.836-.002v2.836m5.668 0v5.668m-5.668 0v2.836" transform="matrix(1 0 0 -1 158.742 86.514)"/></g><g clip-path="url(#x)"><path style="fill:none;stroke-width:.79701;stroke-linecap:butt;stroke-linejoin:miter;stroke:red;stroke-opacity:1;stroke-miterlimit:10" d="M.002 2.834h11.335M.002 8.502h11.335M2.834-.002v2.836m5.671 0v5.668m-5.671 0v2.836" transform="matrix(1 0 0 -1 170.08 86.514)"/></g><g clip-path="url(#y)"><path style="fill:none;stroke-width:.79701;stroke-linecap:butt;stroke-linejoin:miter;stroke:red;stroke-opacity:1;stroke-miterlimit:10" d="M-.001 2.834h11.34M-.001 8.502h11.34M2.835-.002v2.836m5.668 0v5.668m-5.668 0v2.836" transform="matrix(1 0 0 -1 181.42 86.514)"/></g><g clip-path="url(#z)"><path style="fill:none;stroke-width:.79701;stroke-linecap:butt;stroke-linejoin:miter;stroke:red;stroke-opacity:1;stroke-miterlimit:10" d="M0 2.834h11.34M0 8.502h11.34M2.836-.002v2.836m5.668 0v5.668m-5.668 0v2.836" transform="matrix(1 0 0 -1 192.758 86.514)"/></g><g clip-path="url(#A)"><path style="fill:none;stroke-width:.79701;stroke-linecap:butt;stroke-linejoin:miter;stroke:red;stroke-opacity:1;stroke-miterlimit:10" d="M.001 2.834h11.336M.001 8.502h11.336M2.833-.002v2.836m5.672 0v5.668m-5.672 0v2.836" transform="matrix(1 0 0 -1 204.097 86.514)"/></g><g clip-path="url(#B)"><path style="fill:none;stroke-width:.79701;stroke-linecap:butt;stroke-linejoin:miter;stroke:red;stroke-opacity:1;stroke-miterlimit:10" d="M-.001 2.836h11.34M-.002 8.504h11.34M2.834 0v2.836m5.667 0v5.668m-5.667 0v2.835" transform="matrix(1 0 0 -1 102.048 75.175)"/></g><g clip-path="url(#C)"><path style="fill:none;stroke-width:.79701;stroke-linecap:butt;stroke-linejoin:miter;stroke:red;stroke-opacity:1;stroke-miterlimit:10" d="M0 2.836h11.34M0 8.504h11.34M2.836 0v2.836m5.668 0v5.668m-5.668 0v2.835" transform="matrix(1 0 0 -1 113.387 75.175)"/></g><path style="fill:none;stroke-width:.79701;stroke-linecap:butt;stroke-linejoin:miter;stroke:red;stroke-opacity:1;stroke-miterlimit:10" d="M0 2.836h11.337M0 8.504h11.336M2.833 0v2.836m5.672 0v5.668m-5.672 0v2.835" transform="matrix(1 0 0 -1 124.726 75.175)"/><g clip-path="url(#D)"><path style="fill:none;stroke-width:.79701;stroke-linecap:butt;stroke-linejoin:miter;stroke:red;stroke-opacity:1;stroke-miterlimit:10" d="M-.002 2.836h11.34M-.002 8.504h11.34M2.834 0v2.836m5.672 0v5.668m-5.672 0v2.835" transform="matrix(1 0 0 -1 136.064 75.175)"/></g><path style="fill:none;stroke-width:.79701;stroke-linecap:butt;stroke-linejoin:miter;stroke:red;stroke-opacity:1;stroke-miterlimit:10" d="M0 2.836h11.34M0 8.504h11.34M2.834 0v2.836m5.668 0v5.668m-5.668 0v2.835" transform="matrix(1 0 0 -1 147.403 75.175)"/><path style="fill:none;stroke-width:.79701;stroke-linecap:butt;stroke-linejoin:miter;stroke:red;stroke-opacity:1;stroke-miterlimit:10" d="M0 2.836h11.34M0 8.504h11.34M2.836 0v2.836m5.668 0v5.668m-5.668 0v2.835" transform="matrix(1 0 0 -1 158.742 75.175)"/><g clip-path="url(#E)"><path style="fill:none;stroke-width:.79701;stroke-linecap:butt;stroke-linejoin:miter;stroke:red;stroke-opacity:1;stroke-miterlimit:10" d="M.002 2.836h11.335M.002 8.504h11.335M2.834 0v2.836m5.671 0v5.668m-5.671 0v2.835" transform="matrix(1 0 0 -1 170.08 75.175)"/></g><path style="fill:none;stroke-width:.79701;stroke-linecap:butt;stroke-linejoin:miter;stroke:red;stroke-opacity:1;stroke-miterlimit:10" d="M-.001 2.836h11.34M-.001 8.504h11.34M2.835 0v2.836m5.668 0v5.668m-5.668 0v2.835" transform="matrix(1 0 0 -1 181.42 75.175)"/><path style="fill:none;stroke-width:.79701;stroke-linecap:butt;stroke-linejoin:miter;stroke:red;stroke-opacity:1;stroke-miterlimit:10" d="M0 2.836h11.34M0 8.504h11.34M2.836 0v2.836m5.668 0v5.668m-5.668 0v2.835" transform="matrix(1 0 0 -1 192.758 75.175)"/><g clip-path="url(#F)"><path style="fill:none;stroke-width:.79701;stroke-linecap:butt;stroke-linejoin:miter;stroke:red;stroke-opacity:1;stroke-miterlimit:10" d="M.001 2.836h11.336M.001 8.504h11.336M2.833 0v2.836m5.672 0v5.668m-5.672 0v2.835" transform="matrix(1 0 0 -1 204.097 75.175)"/></g><g clip-path="url(#G)"><path style="fill:none;stroke-width:.79701;stroke-linecap:butt;stroke-linejoin:miter;stroke:red;stroke-opacity:1;stroke-miterlimit:10" d="M-.001 2.833h11.34M-.002 8.505h11.34M2.834 0v2.832m5.667 0v5.672m-5.667 0v2.836" transform="matrix(1 0 0 -1 102.048 63.837)"/></g><g clip-path="url(#H)"><path style="fill:none;stroke-width:.79701;stroke-linecap:butt;stroke-linejoin:miter;stroke:red;stroke-opacity:1;stroke-miterlimit:10" d="M0 2.833h11.34M0 8.505h11.34M2.836 0v2.832m5.668 0v5.672m-5.668 0v2.836" transform="matrix(1 0 0 -1 113.387 63.837)"/></g><g clip-path="url(#I)"><path style="fill:none;stroke-width:.79701;stroke-linecap:butt;stroke-linejoin:miter;stroke:red;stroke-opacity:1;stroke-miterlimit:10" d="M0 2.833h11.337M0 8.505h11.336M2.833 0v2.832m5.672 0v5.672m-5.672 0v2.836" transform="matrix(1 0 0 -1 124.726 63.837)"/></g><g clip-path="url(#J)"><path style="fill:none;stroke-width:.79701;stroke-linecap:butt;stroke-linejoin:miter;stroke:red;stroke-opacity:1;stroke-miterlimit:10" d="M-.002 2.833h11.34M-.002 8.505h11.34M2.834 0v2.832m5.672 0v5.672m-5.672 0v2.836" transform="matrix(1 0 0 -1 136.064 63.837)"/></g><g clip-path="url(#K)"><path style="fill:none;stroke-width:.79701;stroke-linecap:butt;stroke-linejoin:miter;stroke:red;stroke-opacity:1;stroke-miterlimit:10" d="M0 2.833h11.34M0 8.505h11.34M2.834 0v2.832m5.668 0v5.672m-5.668 0v2.836" transform="matrix(1 0 0 -1 147.403 63.837)"/></g><g clip-path="url(#L)"><path style="fill:none;stroke-width:.79701;stroke-linecap:butt;stroke-linejoin:miter;stroke:red;stroke-opacity:1;stroke-miterlimit:10" d="M0 2.833h11.34M0 8.505h11.34M2.836 0v2.832m5.668 0v5.672m-5.668 0v2.836" transform="matrix(1 0 0 -1 158.742 63.837)"/></g><g clip-path="url(#M)"><path style="fill:none;stroke-width:.79701;stroke-linecap:butt;stroke-linejoin:miter;stroke:red;stroke-opacity:1;stroke-miterlimit:10" d="M.002 2.833h11.335M.002 8.505h11.335M2.834 0v2.832m5.671 0v5.672m-5.671 0v2.836" transform="matrix(1 0 0 -1 170.08 63.837)"/></g><g clip-path="url(#N)"><path style="fill:none;stroke-width:.79701;stroke-linecap:butt;stroke-linejoin:miter;stroke:red;stroke-opacity:1;stroke-miterlimit:10" d="M-.001 2.833h11.34M-.001 8.505h11.34M2.835 0v2.832m5.668 0v5.672m-5.668 0v2.836" transform="matrix(1 0 0 -1 181.42 63.837)"/></g><g clip-path="url(#O)"><path style="fill:none;stroke-width:.79701;stroke-linecap:butt;stroke-linejoin:miter;stroke:red;stroke-opacity:1;stroke-miterlimit:10" d="M0 2.833h11.34M0 8.505h11.34M2.836 0v2.832m5.668 0v5.672m-5.668 0v2.836" transform="matrix(1 0 0 -1 192.758 63.837)"/></g><g clip-path="url(#P)"><path style="fill:none;stroke-width:.79701;stroke-linecap:butt;stroke-linejoin:miter;stroke:red;stroke-opacity:1;stroke-miterlimit:10" d="M.001 2.833h11.336M.001 8.505h11.336M2.833 0v2.832m5.672 0v5.672m-5.672 0v2.836" transform="matrix(1 0 0 -1 204.097 63.837)"/></g><path style="fill:none;stroke-width:.3985;stroke-linecap:butt;stroke-linejoin:miter;stroke:#000;stroke-opacity:1;stroke-miterlimit:10" d="M107.717 56.695v28.344h96.38V56.695Zm0 0" transform="matrix(1 0 0 -1 5.181 139.312)"/><path style="fill-rule:nonzero;fill:#fff;fill-opacity:1;stroke-width:.09962;stroke-linecap:butt;stroke-linejoin:miter;stroke:#000;stroke-opacity:1;stroke-miterlimit:10" d="M135.417 65.414H176.4V76.32h-40.984Zm0 0" transform="matrix(1 0 0 -1 5.181 139.312)"/><g style="fill:#000;fill-opacity:1"><use xlink:href="#i" x="142.586" y="71.905"/><use xlink:href="#b" x="147.734" y="71.905"/><use xlink:href="#n" x="150.114" y="71.905"/><use xlink:href="#Q" x="154.541" y="71.905"/><use xlink:href="#n" x="156.921" y="71.905"/><use xlink:href="#a" x="161.349" y="71.905"/><use xlink:href="#e" x="165.776" y="71.905"/><use xlink:href="#c" x="169.373" y="71.905"/><use xlink:href="#b" x="172.778" y="71.905"/><use xlink:href="#a" x="175.158" y="71.905"/></g><path style="fill-rule:nonzero;fill:#e5e5ff;fill-opacity:1;stroke-width:.3985;stroke-linecap:butt;stroke-linejoin:miter;stroke:#000;stroke-opacity:1;stroke-miterlimit:10" d="M113.385 85.039v14.175h85.043V85.04Zm0 0" transform="matrix(1 0 0 -1 5.181 139.312)"/><g style="fill:#000;fill-opacity:1"><use xlink:href="#R" x="152.189" y="35.752"/><use xlink:href="#h" x="157.17" y="35.752"/><use xlink:href="#e" x="161.958" y="35.752"/><use xlink:href="#n" x="165.556" y="35.752"/></g><path style="fill-rule:nonzero;fill:#e5e5ff;fill-opacity:1;stroke-width:.3985;stroke-linecap:butt;stroke-linejoin:miter;stroke:#000;stroke-opacity:1;stroke-miterlimit:10" d="M35.432 56.695v14.172h49.61V56.695Zm0 0" transform="matrix(1 0 0 -1 5.181 139.312)"/><g style="fill:#000;fill-opacity:1"><use xlink:href="#o" x="52.313" y="66.035"/><use xlink:href="#g" x="56.132" y="66.035"/><use xlink:href="#d" x="61.113" y="66.035"/><use xlink:href="#c" x="66.261" y="66.035"/><use xlink:href="#a" x="69.665" y="66.035"/><use xlink:href="#n" x="74.092" y="66.035"/></g><path style="fill-rule:nonzero;fill:#e5e5ff;fill-opacity:1;stroke-width:.3985;stroke-linecap:butt;stroke-linejoin:miter;stroke:#000;stroke-opacity:1;stroke-miterlimit:10" d="M226.772 56.695v14.172h49.61V56.695Zm0 0" transform="matrix(1 0 0 -1 5.181 139.312)"/><g style="fill:#000;fill-opacity:1"><use xlink:href="#i" x="246.322" y="66.035"/><use xlink:href="#c" x="251.47" y="66.035"/><use xlink:href="#h" x="254.874" y="66.035"/><use xlink:href="#b" x="259.662" y="66.035"/><use xlink:href="#q" x="262.042" y="66.035"/></g><path style="fill-rule:nonzero;fill:#a6ffa6;fill-opacity:1;stroke-width:.3985;stroke-linecap:butt;stroke-linejoin:miter;stroke:#000;stroke-opacity:1;stroke-miterlimit:10" d="M28.346 28.347v28.348h85.04V28.347Zm0 0" transform="matrix(1 0 0 -1 5.181 139.312)"/><use xlink:href="#S" x="62.513" y="93.661" style="fill:#000;fill-opacity:1"/><g style="fill:#000;fill-opacity:1"><use xlink:href="#k" x="68.493" y="93.661"/><use xlink:href="#e" x="71.814" y="93.661"/></g><g style="fill:#000;fill-opacity:1"><use xlink:href="#l" x="75.132" y="93.661"/><use xlink:href="#m" x="79.726" y="93.661"/></g><use xlink:href="#n" x="85.152" y="93.661" style="fill:#000;fill-opacity:1"/><g style="fill:#000;fill-opacity:1"><use xlink:href="#o" x="46.283" y="105.616"/><use xlink:href="#n" x="50.102" y="105.616"/><use xlink:href="#p" x="54.529" y="105.616"/><use xlink:href="#b" x="62.443" y="105.616"/><use xlink:href="#a" x="64.823" y="105.616"/><use xlink:href="#g" x="69.251" y="105.616"/><use xlink:href="#q" x="74.232" y="105.616"/><use xlink:href="#i" x="79.38" y="105.616"/><use xlink:href="#d" x="84.527" y="105.616"/><use xlink:href="#a" x="89.675" y="105.616"/><use xlink:href="#e" x="94.102" y="105.616"/><use xlink:href="#g" x="97.7" y="105.616"/></g><use xlink:href="#c" x="102.402" y="105.616" style="fill:#000;fill-opacity:1"/><path style="fill-rule:nonzero;fill:#a6ffa6;fill-opacity:1;stroke-width:.3985;stroke-linecap:butt;stroke-linejoin:miter;stroke:#000;stroke-opacity:1;stroke-miterlimit:10" d="M198.428 28.347v28.348h85.04V28.347Zm0 0" transform="matrix(1 0 0 -1 5.181 139.312)"/><use xlink:href="#S" x="232.592" y="93.661" style="fill:#000;fill-opacity:1"/><g style="fill:#000;fill-opacity:1"><use xlink:href="#k" x="238.571" y="93.661"/><use xlink:href="#e" x="241.892" y="93.661"/></g><g style="fill:#000;fill-opacity:1"><use xlink:href="#l" x="245.21" y="93.661"/><use xlink:href="#m" x="249.804" y="93.661"/></g><use xlink:href="#n" x="255.23" y="93.661" style="fill:#000;fill-opacity:1"/><g style="fill:#000;fill-opacity:1"><use xlink:href="#o" x="216.362" y="105.617"/><use xlink:href="#n" x="220.181" y="105.617"/><use xlink:href="#p" x="224.608" y="105.617"/><use xlink:href="#b" x="232.522" y="105.617"/><use xlink:href="#a" x="234.902" y="105.617"/><use xlink:href="#g" x="239.33" y="105.617"/><use xlink:href="#q" x="244.311" y="105.617"/><use xlink:href="#i" x="249.459" y="105.617"/><use xlink:href="#d" x="254.606" y="105.617"/><use xlink:href="#a" x="259.754" y="105.617"/><use xlink:href="#e" x="264.181" y="105.617"/><use xlink:href="#g" x="267.779" y="105.617"/></g><use xlink:href="#c" x="272.481" y="105.617" style="fill:#000;fill-opacity:1"/><use xlink:href="#T" x="119.845" y="16.604" style="fill:#000;fill-opacity:1"/><g style="fill:#000;fill-opacity:1"><use xlink:href="#U" x="126.833" y="16.604"/><use xlink:href="#V" x="130.735" y="16.604"/></g><g style="fill:#000;fill-opacity:1"><use xlink:href="#W" x="134.64" y="16.604"/><use xlink:href="#X" x="139.994" y="16.604"/></g><use xlink:href="#Y" x="146.322" y="16.604" style="fill:#000;fill-opacity:1"/><g style="fill:#000;fill-opacity:1"><use xlink:href="#Z" x="155.423" y="16.604"/><use xlink:href="#aa" x="165.579" y="16.604"/><use xlink:href="#ab" x="174.213" y="16.604"/><use xlink:href="#ac" x="180.716" y="16.604"/><use xlink:href="#ad" x="187.365" y="16.604"/><use xlink:href="#ae" x="194.338" y="16.604"/></g></svg>