<svg xmlns="http://www.w3.org/2000/svg" xmlns:xlink="http://www.w3.org/1999/xlink" width="499.371" height="16058.3pt" viewBox="0 0 374.528 16058.3"><defs><symbol overflow="visible" id="a"><path style="stroke:none" d="M2.469-3.5c.015-.078.312-.672.765-1.047a1.639 1.639 0 0 1 1.172-.484c.485 0 .657.36.657.828 0 .687-.5 2.047-.735 2.703-.11.281-.172.438-.172.656 0 .531.375.969.953.969 1.11 0 1.532-1.766 1.532-1.828 0-.063-.047-.11-.125-.11-.11 0-.125.032-.188.235-.266.984-.719 1.453-1.187 1.453-.125 0-.313 0-.313-.39 0-.297.125-.657.203-.829.235-.656.735-1.984.735-2.672 0-.718-.407-1.25-1.313-1.25-1.078 0-1.625.75-1.844 1.047-.046-.687-.53-1.047-1.062-1.047-.375 0-.64.22-.844.625-.219.438-.375 1.157-.375 1.204 0 .046.047.109.125.109.094 0 .11-.016.188-.297.187-.719.406-1.406.875-1.406.28 0 .375.187.375.547 0 .265-.125.734-.204 1.109l-.343 1.281c-.047.235-.172.766-.235.985-.078.312-.218.875-.218.937 0 .156.14.297.312.297.14 0 .313-.078.406-.25.032-.063.141-.484.204-.719l.25-1.078Zm0 0"/></symbol><symbol overflow="visible" id="b"><path style="stroke:none" d="M3.234-2.313V-3H.125v.688Zm0 0"/></symbol><symbol overflow="visible" id="c"><path style="stroke:none" d="M4.797-1.297a2.787 2.787 0 0 1-1.828.672c-1 0-1.64-.875-1.64-2.047 0-.984.484-2.078 1.671-2.078.797 0 1.14.203 1.656.547l.14-.781c-.702-.407-1.093-.5-1.796-.5-1.656 0-2.578 1.453-2.578 2.812C.422-1.14 1.516.125 2.953.125c.578 0 1.25-.156 1.906-.625 0-.031-.03-.406-.046-.453Zm0 0"/></symbol><symbol overflow="visible" id="d"><path style="stroke:none" d="M5.063-3.594c0-.734-.157-1.828-1.594-1.828-.828 0-1.375.469-1.656.813v-3.688H.921V0h.906v-2.969c0-.75.281-1.734 1.188-1.734 1.109 0 1.14.766 1.14 1.187V0h.907Zm0 0"/></symbol><symbol overflow="visible" id="e"><path style="stroke:none" d="M4.672-3.5c0-1.156-.828-1.984-1.938-1.984-.718 0-1.25.171-1.843.5l.078.78c.531-.374 1.078-.593 1.765-.593.547 0 1.032.453 1.032 1.313v.5c-.532.015-1.25.062-1.97.296-.812.266-1.265.72-1.265 1.313 0 .531.313 1.5 1.328 1.5.657 0 1.485-.203 1.938-.563V0h.875Zm-.906 1.89c0 .25 0 .532-.391.766a1.89 1.89 0 0 1-.906.25c-.656 0-1.094-.344-1.094-.797 0-.812 1.656-.984 2.39-.984Zm0 0"/></symbol><symbol overflow="visible" id="f"><path style="stroke:none" d="M5.063-3.594c0-.734-.157-1.828-1.594-1.828-.672 0-1.25.297-1.703.875v-.812H.922V0h.906v-2.969c0-.75.281-1.734 1.188-1.734 1.109 0 1.14.766 1.14 1.187V0h.907Zm0 0"/></symbol><symbol overflow="visible" id="g"><path style="stroke:none" d="M4.86-2.688c0-.515-.048-1.25-.423-1.874-.5-.829-1.328-.922-1.671-.922C1.469-5.484.39-4.25.39-2.688.39-1.109 1.547.126 2.92.126c.563 0 1.22-.156 1.876-.64 0-.047-.047-.422-.047-.438 0-.016-.031-.281-.031-.328-.703.593-1.407.687-1.766.687-.922 0-1.703-.828-1.734-2.094Zm-3.563-.64c.203-.813.766-1.438 1.469-1.438.359 0 1.187.157 1.39 1.438Zm0 0"/></symbol><symbol overflow="visible" id="h"><path style="stroke:none" d="M1.813-8.297H.938V0h.875Zm0 0"/></symbol><symbol overflow="visible" id="i"><path style="stroke:none" d="M2.5-8.297H1.14V0h.923v-7.375c.171.813 2.109 5.922 2.562 7.125H5.5c.39-1.031 2.36-6.234 2.578-7.14h.016V0h.922v-8.297h-1.36L6.281-4.609c-.61 1.671-1.078 2.921-1.203 3.468h-.016c-.03-.203-.187-.64-.343-1.109-.219-.64-.219-.672-.407-1.156Zm0 0"/></symbol><symbol overflow="visible" id="j"><path style="stroke:none" d="M7.969-4.125c0-2.531-1.719-4.422-3.657-4.422-1.984 0-3.671 1.922-3.671 4.422C.64-1.609 2.375.25 4.297.25c1.984 0 3.672-1.875 3.672-4.375ZM4.312-.5c-1.39 0-2.64-1.5-2.64-3.797 0-2.203 1.297-3.516 2.625-3.516 1.375 0 2.64 1.344 2.64 3.516C6.938-1.953 5.657-.5 4.313-.5Zm0 0"/></symbol><symbol overflow="visible" id="k"><path style="stroke:none" d="M5.438-7.953c-.485-.266-1.094-.594-2.157-.594-1.594 0-2.64 1.14-2.64 2.344 0 .844.515 1.39.578 1.453.593.61 1 .703 1.75.906 1.031.25 1.187.297 1.578.688.203.219.375.594.375 1.015 0 .829-.672 1.594-1.703 1.594a3.752 3.752 0 0 1-2.516-1l-.172.969A4.894 4.894 0 0 0 3.22.25c1.53 0 2.624-1.188 2.624-2.516 0-.765-.375-1.328-.625-1.625-.563-.593-1-.718-1.797-.921-.813-.204-1.11-.266-1.375-.516-.156-.172-.485-.469-.485-1 0-.734.657-1.438 1.72-1.438 1.015 0 1.546.391 1.984.766Zm0 0"/></symbol><symbol overflow="visible" id="l"><path style="stroke:none" d="M5.656-3.781V-4.5H2.11v-3.031h1.532c.156 0 .296.015.437.015h2.063v-.75H1.078V0H2.11v-3.781Zm0 0"/></symbol><symbol overflow="visible" id="m"><path style="stroke:none" d="M5.969-3.938v-.718h-3.86v-2.875h1.625c.141 0 .282.015.422.015h2.157v-.75H1.077V0h5.39v-.813h-1.56c-.156 0-.297.016-.437.016H2.11v-3.14Zm0 0"/></symbol><symbol overflow="visible" id="n"><path style="stroke:none" d="M4.5-7.5h1.063c.14 0 .28.016.421.016h1.563v-.75H.422v.75H2c.14 0 .281-.016.422-.016h1.062V0H4.5Zm0 0"/></symbol><symbol overflow="visible" id="o"><path style="stroke:none" d="M4.094-4.172c-.594-.328-.938-.422-1.547-.422C1.172-4.594.359-3.39.359-2.219.36-.984 1.266.11 2.516.11c.53 0 1.078-.14 1.625-.515l-.063-.656a2.517 2.517 0 0 1-1.562.53c-.829 0-1.375-.718-1.375-1.687 0-.781.359-1.734 1.421-1.734.516 0 .86.078 1.407.437Zm0 0"/></symbol><symbol overflow="visible" id="p"><path style="stroke:none" d="M1.625-6.781h-.89v.89h.89Zm-.063 2.36h-.75V0h.75Zm0 0"/></symbol><symbol overflow="visible" id="q"><path style="stroke:none" d="M1.563-2.14c0-.985.718-1.704 1.703-1.735v-.656c-.891 0-1.438.5-1.75.953v-.906H.812V0h.75Zm0 0"/></symbol><symbol overflow="visible" id="r"><path style="stroke:none" d="M4.344-4.422h-.782v2.89C3.563-.781 3-.436 2.36-.436c-.703 0-.78-.266-.78-.688v-3.297H.812v3.328C.813-.375 1.03.11 1.859.11c.532 0 1.235-.156 1.735-.593V0h.75Zm0 0"/></symbol><symbol overflow="visible" id="s"><path style="stroke:none" d="M1.75-3.844h1.406v-.578H1.75v-1.266h-.688v1.266H.188v.578h.844v2.656c0 .594.14 1.297.828 1.297s1.204-.25 1.454-.375l-.157-.593a1.407 1.407 0 0 1-.906.328c-.36 0-.5-.297-.5-.828Zm0 0"/></symbol><symbol overflow="visible" id="t"><path style="stroke:none" d="M1.563-6.922h-.75V0h.78v-.453c.235.219.673.562 1.345.562.984 0 1.843-1 1.843-2.328 0-1.234-.672-2.312-1.61-2.312-.39 0-1.015.093-1.608.578Zm.03 3.578c.157-.234.516-.578 1.063-.578C3.25-3.922 4-3.5 4-2.219 4-.922 3.172-.5 2.562-.5c-.39 0-.718-.172-.968-.64Zm0 0"/></symbol><symbol overflow="visible" id="u"><path style="stroke:none" d="M4.672-2.188c0-1.343-1-2.406-2.172-2.406C1.266-4.594.297-3.5.297-2.187.297-.875 1.313.108 2.484.108c1.188 0 2.188-1 2.188-2.296ZM2.484-.53c-.687 0-1.406-.563-1.406-1.766s.75-1.687 1.406-1.687c.704 0 1.407.515 1.407 1.687 0 1.188-.672 1.766-1.407 1.766Zm0 0"/></symbol><symbol overflow="visible" id="v"><path style="stroke:none" d="M3.984-2.875c0-1.016-.734-1.719-1.656-1.719-.64 0-1.094.157-1.562.422l.062.656A2.543 2.543 0 0 1 2.328-4c.469 0 .875.39.875 1.125v.438C1.703-2.422.438-2 .438-1.125c0 .422.265 1.234 1.14 1.234.14 0 1.078-.015 1.656-.468V0h.75Zm-.78 1.563c0 .187 0 .437-.345.625-.28.171-.671.187-.78.187-.47 0-.923-.234-.923-.64 0-.704 1.61-.766 2.047-.798Zm0 0"/></symbol><symbol overflow="visible" id="w"><path style="stroke:none" d="M4.328-6.922h-.75v2.938a2.289 2.289 0 0 0-1.453-.547C1.141-4.531.359-3.5.359-2.22.36-.906 1.125.11 2.08.11c.327 0 .905-.093 1.468-.625V0h.781ZM3.547-1.39c0 .141-.016.329-.328.61a1.09 1.09 0 0 1-.735.281c-.625 0-1.343-.469-1.343-1.703 0-1.313.859-1.719 1.437-1.719.453 0 .75.219.969.547Zm0 0"/></symbol><symbol overflow="visible" id="y"><path style="stroke:none" d="M2.75-1.922V-2.5H.11v.578Zm0 0"/></symbol><symbol overflow="visible" id="z"><path style="stroke:none" d="M1.594-.453c.312.281.75.562 1.343.562.97 0 1.844-.984 1.844-2.328 0-1.203-.625-2.312-1.578-2.312-.594 0-1.172.203-1.64.593v-.484h-.75v6.36h.78Zm0-2.86a1.259 1.259 0 0 1 1.062-.578c.75 0 1.344.75 1.344 1.672C4-1.203 3.297-.5 2.547-.5c-.39 0-.656-.203-.86-.469-.093-.14-.093-.172-.093-.344Zm0 0"/></symbol><symbol overflow="visible" id="A"><path style="stroke:none" d="M4.125-2.188c0-.328-.016-1.078-.39-1.687a1.629 1.629 0 0 0-1.376-.719C1.25-4.594.344-3.53.344-2.25.344-.937 1.313.11 2.5.11a2.81 2.81 0 0 0 1.594-.516l-.063-.656A2.35 2.35 0 0 1 2.516-.5c-.797 0-1.438-.703-1.47-1.688Zm-3.031-.546c.156-.75.687-1.25 1.265-1.25.516 0 1.063.328 1.204 1.25Zm0 0"/></symbol><symbol overflow="visible" id="B"><path style="stroke:none" d="M3.422-4.281a3.19 3.19 0 0 0-1.438-.313c-.25 0-1.656 0-1.656 1.297 0 .5.297.813.547 1 .297.219.516.266 1.063.375.359.063.937.188.937.719 0 .687-.781.687-.938.687C1.141-.516.579-.89.407-1L.28-.328c.313.156.86.437 1.672.437.188 0 .734 0 1.156-.312.313-.25.485-.64.485-1.078 0-.547-.375-.875-.39-.907-.392-.359-.657-.421-1.157-.5C1.5-2.796 1.03-2.905 1.03-3.39 1.031-4 1.75-4 1.891-4c.312 0 .843.031 1.406.375Zm0 0"/></symbol><symbol overflow="visible" id="C"><path style="stroke:none" d="M7.11-2.969c0-.672-.157-1.562-1.376-1.562-.593 0-1.109.281-1.484.812-.25-.75-.953-.812-1.266-.812-.718 0-1.187.406-1.453.765v-.718H.813V0h.765v-2.438c0-.687.281-1.484 1.016-1.484.922 0 .969.64.969 1.016V0h.78v-2.438c0-.687.266-1.484 1.016-1.484.922 0 .97.64.97 1.016V0h.78Zm0 0"/></symbol><symbol overflow="visible" id="D"><path style="stroke:none" d="M4.344-2.969c0-.656-.157-1.562-1.375-1.562-.89 0-1.39.672-1.438.75v-.703H.813V0h.765v-2.438c0-.656.25-1.484 1.016-1.484.953 0 .969.703.969 1.016V0h.78Zm0 0"/></symbol><symbol overflow="visible" id="ak"><path style="stroke:none" d="M1.563-6.922h-.75V0h.75Zm0 0"/></symbol><symbol overflow="visible" id="al"><path style="stroke:none" d="M3.516-3.89c.218 0 .484-.047.734-.047.172 0 .563.03.578.03l-.11-.624a4.17 4.17 0 0 0-1.562.312 1.542 1.542 0 0 0-.953-.312c-.86 0-1.578.718-1.578 1.625 0 .36.125.719.328.984-.297.406-.297.797-.297.844 0 .266.094.547.266.766C.406-.017.282.453.282.702c0 .75.984 1.344 2.202 1.344 1.22 0 2.204-.578 2.204-1.344 0-1.39-1.657-1.39-2.047-1.39h-.875c-.125 0-.579 0-.579-.532 0-.11.032-.265.11-.36.203.157.531.298.906.298.89 0 1.594-.75 1.594-1.625 0-.485-.219-.86-.328-1ZM2.203-1.86c-.375 0-.89-.218-.89-1.046 0-.828.515-1.063.89-1.063.422 0 .89.281.89 1.063 0 .765-.468 1.047-.89 1.047ZM2.656.032C2.875.031 4 .031 4 .72c0 .437-.688.765-1.5.765-.813 0-1.516-.312-1.516-.78 0-.032 0-.673.766-.673Zm0 0"/></symbol><symbol overflow="visible" id="x"><path style="stroke:none" d="M.453 1.219c-.078.343-.11.406-.547.406-.11 0-.218 0-.218.188 0 .078.046.125.124.125.266 0 .563-.032.829-.032.343 0 .671.032 1 .032.046 0 .171 0 .171-.204 0-.109-.093-.109-.234-.109-.5 0-.5-.063-.5-.156 0-.125.422-1.75.484-2 .125.297.407.64.922.64 1.157 0 2.407-1.453 2.407-2.921 0-.938-.579-1.594-1.329-1.594-.5 0-.984.36-1.312.75-.094-.547-.531-.75-.89-.75-.47 0-.657.39-.735.562-.188.344-.313.938-.313.969 0 .11.094.11.11.11.11 0 .11-.016.172-.235.172-.703.375-1.188.734-1.188.172 0 .313.079.313.454 0 .234-.032.343-.079.515Zm1.75-4.328c.063-.266.344-.547.516-.704.36-.296.64-.374.812-.374.39 0 .64.343.64.937 0 .594-.327 1.734-.515 2.11-.344.702-.812 1.03-1.187 1.03-.656 0-.781-.828-.781-.89 0-.016 0-.031.03-.156Zm0 0"/></symbol><symbol overflow="visible" id="am"><path style="stroke:none" d="M.875-.594c-.031.156-.094.39-.094.438 0 .172.14.265.297.265a.414.414 0 0 0 .375-.28c0-.016.125-.485.188-.735l.218-.89c.047-.235.11-.454.172-.673.031-.172.11-.469.125-.5.14-.312.672-1.219 1.625-1.219.453 0 .531.375.531.704 0 .609-.484 1.89-.64 2.312-.094.234-.11.36-.11.469 0 .469.36.812.829.812.937 0 1.296-1.453 1.296-1.53 0-.11-.078-.11-.109-.11-.11 0-.11.031-.156.187-.203.672-.531 1.235-1.016 1.235-.172 0-.234-.094-.234-.329 0-.25.078-.484.172-.703.187-.53.61-1.625.61-2.203 0-.656-.423-1.062-1.141-1.062-.907 0-1.391.64-1.563.875-.047-.563-.453-.875-.922-.875-.453 0-.64.39-.734.562-.172.344-.297.938-.297.969 0 .11.094.11.11.11.109 0 .109-.016.171-.235.172-.703.375-1.188.735-1.188.187 0 .296.125.296.454 0 .218-.03.328-.156.843Zm0 0"/></symbol><clipPath id="E"><path d="M165.254 58H171v2.906h-5.746Zm0 0"/></clipPath><clipPath id="F"><path d="M169.086 58H182v2.906h-12.914Zm0 0"/></clipPath><clipPath id="G"><path d="M181 58h13v2.906h-13Zm0 0"/></clipPath><clipPath id="H"><path d="M192 58h13v2.906h-13Zm0 0"/></clipPath><clipPath id="I"><path d="M203.102 58H216v2.906h-12.898Zm0 0"/></clipPath><clipPath id="J"><path d="M215 58h13v2.906h-13Zm0 0"/></clipPath><clipPath id="K"><path d="M226 58h13v2.906h-13Zm0 0"/></clipPath><clipPath id="L"><path d="M237.117 58H250v2.906h-12.883Zm0 0"/></clipPath><clipPath id="M"><path d="M249 58h12.633v2.906H249Zm0 0"/></clipPath><clipPath id="N"><path d="M260 58h1.633v2.906H260Zm0 0"/></clipPath><clipPath id="O"><path d="M165.254 47H171v13h-5.746Zm0 0"/></clipPath><clipPath id="P"><path d="M169.086 47H182v13h-12.914Zm0 0"/></clipPath><clipPath id="Q"><path d="M203.102 47H216v13h-12.898Zm0 0"/></clipPath><clipPath id="R"><path d="M237.117 47H250v13h-12.883Zm0 0"/></clipPath><clipPath id="S"><path d="M249 47h12.633v13H249Zm0 0"/></clipPath><clipPath id="T"><path d="M260 47h1.633v13H260Zm0 0"/></clipPath><clipPath id="U"><path d="M165.254 36H171v13h-5.746Zm0 0"/></clipPath><clipPath id="V"><path d="M169.086 36H182v13h-12.914Zm0 0"/></clipPath><clipPath id="W"><path d="M203.102 36H216v13h-12.898Zm0 0"/></clipPath><clipPath id="X"><path d="M237.117 36H250v13h-12.883Zm0 0"/></clipPath><clipPath id="Y"><path d="M249 36h12.633v13H249Zm0 0"/></clipPath><clipPath id="Z"><path d="M260 36h1.633v13H260Zm0 0"/></clipPath><clipPath id="aa"><path d="M165.254 32.559H171v5.156h-5.746Zm0 0"/></clipPath><clipPath id="ab"><path d="M169.086 32.559H182v5.156h-12.914Zm0 0"/></clipPath><clipPath id="ac"><path d="M181 32.559h13v5.156h-13Zm0 0"/></clipPath><clipPath id="ad"><path d="M192 32.559h13v5.156h-13Zm0 0"/></clipPath><clipPath id="ae"><path d="M203.102 32.559H216v5.156h-12.898Zm0 0"/></clipPath><clipPath id="af"><path d="M215 32.559h13v5.156h-13Zm0 0"/></clipPath><clipPath id="ag"><path d="M226 32.559h13v5.156h-13Zm0 0"/></clipPath><clipPath id="ah"><path d="M237.117 32.559H250v5.156h-12.883Zm0 0"/></clipPath><clipPath id="ai"><path d="M249 32.559h12.633v5.156H249Zm0 0"/></clipPath><clipPath id="aj"><path d="M260 32.559h1.633v5.156H260Zm0 0"/></clipPath></defs><use xlink:href="#a" x="8.302" y="16050" style="fill:#000;fill-opacity:1"/><g style="fill:#000;fill-opacity:1"><use xlink:href="#b" x="15.289" y="16050"/><use xlink:href="#c" x="19.191" y="16050"/><use xlink:href="#d" x="24.394" y="16050"/><use xlink:href="#e" x="30.399" y="16050"/><use xlink:href="#f" x="36.003" y="16050"/><use xlink:href="#f" x="42.008" y="16050"/><use xlink:href="#g" x="48.013" y="16050"/><use xlink:href="#h" x="53.216" y="16050"/></g><g style="fill:#000;fill-opacity:1"><use xlink:href="#i" x="59.866" y="16050"/><use xlink:href="#j" x="70.022" y="16050"/><use xlink:href="#k" x="78.656" y="16050"/><use xlink:href="#l" x="85.16" y="16050"/><use xlink:href="#m" x="91.808" y="16050"/></g><use xlink:href="#n" x="98.794" y="16050" style="fill:#000;fill-opacity:1"/><path style="fill-rule:nonzero;fill:teal;fill-opacity:1;stroke-width:.3985;stroke-linecap:butt;stroke-linejoin:miter;stroke:#000;stroke-opacity:1;stroke-miterlimit:10" d="M-.002-.002v-7.085h311.817v7.085Zm0 0" transform="matrix(1 0 0 -1 57.537 117.6)"/><g style="fill:#000;fill-opacity:1"><use xlink:href="#o" x="187.166" y="135.871"/><use xlink:href="#p" x="191.593" y="135.871"/><use xlink:href="#q" x="193.973" y="135.871"/><use xlink:href="#o" x="197.378" y="135.871"/><use xlink:href="#r" x="201.805" y="135.871"/><use xlink:href="#p" x="206.953" y="135.871"/><use xlink:href="#s" x="209.333" y="135.871"/></g><use xlink:href="#t" x="216.248" y="135.871" style="fill:#000;fill-opacity:1"/><g style="fill:#000;fill-opacity:1"><use xlink:href="#u" x="221.674" y="135.871"/><use xlink:href="#v" x="226.656" y="135.871"/></g><g style="fill:#000;fill-opacity:1"><use xlink:href="#q" x="231.165" y="135.871"/><use xlink:href="#w" x="234.569" y="135.871"/></g><path style="fill-rule:nonzero;fill:#ffbf80;fill-opacity:1;stroke-width:.3985;stroke-linecap:butt;stroke-linejoin:miter;stroke:#000;stroke-opacity:1;stroke-miterlimit:10" d="M-.002-.002v56.696h311.817V-.002Zm0 0" transform="matrix(1 0 0 -1 57.537 117.6)"/><use xlink:href="#x" x="165.288" y="99.692" style="fill:#000;fill-opacity:1"/><g style="fill:#000;fill-opacity:1"><use xlink:href="#y" x="170.3" y="99.692"/><use xlink:href="#w" x="173.621" y="99.692"/><use xlink:href="#u" x="178.768" y="99.692"/><use xlink:href="#z" x="183.75" y="99.692"/></g><g style="fill:#000;fill-opacity:1"><use xlink:href="#A" x="189.176" y="99.692"/><use xlink:href="#w" x="193.604" y="99.692"/></g><g style="fill:#000;fill-opacity:1"><use xlink:href="#B" x="202.069" y="99.692"/><use xlink:href="#A" x="205.887" y="99.692"/><use xlink:href="#C" x="210.315" y="99.692"/><use xlink:href="#p" x="218.229" y="99.692"/><use xlink:href="#o" x="220.609" y="99.692"/><use xlink:href="#u" x="225.037" y="99.692"/><use xlink:href="#D" x="230.018" y="99.692"/><use xlink:href="#w" x="235.165" y="99.692"/><use xlink:href="#r" x="240.313" y="99.692"/><use xlink:href="#o" x="245.461" y="99.692"/><use xlink:href="#s" x="249.888" y="99.692"/><use xlink:href="#u" x="253.486" y="99.692"/></g><use xlink:href="#q" x="258.188" y="99.692" style="fill:#000;fill-opacity:1"/><g clip-path="url(#E)"><path style="fill:none;stroke-width:.79701;stroke-linecap:butt;stroke-linejoin:miter;stroke:red;stroke-opacity:1;stroke-miterlimit:10" d="M0 2.835h11.34M0 8.503h11.34M2.836-.001v2.836m5.668 0v5.668m-5.668 0v2.835" transform="matrix(1 0 0 -1 158.742 70.733)"/></g><g clip-path="url(#F)"><path style="fill:none;stroke-width:.79701;stroke-linecap:butt;stroke-linejoin:miter;stroke:red;stroke-opacity:1;stroke-miterlimit:10" d="M.002 2.835h11.335M.002 8.503h11.335M2.834-.001v2.836m5.671 0v5.668m-5.671 0v2.835" transform="matrix(1 0 0 -1 170.08 70.733)"/></g><g clip-path="url(#G)"><path style="fill:none;stroke-width:.79701;stroke-linecap:butt;stroke-linejoin:miter;stroke:red;stroke-opacity:1;stroke-miterlimit:10" d="M-.001 2.835h11.34M-.001 8.503h11.34M2.835-.001v2.836m5.668 0v5.668m-5.668 0v2.835" transform="matrix(1 0 0 -1 181.42 70.733)"/></g><g clip-path="url(#H)"><path style="fill:none;stroke-width:.79701;stroke-linecap:butt;stroke-linejoin:miter;stroke:red;stroke-opacity:1;stroke-miterlimit:10" d="M0 2.835h11.34M0 8.503h11.34M2.836-.001v2.836m5.668 0v5.668m-5.668 0v2.835" transform="matrix(1 0 0 -1 192.758 70.733)"/></g><g clip-path="url(#I)"><path style="fill:none;stroke-width:.79701;stroke-linecap:butt;stroke-linejoin:miter;stroke:red;stroke-opacity:1;stroke-miterlimit:10" d="M.001 2.835h11.336M.001 8.503h11.336M2.833-.001v2.836m5.672 0v5.668m-5.672 0v2.835" transform="matrix(1 0 0 -1 204.097 70.733)"/></g><g clip-path="url(#J)"><path style="fill:none;stroke-width:.79701;stroke-linecap:butt;stroke-linejoin:miter;stroke:red;stroke-opacity:1;stroke-miterlimit:10" d="M-.002 2.835h11.34M-.002 8.503h11.34M2.834-.001v2.836m5.668 0v5.668m-5.668 0v2.835" transform="matrix(1 0 0 -1 215.435 70.733)"/></g><g clip-path="url(#K)"><path style="fill:none;stroke-width:.79701;stroke-linecap:butt;stroke-linejoin:miter;stroke:red;stroke-opacity:1;stroke-miterlimit:10" d="M0 2.835h11.34M0 8.503h11.34M2.834-.001v2.836m5.668 0v5.668m-5.668 0v2.835" transform="matrix(1 0 0 -1 226.774 70.733)"/></g><g clip-path="url(#L)"><path style="fill:none;stroke-width:.79701;stroke-linecap:butt;stroke-linejoin:miter;stroke:red;stroke-opacity:1;stroke-miterlimit:10" d="M0 2.835h11.34M0 8.503h11.34M2.837-.001v2.836m5.667 0v5.668m-5.667 0v2.835" transform="matrix(1 0 0 -1 238.113 70.733)"/></g><g clip-path="url(#M)"><path style="fill:none;stroke-width:.79701;stroke-linecap:butt;stroke-linejoin:miter;stroke:red;stroke-opacity:1;stroke-miterlimit:10" d="M.002 2.835h11.336M.002 8.503h11.336M2.834-.001v2.836m5.672 0v5.668m-5.672 0v2.835" transform="matrix(1 0 0 -1 249.451 70.733)"/></g><g clip-path="url(#N)"><path style="fill:none;stroke-width:.79701;stroke-linecap:butt;stroke-linejoin:miter;stroke:red;stroke-opacity:1;stroke-miterlimit:10" d="M-.001 2.835h11.34M-.001 8.503h11.34M2.835-.001v2.836m5.668 0v5.668m-5.668 0v2.835" transform="matrix(1 0 0 -1 260.79 70.733)"/></g><g clip-path="url(#O)"><path style="fill:none;stroke-width:.79701;stroke-linecap:butt;stroke-linejoin:miter;stroke:red;stroke-opacity:1;stroke-miterlimit:10" d="M0 2.836h11.34M0 8.504h11.34M2.836 0v2.836m5.668 0v5.668m-5.668 0v2.836" transform="matrix(1 0 0 -1 158.742 59.394)"/></g><g clip-path="url(#P)"><path style="fill:none;stroke-width:.79701;stroke-linecap:butt;stroke-linejoin:miter;stroke:red;stroke-opacity:1;stroke-miterlimit:10" d="M.002 2.836h11.335M.002 8.504h11.335M2.834 0v2.836m5.671 0v5.668m-5.671 0v2.836" transform="matrix(1 0 0 -1 170.08 59.394)"/></g><path style="fill:none;stroke-width:.79701;stroke-linecap:butt;stroke-linejoin:miter;stroke:red;stroke-opacity:1;stroke-miterlimit:10" d="M-.001 2.836h11.34M-.001 8.504h11.34M2.835 0v2.836m5.668 0v5.668m-5.668 0v2.836" transform="matrix(1 0 0 -1 181.42 59.394)"/><path style="fill:none;stroke-width:.79701;stroke-linecap:butt;stroke-linejoin:miter;stroke:red;stroke-opacity:1;stroke-miterlimit:10" d="M0 2.836h11.34M0 8.504h11.34M2.836 0v2.836m5.668 0v5.668m-5.668 0v2.836" transform="matrix(1 0 0 -1 192.758 59.394)"/><g clip-path="url(#Q)"><path style="fill:none;stroke-width:.79701;stroke-linecap:butt;stroke-linejoin:miter;stroke:red;stroke-opacity:1;stroke-miterlimit:10" d="M.001 2.836h11.336M.001 8.504h11.336M2.833 0v2.836m5.672 0v5.668m-5.672 0v2.836" transform="matrix(1 0 0 -1 204.097 59.394)"/></g><path style="fill:none;stroke-width:.79701;stroke-linecap:butt;stroke-linejoin:miter;stroke:red;stroke-opacity:1;stroke-miterlimit:10" d="M-.002 2.836h11.34M-.002 8.504h11.34M2.834 0v2.836m5.668 0v5.668m-5.668 0v2.836" transform="matrix(1 0 0 -1 215.435 59.394)"/><path style="fill:none;stroke-width:.79701;stroke-linecap:butt;stroke-linejoin:miter;stroke:red;stroke-opacity:1;stroke-miterlimit:10" d="M0 2.836h11.34M0 8.504h11.34M2.834 0v2.836m5.668 0v5.668m-5.668 0v2.836" transform="matrix(1 0 0 -1 226.774 59.394)"/><g clip-path="url(#R)"><path style="fill:none;stroke-width:.79701;stroke-linecap:butt;stroke-linejoin:miter;stroke:red;stroke-opacity:1;stroke-miterlimit:10" d="M0 2.836h11.34M0 8.504h11.34M2.837 0v2.836m5.667 0v5.668m-5.667 0v2.836" transform="matrix(1 0 0 -1 238.113 59.394)"/></g><g clip-path="url(#S)"><path style="fill:none;stroke-width:.79701;stroke-linecap:butt;stroke-linejoin:miter;stroke:red;stroke-opacity:1;stroke-miterlimit:10" d="M.002 2.836h11.336M.002 8.504h11.336M2.834 0v2.836m5.672 0v5.668m-5.672 0v2.836" transform="matrix(1 0 0 -1 249.451 59.394)"/></g><g clip-path="url(#T)"><path style="fill:none;stroke-width:.79701;stroke-linecap:butt;stroke-linejoin:miter;stroke:red;stroke-opacity:1;stroke-miterlimit:10" d="M-.001 2.836h11.34M-.001 8.504h11.34M2.835 0v2.836m5.668 0v5.668m-5.668 0v2.836" transform="matrix(1 0 0 -1 260.79 59.394)"/></g><g clip-path="url(#U)"><path style="fill:none;stroke-width:.79701;stroke-linecap:butt;stroke-linejoin:miter;stroke:red;stroke-opacity:1;stroke-miterlimit:10" d="M0 2.833h11.34M0 8.505h11.34M2.836 0v2.832m5.668 0v5.672m-5.668 0v2.832" transform="matrix(1 0 0 -1 158.742 48.056)"/></g><g clip-path="url(#V)"><path style="fill:none;stroke-width:.79701;stroke-linecap:butt;stroke-linejoin:miter;stroke:red;stroke-opacity:1;stroke-miterlimit:10" d="M.002 2.833h11.335M.002 8.505h11.335M2.834 0v2.832m5.671 0v5.672m-5.671 0v2.832" transform="matrix(1 0 0 -1 170.08 48.056)"/></g><path style="fill:none;stroke-width:.79701;stroke-linecap:butt;stroke-linejoin:miter;stroke:red;stroke-opacity:1;stroke-miterlimit:10" d="M-.001 2.833h11.34M-.001 8.505h11.34M2.835 0v2.832m5.668 0v5.672m-5.668 0v2.832" transform="matrix(1 0 0 -1 181.42 48.056)"/><path style="fill:none;stroke-width:.79701;stroke-linecap:butt;stroke-linejoin:miter;stroke:red;stroke-opacity:1;stroke-miterlimit:10" d="M0 2.833h11.34M0 8.505h11.34M2.836 0v2.832m5.668 0v5.672m-5.668 0v2.832" transform="matrix(1 0 0 -1 192.758 48.056)"/><g clip-path="url(#W)"><path style="fill:none;stroke-width:.79701;stroke-linecap:butt;stroke-linejoin:miter;stroke:red;stroke-opacity:1;stroke-miterlimit:10" d="M.001 2.833h11.336M.001 8.505h11.336M2.833 0v2.832m5.672 0v5.672m-5.672 0v2.832" transform="matrix(1 0 0 -1 204.097 48.056)"/></g><path style="fill:none;stroke-width:.79701;stroke-linecap:butt;stroke-linejoin:miter;stroke:red;stroke-opacity:1;stroke-miterlimit:10" d="M-.002 2.833h11.34M-.002 8.505h11.34M2.834 0v2.832m5.668 0v5.672m-5.668 0v2.832" transform="matrix(1 0 0 -1 215.435 48.056)"/><path style="fill:none;stroke-width:.79701;stroke-linecap:butt;stroke-linejoin:miter;stroke:red;stroke-opacity:1;stroke-miterlimit:10" d="M0 2.833h11.34M0 8.505h11.34M2.834 0v2.832m5.668 0v5.672m-5.668 0v2.832" transform="matrix(1 0 0 -1 226.774 48.056)"/><g clip-path="url(#X)"><path style="fill:none;stroke-width:.79701;stroke-linecap:butt;stroke-linejoin:miter;stroke:red;stroke-opacity:1;stroke-miterlimit:10" d="M0 2.833h11.34M0 8.505h11.34M2.837 0v2.832m5.667 0v5.672m-5.667 0v2.832" transform="matrix(1 0 0 -1 238.113 48.056)"/></g><g clip-path="url(#Y)"><path style="fill:none;stroke-width:.79701;stroke-linecap:butt;stroke-linejoin:miter;stroke:red;stroke-opacity:1;stroke-miterlimit:10" d="M.002 2.833h11.336M.002 8.505h11.336M2.834 0v2.832m5.672 0v5.672m-5.672 0v2.832" transform="matrix(1 0 0 -1 249.451 48.056)"/></g><g clip-path="url(#Z)"><path style="fill:none;stroke-width:.79701;stroke-linecap:butt;stroke-linejoin:miter;stroke:red;stroke-opacity:1;stroke-miterlimit:10" d="M-.001 2.833h11.34M-.001 8.505h11.34M2.835 0v2.832m5.668 0v5.672m-5.668 0v2.832" transform="matrix(1 0 0 -1 260.79 48.056)"/></g><g clip-path="url(#aa)"><path style="fill:none;stroke-width:.79701;stroke-linecap:butt;stroke-linejoin:miter;stroke:red;stroke-opacity:1;stroke-miterlimit:10" d="M0 2.834h11.34M0 8.506h11.34M2.836-.002v2.836m5.668 0v5.672m-5.668 0v2.832" transform="matrix(1 0 0 -1 158.742 36.717)"/></g><g clip-path="url(#ab)"><path style="fill:none;stroke-width:.79701;stroke-linecap:butt;stroke-linejoin:miter;stroke:red;stroke-opacity:1;stroke-miterlimit:10" d="M.002 2.834h11.335M.002 8.506h11.335M2.834-.002v2.836m5.671 0v5.672m-5.671 0v2.832" transform="matrix(1 0 0 -1 170.08 36.717)"/></g><g clip-path="url(#ac)"><path style="fill:none;stroke-width:.79701;stroke-linecap:butt;stroke-linejoin:miter;stroke:red;stroke-opacity:1;stroke-miterlimit:10" d="M-.001 2.834h11.34M-.001 8.506h11.34M2.835-.002v2.836m5.668 0v5.672m-5.668 0v2.832" transform="matrix(1 0 0 -1 181.42 36.717)"/></g><g clip-path="url(#ad)"><path style="fill:none;stroke-width:.79701;stroke-linecap:butt;stroke-linejoin:miter;stroke:red;stroke-opacity:1;stroke-miterlimit:10" d="M0 2.834h11.34M0 8.506h11.34M2.836-.002v2.836m5.668 0v5.672m-5.668 0v2.832" transform="matrix(1 0 0 -1 192.758 36.717)"/></g><g clip-path="url(#ae)"><path style="fill:none;stroke-width:.79701;stroke-linecap:butt;stroke-linejoin:miter;stroke:red;stroke-opacity:1;stroke-miterlimit:10" d="M.001 2.834h11.336M.001 8.506h11.336M2.833-.002v2.836m5.672 0v5.672m-5.672 0v2.832" transform="matrix(1 0 0 -1 204.097 36.717)"/></g><g clip-path="url(#af)"><path style="fill:none;stroke-width:.79701;stroke-linecap:butt;stroke-linejoin:miter;stroke:red;stroke-opacity:1;stroke-miterlimit:10" d="M-.002 2.834h11.34M-.002 8.506h11.34M2.834-.002v2.836m5.668 0v5.672m-5.668 0v2.832" transform="matrix(1 0 0 -1 215.435 36.717)"/></g><g clip-path="url(#ag)"><path style="fill:none;stroke-width:.79701;stroke-linecap:butt;stroke-linejoin:miter;stroke:red;stroke-opacity:1;stroke-miterlimit:10" d="M0 2.834h11.34M0 8.506h11.34M2.834-.002v2.836m5.668 0v5.672m-5.668 0v2.832" transform="matrix(1 0 0 -1 226.774 36.717)"/></g><g clip-path="url(#ah)"><path style="fill:none;stroke-width:.79701;stroke-linecap:butt;stroke-linejoin:miter;stroke:red;stroke-opacity:1;stroke-miterlimit:10" d="M0 2.834h11.34M0 8.506h11.34M2.837-.002v2.836m5.667 0v5.672m-5.667 0v2.832" transform="matrix(1 0 0 -1 238.113 36.717)"/></g><g clip-path="url(#ai)"><path style="fill:none;stroke-width:.79701;stroke-linecap:butt;stroke-linejoin:miter;stroke:red;stroke-opacity:1;stroke-miterlimit:10" d="M.002 2.834h11.336M.002 8.506h11.336M2.834-.002v2.836m5.672 0v5.672m-5.672 0v2.832" transform="matrix(1 0 0 -1 249.451 36.717)"/></g><g clip-path="url(#aj)"><path style="fill:none;stroke-width:.79701;stroke-linecap:butt;stroke-linejoin:miter;stroke:red;stroke-opacity:1;stroke-miterlimit:10" d="M-.001 2.834h11.34M-.001 8.506h11.34M2.835-.002v2.836m5.668 0v5.672m-5.668 0v2.832" transform="matrix(1 0 0 -1 260.79 36.717)"/></g><path style="fill:none;stroke-width:.3985;stroke-linecap:butt;stroke-linejoin:miter;stroke:#000;stroke-opacity:1;stroke-miterlimit:10" d="M107.717 56.694V85.04h96.379V56.694Zm0 0" transform="matrix(1 0 0 -1 57.537 117.6)"/><path style="fill-rule:nonzero;fill:#fff;fill-opacity:1;stroke-width:.09962;stroke-linecap:butt;stroke-linejoin:miter;stroke:#000;stroke-opacity:1;stroke-miterlimit:10" d="M175.404 76.319h-38.992a.995.995 0 0 1-.996-.996v-8.91c0-.551.445-.997.996-.997h38.992c.551 0 .996.446.996.996v8.91a.996.996 0 0 1-.996.997Zm0 0" transform="matrix(1 0 0 -1 57.537 117.6)"/><g style="fill:#000;fill-opacity:1"><use xlink:href="#w" x="194.942" y="50.193"/><use xlink:href="#p" x="200.09" y="50.193"/><use xlink:href="#A" x="202.47" y="50.193"/><use xlink:href="#ak" x="206.897" y="50.193"/><use xlink:href="#A" x="209.277" y="50.193"/><use xlink:href="#o" x="213.705" y="50.193"/><use xlink:href="#s" x="218.132" y="50.193"/><use xlink:href="#q" x="221.729" y="50.193"/><use xlink:href="#p" x="225.134" y="50.193"/><use xlink:href="#o" x="227.514" y="50.193"/></g><path style="fill-rule:nonzero;fill:#e5e5ff;fill-opacity:1;stroke-width:.3985;stroke-linecap:butt;stroke-linejoin:miter;stroke:#000;stroke-opacity:1;stroke-miterlimit:10" d="M113.389 85.041v14.172h85.039V85.041Zm0 0" transform="matrix(1 0 0 -1 57.537 117.6)"/><g style="fill:#000;fill-opacity:1"><use xlink:href="#al" x="204.545" y="14.04"/><use xlink:href="#v" x="209.526" y="14.04"/><use xlink:href="#s" x="214.314" y="14.04"/><use xlink:href="#A" x="217.912" y="14.04"/></g><path style="fill-rule:nonzero;fill:#e5e5ff;fill-opacity:1;stroke-width:.3985;stroke-linecap:butt;stroke-linejoin:miter;stroke:#000;stroke-opacity:1;stroke-miterlimit:10" d="M35.432 56.694v14.172h49.61V56.694Zm0 0" transform="matrix(1 0 0 -1 57.537 117.6)"/><g style="fill:#000;fill-opacity:1"><use xlink:href="#B" x="104.669" y="44.323"/><use xlink:href="#u" x="108.488" y="44.323"/><use xlink:href="#r" x="113.469" y="44.323"/><use xlink:href="#q" x="118.617" y="44.323"/><use xlink:href="#o" x="122.021" y="44.323"/><use xlink:href="#A" x="126.448" y="44.323"/></g><path style="fill-rule:nonzero;fill:#e5e5ff;fill-opacity:1;stroke-width:.3985;stroke-linecap:butt;stroke-linejoin:miter;stroke:#000;stroke-opacity:1;stroke-miterlimit:10" d="M226.775 56.694v14.172h49.606V56.694Zm0 0" transform="matrix(1 0 0 -1 57.537 117.6)"/><g style="fill:#000;fill-opacity:1"><use xlink:href="#w" x="298.678" y="44.323"/><use xlink:href="#q" x="303.826" y="44.323"/><use xlink:href="#v" x="307.23" y="44.323"/><use xlink:href="#p" x="312.018" y="44.323"/><use xlink:href="#D" x="314.398" y="44.323"/></g><path style="fill-rule:nonzero;fill:#a6ffa6;fill-opacity:1;stroke-width:.3985;stroke-linecap:butt;stroke-linejoin:miter;stroke:#000;stroke-opacity:1;stroke-miterlimit:10" d="M28.346 28.346v28.348h85.043V28.346Zm0 0" transform="matrix(1 0 0 -1 57.537 117.6)"/><use xlink:href="#am" x="111.188" y="72.517" style="fill:#000;fill-opacity:1"/><g style="fill:#000;fill-opacity:1"><use xlink:href="#y" x="117.168" y="72.517"/><use xlink:href="#w" x="120.489" y="72.517"/><use xlink:href="#u" x="125.636" y="72.517"/><use xlink:href="#z" x="130.618" y="72.517"/></g><g style="fill:#000;fill-opacity:1"><use xlink:href="#A" x="136.044" y="72.517"/><use xlink:href="#w" x="140.472" y="72.517"/></g><g style="fill:#000;fill-opacity:1"><use xlink:href="#B" x="98.639" y="84.472"/><use xlink:href="#A" x="102.458" y="84.472"/><use xlink:href="#C" x="106.885" y="84.472"/><use xlink:href="#p" x="114.799" y="84.472"/><use xlink:href="#o" x="117.179" y="84.472"/><use xlink:href="#u" x="121.607" y="84.472"/><use xlink:href="#D" x="126.588" y="84.472"/><use xlink:href="#w" x="131.736" y="84.472"/><use xlink:href="#r" x="136.883" y="84.472"/><use xlink:href="#o" x="142.031" y="84.472"/><use xlink:href="#s" x="146.458" y="84.472"/><use xlink:href="#u" x="150.056" y="84.472"/></g><use xlink:href="#q" x="154.758" y="84.472" style="fill:#000;fill-opacity:1"/><path style="fill-rule:nonzero;fill:#a6ffa6;fill-opacity:1;stroke-width:.3985;stroke-linecap:butt;stroke-linejoin:miter;stroke:#000;stroke-opacity:1;stroke-miterlimit:10" d="M198.428 28.346v28.348h85.039V28.346Zm0 0" transform="matrix(1 0 0 -1 57.537 117.6)"/><use xlink:href="#am" x="281.267" y="72.517" style="fill:#000;fill-opacity:1"/><g style="fill:#000;fill-opacity:1"><use xlink:href="#y" x="287.247" y="72.517"/><use xlink:href="#w" x="290.568" y="72.517"/><use xlink:href="#u" x="295.715" y="72.517"/><use xlink:href="#z" x="300.697" y="72.517"/></g><g style="fill:#000;fill-opacity:1"><use xlink:href="#A" x="306.123" y="72.517"/><use xlink:href="#w" x="310.551" y="72.517"/></g><g style="fill:#000;fill-opacity:1"><use xlink:href="#B" x="268.718" y="84.472"/><use xlink:href="#A" x="272.537" y="84.472"/><use xlink:href="#C" x="276.964" y="84.472"/><use xlink:href="#p" x="284.878" y="84.472"/><use xlink:href="#o" x="287.258" y="84.472"/><use xlink:href="#u" x="291.686" y="84.472"/><use xlink:href="#D" x="296.667" y="84.472"/><use xlink:href="#w" x="301.815" y="84.472"/><use xlink:href="#r" x="306.962" y="84.472"/><use xlink:href="#o" x="312.11" y="84.472"/><use xlink:href="#s" x="316.537" y="84.472"/><use xlink:href="#u" x="320.135" y="84.472"/></g><use xlink:href="#q" x="324.837" y="84.472" style="fill:#000;fill-opacity:1"/></svg>