<svg xmlns="http://www.w3.org/2000/svg" xmlns:xlink="http://www.w3.org/1999/xlink" width="286.085" height="112.739" viewBox="0 0 214.564 84.554"><defs><symbol overflow="visible" id="a"><path d="M4.61-3.375C4.515-4 4.11-4.563 3.327-4.563c-.61 0-1.25.172-2.031.938a2.953 2.953 0 0 0-.89 2.063c0 .625.437 1.78 1.827 1.78 2.375 0 3.407-3.343 3.407-4.78 0-1.579-.922-2.579-2.157-2.579-1.437 0-1.906 1.297-1.906 1.579 0 .14.094.343.39.343a.544.544 0 0 0 .532-.515c0-.36-.313-.36-.469-.36.438-.734 1.156-.797 1.438-.797.734 0 1.422.516 1.422 1.813 0 .39-.063.89-.266 1.703zM2.265-.062c-1.094 0-1.094-1.032-1.094-1.125 0-.266.25-1.657.656-2.266.39-.563.89-.89 1.5-.89 1.094 0 1.11 1.124 1.11 1.327 0 .72-.641 2.954-2.172 2.954zm0 0"/></symbol><symbol overflow="visible" id="d"><path d="M6.266-5.672c.484-.781.906-.812 1.265-.828.125-.016.14-.172.14-.188 0-.078-.062-.125-.14-.125-.25 0-.547.032-.812.032-.328 0-.672-.032-.985-.032-.062 0-.187 0-.187.188 0 .11.078.125.156.125.266.016.453.125.453.328 0 .156-.14.375-.14.375L2.953-.922l-.687-5.281c0-.172.234-.297.687-.297.14 0 .25 0 .25-.203 0-.078-.078-.11-.125-.11-.406 0-.828.032-1.25.032h-.547c-.172 0-.36-.032-.531-.032-.078 0-.188 0-.188.188 0 .125.079.125.25.125.547 0 .563.094.594.344l.782 6.14c.03.204.078.235.203.235.156 0 .203-.047.28-.172zm0 0"/></symbol><symbol overflow="visible" id="e"><path d="M5.813-4.016c.109-.109.109-.125.109-.156a.123.123 0 0 0-.125-.125c-.063 0-.094.047-.156.125L3.359-1.64c-.406-1.265-.484-1.515-.703-2.03-.11-.235-.328-.735-1.203-.735-.578 0-.844.515-.844.656 0 .016 0 .094.125.094.079 0 .11-.047.125-.11a.616.616 0 0 1 .532-.421c.296 0 .593.765.765 1.203.313.78.64 1.937.64 1.968 0 .016 0 .032-.077.11L.422 1.656c-.11.11-.11.125-.11.157 0 .062.063.125.11.125.078 0 .125-.079.172-.11L2.875-.734c.313 1.03.438 1.421.672 1.984.125.297.344.797 1.234.797.578 0 .844-.516.844-.656 0-.047-.016-.11-.11-.11-.109 0-.109.047-.14.14-.094.25-.344.407-.531.407-.5 0-1.188-2.422-1.407-3.187zm0 0"/></symbol><symbol overflow="visible" id="g"><path d="M4.5-4.297c0-.047-.031-.094-.094-.094-.11 0-.515.391-.672.688-.218-.547-.609-.703-.937-.703-1.172 0-2.39 1.468-2.39 2.922C.406-.516.983.109 1.718.109c.422 0 .812-.234 1.172-.593-.094.343-.422 1.687-.454 1.78-.078.282-.156.313-.718.329-.125 0-.219 0-.219.203 0 0 0 .11.125.11.313 0 .672-.032 1-.032.328 0 .688.032 1.031.032.047 0 .172 0 .172-.204 0-.109-.094-.109-.265-.109-.47 0-.47-.063-.47-.156 0-.078.016-.14.032-.219zM1.75-.109c-.61 0-.64-.766-.64-.938 0-.484.28-1.562.452-1.984.313-.735.829-1.156 1.235-1.156.656 0 .797.812.797.875 0 .062-.547 2.25-.578 2.28-.157.282-.72.923-1.266.923zm0 0"/></symbol><symbol overflow="visible" id="b"><path d="M1.719-2.75h.703c.14 0 .219 0 .219-.156C2.64-3 2.562-3 2.437-3h-.656l.25-1.031a.324.324 0 0 0 .031-.094c0-.14-.109-.234-.25-.234-.171 0-.265.125-.328.296-.046.188.047-.156-.265 1.063H.516c-.125 0-.22 0-.22.156 0 .094.079.094.204.094h.656L.75-1.11c-.047.173-.11.423-.11.516 0 .406.36.656.75.656.782 0 1.22-.968 1.22-1.062 0-.094-.094-.094-.11-.094-.094 0-.094.016-.156.14-.188.438-.547.829-.922.829-.156 0-.25-.094-.25-.344 0-.062.031-.219.047-.281zm0 0"/></symbol><symbol overflow="visible" id="c"><path d="M3.516-1.266H3.28c-.015.157-.094.563-.187.625-.047.047-.578.047-.688.047H1.125c.734-.64.984-.844 1.39-1.172.516-.406 1-.843 1-1.5 0-.843-.734-1.359-1.624-1.359-.86 0-1.454.61-1.454 1.25 0 .344.297.39.376.39.156 0 .359-.124.359-.374 0-.125-.047-.375-.406-.375.218-.485.687-.641 1.015-.641.703 0 1.063.547 1.063 1.11 0 .609-.438 1.078-.656 1.328L.516-.266C.437-.203.437-.187.437 0h2.876zm0 0"/></symbol><symbol overflow="visible" id="f"><path d="M6.844-3.266c.156 0 .343 0 .343-.187 0-.203-.187-.203-.328-.203H.891c-.141 0-.329 0-.329.203 0 .187.188.187.329.187zm.015 1.938c.141 0 .329 0 .329-.203 0-.188-.188-.188-.344-.188H.89c-.141 0-.329 0-.329.188 0 .203.188.203.329.203zm0 0"/></symbol><symbol overflow="visible" id="i"><path d="M4.078-2.297H6.86c.141 0 .329 0 .329-.203 0-.188-.188-.188-.329-.188H4.08v-2.796c0-.141 0-.329-.204-.329-.203 0-.203.188-.203.329v2.796H.89c-.141 0-.329 0-.329.188 0 .203.188.203.329.203h2.78V.5c0 .14 0 .328.204.328.203 0 .203-.187.203-.328zm0 0"/></symbol><clipPath id="h"><path d="M44 28h1v56.555h-1zm0 0"/></clipPath><clipPath id="j"><path d="M203 19h11.563v18H203zm0 0"/></clipPath><clipPath id="k"><path d="M203 20h11.563v16H203zm0 0"/></clipPath><clipPath id="l"><path d="M176 6h38.563v26H176zm0 0"/></clipPath><clipPath id="m"><path d="M176 23h38.563v27H176zm0 0"/></clipPath></defs><use xlink:href="#a" y="29.807" fill="rgb(0%,0%,0%)"/><use xlink:href="#b" x="5.289" y="31.301" fill="rgb(0%,0%,0%)"/><use xlink:href="#a" x="9.992" y="23.067" fill="rgb(0%,0%,0%)"/><use xlink:href="#c" x="15.835" y="19.451" fill="rgb(0%,0%,0%)"/><use xlink:href="#d" x="20.304" y="23.067" fill="rgb(0%,0%,0%)"/><path d="M9.992 27.316h18.336" fill="none" stroke-width="0.398" stroke="rgb(0%,0%,0%)" stroke-miterlimit="10"/><use xlink:href="#a" x="10.888" y="36.64" fill="rgb(0%,0%,0%)"/><use xlink:href="#c" x="16.731" y="33.762" fill="rgb(0%,0%,0%)"/><use xlink:href="#e" x="21.2" y="36.64" fill="rgb(0%,0%,0%)"/><use xlink:href="#f" x="32.293" y="29.807" fill="rgb(0%,0%,0%)"/><path d="M45.844 27.66c0-.781-.637-1.414-1.418-1.414a1.415 1.415 0 1 0 0 2.832c.781 0 1.418-.633 1.418-1.418zm0 0" fill="rgb(0%,0%,0%)" stroke-width="0.3985" stroke="rgb(0%,0%,0%)" stroke-miterlimit="10"/><path d="M45.426 26.66l.375-.34-.016-.808.121-.688.324-.46.532-.184.695.074.77.238.753.27.645.148.5-.082.348-.367.238-.621.2-.774.234-.773.328-.613.449-.34.562-.008.637.285.66.465.63.488.57.344.5.074.44-.238.423-.516.43-.671.46-.665.504-.484.532-.184.535.168.52.465.484.649.449.66.437.5.45.226.496-.09.558-.363.614-.507.644-.485.629-.308.562-.008.461.324.348.605.262.766.222.762.258.613.36.356.5.066.64-.172.742-.289.766-.266.691-.093.54.164.335.453.141.683.012.805-.024.797.055.664.23.45 1.586-.165" fill="none" stroke-width="0.3985" stroke="rgb(0%,0%,0%)" stroke-miterlimit="10"/><path d="M61.969 21.586l-5.192-2.379-.16 4.371zm0 0" fill="rgb(0%,0%,0%)"/><use xlink:href="#g" x="56.905" y="16.031" fill="rgb(0%,0%,0%)"/><path d="M102.535 27.66c0-.781-.633-1.414-1.418-1.414-.781 0-1.414.633-1.414 1.414a1.415 1.415 0 1 0 2.832 0zm0 0" fill="rgb(0%,0%,0%)" stroke-width="0.3985" stroke="rgb(0%,0%,0%)" stroke-miterlimit="10"/><path d="M72.773 27.66l.348-.363-.074-.805.07-.695.29-.485.515-.218.695.02.79.183.769.21.656.102.488-.117.32-.39.192-.637.145-.785.175-.79.282-.64.425-.367.559-.051.656.238.696.414.664.442.593.3.5.04.426-.274.383-.543.375-.703.414-.695.469-.52.515-.218.547.125.551.43.531.609.496.62.473.473.465.192.488-.13.531-.402.575-.55.609-.532.602-.351.562-.05.48.288.391.578.317.742.28.75.302.59.382.328.504.032.63-.22.718-.343.742-.32.684-.145.547.125.37.426.192.672.07.805.032.797.105.656.266.43 1.566-.278m32.184 1a2.835 2.835 0 0 0-2.836-2.832 2.835 2.835 0 1 0 2.836 2.832zm-175.752.004l91.884-4.013m-4.008 0l4.008 4.011" fill="none" stroke-width="0.3985" stroke="rgb(0%,0%,0%)" stroke-miterlimit="10"/><path d="M102.121 26.66l.406-.426-.011-.859.14-.754.367-.535.59-.262.766-.008.844.164.824.207.715.098.558-.125.41-.402.305-.656.278-.801.32-.801.422-.64.539-.352.648-.016.707.29.719.476.684.504.62.363.567.102.531-.215.532-.489.562-.636.602-.617.632-.43.637-.117.606.23.543.54.48.714.438.727.437.574.484.308.57.004.68-.246.762-.37.793-.34.75-.153.633.133.469.445.297.707.168.848.125.836.183.699.328.473 1.68-.196" fill="none" stroke-width="0.3985" stroke="rgb(0%,0%,0%)" stroke-miterlimit="10"/><path d="M117.246 20.797l-5.36-1.977.173 4.367zm0 0" fill="rgb(0%,0%,0%)"/><use xlink:href="#g" x="112.18" y="15.445" fill="rgb(0%,0%,0%)"/><path d="M127.46 29.668l-.339.328.086.781-.039.66-.246.45-.469.203-.66-.02-.77-.152-.765-.164-.653-.043-.46.172-.254.422-.079.648.02.781.012.786-.106.656-.285.422-.488.156-.656-.082-.75-.227-.746-.238-.645-.105-.477.125-.293.398-.14.637-.055.777-.07.781-.164.645-.324.394-.504.106-.645-.149-.723-.296-.718-.31-.633-.167-.488.074-.329.367-.203.621-.132.77-.145.773-.227.622-.363.359-.508.059-.629-.211-.691-.368-.687-.379-.61-.23-.492.027-.363.332-.262.598-.211.754-.219.754-.289.597-.394.32-.516.009-.601-.27-.653-.437-.644-.442-.586-.293-.492-.02-.399.298-.316.57-.282.726-.293.727-.347.566-.426.286-.512-.047-.574-.328-.605-.497-.598-.503-.55-.348-.493-.07-.422.257-.375.536-.351.695-.364.695-.398.528-.453.242-.504-.094-.54-.387-.554-.554-.543-.559-.52-.398-.48-.118-.445.211-.426.5-.418.657-.43.656-.449.488-.473.195-.492-.144-.5-.434-.496-.605-.488-.614-.473-.445-.469-.164-.46.168-.473.453-.48.614-.493.613-.492.437-.492.149-.473-.188-.457-.484-.433-.653-.426-.652-.43-.492-.45-.207-.476.121-.511.402-.54.567-.55.558-.535.391-.504.098-.453-.235-.407-.523-.37-.692-.36-.695-.38-.531-.425-.25-.488.074-.547.352-.594.511-.601.5-.57.336-.512.051-.426-.277-.352-.563-.3-.726-.293-.723-.325-.566-.398-.293-.492.027-.582.297-.64.45-.645.44-.606.278h-.512l-.398-.32-.293-.594-.23-.75-.215-.754-.27-.594-.367-.328-.492-.023-.61.238-.68.383-.687.375-.625.218-.512-.05-.367-.36-.234-.617-.152-.77-.141-.769-.207-.617-.336-.367-.488-.07-.63.175-.714.316-.719.31-.644.151-.504-.101-.328-.39-.172-.641-.078-.782-.067-.777-.144-.637-.297-.394-.48-.121-.641.113-.742.246-.75.234-.657.09-.488-.152-.29-.422-.108-.652v-.785l.011-.782-.082-.648-.258-.422-.464-.164-.649.05-.762.169-.77.16-.66.027-.472-.199-.246-.445-.047-.664.078-.782.086-.773-.02-.652-.214-.446-1.625.133" fill="none" stroke-width="0.3985" stroke="rgb(0%,0%,0%)" stroke-miterlimit="10"/><path d="M83.57 46.164l5.25 2.25.051-4.371zm0 0" fill="rgb(0%,0%,0%)"/><use xlink:href="#g" x="83.833" y="54.004" fill="rgb(0%,0%,0%)"/><path d="M44.426 56.008l55.426-27.711" fill="none" stroke-width="0.3985" stroke="rgb(0%,0%,0%)" stroke-miterlimit="10"/><g clip-path="url(#h)"><path d="M44.426 84.355V29.078" fill="none" stroke-width="0.3985" stroke="rgb(0%,0%,0%)" stroke-miterlimit="10"/></g><use xlink:href="#i" x="139.694" y="29.807" fill="rgb(0%,0%,0%)"/><path d="M184.602 27.66c0-.781-.637-1.414-1.418-1.414a1.417 1.417 0 1 0 1.418 1.414zm0 0" fill="rgb(0%,0%,0%)" stroke-width="0.3985" stroke="rgb(0%,0%,0%)" stroke-miterlimit="10"/><path d="M154.836 27.66h26.93m-26.93 28.348l27.344-27.344" fill="none" stroke-width="0.3985" stroke="rgb(0%,0%,0%)" stroke-miterlimit="10"/><g clip-path="url(#j)"><path d="M214.367 27.66a2.835 2.835 0 0 0-2.836-2.832 2.835 2.835 0 1 0 2.836 2.832zm0 0" fill="none" stroke-width="0.3985" stroke="rgb(0%,0%,0%)" stroke-miterlimit="10"/></g><g clip-path="url(#k)"><path d="M209.527 29.668l4.008-4.012m-4.008 0l4.008 4.012" fill="none" stroke-width="0.3985" stroke="rgb(0%,0%,0%)" stroke-miterlimit="10"/></g><g clip-path="url(#l)"><path d="M183.184 26.246l-.016-.504-.621-.52-.434-.554-.125-.559.235-.53.535-.458.71-.383.727-.324.567-.316.308-.375.012-.48-.223-.61-.332-.719-.285-.758-.097-.703.18-.55.472-.344.695-.122.809.04.789.09.652.015.457-.172.258-.414.113-.644.063-.793.11-.801.237-.66.407-.399.558-.086.672.2.711.386.68.41.597.282.497.027.41-.285.36-.555.358-.71.395-.704.457-.527.512-.23.547.116.558.422.531.606.504.617.47.465.464.187.48-.129.524-.402.574-.555.606-.53.605-.345.566-.047.48.297.38.586.297.754.25.754.27.602.355.34.488.05.633-.18.738-.288.77-.25.703-.067.539.195.32.48.102.704-.067.805-.117.785-.043.648.149.461.394.27.637.144.785.11.789.172.645.3.363.453.031.579-.273.652-.47.66-.5.613-.362.547-.102.477 1.324.863" fill="none" stroke-width="0.3985" stroke="rgb(0%,0%,0%)" stroke-miterlimit="10"/></g><path d="M199.398 12.934l-5.378-1.918.218 4.363zm0 0" fill="rgb(0%,0%,0%)"/><use xlink:href="#g" x="194.331" y="7.61" fill="rgb(0%,0%,0%)"/><g clip-path="url(#m)"><path d="M211.531 30.496l-.035.504.566.578.375.594.067.57-.281.504-.578.402-.75.309-.75.25-.598.258-.344.34-.058.48.16.63.257.75.208.78.027.711-.234.532-.504.289-.704.054-.8-.12-.778-.169-.648-.082-.469.125-.297.387-.18.633-.14.78-.191.786-.301.633-.442.355-.566.032-.648-.266-.668-.453-.633-.48-.567-.34-.492-.07-.437.238-.414.515-.426.672-.465.66-.504.48-.535.176-.535-.171-.512-.473-.473-.652-.433-.668-.422-.508-.441-.235-.493.082-.562.348-.625.492-.656.469-.641.285-.563-.012-.449-.343-.324-.621-.215-.778-.176-.777-.207-.625-.32-.371-.48-.102-.649.114-.762.218-.793.168h-.703l-.52-.254-.273-.507-.027-.707.145-.797.195-.766.11-.645-.102-.472-.368-.309-.617-.207-.77-.187-.769-.25-.61-.364-.32-.484.028-.578.336-.621.531-.61.563-.562.414-.508.148-.465-1.23-.992" fill="none" stroke-width="0.3985" stroke="rgb(0%,0%,0%)" stroke-miterlimit="10"/></g><path d="M194.066 42.121l5.16 2.45.223-4.368zm0 0" fill="rgb(0%,0%,0%)"/><use xlink:href="#g" x="194.331" y="50.066" fill="rgb(0%,0%,0%)"/></svg>