<svg height="129.328" viewBox="0 0 200.31 96.996" width="267.08" xmlns="http://www.w3.org/2000/svg" xmlns:xlink="http://www.w3.org/1999/xlink"><clipPath id="a"><path d="m120 44h10v9h-10zm0 0"/></clipPath><clipPath id="b"><path d="m129.063 48.496a4.25 4.25 0 0 0 -4.25-4.25 4.25 4.25 0 0 0 -4.254 4.25 4.251 4.251 0 0 0 4.254 4.254 4.25 4.25 0 0 0 4.25-4.254zm0 0"/></clipPath><clipPath id="c"><path d="m92 24.27h1.648v.73h-1.648zm0 0"/></clipPath><clipPath id="d"><path d="m100.715 20.152a4.253 4.253 0 0 0 -4.25-4.254 4.256 4.256 0 0 0 -4.254 4.254 4.253 4.253 0 0 0 8.504 0zm0 0"/></clipPath><clipPath id="e"><path d="m92 24.27h4.64v.73h-4.64zm0 0"/></clipPath><clipPath id="f"><path d="m100.715 20.152a4.253 4.253 0 0 0 -4.25-4.254 4.256 4.256 0 0 0 -4.254 4.254 4.253 4.253 0 0 0 8.504 0zm0 0"/></clipPath><clipPath id="g"><path d="m94.645 24.27h4.984v.73h-4.984zm0 0"/></clipPath><clipPath id="h"><path d="m100.715 20.152a4.253 4.253 0 0 0 -4.25-4.254 4.256 4.256 0 0 0 -4.254 4.254 4.253 4.253 0 0 0 8.504 0zm0 0"/></clipPath><clipPath id="i"><path d="m97.637 24.27h3.363v.73h-3.363zm0 0"/></clipPath><clipPath id="j"><path d="m100.715 20.152a4.253 4.253 0 0 0 -4.25-4.254 4.256 4.256 0 0 0 -4.254 4.254 4.253 4.253 0 0 0 8.504 0zm0 0"/></clipPath><clipPath id="k"><path d="m100.625 24.27h.375v.73h-.375zm0 0"/></clipPath><clipPath id="l"><path d="m100.715 20.152a4.253 4.253 0 0 0 -4.25-4.254 4.256 4.256 0 0 0 -4.254 4.254 4.253 4.253 0 0 0 8.504 0zm0 0"/></clipPath><clipPath id="m"><path d="m92 21.277h1.648v3.723h-1.648zm0 0"/></clipPath><clipPath id="n"><path d="m100.715 20.152a4.253 4.253 0 0 0 -4.25-4.254 4.256 4.256 0 0 0 -4.254 4.254 4.253 4.253 0 0 0 8.504 0zm0 0"/></clipPath><clipPath id="o"><path d="m92 21.277h4.64v3.723h-4.64zm0 0"/></clipPath><clipPath id="p"><path d="m100.715 20.152a4.253 4.253 0 0 0 -4.25-4.254 4.256 4.256 0 0 0 -4.254 4.254 4.253 4.253 0 0 0 8.504 0zm0 0"/></clipPath><clipPath id="q"><path d="m94.645 21.277h4.984v3.723h-4.984zm0 0"/></clipPath><clipPath id="r"><path d="m100.715 20.152a4.253 4.253 0 0 0 -4.25-4.254 4.256 4.256 0 0 0 -4.254 4.254 4.253 4.253 0 0 0 8.504 0zm0 0"/></clipPath><clipPath id="s"><path d="m97.637 21.277h3.363v3.723h-3.363zm0 0"/></clipPath><clipPath id="t"><path d="m100.715 20.152a4.253 4.253 0 0 0 -4.25-4.254 4.256 4.256 0 0 0 -4.254 4.254 4.253 4.253 0 0 0 8.504 0zm0 0"/></clipPath><clipPath id="u"><path d="m100.625 21.277h.375v3.723h-.375zm0 0"/></clipPath><clipPath id="v"><path d="m100.715 20.152a4.253 4.253 0 0 0 -4.25-4.254 4.256 4.256 0 0 0 -4.254 4.254 4.253 4.253 0 0 0 8.504 0zm0 0"/></clipPath><clipPath id="w"><path d="m92 18.29h1.648v4.983h-1.648zm0 0"/></clipPath><clipPath id="x"><path d="m100.715 20.152a4.253 4.253 0 0 0 -4.25-4.254 4.256 4.256 0 0 0 -4.254 4.254 4.253 4.253 0 0 0 8.504 0zm0 0"/></clipPath><clipPath id="y"><path d="m92 18.29h4.64v4.983h-4.64zm0 0"/></clipPath><clipPath id="z"><path d="m100.715 20.152a4.253 4.253 0 0 0 -4.25-4.254 4.256 4.256 0 0 0 -4.254 4.254 4.253 4.253 0 0 0 8.504 0zm0 0"/></clipPath><clipPath id="A"><path d="m94.645 18.29h4.984v4.983h-4.984zm0 0"/></clipPath><clipPath id="B"><path d="m100.715 20.152a4.253 4.253 0 0 0 -4.25-4.254 4.256 4.256 0 0 0 -4.254 4.254 4.253 4.253 0 0 0 8.504 0zm0 0"/></clipPath><clipPath id="C"><path d="m97.637 18.29h3.363v4.983h-3.363zm0 0"/></clipPath><clipPath id="D"><path d="m100.715 20.152a4.253 4.253 0 0 0 -4.25-4.254 4.256 4.256 0 0 0 -4.254 4.254 4.253 4.253 0 0 0 8.504 0zm0 0"/></clipPath><clipPath id="E"><path d="m100.625 18.29h.375v4.983h-.375zm0 0"/></clipPath><clipPath id="F"><path d="m100.715 20.152a4.253 4.253 0 0 0 -4.25-4.254 4.256 4.256 0 0 0 -4.254 4.254 4.253 4.253 0 0 0 8.504 0zm0 0"/></clipPath><clipPath id="G"><path d="m92 15.3h1.648v4.981h-1.648zm0 0"/></clipPath><clipPath id="H"><path d="m100.715 20.152a4.253 4.253 0 0 0 -4.25-4.254 4.256 4.256 0 0 0 -4.254 4.254 4.253 4.253 0 0 0 8.504 0zm0 0"/></clipPath><clipPath id="I"><path d="m92 15.3h4.64v4.981h-4.64zm0 0"/></clipPath><clipPath id="J"><path d="m100.715 20.152a4.253 4.253 0 0 0 -4.25-4.254 4.256 4.256 0 0 0 -4.254 4.254 4.253 4.253 0 0 0 8.504 0zm0 0"/></clipPath><clipPath id="K"><path d="m94.645 15.3h4.984v4.981h-4.984zm0 0"/></clipPath><clipPath id="L"><path d="m100.715 20.152a4.253 4.253 0 0 0 -4.25-4.254 4.256 4.256 0 0 0 -4.254 4.254 4.253 4.253 0 0 0 8.504 0zm0 0"/></clipPath><clipPath id="M"><path d="m97.637 15.3h3.363v4.981h-3.363zm0 0"/></clipPath><clipPath id="N"><path d="m100.715 20.152a4.253 4.253 0 0 0 -4.25-4.254 4.256 4.256 0 0 0 -4.254 4.254 4.253 4.253 0 0 0 8.504 0zm0 0"/></clipPath><clipPath id="O"><path d="m100.625 15.3h.375v4.981h-.375zm0 0"/></clipPath><clipPath id="P"><path d="m100.715 20.152a4.253 4.253 0 0 0 -4.25-4.254 4.256 4.256 0 0 0 -4.254 4.254 4.253 4.253 0 0 0 8.504 0zm0 0"/></clipPath><clipPath id="Q"><path d="m92 15h1.648v2.293h-1.648zm0 0"/></clipPath><clipPath id="R"><path d="m100.715 20.152a4.253 4.253 0 0 0 -4.25-4.254 4.256 4.256 0 0 0 -4.254 4.254 4.253 4.253 0 0 0 8.504 0zm0 0"/></clipPath><clipPath id="S"><path d="m92 15h4.64v2.293h-4.64zm0 0"/></clipPath><clipPath id="T"><path d="m100.715 20.152a4.253 4.253 0 0 0 -4.25-4.254 4.256 4.256 0 0 0 -4.254 4.254 4.253 4.253 0 0 0 8.504 0zm0 0"/></clipPath><clipPath id="U"><path d="m94.645 15h4.984v2.293h-4.984zm0 0"/></clipPath><clipPath id="V"><path d="m100.715 20.152a4.253 4.253 0 0 0 -4.25-4.254 4.256 4.256 0 0 0 -4.254 4.254 4.253 4.253 0 0 0 8.504 0zm0 0"/></clipPath><clipPath id="W"><path d="m97.637 15h3.363v2.293h-3.363zm0 0"/></clipPath><clipPath id="X"><path d="m100.715 20.152a4.253 4.253 0 0 0 -4.25-4.254 4.256 4.256 0 0 0 -4.254 4.254 4.253 4.253 0 0 0 8.504 0zm0 0"/></clipPath><clipPath id="Y"><path d="m100.625 15h.375v2.293h-.375zm0 0"/></clipPath><clipPath id="Z"><path d="m100.715 20.152a4.253 4.253 0 0 0 -4.25-4.254 4.256 4.256 0 0 0 -4.254 4.254 4.253 4.253 0 0 0 8.504 0zm0 0"/></clipPath><clipPath id="aa"><path d="m92 81.055h1.648v.945h-1.648zm0 0"/></clipPath><clipPath id="ab"><path d="m100.715 76.844a4.253 4.253 0 0 0 -8.504 0 4.256 4.256 0 0 0 4.254 4.254 4.253 4.253 0 0 0 4.25-4.254zm0 0"/></clipPath><clipPath id="ac"><path d="m92 81.055h4.64v.945h-4.64zm0 0"/></clipPath><clipPath id="ad"><path d="m100.715 76.844a4.253 4.253 0 0 0 -8.504 0 4.256 4.256 0 0 0 4.254 4.254 4.253 4.253 0 0 0 4.25-4.254zm0 0"/></clipPath><clipPath id="ae"><path d="m94.645 81.055h4.984v.945h-4.984zm0 0"/></clipPath><clipPath id="af"><path d="m100.715 76.844a4.253 4.253 0 0 0 -8.504 0 4.256 4.256 0 0 0 4.254 4.254 4.253 4.253 0 0 0 4.25-4.254zm0 0"/></clipPath><clipPath id="ag"><path d="m97.637 81.055h3.363v.945h-3.363zm0 0"/></clipPath><clipPath id="ah"><path d="m100.715 76.844a4.253 4.253 0 0 0 -8.504 0 4.256 4.256 0 0 0 4.254 4.254 4.253 4.253 0 0 0 4.25-4.254zm0 0"/></clipPath><clipPath id="ai"><path d="m100.625 81.055h.375v.945h-.375zm0 0"/></clipPath><clipPath id="aj"><path d="m100.715 76.844a4.253 4.253 0 0 0 -8.504 0 4.256 4.256 0 0 0 4.254 4.254 4.253 4.253 0 0 0 4.25-4.254zm0 0"/></clipPath><clipPath id="ak"><path d="m92 78.066h1.648v3.934h-1.648zm0 0"/></clipPath><clipPath id="al"><path d="m100.715 76.844a4.253 4.253 0 0 0 -8.504 0 4.256 4.256 0 0 0 4.254 4.254 4.253 4.253 0 0 0 4.25-4.254zm0 0"/></clipPath><clipPath id="am"><path d="m92 78.066h4.64v3.934h-4.64zm0 0"/></clipPath><clipPath id="an"><path d="m100.715 76.844a4.253 4.253 0 0 0 -8.504 0 4.256 4.256 0 0 0 4.254 4.254 4.253 4.253 0 0 0 4.25-4.254zm0 0"/></clipPath><clipPath id="ao"><path d="m94.645 78.066h4.984v3.934h-4.984zm0 0"/></clipPath><clipPath id="ap"><path d="m100.715 76.844a4.253 4.253 0 0 0 -8.504 0 4.256 4.256 0 0 0 4.254 4.254 4.253 4.253 0 0 0 4.25-4.254zm0 0"/></clipPath><clipPath id="aq"><path d="m97.637 78.066h3.363v3.934h-3.363zm0 0"/></clipPath><clipPath id="ar"><path d="m100.715 76.844a4.253 4.253 0 0 0 -8.504 0 4.256 4.256 0 0 0 4.254 4.254 4.253 4.253 0 0 0 4.25-4.254zm0 0"/></clipPath><clipPath id="as"><path d="m100.625 78.066h.375v3.934h-.375zm0 0"/></clipPath><clipPath id="at"><path d="m100.715 76.844a4.253 4.253 0 0 0 -8.504 0 4.256 4.256 0 0 0 4.254 4.254 4.253 4.253 0 0 0 4.25-4.254zm0 0"/></clipPath><clipPath id="au"><path d="m92 75.078h1.648v4.98h-1.648zm0 0"/></clipPath><clipPath id="av"><path d="m100.715 76.844a4.253 4.253 0 0 0 -8.504 0 4.256 4.256 0 0 0 4.254 4.254 4.253 4.253 0 0 0 4.25-4.254zm0 0"/></clipPath><clipPath id="aw"><path d="m92 75.078h4.64v4.98h-4.64zm0 0"/></clipPath><clipPath id="ax"><path d="m100.715 76.844a4.253 4.253 0 0 0 -8.504 0 4.256 4.256 0 0 0 4.254 4.254 4.253 4.253 0 0 0 4.25-4.254zm0 0"/></clipPath><clipPath id="ay"><path d="m94.645 75.078h4.984v4.98h-4.984zm0 0"/></clipPath><clipPath id="az"><path d="m100.715 76.844a4.253 4.253 0 0 0 -8.504 0 4.256 4.256 0 0 0 4.254 4.254 4.253 4.253 0 0 0 4.25-4.254zm0 0"/></clipPath><clipPath id="aA"><path d="m97.637 75.078h3.363v4.98h-3.363zm0 0"/></clipPath><clipPath id="aB"><path d="m100.715 76.844a4.253 4.253 0 0 0 -8.504 0 4.256 4.256 0 0 0 4.254 4.254 4.253 4.253 0 0 0 4.25-4.254zm0 0"/></clipPath><clipPath id="aC"><path d="m100.625 75.078h.375v4.98h-.375zm0 0"/></clipPath><clipPath id="aD"><path d="m100.715 76.844a4.253 4.253 0 0 0 -8.504 0 4.256 4.256 0 0 0 4.254 4.254 4.253 4.253 0 0 0 4.25-4.254zm0 0"/></clipPath><clipPath id="aE"><path d="m92 72.09h1.648v4.98h-1.648zm0 0"/></clipPath><clipPath id="aF"><path d="m100.715 76.844a4.253 4.253 0 0 0 -8.504 0 4.256 4.256 0 0 0 4.254 4.254 4.253 4.253 0 0 0 4.25-4.254zm0 0"/></clipPath><clipPath id="aG"><path d="m92 72.09h4.64v4.98h-4.64zm0 0"/></clipPath><clipPath id="aH"><path d="m100.715 76.844a4.253 4.253 0 0 0 -8.504 0 4.256 4.256 0 0 0 4.254 4.254 4.253 4.253 0 0 0 4.25-4.254zm0 0"/></clipPath><clipPath id="aI"><path d="m94.645 72.09h4.984v4.98h-4.984zm0 0"/></clipPath><clipPath id="aJ"><path d="m100.715 76.844a4.253 4.253 0 0 0 -8.504 0 4.256 4.256 0 0 0 4.254 4.254 4.253 4.253 0 0 0 4.25-4.254zm0 0"/></clipPath><clipPath id="aK"><path d="m97.637 72.09h3.363v4.98h-3.363zm0 0"/></clipPath><clipPath id="aL"><path d="m100.715 76.844a4.253 4.253 0 0 0 -8.504 0 4.256 4.256 0 0 0 4.254 4.254 4.253 4.253 0 0 0 4.25-4.254zm0 0"/></clipPath><clipPath id="aM"><path d="m100.625 72.09h.375v4.98h-.375zm0 0"/></clipPath><clipPath id="aN"><path d="m100.715 76.844a4.253 4.253 0 0 0 -8.504 0 4.256 4.256 0 0 0 4.254 4.254 4.253 4.253 0 0 0 4.25-4.254zm0 0"/></clipPath><clipPath id="aO"><path d="m92 72h1.648v2.082h-1.648zm0 0"/></clipPath><clipPath id="aP"><path d="m100.715 76.844a4.253 4.253 0 0 0 -8.504 0 4.256 4.256 0 0 0 4.254 4.254 4.253 4.253 0 0 0 4.25-4.254zm0 0"/></clipPath><clipPath id="aQ"><path d="m92 72h4.64v2.082h-4.64zm0 0"/></clipPath><clipPath id="aR"><path d="m100.715 76.844a4.253 4.253 0 0 0 -8.504 0 4.256 4.256 0 0 0 4.254 4.254 4.253 4.253 0 0 0 4.25-4.254zm0 0"/></clipPath><clipPath id="aS"><path d="m94.645 72h4.984v2.082h-4.984zm0 0"/></clipPath><clipPath id="aT"><path d="m100.715 76.844a4.253 4.253 0 0 0 -8.504 0 4.256 4.256 0 0 0 4.254 4.254 4.253 4.253 0 0 0 4.25-4.254zm0 0"/></clipPath><clipPath id="aU"><path d="m97.637 72h3.363v2.082h-3.363zm0 0"/></clipPath><clipPath id="aV"><path d="m100.715 76.844a4.253 4.253 0 0 0 -8.504 0 4.256 4.256 0 0 0 4.254 4.254 4.253 4.253 0 0 0 4.25-4.254zm0 0"/></clipPath><clipPath id="aW"><path d="m100.625 72h.375v2.082h-.375zm0 0"/></clipPath><clipPath id="aX"><path d="m100.715 76.844a4.253 4.253 0 0 0 -8.504 0 4.256 4.256 0 0 0 4.254 4.254 4.253 4.253 0 0 0 4.25-4.254zm0 0"/></clipPath><clipPath id="aY"><path d="m63 51.168h.762v2.832h-.762zm0 0"/></clipPath><clipPath id="aZ"><path d="m73.078 48.496a4.96 4.96 0 0 0 -4.96-4.957 4.96 4.96 0 1 0 0 9.918 4.96 4.96 0 0 0 4.96-4.96zm0 0"/></clipPath><clipPath id="a0"><path d="m63 51.168h3.75v2.832h-3.75zm0 0"/></clipPath><clipPath id="a1"><path d="m73.078 48.496a4.96 4.96 0 0 0 -4.96-4.957 4.96 4.96 0 1 0 0 9.918 4.96 4.96 0 0 0 4.96-4.96zm0 0"/></clipPath><clipPath id="a2"><path d="m64.758 51.168h4.98v2.832h-4.98zm0 0"/></clipPath><clipPath id="a3"><path d="m73.078 48.496a4.96 4.96 0 0 0 -4.96-4.957 4.96 4.96 0 1 0 0 9.918 4.96 4.96 0 0 0 4.96-4.96zm0 0"/></clipPath><clipPath id="a4"><path d="m67.746 51.168h4.98v2.832h-4.98zm0 0"/></clipPath><clipPath id="a5"><path d="m73.078 48.496a4.96 4.96 0 0 0 -4.96-4.957 4.96 4.96 0 1 0 0 9.918 4.96 4.96 0 0 0 4.96-4.96zm0 0"/></clipPath><clipPath id="a6"><path d="m70.734 51.168h3.266v2.832h-3.266zm0 0"/></clipPath><clipPath id="a7"><path d="m73.078 48.496a4.96 4.96 0 0 0 -4.96-4.957 4.96 4.96 0 1 0 0 9.918 4.96 4.96 0 0 0 4.96-4.96zm0 0"/></clipPath><clipPath id="a8"><path d="m63 48.18h.762v4.98h-.762zm0 0"/></clipPath><clipPath id="a9"><path d="m73.078 48.496a4.96 4.96 0 0 0 -4.96-4.957 4.96 4.96 0 1 0 0 9.918 4.96 4.96 0 0 0 4.96-4.96zm0 0"/></clipPath><clipPath id="ba"><path d="m63 48.18h3.75v4.98h-3.75zm0 0"/></clipPath><clipPath id="bb"><path d="m73.078 48.496a4.96 4.96 0 0 0 -4.96-4.957 4.96 4.96 0 1 0 0 9.918 4.96 4.96 0 0 0 4.96-4.96zm0 0"/></clipPath><clipPath id="bc"><path d="m64.758 48.18h4.98v4.98h-4.98zm0 0"/></clipPath><clipPath id="bd"><path d="m73.078 48.496a4.96 4.96 0 0 0 -4.96-4.957 4.96 4.96 0 1 0 0 9.918 4.96 4.96 0 0 0 4.96-4.96zm0 0"/></clipPath><clipPath id="be"><path d="m67.746 48.18h4.98v4.98h-4.98zm0 0"/></clipPath><clipPath id="bf"><path d="m73.078 48.496a4.96 4.96 0 0 0 -4.96-4.957 4.96 4.96 0 1 0 0 9.918 4.96 4.96 0 0 0 4.96-4.96zm0 0"/></clipPath><clipPath id="bg"><path d="m70.734 48.18h3.266v4.98h-3.266zm0 0"/></clipPath><clipPath id="bh"><path d="m73.078 48.496a4.96 4.96 0 0 0 -4.96-4.957 4.96 4.96 0 1 0 0 9.918 4.96 4.96 0 0 0 4.96-4.96zm0 0"/></clipPath><clipPath id="bi"><path d="m63 45.191h.762v4.98h-.762zm0 0"/></clipPath><clipPath id="bj"><path d="m73.078 48.496a4.96 4.96 0 0 0 -4.96-4.957 4.96 4.96 0 1 0 0 9.918 4.96 4.96 0 0 0 4.96-4.96zm0 0"/></clipPath><clipPath id="bk"><path d="m63 45.191h3.75v4.98h-3.75zm0 0"/></clipPath><clipPath id="bl"><path d="m73.078 48.496a4.96 4.96 0 0 0 -4.96-4.957 4.96 4.96 0 1 0 0 9.918 4.96 4.96 0 0 0 4.96-4.96zm0 0"/></clipPath><clipPath id="bm"><path d="m64.758 45.191h4.98v4.98h-4.98zm0 0"/></clipPath><clipPath id="bn"><path d="m73.078 48.496a4.96 4.96 0 0 0 -4.96-4.957 4.96 4.96 0 1 0 0 9.918 4.96 4.96 0 0 0 4.96-4.96zm0 0"/></clipPath><clipPath id="bo"><path d="m67.746 45.191h4.98v4.98h-4.98zm0 0"/></clipPath><clipPath id="bp"><path d="m73.078 48.496a4.96 4.96 0 0 0 -4.96-4.957 4.96 4.96 0 1 0 0 9.918 4.96 4.96 0 0 0 4.96-4.96zm0 0"/></clipPath><clipPath id="bq"><path d="m70.734 45.191h3.266v4.98h-3.266zm0 0"/></clipPath><clipPath id="br"><path d="m73.078 48.496a4.96 4.96 0 0 0 -4.96-4.957 4.96 4.96 0 1 0 0 9.918 4.96 4.96 0 0 0 4.96-4.96zm0 0"/></clipPath><clipPath id="bs"><path d="m63 43h.762v4.184h-.762zm0 0"/></clipPath><clipPath id="bt"><path d="m73.078 48.496a4.96 4.96 0 0 0 -4.96-4.957 4.96 4.96 0 1 0 0 9.918 4.96 4.96 0 0 0 4.96-4.96zm0 0"/></clipPath><clipPath id="bu"><path d="m63 43h3.75v4.184h-3.75zm0 0"/></clipPath><clipPath id="bv"><path d="m73.078 48.496a4.96 4.96 0 0 0 -4.96-4.957 4.96 4.96 0 1 0 0 9.918 4.96 4.96 0 0 0 4.96-4.96zm0 0"/></clipPath><clipPath id="bw"><path d="m64.758 43h4.98v4.184h-4.98zm0 0"/></clipPath><clipPath id="bx"><path d="m73.078 48.496a4.96 4.96 0 0 0 -4.96-4.957 4.96 4.96 0 1 0 0 9.918 4.96 4.96 0 0 0 4.96-4.96zm0 0"/></clipPath><clipPath id="by"><path d="m67.746 43h4.98v4.184h-4.98zm0 0"/></clipPath><clipPath id="bz"><path d="m73.078 48.496a4.96 4.96 0 0 0 -4.96-4.957 4.96 4.96 0 1 0 0 9.918 4.96 4.96 0 0 0 4.96-4.96zm0 0"/></clipPath><clipPath id="bA"><path d="m70.734 43h3.266v4.184h-3.266zm0 0"/></clipPath><clipPath id="bB"><path d="m73.078 48.496a4.96 4.96 0 0 0 -4.96-4.957 4.96 4.96 0 1 0 0 9.918 4.96 4.96 0 0 0 4.96-4.96zm0 0"/></clipPath><clipPath id="bC"><path d="m63 43h.762v1.191h-.762zm0 0"/></clipPath><clipPath id="bD"><path d="m73.078 48.496a4.96 4.96 0 0 0 -4.96-4.957 4.96 4.96 0 1 0 0 9.918 4.96 4.96 0 0 0 4.96-4.96zm0 0"/></clipPath><clipPath id="bE"><path d="m63 43h3.75v1.191h-3.75zm0 0"/></clipPath><clipPath id="bF"><path d="m73.078 48.496a4.96 4.96 0 0 0 -4.96-4.957 4.96 4.96 0 1 0 0 9.918 4.96 4.96 0 0 0 4.96-4.96zm0 0"/></clipPath><clipPath id="bG"><path d="m64.758 43h4.98v1.191h-4.98zm0 0"/></clipPath><clipPath id="bH"><path d="m73.078 48.496a4.96 4.96 0 0 0 -4.96-4.957 4.96 4.96 0 1 0 0 9.918 4.96 4.96 0 0 0 4.96-4.96zm0 0"/></clipPath><clipPath id="bI"><path d="m67.746 43h4.98v1.191h-4.98zm0 0"/></clipPath><clipPath id="bJ"><path d="m73.078 48.496a4.96 4.96 0 0 0 -4.96-4.957 4.96 4.96 0 1 0 0 9.918 4.96 4.96 0 0 0 4.96-4.96zm0 0"/></clipPath><clipPath id="bK"><path d="m70.734 43h3.266v1.191h-3.266zm0 0"/></clipPath><clipPath id="bL"><path d="m73.078 48.496a4.96 4.96 0 0 0 -4.96-4.957 4.96 4.96 0 1 0 0 9.918 4.96 4.96 0 0 0 4.96-4.96zm0 0"/></clipPath><symbol id="bM" overflow="visible"><path d="m.422.969c-.078.25-.094.312-.406.312-.11 0-.204 0-.204.157 0 .062.063.109.11.109.078 0 .11-.031.703-.031.563 0 .734.03.797.03.031 0 .14 0 .14-.155 0-.11-.109-.11-.203-.11-.375 0-.375-.047-.375-.125 0-.047.141-.61.375-1.547.11.188.36.47.782.47.984 0 2-1.126 2-2.282-.001-.797-.501-1.313-1.141-1.313-.484 0-.86.329-1.094.563-.172-.563-.703-.563-.781-.563-.281 0-.484.188-.61.438-.187.36-.28.765-.28.781 0 .078.062.11.124.11.11 0 .11-.032.172-.25.094-.407.235-.86.563-.86.203 0 .265.188.265.375 0 .078-.03.281-.046.344zm1.453-3.422c.047-.14.047-.156.172-.297.297-.36.64-.547.922-.547.406 0 .547.39.547.75 0 .297-.172 1.156-.407 1.625-.203.422-.593.781-.968.781-.532 0-.672-.625-.672-.687a.46.46 0 0 1 .031-.125zm0 0"/></symbol><symbol id="bN" overflow="visible"><path d="m3.219-1.125h-.219c-.016.094-.078.484-.156.547-.047.047-.531.047-.625.047h-1.11l.766-.625c.203-.172.734-.547.922-.735.172-.171.422-.484.422-.906 0-.75-.672-1.187-1.485-1.187-.765 0-1.296.515-1.296 1.078 0 .297.25.344.312.344a.32.32 0 0 0 .328-.329c0-.125-.078-.328-.344-.328.141-.297.5-.531.922-.531.625 0 .953.469.953.953 0 .422-.28.86-.687 1.25l-1.422 1.297c-.063.063-.063.063-.063.25h2.594zm0 0"/></symbol><symbol id="bO" overflow="visible"><path d="m1.766-1.984c.5 0 .843.343.843.953 0 .656-.39.937-.828.937-.171 0-.781-.031-1.047-.375.235-.031.329-.187.329-.344a.328.328 0 0 0 -.344-.343.34.34 0 0 0 -.344.36c0 .593.656.921 1.422.921.89 0 1.469-.563 1.469-1.156 0-.438-.329-.907-1.047-1.078.484-.157.86-.547.86-1.032 0-.484-.563-.843-1.282-.843-.703 0-1.234.328-1.234.812 0 .266.203.328.328.328.156 0 .312-.094.312-.312 0-.188-.125-.297-.297-.313.281-.312.828-.312.89-.312.298 0 .688.14.688.64 0 .329-.187.907-.796.938-.11 0-.266.015-.313.015-.063.016-.125.016-.125.11s.063.094.156.094zm0 0"/></symbol><symbol id="bP" overflow="visible"><path d="m3.375-.984v-.235h-.703v-2.64c0-.141 0-.188-.14-.188-.11 0-.126.031-.173.094l-2.078 2.733v.235h1.86v.485c0 .188 0 .266-.5.266h-.188v.234c.125 0 .688-.031.953-.031.266 0 .828.031.938.031v-.234h-.172c-.5 0-.5-.078-.5-.266v-.484zm-1.203-2.407v2.172h-1.64zm0 0"/></symbol><symbol id="bQ" overflow="visible"><path d="m2.14-3.797c0-.187-.015-.187-.203-.187-.39.39-1 .39-1.218.39v.235c.156 0 .562 0 .922-.172v3.015c0 .204 0 .282-.625.282h-.25v.234c.328-.031.796-.031 1.125-.031.328 0 .796 0 1.125.031v-.234h-.25c-.625 0-.625-.078-.625-.282zm0 0"/></symbol><symbol id="bR" overflow="visible"><path d="m4.61-3.375c-.095-.625-.5-1.188-1.283-1.188-.61 0-1.25.172-2.031.938a2.953 2.953 0 0 0 -.89 2.063c0 .625.437 1.78 1.827 1.78 2.375 0 3.407-3.343 3.407-4.78 0-1.579-.922-2.579-2.157-2.579-1.437 0-1.906 1.297-1.906 1.579 0 .14.094.343.39.343a.544.544 0 0 0 .532-.515c0-.36-.313-.36-.469-.36.438-.734 1.156-.797 1.438-.797.734 0 1.422.516 1.422 1.813 0 .39-.063.89-.266 1.703zm-2.345 3.313c-1.094 0-1.094-1.032-1.094-1.125 0-.266.25-1.657.656-2.266.39-.563.89-.89 1.5-.89 1.094 0 1.11 1.124 1.11 1.327 0 .72-.641 2.954-2.172 2.954zm0 0"/></symbol><symbol id="bS" overflow="visible"><path d="m3.734-6.125c.063-.234.094-.328.282-.36.093-.015.406-.015.609-.015.703 0 1.813 0 1.813.984 0 .344-.157 1.032-.547 1.422-.266.25-.782.578-1.688.578h-1.11zm1.438 2.734c1.016-.218 2.187-.921 2.187-1.921 0-.86-.89-1.5-2.203-1.5h-2.828c-.203 0-.297 0-.297.203 0 .109.094.109.281.109.016 0 .204 0 .376.016.187.03.265.03.265.171 0 .032 0 .063-.031.188l-1.344 5.344c-.094.39-.11.469-.906.469-.172 0-.266 0-.266.203 0 .109.125.109.14.109.282 0 .985-.031 1.25-.031.282 0 1 .031 1.282.031.078 0 .188 0 .188-.203 0-.11-.079-.11-.282-.11-.359 0-.64 0-.64-.171 0-.063.015-.11.031-.172l.656-2.64h1.189c.906 0 1.078.562 1.078.905 0 .141-.078.454-.14.688-.063.281-.157.64-.157.844-.001 1.078 1.202 1.078 1.327 1.078.844 0 1.203-1 1.203-1.14 0-.126-.11-.126-.125-.126-.093 0-.11.063-.125.14-.25.735-.687.907-.906.907-.328 0-.406-.219-.406-.61 0-.312.062-.812.11-1.14a4.9 4.9 0 0 0 .03-.469c0-.765-.671-1.078-.937-1.172zm0 0"/></symbol><symbol id="bT" overflow="visible"><path d="m.453 1.219c-.078.343-.11.406-.547.406-.11 0-.218 0-.218.188 0 .078.046.125.124.125.266 0 .563-.032.829-.032.343 0 .671.032 1 .032.046 0 .171 0 .171-.204 0-.109-.093-.109-.234-.109-.5 0-.5-.063-.5-.156 0-.125.422-1.75.484-2 .125.297.407.64.922.64 1.157 0 2.407-1.453 2.407-2.921 0-.938-.579-1.594-1.329-1.594-.5 0-.984.36-1.312.75-.094-.547-.531-.75-.89-.75-.47 0-.657.39-.735.562-.188.344-.313.938-.313.969 0 .11.094.11.11.11.11 0 .11-.016.172-.235.172-.703.375-1.188.734-1.188.172 0 .313.079.313.454 0 .234-.032.343-.079.515zm1.75-4.328c.063-.266.344-.547.516-.704.36-.296.64-.374.812-.374.39 0 .64.343.64.937s-.327 1.734-.515 2.11c-.344.702-.812 1.03-1.187 1.03-.656 0-.781-.828-.781-.89 0-.016 0-.031.03-.156zm0 0"/></symbol><symbol id="bU" overflow="visible"><path d="m2.031-.016c0-.656-.25-1.046-.64-1.046a.517.517 0 0 0 -.532.53c0 .266.204.532.532.532a.58.58 0 0 0 .343-.125c.032-.031.047-.031.047-.031.016 0 .016 0 .016.14 0 .75-.344 1.344-.672 1.672-.11.11-.11.125-.11.157 0 .078.048.109.094.109.11 0 .922-.766.922-1.938zm0 0"/></symbol><symbol id="bV" overflow="visible"><path d="m7.578-6.922c0-.031-.016-.11-.11-.11-.03 0-.046.016-.155.126l-.688.765c-.094-.14-.547-.89-1.656-.89-2.235 0-4.469 2.203-4.469 4.515 0 1.594 1.11 2.736 2.719 2.736.437 0 .89-.094 1.25-.235.5-.203.687-.406.86-.609.093.25.359.61.452.61.047 0 .078-.032.078-.032.016-.015.11-.406.157-.61l.187-.765.14-.516c.11-.437.11-.468.688-.468.047 0 .157-.016.157-.203 0-.079-.047-.11-.125-.11-.235 0-.829.031-1.047.031-.313 0-1.094-.03-1.407-.03-.078 0-.203 0-.203.202 0 .11.078.11.297.11.016 0 .297 0 .531.015.266.032.313.063.313.188 0 .094-.11.531-.219.906-.281 1.093-1.562 1.202-1.922 1.202-.953 0-2-.562-2-2.094 0-.312.094-1.953 1.14-3.25.548-.671 1.517-1.28 2.5-1.28 1.016 0 1.61.765 1.61 1.921 0 .406-.031.406-.031.516 0 .093.11.093.14.093.126 0 .126-.015.188-.203zm0 0"/></symbol><symbol id="bW" overflow="visible"><path d="m1.688 1.688c-.032.14-.047.156-.047.203 0 .218.187.28.296.28a.413.413 0 0 0 .36-.265c.031-.078.078-.406.36-1.812.077 0 .155.015.327.015 1.657 0 3.188-1.562 3.188-3.14 0-.781-.39-1.375-1.14-1.375-1.438 0-2.048 1.937-2.641 3.875-1.079-.203-1.641-.75-1.641-1.469 0-.281.234-1.375.828-2.063.094-.093.094-.109.094-.14s-.031-.094-.125-.094c-.281 0-1.047 1.453-1.047 2.407 0 .938.656 1.657 1.719 1.907zm1.389-2.158c-.094 0-.11 0-.187-.015-.125 0-.125 0-.125-.032 0-.015.171-.937.187-1.078.313-1.281 1.094-2.234 1.985-2.234.687 0 .953.531.953 1.015 0 1.126-1.282 2.344-2.813 2.344zm0 0"/></symbol><symbol id="bX" overflow="visible"><path d="m4.5-4.297c0-.047-.031-.094-.094-.094-.11 0-.515.391-.672.688-.218-.547-.609-.703-.937-.703-1.172 0-2.39 1.468-2.39 2.922-.001.968.576 1.593 1.311 1.593.422 0 .812-.234 1.172-.593-.094.343-.422 1.687-.454 1.78-.078.282-.156.313-.718.329-.125 0-.219 0-.219.203 0 0 0 .11.125.11.313 0 .672-.032 1-.032s.688.032 1.031.032c.047 0 .172 0 .172-.204 0-.109-.094-.109-.265-.109-.47 0-.47-.063-.47-.156 0-.078.016-.14.032-.219zm-2.75 4.188c-.61 0-.64-.766-.64-.938 0-.484.28-1.562.452-1.984.313-.735.829-1.156 1.235-1.156.656 0 .797.812.797.875 0 .062-.547 2.25-.578 2.28-.157.282-.72.923-1.266.923zm0 0"/></symbol><symbol id="bY" overflow="visible"><path d="m2.188-4.625c0-.016.015-.11.015-.11 0-.046-.015-.109-.11-.109-.14 0-.718.063-.89.078-.047 0-.156.016-.156.157 0 .093.11.093.187.093.329 0 .329.063.329.11s-.016.093-.016.156l-.984 3.938c-.047.124-.047.14-.047.156 0 .11.093.218.25.218.187 0 .265-.124.312-.28.016-.032.313-1.266.344-1.36.5.047.89.219.89.578 0 .031 0 .063-.015.14-.031.094-.031.141-.031.22 0 .484.406.703.75.703.671 0 .875-1.047.875-1.063 0-.094-.079-.094-.11-.094-.094 0-.11.047-.14.172-.079.297-.266.797-.61.797-.187 0-.25-.172-.25-.36 0-.124 0-.14.047-.312a.724.724 0 0 0 .031-.219c0-.625-.828-.718-1.125-.734.204-.125.454-.36.579-.469.359-.328.703-.656 1.093-.656.078 0 .172.016.235.094a.396.396 0 0 0 -.36.39c0 .141.11.25.266.25.203 0 .406-.156.406-.437a.5.5 0 0 0 -.531-.5c-.406 0-.766.297-1.125.625-.297.265-.516.484-.813.61zm0 0"/></symbol><symbol id="bZ" overflow="visible"><path d="m1.469-.11c0 .376-.063.829-.547 1.266-.016.032-.047.063-.047.094 0 .047.063.094.094.094.11 0 .703-.563.703-1.39 0-.423-.172-.75-.5-.75a.387.387 0 0 0 -.39.39c0 .219.155.406.405.406.172 0 .282-.11.282-.11zm0 0"/></symbol><symbol id="b0" overflow="visible"><path d="m2.266-4.36a.276.276 0 0 0 -.282-.265c-.187 0-.39.188-.39.39 0 .11.078.266.281.266.188 0 .39-.203.39-.39zm-1.422 3.549c-.031.091-.064.17-.064.295 0 .329.266.579.656.579.688 0 1-.954 1-1.063 0-.094-.093-.094-.109-.094-.094 0-.11.047-.14.125-.157.563-.454.844-.735.844-.14 0-.172-.094-.172-.25s.047-.281.11-.438c.078-.187.156-.375.218-.562.063-.172.329-.797.344-.89a.5.5 0 0 0 .048-.221c0-.328-.281-.593-.656-.593-.704.001-1.016.954-1.016 1.079 0 .078.094.078.125.078.094 0 .094-.031.125-.11.172-.593.485-.843.735-.843.109 0 .171.047.171.234 0 .172-.03.266-.203.704zm0 0"/></symbol><symbol id="b1" overflow="visible"><path d="m3.063-4.36a.276.276 0 0 0 -.282-.265c-.203 0-.39.203-.39.39 0 .11.078.266.28.266.188 0 .392-.187.392-.39zm-1.486 4.705c-.11.484-.484.875-.89.875-.094 0-.172 0-.25-.032a.424.424 0 0 0 .234-.359c0-.172-.14-.25-.281-.25-.203-.001-.39.187-.39.405 0 .266.266.438.688.438.421 0 1.234-.25 1.453-1.094l.625-2.5c.015-.078.03-.14.03-.25 0-.375-.327-.656-.733-.656-.783 0-1.22.968-1.22 1.078 0 .078.095.078.11.078.078 0 .094-.016.14-.125.173-.406.532-.828.938-.828.172 0 .235.11.235.344 0 .078 0 .172-.016.203zm0 0"/></symbol><symbol id="b2" overflow="visible"><path d="m1.969-4.625c0-.016.031-.11.031-.11 0-.046-.031-.109-.125-.109-.14 0-.719.063-.89.078-.047 0-.141.016-.141.157 0 .093.094.093.172.093.343 0 .343.063.343.11s-.015.093-.03.156l-.877 3.438c-.016.078-.016.156-.016.218 0 .453.391.656.72.656.171 0 .39-.046.562-.359.156-.266.25-.672.25-.703 0-.094-.094-.094-.11-.094-.109 0-.125.047-.14.172-.094.344-.235.797-.532.797-.186 0-.232-.172-.232-.344a.889.889 0 0 1 .046-.281zm0 0"/></symbol><symbol id="b3" overflow="visible"><path d="m2.938-2.656c-.141-.235-.376-.422-.72-.422-.89 0-1.796.984-1.796 1.984 0 .688.453 1.157 1.062 1.157.375 0 .704-.204.985-.485.125.422.531.484.719.484.25 0 .421-.14.546-.359.157-.281.25-.672.25-.703 0-.094-.093-.094-.109-.094-.11 0-.11.032-.156.219-.094.344-.219.75-.516.75-.172 0-.234-.156-.234-.344 0-.11.062-.375.11-.547.046-.187.124-.468.155-.625l.141-.53c.047-.188.125-.517.125-.548 0-.156-.125-.219-.234-.219-.125 0-.282.079-.329.282zm-.438 1.781c-.047.203-.203.344-.36.469-.062.062-.343.281-.64.281-.266 0-.516-.188-.516-.672 0-.375.204-1.14.375-1.422.313-.562.672-.656.86-.656.484 0 .625.531.625.61 0 .015-.016.078-.016.093zm0 0"/></symbol><symbol id="b4" overflow="visible"><path d="m3.297 2.39c0-.03 0-.046-.172-.218-1.234-1.25-1.563-3.14-1.563-4.672 0-1.734.375-3.469 1.61-4.703.125-.125.125-.14.125-.172 0-.078-.031-.11-.094-.11-.11 0-1 .688-1.594 1.954-.499 1.093-.625 2.203-.625 3.031 0 .781.11 1.984.657 3.125.609 1.219 1.453 1.875 1.562 1.875.063 0 .094-.031.094-.11zm0 0"/></symbol><symbol id="b5" overflow="visible"><path d="m2.875-2.5c0-.766-.11-1.969-.656-3.11-.594-1.217-1.453-1.873-1.547-1.873a.107.107 0 0 0 -.11.109c0 .031 0 .047.188.234.984.985 1.547 2.563 1.547 4.641 0 1.719-.36 3.469-1.594 4.719-.14.125-.14.14-.14.172 0 .062.046.109.109.109.094 0 1-.688 1.578-1.953.516-1.094.625-2.203.625-3.047zm0 0"/></symbol><symbol id="b6" overflow="visible"><path d="m5.516-6.781h-5.188v.312h.234c.766 0 .797.11.797.469v5.219c0 .36-.03.469-.796.469h-.235v.312c.344-.031 1.125-.031 1.516-.031.406 0 1.312 0 1.672.031v-.313h-.329c-.937 0-.937-.124-.937-.468v-5.297c0-.328.016-.39.484-.39h1.032c1.421 0 1.625.593 1.78 1.937h.25zm0 0"/></symbol><symbol id="b7" overflow="visible"><path d="m2.328-4.438c0-.187 0-.187-.203-.187-.453.438-1.078.438-1.36.438v.25c.157 0 .626 0 1-.188v3.547c0 .234 0 .328-.687.328h-.266v.25c.125 0 .985-.031 1.235-.031.219 0 1.094.031 1.25.031v-.25h-.267c-.703 0-.703-.094-.703-.328zm0 0"/></symbol><symbol id="b8" overflow="visible"><path d="m3.516-1.266h-.236c-.015.157-.094.563-.187.625-.047.047-.578.047-.688.047h-1.28c.734-.64.984-.844 1.39-1.172.516-.406 1-.843 1-1.5 0-.843-.734-1.359-1.624-1.359-.86 0-1.454.61-1.454 1.25 0 .344.297.39.376.39a.365.365 0 0 0 .359-.374c0-.125-.047-.375-.406-.375.218-.485.687-.641 1.015-.641.703 0 1.063.547 1.063 1.11 0 .609-.438 1.078-.656 1.328l-1.672 1.671c-.079.063-.079.079-.079.266h2.876zm0 0"/></symbol><symbol id="b9" overflow="visible"><path d="m1.906-2.328c.547 0 .938.375.938 1.125 0 .86-.516 1.125-.906 1.125-.282 0-.907-.078-1.188-.5.328 0 .406-.235.406-.39 0-.22-.172-.376-.39-.376a.38.38 0 0 0 -.391.407c0 .656.719 1.077 1.563 1.077.968 0 1.64-.657 1.64-1.344 0-.547-.437-1.094-1.203-1.25.719-.266.984-.781.984-1.219 0-.547-.625-.953-1.406-.953-.766 0-1.36.375-1.36.938 0 .234.157.359.36.359.219 0 .36-.156.36-.344 0-.203-.141-.36-.36-.375.25-.297.719-.375.985-.375.312 0 .75.156.75.75 0 .297-.094.625-.282.828-.219.266-.422.281-.765.313-.172.015-.188.015-.22.015-.015 0-.077.016-.077.094 0 .094.062.094.187.094zm0 0"/></symbol><symbol id="ca" overflow="visible"><path d="m3.688-1.14v-.25h-.782v-3.11c0-.14 0-.203-.14-.203-.094 0-.125 0-.188.11l-2.312 3.201v.25h2.062v.563c0 .25 0 .328-.578.328h-.188v.251c.36-.016.797-.031 1.047-.031.266 0 .704.015 1.063.031v-.25h-.188c-.578 0-.578-.078-.578-.328v-.563zm-1.313-2.799v2.547h-1.844zm0 0"/></symbol><symbol id="cb" overflow="visible"><path d="m2.469-5.219c-1.313.922-1.672 2.407-1.672 3.469 0 .984.297 2.516 1.672 3.484.062 0 .14 0 .14-.078 0-.047-.015-.062-.062-.11-.938-.842-1.267-2.014-1.267-3.279 0-1.891.719-2.813 1.282-3.329.03-.03.046-.046.046-.078 0-.078-.078-.078-.14-.078zm0 0"/></symbol><symbol id="cc" overflow="visible"><path d="m.625-5.219c-.047 0-.125 0-.125.078 0 .032.016.047.063.11.593.547 1.265 1.484 1.265 3.281 0 1.453-.453 2.563-1.203 3.234-.125.126-.125.126-.125.172 0 .032.016.078.078.078.094 0 .75-.453 1.219-1.328.297-.578.5-1.328.5-2.14 0-.986-.297-2.516-1.672-3.486zm0 0"/></symbol><symbol id="cd" overflow="visible"><path d="m6.563-2.297c.171 0 .359 0 .359-.203 0-.188-.188-.188-.36-.188h-5.39c-.172 0-.344 0-.344.188 0 .203.172.203.344.203zm0 0"/></symbol><path d="m28.349.002c0 15.652-12.692 28.344-28.348 28.344s-28.348-12.692-28.348-28.344c0-15.656 12.692-28.348 28.348-28.348s28.348 12.692 28.348 28.348zm0 0" fill="none" stroke="#000" stroke-miterlimit="10" stroke-width=".79701" transform="matrix(1 0 0 -1 96.464 48.498)"/><path d="m-1.554 2.074c.127-.779 1.552-1.944 1.942-2.074-.39-.13-1.815-1.296-1.942-2.074" style="fill:none;stroke-width:.6376;stroke-linecap:round;stroke-linejoin:round;stroke:#000;stroke-miterlimit:10" transform="matrix(-.70710678 -.70710678 -.70710678 .70710678 117.009475 28.954139)"/><use x="106.091" xlink:href="#bM" y="35.605"/><use x="110.354" xlink:href="#bN" y="36.712"/><path d="m-1.554 2.073c.13-.776 1.555-1.943 1.942-2.075-.388-.127-1.812-1.292-1.942-2.068" style="fill:none;stroke-width:.6376;stroke-linecap:round;stroke-linejoin:round;stroke:#000;stroke-miterlimit:10" transform="matrix(-.70710678 .70710678 .70710678 .70710678 76.921109 27.953985)"/><use x="78.423" xlink:href="#bM" y="35.605"/><use x="82.686" xlink:href="#bO" y="36.712"/><path d="m-1.556 2.073c.13-.776 1.556-1.943 1.946-2.073-.39-.13-1.815-1.295-1.942-2.074" style="fill:none;stroke-width:.6376;stroke-linecap:round;stroke-linejoin:round;stroke:#000;stroke-miterlimit:10" transform="matrix(.70710678 .70710678 .70710678 -.70710678 75.920016 68.042868)"/><use x="78.423" xlink:href="#bM" y="63.273"/><use x="82.686" xlink:href="#bP" y="64.38"/><path d="m-1.553 2.071c.13-.776 1.555-1.941 1.94-2.071-.385-.13-1.81-1.296-1.94-2.072" style="fill:none;stroke-width:.6376;stroke-linecap:round;stroke-linejoin:round;stroke:#000;stroke-miterlimit:10" transform="matrix(.70710678 -.70710678 -.70710678 -.70710678 116.009243 69.043087)"/><use x="106.091" xlink:href="#bM" y="63.273"/><use x="110.354" xlink:href="#bQ" y="64.38"/><path d="m-1.554 2.074c.127-.779 1.552-1.944 1.942-2.074-.39-.13-1.815-1.296-1.942-2.074" style="fill:none;stroke-width:.6376;stroke-linecap:round;stroke-linejoin:round;stroke:#000;stroke-miterlimit:10" transform="matrix(-.70710678 -.70710678 -.70710678 .70710678 117.009475 28.954139)"/><use x="106.091" xlink:href="#bM" y="35.605"/><use x="110.354" xlink:href="#bN" y="36.712"/><path d="m-1.554 2.073c.13-.776 1.555-1.943 1.942-2.075-.388-.127-1.812-1.292-1.942-2.068" style="fill:none;stroke-width:.6376;stroke-linecap:round;stroke-linejoin:round;stroke:#000;stroke-miterlimit:10" transform="matrix(-.70710678 .70710678 .70710678 .70710678 76.921109 27.953985)"/><use x="78.423" xlink:href="#bM" y="35.605"/><use x="82.686" xlink:href="#bO" y="36.712"/><path d="m-1.556 2.073c.13-.776 1.556-1.943 1.946-2.073-.39-.13-1.815-1.295-1.942-2.074" style="fill:none;stroke-width:.6376;stroke-linecap:round;stroke-linejoin:round;stroke:#000;stroke-miterlimit:10" transform="matrix(.70710678 .70710678 .70710678 -.70710678 75.920016 68.042868)"/><use x="78.423" xlink:href="#bM" y="63.273"/><use x="82.686" xlink:href="#bP" y="64.38"/><path d="m-1.553 2.071c.13-.776 1.555-1.941 1.94-2.071-.385-.13-1.81-1.296-1.94-2.072" style="fill:none;stroke-width:.6376;stroke-linecap:round;stroke-linejoin:round;stroke:#000;stroke-miterlimit:10" transform="matrix(.70710678 -.70710678 -.70710678 -.70710678 116.009243 69.043087)"/><use x="106.091" xlink:href="#bM" y="63.273"/><use x="110.354" xlink:href="#bQ" y="64.38"/><path d="m-1.554 2.074c.127-.779 1.552-1.944 1.942-2.074-.39-.13-1.815-1.296-1.942-2.074" style="fill:none;stroke-width:.6376;stroke-linecap:round;stroke-linejoin:round;stroke:#000;stroke-miterlimit:10" transform="matrix(-.70710678 -.70710678 -.70710678 .70710678 117.009475 28.954139)"/><use x="106.091" xlink:href="#bM" y="35.605"/><use x="110.354" xlink:href="#bN" y="36.712"/><path d="m-1.554 2.073c.13-.776 1.555-1.943 1.942-2.075-.388-.127-1.812-1.292-1.942-2.068" style="fill:none;stroke-width:.6376;stroke-linecap:round;stroke-linejoin:round;stroke:#000;stroke-miterlimit:10" transform="matrix(-.70710678 .70710678 .70710678 .70710678 76.921109 27.953985)"/><use x="78.423" xlink:href="#bM" y="35.605"/><use x="82.686" xlink:href="#bO" y="36.712"/><path d="m-1.556 2.073c.13-.776 1.556-1.943 1.946-2.073-.39-.13-1.815-1.295-1.942-2.074" style="fill:none;stroke-width:.6376;stroke-linecap:round;stroke-linejoin:round;stroke:#000;stroke-miterlimit:10" transform="matrix(.70710678 .70710678 .70710678 -.70710678 75.920016 68.042868)"/><use x="78.423" xlink:href="#bM" y="63.273"/><use x="82.686" xlink:href="#bP" y="64.38"/><path d="m-1.553 2.071c.13-.776 1.555-1.941 1.94-2.071-.385-.13-1.81-1.296-1.94-2.072" style="fill:none;stroke-width:.6376;stroke-linecap:round;stroke-linejoin:round;stroke:#000;stroke-miterlimit:10" transform="matrix(.70710678 -.70710678 -.70710678 -.70710678 116.009243 69.043087)"/><use x="106.091" xlink:href="#bM" y="63.273"/><use x="110.354" xlink:href="#bQ" y="64.38"/><path d="m-1.554 2.074c.127-.779 1.552-1.944 1.942-2.074-.39-.13-1.815-1.296-1.942-2.074" style="fill:none;stroke-width:.6376;stroke-linecap:round;stroke-linejoin:round;stroke:#000;stroke-miterlimit:10" transform="matrix(-.70710678 -.70710678 -.70710678 .70710678 117.009475 28.954139)"/><use x="106.091" xlink:href="#bM" y="35.605"/><use x="110.354" xlink:href="#bN" y="36.712"/><path d="m-1.554 2.073c.13-.776 1.555-1.943 1.942-2.075-.388-.127-1.812-1.292-1.942-2.068" style="fill:none;stroke-width:.6376;stroke-linecap:round;stroke-linejoin:round;stroke:#000;stroke-miterlimit:10" transform="matrix(-.70710678 .70710678 .70710678 .70710678 76.921109 27.953985)"/><use x="78.423" xlink:href="#bM" y="35.605"/><use x="82.686" xlink:href="#bO" y="36.712"/><path d="m-1.556 2.073c.13-.776 1.556-1.943 1.946-2.073-.39-.13-1.815-1.295-1.942-2.074" style="fill:none;stroke-width:.6376;stroke-linecap:round;stroke-linejoin:round;stroke:#000;stroke-miterlimit:10" transform="matrix(.70710678 .70710678 .70710678 -.70710678 75.920016 68.042868)"/><use x="78.423" xlink:href="#bM" y="63.273"/><use x="82.686" xlink:href="#bP" y="64.38"/><path d="m-1.553 2.071c.13-.776 1.555-1.941 1.94-2.071-.385-.13-1.81-1.296-1.94-2.072" style="fill:none;stroke-width:.6376;stroke-linecap:round;stroke-linejoin:round;stroke:#000;stroke-miterlimit:10" transform="matrix(.70710678 -.70710678 -.70710678 -.70710678 116.009243 69.043087)"/><use x="106.091" xlink:href="#bM" y="63.273"/><use x="110.354" xlink:href="#bQ" y="64.38"/><path d="m129.063 48.496a4.25 4.25 0 0 0 -4.25-4.25 4.25 4.25 0 0 0 -4.254 4.25 4.251 4.251 0 0 0 4.254 4.254 4.25 4.25 0 0 0 4.25-4.254zm0 0" fill="#fff"/><g clip-path="url(#a)"><g clip-path="url(#b)"><path d="m32.599-4.252-8.504 8.504m0-8.504 8.504 8.504" fill="none" stroke="#000" stroke-miterlimit="10" stroke-width=".3985" transform="matrix(1 0 0 -1 96.464 48.498)"/></g></g><path d="m32.599.002a4.25 4.25 0 0 1 -4.25 4.25 4.25 4.25 0 0 1 -4.254-4.25 4.251 4.251 0 0 1 4.254-4.254 4.25 4.25 0 0 1 4.25 4.254zm0 0" fill="none" stroke="#000" stroke-miterlimit="10" stroke-width=".3985" transform="matrix(1 0 0 -1 96.464 48.498)"/><use x="134.308" xlink:href="#bR" y="50.809"/><use x="139.597" xlink:href="#bY" y="52.303"/><use x="144.499" xlink:href="#bS" y="50.809"/><use x="152.063" xlink:href="#bY" y="52.303"/><g><use x="156.466" xlink:href="#bZ" y="52.303"/><use x="158.832" xlink:href="#b0" y="52.303"/><use x="161.651" xlink:href="#b1" y="52.303"/></g><use x="165.85" xlink:href="#b4" y="50.809"/><use x="169.724" xlink:href="#bT" y="50.809"/><use x="174.736" xlink:href="#b7" y="52.303"/><use x="179.206" xlink:href="#bU" y="50.809"/><use x="183.637" xlink:href="#bT" y="50.809"/><use x="188.646" xlink:href="#b8" y="52.303"/><use x="193.115" xlink:href="#b5" y="50.809"/><path d="m4.25 28.346a4.253 4.253 0 0 1 -4.25 4.254 4.256 4.256 0 0 1 -4.253-4.254 4.253 4.253 0 0 1 8.504 0zm0 0" fill="#fff" stroke="#000" stroke-miterlimit="10" stroke-width=".3985" transform="matrix(1 0 0 -1 96.464 48.498)"/><g clip-path="url(#c)"><g clip-path="url(#d)"><path d="m0-.001 3.089 3.09" fill="none" stroke="#000" stroke-miterlimit="10" stroke-width=".3985" transform="matrix(1 0 0 -1 89.665 28.253)"/></g></g><g clip-path="url(#e)"><g clip-path="url(#f)"><path d="m-.001-.001 3.09 3.09" fill="none" stroke="#000" stroke-miterlimit="10" stroke-width=".3985" transform="matrix(1 0 0 -1 92.654 28.253)"/></g></g><g clip-path="url(#g)"><g clip-path="url(#h)"><path d="m-.002-.001 3.09 3.09" fill="none" stroke="#000" stroke-miterlimit="10" stroke-width=".3985" transform="matrix(1 0 0 -1 95.643 28.253)"/></g></g><g clip-path="url(#i)"><g clip-path="url(#j)"><path d="m.001-.001 3.086 3.09" fill="none" stroke="#000" stroke-miterlimit="10" stroke-width=".3985" transform="matrix(1 0 0 -1 98.631 28.253)"/></g></g><g clip-path="url(#k)"><g clip-path="url(#l)"><path d="m0-.001 3.087 3.09" fill="none" stroke="#000" stroke-miterlimit="10" stroke-width=".3985" transform="matrix(1 0 0 -1 101.62 28.253)"/></g></g><g clip-path="url(#m)"><g clip-path="url(#n)"><path d="m0-.002 3.089 3.09" fill="none" stroke="#000" stroke-miterlimit="10" stroke-width=".3985" transform="matrix(1 0 0 -1 89.665 25.264)"/></g></g><g clip-path="url(#o)"><g clip-path="url(#p)"><path d="m-.001-.002 3.09 3.09" fill="none" stroke="#000" stroke-miterlimit="10" stroke-width=".3985" transform="matrix(1 0 0 -1 92.654 25.264)"/></g></g><g clip-path="url(#q)"><g clip-path="url(#r)"><path d="m-.002-.002 3.09 3.09" fill="none" stroke="#000" stroke-miterlimit="10" stroke-width=".3985" transform="matrix(1 0 0 -1 95.643 25.264)"/></g></g><g clip-path="url(#s)"><g clip-path="url(#t)"><path d="m.001-.002 3.086 3.09" fill="none" stroke="#000" stroke-miterlimit="10" stroke-width=".3985" transform="matrix(1 0 0 -1 98.631 25.264)"/></g></g><g clip-path="url(#u)"><g clip-path="url(#v)"><path d="m0-.002 3.087 3.09" fill="none" stroke="#000" stroke-miterlimit="10" stroke-width=".3985" transform="matrix(1 0 0 -1 101.62 25.264)"/></g></g><g clip-path="url(#w)"><g clip-path="url(#x)"><path d="m0 .002 3.089 3.086" fill="none" stroke="#000" stroke-miterlimit="10" stroke-width=".3985" transform="matrix(1 0 0 -1 89.665 22.275)"/></g></g><g clip-path="url(#y)"><g clip-path="url(#z)"><path d="m-.001.002 3.09 3.086" fill="none" stroke="#000" stroke-miterlimit="10" stroke-width=".3985" transform="matrix(1 0 0 -1 92.654 22.275)"/></g></g><g clip-path="url(#A)"><g clip-path="url(#B)"><path d="m-.002.002 3.09 3.086" fill="none" stroke="#000" stroke-miterlimit="10" stroke-width=".3985" transform="matrix(1 0 0 -1 95.643 22.275)"/></g></g><g clip-path="url(#C)"><g clip-path="url(#D)"><path d="m.001.002 3.086 3.086" fill="none" stroke="#000" stroke-miterlimit="10" stroke-width=".3985" transform="matrix(1 0 0 -1 98.631 22.275)"/></g></g><g clip-path="url(#E)"><g clip-path="url(#F)"><path d="m0 .002 3.087 3.086" fill="none" stroke="#000" stroke-miterlimit="10" stroke-width=".3985" transform="matrix(1 0 0 -1 101.62 22.275)"/></g></g><g clip-path="url(#G)"><g clip-path="url(#H)"><path d="m0 .001 3.089 3.086" fill="none" stroke="#000" stroke-miterlimit="10" stroke-width=".3985" transform="matrix(1 0 0 -1 89.665 19.286)"/></g></g><g clip-path="url(#I)"><g clip-path="url(#J)"><path d="m-.001.001 3.09 3.086" fill="none" stroke="#000" stroke-miterlimit="10" stroke-width=".3985" transform="matrix(1 0 0 -1 92.654 19.286)"/></g></g><g clip-path="url(#K)"><g clip-path="url(#L)"><path d="m-.002.001 3.09 3.086" fill="none" stroke="#000" stroke-miterlimit="10" stroke-width=".3985" transform="matrix(1 0 0 -1 95.643 19.286)"/></g></g><g clip-path="url(#M)"><g clip-path="url(#N)"><path d="m.001.001 3.086 3.086" fill="none" stroke="#000" stroke-miterlimit="10" stroke-width=".3985" transform="matrix(1 0 0 -1 98.631 19.286)"/></g></g><g clip-path="url(#O)"><g clip-path="url(#P)"><path d="m0 .001 3.087 3.086" fill="none" stroke="#000" stroke-miterlimit="10" stroke-width=".3985" transform="matrix(1 0 0 -1 101.62 19.286)"/></g></g><g clip-path="url(#Q)"><g clip-path="url(#R)"><path d="m0 0 3.089 3.087" fill="none" stroke="#000" stroke-miterlimit="10" stroke-width=".3985" transform="matrix(1 0 0 -1 89.665 16.298)"/></g></g><g clip-path="url(#S)"><g clip-path="url(#T)"><path d="m-.001 0 3.09 3.087" fill="none" stroke="#000" stroke-miterlimit="10" stroke-width=".3985" transform="matrix(1 0 0 -1 92.654 16.298)"/></g></g><g clip-path="url(#U)"><g clip-path="url(#V)"><path d="m-.002 0 3.09 3.087" fill="none" stroke="#000" stroke-miterlimit="10" stroke-width=".3985" transform="matrix(1 0 0 -1 95.643 16.298)"/></g></g><g clip-path="url(#W)"><g clip-path="url(#X)"><path d="m.001 0 3.086 3.087" fill="none" stroke="#000" stroke-miterlimit="10" stroke-width=".3985" transform="matrix(1 0 0 -1 98.631 16.298)"/></g></g><g clip-path="url(#Y)"><g clip-path="url(#Z)"><path d="m0 0 3.087 3.087" fill="none" stroke="#000" stroke-miterlimit="10" stroke-width=".3985" transform="matrix(1 0 0 -1 101.62 16.298)"/></g></g><use x="69.292" xlink:href="#bV" y="10.793"/><use x="77.125" xlink:href="#bY" y="12.287"/><g><use x="81.528" xlink:href="#bZ" y="12.287"/><use x="83.894" xlink:href="#b1" y="12.287"/></g><use x="87.595" xlink:href="#bY" y="12.287"/><use x="92.496" xlink:href="#b4" y="10.793"/><use x="96.37" xlink:href="#bT" y="10.793"/><use x="101.383" xlink:href="#b8" y="12.287"/><use x="105.852" xlink:href="#bU" y="10.793"/><use x="110.283" xlink:href="#bT" y="10.793"/><use x="115.293" xlink:href="#b9" y="12.287"/><use x="119.762" xlink:href="#b5" y="10.793"/><path d="m4.25-28.346a4.253 4.253 0 0 1 -8.504 0 4.256 4.256 0 0 1 4.256-4.254 4.253 4.253 0 0 1 4.25 4.254zm0 0" fill="#fff" stroke="#000" stroke-miterlimit="10" stroke-width=".3985" transform="matrix(1 0 0 -1 96.464 48.498)"/><g clip-path="url(#aa)"><g clip-path="url(#ab)"><path d="m0 .002 3.089 3.086" fill="none" stroke="#000" stroke-miterlimit="10" stroke-width=".3985" transform="matrix(1 0 0 -1 89.665 85.04)"/></g></g><g clip-path="url(#ac)"><g clip-path="url(#ad)"><path d="m-.001.002 3.09 3.086" fill="none" stroke="#000" stroke-miterlimit="10" stroke-width=".3985" transform="matrix(1 0 0 -1 92.654 85.04)"/></g></g><g clip-path="url(#ae)"><g clip-path="url(#af)"><path d="m-.002.002 3.09 3.086" fill="none" stroke="#000" stroke-miterlimit="10" stroke-width=".3985" transform="matrix(1 0 0 -1 95.643 85.04)"/></g></g><g clip-path="url(#ag)"><g clip-path="url(#ah)"><path d="m.001.002 3.086 3.086" fill="none" stroke="#000" stroke-miterlimit="10" stroke-width=".3985" transform="matrix(1 0 0 -1 98.631 85.04)"/></g></g><g clip-path="url(#ai)"><g clip-path="url(#aj)"><path d="m0 .002 3.087 3.086" fill="none" stroke="#000" stroke-miterlimit="10" stroke-width=".3985" transform="matrix(1 0 0 -1 101.62 85.04)"/></g></g><g clip-path="url(#ak)"><g clip-path="url(#al)"><path d="m0 .001 3.089 3.086" fill="none" stroke="#000" stroke-miterlimit="10" stroke-width=".3985" transform="matrix(1 0 0 -1 89.665 82.052)"/></g></g><g clip-path="url(#am)"><g clip-path="url(#an)"><path d="m-.001.001 3.09 3.086" fill="none" stroke="#000" stroke-miterlimit="10" stroke-width=".3985" transform="matrix(1 0 0 -1 92.654 82.052)"/></g></g><g clip-path="url(#ao)"><g clip-path="url(#ap)"><path d="m-.002.001 3.09 3.086" fill="none" stroke="#000" stroke-miterlimit="10" stroke-width=".3985" transform="matrix(1 0 0 -1 95.643 82.052)"/></g></g><g clip-path="url(#aq)"><g clip-path="url(#ar)"><path d="m.001.001 3.086 3.086" fill="none" stroke="#000" stroke-miterlimit="10" stroke-width=".3985" transform="matrix(1 0 0 -1 98.631 82.052)"/></g></g><g clip-path="url(#as)"><g clip-path="url(#at)"><path d="m0 .001 3.087 3.086" fill="none" stroke="#000" stroke-miterlimit="10" stroke-width=".3985" transform="matrix(1 0 0 -1 101.62 82.052)"/></g></g><g clip-path="url(#au)"><g clip-path="url(#av)"><path d="m0 0 3.089 3.09" fill="none" stroke="#000" stroke-miterlimit="10" stroke-width=".3985" transform="matrix(1 0 0 -1 89.665 79.063)"/></g></g><g clip-path="url(#aw)"><g clip-path="url(#ax)"><path d="m-.001 0 3.09 3.09" fill="none" stroke="#000" stroke-miterlimit="10" stroke-width=".3985" transform="matrix(1 0 0 -1 92.654 79.063)"/></g></g><g clip-path="url(#ay)"><g clip-path="url(#az)"><path d="m-.002 0 3.09 3.09" fill="none" stroke="#000" stroke-miterlimit="10" stroke-width=".3985" transform="matrix(1 0 0 -1 95.643 79.063)"/></g></g><g clip-path="url(#aA)"><g clip-path="url(#aB)"><path d="m.001 0 3.086 3.09" fill="none" stroke="#000" stroke-miterlimit="10" stroke-width=".3985" transform="matrix(1 0 0 -1 98.631 79.063)"/></g></g><g clip-path="url(#aC)"><g clip-path="url(#aD)"><path d="m0 0 3.087 3.09" fill="none" stroke="#000" stroke-miterlimit="10" stroke-width=".3985" transform="matrix(1 0 0 -1 101.62 79.063)"/></g></g><g clip-path="url(#aE)"><g clip-path="url(#aF)"><path d="m0 0 3.089 3.09" fill="none" stroke="#000" stroke-miterlimit="10" stroke-width=".3985" transform="matrix(1 0 0 -1 89.665 76.074)"/></g></g><g clip-path="url(#aG)"><g clip-path="url(#aH)"><path d="m-.001 0 3.09 3.09" fill="none" stroke="#000" stroke-miterlimit="10" stroke-width=".3985" transform="matrix(1 0 0 -1 92.654 76.074)"/></g></g><g clip-path="url(#aI)"><g clip-path="url(#aJ)"><path d="m-.002 0 3.09 3.09" fill="none" stroke="#000" stroke-miterlimit="10" stroke-width=".3985" transform="matrix(1 0 0 -1 95.643 76.074)"/></g></g><g clip-path="url(#aK)"><g clip-path="url(#aL)"><path d="m.001 0 3.086 3.09" fill="none" stroke="#000" stroke-miterlimit="10" stroke-width=".3985" transform="matrix(1 0 0 -1 98.631 76.074)"/></g></g><g clip-path="url(#aM)"><g clip-path="url(#aN)"><path d="m0 0 3.087 3.09" fill="none" stroke="#000" stroke-miterlimit="10" stroke-width=".3985" transform="matrix(1 0 0 -1 101.62 76.074)"/></g></g><g clip-path="url(#aO)"><g clip-path="url(#aP)"><path d="m0 0 3.089 3.09" fill="none" stroke="#000" stroke-miterlimit="10" stroke-width=".3985" transform="matrix(1 0 0 -1 89.665 73.085)"/></g></g><g clip-path="url(#aQ)"><g clip-path="url(#aR)"><path d="m-.001 0 3.09 3.09" fill="none" stroke="#000" stroke-miterlimit="10" stroke-width=".3985" transform="matrix(1 0 0 -1 92.654 73.085)"/></g></g><g clip-path="url(#aS)"><g clip-path="url(#aT)"><path d="m-.002 0 3.09 3.09" fill="none" stroke="#000" stroke-miterlimit="10" stroke-width=".3985" transform="matrix(1 0 0 -1 95.643 73.085)"/></g></g><g clip-path="url(#aU)"><g clip-path="url(#aV)"><path d="m.001 0 3.086 3.09" fill="none" stroke="#000" stroke-miterlimit="10" stroke-width=".3985" transform="matrix(1 0 0 -1 98.631 73.085)"/></g></g><g clip-path="url(#aW)"><g clip-path="url(#aX)"><path d="m0 0 3.087 3.09" fill="none" stroke="#000" stroke-miterlimit="10" stroke-width=".3985" transform="matrix(1 0 0 -1 101.62 73.085)"/></g></g><use x="70.654" xlink:href="#bV" y="90.825"/><use x="78.487" xlink:href="#bY" y="92.319"/><g><use x="82.89" xlink:href="#bZ" y="92.319"/><use x="85.256" xlink:href="#b2" y="92.319"/></g><use x="87.817" xlink:href="#b0" y="92.319"/><use x="91.134" xlink:href="#b4" y="90.825"/><use x="95.008" xlink:href="#bT" y="90.825"/><use x="100.021" xlink:href="#ca" y="92.319"/><use x="104.49" xlink:href="#bU" y="90.825"/><use x="108.921" xlink:href="#bT" y="90.825"/><use x="113.93" xlink:href="#b7" y="92.319"/><use x="118.4" xlink:href="#b5" y="90.825"/><path d="m-56.694.002h28.347" fill="none" stroke="#000" stroke-miterlimit="10" stroke-width=".3985" transform="matrix(1 0 0 -1 96.464 48.498)"/><use x="45.441" xlink:href="#bW" y="56.307"/><use x="51.958" xlink:href="#b3" y="57.802"/><path d="m-51.714 4.982h10.715" fill="none" stroke="#000" stroke-miterlimit="10" stroke-width=".59776" transform="matrix(1 0 0 -1 96.464 48.498)"/><path d="m-1.376 1.833c.116-.687 1.375-1.719 1.718-1.832-.342-.117-1.601-1.148-1.718-1.836" style="fill:none;stroke-width:.4782;stroke-linecap:round;stroke-linejoin:round;stroke:#000;stroke-miterlimit:10" transform="matrix(1 0 0 -1 55.466 43.517)"/><use x="47.999" xlink:href="#bX" y="37.96"/><use x="3.321" xlink:href="#b6" y="23.174"/><g><use x="9.547" xlink:href="#cb" y="17.999"/><use x="12.66" xlink:href="#b9" y="17.999"/><use x="16.632" xlink:href="#cc" y="17.999"/></g><use x="9.547" xlink:href="#bY" y="26.179"/><g><use x="13.95" xlink:href="#bZ" y="26.179"/><use x="16.316" xlink:href="#b3" y="26.179"/><use x="20.637" xlink:href="#bY" y="26.179"/></g><use x="25.04" xlink:href="#b2" y="26.179"/><use x="28.1" xlink:href="#b4" y="23.174"/><use x="31.974" xlink:href="#bX" y="23.174"/><use x="36.78" xlink:href="#bU" y="23.174"/><use x="41.211" xlink:href="#bT" y="23.174"/><use x="46.22" xlink:href="#b9" y="24.668"/><use x="50.689" xlink:href="#bU" y="23.174"/><use x="55.117" xlink:href="#cd" y="23.174"/><use x="62.866" xlink:href="#bT" y="23.174"/><use x="67.878" xlink:href="#ca" y="24.668"/><use x="72.347" xlink:href="#b5" y="23.174"/><path d="m-40.874 23.1 12.527-23.098" fill="none" stroke="#808080" stroke-miterlimit="10" stroke-width=".3985" transform="matrix(1 0 0 -1 96.464 48.498)"/><path d="m-23.386.002a4.96 4.96 0 0 1 -4.96 4.957 4.96 4.96 0 1 1 0-9.918 4.96 4.96 0 0 1 4.96 4.96zm0 0" fill="#fff" stroke="#000" stroke-miterlimit="10" stroke-width=".3985" transform="matrix(1 0 0 -1 96.464 48.498)"/><g clip-path="url(#aY)"><g clip-path="url(#aZ)"><path d="m0 0 3.087 3.09" fill="none" stroke="#000" stroke-miterlimit="10" stroke-width=".3985" transform="matrix(1 0 0 -1 59.777 55.152)"/></g></g><g clip-path="url(#a0)"><g clip-path="url(#a1)"><path d="m0 0 3.09 3.09" fill="none" stroke="#000" stroke-miterlimit="10" stroke-width=".3985" transform="matrix(1 0 0 -1 62.765 55.152)"/></g></g><g clip-path="url(#a2)"><g clip-path="url(#a3)"><path d="m0 0 3.09 3.09" fill="none" stroke="#000" stroke-miterlimit="10" stroke-width=".3985" transform="matrix(1 0 0 -1 65.754 55.152)"/></g></g><g clip-path="url(#a4)"><g clip-path="url(#a5)"><path d="m0 0 3.089 3.09" fill="none" stroke="#000" stroke-miterlimit="10" stroke-width=".3985" transform="matrix(1 0 0 -1 68.743 55.152)"/></g></g><g clip-path="url(#a6)"><g clip-path="url(#a7)"><path d="m-.001 0 3.09 3.09" fill="none" stroke="#000" stroke-miterlimit="10" stroke-width=".3985" transform="matrix(1 0 0 -1 71.732 55.152)"/></g></g><g clip-path="url(#a8)"><g clip-path="url(#a9)"><path d="m0 0 3.087 3.09" fill="none" stroke="#000" stroke-miterlimit="10" stroke-width=".3985" transform="matrix(1 0 0 -1 59.777 52.164)"/></g></g><g clip-path="url(#ba)"><g clip-path="url(#bb)"><path d="m0 0 3.09 3.09" fill="none" stroke="#000" stroke-miterlimit="10" stroke-width=".3985" transform="matrix(1 0 0 -1 62.765 52.164)"/></g></g><g clip-path="url(#bc)"><g clip-path="url(#bd)"><path d="m0 0 3.09 3.09" fill="none" stroke="#000" stroke-miterlimit="10" stroke-width=".3985" transform="matrix(1 0 0 -1 65.754 52.164)"/></g></g><g clip-path="url(#be)"><g clip-path="url(#bf)"><path d="m0 0 3.089 3.09" fill="none" stroke="#000" stroke-miterlimit="10" stroke-width=".3985" transform="matrix(1 0 0 -1 68.743 52.164)"/></g></g><g clip-path="url(#bg)"><g clip-path="url(#bh)"><path d="m-.001 0 3.09 3.09" fill="none" stroke="#000" stroke-miterlimit="10" stroke-width=".3985" transform="matrix(1 0 0 -1 71.732 52.164)"/></g></g><g clip-path="url(#bi)"><g clip-path="url(#bj)"><path d="m0-.001 3.087 3.09" fill="none" stroke="#000" stroke-miterlimit="10" stroke-width=".3985" transform="matrix(1 0 0 -1 59.777 49.175)"/></g></g><g clip-path="url(#bk)"><g clip-path="url(#bl)"><path d="m0-.001 3.09 3.09" fill="none" stroke="#000" stroke-miterlimit="10" stroke-width=".3985" transform="matrix(1 0 0 -1 62.765 49.175)"/></g></g><g clip-path="url(#bm)"><g clip-path="url(#bn)"><path d="m0-.001 3.09 3.09" fill="none" stroke="#000" stroke-miterlimit="10" stroke-width=".3985" transform="matrix(1 0 0 -1 65.754 49.175)"/></g></g><g clip-path="url(#bo)"><g clip-path="url(#bp)"><path d="m0-.001 3.089 3.09" fill="none" stroke="#000" stroke-miterlimit="10" stroke-width=".3985" transform="matrix(1 0 0 -1 68.743 49.175)"/></g></g><g clip-path="url(#bq)"><g clip-path="url(#br)"><path d="m-.001-.001 3.09 3.09" fill="none" stroke="#000" stroke-miterlimit="10" stroke-width=".3985" transform="matrix(1 0 0 -1 71.732 49.175)"/></g></g><g clip-path="url(#bs)"><g clip-path="url(#bt)"><path d="m0-.002 3.087 3.09" fill="none" stroke="#000" stroke-miterlimit="10" stroke-width=".3985" transform="matrix(1 0 0 -1 59.777 46.186)"/></g></g><g clip-path="url(#bu)"><g clip-path="url(#bv)"><path d="m0-.002 3.09 3.09" fill="none" stroke="#000" stroke-miterlimit="10" stroke-width=".3985" transform="matrix(1 0 0 -1 62.765 46.186)"/></g></g><g clip-path="url(#bw)"><g clip-path="url(#bx)"><path d="m0-.002 3.09 3.09" fill="none" stroke="#000" stroke-miterlimit="10" stroke-width=".3985" transform="matrix(1 0 0 -1 65.754 46.186)"/></g></g><g clip-path="url(#by)"><g clip-path="url(#bz)"><path d="m0-.002 3.089 3.09" fill="none" stroke="#000" stroke-miterlimit="10" stroke-width=".3985" transform="matrix(1 0 0 -1 68.743 46.186)"/></g></g><g clip-path="url(#bA)"><g clip-path="url(#bB)"><path d="m-.001-.002 3.09 3.09" fill="none" stroke="#000" stroke-miterlimit="10" stroke-width=".3985" transform="matrix(1 0 0 -1 71.732 46.186)"/></g></g><g clip-path="url(#bC)"><g clip-path="url(#bD)"><path d="m0 .002 3.087 3.086" fill="none" stroke="#000" stroke-miterlimit="10" stroke-width=".3985" transform="matrix(1 0 0 -1 59.777 43.197)"/></g></g><g clip-path="url(#bE)"><g clip-path="url(#bF)"><path d="m0 .002 3.09 3.086" fill="none" stroke="#000" stroke-miterlimit="10" stroke-width=".3985" transform="matrix(1 0 0 -1 62.765 43.197)"/></g></g><g clip-path="url(#bG)"><g clip-path="url(#bH)"><path d="m0 .002 3.09 3.086" fill="none" stroke="#000" stroke-miterlimit="10" stroke-width=".3985" transform="matrix(1 0 0 -1 65.754 43.197)"/></g></g><g clip-path="url(#bI)"><g clip-path="url(#bJ)"><path d="m0 .002 3.089 3.086" fill="none" stroke="#000" stroke-miterlimit="10" stroke-width=".3985" transform="matrix(1 0 0 -1 68.743 43.197)"/></g></g><g clip-path="url(#bK)"><g clip-path="url(#bL)"><path d="m-.001.002 3.09 3.086" fill="none" stroke="#000" stroke-miterlimit="10" stroke-width=".3985" transform="matrix(1 0 0 -1 71.732 43.197)"/></g></g></svg>