<svg height="227.835" viewBox="0 0 295.182 170.876" width="393.576" xmlns="http://www.w3.org/2000/svg" xmlns:xlink="http://www.w3.org/1999/xlink"><symbol id="a" overflow="visible"><path d="m2.234-3.516v-2.578c0-.234 0-.36.22-.39.093-.016.39-.016.593-.016.89 0 2 .047 2 1.484 0 .688-.234 1.5-1.703 1.5zm2.11.125c.953-.234 1.734-.843 1.734-1.625 0-.953-1.14-1.796-2.594-1.796h-3.14v.312h.25c.765 0 .781.11.781.469v5.25c0 .36-.016.469-.781.469h-.25v.312c.36-.031 1.078-.031 1.453-.031.39 0 1.11 0 1.469.031v-.313h-.25c-.766 0-.782-.109-.782-.468v-2.516h1.141c.156 0 .578 0 .938.344.375.344.375.656.375 1.328 0 .64 0 1.047.406 1.422.406.36.953.422 1.25.422.781 0 .953-.813.953-1.094 0-.063 0-.172-.125-.172-.11 0-.11.094-.125.156-.063.721-.407.891-.657.891-.485 0-.563-.516-.704-1.438l-.14-.796c-.172-.641-.656-.97-1.203-1.157zm0 0"/></symbol><symbol id="b" overflow="visible"><path d="m1.11-2.516c.061-1.484.905-1.734 1.25-1.734 1.015 0 1.124 1.344 1.124 1.734zm0 .22h2.78c.22 0 .25 0 .25-.22 0-.984-.546-1.953-1.78-1.953-1.158 0-2.08 1.032-2.08 2.282.001 1.327 1.048 2.295 2.19 2.295 1.218.002 1.67-1.108 1.67-1.295 0-.094-.079-.125-.141-.125-.078 0-.11.062-.125.14-.343 1.032-1.249 1.032-1.343 1.032-.5 0-.89-.296-1.125-.671-.297-.47-.297-1.125-.297-1.485zm0 0"/></symbol><symbol id="c" overflow="visible"><path d="m3.297 2.39c0-.03 0-.046-.172-.218-1.234-1.25-1.563-3.14-1.563-4.672 0-1.734.375-3.469 1.61-4.703.125-.125.125-.14.125-.172 0-.078-.031-.11-.094-.11-.11 0-1 .688-1.594 1.954-.499 1.093-.625 2.203-.625 3.031 0 .781.11 1.984.657 3.125.609 1.219 1.453 1.875 1.562 1.875.063 0 .094-.031.094-.11zm0 0"/></symbol><symbol id="d" overflow="visible"><path d="m2.875-2.5c0-.766-.11-1.969-.656-3.11-.594-1.217-1.453-1.873-1.547-1.873a.107.107 0 0 0 -.11.109c0 .031 0 .047.188.234.984.985 1.547 2.563 1.547 4.641 0 1.719-.36 3.469-1.594 4.719-.14.125-.14.14-.14.172 0 .062.046.109.109.109.094 0 1-.688 1.578-1.953.516-1.094.625-2.203.625-3.047zm0 0"/></symbol><symbol id="e" overflow="visible"><path d="m2.25-6.031c0-.36.016-.469.813-.469h.25v-.313c-.344.032-1.126.032-1.516.032-.375 0-1.172 0-1.516-.032v.313h.25c.797 0 .828.11.828.469v5.25c0 .36-.03.469-.828.469h-.25v.312c.344-.031 1.14-.031 1.516-.031.39 0 1.172 0 1.516.031v-.313h-.25c-.797 0-.813-.109-.813-.468zm0 0"/></symbol><symbol id="f" overflow="visible"><path d="m1.094-3.422v2.672c0 .438-.11.438-.782.438v.312c.36-.016.86-.031 1.141-.031.25 0 .766.015 1.11.031v-.313c-.672 0-.782 0-.782-.437v-1.844c0-1.031.719-1.594 1.344-1.594.64 0 .75.532.75 1.11v2.328c0 .438-.11.438-.781.438v.312c.344-.016.86-.031 1.125-.031.25 0 .781.015 1.11.031v-.313c-.657 0-.766 0-.766-.437v-1.844c0-1.031.703-1.594 1.343-1.594.625 0 .735.532.735 1.11v2.328c0 .438-.11.438-.782.438v.312c.344-.016.86-.031 1.125-.031.266 0 .782.015 1.125.031v-.313c-.515 0-.765 0-.78-.296v-1.907c0-.859 0-1.156-.313-1.515-.141-.172-.47-.375-1.047-.375-.828 0-1.282.593-1.438.984-.14-.875-.875-.984-1.328-.984-.734 0-1.203.422-1.484 1.047v-1.047l-1.407.11v.312c.704 0 .782.062.782.562zm0 0"/></symbol><symbol id="g" overflow="visible"><path d="m2.406-6.594c-.094-.218-.125-.218-.36-.218h-1.67v.312h.234c.766 0 .782.11.782.469v4.984c0 .266 0 .734-1.016.734v.313c.344-.016.828-.031 1.156-.031s.828.015 1.172.031v-.313c-1.031 0-1.031-.468-1.031-.734v-5.375h.016l2.405 6.203c.047.125.093.219.187.219.11 0 .14-.078.188-.188l2.453-6.312v5.719c0 .36-.016.469-.781.469h-.235v.312c.36-.031 1.047-.031 1.438-.031.375 0 1.047 0 1.422.031v-.313h-.25c-.766 0-.782-.109-.782-.468v-5.25c0-.36.016-.469.782-.469h.25v-.313h-1.688c-.266 0-.266.016-.328.188l-2.188 5.625zm0 0"/></symbol><symbol id="h" overflow="visible"><path d="m3.313-.75c.046.39.312.813.78.813.22 0 .829-.141.829-.954v-.562h-.25v.562c0 .579-.25.641-.36.641-.328 0-.375-.453-.375-.5v-1.984c0-.422 0-.813-.359-1.188a1.9 1.9 0 0 0 -1.36-.547c-.827 0-1.515.469-1.515 1.125 0 .297.203.469.469.469a.435.435 0 0 0 .453-.453c0-.125-.047-.453-.516-.453.282-.36.766-.469 1.079-.469.5 0 1.062.39 1.062 1.281v.36c-.516.03-1.203.062-1.828.359-.75.344-1 .86-1 1.297 0 .812.969 1.062 1.594 1.062a1.38 1.38 0 0 0 1.296-.859zm-.063-1.64v1c0 .937-.719 1.28-1.172 1.28-.484 0-.89-.343-.89-.843 0-.547.421-1.375 2.062-1.438zm0 0"/></symbol><symbol id="i" overflow="visible"><path d="m1.719-3.984h1.437v-.313h-1.436v-1.828h-.25c0 .813-.297 1.875-1.282 1.922v.219h.844v2.75c0 1.218.938 1.343 1.297 1.343.703 0 .985-.703.985-1.343v-.563h-.25v.547c0 .734-.297 1.11-.672 1.11-.672 0-.672-.907-.672-1.079zm0 0"/></symbol><symbol id="j" overflow="visible"><path d="m2.078-1.938c.219.047 1.031.204 1.031.922 0 .5-.343.907-1.125.907-.843 0-1.203-.563-1.39-1.422-.031-.125-.031-.157-.14-.157-.126 0-.126.063-.126.235v1.328c0 .172 0 .234.11.234.045.001.062-.015.25-.203.015-.015.015-.031.202-.218.437.406.89.421 1.093.421 1.141 0 1.61-.671 1.61-1.39 0-.516-.297-.828-.422-.938-.328-.328-.719-.406-1.14-.484-.563-.11-1.22-.235-1.22-.813 0-.359.25-.765 1.11-.765 1.094 0 1.156.906 1.172 1.203 0 .094.094.094.11.094.14 0 .14-.047.14-.235v-1.015c0-.157 0-.235-.11-.235-.046 0-.078 0-.203.125a1.676 1.676 0 0 1 -.172.157c-.375-.282-.78-.282-.937-.282-1.219 0-1.594.672-1.594 1.235 0 .343.156.625.422.843.328.25.61.313 1.328.454zm0 0"/></symbol><symbol id="k" overflow="visible"><path d="m3.89-.781v.89l1.439-.109v-.313c-.687 0-.766-.062-.766-.562v-3.531l-1.468.11v.312c.687 0 .781.062.781.562v1.766c0 .875-.484 1.547-1.219 1.547-.828 0-.875-.47-.875-.985v-3.312l-1.468.11v.312c.78 0 .78.03.78.906v1.5c0 .781 0 1.687 1.516 1.687.563 0 1-.28 1.282-.89zm0 0"/></symbol><symbol id="l" overflow="visible"><path d="m1.719-3.766v-3.156l-1.438.11v.312c.703 0 .781.063.781.563v5.937h.25c0-.016.079-.156.36-.625.14.234.562.734 1.297.734 1.187 0 2.219-.984 2.219-2.265 0-1.266-.97-2.25-2.11-2.25-.781 0-1.203.468-1.36.64zm.031 2.626v-2.046c0-.188 0-.204.11-.36.39-.562.937-.64 1.171-.64.453 0 .813.265 1.047.64.266.406.281.969.281 1.39 0 .36-.015.954-.296 1.407-.22.313-.594.64-1.125.64-.454 0-.813-.234-1.047-.609-.141-.203-.141-.234-.141-.422zm0 0"/></symbol><symbol id="m" overflow="visible"><path d="m1.672-3.313v-1.093l-1.39.11v.312c.702 0 .78.062.78.562v2.672c0 .438-.109.438-.78.438v.312c.39-.016.859-.031 1.14-.031.39 0 .86 0 1.266.031v-.313h-.22c-.734 0-.75-.109-.75-.468v-1.531c0-.985.423-1.876 1.173-1.876.062 0 .093 0 .109.016-.031 0-.234.125-.234.39 0 .266.218.423.437.423a.421.421 0 0 0 .422-.438c0-.312-.313-.61-.734-.61-.735 0-1.094.673-1.22 1.095zm0 0"/></symbol><symbol id="n" overflow="visible"><path d="m1.75-4.297v-1.156c0-.875.469-1.36.906-1.36.031 0 .188 0 .328.079a.443.443 0 0 0 -.296.421c0 .22.156.422.437.422s.438-.203.438-.437c0-.375-.376-.703-.907-.703-.687 0-1.547.531-1.547 1.593v1.141h-.779v.313h.78v3.234c0 .438-.109.438-.765.438v.312c.39-.016.86-.031 1.125-.031.406 0 .875 0 1.265.031v-.313h-.203c-.734 0-.75-.109-.75-.468v-3.203h1.125v-.313zm0 0"/></symbol><symbol id="o" overflow="visible"><path d="m3.781-.61v1.782c0 .453-.11.453-.765.453v.313c.328-.016.859-.032 1.109-.032.266 0 .781.016 1.125.032v-.313c-.672 0-.781 0-.781-.453v-5.578h-.219l-.375.906c-.125-.281-.531-.906-1.328-.906-1.156 0-2.203.968-2.203 2.265 0 1.25.969 2.25 2.125 2.25.687 0 1.094-.421 1.312-.718zm.031-2.156v1.407c0 .328-.171.609-.39.843a1.271 1.271 0 0 1 -.922.407c-.719 0-1.328-.891-1.328-2.032 0-1.187.687-2.015 1.437-2.015.797 0 1.204.86 1.204 1.39zm0 0"/></symbol><symbol id="p" overflow="visible"><path d="m1.094-3.422v2.672c0 .438-.11.438-.782.438v.312c.36-.016.86-.031 1.141-.031.25 0 .766.015 1.11.031v-.313c-.672 0-.782 0-.782-.437v-1.844c0-1.031.719-1.594 1.344-1.594.64 0 .75.532.75 1.11v2.328c0 .438-.11.438-.781.438v.312c.344-.016.86-.031 1.125-.031.25 0 .781.015 1.11.031v-.313c-.516 0-.766 0-.766-.296v-1.907c0-.859 0-1.156-.313-1.515-.14-.172-.469-.375-1.047-.375-.734 0-1.203.422-1.484 1.047v-1.047l-1.407.11v.312c.704 0 .782.062.782.562zm0 0"/></symbol><symbol id="q" overflow="visible"><path d="m1.172-2.172c0-1.625.812-2.047 1.344-2.047.093 0 .718.016 1.062.375-.406.031-.469.328-.469.453 0 .266.188.454.454.454.265 0 .468-.157.468-.47 0-.671-.765-1.062-1.531-1.062-1.25 0-2.156 1.079-2.156 2.313 0 1.281.984 2.265 2.14 2.265 1.329 0 1.657-1.203 1.657-1.296 0-.094-.11-.094-.141-.094-.078 0-.11.031-.125.093-.281.923-.938 1.048-1.297 1.048-.531 0-1.406-.421-1.406-2.03zm0 0"/></symbol><symbol id="r" overflow="visible"><path d="m1.766-4.406-1.391.11v.312c.64 0 .734.062.734.546v2.688c0 .438-.109.438-.78.438v.312c.312-.016.859-.031 1.093-.031.36 0 .703.015 1.047.031v-.313c-.672 0-.703-.046-.703-.437zm.03-1.735a.514.514 0 0 0 -.515-.53.537.537 0 0 0 -.531.53c0 .266.219.532.531.532a.514.514 0 0 0 .516-.532zm0 0"/></symbol><symbol id="s" overflow="visible"><path d="m3.781-.547v.657l1.469-.11v-.313c-.688 0-.781-.062-.781-.562v-6.047l-1.422.11v.312c.687 0 .765.063.765.563v2.156a1.582 1.582 0 0 0 -1.25-.625c-1.171 0-2.218.984-2.218 2.265 0 1.266.969 2.25 2.11 2.25.64 0 1.077-.343 1.327-.656zm0-2.672v2.047c0 .172 0 .188-.11.36-.296.484-.733.703-1.171.703-.453 0-.813-.266-1.047-.641-.25-.406-.281-.969-.281-1.39 0-.36.016-.954.297-1.407.218-.312.593-.64 1.14-.64.344 0 .766.156 1.063.593.11.172.11.188.11.375zm0 0"/></symbol><symbol id="t" overflow="visible"><path d="m4.14-3.313c.094-.234.266-.671.923-.671v-.313c-.235.016-.516.031-.75.031-.235 0-.688-.015-.86-.03v.312c.36 0 .469.234.469.421 0 .094-.016.141-.047.25l-1.031 2.533-1.11-2.781c-.062-.126-.062-.141-.062-.172 0-.25.39-.25.578-.25v-.313c-.313.016-.86.031-1.094.031-.265 0-.672-.015-.968-.03v.312c.625 0 .671.062.796.359l1.438 3.546c.062.14.078.187.203.187.14 0 .172-.093.219-.187zm0 0"/></symbol><symbol id="u" overflow="visible"><path d="m5.797-6.781h-5.469v.312h.234c.766 0 .797.11.797.469v5.219c0 .36-.03.469-.796.469h-.235v.312c.344-.031 1.125-.031 1.516-.031.406 0 1.312 0 1.672.031v-.313h-.329c-.937 0-.937-.124-.937-.468v-2.453h.844c.969 0 1.062.312 1.062 1.156h.25v-2.64h-.25c0 .843-.093 1.171-1.062 1.171h-.844v-2.531c0-.328.016-.39.484-.39h1.188c1.5 0 1.75.562 1.906 1.937h.25zm0 0"/></symbol><symbol id="v" overflow="visible"><path d="m4.14-3.344c.25-.64.766-.64.923-.64v-.313c-.235.016-.516.031-.75.031-.172 0-.641-.015-.86-.03v.312c.313 0 .469.171.469.421 0 .11-.016.126-.063.25l-1.015 2.439-1.094-2.673c-.047-.11-.063-.14-.063-.187 0-.25.36-.25.563-.25v-.313c-.266.016-.922.031-1.094.031-.265 0-.672-.015-.968-.03v.312c.484 0 .671 0 .812.343l1.5 3.641a6.764 6.764 0 0 0 -.25.594c-.219.547-.5 1.234-1.14 1.234-.048 0-.282 0-.47-.187.313-.032.391-.25.391-.422 0-.25-.187-.407-.421-.407-.203 0-.421.125-.421.422 0 .454.421.813.921.813.625 0 1.032-.578 1.266-1.14zm0 0"/></symbol><symbol id="w" overflow="visible"><path d="m6.031-3.703c0-.453-.172-.703-.406-.703-.25 0-.516.234-.516.468 0 .094.047.204.141.297a1.1 1.1 0 0 1 .36.844c0 .39-.204.969-.5 1.422-.298.422-.673.766-1.141.766-.563 0-.875-.36-.969-.891.11-.266.344-.906.344-1.188 0-.109-.047-.218-.188-.218-.078 0-.187.031-.265.172-.11.203-.235.843-.235 1.203-.328.468-.719.922-1.344.922-.671 0-.875-.594-.875-1.141 0-1.25 1.016-2.297 1.016-2.422a.18.18 0 0 0 -.187-.187c-.125 0-.204.125-.266.218-.5.735-.875 1.922-.875 2.829 0 .687.219 1.421 1.047 1.421.703 0 1.172-.5 1.531-1.046.094.578.485 1.046 1.094 1.046.781 0 1.25-.609 1.61-1.359.25-.484.624-1.844.624-2.453zm0 0"/></symbol><clipPath id="x"><path d="m141 0h2v170.875h-2zm0 0"/></clipPath><clipPath id="y"><path d="m0 45h295.184v81h-295.184zm0 0"/></clipPath><path d="m-141.733 0 .997.997 1.992-1.993 1.992 1.993 1.992-1.993 1.992 1.993 1.992-1.993 1.993 1.993 1.992-1.993 1.996 1.993 1.988-1.993 1.996 1.993 1.993-1.993 1.992 1.993 1.992-1.993 1.992 1.993 1.992-1.993 1.992 1.993 1.993-1.993 1.992 1.993 1.996-1.993 1.988 1.993 1.996-1.993 1.993 1.993 1.993-1.993 1.992 1.993 1.992-1.993 1.992 1.993 1.992-1.993 1.993 1.993 1.992-1.993 1.992 1.993 1.996-1.993 1.992 1.993 1.992-1.993 1.992 1.993 1.992-1.993 1.992 1.993 1.992-1.993 1.992 1.993 1.993-1.993 1.992 1.993 1.996-1.993 1.991 1.993 1.992-1.993 1.992 1.993 1.993-1.993 1.993 1.993 1.992-1.993 1.992 1.993 1.992-1.993 1.994 1.993 1.992-1.993 1.996 1.993 1.992-1.993 1.992 1.993 1.992-1.993 1.993 1.993 1.992-1.993 1.991 1.993 1.992-1.993 1.992 1.993 1.992-1.993 1.994 1.993 1.996-1.993 1.992 1.993 1.992-1.993 1.991 1.993 1.993-1.993 1.992 1.993 1.992-1.993 1.992 1.993 1.992-1.993 1.992 1.993 1.997-1.993 1.992 1.993 1.992-1.993 1.992 1.993 1.993-1.993 1.991 1.993 1.993-1.993 1.992 1.993 1.992-1.993 1.992 1.993 1.992-1.993 1.998 1.993 1.99-1.993 1.993 1.993 1.992-1.993 1.992 1.993 1.993-1.993 1.992 1.993 1.992-1.993 1.992 1.993 1.992-1.993 1.992 1.993 1.996-1.993 1.994 1.993 1.99-1.993 1.993 1.993 1.992-1.993 1.992 1.993 1.993-1.993 1.992 1.993 1.992-1.993 1.992 1.993 1.996-1.993 1.992 1.993 1.993-1.993 1.992 1.993 1.991-1.993 1.993 1.993 1.992-1.993 1.993 1.993 1.992-1.993 1.992 1.993 1.992-1.993 1.996 1.993 1.992-1.993 1.993 1.993 1.992-1.993 1.992 1.993 1.992-1.993 1.992 1.993 1.993-1.993 1.992 1.993 1.992-1.993 1.992 1.993 1.996-1.993 1.992 1.993 1.993-1.993 1.992 1.993 1.992-1.993 1.992 1.993 1.992-1.993 1.993 1.993 1.992-1.993 1.996 1.993 1.988-1.993 1.996 1.993 1.992-1.993 1.993 1.993.996-.997h1.808" fill="none" stroke="#000" stroke-miterlimit="10" stroke-width=".79701" transform="matrix(1 0 0 -1 142.131 85.438)"/><path d="m-1.553 2.07c.13-.776 1.551-1.94 1.943-2.07-.39-.128-1.813-1.296-1.942-2.074" style="fill:none;stroke-width:.6376;stroke-linecap:round;stroke-linejoin:round;stroke:#000;stroke-miterlimit:10" transform="matrix(1 0 0 -1 283.158 85.438)"/><g><use x="254.075" xlink:href="#a" y="96.629"/><use x="261.408" xlink:href="#b" y="96.629"/><use x="265.836" xlink:href="#c" y="96.629"/></g><use x="269.711" xlink:href="#w" y="96.629"/><use x="276.27" xlink:href="#d" y="96.629"/><g clip-path="url(#x)"><path d="m.002-85.039v169.372" fill="none" stroke="#000" stroke-miterlimit="10" stroke-width=".79701" transform="matrix(1 0 0 -1 142.131 85.438)"/></g><path d="m-1.555 2.072c.129-.777 1.554-1.941 1.945-2.074-.39-.128-1.816-1.293-1.945-2.07" style="fill:none;stroke-width:.6376;stroke-linecap:round;stroke-linejoin:round;stroke:#000;stroke-miterlimit:10" transform="matrix(0 -1 -1 0 142.131 1.105)"/><g><use x="145.85" xlink:href="#e" y="11.59"/><use x="149.447" xlink:href="#f" y="11.59"/><use x="157.749" xlink:href="#c" y="11.59"/></g><use x="161.624" xlink:href="#w" y="11.59"/><use x="168.183" xlink:href="#d" y="11.59"/><path d="m144.621 161.027a2.487 2.487 0 0 0 -2.488-2.488 2.491 2.491 0 1 0 2.488 2.488zm0-18.898a2.487 2.487 0 0 0 -2.488-2.488 2.488 2.488 0 0 0 -2.492 2.488 2.489 2.489 0 0 0 2.492 2.492 2.488 2.488 0 0 0 2.488-2.492zm0-18.895a2.49 2.49 0 1 0 -4.981-.003 2.49 2.49 0 0 0 4.981.003zm0-18.898a2.49 2.49 0 1 0 -4.98 0 2.491 2.491 0 1 0 4.98 0zm0-18.898a2.487 2.487 0 0 0 -2.488-2.489 2.491 2.491 0 1 0 2.488 2.488zm0-18.898a2.487 2.487 0 0 0 -2.488-2.49 2.491 2.491 0 1 0 2.488 2.488zm0-18.895a2.488 2.488 0 0 0 -2.488-2.493 2.489 2.489 0 0 0 -2.492 2.493 2.488 2.488 0 0 0 2.492 2.488 2.487 2.487 0 0 0 2.488-2.488zm0-18.899a2.49 2.49 0 1 0 -4.981-.003 2.49 2.49 0 0 0 4.981.003zm0-18.898a2.49 2.49 0 1 0 -4.98 0 2.491 2.491 0 1 0 4.98 0zm0 0"/><g><use x="88.737" xlink:href="#g" y="25.259"/><use x="97.87" xlink:href="#h" y="25.259"/><use x="102.851" xlink:href="#i" y="25.259"/><use x="106.725" xlink:href="#j" y="25.259"/><use x="110.655" xlink:href="#k" y="25.259"/><use x="116.19" xlink:href="#l" y="25.259"/><use x="121.725" xlink:href="#h" y="25.259"/><use x="126.706" xlink:href="#m" y="25.259"/><use x="130.609" xlink:href="#h" y="25.259"/></g><g><use x="88.737" xlink:href="#n" y="37.214"/><use x="91.782" xlink:href="#m" y="37.214"/><use x="95.684" xlink:href="#b" y="37.214"/><use x="100.111" xlink:href="#o" y="37.214"/><use x="105.37" xlink:href="#k" y="37.214"/><use x="110.905" xlink:href="#b" y="37.214"/><use x="115.332" xlink:href="#p" y="37.214"/><use x="120.867" xlink:href="#q" y="37.214"/><use x="125.295" xlink:href="#r" y="37.214"/><use x="128.062" xlink:href="#b" y="37.214"/><use x="132.49" xlink:href="#j" y="37.214"/></g><path d="m-141.733-28.347h283.465" fill="none" stroke="#f00" stroke-dasharray="2.98883 2.98883" stroke-miterlimit="10" stroke-width=".79701" transform="matrix(1 0 0 -1 142.131 85.438)"/><g fill="#f00"><use x="15.768" xlink:href="#h" y="124.422"/><use x="20.749" xlink:href="#s" y="124.422"/><use x="26.285" xlink:href="#t" y="124.422"/></g><g fill="#f00"><use x="30.985" xlink:href="#h" y="124.422"/><use x="35.966" xlink:href="#p" y="124.422"/><use x="41.501" xlink:href="#q" y="124.422"/><use x="45.929" xlink:href="#b" y="124.422"/><use x="50.356" xlink:href="#s" y="124.422"/></g><path d="m-141.733 28.348h283.465" fill="none" stroke="#00f" stroke-dasharray="2.98883 2.98883" stroke-miterlimit="10" stroke-width=".79701" transform="matrix(1 0 0 -1 142.131 85.438)"/><g fill="#00f"><use x="17.539" xlink:href="#m" y="53.373"/><use x="21.441" xlink:href="#b" y="53.373"/><use x="25.869" xlink:href="#i" y="53.373"/><use x="29.743" xlink:href="#h" y="53.373"/><use x="34.724" xlink:href="#m" y="53.373"/><use x="38.627" xlink:href="#s" y="53.373"/><use x="44.162" xlink:href="#b" y="53.373"/><use x="48.589" xlink:href="#s" y="53.373"/></g><g clip-path="url(#y)"><path d="m-141.733-28.347 283.465 56.695" fill="none" stroke="#ff8000" stroke-dasharray="2.98883 2.98883" stroke-miterlimit="10" stroke-width=".79701" transform="matrix(1 0 0 -1 142.131 85.438)"/></g><g fill="#ff8000"><use x="252.149" xlink:href="#u" y="74.705"/><g><use x="257.826" xlink:href="#b" y="74.705"/><use x="262.253" xlink:href="#v" y="74.705"/><use x="267.511" xlink:href="#p" y="74.705"/><use x="273.047" xlink:href="#f" y="74.705"/><use x="281.348" xlink:href="#h" y="74.705"/><use x="286.33" xlink:href="#p" y="74.705"/></g></g></svg>