<svg height="151.621" viewBox="0 0 239.438 113.716" width="319.251" xmlns="http://www.w3.org/2000/svg" xmlns:xlink="http://www.w3.org/1999/xlink"><symbol id="a" overflow="visible"><path d="m6.563-2.297c.171 0 .359 0 .359-.203 0-.188-.188-.188-.36-.188h-5.39c-.172 0-.344 0-.344.188 0 .203.172.203.344.203zm0 0"/></symbol><symbol id="b" overflow="visible"><path d="m3.266-7.094c.046-.11.046-.14.046-.187 0-.11-.078-.203-.187-.203-.094 0-.172.062-.234.234l-1.751 4.578c-.016.063-.047.125-.047.172 0 .031 0 .063.047.172l1.75 4.578c.046.11.093.25.234.25.11 0 .188-.094.188-.203 0-.031 0-.047-.047-.156l-1.765-4.641zm0 0"/></symbol><symbol id="c" overflow="visible"><path d="m2.719-2.328c.047-.11.047-.14.047-.172 0-.016 0-.047-.047-.156l-1.735-4.594c-.062-.172-.124-.234-.234-.234a.207.207 0 0 0 -.203.203c0 .031 0 .047.047.156l1.765 4.625-1.765 4.61c-.047.109-.047.14-.047.187 0 .11.094.203.203.203.125 0 .172-.11.203-.203zm0 0"/></symbol><symbol id="d" overflow="visible"><path d="m1.313-3.266v-.25c0-2.515 1.234-2.875 1.75-2.875.234 0 .656.063.874.407-.156 0-.546 0-.546.437 0 .313.234.469.453.469.156 0 .469-.094.469-.484 0-.594-.438-1.079-1.266-1.079-1.281.001-2.625 1.282-2.625 3.485 0 2.672 1.156 3.375 2.078 3.375 1.11 0 2.063-.938 2.063-2.25 0-1.266-.891-2.219-2-2.219-.672 0-1.047.5-1.25.984zm1.187 3.204c-.625 0-.922-.594-.984-.75-.188-.47-.188-1.266-.188-1.438 0-.781.328-1.781 1.219-1.781.172 0 .625 0 .937.625.172.36.172.875.172 1.36 0 .483 0 .983-.172 1.343-.296.594-.75.64-.984.64zm0 0"/></symbol><symbol id="e" overflow="visible"><path d="m2.938-1.64v.859c0 .36-.032.469-.766.469h-.203v.312c.406-.031.922-.031 1.343-.031.422 0 .938 0 1.36.031v-.313h-.219c-.734 0-.75-.109-.75-.468v-.86h.985v-.312h-.985v-4.531c0-.204 0-.266-.172-.266-.078 0-.11 0-.187.125l-3.064 4.672v.312zm.046-.313h-2.421l2.421-3.719zm0 0"/></symbol><symbol id="f" overflow="visible"><path d="m1.266-.766 1.062-1.03c1.547-1.376 2.14-1.907 2.14-2.907 0-1.14-.89-1.938-2.109-1.938a1.843 1.843 0 0 0 -1.859 1.813c0 .547.5.547.531.547.172 0 .516-.11.516-.532a.513.513 0 0 0 -.531-.515c-.079 0-.094 0-.125.016.218-.657.765-1.016 1.343-1.016.907 0 1.329.812 1.329 1.625 0 .797-.485 1.578-1.047 2.203l-1.907 2.125c-.109.11-.109.14-.109.375h3.703l.266-1.734h-.235c-.062.296-.124.734-.234.89-.063.078-.719.078-.938.078zm0 0"/></symbol><symbol id="g" overflow="visible"><path d="m4.578-3.188c0-.796-.047-1.593-.39-2.328-.455-.968-1.283-1.124-1.688-1.124-.61 0-1.328.266-1.75 1.188-.313.687-.36 1.469-.36 2.266 0 .75.032 1.64.454 2.406a1.83 1.83 0 0 0 1.64 1c.532 0 1.297-.203 1.735-1.157.312-.687.36-1.468.36-2.25zm-2.094 3.188c-.39 0-.984-.25-1.156-1.203-.11-.594-.11-1.516-.11-2.11 0-.64 0-1.296.079-1.828.187-1.187.937-1.28 1.187-1.28.329 0 .985.187 1.172 1.171.11.563.11 1.313.11 1.938 0 .75 0 1.421-.11 2.062-.156.953-.719 1.25-1.172 1.25zm0 0"/></symbol><symbol id="h" overflow="visible"><path d="m4.469-2c0-1.188-.813-2.188-1.89-2.188-.47 0-.907.157-1.267.516v-1.953c.204.063.532.125.844.125 1.235 0 1.938-.906 1.938-1.031 0-.063-.032-.11-.11-.11 0 0-.03 0-.078.032a3.22 3.22 0 0 1 -1.36.296 3.4 3.4 0 0 1 -1.327-.28c-.078-.032-.094-.032-.11-.032-.109 0-.109.078-.109.234v2.954c0 .171 0 .25.14.25.079 0 .094-.016.141-.079.11-.156.469-.703 1.282-.703.515 0 .765.453.843.64.156.376.188.75.188 1.25 0 .36 0 .954-.25 1.376-.235.39-.61.64-1.063.64-.719 0-1.297-.53-1.469-1.109.032 0 .063.016.172.016.329 0 .5-.25.5-.485 0-.25-.171-.5-.5-.5-.14 0-.484.079-.484.532 0 .859.688 1.828 1.797 1.828 1.156 0 2.172-.953 2.172-2.219zm0 0"/></symbol><symbol id="i" overflow="visible"><path d="m2.938-6.375c0-.25 0-.266-.235-.266-.625.641-1.5.641-1.812.641v.313c.203 0 .78 0 1.296-.266v5.172c0 .36-.03.469-.921.469h-.313v.312c.344-.031 1.203-.031 1.61-.031.39 0 1.265 0 1.609.031v-.313h-.313c-.906 0-.921-.109-.921-.468zm0 0"/></symbol><symbol id="j" overflow="visible"><path d="m3.297 2.39c0-.03 0-.046-.172-.218-1.234-1.25-1.563-3.14-1.563-4.672 0-1.734.375-3.469 1.61-4.703.125-.125.125-.14.125-.172 0-.078-.031-.11-.094-.11-.11 0-1 .688-1.594 1.954-.499 1.093-.625 2.203-.625 3.031 0 .781.11 1.984.657 3.125.609 1.219 1.453 1.875 1.562 1.875.063 0 .094-.031.094-.11zm0 0"/></symbol><symbol id="k" overflow="visible"><path d="m2.875-2.5c0-.766-.11-1.969-.656-3.11-.594-1.217-1.453-1.873-1.547-1.873a.107.107 0 0 0 -.11.109c0 .031 0 .047.188.234.984.985 1.547 2.563 1.547 4.641 0 1.719-.36 3.469-1.594 4.719-.14.125-.14.14-.14.172 0 .062.046.109.109.109.094 0 1-.688 1.578-1.953.516-1.094.625-2.203.625-3.047zm0 0"/></symbol><symbol id="l" overflow="visible"><path d="m1.906-.531a.534.534 0 0 0 -.515-.531.537.537 0 0 0 -.532.53.524.524 0 1 0 1.047 0zm0 0"/></symbol><symbol id="m" overflow="visible"><path d="m5.734-5.672c0-.75-.546-1.36-1.359-1.36-.578 0-.86.157-1.203.407-.547.406-1.094 1.375-1.282 2.125l-1.593 6.328c0 .047.047.11.125.11s.11-.032.11-.047l.702-2.766c.188.61.625.969 1.36.969.719 0 1.469-.344 1.922-.781a2.486 2.486 0 0 0 .796-1.829c0-.718-.375-1.25-.734-1.484.578-.344 1.156-.953 1.156-1.672zm-1.796 1.656c-.126.047-.235.063-.485.063-.14 0-.328.015-.437-.031.03-.11.39-.079.5-.079.203 0 .296 0 .421.047zm1.234-1.89c0 .703-.375 1.422-.89 1.734-.282-.11-.47-.125-.766-.125-.22 0-.782-.016-.782.313 0 .28.516.25.688.25.375 0 .531 0 .828-.125.375.359.422.671.438 1.125.015.578-.22 1.328-.5 1.718-.391.532-1.063.891-1.625.891-.766 0-1.141-.578-1.141-1.281 0-.094 0-.25.047-.438l.64-2.515c.22-.86.938-2.454 2.141-2.454.578 0 .922.313.922.907zm0 0"/></symbol><symbol id="n" overflow="visible"><path d="m2.969-2.25c.156 0 .344 0 .344-.172 0-.14-.126-.14-.297-.14h-1.61c.235-.844.797-1.422 1.703-1.422h.313c.172 0 .328 0 .328-.172 0-.14-.125-.14-.297-.14h-.36c-1.296 0-2.624 1-2.624 2.515 0 1.11.75 1.89 1.797 1.89.656 0 1.296-.406 1.296-.515 0-.016 0-.125-.093-.125-.016 0-.047 0-.125.047-.313.203-.688.375-1.047.375-.578 0-1.078-.422-1.078-1.297a3.8 3.8 0 0 1 .11-.844zm0 0"/></symbol><symbol id="o" overflow="visible"><path d="m2.297-3.5a6.05 6.05 0 0 0 .156-.64c0-.173-.125-.266-.297-.266-.015 0-.297.015-.39.36l-1.438 5.764c-.031.125-.031.14-.031.172 0 .14.11.265.281.265.203 0 .328-.187.344-.219.047-.078.172-.609.547-2.14.328.266.781.312.968.312.704 0 1.094-.453 1.329-.734a.904.904 0 0 0 .906.734c.344 0 .578-.234.734-.546.172-.36.297-.97.297-.985 0-.11-.094-.11-.125-.11-.094 0-.11.048-.14.188-.157.64-.344 1.235-.75 1.235-.266 0-.297-.266-.297-.454 0-.218.109-.687.187-1.046l.281-1.079c.032-.14.141-.515.172-.671.047-.235.157-.61.157-.672 0-.172-.141-.266-.297-.266-.047 0-.313.016-.391.344l-.469 1.875c-.11.5-.218.906-.25 1.015-.015.047-.484.954-1.297.954-.5 0-.734-.329-.734-.875 0-.282.063-.563.14-.844zm0 0"/></symbol><symbol id="p" overflow="visible"><path d="m.875-.594c-.031.156-.094.39-.094.438 0 .172.14.265.297.265a.414.414 0 0 0 .375-.28c0-.016.125-.485.188-.735l.218-.89c.047-.235.11-.454.172-.673.031-.172.11-.469.125-.5.14-.312.672-1.219 1.625-1.219.453 0 .531.375.531.704 0 .609-.484 1.89-.64 2.312-.094.234-.11.36-.11.469 0 .469.36.812.829.812.937 0 1.296-1.453 1.296-1.53 0-.11-.078-.11-.109-.11-.11 0-.11.031-.156.187-.203.672-.531 1.235-1.016 1.235-.172 0-.234-.094-.234-.329 0-.25.078-.484.172-.703.187-.53.61-1.625.61-2.203 0-.656-.423-1.062-1.141-1.062-.907 0-1.391.64-1.563.875-.047-.563-.453-.875-.922-.875-.453 0-.64.39-.734.562-.172.344-.297.938-.297.969 0 .11.094.11.11.11.109 0 .109-.016.171-.235.172-.703.375-1.188.735-1.188.187 0 .296.125.296.454 0 .218-.03.328-.156.843zm0 0"/></symbol><symbol id="q" overflow="visible"><path d="m.984-.422c0 .156 0 .203-.406.203h-.14v.219h2.359c.765 0 1.375-.422 1.375-.922 0-.36-.36-.765-1.172-.86.516-.077 1-.374 1-.765 0-.469-.625-.86-1.36-.86h-2.202v.22h.141c.406 0 .406.046.406.203zm.485-1.437v-1.141c0-.156 0-.188.25-.188h.89c.532 0 .844.329.844.641 0 .36-.437.688-.984.688zm.25 1.64c-.25 0-.25-.031-.25-.187v-1.281h1.187c.656 0 .953.437.953.765 0 .375-.421.703-1 .703zm0 0"/></symbol><symbol id="r" overflow="visible"><path d="m3.063-1.063c0-.625-.579-1.171-1.376-1.171-.78 0-1.359.546-1.359 1.171 0 .594.594 1.125 1.36 1.125.796 0 1.375-.53 1.375-1.125zm-1.376.938c-.859 0-.859-.75-.859-.984 0-.22 0-.954.86-.954.875 0 .875.735.875.954 0 .234 0 .984-.876.984zm0 0"/></symbol><symbol id="s" overflow="visible"><path d="m2.234-2.094c0-.078 0-.14-.093-.14-.016 0-.032 0-.079.03a.392.392 0 0 1 -.124.11c-.016 0-.016 0-.047-.031-.11-.063-.297-.11-.547-.11-.828 0-1 .376-1 .61 0 .469.578.563 1.047.625.28.047.75.125.75.453 0 .172-.157.438-.75.438-.344 0-.672-.125-.829-.657-.015-.093-.03-.109-.108-.109-.11 0-.11.047-.11.156v.64c0 .079 0 .142.079.142.047 0 .047-.016.14-.11l.141-.125c.25.219.563.234.688.234.828 0 .984-.437.984-.687 0-.234-.11-.39-.313-.516-.187-.125-.343-.14-.765-.203-.313-.047-.703-.11-.703-.375 0-.172.203-.36.734-.36.422 0 .656.157.688.5.015.079.015.11.109.11.11 0 .11-.031.11-.14zm0 0"/></symbol><symbol id="t" overflow="visible"><path d="m2.578-1.125c.11 0 .14 0 .14-.11 0-.343-.171-1-1.109-1-.75 0-1.28.547-1.28 1.141-.001.625.608 1.157 1.358 1.157.796 0 1.03-.563 1.03-.657 0-.078-.077-.078-.093-.078-.078 0-.094.016-.125.078-.125.344-.5.469-.781.469a.89.89 0 0 1 -.703-.313c-.187-.233-.187-.546-.187-.687zm-1.75-.156c.063-.657.547-.782.781-.782.688 0 .735.641.735.782zm0 0"/></symbol><symbol id="u" overflow="visible"><path d="m1.86-.875v-.39h-1.658v.39zm0 0"/></symbol><symbol id="v" overflow="visible"><path d="m4.172-1.344h-.219c-.14.813-.328 1.125-1.281 1.125h-.938c-.234 0-.234-.031-.234-.187v-1.235h.578c.5 0 .64.094.64.579h.204v-1.391h-.203c0 .484-.14.594-.64.594h-.579v-1.11c0-.156 0-.203.234-.203h.891c.828 0 1.047.203 1.156.969h.219l-.172-1.188h-3.422v.22h.156c.407 0 .407.062.407.218v2.531c0 .156 0 .203-.406.203h-.158v.219h3.516zm0 0"/></symbol><symbol id="w" overflow="visible"><path d="m1.266-3.078c0-.156-.141-.297-.313-.297a.297.297 0 0 0 -.297.297.3.3 0 0 0 .297.312c.172 0 .313-.14.313-.312zm-.829.937v.22c.344 0 .391.03.391.265v1.234c0 .156 0 .203-.328.203h-.094v.219c.219-.016.422-.016.625-.016.188 0 .407 0 .594.016v-.219c-.328 0-.375 0-.375-.203v-1.781zm0 0"/></symbol><symbol id="x" overflow="visible"><path d="m2.984-1.5c0-.547-.375-.703-.828-.703-.531 0-.812.297-.937.484v-.484l-.813.062v.22c.375 0 .422.03.422.265v1.234c0 .156 0 .203-.328.203h-.094v.219c.219-.016.422-.016.64-.016.204 0 .423 0 .641.016v-.219h-.093c-.328 0-.328-.047-.328-.203v-.86c0-.562.515-.75.828-.75.375 0 .453.204.453.516v1.094c0 .156 0 .203-.328.203h-.079v.219c.203-.016.421-.016.625-.016.218 0 .421 0 .64.016v-.219h-.094c-.328 0-.328-.047-.328-.203zm0 0"/></symbol><symbol id="y" overflow="visible"><path d="m1.219-1.922h.89v-.219h-.89v-.921h-.203c0 .468-.25.953-.766.968v.172h.531v1.297c0 .563.469.688.781.688.375 0 .657-.282.657-.688v-.281h-.219v.265c0 .375-.219.516-.39.516-.391 0-.391-.39-.391-.5zm0 0"/></symbol><symbol id="z" overflow="visible"><path d="m1.25-3.453-.844.047v.219c.375 0 .422.03.422.28v2.485c0 .156 0 .203-.328.203h-.094v.219c.219-.016.422-.016.625-.016.219 0 .422 0 .64.016v-.219h-.093c-.328 0-.328-.047-.328-.203zm0 0"/></symbol><symbol id="A" overflow="visible"><path d="m2.563-1.953c.046-.047.062-.063.062-.094 0-.094-.063-.094-.156-.094h-2l-.063.844h.204c.032-.547.204-.687.782-.687h.64l-1.657 1.78c-.063.048-.063.048-.063.11.001.094.064.094.158.094h2.078l.094-.984h-.204c-.062.562-.156.812-.859.812h-.673zm0 0"/></symbol><symbol id="B" overflow="visible"><path d="m4.719-1.5c0-.625-.469-.703-.828-.703-.5 0-.782.25-.922.469-.125-.47-.625-.47-.813-.47-.515 0-.812.282-.937.485v-.484l-.813.062v.22c.375 0 .422.03.422.265v1.234c0 .156 0 .203-.328.203h-.094v.219c.219-.016.422-.016.64-.016.204 0 .423 0 .641.016v-.219h-.093c-.328 0-.328-.047-.328-.203v-.86c0-.562.515-.75.828-.75.375 0 .453.204.453.516v1.094c0 .156 0 .203-.313.203h-.093v.219c.218-.016.421-.016.64-.016.203 0 .422 0 .625.016v-.219h-.094c-.312 0-.312-.047-.312-.203v-.86c0-.562.5-.75.828-.75.36 0 .453.204.453.516v1.094c0 .156 0 .203-.328.203h-.078v.219c.203-.016.422-.016.625-.016.219 0 .422 0 .64.016v-.219h-.093c-.328 0-.328-.047-.328-.203zm0 0"/></symbol><symbol id="C" overflow="visible"><path d="m2.61-1.484c0-.47-.5-.75-1.126-.75-.296 0-.875.015-.875.437 0 .188.141.266.266.266s.25-.094.25-.266a.269.269 0 0 0 -.11-.219c.173-.046.407-.046.454-.046.437 0 .687.234.687.593v.125c-.469.016-.75.032-1.125.172-.328.11-.625.328-.625.656 0 .454.578.579.985.579.375 0 .671-.157.828-.422.031.187.14.39.39.39.032 0 .61 0 .61-.484v-.267h-.219v.266c0 .047 0 .266-.188.266-.203 0-.203-.22-.203-.266zm-.454.78c0 .548-.594.595-.719.595-.296 0-.562-.157-.562-.407 0-.171.094-.625 1.281-.687zm0 0"/></symbol><symbol id="D" overflow="visible"><path d="m3.75-3.39h-3.344v.218h.156c.407 0 .407.063.407.219v2.531c0 .156 0 .203-.406.203h-.158v.219c.266-.016.547-.016.844-.016s.656 0 .938.016v-.219h-.22c-.467 0-.467-.047-.467-.203v-1.156h.547c.5 0 .625.11.625.578h.219v-1.39h-.22c0 .468-.124.593-.624.593h-.547v-1.172c0-.156 0-.203.234-.203h.829c.796 0 1.03.203 1.14.969h.203zm0 0"/></symbol><symbol id="E" overflow="visible"><path d="m1.219-1.11c0-.468.265-.921.734-.921 0 0-.062.062-.062.172 0 .171.14.25.25.25.125 0 .25-.079.25-.25 0-.188-.188-.344-.454-.344-.25 0-.562.125-.75.547h-.015v-.547l-.797.062v.22c.375 0 .422.03.422.265v1.234c0 .156 0 .203-.328.203h-.094v.219c.219-.016.438-.016.64-.016.266 0 .516 0 .72.016v-.219h-.141c-.375 0-.375-.047-.375-.203zm0 0"/></symbol><symbol id="F" overflow="visible"><path d="m.984-.438c0 .126 0 .188-.187.204-.11.014-.267.014-.375.014v.22h2.187c1.063 0 1.907-.75 1.907-1.672 0-.937-.829-1.734-1.907-1.734h-2.187v.219c.125 0 .266 0 .375.015.187.016.187.078.187.203zm.75.22c-.25 0-.25-.032-.25-.204v-2.562c0-.172 0-.204.25-.204h.735c.594 0 .953.25 1.078.376.187.187.406.484.406 1.14 0 .438-.094.797-.39 1.078-.157.156-.516.375-1.094.375zm0 0"/></symbol><symbol id="G" overflow="visible"><path d="m2.234-2.016c-.062.063-.109.141-.109.22 0 .171.125.265.266.265.125 0 .265-.078.265-.266 0-.422-.547-.437-.906-.437-.969 0-1.39.656-1.39 1.156 0 .625.578 1.14 1.328 1.14.875 0 1.03-.609 1.03-.656 0-.078-.062-.078-.093-.078-.078 0-.094.016-.11.078-.171.422-.53.469-.75.469-.437 0-.906-.281-.906-.953 0-.219.047-.5.235-.703.234-.266.531-.266.687-.266.14 0 .282 0 .453.031zm0 0"/></symbol><clipPath id="H"><path d="m234 95h5.438v5h-5.438zm0 0"/></clipPath><clipPath id="I"><path d="m113 .398h126.043v96.903h-126.043zm0 0"/></clipPath><clipPath id="J"><path d="m91 .398h148.043v96.903h-148.043zm0 0"/></clipPath><clipPath id="K"><path d="m.398 32h238.645v65.3h-238.645zm0 0"/></clipPath><path d="m17.047-2.126v4.25m34.09-4.25v4.25m34.094-4.25v4.25m68.184-4.25v4.25m34.09-4.25v4.25m34.093-4.25v4.25m-104.402 24.793h4.254m-4.254 26.918h4.254m-4.254 26.918h4.254m-121.45-80.753h236.051" fill="none" stroke="#000" stroke-miterlimit="10" stroke-width=".79701" transform="matrix(1 0 0 -1 .398 97.3)"/><g clip-path="url(#H)"><path d="m239.043 97.3-4.145-2.073 1.551 2.074-1.55 2.07"/></g><path d="m119.32 0v94.312" fill="none" stroke="#000" stroke-miterlimit="10" stroke-width=".79701" transform="matrix(1 0 0 -1 .398 97.3)"/><path d="m119.719.398-2.07 4.145 2.07-1.555 2.074 1.555"/><use x="11.079" xlink:href="#a" y="109.565"/><use x="18.828" xlink:href="#d" y="109.565"/><use x="45.171" xlink:href="#a" y="109.565"/><use x="52.919" xlink:href="#e" y="109.565"/><use x="79.262" xlink:href="#a" y="109.565"/><use x="87.011" xlink:href="#f" y="109.565"/><use x="151.32" xlink:href="#f" y="109.565"/><use x="185.411" xlink:href="#e" y="109.565"/><use x="219.503" xlink:href="#d" y="109.565"/><use x="101.144" xlink:href="#g" y="73.593"/><use x="106.125" xlink:href="#l" y="73.593"/><use x="108.893" xlink:href="#h" y="73.593"/><use x="108.893" xlink:href="#i" y="46.676"/><use x="101.144" xlink:href="#i" y="19.759"/><use x="106.125" xlink:href="#l" y="19.759"/><use x="108.893" xlink:href="#h" y="19.759"/><g clip-path="url(#I)"><path d="m124.293 158.991s3.594-74.289 4.973-91.007c1.379-16.72 3.59-23.438 4.973-29.493 1.379-6.054 3.59-11.066 4.968-14.14 1.38-3.078 3.594-6.223 4.973-8.028 1.379-1.808 3.594-3.847 4.973-5 1.379-1.148 3.59-2.523 4.972-3.293 1.38-.765 3.59-1.718 4.97-2.25 1.378-.53 3.593-1.199 4.972-1.574s3.594-.855 4.972-1.125c1.38-.27 3.59-.617 4.973-.812 1.38-.196 3.59-.45 4.973-.594 1.379-.14 3.59-.328 4.969-.434a353.88 353.88 0 0 1 4.972-.32c1.38-.074 3.59-.176 4.973-.234a523.845 523.845 0 0 1 9.941-.305c1.38-.031 3.594-.074 4.973-.098 1.379-.023 3.594-.054 4.973-.074 1.379-.015 3.59-.039 4.968-.05 1.383-.016 3.594-.032 4.973-.044l4.973-.026c1.379-.008 3.593-.02 4.972-.023l4.97-.016" fill="none" stroke="#00f" stroke-miterlimit="10" stroke-width=".79701" transform="matrix(1 0 0 -1 .398 97.3)"/></g><g clip-path="url(#J)"><path d="m102.278 146.343s4.101-31.629 5.68-41.512c1.578-9.883 4.105-22.633 5.683-29.71 1.574-7.075 4.106-16.216 5.68-21.286 1.578-5.07 4.105-11.625 5.683-15.258 1.578-3.636 4.106-8.332 5.684-10.937 1.574-2.602 4.102-5.969 5.68-7.832 1.578-1.867 4.105-4.278 5.683-5.613 1.574-1.34 4.106-3.067 5.68-4.024 1.578-.96 4.105-2.2 5.684-2.883 1.574-.687 4.105-1.574 5.68-2.066 1.577-.492 4.105-1.129 5.683-1.48 1.578-.352 4.105-.81 5.683-1.063 1.575-.25 4.106-.578 5.68-.758a214.07 214.07 0 0 1 5.684-.543c1.574-.133 4.105-.3 5.68-.39a395.24 395.24 0 0 1 5.683-.282 548.49 548.49 0 0 1 5.684-.199c1.574-.047 4.101-.11 5.68-.145a919.27 919.27 0 0 1 5.683-.101c1.574-.027 4.105-.059 5.68-.074 1.578-.02 4.105-.04 5.683-.055 1.574-.012 4.106-.027 5.684-.035 1.574-.012 4.101-.024 5.68-.027 1.578-.008 5.683-.02 5.683-.02" fill="none" stroke="#ff8000" stroke-miterlimit="10" stroke-width=".79701" transform="matrix(1 0 0 -1 .398 97.3)"/></g><g clip-path="url(#K)"><path d="m0 53.784s7.184-.023 9.942-.039c2.762-.011 7.187-.043 9.945-.066 2.758-.027 7.184-.078 9.942-.125a842.77 842.77 0 0 0 9.945-.223c2.758-.082 7.183-.238 9.941-.386 2.762-.153 7.188-.43 9.946-.688 2.757-.262 7.183-.746 9.945-1.187 2.758-.442 7.184-1.274 9.941-1.997 2.758-.718 7.184-2.093 9.946-3.207 2.757-1.113 7.183-3.246 9.941-4.816 2.762-1.57 7.184-4.54 9.945-6.5 2.758-1.96 7.184-5.516 9.942-7.637 2.758-2.117 7.183-5.672 9.945-7.629 2.758-1.96 7.184-4.93 9.941-6.5 2.758-1.57 7.184-3.699 9.946-4.812 2.758-1.113 7.183-2.488 9.941-3.211 2.762-.723 7.184-1.555 9.946-1.996 2.757-.442 7.183-.926 9.94-1.188 2.763-.257 7.185-.535 9.946-.683 2.758-.153 7.184-.309 9.942-.39 2.761-.087 7.183-.177 9.945-.224 2.758-.046 7.184-.097 9.941-.125 2.762-.023 7.188-.05 9.946-.066 2.757-.016 9.94-.039 9.94-.039" fill="none" stroke="#f00" stroke-miterlimit="10" stroke-width=".79701" transform="matrix(1 0 0 -1 .398 97.3)"/></g><use x="199.187" xlink:href="#m" y="91.09"/><use x="205.348" xlink:href="#j" y="91.09"/><use x="209.222" xlink:href="#n" y="91.09"/><use x="215.48" xlink:href="#a" y="91.09"/><use x="225.443" xlink:href="#o" y="91.09"/><use x="231.446" xlink:href="#k" y="91.09"/><use x="123.438" xlink:href="#b" y="11.589"/><use x="127.312" xlink:href="#p" y="11.589"/><use x="133.292" xlink:href="#c" y="11.589"/><path d="m162.7 62.94h68.386v30.657h-68.386zm0 0" fill="#fff" stroke="#000" stroke-miterlimit="10" stroke-width=".79701" transform="matrix(1 0 0 -1 .398 97.3)"/><path d="m-.002 0h17.012" fill="none" stroke="#00f" stroke-miterlimit="10" stroke-width=".79701" transform="matrix(1 0 0 -1 166.482 10.129)"/><g><use x="185.881" xlink:href="#q" y="11.075"/><use x="190.537" xlink:href="#r" y="11.075"/><use x="193.927" xlink:href="#s" y="11.075"/><use x="196.66" xlink:href="#t" y="11.075"/><use x="199.704" xlink:href="#u" y="11.075"/><use x="202.056" xlink:href="#v" y="11.075"/><use x="206.539" xlink:href="#w" y="11.075"/><use x="208.546" xlink:href="#x" y="11.075"/><use x="212.282" xlink:href="#s" y="11.075"/><use x="215.015" xlink:href="#y" y="11.075"/><use x="217.713" xlink:href="#t" y="11.075"/><use x="220.757" xlink:href="#w" y="11.075"/><use x="222.764" xlink:href="#x" y="11.075"/></g><path d="m-.002 0h17.012" fill="none" stroke="#ff8000" stroke-miterlimit="10" stroke-width=".79701" transform="matrix(1 0 0 -1 166.482 19.031)"/><g><use x="185.881" xlink:href="#q" y="20.014"/><use x="190.537" xlink:href="#r" y="20.014"/><use x="193.927" xlink:href="#z" y="20.014"/><use x="195.934" xlink:href="#y" y="20.014"/><use x="198.632" xlink:href="#A" y="20.014"/><use x="201.676" xlink:href="#B" y="20.014"/><use x="207.142" xlink:href="#C" y="20.014"/><use x="210.532" xlink:href="#x" y="20.014"/><use x="214.268" xlink:href="#x" y="20.014"/></g><path d="m-.002 0h17.012" fill="none" stroke="#f00" stroke-miterlimit="10" stroke-width=".79701" transform="matrix(1 0 0 -1 166.482 27.933)"/><use x="185.881" xlink:href="#D" y="28.879"/><g><use x="189.673" xlink:href="#t" y="28.879"/><use x="192.717" xlink:href="#E" y="28.879"/><use x="195.416" xlink:href="#B" y="28.879"/><use x="200.881" xlink:href="#w" y="28.879"/><use x="202.888" xlink:href="#u" y="28.879"/><use x="205.24" xlink:href="#F" y="28.879"/><use x="210.242" xlink:href="#w" y="28.879"/><use x="212.249" xlink:href="#E" y="28.879"/><use x="214.947" xlink:href="#C" y="28.879"/><use x="218.337" xlink:href="#G" y="28.879"/></g></svg>