<svg xmlns="http://www.w3.org/2000/svg" xmlns:xlink="http://www.w3.org/1999/xlink" width="319.251" height="151.621" viewBox="0 0 239.438 113.716"><defs><symbol overflow="visible" id="b"><path style="stroke:none" d="M6.563-2.297c.171 0 .359 0 .359-.203 0-.188-.188-.188-.36-.188h-5.39c-.172 0-.344 0-.344.188 0 .203.172.203.344.203Zm0 0"/></symbol><symbol overflow="visible" id="r"><path style="stroke:none" d="M3.266-7.094c.046-.11.046-.14.046-.187 0-.11-.078-.203-.187-.203-.094 0-.172.062-.234.234L1.14-2.672c-.016.063-.047.125-.047.172 0 .031 0 .063.047.172L2.89 2.25c.046.11.093.25.234.25.11 0 .188-.094.188-.203 0-.031 0-.047-.047-.156L1.5-2.5Zm0 0"/></symbol><symbol overflow="visible" id="t"><path style="stroke:none" d="M2.719-2.328c.047-.11.047-.14.047-.172 0-.016 0-.047-.047-.156L.984-7.25C.922-7.422.86-7.484.75-7.484a.207.207 0 0 0-.203.203c0 .031 0 .047.047.156L2.359-2.5.594 2.11c-.047.109-.047.14-.047.187 0 .11.094.203.203.203.125 0 .172-.11.203-.203Zm0 0"/></symbol><symbol overflow="visible" id="c"><path style="stroke:none" d="M1.313-3.266v-.25c0-2.515 1.234-2.875 1.75-2.875.234 0 .656.063.874.407-.156 0-.546 0-.546.437 0 .313.234.469.453.469.156 0 .469-.094.469-.484 0-.594-.438-1.079-1.266-1.079C1.766-6.64.422-5.359.422-3.156.422-.484 1.578.219 2.5.219c1.11 0 2.063-.938 2.063-2.25 0-1.266-.891-2.219-2-2.219-.672 0-1.047.5-1.25.984ZM2.5-.062c-.625 0-.922-.594-.984-.75-.188-.47-.188-1.266-.188-1.438 0-.781.328-1.781 1.219-1.781.172 0 .625 0 .937.625.172.36.172.875.172 1.36 0 .483 0 .983-.172 1.343-.296.594-.75.64-.984.64Zm0 0"/></symbol><symbol overflow="visible" id="d"><path style="stroke:none" d="M2.938-1.64v.859c0 .36-.032.469-.766.469h-.203V0c.406-.031.922-.031 1.343-.031.422 0 .938 0 1.36.031v-.313h-.219c-.734 0-.75-.109-.75-.468v-.86h.985v-.312h-.985v-4.531c0-.204 0-.266-.172-.266-.078 0-.11 0-.187.125L.28-1.953v.312Zm.046-.313H.563l2.421-3.719Zm0 0"/></symbol><symbol overflow="visible" id="e"><path style="stroke:none" d="m1.266-.766 1.062-1.03c1.547-1.376 2.14-1.907 2.14-2.907 0-1.14-.89-1.938-2.109-1.938A1.843 1.843 0 0 0 .5-4.828c0 .547.5.547.531.547.172 0 .516-.11.516-.532a.513.513 0 0 0-.531-.515c-.079 0-.094 0-.125.016.218-.657.765-1.016 1.343-1.016.907 0 1.329.812 1.329 1.625 0 .797-.485 1.578-1.047 2.203L.609-.375C.5-.265.5-.235.5 0h3.703l.266-1.734h-.235C4.172-1.438 4.11-1 4-.844c-.063.078-.719.078-.938.078Zm0 0"/></symbol><symbol overflow="visible" id="f"><path style="stroke:none" d="M4.578-3.188c0-.796-.047-1.593-.39-2.328C3.733-6.484 2.905-6.64 2.5-6.64c-.61 0-1.328.266-1.75 1.188-.313.687-.36 1.469-.36 2.266 0 .75.032 1.64.454 2.406a1.83 1.83 0 0 0 1.64 1c.532 0 1.297-.203 1.735-1.157.312-.687.36-1.468.36-2.25ZM2.484 0c-.39 0-.984-.25-1.156-1.203-.11-.594-.11-1.516-.11-2.11 0-.64 0-1.296.079-1.828.187-1.187.937-1.28 1.187-1.28.329 0 .985.187 1.172 1.171.11.563.11 1.313.11 1.938 0 .75 0 1.421-.11 2.062C3.5-.297 2.937 0 2.484 0Zm0 0"/></symbol><symbol overflow="visible" id="h"><path style="stroke:none" d="M4.469-2c0-1.188-.813-2.188-1.89-2.188-.47 0-.907.157-1.267.516v-1.953c.204.063.532.125.844.125 1.235 0 1.938-.906 1.938-1.031 0-.063-.032-.11-.11-.11 0 0-.03 0-.078.032a3.22 3.22 0 0 1-1.36.296 3.4 3.4 0 0 1-1.327-.28c-.078-.032-.094-.032-.11-.032C1-6.625 1-6.547 1-6.391v2.954c0 .171 0 .25.14.25.079 0 .094-.016.141-.079.11-.156.469-.703 1.282-.703.515 0 .765.453.843.64.156.376.188.75.188 1.25 0 .36 0 .954-.25 1.376-.235.39-.61.64-1.063.64-.719 0-1.297-.53-1.469-1.109.032 0 .063.016.172.016.329 0 .5-.25.5-.485 0-.25-.171-.5-.5-.5-.14 0-.484.079-.484.532C.5-.75 1.188.219 2.297.219 3.453.219 4.469-.734 4.469-2Zm0 0"/></symbol><symbol overflow="visible" id="i"><path style="stroke:none" d="M2.938-6.375c0-.25 0-.266-.235-.266C2.078-6 1.203-6 .891-6v.313c.203 0 .78 0 1.296-.266v5.172c0 .36-.03.469-.921.469H.953V0c.344-.031 1.203-.031 1.61-.031.39 0 1.265 0 1.609.031v-.313h-.313c-.906 0-.921-.109-.921-.468Zm0 0"/></symbol><symbol overflow="visible" id="n"><path style="stroke:none" d="M3.297 2.39c0-.03 0-.046-.172-.218C1.891.922 1.562-.968 1.562-2.5c0-1.734.375-3.469 1.61-4.703.125-.125.125-.14.125-.172 0-.078-.031-.11-.094-.11-.11 0-1 .688-1.594 1.954C1.11-4.438.984-3.328.984-2.5c0 .781.11 1.984.657 3.125C2.25 1.844 3.094 2.5 3.203 2.5c.063 0 .094-.031.094-.11Zm0 0"/></symbol><symbol overflow="visible" id="q"><path style="stroke:none" d="M2.875-2.5c0-.766-.11-1.969-.656-3.11C1.625-6.827.766-7.483.672-7.483a.107.107 0 0 0-.11.109c0 .031 0 .047.188.234.984.985 1.547 2.563 1.547 4.641C2.297-.78 1.937.97.703 2.22c-.14.125-.14.14-.14.172 0 .062.046.109.109.109.094 0 1-.688 1.578-1.953.516-1.094.625-2.203.625-3.047Zm0 0"/></symbol><symbol overflow="visible" id="g"><path style="stroke:none" d="M1.906-.531a.534.534 0 0 0-.515-.531.537.537 0 0 0-.532.53.524.524 0 1 0 1.047 0Zm0 0"/></symbol><symbol overflow="visible" id="m"><path style="stroke:none" d="M5.734-5.672c0-.75-.546-1.36-1.359-1.36-.578 0-.86.157-1.203.407C2.625-6.219 2.078-5.25 1.89-4.5L.297 1.828c0 .047.047.11.125.11s.11-.032.11-.047l.702-2.766c.188.61.625.969 1.36.969.719 0 1.469-.344 1.922-.781a2.486 2.486 0 0 0 .796-1.829c0-.718-.375-1.25-.734-1.484.578-.344 1.156-.953 1.156-1.672ZM3.938-4.016c-.126.047-.235.063-.485.063-.14 0-.328.015-.437-.031.03-.11.39-.079.5-.079.203 0 .296 0 .421.047Zm1.234-1.89c0 .703-.375 1.422-.89 1.734-.282-.11-.47-.125-.766-.125-.22 0-.782-.016-.782.313 0 .28.516.25.688.25.375 0 .531 0 .828-.125.375.359.422.671.438 1.125.015.578-.22 1.328-.5 1.718-.391.532-1.063.891-1.625.891-.766 0-1.141-.578-1.141-1.281 0-.094 0-.25.047-.438l.64-2.515c.22-.86.938-2.454 2.141-2.454.578 0 .922.313.922.907Zm0 0"/></symbol><symbol overflow="visible" id="o"><path style="stroke:none" d="M2.969-2.25c.156 0 .344 0 .344-.172 0-.14-.126-.14-.297-.14h-1.61c.235-.844.797-1.422 1.703-1.422h.313c.172 0 .328 0 .328-.172 0-.14-.125-.14-.297-.14h-.36c-1.296 0-2.624 1-2.624 2.515 0 1.11.75 1.89 1.797 1.89.656 0 1.296-.406 1.296-.515 0-.016 0-.125-.093-.125-.016 0-.047 0-.125.047-.313.203-.688.375-1.047.375-.578 0-1.078-.422-1.078-1.297a3.8 3.8 0 0 1 .11-.844Zm0 0"/></symbol><symbol overflow="visible" id="p"><path style="stroke:none" d="M2.297-3.5a6.05 6.05 0 0 0 .156-.64c0-.173-.125-.266-.297-.266-.015 0-.297.015-.39.36L.328 1.718c-.031.125-.031.14-.031.172 0 .14.11.265.281.265.203 0 .328-.187.344-.219.047-.078.172-.609.547-2.14.328.266.781.312.968.312.704 0 1.094-.453 1.329-.734a.904.904 0 0 0 .906.734c.344 0 .578-.234.734-.546.172-.36.297-.97.297-.985 0-.11-.094-.11-.125-.11-.094 0-.11.048-.14.188-.157.64-.344 1.235-.75 1.235-.266 0-.297-.266-.297-.454 0-.218.109-.687.187-1.046l.281-1.079c.032-.14.141-.515.172-.671.047-.235.157-.61.157-.672 0-.172-.141-.266-.297-.266-.047 0-.313.016-.391.344l-.469 1.875c-.11.5-.218.906-.25 1.015-.015.047-.484.954-1.297.954-.5 0-.734-.329-.734-.875 0-.282.063-.563.14-.844Zm0 0"/></symbol><symbol overflow="visible" id="s"><path style="stroke:none" d="M.875-.594c-.031.156-.094.39-.094.438 0 .172.14.265.297.265a.414.414 0 0 0 .375-.28c0-.016.125-.485.188-.735l.218-.89c.047-.235.11-.454.172-.673.031-.172.11-.469.125-.5.14-.312.672-1.219 1.625-1.219.453 0 .531.375.531.704 0 .609-.484 1.89-.64 2.312-.094.234-.11.36-.11.469 0 .469.36.812.829.812.937 0 1.296-1.453 1.296-1.53 0-.11-.078-.11-.109-.11-.11 0-.11.031-.156.187-.203.672-.531 1.235-1.016 1.235-.172 0-.234-.094-.234-.329 0-.25.078-.484.172-.703.187-.53.61-1.625.61-2.203 0-.656-.423-1.062-1.141-1.062-.907 0-1.391.64-1.563.875-.047-.563-.453-.875-.922-.875-.453 0-.64.39-.734.562-.172.344-.297.938-.297.969 0 .11.094.11.11.11.109 0 .109-.016.171-.235.172-.703.375-1.188.735-1.188.187 0 .296.125.296.454 0 .218-.03.328-.156.843Zm0 0"/></symbol><symbol overflow="visible" id="u"><path style="stroke:none" d="M.984-.422c0 .156 0 .203-.406.203h-.14V0h2.359c.765 0 1.375-.422 1.375-.922 0-.36-.36-.765-1.172-.86.516-.077 1-.374 1-.765 0-.469-.625-.86-1.36-.86H.438v.22h.141c.406 0 .406.046.406.203Zm.485-1.437V-3c0-.156 0-.188.25-.188h.89c.532 0 .844.329.844.641 0 .36-.437.688-.984.688Zm.25 1.64c-.25 0-.25-.031-.25-.187v-1.281h1.187c.656 0 .953.437.953.765 0 .375-.421.703-1 .703Zm0 0"/></symbol><symbol overflow="visible" id="v"><path style="stroke:none" d="M3.063-1.063c0-.625-.579-1.171-1.376-1.171-.78 0-1.359.546-1.359 1.171 0 .594.594 1.125 1.36 1.125.796 0 1.375-.53 1.375-1.125Zm-1.376.938c-.859 0-.859-.75-.859-.984 0-.22 0-.954.86-.954.875 0 .875.735.875.954 0 .234 0 .984-.876.984Zm0 0"/></symbol><symbol overflow="visible" id="w"><path style="stroke:none" d="M2.234-2.094c0-.078 0-.14-.093-.14-.016 0-.032 0-.079.03a.392.392 0 0 1-.124.11c-.016 0-.016 0-.047-.031-.11-.063-.297-.11-.547-.11-.828 0-1 .376-1 .61 0 .469.578.563 1.047.625.28.047.75.125.75.453 0 .172-.157.438-.75.438-.344 0-.672-.125-.829-.657C.547-.859.532-.875.454-.875c-.11 0-.11.047-.11.156v.64c0 .079 0 .142.079.142.047 0 .047-.016.14-.11l.141-.125c.25.219.563.234.688.234.828 0 .984-.437.984-.687 0-.234-.11-.39-.313-.516-.187-.125-.343-.14-.765-.203-.313-.047-.703-.11-.703-.375 0-.172.203-.36.734-.36.422 0 .656.157.688.5.015.079.015.11.109.11.11 0 .11-.031.11-.14Zm0 0"/></symbol><symbol overflow="visible" id="x"><path style="stroke:none" d="M2.578-1.125c.11 0 .14 0 .14-.11 0-.343-.171-1-1.109-1-.75 0-1.28.547-1.28 1.141C.328-.469.937.063 1.687.063c.796 0 1.03-.563 1.03-.657 0-.078-.077-.078-.093-.078-.078 0-.094.016-.125.078-.125.344-.5.469-.781.469a.89.89 0 0 1-.703-.313C.828-.671.828-.984.828-1.125Zm-1.75-.156c.063-.657.547-.782.781-.782.688 0 .735.641.735.782Zm0 0"/></symbol><symbol overflow="visible" id="y"><path style="stroke:none" d="M1.86-.875v-.39H.202v.39Zm0 0"/></symbol><symbol overflow="visible" id="z"><path style="stroke:none" d="M4.172-1.344h-.219c-.14.813-.328 1.125-1.281 1.125h-.938C1.5-.219 1.5-.25 1.5-.406v-1.235h.578c.5 0 .64.094.64.579h.204v-1.391h-.203c0 .484-.14.594-.64.594H1.5v-1.11c0-.156 0-.203.234-.203h.891c.828 0 1.047.203 1.156.969H4l-.172-1.188H.406v.22h.156c.407 0 .407.062.407.218v2.531c0 .156 0 .203-.406.203H.405V0h3.516Zm0 0"/></symbol><symbol overflow="visible" id="A"><path style="stroke:none" d="M1.266-3.078c0-.156-.141-.297-.313-.297a.297.297 0 0 0-.297.297.3.3 0 0 0 .297.312c.172 0 .313-.14.313-.312Zm-.829.937v.22c.344 0 .391.03.391.265v1.234c0 .156 0 .203-.328.203H.406V0c.219-.016.422-.016.625-.016.188 0 .407 0 .594.016v-.219c-.328 0-.375 0-.375-.203v-1.781Zm0 0"/></symbol><symbol overflow="visible" id="B"><path style="stroke:none" d="M2.984-1.5c0-.547-.375-.703-.828-.703-.531 0-.812.297-.937.484v-.484l-.813.062v.22c.375 0 .422.03.422.265v1.234c0 .156 0 .203-.328.203H.406V0c.219-.016.422-.016.64-.016.204 0 .423 0 .641.016v-.219h-.093c-.328 0-.328-.047-.328-.203v-.86c0-.562.515-.75.828-.75.375 0 .453.204.453.516v1.094c0 .156 0 .203-.328.203H2.14V0c.203-.016.421-.016.625-.016.218 0 .421 0 .64.016v-.219h-.094c-.328 0-.328-.047-.328-.203Zm0 0"/></symbol><symbol overflow="visible" id="C"><path style="stroke:none" d="M1.219-1.922h.89v-.219h-.89v-.921h-.203c0 .468-.25.953-.766.968v.172h.531v1.297c0 .563.469.688.781.688.375 0 .657-.282.657-.688v-.281H2v.265c0 .375-.219.516-.39.516-.391 0-.391-.39-.391-.5Zm0 0"/></symbol><symbol overflow="visible" id="D"><path style="stroke:none" d="m1.25-3.453-.844.047v.219c.375 0 .422.03.422.28v2.485c0 .156 0 .203-.328.203H.406V0c.219-.016.422-.016.625-.016.219 0 .422 0 .64.016v-.219h-.093c-.328 0-.328-.047-.328-.203Zm0 0"/></symbol><symbol overflow="visible" id="E"><path style="stroke:none" d="M2.563-1.953c.046-.047.062-.063.062-.094 0-.094-.063-.094-.156-.094h-2l-.063.844H.61c.032-.547.204-.687.782-.687h.64L.375-.204c-.063.048-.063.048-.063.11C.313 0 .376 0 .47 0h2.078l.094-.984h-.204c-.062.562-.156.812-.859.812H.906Zm0 0"/></symbol><symbol overflow="visible" id="F"><path style="stroke:none" d="M4.719-1.5c0-.625-.469-.703-.828-.703-.5 0-.782.25-.922.469-.125-.47-.625-.47-.813-.47-.515 0-.812.282-.937.485v-.484l-.813.062v.22c.375 0 .422.03.422.265v1.234c0 .156 0 .203-.328.203H.406V0c.219-.016.422-.016.64-.016.204 0 .423 0 .641.016v-.219h-.093c-.328 0-.328-.047-.328-.203v-.86c0-.562.515-.75.828-.75.375 0 .453.204.453.516v1.094c0 .156 0 .203-.313.203h-.093V0c.218-.016.421-.016.64-.016.203 0 .422 0 .625.016v-.219h-.094C3-.219 3-.266 3-.422v-.86c0-.562.5-.75.828-.75.36 0 .453.204.453.516v1.094c0 .156 0 .203-.328.203h-.078V0c.203-.016.422-.016.625-.016.219 0 .422 0 .64.016v-.219h-.093c-.328 0-.328-.047-.328-.203Zm0 0"/></symbol><symbol overflow="visible" id="G"><path style="stroke:none" d="M2.61-1.484c0-.47-.5-.75-1.126-.75-.296 0-.875.015-.875.437 0 .188.141.266.266.266.125 0 .25-.094.25-.266a.269.269 0 0 0-.11-.219c.173-.046.407-.046.454-.046.437 0 .687.234.687.593v.125c-.469.016-.75.032-1.125.172-.328.11-.625.328-.625.656 0 .454.578.579.985.579.375 0 .671-.157.828-.422.031.187.14.39.39.39.032 0 .61 0 .61-.484V-.72H3v.266c0 .047 0 .266-.188.266-.203 0-.203-.22-.203-.266Zm-.454.78c0 .548-.594.595-.719.595-.296 0-.562-.157-.562-.407 0-.171.094-.625 1.281-.687Zm0 0"/></symbol><symbol overflow="visible" id="H"><path style="stroke:none" d="M3.75-3.39H.406v.218h.156c.407 0 .407.063.407.219v2.531c0 .156 0 .203-.406.203H.405V0c.266-.016.547-.016.844-.016.297 0 .656 0 .938.016v-.219h-.22C1.5-.219 1.5-.266 1.5-.422v-1.156h.547c.5 0 .625.11.625.578h.219v-1.39h-.22c0 .468-.124.593-.624.593H1.5v-1.172c0-.156 0-.203.234-.203h.829c.796 0 1.03.203 1.14.969h.203Zm0 0"/></symbol><symbol overflow="visible" id="I"><path style="stroke:none" d="M1.219-1.11c0-.468.265-.921.734-.921 0 0-.062.062-.062.172 0 .171.14.25.25.25.125 0 .25-.079.25-.25 0-.188-.188-.344-.454-.344-.25 0-.562.125-.75.547h-.015v-.547l-.797.062v.22c.375 0 .422.03.422.265v1.234c0 .156 0 .203-.328.203H.375V0c.219-.016.438-.016.64-.016.266 0 .516 0 .72.016v-.219h-.141c-.375 0-.375-.047-.375-.203Zm0 0"/></symbol><symbol overflow="visible" id="J"><path style="stroke:none" d="M.984-.438c0 .126 0 .188-.187.204C.687-.22.53-.22.422-.22V0h2.187c1.063 0 1.907-.75 1.907-1.672 0-.937-.829-1.734-1.907-1.734H.422v.219c.125 0 .266 0 .375.015.187.016.187.078.187.203Zm.75.22c-.25 0-.25-.032-.25-.204v-2.562c0-.172 0-.204.25-.204h.735c.594 0 .953.25 1.078.376.187.187.406.484.406 1.14 0 .438-.094.797-.39 1.078-.157.156-.516.375-1.094.375Zm0 0"/></symbol><symbol overflow="visible" id="K"><path style="stroke:none" d="M2.234-2.016c-.062.063-.109.141-.109.22 0 .171.125.265.266.265.125 0 .265-.078.265-.266 0-.422-.547-.437-.906-.437-.969 0-1.39.656-1.39 1.156 0 .625.578 1.14 1.328 1.14.875 0 1.03-.609 1.03-.656 0-.078-.062-.078-.093-.078-.078 0-.094.016-.11.078-.171.422-.53.469-.75.469-.437 0-.906-.281-.906-.953 0-.219.047-.5.235-.703.234-.266.531-.266.687-.266.14 0 .282 0 .453.031Zm0 0"/></symbol><clipPath id="a"><path d="M234 95h5.438v5H234Zm0 0"/></clipPath><clipPath id="j"><path d="M113 .398h126.043v96.903H113Zm0 0"/></clipPath><clipPath id="k"><path d="M91 .398h148.043v96.903H91Zm0 0"/></clipPath><clipPath id="l"><path d="M.398 32h238.645v65.3H.398Zm0 0"/></clipPath></defs><path style="fill:none;stroke-width:.79701;stroke-linecap:butt;stroke-linejoin:miter;stroke:#000;stroke-opacity:1;stroke-miterlimit:10" d="M17.047-2.126v4.25m34.09-4.25v4.25m34.094-4.25v4.25m68.184-4.25v4.25m34.09-4.25v4.25m34.093-4.25v4.25M117.196 26.917h4.254m-4.254 26.918h4.254m-4.254 26.918h4.254M0 0h236.051" transform="matrix(1 0 0 -1 .398 97.3)"/><g clip-path="url(#a)"><path style="stroke:none;fill-rule:nonzero;fill:#000;fill-opacity:1" d="m239.043 97.3-4.145-2.073 1.551 2.074-1.55 2.07"/></g><path style="fill:none;stroke-width:.79701;stroke-linecap:butt;stroke-linejoin:miter;stroke:#000;stroke-opacity:1;stroke-miterlimit:10" d="M119.32 0v94.312" transform="matrix(1 0 0 -1 .398 97.3)"/><path style="stroke:none;fill-rule:nonzero;fill:#000;fill-opacity:1" d="m119.719.398-2.07 4.145 2.07-1.555 2.074 1.555"/><use xlink:href="#b" x="11.079" y="109.565" style="fill:#000;fill-opacity:1"/><use xlink:href="#c" x="18.828" y="109.565" style="fill:#000;fill-opacity:1"/><use xlink:href="#b" x="45.171" y="109.565" style="fill:#000;fill-opacity:1"/><use xlink:href="#d" x="52.919" y="109.565" style="fill:#000;fill-opacity:1"/><use xlink:href="#b" x="79.262" y="109.565" style="fill:#000;fill-opacity:1"/><use xlink:href="#e" x="87.011" y="109.565" style="fill:#000;fill-opacity:1"/><use xlink:href="#e" x="151.32" y="109.565" style="fill:#000;fill-opacity:1"/><use xlink:href="#d" x="185.411" y="109.565" style="fill:#000;fill-opacity:1"/><use xlink:href="#c" x="219.503" y="109.565" style="fill:#000;fill-opacity:1"/><use xlink:href="#f" x="101.144" y="73.593" style="fill:#000;fill-opacity:1"/><use xlink:href="#g" x="106.125" y="73.593" style="fill:#000;fill-opacity:1"/><use xlink:href="#h" x="108.893" y="73.593" style="fill:#000;fill-opacity:1"/><use xlink:href="#i" x="108.893" y="46.676" style="fill:#000;fill-opacity:1"/><use xlink:href="#i" x="101.144" y="19.759" style="fill:#000;fill-opacity:1"/><use xlink:href="#g" x="106.125" y="19.759" style="fill:#000;fill-opacity:1"/><use xlink:href="#h" x="108.893" y="19.759" style="fill:#000;fill-opacity:1"/><g clip-path="url(#j)"><path style="fill:none;stroke-width:.79701;stroke-linecap:butt;stroke-linejoin:miter;stroke:#00f;stroke-opacity:1;stroke-miterlimit:10" d="M124.293 158.991s3.594-74.289 4.973-91.007c1.379-16.72 3.59-23.438 4.973-29.493 1.379-6.054 3.59-11.066 4.968-14.14 1.38-3.078 3.594-6.223 4.973-8.028 1.379-1.808 3.594-3.847 4.973-5 1.379-1.148 3.59-2.523 4.972-3.293 1.38-.765 3.59-1.718 4.97-2.25 1.378-.53 3.593-1.199 4.972-1.574 1.379-.375 3.594-.855 4.972-1.125 1.38-.27 3.59-.617 4.973-.812 1.38-.196 3.59-.45 4.973-.594 1.379-.14 3.59-.328 4.969-.434a353.88 353.88 0 0 1 4.972-.32c1.38-.074 3.59-.176 4.973-.234a523.845 523.845 0 0 1 9.941-.305c1.38-.031 3.594-.074 4.973-.098 1.379-.023 3.594-.054 4.973-.074 1.379-.015 3.59-.039 4.968-.05 1.383-.016 3.594-.032 4.973-.044L228.7.09c1.379-.008 3.593-.02 4.972-.023l4.97-.016" transform="matrix(1 0 0 -1 .398 97.3)"/></g><g clip-path="url(#k)"><path style="fill:none;stroke-width:.79701;stroke-linecap:butt;stroke-linejoin:miter;stroke:#ff8000;stroke-opacity:1;stroke-miterlimit:10" d="M102.278 146.343s4.101-31.629 5.68-41.512c1.578-9.883 4.105-22.633 5.683-29.71 1.574-7.075 4.106-16.216 5.68-21.286 1.578-5.07 4.105-11.625 5.683-15.258 1.578-3.636 4.106-8.332 5.684-10.937 1.574-2.602 4.102-5.969 5.68-7.832 1.578-1.867 4.105-4.278 5.683-5.613 1.574-1.34 4.106-3.067 5.68-4.024 1.578-.96 4.105-2.2 5.684-2.883 1.574-.687 4.105-1.574 5.68-2.066 1.577-.492 4.105-1.129 5.683-1.48 1.578-.352 4.105-.81 5.683-1.063 1.575-.25 4.106-.578 5.68-.758a214.07 214.07 0 0 1 5.684-.543c1.574-.133 4.105-.3 5.68-.39a395.24 395.24 0 0 1 5.683-.282 548.49 548.49 0 0 1 5.684-.199c1.574-.047 4.101-.11 5.68-.145a919.27 919.27 0 0 1 5.683-.101c1.574-.027 4.105-.059 5.68-.074 1.578-.02 4.105-.04 5.683-.055 1.574-.012 4.106-.027 5.684-.035 1.574-.012 4.101-.024 5.68-.027 1.578-.008 5.683-.02 5.683-.02" transform="matrix(1 0 0 -1 .398 97.3)"/></g><g clip-path="url(#l)"><path style="fill:none;stroke-width:.79701;stroke-linecap:butt;stroke-linejoin:miter;stroke:red;stroke-opacity:1;stroke-miterlimit:10" d="M0 53.784s7.184-.023 9.942-.039c2.762-.011 7.187-.043 9.945-.066 2.758-.027 7.184-.078 9.942-.125a842.77 842.77 0 0 0 9.945-.223c2.758-.082 7.183-.238 9.941-.386 2.762-.153 7.188-.43 9.946-.688 2.757-.262 7.183-.746 9.945-1.187 2.758-.442 7.184-1.274 9.941-1.997 2.758-.718 7.184-2.093 9.946-3.207 2.757-1.113 7.183-3.246 9.941-4.816 2.762-1.57 7.184-4.54 9.945-6.5 2.758-1.96 7.184-5.516 9.942-7.637 2.758-2.117 7.183-5.672 9.945-7.629 2.758-1.96 7.184-4.93 9.941-6.5 2.758-1.57 7.184-3.699 9.946-4.812 2.758-1.113 7.183-2.488 9.941-3.211 2.762-.723 7.184-1.555 9.946-1.996 2.757-.442 7.183-.926 9.94-1.188 2.763-.257 7.185-.535 9.946-.683 2.758-.153 7.184-.309 9.942-.39 2.761-.087 7.183-.177 9.945-.224 2.758-.046 7.184-.097 9.941-.125 2.762-.023 7.188-.05 9.946-.066 2.757-.016 9.94-.039 9.94-.039" transform="matrix(1 0 0 -1 .398 97.3)"/></g><use xlink:href="#m" x="199.187" y="91.09" style="fill:#000;fill-opacity:1"/><use xlink:href="#n" x="205.348" y="91.09" style="fill:#000;fill-opacity:1"/><use xlink:href="#o" x="209.222" y="91.09" style="fill:#000;fill-opacity:1"/><use xlink:href="#b" x="215.48" y="91.09" style="fill:#000;fill-opacity:1"/><use xlink:href="#p" x="225.443" y="91.09" style="fill:#000;fill-opacity:1"/><use xlink:href="#q" x="231.446" y="91.09" style="fill:#000;fill-opacity:1"/><use xlink:href="#r" x="123.438" y="11.589" style="fill:#000;fill-opacity:1"/><use xlink:href="#s" x="127.312" y="11.589" style="fill:#000;fill-opacity:1"/><use xlink:href="#t" x="133.292" y="11.589" style="fill:#000;fill-opacity:1"/><path style="fill-rule:nonzero;fill:#fff;fill-opacity:1;stroke-width:.79701;stroke-linecap:butt;stroke-linejoin:miter;stroke:#000;stroke-opacity:1;stroke-miterlimit:10" d="M162.7 62.94h68.386v30.657H162.7Zm0 0" transform="matrix(1 0 0 -1 .398 97.3)"/><path style="fill:none;stroke-width:.79701;stroke-linecap:butt;stroke-linejoin:miter;stroke:#00f;stroke-opacity:1;stroke-miterlimit:10" d="M-.002 0H17.01" transform="matrix(1 0 0 -1 166.482 10.129)"/><g style="fill:#000;fill-opacity:1"><use xlink:href="#u" x="185.881" y="11.075"/><use xlink:href="#v" x="190.537" y="11.075"/><use xlink:href="#w" x="193.927" y="11.075"/><use xlink:href="#x" x="196.66" y="11.075"/><use xlink:href="#y" x="199.704" y="11.075"/><use xlink:href="#z" x="202.056" y="11.075"/><use xlink:href="#A" x="206.539" y="11.075"/><use xlink:href="#B" x="208.546" y="11.075"/><use xlink:href="#w" x="212.282" y="11.075"/><use xlink:href="#C" x="215.015" y="11.075"/><use xlink:href="#x" x="217.713" y="11.075"/><use xlink:href="#A" x="220.757" y="11.075"/><use xlink:href="#B" x="222.764" y="11.075"/></g><path style="fill:none;stroke-width:.79701;stroke-linecap:butt;stroke-linejoin:miter;stroke:#ff8000;stroke-opacity:1;stroke-miterlimit:10" d="M-.002 0H17.01" transform="matrix(1 0 0 -1 166.482 19.031)"/><g style="fill:#000;fill-opacity:1"><use xlink:href="#u" x="185.881" y="20.014"/><use xlink:href="#v" x="190.537" y="20.014"/><use xlink:href="#D" x="193.927" y="20.014"/><use xlink:href="#C" x="195.934" y="20.014"/><use xlink:href="#E" x="198.632" y="20.014"/><use xlink:href="#F" x="201.676" y="20.014"/><use xlink:href="#G" x="207.142" y="20.014"/><use xlink:href="#B" x="210.532" y="20.014"/><use xlink:href="#B" x="214.268" y="20.014"/></g><path style="fill:none;stroke-width:.79701;stroke-linecap:butt;stroke-linejoin:miter;stroke:red;stroke-opacity:1;stroke-miterlimit:10" d="M-.002 0H17.01" transform="matrix(1 0 0 -1 166.482 27.933)"/><use xlink:href="#H" x="185.881" y="28.879" style="fill:#000;fill-opacity:1"/><g style="fill:#000;fill-opacity:1"><use xlink:href="#x" x="189.673" y="28.879"/><use xlink:href="#I" x="192.717" y="28.879"/><use xlink:href="#F" x="195.416" y="28.879"/><use xlink:href="#A" x="200.881" y="28.879"/><use xlink:href="#y" x="202.888" y="28.879"/><use xlink:href="#J" x="205.24" y="28.879"/><use xlink:href="#A" x="210.242" y="28.879"/><use xlink:href="#I" x="212.249" y="28.879"/><use xlink:href="#G" x="214.947" y="28.879"/><use xlink:href="#K" x="218.337" y="28.879"/></g></svg>