<svg xmlns="http://www.w3.org/2000/svg" xmlns:xlink="http://www.w3.org/1999/xlink" width="454.075" height="251.719" viewBox="0 0 340.556 188.789"><defs><symbol overflow="visible" id="x"><path d="M.64-.844c-.093.094-.093.11-.093.281v.079c0 .359.11.484.484.484h3.422c.375 0 .469-.125.469-.484v-.11c0-.156 0-.36-.203-.437-.078-.047-.39-.047-.594-.047-.219 0-.453.016-.672.016H1.828l1.328-1.25c.14-.126.516-.438.672-.579.547-.53 1.094-1.062 1.094-1.953 0-1.218-.875-2.297-2.344-2.297-.344 0-.906.047-1.39.438-.094.078-.547.437-.735 1.094l.5.64c.063.078.094.125.156.125.094 0 .11-.078.141-.187.203-.688.547-1.11 1.188-1.11.765 0 1.093.704 1.093 1.313 0 .64-.375 1.312-.984 1.953zm0 0"/></symbol><symbol overflow="visible" id="y"><path d="M5.047-3.422c0-1.36 0-3.719-2.313-3.719C.422-7.14.422-4.812.422-3.42c0 1.374 0 3.64 2.312 3.64 2.313 0 2.313-2.25 2.313-3.64zM2.734-.5C2-.5 1.891-1.422 1.86-1.688c-.078-.53-.078-1.468-.078-1.875 0-.578 0-1.218.063-1.718.031-.266.125-1.14.89-1.14.735 0 .86.843.891 1.03.063.516.063 1.297.063 1.829 0 .578 0 1.343-.063 1.89-.031.266-.14 1.172-.89 1.172zm0 0"/></symbol><symbol overflow="visible" id="z"><path d="M3.531-6.656c0-.188 0-.485-.437-.485-.188 0-.235.016-.36.141-.171.156-.546.531-1.53.547-.188 0-.454.078-.454.36 0 .359.36.359.484.359.297 0 .657-.047.938-.125v5.14H1.39c-.125 0-.47 0-.47.36 0 .359.345.359.47.359h2.843c.11 0 .485 0 .485-.36 0-.359-.375-.359-.485-.359h-.703zm0 0"/></symbol><symbol overflow="visible" id="A"><path d="M3.781-3.734C4.75-4.047 4.86-4.75 4.86-5.188c0-1.468-.937-1.953-2.125-1.953C1.656-7.14.61-6.75.61-5.187c0 .515.172 1.156 1.079 1.453C.655-3.438.452-2.656.452-2.031c0 1.562.844 2.25 2.281 2.25 1.5 0 2.282-.75 2.282-2.25 0-.906-.438-1.469-1.235-1.703zm-1.047-.36c-.828 0-.843-.484-.843-1.093 0-.688.046-1.063.843-1.063.782 0 .86.36.86 1.063 0 .578-.016 1.093-.86 1.093zm0 3.375c-.875 0-.89-.562-.89-1.328 0-.64 0-1.328.89-1.328.891 0 .891.672.891 1.328 0 .75-.016 1.328-.89 1.328zm0 0"/></symbol><symbol overflow="visible" id="C"><path d="M3.625-3.047c-.016.094 0 .281-.031.719-.063.61-.235 1.61-1.328 1.61-.313 0-.594-.079-.875-.329-.047-.062-.079-.078-.125-.078-.079 0-.094.047-.157.125-.187.328-.328.547-.328.61 0 .078.531.609 1.5.609 2.735 0 2.735-2.875 2.735-3.766C5.016-4.609 5-7.14 2.734-7.14c-.609 0-1.265.11-1.78.75-.423.547-.5 1.047-.5 1.813 0 .625.03 1.203.452 1.766.406.515.86.671 1.5.671.735 0 1.078-.593 1.219-.906zm-.969.188c-.797 0-.797-.72-.797-1.704 0-.968 0-1.687.907-1.687.687 0 .843.766.843 1.813 0 .14 0 1.578-.953 1.578zm0 0"/></symbol><symbol overflow="visible" id="D"><path d="M7.297-3.406c0-2-.734-3.735-3.344-3.735C1.203-7.14.61-5.234.61-3.406c0 1.86.641 3.625 3.344 3.625 2.563 0 3.344-1.578 3.344-3.625zM3.953-.578c-1.875 0-1.875-2.078-1.875-2.985 0-.89 0-2.796 1.875-2.796s1.875 1.89 1.875 2.796c0 .876 0 2.985-1.875 2.985zm0 0"/></symbol><symbol overflow="visible" id="E"><path d="M4.563-.5c0-.11-.047-.563-.063-.703 0-.016-.031-.125-.125-.125-.031 0-.063 0-.156.11-.172.14-.64.546-1.453.546-1.047 0-1.047-1-1.047-1.64 0-.813.062-1.641 1.078-1.641.64 0 .906.156 1.265.453.125.11.141.11.188.11.094 0 .11-.094.125-.126.016-.078.125-.64.125-.687 0-.094-.078-.14-.25-.219-.469-.219-.766-.312-1.469-.312-1.484 0-2.406.703-2.406 2.437C.375-.64 1.219.11 2.735.11c.265 0 .859-.015 1.53-.343.282-.157.298-.172.298-.266zm0 0"/></symbol><symbol overflow="visible" id="F"><path d="M2.172-3.844h.89c.126 0 .47 0 .47-.36 0-.359-.345-.359-.47-.359h-.89v-.828c0-.328-.063-.484-.485-.484h-.296c-.36 0-.485.11-.485.484v.829H.672c-.11 0-.469 0-.469.359 0 .36.36.36.469.36h.203v2.515c0 1.016.36 1.437 1.047 1.437.094 0 .531 0 1.047-.156.172-.047.75-.234.75-.422 0-.031-.016-.094-.078-.312-.047-.203-.079-.25-.157-.25-.062 0-.062 0-.125.062-.109.078-.375.297-.796.297-.235 0-.391-.172-.391-.828zm0 0"/></symbol><symbol overflow="visible" id="G"><path d="M3.016-6.516c-.204-.406-.5-.406-.704-.406h-.921c-.36 0-.485.11-.485.484v5.954c0 .359.11.484.485.484h.265c.375 0 .485-.125.485-.484V-5.72L4.89-.406c.203.406.5.406.703.406h.922C6.89 0 7-.125 7-.484v-5.954c0-.328-.078-.484-.484-.484H6.25c-.375 0-.484.14-.484.484v5.235zm0 0"/></symbol><symbol overflow="visible" id="H"><path d="M5.156-2.25c0-1.625-.797-2.484-2.422-2.484-1.656 0-2.421.89-2.421 2.484 0 1.625.859 2.36 2.421 2.36 1.563 0 2.422-.72 2.422-2.36zM2.734-.672c-1.062 0-1.062-.89-1.062-1.687 0-.766 0-1.657 1.062-1.657 1.079 0 1.079.875 1.079 1.657 0 .78 0 1.687-1.079 1.687zm0 0"/></symbol><symbol overflow="visible" id="I"><path d="M4.672-4.094c.047-.14.047-.156.047-.187 0-.282-.25-.282-.407-.282H4.11c-.421 0-.53.141-.625.422L2.5-1.125l-.984-3.016c-.063-.203-.141-.421-.625-.421H.656c-.14 0-.39 0-.39.28 0 .032 0 .048.046.188L1.5-.422C1.64 0 1.938 0 2.125 0h.719c.187 0 .5 0 .64-.422zm0 0"/></symbol><symbol overflow="visible" id="J"><path d="M1.39-6.922c-.359 0-.484.11-.484.484v5.954c0 .359.11.484.485.484h2.625c2.437 0 3.28-1.453 3.28-3.406 0-.797-.124-1.75-.687-2.469-.75-.922-1.937-1.047-2.593-1.047zm.954 6.063v-5.204h1.281c2.14 0 2.234 1.532 2.234 2.657S5.75-.86 3.625-.86zm0 0"/></symbol><symbol overflow="visible" id="K"><path d="M4.297-2.14c.234 0 .484 0 .484-.454 0-1.281-.61-2.14-2.093-2.14-1.594 0-2.376.89-2.376 2.406 0 1.64.938 2.437 2.516 2.437.375 0 .938-.046 1.594-.375.219-.109.297-.14.297-.265 0-.063-.032-.36-.047-.438-.031-.312-.047-.312-.14-.312-.032 0-.063 0-.173.093a2.197 2.197 0 0 1-1.5.579c-1.125 0-1.25-.891-1.28-1.532zm-2.703-.516c.031-.61.234-1.36 1.093-1.36.797 0 .954.579.985 1.36zm0 0"/></symbol><symbol overflow="visible" id="L"><path d="M4.25-6.438c0-.328-.063-.484-.469-.484h-.484c-.375 0-.469.14-.469.484v4.891c0 .219 0 .766-.89.766a1.24 1.24 0 0 1-1.032-.5c-.078-.094-.094-.11-.156-.11-.11 0-.125.079-.14.188-.047.312-.157.828-.157.875 0 .094.063.125.25.203a4.35 4.35 0 0 0 1.64.344c1.063 0 1.907-.531 1.907-1.703zm0 0"/></symbol><symbol overflow="visible" id="M"><path d="M4.625-3.156c0-1.563-1.516-1.578-2.016-1.578-.468 0-.968.046-1.625.312-.218.094-.265.125-.265.234 0 .079.062.657.062.735.016.047.063.11.14.11.048 0 .079-.032.11-.063a2.002 2.002 0 0 1 1.547-.672c.531 0 .688.328.688.922v.344c-.344 0-2.954.015-2.954 1.484C.313-.625.875.109 1.75.109c.328 0 1.078-.093 1.547-.78v.187c0 .328.078.484.484.484h.36c.39 0 .484-.125.484-.484zm-1.36 1.625c0 .922-.937.922-.968.922-.422 0-.688-.36-.688-.735 0-.984 1.375-1.047 1.657-1.062zm0 0"/></symbol><symbol overflow="visible" id="N"><path d="M4.984-3.234c0-1.032-.437-1.438-1.453-1.438-1.047 0-1.5.75-1.625 1.016h-.015v-.485c0-.328-.063-.484-.47-.484h-.343c-.36 0-.484.11-.484.484v3.657c0 .359.11.484.484.484h.39c.391 0 .485-.125.485-.484v-2.204c0-.859.578-1.265 1.094-1.265.484 0 .578.219.578.734v2.735c0 .328.078.484.484.484H4.5c.39 0 .484-.125.484-.484zm0 0"/></symbol><symbol overflow="visible" id="O"><path d="M2.375-2.984h2.313c.312 0 .468-.063.468-.47 0-.358-.125-.468-.468-.468H2.374v-1.953h.422c.75 0 1.515.016 2.25.016.344 0 .578 0 .578-.47v-.077c0-.328-.078-.485-.484-.485H1.39c-.36 0-.485.11-.485.485v5.922c0 .359.11.484.485.484h.5c.375 0 .484-.125.484-.484zm0 0"/></symbol><symbol overflow="visible" id="P"><path d="M1.938-6.438c0-.328-.079-.484-.485-.484h-.36c-.359 0-.484.11-.484.484v5.954c0 .359.11.484.485.484h.39c.172 0 .47 0 .485-.39.453.5.968.5 1.125.5 2.125 0 2.125-1.907 2.125-2.407 0-.484 0-2.375-1.875-2.375-.828 0-1.313.453-1.406.563zm.03 2.829c.126-.125.423-.344.876-.344 1.015 0 1.015.906 1.015 1.656 0 .735 0 1.688-1.125 1.688A.97.97 0 0 1 1.97-1zm0 0"/></symbol><symbol overflow="visible" id="Q"><path d="M5.531-3.266c-.203.516-.578 1.438-.656 1.782h-.016c-.078-.36-.5-1.344-.703-1.875L2.875-6.516c-.156-.406-.484-.406-.656-.406H1.39c-.36 0-.485.11-.485.484v5.954c0 .359.11.484.485.484h.265c.375 0 .485-.125.485-.484v-5.141c.109.438.562 1.547.796 2.14L4.095-.64c.187.422.422.422.765.422.329 0 .579 0 .75-.422l1.282-3.14c.093-.235.64-1.594.703-1.844h.015v5.14c0 .329.063.485.47.485h.28c.375 0 .47-.125.47-.484v-5.954c0-.328-.063-.484-.47-.484h-.843c-.25 0-.5.031-.672.438zm0 0"/></symbol><symbol overflow="visible" id="R"><path d="M1.938-2.297c0-.937.78-1.328 1.406-1.375.187 0 .203 0 .203-.265v-.47c0-.202 0-.265-.172-.265-.281 0-1.016.094-1.484 1.172v-.64c0-.329-.079-.485-.485-.485h-.312c-.36 0-.485.11-.485.484v3.657c0 .359.11.484.485.484h.36c.374 0 .484-.125.484-.484zm0 0"/></symbol><symbol overflow="visible" id="S"><path d="M4.719-6.484c-.14-.438-.438-.438-.625-.438h-.89c-.188 0-.485 0-.626.438L.468-.47c-.046.125-.046.156-.046.203 0 .266.25.266.39.266h.36c.172 0 .484 0 .625-.406l.39-1.094h2.75l.344.953c.125.344.188.547.672.547h.531c.141 0 .391 0 .391-.266 0-.046 0-.078-.047-.203zM3.203-4.47c.14-.453.281-.828.36-1.187.062.25.062.265.14.5l.938 2.797H2.484zm0 0"/></symbol><symbol overflow="visible" id="T"><path d="M1.969-.39c.437.5.984.5 1.125.5 2.125 0 2.125-1.907 2.125-2.407s0-2.375-1.813-2.375c-.578 0-1.11.234-1.469.578 0-.375-.14-.468-.484-.468h-.36c-.359 0-.484.109-.484.468v5.547c0 .36.11.484.485.484h.39c.375 0 .485-.14.485-.484zm0-3.172c.11-.11.437-.329.86-.329 1.015 0 1.03 1.172 1.03 1.61 0 .39 0 1.672-1.125 1.672a.86.86 0 0 1-.53-.172c-.235-.172-.235-.219-.235-.39zm0 0"/></symbol><symbol overflow="visible" id="U"><path d="M4.672-4.094c.047-.14.047-.156.047-.203 0-.266-.266-.266-.407-.266h-.218c-.157 0-.375 0-.532.22-.03.062-.828 2.265-.874 2.921h-.016c-.047-.484-.453-1.406-.89-2.36-.282-.64-.345-.78-.845-.78H.672c-.14 0-.375 0-.375.25 0 .046.016.109.047.171L2.219 0c-.078.203-.11.313-.14.422-.11.328-.282.781-.829.781-.328 0-.547-.14-.656-.219C.53.954.516.954.484.954c-.046 0-.125.03-.125.14 0 .078.063.765.094.812.078.125.625.14.781.14 1.235 0 1.72-1.171 1.813-1.421zm0 0"/></symbol><symbol overflow="visible" id="V"><path d="M4.984-4.094c0-.312-.062-.468-.484-.468h-.39c-.376 0-.485.125-.485.468v2.375c0 .657-.344 1.219-1.047 1.219-.562 0-.625-.14-.625-.672v-2.922c0-.312-.062-.468-.484-.468h-.39c-.36 0-.485.109-.485.468v2.844c0 1.063.578 1.36 1.625 1.36.265 0 .969 0 1.437-.844v.25c0 .328.078.484.485.484H4.5c.39 0 .484-.125.484-.484zm0 0"/></symbol><symbol overflow="visible" id="W"><path d="M1.938-6.438c0-.328-.079-.484-.485-.484h-.36c-.359 0-.484.11-.484.484v5.954c0 .359.11.484.485.484h.36c.374 0 .484-.125.484-.484zm0 0"/></symbol><symbol overflow="visible" id="X"><path d="M2-.922c-.36 0-.5 0-.64-.11-.048-.046-.22-.187-.22-.452 0-.079.016-.094.032-.157.469.266 1.047.266 1.266.266.406 0 2 0 2-1.64 0-.579-.22-.938-.313-1.047.172 0 .516 0 .922.109.047.031.11.047.14.047.094 0 .141-.063.141-.125 0-.047-.047-.282-.078-.39-.031-.235-.031-.25-.219-.25-.312 0-.797.109-1.187.343-.469-.313-.985-.344-1.406-.344-.422 0-2.016 0-2.016 1.64 0 .407.11.891.5 1.235C.64-1.437.64-1.047.64-1c0 .188.062.516.28.797C.767-.156.25.03.25.672c0 .312.156.828.781 1.11.563.265 1.235.265 1.703.265.579 0 2.485 0 2.485-1.406 0-1.563-1.407-1.563-2.75-1.563zm.438-1.172c-.704 0-.735-.375-.735-.922 0-.546.031-.937.734-.937.688 0 .72.375.72.922s-.032.937-.72.937zm.53 2.266c.813 0 1.235.14 1.235.5 0 .656-1.14.656-1.469.656-.39 0-1.453 0-1.453-.687 0-.47.297-.47.532-.47zm0 0"/></symbol><symbol overflow="visible" id="aa"><path d="M2.688-4.39c-.22-.063-.829-.282-.829-.86 0-.844.844-.86 1.188-.86.547 0 1.047.126 1.531.61.172.14.172.156.219.156.062 0 .11-.031.14-.172l.141-.875c.031-.078.031-.093.031-.125 0-.078-.015-.093-.265-.218-.703-.36-1.297-.407-1.797-.407-.89 0-2.438.22-2.438 2.079 0 .703.375 1.171.563 1.359.5.515.969.625 1.75.797.562.14.781.187 1 .39.094.094.312.297.312.688 0 .937-.859.953-1.187.953-.844 0-1.578-.328-2.063-.781-.125-.125-.14-.125-.187-.125-.063 0-.11.031-.14.187l-.141.86c-.032.093-.032.109-.032.14 0 .203 1.047.563 1.094.578A4.648 4.648 0 0 0 3.047.22C4.53.219 5.469-.453 5.469-2c0-1.11-.828-1.953-1.813-2.172zm0 0"/></symbol><symbol overflow="visible" id="ac"><path d="M2.922-5.86v5.376c0 .359.11.484.484.484h.5c.375 0 .485-.125.485-.484V-5.86c.437 0 1.546.03 1.984.03.281 0 .516 0 .516-.468v-.078c0-.328-.063-.484-.47-.484H.876c-.36 0-.469.109-.469.484v.078c0 .469.235.469.516.469zm0 0"/></symbol><symbol overflow="visible" id="ad"><path d="M4.984-3.234c0-1.032-.437-1.438-1.453-1.438-1 0-1.453.688-1.594.969h-.015v-2.735c0-.328-.063-.484-.469-.484h-.375c-.36 0-.484.11-.484.484v5.954c0 .359.11.484.484.484h.39c.391 0 .485-.125.485-.484v-2.204c0-.859.578-1.265 1.094-1.265.484 0 .578.219.578.734v2.735c0 .328.078.484.484.484H4.5c.39 0 .484-.125.484-.484zm0 0"/></symbol><symbol overflow="visible" id="ae"><path d="M8.031-3.234c0-1.032-.437-1.438-1.453-1.438-.703 0-1.25.328-1.61.984-.155-.953-1.015-.984-1.437-.984-.187 0-.594 0-1.047.328a2.002 2.002 0 0 0-.578.688h-.015v-.485c0-.328-.063-.484-.47-.484h-.343c-.36 0-.484.11-.484.484v3.657c0 .359.11.484.484.484h.39c.391 0 .485-.125.485-.484v-2.204c0-.89.61-1.265 1.094-1.265.484 0 .594.203.594.734v2.735c0 .359.109.484.468.484h.407C4.89 0 5-.125 5-.484v-2.204c0-.89.61-1.265 1.094-1.265.468 0 .578.203.578.734v2.735c0 .359.11.484.484.484h.407c.375 0 .468-.125.468-.484zm0 0"/></symbol><symbol overflow="visible" id="af"><path d="M1.016-6.922c-.313 0-.485.047-.485.453v.453c0 .329.11.454.469.454h.531C2-5.563 2-5.766 2-6.234c0-.485 0-.688-.469-.688zm.921 2.828c0-.312-.078-.468-.484-.468h-.36c-.359 0-.484.109-.484.468v3.61c0 .359.11.484.485.484h.36c.374 0 .484-.125.484-.484zm0 0"/></symbol><symbol overflow="visible" id="ag"><path d="M3.953-1.406c0-.563-.297-.907-.484-1.063-.39-.36-.75-.422-1.172-.5-.547-.11-.938-.187-.938-.562 0-.422.329-.5.72-.5.655 0 1.015.25 1.28.468.094.11.125.11.157.11.109 0 .125-.094.14-.14.016-.079.11-.641.11-.688 0-.157-.532-.297-.641-.328a3.484 3.484 0 0 0-.969-.125c-.453 0-1.781 0-1.781 1.421 0 .485.219.797.484 1.032.344.312.735.39 1.297.5.297.047.797.14.797.578 0 .469-.375.531-.765.531-.438 0-1-.125-1.47-.687-.046-.047-.077-.079-.14-.079-.094 0-.125.094-.125.157-.031.14-.14.703-.14.797 0 .187.734.421.75.421.546.172.953.172 1.125.172.5 0 1.765-.046 1.765-1.515zm0 0"/></symbol><symbol overflow="visible" id="ah"><path d="M4.016-6.219h-.72v2.625c-.5-.422-1.077-.484-1.374-.484-.906 0-1.594.937-1.594 2.094 0 1.156.688 2.078 1.563 2.078.265 0 .828-.063 1.375-.563V0h.75zm-.75 4.953c0 .172 0 .188-.094.313-.25.328-.547.469-.875.469-.578 0-1.235-.422-1.235-1.5 0-1.141.766-1.516 1.329-1.516.421 0 .703.234.875.469zm0 0"/></symbol><symbol overflow="visible" id="ai"><path d="M3.688-2.594c0-.89-.641-1.547-1.532-1.547-.594 0-1.015.157-1.453.407l.063.625a2.2 2.2 0 0 1 1.375-.454c.5 0 .812.391.812.985v.375C1.406-2.172.391-1.766.391-1.047c0 .422.28 1.14 1.062 1.14.172 0 .953-.015 1.531-.437V0h.704zM2.953-1.25c0 .188 0 .406-.328.594-.219.14-.516.172-.703.172-.453 0-.844-.22-.844-.579 0-.625 1.75-.656 1.875-.656zm0 0"/></symbol><symbol overflow="visible" id="aj"><path d="M1.625-3.422h1.297v-.562H1.625v-1.141H.953v1.14H.172v.563h.766v2.297c0 .531.109 1.219.765 1.219.39 0 .86-.078 1.36-.328l-.141-.563a1.467 1.467 0 0 1-.828.281c-.36 0-.469-.312-.469-.78zm0 0"/></symbol><symbol overflow="visible" id="ak"><path d="M3.781-.969a2.503 2.503 0 0 1-1.453.453C1.563-.516 1.063-1.14 1.063-2c0-.688.343-1.531 1.312-1.531.563 0 .844.11 1.297.422l.11-.625c-.5-.297-.782-.407-1.423-.407C1.08-4.14.33-3.062.33-1.984c0 1.109.827 2.078 2 2.078.624 0 1.093-.188 1.5-.422zm0 0"/></symbol><symbol overflow="visible" id="al"><path d="M4.016-4.078h-.72v.61c-.171-.173-.577-.61-1.28-.61-.907 0-1.688.89-1.688 2.094C.328-.86.968.094 1.86.094c.579 0 1.094-.266 1.407-.531v2.171h.75zm-.72 2.812c0 .125 0 .282-.312.532-.187.156-.437.25-.671.25-.688 0-1.25-.672-1.25-1.5 0-.891.656-1.485 1.328-1.485.593 0 .906.594.906.969zm0 0"/></symbol><symbol overflow="visible" id="am"><path d="M4.031-3.984h-.75v2.593c0 .72-.562.954-1.11.954-.64 0-.702-.204-.702-.579v-2.968h-.75v3c0 .765.312 1.078.953 1.078.516 0 1.219-.14 1.64-.531V0h.72zm0 0"/></symbol><symbol overflow="visible" id="an"><path d="M1.531-6.14H.656v.859h.875zm-.078 2.156H.734V0h.72zm0 0"/></symbol><symbol overflow="visible" id="ao"><path d="M3.172-3.844c-.563-.25-.969-.297-1.344-.297-.203 0-1.516 0-1.516 1.188 0 .437.25.703.344.797.344.297.578.344 1.188.469.297.046.797.14.797.609 0 .578-.72.578-.844.578A2.604 2.604 0 0 1 .375-.953l-.11.656a3.32 3.32 0 0 0 1.532.39c.594 0 1.516-.187 1.516-1.25 0-.312-.126-.624-.438-.89-.297-.265-.563-.328-1.125-.422-.328-.062-.766-.156-.766-.578 0-.515.625-.515.766-.515a2.45 2.45 0 0 1 1.297.343zm0 0"/></symbol><symbol overflow="visible" id="ap"><path d="M4.328-1.969c0-1.172-.89-2.172-2.031-2.172-1.11 0-2.031.97-2.031 2.172 0 1.172.937 2.063 2.03 2.063 1.11 0 2.032-.906 2.032-2.063zM2.312-.516c-.703 0-1.296-.53-1.296-1.546 0-1.047.671-1.485 1.28-1.485.642 0 1.298.453 1.298 1.485 0 1.046-.64 1.546-1.281 1.546zm0 0"/></symbol><symbol overflow="visible" id="aq"><path d="M4.031-2.656c0-.672-.187-1.422-1.265-1.422-.72 0-1.141.406-1.344.672v-.625H.719V0h.75v-2.188c0-.593.234-1.312.922-1.312.89 0 .89.64.89.906V0h.75zm0 0"/></symbol><symbol overflow="visible" id="ar"><path d="M.875-6.219V0h2.438C4.875 0 6.14-1.36 6.14-3.063c0-1.75-1.266-3.156-2.829-3.156zM1.703-.53v-5.157h1.375c1.25 0 2.235 1 2.235 2.625 0 1.579-1 2.532-2.22 2.532zm0 0"/></symbol><symbol overflow="visible" id="as"><path d="M1.469-1.906c0-.953.734-1.516 1.547-1.532v-.64a1.98 1.98 0 0 0-1.61.86v-.813H.75V0h.719zm0 0"/></symbol><symbol overflow="visible" id="at"><path d="M1.484-.406c.344.312.782.5 1.25.5.907 0 1.704-.89 1.704-2.094 0-1.078-.579-2.078-1.438-2.078-.25 0-.922.047-1.531.531v-.437H.75v5.718h.734zm0-2.578c.125-.157.454-.485.97-.485.671 0 1.233.64 1.233 1.485 0 .859-.624 1.5-1.328 1.5-.28 0-.609-.11-.875-.563zm0 0"/></symbol><symbol overflow="visible" id="au"><path d="M2.516-5.344a5.006 5.006 0 0 0-.22-.422c-.046-.093-.187-.359-.233-.453H.875V0h.734v-5.531h.016l2.36 4.64c.078.141.187.36.234.422.047.11.172.375.234.469h1.172v-6.219h-.734v5.516zm0 0"/></symbol><symbol overflow="visible" id="av"><path d="M5.656-6.219h-.86v2.688H1.72V-6.22h-.86V0h.86v-2.938h3.078V0h.86zm0 0"/></symbol><symbol overflow="visible" id="aw"><path d="M4.11-3.984h-.704C2.72-2.344 2.234-1.156 2.187-.531c-.03-.406-.406-1.328-.515-1.594-.36-.922-.516-1.219-.797-1.86h-.75L1.922 0l-.328.797c-.235.5-.407.5-.532.5-.14 0-.468-.031-.734-.156l.063.625c.015.015.359.078.656.078.25 0 .625 0 1.078-1.078zm0 0"/></symbol><symbol overflow="visible" id="ax"><path d="M3.828-1.969c0-.281 0-.953-.36-1.5-.374-.562-.952-.672-1.296-.672-1.031 0-1.86.97-1.86 2.11 0 1.187.875 2.125 2 2.125.438 0 .954-.11 1.47-.438l-.048-.61c-.562.391-1.093.47-1.406.47C1.578-.484 1-1.141.984-1.97zM1.031-2.5c.14-.563.578-1.047 1.14-1.047.345 0 .954.14 1.126 1.047zm0 0"/></symbol><symbol overflow="visible" id="ay"><path d="M6.281-3.078c0-1.906-1.328-3.344-2.875-3.344-1.562 0-2.89 1.438-2.89 3.344 0 1.86 1.343 3.281 2.89 3.281 1.547 0 2.875-1.422 2.875-3.281zM3.406-.438c-1.078 0-2.031-1.093-2.031-2.78 0-1.641 1-2.595 2.031-2.595 1.016 0 2.016.954 2.016 2.594 0 1.688-.953 2.781-2.016 2.781zm0 0"/></symbol><symbol overflow="visible" id="az"><path d="M6.578-2.656c0-.672-.172-1.422-1.266-1.422-.75 0-1.171.453-1.39.734-.063-.187-.25-.734-1.156-.734-.72 0-1.141.406-1.344.672v-.625H.719V0h.75v-2.188c0-.593.234-1.312.922-1.312.89 0 .89.64.89.906V0h.75v-2.188c0-.593.235-1.312.907-1.312.906 0 .906.64.906.906V0h.734zm0 0"/></symbol><symbol overflow="visible" id="aA"><path d="M3.672-3.61v-.374H.39v.562H2.656L.266-.39V0h3.437v-.594H2.36c-.109 0-.218.016-.328.016h-.75zm0 0"/></symbol><symbol overflow="visible" id="aB"><path d="M5.531-2.688H3.594v.594h1.172v1.406c-.375.079-.75.172-1.157.172-1.359 0-2.156-1.375-2.156-2.609 0-1.266.797-2.594 2.172-2.594.656 0 1.281.25 1.688.61l.14-.782c-.406-.25-1.078-.437-1.89-.437-1.72 0-2.97 1.547-2.97 3.203 0 1.688 1.25 3.219 2.97 3.219.718 0 1.328-.157 1.968-.438zm0 0"/></symbol><symbol overflow="visible" id="aC"><path d="M3.188-2.563c1.265 0 2.187-.859 2.187-1.843 0-.953-.906-1.813-2.188-1.813H.876V0h.86v-2.563zm-.204-3.124c1.032 0 1.61.562 1.61 1.28 0 .72-.578 1.298-1.61 1.298h-1.28v-2.579zm0 0"/></symbol><symbol overflow="visible" id="aD"><path d="M3.89-2.922c.922-.25 1.563-.89 1.563-1.625 0-.922-1.047-1.672-2.328-1.672H.875V0h.828v-2.828h1.438L4.844 0h.86zm-2.187-.484v-2.281h1.313c1.046 0 1.656.5 1.656 1.14 0 .578-.547 1.14-1.656 1.14zm0 0"/></symbol><symbol overflow="visible" id="aE"><path d="M4.86-3.156c-.235.594-.72 1.844-.829 2.281h-.015c-.094-.375-.5-1.453-.672-1.89L2.156-5.829l-.172-.39H.922V0h.734v-5.531c.11.468.625 1.797.735 2.047l.984 2.53c.063.188.234.626.297.75h.672l1.25-3.155c.125-.329.672-1.75.797-2.172V0h.734v-6.219H6.047zm0 0"/></symbol><symbol overflow="visible" id="aF"><path d="M5.36-1.063c-.532.407-1.032.547-1.766.547-1.344 0-2.14-1.375-2.14-2.578 0-1.328.827-2.625 2.14-2.625.61 0 1.156.172 1.594.485l.14-.782c-.469-.203-1.047-.312-1.672-.312C1.891-6.328.594-4.875.594-3.11c0 1.703 1.25 3.203 3.062 3.203.828 0 1.156-.125 1.766-.5zm0 0"/></symbol><symbol overflow="visible" id="aG"><path d="M2.188-3.766c-.454-.109-.907-.468-.907-.984s.485-1.031 1.297-1.031c.656 0 1.094.187 1.563.578l.14-.781c-.437-.22-.875-.438-1.687-.438-1.281 0-2.078.89-2.078 1.781 0 .235.046.594.343 1 .422.532 1 .672 1.36.766.125.031.687.172.765.188.407.124.86.515.86 1.078 0 .593-.516 1.14-1.313 1.14-.734 0-1.406-.281-1.969-.734l-.156.781c.89.547 1.703.625 2.125.625 1.235 0 2.063-.922 2.063-1.922 0-1-.828-1.672-1.5-1.828zm0 0"/></symbol><symbol overflow="visible" id="aH"><path d="M6.031-6.219h-.75L4.156-3.422c-.093.235-.875 2.219-1 2.735h-.015c-.079-.47-.797-2.235-1.016-2.797L1.031-6.22H.125L2.641 0H3.5zm0 0"/></symbol><symbol overflow="visible" id="aI"><path d="M1.719-6.219h-.86V0h3.766v-.625h-.39c-.735 0-1.454.016-2.188.016h-.328zm0 0"/></symbol><symbol overflow="visible" id="aJ"><path d="M1.469-6.219H.75V0h.734v-.422c.125.125.579.516 1.235.516.937 0 1.719-.906 1.719-2.094 0-1.078-.594-2.078-1.485-2.078a2.49 2.49 0 0 0-1.484.516zM1.484-3c.141-.188.47-.5.97-.5.546 0 1.233.375 1.233 1.5 0 1.156-.765 1.516-1.312 1.516-.578 0-.844-.47-.89-.563zm0 0"/></symbol><symbol overflow="visible" id="aK"><path d="M4.375-4.078c-.172 0-.781 0-1.438.281a1.643 1.643 0 0 0-.89-.281c-.828 0-1.485.672-1.485 1.453 0 .234.063.563.313.906-.172.235-.266.5-.266.75s.094.5.22.672C.374 0 .265.391.265.641c0 .656.875 1.203 2.03 1.203 1.157 0 2.048-.547 2.048-1.219 0-1.25-1.485-1.266-1.89-1.266h-.829c-.11 0-.516 0-.516-.468 0-.172.032-.235.079-.297.25.156.546.265.859.265A1.49 1.49 0 0 0 3.53-2.609c0-.313-.094-.563-.234-.797-.047-.047-.047-.063-.047-.063 0-.047.438-.047.563-.047.078 0 .406 0 .656.032zm-2.328 2.39c-.422 0-.813-.265-.813-.921 0-.735.454-.938.813-.938.406 0 .812.266.812.922 0 .734-.453.938-.812.938zM2.453.048c.188 0 1.219 0 1.219.594 0 .39-.656.671-1.36.671-.703 0-1.39-.265-1.39-.687 0-.016 0-.578.687-.578zm0 0"/></symbol><symbol overflow="visible" id="aL"><path d="M4.5-2.813v-.578H1.719v-2.203h.297c.703 0 1.421.032 2.125.032h.75v-.641H.859V0h.86v-2.813zm0 0"/></symbol><symbol overflow="visible" id="aM"><path d="M3.578-5.563c.61 0 1.235.016 1.844.016h.531v-.625H.328v.625h.547c.61 0 1.234-.016 1.844-.016V0h.86zm0 0"/></symbol><symbol overflow="visible" id="aO"><path d="M4.11-3.984h-.704l-.703 1.828c-.187.469-.515 1.328-.562 1.656h-.016c-.016-.14-.047-.313-.531-1.61-.282-.718-.719-1.812-.735-1.874H.125L1.703 0h.828zm0 0"/></symbol><symbol overflow="visible" id="aP"><path d="M5.078-2.375H3.297v.516h1.078v1.218a3.948 3.948 0 0 1-1.047.157c-1.234 0-1.984-1.157-1.984-2.282 0-1.093.734-2.296 1.937-2.296.735 0 1.203.218 1.594.546L5-5.234c-.547-.266-1.031-.391-1.64-.391-1.61 0-2.813 1.266-2.813 2.86C.547-1.22 1.75.077 3.312.077c.579 0 1.25-.125 1.766-.39zm0 0"/></symbol><symbol overflow="visible" id="aQ"><path d="M2.984-2.266c1.032 0 1.954-.734 1.954-1.64 0-.86-.844-1.625-2-1.625H.78V0h.797v-2.266zm-.25-2.796c.907 0 1.47.484 1.47 1.156 0 .64-.532 1.14-1.47 1.14H1.563v-2.296zm0 0"/></symbol><symbol overflow="visible" id="aR"><path d="M3.578-2.578C4.718-2.922 5-3.61 5-4.047c0-.828-.969-1.484-2.125-1.484H.781V0h.781v-2.5h1.313L4.438 0h.796zm-2.015-.453v-2.031h1.203c.921 0 1.515.437 1.515 1.015 0 .563-.547 1.016-1.515 1.016zm0 0"/></symbol><symbol overflow="visible" id="aS"><path d="M1.531-3.531H.813v.703h.718zM.813-.72V0h.718v-.719zm0 0"/></symbol><symbol overflow="visible" id="aT"><path d="M3.39-2.297c0-.812-.624-1.36-1.406-1.36-.5 0-.89.11-1.328.345l.047.578c.266-.172.656-.407 1.281-.407.344 0 .72.25.72.86v.312C1.515-1.922.358-1.687.358-.937c0 .39.266 1.015.97 1.015.343 0 .968-.062 1.39-.375V0h.672zm-.687 1.172c0 .156 0 .36-.281.531-.25.14-.563.14-.656.14C1.328-.453 1-.64 1-.953c0-.5 1.344-.546 1.703-.562zm0 0"/></symbol><symbol overflow="visible" id="aU"><path d="M3.703-3.531h-.687v2.297c0 .64-.547.843-1 .843-.594 0-.657-.156-.657-.53v-2.61H.656v2.656c0 .719.313.953.875.953.328 0 1.032-.062 1.5-.437V0h.672zm0 0"/></symbol><symbol overflow="visible" id="aV"><path d="M2.906-3.406a2.863 2.863 0 0 0-1.219-.25c-.203 0-1.406 0-1.406 1.062 0 .375.203.578.313.672.281.281.61.344 1.031.422.375.078.813.156.813.531 0 .5-.672.5-.782.5-.515 0-.984-.172-1.312-.406l-.11.61c.282.124.766.343 1.422.343.36 0 .703-.047 1-.266.297-.234.39-.578.39-.843 0-.14-.015-.453-.343-.766-.297-.266-.578-.312-.969-.39-.468-.079-.828-.157-.828-.5 0-.454.578-.454.703-.454.454 0 .797.094 1.204.297zm0 0"/></symbol><symbol overflow="visible" id="aW"><path d="M1.406-5.469H.594v.813h.812zM1.344-3.53H.672V0h.672zm0 0"/></symbol><symbol overflow="visible" id="aX"><path d="M3.703-2.36c0-.624-.187-1.265-1.156-1.265-.453 0-.89.188-1.25.61v-.579h-.64V0h.702v-1.938c0-.53.22-1.156.829-1.156.828 0 .828.563.828.797V0h.687zm0 0"/></symbol><symbol overflow="visible" id="aY"><path d="M1.375-.375c.422.39.875.453 1.14.453.844 0 1.563-.797 1.563-1.86 0-.952-.531-1.843-1.312-1.843-.36 0-.954.11-1.422.469v-.375H.672v5.078h.703zm0-2.266a1.08 1.08 0 0 1 .875-.421c.64 0 1.14.578 1.14 1.28 0 .798-.609 1.329-1.218 1.329a.836.836 0 0 1-.531-.172c-.235-.188-.266-.313-.266-.453zm0 0"/></symbol><symbol overflow="visible" id="aZ"><path d="M1.344-1.703c0-.86.718-1.313 1.422-1.328v-.594a1.83 1.83 0 0 0-1.47.766v-.735H.673V0h.672zm0 0"/></symbol><symbol overflow="visible" id="ba"><path d="M3.984-1.75c0-1.047-.843-1.906-1.875-1.906-1.03 0-1.875.875-1.875 1.906C.234-.734 1.078.078 2.11.078c1.032 0 1.875-.812 1.875-1.828zM2.11-.469c-.625 0-1.171-.469-1.171-1.36 0-.905.578-1.296 1.171-1.296.594 0 1.188.406 1.188 1.297 0 .906-.578 1.36-1.188 1.36zm0 0"/></symbol><symbol overflow="visible" id="bb"><path d="M3.469-.875a2.337 2.337 0 0 1-1.328.406C1.406-.469.984-1.063.984-1.78c0-.61.313-1.328 1.188-1.328.531 0 .797.109 1.203.375l.094-.579C3-3.546 2.78-3.655 2.172-3.655c-1.203 0-1.89.969-1.89 1.89A1.84 1.84 0 0 0 2.14.078c.546 0 1.03-.172 1.375-.36zm0 0"/></symbol><symbol overflow="visible" id="bc"><path d="M3.422-.875a2.178 2.178 0 0 1-1.281.422C1.437-.453.92-1.016.89-1.75H3.5c0-.36-.031-.89-.344-1.344C2.875-3.5 2.391-3.656 2-3.656c-.969 0-1.719.844-1.719 1.86 0 1.03.797 1.874 1.844 1.874.469 0 .938-.14 1.344-.375zM.953-2.219c.172-.64.656-.906 1.047-.906.344 0 .875.156 1.016.906zm0 0"/></symbol><symbol overflow="visible" id="bd"><path d="M4.016-3.625c-.188 0-.72.016-1.329.25h-.015a1.43 1.43 0 0 0-.797-.25c-.781 0-1.36.625-1.36 1.313 0 .265.094.562.282.78-.11.141-.235.36-.235.657 0 .313.125.516.204.61-.438.25-.532.624-.532.812 0 .61.844 1.094 1.875 1.094 1.047 0 1.875-.485 1.875-1.094 0-1.125-1.39-1.125-1.734-1.125H1.5c-.125 0-.469 0-.469-.406 0-.157.063-.25.063-.266.281.188.562.234.781.234.781 0 1.36-.609 1.36-1.296 0-.25-.079-.485-.22-.704-.03-.046-.03-.046-.03-.062 0-.031.484-.031.515-.031.016 0 .313 0 .61.03zM1.875-1.5c-.422 0-.75-.281-.75-.813 0-.624.406-.812.75-.812.422 0 .75.266.75.813 0 .609-.406.812-.75.812zM2.25.047c.188 0 1.125 0 1.125.515 0 .344-.594.579-1.266.579C1.438 1.14.844.906.844.562c0-.046 0-.515.64-.515zm0 0"/></symbol><symbol overflow="visible" id="be"><path d="M5.203-5.531h-.812v2.39H1.578v-2.39H.766V0h.812v-2.61h2.813V0h.812zm0 0"/></symbol><symbol overflow="visible" id="bf"><path d="M4.438-2.766c-.094.235-.672 1.641-.75 1.985-.063-.235-.422-1.156-.516-1.36l-1.36-3.39H.845V0H1.5v-4.89h.016c.062.28.468 1.327.515 1.421L3.36-.172H4l1.172-2.922c0-.015.562-1.375.687-1.812h.016V0h.672v-5.531h-.984zm0 0"/></symbol><symbol overflow="visible" id="bg"><path d="M4.938-.969c-.563.344-.813.485-1.61.485-1.234 0-1.984-1.157-1.984-2.297 0-1.172.812-2.281 1.984-2.281.516 0 1.063.156 1.422.437l.14-.719a4.344 4.344 0 0 0-1.593-.281c-1.578 0-2.75 1.313-2.75 2.86 0 1.64 1.25 2.843 2.797 2.843.781 0 1.11-.156 1.64-.437zm0 0"/></symbol><symbol overflow="visible" id="bh"><path d="M6.063-2.36c0-.624-.188-1.265-1.172-1.265-.672 0-1.079.39-1.266.656-.094-.219-.281-.656-1.078-.656-.453 0-.89.188-1.25.61v-.579h-.64V0h.702v-1.938c0-.53.22-1.156.829-1.156.828 0 .828.563.828.797V0h.687v-1.938c0-.53.219-1.156.844-1.156.812 0 .812.563.812.797V0h.704zm0 0"/></symbol><symbol overflow="visible" id="bi"><path d="M1.344-5.531H.672V0h.672zm0 0"/></symbol><symbol overflow="visible" id="bj"><path d="M1.5-3.031h1.172v-.5H1.5v-1.016H.89v1.016H.157v.5H.86v2.015C.86-.484 1 .078 1.563.078c.578 0 1.015-.187 1.265-.297l-.14-.5a1.34 1.34 0 0 1-.766.25c-.344 0-.422-.328-.422-.687zm0 0"/></symbol><symbol overflow="visible" id="bk"><path d="M3.938-5.313c-.516-.25-.97-.39-1.563-.39-1.203 0-1.906.812-1.906 1.578 0 .328.11.719.5 1.078.344.328.719.406 1.203.531.672.157.86.204 1.094.438.14.156.265.375.265.64 0 .5-.437 1-1.219 1A2.844 2.844 0 0 1 .5-1.094l-.125.719c.39.219 1.063.547 1.953.547 1.11 0 1.89-.813 1.89-1.703 0-.64-.374-1.016-.53-1.172-.329-.328-.704-.422-1.313-.563-.484-.109-.734-.171-.938-.359-.093-.11-.28-.281-.28-.594 0-.437.452-.906 1.218-.906.61 0 1.031.188 1.438.531zm0 0"/></symbol><symbol overflow="visible" id="bl"><path d="M5.516-5.531h-.688L3.812-3.078c-.046.125-.843 2.047-.906 2.453h-.015c-.079-.406-.875-2.344-.907-2.422L.97-5.53H.125L2.422 0h.797zm0 0"/></symbol><symbol overflow="visible" id="bm"><path d="M.781-5.531V0h2.266C4.484 0 5.64-1.219 5.64-2.719c0-1.562-1.172-2.812-2.594-2.812zM1.562-.47v-4.593h1.266c1.094 0 2.031.875 2.031 2.343 0 1.469-.984 2.25-2.03 2.25zm0 0"/></symbol><symbol overflow="visible" id="bn"><path d="M3.781-3.531h-.64C2.047-.875 2-.656 1.969-.47h-.016c-.062-.312-.281-.875-.531-1.484l-.64-1.578H.124L1.578 0h.734zm0 0"/></symbol><symbol overflow="visible" id="bo"><path d="M3.688-5.531h-.672v2.328a2.258 2.258 0 0 0-1.25-.422c-.844 0-1.485.844-1.485 1.86C.281-.75.921.077 1.734.077c.5 0 .954-.219 1.266-.5V0h.688zM3-.984c-.203.328-.5.53-.89.53-.563 0-1.126-.39-1.126-1.312 0-.984.672-1.328 1.22-1.328.312 0 .577.14.796.406zm0 0"/></symbol><clipPath id="a"><path d="M0 1h340.555v187.79H0zm0 0"/></clipPath><clipPath id="b"><path d="M28 32h1v156.79h-1zm0 0"/></clipPath><clipPath id="c"><path d="M56 32h2v156.79h-2zm0 0"/></clipPath><clipPath id="d"><path d="M85 32h1v156.79h-1zm0 0"/></clipPath><clipPath id="e"><path d="M113 32h1v156.79h-1zm0 0"/></clipPath><clipPath id="f"><path d="M141 32h2v156.79h-2zm0 0"/></clipPath><clipPath id="g"><path d="M170 32h1v156.79h-1zm0 0"/></clipPath><clipPath id="h"><path d="M198 32h1v156.79h-1zm0 0"/></clipPath><clipPath id="i"><path d="M226 32h2v156.79h-2zm0 0"/></clipPath><clipPath id="j"><path d="M255 32h1v156.79h-1zm0 0"/></clipPath><clipPath id="k"><path d="M283 32h1v156.79h-1zm0 0"/></clipPath><clipPath id="l"><path d="M311 32h2v156.79h-2zm0 0"/></clipPath><clipPath id="m"><path d="M0 32h340.555v1H0zm0 0"/></clipPath><clipPath id="n"><path d="M0 46h340.555v2H0zm0 0"/></clipPath><clipPath id="o"><path d="M0 60h340.555v2H0zm0 0"/></clipPath><clipPath id="p"><path d="M0 75h340.555v1H0zm0 0"/></clipPath><clipPath id="q"><path d="M0 89h340.555v1H0zm0 0"/></clipPath><clipPath id="r"><path d="M0 103h340.555v1H0zm0 0"/></clipPath><clipPath id="s"><path d="M0 117h340.555v1H0zm0 0"/></clipPath><clipPath id="t"><path d="M0 131h340.555v2H0zm0 0"/></clipPath><clipPath id="u"><path d="M0 145h340.555v2H0zm0 0"/></clipPath><clipPath id="v"><path d="M0 160h340.555v1H0zm0 0"/></clipPath><clipPath id="w"><path d="M0 174h340.555v1H0zm0 0"/></clipPath><clipPath id="B"><path d="M85 1h255.555v17H85zm0 0"/></clipPath><clipPath id="Y"><path d="M312 17h28.555v16H312zm0 0"/></clipPath><clipPath id="Z"><path d="M311 16h29.555v17H311zm0 0"/></clipPath><clipPath id="ab"><path d="M0 34h340.555v13H0zm0 0"/></clipPath><clipPath id="aN"><path d="M255 162h85.555v11H255zm0 0"/></clipPath></defs><g clip-path="url(#a)"><path d="M.2 188.594h340.16V1.504H.2zm0 0" fill="rgb(100%,100%,100%)" stroke-width="0.3985" stroke="rgb(0%,0%,0%)" stroke-miterlimit="10"/></g><g clip-path="url(#b)"><path d="M28.547 32.684v155.91" fill="none" stroke-width="0.3985" stroke="rgb(0%,0%,0%)" stroke-dasharray="0.3985,1.99255" stroke-miterlimit="10"/></g><g clip-path="url(#c)"><path d="M56.895 32.684v155.91" fill="none" stroke-width="0.3985" stroke="rgb(0%,0%,0%)" stroke-dasharray="0.3985,1.99255" stroke-miterlimit="10"/></g><g clip-path="url(#d)"><path d="M85.238 32.684v155.91" fill="none" stroke-width="0.3985" stroke="rgb(0%,0%,0%)" stroke-dasharray="0.3985,1.99255" stroke-miterlimit="10"/></g><g clip-path="url(#e)"><path d="M113.586 32.684v155.91" fill="none" stroke-width="0.3985" stroke="rgb(0%,0%,0%)" stroke-dasharray="0.3985,1.99255" stroke-miterlimit="10"/></g><g clip-path="url(#f)"><path d="M141.934 32.684v155.91" fill="none" stroke-width="0.3985" stroke="rgb(0%,0%,0%)" stroke-dasharray="0.3985,1.99255" stroke-miterlimit="10"/></g><g clip-path="url(#g)"><path d="M170.281 32.684v155.91" fill="none" stroke-width="0.3985" stroke="rgb(0%,0%,0%)" stroke-dasharray="0.3985,1.99255" stroke-miterlimit="10"/></g><g clip-path="url(#h)"><path d="M198.625 32.684v155.91" fill="none" stroke-width="0.3985" stroke="rgb(0%,0%,0%)" stroke-dasharray="0.3985,1.99255" stroke-miterlimit="10"/></g><g clip-path="url(#i)"><path d="M226.973 32.684v155.91" fill="none" stroke-width="0.3985" stroke="rgb(0%,0%,0%)" stroke-dasharray="0.3985,1.99255" stroke-miterlimit="10"/></g><g clip-path="url(#j)"><path d="M255.32 32.684v155.91" fill="none" stroke-width="0.3985" stroke="rgb(0%,0%,0%)" stroke-dasharray="0.3985,1.99255" stroke-miterlimit="10"/></g><g clip-path="url(#k)"><path d="M283.668 32.684v155.91" fill="none" stroke-width="0.3985" stroke="rgb(0%,0%,0%)" stroke-dasharray="0.3985,1.99255" stroke-miterlimit="10"/></g><g clip-path="url(#l)"><path d="M312.016 32.684v155.91" fill="none" stroke-width="0.3985" stroke="rgb(0%,0%,0%)" stroke-dasharray="0.3985,1.99255" stroke-miterlimit="10"/></g><g clip-path="url(#m)"><path d="M.2 32.684h340.16" fill="none" stroke-width="0.3985" stroke="rgb(0%,0%,0%)" stroke-dasharray="0.3985,1.99255" stroke-miterlimit="10"/></g><g clip-path="url(#n)"><path d="M.2 46.86h340.16" fill="none" stroke-width="0.3985" stroke="rgb(0%,0%,0%)" stroke-dasharray="0.3985,1.99255" stroke-miterlimit="10"/></g><g clip-path="url(#o)"><path d="M.2 61.031h340.16" fill="none" stroke-width="0.3985" stroke="rgb(0%,0%,0%)" stroke-dasharray="0.3985,1.99255" stroke-miterlimit="10"/></g><g clip-path="url(#p)"><path d="M.2 75.203h340.16" fill="none" stroke-width="0.3985" stroke="rgb(0%,0%,0%)" stroke-dasharray="0.3985,1.99255" stroke-miterlimit="10"/></g><g clip-path="url(#q)"><path d="M.2 89.379h340.16" fill="none" stroke-width="0.3985" stroke="rgb(0%,0%,0%)" stroke-dasharray="0.3985,1.99255" stroke-miterlimit="10"/></g><g clip-path="url(#r)"><path d="M.2 103.55h340.16" fill="none" stroke-width="0.3985" stroke="rgb(0%,0%,0%)" stroke-dasharray="0.3985,1.99255" stroke-miterlimit="10"/></g><g clip-path="url(#s)"><path d="M.2 117.727h340.16" fill="none" stroke-width="0.3985" stroke="rgb(0%,0%,0%)" stroke-dasharray="0.3985,1.99255" stroke-miterlimit="10"/></g><g clip-path="url(#t)"><path d="M.2 131.898h340.16" fill="none" stroke-width="0.3985" stroke="rgb(0%,0%,0%)" stroke-dasharray="0.3985,1.99255" stroke-miterlimit="10"/></g><g clip-path="url(#u)"><path d="M.2 146.07h340.16" fill="none" stroke-width="0.3985" stroke="rgb(0%,0%,0%)" stroke-dasharray="0.3985,1.99255" stroke-miterlimit="10"/></g><g clip-path="url(#v)"><path d="M.2 160.246h340.16" fill="none" stroke-width="0.3985" stroke="rgb(0%,0%,0%)" stroke-dasharray="0.3985,1.99255" stroke-miterlimit="10"/></g><g clip-path="url(#w)"><path d="M.2 174.418h340.16" fill="none" stroke-width="0.3985" stroke="rgb(0%,0%,0%)" stroke-dasharray="0.3985,1.99255" stroke-miterlimit="10"/></g><path d="M.2 17.094h85.038V1.504H.2zm0 0" fill="rgb(100%,100%,100%)" stroke-width="0.3985" stroke="rgb(0%,0%,0%)" stroke-miterlimit="10"/><g fill="rgb(0%,0%,0%)"><use xlink:href="#x" x="31.76" y="11.689"/><use xlink:href="#y" x="37.239" y="11.689"/><use xlink:href="#z" x="42.719" y="11.689"/><use xlink:href="#A" x="48.198" y="11.689"/></g><g clip-path="url(#B)"><path d="M85.238 17.094H340.36V1.504H85.24zm0 0" fill="rgb(100%,100%,100%)" stroke-width="0.3985" stroke="rgb(0%,0%,0%)" stroke-miterlimit="10"/></g><g fill="rgb(0%,0%,0%)"><use xlink:href="#x" x="201.839" y="11.689"/><use xlink:href="#y" x="207.318" y="11.689"/><use xlink:href="#z" x="212.798" y="11.689"/><use xlink:href="#C" x="218.277" y="11.689"/></g><path d="M.2 32.684h28.347v-15.59H.199zm0 0" fill="rgb(100%,100%,100%)" stroke-width="0.3985" stroke="rgb(0%,0%,0%)" stroke-miterlimit="10"/><g fill="rgb(0%,0%,0%)"><use xlink:href="#D" x="5.966" y="27.28"/><use xlink:href="#E" x="13.881" y="27.28"/><use xlink:href="#F" x="18.752" y="27.28"/></g><path d="M28.547 32.684h28.348v-15.59H28.547zm0 0" fill="rgb(100%,100%,100%)" stroke-width="0.3985" stroke="rgb(0%,0%,0%)" stroke-miterlimit="10"/><g fill="rgb(0%,0%,0%)"><use xlink:href="#G" x="33.531" y="27.28"/><use xlink:href="#H" x="41.446" y="27.28"/><use xlink:href="#I" x="46.926" y="27.28"/></g><path d="M56.895 32.684h28.343v-15.59H56.895zm0 0" fill="rgb(100%,100%,100%)" stroke-width="0.3985" stroke="rgb(0%,0%,0%)" stroke-miterlimit="10"/><g fill="rgb(0%,0%,0%)"><use xlink:href="#J" x="62.127" y="27.28"/><use xlink:href="#K" x="70.042" y="27.28"/><use xlink:href="#E" x="75.134" y="27.28"/></g><path d="M85.238 32.684h28.348v-15.59H85.238zm0 0" fill="rgb(100%,100%,100%)" stroke-width="0.3985" stroke="rgb(0%,0%,0%)" stroke-miterlimit="10"/><g fill="rgb(0%,0%,0%)"><use xlink:href="#L" x="91.414" y="27.28"/><use xlink:href="#M" x="96.589" y="27.28"/><use xlink:href="#N" x="101.819" y="27.28"/></g><path d="M113.586 32.684h28.348v-15.59h-28.348zm0 0" fill="rgb(100%,100%,100%)" stroke-width="0.3985" stroke="rgb(0%,0%,0%)" stroke-miterlimit="10"/><use xlink:href="#O" x="119.525" y="27.28" fill="rgb(0%,0%,0%)"/><g fill="rgb(0%,0%,0%)"><use xlink:href="#K" x="125.304" y="27.28"/><use xlink:href="#P" x="130.396" y="27.28"/></g><path d="M141.934 32.684h28.347v-15.59h-28.347zm0 0" fill="rgb(100%,100%,100%)" stroke-width="0.3985" stroke="rgb(0%,0%,0%)" stroke-miterlimit="10"/><g fill="rgb(0%,0%,0%)"><use xlink:href="#Q" x="146.917" y="27.28"/><use xlink:href="#M" x="156.658" y="27.28"/></g><use xlink:href="#R" x="161.58" y="27.28" fill="rgb(0%,0%,0%)"/><path d="M170.281 32.684h28.344v-15.59h-28.344zm0 0" fill="rgb(100%,100%,100%)" stroke-width="0.3985" stroke="rgb(0%,0%,0%)" stroke-miterlimit="10"/><g fill="rgb(0%,0%,0%)"><use xlink:href="#S" x="176.301" y="27.28"/><use xlink:href="#T" x="183.607" y="27.28"/></g><use xlink:href="#R" x="188.888" y="27.28" fill="rgb(0%,0%,0%)"/><path d="M198.625 32.684h28.348v-15.59h-28.348zm0 0" fill="rgb(100%,100%,100%)" stroke-width="0.3985" stroke="rgb(0%,0%,0%)" stroke-miterlimit="10"/><g fill="rgb(0%,0%,0%)"><use xlink:href="#Q" x="202.973" y="27.28"/><use xlink:href="#M" x="212.714" y="27.28"/></g><use xlink:href="#U" x="217.636" y="27.28" fill="rgb(0%,0%,0%)"/><path d="M226.973 32.684h28.347v-15.59h-28.347zm0 0" fill="rgb(100%,100%,100%)" stroke-width="0.3985" stroke="rgb(0%,0%,0%)" stroke-miterlimit="10"/><g fill="rgb(0%,0%,0%)"><use xlink:href="#L" x="232.966" y="27.28"/><use xlink:href="#V" x="238.141" y="27.28"/><use xlink:href="#N" x="243.731" y="27.28"/></g><path d="M255.32 32.684h28.348v-15.59H255.32zm0 0" fill="rgb(100%,100%,100%)" stroke-width="0.3985" stroke="rgb(0%,0%,0%)" stroke-miterlimit="10"/><g fill="rgb(0%,0%,0%)"><use xlink:href="#L" x="262.835" y="27.28"/><use xlink:href="#V" x="268.01" y="27.28"/><use xlink:href="#W" x="273.6" y="27.28"/></g><path d="M283.668 32.684h28.348v-15.59h-28.348zm0 0" fill="rgb(100%,100%,100%)" stroke-width="0.3985" stroke="rgb(0%,0%,0%)" stroke-miterlimit="10"/><g fill="rgb(0%,0%,0%)"><use xlink:href="#S" x="288.649" y="27.28"/><use xlink:href="#V" x="295.955" y="27.28"/><use xlink:href="#X" x="301.545" y="27.28"/></g><g clip-path="url(#Y)"><path d="M312.016 32.684h28.343v-15.59h-28.343zm0 0" fill="rgb(100%,100%,100%)"/></g><g clip-path="url(#Z)"><path d="M312.016 32.684h28.343v-15.59h-28.343zm0 0" fill="none" stroke-width="0.3985" stroke="rgb(0%,0%,0%)" stroke-miterlimit="10"/></g><g fill="rgb(0%,0%,0%)"><use xlink:href="#aa" x="317.798" y="27.28"/><use xlink:href="#K" x="323.886" y="27.28"/><use xlink:href="#T" x="328.978" y="27.28"/></g><g clip-path="url(#ab)"><path d="M-2.637 34.102h345.832v11.34l-5.668 1.417-5.672-1.418H8.703L3.035 46.86l-5.672-1.418zm0 0" fill="rgb(100%,62.5%,25%)"/></g><g fill="rgb(100%,100%,100%)"><use xlink:href="#ac" x="133.744" y="43.295"/><use xlink:href="#ad" x="141.05" y="43.295"/><use xlink:href="#K" x="146.64" y="43.295"/><use xlink:href="#R" x="151.731" y="43.295"/><use xlink:href="#ae" x="155.44" y="43.295"/><use xlink:href="#H" x="164.074" y="43.295"/></g><g fill="rgb(100%,100%,100%)"><use xlink:href="#K" x="169.862" y="43.295"/><use xlink:href="#W" x="174.954" y="43.295"/><use xlink:href="#K" x="177.501" y="43.295"/><use xlink:href="#E" x="182.593" y="43.295"/><use xlink:href="#F" x="187.463" y="43.295"/><use xlink:href="#R" x="191.49" y="43.295"/><use xlink:href="#af" x="195.198" y="43.295"/><use xlink:href="#E" x="197.745" y="43.295"/><use xlink:href="#ag" x="202.615" y="43.295"/></g><path d="M.2 58.906h113.386v-9.922H.199zm0 0" fill="rgb(0%,0%,59.999084%)"/><use xlink:href="#ah" x="27.77" y="56.186" fill="rgb(100%,100%,100%)"/><use xlink:href="#ai" x="32.342" y="56.186" fill="rgb(100%,100%,100%)"/><use xlink:href="#aj" x="36.59" y="56.186" fill="rgb(100%,100%,100%)"/><use xlink:href="#ai" x="39.729" y="56.186" fill="rgb(100%,100%,100%)"/><use xlink:href="#ai" x="46.99" y="56.186" fill="rgb(100%,100%,100%)"/><use xlink:href="#ak" x="51.23" y="56.186" fill="rgb(100%,100%,100%)"/><use xlink:href="#al" x="55.137" y="56.186" fill="rgb(100%,100%,100%)"/><use xlink:href="#am" x="59.718" y="56.186" fill="rgb(100%,100%,100%)"/><use xlink:href="#an" x="64.29" y="56.186" fill="rgb(100%,100%,100%)"/><use xlink:href="#ao" x="66.311" y="56.186" fill="rgb(100%,100%,100%)"/><use xlink:href="#an" x="69.656" y="56.186" fill="rgb(100%,100%,100%)"/><use xlink:href="#aj" x="71.668" y="56.186" fill="rgb(100%,100%,100%)"/><use xlink:href="#an" x="74.816" y="56.186" fill="rgb(100%,100%,100%)"/><use xlink:href="#ap" x="76.828" y="56.186" fill="rgb(100%,100%,100%)"/><use xlink:href="#aq" x="81.256" y="56.186" fill="rgb(100%,100%,100%)"/><path d="M.2 73.078h56.695v-9.922H.199zm0 0" fill="rgb(0%,0%,59.999084%)"/><use xlink:href="#ar" x="5.196" y="70.359" fill="rgb(100%,100%,100%)"/><use xlink:href="#as" x="11.67" y="70.359" fill="rgb(100%,100%,100%)"/><use xlink:href="#ap" x="14.639" y="70.359" fill="rgb(100%,100%,100%)"/><use xlink:href="#at" x="19.058" y="70.359" fill="rgb(100%,100%,100%)"/><use xlink:href="#ap" x="23.89" y="70.359" fill="rgb(100%,100%,100%)"/><use xlink:href="#am" x="28.319" y="70.359" fill="rgb(100%,100%,100%)"/><use xlink:href="#aj" x="32.891" y="70.359" fill="rgb(100%,100%,100%)"/><use xlink:href="#au" x="39.042" y="70.359" fill="rgb(100%,100%,100%)"/><use xlink:href="#au" x="45.38" y="70.359" fill="rgb(100%,100%,100%)"/><path d="M56.895 87.254h141.73v-9.922H56.895zm0 0" fill="rgb(0%,0%,59.999084%)"/><use xlink:href="#av" x="91.243" y="84.532" fill="rgb(100%,100%,100%)"/><use xlink:href="#aw" x="97.571" y="84.532" fill="rgb(100%,100%,100%)"/><use xlink:href="#at" x="101.64" y="84.532" fill="rgb(100%,100%,100%)"/><use xlink:href="#ax" x="106.472" y="84.532" fill="rgb(100%,100%,100%)"/><use xlink:href="#as" x="110.38" y="84.532" fill="rgb(100%,100%,100%)"/><use xlink:href="#ay" x="116.353" y="84.532" fill="rgb(100%,100%,100%)"/><use xlink:href="#at" x="122.981" y="84.532" fill="rgb(100%,100%,100%)"/><use xlink:href="#aj" x="127.553" y="84.532" fill="rgb(100%,100%,100%)"/><use xlink:href="#an" x="130.701" y="84.532" fill="rgb(100%,100%,100%)"/><use xlink:href="#az" x="132.713" y="84.532" fill="rgb(100%,100%,100%)"/><use xlink:href="#an" x="139.853" y="84.532" fill="rgb(100%,100%,100%)"/><use xlink:href="#aA" x="141.866" y="84.532" fill="rgb(100%,100%,100%)"/><use xlink:href="#ai" x="145.683" y="84.532" fill="rgb(100%,100%,100%)"/><use xlink:href="#aj" x="149.932" y="84.532" fill="rgb(100%,100%,100%)"/><use xlink:href="#an" x="153.071" y="84.532" fill="rgb(100%,100%,100%)"/><use xlink:href="#ap" x="155.092" y="84.532" fill="rgb(100%,100%,100%)"/><use xlink:href="#aq" x="159.511" y="84.532" fill="rgb(100%,100%,100%)"/><path d="M56.895 101.426h56.69v-9.922h-56.69zm0 0" fill="rgb(0%,0%,59.999084%)"/><use xlink:href="#aB" x="76.418" y="99.577" fill="rgb(100%,100%,100%)"/><use xlink:href="#aC" x="82.373" y="99.577" fill="rgb(100%,100%,100%)"/><use xlink:href="#aD" x="88.089" y="99.577" fill="rgb(100%,100%,100%)"/><path d="M85.238 115.598h85.043v-9.922H85.238zm0 0" fill="rgb(0%,0%,59.999084%)"/><use xlink:href="#av" x="117.713" y="113.75" fill="rgb(100%,100%,100%)"/><use xlink:href="#aE" x="124.05" y="113.75" fill="rgb(100%,100%,100%)"/><use xlink:href="#aF" x="131.915" y="113.75" fill="rgb(100%,100%,100%)"/><path d="M141.934 129.773h56.691v-9.921h-56.691zm0 0" fill="rgb(0%,0%,59.999084%)"/><use xlink:href="#aG" x="158.641" y="127.923" fill="rgb(100%,100%,100%)"/><use xlink:href="#aH" x="163.573" y="127.923" fill="rgb(100%,100%,100%)"/><use xlink:href="#aB" x="169.29" y="127.923" fill="rgb(100%,100%,100%)"/><use xlink:href="#ar" x="175.255" y="127.923" fill="rgb(100%,100%,100%)"/><path d="M170.281 143.945h56.692v-9.922H170.28zm0 0" fill="rgb(0%,0%,59.999084%)"/><use xlink:href="#aI" x="170.412" y="141.225" fill="rgb(100%,100%,100%)"/><use xlink:href="#ax" x="175.247" y="141.225" fill="rgb(100%,100%,100%)"/><use xlink:href="#ai" x="179.163" y="141.225" fill="rgb(100%,100%,100%)"/><use xlink:href="#ah" x="183.403" y="141.225" fill="rgb(100%,100%,100%)"/><use xlink:href="#ax" x="187.983" y="141.225" fill="rgb(100%,100%,100%)"/><use xlink:href="#as" x="191.891" y="141.225" fill="rgb(100%,100%,100%)"/><use xlink:href="#aJ" x="194.86" y="141.225" fill="rgb(100%,100%,100%)"/><use xlink:href="#ap" x="199.692" y="141.225" fill="rgb(100%,100%,100%)"/><use xlink:href="#ai" x="204.111" y="141.225" fill="rgb(100%,100%,100%)"/><use xlink:href="#as" x="208.1" y="141.225" fill="rgb(100%,100%,100%)"/><use xlink:href="#ah" x="211.059" y="141.225" fill="rgb(100%,100%,100%)"/><use xlink:href="#an" x="215.64" y="141.225" fill="rgb(100%,100%,100%)"/><use xlink:href="#aq" x="217.652" y="141.225" fill="rgb(100%,100%,100%)"/><use xlink:href="#aK" x="222.233" y="141.225" fill="rgb(100%,100%,100%)"/><path d="M226.973 158.117h85.043V148.2h-85.043zm0 0" fill="rgb(0%,0%,59.999084%)"/><use xlink:href="#ar" x="260.556" y="156.27" fill="rgb(100%,100%,100%)"/><use xlink:href="#aL" x="267.039" y="156.27" fill="rgb(100%,100%,100%)"/><use xlink:href="#aM" x="272.129" y="156.27" fill="rgb(100%,100%,100%)"/><g clip-path="url(#aN)"><path d="M255.32 172.293h85.04v-9.922h-85.04zm0 0" fill="rgb(0%,0%,59.999084%)"/></g><use xlink:href="#ai" x="279.241" y="170.443" fill="rgb(100%,100%,100%)"/><use xlink:href="#ak" x="283.48" y="170.443" fill="rgb(100%,100%,100%)"/><use xlink:href="#aj" x="287.397" y="170.443" fill="rgb(100%,100%,100%)"/><use xlink:href="#an" x="290.536" y="170.443" fill="rgb(100%,100%,100%)"/><use xlink:href="#aO" x="292.557" y="170.443" fill="rgb(100%,100%,100%)"/><use xlink:href="#ax" x="296.617" y="170.443" fill="rgb(100%,100%,100%)"/><use xlink:href="#aE" x="303.537" y="170.443" fill="rgb(100%,100%,100%)"/><use xlink:href="#aI" x="311.411" y="170.443" fill="rgb(100%,100%,100%)"/><path d="M5.18 183.527h151.695v-32.652H5.18zm0 0" fill="rgb(39.99939%,39.99939%,39.99939%)"/><g fill="rgb(100%,100%,100%)"><use xlink:href="#aP" x="8.501" y="159.728"/><use xlink:href="#aQ" x="14.146" y="159.728"/><use xlink:href="#aR" x="19.556" y="159.728"/><use xlink:href="#aS" x="25.036" y="159.728"/></g><g fill="rgb(100%,100%,100%)"><use xlink:href="#aP" x="30.209" y="159.728"/><use xlink:href="#aT" x="35.854" y="159.728"/><use xlink:href="#aU" x="39.922" y="159.728"/><use xlink:href="#aV" x="44.295" y="159.728"/><use xlink:href="#aV" x="47.541" y="159.728"/><use xlink:href="#aW" x="50.787" y="159.728"/><use xlink:href="#aT" x="52.808" y="159.728"/><use xlink:href="#aX" x="56.876" y="159.728"/></g><use xlink:href="#aY" x="64.077" y="159.728" fill="rgb(100%,100%,100%)"/><g fill="rgb(100%,100%,100%)"><use xlink:href="#aZ" x="68.211" y="159.728"/><use xlink:href="#ba" x="71.103" y="159.728"/></g><use xlink:href="#bb" x="75.569" y="159.728" fill="rgb(100%,100%,100%)"/><g fill="rgb(100%,100%,100%)"><use xlink:href="#bc" x="79.34" y="159.728"/><use xlink:href="#aV" x="83.104" y="159.728"/><use xlink:href="#aV" x="86.35" y="159.728"/></g><g fill="rgb(100%,100%,100%)"><use xlink:href="#aZ" x="92.417" y="159.728"/><use xlink:href="#bc" x="95.31" y="159.728"/><use xlink:href="#bd" x="99.073" y="159.728"/><use xlink:href="#aZ" x="103.308" y="159.728"/><use xlink:href="#bc" x="106.2" y="159.728"/><use xlink:href="#aV" x="109.964" y="159.728"/><use xlink:href="#aV" x="113.21" y="159.728"/><use xlink:href="#aW" x="116.456" y="159.728"/><use xlink:href="#ba" x="118.476" y="159.728"/><use xlink:href="#aX" x="122.711" y="159.728"/></g><g fill="rgb(100%,100%,100%)"><use xlink:href="#be" x="8.501" y="169.192"/><use xlink:href="#bf" x="14.479" y="169.192"/><use xlink:href="#bg" x="21.868" y="169.192"/><use xlink:href="#aS" x="27.278" y="169.192"/></g><g fill="rgb(100%,100%,100%)"><use xlink:href="#be" x="32.451" y="169.192"/><use xlink:href="#aT" x="38.429" y="169.192"/><use xlink:href="#bh" x="42.497" y="169.192"/><use xlink:href="#aW" x="49.222" y="169.192"/><use xlink:href="#bi" x="51.242" y="169.192"/><use xlink:href="#bj" x="53.263" y="169.192"/><use xlink:href="#ba" x="56.321" y="169.192"/><use xlink:href="#aX" x="60.555" y="169.192"/><use xlink:href="#aW" x="64.928" y="169.192"/><use xlink:href="#aT" x="66.948" y="169.192"/><use xlink:href="#aX" x="71.016" y="169.192"/></g><g fill="rgb(100%,100%,100%)"><use xlink:href="#bf" x="78.21" y="169.192"/><use xlink:href="#ba" x="85.599" y="169.192"/><use xlink:href="#aX" x="89.833" y="169.192"/><use xlink:href="#bj" x="94.206" y="169.192"/><use xlink:href="#bc" x="97.264" y="169.192"/></g><use xlink:href="#bg" x="103.849" y="169.192" fill="rgb(100%,100%,100%)"/><use xlink:href="#aT" x="109.267" y="169.192" fill="rgb(100%,100%,100%)"/><g fill="rgb(100%,100%,100%)"><use xlink:href="#aZ" x="113.096" y="169.192"/><use xlink:href="#bi" x="115.988" y="169.192"/><use xlink:href="#ba" x="118.009" y="169.192"/></g><g fill="rgb(100%,100%,100%)"><use xlink:href="#bk" x="8.501" y="178.657"/><use xlink:href="#bl" x="13.206" y="178.657"/></g><g fill="rgb(100%,100%,100%)"><use xlink:href="#aP" x="18.62" y="178.657"/><use xlink:href="#bm" x="24.265" y="178.657"/><use xlink:href="#aS" x="30.381" y="178.657"/></g><g fill="rgb(100%,100%,100%)"><use xlink:href="#bk" x="35.555" y="178.657"/><use xlink:href="#bj" x="40.259" y="178.657"/><use xlink:href="#bc" x="43.318" y="178.657"/><use xlink:href="#aW" x="47.081" y="178.657"/><use xlink:href="#aX" x="49.101" y="178.657"/></g><g fill="rgb(100%,100%,100%)"><use xlink:href="#bn" x="56.295" y="178.657"/><use xlink:href="#aT" x="60.197" y="178.657"/></g><g fill="rgb(100%,100%,100%)"><use xlink:href="#aZ" x="64.026" y="178.657"/><use xlink:href="#aW" x="66.919" y="178.657"/><use xlink:href="#aT" x="68.939" y="178.657"/><use xlink:href="#bj" x="73.007" y="178.657"/><use xlink:href="#aW" x="76.065" y="178.657"/><use xlink:href="#ba" x="78.086" y="178.657"/><use xlink:href="#aX" x="82.32" y="178.657"/><use xlink:href="#aT" x="86.692" y="178.657"/><use xlink:href="#bi" x="90.76" y="178.657"/></g><g fill="rgb(100%,100%,100%)"><use xlink:href="#bd" x="95.602" y="178.657"/><use xlink:href="#aZ" x="99.837" y="178.657"/><use xlink:href="#aT" x="102.729" y="178.657"/><use xlink:href="#bo" x="106.797" y="178.657"/><use xlink:href="#aW" x="111.169" y="178.657"/><use xlink:href="#bc" x="113.19" y="178.657"/><use xlink:href="#aX" x="116.953" y="178.657"/><use xlink:href="#bj" x="121.326" y="178.657"/></g><g fill="rgb(100%,100%,100%)"><use xlink:href="#bo" x="127.213" y="178.657"/><use xlink:href="#bc" x="131.586" y="178.657"/><use xlink:href="#aV" x="135.349" y="178.657"/><use xlink:href="#bb" x="138.595" y="178.657"/><use xlink:href="#bc" x="142.359" y="178.657"/><use xlink:href="#aX" x="146.122" y="178.657"/><use xlink:href="#bj" x="150.495" y="178.657"/></g></svg>