<svg xmlns="http://www.w3.org/2000/svg" xmlns:xlink="http://www.w3.org/1999/xlink" width="217.46" height="39.24" viewBox="0 0 163.095 29.43"><defs><clipPath id="g"><path d="M74 15h16v14.43H74Zm0 0"/></clipPath><clipPath id="h"><path d="M69 9h26v20.43H69Zm0 0"/></clipPath><clipPath id="i"><path d="M74 28.434h1.719v.996H74Zm0 0"/></clipPath><clipPath id="j"><path d="M89.043 22.145a7.085 7.085 0 0 0-7.086-7.086 7.085 7.085 0 0 0-7.086 7.086 7.085 7.085 0 0 0 7.086 7.085 7.085 7.085 0 0 0 7.086-7.085Zm0 0"/></clipPath><clipPath id="k"><path d="M74 28.434h4.707v.996H74Zm0 0"/></clipPath><clipPath id="l"><path d="M89.043 22.145a7.085 7.085 0 0 0-7.086-7.086 7.085 7.085 0 0 0-7.086 7.086 7.085 7.085 0 0 0 7.086 7.085 7.085 7.085 0 0 0 7.086-7.085Zm0 0"/></clipPath><clipPath id="m"><path d="M76.715 28.434h4.98v.996h-4.98Zm0 0"/></clipPath><clipPath id="n"><path d="M89.043 22.145a7.085 7.085 0 0 0-7.086-7.086 7.085 7.085 0 0 0-7.086 7.086 7.085 7.085 0 0 0 7.086 7.085 7.085 7.085 0 0 0 7.086-7.085Zm0 0"/></clipPath><clipPath id="o"><path d="M79.703 28.434h4.98v.996h-4.98Zm0 0"/></clipPath><clipPath id="p"><path d="M89.043 22.145a7.085 7.085 0 0 0-7.086-7.086 7.085 7.085 0 0 0-7.086 7.086 7.085 7.085 0 0 0 7.086 7.085 7.085 7.085 0 0 0 7.086-7.085Zm0 0"/></clipPath><clipPath id="q"><path d="M82.691 28.434h4.98v.996h-4.98Zm0 0"/></clipPath><clipPath id="r"><path d="M89.043 22.145a7.085 7.085 0 0 0-7.086-7.086 7.085 7.085 0 0 0-7.086 7.086 7.085 7.085 0 0 0 7.086 7.085 7.085 7.085 0 0 0 7.086-7.085Zm0 0"/></clipPath><clipPath id="s"><path d="M85.68 28.434H90v.996h-4.32Zm0 0"/></clipPath><clipPath id="t"><path d="M89.043 22.145a7.085 7.085 0 0 0-7.086-7.086 7.085 7.085 0 0 0-7.086 7.086 7.085 7.085 0 0 0 7.086 7.085 7.085 7.085 0 0 0 7.086-7.085Zm0 0"/></clipPath><clipPath id="u"><path d="M88.668 28.434H90v.996h-1.332Zm0 0"/></clipPath><clipPath id="v"><path d="M89.043 22.145a7.085 7.085 0 0 0-7.086-7.086 7.085 7.085 0 0 0-7.086 7.086 7.085 7.085 0 0 0 7.086 7.085 7.085 7.085 0 0 0 7.086-7.085Zm0 0"/></clipPath><clipPath id="w"><path d="M74 25.445h1.719v3.985H74Zm0 0"/></clipPath><clipPath id="x"><path d="M89.043 22.145a7.085 7.085 0 0 0-7.086-7.086 7.085 7.085 0 0 0-7.086 7.086 7.085 7.085 0 0 0 7.086 7.085 7.085 7.085 0 0 0 7.086-7.085Zm0 0"/></clipPath><clipPath id="y"><path d="M74 25.445h4.707v3.985H74Zm0 0"/></clipPath><clipPath id="z"><path d="M89.043 22.145a7.085 7.085 0 0 0-7.086-7.086 7.085 7.085 0 0 0-7.086 7.086 7.085 7.085 0 0 0 7.086 7.085 7.085 7.085 0 0 0 7.086-7.085Zm0 0"/></clipPath><clipPath id="A"><path d="M76.715 25.445h4.98v3.985h-4.98Zm0 0"/></clipPath><clipPath id="B"><path d="M89.043 22.145a7.085 7.085 0 0 0-7.086-7.086 7.085 7.085 0 0 0-7.086 7.086 7.085 7.085 0 0 0 7.086 7.085 7.085 7.085 0 0 0 7.086-7.085Zm0 0"/></clipPath><clipPath id="C"><path d="M79.703 25.445h4.98v3.985h-4.98Zm0 0"/></clipPath><clipPath id="D"><path d="M89.043 22.145a7.085 7.085 0 0 0-7.086-7.086 7.085 7.085 0 0 0-7.086 7.086 7.085 7.085 0 0 0 7.086 7.085 7.085 7.085 0 0 0 7.086-7.085Zm0 0"/></clipPath><clipPath id="E"><path d="M82.691 25.445h4.98v3.985h-4.98Zm0 0"/></clipPath><clipPath id="F"><path d="M89.043 22.145a7.085 7.085 0 0 0-7.086-7.086 7.085 7.085 0 0 0-7.086 7.086 7.085 7.085 0 0 0 7.086 7.085 7.085 7.085 0 0 0 7.086-7.085Zm0 0"/></clipPath><clipPath id="G"><path d="M85.68 25.445H90v3.985h-4.32Zm0 0"/></clipPath><clipPath id="H"><path d="M89.043 22.145a7.085 7.085 0 0 0-7.086-7.086 7.085 7.085 0 0 0-7.086 7.086 7.085 7.085 0 0 0 7.086 7.085 7.085 7.085 0 0 0 7.086-7.085Zm0 0"/></clipPath><clipPath id="I"><path d="M88.668 25.445H90v3.985h-1.332Zm0 0"/></clipPath><clipPath id="J"><path d="M89.043 22.145a7.085 7.085 0 0 0-7.086-7.086 7.085 7.085 0 0 0-7.086 7.086 7.085 7.085 0 0 0 7.086 7.085 7.085 7.085 0 0 0 7.086-7.085Zm0 0"/></clipPath><clipPath id="K"><path d="M74 22.457h1.719v4.98H74Zm0 0"/></clipPath><clipPath id="L"><path d="M89.043 22.145a7.085 7.085 0 0 0-7.086-7.086 7.085 7.085 0 0 0-7.086 7.086 7.085 7.085 0 0 0 7.086 7.085 7.085 7.085 0 0 0 7.086-7.085Zm0 0"/></clipPath><clipPath id="M"><path d="M74 22.457h4.707v4.98H74Zm0 0"/></clipPath><clipPath id="N"><path d="M89.043 22.145a7.085 7.085 0 0 0-7.086-7.086 7.085 7.085 0 0 0-7.086 7.086 7.085 7.085 0 0 0 7.086 7.085 7.085 7.085 0 0 0 7.086-7.085Zm0 0"/></clipPath><clipPath id="O"><path d="M76.715 22.457h4.98v4.98h-4.98Zm0 0"/></clipPath><clipPath id="P"><path d="M89.043 22.145a7.085 7.085 0 0 0-7.086-7.086 7.085 7.085 0 0 0-7.086 7.086 7.085 7.085 0 0 0 7.086 7.085 7.085 7.085 0 0 0 7.086-7.085Zm0 0"/></clipPath><clipPath id="Q"><path d="M79.703 22.457h4.98v4.98h-4.98Zm0 0"/></clipPath><clipPath id="R"><path d="M89.043 22.145a7.085 7.085 0 0 0-7.086-7.086 7.085 7.085 0 0 0-7.086 7.086 7.085 7.085 0 0 0 7.086 7.085 7.085 7.085 0 0 0 7.086-7.085Zm0 0"/></clipPath><clipPath id="S"><path d="M82.691 22.457h4.98v4.98h-4.98Zm0 0"/></clipPath><clipPath id="T"><path d="M89.043 22.145a7.085 7.085 0 0 0-7.086-7.086 7.085 7.085 0 0 0-7.086 7.086 7.085 7.085 0 0 0 7.086 7.085 7.085 7.085 0 0 0 7.086-7.085Zm0 0"/></clipPath><clipPath id="U"><path d="M85.68 22.457H90v4.98h-4.32Zm0 0"/></clipPath><clipPath id="V"><path d="M89.043 22.145a7.085 7.085 0 0 0-7.086-7.086 7.085 7.085 0 0 0-7.086 7.086 7.085 7.085 0 0 0 7.086 7.085 7.085 7.085 0 0 0 7.086-7.085Zm0 0"/></clipPath><clipPath id="W"><path d="M88.668 22.457H90v4.98h-1.332Zm0 0"/></clipPath><clipPath id="X"><path d="M89.043 22.145a7.085 7.085 0 0 0-7.086-7.086 7.085 7.085 0 0 0-7.086 7.086 7.085 7.085 0 0 0 7.086 7.085 7.085 7.085 0 0 0 7.086-7.085Zm0 0"/></clipPath><clipPath id="Y"><path d="M74 19.469h1.719v4.98H74Zm0 0"/></clipPath><clipPath id="Z"><path d="M89.043 22.145a7.085 7.085 0 0 0-7.086-7.086 7.085 7.085 0 0 0-7.086 7.086 7.085 7.085 0 0 0 7.086 7.085 7.085 7.085 0 0 0 7.086-7.085Zm0 0"/></clipPath><clipPath id="aa"><path d="M74 19.469h4.707v4.98H74Zm0 0"/></clipPath><clipPath id="ab"><path d="M89.043 22.145a7.085 7.085 0 0 0-7.086-7.086 7.085 7.085 0 0 0-7.086 7.086 7.085 7.085 0 0 0 7.086 7.085 7.085 7.085 0 0 0 7.086-7.085Zm0 0"/></clipPath><clipPath id="ac"><path d="M76.715 19.469h4.98v4.98h-4.98Zm0 0"/></clipPath><clipPath id="ad"><path d="M89.043 22.145a7.085 7.085 0 0 0-7.086-7.086 7.085 7.085 0 0 0-7.086 7.086 7.085 7.085 0 0 0 7.086 7.085 7.085 7.085 0 0 0 7.086-7.085Zm0 0"/></clipPath><clipPath id="ae"><path d="M79.703 19.469h4.98v4.98h-4.98Zm0 0"/></clipPath><clipPath id="af"><path d="M89.043 22.145a7.085 7.085 0 0 0-7.086-7.086 7.085 7.085 0 0 0-7.086 7.086 7.085 7.085 0 0 0 7.086 7.085 7.085 7.085 0 0 0 7.086-7.085Zm0 0"/></clipPath><clipPath id="ag"><path d="M82.691 19.469h4.98v4.98h-4.98Zm0 0"/></clipPath><clipPath id="ah"><path d="M89.043 22.145a7.085 7.085 0 0 0-7.086-7.086 7.085 7.085 0 0 0-7.086 7.086 7.085 7.085 0 0 0 7.086 7.085 7.085 7.085 0 0 0 7.086-7.085Zm0 0"/></clipPath><clipPath id="ai"><path d="M85.68 19.469H90v4.98h-4.32Zm0 0"/></clipPath><clipPath id="aj"><path d="M89.043 22.145a7.085 7.085 0 0 0-7.086-7.086 7.085 7.085 0 0 0-7.086 7.086 7.085 7.085 0 0 0 7.086 7.085 7.085 7.085 0 0 0 7.086-7.085Zm0 0"/></clipPath><clipPath id="ak"><path d="M88.668 19.469H90v4.98h-1.332Zm0 0"/></clipPath><clipPath id="al"><path d="M89.043 22.145a7.085 7.085 0 0 0-7.086-7.086 7.085 7.085 0 0 0-7.086 7.086 7.085 7.085 0 0 0 7.086 7.085 7.085 7.085 0 0 0 7.086-7.085Zm0 0"/></clipPath><clipPath id="am"><path d="M74 16.477h1.719v4.984H74Zm0 0"/></clipPath><clipPath id="an"><path d="M89.043 22.145a7.085 7.085 0 0 0-7.086-7.086 7.085 7.085 0 0 0-7.086 7.086 7.085 7.085 0 0 0 7.086 7.085 7.085 7.085 0 0 0 7.086-7.085Zm0 0"/></clipPath><clipPath id="ao"><path d="M74 16.477h4.707v4.984H74Zm0 0"/></clipPath><clipPath id="ap"><path d="M89.043 22.145a7.085 7.085 0 0 0-7.086-7.086 7.085 7.085 0 0 0-7.086 7.086 7.085 7.085 0 0 0 7.086 7.085 7.085 7.085 0 0 0 7.086-7.085Zm0 0"/></clipPath><clipPath id="aq"><path d="M76.715 16.477h4.98v4.984h-4.98Zm0 0"/></clipPath><clipPath id="ar"><path d="M89.043 22.145a7.085 7.085 0 0 0-7.086-7.086 7.085 7.085 0 0 0-7.086 7.086 7.085 7.085 0 0 0 7.086 7.085 7.085 7.085 0 0 0 7.086-7.085Zm0 0"/></clipPath><clipPath id="as"><path d="M79.703 16.477h4.98v4.984h-4.98Zm0 0"/></clipPath><clipPath id="at"><path d="M89.043 22.145a7.085 7.085 0 0 0-7.086-7.086 7.085 7.085 0 0 0-7.086 7.086 7.085 7.085 0 0 0 7.086 7.085 7.085 7.085 0 0 0 7.086-7.085Zm0 0"/></clipPath><clipPath id="au"><path d="M82.691 16.477h4.98v4.984h-4.98Zm0 0"/></clipPath><clipPath id="av"><path d="M89.043 22.145a7.085 7.085 0 0 0-7.086-7.086 7.085 7.085 0 0 0-7.086 7.086 7.085 7.085 0 0 0 7.086 7.085 7.085 7.085 0 0 0 7.086-7.085Zm0 0"/></clipPath><clipPath id="aw"><path d="M85.68 16.477H90v4.984h-4.32Zm0 0"/></clipPath><clipPath id="ax"><path d="M89.043 22.145a7.085 7.085 0 0 0-7.086-7.086 7.085 7.085 0 0 0-7.086 7.086 7.085 7.085 0 0 0 7.086 7.085 7.085 7.085 0 0 0 7.086-7.085Zm0 0"/></clipPath><clipPath id="ay"><path d="M88.668 16.477H90v4.984h-1.332Zm0 0"/></clipPath><clipPath id="az"><path d="M89.043 22.145a7.085 7.085 0 0 0-7.086-7.086 7.085 7.085 0 0 0-7.086 7.086 7.085 7.085 0 0 0 7.086 7.085 7.085 7.085 0 0 0 7.086-7.085Zm0 0"/></clipPath><clipPath id="aA"><path d="M74 15h1.719v3.473H74Zm0 0"/></clipPath><clipPath id="aB"><path d="M89.043 22.145a7.085 7.085 0 0 0-7.086-7.086 7.085 7.085 0 0 0-7.086 7.086 7.085 7.085 0 0 0 7.086 7.085 7.085 7.085 0 0 0 7.086-7.085Zm0 0"/></clipPath><clipPath id="aC"><path d="M74 15h4.707v3.473H74Zm0 0"/></clipPath><clipPath id="aD"><path d="M89.043 22.145a7.085 7.085 0 0 0-7.086-7.086 7.085 7.085 0 0 0-7.086 7.086 7.085 7.085 0 0 0 7.086 7.085 7.085 7.085 0 0 0 7.086-7.085Zm0 0"/></clipPath><clipPath id="aE"><path d="M76.715 15h4.98v3.473h-4.98Zm0 0"/></clipPath><clipPath id="aF"><path d="M89.043 22.145a7.085 7.085 0 0 0-7.086-7.086 7.085 7.085 0 0 0-7.086 7.086 7.085 7.085 0 0 0 7.086 7.085 7.085 7.085 0 0 0 7.086-7.085Zm0 0"/></clipPath><clipPath id="aG"><path d="M79.703 15h4.98v3.473h-4.98Zm0 0"/></clipPath><clipPath id="aH"><path d="M89.043 22.145a7.085 7.085 0 0 0-7.086-7.086 7.085 7.085 0 0 0-7.086 7.086 7.085 7.085 0 0 0 7.086 7.085 7.085 7.085 0 0 0 7.086-7.085Zm0 0"/></clipPath><clipPath id="aI"><path d="M82.691 15h4.98v3.473h-4.98Zm0 0"/></clipPath><clipPath id="aJ"><path d="M89.043 22.145a7.085 7.085 0 0 0-7.086-7.086 7.085 7.085 0 0 0-7.086 7.086 7.085 7.085 0 0 0 7.086 7.085 7.085 7.085 0 0 0 7.086-7.085Zm0 0"/></clipPath><clipPath id="aK"><path d="M85.68 15H90v3.473h-4.32Zm0 0"/></clipPath><clipPath id="aL"><path d="M89.043 22.145a7.085 7.085 0 0 0-7.086-7.086 7.085 7.085 0 0 0-7.086 7.086 7.085 7.085 0 0 0 7.086 7.085 7.085 7.085 0 0 0 7.086-7.085Zm0 0"/></clipPath><clipPath id="aM"><path d="M88.668 15H90v3.473h-1.332Zm0 0"/></clipPath><clipPath id="aN"><path d="M89.043 22.145a7.085 7.085 0 0 0-7.086-7.086 7.085 7.085 0 0 0-7.086 7.086 7.085 7.085 0 0 0 7.086 7.085 7.085 7.085 0 0 0 7.086-7.085Zm0 0"/></clipPath><clipPath id="aO"><path d="M74 15h1.719v.48H74Zm0 0"/></clipPath><clipPath id="aP"><path d="M89.043 22.145a7.085 7.085 0 0 0-7.086-7.086 7.085 7.085 0 0 0-7.086 7.086 7.085 7.085 0 0 0 7.086 7.085 7.085 7.085 0 0 0 7.086-7.085Zm0 0"/></clipPath><clipPath id="aQ"><path d="M74 15h4.707v.48H74Zm0 0"/></clipPath><clipPath id="aR"><path d="M89.043 22.145a7.085 7.085 0 0 0-7.086-7.086 7.085 7.085 0 0 0-7.086 7.086 7.085 7.085 0 0 0 7.086 7.085 7.085 7.085 0 0 0 7.086-7.085Zm0 0"/></clipPath><clipPath id="aS"><path d="M76.715 15h4.98v.48h-4.98Zm0 0"/></clipPath><clipPath id="aT"><path d="M89.043 22.145a7.085 7.085 0 0 0-7.086-7.086 7.085 7.085 0 0 0-7.086 7.086 7.085 7.085 0 0 0 7.086 7.085 7.085 7.085 0 0 0 7.086-7.085Zm0 0"/></clipPath><clipPath id="aU"><path d="M79.703 15h4.98v.48h-4.98Zm0 0"/></clipPath><clipPath id="aV"><path d="M89.043 22.145a7.085 7.085 0 0 0-7.086-7.086 7.085 7.085 0 0 0-7.086 7.086 7.085 7.085 0 0 0 7.086 7.085 7.085 7.085 0 0 0 7.086-7.085Zm0 0"/></clipPath><clipPath id="aW"><path d="M82.691 15h4.98v.48h-4.98Zm0 0"/></clipPath><clipPath id="aX"><path d="M89.043 22.145a7.085 7.085 0 0 0-7.086-7.086 7.085 7.085 0 0 0-7.086 7.086 7.085 7.085 0 0 0 7.086 7.085 7.085 7.085 0 0 0 7.086-7.085Zm0 0"/></clipPath><clipPath id="aY"><path d="M85.68 15H90v.48h-4.32Zm0 0"/></clipPath><clipPath id="aZ"><path d="M89.043 22.145a7.085 7.085 0 0 0-7.086-7.086 7.085 7.085 0 0 0-7.086 7.086 7.085 7.085 0 0 0 7.086 7.085 7.085 7.085 0 0 0 7.086-7.085Zm0 0"/></clipPath><clipPath id="ba"><path d="M88.668 15H90v.48h-1.332Zm0 0"/></clipPath><clipPath id="bb"><path d="M89.043 22.145a7.085 7.085 0 0 0-7.086-7.086 7.085 7.085 0 0 0-7.086 7.086 7.085 7.085 0 0 0 7.086 7.085 7.085 7.085 0 0 0 7.086-7.085Zm0 0"/></clipPath><symbol overflow="visible" id="a"><path style="stroke:none" d="M1.688 1.688c-.032.14-.047.156-.047.203 0 .218.187.28.296.28a.413.413 0 0 0 .36-.265c.031-.078.078-.406.36-1.812.077 0 .155.015.327.015 1.657 0 3.188-1.562 3.188-3.14 0-.781-.39-1.375-1.14-1.375-1.438 0-2.048 1.937-2.641 3.875C1.312-.734.75-1.281.75-2c0-.281.234-1.375.828-2.063.094-.093.094-.109.094-.14 0-.031-.031-.094-.125-.094C1.266-4.297.5-2.844.5-1.89c0 .938.656 1.657 1.719 1.907ZM3.077-.47c-.094 0-.11 0-.187-.015-.125 0-.125 0-.125-.032 0-.015.171-.937.187-1.078.313-1.281 1.094-2.234 1.985-2.234.687 0 .953.531.953 1.015C5.89-1.688 4.608-.47 3.077-.47Zm0 0"/></symbol><symbol overflow="visible" id="d"><path style="stroke:none" d="M.453 1.219c-.078.343-.11.406-.547.406-.11 0-.218 0-.218.188 0 .078.046.125.124.125.266 0 .563-.032.829-.032.343 0 .671.032 1 .032.046 0 .171 0 .171-.204 0-.109-.093-.109-.234-.109-.5 0-.5-.063-.5-.156 0-.125.422-1.75.484-2 .125.297.407.64.922.64 1.157 0 2.407-1.453 2.407-2.921 0-.938-.579-1.594-1.329-1.594-.5 0-.984.36-1.312.75-.094-.547-.531-.75-.89-.75-.47 0-.657.39-.735.562-.188.344-.313.938-.313.969 0 .11.094.11.11.11.11 0 .11-.016.172-.235.172-.703.375-1.188.734-1.188.172 0 .313.079.313.454 0 .234-.032.343-.079.515Zm1.75-4.328c.063-.266.344-.547.516-.704.36-.296.64-.374.812-.374.39 0 .64.343.64.937 0 .594-.327 1.734-.515 2.11-.344.702-.812 1.03-1.187 1.03-.656 0-.781-.828-.781-.89 0-.016 0-.031.03-.156Zm0 0"/></symbol><symbol overflow="visible" id="bc"><path style="stroke:none" d="M7.578-6.922c0-.031-.016-.11-.11-.11-.03 0-.046.016-.155.126l-.688.765c-.094-.14-.547-.89-1.656-.89C2.734-7.031.5-4.828.5-2.516.5-.922 1.61.22 3.219.22c.437 0 .89-.094 1.25-.235.5-.203.687-.406.86-.609.093.25.359.61.452.61.047 0 .078-.032.078-.032.016-.015.11-.406.157-.61l.187-.765.14-.516c.11-.437.11-.468.688-.468.047 0 .157-.016.157-.203 0-.079-.047-.11-.125-.11-.235 0-.829.031-1.047.031-.313 0-1.094-.03-1.407-.03-.078 0-.203 0-.203.202 0 .11.078.11.297.11.016 0 .297 0 .531.015.266.032.313.063.313.188 0 .094-.11.531-.219.906C5.047-.203 3.766-.094 3.406-.094c-.953 0-2-.562-2-2.094 0-.312.094-1.953 1.14-3.25.548-.671 1.517-1.28 2.5-1.28 1.016 0 1.61.765 1.61 1.921 0 .406-.031.406-.031.516 0 .093.11.093.14.093.126 0 .126-.015.188-.203Zm0 0"/></symbol><symbol overflow="visible" id="bg"><path style="stroke:none" d="M2.031-.016c0-.656-.25-1.046-.64-1.046a.517.517 0 0 0-.532.53c0 .266.204.532.532.532a.58.58 0 0 0 .343-.125c.032-.031.047-.031.047-.031.016 0 .016 0 .016.14 0 .75-.344 1.344-.672 1.672-.11.11-.11.125-.11.157 0 .078.048.109.094.109.11 0 .922-.766.922-1.938Zm0 0"/></symbol><symbol overflow="visible" id="b"><path style="stroke:none" d="M2.938-2.656c-.141-.235-.376-.422-.72-.422-.89 0-1.796.984-1.796 1.984C.422-.406.875.063 1.484.063c.375 0 .704-.204.985-.485.125.422.531.484.719.484.25 0 .421-.14.546-.359.157-.281.25-.672.25-.703 0-.094-.093-.094-.109-.094-.11 0-.11.032-.156.219-.094.344-.219.75-.516.75-.172 0-.234-.156-.234-.344 0-.11.062-.375.11-.547.046-.187.124-.468.155-.625l.141-.53c.047-.188.125-.517.125-.548 0-.156-.125-.219-.234-.219-.125 0-.282.079-.329.282ZM2.5-.875c-.047.203-.203.344-.36.469-.062.062-.343.281-.64.281-.266 0-.516-.188-.516-.672 0-.375.204-1.14.375-1.422.313-.562.672-.656.86-.656.484 0 .625.531.625.61 0 .015-.016.078-.016.093Zm0 0"/></symbol><symbol overflow="visible" id="c"><path style="stroke:none" d="M1.844-4.625c0-.016.031-.11.031-.11 0-.046-.031-.109-.125-.109-.14 0-.719.063-.89.078-.047 0-.157.016-.157.157 0 .093.11.093.188.093.328 0 .328.063.328.11s-.063.328-.11.484l-.156.64C.891-3.031.516-1.515.5-1.421c-.047.172-.047.266-.047.344 0 .703.453 1.14 1.031 1.14.875 0 1.797-.937 1.797-1.968 0-.813-.562-1.172-1.047-1.172-.359 0-.671.203-.875.39Zm-.36 4.5c-.328 0-.53-.297-.53-.719 0-.25.062-.484.265-1.281.031-.125.031-.14.172-.297.265-.297.578-.453.828-.453.265 0 .5.203.5.672 0 .281-.14 1-.36 1.406-.171.344-.515.672-.875.672Zm0 0"/></symbol><symbol overflow="visible" id="bd"><path style="stroke:none" d="M2.188-4.625c0-.016.015-.11.015-.11 0-.046-.015-.109-.11-.109-.14 0-.718.063-.89.078-.047 0-.156.016-.156.157 0 .093.11.093.187.093.329 0 .329.063.329.11s-.016.093-.016.156L.563-.312c-.047.124-.047.14-.047.156 0 .11.093.218.25.218.187 0 .265-.124.312-.28.016-.032.313-1.266.344-1.36.5.047.89.219.89.578 0 .031 0 .063-.015.14-.031.094-.031.141-.031.22 0 .484.406.703.75.703.671 0 .875-1.047.875-1.063 0-.094-.079-.094-.11-.094-.094 0-.11.047-.14.172-.079.297-.266.797-.61.797-.187 0-.25-.172-.25-.36 0-.124 0-.14.047-.312a.724.724 0 0 0 .031-.219c0-.625-.828-.718-1.125-.734.204-.125.454-.36.579-.469.359-.328.703-.656 1.093-.656.078 0 .172.016.235.094a.396.396 0 0 0-.36.39c0 .141.11.25.266.25.203 0 .406-.156.406-.437a.5.5 0 0 0-.531-.5c-.406 0-.766.297-1.125.625-.297.265-.516.484-.813.61Zm0 0"/></symbol><symbol overflow="visible" id="be"><path style="stroke:none" d="M1.469-.11c0 .376-.063.829-.547 1.266-.016.032-.047.063-.047.094 0 .047.063.094.094.094.11 0 .703-.563.703-1.39 0-.423-.172-.75-.5-.75a.387.387 0 0 0-.39.39c0 .219.155.406.405.406.172 0 .282-.11.282-.11Zm0 0"/></symbol><symbol overflow="visible" id="e"><path style="stroke:none" d="M2.328-4.438c0-.187 0-.187-.203-.187-.453.438-1.078.438-1.36.438v.25c.157 0 .626 0 1-.188v3.547c0 .234 0 .328-.687.328H.812V0c.125 0 .985-.031 1.235-.031.219 0 1.094.031 1.25.031v-.25H3.03c-.703 0-.703-.094-.703-.328Zm0 0"/></symbol><symbol overflow="visible" id="f"><path style="stroke:none" d="M3.516-1.266H3.28c-.015.157-.094.563-.187.625-.047.047-.578.047-.688.047h-1.28c.734-.64.984-.844 1.39-1.172.516-.406 1-.843 1-1.5 0-.843-.734-1.359-1.624-1.359-.86 0-1.454.61-1.454 1.25 0 .344.297.39.376.39a.365.365 0 0 0 .359-.374c0-.125-.047-.375-.406-.375.218-.485.687-.641 1.015-.641.703 0 1.063.547 1.063 1.11 0 .609-.438 1.078-.656 1.328L.516-.266C.437-.203.437-.187.437 0h2.876Zm0 0"/></symbol><symbol overflow="visible" id="bf"><path style="stroke:none" d="M3.297 2.39c0-.03 0-.046-.172-.218C1.891.922 1.562-.968 1.562-2.5c0-1.734.375-3.469 1.61-4.703.125-.125.125-.14.125-.172 0-.078-.031-.11-.094-.11-.11 0-1 .688-1.594 1.954C1.11-4.438.984-3.328.984-2.5c0 .781.11 1.984.657 3.125C2.25 1.844 3.094 2.5 3.203 2.5c.063 0 .094-.031.094-.11Zm0 0"/></symbol><symbol overflow="visible" id="bh"><path style="stroke:none" d="M2.875-2.5c0-.766-.11-1.969-.656-3.11C1.625-6.827.766-7.483.672-7.483a.107.107 0 0 0-.11.109c0 .031 0 .047.188.234.984.985 1.547 2.563 1.547 4.641C2.297-.78 1.937.97.703 2.22c-.14.125-.14.14-.14.172 0 .062.046.109.109.109.094 0 1-.688 1.578-1.953.516-1.094.625-2.203.625-3.047Zm0 0"/></symbol></defs><path style="fill:none;stroke-width:.3985;stroke-linecap:butt;stroke-linejoin:miter;stroke:#000;stroke-opacity:1;stroke-miterlimit:10" d="M-63.781 0H63.78" transform="matrix(1 0 0 -1 81.957 22.144)"/><use xlink:href="#a" x="3.321" y="23.32" style="fill:#000;fill-opacity:1"/><use xlink:href="#b" x="9.838" y="24.815" style="fill:#000;fill-opacity:1"/><use xlink:href="#a" x="149.256" y="23.32" style="fill:#000;fill-opacity:1"/><use xlink:href="#c" x="155.773" y="24.815" style="fill:#000;fill-opacity:1"/><path style="fill:none;stroke-width:.3985;stroke-linecap:butt;stroke-linejoin:miter;stroke:#000;stroke-opacity:1;stroke-miterlimit:10" d="M-56.695 4.98h27.89" transform="matrix(1 0 0 -1 81.957 22.144)"/><path style="fill:none;stroke-width:.31879;stroke-linecap:round;stroke-linejoin:round;stroke:#000;stroke-opacity:1;stroke-miterlimit:10" d="M-1.195 1.592C-1.097.995 0 .1.297 0 0-.1-1.097-.998-1.195-1.595" transform="matrix(1 0 0 -1 53.152 17.163)"/><use xlink:href="#d" x="34.696" y="11.706" style="fill:#000;fill-opacity:1"/><use xlink:href="#e" x="39.708" y="13.2" style="fill:#000;fill-opacity:1"/><path style="fill:none;stroke-width:.3985;stroke-linecap:butt;stroke-linejoin:miter;stroke:#000;stroke-opacity:1;stroke-miterlimit:10" d="M28.348 4.98h27.886" transform="matrix(1 0 0 -1 81.957 22.144)"/><path style="fill:none;stroke-width:.31879;stroke-linecap:round;stroke-linejoin:round;stroke:#000;stroke-opacity:1;stroke-miterlimit:10" d="M-1.196 1.592C-1.095.995-.001.1.3 0 0-.1-1.095-.998-1.196-1.595" transform="matrix(1 0 0 -1 138.192 17.163)"/><use xlink:href="#d" x="119.735" y="11.706" style="fill:#000;fill-opacity:1"/><use xlink:href="#f" x="124.748" y="13.2" style="fill:#000;fill-opacity:1"/><g clip-path="url(#g)"><path style="stroke:none;fill-rule:nonzero;fill:#fff;fill-opacity:1" d="M89.043 22.145a7.085 7.085 0 0 0-7.086-7.086 7.085 7.085 0 0 0-7.086 7.086 7.085 7.085 0 0 0 7.086 7.085 7.085 7.085 0 0 0 7.086-7.085Zm0 0"/></g><g clip-path="url(#h)"><path style="fill:none;stroke-width:.3985;stroke-linecap:butt;stroke-linejoin:miter;stroke:#000;stroke-opacity:1;stroke-miterlimit:10" d="M7.086 0A7.085 7.085 0 0 1 0 7.084 7.085 7.085 0 0 1-7.086 0 7.085 7.085 0 0 1 0-7.086 7.085 7.085 0 0 1 7.086-.001Zm0 0" transform="matrix(1 0 0 -1 81.957 22.144)"/></g><g clip-path="url(#i)"><g clip-path="url(#j)"><path style="fill:none;stroke-width:.3985;stroke-linecap:butt;stroke-linejoin:miter;stroke:#000;stroke-opacity:1;stroke-miterlimit:10" d="m-.001 0 3.09 3.087" transform="matrix(1 0 0 -1 71.732 32.419)"/></g></g><g clip-path="url(#k)"><g clip-path="url(#l)"><path style="fill:none;stroke-width:.3985;stroke-linecap:butt;stroke-linejoin:miter;stroke:#000;stroke-opacity:1;stroke-miterlimit:10" d="m.002 0 3.086 3.087" transform="matrix(1 0 0 -1 74.72 32.419)"/></g></g><g clip-path="url(#m)"><g clip-path="url(#n)"><path style="fill:none;stroke-width:.3985;stroke-linecap:butt;stroke-linejoin:miter;stroke:#000;stroke-opacity:1;stroke-miterlimit:10" d="m.001 0 3.086 3.087" transform="matrix(1 0 0 -1 77.71 32.419)"/></g></g><g clip-path="url(#o)"><g clip-path="url(#p)"><path style="fill:none;stroke-width:.3985;stroke-linecap:butt;stroke-linejoin:miter;stroke:#000;stroke-opacity:1;stroke-miterlimit:10" d="m0 0 3.087 3.087" transform="matrix(1 0 0 -1 80.698 32.419)"/></g></g><g clip-path="url(#q)"><g clip-path="url(#r)"><path style="fill:none;stroke-width:.3985;stroke-linecap:butt;stroke-linejoin:miter;stroke:#000;stroke-opacity:1;stroke-miterlimit:10" d="m0 0 3.09 3.087" transform="matrix(1 0 0 -1 83.687 32.419)"/></g></g><g clip-path="url(#s)"><g clip-path="url(#t)"><path style="fill:none;stroke-width:.3985;stroke-linecap:butt;stroke-linejoin:miter;stroke:#000;stroke-opacity:1;stroke-miterlimit:10" d="m0 0 3.09 3.087" transform="matrix(1 0 0 -1 86.676 32.419)"/></g></g><g clip-path="url(#u)"><g clip-path="url(#v)"><path style="fill:none;stroke-width:.3985;stroke-linecap:butt;stroke-linejoin:miter;stroke:#000;stroke-opacity:1;stroke-miterlimit:10" d="m0 0 3.089 3.087" transform="matrix(1 0 0 -1 89.665 32.419)"/></g></g><g clip-path="url(#w)"><g clip-path="url(#x)"><path style="fill:none;stroke-width:.3985;stroke-linecap:butt;stroke-linejoin:miter;stroke:#000;stroke-opacity:1;stroke-miterlimit:10" d="m-.001 0 3.09 3.09" transform="matrix(1 0 0 -1 71.732 29.43)"/></g></g><g clip-path="url(#y)"><g clip-path="url(#z)"><path style="fill:none;stroke-width:.3985;stroke-linecap:butt;stroke-linejoin:miter;stroke:#000;stroke-opacity:1;stroke-miterlimit:10" d="m.002 0 3.086 3.09" transform="matrix(1 0 0 -1 74.72 29.43)"/></g></g><g clip-path="url(#A)"><g clip-path="url(#B)"><path style="fill:none;stroke-width:.3985;stroke-linecap:butt;stroke-linejoin:miter;stroke:#000;stroke-opacity:1;stroke-miterlimit:10" d="m.001 0 3.086 3.09" transform="matrix(1 0 0 -1 77.71 29.43)"/></g></g><g clip-path="url(#C)"><g clip-path="url(#D)"><path style="fill:none;stroke-width:.3985;stroke-linecap:butt;stroke-linejoin:miter;stroke:#000;stroke-opacity:1;stroke-miterlimit:10" d="m0 0 3.087 3.09" transform="matrix(1 0 0 -1 80.698 29.43)"/></g></g><g clip-path="url(#E)"><g clip-path="url(#F)"><path style="fill:none;stroke-width:.3985;stroke-linecap:butt;stroke-linejoin:miter;stroke:#000;stroke-opacity:1;stroke-miterlimit:10" d="m0 0 3.09 3.09" transform="matrix(1 0 0 -1 83.687 29.43)"/></g></g><g clip-path="url(#G)"><g clip-path="url(#H)"><path style="fill:none;stroke-width:.3985;stroke-linecap:butt;stroke-linejoin:miter;stroke:#000;stroke-opacity:1;stroke-miterlimit:10" d="m0 0 3.09 3.09" transform="matrix(1 0 0 -1 86.676 29.43)"/></g></g><g clip-path="url(#I)"><g clip-path="url(#J)"><path style="fill:none;stroke-width:.3985;stroke-linecap:butt;stroke-linejoin:miter;stroke:#000;stroke-opacity:1;stroke-miterlimit:10" d="m0 0 3.089 3.09" transform="matrix(1 0 0 -1 89.665 29.43)"/></g></g><g clip-path="url(#K)"><g clip-path="url(#L)"><path style="fill:none;stroke-width:.3985;stroke-linecap:butt;stroke-linejoin:miter;stroke:#000;stroke-opacity:1;stroke-miterlimit:10" d="m-.001 0 3.09 3.09" transform="matrix(1 0 0 -1 71.732 26.441)"/></g></g><g clip-path="url(#M)"><g clip-path="url(#N)"><path style="fill:none;stroke-width:.3985;stroke-linecap:butt;stroke-linejoin:miter;stroke:#000;stroke-opacity:1;stroke-miterlimit:10" d="m.002 0 3.086 3.09" transform="matrix(1 0 0 -1 74.72 26.441)"/></g></g><g clip-path="url(#O)"><g clip-path="url(#P)"><path style="fill:none;stroke-width:.3985;stroke-linecap:butt;stroke-linejoin:miter;stroke:#000;stroke-opacity:1;stroke-miterlimit:10" d="m.001 0 3.086 3.09" transform="matrix(1 0 0 -1 77.71 26.441)"/></g></g><g clip-path="url(#Q)"><g clip-path="url(#R)"><path style="fill:none;stroke-width:.3985;stroke-linecap:butt;stroke-linejoin:miter;stroke:#000;stroke-opacity:1;stroke-miterlimit:10" d="m0 0 3.087 3.09" transform="matrix(1 0 0 -1 80.698 26.441)"/></g></g><g clip-path="url(#S)"><g clip-path="url(#T)"><path style="fill:none;stroke-width:.3985;stroke-linecap:butt;stroke-linejoin:miter;stroke:#000;stroke-opacity:1;stroke-miterlimit:10" d="m0 0 3.09 3.09" transform="matrix(1 0 0 -1 83.687 26.441)"/></g></g><g clip-path="url(#U)"><g clip-path="url(#V)"><path style="fill:none;stroke-width:.3985;stroke-linecap:butt;stroke-linejoin:miter;stroke:#000;stroke-opacity:1;stroke-miterlimit:10" d="m0 0 3.09 3.09" transform="matrix(1 0 0 -1 86.676 26.441)"/></g></g><g clip-path="url(#W)"><g clip-path="url(#X)"><path style="fill:none;stroke-width:.3985;stroke-linecap:butt;stroke-linejoin:miter;stroke:#000;stroke-opacity:1;stroke-miterlimit:10" d="m0 0 3.089 3.09" transform="matrix(1 0 0 -1 89.665 26.441)"/></g></g><g clip-path="url(#Y)"><g clip-path="url(#Z)"><path style="fill:none;stroke-width:.3985;stroke-linecap:butt;stroke-linejoin:miter;stroke:#000;stroke-opacity:1;stroke-miterlimit:10" d="m-.001 0 3.09 3.09" transform="matrix(1 0 0 -1 71.732 23.452)"/></g></g><g clip-path="url(#aa)"><g clip-path="url(#ab)"><path style="fill:none;stroke-width:.3985;stroke-linecap:butt;stroke-linejoin:miter;stroke:#000;stroke-opacity:1;stroke-miterlimit:10" d="m.002 0 3.086 3.09" transform="matrix(1 0 0 -1 74.72 23.452)"/></g></g><g clip-path="url(#ac)"><g clip-path="url(#ad)"><path style="fill:none;stroke-width:.3985;stroke-linecap:butt;stroke-linejoin:miter;stroke:#000;stroke-opacity:1;stroke-miterlimit:10" d="m.001 0 3.086 3.09" transform="matrix(1 0 0 -1 77.71 23.452)"/></g></g><g clip-path="url(#ae)"><g clip-path="url(#af)"><path style="fill:none;stroke-width:.3985;stroke-linecap:butt;stroke-linejoin:miter;stroke:#000;stroke-opacity:1;stroke-miterlimit:10" d="m0 0 3.087 3.09" transform="matrix(1 0 0 -1 80.698 23.452)"/></g></g><g clip-path="url(#ag)"><g clip-path="url(#ah)"><path style="fill:none;stroke-width:.3985;stroke-linecap:butt;stroke-linejoin:miter;stroke:#000;stroke-opacity:1;stroke-miterlimit:10" d="m0 0 3.09 3.09" transform="matrix(1 0 0 -1 83.687 23.452)"/></g></g><g clip-path="url(#ai)"><g clip-path="url(#aj)"><path style="fill:none;stroke-width:.3985;stroke-linecap:butt;stroke-linejoin:miter;stroke:#000;stroke-opacity:1;stroke-miterlimit:10" d="m0 0 3.09 3.09" transform="matrix(1 0 0 -1 86.676 23.452)"/></g></g><g clip-path="url(#ak)"><g clip-path="url(#al)"><path style="fill:none;stroke-width:.3985;stroke-linecap:butt;stroke-linejoin:miter;stroke:#000;stroke-opacity:1;stroke-miterlimit:10" d="m0 0 3.089 3.09" transform="matrix(1 0 0 -1 89.665 23.452)"/></g></g><g clip-path="url(#am)"><g clip-path="url(#an)"><path style="fill:none;stroke-width:.3985;stroke-linecap:butt;stroke-linejoin:miter;stroke:#000;stroke-opacity:1;stroke-miterlimit:10" d="m-.001-.001 3.09 3.09" transform="matrix(1 0 0 -1 71.732 20.464)"/></g></g><g clip-path="url(#ao)"><g clip-path="url(#ap)"><path style="fill:none;stroke-width:.3985;stroke-linecap:butt;stroke-linejoin:miter;stroke:#000;stroke-opacity:1;stroke-miterlimit:10" d="m.002-.001 3.086 3.09" transform="matrix(1 0 0 -1 74.72 20.464)"/></g></g><g clip-path="url(#aq)"><g clip-path="url(#ar)"><path style="fill:none;stroke-width:.3985;stroke-linecap:butt;stroke-linejoin:miter;stroke:#000;stroke-opacity:1;stroke-miterlimit:10" d="m.001-.001 3.086 3.09" transform="matrix(1 0 0 -1 77.71 20.464)"/></g></g><g clip-path="url(#as)"><g clip-path="url(#at)"><path style="fill:none;stroke-width:.3985;stroke-linecap:butt;stroke-linejoin:miter;stroke:#000;stroke-opacity:1;stroke-miterlimit:10" d="m0-.001 3.087 3.09" transform="matrix(1 0 0 -1 80.698 20.464)"/></g></g><g clip-path="url(#au)"><g clip-path="url(#av)"><path style="fill:none;stroke-width:.3985;stroke-linecap:butt;stroke-linejoin:miter;stroke:#000;stroke-opacity:1;stroke-miterlimit:10" d="m0-.001 3.09 3.09" transform="matrix(1 0 0 -1 83.687 20.464)"/></g></g><g clip-path="url(#aw)"><g clip-path="url(#ax)"><path style="fill:none;stroke-width:.3985;stroke-linecap:butt;stroke-linejoin:miter;stroke:#000;stroke-opacity:1;stroke-miterlimit:10" d="m0-.001 3.09 3.09" transform="matrix(1 0 0 -1 86.676 20.464)"/></g></g><g clip-path="url(#ay)"><g clip-path="url(#az)"><path style="fill:none;stroke-width:.3985;stroke-linecap:butt;stroke-linejoin:miter;stroke:#000;stroke-opacity:1;stroke-miterlimit:10" d="m0-.001 3.089 3.09" transform="matrix(1 0 0 -1 89.665 20.464)"/></g></g><g clip-path="url(#aA)"><g clip-path="url(#aB)"><path style="fill:none;stroke-width:.3985;stroke-linecap:butt;stroke-linejoin:miter;stroke:#000;stroke-opacity:1;stroke-miterlimit:10" d="m-.001-.002 3.09 3.09" transform="matrix(1 0 0 -1 71.732 17.475)"/></g></g><g clip-path="url(#aC)"><g clip-path="url(#aD)"><path style="fill:none;stroke-width:.3985;stroke-linecap:butt;stroke-linejoin:miter;stroke:#000;stroke-opacity:1;stroke-miterlimit:10" d="m.002-.002 3.086 3.09" transform="matrix(1 0 0 -1 74.72 17.475)"/></g></g><g clip-path="url(#aE)"><g clip-path="url(#aF)"><path style="fill:none;stroke-width:.3985;stroke-linecap:butt;stroke-linejoin:miter;stroke:#000;stroke-opacity:1;stroke-miterlimit:10" d="m.001-.002 3.086 3.09" transform="matrix(1 0 0 -1 77.71 17.475)"/></g></g><g clip-path="url(#aG)"><g clip-path="url(#aH)"><path style="fill:none;stroke-width:.3985;stroke-linecap:butt;stroke-linejoin:miter;stroke:#000;stroke-opacity:1;stroke-miterlimit:10" d="m0-.002 3.087 3.09" transform="matrix(1 0 0 -1 80.698 17.475)"/></g></g><g clip-path="url(#aI)"><g clip-path="url(#aJ)"><path style="fill:none;stroke-width:.3985;stroke-linecap:butt;stroke-linejoin:miter;stroke:#000;stroke-opacity:1;stroke-miterlimit:10" d="m0-.002 3.09 3.09" transform="matrix(1 0 0 -1 83.687 17.475)"/></g></g><g clip-path="url(#aK)"><g clip-path="url(#aL)"><path style="fill:none;stroke-width:.3985;stroke-linecap:butt;stroke-linejoin:miter;stroke:#000;stroke-opacity:1;stroke-miterlimit:10" d="m0-.002 3.09 3.09" transform="matrix(1 0 0 -1 86.676 17.475)"/></g></g><g clip-path="url(#aM)"><g clip-path="url(#aN)"><path style="fill:none;stroke-width:.3985;stroke-linecap:butt;stroke-linejoin:miter;stroke:#000;stroke-opacity:1;stroke-miterlimit:10" d="m0-.002 3.089 3.09" transform="matrix(1 0 0 -1 89.665 17.475)"/></g></g><g clip-path="url(#aO)"><g clip-path="url(#aP)"><path style="fill:none;stroke-width:.3985;stroke-linecap:butt;stroke-linejoin:miter;stroke:#000;stroke-opacity:1;stroke-miterlimit:10" d="m-.001.001 3.09 3.086" transform="matrix(1 0 0 -1 71.732 14.486)"/></g></g><g clip-path="url(#aQ)"><g clip-path="url(#aR)"><path style="fill:none;stroke-width:.3985;stroke-linecap:butt;stroke-linejoin:miter;stroke:#000;stroke-opacity:1;stroke-miterlimit:10" d="m.002.001 3.086 3.086" transform="matrix(1 0 0 -1 74.72 14.486)"/></g></g><g clip-path="url(#aS)"><g clip-path="url(#aT)"><path style="fill:none;stroke-width:.3985;stroke-linecap:butt;stroke-linejoin:miter;stroke:#000;stroke-opacity:1;stroke-miterlimit:10" d="m.001.001 3.086 3.086" transform="matrix(1 0 0 -1 77.71 14.486)"/></g></g><g clip-path="url(#aU)"><g clip-path="url(#aV)"><path style="fill:none;stroke-width:.3985;stroke-linecap:butt;stroke-linejoin:miter;stroke:#000;stroke-opacity:1;stroke-miterlimit:10" d="m0 .001 3.087 3.086" transform="matrix(1 0 0 -1 80.698 14.486)"/></g></g><g clip-path="url(#aW)"><g clip-path="url(#aX)"><path style="fill:none;stroke-width:.3985;stroke-linecap:butt;stroke-linejoin:miter;stroke:#000;stroke-opacity:1;stroke-miterlimit:10" d="m0 .001 3.09 3.086" transform="matrix(1 0 0 -1 83.687 14.486)"/></g></g><g clip-path="url(#aY)"><g clip-path="url(#aZ)"><path style="fill:none;stroke-width:.3985;stroke-linecap:butt;stroke-linejoin:miter;stroke:#000;stroke-opacity:1;stroke-miterlimit:10" d="m0 .001 3.09 3.086" transform="matrix(1 0 0 -1 86.676 14.486)"/></g></g><g clip-path="url(#ba)"><g clip-path="url(#bb)"><path style="fill:none;stroke-width:.3985;stroke-linecap:butt;stroke-linejoin:miter;stroke:#000;stroke-opacity:1;stroke-miterlimit:10" d="m0 .001 3.089 3.086" transform="matrix(1 0 0 -1 89.665 14.486)"/></g></g><use xlink:href="#bc" x="54.923" y="10.793" style="fill:#000;fill-opacity:1"/><use xlink:href="#bd" x="62.757" y="12.287" style="fill:#000;fill-opacity:1"/><g style="fill:#000;fill-opacity:1"><use xlink:href="#be" x="67.16" y="12.287"/><use xlink:href="#b" x="69.526" y="12.287"/><use xlink:href="#c" x="73.847" y="12.287"/></g><use xlink:href="#bf" x="77.849" y="10.793" style="fill:#000;fill-opacity:1"/><use xlink:href="#d" x="81.724" y="10.793" style="fill:#000;fill-opacity:1"/><use xlink:href="#e" x="86.736" y="12.287" style="fill:#000;fill-opacity:1"/><use xlink:href="#bg" x="91.206" y="10.793" style="fill:#000;fill-opacity:1"/><use xlink:href="#d" x="95.637" y="10.793" style="fill:#000;fill-opacity:1"/><use xlink:href="#f" x="100.646" y="12.287" style="fill:#000;fill-opacity:1"/><use xlink:href="#bh" x="105.115" y="10.793" style="fill:#000;fill-opacity:1"/></svg>