<svg height="203.341" viewBox="0 0 152.999 152.506" width="203.999" xmlns="http://www.w3.org/2000/svg" xmlns:xlink="http://www.w3.org/1999/xlink"><symbol id="a" overflow="visible"><path d="m3.016-3.156h1.703c1.406 0 2.797-1.031 2.797-2.14 0-.782-.657-1.516-1.97-1.516h-3.217c-.187 0-.297 0-.297.187 0 .125.078.125.281.125.126 0 .313.016.422.016.172.03.22.046.22.171 0 .032 0 .063-.032.188l-1.345 5.344c-.094.39-.11.469-.906.469-.156 0-.266 0-.266.187 0 .125.11.125.14.125.282 0 .985-.031 1.266-.031.22 0 .438.015.641.015.219 0 .438.016.64.016.079 0 .204 0 .204-.203 0-.11-.094-.11-.281-.11-.36 0-.641 0-.641-.171 0-.063.016-.11.031-.172zm.718-2.969c.094-.344.11-.375.547-.375h.953c.829 0 1.36.266 1.36.953 0 .39-.203 1.25-.594 1.61-.5.453-1.094.53-1.531.53h-1.407zm0 0"/></symbol><symbol id="b" overflow="visible"><path d="m3.328-3.016c.063-.25.297-1.171.985-1.171.046 0 .296 0 .5.125a.578.578 0 0 0 -.47.546c0 .157.11.344.376.344a.546.546 0 0 0 .531-.578c0-.516-.578-.656-.922-.656-.578 0-.922.531-1.047.75-.25-.656-.781-.75-1.078-.75-1.031 0-1.61 1.281-1.61 1.531 0 .11.11.11.126.11.078 0 .11-.032.125-.11.344-1.063 1-1.313 1.344-1.313.187 0 .53.094.53.672 0 .313-.171.97-.53 2.375-.157.61-.516 1.032-.954 1.032-.062 0-.28 0-.5-.125.25-.063.47-.266.47-.547 0-.266-.22-.344-.36-.344-.313 0-.547.25-.547.578 0 .453.484.656.922.656.672 0 1.031-.703 1.047-.75.125.36.484.75 1.078.75 1.031 0 1.594-1.28 1.594-1.53 0-.11-.079-.11-.11-.11-.094 0-.11.047-.14.11-.329 1.077-1 1.312-1.313 1.312-.39 0-.547-.313-.547-.657 0-.218.047-.437.156-.875zm0 0"/></symbol><symbol id="c" overflow="visible"><path d="m3.594-2.219c0-.765-.094-1.328-.406-1.812-.22-.313-.657-.594-1.204-.594-1.624 0-1.624 1.906-1.624 2.406s0 2.36 1.625 2.36c1.61 0 1.61-1.86 1.61-2.36zm-1.61 2.156c-.328 0-.75-.187-.89-.75-.094-.406-.094-.983-.094-1.5 0-.515 0-1.046.094-1.421.156-.547.593-.704.89-.704.375 0 .735.235.86.641.11.375.125.875.125 1.485 0 .515 0 1.03-.094 1.468-.14.64-.61.781-.89.781zm0 0"/></symbol><symbol id="d" overflow="visible"><path d="m2.328-4.438c0-.187 0-.187-.203-.187-.453.438-1.078.438-1.36.438v.25c.157 0 .626 0 1-.188v3.547c0 .234 0 .328-.687.328h-.266v.25c.125 0 .985-.031 1.235-.031.219 0 1.094.031 1.25.031v-.25h-.267c-.703 0-.703-.094-.703-.328zm0 0"/></symbol><symbol id="e" overflow="visible"><path d="m3.516-1.266h-.236c-.015.157-.094.563-.187.625-.047.047-.578.047-.688.047h-1.28c.734-.64.984-.844 1.39-1.172.516-.406 1-.843 1-1.5 0-.843-.734-1.359-1.624-1.359-.86 0-1.454.61-1.454 1.25 0 .344.297.39.376.39a.365.365 0 0 0 .359-.374c0-.125-.047-.375-.406-.375.218-.485.687-.641 1.015-.641.703 0 1.063.547 1.063 1.11 0 .609-.438 1.078-.656 1.328l-1.672 1.671c-.079.063-.079.079-.079.266h2.876zm0 0"/></symbol><symbol id="f" overflow="visible"><path d="m1.906-2.328c.547 0 .938.375.938 1.125 0 .86-.516 1.125-.906 1.125-.282 0-.907-.078-1.188-.5.328 0 .406-.235.406-.39 0-.22-.172-.376-.39-.376a.38.38 0 0 0 -.391.407c0 .656.719 1.077 1.563 1.077.968 0 1.64-.657 1.64-1.344 0-.547-.437-1.094-1.203-1.25.719-.266.984-.781.984-1.219 0-.547-.625-.953-1.406-.953-.766 0-1.36.375-1.36.938 0 .234.157.359.36.359.219 0 .36-.156.36-.344 0-.203-.141-.36-.36-.375.25-.297.719-.375.985-.375.312 0 .75.156.75.75 0 .297-.094.625-.282.828-.219.266-.422.281-.765.313-.172.015-.188.015-.22.015-.015 0-.077.016-.077.094 0 .094.062.094.187.094zm0 0"/></symbol><symbol id="g" overflow="visible"><path d="m1.078-3.89c.36.093.563.093.672.093.922 0 1.469-.625 1.469-.734 0-.078-.047-.094-.078-.094-.016 0-.032 0-.063.016-.172.062-.531.203-1.047.203-.203 0-.562-.016-1.015-.188-.079-.031-.094-.031-.094-.031-.094 0-.094.078-.094.188v2.046c0 .125 0 .204.11.204.062 0 .078 0 .14-.094.297-.375.734-.438.969-.438a.72.72 0 0 1 .64.39c.126.235.172.5.172.907 0 .203 0 .61-.218.922a.984.984 0 0 1 -.813.422c-.453 0-.922-.25-1.094-.719.266.016.407-.156.407-.344 0-.296-.266-.343-.36-.343 0 0-.344 0-.344.375 0 .625.579 1.25 1.407 1.25.89 0 1.672-.657 1.672-1.547 0-.782-.594-1.5-1.454-1.5-.312 0-.671.062-.984.328zm0 0"/></symbol><symbol id="h" overflow="visible"><path d="m1.047-2.281c0-.563.047-1.078.312-1.516.235-.375.61-.625 1.063-.625.203 0 .484.047.625.234-.172.016-.328.141-.328.344a.32.32 0 0 0 .328.328c.219 0 .344-.14.344-.343 0-.407-.297-.766-.985-.766-1 0-2.031.922-2.031 2.422 0 1.797.844 2.343 1.625 2.343.844 0 1.578-.657 1.578-1.563 0-.89-.703-1.547-1.515-1.547-.563 0-.86.375-1.016.688zm.953 2.203c-.36 0-.625-.203-.781-.516-.094-.203-.157-.562-.157-.969 0-.687.407-1.203.97-1.203a.79.79 0 0 1 .702.375c.172.266.172.563.172.97 0 .39 0 .687-.187.968a.815.815 0 0 1 -.719.375zm0 0"/></symbol><symbol id="i" overflow="visible"><path d="m3.688-1.14v-.25h-.782v-3.11c0-.14 0-.203-.14-.203-.094 0-.125 0-.188.11l-2.312 3.201v.25h2.062v.563c0 .25 0 .328-.578.328h-.188v.251c.36-.016.797-.031 1.047-.031.266 0 .704.015 1.063.031v-.25h-.188c-.578 0-.578-.078-.578-.328v-.563zm-1.313-2.799v2.547h-1.844zm0 0"/></symbol><symbol id="j" overflow="visible"><path d="m6.734-5.922c.11-.047.188-.094.188-.219a.197.197 0 0 0 -.203-.203c-.047 0-.14.047-.172.063l-5.517 2.61c-.172.077-.203.14-.203.218 0 .094.063.156.203.219l5.517 2.593c.125.079.14.079.172.079.11 0 .203-.094.203-.204 0-.093-.047-.156-.219-.234l-5.203-2.453zm-.171 7.282c.171 0 .359 0 .359-.187 0-.203-.219-.203-.36-.203h-5.374c-.156 0-.359 0-.359.203 0 .187.172.187.344.187zm0 0"/></symbol><symbol id="k" overflow="visible"><path d="m6.719-3.234c.14-.063.203-.125.203-.22 0-.093-.047-.155-.203-.218l-5.5-2.594c-.125-.078-.172-.078-.188-.078a.197.197 0 0 0 -.203.203c0 .125.078.172.188.22l5.234 2.467-5.219 2.454c-.187.094-.203.172-.203.234 0 .11.094.204.203.204.032 0 .047 0 .172-.079zm-.157 4.593c.172 0 .36 0 .36-.187 0-.203-.219-.203-.36-.203h-5.374c-.156 0-.359 0-.359.203 0 .187.172.187.344.187zm0 0"/></symbol><symbol id="l" overflow="visible"><path d="m4.578-3.188c0-.796-.047-1.593-.39-2.328-.455-.968-1.283-1.124-1.688-1.124-.61 0-1.328.266-1.75 1.188-.313.687-.36 1.469-.36 2.266 0 .75.032 1.64.454 2.406a1.83 1.83 0 0 0 1.64 1c.532 0 1.297-.203 1.735-1.157.312-.687.36-1.468.36-2.25zm-2.094 3.188c-.39 0-.984-.25-1.156-1.203-.11-.594-.11-1.516-.11-2.11 0-.64 0-1.296.079-1.828.187-1.187.937-1.28 1.187-1.28.329 0 .985.187 1.172 1.171.11.563.11 1.313.11 1.938 0 .75 0 1.421-.11 2.062-.156.953-.719 1.25-1.172 1.25zm0 0"/></symbol><symbol id="m" overflow="visible"><path d="m2.938-6.375c0-.25 0-.266-.235-.266-.625.641-1.5.641-1.812.641v.313c.203 0 .78 0 1.296-.266v5.172c0 .36-.03.469-.921.469h-.313v.312c.344-.031 1.203-.031 1.61-.031.39 0 1.265 0 1.609.031v-.313h-.313c-.906 0-.921-.109-.921-.468zm0 0"/></symbol><clipPath id="n"><path d="m0 122h36v30.508h-36zm0 0"/></clipPath><clipPath id="o"><path d="m76 122h42v30.508h-42zm0 0"/></clipPath><path d="m8.966 2.655c0 4.953-4.015 8.969-8.965 8.969a8.969 8.969 0 0 1 -8.968-8.97c0-4.947 4.015-8.964 8.967-8.964 4.95 0 8.965 4.016 8.965 8.965zm0 0" fill="none" stroke="#000" stroke-miterlimit="10" stroke-width=".79701" transform="matrix(1 0 0 -1 55.983 12.022)"/><use x="50.551" xlink:href="#a" y="12.022"/><use x="56.947" xlink:href="#c" y="13.516"/><path d="m8.966 2.657a8.965 8.965 0 0 1 -8.965 8.965c-4.953 0-8.969-4.012-8.969-8.965s4.016-8.965 8.97-8.965a8.965 8.965 0 0 1 8.964 8.965zm0 0" fill="none" stroke="#000" stroke-miterlimit="10" stroke-width=".79701" transform="matrix(1 0 0 -1 14.952 56.614)"/><use x="9.519" xlink:href="#a" y="56.614"/><use x="15.915" xlink:href="#d" y="58.108"/><path d="m8.965 2.657a8.962 8.962 0 0 1 -8.964 8.965c-4.954 0-8.97-4.012-8.97-8.965s4.016-8.965 8.97-8.965a8.962 8.962 0 0 1 8.964 8.965zm0 0" fill="none" stroke="#000" stroke-miterlimit="10" stroke-width=".79701" transform="matrix(1 0 0 -1 97.015 56.614)"/><use x="91.583" xlink:href="#a" y="56.614"/><use x="97.979" xlink:href="#e" y="58.108"/><path d="m8.966 2.655c0 4.953-4.015 8.969-8.965 8.969a8.969 8.969 0 0 1 -8.968-8.969c0-4.949 4.015-8.965 8.967-8.965 4.95 0 8.965 4.016 8.965 8.965zm0 0" fill="none" stroke="#000" stroke-miterlimit="10" stroke-width=".79701" transform="matrix(1 0 0 -1 55.983 101.206)"/><use x="50.551" xlink:href="#a" y="101.206"/><use x="56.947" xlink:href="#f" y="102.7"/><g clip-path="url(#n)"><path d="m8.966 2.657a8.965 8.965 0 0 1 -8.965 8.965c-4.953 0-8.969-4.011-8.969-8.965a8.969 8.969 0 0 1 8.97-8.967c4.948 0 8.964 4.015 8.964 8.968zm0 0" fill="none" stroke="#000" stroke-miterlimit="10" stroke-width=".79701" transform="matrix(1 0 0 -1 14.952 145.798)"/></g><use x="9.519" xlink:href="#a" y="145.798"/><use x="15.915" xlink:href="#g" y="147.292"/><g clip-path="url(#o)"><path d="m8.965 2.657a8.962 8.962 0 0 1 -8.964 8.965c-4.954 0-8.97-4.011-8.97-8.965a8.969 8.969 0 0 1 8.971-8.967c4.953 0 8.964 4.015 8.964 8.968zm0 0" fill="none" stroke="#000" stroke-miterlimit="10" stroke-width=".79701" transform="matrix(1 0 0 -1 97.015 145.798)"/></g><use x="91.583" xlink:href="#a" y="145.798"/><use x="97.979" xlink:href="#h" y="147.292"/><path d="m8.965 2.655c0 4.953-4.012 8.969-8.965 8.969s-8.965-4.016-8.965-8.969a8.965 8.965 0 1 1 17.93 0zm0 0" fill="none" stroke="#000" stroke-miterlimit="10" stroke-width=".79701" transform="matrix(1 0 0 -1 138.047 101.206)"/><use x="132.614" xlink:href="#a" y="101.206"/><use x="139.011" xlink:href="#i" y="102.7"/><path d="m-6.342-4.236-28.348-30.808" fill="none" stroke="#000" stroke-miterlimit="10" stroke-width=".79701" transform="matrix(1 0 0 -1 55.983 12.022)"/><use x="3.32" xlink:href="#b" y="34.124"/><use x="9.014" xlink:href="#d" y="35.618"/><use x="16.251" xlink:href="#j" y="34.124"/><use x="26.767" xlink:href="#l" y="34.124"/><path d="m6.341-4.236 28.352-30.808" fill="none" stroke="#000" stroke-miterlimit="10" stroke-width=".79701" transform="matrix(1 0 0 -1 55.983 12.022)"/><use x="80.218" xlink:href="#b" y="34.124"/><use x="85.912" xlink:href="#d" y="35.618"/><use x="93.149" xlink:href="#k" y="34.124"/><use x="103.665" xlink:href="#m" y="34.124"/><path d="m34.693-48.826-28.353-30.812" fill="none" stroke="#000" stroke-miterlimit="10" stroke-width=".79701" transform="matrix(1 0 0 -1 55.983 12.022)"/><use x="44.352" xlink:href="#b" y="78.716"/><use x="50.046" xlink:href="#e" y="80.21"/><use x="57.283" xlink:href="#j" y="78.716"/><use x="67.799" xlink:href="#l" y="78.716"/><path d="m-6.342-93.42-28.348-30.812" fill="none" stroke="#000" stroke-miterlimit="10" stroke-width=".79701" transform="matrix(1 0 0 -1 55.983 12.022)"/><use x="3.32" xlink:href="#b" y="123.308"/><use x="9.014" xlink:href="#f" y="124.803"/><use x="16.251" xlink:href="#j" y="123.308"/><use x="26.767" xlink:href="#l" y="123.308"/><path d="m6.341-93.42 28.352-30.812" fill="none" stroke="#000" stroke-miterlimit="10" stroke-width=".79701" transform="matrix(1 0 0 -1 55.983 12.022)"/><use x="80.218" xlink:href="#b" y="123.308"/><use x="85.912" xlink:href="#f" y="124.802"/><use x="93.149" xlink:href="#k" y="123.308"/><use x="103.665" xlink:href="#m" y="123.308"/><path d="m47.372-48.826 28.352-30.812" fill="none" stroke="#000" stroke-miterlimit="10" stroke-width=".79701" transform="matrix(1 0 0 -1 55.983 12.022)"/><use x="121.25" xlink:href="#b" y="78.716"/><use x="126.944" xlink:href="#e" y="80.21"/><use x="134.181" xlink:href="#k" y="78.716"/><use x="144.697" xlink:href="#m" y="78.716"/></svg>