<svg height="205.603" viewBox="0 0 590.71 154.202" width="787.613" xmlns="http://www.w3.org/2000/svg" xmlns:xlink="http://www.w3.org/1999/xlink"><symbol id="a" overflow="visible"><path d="m2.86-6.813s0-.109-.126-.109c-.234 0-.953.078-1.218.11-.079 0-.188.015-.188.187 0 .125.094.125.234.125.485 0 .5.063.5.172l-.03.203-1.439 5.734c-.046.141-.046.157-.046.221 0 .234.203.28.297.28a.407.407 0 0 0 .36-.265l.187-.75.218-.89c.063-.235.125-.454.172-.673.016-.062.11-.39.11-.453.03-.094.343-.64.687-.922.219-.156.516-.344.953-.344.422 0 .531.344.531.704 0 .53-.375 1.625-.609 2.234-.078.219-.14.344-.14.547 0 .469.359.812.828.812.937 0 1.296-1.453 1.296-1.53 0-.11-.078-.11-.109-.11-.11 0-.11.031-.156.187-.14.532-.469 1.235-1.016 1.235-.172 0-.234-.094-.234-.329 0-.25.078-.484.172-.703.156-.437.61-1.625.61-2.203 0-.64-.391-1.062-1.141-1.062-.626 0-1.11.312-1.485.765zm0 0"/></symbol><symbol id="b" overflow="visible"><path d="m4.688-3.766a.562.562 0 0 0 .03-.171c0-.172-.109-.266-.28-.266-.094 0-.375.062-.407.422-.187-.36-.531-.625-.937-.625-1.125 0-2.36 1.39-2.36 2.828 0 .984.594 1.578 1.313 1.578.594 0 1.062-.469 1.156-.578l.016.015c-.203.876-.329 1.297-.329 1.313-.047.094-.375 1.078-1.438 1.078a2.68 2.68 0 0 1 -.797-.11.542.542 0 0 0 .406-.515c.002-.156-.107-.343-.373-.343a.546.546 0 0 0 -.53.579c0 .406.359.609 1.312.609 1.25 0 1.968-.781 2.125-1.375zm-1.283 2.486c-.062.265-.297.515-.515.703-.204.172-.516.36-.813.36-.5 0-.64-.516-.64-.923 0-.468.28-1.656.562-2.156.266-.484.688-.89 1.11-.89.656 0 .796.812.796.859s-.015.11-.031.14zm0 0"/></symbol><symbol id="c" overflow="visible"><path d="m4.75-2.36c0-1.562-.922-2.046-1.656-2.046-1.375 0-2.688 1.422-2.688 2.828 0 .937.594 1.687 1.625 1.687.625 0 1.344-.234 2.094-.843.125.53.453.843.906.843.532 0 .844-.546.844-.703 0-.078-.063-.11-.125-.11-.063 0-.094.032-.125.11-.188.485-.547.485-.563.485-.312 0-.312-.782-.312-1.016 0-.203 0-.234.11-.344.936-1.187 1.14-2.343 1.14-2.343 0-.032-.016-.11-.125-.11-.094 0-.094.031-.14.219-.188.625-.516 1.375-.985 1.969zm-.656 1.377c-.89.765-1.657.875-2.047.875-.594 0-.906-.454-.906-1.094 0-.484.265-1.563.578-2.063.468-.734 1.015-.921 1.36-.921.983 0 .983 1.312.983 2.078 0 .375 0 .953.032 1.125zm0 0"/></symbol><symbol id="d" overflow="visible"><path d="m4.531-1.828h-.234c-.078.672-.172 1.578-1.5 1.578h-.688c-.328 0-.343-.063-.343-.266v-3.671c0-.235 0-.329.656-.329h.25v-.25c-.156.016-1.047.032-1.219.032-.266 0-1.062-.032-1.062-.032v.25h.171c.532 0 .547.079.547.329v3.625c0 .234-.015.312-.546.312h-.173v.25h3.937zm0 0"/></symbol><symbol id="e" overflow="visible"><path d="m3.11-1.875c0-.36 0-.625-.329-.89-.281-.235-.61-.345-1.031-.345-.656 0-1.125.25-1.125.671 0 .235.156.344.344.344a.32.32 0 0 0 .328-.328.319.319 0 0 0 -.25-.312c.25-.172.656-.172.687-.172.391 0 .829.25.829.844v.203c-.391.015-.844.046-1.36.234-.625.219-.812.61-.812.922 0 .594.718.765 1.218.765.547 0 .875-.312 1.032-.578.015.282.203.547.53.547.017 0 .688 0 .688-.656v-.39h-.234v.374c0 .079 0 .407-.266.407-.25 0-.25-.329-.25-.407zm-.547.89c0 .672-.594.86-.907.86-.36 0-.687-.234-.687-.578 0-.39.328-.922 1.594-.969zm0 0"/></symbol><symbol id="f" overflow="visible"><path d="m5.61-2.36a2.56 2.56 0 0 0 -2.563-2.546 2.56 2.56 0 0 0 -2.563 2.546c0 1.375 1.141 2.5 2.563 2.5 1.437 0 2.562-1.125 2.562-2.5zm-2.564 2.267c-.813 0-1.813-.656-1.813-2.375 0-1.61 1.032-2.203 1.813-2.203.797 0 1.828.594 1.828 2.203 0 1.719-1 2.375-1.828 2.375zm0 0"/></symbol><symbol id="g" overflow="visible"><path d="m5.188-4.719c0-.125 0-.187-.094-.187-.032 0-.063 0-.125.093l-.375.532a1.97 1.97 0 0 0 -1.438-.625c-1.469 0-2.672 1.14-2.672 2.515 0 1.422 1.236 2.532 2.672 2.532 1.235 0 2.031-.922 2.031-1.766 0-.078-.015-.14-.125-.14-.03 0-.109 0-.109.093-.062 1.125-1.016 1.563-1.703 1.563-.734 0-2.016-.454-2.016-2.266 0-1.89 1.344-2.266 2-2.266.704 0 1.516.454 1.704 1.657.015.078.078.078.125.078.125 0 .125-.047.125-.188zm0 0"/></symbol><symbol id="h" overflow="visible"><path d="m2.516-3v.25c.468 0 .515.047.515.39v1.204c0 .61-.39 1.031-.922 1.031-.625 0-.656-.297-.656-.656v-2.297l-1.078.078v.25c.531 0 .531.031.531.64v1.047c0 .485 0 1.125 1.156 1.125.157 0 .657 0 1-.578v.579l1.048-.063v-.25c-.468 0-.515-.047-.515-.39v-2.438zm0 0"/></symbol><symbol id="i" overflow="visible"><path d="m3.516-1.266h-.236c-.015.157-.094.563-.187.625-.047.047-.578.047-.688.047h-1.28c.734-.64.984-.844 1.39-1.172.516-.406 1-.843 1-1.5 0-.843-.734-1.359-1.624-1.359-.86 0-1.454.61-1.454 1.25 0 .344.297.39.376.39a.365.365 0 0 0 .359-.374c0-.125-.047-.375-.406-.375.218-.485.687-.641 1.015-.641.703 0 1.063.547 1.063 1.11 0 .609-.438 1.078-.656 1.328l-1.672 1.671c-.079.063-.079.079-.079.266h2.876zm0 0"/></symbol><symbol id="j" overflow="visible"><path d="m3.688-1.14v-.25h-.782v-3.11c0-.14 0-.203-.14-.203-.094 0-.125 0-.188.11l-2.312 3.201v.25h2.062v.563c0 .25 0 .328-.578.328h-.188v.251c.36-.016.797-.031 1.047-.031.266 0 .704.015 1.063.031v-.25h-.188c-.578 0-.578-.078-.578-.328v-.563zm-1.313-2.799v2.547h-1.844zm0 0"/></symbol><symbol id="k" overflow="visible"><path d="m3.219-1.578h2.14c.094 0 .25 0 .25-.156 0-.188-.156-.188-.25-.188h-2.139v-2.14c0-.079 0-.25-.156-.25-.172 0-.172.156-.172.25v2.14h-2.142c-.094 0-.266 0-.266.172s.157.172.266.172h2.14v2.14c0 .094 0 .266.157.266.172 0 .172-.172.172-.265zm0 0"/></symbol><symbol id="l" overflow="visible"><path d="m2.328-4.438c0-.187 0-.187-.203-.187-.453.438-1.078.438-1.36.438v.25c.157 0 .626 0 1-.188v3.547c0 .234 0 .328-.687.328h-.266v.25c.125 0 .985-.031 1.235-.031.219 0 1.094.031 1.25.031v-.25h-.267c-.703 0-.703-.094-.703-.328zm0 0"/></symbol><symbol id="m" overflow="visible"><path d="m5.797-2.578h-.25c-.11 1.015-.25 2.265-2 2.265h-.813c-.468 0-.484-.062-.484-.39v-5.313c0-.343 0-.484.938-.484h.328v-.313c-.36.032-1.266.032-1.672.032-.39 0-1.172 0-1.516-.032v.313h.234c.766 0 .797.11.797.469v5.25c0 .36-.03.469-.796.469h-.235v.312h5.188zm0 0"/></symbol><symbol id="n" overflow="visible"><path d="m3.313-.75c.046.39.312.813.78.813.22 0 .829-.141.829-.954v-.562h-.25v.562c0 .579-.25.641-.36.641-.328 0-.375-.453-.375-.5v-1.984c0-.422 0-.813-.359-1.188a1.9 1.9 0 0 0 -1.36-.547c-.827 0-1.515.469-1.515 1.125 0 .297.203.469.469.469a.435.435 0 0 0 .453-.453c0-.125-.047-.453-.516-.453.282-.36.766-.469 1.079-.469.5 0 1.062.39 1.062 1.281v.36c-.516.03-1.203.062-1.828.359-.75.344-1 .86-1 1.297 0 .812.969 1.062 1.594 1.062a1.38 1.38 0 0 0 1.296-.859zm-.063-1.64v1c0 .937-.719 1.28-1.172 1.28-.484 0-.89-.343-.89-.843 0-.547.421-1.375 2.062-1.438zm0 0"/></symbol><symbol id="o" overflow="visible"><path d="m.563-3.406c0 2.062 1.608 3.625 3.467 3.625 1.625 0 2.594-1.39 2.594-2.547 0-.094 0-.172-.125-.172-.11 0-.11.063-.125.172-.077 1.422-1.139 2.234-2.233 2.234-.61 0-2.563-.328-2.563-3.312 0-2.969 1.953-3.313 2.563-3.313 1.078 0 1.968.907 2.171 2.36.016.14.016.171.157.171.156 0 .156-.03.156-.234v-2.36c0-.171 0-.25-.11-.25-.03 0-.077 0-.156.126l-.5.734c-.359-.36-.875-.86-1.828-.86-1.875 0-3.468 1.595-3.468 3.626zm0 0"/></symbol><symbol id="p" overflow="visible"><path d="m3.89-.781v.89l1.439-.109v-.313c-.687 0-.766-.062-.766-.562v-3.531l-1.468.11v.312c.687 0 .781.062.781.562v1.766c0 .875-.484 1.547-1.219 1.547-.828 0-.875-.47-.875-.985v-3.312l-1.468.11v.312c.78 0 .78.03.78.906v1.5c0 .781 0 1.687 1.516 1.687.563 0 1-.28 1.282-.89zm0 0"/></symbol><symbol id="q" overflow="visible"><path d="m7.188-3.375c0-2.031-1.5-3.656-3.313-3.656-1.797 0-3.313 1.593-3.313 3.656.001 2.047 1.533 3.594 3.314 3.594 1.813 0 3.313-1.578 3.313-3.594zm-3.314 3.328c-.953 0-2.297-.875-2.297-3.469 0-2.578 1.469-3.265 2.297-3.265.86 0 2.281.703 2.281 3.265 0 2.641-1.36 3.47-2.281 3.47zm0 0"/></symbol><symbol id="r" overflow="visible"><path d="m3.297 2.39c0-.03 0-.046-.172-.218-1.234-1.25-1.563-3.14-1.563-4.672 0-1.734.375-3.469 1.61-4.703.125-.125.125-.14.125-.172 0-.078-.031-.11-.094-.11-.11 0-1 .688-1.594 1.954-.499 1.093-.625 2.203-.625 3.031 0 .781.11 1.984.657 3.125.609 1.219 1.453 1.875 1.562 1.875.063 0 .094-.031.094-.11zm0 0"/></symbol><symbol id="s" overflow="visible"><path d="m2.875-2.5c0-.766-.11-1.969-.656-3.11-.594-1.217-1.453-1.873-1.547-1.873a.107.107 0 0 0 -.11.109c0 .031 0 .047.188.234.984.985 1.547 2.563 1.547 4.641 0 1.719-.36 3.469-1.594 4.719-.14.125-.14.14-.14.172 0 .062.046.109.109.109.094 0 1-.688 1.578-1.953.516-1.094.625-2.203.625-3.047zm0 0"/></symbol><symbol id="t" overflow="visible"><path d="m1.719-2.75h.703c.14 0 .219 0 .219-.156-.001-.094-.079-.094-.204-.094h-.656l.25-1.031a.324.324 0 0 0 .031-.094c0-.14-.109-.234-.25-.234-.171 0-.265.125-.328.296-.046.188.047-.156-.265 1.063h-.703c-.125 0-.22 0-.22.156 0 .094.079.094.204.094h.656l-.406 1.64c-.047.173-.11.423-.11.516 0 .406.36.656.75.656.782 0 1.22-.968 1.22-1.062s-.094-.094-.11-.094c-.094 0-.094.016-.156.14-.188.438-.547.829-.922.829-.156 0-.25-.094-.25-.344 0-.062.031-.219.047-.281zm0 0"/></symbol><symbol id="u" overflow="visible"><path d="m1.578-7.125c0-.172 0-.36-.187-.36-.204 0-.204.188-.204.36v9.266c0 .171 0 .359.204.359.187 0 .187-.188.187-.36zm0 0"/></symbol><symbol id="v" overflow="visible"><path d="m4.75-2.188h3.078c.14 0 .438 0 .438-.312 0-.297-.297-.297-.438-.297h-3.078v-3.093c0-.125 0-.421-.297-.421-.312 0-.312.296-.312.421v3.094h-3.079c-.14 0-.421 0-.421.297 0 .313.296.313.421.313h3.079v3.076c0 .125 0 .421.312.421.297 0 .297-.28.297-.421zm0 0"/></symbol><clipPath id="w"><path d="m244 10h3v144.203h-3zm0 0"/></clipPath><clipPath id="x"><path d="m455 72h120v82.203h-120zm0 0"/></clipPath><clipPath id="y"><path d="m448 122h48v32.203h-48zm0 0"/></clipPath><path d="m.002 0-85.043-28.348v56.696zm0 0" fill="none" stroke="#000" stroke-miterlimit="10" stroke-width="1.19553" transform="matrix(1 0 0 -1 188.6 82.539)"/><path d="m6.435 0a6.434 6.434 0 0 1 -6.433 6.434 6.435 6.435 0 0 1 -6.438-6.434 6.435 6.435 0 0 1 6.438-6.434 6.434 6.434 0 0 1 6.433 6.434zm0 0" fill="#008080" stroke="#000" stroke-miterlimit="10" stroke-width="1.19553" transform="matrix(1 0 0 -1 188.6 82.539)"/><use x="199.55" xlink:href="#a" y="85.251"/><g><use x="205.291" xlink:href="#d" y="86.745"/><use x="210.217" xlink:href="#e" y="86.745"/></g><path d="m-78.608-28.348a6.434 6.434 0 1 1 -12.866-.001 6.434 6.434 0 0 1 12.866.001zm0 0" fill="#66f" stroke="#000" stroke-miterlimit="10" stroke-width="1.19553" transform="matrix(1 0 0 -1 188.6 82.539)"/><use x="80.257" xlink:href="#a" y="113.597"/><use x="85.997" xlink:href="#f" y="115.092"/><path d="m-78.608 28.348a6.434 6.434 0 1 1 -12.866-.001 6.434 6.434 0 0 1 12.866 0zm0 0" fill="#ff8000" stroke="#000" stroke-miterlimit="10" stroke-width="1.19553" transform="matrix(1 0 0 -1 188.6 82.539)"/><use x="76.285" xlink:href="#a" y="56.904"/><g><use x="82.025" xlink:href="#g" y="58.399"/><use x="87.712" xlink:href="#h" y="58.399"/></g><g><use x="3.32" xlink:href="#m" y="84.922"/><use x="9.547" xlink:href="#n" y="84.922"/></g><use x="14.528" xlink:href="#i" y="86.964"/><g><use x="18.5" xlink:href="#o" y="84.922"/><use x="25.695" xlink:href="#p" y="84.922"/><use x="31.23" xlink:href="#q" y="84.922"/></g><use x="38.979" xlink:href="#j" y="86.964"/><path d="m-141.733 0h31.766" fill="none" stroke="#000" stroke-miterlimit="10" stroke-width="1.19553" transform="matrix(1 0 0 -1 188.6 82.539)"/><path d="m-3.03 3.832c.555-2.3 1.79-3.387 3.031-3.832-1.242-.445-2.476-1.531-3.03-3.832" style="fill:none;stroke-width:1.19553;stroke-linecap:round;stroke-linejoin:round;stroke:#000;stroke-miterlimit:10" transform="matrix(1 0 0 -1 79.229 82.539)"/><g clip-path="url(#w)"><path d="m56.693-70.867v141.734" fill="none" stroke="#000" stroke-miterlimit="10" stroke-width="1.59404" transform="matrix(1 0 0 -1 188.6 82.539)"/></g><path d="m198.427 21.262-85.039-28.348v56.691zm0 0" fill="none" stroke="#000" stroke-miterlimit="10" stroke-width="1.19553" transform="matrix(1 0 0 -1 188.6 82.539)"/><path d="m204.86 21.262a6.434 6.434 0 0 1 -12.866 0 6.435 6.435 0 0 1 6.433-6.438 6.435 6.435 0 0 1 6.434 6.438zm0 0" fill="#008080" stroke="#000" stroke-miterlimit="10" stroke-width="1.19553" transform="matrix(1 0 0 -1 188.6 82.539)"/><use x="397.976" xlink:href="#a" y="63.859"/><use x="403.716" xlink:href="#t" y="60.244"/><g><use x="403.716" xlink:href="#d" y="66.603"/><use x="408.642" xlink:href="#e" y="66.603"/></g><path d="m119.822-7.086a6.434 6.434 0 1 1 -12.868-.001 6.434 6.434 0 0 1 12.868.001zm0 0" fill="#66f" stroke="#000" stroke-miterlimit="10" stroke-width="1.19553" transform="matrix(1 0 0 -1 188.6 82.539)"/><use x="278.682" xlink:href="#a" y="92.206"/><use x="284.422" xlink:href="#t" y="88.591"/><use x="284.422" xlink:href="#f" y="94.95"/><path d="m119.822 49.605a6.437 6.437 0 0 1 -6.434 6.438 6.435 6.435 0 0 1 -6.433-6.438 6.434 6.434 0 0 1 12.867 0zm0 0" fill="#ff8000" stroke="#000" stroke-miterlimit="10" stroke-width="1.19553" transform="matrix(1 0 0 -1 188.6 82.539)"/><use x="274.71" xlink:href="#a" y="35.513"/><use x="280.45" xlink:href="#t" y="31.898"/><g><use x="280.45" xlink:href="#g" y="38.257"/><use x="286.137" xlink:href="#h" y="38.257"/></g><g clip-path="url(#x)"><path d="m368.51-35.434-85.045-28.346v56.695zm0 0" fill="none" stroke="#000" stroke-miterlimit="10" stroke-width="1.19553" transform="matrix(1 0 0 -1 188.6 82.539)"/></g><path d="m374.943-35.434a6.434 6.434 0 1 1 -12.868 0 6.434 6.434 0 0 1 12.868 0zm0 0" fill="#008080" stroke="#000" stroke-miterlimit="10" stroke-width="1.19553" transform="matrix(1 0 0 -1 188.6 82.539)"/><use x="568.054" xlink:href="#a" y="120.886"/><use x="573.794" xlink:href="#t" y="116.624"/><g><use x="576.804" xlink:href="#k" y="116.624"/><use x="582.92" xlink:href="#l" y="116.624"/></g><g><use x="573.794" xlink:href="#d" y="123.814"/><use x="578.72" xlink:href="#e" y="123.814"/></g><path d="m478.504 146.32a6.435 6.435 0 0 0 -6.438-6.433 6.434 6.434 0 0 0 0 12.867 6.437 6.437 0 0 0 6.438-6.434zm0 0" fill="#66f"/><g clip-path="url(#y)"><path d="m289.904-63.781a6.435 6.435 0 0 1 -6.438 6.433 6.434 6.434 0 0 1 0-12.867 6.437 6.437 0 0 1 6.438 6.434zm0 0" fill="none" stroke="#000" stroke-miterlimit="10" stroke-width="1.19553" transform="matrix(1 0 0 -1 188.6 82.539)"/></g><g transform="matrix(1 0 0 -1 188.6 82.539)"><path d="m289.904-7.086a6.435 6.435 0 0 1 -6.438 6.434 6.434 6.434 0 0 1 0-12.868 6.435 6.435 0 0 1 6.438 6.434zm0 0" fill="#ff8000" stroke="#000" stroke-miterlimit="10" stroke-width="1.19553"/><path d="m202.677 13.894c-.406-2.847-2.71-5.425-6.78-6.78l-26.232-8.744c-4.067-1.355-6.375-3.934-6.782-6.781-2.035 2.035-5.425 2.71-9.496 1.355l-26.226-8.742c-4.07-1.36-7.461-.68-9.496 1.356" fill="none" stroke="#000" stroke-miterlimit="10" stroke-width=".59776"/><path d="m171.29-17.438a4.7 4.7 0 0 1 -4.695 4.7 4.698 4.698 0 1 1 4.695-4.7zm0 0" fill="#00b200" stroke="#000" stroke-miterlimit="10" stroke-width=".59776"/></g><use x="332.25" xlink:href="#b" y="116.494"/><use x="337.36" xlink:href="#r" y="116.494"/><use x="341.234" xlink:href="#a" y="116.494"/><use x="346.974" xlink:href="#t" y="112.878"/><g><use x="346.974" xlink:href="#d" y="119.238"/><use x="351.9" xlink:href="#e" y="119.238"/></g><g><use x="356.369" xlink:href="#u" y="116.494"/><use x="359.137" xlink:href="#u" y="116.494"/></g><use x="361.904" xlink:href="#a" y="116.494"/><use x="367.644" xlink:href="#t" y="112.878"/><use x="367.644" xlink:href="#f" y="119.238"/><use x="374.258" xlink:href="#s" y="116.494"/><path d="m117.638 56.973c2.035 2.035 5.426 2.71 9.496 1.355l26.23-8.742c4.067-1.36 7.462-.68 9.497 1.355.406-2.847 2.71-5.425 6.781-6.78l26.23-8.747c4.067-1.355 6.376-3.934 6.782-6.781" fill="none" stroke="#000" stroke-miterlimit="10" stroke-width=".59776" transform="matrix(1 0 0 -1 188.6 82.539)"/><path d="m171.29 59.957a4.697 4.697 0 1 1 -9.393-.003 4.697 4.697 0 0 1 9.394.003zm0 0" fill="#e50000" stroke="#000" stroke-miterlimit="10" stroke-width=".59776" transform="matrix(1 0 0 -1 188.6 82.539)"/><use x="330.265" xlink:href="#b" y="11.225"/><use x="335.374" xlink:href="#r" y="11.225"/><use x="339.248" xlink:href="#a" y="11.225"/><use x="344.988" xlink:href="#t" y="7.61"/><g><use x="344.988" xlink:href="#d" y="13.969"/><use x="349.914" xlink:href="#e" y="13.969"/></g><g><use x="354.384" xlink:href="#u" y="11.225"/><use x="357.152" xlink:href="#u" y="11.225"/></g><use x="359.919" xlink:href="#a" y="11.225"/><use x="365.659" xlink:href="#t" y="7.61"/><g><use x="365.659" xlink:href="#g" y="13.969"/><use x="371.346" xlink:href="#h" y="13.969"/></g><use x="376.244" xlink:href="#s" y="11.225"/><path d="m257.67 21.262a4.695 4.695 0 0 1 -4.696 4.695 4.698 4.698 0 0 1 0-9.395 4.698 4.698 0 0 1 4.696 4.7zm0 0" fill="#fff200" stroke="#000" stroke-miterlimit="10" stroke-width=".59776" transform="matrix(1 0 0 -1 188.6 82.539)"/><path d="m175.525 60.875c29.477 3.027 54.828-8.328 71.488-31.371" fill="none" stroke="#000" stroke-dasharray="2.98883 2.98883" stroke-miterlimit="10" stroke-width="1.19553" transform="matrix(1 0 0 -1 188.6 82.539)"/><path d="m-3.027 3.83c.55-2.298 1.786-3.383 3.03-3.83-1.246-.449-2.479-1.534-3.03-3.83" style="fill:none;stroke-width:1.19553;stroke-linecap:round;stroke-linejoin:round;stroke:#000;stroke-miterlimit:10" transform="matrix(.58592 .81032 .81032 -.58592 435.963 53.518)"/><use x="408.474" xlink:href="#c" y="22.736"/><g><use x="414.847" xlink:href="#d" y="24.23"/><use x="419.773" xlink:href="#e" y="24.23"/><use x="423.745" xlink:href="#g" y="24.23"/><use x="429.432" xlink:href="#h" y="24.23"/></g><path d="m175.525-18.356c29.477-3.027 54.828 8.329 71.488 31.372" fill="none" stroke="#000" stroke-dasharray="2.98883 2.98883" stroke-miterlimit="10" stroke-width="1.19553" transform="matrix(1 0 0 -1 188.6 82.539)"/><path d="m-3.028 3.83c.552-2.298 1.784-3.383 3.03-3.83-1.244-.447-2.479-1.533-3.03-3.83" style="fill:none;stroke-width:1.19553;stroke-linecap:round;stroke-linejoin:round;stroke:#000;stroke-miterlimit:10" transform="matrix(.5859247 -.81031614 -.81031614 -.5859247 435.960048 69.040841)"/><use x="408.474" xlink:href="#c" y="102.617"/><g><use x="414.847" xlink:href="#d" y="104.112"/><use x="419.773" xlink:href="#e" y="104.112"/><use x="423.745" xlink:href="#f" y="104.112"/></g><use x="450.485" xlink:href="#v" y="63.77"/><path d="m274.716 21.402c40.524.426 69.543-15.926 89.567-49.777" fill="none" stroke="#000" stroke-dasharray="2.98883 2.98883" stroke-miterlimit="10" stroke-width="1.19553" transform="matrix(1 0 0 -1 188.6 82.539)"/><path d="m-3.03 3.832c.556-2.302 1.789-3.385 3.03-3.834-1.243-.444-2.476-1.53-3.027-3.828" style="fill:none;stroke-width:1.19553;stroke-linecap:round;stroke-linejoin:round;stroke:#000;stroke-miterlimit:10" transform="matrix(.50902 .86067 .86067 -.50902 553.185 111.429)"/></svg>