<svg xmlns="http://www.w3.org/2000/svg" xmlns:xlink="http://www.w3.org/1999/xlink" width="787.613" height="205.603" viewBox="0 0 590.71 154.202"><defs><symbol overflow="visible" id="a"><path style="stroke:none" d="M2.86-6.813s0-.109-.126-.109c-.234 0-.953.078-1.218.11-.079 0-.188.015-.188.187 0 .125.094.125.234.125.485 0 .5.063.5.172l-.03.203L.593-.391C.547-.25.547-.234.547-.17c0 .234.203.28.297.28a.407.407 0 0 0 .36-.265l.187-.75.218-.89c.063-.235.125-.454.172-.673.016-.062.11-.39.11-.453.03-.094.343-.64.687-.922.219-.156.516-.344.953-.344.422 0 .531.344.531.704 0 .53-.375 1.625-.609 2.234-.078.219-.14.344-.14.547 0 .469.359.812.828.812.937 0 1.296-1.453 1.296-1.53 0-.11-.078-.11-.109-.11-.11 0-.11.031-.156.187-.14.532-.469 1.235-1.016 1.235-.172 0-.234-.094-.234-.329 0-.25.078-.484.172-.703.156-.437.61-1.625.61-2.203 0-.64-.391-1.062-1.141-1.062-.626 0-1.11.312-1.485.765Zm0 0"/></symbol><symbol overflow="visible" id="t"><path style="stroke:none" d="M4.688-3.766a.562.562 0 0 0 .03-.171c0-.172-.109-.266-.28-.266-.094 0-.375.062-.407.422-.187-.36-.531-.625-.937-.625-1.125 0-2.36 1.39-2.36 2.828C.734-.594 1.328 0 2.047 0c.594 0 1.062-.469 1.156-.578l.016.015C3.016.313 2.89.734 2.89.75c-.047.094-.375 1.078-1.438 1.078a2.68 2.68 0 0 1-.797-.11.542.542 0 0 0 .406-.515C1.063 1.047.954.86.688.86a.546.546 0 0 0-.53.579c0 .406.359.609 1.312.609 1.25 0 1.968-.781 2.125-1.375ZM3.405-1.28c-.062.265-.297.515-.515.703-.204.172-.516.36-.813.36-.5 0-.64-.516-.64-.923 0-.468.28-1.656.562-2.156.266-.484.688-.89 1.11-.89.656 0 .796.812.796.859 0 .047-.015.11-.031.14Zm0 0"/></symbol><symbol overflow="visible" id="x"><path style="stroke:none" d="M4.75-2.36c0-1.562-.922-2.046-1.656-2.046-1.375 0-2.688 1.422-2.688 2.828C.406-.641 1 .109 2.031.109c.625 0 1.344-.234 2.094-.843.125.53.453.843.906.843.532 0 .844-.546.844-.703 0-.078-.063-.11-.125-.11-.063 0-.094.032-.125.11-.188.485-.547.485-.563.485-.312 0-.312-.782-.312-1.016 0-.203 0-.234.11-.344C5.796-2.656 6-3.812 6-3.812c0-.032-.016-.11-.125-.11-.094 0-.094.031-.14.219-.188.625-.516 1.375-.985 1.969ZM4.094-.983c-.89.765-1.657.875-2.047.875-.594 0-.906-.454-.906-1.094 0-.484.265-1.563.578-2.063.468-.734 1.015-.921 1.36-.921.983 0 .983 1.312.983 2.078 0 .375 0 .953.032 1.125Zm0 0"/></symbol><symbol overflow="visible" id="b"><path style="stroke:none" d="M4.531-1.828h-.234c-.078.672-.172 1.578-1.5 1.578h-.688c-.328 0-.343-.063-.343-.266v-3.671c0-.235 0-.329.656-.329h.25v-.25c-.156.016-1.047.032-1.219.032-.266 0-1.062-.032-1.062-.032v.25h.171c.532 0 .547.079.547.329v3.625c0 .234-.015.312-.546.312H.39V0h3.937Zm0 0"/></symbol><symbol overflow="visible" id="c"><path style="stroke:none" d="M3.11-1.875c0-.36 0-.625-.329-.89C2.5-3 2.171-3.11 1.75-3.11c-.656 0-1.125.25-1.125.671 0 .235.156.344.344.344a.32.32 0 0 0 .328-.328.319.319 0 0 0-.25-.312c.25-.172.656-.172.687-.172.391 0 .829.25.829.844v.203c-.391.015-.844.046-1.36.234-.625.219-.812.61-.812.922 0 .594.718.765 1.218.765.547 0 .875-.312 1.032-.578.015.282.203.547.53.547.017 0 .688 0 .688-.656v-.39h-.234v.374c0 .079 0 .407-.266.407-.25 0-.25-.329-.25-.407Zm-.547.89c0 .672-.594.86-.907.86-.36 0-.687-.234-.687-.578 0-.39.328-.922 1.594-.969Zm0 0"/></symbol><symbol overflow="visible" id="d"><path style="stroke:none" d="M5.61-2.36a2.56 2.56 0 0 0-2.563-2.546A2.56 2.56 0 0 0 .484-2.36c0 1.375 1.141 2.5 2.563 2.5 1.437 0 2.562-1.125 2.562-2.5ZM3.046-.093c-.813 0-1.813-.656-1.813-2.375 0-1.61 1.032-2.203 1.813-2.203.797 0 1.828.594 1.828 2.203 0 1.719-1 2.375-1.828 2.375Zm0 0"/></symbol><symbol overflow="visible" id="e"><path style="stroke:none" d="M5.188-4.719c0-.125 0-.187-.094-.187-.032 0-.063 0-.125.093l-.375.532a1.97 1.97 0 0 0-1.438-.625c-1.469 0-2.672 1.14-2.672 2.515C.484-.969 1.72.141 3.156.141c1.235 0 2.031-.922 2.031-1.766 0-.078-.015-.14-.125-.14-.03 0-.109 0-.109.093C4.891-.547 3.937-.109 3.25-.109c-.734 0-2.016-.454-2.016-2.266 0-1.89 1.344-2.266 2-2.266.704 0 1.516.454 1.704 1.657.015.078.078.078.125.078.125 0 .125-.047.125-.188Zm0 0"/></symbol><symbol overflow="visible" id="f"><path style="stroke:none" d="M2.516-3v.25c.468 0 .515.047.515.39v1.204c0 .61-.39 1.031-.922 1.031-.625 0-.656-.297-.656-.656v-2.297L.375-3v.25c.531 0 .531.031.531.64v1.047c0 .485 0 1.125 1.156 1.125.157 0 .657 0 1-.578v.579L4.11 0v-.25c-.468 0-.515-.047-.515-.39v-2.438Zm0 0"/></symbol><symbol overflow="visible" id="i"><path style="stroke:none" d="M3.516-1.266H3.28c-.015.157-.094.563-.187.625-.047.047-.578.047-.688.047h-1.28c.734-.64.984-.844 1.39-1.172.516-.406 1-.843 1-1.5 0-.843-.734-1.359-1.624-1.359-.86 0-1.454.61-1.454 1.25 0 .344.297.39.376.39a.365.365 0 0 0 .359-.374c0-.125-.047-.375-.406-.375.218-.485.687-.641 1.015-.641.703 0 1.063.547 1.063 1.11 0 .609-.438 1.078-.656 1.328L.516-.266C.437-.203.437-.187.437 0h2.876Zm0 0"/></symbol><symbol overflow="visible" id="m"><path style="stroke:none" d="M3.688-1.14v-.25h-.782V-4.5c0-.14 0-.203-.14-.203-.094 0-.125 0-.188.11L.266-1.392v.25h2.062v.563c0 .25 0 .328-.578.328h-.188V0c.36-.016.797-.031 1.047-.031.266 0 .704.015 1.063.031v-.25h-.188c-.578 0-.578-.078-.578-.328v-.563ZM2.375-3.939v2.547H.531Zm0 0"/></symbol><symbol overflow="visible" id="q"><path style="stroke:none" d="M3.219-1.578h2.14c.094 0 .25 0 .25-.156 0-.188-.156-.188-.25-.188H3.22v-2.14c0-.079 0-.25-.156-.25-.172 0-.172.156-.172.25v2.14H.75c-.094 0-.266 0-.266.172s.157.172.266.172h2.14v2.14c0 .094 0 .266.157.266.172 0 .172-.172.172-.265Zm0 0"/></symbol><symbol overflow="visible" id="r"><path style="stroke:none" d="M2.328-4.438c0-.187 0-.187-.203-.187-.453.438-1.078.438-1.36.438v.25c.157 0 .626 0 1-.188v3.547c0 .234 0 .328-.687.328H.812V0c.125 0 .985-.031 1.235-.031.219 0 1.094.031 1.25.031v-.25H3.03c-.703 0-.703-.094-.703-.328Zm0 0"/></symbol><symbol overflow="visible" id="g"><path style="stroke:none" d="M5.797-2.578h-.25c-.11 1.015-.25 2.265-2 2.265h-.813c-.468 0-.484-.062-.484-.39v-5.313c0-.343 0-.484.938-.484h.328v-.313c-.36.032-1.266.032-1.672.032-.39 0-1.172 0-1.516-.032v.313h.234c.766 0 .797.11.797.469v5.25c0 .36-.03.469-.796.469H.328V0h5.188Zm0 0"/></symbol><symbol overflow="visible" id="h"><path style="stroke:none" d="M3.313-.75c.046.39.312.813.78.813.22 0 .829-.141.829-.954v-.562h-.25v.562c0 .579-.25.641-.36.641-.328 0-.375-.453-.375-.5v-1.984c0-.422 0-.813-.359-1.188a1.9 1.9 0 0 0-1.36-.547C1.391-4.469.703-4 .703-3.344c0 .297.203.469.469.469a.435.435 0 0 0 .453-.453c0-.125-.047-.453-.516-.453.282-.36.766-.469 1.079-.469.5 0 1.062.39 1.062 1.281v.36c-.516.03-1.203.062-1.828.359-.75.344-1 .86-1 1.297 0 .812.969 1.062 1.594 1.062A1.38 1.38 0 0 0 3.312-.75ZM3.25-2.39v1c0 .937-.719 1.28-1.172 1.28-.484 0-.89-.343-.89-.843 0-.547.421-1.375 2.062-1.438Zm0 0"/></symbol><symbol overflow="visible" id="j"><path style="stroke:none" d="M.563-3.406C.563-1.344 2.171.219 4.03.219c1.625 0 2.594-1.39 2.594-2.547 0-.094 0-.172-.125-.172-.11 0-.11.063-.125.172C6.297-.906 5.235-.094 4.141-.094c-.61 0-2.563-.328-2.563-3.312 0-2.969 1.953-3.313 2.563-3.313 1.078 0 1.968.907 2.171 2.36.016.14.016.171.157.171.156 0 .156-.03.156-.234v-2.36c0-.171 0-.25-.11-.25-.03 0-.077 0-.156.126l-.5.734c-.359-.36-.875-.86-1.828-.86-1.875 0-3.468 1.595-3.468 3.626Zm0 0"/></symbol><symbol overflow="visible" id="k"><path style="stroke:none" d="M3.89-.781v.89L5.329 0v-.313c-.687 0-.766-.062-.766-.562v-3.531l-1.468.11v.312c.687 0 .781.062.781.562v1.766c0 .875-.484 1.547-1.219 1.547-.828 0-.875-.47-.875-.985v-3.312l-1.468.11v.312c.78 0 .78.03.78.906v1.5c0 .781 0 1.687 1.516 1.687.563 0 1-.28 1.282-.89Zm0 0"/></symbol><symbol overflow="visible" id="l"><path style="stroke:none" d="M7.188-3.375c0-2.031-1.5-3.656-3.313-3.656-1.797 0-3.313 1.593-3.313 3.656C.563-1.328 2.095.219 3.876.219c1.813 0 3.313-1.578 3.313-3.594ZM3.874-.047c-.953 0-2.297-.875-2.297-3.469 0-2.578 1.469-3.265 2.297-3.265.86 0 2.281.703 2.281 3.265 0 2.641-1.36 3.47-2.281 3.47Zm0 0"/></symbol><symbol overflow="visible" id="u"><path style="stroke:none" d="M3.297 2.39c0-.03 0-.046-.172-.218C1.891.922 1.562-.968 1.562-2.5c0-1.734.375-3.469 1.61-4.703.125-.125.125-.14.125-.172 0-.078-.031-.11-.094-.11-.11 0-1 .688-1.594 1.954C1.11-4.438.984-3.328.984-2.5c0 .781.11 1.984.657 3.125C2.25 1.844 3.094 2.5 3.203 2.5c.063 0 .094-.031.094-.11Zm0 0"/></symbol><symbol overflow="visible" id="w"><path style="stroke:none" d="M2.875-2.5c0-.766-.11-1.969-.656-3.11C1.625-6.827.766-7.483.672-7.483a.107.107 0 0 0-.11.109c0 .031 0 .047.188.234.984.985 1.547 2.563 1.547 4.641C2.297-.78 1.937.97.703 2.22c-.14.125-.14.14-.14.172 0 .062.046.109.109.109.094 0 1-.688 1.578-1.953.516-1.094.625-2.203.625-3.047Zm0 0"/></symbol><symbol overflow="visible" id="o"><path style="stroke:none" d="M1.719-2.75h.703c.14 0 .219 0 .219-.156C2.64-3 2.562-3 2.437-3h-.656l.25-1.031a.324.324 0 0 0 .031-.094c0-.14-.109-.234-.25-.234-.171 0-.265.125-.328.296-.046.188.047-.156-.265 1.063H.516c-.125 0-.22 0-.22.156 0 .094.079.094.204.094h.656L.75-1.11c-.047.173-.11.423-.11.516 0 .406.36.656.75.656.782 0 1.22-.968 1.22-1.062 0-.094-.094-.094-.11-.094-.094 0-.094.016-.156.14-.188.438-.547.829-.922.829-.156 0-.25-.094-.25-.344 0-.062.031-.219.047-.281Zm0 0"/></symbol><symbol overflow="visible" id="v"><path style="stroke:none" d="M1.578-7.125c0-.172 0-.36-.187-.36-.204 0-.204.188-.204.36v9.266c0 .171 0 .359.204.359.187 0 .187-.188.187-.36Zm0 0"/></symbol><symbol overflow="visible" id="y"><path style="stroke:none" d="M4.75-2.188h3.078c.14 0 .438 0 .438-.312 0-.297-.297-.297-.438-.297H4.75V-5.89c0-.125 0-.421-.297-.421-.312 0-.312.296-.312.421v3.094H1.062c-.14 0-.421 0-.421.297 0 .313.296.313.421.313h3.079V.89c0 .125 0 .421.312.421.297 0 .297-.28.297-.421Zm0 0"/></symbol><clipPath id="n"><path d="M244 10h3v144.203h-3Zm0 0"/></clipPath><clipPath id="p"><path d="M455 72h120v82.203H455Zm0 0"/></clipPath><clipPath id="s"><path d="M448 122h48v32.203h-48Zm0 0"/></clipPath></defs><path style="fill:none;stroke-width:1.19553;stroke-linecap:butt;stroke-linejoin:miter;stroke:#000;stroke-opacity:1;stroke-miterlimit:10" d="m.002 0-85.043-28.348v56.696Zm0 0" transform="matrix(1 0 0 -1 188.6 82.539)"/><path style="fill-rule:nonzero;fill:teal;fill-opacity:1;stroke-width:1.19553;stroke-linecap:butt;stroke-linejoin:miter;stroke:#000;stroke-opacity:1;stroke-miterlimit:10" d="M6.435 0A6.434 6.434 0 0 1 .002 6.434 6.435 6.435 0 0 1-6.436 0 6.435 6.435 0 0 1 .002-6.434 6.434 6.434 0 0 1 6.435 0Zm0 0" transform="matrix(1 0 0 -1 188.6 82.539)"/><use xlink:href="#a" x="199.55" y="85.251" style="fill:#000;fill-opacity:1"/><g style="fill:#000;fill-opacity:1"><use xlink:href="#b" x="205.291" y="86.745"/><use xlink:href="#c" x="210.217" y="86.745"/></g><path style="fill-rule:nonzero;fill:#66f;fill-opacity:1;stroke-width:1.19553;stroke-linecap:butt;stroke-linejoin:miter;stroke:#000;stroke-opacity:1;stroke-miterlimit:10" d="M-78.608-28.348a6.434 6.434 0 1 1-12.866-.001 6.434 6.434 0 0 1 12.866.001Zm0 0" transform="matrix(1 0 0 -1 188.6 82.539)"/><use xlink:href="#a" x="80.257" y="113.597" style="fill:#000;fill-opacity:1"/><use xlink:href="#d" x="85.997" y="115.092" style="fill:#000;fill-opacity:1"/><path style="fill-rule:nonzero;fill:#ff8000;fill-opacity:1;stroke-width:1.19553;stroke-linecap:butt;stroke-linejoin:miter;stroke:#000;stroke-opacity:1;stroke-miterlimit:10" d="M-78.608 28.348a6.434 6.434 0 1 1-12.866-.001 6.434 6.434 0 0 1 12.866 0Zm0 0" transform="matrix(1 0 0 -1 188.6 82.539)"/><use xlink:href="#a" x="76.285" y="56.904" style="fill:#000;fill-opacity:1"/><g style="fill:#000;fill-opacity:1"><use xlink:href="#e" x="82.025" y="58.399"/><use xlink:href="#f" x="87.712" y="58.399"/></g><g style="fill:#000;fill-opacity:1"><use xlink:href="#g" x="3.32" y="84.922"/><use xlink:href="#h" x="9.547" y="84.922"/></g><use xlink:href="#i" x="14.528" y="86.964" style="fill:#000;fill-opacity:1"/><g style="fill:#000;fill-opacity:1"><use xlink:href="#j" x="18.5" y="84.922"/><use xlink:href="#k" x="25.695" y="84.922"/><use xlink:href="#l" x="31.23" y="84.922"/></g><use xlink:href="#m" x="38.979" y="86.964" style="fill:#000;fill-opacity:1"/><path style="fill:none;stroke-width:1.19553;stroke-linecap:butt;stroke-linejoin:miter;stroke:#000;stroke-opacity:1;stroke-miterlimit:10" d="M-141.733 0h31.766" transform="matrix(1 0 0 -1 188.6 82.539)"/><path style="fill:none;stroke-width:1.19553;stroke-linecap:round;stroke-linejoin:round;stroke:#000;stroke-opacity:1;stroke-miterlimit:10" d="M-3.03 3.832C-2.475 1.532-1.24.445.001 0c-1.242-.445-2.476-1.531-3.03-3.832" transform="matrix(1 0 0 -1 79.229 82.539)"/><g clip-path="url(#n)"><path style="fill:none;stroke-width:1.59404;stroke-linecap:butt;stroke-linejoin:miter;stroke:#000;stroke-opacity:1;stroke-miterlimit:10" d="M56.693-70.867V70.867" transform="matrix(1 0 0 -1 188.6 82.539)"/></g><path style="fill:none;stroke-width:1.19553;stroke-linecap:butt;stroke-linejoin:miter;stroke:#000;stroke-opacity:1;stroke-miterlimit:10" d="M198.427 21.262 113.388-7.086v56.691Zm0 0" transform="matrix(1 0 0 -1 188.6 82.539)"/><path style="fill-rule:nonzero;fill:teal;fill-opacity:1;stroke-width:1.19553;stroke-linecap:butt;stroke-linejoin:miter;stroke:#000;stroke-opacity:1;stroke-miterlimit:10" d="M204.86 21.262a6.434 6.434 0 0 1-12.866 0 6.435 6.435 0 0 1 6.433-6.438 6.435 6.435 0 0 1 6.434 6.438Zm0 0" transform="matrix(1 0 0 -1 188.6 82.539)"/><use xlink:href="#a" x="397.976" y="63.859" style="fill:#000;fill-opacity:1"/><use xlink:href="#o" x="403.716" y="60.244" style="fill:#000;fill-opacity:1"/><g style="fill:#000;fill-opacity:1"><use xlink:href="#b" x="403.716" y="66.603"/><use xlink:href="#c" x="408.642" y="66.603"/></g><path style="fill-rule:nonzero;fill:#66f;fill-opacity:1;stroke-width:1.19553;stroke-linecap:butt;stroke-linejoin:miter;stroke:#000;stroke-opacity:1;stroke-miterlimit:10" d="M119.822-7.086a6.434 6.434 0 1 1-12.868-.001 6.434 6.434 0 0 1 12.868.001Zm0 0" transform="matrix(1 0 0 -1 188.6 82.539)"/><use xlink:href="#a" x="278.682" y="92.206" style="fill:#000;fill-opacity:1"/><use xlink:href="#o" x="284.422" y="88.591" style="fill:#000;fill-opacity:1"/><use xlink:href="#d" x="284.422" y="94.95" style="fill:#000;fill-opacity:1"/><path style="fill-rule:nonzero;fill:#ff8000;fill-opacity:1;stroke-width:1.19553;stroke-linecap:butt;stroke-linejoin:miter;stroke:#000;stroke-opacity:1;stroke-miterlimit:10" d="M119.822 49.605a6.437 6.437 0 0 1-6.434 6.438 6.435 6.435 0 0 1-6.433-6.438 6.434 6.434 0 0 1 12.867 0Zm0 0" transform="matrix(1 0 0 -1 188.6 82.539)"/><use xlink:href="#a" x="274.71" y="35.513" style="fill:#000;fill-opacity:1"/><use xlink:href="#o" x="280.45" y="31.898" style="fill:#000;fill-opacity:1"/><g style="fill:#000;fill-opacity:1"><use xlink:href="#e" x="280.45" y="38.257"/><use xlink:href="#f" x="286.137" y="38.257"/></g><g clip-path="url(#p)"><path style="fill:none;stroke-width:1.19553;stroke-linecap:butt;stroke-linejoin:miter;stroke:#000;stroke-opacity:1;stroke-miterlimit:10" d="M368.51-35.434 283.465-63.78v56.695Zm0 0" transform="matrix(1 0 0 -1 188.6 82.539)"/></g><path style="fill-rule:nonzero;fill:teal;fill-opacity:1;stroke-width:1.19553;stroke-linecap:butt;stroke-linejoin:miter;stroke:#000;stroke-opacity:1;stroke-miterlimit:10" d="M374.943-35.434a6.434 6.434 0 1 1-12.868 0 6.434 6.434 0 0 1 12.868 0Zm0 0" transform="matrix(1 0 0 -1 188.6 82.539)"/><use xlink:href="#a" x="568.054" y="120.886" style="fill:#000;fill-opacity:1"/><use xlink:href="#o" x="573.794" y="116.624" style="fill:#000;fill-opacity:1"/><g style="fill:#000;fill-opacity:1"><use xlink:href="#q" x="576.804" y="116.624"/><use xlink:href="#r" x="582.92" y="116.624"/></g><g style="fill:#000;fill-opacity:1"><use xlink:href="#b" x="573.794" y="123.814"/><use xlink:href="#c" x="578.72" y="123.814"/></g><path style="stroke:none;fill-rule:nonzero;fill:#66f;fill-opacity:1" d="M478.504 146.32a6.435 6.435 0 0 0-6.438-6.433 6.434 6.434 0 0 0 0 12.867 6.437 6.437 0 0 0 6.438-6.434Zm0 0"/><g clip-path="url(#s)"><path style="fill:none;stroke-width:1.19553;stroke-linecap:butt;stroke-linejoin:miter;stroke:#000;stroke-opacity:1;stroke-miterlimit:10" d="M289.904-63.781a6.435 6.435 0 0 1-6.438 6.433 6.434 6.434 0 0 1 0-12.867 6.437 6.437 0 0 1 6.438 6.434Zm0 0" transform="matrix(1 0 0 -1 188.6 82.539)"/></g><path style="fill-rule:nonzero;fill:#ff8000;fill-opacity:1;stroke-width:1.19553;stroke-linecap:butt;stroke-linejoin:miter;stroke:#000;stroke-opacity:1;stroke-miterlimit:10" d="M289.904-7.086a6.435 6.435 0 0 1-6.438 6.434 6.434 6.434 0 0 1 0-12.868 6.435 6.435 0 0 1 6.438 6.434Zm0 0" transform="matrix(1 0 0 -1 188.6 82.539)"/><path style="fill:none;stroke-width:.59776;stroke-linecap:butt;stroke-linejoin:miter;stroke:#000;stroke-opacity:1;stroke-miterlimit:10" d="M202.677 13.894c-.406-2.847-2.71-5.425-6.78-6.78L169.665-1.63c-4.067-1.355-6.375-3.934-6.782-6.781-2.035 2.035-5.425 2.71-9.496 1.355l-26.226-8.742c-4.07-1.36-7.461-.68-9.496 1.356" transform="matrix(1 0 0 -1 188.6 82.539)"/><path style="fill-rule:nonzero;fill:#00b200;fill-opacity:1;stroke-width:.59776;stroke-linecap:butt;stroke-linejoin:miter;stroke:#000;stroke-opacity:1;stroke-miterlimit:10" d="M171.29-17.438a4.7 4.7 0 0 1-4.695 4.7 4.698 4.698 0 1 1 4.695-4.7Zm0 0" transform="matrix(1 0 0 -1 188.6 82.539)"/><use xlink:href="#t" x="332.25" y="116.494" style="fill:#000;fill-opacity:1"/><use xlink:href="#u" x="337.36" y="116.494" style="fill:#000;fill-opacity:1"/><use xlink:href="#a" x="341.234" y="116.494" style="fill:#000;fill-opacity:1"/><use xlink:href="#o" x="346.974" y="112.878" style="fill:#000;fill-opacity:1"/><g style="fill:#000;fill-opacity:1"><use xlink:href="#b" x="346.974" y="119.238"/><use xlink:href="#c" x="351.9" y="119.238"/></g><g style="fill:#000;fill-opacity:1"><use xlink:href="#v" x="356.369" y="116.494"/><use xlink:href="#v" x="359.137" y="116.494"/></g><use xlink:href="#a" x="361.904" y="116.494" style="fill:#000;fill-opacity:1"/><use xlink:href="#o" x="367.644" y="112.878" style="fill:#000;fill-opacity:1"/><use xlink:href="#d" x="367.644" y="119.238" style="fill:#000;fill-opacity:1"/><use xlink:href="#w" x="374.258" y="116.494" style="fill:#000;fill-opacity:1"/><path style="fill:none;stroke-width:.59776;stroke-linecap:butt;stroke-linejoin:miter;stroke:#000;stroke-opacity:1;stroke-miterlimit:10" d="M117.638 56.973c2.035 2.035 5.426 2.71 9.496 1.355l26.23-8.742c4.067-1.36 7.462-.68 9.497 1.355.406-2.847 2.71-5.425 6.781-6.78l26.23-8.747c4.067-1.355 6.376-3.934 6.782-6.781" transform="matrix(1 0 0 -1 188.6 82.539)"/><path style="fill-rule:nonzero;fill:#e50000;fill-opacity:1;stroke-width:.59776;stroke-linecap:butt;stroke-linejoin:miter;stroke:#000;stroke-opacity:1;stroke-miterlimit:10" d="M171.29 59.957a4.697 4.697 0 1 1-9.393-.003 4.697 4.697 0 0 1 9.394.003Zm0 0" transform="matrix(1 0 0 -1 188.6 82.539)"/><use xlink:href="#t" x="330.265" y="11.225" style="fill:#000;fill-opacity:1"/><use xlink:href="#u" x="335.374" y="11.225" style="fill:#000;fill-opacity:1"/><use xlink:href="#a" x="339.248" y="11.225" style="fill:#000;fill-opacity:1"/><use xlink:href="#o" x="344.988" y="7.61" style="fill:#000;fill-opacity:1"/><g style="fill:#000;fill-opacity:1"><use xlink:href="#b" x="344.988" y="13.969"/><use xlink:href="#c" x="349.914" y="13.969"/></g><g style="fill:#000;fill-opacity:1"><use xlink:href="#v" x="354.384" y="11.225"/><use xlink:href="#v" x="357.152" y="11.225"/></g><use xlink:href="#a" x="359.919" y="11.225" style="fill:#000;fill-opacity:1"/><use xlink:href="#o" x="365.659" y="7.61" style="fill:#000;fill-opacity:1"/><g style="fill:#000;fill-opacity:1"><use xlink:href="#e" x="365.659" y="13.969"/><use xlink:href="#f" x="371.346" y="13.969"/></g><use xlink:href="#w" x="376.244" y="11.225" style="fill:#000;fill-opacity:1"/><path style="fill-rule:nonzero;fill:#fff200;fill-opacity:1;stroke-width:.59776;stroke-linecap:butt;stroke-linejoin:miter;stroke:#000;stroke-opacity:1;stroke-miterlimit:10" d="M257.67 21.262a4.695 4.695 0 0 1-4.696 4.695 4.698 4.698 0 0 1 0-9.395 4.698 4.698 0 0 1 4.696 4.7Zm0 0" transform="matrix(1 0 0 -1 188.6 82.539)"/><path style="fill:none;stroke-width:1.19553;stroke-linecap:butt;stroke-linejoin:miter;stroke:#000;stroke-opacity:1;stroke-dasharray:2.98883,2.98883;stroke-miterlimit:10" d="M175.525 60.875c29.477 3.027 54.828-8.328 71.488-31.371" transform="matrix(1 0 0 -1 188.6 82.539)"/><path style="fill:none;stroke-width:1.19553;stroke-linecap:round;stroke-linejoin:round;stroke:#000;stroke-opacity:1;stroke-miterlimit:10" d="M-3.027 3.83C-2.477 1.532-1.241.447.003 0c-1.246-.449-2.479-1.534-3.03-3.83" transform="matrix(.58592 .81032 .81032 -.58592 435.963 53.518)"/><use xlink:href="#x" x="408.474" y="22.736" style="fill:#000;fill-opacity:1"/><g style="fill:#000;fill-opacity:1"><use xlink:href="#b" x="414.847" y="24.23"/><use xlink:href="#c" x="419.773" y="24.23"/><use xlink:href="#e" x="423.745" y="24.23"/><use xlink:href="#f" x="429.432" y="24.23"/></g><path style="fill:none;stroke-width:1.19553;stroke-linecap:butt;stroke-linejoin:miter;stroke:#000;stroke-opacity:1;stroke-dasharray:2.98883,2.98883;stroke-miterlimit:10" d="M175.525-18.356c29.477-3.027 54.828 8.329 71.488 31.372" transform="matrix(1 0 0 -1 188.6 82.539)"/><path style="fill:none;stroke-width:1.19553;stroke-linecap:round;stroke-linejoin:round;stroke:#000;stroke-opacity:1;stroke-miterlimit:10" d="M-3.028 3.83C-2.476 1.532-1.244.447.002 0c-1.244-.447-2.479-1.533-3.03-3.83" transform="scale(.99996 -.99996) rotate(54.13 285.552 392.108)"/><use xlink:href="#x" x="408.474" y="102.617" style="fill:#000;fill-opacity:1"/><g style="fill:#000;fill-opacity:1"><use xlink:href="#b" x="414.847" y="104.112"/><use xlink:href="#c" x="419.773" y="104.112"/><use xlink:href="#d" x="423.745" y="104.112"/></g><use xlink:href="#y" x="450.485" y="63.77" style="fill:#000;fill-opacity:1"/><path style="fill:none;stroke-width:1.19553;stroke-linecap:butt;stroke-linejoin:miter;stroke:#000;stroke-opacity:1;stroke-dasharray:2.98883,2.98883;stroke-miterlimit:10" d="M274.716 21.402c40.524.426 69.543-15.926 89.567-49.777" transform="matrix(1 0 0 -1 188.6 82.539)"/><path style="fill:none;stroke-width:1.19553;stroke-linecap:round;stroke-linejoin:round;stroke:#000;stroke-opacity:1;stroke-miterlimit:10" d="M-3.03 3.832C-2.474 1.53-1.241.447 0-.002c-1.243-.444-2.476-1.53-3.027-3.828" transform="matrix(.50902 .86067 .86067 -.50902 553.185 111.429)"/></svg>