<svg xmlns="http://www.w3.org/2000/svg" xmlns:xlink="http://www.w3.org/1999/xlink" width="738.336" height="154.399" viewBox="0 0 553.752 115.799"><defs><clipPath id="c"><path d="M355 22.055h25V36.23h-25Zm0 0"/></clipPath><clipPath id="d"><path d="M326 90h21v25.8h-21Zm0 0"/></clipPath><clipPath id="e"><path d="M288 53h126v62.8H288Zm0 0"/></clipPath><clipPath id="f"><path d="M355 90h20v25.8h-20Zm0 0"/></clipPath><clipPath id="g"><path d="M311 73h80v23h-80Zm0 0"/></clipPath><clipPath id="h"><path d="M336.707 95.758c-13.96-2.461-21.969-8.035-25.512-14.176V24.891h79.371v56.695c-3.543 6.137-11.554 11.71-25.511 14.172"/></clipPath><clipPath id="i"><path d="M311 67h80v29h-80Zm0 0"/></clipPath><clipPath id="j"><path d="M336.707 95.758c-13.96-2.461-21.969-8.035-25.512-14.176V24.891h79.371v56.695c-3.543 6.137-11.554 11.71-25.511 14.172"/></clipPath><clipPath id="k"><path d="M346 71h5v4h-5Zm0 0"/></clipPath><clipPath id="l"><path d="M336.707 95.758c-13.96-2.461-21.969-8.035-25.512-14.176V24.891h79.371v56.695c-3.543 6.137-11.554 11.71-25.511 14.172"/></clipPath><clipPath id="m"><path d="M360 95h10v17h-10Zm0 0"/></clipPath><clipPath id="n"><path d="M360.8 105.68c0 5.476 1.903 9.922 4.255 9.922 2.347 0 4.25-4.446 4.25-9.922 0-5.48-1.903-9.922-4.25-9.922-2.352 0-4.254 4.441-4.254 9.922"/></clipPath><clipPath id="o"><path d="M332 95h9v17h-9Zm0 0"/></clipPath><clipPath id="p"><path d="M340.957 105.68c0 5.476-1.902 9.922-4.25 9.922s-4.254-4.446-4.254-9.922c0-5.48 1.906-9.922 4.254-9.922s4.25 4.441 4.25 9.922"/></clipPath><clipPath id="q"><path d="M491 90h15v25.8h-15Zm0 0"/></clipPath><clipPath id="r"><path d="M434 53h119.754v62.8H434Zm0 0"/></clipPath><clipPath id="s"><path d="M460 73h74v23h-74Zm0 0"/></clipPath><clipPath id="t"><path d="M496.867 95.758c-14.176 0-32.297-4.492-36.851-9.922V29.14h73.703v56.695c-4.559 5.43-22.68 9.922-36.852 9.922"/></clipPath><clipPath id="u"><path d="M460 70h74v26h-74Zm0 0"/></clipPath><clipPath id="v"><path d="M496.867 95.758c-14.176 0-32.297-4.492-36.851-9.922V29.14h73.703v56.695c-4.559 5.43-22.68 9.922-36.852 9.922"/></clipPath><clipPath id="w"><path d="M492 74h5v4h-5Zm0 0"/></clipPath><clipPath id="x"><path d="M496.867 95.758c-14.176 0-32.297-4.492-36.851-9.922V29.14h73.703v56.695c-4.559 5.43-22.68 9.922-36.852 9.922"/></clipPath><symbol overflow="visible" id="a"><path style="stroke:none" d="m1.266-.766 1.062-1.03c1.547-1.376 2.14-1.907 2.14-2.907 0-1.14-.89-1.938-2.109-1.938A1.843 1.843 0 0 0 .5-4.828c0 .547.5.547.531.547.172 0 .516-.11.516-.532a.513.513 0 0 0-.531-.515c-.079 0-.094 0-.125.016.218-.657.765-1.016 1.343-1.016.907 0 1.329.812 1.329 1.625 0 .797-.485 1.578-1.047 2.203L.609-.375C.5-.265.5-.235.5 0h3.703l.266-1.734h-.235C4.172-1.438 4.11-1 4-.844c-.063.078-.719.078-.938.078Zm0 0"/></symbol><symbol overflow="visible" id="b"><path style="stroke:none" d="M2.64-3.719h1.126c-.329 1.469-.422 1.906-.422 2.578 0 .141 0 .407.078.75.11.438.219.5.36.5.202 0 .421-.171.421-.375 0-.062 0-.078-.062-.218-.297-.72-.297-1.375-.297-1.657 0-.515.078-1.062.187-1.578h1.125c.14 0 .5 0 .5-.344 0-.234-.218-.234-.406-.234H1.906c-.218 0-.593 0-1.031.469-.344.39-.61.844-.61.89 0 .016 0 .11.126.11.078 0 .093-.047.156-.125.484-.766 1.062-.766 1.265-.766h.563c-.313 1.203-.844 2.406-1.266 3.313-.078.156-.078.172-.078.25 0 .187.157.265.282.265.296 0 .375-.28.5-.64.14-.469.14-.485.265-.985Zm0 0"/></symbol></defs><path style="fill:none;stroke-width:1.59404;stroke-linecap:butt;stroke-linejoin:miter;stroke:#000;stroke-opacity:1;stroke-miterlimit:10" d="M-56.693 0h112.18" transform="matrix(1 0 0 -1 57.49 57.489)"/><path style="fill:none;stroke-width:1.27522;stroke-linecap:round;stroke-linejoin:round;stroke:#000;stroke-opacity:1;stroke-miterlimit:10" d="M-2.271 3.028C-2.084 1.891-.001.188.569.001c-.57-.192-2.653-1.895-2.84-3.032" transform="matrix(1 0 0 -1 112.978 57.489)"/><path style="fill:none;stroke-width:1.59404;stroke-linecap:butt;stroke-linejoin:miter;stroke:#000;stroke-opacity:1;stroke-miterlimit:10" d="M-.002-56.695V55.49" transform="matrix(1 0 0 -1 57.49 57.489)"/><path style="fill:none;stroke-width:1.27522;stroke-linecap:round;stroke-linejoin:round;stroke:#000;stroke-opacity:1;stroke-miterlimit:10" d="M-2.273 3.03C-2.08 1.891.001.19.567.001.001-.19-2.08-1.893-2.273-3.03" transform="matrix(0 -1 -1 0 57.49 2)"/><path style="fill:none;stroke-width:.3985;stroke-linecap:butt;stroke-linejoin:miter;stroke:#000;stroke-opacity:1;stroke-miterlimit:10" d="M-56.693-56.695H56.694M-56.693-28.347H56.694M-56.693.001H56.694M-56.693 28.348H56.694M-56.693 56.684H56.694M-56.693-56.695V56.692m28.348-113.387V56.692M-.002-56.695V56.692M28.346-56.695V56.692M56.682-56.695V56.692" transform="matrix(1 0 0 -1 57.49 57.489)"/><path style="fill:none;stroke-width:1.59404;stroke-linecap:butt;stroke-linejoin:miter;stroke:#000;stroke-opacity:1;stroke-miterlimit:10" d="M-.002 0h28.348v28.348H-.002Zm0 0" transform="matrix(1 0 0 -1 57.49 57.489)"/><use xlink:href="#a" x="66.154" y="68.227" style="fill:#000;fill-opacity:1"/><use xlink:href="#b" x="71.136" y="68.227" style="fill:#000;fill-opacity:1"/><use xlink:href="#a" x="90.153" y="46.526" style="fill:#000;fill-opacity:1"/><use xlink:href="#b" x="95.134" y="46.526" style="fill:#000;fill-opacity:1"/><path style="fill:none;stroke-width:.3985;stroke-linecap:butt;stroke-linejoin:miter;stroke:#000;stroke-opacity:1;stroke-miterlimit:10" d="M113.389 0h56.691v56.692h-56.69Zm0 0" transform="matrix(1 0 0 -1 57.49 57.489)"/><path style="stroke:none;fill-rule:nonzero;fill:#000;fill-opacity:1" d="M203.762 57.488c-1.063-.199-2.79-.797-3.985-1.492v2.988c1.196-.699 2.922-1.297 3.985-1.496M227.57 29.14c-.199 1.063-.797 2.794-1.492 3.989h2.988c-.699-1.195-1.296-2.926-1.496-3.988M196.957.797c-1.062.2-2.789.797-3.984 1.492V-.699c1.195.699 2.922 1.297 3.984 1.496M170.879 29.14c.2 1.063.797 2.794 1.492 3.989h-2.988c.695-1.195 1.297-2.926 1.496-3.988"/><path style="fill:none;stroke-width:.3985;stroke-linecap:butt;stroke-linejoin:miter;stroke:#000;stroke-opacity:1;stroke-miterlimit:10" d="M269.295 35.434h56.692" transform="matrix(1 0 0 -1 57.49 57.489)"/><path style="stroke:none;fill-rule:nonzero;fill:#000;fill-opacity:1" d="M355.133 22.055c-1.063-.2-2.79-.797-3.985-1.492v2.988c1.196-.7 2.922-1.297 3.985-1.496"/><path style="fill:none;stroke-width:.3985;stroke-linecap:butt;stroke-linejoin:miter;stroke:#000;stroke-opacity:1;stroke-miterlimit:10" d="M269.295 21.259h56.692" transform="matrix(1 0 0 -1 57.49 57.489)"/><path style="stroke:none;fill-rule:nonzero;fill:#000;fill-opacity:1" d="M355.133 36.23c-1.063-.199-2.79-.796-3.985-1.496v2.989c1.196-.696 2.922-1.293 3.985-1.493"/><path style="fill:none;stroke-width:.3985;stroke-linecap:butt;stroke-linejoin:miter;stroke:#000;stroke-opacity:1;stroke-miterlimit:10" d="M269.295 21.259c-3.383-5.856-3.156-14.172-9.922-14.172-16.582 0-16.582 42.52 0 42.52 6.766 0 6.54-8.317 9.922-14.173" transform="matrix(1 0 0 -1 57.49 57.489)"/><path style="stroke:none;fill-rule:nonzero;fill:#000;fill-opacity:1" d="M304.426 29.133c-.2 1.062-.797 2.793-1.496 3.988h2.992c-.7-1.195-1.297-2.926-1.496-3.988"/><path style="fill:none;stroke-width:.3985;stroke-linecap:butt;stroke-linejoin:miter;stroke:#000;stroke-opacity:1;stroke-miterlimit:10" d="M325.987 35.434c-3.38 5.856-3.157 14.172-9.918 14.172h-56.696m0-42.52h56.696c6.761 0 6.539 8.317 9.918 14.173" transform="matrix(1 0 0 -1 57.49 57.489)"/><g clip-path="url(#c)"><path style="fill:none;stroke-width:.3985;stroke-linecap:butt;stroke-linejoin:miter;stroke:#000;stroke-opacity:1;stroke-miterlimit:10" d="M316.069 49.606c-16.582 0-16.582-42.52 0-42.52" transform="matrix(1 0 0 -1 57.49 57.489)"/></g><path style="stroke:none;fill-rule:nonzero;fill:#000;fill-opacity:1" d="M361.121 29.148c.2 1.063.797 2.79 1.496 3.985l-2.992.004c.7-1.196 1.297-2.926 1.496-3.989"/><path style="fill:none;stroke-width:.3985;stroke-linecap:butt;stroke-linejoin:miter;stroke:#000;stroke-opacity:1;stroke-miterlimit:10" d="M416.697 28.348h56.696" transform="matrix(1 0 0 -1 57.49 57.489)"/><path style="stroke:none;fill-rule:nonzero;fill:#000;fill-opacity:1" d="M502.535 29.14c-1.062-.199-2.789-.796-3.984-1.492v2.989c1.195-.7 2.922-1.297 3.984-1.496"/><path style="fill:none;stroke-width:.3985;stroke-linecap:butt;stroke-linejoin:miter;stroke:#000;stroke-opacity:1;stroke-miterlimit:10" d="M416.697 28.348c0-11.742-4.44-21.261-9.921-21.261-5.48 0-9.922 9.52-9.922 21.261 0 11.739 4.441 21.258 9.922 21.258 5.48 0 9.921-9.52 9.921-21.258" transform="matrix(1 0 0 -1 57.49 57.489)"/><path style="stroke:none;fill-rule:nonzero;fill:#000;fill-opacity:1" d="M454.344 29.145c-.2 1.062-.797 2.793-1.492 3.988h2.988c-.7-1.2-1.297-2.926-1.496-3.988"/><path style="fill:none;stroke-width:.3985;stroke-linecap:butt;stroke-linejoin:miter;stroke:#000;stroke-opacity:1;stroke-miterlimit:10" d="M473.393 28.348c0-11.742-4.442-21.261-9.922-21.261h-56.695m66.617 21.261c0 11.739-4.442 21.258-9.922 21.258h-56.695M113.389-34.015h85.039" transform="matrix(1 0 0 -1 57.49 57.489)"/><path style="stroke:none;fill-rule:nonzero;fill:#000;fill-opacity:1" d="M213.398 91.504c-1.062-.2-2.789-.797-3.984-1.492V93c1.195-.7 2.922-1.297 3.984-1.496"/><path style="fill:none;stroke-width:.3985;stroke-linecap:butt;stroke-linejoin:miter;stroke:#000;stroke-opacity:1;stroke-miterlimit:10" d="M113.389-34.015c0-5.48-1.906-9.922-4.254-9.922s-4.25 4.442-4.25 9.922c0 5.477 1.902 9.922 4.25 9.922s4.254-4.445 4.254-9.922" transform="matrix(1 0 0 -1 57.49 57.489)"/><path style="stroke:none;fill-rule:nonzero;fill:#000;fill-opacity:1" d="M162.855 86.91c-.425.996-1.386 2.55-2.328 3.563l2.914.656c-.418-1.32-.625-3.137-.586-4.219"/><path style="fill:none;stroke-width:.3985;stroke-linecap:butt;stroke-linejoin:miter;stroke:#000;stroke-opacity:1;stroke-miterlimit:10" d="M198.428-34.015c0-5.48-1.902-9.922-4.254-9.922h-85.039m89.293 9.922c0 5.477-1.902 9.922-4.254 9.922h-85.039" transform="matrix(1 0 0 -1 57.49 57.489)"/><g clip-path="url(#d)"><path style="fill:none;stroke-width:.3985;stroke-linecap:butt;stroke-linejoin:miter;stroke:#000;stroke-opacity:1;stroke-miterlimit:10" d="M283.467-48.19c0-5.477-1.902-9.923-4.25-9.923s-4.254 4.446-4.254 9.922c0 5.48 1.906 9.922 4.254 9.922s4.25-4.441 4.25-9.922" transform="matrix(1 0 0 -1 57.49 57.489)"/></g><path style="stroke:none;fill-rule:nonzero;fill:#000;fill-opacity:1" d="M332.453 105.68c-.2 1.062-.797 2.789-1.492 3.984h2.988c-.695-1.195-1.297-2.922-1.496-3.984"/><g clip-path="url(#e)"><path style="fill:none;stroke-width:.3985;stroke-linecap:butt;stroke-linejoin:miter;stroke:#000;stroke-opacity:1;stroke-miterlimit:10" d="M279.217-58.113c-27.918 4.922-42.52 14.176-42.52 28.348 0 14.176 28.344 28.348 56.692 28.348s56.695-14.172 56.695-28.348c0-14.172-14.605-23.426-42.52-28.348" transform="matrix(1 0 0 -1 57.49 57.489)"/></g><g clip-path="url(#f)"><path style="fill:none;stroke-width:.3985;stroke-linecap:butt;stroke-linejoin:miter;stroke:#000;stroke-opacity:1;stroke-miterlimit:10" d="M303.31-48.19c0-5.477 1.903-9.923 4.255-9.923 2.347 0 4.25 4.446 4.25 9.922 0 5.48-1.903 9.922-4.25 9.922-2.352 0-4.254-4.441-4.254-9.922" transform="matrix(1 0 0 -1 57.49 57.489)"/></g><path style="stroke:none;fill-rule:nonzero;fill:#000;fill-opacity:1" d="M369.305 105.68c-.2 1.062-.797 2.789-1.493 3.984h2.989c-.7-1.195-1.297-2.922-1.496-3.984"/><path style="fill:none;stroke-width:.3985;stroke-linecap:butt;stroke-linejoin:miter;stroke:#000;stroke-opacity:1;stroke-miterlimit:10" d="M279.217-38.269c-13.96 2.461-21.969 8.035-25.512 14.176m53.86-14.176c13.957 2.461 21.968 8.035 25.511 14.172" transform="matrix(1 0 0 -1 57.49 57.489)"/><g clip-path="url(#g)"><g clip-path="url(#h)"><path style="fill:none;stroke-width:.3985;stroke-linecap:butt;stroke-linejoin:miter;stroke:#000;stroke-opacity:1;stroke-miterlimit:10" d="M279.217-77.952c-27.918 4.921-42.52 8.504-42.52 22.675 0 14.172 28.344 34.016 56.692 34.016s56.695-19.844 56.695-34.016c0-14.171-14.605-17.754-42.52-22.675" transform="matrix(1 0 0 -1 57.49 57.489)"/></g></g><g clip-path="url(#i)"><g clip-path="url(#j)"><path style="fill:none;stroke-width:.3985;stroke-linecap:butt;stroke-linejoin:miter;stroke:#000;stroke-opacity:1;stroke-miterlimit:10" d="M279.217-80.788c-27.918 4.922-42.52 8.504-42.52 22.675 0 14.176 22.676 42.524 56.692 42.524 34.016 0 56.695-28.348 56.695-42.524 0-14.171-14.605-17.753-42.52-22.675" transform="matrix(1 0 0 -1 57.49 57.489)"/></g></g><g clip-path="url(#k)"><g clip-path="url(#l)"><path style="stroke:none;fill-rule:nonzero;fill:#000;fill-opacity:1" d="M350.879 73.078c-1.063-.2-2.79-.797-3.984-1.492v2.988c1.195-.699 2.921-1.297 3.984-1.496"/></g></g><g clip-path="url(#m)"><g clip-path="url(#n)"><path style="fill:none;stroke-width:.3985;stroke-linecap:butt;stroke-linejoin:miter;stroke:#000;stroke-opacity:1;stroke-miterlimit:10" d="M303.31-48.19c27.919 4.921 42.52 8.503 42.52 22.679" transform="matrix(1 0 0 -1 57.49 57.489)"/></g></g><g clip-path="url(#o)"><g clip-path="url(#p)"><path style="fill:none;stroke-width:.3985;stroke-linecap:butt;stroke-linejoin:miter;stroke:#000;stroke-opacity:1;stroke-miterlimit:10" d="M283.467-48.19c-27.914 4.921-42.52 8.503-42.52 22.679" transform="matrix(1 0 0 -1 57.49 57.489)"/></g></g><g clip-path="url(#q)"><path style="fill:none;stroke-width:.3985;stroke-linecap:butt;stroke-linejoin:miter;stroke:#000;stroke-opacity:1;stroke-miterlimit:10" d="M439.377-38.269c1.563 0 2.832-4.441 2.832-9.922 0-5.476-1.27-9.922-2.832-9.922" transform="matrix(1 0 0 -1 57.49 57.489)"/></g><path style="stroke:none;fill-rule:nonzero;fill:#000;fill-opacity:1" d="M499.7 105.664c.198 1.063.8 2.79 1.495 3.984h-2.988c.7-1.195 1.293-2.921 1.492-3.984"/><g clip-path="url(#r)"><path style="fill:none;stroke-width:.3985;stroke-linecap:butt;stroke-linejoin:miter;stroke:#000;stroke-opacity:1;stroke-miterlimit:10" d="M439.377-58.113c-28.347 0-56.695 9.922-56.695 28.348S411.03-1.417 439.377-1.417c28.348 0 56.692-9.922 56.692-28.348s-28.344-28.348-56.692-28.348" transform="matrix(1 0 0 -1 57.49 57.489)"/></g><path style="fill:none;stroke-width:.3985;stroke-linecap:butt;stroke-linejoin:miter;stroke:#000;stroke-opacity:1;stroke-miterlimit:10" d="M439.377-38.269c-14.176 0-32.297 4.492-36.851 9.922m36.851-9.922c14.172 0 32.293 4.492 36.852 9.922" transform="matrix(1 0 0 -1 57.49 57.489)"/><g clip-path="url(#s)"><g clip-path="url(#t)"><path style="fill:none;stroke-width:.3985;stroke-linecap:butt;stroke-linejoin:miter;stroke:#000;stroke-opacity:1;stroke-miterlimit:10" d="M439.377-77.952c-28.347 0-42.52 9.921-42.52 28.343 0 18.426 14.173 28.348 42.52 28.348 28.348 0 42.52-9.922 42.52-28.348 0-18.422-14.172-28.343-42.52-28.343" transform="matrix(1 0 0 -1 57.49 57.489)"/></g></g><g clip-path="url(#u)"><g clip-path="url(#v)"><path style="fill:none;stroke-width:.3985;stroke-linecap:butt;stroke-linejoin:miter;stroke:#000;stroke-opacity:1;stroke-miterlimit:10" d="M439.377-75.12c-28.347 0-42.52 9.922-42.52 28.347 0 18.426 14.173 28.348 42.52 28.348 28.348 0 42.52-9.922 42.52-28.348 0-18.425-14.172-28.347-42.52-28.347" transform="matrix(1 0 0 -1 57.49 57.489)"/></g></g><g clip-path="url(#w)"><g clip-path="url(#x)"><path style="stroke:none;fill-rule:nonzero;fill:#000;fill-opacity:1" d="M496.867 75.914c-1.062-.2-2.793-.797-3.988-1.492v2.988c1.195-.7 2.926-1.297 3.988-1.496"/></g></g></svg>