<svg height="185.992" viewBox="0 0 299.412 139.494" width="399.216" xmlns="http://www.w3.org/2000/svg" xmlns:xlink="http://www.w3.org/1999/xlink"><symbol id="a" overflow="visible"><path d="m1.766-6.922-1.438.11v.312c.703 0 .781.063.781.563v5.187c0 .438-.109.438-.78.438v.312c.327-.016.859-.031 1.109-.031s.734.015 1.109.031v-.313c-.672 0-.781 0-.781-.437zm0 0"/></symbol><symbol id="b" overflow="visible"><path d="m3.313-.75c.046.39.312.813.78.813.22 0 .829-.141.829-.954v-.562h-.25v.562c0 .579-.25.641-.36.641-.328 0-.375-.453-.375-.5v-1.984c0-.422 0-.813-.359-1.188a1.9 1.9 0 0 0 -1.36-.547c-.827 0-1.515.469-1.515 1.125 0 .297.203.469.469.469a.435.435 0 0 0 .453-.453c0-.125-.047-.453-.516-.453.282-.36.766-.469 1.079-.469.5 0 1.062.39 1.062 1.281v.36c-.516.03-1.203.062-1.828.359-.75.344-1 .86-1 1.297 0 .812.969 1.062 1.594 1.062a1.38 1.38 0 0 0 1.296-.859zm-.063-1.64v1c0 .937-.719 1.28-1.172 1.28-.484 0-.89-.343-.89-.843 0-.547.421-1.375 2.062-1.438zm0 0"/></symbol><symbol id="c" overflow="visible"><path d="m4.14-3.344c.25-.64.766-.64.923-.64v-.313c-.235.016-.516.031-.75.031-.172 0-.641-.015-.86-.03v.312c.313 0 .469.171.469.421 0 .11-.016.126-.063.25l-1.015 2.439-1.094-2.673c-.047-.11-.063-.14-.063-.187 0-.25.36-.25.563-.25v-.313c-.266.016-.922.031-1.094.031-.265 0-.672-.015-.968-.03v.312c.484 0 .671 0 .812.343l1.5 3.641a6.764 6.764 0 0 0 -.25.594c-.219.547-.5 1.234-1.14 1.234-.048 0-.282 0-.47-.187.313-.032.391-.25.391-.422 0-.25-.187-.407-.421-.407-.203 0-.421.125-.421.422 0 .454.421.813.921.813.625 0 1.032-.578 1.266-1.14zm0 0"/></symbol><symbol id="d" overflow="visible"><path d="m1.11-2.516c.061-1.484.905-1.734 1.25-1.734 1.015 0 1.124 1.344 1.124 1.734zm0 .22h2.78c.22 0 .25 0 .25-.22 0-.984-.546-1.953-1.78-1.953-1.158 0-2.08 1.032-2.08 2.282.001 1.327 1.048 2.295 2.19 2.295 1.218.002 1.67-1.108 1.67-1.295 0-.094-.079-.125-.141-.125-.078 0-.11.062-.125.14-.343 1.032-1.249 1.032-1.343 1.032-.5 0-.89-.296-1.125-.671-.297-.47-.297-1.125-.297-1.485zm0 0"/></symbol><symbol id="e" overflow="visible"><path d="m1.672-3.313v-1.093l-1.39.11v.312c.702 0 .78.062.78.562v2.672c0 .438-.109.438-.78.438v.312c.39-.016.859-.031 1.14-.031.39 0 .86 0 1.266.031v-.313h-.22c-.734 0-.75-.109-.75-.468v-1.531c0-.985.423-1.876 1.173-1.876.062 0 .093 0 .109.016-.031 0-.234.125-.234.39 0 .266.218.423.437.423a.421.421 0 0 0 .422-.438c0-.312-.313-.61-.734-.61-.735 0-1.094.673-1.22 1.095zm0 0"/></symbol><symbol id="f" overflow="visible"><path d="m2.938-6.375c0-.25 0-.266-.235-.266-.625.641-1.5.641-1.812.641v.313c.203 0 .78 0 1.296-.266v5.172c0 .36-.03.469-.921.469h-.313v.312c.344-.031 1.203-.031 1.61-.031.39 0 1.265 0 1.609.031v-.313h-.313c-.906 0-.921-.109-.921-.468zm0 0"/></symbol><symbol id="g" overflow="visible"><path d="m3.297 2.39c0-.03 0-.046-.172-.218-1.234-1.25-1.563-3.14-1.563-4.672 0-1.734.375-3.469 1.61-4.703.125-.125.125-.14.125-.172 0-.078-.031-.11-.094-.11-.11 0-1 .688-1.594 1.954-.499 1.093-.625 2.203-.625 3.031 0 .781.11 1.984.657 3.125.609 1.219 1.453 1.875 1.562 1.875.063 0 .094-.031.094-.11zm0 0"/></symbol><symbol id="h" overflow="visible"><path d="m2.875-2.5c0-.766-.11-1.969-.656-3.11-.594-1.217-1.453-1.873-1.547-1.873a.107.107 0 0 0 -.11.109c0 .031 0 .047.188.234.984.985 1.547 2.563 1.547 4.641 0 1.719-.36 3.469-1.594 4.719-.14.125-.14.14-.14.172 0 .062.046.109.109.109.094 0 1-.688 1.578-1.953.516-1.094.625-2.203.625-3.047zm0 0"/></symbol><symbol id="i" overflow="visible"><path d="m1.172-2.172c0-1.625.812-2.047 1.344-2.047.093 0 .718.016 1.062.375-.406.031-.469.328-.469.453 0 .266.188.454.454.454.265 0 .468-.157.468-.47 0-.671-.765-1.062-1.531-1.062-1.25 0-2.156 1.079-2.156 2.313 0 1.281.984 2.265 2.14 2.265 1.329 0 1.657-1.203 1.657-1.296 0-.094-.11-.094-.141-.094-.078 0-.11.031-.125.093-.281.923-.938 1.048-1.297 1.048-.531 0-1.406-.421-1.406-2.03zm0 0"/></symbol><symbol id="j" overflow="visible"><path d="m1.719-3.984h1.437v-.313h-1.436v-1.828h-.25c0 .813-.297 1.875-1.282 1.922v.219h.844v2.75c0 1.218.938 1.343 1.297 1.343.703 0 .985-.703.985-1.343v-.563h-.25v.547c0 .734-.297 1.11-.672 1.11-.672 0-.672-.907-.672-1.079zm0 0"/></symbol><symbol id="k" overflow="visible"><path d="m1.766-4.406-1.391.11v.312c.64 0 .734.062.734.546v2.688c0 .438-.109.438-.78.438v.312c.312-.016.859-.031 1.093-.031.36 0 .703.015 1.047.031v-.313c-.672 0-.703-.046-.703-.437zm.03-1.735a.514.514 0 0 0 -.515-.53.537.537 0 0 0 -.531.53c0 .266.219.532.531.532a.514.514 0 0 0 .516-.532zm0 0"/></symbol><symbol id="l" overflow="visible"><path d="m4.14-3.313c.094-.234.266-.671.923-.671v-.313c-.235.016-.516.031-.75.031-.235 0-.688-.015-.86-.03v.312c.36 0 .469.234.469.421 0 .094-.016.141-.047.25l-1.031 2.533-1.11-2.781c-.062-.126-.062-.141-.062-.172 0-.25.39-.25.578-.25v-.313c-.313.016-.86.031-1.094.031-.265 0-.672-.015-.968-.03v.312c.625 0 .671.062.796.359l1.438 3.546c.062.14.078.187.203.187.14 0 .172-.093.219-.187zm0 0"/></symbol><symbol id="m" overflow="visible"><path d="m4.688-2.14c0-1.266-.985-2.329-2.188-2.329-1.25 0-2.219 1.094-2.219 2.329a2.22 2.22 0 0 0 2.203 2.25c1.204 0 2.204-.984 2.204-2.25zm-2.188 2c-.438 0-.875-.204-1.14-.672-.25-.438-.25-1.047-.25-1.407 0-.39 0-.922.234-1.36a1.347 1.347 0 0 1 1.14-.671c.438 0 .86.219 1.125.656.266.422.266 1 .266 1.375 0 .36 0 .906-.219 1.344-.234.453-.672.734-1.156.734zm0 0"/></symbol><symbol id="n" overflow="visible"><path d="m1.094-3.422v2.672c0 .438-.11.438-.782.438v.312c.36-.016.86-.031 1.141-.031.25 0 .766.015 1.11.031v-.313c-.672 0-.782 0-.782-.437v-1.844c0-1.031.719-1.594 1.344-1.594.64 0 .75.532.75 1.11v2.328c0 .438-.11.438-.781.438v.312c.344-.016.86-.031 1.125-.031.25 0 .781.015 1.11.031v-.313c-.516 0-.766 0-.766-.296v-1.907c0-.859 0-1.156-.313-1.515-.14-.172-.469-.375-1.047-.375-.734 0-1.203.422-1.484 1.047v-1.047l-1.407.11v.312c.704 0 .782.062.782.562zm0 0"/></symbol><symbol id="o" overflow="visible"><path d="m1.266-.766 1.062-1.03c1.547-1.376 2.14-1.907 2.14-2.907 0-1.14-.89-1.938-2.109-1.938a1.843 1.843 0 0 0 -1.859 1.813c0 .547.5.547.531.547.172 0 .516-.11.516-.532a.513.513 0 0 0 -.531-.515c-.079 0-.094 0-.125.016.218-.657.765-1.016 1.343-1.016.907 0 1.329.812 1.329 1.625 0 .797-.485 1.578-1.047 2.203l-1.907 2.125c-.109.11-.109.14-.109.375h3.703l.266-1.734h-.235c-.062.296-.124.734-.234.89-.063.078-.719.078-.938.078zm0 0"/></symbol><symbol id="p" overflow="visible"><path d="m3.781-.547v.657l1.469-.11v-.313c-.688 0-.781-.062-.781-.562v-6.047l-1.422.11v.312c.687 0 .765.063.765.563v2.156a1.582 1.582 0 0 0 -1.25-.625c-1.171 0-2.218.984-2.218 2.265 0 1.266.969 2.25 2.11 2.25.64 0 1.077-.343 1.327-.656zm0-2.672v2.047c0 .172 0 .188-.11.36-.296.484-.733.703-1.171.703-.453 0-.813-.266-1.047-.641-.25-.406-.281-.969-.281-1.39 0-.36.016-.954.297-1.407.218-.312.593-.64 1.14-.64.344 0 .766.156 1.063.593.11.172.11.188.11.375zm0 0"/></symbol><symbol id="q" overflow="visible"><path d="m4.078-2.297h2.782c.141 0 .329 0 .329-.203 0-.188-.188-.188-.329-.188h-2.78v-2.796c0-.141 0-.329-.204-.329-.203 0-.203.188-.203.329v2.796h-2.783c-.141 0-.329 0-.329.188 0 .203.188.203.329.203h2.78v2.797c0 .14 0 .328.204.328.203 0 .203-.187.203-.328zm0 0"/></symbol><symbol id="r" overflow="visible"><path d="m2.078-1.938c.219.047 1.031.204 1.031.922 0 .5-.343.907-1.125.907-.843 0-1.203-.563-1.39-1.422-.031-.125-.031-.157-.14-.157-.126 0-.126.063-.126.235v1.328c0 .172 0 .234.11.234.045.001.062-.015.25-.203.015-.015.015-.031.202-.218.437.406.89.421 1.093.421 1.141 0 1.61-.671 1.61-1.39 0-.516-.297-.828-.422-.938-.328-.328-.719-.406-1.14-.484-.563-.11-1.22-.235-1.22-.813 0-.359.25-.765 1.11-.765 1.094 0 1.156.906 1.172 1.203 0 .094.094.094.11.094.14 0 .14-.047.14-.235v-1.015c0-.157 0-.235-.11-.235-.046 0-.078 0-.203.125a1.676 1.676 0 0 1 -.172.157c-.375-.282-.78-.282-.937-.282-1.219 0-1.594.672-1.594 1.235 0 .343.156.625.422.843.328.25.61.313 1.328.454zm0 0"/></symbol><symbol id="s" overflow="visible"><path d="m1.063-.75c0 .438-.11.438-.782.438v.312a26.45 26.45 0 0 1 1.078-.031c.313 0 .704.015 1.11.031v-.313c-.672 0-.781 0-.781-.437v-1.031l.64-.547c.766 1.047 1.188 1.61 1.188 1.797s-.172.219-.36.219v.312c.266-.016.86-.031 1.078-.031.282 0 .579.015.86.031v-.313c-.375 0-.594 0-.969-.53l-1.266-1.783c-.015-.016-.062-.078-.062-.11 0-.03.719-.64.812-.718.625-.5 1.047-.531 1.25-.531v-.313c-.28.031-.406.031-.687.031-.36 0-.984-.015-1.125-.03v.312c.187 0 .297.109.297.25 0 .203-.14.312-.219.39l-1.406 1.205v-4.78l-1.439.107v.312c.703 0 .781.063.781.563zm0 0"/></symbol><symbol id="t" overflow="visible"><path d="m1.719-3.75v-.656l-1.438.11v.312c.703 0 .781.062.781.5v4.656c0 .453-.109.453-.78.453v.313c.343-.016.859-.032 1.109-.032.28 0 .78.016 1.125.032v-.313c-.657 0-.766 0-.766-.453v-1.766c.047.172.469.703 1.219.703 1.187 0 2.219-.984 2.219-2.265 0-1.266-.954-2.25-2.079-2.25-.78 0-1.203.437-1.39.656zm.031 2.61v-2.22c.281-.515.766-.796 1.281-.796.735 0 1.328.875 1.328 2 .001 1.203-.687 2.046-1.421 2.046-.407 0-.782-.204-1.047-.61-.141-.203-.141-.219-.141-.422zm0 0"/></symbol><symbol id="u" overflow="visible"><path d="m3.719-3.766c-.188-.375-.469-.64-.922-.64-1.156 0-2.39 1.468-2.39 2.922-.001.937.545 1.593 1.311 1.593.203 0 .703-.046 1.297-.75a.91.91 0 0 0 .906.75c.36 0 .578-.234.75-.546a6.49 6.49 0 0 0 .297-.985c0-.11-.094-.11-.125-.11-.094 0-.11.048-.14.188-.173.64-.345 1.235-.75 1.235-.282 0-.298-.266-.298-.454 0-.218.016-.312.125-.75.11-.406.125-.515.219-.89l.36-1.39c.062-.282.062-.298.062-.345 0-.171-.11-.265-.281-.265-.25 0-.391.219-.422.437zm-.64 2.579c-.063.187-.063.203-.204.375-.438.546-.844.703-1.125.703-.5 0-.64-.547-.64-.938 0-.5.312-1.719.546-2.187.313-.579.75-.954 1.157-.954.64 0 .78.813.78.875a.562.562 0 0 1 -.03.172zm0 0"/></symbol><symbol id="v" overflow="visible"><path d="m5.36-5.938c-.141.141-.47.422-.47.594 0 .094.094.203.188.203s.14-.078.203-.14c.11-.14.344-.422.782-.64.062-.048.171-.095.171-.204 0-.11-.078-.156-.14-.203a1.034 1.034 0 0 1 -.407-.563c-.03-.093-.062-.234-.203-.234-.14 0-.203.14-.203.219 0 .047.078.36.235.578h-3.36c-.156 0-.344 0-.344.203 0 .188.188.188.344.188zm0 0"/></symbol><symbol id="w" overflow="visible"><path d="m3.328-3.016c.063-.25.297-1.171.985-1.171.046 0 .296 0 .5.125a.578.578 0 0 0 -.47.546c0 .157.11.344.376.344a.546.546 0 0 0 .531-.578c0-.516-.578-.656-.922-.656-.578 0-.922.531-1.047.75-.25-.656-.781-.75-1.078-.75-1.031 0-1.61 1.281-1.61 1.531 0 .11.11.11.126.11.078 0 .11-.032.125-.11.344-1.063 1-1.313 1.344-1.313.187 0 .53.094.53.672 0 .313-.171.97-.53 2.375-.157.61-.516 1.032-.954 1.032-.062 0-.28 0-.5-.125.25-.063.47-.266.47-.547 0-.266-.22-.344-.36-.344-.313 0-.547.25-.547.578 0 .453.484.656.922.656.672 0 1.031-.703 1.047-.75.125.36.484.75 1.078.75 1.031 0 1.594-1.28 1.594-1.53 0-.11-.079-.11-.11-.11-.094 0-.11.047-.14.11-.329 1.077-1 1.312-1.313 1.312-.39 0-.547-.313-.547-.657 0-.218.047-.437.156-.875zm0 0"/></symbol><symbol id="x" overflow="visible"><path d="m10.36-3.578a4.791 4.791 0 0 0 -4.783-4.782 4.785 4.785 0 0 0 -4.796 4.78c0 2.626 2.156 4.767 4.782 4.767 2.671 0 4.796-2.157 4.796-4.766zm-9.22-.188c.158-2.421 2.017-4.124 4.25-4.234v4.234zm4.61-4.234c2.25.11 4.11 1.828 4.25 4.234h-4.25zm-.36 8.828c-2.217-.11-4.092-1.797-4.25-4.234h4.25zm4.61-4.234c-.14 2.436-2.047 4.125-4.25 4.234v-4.234zm0 0"/></symbol><symbol id="y" overflow="visible"><path d="m8.281-6.438c0-.453-.781-.375-1.078-.375h-3.766c-.5 0-1.39.282-1.546.829.015.046.046.062.109.062.219 0 .516-.172.656-.328.297 0 .61-.016.906-.016h.626s-.047.172-.047.188a21.46 21.46 0 0 1 -1.407 4.344c-.062.124-.593 1.374-.734 1.5-.438 0-.781-.25-.953-.641-.031-.047-.031-.094-.094-.094-.234 0-.781.328-.781.485 0 .03 0 .046.016.062.187.469.625.734 1.125.734s1.093-.359 1.406-.734c.328-.375.984-2.015 1.25-2.61h1.921c-.016.016-.016.016-.016.032 0 .047.063.063.094.063.218 0 .797-.266.797-.579 0-.078-.079-.062-.204-.062h-2.39c.266-.89.61-1.781.781-2.688h1.313c.25 0 .953-.046 1.125.172.03.047 0 .157.03.203a.12.12 0 0 0 .079.032c.234 0 .781-.297.781-.579zm0 0"/></symbol><path d="m39.027 96.422h35.727v-15.496h-35.727zm0 0" fill="#ffbf80"/><g><use x="42.349" xlink:href="#a" y="91.166"/><use x="45.117" xlink:href="#b" y="91.166"/></g><use x="49.819" xlink:href="#c" y="91.166"/><g><use x="54.798" xlink:href="#d" y="91.166"/><use x="59.226" xlink:href="#e" y="91.166"/></g><use x="66.456" xlink:href="#f" y="91.166"/><use fill="#000080" x="106.821" xlink:href="#u" y="91.166"/><use fill="#000080" x="112.087" xlink:href="#g" y="91.166"/><use fill="#000080" x="115.828" xlink:href="#v" y="91.166"/><use fill="#000080" x="115.958" xlink:href="#w" y="91.166"/><use fill="#000080" x="121.655" xlink:href="#h" y="91.166"/><g><use x="94.728" xlink:href="#b" y="107.35"/><use x="99.709" xlink:href="#i" y="107.35"/><use x="104.137" xlink:href="#j" y="107.35"/><use x="108.011" xlink:href="#k" y="107.35"/><use x="110.779" xlink:href="#l" y="107.35"/></g><g><use x="115.479" xlink:href="#b" y="107.35"/><use x="120.46" xlink:href="#j" y="107.35"/><use x="124.335" xlink:href="#k" y="107.35"/><use x="127.102" xlink:href="#m" y="107.35"/><use x="132.084" xlink:href="#n" y="107.35"/></g><path d="m157.598 96.422h35.726v-15.496h-35.726zm0 0" fill="#80bfbf"/><g><use x="160.916" xlink:href="#a" y="91.166"/><use x="163.684" xlink:href="#b" y="91.166"/></g><use x="168.386" xlink:href="#c" y="91.166"/><g><use x="173.365" xlink:href="#d" y="91.166"/><use x="177.793" xlink:href="#e" y="91.166"/></g><use x="185.023" xlink:href="#o" y="91.166"/><use x="222.067" xlink:href="#x" y="92.262"/><g><use x="219.62" xlink:href="#b" y="104.095"/><use x="224.601" xlink:href="#p" y="104.095"/><use x="230.137" xlink:href="#p" y="104.095"/></g><use x="240.476" xlink:href="#y" y="66.539"/><use x="248.626" xlink:href="#g" y="66.539"/><use x="252.367" xlink:href="#v" y="66.539"/><use x="252.497" xlink:href="#w" y="66.539"/><use x="258.194" xlink:href="#h" y="66.539"/><use x="264.28" xlink:href="#q" y="66.539"/><use x="274.112" xlink:href="#v" y="66.539"/><use x="274.242" xlink:href="#w" y="66.539"/><path d="m176.534 4.37 15.543 11.754" fill="none" stroke="#808080" stroke-miterlimit="10" stroke-width=".19925" transform="matrix(1 0 0 -1 56.892 88.675)"/><use fill="#000080" x="265.29" xlink:href="#u" y="91.166"/><use fill="#000080" x="270.556" xlink:href="#g" y="91.166"/><use fill="#000080" x="274.297" xlink:href="#v" y="91.166"/><use fill="#000080" x="274.427" xlink:href="#w" y="91.166"/><use fill="#000080" x="280.125" xlink:href="#h" y="91.166"/><g><use x="253.197" xlink:href="#b" y="107.35"/><use x="258.178" xlink:href="#i" y="107.35"/><use x="262.606" xlink:href="#j" y="107.35"/><use x="266.48" xlink:href="#k" y="107.35"/><use x="269.248" xlink:href="#l" y="107.35"/></g><g><use x="273.948" xlink:href="#b" y="107.35"/><use x="278.929" xlink:href="#j" y="107.35"/><use x="282.804" xlink:href="#k" y="107.35"/><use x="285.571" xlink:href="#m" y="107.35"/><use x="290.553" xlink:href="#n" y="107.35"/></g><g fill="none" stroke="#000" stroke-miterlimit="10"><path d="m18.061 0h27.89" stroke-width=".3985" transform="matrix(1 0 0 -1 56.892 88.675)"/><path d="m-1.195 1.593c.098-.598 1.196-1.492 1.492-1.594-.296-.097-1.394-.996-1.492-1.594" stroke-linecap="round" stroke-linejoin="round" stroke-width=".31879" transform="matrix(1 0 0 -1 102.843 88.675)"/><path d="m72.159 0h27.886" stroke-width=".3985" transform="matrix(1 0 0 -1 56.892 88.675)"/><path d="m-1.197 1.593c.102-.598 1.197-1.492 1.497-1.594-.3-.097-1.395-.996-1.497-1.594" stroke-linecap="round" stroke-linejoin="round" stroke-width=".31879" transform="matrix(1 0 0 -1 156.939 88.675)"/><path d="m-18.52 0h-38.173" stroke-width=".3985" transform="matrix(1 0 0 -1 56.892 88.675)"/><path d="m-1.195 1.593c.097-.598 1.195-1.492 1.492-1.594-.297-.097-1.395-.996-1.492-1.594" stroke-linecap="round" stroke-linejoin="round" stroke-width=".31879" transform="matrix(1 0 0 -1 38.371 88.675)"/></g><use x="4.945" xlink:href="#v" y="99.313"/><use x="5.075" xlink:href="#w" y="99.313"/><path d="m136.631 0h67.793" fill="none" stroke="#000" stroke-miterlimit="10" stroke-width=".3985" transform="matrix(1 0 0 -1 56.892 88.675)"/><path d="m-1.194 1.593c.098-.598 1.195-1.492 1.492-1.594-.297-.097-1.394-.996-1.492-1.594" style="fill:none;stroke-width:.31879;stroke-linecap:round;stroke-linejoin:round;stroke:#000;stroke-miterlimit:10" transform="matrix(1 0 0 -1 261.315 88.675)"/><path d="m-42.52 0c0 83.495 213.276 88.476 213.276 5.44" fill="none" stroke="#000" stroke-miterlimit="10" stroke-width=".3985" transform="matrix(1 0 0 -1 56.892 88.675)"/><path d="m-1.196 1.594c.101-.597 1.195-1.496 1.496-1.594-.301-.1-1.395-.996-1.496-1.593" style="fill:none;stroke-width:.31879;stroke-linecap:round;stroke-linejoin:round;stroke:#000;stroke-miterlimit:10" transform="matrix(0 1 1 0 227.648 83.235)"/><g><use x="87.357" xlink:href="#r" y="38.291"/><use x="91.286" xlink:href="#s" y="38.291"/><use x="96.545" xlink:href="#k" y="38.291"/><use x="99.312" xlink:href="#t" y="38.291"/></g><g><use x="108.165" xlink:href="#i" y="38.291"/><use x="112.592" xlink:href="#m" y="38.291"/><use x="117.574" xlink:href="#n" y="38.291"/><use x="123.109" xlink:href="#n" y="38.291"/><use x="128.644" xlink:href="#d" y="38.291"/><use x="133.071" xlink:href="#i" y="38.291"/><use x="137.499" xlink:href="#j" y="38.291"/><use x="141.373" xlink:href="#k" y="38.291"/><use x="144.141" xlink:href="#m" y="38.291"/><use x="149.122" xlink:href="#n" y="38.291"/></g><g><use x="100.392" xlink:href="#g" y="50.246"/><use x="104.266" xlink:href="#k" y="50.246"/><use x="107.034" xlink:href="#p" y="50.246"/><use x="112.569" xlink:href="#d" y="50.246"/><use x="116.997" xlink:href="#n" y="50.246"/></g><g><use x="122.253" xlink:href="#j" y="50.246"/><use x="126.127" xlink:href="#k" y="50.246"/><use x="128.895" xlink:href="#j" y="50.246"/></g><g><use x="132.491" xlink:href="#c" y="50.246"/><use x="137.749" xlink:href="#h" y="50.246"/></g><use x="118.029" xlink:href="#v" y="20.044"/><use x="118.159" xlink:href="#w" y="20.044"/><path d="m136.631-28.348c-.644-1.286-2.144-2.145-4.289-2.145h-68.77c-2.144 0-3.644-.855-4.288-2.145-.645 1.29-2.145 2.145-4.29 2.145h-68.769c-2.144 0-3.644.86-4.289 2.145" fill="none" stroke="#000" stroke-miterlimit="10" stroke-width=".3985" transform="matrix(1 0 0 -1 56.892 88.675)"/><use x="105.379" xlink:href="#y" y="133.683"/><use x="113.529" xlink:href="#g" y="133.683"/><use x="117.27" xlink:href="#v" y="133.683"/><use x="117.4" xlink:href="#w" y="133.683"/><use x="123.097" xlink:href="#h" y="133.683"/></svg>