<svg xmlns="http://www.w3.org/2000/svg" xmlns:xlink="http://www.w3.org/1999/xlink" width="399.216" height="185.992" viewBox="0 0 299.412 139.494"><defs><symbol overflow="visible" id="a"><path d="M1.766-6.922l-1.438.11v.312c.703 0 .781.063.781.563V-.75c0 .438-.109.438-.78.438V0c.327-.016.859-.031 1.109-.031s.734.015 1.109.031v-.313c-.672 0-.781 0-.781-.437zm0 0"/></symbol><symbol overflow="visible" id="b"><path d="M3.313-.75c.046.39.312.813.78.813.22 0 .829-.141.829-.954v-.562h-.25v.562c0 .579-.25.641-.36.641-.328 0-.375-.453-.375-.5v-1.984c0-.422 0-.813-.359-1.188-.39-.39-.89-.547-1.36-.547-.827 0-1.515.469-1.515 1.125 0 .297.203.469.469.469a.435.435 0 00.453-.453c0-.125-.047-.453-.516-.453.282-.36.766-.469 1.079-.469.5 0 1.062.39 1.062 1.281v.36c-.516.03-1.203.062-1.828.359-.75.344-1 .86-1 1.297 0 .812.969 1.062 1.594 1.062.656 0 1.109-.406 1.296-.859zM3.25-2.39v1c0 .937-.719 1.28-1.172 1.28-.484 0-.89-.343-.89-.843 0-.547.421-1.375 2.062-1.438zm0 0"/></symbol><symbol overflow="visible" id="c"><path d="M4.14-3.344c.25-.64.766-.64.923-.64v-.313c-.235.016-.516.031-.75.031-.172 0-.641-.015-.86-.03v.312c.313 0 .469.171.469.421 0 .11-.016.126-.063.25L2.844-.874 1.75-3.547c-.047-.11-.063-.14-.063-.187 0-.25.36-.25.563-.25v-.313c-.266.016-.922.031-1.094.031-.265 0-.672-.015-.968-.03v.312c.484 0 .671 0 .812.343L2.5 0a6.764 6.764 0 00-.25.594c-.219.547-.5 1.234-1.14 1.234-.048 0-.282 0-.47-.187.313-.032.391-.25.391-.422C1.031.969.844.812.61.812c-.203 0-.421.125-.421.422 0 .454.421.813.921.813.625 0 1.032-.578 1.266-1.14zm0 0"/></symbol><symbol overflow="visible" id="d"><path d="M1.11-2.516C1.171-4 2.015-4.25 2.36-4.25c1.015 0 1.124 1.344 1.124 1.734zm0 .22h2.78c.22 0 .25 0 .25-.22 0-.984-.546-1.953-1.78-1.953C1.202-4.469.28-3.437.28-2.187.281-.86 1.328.108 2.47.108 3.688.11 4.14-1 4.14-1.187c0-.094-.079-.125-.141-.125-.078 0-.11.062-.125.14C3.531-.14 2.625-.14 2.531-.14c-.5 0-.89-.296-1.125-.671-.297-.47-.297-1.125-.297-1.485zm0 0"/></symbol><symbol overflow="visible" id="e"><path d="M1.672-3.313v-1.093l-1.39.11v.312c.702 0 .78.062.78.562V-.75c0 .438-.109.438-.78.438V0c.39-.016.859-.031 1.14-.031.39 0 .86 0 1.266.031v-.313h-.22c-.734 0-.75-.109-.75-.468v-1.531c0-.985.423-1.876 1.173-1.876.062 0 .093 0 .109.016-.031 0-.234.125-.234.39 0 .266.218.423.437.423a.421.421 0 00.422-.438c0-.312-.313-.61-.734-.61-.735 0-1.094.673-1.22 1.095zm0 0"/></symbol><symbol overflow="visible" id="f"><path d="M2.938-6.375c0-.25 0-.266-.235-.266C2.078-6 1.203-6 .891-6v.313c.203 0 .78 0 1.296-.266v5.172c0 .36-.03.469-.921.469H.953V0c.344-.031 1.203-.031 1.61-.031.39 0 1.265 0 1.609.031v-.313h-.313c-.906 0-.921-.109-.921-.468zm0 0"/></symbol><symbol overflow="visible" id="h"><path d="M3.297 2.39c0-.03 0-.046-.172-.218C1.891.922 1.562-.968 1.562-2.5c0-1.734.375-3.469 1.61-4.703.125-.125.125-.14.125-.172 0-.078-.031-.11-.094-.11-.11 0-1 .688-1.594 1.954C1.11-4.438.984-3.328.984-2.5c0 .781.11 1.984.657 3.125C2.25 1.844 3.094 2.5 3.203 2.5c.063 0 .094-.031.094-.11zm0 0"/></symbol><symbol overflow="visible" id="k"><path d="M2.875-2.5c0-.766-.11-1.969-.656-3.11C1.625-6.827.766-7.483.672-7.483a.107.107 0 00-.11.109c0 .031 0 .047.188.234.984.985 1.547 2.563 1.547 4.641 0 1.719-.36 3.469-1.594 4.719-.14.125-.14.14-.14.172 0 .062.046.109.109.109.094 0 1-.688 1.578-1.953.516-1.094.625-2.203.625-3.047zm0 0"/></symbol><symbol overflow="visible" id="l"><path d="M1.172-2.172c0-1.625.812-2.047 1.344-2.047.093 0 .718.016 1.062.375-.406.031-.469.328-.469.453 0 .266.188.454.454.454.265 0 .468-.157.468-.47 0-.671-.765-1.062-1.531-1.062C1.25-4.469.344-3.39.344-2.156c0 1.281.984 2.265 2.14 2.265 1.329 0 1.657-1.203 1.657-1.296 0-.094-.11-.094-.141-.094-.078 0-.11.031-.125.093C3.594-.265 2.937-.14 2.578-.14c-.531 0-1.406-.421-1.406-2.03zm0 0"/></symbol><symbol overflow="visible" id="m"><path d="M1.719-3.984h1.437v-.313H1.72v-1.828h-.25c0 .813-.297 1.875-1.282 1.922v.219h.844v2.75c0 1.218.938 1.343 1.297 1.343.703 0 .985-.703.985-1.343v-.563h-.25v.547c0 .734-.297 1.11-.672 1.11-.672 0-.672-.907-.672-1.079zm0 0"/></symbol><symbol overflow="visible" id="n"><path d="M1.766-4.406l-1.391.11v.312c.64 0 .734.062.734.546V-.75c0 .438-.109.438-.78.438V0c.312-.016.859-.031 1.093-.031.36 0 .703.015 1.047.031v-.313c-.672 0-.703-.046-.703-.437zm.03-1.735a.514.514 0 00-.515-.53.537.537 0 00-.531.53c0 .266.219.532.531.532a.514.514 0 00.516-.532zm0 0"/></symbol><symbol overflow="visible" id="o"><path d="M4.14-3.313c.094-.234.266-.671.923-.671v-.313c-.235.016-.516.031-.75.031-.235 0-.688-.015-.86-.03v.312c.36 0 .469.234.469.421 0 .094-.016.141-.047.25L2.844-.78l-1.11-2.781c-.062-.126-.062-.141-.062-.172 0-.25.39-.25.578-.25v-.313c-.313.016-.86.031-1.094.031-.265 0-.672-.015-.968-.03v.312c.625 0 .671.062.796.359L2.422-.078c.062.14.078.187.203.187.14 0 .172-.093.219-.187zm0 0"/></symbol><symbol overflow="visible" id="p"><path d="M4.688-2.14c0-1.266-.985-2.329-2.188-2.329C1.25-4.469.281-3.375.281-2.14A2.22 2.22 0 002.484.11c1.204 0 2.204-.984 2.204-2.25zM2.5-.14c-.438 0-.875-.204-1.14-.672-.25-.438-.25-1.047-.25-1.407 0-.39 0-.922.234-1.36a1.347 1.347 0 011.14-.671c.438 0 .86.219 1.125.656.266.422.266 1 .266 1.375 0 .36 0 .906-.219 1.344-.234.453-.672.734-1.156.734zm0 0"/></symbol><symbol overflow="visible" id="q"><path d="M1.094-3.422V-.75c0 .438-.11.438-.782.438V0c.36-.016.86-.031 1.141-.031.25 0 .766.015 1.11.031v-.313c-.672 0-.782 0-.782-.437v-1.844c0-1.031.719-1.594 1.344-1.594.64 0 .75.532.75 1.11V-.75c0 .438-.11.438-.781.438V0c.344-.016.86-.031 1.125-.031.25 0 .781.015 1.11.031v-.313c-.516 0-.766 0-.766-.296v-1.907c0-.859 0-1.156-.313-1.515-.14-.172-.469-.375-1.047-.375-.734 0-1.203.422-1.484 1.047v-1.047l-1.407.11v.312c.704 0 .782.062.782.562zm0 0"/></symbol><symbol overflow="visible" id="r"><path d="M1.266-.766l1.062-1.03c1.547-1.376 2.14-1.907 2.14-2.907 0-1.14-.89-1.938-2.109-1.938C1.234-6.64.5-5.719.5-4.828c0 .547.5.547.531.547.172 0 .516-.11.516-.532a.513.513 0 00-.531-.515c-.079 0-.094 0-.125.016.218-.657.765-1.016 1.343-1.016.907 0 1.329.812 1.329 1.625 0 .797-.485 1.578-1.047 2.203L.609-.375C.5-.265.5-.235.5 0h3.703l.266-1.734h-.235C4.172-1.438 4.11-1 4-.844c-.063.078-.719.078-.938.078zm0 0"/></symbol><symbol overflow="visible" id="t"><path d="M3.781-.547V.11L5.25 0v-.313c-.688 0-.781-.062-.781-.562v-6.047l-1.422.11v.312c.687 0 .765.063.765.563v2.156a1.582 1.582 0 00-1.25-.625c-1.171 0-2.218.984-2.218 2.265 0 1.266.969 2.25 2.11 2.25.64 0 1.077-.343 1.327-.656zm0-2.672v2.047c0 .172 0 .188-.11.36-.296.484-.733.703-1.171.703-.453 0-.813-.266-1.047-.641-.25-.406-.281-.969-.281-1.39 0-.36.016-.954.297-1.407.218-.312.593-.64 1.14-.64.344 0 .766.156 1.063.593.11.172.11.188.11.375zm0 0"/></symbol><symbol overflow="visible" id="v"><path d="M4.078-2.297H6.86c.141 0 .329 0 .329-.203 0-.188-.188-.188-.329-.188H4.08v-2.796c0-.141 0-.329-.204-.329-.203 0-.203.188-.203.329v2.796H.89c-.141 0-.329 0-.329.188 0 .203.188.203.329.203h2.78V.5c0 .14 0 .328.204.328.203 0 .203-.187.203-.328zm0 0"/></symbol><symbol overflow="visible" id="w"><path d="M2.078-1.938c.219.047 1.031.204 1.031.922 0 .5-.343.907-1.125.907-.843 0-1.203-.563-1.39-1.422-.031-.125-.031-.157-.14-.157-.126 0-.126.063-.126.235v1.328c0 .172 0 .234.11.234C.483.11.5.094.688-.094.703-.109.703-.125.89-.312c.437.406.89.421 1.093.421 1.141 0 1.61-.671 1.61-1.39 0-.516-.297-.828-.422-.938-.328-.328-.719-.406-1.14-.484-.563-.11-1.22-.235-1.22-.813 0-.359.25-.765 1.11-.765 1.094 0 1.156.906 1.172 1.203 0 .094.094.094.11.094.14 0 .14-.047.14-.235v-1.015c0-.157 0-.235-.11-.235-.046 0-.078 0-.203.125-.031.032-.125.125-.172.157-.375-.282-.78-.282-.937-.282-1.219 0-1.594.672-1.594 1.235 0 .343.156.625.422.843.328.25.61.313 1.328.454zm0 0"/></symbol><symbol overflow="visible" id="x"><path d="M1.063-.75c0 .438-.11.438-.782.438V0c.328-.016.797-.031 1.078-.031.313 0 .704.015 1.11.031v-.313c-.672 0-.781 0-.781-.437v-1.031l.64-.547c.766 1.047 1.188 1.61 1.188 1.797 0 .187-.172.219-.36.219V0c.266-.016.86-.031 1.078-.031.282 0 .579.015.86.031v-.313c-.375 0-.594 0-.969-.53L2.859-2.626c-.015-.016-.062-.078-.062-.11 0-.03.719-.64.812-.718.625-.5 1.047-.531 1.25-.531v-.313c-.28.031-.406.031-.687.031-.36 0-.984-.015-1.125-.03v.312c.187 0 .297.109.297.25 0 .203-.14.312-.219.39L1.719-2.14v-4.78L.28-6.813v.312c.703 0 .781.063.781.563zm0 0"/></symbol><symbol overflow="visible" id="y"><path d="M1.719-3.75v-.656l-1.438.11v.312c.703 0 .781.062.781.5v4.656c0 .453-.109.453-.78.453v.313c.343-.016.859-.032 1.109-.032.28 0 .78.016 1.125.032v-.313c-.657 0-.766 0-.766-.453V-.594c.047.172.469.703 1.219.703 1.187 0 2.219-.984 2.219-2.265 0-1.266-.954-2.25-2.079-2.25-.78 0-1.203.437-1.39.656zm.031 2.61v-2.22c.281-.515.766-.796 1.281-.796.735 0 1.328.875 1.328 2C4.36-.953 3.672-.11 2.938-.11c-.407 0-.782-.204-1.047-.61-.141-.203-.141-.219-.141-.422zm0 0"/></symbol><symbol overflow="visible" id="g"><path d="M3.719-3.766c-.188-.375-.469-.64-.922-.64-1.156 0-2.39 1.468-2.39 2.922C.406-.547.952.109 1.718.109c.203 0 .703-.046 1.297-.75a.91.91 0 00.906.75c.36 0 .578-.234.75-.546a6.49 6.49 0 00.297-.985c0-.11-.094-.11-.125-.11-.094 0-.11.048-.14.188-.173.64-.345 1.235-.75 1.235-.282 0-.298-.266-.298-.454 0-.218.016-.312.125-.75.11-.406.125-.515.219-.89l.36-1.39c.062-.282.062-.298.062-.345 0-.171-.11-.265-.281-.265-.25 0-.391.219-.422.437zm-.64 2.579c-.063.187-.063.203-.204.375-.438.546-.844.703-1.125.703-.5 0-.64-.547-.64-.938 0-.5.312-1.719.546-2.187.313-.579.75-.954 1.157-.954.64 0 .78.813.78.875a.562.562 0 01-.03.172zm0 0"/></symbol><symbol overflow="visible" id="i"><path d="M5.36-5.938c-.141.141-.47.422-.47.594 0 .094.094.203.188.203s.14-.078.203-.14c.11-.14.344-.422.782-.64.062-.048.171-.095.171-.204 0-.11-.078-.156-.14-.203a1.034 1.034 0 01-.407-.563c-.03-.093-.062-.234-.203-.234-.14 0-.203.14-.203.219 0 .047.078.36.235.578h-3.36c-.156 0-.344 0-.344.203 0 .188.188.188.344.188zm0 0"/></symbol><symbol overflow="visible" id="j"><path d="M3.328-3.016c.063-.25.297-1.171.985-1.171.046 0 .296 0 .5.125a.578.578 0 00-.47.546c0 .157.11.344.376.344a.546.546 0 00.531-.578c0-.516-.578-.656-.922-.656-.578 0-.922.531-1.047.75-.25-.656-.781-.75-1.078-.75-1.031 0-1.61 1.281-1.61 1.531 0 .11.11.11.126.11.078 0 .11-.032.125-.11.344-1.063 1-1.313 1.344-1.313.187 0 .53.094.53.672 0 .313-.171.97-.53 2.375-.157.61-.516 1.032-.954 1.032-.062 0-.28 0-.5-.125.25-.063.47-.266.47-.547 0-.266-.22-.344-.36-.344-.313 0-.547.25-.547.578 0 .453.484.656.922.656.672 0 1.031-.703 1.047-.75.125.36.484.75 1.078.75 1.031 0 1.594-1.28 1.594-1.53 0-.11-.079-.11-.11-.11-.094 0-.11.047-.14.11-.329 1.077-1 1.312-1.313 1.312-.39 0-.547-.313-.547-.657 0-.218.047-.437.156-.875zm0 0"/></symbol><symbol overflow="visible" id="s"><path d="M10.36-3.578A4.791 4.791 0 005.577-8.36 4.785 4.785 0 00.781-3.58c0 2.626 2.156 4.767 4.782 4.767 2.671 0 4.796-2.157 4.796-4.766zm-9.22-.188C1.298-6.187 3.157-7.89 5.39-8v4.234zM5.75-8C8-7.89 9.86-6.172 10-3.766H5.75zM5.39.828C3.173.718 1.298-.969 1.14-3.406h4.25zM10-3.406C9.86-.97 7.953.719 5.75.828v-4.234zm0 0"/></symbol><symbol overflow="visible" id="u"><path d="M8.281-6.438c0-.453-.781-.375-1.078-.375H3.437c-.5 0-1.39.282-1.546.829.015.046.046.062.109.062.219 0 .516-.172.656-.328.297 0 .61-.016.906-.016h.626s-.047.172-.047.188a21.46 21.46 0 01-1.407 4.344C2.672-1.61 2.141-.36 2-.234c-.438 0-.781-.25-.953-.641-.031-.047-.031-.094-.094-.094-.234 0-.781.328-.781.485 0 .03 0 .046.016.062.187.469.625.734 1.125.734s1.093-.359 1.406-.734c.328-.375.984-2.015 1.25-2.61H5.89c-.016.016-.016.016-.016.032 0 .047.063.063.094.063.218 0 .797-.266.797-.579 0-.078-.079-.062-.204-.062h-2.39c.266-.89.61-1.781.781-2.688h1.313c.25 0 .953-.046 1.125.172.03.047 0 .157.03.203a.12.12 0 00.079.032c.234 0 .781-.297.781-.579zm0 0"/></symbol></defs><path d="M39.027 96.422h35.727V80.926H39.027zm0 0" fill="#ffbf80"/><use xlink:href="#a" x="42.349" y="91.166"/><use xlink:href="#b" x="45.117" y="91.166"/><use xlink:href="#c" x="49.819" y="91.166"/><use xlink:href="#d" x="54.798" y="91.166"/><use xlink:href="#e" x="59.226" y="91.166"/><use xlink:href="#f" x="66.456" y="91.166"/><use xlink:href="#g" x="106.821" y="91.166" fill="navy"/><use xlink:href="#h" x="112.087" y="91.166" fill="navy"/><use xlink:href="#i" x="115.828" y="91.166" fill="navy"/><use xlink:href="#j" x="115.958" y="91.166" fill="navy"/><use xlink:href="#k" x="121.655" y="91.166" fill="navy"/><use xlink:href="#b" x="94.728" y="107.35"/><use xlink:href="#l" x="99.709" y="107.35"/><use xlink:href="#m" x="104.137" y="107.35"/><use xlink:href="#n" x="108.011" y="107.35"/><use xlink:href="#o" x="110.779" y="107.35"/><use xlink:href="#b" x="115.479" y="107.35"/><use xlink:href="#m" x="120.46" y="107.35"/><use xlink:href="#n" x="124.335" y="107.35"/><use xlink:href="#p" x="127.102" y="107.35"/><use xlink:href="#q" x="132.084" y="107.35"/><path d="M157.598 96.422h35.726V80.926h-35.726zm0 0" fill="#80bfbf"/><use xlink:href="#a" x="160.916" y="91.166"/><use xlink:href="#b" x="163.684" y="91.166"/><use xlink:href="#c" x="168.386" y="91.166"/><use xlink:href="#d" x="173.365" y="91.166"/><use xlink:href="#e" x="177.793" y="91.166"/><use xlink:href="#r" x="185.023" y="91.166"/><use xlink:href="#s" x="222.067" y="92.262"/><use xlink:href="#b" x="219.62" y="104.095"/><use xlink:href="#t" x="224.601" y="104.095"/><use xlink:href="#t" x="230.137" y="104.095"/><use xlink:href="#u" x="240.476" y="66.539"/><use xlink:href="#h" x="248.626" y="66.539"/><use xlink:href="#i" x="252.367" y="66.539"/><use xlink:href="#j" x="252.497" y="66.539"/><use xlink:href="#k" x="258.194" y="66.539"/><use xlink:href="#v" x="264.28" y="66.539"/><use xlink:href="#i" x="274.112" y="66.539"/><use xlink:href="#j" x="274.242" y="66.539"/><path d="M233.426 84.305l15.543-11.754" fill="none" stroke-width=".199" stroke="gray" stroke-miterlimit="10"/><use xlink:href="#g" x="265.29" y="91.166" fill="navy"/><use xlink:href="#h" x="270.556" y="91.166" fill="navy"/><use xlink:href="#i" x="274.297" y="91.166" fill="navy"/><use xlink:href="#j" x="274.427" y="91.166" fill="navy"/><use xlink:href="#k" x="280.125" y="91.166" fill="navy"/><use xlink:href="#b" x="253.197" y="107.35"/><use xlink:href="#l" x="258.178" y="107.35"/><use xlink:href="#m" x="262.606" y="107.35"/><use xlink:href="#n" x="266.48" y="107.35"/><use xlink:href="#o" x="269.248" y="107.35"/><use xlink:href="#b" x="273.948" y="107.35"/><use xlink:href="#m" x="278.929" y="107.35"/><use xlink:href="#n" x="282.804" y="107.35"/><use xlink:href="#p" x="285.571" y="107.35"/><use xlink:href="#q" x="290.553" y="107.35"/><path d="M74.953 88.676h27.89" fill="none" stroke-width=".399" stroke="#000" stroke-miterlimit="10"/><path d="M101.648 87.082c.098.598 1.196 1.492 1.493 1.594-.297.097-1.395.996-1.493 1.594" fill="none" stroke-width=".319" stroke-linecap="round" stroke-linejoin="round" stroke="#000" stroke-miterlimit="10"/><path d="M129.05 88.676h27.887" fill="none" stroke-width=".399" stroke="#000" stroke-miterlimit="10"/><path d="M155.742 87.082c.102.598 1.196 1.492 1.496 1.594-.3.097-1.394.996-1.496 1.594" fill="none" stroke-width=".319" stroke-linecap="round" stroke-linejoin="round" stroke="#000" stroke-miterlimit="10"/><path d="M38.371 88.676H.2" fill="none" stroke-width=".399" stroke="#000" stroke-miterlimit="10"/><path d="M37.176 87.082c.097.598 1.195 1.492 1.492 1.594-.297.097-1.395.996-1.492 1.594" fill="none" stroke-width=".319" stroke-linecap="round" stroke-linejoin="round" stroke="#000" stroke-miterlimit="10"/><g><use xlink:href="#i" x="4.945" y="99.313"/></g><g><use xlink:href="#j" x="5.075" y="99.313"/></g><path d="M193.523 88.676h67.793" fill="none" stroke-width=".399" stroke="#000" stroke-miterlimit="10"/><path d="M260.121 87.082c.098.598 1.195 1.492 1.492 1.594-.297.097-1.394.996-1.492 1.594" fill="none" stroke-width=".319" stroke-linecap="round" stroke-linejoin="round" stroke="#000" stroke-miterlimit="10"/><path d="M14.371 88.676c0-83.496 213.277-88.477 213.277-5.442" fill="none" stroke-width=".399" stroke="#000" stroke-miterlimit="10"/><path d="M229.242 82.04c-.597.1-1.496 1.194-1.594 1.495-.101-.3-.996-1.394-1.593-1.496" fill="none" stroke-width=".319" stroke-linecap="round" stroke-linejoin="round" stroke="#000" stroke-miterlimit="10"/><g><use xlink:href="#w" x="87.357" y="38.291"/><use xlink:href="#x" x="91.286" y="38.291"/><use xlink:href="#n" x="96.545" y="38.291"/><use xlink:href="#y" x="99.312" y="38.291"/></g><g><use xlink:href="#l" x="108.165" y="38.291"/><use xlink:href="#p" x="112.592" y="38.291"/><use xlink:href="#q" x="117.574" y="38.291"/><use xlink:href="#q" x="123.109" y="38.291"/><use xlink:href="#d" x="128.644" y="38.291"/><use xlink:href="#l" x="133.071" y="38.291"/><use xlink:href="#m" x="137.499" y="38.291"/><use xlink:href="#n" x="141.373" y="38.291"/><use xlink:href="#p" x="144.141" y="38.291"/><use xlink:href="#q" x="149.122" y="38.291"/></g><g><use xlink:href="#h" x="100.392" y="50.246"/><use xlink:href="#n" x="104.266" y="50.246"/><use xlink:href="#t" x="107.034" y="50.246"/><use xlink:href="#d" x="112.569" y="50.246"/><use xlink:href="#q" x="116.997" y="50.246"/></g><g><use xlink:href="#m" x="122.253" y="50.246"/><use xlink:href="#n" x="126.127" y="50.246"/><use xlink:href="#m" x="128.895" y="50.246"/></g><g><use xlink:href="#c" x="132.491" y="50.246"/><use xlink:href="#k" x="137.749" y="50.246"/></g><g><use xlink:href="#i" x="118.029" y="20.044"/></g><g><use xlink:href="#j" x="118.159" y="20.044"/></g><path d="M193.523 117.023c-.644 1.286-2.144 2.145-4.289 2.145h-68.77c-2.144 0-3.644.855-4.288 2.144-.645-1.289-2.145-2.144-4.29-2.144H43.118c-2.144 0-3.644-.86-4.289-2.145" fill="none" stroke-width=".399" stroke="#000" stroke-miterlimit="10"/><g><use xlink:href="#u" x="105.379" y="133.683"/></g><g><use xlink:href="#h" x="113.529" y="133.683"/></g><g><use xlink:href="#i" x="117.27" y="133.683"/></g><g><use xlink:href="#j" x="117.4" y="133.683"/></g><g><use xlink:href="#k" x="123.097" y="133.683"/></g></svg>