<svg height="84.653" viewBox="0 0 228.745 63.49" width="304.993" xmlns="http://www.w3.org/2000/svg" xmlns:xlink="http://www.w3.org/1999/xlink"><clipPath id="a"><path d="m60 0h80v63.488h-80zm0 0"/></clipPath><clipPath id="b"><path d="m67 27h9v9h-9zm0 0"/></clipPath><clipPath id="c"><path d="m75.766 31.746a4.253 4.253 0 1 0 -8.506-.002 4.253 4.253 0 0 0 8.506.002zm0 0"/></clipPath><clipPath id="d"><path d="m123 35.594h.54v1.406h-.54zm0 0"/></clipPath><clipPath id="e"><path d="m133.168 31.746a4.958 4.958 0 0 0 -4.961-4.96 4.96 4.96 0 1 0 0 9.921 4.96 4.96 0 0 0 4.961-4.96zm0 0"/></clipPath><clipPath id="f"><path d="m123 35.594h3.527v1.406h-3.527zm0 0"/></clipPath><clipPath id="g"><path d="m133.168 31.746a4.958 4.958 0 0 0 -4.961-4.96 4.96 4.96 0 1 0 0 9.921 4.96 4.96 0 0 0 4.961-4.96zm0 0"/></clipPath><clipPath id="h"><path d="m124.535 35.594h4.98v1.406h-4.98zm0 0"/></clipPath><clipPath id="i"><path d="m133.168 31.746a4.958 4.958 0 0 0 -4.961-4.96 4.96 4.96 0 1 0 0 9.921 4.96 4.96 0 0 0 4.961-4.96zm0 0"/></clipPath><clipPath id="j"><path d="m127.523 35.594h4.98v1.406h-4.98zm0 0"/></clipPath><clipPath id="k"><path d="m133.168 31.746a4.958 4.958 0 0 0 -4.961-4.96 4.96 4.96 0 1 0 0 9.921 4.96 4.96 0 0 0 4.961-4.96zm0 0"/></clipPath><clipPath id="l"><path d="m130.512 35.594h3.488v1.406h-3.488zm0 0"/></clipPath><clipPath id="m"><path d="m133.168 31.746a4.958 4.958 0 0 0 -4.961-4.96 4.96 4.96 0 1 0 0 9.921 4.96 4.96 0 0 0 4.961-4.96zm0 0"/></clipPath><clipPath id="n"><path d="m123 32.605h.54v4.395h-.54zm0 0"/></clipPath><clipPath id="o"><path d="m133.168 31.746a4.958 4.958 0 0 0 -4.961-4.96 4.96 4.96 0 1 0 0 9.921 4.96 4.96 0 0 0 4.961-4.96zm0 0"/></clipPath><clipPath id="p"><path d="m123 32.605h3.527v4.395h-3.527zm0 0"/></clipPath><clipPath id="q"><path d="m133.168 31.746a4.958 4.958 0 0 0 -4.961-4.96 4.96 4.96 0 1 0 0 9.921 4.96 4.96 0 0 0 4.961-4.96zm0 0"/></clipPath><clipPath id="r"><path d="m124.535 32.605h4.98v4.395h-4.98zm0 0"/></clipPath><clipPath id="s"><path d="m133.168 31.746a4.958 4.958 0 0 0 -4.961-4.96 4.96 4.96 0 1 0 0 9.921 4.96 4.96 0 0 0 4.961-4.96zm0 0"/></clipPath><clipPath id="t"><path d="m127.523 32.605h4.98v4.395h-4.98zm0 0"/></clipPath><clipPath id="u"><path d="m133.168 31.746a4.958 4.958 0 0 0 -4.961-4.96 4.96 4.96 0 1 0 0 9.921 4.96 4.96 0 0 0 4.961-4.96zm0 0"/></clipPath><clipPath id="v"><path d="m130.512 32.605h3.488v4.395h-3.488zm0 0"/></clipPath><clipPath id="w"><path d="m133.168 31.746a4.958 4.958 0 0 0 -4.961-4.96 4.96 4.96 0 1 0 0 9.921 4.96 4.96 0 0 0 4.961-4.96zm0 0"/></clipPath><clipPath id="x"><path d="m123 29.617h.54v4.98h-.54zm0 0"/></clipPath><clipPath id="y"><path d="m133.168 31.746a4.958 4.958 0 0 0 -4.961-4.96 4.96 4.96 0 1 0 0 9.921 4.96 4.96 0 0 0 4.961-4.96zm0 0"/></clipPath><clipPath id="z"><path d="m123 29.617h3.527v4.98h-3.527zm0 0"/></clipPath><clipPath id="A"><path d="m133.168 31.746a4.958 4.958 0 0 0 -4.961-4.96 4.96 4.96 0 1 0 0 9.921 4.96 4.96 0 0 0 4.961-4.96zm0 0"/></clipPath><clipPath id="B"><path d="m124.535 29.617h4.98v4.98h-4.98zm0 0"/></clipPath><clipPath id="C"><path d="m133.168 31.746a4.958 4.958 0 0 0 -4.961-4.96 4.96 4.96 0 1 0 0 9.921 4.96 4.96 0 0 0 4.961-4.96zm0 0"/></clipPath><clipPath id="D"><path d="m127.523 29.617h4.98v4.98h-4.98zm0 0"/></clipPath><clipPath id="E"><path d="m133.168 31.746a4.958 4.958 0 0 0 -4.961-4.96 4.96 4.96 0 1 0 0 9.921 4.96 4.96 0 0 0 4.961-4.96zm0 0"/></clipPath><clipPath id="F"><path d="m130.512 29.617h3.488v4.98h-3.488zm0 0"/></clipPath><clipPath id="G"><path d="m133.168 31.746a4.958 4.958 0 0 0 -4.961-4.96 4.96 4.96 0 1 0 0 9.921 4.96 4.96 0 0 0 4.961-4.96zm0 0"/></clipPath><clipPath id="H"><path d="m123 26.629h.54v4.98h-.54zm0 0"/></clipPath><clipPath id="I"><path d="m133.168 31.746a4.958 4.958 0 0 0 -4.961-4.96 4.96 4.96 0 1 0 0 9.921 4.96 4.96 0 0 0 4.961-4.96zm0 0"/></clipPath><clipPath id="J"><path d="m123 26.629h3.527v4.98h-3.527zm0 0"/></clipPath><clipPath id="K"><path d="m133.168 31.746a4.958 4.958 0 0 0 -4.961-4.96 4.96 4.96 0 1 0 0 9.921 4.96 4.96 0 0 0 4.961-4.96zm0 0"/></clipPath><clipPath id="L"><path d="m124.535 26.629h4.98v4.98h-4.98zm0 0"/></clipPath><clipPath id="M"><path d="m133.168 31.746a4.958 4.958 0 0 0 -4.961-4.96 4.96 4.96 0 1 0 0 9.921 4.96 4.96 0 0 0 4.961-4.96zm0 0"/></clipPath><clipPath id="N"><path d="m127.523 26.629h4.98v4.98h-4.98zm0 0"/></clipPath><clipPath id="O"><path d="m133.168 31.746a4.958 4.958 0 0 0 -4.961-4.96 4.96 4.96 0 1 0 0 9.921 4.96 4.96 0 0 0 4.961-4.96zm0 0"/></clipPath><clipPath id="P"><path d="m130.512 26.629h3.488v4.98h-3.488zm0 0"/></clipPath><clipPath id="Q"><path d="m133.168 31.746a4.958 4.958 0 0 0 -4.961-4.96 4.96 4.96 0 1 0 0 9.921 4.96 4.96 0 0 0 4.961-4.96zm0 0"/></clipPath><clipPath id="R"><path d="m123 26h.54v2.621h-.54zm0 0"/></clipPath><clipPath id="S"><path d="m133.168 31.746a4.958 4.958 0 0 0 -4.961-4.96 4.96 4.96 0 1 0 0 9.921 4.96 4.96 0 0 0 4.961-4.96zm0 0"/></clipPath><clipPath id="T"><path d="m123 26h3.527v2.621h-3.527zm0 0"/></clipPath><clipPath id="U"><path d="m133.168 31.746a4.958 4.958 0 0 0 -4.961-4.96 4.96 4.96 0 1 0 0 9.921 4.96 4.96 0 0 0 4.961-4.96zm0 0"/></clipPath><clipPath id="V"><path d="m124.535 26h4.98v2.621h-4.98zm0 0"/></clipPath><clipPath id="W"><path d="m133.168 31.746a4.958 4.958 0 0 0 -4.961-4.96 4.96 4.96 0 1 0 0 9.921 4.96 4.96 0 0 0 4.961-4.96zm0 0"/></clipPath><clipPath id="X"><path d="m127.523 26h4.98v2.621h-4.98zm0 0"/></clipPath><clipPath id="Y"><path d="m133.168 31.746a4.958 4.958 0 0 0 -4.961-4.96 4.96 4.96 0 1 0 0 9.921 4.96 4.96 0 0 0 4.961-4.96zm0 0"/></clipPath><clipPath id="Z"><path d="m130.512 26h3.488v2.621h-3.488zm0 0"/></clipPath><clipPath id="aa"><path d="m133.168 31.746a4.958 4.958 0 0 0 -4.961-4.96 4.96 4.96 0 1 0 0 9.921 4.96 4.96 0 0 0 4.961-4.96zm0 0"/></clipPath><symbol id="ab" overflow="visible"><path d="m.422.969c-.078.25-.094.312-.406.312-.11 0-.204 0-.204.157 0 .062.063.109.11.109.078 0 .11-.031.703-.031.563 0 .734.03.797.03.031 0 .14 0 .14-.155 0-.11-.109-.11-.203-.11-.375 0-.375-.047-.375-.125 0-.047.141-.61.375-1.547.11.188.36.47.782.47.984 0 2-1.126 2-2.282-.001-.797-.501-1.313-1.141-1.313-.484 0-.86.329-1.094.563-.172-.563-.703-.563-.781-.563-.281 0-.484.188-.61.438-.187.36-.28.765-.28.781 0 .078.062.11.124.11.11 0 .11-.032.172-.25.094-.407.235-.86.563-.86.203 0 .265.188.265.375 0 .078-.03.281-.046.344zm1.453-3.422c.047-.14.047-.156.172-.297.297-.36.64-.547.922-.547.406 0 .547.39.547.75 0 .297-.172 1.156-.407 1.625-.203.422-.593.781-.968.781-.532 0-.672-.625-.672-.687a.46.46 0 0 1 .031-.125zm0 0"/></symbol><symbol id="ac" overflow="visible"><path d="m2.14-3.797c0-.187-.015-.187-.203-.187-.39.39-1 .39-1.218.39v.235c.156 0 .562 0 .922-.172v3.015c0 .204 0 .282-.625.282h-.25v.234c.328-.031.796-.031 1.125-.031.328 0 .796 0 1.125.031v-.234h-.25c-.625 0-.625-.078-.625-.282zm0 0"/></symbol><symbol id="ad" overflow="visible"><path d="m3.219-1.125h-.219c-.016.094-.078.484-.156.547-.047.047-.531.047-.625.047h-1.11l.766-.625c.203-.172.734-.547.922-.735.172-.171.422-.484.422-.906 0-.75-.672-1.187-1.485-1.187-.765 0-1.296.515-1.296 1.078 0 .297.25.344.312.344a.32.32 0 0 0 .328-.329c0-.125-.078-.328-.344-.328.141-.297.5-.531.922-.531.625 0 .953.469.953.953 0 .422-.28.86-.687 1.25l-1.422 1.297c-.063.063-.063.063-.063.25h2.594zm0 0"/></symbol><symbol id="ae" overflow="visible"><path d="m4.61-3.375c-.095-.625-.5-1.188-1.283-1.188-.61 0-1.25.172-2.031.938a2.953 2.953 0 0 0 -.89 2.063c0 .625.437 1.78 1.827 1.78 2.375 0 3.407-3.343 3.407-4.78 0-1.579-.922-2.579-2.157-2.579-1.437 0-1.906 1.297-1.906 1.579 0 .14.094.343.39.343a.544.544 0 0 0 .532-.515c0-.36-.313-.36-.469-.36.438-.734 1.156-.797 1.438-.797.734 0 1.422.516 1.422 1.813 0 .39-.063.89-.266 1.703zm-2.345 3.313c-1.094 0-1.094-1.032-1.094-1.125 0-.266.25-1.657.656-2.266.39-.563.89-.89 1.5-.89 1.094 0 1.11 1.124 1.11 1.327 0 .72-.641 2.954-2.172 2.954zm0 0"/></symbol><symbol id="af" overflow="visible"><path d="m3.734-6.125c.063-.234.094-.328.282-.36.093-.015.406-.015.609-.015.703 0 1.813 0 1.813.984 0 .344-.157 1.032-.547 1.422-.266.25-.782.578-1.688.578h-1.11zm1.438 2.734c1.016-.218 2.187-.921 2.187-1.921 0-.86-.89-1.5-2.203-1.5h-2.828c-.203 0-.297 0-.297.203 0 .109.094.109.281.109.016 0 .204 0 .376.016.187.03.265.03.265.171 0 .032 0 .063-.031.188l-1.344 5.344c-.094.39-.11.469-.906.469-.172 0-.266 0-.266.203 0 .109.125.109.14.109.282 0 .985-.031 1.25-.031.282 0 1 .031 1.282.031.078 0 .188 0 .188-.203 0-.11-.079-.11-.282-.11-.359 0-.64 0-.64-.171 0-.063.015-.11.031-.172l.656-2.64h1.189c.906 0 1.078.562 1.078.905 0 .141-.078.454-.14.688-.063.281-.157.64-.157.844-.001 1.078 1.202 1.078 1.327 1.078.844 0 1.203-1 1.203-1.14 0-.126-.11-.126-.125-.126-.093 0-.11.063-.125.14-.25.735-.687.907-.906.907-.328 0-.406-.219-.406-.61 0-.312.062-.812.11-1.14a4.9 4.9 0 0 0 .03-.469c0-.765-.671-1.078-.937-1.172zm0 0"/></symbol><symbol id="ag" overflow="visible"><path d="m.453 1.219c-.078.343-.11.406-.547.406-.11 0-.218 0-.218.188 0 .078.046.125.124.125.266 0 .563-.032.829-.032.343 0 .671.032 1 .032.046 0 .171 0 .171-.204 0-.109-.093-.109-.234-.109-.5 0-.5-.063-.5-.156 0-.125.422-1.75.484-2 .125.297.407.64.922.64 1.157 0 2.407-1.453 2.407-2.921 0-.938-.579-1.594-1.329-1.594-.5 0-.984.36-1.312.75-.094-.547-.531-.75-.89-.75-.47 0-.657.39-.735.562-.188.344-.313.938-.313.969 0 .11.094.11.11.11.11 0 .11-.016.172-.235.172-.703.375-1.188.734-1.188.172 0 .313.079.313.454 0 .234-.032.343-.079.515zm1.75-4.328c.063-.266.344-.547.516-.704.36-.296.64-.374.812-.374.39 0 .64.343.64.937s-.327 1.734-.515 2.11c-.344.702-.812 1.03-1.187 1.03-.656 0-.781-.828-.781-.89 0-.016 0-.031.03-.156zm0 0"/></symbol><symbol id="ah" overflow="visible"><path d="m2.031-.016c0-.656-.25-1.046-.64-1.046a.517.517 0 0 0 -.532.53c0 .266.204.532.532.532a.58.58 0 0 0 .343-.125c.032-.031.047-.031.047-.031.016 0 .016 0 .016.14 0 .75-.344 1.344-.672 1.672-.11.11-.11.125-.11.157 0 .078.048.109.094.109.11 0 .922-.766.922-1.938zm0 0"/></symbol><symbol id="ai" overflow="visible"><path d="m2.188-4.625c0-.016.015-.11.015-.11 0-.046-.015-.109-.11-.109-.14 0-.718.063-.89.078-.047 0-.156.016-.156.157 0 .093.11.093.187.093.329 0 .329.063.329.11s-.016.093-.016.156l-.984 3.938c-.047.124-.047.14-.047.156 0 .11.093.218.25.218.187 0 .265-.124.312-.28.016-.032.313-1.266.344-1.36.5.047.89.219.89.578 0 .031 0 .063-.015.14-.031.094-.031.141-.031.22 0 .484.406.703.75.703.671 0 .875-1.047.875-1.063 0-.094-.079-.094-.11-.094-.094 0-.11.047-.14.172-.079.297-.266.797-.61.797-.187 0-.25-.172-.25-.36 0-.124 0-.14.047-.312a.724.724 0 0 0 .031-.219c0-.625-.828-.718-1.125-.734.204-.125.454-.36.579-.469.359-.328.703-.656 1.093-.656.078 0 .172.016.235.094a.396.396 0 0 0 -.36.39c0 .141.11.25.266.25.203 0 .406-.156.406-.437a.5.5 0 0 0 -.531-.5c-.406 0-.766.297-1.125.625-.297.265-.516.484-.813.61zm0 0"/></symbol><symbol id="aj" overflow="visible"><path d="m1.469-.11c0 .376-.063.829-.547 1.266-.016.032-.047.063-.047.094 0 .047.063.094.094.094.11 0 .703-.563.703-1.39 0-.423-.172-.75-.5-.75a.387.387 0 0 0 -.39.39c0 .219.155.406.405.406.172 0 .282-.11.282-.11zm0 0"/></symbol><symbol id="ak" overflow="visible"><path d="m2.266-4.36a.276.276 0 0 0 -.282-.265c-.187 0-.39.188-.39.39 0 .11.078.266.281.266.188 0 .39-.203.39-.39zm-1.422 3.549c-.031.091-.064.17-.064.295 0 .329.266.579.656.579.688 0 1-.954 1-1.063 0-.094-.093-.094-.109-.094-.094 0-.11.047-.14.125-.157.563-.454.844-.735.844-.14 0-.172-.094-.172-.25s.047-.281.11-.438c.078-.187.156-.375.218-.562.063-.172.329-.797.344-.89a.5.5 0 0 0 .048-.221c0-.328-.281-.593-.656-.593-.704.001-1.016.954-1.016 1.079 0 .078.094.078.125.078.094 0 .094-.031.125-.11.172-.593.485-.843.735-.843.109 0 .171.047.171.234 0 .172-.03.266-.203.704zm0 0"/></symbol><symbol id="al" overflow="visible"><path d="m3.063-4.36a.276.276 0 0 0 -.282-.265c-.203 0-.39.203-.39.39 0 .11.078.266.28.266.188 0 .392-.187.392-.39zm-1.486 4.705c-.11.484-.484.875-.89.875-.094 0-.172 0-.25-.032a.424.424 0 0 0 .234-.359c0-.172-.14-.25-.281-.25-.203-.001-.39.187-.39.405 0 .266.266.438.688.438.421 0 1.234-.25 1.453-1.094l.625-2.5c.015-.078.03-.14.03-.25 0-.375-.327-.656-.733-.656-.783 0-1.22.968-1.22 1.078 0 .078.095.078.11.078.078 0 .094-.016.14-.125.173-.406.532-.828.938-.828.172 0 .235.11.235.344 0 .078 0 .172-.016.203zm0 0"/></symbol><symbol id="am" overflow="visible"><path d="m3.297 2.39c0-.03 0-.046-.172-.218-1.234-1.25-1.563-3.14-1.563-4.672 0-1.734.375-3.469 1.61-4.703.125-.125.125-.14.125-.172 0-.078-.031-.11-.094-.11-.11 0-1 .688-1.594 1.954-.499 1.093-.625 2.203-.625 3.031 0 .781.11 1.984.657 3.125.609 1.219 1.453 1.875 1.562 1.875.063 0 .094-.031.094-.11zm0 0"/></symbol><symbol id="an" overflow="visible"><path d="m2.875-2.5c0-.766-.11-1.969-.656-3.11-.594-1.217-1.453-1.873-1.547-1.873a.107.107 0 0 0 -.11.109c0 .031 0 .047.188.234.984.985 1.547 2.563 1.547 4.641 0 1.719-.36 3.469-1.594 4.719-.14.125-.14.14-.14.172 0 .062.046.109.109.109.094 0 1-.688 1.578-1.953.516-1.094.625-2.203.625-3.047zm0 0"/></symbol><symbol id="ao" overflow="visible"><path d="m5.516-6.781h-5.188v.312h.234c.766 0 .797.11.797.469v5.219c0 .36-.03.469-.796.469h-.235v.312c.344-.031 1.125-.031 1.516-.031.406 0 1.312 0 1.672.031v-.313h-.329c-.937 0-.937-.124-.937-.468v-5.297c0-.328.016-.39.484-.39h1.032c1.421 0 1.625.593 1.78 1.937h.25zm0 0"/></symbol><symbol id="ap" overflow="visible"><path d="m4.078-2.297h2.782c.141 0 .329 0 .329-.203 0-.188-.188-.188-.329-.188h-2.78v-2.796c0-.141 0-.329-.204-.329-.203 0-.203.188-.203.329v2.796h-2.783c-.141 0-.329 0-.329.188 0 .203.188.203.329.203h2.78v2.797c0 .14 0 .328.204.328.203 0 .203-.187.203-.328zm0 0"/></symbol><symbol id="aq" overflow="visible"><path d="m2.328-4.438c0-.187 0-.187-.203-.187-.453.438-1.078.438-1.36.438v.25c.157 0 .626 0 1-.188v3.547c0 .234 0 .328-.687.328h-.266v.25c.125 0 .985-.031 1.235-.031.219 0 1.094.031 1.25.031v-.25h-.267c-.703 0-.703-.094-.703-.328zm0 0"/></symbol><symbol id="ar" overflow="visible"><path d="m3.516-1.266h-.236c-.015.157-.094.563-.187.625-.047.047-.578.047-.688.047h-1.28c.734-.64.984-.844 1.39-1.172.516-.406 1-.843 1-1.5 0-.843-.734-1.359-1.624-1.359-.86 0-1.454.61-1.454 1.25 0 .344.297.39.376.39a.365.365 0 0 0 .359-.374c0-.125-.047-.375-.406-.375.218-.485.687-.641 1.015-.641.703 0 1.063.547 1.063 1.11 0 .609-.438 1.078-.656 1.328l-1.672 1.671c-.079.063-.079.079-.079.266h2.876zm0 0"/></symbol><symbol id="as" overflow="visible"><path d="m2.469-5.219c-1.313.922-1.672 2.407-1.672 3.469 0 .984.297 2.516 1.672 3.484.062 0 .14 0 .14-.078 0-.047-.015-.062-.062-.11-.938-.842-1.267-2.014-1.267-3.279 0-1.891.719-2.813 1.282-3.329.03-.03.046-.046.046-.078 0-.078-.078-.078-.14-.078zm0 0"/></symbol><symbol id="at" overflow="visible"><path d="m.625-5.219c-.047 0-.125 0-.125.078 0 .032.016.047.063.11.593.547 1.265 1.484 1.265 3.281 0 1.453-.453 2.563-1.203 3.234-.125.126-.125.126-.125.172 0 .032.016.078.078.078.094 0 .75-.453 1.219-1.328.297-.578.5-1.328.5-2.14 0-.986-.297-2.516-1.672-3.486zm0 0"/></symbol><symbol id="au" overflow="visible"><path d="m2.016 11.547h1.906v-.39h-1.516v-11.157h1.516v-.406h-1.906zm0 0"/></symbol><symbol id="av" overflow="visible"><path d="m2.14 11.547v-11.953h-1.92v.406h1.515v11.156h-1.515v.39zm0 0"/></symbol><symbol id="aw" overflow="visible"><path d="m5.188-1.578c.109 0 .28 0 .28-.156 0-.188-.171-.188-.28-.188h-4.158c-.11 0-.281 0-.281.172s.156.172.281.172zm0 0"/></symbol><g clip-path="url(#a)"><path d="m28.346-.001c0 15.656-12.691 28.348-28.348 28.348-15.652 0-28.343-12.692-28.343-28.348s12.691-28.348 28.343-28.348c15.657 0 28.348 12.692 28.348 28.348zm0 0" fill="none" stroke="#000" stroke-miterlimit="10" stroke-width=".79701" transform="matrix(1 0 0 -1 99.861 31.745)"/></g><path d="m-1.553 2.07c.13-.776 1.555-1.94 1.943-2.07-.388-.129-1.814-1.297-1.943-2.074" style="fill:none;stroke-width:.6376;stroke-linecap:round;stroke-linejoin:round;stroke:#000;stroke-miterlimit:10" transform="matrix(-1 0 0 1 100.568 3.398)"/><use x="95.654" xlink:href="#ab" y="10.549"/><use x="99.917" xlink:href="#ac" y="11.656"/><path d="m-1.556 2.072c.133-.777 1.555-1.941 1.945-2.074-.389-.128-1.812-1.293-1.945-2.07" style="fill:none;stroke-width:.6376;stroke-linecap:round;stroke-linejoin:round;stroke:#000;stroke-miterlimit:10" transform="matrix(1 0 0 -1 99.154 60.092)"/><use x="95.654" xlink:href="#ab" y="54.823"/><use x="99.917" xlink:href="#ad" y="55.93"/><path d="m-1.553 2.07c.13-.776 1.555-1.94 1.943-2.07-.388-.129-1.814-1.297-1.943-2.074" style="fill:none;stroke-width:.6376;stroke-linecap:round;stroke-linejoin:round;stroke:#000;stroke-miterlimit:10" transform="matrix(-1 0 0 1 100.568 3.398)"/><use x="95.654" xlink:href="#ab" y="10.549"/><use x="99.917" xlink:href="#ac" y="11.656"/><path d="m-1.556 2.072c.133-.777 1.555-1.941 1.945-2.074-.389-.128-1.812-1.293-1.945-2.07" style="fill:none;stroke-width:.6376;stroke-linecap:round;stroke-linejoin:round;stroke:#000;stroke-miterlimit:10" transform="matrix(1 0 0 -1 99.154 60.092)"/><use x="95.654" xlink:href="#ab" y="54.823"/><use x="99.917" xlink:href="#ad" y="55.93"/><path d="m75.766 31.746a4.253 4.253 0 1 0 -8.506-.002 4.253 4.253 0 0 0 8.506.002zm0 0" fill="#fff"/><g clip-path="url(#b)"><g clip-path="url(#c)"><path d="m-24.095-4.251-8.505 8.504m0-8.504 8.504 8.504" fill="none" stroke="#000" stroke-miterlimit="10" stroke-width=".3985" transform="matrix(1 0 0 -1 99.861 31.745)"/></g></g><path d="m-24.095-.001a4.253 4.253 0 1 1 -8.506.001 4.253 4.253 0 0 1 8.506 0zm0 0" fill="none" stroke="#000" stroke-miterlimit="10" stroke-width=".3985" transform="matrix(1 0 0 -1 99.861 31.745)"/><use x="3.32" xlink:href="#ae" y="34.056"/><use x="8.61" xlink:href="#ai" y="35.55"/><use x="13.511" xlink:href="#af" y="34.056"/><use x="21.076" xlink:href="#ai" y="35.55"/><g><use x="25.479" xlink:href="#aj" y="35.55"/><use x="27.845" xlink:href="#ak" y="35.55"/><use x="30.664" xlink:href="#al" y="35.55"/></g><use x="34.862" xlink:href="#am" y="34.056"/><use x="38.737" xlink:href="#ag" y="34.056"/><use x="43.749" xlink:href="#aq" y="35.55"/><use x="48.218" xlink:href="#ah" y="34.056"/><use x="52.649" xlink:href="#ag" y="34.056"/><use x="57.659" xlink:href="#ar" y="35.55"/><use x="62.128" xlink:href="#an" y="34.056"/><path d="m33.307-.001a4.958 4.958 0 0 1 -4.961 4.96 4.96 4.96 0 1 1 0-9.921 4.96 4.96 0 0 1 4.961 4.96zm0 0" fill="#fff" stroke="#000" stroke-miterlimit="10" stroke-width=".3985" transform="matrix(1 0 0 -1 99.861 31.745)"/><g clip-path="url(#d)"><g clip-path="url(#e)"><path d="m.001.001 3.086 3.086" fill="none" stroke="#000" stroke-miterlimit="10" stroke-width=".3985" transform="matrix(1 0 0 -1 119.553 39.58)"/></g></g><g clip-path="url(#f)"><g clip-path="url(#g)"><path d="m0 .001 3.087 3.086" fill="none" stroke="#000" stroke-miterlimit="10" stroke-width=".3985" transform="matrix(1 0 0 -1 122.542 39.58)"/></g></g><g clip-path="url(#h)"><g clip-path="url(#i)"><path d="m0 .001 3.09 3.086" fill="none" stroke="#000" stroke-miterlimit="10" stroke-width=".3985" transform="matrix(1 0 0 -1 125.53 39.58)"/></g></g><g clip-path="url(#j)"><g clip-path="url(#k)"><path d="m0 .001 3.09 3.086" fill="none" stroke="#000" stroke-miterlimit="10" stroke-width=".3985" transform="matrix(1 0 0 -1 128.52 39.58)"/></g></g><g clip-path="url(#l)"><g clip-path="url(#m)"><path d="m0 .001 3.09 3.086" fill="none" stroke="#000" stroke-miterlimit="10" stroke-width=".3985" transform="matrix(1 0 0 -1 131.509 39.58)"/></g></g><g clip-path="url(#n)"><g clip-path="url(#o)"><path d="m.001 0 3.086 3.087" fill="none" stroke="#000" stroke-miterlimit="10" stroke-width=".3985" transform="matrix(1 0 0 -1 119.553 36.59)"/></g></g><g clip-path="url(#p)"><g clip-path="url(#q)"><path d="m0 0 3.087 3.087" fill="none" stroke="#000" stroke-miterlimit="10" stroke-width=".3985" transform="matrix(1 0 0 -1 122.542 36.59)"/></g></g><g clip-path="url(#r)"><g clip-path="url(#s)"><path d="m0 0 3.09 3.087" fill="none" stroke="#000" stroke-miterlimit="10" stroke-width=".3985" transform="matrix(1 0 0 -1 125.53 36.59)"/></g></g><g clip-path="url(#t)"><g clip-path="url(#u)"><path d="m0 0 3.09 3.087" fill="none" stroke="#000" stroke-miterlimit="10" stroke-width=".3985" transform="matrix(1 0 0 -1 128.52 36.59)"/></g></g><g clip-path="url(#v)"><g clip-path="url(#w)"><path d="m0 0 3.09 3.087" fill="none" stroke="#000" stroke-miterlimit="10" stroke-width=".3985" transform="matrix(1 0 0 -1 131.509 36.59)"/></g></g><g clip-path="url(#x)"><g clip-path="url(#y)"><path d="m.001 0 3.086 3.09" fill="none" stroke="#000" stroke-miterlimit="10" stroke-width=".3985" transform="matrix(1 0 0 -1 119.553 33.602)"/></g></g><g clip-path="url(#z)"><g clip-path="url(#A)"><path d="m0 0 3.087 3.09" fill="none" stroke="#000" stroke-miterlimit="10" stroke-width=".3985" transform="matrix(1 0 0 -1 122.542 33.602)"/></g></g><g clip-path="url(#B)"><g clip-path="url(#C)"><path d="m0 0 3.09 3.09" fill="none" stroke="#000" stroke-miterlimit="10" stroke-width=".3985" transform="matrix(1 0 0 -1 125.53 33.602)"/></g></g><g clip-path="url(#D)"><g clip-path="url(#E)"><path d="m0 0 3.09 3.09" fill="none" stroke="#000" stroke-miterlimit="10" stroke-width=".3985" transform="matrix(1 0 0 -1 128.52 33.602)"/></g></g><g clip-path="url(#F)"><g clip-path="url(#G)"><path d="m0 0 3.09 3.09" fill="none" stroke="#000" stroke-miterlimit="10" stroke-width=".3985" transform="matrix(1 0 0 -1 131.509 33.602)"/></g></g><g clip-path="url(#H)"><g clip-path="url(#I)"><path d="m.001 0 3.086 3.09" fill="none" stroke="#000" stroke-miterlimit="10" stroke-width=".3985" transform="matrix(1 0 0 -1 119.553 30.613)"/></g></g><g clip-path="url(#J)"><g clip-path="url(#K)"><path d="m0 0 3.087 3.09" fill="none" stroke="#000" stroke-miterlimit="10" stroke-width=".3985" transform="matrix(1 0 0 -1 122.542 30.613)"/></g></g><g clip-path="url(#L)"><g clip-path="url(#M)"><path d="m0 0 3.09 3.09" fill="none" stroke="#000" stroke-miterlimit="10" stroke-width=".3985" transform="matrix(1 0 0 -1 125.53 30.613)"/></g></g><g clip-path="url(#N)"><g clip-path="url(#O)"><path d="m0 0 3.09 3.09" fill="none" stroke="#000" stroke-miterlimit="10" stroke-width=".3985" transform="matrix(1 0 0 -1 128.52 30.613)"/></g></g><g clip-path="url(#P)"><g clip-path="url(#Q)"><path d="m0 0 3.09 3.09" fill="none" stroke="#000" stroke-miterlimit="10" stroke-width=".3985" transform="matrix(1 0 0 -1 131.509 30.613)"/></g></g><g clip-path="url(#R)"><g clip-path="url(#S)"><path d="m.001-.001 3.086 3.09" fill="none" stroke="#000" stroke-miterlimit="10" stroke-width=".3985" transform="matrix(1 0 0 -1 119.553 27.624)"/></g></g><g clip-path="url(#T)"><g clip-path="url(#U)"><path d="m0-.001 3.087 3.09" fill="none" stroke="#000" stroke-miterlimit="10" stroke-width=".3985" transform="matrix(1 0 0 -1 122.542 27.624)"/></g></g><g clip-path="url(#V)"><g clip-path="url(#W)"><path d="m0-.001 3.09 3.09" fill="none" stroke="#000" stroke-miterlimit="10" stroke-width=".3985" transform="matrix(1 0 0 -1 125.53 27.624)"/></g></g><g clip-path="url(#X)"><g clip-path="url(#Y)"><path d="m0-.001 3.09 3.09" fill="none" stroke="#000" stroke-miterlimit="10" stroke-width=".3985" transform="matrix(1 0 0 -1 128.52 27.624)"/></g></g><g clip-path="url(#Z)"><g clip-path="url(#aa)"><path d="m0-.001 3.09 3.09" fill="none" stroke="#000" stroke-miterlimit="10" stroke-width=".3985" transform="matrix(1 0 0 -1 131.509 27.624)"/></g></g><use x="133.72" xlink:href="#au" y="26.254"/><use x="137.871" xlink:href="#ao" y="34.324"/><g><use x="144.098" xlink:href="#as" y="29.149"/><use x="147.211" xlink:href="#ar" y="29.149"/><use x="151.183" xlink:href="#at" y="29.149"/></g><use x="144.098" xlink:href="#ai" y="37.33"/><use x="157.008" xlink:href="#ap" y="34.324"/><use x="166.97" xlink:href="#af" y="34.324"/><use x="174.535" xlink:href="#ai" y="35.819"/><use x="179.437" xlink:href="#av" y="26.254"/><use x="183.588" xlink:href="#aw" y="28.319"/><use x="189.814" xlink:href="#aq" y="28.319"/><use x="183.588" xlink:href="#al" y="38.309"/><use x="187.289" xlink:href="#ak" y="38.309"/><use x="194.284" xlink:href="#am" y="34.324"/><use x="198.158" xlink:href="#ag" y="34.324"/><use x="203.171" xlink:href="#ar" y="35.819"/><use x="207.64" xlink:href="#ah" y="34.324"/><use x="212.071" xlink:href="#ag" y="34.324"/><use x="217.08" xlink:href="#aq" y="35.819"/><use x="221.55" xlink:href="#an" y="34.324"/></svg>