<svg height="333.939" viewBox="0 0 312.608 250.454" width="416.811" xmlns="http://www.w3.org/2000/svg" xmlns:xlink="http://www.w3.org/1999/xlink"><clipPath id="a"><path d="m0 136h58v114.453h-58zm0 0"/></clipPath><clipPath id="b"><path d="m57 193h171v57.453h-171zm0 0"/></clipPath><clipPath id="c"><path d="m56 192h172v58.453h-172zm0 0"/></clipPath><clipPath id="d"><path d="m255 165h57.61v85.453h-57.61zm0 0"/></clipPath><clipPath id="e"><path d="m255 164h57.61v86.453h-57.61zm0 0"/></clipPath><clipPath id="f"><path d="m255 23h57.61v143h-57.61zm0 0"/></clipPath><clipPath id="g"><path d="m255 22h57.61v144h-57.61zm0 0"/></clipPath><symbol id="h" overflow="visible"><path d="m.516 1.516c-.079.359-.141.453-.625.453-.141 0-.266 0-.266.234 0 .016.016.11.14.11.157 0 .329-.016.485-.016h.516c.25 0 .859.015 1.109.015.078 0 .219 0 .219-.203 0-.14-.078-.14-.281-.14-.563 0-.594-.078-.594-.172 0-.14.531-2.203.61-2.484.124.343.452.812 1.077.812 1.344 0 2.814-1.766 2.814-3.516 0-1.109-.625-1.875-1.516-1.875-.766 0-1.422.735-1.547.907a1.037 1.037 0 0 0 -1.047-.907c-.343 0-.625.157-.843.61-.22.437-.391 1.172-.391 1.218 0 .047.063.11.14.11.094 0 .11-.016.172-.297.188-.703.407-1.406.891-1.406.281 0 .375.187.375.547 0 .28-.047.406-.094.625zm2.062-5.25c.094-.329.422-.672.61-.844.14-.125.53-.453.984-.453.531 0 .766.531.766 1.14 0 .579-.329 1.938-.641 2.547-.297.657-.844 1.219-1.39 1.219-.813 0-.954-1.016-.954-1.063 0-.046.031-.14.047-.203zm0 0"/></symbol><symbol id="i" overflow="visible"><path d="m8.313-2.766c0-.046.046-.125.046-.171a.123.123 0 0 0 -.125-.126.142.142 0 0 0 -.109.047c-.016.016-.016.047-.125.282-.703 1.671-1.219 2.39-3.14 2.39h-1.736c-.172 0-.203 0-.266-.015-.14-.016-.14-.032-.14-.125 0-.094.015-.157.047-.266l.812-3.297h1.188c.937 0 1 .203 1 .563 0 .109 0 .218-.079.578a.475.475 0 0 0 -.03.14c0 .079.062.11.124.11.11 0 .125-.078.172-.25l.688-2.766a.123.123 0 0 0 -.125-.125c-.11 0-.125.047-.172.219-.235.922-.469 1.172-1.532 1.172h-1.14l.734-2.938c.11-.406.14-.453.625-.453h1.703c1.485 0 1.782.39 1.782 1.313 0 0 0 .343-.047.734a.793.793 0 0 0 -.031.14c0 .094.062.141.14.141s.125-.047.14-.265l.266-2.094c0-.031.016-.156.016-.188 0-.125-.11-.125-.328-.125h-5.827c-.219 0-.344 0-.344.22 0 .124.078.124.281.124.75 0 .75.094.75.219 0 .062-.015.11-.047.234l-1.624 6.454c-.109.422-.125.547-.968.547-.22 0-.344 0-.344.219-.001.124.077.124.311.124h6c.266 0 .282-.016.36-.203zm0 0"/></symbol><symbol id="j" overflow="visible"><path d="m8.938-7.297c.109-.406.14-.516.984-.516.219 0 .328 0 .328-.218 0-.125-.11-.125-.172-.125-.219 0-.469.015-.687.015h-1.422c-.219 0-.469-.015-.703-.015-.079 0-.22 0-.22.219 0 .125.079.125.298.125.718 0 .718.093.718.218 0 .032 0 .094-.046.282l-.72 2.89h-3.608l.72-2.875c.093-.406.124-.516.968-.516.219 0 .344 0 .344-.218 0-.125-.11-.125-.188-.125-.218 0-.468.015-.687.015h-1.408c-.234 0-.484-.015-.718-.015-.078 0-.219 0-.219.219 0 .125.078.125.313.125.718 0 .718.093.718.218 0 .032 0 .094-.047.282l-1.624 6.421c-.109.422-.125.547-.953.547-.265 0-.36 0-.36.219 0 .125.141.125.173.125.219 0 .469-.031.687-.031h1.422c.219 0 .469.031.703.031.094 0 .219 0 .219-.234 0-.11-.11-.11-.281-.11-.735 0-.735-.094-.735-.219 0-.015 0-.093.032-.187l.812-3.328h3.625c-.204.797-.813 3.297-.829 3.36-.14.359-.328.359-1.031.374-.14 0-.25 0-.25.219 0 .125.125.125.172.125.203 0 .453-.031.687-.031h1.407c.235 0 .485.031.704.031.093 0 .234 0 .234-.234 0-.11-.11-.11-.281-.11-.735 0-.735-.094-.735-.219 0-.015 0-.093.016-.187zm0 0"/></symbol><symbol id="k" overflow="visible"><path d="m3.89 2.906c0-.031 0-.062-.203-.265-1.203-1.204-1.874-3.172-1.874-5.611 0-2.328.562-4.328 1.953-5.734.125-.11.125-.125.125-.172 0-.063-.063-.094-.11-.094-.156 0-1.14.86-1.719 2.031-.609 1.22-.89 2.485-.89 3.97 0 1.062.172 2.484.781 3.75.719 1.437 1.688 2.219 1.828 2.219.047 0 .11-.031.11-.094zm0 0"/></symbol><symbol id="l" overflow="visible"><path d="m3.375-2.969c0-.922-.125-2.39-.797-3.781-.703-1.438-1.687-2.219-1.812-2.219-.047 0-.11.031-.11.094 0 .047 0 .063.203.266 1.204 1.203 1.86 3.187 1.86 5.625 0 2.312-.563 4.312-1.938 5.718-.125.11-.125.141-.125.172 0 .063.063.094.11.094.156 0 1.14-.86 1.718-2.031.61-1.219.891-2.516.891-3.938zm0 0"/></symbol><symbol id="m" overflow="visible"><path d="m1.906-8.531c0-.219 0-.438-.25-.438-.234 0-.234.219-.234.438v11.094c0 .203 0 .421.234.421.25 0 .25-.218.25-.421zm0 0"/></symbol><symbol id="n" overflow="visible"><path d="m7.297-3.828c0-.39-.031-.422-.406-.422h-5.813c-.203 0-.422 0-.422.234 0 .235.219.235.422.235h5.75v2.281c0 .219 0 .438.234.438.235 0 .235-.22.235-.438zm0 0"/></symbol><g clip-path="url(#a)"><path d="m0 0v113.387h56.692v-113.387zm0 0" fill="#ff8000" stroke="#fff" stroke-miterlimit="10" stroke-width=".79701" transform="matrix(1 0 0 -1 .398 250.055)"/></g><use fill="#fff" x="9.6" xlink:href="#h" y="196.351"/><use fill="#fff" x="15.475" xlink:href="#k" y="196.351"/><use fill="#fff" x="20.028" xlink:href="#i" y="196.351"/><use fill="#fff" x="29.394" xlink:href="#m" y="196.351"/><use fill="#fff" x="32.715" xlink:href="#j" y="196.351"/><use fill="#fff" x="43.337" xlink:href="#l" y="196.351"/><path d="m0 113.387v113.387h56.692v-113.387zm0 0" fill="#008080" stroke="#fff" stroke-miterlimit="10" stroke-width=".79701" transform="matrix(1 0 0 -1 .398 250.055)"/><g fill="#fff"><use x="5.615" xlink:href="#h" y="82.966"/><use x="11.49" xlink:href="#k" y="82.966"/><use x="16.043" xlink:href="#n" y="82.966"/><use x="24.013" xlink:href="#i" y="82.966"/><use x="33.379" xlink:href="#m" y="82.966"/><use x="36.7" xlink:href="#j" y="82.966"/><use x="47.322" xlink:href="#l" y="82.966"/></g><g clip-path="url(#b)"><path d="m57.09 250.055v-56.692h170.082v56.692zm0 0" fill="#00004c"/></g><g clip-path="url(#c)"><path d="m56.692 0v56.692h170.082v-56.692zm0 0" fill="none" stroke="#fff" stroke-miterlimit="10" stroke-width=".79701" transform="matrix(1 0 0 -1 .398 250.055)"/></g><use fill="#fff" x="119.001" xlink:href="#h" y="224.698"/><use fill="#fff" x="124.876" xlink:href="#k" y="224.698"/><use fill="#fff" x="129.428" xlink:href="#i" y="224.698"/><g fill="#fff"><use x="138.795" xlink:href="#m" y="224.698"/><use x="142.116" xlink:href="#n" y="224.698"/></g><use fill="#fff" x="150.086" xlink:href="#j" y="224.698"/><use fill="#fff" x="160.708" xlink:href="#l" y="224.698"/><path d="m56.692 56.692v170.082h170.082v-170.082zm0 0" fill="#404040" stroke="#fff" stroke-miterlimit="10" stroke-width=".79701" transform="matrix(1 0 0 -1 .398 250.055)"/><use fill="#fff" x="115.016" xlink:href="#h" y="111.311"/><use fill="#fff" x="120.891" xlink:href="#k" y="111.311"/><use fill="#fff" x="125.443" xlink:href="#n" y="111.311"/><use fill="#fff" x="133.413" xlink:href="#i" y="111.311"/><g fill="#fff"><use x="142.78" xlink:href="#m" y="111.311"/><use x="146.101" xlink:href="#n" y="111.311"/></g><use fill="#fff" x="154.071" xlink:href="#j" y="111.311"/><use fill="#fff" x="164.693" xlink:href="#l" y="111.311"/><path d="m1.418 229.762c.641 1.29 2.145 2.145 4.29 2.145h18.351c2.145 0 3.645.859 4.29 2.144.64-1.285 2.144-2.144 4.288-2.144h18.348c2.148 0 3.648-.856 4.293-2.145" fill="none" stroke="#000" stroke-miterlimit="10" stroke-width=".79701" transform="matrix(1 0 0 -1 .398 250.055)"/><use x="15.944" xlink:href="#h" y="12.287"/><use x="21.819" xlink:href="#k" y="12.287"/><use x="26.371" xlink:href="#j" y="12.287"/><use x="36.994" xlink:href="#l" y="12.287"/><path d="m58.11 229.762c.644 1.29 2.144 2.145 4.289 2.145h75.047c2.144 0 3.644.859 4.289 2.144.64-1.285 2.144-2.144 4.289-2.144h75.043c2.144 0 3.648-.856 4.289-2.145" fill="none" stroke="#000" stroke-miterlimit="10" stroke-width=".79701" transform="matrix(1 0 0 -1 .398 250.055)"/><use x="125.344" xlink:href="#h" y="12.287"/><use x="131.22" xlink:href="#k" y="12.287"/><use x="135.772" xlink:href="#n" y="12.287"/><use x="143.742" xlink:href="#j" y="12.287"/><use x="154.365" xlink:href="#l" y="12.287"/><g clip-path="url(#d)"><path d="m255.52 250.055v-85.04h56.695v85.04zm0 0" fill="#000080"/></g><g clip-path="url(#e)"><path d="m255.122 0v85.04h56.695v-85.04zm0 0" fill="none" stroke="#fff" stroke-miterlimit="10" stroke-width=".79701" transform="matrix(1 0 0 -1 .398 250.055)"/></g><use fill="#fff" x="264.718" xlink:href="#h" y="210.525"/><use fill="#fff" x="270.593" xlink:href="#k" y="210.525"/><use fill="#fff" x="275.146" xlink:href="#j" y="210.525"/><use fill="#fff" x="285.768" xlink:href="#m" y="210.525"/><use fill="#fff" x="289.089" xlink:href="#i" y="210.525"/><use fill="#fff" x="298.455" xlink:href="#l" y="210.525"/><g clip-path="url(#f)"><path d="m255.52 165.016v-141.736h56.695v141.735zm0 0" fill="#0b0b0b"/></g><g clip-path="url(#g)"><path d="m255.122 85.04v141.734h56.695v-141.735zm0 0" fill="none" stroke="#fff" stroke-miterlimit="10" stroke-width=".79701" transform="matrix(1 0 0 -1 .398 250.055)"/></g><use fill="#fff" x="260.733" xlink:href="#h" y="97.139"/><use fill="#fff" x="266.608" xlink:href="#k" y="97.139"/><use fill="#fff" x="271.161" xlink:href="#n" y="97.139"/><use fill="#fff" x="279.131" xlink:href="#j" y="97.139"/><use fill="#fff" x="289.753" xlink:href="#m" y="97.139"/><use fill="#fff" x="293.074" xlink:href="#i" y="97.139"/><use fill="#fff" x="302.44" xlink:href="#l" y="97.139"/></svg>