<svg xmlns="http://www.w3.org/2000/svg" xmlns:xlink="http://www.w3.org/1999/xlink" width="416.811" height="333.939" viewBox="0 0 312.608 250.454"><defs><clipPath id="a"><path d="M0 136h58v114.453H0zm0 0"/></clipPath><clipPath id="i"><path d="M57 193h171v57.453H57zm0 0"/></clipPath><clipPath id="j"><path d="M56 192h172v58.453H56zm0 0"/></clipPath><clipPath id="k"><path d="M255 165h57.61v85.453H255zm0 0"/></clipPath><clipPath id="l"><path d="M255 164h57.61v86.453H255zm0 0"/></clipPath><clipPath id="m"><path d="M255 23h57.61v143H255zm0 0"/></clipPath><clipPath id="n"><path d="M255 22h57.61v144H255zm0 0"/></clipPath><symbol overflow="visible" id="b"><path d="M.516 1.516c-.079.359-.141.453-.625.453-.141 0-.266 0-.266.234 0 .016.016.11.14.11.157 0 .329-.016.485-.016h.516c.25 0 .859.015 1.109.015.078 0 .219 0 .219-.203 0-.14-.078-.14-.281-.14-.563 0-.594-.078-.594-.172 0-.14.531-2.203.61-2.484.124.343.452.812 1.077.812C4.25.125 5.72-1.641 5.72-3.391c0-1.109-.625-1.875-1.516-1.875-.766 0-1.422.735-1.547.907a1.037 1.037 0 00-1.047-.907c-.343 0-.625.157-.843.61-.22.437-.391 1.172-.391 1.218 0 .047.063.11.14.11.094 0 .11-.016.172-.297.188-.703.407-1.406.891-1.406.281 0 .375.187.375.547 0 .28-.047.406-.094.625zm2.062-5.25c.094-.329.422-.672.61-.844.14-.125.53-.453.984-.453.531 0 .766.531.766 1.14 0 .579-.329 1.938-.641 2.547C4-.687 3.453-.125 2.907-.125c-.813 0-.954-1.016-.954-1.063 0-.046.031-.14.047-.203zm0 0"/></symbol><symbol overflow="visible" id="d"><path d="M8.313-2.766c0-.046.046-.125.046-.171a.123.123 0 00-.125-.126.142.142 0 00-.109.047c-.016.016-.016.047-.125.282-.703 1.671-1.219 2.39-3.14 2.39H3.124c-.172 0-.203 0-.266-.015-.14-.016-.14-.032-.14-.125 0-.094.015-.157.047-.266l.812-3.297h1.188c.937 0 1 .203 1 .563 0 .109 0 .218-.079.578-.015.047-.03.094-.03.14 0 .079.062.11.124.11.11 0 .125-.078.172-.25l.688-2.766a.123.123 0 00-.125-.125c-.11 0-.125.047-.172.219-.235.922-.469 1.172-1.532 1.172h-1.14l.734-2.938c.11-.406.14-.453.625-.453h1.703c1.485 0 1.782.39 1.782 1.313 0 0 0 .343-.047.734a.793.793 0 00-.031.14c0 .094.062.141.14.141.078 0 .125-.047.14-.265l.266-2.094c0-.031.016-.156.016-.188 0-.125-.11-.125-.328-.125H2.844c-.219 0-.344 0-.344.22 0 .124.078.124.281.124.75 0 .75.094.75.219 0 .062-.015.11-.047.234L1.86-.89c-.109.422-.125.547-.968.547-.22 0-.344 0-.344.219C.547 0 .625 0 .859 0h6c.266 0 .282-.016.36-.203zm0 0"/></symbol><symbol overflow="visible" id="f"><path d="M8.938-7.297c.109-.406.14-.516.984-.516.219 0 .328 0 .328-.218 0-.125-.11-.125-.172-.125-.219 0-.469.015-.687.015H7.969c-.219 0-.469-.015-.703-.015-.079 0-.22 0-.22.219 0 .125.079.125.298.125.718 0 .718.093.718.218 0 .032 0 .094-.046.282l-.72 2.89H3.688l.72-2.875c.093-.406.124-.516.968-.516.219 0 .344 0 .344-.218 0-.125-.11-.125-.188-.125-.218 0-.468.015-.687.015H3.437c-.234 0-.484-.015-.718-.015-.078 0-.219 0-.219.219 0 .125.078.125.313.125.718 0 .718.093.718.218 0 .032 0 .094-.047.282L1.86-.891c-.109.422-.125.547-.953.547-.265 0-.36 0-.36.219C.547 0 .688 0 .72 0c.219 0 .469-.031.687-.031h1.422c.219 0 .469.031.703.031.094 0 .219 0 .219-.234 0-.11-.11-.11-.281-.11-.735 0-.735-.094-.735-.219 0-.015 0-.093.032-.187l.812-3.328h3.625C7-3.281 6.391-.781 6.375-.718c-.14.359-.328.359-1.031.374-.14 0-.25 0-.25.219 0 .125.125.125.172.125.203 0 .453-.031.687-.031H7.36c.235 0 .485.031.704.031.093 0 .234 0 .234-.234 0-.11-.11-.11-.281-.11-.735 0-.735-.094-.735-.219 0-.015 0-.093.016-.187zm0 0"/></symbol><symbol overflow="visible" id="c"><path d="M3.89 2.906c0-.031 0-.062-.203-.265C2.484 1.437 1.813-.531 1.813-2.97c0-2.328.562-4.328 1.953-5.734.125-.11.125-.125.125-.172 0-.063-.063-.094-.11-.094-.156 0-1.14.86-1.719 2.031-.609 1.22-.89 2.485-.89 3.97 0 1.062.172 2.484.781 3.75C2.672 2.218 3.641 3 3.781 3c.047 0 .11-.031.11-.094zm0 0"/></symbol><symbol overflow="visible" id="g"><path d="M3.375-2.969c0-.922-.125-2.39-.797-3.781C1.875-8.188.891-8.969.766-8.969c-.047 0-.11.031-.11.094 0 .047 0 .063.203.266 1.204 1.203 1.86 3.187 1.86 5.625 0 2.312-.563 4.312-1.938 5.718-.125.11-.125.141-.125.172 0 .063.063.094.11.094.156 0 1.14-.86 1.718-2.031.61-1.219.891-2.516.891-3.938zm0 0"/></symbol><symbol overflow="visible" id="e"><path d="M1.906-8.531c0-.219 0-.438-.25-.438-.234 0-.234.219-.234.438V2.563c0 .203 0 .421.234.421.25 0 .25-.218.25-.421zm0 0"/></symbol><symbol overflow="visible" id="h"><path d="M7.297-3.828c0-.39-.031-.422-.406-.422H1.078c-.203 0-.422 0-.422.234 0 .235.219.235.422.235h5.75V-1.5c0 .219 0 .438.234.438.235 0 .235-.22.235-.438zm0 0"/></symbol></defs><g clip-path="url(#a)"><path d="M.398 250.055V136.668H57.09v113.387zm0 0" fill="#ff8000" stroke-width=".797" stroke="#fff" stroke-miterlimit="10"/></g><use xlink:href="#b" x="9.6" y="196.351" fill="#fff"/><use xlink:href="#c" x="15.475" y="196.351" fill="#fff"/><use xlink:href="#d" x="20.028" y="196.351" fill="#fff"/><use xlink:href="#e" x="29.394" y="196.351" fill="#fff"/><use xlink:href="#f" x="32.715" y="196.351" fill="#fff"/><use xlink:href="#g" x="43.337" y="196.351" fill="#fff"/><path d="M.398 136.668V23.281H57.09v113.387zm0 0" fill="teal" stroke-width=".797" stroke="#fff" stroke-miterlimit="10"/><use xlink:href="#b" x="5.615" y="82.966" fill="#fff"/><use xlink:href="#c" x="11.49" y="82.966" fill="#fff"/><use xlink:href="#h" x="16.043" y="82.966" fill="#fff"/><use xlink:href="#d" x="24.013" y="82.966" fill="#fff"/><use xlink:href="#e" x="33.379" y="82.966" fill="#fff"/><use xlink:href="#f" x="36.7" y="82.966" fill="#fff"/><use xlink:href="#g" x="47.322" y="82.966" fill="#fff"/><g clip-path="url(#i)"><path d="M57.09 250.055v-56.692h170.082v56.692zm0 0" fill="#00004c"/></g><g clip-path="url(#j)"><path d="M57.09 250.055v-56.692h170.082v56.692zm0 0" fill="none" stroke-width=".797" stroke="#fff" stroke-miterlimit="10"/></g><use xlink:href="#b" x="119.001" y="224.698" fill="#fff"/><use xlink:href="#c" x="124.876" y="224.698" fill="#fff"/><use xlink:href="#d" x="129.428" y="224.698" fill="#fff"/><g fill="#fff"><use xlink:href="#e" x="138.795" y="224.698"/><use xlink:href="#h" x="142.116" y="224.698"/></g><use xlink:href="#f" x="150.086" y="224.698" fill="#fff"/><use xlink:href="#g" x="160.708" y="224.698" fill="#fff"/><path d="M57.09 193.363V23.281h170.082v170.082zm0 0" fill="#404040" stroke-width=".797" stroke="#fff" stroke-miterlimit="10"/><use xlink:href="#b" x="115.016" y="111.311" fill="#fff"/><use xlink:href="#c" x="120.891" y="111.311" fill="#fff"/><use xlink:href="#h" x="125.443" y="111.311" fill="#fff"/><use xlink:href="#d" x="133.413" y="111.311" fill="#fff"/><g fill="#fff"><use xlink:href="#e" x="142.78" y="111.311"/><use xlink:href="#h" x="146.101" y="111.311"/></g><use xlink:href="#f" x="154.071" y="111.311" fill="#fff"/><use xlink:href="#g" x="164.693" y="111.311" fill="#fff"/><path d="M1.816 20.293c.641-1.29 2.145-2.145 4.29-2.145h18.351c2.145 0 3.645-.859 4.29-2.144.64 1.285 2.144 2.144 4.288 2.144h18.348c2.148 0 3.648.856 4.293 2.145" fill="none" stroke-width=".797" stroke="#000" stroke-miterlimit="10"/><use xlink:href="#b" x="15.944" y="12.287"/><use xlink:href="#c" x="21.819" y="12.287"/><use xlink:href="#f" x="26.371" y="12.287"/><use xlink:href="#g" x="36.994" y="12.287"/><path d="M58.508 20.293c.644-1.29 2.144-2.145 4.289-2.145h75.047c2.144 0 3.644-.859 4.289-2.144.64 1.285 2.144 2.144 4.289 2.144h75.043c2.144 0 3.648.856 4.289 2.145" fill="none" stroke-width=".797" stroke="#000" stroke-miterlimit="10"/><use xlink:href="#b" x="125.344" y="12.287"/><use xlink:href="#c" x="131.22" y="12.287"/><use xlink:href="#h" x="135.772" y="12.287"/><use xlink:href="#f" x="143.742" y="12.287"/><use xlink:href="#g" x="154.365" y="12.287"/><g clip-path="url(#k)"><path d="M255.52 250.055v-85.04h56.695v85.04zm0 0" fill="navy"/></g><g clip-path="url(#l)"><path d="M255.52 250.055v-85.04h56.695v85.04zm0 0" fill="none" stroke-width=".797" stroke="#fff" stroke-miterlimit="10"/></g><use xlink:href="#b" x="264.718" y="210.525" fill="#fff"/><use xlink:href="#c" x="270.593" y="210.525" fill="#fff"/><use xlink:href="#f" x="275.146" y="210.525" fill="#fff"/><use xlink:href="#e" x="285.768" y="210.525" fill="#fff"/><use xlink:href="#d" x="289.089" y="210.525" fill="#fff"/><use xlink:href="#g" x="298.455" y="210.525" fill="#fff"/><g clip-path="url(#m)"><path d="M255.52 165.016V23.28h56.695v141.735zm0 0" fill="#0b0b0b"/></g><g clip-path="url(#n)"><path d="M255.52 165.016V23.28h56.695v141.735zm0 0" fill="none" stroke-width=".797" stroke="#fff" stroke-miterlimit="10"/></g><use xlink:href="#b" x="260.733" y="97.139" fill="#fff"/><use xlink:href="#c" x="266.608" y="97.139" fill="#fff"/><use xlink:href="#h" x="271.161" y="97.139" fill="#fff"/><use xlink:href="#f" x="279.131" y="97.139" fill="#fff"/><use xlink:href="#e" x="289.753" y="97.139" fill="#fff"/><use xlink:href="#d" x="293.074" y="97.139" fill="#fff"/><use xlink:href="#g" x="302.44" y="97.139" fill="#fff"/></svg>