<svg height="249.284" viewBox="0 0 245.228 186.963" width="326.971" xmlns="http://www.w3.org/2000/svg" xmlns:xlink="http://www.w3.org/1999/xlink"><clipPath id="a"><path d="m68 83h98v36h-98zm0 0"/></clipPath><clipPath id="b"><path d="m231.71 113.8v-91.32l-132.49-22.285-61.781 47.79v91.32l132.491 22.285zm0 0"/></clipPath><clipPath id="c"><path d="m62 78h110v47h-110zm0 0"/></clipPath><clipPath id="d"><path d="m231.71 113.8v-91.32l-132.49-22.285-61.781 47.79v91.32l132.491 22.285zm0 0"/></clipPath><clipPath id="e"><path d="m103 118h98v36h-98zm0 0"/></clipPath><clipPath id="f"><path d="m231.71 113.8v-91.32l-132.49-22.285-61.781 47.79v91.32l132.491 22.285zm0 0"/></clipPath><clipPath id="g"><path d="m98 113h109v47h-109zm0 0"/></clipPath><clipPath id="h"><path d="m231.71 113.8v-91.32l-132.49-22.285-61.781 47.79v91.32l132.491 22.285zm0 0"/></clipPath><clipPath id="i"><path d="m37 45h195v71h-195zm0 0"/></clipPath><clipPath id="j"><path d="m231.71 113.8v-91.32l-132.49-22.285-61.781 47.79v91.32l132.491 22.285zm0 0"/></clipPath><clipPath id="k"><path d="m37 40h195v82h-195zm0 0"/></clipPath><clipPath id="l"><path d="m231.71 113.8v-91.32l-132.49-22.285-61.781 47.79v91.32l132.491 22.285zm0 0"/></clipPath><clipPath id="m"><path d="m134 18h98v36h-98zm0 0"/></clipPath><clipPath id="n"><path d="m231.71 113.8v-91.32l-132.49-22.285-61.781 47.79v91.32l132.491 22.285zm0 0"/></clipPath><clipPath id="o"><path d="m128 13h104v47h-104zm0 0"/></clipPath><clipPath id="p"><path d="m231.71 113.8v-91.32l-132.49-22.285-61.781 47.79v91.32l132.491 22.285zm0 0"/></clipPath><clipPath id="q"><path d="m37 31h98v36h-98zm0 0"/></clipPath><clipPath id="r"><path d="m231.71 113.8v-91.32l-132.49-22.285-61.781 47.79v91.32l132.491 22.285zm0 0"/></clipPath><clipPath id="s"><path d="m37 26h104v47h-104zm0 0"/></clipPath><clipPath id="t"><path d="m231.71 113.8v-91.32l-132.49-22.285-61.781 47.79v91.32l132.491 22.285zm0 0"/></clipPath><symbol id="u" overflow="visible"><path d="m6.563-2.297c.171 0 .359 0 .359-.203 0-.188-.188-.188-.36-.188h-5.39c-.172 0-.344 0-.344.188 0 .203.172.203.344.203zm0 0"/></symbol><symbol id="v" overflow="visible"><path d="m2.938-6.375c0-.25 0-.266-.235-.266-.625.641-1.5.641-1.812.641v.313c.203 0 .78 0 1.296-.266v5.172c0 .36-.03.469-.921.469h-.313v.312c.344-.031 1.203-.031 1.61-.031.39 0 1.265 0 1.609.031v-.313h-.313c-.906 0-.921-.109-.921-.468zm0 0"/></symbol><symbol id="w" overflow="visible"><path d="m4.578-3.188c0-.796-.047-1.593-.39-2.328-.455-.968-1.283-1.124-1.688-1.124-.61 0-1.328.266-1.75 1.188-.313.687-.36 1.469-.36 2.266 0 .75.032 1.64.454 2.406a1.83 1.83 0 0 0 1.64 1c.532 0 1.297-.203 1.735-1.157.312-.687.36-1.468.36-2.25zm-2.094 3.188c-.39 0-.984-.25-1.156-1.203-.11-.594-.11-1.516-.11-2.11 0-.64 0-1.296.079-1.828.187-1.187.937-1.28 1.187-1.28.329 0 .985.187 1.172 1.171.11.563.11 1.313.11 1.938 0 .75 0 1.421-.11 2.062-.156.953-.719 1.25-1.172 1.25zm0 0"/></symbol><symbol id="x" overflow="visible"><path d="m2.234-3.516v-2.578c0-.234 0-.36.22-.39.093-.016.39-.016.593-.016.89 0 2 .047 2 1.484 0 .688-.234 1.5-1.703 1.5zm2.11.125c.953-.234 1.734-.843 1.734-1.625 0-.953-1.14-1.796-2.594-1.796h-3.14v.312h.25c.765 0 .781.11.781.469v5.25c0 .36-.016.469-.781.469h-.25v.312c.36-.031 1.078-.031 1.453-.031.39 0 1.11 0 1.469.031v-.313h-.25c-.766 0-.782-.109-.782-.468v-2.516h1.141c.156 0 .578 0 .938.344.375.344.375.656.375 1.328 0 .64 0 1.047.406 1.422.406.36.953.422 1.25.422.781 0 .953-.813.953-1.094 0-.063 0-.172-.125-.172-.11 0-.11.094-.125.156-.063.721-.407.891-.657.891-.485 0-.563-.516-.704-1.438l-.14-.796c-.172-.641-.656-.97-1.203-1.157zm0 0"/></symbol><symbol id="y" overflow="visible"><path d="m1.11-2.516c.061-1.484.905-1.734 1.25-1.734 1.015 0 1.124 1.344 1.124 1.734zm0 .22h2.78c.22 0 .25 0 .25-.22 0-.984-.546-1.953-1.78-1.953-1.158 0-2.08 1.032-2.08 2.282.001 1.327 1.048 2.295 2.19 2.295 1.218.002 1.67-1.108 1.67-1.295 0-.094-.079-.125-.141-.125-.078 0-.11.062-.125.14-.343 1.032-1.249 1.032-1.343 1.032-.5 0-.89-.296-1.125-.671-.297-.47-.297-1.125-.297-1.485zm0 0"/></symbol><symbol id="z" overflow="visible"><path d="m3.297 2.39c0-.03 0-.046-.172-.218-1.234-1.25-1.563-3.14-1.563-4.672 0-1.734.375-3.469 1.61-4.703.125-.125.125-.14.125-.172 0-.078-.031-.11-.094-.11-.11 0-1 .688-1.594 1.954-.499 1.093-.625 2.203-.625 3.031 0 .781.11 1.984.657 3.125.609 1.219 1.453 1.875 1.562 1.875.063 0 .094-.031.094-.11zm0 0"/></symbol><symbol id="A" overflow="visible"><path d="m2.875-2.5c0-.766-.11-1.969-.656-3.11-.594-1.217-1.453-1.873-1.547-1.873a.107.107 0 0 0 -.11.109c0 .031 0 .047.188.234.984.985 1.547 2.563 1.547 4.641 0 1.719-.36 3.469-1.594 4.719-.14.125-.14.14-.14.172 0 .062.046.109.109.109.094 0 1-.688 1.578-1.953.516-1.094.625-2.203.625-3.047zm0 0"/></symbol><symbol id="B" overflow="visible"><path d="m2.25-6.031c0-.36.016-.469.813-.469h.25v-.313c-.344.032-1.126.032-1.516.032-.375 0-1.172 0-1.516-.032v.313h.25c.797 0 .828.11.828.469v5.25c0 .36-.03.469-.828.469h-.25v.312c.344-.031 1.14-.031 1.516-.031.39 0 1.172 0 1.516.031v-.313h-.25c-.797 0-.813-.109-.813-.468zm0 0"/></symbol><symbol id="C" overflow="visible"><path d="m1.094-3.422v2.672c0 .438-.11.438-.782.438v.312c.36-.016.86-.031 1.141-.031.25 0 .766.015 1.11.031v-.313c-.672 0-.782 0-.782-.437v-1.844c0-1.031.719-1.594 1.344-1.594.64 0 .75.532.75 1.11v2.328c0 .438-.11.438-.781.438v.312c.344-.016.86-.031 1.125-.031.25 0 .781.015 1.11.031v-.313c-.657 0-.766 0-.766-.437v-1.844c0-1.031.703-1.594 1.343-1.594.625 0 .735.532.735 1.11v2.328c0 .438-.11.438-.782.438v.312c.344-.016.86-.031 1.125-.031.266 0 .782.015 1.125.031v-.313c-.515 0-.765 0-.78-.296v-1.907c0-.859 0-1.156-.313-1.515-.141-.172-.47-.375-1.047-.375-.828 0-1.282.593-1.438.984-.14-.875-.875-.984-1.328-.984-.734 0-1.203.422-1.484 1.047v-1.047l-1.407.11v.312c.704 0 .782.062.782.562zm0 0"/></symbol><symbol id="D" overflow="visible"><path d="m.453 1.219c-.078.343-.11.406-.547.406-.11 0-.218 0-.218.188 0 .078.046.125.124.125.266 0 .563-.032.829-.032.343 0 .671.032 1 .032.046 0 .171 0 .171-.204 0-.109-.093-.109-.234-.109-.5 0-.5-.063-.5-.156 0-.125.422-1.75.484-2 .125.297.407.64.922.64 1.157 0 2.407-1.453 2.407-2.921 0-.938-.579-1.594-1.329-1.594-.5 0-.984.36-1.312.75-.094-.547-.531-.75-.89-.75-.47 0-.657.39-.735.562-.188.344-.313.938-.313.969 0 .11.094.11.11.11.11 0 .11-.016.172-.235.172-.703.375-1.188.734-1.188.172 0 .313.079.313.454 0 .234-.032.343-.079.515zm1.75-4.328c.063-.266.344-.547.516-.704.36-.296.64-.374.812-.374.39 0 .64.343.64.937s-.327 1.734-.515 2.11c-.344.702-.812 1.03-1.187 1.03-.656 0-.781-.828-.781-.89 0-.016 0-.031.03-.156zm0 0"/></symbol><symbol id="E" overflow="visible"><path d="m3.594-2.219c0-.765-.094-1.328-.406-1.812-.22-.313-.657-.594-1.204-.594-1.624 0-1.624 1.906-1.624 2.406s0 2.36 1.625 2.36c1.61 0 1.61-1.86 1.61-2.36zm-1.61 2.156c-.328 0-.75-.187-.89-.75-.094-.406-.094-.983-.094-1.5 0-.515 0-1.046.094-1.421.156-.547.593-.704.89-.704.375 0 .735.235.86.641.11.375.125.875.125 1.485 0 .515 0 1.03-.094 1.468-.14.64-.61.781-.89.781zm0 0"/></symbol><symbol id="F" overflow="visible"><path d="m-3.734-3.89c.015.265.234.468.453.468.14 0 .297-.094.297-.312 0-.22-.172-.454-.563-.454-.453 0-.86.422-.86 1.188 0 1.313 1.016 1.688 1.454 1.688.781 0 .922-.735.984-1.032.11-.515.219-1.031.766-1.031.25 0 1.094.219 1.094 1.422 0 .14 0 .906-.532 1.14a.552.552 0 0 0 -.53-.64c-.22 0-.345.172-.345.375 0 .266.204.562.657.562.562 0 .968-.578.968-1.421 0-1.625-1.203-2.016-1.656-2.016a.97.97 0 0 0 -.719.312c-.28.266-.343.563-.421 1-.079.36-.157.75-.61.75-.281 0-.89-.234-.89-1.109 0-.25.078-.75.453-.89zm0 0"/></symbol><symbol id="G" overflow="visible"><path d="m1.219-.453c.343.078.406.11.406.547 0 .11 0 .218.188.218.078 0 .125-.046.125-.124 0-.266-.032-.563-.032-.829 0-.343.032-.671.032-1 0-.046 0-.171-.204-.171-.109 0-.109.093-.109.234 0 .5-.063.5-.156.5-.125 0-1.75-.422-2-.484.297-.125.64-.407.64-.922 0-1.157-1.453-2.407-2.921-2.407-.938 0-1.594.579-1.594 1.329 0 .5.36.984.75 1.312-.547.094-.75.531-.75.89 0 .47.39.657.562.735.344.188.938.313.969.313.11 0 .11-.094.11-.11 0-.11-.016-.11-.235-.172-.703-.172-1.188-.375-1.188-.734 0-.172.079-.313.454-.313.234 0 .343.032.515.079zm-4.328-1.75c-.266-.063-.547-.344-.704-.516-.296-.36-.374-.64-.374-.812 0-.39.343-.64.937-.64s1.734.327 2.11.515c.702.344 1.03.812 1.03 1.187 0 .656-.828.781-.89.781-.016 0-.031 0-.156-.03zm0 0"/></symbol><symbol id="H" overflow="visible"><path d="m2.39-3.297c-.03 0-.046 0-.218.172-1.25 1.234-3.14 1.563-4.672 1.563-1.734 0-3.469-.375-4.703-1.61-.125-.125-.14-.125-.172-.125-.078 0-.11.031-.11.094 0 .11.688 1 1.954 1.594 1.093.5 2.203.625 3.031.625.781 0 1.984-.11 3.125-.657 1.219-.609 1.875-1.453 1.875-1.562 0-.063-.031-.094-.11-.094zm0 0"/></symbol><symbol id="I" overflow="visible"><path d="m-2.5-2.875c-.766 0-1.969.11-3.11.656-1.218.594-1.874 1.453-1.874 1.547 0 .063.046.11.109.11.031 0 .047 0 .234-.188.985-.984 2.563-1.547 4.641-1.547 1.719 0 3.469.36 4.719 1.594.125.14.14.14.172.14a.106.106 0 0 0 .109-.109c0-.094-.688-1-1.953-1.578-1.094-.516-2.203-.625-3.047-.625zm0 0"/></symbol><symbol id="J" overflow="visible"><path d="m-2.219-3.594c-.765 0-1.328.094-1.812.406-.313.22-.594.657-.594 1.204 0 1.624 1.906 1.624 2.406 1.624s2.36 0 2.36-1.625c0-1.61-1.86-1.61-2.36-1.61zm2.156 1.61c0 .328-.187.75-.75.89-.406.094-.983.094-1.5.094-.515 0-1.046 0-1.421-.094-.547-.156-.704-.593-.704-.89 0-.375.235-.735.641-.86.375-.11.875-.125 1.485-.125.515 0 1.03 0 1.468.094.64.14.781.61.781.89zm0 0"/></symbol><path d="m0-7.61 132.493-22.285m-70.711 70.07 132.492-22.28m-194.274-25.505 61.782 47.785m70.711-70.07 61.78 47.79" fill="none" stroke="#000" stroke-miterlimit="10" stroke-width=".3985" transform="matrix(1 0 0 -1 37.437 131.695)"/><use x="27.08" xlink:href="#u" y="150.237"/><use x="34.829" xlink:href="#v" y="150.237"/><use x="97.683" xlink:href="#w" y="160.808"/><use x="163.928" xlink:href="#v" y="171.949"/><use x="171.125" xlink:href="#u" y="173.325"/><use x="178.874" xlink:href="#v" y="173.325"/><use x="204.145" xlink:href="#w" y="147.785"/><use x="235.035" xlink:href="#v" y="123.892"/><path d="m61.782 131.5 132.492-22.285m-194.274-25.505 61.782 47.79m-61.782-139.11v91.32m61.782-43.535v91.325" fill="none" stroke="#000" stroke-miterlimit="10" stroke-width=".3985" transform="matrix(1 0 0 -1 37.437 131.695)"/><use x="21.188" xlink:href="#u" y="136.97"/><use x="28.937" xlink:href="#v" y="136.97"/><use x="28.936" xlink:href="#w" y="98.363"/><use x="28.936" xlink:href="#v" y="60.313"/><path d="m194.274 17.894v91.32" fill="none" stroke="#000" stroke-miterlimit="10" stroke-width=".3985" transform="matrix(1 0 0 -1 37.437 131.695)"/><g clip-path="url(#a)"><g clip-path="url(#b)"><path d="m99.219 83.91 66.246 11.14-30.89 23.895-66.247-11.144zm0 0" fill="#b2b2ff"/></g></g><g clip-path="url(#c)"><g clip-path="url(#d)"><path d="m61.782 47.785 66.246-11.14-30.89-23.895-66.248 11.144zm0 0" fill="none" stroke="#b2b2ff" stroke-miterlimit="10" stroke-width=".3985" transform="matrix(1 0 0 -1 37.437 131.695)"/></g></g><g clip-path="url(#e)"><g clip-path="url(#f)"><path d="m200.82 130.086-66.246-11.14-30.89 23.89 66.246 11.14zm0 0" fill="#b2b2ff"/></g></g><g clip-path="url(#g)"><g clip-path="url(#h)"><path d="m163.383 1.61-66.246 11.14-30.89-23.89 66.246-11.142zm0 0" fill="none" stroke="#b2b2ff" stroke-miterlimit="10" stroke-width=".3985" transform="matrix(1 0 0 -1 37.437 131.695)"/></g></g><g clip-path="url(#i)"><g clip-path="url(#j)"><path d="m99.219 45.86 132.491 22.28-61.781 47.786-132.492-22.281zm0 0" fill="#808080" fill-opacity=".1"/></g></g><g clip-path="url(#k)"><g clip-path="url(#l)"><path d="m61.782 85.836 132.492-22.282-61.781-47.785-132.493 22.281zm0 0" fill="none" stroke="#808080" stroke-miterlimit="10" stroke-opacity=".1" stroke-width=".3985" transform="matrix(1 0 0 -1 37.437 131.695)"/></g></g><g clip-path="url(#m)"><g clip-path="url(#n)"><path d="m165.465 18.95 66.246 11.14-30.89 23.894-66.247-11.14zm0 0" fill="#f93"/></g></g><g clip-path="url(#o)"><g clip-path="url(#p)"><path d="m128.028 112.746 66.246-11.14-30.89-23.895-66.247 11.14zm0 0" fill="none" stroke="#f93" stroke-miterlimit="10" stroke-width=".3985" transform="matrix(1 0 0 -1 37.437 131.695)"/></g></g><g clip-path="url(#q)"><g clip-path="url(#r)"><path d="m134.574 42.844-66.246-11.145-30.89 23.895 66.246 11.14zm0 0" fill="#f93"/></g></g><g clip-path="url(#s)"><g clip-path="url(#t)"><path d="m97.137 88.851-66.246 11.145-30.89-23.896 66.246-11.14zm0 0" fill="none" stroke="#f93" stroke-miterlimit="10" stroke-width=".3985" transform="matrix(1 0 0 -1 37.437 131.695)"/></g></g><g><use x="75.342" xlink:href="#x" y="181.152"/><use x="82.675" xlink:href="#y" y="181.152"/><use x="87.103" xlink:href="#z" y="181.152"/></g><use x="90.978" xlink:href="#D" y="181.152"/><use x="95.99" xlink:href="#E" y="182.646"/><use x="100.46" xlink:href="#A" y="181.152"/><g><use x="212.777" xlink:href="#B" y="171.546"/><use x="216.374" xlink:href="#C" y="171.546"/><use x="224.676" xlink:href="#z" y="171.546"/></g><use x="228.551" xlink:href="#D" y="171.546"/><use x="233.564" xlink:href="#E" y="173.041"/><use x="238.033" xlink:href="#A" y="171.546"/><use x="10.792" xlink:href="#F" y="111.905"/><use x="10.792" xlink:href="#H" y="107.235"/><use x="10.792" xlink:href="#G" y="103.36"/><use x="12.286" xlink:href="#J" y="98.348"/><use x="10.792" xlink:href="#I" y="93.878"/></svg>