<svg xmlns="http://www.w3.org/2000/svg" xmlns:xlink="http://www.w3.org/1999/xlink" width="245.228" height="186.963"><defs><clipPath id="d"><path d="M68 83h98v36H68Zm0 0"/></clipPath><clipPath id="e"><path d="M231.71 113.8V22.48L99.22.195l-61.781 47.79v91.32L169.93 161.59Zm0 0"/></clipPath><clipPath id="f"><path d="M62 78h110v47H62Zm0 0"/></clipPath><clipPath id="g"><path d="M231.71 113.8V22.48L99.22.195l-61.781 47.79v91.32L169.93 161.59Zm0 0"/></clipPath><clipPath id="h"><path d="M103 118h98v36h-98Zm0 0"/></clipPath><clipPath id="i"><path d="M231.71 113.8V22.48L99.22.195l-61.781 47.79v91.32L169.93 161.59Zm0 0"/></clipPath><clipPath id="j"><path d="M98 113h109v47H98Zm0 0"/></clipPath><clipPath id="k"><path d="M231.71 113.8V22.48L99.22.195l-61.781 47.79v91.32L169.93 161.59Zm0 0"/></clipPath><clipPath id="l"><path d="M37 45h195v71H37Zm0 0"/></clipPath><clipPath id="m"><path d="M231.71 113.8V22.48L99.22.195l-61.781 47.79v91.32L169.93 161.59Zm0 0"/></clipPath><clipPath id="n"><path d="M37 40h195v82H37Zm0 0"/></clipPath><clipPath id="o"><path d="M231.71 113.8V22.48L99.22.195l-61.781 47.79v91.32L169.93 161.59Zm0 0"/></clipPath><clipPath id="p"><path d="M134 18h98v36h-98Zm0 0"/></clipPath><clipPath id="q"><path d="M231.71 113.8V22.48L99.22.195l-61.781 47.79v91.32L169.93 161.59Zm0 0"/></clipPath><clipPath id="r"><path d="M128 13h104v47H128Zm0 0"/></clipPath><clipPath id="s"><path d="M231.71 113.8V22.48L99.22.195l-61.781 47.79v91.32L169.93 161.59Zm0 0"/></clipPath><clipPath id="t"><path d="M37 31h98v36H37Zm0 0"/></clipPath><clipPath id="u"><path d="M231.71 113.8V22.48L99.22.195l-61.781 47.79v91.32L169.93 161.59Zm0 0"/></clipPath><clipPath id="v"><path d="M37 26h104v47H37Zm0 0"/></clipPath><clipPath id="w"><path d="M231.71 113.8V22.48L99.22.195l-61.781 47.79v91.32L169.93 161.59Zm0 0"/></clipPath><path id="a" d="M6.563-2.297c.171 0 .359 0 .359-.203 0-.187-.188-.187-.36-.187h-5.39c-.172 0-.344 0-.344.187 0 .203.172.203.344.203Zm0 0"/><path id="b" d="M2.938-6.375c0-.25 0-.266-.235-.266C2.078-6 1.203-6 .891-6v.313c.203 0 .78 0 1.297-.266v5.172c0 .36-.032.469-.922.469H.953V0c.344-.031 1.203-.031 1.61-.031.39 0 1.265 0 1.609.031v-.312h-.313c-.906 0-.921-.11-.921-.47Zm0 0"/><path id="c" d="M4.578-3.187c0-.797-.047-1.594-.39-2.329C3.734-6.484 2.906-6.64 2.5-6.64c-.61 0-1.328.266-1.75 1.188-.312.687-.36 1.469-.36 2.266 0 .75.032 1.64.454 2.406a1.83 1.83 0 0 0 1.64 1c.532 0 1.297-.203 1.735-1.156.312-.688.36-1.47.36-2.25M2.484 0c-.39 0-.984-.25-1.156-1.203-.11-.594-.11-1.516-.11-2.11 0-.64 0-1.296.079-1.828.187-1.187.937-1.28 1.187-1.28.329 0 .985.187 1.172 1.171.11.563.11 1.313.11 1.938 0 .75 0 1.421-.11 2.062C3.5-.297 2.937 0 2.484 0m0 0"/><path id="x" d="M2.234-3.516v-2.578c0-.234 0-.36.22-.39.093-.016.39-.016.593-.016.89 0 2 .047 2 1.484 0 .688-.234 1.5-1.703 1.5Zm2.11.125c.953-.234 1.734-.843 1.734-1.625 0-.953-1.14-1.796-2.594-1.796H.344v.312h.25c.765 0 .781.11.781.469v5.25c0 .36-.016.469-.781.469h-.25V0c.36-.031 1.078-.031 1.453-.031.39 0 1.11 0 1.469.031v-.312h-.25c-.766 0-.782-.11-.782-.47v-2.515h1.141c.156 0 .578 0 .938.344.375.344.375.656.375 1.328 0 .64 0 1.047.406 1.422.406.36.953.422 1.25.422.781 0 .953-.813.953-1.094 0-.062 0-.172-.125-.172-.11 0-.11.094-.125.156C6.984-.17 6.64 0 6.39 0c-.485 0-.563-.516-.703-1.437l-.141-.797c-.172-.641-.656-.97-1.203-1.157m0 0"/><path id="y" d="M1.11-2.516C1.171-4 2.015-4.25 2.36-4.25c1.015 0 1.124 1.344 1.124 1.734Zm0 .22h2.78c.22 0 .25 0 .25-.22 0-.984-.546-1.953-1.78-1.953-1.158 0-2.08 1.032-2.08 2.282C.281-.86 1.328.108 2.47.108 3.688.11 4.14-1 4.14-1.187c0-.094-.079-.125-.141-.125-.078 0-.11.062-.125.14C3.531-.14 2.625-.14 2.531-.14c-.5 0-.89-.296-1.125-.671-.297-.47-.297-1.125-.297-1.485m0 0"/><path id="z" d="M3.297 2.39c0-.03 0-.046-.172-.218C1.891.922 1.563-.968 1.563-2.5c0-1.734.375-3.469 1.609-4.703.125-.125.125-.14.125-.172 0-.078-.031-.11-.094-.11-.11 0-1 .688-1.594 1.954C1.11-4.438.984-3.328.984-2.5c0 .781.11 1.984.657 3.125C2.25 1.844 3.094 2.5 3.203 2.5c.063 0 .094-.031.094-.11m0 0"/><path id="C" d="M2.875-2.5c0-.766-.11-1.969-.656-3.11C1.625-6.827.766-7.483.672-7.483a.107.107 0 0 0-.11.109c0 .031 0 .047.188.234.984.985 1.547 2.563 1.547 4.641C2.297-.78 1.937.97.703 2.22c-.14.125-.14.14-.14.172 0 .062.046.109.109.109.094 0 1-.687 1.578-1.953.516-1.094.625-2.203.625-3.047m0 0"/><path id="D" d="M2.25-6.031c0-.36.016-.469.813-.469h.25v-.312c-.344.03-1.126.03-1.516.03-.375 0-1.172 0-1.516-.03v.312h.25c.797 0 .828.11.828.469v5.25c0 .36-.03.469-.828.469h-.25V0c.344-.031 1.14-.031 1.516-.031.39 0 1.172 0 1.516.031v-.312h-.25c-.797 0-.813-.11-.813-.47Zm0 0"/><path id="E" d="M1.094-3.422V-.75c0 .438-.11.438-.782.438V0c.36-.016.86-.031 1.141-.031.25 0 .766.015 1.11.031v-.312c-.672 0-.782 0-.782-.438v-1.844c0-1.031.719-1.594 1.344-1.594.64 0 .75.532.75 1.11V-.75c0 .438-.11.438-.781.438V0c.344-.016.86-.031 1.125-.031.25 0 .781.015 1.11.031v-.312c-.657 0-.766 0-.766-.438v-1.844c0-1.031.703-1.594 1.343-1.594.625 0 .735.532.735 1.11V-.75c0 .438-.11.438-.782.438V0c.344-.016.86-.031 1.125-.031.266 0 .782.015 1.125.031v-.312c-.515 0-.765 0-.78-.297v-1.907c0-.859 0-1.156-.313-1.515-.141-.172-.47-.375-1.047-.375-.828 0-1.282.593-1.438.984-.14-.875-.875-.984-1.328-.984-.734 0-1.203.422-1.484 1.047v-1.047l-1.406.11v.312c.703 0 .78.062.78.562m0 0"/><path id="A" d="M.453 1.219c-.078.343-.11.406-.547.406-.11 0-.218 0-.218.188 0 .078.046.125.125.125.265 0 .562-.032.828-.032.343 0 .672.032 1 .032.046 0 .172 0 .172-.204 0-.109-.094-.109-.235-.109-.5 0-.5-.062-.5-.156 0-.125.422-1.75.484-2 .125.297.407.64.922.64 1.157 0 2.407-1.453 2.407-2.921 0-.938-.578-1.594-1.328-1.594-.5 0-.985.36-1.313.75-.094-.547-.531-.75-.89-.75-.47 0-.657.39-.735.562-.187.344-.312.938-.312.969 0 .11.093.11.109.11.11 0 .11-.016.172-.235.172-.703.375-1.187.734-1.187.172 0 .313.078.313.453 0 .234-.032.343-.079.515Zm1.75-4.328c.063-.266.344-.547.516-.703.36-.297.64-.376.812-.376.39 0 .64.344.64.938s-.327 1.734-.515 2.11C3.312-.439 2.844-.11 2.47-.11c-.656 0-.781-.827-.781-.89 0-.016 0-.031.03-.156Zm0 0"/><path id="B" d="M3.594-2.219c0-.765-.094-1.328-.406-1.812-.22-.313-.657-.594-1.204-.594C.36-4.625.36-2.719.36-2.219s0 2.36 1.625 2.36c1.61 0 1.61-1.86 1.61-2.36M1.984-.062c-.328 0-.75-.188-.89-.75C1-1.22 1-1.797 1-2.312c0-.516 0-1.047.094-1.422.156-.547.593-.703.89-.703.375 0 .735.234.86.64.11.375.125.875.125 1.485 0 .515 0 1.03-.094 1.468-.14.64-.61.782-.89.782m0 0"/><path id="F" d="M-3.734-3.89c.015.265.234.468.453.468.14 0 .297-.094.297-.312 0-.22-.172-.453-.563-.453-.453 0-.86.421-.86 1.187 0 1.313 1.016 1.688 1.454 1.688.781 0 .922-.735.984-1.032.11-.515.219-1.031.766-1.031.25 0 1.094.219 1.094 1.422 0 .14 0 .906-.532 1.14a.552.552 0 0 0-.53-.64c-.22 0-.345.172-.345.375 0 .266.204.562.657.562.562 0 .968-.578.968-1.421 0-1.625-1.203-2.016-1.656-2.016a.97.97 0 0 0-.719.312c-.28.266-.343.563-.421 1-.079.36-.157.75-.61.75-.281 0-.89-.234-.89-1.109 0-.25.078-.75.453-.89m0 0"/><path id="H" d="M1.219-.453c.343.078.406.11.406.547 0 .11 0 .219.188.219.078 0 .125-.047.125-.125 0-.266-.032-.563-.032-.829 0-.343.032-.671.032-1 0-.046 0-.171-.204-.171-.109 0-.109.093-.109.234 0 .5-.062.5-.156.5-.125 0-1.75-.422-2-.484.297-.125.64-.407.64-.922 0-1.157-1.453-2.407-2.921-2.407-.938 0-1.594.579-1.594 1.329 0 .5.36.984.75 1.312-.547.094-.75.531-.75.89 0 .47.39.657.562.735.344.188.938.313.969.313.11 0 .11-.094.11-.11 0-.11-.016-.11-.235-.172-.703-.172-1.187-.375-1.187-.734 0-.172.078-.313.453-.313.234 0 .343.032.515.079Zm-4.328-1.75c-.266-.063-.547-.344-.703-.516-.297-.36-.376-.64-.376-.812 0-.39.344-.64.938-.64s1.734.327 2.11.515c.702.344 1.03.812 1.03 1.187 0 .656-.827.781-.89.781-.016 0-.031 0-.156-.03Zm0 0"/><path id="G" d="M2.39-3.297c-.03 0-.046 0-.218.172C.922-1.891-.968-1.562-2.5-1.562c-1.734 0-3.469-.375-4.703-1.61-.125-.125-.14-.125-.172-.125-.078 0-.11.031-.11.094 0 .11.688 1 1.954 1.594 1.093.5 2.203.625 3.031.625.781 0 1.984-.11 3.125-.657C1.844-2.25 2.5-3.094 2.5-3.203c0-.063-.031-.094-.11-.094m0 0"/><path id="J" d="M-2.5-2.875c-.766 0-1.969.11-3.11.656-1.218.594-1.874 1.453-1.874 1.547 0 .063.046.11.109.11.031 0 .047 0 .234-.188.985-.984 2.563-1.547 4.641-1.547 1.719 0 3.469.36 4.719 1.594.125.14.14.14.172.14A.106.106 0 0 0 2.5-.672c0-.094-.687-1-1.953-1.578-1.094-.516-2.203-.625-3.047-.625m0 0"/><path id="I" d="M-2.219-3.594c-.765 0-1.328.094-1.812.406-.313.22-.594.657-.594 1.204C-4.625-.36-2.719-.36-2.219-.36s2.36 0 2.36-1.625c0-1.61-1.86-1.61-2.36-1.61m2.157 1.61c0 .328-.188.75-.75.89C-1.22-1-1.797-1-2.312-1c-.516 0-1.047 0-1.422-.094-.547-.156-.703-.593-.703-.89 0-.375.234-.735.64-.86.375-.11.875-.125 1.485-.125.515 0 1.03 0 1.468.094.64.14.782.61.782.89m0 0"/></defs><path fill="none" stroke="#000" stroke-miterlimit="10" stroke-width=".399" d="M37.438 139.305 169.93 161.59M99.219 91.52 231.71 113.8M37.438 139.305l61.78-47.785m70.712 70.07 61.78-47.79"/><use xlink:href="#a" x="27.08" y="150.237"/><use xlink:href="#b" x="34.829" y="150.237"/><use xlink:href="#c" x="97.683" y="160.808"/><use xlink:href="#b" x="163.928" y="171.949"/><use xlink:href="#a" x="171.125" y="173.325"/><use xlink:href="#b" x="178.874" y="173.325"/><use xlink:href="#c" x="204.145" y="147.785"/><use xlink:href="#b" x="235.035" y="123.892"/><path fill="none" stroke="#000" stroke-miterlimit="10" stroke-width=".399" d="M99.219.195 231.71 22.48M37.438 47.984 99.218.195m-61.78 139.11v-91.32M99.219 91.52V.195"/><use xlink:href="#a" x="21.188" y="136.97"/><use xlink:href="#b" x="28.937" y="136.97"/><use xlink:href="#c" x="28.936" y="98.363"/><use xlink:href="#b" x="28.936" y="60.313"/><path fill="none" stroke="#000" stroke-miterlimit="10" stroke-width=".399" d="M231.71 113.8V22.48"/><g clip-path="url(#d)"><g clip-path="url(#e)"><path fill="#B2B2FF" d="m99.219 83.91 66.246 11.14-30.89 23.895-66.247-11.144Zm0 0"/></g></g><g clip-path="url(#f)"><g clip-path="url(#g)"><path fill="none" stroke="#B2B2FF" stroke-miterlimit="10" stroke-width=".399" d="m99.219 83.91 66.246 11.14-30.89 23.895-66.247-11.144Zm0 0"/></g></g><g clip-path="url(#h)"><g clip-path="url(#i)"><path fill="#B2B2FF" d="m200.82 130.086-66.246-11.14-30.89 23.89 66.246 11.14Zm0 0"/></g></g><g clip-path="url(#j)"><g clip-path="url(#k)"><path fill="none" stroke="#B2B2FF" stroke-miterlimit="10" stroke-width=".399" d="m200.82 130.086-66.246-11.14-30.89 23.89 66.246 11.14Zm0 0"/></g></g><g clip-path="url(#l)"><g clip-path="url(#m)"><path fill="#7F7F7F" fill-opacity=".1" d="M99.219 45.86 231.71 68.14l-61.781 47.786L37.438 93.645Zm0 0"/></g></g><g clip-path="url(#n)"><g clip-path="url(#o)"><path fill="none" stroke="#7F7F7F" stroke-miterlimit="10" stroke-opacity=".1" stroke-width=".399" d="M99.219 45.86 231.71 68.14l-61.781 47.786L37.438 93.645Zm0 0"/></g></g><g clip-path="url(#p)"><g clip-path="url(#q)"><path fill="#F93" d="m165.465 18.95 66.246 11.14-30.89 23.894-66.247-11.14Zm0 0"/></g></g><g clip-path="url(#r)"><g clip-path="url(#s)"><path fill="none" stroke="#F93" stroke-miterlimit="10" stroke-width=".399" d="m165.465 18.95 66.246 11.14-30.89 23.894-66.247-11.14Zm0 0"/></g></g><g clip-path="url(#t)"><g clip-path="url(#u)"><path fill="#F93" d="M134.574 42.844 68.328 31.699l-30.89 23.895 66.246 11.14Zm0 0"/></g></g><g clip-path="url(#v)"><g clip-path="url(#w)"><path fill="none" stroke="#F93" stroke-miterlimit="10" stroke-width=".399" d="M134.574 42.844 68.328 31.699l-30.89 23.895 66.246 11.14Zm0 0"/></g></g><use xlink:href="#x" x="75.342" y="181.152"/><use xlink:href="#y" x="82.675" y="181.152"/><use xlink:href="#z" x="87.103" y="181.152"/><use xlink:href="#A" x="90.978" y="181.152"/><use xlink:href="#B" x="95.99" y="182.646"/><use xlink:href="#C" x="100.46" y="181.152"/><use xlink:href="#D" x="212.777" y="171.546"/><use xlink:href="#E" x="216.374" y="171.546"/><use xlink:href="#z" x="224.676" y="171.546"/><use xlink:href="#A" x="228.551" y="171.546"/><use xlink:href="#B" x="233.564" y="173.041"/><use xlink:href="#C" x="238.033" y="171.546"/><use xlink:href="#F" x="10.792" y="111.905"/><use xlink:href="#G" x="10.792" y="107.235"/><use xlink:href="#H" x="10.792" y="103.36"/><use xlink:href="#I" x="12.286" y="98.348"/><use xlink:href="#J" x="10.792" y="93.878"/></svg>