<svg xmlns="http://www.w3.org/2000/svg" xmlns:xlink="http://www.w3.org/1999/xlink" width="661.527" height="162.629" viewBox="0 0 496.145 121.972"><defs><symbol overflow="visible" id="a"><path d="M2.828-6.234c0-.204-.14-.36-.36-.36-.28 0-.546.266-.546.532 0 .187.14.359.375.359.234 0 .531-.234.531-.531zm-.75 3.75c.11-.282.11-.313.219-.579.078-.203.125-.343.125-.53 0-.438-.313-.813-.813-.813-.937 0-1.312 1.453-1.312 1.531 0 .11.094.11.11.11.109 0 .109-.032.156-.188.28-.938.671-1.235 1.015-1.235.078 0 .25 0 .25.313 0 .219-.078.422-.11.531-.077.25-.53 1.406-.687 1.844-.11.25-.234.578-.234.797 0 .469.344.812.812.812.938 0 1.313-1.437 1.313-1.53 0-.11-.094-.11-.125-.11-.094 0-.094.031-.14.187C2.468-.719 2.14-.109 1.64-.109c-.172 0-.25-.094-.25-.329 0-.25.062-.39.296-1zm0 0"/></symbol><symbol overflow="visible" id="e"><path d="M2.86-6.813s0-.109-.126-.109c-.234 0-.953.078-1.218.11-.079 0-.188.015-.188.187 0 .125.094.125.234.125.485 0 .5.063.5.172l-.03.203L.593-.391C.547-.25.547-.234.547-.17c0 .234.203.28.297.28a.407.407 0 0 0 .36-.265l.187-.75.218-.89c.063-.235.125-.454.172-.673.016-.062.11-.39.11-.453.03-.094.343-.64.687-.922.219-.156.516-.344.953-.344.422 0 .531.344.531.704 0 .53-.375 1.625-.609 2.234-.078.219-.14.344-.14.547 0 .469.359.812.828.812.937 0 1.296-1.453 1.296-1.53 0-.11-.078-.11-.109-.11-.11 0-.11.031-.156.187-.14.532-.469 1.235-1.016 1.235-.172 0-.234-.094-.234-.329 0-.25.078-.484.172-.703.156-.437.61-1.625.61-2.203 0-.64-.391-1.062-1.141-1.062-.626 0-1.11.312-1.485.765zm0 0"/></symbol><symbol overflow="visible" id="h"><path d="M4.672-2.719c0-1.047-.688-1.687-1.594-1.687C1.75-4.406.406-2.984.406-1.578.406-.594 1.078.109 2 .109c1.328 0 2.672-1.375 2.672-2.828zM2.016-.109c-.438 0-.875-.313-.875-1.094 0-.484.265-1.563.578-2.063.5-.765 1.078-.921 1.36-.921.577 0 .874.484.874 1.078 0 .39-.203 1.437-.578 2.078-.36.578-.906.922-1.36.922zm0 0"/></symbol><symbol overflow="visible" id="b"><path d="M2.938-6.375c0-.25 0-.266-.235-.266C2.078-6 1.203-6 .891-6v.313c.203 0 .78 0 1.296-.266v5.172c0 .36-.03.469-.921.469H.953V0c.344-.031 1.203-.031 1.61-.031.39 0 1.265 0 1.609.031v-.313h-.313c-.906 0-.921-.109-.921-.468zm0 0"/></symbol><symbol overflow="visible" id="c"><path d="M1.266-.766l1.062-1.03c1.547-1.376 2.14-1.907 2.14-2.907 0-1.14-.89-1.938-2.109-1.938C1.234-6.64.5-5.719.5-4.828c0 .547.5.547.531.547.172 0 .516-.11.516-.532a.513.513 0 0 0-.531-.515c-.079 0-.094 0-.125.016.218-.657.765-1.016 1.343-1.016.907 0 1.329.812 1.329 1.625 0 .797-.485 1.578-1.047 2.203L.609-.375C.5-.265.5-.235.5 0h3.703l.266-1.734h-.235C4.172-1.438 4.11-1 4-.844c-.063.078-.719.078-.938.078zm0 0"/></symbol><symbol overflow="visible" id="f"><path d="M2.89-3.516c.813-.265 1.391-.953 1.391-1.75 0-.812-.875-1.375-1.828-1.375-1 0-1.765.594-1.765 1.36 0 .328.218.515.515.515.297 0 .5-.218.5-.515 0-.485-.469-.485-.61-.485.298-.5.954-.625 1.313-.625.422 0 .969.22.969 1.11 0 .125-.031.703-.281 1.14-.297.485-.64.516-.89.516a3.29 3.29 0 0 1-.392.031c-.078.016-.14.031-.14.125 0 .11.062.11.234.11h.438c.812 0 1.187.671 1.187 1.656 0 1.36-.687 1.64-1.125 1.64-.437 0-1.187-.171-1.531-.75.344.047.656-.171.656-.546a.537.537 0 0 0-.547-.563c-.25 0-.562.14-.562.578C.422-.437 1.344.22 2.437.22c1.22 0 2.126-.906 2.126-1.922 0-.813-.641-1.594-1.672-1.813zm0 0"/></symbol><symbol overflow="visible" id="g"><path d="M2.938-1.64v.859c0 .36-.032.469-.766.469h-.203V0c.406-.031.922-.031 1.343-.031.422 0 .938 0 1.36.031v-.313h-.219c-.734 0-.75-.109-.75-.468v-.86h.985v-.312h-.985v-4.531c0-.204 0-.266-.172-.266-.078 0-.11 0-.187.125L.28-1.953v.312zm.046-.313H.563l2.421-3.719zm0 0"/></symbol><symbol overflow="visible" id="k"><path d="M3-1.594c0-.36 0-1.718-1.313-1.718C.391-3.313.391-1.954.391-1.595.39-1.234.39.11 1.687.11 3 .11 3-1.234 3-1.594zM1.687-.062c-.171 0-.593-.063-.718-.563C.89-.891.89-1.25.89-1.656c0-.375 0-.719.078-1 .125-.422.515-.5.719-.5.375 0 .64.187.734.547.078.25.078.656.078.953 0 .343 0 .75-.078 1.047-.125.484-.531.546-.735.546zm0 0"/></symbol><symbol overflow="visible" id="m"><path d="M2.938-.969h-.22c0 .094-.062.406-.14.453-.031.032-.453.032-.531.032h-.969c.328-.235.688-.516.984-.72.454-.312.876-.593.876-1.124 0-.64-.61-.985-1.313-.985-.672 0-1.172.376-1.172.876 0 .25.219.296.297.296a.283.283 0 0 0 .281-.296.27.27 0 0 0-.281-.282c.14-.234.438-.375.766-.375.484 0 .89.281.89.766 0 .422-.297.75-.672 1.062L.516-.234c-.047.047-.063.047-.063.078V0h2.313zm0 0"/></symbol><symbol overflow="visible" id="n"><path d="M.984-2.75c.25.063.485.063.532.063.343 0 .593-.094.718-.157.125-.062.47-.281.47-.39 0-.079-.063-.079-.079-.079s-.016 0-.078.016c-.188.063-.5.14-.828.14-.282 0-.547-.046-.813-.14-.062-.015-.062-.015-.078-.015-.078 0-.078.046-.078.124v1.5c0 .094 0 .157.11.157.046 0 .046-.016.093-.063.188-.218.453-.328.797-.328.281 0 .453.156.516.266.109.172.14.39.14.64 0 .204-.015.485-.219.672a.822.822 0 0 1-.609.25c-.328 0-.687-.14-.844-.437.204-.016.282-.156.282-.281a.282.282 0 0 0-.563.016c0 .5.484.905 1.125.905.75 0 1.36-.5 1.36-1.109 0-.563-.485-1.094-1.172-1.094-.313 0-.579.078-.782.25zm0 0"/></symbol><symbol overflow="visible" id="p"><path d="M1.984-3.172c0-.14-.015-.14-.187-.14C1.453-3 .89-3 .797-3H.719v.219h.078c.11 0 .437-.016.734-.14v2.5c0 .14 0 .202-.531.202H.75V0c.266-.016.719-.016 1-.016.297 0 .734 0 1.016.016v-.219h-.25c-.532 0-.532-.062-.532-.203zm0 0"/></symbol><symbol overflow="visible" id="q"><path d="M3.078-.813v-.218h-.625V-3.22c0-.125 0-.156-.14-.156-.094 0-.094 0-.157.078L.312-1.03v.218H1.97v.391c0 .156 0 .203-.422.203h-.188V0c.235-.016.563-.016.86-.016.281 0 .61 0 .844.016v-.219H2.89c-.438 0-.438-.047-.438-.203v-.39zm-1.062-2.03v1.812H.546zm0 0"/></symbol><symbol overflow="visible" id="r"><path d="M2.469-1.578c0 .312-.031.687-.203.984a.96.96 0 0 1-.86.5c-.047 0-.36 0-.531-.125.125-.031.203-.125.203-.25 0-.172-.11-.265-.266-.265-.078 0-.265.046-.265.28 0 .563.734.563.875.563.844 0 1.562-.718 1.562-1.75 0-1.203-.578-1.671-1.265-1.671-.5 0-.75.171-.953.343a.937.937 0 0 0-.36.781c0 .282.078.532.344.766.234.203.469.344.89.344.204 0 .563-.078.829-.5zm-.813.328c-.203 0-.39-.031-.578-.266-.14-.171-.156-.39-.156-.671 0-.36.015-.516.203-.72.078-.077.234-.218.594-.218.734 0 .734.813.734 1.031 0 .406-.297.844-.797.844zm0 0"/></symbol><symbol overflow="visible" id="l"><path d="M1.453-.297a.313.313 0 0 0-.312-.312c-.157 0-.297.14-.297.312 0 .156.14.297.297.297.171 0 .312-.14.312-.297zm0 0"/></symbol><symbol overflow="visible" id="o"><path d="M4.39-1.11c.079 0 .204 0 .204-.14s-.125-.14-.203-.14H1.016c-.079 0-.22 0-.22.14s.141.14.22.14zm0 0"/></symbol><clipPath id="d"><path d="M102 102h20v19.973h-20zm0 0"/></clipPath><clipPath id="i"><path d="M374 102h21v19.973h-21zm0 0"/></clipPath><clipPath id="j"><path d="M476 51h20.145v20H476zm0 0"/></clipPath><clipPath id="s"><path d="M310.602 81.793h17.007v17.008h-17.007zm0 0"/></clipPath><clipPath id="t"><path d="M337.754 69.473h17.008v17.011h-17.008zm0 0"/></clipPath><clipPath id="u"><path d="M310.602 57.156h17.007v17.008h-17.007zm0 0"/></clipPath><clipPath id="v"><path d="M338.3 26.371h17.009V43.38H338.3zm0 0"/></clipPath><clipPath id="w"><path d="M338.3 78.555h17.009v17.007H338.3zm0 0"/></clipPath><clipPath id="x"><path d="M310.602 47.77h17.007v17.007h-17.007zm0 0"/></clipPath><clipPath id="y"><path d="M337.754 35.45h17.008v17.01h-17.008zm0 0"/></clipPath><clipPath id="z"><path d="M310.602 23.133h17.007V40.14h-17.007zm0 0"/></clipPath><clipPath id="A"><path d="M412.484 85.113h17.008v17.008h-17.008zm0 0"/></clipPath><clipPath id="B"><path d="M439.863 58.781h17.012V75.79h-17.012zm0 0"/></clipPath><clipPath id="C"><path d="M412.8 41.633h17.009V58.64H412.8zm0 0"/></clipPath><clipPath id="D"><path d="M440.168 33.652h17.008V50.66h-17.008zm0 0"/></clipPath></defs><path d="M19.926 77.992c0-5.5-4.461-9.96-9.961-9.96-5.504 0-9.965 4.46-9.965 9.96 0 5.504 4.46 9.965 9.965 9.965 5.5 0 9.96-4.46 9.96-9.965zm0 0" fill="rgb(59.999084%,100%,59.999084%)"/><use xlink:href="#a" x="5.756" y="81.279" fill="rgb(0%,0%,0%)"/><use xlink:href="#b" x="9.188" y="81.279" fill="rgb(0%,0%,0%)"/><path d="M19.926 43.977c0-5.504-4.461-9.961-9.961-9.961C4.46 34.016 0 38.473 0 43.976c0 5.504 4.46 9.965 9.965 9.965 5.5 0 9.96-4.46 9.96-9.964zm0 0" fill="rgb(59.999084%,100%,59.999084%)"/><use xlink:href="#a" x="5.756" y="47.263" fill="rgb(0%,0%,0%)"/><use xlink:href="#c" x="9.188" y="47.263" fill="rgb(0%,0%,0%)"/><g clip-path="url(#d)"><path d="M121.973 112.008c0-5.5-4.461-9.961-9.961-9.961-5.504 0-9.965 4.46-9.965 9.96 0 5.505 4.46 9.966 9.965 9.966 5.5 0 9.96-4.461 9.96-9.965zm0 0" fill="rgb(59.999084%,59.999084%,100%)"/></g><use xlink:href="#e" x="106.649" y="115.469" fill="rgb(0%,0%,0%)"/><use xlink:href="#b" x="112.389" y="115.469" fill="rgb(0%,0%,0%)"/><path d="M121.973 77.992c0-5.5-4.461-9.96-9.961-9.96-5.504 0-9.965 4.46-9.965 9.96 0 5.504 4.46 9.965 9.965 9.965 5.5 0 9.96-4.46 9.96-9.965zm0 0" fill="rgb(59.999084%,59.999084%,100%)"/><use xlink:href="#e" x="106.649" y="81.453" fill="rgb(0%,0%,0%)"/><use xlink:href="#c" x="112.389" y="81.453" fill="rgb(0%,0%,0%)"/><path d="M121.973 43.977c0-5.504-4.461-9.961-9.961-9.961-5.504 0-9.965 4.457-9.965 9.96 0 5.504 4.46 9.965 9.965 9.965 5.5 0 9.96-4.46 9.96-9.964zm0 0" fill="rgb(59.999084%,59.999084%,100%)"/><use xlink:href="#e" x="106.649" y="47.437" fill="rgb(0%,0%,0%)"/><use xlink:href="#f" x="112.389" y="47.437" fill="rgb(0%,0%,0%)"/><path d="M121.973 9.96c0-5.503-4.461-9.964-9.961-9.964-5.504 0-9.965 4.461-9.965 9.965s4.46 9.96 9.965 9.96c5.5 0 9.96-4.456 9.96-9.96zm0 0" fill="rgb(59.999084%,59.999084%,100%)"/><use xlink:href="#e" x="106.649" y="13.422" fill="rgb(0%,0%,0%)"/><use xlink:href="#g" x="112.389" y="13.422" fill="rgb(0%,0%,0%)"/><path d="M224.023 60.984c0-5.5-4.46-9.96-9.964-9.96-5.5 0-9.961 4.46-9.961 9.96 0 5.504 4.46 9.965 9.96 9.965 5.505 0 9.965-4.46 9.965-9.965zm0 0" fill="rgb(100%,59.999084%,59.999084%)"/><use xlink:href="#h" x="211.642" y="63.131" fill="rgb(0%,0%,0%)"/><path d="M19.605 81.191l81.403 27.137" fill="none" stroke-width="0.3985" stroke="rgb(29.998779%,29.998779%,29.998779%)" stroke-miterlimit="10"/><path d="M100.379 106.438c-.094.597.66 1.796.914 1.984-.316 0-1.637.504-1.922 1.039" fill="none" stroke-width=".3187740605" stroke-linecap="round" stroke-linejoin="round" stroke="rgb(29.998779%,29.998779%,29.998779%)" stroke-miterlimit="10"/><path d="M20.125 77.977l80.29.003" fill="none" stroke-width="0.3985" stroke="rgb(29.998779%,29.998779%,29.998779%)" stroke-miterlimit="10"/><path d="M99.219 76.383c.097.597 1.195 1.496 1.492 1.597-.297.098-1.395.997-1.492 1.594" fill="none" stroke-width="0.31879" stroke-linecap="round" stroke-linejoin="round" stroke="rgb(29.998779%,29.998779%,29.998779%)" stroke-miterlimit="10"/><path d="M19.605 74.766l81.403-27.137" fill="none" stroke-width="0.3985" stroke="rgb(29.998779%,29.998779%,29.998779%)" stroke-miterlimit="10"/><path d="M99.371 46.496c.281.535 1.606 1.04 1.922 1.04-.254.187-1.008 1.386-.914 1.984" fill="none" stroke-width=".3187740605" stroke-linecap="round" stroke-linejoin="round" stroke="rgb(29.998779%,29.998779%,29.998779%)" stroke-miterlimit="10"/><path d="M18.418 72.34l83.945-55.961" fill="none" stroke-width="0.3985" stroke="rgb(29.998779%,29.998779%,29.998779%)" stroke-miterlimit="10"/><path d="M100.484 15.715c.414.441 1.825.582 2.13.496-.196.25-.61 1.605-.36 2.156" fill="none" stroke-width=".3187740605" stroke-linecap="round" stroke-linejoin="round" stroke="rgb(29.998779%,29.998779%,29.998779%)" stroke-miterlimit="10"/><path d="M18.422 49.594l83.941 55.965" fill="none" stroke-width="0.3985" stroke="rgb(29.998779%,29.998779%,29.998779%)" stroke-miterlimit="10"/><path d="M102.254 103.566c-.25.555.168 1.907.36 2.157-.305-.082-1.712.054-2.13.496" fill="none" stroke-width=".3187772484" stroke-linecap="round" stroke-linejoin="round" stroke="rgb(29.998779%,29.998779%,29.998779%)" stroke-miterlimit="10"/><path d="M19.605 47.168l81.403 27.137" fill="none" stroke-width="0.3985" stroke="rgb(29.998779%,29.998779%,29.998779%)" stroke-miterlimit="10"/><path d="M100.379 72.414c-.094.598.664 1.797.914 1.984-.316 0-1.637.504-1.922 1.04" fill="none" stroke-width=".3187740605" stroke-linecap="round" stroke-linejoin="round" stroke="rgb(29.998779%,29.998779%,29.998779%)" stroke-miterlimit="10"/><path d="M20.125 43.953l80.29.004" fill="none" stroke-width="0.3985" stroke="rgb(29.998779%,29.998779%,29.998779%)" stroke-miterlimit="10"/><path d="M99.219 42.36c.097.597 1.195 1.495 1.492 1.597-.297.098-1.395.996-1.492 1.594" fill="none" stroke-width="0.31879" stroke-linecap="round" stroke-linejoin="round" stroke="rgb(29.998779%,29.998779%,29.998779%)" stroke-miterlimit="10"/><path d="M19.605 40.742l81.403-27.137" fill="none" stroke-width="0.3985" stroke="rgb(29.998779%,29.998779%,29.998779%)" stroke-miterlimit="10"/><path d="M99.371 12.473c.281.535 1.606 1.039 1.922 1.039-.254.191-1.008 1.386-.914 1.984" fill="none" stroke-width=".3187740605" stroke-linecap="round" stroke-linejoin="round" stroke="rgb(29.998779%,29.998779%,29.998779%)" stroke-miterlimit="10"/><path d="M121.121 107.457l82.586-41.293" fill="none" stroke-width="0.3985" stroke="rgb(29.998779%,29.998779%,29.998779%)" stroke-miterlimit="10"/><path d="M201.926 65.273c.355.489 1.738.801 2.05.758-.222.223-.804 1.516-.624 2.094" fill="none" stroke-width=".3187644968" stroke-linecap="round" stroke-linejoin="round" stroke="rgb(29.998779%,29.998779%,29.998779%)" stroke-miterlimit="10"/><path d="M122.055 76.309l80.586-13.43" fill="none" stroke-width="0.3985" stroke="rgb(29.998779%,29.998779%,29.998779%)" stroke-miterlimit="10"/><path d="M201.2 61.5c.195.574 1.421 1.277 1.734 1.328-.278.149-1.211 1.211-1.211 1.817" fill="none" stroke-width=".31877087260000003" stroke-linecap="round" stroke-linejoin="round" stroke="rgb(29.998779%,29.998779%,29.998779%)" stroke-miterlimit="10"/><path d="M122.055 45.625l80.586 13.43" fill="none" stroke-width="0.3985" stroke="rgb(29.998779%,29.998779%,29.998779%)" stroke-miterlimit="10"/><path d="M201.723 57.29c0 .605.933 1.667 1.21 1.815-.312.051-1.538.754-1.734 1.329" fill="none" stroke-width=".31877087260000003" stroke-linecap="round" stroke-linejoin="round" stroke="rgb(29.998779%,29.998779%,29.998779%)" stroke-miterlimit="10"/><path d="M121.121 14.477l82.586 41.293" fill="none" stroke-width="0.3985" stroke="rgb(29.998779%,29.998779%,29.998779%)" stroke-miterlimit="10"/><path d="M203.352 53.809c-.176.582.402 1.87.625 2.093-.313-.043-1.696.27-2.051.758" fill="none" stroke-width=".3187740605" stroke-linecap="round" stroke-linejoin="round" stroke="rgb(29.998779%,29.998779%,29.998779%)" stroke-miterlimit="10"/><path d="M292.055 77.992c0-5.5-4.461-9.96-9.965-9.96-5.5 0-9.961 4.46-9.961 9.96 0 5.504 4.46 9.965 9.96 9.965 5.505 0 9.966-4.46 9.966-9.965zm0 0" fill="rgb(59.999084%,100%,59.999084%)"/><use xlink:href="#a" x="277.881" y="81.279" fill="rgb(0%,0%,0%)"/><use xlink:href="#b" x="281.313" y="81.279" fill="rgb(0%,0%,0%)"/><path d="M292.055 43.977c0-5.504-4.461-9.961-9.965-9.961-5.5 0-9.961 4.457-9.961 9.96 0 5.504 4.46 9.965 9.96 9.965 5.505 0 9.966-4.46 9.966-9.964zm0 0" fill="rgb(59.999084%,100%,59.999084%)"/><use xlink:href="#a" x="277.881" y="47.263" fill="rgb(0%,0%,0%)"/><use xlink:href="#c" x="281.313" y="47.263" fill="rgb(0%,0%,0%)"/><g clip-path="url(#i)"><path d="M394.102 112.008c0-5.5-4.461-9.961-9.961-9.961-5.504 0-9.965 4.46-9.965 9.96 0 5.505 4.46 9.966 9.965 9.966 5.5 0 9.96-4.461 9.96-9.965zm0 0" fill="rgb(59.999084%,59.999084%,100%)"/></g><use xlink:href="#e" x="378.774" y="115.469" fill="rgb(0%,0%,0%)"/><use xlink:href="#b" x="384.514" y="115.469" fill="rgb(0%,0%,0%)"/><path d="M394.102 77.992c0-5.5-4.461-9.96-9.961-9.96-5.504 0-9.965 4.46-9.965 9.96 0 5.504 4.46 9.965 9.965 9.965 5.5 0 9.96-4.46 9.96-9.965zm0 0" fill="rgb(59.999084%,59.999084%,100%)"/><use xlink:href="#e" x="378.774" y="81.453" fill="rgb(0%,0%,0%)"/><use xlink:href="#c" x="384.514" y="81.453" fill="rgb(0%,0%,0%)"/><path d="M394.102 43.977c0-5.504-4.461-9.961-9.961-9.961-5.504 0-9.965 4.457-9.965 9.96 0 5.504 4.46 9.965 9.965 9.965 5.5 0 9.96-4.46 9.96-9.964zm0 0" fill="rgb(59.999084%,59.999084%,100%)"/><use xlink:href="#e" x="378.774" y="47.437" fill="rgb(0%,0%,0%)"/><use xlink:href="#f" x="384.514" y="47.437" fill="rgb(0%,0%,0%)"/><path d="M394.102 9.96c0-5.503-4.461-9.964-9.961-9.964-5.504 0-9.965 4.461-9.965 9.965s4.46 9.96 9.965 9.96c5.5 0 9.96-4.456 9.96-9.96zm0 0" fill="rgb(59.999084%,59.999084%,100%)"/><use xlink:href="#e" x="378.774" y="13.422" fill="rgb(0%,0%,0%)"/><use xlink:href="#g" x="384.514" y="13.422" fill="rgb(0%,0%,0%)"/><g clip-path="url(#j)"><path d="M496.152 60.984c0-5.5-4.46-9.96-9.964-9.96-5.5 0-9.961 4.46-9.961 9.96 0 5.504 4.46 9.965 9.96 9.965 5.504 0 9.965-4.46 9.965-9.965zm0 0" fill="rgb(100%,59.999084%,59.999084%)"/></g><use xlink:href="#h" x="483.767" y="63.131" fill="rgb(0%,0%,0%)"/><path d="M291.734 81.191l81.403 27.137" fill="none" stroke-width="0.3985" stroke="rgb(29.998779%,29.998779%,29.998779%)" stroke-miterlimit="10"/><path d="M372.508 106.437c-.094.598.66 1.797.914 1.985-.317 0-1.637.504-1.922 1.039" fill="none" stroke-width=".3187740605" stroke-linecap="round" stroke-linejoin="round" stroke="rgb(29.998779%,29.998779%,29.998779%)" stroke-miterlimit="10"/><path d="M292.254 77.977l80.289.003" fill="none" stroke-width="0.3985" stroke="rgb(29.998779%,29.998779%,29.998779%)" stroke-miterlimit="10"/><path d="M371.348 76.383c.097.597 1.195 1.496 1.492 1.597-.297.098-1.395.997-1.492 1.594" fill="none" stroke-width="0.31879" stroke-linecap="round" stroke-linejoin="round" stroke="rgb(29.998779%,29.998779%,29.998779%)" stroke-miterlimit="10"/><path d="M291.734 74.766l81.403-27.137" fill="none" stroke-width="0.3985" stroke="rgb(29.998779%,29.998779%,29.998779%)" stroke-miterlimit="10"/><path d="M371.5 46.496c.281.535 1.605 1.04 1.922 1.04-.254.187-1.008 1.386-.914 1.984" fill="none" stroke-width=".3187740605" stroke-linecap="round" stroke-linejoin="round" stroke="rgb(29.998779%,29.998779%,29.998779%)" stroke-miterlimit="10"/><path d="M290.547 72.34l83.945-55.961" fill="none" stroke-width="0.3985" stroke="rgb(29.998779%,29.998779%,29.998779%)" stroke-miterlimit="10"/><path d="M372.613 15.715c.414.441 1.824.582 2.13.496-.196.25-.61 1.605-.36 2.156" fill="none" stroke-width=".3187740605" stroke-linecap="round" stroke-linejoin="round" stroke="rgb(29.998779%,29.998779%,29.998779%)" stroke-miterlimit="10"/><path d="M290.55 49.594l83.942 55.965" fill="none" stroke-width="0.3985" stroke="rgb(29.998779%,29.998779%,29.998779%)" stroke-miterlimit="10"/><path d="M374.383 103.566c-.25.555.168 1.907.36 2.157-.306-.082-1.712.054-2.13.496" fill="none" stroke-width=".3187772484" stroke-linecap="round" stroke-linejoin="round" stroke="rgb(29.998779%,29.998779%,29.998779%)" stroke-miterlimit="10"/><path d="M291.734 47.168l81.403 27.137" fill="none" stroke-width="0.3985" stroke="rgb(29.998779%,29.998779%,29.998779%)" stroke-miterlimit="10"/><path d="M372.508 72.414c-.094.598.66 1.797.914 1.984-.317 0-1.637.504-1.922 1.04" fill="none" stroke-width=".3187740605" stroke-linecap="round" stroke-linejoin="round" stroke="rgb(29.998779%,29.998779%,29.998779%)" stroke-miterlimit="10"/><path d="M292.254 43.953l80.289.004" fill="none" stroke-width="0.3985" stroke="rgb(29.998779%,29.998779%,29.998779%)" stroke-miterlimit="10"/><path d="M371.348 42.36c.097.597 1.195 1.495 1.492 1.597-.297.098-1.395.996-1.492 1.594" fill="none" stroke-width="0.31879" stroke-linecap="round" stroke-linejoin="round" stroke="rgb(29.998779%,29.998779%,29.998779%)" stroke-miterlimit="10"/><path d="M291.734 40.742l81.403-27.137" fill="none" stroke-width="0.3985" stroke="rgb(29.998779%,29.998779%,29.998779%)" stroke-miterlimit="10"/><path d="M371.5 12.473c.281.535 1.605 1.039 1.922 1.039-.254.191-1.008 1.386-.914 1.984" fill="none" stroke-width=".3187740605" stroke-linecap="round" stroke-linejoin="round" stroke="rgb(29.998779%,29.998779%,29.998779%)" stroke-miterlimit="10"/><path d="M393.25 107.457l82.586-41.293" fill="none" stroke-width="0.3985" stroke="rgb(29.998779%,29.998779%,29.998779%)" stroke-miterlimit="10"/><path d="M474.055 65.273c.355.489 1.738.801 2.05.758-.222.223-.804 1.516-.625 2.094" fill="none" stroke-width=".3187644968" stroke-linecap="round" stroke-linejoin="round" stroke="rgb(29.998779%,29.998779%,29.998779%)" stroke-miterlimit="10"/><path d="M394.184 76.309l80.586-13.43" fill="none" stroke-width="0.3985" stroke="rgb(29.998779%,29.998779%,29.998779%)" stroke-miterlimit="10"/><path d="M473.328 61.5c.195.574 1.422 1.277 1.734 1.328-.277.149-1.21 1.211-1.21 1.817" fill="none" stroke-width=".31877087260000003" stroke-linecap="round" stroke-linejoin="round" stroke="rgb(29.998779%,29.998779%,29.998779%)" stroke-miterlimit="10"/><path d="M394.184 45.625l80.586 13.43" fill="none" stroke-width="0.3985" stroke="rgb(29.998779%,29.998779%,29.998779%)" stroke-miterlimit="10"/><path d="M473.852 57.29c0 .605.933 1.667 1.21 1.815-.312.051-1.539.754-1.734 1.329" fill="none" stroke-width=".31877087260000003" stroke-linecap="round" stroke-linejoin="round" stroke="rgb(29.998779%,29.998779%,29.998779%)" stroke-miterlimit="10"/><path d="M393.25 14.477l82.586 41.293" fill="none" stroke-width="0.3985" stroke="rgb(29.998779%,29.998779%,29.998779%)" stroke-miterlimit="10"/><path d="M475.48 53.809c-.175.582.403 1.87.625 2.093-.312-.043-1.695.27-2.05.758" fill="none" stroke-width=".3187740605" stroke-linecap="round" stroke-linejoin="round" stroke="rgb(29.998779%,29.998779%,29.998779%)" stroke-miterlimit="10"/><path d="M40.398 93.895H53.45v-7.196H40.4zm0 0" fill="rgb(100%,100%,100%)"/><use xlink:href="#k" x="42.392" y="91.904" fill="rgb(0%,0%,0%)"/><use xlink:href="#l" x="45.782" y="91.904" fill="rgb(0%,0%,0%)"/><use xlink:href="#m" x="48.065" y="91.904" fill="rgb(0%,0%,0%)"/><path d="M65.855 81.578h16.442v-7.195H65.855zm0 0" fill="rgb(100%,100%,100%)"/><use xlink:href="#k" x="67.848" y="79.585" fill="rgb(0%,0%,0%)"/><use xlink:href="#l" x="71.238" y="79.585" fill="rgb(0%,0%,0%)"/><g fill="rgb(0%,0%,0%)"><use xlink:href="#k" x="73.521" y="79.585"/><use xlink:href="#n" x="76.911" y="79.585"/></g><path d="M37.7 69.727h18.445V61.59H37.699zm0 0" fill="rgb(100%,100%,100%)"/><use xlink:href="#o" x="39.693" y="66.905" fill="rgb(0%,0%,0%)"/><use xlink:href="#k" x="45.089" y="66.905" fill="rgb(0%,0%,0%)"/><use xlink:href="#l" x="48.479" y="66.905" fill="rgb(0%,0%,0%)"/><use xlink:href="#p" x="50.762" y="66.905" fill="rgb(0%,0%,0%)"/><path d="M63.703 38.941H85.54v-8.136H63.703zm0 0" fill="rgb(100%,100%,100%)"/><use xlink:href="#o" x="65.695" y="36.12" fill="rgb(0%,0%,0%)"/><use xlink:href="#k" x="71.092" y="36.12" fill="rgb(0%,0%,0%)"/><use xlink:href="#l" x="74.482" y="36.12" fill="rgb(0%,0%,0%)"/><g fill="rgb(0%,0%,0%)"><use xlink:href="#m" x="76.765" y="36.12"/><use xlink:href="#n" x="80.155" y="36.12"/></g><path d="M66.402 90.66h16.442v-7.195H66.402zm0 0" fill="rgb(100%,100%,100%)"/><use xlink:href="#k" x="68.395" y="88.668" fill="rgb(0%,0%,0%)"/><use xlink:href="#l" x="71.785" y="88.668" fill="rgb(0%,0%,0%)"/><g fill="rgb(0%,0%,0%)"><use xlink:href="#n" x="74.068" y="88.668"/><use xlink:href="#n" x="77.458" y="88.668"/></g><path d="M40.398 59.875H53.45V52.68H40.4zm0 0" fill="rgb(100%,100%,100%)"/><use xlink:href="#k" x="42.392" y="57.882" fill="rgb(0%,0%,0%)"/><use xlink:href="#l" x="45.782" y="57.882" fill="rgb(0%,0%,0%)"/><use xlink:href="#q" x="48.065" y="57.882" fill="rgb(0%,0%,0%)"/><path d="M65.855 47.55h16.442v-7.195H65.855zm0 0" fill="rgb(100%,100%,100%)"/><use xlink:href="#k" x="67.848" y="45.561" fill="rgb(0%,0%,0%)"/><use xlink:href="#l" x="71.238" y="45.561" fill="rgb(0%,0%,0%)"/><g fill="rgb(0%,0%,0%)"><use xlink:href="#m" x="73.521" y="45.561"/><use xlink:href="#n" x="76.911" y="45.561"/></g><path d="M40.398 35.234H53.45V28.04H40.4zm0 0" fill="rgb(100%,100%,100%)"/><use xlink:href="#k" x="42.391" y="33.242" fill="rgb(0%,0%,0%)"/><use xlink:href="#l" x="45.781" y="33.242" fill="rgb(0%,0%,0%)"/><use xlink:href="#p" x="48.064" y="33.242" fill="rgb(0%,0%,0%)"/><path d="M142.281 97.215h13.047V90.02h-13.047zm0 0" fill="rgb(100%,100%,100%)"/><use xlink:href="#k" x="144.27" y="95.222" fill="rgb(0%,0%,0%)"/><use xlink:href="#l" x="147.661" y="95.222" fill="rgb(0%,0%,0%)"/><use xlink:href="#m" x="149.944" y="95.222" fill="rgb(0%,0%,0%)"/><path d="M167.969 70.883h16.437v-7.195H167.97zm0 0" fill="rgb(100%,100%,100%)"/><use xlink:href="#k" x="169.959" y="68.892" fill="rgb(0%,0%,0%)"/><use xlink:href="#l" x="173.349" y="68.892" fill="rgb(0%,0%,0%)"/><g fill="rgb(0%,0%,0%)"><use xlink:href="#n" x="175.632" y="68.892"/><use xlink:href="#n" x="179.022" y="68.892"/></g><path d="M142.598 53.734h13.05V46.54h-13.05zm0 0" fill="rgb(100%,100%,100%)"/><use xlink:href="#k" x="144.589" y="51.743" fill="rgb(0%,0%,0%)"/><use xlink:href="#l" x="147.979" y="51.743" fill="rgb(0%,0%,0%)"/><use xlink:href="#r" x="150.262" y="51.743" fill="rgb(0%,0%,0%)"/><path d="M168.27 45.758h16.437v-7.196H168.27zm0 0" fill="rgb(100%,100%,100%)"/><use xlink:href="#p" x="170.259" y="43.766" fill="rgb(0%,0%,0%)"/><use xlink:href="#l" x="173.649" y="43.766" fill="rgb(0%,0%,0%)"/><g fill="rgb(0%,0%,0%)"><use xlink:href="#m" x="175.933" y="43.766"/><use xlink:href="#n" x="179.323" y="43.766"/></g><g clip-path="url(#s)" fill="none" stroke-miterlimit="10"><path d="M290.758 90.297h19.273l1.133-.004 1.137-.031 1.133-.153 1.132-.52 1.133-1.21 1.133-1.875 1.137-1.656 1.133-.223 1.132 1.371 1.133 1.938 1.137 1.421 1.133.668 1.133.215 1.132.051 1.133.008h19.274-.696" stroke-width="2.59032" stroke="rgb(100%,100%,100%)"/><path d="M290.758 90.297h19.273l1.133-.004 1.137-.031 1.133-.153 1.132-.52 1.133-1.21 1.133-1.875 1.137-1.656 1.133-.223 1.132 1.371 1.133 1.938 1.137 1.421 1.133.668 1.133.215 1.132.051 1.133.008h19.274-.696" stroke-width="0.99628" stroke="rgb(100%,50%,0%)"/></g><g clip-path="url(#t)" fill="none" stroke-miterlimit="10"><path d="M317.91 77.98h18.14l1.134-.003 1.132-.008 1.133-.067 1.133-.265 1.137-.801 1.133-1.61 1.132-2.074 1.133-1.32 1.137.473 1.133 1.86 1.133 1.956 1.132 1.2 1.133.488 1.137.14 1.133.028 1.132.003h19.274-.695" stroke-width="2.59032" stroke="rgb(100%,100%,100%)"/><path d="M317.91 77.98h18.14l1.134-.003 1.132-.008 1.133-.067 1.133-.265 1.137-.801 1.133-1.61 1.132-2.074 1.133-1.32 1.137.473 1.133 1.86 1.133 1.956 1.132 1.2 1.133.488 1.137.14 1.133.028 1.132.003h19.274-.695" stroke-width="0.99628" stroke="rgb(100%,50%,0%)"/></g><g clip-path="url(#u)" fill="none" stroke-miterlimit="10"><path d="M290.758 65.66h18.14l1.133-.004 1.133-.023 1.133-.125 1.137-.473 1.132-1.222 1.133-2.098 1.133-2.192 1.137-.796 1.133 1.253 1.132 2.293 1.133 1.922L322.5 65.2l1.137.356 1.133.09 1.132.011 1.133.004h19.274-.696" stroke-width="2.59032" stroke="rgb(100%,100%,100%)"/><path d="M290.758 65.66h18.14l1.133-.004 1.133-.023 1.133-.125 1.137-.473 1.132-1.222 1.133-2.098 1.133-2.192 1.137-.796 1.133 1.253 1.132 2.293 1.133 1.922L322.5 65.2l1.137.356 1.133.09 1.132.011 1.133.004h19.274-.696" stroke-width="0.99628" stroke="rgb(100%,50%,0%)"/></g><g clip-path="url(#v)" fill="none" stroke-miterlimit="10"><path d="M318.457 34.875h18.14l1.133-.008 1.133-.054 1.133-.254 1.137-.825 1.133-1.843 1.132-2.676 1.133-2.14 1.133-.02 1.137 2.14 1.133 2.676 1.132 1.852 1.133.832 1.137.258 1.133.054 1.133.008h20.406-.695" stroke-width="2.59032" stroke="rgb(100%,100%,100%)"/><path d="M318.457 34.875h18.14l1.133-.008 1.133-.054 1.133-.254 1.137-.825 1.133-1.843 1.132-2.676 1.133-2.14 1.133-.02 1.137 2.14 1.133 2.676 1.132 1.852 1.133.832 1.137.258 1.133.054 1.133.008h20.406-.695" stroke-width="0.99628" stroke="rgb(100%,50%,0%)"/></g><g clip-path="url(#w)" fill="none" stroke-miterlimit="10"><path d="M318.457 87.059H340l1.133-.02 1.133-.09 1.132-.34 1.137-.875 1.133-1.515 1.133-1.574 1.133-.57 1.132.902 1.137 1.652 1.133 1.379 1.133.722 1.133.254 1.136.063 1.133.012h18.137-.692" stroke-width="2.59032" stroke="rgb(100%,100%,100%)"/><path d="M318.457 87.059H340l1.133-.02 1.133-.09 1.132-.34 1.137-.875 1.133-1.515 1.133-1.574 1.133-.57 1.132.902 1.137 1.652 1.133 1.379 1.133.722 1.133.254 1.136.063 1.133.012h18.137-.692" stroke-width="0.99628" stroke="rgb(100%,50%,0%)"/></g><g clip-path="url(#x)" fill="none" stroke-miterlimit="10"><path d="M290.758 56.273h20.406l1.137-.003 1.133-.032 1.132-.144 1.133-.465 1.137-1.04 1.133-1.519 1.133-1.215 1.132-.003 1.133 1.207 1.137 1.515 1.133 1.051 1.133.469 1.132.144 1.137.032 1.133.003h18.137-.692" stroke-width="2.59032" stroke="rgb(100%,100%,100%)"/><path d="M290.758 56.273h20.406l1.137-.003 1.133-.032 1.132-.144 1.133-.465 1.137-1.04 1.133-1.519 1.133-1.215 1.132-.003 1.133 1.207 1.137 1.515 1.133 1.051 1.133.469 1.132.144 1.137.032 1.133.003h18.137-.692" stroke-width="0.99628" stroke="rgb(100%,50%,0%)"/></g><g clip-path="url(#y)" fill="none" stroke-miterlimit="10"><path d="M317.91 43.953h20.406l1.133-.008 1.133-.054 1.137-.223 1.133-.637 1.132-1.222 1.133-1.47 1.137-.808 1.133.496 1.133 1.399 1.132 1.344 1.133.78 1.137.305 1.133.083 1.132.015h19.274-.695" stroke-width="2.59032" stroke="rgb(100%,100%,100%)"/><path d="M317.91 43.953h20.406l1.133-.008 1.133-.054 1.137-.223 1.133-.637 1.132-1.222 1.133-1.47 1.137-.808 1.133.496 1.133 1.399 1.132 1.344 1.133.78 1.137.305 1.133.083 1.132.015h19.274-.695" stroke-width="0.99628" stroke="rgb(100%,50%,0%)"/></g><g clip-path="url(#z)" fill="none" stroke-miterlimit="10"><path d="M290.758 31.637h19.273l1.133-.004 1.133-.02 1.137-.097 1.132-.348 1.133-.86 1.133-1.398 1.133-1.351 1.137-.344 1.132.937 1.133 1.493 1.133 1.164 1.137.578 1.133.195 1.132.047 1.133.008h19.274-.696" stroke-width="2.59032" stroke="rgb(100%,100%,100%)"/><path d="M290.758 31.637h19.273l1.133-.004 1.133-.02 1.137-.097 1.132-.348 1.133-.86 1.133-1.398 1.133-1.351 1.137-.344 1.132.937 1.133 1.493 1.133 1.164 1.137.578 1.133.195 1.132.047 1.133.008h19.274-.696" stroke-width="0.99628" stroke="rgb(100%,50%,0%)"/></g><g clip-path="url(#A)" fill="none" stroke-miterlimit="10"><path d="M392.64 93.617h19.274l1.133-.004 1.133-.031 1.132-.152 1.133-.516 1.137-1.215 1.133-1.875 1.133-1.656 1.132-.223 1.137 1.371 1.133 1.942 1.133 1.418 1.133.668 1.132.219 1.137.046 1.133.008h19.273-.695" stroke-width="2.59032" stroke="rgb(100%,100%,100%)"/><path d="M392.64 93.617h19.274l1.133-.004 1.133-.031 1.132-.152 1.133-.516 1.137-1.215 1.133-1.875 1.133-1.656 1.132-.223 1.137 1.371 1.133 1.942 1.133 1.418 1.133.668 1.132.219 1.137.046 1.133.008h19.273-.695" stroke-width="0.99628" stroke="rgb(100%,50%,0%)"/></g><g clip-path="url(#B)" fill="none" stroke-miterlimit="10"><path d="M420.023 67.285h21.54l1.132-.02 1.133-.09 1.137-.34 1.133-.874 1.132-1.516 1.133-1.574 1.137-.57 1.133.902 1.133 1.652 1.132 1.38 1.133.722 1.137.254 1.133.062 1.133.012h18.14-.695" stroke-width="2.59032" stroke="rgb(100%,100%,100%)"/><path d="M420.023 67.285h21.54l1.132-.02 1.133-.09 1.137-.34 1.133-.874 1.132-1.516 1.133-1.574 1.137-.57 1.133.902 1.133 1.652 1.132 1.38 1.133.722 1.137.254 1.133.062 1.133.012h18.14-.695" stroke-width="0.99628" stroke="rgb(100%,50%,0%)"/></g><g clip-path="url(#C)" fill="none" stroke-miterlimit="10"><path d="M392.957 50.137h21.54l1.132-.004 1.137-.008 1.132-.05 1.133-.22 1.133-.617 1.137-1.183 1.133-1.426 1.132-.781 1.133.476 1.133 1.356 1.137 1.304 1.133.762 1.132.293 1.133.078 1.137.016 1.133.004h15.87-.695" stroke-width="2.59032" stroke="rgb(100%,100%,100%)"/><path d="M392.957 50.137h21.54l1.132-.004 1.137-.008 1.132-.05 1.133-.22 1.133-.617 1.137-1.183 1.133-1.426 1.132-.781 1.133.476 1.133 1.356 1.137 1.304 1.133.762 1.132.293 1.133.078 1.137.016 1.133.004h15.87-.695" stroke-width="0.99628" stroke="rgb(100%,50%,0%)"/></g><g clip-path="url(#D)" fill="none" stroke-miterlimit="10"><path d="M420.324 42.156h23.809l1.133-.004 1.132-.03 1.133-.138 1.133-.422 1.137-.902 1.133-1.234 1.132-.887 1.133.14 1.137 1.048 1.133 1.199 1.133.777 1.132.332 1.133.098 1.137.023h15.871-.695" stroke-width="2.59032" stroke="rgb(100%,100%,100%)"/><path d="M420.324 42.156h23.809l1.133-.004 1.132-.03 1.133-.138 1.133-.422 1.137-.902 1.133-1.234 1.132-.887 1.133.14 1.137 1.048 1.133 1.199 1.133.777 1.132.332 1.133.098 1.137.023h15.871-.695" stroke-width="0.99628" stroke="rgb(100%,50%,0%)"/></g></svg>