<svg height="160.609" viewBox="0 0 423.341 120.457" width="564.455" xmlns="http://www.w3.org/2000/svg" xmlns:xlink="http://www.w3.org/1999/xlink"><symbol id="a" overflow="visible"><path d="m1.328-.828c.531-.578.828-.828 1.188-1.14 0 0 .609-.532.968-.891.954-.922 1.172-1.407 1.172-1.454 0-.093-.093-.093-.11-.093-.077 0-.093.015-.155.11-.297.484-.5.64-.735.64-.25 0-.36-.156-.515-.328-.188-.22-.36-.422-.688-.422-.75 0-1.203.922-1.203 1.14 0 .047.031.11.11.11.093 0 .109-.047.14-.11.188-.468.766-.468.844-.468.203 0 .39.062.625.14.406.156.515.156.765.156-.359.422-1.187 1.141-1.375 1.297l-.906.844c-.672.672-1.031 1.234-1.031 1.313 0 .093.11.093.125.093.078.001.093-.015.156-.125.235-.359.531-.625.86-.625.218 0 .328.094.578.375.156.22.343.375.625.375 1 0 1.578-1.265 1.578-1.53 0-.048-.047-.11-.125-.11-.094 0-.11.062-.14.14-.235.641-.876.829-1.204.829-.188 0-.375-.063-.578-.125-.344-.125-.5-.172-.703-.172-.016 0-.172 0-.266.03zm0 0"/></symbol><symbol id="b" overflow="visible"><path d="m3.656-3.984h.86c.203 0 .296 0 .296-.204 0-.109-.093-.109-.265-.109h-.828l.203-1.14c.047-.204.187-.907.25-1.032.078-.187.25-.343.469-.343.03 0 .296 0 .484.187a.557.557 0 0 0 -.547.531c0 .235.188.36.375.36.266 0 .547-.235.547-.61 0-.453-.453-.687-.86-.687-.343 0-.968.187-1.265 1.172-.063.203-.094.312-.328 1.562h-.688c-.203 0-.312 0-.312.188 0 .125.094.125.281.125h.656l-.734 3.937c-.188.969-.36 1.875-.875 1.875-.047 0-.281 0-.484-.187.468-.032.562-.391.562-.532 0-.234-.187-.359-.375-.359-.266 0-.547.234-.547.61 0 .437.438.687.844.687.547 0 .953-.594 1.125-.969.328-.625.547-1.828.563-1.906zm0 0"/></symbol><symbol id="c" overflow="visible"><path d="m.453 1.219c-.078.343-.11.406-.547.406-.11 0-.218 0-.218.188 0 .078.046.125.124.125.266 0 .563-.032.829-.032.343 0 .671.032 1 .032.046 0 .171 0 .171-.204 0-.109-.093-.109-.234-.109-.5 0-.5-.063-.5-.156 0-.125.422-1.75.484-2 .125.297.407.64.922.64 1.157 0 2.407-1.453 2.407-2.921 0-.938-.579-1.594-1.329-1.594-.5 0-.984.36-1.312.75-.094-.547-.531-.75-.89-.75-.47 0-.657.39-.735.562-.188.344-.313.938-.313.969 0 .11.094.11.11.11.11 0 .11-.016.172-.235.172-.703.375-1.188.734-1.188.172 0 .313.079.313.454 0 .234-.032.343-.079.515zm1.75-4.328c.063-.266.344-.547.516-.704.36-.296.64-.374.812-.374.39 0 .64.343.64.937s-.327 1.734-.515 2.11c-.344.702-.812 1.03-1.187 1.03-.656 0-.781-.828-.781-.89 0-.016 0-.031.03-.156zm0 0"/></symbol><symbol id="d" overflow="visible"><path d="m3.594-2.219c0-.765-.094-1.328-.406-1.812-.22-.313-.657-.594-1.204-.594-1.624 0-1.624 1.906-1.624 2.406s0 2.36 1.625 2.36c1.61 0 1.61-1.86 1.61-2.36zm-1.61 2.156c-.328 0-.75-.187-.89-.75-.094-.406-.094-.983-.094-1.5 0-.515 0-1.046.094-1.421.156-.547.593-.704.89-.704.375 0 .735.235.86.641.11.375.125.875.125 1.485 0 .515 0 1.03-.094 1.468-.14.64-.61.781-.89.781zm0 0"/></symbol><symbol id="e" overflow="visible"><path d="m2.328-4.438c0-.187 0-.187-.203-.187-.453.438-1.078.438-1.36.438v.25c.157 0 .626 0 1-.188v3.547c0 .234 0 .328-.687.328h-.266v.25c.125 0 .985-.031 1.235-.031.219 0 1.094.031 1.25.031v-.25h-.267c-.703 0-.703-.094-.703-.328zm0 0"/></symbol><symbol id="f" overflow="visible"><path d="m3.219-1.578h2.14c.094 0 .25 0 .25-.156 0-.188-.156-.188-.25-.188h-2.139v-2.14c0-.079 0-.25-.156-.25-.172 0-.172.156-.172.25v2.14h-2.142c-.094 0-.266 0-.266.172s.157.172.266.172h2.14v2.14c0 .094 0 .266.157.266.172 0 .172-.172.172-.265zm0 0"/></symbol><symbol id="g" overflow="visible"><path d="m3.297 2.39c0-.03 0-.046-.172-.218-1.234-1.25-1.563-3.14-1.563-4.672 0-1.734.375-3.469 1.61-4.703.125-.125.125-.14.125-.172 0-.078-.031-.11-.094-.11-.11 0-1 .688-1.594 1.954-.499 1.093-.625 2.203-.625 3.031 0 .781.11 1.984.657 3.125.609 1.219 1.453 1.875 1.562 1.875.063 0 .094-.031.094-.11zm0 0"/></symbol><symbol id="h" overflow="visible"><path d="m2.875-2.5c0-.766-.11-1.969-.656-3.11-.594-1.217-1.453-1.873-1.547-1.873a.107.107 0 0 0 -.11.109c0 .031 0 .047.188.234.984.985 1.547 2.563 1.547 4.641 0 1.719-.36 3.469-1.594 4.719-.14.125-.14.14-.14.172 0 .062.046.109.109.109.094 0 1-.688 1.578-1.953.516-1.094.625-2.203.625-3.047zm0 0"/></symbol><symbol id="i" overflow="visible"><path d="m2.266-4.36a.276.276 0 0 0 -.282-.265c-.187 0-.39.188-.39.39 0 .11.078.266.281.266.188 0 .39-.203.39-.39zm-1.422 3.549c-.031.091-.064.17-.064.295 0 .329.266.579.656.579.688 0 1-.954 1-1.063 0-.094-.093-.094-.109-.094-.094 0-.11.047-.14.125-.157.563-.454.844-.735.844-.14 0-.172-.094-.172-.25s.047-.281.11-.438c.078-.187.156-.375.218-.562.063-.172.329-.797.344-.89a.5.5 0 0 0 .048-.221c0-.328-.281-.593-.656-.593-.704.001-1.016.954-1.016 1.079 0 .078.094.078.125.078.094 0 .094-.031.125-.11.172-.593.485-.843.735-.843.109 0 .171.047.171.234 0 .172-.03.266-.203.704zm0 0"/></symbol><symbol id="j" overflow="visible"><path d="m2.188-4.625c0-.016.015-.11.015-.11 0-.046-.015-.109-.11-.109-.14 0-.718.063-.89.078-.047 0-.156.016-.156.157 0 .093.11.093.187.093.329 0 .329.063.329.11s-.016.093-.016.156l-.984 3.938c-.047.124-.047.14-.047.156 0 .11.093.218.25.218.187 0 .265-.124.312-.28.016-.032.313-1.266.344-1.36.5.047.89.219.89.578 0 .031 0 .063-.015.14-.031.094-.031.141-.031.22 0 .484.406.703.75.703.671 0 .875-1.047.875-1.063 0-.094-.079-.094-.11-.094-.094 0-.11.047-.14.172-.079.297-.266.797-.61.797-.187 0-.25-.172-.25-.36 0-.124 0-.14.047-.312a.724.724 0 0 0 .031-.219c0-.625-.828-.718-1.125-.734.204-.125.454-.36.579-.469.359-.328.703-.656 1.093-.656.078 0 .172.016.235.094a.396.396 0 0 0 -.36.39c0 .141.11.25.266.25.203 0 .406-.156.406-.437a.5.5 0 0 0 -.531-.5c-.406 0-.766.297-1.125.625-.297.265-.516.484-.813.61zm0 0"/></symbol><symbol id="k" overflow="visible"><path d="m2.36-.781a.784.784 0 0 0 -.782-.781.78.78 0 0 0 -.766.78.774.774 0 1 0 1.547 0zm0 0"/></symbol><symbol id="l" overflow="visible"><path d="m5.188-1.578c.109 0 .28 0 .28-.156 0-.188-.171-.188-.28-.188h-4.158c-.11 0-.281 0-.281.172s.156.172.281.172zm0 0"/></symbol><symbol id="m" overflow="visible"><path d="m8.219-3.906c.172 0 .406 0 .406-.235 0-.25-.234-.25-.406-.25h-7.156c-.172 0-.391 0-.391.25 0 .235.219.235.406.235zm0 2.312c.172 0 .406 0 .406-.234s-.234-.234-.406-.234h-7.14c-.188 0-.407 0-.407.234s.219.234.39.234zm0 0"/></symbol><symbol id="n" overflow="visible"><path d="m4-3.61c.063-.312.344-1.406 1.172-1.406.062 0 .344 0 .594.157a.678.678 0 0 0 -.563.64c0 .188.125.422.453.422.266 0 .64-.219.64-.703 0-.61-.702-.781-1.109-.781-.687 0-1.109.625-1.25.906-.296-.781-.953-.906-1.296-.906-1.235 0-1.922 1.547-1.922 1.843 0 .11.125.11.14.11.094 0 .125-.016.157-.125.406-1.266 1.203-1.563 1.609-1.563.219 0 .64.11.64.797 0 .375-.203 1.172-.64 2.844-.203.734-.61 1.25-1.14 1.25-.079 0-.344 0-.594-.156.296-.063.562-.313.562-.656 0-.313-.266-.407-.453-.407-.36 0-.656.297-.656.688 0 .547.594.781 1.125.781.797 0 1.218-.828 1.25-.906.156.453.578.906 1.297.906 1.234 0 1.906-1.531 1.906-1.828 0-.125-.094-.125-.14-.125-.11 0-.126.047-.157.125-.39 1.281-1.203 1.578-1.578 1.578-.469 0-.672-.39-.672-.797 0-.265.078-.531.203-1.047zm0 0"/></symbol><symbol id="o" overflow="visible"><path d="m7.203-3.328c0-.219-.062-.328-.14-.328-.047 0-.141.078-.141.265-.047.954-.703 1.5-1.406 1.5-.625 0-1.094-.421-1.594-.843-.5-.47-1.016-.922-1.703-.922-1.078 0-1.672 1.094-1.672 2 0 .328.125.328.14.328.11 0 .141-.203.141-.234.047-1.094.781-1.532 1.39-1.532.626 0 1.11.422 1.595.844.515.469 1.03.922 1.703.922 1.093 0 1.687-1.094 1.687-2zm0 0"/></symbol><clipPath id="p"><path d="m340 23h83.34v92h-83.34zm0 0"/></clipPath><clipPath id="q"><path d="m340 32h83.34v66h-83.34zm0 0"/></clipPath><path d="m10.96.002c0 6.05-4.906 10.957-10.96 10.957-6.052 0-10.958-4.906-10.958-10.957 0-6.055 4.906-10.962 10.958-10.962 6.054 0 10.96 4.907 10.96 10.96zm0 0" fill="#e5e5e5" stroke="#f00" stroke-miterlimit="10" stroke-width="1.19553" transform="matrix(1 0 0 -1 36.075 17.201)"/><use x="31.523" xlink:href="#a" y="18.599"/><use x="36.157" xlink:href="#d" y="20.093"/><path d="m126.84 17.2c0-6.052-4.906-10.958-10.957-10.958-6.055 0-10.961 4.906-10.961 10.957 0 6.055 4.906 10.961 10.96 10.961 6.052 0 10.958-4.906 10.958-10.96zm0 0" fill="#e5e5e5"/><use x="111.33" xlink:href="#a" y="18.599"/><use x="115.963" xlink:href="#e" y="20.093"/><path d="m14.546.002h49.758" fill="none" stroke="#000" stroke-miterlimit="10" stroke-width="1.19553" transform="matrix(1 0 0 -1 36.075 17.201)"/><path d="m-1.911 2.549c.156-.953 1.91-2.391 2.39-2.547-.479-.16-2.234-1.598-2.389-2.552" style="fill:none;stroke-width:.9564;stroke-linecap:round;stroke-linejoin:round;stroke:#000;stroke-miterlimit:10" transform="matrix(1 0 0 -1 100.38 17.201)"/><use x="62.879" xlink:href="#b" y="10.792"/><use x="67.756" xlink:href="#e" y="12.287"/><use x="72.226" xlink:href="#g" y="10.792"/><use x="76.1" xlink:href="#a" y="10.792"/><use x="80.733" xlink:href="#d" y="12.287"/><use x="85.202" xlink:href="#h" y="10.792"/><path d="m220.82 17.2c0-6.052-4.906-10.958-10.957-10.958-6.054 0-10.96 4.906-10.96 10.957 0 6.055 4.906 10.961 10.96 10.961 6.051 0 10.957-4.906 10.957-10.96zm0 0" fill="#e5e5e5"/><use x="205.885" xlink:href="#a" y="18.599"/><use x="210.518" xlink:href="#i" y="20.093"/><path d="m300.629 17.2c0-6.052-4.906-10.958-10.957-10.958-6.055 0-10.961 4.906-10.961 10.957 0 6.055 4.906 10.961 10.96 10.961 6.052 0 10.958-4.906 10.958-10.96zm0 0" fill="#e5e5e5"/><use x="280.648" xlink:href="#a" y="18.184"/><use x="285.281" xlink:href="#i" y="19.678"/><g><use x="288.1" xlink:href="#f" y="19.678"/><use x="294.216" xlink:href="#e" y="19.678"/></g><path d="m188.331.002h49.762" fill="none" stroke="#000" stroke-miterlimit="10" stroke-width="1.19553" transform="matrix(1 0 0 -1 36.075 17.201)"/><path d="m-1.914 2.549c.16-.953 1.914-2.391 2.39-2.547-.476-.16-2.229-1.598-2.389-2.552" style="fill:none;stroke-width:.9564;stroke-linecap:round;stroke-linejoin:round;stroke:#000;stroke-miterlimit:10" transform="matrix(1 0 0 -1 274.168 17.201)"/><use x="232.773" xlink:href="#b" y="10.792"/><use x="237.651" xlink:href="#i" y="12.287"/><g><use x="240.469" xlink:href="#f" y="12.287"/><use x="246.585" xlink:href="#e" y="12.287"/></g><use x="251.055" xlink:href="#g" y="10.792"/><use x="254.929" xlink:href="#a" y="10.792"/><use x="259.562" xlink:href="#i" y="12.287"/><use x="262.879" xlink:href="#h" y="10.792"/><path d="m112.812.002h45.472" fill="none" stroke="#000" stroke-miterlimit="10" stroke-width="1.19553" transform="matrix(1 0 0 -1 36.075 17.201)"/><path d="m-1.912 2.549c.16-.953 1.91-2.391 2.39-2.547-.48-.16-2.23-1.598-2.39-2.551" style="fill:none;stroke-width:.9564;stroke-linecap:round;stroke-linejoin:round;stroke:#000;stroke-miterlimit:10" transform="matrix(1 0 0 -1 194.361 17.201)"/><use x="131.138" xlink:href="#k" y="17.976"/><use x="136.233" xlink:href="#k" y="17.976"/><use x="141.318" xlink:href="#k" y="17.976"/><use x="145.825" xlink:href="#b" y="10.792"/><use x="150.703" xlink:href="#i" y="12.287"/><use x="154.019" xlink:href="#g" y="10.792"/><use x="157.894" xlink:href="#a" y="10.792"/><use x="162.527" xlink:href="#i" y="12.287"/><use x="165.346" xlink:href="#l" y="12.287"/><use x="171.572" xlink:href="#e" y="12.287"/><use x="176.042" xlink:href="#h" y="10.792"/><path d="m358.534.002c0 6.05-4.906 10.957-10.957 10.957-6.054 0-10.96-4.906-10.96-10.957 0-6.055 4.906-10.961 10.96-10.961 6.051 0 10.957 4.906 10.957 10.96zm0 0" fill="#e5e5e5" stroke="#00b200" stroke-miterlimit="10" stroke-width="1.19553" transform="matrix(1 0 0 -1 36.075 17.201)"/><use x="378.878" xlink:href="#a" y="18.599"/><use x="383.512" xlink:href="#j" y="20.093"/><path d="m286.6.002h45.473" fill="none" stroke="#000" stroke-miterlimit="10" stroke-width="1.19553" transform="matrix(1 0 0 -1 36.075 17.201)"/><path d="m-1.915 2.549c.16-.953 1.915-2.391 2.395-2.547-.48-.16-2.234-1.598-2.395-2.552" style="fill:none;stroke-width:.9564;stroke-linecap:round;stroke-linejoin:round;stroke:#000;stroke-miterlimit:10" transform="matrix(1 0 0 -1 368.149 17.201)"/><use x="304.924" xlink:href="#k" y="17.976"/><use x="310.019" xlink:href="#k" y="17.976"/><use x="315.104" xlink:href="#k" y="17.976"/><use x="318.026" xlink:href="#b" y="10.792"/><use x="322.903" xlink:href="#j" y="12.287"/><use x="327.805" xlink:href="#g" y="10.792"/><use x="331.679" xlink:href="#a" y="10.792"/><use x="336.313" xlink:href="#j" y="12.287"/><use x="340.716" xlink:href="#l" y="12.287"/><use x="346.943" xlink:href="#e" y="12.287"/><use x="351.412" xlink:href="#h" y="10.792"/><use x="399.904" xlink:href="#m" y="19.775"/><use x="412.524" xlink:href="#n" y="19.775"/><g fill="none" stroke-miterlimit="10"><path d="m34.015 11.34c0 18.785-15.227 34.016-34.016 34.016-18.785 0-34.015-15.23-34.015-34.016 0-18.789 15.23-34.02 34.015-34.02 18.79 0 34.016 15.231 34.016 34.02zm0 0" stroke="#000" stroke-dasharray="2.29143 1.99255" stroke-width=".79701" transform="matrix(1 0 0 -1 37.735 80.18)"/><path d="m-28.348 0h1.453l1.453.008 1.457.012 1.453.031 1.453.063 1.453.12 1.454.231 1.453.406 1.453.684 1.453 1.082 1.453 1.598 1.453 2.215 1.453 2.87 1.454 3.466 1.453 3.848 1.454 3.895 1.453 3.515 1.453 2.672 1.453 1.453 1.453.004 1.453-1.437 1.457-2.66 1.453-3.508 1.454-3.899 1.453-3.847 1.451-3.472 1.453-2.874 1.453-2.223 1.454-1.603 1.453-1.082 1.453-.688 1.454-.41 1.453-.234 1.453-.121 1.453-.065 1.453-.027 1.453-.016 2.906-.007" stroke="#009" stroke-width="1.19553" transform="matrix(1 0 0 -1 37.735 80.18)"/><path d="m-28.348 0h55.988" stroke="#000" stroke-width=".79701" transform="matrix(1 0 0 -1 37.735 80.18)"/><path d="m-1.554 2.07c.129-.776 1.554-1.94 1.941-2.07-.386-.129-1.812-1.297-1.941-2.074" stroke="#000" stroke-linecap="round" stroke-linejoin="round" stroke-width=".6376" transform="matrix(1 0 0 -1 65.374 80.18)"/><path d="m0-14.172v48.899" stroke="#000" stroke-width=".79701" transform="matrix(1 0 0 -1 37.735 80.18)"/><path d="m-1.554 2.07c.129-.775 1.555-1.94 1.941-2.07-.386-.128-1.812-1.296-1.94-2.074" stroke="#000" stroke-linecap="round" stroke-linejoin="round" stroke-width=".6376" transform="matrix(0 -1 -1 0 37.735 45.454)"/></g><use x="11.715" xlink:href="#a" y="114.646"/><use x="16.348" xlink:href="#d" y="116.14"/><use x="23.585" xlink:href="#o" y="114.646"/><use x="34.101" xlink:href="#c" y="114.646"/><use x="39.114" xlink:href="#d" y="116.14"/><use x="43.583" xlink:href="#g" y="114.646"/><use x="47.457" xlink:href="#a" y="114.646"/><use x="52.09" xlink:href="#d" y="116.14"/><use x="56.56" xlink:href="#h" y="114.646"/><path d="m34.018 11.34c0 18.785-15.23 34.016-34.02 34.016-18.785 0-34.015-15.23-34.015-34.016 0-18.789 15.23-34.02 34.016-34.02 18.789 0 34.02 15.231 34.02 34.02zm0 0" fill="none" stroke="#000" stroke-dasharray="2.29143 1.99255" stroke-miterlimit="10" stroke-width=".79701" transform="matrix(1 0 0 -1 211.521 80.18)"/><path d="m-28.345.106.82.176.82.41.82.836.825 1.52.82 2.456.82 3.465.825 4.262.82 4.422.82 3.648.82 1.969.825-.27.82-2.347.82-3.754.82-4.184.825-3.734.82-2.727.82-1.586.825-.578.82.207.82.758.82 1.145.825 1.445.82 1.683.82 1.887.821 2.05.824 2.173.82 2.219.82 2.207.825 2.109.82 1.93.82 1.664.821 1.328.824.926.82.472.82.004.825-.469.82-.91.82-1.316.821-1.66.824-1.926.82-2.106.82-2.207.821-2.21.824-2.145.82-1.984.821-1.723.824-1.332.82-.766.82-.023.821.86.824 1.69 1.641 4.493.82 1.57.825.328.82-1.117.82-2.34.824-3.008.82-3.03.821-2.563.82-1.883.825-1.211.82-.691.82-.352.824-.16.82-.067.821-.023.82-.016h.825" fill="none" stroke="#009" stroke-miterlimit="10" stroke-width="1.19553" transform="matrix(1 0 0 -1 211.521 80.18)"/><path d="m-28.345 0h55.984" fill="none" stroke="#000" stroke-miterlimit="10" stroke-width=".79701" transform="matrix(1 0 0 -1 211.521 80.18)"/><path d="m-1.555 2.07c.129-.776 1.555-1.94 1.945-2.07-.39-.129-1.816-1.297-1.945-2.074" style="fill:none;stroke-width:.6376;stroke-linecap:round;stroke-linejoin:round;stroke:#000;stroke-miterlimit:10" transform="matrix(1 0 0 -1 239.16 80.18)"/><path d="m-.001-14.172v48.899" fill="none" stroke="#000" stroke-miterlimit="10" stroke-width=".79701" transform="matrix(1 0 0 -1 211.521 80.18)"/><path d="m-1.554 2.072c.129-.778 1.555-1.942 1.941-2.07-.386-.133-1.812-1.297-1.94-2.075" style="fill:none;stroke-width:.6376;stroke-linecap:round;stroke-linejoin:round;stroke:#000;stroke-miterlimit:10" transform="matrix(0 -1 -1 0 211.521 45.454)"/><use x="187.23" xlink:href="#a" y="114.646"/><use x="191.863" xlink:href="#i" y="116.14"/><use x="197.947" xlink:href="#o" y="114.646"/><use x="208.463" xlink:href="#c" y="114.646"/><use x="213.475" xlink:href="#i" y="116.14"/><use x="216.792" xlink:href="#g" y="114.646"/><use x="220.667" xlink:href="#a" y="114.646"/><use x="225.3" xlink:href="#i" y="116.14"/><use x="228.617" xlink:href="#h" y="114.646"/><g clip-path="url(#p)"><path d="m34.014 11.34c0 18.785-15.226 34.016-34.015 34.016-18.785 0-34.016-15.23-34.016-34.016 0-18.789 15.23-34.02 34.016-34.02 18.789 0 34.015 15.231 34.015 34.02zm0 0" fill="none" stroke="#000" stroke-dasharray="2.29143 1.99255" stroke-miterlimit="10" stroke-width=".79701" transform="matrix(1 0 0 -1 385.306 80.18)"/></g><g clip-path="url(#q)"><path d="m-28.345.106.637.12.636.243.637.434.637.738.637 1.164.636 1.707.637 2.324.637 2.91.636 3.329.637 3.437.637 3.121.633 2.34.636 1.16.637-.187.637-1.532.637-2.582.636-3.199.637-3.36.637-3.073.636-2.485.637-1.707.637-.887.637-.093.636.605.637 1.188.637 1.597.636 1.82.637 1.81.637 1.57.637 1.097.636.461.637-.246.637-.902.636-1.446.637-1.793.637-1.906.637-1.84.636-1.601.637-1.262.637-.867.636-.438.637.02.637.539.637 1.121.636 1.79.637 2.507.637 3.23.637 3.844.636 4.207.637 4.176.637 3.715.636 2.742.637 1.445.637-.12.637-1.634.636-2.925.637-3.778.637-4.156.636-4.066.637-3.555.637-2.781.637-1.84.636-.848.637.113.637.961.636 1.633.637 2.035.637 2.086.637 1.801.636 1.176.637.328.637-.606.636-1.414.637-2.011.637-2.297.637-2.278.636-2.03.637-1.66.637-1.24.637-.859.636-.55.637-.328.637-.188.636-.094.637-.047.637-.023 1.273-.016h.637" fill="none" stroke="#009" stroke-miterlimit="10" stroke-width="1.19553" transform="matrix(1 0 0 -1 385.306 80.18)"/></g><path d="m-28.345 0h55.984" fill="none" stroke="#000" stroke-miterlimit="10" stroke-width=".79701" transform="matrix(1 0 0 -1 385.306 80.18)"/><path d="m-1.555 2.07c.13-.776 1.555-1.94 1.942-2.07-.387-.129-1.813-1.297-1.942-2.074" style="fill:none;stroke-width:.6376;stroke-linecap:round;stroke-linejoin:round;stroke:#000;stroke-miterlimit:10" transform="matrix(1 0 0 -1 412.945 80.18)"/><path d="m-.001-14.172v48.899" fill="none" stroke="#000" stroke-miterlimit="10" stroke-width=".79701" transform="matrix(1 0 0 -1 385.306 80.18)"/><path d="m-1.554 2.072c.129-.778 1.555-1.942 1.941-2.07-.386-.13-1.812-1.298-1.94-2.075" style="fill:none;stroke-width:.6376;stroke-linecap:round;stroke-linejoin:round;stroke:#000;stroke-miterlimit:10" transform="matrix(0 -1 -1 0 385.306 45.454)"/><use x="358.638" xlink:href="#a" y="114.646"/><use x="363.271" xlink:href="#j" y="116.14"/><use x="370.94" xlink:href="#o" y="114.646"/><use x="381.456" xlink:href="#c" y="114.646"/><use x="386.469" xlink:href="#j" y="116.14"/><use x="391.37" xlink:href="#g" y="114.646"/><use x="395.245" xlink:href="#a" y="114.646"/><use x="399.878" xlink:href="#j" y="116.14"/><use x="404.78" xlink:href="#h" y="114.646"/></svg>