<svg xmlns="http://www.w3.org/2000/svg" xmlns:xlink="http://www.w3.org/1999/xlink" width="531.635" height="165.923" viewBox="0 0 398.726 124.442"><defs><symbol overflow="visible" id="a"><path d="M1.516-.969c.515-.578.937-.953 1.53-1.5.72-.61 1.032-.906 1.204-1.094.828-.828 1.25-1.515 1.25-1.609 0-.094-.094-.094-.125-.094-.078 0-.11.047-.156.125-.313.516-.594.766-.907.766-.25 0-.375-.11-.609-.39-.25-.298-.453-.5-.797-.5-.875 0-1.406 1.077-1.406 1.327 0 .047.016.11.125.11.094 0 .11-.047.14-.125.204-.485.782-.563 1-.563.266 0 .5.079.75.188.454.187.641.187.766.187h.188c-.39.454-1.032 1.032-1.578 1.516L1.687-1.5C.954-.766.516-.062.516.031c0 .063.062.094.125.094.078 0 .093-.016.171-.156.188-.297.579-.75 1.016-.75.25 0 .375.094.61.39.234.266.437.516.812.516 1.172 0 1.844-1.531 1.844-1.797 0-.047-.016-.125-.14-.125-.095 0-.095.047-.141.172-.266.703-.97.984-1.438.984-.25 0-.484-.078-.734-.187-.485-.188-.61-.188-.766-.188-.125 0-.25 0-.36.047zm0 0"/></symbol><symbol overflow="visible" id="d"><path d="M5.328-4.813c.234 0 .344 0 .344-.218 0-.125-.11-.125-.313-.125h-.968c.218-1.235.39-2.078.484-2.453.078-.297.328-.563.64-.563.25 0 .5.11.61.219-.453.047-.61.39-.61.594 0 .234.188.375.407.375.25 0 .61-.204.61-.657 0-.5-.5-.78-1.032-.78-.516 0-1.016.39-1.25.858-.219.422-.344.844-.61 2.407h-.812c-.219 0-.344 0-.344.218 0 .125.079.125.313.125h.765C3.345-3.688 2.86-.983 2.579.282c-.203 1.047-.375 1.922-.969 1.922-.046 0-.39 0-.609-.234.61-.047.61-.563.61-.578 0-.25-.173-.391-.407-.391a.627.627 0 0 0-.594.656c0 .516.532.782 1 .782 1.22 0 1.72-2.188 1.844-2.782.219-.922.797-4.11.86-4.468zm0 0"/></symbol><symbol overflow="visible" id="i"><path d="M2.203-.578a.586.586 0 0 0-.578-.578.576.576 0 0 0-.578.578c0 .344.281.578.562.578a.59.59 0 0 0 .594-.578zm0 0"/></symbol><symbol overflow="visible" id="n"><path d="M.516 1.516c-.079.359-.141.453-.625.453-.141 0-.266 0-.266.234 0 .016.016.11.14.11.157 0 .329-.016.485-.016h.516c.25 0 .859.015 1.109.015.078 0 .219 0 .219-.203 0-.14-.078-.14-.281-.14-.563 0-.594-.078-.594-.172 0-.14.531-2.203.61-2.484.124.343.452.812 1.077.812C4.25.125 5.72-1.641 5.72-3.391c0-1.109-.625-1.875-1.516-1.875-.766 0-1.422.735-1.547.907a1.037 1.037 0 0 0-1.047-.907c-.343 0-.625.157-.843.61-.22.437-.391 1.172-.391 1.218 0 .047.063.11.14.11.094 0 .11-.016.172-.297.188-.703.407-1.406.891-1.406.281 0 .375.187.375.547 0 .28-.047.406-.094.625zm2.062-5.25c.094-.329.422-.672.61-.844.14-.125.53-.453.984-.453.531 0 .766.531.766 1.14 0 .579-.329 1.938-.641 2.547C4-.687 3.453-.125 2.907-.125c-.813 0-.954-1.016-.954-1.063 0-.046.031-.14.047-.203zm0 0"/></symbol><symbol overflow="visible" id="b"><path d="M3.89-2.547c0-.844-.078-1.36-.343-1.875-.344-.703-1-.875-1.438-.875-1 0-1.375.75-1.484.969C.344-3.75.328-2.953.328-2.547c0 .531.016 1.328.406 1.969.36.594.954.75 1.375.75.391 0 1.063-.125 1.47-.906.296-.579.312-1.297.312-1.813zM2.11-.062c-.266 0-.813-.126-.985-.954-.094-.453-.094-1.203-.094-1.625 0-.546 0-1.109.094-1.546.172-.813.781-.891.984-.891.266 0 .829.14.985.86.094.437.094 1.046.094 1.577 0 .47 0 1.188-.094 1.641-.172.828-.719.938-.985.938zm0 0"/></symbol><symbol overflow="visible" id="c"><path d="M2.5-5.078c0-.219-.016-.219-.234-.219-.329.313-.75.5-1.5.5v.266c.218 0 .64 0 1.109-.203v4.078c0 .297-.031.39-.781.39H.812V0c.329-.031 1.016-.031 1.375-.031.36 0 1.047 0 1.376.031v-.266H3.28c-.75 0-.781-.093-.781-.39zm0 0"/></symbol><symbol overflow="visible" id="h"><path d="M3.469-1.813h2.344c.109 0 .296 0 .296-.171 0-.188-.187-.188-.296-.188H3.469v-2.36c0-.109 0-.28-.172-.28-.188 0-.188.171-.188.28v2.36H.75c-.11 0-.281 0-.281.188 0 .171.172.171.281.171h2.36v2.36c0 .11 0 .281.187.281.172 0 .172-.172.172-.281zm0 0"/></symbol><symbol overflow="visible" id="e"><path d="M3.89 2.906c0-.031 0-.062-.203-.265C2.484 1.437 1.813-.531 1.813-2.97c0-2.328.562-4.328 1.953-5.734.125-.11.125-.125.125-.172 0-.063-.063-.094-.11-.094-.156 0-1.14.86-1.719 2.031-.609 1.22-.89 2.485-.89 3.97 0 1.062.172 2.484.781 3.75C2.672 2.218 3.641 3 3.781 3c.047 0 .11-.031.11-.094zm0 0"/></symbol><symbol overflow="visible" id="f"><path d="M3.375-2.969c0-.922-.125-2.39-.797-3.781C1.875-8.188.891-8.969.766-8.969c-.047 0-.11.031-.11.094 0 .047 0 .063.203.266 1.204 1.203 1.86 3.187 1.86 5.625 0 2.312-.563 4.312-1.938 5.718-.125.11-.125.141-.125.172 0 .063.063.094.11.094.156 0 1.14-.86 1.718-2.031.61-1.219.891-2.516.891-3.938zm0 0"/></symbol><symbol overflow="visible" id="g"><path d="M2.375-4.969a.304.304 0 0 0-.313-.312c-.203 0-.437.203-.437.437 0 .172.125.297.313.297.203 0 .437-.187.437-.422zM1.219-2.047L.78-.953a.927.927 0 0 0-.078.36c0 .39.297.671.719.671.781 0 1.11-1.11 1.11-1.219 0-.078-.063-.109-.126-.109-.094 0-.11.063-.14.14-.172.641-.5.97-.829.97-.093 0-.187-.047-.187-.25 0-.204.063-.344.156-.594.078-.204.157-.422.25-.641l.25-.64c.063-.188.172-.438.172-.579 0-.39-.328-.672-.734-.672-.766 0-1.11 1.11-1.11 1.22 0 .077.063.108.125.108.11 0 .11-.046.141-.124.219-.766.578-.985.828-.985.11 0 .188.047.188.266 0 .078-.016.187-.094.437zm0 0"/></symbol><symbol overflow="visible" id="j"><path d="M2.328-5.297c0-.016.031-.11.031-.125a.12.12 0 0 0-.125-.11c-.03 0-.28.032-.468.048l-.438.03c-.187.016-.266.016-.266.157 0 .125.11.125.22.125.374 0 .374.047.374.11 0 .03 0 .046-.031.187L.485-.344c-.032.125-.032.172-.032.172 0 .14.11.25.266.25.265 0 .328-.25.36-.36.077-.343.296-1.187.374-1.515.438.047.984.188.984.656 0 .032 0 .079-.015.157A.788.788 0 0 0 3.188.079c.328 0 .546-.25.64-.391.203-.297.328-.782.328-.829 0-.078-.062-.109-.125-.109-.093 0-.11.063-.14.203-.11.375-.313.906-.688.906-.203 0-.25-.172-.25-.39 0-.11 0-.203.047-.39 0-.032.031-.157.031-.235 0-.657-.812-.797-1.219-.86.297-.171.563-.453.657-.546.437-.438.797-.735 1.187-.735a.31.31 0 0 1 .25.11c-.422.062-.422.437-.422.437 0 .172.141.297.313.297.219 0 .453-.172.453-.5 0-.281-.188-.563-.594-.563-.453 0-.875.36-1.328.813-.469.453-.656.531-.797.594zm0 0"/></symbol><symbol overflow="visible" id="k"><path d="M9.688-4.64c.203 0 .453 0 .453-.266s-.25-.266-.454-.266H1.235c-.203 0-.453 0-.453.25 0 .281.235.281.453.281zm0 2.656c.203 0 .453 0 .453-.25 0-.282-.25-.282-.454-.282H1.235c-.203 0-.453 0-.453.266s.235.266.453.266zm0 0"/></symbol><symbol overflow="visible" id="l"><path d="M6.797-5.86c-.453.094-.625.438-.625.704 0 .343.266.468.469.468.437 0 .734-.375.734-.765 0-.594-.688-.875-1.297-.875-.875 0-1.36.86-1.484 1.14-.328-1.078-1.219-1.14-1.485-1.14-1.453 0-2.234 1.875-2.234 2.203 0 .047.063.125.156.125.11 0 .14-.094.172-.14.484-1.594 1.453-1.891 1.86-1.891.656 0 .78.593.78.937 0 .313-.077.64-.265 1.328l-.484 1.97c-.203.859-.625 1.655-1.39 1.655-.063 0-.423 0-.735-.187.515-.11.64-.531.64-.703 0-.282-.218-.453-.484-.453a.744.744 0 0 0-.719.75c0 .609.672.875 1.281.875.688 0 1.188-.547 1.485-1.125C3.406-.141 4.109.14 4.64.14c1.468 0 2.25-1.875 2.25-2.188 0-.078-.063-.14-.157-.14-.125 0-.14.078-.171.187C6.171-.734 5.327-.14 4.688-.14c-.5 0-.766-.376-.766-.97 0-.312.047-.546.281-1.484l.5-1.953c.219-.86.703-1.484 1.36-1.484.03 0 .437 0 .734.172zm0 0"/></symbol><symbol overflow="visible" id="m"><path d="M8.625-4c0-.25-.063-.375-.156-.375-.063 0-.156.078-.172.313-.047 1.14-.844 1.796-1.672 1.796-.75 0-1.328-.5-1.922-1.015-.61-.563-1.219-1.11-2.031-1.11C1.359-4.39.656-3.078.656-1.984c0 .375.156.375.172.375.125 0 .156-.235.156-.266.063-1.313.954-1.844 1.688-1.844.75 0 1.328.516 1.906 1.031.61.547 1.234 1.094 2.047 1.094 1.297 0 2-1.312 2-2.406zm0 0"/></symbol><clipPath id="o"><path d="M312 25h86.727v92H312zm0 0"/></clipPath><clipPath id="p"><path d="M312 34h86.727v66H312zm0 0"/></clipPath></defs><path d="M47.324 19.195c0-6.054-4.906-10.96-10.96-10.96-6.051 0-10.958 4.906-10.958 10.96 0 6.051 4.907 10.957 10.957 10.957 6.055 0 10.961-4.906 10.961-10.957zm0 0" fill="rgb(89.99939%,89.99939%,89.99939%)" stroke-width="1.19553" stroke="rgb(100%,0%,0%)" stroke-miterlimit="10"/><use xlink:href="#a" x="31.28" y="20.871" fill="rgb(0%,0%,0%)"/><use xlink:href="#b" x="36.718" y="22.664" fill="rgb(0%,0%,0%)"/><path d="M127.133 19.195c0-6.054-4.906-10.96-10.961-10.96-6.05 0-10.957 4.906-10.957 10.96 0 6.051 4.906 10.957 10.957 10.957 6.055 0 10.96-4.906 10.96-10.957zm0 0" fill="rgb(89.99939%,89.99939%,89.99939%)"/><use xlink:href="#a" x="111.086" y="20.871" fill="rgb(0%,0%,0%)"/><use xlink:href="#c" x="116.524" y="22.664" fill="rgb(0%,0%,0%)"/><path d="M50.91 19.195h49.762" fill="none" stroke-width="1.19553" stroke="rgb(0%,0%,0%)" stroke-miterlimit="10"/><path d="M98.758 16.645c.16.957 1.914 2.39 2.39 2.55-.476.157-2.23 1.594-2.39 2.551" fill="none" stroke-width="0.9564" stroke-linecap="round" stroke-linejoin="round" stroke="rgb(0%,0%,0%)" stroke-miterlimit="10"/><use xlink:href="#d" x="61.38" y="12.287" fill="rgb(0%,0%,0%)"/><use xlink:href="#c" x="67.15" y="14.08" fill="rgb(0%,0%,0%)"/><use xlink:href="#e" x="71.882" y="12.287" fill="rgb(0%,0%,0%)"/><use xlink:href="#a" x="76.434" y="12.287" fill="rgb(0%,0%,0%)"/><use xlink:href="#b" x="81.872" y="14.08" fill="rgb(0%,0%,0%)"/><use xlink:href="#f" x="86.605" y="12.287" fill="rgb(0%,0%,0%)"/><path d="M206.938 19.195c0-6.054-4.907-10.96-10.958-10.96-6.054 0-10.96 4.906-10.96 10.96 0 6.051 4.906 10.957 10.96 10.957 6.051 0 10.958-4.906 10.958-10.957zm0 0" fill="rgb(89.99939%,89.99939%,89.99939%)"/><use xlink:href="#a" x="191.568" y="20.871" fill="rgb(0%,0%,0%)"/><use xlink:href="#g" x="197.006" y="22.664" fill="rgb(0%,0%,0%)"/><path d="M286.746 19.195c0-6.054-4.906-10.96-10.96-10.96-6.052 0-10.958 4.906-10.958 10.96 0 6.051 4.906 10.957 10.957 10.957 6.055 0 10.961-4.906 10.961-10.957zm0 0" fill="rgb(89.99939%,89.99939%,89.99939%)"/><use xlink:href="#a" x="265.964" y="20.456" fill="rgb(0%,0%,0%)"/><use xlink:href="#g" x="271.402" y="22.249" fill="rgb(0%,0%,0%)"/><g fill="rgb(0%,0%,0%)"><use xlink:href="#h" x="274.285" y="22.249"/><use xlink:href="#c" x="280.871" y="22.249"/></g><path d="M210.523 19.195h49.762" fill="none" stroke-width="1.19553" stroke="rgb(0%,0%,0%)" stroke-miterlimit="10"/><path d="M258.371 16.645c.16.957 1.914 2.39 2.39 2.55-.476.157-2.23 1.594-2.39 2.551" fill="none" stroke-width="0.9564" stroke-linecap="round" stroke-linejoin="round" stroke="rgb(0%,0%,0%)" stroke-miterlimit="10"/><use xlink:href="#d" x="216.933" y="12.287" fill="rgb(0%,0%,0%)"/><use xlink:href="#g" x="222.703" y="14.08" fill="rgb(0%,0%,0%)"/><g fill="rgb(0%,0%,0%)"><use xlink:href="#h" x="225.586" y="14.08"/><use xlink:href="#c" x="232.172" y="14.08"/></g><use xlink:href="#e" x="236.905" y="12.287" fill="rgb(0%,0%,0%)"/><use xlink:href="#a" x="241.457" y="12.287" fill="rgb(0%,0%,0%)"/><use xlink:href="#g" x="246.895" y="14.08" fill="rgb(0%,0%,0%)"/><use xlink:href="#f" x="250.276" y="12.287" fill="rgb(0%,0%,0%)"/><path d="M130.719 19.195h49.758" fill="none" stroke-width="1.19553" stroke="rgb(0%,0%,0%)" stroke-miterlimit="10"/><path d="M178.566 16.645c.157.957 1.91 2.39 2.391 2.55-.48.157-2.234 1.594-2.39 2.551" fill="none" stroke-width="0.9564" stroke-linecap="round" stroke-linejoin="round" stroke="rgb(0%,0%,0%)" stroke-miterlimit="10"/><path d="M145.887 23.098h20.379v-7.805h-20.38zm0 0" fill="rgb(100%,100%,100%)"/><use xlink:href="#i" x="149.205" y="19.775" fill="rgb(0%,0%,0%)"/><use xlink:href="#i" x="154.453" y="19.775" fill="rgb(0%,0%,0%)"/><use xlink:href="#i" x="159.69" y="19.775" fill="rgb(0%,0%,0%)"/><path d="M366.555 19.195c0-6.054-4.91-10.96-10.961-10.96s-10.957 4.906-10.957 10.96c0 6.051 4.906 10.957 10.957 10.957 6.05 0 10.96-4.906 10.96-10.957zm0 0" fill="rgb(89.99939%,89.99939%,89.99939%)" stroke-width="1.19553" stroke="rgb(0%,69.999695%,0%)" stroke-miterlimit="10"/><use xlink:href="#a" x="350.311" y="20.871" fill="rgb(0%,0%,0%)"/><use xlink:href="#j" x="355.749" y="22.664" fill="rgb(0%,0%,0%)"/><path d="M290.332 19.195h49.762" fill="none" stroke-width="1.19553" stroke="rgb(0%,0%,0%)" stroke-miterlimit="10"/><path d="M338.18 16.645c.16.957 1.914 2.39 2.39 2.55-.476.157-2.23 1.594-2.39 2.551" fill="none" stroke-width="0.9564" stroke-linecap="round" stroke-linejoin="round" stroke="rgb(0%,0%,0%)" stroke-miterlimit="10"/><path d="M305.5 23.098h20.383v-7.805H305.5zm0 0" fill="rgb(100%,100%,100%)"/><use xlink:href="#i" x="308.817" y="19.775" fill="rgb(0%,0%,0%)"/><use xlink:href="#i" x="314.065" y="19.775" fill="rgb(0%,0%,0%)"/><use xlink:href="#i" x="319.302" y="19.775" fill="rgb(0%,0%,0%)"/><use xlink:href="#k" x="371.849" y="22.282" fill="rgb(0%,0%,0%)"/><use xlink:href="#l" x="386.759" y="22.282" fill="rgb(0%,0%,0%)"/><path d="M72.332 70.832c0-18.785-15.23-34.016-34.016-34.016-18.789 0-34.015 15.23-34.015 34.016 0 18.79 15.226 34.02 34.015 34.02 18.786 0 34.016-15.23 34.016-34.02zm0 0" fill="none" stroke-width="0.79701" stroke="rgb(0%,0%,0%)" stroke-dasharray="2.29143,1.99255" stroke-miterlimit="10"/><path d="M9.969 82.172h1.453l1.453-.008 1.453-.012 1.453-.03 1.453-.063 1.454-.121 1.453-.231 1.457-.406 1.453-.684 1.453-1.082 1.453-1.597 1.453-2.215 1.453-2.875 1.453-3.461 1.454-3.848 1.453-3.894 1.453-3.516 1.453-2.672 1.453-1.453L39.035 54l1.453 1.438 1.453 2.66 1.454 3.507 1.453 3.899 1.453 3.848 1.453 3.468 1.457 2.875 1.453 2.223 1.453 1.605 1.453 1.082 1.453.688 1.454.41 1.453.234 1.453.122 1.453.062 1.453.027 1.453.016 2.906.008" fill="none" stroke-width="1.19553" stroke="rgb(0%,0%,59.999084%)" stroke-miterlimit="10"/><path d="M9.969 82.172h55.988" fill="none" stroke-width="0.79701" stroke="rgb(0%,0%,0%)" stroke-miterlimit="10"/><path d="M64.402 80.102c.13.773 1.555 1.941 1.942 2.07-.387.129-1.813 1.297-1.942 2.074" fill="none" stroke-width="0.6376" stroke-linecap="round" stroke-linejoin="round" stroke="rgb(0%,0%,0%)" stroke-miterlimit="10"/><path d="M38.316 96.344V47.445" fill="none" stroke-width="0.79701" stroke="rgb(0%,0%,0%)" stroke-miterlimit="10"/><path d="M36.242 49c.778-.129 1.946-1.555 2.074-1.941.13.386 1.293 1.812 2.07 1.941" fill="none" stroke-width="0.6376" stroke-linecap="round" stroke-linejoin="round" stroke="rgb(0%,0%,0%)" stroke-miterlimit="10"/><use xlink:href="#a" x="8.369" y="118.133" fill="rgb(0%,0%,0%)"/><use xlink:href="#b" x="13.807" y="119.926" fill="rgb(0%,0%,0%)"/><use xlink:href="#m" x="21.86" y="118.133" fill="rgb(0%,0%,0%)"/><use xlink:href="#n" x="34.479" y="118.133" fill="rgb(0%,0%,0%)"/><use xlink:href="#b" x="40.354" y="119.926" fill="rgb(0%,0%,0%)"/><use xlink:href="#e" x="45.087" y="118.133" fill="rgb(0%,0%,0%)"/><use xlink:href="#a" x="49.639" y="118.133" fill="rgb(0%,0%,0%)"/><use xlink:href="#b" x="55.077" y="119.926" fill="rgb(0%,0%,0%)"/><use xlink:href="#f" x="59.809" y="118.133" fill="rgb(0%,0%,0%)"/><path d="M231.945 70.832c0-18.785-15.23-34.016-34.015-34.016-18.79 0-34.016 15.23-34.016 34.016 0 18.79 15.227 34.02 34.016 34.02 18.785 0 34.015-15.23 34.015-34.02zm0 0" fill="none" stroke-width="0.79701" stroke="rgb(0%,0%,0%)" stroke-dasharray="2.29143,1.99255" stroke-miterlimit="10"/><path d="M169.582 82.066l.82-.175.825-.41.82-.84.82-1.516.82-2.457.825-3.465.82-4.262.82-4.421.825-3.653.82-1.965.82.27.82 2.348.825 3.753.82 4.184.82 3.734.82 2.727.825 1.586.82.578.82-.207.825-.758.82-1.144.82-1.446.82-1.683.825-1.887.82-2.05.82-2.173.82-2.218.825-2.207.82-2.11.82-1.93.825-1.664.82-1.328.82-.925.82-.473.825-.004.82.469.82.91.825 1.316.82 1.66.82 1.926.82 2.106.825 2.207.82 2.21.82 2.141.821 1.985.824 1.726.82 1.332.82.766.825.023.82-.859.82-1.691.821-2.247.824-2.246.82-1.57.82-.328.821 1.117.824 2.34.82 3.008.821 3.031.824 2.563.82 1.882.82 1.211.821.692.824.351.82.16.821.067.824.023.82.016h.82" fill="none" stroke-width="1.19553" stroke="rgb(0%,0%,59.999084%)" stroke-miterlimit="10"/><path d="M169.582 82.172h55.988" fill="none" stroke-width="0.79701" stroke="rgb(0%,0%,0%)" stroke-miterlimit="10"/><path d="M224.016 80.102c.129.773 1.554 1.941 1.941 2.07-.387.129-1.812 1.297-1.941 2.074" fill="none" stroke-width="0.6376" stroke-linecap="round" stroke-linejoin="round" stroke="rgb(0%,0%,0%)" stroke-miterlimit="10"/><path d="M197.93 96.344V47.445" fill="none" stroke-width="0.79701" stroke="rgb(0%,0%,0%)" stroke-miterlimit="10"/><path d="M195.855 49c.778-.129 1.946-1.555 2.075-1.941.129.386 1.293 1.812 2.07 1.941" fill="none" stroke-width="0.6376" stroke-linecap="round" stroke-linejoin="round" stroke="rgb(0%,0%,0%)" stroke-miterlimit="10"/><use xlink:href="#a" x="170.008" y="118.133" fill="rgb(0%,0%,0%)"/><use xlink:href="#g" x="175.446" y="119.926" fill="rgb(0%,0%,0%)"/><use xlink:href="#m" x="182.148" y="118.133" fill="rgb(0%,0%,0%)"/><use xlink:href="#n" x="194.767" y="118.133" fill="rgb(0%,0%,0%)"/><use xlink:href="#g" x="200.642" y="119.926" fill="rgb(0%,0%,0%)"/><use xlink:href="#e" x="204.024" y="118.133" fill="rgb(0%,0%,0%)"/><use xlink:href="#a" x="208.576" y="118.133" fill="rgb(0%,0%,0%)"/><use xlink:href="#g" x="214.014" y="119.926" fill="rgb(0%,0%,0%)"/><use xlink:href="#f" x="217.395" y="118.133" fill="rgb(0%,0%,0%)"/><g clip-path="url(#o)"><path d="M391.559 70.832c0-18.785-15.23-34.016-34.02-34.016-18.785 0-34.016 15.23-34.016 34.016 0 18.79 15.23 34.02 34.016 34.02 18.79 0 34.02-15.23 34.02-34.02zm0 0" fill="none" stroke-width="0.79701" stroke="rgb(0%,0%,0%)" stroke-dasharray="2.29143,1.99255" stroke-miterlimit="10"/></g><g clip-path="url(#p)"><path d="M329.195 82.066l.637-.125.637-.238.636-.433.637-.739.637-1.164.637-1.707.636-2.324.637-2.91.637-3.328.636-3.442.637-3.117.637-2.34.637-1.16.636.188.637 1.53.637 2.583.637 3.2.636 3.358.637 3.075.637 2.484.636 1.707.637.887.637.094.637-.61.636-1.183.637-1.598.637-1.82.636-1.809.637-1.574.637-1.094.637-.46.636.245.637.903.637 1.445.636 1.793.637 1.906.633 1.84.637 1.601.636 1.262.637.867.637.438.637-.02.636-.539.637-1.12.637-1.79.636-2.508.637-3.23.637-3.844.637-4.207.636-4.176.637-3.715.637-2.742.636-1.445.637.121.637 1.633.637 2.926.636 3.777.637 4.156.637 4.067.637 3.554.636 2.782.637 1.84.637.847.636-.113.637-.961.637-1.633.637-2.035.636-2.086.637-1.8.637-1.177.636-.328.637.606.637 1.414.637 2.008.636 2.296.637 2.282.637 2.031.636 1.66.637 1.238.637.856.637.555.636.328.637.187.637.094.636.047.637.023 1.274.016h.636" fill="none" stroke-width="1.19553" stroke="rgb(0%,0%,59.999084%)" stroke-miterlimit="10"/></g><path d="M329.195 82.172h55.985" fill="none" stroke-width="0.79701" stroke="rgb(0%,0%,0%)" stroke-miterlimit="10"/><path d="M383.625 80.102c.129.773 1.555 1.941 1.945 2.07-.39.129-1.816 1.297-1.945 2.074" fill="none" stroke-width="0.6376" stroke-linecap="round" stroke-linejoin="round" stroke="rgb(0%,0%,0%)" stroke-miterlimit="10"/><path d="M357.54 96.344V47.445" fill="none" stroke-width="0.79701" stroke="rgb(0%,0%,0%)" stroke-miterlimit="10"/><path d="M355.469 49c.777-.129 1.941-1.555 2.07-1.941.133.386 1.297 1.812 2.074 1.941" fill="none" stroke-width="0.6376" stroke-linecap="round" stroke-linejoin="round" stroke="rgb(0%,0%,0%)" stroke-miterlimit="10"/><use xlink:href="#a" x="327.013" y="118.133" fill="rgb(0%,0%,0%)"/><use xlink:href="#j" x="332.45" y="119.926" fill="rgb(0%,0%,0%)"/><use xlink:href="#m" x="340.891" y="118.133" fill="rgb(0%,0%,0%)"/><use xlink:href="#n" x="353.51" y="118.133" fill="rgb(0%,0%,0%)"/><use xlink:href="#j" x="359.385" y="119.926" fill="rgb(0%,0%,0%)"/><use xlink:href="#e" x="364.505" y="118.133" fill="rgb(0%,0%,0%)"/><use xlink:href="#a" x="369.058" y="118.133" fill="rgb(0%,0%,0%)"/><use xlink:href="#j" x="374.495" y="119.926" fill="rgb(0%,0%,0%)"/><use xlink:href="#f" x="379.615" y="118.133" fill="rgb(0%,0%,0%)"/></svg>