<svg xmlns="http://www.w3.org/2000/svg" xmlns:xlink="http://www.w3.org/1999/xlink" width="530.728" height="164.895" viewBox="0 0 398.046 123.671"><defs><symbol overflow="visible" id="a"><path style="stroke:none" d="M.875-.594c-.031.156-.094.39-.094.438 0 .172.14.265.297.265a.414.414 0 0 0 .375-.28c0-.016.125-.485.188-.735l.218-.89c.047-.235.11-.454.172-.673.031-.172.11-.469.125-.5.14-.312.672-1.219 1.625-1.219.453 0 .531.375.531.704 0 .25-.062.53-.14.828L3.89-1.5l-.204.75c-.03.203-.124.547-.124.594 0 .172.14.265.28.265.313 0 .376-.25.454-.562.14-.563.516-2.016.594-2.406.03-.125.562-1.329 1.656-1.329.422 0 .531.344.531.704 0 .562-.422 1.703-.625 2.234-.078.234-.125.344-.125.547 0 .469.344.812.813.812.937 0 1.312-1.453 1.312-1.53 0-.11-.094-.11-.125-.11-.094 0-.094.031-.14.187-.157.532-.47 1.235-1.016 1.235-.172 0-.25-.094-.25-.329 0-.25.094-.484.187-.703.188-.53.61-1.625.61-2.203 0-.64-.407-1.062-1.157-1.062-.734 0-1.25.437-1.625.968 0-.124-.03-.468-.312-.703-.25-.218-.563-.265-.813-.265-.906 0-1.39.64-1.562.875-.047-.578-.469-.875-.922-.875-.453 0-.64.39-.734.562a4.68 4.68 0 0 0-.297.969c0 .11.094.11.11.11.109 0 .109-.016.171-.235.172-.703.375-1.188.735-1.188.156 0 .296.079.296.454 0 .218-.03.328-.156.843Zm0 0"/></symbol><symbol overflow="visible" id="e"><path style="stroke:none" d="M.406-2.531C.796-3.671 1.891-3.687 2-3.687c1.5 0 1.61 1.75 1.61 2.53 0 .61-.047.782-.126.985-.218.719-.515 1.875-.515 2.14 0 .11.047.173.125.173.14 0 .219-.22.328-.594.234-.844.328-1.406.36-1.719.03-.125.046-.25.093-.39.313-.985.953-2.47 1.344-3.25.078-.126.187-.344.187-.391 0-.094-.093-.094-.11-.094-.03 0-.093 0-.124.063-.516.953-.922 1.953-1.313 2.953-.015-.297-.015-1.063-.406-2.032-.25-.609-.64-1.093-1.328-1.093-1.25 0-1.953 1.515-1.953 1.828 0 .094.094.094.203.094Zm0 0"/></symbol><symbol overflow="visible" id="f"><path style="stroke:none" d="M4.5-4.297c0-.047-.031-.094-.094-.094-.11 0-.515.391-.672.688-.218-.547-.609-.703-.937-.703-1.172 0-2.39 1.468-2.39 2.922C.406-.516.983.109 1.718.109c.422 0 .812-.234 1.172-.593-.094.343-.422 1.687-.454 1.78-.078.282-.156.313-.718.329-.125 0-.219 0-.219.203 0 0 0 .11.125.11.313 0 .672-.032 1-.032.328 0 .688.032 1.031.032.047 0 .172 0 .172-.204 0-.109-.094-.109-.265-.109-.47 0-.47-.063-.47-.156 0-.078.016-.14.032-.219ZM1.75-.109c-.61 0-.64-.766-.64-.938 0-.484.28-1.562.452-1.984.313-.735.829-1.156 1.235-1.156.656 0 .797.812.797.875 0 .062-.547 2.25-.578 2.28-.157.282-.72.923-1.266.923Zm0 0"/></symbol><symbol overflow="visible" id="j"><path style="stroke:none" d="M4.688-3.766a.562.562 0 0 0 .03-.171c0-.172-.109-.266-.28-.266-.094 0-.375.062-.407.422-.187-.36-.531-.625-.937-.625-1.125 0-2.36 1.39-2.36 2.828C.734-.594 1.328 0 2.047 0c.594 0 1.062-.469 1.156-.578l.016.015C3.016.313 2.89.734 2.89.75c-.047.094-.375 1.078-1.438 1.078a2.68 2.68 0 0 1-.797-.11.542.542 0 0 0 .406-.515C1.063 1.047.954.86.688.86a.546.546 0 0 0-.53.579c0 .406.359.609 1.312.609 1.25 0 1.968-.781 2.125-1.375ZM3.405-1.28c-.062.265-.297.515-.515.703-.204.172-.516.36-.813.36-.5 0-.64-.516-.64-.923 0-.468.28-1.656.562-2.156.266-.484.688-.89 1.11-.89.656 0 .796.812.796.859 0 .047-.015.11-.031.14Zm0 0"/></symbol><symbol overflow="visible" id="b"><path style="stroke:none" d="M3.516-1.266H3.28c-.015.157-.094.563-.187.625-.047.047-.578.047-.688.047h-1.28c.734-.64.984-.844 1.39-1.172.516-.406 1-.843 1-1.5 0-.843-.734-1.359-1.624-1.359-.86 0-1.454.61-1.454 1.25 0 .344.297.39.376.39a.365.365 0 0 0 .359-.374c0-.125-.047-.375-.406-.375.218-.485.687-.641 1.015-.641.703 0 1.063.547 1.063 1.11 0 .609-.438 1.078-.656 1.328L.516-.266C.437-.203.437-.187.437 0h2.876Zm0 0"/></symbol><symbol overflow="visible" id="c"><path style="stroke:none" d="M2.328-4.438c0-.187 0-.187-.203-.187-.453.438-1.078.438-1.36.438v.25c.157 0 .626 0 1-.188v3.547c0 .234 0 .328-.687.328H.812V0c.125 0 .985-.031 1.235-.031.219 0 1.094.031 1.25.031v-.25H3.03c-.703 0-.703-.094-.703-.328Zm0 0"/></symbol><symbol overflow="visible" id="g"><path style="stroke:none" d="M3.594-2.219c0-.765-.094-1.328-.406-1.812-.22-.313-.657-.594-1.204-.594C.36-4.625.36-2.719.36-2.219c0 .5 0 2.36 1.625 2.36 1.61 0 1.61-1.86 1.61-2.36ZM1.984-.063c-.328 0-.75-.187-.89-.75C1-1.219 1-1.796 1-2.313c0-.515 0-1.046.094-1.421.156-.547.593-.704.89-.704.375 0 .735.235.86.641.11.375.125.875.125 1.485 0 .515 0 1.03-.094 1.468-.14.64-.61.781-.89.781Zm0 0"/></symbol><symbol overflow="visible" id="d"><path style="stroke:none" d="M2.031-.016c0-.625-.25-1.046-.64-1.046-.36 0-.532.28-.532.53 0 .266.172.532.532.532a.578.578 0 0 0 .375-.14l.015-.016c.016 0 .016 0 .016.14 0 .641-.266 1.25-.703 1.72-.063.062-.078.077-.078.109 0 .078.046.109.093.109.125 0 .922-.781.922-1.938Zm0 0"/></symbol><symbol overflow="visible" id="k"><path style="stroke:none" d="M6.11-3.438h4.171c.203 0 .485 0 .485-.296 0-.297-.282-.297-.485-.297H6.11V-8.22c0-.203 0-.484-.296-.484-.297 0-.297.281-.297.484v4.188H1.328c-.203 0-.484 0-.484.297 0 .296.281.296.484.296h4.188V.75c0 .203 0 .484.296.484.297 0 .297-.28.297-.484Zm0 0"/></symbol><clipPath id="h"><path d="M81 101h9v9h-9Zm0 0"/></clipPath><clipPath id="i"><path d="M89.621 105.852a3.984 3.984 0 1 0-7.969 0 3.986 3.986 0 0 0 3.985 3.984 3.984 3.984 0 0 0 3.984-3.984Zm0 0"/></clipPath><clipPath id="l"><path d="M308 16h9v9h-9Zm0 0"/></clipPath><clipPath id="m"><path d="M316.398 20.809a3.987 3.987 0 0 0-7.972 0 3.984 3.984 0 0 0 3.984 3.984 3.984 3.984 0 0 0 3.988-3.984Zm0 0"/></clipPath><clipPath id="n"><path d="M210 44h188.047v39H210Zm0 0"/></clipPath></defs><path style="fill:none;stroke-width:1.19553;stroke-linecap:butt;stroke-linejoin:miter;stroke:#000;stroke-opacity:1;stroke-miterlimit:10" d="M42.52.002c0 23.48-19.036 42.52-42.52 42.52-23.485 0-42.52-19.04-42.52-42.52 0-23.485 19.035-42.524 42.52-42.524 23.484 0 42.52 19.04 42.52 42.524Zm0 0" transform="matrix(1 0 0 -1 85.637 63.33)"/><use xlink:href="#a" x="70.894" y="14.419" style="fill:#000;fill-opacity:1"/><use xlink:href="#b" x="79.642" y="10.804" style="fill:#000;fill-opacity:1"/><use xlink:href="#c" x="79.642" y="16.892" style="fill:#000;fill-opacity:1"/><use xlink:href="#d" x="84.111" y="14.419" style="fill:#000;fill-opacity:1"/><use xlink:href="#e" x="90.199" y="14.419" style="fill:#000;fill-opacity:1"/><use xlink:href="#b" x="95.911" y="10.804" style="fill:#000;fill-opacity:1"/><use xlink:href="#c" x="95.357" y="16.892" style="fill:#000;fill-opacity:1"/><use xlink:href="#a" x="70.894" y="117.878" style="fill:#000;fill-opacity:1"/><use xlink:href="#b" x="79.641" y="114.262" style="fill:#000;fill-opacity:1"/><use xlink:href="#b" x="79.641" y="120.35" style="fill:#000;fill-opacity:1"/><use xlink:href="#d" x="84.111" y="117.878" style="fill:#000;fill-opacity:1"/><use xlink:href="#e" x="90.199" y="117.878" style="fill:#000;fill-opacity:1"/><use xlink:href="#b" x="95.911" y="114.262" style="fill:#000;fill-opacity:1"/><use xlink:href="#b" x="95.357" y="120.35" style="fill:#000;fill-opacity:1"/><path style="fill:none;stroke-width:.59776;stroke-linecap:butt;stroke-linejoin:miter;stroke:#00008b;stroke-opacity:1;stroke-miterlimit:10" d="M-21.227 29.295c4.121 4.91 15.547 9.07 26.766 7.094 7.383-1.305 14.07-5.168 15.312-6.645" transform="matrix(1 0 0 -1 85.637 63.33)"/><path style="fill:none;stroke-width:.4782;stroke-linecap:round;stroke-linejoin:round;stroke:#00008b;stroke-opacity:1;stroke-miterlimit:10" d="M-1.375 1.835C-1.259 1.146.002.115.345 0c-.346-.113-1.606-1.147-1.72-1.83" transform="matrix(.64276 .76604 .76604 -.64276 106.49 33.588)"/><use xlink:href="#f" x="81.179" y="34.368" style="fill:#00008b;fill-opacity:1"/><use xlink:href="#g" x="85.626" y="35.863" style="fill:#00008b;fill-opacity:1"/><path style="stroke:none;fill-rule:nonzero;fill:#fff;fill-opacity:1" d="M89.621 105.852a3.984 3.984 0 1 0-7.969 0 3.986 3.986 0 0 0 3.985 3.984 3.984 3.984 0 0 0 3.984-3.984Zm0 0"/><g clip-path="url(#h)"><g clip-path="url(#i)"><path style="fill:none;stroke-width:.79701;stroke-linecap:butt;stroke-linejoin:miter;stroke:#000;stroke-opacity:1;stroke-miterlimit:10" d="m3.984-46.506-7.969 7.973m0-7.973 7.97 7.973" transform="matrix(1 0 0 -1 85.637 63.33)"/></g></g><path style="fill:none;stroke-width:.79701;stroke-linecap:butt;stroke-linejoin:miter;stroke:#000;stroke-opacity:1;stroke-miterlimit:10" d="M3.984-42.522a3.984 3.984 0 1 1-7.969 0A3.986 3.986 0 0 1 0-46.506a3.984 3.984 0 0 1 3.984 3.984Zm0 0" transform="matrix(1 0 0 -1 85.637 63.33)"/><path style="fill-rule:nonzero;fill:#000;fill-opacity:1;stroke-width:1.19553;stroke-linecap:butt;stroke-linejoin:miter;stroke:#000;stroke-opacity:1;stroke-miterlimit:10" d="M-85.04.002h42.52m1.992 0a1.993 1.993 0 1 1-1.992-1.996c1.102 0 1.992.894 1.992 1.996Zm85.04 0a1.993 1.993 0 1 1-1.993-1.996c1.102 0 1.992.894 1.992 1.996Zm-1.993 0h42.52" transform="matrix(1 0 0 -1 85.637 63.33)"/><use xlink:href="#j" x="34.09" y="71.538" style="fill:#000;fill-opacity:1"/><use xlink:href="#j" x="132.075" y="71.538" style="fill:#000;fill-opacity:1"/><path style="fill:none;stroke-width:.59776;stroke-linecap:butt;stroke-linejoin:miter;stroke:#00008b;stroke-opacity:1;stroke-miterlimit:10" d="M-80.059 4.982h31.973" transform="matrix(1 0 0 -1 85.637 63.33)"/><path style="fill:none;stroke-width:.4782;stroke-linecap:round;stroke-linejoin:round;stroke:#00008b;stroke-opacity:1;stroke-miterlimit:10" d="M-1.373 1.833C-1.26 1.145-.002.114.342.001-.002-.116-1.26-1.147-1.373-1.835" transform="matrix(1 0 0 -1 37.553 58.349)"/><use xlink:href="#f" x="17.399" y="52.792" style="fill:#00008b;fill-opacity:1"/><use xlink:href="#g" x="21.847" y="54.287" style="fill:#00008b;fill-opacity:1"/><path style="fill:none;stroke-width:.59776;stroke-linecap:butt;stroke-linejoin:miter;stroke:#00008b;stroke-opacity:1;stroke-miterlimit:10" d="M47.5 4.982h31.976" transform="matrix(1 0 0 -1 85.637 63.33)"/><path style="fill:none;stroke-width:.4782;stroke-linecap:round;stroke-linejoin:round;stroke:#00008b;stroke-opacity:1;stroke-miterlimit:10" d="M-1.375 1.833C-1.262 1.145 0 .114.344.001 0-.116-1.262-1.147-1.375-1.835" transform="matrix(1 0 0 -1 165.113 58.349)"/><use xlink:href="#f" x="144.958" y="52.792" style="fill:#00008b;fill-opacity:1"/><use xlink:href="#g" x="149.406" y="54.287" style="fill:#00008b;fill-opacity:1"/><use xlink:href="#k" x="193.211" y="67.066" style="fill:#000;fill-opacity:1"/><path style="fill:none;stroke-width:1.19553;stroke-linecap:butt;stroke-linejoin:miter;stroke:#000;stroke-opacity:1;stroke-miterlimit:10" d="M269.297.002c0 23.48-19.04 42.52-42.524 42.52-23.48 0-42.52-19.04-42.52-42.52 0-23.485 19.04-42.524 42.52-42.524 23.485 0 42.524 19.04 42.524 42.524Zm0 0" transform="matrix(1 0 0 -1 85.637 63.33)"/><use xlink:href="#a" x="297.666" y="11.43" style="fill:#000;fill-opacity:1"/><use xlink:href="#b" x="306.413" y="7.815" style="fill:#000;fill-opacity:1"/><use xlink:href="#c" x="306.413" y="13.903" style="fill:#000;fill-opacity:1"/><use xlink:href="#d" x="310.882" y="11.43" style="fill:#000;fill-opacity:1"/><use xlink:href="#e" x="316.971" y="11.43" style="fill:#000;fill-opacity:1"/><use xlink:href="#b" x="322.682" y="7.815" style="fill:#000;fill-opacity:1"/><use xlink:href="#c" x="322.129" y="13.903" style="fill:#000;fill-opacity:1"/><use xlink:href="#a" x="297.666" y="117.878" style="fill:#000;fill-opacity:1"/><use xlink:href="#b" x="306.413" y="114.262" style="fill:#000;fill-opacity:1"/><use xlink:href="#b" x="306.413" y="120.35" style="fill:#000;fill-opacity:1"/><use xlink:href="#d" x="310.883" y="117.878" style="fill:#000;fill-opacity:1"/><use xlink:href="#e" x="316.971" y="117.878" style="fill:#000;fill-opacity:1"/><use xlink:href="#b" x="322.682" y="114.262" style="fill:#000;fill-opacity:1"/><use xlink:href="#b" x="322.129" y="120.35" style="fill:#000;fill-opacity:1"/><path style="fill:none;stroke-width:.59776;stroke-linecap:butt;stroke-linejoin:miter;stroke:#00008b;stroke-opacity:1;stroke-miterlimit:10" d="M205.547-29.295c4.12-4.91 15.546-9.07 26.765-7.094 7.383 1.305 14.074 5.168 15.317 6.649" transform="matrix(1 0 0 -1 85.637 63.33)"/><path style="fill:none;stroke-width:.4782;stroke-linecap:round;stroke-linejoin:round;stroke:#00008b;stroke-opacity:1;stroke-miterlimit:10" d="M-1.373 1.834C-1.26 1.144-.001.114.344 0 0-.114-1.26-1.146-1.376-1.834" transform="scale(.99998 -.99998) rotate(50.001 266.432 310.805)"/><use xlink:href="#f" x="307.95" y="94.644" style="fill:#00008b;fill-opacity:1"/><use xlink:href="#g" x="312.398" y="96.139" style="fill:#00008b;fill-opacity:1"/><path style="stroke:none;fill-rule:nonzero;fill:#fff;fill-opacity:1" d="M316.398 20.809a3.987 3.987 0 0 0-7.972 0 3.984 3.984 0 0 0 3.984 3.984 3.984 3.984 0 0 0 3.988-3.984Zm0 0"/><g clip-path="url(#l)"><g clip-path="url(#m)"><path style="fill:none;stroke-width:.79701;stroke-linecap:butt;stroke-linejoin:miter;stroke:#000;stroke-opacity:1;stroke-miterlimit:10" d="m230.761 38.537-7.972 7.969m0-7.969 7.972 7.969" transform="matrix(1 0 0 -1 85.637 63.33)"/></g></g><path style="fill:none;stroke-width:.79701;stroke-linecap:butt;stroke-linejoin:miter;stroke:#000;stroke-opacity:1;stroke-miterlimit:10" d="M230.761 42.521a3.987 3.987 0 0 1-7.972 0 3.984 3.984 0 0 1 3.984-3.984 3.984 3.984 0 0 1 3.988 3.984Zm0 0" transform="matrix(1 0 0 -1 85.637 63.33)"/><path style="stroke:none;fill-rule:nonzero;fill:#000;fill-opacity:1" d="M227.371 63.328h42.52m1.992 0a1.993 1.993 0 1 0-1.992 1.996 1.994 1.994 0 0 0 1.992-1.996Zm85.043 0a1.996 1.996 0 0 0-1.992-1.992 1.996 1.996 0 0 0-1.997 1.992c0 1.102.895 1.996 1.997 1.996a1.996 1.996 0 0 0 1.992-1.996Zm-1.992 0h42.52"/><g clip-path="url(#n)"><path style="fill:none;stroke-width:1.19553;stroke-linecap:butt;stroke-linejoin:miter;stroke:#000;stroke-opacity:1;stroke-miterlimit:10" d="M141.734.002h42.52m1.992 0a1.993 1.993 0 1 1-1.992-1.996c1.101 0 1.992.894 1.992 1.996Zm85.043 0a1.996 1.996 0 0 1-1.992 1.992A1.996 1.996 0 0 1 267.3.002c0-1.102.895-1.996 1.997-1.996 1.097 0 1.992.894 1.992 1.996Zm-1.992 0h42.52" transform="matrix(1 0 0 -1 85.637 63.33)"/></g><use xlink:href="#j" x="260.861" y="71.538" style="fill:#000;fill-opacity:1"/><use xlink:href="#j" x="358.847" y="71.538" style="fill:#000;fill-opacity:1"/><path style="fill:none;stroke-width:.59776;stroke-linecap:butt;stroke-linejoin:miter;stroke:#00008b;stroke-opacity:1;stroke-miterlimit:10" d="M146.715 4.982h31.976" transform="matrix(1 0 0 -1 85.637 63.33)"/><path style="fill:none;stroke-width:.4782;stroke-linecap:round;stroke-linejoin:round;stroke:#00008b;stroke-opacity:1;stroke-miterlimit:10" d="M-1.374 1.833C-1.26 1.145.001.114.345.001 0-.116-1.261-1.147-1.374-1.835" transform="matrix(1 0 0 -1 264.327 58.349)"/><use xlink:href="#f" x="244.171" y="52.792" style="fill:#00008b;fill-opacity:1"/><use xlink:href="#g" x="248.618" y="54.287" style="fill:#00008b;fill-opacity:1"/><path style="fill:none;stroke-width:.59776;stroke-linecap:butt;stroke-linejoin:miter;stroke:#00008b;stroke-opacity:1;stroke-miterlimit:10" d="M274.277 4.982h31.973" transform="matrix(1 0 0 -1 85.637 63.33)"/><path style="fill:none;stroke-width:.4782;stroke-linecap:round;stroke-linejoin:round;stroke:#00008b;stroke-opacity:1;stroke-miterlimit:10" d="M-1.376 1.833C-1.26 1.145-.001.114.342.001 0-.116-1.259-1.147-1.376-1.835" transform="matrix(1 0 0 -1 391.888 58.349)"/><use xlink:href="#f" x="371.73" y="52.792" style="fill:#00008b;fill-opacity:1"/><use xlink:href="#g" x="376.177" y="54.287" style="fill:#00008b;fill-opacity:1"/></svg>