<svg xmlns="http://www.w3.org/2000/svg" xmlns:xlink="http://www.w3.org/1999/xlink" width="274.603" height="128" viewBox="0 0 205.952 96"><defs><clipPath id="f"><path d="M97 23.273h2.629V24H97Zm0 0"/></clipPath><clipPath id="g"><path d="M106.176 19.156a4.253 4.253 0 0 0-4.25-4.254 4.256 4.256 0 0 0-4.254 4.254 4.253 4.253 0 0 0 8.504 0Zm0 0"/></clipPath><clipPath id="h"><path d="M97.637 23.273h4.98V24h-4.98Zm0 0"/></clipPath><clipPath id="i"><path d="M106.176 19.156a4.253 4.253 0 0 0-4.25-4.254 4.256 4.256 0 0 0-4.254 4.254 4.253 4.253 0 0 0 8.504 0Zm0 0"/></clipPath><clipPath id="j"><path d="M100.625 23.273h4.98V24h-4.98Zm0 0"/></clipPath><clipPath id="k"><path d="M106.176 19.156a4.253 4.253 0 0 0-4.25-4.254 4.256 4.256 0 0 0-4.254 4.254 4.253 4.253 0 0 0 8.504 0Zm0 0"/></clipPath><clipPath id="l"><path d="M103.613 23.273H107V24h-3.387Zm0 0"/></clipPath><clipPath id="m"><path d="M106.176 19.156a4.253 4.253 0 0 0-4.25-4.254 4.256 4.256 0 0 0-4.254 4.254 4.253 4.253 0 0 0 8.504 0Zm0 0"/></clipPath><clipPath id="n"><path d="M97 20.281h2.629V24H97Zm0 0"/></clipPath><clipPath id="o"><path d="M106.176 19.156a4.253 4.253 0 0 0-4.25-4.254 4.256 4.256 0 0 0-4.254 4.254 4.253 4.253 0 0 0 8.504 0Zm0 0"/></clipPath><clipPath id="p"><path d="M97.637 20.281h4.98V24h-4.98Zm0 0"/></clipPath><clipPath id="q"><path d="M106.176 19.156a4.253 4.253 0 0 0-4.25-4.254 4.256 4.256 0 0 0-4.254 4.254 4.253 4.253 0 0 0 8.504 0Zm0 0"/></clipPath><clipPath id="r"><path d="M100.625 20.281h4.98V24h-4.98Zm0 0"/></clipPath><clipPath id="s"><path d="M106.176 19.156a4.253 4.253 0 0 0-4.25-4.254 4.256 4.256 0 0 0-4.254 4.254 4.253 4.253 0 0 0 8.504 0Zm0 0"/></clipPath><clipPath id="t"><path d="M103.613 20.281H107V24h-3.387Zm0 0"/></clipPath><clipPath id="u"><path d="M106.176 19.156a4.253 4.253 0 0 0-4.25-4.254 4.256 4.256 0 0 0-4.254 4.254 4.253 4.253 0 0 0 8.504 0Zm0 0"/></clipPath><clipPath id="v"><path d="M97 17.293h2.629v4.984H97Zm0 0"/></clipPath><clipPath id="w"><path d="M106.176 19.156a4.253 4.253 0 0 0-4.25-4.254 4.256 4.256 0 0 0-4.254 4.254 4.253 4.253 0 0 0 8.504 0Zm0 0"/></clipPath><clipPath id="x"><path d="M97.637 17.293h4.98v4.984h-4.98Zm0 0"/></clipPath><clipPath id="y"><path d="M106.176 19.156a4.253 4.253 0 0 0-4.25-4.254 4.256 4.256 0 0 0-4.254 4.254 4.253 4.253 0 0 0 8.504 0Zm0 0"/></clipPath><clipPath id="z"><path d="M100.625 17.293h4.98v4.984h-4.98Zm0 0"/></clipPath><clipPath id="A"><path d="M106.176 19.156a4.253 4.253 0 0 0-4.25-4.254 4.256 4.256 0 0 0-4.254 4.254 4.253 4.253 0 0 0 8.504 0Zm0 0"/></clipPath><clipPath id="B"><path d="M103.613 17.293H107v4.984h-3.387Zm0 0"/></clipPath><clipPath id="C"><path d="M106.176 19.156a4.253 4.253 0 0 0-4.25-4.254 4.256 4.256 0 0 0-4.254 4.254 4.253 4.253 0 0 0 8.504 0Zm0 0"/></clipPath><clipPath id="D"><path d="M97 14.305h2.629v4.98H97Zm0 0"/></clipPath><clipPath id="E"><path d="M106.176 19.156a4.253 4.253 0 0 0-4.25-4.254 4.256 4.256 0 0 0-4.254 4.254 4.253 4.253 0 0 0 8.504 0Zm0 0"/></clipPath><clipPath id="F"><path d="M97.637 14.305h4.98v4.98h-4.98Zm0 0"/></clipPath><clipPath id="G"><path d="M106.176 19.156a4.253 4.253 0 0 0-4.25-4.254 4.256 4.256 0 0 0-4.254 4.254 4.253 4.253 0 0 0 8.504 0Zm0 0"/></clipPath><clipPath id="H"><path d="M100.625 14.305h4.98v4.98h-4.98Zm0 0"/></clipPath><clipPath id="I"><path d="M106.176 19.156a4.253 4.253 0 0 0-4.25-4.254 4.256 4.256 0 0 0-4.254 4.254 4.253 4.253 0 0 0 8.504 0Zm0 0"/></clipPath><clipPath id="J"><path d="M103.613 14.305H107v4.98h-3.387Zm0 0"/></clipPath><clipPath id="K"><path d="M106.176 19.156a4.253 4.253 0 0 0-4.25-4.254 4.256 4.256 0 0 0-4.254 4.254 4.253 4.253 0 0 0 8.504 0Zm0 0"/></clipPath><clipPath id="L"><path d="M97 14h2.629v2.297H97Zm0 0"/></clipPath><clipPath id="M"><path d="M106.176 19.156a4.253 4.253 0 0 0-4.25-4.254 4.256 4.256 0 0 0-4.254 4.254 4.253 4.253 0 0 0 8.504 0Zm0 0"/></clipPath><clipPath id="N"><path d="M97.637 14h4.98v2.297h-4.98Zm0 0"/></clipPath><clipPath id="O"><path d="M106.176 19.156a4.253 4.253 0 0 0-4.25-4.254 4.256 4.256 0 0 0-4.254 4.254 4.253 4.253 0 0 0 8.504 0Zm0 0"/></clipPath><clipPath id="P"><path d="M100.625 14h4.98v2.297h-4.98Zm0 0"/></clipPath><clipPath id="Q"><path d="M106.176 19.156a4.253 4.253 0 0 0-4.25-4.254 4.256 4.256 0 0 0-4.254 4.254 4.253 4.253 0 0 0 8.504 0Zm0 0"/></clipPath><clipPath id="R"><path d="M103.613 14H107v2.297h-3.387Zm0 0"/></clipPath><clipPath id="S"><path d="M106.176 19.156a4.253 4.253 0 0 0-4.25-4.254 4.256 4.256 0 0 0-4.254 4.254 4.253 4.253 0 0 0 8.504 0Zm0 0"/></clipPath><clipPath id="ae"><path d="M97 80.059h2.629V81H97Zm0 0"/></clipPath><clipPath id="af"><path d="M106.176 75.848a4.253 4.253 0 0 0-8.504 0 4.256 4.256 0 0 0 4.254 4.254 4.253 4.253 0 0 0 4.25-4.254Zm0 0"/></clipPath><clipPath id="ag"><path d="M97.637 80.059h4.98V81h-4.98Zm0 0"/></clipPath><clipPath id="ah"><path d="M106.176 75.848a4.253 4.253 0 0 0-8.504 0 4.256 4.256 0 0 0 4.254 4.254 4.253 4.253 0 0 0 4.25-4.254Zm0 0"/></clipPath><clipPath id="ai"><path d="M100.625 80.059h4.98V81h-4.98Zm0 0"/></clipPath><clipPath id="aj"><path d="M106.176 75.848a4.253 4.253 0 0 0-8.504 0 4.256 4.256 0 0 0 4.254 4.254 4.253 4.253 0 0 0 4.25-4.254Zm0 0"/></clipPath><clipPath id="ak"><path d="M103.613 80.059H107V81h-3.387Zm0 0"/></clipPath><clipPath id="al"><path d="M106.176 75.848a4.253 4.253 0 0 0-8.504 0 4.256 4.256 0 0 0 4.254 4.254 4.253 4.253 0 0 0 4.25-4.254Zm0 0"/></clipPath><clipPath id="am"><path d="M97 77.07h2.629V81H97Zm0 0"/></clipPath><clipPath id="an"><path d="M106.176 75.848a4.253 4.253 0 0 0-8.504 0 4.256 4.256 0 0 0 4.254 4.254 4.253 4.253 0 0 0 4.25-4.254Zm0 0"/></clipPath><clipPath id="ao"><path d="M97.637 77.07h4.98V81h-4.98Zm0 0"/></clipPath><clipPath id="ap"><path d="M106.176 75.848a4.253 4.253 0 0 0-8.504 0 4.256 4.256 0 0 0 4.254 4.254 4.253 4.253 0 0 0 4.25-4.254Zm0 0"/></clipPath><clipPath id="aq"><path d="M100.625 77.07h4.98V81h-4.98Zm0 0"/></clipPath><clipPath id="ar"><path d="M106.176 75.848a4.253 4.253 0 0 0-8.504 0 4.256 4.256 0 0 0 4.254 4.254 4.253 4.253 0 0 0 4.25-4.254Zm0 0"/></clipPath><clipPath id="as"><path d="M103.613 77.07H107V81h-3.387Zm0 0"/></clipPath><clipPath id="at"><path d="M106.176 75.848a4.253 4.253 0 0 0-8.504 0 4.256 4.256 0 0 0 4.254 4.254 4.253 4.253 0 0 0 4.25-4.254Zm0 0"/></clipPath><clipPath id="au"><path d="M97 74.082h2.629v4.98H97Zm0 0"/></clipPath><clipPath id="av"><path d="M106.176 75.848a4.253 4.253 0 0 0-8.504 0 4.256 4.256 0 0 0 4.254 4.254 4.253 4.253 0 0 0 4.25-4.254Zm0 0"/></clipPath><clipPath id="aw"><path d="M97.637 74.082h4.98v4.98h-4.98Zm0 0"/></clipPath><clipPath id="ax"><path d="M106.176 75.848a4.253 4.253 0 0 0-8.504 0 4.256 4.256 0 0 0 4.254 4.254 4.253 4.253 0 0 0 4.25-4.254Zm0 0"/></clipPath><clipPath id="ay"><path d="M100.625 74.082h4.98v4.98h-4.98Zm0 0"/></clipPath><clipPath id="az"><path d="M106.176 75.848a4.253 4.253 0 0 0-8.504 0 4.256 4.256 0 0 0 4.254 4.254 4.253 4.253 0 0 0 4.25-4.254Zm0 0"/></clipPath><clipPath id="aA"><path d="M103.613 74.082H107v4.98h-3.387Zm0 0"/></clipPath><clipPath id="aB"><path d="M106.176 75.848a4.253 4.253 0 0 0-8.504 0 4.256 4.256 0 0 0 4.254 4.254 4.253 4.253 0 0 0 4.25-4.254Zm0 0"/></clipPath><clipPath id="aC"><path d="M97 71.094h2.629v4.98H97Zm0 0"/></clipPath><clipPath id="aD"><path d="M106.176 75.848a4.253 4.253 0 0 0-8.504 0 4.256 4.256 0 0 0 4.254 4.254 4.253 4.253 0 0 0 4.25-4.254Zm0 0"/></clipPath><clipPath id="aE"><path d="M97.637 71.094h4.98v4.98h-4.98Zm0 0"/></clipPath><clipPath id="aF"><path d="M106.176 75.848a4.253 4.253 0 0 0-8.504 0 4.256 4.256 0 0 0 4.254 4.254 4.253 4.253 0 0 0 4.25-4.254Zm0 0"/></clipPath><clipPath id="aG"><path d="M100.625 71.094h4.98v4.98h-4.98Zm0 0"/></clipPath><clipPath id="aH"><path d="M106.176 75.848a4.253 4.253 0 0 0-8.504 0 4.256 4.256 0 0 0 4.254 4.254 4.253 4.253 0 0 0 4.25-4.254Zm0 0"/></clipPath><clipPath id="aI"><path d="M103.613 71.094H107v4.98h-3.387Zm0 0"/></clipPath><clipPath id="aJ"><path d="M106.176 75.848a4.253 4.253 0 0 0-8.504 0 4.256 4.256 0 0 0 4.254 4.254 4.253 4.253 0 0 0 4.25-4.254Zm0 0"/></clipPath><clipPath id="aK"><path d="M97 71h2.629v2.086H97Zm0 0"/></clipPath><clipPath id="aL"><path d="M106.176 75.848a4.253 4.253 0 0 0-8.504 0 4.256 4.256 0 0 0 4.254 4.254 4.253 4.253 0 0 0 4.25-4.254Zm0 0"/></clipPath><clipPath id="aM"><path d="M97.637 71h4.98v2.086h-4.98Zm0 0"/></clipPath><clipPath id="aN"><path d="M106.176 75.848a4.253 4.253 0 0 0-8.504 0 4.256 4.256 0 0 0 4.254 4.254 4.253 4.253 0 0 0 4.25-4.254Zm0 0"/></clipPath><clipPath id="aO"><path d="M100.625 71h4.98v2.086h-4.98Zm0 0"/></clipPath><clipPath id="aP"><path d="M106.176 75.848a4.253 4.253 0 0 0-8.504 0 4.256 4.256 0 0 0 4.254 4.254 4.253 4.253 0 0 0 4.25-4.254Zm0 0"/></clipPath><clipPath id="aQ"><path d="M103.613 71H107v2.086h-3.387Zm0 0"/></clipPath><clipPath id="aR"><path d="M106.176 75.848a4.253 4.253 0 0 0-8.504 0 4.256 4.256 0 0 0 4.254 4.254 4.253 4.253 0 0 0 4.25-4.254Zm0 0"/></clipPath><clipPath id="bd"><path d="M68 50.172h1.738V53H68Zm0 0"/></clipPath><clipPath id="be"><path d="M78.54 47.504a4.96 4.96 0 1 0-9.923 0 4.96 4.96 0 0 0 4.961 4.957 4.96 4.96 0 0 0 4.961-4.957Zm0 0"/></clipPath><clipPath id="bf"><path d="M68 50.172h4.727V53H68Zm0 0"/></clipPath><clipPath id="bg"><path d="M78.54 47.504a4.96 4.96 0 1 0-9.923 0 4.96 4.96 0 0 0 4.961 4.957 4.96 4.96 0 0 0 4.961-4.957Zm0 0"/></clipPath><clipPath id="bh"><path d="M70.734 50.172h4.985V53h-4.985Zm0 0"/></clipPath><clipPath id="bi"><path d="M78.54 47.504a4.96 4.96 0 1 0-9.923 0 4.96 4.96 0 0 0 4.961 4.957 4.96 4.96 0 0 0 4.961-4.957Zm0 0"/></clipPath><clipPath id="bj"><path d="M73.723 50.172h4.984V53h-4.984Zm0 0"/></clipPath><clipPath id="bk"><path d="M78.54 47.504a4.96 4.96 0 1 0-9.923 0 4.96 4.96 0 0 0 4.961 4.957 4.96 4.96 0 0 0 4.961-4.957Zm0 0"/></clipPath><clipPath id="bl"><path d="M76.715 50.172H79V53h-2.285Zm0 0"/></clipPath><clipPath id="bm"><path d="M78.54 47.504a4.96 4.96 0 1 0-9.923 0 4.96 4.96 0 0 0 4.961 4.957 4.96 4.96 0 0 0 4.961-4.957Zm0 0"/></clipPath><clipPath id="bn"><path d="M68 47.184h1.738v4.98H68Zm0 0"/></clipPath><clipPath id="bo"><path d="M78.54 47.504a4.96 4.96 0 1 0-9.923 0 4.96 4.96 0 0 0 4.961 4.957 4.96 4.96 0 0 0 4.961-4.957Zm0 0"/></clipPath><clipPath id="bp"><path d="M68 47.184h4.727v4.98H68Zm0 0"/></clipPath><clipPath id="bq"><path d="M78.54 47.504a4.96 4.96 0 1 0-9.923 0 4.96 4.96 0 0 0 4.961 4.957 4.96 4.96 0 0 0 4.961-4.957Zm0 0"/></clipPath><clipPath id="br"><path d="M70.734 47.184h4.985v4.98h-4.985Zm0 0"/></clipPath><clipPath id="bs"><path d="M78.54 47.504a4.96 4.96 0 1 0-9.923 0 4.96 4.96 0 0 0 4.961 4.957 4.96 4.96 0 0 0 4.961-4.957Zm0 0"/></clipPath><clipPath id="bt"><path d="M73.723 47.184h4.984v4.98h-4.984Zm0 0"/></clipPath><clipPath id="bu"><path d="M78.54 47.504a4.96 4.96 0 1 0-9.923 0 4.96 4.96 0 0 0 4.961 4.957 4.96 4.96 0 0 0 4.961-4.957Zm0 0"/></clipPath><clipPath id="bv"><path d="M76.715 47.184H79v4.98h-2.285Zm0 0"/></clipPath><clipPath id="bw"><path d="M78.54 47.504a4.96 4.96 0 1 0-9.923 0 4.96 4.96 0 0 0 4.961 4.957 4.96 4.96 0 0 0 4.961-4.957Zm0 0"/></clipPath><clipPath id="bx"><path d="M68 44.195h1.738v4.98H68Zm0 0"/></clipPath><clipPath id="by"><path d="M78.54 47.504a4.96 4.96 0 1 0-9.923 0 4.96 4.96 0 0 0 4.961 4.957 4.96 4.96 0 0 0 4.961-4.957Zm0 0"/></clipPath><clipPath id="bz"><path d="M68 44.195h4.727v4.98H68Zm0 0"/></clipPath><clipPath id="bA"><path d="M78.54 47.504a4.96 4.96 0 1 0-9.923 0 4.96 4.96 0 0 0 4.961 4.957 4.96 4.96 0 0 0 4.961-4.957Zm0 0"/></clipPath><clipPath id="bB"><path d="M70.734 44.195h4.985v4.98h-4.985Zm0 0"/></clipPath><clipPath id="bC"><path d="M78.54 47.504a4.96 4.96 0 1 0-9.923 0 4.96 4.96 0 0 0 4.961 4.957 4.96 4.96 0 0 0 4.961-4.957Zm0 0"/></clipPath><clipPath id="bD"><path d="M73.723 44.195h4.984v4.98h-4.984Zm0 0"/></clipPath><clipPath id="bE"><path d="M78.54 47.504a4.96 4.96 0 1 0-9.923 0 4.96 4.96 0 0 0 4.961 4.957 4.96 4.96 0 0 0 4.961-4.957Zm0 0"/></clipPath><clipPath id="bF"><path d="M76.715 44.195H79v4.98h-2.285Zm0 0"/></clipPath><clipPath id="bG"><path d="M78.54 47.504a4.96 4.96 0 1 0-9.923 0 4.96 4.96 0 0 0 4.961 4.957 4.96 4.96 0 0 0 4.961-4.957Zm0 0"/></clipPath><clipPath id="bH"><path d="M68 42h1.738v4.188H68Zm0 0"/></clipPath><clipPath id="bI"><path d="M78.54 47.504a4.96 4.96 0 1 0-9.923 0 4.96 4.96 0 0 0 4.961 4.957 4.96 4.96 0 0 0 4.961-4.957Zm0 0"/></clipPath><clipPath id="bJ"><path d="M68 42h4.727v4.188H68Zm0 0"/></clipPath><clipPath id="bK"><path d="M78.54 47.504a4.96 4.96 0 1 0-9.923 0 4.96 4.96 0 0 0 4.961 4.957 4.96 4.96 0 0 0 4.961-4.957Zm0 0"/></clipPath><clipPath id="bL"><path d="M70.734 42h4.985v4.188h-4.985Zm0 0"/></clipPath><clipPath id="bM"><path d="M78.54 47.504a4.96 4.96 0 1 0-9.923 0 4.96 4.96 0 0 0 4.961 4.957 4.96 4.96 0 0 0 4.961-4.957Zm0 0"/></clipPath><clipPath id="bN"><path d="M73.723 42h4.984v4.188h-4.984Zm0 0"/></clipPath><clipPath id="bO"><path d="M78.54 47.504a4.96 4.96 0 1 0-9.923 0 4.96 4.96 0 0 0 4.961 4.957 4.96 4.96 0 0 0 4.961-4.957Zm0 0"/></clipPath><clipPath id="bP"><path d="M76.715 42H79v4.188h-2.285Zm0 0"/></clipPath><clipPath id="bQ"><path d="M78.54 47.504a4.96 4.96 0 1 0-9.923 0 4.96 4.96 0 0 0 4.961 4.957 4.96 4.96 0 0 0 4.961-4.957Zm0 0"/></clipPath><clipPath id="bR"><path d="M68 42h1.738v1.2H68Zm0 0"/></clipPath><clipPath id="bS"><path d="M78.54 47.504a4.96 4.96 0 1 0-9.923 0 4.96 4.96 0 0 0 4.961 4.957 4.96 4.96 0 0 0 4.961-4.957Zm0 0"/></clipPath><clipPath id="bT"><path d="M68 42h4.727v1.2H68Zm0 0"/></clipPath><clipPath id="bU"><path d="M78.54 47.504a4.96 4.96 0 1 0-9.923 0 4.96 4.96 0 0 0 4.961 4.957 4.96 4.96 0 0 0 4.961-4.957Zm0 0"/></clipPath><clipPath id="bV"><path d="M70.734 42h4.985v1.2h-4.985Zm0 0"/></clipPath><clipPath id="bW"><path d="M78.54 47.504a4.96 4.96 0 1 0-9.923 0 4.96 4.96 0 0 0 4.961 4.957 4.96 4.96 0 0 0 4.961-4.957Zm0 0"/></clipPath><clipPath id="bX"><path d="M73.723 42h4.984v1.2h-4.984Zm0 0"/></clipPath><clipPath id="bY"><path d="M78.54 47.504a4.96 4.96 0 1 0-9.923 0 4.96 4.96 0 0 0 4.961 4.957 4.96 4.96 0 0 0 4.961-4.957Zm0 0"/></clipPath><clipPath id="bZ"><path d="M76.715 42H79v1.2h-2.285Zm0 0"/></clipPath><clipPath id="ca"><path d="M78.54 47.504a4.96 4.96 0 1 0-9.923 0 4.96 4.96 0 0 0 4.961 4.957 4.96 4.96 0 0 0 4.961-4.957Zm0 0"/></clipPath><clipPath id="cb"><path d="M125 50.172h1.527V53H125Zm0 0"/></clipPath><clipPath id="cc"><path d="M135.234 47.504a4.96 4.96 0 0 0-4.96-4.961 4.958 4.958 0 0 0-4.962 4.96 4.957 4.957 0 0 0 4.961 4.958 4.96 4.96 0 0 0 4.961-4.957Zm0 0"/></clipPath><clipPath id="cd"><path d="M125 50.172h4.516V53H125Zm0 0"/></clipPath><clipPath id="ce"><path d="M135.234 47.504a4.96 4.96 0 0 0-4.96-4.961 4.958 4.958 0 0 0-4.962 4.96 4.957 4.957 0 0 0 4.961 4.958 4.96 4.96 0 0 0 4.961-4.957Zm0 0"/></clipPath><clipPath id="cf"><path d="M127.523 50.172h4.98V53h-4.98Zm0 0"/></clipPath><clipPath id="cg"><path d="M135.234 47.504a4.96 4.96 0 0 0-4.96-4.961 4.958 4.958 0 0 0-4.962 4.96 4.957 4.957 0 0 0 4.961 4.958 4.96 4.96 0 0 0 4.961-4.957Zm0 0"/></clipPath><clipPath id="ch"><path d="M130.512 50.172h4.98V53h-4.98Zm0 0"/></clipPath><clipPath id="ci"><path d="M135.234 47.504a4.96 4.96 0 0 0-4.96-4.961 4.958 4.958 0 0 0-4.962 4.96 4.957 4.957 0 0 0 4.961 4.958 4.96 4.96 0 0 0 4.961-4.957Zm0 0"/></clipPath><clipPath id="cj"><path d="M133.5 50.172h2.5V53h-2.5Zm0 0"/></clipPath><clipPath id="ck"><path d="M135.234 47.504a4.96 4.96 0 0 0-4.96-4.961 4.958 4.958 0 0 0-4.962 4.96 4.957 4.957 0 0 0 4.961 4.958 4.96 4.96 0 0 0 4.961-4.957Zm0 0"/></clipPath><clipPath id="cl"><path d="M125 47.184h1.527v4.98H125Zm0 0"/></clipPath><clipPath id="cm"><path d="M135.234 47.504a4.96 4.96 0 0 0-4.96-4.961 4.958 4.958 0 0 0-4.962 4.96 4.957 4.957 0 0 0 4.961 4.958 4.96 4.96 0 0 0 4.961-4.957Zm0 0"/></clipPath><clipPath id="cn"><path d="M125 47.184h4.516v4.98H125Zm0 0"/></clipPath><clipPath id="co"><path d="M135.234 47.504a4.96 4.96 0 0 0-4.96-4.961 4.958 4.958 0 0 0-4.962 4.96 4.957 4.957 0 0 0 4.961 4.958 4.96 4.96 0 0 0 4.961-4.957Zm0 0"/></clipPath><clipPath id="cp"><path d="M127.523 47.184h4.98v4.98h-4.98Zm0 0"/></clipPath><clipPath id="cq"><path d="M135.234 47.504a4.96 4.96 0 0 0-4.96-4.961 4.958 4.958 0 0 0-4.962 4.96 4.957 4.957 0 0 0 4.961 4.958 4.96 4.96 0 0 0 4.961-4.957Zm0 0"/></clipPath><clipPath id="cr"><path d="M130.512 47.184h4.98v4.98h-4.98Zm0 0"/></clipPath><clipPath id="cs"><path d="M135.234 47.504a4.96 4.96 0 0 0-4.96-4.961 4.958 4.958 0 0 0-4.962 4.96 4.957 4.957 0 0 0 4.961 4.958 4.96 4.96 0 0 0 4.961-4.957Zm0 0"/></clipPath><clipPath id="ct"><path d="M133.5 47.184h2.5v4.98h-2.5Zm0 0"/></clipPath><clipPath id="cu"><path d="M135.234 47.504a4.96 4.96 0 0 0-4.96-4.961 4.958 4.958 0 0 0-4.962 4.96 4.957 4.957 0 0 0 4.961 4.958 4.96 4.96 0 0 0 4.961-4.957Zm0 0"/></clipPath><clipPath id="cv"><path d="M125 44.195h1.527v4.98H125Zm0 0"/></clipPath><clipPath id="cw"><path d="M135.234 47.504a4.96 4.96 0 0 0-4.96-4.961 4.958 4.958 0 0 0-4.962 4.96 4.957 4.957 0 0 0 4.961 4.958 4.96 4.96 0 0 0 4.961-4.957Zm0 0"/></clipPath><clipPath id="cx"><path d="M125 44.195h4.516v4.98H125Zm0 0"/></clipPath><clipPath id="cy"><path d="M135.234 47.504a4.96 4.96 0 0 0-4.96-4.961 4.958 4.958 0 0 0-4.962 4.96 4.957 4.957 0 0 0 4.961 4.958 4.96 4.96 0 0 0 4.961-4.957Zm0 0"/></clipPath><clipPath id="cz"><path d="M127.523 44.195h4.98v4.98h-4.98Zm0 0"/></clipPath><clipPath id="cA"><path d="M135.234 47.504a4.96 4.96 0 0 0-4.96-4.961 4.958 4.958 0 0 0-4.962 4.96 4.957 4.957 0 0 0 4.961 4.958 4.96 4.96 0 0 0 4.961-4.957Zm0 0"/></clipPath><clipPath id="cB"><path d="M130.512 44.195h4.98v4.98h-4.98Zm0 0"/></clipPath><clipPath id="cC"><path d="M135.234 47.504a4.96 4.96 0 0 0-4.96-4.961 4.958 4.958 0 0 0-4.962 4.96 4.957 4.957 0 0 0 4.961 4.958 4.96 4.96 0 0 0 4.961-4.957Zm0 0"/></clipPath><clipPath id="cD"><path d="M133.5 44.195h2.5v4.98h-2.5Zm0 0"/></clipPath><clipPath id="cE"><path d="M135.234 47.504a4.96 4.96 0 0 0-4.96-4.961 4.958 4.958 0 0 0-4.962 4.96 4.957 4.957 0 0 0 4.961 4.958 4.96 4.96 0 0 0 4.961-4.957Zm0 0"/></clipPath><clipPath id="cF"><path d="M125 42h1.527v4.188H125Zm0 0"/></clipPath><clipPath id="cG"><path d="M135.234 47.504a4.96 4.96 0 0 0-4.96-4.961 4.958 4.958 0 0 0-4.962 4.96 4.957 4.957 0 0 0 4.961 4.958 4.96 4.96 0 0 0 4.961-4.957Zm0 0"/></clipPath><clipPath id="cH"><path d="M125 42h4.516v4.188H125Zm0 0"/></clipPath><clipPath id="cI"><path d="M135.234 47.504a4.96 4.96 0 0 0-4.96-4.961 4.958 4.958 0 0 0-4.962 4.96 4.957 4.957 0 0 0 4.961 4.958 4.96 4.96 0 0 0 4.961-4.957Zm0 0"/></clipPath><clipPath id="cJ"><path d="M127.523 42h4.98v4.188h-4.98Zm0 0"/></clipPath><clipPath id="cK"><path d="M135.234 47.504a4.96 4.96 0 0 0-4.96-4.961 4.958 4.958 0 0 0-4.962 4.96 4.957 4.957 0 0 0 4.961 4.958 4.96 4.96 0 0 0 4.961-4.957Zm0 0"/></clipPath><clipPath id="cL"><path d="M130.512 42h4.98v4.188h-4.98Zm0 0"/></clipPath><clipPath id="cM"><path d="M135.234 47.504a4.96 4.96 0 0 0-4.96-4.961 4.958 4.958 0 0 0-4.962 4.96 4.957 4.957 0 0 0 4.961 4.958 4.96 4.96 0 0 0 4.961-4.957Zm0 0"/></clipPath><clipPath id="cN"><path d="M133.5 42h2.5v4.188h-2.5Zm0 0"/></clipPath><clipPath id="cO"><path d="M135.234 47.504a4.96 4.96 0 0 0-4.96-4.961 4.958 4.958 0 0 0-4.962 4.96 4.957 4.957 0 0 0 4.961 4.958 4.96 4.96 0 0 0 4.961-4.957Zm0 0"/></clipPath><clipPath id="cP"><path d="M125 42h1.527v1.2H125Zm0 0"/></clipPath><clipPath id="cQ"><path d="M135.234 47.504a4.96 4.96 0 0 0-4.96-4.961 4.958 4.958 0 0 0-4.962 4.96 4.957 4.957 0 0 0 4.961 4.958 4.96 4.96 0 0 0 4.961-4.957Zm0 0"/></clipPath><clipPath id="cR"><path d="M125 42h4.516v1.2H125Zm0 0"/></clipPath><clipPath id="cS"><path d="M135.234 47.504a4.96 4.96 0 0 0-4.96-4.961 4.958 4.958 0 0 0-4.962 4.96 4.957 4.957 0 0 0 4.961 4.958 4.96 4.96 0 0 0 4.961-4.957Zm0 0"/></clipPath><clipPath id="cT"><path d="M127.523 42h4.98v1.2h-4.98Zm0 0"/></clipPath><clipPath id="cU"><path d="M135.234 47.504a4.96 4.96 0 0 0-4.96-4.961 4.958 4.958 0 0 0-4.962 4.96 4.957 4.957 0 0 0 4.961 4.958 4.96 4.96 0 0 0 4.961-4.957Zm0 0"/></clipPath><clipPath id="cV"><path d="M130.512 42h4.98v1.2h-4.98Zm0 0"/></clipPath><clipPath id="cW"><path d="M135.234 47.504a4.96 4.96 0 0 0-4.96-4.961 4.958 4.958 0 0 0-4.962 4.96 4.957 4.957 0 0 0 4.961 4.958 4.96 4.96 0 0 0 4.961-4.957Zm0 0"/></clipPath><clipPath id="cX"><path d="M133.5 42h2.5v1.2h-2.5Zm0 0"/></clipPath><clipPath id="cY"><path d="M135.234 47.504a4.96 4.96 0 0 0-4.96-4.961 4.958 4.958 0 0 0-4.962 4.96 4.957 4.957 0 0 0 4.961 4.958 4.96 4.96 0 0 0 4.961-4.957Zm0 0"/></clipPath><symbol overflow="visible" id="a"><path style="stroke:none" d="M.422.969c-.078.25-.094.312-.406.312-.11 0-.204 0-.204.157 0 .062.063.109.11.109.078 0 .11-.031.703-.031.563 0 .734.03.797.03.031 0 .14 0 .14-.155 0-.11-.109-.11-.203-.11-.375 0-.375-.047-.375-.125 0-.047.141-.61.375-1.547.11.188.36.47.782.47.984 0 2-1.126 2-2.282C4.14-3 3.64-3.516 3-3.516c-.484 0-.86.329-1.094.563-.172-.563-.703-.563-.781-.563-.281 0-.484.188-.61.438-.187.36-.28.765-.28.781 0 .078.062.11.124.11.11 0 .11-.032.172-.25.094-.407.235-.86.563-.86.203 0 .265.188.265.375 0 .078-.03.281-.046.344Zm1.453-3.422c.047-.14.047-.156.172-.297.297-.36.64-.547.922-.547.406 0 .547.39.547.75 0 .297-.172 1.156-.407 1.625-.203.422-.593.781-.968.781-.532 0-.672-.625-.672-.687A.46.46 0 0 1 1.5-.953Zm0 0"/></symbol><symbol overflow="visible" id="b"><path style="stroke:none" d="M2.14-3.797c0-.187-.015-.187-.203-.187-.39.39-1 .39-1.218.39v.235c.156 0 .562 0 .922-.172v3.015c0 .204 0 .282-.625.282h-.25V0c.328-.031.796-.031 1.125-.031.328 0 .796 0 1.125.031v-.234h-.25c-.625 0-.625-.078-.625-.282Zm0 0"/></symbol><symbol overflow="visible" id="c"><path style="stroke:none" d="M3.219-1.125H3c-.016.094-.078.484-.156.547-.047.047-.531.047-.625.047h-1.11l.766-.625c.203-.172.734-.547.922-.735.172-.171.422-.484.422-.906 0-.75-.672-1.187-1.485-1.187-.765 0-1.296.515-1.296 1.078 0 .297.25.344.312.344a.32.32 0 0 0 .328-.329c0-.125-.078-.328-.344-.328.141-.297.5-.531.922-.531.625 0 .953.469.953.953 0 .422-.28.86-.687 1.25L.5-.25C.437-.187.437-.187.437 0h2.594Zm0 0"/></symbol><symbol overflow="visible" id="d"><path style="stroke:none" d="M1.766-1.984c.5 0 .843.343.843.953 0 .656-.39.937-.828.937C1.61-.094 1-.125.734-.469c.235-.031.329-.187.329-.344a.328.328 0 0 0-.344-.343.34.34 0 0 0-.344.36c0 .593.656.921 1.422.921.89 0 1.469-.563 1.469-1.156 0-.438-.329-.907-1.047-1.078.484-.157.86-.547.86-1.032 0-.484-.563-.843-1.282-.843-.703 0-1.234.328-1.234.812 0 .266.203.328.328.328.156 0 .312-.094.312-.312 0-.188-.125-.297-.297-.313.281-.312.828-.312.89-.312.298 0 .688.14.688.64 0 .329-.187.907-.796.938-.11 0-.266.015-.313.015-.063.016-.125.016-.125.11s.063.094.156.094Zm0 0"/></symbol><symbol overflow="visible" id="e"><path style="stroke:none" d="M3.375-.984v-.235h-.703v-2.64c0-.141 0-.188-.14-.188-.11 0-.126.031-.173.094L.281-1.22v.235h1.86V-.5c0 .188 0 .266-.5.266h-.188V0c.125 0 .688-.031.953-.031.266 0 .828.031.938.031v-.234h-.172c-.5 0-.5-.078-.5-.266v-.484ZM2.172-3.391v2.172H.532Zm0 0"/></symbol><symbol overflow="visible" id="T"><path style="stroke:none" d="M7.578-6.922c0-.031-.016-.11-.11-.11-.03 0-.046.016-.155.126l-.688.765c-.094-.14-.547-.89-1.656-.89C2.734-7.031.5-4.828.5-2.516.5-.922 1.61.22 3.219.22c.437 0 .89-.094 1.25-.235.5-.203.687-.406.86-.609.093.25.359.61.452.61.047 0 .078-.032.078-.032.016-.015.11-.406.157-.61l.187-.765.14-.516c.11-.437.11-.468.688-.468.047 0 .157-.016.157-.203 0-.079-.047-.11-.125-.11-.235 0-.829.031-1.047.031-.313 0-1.094-.03-1.407-.03-.078 0-.203 0-.203.202 0 .11.078.11.297.11.016 0 .297 0 .531.015.266.032.313.063.313.188 0 .094-.11.531-.219.906C5.047-.203 3.766-.094 3.406-.094c-.953 0-2-.562-2-2.094 0-.312.094-1.953 1.14-3.25.548-.671 1.517-1.28 2.5-1.28 1.016 0 1.61.765 1.61 1.921 0 .406-.031.406-.031.516 0 .093.11.093.14.093.126 0 .126-.015.188-.203Zm0 0"/></symbol><symbol overflow="visible" id="Z"><path style="stroke:none" d="M.453 1.219c-.078.343-.11.406-.547.406-.11 0-.218 0-.218.188 0 .078.046.125.124.125.266 0 .563-.032.829-.032.343 0 .671.032 1 .032.046 0 .171 0 .171-.204 0-.109-.093-.109-.234-.109-.5 0-.5-.063-.5-.156 0-.125.422-1.75.484-2 .125.297.407.64.922.64 1.157 0 2.407-1.453 2.407-2.921 0-.938-.579-1.594-1.329-1.594-.5 0-.984.36-1.312.75-.094-.547-.531-.75-.89-.75-.47 0-.657.39-.735.562-.188.344-.313.938-.313.969 0 .11.094.11.11.11.11 0 .11-.016.172-.235.172-.703.375-1.188.734-1.188.172 0 .313.079.313.454 0 .234-.032.343-.079.515Zm1.75-4.328c.063-.266.344-.547.516-.704.36-.296.64-.374.812-.374.39 0 .64.343.64.937 0 .594-.327 1.734-.515 2.11-.344.702-.812 1.03-1.187 1.03-.656 0-.781-.828-.781-.89 0-.016 0-.031.03-.156Zm0 0"/></symbol><symbol overflow="visible" id="ab"><path style="stroke:none" d="M2.031-.016c0-.656-.25-1.046-.64-1.046a.517.517 0 0 0-.532.53c0 .266.204.532.532.532a.58.58 0 0 0 .343-.125c.032-.031.047-.031.047-.031.016 0 .016 0 .016.14 0 .75-.344 1.344-.672 1.672-.11.11-.11.125-.11.157 0 .078.048.109.094.109.11 0 .922-.766.922-1.938Zm0 0"/></symbol><symbol overflow="visible" id="aV"><path style="stroke:none" d="M1.688 1.688c-.032.14-.047.156-.047.203 0 .218.187.28.296.28a.413.413 0 0 0 .36-.265c.031-.078.078-.406.36-1.812.077 0 .155.015.327.015 1.657 0 3.188-1.562 3.188-3.14 0-.781-.39-1.375-1.14-1.375-1.438 0-2.048 1.937-2.641 3.875C1.312-.734.75-1.281.75-2c0-.281.234-1.375.828-2.063.094-.093.094-.109.094-.14 0-.031-.031-.094-.125-.094C1.266-4.297.5-2.844.5-1.89c0 .938.656 1.657 1.719 1.907ZM3.077-.47c-.094 0-.11 0-.187-.015-.125 0-.125 0-.125-.032 0-.015.171-.937.187-1.078.313-1.281 1.094-2.234 1.985-2.234.687 0 .953.531.953 1.015C5.89-1.688 4.608-.47 3.077-.47Zm0 0"/></symbol><symbol overflow="visible" id="aX"><path style="stroke:none" d="M4.5-4.297c0-.047-.031-.094-.094-.094-.11 0-.515.391-.672.688-.218-.547-.609-.703-.937-.703-1.172 0-2.39 1.468-2.39 2.922C.406-.516.983.109 1.718.109c.422 0 .812-.234 1.172-.593-.094.343-.422 1.687-.454 1.78-.078.282-.156.313-.718.329-.125 0-.219 0-.219.203 0 0 0 .11.125.11.313 0 .672-.032 1-.032.328 0 .688.032 1.031.032.047 0 .172 0 .172-.204 0-.109-.094-.109-.265-.109-.47 0-.47-.063-.47-.156 0-.078.016-.14.032-.219ZM1.75-.109c-.61 0-.64-.766-.64-.938 0-.484.28-1.562.452-1.984.313-.735.829-1.156 1.235-1.156.656 0 .797.812.797.875 0 .062-.547 2.25-.578 2.28-.157.282-.72.923-1.266.923Zm0 0"/></symbol><symbol overflow="visible" id="U"><path style="stroke:none" d="M2.188-4.625c0-.016.015-.11.015-.11 0-.046-.015-.109-.11-.109-.14 0-.718.063-.89.078-.047 0-.156.016-.156.157 0 .093.11.093.187.093.329 0 .329.063.329.11s-.016.093-.016.156L.563-.312c-.047.124-.047.14-.047.156 0 .11.093.218.25.218.187 0 .265-.124.312-.28.016-.032.313-1.266.344-1.36.5.047.89.219.89.578 0 .031 0 .063-.015.14-.031.094-.031.141-.031.22 0 .484.406.703.75.703.671 0 .875-1.047.875-1.063 0-.094-.079-.094-.11-.094-.094 0-.11.047-.14.172-.079.297-.266.797-.61.797-.187 0-.25-.172-.25-.36 0-.124 0-.14.047-.312a.724.724 0 0 0 .031-.219c0-.625-.828-.718-1.125-.734.204-.125.454-.36.579-.469.359-.328.703-.656 1.093-.656.078 0 .172.016.235.094a.396.396 0 0 0-.36.39c0 .141.11.25.266.25.203 0 .406-.156.406-.437a.5.5 0 0 0-.531-.5c-.406 0-.766.297-1.125.625-.297.265-.516.484-.813.61Zm0 0"/></symbol><symbol overflow="visible" id="V"><path style="stroke:none" d="M1.469-.11c0 .376-.063.829-.547 1.266-.016.032-.047.063-.047.094 0 .047.063.094.094.094.11 0 .703-.563.703-1.39 0-.423-.172-.75-.5-.75a.387.387 0 0 0-.39.39c0 .219.155.406.405.406.172 0 .282-.11.282-.11Zm0 0"/></symbol><symbol overflow="visible" id="W"><path style="stroke:none" d="M2.266-4.36a.276.276 0 0 0-.282-.265c-.187 0-.39.188-.39.39 0 .11.078.266.281.266.188 0 .39-.203.39-.39ZM.844-.811C.813-.72.78-.641.78-.516c0 .329.266.579.656.579.688 0 1-.954 1-1.063 0-.094-.093-.094-.109-.094-.094 0-.11.047-.14.125-.157.563-.454.844-.735.844-.14 0-.172-.094-.172-.25s.047-.281.11-.438c.078-.187.156-.375.218-.562.063-.172.329-.797.344-.89A.5.5 0 0 0 2-2.486c0-.328-.281-.593-.656-.593C.64-3.078.328-2.125.328-2c0 .078.094.078.125.078.094 0 .094-.031.125-.11.172-.593.485-.843.735-.843.109 0 .171.047.171.234 0 .172-.03.266-.203.704Zm0 0"/></symbol><symbol overflow="visible" id="X"><path style="stroke:none" d="M3.063-4.36a.276.276 0 0 0-.282-.265c-.203 0-.39.203-.39.39 0 .11.078.266.28.266.188 0 .392-.187.392-.39ZM1.577.345c-.11.484-.484.875-.89.875-.094 0-.172 0-.25-.032A.424.424 0 0 0 .671.829c0-.172-.14-.25-.281-.25C.187.578 0 .766 0 .984c0 .266.266.438.688.438.421 0 1.234-.25 1.453-1.094l.625-2.5c.015-.078.03-.14.03-.25 0-.375-.327-.656-.733-.656C1.28-3.078.843-2.11.843-2c0 .078.095.078.11.078.078 0 .094-.016.14-.125.173-.406.532-.828.938-.828.172 0 .235.11.235.344 0 .078 0 .172-.016.203Zm0 0"/></symbol><symbol overflow="visible" id="aS"><path style="stroke:none" d="M1.969-4.625c0-.016.031-.11.031-.11 0-.046-.031-.109-.125-.109-.14 0-.719.063-.89.078-.047 0-.141.016-.141.157 0 .093.094.093.172.093.343 0 .343.063.343.11s-.015.093-.03.156L.452-.812c-.016.078-.016.156-.016.218 0 .453.391.656.72.656.171 0 .39-.046.562-.359.156-.266.25-.672.25-.703 0-.094-.094-.094-.11-.094-.109 0-.125.047-.14.172-.094.344-.235.797-.532.797C1-.125.954-.297.954-.469A.889.889 0 0 1 1-.75Zm0 0"/></symbol><symbol overflow="visible" id="aW"><path style="stroke:none" d="M2.938-2.656c-.141-.235-.376-.422-.72-.422-.89 0-1.796.984-1.796 1.984C.422-.406.875.063 1.484.063c.375 0 .704-.204.985-.485.125.422.531.484.719.484.25 0 .421-.14.546-.359.157-.281.25-.672.25-.703 0-.094-.093-.094-.109-.094-.11 0-.11.032-.156.219-.094.344-.219.75-.516.75-.172 0-.234-.156-.234-.344 0-.11.062-.375.11-.547.046-.187.124-.468.155-.625l.141-.53c.047-.188.125-.517.125-.548 0-.156-.125-.219-.234-.219-.125 0-.282.079-.329.282ZM2.5-.875c-.047.203-.203.344-.36.469-.062.062-.343.281-.64.281-.266 0-.516-.188-.516-.672 0-.375.204-1.14.375-1.422.313-.562.672-.656.86-.656.484 0 .625.531.625.61 0 .015-.016.078-.016.093Zm0 0"/></symbol><symbol overflow="visible" id="aY"><path style="stroke:none" d="M1.844-4.625c0-.016.031-.11.031-.11 0-.046-.031-.109-.125-.109-.14 0-.719.063-.89.078-.047 0-.157.016-.157.157 0 .093.11.093.188.093.328 0 .328.063.328.11s-.063.328-.11.484l-.156.64C.891-3.031.516-1.515.5-1.421c-.047.172-.047.266-.047.344 0 .703.453 1.14 1.031 1.14.875 0 1.797-.937 1.797-1.968 0-.813-.562-1.172-1.047-1.172-.359 0-.671.203-.875.39Zm-.36 4.5c-.328 0-.53-.297-.53-.719 0-.25.062-.484.265-1.281.031-.125.031-.14.172-.297.265-.297.578-.453.828-.453.265 0 .5.203.5.672 0 .281-.14 1-.36 1.406-.171.344-.515.672-.875.672Zm0 0"/></symbol><symbol overflow="visible" id="Y"><path style="stroke:none" d="M3.297 2.39c0-.03 0-.046-.172-.218C1.891.922 1.562-.968 1.562-2.5c0-1.734.375-3.469 1.61-4.703.125-.125.125-.14.125-.172 0-.078-.031-.11-.094-.11-.11 0-1 .688-1.594 1.954C1.11-4.438.984-3.328.984-2.5c0 .781.11 1.984.657 3.125C2.25 1.844 3.094 2.5 3.203 2.5c.063 0 .094-.031.094-.11Zm0 0"/></symbol><symbol overflow="visible" id="ad"><path style="stroke:none" d="M2.875-2.5c0-.766-.11-1.969-.656-3.11C1.625-6.827.766-7.483.672-7.483a.107.107 0 0 0-.11.109c0 .031 0 .047.188.234.984.985 1.547 2.563 1.547 4.641C2.297-.78 1.937.97.703 2.22c-.14.125-.14.14-.14.172 0 .062.046.109.109.109.094 0 1-.688 1.578-1.953.516-1.094.625-2.203.625-3.047Zm0 0"/></symbol><symbol overflow="visible" id="aZ"><path style="stroke:none" d="M5.516-6.781H.328v.312h.234c.766 0 .797.11.797.469v5.219c0 .36-.03.469-.796.469H.328V0c.344-.031 1.125-.031 1.516-.031.406 0 1.312 0 1.672.031v-.313h-.329c-.937 0-.937-.124-.937-.468v-5.297c0-.328.016-.39.484-.39h1.032c1.421 0 1.625.593 1.78 1.937h.25Zm0 0"/></symbol><symbol overflow="visible" id="aa"><path style="stroke:none" d="M2.328-4.438c0-.187 0-.187-.203-.187-.453.438-1.078.438-1.36.438v.25c.157 0 .626 0 1-.188v3.547c0 .234 0 .328-.687.328H.812V0c.125 0 .985-.031 1.235-.031.219 0 1.094.031 1.25.031v-.25H3.03c-.703 0-.703-.094-.703-.328Zm0 0"/></symbol><symbol overflow="visible" id="ac"><path style="stroke:none" d="M3.516-1.266H3.28c-.015.157-.094.563-.187.625-.047.047-.578.047-.688.047h-1.28c.734-.64.984-.844 1.39-1.172.516-.406 1-.843 1-1.5 0-.843-.734-1.359-1.624-1.359-.86 0-1.454.61-1.454 1.25 0 .344.297.39.376.39a.365.365 0 0 0 .359-.374c0-.125-.047-.375-.406-.375.218-.485.687-.641 1.015-.641.703 0 1.063.547 1.063 1.11 0 .609-.438 1.078-.656 1.328L.516-.266C.437-.203.437-.187.437 0h2.876Zm0 0"/></symbol><symbol overflow="visible" id="aT"><path style="stroke:none" d="M1.906-2.328c.547 0 .938.375.938 1.125 0 .86-.516 1.125-.906 1.125-.282 0-.907-.078-1.188-.5.328 0 .406-.235.406-.39 0-.22-.172-.376-.39-.376a.38.38 0 0 0-.391.407C.375-.281 1.094.14 1.938.14c.968 0 1.64-.657 1.64-1.344 0-.547-.437-1.094-1.203-1.25.719-.266.984-.781.984-1.219 0-.547-.625-.953-1.406-.953-.766 0-1.36.375-1.36.938 0 .234.157.359.36.359.219 0 .36-.156.36-.344 0-.203-.141-.36-.36-.375.25-.297.719-.375.985-.375.312 0 .75.156.75.75 0 .297-.094.625-.282.828-.219.266-.422.281-.765.313-.172.015-.188.015-.22.015-.015 0-.077.016-.077.094 0 .094.062.094.187.094Zm0 0"/></symbol><symbol overflow="visible" id="aU"><path style="stroke:none" d="M3.688-1.14v-.25h-.782V-4.5c0-.14 0-.203-.14-.203-.094 0-.125 0-.188.11L.266-1.392v.25h2.062v.563c0 .25 0 .328-.578.328h-.188V0c.36-.016.797-.031 1.047-.031.266 0 .704.015 1.063.031v-.25h-.188c-.578 0-.578-.078-.578-.328v-.563ZM2.375-3.939v2.547H.531Zm0 0"/></symbol><symbol overflow="visible" id="ba"><path style="stroke:none" d="M2.469-5.219C1.156-4.297.797-2.812.797-1.75c0 .984.297 2.516 1.672 3.484.062 0 .14 0 .14-.078 0-.047-.015-.062-.062-.11C1.609.704 1.28-.468 1.28-1.733c0-1.891.719-2.813 1.282-3.329.03-.03.046-.046.046-.078 0-.078-.078-.078-.14-.078Zm0 0"/></symbol><symbol overflow="visible" id="bb"><path style="stroke:none" d="M.625-5.219c-.047 0-.125 0-.125.078 0 .032.016.047.063.11.593.547 1.265 1.484 1.265 3.281 0 1.453-.453 2.563-1.203 3.234C.5 1.61.5 1.61.5 1.656c0 .032.016.078.078.078.094 0 .75-.453 1.219-1.328.297-.578.5-1.328.5-2.14C2.297-2.72 2-4.25.625-5.22Zm0 0"/></symbol><symbol overflow="visible" id="bc"><path style="stroke:none" d="M6.563-2.297c.171 0 .359 0 .359-.203 0-.188-.188-.188-.36-.188h-5.39c-.172 0-.344 0-.344.188 0 .203.172.203.344.203Zm0 0"/></symbol></defs><path style="fill:none;stroke-width:.79701;stroke-linecap:butt;stroke-linejoin:miter;stroke:#000;stroke-opacity:1;stroke-miterlimit:10" d="M28.348-.002c0 15.656-12.691 28.348-28.347 28.348S-28.347 15.654-28.347-.002c0-15.652 12.692-28.344 28.348-28.344 15.656 0 28.347 12.692 28.347 28.344Zm0 0" transform="matrix(1 0 0 -1 101.925 47.502)"/><path style="fill:none;stroke-width:.6376;stroke-linecap:round;stroke-linejoin:round;stroke:#000;stroke-opacity:1;stroke-miterlimit:10" d="M-1.554 2.074C-1.427 1.295-.002.13.388 0c-.39-.13-1.815-1.296-1.942-2.074" transform="scale(-1 1) rotate(-45 -27.487 161.814)"/><use xlink:href="#a" x="111.552" y="34.609" style="fill:#000;fill-opacity:1"/><use xlink:href="#b" x="115.814" y="35.716" style="fill:#000;fill-opacity:1"/><path style="fill:none;stroke-width:.6376;stroke-linecap:round;stroke-linejoin:round;stroke:#000;stroke-opacity:1;stroke-miterlimit:10" d="M-1.554 2.073C-1.424 1.296.001.13.388-.002 0-.129-1.424-1.294-1.554-2.07" transform="scale(-1 1) rotate(45 -73.732 -85.965)"/><use xlink:href="#a" x="83.884" y="34.609" style="fill:#000;fill-opacity:1"/><use xlink:href="#c" x="88.147" y="35.716" style="fill:#000;fill-opacity:1"/><path style="fill:none;stroke-width:.6376;stroke-linecap:round;stroke-linejoin:round;stroke:#000;stroke-opacity:1;stroke-miterlimit:10" d="M-1.556 2.073C-1.426 1.297 0 .13.39 0 0-.13-1.425-1.295-1.552-2.074" transform="scale(1 -1) rotate(-45 -40.242 -131.76)"/><use xlink:href="#a" x="83.884" y="62.277" style="fill:#000;fill-opacity:1"/><use xlink:href="#d" x="88.147" y="63.384" style="fill:#000;fill-opacity:1"/><path style="fill:none;stroke-width:.6376;stroke-linecap:round;stroke-linejoin:round;stroke:#000;stroke-opacity:1;stroke-miterlimit:10" d="M-1.553 2.072C-1.423 1.295.002.13.387 0c-.385-.13-1.81-1.295-1.94-2.072" transform="scale(1 -1) rotate(45 142.875 112.604)"/><use xlink:href="#a" x="111.552" y="62.277" style="fill:#000;fill-opacity:1"/><use xlink:href="#e" x="115.814" y="63.384" style="fill:#000;fill-opacity:1"/><path style="fill:none;stroke-width:.6376;stroke-linecap:round;stroke-linejoin:round;stroke:#000;stroke-opacity:1;stroke-miterlimit:10" d="M-1.554 2.074C-1.427 1.295-.002.13.388 0c-.39-.13-1.815-1.296-1.942-2.074" transform="scale(-1 1) rotate(-45 -27.487 161.814)"/><use xlink:href="#a" x="111.552" y="34.609" style="fill:#000;fill-opacity:1"/><use xlink:href="#b" x="115.814" y="35.716" style="fill:#000;fill-opacity:1"/><path style="fill:none;stroke-width:.6376;stroke-linecap:round;stroke-linejoin:round;stroke:#000;stroke-opacity:1;stroke-miterlimit:10" d="M-1.554 2.073C-1.424 1.296.001.13.388-.002 0-.129-1.424-1.294-1.554-2.07" transform="scale(-1 1) rotate(45 -73.732 -85.965)"/><use xlink:href="#a" x="83.884" y="34.609" style="fill:#000;fill-opacity:1"/><use xlink:href="#c" x="88.147" y="35.716" style="fill:#000;fill-opacity:1"/><path style="fill:none;stroke-width:.6376;stroke-linecap:round;stroke-linejoin:round;stroke:#000;stroke-opacity:1;stroke-miterlimit:10" d="M-1.556 2.073C-1.426 1.297 0 .13.39 0 0-.13-1.425-1.295-1.552-2.074" transform="scale(1 -1) rotate(-45 -40.242 -131.76)"/><use xlink:href="#a" x="83.884" y="62.277" style="fill:#000;fill-opacity:1"/><use xlink:href="#d" x="88.147" y="63.384" style="fill:#000;fill-opacity:1"/><path style="fill:none;stroke-width:.6376;stroke-linecap:round;stroke-linejoin:round;stroke:#000;stroke-opacity:1;stroke-miterlimit:10" d="M-1.553 2.072C-1.423 1.295.002.13.387 0c-.385-.13-1.81-1.295-1.94-2.072" transform="scale(1 -1) rotate(45 142.875 112.604)"/><use xlink:href="#a" x="111.552" y="62.277" style="fill:#000;fill-opacity:1"/><use xlink:href="#e" x="115.814" y="63.384" style="fill:#000;fill-opacity:1"/><path style="fill:none;stroke-width:.6376;stroke-linecap:round;stroke-linejoin:round;stroke:#000;stroke-opacity:1;stroke-miterlimit:10" d="M-1.554 2.074C-1.427 1.295-.002.13.388 0c-.39-.13-1.815-1.296-1.942-2.074" transform="scale(-1 1) rotate(-45 -27.487 161.814)"/><use xlink:href="#a" x="111.552" y="34.609" style="fill:#000;fill-opacity:1"/><use xlink:href="#b" x="115.814" y="35.716" style="fill:#000;fill-opacity:1"/><path style="fill:none;stroke-width:.6376;stroke-linecap:round;stroke-linejoin:round;stroke:#000;stroke-opacity:1;stroke-miterlimit:10" d="M-1.554 2.073C-1.424 1.296.001.13.388-.002 0-.129-1.424-1.294-1.554-2.07" transform="scale(-1 1) rotate(45 -73.732 -85.965)"/><use xlink:href="#a" x="83.884" y="34.609" style="fill:#000;fill-opacity:1"/><use xlink:href="#c" x="88.147" y="35.716" style="fill:#000;fill-opacity:1"/><path style="fill:none;stroke-width:.6376;stroke-linecap:round;stroke-linejoin:round;stroke:#000;stroke-opacity:1;stroke-miterlimit:10" d="M-1.556 2.073C-1.426 1.297 0 .13.39 0 0-.13-1.425-1.295-1.552-2.074" transform="scale(1 -1) rotate(-45 -40.242 -131.76)"/><use xlink:href="#a" x="83.884" y="62.277" style="fill:#000;fill-opacity:1"/><use xlink:href="#d" x="88.147" y="63.384" style="fill:#000;fill-opacity:1"/><path style="fill:none;stroke-width:.6376;stroke-linecap:round;stroke-linejoin:round;stroke:#000;stroke-opacity:1;stroke-miterlimit:10" d="M-1.553 2.072C-1.423 1.295.002.13.387 0c-.385-.13-1.81-1.295-1.94-2.072" transform="scale(1 -1) rotate(45 142.875 112.604)"/><use xlink:href="#a" x="111.552" y="62.277" style="fill:#000;fill-opacity:1"/><use xlink:href="#e" x="115.814" y="63.384" style="fill:#000;fill-opacity:1"/><path style="fill:none;stroke-width:.6376;stroke-linecap:round;stroke-linejoin:round;stroke:#000;stroke-opacity:1;stroke-miterlimit:10" d="M-1.554 2.074C-1.427 1.295-.002.13.388 0c-.39-.13-1.815-1.296-1.942-2.074" transform="scale(-1 1) rotate(-45 -27.487 161.814)"/><use xlink:href="#a" x="111.552" y="34.609" style="fill:#000;fill-opacity:1"/><use xlink:href="#b" x="115.814" y="35.716" style="fill:#000;fill-opacity:1"/><path style="fill:none;stroke-width:.6376;stroke-linecap:round;stroke-linejoin:round;stroke:#000;stroke-opacity:1;stroke-miterlimit:10" d="M-1.554 2.073C-1.424 1.296.001.13.388-.002 0-.129-1.424-1.294-1.554-2.07" transform="scale(-1 1) rotate(45 -73.732 -85.965)"/><use xlink:href="#a" x="83.884" y="34.609" style="fill:#000;fill-opacity:1"/><use xlink:href="#c" x="88.147" y="35.716" style="fill:#000;fill-opacity:1"/><path style="fill:none;stroke-width:.6376;stroke-linecap:round;stroke-linejoin:round;stroke:#000;stroke-opacity:1;stroke-miterlimit:10" d="M-1.556 2.073C-1.426 1.297 0 .13.39 0 0-.13-1.425-1.295-1.552-2.074" transform="scale(1 -1) rotate(-45 -40.242 -131.76)"/><use xlink:href="#a" x="83.884" y="62.277" style="fill:#000;fill-opacity:1"/><use xlink:href="#d" x="88.147" y="63.384" style="fill:#000;fill-opacity:1"/><path style="fill:none;stroke-width:.6376;stroke-linecap:round;stroke-linejoin:round;stroke:#000;stroke-opacity:1;stroke-miterlimit:10" d="M-1.553 2.072C-1.423 1.295.002.13.387 0c-.385-.13-1.81-1.295-1.94-2.072" transform="scale(1 -1) rotate(45 142.875 112.604)"/><use xlink:href="#a" x="111.552" y="62.277" style="fill:#000;fill-opacity:1"/><use xlink:href="#e" x="115.814" y="63.384" style="fill:#000;fill-opacity:1"/><path style="fill-rule:nonzero;fill:#fff;fill-opacity:1;stroke-width:.3985;stroke-linecap:butt;stroke-linejoin:miter;stroke:#000;stroke-opacity:1;stroke-miterlimit:10" d="M4.25 28.346A4.253 4.253 0 0 1 0 32.6a4.256 4.256 0 0 1-4.253-4.254 4.253 4.253 0 0 1 8.504 0Zm0 0" transform="matrix(1 0 0 -1 101.925 47.502)"/><g clip-path="url(#f)"><g clip-path="url(#g)"><path style="fill:none;stroke-width:.3985;stroke-linecap:butt;stroke-linejoin:miter;stroke:#000;stroke-opacity:1;stroke-miterlimit:10" d="m-.002 0 3.09 3.089" transform="matrix(1 0 0 -1 95.643 27.257)"/></g></g><g clip-path="url(#h)"><g clip-path="url(#i)"><path style="fill:none;stroke-width:.3985;stroke-linecap:butt;stroke-linejoin:miter;stroke:#000;stroke-opacity:1;stroke-miterlimit:10" d="m.001 0 3.086 3.089" transform="matrix(1 0 0 -1 98.631 27.257)"/></g></g><g clip-path="url(#j)"><g clip-path="url(#k)"><path style="fill:none;stroke-width:.3985;stroke-linecap:butt;stroke-linejoin:miter;stroke:#000;stroke-opacity:1;stroke-miterlimit:10" d="m0 0 3.087 3.089" transform="matrix(1 0 0 -1 101.62 27.257)"/></g></g><g clip-path="url(#l)"><g clip-path="url(#m)"><path style="fill:none;stroke-width:.3985;stroke-linecap:butt;stroke-linejoin:miter;stroke:#000;stroke-opacity:1;stroke-miterlimit:10" d="m0 0 3.09 3.089" transform="matrix(1 0 0 -1 104.609 27.257)"/></g></g><g clip-path="url(#n)"><g clip-path="url(#o)"><path style="fill:none;stroke-width:.3985;stroke-linecap:butt;stroke-linejoin:miter;stroke:#000;stroke-opacity:1;stroke-miterlimit:10" d="m-.002-.001 3.09 3.09" transform="matrix(1 0 0 -1 95.643 24.268)"/></g></g><g clip-path="url(#p)"><g clip-path="url(#q)"><path style="fill:none;stroke-width:.3985;stroke-linecap:butt;stroke-linejoin:miter;stroke:#000;stroke-opacity:1;stroke-miterlimit:10" d="m.001-.001 3.086 3.09" transform="matrix(1 0 0 -1 98.631 24.268)"/></g></g><g clip-path="url(#r)"><g clip-path="url(#s)"><path style="fill:none;stroke-width:.3985;stroke-linecap:butt;stroke-linejoin:miter;stroke:#000;stroke-opacity:1;stroke-miterlimit:10" d="m0-.001 3.087 3.09" transform="matrix(1 0 0 -1 101.62 24.268)"/></g></g><g clip-path="url(#t)"><g clip-path="url(#u)"><path style="fill:none;stroke-width:.3985;stroke-linecap:butt;stroke-linejoin:miter;stroke:#000;stroke-opacity:1;stroke-miterlimit:10" d="m0-.001 3.09 3.09" transform="matrix(1 0 0 -1 104.609 24.268)"/></g></g><g clip-path="url(#v)"><g clip-path="url(#w)"><path style="fill:none;stroke-width:.3985;stroke-linecap:butt;stroke-linejoin:miter;stroke:#000;stroke-opacity:1;stroke-miterlimit:10" d="m-.002.002 3.09 3.086" transform="matrix(1 0 0 -1 95.643 21.28)"/></g></g><g clip-path="url(#x)"><g clip-path="url(#y)"><path style="fill:none;stroke-width:.3985;stroke-linecap:butt;stroke-linejoin:miter;stroke:#000;stroke-opacity:1;stroke-miterlimit:10" d="m.001.002 3.086 3.086" transform="matrix(1 0 0 -1 98.631 21.28)"/></g></g><g clip-path="url(#z)"><g clip-path="url(#A)"><path style="fill:none;stroke-width:.3985;stroke-linecap:butt;stroke-linejoin:miter;stroke:#000;stroke-opacity:1;stroke-miterlimit:10" d="m0 .002 3.087 3.086" transform="matrix(1 0 0 -1 101.62 21.28)"/></g></g><g clip-path="url(#B)"><g clip-path="url(#C)"><path style="fill:none;stroke-width:.3985;stroke-linecap:butt;stroke-linejoin:miter;stroke:#000;stroke-opacity:1;stroke-miterlimit:10" d="m0 .002 3.09 3.086" transform="matrix(1 0 0 -1 104.609 21.28)"/></g></g><g clip-path="url(#D)"><g clip-path="url(#E)"><path style="fill:none;stroke-width:.3985;stroke-linecap:butt;stroke-linejoin:miter;stroke:#000;stroke-opacity:1;stroke-miterlimit:10" d="m-.002.001 3.09 3.086" transform="matrix(1 0 0 -1 95.643 18.29)"/></g></g><g clip-path="url(#F)"><g clip-path="url(#G)"><path style="fill:none;stroke-width:.3985;stroke-linecap:butt;stroke-linejoin:miter;stroke:#000;stroke-opacity:1;stroke-miterlimit:10" d="m.001.001 3.086 3.086" transform="matrix(1 0 0 -1 98.631 18.29)"/></g></g><g clip-path="url(#H)"><g clip-path="url(#I)"><path style="fill:none;stroke-width:.3985;stroke-linecap:butt;stroke-linejoin:miter;stroke:#000;stroke-opacity:1;stroke-miterlimit:10" d="m0 .001 3.087 3.086" transform="matrix(1 0 0 -1 101.62 18.29)"/></g></g><g clip-path="url(#J)"><g clip-path="url(#K)"><path style="fill:none;stroke-width:.3985;stroke-linecap:butt;stroke-linejoin:miter;stroke:#000;stroke-opacity:1;stroke-miterlimit:10" d="m0 .001 3.09 3.086" transform="matrix(1 0 0 -1 104.609 18.29)"/></g></g><g clip-path="url(#L)"><g clip-path="url(#M)"><path style="fill:none;stroke-width:.3985;stroke-linecap:butt;stroke-linejoin:miter;stroke:#000;stroke-opacity:1;stroke-miterlimit:10" d="m-.002 0 3.09 3.087" transform="matrix(1 0 0 -1 95.643 15.302)"/></g></g><g clip-path="url(#N)"><g clip-path="url(#O)"><path style="fill:none;stroke-width:.3985;stroke-linecap:butt;stroke-linejoin:miter;stroke:#000;stroke-opacity:1;stroke-miterlimit:10" d="m.001 0 3.086 3.087" transform="matrix(1 0 0 -1 98.631 15.302)"/></g></g><g clip-path="url(#P)"><g clip-path="url(#Q)"><path style="fill:none;stroke-width:.3985;stroke-linecap:butt;stroke-linejoin:miter;stroke:#000;stroke-opacity:1;stroke-miterlimit:10" d="m0 0 3.087 3.087" transform="matrix(1 0 0 -1 101.62 15.302)"/></g></g><g clip-path="url(#R)"><g clip-path="url(#S)"><path style="fill:none;stroke-width:.3985;stroke-linecap:butt;stroke-linejoin:miter;stroke:#000;stroke-opacity:1;stroke-miterlimit:10" d="m0 0 3.09 3.087" transform="matrix(1 0 0 -1 104.609 15.302)"/></g></g><use xlink:href="#T" x="75.545" y="10.793" style="fill:#000;fill-opacity:1"/><use xlink:href="#U" x="83.378" y="12.287" style="fill:#000;fill-opacity:1"/><g style="fill:#000;fill-opacity:1"><use xlink:href="#V" x="87.781" y="12.287"/><use xlink:href="#W" x="90.147" y="12.287"/><use xlink:href="#X" x="92.966" y="12.287"/></g><use xlink:href="#Y" x="97.164" y="10.793" style="fill:#000;fill-opacity:1"/><use xlink:href="#Z" x="101.039" y="10.793" style="fill:#000;fill-opacity:1"/><use xlink:href="#aa" x="106.051" y="12.287" style="fill:#000;fill-opacity:1"/><use xlink:href="#ab" x="110.521" y="10.793" style="fill:#000;fill-opacity:1"/><use xlink:href="#Z" x="114.952" y="10.793" style="fill:#000;fill-opacity:1"/><use xlink:href="#ac" x="119.961" y="12.287" style="fill:#000;fill-opacity:1"/><use xlink:href="#ad" x="124.43" y="10.793" style="fill:#000;fill-opacity:1"/><path style="fill-rule:nonzero;fill:#fff;fill-opacity:1;stroke-width:.3985;stroke-linecap:butt;stroke-linejoin:miter;stroke:#000;stroke-opacity:1;stroke-miterlimit:10" d="M4.25-28.346a4.253 4.253 0 0 1-8.504 0A4.256 4.256 0 0 1 .002-32.6a4.253 4.253 0 0 1 4.25 4.254Zm0 0" transform="matrix(1 0 0 -1 101.925 47.502)"/><g clip-path="url(#ae)"><g clip-path="url(#af)"><path style="fill:none;stroke-width:.3985;stroke-linecap:butt;stroke-linejoin:miter;stroke:#000;stroke-opacity:1;stroke-miterlimit:10" d="m-.002.002 3.09 3.086" transform="matrix(1 0 0 -1 95.643 84.045)"/></g></g><g clip-path="url(#ag)"><g clip-path="url(#ah)"><path style="fill:none;stroke-width:.3985;stroke-linecap:butt;stroke-linejoin:miter;stroke:#000;stroke-opacity:1;stroke-miterlimit:10" d="m.001.002 3.086 3.086" transform="matrix(1 0 0 -1 98.631 84.045)"/></g></g><g clip-path="url(#ai)"><g clip-path="url(#aj)"><path style="fill:none;stroke-width:.3985;stroke-linecap:butt;stroke-linejoin:miter;stroke:#000;stroke-opacity:1;stroke-miterlimit:10" d="m0 .002 3.087 3.086" transform="matrix(1 0 0 -1 101.62 84.045)"/></g></g><g clip-path="url(#ak)"><g clip-path="url(#al)"><path style="fill:none;stroke-width:.3985;stroke-linecap:butt;stroke-linejoin:miter;stroke:#000;stroke-opacity:1;stroke-miterlimit:10" d="m0 .002 3.09 3.086" transform="matrix(1 0 0 -1 104.609 84.045)"/></g></g><g clip-path="url(#am)"><g clip-path="url(#an)"><path style="fill:none;stroke-width:.3985;stroke-linecap:butt;stroke-linejoin:miter;stroke:#000;stroke-opacity:1;stroke-miterlimit:10" d="m-.002.001 3.09 3.086" transform="matrix(1 0 0 -1 95.643 81.056)"/></g></g><g clip-path="url(#ao)"><g clip-path="url(#ap)"><path style="fill:none;stroke-width:.3985;stroke-linecap:butt;stroke-linejoin:miter;stroke:#000;stroke-opacity:1;stroke-miterlimit:10" d="m.001.001 3.086 3.086" transform="matrix(1 0 0 -1 98.631 81.056)"/></g></g><g clip-path="url(#aq)"><g clip-path="url(#ar)"><path style="fill:none;stroke-width:.3985;stroke-linecap:butt;stroke-linejoin:miter;stroke:#000;stroke-opacity:1;stroke-miterlimit:10" d="m0 .001 3.087 3.086" transform="matrix(1 0 0 -1 101.62 81.056)"/></g></g><g clip-path="url(#as)"><g clip-path="url(#at)"><path style="fill:none;stroke-width:.3985;stroke-linecap:butt;stroke-linejoin:miter;stroke:#000;stroke-opacity:1;stroke-miterlimit:10" d="m0 .001 3.09 3.086" transform="matrix(1 0 0 -1 104.609 81.056)"/></g></g><g clip-path="url(#au)"><g clip-path="url(#av)"><path style="fill:none;stroke-width:.3985;stroke-linecap:butt;stroke-linejoin:miter;stroke:#000;stroke-opacity:1;stroke-miterlimit:10" d="m-.002 0 3.09 3.087" transform="matrix(1 0 0 -1 95.643 78.067)"/></g></g><g clip-path="url(#aw)"><g clip-path="url(#ax)"><path style="fill:none;stroke-width:.3985;stroke-linecap:butt;stroke-linejoin:miter;stroke:#000;stroke-opacity:1;stroke-miterlimit:10" d="m.001 0 3.086 3.087" transform="matrix(1 0 0 -1 98.631 78.067)"/></g></g><g clip-path="url(#ay)"><g clip-path="url(#az)"><path style="fill:none;stroke-width:.3985;stroke-linecap:butt;stroke-linejoin:miter;stroke:#000;stroke-opacity:1;stroke-miterlimit:10" d="m0 0 3.087 3.087" transform="matrix(1 0 0 -1 101.62 78.067)"/></g></g><g clip-path="url(#aA)"><g clip-path="url(#aB)"><path style="fill:none;stroke-width:.3985;stroke-linecap:butt;stroke-linejoin:miter;stroke:#000;stroke-opacity:1;stroke-miterlimit:10" d="m0 0 3.09 3.087" transform="matrix(1 0 0 -1 104.609 78.067)"/></g></g><g clip-path="url(#aC)"><g clip-path="url(#aD)"><path style="fill:none;stroke-width:.3985;stroke-linecap:butt;stroke-linejoin:miter;stroke:#000;stroke-opacity:1;stroke-miterlimit:10" d="m-.002 0 3.09 3.09" transform="matrix(1 0 0 -1 95.643 75.078)"/></g></g><g clip-path="url(#aE)"><g clip-path="url(#aF)"><path style="fill:none;stroke-width:.3985;stroke-linecap:butt;stroke-linejoin:miter;stroke:#000;stroke-opacity:1;stroke-miterlimit:10" d="m.001 0 3.086 3.09" transform="matrix(1 0 0 -1 98.631 75.078)"/></g></g><g clip-path="url(#aG)"><g clip-path="url(#aH)"><path style="fill:none;stroke-width:.3985;stroke-linecap:butt;stroke-linejoin:miter;stroke:#000;stroke-opacity:1;stroke-miterlimit:10" d="m0 0 3.087 3.09" transform="matrix(1 0 0 -1 101.62 75.078)"/></g></g><g clip-path="url(#aI)"><g clip-path="url(#aJ)"><path style="fill:none;stroke-width:.3985;stroke-linecap:butt;stroke-linejoin:miter;stroke:#000;stroke-opacity:1;stroke-miterlimit:10" d="m0 0 3.09 3.09" transform="matrix(1 0 0 -1 104.609 75.078)"/></g></g><g clip-path="url(#aK)"><g clip-path="url(#aL)"><path style="fill:none;stroke-width:.3985;stroke-linecap:butt;stroke-linejoin:miter;stroke:#000;stroke-opacity:1;stroke-miterlimit:10" d="m-.002 0 3.09 3.09" transform="matrix(1 0 0 -1 95.643 72.09)"/></g></g><g clip-path="url(#aM)"><g clip-path="url(#aN)"><path style="fill:none;stroke-width:.3985;stroke-linecap:butt;stroke-linejoin:miter;stroke:#000;stroke-opacity:1;stroke-miterlimit:10" d="m.001 0 3.086 3.09" transform="matrix(1 0 0 -1 98.631 72.09)"/></g></g><g clip-path="url(#aO)"><g clip-path="url(#aP)"><path style="fill:none;stroke-width:.3985;stroke-linecap:butt;stroke-linejoin:miter;stroke:#000;stroke-opacity:1;stroke-miterlimit:10" d="m0 0 3.087 3.09" transform="matrix(1 0 0 -1 101.62 72.09)"/></g></g><g clip-path="url(#aQ)"><g clip-path="url(#aR)"><path style="fill:none;stroke-width:.3985;stroke-linecap:butt;stroke-linejoin:miter;stroke:#000;stroke-opacity:1;stroke-miterlimit:10" d="m0 0 3.09 3.09" transform="matrix(1 0 0 -1 104.609 72.09)"/></g></g><use xlink:href="#T" x="75.322" y="89.829" style="fill:#000;fill-opacity:1"/><use xlink:href="#U" x="83.155" y="91.323" style="fill:#000;fill-opacity:1"/><g style="fill:#000;fill-opacity:1"><use xlink:href="#V" x="87.558" y="91.323"/><use xlink:href="#U" x="89.924" y="91.323"/></g><use xlink:href="#aS" x="94.326" y="91.323" style="fill:#000;fill-opacity:1"/><use xlink:href="#Y" x="97.387" y="89.829" style="fill:#000;fill-opacity:1"/><use xlink:href="#Z" x="101.261" y="89.829" style="fill:#000;fill-opacity:1"/><use xlink:href="#aT" x="106.274" y="91.323" style="fill:#000;fill-opacity:1"/><use xlink:href="#ab" x="110.743" y="89.829" style="fill:#000;fill-opacity:1"/><use xlink:href="#Z" x="115.174" y="89.829" style="fill:#000;fill-opacity:1"/><use xlink:href="#aU" x="120.183" y="91.323" style="fill:#000;fill-opacity:1"/><use xlink:href="#ad" x="124.653" y="89.829" style="fill:#000;fill-opacity:1"/><path style="fill:none;stroke-width:.3985;stroke-linecap:butt;stroke-linejoin:miter;stroke:#000;stroke-opacity:1;stroke-miterlimit:10" d="M-56.695-.002h28.348" transform="matrix(1 0 0 -1 101.925 47.502)"/><use xlink:href="#aV" x="50.902" y="55.311" style="fill:#000;fill-opacity:1"/><use xlink:href="#aW" x="57.419" y="56.806" style="fill:#000;fill-opacity:1"/><path style="fill:none;stroke-width:.59776;stroke-linecap:butt;stroke-linejoin:miter;stroke:#000;stroke-opacity:1;stroke-miterlimit:10" d="M-51.714 4.982H-41" transform="matrix(1 0 0 -1 101.925 47.502)"/><path style="fill:none;stroke-width:.4782;stroke-linecap:round;stroke-linejoin:round;stroke:#000;stroke-opacity:1;stroke-miterlimit:10" d="M-1.377 1.833C-1.259 1.146-.002.114.343.001c-.345-.117-1.602-1.148-1.72-1.836" transform="matrix(1 0 0 -1 60.927 42.52)"/><use xlink:href="#aX" x="51.403" y="36.964" style="fill:#000;fill-opacity:1"/><use xlink:href="#aa" x="55.851" y="38.459" style="fill:#000;fill-opacity:1"/><path style="fill:none;stroke-width:.3985;stroke-linecap:butt;stroke-linejoin:miter;stroke:#000;stroke-opacity:1;stroke-miterlimit:10" d="M28.348-.002h28.344" transform="matrix(1 0 0 -1 101.925 47.502)"/><use xlink:href="#aV" x="142.02" y="55.311" style="fill:#000;fill-opacity:1"/><use xlink:href="#aY" x="148.537" y="56.806" style="fill:#000;fill-opacity:1"/><path style="fill:none;stroke-width:.59776;stroke-linecap:butt;stroke-linejoin:miter;stroke:#000;stroke-opacity:1;stroke-miterlimit:10" d="M40.415 4.982H51.13" transform="matrix(1 0 0 -1 101.925 47.502)"/><path style="fill:none;stroke-width:.4782;stroke-linecap:round;stroke-linejoin:round;stroke:#000;stroke-opacity:1;stroke-miterlimit:10" d="M-1.375 1.833C-1.26 1.146 0 .114.344.001 0-.116-1.261-1.147-1.375-1.835" transform="matrix(1 0 0 -1 153.054 42.52)"/><use xlink:href="#aX" x="143.529" y="36.964" style="fill:#000;fill-opacity:1"/><use xlink:href="#ac" x="147.977" y="38.458" style="fill:#000;fill-opacity:1"/><use xlink:href="#aZ" x="3.321" y="22.178" style="fill:#000;fill-opacity:1"/><g style="fill:#000;fill-opacity:1"><use xlink:href="#ba" x="9.547" y="17.003"/><use xlink:href="#aT" x="12.66" y="17.003"/><use xlink:href="#bb" x="16.632" y="17.003"/></g><use xlink:href="#U" x="9.547" y="25.183" style="fill:#000;fill-opacity:1"/><g style="fill:#000;fill-opacity:1"><use xlink:href="#V" x="13.95" y="25.183"/><use xlink:href="#aW" x="16.316" y="25.183"/><use xlink:href="#X" x="20.637" y="25.183"/></g><use xlink:href="#U" x="24.338" y="25.183" style="fill:#000;fill-opacity:1"/><use xlink:href="#Y" x="29.24" y="22.178" style="fill:#000;fill-opacity:1"/><use xlink:href="#aX" x="33.114" y="22.178" style="fill:#000;fill-opacity:1"/><use xlink:href="#aa" x="37.562" y="23.672" style="fill:#000;fill-opacity:1"/><use xlink:href="#ab" x="42.031" y="22.178" style="fill:#000;fill-opacity:1"/><use xlink:href="#Z" x="46.462" y="22.178" style="fill:#000;fill-opacity:1"/><use xlink:href="#ac" x="51.471" y="23.672" style="fill:#000;fill-opacity:1"/><use xlink:href="#ab" x="55.941" y="22.178" style="fill:#000;fill-opacity:1"/><use xlink:href="#bc" x="60.369" y="22.178" style="fill:#000;fill-opacity:1"/><use xlink:href="#Z" x="68.117" y="22.178" style="fill:#000;fill-opacity:1"/><use xlink:href="#aT" x="73.13" y="23.672" style="fill:#000;fill-opacity:1"/><use xlink:href="#ad" x="77.599" y="22.178" style="fill:#000;fill-opacity:1"/><path style="fill:none;stroke-width:.3985;stroke-linecap:butt;stroke-linejoin:miter;stroke:gray;stroke-opacity:1;stroke-miterlimit:10" d="m-43.116 20.951 14.77-20.953" transform="matrix(1 0 0 -1 101.925 47.502)"/><path style="fill-rule:nonzero;fill:#fff;fill-opacity:1;stroke-width:.3985;stroke-linecap:butt;stroke-linejoin:miter;stroke:#000;stroke-opacity:1;stroke-miterlimit:10" d="M-23.386-.002a4.96 4.96 0 1 1-9.922 0 4.96 4.96 0 0 1 4.961-4.957 4.96 4.96 0 0 1 4.961 4.957Zm0 0" transform="matrix(1 0 0 -1 101.925 47.502)"/><g clip-path="url(#bd)"><g clip-path="url(#be)"><path style="fill:none;stroke-width:.3985;stroke-linecap:butt;stroke-linejoin:miter;stroke:#000;stroke-opacity:1;stroke-miterlimit:10" d="m0 0 3.09 3.09" transform="matrix(1 0 0 -1 65.754 54.156)"/></g></g><g clip-path="url(#bf)"><g clip-path="url(#bg)"><path style="fill:none;stroke-width:.3985;stroke-linecap:butt;stroke-linejoin:miter;stroke:#000;stroke-opacity:1;stroke-miterlimit:10" d="m0 0 3.089 3.09" transform="matrix(1 0 0 -1 68.743 54.156)"/></g></g><g clip-path="url(#bh)"><g clip-path="url(#bi)"><path style="fill:none;stroke-width:.3985;stroke-linecap:butt;stroke-linejoin:miter;stroke:#000;stroke-opacity:1;stroke-miterlimit:10" d="m-.001 0 3.09 3.09" transform="matrix(1 0 0 -1 71.732 54.156)"/></g></g><g clip-path="url(#bj)"><g clip-path="url(#bk)"><path style="fill:none;stroke-width:.3985;stroke-linecap:butt;stroke-linejoin:miter;stroke:#000;stroke-opacity:1;stroke-miterlimit:10" d="m.002 0 3.086 3.09" transform="matrix(1 0 0 -1 74.72 54.156)"/></g></g><g clip-path="url(#bl)"><g clip-path="url(#bm)"><path style="fill:none;stroke-width:.3985;stroke-linecap:butt;stroke-linejoin:miter;stroke:#000;stroke-opacity:1;stroke-miterlimit:10" d="m.001 0 3.086 3.09" transform="matrix(1 0 0 -1 77.71 54.156)"/></g></g><g clip-path="url(#bn)"><g clip-path="url(#bo)"><path style="fill:none;stroke-width:.3985;stroke-linecap:butt;stroke-linejoin:miter;stroke:#000;stroke-opacity:1;stroke-miterlimit:10" d="m0 0 3.09 3.09" transform="matrix(1 0 0 -1 65.754 51.168)"/></g></g><g clip-path="url(#bp)"><g clip-path="url(#bq)"><path style="fill:none;stroke-width:.3985;stroke-linecap:butt;stroke-linejoin:miter;stroke:#000;stroke-opacity:1;stroke-miterlimit:10" d="m0 0 3.089 3.09" transform="matrix(1 0 0 -1 68.743 51.168)"/></g></g><g clip-path="url(#br)"><g clip-path="url(#bs)"><path style="fill:none;stroke-width:.3985;stroke-linecap:butt;stroke-linejoin:miter;stroke:#000;stroke-opacity:1;stroke-miterlimit:10" d="m-.001 0 3.09 3.09" transform="matrix(1 0 0 -1 71.732 51.168)"/></g></g><g clip-path="url(#bt)"><g clip-path="url(#bu)"><path style="fill:none;stroke-width:.3985;stroke-linecap:butt;stroke-linejoin:miter;stroke:#000;stroke-opacity:1;stroke-miterlimit:10" d="m.002 0 3.086 3.09" transform="matrix(1 0 0 -1 74.72 51.168)"/></g></g><g clip-path="url(#bv)"><g clip-path="url(#bw)"><path style="fill:none;stroke-width:.3985;stroke-linecap:butt;stroke-linejoin:miter;stroke:#000;stroke-opacity:1;stroke-miterlimit:10" d="m.001 0 3.086 3.09" transform="matrix(1 0 0 -1 77.71 51.168)"/></g></g><g clip-path="url(#bx)"><g clip-path="url(#by)"><path style="fill:none;stroke-width:.3985;stroke-linecap:butt;stroke-linejoin:miter;stroke:#000;stroke-opacity:1;stroke-miterlimit:10" d="m0-.001 3.09 3.09" transform="matrix(1 0 0 -1 65.754 48.179)"/></g></g><g clip-path="url(#bz)"><g clip-path="url(#bA)"><path style="fill:none;stroke-width:.3985;stroke-linecap:butt;stroke-linejoin:miter;stroke:#000;stroke-opacity:1;stroke-miterlimit:10" d="m0-.001 3.089 3.09" transform="matrix(1 0 0 -1 68.743 48.179)"/></g></g><g clip-path="url(#bB)"><g clip-path="url(#bC)"><path style="fill:none;stroke-width:.3985;stroke-linecap:butt;stroke-linejoin:miter;stroke:#000;stroke-opacity:1;stroke-miterlimit:10" d="m-.001-.001 3.09 3.09" transform="matrix(1 0 0 -1 71.732 48.179)"/></g></g><g clip-path="url(#bD)"><g clip-path="url(#bE)"><path style="fill:none;stroke-width:.3985;stroke-linecap:butt;stroke-linejoin:miter;stroke:#000;stroke-opacity:1;stroke-miterlimit:10" d="m.002-.001 3.086 3.09" transform="matrix(1 0 0 -1 74.72 48.179)"/></g></g><g clip-path="url(#bF)"><g clip-path="url(#bG)"><path style="fill:none;stroke-width:.3985;stroke-linecap:butt;stroke-linejoin:miter;stroke:#000;stroke-opacity:1;stroke-miterlimit:10" d="m.001-.001 3.086 3.09" transform="matrix(1 0 0 -1 77.71 48.179)"/></g></g><g clip-path="url(#bH)"><g clip-path="url(#bI)"><path style="fill:none;stroke-width:.3985;stroke-linecap:butt;stroke-linejoin:miter;stroke:#000;stroke-opacity:1;stroke-miterlimit:10" d="m0-.002 3.09 3.09" transform="matrix(1 0 0 -1 65.754 45.19)"/></g></g><g clip-path="url(#bJ)"><g clip-path="url(#bK)"><path style="fill:none;stroke-width:.3985;stroke-linecap:butt;stroke-linejoin:miter;stroke:#000;stroke-opacity:1;stroke-miterlimit:10" d="m0-.002 3.089 3.09" transform="matrix(1 0 0 -1 68.743 45.19)"/></g></g><g clip-path="url(#bL)"><g clip-path="url(#bM)"><path style="fill:none;stroke-width:.3985;stroke-linecap:butt;stroke-linejoin:miter;stroke:#000;stroke-opacity:1;stroke-miterlimit:10" d="m-.001-.002 3.09 3.09" transform="matrix(1 0 0 -1 71.732 45.19)"/></g></g><g clip-path="url(#bN)"><g clip-path="url(#bO)"><path style="fill:none;stroke-width:.3985;stroke-linecap:butt;stroke-linejoin:miter;stroke:#000;stroke-opacity:1;stroke-miterlimit:10" d="m.002-.002 3.086 3.09" transform="matrix(1 0 0 -1 74.72 45.19)"/></g></g><g clip-path="url(#bP)"><g clip-path="url(#bQ)"><path style="fill:none;stroke-width:.3985;stroke-linecap:butt;stroke-linejoin:miter;stroke:#000;stroke-opacity:1;stroke-miterlimit:10" d="m.001-.002 3.086 3.09" transform="matrix(1 0 0 -1 77.71 45.19)"/></g></g><g clip-path="url(#bR)"><g clip-path="url(#bS)"><path style="fill:none;stroke-width:.3985;stroke-linecap:butt;stroke-linejoin:miter;stroke:#000;stroke-opacity:1;stroke-miterlimit:10" d="m0 .002 3.09 3.086" transform="matrix(1 0 0 -1 65.754 42.201)"/></g></g><g clip-path="url(#bT)"><g clip-path="url(#bU)"><path style="fill:none;stroke-width:.3985;stroke-linecap:butt;stroke-linejoin:miter;stroke:#000;stroke-opacity:1;stroke-miterlimit:10" d="m0 .002 3.089 3.086" transform="matrix(1 0 0 -1 68.743 42.201)"/></g></g><g clip-path="url(#bV)"><g clip-path="url(#bW)"><path style="fill:none;stroke-width:.3985;stroke-linecap:butt;stroke-linejoin:miter;stroke:#000;stroke-opacity:1;stroke-miterlimit:10" d="m-.001.002 3.09 3.086" transform="matrix(1 0 0 -1 71.732 42.201)"/></g></g><g clip-path="url(#bX)"><g clip-path="url(#bY)"><path style="fill:none;stroke-width:.3985;stroke-linecap:butt;stroke-linejoin:miter;stroke:#000;stroke-opacity:1;stroke-miterlimit:10" d="m.002.002 3.086 3.086" transform="matrix(1 0 0 -1 74.72 42.201)"/></g></g><g clip-path="url(#bZ)"><g clip-path="url(#ca)"><path style="fill:none;stroke-width:.3985;stroke-linecap:butt;stroke-linejoin:miter;stroke:#000;stroke-opacity:1;stroke-miterlimit:10" d="m.001.002 3.086 3.086" transform="matrix(1 0 0 -1 77.71 42.201)"/></g></g><use xlink:href="#aZ" x="120.273" y="22.178" style="fill:#000;fill-opacity:1"/><g style="fill:#000;fill-opacity:1"><use xlink:href="#ba" x="126.5" y="17.003"/><use xlink:href="#aT" x="129.613" y="17.003"/><use xlink:href="#bb" x="133.585" y="17.003"/></g><use xlink:href="#U" x="126.5" y="25.183" style="fill:#000;fill-opacity:1"/><g style="fill:#000;fill-opacity:1"><use xlink:href="#V" x="130.903" y="25.183"/><use xlink:href="#aY" x="133.269" y="25.183"/><use xlink:href="#aS" x="136.772" y="25.183"/></g><use xlink:href="#W" x="139.334" y="25.183" style="fill:#000;fill-opacity:1"/><use xlink:href="#Y" x="142.65" y="22.178" style="fill:#000;fill-opacity:1"/><use xlink:href="#bc" x="146.524" y="22.178" style="fill:#000;fill-opacity:1"/><use xlink:href="#aX" x="154.273" y="22.178" style="fill:#000;fill-opacity:1"/><use xlink:href="#ac" x="158.72" y="23.672" style="fill:#000;fill-opacity:1"/><use xlink:href="#ab" x="163.19" y="22.178" style="fill:#000;fill-opacity:1"/><use xlink:href="#bc" x="167.617" y="22.178" style="fill:#000;fill-opacity:1"/><use xlink:href="#Z" x="175.366" y="22.178" style="fill:#000;fill-opacity:1"/><use xlink:href="#aa" x="180.379" y="23.672" style="fill:#000;fill-opacity:1"/><use xlink:href="#ab" x="184.848" y="22.178" style="fill:#000;fill-opacity:1"/><use xlink:href="#Z" x="189.279" y="22.178" style="fill:#000;fill-opacity:1"/><use xlink:href="#aU" x="194.288" y="23.672" style="fill:#000;fill-opacity:1"/><use xlink:href="#ad" x="198.758" y="22.178" style="fill:#000;fill-opacity:1"/><path style="fill:none;stroke-width:.3985;stroke-linecap:butt;stroke-linejoin:miter;stroke:gray;stroke-opacity:1;stroke-miterlimit:10" d="M43.114 20.951 28.348-.002" transform="matrix(1 0 0 -1 101.925 47.502)"/><path style="fill-rule:nonzero;fill:#fff;fill-opacity:1;stroke-width:.3985;stroke-linecap:butt;stroke-linejoin:miter;stroke:#000;stroke-opacity:1;stroke-miterlimit:10" d="M33.31-.002a4.96 4.96 0 0 1-4.962 4.961 4.958 4.958 0 0 1-4.96-4.96 4.957 4.957 0 0 1 4.96-4.958A4.96 4.96 0 0 1 33.31-.002Zm0 0" transform="matrix(1 0 0 -1 101.925 47.502)"/><g clip-path="url(#cb)"><g clip-path="url(#cc)"><path style="fill:none;stroke-width:.3985;stroke-linecap:butt;stroke-linejoin:miter;stroke:#000;stroke-opacity:1;stroke-miterlimit:10" d="m0 0 3.087 3.09" transform="matrix(1 0 0 -1 122.542 54.156)"/></g></g><g clip-path="url(#cd)"><g clip-path="url(#ce)"><path style="fill:none;stroke-width:.3985;stroke-linecap:butt;stroke-linejoin:miter;stroke:#000;stroke-opacity:1;stroke-miterlimit:10" d="m0 0 3.09 3.09" transform="matrix(1 0 0 -1 125.53 54.156)"/></g></g><g clip-path="url(#cf)"><g clip-path="url(#cg)"><path style="fill:none;stroke-width:.3985;stroke-linecap:butt;stroke-linejoin:miter;stroke:#000;stroke-opacity:1;stroke-miterlimit:10" d="m0 0 3.09 3.09" transform="matrix(1 0 0 -1 128.52 54.156)"/></g></g><g clip-path="url(#ch)"><g clip-path="url(#ci)"><path style="fill:none;stroke-width:.3985;stroke-linecap:butt;stroke-linejoin:miter;stroke:#000;stroke-opacity:1;stroke-miterlimit:10" d="m0 0 3.09 3.09" transform="matrix(1 0 0 -1 131.509 54.156)"/></g></g><g clip-path="url(#cj)"><g clip-path="url(#ck)"><path style="fill:none;stroke-width:.3985;stroke-linecap:butt;stroke-linejoin:miter;stroke:#000;stroke-opacity:1;stroke-miterlimit:10" d="m-.001 0 3.09 3.09" transform="matrix(1 0 0 -1 134.497 54.156)"/></g></g><g clip-path="url(#cl)"><g clip-path="url(#cm)"><path style="fill:none;stroke-width:.3985;stroke-linecap:butt;stroke-linejoin:miter;stroke:#000;stroke-opacity:1;stroke-miterlimit:10" d="m0 0 3.087 3.09" transform="matrix(1 0 0 -1 122.542 51.168)"/></g></g><g clip-path="url(#cn)"><g clip-path="url(#co)"><path style="fill:none;stroke-width:.3985;stroke-linecap:butt;stroke-linejoin:miter;stroke:#000;stroke-opacity:1;stroke-miterlimit:10" d="m0 0 3.09 3.09" transform="matrix(1 0 0 -1 125.53 51.168)"/></g></g><g clip-path="url(#cp)"><g clip-path="url(#cq)"><path style="fill:none;stroke-width:.3985;stroke-linecap:butt;stroke-linejoin:miter;stroke:#000;stroke-opacity:1;stroke-miterlimit:10" d="m0 0 3.09 3.09" transform="matrix(1 0 0 -1 128.52 51.168)"/></g></g><g clip-path="url(#cr)"><g clip-path="url(#cs)"><path style="fill:none;stroke-width:.3985;stroke-linecap:butt;stroke-linejoin:miter;stroke:#000;stroke-opacity:1;stroke-miterlimit:10" d="m0 0 3.09 3.09" transform="matrix(1 0 0 -1 131.509 51.168)"/></g></g><g clip-path="url(#ct)"><g clip-path="url(#cu)"><path style="fill:none;stroke-width:.3985;stroke-linecap:butt;stroke-linejoin:miter;stroke:#000;stroke-opacity:1;stroke-miterlimit:10" d="m-.001 0 3.09 3.09" transform="matrix(1 0 0 -1 134.497 51.168)"/></g></g><g clip-path="url(#cv)"><g clip-path="url(#cw)"><path style="fill:none;stroke-width:.3985;stroke-linecap:butt;stroke-linejoin:miter;stroke:#000;stroke-opacity:1;stroke-miterlimit:10" d="m0-.001 3.087 3.09" transform="matrix(1 0 0 -1 122.542 48.179)"/></g></g><g clip-path="url(#cx)"><g clip-path="url(#cy)"><path style="fill:none;stroke-width:.3985;stroke-linecap:butt;stroke-linejoin:miter;stroke:#000;stroke-opacity:1;stroke-miterlimit:10" d="m0-.001 3.09 3.09" transform="matrix(1 0 0 -1 125.53 48.179)"/></g></g><g clip-path="url(#cz)"><g clip-path="url(#cA)"><path style="fill:none;stroke-width:.3985;stroke-linecap:butt;stroke-linejoin:miter;stroke:#000;stroke-opacity:1;stroke-miterlimit:10" d="m0-.001 3.09 3.09" transform="matrix(1 0 0 -1 128.52 48.179)"/></g></g><g clip-path="url(#cB)"><g clip-path="url(#cC)"><path style="fill:none;stroke-width:.3985;stroke-linecap:butt;stroke-linejoin:miter;stroke:#000;stroke-opacity:1;stroke-miterlimit:10" d="m0-.001 3.09 3.09" transform="matrix(1 0 0 -1 131.509 48.179)"/></g></g><g clip-path="url(#cD)"><g clip-path="url(#cE)"><path style="fill:none;stroke-width:.3985;stroke-linecap:butt;stroke-linejoin:miter;stroke:#000;stroke-opacity:1;stroke-miterlimit:10" d="m-.001-.001 3.09 3.09" transform="matrix(1 0 0 -1 134.497 48.179)"/></g></g><g clip-path="url(#cF)"><g clip-path="url(#cG)"><path style="fill:none;stroke-width:.3985;stroke-linecap:butt;stroke-linejoin:miter;stroke:#000;stroke-opacity:1;stroke-miterlimit:10" d="m0-.002 3.087 3.09" transform="matrix(1 0 0 -1 122.542 45.19)"/></g></g><g clip-path="url(#cH)"><g clip-path="url(#cI)"><path style="fill:none;stroke-width:.3985;stroke-linecap:butt;stroke-linejoin:miter;stroke:#000;stroke-opacity:1;stroke-miterlimit:10" d="m0-.002 3.09 3.09" transform="matrix(1 0 0 -1 125.53 45.19)"/></g></g><g clip-path="url(#cJ)"><g clip-path="url(#cK)"><path style="fill:none;stroke-width:.3985;stroke-linecap:butt;stroke-linejoin:miter;stroke:#000;stroke-opacity:1;stroke-miterlimit:10" d="m0-.002 3.09 3.09" transform="matrix(1 0 0 -1 128.52 45.19)"/></g></g><g clip-path="url(#cL)"><g clip-path="url(#cM)"><path style="fill:none;stroke-width:.3985;stroke-linecap:butt;stroke-linejoin:miter;stroke:#000;stroke-opacity:1;stroke-miterlimit:10" d="m0-.002 3.09 3.09" transform="matrix(1 0 0 -1 131.509 45.19)"/></g></g><g clip-path="url(#cN)"><g clip-path="url(#cO)"><path style="fill:none;stroke-width:.3985;stroke-linecap:butt;stroke-linejoin:miter;stroke:#000;stroke-opacity:1;stroke-miterlimit:10" d="m-.001-.002 3.09 3.09" transform="matrix(1 0 0 -1 134.497 45.19)"/></g></g><g clip-path="url(#cP)"><g clip-path="url(#cQ)"><path style="fill:none;stroke-width:.3985;stroke-linecap:butt;stroke-linejoin:miter;stroke:#000;stroke-opacity:1;stroke-miterlimit:10" d="m0 .002 3.087 3.086" transform="matrix(1 0 0 -1 122.542 42.201)"/></g></g><g clip-path="url(#cR)"><g clip-path="url(#cS)"><path style="fill:none;stroke-width:.3985;stroke-linecap:butt;stroke-linejoin:miter;stroke:#000;stroke-opacity:1;stroke-miterlimit:10" d="m0 .002 3.09 3.086" transform="matrix(1 0 0 -1 125.53 42.201)"/></g></g><g clip-path="url(#cT)"><g clip-path="url(#cU)"><path style="fill:none;stroke-width:.3985;stroke-linecap:butt;stroke-linejoin:miter;stroke:#000;stroke-opacity:1;stroke-miterlimit:10" d="m0 .002 3.09 3.086" transform="matrix(1 0 0 -1 128.52 42.201)"/></g></g><g clip-path="url(#cV)"><g clip-path="url(#cW)"><path style="fill:none;stroke-width:.3985;stroke-linecap:butt;stroke-linejoin:miter;stroke:#000;stroke-opacity:1;stroke-miterlimit:10" d="m0 .002 3.09 3.086" transform="matrix(1 0 0 -1 131.509 42.201)"/></g></g><g clip-path="url(#cX)"><g clip-path="url(#cY)"><path style="fill:none;stroke-width:.3985;stroke-linecap:butt;stroke-linejoin:miter;stroke:#000;stroke-opacity:1;stroke-miterlimit:10" d="m-.001.002 3.09 3.086" transform="matrix(1 0 0 -1 134.497 42.201)"/></g></g></svg>