<svg xmlns="http://www.w3.org/2000/svg" xmlns:xlink="http://www.w3.org/1999/xlink" width="260.089" height="216.253" viewBox="0 0 195.067 162.19"><defs><symbol overflow="visible" id="d"><path d="M5.36-5.938c-.141.141-.47.422-.47.594 0 .094.094.203.188.203s.14-.078.203-.14c.11-.14.344-.422.782-.64.062-.048.171-.095.171-.204 0-.11-.078-.156-.14-.203a1.034 1.034 0 0 1-.407-.563c-.03-.093-.062-.234-.203-.234-.14 0-.203.14-.203.219 0 .047.078.36.235.578h-3.36c-.156 0-.344 0-.344.203 0 .188.188.188.344.188zm0 0"/></symbol><symbol overflow="visible" id="e"><path d="M3.328-3.016c.063-.25.297-1.171.985-1.171.046 0 .296 0 .5.125a.578.578 0 0 0-.47.546c0 .157.11.344.376.344a.546.546 0 0 0 .531-.578c0-.516-.578-.656-.922-.656-.578 0-.922.531-1.047.75-.25-.656-.781-.75-1.078-.75-1.031 0-1.61 1.281-1.61 1.531 0 .11.11.11.126.11.078 0 .11-.032.125-.11.344-1.063 1-1.313 1.344-1.313.187 0 .53.094.53.672 0 .313-.171.97-.53 2.375-.157.61-.516 1.032-.954 1.032-.062 0-.28 0-.5-.125.25-.063.47-.266.47-.547 0-.266-.22-.344-.36-.344-.313 0-.547.25-.547.578 0 .453.484.656.922.656.672 0 1.031-.703 1.047-.75.125.36.484.75 1.078.75 1.031 0 1.594-1.28 1.594-1.53 0-.11-.079-.11-.11-.11-.094 0-.11.047-.14.11-.329 1.077-1 1.312-1.313 1.312-.39 0-.547-.313-.547-.657 0-.218.047-.437.156-.875zm0 0"/></symbol><symbol overflow="visible" id="f"><path d="M1.766-6.922l-1.438.11v.312c.703 0 .781.063.781.563V-.75c0 .438-.109.438-.78.438V0c.327-.016.859-.031 1.109-.031s.734.015 1.109.031v-.313c-.672 0-.781 0-.781-.437zm0 0"/></symbol><symbol overflow="visible" id="g"><path d="M4.688-2.14c0-1.266-.985-2.329-2.188-2.329C1.25-4.469.281-3.375.281-2.14A2.22 2.22 0 0 0 2.484.11c1.204 0 2.204-.984 2.204-2.25zM2.5-.14c-.438 0-.875-.204-1.14-.672-.25-.438-.25-1.047-.25-1.407 0-.39 0-.922.234-1.36a1.347 1.347 0 0 1 1.14-.671c.438 0 .86.219 1.125.656.266.422.266 1 .266 1.375 0 .36 0 .906-.219 1.344-.234.453-.672.734-1.156.734zm0 0"/></symbol><symbol overflow="visible" id="h"><path d="M2.219-1.719c-.875 0-.875-1-.875-1.218 0-.266.015-.594.156-.844.078-.11.313-.39.719-.39.86 0 .86.984.86 1.218 0 .265 0 .594-.157.844-.078.109-.313.39-.703.39zm-1.156.39c0-.03 0-.265.156-.468.39.281.812.313 1 .313.922 0 1.61-.688 1.61-1.454 0-.374-.157-.734-.407-.968.36-.344.719-.39.89-.39.032 0 .079 0 .11.015-.11.031-.172.14-.172.265 0 .172.14.282.297.282a.28.28 0 0 0 .281-.297c0-.172-.11-.485-.5-.485-.203 0-.64.063-1.062.47a1.652 1.652 0 0 0-1.047-.36c-.938 0-1.625.687-1.625 1.453 0 .437.219.812.469 1.031-.125.14-.313.469-.313.828 0 .313.14.688.453.89-.61.157-.922.595-.922.985 0 .719.985 1.266 2.203 1.266 1.172 0 2.204-.5 2.204-1.281 0-.344-.125-.86-.641-1.141-.531-.266-1.11-.266-1.719-.266-.25 0-.672 0-.75-.015-.312-.047-.516-.344-.516-.672zM2.5 1.829C1.484 1.828.797 1.312.797.781c0-.453.375-.828.812-.844h.594c.86 0 1.969 0 1.969.844 0 .547-.703 1.047-1.672 1.047zm0 0"/></symbol><clipPath id="a"><path d="M0 2h1v160.191H0zm0 0"/></clipPath><clipPath id="b"><path d="M.398.395h194.274v161.394H.398zm0 0"/></clipPath><clipPath id="c"><path d="M.398.395H179V136H.398zm0 0"/></clipPath></defs><path d="M.398 120.844h191.68" fill="none" stroke-width="0.79701" stroke="rgb(0%,0%,0%)" stroke-miterlimit="10"/><path d="M194.672 120.844l-4.145-2.07 1.551 2.07-1.55 2.074" fill="rgb(0%,0%,0%)"/><g clip-path="url(#a)"><path d="M.398 161.79V2.983" fill="none" stroke-width="0.79701" stroke="rgb(0%,0%,0%)" stroke-miterlimit="10"/></g><path d="M.398.395l-2.074 4.144L.398 2.984l2.07 1.555" fill="rgb(0%,0%,0%)"/><g clip-path="url(#b)"><path d="M14.645 202.738l1.296-28.379 1.293-16.605 1.297-11.781 1.293-9.137 1.297-7.465 1.293-6.309 1.297-5.472 1.293-4.82 1.297-4.317 1.297-3.902 1.293-3.563 1.297-3.277 1.292-3.031 1.297-2.828 1.293-2.641 1.297-2.48 1.297-2.344 1.293-2.211 1.297-2.102 1.293-2 1.297-1.902 1.293-1.82 1.297-1.743 1.293-1.671 1.296-1.61 1.297-1.543 1.293-1.488 1.297-1.438 1.293-1.386 1.297-1.344 1.293-1.297 1.297-1.262 1.293-1.222 1.297-1.184 1.297-1.156 1.293-1.121 1.296-1.094 1.293-1.063 1.297-1.039 1.293-1.011 1.297-.985 1.293-.965 1.297-.94 1.297-.923 1.293-.898 1.297-.883 1.293-.86 1.296-.843 1.293-.828 1.297-.813 1.293-.793 1.297-.781 1.297-.766 1.293-.75 1.297-.738 1.293-.723 1.297-.714 1.293-.7 1.297-.687 1.293-.676 1.296-.664 1.297-.656 1.293-.645 1.297-.636 1.293-.625 1.297-.618 1.293-.601 1.297-.602 1.297-.586 1.293-.582 1.297-.57 1.293-.567 1.296-.558 1.293-.547 1.297-.543 1.293-.531 1.297-.535 1.297-.516 1.293-.523 1.297-.508 1.293-.504 1.297-.496 1.293-.488 1.296-.485 1.293-.48 1.297-.473 1.297-.469 1.293-.46 1.297-.462 1.293-.449 1.297-.45 1.293-.44 1.297-.438 1.293-.434 1.297-.43 1.296-.425 1.293-.418 1.297-.418 1.293-.41 1.297-.406 1.293-.407 1.297-.398 1.293-.395 2.594-.78 1.293-.384 1.297-.382 1.293-.375 1.296-.375 1.293-.372 1.297-.367 1.293-.363 2.594-.719 1.293-.355 1.297-.352 1.293-.347 1.297-.344 1.293-.344 1.297-.34 1.296-.336 1.293-.336 1.297-.332 1.293-.328 1.297-.328 1.293-.32 1.297-.324 1.293-.317 1.297-.316 1.297-.313 1.293-.312 1.296-.309 1.293-.308 1.297-.305 1.293-.301 1.297-.3 1.293-.298 1.297-.296 1.297-.293" fill="none" stroke-width="1.59404" stroke="rgb(0%,0%,79.998779%)" stroke-miterlimit="10"/></g><g clip-path="url(#c)"><path d="M10.758 112.656L155.816-1.996" fill="none" stroke-width="1.59404" stroke="rgb(100%,50%,0%)" stroke-dasharray="2.98883,2.98883" stroke-miterlimit="10"/></g><use xlink:href="#d" x="185.122" y="117.126" fill="rgb(0%,0%,0%)"/><use xlink:href="#e" x="185.252" y="117.126" fill="rgb(0%,0%,0%)"/><g fill="rgb(0%,0%,0%)"><use xlink:href="#f" x="4.117" y="11.235"/><use xlink:href="#g" x="6.885" y="11.235"/><use xlink:href="#h" x="11.866" y="11.235"/></g><use xlink:href="#d" x="18.513" y="11.235" fill="rgb(0%,0%,0%)"/><use xlink:href="#e" x="18.643" y="11.235" fill="rgb(0%,0%,0%)"/></svg>