<svg xmlns="http://www.w3.org/2000/svg" xmlns:xlink="http://www.w3.org/1999/xlink" width="431.945" height="166.909" viewBox="0 0 323.959 125.182"><defs><symbol overflow="visible" id="a"><path style="stroke:none" d="M1.734-.734c-.062.234-.296.609-.656.609-.016 0-.234 0-.375-.094a.437.437 0 0 0 .313-.39c0-.157-.125-.25-.282-.25a.407.407 0 0 0-.406.421c0 .344.39.5.734.5.329 0 .61-.187.782-.484.172.36.547.484.828.484.812 0 1.234-.859 1.234-1.062 0-.094-.094-.094-.11-.094-.108 0-.108.047-.14.125-.14.485-.562.844-.953.844-.281 0-.422-.188-.422-.453 0-.188.172-.813.36-1.594.14-.531.453-.703.687-.703.016 0 .219 0 .375.094a.431.431 0 0 0-.312.39c0 .141.125.25.28.25a.403.403 0 0 0 .392-.421c0-.391-.454-.516-.72-.516-.359 0-.64.234-.78.5-.126-.281-.454-.5-.844-.5C.937-3.078.5-2.218.5-2c0 .078.094.078.11.078.093 0 .093-.016.14-.11.172-.546.61-.843.953-.843.234 0 .422.125.422.453 0 .14-.094.485-.156.735Zm0 0"/></symbol><symbol overflow="visible" id="b"><path style="stroke:none" d="M3.875-2.625c.031-.094.031-.11.031-.156 0-.14-.11-.219-.234-.219a.33.33 0 0 0-.281.156c-.032.047-.079.266-.11.406l-.156.579a19.65 19.65 0 0 1-.281 1.125S2.53-.125 2-.125c-.484 0-.484-.453-.484-.578 0-.375.156-.813.375-1.36.078-.218.109-.296.109-.421 0-.329-.281-.594-.656-.594C.64-3.078.328-2.125.328-2c0 .078.094.078.125.078.094 0 .094-.031.125-.11.172-.577.469-.843.75-.843.11 0 .172.078.172.234 0 .172-.063.313-.094.407C1.063-1.375 1-1.125 1-.813c0 .11 0 .438.266.672.218.172.515.203.703.203.281 0 .531-.093.75-.312-.078.39-.156.688-.453 1.031-.188.219-.47.438-.844.438-.047 0-.375 0-.516-.219.375-.047.375-.375.375-.39 0-.22-.203-.266-.265-.266-.172 0-.407.14-.407.469 0 .343.329.609.829.609C2.14 1.422 3 .875 3.218 0Zm0 0"/></symbol><symbol overflow="visible" id="c"><path style="stroke:none" d="M1.172-.61c.187-.187.312-.312.89-.796.157-.11.672-.532.876-.719.421-.422.687-.781.687-.86 0-.093-.078-.093-.11-.093-.062 0-.093.015-.124.078-.22.313-.36.422-.532.422-.078 0-.187 0-.39-.203-.235-.25-.39-.297-.547-.297-.563 0-.938.61-.938.812 0 .079.063.094.11.094.093 0 .11-.015.125-.094.11-.25.5-.265.61-.265.171 0 .343.047.437.062.39.078.437.078.609.078-.172.204-.297.329-.969.844-.547.438-.734.61-.86.75-.421.406-.624.719-.624.781 0 .079.094.079.125.079.062 0 .078 0 .11-.063.187-.266.405-.422.64-.422.094 0 .187 0 .375.172.219.219.36.313.594.313.734 0 1.203-.844 1.203-1.079 0-.078-.078-.078-.11-.078-.093 0-.109.032-.14.11-.125.343-.531.515-.875.515-.156 0-.344-.047-.516-.078-.312-.078-.375-.078-.5-.078-.016 0-.11 0-.156.016Zm0 0"/></symbol><symbol overflow="visible" id="e"><path style="stroke:none" d="M4.953-4.813c0-.03-.031-.093-.094-.093-.046 0-.046.015-.14.11l-.344.39c-.266-.375-.703-.5-1.125-.5-.984 0-1.86.797-1.86 1.61 0 .093.032.374.235.64.234.265.5.328.969.453.14.031.484.11.594.14.218.047.64.204.64.72 0 .562-.594 1.234-1.375 1.234-.625 0-1.36-.22-1.36-.985 0-.078.016-.234.048-.36v-.03c0-.094-.079-.094-.11-.094-.093 0-.11.016-.125.14L.546-.046a.234.234 0 0 0-.03.11c0 .03.03.078.109.078.031 0 .047-.016.14-.094.079-.094.25-.313.329-.39C1.469.062 2 .14 2.422.14c1.062 0 1.906-.907 1.906-1.735 0-.297-.125-.578-.281-.734-.234-.25-.344-.281-1.25-.5-.14-.031-.375-.078-.438-.11-.171-.062-.468-.234-.468-.624 0-.563.625-1.11 1.343-1.11.766 0 1.125.422 1.125 1.078 0 .094-.03.25-.03.313 0 .11.077.11.124.11.094 0 .11-.048.125-.157Zm0 0"/></symbol><symbol overflow="visible" id="g"><path style="stroke:none" d="M3.672-2.219a8.79 8.79 0 0 0 .125-.562c0-.14-.11-.219-.235-.219a.32.32 0 0 0-.296.203c-.016.047-.094.344-.141.516-.094.406-.094.406-.203.797-.078.39-.094.453-.11.64.032.14-.03.281-.187.485a.594.594 0 0 1-.469.234c-.281 0-.625-.094-.625-.64 0-.36.188-.876.328-1.235.125-.297.141-.36.141-.484 0-.329-.281-.594-.656-.594C.64-3.078.328-2.125.328-2c0 .078.094.078.125.078.094 0 .094-.031.125-.11.172-.577.469-.843.75-.843.11 0 .172.078.172.234 0 .172-.063.313-.094.407C1-1.22 1-1.078 1-.86c0 .828.75.921 1.125.921.14 0 .469 0 .781-.453.172.313.547.454.969.454.625 0 .938-.532 1.078-.813.297-.594.484-1.453.484-1.781 0-.516-.296-.547-.343-.547-.188 0-.39.187-.39.375 0 .11.077.172.124.203.172.14.266.344.266.563 0 .093-.297 1.812-1.188 1.812-.562 0-.562-.5-.562-.625 0-.188.031-.297.125-.688Zm0 0"/></symbol><symbol overflow="visible" id="r"><path style="stroke:none" d="M2.266-4.36a.276.276 0 0 0-.282-.265c-.187 0-.39.188-.39.39 0 .11.078.266.281.266.188 0 .39-.203.39-.39ZM.844-.811C.813-.72.78-.641.78-.516c0 .329.266.579.656.579.688 0 1-.954 1-1.063 0-.094-.093-.094-.109-.094-.094 0-.11.047-.14.125-.157.563-.454.844-.735.844-.14 0-.172-.094-.172-.25s.047-.281.11-.438c.078-.187.156-.375.218-.562.063-.172.329-.797.344-.89A.5.5 0 0 0 2-2.486c0-.328-.281-.593-.656-.593C.64-3.078.328-2.125.328-2c0 .078.094.078.125.078.094 0 .094-.031.125-.11.172-.593.485-.843.735-.843.109 0 .171.047.171.234 0 .172-.03.266-.203.704Zm0 0"/></symbol><symbol overflow="visible" id="v"><path style="stroke:none" d="M2.953-1.125c-.047.14-.11.406-.11.406-.14.219-.421.594-.843.594-.484 0-.484-.453-.484-.578 0-.406.187-.906.39-1.422.047-.14.094-.234.094-.344 0-.375-.313-.61-.656-.61C.64-3.078.328-2.124.328-2c0 .078.094.078.125.078.094 0 .094-.031.125-.11.156-.562.469-.843.735-.843.125 0 .171.078.171.234a.998.998 0 0 1-.125.47C.984-1.204.984-1 .984-.814c0 .11 0 .438.266.657.203.172.469.218.719.218.437 0 .672-.234.906-.453.156.454.61.454.703.454.235 0 .422-.126.547-.36.156-.281.25-.672.25-.703 0-.094-.094-.094-.11-.094-.109 0-.109.032-.156.219-.093.328-.218.75-.515.75-.172 0-.235-.156-.235-.344 0-.11.063-.375.11-.547.047-.187.125-.468.156-.625l.156-.625c.047-.171.125-.484.125-.515 0-.14-.11-.219-.234-.219-.25 0-.313.203-.36.422Zm0 0"/></symbol><symbol overflow="visible" id="w"><path style="stroke:none" d="M3.719-2.531c0-.547-.328-.547-.344-.547A.403.403 0 0 0 3-2.703c0 .11.063.172.11.203.124.11.265.281.265.563 0 .312-.469 1.812-1.297 1.812-.562 0-.562-.5-.562-.625 0-.313.125-.703.39-1.36.047-.14.094-.25.094-.359 0-.375-.313-.61-.656-.61C.64-3.078.328-2.124.328-2c0 .078.094.078.125.078.094 0 .094-.031.125-.11.156-.562.453-.843.735-.843.125 0 .171.078.171.234a.998.998 0 0 1-.125.47c-.296.78-.375 1.077-.375 1.327 0 .688.547.906 1.079.906 1.171 0 1.656-2.015 1.656-2.593Zm0 0"/></symbol><symbol overflow="visible" id="d"><path style="stroke:none" d="M5.36-2.344c.093 0 .25 0 .25-.172 0-.171-.157-.171-.25-.171H.75c-.094 0-.266 0-.266.171 0 .172.157.172.266.172Zm0 1.531c.093 0 .25 0 .25-.156 0-.187-.157-.187-.25-.187H.75c-.11 0-.266 0-.266.187 0 .156.172.156.266.156Zm0 0"/></symbol><symbol overflow="visible" id="f"><path style="stroke:none" d="M2.469-5.219C1.156-4.297.797-2.812.797-1.75c0 .984.297 2.516 1.672 3.484.062 0 .14 0 .14-.078 0-.047-.015-.062-.062-.11C1.609.704 1.28-.468 1.28-1.733c0-1.891.719-2.813 1.282-3.329.03-.03.046-.046.046-.078 0-.078-.078-.078-.14-.078Zm0 0"/></symbol><symbol overflow="visible" id="h"><path style="stroke:none" d="M.625-5.219c-.047 0-.125 0-.125.078 0 .032.016.047.063.11.593.547 1.265 1.484 1.265 3.281 0 1.453-.453 2.563-1.203 3.234C.5 1.61.5 1.61.5 1.656c0 .032.016.078.078.078.094 0 .75-.453 1.219-1.328.297-.578.5-1.328.5-2.14C2.297-2.72 2-4.25.625-5.22Zm0 0"/></symbol><symbol overflow="visible" id="n"><path style="stroke:none" d="M3.594-2.219c0-.765-.094-1.328-.406-1.812-.22-.313-.657-.594-1.204-.594C.36-4.625.36-2.719.36-2.219c0 .5 0 2.36 1.625 2.36 1.61 0 1.61-1.86 1.61-2.36ZM1.984-.063c-.328 0-.75-.187-.89-.75C1-1.219 1-1.796 1-2.313c0-.515 0-1.046.094-1.421.156-.547.593-.704.89-.704.375 0 .735.235.86.641.11.375.125.875.125 1.485 0 .515 0 1.03-.094 1.468-.14.64-.61.781-.89.781Zm0 0"/></symbol><symbol overflow="visible" id="o"><path style="stroke:none" d="M2.328-4.438c0-.187 0-.187-.203-.187-.453.438-1.078.438-1.36.438v.25c.157 0 .626 0 1-.188v3.547c0 .234 0 .328-.687.328H.812V0c.125 0 .985-.031 1.235-.031.219 0 1.094.031 1.25.031v-.25H3.03c-.703 0-.703-.094-.703-.328Zm0 0"/></symbol><symbol overflow="visible" id="x"><path style="stroke:none" d="M3.219-1.578h2.14c.094 0 .25 0 .25-.156 0-.188-.156-.188-.25-.188H3.22v-2.14c0-.079 0-.25-.156-.25-.172 0-.172.156-.172.25v2.14H.75c-.094 0-.266 0-.266.172s.157.172.266.172h2.14v2.14c0 .094 0 .266.157.266.172 0 .172-.172.172-.265Zm0 0"/></symbol><symbol overflow="visible" id="i"><path style="stroke:none" d="M2.578-.297c.063.125.281.36.797.36.953 0 1.203-1.61 1.203-1.844 0-.344-.203-.422-.281-.422-.156 0-.297.156-.297.281 0 .094.063.14.094.172.14.11.187.234.187.375 0 .14-.25 1.266-.875 1.266-.203 0-.484-.063-.484-.454 0-.015 0-.109.031-.265.047-.188.188-.766.266-1.031.015-.079.015-.094.015-.11 0-.11-.093-.172-.187-.172a.236.236 0 0 0-.219.125c-.015.032-.062.22-.094.329-.062.28-.062.296-.14.578a1.912 1.912 0 0 0-.094.468c.016.094 0 .11-.047.204-.187.328-.39.328-.469.328a.698.698 0 0 1-.406-.125c-.125-.11-.125-.297-.125-.36 0-.203.063-.406.281-.906.032-.11.063-.188.063-.266 0-.25-.234-.437-.547-.437-.516 0-.797.64-.797.765 0 .079.078.079.11.079.078 0 .078-.032.109-.094.11-.344.344-.578.562-.578.094 0 .157.047.157.187 0 .094-.032.157-.094.297-.266.656-.266.781-.266.906 0 .563.516.704.922.704.094 0 .375 0 .625-.36Zm0 0"/></symbol><symbol overflow="visible" id="k"><path style="stroke:none" d="M1.969-3.11c0-.124-.078-.218-.219-.218-.14 0-.297.14-.297.297 0 .14.11.219.219.219a.308.308 0 0 0 .297-.297Zm.234 2.391c0-.062-.078-.062-.094-.062-.093 0-.093.015-.125.11-.078.265-.312.562-.562.562-.11 0-.14-.079-.14-.188 0-.11.015-.172.062-.266.031-.093.078-.187.11-.265.015-.047.202-.5.28-.688.032-.093.063-.171.063-.25 0-.234-.234-.437-.547-.437-.516 0-.797.64-.797.765 0 .079.078.079.11.079.078 0 .078-.032.109-.094.11-.36.344-.578.562-.578.094 0 .157.047.157.187 0 .016 0 .078-.032.172-.03.094-.265.625-.328.797-.047.094-.047.094-.11.266-.03.078-.062.14-.062.218 0 .266.25.454.547.454.516 0 .797-.657.797-.782Zm0 0"/></symbol><symbol overflow="visible" id="j"><path style="stroke:none" d="M2.703-1.11h1.735c.062 0 .203 0 .203-.14s-.141-.14-.204-.14H2.704v-1.735c0-.063 0-.203-.14-.203-.141 0-.141.14-.141.203v1.734H.687c-.062 0-.203 0-.203.141 0 .14.141.14.204.14h1.734V.626c0 .078 0 .203.14.203.141 0 .141-.125.141-.203Zm0 0"/></symbol><symbol overflow="visible" id="l"><path style="stroke:none" d="M1.984-3.172c0-.14-.015-.14-.187-.14C1.453-3 .89-3 .797-3H.719v.219h.078c.11 0 .437-.016.734-.14v2.5c0 .14 0 .202-.531.202H.75V0c.266-.016.719-.016 1-.016.297 0 .734 0 1.016.016v-.219h-.25c-.532 0-.532-.062-.532-.203Zm0 0"/></symbol><symbol overflow="visible" id="m"><path style="stroke:none" d="M3-1.594c0-.36 0-1.718-1.313-1.718C.391-3.313.391-1.954.391-1.595.39-1.234.39.11 1.687.11 3 .11 3-1.234 3-1.594ZM1.687-.062c-.171 0-.593-.063-.718-.563C.89-.891.89-1.25.89-1.656c0-.375 0-.719.078-1 .125-.422.515-.5.719-.5.375 0 .64.187.734.547.078.25.078.656.078.953 0 .343 0 .75-.078 1.047-.125.484-.531.546-.735.546Zm0 0"/></symbol><symbol overflow="visible" id="p"><path style="stroke:none" d="M2.938-.969h-.22c0 .094-.062.406-.14.453-.031.032-.453.032-.531.032h-.969c.328-.235.688-.516.984-.72.454-.312.876-.593.876-1.124 0-.64-.61-.985-1.313-.985-.672 0-1.172.376-1.172.876 0 .25.219.296.297.296a.283.283 0 0 0 .281-.296.27.27 0 0 0-.281-.282c.14-.234.438-.375.766-.375.484 0 .89.281.89.766 0 .422-.297.75-.672 1.062L.516-.234c-.047.047-.063.047-.063.078V0h2.313Zm0 0"/></symbol><symbol overflow="visible" id="s"><path style="stroke:none" d="M1.64-1.656c.47 0 .766.297.766.781 0 .516-.312.781-.75.781-.062 0-.656 0-.906-.265.203-.032.266-.172.266-.297A.304.304 0 0 0 .703-.97c-.156 0-.297.11-.297.328 0 .516.578.75 1.266.75.812 0 1.312-.5 1.312-.984 0-.406-.359-.75-.921-.875.593-.203.75-.578.75-.86 0-.406-.5-.703-1.126-.703-.625 0-1.109.25-1.109.704a.28.28 0 0 0 .281.296.284.284 0 0 0 .282-.296c0-.11-.063-.25-.235-.282.203-.218.656-.234.766-.234.36 0 .61.172.61.516 0 .296-.188.75-.704.78-.14 0-.156 0-.297.016-.047 0-.11 0-.11.079 0 .078.048.078.141.078Zm0 0"/></symbol><symbol overflow="visible" id="t"><path style="stroke:none" d="M3.078-.813v-.218h-.625V-3.22c0-.125 0-.156-.14-.156-.094 0-.094 0-.157.078L.312-1.03v.218H1.97v.391c0 .156 0 .203-.422.203H1.36V0c.235-.016.563-.016.86-.016.281 0 .61 0 .844.016v-.219H2.89c-.438 0-.438-.047-.438-.203v-.39Zm-1.062-2.03v1.812H.546Zm0 0"/></symbol><symbol overflow="visible" id="q"><path style="stroke:none" d="M5.188-1.578c.109 0 .28 0 .28-.156 0-.188-.171-.188-.28-.188H1.03c-.11 0-.281 0-.281.172s.156.172.281.172Zm0 0"/></symbol><symbol overflow="visible" id="y"><path style="stroke:none" d="M4.031-1.906c-.375-.438-.484-.547-.75-.735a2.13 2.13 0 0 0-1.25-.437c-.875 0-1.5.75-1.5 1.578C.531-.687 1.141.063 2 .063c.969 0 1.656-.782 1.906-1.157.36.438.485.547.735.735.437.312.875.421 1.265.421.86 0 1.485-.734 1.485-1.562 0-.828-.594-1.578-1.47-1.578-.968 0-1.64.797-1.89 1.172Zm.219.25c.281-.453.89-1.157 1.734-1.157.72 0 1.22.641 1.22 1.313 0 .656-.548 1.188-1.188 1.188-.657 0-1.094-.532-1.766-1.344Zm-.578.297c-.266.453-.875 1.171-1.735 1.171C1.22-.188.734-.828.734-1.5s.547-1.188 1.188-1.188c.64 0 1.094.532 1.75 1.329Zm0 0"/></symbol><symbol overflow="visible" id="u"><path style="stroke:none" d="M.344-4.781c-.125 0-.235 0-.235.14 0 .11.141.11.188.11.36 0 .39.062.39.406v3.484c0 .344-.03.391-.375.391-.078 0-.203 0-.203.125S.22 0 .344 0h2.015c1.22 0 2.454-.766 2.454-2.469 0-1.672-1.329-2.312-2.454-2.312Zm2.875.39c.984.329 1.36 1.094 1.36 1.922 0 1.172-.641 1.828-1.345 2.063.454-.469.594-1.25.594-2.047 0-1.016-.265-1.563-.625-1.938ZM.875-.25c.063-.125.063-.281.063-.375v-3.516c0-.093 0-.265-.063-.39h.797c-.094.11-.094.265-.094.36v3.577c0 .094 0 .235.094.344Zm.953-3.906c0-.157 0-.219.125-.297.063-.047.188-.078.328-.078.594 0 1.313.515 1.313 2.078 0 .875-.188 2.203-1.36 2.203-.406 0-.406-.234-.406-.375Zm0 0"/></symbol><symbol overflow="visible" id="z"><path style="stroke:none" d="M4.688-4.125c0-.36.03-.406.437-.406.063 0 .172 0 .172-.11 0-.14-.094-.14-.219-.14H3.172c-.125 0-.235 0-.235.14 0 .11.141.11.188.11.406 0 .422.062.422.406v1.547H1.875v-1.547c0-.36.016-.406.422-.406.062 0 .187 0 .187-.11 0-.14-.109-.14-.234-.14H.36c-.126 0-.235 0-.235.14 0 .11.125.11.188.11.39 0 .421.062.421.406v3.484c0 .329-.03.391-.39.391-.11 0-.219 0-.219.125S.235 0 .359 0H2.25c.125 0 .234 0 .234-.125S2.36-.25 2.281-.25c-.39 0-.406-.063-.406-.39v-1.626h1.672V-.64c0 .329-.016.391-.39.391-.095 0-.22 0-.22.125s.11.125.235.125h1.906c.125 0 .219 0 .219-.125s-.11-.125-.188-.125c-.406 0-.421-.063-.421-.39Zm-3.72-.016c0-.093 0-.265-.046-.39h.75c-.047.125-.047.297-.047.39v3.516c0 .078 0 .25.047.375h-.75c.047-.125.047-.297.047-.375Zm2.829 0c0-.093 0-.265-.047-.39h.75c-.047.125-.047.297-.047.39v3.516c0 .078 0 .25.047.375h-.75c.047-.125.047-.297.047-.375Zm0 0"/></symbol></defs><path style="fill:none;stroke-width:.79701;stroke-linecap:butt;stroke-linejoin:miter;stroke:#000;stroke-opacity:1;stroke-miterlimit:10" d="M-55.986.001H55.987" transform="matrix(1 0 0 -1 57.091 68.091)"/><path style="fill:none;stroke-width:.6376;stroke-linecap:round;stroke-linejoin:round;stroke:#000;stroke-opacity:1;stroke-miterlimit:10" d="M-1.555 2.073C-1.426 1.296-.001.128.39 0 0-.131-1.426-1.294-1.555-2.071" transform="matrix(-1 0 0 1 1.105 68.091)"/><path style="fill:none;stroke-width:.6376;stroke-linecap:round;stroke-linejoin:round;stroke:#000;stroke-opacity:1;stroke-miterlimit:10" d="M-1.554 2.071C-1.424 1.294.001.131.388.001 0-.128-1.425-1.296-1.554-2.073" transform="matrix(1 0 0 -1 113.077 68.091)"/><use xlink:href="#a" x="117.503" y="69.592" style="fill:#000;fill-opacity:1"/><path style="fill:none;stroke-width:.79701;stroke-linecap:butt;stroke-linejoin:miter;stroke:#000;stroke-opacity:1;stroke-miterlimit:10" d="M-.001-55.987V55.986" transform="matrix(1 0 0 -1 57.091 68.091)"/><path style="fill:none;stroke-width:.6376;stroke-linecap:round;stroke-linejoin:round;stroke:#000;stroke-opacity:1;stroke-miterlimit:10" d="M-1.554 2.073C-1.424 1.296.001.128.388 0 0-.131-1.425-1.294-1.554-2.071" transform="matrix(0 1 1 0 57.091 124.077)"/><path style="fill:none;stroke-width:.6376;stroke-linecap:round;stroke-linejoin:round;stroke:#000;stroke-opacity:1;stroke-miterlimit:10" d="M-1.555 2.071C-1.426 1.294-.001.131.39.001 0-.128-1.426-1.296-1.555-2.073" transform="matrix(0 -1 -1 0 57.091 12.105)"/><use xlink:href="#b" x="54.946" y="6.323" style="fill:#000;fill-opacity:1"/><path style="fill:none;stroke-width:.79701;stroke-linecap:butt;stroke-linejoin:miter;stroke:#000;stroke-opacity:1;stroke-miterlimit:10" d="M77.952.001h41.816" transform="matrix(1 0 0 -1 57.091 68.091)"/><path style="fill:none;stroke-width:.6376;stroke-linecap:round;stroke-linejoin:round;stroke:#000;stroke-opacity:1;stroke-miterlimit:10" d="M-1.553 2.071C-1.424 1.294 0 .131.388.001.001-.128-1.424-1.296-1.553-2.073" transform="matrix(1 0 0 -1 176.858 68.091)"/><use xlink:href="#c" x="139.573" y="48.362" style="fill:#000;fill-opacity:1"/><use xlink:href="#d" x="145.933" y="48.362" style="fill:#000;fill-opacity:1"/><use xlink:href="#e" x="154.316" y="48.362" style="fill:#000;fill-opacity:1"/><use xlink:href="#f" x="159.59" y="48.362" style="fill:#000;fill-opacity:1"/><use xlink:href="#g" x="162.703" y="48.362" style="fill:#000;fill-opacity:1"/><use xlink:href="#h" x="168.654" y="48.362" style="fill:#000;fill-opacity:1"/><use xlink:href="#d" x="145.933" y="61.141" style="fill:#000;fill-opacity:1"/><use xlink:href="#i" x="157.207" y="58.059" style="fill:#000;fill-opacity:1"/><use xlink:href="#j" x="162.367" y="58.059" style="fill:#000;fill-opacity:1"/><use xlink:href="#k" x="167.487" y="58.059" style="fill:#000;fill-opacity:1"/><path style="fill:none;stroke-width:.339;stroke-linecap:butt;stroke-linejoin:miter;stroke:#000;stroke-opacity:1;stroke-miterlimit:10" d="M0-.001h16.328" transform="matrix(1 0 0 -1 155.512 59.397)"/><g style="fill:#000;fill-opacity:1"><use xlink:href="#k" x="155.512" y="63.541"/><use xlink:href="#i" x="158.17" y="63.541"/></g><g style="fill:#000;fill-opacity:1"><use xlink:href="#j" x="163.33" y="63.541"/><use xlink:href="#l" x="168.45" y="63.541"/></g><path style="fill-rule:nonzero;fill:gray;fill-opacity:.1;stroke-width:.79701;stroke-linecap:butt;stroke-linejoin:miter;stroke:gray;stroke-opacity:.1;stroke-miterlimit:10" d="M28.346.001c0 15.656-12.69 28.344-28.347 28.344-15.656 0-28.344-12.688-28.344-28.344S-15.657-28.347 0-28.347 28.347-15.654 28.347.002Zm0 0" transform="matrix(1 0 0 -1 57.091 68.091)"/><path style="fill:none;stroke-width:.79701;stroke-linecap:butt;stroke-linejoin:miter;stroke:#00008b;stroke-opacity:1;stroke-miterlimit:10" d="M-.001-28.346c15.656 0 28.348 12.69 28.348 28.347 0 15.656-12.692 28.344-28.348 28.344" transform="matrix(1 0 0 -1 57.091 68.091)"/><path style="fill:none;stroke-width:.6376;stroke-linecap:round;stroke-linejoin:round;stroke:#00008b;stroke-opacity:1;stroke-miterlimit:10" d="M-1.555 2.072C-1.425 1.296 0 .131.389.001c-.39-.13-1.815-1.296-1.942-2.075" transform="scale(.99999 -.99999) rotate(45.002 145.307 48.187)"/><path style="fill:none;stroke-width:.6376;stroke-linecap:round;stroke-linejoin:round;stroke:#00008b;stroke-opacity:1;stroke-miterlimit:10" d="M-1.554 2.07C-1.424 1.296.001.13.388.003 0-.131-1.424-1.296-1.554-2.072" transform="scale(-.99999 .99999) rotate(-44.998 19.786 117.992)"/><path style="fill:none;stroke-width:.79701;stroke-linecap:butt;stroke-linejoin:miter;stroke:#8b0000;stroke-opacity:1;stroke-miterlimit:10" d="M-.001-28.346c-15.656 0-28.344 12.69-28.344 28.347 0 15.656 12.688 28.344 28.344 28.344" transform="matrix(1 0 0 -1 57.091 68.091)"/><path style="fill:none;stroke-width:.6376;stroke-linecap:round;stroke-linejoin:round;stroke:#8b0000;stroke-opacity:1;stroke-miterlimit:10" d="M-1.554 2.072C-1.424 1.296.001.131.388-.002 0-.129-1.424-1.295-1.554-2.07" transform="scale(-.99999 .99999) rotate(-45.002 88.215 89.64)"/><path style="fill:none;stroke-width:.6376;stroke-linecap:round;stroke-linejoin:round;stroke:#8b0000;stroke-opacity:1;stroke-miterlimit:10" d="M-1.553 2.071C-1.423 1.295.002.13.387 0 0-.127-1.424-1.296-1.554-2.072" transform="scale(.99999 -.99999) rotate(44.998 76.877 19.845)"/><use xlink:href="#g" x="90.29" y="54.124" style="fill:#000;fill-opacity:1"/><use xlink:href="#m" x="96.054" y="55.12" style="fill:#000;fill-opacity:1"/><use xlink:href="#d" x="102.21" y="54.124" style="fill:#000;fill-opacity:1"/><use xlink:href="#n" x="110.593" y="54.124" style="fill:#000;fill-opacity:1"/><path style="fill:none;stroke-width:.19925;stroke-linecap:butt;stroke-linejoin:miter;stroke:gray;stroke-opacity:1;stroke-miterlimit:10" d="m3.718 1.29 29.675 10.285" transform="matrix(1 0 0 -1 57.091 68.091)"/><use xlink:href="#g" x="73.699" y="76.304" style="fill:#000;fill-opacity:1"/><use xlink:href="#l" x="79.463" y="77.3" style="fill:#000;fill-opacity:1"/><use xlink:href="#d" x="85.619" y="76.304" style="fill:#000;fill-opacity:1"/><use xlink:href="#o" x="94.002" y="76.304" style="fill:#000;fill-opacity:1"/><use xlink:href="#g" x="60.81" y="98.645" style="fill:#000;fill-opacity:1"/><use xlink:href="#p" x="66.574" y="99.641" style="fill:#000;fill-opacity:1"/><use xlink:href="#d" x="72.73" y="98.645" style="fill:#000;fill-opacity:1"/><use xlink:href="#q" x="81.113" y="98.645" style="fill:#000;fill-opacity:1"/><use xlink:href="#r" x="87.34" y="98.645" style="fill:#000;fill-opacity:1"/><use xlink:href="#g" x="13.096" y="76.304" style="fill:#000;fill-opacity:1"/><use xlink:href="#s" x="18.859" y="77.3" style="fill:#000;fill-opacity:1"/><use xlink:href="#d" x="25.015" y="76.304" style="fill:#000;fill-opacity:1"/><use xlink:href="#q" x="33.399" y="76.304" style="fill:#000;fill-opacity:1"/><use xlink:href="#o" x="39.626" y="76.304" style="fill:#000;fill-opacity:1"/><use xlink:href="#g" x="60.81" y="34.63" style="fill:#000;fill-opacity:1"/><use xlink:href="#t" x="66.574" y="35.627" style="fill:#000;fill-opacity:1"/><use xlink:href="#d" x="72.73" y="34.63" style="fill:#000;fill-opacity:1"/><use xlink:href="#r" x="81.113" y="34.63" style="fill:#000;fill-opacity:1"/><use xlink:href="#u" x="42.799" y="53.007" style="fill:#000;fill-opacity:1"/><use xlink:href="#p" x="47.835" y="50.001" style="fill:#000;fill-opacity:1"/><path style="fill-rule:nonzero;fill:gray;fill-opacity:1;stroke-width:.79701;stroke-linecap:butt;stroke-linejoin:miter;stroke:gray;stroke-opacity:1;stroke-miterlimit:10" d="M-27.337.001c0 .777-.629 1.406-1.41 1.406A1.405 1.405 0 0 1-30.154.001c0-.781.63-1.41 1.407-1.41.781 0 1.41.629 1.41 1.41Zm28.746 0c0 .777-.629 1.406-1.41 1.406A1.405 1.405 0 0 1-1.407.001a1.407 1.407 0 1 1 2.816 0Zm28.746 0c0 .777-.633 1.406-1.41 1.406a1.409 1.409 0 1 1 0-2.816c.777 0 1.41.629 1.41 1.41ZM1.409-28.745a1.409 1.409 0 1 1-2.816 0 1.409 1.409 0 1 1 2.816 0Zm0 57.492c0 .778-.629 1.407-1.41 1.407a1.405 1.405 0 0 1-1.406-1.407 1.407 1.407 0 1 1 2.816 0Zm0 0" transform="matrix(1 0 0 -1 57.091 68.091)"/><path style="fill:none;stroke-width:.79701;stroke-linecap:butt;stroke-linejoin:miter;stroke:#000;stroke-opacity:1;stroke-miterlimit:10" d="M142.44.001h111.973" transform="matrix(1 0 0 -1 57.091 68.091)"/><path style="fill:none;stroke-width:.6376;stroke-linecap:round;stroke-linejoin:round;stroke:#000;stroke-opacity:1;stroke-miterlimit:10" d="M-1.554 2.073C-1.425 1.296.001.128.387 0c-.386-.13-1.812-1.293-1.94-2.07" transform="matrix(-1 0 0 1 199.532 68.091)"/><path style="fill:none;stroke-width:.6376;stroke-linecap:round;stroke-linejoin:round;stroke:#000;stroke-opacity:1;stroke-miterlimit:10" d="M-1.556 2.071C-1.423 1.294 0 .131.39.001c-.391-.129-1.813-1.297-1.946-2.074" transform="matrix(1 0 0 -1 311.505 68.091)"/><use xlink:href="#v" x="315.928" y="69.592" style="fill:#000;fill-opacity:1"/><path style="fill:none;stroke-width:.79701;stroke-linecap:butt;stroke-linejoin:miter;stroke:#000;stroke-opacity:1;stroke-miterlimit:10" d="M198.429-55.987V55.986" transform="matrix(1 0 0 -1 57.091 68.091)"/><path style="fill:none;stroke-width:.6376;stroke-linecap:round;stroke-linejoin:round;stroke:#000;stroke-opacity:1;stroke-miterlimit:10" d="M-1.554 2.07C-1.424 1.295.001.13.388 0 0-.127-1.425-1.295-1.554-2.073" transform="matrix(0 1 1 0 255.519 124.077)"/><path style="fill:none;stroke-width:.6376;stroke-linecap:round;stroke-linejoin:round;stroke:#000;stroke-opacity:1;stroke-miterlimit:10" d="M-1.555 2.074C-1.426 1.296-.001.128.39-.001 0-.129-1.426-1.294-1.555-2.07" transform="matrix(0 -1 -1 0 255.519 12.105)"/><use xlink:href="#w" x="253.399" y="7.679" style="fill:#000;fill-opacity:1"/><path style="fill:none;stroke-width:.79701;stroke-linecap:butt;stroke-linejoin:miter;stroke:#8b0000;stroke-opacity:1;stroke-miterlimit:10" d="M198.429.001h-56.696" transform="matrix(1 0 0 -1 57.091 68.091)"/><path style="fill:none;stroke-width:.6376;stroke-linecap:round;stroke-linejoin:round;stroke:#8b0000;stroke-opacity:1;stroke-miterlimit:10" d="M-1.555 2.073C-1.427 1.296-.001.128.39 0 0-.131-1.427-1.294-1.555-2.071" transform="matrix(-1 0 0 1 239.218 68.091)"/><path style="fill:none;stroke-width:.6376;stroke-linecap:round;stroke-linejoin:round;stroke:#8b0000;stroke-opacity:1;stroke-miterlimit:10" d="M-1.555 2.073C-1.425 1.296 0 .128.387 0 0-.131-1.426-1.294-1.555-2.071" transform="matrix(-1 0 0 1 210.871 68.091)"/><path style="fill:none;stroke-width:.79701;stroke-linecap:butt;stroke-linejoin:miter;stroke:#00008b;stroke-opacity:1;stroke-miterlimit:10" d="M198.429.001h56.69" transform="matrix(1 0 0 -1 57.091 68.091)"/><path style="fill:none;stroke-width:.6376;stroke-linecap:round;stroke-linejoin:round;stroke:#00008b;stroke-opacity:1;stroke-miterlimit:10" d="M-1.554 2.071C-1.425 1.294 0 .131.387.001 0-.128-1.425-1.296-1.554-2.073" transform="matrix(1 0 0 -1 271.82 68.091)"/><path style="fill:none;stroke-width:.6376;stroke-linecap:round;stroke-linejoin:round;stroke:#00008b;stroke-opacity:1;stroke-miterlimit:10" d="M-1.553 2.071C-1.423 1.294-.002.131.39.001 0-.128-1.423-1.296-1.552-2.073" transform="matrix(1 0 0 -1 300.166 68.091)"/><use xlink:href="#c" x="259.236" y="41.553" style="fill:#000;fill-opacity:1"/><use xlink:href="#m" x="263.042" y="42.55" style="fill:#000;fill-opacity:1"/><use xlink:href="#d" x="269.198" y="41.553" style="fill:#000;fill-opacity:1"/><use xlink:href="#r" x="277.582" y="41.553" style="fill:#000;fill-opacity:1"/><use xlink:href="#c" x="272.704" y="76.304" style="fill:#000;fill-opacity:1"/><use xlink:href="#l" x="276.511" y="77.3" style="fill:#000;fill-opacity:1"/><use xlink:href="#d" x="282.667" y="76.304" style="fill:#000;fill-opacity:1"/><use xlink:href="#o" x="291.05" y="76.304" style="fill:#000;fill-opacity:1"/><use xlink:href="#c" x="220.074" y="51.53" style="fill:#000;fill-opacity:1"/><use xlink:href="#p" x="223.88" y="52.526" style="fill:#000;fill-opacity:1"/><use xlink:href="#d" x="230.036" y="51.53" style="fill:#000;fill-opacity:1"/><use xlink:href="#n" x="238.419" y="51.53" style="fill:#000;fill-opacity:1"/><path style="fill:none;stroke-width:.19925;stroke-linecap:butt;stroke-linejoin:miter;stroke:gray;stroke-opacity:1;stroke-miterlimit:10" d="m194.71 2.802-16.4 12.363" transform="matrix(1 0 0 -1 57.091 68.091)"/><use xlink:href="#c" x="212.898" y="76.304" style="fill:#000;fill-opacity:1"/><use xlink:href="#s" x="216.704" y="77.3" style="fill:#000;fill-opacity:1"/><use xlink:href="#d" x="222.86" y="76.304" style="fill:#000;fill-opacity:1"/><use xlink:href="#q" x="231.244" y="76.304" style="fill:#000;fill-opacity:1"/><use xlink:href="#o" x="237.471" y="76.304" style="fill:#000;fill-opacity:1"/><use xlink:href="#c" x="259.235" y="13.207" style="fill:#000;fill-opacity:1"/><use xlink:href="#t" x="263.042" y="14.203" style="fill:#000;fill-opacity:1"/><use xlink:href="#d" x="269.198" y="13.207" style="fill:#000;fill-opacity:1"/><use xlink:href="#x" x="277.581" y="13.207" style="fill:#000;fill-opacity:1"/><use xlink:href="#r" x="283.698" y="13.207" style="fill:#000;fill-opacity:1"/><use xlink:href="#y" x="286.516" y="13.207" style="fill:#000;fill-opacity:1"/><path style="fill-rule:nonzero;fill:gray;fill-opacity:1;stroke-width:.79701;stroke-linecap:butt;stroke-linejoin:miter;stroke:gray;stroke-opacity:1;stroke-miterlimit:10" d="M199.839 28.345a1.41 1.41 0 1 1-2.82 0c0-.777.632-1.406 1.41-1.406.777 0 1.41.629 1.41 1.406ZM171.491.001c0 .777-.633 1.406-1.41 1.406a1.409 1.409 0 1 1 0-2.816c.777 0 1.41.629 1.41 1.41Zm28.348 0c0 .777-.633 1.406-1.41 1.406a1.409 1.409 0 1 1 0-2.816c.777 0 1.41.629 1.41 1.41Zm28.343 0c0 .777-.628 1.406-1.406 1.406a1.407 1.407 0 1 1 1.406-1.406Zm0 0" transform="matrix(1 0 0 -1 57.091 68.091)"/><path style="stroke:none;fill-rule:nonzero;fill:gray;fill-opacity:.1" d="M198.824 68.09V11.398h113.387V68.09Zm0 0"/><use xlink:href="#z" x="202.543" y="19.921" style="fill:#000;fill-opacity:1"/></svg>