<svg height="166.909" viewBox="0 0 323.959 125.182" width="431.945" xmlns="http://www.w3.org/2000/svg" xmlns:xlink="http://www.w3.org/1999/xlink"><symbol id="a" overflow="visible"><path d="m1.734-.734c-.062.234-.296.609-.656.609-.016 0-.234 0-.375-.094a.437.437 0 0 0 .313-.39c0-.157-.125-.25-.282-.25a.407.407 0 0 0 -.406.421c0 .344.39.5.734.5.329 0 .61-.187.782-.484.172.36.547.484.828.484.812 0 1.234-.859 1.234-1.062 0-.094-.094-.094-.11-.094-.108 0-.108.047-.14.125-.14.485-.562.844-.953.844-.281 0-.422-.188-.422-.453 0-.188.172-.813.36-1.594.14-.531.453-.703.687-.703.016 0 .219 0 .375.094a.431.431 0 0 0 -.312.39c0 .141.125.25.28.25a.403.403 0 0 0 .392-.421c0-.391-.454-.516-.72-.516-.359 0-.64.234-.78.5-.126-.281-.454-.5-.844-.5-.782 0-1.219.86-1.219 1.078 0 .078.094.078.11.078.093 0 .093-.016.14-.11.172-.546.61-.843.953-.843.234 0 .422.125.422.453 0 .14-.094.485-.156.735zm0 0"/></symbol><symbol id="b" overflow="visible"><path d="m3.875-2.625c.031-.094.031-.11.031-.156 0-.14-.11-.219-.234-.219a.33.33 0 0 0 -.281.156c-.032.047-.079.266-.11.406l-.156.579a19.65 19.65 0 0 1 -.281 1.125s-.314.609-.844.609c-.484 0-.484-.453-.484-.578 0-.375.156-.813.375-1.36.078-.218.109-.296.109-.421 0-.329-.281-.594-.656-.594-.704 0-1.016.953-1.016 1.078 0 .078.094.078.125.078.094 0 .094-.031.125-.11.172-.577.469-.843.75-.843.11 0 .172.078.172.234 0 .172-.063.313-.094.407-.343.859-.406 1.109-.406 1.421 0 .11 0 .438.266.672.218.172.515.203.703.203.281 0 .531-.093.75-.312-.078.39-.156.688-.453 1.031-.188.219-.47.438-.844.438-.047 0-.375 0-.516-.219.375-.047.375-.375.375-.39 0-.22-.203-.266-.265-.266-.172 0-.407.14-.407.469 0 .343.329.609.829.609.702 0 1.562-.547 1.78-1.422zm0 0"/></symbol><symbol id="c" overflow="visible"><path d="m1.172-.61c.187-.187.312-.312.89-.796.157-.11.672-.532.876-.719.421-.422.687-.781.687-.86 0-.093-.078-.093-.11-.093-.062 0-.093.015-.124.078-.22.313-.36.422-.532.422-.078 0-.187 0-.39-.203-.235-.25-.39-.297-.547-.297-.563 0-.938.61-.938.812 0 .079.063.094.11.094.093 0 .11-.015.125-.094.11-.25.5-.265.61-.265.171 0 .343.047.437.062.39.078.437.078.609.078-.172.204-.297.329-.969.844-.547.438-.734.61-.86.75-.421.406-.624.719-.624.781 0 .079.094.079.125.079.062 0 .078 0 .11-.063.187-.266.405-.422.64-.422.094 0 .187 0 .375.172.219.219.36.313.594.313.734 0 1.203-.844 1.203-1.079 0-.078-.078-.078-.11-.078-.093 0-.109.032-.14.11-.125.343-.531.515-.875.515-.156 0-.344-.047-.516-.078-.312-.078-.375-.078-.5-.078-.016 0-.11 0-.156.016zm0 0"/></symbol><symbol id="d" overflow="visible"><path d="m4.953-4.813c0-.03-.031-.093-.094-.093-.046 0-.046.015-.14.11l-.344.39c-.266-.375-.703-.5-1.125-.5-.984 0-1.86.797-1.86 1.61 0 .093.032.374.235.64.234.265.5.328.969.453.14.031.484.11.594.14.218.047.64.204.64.72 0 .562-.594 1.234-1.375 1.234-.625 0-1.36-.22-1.36-.985 0-.078.016-.234.048-.36v-.03c0-.094-.079-.094-.11-.094-.093 0-.11.016-.125.14l-.36 1.392a.234.234 0 0 0 -.03.11c0 .03.03.078.109.078.031 0 .047-.016.14-.094.079-.094.25-.313.329-.39.375.404.906.482 1.328.482 1.062 0 1.906-.907 1.906-1.735 0-.297-.125-.578-.281-.734-.234-.25-.344-.281-1.25-.5-.14-.031-.375-.078-.438-.11-.171-.062-.468-.234-.468-.624 0-.563.625-1.11 1.343-1.11.766 0 1.125.422 1.125 1.078 0 .094-.03.25-.03.313 0 .11.077.11.124.11.094 0 .11-.048.125-.157zm0 0"/></symbol><symbol id="e" overflow="visible"><path d="m3.672-2.219a8.79 8.79 0 0 0 .125-.562c0-.14-.11-.219-.235-.219a.32.32 0 0 0 -.296.203c-.016.047-.094.344-.141.516-.094.406-.094.406-.203.797-.078.39-.094.453-.11.64.032.14-.03.281-.187.485a.594.594 0 0 1 -.469.234c-.281 0-.625-.094-.625-.64 0-.36.188-.876.328-1.235.125-.297.141-.36.141-.484 0-.329-.281-.594-.656-.594-.704 0-1.016.953-1.016 1.078 0 .078.094.078.125.078.094 0 .094-.031.125-.11.172-.577.469-.843.75-.843.11 0 .172.078.172.234 0 .172-.063.313-.094.407-.406 1.014-.406 1.156-.406 1.374 0 .828.75.921 1.125.921.14 0 .469 0 .781-.453.172.313.547.454.969.454.625 0 .938-.532 1.078-.813.297-.594.484-1.453.484-1.781 0-.516-.296-.547-.343-.547-.188 0-.39.187-.39.375 0 .11.077.172.124.203.172.14.266.344.266.563 0 .093-.297 1.812-1.188 1.812-.562 0-.562-.5-.562-.625 0-.188.031-.297.125-.688zm0 0"/></symbol><symbol id="f" overflow="visible"><path d="m2.266-4.36a.276.276 0 0 0 -.282-.265c-.187 0-.39.188-.39.39 0 .11.078.266.281.266.188 0 .39-.203.39-.39zm-1.422 3.549c-.031.091-.064.17-.064.295 0 .329.266.579.656.579.688 0 1-.954 1-1.063 0-.094-.093-.094-.109-.094-.094 0-.11.047-.14.125-.157.563-.454.844-.735.844-.14 0-.172-.094-.172-.25s.047-.281.11-.438c.078-.187.156-.375.218-.562.063-.172.329-.797.344-.89a.5.5 0 0 0 .048-.221c0-.328-.281-.593-.656-.593-.704.001-1.016.954-1.016 1.079 0 .078.094.078.125.078.094 0 .094-.031.125-.11.172-.593.485-.843.735-.843.109 0 .171.047.171.234 0 .172-.03.266-.203.704zm0 0"/></symbol><symbol id="g" overflow="visible"><path d="m2.953-1.125c-.047.14-.11.406-.11.406-.14.219-.421.594-.843.594-.484 0-.484-.453-.484-.578 0-.406.187-.906.39-1.422.047-.14.094-.234.094-.344 0-.375-.313-.61-.656-.61-.704.001-1.016.955-1.016 1.079 0 .078.094.078.125.078.094 0 .094-.031.125-.11.156-.562.469-.843.735-.843.125 0 .171.078.171.234a.998.998 0 0 1 -.125.47c-.375.967-.375 1.171-.375 1.357 0 .11 0 .438.266.657.203.172.469.218.719.218.437 0 .672-.234.906-.453.156.454.61.454.703.454.235 0 .422-.126.547-.36.156-.281.25-.672.25-.703 0-.094-.094-.094-.11-.094-.109 0-.109.032-.156.219-.093.328-.218.75-.515.75-.172 0-.235-.156-.235-.344 0-.11.063-.375.11-.547.047-.187.125-.468.156-.625l.156-.625c.047-.171.125-.484.125-.515 0-.14-.11-.219-.234-.219-.25 0-.313.203-.36.422zm0 0"/></symbol><symbol id="h" overflow="visible"><path d="m3.719-2.531c0-.547-.328-.547-.344-.547a.403.403 0 0 0 -.375.375c0 .11.063.172.11.203.124.11.265.281.265.563 0 .312-.469 1.812-1.297 1.812-.562 0-.562-.5-.562-.625 0-.313.125-.703.39-1.36.047-.14.094-.25.094-.359 0-.375-.313-.61-.656-.61-.704.001-1.016.955-1.016 1.079 0 .078.094.078.125.078.094 0 .094-.031.125-.11.156-.562.453-.843.735-.843.125 0 .171.078.171.234a.998.998 0 0 1 -.125.47c-.296.78-.375 1.077-.375 1.327 0 .688.547.906 1.079.906 1.171 0 1.656-2.015 1.656-2.593zm0 0"/></symbol><symbol id="i" overflow="visible"><path d="m5.36-2.344c.093 0 .25 0 .25-.172 0-.171-.157-.171-.25-.171h-4.61c-.094 0-.266 0-.266.171 0 .172.157.172.266.172zm0 1.531c.093 0 .25 0 .25-.156 0-.187-.157-.187-.25-.187h-4.61c-.11 0-.266 0-.266.187 0 .156.172.156.266.156zm0 0"/></symbol><symbol id="j" overflow="visible"><path d="m2.469-5.219c-1.313.922-1.672 2.407-1.672 3.469 0 .984.297 2.516 1.672 3.484.062 0 .14 0 .14-.078 0-.047-.015-.062-.062-.11-.938-.842-1.267-2.014-1.267-3.279 0-1.891.719-2.813 1.282-3.329.03-.03.046-.046.046-.078 0-.078-.078-.078-.14-.078zm0 0"/></symbol><symbol id="k" overflow="visible"><path d="m.625-5.219c-.047 0-.125 0-.125.078 0 .032.016.047.063.11.593.547 1.265 1.484 1.265 3.281 0 1.453-.453 2.563-1.203 3.234-.125.126-.125.126-.125.172 0 .032.016.078.078.078.094 0 .75-.453 1.219-1.328.297-.578.5-1.328.5-2.14 0-.986-.297-2.516-1.672-3.486zm0 0"/></symbol><symbol id="l" overflow="visible"><path d="m3.594-2.219c0-.765-.094-1.328-.406-1.812-.22-.313-.657-.594-1.204-.594-1.624 0-1.624 1.906-1.624 2.406s0 2.36 1.625 2.36c1.61 0 1.61-1.86 1.61-2.36zm-1.61 2.156c-.328 0-.75-.187-.89-.75-.094-.406-.094-.983-.094-1.5 0-.515 0-1.046.094-1.421.156-.547.593-.704.89-.704.375 0 .735.235.86.641.11.375.125.875.125 1.485 0 .515 0 1.03-.094 1.468-.14.64-.61.781-.89.781zm0 0"/></symbol><symbol id="m" overflow="visible"><path d="m2.328-4.438c0-.187 0-.187-.203-.187-.453.438-1.078.438-1.36.438v.25c.157 0 .626 0 1-.188v3.547c0 .234 0 .328-.687.328h-.266v.25c.125 0 .985-.031 1.235-.031.219 0 1.094.031 1.25.031v-.25h-.267c-.703 0-.703-.094-.703-.328zm0 0"/></symbol><symbol id="n" overflow="visible"><path d="m3.219-1.578h2.14c.094 0 .25 0 .25-.156 0-.188-.156-.188-.25-.188h-2.139v-2.14c0-.079 0-.25-.156-.25-.172 0-.172.156-.172.25v2.14h-2.142c-.094 0-.266 0-.266.172s.157.172.266.172h2.14v2.14c0 .094 0 .266.157.266.172 0 .172-.172.172-.265zm0 0"/></symbol><symbol id="o" overflow="visible"><path d="m2.578-.297c.063.125.281.36.797.36.953 0 1.203-1.61 1.203-1.844 0-.344-.203-.422-.281-.422-.156 0-.297.156-.297.281 0 .094.063.14.094.172.14.11.187.234.187.375 0 .14-.25 1.266-.875 1.266-.203 0-.484-.063-.484-.454 0-.015 0-.109.031-.265.047-.188.188-.766.266-1.031.015-.079.015-.094.015-.11 0-.11-.093-.172-.187-.172a.236.236 0 0 0 -.219.125c-.015.032-.062.22-.094.329-.062.28-.062.296-.14.578a1.912 1.912 0 0 0 -.094.468c.016.094 0 .11-.047.204-.187.328-.39.328-.469.328a.698.698 0 0 1 -.406-.125c-.125-.11-.125-.297-.125-.36 0-.203.063-.406.281-.906.032-.11.063-.188.063-.266 0-.25-.234-.437-.547-.437-.516 0-.797.64-.797.765 0 .079.078.079.11.079.078 0 .078-.032.109-.094.11-.344.344-.578.562-.578.094 0 .157.047.157.187 0 .094-.032.157-.094.297-.266.656-.266.781-.266.906 0 .563.516.704.922.704.094 0 .375 0 .625-.36zm0 0"/></symbol><symbol id="p" overflow="visible"><path d="m1.969-3.11c0-.124-.078-.218-.219-.218-.14 0-.297.14-.297.297 0 .14.11.219.219.219a.308.308 0 0 0 .297-.297zm.234 2.391c0-.062-.078-.062-.094-.062-.093 0-.093.015-.125.11-.078.265-.312.562-.562.562-.11 0-.14-.079-.14-.188 0-.11.015-.172.062-.266.031-.093.078-.187.11-.265.015-.047.202-.5.28-.688.032-.093.063-.171.063-.25 0-.234-.234-.437-.547-.437-.516 0-.797.64-.797.765 0 .079.078.079.11.079.078 0 .078-.032.109-.094.11-.36.344-.578.562-.578.094 0 .157.047.157.187 0 .016 0 .078-.032.172-.03.094-.265.625-.328.797-.047.094-.047.094-.11.266-.03.078-.062.14-.062.218 0 .266.25.454.547.454.516 0 .797-.657.797-.782zm0 0"/></symbol><symbol id="q" overflow="visible"><path d="m2.703-1.11h1.735c.062 0 .203 0 .203-.14s-.141-.14-.204-.14h-1.733v-1.735c0-.063 0-.203-.14-.203-.141 0-.141.14-.141.203v1.734h-1.736c-.062 0-.203 0-.203.141 0 .14.141.14.204.14h1.734v1.736c0 .078 0 .203.14.203.141 0 .141-.125.141-.203zm0 0"/></symbol><symbol id="r" overflow="visible"><path d="m1.984-3.172c0-.14-.015-.14-.187-.14-.344.312-.907.312-1 .312h-.078v.219h.078c.11 0 .437-.016.734-.14v2.5c0 .14 0 .202-.531.202h-.25v.219c.266-.016.719-.016 1-.016.297 0 .734 0 1.016.016v-.219h-.25c-.532 0-.532-.062-.532-.203zm0 0"/></symbol><symbol id="s" overflow="visible"><path d="m3-1.594c0-.36 0-1.718-1.313-1.718-1.296-.001-1.296 1.358-1.296 1.717-.001.361-.001 1.705 1.296 1.705 1.313 0 1.313-1.344 1.313-1.704zm-1.313 1.532c-.171 0-.593-.063-.718-.563-.079-.266-.079-.625-.079-1.031 0-.375 0-.719.078-1 .125-.422.515-.5.719-.5.375 0 .64.187.734.547.078.25.078.656.078.953 0 .343 0 .75-.078 1.047-.125.484-.531.546-.735.546zm0 0"/></symbol><symbol id="t" overflow="visible"><path d="m2.938-.969h-.22c0 .094-.062.406-.14.453-.031.032-.453.032-.531.032h-.969c.328-.235.688-.516.984-.72.454-.312.876-.593.876-1.124 0-.64-.61-.985-1.313-.985-.672 0-1.172.376-1.172.876 0 .25.219.296.297.296a.283.283 0 0 0 .281-.296.27.27 0 0 0 -.281-.282c.14-.234.438-.375.766-.375.484 0 .89.281.89.766 0 .422-.297.75-.672 1.062l-1.218 1.032c-.047.047-.063.047-.063.078v.156h2.313zm0 0"/></symbol><symbol id="u" overflow="visible"><path d="m1.64-1.656c.47 0 .766.297.766.781 0 .516-.312.781-.75.781-.062 0-.656 0-.906-.265.203-.032.266-.172.266-.297a.304.304 0 0 0 -.313-.314c-.156 0-.297.11-.297.328 0 .516.578.75 1.266.75.812 0 1.312-.5 1.312-.984 0-.406-.359-.75-.921-.875.593-.203.75-.578.75-.86 0-.406-.5-.703-1.126-.703-.625 0-1.109.25-1.109.704a.28.28 0 0 0 .281.296.284.284 0 0 0 .282-.296c0-.11-.063-.25-.235-.282.203-.218.656-.234.766-.234.36 0 .61.172.61.516 0 .296-.188.75-.704.78-.14 0-.156 0-.297.016-.047 0-.11 0-.11.079 0 .078.048.078.141.078zm0 0"/></symbol><symbol id="v" overflow="visible"><path d="m3.078-.813v-.218h-.625v-2.189c0-.125 0-.156-.14-.156-.094 0-.094 0-.157.078l-1.844 2.268v.218h1.658v.391c0 .156 0 .203-.422.203h-.188v.218c.235-.016.563-.016.86-.016.281 0 .61 0 .844.016v-.219h-.174c-.438 0-.438-.047-.438-.203v-.39zm-1.062-2.03v1.812h-1.47zm0 0"/></symbol><symbol id="w" overflow="visible"><path d="m5.188-1.578c.109 0 .28 0 .28-.156 0-.188-.171-.188-.28-.188h-4.158c-.11 0-.281 0-.281.172s.156.172.281.172zm0 0"/></symbol><symbol id="x" overflow="visible"><path d="m4.031-1.906c-.375-.438-.484-.547-.75-.735a2.13 2.13 0 0 0 -1.25-.437c-.875 0-1.5.75-1.5 1.578 0 .813.61 1.563 1.469 1.563.969 0 1.656-.782 1.906-1.157.36.438.485.547.735.735.437.312.875.421 1.265.421.86 0 1.485-.734 1.485-1.562s-.594-1.578-1.47-1.578c-.968 0-1.64.797-1.89 1.172zm.219.25c.281-.453.89-1.157 1.734-1.157.72 0 1.22.641 1.22 1.313 0 .656-.548 1.188-1.188 1.188-.657 0-1.094-.532-1.766-1.344zm-.578.297c-.266.453-.875 1.171-1.735 1.171-.717 0-1.203-.64-1.203-1.312s.547-1.188 1.188-1.188c.64 0 1.094.532 1.75 1.329zm0 0"/></symbol><symbol id="y" overflow="visible"><path d="m.344-4.781c-.125 0-.235 0-.235.14 0 .11.141.11.188.11.36 0 .39.062.39.406v3.484c0 .344-.03.391-.375.391-.078 0-.203 0-.203.125s.111.125.235.125h2.015c1.22 0 2.454-.766 2.454-2.469 0-1.672-1.329-2.312-2.454-2.312zm2.875.39c.984.329 1.36 1.094 1.36 1.922 0 1.172-.641 1.828-1.345 2.063.454-.469.594-1.25.594-2.047 0-1.016-.265-1.563-.625-1.938zm-2.344 4.141c.063-.125.063-.281.063-.375v-3.516c0-.093 0-.265-.063-.39h.797c-.094.11-.094.265-.094.36v3.577c0 .094 0 .235.094.344zm.953-3.906c0-.157 0-.219.125-.297.063-.047.188-.078.328-.078.594 0 1.313.515 1.313 2.078 0 .875-.188 2.203-1.36 2.203-.406 0-.406-.234-.406-.375zm0 0"/></symbol><symbol id="z" overflow="visible"><path d="m4.688-4.125c0-.36.03-.406.437-.406.063 0 .172 0 .172-.11 0-.14-.094-.14-.219-.14h-1.906c-.125 0-.235 0-.235.14 0 .11.141.11.188.11.406 0 .422.062.422.406v1.547h-1.672v-1.547c0-.36.016-.406.422-.406.062 0 .187 0 .187-.11 0-.14-.109-.14-.234-.14h-1.89c-.126 0-.235 0-.235.14 0 .11.125.11.188.11.39 0 .421.062.421.406v3.484c0 .329-.03.391-.39.391-.11 0-.219 0-.219.125s.11.125.234.125h1.891c.125 0 .234 0 .234-.125s-.124-.125-.203-.125c-.39 0-.406-.063-.406-.39v-1.626h1.672v1.626c0 .329-.016.391-.39.391-.095 0-.22 0-.22.125s.11.125.235.125h1.906c.125 0 .219 0 .219-.125s-.11-.125-.188-.125c-.406 0-.421-.063-.421-.39zm-3.72-.016c0-.093 0-.265-.046-.39h.75c-.047.125-.047.297-.047.39v3.516c0 .078 0 .25.047.375h-.75c.047-.125.047-.297.047-.375zm2.829 0c0-.093 0-.265-.047-.39h.75c-.047.125-.047.297-.047.39v3.516c0 .078 0 .25.047.375h-.75c.047-.125.047-.297.047-.375zm0 0"/></symbol><path d="m-55.986.001h111.973" fill="none" stroke="#000" stroke-miterlimit="10" stroke-width=".79701" transform="matrix(1 0 0 -1 57.091 68.091)"/><path d="m-1.555 2.073c.129-.777 1.554-1.945 1.945-2.073-.39-.131-1.816-1.294-1.945-2.071" style="fill:none;stroke-width:.6376;stroke-linecap:round;stroke-linejoin:round;stroke:#000;stroke-miterlimit:10" transform="matrix(-1 0 0 1 1.105 68.091)"/><path d="m-1.554 2.071c.13-.777 1.555-1.94 1.942-2.07-.388-.129-1.813-1.297-1.942-2.074" style="fill:none;stroke-width:.6376;stroke-linecap:round;stroke-linejoin:round;stroke:#000;stroke-miterlimit:10" transform="matrix(1 0 0 -1 113.077 68.091)"/><use x="117.503" xlink:href="#a" y="69.592"/><path d="m-.001-55.987v111.973" fill="none" stroke="#000" stroke-miterlimit="10" stroke-width=".79701" transform="matrix(1 0 0 -1 57.091 68.091)"/><path d="m-1.554 2.073c.13-.777 1.555-1.945 1.942-2.073-.388-.131-1.813-1.294-1.942-2.071" style="fill:none;stroke-width:.6376;stroke-linecap:round;stroke-linejoin:round;stroke:#000;stroke-miterlimit:10" transform="matrix(0 1 1 0 57.091 124.077)"/><path d="m-1.555 2.071c.129-.777 1.554-1.94 1.945-2.07-.39-.129-1.816-1.297-1.945-2.074" style="fill:none;stroke-width:.6376;stroke-linecap:round;stroke-linejoin:round;stroke:#000;stroke-miterlimit:10" transform="matrix(0 -1 -1 0 57.091 12.105)"/><use x="54.946" xlink:href="#b" y="6.323"/><path d="m77.952.001h41.816" fill="none" stroke="#000" stroke-miterlimit="10" stroke-width=".79701" transform="matrix(1 0 0 -1 57.091 68.091)"/><path d="m-1.553 2.071c.129-.777 1.553-1.94 1.941-2.07-.387-.129-1.812-1.297-1.941-2.074" style="fill:none;stroke-width:.6376;stroke-linecap:round;stroke-linejoin:round;stroke:#000;stroke-miterlimit:10" transform="matrix(1 0 0 -1 176.858 68.091)"/><use x="139.573" xlink:href="#c" y="48.362"/><use x="145.933" xlink:href="#i" y="48.362"/><use x="154.316" xlink:href="#d" y="48.362"/><use x="159.59" xlink:href="#j" y="48.362"/><use x="162.703" xlink:href="#e" y="48.362"/><use x="168.654" xlink:href="#k" y="48.362"/><use x="145.933" xlink:href="#i" y="61.141"/><use x="157.207" xlink:href="#o" y="58.059"/><use x="162.367" xlink:href="#q" y="58.059"/><use x="167.487" xlink:href="#p" y="58.059"/><path d="m0-.001h16.328" fill="none" stroke="#000" stroke-miterlimit="10" stroke-width=".339" transform="matrix(1 0 0 -1 155.512 59.397)"/><g><use x="155.512" xlink:href="#p" y="63.541"/><use x="158.17" xlink:href="#o" y="63.541"/></g><g><use x="163.33" xlink:href="#q" y="63.541"/><use x="168.45" xlink:href="#r" y="63.541"/></g><g stroke-miterlimit="10"><path d="m28.346.001c0 15.656-12.69 28.344-28.347 28.344-15.656 0-28.344-12.688-28.344-28.344s12.688-28.348 28.345-28.348 28.347 12.693 28.347 28.349zm0 0" fill="#808080" fill-opacity=".1" stroke="#808080" stroke-opacity=".1" stroke-width=".79701" transform="matrix(1 0 0 -1 57.091 68.091)"/><path d="m-.001-28.346c15.656 0 28.348 12.69 28.348 28.347 0 15.656-12.692 28.344-28.348 28.344" fill="none" stroke="#00008b" stroke-width=".79701" transform="matrix(1 0 0 -1 57.091 68.091)"/><path d="m-1.555 2.072c.13-.776 1.555-1.941 1.944-2.071-.39-.13-1.815-1.296-1.942-2.075" fill="none" stroke="#00008b" stroke-linecap="round" stroke-linejoin="round" stroke-width=".6376" transform="matrix(.70707503 -.70712439 -.70712439 -.70707503 76.636799 88.63543)"/><path d="m-1.554 2.07c.13-.774 1.555-1.94 1.942-2.067-.388-.134-1.812-1.299-1.942-2.075" fill="none" stroke="#00008b" stroke-linecap="round" stroke-linejoin="round" stroke-width=".6376" transform="matrix(-.70712439 -.70707503 -.70707503 .70712439 77.634558 48.545985)"/><path d="m-.001-28.346c-15.656 0-28.344 12.69-28.344 28.347 0 15.656 12.688 28.344 28.344 28.344" fill="none" stroke="#8b0000" stroke-width=".79701" transform="matrix(1 0 0 -1 57.091 68.091)"/><path d="m-1.554 2.072c.13-.776 1.555-1.941 1.942-2.074-.388-.127-1.812-1.293-1.942-2.068" fill="none" stroke="#8b0000" stroke-linecap="round" stroke-linejoin="round" stroke-width=".6376" transform="matrix(-.70707503 -.70712439 -.70712439 .70707503 37.547136 88.635876)"/><path d="m-1.553 2.071c.13-.776 1.555-1.941 1.94-2.071-.387-.127-1.811-1.296-1.941-2.072" fill="none" stroke="#8b0000" stroke-linecap="round" stroke-linejoin="round" stroke-width=".6376" transform="matrix(.70712439 -.70707503 -.70707503 -.70712439 36.546533 48.545889)"/></g><use x="90.29" xlink:href="#e" y="54.124"/><use x="96.054" xlink:href="#s" y="55.12"/><use x="102.21" xlink:href="#i" y="54.124"/><use x="110.593" xlink:href="#l" y="54.124"/><path d="m3.718 1.29 29.675 10.285" fill="none" stroke="#808080" stroke-miterlimit="10" stroke-width=".19925" transform="matrix(1 0 0 -1 57.091 68.091)"/><use x="73.699" xlink:href="#e" y="76.304"/><use x="79.463" xlink:href="#r" y="77.3"/><use x="85.619" xlink:href="#i" y="76.304"/><use x="94.002" xlink:href="#m" y="76.304"/><use x="60.81" xlink:href="#e" y="98.645"/><use x="66.574" xlink:href="#t" y="99.641"/><use x="72.73" xlink:href="#i" y="98.645"/><use x="81.113" xlink:href="#w" y="98.645"/><use x="87.34" xlink:href="#f" y="98.645"/><use x="13.096" xlink:href="#e" y="76.304"/><use x="18.859" xlink:href="#u" y="77.3"/><use x="25.015" xlink:href="#i" y="76.304"/><use x="33.399" xlink:href="#w" y="76.304"/><use x="39.626" xlink:href="#m" y="76.304"/><use x="60.81" xlink:href="#e" y="34.63"/><use x="66.574" xlink:href="#v" y="35.627"/><use x="72.73" xlink:href="#i" y="34.63"/><use x="81.113" xlink:href="#f" y="34.63"/><use x="42.799" xlink:href="#y" y="53.007"/><use x="47.835" xlink:href="#t" y="50.001"/><path d="m-27.337.001c0 .777-.629 1.406-1.41 1.406a1.405 1.405 0 0 1 -1.407-1.406c0-.781.63-1.41 1.407-1.41.781 0 1.41.629 1.41 1.41zm28.746 0c0 .777-.629 1.406-1.41 1.406a1.405 1.405 0 0 1 -1.406-1.406 1.407 1.407 0 1 1 2.816 0zm28.746 0c0 .777-.633 1.406-1.41 1.406a1.409 1.409 0 1 1 0-2.816c.777 0 1.41.629 1.41 1.41zm-28.746-28.746a1.409 1.409 0 1 1 -2.816 0 1.409 1.409 0 1 1 2.816 0zm0 57.492c0 .778-.629 1.407-1.41 1.407a1.405 1.405 0 0 1 -1.406-1.407 1.407 1.407 0 1 1 2.816 0zm0 0" fill="#808080" stroke="#808080" stroke-miterlimit="10" stroke-width=".79701" transform="matrix(1 0 0 -1 57.091 68.091)"/><path d="m142.44.001h111.973" fill="none" stroke="#000" stroke-miterlimit="10" stroke-width=".79701" transform="matrix(1 0 0 -1 57.091 68.091)"/><path d="m-1.554 2.073c.129-.777 1.555-1.945 1.941-2.073-.386-.13-1.812-1.293-1.94-2.07" style="fill:none;stroke-width:.6376;stroke-linecap:round;stroke-linejoin:round;stroke:#000;stroke-miterlimit:10" transform="matrix(-1 0 0 1 199.532 68.091)"/><path d="m-1.556 2.071c.133-.777 1.556-1.94 1.946-2.07-.391-.129-1.813-1.297-1.946-2.074" style="fill:none;stroke-width:.6376;stroke-linecap:round;stroke-linejoin:round;stroke:#000;stroke-miterlimit:10" transform="matrix(1 0 0 -1 311.505 68.091)"/><use x="315.928" xlink:href="#g" y="69.592"/><path d="m198.429-55.987v111.973" fill="none" stroke="#000" stroke-miterlimit="10" stroke-width=".79701" transform="matrix(1 0 0 -1 57.091 68.091)"/><path d="m-1.554 2.07c.13-.775 1.555-1.94 1.942-2.07-.388-.127-1.813-1.295-1.942-2.073" style="fill:none;stroke-width:.6376;stroke-linecap:round;stroke-linejoin:round;stroke:#000;stroke-miterlimit:10" transform="matrix(0 1 1 0 255.519 124.077)"/><path d="m-1.555 2.074c.129-.778 1.554-1.946 1.945-2.075-.39-.128-1.816-1.293-1.945-2.069" style="fill:none;stroke-width:.6376;stroke-linecap:round;stroke-linejoin:round;stroke:#000;stroke-miterlimit:10" transform="matrix(0 -1 -1 0 255.519 12.105)"/><use x="253.399" xlink:href="#h" y="7.679"/><path d="m198.429.001h-56.696" fill="none" stroke="#8b0000" stroke-miterlimit="10" stroke-width=".79701" transform="matrix(1 0 0 -1 57.091 68.091)"/><path d="m-1.555 2.073c.128-.777 1.554-1.945 1.945-2.073-.39-.131-1.817-1.294-1.945-2.071" style="fill:none;stroke-width:.6376;stroke-linecap:round;stroke-linejoin:round;stroke:#8b0000;stroke-miterlimit:10" transform="matrix(-1 0 0 1 239.218 68.091)"/><path d="m-1.555 2.073c.13-.777 1.555-1.945 1.942-2.073-.387-.131-1.813-1.294-1.942-2.071" style="fill:none;stroke-width:.6376;stroke-linecap:round;stroke-linejoin:round;stroke:#8b0000;stroke-miterlimit:10" transform="matrix(-1 0 0 1 210.871 68.091)"/><path d="m198.429.001h56.69" fill="none" stroke="#00008b" stroke-miterlimit="10" stroke-width=".79701" transform="matrix(1 0 0 -1 57.091 68.091)"/><path d="m-1.554 2.071c.129-.777 1.554-1.94 1.941-2.07-.387-.129-1.812-1.297-1.941-2.074" style="fill:none;stroke-width:.6376;stroke-linecap:round;stroke-linejoin:round;stroke:#00008b;stroke-miterlimit:10" transform="matrix(1 0 0 -1 271.82 68.091)"/><path d="m-1.553 2.071c.13-.777 1.551-1.94 1.943-2.07-.39-.129-1.813-1.297-1.942-2.074" style="fill:none;stroke-width:.6376;stroke-linecap:round;stroke-linejoin:round;stroke:#00008b;stroke-miterlimit:10" transform="matrix(1 0 0 -1 300.166 68.091)"/><use x="259.236" xlink:href="#c" y="41.553"/><use x="263.042" xlink:href="#s" y="42.55"/><use x="269.198" xlink:href="#i" y="41.553"/><use x="277.582" xlink:href="#f" y="41.553"/><use x="272.704" xlink:href="#c" y="76.304"/><use x="276.511" xlink:href="#r" y="77.3"/><use x="282.667" xlink:href="#i" y="76.304"/><use x="291.05" xlink:href="#m" y="76.304"/><use x="220.074" xlink:href="#c" y="51.53"/><use x="223.88" xlink:href="#t" y="52.526"/><use x="230.036" xlink:href="#i" y="51.53"/><use x="238.419" xlink:href="#l" y="51.53"/><path d="m194.71 2.802-16.4 12.363" fill="none" stroke="#808080" stroke-miterlimit="10" stroke-width=".19925" transform="matrix(1 0 0 -1 57.091 68.091)"/><use x="212.898" xlink:href="#c" y="76.304"/><use x="216.704" xlink:href="#u" y="77.3"/><use x="222.86" xlink:href="#i" y="76.304"/><use x="231.244" xlink:href="#w" y="76.304"/><use x="237.471" xlink:href="#m" y="76.304"/><use x="259.235" xlink:href="#c" y="13.207"/><use x="263.042" xlink:href="#v" y="14.203"/><use x="269.198" xlink:href="#i" y="13.207"/><use x="277.581" xlink:href="#n" y="13.207"/><use x="283.698" xlink:href="#f" y="13.207"/><use x="286.516" xlink:href="#x" y="13.207"/><path d="m199.839 28.345a1.41 1.41 0 1 1 -2.82 0c0-.777.632-1.406 1.41-1.406.777 0 1.41.629 1.41 1.406zm-28.348-28.344c0 .777-.633 1.406-1.41 1.406a1.409 1.409 0 1 1 0-2.816c.777 0 1.41.629 1.41 1.41zm28.348 0c0 .777-.633 1.406-1.41 1.406a1.409 1.409 0 1 1 0-2.816c.777 0 1.41.629 1.41 1.41zm28.343 0c0 .777-.628 1.406-1.406 1.406a1.407 1.407 0 1 1 1.406-1.406zm0 0" fill="#808080" stroke="#808080" stroke-miterlimit="10" stroke-width=".79701" transform="matrix(1 0 0 -1 57.091 68.091)"/><path d="m198.824 68.09v-56.692h113.387v56.692zm0 0" fill="#808080" fill-opacity=".1"/><use x="202.543" xlink:href="#z" y="19.921"/></svg>