<svg xmlns="http://www.w3.org/2000/svg" xmlns:xlink="http://www.w3.org/1999/xlink" width="210.764" height="141.747" viewBox="0 0 158.073 106.31"><defs><symbol overflow="visible" id="a"><path d="M1.688 1.688c-.032.14-.047.156-.047.203 0 .218.187.28.296.28a.413.413 0 0 0 .36-.265c.031-.078.078-.406.36-1.812.077 0 .155.015.327.015 1.657 0 3.188-1.562 3.188-3.14 0-.781-.39-1.375-1.14-1.375-1.438 0-2.048 1.937-2.641 3.875C1.312-.734.75-1.281.75-2c0-.281.234-1.375.828-2.063.094-.093.094-.109.094-.14 0-.031-.031-.094-.125-.094C1.266-4.297.5-2.844.5-1.89c0 .938.656 1.657 1.719 1.907zM3.077-.47c-.094 0-.11 0-.187-.015-.125 0-.125 0-.125-.032 0-.015.171-.937.187-1.078.313-1.281 1.094-2.234 1.985-2.234.687 0 .953.531.953 1.015 0 1.126-1.282 2.344-2.813 2.344zm0 0"/></symbol><symbol overflow="visible" id="f"><path d="M.453 1.219c-.078.343-.11.406-.547.406-.11 0-.218 0-.218.188 0 .078.046.125.124.125.266 0 .563-.032.829-.032.343 0 .671.032 1 .032.046 0 .171 0 .171-.204 0-.109-.093-.109-.234-.109-.5 0-.5-.063-.5-.156 0-.125.422-1.75.484-2 .125.297.407.64.922.64 1.157 0 2.407-1.453 2.407-2.921 0-.938-.579-1.594-1.329-1.594-.5 0-.984.36-1.312.75-.094-.547-.531-.75-.89-.75-.47 0-.657.39-.735.562-.188.344-.313.938-.313.969 0 .11.094.11.11.11.11 0 .11-.016.172-.235.172-.703.375-1.188.734-1.188.172 0 .313.079.313.454 0 .234-.032.343-.079.515zm1.75-4.328c.063-.266.344-.547.516-.704.36-.296.64-.374.812-.374.39 0 .64.343.64.937 0 .594-.327 1.734-.515 2.11-.344.702-.812 1.03-1.187 1.03-.656 0-.781-.828-.781-.89 0-.016 0-.031.03-.156zm0 0"/></symbol><symbol overflow="visible" id="bk"><path d="M2.031-.016c0-.656-.25-1.046-.64-1.046a.517.517 0 0 0-.532.53c0 .266.204.532.532.532a.58.58 0 0 0 .343-.125c.032-.031.047-.031.047-.031.016 0 .016 0 .016.14 0 .75-.344 1.344-.672 1.672-.11.11-.11.125-.11.157 0 .078.048.109.094.109.11 0 .922-.766.922-1.938zm0 0"/></symbol><symbol overflow="visible" id="b"><path d="M2.938-2.656c-.141-.235-.376-.422-.72-.422-.89 0-1.796.984-1.796 1.984C.422-.406.875.063 1.484.063c.375 0 .704-.204.985-.485.125.422.531.484.719.484.25 0 .421-.14.546-.359.157-.281.25-.672.25-.703 0-.094-.093-.094-.109-.094-.11 0-.11.032-.156.219-.094.344-.219.75-.516.75-.172 0-.234-.156-.234-.344 0-.11.062-.375.11-.547.046-.187.124-.468.155-.625l.141-.53c.047-.188.125-.517.125-.548 0-.156-.125-.219-.234-.219-.125 0-.282.079-.329.282zM2.5-.875c-.047.203-.203.344-.36.469-.062.062-.343.281-.64.281-.266 0-.516-.188-.516-.672 0-.375.204-1.14.375-1.422.313-.562.672-.656.86-.656.484 0 .625.531.625.61 0 .015-.016.078-.016.093zm0 0"/></symbol><symbol overflow="visible" id="c"><path d="M3.047-2.672c-.25.047-.344.235-.344.39 0 .188.14.266.266.266.156 0 .39-.109.39-.453 0-.469-.53-.61-.906-.61-1.047 0-2.015.97-2.015 1.938 0 .594.406 1.204 1.28 1.204 1.188 0 1.735-.688 1.735-.782 0-.047-.062-.125-.125-.125-.031 0-.047.016-.11.078-.546.641-1.359.641-1.484.641-.5 0-.718-.344-.718-.781 0-.188.093-.953.453-1.438.265-.344.625-.531.984-.531.094 0 .422.016.594.203zm0 0"/></symbol><symbol overflow="visible" id="d"><path d="M1.844-4.625c0-.016.031-.11.031-.11 0-.046-.031-.109-.125-.109-.14 0-.719.063-.89.078-.047 0-.157.016-.157.157 0 .093.11.093.188.093.328 0 .328.063.328.11s-.063.328-.11.484l-.156.64C.891-3.031.516-1.515.5-1.421c-.047.172-.047.266-.047.344 0 .703.453 1.14 1.031 1.14.875 0 1.797-.937 1.797-1.968 0-.813-.562-1.172-1.047-1.172-.359 0-.671.203-.875.39zm-.36 4.5c-.328 0-.53-.297-.53-.719 0-.25.062-.484.265-1.281.031-.125.031-.14.172-.297.265-.297.578-.453.828-.453.265 0 .5.203.5.672 0 .281-.14 1-.36 1.406-.171.344-.515.672-.875.672zm0 0"/></symbol><symbol overflow="visible" id="e"><path d="M3.984-4.625c0-.016.016-.11.016-.11 0-.046-.016-.109-.11-.109-.14 0-.718.063-.89.078-.047 0-.156.016-.156.157 0 .093.11.093.187.093.328 0 .328.063.328.11s0 .093-.015.156l-.406 1.594c-.141-.235-.376-.422-.72-.422-.89 0-1.796.984-1.796 1.984C.422-.406.875.063 1.484.063c.375 0 .704-.204.985-.485.125.422.531.484.719.484.25 0 .421-.14.546-.359.157-.281.25-.672.25-.703 0-.094-.093-.094-.109-.094-.11 0-.11.032-.156.219-.094.344-.219.75-.516.75-.172 0-.234-.156-.234-.344 0-.125.015-.187.047-.281zM2.5-.875c-.047.203-.203.344-.36.469-.062.062-.343.281-.64.281-.266 0-.516-.188-.516-.672 0-.375.204-1.14.375-1.422.313-.562.672-.656.86-.656.484 0 .625.531.625.61 0 .015-.016.078-.016.093zm0 0"/></symbol><symbol overflow="visible" id="bh"><path d="M2.188-4.625c0-.016.015-.11.015-.11 0-.046-.015-.109-.11-.109-.14 0-.718.063-.89.078-.047 0-.156.016-.156.157 0 .093.11.093.187.093.329 0 .329.063.329.11s-.016.093-.016.156L.563-.312c-.047.124-.047.14-.047.156 0 .11.093.218.25.218.187 0 .265-.124.312-.28.016-.032.313-1.266.344-1.36.5.047.89.219.89.578 0 .031 0 .063-.015.14-.031.094-.031.141-.031.22 0 .484.406.703.75.703.671 0 .875-1.047.875-1.063 0-.094-.079-.094-.11-.094-.094 0-.11.047-.14.172-.079.297-.266.797-.61.797-.187 0-.25-.172-.25-.36 0-.124 0-.14.047-.312a.724.724 0 0 0 .031-.219c0-.625-.828-.718-1.125-.734.204-.125.454-.36.579-.469.359-.328.703-.656 1.093-.656.078 0 .172.016.235.094a.396.396 0 0 0-.36.39c0 .141.11.25.266.25.203 0 .406-.156.406-.437a.5.5 0 0 0-.531-.5c-.406 0-.766.297-1.125.625-.297.265-.516.484-.813.61zm0 0"/></symbol><symbol overflow="visible" id="bi"><path d="M1.469-.11c0 .376-.063.829-.547 1.266-.016.032-.047.063-.047.094 0 .047.063.094.094.094.11 0 .703-.563.703-1.39 0-.423-.172-.75-.5-.75a.387.387 0 0 0-.39.39c0 .219.155.406.405.406.172 0 .282-.11.282-.11zm0 0"/></symbol><symbol overflow="visible" id="g"><path d="M2.328-4.438c0-.187 0-.187-.203-.187-.453.438-1.078.438-1.36.438v.25c.157 0 .626 0 1-.188v3.547c0 .234 0 .328-.687.328H.812V0c.125 0 .985-.031 1.235-.031.219 0 1.094.031 1.25.031v-.25H3.03c-.703 0-.703-.094-.703-.328zm0 0"/></symbol><symbol overflow="visible" id="h"><path d="M1.906-2.328c.547 0 .938.375.938 1.125 0 .86-.516 1.125-.906 1.125-.282 0-.907-.078-1.188-.5.328 0 .406-.235.406-.39 0-.22-.172-.376-.39-.376a.38.38 0 0 0-.391.407C.375-.281 1.094.14 1.938.14c.968 0 1.64-.657 1.64-1.344 0-.547-.437-1.094-1.203-1.25.719-.266.984-.781.984-1.219 0-.547-.625-.953-1.406-.953-.766 0-1.36.375-1.36.938 0 .234.157.359.36.359.219 0 .36-.156.36-.344 0-.203-.141-.36-.36-.375.25-.297.719-.375.985-.375.312 0 .75.156.75.75 0 .297-.094.625-.282.828-.219.266-.422.281-.765.313-.172.015-.188.015-.22.015-.015 0-.077.016-.077.094 0 .094.062.094.187.094zm0 0"/></symbol><symbol overflow="visible" id="i"><path d="M3.516-1.266H3.28c-.015.157-.094.563-.187.625-.047.047-.578.047-.688.047H1.125c.734-.64.984-.844 1.39-1.172.516-.406 1-.843 1-1.5 0-.843-.734-1.359-1.624-1.359-.86 0-1.454.61-1.454 1.25 0 .344.297.39.376.39.156 0 .359-.124.359-.374 0-.125-.047-.375-.406-.375.218-.485.687-.641 1.015-.641.703 0 1.063.547 1.063 1.11 0 .609-.438 1.078-.656 1.328L.516-.266C.437-.203.437-.187.437 0h2.876zm0 0"/></symbol><symbol overflow="visible" id="j"><path d="M3.688-1.14v-.25h-.782V-4.5c0-.14 0-.203-.14-.203-.094 0-.125 0-.188.11L.266-1.392v.25h2.062v.563c0 .25 0 .328-.578.328h-.188V0c.36-.016.797-.031 1.047-.031.266 0 .704.015 1.063.031v-.25h-.188c-.578 0-.578-.078-.578-.328v-.563zM2.375-3.939v2.547H.531zm0 0"/></symbol><symbol overflow="visible" id="bf"><path d="M2.469-5.219C1.156-4.297.797-2.812.797-1.75c0 .984.297 2.516 1.672 3.484.062 0 .14 0 .14-.078 0-.047-.015-.062-.062-.11C1.609.704 1.28-.468 1.28-1.733c0-1.891.719-2.813 1.282-3.329.03-.03.046-.046.046-.078 0-.078-.078-.078-.14-.078zm0 0"/></symbol><symbol overflow="visible" id="bg"><path d="M.625-5.219c-.047 0-.125 0-.125.078 0 .032.016.047.063.11.593.547 1.265 1.484 1.265 3.281 0 1.453-.453 2.563-1.203 3.234C.5 1.61.5 1.61.5 1.656c0 .032.016.078.078.078.094 0 .75-.453 1.219-1.328.297-.578.5-1.328.5-2.14C2.297-2.72 2-4.25.625-5.22zm0 0"/></symbol><symbol overflow="visible" id="be"><path d="M5.516-6.781H.328v.312h.234c.766 0 .797.11.797.469v5.219c0 .36-.03.469-.796.469H.328V0c.344-.031 1.125-.031 1.516-.031.406 0 1.312 0 1.672.031v-.313h-.329c-.937 0-.937-.124-.937-.468v-5.297c0-.328.016-.39.484-.39h1.032c1.421 0 1.625.593 1.78 1.937h.25zm0 0"/></symbol><symbol overflow="visible" id="bj"><path d="M3.297 2.39c0-.03 0-.046-.172-.218C1.891.922 1.562-.968 1.562-2.5c0-1.734.375-3.469 1.61-4.703.125-.125.125-.14.125-.172 0-.078-.031-.11-.094-.11-.11 0-1 .688-1.594 1.954C1.11-4.438.984-3.328.984-2.5c0 .781.11 1.984.657 3.125C2.25 1.844 3.094 2.5 3.203 2.5c.063 0 .094-.031.094-.11zm0 0"/></symbol><symbol overflow="visible" id="bl"><path d="M2.875-2.5c0-.766-.11-1.969-.656-3.11C1.625-6.827.766-7.483.672-7.483a.107.107 0 0 0-.11.109c0 .031 0 .047.188.234.984.985 1.547 2.563 1.547 4.641 0 1.719-.36 3.469-1.594 4.719-.14.125-.14.14-.14.172 0 .062.046.109.109.109.094 0 1-.688 1.578-1.953.516-1.094.625-2.203.625-3.047zm0 0"/></symbol><clipPath id="k"><path d="M51 60.48h.805V61H51zm0 0"/></clipPath><clipPath id="l"><path d="M63.277 48.145a7.085 7.085 0 0 0-10.023 0 7.092 7.092 0 0 0 0 10.023 7.092 7.092 0 0 0 10.023 0 7.092 7.092 0 0 0 0-10.023zm0 0"/></clipPath><clipPath id="m"><path d="M51 60.48h3.797V61H51zm0 0"/></clipPath><clipPath id="n"><path d="M63.277 48.145a7.085 7.085 0 0 0-10.023 0 7.092 7.092 0 0 0 0 10.023 7.092 7.092 0 0 0 10.023 0 7.092 7.092 0 0 0 0-10.023zm0 0"/></clipPath><clipPath id="o"><path d="M52.8 60.48h4.985V61h-4.984zm0 0"/></clipPath><clipPath id="p"><path d="M63.277 48.145a7.085 7.085 0 0 0-10.023 0 7.092 7.092 0 0 0 0 10.023 7.092 7.092 0 0 0 10.023 0 7.092 7.092 0 0 0 0-10.023zm0 0"/></clipPath><clipPath id="q"><path d="M55.793 60.48h4.98V61h-4.98zm0 0"/></clipPath><clipPath id="r"><path d="M63.277 48.145a7.085 7.085 0 0 0-10.023 0 7.092 7.092 0 0 0 0 10.023 7.092 7.092 0 0 0 10.023 0 7.092 7.092 0 0 0 0-10.023zm0 0"/></clipPath><clipPath id="s"><path d="M58.781 60.48h4.98V61h-4.98zm0 0"/></clipPath><clipPath id="t"><path d="M63.277 48.145a7.085 7.085 0 0 0-10.023 0 7.092 7.092 0 0 0 0 10.023 7.092 7.092 0 0 0 10.023 0 7.092 7.092 0 0 0 0-10.023zm0 0"/></clipPath><clipPath id="u"><path d="M61.77 60.48H66V61h-4.23zm0 0"/></clipPath><clipPath id="v"><path d="M63.277 48.145a7.085 7.085 0 0 0-10.023 0 7.092 7.092 0 0 0 0 10.023 7.092 7.092 0 0 0 10.023 0 7.092 7.092 0 0 0 0-10.023zm0 0"/></clipPath><clipPath id="w"><path d="M64.758 60.48H66V61h-1.242zm0 0"/></clipPath><clipPath id="x"><path d="M63.277 48.145a7.085 7.085 0 0 0-10.023 0 7.092 7.092 0 0 0 0 10.023 7.092 7.092 0 0 0 10.023 0 7.092 7.092 0 0 0 0-10.023zm0 0"/></clipPath><clipPath id="y"><path d="M51 57.492h.805V61H51zm0 0"/></clipPath><clipPath id="z"><path d="M63.277 48.145a7.085 7.085 0 0 0-10.023 0 7.092 7.092 0 0 0 0 10.023 7.092 7.092 0 0 0 10.023 0 7.092 7.092 0 0 0 0-10.023zm0 0"/></clipPath><clipPath id="A"><path d="M51 57.492h3.797V61H51zm0 0"/></clipPath><clipPath id="B"><path d="M63.277 48.145a7.085 7.085 0 0 0-10.023 0 7.092 7.092 0 0 0 0 10.023 7.092 7.092 0 0 0 10.023 0 7.092 7.092 0 0 0 0-10.023zm0 0"/></clipPath><clipPath id="C"><path d="M52.8 57.492h4.985V61h-4.984zm0 0"/></clipPath><clipPath id="D"><path d="M63.277 48.145a7.085 7.085 0 0 0-10.023 0 7.092 7.092 0 0 0 0 10.023 7.092 7.092 0 0 0 10.023 0 7.092 7.092 0 0 0 0-10.023zm0 0"/></clipPath><clipPath id="E"><path d="M55.793 57.492h4.98V61h-4.98zm0 0"/></clipPath><clipPath id="F"><path d="M63.277 48.145a7.085 7.085 0 0 0-10.023 0 7.092 7.092 0 0 0 0 10.023 7.092 7.092 0 0 0 10.023 0 7.092 7.092 0 0 0 0-10.023zm0 0"/></clipPath><clipPath id="G"><path d="M58.781 57.492h4.98V61h-4.98zm0 0"/></clipPath><clipPath id="H"><path d="M63.277 48.145a7.085 7.085 0 0 0-10.023 0 7.092 7.092 0 0 0 0 10.023 7.092 7.092 0 0 0 10.023 0 7.092 7.092 0 0 0 0-10.023zm0 0"/></clipPath><clipPath id="I"><path d="M61.77 57.492H66V61h-4.23zm0 0"/></clipPath><clipPath id="J"><path d="M63.277 48.145a7.085 7.085 0 0 0-10.023 0 7.092 7.092 0 0 0 0 10.023 7.092 7.092 0 0 0 10.023 0 7.092 7.092 0 0 0 0-10.023zm0 0"/></clipPath><clipPath id="K"><path d="M64.758 57.492H66V61h-1.242zm0 0"/></clipPath><clipPath id="L"><path d="M63.277 48.145a7.085 7.085 0 0 0-10.023 0 7.092 7.092 0 0 0 0 10.023 7.092 7.092 0 0 0 10.023 0 7.092 7.092 0 0 0 0-10.023zm0 0"/></clipPath><clipPath id="M"><path d="M51 54.504h.805v4.98H51zm0 0"/></clipPath><clipPath id="N"><path d="M63.277 48.145a7.085 7.085 0 0 0-10.023 0 7.092 7.092 0 0 0 0 10.023 7.092 7.092 0 0 0 10.023 0 7.092 7.092 0 0 0 0-10.023zm0 0"/></clipPath><clipPath id="O"><path d="M51 54.504h3.797v4.98H51zm0 0"/></clipPath><clipPath id="P"><path d="M63.277 48.145a7.085 7.085 0 0 0-10.023 0 7.092 7.092 0 0 0 0 10.023 7.092 7.092 0 0 0 10.023 0 7.092 7.092 0 0 0 0-10.023zm0 0"/></clipPath><clipPath id="Q"><path d="M52.8 54.504h4.985v4.98h-4.984zm0 0"/></clipPath><clipPath id="R"><path d="M63.277 48.145a7.085 7.085 0 0 0-10.023 0 7.092 7.092 0 0 0 0 10.023 7.092 7.092 0 0 0 10.023 0 7.092 7.092 0 0 0 0-10.023zm0 0"/></clipPath><clipPath id="S"><path d="M55.793 54.504h4.98v4.98h-4.98zm0 0"/></clipPath><clipPath id="T"><path d="M63.277 48.145a7.085 7.085 0 0 0-10.023 0 7.092 7.092 0 0 0 0 10.023 7.092 7.092 0 0 0 10.023 0 7.092 7.092 0 0 0 0-10.023zm0 0"/></clipPath><clipPath id="U"><path d="M58.781 54.504h4.98v4.98h-4.98zm0 0"/></clipPath><clipPath id="V"><path d="M63.277 48.145a7.085 7.085 0 0 0-10.023 0 7.092 7.092 0 0 0 0 10.023 7.092 7.092 0 0 0 10.023 0 7.092 7.092 0 0 0 0-10.023zm0 0"/></clipPath><clipPath id="W"><path d="M61.77 54.504H66v4.98h-4.23zm0 0"/></clipPath><clipPath id="X"><path d="M63.277 48.145a7.085 7.085 0 0 0-10.023 0 7.092 7.092 0 0 0 0 10.023 7.092 7.092 0 0 0 10.023 0 7.092 7.092 0 0 0 0-10.023zm0 0"/></clipPath><clipPath id="Y"><path d="M64.758 54.504H66v4.98h-1.242zm0 0"/></clipPath><clipPath id="Z"><path d="M63.277 48.145a7.085 7.085 0 0 0-10.023 0 7.092 7.092 0 0 0 0 10.023 7.092 7.092 0 0 0 10.023 0 7.092 7.092 0 0 0 0-10.023zm0 0"/></clipPath><clipPath id="aa"><path d="M51 51.516h.805v4.98H51zm0 0"/></clipPath><clipPath id="ab"><path d="M63.277 48.145a7.085 7.085 0 0 0-10.023 0 7.092 7.092 0 0 0 0 10.023 7.092 7.092 0 0 0 10.023 0 7.092 7.092 0 0 0 0-10.023zm0 0"/></clipPath><clipPath id="ac"><path d="M51 51.516h3.797v4.98H51zm0 0"/></clipPath><clipPath id="ad"><path d="M63.277 48.145a7.085 7.085 0 0 0-10.023 0 7.092 7.092 0 0 0 0 10.023 7.092 7.092 0 0 0 10.023 0 7.092 7.092 0 0 0 0-10.023zm0 0"/></clipPath><clipPath id="ae"><path d="M52.8 51.516h4.985v4.98h-4.984zm0 0"/></clipPath><clipPath id="af"><path d="M63.277 48.145a7.085 7.085 0 0 0-10.023 0 7.092 7.092 0 0 0 0 10.023 7.092 7.092 0 0 0 10.023 0 7.092 7.092 0 0 0 0-10.023zm0 0"/></clipPath><clipPath id="ag"><path d="M55.793 51.516h4.98v4.98h-4.98zm0 0"/></clipPath><clipPath id="ah"><path d="M63.277 48.145a7.085 7.085 0 0 0-10.023 0 7.092 7.092 0 0 0 0 10.023 7.092 7.092 0 0 0 10.023 0 7.092 7.092 0 0 0 0-10.023zm0 0"/></clipPath><clipPath id="ai"><path d="M58.781 51.516h4.98v4.98h-4.98zm0 0"/></clipPath><clipPath id="aj"><path d="M63.277 48.145a7.085 7.085 0 0 0-10.023 0 7.092 7.092 0 0 0 0 10.023 7.092 7.092 0 0 0 10.023 0 7.092 7.092 0 0 0 0-10.023zm0 0"/></clipPath><clipPath id="ak"><path d="M61.77 51.516H66v4.98h-4.23zm0 0"/></clipPath><clipPath id="al"><path d="M63.277 48.145a7.085 7.085 0 0 0-10.023 0 7.092 7.092 0 0 0 0 10.023 7.092 7.092 0 0 0 10.023 0 7.092 7.092 0 0 0 0-10.023zm0 0"/></clipPath><clipPath id="am"><path d="M64.758 51.516H66v4.98h-1.242zm0 0"/></clipPath><clipPath id="an"><path d="M63.277 48.145a7.085 7.085 0 0 0-10.023 0 7.092 7.092 0 0 0 0 10.023 7.092 7.092 0 0 0 10.023 0 7.092 7.092 0 0 0 0-10.023zm0 0"/></clipPath><clipPath id="ao"><path d="M51 48.527h.805v4.98H51zm0 0"/></clipPath><clipPath id="ap"><path d="M63.277 48.145a7.085 7.085 0 0 0-10.023 0 7.092 7.092 0 0 0 0 10.023 7.092 7.092 0 0 0 10.023 0 7.092 7.092 0 0 0 0-10.023zm0 0"/></clipPath><clipPath id="aq"><path d="M51 48.527h3.797v4.98H51zm0 0"/></clipPath><clipPath id="ar"><path d="M63.277 48.145a7.085 7.085 0 0 0-10.023 0 7.092 7.092 0 0 0 0 10.023 7.092 7.092 0 0 0 10.023 0 7.092 7.092 0 0 0 0-10.023zm0 0"/></clipPath><clipPath id="as"><path d="M52.8 48.527h4.985v4.98h-4.984zm0 0"/></clipPath><clipPath id="at"><path d="M63.277 48.145a7.085 7.085 0 0 0-10.023 0 7.092 7.092 0 0 0 0 10.023 7.092 7.092 0 0 0 10.023 0 7.092 7.092 0 0 0 0-10.023zm0 0"/></clipPath><clipPath id="au"><path d="M55.793 48.527h4.98v4.98h-4.98zm0 0"/></clipPath><clipPath id="av"><path d="M63.277 48.145a7.085 7.085 0 0 0-10.023 0 7.092 7.092 0 0 0 0 10.023 7.092 7.092 0 0 0 10.023 0 7.092 7.092 0 0 0 0-10.023zm0 0"/></clipPath><clipPath id="aw"><path d="M58.781 48.527h4.98v4.98h-4.98zm0 0"/></clipPath><clipPath id="ax"><path d="M63.277 48.145a7.085 7.085 0 0 0-10.023 0 7.092 7.092 0 0 0 0 10.023 7.092 7.092 0 0 0 10.023 0 7.092 7.092 0 0 0 0-10.023zm0 0"/></clipPath><clipPath id="ay"><path d="M61.77 48.527H66v4.98h-4.23zm0 0"/></clipPath><clipPath id="az"><path d="M63.277 48.145a7.085 7.085 0 0 0-10.023 0 7.092 7.092 0 0 0 0 10.023 7.092 7.092 0 0 0 10.023 0 7.092 7.092 0 0 0 0-10.023zm0 0"/></clipPath><clipPath id="aA"><path d="M64.758 48.527H66v4.98h-1.242zm0 0"/></clipPath><clipPath id="aB"><path d="M63.277 48.145a7.085 7.085 0 0 0-10.023 0 7.092 7.092 0 0 0 0 10.023 7.092 7.092 0 0 0 10.023 0 7.092 7.092 0 0 0 0-10.023zm0 0"/></clipPath><clipPath id="aC"><path d="M51 46h.805v4.52H51zm0 0"/></clipPath><clipPath id="aD"><path d="M63.277 48.145a7.085 7.085 0 0 0-10.023 0 7.092 7.092 0 0 0 0 10.023 7.092 7.092 0 0 0 10.023 0 7.092 7.092 0 0 0 0-10.023zm0 0"/></clipPath><clipPath id="aE"><path d="M51 46h3.797v4.52H51zm0 0"/></clipPath><clipPath id="aF"><path d="M63.277 48.145a7.085 7.085 0 0 0-10.023 0 7.092 7.092 0 0 0 0 10.023 7.092 7.092 0 0 0 10.023 0 7.092 7.092 0 0 0 0-10.023zm0 0"/></clipPath><clipPath id="aG"><path d="M52.8 46h4.985v4.52h-4.984zm0 0"/></clipPath><clipPath id="aH"><path d="M63.277 48.145a7.085 7.085 0 0 0-10.023 0 7.092 7.092 0 0 0 0 10.023 7.092 7.092 0 0 0 10.023 0 7.092 7.092 0 0 0 0-10.023zm0 0"/></clipPath><clipPath id="aI"><path d="M55.793 46h4.98v4.52h-4.98zm0 0"/></clipPath><clipPath id="aJ"><path d="M63.277 48.145a7.085 7.085 0 0 0-10.023 0 7.092 7.092 0 0 0 0 10.023 7.092 7.092 0 0 0 10.023 0 7.092 7.092 0 0 0 0-10.023zm0 0"/></clipPath><clipPath id="aK"><path d="M58.781 46h4.98v4.52h-4.98zm0 0"/></clipPath><clipPath id="aL"><path d="M63.277 48.145a7.085 7.085 0 0 0-10.023 0 7.092 7.092 0 0 0 0 10.023 7.092 7.092 0 0 0 10.023 0 7.092 7.092 0 0 0 0-10.023zm0 0"/></clipPath><clipPath id="aM"><path d="M61.77 46H66v4.52h-4.23zm0 0"/></clipPath><clipPath id="aN"><path d="M63.277 48.145a7.085 7.085 0 0 0-10.023 0 7.092 7.092 0 0 0 0 10.023 7.092 7.092 0 0 0 10.023 0 7.092 7.092 0 0 0 0-10.023zm0 0"/></clipPath><clipPath id="aO"><path d="M64.758 46H66v4.52h-1.242zm0 0"/></clipPath><clipPath id="aP"><path d="M63.277 48.145a7.085 7.085 0 0 0-10.023 0 7.092 7.092 0 0 0 0 10.023 7.092 7.092 0 0 0 10.023 0 7.092 7.092 0 0 0 0-10.023zm0 0"/></clipPath><clipPath id="aQ"><path d="M51 46h.805v1.531H51zm0 0"/></clipPath><clipPath id="aR"><path d="M63.277 48.145a7.085 7.085 0 0 0-10.023 0 7.092 7.092 0 0 0 0 10.023 7.092 7.092 0 0 0 10.023 0 7.092 7.092 0 0 0 0-10.023zm0 0"/></clipPath><clipPath id="aS"><path d="M51 46h3.797v1.531H51zm0 0"/></clipPath><clipPath id="aT"><path d="M63.277 48.145a7.085 7.085 0 0 0-10.023 0 7.092 7.092 0 0 0 0 10.023 7.092 7.092 0 0 0 10.023 0 7.092 7.092 0 0 0 0-10.023zm0 0"/></clipPath><clipPath id="aU"><path d="M52.8 46h4.985v1.531h-4.984zm0 0"/></clipPath><clipPath id="aV"><path d="M63.277 48.145a7.085 7.085 0 0 0-10.023 0 7.092 7.092 0 0 0 0 10.023 7.092 7.092 0 0 0 10.023 0 7.092 7.092 0 0 0 0-10.023zm0 0"/></clipPath><clipPath id="aW"><path d="M55.793 46h4.98v1.531h-4.98zm0 0"/></clipPath><clipPath id="aX"><path d="M63.277 48.145a7.085 7.085 0 0 0-10.023 0 7.092 7.092 0 0 0 0 10.023 7.092 7.092 0 0 0 10.023 0 7.092 7.092 0 0 0 0-10.023zm0 0"/></clipPath><clipPath id="aY"><path d="M58.781 46h4.98v1.531h-4.98zm0 0"/></clipPath><clipPath id="aZ"><path d="M63.277 48.145a7.085 7.085 0 0 0-10.023 0 7.092 7.092 0 0 0 0 10.023 7.092 7.092 0 0 0 10.023 0 7.092 7.092 0 0 0 0-10.023zm0 0"/></clipPath><clipPath id="ba"><path d="M61.77 46H66v1.531h-4.23zm0 0"/></clipPath><clipPath id="bb"><path d="M63.277 48.145a7.085 7.085 0 0 0-10.023 0 7.092 7.092 0 0 0 0 10.023 7.092 7.092 0 0 0 10.023 0 7.092 7.092 0 0 0 0-10.023zm0 0"/></clipPath><clipPath id="bc"><path d="M64.758 46H66v1.531h-1.242zm0 0"/></clipPath><clipPath id="bd"><path d="M63.277 48.145a7.085 7.085 0 0 0-10.023 0 7.092 7.092 0 0 0 0 10.023 7.092 7.092 0 0 0 10.023 0 7.092 7.092 0 0 0 0-10.023zm0 0"/></clipPath></defs><path d="M18.176 93.242l80.176-80.176m-80.176 0l80.176 80.176" fill="none" stroke-width="0.3985" stroke="rgb(0%,0%,0%)" stroke-miterlimit="10"/><use xlink:href="#a" x="3.32" y="94.419" fill="rgb(0%,0%,0%)"/><use xlink:href="#b" x="9.838" y="95.914" fill="rgb(0%,0%,0%)"/><use xlink:href="#a" x="101.873" y="14.243" fill="rgb(0%,0%,0%)"/><use xlink:href="#c" x="108.39" y="15.738" fill="rgb(0%,0%,0%)"/><use xlink:href="#a" x="12.918" y="7.61" fill="rgb(0%,0%,0%)"/><use xlink:href="#d" x="19.435" y="9.105" fill="rgb(0%,0%,0%)"/><use xlink:href="#a" x="92.772" y="101.052" fill="rgb(0%,0%,0%)"/><use xlink:href="#e" x="99.289" y="102.547" fill="rgb(0%,0%,0%)"/><path d="M20.668 83.707l19.719-19.719" fill="none" stroke-width="0.3985" stroke="rgb(0%,0%,0%)" stroke-miterlimit="10"/><path d="M38.414 63.707c.496.352 1.902.211 2.184.07-.141.282-.282 1.692.07 2.184" fill="none" stroke-width=".31878681210000004" stroke-linecap="round" stroke-linejoin="round" stroke="rgb(0%,0%,0%)" stroke-miterlimit="10"/><use xlink:href="#f" x="25.949" y="68.228" fill="rgb(0%,0%,0%)"/><use xlink:href="#g" x="30.962" y="69.723" fill="rgb(0%,0%,0%)"/><path d="M69.098 35.277L88.816 15.56" fill="none" stroke-width="0.3985" stroke="rgb(0%,0%,0%)" stroke-miterlimit="10"/><path d="M71.07 35.559c-.492-.352-1.902-.211-2.183-.07.14-.282.281-1.692-.07-2.184" fill="none" stroke-width=".31878681210000004" stroke-linecap="round" stroke-linejoin="round" stroke="rgb(0%,0%,0%)" stroke-miterlimit="10"/><use xlink:href="#f" x="74.054" y="20.123" fill="rgb(0%,0%,0%)"/><use xlink:href="#h" x="79.067" y="21.617" fill="rgb(0%,0%,0%)"/><path d="M27.71 15.559l19.724 19.718" fill="none" stroke-width="0.3985" stroke="rgb(0%,0%,0%)" stroke-miterlimit="10"/><path d="M47.715 33.305c-.352.492-.211 1.902-.07 2.183-.282-.14-1.692-.281-2.184.07" fill="none" stroke-width=".31878681210000004" stroke-linecap="round" stroke-linejoin="round" stroke="rgb(0%,0%,0%)" stroke-miterlimit="10"/><use xlink:href="#f" x="41.254" y="26.756" fill="rgb(0%,0%,0%)"/><use xlink:href="#i" x="46.267" y="28.25" fill="rgb(0%,0%,0%)"/><path d="M76.14 63.988l19.723 19.719" fill="none" stroke-width="0.3985" stroke="rgb(0%,0%,0%)" stroke-miterlimit="10"/><path d="M75.86 65.96c.35-.491.21-1.901.07-2.183.28.141 1.691.282 2.183-.07" fill="none" stroke-width=".31878681210000004" stroke-linecap="round" stroke-linejoin="round" stroke="rgb(0%,0%,0%)" stroke-miterlimit="10"/><use xlink:href="#f" x="89.36" y="74.862" fill="rgb(0%,0%,0%)"/><use xlink:href="#j" x="94.372" y="76.356" fill="rgb(0%,0%,0%)"/><path d="M63.277 48.145a7.085 7.085 0 0 0-10.023 0 7.092 7.092 0 0 0 0 10.023 7.092 7.092 0 0 0 10.023 0 7.092 7.092 0 0 0 0-10.023zm0 0" fill="rgb(100%,100%,100%)" stroke-width="0.3985" stroke="rgb(0%,0%,0%)" stroke-miterlimit="10"/><g clip-path="url(#k)"><g clip-path="url(#l)"><path d="M47.82 64.465l3.09-3.086" fill="none" stroke-width="0.3985" stroke="rgb(0%,0%,0%)" stroke-miterlimit="10"/></g></g><g clip-path="url(#m)"><g clip-path="url(#n)"><path d="M50.809 64.465l3.09-3.086" fill="none" stroke-width="0.3985" stroke="rgb(0%,0%,0%)" stroke-miterlimit="10"/></g></g><g clip-path="url(#o)"><g clip-path="url(#p)"><path d="M53.8 64.465l3.087-3.086" fill="none" stroke-width="0.3985" stroke="rgb(0%,0%,0%)" stroke-miterlimit="10"/></g></g><g clip-path="url(#q)"><g clip-path="url(#r)"><path d="M56.79 64.465l3.085-3.086" fill="none" stroke-width="0.3985" stroke="rgb(0%,0%,0%)" stroke-miterlimit="10"/></g></g><g clip-path="url(#s)"><g clip-path="url(#t)"><path d="M59.777 64.465l3.086-3.086" fill="none" stroke-width="0.3985" stroke="rgb(0%,0%,0%)" stroke-miterlimit="10"/></g></g><g clip-path="url(#u)"><g clip-path="url(#v)"><path d="M62.766 64.465l3.09-3.086" fill="none" stroke-width="0.3985" stroke="rgb(0%,0%,0%)" stroke-miterlimit="10"/></g></g><g clip-path="url(#w)"><g clip-path="url(#x)"><path d="M65.754 64.465l3.09-3.086" fill="none" stroke-width="0.3985" stroke="rgb(0%,0%,0%)" stroke-miterlimit="10"/></g></g><g clip-path="url(#y)"><g clip-path="url(#z)"><path d="M47.82 61.477l3.09-3.086" fill="none" stroke-width="0.3985" stroke="rgb(0%,0%,0%)" stroke-miterlimit="10"/></g></g><g clip-path="url(#A)"><g clip-path="url(#B)"><path d="M50.809 61.477l3.09-3.086" fill="none" stroke-width="0.3985" stroke="rgb(0%,0%,0%)" stroke-miterlimit="10"/></g></g><g clip-path="url(#C)"><g clip-path="url(#D)"><path d="M53.8 61.477l3.087-3.086" fill="none" stroke-width="0.3985" stroke="rgb(0%,0%,0%)" stroke-miterlimit="10"/></g></g><g clip-path="url(#E)"><g clip-path="url(#F)"><path d="M56.79 61.477l3.085-3.086" fill="none" stroke-width="0.3985" stroke="rgb(0%,0%,0%)" stroke-miterlimit="10"/></g></g><g clip-path="url(#G)"><g clip-path="url(#H)"><path d="M59.777 61.477l3.086-3.086" fill="none" stroke-width="0.3985" stroke="rgb(0%,0%,0%)" stroke-miterlimit="10"/></g></g><g clip-path="url(#I)"><g clip-path="url(#J)"><path d="M62.766 61.477l3.09-3.086" fill="none" stroke-width="0.3985" stroke="rgb(0%,0%,0%)" stroke-miterlimit="10"/></g></g><g clip-path="url(#K)"><g clip-path="url(#L)"><path d="M65.754 61.477l3.09-3.086" fill="none" stroke-width="0.3985" stroke="rgb(0%,0%,0%)" stroke-miterlimit="10"/></g></g><g clip-path="url(#M)"><g clip-path="url(#N)"><path d="M47.82 58.488l3.09-3.09" fill="none" stroke-width="0.3985" stroke="rgb(0%,0%,0%)" stroke-miterlimit="10"/></g></g><g clip-path="url(#O)"><g clip-path="url(#P)"><path d="M50.809 58.488l3.09-3.09" fill="none" stroke-width="0.3985" stroke="rgb(0%,0%,0%)" stroke-miterlimit="10"/></g></g><g clip-path="url(#Q)"><g clip-path="url(#R)"><path d="M53.8 58.488l3.087-3.09" fill="none" stroke-width="0.3985" stroke="rgb(0%,0%,0%)" stroke-miterlimit="10"/></g></g><g clip-path="url(#S)"><g clip-path="url(#T)"><path d="M56.79 58.488l3.085-3.09" fill="none" stroke-width="0.3985" stroke="rgb(0%,0%,0%)" stroke-miterlimit="10"/></g></g><g clip-path="url(#U)"><g clip-path="url(#V)"><path d="M59.777 58.488l3.086-3.09" fill="none" stroke-width="0.3985" stroke="rgb(0%,0%,0%)" stroke-miterlimit="10"/></g></g><g clip-path="url(#W)"><g clip-path="url(#X)"><path d="M62.766 58.488l3.09-3.09" fill="none" stroke-width="0.3985" stroke="rgb(0%,0%,0%)" stroke-miterlimit="10"/></g></g><g clip-path="url(#Y)"><g clip-path="url(#Z)"><path d="M65.754 58.488l3.09-3.09" fill="none" stroke-width="0.3985" stroke="rgb(0%,0%,0%)" stroke-miterlimit="10"/></g></g><g clip-path="url(#aa)"><g clip-path="url(#ab)"><path d="M47.82 55.5l3.09-3.09" fill="none" stroke-width="0.3985" stroke="rgb(0%,0%,0%)" stroke-miterlimit="10"/></g></g><g clip-path="url(#ac)"><g clip-path="url(#ad)"><path d="M50.809 55.5l3.09-3.09" fill="none" stroke-width="0.3985" stroke="rgb(0%,0%,0%)" stroke-miterlimit="10"/></g></g><g clip-path="url(#ae)"><g clip-path="url(#af)"><path d="M53.8 55.5l3.087-3.09" fill="none" stroke-width="0.3985" stroke="rgb(0%,0%,0%)" stroke-miterlimit="10"/></g></g><g clip-path="url(#ag)"><g clip-path="url(#ah)"><path d="M56.79 55.5l3.085-3.09" fill="none" stroke-width="0.3985" stroke="rgb(0%,0%,0%)" stroke-miterlimit="10"/></g></g><g clip-path="url(#ai)"><g clip-path="url(#aj)"><path d="M59.777 55.5l3.086-3.09" fill="none" stroke-width="0.3985" stroke="rgb(0%,0%,0%)" stroke-miterlimit="10"/></g></g><g clip-path="url(#ak)"><g clip-path="url(#al)"><path d="M62.766 55.5l3.09-3.09" fill="none" stroke-width="0.3985" stroke="rgb(0%,0%,0%)" stroke-miterlimit="10"/></g></g><g clip-path="url(#am)"><g clip-path="url(#an)"><path d="M65.754 55.5l3.09-3.09" fill="none" stroke-width="0.3985" stroke="rgb(0%,0%,0%)" stroke-miterlimit="10"/></g></g><g clip-path="url(#ao)"><g clip-path="url(#ap)"><path d="M47.82 52.512l3.09-3.09" fill="none" stroke-width="0.3985" stroke="rgb(0%,0%,0%)" stroke-miterlimit="10"/></g></g><g clip-path="url(#aq)"><g clip-path="url(#ar)"><path d="M50.809 52.512l3.09-3.09" fill="none" stroke-width="0.3985" stroke="rgb(0%,0%,0%)" stroke-miterlimit="10"/></g></g><g clip-path="url(#as)"><g clip-path="url(#at)"><path d="M53.8 52.512l3.087-3.09" fill="none" stroke-width="0.3985" stroke="rgb(0%,0%,0%)" stroke-miterlimit="10"/></g></g><g clip-path="url(#au)"><g clip-path="url(#av)"><path d="M56.79 52.512l3.085-3.09" fill="none" stroke-width="0.3985" stroke="rgb(0%,0%,0%)" stroke-miterlimit="10"/></g></g><g clip-path="url(#aw)"><g clip-path="url(#ax)"><path d="M59.777 52.512l3.086-3.09" fill="none" stroke-width="0.3985" stroke="rgb(0%,0%,0%)" stroke-miterlimit="10"/></g></g><g clip-path="url(#ay)"><g clip-path="url(#az)"><path d="M62.766 52.512l3.09-3.09" fill="none" stroke-width="0.3985" stroke="rgb(0%,0%,0%)" stroke-miterlimit="10"/></g></g><g clip-path="url(#aA)"><g clip-path="url(#aB)"><path d="M65.754 52.512l3.09-3.09" fill="none" stroke-width="0.3985" stroke="rgb(0%,0%,0%)" stroke-miterlimit="10"/></g></g><g clip-path="url(#aC)"><g clip-path="url(#aD)"><path d="M47.82 49.523l3.09-3.09" fill="none" stroke-width="0.3985" stroke="rgb(0%,0%,0%)" stroke-miterlimit="10"/></g></g><g clip-path="url(#aE)"><g clip-path="url(#aF)"><path d="M50.809 49.523l3.09-3.09" fill="none" stroke-width="0.3985" stroke="rgb(0%,0%,0%)" stroke-miterlimit="10"/></g></g><g clip-path="url(#aG)"><g clip-path="url(#aH)"><path d="M53.8 49.523l3.087-3.09" fill="none" stroke-width="0.3985" stroke="rgb(0%,0%,0%)" stroke-miterlimit="10"/></g></g><g clip-path="url(#aI)"><g clip-path="url(#aJ)"><path d="M56.79 49.523l3.085-3.09" fill="none" stroke-width="0.3985" stroke="rgb(0%,0%,0%)" stroke-miterlimit="10"/></g></g><g clip-path="url(#aK)"><g clip-path="url(#aL)"><path d="M59.777 49.523l3.086-3.09" fill="none" stroke-width="0.3985" stroke="rgb(0%,0%,0%)" stroke-miterlimit="10"/></g></g><g clip-path="url(#aM)"><g clip-path="url(#aN)"><path d="M62.766 49.523l3.09-3.09" fill="none" stroke-width="0.3985" stroke="rgb(0%,0%,0%)" stroke-miterlimit="10"/></g></g><g clip-path="url(#aO)"><g clip-path="url(#aP)"><path d="M65.754 49.523l3.09-3.09" fill="none" stroke-width="0.3985" stroke="rgb(0%,0%,0%)" stroke-miterlimit="10"/></g></g><g clip-path="url(#aQ)"><g clip-path="url(#aR)"><path d="M47.82 46.535l3.09-3.09" fill="none" stroke-width="0.3985" stroke="rgb(0%,0%,0%)" stroke-miterlimit="10"/></g></g><g clip-path="url(#aS)"><g clip-path="url(#aT)"><path d="M50.809 46.535l3.09-3.09" fill="none" stroke-width="0.3985" stroke="rgb(0%,0%,0%)" stroke-miterlimit="10"/></g></g><g clip-path="url(#aU)"><g clip-path="url(#aV)"><path d="M53.8 46.535l3.087-3.09" fill="none" stroke-width="0.3985" stroke="rgb(0%,0%,0%)" stroke-miterlimit="10"/></g></g><g clip-path="url(#aW)"><g clip-path="url(#aX)"><path d="M56.79 46.535l3.085-3.09" fill="none" stroke-width="0.3985" stroke="rgb(0%,0%,0%)" stroke-miterlimit="10"/></g></g><g clip-path="url(#aY)"><g clip-path="url(#aZ)"><path d="M59.777 46.535l3.086-3.09" fill="none" stroke-width="0.3985" stroke="rgb(0%,0%,0%)" stroke-miterlimit="10"/></g></g><g clip-path="url(#ba)"><g clip-path="url(#bb)"><path d="M62.766 46.535l3.09-3.09" fill="none" stroke-width="0.3985" stroke="rgb(0%,0%,0%)" stroke-miterlimit="10"/></g></g><g clip-path="url(#bc)"><g clip-path="url(#bd)"><path d="M65.754 46.535l3.09-3.09" fill="none" stroke-width="0.3985" stroke="rgb(0%,0%,0%)" stroke-miterlimit="10"/></g></g><use xlink:href="#be" x="66.766" y="56.177" fill="rgb(0%,0%,0%)"/><g fill="rgb(0%,0%,0%)"><use xlink:href="#bf" x="72.993" y="51.002"/><use xlink:href="#j" x="76.106" y="51.002"/><use xlink:href="#bg" x="80.078" y="51.002"/></g><use xlink:href="#bh" x="72.993" y="59.182" fill="rgb(0%,0%,0%)"/><g fill="rgb(0%,0%,0%)"><use xlink:href="#bi" x="77.396" y="59.182"/><use xlink:href="#b" x="79.762" y="59.182"/><use xlink:href="#d" x="84.083" y="59.182"/><use xlink:href="#c" x="87.587" y="59.182"/><use xlink:href="#e" x="91.147" y="59.182"/></g><use xlink:href="#bj" x="95.793" y="56.177" fill="rgb(0%,0%,0%)"/><use xlink:href="#f" x="99.668" y="56.177" fill="rgb(0%,0%,0%)"/><use xlink:href="#g" x="104.68" y="57.671" fill="rgb(0%,0%,0%)"/><use xlink:href="#bk" x="109.15" y="56.177" fill="rgb(0%,0%,0%)"/><use xlink:href="#f" x="113.581" y="56.177" fill="rgb(0%,0%,0%)"/><use xlink:href="#i" x="118.59" y="57.671" fill="rgb(0%,0%,0%)"/><use xlink:href="#bk" x="123.059" y="56.177" fill="rgb(0%,0%,0%)"/><use xlink:href="#f" x="127.49" y="56.177" fill="rgb(0%,0%,0%)"/><use xlink:href="#h" x="132.499" y="57.671" fill="rgb(0%,0%,0%)"/><use xlink:href="#bk" x="136.969" y="56.177" fill="rgb(0%,0%,0%)"/><use xlink:href="#f" x="141.4" y="56.177" fill="rgb(0%,0%,0%)"/><use xlink:href="#j" x="146.409" y="57.671" fill="rgb(0%,0%,0%)"/><use xlink:href="#bl" x="150.878" y="56.177" fill="rgb(0%,0%,0%)"/></svg>