<svg xmlns="http://www.w3.org/2000/svg" xmlns:xlink="http://www.w3.org/1999/xlink" width="454.08" height="288.427" viewBox="0 0 340.56 216.32"><defs><symbol overflow="visible" id="o"><path d="M1.094-3.422V-.75c0 .438-.11.438-.782.438V0c.36-.016.86-.031 1.141-.031.25 0 .766.015 1.11.031v-.313c-.672 0-.782 0-.782-.437v-1.844c0-1.031.719-1.594 1.344-1.594.64 0 .75.532.75 1.11V-.75c0 .438-.11.438-.781.438V0c.344-.016.86-.031 1.125-.031.25 0 .781.015 1.11.031v-.313c-.516 0-.766 0-.766-.296v-1.907c0-.859 0-1.156-.313-1.515-.14-.172-.469-.375-1.047-.375-.734 0-1.203.422-1.484 1.047v-1.047l-1.407.11v.312c.704 0 .782.062.782.562zm0 0"/></symbol><symbol overflow="visible" id="p"><path d="M4.688-2.14c0-1.266-.985-2.329-2.188-2.329C1.25-4.469.281-3.375.281-2.14A2.22 2.22 0 002.484.11c1.204 0 2.204-.984 2.204-2.25zM2.5-.14c-.438 0-.875-.204-1.14-.672-.25-.438-.25-1.047-.25-1.407 0-.39 0-.922.234-1.36a1.347 1.347 0 011.14-.671c.438 0 .86.219 1.125.656.266.422.266 1 .266 1.375 0 .36 0 .906-.219 1.344-.234.453-.672.734-1.156.734zm0 0"/></symbol><symbol overflow="visible" id="q"><path d="M6.172-3.344c.172-.5.484-.64.844-.64v-.313c-.235.016-.516.031-.735.031-.297 0-.734-.015-.922-.03v.312c.36 0 .579.187.579.468 0 .063 0 .094-.063.22L4.969-.75l-.985-2.781c-.03-.125-.046-.14-.046-.188 0-.265.39-.265.593-.265v-.313c-.297.016-.797.031-1.047.031-.296 0-.578-.015-.875-.03v.312c.36 0 .516.015.625.14.047.063.157.36.22.547L2.608-.875l-.953-2.656c-.047-.125-.047-.14-.047-.188 0-.265.391-.265.579-.265v-.313c-.297.016-.86.031-1.079.031-.046 0-.578-.015-.937-.03v.312c.5 0 .625.03.75.343l1.25 3.532c.047.14.078.218.203.218.14 0 .156-.062.203-.203l1.016-2.812L4.609-.078c.032.11.063.187.204.187.125 0 .156-.093.187-.187zm0 0"/></symbol><symbol overflow="visible" id="r"><path d="M.64-.844c-.093.094-.093.11-.093.281v.079c0 .359.11.484.484.484h3.422c.375 0 .469-.125.469-.484v-.11c0-.156 0-.36-.203-.437-.078-.047-.39-.047-.594-.047-.219 0-.453.016-.672.016H1.828l1.328-1.25c.14-.126.516-.438.672-.579.547-.53 1.094-1.062 1.094-1.953 0-1.218-.875-2.297-2.344-2.297-.344 0-.906.047-1.39.438-.094.078-.547.437-.735 1.094l.5.64c.063.078.094.125.156.125.094 0 .11-.078.141-.187.203-.688.547-1.11 1.188-1.11.765 0 1.093.704 1.093 1.313 0 .64-.375 1.312-.984 1.953zm0 0"/></symbol><symbol overflow="visible" id="s"><path d="M5.047-3.422c0-1.36 0-3.719-2.313-3.719C.422-7.14.422-4.812.422-3.42c0 1.374 0 3.64 2.312 3.64 2.313 0 2.313-2.25 2.313-3.64zM2.734-.5C2-.5 1.891-1.422 1.86-1.688c-.078-.53-.078-1.468-.078-1.875 0-.578 0-1.218.063-1.718.031-.266.125-1.14.89-1.14.735 0 .86.843.891 1.03.063.516.063 1.297.063 1.829 0 .578 0 1.343-.063 1.89-.031.266-.14 1.172-.89 1.172zm0 0"/></symbol><symbol overflow="visible" id="t"><path d="M3.531-6.656c0-.188 0-.485-.437-.485-.188 0-.235.016-.36.141-.171.156-.546.531-1.53.547-.188 0-.454.078-.454.36 0 .359.36.359.484.359.297 0 .657-.047.938-.125v5.14H1.39c-.125 0-.47 0-.47.36 0 .359.345.359.47.359h2.843c.11 0 .485 0 .485-.36 0-.359-.375-.359-.485-.359h-.703zm0 0"/></symbol><symbol overflow="visible" id="u"><path d="M3.781-3.734C4.75-4.047 4.86-4.75 4.86-5.188c0-1.468-.937-1.953-2.125-1.953C1.656-7.14.61-6.75.61-5.187c0 .515.172 1.156 1.079 1.453C.655-3.438.452-2.656.452-2.031c0 1.562.844 2.25 2.281 2.25 1.5 0 2.282-.75 2.282-2.25 0-.906-.438-1.469-1.235-1.703zm-1.047-.36c-.828 0-.843-.484-.843-1.093 0-.688.046-1.063.843-1.063.782 0 .86.36.86 1.063 0 .578-.016 1.093-.86 1.093zm0 3.375c-.875 0-.89-.562-.89-1.328 0-.64 0-1.328.89-1.328.891 0 .891.672.891 1.328 0 .75-.016 1.328-.89 1.328zm0 0"/></symbol><symbol overflow="visible" id="x"><path d="M3.625-3.047c-.016.094 0 .281-.031.719-.063.61-.235 1.61-1.328 1.61-.313 0-.594-.079-.875-.329-.047-.062-.079-.078-.125-.078-.079 0-.094.047-.157.125-.187.328-.328.547-.328.61 0 .078.531.609 1.5.609 2.735 0 2.735-2.875 2.735-3.766C5.016-4.609 5-7.14 2.734-7.14c-.609 0-1.265.11-1.78.75-.423.547-.5 1.047-.5 1.813 0 .625.03 1.203.452 1.766.406.515.86.671 1.5.671.735 0 1.078-.593 1.219-.906zm-.969.188c-.797 0-.797-.72-.797-1.704 0-.968 0-1.687.907-1.687.687 0 .843.766.843 1.813 0 .14 0 1.578-.953 1.578zm0 0"/></symbol><symbol overflow="visible" id="y"><path d="M7.297-3.406c0-2-.734-3.735-3.344-3.735C1.203-7.14.61-5.234.61-3.406c0 1.86.641 3.625 3.344 3.625 2.563 0 3.344-1.578 3.344-3.625zM3.953-.578c-1.875 0-1.875-2.078-1.875-2.985 0-.89 0-2.796 1.875-2.796s1.875 1.89 1.875 2.796c0 .876 0 2.985-1.875 2.985zm0 0"/></symbol><symbol overflow="visible" id="z"><path d="M4.563-.5c0-.11-.047-.563-.063-.703 0-.016-.031-.125-.125-.125-.031 0-.063 0-.156.11-.172.14-.64.546-1.453.546-1.047 0-1.047-1-1.047-1.64 0-.813.062-1.641 1.078-1.641.64 0 .906.156 1.265.453.125.11.141.11.188.11.094 0 .11-.094.125-.126.016-.078.125-.64.125-.687 0-.094-.078-.14-.25-.219-.469-.219-.766-.312-1.469-.312-1.484 0-2.406.703-2.406 2.437C.375-.64 1.219.11 2.735.11c.265 0 .859-.015 1.53-.343.282-.157.298-.172.298-.266zm0 0"/></symbol><symbol overflow="visible" id="A"><path d="M2.172-3.844h.89c.126 0 .47 0 .47-.36 0-.359-.345-.359-.47-.359h-.89v-.828c0-.328-.063-.484-.485-.484h-.296c-.36 0-.485.11-.485.484v.829H.672c-.11 0-.469 0-.469.359 0 .36.36.36.469.36h.203v2.515c0 1.016.36 1.437 1.047 1.437.094 0 .531 0 1.047-.156.172-.047.75-.234.75-.422 0-.031-.016-.094-.078-.312-.047-.203-.079-.25-.157-.25-.062 0-.062 0-.125.062-.109.078-.375.297-.796.297-.235 0-.391-.172-.391-.828zm0 0"/></symbol><symbol overflow="visible" id="B"><path d="M3.016-6.516c-.204-.406-.5-.406-.704-.406h-.921c-.36 0-.485.11-.485.484v5.954c0 .359.11.484.485.484h.265c.375 0 .485-.125.485-.484V-5.72L4.89-.406c.203.406.5.406.703.406h.922C6.89 0 7-.125 7-.484v-5.954c0-.328-.078-.484-.484-.484H6.25c-.375 0-.484.14-.484.484v5.235zm0 0"/></symbol><symbol overflow="visible" id="C"><path d="M5.156-2.25c0-1.625-.797-2.484-2.422-2.484-1.656 0-2.421.89-2.421 2.484 0 1.625.859 2.36 2.421 2.36 1.563 0 2.422-.72 2.422-2.36zM2.734-.672c-1.062 0-1.062-.89-1.062-1.687 0-.766 0-1.657 1.062-1.657 1.079 0 1.079.875 1.079 1.657 0 .78 0 1.687-1.079 1.687zm0 0"/></symbol><symbol overflow="visible" id="D"><path d="M4.672-4.094c.047-.14.047-.156.047-.187 0-.282-.25-.282-.407-.282H4.11c-.421 0-.53.141-.625.422L2.5-1.125l-.984-3.016c-.063-.203-.141-.421-.625-.421H.656c-.14 0-.39 0-.39.28 0 .032 0 .048.046.188L1.5-.422C1.64 0 1.938 0 2.125 0h.719c.187 0 .5 0 .64-.422zm0 0"/></symbol><symbol overflow="visible" id="E"><path d="M1.39-6.922c-.359 0-.484.11-.484.484v5.954c0 .359.11.484.485.484h2.625c2.437 0 3.28-1.453 3.28-3.406 0-.797-.124-1.75-.687-2.469-.75-.922-1.937-1.047-2.593-1.047zm.954 6.063v-5.204h1.281c2.14 0 2.234 1.532 2.234 2.657S5.75-.86 3.625-.86zm0 0"/></symbol><symbol overflow="visible" id="F"><path d="M4.297-2.14c.234 0 .484 0 .484-.454 0-1.281-.61-2.14-2.093-2.14-1.594 0-2.376.89-2.376 2.406 0 1.64.938 2.437 2.516 2.437.375 0 .938-.046 1.594-.375.219-.109.297-.14.297-.265 0-.063-.032-.36-.047-.438-.031-.312-.047-.312-.14-.312-.032 0-.063 0-.173.093a2.197 2.197 0 01-1.5.579c-1.125 0-1.25-.891-1.28-1.532zm-2.703-.516c.031-.61.234-1.36 1.093-1.36.797 0 .954.579.985 1.36zm0 0"/></symbol><symbol overflow="visible" id="G"><path d="M4.25-6.438c0-.328-.063-.484-.469-.484h-.484c-.375 0-.469.14-.469.484v4.891c0 .219 0 .766-.89.766a1.24 1.24 0 01-1.032-.5c-.078-.094-.094-.11-.156-.11-.11 0-.125.079-.14.188-.047.312-.157.828-.157.875 0 .094.063.125.25.203a4.35 4.35 0 001.64.344c1.063 0 1.907-.531 1.907-1.703zm0 0"/></symbol><symbol overflow="visible" id="H"><path d="M4.625-3.156c0-1.563-1.516-1.578-2.016-1.578-.468 0-.968.046-1.625.312-.218.094-.265.125-.265.234 0 .079.062.657.062.735.016.047.063.11.14.11.048 0 .079-.032.11-.063a2.002 2.002 0 011.547-.672c.531 0 .688.328.688.922v.344c-.344 0-2.954.015-2.954 1.484C.313-.625.875.109 1.75.109c.328 0 1.078-.093 1.547-.78v.187c0 .328.078.484.484.484h.36c.39 0 .484-.125.484-.484zm-1.36 1.625c0 .922-.937.922-.968.922-.422 0-.688-.36-.688-.735 0-.984 1.375-1.047 1.657-1.062zm0 0"/></symbol><symbol overflow="visible" id="I"><path d="M4.984-3.234c0-1.032-.437-1.438-1.453-1.438-1.047 0-1.5.75-1.625 1.016h-.015v-.485c0-.328-.063-.484-.47-.484h-.343c-.36 0-.484.11-.484.484v3.657c0 .359.11.484.484.484h.39c.391 0 .485-.125.485-.484v-2.204c0-.859.578-1.265 1.094-1.265.484 0 .578.219.578.734v2.735c0 .328.078.484.484.484H4.5c.39 0 .484-.125.484-.484zm0 0"/></symbol><symbol overflow="visible" id="J"><path d="M2.375-2.984h2.313c.312 0 .468-.063.468-.47 0-.358-.125-.468-.468-.468H2.374v-1.953h.422c.75 0 1.515.016 2.25.016.344 0 .578 0 .578-.47v-.077c0-.328-.078-.485-.484-.485H1.39c-.36 0-.485.11-.485.485v5.922c0 .359.11.484.485.484h.5c.375 0 .484-.125.484-.484zm0 0"/></symbol><symbol overflow="visible" id="K"><path d="M1.938-6.438c0-.328-.079-.484-.485-.484h-.36c-.359 0-.484.11-.484.484v5.954c0 .359.11.484.485.484h.39c.172 0 .47 0 .485-.39.453.5.968.5 1.125.5 2.125 0 2.125-1.907 2.125-2.407 0-.484 0-2.375-1.875-2.375-.828 0-1.313.453-1.406.563zm.03 2.829c.126-.125.423-.344.876-.344 1.015 0 1.015.906 1.015 1.656 0 .735 0 1.688-1.125 1.688A.97.97 0 011.97-1zm0 0"/></symbol><symbol overflow="visible" id="L"><path d="M5.531-3.266c-.203.516-.578 1.438-.656 1.782h-.016c-.078-.36-.5-1.344-.703-1.875L2.875-6.516c-.156-.406-.484-.406-.656-.406H1.39c-.36 0-.485.11-.485.484v5.954c0 .359.11.484.485.484h.265c.375 0 .485-.125.485-.484v-5.141c.109.438.562 1.547.796 2.14L4.095-.64c.187.422.422.422.765.422.329 0 .579 0 .75-.422l1.282-3.14c.093-.235.64-1.594.703-1.844h.015v5.14c0 .329.063.485.47.485h.28c.375 0 .47-.125.47-.484v-5.954c0-.328-.063-.484-.47-.484h-.843c-.25 0-.5.031-.672.438zm0 0"/></symbol><symbol overflow="visible" id="M"><path d="M1.938-2.297c0-.937.78-1.328 1.406-1.375.187 0 .203 0 .203-.265v-.47c0-.202 0-.265-.172-.265-.281 0-1.016.094-1.484 1.172v-.64c0-.329-.079-.485-.485-.485h-.312c-.36 0-.485.11-.485.484v3.657c0 .359.11.484.485.484h.36c.374 0 .484-.125.484-.484zm0 0"/></symbol><symbol overflow="visible" id="N"><path d="M4.719-6.484c-.14-.438-.438-.438-.625-.438h-.89c-.188 0-.485 0-.626.438L.468-.47c-.046.125-.046.156-.046.203 0 .266.25.266.39.266h.36c.172 0 .484 0 .625-.406l.39-1.094h2.75l.344.953c.125.344.188.547.672.547h.531c.141 0 .391 0 .391-.266 0-.046 0-.078-.047-.203zM3.203-4.47c.14-.453.281-.828.36-1.187.062.25.062.265.14.5l.938 2.797H2.484zm0 0"/></symbol><symbol overflow="visible" id="O"><path d="M1.969-.39c.437.5.984.5 1.125.5 2.125 0 2.125-1.907 2.125-2.407s0-2.375-1.813-2.375c-.578 0-1.11.234-1.469.578 0-.375-.14-.468-.484-.468h-.36c-.359 0-.484.109-.484.468v5.547c0 .36.11.484.485.484h.39c.375 0 .485-.14.485-.484zm0-3.172c.11-.11.437-.329.86-.329 1.015 0 1.03 1.172 1.03 1.61 0 .39 0 1.672-1.125 1.672a.86.86 0 01-.53-.172c-.235-.172-.235-.219-.235-.39zm0 0"/></symbol><symbol overflow="visible" id="P"><path d="M4.672-4.094c.047-.14.047-.156.047-.203 0-.266-.266-.266-.407-.266h-.218c-.157 0-.375 0-.532.22-.03.062-.828 2.265-.874 2.921h-.016c-.047-.484-.453-1.406-.89-2.36-.282-.64-.345-.78-.845-.78H.672c-.14 0-.375 0-.375.25 0 .046.016.109.047.171L2.219 0c-.078.203-.11.313-.14.422-.11.328-.282.781-.829.781-.328 0-.547-.14-.656-.219C.53.954.516.954.484.954c-.046 0-.125.03-.125.14 0 .078.063.765.094.812.078.125.625.14.781.14 1.235 0 1.72-1.171 1.813-1.421zm0 0"/></symbol><symbol overflow="visible" id="Q"><path d="M4.984-4.094c0-.312-.062-.468-.484-.468h-.39c-.376 0-.485.125-.485.468v2.375c0 .657-.344 1.219-1.047 1.219-.562 0-.625-.14-.625-.672v-2.922c0-.312-.062-.468-.484-.468h-.39c-.36 0-.485.109-.485.468v2.844c0 1.063.578 1.36 1.625 1.36.265 0 .969 0 1.437-.844v.25c0 .328.078.484.485.484H4.5c.39 0 .484-.125.484-.484zm0 0"/></symbol><symbol overflow="visible" id="R"><path d="M1.938-6.438c0-.328-.079-.484-.485-.484h-.36c-.359 0-.484.11-.484.484v5.954c0 .359.11.484.485.484h.36c.374 0 .484-.125.484-.484zm0 0"/></symbol><symbol overflow="visible" id="S"><path d="M2-.922c-.36 0-.5 0-.64-.11-.048-.046-.22-.187-.22-.452 0-.079.016-.094.032-.157.469.266 1.047.266 1.266.266.406 0 2 0 2-1.64 0-.579-.22-.938-.313-1.047.172 0 .516 0 .922.109.047.031.11.047.14.047.094 0 .141-.063.141-.125 0-.047-.047-.282-.078-.39-.031-.235-.031-.25-.219-.25-.312 0-.797.109-1.187.343-.469-.313-.985-.344-1.406-.344-.422 0-2.016 0-2.016 1.64 0 .407.11.891.5 1.235C.64-1.437.64-1.047.64-1c0 .188.062.516.28.797C.767-.156.25.03.25.672c0 .312.156.828.781 1.11.563.265 1.235.265 1.703.265.579 0 2.485 0 2.485-1.406 0-1.563-1.407-1.563-2.75-1.563zm.438-1.172c-.704 0-.735-.375-.735-.922 0-.546.031-.937.734-.937.688 0 .72.375.72.922s-.032.937-.72.937zm.53 2.266c.813 0 1.235.14 1.235.5 0 .656-1.14.656-1.469.656-.39 0-1.453 0-1.453-.687 0-.47.297-.47.532-.47zm0 0"/></symbol><symbol overflow="visible" id="V"><path d="M2.688-4.39c-.22-.063-.829-.282-.829-.86 0-.844.844-.86 1.188-.86.547 0 1.047.126 1.531.61.172.14.172.156.219.156.062 0 .11-.031.14-.172l.141-.875c.031-.078.031-.093.031-.125 0-.078-.015-.093-.265-.218-.703-.36-1.297-.407-1.797-.407-.89 0-2.438.22-2.438 2.079 0 .703.375 1.171.563 1.359.5.515.969.625 1.75.797.562.14.781.187 1 .39.094.094.312.297.312.688 0 .937-.859.953-1.187.953-.844 0-1.578-.328-2.063-.781-.125-.125-.14-.125-.187-.125-.063 0-.11.031-.14.187l-.141.86c-.032.093-.032.109-.032.14 0 .203 1.047.563 1.094.578A4.648 4.648 0 003.047.22C4.53.219 5.469-.453 5.469-2c0-1.11-.828-1.953-1.813-2.172zm0 0"/></symbol><symbol overflow="visible" id="X"><path d="M2.922-5.86v5.376c0 .359.11.484.484.484h.5c.375 0 .485-.125.485-.484V-5.86c.437 0 1.546.03 1.984.03.281 0 .516 0 .516-.468v-.078c0-.328-.063-.484-.47-.484H.876c-.36 0-.469.109-.469.484v.078c0 .469.235.469.516.469zm0 0"/></symbol><symbol overflow="visible" id="Y"><path d="M4.984-3.234c0-1.032-.437-1.438-1.453-1.438-1 0-1.453.688-1.594.969h-.015v-2.735c0-.328-.063-.484-.469-.484h-.375c-.36 0-.484.11-.484.484v5.954c0 .359.11.484.484.484h.39c.391 0 .485-.125.485-.484v-2.204c0-.859.578-1.265 1.094-1.265.484 0 .578.219.578.734v2.735c0 .328.078.484.484.484H4.5c.39 0 .484-.125.484-.484zm0 0"/></symbol><symbol overflow="visible" id="Z"><path d="M8.031-3.234c0-1.032-.437-1.438-1.453-1.438-.703 0-1.25.328-1.61.984-.155-.953-1.015-.984-1.437-.984-.187 0-.594 0-1.047.328a2.002 2.002 0 00-.578.688h-.015v-.485c0-.328-.063-.484-.47-.484h-.343c-.36 0-.484.11-.484.484v3.657c0 .359.11.484.484.484h.39c.391 0 .485-.125.485-.484v-2.204c0-.89.61-1.265 1.094-1.265.484 0 .594.203.594.734v2.735c0 .359.109.484.468.484h.407C4.89 0 5-.125 5-.484v-2.204c0-.89.61-1.265 1.094-1.265.468 0 .578.203.578.734v2.735c0 .359.11.484.484.484h.407c.375 0 .468-.125.468-.484zm0 0"/></symbol><symbol overflow="visible" id="aa"><path d="M1.016-6.922c-.313 0-.485.047-.485.453v.453c0 .329.11.454.469.454h.531C2-5.563 2-5.766 2-6.234c0-.485 0-.688-.469-.688zm.921 2.828c0-.312-.078-.468-.484-.468h-.36c-.359 0-.484.109-.484.468v3.61c0 .359.11.484.485.484h.36c.374 0 .484-.125.484-.484zm0 0"/></symbol><symbol overflow="visible" id="ab"><path d="M3.953-1.406c0-.563-.297-.907-.484-1.063-.39-.36-.75-.422-1.172-.5-.547-.11-.938-.187-.938-.562 0-.422.329-.5.72-.5.655 0 1.015.25 1.28.468.094.11.125.11.157.11.109 0 .125-.094.14-.14.016-.079.11-.641.11-.688 0-.157-.532-.297-.641-.328a3.484 3.484 0 00-.969-.125c-.453 0-1.781 0-1.781 1.421 0 .485.219.797.484 1.032.344.312.735.39 1.297.5.297.047.797.14.797.578 0 .469-.375.531-.765.531-.438 0-1-.125-1.47-.687-.046-.047-.077-.079-.14-.079-.094 0-.125.094-.125.157-.031.14-.14.703-.14.797 0 .187.734.421.75.421.546.172.953.172 1.125.172.5 0 1.765-.046 1.765-1.515zm0 0"/></symbol><symbol overflow="visible" id="ac"><path d="M3.688-5.531h-.672v2.328a2.258 2.258 0 00-1.25-.422c-.844 0-1.485.844-1.485 1.86C.281-.75.921.077 1.734.077c.5 0 .954-.219 1.266-.5V0h.688zM3-.984c-.203.328-.5.53-.89.53-.563 0-1.126-.39-1.126-1.312 0-.984.672-1.328 1.22-1.328.312 0 .577.14.796.406zm0 0"/></symbol><symbol overflow="visible" id="ad"><path d="M3.39-2.297c0-.812-.624-1.36-1.406-1.36-.5 0-.89.11-1.328.345l.047.578c.266-.172.656-.407 1.281-.407.344 0 .72.25.72.86v.312C1.515-1.922.358-1.687.358-.937c0 .39.266 1.015.97 1.015.343 0 .968-.062 1.39-.375V0h.672zm-.687 1.172c0 .156 0 .36-.281.531-.25.14-.563.14-.656.14C1.328-.453 1-.64 1-.953c0-.5 1.344-.546 1.703-.562zm0 0"/></symbol><symbol overflow="visible" id="ae"><path d="M1.5-3.031h1.172v-.5H1.5v-1.016H.89v1.016H.157v.5H.86v2.015C.86-.484 1 .078 1.563.078c.578 0 1.015-.187 1.265-.297l-.14-.5a1.34 1.34 0 01-.766.25c-.344 0-.422-.328-.422-.687zm0 0"/></symbol><symbol overflow="visible" id="af"><path d="M3.469-.875a2.337 2.337 0 01-1.328.406C1.406-.469.984-1.063.984-1.78c0-.61.313-1.328 1.188-1.328.531 0 .797.109 1.203.375l.094-.579C3-3.546 2.78-3.655 2.172-3.655c-1.203 0-1.89.969-1.89 1.89A1.84 1.84 0 002.14.078c.546 0 1.03-.172 1.375-.36zm0 0"/></symbol><symbol overflow="visible" id="ag"><path d="M3.688-3.625h-.672v.547a1.55 1.55 0 00-1.172-.547C1-3.625.28-2.828.28-1.765c0 1 .61 1.843 1.406 1.843C1.954.078 2.5.016 3-.39v1.938h.688zm-.672 2.64c-.282.454-.672.532-.891.532-.656 0-1.14-.594-1.14-1.313 0-.78.593-1.296 1.218-1.296.516 0 .813.515.813.843zm0 0"/></symbol><symbol overflow="visible" id="ah"><path d="M3.703-3.531h-.687v2.297c0 .64-.547.843-1 .843-.594 0-.657-.156-.657-.53v-2.61H.656v2.656c0 .719.313.953.875.953.328 0 1.032-.062 1.5-.437V0h.672zm0 0"/></symbol><symbol overflow="visible" id="ai"><path d="M1.406-5.469H.594v.813h.812zM1.344-3.53H.672V0h.672zm0 0"/></symbol><symbol overflow="visible" id="aj"><path d="M2.906-3.406a2.863 2.863 0 00-1.219-.25c-.203 0-1.406 0-1.406 1.062 0 .375.203.578.313.672.281.281.61.344 1.031.422.375.078.813.156.813.531 0 .5-.672.5-.782.5-.515 0-.984-.172-1.312-.406l-.11.61c.282.124.766.343 1.422.343.36 0 .703-.047 1-.266.297-.234.39-.578.39-.843 0-.14-.015-.453-.343-.766-.297-.266-.578-.312-.969-.39-.468-.079-.828-.157-.828-.5 0-.454.578-.454.703-.454.454 0 .797.094 1.204.297zm0 0"/></symbol><symbol overflow="visible" id="ak"><path d="M3.984-1.75c0-1.047-.843-1.906-1.875-1.906-1.03 0-1.875.875-1.875 1.906C.234-.734 1.078.078 2.11.078c1.032 0 1.875-.812 1.875-1.828zM2.11-.469c-.625 0-1.171-.469-1.171-1.36 0-.905.578-1.296 1.171-1.296.594 0 1.188.406 1.188 1.297 0 .906-.578 1.36-1.188 1.36zm0 0"/></symbol><symbol overflow="visible" id="al"><path d="M3.703-2.36c0-.624-.187-1.265-1.156-1.265-.453 0-.89.188-1.25.61v-.579h-.64V0h.702v-1.938c0-.53.22-1.156.829-1.156.828 0 .828.563.828.797V0h.687zm0 0"/></symbol><symbol overflow="visible" id="am"><path d="M.781-5.531V0h2.266C4.484 0 5.64-1.219 5.64-2.719c0-1.562-1.172-2.812-2.594-2.812zM1.562-.47v-4.593h1.266c1.094 0 2.031.875 2.031 2.343 0 1.469-.984 2.25-2.03 2.25zm0 0"/></symbol><symbol overflow="visible" id="an"><path d="M1.344-1.703c0-.86.718-1.313 1.422-1.328v-.594a1.83 1.83 0 00-1.47.766v-.735H.673V0h.672zm0 0"/></symbol><symbol overflow="visible" id="ao"><path d="M1.375-.375c.422.39.875.453 1.14.453.844 0 1.563-.797 1.563-1.86 0-.952-.531-1.843-1.312-1.843-.36 0-.954.11-1.422.469v-.375H.672v5.078h.703zm0-2.266a1.08 1.08 0 01.875-.421c.64 0 1.14.578 1.14 1.28 0 .798-.609 1.329-1.218 1.329a.836.836 0 01-.531-.172c-.235-.188-.266-.313-.266-.453zm0 0"/></symbol><symbol overflow="visible" id="ap"><path d="M1.875-5.531H.797V0h.672v-4.906L4.094 0h1.078v-5.531H4.5v4.906zm0 0"/></symbol><symbol overflow="visible" id="aq"><path d="M5.203-5.531h-.812v2.39H1.578v-2.39H.766V0h.812v-2.61h2.813V0h.812zm0 0"/></symbol><symbol overflow="visible" id="ar"><path d="M3.781-3.531h-.656C2.485-2.016 2.047-.984 2.015-.5c-.03-.219-.171-.625-.312-1-.125-.313-.25-.64-.39-.953l-.5-1.078H.125L1.765 0c-.093.234-.25.594-.296.703-.172.328-.282.438-.5.438-.031 0-.328 0-.672-.141l.047.563c.078.015.375.062.625.062.312 0 .594-.125.937-.89zm0 0"/></symbol><symbol overflow="visible" id="as"><path d="M3.422-.875a2.178 2.178 0 01-1.281.422C1.437-.453.92-1.016.89-1.75H3.5c0-.36-.031-.89-.344-1.344C2.875-3.5 2.391-3.656 2-3.656c-.969 0-1.719.844-1.719 1.86 0 1.03.797 1.874 1.844 1.874.469 0 .938-.14 1.344-.375zM.953-2.219c.172-.64.656-.906 1.047-.906.344 0 .875.156 1.016.906zm0 0"/></symbol><symbol overflow="visible" id="at"><path d="M5.781-2.734c0-1.657-1.218-2.97-2.656-2.97-1.438 0-2.656 1.313-2.656 2.97 0 1.64 1.234 2.906 2.656 2.906 1.438 0 2.656-1.266 2.656-2.906zM3.125-.391c-.969 0-1.844-.968-1.844-2.484 0-1.406.89-2.266 1.844-2.266.953 0 1.844.86 1.844 2.266 0 1.516-.875 2.484-1.844 2.484zm0 0"/></symbol><symbol overflow="visible" id="au"><path d="M6.063-2.36c0-.624-.188-1.265-1.172-1.265-.672 0-1.079.39-1.266.656-.094-.219-.281-.656-1.078-.656-.453 0-.89.188-1.25.61v-.579h-.64V0h.702v-1.938c0-.53.22-1.156.829-1.156.828 0 .828.563.828.797V0h.687v-1.938c0-.53.219-1.156.844-1.156.812 0 .812.563.812.797V0h.704zm0 0"/></symbol><symbol overflow="visible" id="av"><path d="M3.375-3.203v-.328H.344v.5h2.093L.235-.344V0h3.172v-.531H1.187zm0 0"/></symbol><symbol overflow="visible" id="aw"><path d="M5.078-2.375H3.297v.516h1.078v1.218a3.948 3.948 0 01-1.047.157c-1.234 0-1.984-1.157-1.984-2.282 0-1.093.734-2.296 1.937-2.296.735 0 1.203.218 1.594.546L5-5.234c-.547-.266-1.031-.391-1.64-.391-1.61 0-2.813 1.266-2.813 2.86C.547-1.22 1.75.077 3.312.077c.579 0 1.25-.125 1.766-.39zm0 0"/></symbol><symbol overflow="visible" id="ax"><path d="M2.984-2.266c1.032 0 1.954-.734 1.954-1.64 0-.86-.844-1.625-2-1.625H.78V0h.797v-2.266zm-.25-2.796c.907 0 1.47.484 1.47 1.156 0 .64-.532 1.14-1.47 1.14H1.563v-2.296zm0 0"/></symbol><symbol overflow="visible" id="ay"><path d="M3.578-2.578C4.718-2.922 5-3.61 5-4.047c0-.828-.969-1.484-2.125-1.484H.781V0h.781v-2.5h1.313L4.438 0h.796zm-2.015-.453v-2.031h1.203c.921 0 1.515.437 1.515 1.015 0 .563-.547 1.016-1.515 1.016zm0 0"/></symbol><symbol overflow="visible" id="az"><path d="M4.438-2.766c-.094.235-.672 1.641-.75 1.985-.063-.235-.422-1.156-.516-1.36l-1.36-3.39H.845V0H1.5v-4.89h.016c.062.28.468 1.327.515 1.421L3.36-.172H4l1.172-2.922c0-.015.562-1.375.687-1.812h.016V0h.672v-5.531h-.984zm0 0"/></symbol><symbol overflow="visible" id="aA"><path d="M4.938-.969c-.563.344-.813.485-1.61.485-1.234 0-1.984-1.157-1.984-2.297 0-1.172.812-2.281 1.984-2.281.516 0 1.063.156 1.422.437l.14-.719a4.344 4.344 0 00-1.593-.281c-1.578 0-2.75 1.313-2.75 2.86 0 1.64 1.25 2.843 2.797 2.843.781 0 1.11-.156 1.64-.437zm0 0"/></symbol><symbol overflow="visible" id="aB"><path d="M3.938-5.313c-.516-.25-.97-.39-1.563-.39-1.203 0-1.906.812-1.906 1.578 0 .328.11.719.5 1.078.344.328.719.406 1.203.531.672.157.86.204 1.094.438.14.156.265.375.265.64 0 .5-.437 1-1.219 1A2.844 2.844 0 01.5-1.094l-.125.719c.39.219 1.063.547 1.953.547 1.11 0 1.89-.813 1.89-1.703 0-.64-.374-1.016-.53-1.172-.329-.328-.704-.422-1.313-.563-.484-.109-.734-.171-.938-.359-.093-.11-.28-.281-.28-.594 0-.437.452-.906 1.218-.906.61 0 1.031.188 1.438.531zm0 0"/></symbol><symbol overflow="visible" id="aC"><path d="M5.516-5.531h-.688L3.812-3.078c-.046.125-.843 2.047-.906 2.453h-.015c-.079-.406-.875-2.344-.907-2.422L.97-5.53H.125L2.422 0h.797zm0 0"/></symbol><symbol overflow="visible" id="aD"><path d="M1.578-5.531H.766V0H4.25v-.563c-.766 0-1.516.016-2.281.016h-.39zm0 0"/></symbol><symbol overflow="visible" id="aE"><path d="M1.344-5.531H.672V0h.703v-.375a1.66 1.66 0 001.14.453c.86 0 1.563-.812 1.563-1.86 0-.952-.547-1.843-1.344-1.843-.5 0-.984.172-1.39.469zm.031 3.015c0-.125 0-.218.281-.406a1.22 1.22 0 01.594-.172c.531 0 1.14.36 1.14 1.313 0 .968-.671 1.328-1.218 1.328-.297 0-.578-.125-.797-.484zm0 0"/></symbol><symbol overflow="visible" id="aF"><path d="M4.016-3.625c-.188 0-.72.016-1.329.25h-.015a1.43 1.43 0 00-.797-.25c-.781 0-1.36.625-1.36 1.313 0 .265.094.562.282.78-.11.141-.235.36-.235.657 0 .313.125.516.204.61-.438.25-.532.624-.532.812 0 .61.844 1.094 1.875 1.094 1.047 0 1.875-.485 1.875-1.094 0-1.125-1.39-1.125-1.734-1.125H1.5c-.125 0-.469 0-.469-.406 0-.157.063-.25.063-.266.281.188.562.234.781.234.781 0 1.36-.609 1.36-1.296 0-.25-.079-.485-.22-.704-.03-.046-.03-.046-.03-.062 0-.031.484-.031.515-.031.016 0 .313 0 .61.03zM1.875-1.5c-.422 0-.75-.281-.75-.813 0-.624.406-.812.75-.812.422 0 .75.266.75.813 0 .609-.406.812-.75.812zM2.25.047c.188 0 1.125 0 1.125.515 0 .344-.594.579-1.266.579C1.438 1.14.844.906.844.562c0-.046 0-.515.64-.515zm0 0"/></symbol><symbol overflow="visible" id="aG"><path d="M4.125-2.5v-.516H1.578v-1.937h2.906V-5.5H.766V0h.812v-2.5zm0 0"/></symbol><symbol overflow="visible" id="aH"><path d="M3.297-4.922H5.468v-.547H.298v.547h2.187V0h.813zm0 0"/></symbol><symbol overflow="visible" id="aI"><path d="M3.781-3.531h-.64C2.047-.875 2-.656 1.969-.47h-.016c-.062-.312-.281-.875-.531-1.484l-.64-1.578H.124L1.578 0h.734zm0 0"/></symbol><symbol overflow="visible" id="aK"><path d="M5.656-3.531h-.625c-.062.219-.515 1.562-.765 2.39-.063.235-.141.485-.157.672h-.015c-.047-.328-.328-1.187-.344-1.25L3.156-3.53h-.594c-.234.672-.828 2.469-.89 3.047h-.016C1.594-1.047 1-2.813.875-3.204.812-3.39.812-3.405.765-3.53h-.64L1.281 0h.672c0-.031.219-.656.5-1.547.125-.39.36-1.156.406-1.5v-.015c.016.171.063.343.125.546.047.204.11.407.157.594L3.766 0H4.5zm0 0"/></symbol><symbol overflow="visible" id="aL"><path d="M1.531-3.531H.813v.703h.718zM.813-.72V0h.718v-.719zm0 0"/></symbol><symbol overflow="visible" id="aM"><path d="M1.344-5.531H.672V0h.672zm0 0"/></symbol><clipPath id="a"><path d="M0 0h340.559v205H0zm0 0"/></clipPath><clipPath id="b"><path d="M0 0h340.559v206H0zm0 0"/></clipPath><clipPath id="c"><path d="M0 34h340.559v2H0zm0 0"/></clipPath><clipPath id="d"><path d="M0 48h340.559v2H0zm0 0"/></clipPath><clipPath id="e"><path d="M0 62h340.559v2H0zm0 0"/></clipPath><clipPath id="f"><path d="M0 77h340.559v1H0zm0 0"/></clipPath><clipPath id="g"><path d="M0 91h340.559v1H0zm0 0"/></clipPath><clipPath id="h"><path d="M0 105h340.559v1H0zm0 0"/></clipPath><clipPath id="i"><path d="M0 119h340.559v2H0zm0 0"/></clipPath><clipPath id="j"><path d="M0 133h340.559v2H0zm0 0"/></clipPath><clipPath id="k"><path d="M0 148h340.559v1H0zm0 0"/></clipPath><clipPath id="l"><path d="M0 162h340.559v1H0zm0 0"/></clipPath><clipPath id="m"><path d="M0 176h340.559v1H0zm0 0"/></clipPath><clipPath id="n"><path d="M0 190h340.559v1H0zm0 0"/></clipPath><clipPath id="v"><path d="M85 0h255.559v18H85zm0 0"/></clipPath><clipPath id="w"><path d="M85 0h255.559v19H85zm0 0"/></clipPath><clipPath id="T"><path d="M312 17h28.559v18H312zm0 0"/></clipPath><clipPath id="U"><path d="M311 17h29.559v19H311zm0 0"/></clipPath><clipPath id="W"><path d="M0 36h340.559v13H0zm0 0"/></clipPath><clipPath id="aJ"><path d="M255 177h85.559v13H255zm0 0"/></clipPath></defs><g clip-path="url(#a)"><path d="M.2 204.895h340.16V.797H.2zm0 0" fill="#fff"/></g><g clip-path="url(#b)"><path d="M.2 204.895h340.16V.797H.2zm0 0" fill="none" stroke-width=".3985" stroke="#000" stroke-miterlimit="10"/></g><path d="M28.547 34.812v170.083M56.895 34.812v170.083M85.238 34.812v170.083M113.586 34.812v170.083M141.934 34.812v170.083M170.281 34.812v170.083M198.629 34.812v170.083M226.973 34.812v170.083M255.32 34.812v170.083M283.668 34.812v170.083M312.016 34.812v170.083" fill="none" stroke-width=".3985" stroke="#000" stroke-dasharray="3.985,19.9255" stroke-miterlimit="10"/><g clip-path="url(#c)"><path d="M.2 34.812h340.16" fill="none" stroke-width=".3985" stroke="#000" stroke-dasharray="3.985,19.9255" stroke-miterlimit="10"/></g><g clip-path="url(#d)"><path d="M.2 48.988h340.16" fill="none" stroke-width=".3985" stroke="#000" stroke-dasharray="3.985,19.9255" stroke-miterlimit="10"/></g><g clip-path="url(#e)"><path d="M.2 63.16h340.16" fill="none" stroke-width=".3985" stroke="#000" stroke-dasharray="3.985,19.9255" stroke-miterlimit="10"/></g><g clip-path="url(#f)"><path d="M.2 77.336h340.16" fill="none" stroke-width=".3985" stroke="#000" stroke-dasharray="3.985,19.9255" stroke-miterlimit="10"/></g><g clip-path="url(#g)"><path d="M.2 91.508h340.16" fill="none" stroke-width=".3985" stroke="#000" stroke-dasharray="3.985,19.9255" stroke-miterlimit="10"/></g><g clip-path="url(#h)"><path d="M.2 105.68h340.16" fill="none" stroke-width=".3985" stroke="#000" stroke-dasharray="3.985,19.9255" stroke-miterlimit="10"/></g><g clip-path="url(#i)"><path d="M.2 119.855h340.16" fill="none" stroke-width=".3985" stroke="#000" stroke-dasharray="3.985,19.9255" stroke-miterlimit="10"/></g><g clip-path="url(#j)"><path d="M.2 134.027h340.16" fill="none" stroke-width=".3985" stroke="#000" stroke-dasharray="3.985,19.9255" stroke-miterlimit="10"/></g><g clip-path="url(#k)"><path d="M.2 148.2h340.16" fill="none" stroke-width=".3985" stroke="#000" stroke-dasharray="3.985,19.9255" stroke-miterlimit="10"/></g><g clip-path="url(#l)"><path d="M.2 162.375h340.16" fill="none" stroke-width=".3985" stroke="#000" stroke-dasharray="3.985,19.9255" stroke-miterlimit="10"/></g><g clip-path="url(#m)"><path d="M.2 176.547h340.16" fill="none" stroke-width=".3985" stroke="#000" stroke-dasharray="3.985,19.9255" stroke-miterlimit="10"/></g><g clip-path="url(#n)"><path d="M.2 190.723h340.16" fill="none" stroke-width=".3985" stroke="#000" stroke-dasharray="3.985,19.9255" stroke-miterlimit="10"/></g><path d="M56.895 34.812v170.083" fill="none" stroke-width=".9963" stroke="#000" stroke-dasharray="29.8883,29.8883" stroke-miterlimit="10"/><use xlink:href="#o" x="48.175" y="212.999"/><use xlink:href="#p" x="53.71" y="212.999"/><use xlink:href="#q" x="58.413" y="212.999"/><path d="M.2 17.805h85.038V.797H.2zm0 0" fill="#fff" stroke-width=".3985" stroke="#000" stroke-miterlimit="10"/><use xlink:href="#r" x="31.76" y="11.692"/><use xlink:href="#s" x="37.24" y="11.692"/><use xlink:href="#t" x="42.719" y="11.692"/><use xlink:href="#u" x="48.198" y="11.692"/><g clip-path="url(#v)"><path d="M85.238 17.805H340.36V.797H85.24zm0 0" fill="#fff"/></g><g clip-path="url(#w)"><path d="M85.238 17.805H340.36V.797H85.24zm0 0" fill="none" stroke-width=".3985" stroke="#000" stroke-miterlimit="10"/></g><use xlink:href="#r" x="201.839" y="11.692"/><use xlink:href="#s" x="207.318" y="11.692"/><use xlink:href="#t" x="212.798" y="11.692"/><use xlink:href="#x" x="218.277" y="11.692"/><path d="M.2 34.812h28.347V17.805H.199zm0 0" fill="#fff" stroke-width=".3985" stroke="#000" stroke-miterlimit="10"/><use xlink:href="#y" x="5.966" y="28.7"/><use xlink:href="#z" x="13.881" y="28.7"/><use xlink:href="#A" x="18.752" y="28.7"/><path d="M28.547 34.812h28.348V17.805H28.547zm0 0" fill="#fff" stroke-width=".3985" stroke="#000" stroke-miterlimit="10"/><use xlink:href="#B" x="33.531" y="28.7"/><use xlink:href="#C" x="41.446" y="28.7"/><use xlink:href="#D" x="46.926" y="28.7"/><path d="M56.895 34.812h28.343V17.805H56.895zm0 0" fill="#fff" stroke-width=".3985" stroke="#000" stroke-miterlimit="10"/><use xlink:href="#E" x="62.127" y="28.7"/><use xlink:href="#F" x="70.042" y="28.7"/><use xlink:href="#z" x="75.134" y="28.7"/><path d="M85.238 34.812h28.348V17.805H85.238zm0 0" fill="#fff" stroke-width=".3985" stroke="#000" stroke-miterlimit="10"/><use xlink:href="#G" x="91.414" y="28.7"/><use xlink:href="#H" x="96.589" y="28.7"/><use xlink:href="#I" x="101.819" y="28.7"/><path d="M113.586 34.812h28.348V17.805h-28.348zm0 0" fill="#fff" stroke-width=".3985" stroke="#000" stroke-miterlimit="10"/><use xlink:href="#J" x="119.525" y="28.7"/><use xlink:href="#F" x="125.304" y="28.7"/><use xlink:href="#K" x="130.396" y="28.7"/><path d="M141.934 34.812h28.347V17.805h-28.347zm0 0" fill="#fff" stroke-width=".3985" stroke="#000" stroke-miterlimit="10"/><use xlink:href="#L" x="146.917" y="28.7"/><use xlink:href="#H" x="156.658" y="28.7"/><use xlink:href="#M" x="161.58" y="28.7"/><path d="M170.281 34.812h28.344V17.805h-28.344zm0 0" fill="#fff" stroke-width=".3985" stroke="#000" stroke-miterlimit="10"/><use xlink:href="#N" x="176.301" y="28.7"/><use xlink:href="#O" x="183.607" y="28.7"/><use xlink:href="#M" x="188.888" y="28.7"/><path d="M198.629 34.812h28.344V17.805h-28.344zm0 0" fill="#fff" stroke-width=".3985" stroke="#000" stroke-miterlimit="10"/><use xlink:href="#L" x="202.973" y="28.7"/><use xlink:href="#H" x="212.714" y="28.7"/><use xlink:href="#P" x="217.636" y="28.7"/><path d="M226.973 34.812h28.347V17.805h-28.347zm0 0" fill="#fff" stroke-width=".3985" stroke="#000" stroke-miterlimit="10"/><use xlink:href="#G" x="232.966" y="28.7"/><use xlink:href="#Q" x="238.141" y="28.7"/><use xlink:href="#I" x="243.731" y="28.7"/><path d="M255.32 34.812h28.348V17.805H255.32zm0 0" fill="#fff" stroke-width=".3985" stroke="#000" stroke-miterlimit="10"/><use xlink:href="#G" x="262.835" y="28.7"/><use xlink:href="#Q" x="268.01" y="28.7"/><use xlink:href="#R" x="273.6" y="28.7"/><path d="M283.668 34.812h28.348V17.805h-28.348zm0 0" fill="#fff" stroke-width=".3985" stroke="#000" stroke-miterlimit="10"/><use xlink:href="#N" x="288.649" y="28.7"/><use xlink:href="#Q" x="295.955" y="28.7"/><use xlink:href="#S" x="301.545" y="28.7"/><g clip-path="url(#T)"><path d="M312.016 34.813h28.343V17.805h-28.343zm0 0" fill="#fff"/></g><g clip-path="url(#U)"><path d="M312.016 34.812h28.343V17.805h-28.343zm0 0" fill="none" stroke-width=".3985" stroke="#000" stroke-miterlimit="10"/></g><use xlink:href="#V" x="317.798" y="28.7"/><use xlink:href="#F" x="323.886" y="28.7"/><use xlink:href="#O" x="328.978" y="28.7"/><g clip-path="url(#W)"><path d="M-2.637 36.23h345.832v11.34l-5.668 1.418-5.672-1.418H8.703l-5.668 1.418-5.672-1.418" fill="navy"/></g><use xlink:href="#X" x="133.744" y="44.291" fill="#fff"/><use xlink:href="#Y" x="141.05" y="44.291" fill="#fff"/><use xlink:href="#F" x="146.64" y="44.291" fill="#fff"/><use xlink:href="#M" x="151.731" y="44.291" fill="#fff"/><use xlink:href="#Z" x="155.44" y="44.291" fill="#fff"/><use xlink:href="#C" x="164.074" y="44.291" fill="#fff"/><use xlink:href="#F" x="169.862" y="44.291" fill="#fff"/><use xlink:href="#R" x="174.954" y="44.291" fill="#fff"/><use xlink:href="#F" x="177.501" y="44.291" fill="#fff"/><use xlink:href="#z" x="182.593" y="44.291" fill="#fff"/><use xlink:href="#A" x="187.463" y="44.291" fill="#fff"/><use xlink:href="#M" x="191.49" y="44.291" fill="#fff"/><use xlink:href="#aa" x="195.198" y="44.291" fill="#fff"/><use xlink:href="#z" x="197.745" y="44.291" fill="#fff"/><use xlink:href="#ab" x="202.615" y="44.291" fill="#fff"/><path d="M.2 61.742h113.386V50.406H.199zm0 0" fill="green"/><use xlink:href="#ac" x="28.923" y="57.966" fill="#fff"/><use xlink:href="#ad" x="33.295" y="57.966" fill="#fff"/><use xlink:href="#ae" x="37.363" y="57.966" fill="#fff"/><use xlink:href="#ad" x="40.421" y="57.966" fill="#fff"/><use xlink:href="#ad" x="47.311" y="57.966" fill="#fff"/><use xlink:href="#af" x="51.379" y="57.966" fill="#fff"/><use xlink:href="#ag" x="55.142" y="57.966" fill="#fff"/><use xlink:href="#ah" x="59.515" y="57.966" fill="#fff"/><use xlink:href="#ai" x="63.887" y="57.966" fill="#fff"/><use xlink:href="#aj" x="65.908" y="57.966" fill="#fff"/><use xlink:href="#ai" x="69.154" y="57.966" fill="#fff"/><use xlink:href="#ae" x="71.174" y="57.966" fill="#fff"/><use xlink:href="#ai" x="74.232" y="57.966" fill="#fff"/><use xlink:href="#ak" x="76.253" y="57.966" fill="#fff"/><use xlink:href="#al" x="80.487" y="57.966" fill="#fff"/><path d="M.2 75.914h56.695V64.578H.199zm0 0" fill="green"/><use xlink:href="#am" x="6.399" y="72.139" fill="#fff"/><use xlink:href="#an" x="12.515" y="72.139" fill="#fff"/><use xlink:href="#ak" x="15.407" y="72.139" fill="#fff"/><use xlink:href="#ao" x="19.642" y="72.139" fill="#fff"/><use xlink:href="#ak" x="24.245" y="72.139" fill="#fff"/><use xlink:href="#ah" x="28.48" y="72.139" fill="#fff"/><use xlink:href="#ae" x="32.852" y="72.139" fill="#fff"/><g fill="#fff"><use xlink:href="#ap" x="38.74" y="72.139"/><use xlink:href="#ap" x="44.717" y="72.139"/></g><path d="M56.895 90.09h141.73V78.75H56.895zm0 0" fill="green"/><g fill="#fff"><use xlink:href="#aq" x="92.833" y="86.312"/><use xlink:href="#ar" x="98.81" y="86.312"/></g><use xlink:href="#ao" x="102.713" y="86.312" fill="#fff"/><use xlink:href="#as" x="107.324" y="86.312" fill="#fff"/><use xlink:href="#an" x="111.088" y="86.312" fill="#fff"/><use xlink:href="#at" x="116.802" y="86.312" fill="#fff"/><use xlink:href="#ao" x="123.056" y="86.312" fill="#fff"/><use xlink:href="#ae" x="127.428" y="86.312" fill="#fff"/><use xlink:href="#ai" x="130.486" y="86.312" fill="#fff"/><use xlink:href="#au" x="132.507" y="86.312" fill="#fff"/><use xlink:href="#ai" x="139.232" y="86.312" fill="#fff"/><use xlink:href="#av" x="141.252" y="86.312" fill="#fff"/><use xlink:href="#ad" x="144.933" y="86.312" fill="#fff"/><use xlink:href="#ae" x="149.001" y="86.312" fill="#fff"/><use xlink:href="#ai" x="152.059" y="86.312" fill="#fff"/><use xlink:href="#ak" x="154.079" y="86.312" fill="#fff"/><use xlink:href="#al" x="158.314" y="86.312" fill="#fff"/><path d="M56.895 104.262h56.69V92.926h-56.69zm0 0" fill="green"/><use xlink:href="#aw" x="76.971" y="100.486" fill="#fff"/><use xlink:href="#ax" x="82.616" y="100.486" fill="#fff"/><use xlink:href="#ay" x="88.026" y="100.486" fill="#fff"/><path d="M85.238 118.438h85.043v-11.34H85.238zm0 0" fill="green"/><g fill="#fff"><use xlink:href="#aq" x="118.37" y="114.659"/><use xlink:href="#az" x="124.348" y="114.659"/></g><use xlink:href="#aA" x="131.737" y="114.659" fill="#fff"/><path d="M141.934 132.61h56.691v-11.34h-56.691zm0 0" fill="green"/><use xlink:href="#aB" x="159.339" y="128.832" fill="#fff"/><use xlink:href="#aC" x="164.044" y="128.832" fill="#fff"/><use xlink:href="#aw" x="169.458" y="128.832" fill="#fff"/><use xlink:href="#am" x="175.103" y="128.832" fill="#fff"/><path d="M141.934 146.785h85.039v-11.34h-85.04zm0 0" fill="green"/><use xlink:href="#aD" x="157.434" y="143.005" fill="#fff"/><use xlink:href="#as" x="162.042" y="143.005" fill="#fff"/><use xlink:href="#ad" x="165.805" y="143.005" fill="#fff"/><use xlink:href="#ac" x="169.873" y="143.005" fill="#fff"/><use xlink:href="#as" x="174.245" y="143.005" fill="#fff"/><use xlink:href="#an" x="178.009" y="143.005" fill="#fff"/><use xlink:href="#aE" x="180.901" y="143.005" fill="#fff"/><use xlink:href="#ak" x="185.513" y="143.005" fill="#fff"/><use xlink:href="#ad" x="189.747" y="143.005" fill="#fff"/><use xlink:href="#an" x="193.576" y="143.005" fill="#fff"/><use xlink:href="#ac" x="196.468" y="143.005" fill="#fff"/><use xlink:href="#ai" x="200.841" y="143.005" fill="#fff"/><use xlink:href="#al" x="202.861" y="143.005" fill="#fff"/><use xlink:href="#aF" x="207.233" y="143.005" fill="#fff"/><path d="M170.281 160.957h113.387v-11.34H170.281zm0 0" fill="green"/><use xlink:href="#am" x="218.599" y="157.178" fill="#fff"/><use xlink:href="#aG" x="224.715" y="157.178" fill="#fff"/><use xlink:href="#aH" x="229.558" y="157.178" fill="#fff"/><path d="M198.629 175.129h113.387v-11.336H198.629zm0 0" fill="green"/><use xlink:href="#ad" x="237.619" y="171.352" fill="#fff"/><use xlink:href="#af" x="241.687" y="171.352" fill="#fff"/><use xlink:href="#ae" x="245.45" y="171.352" fill="#fff"/><use xlink:href="#ai" x="248.509" y="171.352" fill="#fff"/><use xlink:href="#aI" x="250.529" y="171.352" fill="#fff"/><use xlink:href="#as" x="254.431" y="171.352" fill="#fff"/><use xlink:href="#az" x="261.016" y="171.352" fill="#fff"/><use xlink:href="#aD" x="268.405" y="171.352" fill="#fff"/><g clip-path="url(#aJ)"><path d="M255.32 189.305h85.04v-11.34h-85.04zm0 0" fill="green"/></g><use xlink:href="#aK" x="279.862" y="185.525" fill="#fff"/><use xlink:href="#an" x="285.646" y="185.525" fill="#fff"/><use xlink:href="#ai" x="288.538" y="185.525" fill="#fff"/><use xlink:href="#ae" x="290.559" y="185.525" fill="#fff"/><use xlink:href="#ai" x="293.617" y="185.525" fill="#fff"/><use xlink:href="#al" x="295.637" y="185.525" fill="#fff"/><use xlink:href="#aF" x="300.01" y="185.525" fill="#fff"/><use xlink:href="#ah" x="307.066" y="185.525" fill="#fff"/><use xlink:href="#ao" x="311.438" y="185.525" fill="#fff"/><path d="M5.18 201.45h156.355v-31.106H5.18zm0 0" fill="#666"/><use xlink:href="#aw" x="8.501" y="179.199" fill="#fff"/><use xlink:href="#ax" x="14.146" y="179.199" fill="#fff"/><use xlink:href="#ay" x="19.556" y="179.199" fill="#fff"/><use xlink:href="#aL" x="25.036" y="179.199" fill="#fff"/><use xlink:href="#aw" x="30.209" y="179.199" fill="#fff"/><use xlink:href="#ad" x="35.855" y="179.199" fill="#fff"/><use xlink:href="#ah" x="39.923" y="179.199" fill="#fff"/><use xlink:href="#aj" x="44.295" y="179.199" fill="#fff"/><use xlink:href="#aj" x="47.541" y="179.199" fill="#fff"/><use xlink:href="#ai" x="50.787" y="179.199" fill="#fff"/><use xlink:href="#ad" x="52.808" y="179.199" fill="#fff"/><use xlink:href="#al" x="56.876" y="179.199" fill="#fff"/><use xlink:href="#ax" x="64.077" y="179.199" fill="#fff"/><use xlink:href="#an" x="69.487" y="179.199" fill="#fff"/><use xlink:href="#ak" x="72.38" y="179.199" fill="#fff"/><use xlink:href="#af" x="76.845" y="179.199" fill="#fff"/><use xlink:href="#as" x="80.609" y="179.199" fill="#fff"/><use xlink:href="#aj" x="84.372" y="179.199" fill="#fff"/><use xlink:href="#aj" x="87.619" y="179.199" fill="#fff"/><use xlink:href="#ay" x="93.686" y="179.199" fill="#fff"/><use xlink:href="#as" x="99.166" y="179.199" fill="#fff"/><use xlink:href="#aF" x="102.929" y="179.199" fill="#fff"/><use xlink:href="#an" x="107.164" y="179.199" fill="#fff"/><use xlink:href="#as" x="110.056" y="179.199" fill="#fff"/><use xlink:href="#aj" x="113.82" y="179.199" fill="#fff"/><use xlink:href="#aj" x="117.066" y="179.199" fill="#fff"/><use xlink:href="#ai" x="120.312" y="179.199" fill="#fff"/><use xlink:href="#ak" x="122.332" y="179.199" fill="#fff"/><use xlink:href="#al" x="126.567" y="179.199" fill="#fff"/><g fill="#fff"><use xlink:href="#aq" x="8.501" y="188.663"/><use xlink:href="#az" x="14.479" y="188.663"/></g><use xlink:href="#aA" x="21.868" y="188.663" fill="#fff"/><use xlink:href="#aL" x="27.278" y="188.663" fill="#fff"/><g fill="#fff"><use xlink:href="#aq" x="32.451" y="188.663"/><use xlink:href="#ad" x="38.429" y="188.663"/></g><use xlink:href="#au" x="42.497" y="188.663" fill="#fff"/><use xlink:href="#ai" x="49.222" y="188.663" fill="#fff"/><use xlink:href="#aM" x="51.242" y="188.663" fill="#fff"/><use xlink:href="#ae" x="53.263" y="188.663" fill="#fff"/><use xlink:href="#ak" x="56.321" y="188.663" fill="#fff"/><use xlink:href="#al" x="60.555" y="188.663" fill="#fff"/><use xlink:href="#ai" x="64.928" y="188.663" fill="#fff"/><use xlink:href="#ad" x="66.948" y="188.663" fill="#fff"/><use xlink:href="#al" x="71.016" y="188.663" fill="#fff"/><use xlink:href="#az" x="78.21" y="188.663" fill="#fff"/><use xlink:href="#ak" x="85.599" y="188.663" fill="#fff"/><use xlink:href="#al" x="89.833" y="188.663" fill="#fff"/><use xlink:href="#ae" x="94.206" y="188.663" fill="#fff"/><use xlink:href="#as" x="97.264" y="188.663" fill="#fff"/><use xlink:href="#aA" x="103.849" y="188.663" fill="#fff"/><use xlink:href="#ad" x="109.267" y="188.663" fill="#fff"/><use xlink:href="#an" x="113.096" y="188.663" fill="#fff"/><use xlink:href="#aM" x="115.988" y="188.663" fill="#fff"/><use xlink:href="#ak" x="118.008" y="188.663" fill="#fff"/><use xlink:href="#aB" x="8.501" y="198.128" fill="#fff"/><use xlink:href="#aC" x="13.206" y="198.128" fill="#fff"/><use xlink:href="#aw" x="18.62" y="198.128" fill="#fff"/><use xlink:href="#am" x="24.265" y="198.128" fill="#fff"/><use xlink:href="#aL" x="30.381" y="198.128" fill="#fff"/><use xlink:href="#aB" x="35.555" y="198.128" fill="#fff"/><use xlink:href="#ae" x="40.259" y="198.128" fill="#fff"/><use xlink:href="#as" x="43.318" y="198.128" fill="#fff"/><use xlink:href="#ai" x="47.081" y="198.128" fill="#fff"/><use xlink:href="#al" x="49.101" y="198.128" fill="#fff"/><use xlink:href="#aC" x="56.295" y="198.128" fill="#fff"/><use xlink:href="#ad" x="61.702" y="198.128" fill="#fff"/><use xlink:href="#an" x="65.538" y="198.128" fill="#fff"/><use xlink:href="#ai" x="68.431" y="198.128" fill="#fff"/><use xlink:href="#ad" x="70.451" y="198.128" fill="#fff"/><use xlink:href="#ae" x="74.519" y="198.128" fill="#fff"/><use xlink:href="#ai" x="77.577" y="198.128" fill="#fff"/><use xlink:href="#ak" x="79.598" y="198.128" fill="#fff"/><use xlink:href="#al" x="83.832" y="198.128" fill="#fff"/><use xlink:href="#ad" x="88.204" y="198.128" fill="#fff"/><use xlink:href="#aM" x="92.272" y="198.128" fill="#fff"/><use xlink:href="#aw" x="97.114" y="198.128" fill="#fff"/><use xlink:href="#an" x="102.759" y="198.128" fill="#fff"/><use xlink:href="#ad" x="105.652" y="198.128" fill="#fff"/><use xlink:href="#ac" x="109.72" y="198.128" fill="#fff"/><use xlink:href="#ai" x="114.092" y="198.128" fill="#fff"/><use xlink:href="#as" x="116.112" y="198.128" fill="#fff"/><use xlink:href="#al" x="119.876" y="198.128" fill="#fff"/><g fill="#fff"><use xlink:href="#ae" x="124.248" y="198.128"/></g><g fill="#fff"><use xlink:href="#am" x="130.128" y="198.128"/></g><g fill="#fff"><use xlink:href="#as" x="136.244" y="198.128"/></g><g fill="#fff"><use xlink:href="#aj" x="140.007" y="198.128"/></g><g fill="#fff"><use xlink:href="#af" x="143.254" y="198.128"/></g><g fill="#fff"><use xlink:href="#as" x="147.017" y="198.128"/></g><g fill="#fff"><use xlink:href="#al" x="150.781" y="198.128"/></g><g fill="#fff"><use xlink:href="#ae" x="155.153" y="198.128"/></g></svg>