<svg height="288.423" viewBox="0 0 340.556 216.317" width="454.075" xmlns="http://www.w3.org/2000/svg" xmlns:xlink="http://www.w3.org/1999/xlink"><symbol id="a" overflow="visible"><path d="m1.094-3.422v2.672c0 .438-.11.438-.782.438v.312c.36-.016.86-.031 1.141-.031.25 0 .766.015 1.11.031v-.313c-.672 0-.782 0-.782-.437v-1.844c0-1.031.719-1.594 1.344-1.594.64 0 .75.532.75 1.11v2.328c0 .438-.11.438-.781.438v.312c.344-.016.86-.031 1.125-.031.25 0 .781.015 1.11.031v-.313c-.516 0-.766 0-.766-.296v-1.907c0-.859 0-1.156-.313-1.515-.14-.172-.469-.375-1.047-.375-.734 0-1.203.422-1.484 1.047v-1.047l-1.407.11v.312c.704 0 .782.062.782.562zm0 0"/></symbol><symbol id="b" overflow="visible"><path d="m4.688-2.14c0-1.266-.985-2.329-2.188-2.329-1.25 0-2.219 1.094-2.219 2.329a2.22 2.22 0 0 0 2.203 2.25c1.204 0 2.204-.984 2.204-2.25zm-2.188 2c-.438 0-.875-.204-1.14-.672-.25-.438-.25-1.047-.25-1.407 0-.39 0-.922.234-1.36a1.347 1.347 0 0 1 1.14-.671c.438 0 .86.219 1.125.656.266.422.266 1 .266 1.375 0 .36 0 .906-.219 1.344-.234.453-.672.734-1.156.734zm0 0"/></symbol><symbol id="c" overflow="visible"><path d="m6.172-3.344c.172-.5.484-.64.844-.64v-.313c-.235.016-.516.031-.735.031-.297 0-.734-.015-.922-.03v.312c.36 0 .579.187.579.468 0 .063 0 .094-.063.22l-.906 2.546-.985-2.781c-.03-.125-.046-.14-.046-.188 0-.265.39-.265.593-.265v-.313a25.02 25.02 0 0 1 -1.047.031c-.296 0-.578-.015-.875-.03v.312c.36 0 .516.015.625.14.047.063.157.36.22.547l-.846 2.422-.953-2.656c-.047-.125-.047-.14-.047-.188 0-.265.391-.265.579-.265v-.313c-.297.016-.86.031-1.079.031-.046 0-.578-.015-.937-.03v.312c.5 0 .625.03.75.343l1.25 3.532c.047.14.078.218.203.218.14 0 .156-.062.203-.203l1.016-2.812 1.016 2.828c.032.11.063.187.204.187.125 0 .156-.093.187-.187zm0 0"/></symbol><symbol id="d" overflow="visible"><path d="m.64-.844c-.093.094-.093.11-.093.281v.079c0 .359.11.484.484.484h3.422c.375 0 .469-.125.469-.484v-.11c0-.156 0-.36-.203-.437-.078-.047-.39-.047-.594-.047-.219 0-.453.016-.672.016h-1.625l1.328-1.25c.14-.126.516-.438.672-.579.547-.53 1.094-1.062 1.094-1.953 0-1.218-.875-2.297-2.344-2.297-.344 0-.906.047-1.39.438-.094.078-.547.437-.735 1.094l.5.64c.063.078.094.125.156.125.094 0 .11-.078.141-.187.203-.688.547-1.11 1.188-1.11.765 0 1.093.704 1.093 1.313 0 .64-.375 1.312-.984 1.953zm0 0"/></symbol><symbol id="e" overflow="visible"><path d="m5.047-3.422c0-1.36 0-3.719-2.313-3.719-2.312.001-2.312 2.329-2.312 3.721 0 1.374 0 3.64 2.312 3.64 2.313 0 2.313-2.25 2.313-3.64zm-2.313 2.922c-.734 0-.843-.922-.874-1.188-.078-.53-.078-1.468-.078-1.875 0-.578 0-1.218.063-1.718.031-.266.125-1.14.89-1.14.735 0 .86.843.891 1.03.063.516.063 1.297.063 1.829 0 .578 0 1.343-.063 1.89-.031.266-.14 1.172-.89 1.172zm0 0"/></symbol><symbol id="f" overflow="visible"><path d="m3.531-6.656c0-.188 0-.485-.437-.485-.188 0-.235.016-.36.141-.171.156-.546.531-1.53.547-.188 0-.454.078-.454.36 0 .359.36.359.484.359.297 0 .657-.047.938-.125v5.14h-.782c-.125 0-.47 0-.47.36 0 .359.345.359.47.359h2.843c.11 0 .485 0 .485-.36 0-.359-.375-.359-.485-.359h-.703zm0 0"/></symbol><symbol id="g" overflow="visible"><path d="m3.781-3.734c.969-.313 1.079-1.016 1.079-1.454 0-1.468-.937-1.953-2.125-1.953-1.079.001-2.125.391-2.125 1.954 0 .515.172 1.156 1.079 1.453-1.034.296-1.237 1.078-1.237 1.703 0 1.562.844 2.25 2.281 2.25 1.5 0 2.282-.75 2.282-2.25 0-.906-.438-1.469-1.235-1.703zm-1.047-.36c-.828 0-.843-.484-.843-1.093 0-.688.046-1.063.843-1.063.782 0 .86.36.86 1.063 0 .578-.016 1.093-.86 1.093zm0 3.375c-.875 0-.89-.562-.89-1.328 0-.64 0-1.328.89-1.328.891 0 .891.672.891 1.328 0 .75-.016 1.328-.89 1.328zm0 0"/></symbol><symbol id="h" overflow="visible"><path d="m3.625-3.047c-.016.094 0 .281-.031.719-.063.61-.235 1.61-1.328 1.61-.313 0-.594-.079-.875-.329-.047-.062-.079-.078-.125-.078-.079 0-.094.047-.157.125-.187.328-.328.547-.328.61 0 .078.531.609 1.5.609 2.735 0 2.735-2.875 2.735-3.766 0-1.062-.016-3.593-2.282-3.593-.609 0-1.265.11-1.78.75-.423.547-.5 1.047-.5 1.813 0 .625.03 1.203.452 1.766.406.515.86.671 1.5.671.735 0 1.078-.593 1.219-.906zm-.969.188c-.797 0-.797-.72-.797-1.704 0-.968 0-1.687.907-1.687.687 0 .843.766.843 1.813 0 .14 0 1.578-.953 1.578zm0 0"/></symbol><symbol id="i" overflow="visible"><path d="m7.297-3.406c0-2-.734-3.735-3.344-3.735-2.75.001-3.343 1.907-3.343 3.735 0 1.86.641 3.625 3.344 3.625 2.563 0 3.344-1.578 3.344-3.625zm-3.344 2.828c-1.875 0-1.875-2.078-1.875-2.985 0-.89 0-2.796 1.875-2.796s1.875 1.89 1.875 2.796c0 .876 0 2.985-1.875 2.985zm0 0"/></symbol><symbol id="j" overflow="visible"><path d="m4.563-.5c0-.11-.047-.563-.063-.703 0-.016-.031-.125-.125-.125-.031 0-.063 0-.156.11-.172.14-.64.546-1.453.546-1.047 0-1.047-1-1.047-1.64 0-.813.062-1.641 1.078-1.641.64 0 .906.156 1.265.453.125.11.141.11.188.11.094 0 .11-.094.125-.126.016-.078.125-.64.125-.687 0-.094-.078-.14-.25-.219-.469-.219-.766-.312-1.469-.312-1.484 0-2.406.703-2.406 2.437 0 1.657.844 2.407 2.36 2.407.265 0 .859-.015 1.53-.343.282-.157.298-.172.298-.266zm0 0"/></symbol><symbol id="k" overflow="visible"><path d="m2.172-3.844h.89c.126 0 .47 0 .47-.36 0-.359-.345-.359-.47-.359h-.89v-.828c0-.328-.063-.484-.485-.484h-.296c-.36 0-.485.11-.485.484v.829h-.234c-.11 0-.469 0-.469.359 0 .36.36.36.469.36h.203v2.515c0 1.016.36 1.437 1.047 1.437.094 0 .531 0 1.047-.156.172-.047.75-.234.75-.422 0-.031-.016-.094-.078-.312-.047-.203-.079-.25-.157-.25-.062 0-.062 0-.125.062-.109.078-.375.297-.796.297-.235 0-.391-.172-.391-.828zm0 0"/></symbol><symbol id="l" overflow="visible"><path d="m3.016-6.516c-.204-.406-.5-.406-.704-.406h-.921c-.36 0-.485.11-.485.484v5.954c0 .359.11.484.485.484h.265c.375 0 .485-.125.485-.484v-5.236l2.749 5.314c.203.406.5.406.703.406h.922c.375 0 .485-.125.485-.484v-5.954c0-.328-.078-.484-.484-.484h-.266c-.375 0-.484.14-.484.484v5.235zm0 0"/></symbol><symbol id="m" overflow="visible"><path d="m5.156-2.25c0-1.625-.797-2.484-2.422-2.484-1.656 0-2.421.89-2.421 2.484 0 1.625.859 2.36 2.421 2.36 1.563 0 2.422-.72 2.422-2.36zm-2.422 1.578c-1.062 0-1.062-.89-1.062-1.687 0-.766 0-1.657 1.062-1.657 1.079 0 1.079.875 1.079 1.657 0 .78 0 1.687-1.079 1.687zm0 0"/></symbol><symbol id="n" overflow="visible"><path d="m4.672-4.094c.047-.14.047-.156.047-.187 0-.282-.25-.282-.407-.282h-.202c-.421 0-.53.141-.625.422l-.985 3.016-.984-3.016c-.063-.203-.141-.421-.625-.421h-.235c-.14 0-.39 0-.39.28 0 .032 0 .048.046.188l1.188 3.672c.14.422.438.422.625.422h.719c.187 0 .5 0 .64-.422zm0 0"/></symbol><symbol id="o" overflow="visible"><path d="m1.39-6.922c-.359 0-.484.11-.484.484v5.954c0 .359.11.484.485.484h2.625c2.437 0 3.28-1.453 3.28-3.406 0-.797-.124-1.75-.687-2.469-.75-.922-1.937-1.047-2.593-1.047zm.954 6.063v-5.204h1.281c2.14 0 2.234 1.532 2.234 2.657s-.109 2.546-2.234 2.546zm0 0"/></symbol><symbol id="p" overflow="visible"><path d="m4.297-2.14c.234 0 .484 0 .484-.454 0-1.281-.61-2.14-2.093-2.14-1.594 0-2.376.89-2.376 2.406 0 1.64.938 2.437 2.516 2.437.375 0 .938-.046 1.594-.375.219-.109.297-.14.297-.265 0-.063-.032-.36-.047-.438-.031-.312-.047-.312-.14-.312-.032 0-.063 0-.173.093a2.197 2.197 0 0 1 -1.5.579c-1.125 0-1.25-.891-1.28-1.532zm-2.703-.516c.031-.61.234-1.36 1.093-1.36.797 0 .954.579.985 1.36zm0 0"/></symbol><symbol id="q" overflow="visible"><path d="m4.25-6.438c0-.328-.063-.484-.469-.484h-.484c-.375 0-.469.14-.469.484v4.891c0 .219 0 .766-.89.766a1.24 1.24 0 0 1 -1.032-.5c-.078-.094-.094-.11-.156-.11-.11 0-.125.079-.14.188-.047.312-.157.828-.157.875 0 .094.063.125.25.203a4.35 4.35 0 0 0 1.64.344c1.063 0 1.907-.531 1.907-1.703zm0 0"/></symbol><symbol id="r" overflow="visible"><path d="m4.625-3.156c0-1.563-1.516-1.578-2.016-1.578-.468 0-.968.046-1.625.312-.218.094-.265.125-.265.234 0 .079.062.657.062.735.016.047.063.11.14.11.048 0 .079-.032.11-.063a2.002 2.002 0 0 1 1.547-.672c.531 0 .688.328.688.922v.344c-.344 0-2.954.015-2.954 1.484.001.703.563 1.437 1.438 1.437.328 0 1.078-.093 1.547-.78v.187c0 .328.078.484.484.484h.36c.39 0 .484-.125.484-.484zm-1.36 1.625c0 .922-.937.922-.968.922-.422 0-.688-.36-.688-.735 0-.984 1.375-1.047 1.657-1.062zm0 0"/></symbol><symbol id="s" overflow="visible"><path d="m4.984-3.234c0-1.032-.437-1.438-1.453-1.438-1.047 0-1.5.75-1.625 1.016h-.015v-.485c0-.328-.063-.484-.47-.484h-.343c-.36 0-.484.11-.484.484v3.657c0 .359.11.484.484.484h.39c.391 0 .485-.125.485-.484v-2.204c0-.859.578-1.265 1.094-1.265.484 0 .578.219.578.734v2.735c0 .328.078.484.484.484h.391c.39 0 .484-.125.484-.484zm0 0"/></symbol><symbol id="t" overflow="visible"><path d="m2.375-2.984h2.313c.312 0 .468-.063.468-.47 0-.358-.125-.468-.468-.468h-2.314v-1.953h.422c.75 0 1.515.016 2.25.016.344 0 .578 0 .578-.47v-.077c0-.328-.078-.485-.484-.485h-3.75c-.36 0-.485.11-.485.485v5.922c0 .359.11.484.485.484h.5c.375 0 .484-.125.484-.484zm0 0"/></symbol><symbol id="u" overflow="visible"><path d="m1.938-6.438c0-.328-.079-.484-.485-.484h-.36c-.359 0-.484.11-.484.484v5.954c0 .359.11.484.485.484h.39c.172 0 .47 0 .485-.39.453.5.968.5 1.125.5 2.125 0 2.125-1.907 2.125-2.407 0-.484 0-2.375-1.875-2.375-.828 0-1.313.453-1.406.563zm.03 2.829c.126-.125.423-.344.876-.344 1.015 0 1.015.906 1.015 1.656 0 .735 0 1.688-1.125 1.688a.97.97 0 0 1 -.764-.391zm0 0"/></symbol><symbol id="v" overflow="visible"><path d="m5.531-3.266c-.203.516-.578 1.438-.656 1.782h-.016c-.078-.36-.5-1.344-.703-1.875l-1.281-3.157c-.156-.406-.484-.406-.656-.406h-.829c-.36 0-.485.11-.485.484v5.954c0 .359.11.484.485.484h.265c.375 0 .485-.125.485-.484v-5.141c.109.438.562 1.547.796 2.14l1.159 2.845c.187.422.422.422.765.422.329 0 .579 0 .75-.422l1.282-3.14c.093-.235.64-1.594.703-1.844h.015v5.14c0 .329.063.485.47.485h.28c.375 0 .47-.125.47-.484v-5.954c0-.328-.063-.484-.47-.484h-.843c-.25 0-.5.031-.672.438zm0 0"/></symbol><symbol id="w" overflow="visible"><path d="m1.938-2.297c0-.937.78-1.328 1.406-1.375.187 0 .203 0 .203-.265v-.47c0-.202 0-.265-.172-.265-.281 0-1.016.094-1.484 1.172v-.64c0-.329-.079-.485-.485-.485h-.312c-.36 0-.485.11-.485.484v3.657c0 .359.11.484.485.484h.36c.374 0 .484-.125.484-.484zm0 0"/></symbol><symbol id="x" overflow="visible"><path d="m4.719-6.484c-.14-.438-.438-.438-.625-.438h-.89c-.188 0-.485 0-.626.438l-2.11 6.014c-.046.125-.046.156-.046.203 0 .266.25.266.39.266h.36c.172 0 .484 0 .625-.406l.39-1.094h2.75l.344.953c.125.344.188.547.672.547h.531c.141 0 .391 0 .391-.266 0-.046 0-.078-.047-.203zm-1.516 2.014c.14-.453.281-.828.36-1.187.062.25.062.265.14.5l.938 2.797h-2.157zm0 0"/></symbol><symbol id="y" overflow="visible"><path d="m1.969-.39c.437.5.984.5 1.125.5 2.125 0 2.125-1.907 2.125-2.407s0-2.375-1.813-2.375c-.578 0-1.11.234-1.469.578 0-.375-.14-.468-.484-.468h-.36c-.359 0-.484.109-.484.468v5.547c0 .36.11.484.485.484h.39c.375 0 .485-.14.485-.484zm0-3.172c.11-.11.437-.329.86-.329 1.015 0 1.03 1.172 1.03 1.61 0 .39 0 1.672-1.125 1.672a.86.86 0 0 1 -.53-.172c-.235-.172-.235-.219-.235-.39zm0 0"/></symbol><symbol id="z" overflow="visible"><path d="m4.672-4.094c.047-.14.047-.156.047-.203 0-.266-.266-.266-.407-.266h-.218c-.157 0-.375 0-.532.22-.03.062-.828 2.265-.874 2.921h-.016c-.047-.484-.453-1.406-.89-2.36-.282-.64-.345-.78-.845-.78h-.265c-.14 0-.375 0-.375.25a.41.41 0 0 0 .047.171l1.875 4.141c-.078.203-.11.313-.14.422-.11.328-.282.781-.829.781a1.09 1.09 0 0 1 -.656-.219c-.064-.03-.078-.03-.11-.03-.046 0-.125.03-.125.14 0 .078.063.765.094.812.078.125.625.14.781.14 1.235 0 1.72-1.171 1.813-1.421zm0 0"/></symbol><symbol id="A" overflow="visible"><path d="m4.984-4.094c0-.312-.062-.468-.484-.468h-.39c-.376 0-.485.125-.485.468v2.375c0 .657-.344 1.219-1.047 1.219-.562 0-.625-.14-.625-.672v-2.922c0-.312-.062-.468-.484-.468h-.39c-.36 0-.485.109-.485.468v2.844c0 1.063.578 1.36 1.625 1.36.265 0 .969 0 1.437-.844v.25c0 .328.078.484.485.484h.359c.39 0 .484-.125.484-.484zm0 0"/></symbol><symbol id="B" overflow="visible"><path d="m1.938-6.438c0-.328-.079-.484-.485-.484h-.36c-.359 0-.484.11-.484.484v5.954c0 .359.11.484.485.484h.36c.374 0 .484-.125.484-.484zm0 0"/></symbol><symbol id="C" overflow="visible"><path d="m2-.922c-.36 0-.5 0-.64-.11-.048-.046-.22-.187-.22-.452 0-.079.016-.094.032-.157.469.266 1.047.266 1.266.266.406 0 2 0 2-1.64 0-.579-.22-.938-.313-1.047.172 0 .516 0 .922.109.047.031.11.047.14.047.094 0 .141-.063.141-.125a2.82 2.82 0 0 0 -.078-.39c-.031-.235-.031-.25-.219-.25-.312 0-.797.109-1.187.343-.469-.313-.985-.344-1.406-.344-.422 0-2.016 0-2.016 1.64 0 .407.11.891.5 1.235-.282.36-.282.75-.282.797 0 .188.062.516.28.797-.153.047-.67.233-.67.875 0 .312.156.828.781 1.11.563.265 1.235.265 1.703.265.579 0 2.485 0 2.485-1.406 0-1.563-1.407-1.563-2.75-1.563zm.438-1.172c-.704 0-.735-.375-.735-.922 0-.546.031-.937.734-.937.688 0 .72.375.72.922s-.032.937-.72.937zm.53 2.266c.813 0 1.235.14 1.235.5 0 .656-1.14.656-1.469.656-.39 0-1.453 0-1.453-.687 0-.47.297-.47.532-.47zm0 0"/></symbol><symbol id="D" overflow="visible"><path d="m2.688-4.39c-.22-.063-.829-.282-.829-.86 0-.844.844-.86 1.188-.86.547 0 1.047.126 1.531.61.172.14.172.156.219.156.062 0 .11-.031.14-.172l.141-.875c.031-.078.031-.093.031-.125 0-.078-.015-.093-.265-.218-.703-.36-1.297-.407-1.797-.407-.89 0-2.438.22-2.438 2.079 0 .703.375 1.171.563 1.359.5.515.969.625 1.75.797.562.14.781.187 1 .39.094.094.312.297.312.688 0 .937-.859.953-1.187.953-.844 0-1.578-.328-2.063-.781-.125-.125-.14-.125-.187-.125-.063 0-.11.031-.14.187l-.141.86c-.032.093-.032.109-.032.14 0 .203 1.047.563 1.094.578a4.648 4.648 0 0 0 1.469.236c1.483-.001 2.422-.673 2.422-2.22 0-1.11-.828-1.953-1.813-2.172zm0 0"/></symbol><symbol id="E" overflow="visible"><path d="m2.922-5.86v5.376c0 .359.11.484.484.484h.5c.375 0 .485-.125.485-.484v-5.376c.437 0 1.546.03 1.984.03.281 0 .516 0 .516-.468v-.078c0-.328-.063-.484-.47-.484h-5.545c-.36 0-.469.109-.469.484v.078c0 .469.235.469.516.469zm0 0"/></symbol><symbol id="F" overflow="visible"><path d="m4.984-3.234c0-1.032-.437-1.438-1.453-1.438-1 0-1.453.688-1.594.969h-.015v-2.735c0-.328-.063-.484-.469-.484h-.375c-.36 0-.484.11-.484.484v5.954c0 .359.11.484.484.484h.39c.391 0 .485-.125.485-.484v-2.204c0-.859.578-1.265 1.094-1.265.484 0 .578.219.578.734v2.735c0 .328.078.484.484.484h.391c.39 0 .484-.125.484-.484zm0 0"/></symbol><symbol id="G" overflow="visible"><path d="m8.031-3.234c0-1.032-.437-1.438-1.453-1.438-.703 0-1.25.328-1.61.984-.155-.953-1.015-.984-1.437-.984-.187 0-.594 0-1.047.328a2.002 2.002 0 0 0 -.578.688h-.015v-.485c0-.328-.063-.484-.47-.484h-.343c-.36 0-.484.11-.484.484v3.657c0 .359.11.484.484.484h.39c.391 0 .485-.125.485-.484v-2.204c0-.89.61-1.265 1.094-1.265s.594.203.594.734v2.735c0 .359.109.484.468.484h.407c.374 0 .484-.125.484-.484v-2.204c0-.89.61-1.265 1.094-1.265.468 0 .578.203.578.734v2.735c0 .359.11.484.484.484h.407c.375 0 .468-.125.468-.484zm0 0"/></symbol><symbol id="H" overflow="visible"><path d="m1.016-6.922c-.313 0-.485.047-.485.453v.453c0 .329.11.454.469.454h.531c.469-.001.469-.204.469-.672 0-.485 0-.688-.469-.688zm.921 2.828c0-.312-.078-.468-.484-.468h-.36c-.359 0-.484.109-.484.468v3.61c0 .359.11.484.485.484h.36c.374 0 .484-.125.484-.484zm0 0"/></symbol><symbol id="I" overflow="visible"><path d="m3.953-1.406c0-.563-.297-.907-.484-1.063-.39-.36-.75-.422-1.172-.5-.547-.11-.938-.187-.938-.562 0-.422.329-.5.72-.5.655 0 1.015.25 1.28.468.094.11.125.11.157.11.109 0 .125-.094.14-.14.016-.079.11-.641.11-.688 0-.157-.532-.297-.641-.328a3.484 3.484 0 0 0 -.969-.125c-.453 0-1.781 0-1.781 1.421 0 .485.219.797.484 1.032.344.312.735.39 1.297.5.297.047.797.14.797.578 0 .469-.375.531-.765.531-.438 0-1-.125-1.47-.687-.046-.047-.077-.079-.14-.079-.094 0-.125.094-.125.157-.031.14-.14.703-.14.797 0 .187.734.421.75.421a3.57 3.57 0 0 0 1.125.172c.5 0 1.765-.046 1.765-1.515zm0 0"/></symbol><symbol id="J" overflow="visible"><path d="m3.688-5.531h-.672v2.328a2.258 2.258 0 0 0 -1.25-.422c-.844 0-1.485.844-1.485 1.86 0 1.015.64 1.842 1.453 1.842.5 0 .954-.219 1.266-.5v.423h.688zm-.688 4.547c-.203.328-.5.53-.89.53-.563 0-1.126-.39-1.126-1.312 0-.984.672-1.328 1.22-1.328.312 0 .577.14.796.406zm0 0"/></symbol><symbol id="K" overflow="visible"><path d="m3.39-2.297c0-.812-.624-1.36-1.406-1.36-.5 0-.89.11-1.328.345l.047.578c.266-.172.656-.407 1.281-.407.344 0 .72.25.72.86v.312c-1.189.047-2.346.282-2.346 1.032 0 .39.266 1.015.97 1.015.343 0 .968-.062 1.39-.375v.297h.672zm-.687 1.172c0 .156 0 .36-.281.531-.25.14-.563.14-.656.14-.438.001-.766-.186-.766-.499 0-.5 1.344-.546 1.703-.562zm0 0"/></symbol><symbol id="L" overflow="visible"><path d="m1.5-3.031h1.172v-.5h-1.172v-1.016h-.61v1.016h-.733v.5h.703v2.015c0 .532.14 1.094.703 1.094.578 0 1.015-.187 1.265-.297l-.14-.5a1.34 1.34 0 0 1 -.766.25c-.344 0-.422-.328-.422-.687zm0 0"/></symbol><symbol id="M" overflow="visible"><path d="m3.469-.875a2.337 2.337 0 0 1 -1.328.406c-.735 0-1.157-.594-1.157-1.311 0-.61.313-1.328 1.188-1.328.531 0 .797.109 1.203.375l.094-.579c-.469-.234-.689-.343-1.297-.343-1.203 0-1.89.969-1.89 1.89a1.84 1.84 0 0 0 1.858 1.843 2.92 2.92 0 0 0 1.375-.36zm0 0"/></symbol><symbol id="N" overflow="visible"><path d="m3.688-3.625h-.672v.547a1.55 1.55 0 0 0 -1.172-.547c-.844 0-1.564.797-1.564 1.86 0 1 .61 1.843 1.406 1.843.268 0 .814-.062 1.314-.468v1.938h.688zm-.672 2.64c-.282.454-.672.532-.891.532-.656 0-1.14-.594-1.14-1.313 0-.78.593-1.296 1.218-1.296.516 0 .813.515.813.843zm0 0"/></symbol><symbol id="O" overflow="visible"><path d="m3.703-3.531h-.687v2.297c0 .64-.547.843-1 .843-.594 0-.657-.156-.657-.53v-2.61h-.703v2.656c0 .719.313.953.875.953.328 0 1.032-.062 1.5-.437v.359h.672zm0 0"/></symbol><symbol id="P" overflow="visible"><path d="m1.406-5.469h-.812v.813h.812zm-.062 1.939h-.672v3.53h.672zm0 0"/></symbol><symbol id="Q" overflow="visible"><path d="m2.906-3.406a2.863 2.863 0 0 0 -1.219-.25c-.203 0-1.406 0-1.406 1.062 0 .375.203.578.313.672.281.281.61.344 1.031.422.375.078.813.156.813.531 0 .5-.672.5-.782.5a2.3 2.3 0 0 1 -1.312-.406l-.11.61c.282.124.766.343 1.422.343.36 0 .703-.047 1-.266.297-.234.39-.578.39-.843 0-.14-.015-.453-.343-.766-.297-.266-.578-.312-.969-.39-.468-.079-.828-.157-.828-.5 0-.454.578-.454.703-.454.454 0 .797.094 1.204.297zm0 0"/></symbol><symbol id="R" overflow="visible"><path d="m3.984-1.75c0-1.047-.843-1.906-1.875-1.906-1.03 0-1.875.875-1.875 1.906 0 1.016.844 1.828 1.876 1.828s1.875-.812 1.875-1.828zm-1.874 1.281c-.625 0-1.171-.469-1.171-1.36 0-.905.578-1.296 1.171-1.296.594 0 1.188.406 1.188 1.297 0 .906-.578 1.36-1.188 1.36zm0 0"/></symbol><symbol id="S" overflow="visible"><path d="m3.703-2.36c0-.624-.187-1.265-1.156-1.265-.453 0-.89.188-1.25.61v-.579h-.64v3.594h.702v-1.938c0-.53.22-1.156.829-1.156.828 0 .828.563.828.797v2.297h.687zm0 0"/></symbol><symbol id="T" overflow="visible"><path d="m.781-5.531v5.531h2.266c1.437 0 2.593-1.219 2.593-2.719 0-1.562-1.172-2.812-2.594-2.812zm.781 5.061v-4.593h1.266c1.094 0 2.031.875 2.031 2.343 0 1.469-.984 2.25-2.03 2.25zm0 0"/></symbol><symbol id="U" overflow="visible"><path d="m1.344-1.703c0-.86.718-1.313 1.422-1.328v-.594a1.83 1.83 0 0 0 -1.47.766v-.735h-.623v3.594h.672zm0 0"/></symbol><symbol id="V" overflow="visible"><path d="m1.375-.375c.422.39.875.453 1.14.453.844 0 1.563-.797 1.563-1.86 0-.952-.531-1.843-1.312-1.843-.36 0-.954.11-1.422.469v-.375h-.672v5.078h.703zm0-2.266a1.08 1.08 0 0 1 .875-.421c.64 0 1.14.578 1.14 1.28 0 .798-.609 1.329-1.218 1.329a.836.836 0 0 1 -.531-.172c-.235-.188-.266-.313-.266-.453zm0 0"/></symbol><symbol id="W" overflow="visible"><path d="m1.875-5.531h-1.078v5.531h.672v-4.906l2.625 4.906h1.078v-5.531h-.672v4.906zm0 0"/></symbol><symbol id="X" overflow="visible"><path d="m5.203-5.531h-.812v2.39h-2.813v-2.39h-.812v5.531h.812v-2.61h2.813v2.61h.812zm0 0"/></symbol><symbol id="Y" overflow="visible"><path d="m3.781-3.531h-.656c-.64 1.515-1.078 2.547-1.11 3.031-.03-.219-.171-.625-.312-1-.125-.313-.25-.64-.39-.953l-.5-1.078h-.688l1.64 3.531c-.093.234-.25.594-.296.703-.172.328-.282.438-.5.438-.031 0-.328 0-.672-.141l.047.563c.078.015.375.062.625.062.312 0 .594-.125.937-.89zm0 0"/></symbol><symbol id="Z" overflow="visible"><path d="m3.422-.875a2.178 2.178 0 0 1 -1.281.422c-.704 0-1.221-.563-1.251-1.297h2.61c0-.36-.031-.89-.344-1.344-.281-.406-.765-.562-1.156-.562-.969 0-1.719.844-1.719 1.86 0 1.03.797 1.874 1.844 1.874.469 0 .938-.14 1.344-.375zm-2.469-1.344c.172-.64.656-.906 1.047-.906.344 0 .875.156 1.016.906zm0 0"/></symbol><symbol id="aa" overflow="visible"><path d="m5.781-2.734c0-1.657-1.218-2.97-2.656-2.97s-2.656 1.313-2.656 2.97c0 1.64 1.234 2.906 2.656 2.906 1.438 0 2.656-1.266 2.656-2.906zm-2.656 2.343c-.969 0-1.844-.968-1.844-2.484 0-1.406.89-2.266 1.844-2.266.953 0 1.844.86 1.844 2.266 0 1.516-.875 2.484-1.844 2.484zm0 0"/></symbol><symbol id="ab" overflow="visible"><path d="m6.063-2.36c0-.624-.188-1.265-1.172-1.265-.672 0-1.079.39-1.266.656-.094-.219-.281-.656-1.078-.656-.453 0-.89.188-1.25.61v-.579h-.64v3.594h.702v-1.938c0-.53.22-1.156.829-1.156.828 0 .828.563.828.797v2.297h.687v-1.938c0-.53.219-1.156.844-1.156.812 0 .812.563.812.797v2.297h.704zm0 0"/></symbol><symbol id="ac" overflow="visible"><path d="m3.375-3.203v-.328h-3.031v.5h2.093l-2.202 2.687v.344h3.172v-.531h-2.22zm0 0"/></symbol><symbol id="ad" overflow="visible"><path d="m5.078-2.375h-1.781v.516h1.078v1.218a3.948 3.948 0 0 1 -1.047.157c-1.234 0-1.984-1.157-1.984-2.282 0-1.093.734-2.296 1.937-2.296.735 0 1.203.218 1.594.546l.125-.718c-.547-.266-1.031-.391-1.64-.391-1.61 0-2.813 1.266-2.813 2.86 0 1.545 1.203 2.842 2.765 2.842.579 0 1.25-.125 1.766-.39zm0 0"/></symbol><symbol id="ae" overflow="visible"><path d="m2.984-2.266c1.032 0 1.954-.734 1.954-1.64 0-.86-.844-1.625-2-1.625h-2.158v5.531h.797v-2.266zm-.25-2.796c.907 0 1.47.484 1.47 1.156 0 .64-.532 1.14-1.47 1.14h-1.171v-2.296zm0 0"/></symbol><symbol id="af" overflow="visible"><path d="m3.578-2.578c1.14-.344 1.422-1.032 1.422-1.469 0-.828-.969-1.484-2.125-1.484h-2.094v5.531h.781v-2.5h1.313l1.563 2.5h.796zm-2.015-.453v-2.031h1.203c.921 0 1.515.437 1.515 1.015 0 .563-.547 1.016-1.515 1.016zm0 0"/></symbol><symbol id="ag" overflow="visible"><path d="m4.438-2.766c-.094.235-.672 1.641-.75 1.985-.063-.235-.422-1.156-.516-1.36l-1.36-3.39h-.967v5.531h.655v-4.89h.016c.062.28.468 1.327.515 1.421l1.329 3.297h.64l1.172-2.922c0-.015.562-1.375.687-1.812h.016v4.906h.672v-5.531h-.984zm0 0"/></symbol><symbol id="ah" overflow="visible"><path d="m4.938-.969c-.563.344-.813.485-1.61.485-1.234 0-1.984-1.157-1.984-2.297 0-1.172.812-2.281 1.984-2.281.516 0 1.063.156 1.422.437l.14-.719a4.344 4.344 0 0 0 -1.593-.281c-1.578 0-2.75 1.313-2.75 2.86 0 1.64 1.25 2.843 2.797 2.843.781 0 1.11-.156 1.64-.437zm0 0"/></symbol><symbol id="ai" overflow="visible"><path d="m3.938-5.313c-.516-.25-.97-.39-1.563-.39-1.203 0-1.906.812-1.906 1.578 0 .328.11.719.5 1.078.344.328.719.406 1.203.531.672.157.86.204 1.094.438.14.156.265.375.265.64 0 .5-.437 1-1.219 1a2.844 2.844 0 0 1 -1.812-.656l-.125.719c.39.219 1.063.547 1.953.547 1.11 0 1.89-.813 1.89-1.703 0-.64-.374-1.016-.53-1.172-.329-.328-.704-.422-1.313-.563-.484-.109-.734-.171-.938-.359-.093-.11-.28-.281-.28-.594 0-.437.452-.906 1.218-.906.61 0 1.031.188 1.438.531zm0 0"/></symbol><symbol id="aj" overflow="visible"><path d="m5.516-5.531h-.688l-1.016 2.453c-.046.125-.843 2.047-.906 2.453h-.015c-.079-.406-.875-2.344-.907-2.422l-1.014-2.483h-.845l2.297 5.53h.797zm0 0"/></symbol><symbol id="ak" overflow="visible"><path d="m1.578-5.531h-.812v5.531h3.484v-.563c-.766 0-1.516.016-2.281.016h-.39zm0 0"/></symbol><symbol id="al" overflow="visible"><path d="m1.344-5.531h-.672v5.531h.703v-.375a1.66 1.66 0 0 0 1.14.453c.86 0 1.563-.812 1.563-1.86 0-.952-.547-1.843-1.344-1.843-.5 0-.984.172-1.39.469zm.031 3.015c0-.125 0-.218.281-.406a1.22 1.22 0 0 1 .594-.172c.531 0 1.14.36 1.14 1.313 0 .968-.671 1.328-1.218 1.328-.297 0-.578-.125-.797-.484zm0 0"/></symbol><symbol id="am" overflow="visible"><path d="m4.016-3.625c-.188 0-.72.016-1.329.25h-.015a1.43 1.43 0 0 0 -.797-.25c-.781 0-1.36.625-1.36 1.313 0 .265.094.562.282.78-.11.141-.235.36-.235.657 0 .313.125.516.204.61-.438.25-.532.624-.532.812 0 .61.844 1.094 1.875 1.094 1.047 0 1.875-.485 1.875-1.094 0-1.125-1.39-1.125-1.734-1.125h-.75c-.125 0-.469 0-.469-.406 0-.157.063-.25.063-.266.281.188.562.234.781.234.781 0 1.36-.609 1.36-1.296 0-.25-.079-.485-.22-.704-.03-.046-.03-.046-.03-.062 0-.031.484-.031.515-.031.016 0 .313 0 .61.03zm-2.141 2.125c-.422 0-.75-.281-.75-.813 0-.624.406-.812.75-.812.422 0 .75.266.75.813 0 .609-.406.812-.75.812zm.375 1.547c.188 0 1.125 0 1.125.515 0 .344-.594.579-1.266.579-.671-.001-1.265-.235-1.265-.579 0-.046 0-.515.64-.515zm0 0"/></symbol><symbol id="an" overflow="visible"><path d="m4.125-2.5v-.516h-2.547v-1.937h2.906v-.547h-3.718v5.5h.812v-2.5zm0 0"/></symbol><symbol id="ao" overflow="visible"><path d="m3.297-4.922h2.171v-.547h-5.17v.547h2.187v4.922h.813zm0 0"/></symbol><symbol id="ap" overflow="visible"><path d="m3.781-3.531h-.64c-1.094 2.656-1.141 2.875-1.172 3.061h-.016c-.062-.312-.281-.875-.531-1.484l-.64-1.578h-.658l1.454 3.532h.734zm0 0"/></symbol><symbol id="aq" overflow="visible"><path d="m5.656-3.531h-.625c-.062.219-.515 1.562-.765 2.39-.063.235-.141.485-.157.672h-.015c-.047-.328-.328-1.187-.344-1.25l-.594-1.811h-.594c-.234.672-.828 2.469-.89 3.047h-.016c-.062-.564-.656-2.33-.781-2.721-.063-.186-.063-.201-.11-.326h-.64l1.156 3.53h.672c0-.031.219-.656.5-1.547.125-.39.36-1.156.406-1.5v-.015c.016.171.063.343.125.546.047.204.11.407.157.594l.625 1.922h.734zm0 0"/></symbol><symbol id="ar" overflow="visible"><path d="m1.531-3.531h-.718v.703h.718zm-.718 2.811v.72h.718v-.719zm0 0"/></symbol><symbol id="as" overflow="visible"><path d="m1.344-5.531h-.672v5.531h.672zm0 0"/></symbol><clipPath id="at"><path d="m0 0h340.555v205h-340.555zm0 0"/></clipPath><clipPath id="au"><path d="m0 0h340.555v206h-340.555zm0 0"/></clipPath><clipPath id="av"><path d="m0 34h340.555v2h-340.555zm0 0"/></clipPath><clipPath id="aw"><path d="m0 48h340.555v2h-340.555zm0 0"/></clipPath><clipPath id="ax"><path d="m0 62h340.555v2h-340.555zm0 0"/></clipPath><clipPath id="ay"><path d="m0 77h340.555v1h-340.555zm0 0"/></clipPath><clipPath id="az"><path d="m0 91h340.555v1h-340.555zm0 0"/></clipPath><clipPath id="aA"><path d="m0 105h340.555v1h-340.555zm0 0"/></clipPath><clipPath id="aB"><path d="m0 119h340.555v2h-340.555zm0 0"/></clipPath><clipPath id="aC"><path d="m0 133h340.555v2h-340.555zm0 0"/></clipPath><clipPath id="aD"><path d="m0 148h340.555v1h-340.555zm0 0"/></clipPath><clipPath id="aE"><path d="m0 162h340.555v1h-340.555zm0 0"/></clipPath><clipPath id="aF"><path d="m0 176h340.555v1h-340.555zm0 0"/></clipPath><clipPath id="aG"><path d="m0 190h340.555v1h-340.555zm0 0"/></clipPath><clipPath id="aH"><path d="m85 0h255.555v18h-255.555zm0 0"/></clipPath><clipPath id="aI"><path d="m312 17h28.555v18h-28.555zm0 0"/></clipPath><clipPath id="aJ"><path d="m311 17h29.555v19h-29.555zm0 0"/></clipPath><clipPath id="aK"><path d="m0 36h340.555v13h-340.555zm0 0"/></clipPath><clipPath id="aL"><path d="m255 177h85.555v13h-85.555zm0 0"/></clipPath><g clip-path="url(#at)"><path d="m.2 204.89h340.16v-204.096h-340.16zm0 0" fill="#fff"/></g><g clip-path="url(#au)"><path d="m0-204.097h340.16v204.098h-340.16zm0 0" fill="none" stroke="#000" stroke-miterlimit="10" stroke-width=".3985" transform="matrix(1 0 0 -1 .199 .794)"/></g><path d="m28.348-34.015v-170.082m28.348 170.082v-170.082m28.344 170.082v-170.082m28.347 170.082v-170.082m28.348 170.082v-170.082m28.347 170.082v-170.082m28.348 170.082v-170.082m28.344 170.082v-170.082m28.347 170.082v-170.082m28.348 170.082v-170.082m28.348 170.082v-170.082" fill="none" stroke="#000" stroke-dasharray=".3985 1.99255" stroke-miterlimit="10" stroke-width=".3985" transform="matrix(1 0 0 -1 .199 .794)"/><g clip-path="url(#av)"><path d="m0-34.015h340.16" fill="none" stroke="#000" stroke-dasharray=".3985 1.99255" stroke-miterlimit="10" stroke-width=".3985" transform="matrix(1 0 0 -1 .199 .794)"/></g><g clip-path="url(#aw)"><path d="m0-48.19h340.16" fill="none" stroke="#000" stroke-dasharray=".3985 1.99255" stroke-miterlimit="10" stroke-width=".3985" transform="matrix(1 0 0 -1 .199 .794)"/></g><g clip-path="url(#ax)"><path d="m0-62.362h340.16" fill="none" stroke="#000" stroke-dasharray=".3985 1.99255" stroke-miterlimit="10" stroke-width=".3985" transform="matrix(1 0 0 -1 .199 .794)"/></g><g clip-path="url(#ay)"><path d="m0-76.538h340.16" fill="none" stroke="#000" stroke-dasharray=".3985 1.99255" stroke-miterlimit="10" stroke-width=".3985" transform="matrix(1 0 0 -1 .199 .794)"/></g><g clip-path="url(#az)"><path d="m0-90.71h340.16" fill="none" stroke="#000" stroke-dasharray=".3985 1.99255" stroke-miterlimit="10" stroke-width=".3985" transform="matrix(1 0 0 -1 .199 .794)"/></g><g clip-path="url(#aA)"><path d="m0-104.882h340.16" fill="none" stroke="#000" stroke-dasharray=".3985 1.99255" stroke-miterlimit="10" stroke-width=".3985" transform="matrix(1 0 0 -1 .199 .794)"/></g><g clip-path="url(#aB)"><path d="m0-119.058h340.16" fill="none" stroke="#000" stroke-dasharray=".3985 1.99255" stroke-miterlimit="10" stroke-width=".3985" transform="matrix(1 0 0 -1 .199 .794)"/></g><g clip-path="url(#aC)"><path d="m0-133.23h340.16" fill="none" stroke="#000" stroke-dasharray=".3985 1.99255" stroke-miterlimit="10" stroke-width=".3985" transform="matrix(1 0 0 -1 .199 .794)"/></g><g clip-path="url(#aD)"><path d="m0-147.405h340.16" fill="none" stroke="#000" stroke-dasharray=".3985 1.99255" stroke-miterlimit="10" stroke-width=".3985" transform="matrix(1 0 0 -1 .199 .794)"/></g><g clip-path="url(#aE)"><path d="m0-161.577h340.16" fill="none" stroke="#000" stroke-dasharray=".3985 1.99255" stroke-miterlimit="10" stroke-width=".3985" transform="matrix(1 0 0 -1 .199 .794)"/></g><g clip-path="url(#aF)"><path d="m0-175.749h340.16" fill="none" stroke="#000" stroke-dasharray=".3985 1.99255" stroke-miterlimit="10" stroke-width=".3985" transform="matrix(1 0 0 -1 .199 .794)"/></g><g clip-path="url(#aG)"><path d="m0-189.925h340.16" fill="none" stroke="#000" stroke-dasharray=".3985 1.99255" stroke-miterlimit="10" stroke-width=".3985" transform="matrix(1 0 0 -1 .199 .794)"/></g><path d="m56.696-34.015v-170.082" fill="none" stroke="#000" stroke-dasharray="2.98883 2.98883" stroke-miterlimit="10" stroke-width=".99628" transform="matrix(1 0 0 -1 .199 .794)"/><g><use x="48.175" xlink:href="#a" y="212.996"/><use x="53.71" xlink:href="#b" y="212.996"/></g><use x="58.413" xlink:href="#c" y="212.996"/><path d="m0-17.007h85.04v17.008h-85.04zm0 0" fill="#fff" stroke="#000" stroke-miterlimit="10" stroke-width=".3985" transform="matrix(1 0 0 -1 .199 .794)"/><g><use x="31.76" xlink:href="#d" y="11.689"/><use x="37.239" xlink:href="#e" y="11.689"/><use x="42.719" xlink:href="#f" y="11.689"/><use x="48.198" xlink:href="#g" y="11.689"/></g><g clip-path="url(#aH)"><path d="m85.04-17.007h255.12v17.008h-255.12zm0 0" fill="#fff" stroke="#000" stroke-miterlimit="10" stroke-width=".3985" transform="matrix(1 0 0 -1 .199 .794)"/></g><g><use x="201.839" xlink:href="#d" y="11.689"/><use x="207.318" xlink:href="#e" y="11.689"/><use x="212.798" xlink:href="#f" y="11.689"/><use x="218.277" xlink:href="#h" y="11.689"/></g><path d="m0-34.015h28.348v17.008h-28.348zm0 0" fill="#fff" stroke="#000" stroke-miterlimit="10" stroke-width=".3985" transform="matrix(1 0 0 -1 .199 .794)"/><g><use x="5.966" xlink:href="#i" y="28.697"/><use x="13.881" xlink:href="#j" y="28.697"/><use x="18.752" xlink:href="#k" y="28.697"/></g><path d="m28.348-34.015h28.348v17.008h-28.348zm0 0" fill="#fff" stroke="#000" stroke-miterlimit="10" stroke-width=".3985" transform="matrix(1 0 0 -1 .199 .794)"/><g><use x="33.531" xlink:href="#l" y="28.697"/><use x="41.446" xlink:href="#m" y="28.697"/><use x="46.926" xlink:href="#n" y="28.697"/></g><path d="m56.696-34.015h28.343v17.008h-28.343zm0 0" fill="#fff" stroke="#000" stroke-miterlimit="10" stroke-width=".3985" transform="matrix(1 0 0 -1 .199 .794)"/><g><use x="62.127" xlink:href="#o" y="28.697"/><use x="70.042" xlink:href="#p" y="28.697"/><use x="75.134" xlink:href="#j" y="28.697"/></g><path d="m85.04-34.015h28.347v17.008h-28.348zm0 0" fill="#fff" stroke="#000" stroke-miterlimit="10" stroke-width=".3985" transform="matrix(1 0 0 -1 .199 .794)"/><g><use x="91.414" xlink:href="#q" y="28.697"/><use x="96.589" xlink:href="#r" y="28.697"/><use x="101.819" xlink:href="#s" y="28.697"/></g><path d="m113.387-34.015h28.348v17.008h-28.348zm0 0" fill="#fff" stroke="#000" stroke-miterlimit="10" stroke-width=".3985" transform="matrix(1 0 0 -1 .199 .794)"/><use x="119.525" xlink:href="#t" y="28.697"/><g><use x="125.304" xlink:href="#p" y="28.697"/><use x="130.396" xlink:href="#u" y="28.697"/></g><path d="m141.735-34.015h28.347v17.008h-28.347zm0 0" fill="#fff" stroke="#000" stroke-miterlimit="10" stroke-width=".3985" transform="matrix(1 0 0 -1 .199 .794)"/><g><use x="146.917" xlink:href="#v" y="28.697"/><use x="156.658" xlink:href="#r" y="28.697"/></g><use x="161.58" xlink:href="#w" y="28.697"/><path d="m170.082-34.015h28.344v17.008h-28.344zm0 0" fill="#fff" stroke="#000" stroke-miterlimit="10" stroke-width=".3985" transform="matrix(1 0 0 -1 .199 .794)"/><g><use x="176.301" xlink:href="#x" y="28.697"/><use x="183.607" xlink:href="#y" y="28.697"/></g><use x="188.888" xlink:href="#w" y="28.697"/><path d="m198.43-34.015h28.344v17.008h-28.344zm0 0" fill="#fff" stroke="#000" stroke-miterlimit="10" stroke-width=".3985" transform="matrix(1 0 0 -1 .199 .794)"/><g><use x="202.973" xlink:href="#v" y="28.697"/><use x="212.714" xlink:href="#r" y="28.697"/></g><use x="217.636" xlink:href="#z" y="28.697"/><path d="m226.774-34.015h28.347v17.008h-28.347zm0 0" fill="#fff" stroke="#000" stroke-miterlimit="10" stroke-width=".3985" transform="matrix(1 0 0 -1 .199 .794)"/><g><use x="232.966" xlink:href="#q" y="28.697"/><use x="238.141" xlink:href="#A" y="28.697"/><use x="243.731" xlink:href="#s" y="28.697"/></g><path d="m255.121-34.015h28.348v17.008h-28.348zm0 0" fill="#fff" stroke="#000" stroke-miterlimit="10" stroke-width=".3985" transform="matrix(1 0 0 -1 .199 .794)"/><g><use x="262.835" xlink:href="#q" y="28.697"/><use x="268.01" xlink:href="#A" y="28.697"/><use x="273.6" xlink:href="#B" y="28.697"/></g><path d="m283.469-34.015h28.348v17.008h-28.348zm0 0" fill="#fff" stroke="#000" stroke-miterlimit="10" stroke-width=".3985" transform="matrix(1 0 0 -1 .199 .794)"/><g><use x="288.649" xlink:href="#x" y="28.697"/><use x="295.955" xlink:href="#A" y="28.697"/><use x="301.545" xlink:href="#C" y="28.697"/></g><g clip-path="url(#aI)"><path d="m312.016 34.809h28.343v-17.009h-28.343zm0 0" fill="#fff"/></g><g clip-path="url(#aJ)"><path d="m311.817-34.015h28.343v17.008h-28.343zm0 0" fill="none" stroke="#000" stroke-miterlimit="10" stroke-width=".3985" transform="matrix(1 0 0 -1 .199 .794)"/></g><g><use x="317.798" xlink:href="#D" y="28.697"/><use x="323.886" xlink:href="#p" y="28.697"/><use x="328.978" xlink:href="#y" y="28.697"/></g><g clip-path="url(#aK)"><path d="m-2.637 36.227h345.832v11.34l-5.668 1.417-5.672-1.418h-323.152l-5.668 1.418-5.672-1.418zm0 0" fill="#000080"/></g><g fill="#fff"><use x="133.744" xlink:href="#E" y="44.288"/><use x="141.05" xlink:href="#F" y="44.288"/><use x="146.64" xlink:href="#p" y="44.288"/><use x="151.731" xlink:href="#w" y="44.288"/><use x="155.44" xlink:href="#G" y="44.288"/><use x="164.074" xlink:href="#m" y="44.288"/></g><g fill="#fff"><use x="169.862" xlink:href="#p" y="44.288"/><use x="174.954" xlink:href="#B" y="44.288"/><use x="177.501" xlink:href="#p" y="44.288"/><use x="182.593" xlink:href="#j" y="44.288"/><use x="187.463" xlink:href="#k" y="44.288"/><use x="191.49" xlink:href="#w" y="44.288"/><use x="195.198" xlink:href="#H" y="44.288"/><use x="197.745" xlink:href="#j" y="44.288"/><use x="202.615" xlink:href="#I" y="44.288"/></g><path d="m.2 61.738h113.386v-11.336h-113.387zm0 0" fill="#008000"/><g fill="#fff"><use x="28.923" xlink:href="#J" y="57.963"/><use x="33.295" xlink:href="#K" y="57.963"/><use x="37.363" xlink:href="#L" y="57.963"/><use x="40.421" xlink:href="#K" y="57.963"/></g><g fill="#fff"><use x="47.311" xlink:href="#K" y="57.963"/><use x="51.379" xlink:href="#M" y="57.963"/><use x="55.142" xlink:href="#N" y="57.963"/><use x="59.515" xlink:href="#O" y="57.963"/><use x="63.887" xlink:href="#P" y="57.963"/><use x="65.907" xlink:href="#Q" y="57.963"/><use x="69.154" xlink:href="#P" y="57.963"/><use x="71.174" xlink:href="#L" y="57.963"/><use x="74.232" xlink:href="#P" y="57.963"/><use x="76.253" xlink:href="#R" y="57.963"/><use x="80.487" xlink:href="#S" y="57.963"/></g><path d="m.2 75.914h56.695v-11.34h-56.696zm0 0" fill="#008000"/><g fill="#fff"><use x="6.399" xlink:href="#T" y="72.136"/><use x="12.515" xlink:href="#U" y="72.136"/><use x="15.408" xlink:href="#R" y="72.136"/><use x="19.642" xlink:href="#V" y="72.136"/></g><g fill="#fff"><use x="24.246" xlink:href="#R" y="72.136"/><use x="28.48" xlink:href="#O" y="72.136"/><use x="32.853" xlink:href="#L" y="72.136"/></g><g fill="#fff"><use x="38.74" xlink:href="#W" y="72.136"/><use x="44.718" xlink:href="#W" y="72.136"/></g><path d="m56.895 90.086h141.73v-11.336h-141.73zm0 0" fill="#008000"/><g fill="#fff"><use x="92.833" xlink:href="#X" y="86.309"/><use x="98.811" xlink:href="#Y" y="86.309"/><use x="102.713" xlink:href="#V" y="86.309"/></g><g fill="#fff"><use x="107.324" xlink:href="#Z" y="86.309"/><use x="111.088" xlink:href="#U" y="86.309"/></g><g fill="#fff"><use x="116.801" xlink:href="#aa" y="86.309"/><use x="123.056" xlink:href="#V" y="86.309"/><use x="127.428" xlink:href="#L" y="86.309"/><use x="130.486" xlink:href="#P" y="86.309"/><use x="132.507" xlink:href="#ab" y="86.309"/><use x="139.232" xlink:href="#P" y="86.309"/><use x="141.252" xlink:href="#ac" y="86.309"/><use x="144.933" xlink:href="#K" y="86.309"/><use x="149.001" xlink:href="#L" y="86.309"/><use x="152.059" xlink:href="#P" y="86.309"/><use x="154.079" xlink:href="#R" y="86.309"/><use x="158.314" xlink:href="#S" y="86.309"/></g><path d="m56.895 104.262h56.69v-11.34h-56.69zm0 0" fill="#008000"/><g fill="#fff"><use x="76.971" xlink:href="#ad" y="100.483"/><use x="82.616" xlink:href="#ae" y="100.483"/><use x="88.026" xlink:href="#af" y="100.483"/></g><path d="m85.238 118.434h85.043v-11.34h-85.043zm0 0" fill="#008000"/><g fill="#fff"><use x="118.37" xlink:href="#X" y="114.656"/><use x="124.348" xlink:href="#ag" y="114.656"/><use x="131.737" xlink:href="#ah" y="114.656"/></g><path d="m141.934 132.605h56.691v-11.335h-56.691zm0 0" fill="#008000"/><g fill="#fff"><use x="159.339" xlink:href="#ai" y="128.829"/><use x="164.044" xlink:href="#aj" y="128.829"/></g><g fill="#fff"><use x="169.458" xlink:href="#ad" y="128.829"/><use x="175.103" xlink:href="#T" y="128.829"/></g><path d="m141.934 146.781h85.039v-11.34h-85.04zm0 0" fill="#008000"/><g fill="#fff"><use x="157.434" xlink:href="#ak" y="143.002"/><use x="162.042" xlink:href="#Z" y="143.002"/><use x="165.805" xlink:href="#K" y="143.002"/><use x="169.873" xlink:href="#J" y="143.002"/><use x="174.245" xlink:href="#Z" y="143.002"/><use x="178.009" xlink:href="#U" y="143.002"/><use x="180.901" xlink:href="#al" y="143.002"/></g><g fill="#fff"><use x="185.513" xlink:href="#R" y="143.002"/><use x="189.747" xlink:href="#K" y="143.002"/></g><g fill="#fff"><use x="193.576" xlink:href="#U" y="143.002"/><use x="196.468" xlink:href="#J" y="143.002"/><use x="200.841" xlink:href="#P" y="143.002"/><use x="202.861" xlink:href="#S" y="143.002"/><use x="207.234" xlink:href="#am" y="143.002"/></g><path d="m170.281 160.953h113.387v-11.34h-113.387zm0 0" fill="#008000"/><g fill="#fff"><use x="218.599" xlink:href="#T" y="157.175"/><use x="224.715" xlink:href="#an" y="157.175"/><use x="229.558" xlink:href="#ao" y="157.175"/></g><path d="m198.629 175.129h113.387v-11.34h-113.387zm0 0" fill="#008000"/><g fill="#fff"><use x="237.619" xlink:href="#K" y="171.349"/><use x="241.687" xlink:href="#M" y="171.349"/><use x="245.45" xlink:href="#L" y="171.349"/><use x="248.509" xlink:href="#P" y="171.349"/><use x="250.529" xlink:href="#ap" y="171.349"/><use x="254.431" xlink:href="#Z" y="171.349"/></g><g fill="#fff"><use x="261.016" xlink:href="#ag" y="171.349"/><use x="268.405" xlink:href="#ak" y="171.349"/></g><g clip-path="url(#aL)"><path d="m255.32 189.3h85.04v-11.34h-85.04zm0 0" fill="#008000"/></g><g fill="#fff"><use x="279.862" xlink:href="#aq" y="185.522"/><use x="285.646" xlink:href="#U" y="185.522"/><use x="288.538" xlink:href="#P" y="185.522"/><use x="290.559" xlink:href="#L" y="185.522"/><use x="293.617" xlink:href="#P" y="185.522"/><use x="295.637" xlink:href="#S" y="185.522"/><use x="300.01" xlink:href="#am" y="185.522"/></g><g fill="#fff"><use x="307.066" xlink:href="#O" y="185.522"/><use x="311.438" xlink:href="#V" y="185.522"/></g><path d="m5.18 201.45h156.355v-31.106h-156.355zm0 0" fill="#666"/><g fill="#fff"><g><use x="8.501" xlink:href="#ad" y="179.196"/><use x="14.146" xlink:href="#ae" y="179.196"/><use x="19.556" xlink:href="#af" y="179.196"/><use x="25.036" xlink:href="#ar" y="179.196"/></g><g><use x="30.209" xlink:href="#ad" y="179.196"/><use x="35.854" xlink:href="#K" y="179.196"/><use x="39.922" xlink:href="#O" y="179.196"/><use x="44.295" xlink:href="#Q" y="179.196"/><use x="47.541" xlink:href="#Q" y="179.196"/><use x="50.787" xlink:href="#P" y="179.196"/><use x="52.808" xlink:href="#K" y="179.196"/><use x="56.876" xlink:href="#S" y="179.196"/></g><g><use x="64.077" xlink:href="#ae" y="179.196"/><use x="69.487" xlink:href="#U" y="179.196"/><use x="72.38" xlink:href="#R" y="179.196"/></g><g><use x="76.845" xlink:href="#M" y="179.196"/><use x="80.609" xlink:href="#Z" y="179.196"/><use x="84.372" xlink:href="#Q" y="179.196"/><use x="87.619" xlink:href="#Q" y="179.196"/></g><g><use x="93.686" xlink:href="#af" y="179.196"/><use x="99.166" xlink:href="#Z" y="179.196"/><use x="102.929" xlink:href="#am" y="179.196"/><use x="107.164" xlink:href="#U" y="179.196"/><use x="110.056" xlink:href="#Z" y="179.196"/><use x="113.819" xlink:href="#Q" y="179.196"/><use x="117.066" xlink:href="#Q" y="179.196"/><use x="120.312" xlink:href="#P" y="179.196"/><use x="122.332" xlink:href="#R" y="179.196"/><use x="126.567" xlink:href="#S" y="179.196"/></g><g><use x="8.501" xlink:href="#X" y="188.66"/><use x="14.479" xlink:href="#ag" y="188.66"/><use x="21.868" xlink:href="#ah" y="188.66"/><use x="27.278" xlink:href="#ar" y="188.66"/></g><g><use x="32.451" xlink:href="#X" y="188.66"/><use x="38.429" xlink:href="#K" y="188.66"/><use x="42.497" xlink:href="#ab" y="188.66"/><use x="49.222" xlink:href="#P" y="188.66"/><use x="51.242" xlink:href="#as" y="188.66"/><use x="53.263" xlink:href="#L" y="188.66"/><use x="56.321" xlink:href="#R" y="188.66"/><use x="60.555" xlink:href="#S" y="188.66"/><use x="64.928" xlink:href="#P" y="188.66"/><use x="66.948" xlink:href="#K" y="188.66"/><use x="71.016" xlink:href="#S" y="188.66"/></g><g><use x="78.21" xlink:href="#ag" y="188.66"/><use x="85.599" xlink:href="#R" y="188.66"/><use x="89.833" xlink:href="#S" y="188.66"/><use x="94.206" xlink:href="#L" y="188.66"/><use x="97.264" xlink:href="#Z" y="188.66"/></g><use x="103.849" xlink:href="#ah" y="188.66"/><use x="109.267" xlink:href="#K" y="188.66"/><g><use x="113.096" xlink:href="#U" y="188.66"/><use x="115.988" xlink:href="#as" y="188.66"/><use x="118.009" xlink:href="#R" y="188.66"/></g><g><use x="8.501" xlink:href="#ai" y="198.125"/><use x="13.206" xlink:href="#aj" y="198.125"/></g><g><use x="18.62" xlink:href="#ad" y="198.125"/><use x="24.265" xlink:href="#T" y="198.125"/><use x="30.381" xlink:href="#ar" y="198.125"/></g><g><use x="35.555" xlink:href="#ai" y="198.125"/><use x="40.259" xlink:href="#L" y="198.125"/><use x="43.318" xlink:href="#Z" y="198.125"/><use x="47.081" xlink:href="#P" y="198.125"/><use x="49.101" xlink:href="#S" y="198.125"/></g><use x="56.295" xlink:href="#aj" y="198.125"/><use x="61.701" xlink:href="#K" y="198.125"/><g><use x="65.538" xlink:href="#U" y="198.125"/><use x="68.431" xlink:href="#P" y="198.125"/><use x="70.451" xlink:href="#K" y="198.125"/><use x="74.519" xlink:href="#L" y="198.125"/><use x="77.577" xlink:href="#P" y="198.125"/><use x="79.597" xlink:href="#R" y="198.125"/><use x="83.832" xlink:href="#S" y="198.125"/><use x="88.204" xlink:href="#K" y="198.125"/><use x="92.272" xlink:href="#as" y="198.125"/></g><g><use x="97.114" xlink:href="#ad" y="198.125"/><use x="102.759" xlink:href="#U" y="198.125"/><use x="105.652" xlink:href="#K" y="198.125"/><use x="109.72" xlink:href="#J" y="198.125"/><use x="114.092" xlink:href="#P" y="198.125"/><use x="116.112" xlink:href="#Z" y="198.125"/><use x="119.876" xlink:href="#S" y="198.125"/><use x="124.248" xlink:href="#L" y="198.125"/></g><g><use x="130.128" xlink:href="#T" y="198.125"/><use x="136.244" xlink:href="#Z" y="198.125"/><use x="140.008" xlink:href="#Q" y="198.125"/><use x="143.254" xlink:href="#M" y="198.125"/><use x="147.017" xlink:href="#Z" y="198.125"/><use x="150.781" xlink:href="#S" y="198.125"/><use x="155.153" xlink:href="#L" y="198.125"/></g></g></svg>