<svg height="265.629" viewBox="0 0 202.142 199.222" width="269.523" xmlns="http://www.w3.org/2000/svg" xmlns:xlink="http://www.w3.org/1999/xlink"><symbol id="a" overflow="visible"><path d="m5.719-6.984c-.094-.141-.094-.157-.235-.157-.687 0-1.906.282-2.421 1.125-.157-.28-.641-1.015-1.391-1.015-.688 0-1.125.625-1.125 1.203 0 .375.234.625.515.906.547.563.547.719.547 1.094 0 .594-.046 1.187-.484 1.187-.266 0-.313-.375-.328-.546 0-.079-.016-.157-.125-.157-.125 0-.125.11-.125.14 0 .188.094.782.578.782.813 0 .813-1.281.813-1.5 0-.312-.032-.687-.704-1.312-.28-.25-.39-.391-.39-.625 0-.422.297-.954.812-.954.516 0 .922.782.922 1.954v2.937c0 .094 0 1.922-.656 1.922-.36 0-.734-.313-.938-.938.016 0 .22-.062.22-.156 0-.062-.079-.11-.11-.11a1.01 1.01 0 0 0 -.203.063c-.016-.062-.063-.171-.141-.171-.047 0-.125.093-.125.14a.21.21 0 0 0 .047.125c-.063.016-.219.063-.219.156 0 .047.063.11.11.11a.88.88 0 0 0 .187-.063c.313.86.828 1.064 1.172 1.064.703 0 1.5-.906 1.5-2.938v-.719h1.14l.125 2.188c0 .063-.03.14-.03.328 0 .594.484 1.14 1.155 1.14.125 0 .157 0 .344-.14l.719-.562c.11-.095.125-.111.125-.142 0-.078-.156-.14-.188-.14-.046 0-.406.28-.859.656a.946.946 0 0 1 -.453-.813c0-.187.031-.219.031-.328 0-.297-.047-.813-.062-1.125-.016-.203-.063-1-.063-1.14.563-.172 1.64-.813 1.657-.829a.106.106 0 0 0 .062-.093c0-.016-.063-.141-.078-.141zm.561 2.734c-.922.5-1.125.5-1.422.5h-1.436v-.484c0-.688-.094-1.079-.203-1.391.344-.953 1.64-1.14 1.64-1.14.032 0 .079.109.094.109zm0 0"/></symbol><symbol id="b" overflow="visible"><path d="m2.86-3.344c0-.078-.063-.11-.094-.11-1.516-.092-1.907-1.092-1.907-1.686 0-.984.907-1.671 1.813-1.671.562 0 .89.359 1.312.906.454.562.938 1.172 1.782 1.172.703 0 1.14-.313 1.14-.704 0-.125-.093-.125-.156-.125-.125 0-.14.047-.156.141-.078.469-.782.469-.797.469-.14 0-.203-.031-.36-.328-.89-1.64-2.312-1.75-2.718-1.75-1.219 0-2.172.843-2.172 1.89 0 1.235 1.234 1.907 2.14 1.907.063 0 .172 0 .172-.11zm-2.048 1.516c-.172 0-.266 0-.266.11 0 .03 0 .109.094.109.343.03.671.046 1.437.75 1.064.968 1.283.968 2.079.968.516 0 .938 0 1.422-.343.36-.235.64-.641.64-1.141 0-.36-.14-.563-.5-.969-.39-.437-.421-.61-.421-.844 0-.421.11-.89.469-.89.015 0 .75 0 .828.703.015.063.031.125.156.125s.156-.047.156-.14c0-.422-.453-.907-1.156-.907-.719 0-1.297.516-1.297 1.14 0 .407.234.657.531 1 .375.407.407.579.407.782 0 .922-1.032 1.25-1.22 1.25-.062 0-.327-.078-.655-.297-.172-.14-.454-.39-.5-.422-.72-.687-1.11-.984-1.797-.984zm0 0"/></symbol><symbol id="c" overflow="visible"><path d="m3.297 2.39c0-.03 0-.046-.172-.218-1.234-1.25-1.563-3.14-1.563-4.672 0-1.734.375-3.469 1.61-4.703.125-.125.125-.14.125-.172 0-.078-.031-.11-.094-.11-.11 0-1 .688-1.594 1.954-.499 1.093-.625 2.203-.625 3.031 0 .781.11 1.984.657 3.125.609 1.219 1.453 1.875 1.562 1.875.063 0 .094-.031.094-.11zm0 0"/></symbol><symbol id="d" overflow="visible"><path d="m2.875-2.5c0-.766-.11-1.969-.656-3.11-.594-1.217-1.453-1.873-1.547-1.873a.107.107 0 0 0 -.11.109c0 .031 0 .047.188.234.984.985 1.547 2.563 1.547 4.641 0 1.719-.36 3.469-1.594 4.719-.14.125-.14.14-.14.172 0 .062.046.109.109.109.094 0 1-.688 1.578-1.953.516-1.094.625-2.203.625-3.047zm0 0"/></symbol><symbol id="e" overflow="visible"><path d="m4.578-3.188c0-.796-.047-1.593-.39-2.328-.455-.968-1.283-1.124-1.688-1.124-.61 0-1.328.266-1.75 1.188-.313.687-.36 1.469-.36 2.266 0 .75.032 1.64.454 2.406a1.83 1.83 0 0 0 1.64 1c.532 0 1.297-.203 1.735-1.157.312-.687.36-1.468.36-2.25zm-2.094 3.188c-.39 0-.984-.25-1.156-1.203-.11-.594-.11-1.516-.11-2.11 0-.64 0-1.296.079-1.828.187-1.187.937-1.28 1.187-1.28.329 0 .985.187 1.172 1.171.11.563.11 1.313.11 1.938 0 .75 0 1.421-.11 2.062-.156.953-.719 1.25-1.172 1.25zm0 0"/></symbol><symbol id="f" overflow="visible"><path d="m2.25-6.031c0-.36.016-.469.813-.469h.25v-.313c-.344.032-1.126.032-1.516.032-.375 0-1.172 0-1.516-.032v.313h.25c.797 0 .828.11.828.469v5.25c0 .36-.03.469-.828.469h-.25v.312c.344-.031 1.14-.031 1.516-.031.39 0 1.172 0 1.516.031v-.313h-.25c-.797 0-.813-.109-.813-.468zm0 0"/></symbol><symbol id="g" overflow="visible"><path d="m.453 1.219c-.078.343-.11.406-.547.406-.11 0-.218 0-.218.188 0 .078.046.125.124.125.266 0 .563-.032.829-.032.343 0 .671.032 1 .032.046 0 .171 0 .171-.204 0-.109-.093-.109-.234-.109-.5 0-.5-.063-.5-.156 0-.125.422-1.75.484-2 .125.297.407.64.922.64 1.157 0 2.407-1.453 2.407-2.921 0-.938-.579-1.594-1.329-1.594-.5 0-.984.36-1.312.75-.094-.547-.531-.75-.89-.75-.47 0-.657.39-.735.562-.188.344-.313.938-.313.969 0 .11.094.11.11.11.11 0 .11-.016.172-.235.172-.703.375-1.188.734-1.188.172 0 .313.079.313.454 0 .234-.032.343-.079.515zm1.75-4.328c.063-.266.344-.547.516-.704.36-.296.64-.374.812-.374.39 0 .64.343.64.937s-.327 1.734-.515 2.11c-.344.702-.812 1.03-1.187 1.03-.656 0-.781-.828-.781-.89 0-.016 0-.031.03-.156zm0 0"/></symbol><symbol id="h" overflow="visible"><path d="m4.5-4.297c0-.047-.031-.094-.094-.094-.11 0-.515.391-.672.688-.218-.547-.609-.703-.937-.703-1.172 0-2.39 1.468-2.39 2.922-.001.968.576 1.593 1.311 1.593.422 0 .812-.234 1.172-.593-.094.343-.422 1.687-.454 1.78-.078.282-.156.313-.718.329-.125 0-.219 0-.219.203 0 0 0 .11.125.11.313 0 .672-.032 1-.032s.688.032 1.031.032c.047 0 .172 0 .172-.204 0-.109-.094-.109-.265-.109-.47 0-.47-.063-.47-.156 0-.078.016-.14.032-.219zm-2.75 4.188c-.61 0-.64-.766-.64-.938 0-.484.28-1.562.452-1.984.313-.735.829-1.156 1.235-1.156.656 0 .797.812.797.875 0 .062-.547 2.25-.578 2.28-.157.282-.72.923-1.266.923zm0 0"/></symbol><symbol id="i" overflow="visible"><path d="m2.828-6.234c0-.204-.14-.36-.36-.36-.28 0-.546.266-.546.532 0 .187.14.359.375.359.234 0 .531-.234.531-.531zm-.75 3.75c.11-.282.11-.313.219-.579.078-.203.125-.343.125-.53 0-.438-.313-.813-.813-.813-.937 0-1.312 1.453-1.312 1.531 0 .11.094.11.11.11.109 0 .109-.032.156-.188.28-.938.671-1.235 1.015-1.235.078 0 .25 0 .25.313 0 .219-.078.422-.11.531-.077.25-.53 1.406-.687 1.844-.11.25-.234.578-.234.797 0 .469.344.812.812.812.938 0 1.313-1.437 1.313-1.53 0-.11-.094-.11-.125-.11-.094 0-.094.031-.14.187-.189.625-.517 1.235-1.017 1.235-.172 0-.25-.094-.25-.329 0-.25.062-.39.296-1zm0 0"/></symbol><symbol id="j" overflow="visible"><path d="m6.031-3.703c0-.453-.172-.703-.406-.703-.25 0-.516.234-.516.468 0 .094.047.204.141.297a1.1 1.1 0 0 1 .36.844c0 .39-.204.969-.5 1.422-.298.422-.673.766-1.141.766-.563 0-.875-.36-.969-.891.11-.266.344-.906.344-1.188 0-.109-.047-.218-.188-.218-.078 0-.187.031-.265.172-.11.203-.235.843-.235 1.203-.328.468-.719.922-1.344.922-.671 0-.875-.594-.875-1.141 0-1.25 1.016-2.297 1.016-2.422a.18.18 0 0 0 -.187-.187c-.125 0-.204.125-.266.218-.5.735-.875 1.922-.875 2.829 0 .687.219 1.421 1.047 1.421.703 0 1.172-.5 1.531-1.046.094.578.485 1.046 1.094 1.046.781 0 1.25-.609 1.61-1.359.25-.484.624-1.844.624-2.453zm0 0"/></symbol><symbol id="k" overflow="visible"><path d="m4.75-2.36c0-1.562-.922-2.046-1.656-2.046-1.375 0-2.688 1.422-2.688 2.828 0 .937.594 1.687 1.625 1.687.625 0 1.344-.234 2.094-.843.125.53.453.843.906.843.532 0 .844-.546.844-.703 0-.078-.063-.11-.125-.11-.063 0-.094.032-.125.11-.188.485-.547.485-.563.485-.312 0-.312-.782-.312-1.016 0-.203 0-.234.11-.344.936-1.187 1.14-2.343 1.14-2.343 0-.032-.016-.11-.125-.11-.094 0-.094.031-.14.219-.188.625-.516 1.375-.985 1.969zm-.656 1.377c-.89.765-1.657.875-2.047.875-.594 0-.906-.454-.906-1.094 0-.484.265-1.563.578-2.063.468-.734 1.015-.921 1.36-.921.983 0 .983 1.312.983 2.078 0 .375 0 .953.032 1.125zm0 0"/></symbol><symbol id="l" overflow="visible"><path d="m3.594-2.219c0-.765-.094-1.328-.406-1.812-.22-.313-.657-.594-1.204-.594-1.624 0-1.624 1.906-1.624 2.406s0 2.36 1.625 2.36c1.61 0 1.61-1.86 1.61-2.36zm-1.61 2.156c-.328 0-.75-.187-.89-.75-.094-.406-.094-.983-.094-1.5 0-.515 0-1.046.094-1.421.156-.547.593-.704.89-.704.375 0 .735.235.86.641.11.375.125.875.125 1.485 0 .515 0 1.03-.094 1.468-.14.64-.61.781-.89.781zm0 0"/></symbol><symbol id="m" overflow="visible"><path d="m2.328-4.438c0-.187 0-.187-.203-.187-.453.438-1.078.438-1.36.438v.25c.157 0 .626 0 1-.188v3.547c0 .234 0 .328-.687.328h-.266v.25c.125 0 .985-.031 1.235-.031.219 0 1.094.031 1.25.031v-.25h-.267c-.703 0-.703-.094-.703-.328zm0 0"/></symbol><symbol id="n" overflow="visible"><path d="m3.516-1.266h-.236c-.015.157-.094.563-.187.625-.047.047-.578.047-.688.047h-1.28c.734-.64.984-.844 1.39-1.172.516-.406 1-.843 1-1.5 0-.843-.734-1.359-1.624-1.359-.86 0-1.454.61-1.454 1.25 0 .344.297.39.376.39a.365.365 0 0 0 .359-.374c0-.125-.047-.375-.406-.375.218-.485.687-.641 1.015-.641.703 0 1.063.547 1.063 1.11 0 .609-.438 1.078-.656 1.328l-1.672 1.671c-.079.063-.079.079-.079.266h2.876zm0 0"/></symbol><symbol id="o" overflow="visible"><path d="m4.39-1.11c.079 0 .204 0 .204-.14s-.125-.14-.203-.14h-3.375c-.079 0-.22 0-.22.14s.141.14.22.14zm0 0"/></symbol><symbol id="p" overflow="visible"><path d="m3.078-.813v-.218h-.625v-2.189c0-.125 0-.156-.14-.156-.094 0-.094 0-.157.078l-1.844 2.268v.218h1.658v.391c0 .156 0 .203-.422.203h-.188v.218c.235-.016.563-.016.86-.016.281 0 .61 0 .844.016v-.219h-.174c-.438 0-.438-.047-.438-.203v-.39zm-1.062-2.03v1.812h-1.47zm0 0"/></symbol><symbol id="q" overflow="visible"><path d="m1.64-1.656c.47 0 .766.297.766.781 0 .516-.312.781-.75.781-.062 0-.656 0-.906-.265.203-.032.266-.172.266-.297a.304.304 0 0 0 -.313-.314c-.156 0-.297.11-.297.328 0 .516.578.75 1.266.75.812 0 1.312-.5 1.312-.984 0-.406-.359-.75-.921-.875.593-.203.75-.578.75-.86 0-.406-.5-.703-1.126-.703-.625 0-1.109.25-1.109.704a.28.28 0 0 0 .281.296.284.284 0 0 0 .282-.296c0-.11-.063-.25-.235-.282.203-.218.656-.234.766-.234.36 0 .61.172.61.516 0 .296-.188.75-.704.78-.14 0-.156 0-.297.016-.047 0-.11 0-.11.079 0 .078.048.078.141.078zm0 0"/></symbol><symbol id="r" overflow="visible"><path d="m2.938-.969h-.22c0 .094-.062.406-.14.453-.031.032-.453.032-.531.032h-.969c.328-.235.688-.516.984-.72.454-.312.876-.593.876-1.124 0-.64-.61-.985-1.313-.985-.672 0-1.172.376-1.172.876 0 .25.219.296.297.296a.283.283 0 0 0 .281-.296.27.27 0 0 0 -.281-.282c.14-.234.438-.375.766-.375.484 0 .89.281.89.766 0 .422-.297.75-.672 1.062l-1.218 1.032c-.047.047-.063.047-.063.078v.156h2.313zm0 0"/></symbol><symbol id="s" overflow="visible"><path d="m1.984-3.172c0-.14-.015-.14-.187-.14-.344.312-.907.312-1 .312h-.078v.219h.078c.11 0 .437-.016.734-.14v2.5c0 .14 0 .202-.531.202h-.25v.219c.266-.016.719-.016 1-.016.297 0 .734 0 1.016.016v-.219h-.25c-.532 0-.532-.062-.532-.203zm0 0"/></symbol><clipPath id="t"><path d="m77 44h125.14v26h-125.14zm0 0"/></clipPath><clipPath id="u"><path d="m77 129h125.14v26h-125.14zm0 0"/></clipPath><clipPath id="v"><path d="m31 0h2v199.223h-2zm0 0"/></clipPath><path d="m-28.349.001h85.043" fill="none" stroke="#000" stroke-miterlimit="10" stroke-width=".79701" transform="matrix(1 0 0 -1 31.665 57.091)"/><g clip-path="url(#t)"><path d="m56.694.001.996.996 1.993-1.992 1.992 1.992 1.992-1.992 1.992 1.992 1.992-1.992 1.993 1.992 1.996-1.992 1.992 1.992 1.992-1.992 1.992 1.992 1.992-1.992 1.993 1.992 1.992-1.992 1.992 1.992 1.992-1.992 1.993 1.992 1.993-1.992 1.995 1.992 1.992-1.992 1.992 1.992 1.992-1.992 1.992 1.992 1.993-1.992 1.991 1.992 1.992-1.992 1.992 1.992 1.992-1.992 1.994 1.992 1.996-1.992 1.992 1.992 1.992-1.992 1.992 1.992 1.992-1.992 1.993 1.992 1.992-1.992 1.991 1.992 1.992-1.992 1.992 1.992 1.993-1.992 1.996 1.992 1.992-1.992 1.992 1.992 1.992-1.992 1.992 1.992 1.993-1.992 1.992 1.992 1.992-1.992 1.992 1.992 1.992-1.992 1.998 1.992 1.993-1.992 1.992 1.992 1.992-1.992 1.992 1.992.996-.996h3.09" fill="none" stroke="#000" stroke-miterlimit="10" stroke-width=".79701" transform="matrix(1 0 0 -1 31.665 57.091)"/></g><path d="m-1.554 2.071c.13-.777 1.555-1.94 1.942-2.07-.388-.129-1.813-1.297-1.942-2.074" style="fill:none;stroke-width:.6376;stroke-linecap:round;stroke-linejoin:round;stroke:#000;stroke-miterlimit:10" transform="matrix(1 0 0 -1 201.038 57.091)"/><use x="173.598" xlink:href="#a" y="50.882"/><use x="180.794" xlink:href="#c" y="50.882"/><use x="184.668" xlink:href="#g" y="50.882"/><use x="189.68" xlink:href="#l" y="52.376"/><use x="194.15" xlink:href="#d" y="50.882"/><g clip-path="url(#u)"><path d="m56.694-85.042.996.996 1.993-1.992 1.992 1.992 1.992-1.992 1.992 1.992 1.992-1.992 1.993 1.992 1.996-1.992 1.992 1.992 1.992-1.992 1.992 1.992 1.992-1.992 1.993 1.992 1.992-1.992 1.992 1.992 1.992-1.992 1.992 1.992 1.993-1.992 1.996 1.992 1.992-1.992 1.992 1.992 1.992-1.992 1.992 1.992 1.993-1.992 1.992 1.992 1.992-1.992 1.992 1.992 1.992-1.992 1.993 1.992 1.996-1.992 1.992 1.992 1.992-1.992 1.992 1.992 1.992-1.992 1.993 1.992 1.992-1.992 1.992 1.992 1.992-1.992 1.992 1.992 1.993-1.992 1.996 1.992 1.992-1.992 1.992 1.992 1.992-1.992 1.992 1.992 1.993-1.992 1.992 1.992 1.992-1.992 1.992 1.992 1.992-1.992 1.996 1.992 1.993-1.992 1.992 1.992 1.992-1.992 1.992 1.992 1.992-1.992.996.996h1.805" fill="none" stroke="#000" stroke-miterlimit="10" stroke-width=".79701" transform="matrix(1 0 0 -1 31.665 57.091)"/></g><g clip-path="url(#v)"><path d="m0-141.733v197.719" fill="none" stroke="#000" stroke-miterlimit="10" stroke-width=".79701" transform="matrix(1 0 0 -1 31.665 57.091)"/></g><path d="m-1.555 2.071c.129-.777 1.554-1.941 1.945-2.07-.39-.129-1.816-1.297-1.945-2.074" style="fill:none;stroke-width:.6376;stroke-linecap:round;stroke-linejoin:round;stroke:#000;stroke-miterlimit:10" transform="matrix(0 -1 -1 0 31.665 1.105)"/><use x="3.321" xlink:href="#b" y="11.789"/><use x="10.516" xlink:href="#c" y="11.789"/><use x="14.39" xlink:href="#g" y="11.789"/><use x="19.403" xlink:href="#l" y="13.283"/><use x="23.872" xlink:href="#d" y="11.789"/><path d="m54.702.001c-2.988-1.496-4.984-4.984-4.984-9.965v-22.593c0-4.98-1.992-8.47-4.98-9.961 2.988-1.496 4.98-4.985 4.98-9.965v-22.594c0-4.98 1.996-8.469 4.984-9.965" fill="none" stroke="#000" stroke-miterlimit="10" stroke-width=".79701" transform="matrix(1 0 0 -1 31.665 57.091)"/><use x="65.759" xlink:href="#h" y="100.787"/><use x="70.206" xlink:href="#l" y="102.281"/><path d="m32.66 170.477a.998.998 0 0 0 -.996-.997.998.998 0 0 0 0 1.997 1 1 0 0 0 .996-1zm0 0"/><g><use x="35.384" xlink:href="#i" y="172.102"/><use x="38.816" xlink:href="#j" y="172.102"/></g><use x="45.017" xlink:href="#o" y="174.593"/><use x="50.414" xlink:href="#p" y="174.593"/><path d="m32.66 142.133a.995.995 0 1 0 -1.99-.002.995.995 0 0 0 1.99.002zm0 0"/><g><use x="35.384" xlink:href="#i" y="143.755"/><use x="38.816" xlink:href="#j" y="143.755"/></g><use x="45.017" xlink:href="#o" y="146.246"/><use x="50.414" xlink:href="#q" y="146.246"/><path d="m32.66 113.785a.995.995 0 1 0 -1.99-.002.995.995 0 0 0 1.99.002zm0 0"/><g><use x="35.384" xlink:href="#i" y="115.409"/><use x="38.816" xlink:href="#j" y="115.409"/></g><use x="45.017" xlink:href="#o" y="117.9"/><use x="50.414" xlink:href="#r" y="117.9"/><path d="m32.66 85.438a.995.995 0 1 0 -1.99-.002.995.995 0 0 0 1.99.001zm0 0"/><g><use x="35.384" xlink:href="#i" y="87.063"/><use x="38.816" xlink:href="#j" y="87.063"/></g><use x="45.017" xlink:href="#o" y="89.553"/><use x="50.414" xlink:href="#s" y="89.553"/><path d="m32.66 28.746c0-.55-.445-1-.996-1a.999.999 0 0 0 0 1.996c.55 0 .996-.449.996-.996zm0 0"/><g><use x="35.384" xlink:href="#i" y="30.785"/><use x="38.816" xlink:href="#j" y="30.785"/></g><use x="45.017" xlink:href="#s" y="33.275"/><path d="m32.66 57.09a.995.995 0 1 0 -1.99-.002.995.995 0 0 0 1.99.002zm0 0"/><use x="35.384" xlink:href="#e" y="53.372"/><path d="m118.7 28.746a1.996 1.996 0 0 0 -1.993-1.996 1.994 1.994 0 0 0 0 3.988 1.996 1.996 0 0 0 1.992-1.992zm56.69 0c0-1.101-.89-1.996-1.992-1.996a1.996 1.996 0 0 0 -1.992 1.996 1.993 1.993 0 0 0 3.984 0zm-56.69 56.692a1.993 1.993 0 1 0 -3.987.001 1.993 1.993 0 0 0 3.986-.001zm56.69 0a1.993 1.993 0 1 0 -3.983.002 1.993 1.993 0 0 0 3.984-.002zm-56.69 28.347a1.993 1.993 0 1 0 -3.987.002 1.993 1.993 0 0 0 3.986-.002zm56.69 0a1.993 1.993 0 1 0 -3.983.002 1.993 1.993 0 0 0 3.984-.002zm-56.69 56.692a1.993 1.993 0 0 0 -3.984 0 1.993 1.993 0 0 0 1.991 1.996 1.996 1.996 0 0 0 1.992-1.996zm56.69 0a1.993 1.993 0 1 0 -1.992 1.996 1.994 1.994 0 0 0 1.993-1.996zm0 0"/><use x="111.264" xlink:href="#k" y="22.553"/><use x="117.674" xlink:href="#m" y="18.938"/><use x="117.637" xlink:href="#n" y="25.026"/><use x="167.957" xlink:href="#k" y="22.553"/><use x="174.367" xlink:href="#m" y="18.938"/><use x="174.33" xlink:href="#m" y="25.026"/><use x="111.264" xlink:href="#k" y="79.246"/><use x="117.674" xlink:href="#m" y="75.63"/><use x="117.637" xlink:href="#n" y="81.719"/><use x="167.957" xlink:href="#k" y="79.246"/><use x="174.367" xlink:href="#m" y="75.63"/><use x="174.33" xlink:href="#m" y="81.719"/><use x="111.264" xlink:href="#k" y="107.592"/><use x="117.674" xlink:href="#n" y="103.977"/><use x="117.637" xlink:href="#n" y="110.065"/><use x="167.957" xlink:href="#k" y="107.592"/><use x="174.367" xlink:href="#n" y="103.977"/><use x="174.33" xlink:href="#m" y="110.065"/><use x="111.264" xlink:href="#k" y="164.285"/><use x="117.674" xlink:href="#n" y="160.67"/><use x="117.637" xlink:href="#n" y="166.758"/><use x="167.957" xlink:href="#k" y="164.285"/><use x="174.367" xlink:href="#n" y="160.67"/><use x="174.33" xlink:href="#m" y="166.758"/><g fill="#00008b"><g><use x="139.377" xlink:href="#c" y="17.062"/><use x="143.251" xlink:href="#f" y="17.062"/><use x="146.849" xlink:href="#d" y="17.062"/></g><g><use x="137.44" xlink:href="#c" y="102.102"/><use x="141.314" xlink:href="#f" y="102.102"/></g><g><use x="145.191" xlink:href="#f" y="102.102"/><use x="148.788" xlink:href="#d" y="102.102"/></g><g><use x="135.503" xlink:href="#c" y="187.141"/><use x="139.377" xlink:href="#f" y="187.141"/></g><use x="143.254" xlink:href="#f" y="187.141"/><g><use x="147.13" xlink:href="#f" y="187.141"/><use x="150.728" xlink:href="#d" y="187.141"/></g></g></svg>