<svg height="303.425" viewBox="0 0 227.569 227.569" width="303.425" xmlns="http://www.w3.org/2000/svg" xmlns:xlink="http://www.w3.org/1999/xlink"><symbol id="a" overflow="visible"><path d="m2.234-3.516v-2.578c0-.234 0-.36.22-.39.093-.016.39-.016.593-.016.89 0 2 .047 2 1.484 0 .688-.234 1.5-1.703 1.5zm2.11.125c.953-.234 1.734-.843 1.734-1.625 0-.953-1.14-1.796-2.594-1.796h-3.14v.312h.25c.765 0 .781.11.781.469v5.25c0 .36-.016.469-.781.469h-.25v.312c.36-.031 1.078-.031 1.453-.031.39 0 1.11 0 1.469.031v-.313h-.25c-.766 0-.782-.109-.782-.468v-2.516h1.141c.156 0 .578 0 .938.344.375.344.375.656.375 1.328 0 .64 0 1.047.406 1.422.406.36.953.422 1.25.422.781 0 .953-.813.953-1.094 0-.063 0-.172-.125-.172-.11 0-.11.094-.125.156-.063.721-.407.891-.657.891-.485 0-.563-.516-.704-1.438l-.14-.796c-.172-.641-.656-.97-1.203-1.157zm0 0"/></symbol><symbol id="b" overflow="visible"><path d="m1.11-2.516c.061-1.484.905-1.734 1.25-1.734 1.015 0 1.124 1.344 1.124 1.734zm0 .22h2.78c.22 0 .25 0 .25-.22 0-.984-.546-1.953-1.78-1.953-1.158 0-2.08 1.032-2.08 2.282.001 1.327 1.048 2.295 2.19 2.295 1.218.002 1.67-1.108 1.67-1.295 0-.094-.079-.125-.141-.125-.078 0-.11.062-.125.14-.343 1.032-1.249 1.032-1.343 1.032-.5 0-.89-.296-1.125-.671-.297-.47-.297-1.125-.297-1.485zm0 0"/></symbol><symbol id="c" overflow="visible"><path d="m3.297 2.39c0-.03 0-.046-.172-.218-1.234-1.25-1.563-3.14-1.563-4.672 0-1.734.375-3.469 1.61-4.703.125-.125.125-.14.125-.172 0-.078-.031-.11-.094-.11-.11 0-1 .688-1.594 1.954-.499 1.093-.625 2.203-.625 3.031 0 .781.11 1.984.657 3.125.609 1.219 1.453 1.875 1.562 1.875.063 0 .094-.031.094-.11zm0 0"/></symbol><symbol id="d" overflow="visible"><path d="m2.875-2.5c0-.766-.11-1.969-.656-3.11-.594-1.217-1.453-1.873-1.547-1.873a.107.107 0 0 0 -.11.109c0 .031 0 .047.188.234.984.985 1.547 2.563 1.547 4.641 0 1.719-.36 3.469-1.594 4.719-.14.125-.14.14-.14.172 0 .062.046.109.109.109.094 0 1-.688 1.578-1.953.516-1.094.625-2.203.625-3.047zm0 0"/></symbol><symbol id="e" overflow="visible"><path d="m2.25-6.031c0-.36.016-.469.813-.469h.25v-.313c-.344.032-1.126.032-1.516.032-.375 0-1.172 0-1.516-.032v.313h.25c.797 0 .828.11.828.469v5.25c0 .36-.03.469-.828.469h-.25v.312c.344-.031 1.14-.031 1.516-.031.39 0 1.172 0 1.516.031v-.313h-.25c-.797 0-.813-.109-.813-.468zm0 0"/></symbol><symbol id="f" overflow="visible"><path d="m1.094-3.422v2.672c0 .438-.11.438-.782.438v.312c.36-.016.86-.031 1.141-.031.25 0 .766.015 1.11.031v-.313c-.672 0-.782 0-.782-.437v-1.844c0-1.031.719-1.594 1.344-1.594.64 0 .75.532.75 1.11v2.328c0 .438-.11.438-.781.438v.312c.344-.016.86-.031 1.125-.031.25 0 .781.015 1.11.031v-.313c-.657 0-.766 0-.766-.437v-1.844c0-1.031.703-1.594 1.343-1.594.625 0 .735.532.735 1.11v2.328c0 .438-.11.438-.782.438v.312c.344-.016.86-.031 1.125-.031.266 0 .782.015 1.125.031v-.313c-.515 0-.765 0-.78-.296v-1.907c0-.859 0-1.156-.313-1.515-.141-.172-.47-.375-1.047-.375-.828 0-1.282.593-1.438.984-.14-.875-.875-.984-1.328-.984-.734 0-1.203.422-1.484 1.047v-1.047l-1.407.11v.312c.704 0 .782.062.782.562zm0 0"/></symbol><symbol id="g" overflow="visible"><path d="m4.578-3.188c0-.796-.047-1.593-.39-2.328-.455-.968-1.283-1.124-1.688-1.124-.61 0-1.328.266-1.75 1.188-.313.687-.36 1.469-.36 2.266 0 .75.032 1.64.454 2.406a1.83 1.83 0 0 0 1.64 1c.532 0 1.297-.203 1.735-1.157.312-.687.36-1.468.36-2.25zm-2.094 3.188c-.39 0-.984-.25-1.156-1.203-.11-.594-.11-1.516-.11-2.11 0-.64 0-1.296.079-1.828.187-1.187.937-1.28 1.187-1.28.329 0 .985.187 1.172 1.171.11.563.11 1.313.11 1.938 0 .75 0 1.421-.11 2.062-.156.953-.719 1.25-1.172 1.25zm0 0"/></symbol><symbol id="h" overflow="visible"><path d="m1.719-3.75v-.656l-1.438.11v.312c.703 0 .781.062.781.5v4.656c0 .453-.109.453-.78.453v.313c.343-.016.859-.032 1.109-.032.28 0 .78.016 1.125.032v-.313c-.657 0-.766 0-.766-.453v-1.766c.047.172.469.703 1.219.703 1.187 0 2.219-.984 2.219-2.265 0-1.266-.954-2.25-2.079-2.25-.78 0-1.203.437-1.39.656zm.031 2.61v-2.22c.281-.515.766-.796 1.281-.796.735 0 1.328.875 1.328 2 .001 1.203-.687 2.046-1.421 2.046-.407 0-.782-.204-1.047-.61-.141-.203-.141-.219-.141-.422zm0 0"/></symbol><symbol id="i" overflow="visible"><path d="m4.688-2.14c0-1.266-.985-2.329-2.188-2.329-1.25 0-2.219 1.094-2.219 2.329a2.22 2.22 0 0 0 2.203 2.25c1.204 0 2.204-.984 2.204-2.25zm-2.188 2c-.438 0-.875-.204-1.14-.672-.25-.438-.25-1.047-.25-1.407 0-.39 0-.922.234-1.36a1.347 1.347 0 0 1 1.14-.671c.438 0 .86.219 1.125.656.266.422.266 1 .266 1.375 0 .36 0 .906-.219 1.344-.234.453-.672.734-1.156.734zm0 0"/></symbol><symbol id="j" overflow="visible"><path d="m1.766-6.922-1.438.11v.312c.703 0 .781.063.781.563v5.187c0 .438-.109.438-.78.438v.312c.327-.016.859-.031 1.109-.031s.734.015 1.109.031v-.313c-.672 0-.781 0-.781-.437zm0 0"/></symbol><symbol id="k" overflow="visible"><path d="m2.078-1.938c.219.047 1.031.204 1.031.922 0 .5-.343.907-1.125.907-.843 0-1.203-.563-1.39-1.422-.031-.125-.031-.157-.14-.157-.126 0-.126.063-.126.235v1.328c0 .172 0 .234.11.234.045.001.062-.015.25-.203.015-.015.015-.031.202-.218.437.406.89.421 1.093.421 1.141 0 1.61-.671 1.61-1.39 0-.516-.297-.828-.422-.938-.328-.328-.719-.406-1.14-.484-.563-.11-1.22-.235-1.22-.813 0-.359.25-.765 1.11-.765 1.094 0 1.156.906 1.172 1.203 0 .094.094.094.11.094.14 0 .14-.047.14-.235v-1.015c0-.157 0-.235-.11-.235-.046 0-.078 0-.203.125a1.676 1.676 0 0 1 -.172.157c-.375-.282-.78-.282-.937-.282-1.219 0-1.594.672-1.594 1.235 0 .343.156.625.422.843.328.25.61.313 1.328.454zm0 0"/></symbol><symbol id="l" overflow="visible"><path d="m1.75-4.297v-1.156c0-.875.469-1.36.906-1.36.031 0 .188 0 .328.079a.443.443 0 0 0 -.296.421c0 .22.156.422.437.422s.438-.203.438-.437c0-.375-.376-.703-.907-.703-.687 0-1.547.531-1.547 1.593v1.141h-.779v.313h.78v3.234c0 .438-.109.438-.765.438v.312c.39-.016.86-.031 1.125-.031.406 0 .875 0 1.265.031v-.313h-.203c-.734 0-.75-.109-.75-.468v-3.203h1.125v-.313zm0 0"/></symbol><symbol id="m" overflow="visible"><path d="m.453 1.219c-.078.343-.11.406-.547.406-.11 0-.218 0-.218.188 0 .078.046.125.124.125.266 0 .563-.032.829-.032.343 0 .671.032 1 .032.046 0 .171 0 .171-.204 0-.109-.093-.109-.234-.109-.5 0-.5-.063-.5-.156 0-.125.422-1.75.484-2 .125.297.407.64.922.64 1.157 0 2.407-1.453 2.407-2.921 0-.938-.579-1.594-1.329-1.594-.5 0-.984.36-1.312.75-.094-.547-.531-.75-.89-.75-.47 0-.657.39-.735.562-.188.344-.313.938-.313.969 0 .11.094.11.11.11.11 0 .11-.016.172-.235.172-.703.375-1.188.734-1.188.172 0 .313.079.313.454 0 .234-.032.343-.079.515zm1.75-4.328c.063-.266.344-.547.516-.704.36-.296.64-.374.812-.374.39 0 .64.343.64.937s-.327 1.734-.515 2.11c-.344.702-.812 1.03-1.187 1.03-.656 0-.781-.828-.781-.89 0-.016 0-.031.03-.156zm0 0"/></symbol><symbol id="n" overflow="visible"><path d="m7.578-6.922c0-.031-.016-.11-.11-.11-.03 0-.046.016-.155.126l-.688.765c-.094-.14-.547-.89-1.656-.89-2.235 0-4.469 2.203-4.469 4.515 0 1.641 1.172 2.736 2.703 2.736.86 0 1.625-.39 2.156-.86.922-.812 1.094-1.718 1.094-1.75 0-.109-.11-.109-.125-.109-.062 0-.11.031-.125.11-.094.28-.328 1-1.016 1.578-.687.546-1.312.718-1.828.718-.89 0-1.953-.515-1.953-2.062 0-.578.203-2.188 1.203-3.36.61-.703 1.547-1.203 2.438-1.203 1.016 0 1.61.766 1.61 1.922 0 .406-.032.406-.032.516 0 .093.11.093.14.093.126 0 .126-.015.188-.203zm0 0"/></symbol><symbol id="o" overflow="visible"><path d="m2.86-6.813s0-.109-.126-.109c-.234 0-.953.078-1.218.11-.079 0-.188.015-.188.187 0 .125.094.125.234.125.485 0 .5.063.5.172l-.03.203-1.439 5.734c-.046.141-.046.157-.046.221 0 .234.203.28.297.28a.407.407 0 0 0 .36-.265l.187-.75.218-.89c.063-.235.125-.454.172-.673.016-.062.11-.39.11-.453.03-.094.343-.64.687-.922.219-.156.516-.344.953-.344.422 0 .531.344.531.704 0 .53-.375 1.625-.609 2.234-.078.219-.14.344-.14.547 0 .469.359.812.828.812.937 0 1.296-1.453 1.296-1.53 0-.11-.078-.11-.109-.11-.11 0-.11.031-.156.187-.14.532-.469 1.235-1.016 1.235-.172 0-.234-.094-.234-.329 0-.25.078-.484.172-.703.156-.437.61-1.625.61-2.203 0-.64-.391-1.062-1.141-1.062-.626 0-1.11.312-1.485.765zm0 0"/></symbol><symbol id="p" overflow="visible"><path d="m3.594-2.219c0-.765-.094-1.328-.406-1.812-.22-.313-.657-.594-1.204-.594-1.624 0-1.624 1.906-1.624 2.406s0 2.36 1.625 2.36c1.61 0 1.61-1.86 1.61-2.36zm-1.61 2.156c-.328 0-.75-.187-.89-.75-.094-.406-.094-.983-.094-1.5 0-.515 0-1.046.094-1.421.156-.547.593-.704.89-.704.375 0 .735.235.86.641.11.375.125.875.125 1.485 0 .515 0 1.03-.094 1.468-.14.64-.61.781-.89.781zm0 0"/></symbol><symbol id="q" overflow="visible"><path d="m2.328-4.438c0-.187 0-.187-.203-.187-.453.438-1.078.438-1.36.438v.25c.157 0 .626 0 1-.188v3.547c0 .234 0 .328-.687.328h-.266v.25c.125 0 .985-.031 1.235-.031.219 0 1.094.031 1.25.031v-.25h-.267c-.703 0-.703-.094-.703-.328zm0 0"/></symbol><symbol id="r" overflow="visible"><path d="m3.516-1.266h-.236c-.015.157-.094.563-.187.625-.047.047-.578.047-.688.047h-1.28c.734-.64.984-.844 1.39-1.172.516-.406 1-.843 1-1.5 0-.843-.734-1.359-1.624-1.359-.86 0-1.454.61-1.454 1.25 0 .344.297.39.376.39a.365.365 0 0 0 .359-.374c0-.125-.047-.375-.406-.375.218-.485.687-.641 1.015-.641.703 0 1.063.547 1.063 1.11 0 .609-.438 1.078-.656 1.328l-1.672 1.671c-.079.063-.079.079-.079.266h2.876zm0 0"/></symbol><symbol id="s" overflow="visible"><path d="m1.906-2.328c.547 0 .938.375.938 1.125 0 .86-.516 1.125-.906 1.125-.282 0-.907-.078-1.188-.5.328 0 .406-.235.406-.39 0-.22-.172-.376-.39-.376a.38.38 0 0 0 -.391.407c0 .656.719 1.077 1.563 1.077.968 0 1.64-.657 1.64-1.344 0-.547-.437-1.094-1.203-1.25.719-.266.984-.781.984-1.219 0-.547-.625-.953-1.406-.953-.766 0-1.36.375-1.36.938 0 .234.157.359.36.359.219 0 .36-.156.36-.344 0-.203-.141-.36-.36-.375.25-.297.719-.375.985-.375.312 0 .75.156.75.75 0 .297-.094.625-.282.828-.219.266-.422.281-.765.313-.172.015-.188.015-.22.015-.015 0-.077.016-.077.094 0 .094.062.094.187.094zm0 0"/></symbol><symbol id="t" overflow="visible"><path d="m3.688-1.14v-.25h-.782v-3.11c0-.14 0-.203-.14-.203-.094 0-.125 0-.188.11l-2.312 3.201v.25h2.062v.563c0 .25 0 .328-.578.328h-.188v.251c.36-.016.797-.031 1.047-.031.266 0 .704.015 1.063.031v-.25h-.188c-.578 0-.578-.078-.578-.328v-.563zm-1.313-2.799v2.547h-1.844zm0 0"/></symbol><symbol id="u" overflow="visible"><path d="m2.266-4.36a.276.276 0 0 0 -.282-.265c-.187 0-.39.188-.39.39 0 .11.078.266.281.266.188 0 .39-.203.39-.39zm-1.422 3.549c-.031.091-.064.17-.064.295 0 .329.266.579.656.579.688 0 1-.954 1-1.063 0-.094-.093-.094-.109-.094-.094 0-.11.047-.14.125-.157.563-.454.844-.735.844-.14 0-.172-.094-.172-.25s.047-.281.11-.438c.078-.187.156-.375.218-.562.063-.172.329-.797.344-.89a.5.5 0 0 0 .048-.221c0-.328-.281-.593-.656-.593-.704.001-1.016.954-1.016 1.079 0 .078.094.078.125.078.094 0 .094-.031.125-.11.172-.593.485-.843.735-.843.109 0 .171.047.171.234 0 .172-.03.266-.203.704zm0 0"/></symbol><symbol id="v" overflow="visible"><path d="m4.766-2.578c0-.203-.094-.5-.375-.5-.172 0-.36.219-.36.39 0 .235.375.282.375.75 0 .454-.453 1.454-1.234 1.454a.75.75 0 0 1 -.703-.547c.094-.14.25-.625.25-.813 0-.093-.063-.203-.172-.203-.36 0-.39.75-.39 1-.188.25-.548.563-1 .563-.376 0-.641-.344-.641-.813 0-.812.703-1.484.703-1.594 0-.078-.063-.156-.14-.156-.063 0-.11.031-.157.094a2.59 2.59 0 0 0 -.266.406c-.25.422-.422 1-.422 1.516 0 .547.22 1.093.86 1.093.468 0 .875-.296 1.125-.671.14.421.437.671.89.671 1.221.001 1.657-2.062 1.657-2.64zm0 0"/></symbol><symbol id="w" overflow="visible"><path d="m4.39-1.11c.079 0 .204 0 .204-.14s-.125-.14-.203-.14h-3.375c-.079 0-.22 0-.22.14s.141.14.22.14zm0 0"/></symbol><symbol id="x" overflow="visible"><path d="m1.64-1.656c.47 0 .766.297.766.781 0 .516-.312.781-.75.781-.062 0-.656 0-.906-.265.203-.032.266-.172.266-.297a.304.304 0 0 0 -.313-.314c-.156 0-.297.11-.297.328 0 .516.578.75 1.266.75.812 0 1.312-.5 1.312-.984 0-.406-.359-.75-.921-.875.593-.203.75-.578.75-.86 0-.406-.5-.703-1.126-.703-.625 0-1.109.25-1.109.704a.28.28 0 0 0 .281.296.284.284 0 0 0 .282-.296c0-.11-.063-.25-.235-.282.203-.218.656-.234.766-.234.36 0 .61.172.61.516 0 .296-.188.75-.704.78-.14 0-.156 0-.297.016-.047 0-.11 0-.11.079 0 .078.048.078.141.078zm0 0"/></symbol><symbol id="y" overflow="visible"><path d="m2.938-.969h-.22c0 .094-.062.406-.14.453-.031.032-.453.032-.531.032h-.969c.328-.235.688-.516.984-.72.454-.312.876-.593.876-1.124 0-.64-.61-.985-1.313-.985-.672 0-1.172.376-1.172.876 0 .25.219.296.297.296a.283.283 0 0 0 .281-.296.27.27 0 0 0 -.281-.282c.14-.234.438-.375.766-.375.484 0 .89.281.89.766 0 .422-.297.75-.672 1.062l-1.218 1.032c-.047.047-.063.047-.063.078v.156h2.313zm0 0"/></symbol><symbol id="z" overflow="visible"><path d="m1.984-3.172c0-.14-.015-.14-.187-.14-.344.312-.907.312-1 .312h-.078v.219h.078c.11 0 .437-.016.734-.14v2.5c0 .14 0 .202-.531.202h-.25v.219c.266-.016.719-.016 1-.016.297 0 .734 0 1.016.016v-.219h-.25c-.532 0-.532-.062-.532-.203zm0 0"/></symbol><clipPath id="A"><path d="m224 111h3.57v6h-3.57zm0 0"/></clipPath><clipPath id="B"><path d="m74 0h80v227.57h-80zm0 0"/></clipPath><path d="m-113.386 0h226.067" fill="none" stroke="#000" stroke-miterlimit="10" stroke-width=".79701" transform="matrix(1 0 0 -1 113.784 113.785)"/><g clip-path="url(#A)"><path d="m-1.554 2.074c.13-.777 1.555-1.944 1.942-2.074-.388-.13-1.813-1.297-1.942-2.07" style="fill:none;stroke-width:.6376;stroke-linecap:round;stroke-linejoin:round;stroke:#000;stroke-miterlimit:10" transform="matrix(1 0 0 -1 226.464 113.785)"/></g><g><use x="194.459" xlink:href="#a" y="107.575"/><use x="201.792" xlink:href="#b" y="107.575"/><use x="206.22" xlink:href="#c" y="107.575"/></g><use x="210.095" xlink:href="#m" y="107.575"/><use x="215.107" xlink:href="#p" y="109.069"/><use x="219.577" xlink:href="#d" y="107.575"/><path d="m.001-104.883v209.059" fill="none" stroke="#000" stroke-miterlimit="10" stroke-width=".79701" transform="matrix(1 0 0 -1 113.784 113.785)"/><path d="m-1.555 2.073c.129-.777 1.555-1.945 1.945-2.073-.39-.131-1.816-1.294-1.945-2.071" style="fill:none;stroke-width:.6376;stroke-linecap:round;stroke-linejoin:round;stroke:#000;stroke-miterlimit:10" transform="matrix(0 -1 -1 0 113.784 9.609)"/><g><use x="46.571" xlink:href="#e" y="19.898"/><use x="50.168" xlink:href="#f" y="19.898"/><use x="58.47" xlink:href="#c" y="19.898"/></g><use x="62.345" xlink:href="#m" y="19.898"/><use x="67.358" xlink:href="#p" y="21.392"/><use x="71.827" xlink:href="#d" y="19.898"/><path d="m-2.835 96.379h-31.531" fill="none" stroke="#808080" stroke-miterlimit="10" stroke-width=".09962" transform="matrix(1 0 0 -1 113.784 113.785)"/><path d="m.997-85.04a.995.995 0 1 1 -1.99.002.995.995 0 0 1 1.99-.001zm0 0" stroke="#000" stroke-miterlimit="10" stroke-width=".79701" transform="matrix(1 0 0 -1 113.784 113.785)"/><use x="117.503" xlink:href="#u" y="199.416"/><use x="120.775" xlink:href="#v" y="199.416"/><use x="125.794" xlink:href="#w" y="202.017"/><use x="131.191" xlink:href="#x" y="202.017"/><path d="m.997-56.695c0 .55-.445 1-.996 1a.999.999 0 0 1 0-1.997c.55 0 .996.45.996.997zm0 0" stroke="#000" stroke-miterlimit="10" stroke-width=".79701" transform="matrix(1 0 0 -1 113.784 113.785)"/><use x="117.503" xlink:href="#u" y="171.069"/><use x="120.775" xlink:href="#v" y="171.069"/><use x="125.794" xlink:href="#w" y="173.67"/><use x="131.191" xlink:href="#y" y="173.67"/><path d="m.997-28.348a.995.995 0 1 1 -1.99.002.995.995 0 0 1 1.99-.002zm0 0" stroke="#000" stroke-miterlimit="10" stroke-width=".79701" transform="matrix(1 0 0 -1 113.784 113.785)"/><use x="117.503" xlink:href="#u" y="142.723"/><use x="120.775" xlink:href="#v" y="142.723"/><use x="125.794" xlink:href="#w" y="145.324"/><use x="131.191" xlink:href="#z" y="145.324"/><path d="m.997 28.348a.995.995 0 1 1 -1.99.001.995.995 0 0 1 1.99-.002zm0 0" stroke="#000" stroke-miterlimit="10" stroke-width=".79701" transform="matrix(1 0 0 -1 113.784 113.785)"/><use x="117.503" xlink:href="#u" y="86.5"/><use x="120.775" xlink:href="#v" y="86.5"/><use x="125.794" xlink:href="#z" y="88.991"/><path d="m.997 56.695a.998.998 0 0 1 -.996.996.995.995 0 1 1 .996-.996zm0 0" stroke="#000" stroke-miterlimit="10" stroke-width=".79701" transform="matrix(1 0 0 -1 113.784 113.785)"/><use x="117.503" xlink:href="#u" y="58.154"/><use x="120.775" xlink:href="#v" y="58.154"/><use x="125.794" xlink:href="#y" y="60.644"/><path d="m.997 85.039a.995.995 0 1 1 -1.99.002.995.995 0 0 1 1.99-.002zm0 0" stroke="#000" stroke-miterlimit="10" stroke-width=".79701" transform="matrix(1 0 0 -1 113.784 113.785)"/><use x="117.503" xlink:href="#u" y="29.807"/><use x="120.775" xlink:href="#v" y="29.807"/><use x="125.794" xlink:href="#x" y="32.298"/><path d="m.997 0a.995.995 0 1 1 -1.99.002.995.995 0 0 1 1.99-.002zm0 0" stroke="#000" stroke-miterlimit="10" stroke-width=".79701" transform="matrix(1 0 0 -1 113.784 113.785)"/><use x="117.503" xlink:href="#g" y="110.066"/><g clip-path="url(#B)"><path d="m28.345-85.04v170.08c0 15.656-12.688 28.348-28.344 28.348s-28.348-12.692-28.348-28.348m0 0v-170.08c0-15.656 12.692-28.348 28.348-28.348s28.344 12.692 28.344 28.348" fill="none" stroke="#009" stroke-miterlimit="10" stroke-width=".79701" transform="matrix(1 0 0 -1 113.784 113.785)"/></g><g fill="none" stroke-miterlimit="10"><path d="m-1.553 2.072c.129-.777 1.555-1.941 1.941-2.07-.386-.133-1.812-1.297-1.941-2.074" stroke="#009" stroke-linecap="round" stroke-linejoin="round" stroke-width=".6376" transform="matrix(0 -1 -1 0 142.13 199.533)"/><path d="m-1.556 2.072c.133-.777 1.556-1.941 1.946-2.07-.39-.133-1.813-1.297-1.946-2.074" stroke="#009" stroke-linecap="round" stroke-linejoin="round" stroke-width=".6376" transform="matrix(0 -1 -1 0 142.13 54.413)"/><path d="m-1.555 2.07c.129-.776 1.555-1.94 1.945-2.07-.39-.129-1.816-1.297-1.945-2.074" stroke="#009" stroke-linecap="round" stroke-linejoin="round" stroke-width=".6376" transform="matrix(0 1 1 0 85.437 59.133)"/><path d="m-1.554 2.072c.13-.777 1.554-1.944 1.942-2.073-.388-.127-1.811-1.295-1.941-2.069" stroke="#009" stroke-linecap="round" stroke-linejoin="round" stroke-width=".6376" transform="matrix(.21378 .97684 .97684 -.21378 85.941 204.223)"/></g><use fill="#009" x="145.85" xlink:href="#n" y="39.272"/><use x="161.959" xlink:href="#h" y="73.756"/><g><use x="167.773" xlink:href="#i" y="73.756"/><use x="172.754" xlink:href="#j" y="73.756"/><use x="175.522" xlink:href="#b" y="73.756"/><use x="179.949" xlink:href="#k" y="73.756"/></g><g><use x="187.196" xlink:href="#i" y="73.756"/><use x="192.178" xlink:href="#l" y="73.756"/></g><use x="198.544" xlink:href="#o" y="73.756"/><use x="204.284" xlink:href="#c" y="73.756"/><use x="208.159" xlink:href="#m" y="73.756"/><use x="213.171" xlink:href="#p" y="75.25"/><use x="217.64" xlink:href="#d" y="73.756"/><path d="m157.715 28.746a1.41 1.41 0 1 0 -2.82 0c0 .777.632 1.406 1.41 1.406.777 0 1.41-.629 1.41-1.406zm0 0"/><use x="161.83" xlink:href="#m" y="29.922"/><use x="166.843" xlink:href="#q" y="31.416"/><path d="m171.887 170.48a1.41 1.41 0 0 0 -1.41-1.41c-.778 0-1.407.63-1.407 1.41a1.409 1.409 0 0 0 2.816 0zm0 0"/><use x="165.736" xlink:href="#m" y="180.294"/><use x="170.749" xlink:href="#r" y="181.788"/><path d="m30.152 85.438a1.409 1.409 0 1 0 -2.816 0 1.409 1.409 0 1 0 2.816 0zm0 0"/><use x="24.004" xlink:href="#m" y="77.975"/><use x="29.016" xlink:href="#s" y="79.469"/><path d="m58.5 156.305a1.41 1.41 0 1 0 -1.41 1.41c.777 0 1.41-.633 1.41-1.41zm0 0"/><use x="52.35" xlink:href="#m" y="148.841"/><use x="57.363" xlink:href="#t" y="150.335"/><path d="m70.704 51.222-27.027 32.43m32.413-49.832-19.02-88.746m-12.612 97.446-127.703-13.977m147.435 5.277-119.357-75.375" fill="none" stroke="#808080" stroke-miterlimit="10" stroke-width=".09962" transform="matrix(1 0 0 -1 113.784 113.785)"/></svg>