<svg clip-rule="evenodd" fill-rule="evenodd" stroke-linecap="round" stroke-linejoin="round" stroke-miterlimit="1.5" viewBox="0 0 120 120" xmlns="http://www.w3.org/2000/svg"><path d="m64.889 1.011a59.12 59.12 0 0 0 -9.778 0l-4.046 9.476a50.323 50.323 0 0 0 -8.084 2.166l-8.242-6.184a59.33 59.33 0 0 0 -8.468 4.889l1.235 10.23a50.27 50.27 0 0 0 -5.918 5.918l-10.23-1.235a59.33 59.33 0 0 0 -4.889 8.468l6.184 8.242a50.323 50.323 0 0 0 -2.166 8.084l-9.476 4.046a59.12 59.12 0 0 0 0 9.778l9.476 4.046a50.323 50.323 0 0 0 2.166 8.084l-6.184 8.242a59.33 59.33 0 0 0 4.889 8.468l10.23-1.235a50.27 50.27 0 0 0 5.918 5.918l-1.235 10.23a59.33 59.33 0 0 0 8.468 4.889l8.242-6.184c2.63.945 5.334 1.67 8.084 2.166l4.046 9.476c3.254.27 6.524.27 9.778 0l4.046-9.476a50.323 50.323 0 0 0 8.084-2.166l8.242 6.184a59.33 59.33 0 0 0 8.468-4.889l-1.235-10.23a50.27 50.27 0 0 0 5.918-5.918l10.23 1.235a59.33 59.33 0 0 0 4.889-8.468l-6.184-8.242a50.323 50.323 0 0 0 2.166-8.084l9.476-4.046a59.12 59.12 0 0 0 0-9.778l-9.476-4.046a50.323 50.323 0 0 0 -2.166-8.084l6.184-8.242a59.33 59.33 0 0 0 -4.889-8.468l-10.23 1.235a50.27 50.27 0 0 0 -5.918-5.918l1.235-10.23a59.33 59.33 0 0 0 -8.468-4.889l-8.242 6.184a50.323 50.323 0 0 0 -8.084-2.166l-4.046-9.476zm-4.889 14.944c24.309 0 44.045 19.736 44.045 44.045s-19.736 44.045-44.045 44.045-44.045-19.736-44.045-44.045 19.736-44.045 44.045-44.045z" fill="#000154" stroke="#fff" stroke-width=".55"/><circle cx="60" cy="60" fill="#00001d" r="41.742"/><g fill="#fff" font-size="158.333" transform="matrix(.24 0 0 .24 -6.171 7.652)"><text font-family="'TimesNewRomanPSMT', 'Times New Roman', serif" x="124.648" y="273.086">T<tspan x="215.798" y="273.086">i</tspan></text><text font-family="'TimesNewRomanPS-ItalicMT', 'Times New Roman', serif" font-style="italic" x="259.788" y="273.086">k</text><text font-family="'TimesNewRomanPSMT', 'Times New Roman', serif" x="330.063" y="273.086">Z</text></g></svg>