<svg height="328.317" viewBox="0 0 240.877 246.238" width="321.169" xmlns="http://www.w3.org/2000/svg" xmlns:xlink="http://www.w3.org/1999/xlink"><symbol id="a" overflow="visible"><path d="m4.922-3.625c.375-.11.766-.219 1.062-.516.266-.28.391-.64.391-1.015 0-.453-.188-.922-.531-1.219-.625-.547-1.578-.547-2.36-.547h-2.124c-.39 0-.453.219-.453.484v5.985c0 .422.266.437.5.437h2.438c1.125 0 2.844-.156 2.844-1.906 0-1.062-.844-1.594-1.766-1.703zm-2.656 2.75v-2.375h1.156c.765 0 1.937.125 1.937 1.266 0 .984-1 1.109-1.765 1.109zm0-3.094v-2.11h1.031c.672 0 1.781.048 1.781.985 0 .969-1.031 1.125-1.781 1.125zm0 0"/></symbol><symbol id="b" overflow="visible"><path d="m3.656-.453c0 .39.235.453.5.453.094 0 .188-.016.266-.016h.11c.218 0 .452-.03.452-.421v-3.704c0-.39-.25-.437-.468-.437h-.454c-.359 0-.437.234-.437.484v1.938c0 .11.016.25.016.36 0 .624-.313 1.28-1.079 1.28h-.109c-.328-.015-.5-.093-.5-.687v-2.922c0-.266-.094-.453-.39-.453h-.5c-.329 0-.47.156-.47.453v2.766c0 .296.016.593.157.859.25.516.938.61 1.453.61.531 0 1.063-.157 1.453-.563zm0 0"/></symbol><symbol id="c" overflow="visible"><path d="m1.89-4v-.172c0-.328-.156-.469-.468-.469h-.406c-.282 0-.422.188-.422.454v3.734c0 .422.281.437.515.437h.422c.407 0 .422-.28.422-.5v-2.078c0-.703.375-1.375 1.11-1.375h.093c.469.078.469.406.469.735v2.78c0 .25.094.438.375.438h.516c.312 0 .468-.125.468-.437v-2.625c0-.344 0-.719-.171-1.031-.25-.47-.782-.579-1.25-.579-.626 0-1.157.188-1.672.688zm0 0"/></symbol><symbol id="d" overflow="visible"><path d="m3.656-4.328c-.422-.234-.781-.36-1.297-.36-.5 0-1.046.172-1.406.516-.5.5-.578 1.266-.578 1.922 0 .64.11 1.328.547 1.797.344.39.906.547 1.422.547.484 0 .844-.14 1.281-.422.047.297.281.312.484.312h.407c.218 0 .468-.046.468-.437 0-.078-.015-.156-.015-.219v-5.875c0-.062.015-.125.015-.219 0-.406-.265-.437-.515-.437h-.375c-.25 0-.438.094-.438.422zm-1.936 2.422v-.453c0-.688.062-1.61 1.093-1.61.266 0 .75.125.813.36v2.406c0 .344-.547.578-.922.578-.265 0-.547-.094-.703-.297-.234-.281-.234-.656-.281-.984zm0 0"/></symbol><symbol id="e" overflow="visible"><path d="m1.578-2.14h2.719c.281 0 .484-.094.484-.438 0-.578-.11-1.25-.578-1.672-.39-.36-.937-.5-1.469-.5-.656 0-1.312.125-1.812.61-.5.468-.61 1.187-.625 1.827 0 .641.156 1.266.594 1.735.5.531 1.265.672 1.968.672.485 0 .97-.11 1.407-.297l.296-.14c.079-.048.157-.094.157-.188 0-.016-.016-.047-.016-.078l-.031-.5c-.031-.063-.031-.172-.125-.172-.047 0-.094.031-.14.062-.438.36-.954.61-1.548.61-.343 0-.703-.094-.937-.375-.266-.297-.344-.766-.344-1.157zm.016-.641c.015-.64.375-1.25 1.093-1.25.797 0 .985.672.985 1.25zm0 0"/></symbol><symbol id="f" overflow="visible"><path d="m1.906-4.75c-.718.078-1.531.313-1.531 1.406 0 .75.578 1.266 1.266 1.438.453.125 1.25.11 1.312.64v.047c0 .485-.437.547-.765.547-.61 0-1.032-.25-1.5-.719-.032-.03-.063-.062-.11-.062-.172 0-.265.766-.265.937 0 .204.437.344.671.422.391.14.797.188 1.204.188.796 0 1.765-.219 1.765-1.485 0-.765-.562-1.312-1.219-1.5-.421-.125-1.375-.062-1.375-.703.063-.328.282-.422.547-.437h.157c.515 0 .874.14 1.328.5.03.031.078.062.125.062.171 0 .25-.672.25-.812 0-.297-1.047-.469-1.579-.469zm0 0"/></symbol><symbol id="g" overflow="visible"><path d="m2.5-1.14c-.094-.22-.14-.438-.203-.657-.11-.328-.219-.64-.328-.969l-.328-1c-.125-.375-.141-.812-.75-.812h-.266c-.188 0-.36.062-.36.281s.188.594.266.89c.297.97.61 1.954.953 2.923.079.328.266.468.594.468h.75c.516 0 .578-.25.797-.875.344-1.015.656-2.046.984-3.062.047-.094.11-.219.11-.344 0-.25-.219-.281-.375-.281h-.235c-.484 0-.578.266-.703.656-.25.735-.484 1.469-.719 2.203-.062.188-.109.39-.187.578zm0 0"/></symbol><symbol id="h" overflow="visible"><path d="m2.516-4.75c-1.063.14-2.204.453-2.204 2.516 0 .609.126 1.25.563 1.703.453.484 1.172.625 1.844.625 1.156 0 2.437-.39 2.437-2.313 0-.672-.11-1.375-.578-1.875-.484-.547-1.25-.656-1.922-.656zm-.844 2.75v-.484c0-.672 0-1.547 1.078-1.547.656 0 .969.422 1.031 1.015.031.22.031.438.031.657v.078c0 .672-.03 1.61-1.078 1.61-.312 0-.625-.11-.828-.36-.218-.266-.203-.64-.234-.969zm0 0"/></symbol><symbol id="i" overflow="visible"><path d="m1.89-3.875v-.328c0-.344-.218-.438-.484-.438h-.39c-.282 0-.407.172-.407.454v3.671c0 .282.063.5.485.5h.422c.25 0 .421-.125.421-.468v-1.672c0-.922.547-1.438 1.391-1.516h.063c.125 0 .156-.078.156-.187v-.641c0-.14-.063-.188-.156-.188-.547 0-1.266.36-1.5.813zm0 0"/></symbol><symbol id="j" overflow="visible"><path d="m.906-4.578h-.234c-.281 0-.469.125-.469.36 0 .234.172.374.453.374.078 0 .156-.015.219-.015v2.359c0 .688.078 1.594 1.063 1.594.578 0 1.093-.157 1.625-.406.062-.032.14-.079.156-.157 0-.062-.047-.156-.047-.234l-.063-.203c-.015-.047-.062-.14-.125-.14-.078 0-.187.109-.28.171a1.186 1.186 0 0 1 -.626.203c-.36 0-.422-.469-.422-.844 0-.125.016-.234.016-.312v-2.032h.937c.282 0 .422-.141.422-.36 0-.218-.156-.36-.406-.36h-.953v-.89c0-.234-.125-.406-.422-.406h-.36c-.234 0-.484.047-.484.422zm0 0"/></symbol><symbol id="k" overflow="visible"><path d="m3.266-2.906c-1.11 0-2.954.203-2.954 1.515 0 .797.61 1.485 1.47 1.485.546 0 1.093-.157 1.515-.5 0 .344.265.406.5.406.094 0 .187-.016.265-.016h.11c.219 0 .453-.062.453-.437v-2.86c-.078-1.217-1.172-1.437-2.031-1.437-.563 0-1.094.094-1.61.328-.109.047-.265.078-.265.234 0 .313.015.844.187.844.094 0 .203-.14.297-.219.375-.328.86-.484 1.375-.484.547 0 .688.406.688.89zm0 .578v.812c0 .516-.422.891-.954.891-.421 0-.703-.375-.703-.75 0-.797 1.11-.906 1.657-.953zm0 0"/></symbol><symbol id="l" overflow="visible"><path d="m2.797-7.14c-.594.077-1.094.109-1.547.5-.469.39-.64 1-.64 1.593 0 1.016.812 1.781 1.75 2 .734.203 1.874.219 1.874 1.203 0 .75-.578.969-1.156.969-.75 0-1.515-.25-2.11-.813-.045-.03-.108-.092-.17-.092-.172 0-.203.64-.266.937-.015.063-.047.14-.047.219 0 .094.063.14.141.172a4.755 4.755 0 0 0 2.422.672c.61 0 1.312-.125 1.781-.531.469-.422.64-1.079.64-1.688 0-.953-.624-1.781-1.515-2.11-.719-.25-2.094-.187-2.094-1.171 0-.766.766-.844 1.22-.844h.108c.563.078.97.188 1.454.672.046.047.109.094.171.094.11 0 .125-.11.125-.204l.094-.515c.016-.125.078-.297.078-.438 0-.296-1.156-.593-1.765-.625h-.39zm0 0"/></symbol><symbol id="m" overflow="visible"><path d="m.906-7.203a.382.382 0 0 0 -.297.328v6.422c0 .375.235.453.485.453.093 0 .172-.016.25-.016h.14c.235 0 .438-.078.454-.328v-6.436c0-.36-.25-.438-.485-.438-.094 0-.172.016-.25.016h-.296zm0 0"/></symbol><symbol id="n" overflow="visible"><path d="m.906-4.563c-.203.032-.312.22-.312.422 0 .079.015.141.015.22v3.421c0 .375.172.5.485.5.093 0 .172-.016.25-.016h.14c.235 0 .454-.078.454-.437v-3.641c0-.375-.188-.484-.485-.484h-.406c-.047 0-.094 0-.14.016zm-.046-2.64c-.187.031-.296.172-.296.36v.609c0 .39.25.437.5.437h.468c.25 0 .438-.11.438-.39v-.594c0-.39-.25-.438-.5-.438h-.47c-.047 0-.094 0-.14.016zm0 0"/></symbol><symbol id="o" overflow="visible"><path d="m.813-.297c-.392.203-.563.531-.563.938 0 1.25 1.531 1.406 2.484 1.406 1.032 0 2.485-.14 2.485-1.485 0-1.437-1.438-1.484-2.516-1.484h-.843c-.28 0-.53-.062-.609-.453 0-.078 0-.14.031-.203.36.14.735.187 1.125.187.86 0 2.031-.218 2.031-1.64a1.94 1.94 0 0 0 -.234-.938c.266 0 .531 0 .797.031.047.016.11.016.156.016.094 0 .172-.047.172-.14 0-.094-.047-.22-.047-.297-.047-.157-.015-.329-.25-.329-.39 0-.828.094-1.172.22-.046.015-.093.046-.14.046a1.385 1.385 0 0 1 -.266-.125 3.192 3.192 0 0 0 -1.015-.14c-.86 0-1.938.218-2.016 1.53v.095c0 .374.094.703.281 1.015.031.047.094.094.094.14 0 .079-.14.282-.188.423a1.669 1.669 0 0 0 -.046.39c0 .282.078.563.25.797zm.468 1v-.078c0-.313.172-.469.547-.469h1.156c.438 0 1.141.016 1.22.453 0 .672-.907.72-1.47.72-.53 0-1.375-.032-1.453-.626zm.422-3.5v-.328c0-.438.094-.86.703-.86.516 0 .75.22.75.922v.141c0 .375-.031.813-.719.813-.203 0-.421-.032-.578-.172-.109-.14-.14-.328-.156-.516zm0 0"/></symbol><symbol id="p" overflow="visible"><path d="m2.86-3.844a70.642 70.642 0 0 0 -2.33 2.922c-.125.156-.234.281-.234.5 0 .25.14.406.437.406h3.237c.281 0 .422-.156.422-.359 0-.234-.141-.375-.438-.375h-.172c-.656 0-1.312.016-1.984.016a59.979 59.979 0 0 0 2.328-2.938c.125-.14.25-.265.25-.484 0-.375-.266-.422-.5-.422h-2.985c-.266 0-.438.156-.438.375s.172.375.438.375h.14c.61 0 1.219-.016 1.828-.016zm0 0"/></symbol><symbol id="q" overflow="visible"><path d="m2.328-2.688h1.172c1.063 0 2.438-.03 2.813-1.484.062-.187.078-.39.078-.578 0-.578-.157-1.156-.579-1.578-.609-.594-1.515-.594-2.312-.594h-2.11c-.25 0-.484.078-.484.422v5.984c0 .25.047.5.438.5h.515c.172 0 .47-.03.47-.406zm-.031-.78v-2.61h1.172c.453 0 .969.016 1.312.36.25.25.266.609.266.952 0 .422-.047.797-.453 1.094-.328.188-.735.203-1.11.203zm0 0"/></symbol><symbol id="r" overflow="visible"><path d="m2.14-5.734c.141.296.313.593.47.906.765 1.406 1.468 2.89 2.25 4.297.187.312.312.515.843.515h.781c.25 0 .516 0 .516-.468v-5.954c0-.453-.219-.484-.484-.484h-.266c-.234 0-.484.031-.484.453v5.266c-.25-.39-.438-.844-.657-1.266-.656-1.234-1.312-2.5-1.968-3.75-.094-.187-.188-.406-.329-.547-.187-.156-.421-.156-.656-.156h-.546c-.078 0-.156-.016-.25-.016-.296 0-.453.141-.453.485v5.983c0 .266.094.453.422.453h.313c.25 0 .5-.046.5-.453v-.219zm0 0"/></symbol><symbol id="s" overflow="visible"><path d="m2.516-4.75c-.672.078-1.313.219-1.766.875-.297.453-.375 1-.375 1.516 0 .656.11 1.328.547 1.828.469.484 1.172.625 1.828.625.578 0 1.14-.125 1.64-.406.079-.047.173-.094.173-.188 0-.344-.032-.828-.188-.828-.094 0-.39.297-.594.406-.265.14-.562.219-.844.235h-.14c-.985 0-1.078-.86-1.078-1.641 0-.688.031-1.547.968-1.64h.126c.53 0 .843.14 1.312.53.047.032.078.047.125.047.125 0 .125-.14.14-.234.032-.188.094-.375.094-.578 0-.14-.25-.219-.406-.297a3.134 3.134 0 0 0 -1.25-.25zm0 0"/></symbol><symbol id="t" overflow="visible"><path d="m1.922-4.031v-2.735c0-.421-.266-.437-.5-.437h-.39c-.25 0-.438.11-.438.453v6.281c0 .281.125.453.437.453h.438c.312 0 .484-.109.484-.468v-1.736c0-.11-.016-.234-.016-.36 0-.655.36-1.39 1.11-1.39.562 0 .578.406.578.766v2.75c0 .25.11.437.375.437h.516c.312 0 .468-.125.468-.437v-2.625c0-.344 0-.703-.156-1.031-.25-.47-.797-.579-1.266-.579-.624 0-1.093.157-1.64.657zm0 0"/></symbol><symbol id="u" overflow="visible"><path d="m.86-4.578h-.127c-.25 0-.437.125-.437.36 0 .218.156.359.406.359h.158v3.187c0 .063-.015.14-.015.219 0 .39.265.437.515.437h.36c.39 0 .468-.218.468-.484v-3.36h.547c.235 0 .407-.156.407-.359s-.141-.36-.407-.36h-.578v-1.218c0-.36.031-.797.672-.797.344 0 .5.14.75.328.031.032.063.047.094.047.125 0 .125-.11.125-.187v-.36c0-.078.015-.156.015-.218 0-.297-.484-.329-.796-.329h-.188c-.547 0-1.156.079-1.547.516-.282.313-.391.719-.422 1.125zm0 0"/></symbol><symbol id="v" overflow="visible"><path d="m3.656-.453c0 .39.235.453.5.453.094 0 .188-.016.266-.016h.11c.218 0 .452-.03.452-.421v-3.704c0-.39-.25-.437-.468-.437h-.454c-.359 0-.437.234-.437.484v1.938c0 .11.016.25.016.36 0 .624-.313 1.28-1.079 1.28h-.109c-.328-.015-.5-.093-.5-.687v-2.922c0-.266-.094-.453-.39-.453h-.5c-.329 0-.47.156-.47.453v2.766c0 .296.016.593.157.859.25.516.938.61 1.453.61.531 0 1.063-.157 1.453-.563zm-2.344-6.469c-.25 0-.296.313-.296.484v.454c0 .421.234.468.5.468h.484c.219 0 .438-.078.438-.359v-.64c0-.376-.282-.407-.5-.407h-.625zm2.141 0a.353.353 0 0 0 -.297.36v.64c0 .39.266.406.5.406h.453c.422 0 .454-.25.454-.5v-.437c0-.422-.235-.469-.5-.469zm0 0"/></symbol><symbol id="w" overflow="visible"><path d="m2.75 1.672c-.36-.125-.672-.234-.984-.5l-.079-.078c-.358-.344-.546-.969-.03-1.594l1.671 1.688c.531-.516.985-1.391.235-2.157-.657-.656-1.672-.562-2.313.063-.656.656-.531 1.734.078 2.344.266.265.625.5.969.593.062 0 .11.031.156-.015.11-.094.188-.235.297-.344zm-.734-2.438c.39-.187.859-.187 1.203.141.312.313.344.734.11 1.188zm0 0"/></symbol><symbol id="x" overflow="visible"><path d="m2.766-.14.578-.297-.266-.5-2.797 1.467.281.547 1.25-.656c.673-.359 1.361-.046 1.688.579l.484-.266c-.234-.453-.656-.734-1.218-.874zm0 0"/></symbol><symbol id="y" overflow="visible"><path d="m.86.063-.564.061c-.062.485-.046.939.079 1.376.172.563.61 1.11 1.297.906.469-.14.672-.61.672-1.047 0-.14 0-.265-.031-.406-.017-.233-.142-.733.187-.828.313-.094.484.266.547.469.11.36.125.672.062 1.015 0 .047-.015.079-.015.141l.531-.063c.047-.406-.016-.78-.125-1.156-.156-.531-.547-1.14-1.234-.937-.438.125-.625.547-.625.969-.016.437.25 1.171-.204 1.312-.312.094-.5-.297-.578-.547-.139-.437-.109-.828.001-1.266zm0 0"/></symbol><symbol id="z" overflow="visible"><path d="m4.063.266-.892.124-.094-.657-.437.063.093.64-1.578.204c-.405.063-1.109.172-1.03.78.063.407.219.75.406 1.11l.453-.187c-.156-.25-.265-.406-.296-.672-.047-.36.343-.438.578-.469l1.546-.202.141 1.078.438-.062-.141-1.079.89-.125zm0 0"/></symbol><symbol id="A" overflow="visible"><path d="m.719 3.14c-.172-.342-.313-.655-.329-1.061v-.11c0-.5.312-1.062 1.125-1.124l-.047 2.375c.734.015 1.687-.25 1.703-1.328.015-.922-.75-1.594-1.64-1.61-.938-.015-1.61.813-1.626 1.672a2.4 2.4 0 0 0 .235 1.11c.03.046.047.093.109.093.14.016.313-.015.469-.015zm1.234-2.233c.406.156.734.5.734.969-.015.453-.28.766-.765.906zm0 0"/></symbol><symbol id="B" overflow="visible"><path d="m4.75 1.328-4.844-.718-.078.594 4.844.719zm0 0"/></symbol><symbol id="C" overflow="visible"><path d="m4.61 1.781-4.75-1.187-.157.594 4.75 1.187zm0 0"/></symbol><symbol id="D" overflow="visible"><path d="m-.547 3.172c-.031-.39-.031-.719.094-1.094l.047-.11c.203-.452.703-.859 1.484-.609l-.953 2.172c.672.297 1.64.422 2.078-.562.375-.844-.078-1.766-.89-2.125-.86-.375-1.813.125-2.158.906a2.394 2.394 0 0 0 -.203 1.125c.016.063.016.11.063.14.14.063.296.094.437.157zm1.985-1.578c.328.281.5.75.312 1.172-.188.421-.547.593-1.063.546zm0 0"/></symbol><symbol id="E" overflow="visible"><path d="m1.11 2.672.374.344.407-.422-2.297-2.156-.438.468 1.14 1.078c.313.297.735.844.282 1.313-.14.156-.36.328-.594.297-.171-.031-.312-.156-.421-.266l-1.438-1.344-.453.485 1.187 1.125c.094.078.172.156.266.25.234.203.484.406.813.422.28.015.562-.172.765-.391.313-.328.453-.75.406-1.203zm0 0"/></symbol><symbol id="F" overflow="visible"><path d="m-2.86-1.5c.391.094.72.203 1.016.438l.094.062c.375.344.594.938.125 1.61l-1.781-1.58c-.485.563-.89 1.438-.094 2.14.703.626 1.703.47 2.297-.202.625-.703.437-1.735-.219-2.313-.281-.25-.656-.468-1.016-.531-.046-.016-.093-.031-.124.016-.094.109-.204.25-.297.359zm.891 2.39c-.375.22-.843.235-1.203-.078-.328-.296-.39-.687-.203-1.171zm0 0"/></symbol><symbol id="G" overflow="visible"><path d="m-5.61-.234 1.876-.954c-.063.407 0 .844.187 1.204.39.765 1.344.812 2.047.453.672-.344 1.234-1.14.86-1.89-.204-.391-.532-.657-.922-.829l.328-.172-.297-.578-4.36 2.219zm3.907.078c-.031.015-.063.047-.094.047-.5.265-1.172.187-1.5-.438a1 1 0 0 1 -.062-.734c.03-.032.03-.078.062-.094l1.219-.61c.265-.14.734.266.828.454.281.562.016 1.078-.453 1.375zm0 0"/></symbol><symbol id="H" overflow="visible"><path d="m-3.156.25 2.984-.844-.156-.578-2.985.844zm-1.625.531.734-.203-.203-.734-.734.203zm0 0"/></symbol><symbol id="I" overflow="visible"><path d="m-4.047-.203.875-.125.094.64.453-.062-.094-.625 1.563-.234c.406-.063 1.11-.188 1.015-.813-.062-.406-.234-.734-.421-1.094l-.454.188c.157.25.266.39.313.656.047.36-.328.453-.578.484l-1.532.235-.156-1.063-.453.063.156 1.062-.875.125zm0 0"/></symbol><symbol id="J" overflow="visible"><path d="m-3.11-.5 3.094-.11-.03-.609-3.095.11zm-1.718.125.75-.016-.031-.765-.75.015zm0 0"/></symbol><symbol id="K" overflow="visible"><path d="m-.484-3.188c.156.36.265.688.25 1.079v.109c-.047.484-.407 1.047-1.22 1.047l.22-2.36c-.72-.078-1.688.126-1.782 1.204-.093.906.625 1.64 1.5 1.718.938.079 1.688-.703 1.766-1.546a2.472 2.472 0 0 0 -.172-1.125c-.015-.047-.031-.094-.094-.11-.14-.015-.312 0-.468-.015zm-1.391 2.126c-.39-.172-.703-.547-.656-1 .047-.454.328-.75.828-.86zm0 0"/></symbol><symbol id="L" overflow="visible"><path d="m-2.14-1.766-.626-.171-.14.546 3.062.797.157-.594-1.36-.359c-.75-.187-1.047-.844-.875-1.547l-.531-.14c-.125.5-.016 1 .312 1.468zm0 0"/></symbol><symbol id="M" overflow="visible"><path d="m.672-3.156c.015.39 0 .734-.14 1.094l-.048.109c-.218.453-.734.844-1.5.547l1.032-2.125c-.657-.328-1.625-.485-2.094.484-.406.828.015 1.766.812 2.156.844.407 1.813-.062 2.188-.828a2.6 2.6 0 0 0 .234-1.125c0-.062 0-.11-.062-.14-.125-.063-.282-.11-.422-.172zm-2.047 1.515c-.328-.312-.469-.765-.266-1.187.204-.406.579-.578 1.079-.5zm0 0"/></symbol><symbol id="N" overflow="visible"><path d="m-.953-2.734-.344-.375-.422.406 2.157 2.297.468-.438-1.062-1.14c-.313-.313-.703-.891-.235-1.344.157-.14.391-.297.61-.25.203.015.328.156.437.265l1.344 1.438.469-.453-1.125-1.203-.25-.25c-.204-.235-.438-.422-.766-.469-.297-.031-.578.125-.797.328-.328.313-.5.735-.484 1.188zm0 0"/></symbol><symbol id="O" overflow="visible"><path d="m-3.14-.078 3.046-.516-.11-.61-3.046.516zm-1.704.344.75-.125-.125-.75-.75.125zm0 0"/></symbol><symbol id="P" overflow="visible"><path d="m-2.375-1.672-.5-.094-.11.594 3.095.594.125-.64-1.53-.298c-.438-.078-1.095-.312-.97-.968.047-.188.141-.454.36-.563.156-.078.328-.047.484-.015l1.938.374.125-.64-1.61-.313c-.125-.015-.234-.046-.36-.062-.296-.063-.609-.094-.905.062-.235.141-.375.454-.438.75-.078.438.016.875.297 1.22zm0 0"/></symbol><symbol id="Q" overflow="visible"><path d="m-1.328-2.063c.047-.124.062-.265.094-.374a1.64 1.64 0 0 1 .359-.672l.078-.094c.25-.281.688-.235 1 .047.047.062.11.125.172.172-.547.593-1.328 1.671-.781 2.171.36.329.922.344 1.265-.046.297-.313.579-.766.61-1.172l.203.187.422-.453-1.438-1.297c-.578-.531-1.328-.437-1.797.078-.25.282-.453.625-.562.97-.016.077-.063.14 0 .202.11.094.266.172.375.281zm2-.64.187.172c.329.297.25.687-.093 1.062-.188.203-.547.438-.797.219-.235-.203.14-.672.25-.86.11-.171.218-.296.328-.437l.062-.078c.032-.016.047-.047.063-.078zm0 0"/></symbol><symbol id="R" overflow="visible"><path d="m-1.531-4.703 2.11 4.422.483-.219-.422-.875.312-.797 1.75.86.578-.266-2.156-1.078.656-1.625-.61.297-.81 1.953-1.39-2.906zm0 0"/></symbol><symbol id="S" overflow="visible"><path d="m-.063-4.063.188.86-.64.14.093.454.625-.141.344 1.547c.078.406.25 1.094.86.969.39-.094.718-.266 1.062-.5l-.219-.422c-.219.187-.375.297-.64.343-.344.079-.454-.296-.516-.53l-.328-1.517 1.062-.235-.094-.453-1.062.235-.188-.86zm0 0"/></symbol><symbol id="T" overflow="visible"><path d="m.375-3.125.234 3.078.61-.047-.235-3.078zm-.219-1.719.063.75.765-.047-.062-.75zm0 0"/></symbol><symbol id="U" overflow="visible"><path d="m.344-3.063 1.078 3.173.703.047 1.531-2.984-.562-.047-.969 1.874-.203.422-.094.281-.047-.203-.25-.813-.578-1.717h-.062zm0 0"/></symbol><symbol id="V" overflow="visible"><path d="m1.313-2.875-.72 3.016.595.14.718-3.015zm.312-1.688-.172.735.75.172.172-.735zm0 0"/></symbol><symbol id="W" overflow="visible"><path d="m3.172.547c-.39.047-.735.047-1.11-.094l-.092-.047c-.453-.203-.86-.703-.61-1.469l2.172.97c.297-.673.438-1.641-.547-2.079-.843-.375-1.765.063-2.125.89-.39.846.11 1.799.89 2.142a2.39 2.39 0 0 0 1.125.204c.063-.016.11-.016.125-.063.063-.125.11-.313.172-.453zm-1.578-1.985c.297-.328.75-.5 1.187-.296.406.171.594.562.531 1.062zm0 0"/></symbol><symbol id="X" overflow="visible"><path d="m2.531-1.14.422-.485-.422-.375-2.061 2.39.453.407.922-1.063c.5-.578 1.234-.546 1.781-.078l.344-.422c-.39-.343-.875-.453-1.438-.375zm0 0"/></symbol><symbol id="Y" overflow="visible"><path d="m2.078 2.453c-.312-.219-.578-.437-.781-.781l-.047-.094c-.219-.453-.219-1.094.484-1.516l1.047 2.126c.656-.329 1.375-1 .906-1.97-.406-.827-1.406-1.062-2.203-.671-.843.406-1.062 1.469-.687 2.233.172.344.453.672.75.875.031.031.062.063.125.031.125-.062.266-.171.406-.234zm.078-2.547c.422-.047.875.11 1.094.531.188.407.094.813-.266 1.157zm0 0"/></symbol><symbol id="Z" overflow="visible"><path d="m2.578 1.328.516.031.031-.593-3.156-.172-.032.64 1.563.079c.438.03 1.11.171 1.078.828-.015.203-.078.484-.265.609-.141.11-.329.094-.485.094l-1.969-.11-.047.657 1.641.093c.125 0 .234 0 .36.016.312.016.64 0 .89-.188.235-.171.328-.5.344-.796a1.48 1.48 0 0 0 -.469-1.188zm0 0"/></symbol><symbol id="aa" overflow="visible"><path d="m.016 3.219c-.11-.375-.172-.719-.11-1.094l.032-.11c.109-.484.546-.984 1.343-.859l-.561 2.314c.719.172 1.687.125 1.953-.922.219-.906-.39-1.719-1.25-1.922-.906-.234-1.75.422-1.953 1.25a2.347 2.347 0 0 0 0 1.14c.015.063.015.11.062.126.14.03.328.046.485.078zm1.687-1.906c.36.25.61.656.5 1.125-.11.437-.453.671-.953.703zm0 0"/></symbol><symbol id="ab" overflow="visible"><path d="m2.25 1.61.64.124.11-.562-3.11-.578-.109.61 1.375.25c.766.14 1.094.796.969 1.5l.547.093c.094-.5-.047-.985-.422-1.438zm0 0"/></symbol><symbol id="ac" overflow="visible"><path d="m.75.406-.531-.156c-.25.406-.422.813-.485 1.266-.062.593.11 1.28.813 1.359.484.063.875-.281 1.047-.688.047-.124.093-.234.125-.374.078-.235.172-.735.515-.688.329.047.344.422.313.64-.047.376-.156.688-.36.97a.468.468 0 0 1 -.062.124l.484.157c.204-.344.313-.72.375-1.11.063-.547-.046-1.265-.75-1.343-.453-.063-.796.234-.968.609-.204.39-.235 1.187-.704 1.125-.328-.047-.342-.469-.312-.735.047-.452.234-.78.5-1.155zm0 0"/></symbol><symbol id="ad" overflow="visible"><path d="m3.922 1.063-.875-.063.031-.656-.453-.031-.031.64-1.578-.093c-.422-.03-1.126-.063-1.172.562-.032.406.062.766.172 1.172l.468-.094c-.093-.281-.171-.453-.156-.719.031-.36.422-.36.672-.343l1.547.093-.078 1.078.453.032.078-1.079.875.063zm0 0"/></symbol><symbol id="ae" overflow="visible"><path d="m.781 3.125c-.187-.344-.328-.656-.36-1.047v-.11c0-.5.298-1.077 1.11-1.155v2.375c.735 0 1.672-.282 1.672-1.36 0-.922-.781-1.578-1.672-1.578-.937 0-1.593.844-1.593 1.703 0 .375.093.797.265 1.11.031.046.047.093.11.093.14 0 .312-.031.468-.031zm1.189-2.25c.406.14.75.484.75.953 0 .453-.266.766-.75.922zm0 0"/></symbol><symbol id="af" overflow="visible"><path d="m4.922.344-4.89.265.03.61 4.892-.266zm0 0"/></symbol><symbol id="ag" overflow="visible"><path d="m4.938.156-4.875.454.046.61 4.875-.454zm0 0"/></symbol><symbol id="ah" overflow="visible"><path d="m1.219 2.984c-.219-.312-.407-.609-.5-.984l-.016-.11c-.062-.5.14-1.124.938-1.312l.343 2.36c.72-.11 1.61-.532 1.454-1.594-.142-.922-1.017-1.438-1.892-1.314-.921.141-1.452 1.064-1.327 1.923.061.36.203.767.421 1.047.046.047.062.094.125.078.14-.015.312-.078.453-.094zm.86-2.406c.405.078.812.375.874.844.063.437-.156.781-.61 1.016zm0 0"/></symbol><symbol id="ai" overflow="visible"><path d="m2.828.578.5-.11-.125-.577-3.078.687.14.625 1.533-.343c.422-.093 1.125-.125 1.266.516.046.203.046.469-.11.656-.11.14-.281.188-.437.219l-1.922.422.14.64 1.61-.359c.11-.015.219-.047.344-.078.296-.063.609-.156.812-.422.156-.234.172-.562.094-.86-.094-.437-.36-.78-.766-1.015zm0 0"/></symbol><symbol id="aj" overflow="visible"><path d="m.781 3.125c-.187-.344-.328-.656-.36-1.047v-.11c0-.5.298-1.077 1.11-1.155v2.375c.735 0 1.672-.282 1.672-1.36 0-.922-.781-1.578-1.672-1.578-.937 0-1.593.844-1.593 1.703 0 .375.093.797.265 1.11.031.046.047.093.11.093.14 0 .312-.031.468-.031zm1.189-2.25c.406.14.75.484.75.953 0 .453-.266.766-.75.922zm0 0"/></symbol><symbol id="ak" overflow="visible"><path d="m4.89 2.75h-2.092a2.04 2.04 0 0 0 .375-1.156c0-.86-.844-1.328-1.625-1.328-.766 0-1.61.453-1.61 1.296 0 .438.157.829.438 1.157h-.376v.656h4.89zm-3.436-1.844h.11c.562 0 1.125.375 1.125 1.078 0 .266-.094.5-.282.688-.031.015-.062.047-.094.047h-1.359c-.312 0-.531-.578-.531-.797 0-.625.469-.953 1.031-1.016zm0 0"/></symbol><symbol id="al" overflow="visible"><path d="m3.094.61h-3.094v.609h3.094zm1.719-.08h-.75v.766h.75zm0 0"/></symbol><symbol id="am" overflow="visible"><path d="m3.984.797h-.89v-.657h-.454v.64h-1.578c-.421 0-1.125.016-1.125.64 0 .407.11.766.25 1.157l.47-.125c-.127-.264-.205-.436-.205-.702 0-.36.39-.39.64-.39h1.548v1.077h.453v-1.077h.89zm0 0"/></symbol><symbol id="an" overflow="visible"><path d="m2.516 1.172h.64v-.563h-3.156v.61h1.406c.766 0 1.219.578 1.219 1.297h.547c0-.516-.219-.97-.656-1.344zm0 0"/></symbol><symbol id="ao" overflow="visible"><path d="m2.64 1.188h.516v-.594h-3.156v.64h1.563c.437 0 1.125.11 1.125.766 0 .203-.047.484-.235.625-.14.11-.328.11-.484.11h-1.969v.656h2c.313 0 .625-.032.875-.235.219-.187.297-.515.297-.812a1.5 1.5 0 0 0 -.531-1.156zm0 0"/></symbol><symbol id="ap" overflow="visible"><path d="m3.11-.484-2.908 1.062.219.563 2.907-1.063zm1.593-.672-.703.25.266.719.703-.25zm0 0"/></symbol><symbol id="aq" overflow="visible"><path d="m2.875.36.5-.157-.188-.578-3.015.938.187.609 1.485-.469c.422-.125 1.125-.219 1.312.406.063.204.094.485-.031.657-.11.156-.281.218-.438.265l-1.874.579.187.624 1.563-.484c.124-.047.234-.078.343-.11.297-.093.594-.218.781-.484.141-.25.126-.578.047-.86a1.547 1.547 0 0 0 -.859-.936zm0 0"/></symbol><symbol id="ar" overflow="visible"><path d="m2.453.078c.078.125.188.203.266.281.172.22.25.454.328.688l.031.11c.078.374-.187.702-.594.796l-.234.047c-.188-.781-.64-2.047-1.344-1.875-.484.11-.812.578-.686 1.078.093.406.312.906.625 1.156l-.281.063.14.61 1.89-.438c.75-.188 1.11-.86.954-1.547a2.705 2.705 0 0 0 -.485-1c-.046-.063-.062-.14-.156-.11-.14.032-.297.11-.453.141zm-.593 2.016-.25.047c-.437.109-.718-.188-.843-.672-.063-.266-.047-.719.28-.797.298-.063.485.5.579.719.078.171.11.343.172.515l.015.094c.015.031.015.063.046.094zm0 0"/></symbol><symbol id="as" overflow="visible"><path d="m4.922-.11-4.828.75.093.516.954-.156.671.547-1.328 1.422.094.625 1.656-1.75 1.36 1.078-.11-.672-1.64-1.328 3.172-.485zm0 0"/></symbol><symbol id="at" overflow="visible"><path d="m4.031.453-.89.078-.047-.656-.453.031.046.64-1.562.141c-.422.033-1.125.11-1.063.735.032.406.172.75.344 1.125l.469-.172c-.156-.25-.25-.406-.266-.672-.03-.36.36-.422.61-.437l1.531-.141.094 1.063.453-.032-.094-1.062.89-.078zm0 0"/></symbol><symbol id="au" overflow="visible"><path d="m3.125.484-3.094.126.016.61 3.094-.125zm1.703-.14-.75.031.031.766.75-.032zm0 0"/></symbol><symbol id="av" overflow="visible"><path d="m3.094.156-3.125 1.266v.703l3.062 1.36.016-.579-1.922-.844-.438-.171-.296-.094.203-.047.797-.297 1.687-.687v-.063zm0 0"/></symbol><symbol id="aw" overflow="visible"><path d="m3.031.844-3.078-.235-.047.61 3.078.234zm1.719.046-.75-.062-.047.766.75.062zm0 0"/></symbol><symbol id="ax" overflow="visible"><path d="m.375 3.188c-.14-.344-.234-.672-.219-1.079l.016-.109c.062-.5.437-1.016 1.234-.984l-.296 2.343c.735.094 1.688-.078 1.829-1.14.124-.906-.563-1.656-1.454-1.766-.921-.125-1.687.61-1.796 1.469-.047.375-.016.812.124 1.14.032.047.032.094.094.11.14.015.313 0 .469.015zm1.469-2.063c.39.172.687.563.625 1.031-.063.453-.36.735-.875.828zm0 0"/></symbol><symbol id="ay" overflow="visible"><path d="m2.25 1.625.625.125.11-.563-3.095-.592-.125.61 1.375.265c.765.14 1.093.797.968 1.5l.532.094c.093-.5-.032-.985-.391-1.438zm0 0"/></symbol><symbol id="az" overflow="visible"><path d="m-.016 3.219c-.093-.375-.156-.719-.093-1.094l.03-.11c.126-.484.563-.984 1.36-.859l-.578 2.314c.719.172 1.703.125 1.953-.922.235-.89-.375-1.703-1.234-1.922-.906-.234-1.75.422-1.969 1.25-.078.36-.094.797 0 1.14.016.063.031.11.078.126.14.03.313.046.453.078zm1.704-1.89c.359.234.625.655.5 1.109-.11.453-.454.671-.954.718zm0 0"/></symbol><symbol id="aA" overflow="visible"><path d="m2.156 1.938.485.156.171-.563-3-.968-.187.609 1.484.484c.422.14 1.032.453.829 1.078-.063.188-.188.438-.422.516-.157.063-.344 0-.485-.047l-1.875-.61-.203.626 1.563.5c.109.047.218.078.343.125.297.094.61.156.907.047.25-.11.437-.391.53-.672.142-.438.095-.89-.14-1.281zm0 0"/></symbol><symbol id="aB" overflow="visible"><path d="m.484-3.188c.047.391.047.735-.078 1.11l-.031.11c-.203.452-.688.859-1.469.624l.922-2.187c-.687-.281-1.656-.39-2.078.61-.36.843.11 1.75.938 2.093.859.36 1.796-.156 2.125-.938a2.62 2.62 0 0 0 .187-1.14c-.016-.064-.016-.094-.063-.125-.14-.047-.312-.094-.453-.156zm-1.953 1.61c-.328-.281-.515-.719-.343-1.156.171-.422.546-.61 1.062-.563zm0 0"/></symbol><symbol id="aC" overflow="visible"><path d="m-1.781-2.14-.578-.266-.235.515 2.86 1.344.25-.562-1.266-.594c-.703-.328-.86-1.047-.547-1.703l-.5-.235c-.219.47-.219.97.016 1.5zm0 0"/></symbol><symbol id="aD" overflow="visible"><path d="m-.563-.656.438.36c.375-.299.688-.642.906-1.049.281-.514.329-1.217-.281-1.545-.453-.234-.922-.03-1.234.282a4.94 4.94 0 0 0 -.25.312c-.157.188-.407.625-.72.469-.28-.156-.171-.531-.062-.734.172-.329.375-.547.657-.766.046-.031.078-.063.109-.078l-.406-.344a3.412 3.412 0 0 0 -.735.922c-.25.484-.39 1.203.25 1.531.391.219.813.047 1.11-.266.312-.296.625-1 1.047-.78.296.155.171.562.046.796-.203.406-.5.656-.875.89zm0 0"/></symbol><symbol id="aE" overflow="visible"><path d="m-3.047-2.688.781.454-.328.562.39.219.314-.547 1.36.797c.375.203.984.547 1.297 0 .203-.344.28-.719.375-1.125l-.47-.125c-.03.297-.046.469-.187.703-.171.313-.53.156-.75.031l-1.329-.781.532-.938-.391-.218-.531.937-.782-.453zm0 0"/></symbol><symbol id="aF" overflow="visible"><path d="m1.031-3.047c-.015.375-.062.719-.265 1.063l-.063.093c-.265.422-.828.75-1.547.375l1.297-1.984c-.625-.406-1.562-.672-2.156.234-.5.766-.188 1.75.562 2.235.782.5 1.782.14 2.25-.578a2.47 2.47 0 0 0 .375-1.079c0-.046.032-.109-.03-.14-.11-.078-.298-.14-.423-.219zm-2.218 1.25c-.266-.344-.36-.812-.11-1.203.25-.39.64-.5 1.125-.375zm0 0"/></symbol><symbol id="aG" overflow="visible"><path d="m-3.656-3.313 4 2.813.36-.5-4-2.813zm0 0"/></symbol><symbol id="aH" overflow="visible"><path d="m-3.563-3.406 3.923 2.922.375-.5-3.921-2.922zm0 0"/></symbol><symbol id="aI" overflow="visible"><path d="m1.36-2.906c-.079.375-.173.703-.376 1.031l-.078.078c-.312.39-.906.656-1.578.203l1.485-1.86c-.579-.452-1.47-.827-2.141.017-.578.718-.39 1.718.297 2.28.718.595 1.765.36 2.312-.312.235-.297.422-.687.485-1.031 0-.063.03-.11-.032-.156-.109-.078-.25-.156-.375-.25zm-2.344.984c-.22-.375-.266-.86.03-1.219.282-.343.673-.421 1.157-.234zm0 0"/></symbol><symbol id="aJ" overflow="visible"><path d="m-1.156-2.64-.39-.36-.407.438 2.343 2.124.437-.484-1.156-1.047c-.328-.297-.766-.828-.328-1.312.14-.156.375-.328.61-.313.155.016.296.14.421.235l1.453 1.328.453-.485-1.219-1.093a3.42 3.42 0 0 0 -.264-.251c-.235-.203-.5-.39-.797-.406-.313-.015-.594.188-.781.407a1.446 1.446 0 0 0 -.375 1.218zm0 0"/></symbol><symbol id="aK" overflow="visible"><path d="m.125-.188.344-.5-.781-1.218.062-.125 1.063-1.547.093-.125.094.015 1.016.22.312.046.063-.031.39-.594c-.172-.047-.328-.078-.515-.125-1.407-.312-2.86-.61-4.297-.906-.156-.031-.281-.11-.344-.016-.016.047-.047.063-.063.11l-.203.28c0 .016-.015.032-.046.079-.063.078.015.14.062.203l.172.297c.219.328.406.625.625.953l1.281 1.985c.219.328.406.687.672 1zm-.719-2.109c-.156-.25-.328-.5-.484-.75-.281-.406-.531-.812-.828-1.172-.063-.093-.125-.187-.219-.234l.36.094.515.14 1.719.39zm0 0"/></symbol><symbol id="aL" overflow="visible"><path d="m-1.5-2.484-.422-.297-.328.5 2.594 1.797.36-.532-1.282-.89c-.36-.25-.875-.735-.5-1.266.11-.172.312-.375.547-.375.172-.015.328.094.453.188l1.625 1.109.375-.547-1.344-.937a1.99 1.99 0 0 1 -.297-.204c-.265-.171-.531-.312-.86-.28-.28.03-.53.25-.702.484a1.55 1.55 0 0 0 -.219 1.25zm0 0"/></symbol><symbol id="aM" overflow="visible"><path d="m-2.11-2.375-.328.453.376.25.328-.453 2.171 1.5.344-.5-2.172-1.5.47-.688-.376-.25-.484.688-.688-.469c-.297-.219-.25-.562-.047-.875.125-.172.282-.328.454-.453l-.454-.312c-.125.156-.28.312-.39.468-.281.407-.406.954-.016 1.516.125.14.266.234.406.328zm0 0"/></symbol><symbol id="aN" overflow="visible"><path d="m-1.406-2.39-.516-.376-.328.47 2.594 1.796.344-.5-1.158-.797c-.625-.437-.672-1.172-.265-1.766l-.454-.312a1.747 1.747 0 0 0 -.218 1.484zm0 0"/></symbol><symbol id="aO" overflow="visible"><path d="m-1.594-1.875c.032-.125.016-.25.032-.375.046-.266.156-.5.28-.719l.063-.078c.235-.328.657-.344 1-.094.063.032.11.094.188.141-.453.656-1.079 1.844-.469 2.25a.87.87 0 0 0 1.234-.219c.25-.344.47-.828.438-1.234l.234.156.36-.515-1.594-1.095c-.64-.453-1.375-.235-1.781.344-.204.296-.36.656-.407 1.015-.03.078-.062.14.016.203.125.078.281.125.406.219zm1.89-.89.204.14c.375.25.36.656.063 1.063-.157.234-.485.515-.75.328-.266-.188.03-.688.109-.907l.281-.468.063-.079a.254.254 0 0 0 .03-.078zm0 0"/></symbol><symbol id="aP" overflow="visible"><path d="m.203-.703c-.062.25.063.61.313.781.593.406 1.421-.375 1.75-.86a2.55 2.55 0 0 0 .421-.937c.079-.343.063-.797-.25-1.031l-.046-.016c-.766-.421-1.375.391-1.672.829l-.39.562c-.126.172-.329.219-.5.094l-.032-.016c-.047-.047-.078-.094-.125-.14.234-.141.422-.25.578-.485.375-.516.313-1.281-.234-1.672a1.094 1.094 0 0 0 -.688-.187l.313-.453.28-.375c-.202-.11-.437-.22-.483-.157l-.032.032c-.187.28-.36.671-.453 1.03l.078-.03c-.265.109-.5.296-.672.515-.328.5-.359 1.266.235 1.672a1 1 0 0 0 .578.203c.047 0 .11-.015.125 0 .047.032.094.203.156.282.047.078.125.14.203.203a.868.868 0 0 0 .547.156zm.517-.267.5-.719c.218-.312.61-.812.937-.578.36.25-.203 1.125-.265 1.235-.22.312-.75.89-1.063.672-.204-.124-.204-.421-.111-.61zm-2.016-1.906c.016-.016.016-.063.031-.094.204-.297.563-.422.97-.14.312.218.405.609.171.937-.203.313-.578.453-.969.172-.312-.203-.375-.547-.203-.875zm0 0"/></symbol><symbol id="aQ" overflow="visible"><path d="m1.125-3.016c-.031.375-.094.735-.297 1.063l-.062.094c-.282.421-.86.718-1.563.312l1.344-1.953c-.594-.406-1.531-.703-2.156.188-.516.75-.25 1.734.484 2.234.781.531 1.797.203 2.281-.5.219-.313.375-.703.407-1.047.015-.078.03-.11-.016-.14-.125-.079-.297-.172-.422-.25zm-2.25 1.188c-.25-.36-.344-.844-.078-1.219s.656-.484 1.14-.328zm0 0"/></symbol><symbol id="aR" overflow="visible"><path d="m-.484-.703.406.375c.422-.25.75-.547 1-.922.344-.484.484-1.156-.094-1.563-.406-.28-.89-.14-1.25.126-.094.093-.187.171-.281.296-.172.157-.485.563-.766.36-.281-.188-.11-.531.016-.719.219-.313.453-.516.766-.672.03-.047.062-.062.109-.094l-.375-.359c-.344.219-.61.5-.828.813-.313.453-.532 1.14.062 1.546.375.266.797.141 1.14-.125.345-.25.735-.921 1.141-.656.266.188.094.578-.062.797-.25.375-.563.594-.984.797zm0 0"/></symbol><symbol id="aS" overflow="visible"><path d="m-2.828-2.922.734.516-.375.547.375.25.36-.532 1.296.891c.344.25.938.625 1.298.11.22-.329.344-.688.454-1.094l-.47-.157c-.046.297-.077.485-.218.704-.203.296-.547.078-.766-.063l-1.265-.875.625-.875-.375-.25-.625.875-.735-.516zm0 0"/></symbol><symbol id="aT" overflow="visible"><path d="m-3.688-3.281 4.033 2.781.343-.5-4.032-2.781zm0 0"/></symbol><symbol id="aU" overflow="visible"><path d="m-1.86-4.531 2.486 4.156.531-.313-2.187-3.656 4.093 2.375.11.063.094-.032.78-.468-2.484-4.156-.546.312 2.187 3.656-4.078-2.39-.126-.032-.078.016zm0 0"/></symbol><symbol id="aV" overflow="visible"><path d="m-2.219-4.36 2.781 3.97.61-.438-1.313-1.875 2.094-1.453 1.313 1.875.609-.438-2.781-3.969-.61.438 1.188 1.703-2.094 1.453-1.187-1.703zm0 0"/></symbol><symbol id="aW" overflow="visible"><path d="m-1.047-1.438.281.344 1.61-1.281-.281-.344zm0 0"/></symbol><symbol id="aX" overflow="visible"><path d="m-2.672-4.063 3.188 3.61 2.718-2.407-.39-.438-2.156 1.908-1.11-1.265 1.906-1.688-.328-.36-1.906 1.688-1.031-1.171 2.078-1.83-.328-.375zm0 0"/></symbol><symbol id="aY" overflow="visible"><path d="m-1.047-2.703-.375-.36-.406.422 2.25 2.221.437-.454-1.109-1.095c-.313-.312-.734-.875-.266-1.343.141-.141.391-.313.61-.282.187.016.312.156.422.266l1.406 1.375.453-.469-1.172-1.156-.25-.25c-.219-.219-.469-.406-.781-.438-.297-.015-.578.172-.797.375a1.516 1.516 0 0 0 -.422 1.188zm0 0"/></symbol><symbol id="aZ" overflow="visible"><path d="m-1.906-5.281 1.593 1.375a1.955 1.955 0 0 0 -1.046.625c-.563.64-.235 1.562.359 2.062.578.5 1.516.719 2.063.078.296-.328.421-.734.437-1.171l.281.25.422-.485-3.703-3.203zm1.406 3.64c-.031-.015-.063-.046-.094-.062-.422-.375-.594-1.016-.14-1.547a.912.912 0 0 1 .656-.344c.031.016.094 0 .11.016l1.03.89c.235.204.032.782-.125.954-.406.468-.968.421-1.437.093zm0 0"/></symbol><symbol id="a0" overflow="visible"><path d="m1.266-2.953c-.047.375-.125.703-.329 1.047l-.078.093c-.296.391-.89.672-1.578.25l1.439-1.889c-.578-.453-1.5-.797-2.156.062-.563.735-.329 1.72.375 2.266.75.563 1.765.281 2.296-.39.22-.313.407-.688.47-1.048 0-.046 0-.109-.048-.14-.11-.094-.265-.156-.39-.25zm-2.297 1.062c-.25-.359-.297-.828-.016-1.203.266-.36.672-.453 1.156-.281zm0 0"/></symbol><symbol id="a1" overflow="visible"><path d="m-1.688-2.36-.437-.265-.297.516 2.719 1.593.328-.546-1.344-.797c-.375-.22-.922-.657-.578-1.22.094-.187.266-.39.516-.421.156-.031.328.063.453.14l1.703 1 .344-.562-1.344-.797c-.375-.219-.922-.64-.594-1.219.11-.187.281-.39.531-.421.157-.016.329.062.454.14l1.703 1 .328-.562-1.719-1c-.203-.125-.437-.235-.672-.25-.39-.032-.687.234-.875.531-.219.39-.312.953-.11 1.328-.515-.016-.75.156-.984.547a1.5 1.5 0 0 0 -.125 1.266zm0 0"/></symbol><symbol id="a2" overflow="visible"><path d="m.672-3.156c.015.39 0 .734-.14 1.094l-.048.109c-.218.453-.734.844-1.5.547l1.032-2.125c-.657-.328-1.61-.485-2.094.484-.406.828.015 1.766.812 2.156.844.407 1.813-.062 2.188-.828a2.6 2.6 0 0 0 .234-1.125c0-.062.016-.11-.047-.14-.125-.063-.296-.11-.437-.172zm-2.047 1.515c-.328-.312-.469-.765-.266-1.187.204-.406.579-.578 1.079-.5zm0 0"/></symbol><symbol id="a3" overflow="visible"><path d="m-4.234-2.531 4.484 1.969.234-.547-4.484-1.971zm0 0"/></symbol><symbol id="a4" overflow="visible"><path d="m-3.563-4.328 1.954.75a2.029 2.029 0 0 0 -.766.937c-.313.797.297 1.547 1.031 1.829.703.28 1.672.156 1.969-.625.156-.407.14-.829.016-1.235l.343.14.235-.609-4.563-1.765zm2.532 2.953c-.032 0-.063-.031-.094-.031-.531-.203-.906-.75-.656-1.407a.958.958 0 0 1 .5-.546c.031 0 .078-.016.11-.016l1.265.5c.297.11.297.719.218.922-.234.594-.796.719-1.343.578zm0 0"/></symbol><symbol id="a5" overflow="visible"><path d="m.25-3.219c.063.39.094.735 0 1.125l-.031.094c-.172.484-.625.938-1.422.75l.75-2.266c-.703-.218-1.688-.25-2.016.782-.297.875.25 1.734 1.094 2.015.89.297 1.781-.297 2.047-1.125.125-.343.156-.781.094-1.125-.016-.061-.016-.11-.079-.125-.14-.046-.295-.078-.437-.125zm-1.844 1.766c-.343-.266-.562-.703-.406-1.14.14-.438.484-.641.984-.641zm0 0"/></symbol><symbol id="a6" overflow="visible"><path d="m-2.234-1.844-.5-.14-.157.562 3.047.844.172-.61-1.5-.421c-.422-.11-1.062-.407-.89-1.032.062-.203.187-.453.406-.546.156-.079.343-.016.5.015l1.89.531.172-.625-1.578-.437c-.125-.031-.234-.063-.344-.094-.312-.094-.625-.14-.906-.015-.266.124-.437.421-.516.703-.124.437-.046.875.204 1.265zm0 0"/></symbol><symbol id="a7" overflow="visible"><path d="m3.078-.703-2.828 1.265.25.547 2.828-1.265zm1.531-.781-.687.296.312.704.688-.297zm0 0"/></symbol><symbol id="a8" overflow="visible"><path d="m2.89-.063.47-.218-.266-.547-2.844 1.36.281.577 1.406-.671c.392-.188 1.063-.377 1.345.202.094.187.172.453.063.671-.078.157-.25.235-.39.313l-1.782.844.297.594 1.484-.704c.11-.062.203-.109.313-.156.296-.14.562-.297.687-.594.124-.264.046-.608-.079-.874a1.53 1.53 0 0 0 -.984-.796zm0 0"/></symbol><symbol id="a9" overflow="visible"><path d="m2.406-.531c.11.094.203.14.328.203.204.172.344.375.485.594l.047.093c.171.344 0 .735-.375.922-.079.032-.157.063-.22.094-.357-.703-1.107-1.813-1.764-1.469a.889.889 0 0 0 -.407 1.204c.188.375.531.797.89.97l-.25.124.298.563 1.718-.891c.688-.36.86-1.094.531-1.719a2.719 2.719 0 0 0 -.703-.875c-.062-.047-.093-.11-.171-.062-.126.062-.266.172-.407.25zm-.11 2.094-.218.109c-.39.219-.734.016-.969-.438-.125-.25-.218-.687.079-.828.28-.156.578.36.734.547.11.14.187.297.297.453l.047.078a.12.12 0 0 0 .03.079zm0 0"/></symbol><symbol id="ba" overflow="visible"><path d="m4.578-1.844-4.266 2.407.266.453.844-.47.797.25-.735 1.813.313.563.922-2.219 1.671.547-.343-.61-2-.671 2.812-1.579zm0 0"/></symbol><symbol id="bb" overflow="visible"><path d="m3.813-1.375-.766.453-.328-.562-.375.234.328.547-1.36.828c-.358.219-.952.594-.624 1.125.22.344.5.594.813.86l.328-.36c-.234-.156-.39-.266-.531-.484-.188-.313.125-.547.344-.672l1.327-.814.562.922.375-.234-.562-.922.765-.453zm0 0"/></symbol><symbol id="bc" overflow="visible"><path d="m2.938-1.14-2.61 1.655.328.515 2.61-1.656zm1.406-1-.64.406.421.64.64-.406zm0 0"/></symbol><symbol id="bd" overflow="visible"><path d="m2.625-1.64-1.828 2.811.39.594 3.297-.657-.328-.468-2.062.421-.453.079-.297.109.14-.156.485-.719 1-1.516-.031-.046zm0 0"/></symbol><symbol id="be" overflow="visible"><path d="m2.875-1.297-2.516 1.797.344.484 2.517-1.796zm1.36-1.062-.626.437.438.625.625-.437zm0 0"/></symbol><symbol id="bf" overflow="visible"><path d="m2.5 2.031c-.36-.172-.656-.328-.906-.625l-.063-.078c-.297-.406-.421-1.047.172-1.594l1.438 1.891c.593-.438 1.171-1.234.515-2.094-.547-.734-1.562-.781-2.281-.25-.75.563-.766 1.625-.25 2.313.234.297.563.593.875.718.063.032.11.047.156.016.11-.078.219-.203.344-.297zm-.39-2.515c.39-.141.874-.079 1.156.296.28.376.25.782-.032 1.204zm0 0"/></symbol><symbol id="bg" overflow="visible"><path d="m2.703-.656.5-.39-.36-.454-2.467 1.969.39.484 1.094-.875c.61-.484 1.313-.312 1.766.25l.438-.344c-.329-.406-.782-.625-1.36-.64zm0 0"/></symbol><symbol id="bh" overflow="visible"><path d="m2.61 1.89c-.36-.156-.672-.296-.938-.562l-.078-.094c-.314-.374-.469-1.014.11-1.593l1.53 1.812c.563-.483 1.094-1.297.391-2.125-.594-.703-1.625-.703-2.297-.125-.718.594-.672 1.672-.11 2.328.235.297.595.547.907.688.047 0 .094.031.14-.016.11-.094.235-.219.344-.312zm-.548-2.483c.406-.156.89-.125 1.187.235.297.359.297.765.031 1.187zm0 0"/></symbol><symbol id="bi" overflow="visible"><path d="m2.766-.875.375-.344-.407-.453-2.343 2.11.437.484 1.156-1.047c.329-.297.907-.672 1.36-.188.125.157.281.391.234.625-.031.172-.172.297-.281.407l-1.469 1.311.438.485 1.218-1.094c.094-.094.172-.156.266-.25.234-.203.453-.422.5-.75.031-.281-.125-.578-.328-.797a1.444 1.444 0 0 0 -1.156-.5zm0 0"/></symbol><symbol id="bj" overflow="visible"><path d="m2.969-.86-2.531 2.205.234.672 3.344.28-.188-.546-2.094-.172-.453-.016-.312.016.172-.14.64-.532 1.375-1.187-.015-.063zm0 0"/></symbol><symbol id="bk" overflow="visible"><path d="m1.875 2.61c-.297-.25-.531-.485-.719-.844l-.031-.094c-.188-.469-.125-1.11.594-1.484l.89 2.203c.688-.282 1.438-.875 1.032-1.875-.329-.86-1.297-1.188-2.125-.844-.876.344-1.172 1.36-.86 2.156.14.344.39.703.672.938.047.03.078.078.14.062.126-.062.266-.156.407-.219zm.281-2.533c.422-.031.875.172 1.047.61.172.421.047.812-.36 1.125zm0 0"/></symbol><symbol id="bl" overflow="visible"><path d="m2.781 0 .578-.266-.234-.515-2.86 1.328.25.562 1.283-.593c.687-.329 1.344 0 1.64.656l.5-.234c-.218-.47-.609-.783-1.156-.938zm0 0"/></symbol><symbol id="bm" overflow="visible"><path d="m2.89-.281.438-.25-.297-.516-2.734 1.563.312.562 1.361-.781c.374-.219 1.03-.453 1.359.11.093.171.202.437.093.655-.063.172-.219.25-.36.329l-1.703.984.329.563 1.359-.782c.375-.219 1.015-.453 1.344.11.109.187.203.453.109.671-.078.157-.234.25-.375.329l-1.703.984.328.547 1.719-.984c.218-.126.422-.266.562-.454.203-.328.125-.718-.047-1.03-.218-.376-.656-.735-1.078-.75.266-.438.219-.735 0-1.141a1.45 1.45 0 0 0 -1.015-.72zm0 0"/></symbol><symbol id="bn" overflow="visible"><path d="m2.906-1.234-2.562 1.734.344.516 2.562-1.736zm1.375-1.032-.625.422.438.64.625-.421zm0 0"/></symbol><symbol id="bo" overflow="visible"><path d="m3.672-1.734-.719.53-.39-.53-.36.265.39.516-1.265.937c-.344.266-.906.688-.531 1.188.25.328.547.547.89.781l.313-.375c-.266-.14-.438-.234-.594-.437-.218-.297.078-.547.282-.704l1.25-.921.64.859.36-.266-.641-.859.719-.531zm0 0"/></symbol><symbol id="bp" overflow="visible"><path d="m3.578-1.938-.687.579-.422-.5-.344.28.406.485-1.219 1.016c-.312.266-.842.734-.452 1.218.266.312.563.515.922.718l.282-.39c-.266-.125-.438-.219-.594-.422-.235-.281.062-.531.25-.703l1.187-.985.688.829.344-.282-.688-.828.688-.578zm0 0"/></symbol><symbol id="bq" overflow="visible"><path d="m2.703 1.75c-.375-.125-.687-.25-.969-.516l-.078-.078c-.343-.36-.515-.984.016-1.61l1.625 1.735c.531-.5 1.031-1.343.297-2.125-.625-.687-1.656-.625-2.297-.015-.688.639-.594 1.703-.017 2.328.266.281.61.531.969.625.047.015.094.047.14 0 .094-.094.188-.235.313-.344zm-.672-2.453c.39-.172.875-.156 1.203.187.313.329.329.735.079 1.188zm0 0"/></symbol><symbol id="br" overflow="visible"><path d="m3.844-3.078-3.406 3.5.437.422 3.406-3.5zm0 0"/></symbol><symbol id="bs" overflow="visible"><path d="m2.625-1.203.344-.39-.438-.391-2.078 2.374.469.421 1.031-1.17c.281-.329.828-.766 1.313-.344.156.14.343.36.312.594 0 .171-.11.312-.219.421l-1.296 1.486.484.437 1.078-1.235c.078-.094.156-.172.234-.266.204-.234.407-.484.407-.812 0-.297-.188-.578-.407-.766a1.537 1.537 0 0 0 -1.234-.36zm0 0"/></symbol><symbol id="bt" overflow="visible"><path d="m2.563 1.953c-.36-.156-.657-.312-.938-.594l-.063-.093c-.312-.391-.437-1.032.142-1.579l1.484 1.844c.579-.468 1.141-1.265.454-2.11-.579-.718-1.594-.75-2.297-.187-.72.579-.705 1.672-.173 2.329.234.296.578.562.906.703.063.015.094.03.156-.016.11-.078.204-.203.329-.297zm-.485-2.5c.406-.14.89-.094 1.188.266.28.36.265.765-.016 1.187zm0 0"/></symbol><symbol id="bu" overflow="visible"><path d="m2.703-.594.516-.375-.328-.453-2.516 1.906.36.485 1.124-.86c.61-.453 1.329-.265 1.766.297l.438-.328c-.313-.406-.782-.625-1.36-.672zm0 0"/></symbol><symbol id="bv" overflow="visible"><path d="m.828-.219-.5.25c.094.469.266.89.532 1.25.344.485.938.844 1.5.438.407-.297.454-.797.297-1.219-.047-.11-.095-.234-.157-.36-.11-.203-.375-.656-.11-.843.266-.203.563.078.688.265.219.297.344.594.39.938.016.047.016.094.032.14l.484-.234a3.25 3.25 0 0 0 -.5-1.047c-.328-.453-.89-.89-1.484-.468-.36.265-.406.718-.266 1.109.125.422.641 1 .25 1.281-.265.203-.578-.093-.734-.297-.266-.374-.375-.764-.422-1.203zm0 0"/></symbol><symbol id="bw" overflow="visible"><path d="m3.75-1.594-.734.5-.375-.547-.375.266.359.531-1.313.89c-.342.236-.906.642-.562 1.158.234.344.516.578.86.813l.312-.36c-.25-.14-.406-.234-.563-.453-.203-.297.11-.547.313-.687l1.281-.877.61.89.374-.265-.609-.891.735-.5zm0 0"/></symbol><symbol id="bx" overflow="visible"><path d="m2.344 2.203c-.344-.172-.64-.375-.86-.687l-.062-.094c-.266-.422-.328-1.063.312-1.563l1.282 2c.609-.39 1.25-1.14.671-2.046-.5-.782-1.5-.922-2.25-.438-.796.516-.89 1.578-.437 2.297.203.312.516.625.828.797.047.031.078.047.14.015.11-.078.25-.203.376-.28zm-.219-2.531c.422-.094.906 0 1.156.406.25.375.172.781-.14 1.172zm0 0"/></symbol><symbol id="by" overflow="visible"><path d="m4.5-2.016-4.188 2.532.313.53 4.188-2.53zm0 0"/></symbol><symbol id="bz" overflow="visible"><path d="m4.531-1.938-4.218 2.471.296.515 4.22-2.469zm0 0"/></symbol><symbol id="bA" overflow="visible"><path d="m2.188 2.36c-.329-.204-.61-.422-.813-.75l-.047-.094c-.25-.438-.266-1.079.406-1.532l1.141 2.079c.64-.36 1.344-1.063.813-2.016-.438-.797-1.438-1-2.22-.563-.827.454-1 1.5-.593 2.25.188.344.484.657.781.86.047.015.078.047.14.015.11-.062.25-.171.391-.25zm-.048-2.548c.421-.063.89.062 1.109.468s.156.797-.203 1.172zm0 0"/></symbol><symbol id="bB" overflow="visible"><path d="m2.89-.14.454-.235-.266-.531-2.812 1.436.296.563 1.392-.703c.389-.203 1.046-.406 1.343.172.094.188.187.454.078.672-.078.157-.25.235-.39.313l-1.75.89.296.579 1.469-.75a2.86 2.86 0 0 0 .313-.157c.28-.14.562-.296.687-.593.094-.282.031-.594-.11-.86a1.512 1.512 0 0 0 -1-.797zm0 0"/></symbol><symbol id="bC" overflow="visible"><path d="m3.266-3.656-2.672 4.046.531.343 2.36-3.562-.391 4.734.015.125.063.063.75.5 2.672-4.047-.516-.344-2.36 3.563.391-4.735-.015-.11-.047-.062zm0 0"/></symbol><symbol id="bD" overflow="visible"><path d="m3.563-3.36-3.033 3.783.594.469 1.423-1.783 1.983 1.594-1.42 1.781.594.47 3.03-3.783-.593-.469-1.297 1.626-1.985-1.594 1.297-1.624zm0 0"/></symbol><symbol id="bE" overflow="visible"><path d="m1.266-1.266-.313.329 1.517 1.405.31-.328zm0 0"/></symbol><symbol id="bF" overflow="visible"><path d="m3.953-2.844-3.469 3.344 2.516 2.61.422-.407-2-2.078 1.203-1.172 1.766 1.844.359-.328-1.766-1.844 1.126-1.094 1.922 2 .36-.344zm0 0"/></symbol><symbol id="bG" overflow="visible"><path d="m2.797-.781.39-.328-.39-.454-2.422 2.017.406.5 1.203-1c.344-.281.938-.64 1.36-.125.125.156.281.39.219.625-.033.187-.173.296-.298.406l-1.515 1.25.422.5 1.265-1.046c.094-.079.172-.157.282-.235.234-.187.437-.422.515-.734.032-.281-.109-.594-.296-.828a1.536 1.536 0 0 0 -1.141-.547zm0 0"/></symbol><symbol id="bH" overflow="visible"><path d="m5.578-.625-1.703 1.234a2.02 2.02 0 0 0 -.36-1.156c-.515-.703-1.467-.593-2.108-.14-.611.453-1.032 1.296-.547 1.983.266.36.61.578 1.032.687l-.297.22.375.53 3.967-2.858zm-3.86.516c.016-.016.063-.047.079-.063.453-.328 1.14-.344 1.547.219a.912.912 0 0 1 .172.719c-.032.03-.016.062-.047.093l-1.094.782c-.266.187-.781-.157-.906-.329-.375-.515-.188-1.046.25-1.421zm0 0"/></symbol><symbol id="bI" overflow="visible"><path d="m2.313 2.25c-.344-.203-.61-.39-.86-.703l-.047-.094c-.265-.422-.328-1.078.328-1.578l1.25 2.016c.626-.391 1.282-1.125.704-2.047-.485-.781-1.516-.906-2.266-.438-.797.5-.89 1.547-.438 2.281.204.313.5.625.813.797.047.032.094.063.14.016.125-.063.25-.172.375-.25zm-.173-2.563c.406-.093.89.032 1.14.422.235.391.172.797-.156 1.172zm0 0"/></symbol><symbol id="bJ" overflow="visible"><path d="m2.906-.016.469-.218-.25-.532-2.875 1.313.266.578 1.421-.656c.392-.172 1.063-.375 1.329.219.093.187.171.484.062.687-.078.14-.25.219-.39.281l-1.797.828.28.594 1.423-.656c.39-.172 1.047-.375 1.328.219.078.203.172.484.062.687-.093.14-.25.219-.39.281l-1.797.829.265.593 1.797-.828c.235-.11.454-.219.61-.406.234-.313.203-.703.047-1.031-.188-.407-.594-.797-1.016-.844.313-.422.297-.719.11-1.14a1.446 1.446 0 0 0 -.954-.798zm0 0"/></symbol><symbol id="bK" overflow="visible"><path d="m1.797 2.672c-.281-.266-.531-.5-.703-.86l-.032-.109c-.171-.469-.092-1.11.658-1.453l.797 2.234c.686-.25 1.483-.843 1.123-1.859-.313-.86-1.282-1.219-2.125-.906-.875.311-1.203 1.328-.906 2.14.125.344.36.704.625.954.047.03.079.078.141.046.125-.046.281-.14.422-.187zm.343-2.516c.437-.015.89.203 1.046.64.157.423.016.813-.406 1.11zm0 0"/></symbol><symbol id="bL" overflow="visible"><path d="m4.86-.875-4.674 1.453.172.578 4.673-1.453zm0 0"/></symbol><symbol id="bM" overflow="visible"><path d="m5.422 1.438-2.031.515c.156-.375.187-.812.093-1.203-.218-.828-1.171-1.078-1.921-.89-.75.186-1.438.858-1.236 1.67.11.422.36.75.719 1l-.36.094.157.64 4.734-1.218zm-3.782-.923a.29.29 0 0 1 .11-.031c.547-.14 1.188.079 1.36.766.062.25.03.5-.11.734a.27.27 0 0 1 -.078.063l-1.313.344c-.296.078-.671-.422-.718-.641-.157-.61.218-1.031.75-1.234zm0 0"/></symbol><symbol id="bN" overflow="visible"><path d="m1.36 2.922c-.25-.297-.454-.594-.548-.953l-.015-.11c-.094-.499.078-1.125.86-1.359l.452 2.328c.72-.14 1.579-.578 1.375-1.64-.171-.908-1.062-1.392-1.937-1.236-.922.189-1.407 1.141-1.234 1.985.062.36.234.766.468 1.032.047.031.063.078.125.062.125-.031.297-.094.453-.11zm.75-2.438c.406.063.828.329.906.797.093.438-.11.797-.563 1.047zm0 0"/></symbol><symbol id="bO" overflow="visible"><path d="m2.781.828.5-.062-.078-.579-3.125.408.078.625 1.547-.203c.438-.063 1.14-.032 1.234.625.016.203.016.484-.156.656-.125.125-.312.14-.469.172l-1.953.25.079.64 1.625-.218c.124-.016.234-.032.359-.047.312-.031.625-.11.828-.344.203-.219.234-.531.188-.828a1.526 1.526 0 0 0 -.658-1.095zm0 0"/></symbol><symbol id="bP" overflow="visible"><path d="m4.64-1.563-4.311 2.205.313.625 1.406-.72 1.281.47-1.375 2.78.344.688 1.578-3.187.047-.047h.062l2.563.922-.344-.656-3.517-1.298 2.267-1.157zm0 0"/></symbol><symbol id="bQ" overflow="visible"><path d="m3.672-.047c-.453-.625-1.36-1.047-2.25-.531l-.063.031c-.765.517-.843 1.531-.437 2.25.422.734 1.39 1.172 2.234.688.797-.47 1.047-1.516.578-2.344zm-1.922.031c.031-.015.047-.03.078-.046.547-.313 1.188-.172 1.5.359.281.5.172 1.14-.453 1.5-.531.312-1.188.203-1.516-.36-.296-.515-.14-1.03.391-1.453zm0 0"/></symbol><symbol id="bR" overflow="visible"><path d="m2.86-.438.437-.28-.313-.5-2.656 1.718.344.531 1.312-.843c.375-.235 1-.516 1.344.046.11.157.235.422.156.641-.062.172-.218.266-.343.36l-1.657 1.061.36.547 1.375-.89c.11-.063.203-.126.312-.188.25-.172.5-.36.61-.672.062-.265-.032-.593-.204-.843a1.501 1.501 0 0 0 -1.077-.688zm0 0"/></symbol><symbol id="bS" overflow="visible"><path d="m3.719-1.656-.735.515-.39-.546-.36.265.375.531-1.296.922c-.344.235-.892.656-.533 1.157.235.328.516.562.875.812l.297-.375c-.25-.156-.406-.25-.562-.469-.204-.281.078-.531.28-.687l1.266-.89.626.874.359-.266-.625-.875.734-.515zm0 0"/></symbol><symbol id="bT" overflow="visible"><path d="m2.266-.953c.109.078.234.094.343.14.25.141.438.297.61.485l.062.078c.235.313.125.734-.219 1-.062.047-.124.078-.171.125-.501-.625-1.438-1.578-2.016-1.125a.877.877 0 0 0 -.172 1.25c.266.328.656.703 1.047.781l-.219.172.375.5 1.532-1.187c.608-.486.655-1.236.217-1.797a2.71 2.71 0 0 0 -.86-.719c-.077-.031-.124-.094-.187-.031-.125.093-.218.218-.343.328zm.296 2.078-.203.156c-.343.266-.734.11-1.046-.281-.173-.219-.329-.61-.079-.813.25-.187.657.25.829.391.124.125.234.266.359.39l.062.079c.016.031.032.047.079.078zm0 0"/></symbol><symbol id="bU" overflow="visible"><path d="m4.11-2.719-3.689 3.203.344.407.735-.641.844.094-.36 1.906.422.484.454-2.343 1.735.187-.455-.515-2.079-.25 2.422-2.11zm0 0"/></symbol><symbol id="bV" overflow="visible"><path d="m3.422-2.172-.64.61-.454-.47-.328.314.453.453-1.14 1.094c-.297.296-.813.796-.375 1.249.28.297.609.469.984.656l.25-.421c-.266-.11-.453-.172-.64-.36-.235-.265.015-.547.202-.719l1.11-1.078.75.781.328-.312-.75-.781.64-.61zm0 0"/></symbol><symbol id="bW" overflow="visible"><path d="m2.094-2.281-1.188 3.031.031.047.422.36 1.61-.97.469-.328.296-.218c-.156.203-.234.437-.343.671-.282.594-.454 1.22-.75 1.813-.016.063-.032.094.015.14l.344.298s.047.032.047.047c.094.079.547-.25.765-.375.641-.39 1.25-.75 1.876-1.109a1.01 1.01 0 0 0 .25-.14l-.422-.36-.188.11-1.64.984-.563.375.125-.266.922-2.25.031-.062-.422-.36-1.61.953-.452.329-.282.218c.047-.11.125-.203.172-.312.344-.703.61-1.469.922-2.172.016-.078 0-.078-.047-.125zm0 0"/></symbol><symbol id="bX" overflow="visible"><path d="m2.969 1.234c-.375-.046-.719-.125-1.047-.343l-.094-.063c-.406-.297-.687-.875-.25-1.578l1.906 1.422c.438-.578.75-1.5-.109-2.14-.734-.548-1.719-.313-2.25.39-.563.766-.281 1.781.406 2.297.313.218.688.39 1.047.453.063 0 .11.016.14-.031.079-.11.157-.282.25-.407zm-1.094-2.296c.36-.235.844-.313 1.219-.032.36.266.453.672.281 1.157zm0 0"/></symbol><symbol id="bY" overflow="visible"><path d="m2.25-2.203-1.75 2.547.5.344 1.75-2.548zm.906-1.469-.422.61.641.437.422-.61zm0 0"/></symbol><symbol id="bZ" overflow="visible"><path d="m2.797-2.938-.469.75-.547-.343-.25.375.532.344-.844 1.342c-.219.345-.579.94-.047 1.282.344.22.703.313 1.094.407l.156-.453c-.297-.047-.469-.063-.688-.204-.312-.187-.14-.546-.015-.75l.828-1.312.922.563.25-.375-.922-.563.469-.75zm0 0"/></symbol><symbol id="b0" overflow="visible"><path d="m3.11.875c-.392-.016-.75-.047-1.095-.203l-.11-.063c-.421-.234-.764-.796-.435-1.529l2.06 1.17c.36-.64.594-1.594-.344-2.125-.812-.453-1.765-.11-2.203.672-.468.812-.062 1.797.688 2.219a2.48 2.48 0 0 0 1.078.328c.063 0 .11 0 .14-.047.063-.125.141-.297.22-.422zm-1.376-2.14c.313-.298.797-.423 1.204-.188.39.219.53.61.421 1.11zm0 0"/></symbol><symbol id="b1" overflow="visible"><path d="m2.203-1.703.281-.578-.5-.25-1.437 2.811.531.281.64-1.25c.36-.687 1.079-.812 1.72-.484l.25-.5c-.454-.25-.97-.25-1.485-.031zm0 0"/></symbol><symbol id="b2" overflow="visible"><path d="m.719.063c-.25 0-.594.187-.703.453-.313.656.609 1.343 1.156 1.593.312.141.64.235.984.235.344.031.813-.063.969-.422l.016-.031c.265-.844-.625-1.313-1.111-1.532l-.624-.279a.372.372 0 0 1 -.187-.485l.015-.031c.047-.032.079-.079.125-.126.188.204.313.36.563.485.578.265 1.344.077 1.625-.533.11-.235.11-.47.062-.688l.5.203.407.219c.062-.219.156-.484.078-.516l-.047-.015a3.904 3.904 0 0 0 -1.078-.282l.015.094a1.286 1.286 0 0 0 -.609-.578c-.547-.25-1.313-.14-1.61.516a1.36 1.36 0 0 0 -.093.61c0 .03.047.093.031.124-.031.047-.172.125-.25.203a.618.618 0 0 0 -.156.235.831.831 0 0 0 -.078.546zm.375.484.797.375c.343.156.89.437.718.797-.187.422-1.156 0-1.265-.047-.36-.156-1-.578-.828-.938.093-.203.359-.234.578-.187zm1.515-2.328c.016.015.047.015.079.031.328.14.53.469.328.922-.172.344-.532.515-.907.344-.343-.157-.53-.5-.328-.938.157-.344.485-.469.828-.36zm0 0"/></symbol><symbol id="b3" overflow="visible"><path d="m3.203.438c-.406.045-.733.062-1.11-.064l-.108-.03c-.468-.188-.89-.688-.671-1.469l2.203.89c.28-.687.375-1.656-.625-2.062-.86-.328-1.766.14-2.094.969-.344.875.203 1.797 1 2.11.344.14.766.202 1.125.171.062-.015.11-.015.125-.078.062-.125.094-.297.156-.438zm-1.656-1.938c.266-.328.734-.531 1.172-.36.422.173.594.548.562 1.048zm0 0"/></symbol><symbol id="b4" overflow="visible"><path d="m2.172-4.422-1.594 4.625.61.203.109-.312c.203.328.516.594.875.719.86.296 1.61-.36 1.86-1.079.202-.593.171-1.64-.61-1.906-.438-.156-.922-.156-1.36-.062l.688-2zm1.187 4.047c-.218.547-.749.828-1.359.61-.25-.079-.61-.438-.516-.704l.329-.937c.03-.078.046-.157.078-.235.109-.312.609-.343.937-.234.578.203.797.813.594 1.375-.016.031-.031.094-.063.125zm0 0"/></symbol><symbol id="b5" overflow="visible"><path d="m3.219.14c-.375.094-.735.126-1.094.047l-.11-.03c-.484-.141-.953-.595-.796-1.391l2.281.671c.203-.703.188-1.687-.844-2-.875-.265-1.734.313-1.984 1.173-.266.907.36 1.766 1.187 2 .361.11.797.14 1.141.078.047-.016.11-.032.125-.094.031-.14.047-.297.094-.453zm-1.813-1.78c.235-.36.657-.579 1.11-.454.437.125.671.469.687.985zm0 0"/></symbol><symbol id="b6" overflow="visible"><path d="m1.797-2.266.125-.5-.578-.156-.766 3.063.625.156.375-1.516c.11-.422.375-1.062 1.016-.906.203.047.453.172.547.39.078.157.03.344 0 .5l-.485 1.908.625.156.406-1.594c.032-.125.047-.218.079-.343.078-.313.14-.625 0-.907-.141-.265-.438-.421-.735-.484-.437-.125-.86-.031-1.234.234zm0 0"/></symbol><symbol id="b7" overflow="visible"><path d="m.281-4.781v.515h1.985v4.266h.75v-4.281h1.984v-.5zm0 0"/></symbol><symbol id="b8" overflow="visible"><path d="m1.172-2.516v-.64h-.563v3.156h.61v-1.406c0-.766.578-1.219 1.297-1.219v-.547c-.516 0-.97.219-1.344.656zm0 0"/></symbol><symbol id="b9" overflow="visible"><path d="m3.125-.781c-.344.187-.656.328-1.047.36h-.11c-.5 0-1.077-.298-1.155-1.11h2.375c0-.735-.282-1.672-1.36-1.672-.922 0-1.578.781-1.578 1.672 0 .937.844 1.593 1.703 1.593a2.42 2.42 0 0 0 1.11-.265c.046-.031.093-.047.093-.11 0-.14-.031-.312-.031-.468zm-2.25-1.189c.14-.406.484-.75.953-.75.453 0 .766.266.922.75zm0 0"/></symbol><symbol id="ca" overflow="visible"><path d="m.766-3.094h-.563v.453h.563v2.641h.609v-2.64h.828v-.454h-.843v-.828c0-.375.313-.547.688-.547.219 0 .422.047.625.125v-.547c-.203-.03-.406-.062-.61-.062-.484 0-1.015.203-1.25.844-.046.171-.046.343-.046.515zm0 0"/></symbol><symbol id="cb" overflow="visible"><path d="m1.188-2.64v-.516h-.594v3.156h.64v-1.563c0-.437.11-1.125.766-1.125.203 0 .484.047.625.235.11.14.11.328.11.484v1.969h.656v-2c0-.313-.032-.625-.235-.875-.187-.219-.515-.297-.812-.297a1.5 1.5 0 0 0 -1.156.531zm0 0"/></symbol><symbol id="cc" overflow="visible"><path d="m.11-3.094 1.311 3.094h.703l1.313-3.094h-.579l-.812 1.938-.172.437-.078.297-.063-.203-.312-.797-.703-1.672zm0 0"/></symbol><symbol id="cd" overflow="visible"><path d="m.61-3.094v3.094h.609v-3.094zm-.08-1.719v.75h.766v-.75zm0 0"/></symbol><symbol id="ce" overflow="visible"><path d="m.61-4.89v4.89h.64v-.328c.297.25.688.39 1.063.39.906 0 1.406-.875 1.406-1.64 0-.625-.36-1.594-1.188-1.594-.469 0-.922.14-1.312.39v-2.108zm2.453 3.437c-.033.593-.455 1.031-1.095 1.031-.266 0-.719-.219-.719-.5v-1.25c0-.328.469-.515.813-.515.609 0 1.015.5 1.015 1.093 0 .047 0 .11-.015.14zm0 0"/></symbol><symbol id="cf" overflow="visible"><path d="m.64-2.375c.126-.047.22-.125.329-.188.25-.109.5-.156.75-.171h.11c.39 0 .64.343.64.765 0 .078-.016.157-.016.235-.797 0-2.125.156-2.125.89 0 .485.375.906.89.906.423 0 .954-.093 1.266-.343v.281h.625v-1.938c0-.78-.578-1.265-1.28-1.265-.376 0-.75.078-1.095.234-.062.031-.14.031-.14.125 0 .14.047.313.047.469zm1.813 1.047v.25c0 .453-.344.656-.844.656-.28 0-.703-.11-.703-.437 0-.313.594-.36.813-.407.187-.03.36-.03.547-.046h.093c.032 0 .063 0 .094-.016zm0 0"/></symbol><symbol id="cg" overflow="visible"><path d="m-.984-4.797 1.656 4.547.594-.203-1.454-4.017 3.563 3.094.11.094.078-.016.859-.312-1.656-4.547-.594.218 1.453 4-3.563-3.124-.109-.062-.062.016zm0 0"/></symbol><symbol id="ch" overflow="visible"><path d="m-.344-2.422c.078-.094.125-.219.219-.312.188-.204.39-.344.61-.47l.093-.046c.36-.14.735.078.906.453.032.078.047.172.079.235-.735.312-1.891.984-1.594 1.656a.897.897 0 0 0 1.187.484c.375-.172.828-.469 1.016-.828l.11.266.577-.25-.765-1.782c-.313-.718-1.031-.921-1.688-.656a2.928 2.928 0 0 0 -.922.656c-.046.047-.109.079-.062.172.047.125.172.266.234.422zm2.063.235.11.234c.171.406-.063.719-.516.922-.266.11-.704.187-.829-.11-.125-.296.407-.578.594-.703.156-.093.313-.172.484-.265l.094-.032c.016-.015.047-.03.063-.046zm0 0"/></symbol><symbol id="ci" overflow="visible"><path d="m2.484-2.094c-.093.094-.171.219-.25.313-.203.218-.453.39-.703.515l-.047.032c-.562.234-1.124-.079-1.359-.579-.266-.515-.172-1.171.406-1.468a2.02 2.02 0 0 1 1.016-.219c.031 0 .094.031.172.016-.063-.157-.094-.329-.157-.47-.078-.155-.734.017-1.046.126-.063.031-.125.062-.204.094-.828.406-1.171 1.375-.75 2.25.422.843 1.47 1.062 2.235.671a2.8 2.8 0 0 0 .906-.734c.016-.047.078-.078.047-.14-.078-.141-.203-.266-.266-.407zm0 0"/></symbol><symbol id="cj" overflow="visible"><path d="m-1.875-4.563 2.39 4.267.563-.312-.766-1.36c-.217-.391-.452-1.032.127-1.361.171-.093.437-.187.656-.093.172.063.25.219.328.36l.969 1.718.562-.312-.797-1.438a5.044 5.044 0 0 0 -.187-.312c-.14-.266-.313-.485-.578-.64-.297-.11-.641-.016-.891.14-.39.203-.64.547-.75.969l-1.079-1.923zm0 0"/></symbol><symbol id="ck" overflow="visible"><path d="m-2.14-4.438 2.64 4.111.531-.344-.843-1.312c-.235-.375-.516-1 .046-1.36.172-.11.438-.219.641-.14.172.046.281.218.36.343l1.062 1.657.562-.344-.89-1.375c-.063-.11-.125-.219-.203-.328-.157-.25-.329-.453-.61-.578-.312-.11-.656.015-.906.171a1.49 1.49 0 0 0 -.672 1.016l-1.187-1.844zm0 0"/></symbol><symbol id="cl" overflow="visible"><path d="m-1.281-2.875 1.781 2.531.5-.36-1.781-2.53zm-1.063-1.375.438.625.625-.438-.438-.625zm0 0"/></symbol><symbol id="cm" overflow="visible"><path d="m-2.453-4.281 2.937 3.921.486-.374-2.94-3.922zm0 0"/></symbol><symbol id="cn" overflow="visible"><path d="m-1.344-2.906-.437.36.281.358.438-.359 1.655 2.063.484-.375-1.656-2.063.64-.515-.28-.36-.657.531-.516-.64c-.234-.297-.093-.625.188-.86.172-.14.36-.234.562-.296l-.343-.422a2.593 2.593 0 0 0 -.5.343c-.375.297-.672.782-.438 1.438.063.14.156.281.266.406zm0 0"/></symbol><symbol id="co" overflow="visible"><path d="m1.828-2.656c-.125.375-.266.687-.547.969l-.078.078c-.375.328-1 .468-1.61-.079l1.783-1.562c-.485-.547-1.298-1.078-2.111-.36-.686.61-.67 1.61-.092 2.283.625.703 1.703.656 2.344.094.28-.25.53-.61.64-.938.031-.047.047-.094.016-.14-.094-.11-.235-.22-.344-.344zm-2.469.594c-.156-.391-.14-.876.22-1.188.343-.297.765-.297 1.187-.047zm0 0"/></symbol><symbol id="cp" overflow="visible"><path d="m.297-.656c-.094.234-.017.625.203.828.516.484 1.453-.156 1.86-.594.234-.25.437-.547.546-.875.156-.312.203-.766-.078-1.031l-.031-.031c-.703-.547-1.438.156-1.797.546l-.469.5a.37.37 0 0 1 -.515.032l-.016-.032c-.031-.062-.063-.109-.094-.156.25-.11.438-.172.64-.375.438-.468.516-1.25.032-1.703a1.078 1.078 0 0 0 -.656-.281l.36-.422.359-.297c-.204-.156-.422-.312-.47-.25l-.03.031c-.235.25-.454.594-.61.938h.094a1.412 1.412 0 0 0 -.75.406c-.422.438-.547 1.188-.016 1.688.141.14.329.234.532.28.046 0 .093 0 .125.016.03.047.046.204.109.313a.703.703 0 0 0 .172.219.9.9 0 0 0 .5.25zm.578-.204.594-.625c.265-.282.718-.704 1.015-.438.329.313-.375 1.11-.468 1.203-.266.281-.86.75-1.141.485-.172-.171-.125-.453 0-.625zm-1.734-2.187c.03-.015.046-.047.078-.078.234-.266.61-.328.953 0 .281.281.312.672.047.969-.266.281-.64.344-.985.015-.28-.265-.296-.609-.093-.906zm0 0"/></symbol><symbol id="cq" overflow="visible"><path d="m1.422-2.875c-.078.36-.172.703-.406 1.031l-.063.078c-.328.375-.922.625-1.594.157l1.532-1.813c-.563-.484-1.454-.875-2.141-.047-.594.703-.438 1.719.234 2.297.72.594 1.766.39 2.329-.266.234-.296.437-.671.515-1.015.016-.078.031-.11-.016-.156-.109-.094-.265-.172-.39-.266zm-2.36.922c-.218-.36-.265-.844.047-1.203.282-.344.688-.422 1.172-.219zm0 0"/></symbol><symbol id="cr" overflow="visible"><path d="m-3.516-3.453 3.891 2.969.375-.516-.266-.203a1.68 1.68 0 0 0 .97-.61c.546-.717.154-1.639-.454-2.092-.5-.375-1.484-.688-1.984-.031a2.545 2.545 0 0 0 -.5 1.28l-1.672-1.28zm4.22.14c.452.391.546.985.155 1.5-.156.204-.625.422-.843.25l-.797-.609c-.063-.047-.125-.094-.203-.14-.25-.204-.11-.672.093-.954.375-.484 1.016-.514 1.485-.156.031.031.078.063.11.11zm0 0"/></symbol><symbol id="cs" overflow="visible"><path d="m1.125-3.016c-.031.391-.11.735-.297 1.063l-.062.094c-.282.406-.86.718-1.579.328l1.345-1.953c-.61-.422-1.531-.72-2.14.171-.516.75-.25 1.735.484 2.25.781.532 1.797.188 2.281-.515.203-.313.375-.703.407-1.063.015-.046.015-.109-.032-.14-.125-.078-.281-.156-.406-.235zm-2.25 1.188c-.25-.36-.36-.828-.094-1.203s.672-.5 1.157-.344zm0 0"/></symbol><symbol id="ct" overflow="visible"><path d="m-1.625-2.406-.438-.266-.312.516 2.688 1.656.343-.547-1.328-.828c-.375-.219-.906-.672-.562-1.234.109-.172.296-.391.515-.407.188-.03.344.079.485.157l1.671 1.03.344-.562-1.39-.859c-.11-.063-.204-.125-.313-.188-.266-.171-.547-.296-.875-.265-.265.047-.515.281-.672.531-.234.39-.297.844-.156 1.266zm0 0"/></symbol><clipPath id="cu"><path d="m163 173h77.879v17h-77.879zm0 0"/></clipPath><clipPath id="cv"><path d="m99 230h43v16.238h-43zm0 0"/></clipPath><path d="m157.14 25.316h-72.737a3.984 3.984 0 0 0 -3.984 3.985v8.066a3.981 3.981 0 0 0 3.984 3.985h72.739a3.984 3.984 0 0 0 3.984-3.985v-8.066c0-2.2-1.785-3.985-3.984-3.985zm0 0" fill="#4c4cae"/><g fill="#fff"><use x="84.843" xlink:href="#a" y="36.927"/><use x="92.148" xlink:href="#b" y="36.927"/><use x="97.737" xlink:href="#c" y="36.927"/><use x="103.326" xlink:href="#d" y="36.927"/><use x="108.915" xlink:href="#e" y="36.927"/><use x="114.006" xlink:href="#f" y="36.927"/><use x="118.206" xlink:href="#g" y="36.927"/><use x="123.186" xlink:href="#h" y="36.927"/></g><g fill="#fff"><use x="128.356" xlink:href="#i" y="36.927"/><use x="132.063" xlink:href="#f" y="36.927"/><use x="136.263" xlink:href="#j" y="36.927"/><use x="140.289" xlink:href="#k" y="36.927"/><use x="145.518" xlink:href="#c" y="36.927"/><use x="151.107" xlink:href="#d" y="36.927"/></g><path d="m156.36 98.445h-71.177a3.986 3.986 0 0 0 -3.985 3.985v10.004a3.986 3.986 0 0 0 3.985 3.984h71.175c2.2 0 3.985-1.785 3.985-3.984v-10.004c0-2.2-1.785-3.985-3.985-3.985zm0 0" fill="#4c924c"/><g fill="#fff"><use x="85.626" xlink:href="#l" y="110.054"/><use x="91.713" xlink:href="#j" y="110.054"/><use x="95.739" xlink:href="#k" y="110.054"/><use x="100.968" xlink:href="#c" y="110.054"/><use x="106.557" xlink:href="#d" y="110.054"/><use x="112.146" xlink:href="#h" y="110.054"/></g><g fill="#fff"><use x="117.316" xlink:href="#i" y="110.054"/><use x="121.023" xlink:href="#j" y="110.054"/><use x="125.049" xlink:href="#m" y="110.054"/><use x="127.594" xlink:href="#e" y="110.054"/><use x="132.685" xlink:href="#n" y="110.054"/><use x="135.231" xlink:href="#j" y="110.054"/><use x="139.257" xlink:href="#b" y="110.054"/><use x="144.846" xlink:href="#c" y="110.054"/><use x="150.435" xlink:href="#o" y="110.054"/></g><path d="m73.98 173.512h-69.996a3.984 3.984 0 0 0 -3.984 3.984v8.066c0 2.2 1.781 3.985 3.984 3.985h69.996a3.984 3.984 0 0 0 3.985-3.984v-8.067c0-2.2-1.781-3.984-3.985-3.984zm0 0" fill="#ffaf4c"/><g fill="#fff"><use x="4.427" xlink:href="#l" y="185.118"/><use x="10.514" xlink:href="#h" y="185.118"/><use x="15.993" xlink:href="#p" y="185.118"/><use x="20.738" xlink:href="#n" y="185.118"/><use x="23.283" xlink:href="#k" y="185.118"/><use x="28.513" xlink:href="#m" y="185.118"/><use x="31.058" xlink:href="#e" y="185.118"/></g><use fill="#fff" x="39.795" xlink:href="#q" y="185.118"/><use fill="#fff" x="46.496" xlink:href="#k" y="185.118"/><g fill="#fff"><use x="51.417" xlink:href="#i" y="185.118"/><use x="55.124" xlink:href="#j" y="185.118"/><use x="59.15" xlink:href="#c" y="185.118"/><use x="64.739" xlink:href="#e" y="185.118"/><use x="69.829" xlink:href="#i" y="185.118"/></g><g clip-path="url(#cu)"><path d="m236.895 173.512h-69.333a3.987 3.987 0 0 0 -3.988 3.984v8.066c0 2.2 1.785 3.985 3.988 3.985h69.333a3.986 3.986 0 0 0 3.984-3.984v-8.067c0-2.2-1.785-3.984-3.984-3.984zm0 0" fill="#ae4cae"/></g><g fill="#fff"><use x="168.002" xlink:href="#r" y="185.118"/><use x="175.915" xlink:href="#k" y="185.118"/><use x="181.145" xlink:href="#s" y="185.118"/><use x="186.014" xlink:href="#t" y="185.118"/><use x="191.603" xlink:href="#t" y="185.118"/><use x="197.192" xlink:href="#n" y="185.118"/><use x="199.738" xlink:href="#m" y="185.118"/><use x="202.283" xlink:href="#u" y="185.118"/><use x="205.631" xlink:href="#e" y="185.118"/><use x="210.722" xlink:href="#m" y="185.118"/><use x="213.267" xlink:href="#e" y="185.118"/><use x="218.358" xlink:href="#t" y="185.118"/><use x="223.947" xlink:href="#i" y="185.118"/><use x="227.654" xlink:href="#e" y="185.118"/><use x="232.745" xlink:href="#i" y="185.118"/></g><g clip-path="url(#cv)"><path d="m137.953 230.203h-34.363a3.986 3.986 0 0 0 -3.985 3.984v8.067a3.984 3.984 0 0 0 3.985 3.984h34.363c2.2 0 3.984-1.781 3.984-3.984v-8.066c0-2.2-1.785-3.985-3.984-3.985zm0 0" fill="#ae4c4c"/></g><g fill="#fff"><use x="104.032" xlink:href="#l" y="241.811"/><use x="110.119" xlink:href="#s" y="241.811"/><use x="114.989" xlink:href="#t" y="241.811"/><use x="120.578" xlink:href="#v" y="241.811"/><use x="126.167" xlink:href="#m" y="241.811"/><use x="128.712" xlink:href="#e" y="241.811"/><use x="133.803" xlink:href="#i" y="241.811"/></g><path d="m40.553 8.218c24.547 20.597 24.547-37.035.543-16.89" fill="none" stroke="#000" stroke-miterlimit="10" stroke-width=".79701" transform="matrix(1 0 0 -1 120.771 33.335)"/><path d="m-1.555 2.072c.131-.777 1.554-1.944 1.942-2.072-.385-.13-1.81-1.295-1.942-2.074" style="fill:none;stroke-width:.6376;stroke-linecap:round;stroke-linejoin:round;stroke:#000;stroke-miterlimit:10" transform="matrix(-.7660179 -.64278812 -.64278812 .7660179 161.868532 42.008205)"/><use x="176.342" xlink:href="#w" y="20.13"/><use x="179.06" xlink:href="#x" y="23.111"/><use x="180.442" xlink:href="#y" y="25.809"/><use x="181.344" xlink:href="#z" y="28.96"/><use x="181.754" xlink:href="#A" y="32.03"/><use x="181.622" xlink:href="#B" y="35.719"/><use x="181.315" xlink:href="#C" y="37.734"/><use x="180.827" xlink:href="#D" y="39.868"/><use x="179.128" xlink:href="#E" y="43.658"/><path d="m-40.552 8.218c-24.551 20.597-24.551-37.035-.543-16.89" fill="none" stroke="#000" stroke-miterlimit="10" stroke-width=".79701" transform="matrix(1 0 0 -1 120.771 33.335)"/><path d="m-1.554 2.073c.129-.776 1.556-1.943 1.942-2.073-.388-.128-1.811-1.295-1.943-2.072" style="fill:none;stroke-width:.6376;stroke-linecap:round;stroke-linejoin:round;stroke:#000;stroke-miterlimit:10" transform="matrix(.7660179 -.64278812 -.64278812 -.7660179 79.676676 42.007463)"/><use x="65.736" xlink:href="#F" y="46.9"/><use x="62.685" xlink:href="#G" y="44"/><use x="60.837" xlink:href="#H" y="40.029"/><use x="60.26" xlink:href="#I" y="38.013"/><use x="59.858" xlink:href="#J" y="35.023"/><use x="59.753" xlink:href="#K" y="32.926"/><use x="60.154" xlink:href="#L" y="29.193"/><use x="60.904" xlink:href="#M" y="26.236"/><use x="62.779" xlink:href="#N" y="22.474"/><path d="m6.897 8.218c20.742 24.719-34.535 24.719-14.246.543" fill="none" stroke="#000" stroke-miterlimit="10" stroke-width=".79701" transform="matrix(1 0 0 -1 120.771 33.335)"/><path d="m-1.554 2.07c.13-.776 1.554-1.94 1.945-2.07-.391-.13-1.817-1.296-1.943-2.072" style="fill:none;stroke-width:.6376;stroke-linecap:round;stroke-linejoin:round;stroke:#000;stroke-miterlimit:10" transform="matrix(.64278 .76602 .76602 -.64278 113.42 24.576)"/><use x="107.447" xlink:href="#O" y="17.713"/><use x="106.933" xlink:href="#P" y="15.154"/><use x="108.263" xlink:href="#Q" y="10.212"/><use x="111.442" xlink:href="#R" y="7.014"/><use x="115.324" xlink:href="#S" y="5.307"/><use x="118.327" xlink:href="#T" y="4.715"/><use x="120.465" xlink:href="#U" y="4.51"/><use x="124.322" xlink:href="#V" y="4.883"/><use x="126.5" xlink:href="#W" y="5.35"/><use x="130.126" xlink:href="#X" y="7.097"/><use x="132.724" xlink:href="#Y" y="9.418"/><use x="134.493" xlink:href="#Z" y="13.564"/><path d="m-4.744-8.216c-11.285-19.113-11.465-37.367-.906-56.078" fill="none" stroke="#000" stroke-miterlimit="10" stroke-width=".79701" transform="matrix(1 0 0 -1 120.771 33.335)"/><path d="m-1.554 2.073c.13-.778 1.554-1.944 1.942-2.074-.386-.129-1.812-1.296-1.944-2.07" style="fill:none;stroke-width:.6376;stroke-linecap:round;stroke-linejoin:round;stroke:#000;stroke-miterlimit:10" transform="matrix(.49141 .87086 .87086 -.49141 115.123 97.63)"/><use x="111.241" xlink:href="#aa" y="57.29"/><use x="110.449" xlink:href="#ab" y="60.51"/><use x="109.979" xlink:href="#ac" y="62.989"/><use x="109.617" xlink:href="#ad" y="65.809"/><use x="109.422" xlink:href="#ae" y="68.462"/><use x="109.433" xlink:href="#af" y="71.784"/><use x="109.525" xlink:href="#ag" y="73.545"/><use x="109.659" xlink:href="#ah" y="75.273"/><use x="110.121" xlink:href="#ai" y="78.53"/><path d="m-.001-8.216v-55.988" fill="none" stroke="#000" stroke-miterlimit="10" stroke-width=".79701" transform="matrix(1 0 0 -1 120.771 33.335)"/><path d="m-1.554 2.073c.129-.778 1.554-1.943 1.941-2.074-.387-.13-1.812-1.293-1.941-2.07" style="fill:none;stroke-width:.6376;stroke-linecap:round;stroke-linejoin:round;stroke:#000;stroke-miterlimit:10" transform="matrix(0 1 1 0 120.771 97.539)"/><use x="122.763" xlink:href="#aj" y="56.21"/><use x="122.763" xlink:href="#ak" y="59.643"/><use x="122.763" xlink:href="#al" y="63.629"/><use x="122.763" xlink:href="#am" y="65.469"/><use x="122.763" xlink:href="#al" y="68.259"/><use x="122.763" xlink:href="#aj" y="70.099"/><use x="122.763" xlink:href="#an" y="73.532"/><use x="122.763" xlink:href="#aj" y="76.169"/><use x="122.763" xlink:href="#ao" y="79.602"/><path d="m4.74-8.216c11.29-19.113 11.47-37.367.907-56.078" fill="none" stroke="#000" stroke-miterlimit="10" stroke-width=".79701" transform="matrix(1 0 0 -1 120.771 33.335)"/><path d="m-1.556 2.072c.133-.777 1.558-1.943 1.944-2.07-.389-.13-1.812-1.296-1.943-2.074" style="fill:none;stroke-width:.6376;stroke-linecap:round;stroke-linejoin:round;stroke:#000;stroke-miterlimit:10" transform="matrix(-.49141 .87086 .87086 .49141 126.42 97.63)"/><use x="132.425" xlink:href="#ap" y="51.165"/><use x="133.12" xlink:href="#aq" y="52.979"/><use x="134.337" xlink:href="#ar" y="56.925"/><use x="135.212" xlink:href="#as" y="60.684"/><use x="135.796" xlink:href="#at" y="64.546"/><use x="136.035" xlink:href="#au" y="67.422"/><use x="136.133" xlink:href="#av" y="69.373"/><use x="136.041" xlink:href="#aw" y="73.041"/><use x="135.915" xlink:href="#ax" y="74.986"/><use x="135.444" xlink:href="#ay" y="78.508"/><use x="134.934" xlink:href="#az" y="81.213"/><use x="134.065" xlink:href="#aA" y="84.673"/><path d="m-39.771-74.099c-27.121-14.097-40.668-35.34-41.988-65.171" fill="none" stroke="#000" stroke-miterlimit="10" stroke-width=".79701" transform="matrix(1 0 0 -1 120.771 33.335)"/><path d="m-1.553 2.072c.128-.776 1.552-1.941 1.94-2.072-.389-.131-1.811-1.296-1.941-2.073" style="fill:none;stroke-width:.6376;stroke-linecap:round;stroke-linejoin:round;stroke:#000;stroke-miterlimit:10" transform="matrix(-.0441 .99898 .99898 .0441 39.014 172.605)"/><use x="42.532" xlink:href="#aB" y="145.17"/><use x="43.899" xlink:href="#aC" y="141.925"/><use x="45.057" xlink:href="#aD" y="139.464"/><use x="46.473" xlink:href="#aE" y="136.766"/><use x="47.915" xlink:href="#aF" y="134.269"/><use x="49.835" xlink:href="#aG" y="131.327"/><use x="50.926" xlink:href="#aH" y="129.779"/><use x="52.063" xlink:href="#aI" y="128.233"/><use x="54.289" xlink:href="#aJ" y="125.478"/><path d="m-80.341-139.977 40.168 58.285" fill="none" stroke="#000" stroke-miterlimit="10" stroke-width=".79701" transform="matrix(1 0 0 -1 120.771 33.335)"/><path d="m-1.552 2.073c.127-.777 1.552-1.943 1.941-2.074-.389-.129-1.813-1.292-1.942-2.069" style="fill:none;stroke-width:.6376;stroke-linecap:round;stroke-linejoin:round;stroke:#000;stroke-miterlimit:10" transform="matrix(.5674 -.82336 -.82336 -.5674 80.6 115.027)"/><use x="45.447" xlink:href="#aK" y="162.522"/><use x="48.364" xlink:href="#aL" y="158.288"/><use x="50.626" xlink:href="#aM" y="155.007"/><use x="51.965" xlink:href="#aN" y="153.063"/><use x="53.461" xlink:href="#aO" y="150.892"/><use x="55.566" xlink:href="#aP" y="147.838"/><use x="57.758" xlink:href="#aQ" y="144.658"/><use x="61.167" xlink:href="#aR" y="139.711"/><use x="62.847" xlink:href="#aS" y="137.273"/><use x="64.43" xlink:href="#aQ" y="134.976"/><use x="66.378" xlink:href="#aT" y="132.149"/><use x="67.422" xlink:href="#aT" y="130.634"/><use x="68.466" xlink:href="#aQ" y="129.119"/><use x="70.414" xlink:href="#aL" y="126.292"/><path d="m-77.959-139.977c25.88 10.664 39.97 28.953 43.579 55.992" fill="none" stroke="#000" stroke-miterlimit="10" stroke-width=".79701" transform="matrix(1 0 0 -1 120.771 33.335)"/><path d="m-1.555 2.072c.13-.775 1.555-1.94 1.943-2.07-.388-.13-1.813-1.298-1.942-2.072" style="fill:none;stroke-width:.6376;stroke-linecap:round;stroke-linejoin:round;stroke:#000;stroke-miterlimit:10" transform="matrix(.13233627 -.99115443 -.99115443 -.13233627 86.392558 117.319182)"/><use x="51.098" xlink:href="#aU" y="167.21"/><use x="55.648" xlink:href="#aV" y="164.507"/><use x="59.985" xlink:href="#aW" y="161.425"/><use x="61.94" xlink:href="#aX" y="159.921"/><use x="65.306" xlink:href="#aY" y="156.937"/><use x="68.016" xlink:href="#aZ" y="154.193"/><use x="70.538" xlink:href="#a0" y="151.267"/><use x="73.985" xlink:href="#a1" y="146.64"/><use x="76.966" xlink:href="#a2" y="141.455"/><use x="78.422" xlink:href="#a3" y="138.436"/><use x="79.15" xlink:href="#a4" y="136.839"/><use x="80.552" xlink:href="#a5" y="133.218"/><use x="81.606" xlink:href="#a6" y="130.053"/><path d="m39.772-81.11c8.664-26.168 18.105-40.535 38.164-58.395" fill="none" stroke="#000" stroke-miterlimit="10" stroke-width=".79701" transform="matrix(1 0 0 -1 120.771 33.335)"/><path d="m-1.553 2.07c.126-.775 1.553-1.942 1.941-2.067-.39-.132-1.812-1.295-1.94-2.073" style="fill:none;stroke-width:.6376;stroke-linecap:round;stroke-linejoin:round;stroke:#000;stroke-miterlimit:10" transform="matrix(.7468 .66496 .66496 -.7468 198.708 172.841)"/><use x="168.499" xlink:href="#a7" y="129.814"/><use x="169.223" xlink:href="#a8" y="131.454"/><use x="170.913" xlink:href="#a9" y="134.991"/><use x="172.588" xlink:href="#ba" y="138.222"/><use x="174.414" xlink:href="#bb" y="141.449"/><use x="175.84" xlink:href="#bc" y="143.792"/><use x="176.79" xlink:href="#bd" y="145.305"/><use x="178.76" xlink:href="#be" y="148.201"/><use x="179.792" xlink:href="#bf" y="149.661"/><use x="181.829" xlink:href="#bg" y="152.353"/><use x="183.438" xlink:href="#bh" y="154.374"/><use x="185.611" xlink:href="#bi" y="156.953"/><path d="m36.858-83.282c-.64-26.668 12.863-46.973 37.043-56.438" fill="none" stroke="#000" stroke-miterlimit="10" stroke-width=".79701" transform="matrix(1 0 0 -1 120.771 33.335)"/><path d="m-1.554 2.07c.131-.775 1.553-1.942 1.943-2.07-.39-.128-1.814-1.294-1.94-2.073" style="fill:none;stroke-width:.6376;stroke-linecap:round;stroke-linejoin:round;stroke:#000;stroke-miterlimit:10" transform="matrix(.93117 .36444 .36444 -.93117 194.673 173.053)"/><use x="161.99" xlink:href="#bj" y="136.047"/><use x="163.06" xlink:href="#bk" y="139.308"/><use x="164.302" xlink:href="#bl" y="142.388"/><use x="165.278" xlink:href="#bm" y="144.666"/><use x="168.313" xlink:href="#bn" y="149.818"/><use x="169.285" xlink:href="#bo" y="151.275"/><use x="170.885" xlink:href="#bp" y="153.429"/><use x="172.583" xlink:href="#bq" y="155.495"/><use x="174.871" xlink:href="#br" y="157.922"/><use x="176.094" xlink:href="#bs" y="159.154"/><path d="m39.772-77.575c21.55-19.535 31.336-34.707 40.02-61.727" fill="none" stroke="#000" stroke-miterlimit="10" stroke-width=".79701" transform="matrix(1 0 0 -1 120.771 33.335)"/><path d="m-1.555 2.072c.132-.777 1.554-1.944 1.943-2.073-.39-.13-1.81-1.294-1.942-2.072" style="fill:none;stroke-width:.6376;stroke-linecap:round;stroke-linejoin:round;stroke:#000;stroke-miterlimit:10" transform="matrix(.30592 .95201 .95201 -.30592 200.562 172.638)"/><use x="179.171" xlink:href="#bt" y="127.177"/><use x="181.349" xlink:href="#bu" y="129.897"/><use x="182.977" xlink:href="#bv" y="132.033"/><use x="184.74" xlink:href="#bw" y="134.478"/><use x="186.347" xlink:href="#bx" y="136.827"/><use x="188.215" xlink:href="#by" y="139.764"/><use x="189.185" xlink:href="#bz" y="141.367"/><use x="190.143" xlink:href="#bA" y="142.993"/><use x="191.833" xlink:href="#bB" y="146.055"/><path d="m81.456-139.977c4.066 30.152-12.696 56.64-41.012 65.664" fill="none" stroke="#000" stroke-miterlimit="10" stroke-width=".79701" transform="matrix(1 0 0 -1 120.771 33.335)"/><path d="m-1.554 2.073c.13-.778 1.555-1.943 1.945-2.073-.391-.129-1.814-1.296-1.944-2.07" style="fill:none;stroke-width:.6376;stroke-linecap:round;stroke-linejoin:round;stroke:#000;stroke-miterlimit:10" transform="matrix(-.95274 -.3036 -.3036 .95274 161.216 107.647)"/><use x="175.395" xlink:href="#bC" y="111.883"/><use x="180.079" xlink:href="#bD" y="114.989"/><use x="184.398" xlink:href="#bE" y="118.509"/><use x="186.407" xlink:href="#bF" y="120.312"/><use x="189.715" xlink:href="#bG" y="123.77"/><use x="192.345" xlink:href="#bH" y="126.948"/><use x="194.735" xlink:href="#bI" y="130.297"/><use x="197.974" xlink:href="#bJ" y="135.663"/><use x="200.543" xlink:href="#bK" y="141.41"/><use x="201.724" xlink:href="#bL" y="144.728"/><use x="202.325" xlink:href="#bM" y="146.573"/><use x="203.342" xlink:href="#bN" y="150.556"/><use x="204.021" xlink:href="#bO" y="154.045"/><path d="m-81.79-156.411c10.98-28.219 30.5-43.875 59.972-48.406" fill="none" stroke="#a9a9a9" stroke-miterlimit="10" stroke-width=".3985" transform="matrix(1 0 0 -1 120.771 33.335)"/><path d="m-1.194 1.596c.096-.598 1.195-1.496 1.494-1.597-.3-.097-1.396-.997-1.494-1.593" style="fill:none;stroke-width:.31879;stroke-linecap:round;stroke-linejoin:round;stroke:#a9a9a9;stroke-miterlimit:10" transform="matrix(.98834 .15192 .15192 -.98834 98.953 238.153)"/><g fill="#a9a9a9"><use x="43.632" xlink:href="#bP" y="195.618"/><use x="46.032" xlink:href="#bQ" y="200.287"/><use x="47.915" xlink:href="#bR" y="203.548"/><use x="50.038" xlink:href="#bS" y="206.816"/><use x="51.592" xlink:href="#bT" y="209.025"/><use x="53.804" xlink:href="#bU" y="211.87"/><use x="56.22" xlink:href="#bV" y="214.637"/><use x="59.832" xlink:href="#bW" y="218.33"/><use x="63.757" xlink:href="#bX" y="221.648"/><use x="66.454" xlink:href="#bY" y="223.639"/><use x="67.91" xlink:href="#bZ" y="224.646"/><use x="70.184" xlink:href="#b0" y="226.098"/><use x="73.092" xlink:href="#b1" y="227.749"/><use x="75.349" xlink:href="#b2" y="228.926"/><use x="78.774" xlink:href="#b3" y="230.488"/><use x="81.872" xlink:href="#b4" y="231.733"/><use x="85.556" xlink:href="#b5" y="233"/><use x="88.767" xlink:href="#b6" y="233.958"/></g><path d="m-42.607-148.192h84.754" fill="none" stroke="#a9a9a9" stroke-miterlimit="10" stroke-width=".3985" transform="matrix(1 0 0 -1 120.771 33.335)"/><path d="m-1.196 1.595c.102-.597 1.196-1.495 1.496-1.593-.3-.102-1.394-.996-1.496-1.594" style="fill:none;stroke-width:.31879;stroke-linecap:round;stroke-linejoin:round;stroke:#a9a9a9;stroke-miterlimit:10" transform="matrix(1 0 0 -1 162.918 181.529)"/><use fill="#a9a9a9" x="89.418" xlink:href="#b7" y="179.534"/><use fill="#a9a9a9" x="94.701" xlink:href="#b8" y="179.534"/><use fill="#a9a9a9" x="97.338" xlink:href="#b9" y="179.534"/><use fill="#a9a9a9" x="100.771" xlink:href="#ca" y="179.534"/><use fill="#a9a9a9" x="103.132" xlink:href="#ca" y="179.534"/><use fill="#a9a9a9" x="105.492" xlink:href="#b9" y="179.534"/><use fill="#a9a9a9" x="108.925" xlink:href="#cb" y="179.534"/><use fill="#a9a9a9" x="115.486" xlink:href="#cc" y="179.534"/><use fill="#a9a9a9" x="119.043" xlink:href="#b9" y="179.534"/><use fill="#a9a9a9" x="122.476" xlink:href="#b8" y="179.534"/><use fill="#a9a9a9" x="125.113" xlink:href="#b9" y="179.534"/><use fill="#a9a9a9" x="128.546" xlink:href="#cd" y="179.534"/><use fill="#a9a9a9" x="130.386" xlink:href="#cb" y="179.534"/><use fill="#a9a9a9" x="134.372" xlink:href="#ce" y="179.534"/><use fill="#a9a9a9" x="138.358" xlink:href="#cf" y="179.534"/><use fill="#a9a9a9" x="142.067" xlink:href="#b8" y="179.534"/><use fill="#a9a9a9" x="144.704" xlink:href="#b9" y="179.534"/><use fill="#a9a9a9" x="148.137" xlink:href="#cb" y="179.534"/><path d="m81.456-156.411c-10.844-28.09-30.34-43.82-59.637-48.406" fill="none" stroke="#a9a9a9" stroke-miterlimit="10" stroke-width=".3985" transform="matrix(1 0 0 -1 120.771 33.335)"/><path d="m-1.195 1.596c.1-.6 1.195-1.496 1.495-1.598-.3-.1-1.393-.996-1.495-1.593" style="fill:none;stroke-width:.31879;stroke-linecap:round;stroke-linejoin:round;stroke:#a9a9a9;stroke-miterlimit:10" transform="matrix(-.98795 .15456 .15456 .98795 142.589 238.151)"/><use fill="#a9a9a9" x="156.094" xlink:href="#cg" y="232.942"/><use fill="#a9a9a9" x="161.085" xlink:href="#ch" y="231.104"/><use fill="#a9a9a9" x="164.398" xlink:href="#ci" y="229.669"/><use fill="#a9a9a9" x="167.387" xlink:href="#cj" y="228.207"/><use fill="#a9a9a9" x="170.762" xlink:href="#ck" y="226.318"/><use fill="#a9a9a9" x="174.029" xlink:href="#cl" y="224.196"/><use fill="#a9a9a9" x="175.486" xlink:href="#cm" y="223.168"/><use fill="#a9a9a9" x="176.91" xlink:href="#cn" y="222.109"/><use fill="#a9a9a9" x="178.692" xlink:href="#co" y="220.7"/><use fill="#a9a9a9" x="183" xlink:href="#cp" y="216.788"/><use fill="#a9a9a9" x="185.576" xlink:href="#cq" y="214.057"/><use fill="#a9a9a9" x="187.737" xlink:href="#cr" y="211.526"/><use fill="#a9a9a9" x="190.088" xlink:href="#cs" y="208.432"/><use fill="#a9a9a9" x="191.982" xlink:href="#ct" y="205.684"/></svg>