<svg xmlns="http://www.w3.org/2000/svg" xmlns:xlink="http://www.w3.org/1999/xlink" width="321.169" height="328.317" viewBox="0 0 240.877 246.238"><defs><symbol overflow="visible" id="a"><path d="M4.922-3.625c.375-.11.766-.219 1.062-.516.266-.28.391-.64.391-1.015 0-.453-.188-.922-.531-1.219-.625-.547-1.578-.547-2.36-.547H1.36c-.39 0-.453.219-.453.484v5.985c0 .422.266.437.5.437h2.438c1.125 0 2.844-.156 2.844-1.906 0-1.062-.844-1.594-1.766-1.703zM2.266-.875V-3.25h1.156c.765 0 1.937.125 1.937 1.266 0 .984-1 1.109-1.765 1.109zm0-3.094v-2.11h1.031c.672 0 1.781.048 1.781.985 0 .969-1.031 1.125-1.781 1.125zm0 0"/></symbol><symbol overflow="visible" id="b"><path d="M3.656-.453c0 .39.235.453.5.453.094 0 .188-.016.266-.016h.11c.218 0 .452-.03.452-.421v-3.704c0-.39-.25-.437-.468-.437h-.454c-.359 0-.437.234-.437.484v1.938c0 .11.016.25.016.36 0 .624-.313 1.28-1.079 1.28h-.109c-.328-.015-.5-.093-.5-.687v-2.922c0-.266-.094-.453-.39-.453h-.5c-.329 0-.47.156-.47.453v2.766c0 .296.016.593.157.859.25.516.938.61 1.453.61.531 0 1.063-.157 1.453-.563zm0 0"/></symbol><symbol overflow="visible" id="c"><path d="M1.89-4v-.172c0-.328-.156-.469-.468-.469h-.406c-.282 0-.422.188-.422.454v3.734c0 .422.281.437.515.437h.422c.407 0 .422-.28.422-.5v-2.078c0-.703.375-1.375 1.11-1.375h.093c.469.078.469.406.469.735v2.78c0 .25.094.438.375.438h.516c.312 0 .468-.125.468-.437v-2.625c0-.344 0-.719-.171-1.031-.25-.47-.782-.579-1.25-.579-.626 0-1.157.188-1.672.688zm0 0"/></symbol><symbol overflow="visible" id="d"><path d="M3.656-4.328c-.422-.234-.781-.36-1.297-.36-.5 0-1.046.172-1.406.516-.5.5-.578 1.266-.578 1.922 0 .64.11 1.328.547 1.797.344.39.906.547 1.422.547.484 0 .844-.14 1.281-.422.047.297.281.312.484.312h.407c.218 0 .468-.046.468-.437 0-.078-.015-.156-.015-.219v-5.875c0-.062.015-.125.015-.219 0-.406-.265-.437-.515-.437h-.375c-.25 0-.438.094-.438.422zM1.72-1.906v-.453c0-.688.062-1.61 1.093-1.61.266 0 .75.125.813.36v2.406c0 .344-.547.578-.922.578-.265 0-.547-.094-.703-.297-.234-.281-.234-.656-.281-.984zm0 0"/></symbol><symbol overflow="visible" id="e"><path d="M1.578-2.14h2.719c.281 0 .484-.094.484-.438 0-.578-.11-1.25-.578-1.672-.39-.36-.937-.5-1.469-.5-.656 0-1.312.125-1.812.61-.5.468-.61 1.187-.625 1.827 0 .641.156 1.266.594 1.735.5.531 1.265.672 1.968.672.485 0 .97-.11 1.407-.297l.296-.14c.079-.048.157-.094.157-.188 0-.016-.016-.047-.016-.078l-.031-.5c-.031-.063-.031-.172-.125-.172-.047 0-.094.031-.14.062-.438.36-.954.61-1.548.61-.343 0-.703-.094-.937-.375-.266-.297-.344-.766-.344-1.157zm.016-.641c.015-.64.375-1.25 1.093-1.25.797 0 .985.672.985 1.25zm0 0"/></symbol><symbol overflow="visible" id="f"><path d="M1.906-4.75c-.718.078-1.531.313-1.531 1.406 0 .75.578 1.266 1.266 1.438.453.125 1.25.11 1.312.64v.047c0 .485-.437.547-.765.547-.61 0-1.032-.25-1.5-.719-.032-.03-.063-.062-.11-.062-.172 0-.265.766-.265.937 0 .204.437.344.671.422.391.14.797.188 1.204.188.796 0 1.765-.219 1.765-1.485 0-.765-.562-1.312-1.219-1.5-.421-.125-1.375-.062-1.375-.703.063-.328.282-.422.547-.437h.157c.515 0 .874.14 1.328.5.03.031.078.062.125.062.171 0 .25-.672.25-.812 0-.297-1.047-.469-1.579-.469zm0 0"/></symbol><symbol overflow="visible" id="g"><path d="M2.5-1.14c-.094-.22-.14-.438-.203-.657-.11-.328-.219-.64-.328-.969l-.328-1c-.125-.375-.141-.812-.75-.812H.625c-.188 0-.36.062-.36.281 0 .219.188.594.266.89.297.97.61 1.954.953 2.923.079.328.266.468.594.468h.75c.516 0 .578-.25.797-.875.344-1.015.656-2.046.984-3.062.047-.094.11-.219.11-.344 0-.25-.219-.281-.375-.281h-.235c-.484 0-.578.266-.703.656-.25.735-.484 1.469-.719 2.203-.062.188-.109.39-.187.578zm0 0"/></symbol><symbol overflow="visible" id="h"><path d="M2.516-4.75C1.453-4.61.312-4.297.312-2.234c0 .609.126 1.25.563 1.703.453.484 1.172.625 1.844.625 1.156 0 2.437-.39 2.437-2.313 0-.672-.11-1.375-.578-1.875-.484-.547-1.25-.656-1.922-.656zM1.672-2v-.484c0-.672 0-1.547 1.078-1.547.656 0 .969.422 1.031 1.015.031.22.031.438.031.657v.078c0 .672-.03 1.61-1.078 1.61-.312 0-.625-.11-.828-.36-.218-.266-.203-.64-.234-.969zm0 0"/></symbol><symbol overflow="visible" id="i"><path d="M1.89-3.875v-.328c0-.344-.218-.438-.484-.438h-.39c-.282 0-.407.172-.407.454v3.671c0 .282.063.5.485.5h.422c.25 0 .421-.125.421-.468v-1.672c0-.922.547-1.438 1.391-1.516h.063c.125 0 .156-.078.156-.187V-4.5c0-.14-.063-.188-.156-.188-.547 0-1.266.36-1.5.813zm0 0"/></symbol><symbol overflow="visible" id="j"><path d="M.906-4.578H.672c-.281 0-.469.125-.469.36 0 .234.172.374.453.374.078 0 .156-.015.219-.015V-1.5C.875-.812.953.094 1.938.094c.578 0 1.093-.157 1.625-.406.062-.032.14-.079.156-.157 0-.062-.047-.156-.047-.234l-.063-.203c-.015-.047-.062-.14-.125-.14-.078 0-.187.109-.28.171a1.186 1.186 0 0 1-.626.203c-.36 0-.422-.469-.422-.844 0-.125.016-.234.016-.312V-3.86h.937c.282 0 .422-.141.422-.36 0-.218-.156-.36-.406-.36h-.953v-.89c0-.234-.125-.406-.422-.406h-.36c-.234 0-.484.047-.484.422zm0 0"/></symbol><symbol overflow="visible" id="k"><path d="M3.266-2.906c-1.11 0-2.954.203-2.954 1.515 0 .797.61 1.485 1.47 1.485.546 0 1.093-.157 1.515-.5 0 .344.265.406.5.406.094 0 .187-.016.265-.016h.11c.219 0 .453-.062.453-.437v-2.86C4.547-4.53 3.453-4.75 2.594-4.75c-.563 0-1.094.094-1.61.328-.109.047-.265.078-.265.234 0 .313.015.844.187.844.094 0 .203-.14.297-.219.375-.328.86-.484 1.375-.484.547 0 .688.406.688.89zm0 .578v.812c0 .516-.422.891-.954.891-.421 0-.703-.375-.703-.75 0-.797 1.11-.906 1.657-.953zm0 0"/></symbol><symbol overflow="visible" id="l"><path d="M2.797-7.14c-.594.077-1.094.109-1.547.5-.469.39-.64 1-.64 1.593 0 1.016.812 1.781 1.75 2 .734.203 1.874.219 1.874 1.203 0 .75-.578.969-1.156.969-.75 0-1.515-.25-2.11-.813C.923-1.718.86-1.78.798-1.78c-.172 0-.203.64-.266.937-.015.063-.047.14-.047.219 0 .094.063.14.141.172a4.755 4.755 0 0 0 2.422.672c.61 0 1.312-.125 1.781-.531.469-.422.64-1.079.64-1.688 0-.953-.624-1.781-1.515-2.11-.719-.25-2.094-.187-2.094-1.171 0-.766.766-.844 1.22-.844h.108c.563.078.97.188 1.454.672.046.047.109.094.171.094.11 0 .125-.11.125-.204l.094-.515c.016-.125.078-.297.078-.438 0-.296-1.156-.593-1.765-.625h-.39zm0 0"/></symbol><symbol overflow="visible" id="m"><path d="M.906-7.203a.382.382 0 0 0-.297.328v6.422c0 .375.235.453.485.453.093 0 .172-.016.25-.016h.14c.235 0 .438-.078.454-.328v-6.234-.203c0-.36-.25-.438-.485-.438-.094 0-.172.016-.25.016H.907zm0 0"/></symbol><symbol overflow="visible" id="n"><path d="M.906-4.563c-.203.032-.312.22-.312.422 0 .079.015.141.015.22V-.5c0 .375.172.5.485.5.093 0 .172-.016.25-.016h.14c.235 0 .454-.078.454-.437v-3.641c0-.375-.188-.484-.485-.484h-.406c-.047 0-.094 0-.14.016zM.86-7.203c-.187.031-.296.172-.296.36v.609c0 .39.25.437.5.437h.468c.25 0 .438-.11.438-.39v-.594c0-.39-.25-.438-.5-.438H1c-.047 0-.094 0-.14.016zm0 0"/></symbol><symbol overflow="visible" id="o"><path d="M.813-.297C.421-.094.25.234.25.641c0 1.25 1.531 1.406 2.484 1.406 1.032 0 2.485-.14 2.485-1.485 0-1.437-1.438-1.484-2.516-1.484H1.86c-.28 0-.53-.062-.609-.453 0-.078 0-.14.031-.203.36.14.735.187 1.125.187.86 0 2.031-.218 2.031-1.64a1.94 1.94 0 0 0-.234-.938c.266 0 .531 0 .797.031.047.016.11.016.156.016.094 0 .172-.047.172-.14 0-.094-.047-.22-.047-.297-.047-.157-.015-.329-.25-.329-.39 0-.828.094-1.172.22-.046.015-.093.046-.14.046a1.385 1.385 0 0 1-.266-.125 3.192 3.192 0 0 0-1.015-.14c-.86 0-1.938.218-2.016 1.53v.095c0 .374.094.703.281 1.015.031.047.094.094.094.14 0 .079-.14.282-.188.423a1.669 1.669 0 0 0-.046.39c0 .282.078.563.25.797zm.468 1V.625c0-.313.172-.469.547-.469h1.156c.438 0 1.141.016 1.22.453 0 .672-.907.72-1.47.72-.53 0-1.375-.032-1.453-.626zm.422-3.5v-.328c0-.438.094-.86.703-.86.516 0 .75.22.75.922v.141c0 .375-.031.813-.719.813-.203 0-.421-.032-.578-.172-.109-.14-.14-.328-.156-.516zm0 0"/></symbol><symbol overflow="visible" id="p"><path d="M2.86-3.844A70.642 70.642 0 0 0 .53-.922c-.125.156-.234.281-.234.5 0 .25.14.406.437.406H3.97c.281 0 .422-.156.422-.359 0-.234-.141-.375-.438-.375h-.172c-.656 0-1.312.016-1.984.016a59.979 59.979 0 0 0 2.328-2.938c.125-.14.25-.265.25-.484 0-.375-.266-.422-.5-.422H.891c-.266 0-.438.156-.438.375s.172.375.438.375h.14c.61 0 1.219-.016 1.828-.016zm0 0"/></symbol><symbol overflow="visible" id="q"><path d="M2.328-2.688H3.5c1.063 0 2.438-.03 2.813-1.484.062-.187.078-.39.078-.578 0-.578-.157-1.156-.579-1.578-.609-.594-1.515-.594-2.312-.594H1.39c-.25 0-.484.078-.484.422v5.984c0 .25.047.5.438.5h.515c.172 0 .47-.03.47-.406zm-.031-.78v-2.61h1.172c.453 0 .969.016 1.312.36.25.25.266.609.266.952 0 .422-.047.797-.453 1.094-.328.188-.735.203-1.11.203zm0 0"/></symbol><symbol overflow="visible" id="s"><path d="M2.14-5.734c.141.296.313.593.47.906.765 1.406 1.468 2.89 2.25 4.297.187.312.312.515.843.515h.781c.25 0 .516 0 .516-.468v-5.954c0-.453-.219-.484-.484-.484H6.25c-.234 0-.484.031-.484.453v5.266c-.25-.39-.438-.844-.657-1.266-.656-1.234-1.312-2.5-1.968-3.75-.094-.187-.188-.406-.329-.547-.187-.156-.421-.156-.656-.156H1.61c-.078 0-.156-.016-.25-.016-.296 0-.453.141-.453.485V-.47c0 .266.094.453.422.453h.313c.25 0 .5-.046.5-.453v-.219zm0 0"/></symbol><symbol overflow="visible" id="t"><path d="M2.516-4.75c-.672.078-1.313.219-1.766.875-.297.453-.375 1-.375 1.516 0 .656.11 1.328.547 1.828.469.484 1.172.625 1.828.625.578 0 1.14-.125 1.64-.406.079-.047.173-.094.173-.188 0-.344-.032-.828-.188-.828-.094 0-.39.297-.594.406-.265.14-.562.219-.844.235h-.14c-.985 0-1.078-.86-1.078-1.641 0-.688.031-1.547.968-1.64h.126c.53 0 .843.14 1.312.53.047.032.078.047.125.047.125 0 .125-.14.14-.234.032-.188.094-.375.094-.578 0-.14-.25-.219-.406-.297a3.134 3.134 0 0 0-1.25-.25zm0 0"/></symbol><symbol overflow="visible" id="u"><path d="M1.922-4.031v-2.735c0-.421-.266-.437-.5-.437h-.39c-.25 0-.438.11-.438.453v6.281c0 .281.125.453.437.453h.438c.312 0 .484-.109.484-.468V-2.22c0-.11-.016-.234-.016-.36 0-.655.36-1.39 1.11-1.39.562 0 .578.406.578.766v2.75c0 .25.11.437.375.437h.516c.312 0 .468-.125.468-.437v-2.625c0-.344 0-.703-.156-1.031-.25-.47-.797-.579-1.266-.579-.624 0-1.093.157-1.64.657zm0 0"/></symbol><symbol overflow="visible" id="v"><path d="M.86-4.578H.733c-.25 0-.437.125-.437.36 0 .218.156.359.406.359H.86v3.187c0 .063-.015.14-.015.219 0 .39.265.437.515.437h.36c.39 0 .468-.218.468-.484v-3.36h.547c.235 0 .407-.156.407-.359 0-.203-.141-.36-.407-.36h-.578v-1.218c0-.36.031-.797.672-.797.344 0 .5.14.75.328.031.032.063.047.094.047.125 0 .125-.11.125-.187v-.36c0-.078.015-.156.015-.218 0-.297-.484-.329-.796-.329h-.188c-.547 0-1.156.079-1.547.516C1-6.484.891-6.078.86-5.672zm0 0"/></symbol><symbol overflow="visible" id="x"><path d="M3.656-.453c0 .39.235.453.5.453.094 0 .188-.016.266-.016h.11c.218 0 .452-.03.452-.421v-3.704c0-.39-.25-.437-.468-.437h-.454c-.359 0-.437.234-.437.484v1.938c0 .11.016.25.016.36 0 .624-.313 1.28-1.079 1.28h-.109c-.328-.015-.5-.093-.5-.687v-2.922c0-.266-.094-.453-.39-.453h-.5c-.329 0-.47.156-.47.453v2.766c0 .296.016.593.157.859.25.516.938.61 1.453.61.531 0 1.063-.157 1.453-.563zM1.312-6.922c-.25 0-.296.313-.296.484v.454c0 .421.234.468.5.468H2c.219 0 .438-.078.438-.359v-.64c0-.376-.282-.407-.5-.407h-.625zm2.141 0a.353.353 0 0 0-.297.36v.64c0 .39.266.406.5.406h.453c.422 0 .454-.25.454-.5v-.437c0-.422-.235-.469-.5-.469h-.61zm0 0"/></symbol><symbol overflow="visible" id="y"><path d="M2.75 1.672c-.36-.125-.672-.234-.984-.5l-.079-.078C1.329.75 1.141.125 1.657-.5l1.671 1.688c.531-.516.985-1.391.235-2.157-.657-.656-1.672-.562-2.313.063C.594-.25.719.828 1.328 1.438c.266.265.625.5.969.593.062 0 .11.031.156-.015.11-.094.188-.235.297-.344zM2.016-.766c.39-.187.859-.187 1.203.141.312.313.344.734.11 1.188zm0 0"/></symbol><symbol overflow="visible" id="z"><path d="M2.766-.14l.578-.297-.266-.5L.281.53l.281.547 1.25-.656C2.485.062 3.173.375 3.5 1l.484-.266C3.75.281 3.328 0 2.766-.14zm0 0"/></symbol><symbol overflow="visible" id="A"><path d="M.86.063L.296.124C.234.609.25 1.063.375 1.5c.172.563.61 1.11 1.297.906.469-.14.672-.61.672-1.047 0-.14 0-.265-.031-.406C2.296.72 2.171.22 2.5.125c.313-.094.484.266.547.469.11.36.125.672.062 1.015 0 .047-.015.079-.015.141l.531-.063c.047-.406-.016-.78-.125-1.156C3.344 0 2.953-.609 2.266-.406c-.438.125-.625.547-.625.969-.016.437.25 1.171-.204 1.312-.312.094-.5-.297-.578-.547C.72.891.75.5.86.062zm0 0"/></symbol><symbol overflow="visible" id="B"><path d="M4.063.266L3.171.39l-.094-.657-.437.063.093.64-1.578.204C.75.703.046.812.125 1.42c.063.407.219.75.406 1.11l.453-.187c-.156-.25-.265-.406-.296-.672-.047-.36.343-.438.578-.469L2.812 1l.141 1.078.438-.062L3.25.937l.89-.125zm0 0"/></symbol><symbol overflow="visible" id="C"><path d="M.719 3.14C.547 2.798.406 2.485.39 2.079v-.11c0-.5.312-1.062 1.125-1.124l-.047 2.375c.734.015 1.687-.25 1.703-1.328.015-.922-.75-1.594-1.64-1.61-.938-.015-1.61.813-1.626 1.672a2.4 2.4 0 0 0 .235 1.11c.03.046.047.093.109.093.14.016.313-.015.469-.015zM1.953.907c.406.156.734.5.734.969-.015.453-.28.766-.765.906zm0 0"/></symbol><symbol overflow="visible" id="D"><path d="M4.75 1.328L-.094.61l-.078.594 4.844.719zm0 0"/></symbol><symbol overflow="visible" id="E"><path d="M4.61 1.781L-.14.594l-.157.594 4.75 1.187zm0 0"/></symbol><symbol overflow="visible" id="F"><path d="M-.547 3.172c-.031-.39-.031-.719.094-1.094l.047-.11c.203-.452.703-.859 1.484-.609L.125 3.531c.672.297 1.64.422 2.078-.562.375-.844-.078-1.766-.89-2.125C.453.469-.5.969-.845 1.75a2.394 2.394 0 0 0-.203 1.125c.016.063.016.11.063.14.14.063.296.094.437.157zm1.985-1.578c.328.281.5.75.312 1.172-.188.421-.547.593-1.063.546zm0 0"/></symbol><symbol overflow="visible" id="G"><path d="M1.11 2.672l.374.344.407-.422L-.406.438l-.438.468 1.14 1.078c.313.297.735.844.282 1.313-.14.156-.36.328-.594.297-.171-.031-.312-.156-.421-.266l-1.438-1.344-.453.485 1.187 1.125c.094.078.172.156.266.25.234.203.484.406.813.422.28.015.562-.172.765-.391.313-.328.453-.75.406-1.203zm0 0"/></symbol><symbol overflow="visible" id="H"><path d="M-2.86-1.5c.391.094.72.203 1.016.438L-1.75-1c.375.344.594.938.125 1.61L-3.406-.97c-.485.563-.89 1.438-.094 2.14.703.626 1.703.47 2.297-.202.625-.703.437-1.735-.219-2.313-.281-.25-.656-.468-1.016-.531-.046-.016-.093-.031-.124.016-.094.109-.204.25-.297.359zm.891 2.39c-.375.22-.843.235-1.203-.078-.328-.296-.39-.687-.203-1.171zm0 0"/></symbol><symbol overflow="visible" id="I"><path d="M-5.61-.234l1.876-.954c-.063.407 0 .844.187 1.204.39.765 1.344.812 2.047.453.672-.344 1.234-1.14.86-1.89-.204-.391-.532-.657-.922-.829l.328-.172L-1.531-3l-4.36 2.219zm3.907.078c-.031.015-.063.047-.094.047-.5.265-1.172.187-1.5-.438-.11-.234-.14-.5-.062-.734.03-.032.03-.078.062-.094l1.219-.61c.265-.14.734.266.828.454.281.562.016 1.078-.453 1.375zm0 0"/></symbol><symbol overflow="visible" id="J"><path d="M-3.156.25l2.984-.844-.156-.578-2.985.844zm-1.625.531l.734-.203-.203-.734-.734.203zm0 0"/></symbol><symbol overflow="visible" id="K"><path d="M-4.047-.203l.875-.125.094.64.453-.062-.094-.625 1.563-.234c.406-.063 1.11-.188 1.015-.813-.062-.406-.234-.734-.421-1.094l-.454.188c.157.25.266.39.313.656.047.36-.328.453-.578.484l-1.532.235-.156-1.063-.453.063.156 1.062-.875.125zm0 0"/></symbol><symbol overflow="visible" id="L"><path d="M-3.11-.5l3.094-.11-.03-.609-3.095.11zm-1.718.125l.75-.016-.031-.765-.75.015zm0 0"/></symbol><symbol overflow="visible" id="M"><path d="M-.484-3.188c.156.36.265.688.25 1.079V-2c-.047.484-.407 1.047-1.22 1.047l.22-2.36c-.72-.078-1.688.126-1.782 1.204-.093.906.625 1.64 1.5 1.718C-.578-.312.172-1.094.25-1.937a2.472 2.472 0 0 0-.172-1.125c-.015-.047-.031-.094-.094-.11-.14-.015-.312 0-.468-.015zm-1.391 2.126c-.39-.172-.703-.547-.656-1 .047-.454.328-.75.828-.86zm0 0"/></symbol><symbol overflow="visible" id="N"><path d="M-2.14-1.766l-.626-.171-.14.546 3.062.797.157-.594-1.36-.359c-.75-.187-1.047-.844-.875-1.547l-.531-.14c-.125.5-.016 1 .312 1.468zm0 0"/></symbol><symbol overflow="visible" id="O"><path d="M.672-3.156c.015.39 0 .734-.14 1.094l-.048.109c-.218.453-.734.844-1.5.547L.016-3.531c-.657-.328-1.625-.485-2.094.484-.406.828.015 1.766.812 2.156.844.407 1.813-.062 2.188-.828a2.6 2.6 0 0 0 .234-1.125c0-.062 0-.11-.062-.14-.125-.063-.282-.11-.422-.172zm-2.047 1.515c-.328-.312-.469-.765-.266-1.187.204-.406.579-.578 1.079-.5zm0 0"/></symbol><symbol overflow="visible" id="P"><path d="M-.953-2.734l-.344-.375-.422.406L.438-.406l.468-.438-1.062-1.14c-.313-.313-.703-.891-.235-1.344.157-.14.391-.297.61-.25.203.015.328.156.437.265L2-1.875l.469-.453-1.125-1.203-.25-.25C.89-4.016.656-4.203.328-4.25c-.297-.031-.578.125-.797.328-.328.313-.5.735-.484 1.188zm0 0"/></symbol><symbol overflow="visible" id="Q"><path d="M-3.14-.078l3.046-.516-.11-.61-3.046.516zm-1.704.344l.75-.125-.125-.75-.75.125zm0 0"/></symbol><symbol overflow="visible" id="R"><path d="M-2.375-1.672l-.5-.094-.11.594L.11-.578l.125-.64-1.53-.298c-.438-.078-1.095-.312-.97-.968.047-.188.141-.454.36-.563.156-.078.328-.047.484-.015l1.938.374.125-.64-1.61-.313c-.125-.015-.234-.046-.36-.062-.296-.063-.609-.094-.905.062-.235.141-.375.454-.438.75-.078.438.016.875.297 1.22zm0 0"/></symbol><symbol overflow="visible" id="S"><path d="M-1.328-2.063c.047-.124.062-.265.094-.374a1.64 1.64 0 0 1 .359-.672l.078-.094c.25-.281.688-.235 1 .047.047.062.11.125.172.172-.547.593-1.328 1.671-.781 2.171.36.329.922.344 1.265-.046.297-.313.579-.766.61-1.172l.203.187.422-.453L.656-3.594c-.578-.531-1.328-.437-1.797.078-.25.282-.453.625-.562.97-.016.077-.063.14 0 .202.11.094.266.172.375.281zm2-.64l.187.172c.329.297.25.687-.093 1.062-.188.203-.547.438-.797.219-.235-.203.14-.672.25-.86.11-.171.218-.296.328-.437l.062-.078c.032-.016.047-.047.063-.078zm0 0"/></symbol><symbol overflow="visible" id="T"><path d="M-1.531-4.703L.579-.281 1.062-.5.64-1.375l.312-.797 1.75.86.578-.266-2.156-1.078.656-1.625-.61.297L.36-2.031l-1.39-2.906zm0 0"/></symbol><symbol overflow="visible" id="U"><path d="M-.063-4.063l.188.86-.64.14.093.454.625-.141.344 1.547c.078.406.25 1.094.86.969.39-.094.718-.266 1.062-.5l-.219-.422c-.219.187-.375.297-.64.343-.344.079-.454-.296-.516-.53L.766-2.86l1.062-.235-.094-.453-1.062.235-.188-.86zm0 0"/></symbol><symbol overflow="visible" id="V"><path d="M.375-3.125L.609-.047l.61-.047-.235-3.078zM.156-4.844l.063.75.765-.047-.062-.75zm0 0"/></symbol><symbol overflow="visible" id="W"><path d="M.344-3.063L1.422.11l.703.047 1.531-2.984-.562-.047L2.125-1l-.203.422-.094.281L1.781-.5l-.25-.813L.953-3.03H.891zm0 0"/></symbol><symbol overflow="visible" id="X"><path d="M1.313-2.875L.593.141l.595.14.718-3.015zm.312-1.688l-.172.735.75.172.172-.735zm0 0"/></symbol><symbol overflow="visible" id="Y"><path d="M3.172.547c-.39.047-.735.047-1.11-.094L1.97.406c-.453-.203-.86-.703-.61-1.469l2.172.97c.297-.673.438-1.641-.547-2.079-.843-.375-1.765.063-2.125.89C.47-.436.97.517 1.75.86c.344.157.781.235 1.125.204.063-.016.11-.016.125-.063.063-.125.11-.313.172-.453zM1.594-1.438c.297-.328.75-.5 1.187-.296.406.171.594.562.531 1.062zm0 0"/></symbol><symbol overflow="visible" id="Z"><path d="M2.531-1.14l.422-.485L2.531-2 .47.39l.453.407.922-1.063c.5-.578 1.234-.546 1.781-.078l.344-.422c-.39-.343-.875-.453-1.438-.375zm0 0"/></symbol><symbol overflow="visible" id="aa"><path d="M2.078 2.453c-.312-.219-.578-.437-.781-.781l-.047-.094c-.219-.453-.219-1.094.484-1.516l1.047 2.126c.656-.329 1.375-1 .906-1.97-.406-.827-1.406-1.062-2.203-.671C.641-.047.422 1.016.797 1.78c.172.344.453.672.75.875.031.031.062.063.125.031.125-.062.266-.171.406-.234zm.078-2.547c.422-.047.875.11 1.094.531.188.407.094.813-.266 1.157zm0 0"/></symbol><symbol overflow="visible" id="ab"><path d="M2.578 1.328l.516.031.031-.593L-.031.594l-.032.64 1.563.079c.438.03 1.11.171 1.078.828-.015.203-.078.484-.265.609-.141.11-.329.094-.485.094l-1.969-.11-.047.657 1.641.093c.125 0 .234 0 .36.016.312.016.64 0 .89-.188.235-.171.328-.5.344-.796a1.48 1.48 0 0 0-.469-1.188zm0 0"/></symbol><symbol overflow="visible" id="ac"><path d="M.016 3.219c-.11-.375-.172-.719-.11-1.094l.032-.11c.109-.484.546-.984 1.343-.859L.72 3.47c.719.172 1.687.125 1.953-.922.219-.906-.39-1.719-1.25-1.922-.906-.234-1.75.422-1.953 1.25a2.347 2.347 0 0 0 0 1.14c.015.063.015.11.062.126.14.03.328.046.485.078zm1.687-1.906c.36.25.61.656.5 1.125-.11.437-.453.671-.953.703zm0 0"/></symbol><symbol overflow="visible" id="ad"><path d="M2.25 1.61l.64.124.11-.562L-.11.594l-.109.61 1.375.25c.766.14 1.094.796.969 1.5l.547.093c.094-.5-.047-.985-.422-1.438zm0 0"/></symbol><symbol overflow="visible" id="ae"><path d="M.75.406L.219.25c-.25.406-.422.813-.485 1.266-.062.593.11 1.28.813 1.359.484.063.875-.281 1.047-.688.047-.124.093-.234.125-.374.078-.235.172-.735.515-.688.329.047.344.422.313.64-.047.376-.156.688-.36.97a.468.468 0 0 1-.062.124l.484.157c.204-.344.313-.72.375-1.11.063-.547-.046-1.265-.75-1.343-.453-.063-.796.234-.968.609-.204.39-.235 1.187-.704 1.125C.234 2.25.22 1.828.25 1.562.297 1.11.484.782.75.407zm0 0"/></symbol><symbol overflow="visible" id="af"><path d="M3.922 1.063L3.047 1l.031-.656-.453-.031-.031.64L1.016.86C.594.83-.11.797-.156 1.422c-.032.406.062.766.172 1.172L.484 2.5c-.093-.281-.171-.453-.156-.719.031-.36.422-.36.672-.343l1.547.093-.078 1.078.453.032L3 1.562l.875.063zm0 0"/></symbol><symbol overflow="visible" id="ag"><path d="M.781 3.125c-.187-.344-.328-.656-.36-1.047v-.11c0-.5.298-1.077 1.11-1.155v2.375c.735 0 1.672-.282 1.672-1.36C3.203.906 2.422.25 1.531.25c-.937 0-1.593.844-1.593 1.703 0 .375.093.797.265 1.11.031.046.047.093.11.093.14 0 .312-.031.468-.031zM1.97.875c.406.14.75.484.75.953 0 .453-.266.766-.75.922zm0 0"/></symbol><symbol overflow="visible" id="ah"><path d="M4.922.344L.032.609l.03.61L4.954.953zm0 0"/></symbol><symbol overflow="visible" id="ai"><path d="M4.938.156L.063.61l.046.61L4.984.766zm0 0"/></symbol><symbol overflow="visible" id="aj"><path d="M1.219 2.984C1 2.672.812 2.375.719 2l-.016-.11c-.062-.5.14-1.124.938-1.312l.343 2.36c.72-.11 1.61-.532 1.454-1.594C3.296.422 2.421-.094 1.546.03.625.171.094 1.094.219 1.953.28 2.313.422 2.72.64 3c.046.047.062.094.125.078.14-.015.312-.078.453-.094zm.86-2.406c.405.078.812.375.874.844.063.437-.156.781-.61 1.016zm0 0"/></symbol><symbol overflow="visible" id="ak"><path d="M2.828.578l.5-.11-.125-.577L.125.578l.14.625L1.798.86c.422-.093 1.125-.125 1.266.516.046.203.046.469-.11.656-.11.14-.281.188-.437.219l-1.922.422.14.64 1.61-.359c.11-.015.219-.047.344-.078.296-.063.609-.156.812-.422.156-.234.172-.562.094-.86-.094-.437-.36-.78-.766-1.015zm0 0"/></symbol><symbol overflow="visible" id="al"><path d="M.781 3.125c-.187-.344-.328-.656-.36-1.047v-.11c0-.5.298-1.077 1.11-1.155v2.375c.735 0 1.672-.282 1.672-1.36C3.203.906 2.422.25 1.531.25c-.937 0-1.593.844-1.593 1.703 0 .375.093.797.265 1.11.031.046.047.093.11.093.14 0 .312-.031.468-.031zM1.97.875c.406.14.75.484.75.953 0 .453-.266.766-.75.922zm0 0"/></symbol><symbol overflow="visible" id="am"><path d="M4.89 2.75H2.798a2.04 2.04 0 0 0 .375-1.156c0-.86-.844-1.328-1.625-1.328-.766 0-1.61.453-1.61 1.296 0 .438.157.829.438 1.157H0v.656h4.89zM1.454.906h.11c.562 0 1.125.375 1.125 1.078 0 .266-.094.5-.282.688-.031.015-.062.047-.094.047H.954c-.312 0-.531-.578-.531-.797 0-.625.469-.953 1.031-1.016zm0 0"/></symbol><symbol overflow="visible" id="an"><path d="M3.094.61H0v.609h3.094zM4.813.53h-.75v.766h.75zm0 0"/></symbol><symbol overflow="visible" id="ao"><path d="M3.984.797h-.89V.14H2.64v.64H1.062c-.421 0-1.125.016-1.125.64 0 .407.11.766.25 1.157l.47-.125C.53 2.188.452 2.016.452 1.75c0-.36.39-.39.64-.39h1.548v1.077h.453V1.36h.89zm0 0"/></symbol><symbol overflow="visible" id="ap"><path d="M2.516 1.172h.64V.609H0v.61h1.406c.766 0 1.219.578 1.219 1.297h.547c0-.516-.219-.97-.656-1.344zm0 0"/></symbol><symbol overflow="visible" id="aq"><path d="M2.64 1.188h.516V.594H0v.64h1.563c.437 0 1.125.11 1.125.766 0 .203-.047.484-.235.625-.14.11-.328.11-.484.11H0v.656h2c.313 0 .625-.032.875-.235.219-.187.297-.515.297-.812a1.5 1.5 0 0 0-.531-1.156zm0 0"/></symbol><symbol overflow="visible" id="ar"><path d="M3.11-.484L.202.578l.219.563L3.328.078zm1.593-.672L4-.906l.266.719.703-.25zm0 0"/></symbol><symbol overflow="visible" id="as"><path d="M2.875.36l.5-.157-.188-.578L.172.563l.187.609L1.844.703c.422-.125 1.125-.219 1.312.406.063.204.094.485-.031.657-.11.156-.281.218-.438.265L.813 2.61 1 3.234l1.563-.484c.124-.047.234-.078.343-.11.297-.093.594-.218.781-.484.141-.25.126-.578.047-.86A1.547 1.547 0 0 0 2.875.36zm0 0"/></symbol><symbol overflow="visible" id="at"><path d="M2.453.078c.078.125.188.203.266.281.172.22.25.454.328.688l.031.11c.078.374-.187.702-.594.796L2.25 2C2.062 1.219 1.61-.047.906.125.422.235.094.703.22 1.203c.093.406.312.906.625 1.156l-.281.063.14.61 1.89-.438c.75-.188 1.11-.86.954-1.547a2.705 2.705 0 0 0-.485-1c-.046-.063-.062-.14-.156-.11-.14.032-.297.11-.453.141zM1.86 2.094l-.25.047c-.437.109-.718-.188-.843-.672-.063-.266-.047-.719.28-.797.298-.063.485.5.579.719.078.171.11.343.172.515L1.813 2c.015.031.015.063.046.094zm0 0"/></symbol><symbol overflow="visible" id="au"><path d="M4.922-.11L.094.64l.093.516L1.141 1l.671.547L.484 2.969l.094.625 1.656-1.75 1.36 1.078-.11-.672L1.844.922 5.016.437zm0 0"/></symbol><symbol overflow="visible" id="av"><path d="M4.031.453l-.89.078-.047-.656-.453.031.046.64-1.562.141C.703.72 0 .797.062 1.422c.032.406.172.75.344 1.125l.469-.172c-.156-.25-.25-.406-.266-.672-.03-.36.36-.422.61-.437l1.531-.141.094 1.063.453-.032-.094-1.062.89-.078zm0 0"/></symbol><symbol overflow="visible" id="aw"><path d="M3.125.484L.031.61l.016.61 3.094-.125zm1.703-.14l-.75.031.031.766.75-.032zm0 0"/></symbol><symbol overflow="visible" id="ax"><path d="M3.094.156L-.031 1.422v.703l3.062 1.36.016-.579-1.922-.844-.438-.171-.296-.094.203-.047.797-.297L3.078.766V.703zm0 0"/></symbol><symbol overflow="visible" id="ay"><path d="M3.031.844L-.047.609l-.047.61 3.078.234zM4.75.89L4 .828l-.047.766.75.062zm0 0"/></symbol><symbol overflow="visible" id="az"><path d="M.375 3.188c-.14-.344-.234-.672-.219-1.079L.172 2c.062-.5.437-1.016 1.234-.984L1.11 3.359c.735.094 1.688-.078 1.829-1.14.124-.906-.563-1.656-1.454-1.766-.921-.125-1.687.61-1.796 1.469-.047.375-.016.812.124 1.14.032.047.032.094.094.11.14.015.313 0 .469.015zm1.469-2.063c.39.172.687.563.625 1.031-.063.453-.36.735-.875.828zm0 0"/></symbol><symbol overflow="visible" id="aA"><path d="M2.25 1.625l.625.125.11-.563L-.11.595l-.125.61 1.375.265c.765.14 1.093.797.968 1.5l.532.094c.093-.5-.032-.985-.391-1.438zm0 0"/></symbol><symbol overflow="visible" id="aB"><path d="M-.016 3.219c-.093-.375-.156-.719-.093-1.094l.03-.11c.126-.484.563-.984 1.36-.859L.703 3.47c.719.172 1.703.125 1.953-.922.235-.89-.375-1.703-1.234-1.922-.906-.234-1.75.422-1.969 1.25-.078.36-.094.797 0 1.14.016.063.031.11.078.126.14.03.313.046.453.078zm1.704-1.89c.359.234.625.655.5 1.109-.11.453-.454.671-.954.718zm0 0"/></symbol><symbol overflow="visible" id="aC"><path d="M2.156 1.938l.485.156.171-.563-3-.968-.187.609 1.484.484c.422.14 1.032.453.829 1.078-.063.188-.188.438-.422.516-.157.063-.344 0-.485-.047l-1.875-.61-.203.626 1.563.5c.109.047.218.078.343.125.297.094.61.156.907.047.25-.11.437-.391.53-.672.142-.438.095-.89-.14-1.281zm0 0"/></symbol><symbol overflow="visible" id="aD"><path d="M.484-3.188c.047.391.047.735-.078 1.11l-.031.11c-.203.452-.688.859-1.469.624l.922-2.187c-.687-.281-1.656-.39-2.078.61-.36.843.11 1.75.938 2.093.859.36 1.796-.156 2.125-.938A2.62 2.62 0 0 0 1-2.906C.984-2.97.984-3 .937-3.031c-.14-.047-.312-.094-.453-.156zm-1.953 1.61c-.328-.281-.515-.719-.343-1.156.171-.422.546-.61 1.062-.563zm0 0"/></symbol><symbol overflow="visible" id="aE"><path d="M-1.781-2.14l-.578-.266-.235.515L.266-.547l.25-.562-1.266-.594c-.703-.328-.86-1.047-.547-1.703l-.5-.235c-.219.47-.219.97.016 1.5zm0 0"/></symbol><symbol overflow="visible" id="aF"><path d="M-.563-.656l.438.36C.25-.595.563-.938.781-1.345 1.062-1.859 1.11-2.562.5-2.89c-.453-.234-.922-.03-1.234.282-.079.093-.172.203-.25.312-.157.188-.407.625-.72.469-.28-.156-.171-.531-.062-.734.172-.329.375-.547.657-.766.046-.031.078-.063.109-.078l-.406-.344a3.412 3.412 0 0 0-.735.922c-.25.484-.39 1.203.25 1.531.391.219.813.047 1.11-.266.312-.296.625-1 1.047-.78.296.155.171.562.046.796-.203.406-.5.656-.875.89zm0 0"/></symbol><symbol overflow="visible" id="aG"><path d="M-3.047-2.688l.781.454-.328.562.39.219L-1.89-2l1.36.797c.375.203.984.547 1.297 0 .203-.344.28-.719.375-1.125l-.47-.125c-.03.297-.046.469-.187.703-.171.313-.53.156-.75.031L-1.594-2.5l.532-.938-.391-.218-.531.937-.782-.453zm0 0"/></symbol><symbol overflow="visible" id="aH"><path d="M1.031-3.047c-.015.375-.062.719-.265 1.063l-.063.093c-.265.422-.828.75-1.547.375L.453-3.5c-.625-.406-1.562-.672-2.156.234-.5.766-.188 1.75.562 2.235.782.5 1.782.14 2.25-.578.204-.313.344-.72.375-1.079 0-.046.032-.109-.03-.14-.11-.078-.298-.14-.423-.219zm-2.218 1.25c-.266-.344-.36-.812-.11-1.203.25-.39.64-.5 1.125-.375zm0 0"/></symbol><symbol overflow="visible" id="aI"><path d="M-3.656-3.313l4 2.813.36-.5-4-2.813zm0 0"/></symbol><symbol overflow="visible" id="aJ"><path d="M-3.563-3.406L.36-.484l.375-.5-3.921-2.922zm0 0"/></symbol><symbol overflow="visible" id="aK"><path d="M1.36-2.906c-.079.375-.173.703-.376 1.031l-.078.078c-.312.39-.906.656-1.578.203l1.485-1.86c-.579-.452-1.47-.827-2.141.017-.578.718-.39 1.718.297 2.28.718.595 1.765.36 2.312-.312.235-.297.422-.687.485-1.031 0-.063.03-.11-.032-.156-.109-.078-.25-.156-.375-.25zm-2.344.984c-.22-.375-.266-.86.03-1.219.282-.343.673-.421 1.157-.234zm0 0"/></symbol><symbol overflow="visible" id="aL"><path d="M-1.156-2.64l-.39-.36-.407.438L.39-.438l.437-.484-1.156-1.047c-.328-.297-.766-.828-.328-1.312.14-.156.375-.328.61-.313.155.016.296.14.421.235l1.453 1.328.453-.485-1.219-1.093C.97-3.703.891-3.781.797-3.86.562-4.063.297-4.25 0-4.266c-.313-.015-.594.188-.781.407a1.446 1.446 0 0 0-.375 1.218zm0 0"/></symbol><symbol overflow="visible" id="aM"><path d="M.125-.188l.344-.5-.781-1.218.062-.125L.813-3.578l.093-.125.094.015 1.016.22.312.046.063-.031.39-.594c-.172-.047-.328-.078-.515-.125-1.407-.312-2.86-.61-4.297-.906-.156-.031-.281-.11-.344-.016-.016.047-.047.063-.063.11l-.203.28c0 .016-.015.032-.046.079-.063.078.015.14.062.203l.172.297c.219.328.406.625.625.953l1.281 1.985c.219.328.406.687.672 1zm-.719-2.109c-.156-.25-.328-.5-.484-.75-.281-.406-.531-.812-.828-1.172-.063-.093-.125-.187-.219-.234l.36.094.515.14 1.719.39zm0 0"/></symbol><symbol overflow="visible" id="aN"><path d="M-1.5-2.484l-.422-.297-.328.5L.344-.484l.36-.532-1.282-.89c-.36-.25-.875-.735-.5-1.266.11-.172.312-.375.547-.375.172-.015.328.094.453.188L1.547-2.25l.375-.547-1.344-.937a1.99 1.99 0 0 1-.297-.204c-.265-.171-.531-.312-.86-.28-.28.03-.53.25-.702.484a1.55 1.55 0 0 0-.219 1.25zm0 0"/></symbol><symbol overflow="visible" id="aO"><path d="M-2.11-2.375l-.328.453.376.25.328-.453 2.171 1.5.344-.5-2.172-1.5.47-.688-.376-.25-.484.688-.688-.469c-.297-.219-.25-.562-.047-.875.125-.172.282-.328.454-.453l-.454-.312c-.125.156-.28.312-.39.468-.281.407-.406.954-.016 1.516.125.14.266.234.406.328zm0 0"/></symbol><symbol overflow="visible" id="aP"><path d="M-1.406-2.39l-.516-.376-.328.47L.344-.5.688-1-.47-1.797c-.625-.437-.672-1.172-.265-1.766l-.454-.312a1.747 1.747 0 0 0-.218 1.484zm0 0"/></symbol><symbol overflow="visible" id="aQ"><path d="M-1.594-1.875c.032-.125.016-.25.032-.375.046-.266.156-.5.28-.719l.063-.078c.235-.328.657-.344 1-.094.063.032.11.094.188.141C-.484-2.344-1.11-1.156-.5-.75A.87.87 0 0 0 .734-.969c.25-.344.47-.828.438-1.234l.234.156.36-.515L.172-3.657c-.64-.453-1.375-.235-1.781.344-.204.296-.36.656-.407 1.015-.03.078-.062.14.016.203.125.078.281.125.406.219zm1.89-.89l.204.14c.375.25.36.656.063 1.063-.157.234-.485.515-.75.328-.266-.188.03-.688.109-.907l.281-.468.063-.079c.015-.03.03-.062.03-.078zm0 0"/></symbol><symbol overflow="visible" id="aR"><path d="M.203-.703c-.062.25.063.61.313.781.593.406 1.421-.375 1.75-.86a2.55 2.55 0 0 0 .421-.937c.079-.343.063-.797-.25-1.031l-.046-.016c-.766-.421-1.375.391-1.672.829l-.39.562c-.126.172-.329.219-.5.094l-.032-.016c-.047-.047-.078-.094-.125-.14.234-.141.422-.25.578-.485.375-.516.313-1.281-.234-1.672a1.094 1.094 0 0 0-.688-.187l.313-.453.28-.375c-.202-.11-.437-.22-.483-.157l-.032.032c-.187.28-.36.671-.453 1.03l.078-.03c-.265.109-.5.296-.672.515-.328.5-.359 1.266.235 1.672a1 1 0 0 0 .578.203c.047 0 .11-.015.125 0 .047.032.094.203.156.282.047.078.125.14.203.203.172.109.344.171.547.156zM.72-.97l.5-.719c.218-.312.61-.812.937-.578.36.25-.203 1.125-.265 1.235-.22.312-.75.89-1.063.672C.625-.484.625-.781.718-.97zm-2.016-1.906c.016-.016.016-.063.031-.094.204-.297.563-.422.97-.14.312.218.405.609.171.937-.203.313-.578.453-.969.172-.312-.203-.375-.547-.203-.875zm0 0"/></symbol><symbol overflow="visible" id="aS"><path d="M1.125-3.016c-.031.375-.094.735-.297 1.063l-.062.094c-.282.421-.86.718-1.563.312L.547-3.5c-.594-.406-1.531-.703-2.156.188-.516.75-.25 1.734.484 2.234.781.531 1.797.203 2.281-.5.219-.313.375-.703.407-1.047.015-.078.03-.11-.016-.14-.125-.079-.297-.172-.422-.25zm-2.25 1.188c-.25-.36-.344-.844-.078-1.219.266-.375.656-.484 1.14-.328zm0 0"/></symbol><symbol overflow="visible" id="aT"><path d="M-.484-.703l.406.375c.422-.25.75-.547 1-.922.344-.484.484-1.156-.094-1.563-.406-.28-.89-.14-1.25.126-.094.093-.187.171-.281.296-.172.157-.485.563-.766.36-.281-.188-.11-.531.016-.719.219-.313.453-.516.766-.672.03-.047.062-.062.109-.094l-.375-.359c-.344.219-.61.5-.828.813-.313.453-.532 1.14.062 1.546.375.266.797.141 1.14-.125.345-.25.735-.921 1.141-.656.266.188.094.578-.062.797-.25.375-.563.594-.984.797zm0 0"/></symbol><symbol overflow="visible" id="aU"><path d="M-2.828-2.922l.734.516-.375.547.375.25.36-.532 1.296.891C-.094-1 .5-.625.86-1.14c.22-.329.344-.688.454-1.094l-.47-.157c-.046.297-.077.485-.218.704-.203.296-.547.078-.766-.063l-1.265-.875.625-.875-.375-.25-.625.875-.735-.516zm0 0"/></symbol><symbol overflow="visible" id="aV"><path d="M-3.688-3.281L.345-.5.688-1l-4.032-2.781zm0 0"/></symbol><symbol overflow="visible" id="aW"><path d="M-1.86-4.531L.626-.375l.531-.313-2.187-3.656 4.093 2.375.11.063.094-.032.78-.468-2.484-4.156-.546.312 2.187 3.656-4.078-2.39L-1-5.016-1.078-5zm0 0"/></symbol><symbol overflow="visible" id="aX"><path d="M-2.219-4.36L.562-.39l.61-.438-1.313-1.875 2.094-1.453 1.313 1.875.609-.438-2.781-3.969-.61.438 1.188 1.703-2.094 1.453-1.187-1.703zm0 0"/></symbol><symbol overflow="visible" id="aY"><path d="M-1.047-1.438l.281.344 1.61-1.281-.281-.344zm0 0"/></symbol><symbol overflow="visible" id="aZ"><path d="M-2.672-4.063L.516-.453 3.234-2.86l-.39-.438L.688-1.39l-1.11-1.265 1.906-1.688-.328-.36L-.75-3.015l-1.031-1.171L.297-6.016l-.328-.375zm0 0"/></symbol><symbol overflow="visible" id="ba"><path d="M-1.047-2.703l-.375-.36-.406.422L.422-.42l.437-.454L-.25-1.969c-.313-.312-.734-.875-.266-1.343.141-.141.391-.313.61-.282.187.016.312.156.422.266l1.406 1.375.453-.469-1.172-1.156-.25-.25c-.219-.219-.469-.406-.781-.438-.297-.015-.578.172-.797.375a1.516 1.516 0 0 0-.422 1.188zm0 0"/></symbol><symbol overflow="visible" id="bb"><path d="M-1.906-5.281l1.593 1.375a1.955 1.955 0 0 0-1.046.625c-.563.64-.235 1.562.359 2.062.578.5 1.516.719 2.063.078.296-.328.421-.734.437-1.171l.281.25.422-.485L-1.5-5.75zM-.5-1.641c-.031-.015-.063-.046-.094-.062-.422-.375-.594-1.016-.14-1.547a.912.912 0 0 1 .656-.344c.031.016.094 0 .11.016l1.03.89c.235.204.032.782-.125.954-.406.468-.968.421-1.437.093zm0 0"/></symbol><symbol overflow="visible" id="bc"><path d="M1.266-2.953c-.047.375-.125.703-.329 1.047l-.078.093c-.296.391-.89.672-1.578.25L.72-3.452c-.578-.453-1.5-.797-2.156.062-.563.735-.329 1.72.375 2.266.75.563 1.765.281 2.296-.39.22-.313.407-.688.47-1.048 0-.046 0-.109-.048-.14-.11-.094-.265-.156-.39-.25zm-2.297 1.062c-.25-.359-.297-.828-.016-1.203.266-.36.672-.453 1.156-.281zm0 0"/></symbol><symbol overflow="visible" id="bd"><path d="M-1.688-2.36l-.437-.265-.297.516L.297-.516l.328-.546-1.344-.797c-.375-.22-.922-.657-.578-1.22.094-.187.266-.39.516-.421.156-.031.328.063.453.14l1.703 1 .344-.562-1.344-.797C0-3.938-.547-4.359-.219-4.938c.11-.187.281-.39.531-.421.157-.016.329.062.454.14l1.703 1 .328-.562-1.719-1c-.203-.125-.437-.235-.672-.25-.39-.032-.687.234-.875.531-.219.39-.312.953-.11 1.328-.515-.016-.75.156-.984.547-.218.39-.28.813-.125 1.266zm0 0"/></symbol><symbol overflow="visible" id="be"><path d="M.672-3.156c.015.39 0 .734-.14 1.094l-.048.109c-.218.453-.734.844-1.5.547L.016-3.531c-.657-.328-1.61-.485-2.094.484-.406.828.015 1.766.812 2.156.844.407 1.813-.062 2.188-.828a2.6 2.6 0 0 0 .234-1.125c0-.062.016-.11-.047-.14-.125-.063-.296-.11-.437-.172zm-2.047 1.515c-.328-.312-.469-.765-.266-1.187.204-.406.579-.578 1.079-.5zm0 0"/></symbol><symbol overflow="visible" id="bf"><path d="M-4.234-2.531L.25-.562l.234-.547L-4-3.08zm0 0"/></symbol><symbol overflow="visible" id="bg"><path d="M-3.563-4.328l1.954.75a2.029 2.029 0 0 0-.766.937c-.313.797.297 1.547 1.031 1.829.703.28 1.672.156 1.969-.625.156-.407.14-.829.016-1.235l.343.14.235-.609-4.563-1.765zm2.532 2.953c-.032 0-.063-.031-.094-.031-.531-.203-.906-.75-.656-1.407a.958.958 0 0 1 .5-.546c.031 0 .078-.016.11-.016l1.265.5c.297.11.297.719.218.922-.234.594-.796.719-1.343.578zm0 0"/></symbol><symbol overflow="visible" id="bh"><path d="M.25-3.219c.063.39.094.735 0 1.125L.219-2c-.172.484-.625.938-1.422.75l.75-2.266c-.703-.218-1.688-.25-2.016.782-.297.875.25 1.734 1.094 2.015.89.297 1.781-.297 2.047-1.125.125-.343.156-.781.094-1.125C.75-3.03.75-3.079.687-3.094.547-3.14.392-3.172.25-3.219zm-1.844 1.766c-.343-.266-.562-.703-.406-1.14.14-.438.484-.641.984-.641zm0 0"/></symbol><symbol overflow="visible" id="bi"><path d="M-2.234-1.844l-.5-.14-.157.562 3.047.844.172-.61-1.5-.421c-.422-.11-1.062-.407-.89-1.032.062-.203.187-.453.406-.546.156-.079.343-.016.5.015l1.89.531.172-.625-1.578-.437c-.125-.031-.234-.063-.344-.094-.312-.094-.625-.14-.906-.015-.266.124-.437.421-.516.703-.124.437-.046.875.204 1.265zm0 0"/></symbol><symbol overflow="visible" id="bj"><path d="M3.078-.703L.25.562l.25.547L3.328-.156zm1.531-.781l-.687.296.312.704.688-.297zm0 0"/></symbol><symbol overflow="visible" id="bk"><path d="M2.89-.063l.47-.218-.266-.547L.25.532l.281.577L1.937.438C2.329.25 3 .061 3.282.64c.094.187.172.453.063.671-.078.157-.25.235-.39.313l-1.782.844.297.594 1.484-.704c.11-.062.203-.109.313-.156.296-.14.562-.297.687-.594C4.078 1.344 4 1 3.875.734a1.53 1.53 0 0 0-.984-.796zm0 0"/></symbol><symbol overflow="visible" id="bl"><path d="M2.406-.531c.11.094.203.14.328.203.204.172.344.375.485.594l.047.093c.171.344 0 .735-.375.922-.079.032-.157.063-.22.094C2.314.672 1.564-.438.907-.094A.889.889 0 0 0 .5 1.11c.188.375.531.797.89.97l-.25.124.298.563 1.718-.891c.688-.36.86-1.094.531-1.719a2.719 2.719 0 0 0-.703-.875c-.062-.047-.093-.11-.171-.062-.126.062-.266.172-.407.25zm-.11 2.094l-.218.109c-.39.219-.734.016-.969-.438C.984.984.891.547 1.188.406c.28-.156.578.36.734.547.11.14.187.297.297.453l.047.078a.12.12 0 0 0 .03.079zm0 0"/></symbol><symbol overflow="visible" id="bm"><path d="M4.578-1.844L.312.563l.266.453.844-.47.797.25-.735 1.813.313.563.922-2.219L4.39 1.5 4.047.89l-2-.671L4.859-1.36zm0 0"/></symbol><symbol overflow="visible" id="bn"><path d="M3.813-1.375l-.766.453-.328-.562-.375.234.328.547-1.36.828C.954.344.36.719.688 1.25c.22.344.5.594.813.86l.328-.36c-.234-.156-.39-.266-.531-.484-.188-.313.125-.547.344-.672L2.969-.22l.562.922.375-.234-.562-.922.765-.453zm0 0"/></symbol><symbol overflow="visible" id="bo"><path d="M2.938-1.14L.328.515l.328.515 2.61-1.656zm1.406-1l-.64.406.421.64.64-.406zm0 0"/></symbol><symbol overflow="visible" id="bp"><path d="M2.625-1.64L.797 1.171l.39.594 3.297-.657-.328-.468-2.062.421-.453.079-.297.109.14-.156.485-.719 1-1.516-.031-.046zm0 0"/></symbol><symbol overflow="visible" id="bq"><path d="M2.875-1.297L.359.5l.344.484L3.22-.812zm1.36-1.062l-.626.437.438.625.625-.437zm0 0"/></symbol><symbol overflow="visible" id="br"><path d="M2.5 2.031c-.36-.172-.656-.328-.906-.625l-.063-.078C1.234.922 1.11.281 1.703-.266l1.438 1.891c.593-.438 1.171-1.234.515-2.094-.547-.734-1.562-.781-2.281-.25-.75.563-.766 1.625-.25 2.313.234.297.563.593.875.718.063.032.11.047.156.016.11-.078.219-.203.344-.297zM2.11-.484c.39-.141.874-.079 1.156.296.28.376.25.782-.032 1.204zm0 0"/></symbol><symbol overflow="visible" id="bs"><path d="M2.703-.656l.5-.39-.36-.454L.376.469l.39.484L1.86.078c.61-.484 1.313-.312 1.766.25l.438-.344c-.329-.406-.782-.625-1.36-.64zm0 0"/></symbol><symbol overflow="visible" id="bt"><path d="M2.61 1.89c-.36-.156-.672-.296-.938-.562l-.078-.094C1.28.86 1.125.22 1.704-.359l1.53 1.812C3.797.97 4.328.156 3.625-.672 3.031-1.375 2-1.375 1.328-.797.61-.203.656.875 1.218 1.531c.235.297.595.547.907.688.047 0 .094.031.14-.016.11-.094.235-.219.344-.312zM2.062-.593c.406-.156.89-.125 1.187.235.297.359.297.765.031 1.187zm0 0"/></symbol><symbol overflow="visible" id="bu"><path d="M2.766-.875l.375-.344-.407-.453L.391.438l.437.484L1.984-.125c.329-.297.907-.672 1.36-.188.125.157.281.391.234.625-.031.172-.172.297-.281.407L1.828 2.03l.438.485 1.218-1.094c.094-.094.172-.156.266-.25.234-.203.453-.422.5-.75.031-.281-.125-.578-.328-.797a1.444 1.444 0 0 0-1.156-.5zm0 0"/></symbol><symbol overflow="visible" id="bv"><path d="M2.969-.86L.438 1.345l.234.672 3.344.28-.188-.546-2.094-.172-.453-.016-.312.016.172-.14.64-.532L3.156-.28l-.015-.063zm0 0"/></symbol><symbol overflow="visible" id="bw"><path d="M1.875 2.61c-.297-.25-.531-.485-.719-.844l-.031-.094C.937 1.203 1 .562 1.719.188l.89 2.203c.688-.282 1.438-.875 1.032-1.875-.329-.86-1.297-1.188-2.125-.844C.64.016.344 1.032.656 1.828c.14.344.39.703.672.938.047.03.078.078.14.062.126-.062.266-.156.407-.219zM2.156.077c.422-.031.875.172 1.047.61.172.421.047.812-.36 1.125zm0 0"/></symbol><symbol overflow="visible" id="bx"><path d="M2.781 0l.578-.266-.234-.515L.265.547l.25.562L1.798.516c.687-.329 1.344 0 1.64.656l.5-.234C3.72.468 3.329.155 2.782 0zm0 0"/></symbol><symbol overflow="visible" id="by"><path d="M2.89-.281l.438-.25-.297-.516L.297.516l.312.562L1.97.297C2.344.078 3-.156 3.329.407c.093.171.202.437.093.655-.063.172-.219.25-.36.329l-1.703.984.329.563 1.359-.782c.375-.219 1.015-.453 1.344.11.109.187.203.453.109.671-.078.157-.234.25-.375.329l-1.703.984.328.547 1.719-.984c.218-.126.422-.266.562-.454.203-.328.125-.718-.047-1.03-.218-.376-.656-.735-1.078-.75.266-.438.219-.735 0-1.141a1.45 1.45 0 0 0-1.015-.72zm0 0"/></symbol><symbol overflow="visible" id="bz"><path d="M2.906-1.234L.344.5l.344.516L3.25-.72zm1.375-1.032l-.625.422.438.64.625-.421zm0 0"/></symbol><symbol overflow="visible" id="bA"><path d="M3.672-1.734l-.719.53-.39-.53-.36.265.39.516-1.265.937C.984.25.422.672.797 1.172c.25.328.547.547.89.781L2 1.578c-.266-.14-.438-.234-.594-.437-.218-.297.078-.547.282-.704l1.25-.921.64.859.36-.266-.641-.859.719-.531zm0 0"/></symbol><symbol overflow="visible" id="bB"><path d="M3.578-1.938l-.687.579-.422-.5-.344.28.406.485L1.312-.078C1 .188.47.656.86 1.14c.266.312.563.515.922.718l.282-.39c-.266-.125-.438-.219-.594-.422-.235-.281.062-.531.25-.703l1.187-.985.688.829.344-.282-.688-.828.688-.578zm0 0"/></symbol><symbol overflow="visible" id="bC"><path d="M2.703 1.75c-.375-.125-.687-.25-.969-.516l-.078-.078c-.343-.36-.515-.984.016-1.61l1.625 1.735c.531-.5 1.031-1.343.297-2.125-.625-.687-1.656-.625-2.297-.015C.609-.22.703.844 1.28 1.469c.266.281.61.531.969.625.047.015.094.047.14 0 .094-.094.188-.235.313-.344zM2.031-.703c.39-.172.875-.156 1.203.187.313.329.329.735.079 1.188zm0 0"/></symbol><symbol overflow="visible" id="bD"><path d="M3.844-3.078L.438.422l.437.422 3.406-3.5zm0 0"/></symbol><symbol overflow="visible" id="bE"><path d="M2.625-1.203l.344-.39-.438-.391L.453.39l.469.421L1.953-.359c.281-.329.828-.766 1.313-.344.156.14.343.36.312.594 0 .171-.11.312-.219.421L2.063 1.798l.484.437L3.625 1c.078-.094.156-.172.234-.266.204-.234.407-.484.407-.812 0-.297-.188-.578-.407-.766a1.537 1.537 0 0 0-1.234-.36zm0 0"/></symbol><symbol overflow="visible" id="bF"><path d="M2.563 1.953c-.36-.156-.657-.312-.938-.594l-.063-.093C1.25.875 1.125.234 1.704-.313l1.484 1.844c.579-.468 1.141-1.265.454-2.11-.579-.718-1.594-.75-2.297-.187C.625-.187.64.906 1.172 1.563c.234.296.578.562.906.703.063.015.094.03.156-.016.11-.078.204-.203.329-.297zm-.485-2.5c.406-.14.89-.094 1.188.266.28.36.265.765-.016 1.187zm0 0"/></symbol><symbol overflow="visible" id="bG"><path d="M2.703-.594l.516-.375-.328-.453L.375.484l.36.485 1.124-.86c.61-.453 1.329-.265 1.766.297l.438-.328c-.313-.406-.782-.625-1.36-.672zm0 0"/></symbol><symbol overflow="visible" id="bH"><path d="M.828-.219l-.5.25C.422.5.594.921.86 1.281c.344.485.938.844 1.5.438.407-.297.454-.797.297-1.219C2.61.39 2.562.266 2.5.14c-.11-.203-.375-.656-.11-.843.266-.203.563.078.688.265.219.297.344.594.39.938.016.047.016.094.032.14l.484-.234a3.25 3.25 0 0 0-.5-1.047c-.328-.453-.89-.89-1.484-.468-.36.265-.406.718-.266 1.109.125.422.641 1 .25 1.281-.265.203-.578-.093-.734-.297C.984.61.875.22.828-.219zm0 0"/></symbol><symbol overflow="visible" id="bI"><path d="M3.75-1.594l-.734.5-.375-.547-.375.266.359.531-1.313.89C.97.282.406.688.75 1.204c.234.344.516.578.86.813l.312-.36c-.25-.14-.406-.234-.563-.453-.203-.297.11-.547.313-.687L2.953-.36l.61.89.374-.265-.609-.891.735-.5zm0 0"/></symbol><symbol overflow="visible" id="bJ"><path d="M2.344 2.203c-.344-.172-.64-.375-.86-.687l-.062-.094C1.156 1 1.094.359 1.734-.141l1.282 2c.609-.39 1.25-1.14.671-2.046-.5-.782-1.5-.922-2.25-.438C.641-.109.547.953 1 1.672c.203.312.516.625.828.797.047.031.078.047.14.015.11-.078.25-.203.376-.28zM2.125-.328c.422-.094.906 0 1.156.406.25.375.172.781-.14 1.172zm0 0"/></symbol><symbol overflow="visible" id="bK"><path d="M4.5-2.016L.312.516l.313.53 4.188-2.53zm0 0"/></symbol><symbol overflow="visible" id="bL"><path d="M4.531-1.938L.313.533l.296.515 4.22-2.469zm0 0"/></symbol><symbol overflow="visible" id="bM"><path d="M2.188 2.36c-.329-.204-.61-.422-.813-.75l-.047-.094c-.25-.438-.266-1.079.406-1.532l1.141 2.079c.64-.36 1.344-1.063.813-2.016-.438-.797-1.438-1-2.22-.563-.827.454-1 1.5-.593 2.25.188.344.484.657.781.86.047.015.078.047.14.015.11-.062.25-.171.391-.25zM2.14-.188c.421-.063.89.062 1.109.468.219.406.156.797-.203 1.172zm0 0"/></symbol><symbol overflow="visible" id="bN"><path d="M2.89-.14l.454-.235-.266-.531L.266.53l.296.563L1.954.39C2.343.187 3-.016 3.297.562c.094.188.187.454.078.672-.078.157-.25.235-.39.313l-1.75.89.296.579L3 2.266c.11-.047.203-.094.313-.157.28-.14.562-.296.687-.593.094-.282.031-.594-.11-.86a1.512 1.512 0 0 0-1-.797zm0 0"/></symbol><symbol overflow="visible" id="bO"><path d="M3.266-3.656L.594.39l.531.343 2.36-3.562-.391 4.734.015.125.063.063.75.5 2.672-4.047-.516-.344-2.36 3.563.391-4.735-.015-.11-.047-.062zm0 0"/></symbol><symbol overflow="visible" id="bP"><path d="M3.563-3.36L.53.423l.594.469L2.547-.891 4.53.703 3.11 2.484l.594.47L6.734-.829l-.593-.469L4.844.328 2.859-1.266 4.156-2.89zm0 0"/></symbol><symbol overflow="visible" id="bQ"><path d="M1.266-1.266l-.313.329L2.47.468 2.78.14zm0 0"/></symbol><symbol overflow="visible" id="bR"><path d="M3.953-2.844L.484.5 3 3.11l.422-.407-2-2.078L2.625-.547l1.766 1.844.359-.328L2.984-.875 4.11-1.969l1.922 2 .36-.344zm0 0"/></symbol><symbol overflow="visible" id="bS"><path d="M2.797-.781l.39-.328-.39-.454L.375.454l.406.5 1.203-1c.344-.281.938-.64 1.36-.125.125.156.281.39.219.625C3.53.641 3.39.75 3.265.86L1.75 2.11l.422.5 1.265-1.046c.094-.079.172-.157.282-.235.234-.187.437-.422.515-.734.032-.281-.109-.594-.296-.828a1.536 1.536 0 0 0-1.141-.547zm0 0"/></symbol><symbol overflow="visible" id="bT"><path d="M5.578-.625L3.875.609c0-.406-.125-.828-.36-1.156C3-1.25 2.048-1.14 1.407-.687.796-.234.375.609.86 1.296c.266.36.61.578 1.032.687l-.297.22.375.53L5.937-.125zm-3.86.516c.016-.016.063-.047.079-.063.453-.328 1.14-.344 1.547.219a.912.912 0 0 1 .172.719c-.032.03-.016.062-.047.093l-1.094.782c-.266.187-.781-.157-.906-.329-.375-.515-.188-1.046.25-1.421zm0 0"/></symbol><symbol overflow="visible" id="bU"><path d="M2.313 2.25c-.344-.203-.61-.39-.86-.703l-.047-.094c-.265-.422-.328-1.078.328-1.578l1.25 2.016C3.61 1.5 4.266.766 3.688-.156c-.485-.781-1.516-.906-2.266-.438-.797.5-.89 1.547-.438 2.281.204.313.5.625.813.797.047.032.094.063.14.016.125-.063.25-.172.375-.25zM2.14-.313c.406-.093.89.032 1.14.422.235.391.172.797-.156 1.172zm0 0"/></symbol><symbol overflow="visible" id="bV"><path d="M2.906-.016l.469-.218-.25-.532L.25.547l.266.578L1.937.469C2.329.297 3 .094 3.266.688c.093.187.171.484.062.687-.078.14-.25.219-.39.281l-1.797.828.28.594 1.423-.656c.39-.172 1.047-.375 1.328.219.078.203.172.484.062.687-.093.14-.25.219-.39.281l-1.797.829.265.593 1.797-.828c.235-.11.454-.219.61-.406.234-.313.203-.703.047-1.031-.188-.407-.594-.797-1.016-.844.313-.422.297-.719.11-1.14-.188-.391-.5-.673-.954-.798zm0 0"/></symbol><symbol overflow="visible" id="bW"><path d="M1.797 2.672c-.281-.266-.531-.5-.703-.86l-.032-.109C.891 1.234.97.593 1.72.25l.797 2.234C3.203 2.234 4 1.641 3.64.625c-.313-.86-1.282-1.219-2.125-.906C.64.03.312 1.047.609 1.859c.125.344.36.704.625.954.047.03.079.078.141.046.125-.046.281-.14.422-.187zM2.14.156c.437-.015.89.203 1.046.64.157.423.016.813-.406 1.11zm0 0"/></symbol><symbol overflow="visible" id="bX"><path d="M4.86-.875L.186.578l.172.578L5.031-.297zm0 0"/></symbol><symbol overflow="visible" id="bY"><path d="M5.422 1.438l-2.031.515c.156-.375.187-.812.093-1.203-.218-.828-1.171-1.078-1.921-.89C.813.046.125.718.327 1.53c.11.422.36.75.719 1l-.36.094.157.64 4.734-1.218zM1.64.515A.29.29 0 0 1 1.75.484c.547-.14 1.188.079 1.36.766.062.25.03.5-.11.734-.031.032-.047.047-.078.063l-1.313.344c-.296.078-.671-.422-.718-.641-.157-.61.218-1.031.75-1.234zm0 0"/></symbol><symbol overflow="visible" id="bZ"><path d="M1.36 2.922c-.25-.297-.454-.594-.548-.953l-.015-.11C.703 1.36.875.734 1.657.5l.452 2.328c.72-.14 1.579-.578 1.375-1.64C3.313.28 2.422-.204 1.547-.048.625.141.14 1.093.313 1.937c.062.36.234.766.468 1.032.047.031.063.078.125.062.125-.031.297-.094.453-.11zM2.11.484c.406.063.828.329.906.797.093.438-.11.797-.563 1.047zm0 0"/></symbol><symbol overflow="visible" id="ca"><path d="M2.781.828l.5-.062-.078-.579L.078.595l.078.625 1.547-.203c.438-.063 1.14-.032 1.234.625.016.203.016.484-.156.656-.125.125-.312.14-.469.172l-1.953.25.079.64 1.625-.218c.124-.016.234-.032.359-.047.312-.031.625-.11.828-.344.203-.219.234-.531.188-.828A1.526 1.526 0 0 0 2.78.828zm0 0"/></symbol><symbol overflow="visible" id="cb"><path d="M4.64-1.563L.329.642l.313.625 1.406-.72 1.281.47-1.375 2.78.344.688 1.578-3.187.047-.047h.062l2.563.922-.344-.656L2.687.219 4.954-.938zm0 0"/></symbol><symbol overflow="visible" id="cc"><path d="M3.672-.047c-.453-.625-1.36-1.047-2.25-.531l-.063.031C.594-.03.516.984.922 1.703c.422.734 1.39 1.172 2.234.688.797-.47 1.047-1.516.578-2.344zM1.75-.016c.031-.015.047-.03.078-.046.547-.313 1.188-.172 1.5.359.281.5.172 1.14-.453 1.5-.531.312-1.188.203-1.516-.36-.296-.515-.14-1.03.391-1.453zm0 0"/></symbol><symbol overflow="visible" id="cd"><path d="M2.86-.438l.437-.28-.313-.5L.328.5l.344.531L1.984.188c.375-.235 1-.516 1.344.046.11.157.235.422.156.641-.062.172-.218.266-.343.36L1.484 2.296l.36.547 1.375-.89c.11-.063.203-.126.312-.188.25-.172.5-.36.61-.672C4.203.828 4.109.5 3.937.25A1.501 1.501 0 0 0 2.86-.438zm0 0"/></symbol><symbol overflow="visible" id="ce"><path d="M3.719-1.656l-.735.515-.39-.546-.36.265.375.531-1.296.922C.969.266.421.687.78 1.188c.235.328.516.562.875.812l.297-.375c-.25-.156-.406-.25-.562-.469-.204-.281.078-.531.28-.687l1.266-.89.626.874.359-.266-.625-.875.734-.515zm0 0"/></symbol><symbol overflow="visible" id="cf"><path d="M2.266-.953c.109.078.234.094.343.14.25.141.438.297.61.485l.062.078c.235.313.125.734-.219 1-.062.047-.124.078-.171.125C2.39.25 1.453-.703.875-.25A.877.877 0 0 0 .703 1c.266.328.656.703 1.047.781l-.219.172.375.5 1.532-1.187C4.046.78 4.093.03 3.655-.531a2.71 2.71 0 0 0-.86-.719c-.077-.031-.124-.094-.187-.031-.125.093-.218.218-.343.328zm.296 2.078l-.203.156c-.343.266-.734.11-1.046-.281C1.14.781.984.39 1.234.187c.25-.187.657.25.829.391.124.125.234.266.359.39l.062.079c.016.031.032.047.079.078zm0 0"/></symbol><symbol overflow="visible" id="cg"><path d="M4.11-2.719L.421.484l.344.407L1.5.25l.844.094-.36 1.906.422.484L2.86.391l1.735.187L4.14.063l-2.079-.25 2.422-2.11zm0 0"/></symbol><symbol overflow="visible" id="ch"><path d="M3.422-2.172l-.64.61-.454-.47L2-1.718l.453.453-1.14 1.094C1.016.125.5.625.938 1.078c.28.297.609.469.984.656l.25-.421c-.266-.11-.453-.172-.64-.36-.235-.265.015-.547.202-.719l1.11-1.078.75.781.328-.312-.75-.781.64-.61zm0 0"/></symbol><symbol overflow="visible" id="ci"><path d="M2.094-2.281L.906.75l.031.047.422.36 1.61-.97.469-.328.296-.218c-.156.203-.234.437-.343.671-.282.594-.454 1.22-.75 1.813-.016.063-.032.094.015.14L3 2.563s.047.032.047.047c.094.079.547-.25.765-.375.641-.39 1.25-.75 1.876-1.109a1.01 1.01 0 0 0 .25-.14l-.422-.36-.188.11-1.64.984-.563.375.125-.266.922-2.25.031-.062-.422-.36-1.61.953-.452.329-.282.218c.047-.11.125-.203.172-.312.344-.703.61-1.469.922-2.172.016-.078 0-.078-.047-.125zm0 0"/></symbol><symbol overflow="visible" id="cj"><path d="M2.969 1.234c-.375-.046-.719-.125-1.047-.343L1.828.828c-.406-.297-.687-.875-.25-1.578L3.484.672c.438-.578.75-1.5-.109-2.14-.734-.548-1.719-.313-2.25.39-.563.766-.281 1.781.406 2.297.313.218.688.39 1.047.453.063 0 .11.016.14-.031.079-.11.157-.282.25-.407zM1.875-1.062c.36-.235.844-.313 1.219-.032.36.266.453.672.281 1.157zm0 0"/></symbol><symbol overflow="visible" id="ck"><path d="M2.25-2.203L.5.344l.5.344L2.75-1.86zm.906-1.469l-.422.61.641.437.422-.61zm0 0"/></symbol><symbol overflow="visible" id="cl"><path d="M2.797-2.938l-.469.75-.547-.343-.25.375.532.344L1.219-.47C1-.125.64.47 1.172.812c.344.22.703.313 1.094.407l.156-.453C2.125.719 1.953.703 1.734.562c-.312-.187-.14-.546-.015-.75L2.547-1.5l.922.563.25-.375-.922-.563.469-.75zm0 0"/></symbol><symbol overflow="visible" id="cm"><path d="M3.11.875C2.718.859 2.36.828 2.015.672l-.11-.063C1.484.375 1.141-.187 1.47-.92L3.53.25c.36-.64.594-1.594-.344-2.125-.812-.453-1.765-.11-2.203.672-.468.812-.062 1.797.688 2.219.312.187.734.312 1.078.328.063 0 .11 0 .14-.047.063-.125.141-.297.22-.422zm-1.376-2.14c.313-.298.797-.423 1.204-.188.39.219.53.61.421 1.11zm0 0"/></symbol><symbol overflow="visible" id="cn"><path d="M2.203-1.703l.281-.578-.5-.25L.547.28l.531.281.64-1.25c.36-.687 1.079-.812 1.72-.484l.25-.5c-.454-.25-.97-.25-1.485-.031zm0 0"/></symbol><symbol overflow="visible" id="co"><path d="M.719.063C.469.063.125.25.016.516c-.313.656.609 1.343 1.156 1.593.312.141.64.235.984.235.344.031.813-.063.969-.422l.016-.031C3.406 1.047 2.516.578 2.03.359L1.406.08a.372.372 0 0 1-.187-.485l.015-.031c.047-.032.079-.079.125-.126.188.204.313.36.563.485C2.5.188 3.266 0 3.547-.61c.11-.235.11-.47.062-.688l.5.203.407.219c.062-.219.156-.484.078-.516l-.047-.015a3.904 3.904 0 0 0-1.078-.282l.015.094a1.286 1.286 0 0 0-.609-.578c-.547-.25-1.313-.14-1.61.516-.077.187-.109.406-.093.61 0 .03.047.093.031.124-.031.047-.172.125-.25.203a.618.618 0 0 0-.156.235.831.831 0 0 0-.078.546zm.375.484l.797.375c.343.156.89.437.718.797-.187.422-1.156 0-1.265-.047-.36-.156-1-.578-.828-.938C.609.531.875.5 1.094.547zm1.515-2.328c.016.015.047.015.079.031.328.14.53.469.328.922-.172.344-.532.515-.907.344-.343-.157-.53-.5-.328-.938.157-.344.485-.469.828-.36zm0 0"/></symbol><symbol overflow="visible" id="cp"><path d="M3.203.438C2.797.483 2.47.5 2.093.374L1.985.344c-.468-.188-.89-.688-.671-1.469l2.203.89c.28-.687.375-1.656-.625-2.062-.86-.328-1.766.14-2.094.969-.344.875.203 1.797 1 2.11.344.14.766.202 1.125.171.062-.015.11-.015.125-.078.062-.125.094-.297.156-.438zM1.547-1.5c.266-.328.734-.531 1.172-.36.422.173.594.548.562 1.048zm0 0"/></symbol><symbol overflow="visible" id="cq"><path d="M2.172-4.422L.578.203l.61.203.109-.312c.203.328.516.594.875.719.86.296 1.61-.36 1.86-1.079.202-.593.171-1.64-.61-1.906-.438-.156-.922-.156-1.36-.062l.688-2zM3.359-.375C3.141.172 2.61.453 2 .235c-.25-.079-.61-.438-.516-.704l.329-.937c.03-.078.046-.157.078-.235.109-.312.609-.343.937-.234.578.203.797.813.594 1.375-.016.031-.031.094-.063.125zm0 0"/></symbol><symbol overflow="visible" id="cr"><path d="M3.219.14c-.375.094-.735.126-1.094.047l-.11-.03c-.484-.141-.953-.595-.796-1.391L3.5-.563c.203-.703.188-1.687-.844-2C1.781-2.828.922-2.25.672-1.39c-.266.907.36 1.766 1.187 2C2.22.72 2.656.75 3 .688c.047-.016.11-.032.125-.094.031-.14.047-.297.094-.453zM1.406-1.64c.235-.36.657-.579 1.11-.454.437.125.671.469.687.985zm0 0"/></symbol><symbol overflow="visible" id="cs"><path d="M1.797-2.266l.125-.5-.578-.156L.578.141l.625.156.375-1.516c.11-.422.375-1.062 1.016-.906.203.047.453.172.547.39.078.157.03.344 0 .5L2.656.673l.625.156.406-1.594c.032-.125.047-.218.079-.343.078-.313.14-.625 0-.907-.141-.265-.438-.421-.735-.484-.437-.125-.86-.031-1.234.234zm0 0"/></symbol><symbol overflow="visible" id="ct"><path d="M.281-4.781v.515h1.985V0h.75v-4.281H5v-.5zm0 0"/></symbol><symbol overflow="visible" id="cu"><path d="M1.172-2.516v-.64H.609V0h.61v-1.406c0-.766.578-1.219 1.297-1.219v-.547c-.516 0-.97.219-1.344.656zm0 0"/></symbol><symbol overflow="visible" id="cv"><path d="M3.125-.781c-.344.187-.656.328-1.047.36h-.11c-.5 0-1.077-.298-1.155-1.11h2.375c0-.735-.282-1.672-1.36-1.672-.922 0-1.578.781-1.578 1.672 0 .937.844 1.593 1.703 1.593a2.42 2.42 0 0 0 1.11-.265c.046-.031.093-.047.093-.11 0-.14-.031-.312-.031-.468zM.875-1.97c.14-.406.484-.75.953-.75.453 0 .766.266.922.75zm0 0"/></symbol><symbol overflow="visible" id="cw"><path d="M.766-3.094H.203v.453h.563V0h.609v-2.64h.828v-.454H1.36v-.828c0-.375.313-.547.688-.547.219 0 .422.047.625.125v-.547c-.203-.03-.406-.062-.61-.062-.484 0-1.015.203-1.25.844-.046.171-.046.343-.046.515zm0 0"/></symbol><symbol overflow="visible" id="cx"><path d="M1.188-2.64v-.516H.594V0h.64v-1.563c0-.437.11-1.125.766-1.125.203 0 .484.047.625.235.11.14.11.328.11.484V0h.656v-1.64V-2c0-.313-.032-.625-.235-.875-.187-.219-.515-.297-.812-.297a1.5 1.5 0 0 0-1.156.531zm0 0"/></symbol><symbol overflow="visible" id="cy"><path d="M.11-3.094L1.421 0h.703l1.313-3.094h-.579l-.812 1.938-.172.437-.078.297-.063-.203-.312-.797-.703-1.672zm0 0"/></symbol><symbol overflow="visible" id="cz"><path d="M.61-3.094V0h.609v-3.094zM.53-4.813v.75h.766v-.75zm0 0"/></symbol><symbol overflow="visible" id="cA"><path d="M.61-4.89V0h.64v-.328c.297.25.688.39 1.063.39.906 0 1.406-.875 1.406-1.64 0-.625-.36-1.594-1.188-1.594-.469 0-.922.14-1.312.39V-4.89zm2.453 3.437C3.03-.86 2.608-.422 1.968-.422c-.266 0-.719-.219-.719-.5v-1-.25c0-.328.469-.515.813-.515.609 0 1.015.5 1.015 1.093 0 .047 0 .11-.015.14zm0 0"/></symbol><symbol overflow="visible" id="cB"><path d="M.64-2.375c.126-.047.22-.125.329-.188.25-.109.5-.156.75-.171h.11c.39 0 .64.343.64.765 0 .078-.016.157-.016.235-.797 0-2.125.156-2.125.89 0 .485.375.906.89.906.423 0 .954-.093 1.266-.343V0h.625v-1.938c0-.78-.578-1.265-1.28-1.265-.376 0-.75.078-1.095.234-.062.031-.14.031-.14.125 0 .14.047.313.047.469zm1.813 1.047v.25c0 .453-.344.656-.844.656-.28 0-.703-.11-.703-.437 0-.313.594-.36.813-.407.187-.03.36-.03.547-.046h.093c.032 0 .063 0 .094-.016zm0 0"/></symbol><symbol overflow="visible" id="cC"><path d="M-.984-4.797L.672-.25l.594-.203L-.188-4.47l3.563 3.094.11.094.078-.016.859-.312-1.656-4.547-.594.218 1.453 4L.062-5.063l-.109-.062-.062.016zm0 0"/></symbol><symbol overflow="visible" id="cD"><path d="M-.344-2.422c.078-.094.125-.219.219-.312.188-.204.39-.344.61-.47l.093-.046c.36-.14.735.078.906.453.032.078.047.172.079.235-.735.312-1.891.984-1.594 1.656a.897.897 0 0 0 1.187.484c.375-.172.828-.469 1.016-.828l.11.266.577-.25-.765-1.782c-.313-.718-1.031-.921-1.688-.656a2.928 2.928 0 0 0-.922.656c-.046.047-.109.079-.062.172.047.125.172.266.234.422zm2.063.235l.11.234c.171.406-.063.719-.516.922-.266.11-.704.187-.829-.11-.125-.296.407-.578.594-.703.156-.093.313-.172.484-.265l.094-.032c.016-.015.047-.03.063-.046zm0 0"/></symbol><symbol overflow="visible" id="cE"><path d="M2.484-2.094c-.093.094-.171.219-.25.313-.203.218-.453.39-.703.515l-.047.032C.922-1 .36-1.313.125-1.813c-.266-.515-.172-1.171.406-1.468A2.02 2.02 0 0 1 1.547-3.5c.031 0 .094.031.172.016-.063-.157-.094-.329-.157-.47-.078-.155-.734.017-1.046.126-.063.031-.125.062-.204.094-.828.406-1.171 1.375-.75 2.25.422.843 1.47 1.062 2.235.671a2.8 2.8 0 0 0 .906-.734c.016-.047.078-.078.047-.14-.078-.141-.203-.266-.266-.407zm0 0"/></symbol><symbol overflow="visible" id="cF"><path d="M-1.875-4.563L.515-.296l.563-.312-.766-1.36C.095-2.359-.14-3 .439-3.329c.171-.093.437-.187.656-.093.172.063.25.219.328.36l.969 1.718.562-.312-.797-1.438c-.062-.11-.125-.219-.187-.312-.14-.266-.313-.485-.578-.64-.297-.11-.641-.016-.891.14-.39.203-.64.547-.75.969L-1.328-4.86zm0 0"/></symbol><symbol overflow="visible" id="cG"><path d="M-2.14-4.438L.5-.327l.531-.344-.843-1.312c-.235-.375-.516-1 .046-1.36.172-.11.438-.219.641-.14.172.046.281.218.36.343l1.062 1.657.562-.344-.89-1.375c-.063-.11-.125-.219-.203-.328-.157-.25-.329-.453-.61-.578-.312-.11-.656.015-.906.171a1.49 1.49 0 0 0-.672 1.016l-1.187-1.844zm0 0"/></symbol><symbol overflow="visible" id="cH"><path d="M-1.281-2.875L.5-.344l.5-.36-1.781-2.53zM-2.344-4.25l.438.625.625-.438-.438-.625zm0 0"/></symbol><symbol overflow="visible" id="cI"><path d="M-2.453-4.281L.484-.36.97-.734-1.97-4.656zm0 0"/></symbol><symbol overflow="visible" id="cJ"><path d="M-1.344-2.906l-.437.36.281.358.438-.359L.593-.484l.484-.375-1.656-2.063.64-.515-.28-.36-.657.531-.516-.64c-.234-.297-.093-.625.188-.86.172-.14.36-.234.562-.296l-.343-.422a2.593 2.593 0 0 0-.5.343c-.375.297-.672.782-.438 1.438.063.14.156.281.266.406zm0 0"/></symbol><symbol overflow="visible" id="cK"><path d="M1.828-2.656c-.125.375-.266.687-.547.969l-.078.078c-.375.328-1 .468-1.61-.079L1.376-3.25C.891-3.797.078-4.328-.735-3.61-1.421-3-1.405-2-.827-1.327c.625.703 1.703.656 2.344.094.28-.25.53-.61.64-.938.031-.047.047-.094.016-.14-.094-.11-.235-.22-.344-.344zm-2.469.594c-.156-.391-.14-.876.22-1.188.343-.297.765-.297 1.187-.047zm0 0"/></symbol><symbol overflow="visible" id="cL"><path d="M.297-.656C.203-.422.28-.031.5.172c.516.484 1.453-.156 1.86-.594.234-.25.437-.547.546-.875.156-.312.203-.766-.078-1.031l-.031-.031c-.703-.547-1.438.156-1.797.546l-.469.5a.37.37 0 0 1-.515.032L0-1.313c-.031-.062-.063-.109-.094-.156.25-.11.438-.172.64-.375.438-.468.516-1.25.032-1.703a1.078 1.078 0 0 0-.656-.281l.36-.422.359-.297c-.204-.156-.422-.312-.47-.25l-.03.031c-.235.25-.454.594-.61.938h.094a1.412 1.412 0 0 0-.75.406c-.422.438-.547 1.188-.016 1.688.141.14.329.234.532.28.046 0 .093 0 .125.016.03.047.046.204.109.313a.703.703 0 0 0 .172.219.9.9 0 0 0 .5.25zM.875-.86l.594-.625c.265-.282.718-.704 1.015-.438.329.313-.375 1.11-.468 1.203-.266.281-.86.75-1.141.485C.703-.406.75-.688.875-.86zM-.859-3.047c.03-.015.046-.047.078-.078.234-.266.61-.328.953 0 .281.281.312.672.047.969-.266.281-.64.344-.985.015-.28-.265-.296-.609-.093-.906zm0 0"/></symbol><symbol overflow="visible" id="cM"><path d="M1.422-2.875c-.078.36-.172.703-.406 1.031l-.063.078c-.328.375-.922.625-1.594.157L.891-3.422c-.563-.484-1.454-.875-2.141-.047-.594.703-.438 1.719.234 2.297.72.594 1.766.39 2.329-.266.234-.296.437-.671.515-1.015.016-.078.031-.11-.016-.156-.109-.094-.265-.172-.39-.266zm-2.36.922c-.218-.36-.265-.844.047-1.203.282-.344.688-.422 1.172-.219zm0 0"/></symbol><symbol overflow="visible" id="cN"><path d="M-3.516-3.453L.375-.484.75-1l-.266-.203c.391-.078.735-.313.97-.61C2-2.53 1.608-3.452 1-3.905c-.5-.375-1.484-.688-1.984-.031a2.545 2.545 0 0 0-.5 1.28l-1.672-1.28zm4.22.14c.452.391.546.985.155 1.5-.156.204-.625.422-.843.25l-.797-.609c-.063-.047-.125-.094-.203-.14-.25-.204-.11-.672.093-.954C-.516-3.75.125-3.78.594-3.422c.031.031.078.063.11.11zm0 0"/></symbol><symbol overflow="visible" id="cO"><path d="M1.125-3.016c-.031.391-.11.735-.297 1.063l-.062.094c-.282.406-.86.718-1.579.328L.532-3.484c-.61-.422-1.531-.72-2.14.171-.516.75-.25 1.735.484 2.25.781.532 1.797.188 2.281-.515.203-.313.375-.703.407-1.063.015-.046.015-.109-.032-.14-.125-.078-.281-.156-.406-.235zm-2.25 1.188c-.25-.36-.36-.828-.094-1.203.266-.375.672-.5 1.157-.344zm0 0"/></symbol><symbol overflow="visible" id="cP"><path d="M-1.625-2.406l-.438-.266-.312.516L.313-.5l.343-.547-1.328-.828c-.375-.219-.906-.672-.562-1.234.109-.172.296-.391.515-.407.188-.03.344.079.485.157l1.671 1.03.344-.562-1.39-.859c-.11-.063-.204-.125-.313-.188-.266-.171-.547-.296-.875-.265-.265.047-.515.281-.672.531-.234.39-.297.844-.156 1.266zm0 0"/></symbol><clipPath id="r"><path d="M163 173h77.879v17H163zm0 0"/></clipPath><clipPath id="w"><path d="M99 230h43v16.238H99zm0 0"/></clipPath></defs><path d="M157.14 25.316H84.403a3.984 3.984 0 0 0-3.984 3.985v8.066a3.981 3.981 0 0 0 3.984 3.985h72.739c2.199 0 3.984-1.782 3.984-3.985v-8.066c0-2.2-1.785-3.985-3.984-3.985zm0 0" fill="rgb(29.998779%,29.998779%,68.148804%)"/><g fill="rgb(100%,100%,100%)"><use xlink:href="#a" x="84.843" y="36.927"/><use xlink:href="#b" x="92.148" y="36.927"/><use xlink:href="#c" x="97.737" y="36.927"/><use xlink:href="#d" x="103.326" y="36.927"/><use xlink:href="#e" x="108.915" y="36.927"/><use xlink:href="#f" x="114.006" y="36.927"/><use xlink:href="#g" x="118.206" y="36.927"/><use xlink:href="#h" x="123.186" y="36.927"/></g><g fill="rgb(100%,100%,100%)"><use xlink:href="#i" x="128.356" y="36.927"/><use xlink:href="#f" x="132.063" y="36.927"/><use xlink:href="#j" x="136.263" y="36.927"/><use xlink:href="#k" x="140.289" y="36.927"/><use xlink:href="#c" x="145.518" y="36.927"/><use xlink:href="#d" x="151.107" y="36.927"/></g><path d="M156.36 98.445H85.183a3.986 3.986 0 0 0-3.985 3.985v10.004c0 2.199 1.785 3.984 3.985 3.984h71.175c2.2 0 3.985-1.785 3.985-3.984V102.43c0-2.2-1.785-3.985-3.985-3.985zm0 0" fill="rgb(29.998779%,57.43866%,29.998779%)"/><g fill="rgb(100%,100%,100%)"><use xlink:href="#l" x="85.626" y="110.054"/><use xlink:href="#j" x="91.713" y="110.054"/><use xlink:href="#k" x="95.739" y="110.054"/><use xlink:href="#c" x="100.968" y="110.054"/><use xlink:href="#d" x="106.557" y="110.054"/><use xlink:href="#h" x="112.146" y="110.054"/></g><g fill="rgb(100%,100%,100%)"><use xlink:href="#i" x="117.316" y="110.054"/><use xlink:href="#j" x="121.023" y="110.054"/><use xlink:href="#m" x="125.049" y="110.054"/><use xlink:href="#e" x="127.594" y="110.054"/><use xlink:href="#n" x="132.685" y="110.054"/><use xlink:href="#j" x="135.231" y="110.054"/><use xlink:href="#b" x="139.257" y="110.054"/><use xlink:href="#c" x="144.846" y="110.054"/><use xlink:href="#o" x="150.435" y="110.054"/></g><path d="M73.98 173.512H3.984A3.981 3.981 0 0 0 0 177.496v8.066c0 2.2 1.781 3.985 3.984 3.985H73.98a3.984 3.984 0 0 0 3.985-3.984v-8.067a3.981 3.981 0 0 0-3.985-3.984zm0 0" fill="rgb(100%,68.499756%,29.998779%)"/><g fill="rgb(100%,100%,100%)"><use xlink:href="#l" x="4.427" y="185.118"/><use xlink:href="#h" x="10.514" y="185.118"/><use xlink:href="#p" x="15.993" y="185.118"/><use xlink:href="#n" x="20.738" y="185.118"/><use xlink:href="#k" x="23.283" y="185.118"/><use xlink:href="#m" x="28.513" y="185.118"/><use xlink:href="#e" x="31.058" y="185.118"/></g><use xlink:href="#q" x="39.795" y="185.118" fill="rgb(100%,100%,100%)"/><use xlink:href="#k" x="46.496" y="185.118" fill="rgb(100%,100%,100%)"/><g fill="rgb(100%,100%,100%)"><use xlink:href="#i" x="51.417" y="185.118"/><use xlink:href="#j" x="55.124" y="185.118"/><use xlink:href="#c" x="59.15" y="185.118"/><use xlink:href="#e" x="64.739" y="185.118"/><use xlink:href="#i" x="69.829" y="185.118"/></g><g clip-path="url(#r)"><path d="M236.895 173.512h-69.333a3.984 3.984 0 0 0-3.988 3.984v8.066c0 2.2 1.785 3.985 3.988 3.985h69.333c2.199 0 3.984-1.785 3.984-3.984v-8.067a3.984 3.984 0 0 0-3.984-3.984zm0 0" fill="rgb(68.148804%,29.998779%,68.148804%)"/></g><g fill="rgb(100%,100%,100%)"><use xlink:href="#s" x="168.002" y="185.118"/><use xlink:href="#k" x="175.915" y="185.118"/><use xlink:href="#t" x="181.145" y="185.118"/><use xlink:href="#u" x="186.014" y="185.118"/><use xlink:href="#u" x="191.603" y="185.118"/><use xlink:href="#n" x="197.192" y="185.118"/><use xlink:href="#m" x="199.738" y="185.118"/><use xlink:href="#v" x="202.283" y="185.118"/><use xlink:href="#e" x="205.631" y="185.118"/><use xlink:href="#m" x="210.722" y="185.118"/><use xlink:href="#e" x="213.267" y="185.118"/><use xlink:href="#u" x="218.358" y="185.118"/><use xlink:href="#i" x="223.947" y="185.118"/><use xlink:href="#e" x="227.654" y="185.118"/><use xlink:href="#i" x="232.745" y="185.118"/></g><g clip-path="url(#w)"><path d="M137.953 230.203H103.59a3.986 3.986 0 0 0-3.985 3.984v8.067a3.987 3.987 0 0 0 3.985 3.988h34.363c2.2 0 3.984-1.785 3.984-3.988v-8.066c0-2.2-1.785-3.985-3.984-3.985zm0 0" fill="rgb(68.148804%,29.998779%,29.998779%)"/></g><g fill="rgb(100%,100%,100%)"><use xlink:href="#l" x="104.032" y="241.811"/><use xlink:href="#t" x="110.119" y="241.811"/><use xlink:href="#u" x="114.989" y="241.811"/><use xlink:href="#x" x="120.578" y="241.811"/><use xlink:href="#m" x="126.167" y="241.811"/><use xlink:href="#e" x="128.712" y="241.811"/><use xlink:href="#i" x="133.803" y="241.811"/></g><path d="M161.324 25.117c24.547-20.597 24.547 37.035.543 16.89" fill="none" stroke-width="0.79701" stroke="rgb(0%,0%,0%)" stroke-miterlimit="10"/><path d="M161.727 44.594c.398-.68.058-2.489-.157-2.836.38.148 2.22.172 2.82-.34" fill="none" stroke-width=".6375872479999999" stroke-linecap="round" stroke-linejoin="round" stroke="rgb(0%,0%,0%)" stroke-miterlimit="10"/><use xlink:href="#y" x="176.342" y="20.13" fill="rgb(0%,0%,0%)"/><use xlink:href="#z" x="179.06" y="23.111" fill="rgb(0%,0%,0%)"/><use xlink:href="#A" x="180.442" y="25.809" fill="rgb(0%,0%,0%)"/><use xlink:href="#B" x="181.344" y="28.96" fill="rgb(0%,0%,0%)"/><use xlink:href="#C" x="181.754" y="32.03" fill="rgb(0%,0%,0%)"/><use xlink:href="#D" x="181.622" y="35.719" fill="rgb(0%,0%,0%)"/><use xlink:href="#E" x="181.315" y="37.734" fill="rgb(0%,0%,0%)"/><use xlink:href="#F" x="180.827" y="39.868" fill="rgb(0%,0%,0%)"/><use xlink:href="#G" x="179.128" y="43.658" fill="rgb(0%,0%,0%)"/><path d="M80.219 25.117c-24.551-20.597-24.551 37.035-.543 16.89" fill="none" stroke-width="0.79701" stroke="rgb(0%,0%,0%)" stroke-miterlimit="10"/><path d="M77.152 41.418c.598.512 2.442.488 2.82.34-.214.347-.554 2.156-.156 2.836" fill="none" stroke-width=".6375872479999999" stroke-linecap="round" stroke-linejoin="round" stroke="rgb(0%,0%,0%)" stroke-miterlimit="10"/><use xlink:href="#H" x="65.736" y="46.9" fill="rgb(0%,0%,0%)"/><use xlink:href="#I" x="62.685" y="44" fill="rgb(0%,0%,0%)"/><use xlink:href="#J" x="60.837" y="40.029" fill="rgb(0%,0%,0%)"/><use xlink:href="#K" x="60.26" y="38.013" fill="rgb(0%,0%,0%)"/><use xlink:href="#L" x="59.858" y="35.023" fill="rgb(0%,0%,0%)"/><use xlink:href="#M" x="59.753" y="32.926" fill="rgb(0%,0%,0%)"/><use xlink:href="#N" x="60.154" y="29.193" fill="rgb(0%,0%,0%)"/><use xlink:href="#O" x="60.904" y="26.236" fill="rgb(0%,0%,0%)"/><use xlink:href="#P" x="62.779" y="22.474" fill="rgb(0%,0%,0%)"/><path d="M127.668 25.117C148.41.398 93.133.398 113.422 24.574" fill="none" stroke-width="0.79701" stroke="rgb(0%,0%,0%)" stroke-miterlimit="10"/><path d="M114.008 22.055c-.512.597-.488 2.437-.336 2.82-.352-.215-2.16-.559-2.836-.156" fill="none" stroke-width=".6375872479999999" stroke-linecap="round" stroke-linejoin="round" stroke="rgb(0%,0%,0%)" stroke-miterlimit="10"/><use xlink:href="#Q" x="107.447" y="17.713" fill="rgb(0%,0%,0%)"/><use xlink:href="#R" x="106.933" y="15.154" fill="rgb(0%,0%,0%)"/><use xlink:href="#S" x="108.263" y="10.212" fill="rgb(0%,0%,0%)"/><use xlink:href="#T" x="111.442" y="7.014" fill="rgb(0%,0%,0%)"/><use xlink:href="#U" x="115.324" y="5.307" fill="rgb(0%,0%,0%)"/><use xlink:href="#V" x="118.327" y="4.715" fill="rgb(0%,0%,0%)"/><use xlink:href="#W" x="120.465" y="4.51" fill="rgb(0%,0%,0%)"/><use xlink:href="#X" x="124.322" y="4.883" fill="rgb(0%,0%,0%)"/><use xlink:href="#Y" x="126.5" y="5.35" fill="rgb(0%,0%,0%)"/><use xlink:href="#Z" x="130.126" y="7.097" fill="rgb(0%,0%,0%)"/><use xlink:href="#aa" x="132.724" y="9.418" fill="rgb(0%,0%,0%)"/><use xlink:href="#ab" x="134.493" y="13.564" fill="rgb(0%,0%,0%)"/><path d="M116.027 41.55c-11.285 19.114-11.465 37.368-.906 56.079" fill="none" stroke-width="0.79701" stroke="rgb(0%,0%,0%)" stroke-miterlimit="10"/><path d="M116.164 95.258c-.613.496-.93 2.308-.851 2.71-.301-.273-2.02-.94-2.758-.675" fill="none" stroke-width=".637561744" stroke-linecap="round" stroke-linejoin="round" stroke="rgb(0%,0%,0%)" stroke-miterlimit="10"/><use xlink:href="#ac" x="111.241" y="57.29" fill="rgb(0%,0%,0%)"/><use xlink:href="#ad" x="110.449" y="60.51" fill="rgb(0%,0%,0%)"/><use xlink:href="#ae" x="109.979" y="62.989" fill="rgb(0%,0%,0%)"/><use xlink:href="#af" x="109.617" y="65.809" fill="rgb(0%,0%,0%)"/><use xlink:href="#ag" x="109.422" y="68.462" fill="rgb(0%,0%,0%)"/><use xlink:href="#ah" x="109.433" y="71.784" fill="rgb(0%,0%,0%)"/><use xlink:href="#ai" x="109.525" y="73.545" fill="rgb(0%,0%,0%)"/><use xlink:href="#aj" x="109.659" y="75.273" fill="rgb(0%,0%,0%)"/><use xlink:href="#ak" x="110.121" y="78.53" fill="rgb(0%,0%,0%)"/><path d="M120.77 41.55v55.99" fill="none" stroke-width="0.79701" stroke="rgb(0%,0%,0%)" stroke-miterlimit="10"/><path d="M122.844 95.984c-.778.13-1.942 1.555-2.074 1.942-.13-.387-1.293-1.813-2.07-1.942" fill="none" stroke-width="0.6376" stroke-linecap="round" stroke-linejoin="round" stroke="rgb(0%,0%,0%)" stroke-miterlimit="10"/><use xlink:href="#al" x="122.763" y="56.21" fill="rgb(0%,0%,0%)"/><use xlink:href="#am" x="122.763" y="59.643" fill="rgb(0%,0%,0%)"/><use xlink:href="#an" x="122.763" y="63.629" fill="rgb(0%,0%,0%)"/><use xlink:href="#ao" x="122.763" y="65.469" fill="rgb(0%,0%,0%)"/><use xlink:href="#an" x="122.763" y="68.259" fill="rgb(0%,0%,0%)"/><use xlink:href="#al" x="122.763" y="70.099" fill="rgb(0%,0%,0%)"/><use xlink:href="#ap" x="122.763" y="73.532" fill="rgb(0%,0%,0%)"/><use xlink:href="#al" x="122.763" y="76.169" fill="rgb(0%,0%,0%)"/><use xlink:href="#aq" x="122.763" y="79.602" fill="rgb(0%,0%,0%)"/><path d="M125.512 41.55c11.289 19.114 11.468 37.368.906 56.079" fill="none" stroke-width="0.79701" stroke="rgb(0%,0%,0%)" stroke-miterlimit="10"/><path d="M128.988 97.293c-.742-.266-2.457.402-2.758.676.079-.403-.238-2.215-.851-2.711" fill="none" stroke-width=".637561744" stroke-linecap="round" stroke-linejoin="round" stroke="rgb(0%,0%,0%)" stroke-miterlimit="10"/><use xlink:href="#ar" x="132.425" y="51.165" fill="rgb(0%,0%,0%)"/><use xlink:href="#as" x="133.12" y="52.979" fill="rgb(0%,0%,0%)"/><use xlink:href="#at" x="134.337" y="56.925" fill="rgb(0%,0%,0%)"/><use xlink:href="#au" x="135.212" y="60.684" fill="rgb(0%,0%,0%)"/><use xlink:href="#av" x="135.796" y="64.546" fill="rgb(0%,0%,0%)"/><use xlink:href="#aw" x="136.035" y="67.422" fill="rgb(0%,0%,0%)"/><use xlink:href="#ax" x="136.133" y="69.373" fill="rgb(0%,0%,0%)"/><use xlink:href="#ay" x="136.041" y="73.041" fill="rgb(0%,0%,0%)"/><use xlink:href="#az" x="135.915" y="74.986" fill="rgb(0%,0%,0%)"/><use xlink:href="#aA" x="135.444" y="78.508" fill="rgb(0%,0%,0%)"/><use xlink:href="#aB" x="134.934" y="81.213" fill="rgb(0%,0%,0%)"/><use xlink:href="#aC" x="134.065" y="84.673" fill="rgb(0%,0%,0%)"/><path d="M81 107.434c-27.121 14.097-40.668 35.34-41.988 65.171" fill="none" stroke-width="0.79701" stroke="rgb(0%,0%,0%)" stroke-miterlimit="10"/><path d="M41.152 171.145c-.78.093-2.007 1.464-2.156 1.847-.113-.394-1.215-1.867-1.984-2.031" fill="none" stroke-width=".63756812" stroke-linecap="round" stroke-linejoin="round" stroke="rgb(0%,0%,0%)" stroke-miterlimit="10"/><use xlink:href="#aD" x="42.532" y="145.17" fill="rgb(0%,0%,0%)"/><use xlink:href="#aE" x="43.899" y="141.925" fill="rgb(0%,0%,0%)"/><use xlink:href="#aF" x="45.057" y="139.464" fill="rgb(0%,0%,0%)"/><use xlink:href="#aG" x="46.473" y="136.766" fill="rgb(0%,0%,0%)"/><use xlink:href="#aH" x="47.915" y="134.269" fill="rgb(0%,0%,0%)"/><use xlink:href="#aI" x="49.835" y="131.327" fill="rgb(0%,0%,0%)"/><use xlink:href="#aJ" x="50.926" y="129.779" fill="rgb(0%,0%,0%)"/><use xlink:href="#aK" x="52.063" y="128.233" fill="rgb(0%,0%,0%)"/><use xlink:href="#aL" x="54.289" y="125.478" fill="rgb(0%,0%,0%)"/><path d="M40.43 173.313l40.168-58.286" fill="none" stroke-width="0.79701" stroke="rgb(0%,0%,0%)" stroke-miterlimit="10"/><path d="M78.012 115.133c.71.332 2.48-.18 2.808-.426-.113.395.035 2.227.602 2.777" fill="none" stroke-width=".637561744" stroke-linecap="round" stroke-linejoin="round" stroke="rgb(0%,0%,0%)" stroke-miterlimit="10"/><use xlink:href="#aM" x="45.447" y="162.522" fill="rgb(0%,0%,0%)"/><use xlink:href="#aN" x="48.364" y="158.288" fill="rgb(0%,0%,0%)"/><use xlink:href="#aO" x="50.626" y="155.007" fill="rgb(0%,0%,0%)"/><use xlink:href="#aP" x="51.965" y="153.063" fill="rgb(0%,0%,0%)"/><use xlink:href="#aQ" x="53.461" y="150.892" fill="rgb(0%,0%,0%)"/><use xlink:href="#aR" x="55.566" y="147.838" fill="rgb(0%,0%,0%)"/><use xlink:href="#aS" x="57.758" y="144.658" fill="rgb(0%,0%,0%)"/><use xlink:href="#aT" x="61.167" y="139.711" fill="rgb(0%,0%,0%)"/><use xlink:href="#aU" x="62.847" y="137.273" fill="rgb(0%,0%,0%)"/><use xlink:href="#aS" x="64.43" y="134.976" fill="rgb(0%,0%,0%)"/><use xlink:href="#aV" x="66.378" y="132.149" fill="rgb(0%,0%,0%)"/><use xlink:href="#aV" x="67.422" y="130.634" fill="rgb(0%,0%,0%)"/><use xlink:href="#aS" x="68.466" y="129.119" fill="rgb(0%,0%,0%)"/><use xlink:href="#aN" x="70.414" y="126.292" fill="rgb(0%,0%,0%)"/><path d="M42.813 173.313C68.69 162.648 82.78 144.358 86.39 117.32" fill="none" stroke-width="0.79701" stroke="rgb(0%,0%,0%)" stroke-miterlimit="10"/><path d="M84.133 118.586c.785-.027 2.129-1.285 2.308-1.652.079.402 1.047 1.968 1.797 2.199" fill="none" stroke-width=".63756812" stroke-linecap="round" stroke-linejoin="round" stroke="rgb(0%,0%,0%)" stroke-miterlimit="10"/><use xlink:href="#aW" x="51.098" y="167.21" fill="rgb(0%,0%,0%)"/><use xlink:href="#aX" x="55.648" y="164.507" fill="rgb(0%,0%,0%)"/><use xlink:href="#aY" x="59.985" y="161.425" fill="rgb(0%,0%,0%)"/><use xlink:href="#aZ" x="61.94" y="159.921" fill="rgb(0%,0%,0%)"/><use xlink:href="#ba" x="65.306" y="156.937" fill="rgb(0%,0%,0%)"/><use xlink:href="#bb" x="68.016" y="154.193" fill="rgb(0%,0%,0%)"/><use xlink:href="#bc" x="70.538" y="151.267" fill="rgb(0%,0%,0%)"/><use xlink:href="#bd" x="73.985" y="146.64" fill="rgb(0%,0%,0%)"/><use xlink:href="#be" x="76.966" y="141.455" fill="rgb(0%,0%,0%)"/><use xlink:href="#bf" x="78.422" y="138.436" fill="rgb(0%,0%,0%)"/><use xlink:href="#bg" x="79.15" y="136.839" fill="rgb(0%,0%,0%)"/><use xlink:href="#bh" x="80.552" y="133.218" fill="rgb(0%,0%,0%)"/><use xlink:href="#bi" x="81.606" y="130.053" fill="rgb(0%,0%,0%)"/><path d="M160.543 114.445c8.664 26.172 18.105 40.535 38.164 58.395" fill="none" stroke-width="0.79701" stroke="rgb(0%,0%,0%)" stroke-miterlimit="10"/><path d="M198.926 170.262c-.422.664-.133 2.48.074 2.836-.379-.16-2.215-.239-2.832.257" fill="none" stroke-width=".637561744" stroke-linecap="round" stroke-linejoin="round" stroke="rgb(0%,0%,0%)" stroke-miterlimit="10"/><use xlink:href="#bj" x="168.499" y="129.814" fill="rgb(0%,0%,0%)"/><use xlink:href="#bk" x="169.223" y="131.454" fill="rgb(0%,0%,0%)"/><use xlink:href="#bl" x="170.913" y="134.991" fill="rgb(0%,0%,0%)"/><use xlink:href="#bm" x="172.588" y="138.222" fill="rgb(0%,0%,0%)"/><use xlink:href="#bn" x="174.414" y="141.449" fill="rgb(0%,0%,0%)"/><use xlink:href="#bo" x="175.84" y="143.792" fill="rgb(0%,0%,0%)"/><use xlink:href="#bp" x="176.79" y="145.305" fill="rgb(0%,0%,0%)"/><use xlink:href="#bq" x="178.76" y="148.201" fill="rgb(0%,0%,0%)"/><use xlink:href="#br" x="179.792" y="149.661" fill="rgb(0%,0%,0%)"/><use xlink:href="#bs" x="181.829" y="152.353" fill="rgb(0%,0%,0%)"/><use xlink:href="#bt" x="183.438" y="154.374" fill="rgb(0%,0%,0%)"/><use xlink:href="#bu" x="185.611" y="156.953" fill="rgb(0%,0%,0%)"/><path d="M157.629 116.617c-.64 26.668 12.863 46.973 37.043 56.438" fill="none" stroke-width="0.79701" stroke="rgb(0%,0%,0%)" stroke-miterlimit="10"/><path d="M193.98 170.559c-.16.77.739 2.375 1.055 2.636-.41-.02-2.16.543-2.562 1.223" fill="none" stroke-width=".63756812" stroke-linecap="round" stroke-linejoin="round" stroke="rgb(0%,0%,0%)" stroke-miterlimit="10"/><use xlink:href="#bv" x="161.99" y="136.047" fill="rgb(0%,0%,0%)"/><use xlink:href="#bw" x="163.06" y="139.308" fill="rgb(0%,0%,0%)"/><use xlink:href="#bx" x="164.302" y="142.388" fill="rgb(0%,0%,0%)"/><use xlink:href="#by" x="165.278" y="144.666" fill="rgb(0%,0%,0%)"/><use xlink:href="#bz" x="168.313" y="149.818" fill="rgb(0%,0%,0%)"/><use xlink:href="#bA" x="169.285" y="151.275" fill="rgb(0%,0%,0%)"/><use xlink:href="#bB" x="170.885" y="153.429" fill="rgb(0%,0%,0%)"/><use xlink:href="#bC" x="172.583" y="155.495" fill="rgb(0%,0%,0%)"/><use xlink:href="#bD" x="174.871" y="157.922" fill="rgb(0%,0%,0%)"/><use xlink:href="#bE" x="176.094" y="159.154" fill="rgb(0%,0%,0%)"/><path d="M160.543 110.91c21.55 19.535 31.336 34.711 40.02 61.727" fill="none" stroke-width="0.79701" stroke="rgb(0%,0%,0%)" stroke-miterlimit="10"/><path d="M202.059 170.523c-.7.364-1.375 2.075-1.38 2.485-.242-.332-1.784-1.332-2.566-1.215" fill="none" stroke-width=".6375744959999999" stroke-linecap="round" stroke-linejoin="round" stroke="rgb(0%,0%,0%)" stroke-miterlimit="10"/><use xlink:href="#bF" x="179.171" y="127.177" fill="rgb(0%,0%,0%)"/><use xlink:href="#bG" x="181.349" y="129.897" fill="rgb(0%,0%,0%)"/><use xlink:href="#bH" x="182.977" y="132.033" fill="rgb(0%,0%,0%)"/><use xlink:href="#bI" x="184.74" y="134.478" fill="rgb(0%,0%,0%)"/><use xlink:href="#bJ" x="186.347" y="136.827" fill="rgb(0%,0%,0%)"/><use xlink:href="#bK" x="188.215" y="139.764" fill="rgb(0%,0%,0%)"/><use xlink:href="#bL" x="189.185" y="141.367" fill="rgb(0%,0%,0%)"/><use xlink:href="#bM" x="190.143" y="142.993" fill="rgb(0%,0%,0%)"/><use xlink:href="#bN" x="191.833" y="146.055" fill="rgb(0%,0%,0%)"/><path d="M202.227 173.313c4.066-30.153-12.696-56.641-41.012-65.665" fill="none" stroke-width="0.79701" stroke="rgb(0%,0%,0%)" stroke-miterlimit="10"/><path d="M162.066 110.094c.114-.781-.89-2.324-1.222-2.567.41-.004 2.12-.683 2.48-1.382" fill="none" stroke-width=".637561744" stroke-linecap="round" stroke-linejoin="round" stroke="rgb(0%,0%,0%)" stroke-miterlimit="10"/><use xlink:href="#bO" x="175.395" y="111.883" fill="rgb(0%,0%,0%)"/><use xlink:href="#bP" x="180.079" y="114.989" fill="rgb(0%,0%,0%)"/><use xlink:href="#bQ" x="184.398" y="118.509" fill="rgb(0%,0%,0%)"/><use xlink:href="#bR" x="186.407" y="120.312" fill="rgb(0%,0%,0%)"/><use xlink:href="#bS" x="189.715" y="123.77" fill="rgb(0%,0%,0%)"/><use xlink:href="#bT" x="192.345" y="126.948" fill="rgb(0%,0%,0%)"/><use xlink:href="#bU" x="194.735" y="130.297" fill="rgb(0%,0%,0%)"/><use xlink:href="#bV" x="197.974" y="135.663" fill="rgb(0%,0%,0%)"/><use xlink:href="#bW" x="200.543" y="141.41" fill="rgb(0%,0%,0%)"/><use xlink:href="#bX" x="201.724" y="144.728" fill="rgb(0%,0%,0%)"/><use xlink:href="#bY" x="202.325" y="146.573" fill="rgb(0%,0%,0%)"/><use xlink:href="#bZ" x="203.342" y="150.556" fill="rgb(0%,0%,0%)"/><use xlink:href="#ca" x="204.021" y="154.045" fill="rgb(0%,0%,0%)"/><path d="M38.98 189.746c10.98 28.215 30.5 43.875 59.973 48.406" fill="none" stroke-width="0.3985" stroke="rgb(66.398621%,66.398621%,66.398621%)" stroke-miterlimit="10"/><path d="M98.016 236.395c.004.605.953 1.66 1.234 1.804-.312.051-1.531.774-1.719 1.348" fill="none" stroke-width=".3187740605" stroke-linecap="round" stroke-linejoin="round" stroke="rgb(66.398621%,66.398621%,66.398621%)" stroke-miterlimit="10"/><use xlink:href="#cb" x="43.632" y="195.618" fill="rgb(66.398621%,66.398621%,66.398621%)"/><use xlink:href="#cc" x="46.032" y="200.287" fill="rgb(66.398621%,66.398621%,66.398621%)"/><use xlink:href="#cd" x="47.915" y="203.548" fill="rgb(66.398621%,66.398621%,66.398621%)"/><use xlink:href="#ce" x="50.038" y="206.816" fill="rgb(66.398621%,66.398621%,66.398621%)"/><use xlink:href="#cf" x="51.592" y="209.025" fill="rgb(66.398621%,66.398621%,66.398621%)"/><use xlink:href="#cg" x="53.804" y="211.87" fill="rgb(66.398621%,66.398621%,66.398621%)"/><use xlink:href="#ch" x="56.22" y="214.637" fill="rgb(66.398621%,66.398621%,66.398621%)"/><use xlink:href="#ci" x="59.832" y="218.33" fill="rgb(66.398621%,66.398621%,66.398621%)"/><use xlink:href="#cj" x="63.757" y="221.648" fill="rgb(66.398621%,66.398621%,66.398621%)"/><use xlink:href="#ck" x="66.454" y="223.639" fill="rgb(66.398621%,66.398621%,66.398621%)"/><use xlink:href="#cl" x="67.91" y="224.646" fill="rgb(66.398621%,66.398621%,66.398621%)"/><use xlink:href="#cm" x="70.184" y="226.098" fill="rgb(66.398621%,66.398621%,66.398621%)"/><use xlink:href="#cn" x="73.092" y="227.749" fill="rgb(66.398621%,66.398621%,66.398621%)"/><use xlink:href="#co" x="75.349" y="228.926" fill="rgb(66.398621%,66.398621%,66.398621%)"/><use xlink:href="#cp" x="78.774" y="230.488" fill="rgb(66.398621%,66.398621%,66.398621%)"/><use xlink:href="#cq" x="81.872" y="231.733" fill="rgb(66.398621%,66.398621%,66.398621%)"/><use xlink:href="#cr" x="85.556" y="233" fill="rgb(66.398621%,66.398621%,66.398621%)"/><use xlink:href="#cs" x="88.767" y="233.958" fill="rgb(66.398621%,66.398621%,66.398621%)"/><path d="M78.164 181.527h84.754" fill="none" stroke-width="0.3985" stroke="rgb(66.398621%,66.398621%,66.398621%)" stroke-miterlimit="10"/><path d="M161.723 179.934c.101.597 1.195 1.496 1.496 1.593-.301.102-1.395.996-1.496 1.594" fill="none" stroke-width="0.31879" stroke-linecap="round" stroke-linejoin="round" stroke="rgb(66.398621%,66.398621%,66.398621%)" stroke-miterlimit="10"/><use xlink:href="#ct" x="89.418" y="179.534" fill="rgb(66.398621%,66.398621%,66.398621%)"/><use xlink:href="#cu" x="94.701" y="179.534" fill="rgb(66.398621%,66.398621%,66.398621%)"/><use xlink:href="#cv" x="97.338" y="179.534" fill="rgb(66.398621%,66.398621%,66.398621%)"/><use xlink:href="#cw" x="100.771" y="179.534" fill="rgb(66.398621%,66.398621%,66.398621%)"/><use xlink:href="#cw" x="103.132" y="179.534" fill="rgb(66.398621%,66.398621%,66.398621%)"/><use xlink:href="#cv" x="105.492" y="179.534" fill="rgb(66.398621%,66.398621%,66.398621%)"/><use xlink:href="#cx" x="108.925" y="179.534" fill="rgb(66.398621%,66.398621%,66.398621%)"/><use xlink:href="#cy" x="115.486" y="179.534" fill="rgb(66.398621%,66.398621%,66.398621%)"/><use xlink:href="#cv" x="119.043" y="179.534" fill="rgb(66.398621%,66.398621%,66.398621%)"/><use xlink:href="#cu" x="122.476" y="179.534" fill="rgb(66.398621%,66.398621%,66.398621%)"/><use xlink:href="#cv" x="125.113" y="179.534" fill="rgb(66.398621%,66.398621%,66.398621%)"/><use xlink:href="#cz" x="128.546" y="179.534" fill="rgb(66.398621%,66.398621%,66.398621%)"/><use xlink:href="#cx" x="130.386" y="179.534" fill="rgb(66.398621%,66.398621%,66.398621%)"/><use xlink:href="#cA" x="134.372" y="179.534" fill="rgb(66.398621%,66.398621%,66.398621%)"/><use xlink:href="#cB" x="138.358" y="179.534" fill="rgb(66.398621%,66.398621%,66.398621%)"/><use xlink:href="#cu" x="142.067" y="179.534" fill="rgb(66.398621%,66.398621%,66.398621%)"/><use xlink:href="#cv" x="144.704" y="179.534" fill="rgb(66.398621%,66.398621%,66.398621%)"/><use xlink:href="#cx" x="148.137" y="179.534" fill="rgb(66.398621%,66.398621%,66.398621%)"/><path d="M202.227 189.746c-10.844 28.09-30.34 43.82-59.637 48.406" fill="none" stroke-width="0.3985" stroke="rgb(66.398621%,66.398621%,66.398621%)" stroke-miterlimit="10"/><path d="M144.016 239.543c-.192-.578-1.41-1.293-1.723-1.344.281-.144 1.223-1.203 1.23-1.808" fill="none" stroke-width=".3187804363" stroke-linecap="round" stroke-linejoin="round" stroke="rgb(66.398621%,66.398621%,66.398621%)" stroke-miterlimit="10"/><use xlink:href="#cC" x="156.094" y="232.942" fill="rgb(66.398621%,66.398621%,66.398621%)"/><use xlink:href="#cD" x="161.085" y="231.104" fill="rgb(66.398621%,66.398621%,66.398621%)"/><use xlink:href="#cE" x="164.398" y="229.669" fill="rgb(66.398621%,66.398621%,66.398621%)"/><use xlink:href="#cF" x="167.387" y="228.207" fill="rgb(66.398621%,66.398621%,66.398621%)"/><use xlink:href="#cG" x="170.762" y="226.318" fill="rgb(66.398621%,66.398621%,66.398621%)"/><use xlink:href="#cH" x="174.029" y="224.196" fill="rgb(66.398621%,66.398621%,66.398621%)"/><use xlink:href="#cI" x="175.486" y="223.168" fill="rgb(66.398621%,66.398621%,66.398621%)"/><use xlink:href="#cJ" x="176.91" y="222.109" fill="rgb(66.398621%,66.398621%,66.398621%)"/><use xlink:href="#cK" x="178.692" y="220.7" fill="rgb(66.398621%,66.398621%,66.398621%)"/><use xlink:href="#cL" x="183" y="216.788" fill="rgb(66.398621%,66.398621%,66.398621%)"/><use xlink:href="#cM" x="185.576" y="214.057" fill="rgb(66.398621%,66.398621%,66.398621%)"/><use xlink:href="#cN" x="187.737" y="211.526" fill="rgb(66.398621%,66.398621%,66.398621%)"/><use xlink:href="#cO" x="190.088" y="208.432" fill="rgb(66.398621%,66.398621%,66.398621%)"/><use xlink:href="#cP" x="191.982" y="205.684" fill="rgb(66.398621%,66.398621%,66.398621%)"/></svg>