<svg height="236.504" viewBox="0 0 438.66 177.378" width="584.88" xmlns="http://www.w3.org/2000/svg" xmlns:xlink="http://www.w3.org/1999/xlink"><symbol id="a" overflow="visible"><path d="m2.938-6.375c0-.25 0-.266-.235-.266-.625.641-1.5.641-1.812.641v.313c.203 0 .78 0 1.296-.266v5.172c0 .36-.03.469-.921.469h-.313v.312c.344-.031 1.203-.031 1.61-.031.39 0 1.265 0 1.609.031v-.313h-.313c-.906 0-.921-.109-.921-.468zm0 0"/></symbol><symbol id="b" overflow="visible"><path d="m1.266-.766 1.062-1.03c1.547-1.376 2.14-1.907 2.14-2.907 0-1.14-.89-1.938-2.109-1.938a1.843 1.843 0 0 0 -1.859 1.813c0 .547.5.547.531.547.172 0 .516-.11.516-.532a.513.513 0 0 0 -.531-.515c-.079 0-.094 0-.125.016.218-.657.765-1.016 1.343-1.016.907 0 1.329.812 1.329 1.625 0 .797-.485 1.578-1.047 2.203l-1.907 2.125c-.109.11-.109.14-.109.375h3.703l.266-1.734h-.235c-.062.296-.124.734-.234.89-.063.078-.719.078-.938.078zm0 0"/></symbol><symbol id="c" overflow="visible"><path d="m2.89-3.516c.813-.265 1.391-.953 1.391-1.75 0-.812-.875-1.375-1.828-1.375-1 0-1.765.594-1.765 1.36 0 .328.218.515.515.515s.5-.218.5-.515c0-.485-.469-.485-.61-.485.298-.5.954-.625 1.313-.625.422 0 .969.22.969 1.11 0 .125-.031.703-.281 1.14-.297.485-.64.516-.89.516a3.29 3.29 0 0 1 -.392.031c-.078.016-.14.031-.14.125 0 .11.062.11.234.11h.438c.812 0 1.187.671 1.187 1.656 0 1.36-.687 1.64-1.125 1.64-.437 0-1.187-.171-1.531-.75.344.047.656-.171.656-.546a.537.537 0 0 0 -.547-.563c-.25 0-.562.14-.562.578 0 .907.922 1.564 2.015 1.564 1.22 0 2.126-.906 2.126-1.922 0-.813-.641-1.594-1.672-1.813zm0 0"/></symbol><symbol id="d" overflow="visible"><path d="m2.938-1.64v.859c0 .36-.032.469-.766.469h-.203v.312c.406-.031.922-.031 1.343-.031.422 0 .938 0 1.36.031v-.313h-.219c-.734 0-.75-.109-.75-.468v-.86h.985v-.312h-.985v-4.531c0-.204 0-.266-.172-.266-.078 0-.11 0-.187.125l-3.064 4.672v.312zm.046-.313h-2.421l2.421-3.719zm0 0"/></symbol><symbol id="e" overflow="visible"><path d="m4.469-2c0-1.188-.813-2.188-1.89-2.188-.47 0-.907.157-1.267.516v-1.953c.204.063.532.125.844.125 1.235 0 1.938-.906 1.938-1.031 0-.063-.032-.11-.11-.11 0 0-.03 0-.078.032a3.22 3.22 0 0 1 -1.36.296 3.4 3.4 0 0 1 -1.327-.28c-.078-.032-.094-.032-.11-.032-.109 0-.109.078-.109.234v2.954c0 .171 0 .25.14.25.079 0 .094-.016.141-.079.11-.156.469-.703 1.282-.703.515 0 .765.453.843.64.156.376.188.75.188 1.25 0 .36 0 .954-.25 1.376-.235.39-.61.64-1.063.64-.719 0-1.297-.53-1.469-1.109.032 0 .063.016.172.016.329 0 .5-.25.5-.485 0-.25-.171-.5-.5-.5-.14 0-.484.079-.484.532 0 .859.688 1.828 1.797 1.828 1.156 0 2.172-.953 2.172-2.219zm0 0"/></symbol><symbol id="f" overflow="visible"><path d="m4.578-3.188c0-.796-.047-1.593-.39-2.328-.455-.968-1.283-1.124-1.688-1.124-.61 0-1.328.266-1.75 1.188-.313.687-.36 1.469-.36 2.266 0 .75.032 1.64.454 2.406a1.83 1.83 0 0 0 1.64 1c.532 0 1.297-.203 1.735-1.157.312-.687.36-1.468.36-2.25zm-2.094 3.188c-.39 0-.984-.25-1.156-1.203-.11-.594-.11-1.516-.11-2.11 0-.64 0-1.296.079-1.828.187-1.187.937-1.28 1.187-1.28.329 0 .985.187 1.172 1.171.11.563.11 1.313.11 1.938 0 .75 0 1.421-.11 2.062-.156.953-.719 1.25-1.172 1.25zm0 0"/></symbol><symbol id="g" overflow="visible"><path d="m4.406-6.953c-.062-.14-.093-.188-.265-.188-.157 0-.188.047-.25.188l-3.375 6.75c-.047.094-.047.11-.047.125 0 .078.061.078.219.078h6.921c.157 0 .22 0 .22-.078 0-.016 0-.031-.048-.125zm-.578.812 2.688 5.391h-5.376zm0 0"/></symbol><symbol id="h" overflow="visible"><path d="m4.25-6.047c.078-.281.11-.344.234-.375.094-.016.422-.016.625-.016 1.016 0 1.454.032 1.454.813 0 .156-.032.547-.079.797 0 .047-.03.156-.03.187 0 .063.03.141.124.141.11 0 .125-.078.156-.234l.266-1.736c.016-.047.016-.14.016-.172 0-.109-.094-.109-.266-.109h-5.531c-.235 0-.25.016-.328.203l-.594 1.75c0 .016-.063.156-.063.188 0 .046.063.109.125.109.094 0 .11-.063.172-.219.531-1.547.797-1.718 2.266-1.718h.39c.282 0 .282.03.282.125a.775.775 0 0 1 -.047.203l-1.328 5.329c-.094.36-.125.469-1.188.469-.36 0-.422 0-.422.187 0 .125.11.125.172.125.266 0 .547-.016.813-.016.281 0 .578-.015.86-.015.28 0 .546.015.827.015s.578.016.86.016c.093 0 .218 0 .218-.203 0-.11-.078-.11-.343-.11-.235 0-.375 0-.625-.015-.297-.031-.375-.063-.375-.219 0-.015 0-.062.046-.203zm0 0"/></symbol><symbol id="i" overflow="visible"><path d="m.875-.594c-.031.156-.094.39-.094.438 0 .172.14.265.297.265a.414.414 0 0 0 .375-.28c0-.016.125-.485.188-.735l.218-.89c.047-.235.11-.454.172-.673.031-.172.11-.469.125-.5.14-.312.672-1.219 1.625-1.219.453 0 .531.375.531.704 0 .609-.484 1.89-.64 2.312-.094.234-.11.36-.11.469 0 .469.36.812.829.812.937 0 1.296-1.453 1.296-1.53 0-.11-.078-.11-.109-.11-.11 0-.11.031-.156.187-.203.672-.531 1.235-1.016 1.235-.172 0-.234-.094-.234-.329 0-.25.078-.484.172-.703.187-.53.61-1.625.61-2.203 0-.656-.423-1.062-1.141-1.062-.907 0-1.391.64-1.563.875-.047-.563-.453-.875-.922-.875-.453 0-.64.39-.734.562-.172.344-.297.938-.297.969 0 .11.094.11.11.11.109 0 .109-.016.171-.235.172-.703.375-1.188.735-1.188.187 0 .296.125.296.454 0 .218-.03.328-.156.843zm0 0"/></symbol><symbol id="j" overflow="visible"><path d="m1.906-.531a.534.534 0 0 0 -.515-.531.537.537 0 0 0 -.532.53.524.524 0 1 0 1.047 0zm0 0"/></symbol><symbol id="k" overflow="visible"><path d="m3.219-1.578h2.14c.094 0 .25 0 .25-.156 0-.188-.156-.188-.25-.188h-2.139v-2.14c0-.079 0-.25-.156-.25-.172 0-.172.156-.172.25v2.14h-2.142c-.094 0-.266 0-.266.172s.157.172.266.172h2.14v2.14c0 .094 0 .266.157.266.172 0 .172-.172.172-.265zm0 0"/></symbol><symbol id="l" overflow="visible"><path d="m2.188-4.625c0-.016.015-.11.015-.11 0-.046-.015-.109-.11-.109-.14 0-.718.063-.89.078-.047 0-.156.016-.156.157 0 .093.11.093.187.093.329 0 .329.063.329.11s-.016.093-.016.156l-.984 3.938c-.047.124-.047.14-.047.156 0 .11.093.218.25.218.187 0 .265-.124.312-.28.016-.032.313-1.266.344-1.36.5.047.89.219.89.578 0 .031 0 .063-.015.14-.031.094-.031.141-.031.22 0 .484.406.703.75.703.671 0 .875-1.047.875-1.063 0-.094-.079-.094-.11-.094-.094 0-.11.047-.14.172-.079.297-.266.797-.61.797-.187 0-.25-.172-.25-.36 0-.124 0-.14.047-.312a.724.724 0 0 0 .031-.219c0-.625-.828-.718-1.125-.734.204-.125.454-.36.579-.469.359-.328.703-.656 1.093-.656.078 0 .172.016.235.094a.396.396 0 0 0 -.36.39c0 .141.11.25.266.25.203 0 .406-.156.406-.437a.5.5 0 0 0 -.531-.5c-.406 0-.766.297-1.125.625-.297.265-.516.484-.813.61zm0 0"/></symbol><symbol id="m" overflow="visible"><path d="m5.188-1.578c.109 0 .28 0 .28-.156 0-.188-.171-.188-.28-.188h-4.158c-.11 0-.281 0-.281.172s.156.172.281.172zm0 0"/></symbol><clipPath id="n"><path d="m19.129.395h194.27v161.398h-194.271zm0 0"/></clipPath><clipPath id="o"><path d="m434 159h4.66v5h-4.66zm0 0"/></clipPath><clipPath id="p"><path d="m243.992 8h194.274v153.793h-194.274zm0 0"/></clipPath><path d="m46.255-2.126v4.25m46.254-4.25v4.25m46.258-4.25v4.25m46.253-4.25v4.25m-187.144 43.77h4.25m-4.25 45.898h4.25m-4.25 45.895h4.25m-2.126-137.688h191.68" fill="none" stroke="#000" stroke-miterlimit="10" stroke-width=".79701" transform="matrix(1 0 0 -1 19.128 161.792)"/><path d="m213.398 161.793-4.144-2.074 1.555 2.074-1.555 2.07"/><path d="m0-.001v158.809" fill="none" stroke="#000" stroke-miterlimit="10" stroke-width=".79701" transform="matrix(1 0 0 -1 19.128 161.792)"/><path d="m19.129.395-2.074 4.144 2.074-1.555 2.07 1.555"/><use x="62.892" xlink:href="#a" y="174.057"/><use x="109.146" xlink:href="#b" y="174.057"/><use x="155.401" xlink:href="#c" y="174.057"/><use x="201.655" xlink:href="#d" y="174.057"/><use x="8.302" xlink:href="#e" y="119.108"/><g><use x="3.321" xlink:href="#a" y="73.213"/><use x="8.302" xlink:href="#f" y="73.213"/></g><g><use x="3.321" xlink:href="#a" y="27.318"/><use x="8.302" xlink:href="#e" y="27.318"/></g><g clip-path="url(#n)"><path d="m0-.001s5.85-.05 8.096.031c2.246.082 5.847.305 8.093.563 2.247.258 5.848.847 8.094 1.293 2.246.445 5.852 1.304 8.098 1.922 2.246.613 5.847 1.73 8.094 2.504a166.09 166.09 0 0 1 8.093 3.078 183.58 183.58 0 0 1 8.094 3.648 195.558 195.558 0 0 1 8.098 4.215 213.634 213.634 0 0 1 8.093 4.781 240.637 240.637 0 0 1 8.094 5.348 264.78 264.78 0 0 1 8.094 5.898 293.603 293.603 0 0 1 8.094 6.477 318.494 318.494 0 0 1 8.097 7.039 380.11 380.11 0 0 1 8.094 7.605 398.439 398.439 0 0 1 8.094 8.137 423.86 423.86 0 0 1 8.094 8.734 495.128 495.128 0 0 1 8.097 9.313 532.215 532.215 0 0 1 8.094 9.844 580.82 580.82 0 0 1 8.094 10.46 707.17 707.17 0 0 1 8.094 11.005 735.492 735.492 0 0 1 8.093 11.52c2.25 3.28 5.852 8.679 8.098 12.124s5.848 9.125 8.094 12.715c2.246 3.586 8.093 13.144 8.093 13.144" fill="none" stroke="#00f" stroke-miterlimit="10" stroke-width=".79701" transform="matrix(1 0 0 -1 19.128 161.792)"/></g><use x="202.472" xlink:href="#h" y="158.073"/><use x="22.847" xlink:href="#g" y="12.696"/><use x="31.149" xlink:href="#i" y="12.696"/><use x="37.129" xlink:href="#k" y="8.434"/><use x="37.129" xlink:href="#l" y="15.701"/><path d="m46.257-2.126v4.25m46.254-4.25v4.25m46.254-4.25v4.25m46.254-4.25v4.25m-187.145 26.696h4.25m-4.25 28.82h4.25m-4.25 28.824h4.25m-4.25 28.82h4.25m-4.25 28.82h4.25m-2.124-144.105h191.683" fill="none" stroke="#000" stroke-miterlimit="10" stroke-width=".79701" transform="matrix(1 0 0 -1 243.993 161.792)"/><g clip-path="url(#o)"><path d="m438.266 161.793-4.145-2.074 1.555 2.074-1.555 2.07"/></g><path d="m0-.001v158.805" fill="none" stroke="#000" stroke-miterlimit="10" stroke-width=".79701" transform="matrix(1 0 0 -1 243.993 161.792)"/><path d="m243.992.398-2.07 4.145 2.07-1.555 2.074 1.555"/><use x="287.757" xlink:href="#a" y="174.057"/><use x="334.011" xlink:href="#b" y="174.057"/><use x="380.266" xlink:href="#c" y="174.057"/><use x="426.52" xlink:href="#d" y="174.057"/><use x="220.437" xlink:href="#f" y="136.182"/><use x="225.418" xlink:href="#j" y="136.182"/><g><use x="228.185" xlink:href="#f" y="136.182"/><use x="233.166" xlink:href="#e" y="136.182"/></g><use x="225.418" xlink:href="#f" y="107.362"/><use x="230.399" xlink:href="#j" y="107.362"/><use x="233.167" xlink:href="#a" y="107.362"/><use x="220.437" xlink:href="#f" y="78.541"/><use x="225.418" xlink:href="#j" y="78.541"/><g><use x="228.185" xlink:href="#a" y="78.541"/><use x="233.166" xlink:href="#e" y="78.541"/></g><use x="225.418" xlink:href="#f" y="49.721"/><use x="230.399" xlink:href="#j" y="49.721"/><use x="233.167" xlink:href="#b" y="49.721"/><use x="220.437" xlink:href="#f" y="20.901"/><use x="225.418" xlink:href="#j" y="20.901"/><g><use x="228.185" xlink:href="#b" y="20.901"/><use x="233.166" xlink:href="#e" y="20.901"/></g><g clip-path="url(#p)"><path d="m0-.001s5.847-2.219 8.093 1.89c2.246 4.111 5.851 18.967 8.097 27.724 2.246 8.754 5.847 27.032 8.093 35.395 2.246 8.367 5.848 19.25 8.094 24.89 2.246 5.641 5.848 12.184 8.094 15.778s5.851 7.785 8.097 10.125c2.247 2.344 5.848 5.16 8.094 6.738s5.848 3.535 8.094 4.64c2.246 1.106 5.848 2.528 8.094 3.329 2.246.8 5.847 1.847 8.094 2.441 2.25.598 5.851 1.399 8.097 1.852 2.246.457 5.848 1.074 8.094 1.43 2.246.355 5.848.847 8.094 1.128 2.246.286 5.847.68 8.093.907a561.283 561.283 0 0 0 16.192 1.336c2.246.156 5.847.375 8.094.504a1403.113 1403.113 0 0 0 16.187.789c2.246.09 5.852.218 8.098.296 2.246.082 5.847.204 8.093.274 2.247.07 5.848.172 8.094.23 2.246.059 5.848.149 8.098.203 2.242.051 8.094.176 8.094.176" fill="none" stroke="#00f" stroke-miterlimit="10" stroke-width=".79701" transform="matrix(1 0 0 -1 243.993 161.792)"/></g><use x="427.337" xlink:href="#h" y="158.073"/><use x="247.712" xlink:href="#g" y="12.696"/><use x="256.014" xlink:href="#i" y="12.696"/><use x="261.994" xlink:href="#m" y="8.435"/><use x="261.994" xlink:href="#l" y="15.702"/></svg>