<svg xmlns="http://www.w3.org/2000/svg" xmlns:xlink="http://www.w3.org/1999/xlink" width="415.2" height="303.947" viewBox="0 0 311.4 227.96"><defs><symbol overflow="visible" id="a"><path d="M6.188-5.828c.14-.375.406-.656 1.093-.672v-.313c-.312.032-.718.032-.968.032-.297 0-.875-.016-1.141-.032v.313c.516.016.734.266.734.5 0 .078-.031.14-.047.203L4.031-1 2.125-6.031c-.063-.14-.063-.157-.063-.172 0-.297.563-.297.813-.297v-.313c-.36.032-1.047.032-1.422.032-.469 0-.906-.016-1.266-.032v.313c.657 0 .844 0 .985.375L3.484 0c.063.188.11.219.25.219.157 0 .188-.047.235-.188zm0 0"/></symbol><symbol overflow="visible" id="b"><path d="M1.11-2.516C1.171-4 2.015-4.25 2.36-4.25c1.015 0 1.124 1.344 1.124 1.734zm0 .22h2.78c.22 0 .25 0 .25-.22 0-.984-.546-1.953-1.78-1.953C1.202-4.469.28-3.437.28-2.187.281-.86 1.328.108 2.47.108 3.688.11 4.14-1 4.14-1.187c0-.094-.079-.125-.141-.125-.078 0-.11.062-.125.14C3.531-.14 2.625-.14 2.531-.14c-.5 0-.89-.296-1.125-.671-.297-.47-.297-1.125-.297-1.485zm0 0"/></symbol><symbol overflow="visible" id="c"><path d="M1.672-3.313v-1.093l-1.39.11v.312c.702 0 .78.062.78.562V-.75c0 .438-.109.438-.78.438V0c.39-.016.859-.031 1.14-.031.39 0 .86 0 1.266.031v-.313h-.22c-.734 0-.75-.109-.75-.468v-1.531c0-.985.423-1.876 1.173-1.876.062 0 .093 0 .109.016-.031 0-.234.125-.234.39 0 .266.218.423.437.423a.421.421 0 00.422-.438c0-.312-.313-.61-.734-.61-.735 0-1.094.673-1.22 1.095zm0 0"/></symbol><symbol overflow="visible" id="d"><path d="M3.313-.75c.046.39.312.813.78.813.22 0 .829-.141.829-.954v-.562h-.25v.562c0 .579-.25.641-.36.641-.328 0-.375-.453-.375-.5v-1.984c0-.422 0-.813-.359-1.188-.39-.39-.89-.547-1.36-.547-.827 0-1.515.469-1.515 1.125 0 .297.203.469.469.469a.435.435 0 00.453-.453c0-.125-.047-.453-.516-.453.282-.36.766-.469 1.079-.469.5 0 1.062.39 1.062 1.281v.36c-.516.03-1.203.062-1.828.359-.75.344-1 .86-1 1.297 0 .812.969 1.062 1.594 1.062.656 0 1.109-.406 1.296-.859zM3.25-2.39v1c0 .937-.719 1.28-1.172 1.28-.484 0-.89-.343-.89-.843 0-.547.421-1.375 2.062-1.438zm0 0"/></symbol><symbol overflow="visible" id="e"><path d="M1.172-2.172c0-1.625.812-2.047 1.344-2.047.093 0 .718.016 1.062.375-.406.031-.469.328-.469.453 0 .266.188.454.454.454.265 0 .468-.157.468-.47 0-.671-.765-1.062-1.531-1.062C1.25-4.469.344-3.39.344-2.156c0 1.281.984 2.265 2.14 2.265 1.329 0 1.657-1.203 1.657-1.296 0-.094-.11-.094-.141-.094-.078 0-.11.031-.125.093C3.594-.265 2.937-.14 2.578-.14c-.531 0-1.406-.421-1.406-2.03zm0 0"/></symbol><symbol overflow="visible" id="f"><path d="M1.766-4.406l-1.391.11v.312c.64 0 .734.062.734.546V-.75c0 .438-.109.438-.78.438V0c.312-.016.859-.031 1.093-.031.36 0 .703.015 1.047.031v-.313c-.672 0-.703-.046-.703-.437zm.03-1.735a.514.514 0 00-.515-.53.537.537 0 00-.531.53c0 .266.219.532.531.532a.514.514 0 00.516-.532zm0 0"/></symbol><symbol overflow="visible" id="g"><path d="M1.719-3.984h1.437v-.313H1.72v-1.828h-.25c0 .813-.297 1.875-1.282 1.922v.219h.844v2.75c0 1.218.938 1.343 1.297 1.343.703 0 .985-.703.985-1.343v-.563h-.25v.547c0 .734-.297 1.11-.672 1.11-.672 0-.672-.907-.672-1.079zm0 0"/></symbol><symbol overflow="visible" id="h"><path d="M4.14-3.344c.25-.64.766-.64.923-.64v-.313c-.235.016-.516.031-.75.031-.172 0-.641-.015-.86-.03v.312c.313 0 .469.171.469.421 0 .11-.016.126-.063.25L2.844-.874 1.75-3.547c-.047-.11-.063-.14-.063-.187 0-.25.36-.25.563-.25v-.313c-.266.016-.922.031-1.094.031-.265 0-.672-.015-.968-.03v.312c.484 0 .671 0 .812.343L2.5 0a6.764 6.764 0 00-.25.594c-.219.547-.5 1.234-1.14 1.234-.048 0-.282 0-.47-.187.313-.032.391-.25.391-.422C1.031.969.844.812.61.812c-.203 0-.421.125-.421.422 0 .454.421.813.921.813.625 0 1.032-.578 1.266-1.14zm0 0"/></symbol><symbol overflow="visible" id="i"><path d="M1.75-4.297v-1.156c0-.875.469-1.36.906-1.36.031 0 .188 0 .328.079a.443.443 0 00-.296.421c0 .22.156.422.437.422s.438-.203.438-.437c0-.375-.376-.703-.907-.703-.687 0-1.547.531-1.547 1.593v1.141H.33v.313h.78V-.75c0 .438-.109.438-.765.438V0c.39-.016.86-.031 1.125-.031.406 0 .875 0 1.265.031v-.313h-.203c-.734 0-.75-.109-.75-.468v-3.203h1.125v-.313zm0 0"/></symbol><symbol overflow="visible" id="j"><path d="M1.094-3.422V-.75c0 .438-.11.438-.782.438V0c.36-.016.86-.031 1.141-.031.25 0 .766.015 1.11.031v-.313c-.672 0-.782 0-.782-.437v-1.844c0-1.031.719-1.594 1.344-1.594.64 0 .75.532.75 1.11V-.75c0 .438-.11.438-.781.438V0c.344-.016.86-.031 1.125-.031.25 0 .781.015 1.11.031v-.313c-.516 0-.766 0-.766-.296v-1.907c0-.859 0-1.156-.313-1.515-.14-.172-.469-.375-1.047-.375-.734 0-1.203.422-1.484 1.047v-1.047l-1.407.11v.312c.704 0 .782.062.782.562zm0 0"/></symbol><symbol overflow="visible" id="k"><path d="M3.781-.547V.11L5.25 0v-.313c-.688 0-.781-.062-.781-.562v-6.047l-1.422.11v.312c.687 0 .765.063.765.563v2.156a1.582 1.582 0 00-1.25-.625c-1.171 0-2.218.984-2.218 2.265 0 1.266.969 2.25 2.11 2.25.64 0 1.077-.343 1.327-.656zm0-2.672v2.047c0 .172 0 .188-.11.36-.296.484-.733.703-1.171.703-.453 0-.813-.266-1.047-.641-.25-.406-.281-.969-.281-1.39 0-.36.016-.954.297-1.407.218-.312.593-.64 1.14-.64.344 0 .766.156 1.063.593.11.172.11.188.11.375zm0 0"/></symbol><symbol overflow="visible" id="l"><path d="M1.094-.75c0 .438-.11.438-.782.438V0c.36-.016.86-.031 1.141-.031.25 0 .766.015 1.11.031v-.313c-.672 0-.782 0-.782-.437v-1.844c0-1.031.719-1.594 1.344-1.594.64 0 .75.532.75 1.11V-.75c0 .438-.11.438-.781.438V0c.344-.016.86-.031 1.125-.031.25 0 .781.015 1.11.031v-.313c-.516 0-.766 0-.766-.296v-1.907c0-.859 0-1.156-.313-1.515-.14-.172-.469-.375-1.047-.375-.844 0-1.281.593-1.453.984v-3.5l-1.438.11v.312c.704 0 .782.063.782.563zm0 0"/></symbol><symbol overflow="visible" id="m"><path d="M2.219-1.719c-.875 0-.875-1-.875-1.218 0-.266.015-.594.156-.844.078-.11.313-.39.719-.39.86 0 .86.984.86 1.218 0 .265 0 .594-.157.844-.078.109-.313.39-.703.39zm-1.156.39c0-.03 0-.265.156-.468.39.281.812.313 1 .313.922 0 1.61-.688 1.61-1.454 0-.374-.157-.734-.407-.968.36-.344.719-.39.89-.39.032 0 .079 0 .11.015-.11.031-.172.14-.172.265 0 .172.14.282.297.282a.28.28 0 00.281-.297c0-.172-.11-.485-.5-.485-.203 0-.64.063-1.062.47a1.652 1.652 0 00-1.047-.36c-.938 0-1.625.687-1.625 1.453 0 .437.219.812.469 1.031-.125.14-.313.469-.313.828 0 .313.14.688.453.89-.61.157-.922.595-.922.985 0 .719.985 1.266 2.203 1.266 1.172 0 2.204-.5 2.204-1.281 0-.344-.125-.86-.641-1.141-.531-.266-1.11-.266-1.719-.266-.25 0-.672 0-.75-.015-.312-.047-.516-.344-.516-.672zM2.5 1.829C1.484 1.828.797 1.312.797.781c0-.453.375-.828.812-.844h.594c.86 0 1.969 0 1.969.844 0 .547-.703 1.047-1.672 1.047zm0 0"/></symbol><symbol overflow="visible" id="n"><path d="M4.14-3.313c.094-.234.266-.671.923-.671v-.313c-.235.016-.516.031-.75.031-.235 0-.688-.015-.86-.03v.312c.36 0 .469.234.469.421 0 .094-.016.141-.047.25L2.844-.78l-1.11-2.781c-.062-.126-.062-.141-.062-.172 0-.25.39-.25.578-.25v-.313c-.313.016-.86.031-1.094.031-.265 0-.672-.015-.968-.03v.312c.625 0 .671.062.796.359L2.422-.078c.062.14.078.187.203.187.14 0 .172-.093.219-.187zm0 0"/></symbol><symbol overflow="visible" id="o"><path d="M4.688-2.14c0-1.266-.985-2.329-2.188-2.329C1.25-4.469.281-3.375.281-2.14A2.22 2.22 0 002.484.11c1.204 0 2.204-.984 2.204-2.25zM2.5-.14c-.438 0-.875-.204-1.14-.672-.25-.438-.25-1.047-.25-1.407 0-.39 0-.922.234-1.36a1.347 1.347 0 011.14-.671c.438 0 .86.219 1.125.656.266.422.266 1 .266 1.375 0 .36 0 .906-.219 1.344-.234.453-.672.734-1.156.734zm0 0"/></symbol><symbol overflow="visible" id="p"><path d="M1.766-6.922l-1.438.11v.312c.703 0 .781.063.781.563V-.75c0 .438-.109.438-.78.438V0c.327-.016.859-.031 1.109-.031s.734.015 1.109.031v-.313c-.672 0-.781 0-.781-.437zm0 0"/></symbol><symbol overflow="visible" id="q"><path d="M3.89-.781v.89L5.329 0v-.313c-.687 0-.766-.062-.766-.562v-3.531l-1.468.11v.312c.687 0 .781.062.781.562v1.766c0 .875-.484 1.547-1.219 1.547-.828 0-.875-.47-.875-.985v-3.312l-1.468.11v.312c.78 0 .78.03.78.906v1.5c0 .781 0 1.687 1.516 1.687.563 0 1-.28 1.282-.89zm0 0"/></symbol><symbol overflow="visible" id="r"><path d="M1.094-3.422V-.75c0 .438-.11.438-.782.438V0c.36-.016.86-.031 1.141-.031.25 0 .766.015 1.11.031v-.313c-.672 0-.782 0-.782-.437v-1.844c0-1.031.719-1.594 1.344-1.594.64 0 .75.532.75 1.11V-.75c0 .438-.11.438-.781.438V0c.344-.016.86-.031 1.125-.031.25 0 .781.015 1.11.031v-.313c-.657 0-.766 0-.766-.437v-1.844c0-1.031.703-1.594 1.343-1.594.625 0 .735.532.735 1.11V-.75c0 .438-.11.438-.782.438V0c.344-.016.86-.031 1.125-.031.266 0 .782.015 1.125.031v-.313c-.515 0-.765 0-.78-.296v-1.907c0-.859 0-1.156-.313-1.515-.141-.172-.47-.375-1.047-.375-.828 0-1.282.593-1.438.984-.14-.875-.875-.984-1.328-.984-.734 0-1.203.422-1.484 1.047v-1.047l-1.407.11v.312c.704 0 .782.062.782.562zm0 0"/></symbol><symbol overflow="visible" id="s"><path d="M1.063-.75c0 .438-.11.438-.782.438V0c.328-.016.797-.031 1.078-.031.313 0 .704.015 1.11.031v-.313c-.672 0-.781 0-.781-.437v-1.031l.64-.547c.766 1.047 1.188 1.61 1.188 1.797 0 .187-.172.219-.36.219V0c.266-.016.86-.031 1.078-.031.282 0 .579.015.86.031v-.313c-.375 0-.594 0-.969-.53L2.859-2.626c-.015-.016-.062-.078-.062-.11 0-.03.719-.64.812-.718.625-.5 1.047-.531 1.25-.531v-.313c-.28.031-.406.031-.687.031-.36 0-.984-.015-1.125-.03v.312c.187 0 .297.109.297.25 0 .203-.14.312-.219.39L1.719-2.14v-4.78L.28-6.813v.312c.703 0 .781.063.781.563zm0 0"/></symbol><symbol overflow="visible" id="t"><path d="M1.719-3.766v-3.156l-1.438.11v.312c.703 0 .781.063.781.563V0h.25c0-.016.079-.156.36-.625.14.234.562.734 1.297.734 1.187 0 2.219-.984 2.219-2.265 0-1.266-.97-2.25-2.11-2.25-.781 0-1.203.468-1.36.64zM1.75-1.14v-2.046c0-.188 0-.204.11-.36.39-.562.937-.64 1.171-.64.453 0 .813.265 1.047.64.266.406.281.969.281 1.39 0 .36-.015.954-.296 1.407-.22.313-.594.64-1.125.64-.454 0-.813-.234-1.047-.609-.141-.203-.141-.234-.141-.422zm0 0"/></symbol><symbol overflow="visible" id="u"><path d="M2.078-1.938c.219.047 1.031.204 1.031.922 0 .5-.343.907-1.125.907-.843 0-1.203-.563-1.39-1.422-.031-.125-.031-.157-.14-.157-.126 0-.126.063-.126.235v1.328c0 .172 0 .234.11.234C.483.11.5.094.688-.094.703-.109.703-.125.89-.312c.437.406.89.421 1.093.421 1.141 0 1.61-.671 1.61-1.39 0-.516-.297-.828-.422-.938-.328-.328-.719-.406-1.14-.484-.563-.11-1.22-.235-1.22-.813 0-.359.25-.765 1.11-.765 1.094 0 1.156.906 1.172 1.203 0 .094.094.094.11.094.14 0 .14-.047.14-.235v-1.015c0-.157 0-.235-.11-.235-.046 0-.078 0-.203.125-.031.032-.125.125-.172.157-.375-.282-.78-.282-.937-.282-1.219 0-1.594.672-1.594 1.235 0 .343.156.625.422.843.328.25.61.313 1.328.454zm0 0"/></symbol></defs><path d="M232.934 111.047c0-46.867-38.075-84.942-84.942-84.942a.097.097 0 00-.097.098v84.844c0 .055.043.098.097.098h84.844a.097.097 0 00.098-.098c0 .055 0 .055 0 0zm0 0" fill="#ffe6cc" stroke-width=".797" stroke="#000" stroke-miterlimit="10"/><path d="M232.934 111.047c0-30.281-16.211-58.36-42.434-73.5a.099.099 0 00-.137.039l-42.422 73.473c-.027.046-.003.086.051.086h84.844a.097.097 0 00.098-.098zm0 0" fill="#fc9" stroke-width=".797" stroke="#000" stroke-miterlimit="10"/><use xlink:href="#a" x="176.134" y="92.017"/><use xlink:href="#b" x="182.779" y="92.017"/><use xlink:href="#c" x="187.206" y="92.017"/><use xlink:href="#d" x="191.109" y="92.017"/><use xlink:href="#e" x="196.09" y="92.017"/><use xlink:href="#f" x="200.517" y="92.017"/><use xlink:href="#g" x="203.285" y="92.017"/><use xlink:href="#h" x="206.88" y="92.017"/><path d="M241.438 105.477c0-45.997-41.88-87.875-87.168-87.875" fill="none" stroke-width=".797" stroke="#000" stroke-miterlimit="10"/><path d="M155.824 19.672c-.129-.777-1.554-1.942-1.941-2.07.387-.13 1.812-1.297 1.941-2.075" fill="none" stroke-width=".6376000000000001" stroke-linecap="round" stroke-linejoin="round" stroke="#000" stroke-miterlimit="10"/><use xlink:href="#c" x="244.861" y="100.089"/><use xlink:href="#b" x="248.763" y="100.089"/><use xlink:href="#i" x="253.191" y="100.089"/><use xlink:href="#b" x="256.235" y="100.089"/><use xlink:href="#c" x="260.663" y="100.089"/><use xlink:href="#b" x="264.565" y="100.089"/><use xlink:href="#j" x="268.992" y="100.089"/><use xlink:href="#e" x="274.528" y="100.089"/><use xlink:href="#b" x="278.955" y="100.089"/><use xlink:href="#k" x="286.7" y="100.089"/><use xlink:href="#d" x="292.235" y="100.089"/><use xlink:href="#g" x="297.217" y="100.089"/><use xlink:href="#d" x="301.091" y="100.089"/><use xlink:href="#l" x="158.949" y="12.24"/><use xlink:href="#f" x="164.484" y="12.24"/><use xlink:href="#m" x="167.252" y="12.24"/><use xlink:href="#l" x="172.233" y="12.24"/><use xlink:href="#n" x="181.086" y="12.24"/><use xlink:href="#d" x="185.796" y="12.24"/><use xlink:href="#c" x="190.777" y="12.24"/><use xlink:href="#f" x="194.679" y="12.24"/><use xlink:href="#d" x="197.447" y="12.24"/><use xlink:href="#j" x="202.428" y="12.24"/><use xlink:href="#e" x="207.964" y="12.24"/><use xlink:href="#b" x="212.391" y="12.24"/><path d="M142.125 26.105c-46.867 0-84.941 38.075-84.941 84.942 0 .055.043.098.097.098h84.844a.097.097 0 00.098-.098V26.203v-.2a.1.1 0 01-.098.102zm0 0" fill="#ccf" stroke-width=".797" stroke="#000" stroke-miterlimit="10"/><path d="M142.125 26.105c-4.852 0-9.797.43-14.57 1.274a.1.1 0 00-.082.113l14.734 83.555c.008.055.016.055.016 0V26.203a.097.097 0 00-.098-.098zm0 0" fill="#99f" stroke-width=".797" stroke="#000" stroke-miterlimit="10"/><use xlink:href="#a" x="81.707" y="89.093"/><use xlink:href="#o" x="88.352" y="89.093"/><use xlink:href="#p" x="93.333" y="89.093"/><use xlink:href="#q" x="96.101" y="89.093"/><use xlink:href="#r" x="101.636" y="89.093"/><use xlink:href="#b" x="109.938" y="89.093"/><path d="M136.555 17.602c-45.996 0-87.875 41.878-87.875 87.168" fill="none" stroke-width=".797" stroke="#000" stroke-miterlimit="10"/><path d="M50.75 103.215c-.777.129-1.941 1.555-2.07 1.941-.133-.386-1.297-1.812-2.075-1.941" fill="none" stroke-width=".6376000000000001" stroke-linecap="round" stroke-linejoin="round" stroke="#000" stroke-miterlimit="10"/><use xlink:href="#s" x="92.644" y="12.24"/><use xlink:href="#f" x="97.902" y="12.24"/><use xlink:href="#p" x="100.67" y="12.24"/><use xlink:href="#o" x="103.438" y="12.24"/><use xlink:href="#t" x="108.419" y="12.24"/><use xlink:href="#h" x="113.675" y="12.24"/><use xlink:href="#g" x="118.933" y="12.24"/><use xlink:href="#b" x="122.808" y="12.24"/><use xlink:href="#u" x="127.235" y="12.24"/><use xlink:href="#g" x="5.321" y="98.151"/><use xlink:href="#b" x="9.196" y="98.151"/><use xlink:href="#c" x="13.623" y="98.151"/><use xlink:href="#d" x="17.525" y="98.151"/><use xlink:href="#t" x="22.507" y="98.151"/><use xlink:href="#h" x="27.763" y="98.151"/><use xlink:href="#g" x="33.021" y="98.151"/><use xlink:href="#b" x="36.896" y="98.151"/><use xlink:href="#u" x="41.323" y="98.151"/><path d="M57.184 116.914c0 46.867 38.074 84.941 84.941 84.941a.1.1 0 00.098-.101v-84.84a.097.097 0 00-.098-.098H57.281a.1.1 0 01-.097-.101v.2zm0 0" fill="#cfc" stroke-width=".797" stroke="#000" stroke-miterlimit="10"/><path d="M57.184 116.914c0 4.848.43 9.797 1.273 14.57.008.055.063.09.117.078l83.551-14.73c.055-.012.055-.016 0-.016H57.281a.097.097 0 00-.097.098zm0 0" fill="#9f9" stroke-width=".797" stroke="#000" stroke-miterlimit="10"/><use xlink:href="#a" x="91.852" y="158.392"/><use xlink:href="#b" x="98.497" y="158.392"/><use xlink:href="#p" x="102.924" y="158.392"/><use xlink:href="#o" x="105.692" y="158.392"/><use xlink:href="#e" x="110.942" y="158.392"/><use xlink:href="#f" x="115.38" y="158.392"/><use xlink:href="#g" x="118.147" y="158.392"/><use xlink:href="#h" x="121.743" y="158.392"/><path d="M48.68 122.484c0 45.996 41.879 87.875 87.168 87.875" fill="none" stroke-width=".797" stroke="#000" stroke-miterlimit="10"/><path d="M134.293 208.29c.129.776 1.555 1.94 1.941 2.07-.386.128-1.812 1.296-1.941 2.074" fill="none" stroke-width=".6376000000000001" stroke-linecap="round" stroke-linejoin="round" stroke="#000" stroke-miterlimit="10"/><use xlink:href="#u" x="21.399" y="134.526"/><use xlink:href="#g" x="25.328" y="134.526"/><use xlink:href="#d" x="29.203" y="134.526"/><use xlink:href="#g" x="34.184" y="134.526"/><use xlink:href="#f" x="38.058" y="134.526"/><use xlink:href="#e" x="40.826" y="134.526"/><use xlink:href="#k" x="94.359" y="220.702"/><use xlink:href="#h" x="99.894" y="220.702"/><use xlink:href="#j" x="105.152" y="220.702"/><use xlink:href="#d" x="110.688" y="220.702"/><use xlink:href="#r" x="115.669" y="220.702"/><use xlink:href="#f" x="123.971" y="220.702"/><use xlink:href="#e" x="126.738" y="220.702"/><path d="M147.992 201.855c46.867 0 84.942-38.074 84.942-84.94a.097.097 0 00-.098-.099h-84.844a.097.097 0 00-.097.098v84.84c0 .055 0 .055 0 0a.1.1 0 00.097.101zm0 0" fill="#fffbd5" stroke-width=".797" stroke="#000" stroke-miterlimit="10"/><path d="M147.992 201.855a84.864 84.864 0 0028.895-5.093.101.101 0 00.058-.13l-29.02-79.726c-.019-.05-.03-.047-.03.008v84.84a.1.1 0 00.097.101zm0 0" fill="#fff8ad" stroke-width=".797" stroke="#000" stroke-miterlimit="10"/><use xlink:href="#a" x="176.292" y="144.762"/><use xlink:href="#d" x="182.937" y="144.762"/><use xlink:href="#c" x="187.918" y="144.762"/><use xlink:href="#f" x="191.821" y="144.762"/><use xlink:href="#b" x="194.588" y="144.762"/><use xlink:href="#g" x="199.016" y="144.762"/><use xlink:href="#h" x="202.611" y="144.762"/><path d="M153.563 210.36c45.996 0 87.875-41.88 87.875-87.169" fill="none" stroke-width=".797" stroke="#000" stroke-miterlimit="10"/><path d="M239.367 124.746c.778-.129 1.942-1.555 2.07-1.941.13.386 1.297 1.812 2.075 1.941" fill="none" stroke-width=".6376000000000001" stroke-linecap="round" stroke-linejoin="round" stroke="#000" stroke-miterlimit="10"/><use xlink:href="#e" x="158.949" y="220.702"/><use xlink:href="#p" x="163.376" y="220.702"/><use xlink:href="#q" x="166.144" y="220.702"/><use xlink:href="#u" x="171.679" y="220.702"/><use xlink:href="#g" x="175.608" y="220.702"/><use xlink:href="#b" x="179.483" y="220.702"/><use xlink:href="#c" x="183.91" y="220.702"/><use xlink:href="#b" x="187.813" y="220.702"/><g><use xlink:href="#k" x="192.24" y="220.702"/></g><g><use xlink:href="#l" x="244.861" y="134.791"/></g><g><use xlink:href="#b" x="250.396" y="134.791"/></g><g><use xlink:href="#g" x="254.824" y="134.791"/></g><g><use xlink:href="#b" x="258.698" y="134.791"/></g><g><use xlink:href="#c" x="263.126" y="134.791"/></g><g><use xlink:href="#o" x="267.028" y="134.791"/><use xlink:href="#m" x="272.009" y="134.791"/><use xlink:href="#b" x="276.99" y="134.791"/></g><g><use xlink:href="#j" x="281.418" y="134.791"/></g><g><use xlink:href="#b" x="286.953" y="134.791"/></g><g><use xlink:href="#o" x="291.38" y="134.791"/><use xlink:href="#q" x="296.362" y="134.791"/></g><g><use xlink:href="#u" x="301.897" y="134.791"/></g></svg>