<svg height="298.612" viewBox="0 0 307.147 223.959" width="409.529" xmlns="http://www.w3.org/2000/svg" xmlns:xlink="http://www.w3.org/1999/xlink"><symbol id="a" overflow="visible"><path d="m6.188-5.828c.14-.375.406-.656 1.093-.672v-.313c-.312.032-.718.032-.968.032-.297 0-.875-.016-1.141-.032v.313c.516.016.734.266.734.5 0 .078-.031.14-.047.203l-1.828 4.797-1.906-5.031c-.063-.14-.063-.157-.063-.172 0-.297.563-.297.813-.297v-.313c-.36.032-1.047.032-1.422.032-.469 0-.906-.016-1.266-.032v.313c.657 0 .844 0 .985.375l2.312 6.125c.063.188.11.219.25.219.157 0 .188-.047.235-.188zm0 0"/></symbol><symbol id="b" overflow="visible"><path d="m1.11-2.516c.061-1.484.905-1.734 1.25-1.734 1.015 0 1.124 1.344 1.124 1.734zm0 .22h2.78c.22 0 .25 0 .25-.22 0-.984-.546-1.953-1.78-1.953-1.158 0-2.08 1.032-2.08 2.282.001 1.327 1.048 2.295 2.19 2.295 1.218.002 1.67-1.108 1.67-1.295 0-.094-.079-.125-.141-.125-.078 0-.11.062-.125.14-.343 1.032-1.249 1.032-1.343 1.032-.5 0-.89-.296-1.125-.671-.297-.47-.297-1.125-.297-1.485zm0 0"/></symbol><symbol id="c" overflow="visible"><path d="m1.672-3.313v-1.093l-1.39.11v.312c.702 0 .78.062.78.562v2.672c0 .438-.109.438-.78.438v.312c.39-.016.859-.031 1.14-.031.39 0 .86 0 1.266.031v-.313h-.22c-.734 0-.75-.109-.75-.468v-1.531c0-.985.423-1.876 1.173-1.876.062 0 .093 0 .109.016-.031 0-.234.125-.234.39 0 .266.218.423.437.423a.421.421 0 0 0 .422-.438c0-.312-.313-.61-.734-.61-.735 0-1.094.673-1.22 1.095zm0 0"/></symbol><symbol id="d" overflow="visible"><path d="m3.313-.75c.046.39.312.813.78.813.22 0 .829-.141.829-.954v-.562h-.25v.562c0 .579-.25.641-.36.641-.328 0-.375-.453-.375-.5v-1.984c0-.422 0-.813-.359-1.188a1.9 1.9 0 0 0 -1.36-.547c-.827 0-1.515.469-1.515 1.125 0 .297.203.469.469.469a.435.435 0 0 0 .453-.453c0-.125-.047-.453-.516-.453.282-.36.766-.469 1.079-.469.5 0 1.062.39 1.062 1.281v.36c-.516.03-1.203.062-1.828.359-.75.344-1 .86-1 1.297 0 .812.969 1.062 1.594 1.062a1.38 1.38 0 0 0 1.296-.859zm-.063-1.64v1c0 .937-.719 1.28-1.172 1.28-.484 0-.89-.343-.89-.843 0-.547.421-1.375 2.062-1.438zm0 0"/></symbol><symbol id="e" overflow="visible"><path d="m1.172-2.172c0-1.625.812-2.047 1.344-2.047.093 0 .718.016 1.062.375-.406.031-.469.328-.469.453 0 .266.188.454.454.454.265 0 .468-.157.468-.47 0-.671-.765-1.062-1.531-1.062-1.25 0-2.156 1.079-2.156 2.313 0 1.281.984 2.265 2.14 2.265 1.329 0 1.657-1.203 1.657-1.296 0-.094-.11-.094-.141-.094-.078 0-.11.031-.125.093-.281.923-.938 1.048-1.297 1.048-.531 0-1.406-.421-1.406-2.03zm0 0"/></symbol><symbol id="f" overflow="visible"><path d="m1.766-4.406-1.391.11v.312c.64 0 .734.062.734.546v2.688c0 .438-.109.438-.78.438v.312c.312-.016.859-.031 1.093-.031.36 0 .703.015 1.047.031v-.313c-.672 0-.703-.046-.703-.437zm.03-1.735a.514.514 0 0 0 -.515-.53.537.537 0 0 0 -.531.53c0 .266.219.532.531.532a.514.514 0 0 0 .516-.532zm0 0"/></symbol><symbol id="g" overflow="visible"><path d="m1.719-3.984h1.437v-.313h-1.436v-1.828h-.25c0 .813-.297 1.875-1.282 1.922v.219h.844v2.75c0 1.218.938 1.343 1.297 1.343.703 0 .985-.703.985-1.343v-.563h-.25v.547c0 .734-.297 1.11-.672 1.11-.672 0-.672-.907-.672-1.079zm0 0"/></symbol><symbol id="h" overflow="visible"><path d="m4.14-3.344c.25-.64.766-.64.923-.64v-.313c-.235.016-.516.031-.75.031-.172 0-.641-.015-.86-.03v.312c.313 0 .469.171.469.421 0 .11-.016.126-.063.25l-1.015 2.439-1.094-2.673c-.047-.11-.063-.14-.063-.187 0-.25.36-.25.563-.25v-.313c-.266.016-.922.031-1.094.031-.265 0-.672-.015-.968-.03v.312c.484 0 .671 0 .812.343l1.5 3.641a6.764 6.764 0 0 0 -.25.594c-.219.547-.5 1.234-1.14 1.234-.048 0-.282 0-.47-.187.313-.032.391-.25.391-.422 0-.25-.187-.407-.421-.407-.203 0-.421.125-.421.422 0 .454.421.813.921.813.625 0 1.032-.578 1.266-1.14zm0 0"/></symbol><symbol id="i" overflow="visible"><path d="m1.094-.75c0 .438-.11.438-.782.438v.312c.36-.016.86-.031 1.141-.031.25 0 .766.015 1.11.031v-.313c-.672 0-.782 0-.782-.437v-1.844c0-1.031.719-1.594 1.344-1.594.64 0 .75.532.75 1.11v2.328c0 .438-.11.438-.781.438v.312c.344-.016.86-.031 1.125-.031.25 0 .781.015 1.11.031v-.313c-.516 0-.766 0-.766-.296v-1.907c0-.859 0-1.156-.313-1.515-.14-.172-.469-.375-1.047-.375-.844 0-1.281.593-1.453.984v-3.5l-1.438.11v.312c.704 0 .782.063.782.563zm0 0"/></symbol><symbol id="j" overflow="visible"><path d="m2.219-1.719c-.875 0-.875-1-.875-1.218 0-.266.015-.594.156-.844.078-.11.313-.39.719-.39.86 0 .86.984.86 1.218 0 .265 0 .594-.157.844-.078.109-.313.39-.703.39zm-1.156.39a.8.8 0 0 1 .156-.468c.39.281.812.313 1 .313.922 0 1.61-.688 1.61-1.454 0-.374-.157-.734-.407-.968.36-.344.719-.39.89-.39.032 0 .079 0 .11.015-.11.031-.172.14-.172.265 0 .172.14.282.297.282a.28.28 0 0 0 .281-.297c0-.172-.11-.485-.5-.485-.203 0-.64.063-1.062.47a1.652 1.652 0 0 0 -1.047-.36c-.938 0-1.625.687-1.625 1.453 0 .437.219.812.469 1.031-.125.14-.313.469-.313.828 0 .313.14.688.453.89-.61.157-.922.595-.922.985 0 .719.985 1.266 2.203 1.266 1.172 0 2.204-.5 2.204-1.281 0-.344-.125-.86-.641-1.141-.531-.266-1.11-.266-1.719-.266-.25 0-.672 0-.75-.015-.312-.047-.516-.344-.516-.672zm1.437 3.158c-1.016-.001-1.703-.517-1.703-1.048 0-.453.375-.828.812-.844h.594c.86 0 1.969 0 1.969.844 0 .547-.703 1.047-1.672 1.047zm0 0"/></symbol><symbol id="k" overflow="visible"><path d="m4.14-3.313c.094-.234.266-.671.923-.671v-.313c-.235.016-.516.031-.75.031-.235 0-.688-.015-.86-.03v.312c.36 0 .469.234.469.421 0 .094-.016.141-.047.25l-1.031 2.533-1.11-2.781c-.062-.126-.062-.141-.062-.172 0-.25.39-.25.578-.25v-.313c-.313.016-.86.031-1.094.031-.265 0-.672-.015-.968-.03v.312c.625 0 .671.062.796.359l1.438 3.546c.062.14.078.187.203.187.14 0 .172-.093.219-.187zm0 0"/></symbol><symbol id="l" overflow="visible"><path d="m1.094-3.422v2.672c0 .438-.11.438-.782.438v.312c.36-.016.86-.031 1.141-.031.25 0 .766.015 1.11.031v-.313c-.672 0-.782 0-.782-.437v-1.844c0-1.031.719-1.594 1.344-1.594.64 0 .75.532.75 1.11v2.328c0 .438-.11.438-.781.438v.312c.344-.016.86-.031 1.125-.031.25 0 .781.015 1.11.031v-.313c-.516 0-.766 0-.766-.296v-1.907c0-.859 0-1.156-.313-1.515-.14-.172-.469-.375-1.047-.375-.734 0-1.203.422-1.484 1.047v-1.047l-1.407.11v.312c.704 0 .782.062.782.562zm0 0"/></symbol><symbol id="m" overflow="visible"><path d="m1.75-4.297v-1.156c0-.875.469-1.36.906-1.36.031 0 .188 0 .328.079a.443.443 0 0 0 -.296.421c0 .22.156.422.437.422s.438-.203.438-.437c0-.375-.376-.703-.907-.703-.687 0-1.547.531-1.547 1.593v1.141h-.779v.313h.78v3.234c0 .438-.109.438-.765.438v.312c.39-.016.86-.031 1.125-.031.406 0 .875 0 1.265.031v-.313h-.203c-.734 0-.75-.109-.75-.468v-3.203h1.125v-.313zm0 0"/></symbol><symbol id="n" overflow="visible"><path d="m3.781-.547v.657l1.469-.11v-.313c-.688 0-.781-.062-.781-.562v-6.047l-1.422.11v.312c.687 0 .765.063.765.563v2.156a1.582 1.582 0 0 0 -1.25-.625c-1.171 0-2.218.984-2.218 2.265 0 1.266.969 2.25 2.11 2.25.64 0 1.077-.343 1.327-.656zm0-2.672v2.047c0 .172 0 .188-.11.36-.296.484-.733.703-1.171.703-.453 0-.813-.266-1.047-.641-.25-.406-.281-.969-.281-1.39 0-.36.016-.954.297-1.407.218-.312.593-.64 1.14-.64.344 0 .766.156 1.063.593.11.172.11.188.11.375zm0 0"/></symbol><symbol id="o" overflow="visible"><path d="m4.688-2.14c0-1.266-.985-2.329-2.188-2.329-1.25 0-2.219 1.094-2.219 2.329a2.22 2.22 0 0 0 2.203 2.25c1.204 0 2.204-.984 2.204-2.25zm-2.188 2c-.438 0-.875-.204-1.14-.672-.25-.438-.25-1.047-.25-1.407 0-.39 0-.922.234-1.36a1.347 1.347 0 0 1 1.14-.671c.438 0 .86.219 1.125.656.266.422.266 1 .266 1.375 0 .36 0 .906-.219 1.344-.234.453-.672.734-1.156.734zm0 0"/></symbol><symbol id="p" overflow="visible"><path d="m1.766-6.922-1.438.11v.312c.703 0 .781.063.781.563v5.187c0 .438-.109.438-.78.438v.312c.327-.016.859-.031 1.109-.031s.734.015 1.109.031v-.313c-.672 0-.781 0-.781-.437zm0 0"/></symbol><symbol id="q" overflow="visible"><path d="m3.89-.781v.89l1.439-.109v-.313c-.687 0-.766-.062-.766-.562v-3.531l-1.468.11v.312c.687 0 .781.062.781.562v1.766c0 .875-.484 1.547-1.219 1.547-.828 0-.875-.47-.875-.985v-3.312l-1.468.11v.312c.78 0 .78.03.78.906v1.5c0 .781 0 1.687 1.516 1.687.563 0 1-.28 1.282-.89zm0 0"/></symbol><symbol id="r" overflow="visible"><path d="m1.094-3.422v2.672c0 .438-.11.438-.782.438v.312c.36-.016.86-.031 1.141-.031.25 0 .766.015 1.11.031v-.313c-.672 0-.782 0-.782-.437v-1.844c0-1.031.719-1.594 1.344-1.594.64 0 .75.532.75 1.11v2.328c0 .438-.11.438-.781.438v.312c.344-.016.86-.031 1.125-.031.25 0 .781.015 1.11.031v-.313c-.657 0-.766 0-.766-.437v-1.844c0-1.031.703-1.594 1.343-1.594.625 0 .735.532.735 1.11v2.328c0 .438-.11.438-.782.438v.312c.344-.016.86-.031 1.125-.031.266 0 .782.015 1.125.031v-.313c-.515 0-.765 0-.78-.296v-1.907c0-.859 0-1.156-.313-1.515-.141-.172-.47-.375-1.047-.375-.828 0-1.282.593-1.438.984-.14-.875-.875-.984-1.328-.984-.734 0-1.203.422-1.484 1.047v-1.047l-1.407.11v.312c.704 0 .782.062.782.562zm0 0"/></symbol><symbol id="s" overflow="visible"><path d="m1.063-.75c0 .438-.11.438-.782.438v.312a26.45 26.45 0 0 1 1.078-.031c.313 0 .704.015 1.11.031v-.313c-.672 0-.781 0-.781-.437v-1.031l.64-.547c.766 1.047 1.188 1.61 1.188 1.797s-.172.219-.36.219v.312c.266-.016.86-.031 1.078-.031.282 0 .579.015.86.031v-.313c-.375 0-.594 0-.969-.53l-1.266-1.783c-.015-.016-.062-.078-.062-.11 0-.03.719-.64.812-.718.625-.5 1.047-.531 1.25-.531v-.313c-.28.031-.406.031-.687.031-.36 0-.984-.015-1.125-.03v.312c.187 0 .297.109.297.25 0 .203-.14.312-.219.39l-1.406 1.205v-4.78l-1.439.107v.312c.703 0 .781.063.781.563zm0 0"/></symbol><symbol id="t" overflow="visible"><path d="m1.719-3.766v-3.156l-1.438.11v.312c.703 0 .781.063.781.563v5.937h.25c0-.016.079-.156.36-.625.14.234.562.734 1.297.734 1.187 0 2.219-.984 2.219-2.265 0-1.266-.97-2.25-2.11-2.25-.781 0-1.203.468-1.36.64zm.031 2.626v-2.046c0-.188 0-.204.11-.36.39-.562.937-.64 1.171-.64.453 0 .813.265 1.047.64.266.406.281.969.281 1.39 0 .36-.015.954-.296 1.407-.22.313-.594.64-1.125.64-.454 0-.813-.234-1.047-.609-.141-.203-.141-.234-.141-.422zm0 0"/></symbol><symbol id="u" overflow="visible"><path d="m2.078-1.938c.219.047 1.031.204 1.031.922 0 .5-.343.907-1.125.907-.843 0-1.203-.563-1.39-1.422-.031-.125-.031-.157-.14-.157-.126 0-.126.063-.126.235v1.328c0 .172 0 .234.11.234.045.001.062-.015.25-.203.015-.015.015-.031.202-.218.437.406.89.421 1.093.421 1.141 0 1.61-.671 1.61-1.39 0-.516-.297-.828-.422-.938-.328-.328-.719-.406-1.14-.484-.563-.11-1.22-.235-1.22-.813 0-.359.25-.765 1.11-.765 1.094 0 1.156.906 1.172 1.203 0 .094.094.094.11.094.14 0 .14-.047.14-.235v-1.015c0-.157 0-.235-.11-.235-.046 0-.078 0-.203.125a1.676 1.676 0 0 1 -.172.157c-.375-.282-.78-.282-.937-.282-1.219 0-1.594.672-1.594 1.235 0 .343.156.625.422.843.328.25.61.313 1.328.454zm0 0"/></symbol><path d="m87.876 2.936c0 46.867-38.075 84.938-84.942 84.938a.097.097 0 0 1 -.097-.098v-84.84c0-.059.042-.102.097-.102h84.84a.1.1 0 0 1 .102.102c0-.059 0-.059 0 0zm0 0" fill="#ffe5cc" stroke="#000" stroke-miterlimit="10" stroke-width=".79701" transform="matrix(1 0 0 -1 143.058 111.979)"/><path d="m87.876 2.936c0 30.277-16.211 58.355-42.434 73.496a.1.1 0 0 1 -.137-.035l-42.422-73.477c-.027-.046-.003-.086.051-.086h84.84a.1.1 0 0 1 .102.102zm0 0" fill="#fc9" stroke="#000" stroke-miterlimit="10" stroke-width=".79701" transform="matrix(1 0 0 -1 143.058 111.979)"/><use x="174.134" xlink:href="#a" y="90.016"/><g><use x="180.779" xlink:href="#b" y="90.016"/><use x="185.206" xlink:href="#c" y="90.016"/><use x="189.109" xlink:href="#d" y="90.016"/><use x="194.09" xlink:href="#e" y="90.016"/><use x="198.517" xlink:href="#f" y="90.016"/><use x="201.285" xlink:href="#g" y="90.016"/></g><use x="204.881" xlink:href="#h" y="90.016"/><path d="m96.38 8.502c0 45.997-41.88 87.88-87.168 87.88" fill="none" stroke="#000" stroke-miterlimit="10" stroke-width=".79701" transform="matrix(1 0 0 -1 143.058 111.979)"/><path d="m-1.555 2.073c.13-.778 1.555-1.943 1.942-2.075-.387-.128-1.813-1.293-1.942-2.07" style="fill:none;stroke-width:.6376;stroke-linecap:round;stroke-linejoin:round;stroke:#000;stroke-miterlimit:10" transform="matrix(-1 0 0 1 152.27 15.6)"/><g><use x="242.861" xlink:href="#i" y="96.15"/><use x="248.396" xlink:href="#f" y="96.15"/><use x="251.164" xlink:href="#j" y="96.15"/><use x="256.145" xlink:href="#i" y="96.15"/></g><use x="264.998" xlink:href="#k" y="96.15"/><g><use x="269.708" xlink:href="#d" y="96.15"/><use x="274.69" xlink:href="#c" y="96.15"/><use x="278.592" xlink:href="#f" y="96.15"/><use x="281.359" xlink:href="#d" y="96.15"/><use x="286.341" xlink:href="#l" y="96.15"/><use x="291.876" xlink:href="#e" y="96.15"/><use x="296.303" xlink:href="#b" y="96.15"/></g><g><use x="156.949" xlink:href="#c" y="12.176"/><use x="160.851" xlink:href="#b" y="12.176"/><use x="165.279" xlink:href="#m" y="12.176"/><use x="168.323" xlink:href="#b" y="12.176"/><use x="172.751" xlink:href="#c" y="12.176"/><use x="176.653" xlink:href="#b" y="12.176"/><use x="181.08" xlink:href="#l" y="12.176"/><use x="186.616" xlink:href="#e" y="12.176"/><use x="191.043" xlink:href="#b" y="12.176"/></g><g><use x="198.788" xlink:href="#n" y="12.176"/><use x="204.323" xlink:href="#d" y="12.176"/><use x="209.304" xlink:href="#g" y="12.176"/><use x="213.179" xlink:href="#d" y="12.176"/></g><path d="m-2.933 87.874c-46.867 0-84.941-38.07-84.941-84.938 0-.059.043-.102.097-.102h84.844c.055 0 .098.043.098.102v85.04a.1.1 0 0 0 -.098-.102zm0 0" fill="#ccf" stroke="#000" stroke-miterlimit="10" stroke-width=".79701" transform="matrix(1 0 0 -1 143.058 111.979)"/><path d="m-2.933 87.874a84.31 84.31 0 0 1 -14.57-1.274.098.098 0 0 1 -.082-.113l14.734-83.555c.008-.055.016-.055.016.004v84.84a.097.097 0 0 1 -.098.098zm0 0" fill="#99f" stroke="#000" stroke-miterlimit="10" stroke-width=".79701" transform="matrix(1 0 0 -1 143.058 111.979)"/><use x="79.707" xlink:href="#a" y="87.092"/><g><use x="86.352" xlink:href="#o" y="87.092"/><use x="91.333" xlink:href="#p" y="87.092"/><use x="94.101" xlink:href="#q" y="87.092"/><use x="99.636" xlink:href="#r" y="87.092"/><use x="107.938" xlink:href="#b" y="87.092"/></g><path d="m-8.503 96.381c-45.997 0-87.875-41.881-87.875-87.171" fill="none" stroke="#000" stroke-miterlimit="10" stroke-width=".79701" transform="matrix(1 0 0 -1 143.058 111.979)"/><path d="m-1.553 2.072c.13-.778 1.555-1.942 1.943-2.07-.388-.134-1.814-1.298-1.943-2.076" style="fill:none;stroke-width:.6376;stroke-linecap:round;stroke-linejoin:round;stroke:#000;stroke-miterlimit:10" transform="matrix(0 1 1 0 46.678 102.768)"/><g><use x="90.644" xlink:href="#s" y="10.239"/><use x="95.902" xlink:href="#f" y="10.239"/><use x="98.67" xlink:href="#p" y="10.239"/><use x="101.437" xlink:href="#o" y="10.239"/><use x="106.419" xlink:href="#t" y="10.239"/></g><g><use x="111.675" xlink:href="#h" y="10.239"/><use x="116.933" xlink:href="#g" y="10.239"/><use x="120.808" xlink:href="#b" y="10.239"/><use x="125.235" xlink:href="#u" y="10.239"/></g><g><use x="3.321" xlink:href="#g" y="96.15"/><use x="7.195" xlink:href="#b" y="96.15"/><use x="11.623" xlink:href="#c" y="96.15"/><use x="15.525" xlink:href="#d" y="96.15"/><use x="20.506" xlink:href="#t" y="96.15"/></g><g><use x="25.763" xlink:href="#h" y="96.15"/><use x="31.021" xlink:href="#g" y="96.15"/><use x="34.895" xlink:href="#b" y="96.15"/><use x="39.323" xlink:href="#u" y="96.15"/></g><path d="m-87.874-2.935c0-46.867 38.074-84.941 84.941-84.941a.1.1 0 0 1 .098.101v84.84a.1.1 0 0 1 -.098.102h-84.844a.097.097 0 0 0 -.097.097v-.2zm0 0" fill="#cfc" stroke="#000" stroke-miterlimit="10" stroke-width=".79701" transform="matrix(1 0 0 -1 143.058 111.979)"/><path d="m-87.874-2.935c0-4.848.43-9.793 1.273-14.566.008-.055.063-.094.113-.082l83.555 14.73c.055.012.055.02 0 .02h-84.844a.1.1 0 0 1 -.097-.102zm0 0" fill="#9f9" stroke="#000" stroke-miterlimit="10" stroke-width=".79701" transform="matrix(1 0 0 -1 143.058 111.979)"/><use x="89.852" xlink:href="#a" y="156.391"/><g><use x="96.497" xlink:href="#b" y="156.391"/><use x="100.924" xlink:href="#p" y="156.391"/><use x="103.692" xlink:href="#o" y="156.391"/></g><use x="108.942" xlink:href="#e" y="156.391"/><g><use x="113.38" xlink:href="#f" y="156.391"/><use x="116.147" xlink:href="#g" y="156.391"/></g><use x="119.743" xlink:href="#h" y="156.391"/><path d="m-96.378-8.505c0-45.993 41.879-87.875 87.168-87.875" fill="none" stroke="#000" stroke-miterlimit="10" stroke-width=".79701" transform="matrix(1 0 0 -1 143.058 111.979)"/><path d="m-1.554 2.074c.13-.778 1.555-1.946 1.942-2.075-.388-.129-1.813-1.293-1.942-2.069" style="fill:none;stroke-width:.6376;stroke-linecap:round;stroke-linejoin:round;stroke:#000;stroke-miterlimit:10" transform="matrix(1 0 0 -1 133.847 208.359)"/><g><use x="19.399" xlink:href="#u" y="132.525"/><use x="23.328" xlink:href="#g" y="132.525"/><use x="27.203" xlink:href="#d" y="132.525"/><use x="32.184" xlink:href="#g" y="132.525"/><use x="36.058" xlink:href="#f" y="132.525"/><use x="38.826" xlink:href="#e" y="132.525"/></g><g><use x="92.359" xlink:href="#n" y="218.701"/><use x="97.894" xlink:href="#h" y="218.701"/><use x="103.152" xlink:href="#l" y="218.701"/><use x="108.688" xlink:href="#d" y="218.701"/><use x="113.669" xlink:href="#r" y="218.701"/><use x="121.971" xlink:href="#f" y="218.701"/><use x="124.738" xlink:href="#e" y="218.701"/></g><path d="m2.934-87.876c46.867 0 84.942 38.074 84.942 84.94a.103.103 0 0 1 -.102.103h-84.84a.1.1 0 0 1 -.097-.102v-84.84c0-.055 0-.055 0 0a.1.1 0 0 1 .097-.101zm0 0" fill="#fffccc" stroke="#000" stroke-miterlimit="10" stroke-width=".79701" transform="matrix(1 0 0 -1 143.058 111.979)"/><path d="m2.934-87.876a84.864 84.864 0 0 1 28.895 5.093c.05.02.078.078.058.13l-29.02 79.725c-.019.05-.03.047-.03-.008v-84.84a.1.1 0 0 1 .097-.101zm0 0" fill="#fffa99" stroke="#000" stroke-miterlimit="10" stroke-width=".79701" transform="matrix(1 0 0 -1 143.058 111.979)"/><use x="174.292" xlink:href="#a" y="142.761"/><g><use x="180.937" xlink:href="#d" y="142.761"/><use x="185.918" xlink:href="#c" y="142.761"/><use x="189.821" xlink:href="#f" y="142.761"/><use x="192.588" xlink:href="#b" y="142.761"/><use x="197.016" xlink:href="#g" y="142.761"/></g><use x="200.611" xlink:href="#h" y="142.761"/><path d="m8.505-96.38c45.996 0 87.874 41.882 87.874 87.168" fill="none" stroke="#000" stroke-miterlimit="10" stroke-width=".79701" transform="matrix(1 0 0 -1 143.058 111.979)"/><path d="m-1.556 2.07c.133-.776 1.556-1.94 1.946-2.07-.391-.129-1.813-1.297-1.946-2.074" style="fill:none;stroke-width:.6376;stroke-linecap:round;stroke-linejoin:round;stroke:#000;stroke-miterlimit:10" transform="matrix(0 -1 -1 0 239.438 121.19)"/><g><use x="156.949" xlink:href="#e" y="218.701"/><use x="161.376" xlink:href="#p" y="218.701"/><use x="164.144" xlink:href="#q" y="218.701"/><use x="169.679" xlink:href="#u" y="218.701"/><use x="173.608" xlink:href="#g" y="218.701"/><use x="177.483" xlink:href="#b" y="218.701"/><use x="181.91" xlink:href="#c" y="218.701"/><use x="185.813" xlink:href="#b" y="218.701"/><use x="190.24" xlink:href="#n" y="218.701"/></g><g><use x="242.861" xlink:href="#i" y="132.79"/><use x="248.396" xlink:href="#b" y="132.79"/><use x="252.824" xlink:href="#g" y="132.79"/><use x="256.698" xlink:href="#b" y="132.79"/><use x="261.125" xlink:href="#c" y="132.79"/><use x="265.028" xlink:href="#o" y="132.79"/><use x="270.009" xlink:href="#j" y="132.79"/><use x="274.99" xlink:href="#b" y="132.79"/><use x="279.418" xlink:href="#l" y="132.79"/><use x="284.953" xlink:href="#b" y="132.79"/><use x="289.38" xlink:href="#o" y="132.79"/><use x="294.362" xlink:href="#q" y="132.79"/><use x="299.897" xlink:href="#u" y="132.79"/></g></svg>