<svg xmlns="http://www.w3.org/2000/svg" xmlns:xlink="http://www.w3.org/1999/xlink" width="434.375" height="293.601" viewBox="0 0 325.781 220.201"><defs><symbol overflow="visible" id="a"><path style="stroke:none" d="M.453 1.219c-.078.343-.11.406-.547.406-.11 0-.218 0-.218.188 0 .078.046.125.124.125.266 0 .563-.032.829-.032.343 0 .671.032 1 .032.046 0 .171 0 .171-.204 0-.109-.093-.109-.234-.109-.5 0-.5-.063-.5-.156 0-.125.422-1.75.484-2 .125.297.407.64.922.64 1.157 0 2.407-1.453 2.407-2.921 0-.938-.579-1.594-1.329-1.594-.5 0-.984.36-1.312.75-.094-.547-.531-.75-.89-.75-.47 0-.657.39-.735.562-.188.344-.313.938-.313.969 0 .11.094.11.11.11.11 0 .11-.016.172-.235.172-.703.375-1.188.734-1.188.172 0 .313.079.313.454 0 .234-.032.343-.079.515Zm1.75-4.328c.063-.266.344-.547.516-.704.36-.296.64-.374.812-.374.39 0 .64.343.64.937 0 .594-.327 1.734-.515 2.11-.344.702-.812 1.03-1.187 1.03-.656 0-.781-.828-.781-.89 0-.016 0-.031.03-.156Zm0 0"/></symbol><symbol overflow="visible" id="b"><path style="stroke:none" d="M6.266-5.672c.484-.781.906-.812 1.265-.828.125-.016.14-.172.14-.188 0-.078-.062-.125-.14-.125-.25 0-.547.032-.812.032-.328 0-.672-.032-.985-.032-.062 0-.187 0-.187.188 0 .11.078.125.156.125.266.016.453.125.453.328 0 .156-.14.375-.14.375L2.953-.922l-.687-5.281c0-.172.234-.297.687-.297.14 0 .25 0 .25-.203 0-.078-.078-.11-.125-.11-.406 0-.828.032-1.25.032h-.547c-.172 0-.36-.032-.531-.032-.078 0-.188 0-.188.188 0 .125.079.125.25.125.547 0 .563.094.594.344l.782 6.14c.03.204.078.235.203.235.156 0 .203-.047.28-.172Zm0 0"/></symbol><symbol overflow="visible" id="m"><path style="stroke:none" d="M4.36-.063c1.546-.578 3.015-2.359 3.015-4.28 0-1.61-1.063-2.688-2.547-2.688-2.14 0-4.344 2.265-4.344 4.593C.484-.78 1.61.22 3.047.22c.25 0 .578-.047.969-.157-.032.625-.032.641-.032.782 0 .312 0 1.094.829 1.094C5.984 1.938 6.468.109 6.468 0c0-.063-.063-.094-.11-.094-.078 0-.093.047-.125.11C6 .719 5.422.969 5.078.969c-.469 0-.61-.266-.719-1.031ZM2.483-.14C1.704-.453 1.36-1.219 1.36-2.125c0-.688.266-2.11 1.016-3.172.734-1.016 1.672-1.484 2.406-1.484.985 0 1.719.781 1.719 2.11 0 1-.516 3.343-2.188 4.265-.046-.344-.14-1.063-.875-1.063-.53 0-1.015.485-1.015 1.016 0 .187.062.297.062.312Zm.61.11c-.14 0-.453 0-.453-.422 0-.406.375-.797.796-.797.422 0 .61.234.61.844 0 .14-.016.156-.11.203-.265.11-.562.172-.843.172Zm0 0"/></symbol><symbol overflow="visible" id="c"><path style="stroke:none" d="M5.734-2.11c0-.609-.312-.968-1.046-.968-.563 0-.938.297-1.125.656-.141-.5-.516-.656-1.016-.656-.578 0-.938.312-1.14.687v-.687L.374-3v.25c.469 0 .531.047.531.39v1.813c0 .297-.078.297-.531.297V0c.016 0 .5-.031.797-.031.25 0 .734.031.797.031v-.25c-.453 0-.516 0-.516-.297v-1.265c0-.72.578-1.063 1.031-1.063.485 0 .547.375.547.734v1.594c0 .297-.062.297-.515.297V0c.015 0 .5-.031.796-.031.25 0 .735.031.797.031v-.25c-.453 0-.515 0-.515-.297v-1.265c0-.72.578-1.063 1.031-1.063.484 0 .547.375.547.734v1.594c0 .297-.063.297-.516.297V0c.016 0 .5-.031.797-.031.25 0 .734.031.797.031v-.25c-.453 0-.516 0-.516-.297Zm0 0"/></symbol><symbol overflow="visible" id="d"><path style="stroke:none" d="M3.11-1.875c0-.36 0-.625-.329-.89C2.5-3 2.171-3.11 1.75-3.11c-.656 0-1.125.25-1.125.671 0 .235.156.344.344.344a.32.32 0 0 0 .328-.328.319.319 0 0 0-.25-.312c.25-.172.656-.172.687-.172.391 0 .829.25.829.844v.203c-.391.015-.844.046-1.36.234-.625.219-.812.61-.812.922 0 .594.718.765 1.218.765.547 0 .875-.312 1.032-.578.015.282.203.547.53.547.017 0 .688 0 .688-.656v-.39h-.234v.374c0 .079 0 .407-.266.407-.25 0-.25-.329-.25-.407Zm-.547.89c0 .672-.594.86-.907.86-.36 0-.687-.234-.687-.578 0-.39.328-.922 1.594-.969Zm0 0"/></symbol><symbol overflow="visible" id="e"><path style="stroke:none" d="m2.36-1.563-.047-.062c0-.031.453-.516.515-.578.25-.281.485-.547 1.047-.547V-3a7.76 7.76 0 0 1-.594.031c-.203 0-.484-.015-.687-.031v.25c.11.016.14.094.14.156 0 .016 0 .125-.109.235l-.484.546-.579-.656c-.078-.078-.078-.11-.078-.14 0-.094.094-.141.188-.141V-3c-.25.016-.516.031-.781.031-.204 0-.47-.015-.672-.031v.25c.312 0 .5 0 .687.203l.86 1c.015.016.062.063.062.078 0 .016-.531.594-.594.672-.265.281-.5.531-1.046.547V0C.39-.016.546-.031.765-.031c.203 0 .484.015.687.031v-.25c-.078-.016-.14-.063-.14-.156 0-.14.078-.235.187-.344l.5-.547.594.703c.14.14.14.156.14.203 0 .125-.156.141-.187.141V0c.062 0 .562-.031.781-.031.219 0 .453.015.672.031v-.25c-.469 0-.516-.047-.688-.219Zm0 0"/></symbol><symbol overflow="visible" id="f"><path style="stroke:none" d="M1.469-4.297a.413.413 0 0 0-.407-.406.4.4 0 0 0-.39.406.4.4 0 0 0 .39.406.394.394 0 0 0 .407-.406ZM.406-3v.25c.438 0 .5.047.5.39v1.813c0 .297-.062.297-.515.297V0c.015 0 .5-.031.78-.031.25 0 .5.015.735.031v-.25c-.406 0-.468 0-.468-.297v-2.531Zm0 0"/></symbol><symbol overflow="visible" id="g"><path style="stroke:none" d="M3.594-2.11c0-.609-.297-.968-1.047-.968-.578 0-.938.312-1.14.687v-.687L.374-3v.25c.469 0 .531.047.531.39v1.813c0 .297-.078.297-.531.297V0c.016 0 .5-.031.797-.031.25 0 .734.031.797.031v-.25c-.453 0-.516 0-.516-.297v-1.265c0-.72.578-1.063 1.031-1.063.485 0 .547.375.547.734v1.594c0 .297-.062.297-.515.297V0c.015 0 .5-.031.796-.031.25 0 .735.031.797.031v-.25c-.453 0-.515 0-.515-.297Zm0 0"/></symbol><symbol overflow="visible" id="q"><path style="stroke:none" d="M3.688-1.484c0-.875-.75-1.625-1.704-1.625-.968 0-1.718.75-1.718 1.625 0 .859.765 1.546 1.718 1.546.938 0 1.704-.687 1.704-1.546ZM1.984-.156c-.265 0-.64-.078-.875-.422-.187-.281-.203-.64-.203-.969 0-.297 0-.719.25-1.016.172-.203.469-.343.828-.343.407 0 .704.187.86.406.187.266.203.625.203.953 0 .328-.016.703-.219.984-.187.266-.5.407-.844.407Zm0 0"/></symbol><symbol overflow="visible" id="r"><path style="stroke:none" d="M2.516-3v.25c.468 0 .515.047.515.39v1.204c0 .61-.39 1.031-.922 1.031-.625 0-.656-.297-.656-.656v-2.297L.375-3v.25c.531 0 .531.031.531.64v1.047c0 .485 0 1.125 1.156 1.125.157 0 .657 0 1-.578v.579L4.11 0v-.25c-.468 0-.515-.047-.515-.39v-2.438Zm0 0"/></symbol><symbol overflow="visible" id="s"><path style="stroke:none" d="M1.406-2.75h1.078V-3H1.406v-1.281h-.25c0 .625-.281 1.312-.953 1.328v.203h.64v1.875c0 .781.595.938.985.938.469 0 .781-.391.781-.938v-.39h-.234v.374c0 .485-.219.735-.5.735-.469 0-.469-.578-.469-.703Zm0 0"/></symbol><symbol overflow="visible" id="h"><path style="stroke:none" d="M2.938-6.375c0-.25 0-.266-.235-.266C2.078-6 1.203-6 .891-6v.313c.203 0 .78 0 1.296-.266v5.172c0 .36-.03.469-.921.469H.953V0c.344-.031 1.203-.031 1.61-.031.39 0 1.265 0 1.609.031v-.313h-.313c-.906 0-.921-.109-.921-.468Zm0 0"/></symbol><symbol overflow="visible" id="i"><path style="stroke:none" d="m1.266-.766 1.062-1.03c1.547-1.376 2.14-1.907 2.14-2.907 0-1.14-.89-1.938-2.109-1.938A1.843 1.843 0 0 0 .5-4.828c0 .547.5.547.531.547.172 0 .516-.11.516-.532a.513.513 0 0 0-.531-.515c-.079 0-.094 0-.125.016.218-.657.765-1.016 1.343-1.016.907 0 1.329.812 1.329 1.625 0 .797-.485 1.578-1.047 2.203L.609-.375C.5-.265.5-.235.5 0h3.703l.266-1.734h-.235C4.172-1.438 4.11-1 4-.844c-.063.078-.719.078-.938.078Zm0 0"/></symbol><symbol overflow="visible" id="j"><path style="stroke:none" d="M2.89-3.516c.813-.265 1.391-.953 1.391-1.75 0-.812-.875-1.375-1.828-1.375-1 0-1.765.594-1.765 1.36 0 .328.218.515.515.515.297 0 .5-.218.5-.515 0-.485-.469-.485-.61-.485.298-.5.954-.625 1.313-.625.422 0 .969.22.969 1.11 0 .125-.031.703-.281 1.14-.297.485-.64.516-.89.516a3.29 3.29 0 0 1-.392.031c-.078.016-.14.031-.14.125 0 .11.062.11.234.11h.438c.812 0 1.187.671 1.187 1.656 0 1.36-.687 1.64-1.125 1.64-.437 0-1.187-.171-1.531-.75.344.047.656-.171.656-.546a.537.537 0 0 0-.547-.563c-.25 0-.562.14-.562.578C.422-.437 1.344.22 2.437.22c1.22 0 2.126-.906 2.126-1.922 0-.813-.641-1.594-1.672-1.813Zm0 0"/></symbol><symbol overflow="visible" id="k"><path style="stroke:none" d="M2.938-1.64v.859c0 .36-.032.469-.766.469h-.203V0c.406-.031.922-.031 1.343-.031.422 0 .938 0 1.36.031v-.313h-.219c-.734 0-.75-.109-.75-.468v-.86h.985v-.312h-.985v-4.531c0-.204 0-.266-.172-.266-.078 0-.11 0-.187.125L.28-1.953v.312Zm.046-.313H.563l2.421-3.719Zm0 0"/></symbol><symbol overflow="visible" id="l"><path style="stroke:none" d="M4.406-6.953c-.062-.14-.093-.188-.265-.188-.157 0-.188.047-.25.188L.516-.203c-.047.094-.047.11-.047.125C.469 0 .53 0 .688 0h6.921c.157 0 .22 0 .22-.078 0-.016 0-.031-.048-.125Zm-.578.812L6.516-.75H1.14Zm0 0"/></symbol><symbol overflow="visible" id="n"><path style="stroke:none" d="M6.844-3.266c.156 0 .343 0 .343-.187 0-.203-.187-.203-.328-.203H.891c-.141 0-.329 0-.329.203 0 .187.188.187.329.187Zm.015 1.938c.141 0 .329 0 .329-.203 0-.188-.188-.188-.344-.188H.89c-.141 0-.329 0-.329.188 0 .203.188.203.329.203Zm0 0"/></symbol><symbol overflow="visible" id="o"><path style="stroke:none" d="M4.578-3.188c0-.796-.047-1.593-.39-2.328C3.733-6.484 2.905-6.64 2.5-6.64c-.61 0-1.328.266-1.75 1.188-.313.687-.36 1.469-.36 2.266 0 .75.032 1.64.454 2.406a1.83 1.83 0 0 0 1.64 1c.532 0 1.297-.203 1.735-1.157.312-.687.36-1.468.36-2.25ZM2.484 0c-.39 0-.984-.25-1.156-1.203-.11-.594-.11-1.516-.11-2.11 0-.64 0-1.296.079-1.828.187-1.187.937-1.28 1.187-1.28.329 0 .985.187 1.172 1.171.11.563.11 1.313.11 1.938 0 .75 0 1.421-.11 2.062C3.5-.297 2.937 0 2.484 0Zm0 0"/></symbol><symbol overflow="visible" id="p"><path style="stroke:none" d="M7.234-3.266c.422.36.938.625 1.266.766-.36.172-.86.422-1.266.781H.906c-.172 0-.36 0-.36.188 0 .203.188.203.345.203h5.89C6.313-.875 5.797.016 5.797.14c0 .109.125.109.187.109.079 0 .141 0 .188-.078.203-.375.484-.906 1.14-1.484a4.733 4.733 0 0 1 1.875-1.032c.157-.062.172-.062.188-.094.031 0 .031-.03.031-.062 0-.016 0-.031-.015-.047l-.032-.031c-.015 0-.03-.016-.218-.078a4.761 4.761 0 0 1-2.907-2.375c-.109-.188-.109-.203-.25-.203-.062 0-.187 0-.187.109 0 .125.5 1 .984 1.469H.891c-.157 0-.344 0-.344.203 0 .187.187.187.36.187Zm0 0"/></symbol></defs><path style="fill:none;stroke-width:.79701;stroke-linecap:butt;stroke-linejoin:miter;stroke:#000;stroke-opacity:1;stroke-miterlimit:10" d="M.002 0v197.718" transform="matrix(1 0 0 -1 27.252 204.859)"/><path style="fill:none;stroke-width:.6376;stroke-linecap:round;stroke-linejoin:round;stroke:#000;stroke-opacity:1;stroke-miterlimit:10" d="M-1.552 2.072C-1.423 1.295-.002.131.389-.002c-.39-.129-1.813-1.293-1.941-2.07" transform="matrix(0 -1 -1 0 27.252 7.139)"/><use xlink:href="#a" x="30.971" y="7.61" style="fill:#000;fill-opacity:1"/><path style="fill:none;stroke-width:.79701;stroke-linecap:butt;stroke-linejoin:miter;stroke:#000;stroke-opacity:1;stroke-miterlimit:10" d="M.002 0H282.76" transform="matrix(1 0 0 -1 27.252 204.859)"/><path style="fill:none;stroke-width:.6376;stroke-linecap:round;stroke-linejoin:round;stroke:#000;stroke-opacity:1;stroke-miterlimit:10" d="M-1.556 2.074C-1.423 1.297-.001.129.389 0 0-.13-1.423-1.293-1.556-2.07" transform="matrix(1 0 0 -1 310.013 204.859)"/><use xlink:href="#b" x="314.435" y="208.263" style="fill:#000;fill-opacity:1"/><path style="fill:none;stroke-width:.79701;stroke-linecap:butt;stroke-linejoin:miter;stroke:#000;stroke-opacity:1;stroke-dasharray:2.98883,2.98883;stroke-miterlimit:10" d="M.002 178.586h56.691V0" transform="matrix(1 0 0 -1 27.252 204.859)"/><use xlink:href="#a" x="3.321" y="27.454" style="fill:#000;fill-opacity:1"/><g style="fill:#000;fill-opacity:1"><use xlink:href="#c" x="8.333" y="28.948"/><use xlink:href="#d" x="14.878" y="28.948"/><use xlink:href="#e" x="18.849" y="28.948"/></g><use xlink:href="#b" x="74.189" y="215.386" style="fill:#000;fill-opacity:1"/><g style="fill:#000;fill-opacity:1"><use xlink:href="#c" x="80" y="216.88"/><use xlink:href="#f" x="86.545" y="216.88"/><use xlink:href="#g" x="88.8" y="216.88"/></g><path style="fill:none;stroke-width:.79701;stroke-linecap:butt;stroke-linejoin:miter;stroke:#000;stroke-opacity:1;stroke-dasharray:2.98883,2.98883;stroke-miterlimit:10" d="M.002 39.683h255.117V0" transform="matrix(1 0 0 -1 27.252 204.859)"/><use xlink:href="#a" x="4.822" y="166.351" style="fill:#000;fill-opacity:1"/><g style="fill:#000;fill-opacity:1"><use xlink:href="#c" x="9.834" y="167.845"/><use xlink:href="#f" x="16.379" y="167.845"/><use xlink:href="#g" x="18.634" y="167.845"/></g><use xlink:href="#b" x="271.863" y="215.386" style="fill:#000;fill-opacity:1"/><g style="fill:#000;fill-opacity:1"><use xlink:href="#c" x="277.674" y="216.88"/><use xlink:href="#d" x="284.219" y="216.88"/><use xlink:href="#e" x="288.19" y="216.88"/></g><use xlink:href="#h" x="81.453" y="22.559" style="fill:#000;fill-opacity:1"/><use xlink:href="#i" x="286.087" y="108.857" style="fill:#000;fill-opacity:1"/><use xlink:href="#j" x="286.087" y="168.385" style="fill:#000;fill-opacity:1"/><use xlink:href="#k" x="75.244" y="118.779" style="fill:#000;fill-opacity:1"/><path style="stroke:none;fill-rule:nonzero;fill:#000;fill-opacity:1" d="M86.934 26.273a2.988 2.988 0 1 0-5.977 0 2.99 2.99 0 1 0 5.977 0Zm198.426 79.372a2.988 2.988 0 1 0-5.977 0 2.988 2.988 0 0 0 5.976 0Zm0 59.531a2.99 2.99 0 1 0-2.989 2.988 2.988 2.988 0 0 0 2.988-2.988Zm-198.426-49.61a2.988 2.988 0 1 0-5.977 0 2.988 2.988 0 0 0 5.977 0Zm0 0"/><path style="fill:none;stroke-width:1.59404;stroke-linecap:butt;stroke-linejoin:miter;stroke:#00008b;stroke-opacity:1;stroke-miterlimit:10" d="M255.12 99.214v-59.53M56.692 89.292v89.293m.001.001c44.805-37.598 139.938-79.372 198.426-79.372" transform="matrix(1 0 0 -1 27.252 204.859)"/><path style="stroke:none;fill-rule:nonzero;fill:#00008b;fill-opacity:1" d="m177.703 79.926-4.437-5.114.941 3.668-3.258 1.93"/><use xlink:href="#l" x="160.803" y="74.006" style="fill:#00008b;fill-opacity:1"/><use xlink:href="#m" x="169.105" y="74.006" style="fill:#00008b;fill-opacity:1"/><use xlink:href="#n" x="179.749" y="74.006" style="fill:#00008b;fill-opacity:1"/><use xlink:href="#o" x="190.268" y="74.006" style="fill:#00008b;fill-opacity:1"/><use xlink:href="#p" x="286.486" y="137.846" style="fill:#00f;fill-opacity:1"/><use xlink:href="#m" x="299.216" y="137.846" style="fill:#00f;fill-opacity:1"/><g style="fill:#00f;fill-opacity:1"><use xlink:href="#q" x="307.092" y="139.34"/><use xlink:href="#r" x="311.064" y="139.34"/><use xlink:href="#s" x="315.464" y="139.34"/></g><path style="fill:none;stroke-width:1.59404;stroke-linecap:butt;stroke-linejoin:miter;stroke:#00008b;stroke-opacity:1;stroke-miterlimit:10" d="M255.12 39.683c-55.907 0-155.602 13.672-198.427 49.61" transform="matrix(1 0 0 -1 27.252 204.859)"/><path style="stroke:none;fill-rule:nonzero;fill:#00008b;fill-opacity:1" d="m179.336 154.074 5.305 4.207-1.602-3.43 2.844-2.496"/><use xlink:href="#l" x="161.03" y="147.793" style="fill:#00008b;fill-opacity:1"/><use xlink:href="#m" x="169.332" y="147.793" style="fill:#00008b;fill-opacity:1"/><use xlink:href="#n" x="179.975" y="147.793" style="fill:#00008b;fill-opacity:1"/><use xlink:href="#o" x="190.494" y="147.793" style="fill:#00008b;fill-opacity:1"/><use xlink:href="#m" x="52.067" y="73.359" style="fill:red;fill-opacity:1"/><g style="fill:red;fill-opacity:1"><use xlink:href="#f" x="59.943" y="74.853"/><use xlink:href="#g" x="62.198" y="74.853"/></g><use xlink:href="#p" x="69.864" y="73.359" style="fill:red;fill-opacity:1"/></svg>