<svg xmlns="http://www.w3.org/2000/svg" xmlns:xlink="http://www.w3.org/1999/xlink" width="265.788" height="227.987" viewBox="0 0 199.341 170.99"><defs><symbol overflow="visible" id="d"><path d="M5.719-6.984c-.094-.141-.094-.157-.235-.157-.687 0-1.906.282-2.421 1.125-.157-.28-.641-1.015-1.391-1.015-.688 0-1.125.625-1.125 1.203 0 .375.234.625.515.906.547.563.547.719.547 1.094 0 .594-.046 1.187-.484 1.187-.266 0-.313-.375-.328-.546 0-.079-.016-.157-.125-.157-.125 0-.125.11-.125.14 0 .188.094.782.578.782.813 0 .813-1.281.813-1.5 0-.312-.032-.687-.704-1.312-.28-.25-.39-.391-.39-.625 0-.422.297-.954.812-.954.516 0 .922.782.922 1.954v2.937c0 .094 0 1.922-.656 1.922-.36 0-.734-.313-.938-.938.016 0 .22-.062.22-.156 0-.062-.079-.11-.11-.11a1.01 1.01 0 0 0-.203.063C.875-1.203.828-1.312.75-1.312c-.047 0-.125.093-.125.14 0 .031.016.094.047.125-.063.016-.219.063-.219.156 0 .047.063.11.11.11A.88.88 0 0 0 .75-.844C1.063.016 1.578.22 1.922.22c.703 0 1.5-.906 1.5-2.938v-.719h1.14l.125 2.188c0 .063-.03.14-.03.328 0 .594.484 1.14 1.155 1.14.125 0 .157 0 .344-.14l.719-.562C6.985-.578 7-.594 7-.625c0-.078-.156-.14-.188-.14-.046 0-.406.28-.859.656A.946.946 0 0 1 5.5-.922c0-.187.031-.219.031-.328 0-.297-.047-.813-.062-1.125-.016-.203-.063-1-.063-1.14.563-.172 1.64-.813 1.657-.829a.106.106 0 0 0 .062-.093c0-.016-.063-.141-.078-.141zM6.28-4.25c-.922.5-1.125.5-1.422.5H3.422v-.484c0-.688-.094-1.079-.203-1.391.344-.953 1.64-1.14 1.64-1.14.032 0 .079.109.094.109zm0 0"/></symbol><symbol overflow="visible" id="e"><path d="M3.297 2.39c0-.03 0-.046-.172-.218C1.891.922 1.562-.968 1.562-2.5c0-1.734.375-3.469 1.61-4.703.125-.125.125-.14.125-.172 0-.078-.031-.11-.094-.11-.11 0-1 .688-1.594 1.954C1.11-4.438.984-3.328.984-2.5c0 .781.11 1.984.657 3.125C2.25 1.844 3.094 2.5 3.203 2.5c.063 0 .094-.031.094-.11zm0 0"/></symbol><symbol overflow="visible" id="h"><path d="M2.875-2.5c0-.766-.11-1.969-.656-3.11C1.625-6.827.766-7.483.672-7.483a.107.107 0 0 0-.11.109c0 .031 0 .047.188.234.984.985 1.547 2.563 1.547 4.641 0 1.719-.36 3.469-1.594 4.719-.14.125-.14.14-.14.172 0 .062.046.109.109.109.094 0 1-.688 1.578-1.953.516-1.094.625-2.203.625-3.047zm0 0"/></symbol><symbol overflow="visible" id="f"><path d="M.453 1.219c-.078.343-.11.406-.547.406-.11 0-.218 0-.218.188 0 .078.046.125.124.125.266 0 .563-.032.829-.032.343 0 .671.032 1 .032.046 0 .171 0 .171-.204 0-.109-.093-.109-.234-.109-.5 0-.5-.063-.5-.156 0-.125.422-1.75.484-2 .125.297.407.64.922.64 1.157 0 2.407-1.453 2.407-2.921 0-.938-.579-1.594-1.329-1.594-.5 0-.984.36-1.312.75-.094-.547-.531-.75-.89-.75-.47 0-.657.39-.735.562-.188.344-.313.938-.313.969 0 .11.094.11.11.11.11 0 .11-.016.172-.235.172-.703.375-1.188.734-1.188.172 0 .313.079.313.454 0 .234-.032.343-.079.515zm1.75-4.328c.063-.266.344-.547.516-.704.36-.296.64-.374.812-.374.39 0 .64.343.64.937 0 .594-.327 1.734-.515 2.11-.344.702-.812 1.03-1.187 1.03-.656 0-.781-.828-.781-.89 0-.016 0-.031.03-.156zm0 0"/></symbol><symbol overflow="visible" id="g"><path d="M3.594-2.219c0-.765-.094-1.328-.406-1.812-.22-.313-.657-.594-1.204-.594C.36-4.625.36-2.719.36-2.219c0 .5 0 2.36 1.625 2.36 1.61 0 1.61-1.86 1.61-2.36zM1.984-.063c-.328 0-.75-.187-.89-.75C1-1.219 1-1.796 1-2.313c0-.515 0-1.046.094-1.421.156-.547.593-.704.89-.704.375 0 .735.235.86.641.11.375.125.875.125 1.485 0 .515 0 1.03-.094 1.468-.14.64-.61.781-.89.781zm0 0"/></symbol><symbol overflow="visible" id="o"><path d="M3.516-1.266H3.28c-.015.157-.094.563-.187.625-.047.047-.578.047-.688.047H1.125c.734-.64.984-.844 1.39-1.172.516-.406 1-.843 1-1.5 0-.843-.734-1.359-1.624-1.359-.86 0-1.454.61-1.454 1.25 0 .344.297.39.376.39.156 0 .359-.124.359-.374 0-.125-.047-.375-.406-.375.218-.485.687-.641 1.015-.641.703 0 1.063.547 1.063 1.11 0 .609-.438 1.078-.656 1.328L.516-.266C.437-.203.437-.187.437 0h2.876zm0 0"/></symbol><symbol overflow="visible" id="i"><path d="M-.594-.875c.156.031.39.094.438.094.172 0 .265-.14.265-.297a.414.414 0 0 0-.28-.375c-.016 0-.485-.125-.735-.188l-.89-.218c-.235-.047-.454-.11-.673-.172a4.482 4.482 0 0 1-.5-.125c-.312-.14-1.219-.672-1.219-1.625 0-.453.375-.531.704-.531.609 0 1.89.484 2.312.64.234.094.36.11.469.11.469 0 .812-.36.812-.829 0-.937-1.453-1.296-1.53-1.296-.11 0-.11.078-.11.109 0 .11.031.11.187.156.672.203 1.235.531 1.235 1.016 0 .172-.094.234-.329.234-.25 0-.484-.078-.703-.172-.53-.187-1.625-.61-2.203-.61-.656 0-1.062.423-1.062 1.141 0 .907.64 1.391.875 1.563-.563.047-.875.453-.875.922 0 .453.39.64.562.734.344.172.938.297.969.297.11 0 .11-.094.11-.11 0-.109-.016-.109-.235-.171-.703-.172-1.188-.375-1.188-.735 0-.187.125-.296.454-.296.218 0 .328.03.843.156zm0 0"/></symbol><symbol overflow="visible" id="l"><path d="M1.219-.453c.343.078.406.11.406.547 0 .11 0 .218.188.218.078 0 .125-.046.125-.124 0-.266-.032-.563-.032-.829 0-.343.032-.671.032-1 0-.046 0-.171-.204-.171-.109 0-.109.093-.109.234 0 .5-.063.5-.156.5-.125 0-1.75-.422-2-.484.297-.125.64-.407.64-.922 0-1.157-1.453-2.407-2.921-2.407-.938 0-1.594.579-1.594 1.329 0 .5.36.984.75 1.312-.547.094-.75.531-.75.89 0 .47.39.657.562.735.344.188.938.313.969.313.11 0 .11-.094.11-.11 0-.11-.016-.11-.235-.172-.703-.172-1.188-.375-1.188-.734 0-.172.079-.313.454-.313.234 0 .343.032.515.079zm-4.328-1.75c-.266-.063-.547-.344-.704-.516-.296-.36-.374-.64-.374-.812 0-.39.343-.64.937-.64.594 0 1.734.327 2.11.515.702.344 1.03.812 1.03 1.187 0 .656-.828.781-.89.781-.016 0-.031 0-.156-.03zm0 0"/></symbol><symbol overflow="visible" id="j"><path d="M-4.766-.422h.25v-.156c0-.547.079-.563.329-.563h3.625c.234 0 .312.016.312.563v.156H0v-2.953c0-.984-.61-1.703-1.281-1.703-.594 0-1.11.625-1.203 1.469-.125-.688-.547-1.25-1.094-1.25-.625 0-1.188.734-1.188 1.703zm2.188-1.328h-1.656c-.22 0-.282 0-.282-.328V-3.11c0-.704.5-1.063.938-1.063.5 0 1 .469 1 1.266zm2.328-.328c0 .328-.063.328-.266.328h-1.859v-1.484c0-.735.594-1.125 1.078-1.125.516 0 1.047.468 1.047 1.234zm0 0"/></symbol><symbol overflow="visible" id="m"><path d="M-2.219-3.594c-.765 0-1.328.094-1.812.406-.313.22-.594.657-.594 1.204C-4.625-.36-2.719-.36-2.219-.36c.5 0 2.36 0 2.36-1.625 0-1.61-1.86-1.61-2.36-1.61zm2.156 1.61c0 .328-.187.75-.75.89C-1.219-1-1.796-1-2.313-1c-.515 0-1.046 0-1.421-.094-.547-.156-.704-.593-.704-.89 0-.375.235-.735.641-.86.375-.11.875-.125 1.485-.125.515 0 1.03 0 1.468.094.64.14.781.61.781.89zm0 0"/></symbol><symbol overflow="visible" id="k"><path d="M2.39-3.297c-.03 0-.046 0-.218.172C.922-1.891-.968-1.562-2.5-1.562c-1.734 0-3.469-.375-4.703-1.61-.125-.125-.14-.125-.172-.125-.078 0-.11.031-.11.094 0 .11.688 1 1.954 1.594 1.093.5 2.203.625 3.031.625.781 0 1.984-.11 3.125-.657C1.844-2.25 2.5-3.094 2.5-3.203c0-.063-.031-.094-.11-.094zm0 0"/></symbol><symbol overflow="visible" id="n"><path d="M-2.5-2.875c-.766 0-1.969.11-3.11.656-1.218.594-1.874 1.453-1.874 1.547 0 .063.046.11.109.11.031 0 .047 0 .234-.188.985-.984 2.563-1.547 4.641-1.547 1.719 0 3.469.36 4.719 1.594.125.14.14.14.172.14.062 0 .109-.046.109-.109 0-.094-.688-1-1.953-1.578-1.094-.516-2.203-.625-3.047-.625zm0 0"/></symbol><symbol overflow="visible" id="p"><path d="M1.578-1.734a.39.39 0 0 0-.39-.407.4.4 0 0 0-.407.391.4.4 0 0 0 .39.406.4.4 0 0 0 .407-.39zm0 0"/></symbol><symbol overflow="visible" id="q"><path d="M3.39-4.219c.047-.203.063-.218.22-.234h.406c.437 0 .609 0 .78.047.313.093.329.297.329.547 0 .109 0 .203-.047.562l-.016.078c0 .078.047.11.125.11.11 0 .11-.063.125-.172L5.5-4.61c0-.094-.078-.094-.203-.094H1.016c-.172 0-.188 0-.235.14L.328-3.327c0 .031-.031.094-.031.125s.016.094.125.094c.094 0 .094-.032.14-.172.407-1.11.641-1.172 1.704-1.172h.28c.22 0 .22 0 .22.062 0 0 0 .047-.032.141L1.813-.578C1.75-.328 1.734-.25 1-.25c-.25 0-.313 0-.313.156 0 .016.016.094.125.094.188 0 .407-.016.594-.016.203 0 .407-.015.594-.015.203 0 .438 0 .64.015.188 0 .391.016.579.016.062 0 .156 0 .156-.156 0-.094-.063-.094-.281-.094-.125 0-.266-.016-.406-.016-.235-.015-.25-.046-.25-.125 0-.062 0-.062.03-.171zm0 0"/></symbol><clipPath id="a"><path d="M17.004.398h181.941V150H17.004zm0 0"/></clipPath><clipPath id="b"><path d="M17.004.398h181.941V146H17.004zm0 0"/></clipPath><clipPath id="c"><path d="M17.004.398h181.941V133H17.004zm0 0"/></clipPath></defs><path d="M17.004 153.988h179.351" fill="none" stroke-width="0.79701" stroke="rgb(0%,0%,0%)" stroke-miterlimit="10"/><path d="M198.945 153.988l-4.144-2.074 1.554 2.074-1.554 2.07" fill="rgb(0%,0%,0%)"/><path d="M17.004 153.988v-151" fill="none" stroke-width="0.79701" stroke="rgb(0%,0%,0%)" stroke-miterlimit="10"/><path d="M17.004.398L14.93 4.543l2.074-1.555 2.07 1.555" fill="rgb(0%,0%,0%)"/><g clip-path="url(#a)"><path d="M24.582-30.785s5.477 74.816 7.582 91.754c2.102 16.933 5.477 24.02 7.582 30.297 2.102 6.277 5.477 11.652 7.578 14.945 2.106 3.297 5.48 6.785 7.582 8.805 2.106 2.015 5.477 4.382 7.582 5.73 2.102 1.352 5.477 3.035 7.582 3.988 2.102.957 5.477 2.196 7.578 2.899 2.106.703 5.477 1.64 7.582 2.172 2.106.535 5.477 1.257 7.582 1.672 2.102.41 5.477.98 7.579 1.304 2.105.324 5.48.778 7.582 1.04a384.2 384.2 0 0 0 7.582.831c2.101.211 5.476.508 7.582.676 2.101.172 5.476.414 7.578.555 2.105.137 5.48.336 7.582.453a984.661 984.661 0 0 0 15.16.684c2.105.078 5.48.19 7.582.257a1637.269 1637.269 0 0 0 15.164.395c2.102.047 5.477.113 7.578.152 2.106.035 5.48.094 7.582.125 2.106.031 7.582.106 7.582.106" fill="none" stroke-width="0.79701" stroke="rgb(100%,0%,0%)" stroke-miterlimit="10"/></g><g clip-path="url(#b)"><path d="M24.582-214.938s5.477 150.106 7.582 184.153c2.102 34.047 5.477 48.512 7.582 61.242 2.102 12.73 5.477 23.75 7.578 30.512 2.106 6.761 5.48 14.015 7.582 18.218 2.106 4.208 5.477 9.22 7.582 12.083 2.102 2.867 5.477 6.496 7.582 8.57 2.102 2.07 5.477 4.805 7.578 6.37 2.106 1.567 5.477 3.692 7.582 4.915 2.106 1.219 5.477 2.914 7.582 3.89 2.102.973 5.477 2.348 7.579 3.145 2.105.793 5.48 1.93 7.582 2.59 2.105.656 5.476 1.605 7.582 2.16 2.101.555 5.476 1.356 7.582 1.824a306.76 306.76 0 0 0 7.578 1.559c2.105.402 5.48.992 7.582 1.34 2.105.347 5.476.86 7.582 1.16 2.101.3 5.476.75 7.578 1.012a563.604 563.604 0 0 0 15.164 1.672c2.102.203 5.477.507 7.582.691 2.102.18 5.477.453 7.578.613 2.106.164 5.48.406 7.582.551 2.106.14 7.582.488 7.582.488" fill="none" stroke-width="0.79701" stroke="rgb(100%,94.898987%,0%)" stroke-miterlimit="10"/></g><g clip-path="url(#c)"><path d="M24.582-583.617s5.477 300.492 7.582 368.68c2.102 68.187 5.477 97.226 7.582 122.777 2.102 25.55 5.477 47.762 7.578 61.375 2.106 13.613 5.48 28.254 7.582 36.75 2.106 8.5 5.477 18.672 7.582 24.492 2.102 5.82 5.477 13.219 7.582 17.453 2.102 4.23 5.477 9.84 7.578 13.059 2.106 3.215 5.477 7.605 7.582 10.136 2.106 2.528 5.477 6.047 7.582 8.083 2.102 2.039 5.477 4.925 7.579 6.601 2.105 1.68 5.48 4.082 7.582 5.48 2.105 1.403 5.476 3.434 7.582 4.622 2.101 1.187 5.476 2.925 7.582 3.949 2.101 1.02 5.476 2.515 7.578 3.402 2.105.883 5.48 2.196 7.582 2.969 2.105.773 5.476 1.926 7.582 2.61 2.101.679 5.476 1.699 7.578 2.304 2.105.602 5.48 1.512 7.582 2.05 2.106.54 5.477 1.356 7.582 1.84 2.102.481 5.477 1.215 7.582 1.653 2.102.434 5.477 1.098 7.578 1.492 2.106.395 5.48.996 7.582 1.356 2.106.359 7.582 1.23 7.582 1.23" fill="none" stroke-width="0.79701" stroke="rgb(0%,0%,100%)" stroke-miterlimit="10"/></g><use xlink:href="#d" x="95.759" y="165.179" fill="rgb(0%,0%,0%)"/><use xlink:href="#e" x="102.955" y="165.179" fill="rgb(0%,0%,0%)"/><use xlink:href="#f" x="106.829" y="165.179" fill="rgb(0%,0%,0%)"/><use xlink:href="#g" x="111.841" y="166.673" fill="rgb(0%,0%,0%)"/><use xlink:href="#h" x="116.311" y="165.179" fill="rgb(0%,0%,0%)"/><use xlink:href="#i" x="10.792" y="91.832" fill="rgb(0%,0%,0%)"/><use xlink:href="#j" x="12.287" y="85.852" fill="rgb(0%,0%,0%)"/><use xlink:href="#k" x="10.792" y="79.784" fill="rgb(0%,0%,0%)"/><use xlink:href="#l" x="10.792" y="75.91" fill="rgb(0%,0%,0%)"/><use xlink:href="#m" x="12.287" y="70.897" fill="rgb(0%,0%,0%)"/><use xlink:href="#n" x="10.792" y="66.428" fill="rgb(0%,0%,0%)"/><path d="M55.688 113.363c1.617-6.203 6.453-11.101 12.195-12.683" fill="none" stroke-width="0.3985" stroke="rgb(0%,0%,0%)" stroke-miterlimit="10"/><path d="M66.305 99.46c.254.552 1.55 1.126 1.863 1.142-.262.175-1.078 1.332-1.016 1.933" fill="none" stroke-width=".31877087260000003" stroke-linecap="round" stroke-linejoin="round" stroke="rgb(0%,0%,0%)" stroke-miterlimit="10"/><use xlink:href="#o" x="62.995" y="112.738" fill="rgb(0%,0%,0%)"/><use xlink:href="#p" x="68.78" y="112.738" fill="rgb(0%,0%,0%)"/><use xlink:href="#q" x="72.96" y="112.738" fill="rgb(0%,0%,0%)"/><path d="M70.75 98.105c2.535-9.683 9.473-16.699 18.684-19.222" fill="none" stroke-width="0.3985" stroke="rgb(0%,0%,0%)" stroke-miterlimit="10"/><path d="M87.86 77.66c.253.55 1.55 1.125 1.863 1.14-.262.177-1.082 1.333-1.02 1.934" fill="none" stroke-width=".3187740605" stroke-linecap="round" stroke-linejoin="round" stroke="rgb(0%,0%,0%)" stroke-miterlimit="10"/><use xlink:href="#o" x="80.344" y="93.258" fill="rgb(0%,0%,0%)"/><use xlink:href="#p" x="86.129" y="93.258" fill="rgb(0%,0%,0%)"/><use xlink:href="#q" x="90.31" y="93.258" fill="rgb(0%,0%,0%)"/></svg>