<svg xmlns="http://www.w3.org/2000/svg" xmlns:xlink="http://www.w3.org/1999/xlink" width="308.825" height="192.611" viewBox="0 0 231.619 144.458"><defs><symbol overflow="visible" id="a"><path d="M5.36-5.938c-.141.141-.47.422-.47.594 0 .094.094.203.188.203s.14-.078.203-.14c.11-.14.344-.422.782-.64.062-.048.171-.095.171-.204 0-.11-.078-.156-.14-.203a1.034 1.034 0 01-.407-.563c-.03-.093-.062-.234-.203-.234-.14 0-.203.14-.203.219 0 .047.078.36.235.578h-3.36c-.156 0-.344 0-.344.203 0 .188.188.188.344.188zm0 0"/></symbol><symbol overflow="visible" id="b"><path d="M1.86-2.297c.296 0 1.03-.031 1.53-.234.704-.297.75-.89.75-1.031 0-.438-.374-.844-1.062-.844-1.11 0-2.625.968-2.625 2.718C.453-.671 1.047.11 2.031.11c1.422 0 2.25-1.062 2.25-1.171 0-.063-.047-.141-.11-.141-.062 0-.077.031-.14.11-.781.984-1.875.984-1.984.984-.781 0-.875-.844-.875-1.157 0-.125.016-.421.156-1.03zm-.47-.219c.391-1.515 1.423-1.671 1.688-1.671.453 0 .735.296.735.625 0 1.046-1.594 1.046-2.016 1.046zm0 0"/></symbol><symbol overflow="visible" id="d"><path d="M1.906-.531a.534.534 0 00-.515-.531.537.537 0 00-.532.53.524.524 0 101.047 0zm0 0"/></symbol><symbol overflow="visible" id="g"><path d="M3.719-3.766c-.188-.375-.469-.64-.922-.64-1.156 0-2.39 1.468-2.39 2.922C.406-.547.952.109 1.718.109c.203 0 .703-.046 1.297-.75a.91.91 0 00.906.75c.36 0 .578-.234.75-.546a6.49 6.49 0 00.297-.985c0-.11-.094-.11-.125-.11-.094 0-.11.048-.14.188-.173.64-.345 1.235-.75 1.235-.282 0-.298-.266-.298-.454 0-.218.016-.312.125-.75.11-.406.125-.515.219-.89l.36-1.39c.062-.282.062-.298.062-.345 0-.171-.11-.265-.281-.265-.25 0-.391.219-.422.437zm-.64 2.579c-.063.187-.063.203-.204.375-.438.546-.844.703-1.125.703-.5 0-.64-.547-.64-.938 0-.5.312-1.719.546-2.187.313-.579.75-.954 1.157-.954.64 0 .78.813.78.875a.562.562 0 01-.03.172zm0 0"/></symbol><symbol overflow="visible" id="i"><path d="M4.75-2.36c0-1.562-.922-2.046-1.656-2.046-1.375 0-2.688 1.422-2.688 2.828C.406-.641 1 .109 2.031.109c.625 0 1.344-.234 2.094-.843.125.53.453.843.906.843.532 0 .844-.546.844-.703 0-.078-.063-.11-.125-.11-.063 0-.094.032-.125.11-.188.485-.547.485-.563.485-.312 0-.312-.782-.312-1.016 0-.203 0-.234.11-.344C5.796-2.656 6-3.812 6-3.812c0-.032-.016-.11-.125-.11-.094 0-.094.031-.14.219-.188.625-.516 1.375-.985 1.969zM4.094-.983c-.89.765-1.657.875-2.047.875-.594 0-.906-.454-.906-1.094 0-.484.265-1.563.578-2.063.468-.734 1.015-.921 1.36-.921.983 0 .983 1.312.983 2.078 0 .375 0 .953.032 1.125zm0 0"/></symbol><symbol overflow="visible" id="m"><path d="M3.656-3.984h.86c.203 0 .296 0 .296-.204 0-.109-.093-.109-.265-.109h-.828l.203-1.14c.047-.204.187-.907.25-1.032.078-.187.25-.343.469-.343.03 0 .296 0 .484.187a.557.557 0 00-.547.531c0 .235.188.36.375.36.266 0 .547-.235.547-.61 0-.453-.453-.687-.86-.687-.343 0-.968.187-1.265 1.172-.063.203-.094.312-.328 1.562h-.688c-.203 0-.312 0-.312.188 0 .125.094.125.281.125h.656L2.25-.047c-.188.969-.36 1.875-.875 1.875-.047 0-.281 0-.484-.187.468-.032.562-.391.562-.532 0-.234-.187-.359-.375-.359-.266 0-.547.234-.547.61 0 .437.438.687.844.687.547 0 .953-.594 1.125-.969.328-.625.547-1.828.563-1.906zm0 0"/></symbol><symbol overflow="visible" id="c"><path d="M2.328-4.438c0-.187 0-.187-.203-.187-.453.438-1.078.438-1.36.438v.25c.157 0 .626 0 1-.188v3.547c0 .234 0 .328-.687.328H.812V0c.125 0 .985-.031 1.235-.031.219 0 1.094.031 1.25.031v-.25H3.03c-.703 0-.703-.094-.703-.328zm0 0"/></symbol><symbol overflow="visible" id="e"><path d="M3.063-4.36a.276.276 0 00-.282-.265c-.203 0-.39.203-.39.39 0 .11.078.266.28.266.188 0 .392-.187.392-.39zM1.577.345c-.11.484-.484.875-.89.875-.094 0-.172 0-.25-.032A.424.424 0 00.671.829c0-.172-.14-.25-.281-.25C.187.578 0 .766 0 .984c0 .266.266.438.688.438.421 0 1.234-.25 1.453-1.094l.625-2.5c.015-.078.03-.14.03-.25 0-.375-.327-.656-.733-.656C1.28-3.078.843-2.11.843-2c0 .078.095.078.11.078.078 0 .094-.016.14-.125.173-.406.532-.828.938-.828.172 0 .235.11.235.344 0 .078 0 .172-.016.203zm0 0"/></symbol><symbol overflow="visible" id="f"><path d="M.844-.438C.828-.344.78-.171.78-.156c0 .156.125.218.235.218a.377.377 0 00.28-.14c.032-.063.079-.297.126-.438.031-.125.11-.453.14-.625.047-.156.094-.312.125-.468.079-.282.094-.344.297-.625.188-.282.516-.641 1.047-.641.39 0 .406.36.406.484 0 .422-.296 1.188-.406 1.485-.078.203-.11.265-.11.375 0 .375.298.594.657.594.703 0 1-.954 1-1.063 0-.094-.078-.094-.11-.094-.093 0-.093.047-.124.125-.157.563-.469.844-.735.844-.156 0-.187-.094-.187-.25s.047-.25.172-.563c.078-.218.36-.953.36-1.343 0-.672-.532-.797-.907-.797-.578 0-.969.36-1.172.64-.047-.484-.453-.64-.75-.64s-.453.219-.547.375c-.156.265-.25.656-.25.703 0 .078.094.078.125.078.094 0 .094-.016.14-.203.11-.406.25-.75.516-.75.188 0 .235.156.235.344 0 .125-.063.39-.125.578-.047.187-.11.469-.14.625zm0 0"/></symbol><symbol overflow="visible" id="h"><path d="M3.422-4.75c0-.094-.078-.094-.11-.094-.109 0-.109.047-.14.157l-.39 1.593C1.546-3.03.483-2.14.483-1.219c0 .797.72 1.266 1.5 1.297-.062.219-.109.438-.171.656-.079.329-.141.579-.141.61 0 .078.094.078.11.078.109 0 .109-.016.155-.172L2.22.078C3.422.031 4.516-.844 4.516-1.797c0-.719-.641-1.25-1.5-1.281zM2.032-.125C1.483-.141 1-.438 1-1.094c0-.703.531-1.687 1.719-1.797zm.937-2.766C3.5-2.859 4-2.578 4-1.906c0 .75-.594 1.687-1.734 1.781zm0 0"/></symbol><symbol overflow="visible" id="n"><path d="M3.797-4.64c.015-.079.015-.11.015-.11 0-.094-.093-.094-.109-.094-.11 0-.11.032-.14.157L2.421-.141c-.563-.062-.875-.312-.875-.78 0-.11 0-.298.344-1.157.062-.156.109-.281.109-.39 0-.376-.313-.61-.656-.61C.64-3.078.328-2.125.328-2c0 .078.094.078.125.078.094 0 .094-.031.125-.11.156-.562.469-.843.735-.843.125 0 .171.078.171.234 0 .172-.046.297-.125.516-.343.875-.343 1.031-.343 1.156 0 .797.843 1 1.359 1.031a47.669 47.669 0 00-.313 1.266c0 .094.079.094.11.094.094 0 .11-.031.14-.14L2.61.061c.282 0 .922 0 1.657-.718a2.42 2.42 0 00.5-.75C4.859-1.641 5-2.203 5-2.531c0-.547-.328-.547-.344-.547a.403.403 0 00-.375.375c0 .11.063.172.094.187.11.094.281.266.281.579 0 .578-.797 1.812-2 1.812zm0 0"/></symbol><symbol overflow="visible" id="j"><path d="M3.875-2.766L1.891-4.75c-.125-.125-.141-.14-.22-.14a.197.197 0 00-.202.202c0 .063.015.079.125.188l2 2-2 2.016c-.11.109-.125.125-.125.187 0 .125.093.203.203.203.078 0 .094-.015.219-.14L3.875-2.22 5.938-.156a.236.236 0 00.14.062c.125 0 .203-.078.203-.203 0-.016 0-.047-.031-.11C6.234-.421 4.656-1.983 4.156-2.5l1.828-1.813c.047-.062.204-.187.25-.25 0-.015.047-.062.047-.125 0-.125-.078-.203-.203-.203-.078 0-.11.032-.219.141zm0 0"/></symbol><symbol overflow="visible" id="k"><path d="M3.703-3.25c.094-.094.094-.14.094-.156a.233.233 0 00-.063-.14L1.688-6.5h2.296c1.688 0 2.188.36 2.391 1.938h.25l-.281-2.25H.812c-.234 0-.25 0-.25.234l2.485 3.61L.672-.267c-.11.11-.11.125-.11.157 0 .109.11.109.25.109h5.532l.281-2.36h-.25C6.203-.687 5.515-.421 3.953-.421h-2.75zm0 0"/></symbol><symbol overflow="visible" id="l"><path d="M2.016-3.297c.062-.11.062-.172.062-.219 0-.218-.187-.375-.406-.375-.266 0-.344.22-.375.329L.375-.547a.33.33 0 00-.047.11c0 .078.219.156.281.156.047 0 .047-.016.094-.125zm0 0"/></symbol><clipPath id="o"><path d="M6 105h149v39.457H6zm0 0"/></clipPath><clipPath id="p"><path d="M72 127h19v17.457H72zm0 0"/></clipPath></defs><use xlink:href="#a" x="4.194" y="13.008"/><use xlink:href="#b" x="4.583" y="13.008"/><use xlink:href="#c" x="9.217" y="14.502"/><use xlink:href="#d" x="3.321" y="35.86"/><use xlink:href="#d" x="7.752" y="35.86"/><use xlink:href="#d" x="12.174" y="35.86"/><use xlink:href="#a" x="4.33" y="63.284"/><use xlink:href="#b" x="4.719" y="63.284"/><use xlink:href="#e" x="9.353" y="64.778"/><use xlink:href="#d" x="3.321" y="87.493"/><use xlink:href="#d" x="7.752" y="87.493"/><use xlink:href="#d" x="12.174" y="87.493"/><use xlink:href="#a" x="3.717" y="114.917"/><use xlink:href="#b" x="4.106" y="114.917"/><use xlink:href="#f" x="8.74" y="116.411"/><path d="M46.352 17.086h17.195V3.305H46.352zm0 0" fill="none" stroke-width="1.196" stroke="#000" stroke-miterlimit="10"/><use xlink:href="#g" x="49.67" y="10.915"/><use xlink:href="#h" x="54.936" y="12.41"/><path d="M46.215 68.043H63.41V54.262H46.215zm0 0" fill="none" stroke-width="1.196" stroke="#000" stroke-miterlimit="10"/><use xlink:href="#g" x="49.534" y="61.87"/><use xlink:href="#h" x="54.8" y="63.364"/><path d="M46.828 118.996h17.195v-13.781H46.828zm0 0" fill="none" stroke-width="1.196" stroke="#000" stroke-miterlimit="10"/><use xlink:href="#g" x="50.147" y="112.825"/><use xlink:href="#h" x="55.413" y="114.319"/><path d="M17.406 10.195h25.645" fill="none" stroke-width=".797" stroke="#000" stroke-miterlimit="10"/><path d="M41.496 8.125c.133.777 1.555 1.941 1.945 2.07-.39.13-1.812 1.297-1.945 2.075" fill="none" stroke-width=".638" stroke-linecap="round" stroke-linejoin="round" stroke="#000" stroke-miterlimit="10"/><path d="M16.957 52.45L46.41 19.69" fill="none" stroke-width=".797" stroke="#000" stroke-miterlimit="10"/><path d="M43.832 19.46c.664.427 2.484.145 2.84-.058-.164.375-.25 2.215.242 2.832" fill="none" stroke-width=".63797448" stroke-linecap="round" stroke-linejoin="round" stroke="#000" stroke-miterlimit="10"/><path d="M17.27 61.152h25.648" fill="none" stroke-width=".797" stroke="#000" stroke-miterlimit="10"/><path d="M41.363 59.078c.13.777 1.555 1.945 1.942 2.074-.387.13-1.813 1.293-1.942 2.07" fill="none" stroke-width=".638" stroke-linecap="round" stroke-linejoin="round" stroke="#000" stroke-miterlimit="10"/><path d="M17.27 61.152h25.648" fill="none" stroke-width=".797" stroke="#000" stroke-miterlimit="10"/><path d="M41.363 59.078c.13.777 1.555 1.945 1.942 2.074-.387.13-1.813 1.293-1.942 2.07" fill="none" stroke-width=".638" stroke-linecap="round" stroke-linejoin="round" stroke="#000" stroke-miterlimit="10"/><path d="M17.04 69.855l29.769 32.766" fill="none" stroke-width=".797" stroke="#000" stroke-miterlimit="10"/><path d="M47.297 100.078c-.488.617-.395 2.453-.227 2.828-.36-.199-2.18-.469-2.84-.043" fill="none" stroke-width=".6379681" stroke-linecap="round" stroke-linejoin="round" stroke="#000" stroke-miterlimit="10"/><path d="M17.883 112.105h25.644" fill="none" stroke-width=".797" stroke="#000" stroke-miterlimit="10"/><path d="M41.977 110.035c.128.778 1.55 1.942 1.941 2.07-.39.13-1.813 1.297-1.941 2.075" fill="none" stroke-width=".638" stroke-linecap="round" stroke-linejoin="round" stroke="#000" stroke-miterlimit="10"/><use xlink:href="#i" x="96.208" y="10.915" fill-opacity=".2"/><use xlink:href="#c" x="102.581" y="12.41" fill-opacity=".2"/><use xlink:href="#e" x="106.553" y="12.41" fill-opacity=".2"/><use xlink:href="#i" x="96.072" y="61.87"/><use xlink:href="#e" x="102.446" y="63.364"/><use xlink:href="#e" x="106.147" y="63.364"/><use xlink:href="#i" x="96.685" y="112.825" fill-opacity=".6"/><g fill-opacity=".6"><use xlink:href="#f" x="103.058" y="114.319"/><use xlink:href="#e" x="107.983" y="114.319"/></g><path d="M162.813 10.195c0-5.41-4.387-9.797-9.801-9.797-5.41 0-9.797 4.387-9.797 9.797 0 5.41 4.387 9.797 9.797 9.797 5.414 0 9.8-4.387 9.8-9.797zm0 0" fill="none" stroke-width=".797" stroke="#000" stroke-miterlimit="10"/><use xlink:href="#j" x="149.137" y="12.687"/><path d="M162.402 61.152a9.795 9.795 0 00-9.797-9.797 9.795 9.795 0 00-9.796 9.797c0 5.41 4.386 9.797 9.796 9.797 5.41 0 9.797-4.386 9.797-9.797zm0 0" fill="none" stroke-width=".797" stroke="#000" stroke-miterlimit="10"/><use xlink:href="#j" x="148.73" y="63.641"/><path d="M164.242 112.105c0-5.41-4.387-9.796-9.797-9.796a9.795 9.795 0 00-9.797 9.796 9.795 9.795 0 009.797 9.797c5.41 0 9.797-4.386 9.797-9.797zm0 0" fill="none" stroke-width=".797" stroke="#000" stroke-miterlimit="10"/><use xlink:href="#j" x="150.568" y="114.596"/><path d="M191.547 67.875h13.836v-13.45h-13.836zm0 0" fill="none" stroke-width=".797" stroke="#000" stroke-miterlimit="10"/><use xlink:href="#k" x="194.866" y="64.554"/><use xlink:href="#a" x="219.078" y="62.921"/><use xlink:href="#b" x="219.457" y="62.921"/><use xlink:href="#l" x="224.1" y="59.305"/><use xlink:href="#e" x="224.1" y="65.514"/><path d="M64.145 10.195h25.644" fill="none" stroke-width=".797" stroke="#000" stroke-opacity=".2" stroke-miterlimit="10"/><path d="M88.234 8.125c.133.777 1.555 1.941 1.946 2.07-.39.13-1.813 1.297-1.946 2.075" fill="none" stroke-width=".638" stroke-linecap="round" stroke-linejoin="round" stroke="#000" stroke-opacity=".2" stroke-miterlimit="10"/><path d="M64.008 61.152h25.648" fill="none" stroke-width=".797" stroke="#000" stroke-miterlimit="10"/><path d="M88.102 59.078c.128.777 1.554 1.945 1.941 2.074-.387.13-1.813 1.293-1.941 2.07" fill="none" stroke-width=".638" stroke-linecap="round" stroke-linejoin="round" stroke="#000" stroke-miterlimit="10"/><path d="M64.621 112.105h25.645" fill="none" stroke-width=".797" stroke="#000" stroke-opacity=".6" stroke-miterlimit="10"/><path d="M88.715 110.035c.129.778 1.55 1.942 1.941 2.07-.39.13-1.812 1.297-1.941 2.075" fill="none" stroke-width=".638" stroke-linecap="round" stroke-linejoin="round" stroke="#000" stroke-opacity=".6" stroke-miterlimit="10"/><path d="M17.406 14.965c42.918 24.926 83.73 25.031 124.438 1.672" fill="none" stroke-width=".797" stroke="#000" stroke-miterlimit="10"/><path d="M139.46 15.613c.5.61 2.317.91 2.72.832-.274.305-.93 2.024-.653 2.762" fill="none" stroke-width=".63798086" stroke-linecap="round" stroke-linejoin="round" stroke="#000" stroke-miterlimit="10"/><path d="M71.977 41.945h17.539v-16.41h-17.54zm0 0" fill="#fff" stroke-width=".797" stroke="#000" stroke-miterlimit="10"/><use xlink:href="#m" x="75.296" y="35.774"/><use xlink:href="#n" x="80.174" y="37.268"/><path d="M17.27 65.844c42.812 24.902 83.539 25.031 124.164 1.746" fill="none" stroke-width=".797" stroke="#000" stroke-miterlimit="10"/><path d="M139.055 66.566c.5.61 2.316.914 2.715.832-.27.305-.926 2.024-.653 2.762" fill="none" stroke-width=".63797448" stroke-linecap="round" stroke-linejoin="round" stroke="#000" stroke-miterlimit="10"/><path d="M71.695 92.824h17.54v-16.41h-17.54zm0 0" fill="#fff" stroke-width=".797" stroke="#000" stroke-miterlimit="10"/><use xlink:href="#m" x="75.014" y="86.652"/><use xlink:href="#n" x="79.891" y="88.146"/><g clip-path="url(#o)"><path d="M17.883 117.148c43.125 24.926 84.582 24.942 125.39 1.407" fill="none" stroke-width=".797" stroke="#000" stroke-miterlimit="10"/></g><path d="M140.895 117.535c.5.61 2.316.906 2.718.824-.273.305-.926 2.028-.648 2.766" fill="none" stroke-width=".63799362" stroke-linecap="round" stroke-linejoin="round" stroke="#000" stroke-miterlimit="10"/><g clip-path="url(#p)"><path d="M72.969 144.063h17.539v-16.41h-17.54zm0 0" fill="#fff" stroke-width=".797" stroke="#000" stroke-miterlimit="10"/></g><use xlink:href="#m" x="76.29" y="137.889"/><use xlink:href="#n" x="81.168" y="139.383"/><path d="M159.8 17.805l30.516 34.207" fill="none" stroke-width=".797" stroke="#000" stroke-miterlimit="10"/><path d="M190.828 49.473c-.492.617-.414 2.453-.254 2.832-.355-.203-2.172-.493-2.84-.07" fill="none" stroke-width=".6379681" stroke-linecap="round" stroke-linejoin="round" stroke="#000" stroke-miterlimit="10"/><path d="M162.8 61.152h25.65" fill="none" stroke-width=".797" stroke="#000" stroke-miterlimit="10"/><path d="M186.895 59.078c.128.777 1.554 1.945 1.94 2.074-.386.13-1.812 1.293-1.94 2.07" fill="none" stroke-width=".638" stroke-linecap="round" stroke-linejoin="round" stroke="#000" stroke-miterlimit="10"/><path d="M161.11 104.39l29.437-34.074" fill="none" stroke-width=".797" stroke="#000" stroke-miterlimit="10"/><path d="M187.965 70.137c.672.41 2.484.097 2.836-.114-.156.38-.203 2.22.3 2.825" fill="none" stroke-width=".63798086" stroke-linecap="round" stroke-linejoin="round" stroke="#000" stroke-miterlimit="10"/><path d="M114.473 10.195h25.644" fill="none" stroke-width=".797" stroke="#000" stroke-opacity=".2" stroke-miterlimit="10"/><path d="M138.563 8.125c.132.777 1.554 1.941 1.945 2.07-.39.13-1.813 1.297-1.946 2.075" fill="none" stroke-width=".638" stroke-linecap="round" stroke-linejoin="round" stroke="#000" stroke-opacity=".2" stroke-miterlimit="10"/><path d="M114.063 61.152h25.648" fill="none" stroke-width=".797" stroke="#000" stroke-miterlimit="10"/><path d="M138.156 59.078c.13.777 1.555 1.945 1.942 2.074-.387.13-1.813 1.293-1.942 2.07" fill="none" stroke-width=".638" stroke-linecap="round" stroke-linejoin="round" stroke="#000" stroke-miterlimit="10"/><path d="M115.902 112.105h25.645" fill="none" stroke-width=".797" stroke="#000" stroke-opacity=".6" stroke-miterlimit="10"/><path d="M139.992 110.035c.133.778 1.555 1.942 1.946 2.07-.391.13-1.813 1.297-1.946 2.075" fill="none" stroke-width=".638" stroke-linecap="round" stroke-linejoin="round" stroke="#000" stroke-opacity=".6" stroke-miterlimit="10"/><path d="M205.781 61.152h7.266" fill="none" stroke-width=".797" stroke="#000" stroke-miterlimit="10"/><path d="M211.492 59.078c.13.777 1.555 1.945 1.942 2.074-.387.13-1.813 1.293-1.942 2.07" fill="none" stroke-width=".638" stroke-linecap="round" stroke-linejoin="round" stroke="#000" stroke-miterlimit="10"/></svg>