<svg height="192.611" viewBox="0 0 231.619 144.458" width="308.825" xmlns="http://www.w3.org/2000/svg" xmlns:xlink="http://www.w3.org/1999/xlink"><symbol id="a" overflow="visible"><path d="m5.36-5.938c-.141.141-.47.422-.47.594 0 .094.094.203.188.203s.14-.078.203-.14c.11-.14.344-.422.782-.64.062-.048.171-.095.171-.204 0-.11-.078-.156-.14-.203a1.034 1.034 0 0 1 -.407-.563c-.03-.093-.062-.234-.203-.234-.14 0-.203.14-.203.219 0 .047.078.36.235.578h-3.36c-.156 0-.344 0-.344.203 0 .188.188.188.344.188zm0 0"/></symbol><symbol id="b" overflow="visible"><path d="m1.86-2.297c.296 0 1.03-.031 1.53-.234.704-.297.75-.89.75-1.031 0-.438-.374-.844-1.062-.844-1.11 0-2.625.968-2.625 2.718 0 1.017.594 1.798 1.578 1.798 1.422 0 2.25-1.062 2.25-1.171 0-.063-.047-.141-.11-.141-.062 0-.077.031-.14.11-.781.984-1.875.984-1.984.984-.781 0-.875-.844-.875-1.157 0-.125.016-.421.156-1.03zm-.47-.219c.391-1.515 1.423-1.671 1.688-1.671.453 0 .735.296.735.625 0 1.046-1.594 1.046-2.016 1.046zm0 0"/></symbol><symbol id="c" overflow="visible"><path d="m1.906-.531a.534.534 0 0 0 -.515-.531.537.537 0 0 0 -.532.53.524.524 0 1 0 1.047 0zm0 0"/></symbol><symbol id="d" overflow="visible"><path d="m3.719-3.766c-.188-.375-.469-.64-.922-.64-1.156 0-2.39 1.468-2.39 2.922-.001.937.545 1.593 1.311 1.593.203 0 .703-.046 1.297-.75a.91.91 0 0 0 .906.75c.36 0 .578-.234.75-.546a6.49 6.49 0 0 0 .297-.985c0-.11-.094-.11-.125-.11-.094 0-.11.048-.14.188-.173.64-.345 1.235-.75 1.235-.282 0-.298-.266-.298-.454 0-.218.016-.312.125-.75.11-.406.125-.515.219-.89l.36-1.39c.062-.282.062-.298.062-.345 0-.171-.11-.265-.281-.265-.25 0-.391.219-.422.437zm-.64 2.579c-.063.187-.063.203-.204.375-.438.546-.844.703-1.125.703-.5 0-.64-.547-.64-.938 0-.5.312-1.719.546-2.187.313-.579.75-.954 1.157-.954.64 0 .78.813.78.875a.562.562 0 0 1 -.03.172zm0 0"/></symbol><symbol id="e" overflow="visible"><path d="m4.75-2.36c0-1.562-.922-2.046-1.656-2.046-1.375 0-2.688 1.422-2.688 2.828 0 .937.594 1.687 1.625 1.687.625 0 1.344-.234 2.094-.843.125.53.453.843.906.843.532 0 .844-.546.844-.703 0-.078-.063-.11-.125-.11-.063 0-.094.032-.125.11-.188.485-.547.485-.563.485-.312 0-.312-.782-.312-1.016 0-.203 0-.234.11-.344.936-1.187 1.14-2.343 1.14-2.343 0-.032-.016-.11-.125-.11-.094 0-.094.031-.14.219-.188.625-.516 1.375-.985 1.969zm-.656 1.377c-.89.765-1.657.875-2.047.875-.594 0-.906-.454-.906-1.094 0-.484.265-1.563.578-2.063.468-.734 1.015-.921 1.36-.921.983 0 .983 1.312.983 2.078 0 .375 0 .953.032 1.125zm0 0"/></symbol><symbol id="f" overflow="visible"><path d="m3.656-3.984h.86c.203 0 .296 0 .296-.204 0-.109-.093-.109-.265-.109h-.828l.203-1.14c.047-.204.187-.907.25-1.032.078-.187.25-.343.469-.343.03 0 .296 0 .484.187a.557.557 0 0 0 -.547.531c0 .235.188.36.375.36.266 0 .547-.235.547-.61 0-.453-.453-.687-.86-.687-.343 0-.968.187-1.265 1.172-.063.203-.094.312-.328 1.562h-.688c-.203 0-.312 0-.312.188 0 .125.094.125.281.125h.656l-.734 3.937c-.188.969-.36 1.875-.875 1.875-.047 0-.281 0-.484-.187.468-.032.562-.391.562-.532 0-.234-.187-.359-.375-.359-.266 0-.547.234-.547.61 0 .437.438.687.844.687.547 0 .953-.594 1.125-.969.328-.625.547-1.828.563-1.906zm0 0"/></symbol><symbol id="g" overflow="visible"><path d="m2.328-4.438c0-.187 0-.187-.203-.187-.453.438-1.078.438-1.36.438v.25c.157 0 .626 0 1-.188v3.547c0 .234 0 .328-.687.328h-.266v.25c.125 0 .985-.031 1.235-.031.219 0 1.094.031 1.25.031v-.25h-.267c-.703 0-.703-.094-.703-.328zm0 0"/></symbol><symbol id="h" overflow="visible"><path d="m3.063-4.36a.276.276 0 0 0 -.282-.265c-.203 0-.39.203-.39.39 0 .11.078.266.28.266.188 0 .392-.187.392-.39zm-1.486 4.705c-.11.484-.484.875-.89.875-.094 0-.172 0-.25-.032a.424.424 0 0 0 .234-.359c0-.172-.14-.25-.281-.25-.203-.001-.39.187-.39.405 0 .266.266.438.688.438.421 0 1.234-.25 1.453-1.094l.625-2.5c.015-.078.03-.14.03-.25 0-.375-.327-.656-.733-.656-.783 0-1.22.968-1.22 1.078 0 .078.095.078.11.078.078 0 .094-.016.14-.125.173-.406.532-.828.938-.828.172 0 .235.11.235.344 0 .078 0 .172-.016.203zm0 0"/></symbol><symbol id="i" overflow="visible"><path d="m.844-.438c-.016.094-.064.267-.064.282 0 .156.125.218.235.218a.377.377 0 0 0 .28-.14c.032-.063.079-.297.126-.438.031-.125.11-.453.14-.625.047-.156.094-.312.125-.468.079-.282.094-.344.297-.625.188-.282.516-.641 1.047-.641.39 0 .406.36.406.484 0 .422-.296 1.188-.406 1.485-.078.203-.11.265-.11.375 0 .375.298.594.657.594.703 0 1-.954 1-1.063 0-.094-.078-.094-.11-.094-.093 0-.093.047-.124.125-.157.563-.469.844-.735.844-.156 0-.187-.094-.187-.25s.047-.25.172-.563c.078-.218.36-.953.36-1.343 0-.672-.532-.797-.907-.797-.578 0-.969.36-1.172.64-.047-.484-.453-.64-.75-.64s-.453.219-.547.375c-.156.265-.25.656-.25.703 0 .078.094.078.125.078.094 0 .094-.016.14-.203.11-.406.25-.75.516-.75.188 0 .235.156.235.344 0 .125-.063.39-.125.578-.047.187-.11.469-.14.625zm0 0"/></symbol><symbol id="j" overflow="visible"><path d="m3.422-4.75c0-.094-.078-.094-.11-.094-.109 0-.109.047-.14.157l-.39 1.593c-1.236.064-2.299.954-2.299 1.875 0 .797.72 1.266 1.5 1.297-.062.219-.109.438-.171.656-.079.329-.141.579-.141.61 0 .078.094.078.11.078.109 0 .109-.016.155-.172l.284-1.172c1.202-.047 2.296-.922 2.296-1.875 0-.719-.641-1.25-1.5-1.281zm-1.39 4.625c-.549-.016-1.032-.313-1.032-.969 0-.703.531-1.687 1.719-1.797zm.937-2.766c.531.032 1.031.313 1.031.985 0 .75-.594 1.687-1.734 1.781zm0 0"/></symbol><symbol id="k" overflow="visible"><path d="m3.797-4.64c.015-.079.015-.11.015-.11 0-.094-.093-.094-.109-.094-.11 0-.11.032-.14.157l-1.142 4.546c-.563-.062-.875-.312-.875-.78 0-.11 0-.298.344-1.157.062-.156.109-.281.109-.39 0-.376-.313-.61-.656-.61-.703 0-1.015.953-1.015 1.078 0 .078.094.078.125.078.094 0 .094-.031.125-.11.156-.562.469-.843.735-.843.125 0 .171.078.171.234 0 .172-.046.297-.125.516-.343.875-.343 1.031-.343 1.156 0 .797.843 1 1.359 1.031a47.669 47.669 0 0 0 -.313 1.266c0 .094.079.094.11.094.094 0 .11-.031.14-.14l.298-1.221c.282 0 .922 0 1.657-.718a2.42 2.42 0 0 0 .5-.75c.092-.234.233-.796.233-1.124 0-.547-.328-.547-.344-.547a.403.403 0 0 0 -.375.375c0 .11.063.172.094.187.11.094.281.266.281.579 0 .578-.797 1.812-2 1.812zm0 0"/></symbol><symbol id="l" overflow="visible"><path d="m3.875-2.766-1.984-1.984c-.125-.125-.141-.14-.22-.14a.197.197 0 0 0 -.202.202c0 .063.015.079.125.188l2 2-2 2.016c-.11.109-.125.125-.125.187 0 .125.093.203.203.203.078 0 .094-.015.219-.14l1.984-1.986 2.063 2.064a.236.236 0 0 0 .14.062c.125 0 .203-.078.203-.203 0-.016 0-.047-.031-.11a208.102 208.102 0 0 1 -2.094-2.093l1.828-1.813c.047-.062.204-.187.25-.25 0-.015.047-.062.047-.125 0-.125-.078-.203-.203-.203-.078 0-.11.032-.219.141zm0 0"/></symbol><symbol id="m" overflow="visible"><path d="m3.703-3.25c.094-.094.094-.14.094-.156a.233.233 0 0 0 -.063-.14l-2.046-2.954h2.296c1.688 0 2.188.36 2.391 1.938h.25l-.281-2.25h-5.532c-.234 0-.25 0-.25.234l2.485 3.61-2.375 2.701c-.11.11-.11.125-.11.157 0 .109.11.109.25.109h5.532l.281-2.36h-.25c-.172 1.674-.86 1.94-2.422 1.94h-2.75zm0 0"/></symbol><symbol id="n" overflow="visible"><path d="m2.016-3.297c.062-.11.062-.172.062-.219 0-.218-.187-.375-.406-.375-.266 0-.344.22-.375.329l-.922 3.015a.33.33 0 0 0 -.047.11c0 .078.219.156.281.156.047 0 .047-.016.094-.125zm0 0"/></symbol><clipPath id="o"><path d="m6 105h149v39.457h-149zm0 0"/></clipPath><clipPath id="p"><path d="m72 127h19v17.457h-19zm0 0"/></clipPath><use x="4.194" xlink:href="#a" y="13.008"/><use x="4.583" xlink:href="#b" y="13.008"/><use x="9.217" xlink:href="#g" y="14.502"/><use x="3.321" xlink:href="#c" y="35.86"/><use x="7.752" xlink:href="#c" y="35.86"/><use x="12.174" xlink:href="#c" y="35.86"/><use x="4.33" xlink:href="#a" y="63.284"/><use x="4.719" xlink:href="#b" y="63.284"/><use x="9.353" xlink:href="#h" y="64.778"/><use x="3.321" xlink:href="#c" y="87.493"/><use x="7.752" xlink:href="#c" y="87.493"/><use x="12.174" xlink:href="#c" y="87.493"/><use x="3.717" xlink:href="#a" y="114.917"/><use x="4.106" xlink:href="#b" y="114.917"/><use x="8.74" xlink:href="#i" y="116.411"/><path d="m37.22-6.89h17.195v13.781h-17.195zm0 0" fill="none" stroke="#000" stroke-miterlimit="10" stroke-width="1.19553" transform="matrix(1 0 0 -1 9.132 10.196)"/><use x="49.67" xlink:href="#d" y="10.915"/><use x="54.936" xlink:href="#j" y="12.41"/><path d="m37.083-57.847h17.195v13.781h-17.195zm0 0" fill="none" stroke="#000" stroke-miterlimit="10" stroke-width="1.19553" transform="matrix(1 0 0 -1 9.132 10.196)"/><use x="49.534" xlink:href="#d" y="61.87"/><use x="54.8" xlink:href="#j" y="63.364"/><path d="m37.696-108.8h17.195v13.781h-17.195zm0 0" fill="none" stroke="#000" stroke-miterlimit="10" stroke-width="1.19553" transform="matrix(1 0 0 -1 9.132 10.196)"/><use x="50.147" xlink:href="#d" y="112.825"/><use x="55.413" xlink:href="#j" y="114.319"/><path d="m8.274 0h25.646" fill="none" stroke="#000" stroke-miterlimit="10" stroke-width=".79701" transform="matrix(1 0 0 -1 9.132 10.196)"/><path d="m-1.556 2.071c.133-.777 1.555-1.941 1.945-2.07-.389-.131-1.812-1.297-1.945-2.075" style="fill:none;stroke-width:.6376;stroke-linecap:round;stroke-linejoin:round;stroke:#000;stroke-miterlimit:10" transform="matrix(1 0 0 -1 43.052 10.196)"/><path d="m7.825-42.253 29.453 32.758" fill="none" stroke="#000" stroke-miterlimit="10" stroke-width=".79701" transform="matrix(1 0 0 -1 9.132 10.196)"/><path d="m-1.553 2.073c.127-.779 1.553-1.945 1.942-2.073-.388-.129-1.814-1.295-1.944-2.074" style="fill:none;stroke-width:.6376;stroke-linecap:round;stroke-linejoin:round;stroke:#000;stroke-miterlimit:10" transform="matrix(.66861084 -.7435587 -.7435587 -.66861084 46.411264 19.691821)"/><path d="m8.138-50.956h25.648" fill="none" stroke="#000" stroke-miterlimit="10" stroke-width=".79701" transform="matrix(1 0 0 -1 9.132 10.196)"/><path d="m-1.553 2.073c.129-.777 1.555-1.945 1.941-2.073-.386-.13-1.812-1.294-1.941-2.071" style="fill:none;stroke-width:.6376;stroke-linecap:round;stroke-linejoin:round;stroke:#000;stroke-miterlimit:10" transform="matrix(1 0 0 -1 42.916 61.151)"/><path d="m8.138-50.956h25.648" fill="none" stroke="#000" stroke-miterlimit="10" stroke-width=".79701" transform="matrix(1 0 0 -1 9.132 10.196)"/><path d="m-1.553 2.073c.129-.777 1.555-1.945 1.941-2.073-.386-.13-1.812-1.294-1.941-2.071" style="fill:none;stroke-width:.6376;stroke-linecap:round;stroke-linejoin:round;stroke:#000;stroke-miterlimit:10" transform="matrix(1 0 0 -1 42.916 61.151)"/><path d="m7.907-59.66 29.77-32.765" fill="none" stroke="#000" stroke-miterlimit="10" stroke-width=".79701" transform="matrix(1 0 0 -1 9.132 10.196)"/><path d="m-1.553 2.071c.129-.776 1.55-1.941 1.941-2.07-.388-.131-1.812-1.297-1.941-2.071" style="fill:none;stroke-width:.6376;stroke-linecap:round;stroke-linejoin:round;stroke:#000;stroke-miterlimit:10" transform="matrix(.67242 .7401 .7401 -.67242 46.808 102.62)"/><path d="m8.75-101.91h25.645" fill="none" stroke="#000" stroke-miterlimit="10" stroke-width=".79701" transform="matrix(1 0 0 -1 9.132 10.196)"/><path d="m-1.552 2.07c.129-.775 1.55-1.94 1.941-2.07-.389-.127-1.812-1.295-1.941-2.073" style="fill:none;stroke-width:.6376;stroke-linecap:round;stroke-linejoin:round;stroke:#000;stroke-miterlimit:10" transform="matrix(1 0 0 -1 43.529 112.106)"/><use fill-opacity=".2" x="96.208" xlink:href="#e" y="10.915"/><use fill-opacity=".2" x="102.581" xlink:href="#g" y="12.41"/><use fill-opacity=".2" x="106.553" xlink:href="#h" y="12.41"/><use x="96.072" xlink:href="#e" y="61.87"/><use x="102.446" xlink:href="#h" y="63.364"/><use x="106.147" xlink:href="#h" y="63.364"/><use fill-opacity=".6" x="96.685" xlink:href="#e" y="112.825"/><g fill-opacity=".6"><use x="103.058" xlink:href="#i" y="114.319"/><use x="107.983" xlink:href="#h" y="114.319"/></g><path d="m153.68 0c0 5.41-4.386 9.798-9.8 9.798-5.41 0-9.797-4.387-9.797-9.797s4.387-9.797 9.797-9.797c5.414 0 9.8 4.387 9.8 9.797zm0 0" fill="none" stroke="#000" stroke-miterlimit="10" stroke-width=".79701" transform="matrix(1 0 0 -1 9.132 10.196)"/><use x="149.137" xlink:href="#l" y="12.687"/><path d="m153.27-50.956a9.795 9.795 0 0 1 -9.797 9.797 9.795 9.795 0 0 1 -9.796-9.797c0-5.41 4.386-9.797 9.796-9.797s9.797 4.386 9.797 9.797zm0 0" fill="none" stroke="#000" stroke-miterlimit="10" stroke-width=".79701" transform="matrix(1 0 0 -1 9.132 10.196)"/><use x="148.73" xlink:href="#l" y="63.641"/><path d="m155.11-101.91c0 5.41-4.387 9.797-9.797 9.797a9.795 9.795 0 0 1 -9.797-9.796 9.795 9.795 0 0 1 9.797-9.797c5.41 0 9.797 4.386 9.797 9.797zm0 0" fill="none" stroke="#000" stroke-miterlimit="10" stroke-width=".79701" transform="matrix(1 0 0 -1 9.132 10.196)"/><use x="150.568" xlink:href="#l" y="114.596"/><path d="m182.415-57.679h13.836v13.45h-13.836zm0 0" fill="none" stroke="#000" stroke-miterlimit="10" stroke-width=".79701" transform="matrix(1 0 0 -1 9.132 10.196)"/><use x="194.866" xlink:href="#m" y="64.554"/><use x="219.078" xlink:href="#a" y="62.921"/><use x="219.457" xlink:href="#b" y="62.921"/><use x="224.1" xlink:href="#n" y="59.305"/><use x="224.1" xlink:href="#h" y="65.514"/><path d="m55.013 0h25.644" fill="none" stroke="#000" stroke-miterlimit="10" stroke-opacity=".2" stroke-width=".79701" transform="matrix(1 0 0 -1 9.132 10.196)"/><path d="m-1.556 2.071c.133-.777 1.555-1.941 1.945-2.07-.389-.131-1.812-1.297-1.945-2.075" style="fill:none;stroke-width:.6376;stroke-linecap:round;stroke-linejoin:round;stroke:#000;stroke-opacity:.2;stroke-miterlimit:10" transform="matrix(1 0 0 -1 89.79 10.196)"/><path d="m54.876-50.956h25.648" fill="none" stroke="#000" stroke-miterlimit="10" stroke-width=".79701" transform="matrix(1 0 0 -1 9.132 10.196)"/><path d="m-1.553 2.073c.129-.777 1.555-1.945 1.941-2.073-.386-.13-1.812-1.294-1.941-2.071" style="fill:none;stroke-width:.6376;stroke-linecap:round;stroke-linejoin:round;stroke:#000;stroke-miterlimit:10" transform="matrix(1 0 0 -1 89.655 61.151)"/><path d="m55.49-101.91h25.644" fill="none" stroke="#000" stroke-miterlimit="10" stroke-opacity=".6" stroke-width=".79701" transform="matrix(1 0 0 -1 9.132 10.196)"/><path d="m-1.552 2.07c.129-.775 1.55-1.94 1.941-2.07-.389-.127-1.812-1.295-1.941-2.073" style="fill:none;stroke-width:.6376;stroke-linecap:round;stroke-linejoin:round;stroke:#000;stroke-opacity:.6;stroke-miterlimit:10" transform="matrix(1 0 0 -1 90.267 112.106)"/><path d="m8.274-4.769c42.918-24.926 83.73-25.031 124.438-1.671" fill="none" stroke="#000" stroke-miterlimit="10" stroke-width=".79701" transform="matrix(1 0 0 -1 9.132 10.196)"/><path d="m-1.555 2.074c.13-.778 1.555-1.944 1.944-2.075-.39-.129-1.814-1.293-1.94-2.071" style="fill:none;stroke-width:.6376;stroke-linecap:round;stroke-linejoin:round;stroke:#000;stroke-miterlimit:10" transform="matrix(.86730541 -.49771611 -.49771611 -.86730541 141.843855 16.637317)"/><path d="m62.845-31.75h17.539v16.41h-17.54zm0 0" fill="#fff" stroke="#000" stroke-miterlimit="10" stroke-width=".79701" transform="matrix(1 0 0 -1 9.132 10.196)"/><use x="75.296" xlink:href="#f" y="35.774"/><use x="80.174" xlink:href="#k" y="37.268"/><path d="m8.138-55.648c42.812-24.902 83.539-25.031 124.164-1.746" fill="none" stroke="#000" stroke-miterlimit="10" stroke-width=".79701" transform="matrix(1 0 0 -1 9.132 10.196)"/><path d="m-1.555 2.072c.131-.777 1.556-1.944 1.942-2.071-.385-.13-1.81-1.296-1.94-2.072" style="fill:none;stroke-width:.6376;stroke-linecap:round;stroke-linejoin:round;stroke:#000;stroke-miterlimit:10" transform="matrix(.86758326 -.49721152 -.49721152 -.86758326 141.434531 67.59142)"/><path d="m62.563-82.628h17.54v16.41h-17.54zm0 0" fill="#fff" stroke="#000" stroke-miterlimit="10" stroke-width=".79701" transform="matrix(1 0 0 -1 9.132 10.196)"/><use x="75.014" xlink:href="#f" y="86.652"/><use x="79.891" xlink:href="#k" y="88.146"/><g clip-path="url(#o)"><path d="m8.75-106.952c43.126-24.926 84.583-24.942 125.391-1.407" fill="none" stroke="#000" stroke-miterlimit="10" stroke-width=".79701" transform="matrix(1 0 0 -1 9.132 10.196)"/></g><path d="m-1.554 2.071c.13-.778 1.554-1.941 1.944-2.071-.39-.13-1.815-1.295-1.944-2.073" style="fill:none;stroke-width:.6376;stroke-linecap:round;stroke-linejoin:round;stroke:#000;stroke-miterlimit:10" transform="matrix(.86623483 -.49961708 -.49961708 -.86623483 143.273856 118.552476)"/><g clip-path="url(#p)"><path d="m63.837-133.867h17.539v16.41h-17.54zm0 0" fill="#fff" stroke="#000" stroke-miterlimit="10" stroke-width=".79701" transform="matrix(1 0 0 -1 9.132 10.196)"/></g><use x="76.29" xlink:href="#f" y="137.889"/><use x="81.168" xlink:href="#k" y="139.383"/><g fill="none"><path d="m150.669-7.609 30.515-34.207" stroke="#000" stroke-miterlimit="10" stroke-width=".79701" transform="matrix(1 0 0 -1 9.132 10.196)"/><path d="m-1.555 2.074c.133-.779 1.555-1.942 1.944-2.075-.388-.13-1.813-1.293-1.943-2.073" stroke="#000" stroke-linecap="round" stroke-linejoin="round" stroke-miterlimit="10" stroke-width=".6376" transform="matrix(.66565 .7462 .7462 -.66565 190.316 52.014)"/><path d="m153.669-50.956h25.648" stroke="#000" stroke-miterlimit="10" stroke-width=".79701" transform="matrix(1 0 0 -1 9.132 10.196)"/><path d="m-1.554 2.073c.128-.777 1.554-1.945 1.94-2.073-.386-.13-1.811-1.294-1.939-2.071" stroke="#000" stroke-linecap="round" stroke-linejoin="round" stroke-miterlimit="10" stroke-width=".6376" transform="matrix(1 0 0 -1 188.449 61.151)"/><path d="m151.977-94.195 29.438 34.075" stroke="#000" stroke-miterlimit="10" stroke-width=".79701" transform="matrix(1 0 0 -1 9.132 10.196)"/><path d="m-1.552 2.073c.129-.777 1.55-1.944 1.94-2.073-.39-.13-1.812-1.297-1.94-2.074" stroke="#000" stroke-linecap="round" stroke-linejoin="round" stroke-miterlimit="10" stroke-width=".6376" transform="matrix(.65374444 -.75667576 -.75667576 -.65374444 190.550218 70.317774)"/><path d="m105.34 0h25.645" stroke="#000" stroke-miterlimit="10" stroke-opacity=".2" stroke-width=".79701" transform="matrix(1 0 0 -1 9.132 10.196)"/><path d="m-1.556 2.071c.133-.777 1.556-1.941 1.946-2.07-.39-.131-1.813-1.297-1.946-2.075" style="stroke-width:.6376;stroke-linecap:round;stroke-linejoin:round;stroke:#000;stroke-opacity:.2;stroke-miterlimit:10" transform="matrix(1 0 0 -1 140.118 10.196)"/><path d="m104.93-50.956h25.649" stroke="#000" stroke-miterlimit="10" stroke-width=".79701" transform="matrix(1 0 0 -1 9.132 10.196)"/><path d="m-1.554 2.073c.13-.777 1.555-1.945 1.942-2.073-.388-.13-1.813-1.294-1.942-2.071" stroke="#000" stroke-linecap="round" stroke-linejoin="round" stroke-miterlimit="10" stroke-width=".6376" transform="matrix(1 0 0 -1 139.71 61.151)"/><path d="m106.77-101.91h25.645" stroke="#000" stroke-miterlimit="10" stroke-opacity=".6" stroke-width=".79701" transform="matrix(1 0 0 -1 9.132 10.196)"/><path d="m-1.556 2.07c.133-.775 1.556-1.94 1.946-2.07-.391-.128-1.813-1.296-1.946-2.074" style="stroke-width:.6376;stroke-linecap:round;stroke-linejoin:round;stroke:#000;stroke-opacity:.6;stroke-miterlimit:10" transform="matrix(1 0 0 -1 141.548 112.106)"/><path d="m196.65-50.956h7.265" stroke="#000" stroke-miterlimit="10" stroke-width=".79701" transform="matrix(1 0 0 -1 9.132 10.196)"/><path d="m-1.553 2.073c.13-.777 1.555-1.945 1.943-2.073-.388-.13-1.814-1.294-1.943-2.071" stroke="#000" stroke-linecap="round" stroke-linejoin="round" stroke-miterlimit="10" stroke-width=".6376" transform="matrix(1 0 0 -1 213.045 61.151)"/></g></svg>