<svg xmlns="http://www.w3.org/2000/svg" xmlns:xlink="http://www.w3.org/1999/xlink" width="446.248" height="282.787" viewBox="0 0 334.686 212.09"><defs><symbol overflow="visible" id="a"><path d="M4.5-4.297c0-.047-.031-.094-.094-.094-.11 0-.515.391-.672.688-.218-.547-.609-.703-.937-.703-1.172 0-2.39 1.468-2.39 2.922C.406-.516.983.109 1.718.109c.422 0 .812-.234 1.172-.593-.094.343-.422 1.687-.454 1.78-.078.282-.156.313-.718.329-.125 0-.219 0-.219.203 0 0 0 .11.125.11.313 0 .672-.032 1-.032.328 0 .688.032 1.031.032.047 0 .172 0 .172-.204 0-.109-.094-.109-.265-.109-.47 0-.47-.063-.47-.156 0-.078.016-.14.032-.219zM1.75-.109c-.61 0-.64-.766-.64-.938 0-.484.28-1.562.452-1.984.313-.735.829-1.156 1.235-1.156.656 0 .797.812.797.875 0 .062-.547 2.25-.578 2.28-.157.282-.72.923-1.266.923zm0 0"/></symbol><symbol overflow="visible" id="k"><path d="M3.016-3.156h1.703c1.406 0 2.797-1.031 2.797-2.14 0-.782-.657-1.516-1.97-1.516H2.329c-.187 0-.297 0-.297.187 0 .125.078.125.281.125.126 0 .313.016.422.016.172.03.22.046.22.171 0 .032 0 .063-.032.188L1.578-.781c-.094.39-.11.469-.906.469-.156 0-.266 0-.266.187 0 .125.11.125.14.125.282 0 .985-.031 1.266-.031.22 0 .438.015.641.015.219 0 .438.016.64.016.079 0 .204 0 .204-.203 0-.11-.094-.11-.281-.11-.36 0-.641 0-.641-.171 0-.063.016-.11.031-.172zm.718-2.969c.094-.344.11-.375.547-.375h.953c.829 0 1.36.266 1.36.953 0 .39-.203 1.25-.594 1.61-.5.453-1.094.53-1.531.53H3.062zm0 0"/></symbol><symbol overflow="visible" id="l"><path d="M3.734-6.125c.063-.234.094-.328.282-.36.093-.015.406-.015.609-.015.703 0 1.813 0 1.813.984 0 .344-.157 1.032-.547 1.422-.266.25-.782.578-1.688.578h-1.11zm1.438 2.734c1.016-.218 2.187-.921 2.187-1.921 0-.86-.89-1.5-2.203-1.5H2.328c-.203 0-.297 0-.297.203 0 .109.094.109.281.109.016 0 .204 0 .376.016.187.03.265.03.265.171 0 .032 0 .063-.031.188L1.578-.781c-.094.39-.11.469-.906.469-.172 0-.266 0-.266.203C.406 0 .531 0 .546 0c.282 0 .985-.031 1.25-.031.282 0 1 .031 1.282.031.078 0 .188 0 .188-.203 0-.11-.079-.11-.282-.11-.359 0-.64 0-.64-.171 0-.063.015-.11.031-.172l.656-2.64H4.22c.906 0 1.078.562 1.078.905 0 .141-.078.454-.14.688-.063.281-.157.64-.157.844C5 .219 6.203.219 6.328.219c.844 0 1.203-1 1.203-1.14 0-.126-.11-.126-.125-.126-.093 0-.11.063-.125.14-.25.735-.687.907-.906.907-.328 0-.406-.219-.406-.61 0-.312.062-.812.11-1.14.015-.14.03-.328.03-.469 0-.765-.671-1.078-.937-1.172zm0 0"/></symbol><symbol overflow="visible" id="p"><path d="M6.031-3.703c0-.453-.172-.703-.406-.703-.25 0-.516.234-.516.468 0 .094.047.204.141.297.172.157.36.422.36.844 0 .39-.204.969-.5 1.422-.298.422-.673.766-1.141.766-.563 0-.875-.36-.969-.891.11-.266.344-.906.344-1.188 0-.109-.047-.218-.188-.218-.078 0-.187.031-.265.172-.11.203-.235.843-.235 1.203-.328.468-.719.922-1.344.922-.671 0-.875-.594-.875-1.141 0-1.25 1.016-2.297 1.016-2.422a.18.18 0 0 0-.187-.187c-.125 0-.204.125-.266.218-.5.735-.875 1.922-.875 2.829C.125-.625.344.109 1.172.109c.703 0 1.172-.5 1.531-1.046.094.578.485 1.046 1.094 1.046.781 0 1.25-.609 1.61-1.359.25-.484.624-1.844.624-2.453zm0 0"/></symbol><symbol overflow="visible" id="q"><path d="M4.375-7.094c.047-.14.047-.172.047-.187 0-.11-.078-.203-.188-.203-.078 0-.14.03-.171.093l-3.47 9.5c-.046.141-.046.172-.046.188 0 .11.094.203.203.203.125 0 .156-.078.219-.25zm0 0"/></symbol><symbol overflow="visible" id="b"><path d="M2.328-4.438c0-.187 0-.187-.203-.187-.453.438-1.078.438-1.36.438v.25c.157 0 .626 0 1-.188v3.547c0 .234 0 .328-.687.328H.812V0c.125 0 .985-.031 1.235-.031.219 0 1.094.031 1.25.031v-.25H3.03c-.703 0-.703-.094-.703-.328zm0 0"/></symbol><symbol overflow="visible" id="d"><path d="M3.516-1.266H3.28c-.015.157-.094.563-.187.625-.047.047-.578.047-.688.047H1.125c.734-.64.984-.844 1.39-1.172.516-.406 1-.843 1-1.5 0-.843-.734-1.359-1.624-1.359-.86 0-1.454.61-1.454 1.25 0 .344.297.39.376.39.156 0 .359-.124.359-.374 0-.125-.047-.375-.406-.375.218-.485.687-.641 1.015-.641.703 0 1.063.547 1.063 1.11 0 .609-.438 1.078-.656 1.328L.516-.266C.437-.203.437-.187.437 0h2.876zm0 0"/></symbol><symbol overflow="visible" id="e"><path d="M3.375 9.25c.25 0 .266-.016.344-.172l4.36-9.094c.046-.109.046-.125.046-.14 0-.094-.063-.157-.156-.157-.11 0-.14.063-.172.157l-4.11 8.578-1.703-3.953-1.109.843.125.125.563-.421zm0 0"/></symbol><symbol overflow="visible" id="f"><path d="M1.016-.61l.843-.828c1.235-1.093 1.72-1.53 1.72-2.328 0-.906-.72-1.546-1.688-1.546-.907 0-1.5.734-1.5 1.453 0 .437.406.437.437.437a.41.41 0 0 0 .406-.422.398.398 0 0 0-.421-.406h-.11c.188-.516.625-.813 1.078-.813.735 0 1.078.641 1.078 1.297 0 .641-.406 1.266-.843 1.766L.484-.297C.391-.203.391-.187.391 0h2.968l.22-1.39h-.204c-.031.25-.094.593-.172.718-.062.063-.578.063-.75.063zm0 0"/></symbol><symbol overflow="visible" id="g"><path d="M5.64-1.86c.016-.03.048-.093.048-.109 0 0 0-.093-.094-.093-.078 0-.094.046-.11.109C4.97-.781 4.672-.25 3.313-.25H1.969c-.078-.016-.11-.016-.11-.078 0-.031 0-.047.047-.188l.547-2.171h.781c.672 0 .672.156.672.359 0 .062 0 .156-.047.39-.015.047-.03.063-.03.094 0 .032.03.078.108.078.063 0 .094-.03.126-.156l.453-1.86a.1.1 0 0 0-.094-.093c-.078 0-.094.047-.125.14-.156.61-.297.797-1.031.797h-.75l.468-1.921c.079-.282.079-.313.438-.313h1.125c.969 0 1.203.234 1.203.89 0 .188 0 .204-.031.423v.14c0 .031.015.094.093.094.079 0 .094-.047.11-.203l.156-1.375c.031-.219-.016-.219-.219-.219H1.844c-.157 0-.235 0-.235.156 0 .094.063.094.22.094.296 0 .515 0 .515.14 0 .032 0 .048-.047.188L1.25-.625c-.078.313-.094.375-.719.375-.14 0-.234 0-.234.156C.297 0 .375 0 .53 0h4.125c.188 0 .203-.016.25-.14zm0 0"/></symbol><symbol overflow="visible" id="h"><path d="M3.5-5.672c.031-.11.031-.14.031-.14 0-.094-.062-.157-.156-.157-.047 0-.11.016-.125.063L.484 1.687c-.046.11-.046.141-.046.141 0 .094.078.156.156.156.11 0 .125-.046.172-.187zm0 0"/></symbol><symbol overflow="visible" id="i"><path d="M.703-.469c-.031.125-.078.297-.078.344 0 .14.11.219.234.219.094 0 .235-.063.297-.235 0-.015.11-.39.157-.578l.171-.719c.047-.187.094-.359.141-.53.031-.141.094-.376.094-.407.125-.25.547-.969 1.297-.969.359 0 .437.297.437.563 0 .187-.062.422-.125.656l-.219.922-.156.61c-.031.155-.11.421-.11.468 0 .14.11.219.235.219.25 0 .297-.203.36-.453.109-.454.406-1.61.468-1.922.031-.11.453-1.063 1.328-1.063.329 0 .422.266.422.563 0 .453-.328 1.36-.5 1.781-.062.188-.093.281-.093.438a.64.64 0 0 0 .656.656c.75 0 1.031-1.172 1.031-1.235 0-.078-.063-.078-.094-.078-.078 0-.078.032-.11.14-.124.423-.374.985-.812.985-.14 0-.203-.078-.203-.25 0-.203.078-.39.157-.578.14-.406.484-1.297.484-1.75 0-.515-.328-.844-.922-.844-.594 0-1 .344-1.297.766-.015-.11-.031-.375-.25-.563-.203-.171-.453-.203-.656-.203-.719 0-1.11.5-1.25.688-.031-.453-.375-.688-.734-.688-.36 0-.516.297-.579.454-.156.28-.25.75-.25.765 0 .078.078.078.094.078.078 0 .094 0 .14-.187.126-.563.282-.938.579-.938.125 0 .25.063.25.36 0 .171-.031.265-.14.671zm0 0"/></symbol><symbol overflow="visible" id="j"><path d="M2.281-5.438c0-.015 0-.093-.094-.093-.187 0-.765.062-.968.078-.078.016-.157.016-.157.156 0 .094.063.094.188.094.39 0 .406.062.406.14l-.031.157L.469-.313c-.031.11-.031.126-.031.172 0 .188.156.235.234.235a.34.34 0 0 0 .265-.172c.047-.078.407-1.547.454-1.75.265.031.921.156.921.687 0 .047 0 .079-.03.157a1.932 1.932 0 0 0-.032.28c0 .47.328.798.734.798.25 0 .454-.14.641-.422a3.39 3.39 0 0 0 .281-.813c0-.078-.078-.078-.094-.078-.078 0-.093.032-.109.14C3.531-.5 3.36-.093 3-.093c-.14 0-.25-.078-.25-.375 0-.125.031-.312.063-.437.03-.14.03-.172.03-.25 0-.516-.5-.75-1.171-.828.234-.157.5-.407.672-.594.39-.422.75-.766 1.14-.766h.079c.093.016.109.016.171.063l.032.031a.453.453 0 0 0-.454.438c0 .124.079.28.297.28.204 0 .438-.171.438-.484 0-.25-.188-.5-.547-.5-.219 0-.578.063-1.156.688-.266.312-.578.625-.89.75zm0 0"/></symbol><symbol overflow="visible" id="m"><path d="M1.75-4.297v-1.156c0-.875.469-1.36.906-1.36.031 0 .188 0 .328.079a.443.443 0 0 0-.296.421c0 .22.156.422.437.422s.438-.203.438-.437c0-.375-.376-.703-.907-.703-.687 0-1.547.531-1.547 1.593v1.141H.33v.313h.78V-.75c0 .438-.109.438-.765.438V0c.39-.016.86-.031 1.125-.031.406 0 .875 0 1.265.031v-.313h-.203c-.734 0-.75-.109-.75-.468v-3.203h1.125v-.313zm0 0"/></symbol><symbol overflow="visible" id="n"><path d="M4.688-2.14c0-1.266-.985-2.329-2.188-2.329C1.25-4.469.281-3.375.281-2.14A2.22 2.22 0 0 0 2.484.11c1.204 0 2.204-.984 2.204-2.25zM2.5-.14c-.438 0-.875-.204-1.14-.672-.25-.438-.25-1.047-.25-1.407 0-.39 0-.922.234-1.36a1.347 1.347 0 0 1 1.14-.671c.438 0 .86.219 1.125.656.266.422.266 1 .266 1.375 0 .36 0 .906-.219 1.344-.234.453-.672.734-1.156.734zm0 0"/></symbol><symbol overflow="visible" id="o"><path d="M1.672-3.313v-1.093l-1.39.11v.312c.702 0 .78.062.78.562V-.75c0 .438-.109.438-.78.438V0c.39-.016.859-.031 1.14-.031.39 0 .86 0 1.266.031v-.313h-.22c-.734 0-.75-.109-.75-.468v-1.531c0-.985.423-1.876 1.173-1.876.062 0 .093 0 .109.016-.031 0-.234.125-.234.39 0 .266.218.423.437.423a.421.421 0 0 0 .422-.438c0-.312-.313-.61-.734-.61-.735 0-1.094.673-1.22 1.095zm0 0"/></symbol><symbol overflow="visible" id="t"><path d="M6.844-3.266c.156 0 .343 0 .343-.187 0-.203-.187-.203-.328-.203H.891c-.141 0-.329 0-.329.203 0 .187.188.187.329.187zm.015 1.938c.141 0 .329 0 .329-.203 0-.188-.188-.188-.344-.188H.89c-.141 0-.329 0-.329.188 0 .203.188.203.329.203zm0 0"/></symbol><symbol overflow="visible" id="u"><path d="M1.266-.766l1.062-1.03c1.547-1.376 2.14-1.907 2.14-2.907 0-1.14-.89-1.938-2.109-1.938C1.234-6.64.5-5.719.5-4.828c0 .547.5.547.531.547.172 0 .516-.11.516-.532a.513.513 0 0 0-.531-.515c-.079 0-.094 0-.125.016.218-.657.765-1.016 1.343-1.016.907 0 1.329.812 1.329 1.625 0 .797-.485 1.578-1.047 2.203L.609-.375C.5-.265.5-.235.5 0h3.703l.266-1.734h-.235C4.172-1.438 4.11-1 4-.844c-.063.078-.719.078-.938.078zm0 0"/></symbol><symbol overflow="visible" id="r"><path d="M5.469-2.297c.156 0 .343 0 .343-.203 0-.188-.187-.188-.343-.188H1.234C1.36-4.03 2.5-4.983 3.906-4.983H5.47c.156 0 .343 0 .343-.204 0-.203-.187-.203-.343-.203H3.89C2.187-5.39.828-4.094.828-2.5.828-.89 2.188.406 3.891.406h1.578c.156 0 .343 0 .343-.203S5.625 0 5.47 0H3.906C2.5 0 1.36-.953 1.234-2.297zm0 0"/></symbol><symbol overflow="visible" id="s"><path d="M4.766.094c1.406-.297 2.656-1.407 2.656-3.5 0-2.516-1.766-3.61-3.547-3.61-1.828 0-3.547 1.141-3.547 3.594 0 2.14 1.281 3.156 2.453 3.469A2.886 2.886 0 0 0 5.453 1.78c.5 0 1.047-.093 1.563-.297.187-.062.28-.109.28-.234a.173.173 0 0 0-.171-.172c-.016 0-.031 0-.094.016-.281.078-.39.078-.547.078A1.867 1.867 0 0 1 4.766.094zM2.5-6.391c-.61.704-.766 1.875-.766 2.97 0 .983.125 2.218.782 3C1.828-.672.672-1.47.672-3.407c0-2.031 1.234-2.781 1.828-3zm2.766-.015c.671.25 1.812 1.047 1.812 2.984 0 2.031-1.234 2.781-1.828 3 .61-.719.766-1.89.766-2.984 0-.985-.11-2.219-.766-2.985zM3.875-.156c-1.61 0-1.797-2.11-1.797-3.25 0-1.203.203-3.266 1.797-3.266 1.625 0 1.797 2.11 1.797 3.25 0 1.203-.203 3.266-1.797 3.266zM3.219.14c.281.047.656.047.656.047.047 0 .266 0 .547-.032A2.16 2.16 0 0 0 5.656 1.36c.094.047.11.047.11.063s-.188.016-.313.016A2.55 2.55 0 0 1 3.22.14zm0 0"/></symbol><clipPath id="c"><path d="M155 13h2v199.09h-2zm0 0"/></clipPath></defs><path d="M.398 112.48h311.106" fill="none" stroke-width="0.79701" stroke="rgb(0%,0%,0%)" stroke-miterlimit="10"/><path d="M309.95 110.406c.128.778 1.554 1.942 1.945 2.074-.391.13-1.817 1.293-1.946 2.07" fill="none" stroke-width="0.6376" stroke-linecap="round" stroke-linejoin="round" stroke="rgb(0%,0%,0%)" stroke-miterlimit="10"/><use xlink:href="#a" x="315.928" y="113.655" fill="rgb(0%,0%,0%)"/><use xlink:href="#b" x="320.376" y="115.149" fill="rgb(0%,0%,0%)"/><g clip-path="url(#c)"><path d="M156.305 211.691V13.973" fill="none" stroke-width="0.79701" stroke="rgb(0%,0%,0%)" stroke-miterlimit="10"/></g><path d="M154.23 15.527c.778-.129 1.946-1.554 2.075-1.941.129.387 1.293 1.812 2.07 1.941" fill="none" stroke-width="0.6376" stroke-linecap="round" stroke-linejoin="round" stroke="rgb(0%,0%,0%)" stroke-miterlimit="10"/><use xlink:href="#a" x="151.846" y="7.61" fill="rgb(0%,0%,0%)"/><use xlink:href="#d" x="156.293" y="9.105" fill="rgb(0%,0%,0%)"/><path d="M298.04 112.48c0-46.968-63.458-85.043-141.735-85.043-78.278 0-141.735 38.075-141.735 85.043 0 46.965 63.457 85.04 141.735 85.04 78.277 0 141.734-38.075 141.734-85.04zm0 0" fill="rgb(0%,0%,100%)" fill-opacity="0.05" stroke-width="0.79701" stroke="rgb(0%,0%,100%)" stroke-miterlimit="10"/><use xlink:href="#e" x="302.748" y="80.409" fill="rgb(0%,0%,0%)"/><path d="M310.719 80.25h21.312" fill="none" stroke-width=".3184" stroke="rgb(0%,0%,0%)" stroke-miterlimit="10"/><use xlink:href="#f" x="310.718" y="87.223" fill="rgb(0%,0%,0%)"/><use xlink:href="#g" x="314.703" y="87.223" fill="rgb(0%,0%,0%)"/><g fill="rgb(0%,0%,0%)"><use xlink:href="#h" x="321.049" y="87.223"/><use xlink:href="#i" x="325.034" y="87.223"/></g><path d="M298.04 112.48l13.835-19.851" fill="none" stroke-width="0.19925" stroke="rgb(50%,50%,50%)" stroke-miterlimit="10"/><use xlink:href="#e" x="176.535" y="5.257" fill="rgb(0%,0%,0%)"/><path d="M184.504 5.098h18.715" fill="none" stroke-width=".3184" stroke="rgb(0%,0%,0%)" stroke-miterlimit="10"/><use xlink:href="#f" x="184.505" y="12.071" fill="rgb(0%,0%,0%)"/><use xlink:href="#g" x="188.49" y="12.071" fill="rgb(0%,0%,0%)"/><g fill="rgb(0%,0%,0%)"><use xlink:href="#h" x="194.836" y="12.071"/><use xlink:href="#j" x="198.821" y="12.071"/></g><path d="M156.305 27.438l18.707-9.961" fill="none" stroke-width="0.19925" stroke="rgb(50%,50%,50%)" stroke-miterlimit="10"/><use xlink:href="#k" x="275.245" y="94.226" fill="rgb(0%,0%,100%)"/><path d="M47.73 167.14V57.817H264.88v109.325zm0 0" fill="rgb(100%,50%,0%)" fill-opacity="0.1" stroke-width="0.79701" stroke="rgb(100%,50%,0%)" stroke-miterlimit="10"/><use xlink:href="#l" x="94.524" y="72.865" fill="rgb(100%,50%,0%)"/><g fill="rgb(100%,50%,0%)"><use xlink:href="#m" x="105.486" y="72.865"/><use xlink:href="#n" x="108.531" y="72.865"/><use xlink:href="#o" x="113.512" y="72.865"/></g><use xlink:href="#p" x="120.734" y="72.865" fill="rgb(100%,50%,0%)"/><use xlink:href="#q" x="131.17" y="72.865" fill="rgb(100%,50%,0%)"/><use xlink:href="#r" x="130.06" y="72.865" fill="rgb(100%,50%,0%)"/><use xlink:href="#s" x="139.47" y="72.865" fill="rgb(100%,50%,0%)"/><path d="M165.164 162.727c29.527 0 100-103.09 97.543-103.09-2.46 0-85.738 103.09-115.262 103.09-29.527 0-100-103.09-97.543-103.09 2.457 0 85.735 103.09 115.262 103.09zm0 0" fill="none" stroke-width="0.79701" stroke="rgb(100%,0%,0%)" stroke-miterlimit="10"/><use xlink:href="#l" x="206.865" y="145.206" fill="rgb(100%,0%,0%)"/><g fill="rgb(100%,0%,0%)"><use xlink:href="#m" x="217.828" y="145.206"/><use xlink:href="#n" x="220.873" y="145.206"/><use xlink:href="#o" x="225.854" y="145.206"/></g><use xlink:href="#p" x="195.936" y="157.161" fill="rgb(100%,0%,0%)"/><use xlink:href="#t" x="205.262" y="157.161" fill="rgb(100%,0%,0%)"/><use xlink:href="#u" x="215.781" y="157.161" fill="rgb(100%,0%,0%)"/><use xlink:href="#r" x="223.527" y="157.161" fill="rgb(100%,0%,0%)"/><use xlink:href="#s" x="232.936" y="157.161" fill="rgb(100%,0%,0%)"/></svg>