<svg xmlns="http://www.w3.org/2000/svg" xmlns:xlink="http://www.w3.org/1999/xlink" width="434.375" height="293.601" viewBox="0 0 325.781 220.201"><defs><symbol overflow="visible" id="a"><path d="M.453 1.219c-.078.343-.11.406-.547.406-.11 0-.218 0-.218.188 0 .078.046.125.124.125.266 0 .563-.032.829-.032.343 0 .671.032 1 .032.046 0 .171 0 .171-.204 0-.109-.093-.109-.234-.109-.5 0-.5-.063-.5-.156 0-.125.422-1.75.484-2 .125.297.407.64.922.64 1.157 0 2.407-1.453 2.407-2.921 0-.938-.579-1.594-1.329-1.594-.5 0-.984.36-1.312.75-.094-.547-.531-.75-.89-.75-.47 0-.657.39-.735.562-.188.344-.313.938-.313.969 0 .11.094.11.11.11.11 0 .11-.016.172-.235.172-.703.375-1.188.734-1.188.172 0 .313.079.313.454 0 .234-.032.343-.079.515zm1.75-4.328c.063-.266.344-.547.516-.704.36-.296.64-.374.812-.374.39 0 .64.343.64.937 0 .594-.327 1.734-.515 2.11-.344.702-.812 1.03-1.187 1.03-.656 0-.781-.828-.781-.89 0-.016 0-.031.03-.156zm0 0"/></symbol><symbol overflow="visible" id="b"><path d="M6.266-5.672c.484-.781.906-.812 1.265-.828.125-.016.14-.172.14-.188 0-.078-.062-.125-.14-.125-.25 0-.547.032-.812.032-.328 0-.672-.032-.985-.032-.062 0-.187 0-.187.188 0 .11.078.125.156.125.266.016.453.125.453.328 0 .156-.14.375-.14.375L2.953-.922l-.687-5.281c0-.172.234-.297.687-.297.14 0 .25 0 .25-.203 0-.078-.078-.11-.125-.11-.406 0-.828.032-1.25.032h-.547c-.172 0-.36-.032-.531-.032-.078 0-.188 0-.188.188 0 .125.079.125.25.125.547 0 .563.094.594.344l.782 6.14c.03.204.078.235.203.235.156 0 .203-.047.28-.172zm0 0"/></symbol><symbol overflow="visible" id="h"><path d="M3.719-3.766c-.188-.375-.469-.64-.922-.64-1.156 0-2.39 1.468-2.39 2.922C.406-.547.952.109 1.718.109c.203 0 .703-.046 1.297-.75a.91.91 0 0 0 .906.75c.36 0 .578-.234.75-.546a6.49 6.49 0 0 0 .297-.985c0-.11-.094-.11-.125-.11-.094 0-.11.048-.14.188-.173.64-.345 1.235-.75 1.235-.282 0-.298-.266-.298-.454 0-.218.016-.312.125-.75.11-.406.125-.515.219-.89l.36-1.39c.062-.282.062-.298.062-.345 0-.171-.11-.265-.281-.265-.25 0-.391.219-.422.437zm-.64 2.579c-.063.187-.063.203-.204.375-.438.546-.844.703-1.125.703-.5 0-.64-.547-.64-.938 0-.5.312-1.719.546-2.187.313-.579.75-.954 1.157-.954.64 0 .78.813.78.875a.562.562 0 0 1-.03.172zm0 0"/></symbol><symbol overflow="visible" id="i"><path d="M2.375-6.813s0-.109-.125-.109c-.219 0-.953.078-1.219.11-.078 0-.187.015-.187.187 0 .125.094.125.25.125.468 0 .484.063.484.172 0 .062-.078.406-.125.61l-.828 3.25c-.11.5-.156.671-.156 1.015C.469-.516 1 .109 1.734.109c1.172 0 2.407-1.484 2.407-2.921 0-.907-.532-1.594-1.329-1.594-.453 0-.874.297-1.171.593zm-.922 3.766c.047-.219.047-.234.14-.344.485-.64.938-.796 1.204-.796.36 0 .625.296.625.937 0 .594-.328 1.734-.516 2.11-.328.671-.781 1.03-1.172 1.03-.343 0-.671-.265-.671-1 0-.202 0-.39.156-1.015zm0 0"/></symbol><symbol overflow="visible" id="j"><path d="M3.953-3.781c-.172 0-.297 0-.437.125a.53.53 0 0 0-.188.39c0 .25.188.36.375.36.281 0 .547-.25.547-.64 0-.485-.469-.86-1.172-.86-1.344 0-2.672 1.422-2.672 2.828C.406-.672.984.109 2.031.109c1.422 0 2.25-1.062 2.25-1.171 0-.063-.047-.141-.11-.141-.062 0-.077.031-.14.11-.781.984-1.875.984-1.984.984-.625 0-.906-.485-.906-1.094 0-.406.203-1.375.546-1.984.313-.579.86-1 1.407-1 .328 0 .719.125.86.406zm0 0"/></symbol><symbol overflow="visible" id="k"><path d="M5.14-6.813s0-.109-.124-.109c-.157 0-1.094.094-1.266.11-.078.015-.14.062-.14.187s.093.125.234.125c.484 0 .5.063.5.172l-.032.203-.593 2.36c-.188-.376-.469-.641-.922-.641-1.156 0-2.39 1.468-2.39 2.922C.406-.547.952.109 1.718.109c.203 0 .703-.046 1.297-.75a.91.91 0 0 0 .906.75c.36 0 .578-.234.75-.546a6.49 6.49 0 0 0 .297-.985c0-.11-.094-.11-.125-.11-.094 0-.11.048-.14.188-.173.64-.345 1.235-.75 1.235-.282 0-.298-.266-.298-.454 0-.25.016-.312.047-.484zM3.079-1.188c-.062.188-.062.204-.203.375-.438.547-.844.704-1.125.704-.5 0-.64-.547-.64-.938 0-.5.312-1.719.546-2.187.313-.579.75-.954 1.157-.954.64 0 .78.813.78.875a.562.562 0 0 1-.03.172zm0 0"/></symbol><symbol overflow="visible" id="m"><path d="M4.36-.063c1.546-.578 3.015-2.359 3.015-4.28 0-1.61-1.063-2.688-2.547-2.688-2.14 0-4.344 2.265-4.344 4.593C.484-.78 1.61.22 3.047.22c.25 0 .578-.047.969-.157-.032.625-.032.641-.032.782 0 .312 0 1.094.829 1.094C5.984 1.938 6.468.109 6.468 0c0-.063-.063-.094-.11-.094-.078 0-.093.047-.125.11C6 .719 5.422.969 5.078.969c-.469 0-.61-.266-.719-1.031zM2.483-.14C1.704-.453 1.36-1.219 1.36-2.125c0-.688.266-2.11 1.016-3.172.734-1.016 1.672-1.484 2.406-1.484.985 0 1.719.781 1.719 2.11 0 1-.516 3.343-2.188 4.265-.046-.344-.14-1.063-.875-1.063-.53 0-1.015.485-1.015 1.016 0 .187.062.297.062.312zm.61.11c-.14 0-.453 0-.453-.422 0-.406.375-.797.796-.797.422 0 .61.234.61.844 0 .14-.016.156-.11.203-.265.11-.562.172-.843.172zm0 0"/></symbol><symbol overflow="visible" id="c"><path d="M5.734-2.11c0-.609-.312-.968-1.046-.968-.563 0-.938.297-1.125.656-.141-.5-.516-.656-1.016-.656-.578 0-.938.312-1.14.687v-.687L.374-3v.25c.469 0 .531.047.531.39v1.813c0 .297-.078.297-.531.297V0c.016 0 .5-.031.797-.031.25 0 .734.031.797.031v-.25c-.453 0-.516 0-.516-.297v-1.265c0-.72.578-1.063 1.031-1.063.485 0 .547.375.547.734v1.594c0 .297-.062.297-.515.297V0c.015 0 .5-.031.796-.031.25 0 .735.031.797.031v-.25c-.453 0-.515 0-.515-.297v-1.265c0-.72.578-1.063 1.031-1.063.484 0 .547.375.547.734v1.594c0 .297-.063.297-.516.297V0c.016 0 .5-.031.797-.031.25 0 .734.031.797.031v-.25c-.453 0-.516 0-.516-.297zm0 0"/></symbol><symbol overflow="visible" id="d"><path d="M3.11-1.875c0-.36 0-.625-.329-.89C2.5-3 2.171-3.11 1.75-3.11c-.656 0-1.125.25-1.125.671 0 .235.156.344.344.344a.32.32 0 0 0 .328-.328.319.319 0 0 0-.25-.312c.25-.172.656-.172.687-.172.391 0 .829.25.829.844v.203c-.391.015-.844.046-1.36.234-.625.219-.812.61-.812.922 0 .594.718.765 1.218.765.547 0 .875-.312 1.032-.578.015.282.203.547.53.547.017 0 .688 0 .688-.656v-.39h-.234v.374c0 .079 0 .407-.266.407-.25 0-.25-.329-.25-.407zm-.547.89c0 .672-.594.86-.907.86-.36 0-.687-.234-.687-.578 0-.39.328-.922 1.594-.969zm0 0"/></symbol><symbol overflow="visible" id="e"><path d="M2.36-1.563l-.047-.062c0-.031.453-.516.515-.578.25-.281.485-.547 1.047-.547V-3c-.203.016-.406.031-.594.031-.203 0-.484-.015-.687-.031v.25c.11.016.14.094.14.156 0 .016 0 .125-.109.235l-.484.546-.579-.656c-.078-.078-.078-.11-.078-.14 0-.094.094-.141.188-.141V-3c-.25.016-.516.031-.781.031-.204 0-.47-.015-.672-.031v.25c.312 0 .5 0 .687.203l.86 1c.015.016.062.063.062.078 0 .016-.531.594-.594.672-.265.281-.5.531-1.046.547V0C.39-.016.546-.031.765-.031c.203 0 .484.015.687.031v-.25c-.078-.016-.14-.063-.14-.156 0-.14.078-.235.187-.344l.5-.547.594.703c.14.14.14.156.14.203 0 .125-.156.141-.187.141V0c.062 0 .562-.031.781-.031.219 0 .453.015.672.031v-.25c-.469 0-.516-.047-.688-.219zm0 0"/></symbol><symbol overflow="visible" id="f"><path d="M1.469-4.297a.413.413 0 0 0-.407-.406.4.4 0 0 0-.39.406.4.4 0 0 0 .39.406.394.394 0 0 0 .407-.406zM.406-3v.25c.438 0 .5.047.5.39v1.813c0 .297-.062.297-.515.297V0c.015 0 .5-.031.78-.031.25 0 .5.015.735.031v-.25c-.406 0-.468 0-.468-.297v-2.531zm0 0"/></symbol><symbol overflow="visible" id="g"><path d="M3.594-2.11c0-.609-.297-.968-1.047-.968-.578 0-.938.312-1.14.687v-.687L.374-3v.25c.469 0 .531.047.531.39v1.813c0 .297-.078.297-.531.297V0c.016 0 .5-.031.797-.031.25 0 .734.031.797.031v-.25c-.453 0-.516 0-.516-.297v-1.265c0-.72.578-1.063 1.031-1.063.485 0 .547.375.547.734v1.594c0 .297-.062.297-.515.297V0c.015 0 .5-.031.796-.031.25 0 .735.031.797.031v-.25c-.453 0-.515 0-.515-.297zm0 0"/></symbol><symbol overflow="visible" id="l"><path d="M7.234-3.266c.422.36.938.625 1.266.766-.36.172-.86.422-1.266.781H.906c-.172 0-.36 0-.36.188 0 .203.188.203.345.203h5.89C6.313-.875 5.797.016 5.797.14c0 .109.125.109.187.109.079 0 .141 0 .188-.078.203-.375.484-.906 1.14-1.484a4.733 4.733 0 0 1 1.875-1.032c.157-.062.172-.062.188-.094.031 0 .031-.03.031-.062 0-.016 0-.031-.015-.047l-.032-.031c-.015 0-.03-.016-.218-.078a4.761 4.761 0 0 1-2.907-2.375c-.109-.188-.109-.203-.25-.203-.062 0-.187 0-.187.109 0 .125.5 1 .984 1.469H.891c-.157 0-.344 0-.344.203 0 .187.187.187.36.187zm0 0"/></symbol><symbol overflow="visible" id="n"><path d="M1.844-4.625c0-.016.031-.11.031-.11 0-.046-.031-.109-.125-.109-.14 0-.719.063-.89.078-.047 0-.157.016-.157.157 0 .093.11.093.188.093.328 0 .328.063.328.11s-.063.328-.11.484l-.156.64C.891-3.031.516-1.515.5-1.421c-.047.172-.047.266-.047.344 0 .703.453 1.14 1.031 1.14.875 0 1.797-.937 1.797-1.968 0-.813-.562-1.172-1.047-1.172-.359 0-.671.203-.875.39zm-.36 4.5c-.328 0-.53-.297-.53-.719 0-.25.062-.484.265-1.281.031-.125.031-.14.172-.297.265-.297.578-.453.828-.453.265 0 .5.203.5.672 0 .281-.14 1-.36 1.406-.171.344-.515.672-.875.672zm0 0"/></symbol><symbol overflow="visible" id="o"><path d="M3.047-2.672c-.25.047-.344.235-.344.39 0 .188.14.266.266.266.156 0 .39-.109.39-.453 0-.469-.53-.61-.906-.61-1.047 0-2.015.97-2.015 1.938 0 .594.406 1.204 1.28 1.204 1.188 0 1.735-.688 1.735-.782 0-.047-.062-.125-.125-.125-.031 0-.047.016-.11.078-.546.641-1.359.641-1.484.641-.5 0-.718-.344-.718-.781 0-.188.093-.953.453-1.438.265-.344.625-.531.984-.531.094 0 .422.016.594.203zm0 0"/></symbol><symbol overflow="visible" id="p"><path d="M3.984-4.625c0-.016.016-.11.016-.11 0-.046-.016-.109-.11-.109-.14 0-.718.063-.89.078-.047 0-.156.016-.156.157 0 .093.11.093.187.093.328 0 .328.063.328.11s0 .093-.015.156l-.406 1.594c-.141-.235-.376-.422-.72-.422-.89 0-1.796.984-1.796 1.984C.422-.406.875.063 1.484.063c.375 0 .704-.204.985-.485.125.422.531.484.719.484.25 0 .421-.14.546-.359.157-.281.25-.672.25-.703 0-.094-.093-.094-.109-.094-.11 0-.11.032-.156.219-.094.344-.219.75-.516.75-.172 0-.234-.156-.234-.344 0-.125.015-.187.047-.281zM2.5-.875c-.047.203-.203.344-.36.469-.062.062-.343.281-.64.281-.266 0-.516-.188-.516-.672 0-.375.204-1.14.375-1.422.313-.562.672-.656.86-.656.484 0 .625.531.625.61 0 .015-.016.078-.016.093zm0 0"/></symbol><symbol overflow="visible" id="q"><path d="M2.938-2.656c-.141-.235-.376-.422-.72-.422-.89 0-1.796.984-1.796 1.984C.422-.406.875.063 1.484.063c.375 0 .704-.204.985-.485.125.422.531.484.719.484.25 0 .421-.14.546-.359.157-.281.25-.672.25-.703 0-.094-.093-.094-.109-.094-.11 0-.11.032-.156.219-.094.344-.219.75-.516.75-.172 0-.234-.156-.234-.344 0-.11.062-.375.11-.547.046-.187.124-.468.155-.625l.141-.53c.047-.188.125-.517.125-.548 0-.156-.125-.219-.234-.219-.125 0-.282.079-.329.282zM2.5-.875c-.047.203-.203.344-.36.469-.062.062-.343.281-.64.281-.266 0-.516-.188-.516-.672 0-.375.204-1.14.375-1.422.313-.562.672-.656.86-.656.484 0 .625.531.625.61 0 .015-.016.078-.016.093zm0 0"/></symbol></defs><path d="M27.254 204.86V7.14" fill="none" stroke-width="0.79701" stroke="rgb(0%,0%,0%)" stroke-miterlimit="10"/><path d="M25.18 8.691c.777-.129 1.941-1.55 2.074-1.941.129.39 1.293 1.813 2.07 1.941" fill="none" stroke-width="0.6376" stroke-linecap="round" stroke-linejoin="round" stroke="rgb(0%,0%,0%)" stroke-miterlimit="10"/><use xlink:href="#a" x="30.971" y="7.61" fill="rgb(0%,0%,0%)"/><path d="M27.254 204.86h282.758" fill="none" stroke-width="0.79701" stroke="rgb(0%,0%,0%)" stroke-miterlimit="10"/><path d="M308.457 202.785c.133.778 1.555 1.945 1.945 2.074-.39.13-1.812 1.293-1.945 2.07" fill="none" stroke-width="0.6376" stroke-linecap="round" stroke-linejoin="round" stroke="rgb(0%,0%,0%)" stroke-miterlimit="10"/><use xlink:href="#b" x="314.435" y="208.263" fill="rgb(0%,0%,0%)"/><path d="M27.254 26.273h56.691V204.86" fill="none" stroke-width="0.79701" stroke="rgb(0%,0%,0%)" stroke-dasharray="2.98883,2.98883" stroke-miterlimit="10"/><use xlink:href="#a" x="3.321" y="27.454" fill="rgb(0%,0%,0%)"/><g fill="rgb(0%,0%,0%)"><use xlink:href="#c" x="8.333" y="28.948"/><use xlink:href="#d" x="14.878" y="28.948"/><use xlink:href="#e" x="18.849" y="28.948"/></g><use xlink:href="#b" x="74.189" y="215.386" fill="rgb(0%,0%,0%)"/><g fill="rgb(0%,0%,0%)"><use xlink:href="#c" x="80" y="216.88"/><use xlink:href="#f" x="86.545" y="216.88"/><use xlink:href="#g" x="88.8" y="216.88"/></g><path d="M27.254 165.176H282.37v39.683" fill="none" stroke-width="0.79701" stroke="rgb(0%,0%,0%)" stroke-dasharray="2.98883,2.98883" stroke-miterlimit="10"/><use xlink:href="#a" x="4.822" y="166.351" fill="rgb(0%,0%,0%)"/><g fill="rgb(0%,0%,0%)"><use xlink:href="#c" x="9.834" y="167.845"/><use xlink:href="#f" x="16.379" y="167.845"/><use xlink:href="#g" x="18.634" y="167.845"/></g><use xlink:href="#b" x="271.863" y="215.386" fill="rgb(0%,0%,0%)"/><g fill="rgb(0%,0%,0%)"><use xlink:href="#c" x="277.674" y="216.88"/><use xlink:href="#d" x="284.219" y="216.88"/><use xlink:href="#e" x="288.19" y="216.88"/></g><use xlink:href="#h" x="81.311" y="22.559" fill="rgb(0%,0%,0%)"/><use xlink:href="#i" x="286.087" y="109.106" fill="rgb(0%,0%,0%)"/><use xlink:href="#j" x="286.087" y="167.32" fill="rgb(0%,0%,0%)"/><use xlink:href="#k" x="75.04" y="89.262" fill="rgb(0%,0%,0%)"/><path d="M85.938 26.273a1.993 1.993 0 1 0-1.993 1.997 1.994 1.994 0 0 0 1.993-1.997zm396.85 158.744c85.938 25.171 85.048 24.28 83.946 24.28a1.99 1.99 0 0 0-1.992 1.993 1.99 1.99 0 0 0 1.992 1.992 1.99 1.99 0 0 0 1.992-1.992zM370.302 250.98c198.425 78.27 197.535 77.376 196.433 77.376a1.994 1.994 0 0 0 0 3.988 1.993 1.993 0 0 0 1.992-1.992zm0-.006c85.938 84.702 85.047 83.812 83.945 83.812a1.99 1.99 0 0 0-1.992 1.992 1.99 1.99 0 0 0 1.992 1.992 1.99 1.99 0 0 0 1.993-1.992zM85.938 85.8" fill="rgb(0%,0%,0%)"/><path d="M282.371 105.645v59.53M83.945 85.802V26.273m0 0c37.598 44.809 139.938 79.372 198.426 79.372" fill="none" stroke-width="1.59404" stroke="rgb(0%,0%,54.499817%)" stroke-miterlimit="10"/><use xlink:href="#l" x="286.486" y="137.846" fill="rgb(0%,0%,100%)"/><use xlink:href="#m" x="299.216" y="137.846" fill="rgb(0%,0%,100%)"/><g fill="rgb(0%,0%,100%)"><use xlink:href="#n" x="307.092" y="139.34"/><use xlink:href="#o" x="310.596" y="139.34"/></g><path d="M282.371 165.176c-58.488 0-160.828-34.57-198.426-79.375" fill="none" stroke-width="1.59404" stroke="rgb(0%,0%,54.499817%)" stroke-miterlimit="10"/><use xlink:href="#m" x="50.254" y="58.476" fill="rgb(100%,0%,0%)"/><g fill="rgb(100%,0%,0%)"><use xlink:href="#p" x="58.13" y="59.97"/><use xlink:href="#q" x="62.277" y="59.97"/></g><use xlink:href="#l" x="69.864" y="58.476" fill="rgb(100%,0%,0%)"/></svg>