<svg xmlns="http://www.w3.org/2000/svg" xmlns:xlink="http://www.w3.org/1999/xlink" width="288.751" height="224.985" viewBox="0 0 216.563 168.739"><defs><symbol overflow="visible" id="b"><path style="stroke:none" d="M4.578-3.188c0-.796-.047-1.593-.39-2.328C3.733-6.484 2.905-6.64 2.5-6.64c-.61 0-1.328.266-1.75 1.188-.313.687-.36 1.469-.36 2.266 0 .75.032 1.64.454 2.406a1.83 1.83 0 0 0 1.64 1c.532 0 1.297-.203 1.735-1.157.312-.687.36-1.468.36-2.25ZM2.484 0c-.39 0-.984-.25-1.156-1.203-.11-.594-.11-1.516-.11-2.11 0-.64 0-1.296.079-1.828.187-1.187.937-1.28 1.187-1.28.329 0 .985.187 1.172 1.171.11.563.11 1.313.11 1.938 0 .75 0 1.421-.11 2.062C3.5-.297 2.937 0 2.484 0Zm0 0"/></symbol><symbol overflow="visible" id="d"><path style="stroke:none" d="M4.469-2c0-1.188-.813-2.188-1.89-2.188-.47 0-.907.157-1.267.516v-1.953c.204.063.532.125.844.125 1.235 0 1.938-.906 1.938-1.031 0-.063-.032-.11-.11-.11 0 0-.03 0-.078.032a3.22 3.22 0 0 1-1.36.296 3.4 3.4 0 0 1-1.327-.28c-.078-.032-.094-.032-.11-.032C1-6.625 1-6.547 1-6.391v2.954c0 .171 0 .25.14.25.079 0 .094-.016.141-.079.11-.156.469-.703 1.282-.703.515 0 .765.453.843.64.156.376.188.75.188 1.25 0 .36 0 .954-.25 1.376-.235.39-.61.64-1.063.64-.719 0-1.297-.53-1.469-1.109.032 0 .063.016.172.016.329 0 .5-.25.5-.485 0-.25-.171-.5-.5-.5-.14 0-.484.079-.484.532C.5-.75 1.188.219 2.297.219 3.453.219 4.469-.734 4.469-2Zm0 0"/></symbol><symbol overflow="visible" id="e"><path style="stroke:none" d="M2.938-6.375c0-.25 0-.266-.235-.266C2.078-6 1.203-6 .891-6v.313c.203 0 .78 0 1.296-.266v5.172c0 .36-.03.469-.921.469H.953V0c.344-.031 1.203-.031 1.61-.031.39 0 1.265 0 1.609.031v-.313h-.313c-.906 0-.921-.109-.921-.468Zm0 0"/></symbol><symbol overflow="visible" id="f"><path style="stroke:none" d="m1.266-.766 1.062-1.03c1.547-1.376 2.14-1.907 2.14-2.907 0-1.14-.89-1.938-2.109-1.938A1.843 1.843 0 0 0 .5-4.828c0 .547.5.547.531.547.172 0 .516-.11.516-.532a.513.513 0 0 0-.531-.515c-.079 0-.094 0-.125.016.218-.657.765-1.016 1.343-1.016.907 0 1.329.812 1.329 1.625 0 .797-.485 1.578-1.047 2.203L.609-.375C.5-.265.5-.235.5 0h3.703l.266-1.734h-.235C4.172-1.438 4.11-1 4-.844c-.063.078-.719.078-.938.078Zm0 0"/></symbol><symbol overflow="visible" id="k"><path style="stroke:none" d="m1.766-6.922-1.438.11v.312c.703 0 .781.063.781.563V-.75c0 .438-.109.438-.78.438V0c.327-.016.859-.031 1.109-.031s.734.015 1.109.031v-.313c-.672 0-.781 0-.781-.437Zm0 0"/></symbol><symbol overflow="visible" id="l"><path style="stroke:none" d="M1.094-3.422V-.75c0 .438-.11.438-.782.438V0c.36-.016.86-.031 1.141-.031.25 0 .766.015 1.11.031v-.313c-.672 0-.782 0-.782-.437v-1.844c0-1.031.719-1.594 1.344-1.594.64 0 .75.532.75 1.11V-.75c0 .438-.11.438-.781.438V0c.344-.016.86-.031 1.125-.031.25 0 .781.015 1.11.031v-.313c-.516 0-.766 0-.766-.296v-1.907c0-.859 0-1.156-.313-1.515-.14-.172-.469-.375-1.047-.375-.734 0-1.203.422-1.484 1.047v-1.047l-1.407.11v.312c.704 0 .782.062.782.562Zm0 0"/></symbol><symbol overflow="visible" id="m"><path style="stroke:none" d="M3.297 2.39c0-.03 0-.046-.172-.218C1.891.922 1.562-.968 1.562-2.5c0-1.734.375-3.469 1.61-4.703.125-.125.125-.14.125-.172 0-.078-.031-.11-.094-.11-.11 0-1 .688-1.594 1.954C1.11-4.438.984-3.328.984-2.5c0 .781.11 1.984.657 3.125C2.25 1.844 3.094 2.5 3.203 2.5c.063 0 .094-.031.094-.11Zm0 0"/></symbol><symbol overflow="visible" id="n"><path style="stroke:none" d="M2.875-2.5c0-.766-.11-1.969-.656-3.11C1.625-6.827.766-7.483.672-7.483a.107.107 0 0 0-.11.109c0 .031 0 .047.188.234.984.985 1.547 2.563 1.547 4.641C2.297-.78 1.937.97.703 2.22c-.14.125-.14.14-.14.172 0 .062.046.109.109.109.094 0 1-.688 1.578-1.953.516-1.094.625-2.203.625-3.047Zm0 0"/></symbol><symbol overflow="visible" id="c"><path style="stroke:none" d="M1.906-.531a.534.534 0 0 0-.515-.531.537.537 0 0 0-.532.53.524.524 0 1 0 1.047 0Zm0 0"/></symbol><symbol overflow="visible" id="j"><path style="stroke:none" d="M3.328-3.016c.063-.25.297-1.171.985-1.171.046 0 .296 0 .5.125a.578.578 0 0 0-.47.546c0 .157.11.344.376.344a.546.546 0 0 0 .531-.578c0-.516-.578-.656-.922-.656-.578 0-.922.531-1.047.75-.25-.656-.781-.75-1.078-.75-1.031 0-1.61 1.281-1.61 1.531 0 .11.11.11.126.11.078 0 .11-.032.125-.11.344-1.063 1-1.313 1.344-1.313.187 0 .53.094.53.672 0 .313-.171.97-.53 2.375-.157.61-.516 1.032-.954 1.032-.062 0-.28 0-.5-.125.25-.063.47-.266.47-.547 0-.266-.22-.344-.36-.344-.313 0-.547.25-.547.578 0 .453.484.656.922.656.672 0 1.031-.703 1.047-.75.125.36.484.75 1.078.75 1.031 0 1.594-1.28 1.594-1.53 0-.11-.079-.11-.11-.11-.094 0-.11.047-.14.11-.329 1.077-1 1.312-1.313 1.312-.39 0-.547-.313-.547-.657 0-.218.047-.437.156-.875Zm0 0"/></symbol><symbol overflow="visible" id="g"><path style="stroke:none" d="M6.563-2.297c.171 0 .359 0 .359-.203 0-.188-.188-.188-.36-.188h-5.39c-.172 0-.344 0-.344.188 0 .203.172.203.344.203Zm0 0"/></symbol><clipPath id="a"><path d="M212 115h4.563v6H212Zm0 0"/></clipPath><clipPath id="h"><path d="M21.895.395h194.273V146H21.895Zm0 0"/></clipPath><clipPath id="i"><path d="M21.895 32h194.273v129.793H21.895Zm0 0"/></clipPath></defs><path style="fill:none;stroke-width:.79701;stroke-linecap:butt;stroke-linejoin:miter;stroke:#000;stroke-opacity:1;stroke-miterlimit:10" d="M35.975 41.711v4.254m35.977-4.254v4.254m35.976-4.254v4.254m35.977-4.254v4.254m35.976-4.254v4.254M-2.126 0h4.253m-4.253 87.676h4.253m-4.253 43.84h4.253m-2.128-87.68h191.683" transform="matrix(1 0 0 -1 21.896 161.793)"/><g clip-path="url(#a)"><path style="stroke:none;fill-rule:nonzero;fill:#000;fill-opacity:1" d="m216.168 117.957-4.145-2.074 1.555 2.074-1.555 2.07"/></g><path style="fill:none;stroke-width:.79701;stroke-linecap:butt;stroke-linejoin:miter;stroke:#000;stroke-opacity:1;stroke-miterlimit:10" d="M-.001 0v158.805" transform="matrix(1 0 0 -1 21.896 161.793)"/><path style="stroke:none;fill-rule:nonzero;fill:#000;fill-opacity:1" d="m21.895.398-2.07 4.145 2.07-1.555 2.074 1.555"/><use xlink:href="#b" x="51.506" y="130.221" style="fill:#000;fill-opacity:1"/><use xlink:href="#c" x="56.488" y="130.221" style="fill:#000;fill-opacity:1"/><use xlink:href="#d" x="59.255" y="130.221" style="fill:#000;fill-opacity:1"/><use xlink:href="#e" x="91.356" y="130.221" style="fill:#000;fill-opacity:1"/><use xlink:href="#e" x="123.458" y="130.221" style="fill:#000;fill-opacity:1"/><use xlink:href="#c" x="128.439" y="130.221" style="fill:#000;fill-opacity:1"/><use xlink:href="#d" x="131.207" y="130.221" style="fill:#000;fill-opacity:1"/><use xlink:href="#f" x="163.308" y="130.221" style="fill:#000;fill-opacity:1"/><use xlink:href="#f" x="195.409" y="130.221" style="fill:#000;fill-opacity:1"/><use xlink:href="#c" x="200.391" y="130.221" style="fill:#000;fill-opacity:1"/><use xlink:href="#d" x="203.158" y="130.221" style="fill:#000;fill-opacity:1"/><use xlink:href="#g" x="3.321" y="164.588" style="fill:#000;fill-opacity:1"/><use xlink:href="#e" x="11.069" y="164.588" style="fill:#000;fill-opacity:1"/><use xlink:href="#e" x="11.069" y="77.328" style="fill:#000;fill-opacity:1"/><use xlink:href="#f" x="11.069" y="33.491" style="fill:#000;fill-opacity:1"/><g clip-path="url(#h)"><path style="fill:none;stroke-width:.79701;stroke-linecap:butt;stroke-linejoin:miter;stroke:#00f;stroke-opacity:1;stroke-miterlimit:10" d="M-.001 43.836s5.851-8.73 8.097-10.773c2.246-2.04 5.848-3.204 8.094-3.938 2.246-.734 5.848-1.215 8.094-1.36 2.246-.144 5.847.06 8.093.321 2.247.262 5.848.992 8.098 1.562 2.246.575 5.848 1.735 8.094 2.56 2.246.82 5.847 2.335 8.094 3.374 2.246 1.035 5.847 2.875 8.093 4.098 2.246 1.222 5.848 3.324 8.094 4.707a256.344 256.344 0 0 1 8.098 5.258 303.686 303.686 0 0 1 8.094 5.753 372.414 372.414 0 0 1 8.093 6.2 429.645 429.645 0 0 1 8.094 6.61c2.246 1.886 5.852 5 8.098 6.991a550.49 550.49 0 0 1 8.093 7.344c2.246 2.082 5.848 5.5 8.094 7.672a736.74 736.74 0 0 1 8.094 7.976 779.709 779.709 0 0 1 8.098 8.282 904.37 904.37 0 0 1 8.093 8.543c2.246 2.406 5.848 6.328 8.094 8.804 2.246 2.48 5.848 6.508 8.094 9.055 2.246 2.547 5.847 6.684 8.094 9.29 2.25 2.608 5.851 6.839 8.097 9.507a2587.82 2587.82 0 0 1 8.094 9.726" transform="matrix(1 0 0 -1 21.896 161.793)"/></g><g clip-path="url(#i)"><path style="fill:none;stroke-width:.79701;stroke-linecap:butt;stroke-linejoin:miter;stroke:red;stroke-opacity:1;stroke-miterlimit:10" d="M-.001 0S5.85 3.563 8.096 4.934l8.094 4.93c2.246 1.366 5.848 3.562 8.094 4.933 2.246 1.367 5.847 3.562 8.093 4.93 2.247 1.367 5.848 3.562 8.098 4.933l8.094 4.93c2.246 1.371 5.847 3.562 8.094 4.933 2.246 1.368 5.847 3.563 8.093 4.93 2.246 1.371 5.848 3.563 8.094 4.934l8.098 4.93c2.246 1.37 5.847 3.566 8.094 4.933 2.246 1.367 5.847 3.563 8.093 4.93 2.246 1.37 5.848 3.566 8.094 4.933l8.098 4.93a8979.82 8979.82 0 0 0 8.093 4.934c2.246 1.367 5.848 3.562 8.094 4.933l8.094 4.93c2.246 1.367 5.851 3.562 8.098 4.933 2.246 1.368 5.847 3.563 8.093 4.93 2.246 1.367 5.848 3.563 8.094 4.934l8.094 4.93c2.246 1.37 5.847 3.562 8.094 4.933 2.25 1.367 5.851 3.563 8.097 4.93l8.094 4.933" transform="matrix(1 0 0 -1 21.896 161.793)"/></g><use xlink:href="#j" x="206.752" y="114.237" style="fill:#000;fill-opacity:1"/><path style="fill-rule:nonzero;fill:#fff;fill-opacity:1;stroke-width:.79701;stroke-linecap:butt;stroke-linejoin:miter;stroke:#000;stroke-opacity:1;stroke-miterlimit:10" d="M6.225 127.32h58.531v28.836H6.226Zm0 0" transform="matrix(1 0 0 -1 21.896 161.793)"/><path style="fill:none;stroke-width:.79701;stroke-linecap:butt;stroke-linejoin:miter;stroke:#00f;stroke-opacity:1;stroke-miterlimit:10" d="M-.001.002h17.008" transform="matrix(1 0 0 -1 31.509 14.107)"/><use xlink:href="#j" x="50.908" y="17.096" style="fill:#000;fill-opacity:1"/><g style="fill:#000;fill-opacity:1"><use xlink:href="#k" x="59.923" y="17.096"/><use xlink:href="#l" x="62.691" y="17.096"/><use xlink:href="#m" x="68.226" y="17.096"/></g><use xlink:href="#j" x="72.1" y="17.096" style="fill:#000;fill-opacity:1"/><use xlink:href="#n" x="77.794" y="17.096" style="fill:#000;fill-opacity:1"/><path style="fill:none;stroke-width:.79701;stroke-linecap:butt;stroke-linejoin:miter;stroke:red;stroke-opacity:1;stroke-miterlimit:10" d="M-.001 0h17.008" transform="matrix(1 0 0 -1 31.509 26.532)"/><use xlink:href="#j" x="50.908" y="28.995" style="fill:#000;fill-opacity:1"/><use xlink:href="#g" x="58.816" y="28.995" style="fill:#000;fill-opacity:1"/><use xlink:href="#e" x="68.779" y="28.995" style="fill:#000;fill-opacity:1"/></svg>