<svg xmlns="http://www.w3.org/2000/svg" xmlns:xlink="http://www.w3.org/1999/xlink" width="475.455" height="279.028"><defs><path id="a" d="M-9.984-6.187c-.203.109-.25.14-.25.328 0 .218.046.25.25.343L-.281-.719a.34.34 0 0 0 .187.063C-.016-.656 0-.672 0-.97v-9.765c0-.282-.016-.297-.094-.297a.34.34 0 0 0-.187.062Zm1.062.78 7.938-3.921V-1.5Zm0 0"/><path id="d" d="M3.484-4.656c-.046 0-.078 0-.312.234-1.453 1.438-3.813 2.234-6.75 2.234-2.781 0-5.172-.671-6.86-2.328-.14-.14-.156-.14-.203-.14-.093 0-.109.062-.109.125 0 .187 1.031 1.36 2.438 2.062 1.437.735 2.984 1.063 4.734 1.063 1.281 0 2.984-.203 4.531-.953 1.719-.844 2.64-2.016 2.64-2.172 0-.063-.015-.125-.109-.125m0 0"/><path id="e" d="M-3.328-5.5c0-.312 0-.344-.266-.344-1.453 0-2.797.782-2.797 2.516 0 1.64 1.47 2.89 3.25 2.89C-1.25-.437.141-1.89.141-3.483c0-1.703-1.547-2.36-1.844-2.36-.094 0-.14.078-.14.157 0 .125.062.156.14.171C-.5-5.14-.172-4.172-.172-3.578c0 .61-.406 2.062-2.89 2.062h-.266Zm-.266 3.969c-2.265-.125-2.515-1.375-2.515-1.781 0-1.532 2.015-1.626 2.515-1.641Zm0 0"/><path id="f" d="M-3.484-6.39c-1.328 0-1.735 0-2.203.343-.547.406-.641 1.078-.641 1.578 0 1.39 1.187 1.938 1.484 2.047v.016h-1.484l.156 1.953h.422c0-.984.094-1.094.797-1.094h3.89c.641 0 .641.156.641 1.094H0C-.031-.828-.031-1.61-.031-2.016s0-1.187.031-1.562h-.422c0 .922 0 1.094-.64 1.094h-2.672c-1.5 0-2.297-.985-2.297-1.875 0-.891.718-1.094 1.593-1.094h3.375c.641 0 .641.156.641 1.094H0c-.031-.375-.031-1.157-.031-1.547 0-.422 0-1.188.031-1.563h-.422c0 .719 0 1.078-.422 1.078Zm0 0"/><path id="g" d="M-3.344-2.39c-1.39 0-2.687-.579-2.687-1.688v-.203c.062.125.156.343.531.343a.547.547 0 0 0 .578-.546c0-.297-.187-.578-.578-.578-.422 0-.828.39-.828 1 0 1.218 1.328 1.64 1.594 1.718v.016h-1.594l.156 1.922h.422c0-.969.094-1.078.797-1.078h3.89c.641 0 .641.156.641 1.078H0c-.031-.39-.031-1.188-.031-1.61 0-.39 0-1.406.031-1.75h-.422v.297c0 1.047-.156 1.078-.672 1.078Zm0 0"/><path id="h" d="M-2.594-1.703c.438-.672.438-1.25.438-1.406 0-1.297-.969-2.25-2.078-2.25-.391 0-.922.109-1.391.562-.578-.547-.578-1.234-.578-1.297s0-.125.031-.187c.063.14.203.218.36.218a.36.36 0 0 0 .375-.375c0-.125-.079-.375-.391-.375a.677.677 0 0 0-.656.704c0 .75.453 1.297.672 1.5a2.44 2.44 0 0 0-.516 1.484c0 1.281.984 2.25 2.078 2.25.828 0 1.36-.5 1.484-.64.22.171.625.421 1.188.421.828 0 1.187-.5 1.266-.61C-.125-1.046.39-.39 1.14-.39c.984 0 1.797-1.343 1.797-3.109 0-1.703-.75-3.125-1.829-3.125-.359 0-1.203.094-1.656.953-.375.734-.375 1.453-.375 2.688 0 .875 0 .968-.265 1.234-.141.14-.422.266-.72.266-.25 0-.484-.079-.687-.22m.14-1.422c0 1.266-1.452 1.266-1.78 1.266-.25 0-.844 0-1.235-.25a1.24 1.24 0 0 1-.562-1c0-1.266 1.453-1.266 1.781-1.266.266 0 .844 0 1.234.25.422.266.563.703.563 1m5.095-.39c0 1.374-.703 2.421-1.516 2.421-.125 0-.687-.031-1.047-.562-.203-.328-.203-.453-.203-1.453 0-1.188 0-2.813 1.25-2.813.844 0 1.516 1.094 1.516 2.406m0 0"/><path id="i" d="M-4.797-5.812c-.953-.391-.969-1.063-.969-1.329h-.421c.03.407.03.61.03 1.079 0 .328 0 .359-.03 1.156h.421c.032-.532.36-.657.61-.657.14 0 .203.032.343.079l3.625 1.468-3.906 1.594c-.203.078-.281.078-.297.078-.375 0-.375-.5-.375-.781h-.421c.03.375.03 1.078.03 1.469 0 .547 0 .578-.03 1.39h.421c0-.828.079-.937.516-1.125L0-3.53c1.516.64 1.547.64 1.656.687.438.25.985.64.985 1.281 0 .438-.266.72-.266.72s-.047-.5-.547-.5a.517.517 0 0 0-.531.53c0 .235.14.547.547.547.547 0 1.078-.53 1.078-1.296 0-.797-.703-1.391-1.61-1.766Zm0 0"/><path id="j" d="M-10.234-6.172c-.188-.062-.22-.062-.25-.062a.25.25 0 0 0-.266.25c0 .187.125.234.313.297l13.5 4.843c.187.063.218.063.25.063.156 0 .265-.11.265-.266 0-.187-.14-.234-.297-.281Zm0 0"/><path id="k" d="M-3.828-5.531c-.781 0-1.344 0-1.906.625-.47.5-.657 1.14-.657 1.781 0 1.172.766 2.078 1.704 2.078.406 0 .609-.266.609-.61s-.234-.577-.578-.577c-.594 0-.594.515-.594.734-.61-.344-.86-1.031-.86-1.594 0-.672.548-1.515 1.829-1.515h.578c.047 2.89 1.25 3.984 2.36 3.984C-.22-.625.14-1.953.14-2.828c0-.938-.578-1.594-1.266-1.86.688-.062 1.203-.5 1.203-1.125 0-.296-.203-1.125-1.36-1.125h-.796v.313h.797c.828 0 .937.344.937.547 0 .547-.765.547-.968.547Zm1.812.922C-.609-4.61-.14-3.562-.14-2.937c0 .703-.515 1.28-1.203 1.28-1.89 0-2.062-2.437-2.093-2.952Zm0 0"/><path id="l" d="M-5.766-2.406v-2.031h-.421v2.03h-2.641v.313c1.36.016 2.734.531 2.781 1.828h.281v-1.218h3.985C-.187-1.484.14-2.531.14-3.297c0-.906-.891-1.375-1.922-1.375h-.813v.313h.781c1.032 0 1.641.422 1.641.968 0 .985-1.328.985-1.578.985Zm0 0"/><path id="m" d="M-3.062-6.578c-1.86 0-3.329 1.406-3.329 3.062 0 1.72 1.516 3.079 3.329 3.079C-1.234-.437.14-1.86.14-3.5c0-1.687-1.407-3.078-3.203-3.078m2.89 3.062c0 .532-.234 1.172-.937 1.594-.641.39-1.485.406-2.094.406-.547 0-1.422 0-2.063-.453A1.84 1.84 0 0 1-6.109-3.5c0-.562.25-1.156.812-1.547C-4.64-5.5-3.734-5.5-3.203-5.5c.5 0 1.39 0 2.062.375.704.406.97 1.063.97 1.61m0 0"/><path id="n" d="M-3.484-10.281c-1.328 0-1.735 0-2.203.328-.547.422-.641 1.094-.641 1.578 0 1.188.86 1.797 1.422 2.016-1.11.203-1.422.984-1.422 1.89 0 1.39 1.187 1.938 1.484 2.047v.016h-1.484l.156 1.953h.422c0-.984.094-1.094.797-1.094h3.89c.641 0 .641.156.641 1.094H0C-.031-.828-.031-1.61-.031-2.016s0-1.187.031-1.562h-.422c0 .922 0 1.094-.64 1.094h-2.672c-1.5 0-2.297-.985-2.297-1.875 0-.891.718-1.094 1.593-1.094h3.375c.641 0 .641.156.641 1.094H0c-.031-.375-.031-1.157-.031-1.547 0-.422 0-1.188.031-1.563h-.422c0 .907 0 1.078-.64 1.078h-2.672c-1.5 0-2.297-.984-2.297-1.875 0-.89.718-1.093 1.593-1.093h3.375c.641 0 .641.172.641 1.093H0c-.031-.375-.031-1.14-.031-1.546 0-.422 0-1.188.031-1.563h-.422c0 .719 0 1.078-.422 1.094Zm0 0"/><path id="o" d="M-3.578-4.047c-1.078 0-2.86.14-4.531.953-1.72.844-2.641 2.016-2.641 2.172 0 .063.016.14.11.14.046 0 .062 0 .312-.25 1.453-1.437 3.812-2.234 6.75-2.234 2.781 0 5.172.672 6.86 2.329.124.156.155.156.202.156.094 0 .11-.078.11-.14 0-.188-1.031-1.36-2.438-2.063-1.453-.735-3-1.063-4.734-1.063m0 0"/><path id="b" d="M-3.328-9.969c-.047-.015-.14-.062-.203-.062s-.14.062-.14.14c0 .063.015.094.062.141.015.031.03.031.328.156 2 .844 2.86 1.453 2.86 3.75v2.094c0 .203 0 .234-.017.328 0 .156-.03.172-.156.172-.094 0-.187-.031-.312-.062l-3.953-.985v-1.422c0-1.125.234-1.203.672-1.203.14 0 .265 0 .703.094a.35.35 0 0 0 .156.047c.094 0 .14-.078.14-.157 0-.14-.093-.14-.296-.203l-3.328-.812c-.079 0-.141.047-.141.14 0 .125.047.141.25.204 1.11.28 1.422.562 1.422 1.843v1.36l-3.532-.89c-.5-.126-.546-.157-.546-.735v-2.063c0-1.765.484-2.125 1.578-2.125 0 0 .406 0 .875.063.062.015.156.031.172.031.125 0 .172-.078.172-.156 0-.11-.063-.156-.329-.188l-2.5-.297c-.046 0-.187-.03-.218-.03-.157 0-.157.124-.157.39v7c0 .265 0 .406.25.406.157 0 .157-.094.157-.344 0-.89.109-.89.265-.89.078 0 .125.015.281.062l7.75 1.938c.5.125.641.156.641 1.156 0 .281 0 .422.266.422C0-.656 0-.75 0-1.031v-7.203c0-.313-.016-.328-.25-.422Zm0 0"/><path id="c" d="M-3.984-3.656v-.86c0-.203 0-.296-.203-.296-.11 0-.11.093-.11.265v.828l-1.14-.203c-.204-.047-.907-.187-1.032-.25-.187-.078-.343-.25-.343-.469 0-.03 0-.296.187-.484.031.438.39.547.531.547.235 0 .36-.188.36-.375 0-.266-.235-.547-.61-.547-.453 0-.687.453-.687.86 0 .343.187.968 1.172 1.265.203.063.312.094 1.562.328v.688c0 .203 0 .312.188.312.125 0 .125-.094.125-.281v-.656l3.937.734c.969.188 1.875.36 1.875.875 0 .047 0 .281-.187.484-.032-.468-.391-.562-.532-.562-.234 0-.359.187-.359.375 0 .266.234.547.61.547.437 0 .687-.438.687-.844 0-.547-.594-.953-.969-1.125-.625-.328-1.828-.547-1.906-.562Zm0 0"/><path id="p" d="M6.797-5.86c-.453.094-.625.438-.625.704 0 .343.266.468.469.468.437 0 .734-.375.734-.765 0-.594-.687-.875-1.297-.875-.875 0-1.36.86-1.484 1.14-.328-1.078-1.219-1.14-1.485-1.14-1.453 0-2.234 1.875-2.234 2.203 0 .047.063.125.156.125.11 0 .14-.094.172-.14.484-1.594 1.453-1.891 1.86-1.891.656 0 .78.593.78.937 0 .313-.077.64-.265 1.328l-.484 1.97c-.203.859-.625 1.655-1.39 1.655-.063 0-.423 0-.735-.187.515-.11.64-.531.64-.703 0-.282-.218-.453-.484-.453a.744.744 0 0 0-.719.75c0 .609.672.875 1.281.875.688 0 1.188-.547 1.485-1.125C3.406-.141 4.109.14 4.64.14c1.468 0 2.25-1.875 2.25-2.188 0-.078-.063-.14-.157-.14-.125 0-.14.078-.171.187C6.172-.734 5.328-.14 4.688-.14c-.5 0-.766-.376-.766-.97 0-.312.047-.546.281-1.484l.5-1.953c.219-.86.703-1.484 1.36-1.484.03 0 .437 0 .734.172m0 0"/><path id="s" d="M2.438-1.594c-.5.844-.985 1.14-1.672 1.172-.157.016-.282.016-.282.281 0 .078.079.141.172.141.266 0 .907-.031 1.172-.031.406 0 .875.031 1.266.031.094 0 .265 0 .265-.266 0-.14-.125-.156-.203-.156-.328-.016-.61-.14-.61-.484 0-.203.095-.36.282-.672l1.094-1.813h3.656c.016.141.016.25.031.375.032.375.204 1.875.204 2.141 0 .438-.735.453-.954.453-.156 0-.312 0-.312.266 0 .156.125.156.203.156.25 0 .531-.031.781-.031h.813c.875 0 1.515.031 1.531.031.094 0 .25 0 .25-.266 0-.156-.125-.156-.344-.156-.781 0-.797-.125-.844-.547l-.874-8.953c-.032-.297-.094-.312-.25-.312-.141 0-.22.015-.36.234Zm1.718-2.203 2.89-4.828.485 4.828Zm0 0"/><path id="w" d="m6.813-5.828-1.344-3.14c.187-.344.61-.391.781-.407.094 0 .25-.016.25-.266 0-.156-.125-.156-.219-.156-.25 0-.531.031-.765.031h-.844c-.875 0-1.5-.03-1.516-.03-.11 0-.265 0-.265.265 0 .156.14.156.328.156.828 0 .89.14 1.031.484l1.703 3.985-3.11 3.328c-.515.562-1.14 1.11-2.202 1.156-.172.016-.282.016-.282.281C.36-.094.375 0 .531 0c.203 0 .422-.031.61-.031h.687c.453 0 .953.031 1.406.031.094 0 .266 0 .266-.266 0-.14-.094-.156-.187-.156-.282-.016-.47-.187-.47-.406 0-.25.173-.422.579-.844l1.281-1.39a65 65 0 0 1 1.39-1.485L7.61-1.016c0 .032.063.172.063.188 0 .125-.313.39-.766.406-.093 0-.25.016-.25.281 0 .141.14.141.219.141.234 0 .531-.031.766-.031H9.22c.264 0 .53.031.78.031.094 0 .25 0 .25-.266 0-.156-.14-.156-.266-.156-.859-.016-.89-.078-1.14-.61l-1.89-4.452L8.78-7.437c.14-.141.469-.5.594-.641.625-.64 1.203-1.235 2.36-1.297.14-.016.28-.016.28-.266 0-.156-.124-.156-.187-.156-.203 0-.406.031-.61.031h-.655c-.47 0-.97-.03-1.407-.03-.11 0-.281 0-.281.265 0 .14.11.156.188.156.234.016.468.14.468.406v.031a.73.73 0 0 1-.203.422Zm0 0"/><path id="R" d="M9.969-3.328c.015-.047.062-.14.062-.203s-.062-.14-.14-.14c-.063 0-.094.015-.141.062-.031.015-.031.03-.156.328-.844 2-1.453 2.86-3.75 2.86H3.75c-.203 0-.234 0-.328-.017-.156 0-.172-.03-.172-.156 0-.094.031-.187.063-.312l.984-3.953h1.422c1.125 0 1.203.234 1.203.672 0 .14 0 .265-.094.703a.35.35 0 0 0-.047.156c0 .094.078.14.157.14.14 0 .14-.093.203-.296l.812-3.328c0-.079-.047-.141-.14-.141-.125 0-.141.047-.204.25-.28 1.11-.562 1.422-1.843 1.422h-1.36l.89-3.532c.126-.5.157-.546.735-.546h2.063c1.765 0 2.125.484 2.125 1.578 0 0 0 .406-.063.875a1.4 1.4 0 0 0-.031.172c0 .125.078.172.156.172.11 0 .156-.063.188-.329l.297-2.5c0-.046.03-.187.03-.218 0-.157-.124-.157-.39-.157h-7c-.265 0-.406 0-.406.25 0 .157.094.157.344.157.89 0 .89.109.89.265 0 .078-.015.125-.062.281l-1.938 7.75c-.125.5-.156.641-1.156.641-.281 0-.422 0-.422.266C.656 0 .75 0 1.031 0h7.203c.313 0 .329-.016.422-.25Zm0 0"/><path id="q" d="M2.5-8.828a.71.71 0 0 0-.703-.703.684.684 0 0 0-.688.687c0 .422.344.703.688.703a.706.706 0 0 0 .703-.687M.516-6.172v.422c.922 0 1.047.078 1.047.781v3.907c0 .64-.157.64-1.094.64V0c.406-.031 1.094-.031 1.515-.031.157 0 .985 0 1.47.031v-.422c-.923 0-.985-.062-.985-.625v-5.281Zm0 0"/><path id="r" d="M6.39-3.484c0-1.328 0-1.735-.343-2.203-.406-.547-1.078-.641-1.578-.641-1.39 0-1.938 1.187-2.047 1.484h-.016v-1.484l-1.953.156v.422c.984 0 1.094.094 1.094.797v3.89c0 .641-.156.641-1.094.641V0C.828-.031 1.61-.031 2.016-.031s1.187 0 1.562.031v-.422c-.922 0-1.094 0-1.094-.64v-2.672c0-1.5.985-2.297 1.875-2.297.891 0 1.094.718 1.094 1.593v3.375c0 .641-.156.641-1.094.641V0c.375-.031 1.157-.031 1.547-.031.422 0 1.188 0 1.563.031v-.422c-.719 0-1.078 0-1.078-.422Zm0 0"/><path id="x" d="M5.188-5.312c-.172 0-.704 0-.704.593 0 .344.25.594.594.594.328 0 .61-.203.61-.625 0-.953-1.016-1.64-2.172-1.64C1.844-6.39.5-4.907.5-3.095.5-1.266 1.875.141 3.5.141c1.89 0 2.328-1.72 2.328-1.844 0-.14-.11-.14-.14-.14-.141 0-.157.046-.188.218C5.172-.609 4.406-.172 3.625-.172c-.875 0-2.031-.766-2.031-2.937 0-2.391 1.219-2.97 1.937-2.97.547 0 1.328.22 1.656.766m0 0"/><path id="y" d="M6.578-3.062c0-1.86-1.406-3.329-3.062-3.329-1.72 0-3.078 1.516-3.078 3.329C.438-1.234 1.859.14 3.5.14c1.688 0 3.078-1.407 3.078-3.203M3.516-.172c-.532 0-1.172-.234-1.594-.937-.39-.641-.406-1.485-.406-2.094 0-.547 0-1.422.453-2.063A1.84 1.84 0 0 1 3.5-6.109c.563 0 1.156.25 1.547.812.453.656.453 1.563.453 2.094 0 .5 0 1.39-.375 2.062-.406.704-1.062.97-1.61.97m0 0"/><path id="z" d="M5.86-4.812c.124-.329.359-.938 1.28-.954v-.421c-.406.03-.609.03-1.062.03-.297 0-.516 0-1.172-.03v.421c.61.032.672.454.672.61 0 .14-.031.203-.094.375L4.016-1.078l-1.61-4.047c-.062-.203-.078-.203-.078-.266 0-.375.547-.375.797-.375v-.421c-.36.03-1.11.03-1.484.03-.485 0-.5 0-1.375-.03v.421c.797 0 .937.063 1.109.5L3.422-.125c.078.203.11.266.281.266.094 0 .188-.032.281-.266Zm0 0"/><path id="A" d="M5.5-3.328c.313 0 .344 0 .344-.266 0-1.453-.782-2.797-2.516-2.797-1.64 0-2.89 1.47-2.89 3.25C.438-1.25 1.89.141 3.484.141c1.704 0 2.36-1.547 2.36-1.844 0-.094-.078-.14-.157-.14-.125 0-.156.062-.171.14C5.14-.5 4.172-.172 3.578-.172c-.61 0-2.062-.406-2.062-2.89v-.266Zm-3.969-.266c.125-2.265 1.375-2.515 1.782-2.515 1.53 0 1.624 2.015 1.64 2.515Zm0 0"/><path id="B" d="M4.016-3.39C4.438-3.938 5.03-4.704 5.313-5c.578-.672 1.25-.766 1.718-.766v-.421c-.625.03-.64.03-1.203.03-.547 0-.578 0-1.297-.03v.421c.188.032.422.11.422.438 0 .25-.14.406-.219.516l-.921 1.171-1.11-1.484c-.047-.047-.14-.187-.14-.281s.078-.344.5-.36v-.421c-.344.03-1.079.03-1.47.03-.468 0-.5 0-1.374-.03v.421c.734 0 1 .032 1.297.422l1.687 2.188c.031.031.078.11.078.156 0 .047-1.11 1.453-1.265 1.64C1.39-.593.766-.436.14-.421V0c.547-.031.578-.031 1.187-.031.547 0 .578 0 1.297.031v-.422c-.344-.031-.406-.25-.406-.453 0-.234.11-.344.25-.531.219-.297.687-.89 1.031-1.328l1.172 1.53c.25.313.25.345.25.423 0 .125-.11.344-.5.36V0C4.797-.031 5.5-.031 5.89-.031c.484 0 .5 0 1.375.031v-.422c-.766 0-1.032-.016-1.375-.484Zm0 0"/><path id="C" d="M6.39-3.484c0-1.328 0-1.735-.343-2.203-.406-.547-1.078-.641-1.578-.641-1.235 0-1.797.937-2 1.375h-.016v-5l-2 .156v.422c.984 0 1.094.094 1.094.797v7.515c0 .641-.156.641-1.094.641V0C.828-.031 1.61-.031 2.016-.031s1.187 0 1.562.031v-.422c-.922 0-1.094 0-1.094-.64v-2.672c0-1.5.985-2.297 1.875-2.297.891 0 1.094.718 1.094 1.593v3.375c0 .641-.156.641-1.094.641V0c.375-.031 1.157-.031 1.547-.031.422 0 1.188 0 1.563.031v-.422c-.719 0-1.078 0-1.078-.422Zm0 0"/><path id="D" d="M4.36-6.172v.422c.968 0 1.093.094 1.093.797v2.578c0 1.219-.64 2.234-1.719 2.234-1.187 0-1.25-.671-1.25-1.437v-4.75l-2.03.156v.422c1.093 0 1.093.047 1.093 1.313v2.156c0 .89 0 1.406.437 1.875.344.375.922.547 1.657.547.25 0 .703 0 1.187-.407.422-.343.656-.875.656-.875V.141L7.47 0v-.422c-.969 0-1.078-.094-1.078-.797v-5.11Zm0 0"/><path id="E" d="m2.469-9.953-2 .156v.422c.984 0 1.094.094 1.094.797v7.515c0 .641-.157.641-1.094.641V0c.406-.031 1.11-.031 1.547-.031.422 0 1.14 0 1.547.031v-.422c-.922 0-1.094 0-1.094-.64Zm0 0"/><path id="F" d="M2.469-5.766h1.625v-.421H2.437V-7.86c0-1.297.657-1.953 1.25-1.953.11 0 .329.03.5.109-.062.015-.421.156-.421.562 0 .329.234.563.562.563.344 0 .578-.235.578-.578 0-.531-.515-.938-1.203-.938-1 0-2.14.766-2.14 2.235v1.672H.438v.421h1.125v4.704c0 .64-.157.64-1.094.64V0c.406-.031 1.187-.031 1.625-.031.39 0 1.406 0 1.734.031v-.422h-.281c-1.047 0-1.078-.156-1.078-.672Zm0 0"/><path id="G" d="M4.703-6.062c0-.266 0-.329-.14-.329-.11 0-.391.313-.485.438-.453-.36-.89-.438-1.36-.438-1.734 0-2.25.938-2.25 1.735 0 .156 0 .656.548 1.156.468.406.953.5 1.609.625.781.156.969.203 1.328.5.266.203.453.531.453.922 0 .625-.36 1.312-1.625 1.312-.937 0-1.64-.546-1.953-1.984-.047-.25-.047-.266-.062-.281C.734-2.47.672-2.47.625-2.47c-.156 0-.156.078-.156.328v1.954c0 .265 0 .328.14.328.079 0 .094-.016.344-.313.063-.094.063-.125.281-.36C1.781.14 2.547.14 2.797.14c1.5 0 2.25-.828 2.25-1.97 0-.765-.469-1.233-.594-1.358-.516-.438-.906-.532-1.86-.704-.421-.078-1.468-.28-1.468-1.14 0-.453.297-1.11 1.594-1.11 1.562 0 1.64 1.329 1.672 1.782.015.109.109.109.156.109.156 0 .156-.062.156-.328Zm0 0"/><path id="H" d="M2.406-5.766h2.031v-.421h-2.03v-2.641h-.313c-.016 1.36-.531 2.734-1.828 2.781v.281h1.218v3.985C1.484-.187 2.531.14 3.297.14c.906 0 1.375-.891 1.375-1.922v-.813h-.313v.781c0 1.032-.421 1.641-.968 1.641-.985 0-.985-1.328-.985-1.578Zm0 0"/><path id="I" d="M5.531-3.828c0-.781 0-1.344-.625-1.906-.5-.47-1.14-.657-1.781-.657-1.172 0-2.078.766-2.078 1.704 0 .406.266.609.61.609s.577-.234.577-.578c0-.594-.515-.594-.734-.594.344-.61 1.031-.86 1.594-.86.672 0 1.515.548 1.515 1.829v.578C1.72-3.656.625-2.453.625-1.343.625-.22 1.953.14 2.828.14c.938 0 1.594-.578 1.86-1.266.062.688.5 1.203 1.125 1.203.296 0 1.125-.203 1.125-1.36v-.796h-.313v.797c0 .828-.344.937-.547.937-.547 0-.547-.765-.547-.968ZM4.61-2.016C4.61-.609 3.563-.14 2.938-.14c-.704 0-1.282-.515-1.282-1.203 0-1.89 2.438-2.062 2.953-2.093Zm0 0"/><path id="J" d="m2.39-9.953-1.984.156v.422c.969 0 1.078.094 1.078.797V0h.329c.046-.11.453-.828.515-.937.328.53.938 1.078 1.86 1.078C5.844.14 7.28-1.25 7.28-3.094c0-1.828-1.343-3.234-2.937-3.234-.782 0-1.453.36-1.953.969Zm.032 5.36c0-.25 0-.282.156-.516.344-.516.985-.922 1.688-.922.422 0 1.937.172 1.937 2.922 0 .953-.156 1.562-.5 2.078-.281.437-.86.89-1.578.89-.766 0-1.266-.5-1.516-.89-.187-.297-.187-.36-.187-.61Zm0 0"/><path id="K" d="M5.813-4.797c.39-.953 1.062-.969 1.328-.969v-.421c-.407.03-.61.03-1.078.03-.329 0-.36 0-1.157-.03v.421c.532.032.657.36.657.61 0 .14-.032.203-.079.343L4.016-1.187 2.422-5.094c-.078-.203-.078-.281-.078-.297 0-.375.5-.375.781-.375v-.421c-.375.03-1.078.03-1.469.03-.547 0-.578 0-1.39-.03v.421c.828 0 .937.079 1.125.516L3.53 0c-.64 1.516-.64 1.547-.687 1.656-.25.438-.64.985-1.281.985-.438 0-.72-.266-.72-.266s.5-.047.5-.547a.517.517 0 0 0-.53-.531c-.235 0-.547.14-.547.547 0 .547.53 1.078 1.297 1.078.796 0 1.39-.703 1.765-1.61Zm0 0"/><path id="L" d="M5.547-9.984c-.047-.172-.078-.25-.281-.25s-.235.03-.297.265l-3 8.578c-.203.594-.61.954-1.531.97V0c.875-.031.906-.031 1.39-.031.39 0 1.078 0 1.453.031v-.422c-.594-.016-.953-.312-.953-.719 0-.078 0-.109.063-.296l.672-1.907h3.609l.781 2.25c.078.172.078.203.078.25 0 .422-.734.422-1.093.422V0c.328-.031 1.468-.031 1.875-.031.39 0 1.421 0 1.75.031v-.422c-.922 0-1.188 0-1.391-.578Zm-.688 1.453 1.672 4.765H3.203Zm0 0"/><path id="M" d="M5.61-5.516 7.593-8.39c.234-.343.656-.968 2.015-.984v-.422c-.609.031-.78.031-1.5.031-.39 0-1.312 0-1.64-.03v.421c.593.031.781.375.781.625 0 .156-.062.25-.156.375L5.375-5.859 3.438-8.72c-.032-.062-.094-.156-.094-.234 0-.203.297-.422.812-.422v-.422c-.343.031-1.468.031-1.89.031-.407 0-1.407 0-1.75-.03v.421c1.078 0 1.218.063 1.515.531l2.689 3.97-2.408 3.516c-.25.359-.703.922-2 .937V0c.626-.031.782-.031 1.516-.031.375 0 1.313 0 1.64.031v-.422c-.593-.016-.78-.375-.78-.625 0-.156.062-.266.156-.39l2.11-3.079 2.312 3.47c.093.124.109.14.109.202 0 .172-.266.407-.812.422V0c.343-.031 1.453-.031 1.875-.031.39 0 1.421 0 1.765.031v-.422c-.844 0-1.187 0-1.531-.5Zm0 0"/><path id="Q" d="M6.188-9.984c-.11-.203-.141-.25-.329-.25-.218 0-.25.046-.343.25L.719-.281a.34.34 0 0 0-.063.187C.656-.016.672 0 .97 0h9.765c.282 0 .297-.016.297-.094a.34.34 0 0 0-.062-.187Zm-.782 1.062L9.328-.984H1.5Zm0 0"/><path id="Y" d="M3.516 2.36c-.922 0-1.094 0-1.094-.641v-2.5c.265.36.844.922 1.765.922 1.657 0 3.094-1.391 3.094-3.235 0-1.828-1.343-3.234-2.906-3.234-1.266 0-1.937.906-1.984.969v-.97l-1.985.157v.422c1 0 1.078.094 1.078.734V1.72c0 .64-.156.64-1.078.64v.422c.375-.031 1.14-.031 1.547-.031.406 0 1.188 0 1.563.031ZM2.422-4.579c0-.266 0-.281.156-.516.438-.64 1.14-.922 1.688-.922 1.062 0 1.937 1.313 1.937 2.922C6.203-1.39 5.22-.14 4.11-.14c-.437 0-.859-.187-1.14-.468-.328-.328-.547-.61-.547-1.016Zm0 0"/><path id="Z" d="M2.39-3.344c0-1.39.579-2.687 1.688-2.687h.203c-.125.062-.343.156-.343.531 0 .422.328.578.546.578.297 0 .579-.187.579-.578 0-.422-.391-.828-1-.828-1.22 0-1.641 1.328-1.72 1.594h-.015v-1.594l-1.922.156v.422c.969 0 1.078.094 1.078.797v3.89c0 .641-.156.641-1.078.641V0c.39-.031 1.188-.031 1.61-.031.39 0 1.406 0 1.75.031v-.422h-.297c-1.047 0-1.078-.156-1.078-.672Zm0 0"/><path id="aa" d="M1.703-2.594c.672.438 1.25.438 1.406.438 1.297 0 2.25-.969 2.25-2.078 0-.391-.109-.922-.562-1.391.547-.578 1.234-.578 1.297-.578s.125 0 .187.031a.38.38 0 0 0-.218.36c0 .203.14.375.375.375.125 0 .375-.079.375-.391a.677.677 0 0 0-.704-.656c-.75 0-1.296.453-1.5.672a2.44 2.44 0 0 0-1.484-.516c-1.281 0-2.25.984-2.25 2.078 0 .828.5 1.36.64 1.484a1.92 1.92 0 0 0-.421 1.188c0 .828.5 1.187.61 1.266C1.046-.125.39.39.39 1.14c0 .984 1.343 1.797 3.109 1.797 1.703 0 3.125-.75 3.125-1.829 0-.359-.094-1.203-.953-1.656-.734-.375-1.453-.375-2.688-.375-.875 0-.968 0-1.234-.265-.14-.141-.266-.422-.266-.72 0-.25.079-.484.22-.687m1.422.14c-1.266 0-1.266-1.452-1.266-1.78 0-.25 0-.844.25-1.235a1.24 1.24 0 0 1 1-.562c1.266 0 1.266 1.453 1.266 1.781 0 .266 0 .844-.25 1.234a1.2 1.2 0 0 1-1 .563m.39 5.095c-1.374 0-2.421-.703-2.421-1.516 0-.125.031-.687.562-1.047.328-.203.453-.203 1.453-.203 1.188 0 2.813 0 2.813 1.25 0 .844-1.094 1.516-2.406 1.516m0 0"/><path id="t" d="M2.938-6.375c0-.25 0-.266-.235-.266C2.078-6 1.203-6 .891-6v.313c.203 0 .78 0 1.297-.266v5.172c0 .36-.032.469-.922.469H.953V0c.344-.031 1.203-.031 1.61-.031.39 0 1.265 0 1.609.031v-.312h-.313c-.906 0-.921-.11-.921-.47Zm0 0"/><path id="N" d="m1.266-.766 1.062-1.03c1.547-1.376 2.14-1.907 2.14-2.907 0-1.14-.89-1.938-2.109-1.938A1.843 1.843 0 0 0 .5-4.828c0 .547.5.547.531.547.172 0 .516-.11.516-.532a.513.513 0 0 0-.531-.515c-.079 0-.094 0-.125.016.218-.657.765-1.016 1.343-1.016.907 0 1.329.812 1.329 1.625 0 .797-.485 1.578-1.047 2.203L.609-.375C.5-.265.5-.235.5 0h3.703l.266-1.734h-.235C4.172-1.437 4.11-1 4-.844c-.062.078-.719.078-.937.078Zm0 0"/><path id="O" d="M4.469-2c0-1.187-.813-2.187-1.89-2.187-.47 0-.907.156-1.267.515v-1.953c.204.063.532.125.844.125 1.235 0 1.938-.906 1.938-1.031 0-.063-.032-.11-.11-.11 0 0-.03 0-.078.032a3.2 3.2 0 0 1-1.36.297c-.39 0-.858-.079-1.327-.282-.078-.031-.094-.031-.11-.031C1-6.625 1-6.547 1-6.391v2.954c0 .171 0 .25.14.25.079 0 .094-.016.141-.079.11-.156.469-.703 1.282-.703.515 0 .765.453.843.64.156.376.188.75.188 1.25 0 .36 0 .954-.25 1.376-.235.39-.61.64-1.063.64-.719 0-1.297-.53-1.469-1.109.032 0 .063.016.172.016.329 0 .5-.25.5-.485 0-.25-.171-.5-.5-.5-.14 0-.484.079-.484.532C.5-.75 1.188.219 2.297.219 3.453.219 4.469-.734 4.469-2m0 0"/><path id="P" d="M4.75-6.078c.078-.11.078-.125.078-.344H2.406c-1.203 0-1.234-.125-1.265-.312H.89L.563-4.687h.25c.03-.157.109-.782.25-.907.062-.062.843-.062.968-.062h2.063c-.11.156-.89 1.25-1.11 1.578C2.078-2.734 1.75-1.344 1.75-.328c0 .094 0 .547.469.547.453 0 .453-.453.453-.547v-.516c0-.547.031-1.094.11-1.625.046-.234.171-1.094.624-1.703Zm0 0"/><path id="u" d="M6.563-2.297c.171 0 .359 0 .359-.203 0-.187-.188-.187-.36-.187h-5.39c-.172 0-.344 0-.344.187 0 .203.172.203.344.203Zm0 0"/><path id="v" d="M3.328-3.016c.063-.25.297-1.171.985-1.171.046 0 .296 0 .5.125a.58.58 0 0 0-.47.546c0 .157.11.344.376.344a.546.546 0 0 0 .531-.578c0-.516-.578-.656-.922-.656-.578 0-.922.531-1.047.75-.25-.656-.781-.75-1.078-.75-1.031 0-1.61 1.281-1.61 1.531 0 .11.11.11.126.11.078 0 .11-.032.125-.11.344-1.062 1-1.312 1.344-1.312.187 0 .53.093.53.671 0 .313-.171.97-.53 2.375-.157.61-.516 1.032-.954 1.032-.062 0-.28 0-.5-.125.25-.063.47-.266.47-.547 0-.266-.22-.344-.36-.344-.313 0-.547.25-.547.578 0 .453.484.656.922.656.672 0 1.031-.703 1.047-.75.125.36.484.75 1.078.75 1.031 0 1.594-1.28 1.594-1.53 0-.11-.079-.11-.11-.11-.094 0-.11.047-.14.11-.329 1.077-1 1.312-1.313 1.312-.39 0-.547-.313-.547-.657 0-.218.047-.437.156-.875Zm0 0"/><path id="S" d="M5.14-6.812s0-.11-.124-.11c-.157 0-1.094.094-1.266.11-.078.015-.14.062-.14.187s.093.125.234.125c.484 0 .5.063.5.172l-.032.203-.593 2.36c-.188-.376-.469-.641-.922-.641-1.156 0-2.39 1.468-2.39 2.922C.406-.547.952.109 1.718.109c.203 0 .703-.046 1.297-.75a.91.91 0 0 0 .906.75c.36 0 .578-.234.75-.546a6.5 6.5 0 0 0 .297-.985c0-.11-.094-.11-.125-.11-.094 0-.11.048-.14.188-.173.64-.345 1.235-.75 1.235-.282 0-.298-.266-.298-.453 0-.25.016-.313.047-.485ZM3.079-1.187c-.062.187-.062.203-.203.375-.437.546-.844.703-1.125.703-.5 0-.64-.547-.64-.938 0-.5.312-1.719.546-2.187.313-.578.75-.953 1.157-.953.64 0 .78.812.78.875a.6.6 0 0 1-.03.171Zm0 0"/><path id="T" d="M1.625-1.047C1.188-.328.797-.313.438-.28c-.063.015-.11.078-.11.172 0 .047.047.109.125.109.172 0 .594-.031.766-.031.203 0 .687.031.875.031.062 0 .172 0 .172-.156 0-.11-.11-.125-.125-.125-.094 0-.422-.031-.422-.297 0-.125.093-.297.125-.344l.703-1.156H4.89c.03.219.046.515.078.734.031.36.093.75.093.782 0 .125-.125.28-.656.28-.078 0-.203 0-.203.173 0 .093.078.109.14.109.173 0 .391-.016.563-.016s.39-.015.532-.015c.296 0 .328 0 .53.015.141 0 .36.016.5.016.048 0 .173 0 .173-.156 0-.125-.11-.125-.203-.125-.547 0-.547-.063-.579-.313l-.625-5.578c-.03-.203-.03-.25-.187-.25-.125 0-.172.063-.25.172Zm1.094-1.297L4.53-5.312l.328 2.968Zm0 0"/><path id="V" d="M4.563-3.437c.218-.22.734-.782.953-1.016.093-.078.312-.313.406-.422.547-.562.906-.922 1.672-.969.093-.015.203-.015.203-.172a.12.12 0 0 0-.125-.109c-.063 0-.36.016-.422.016-.078.015-.281.015-.422.015-.172 0-.328-.015-.5-.015-.156 0-.344-.016-.484-.016-.063 0-.172 0-.172.156 0 .11.11.125.125.125.062 0 .344.016.344.25 0 .157-.22.375-.22.39L4.454-3.671l-.797-1.797c-.047-.093-.047-.11-.047-.125 0-.031.141-.234.532-.25.03 0 .14-.015.14-.172 0-.078-.062-.109-.125-.109-.187 0-.39.016-.562.016-.188 0-.36.015-.547.015-.297 0-.328 0-.531-.015l-.5-.016c-.032 0-.172 0-.172.156 0 .125.11.125.218.125.532 0 .579.094.657.282l1.062 2.39.063.11c0 .03-1.156 1.234-1.297 1.374-.094.094-.328.344-.438.454-.546.547-.89.906-1.64.953-.11.015-.203.015-.203.172 0 .047.03.109.125.109.046 0 .359-.016.406-.016.078-.015.281-.015.437-.015.157 0 .329.015.485.015.172 0 .328.016.484.016.047 0 .188 0 .188-.156 0-.11-.11-.125-.125-.125-.079 0-.344-.031-.344-.25 0-.156.11-.266.39-.563L3-1.797l.484-.516a11 11 0 0 0 .47-.5l.968 2.157c.031.094.031.11.031.125 0 .031-.14.219-.516.25-.046 0-.156.015-.156.172 0 .078.063.109.125.109.188 0 .39-.016.578-.016.172 0 .36-.015.547-.015.297 0 .313 0 .516.015l.5.016c.031 0 .172 0 .172-.156 0-.125-.11-.125-.219-.125-.531 0-.578-.094-.656-.281Zm0 0"/><path id="ac" d="M4.031-6.375c.063-.125.063-.14.063-.156 0-.11-.094-.203-.188-.203-.125 0-.172.078-.172.093L.563 1.891c-.047.125-.047.14-.047.156 0 .11.078.203.187.203.094 0 .156-.047.219-.219Zm0 0"/><path id="U" d="M6.328-2.047c.125 0 .313 0 .313-.203 0-.187-.172-.187-.313-.187H3.781V-5c0-.14 0-.312-.203-.312-.187 0-.187.187-.187.312v2.563H.828c-.125 0-.312 0-.312.187 0 .203.172.203.312.203h2.563V.516c0 .14 0 .312.203.312.187 0 .187-.187.187-.312v-2.563Zm0 0"/><path id="ab" d="M.266-1.766v.282h2.437v.78c0 .329-.015.423-.687.423h-.203V0C2.375-.031 3-.031 3.063-.031c.046 0 .703 0 1.265.031v-.281h-.203c-.672 0-.703-.094-.703-.422v-.781h.922v-.282h-.922v-4.062c0-.188 0-.25-.172-.25-.11 0-.11.016-.187.14Zm.28 0 2.22-3.312v3.312Zm0 0"/><path id="ad" d="M.938-3.094c0 .156 0 .266.125.266.062 0 .093-.047.14-.125a1.45 1.45 0 0 1 1.172-.594c.969 0 .969 1.39.969 1.703 0 .282 0 .844-.266 1.25-.234.375-.61.547-.969.547a1.46 1.46 0 0 1-1.343-1c.015 0 .062.016.125.016.187 0 .453-.11.453-.438 0-.281-.203-.437-.453-.437-.188 0-.438.11-.438.468 0 .813.688 1.641 1.688 1.641 1.078 0 2-.89 2-2 0-1.078-.766-1.969-1.75-1.969-.422 0-.86.141-1.188.47v-1.767c.281.079.563.125.828.125 1.11 0 1.75-.796 1.75-.921 0-.079-.047-.11-.094-.11-.015 0-.03 0-.124.047a3.5 3.5 0 0 1-1.204.234c-.39 0-.796-.078-1.203-.234-.093-.047-.11-.047-.11-.047-.109 0-.109.078-.109.235Zm0 0"/><path id="ae" d="M2.734-3.156C3.563-3.47 3.97-4.125 3.97-4.75c0-.687-.766-1.219-1.703-1.219-.922 0-1.625.532-1.625 1.203 0 .297.187.47.453.47a.435.435 0 0 0 .453-.454c0-.312-.219-.437-.531-.437.234-.375.78-.563 1.234-.563.734 0 .875.594.875 1.016 0 .265-.047.703-.266 1.047-.28.39-.593.406-.859.437-.219.016-.234.016-.312.016-.079 0-.157.015-.157.109 0 .125.078.125.235.125h.406c.781 0 1.125.625 1.125 1.469 0 1.156-.61 1.484-1.063 1.484-.171 0-1.046-.047-1.437-.719a.475.475 0 0 0 .562-.484.47.47 0 0 0-.484-.484c-.219 0-.484.14-.484.515 0 .797.828 1.422 1.875 1.422 1.109 0 1.953-.812 1.953-1.734 0-.782-.625-1.438-1.485-1.625m0 0"/><path id="W" d="M7.625-2.047c-1.062.75-1.281 1.938-1.281 2.031 0 .125.125.125.187.125.11 0 .172 0 .203-.125.25-1.046.86-1.75 1.844-2.109.047-.016.125-.047.125-.125s-.062-.094-.125-.125c-1.125-.422-1.64-1.219-1.844-2.094-.03-.125-.062-.125-.203-.125-.078 0-.187 0-.187.125 0 .094.218 1.282 1.281 2.032H.844c-.156 0-.328 0-.328.187 0 .203.172.203.328.203Zm0 0"/><path id="X" d="M3.219-1.125H3c-.016.094-.078.484-.156.547-.047.047-.531.047-.625.047h-1.11l.766-.625c.203-.172.734-.547.922-.735.172-.171.422-.484.422-.906 0-.75-.672-1.187-1.485-1.187-.765 0-1.296.515-1.296 1.078 0 .297.25.344.312.344a.32.32 0 0 0 .328-.329c0-.125-.078-.328-.344-.328.141-.297.5-.531.922-.531.625 0 .953.469.953.953 0 .422-.28.86-.687 1.25L.5-.25C.438-.187.438-.187.438 0H3.03Zm0 0"/><path id="af" d="M3.422-3.61c.047-.062.047-.078.047-.25H1.922c-.234 0-.39 0-.625-.015-.281-.016-.36-.031-.39-.172h-.22L.47-2.734h.219c.03-.125.078-.485.171-.547.047-.031.563-.031.657-.031H2.86c-.062.078-.375.468-.53.64-.579.703-.985 1.547-.985 2.453 0 .063 0 .344.297.344.28 0 .28-.281.28-.36V-.39c0-1.156.25-1.734.548-2.093Zm0 0"/><path id="ag" d="M1.016-3.328c.203.062.406.078.609.078.14 0 .469 0 .844-.203.11-.063.469-.313.469-.438 0-.078-.047-.093-.079-.093-.015 0-.015 0-.093.03a2.5 2.5 0 0 1-.907.173c-.296 0-.609-.063-.89-.156q-.07-.047-.094-.047c-.094 0-.094.078-.094.172v1.796c0 .094 0 .172.11.172.062 0 .078-.031.109-.078.156-.187.422-.39.89-.39.735 0 .735.89.735 1.078 0 .234-.016.578-.219.828a.95.95 0 0 1-.719.312C1.281-.094.86-.312.72-.672c.297 0 .328-.234.328-.297a.304.304 0 0 0-.313-.312.303.303 0 0 0-.296.328C.438-.406.953.125 1.703.125c.828 0 1.516-.578 1.516-1.328A1.3 1.3 0 0 0 1.89-2.5c-.375 0-.688.125-.875.281Zm0 0"/><path id="ah" d="M2.016.531c.203.438.64.75 1.078.953.844.36 1.672.047 2.156-.234-.156.766.266 1.266.719 1.453.406.172.828.094 1.281-.281.375-.375.906-1.11.938-1.14.03-.079 0-.157-.079-.188-.109-.047-.156.015-.296.203-.547.672-1.125 1.422-1.672 1.187-.375-.171-.266-.515-.157-.78.141-.313.454-.735.704-1.095l.984-1.265c.172-.235.578-.75.719-.985.234-.265.609-.765.64-.828a.37.37 0 0 0-.219-.484c-.109-.047-.421-.11-.703.234L5.625.563c-.172.218-.187.25-.453.406-.25.14-1.063.64-1.89.281-.735-.312-.75-.969-.5-1.594.171-.39.5-.781.64-.984l1.61-2.125c.187-.219.452-.594.484-.672.093-.219-.016-.406-.188-.469-.11-.062-.437-.125-.703.235L-.578 2.453c-.016.063-.094.125-.125.203a.37.37 0 0 0 .203.485c.39.156.61-.094.86-.422Zm0 0"/><path id="aq" d="M2.86-.516C2.077.078 1.5.156.874-.094.719-.14.594-.187.5.063.469.125.516.219.61.266c.234.093.843.312 1.093.422.36.156.781.375 1.14.53.095.032.25.11.36-.14C3.25.953 3.141.891 3.078.86 2.766.703 2.563.484 2.703.172c.078-.188.219-.281.516-.516l1.719-1.219L8.297-.125c-.031.125-.078.219-.11.36-.124.359-.546 1.796-.656 2.046-.172.39-.86.11-1.047.031-.156-.062-.296-.124-.406.126-.062.14.047.187.125.218.234.094.5.188.734.281l.75.313c.797.344 1.375.64 1.391.64.078.032.235.094.344-.156.062-.14-.063-.187-.266-.265-.719-.313-.672-.438-.562-.844l2.719-8.578c.093-.281.046-.313-.094-.375-.14-.063-.203-.078-.438.078Zm2.453-1.328L9.875-5.14 8.422-.516Zm0 0"/><path id="ar" d="M8.563-2.672v-3.422c.312-.234.718-.125.874-.047.079.032.235.079.329-.156.062-.14-.047-.187-.141-.234-.219-.094-.5-.172-.719-.266l-.765-.328c-.813-.344-1.36-.625-1.375-.625-.11-.047-.25-.11-.36.125-.062.156.063.203.235.281.765.328.78.485.765.844v4.328L3.234-.328C2.547-.016 1.75.234.766-.141.594-.188.484-.234.39.016.359.046.344.14.484.203c.188.094.407.14.579.219l.64.266c.406.187.86.406 1.266.593.094.032.25.094.36-.156.046-.125-.032-.172-.11-.203-.266-.14-.375-.36-.281-.563.093-.218.328-.328.859-.546L5.53-.953a37 37 0 0 1 1.86-.813l.015 3.829a1 1 0 0 0-.031.187c-.047.125-.437.25-.86.078-.077-.031-.234-.078-.327.172-.063.125.062.172.125.203.218.094.515.188.718.281l1.453.61c.25.11.485.25.704.344.093.03.234.093.343-.157.063-.14-.062-.187-.187-.234-.781-.36-.781-.422-.813-1.016l.016-4.844L11-3.39c.188-.062.625-.265.797-.343.828-.344 1.594-.657 2.672-.25.156.03.281.093.375-.141.062-.14-.063-.187-.11-.219-.187-.078-.39-.125-.578-.203l-.61-.266c-.421-.187-.874-.406-1.265-.578-.11-.046-.265-.109-.375.125-.047.141.047.188.11.22.218.093.39.312.28.546l-.015.031c-.047.11-.14.219-.344.313Zm0 0"/><path id="ai" d="M2.094-.344C1.469.11 1.063.078.64-.062.516-.094.42-.125.359.047c-.03.047.016.11.079.14.25.11.562.204.796.297.313.141.625.313.907.438.062.015.172.062.25-.11.03-.093-.032-.14-.094-.171C2.094.547 1.89.375 2 .14c.047-.11.14-.188.266-.297L3.484-1l2.297.984c-.062.188-.468 1.485-.515 1.563-.11.281-.61.11-.782.031-.14-.047-.218-.094-.296.094-.047.094.046.14.078.156.375.156.78.297 1.156.453.219.094.797.39 1.031.485.031.015.156.062.234-.125.047-.094-.046-.125-.171-.188-.563-.234-.547-.297-.453-.594l1.89-5.937c.078-.203.094-.25-.078-.313-.14-.062-.203 0-.297.047Zm1.687-.875L6.86-3.484 5.875-.312Zm0 0"/><path id="aj" d="M3.516-2.14c.547-1.282 1.593-2.235 2.609-1.797.094.046.125.046.188.078-.157.015-.375 0-.516.343-.172.391.062.672.266.75.265.125.609.063.765-.296.156-.376-.031-.907-.594-1.157-1.125-.468-2.046.578-2.218.782H4l.64-1.454-1.827-.625-.172.391c.89.39.953.5.672 1.156L1.78-.406c-.25.594-.39.531-1.234.172l-.172.39c.375.125 1.11.438 1.5.61.36.156 1.281.547 1.594.718l.172-.39-.282-.125c-.967-.406-.92-.563-.717-1.031Zm0 0"/><path id="ak" d="M6.594-1.344c.297-.718.515-1.234.187-1.984-.297-.64-.797-1.063-1.39-1.313-1.078-.468-2.203-.125-2.578.735-.157.375 0 .672.312.812.328.125.625 0 .75-.312.234-.547-.234-.75-.437-.828C4-4.672 4.734-4.61 5.25-4.391c.625.266 1.172 1.094.672 2.266l-.234.531C3.016-2.687 1.547-2 1.109-.984.672.046 1.734.89 2.531 1.234A1.98 1.98 0 0 0 4.75.813c-.219.656-.016 1.312.563 1.562.265.11 1.109.25 1.562-.812l.313-.735-.282-.125-.312.735c-.328.75-.688.718-.86.64-.515-.219-.218-.922-.14-1.11ZM5.03-.047C4.47 1.25 3.344 1.281 2.766 1.031 2.109.75 1.78.047 2.046-.579c.75-1.733 3.063-.937 3.548-.765Zm0 0"/><path id="al" d="M7.25-.687c.516-1.22.688-1.594.547-2.172-.156-.657-.734-1-1.188-1.188-1.28-.547-2.25.328-2.484.547l.594-1.36-1.86-.64-.171.39c.906.391.968.516.687 1.173L1.844-.376c-.25.594-.39.531-1.25.156L.422.17C.782.298 1.5.61 1.875.767c.36.156 1.078.468 1.406.64l.172-.39c-.844-.36-1-.422-.75-1.016L3.75-2.453c.594-1.375 1.813-1.735 2.625-1.375.828.344.734 1.078.39 1.89L5.439 1.156c-.25.594-.391.547-1.266.172L4 1.718c.375.11 1.078.423 1.438.579.39.172 1.093.469 1.421.64l.172-.39c-.656-.281-.984-.422-.828-.813Zm0 0"/><path id="am" d="M2.578-1.719c.453.672.985.89 1.125.953 1.188.516 2.453 0 2.89-1.015.157-.36.266-.89.032-1.5.719-.313 1.36-.047 1.406-.016a.4.4 0 0 1 .172.094.37.37 0 0 0-.328.25c-.094.187-.031.39.188.484.109.047.374.094.5-.203.093-.234.062-.672-.407-.875a2.08 2.08 0 0 0-1.625.016C6.25-4 5.875-4.36 5.375-4.578c-1.187-.516-2.469.016-2.906 1.016a2.02 2.02 0 0 0 .015 1.609c-.25.14-.64.422-.859.937-.328.766 0 1.282.063 1.407C1.015.297.202.516-.095 1.203c-.39.906.532 2.188 2.157 2.875 1.562.672 3.171.547 3.593-.453.14-.328.375-1.14-.218-1.89C4.89 1.093 4.234.811 3.109.327c-.812-.344-.89-.375-1.03-.734-.079-.172-.079-.5.03-.766a1.15 1.15 0 0 1 .47-.547m1.266.703c-1.172-.5-.61-1.843-.469-2.14.094-.235.328-.781.719-1.047.406-.266.86-.234 1.14-.125 1.157.5.579 1.844.454 2.14-.11.25-.329.782-.704 1.047a1.28 1.28 0 0 1-1.14.125m-1.657 4.83C.922 3.266.234 2.218.562 1.469c.047-.11.297-.625.922-.735.391-.062.5-.015 1.422.375C4 1.58 5.484 2.22 5 3.36c-.344.782-1.61.97-2.812.454m0 0"/><path id="an" d="M6.375-.89c.281.124.313.124.422-.11.562-1.344.375-2.875-1.219-3.562-1.516-.641-3.234.203-3.937 1.843C.906-.984 1.67.875 3.14 1.5c1.562.672 2.78-.5 2.906-.766.031-.093-.031-.156-.094-.187C5.828.5 5.781.53 5.734.609c-.812.97-1.843.875-2.39.641S1.625.063 2.594-2.219l.11-.25ZM2.828-2.688c1-2.047 2.25-1.782 2.625-1.61 1.406.594.688 2.469.516 2.953Zm0 0"/><path id="ao" d="M9.86-1c.656-.703 1.25-.484 1.484-.406l.172-.39c-.344-.11-.594-.22-1-.391-.375-.157-.407-.172-1.094-.516l-.172.39c.578.297.578.72.469.954a.6.6 0 0 1-.156.218L6.89 1.781 7.156-2.5c0-.203 0-.219.016-.25.156-.375.656-.172.937-.047l.172-.39c-.39-.126-.937-.36-1.312-.516-.422-.188-.453-.203-1.172-.547l-.172.39c.5.22.672.329.734.563.047.094.016.61 0 .89L3.844.344l.281-4.14c.016-.203.016-.219.047-.265.14-.36.656-.141.906-.032l.172-.39c-.344-.11-1-.391-1.36-.547-.374-.157-.406-.172-1.203-.547l-.171.39c.656.282.78.407.734.875l-.36 5.438c0 .172-.015.266.141.328.11.047.219.047.344-.14l2.938-3.188-.297 4.328c-.016.219.03.281.14.344.14.062.235 0 .36-.125Zm0 0"/><path id="ap" d="M7.25-.687c.516-1.22.688-1.594.547-2.172-.156-.657-.734-1-1.188-1.188-1.14-.484-2.03.14-2.39.469h-.016l1.969-4.594-1.89-.656-.173.39c.907.391.97.516.688 1.157L1.844-.375c-.25.594-.39.531-1.25.156l-.172.39C.782.298 1.5.61 1.875.767c.36.156 1.078.468 1.406.64l.172-.39c-.844-.36-1-.422-.75-1.016L3.75-2.453c.594-1.375 1.813-1.735 2.625-1.375.828.344.734 1.078.39 1.89L5.439 1.156c-.25.594-.391.547-1.266.172L4 1.718c.375.11 1.078.423 1.438.579.39.172 1.093.469 1.421.64l.172-.39c-.656-.281-.984-.422-.828-.813Zm0 0"/><path id="as" d="M5.781-7.125a.737.737 0 0 0-.375-.937.7.7 0 0 0-.906.374.67.67 0 0 0 .36.907c.39.172.796-.063.921-.344M2.906-5.469l-.172.39c.86.36.938.47.657 1.126L1.859-.375c-.25.594-.39.531-1.25.172l-.171.39A22 22 0 0 1 1.844.75c.14.063.906.39 1.328.61l.172-.391C2.5.609 2.454.53 2.672 0l2.094-4.844Zm0 0"/><path id="at" d="M6.719-3.719c.11-.234.125-.297-.016-.36-.094-.046-.484.126-.61.22-.28-.516-.64-.766-1.077-.938-1.594-.687-2.438-.031-2.75.703-.063.14-.25.61.046 1.282.266.546.688.843 1.22 1.203.671.453.812.578 1.046.984.156.281.188.672.047 1.031-.25.563-.844 1.063-2 .563C1.75.594 1.313-.171 1.609-1.625c.047-.25.047-.266.047-.297-.015-.047-.062-.078-.11-.094-.14-.062-.171 0-.265.235L.516.016C.406.266.375.313.5.359.563.391.594.391.938.22c.109-.064.109-.08.406-.22.234.828.937 1.125 1.172 1.234 1.375.579 2.39.125 2.843-.937.297-.703.047-1.313-.015-1.484-.297-.594-.61-.844-1.422-1.375-.36-.22-1.25-.829-.906-1.626.172-.421.718-.89 1.906-.375 1.437.61.969 1.86.828 2.297-.031.094.063.125.094.157.156.062.187 0 .281-.235Zm0 0"/><path id="au" d="m4.484-4.344 1.86.797.172-.39-1.86-.797 1.047-2.422-.297-.125c-.562 1.234-1.562 2.297-2.781 1.828l-.11.266 1.11.468-1.562 3.657c-.626 1.468.203 2.187.906 2.484.828.36 1.625-.266 2.031-1.219l.313-.75-.297-.125-.297.719C4.312 1 3.687 1.39 3.172 1.172c-.89-.375-.36-1.594-.266-1.828Zm0 0"/><path id="av" d="m6.125-8.203-1.89-.64-.173.39c.891.39.954.5.672 1.14L1.36.579l.313.14c.078-.077.734-.593.844-.655.078.609.422 1.343 1.265 1.718 1.531.64 3.407-.062 4.125-1.75.719-1.687.047-3.5-1.406-4.125-.719-.312-1.5-.25-2.187.11ZM4.031-3.266c.094-.234.11-.265.36-.421.515-.329 1.265-.454 1.906-.172.39.156 1.719.906.625 3.437-.375.875-.75 1.375-1.281 1.719-.422.297-1.125.484-1.782.203-.703-.297-.984-.969-1.062-1.422-.063-.344-.031-.406.062-.64Zm0 0"/><path id="aw" d="m6.188-8.172-1.891-.64-.172.39c.89.39.969.5.688 1.14L1.858-.374c-.25.594-.39.531-1.25.172l-.171.39c.375.126 1.03.407 1.437.579.375.156 1.047.453 1.406.64l.172-.39c-.86-.36-1.015-.438-.765-1.032Zm0 0"/></defs><path fill="none" stroke="#000" stroke-miterlimit="10" stroke-width=".498" d="M41.086 257.36V5.562"/><path stroke="#000" stroke-miterlimit="10" stroke-width=".498" d="m41.086 2.95-1.402 3.714 1.402-1.223 1.398 1.223Zm0 0"/><use xlink:href="#a" x="16.073" y="205.269"/><use xlink:href="#b" x="16.073" y="193.563"/><use xlink:href="#c" x="18.225" y="183.165"/><use xlink:href="#d" x="16.073" y="172.034"/><use xlink:href="#e" x="16.073" y="166.571"/><use xlink:href="#f" x="16.073" y="160.328"/><use xlink:href="#e" x="16.073" y="152.523"/><use xlink:href="#g" x="16.073" y="146.28"/><use xlink:href="#h" x="16.073" y="140.817"/><use xlink:href="#i" x="16.073" y="133.793"/><use xlink:href="#j" x="16.073" y="126.379"/><use xlink:href="#k" x="16.073" y="119.355"/><use xlink:href="#l" x="16.073" y="112.331"/><use xlink:href="#m" x="16.073" y="106.868"/><use xlink:href="#n" x="16.073" y="99.844"/><use xlink:href="#o" x="16.073" y="88.137"/><path fill="none" stroke="#000" stroke-miterlimit="10" stroke-width=".498" d="M41.086 257.36h396.852m0 0V5.562"/><path stroke="#000" stroke-miterlimit="10" stroke-width=".498" d="m437.938 2.95-1.399 3.714 1.399-1.223 1.402 1.223Zm0 0"/><use xlink:href="#p" x="201.331" y="270.733"/><use xlink:href="#q" x="213.996" y="270.733"/><use xlink:href="#r" x="217.898" y="270.733"/><use xlink:href="#s" x="230.384" y="270.733"/><use xlink:href="#t" x="240.915" y="272.885"/><use xlink:href="#u" x="245.896" y="272.885"/><use xlink:href="#v" x="253.645" y="272.885"/><use xlink:href="#w" x="259.837" y="270.733"/><use xlink:href="#v" x="271.495" y="272.885"/><path fill="#FFF" d="M402.41 131.965h71.059V99.289H402.41Zm0 0"/><g fill="#0000B2"><use xlink:href="#x" x="403.402" y="110.248"/><use xlink:href="#y" x="409.645" y="110.248"/><use xlink:href="#r" x="416.669" y="110.248"/></g><use xlink:href="#z" x="424.086" y="110.248" fill="#0000B2"/><g fill="#0000B2"><use xlink:href="#A" x="431.099" y="110.248"/><use xlink:href="#B" x="437.342" y="110.248"/></g><use xlink:href="#C" x="449.448" y="110.248" fill="#0000B2"/><g fill="#0000B2"><use xlink:href="#D" x="456.865" y="110.248"/><use xlink:href="#E" x="464.669" y="110.248"/><use xlink:href="#E" x="468.571" y="110.248"/></g><g fill="#0000B2"><use xlink:href="#y" x="403.402" y="128.181"/><use xlink:href="#F" x="410.426" y="128.181"/></g><g fill="#0000B2"><use xlink:href="#G" x="419.395" y="128.181"/><use xlink:href="#H" x="424.936" y="128.181"/><use xlink:href="#I" x="430.399" y="128.181"/><use xlink:href="#J" x="437.423" y="128.181"/><use xlink:href="#q" x="445.227" y="128.181"/><use xlink:href="#E" x="449.129" y="128.181"/><use xlink:href="#q" x="453.031" y="128.181"/><use xlink:href="#H" x="456.933" y="128.181"/></g><use xlink:href="#K" x="462.009" y="128.181" fill="#0000B2"/><path fill="none" stroke="#0000B2" stroke-miterlimit="10" stroke-width="2.491" d="m41.086 30.586 198.426 170.082 70.867 14.172L437.937 58.934"/><path fill="#0000B2" d="M45.313 30.586a4.227 4.227 0 0 0-4.227-4.227 4.228 4.228 0 1 0 4.227 4.227m198.425 170.082a4.228 4.228 0 1 0-4.226 4.227 4.227 4.227 0 0 0 4.226-4.227m70.867 14.172a4.224 4.224 0 0 0-4.226-4.227 4.224 4.224 0 0 0-4.227 4.227 4.224 4.224 0 0 0 4.227 4.226 4.224 4.224 0 0 0 4.226-4.226M442.164 58.934c0-2.336-1.89-4.23-4.226-4.23a4.23 4.23 0 0 0 0 8.457 4.227 4.227 0 0 0 4.226-4.227m0 0"/><use xlink:href="#L" x="52.118" y="35.49"/><use xlink:href="#L" x="228.979" y="221.505"/><use xlink:href="#M" x="239.509" y="221.505"/><use xlink:href="#s" x="293.801" y="235.678"/><use xlink:href="#N" x="304.332" y="237.83"/><use xlink:href="#w" x="309.811" y="235.678"/><use xlink:href="#O" x="321.469" y="237.83"/><use xlink:href="#M" x="416.369" y="63.836"/><path fill="red" stroke="#000" stroke-miterlimit="10" stroke-width=".498" d="M137.309 61.922h5.976v-5.98h-5.976Zm189.214 92.836h5.977v-5.977h-5.977Zm0 0"/><use xlink:href="#s" x="125.898" y="49.976"/><use xlink:href="#N" x="136.429" y="52.127"/><use xlink:href="#w" x="141.908" y="49.976"/><use xlink:href="#s" x="291.666" y="144.925"/><use xlink:href="#N" x="302.197" y="147.077"/><use xlink:href="#w" x="307.676" y="144.925"/><use xlink:href="#P" x="319.335" y="147.077"/><path fill="none" stroke="red" stroke-miterlimit="10" stroke-width="1.494" d="M140.297 115.625V68.113"/><path fill="red" stroke="red" stroke-miterlimit="10" stroke-width="1.494" d="m140.297 64.297-1.965 5.176 1.965-1.735 1.965 1.735Zm0 0"/><use xlink:href="#Q" x="108.441" y="84.708" fill="red"/><use xlink:href="#R" x="120.147" y="84.708" fill="red"/><use xlink:href="#S" x="130.545" y="86.86" fill="red"/><path fill="#FFF2F2" stroke="red" stroke-miterlimit="10" stroke-width=".498" d="M218.543 74.727h-65.781a3.987 3.987 0 0 0-3.985 3.988v5.793a3.987 3.987 0 0 0 3.985 3.984h65.781c2.2 0 3.984-1.785 3.984-3.984v-5.793a3.987 3.987 0 0 0-3.984-3.988Zm0 0"/><use xlink:href="#T" x="152.097" y="84.178" fill="red"/><use xlink:href="#U" x="161.055" y="84.178" fill="red"/><g fill="red"><use xlink:href="#T" x="170.27" y="84.178"/><use xlink:href="#V" x="177.18" y="84.178"/></g><use xlink:href="#W" x="188.054" y="84.178" fill="red"/><use xlink:href="#T" x="199.83" y="84.178" fill="red"/><use xlink:href="#X" x="206.74" y="85.174" fill="red"/><use xlink:href="#V" x="210.891" y="84.178" fill="red"/><path fill="none" stroke="#7F7F7F" stroke-dasharray="2.98883 2.98883" stroke-miterlimit="10" stroke-width="1.494" d="m243.445 198.531 82.828-45.004M332.75 149l101.79-87.156"/><use xlink:href="#C" x="260.505" y="89.918" fill="#7F7F7F"/><g fill="#7F7F7F"><use xlink:href="#K" x="267.922" y="89.918"/><use xlink:href="#Y" x="275.336" y="89.918"/></g><g fill="#7F7F7F"><use xlink:href="#y" x="283.528" y="89.918"/><use xlink:href="#H" x="290.552" y="89.918"/><use xlink:href="#C" x="296.015" y="89.918"/><use xlink:href="#A" x="303.819" y="89.918"/><use xlink:href="#H" x="310.063" y="89.918"/><use xlink:href="#q" x="315.526" y="89.918"/><use xlink:href="#x" x="319.428" y="89.918"/><use xlink:href="#I" x="325.671" y="89.918"/><use xlink:href="#E" x="332.695" y="89.918"/></g><use xlink:href="#C" x="341.274" y="89.918" fill="#7F7F7F"/><g fill="#7F7F7F"><use xlink:href="#D" x="348.691" y="89.918"/><use xlink:href="#E" x="356.495" y="89.918"/><use xlink:href="#E" x="360.398" y="89.918"/></g><g fill="#7F7F7F"><use xlink:href="#F" x="368.977" y="89.918"/><use xlink:href="#y" x="373.269" y="89.918"/><use xlink:href="#Z" x="380.293" y="89.918"/></g><g fill="#7F7F7F"><use xlink:href="#A" x="272.806" y="107.85"/><use xlink:href="#z" x="279.049" y="107.85"/></g><g fill="#7F7F7F"><use xlink:href="#I" x="285.689" y="107.85"/><use xlink:href="#E" x="292.713" y="107.85"/><use xlink:href="#D" x="296.615" y="107.85"/></g><g fill="#7F7F7F"><use xlink:href="#I" x="304.405" y="107.85"/><use xlink:href="#H" x="311.429" y="107.85"/><use xlink:href="#q" x="316.892" y="107.85"/><use xlink:href="#r" x="320.794" y="107.85"/><use xlink:href="#aa" x="328.598" y="107.85"/></g><use xlink:href="#s" x="340.31" y="107.85" fill="#7F7F7F"/><use xlink:href="#N" x="350.841" y="110.002" fill="#7F7F7F"/><use xlink:href="#w" x="356.32" y="107.85" fill="#7F7F7F"/><use xlink:href="#O" x="367.978" y="110.002" fill="#7F7F7F"/><path fill="none" stroke="#007F00" stroke-miterlimit="10" stroke-width="1.494" d="m309.71 162.527.536 41.895"/><path fill="#007F00" stroke="#007F00" stroke-miterlimit="10" stroke-width="1.494" d="m310.293 208.238 1.898-5.199-1.941 1.758-1.984-1.707Zm0 0"/><use xlink:href="#Q" x="278.218" y="195.056" fill="#007F00"/><use xlink:href="#R" x="289.924" y="195.056" fill="#007F00"/><use xlink:href="#S" x="300.323" y="197.208" fill="#007F00"/><path fill="#F2F9F2" stroke="#007F00" stroke-miterlimit="10" stroke-width=".498" d="M429.938 183.426h-112.79a3.987 3.987 0 0 0-3.988 3.984v7.637a3.99 3.99 0 0 0 3.988 3.988h112.79a3.987 3.987 0 0 0 3.984-3.988v-7.637c0-2.2-1.785-3.984-3.985-3.984Zm0 0"/><use xlink:href="#ab" x="316.478" y="193.472" fill="#007F00"/><use xlink:href="#ac" x="321.086" y="193.472" fill="#007F00"/><use xlink:href="#ad" x="325.694" y="193.472" fill="#007F00"/><g fill="#007F00"><use xlink:href="#T" x="330.302" y="193.472"/><use xlink:href="#V" x="337.212" y="193.472"/></g><use xlink:href="#U" x="347.573" y="193.472" fill="#007F00"/><use xlink:href="#ae" x="356.785" y="193.472" fill="#007F00"/><use xlink:href="#ac" x="361.397" y="193.472" fill="#007F00"/><use xlink:href="#ad" x="366.004" y="193.472" fill="#007F00"/><use xlink:href="#T" x="370.612" y="193.472" fill="#007F00"/><use xlink:href="#X" x="377.522" y="194.468" fill="#007F00"/><use xlink:href="#V" x="381.673" y="193.472" fill="#007F00"/><use xlink:href="#af" x="389.285" y="194.468" fill="#007F00"/><use xlink:href="#W" x="395.996" y="193.472" fill="#007F00"/><use xlink:href="#T" x="407.771" y="193.472" fill="#007F00"/><use xlink:href="#X" x="414.681" y="194.468" fill="#007F00"/><use xlink:href="#V" x="418.832" y="193.472" fill="#007F00"/><use xlink:href="#ag" x="426.444" y="194.468" fill="#007F00"/><path fill="none" stroke="#FF7F00" stroke-dasharray="2.98883 2.98883" stroke-miterlimit="10" stroke-width="1.494" d="m41.086 115.625 194.312 83.277"/><use xlink:href="#ah" x="102.353" y="117.952" fill="#FF7F00"/><use xlink:href="#ai" x="109.273" y="123.259" fill="#FF7F00"/><g fill="#FF7F00"><use xlink:href="#aj" x="121.75" y="126.265"/><use xlink:href="#ak" x="126.771" y="128.416"/><use xlink:href="#al" x="133.227" y="131.183"/><use xlink:href="#am" x="140.4" y="134.257"/><use xlink:href="#an" x="146.855" y="137.024"/></g><g fill="#FF7F00"><use xlink:href="#ao" x="65.869" y="121.825"/><use xlink:href="#ap" x="75.194" y="125.821"/><use xlink:href="#an" x="82.367" y="128.895"/><use xlink:href="#aj" x="88.105" y="131.355"/><use xlink:href="#an" x="93.127" y="133.506"/></g><g fill="#FF7F00"><use xlink:href="#aq" x="103.166" y="137.809"/><use xlink:href="#ar" x="112.845" y="141.957"/></g><g fill="#FF7F00"><use xlink:href="#as" x="128.901" y="148.838"/><use xlink:href="#at" x="132.487" y="150.375"/></g><g fill="#FF7F00"><use xlink:href="#at" x="141.878" y="154.399"/><use xlink:href="#au" x="146.97" y="156.581"/><use xlink:href="#ak" x="151.992" y="158.733"/><use xlink:href="#av" x="158.447" y="161.5"/><use xlink:href="#aw" x="165.62" y="164.574"/><use xlink:href="#an" x="169.207" y="166.111"/></g><path fill="none" stroke="#FF7F00" stroke-miterlimit="10" stroke-width="1.494" d="M46.754 42.195v67.489"/><path fill="#FF7F00" stroke="#FF7F00" stroke-miterlimit="10" stroke-width="1.494" d="m46.754 38.383-1.965 5.172 1.965-1.73 1.965 1.73Zm0 75.113 1.965-5.172-1.965 1.735-1.965-1.735Zm0 0"/><path fill="#0000B2" d="M59.484 229.012a4.227 4.227 0 0 0-8.453 0 4.228 4.228 0 1 0 8.453 0m0 0"/><use xlink:href="#G" x="63.303" y="233.995"/><use xlink:href="#H" x="68.844" y="233.995"/><use xlink:href="#I" x="74.307" y="233.995"/><use xlink:href="#J" x="81.33" y="233.995"/><use xlink:href="#E" x="89.135" y="233.995"/><use xlink:href="#A" x="93.037" y="233.995"/><path fill="red" stroke="#000" stroke-miterlimit="10" stroke-width=".498" d="M52.27 249.012h5.976v-5.98H52.27Zm0 0"/><use xlink:href="#D" x="62.065" y="251.003"/><use xlink:href="#r" x="69.869" y="251.003"/><use xlink:href="#G" x="77.674" y="251.003"/><use xlink:href="#H" x="83.214" y="251.003"/><use xlink:href="#I" x="88.677" y="251.003"/><use xlink:href="#J" x="95.701" y="251.003"/><use xlink:href="#E" x="103.505" y="251.003"/><use xlink:href="#A" x="107.408" y="251.003"/></svg>