<svg height="112.739" viewBox="0 0 204.282 84.554" width="272.376" xmlns="http://www.w3.org/2000/svg" xmlns:xlink="http://www.w3.org/1999/xlink"><symbol id="a" overflow="visible"><path d="m4.61-3.375c-.095-.625-.5-1.188-1.283-1.188-.61 0-1.25.172-2.031.938a2.953 2.953 0 0 0 -.89 2.063c0 .625.437 1.78 1.827 1.78 2.375 0 3.407-3.343 3.407-4.78 0-1.579-.922-2.579-2.157-2.579-1.437 0-1.906 1.297-1.906 1.579 0 .14.094.343.39.343a.544.544 0 0 0 .532-.515c0-.36-.313-.36-.469-.36.438-.734 1.156-.797 1.438-.797.734 0 1.422.516 1.422 1.813 0 .39-.063.89-.266 1.703zm-2.345 3.313c-1.094 0-1.094-1.032-1.094-1.125 0-.266.25-1.657.656-2.266.39-.563.89-.89 1.5-.89 1.094 0 1.11 1.124 1.11 1.327 0 .72-.641 2.954-2.172 2.954zm0 0"/></symbol><symbol id="b" overflow="visible"><path d="m6.266-5.672c.484-.781.906-.812 1.265-.828.125-.016.14-.172.14-.188 0-.078-.062-.125-.14-.125-.25 0-.547.032-.812.032-.328 0-.672-.032-.985-.032-.062 0-.187 0-.187.188 0 .11.078.125.156.125.266.016.453.125.453.328 0 .156-.14.375-.14.375l-3.063 4.875-.687-5.281c0-.172.234-.297.687-.297.14 0 .25 0 .25-.203 0-.078-.078-.11-.125-.11-.406 0-.828.032-1.25.032h-.547c-.172 0-.36-.032-.531-.032-.078 0-.188 0-.188.188 0 .125.079.125.25.125.547 0 .563.094.594.344l.782 6.14c.03.204.078.235.203.235.156 0 .203-.047.28-.172zm0 0"/></symbol><symbol id="c" overflow="visible"><path d="m.453 1.219c-.078.343-.11.406-.547.406-.11 0-.218 0-.218.188 0 .078.046.125.124.125.266 0 .563-.032.829-.032.343 0 .671.032 1 .032.046 0 .171 0 .171-.204 0-.109-.093-.109-.234-.109-.5 0-.5-.063-.5-.156 0-.125.422-1.75.484-2 .125.297.407.64.922.64 1.157 0 2.407-1.453 2.407-2.921 0-.938-.579-1.594-1.329-1.594-.5 0-.984.36-1.312.75-.094-.547-.531-.75-.89-.75-.47 0-.657.39-.735.562-.188.344-.313.938-.313.969 0 .11.094.11.11.11.11 0 .11-.016.172-.235.172-.703.375-1.188.734-1.188.172 0 .313.079.313.454 0 .234-.032.343-.079.515zm1.75-4.328c.063-.266.344-.547.516-.704.36-.296.64-.374.812-.374.39 0 .64.343.64.937s-.327 1.734-.515 2.11c-.344.702-.812 1.03-1.187 1.03-.656 0-.781-.828-.781-.89 0-.016 0-.031.03-.156zm0 0"/></symbol><symbol id="d" overflow="visible"><path d="m1.719-2.75h.703c.14 0 .219 0 .219-.156-.001-.094-.079-.094-.204-.094h-.656l.25-1.031a.324.324 0 0 0 .031-.094c0-.14-.109-.234-.25-.234-.171 0-.265.125-.328.296-.046.188.047-.156-.265 1.063h-.703c-.125 0-.22 0-.22.156 0 .094.079.094.204.094h.656l-.406 1.64c-.047.173-.11.423-.11.516 0 .406.36.656.75.656.782 0 1.22-.968 1.22-1.062s-.094-.094-.11-.094c-.094 0-.094.016-.156.14-.188.438-.547.829-.922.829-.156 0-.25-.094-.25-.344 0-.062.031-.219.047-.281zm0 0"/></symbol><symbol id="e" overflow="visible"><path d="m3.703-2.578c.031-.094.031-.125.031-.14 0-.157-.125-.22-.234-.22a.351.351 0 0 0 -.328.266.817.817 0 0 0 -.719-.406c-.86 0-1.781.937-1.781 1.937 0 .721.484 1.141 1.062 1.141.329 0 .625-.156.875-.375l-.156.625c-.078.297-.125.484-.39.719-.313.25-.61.25-.782.25-.312 0-.406-.016-.531-.047a.383.383 0 0 0 .219-.344c0-.172-.125-.25-.266-.25a.407.407 0 0 0 -.406.422c0 .422.61.422 1 .422 1.094 0 1.547-.563 1.656-.953zm-.953 1.656c-.031.094-.031.11-.156.25-.235.297-.578.485-.844.485-.344 0-.516-.313-.516-.672 0-.297.188-1.079.375-1.391.282-.484.61-.625.844-.625.5 0 .625.516.625.594 0 .015 0 .015-.015.094zm0 0"/></symbol><symbol id="f" overflow="visible"><path d="m6.844-3.266c.156 0 .343 0 .343-.187 0-.203-.187-.203-.328-.203h-5.968c-.141 0-.329 0-.329.203 0 .187.188.187.329.187zm.015 1.938c.141 0 .329 0 .329-.203 0-.188-.188-.188-.344-.188h-5.954c-.141 0-.329 0-.329.188 0 .203.188.203.329.203zm0 0"/></symbol><symbol id="g" overflow="visible"><path d="m4.078-2.297h2.782c.141 0 .329 0 .329-.203 0-.188-.188-.188-.329-.188h-2.78v-2.796c0-.141 0-.329-.204-.329-.203 0-.203.188-.203.329v2.796h-2.783c-.141 0-.329 0-.329.188 0 .203.188.203.329.203h2.78v2.797c0 .14 0 .328.204.328.203 0 .203-.187.203-.328zm0 0"/></symbol><clipPath id="h"><path d="m27 23h15v61.555h-15zm0 0"/></clipPath><clipPath id="i"><path d="m192 19h12.281v18h-12.281zm0 0"/></clipPath><clipPath id="j"><path d="m193 20h11.281v16h-11.281zm0 0"/></clipPath><clipPath id="k"><path d="m166 6h38.281v26h-38.281zm0 0"/></clipPath><clipPath id="l"><path d="m166 23h38.281v27h-38.281zm0 0"/></clipPath><use xlink:href="#a" y="29.807"/><use x="5.289" xlink:href="#d" y="31.301"/><use x="8.797" xlink:href="#b" y="29.807"/><use x="14.608" xlink:href="#e" y="31.301"/><use x="22.011" xlink:href="#f" y="29.807"/><path d="m1.416.002c0 .781-.633 1.414-1.414 1.414a1.415 1.415 0 1 1 1.414-1.414zm0 0" stroke="#000" stroke-miterlimit="10" stroke-width=".3985" transform="matrix(1 0 0 -1 34.143 27.662)"/><path d="m1.002 1.002.375.34-.016.808.121.688.324.46.531.184.692-.074.773-.238.75-.27.649-.148.5.082.344.367.238.621.199.774.234.773.329.613.453.34.562.008.637-.285.66-.465.629-.488.57-.344.5-.074.442.238.421.516.426.671.465.665.504.484.531.184.535-.168.52-.465.484-.649.45-.66.433-.5.453-.226.496.09.559.363.613.508.645.484.629.308.562.008.461-.324.348-.605.258-.766.226-.762.258-.613.36-.356.5-.066.64.172.742.289.766.266.691.093.535-.164.34-.453.14-.683.013-.805-.028-.797.059-.664.23-.45 1.582.165" fill="none" stroke="#000" stroke-miterlimit="10" stroke-width=".3985" transform="matrix(1 0 0 -1 34.143 27.662)"/><path d="m51.688 21.586-5.192-2.379-.16 4.371zm0 0"/><use x="46.519" xlink:href="#c" y="16.031"/><g stroke="#000" stroke-miterlimit="10" stroke-width=".3985" transform="matrix(1 0 0 -1 34.143 27.662)"><path d="m58.11.002a1.417 1.417 0 1 1 -2.838-.006 1.417 1.417 0 0 1 2.839.006zm0 0"/><path d="m28.345.002.352.363-.074.805.07.695.285.484.52.22.695-.02.789-.184.77-.21.656-.102.488.117.32.39.192.637.144.785.176.79.281.64.426.367.559.051.656-.238.691-.414.668-.442.59-.3.504-.04.426.274.379.543.379.703.414.695.465.52.52.218.546-.125.55-.43.532-.609.496-.62.469-.473.469-.192.488.13.531.402.574.55.606.532.605.351.559.05.484-.288.39-.578.317-.742.278-.75.304-.59.383-.328.504-.032.629.22.719.343.742.32.684.145.546-.125.371-.426.192-.672.066-.805.035-.797.106-.656.262-.43 1.57.278m32.184-1a2.835 2.835 0 0 1 -2.836 2.832 2.835 2.835 0 1 1 2.836-2.832zm-4.84-2.008 4.007 4.012m-4.007 0 4.007-4.012" fill="none"/><path d="m57.697 1.002.402.426-.008.859.141.754.363.535.594.262.762.008.847-.164.825-.208.714-.097.56.125.41.402.304.656.277.801.32.801.419.64.543.352.648.016.707-.29.719-.476.683-.504.621-.363.567-.102.531.215.531.489.563.636.601.617.633.43.637.117.601-.23.547-.54.48-.714.438-.727.438-.574.484-.308.57-.004.68.246.762.37.793.34.75.153.633-.133.468-.445.297-.707.168-.848.125-.836.184-.699.328-.473 1.68.196" fill="none"/></g><path d="m106.965 20.797-5.363-1.977.175 4.367zm0 0"/><use x="101.794" xlink:href="#c" y="15.445"/><path d="m83.037-2.006-.34-.328.082-.781-.04-.66-.241-.45-.47-.203-.663.02-.766.152-.765.164-.653.043-.465-.172-.25-.422-.078-.648.02-.781.008-.786-.102-.656-.285-.422-.488-.156-.657.082-.75.227-.746.238-.644.105-.477-.125-.293-.398-.14-.637-.055-.777-.07-.781-.165-.645-.328-.394-.5-.106-.644.149-.727.296-.715.31-.632.167-.489-.074-.328-.367-.203-.621-.133-.77-.144-.773-.23-.622-.36-.359-.508-.058-.633.21-.691.368-.684.379-.61.23-.491-.027-.367-.332-.258-.598-.211-.754-.219-.754-.289-.597-.398-.32-.512-.009-.606.27-.652.437-.64.442-.587.293-.492.02-.398-.298-.317-.57-.285-.726-.289-.727-.347-.566-.426-.286-.512.047-.574.328-.606.497-.597.503-.555.348-.488.07-.422-.257-.375-.536-.352-.695-.363-.695-.402-.528-.45-.242-.503.094-.54.387-.554.554-.547.559-.516.398-.48.118-.446-.211-.425-.5-.418-.657-.43-.656-.45-.488-.472-.195-.492.144-.5.434-.496.605-.488.613-.473.446-.469.164-.465-.168-.468-.453-.48-.614-.493-.613-.496-.437-.488-.149-.477.188-.453.484-.434.652-.425.653-.43.492-.45.207-.476-.121-.516-.402-.539-.567-.547-.558-.539-.391-.5-.098-.457.235-.406.523-.367.692-.36.695-.378.531-.426.25-.488-.074-.551-.352-.59-.511-.602-.5-.574-.336-.508-.051-.43.277-.35.563-.302.726-.289.723-.324.566-.398.293-.493-.027-.582-.297-.64-.45-.649-.44-.601-.278h-.512l-.398.32-.297.594-.227.75-.215.754-.27.594-.366.328-.493.023-.609-.238-.68-.383-.687-.375-.629-.218-.508.05-.367.36-.234.617-.153.77-.14.769-.207.617-.336.367-.489.07-.629-.175-.714-.316-.723-.31-.645-.151-.5.101-.328.39-.175.641-.075.782-.066.777-.145.637-.296.394-.48.121-.642-.113-.742-.246-.75-.234-.656-.09-.488.152-.29.422-.109.652v.785l.012.782-.082.648-.258.422-.465.164-.648-.05-.766-.169-.765-.16-.664-.027-.473.199-.246.445-.043.664.074.782.09.773-.02.652-.214.446-1.625-.133" fill="none" stroke="#000" stroke-miterlimit="10" stroke-width=".3985" transform="matrix(1 0 0 -1 34.143 27.662)"/><path d="m73.29 46.164 5.245 2.25.055-4.371zm0 0"/><use x="73.448" xlink:href="#c" y="54.004"/><path d="m.002-28.346.46.23.184.786.254.64.387.38.539.081.664-.175.738-.329.742-.324.664-.18.535.083.387.378.258.641.184.785.183.79.258.636.387.383.535.078.664-.176.738-.324.742-.328.664-.176.536.082.386.379.258.637.367 1.578.258.637.387.378.535.083.664-.176.742-.328.739-.325.664-.18.535.083.387.379.257.64.184.79.184.784.257.641.387.379.535.082.664-.18.742-.324.739-.328.664-.176.539.082.387.38.257.636.18.789.184.789.258.637.386.379.535.082.668-.176.739-.328.738-.324.668-.176.535.078.387.383.258.636.18.79.183.785.258.64.386.38.536.081.668-.18.738-.324.738-.328.668-.176.535.082.387.38.258.64.183.785.18.79.258.636.387.379.539.082.664-.176.738-.328.742-.324.664-.176.535.078.387.383.258.637.183.789.184.785.258.64.387.38.535.081.664-.175.738-.329.742-.324.664-.18.535.083.387.378.258.641.184.785.183.79.258.636.387.383.535.078.664-.176.742-.324.738-.328.664-.176.536.082.386.379.258.637.367 1.578.258.637.387.378.535.083.664-.176.742-.328.739-.325.664-.18.539.083.433 1.61" fill="none" stroke="#000" stroke-miterlimit="10" stroke-width=".3985" transform="matrix(1 0 0 -1 34.143 27.662)"/><g clip-path="url(#h)"><path d="m.002-56.693v.511l-.625.512-.454.512-.168.511.168.512.454.512.625.512.62.511.458.512.164.512-.164.511-.457.512-.621.512-.625.512-.454.511-.168.512.168.512.454.511.625.512.62.512.458.512.164.511-.164.512-.457.512-.621.511-.625.512-.454.512-.168.512.168.511.454.512.625.512.62.512.458.511.164.512-.164.512-.457.511-.621.512-.625.512-.454.512-.168.511.168.512.454.512.625.511.62.512.458.512.164.512-.164.511-.457.512-.621.512-.625.511-.454.512-.168.512.168.512.454.511.625.512.62.512.458.511.164.512-.164.512-.457.512-.621.511-.625.512-.454.512-.168.512.168.511.454.512.625.512.62.511.458.512.164.512-.164.512-.457.511-.621.512-.625.512-.454.511-.168.512.168.512.454.512.625.511.62.512.458.512.164.511-.164.512-.457.512-.621.512-.625.511-.454.512-.168.512.168.512.454.511.625.512.62.508.458.511.164.512-.164.512-.457.512-.621.511-.625.512-.454.512-.168.511.168.512.454.512.625.512.62.511.458.512.164.512-1.242 1.039" fill="none" stroke="#000" stroke-miterlimit="10" stroke-width=".3985" transform="matrix(1 0 0 -1 34.143 27.662)"/></g><use x="129.412" xlink:href="#g" y="29.807"/><path d="m29.765.002c0 .781-.636 1.414-1.418 1.414a1.415 1.415 0 1 1 0-2.832c.782 0 1.418.633 1.418 1.418zm0 0" stroke="#000" stroke-miterlimit="10" stroke-width=".3985" transform="matrix(1 0 0 -1 144.555 27.662)"/><path d="m0 .002h.562l.559.62.562.458.559.164.562-.164.563-.457.558-.621.563-.625.562-.457.56-.164.562.164.558.457.563.625.562.62.559.458.562.164.559-.164.562-.457.563-.621.558-.625.563-.457.559-.164.562.164.563.457.558.625.563.62.558.458.563.164.562-.164.559-.457.562-.621.559-.625.562-.457.563-.164.558.164.563.457.559.625.562.62.563.458.558.164.563-.164.558-.457.563-.621.562-.625.559-.457.562-.164 1.126 1.246m-26.93-28.348.379.38-.059.82.055.699.261.5.5.261.7.055.82-.059.82-.062.703.059.496.261.262.496.059.703-.063.82-.058.821.054.7.262.5.5.261.7.055.82-.059.82-.062.703.058.496.262.262.496.058.703-.062.82-.059.82.055.704.262.496.5.262.699.058 1.64-.125.704.059.496.262.262.496.058.703-.062.82-.059.82.055.704.261.496.5.261.7.059 1.64-.125.703.059.497.261.261.496.059.704-.063.82-.058.82.054.703.262.496.5.262.7.059 1.64-.125.703.058.496.262.262.496.059.703-.063.82-.059.82.055.704.262.496.5.262.7.058 1.64-.125.703.059.496.262-.106 1.656" fill="none" stroke="#000" stroke-miterlimit="10" stroke-width=".3985" transform="matrix(1 0 0 -1 144.555 27.662)"/><g clip-path="url(#i)"><path d="m59.527.002a2.834 2.834 0 1 1 -5.668-.004 2.834 2.834 0 0 1 5.668.004zm0 0" fill="none" stroke="#000" stroke-miterlimit="10" stroke-width=".3985" transform="matrix(1 0 0 -1 144.555 27.662)"/></g><g clip-path="url(#j)"><path d="m54.691-2.006 4.009 4.012m-4.008 0 4.008-4.012" fill="none" stroke="#000" stroke-miterlimit="10" stroke-width=".3985" transform="matrix(1 0 0 -1 144.555 27.662)"/></g><g clip-path="url(#k)"><path d="m28.347 1.416-.015.504-.621.52-.434.554-.125.559.23.53.54.458.71.383.723.324.57.316.31.375.01.48-.222.61-.336.719-.281.758-.098.703.18.55.473.344.695.122.809-.04.789-.09.652-.015.457.172.258.414.113.644.063.793.109.801.238.66.403.399.562.086.672-.2.707-.386.68-.41.597-.282.5-.027.41.285.36.555.36.71.394.704.453.527.512.23.55-.116.555-.422.535-.606.5-.617.473-.465.46-.187.485.129.524.402.574.555.605.53.606.345.562.046.485-.296.379-.586.296-.754.25-.754.27-.598.355-.344.489-.05.633.18.738.288.77.25.699.067.543-.195.32-.48.101-.704-.066-.805-.117-.785-.043-.648.144-.461.399-.27.637-.144.78-.11.794-.172.64-.3.368-.454.03-.578-.273-.652-.468-.66-.5-.613-.364-.547-.101-.477 1.324-.863" fill="none" stroke="#000" stroke-miterlimit="10" stroke-width=".3985" transform="matrix(1 0 0 -1 144.555 27.662)"/></g><path d="m189.117 12.934-5.379-1.918.219 4.363zm0 0"/><use x="183.945" xlink:href="#c" y="7.61"/><g clip-path="url(#l)"><path d="m56.695-2.834-.035-.504.566-.578.375-.594.067-.57-.282-.504-.578-.402-.75-.309-.75-.25-.601-.258-.34-.34-.059-.48.16-.63.258-.75.207-.78.028-.711-.235-.531-.504-.29-.703-.054-.8.12-.778.169-.648.082-.473-.125-.297-.387-.176-.633-.14-.78-.192-.786-.3-.633-.442-.355-.566-.032-.649.266-.668.453-.636.48-.567.34-.492.07-.434-.238-.414-.515-.43-.672-.46-.66-.508-.48-.531-.176-.535.171-.512.473-.473.652-.433.668-.426.508-.442.235-.492-.082-.562-.348-.625-.492-.657-.469-.636-.285-.563.012-.453.343-.32.621-.219.778-.172.777-.21.625-.317.371-.485.102-.644-.114-.766-.218-.789-.168h-.703l-.52.254-.273.507-.027.707.144.797.196.766.109.645-.102.472-.367.309-.617.207-.77.187-.773.25-.605.364-.32.484.027.578.336.621.53.61.56.562.417.508.149.465-1.23.992" fill="none" stroke="#000" stroke-miterlimit="10" stroke-width=".3985" transform="matrix(1 0 0 -1 144.555 27.662)"/></g><path d="m183.785 42.121 5.16 2.45.22-4.368zm0 0"/><use x="183.945" xlink:href="#c" y="50.066"/></svg>