<svg xmlns="http://www.w3.org/2000/svg" xmlns:xlink="http://www.w3.org/1999/xlink" width="279.692" height="216.255" viewBox="0 0 209.769 162.191"><defs><symbol overflow="visible" id="b"><path d="M6.563-2.297c.171 0 .359 0 .359-.203 0-.188-.188-.188-.36-.188h-5.39c-.172 0-.344 0-.344.188 0 .203.172.203.344.203zm0 0"/></symbol><symbol overflow="visible" id="c"><path d="M1.266-.766l1.062-1.03c1.547-1.376 2.14-1.907 2.14-2.907 0-1.14-.89-1.938-2.109-1.938C1.234-6.64.5-5.719.5-4.828c0 .547.5.547.531.547.172 0 .516-.11.516-.532a.513.513 0 0 0-.531-.515c-.079 0-.094 0-.125.016.218-.657.765-1.016 1.343-1.016.907 0 1.329.812 1.329 1.625 0 .797-.485 1.578-1.047 2.203L.609-.375C.5-.265.5-.235.5 0h3.703l.266-1.734h-.235C4.172-1.438 4.11-1 4-.844c-.063.078-.719.078-.938.078zm0 0"/></symbol><symbol overflow="visible" id="d"><path d="M2.938-6.375c0-.25 0-.266-.235-.266C2.078-6 1.203-6 .891-6v.313c.203 0 .78 0 1.296-.266v5.172c0 .36-.03.469-.921.469H.953V0c.344-.031 1.203-.031 1.61-.031.39 0 1.265 0 1.609.031v-.313h-.313c-.906 0-.921-.109-.921-.468zm0 0"/></symbol><symbol overflow="visible" id="e"><path d="M4.578-3.188c0-.796-.047-1.593-.39-2.328C3.733-6.484 2.905-6.64 2.5-6.64c-.61 0-1.328.266-1.75 1.188-.313.687-.36 1.469-.36 2.266 0 .75.032 1.64.454 2.406a1.83 1.83 0 0 0 1.64 1c.532 0 1.297-.203 1.735-1.157.312-.687.36-1.468.36-2.25zM2.484 0c-.39 0-.984-.25-1.156-1.203-.11-.594-.11-1.516-.11-2.11 0-.64 0-1.296.079-1.828.187-1.187.937-1.28 1.187-1.28.329 0 .985.187 1.172 1.171.11.563.11 1.313.11 1.938 0 .75 0 1.421-.11 2.062C3.5-.297 2.937 0 2.484 0zm0 0"/></symbol><symbol overflow="visible" id="g"><path d="M4.469-2c0-1.188-.813-2.188-1.89-2.188-.47 0-.907.157-1.267.516v-1.953c.204.063.532.125.844.125 1.235 0 1.938-.906 1.938-1.031 0-.063-.032-.11-.11-.11 0 0-.03 0-.078.032a3.22 3.22 0 0 1-1.36.296c-.39 0-.858-.078-1.327-.28-.078-.032-.094-.032-.11-.032C1-6.625 1-6.547 1-6.391v2.954c0 .171 0 .25.14.25.079 0 .094-.016.141-.079.11-.156.469-.703 1.282-.703.515 0 .765.453.843.64.156.376.188.75.188 1.25 0 .36 0 .954-.25 1.376-.235.39-.61.64-1.063.64-.719 0-1.297-.53-1.469-1.109.032 0 .063.016.172.016.329 0 .5-.25.5-.485 0-.25-.171-.5-.5-.5-.14 0-.484.079-.484.532C.5-.75 1.188.219 2.297.219 3.453.219 4.469-.734 4.469-2zm0 0"/></symbol><symbol overflow="visible" id="j"><path d="M1.719-3.984h1.437v-.313H1.72v-1.828h-.25c0 .813-.297 1.875-1.282 1.922v.219h.844v2.75c0 1.218.938 1.343 1.297 1.343.703 0 .985-.703.985-1.343v-.563h-.25v.547c0 .734-.297 1.11-.672 1.11-.672 0-.672-.907-.672-1.079zm0 0"/></symbol><symbol overflow="visible" id="k"><path d="M3.313-.75c.046.39.312.813.78.813.22 0 .829-.141.829-.954v-.562h-.25v.562c0 .579-.25.641-.36.641-.328 0-.375-.453-.375-.5v-1.984c0-.422 0-.813-.359-1.188-.39-.39-.89-.547-1.36-.547-.827 0-1.515.469-1.515 1.125 0 .297.203.469.469.469a.435.435 0 0 0 .453-.453c0-.125-.047-.453-.516-.453.282-.36.766-.469 1.079-.469.5 0 1.062.39 1.062 1.281v.36c-.516.03-1.203.062-1.828.359-.75.344-1 .86-1 1.297 0 .812.969 1.062 1.594 1.062.656 0 1.109-.406 1.296-.859zM3.25-2.39v1c0 .937-.719 1.28-1.172 1.28-.484 0-.89-.343-.89-.843 0-.547.421-1.375 2.062-1.438zm0 0"/></symbol><symbol overflow="visible" id="l"><path d="M1.094-3.422V-.75c0 .438-.11.438-.782.438V0c.36-.016.86-.031 1.141-.031.25 0 .766.015 1.11.031v-.313c-.672 0-.782 0-.782-.437v-1.844c0-1.031.719-1.594 1.344-1.594.64 0 .75.532.75 1.11V-.75c0 .438-.11.438-.781.438V0c.344-.016.86-.031 1.125-.031.25 0 .781.015 1.11.031v-.313c-.516 0-.766 0-.766-.296v-1.907c0-.859 0-1.156-.313-1.515-.14-.172-.469-.375-1.047-.375-.734 0-1.203.422-1.484 1.047v-1.047l-1.407.11v.312c.704 0 .782.062.782.562zm0 0"/></symbol><symbol overflow="visible" id="m"><path d="M1.094-.75c0 .438-.11.438-.782.438V0c.36-.016.86-.031 1.141-.031.25 0 .766.015 1.11.031v-.313c-.672 0-.782 0-.782-.437v-1.844c0-1.031.719-1.594 1.344-1.594.64 0 .75.532.75 1.11V-.75c0 .438-.11.438-.781.438V0c.344-.016.86-.031 1.125-.031.25 0 .781.015 1.11.031v-.313c-.516 0-.766 0-.766-.296v-1.907c0-.859 0-1.156-.313-1.515-.14-.172-.469-.375-1.047-.375-.844 0-1.281.593-1.453.984v-3.5l-1.438.11v.312c.704 0 .782.063.782.563zm0 0"/></symbol><symbol overflow="visible" id="n"><path d="M3.297 2.39c0-.03 0-.046-.172-.218C1.891.922 1.562-.968 1.562-2.5c0-1.734.375-3.469 1.61-4.703.125-.125.125-.14.125-.172 0-.078-.031-.11-.094-.11-.11 0-1 .688-1.594 1.954C1.11-4.438.984-3.328.984-2.5c0 .781.11 1.984.657 3.125C2.25 1.844 3.094 2.5 3.203 2.5c.063 0 .094-.031.094-.11zm0 0"/></symbol><symbol overflow="visible" id="o"><path d="M2.875-2.5c0-.766-.11-1.969-.656-3.11C1.625-6.827.766-7.483.672-7.483a.107.107 0 0 0-.11.109c0 .031 0 .047.188.234.984.985 1.547 2.563 1.547 4.641 0 1.719-.36 3.469-1.594 4.719-.14.125-.14.14-.14.172 0 .062.046.109.109.109.094 0 1-.688 1.578-1.953.516-1.094.625-2.203.625-3.047zm0 0"/></symbol><symbol overflow="visible" id="f"><path d="M1.906-.531a.534.534 0 0 0-.515-.531.537.537 0 0 0-.532.53.524.524 0 1 0 1.047 0zm0 0"/></symbol><symbol overflow="visible" id="i"><path d="M3.328-3.016c.063-.25.297-1.171.985-1.171.046 0 .296 0 .5.125a.578.578 0 0 0-.47.546c0 .157.11.344.376.344a.546.546 0 0 0 .531-.578c0-.516-.578-.656-.922-.656-.578 0-.922.531-1.047.75-.25-.656-.781-.75-1.078-.75-1.031 0-1.61 1.281-1.61 1.531 0 .11.11.11.126.11.078 0 .11-.032.125-.11.344-1.063 1-1.313 1.344-1.313.187 0 .53.094.53.672 0 .313-.171.97-.53 2.375-.157.61-.516 1.032-.954 1.032-.062 0-.28 0-.5-.125.25-.063.47-.266.47-.547 0-.266-.22-.344-.36-.344-.313 0-.547.25-.547.578 0 .453.484.656.922.656.672 0 1.031-.703 1.047-.75.125.36.484.75 1.078.75 1.031 0 1.594-1.28 1.594-1.53 0-.11-.079-.11-.11-.11-.094 0-.11.047-.14.11-.329 1.077-1 1.312-1.313 1.312-.39 0-.547-.313-.547-.657 0-.218.047-.437.156-.875zm0 0"/></symbol><clipPath id="a"><path d="M106 2h2v160.191h-2zm0 0"/></clipPath><clipPath id="h"><path d="M9.688 7H203.96v148H9.687zm0 0"/></clipPath></defs><path d="M9.688 83.219v-4.25m48.566 4.25v-4.25m97.137 4.25v-4.25m48.57 4.25v-4.25m-99.262 66.683h4.25m-4.25-32.277h4.25m-4.25-64.559h4.25m-4.25-32.28h4.25M9.688 81.093H201.37" fill="none" stroke-width="0.79701" stroke="rgb(0%,0%,0%)" stroke-miterlimit="10"/><path d="M203.96 81.094l-4.144-2.07 1.555 2.07-1.555 2.074" fill="rgb(0%,0%,0%)"/><g clip-path="url(#a)"><path d="M106.824 161.793V2.988" fill="none" stroke-width="0.79701" stroke="rgb(0%,0%,0%)" stroke-miterlimit="10"/></g><path d="M106.824.395l-2.074 4.144 2.074-1.55 2.07 1.55" fill="rgb(0%,0%,0%)"/><use xlink:href="#b" x="3.321" y="93.361" fill="rgb(0%,0%,0%)"/><use xlink:href="#c" x="11.069" y="93.361" fill="rgb(0%,0%,0%)"/><use xlink:href="#b" x="51.889" y="93.361" fill="rgb(0%,0%,0%)"/><use xlink:href="#d" x="59.637" y="93.361" fill="rgb(0%,0%,0%)"/><use xlink:href="#d" x="152.899" y="93.361" fill="rgb(0%,0%,0%)"/><use xlink:href="#c" x="201.468" y="93.361" fill="rgb(0%,0%,0%)"/><use xlink:href="#b" x="88.247" y="148.448" fill="rgb(0%,0%,0%)"/><use xlink:href="#d" x="95.996" y="148.448" fill="rgb(0%,0%,0%)"/><use xlink:href="#b" x="80.498" y="116.169" fill="rgb(0%,0%,0%)"/><use xlink:href="#e" x="88.247" y="116.169" fill="rgb(0%,0%,0%)"/><use xlink:href="#f" x="93.228" y="116.169" fill="rgb(0%,0%,0%)"/><use xlink:href="#g" x="95.996" y="116.169" fill="rgb(0%,0%,0%)"/><use xlink:href="#e" x="88.247" y="52.027" fill="rgb(0%,0%,0%)"/><use xlink:href="#f" x="93.228" y="52.027" fill="rgb(0%,0%,0%)"/><use xlink:href="#g" x="95.996" y="52.027" fill="rgb(0%,0%,0%)"/><use xlink:href="#d" x="95.996" y="19.748" fill="rgb(0%,0%,0%)"/><g clip-path="url(#h)"><path d="M9.688 143.328s5.847-.598 8.093-.894c2.246-.293 5.848-.825 8.094-1.227 2.246-.406 5.848-1.133 8.094-1.68 2.246-.547 5.851-1.53 8.097-2.265 2.246-.735 5.848-2.055 8.094-3.024 2.246-.972 5.848-2.715 8.094-3.976 2.246-1.262 5.848-3.524 8.094-5.125 2.246-1.606 5.851-4.453 8.097-6.426 2.246-1.969 5.848-5.45 8.094-7.79 2.246-2.339 5.848-6.417 8.094-9.077 2.246-2.66 5.847-7.215 8.094-10.094 2.25-2.879 5.851-7.703 8.097-10.66 2.246-2.957 5.848-7.77 8.094-10.649 2.246-2.879 5.848-7.437 8.094-10.097 2.246-2.66 5.847-6.739 8.097-9.078 2.246-2.34 5.848-5.817 8.094-7.79 2.246-1.972 5.848-4.82 8.094-6.421 2.246-1.602 5.848-3.86 8.094-5.121 2.246-1.266 5.851-3.012 8.097-3.98 2.246-.974 5.848-2.294 8.094-3.028 2.246-.735 5.848-1.719 8.094-2.266 2.246-.547 5.847-1.273 8.094-1.676 2.246-.406 5.851-.937 8.097-1.23 2.246-.297 8.094-.895 8.094-.895" fill="none" stroke-width="0.79701" stroke="rgb(0%,0%,100%)" stroke-miterlimit="10"/></g><path d="M58.254 145.652s2.926-3.886 4.047-5.379a4836.67 4836.67 0 0 0 4.047-5.378 6439.37 6439.37 0 0 1 4.05-5.383c1.122-1.492 2.922-3.887 4.047-5.38 1.121-1.491 2.922-3.886 4.047-5.378a4838.84 4838.84 0 0 1 4.047-5.379c1.125-1.496 2.926-3.887 4.047-5.383a4836.67 4836.67 0 0 0 4.047-5.379 4837.6 4837.6 0 0 0 4.047-5.379c1.125-1.492 2.925-3.886 4.05-5.379 1.122-1.496 2.922-3.886 4.047-5.382a4837.6 4837.6 0 0 1 4.047-5.38 4836.67 4836.67 0 0 1 4.047-5.378c1.121-1.492 2.926-3.887 4.047-5.38 1.125-1.491 2.926-3.886 4.047-5.382 1.125-1.492 2.926-3.887 4.047-5.379a4838.84 4838.84 0 0 0 4.047-5.379c1.125-1.492 2.925-3.886 4.05-5.379l4.047-5.382a4838.84 4838.84 0 0 1 4.047-5.38c1.121-1.492 2.922-3.886 4.047-5.378a4838.84 4838.84 0 0 0 4.047-5.38c1.125-1.491 2.926-3.886 4.047-5.378l4.047-5.383" fill="none" stroke-width="0.3985" stroke="rgb(0%,0%,100%)" stroke-dasharray="2.98883,2.98883" stroke-miterlimit="10"/><use xlink:href="#i" x="194.545" y="77.377" fill="rgb(0%,0%,0%)"/><g fill="rgb(0%,0%,0%)"><use xlink:href="#j" x="110.541" y="11.59"/><use xlink:href="#k" x="114.415" y="11.59"/><use xlink:href="#l" x="119.397" y="11.59"/><use xlink:href="#m" x="124.932" y="11.59"/><use xlink:href="#n" x="130.467" y="11.59"/></g><use xlink:href="#i" x="134.341" y="11.59" fill="rgb(0%,0%,0%)"/><use xlink:href="#o" x="140.035" y="11.59" fill="rgb(0%,0%,0%)"/></svg>