<svg height="216.255" viewBox="0 0 209.769 162.191" width="279.692" xmlns="http://www.w3.org/2000/svg" xmlns:xlink="http://www.w3.org/1999/xlink"><symbol id="a" overflow="visible"><path d="m6.563-2.297c.171 0 .359 0 .359-.203 0-.188-.188-.188-.36-.188h-5.39c-.172 0-.344 0-.344.188 0 .203.172.203.344.203zm0 0"/></symbol><symbol id="b" overflow="visible"><path d="m1.266-.766 1.062-1.03c1.547-1.376 2.14-1.907 2.14-2.907 0-1.14-.89-1.938-2.109-1.938a1.843 1.843 0 0 0 -1.859 1.813c0 .547.5.547.531.547.172 0 .516-.11.516-.532a.513.513 0 0 0 -.531-.515c-.079 0-.094 0-.125.016.218-.657.765-1.016 1.343-1.016.907 0 1.329.812 1.329 1.625 0 .797-.485 1.578-1.047 2.203l-1.907 2.125c-.109.11-.109.14-.109.375h3.703l.266-1.734h-.235c-.062.296-.124.734-.234.89-.063.078-.719.078-.938.078zm0 0"/></symbol><symbol id="c" overflow="visible"><path d="m2.938-6.375c0-.25 0-.266-.235-.266-.625.641-1.5.641-1.812.641v.313c.203 0 .78 0 1.296-.266v5.172c0 .36-.03.469-.921.469h-.313v.312c.344-.031 1.203-.031 1.61-.031.39 0 1.265 0 1.609.031v-.313h-.313c-.906 0-.921-.109-.921-.468zm0 0"/></symbol><symbol id="d" overflow="visible"><path d="m4.578-3.188c0-.796-.047-1.593-.39-2.328-.455-.968-1.283-1.124-1.688-1.124-.61 0-1.328.266-1.75 1.188-.313.687-.36 1.469-.36 2.266 0 .75.032 1.64.454 2.406a1.83 1.83 0 0 0 1.64 1c.532 0 1.297-.203 1.735-1.157.312-.687.36-1.468.36-2.25zm-2.094 3.188c-.39 0-.984-.25-1.156-1.203-.11-.594-.11-1.516-.11-2.11 0-.64 0-1.296.079-1.828.187-1.187.937-1.28 1.187-1.28.329 0 .985.187 1.172 1.171.11.563.11 1.313.11 1.938 0 .75 0 1.421-.11 2.062-.156.953-.719 1.25-1.172 1.25zm0 0"/></symbol><symbol id="e" overflow="visible"><path d="m4.469-2c0-1.188-.813-2.188-1.89-2.188-.47 0-.907.157-1.267.516v-1.953c.204.063.532.125.844.125 1.235 0 1.938-.906 1.938-1.031 0-.063-.032-.11-.11-.11 0 0-.03 0-.078.032a3.22 3.22 0 0 1 -1.36.296 3.4 3.4 0 0 1 -1.327-.28c-.078-.032-.094-.032-.11-.032-.109 0-.109.078-.109.234v2.954c0 .171 0 .25.14.25.079 0 .094-.016.141-.079.11-.156.469-.703 1.282-.703.515 0 .765.453.843.64.156.376.188.75.188 1.25 0 .36 0 .954-.25 1.376-.235.39-.61.64-1.063.64-.719 0-1.297-.53-1.469-1.109.032 0 .063.016.172.016.329 0 .5-.25.5-.485 0-.25-.171-.5-.5-.5-.14 0-.484.079-.484.532 0 .859.688 1.828 1.797 1.828 1.156 0 2.172-.953 2.172-2.219zm0 0"/></symbol><symbol id="f" overflow="visible"><path d="m1.719-3.984h1.437v-.313h-1.436v-1.828h-.25c0 .813-.297 1.875-1.282 1.922v.219h.844v2.75c0 1.218.938 1.343 1.297 1.343.703 0 .985-.703.985-1.343v-.563h-.25v.547c0 .734-.297 1.11-.672 1.11-.672 0-.672-.907-.672-1.079zm0 0"/></symbol><symbol id="g" overflow="visible"><path d="m3.313-.75c.046.39.312.813.78.813.22 0 .829-.141.829-.954v-.562h-.25v.562c0 .579-.25.641-.36.641-.328 0-.375-.453-.375-.5v-1.984c0-.422 0-.813-.359-1.188a1.9 1.9 0 0 0 -1.36-.547c-.827 0-1.515.469-1.515 1.125 0 .297.203.469.469.469a.435.435 0 0 0 .453-.453c0-.125-.047-.453-.516-.453.282-.36.766-.469 1.079-.469.5 0 1.062.39 1.062 1.281v.36c-.516.03-1.203.062-1.828.359-.75.344-1 .86-1 1.297 0 .812.969 1.062 1.594 1.062a1.38 1.38 0 0 0 1.296-.859zm-.063-1.64v1c0 .937-.719 1.28-1.172 1.28-.484 0-.89-.343-.89-.843 0-.547.421-1.375 2.062-1.438zm0 0"/></symbol><symbol id="h" overflow="visible"><path d="m1.094-3.422v2.672c0 .438-.11.438-.782.438v.312c.36-.016.86-.031 1.141-.031.25 0 .766.015 1.11.031v-.313c-.672 0-.782 0-.782-.437v-1.844c0-1.031.719-1.594 1.344-1.594.64 0 .75.532.75 1.11v2.328c0 .438-.11.438-.781.438v.312c.344-.016.86-.031 1.125-.031.25 0 .781.015 1.11.031v-.313c-.516 0-.766 0-.766-.296v-1.907c0-.859 0-1.156-.313-1.515-.14-.172-.469-.375-1.047-.375-.734 0-1.203.422-1.484 1.047v-1.047l-1.407.11v.312c.704 0 .782.062.782.562zm0 0"/></symbol><symbol id="i" overflow="visible"><path d="m1.094-.75c0 .438-.11.438-.782.438v.312c.36-.016.86-.031 1.141-.031.25 0 .766.015 1.11.031v-.313c-.672 0-.782 0-.782-.437v-1.844c0-1.031.719-1.594 1.344-1.594.64 0 .75.532.75 1.11v2.328c0 .438-.11.438-.781.438v.312c.344-.016.86-.031 1.125-.031.25 0 .781.015 1.11.031v-.313c-.516 0-.766 0-.766-.296v-1.907c0-.859 0-1.156-.313-1.515-.14-.172-.469-.375-1.047-.375-.844 0-1.281.593-1.453.984v-3.5l-1.438.11v.312c.704 0 .782.063.782.563zm0 0"/></symbol><symbol id="j" overflow="visible"><path d="m3.297 2.39c0-.03 0-.046-.172-.218-1.234-1.25-1.563-3.14-1.563-4.672 0-1.734.375-3.469 1.61-4.703.125-.125.125-.14.125-.172 0-.078-.031-.11-.094-.11-.11 0-1 .688-1.594 1.954-.499 1.093-.625 2.203-.625 3.031 0 .781.11 1.984.657 3.125.609 1.219 1.453 1.875 1.562 1.875.063 0 .094-.031.094-.11zm0 0"/></symbol><symbol id="k" overflow="visible"><path d="m2.875-2.5c0-.766-.11-1.969-.656-3.11-.594-1.217-1.453-1.873-1.547-1.873a.107.107 0 0 0 -.11.109c0 .031 0 .047.188.234.984.985 1.547 2.563 1.547 4.641 0 1.719-.36 3.469-1.594 4.719-.14.125-.14.14-.14.172 0 .062.046.109.109.109.094 0 1-.688 1.578-1.953.516-1.094.625-2.203.625-3.047zm0 0"/></symbol><symbol id="l" overflow="visible"><path d="m1.906-.531a.534.534 0 0 0 -.515-.531.537.537 0 0 0 -.532.53.524.524 0 1 0 1.047 0zm0 0"/></symbol><symbol id="m" overflow="visible"><path d="m3.328-3.016c.063-.25.297-1.171.985-1.171.046 0 .296 0 .5.125a.578.578 0 0 0 -.47.546c0 .157.11.344.376.344a.546.546 0 0 0 .531-.578c0-.516-.578-.656-.922-.656-.578 0-.922.531-1.047.75-.25-.656-.781-.75-1.078-.75-1.031 0-1.61 1.281-1.61 1.531 0 .11.11.11.126.11.078 0 .11-.032.125-.11.344-1.063 1-1.313 1.344-1.313.187 0 .53.094.53.672 0 .313-.171.97-.53 2.375-.157.61-.516 1.032-.954 1.032-.062 0-.28 0-.5-.125.25-.063.47-.266.47-.547 0-.266-.22-.344-.36-.344-.313 0-.547.25-.547.578 0 .453.484.656.922.656.672 0 1.031-.703 1.047-.75.125.36.484.75 1.078.75 1.031 0 1.594-1.28 1.594-1.53 0-.11-.079-.11-.11-.11-.094 0-.11.047-.14.11-.329 1.077-1 1.312-1.313 1.312-.39 0-.547-.313-.547-.657 0-.218.047-.437.156-.875zm0 0"/></symbol><clipPath id="n"><path d="m106 2h2v160.191h-2zm0 0"/></clipPath><clipPath id="o"><path d="m9.688 7h194.272v148h-194.273zm0 0"/></clipPath><path d="m.002 78.573v4.25m48.566-4.25v4.25m97.137-4.25v4.25m48.57-4.25v4.25m-99.262-66.683h4.25m-4.25 32.277h4.25m-4.25 64.559h4.25m-4.25 32.28h4.25m-99.261-64.558h191.683" fill="none" stroke="#000" stroke-miterlimit="10" stroke-width=".79701" transform="matrix(1 0 0 -1 9.686 161.792)"/><path d="m203.96 81.094-4.144-2.07 1.555 2.07-1.555 2.074"/><g clip-path="url(#n)"><path d="m97.138-.001v158.805" fill="none" stroke="#000" stroke-miterlimit="10" stroke-width=".79701" transform="matrix(1 0 0 -1 9.686 161.792)"/></g><path d="m106.824.398-2.074 4.145 2.074-1.555 2.07 1.555"/><use x="3.321" xlink:href="#a" y="93.361"/><use x="11.069" xlink:href="#b" y="93.361"/><use x="51.889" xlink:href="#a" y="93.361"/><use x="59.637" xlink:href="#c" y="93.361"/><use x="152.899" xlink:href="#c" y="93.361"/><use x="201.468" xlink:href="#b" y="93.361"/><use x="88.247" xlink:href="#a" y="148.448"/><use x="95.996" xlink:href="#c" y="148.448"/><use x="80.498" xlink:href="#a" y="116.169"/><use x="88.247" xlink:href="#d" y="116.169"/><use x="93.228" xlink:href="#l" y="116.169"/><use x="95.996" xlink:href="#e" y="116.169"/><use x="88.247" xlink:href="#d" y="52.027"/><use x="93.228" xlink:href="#l" y="52.027"/><use x="95.996" xlink:href="#e" y="52.027"/><use x="95.996" xlink:href="#c" y="19.748"/><g clip-path="url(#o)"><path d="m.002 18.464s5.847.598 8.093.894c2.246.293 5.848.825 8.094 1.227 2.246.406 5.848 1.133 8.094 1.68s5.851 1.53 8.097 2.265 5.848 2.055 8.094 3.024c2.246.972 5.848 2.715 8.094 3.976 2.246 1.262 5.848 3.524 8.094 5.125 2.246 1.606 5.851 4.453 8.097 6.426 2.246 1.969 5.848 5.45 8.094 7.79 2.246 2.339 5.848 6.417 8.094 9.077s5.847 7.215 8.094 10.094c2.25 2.879 5.851 7.703 8.097 10.66s5.848 7.77 8.094 10.649 5.848 7.437 8.094 10.097 5.847 6.739 8.093 9.078c2.25 2.34 5.852 5.817 8.098 7.79 2.246 1.972 5.848 4.82 8.094 6.421 2.246 1.602 5.848 3.86 8.094 5.121 2.246 1.266 5.847 3.008 8.097 3.98 2.246.974 5.848 2.294 8.094 3.028 2.246.735 5.848 1.719 8.094 2.266s5.847 1.273 8.094 1.676c2.246.406 5.847.937 8.097 1.23 2.246.293 8.094.899 8.094.899" fill="none" stroke="#00f" stroke-miterlimit="10" stroke-width=".79701" transform="matrix(1 0 0 -1 9.686 161.792)"/></g><path d="m48.568 16.14s2.926 3.886 4.047 5.379a4836.67 4836.67 0 0 1 4.047 5.378 6439.37 6439.37 0 0 0 4.05 5.383c1.122 1.492 2.922 3.887 4.047 5.38 1.121 1.491 2.922 3.886 4.047 5.378a4838.84 4838.84 0 0 0 4.047 5.379c1.125 1.496 2.926 3.887 4.047 5.383a4836.67 4836.67 0 0 1 4.047 5.379 4837.6 4837.6 0 0 1 4.047 5.379c1.125 1.492 2.925 3.886 4.05 5.379 1.122 1.496 2.922 3.886 4.047 5.382a4837.6 4837.6 0 0 0 4.047 5.38 4836.67 4836.67 0 0 0 4.047 5.378c1.121 1.492 2.926 3.887 4.047 5.38 1.121 1.491 2.926 3.886 4.047 5.382a4725.36 4725.36 0 0 1 4.047 5.379 4838.84 4838.84 0 0 1 4.047 5.379c1.125 1.492 2.925 3.886 4.05 5.379 1.121 1.496 2.922 3.886 4.047 5.379 1.121 1.496 2.922 3.886 4.047 5.382 1.121 1.493 2.926 3.887 4.047 5.38 1.121 1.491 2.926 3.886 4.047 5.378 1.125 1.492 2.926 3.887 4.047 5.383a7734.12 7734.12 0 0 1 4.047 5.379" fill="none" stroke="#00f" stroke-dasharray="2.98883 2.98883" stroke-miterlimit="10" stroke-width=".3985" transform="matrix(1 0 0 -1 9.686 161.792)"/><use x="194.545" xlink:href="#m" y="77.377"/><g><use x="110.541" xlink:href="#f" y="11.59"/><use x="114.415" xlink:href="#g" y="11.59"/><use x="119.397" xlink:href="#h" y="11.59"/><use x="124.932" xlink:href="#i" y="11.59"/><use x="130.467" xlink:href="#j" y="11.59"/></g><use x="134.341" xlink:href="#m" y="11.59"/><use x="140.035" xlink:href="#k" y="11.59"/></svg>