<svg height="216.025" viewBox="0 0 203.863 162.019" width="271.817" xmlns="http://www.w3.org/2000/svg" xmlns:xlink="http://www.w3.org/1999/xlink"><symbol id="a" overflow="visible"><path d="m2.86-6.813s0-.109-.126-.109c-.234 0-.953.078-1.218.11-.079 0-.188.015-.188.187 0 .125.094.125.234.125.485 0 .5.063.5.172l-.03.203-1.439 5.734c-.046.141-.046.157-.046.221 0 .234.203.28.297.28a.418.418 0 0 0 .328-.203c.047-.093.5-1.937.562-2.187.344.031 1.157.187 1.157.844 0 .078 0 .109-.032.218-.015.11-.03.235-.03.344 0 .578.39.984.905.984.297 0 .579-.156.797-.53.25-.438.36-.985.36-1 0-.11-.094-.11-.125-.11-.094 0-.11.047-.141.187-.203.719-.422 1.235-.86 1.235-.203 0-.328-.11-.328-.47 0-.171.047-.405.079-.562.046-.171.046-.203.046-.312 0-.64-.624-.922-1.484-1.047.313-.172.64-.484.86-.734.484-.532.937-.954 1.421-.954.063 0 .079 0 .094.016.125.016.125.016.219.078.016 0 .016.016.031.032a.569.569 0 0 0 -.562.546c0 .157.109.344.375.344.265 0 .546-.219.546-.61 0-.296-.234-.624-.671-.624-.282 0-.735.078-1.454.875-.343.375-.734.781-1.109.922zm0 0"/></symbol><symbol id="b" overflow="visible"><path d="m7.531-5.766c.11-.39.282-.703 1.078-.734.047 0 .172-.016.172-.203 0 0 0-.11-.125-.11-.328 0-.687.032-1.015.032-.329 0-.688-.032-1.016-.032-.063 0-.172 0-.172.204 0 .109.094.109.172.109.578.016.688.219.688.438 0 .03-.032.187-.032.203l-1.125 4.437-2.203-5.203c-.078-.172-.078-.188-.312-.188h-1.344c-.188 0-.281 0-.281.204 0 .109.093.109.28.109.048 0 .673 0 .673.094l-1.329 5.343c-.11.407-.282.72-1.079.75-.062 0-.171.016-.171.204 0 .062.047.109.126.109.328 0 .671-.031 1-.031.343 0 .703.031 1.03.031.048 0 .173 0 .173-.203 0-.094-.094-.11-.203-.11-.579-.015-.657-.234-.657-.437 0-.063.016-.125.047-.234l1.313-5.25c.047.046.047.078.094.171l2.483 5.875c.062.172.094.188.187.188.11 0 .11-.031.157-.203zm0 0"/></symbol><symbol id="c" overflow="visible"><path d="m1.734-.734c-.062.234-.296.609-.656.609-.016 0-.234 0-.375-.094a.437.437 0 0 0 .313-.39c0-.157-.125-.25-.282-.25a.407.407 0 0 0 -.406.421c0 .344.39.5.734.5.329 0 .61-.187.782-.484.172.36.547.484.828.484.812 0 1.234-.859 1.234-1.062 0-.094-.094-.094-.11-.094-.108 0-.108.047-.14.125-.14.485-.562.844-.953.844-.281 0-.422-.188-.422-.453 0-.188.172-.813.36-1.594.14-.531.453-.703.687-.703.016 0 .219 0 .375.094a.431.431 0 0 0 -.312.39c0 .141.125.25.28.25a.403.403 0 0 0 .392-.421c0-.391-.454-.516-.72-.516-.359 0-.64.234-.78.5-.126-.281-.454-.5-.844-.5-.782 0-1.219.86-1.219 1.078 0 .078.094.078.11.078.093 0 .093-.016.14-.11.172-.546.61-.843.953-.843.234 0 .422.125.422.453 0 .14-.094.485-.156.735zm0 0"/></symbol><symbol id="d" overflow="visible"><path d="m3.875-2.625c.031-.094.031-.11.031-.156 0-.14-.11-.219-.234-.219a.33.33 0 0 0 -.281.156c-.032.047-.079.266-.11.406l-.156.579a19.65 19.65 0 0 1 -.281 1.125s-.314.609-.844.609c-.484 0-.484-.453-.484-.578 0-.375.156-.813.375-1.36.078-.218.109-.296.109-.421 0-.329-.281-.594-.656-.594-.704 0-1.016.953-1.016 1.078 0 .078.094.078.125.078.094 0 .094-.031.125-.11.172-.577.469-.843.75-.843.11 0 .172.078.172.234 0 .172-.063.313-.094.407-.343.859-.406 1.109-.406 1.421 0 .11 0 .438.266.672.218.172.515.203.703.203.281 0 .531-.093.75-.312-.078.39-.156.688-.453 1.031-.188.219-.47.438-.844.438-.047 0-.375 0-.516-.219.375-.047.375-.375.375-.39 0-.22-.203-.266-.265-.266-.172 0-.407.14-.407.469 0 .343.329.609.829.609.702 0 1.562-.547 1.78-1.422zm0 0"/></symbol><symbol id="e" overflow="visible"><path d="m2.172-2.531h.828c-.11.422-.266 1.047-.266 1.61 0 .28.047.468.079.609.109.359.203.374.312.374.172 0 .328-.14.328-.312 0-.047-.015-.078-.047-.14-.14-.266-.265-.657-.265-1.235 0-.125 0-.406.093-.906h.875c.125 0 .188 0 .266-.047a.31.31 0 0 0 .11-.219c-.001-.203-.174-.203-.299-.203h-2.623c-.28 0-.484.063-.796.36-.188.156-.454.53-.454.593 0 .078.094.078.126.078.078 0 .078-.015.124-.078.344-.484.782-.484.938-.484h.422c-.219.765-.594 1.594-.797 2.015-.047.079-.11.235-.14.25 0 .032-.016.063-.016.11 0 .11.078.218.25.218.265 0 .343-.312.515-.937zm0 0"/></symbol><symbol id="f" overflow="visible"><path d="m2.875-4.188c.063-.25.078-.328.719-.328.219 0 .281 0 .281-.14 0-.016 0-.11-.11-.11a6.07 6.07 0 0 0 -.515.032h-1.047c-.14 0-.312-.032-.453-.032-.031 0-.14 0-.14.157 0 .093.077.093.218.093.016 0 .14 0 .266.016.156.016.172.031.172.11 0 0 0 .046-.032.14l-.937 3.703c-.063.235-.078.297-.61.297-.109 0-.203 0-.203.14 0 .11.079.11.204.11h3.5c.187 0 .187 0 .25-.14.062-.188.593-1.532.593-1.594 0-.016-.015-.094-.125-.094-.078 0-.093.031-.14.14-.266.658-.579 1.438-1.844 1.438h-.797c-.203 0-.219-.016-.219-.078 0 0 0-.031.032-.14zm0 0"/></symbol><symbol id="g" overflow="visible"><path d="m3.516-1.266h-.236c-.015.157-.094.563-.187.625-.047.047-.578.047-.688.047h-1.28c.734-.64.984-.844 1.39-1.172.516-.406 1-.843 1-1.5 0-.843-.734-1.359-1.624-1.359-.86 0-1.454.61-1.454 1.25 0 .344.297.39.376.39a.365.365 0 0 0 .359-.374c0-.125-.047-.375-.406-.375.218-.485.687-.641 1.015-.641.703 0 1.063.547 1.063 1.11 0 .609-.438 1.078-.656 1.328l-1.672 1.671c-.079.063-.079.079-.079.266h2.876zm0 0"/></symbol><symbol id="h" overflow="visible"><path d="m3.094-1.953c-.235.062-.235.281-.235.297 0 .078.063.203.235.203.14 0 .312-.125.312-.344 0-.297-.328-.406-.594-.406a.78.78 0 0 0 -.64.344c-.156-.282-.485-.344-.656-.344-.625 0-.985.594-.985.765 0 .079.078.079.11.079.046 0 .078 0 .109-.063.14-.484.547-.61.734-.61.172 0 .36.063.36.329 0 .125-.094.469-.266 1.14-.062.282-.297.454-.516.454-.03 0-.171 0-.296-.079.218-.093.218-.28.218-.296 0-.141-.109-.204-.218-.204-.125 0-.297.094-.297.329 0 .312.328.421.594.421a.76.76 0 0 0 .609-.343.806.806 0 0 0 .672.344c.625 0 .984-.594.984-.782 0-.062-.078-.062-.11-.062-.077 0-.093.031-.109.062-.14.453-.515.61-.734.61-.156 0-.36-.063-.36-.344 0-.063 0-.094.032-.266.094-.344.219-.89.265-.984.063-.125.235-.328.485-.328.015 0 .187 0 .297.078zm0 0"/></symbol><symbol id="i" overflow="visible"><path d="m3.297-1.86c.015-.077.015-.109.015-.109 0-.11-.078-.172-.171-.172-.204 0-.25.172-.282.297l-.109.422-.14.625c-.032.063-.047.156-.063.188 0 .03-.266.5-.688.5-.234 0-.406-.11-.406-.438 0-.265.14-.64.281-1a.452.452 0 0 0 .063-.219c0-.25-.234-.437-.547-.437-.516 0-.797.64-.797.765 0 .079.078.079.11.079.078 0 .078-.032.109-.094.11-.344.344-.578.562-.578.094 0 .157.047.157.187 0 .094-.032.172-.063.266-.25.594-.297.766-.297.969 0 .546.469.671.797.671.281 0 .5-.14.625-.25-.078.282-.125.5-.36.735-.124.11-.359.312-.655.312-.094 0-.282-.015-.391-.125a.326.326 0 0 0 .25-.296c0-.141-.125-.204-.219-.204a.324.324 0 0 0 -.328.344c0 .25.266.438.688.438.562 0 1.233-.376 1.389-1.016zm0 0"/></symbol><symbol id="j" overflow="visible"><path d="m3.297 2.39c0-.03 0-.046-.172-.218-1.234-1.25-1.563-3.14-1.563-4.672 0-1.734.375-3.469 1.61-4.703.125-.125.125-.14.125-.172 0-.078-.031-.11-.094-.11-.11 0-1 .688-1.594 1.954-.499 1.093-.625 2.203-.625 3.031 0 .781.11 1.984.657 3.125.609 1.219 1.453 1.875 1.562 1.875.063 0 .094-.031.094-.11zm0 0"/></symbol><symbol id="k" overflow="visible"><path d="m2.875-2.5c0-.766-.11-1.969-.656-3.11-.594-1.217-1.453-1.873-1.547-1.873a.107.107 0 0 0 -.11.109c0 .031 0 .047.188.234.984.985 1.547 2.563 1.547 4.641 0 1.719-.36 3.469-1.594 4.719-.14.125-.14.14-.14.172 0 .062.046.109.109.109.094 0 1-.688 1.578-1.953.516-1.094.625-2.203.625-3.047zm0 0"/></symbol><path d="m16.563 142.133a1.99 1.99 0 0 0 -1.993-1.992 1.993 1.993 0 1 0 1.992 1.992zm0-21.262a1.99 1.99 0 0 0 -1.993-1.992 1.99 1.99 0 0 0 -1.992 1.992 1.99 1.99 0 0 0 1.992 1.992 1.99 1.99 0 0 0 1.992-1.992zm0-21.261a1.993 1.993 0 1 0 -1.993 1.995 1.994 1.994 0 0 0 1.992-1.996zm0-21.258a1.99 1.99 0 0 0 -1.993-1.993 1.99 1.99 0 0 0 -1.992 1.993 1.99 1.99 0 0 0 1.992 1.992 1.99 1.99 0 0 0 1.992-1.992zm0-21.262a1.993 1.993 0 1 0 -3.987.001 1.993 1.993 0 0 0 3.986-.001zm0-21.258a1.99 1.99 0 0 0 -1.993-1.992 1.993 1.993 0 1 0 1.992 1.992zm0-21.262a1.99 1.99 0 0 0 -1.993-1.992 1.99 1.99 0 0 0 -1.992 1.992 1.99 1.99 0 0 0 1.992 1.992 1.99 1.99 0 0 0 1.992-1.992zm28.347 127.563a1.99 1.99 0 0 0 -1.992-1.992 1.993 1.993 0 1 0 1.992 1.992zm0-21.262a1.99 1.99 0 0 0 -1.992-1.992 1.99 1.99 0 0 0 -1.992 1.992 1.99 1.99 0 0 0 1.992 1.992 1.99 1.99 0 0 0 1.992-1.992zm0-21.261a1.993 1.993 0 1 0 -1.992 1.995 1.994 1.994 0 0 0 1.992-1.996zm0-21.258a1.99 1.99 0 0 0 -1.992-1.993 1.99 1.99 0 0 0 -1.992 1.993 1.99 1.99 0 0 0 1.992 1.992 1.99 1.99 0 0 0 1.992-1.992zm0-21.262a1.993 1.993 0 1 0 -3.986.001 1.993 1.993 0 0 0 3.986-.001zm0-21.258a1.99 1.99 0 0 0 -1.992-1.992 1.993 1.993 0 1 0 1.992 1.992zm0-21.262a1.99 1.99 0 0 0 -1.992-1.992 1.99 1.99 0 0 0 -1.992 1.992 1.99 1.99 0 0 0 1.992 1.992 1.99 1.99 0 0 0 1.992-1.992zm28.348 127.563a1.993 1.993 0 1 0 -3.986.001 1.993 1.993 0 0 0 3.986-.001zm0-21.262a1.993 1.993 0 1 0 -3.986.002 1.993 1.993 0 0 0 3.986-.002zm0-21.261a1.993 1.993 0 0 0 -3.984 0c0 1.1.89 1.995 1.992 1.995a1.996 1.996 0 0 0 1.992-1.996zm0-21.258a1.993 1.993 0 1 0 -3.986.001 1.993 1.993 0 0 0 3.986-.001zm0-21.262a1.993 1.993 0 1 0 -3.983.002 1.993 1.993 0 0 0 3.983-.002zm0-21.258a1.993 1.993 0 1 0 -3.986.002 1.993 1.993 0 0 0 3.986-.002zm0-21.262a1.993 1.993 0 1 0 -3.986.002 1.993 1.993 0 0 0 3.986-.002zm28.347 127.563a1.994 1.994 0 0 0 -3.988 0c0 1.097.895 1.992 1.992 1.992a1.996 1.996 0 0 0 1.996-1.992zm0-21.262a1.994 1.994 0 0 0 -3.988 0 1.994 1.994 0 0 0 3.988 0zm0-21.261a1.996 1.996 0 0 0 -1.996-1.993 1.996 1.996 0 0 0 -1.992 1.992c0 1.102.895 1.996 1.992 1.996a1.997 1.997 0 0 0 1.996-1.996zm0-21.258a1.994 1.994 0 0 0 -3.988 0 1.994 1.994 0 0 0 3.988 0zm0-21.262a1.996 1.996 0 0 0 -1.996-1.992 1.993 1.993 0 0 0 0 3.984c1.102 0 1.996-.89 1.996-1.992zm0-21.258a1.994 1.994 0 0 0 -3.988 0c0 1.098.895 1.992 1.992 1.992a1.996 1.996 0 0 0 1.996-1.992zm0-21.262a1.994 1.994 0 0 0 -3.988 0 1.994 1.994 0 0 0 3.988 0zm28.345 127.563a1.99 1.99 0 0 0 -1.993-1.992 1.993 1.993 0 1 0 1.992 1.992zm0-21.262a1.99 1.99 0 0 0 -1.993-1.992 1.99 1.99 0 0 0 -1.992 1.992 1.99 1.99 0 0 0 1.992 1.992 1.99 1.99 0 0 0 1.992-1.992zm0-21.261a1.993 1.993 0 1 0 -1.993 1.995 1.994 1.994 0 0 0 1.992-1.996zm0-21.258a1.99 1.99 0 0 0 -1.993-1.993 1.99 1.99 0 0 0 -1.992 1.993 1.99 1.99 0 0 0 1.992 1.992 1.99 1.99 0 0 0 1.992-1.992zm0-21.262a1.993 1.993 0 1 0 -3.987.001 1.993 1.993 0 0 0 3.986-.001zm0-21.258a1.99 1.99 0 0 0 -1.993-1.992 1.993 1.993 0 1 0 1.992 1.992zm0-21.262a1.99 1.99 0 0 0 -1.993-1.992 1.99 1.99 0 0 0 -1.992 1.992 1.99 1.99 0 0 0 1.992 1.992 1.99 1.99 0 0 0 1.992-1.992zm28.347 127.563a1.99 1.99 0 0 0 -1.992-1.992 1.993 1.993 0 1 0 1.992 1.992zm0-21.262a1.99 1.99 0 0 0 -1.992-1.992 1.99 1.99 0 0 0 -1.993 1.992 1.99 1.99 0 0 0 1.993 1.992 1.99 1.99 0 0 0 1.992-1.992zm0-21.261a1.993 1.993 0 1 0 -1.992 1.995 1.994 1.994 0 0 0 1.992-1.996zm0-21.258a1.99 1.99 0 0 0 -1.992-1.993 1.99 1.99 0 0 0 -1.993 1.993 1.99 1.99 0 0 0 1.993 1.992 1.99 1.99 0 0 0 1.992-1.992zm0-21.262a1.993 1.993 0 1 0 -3.986.001 1.993 1.993 0 0 0 3.986-.001zm0-21.258a1.99 1.99 0 0 0 -1.992-1.992 1.993 1.993 0 1 0 1.992 1.992zm0-21.262a1.99 1.99 0 0 0 -1.992-1.992 1.99 1.99 0 0 0 -1.993 1.992 1.99 1.99 0 0 0 1.993 1.992 1.99 1.99 0 0 0 1.992-1.992zm28.348 127.563a1.993 1.993 0 1 0 -3.986.001 1.993 1.993 0 0 0 3.986-.001zm0-21.262a1.993 1.993 0 1 0 -3.986.002 1.993 1.993 0 0 0 3.986-.002zm0-21.261a1.993 1.993 0 0 0 -3.984 0c0 1.1.89 1.995 1.991 1.995a1.996 1.996 0 0 0 1.993-1.996zm0-21.258a1.993 1.993 0 1 0 -3.986.001 1.993 1.993 0 0 0 3.986-.001zm0-21.262a1.993 1.993 0 1 0 -3.983.002 1.993 1.993 0 0 0 3.983-.002zm0-21.258a1.993 1.993 0 1 0 -3.986.002 1.993 1.993 0 0 0 3.986-.002zm0-21.262a1.993 1.993 0 1 0 -3.986.002 1.993 1.993 0 0 0 3.986-.002zm0 0"/><path d="m-99.213 0h197.72" fill="none" stroke="#000" stroke-miterlimit="10" stroke-width=".79701" transform="matrix(1 0 0 -1 99.611 78.351)"/><path d="m-1.555 2.074c.129-.778 1.555-1.946 1.945-2.075-.39-.128-1.816-1.293-1.945-2.069" style="fill:none;stroke-width:.6376;stroke-linecap:round;stroke-linejoin:round;stroke:#000;stroke-miterlimit:10" transform="matrix(1 0 0 -1 198.117 78.351)"/><use x="184.902" xlink:href="#a" y="73.138"/><use x="190.089" xlink:href="#c" y="74.632"/><path d="m-.002-77.954v155.2" fill="none" stroke="#000" stroke-miterlimit="10" stroke-width=".79701" transform="matrix(1 0 0 -1 99.611 78.351)"/><path d="m-1.556 2.072c.133-.777 1.556-1.942 1.946-2.07-.39-.133-1.813-1.297-1.946-2.075" style="fill:none;stroke-width:.6376;stroke-linecap:round;stroke-linejoin:round;stroke:#000;stroke-miterlimit:10" transform="matrix(0 -1 -1 0 99.611 1.105)"/><use x="103.33" xlink:href="#a" y="11.036"/><use x="108.517" xlink:href="#d" y="12.53"/><path d="m60.389-63.782h20.957" fill="none" stroke="#000" stroke-miterlimit="10" stroke-width=".79701" transform="matrix(1 0 0 -1 99.611 78.351)"/><path d="m-1.554 2.072c.129-.778 1.555-1.942 1.942-2.07-.388-.133-1.813-1.297-1.942-2.075" style="fill:none;stroke-width:.6376;stroke-linecap:round;stroke-linejoin:round;stroke:#000;stroke-miterlimit:10" transform="matrix(-1 0 0 1 160 142.131)"/><path d="m-1.553 2.073c.129-.778 1.555-1.943 1.943-2.075-.388-.128-1.814-1.292-1.943-2.07" style="fill:none;stroke-width:.6376;stroke-linecap:round;stroke-linejoin:round;stroke:#000;stroke-miterlimit:10" transform="matrix(1 0 0 -1 180.955 142.131)"/><use x="166.037" xlink:href="#g" y="150.344"/><use x="170.008" xlink:href="#e" y="150.344"/><path d="m0-.001h9.907" fill="none" stroke="#000" stroke-miterlimit="10" stroke-width=".398" transform="matrix(1 0 0 -1 165.523 151.776)"/><use x="165.523" xlink:href="#f" y="157.702"/><use x="170.989" xlink:href="#h" y="158.698"/><path d="m85.041-60.083v13.868" fill="none" stroke="#000" stroke-miterlimit="10" stroke-width=".79701" transform="matrix(1 0 0 -1 99.611 78.351)"/><path d="m-1.552 2.071c.129-.777 1.55-1.941 1.941-2.07-.389-.129-1.812-1.297-1.941-2.074" style="fill:none;stroke-width:.6376;stroke-linecap:round;stroke-linejoin:round;stroke:#000;stroke-miterlimit:10" transform="matrix(0 1 1 0 184.651 138.435)"/><path d="m-1.554 2.073c.13-.777 1.555-1.945 1.942-2.073-.388-.13-1.813-1.294-1.942-2.07" style="fill:none;stroke-width:.6376;stroke-linecap:round;stroke-linejoin:round;stroke:#000;stroke-miterlimit:10" transform="matrix(0 -1 -1 0 184.651 124.567)"/><use x="190.016" xlink:href="#g" y="129.087"/><use x="193.987" xlink:href="#e" y="129.087"/><path d="m.001-.002h9.782" fill="none" stroke="#000" stroke-miterlimit="10" stroke-width=".398" transform="matrix(1 0 0 -1 189.565 130.518)"/><use x="189.565" xlink:href="#f" y="136.445"/><use x="195.031" xlink:href="#i" y="137.441"/><g fill="#00f"><path d="m56.694 0c0 31.312-25.383 56.695-56.696 56.695-31.308 0-56.691-25.383-56.691-56.696 0-31.308 25.383-56.691 56.691-56.691 31.313 0 56.696 25.383 56.696 56.691zm0 0" fill-opacity=".1" stroke="#00f" stroke-miterlimit="10" stroke-width=".79701" transform="matrix(1 0 0 -1 99.611 78.351)"/><use x="44.711" xlink:href="#b" y="28.728"/><use x="53.802" xlink:href="#j" y="28.728"/><use x="57.676" xlink:href="#a" y="28.728"/><use x="63.177" xlink:href="#k" y="28.728"/></g></svg>