<svg xmlns="http://www.w3.org/2000/svg" xmlns:xlink="http://www.w3.org/1999/xlink" width="341.213" height="148.693" viewBox="0 0 255.91 111.52"><defs><symbol overflow="visible" id="a"><path d="M3.328-3.016c.063-.25.297-1.171.985-1.171.046 0 .296 0 .5.125a.578.578 0 00-.47.546c0 .157.11.344.376.344a.546.546 0 00.531-.578c0-.516-.578-.656-.922-.656-.578 0-.922.531-1.047.75-.25-.656-.781-.75-1.078-.75-1.031 0-1.61 1.281-1.61 1.531 0 .11.11.11.126.11.078 0 .11-.032.125-.11.344-1.063 1-1.313 1.344-1.313.187 0 .53.094.53.672 0 .313-.171.97-.53 2.375-.157.61-.516 1.032-.954 1.032-.062 0-.28 0-.5-.125.25-.063.47-.266.47-.547 0-.266-.22-.344-.36-.344-.313 0-.547.25-.547.578 0 .453.484.656.922.656.672 0 1.031-.703 1.047-.75.125.36.484.75 1.078.75 1.031 0 1.594-1.28 1.594-1.53 0-.11-.079-.11-.11-.11-.094 0-.11.047-.14.11-.329 1.077-1 1.312-1.313 1.312-.39 0-.547-.313-.547-.657 0-.218.047-.437.156-.875zm0 0"/></symbol><symbol overflow="visible" id="j"><path d="M1.328-.828c.531-.578.828-.828 1.188-1.14 0 0 .609-.532.968-.891.954-.922 1.172-1.407 1.172-1.454 0-.093-.093-.093-.11-.093-.077 0-.093.015-.155.11-.297.484-.5.64-.735.64-.25 0-.36-.156-.515-.328-.188-.22-.36-.422-.688-.422-.75 0-1.203.922-1.203 1.14 0 .047.031.11.11.11.093 0 .109-.047.14-.11.188-.468.766-.468.844-.468.203 0 .39.062.625.14.406.156.515.156.765.156-.359.422-1.187 1.141-1.375 1.297l-.906.844C.781-.625.422-.063.422.016c0 .093.11.093.125.093C.625.11.64.094.703-.016c.235-.359.531-.625.86-.625.218 0 .328.094.578.375.156.22.343.375.625.375 1 0 1.578-1.265 1.578-1.53 0-.048-.047-.11-.125-.11-.094 0-.11.062-.14.14-.235.641-.876.829-1.204.829-.188 0-.375-.063-.578-.125-.344-.125-.5-.172-.703-.172-.016 0-.172 0-.266.03zm0 0"/></symbol><symbol overflow="visible" id="b"><path d="M2.328-4.438c0-.187 0-.187-.203-.187-.453.438-1.078.438-1.36.438v.25c.157 0 .626 0 1-.188v3.547c0 .234 0 .328-.687.328H.812V0c.125 0 .985-.031 1.235-.031.219 0 1.094.031 1.25.031v-.25H3.03c-.703 0-.703-.094-.703-.328zm0 0"/></symbol><symbol overflow="visible" id="c"><path d="M3.516-1.266H3.28c-.015.157-.094.563-.187.625-.047.047-.578.047-.688.047H1.125c.734-.64.984-.844 1.39-1.172.516-.406 1-.843 1-1.5 0-.843-.734-1.359-1.624-1.359-.86 0-1.454.61-1.454 1.25 0 .344.297.39.376.39.156 0 .359-.124.359-.374 0-.125-.047-.375-.406-.375.218-.485.687-.641 1.015-.641.703 0 1.063.547 1.063 1.11 0 .609-.438 1.078-.656 1.328L.516-.266C.437-.203.437-.187.437 0h2.876zm0 0"/></symbol><symbol overflow="visible" id="f"><path d="M3.219-1.578h2.14c.094 0 .25 0 .25-.156 0-.188-.156-.188-.25-.188H3.22v-2.14c0-.079 0-.25-.156-.25-.172 0-.172.156-.172.25v2.14H.75c-.094 0-.266 0-.266.172s.157.172.266.172h2.14v2.14c0 .094 0 .266.157.266.172 0 .172-.172.172-.265zm0 0"/></symbol><symbol overflow="visible" id="d"><path d="M1.906-.531a.534.534 0 00-.515-.531.537.537 0 00-.532.53.524.524 0 101.047 0zm0 0"/></symbol><symbol overflow="visible" id="e"><path d="M3.984-4.625c0-.016.016-.11.016-.11 0-.046-.016-.109-.11-.109-.14 0-.718.063-.89.078-.047 0-.156.016-.156.157 0 .093.11.093.187.093.328 0 .328.063.328.11s0 .093-.015.156l-.406 1.594c-.141-.235-.376-.422-.72-.422-.89 0-1.796.984-1.796 1.984C.422-.406.875.063 1.484.063c.375 0 .704-.204.985-.485.125.422.531.484.719.484.25 0 .421-.14.546-.359.157-.281.25-.672.25-.703 0-.094-.093-.094-.109-.094-.11 0-.11.032-.156.219-.094.344-.219.75-.516.75-.172 0-.234-.156-.234-.344 0-.125.015-.187.047-.281zM2.5-.875c-.047.203-.203.344-.36.469-.062.062-.343.281-.64.281-.266 0-.516-.188-.516-.672 0-.375.204-1.14.375-1.422.313-.562.672-.656.86-.656.484 0 .625.531.625.61 0 .015-.016.078-.016.093zm0 0"/></symbol><symbol overflow="visible" id="h"><path d="M1.313-.547c-.047.235-.063.297-.61.297C.578-.25.5-.25.5-.094.5 0 .578 0 .703 0h2.485c1.546 0 3.03-1.422 3.03-2.938 0-1.015-.702-1.828-1.827-1.828H1.844c-.14 0-.219 0-.219.157 0 .093.078.093.234.093.11 0 .141 0 .266.016.14.016.14.031.14.11 0 0 0 .046-.015.14zm1.562-3.719c.063-.218.063-.25.36-.25h.89c.781 0 1.438.391 1.438 1.344 0 .156-.079 1.36-.766 2.156a2.35 2.35 0 01-1.734.766h-.938c-.219 0-.234-.016-.234-.078 0 0 0-.031.03-.14zm0 0"/></symbol><symbol overflow="visible" id="q"><path d="M2.406-4.813H3.5c.234 0 .344 0 .344-.203 0-.14-.063-.14-.313-.14H2.484l.438-1.735c.047-.171.047-.203.047-.28a.287.287 0 00-.297-.298c-.11 0-.375.032-.469.422l-.469 1.89H.61c-.234 0-.343 0-.343.235 0 .11.078.11.312.11h1.063L.844-1.656c-.094.422-.125.547-.125.703 0 .562.39 1.078 1.062 1.078 1.203 0 1.86-1.75 1.86-1.828 0-.078-.063-.11-.125-.11-.032 0-.079 0-.094.047-.016.016-.031.016-.11.22-.25.593-.796 1.421-1.5 1.421-.359 0-.375-.297-.375-.563 0 0 0-.234.032-.375zm0 0"/></symbol><symbol overflow="visible" id="r"><path d="M2.719-2.39c.203.03.531.109.61.124.155.047.687.235.687.813 0 .36-.329 1.328-1.72 1.328-.25 0-1.155-.031-1.39-.688a.606.606 0 00.719-.578c0-.25-.172-.375-.406-.375-.266 0-.61.204-.61.735 0 .703.72 1.156 1.672 1.156 1.813 0 2.36-1.344 2.36-1.969 0-.172 0-.515-.391-.89-.297-.297-.578-.344-1.219-.485-.328-.062-.844-.172-.844-.719 0-.234.22-1.093 1.344-1.093.516 0 1 .187 1.125.625-.531 0-.562.453-.562.468 0 .25.234.313.343.313.172 0 .5-.125.5-.625s-.453-1.016-1.39-1.016c-1.563 0-1.985 1.22-1.985 1.72 0 .905.891 1.093 1.157 1.155zm0 0"/></symbol><symbol overflow="visible" id="s"><path d="M7.203-2.5c0-1.828-1.5-3.313-3.328-3.313A3.328 3.328 0 00.547-2.5 3.33 3.33 0 003.875.828 3.33 3.33 0 007.203-2.5zM3.875.578A3.074 3.074 0 01.797-2.5c0-1.703 1.39-3.063 3.078-3.063 1.703 0 3.078 1.391 3.078 3.063A3.084 3.084 0 013.875.578zM4.563-2.5a.694.694 0 00-.688-.688.704.704 0 00-.688.688c0 .39.313.703.688.703.39 0 .688-.344.688-.703zm0 0"/></symbol><symbol overflow="visible" id="t"><path d="M7.203-2.5c0-1.828-1.5-3.313-3.328-3.313A3.328 3.328 0 00.547-2.5 3.33 3.33 0 003.875.828 3.33 3.33 0 007.203-2.5zM.797-2.625c.094-1.672 1.39-2.86 2.953-2.938v2.938zM4-5.563c1.563.079 2.844 1.282 2.953 2.938H4zM3.75.579C2.203.5.89-.672.797-2.375H3.75zm3.203-2.953C6.843-.672 5.531.5 4 .578v-2.953zm0 0"/></symbol><clipPath id="g"><path d="M227 0h28.91v14H227zm0 0"/></clipPath><clipPath id="i"><path d="M0 98h29v13.52H0zm0 0"/></clipPath><clipPath id="k"><path d="M28 98h30v13.52H28zm0 0"/></clipPath><clipPath id="l"><path d="M85 98h29v13.52H85zm0 0"/></clipPath><clipPath id="m"><path d="M170 98h30v13.52h-30zm0 0"/></clipPath><clipPath id="n"><path d="M170 97h30v14.52h-30zm0 0"/></clipPath><clipPath id="o"><path d="M227 98h28.91v13H227zm0 0"/></clipPath><clipPath id="p"><path d="M227 98h28.91v13.52H227zm0 0"/></clipPath></defs><path d="M.2 13.043h28.347V.617H.199zm0 0" fill="#ccf" stroke-width=".3985" stroke="#000" stroke-miterlimit="10"/><use xlink:href="#a" x="9.291" y="8.228"/><use xlink:href="#b" x="14.985" y="9.722"/><path d="M28.547 13.043H56.89V.617H28.547zm0 0" fill="#ccf" stroke-width=".3985" stroke="#000" stroke-miterlimit="10"/><use xlink:href="#a" x="37.637" y="8.228"/><use xlink:href="#c" x="43.331" y="9.722"/><use xlink:href="#d" x="64.424" y="7.356"/><use xlink:href="#d" x="68.855" y="7.356"/><use xlink:href="#d" x="73.277" y="7.356"/><path d="M85.238 13.043h28.348V.617H85.238zm0 0" fill="#ccf" stroke-width=".3985" stroke="#000" stroke-miterlimit="10"/><use xlink:href="#a" x="94.242" y="8.228"/><use xlink:href="#e" x="99.936" y="9.722"/><path d="M170.68 13.457h28.343V.203H170.68zm0 0" fill="#090" fill-opacity=".4" stroke-width=".3985" stroke="#000" stroke-opacity=".4" stroke-miterlimit="10"/><use xlink:href="#a" x="174.636" y="7.813"/><use xlink:href="#e" x="180.33" y="9.307"/><use xlink:href="#f" x="184.478" y="9.307"/><use xlink:href="#b" x="190.594" y="9.307"/><use xlink:href="#d" x="206.554" y="7.356"/><use xlink:href="#d" x="210.985" y="7.356"/><use xlink:href="#d" x="215.407" y="7.356"/><g clip-path="url(#g)"><path d="M227.371 13.043h28.348V.617H227.37zm0 0" fill="#090" fill-opacity=".4" stroke-width=".3985" stroke="#000" stroke-opacity=".4" stroke-miterlimit="10"/></g><use xlink:href="#a" x="235.082" y="8.228"/><use xlink:href="#h" x="240.776" y="9.722"/><path d="M.2 110.906h28.347V98.48H.199zm0 0" fill="#ccf"/><g clip-path="url(#i)"><path d="M.2 110.906h28.347V98.48H.199zm0 0" fill="none" stroke-width=".3985" stroke="#000" stroke-miterlimit="10"/></g><use xlink:href="#j" x="9.821" y="106.091"/><use xlink:href="#b" x="14.454" y="107.585"/><path d="M28.547 110.906H56.89V98.48H28.547zm0 0" fill="#ccf"/><g clip-path="url(#k)"><path d="M28.547 110.906H56.89V98.48H28.547zm0 0" fill="none" stroke-width=".3985" stroke="#000" stroke-miterlimit="10"/></g><use xlink:href="#j" x="38.168" y="106.091"/><use xlink:href="#c" x="42.801" y="107.585"/><use xlink:href="#d" x="64.424" y="105.219"/><use xlink:href="#d" x="68.855" y="105.219"/><use xlink:href="#d" x="73.277" y="105.219"/><path d="M85.238 110.906h28.348V98.48H85.238zm0 0" fill="#ccf"/><g clip-path="url(#l)"><path d="M85.238 110.906h28.348V98.48H85.238zm0 0" fill="none" stroke-width=".3985" stroke="#000" stroke-miterlimit="10"/></g><use xlink:href="#j" x="94.772" y="106.091"/><use xlink:href="#e" x="99.406" y="107.585"/><g clip-path="url(#m)"><path d="M170.68 111.32h28.343V98.066H170.68zm0 0" fill="#fc9"/></g><g clip-path="url(#n)"><path d="M170.68 111.32h28.343V98.066H170.68zm0 0" fill="none" stroke-width=".3985" stroke="#000" stroke-miterlimit="10"/></g><use xlink:href="#j" x="175.167" y="105.676"/><use xlink:href="#e" x="179.8" y="107.17"/><use xlink:href="#f" x="183.947" y="107.17"/><use xlink:href="#b" x="190.063" y="107.17"/><use xlink:href="#d" x="206.554" y="105.219"/><use xlink:href="#d" x="210.985" y="105.219"/><use xlink:href="#d" x="215.406" y="105.219"/><g clip-path="url(#o)"><path d="M227.371 110.906h28.348V98.48H227.37zm0 0" fill="#fc9"/></g><g clip-path="url(#p)"><path d="M227.371 110.906h28.348V98.48H227.37zm0 0" fill="none" stroke-width=".3985" stroke="#000" stroke-miterlimit="10"/></g><use xlink:href="#j" x="235.613" y="106.091"/><use xlink:href="#h" x="240.246" y="107.585"/><path d="M14.371 98.281V13.95" fill="none" stroke-width=".797" stroke="#000" stroke-miterlimit="10"/><path d="M12.3 15.504c.778-.129 1.942-1.555 2.071-1.942.129.387 1.297 1.813 2.074 1.942" fill="none" stroke-width=".6376000000000001" stroke-linecap="round" stroke-linejoin="round" stroke="#000" stroke-miterlimit="10"/><path d="M42.719 98.281V13.95" fill="none" stroke-width=".797" stroke="#000" stroke-miterlimit="10"/><path d="M40.648 15.504c.774-.129 1.942-1.555 2.07-1.942.13.387 1.298 1.813 2.071 1.942" fill="none" stroke-width=".6376000000000001" stroke-linecap="round" stroke-linejoin="round" stroke="#000" stroke-miterlimit="10"/><path d="M99.414 98.281V13.95" fill="none" stroke-width=".797" stroke="#000" stroke-miterlimit="10"/><path d="M97.34 15.504c.777-.129 1.941-1.555 2.074-1.942.129.387 1.293 1.813 2.07 1.942" fill="none" stroke-width=".6376000000000001" stroke-linecap="round" stroke-linejoin="round" stroke="#000" stroke-miterlimit="10"/><path d="M184.852 97.867V14.363" fill="none" stroke-width=".797" stroke="#000" stroke-miterlimit="10"/><path d="M182.777 15.918c.778-.129 1.946-1.555 2.075-1.941.128.386 1.293 1.812 2.07 1.941" fill="none" stroke-width=".6376000000000001" stroke-linecap="round" stroke-linejoin="round" stroke="#000" stroke-miterlimit="10"/><path d="M241.547 98.281V13.95" fill="none" stroke-width=".797" stroke="#000" stroke-miterlimit="10"/><path d="M239.473 15.504c.777-.129 1.941-1.555 2.074-1.942.129.387 1.293 1.813 2.07 1.942" fill="none" stroke-width=".6376000000000001" stroke-linecap="round" stroke-linejoin="round" stroke="#000" stroke-miterlimit="10"/><path d="M142.441 47.207c0-4.898-3.968-8.871-8.867-8.871-4.894 0-8.867 3.973-8.867 8.871a8.868 8.868 0 0017.734 0zm0 0" fill="teal"/><use xlink:href="#q" x="131.46" y="50.882" fill="#fff"/><path d="M0 98.281l133.574-51.074-19.789 51.074H0" fill="teal" fill-opacity=".5"/><path d="M158.852 64.027c0-4.668-3.786-8.457-8.454-8.457a8.458 8.458 0 000 16.914 8.455 8.455 0 008.454-8.457zm0 0" fill="#ff8000"/><use xlink:href="#r" x="147.639" y="66.601" fill="#fff"/><path d="M0 98.281l150.398-34.254-36.613 34.254H0" fill="#ff8000" fill-opacity=".5"/><path d="M189.938 55.762a5.086 5.086 0 10-10.173 0 5.086 5.086 0 0010.173 0zm0 0" fill="#ff8000"/><use xlink:href="#s" x="180.975" y="58.252" fill="#fff"/><path d="M189.938 31.297a5.086 5.086 0 10-10.173 0 5.086 5.086 0 0010.173 0zm0 0" fill="teal"/><use xlink:href="#t" x="180.975" y="33.787" fill="#fff"/><path d="M158.793 61.219c7.883-2.512 12.437-3.54 19.934-4.551" fill="none" stroke-width=".797" stroke="#ff8000" stroke-miterlimit="10"/><path d="M176.91 54.82c.23.754 1.8 1.72 2.2 1.793-.368.18-1.622 1.528-1.645 2.317" fill="none" stroke-width=".6376000000000001" stroke-linecap="round" stroke-linejoin="round" stroke="#ff8000" stroke-miterlimit="10"/><path d="M142.152 43.7c14.13-5.638 22.446-8.141 36.649-11.098" fill="none" stroke-width=".797" stroke="teal" stroke-miterlimit="10"/><path d="M176.855 30.89c.286.735 1.918 1.587 2.325 1.633-.356.207-1.512 1.637-1.48 2.426" fill="none" stroke-width=".6376000000000001" stroke-linecap="round" stroke-linejoin="round" stroke="teal" stroke-miterlimit="10"/><path d="M246.633 55.762a5.086 5.086 0 10-10.173 0 5.086 5.086 0 0010.173 0zm0 0" fill="#ff8000"/><use xlink:href="#s" x="237.668" y="58.252" fill="#fff"/><path d="M246.633 31.297a5.086 5.086 0 10-10.173 0 5.086 5.086 0 0010.173 0zm0 0" fill="teal"/><use xlink:href="#t" x="237.668" y="33.787" fill="#fff"/><path d="M159.25 64c30.219-.21 47.172-1.813 76.2-7.14" fill="none" stroke-width=".797" stroke="#ff8000" stroke-miterlimit="10"/><path d="M233.547 55.102c.27.742 1.883 1.628 2.285 1.687-.355.2-1.547 1.602-1.535 2.387" fill="none" stroke-width=".6376000000000001" stroke-linecap="round" stroke-linejoin="round" stroke="#ff8000" stroke-miterlimit="10"/><path d="M142.824 46.66c36.774-2.3 57.57-5.441 92.7-13.93" fill="none" stroke-width=".797" stroke="teal" stroke-miterlimit="10"/><path d="M233.523 31.082c.309.727 1.97 1.523 2.375 1.559-.347.214-1.457 1.683-1.402 2.468" fill="none" stroke-width=".6376000000000001" stroke-linecap="round" stroke-linejoin="round" stroke="teal" stroke-miterlimit="10"/></svg>