<svg xmlns="http://www.w3.org/2000/svg" xmlns:xlink="http://www.w3.org/1999/xlink" width="341.429" height="216.264" viewBox="0 0 256.072 162.198"><defs><symbol overflow="visible" id="d"><path style="stroke:none" d="M2.86-6.813s0-.109-.126-.109c-.234 0-.953.078-1.218.11-.079 0-.188.015-.188.187 0 .125.094.125.234.125.485 0 .5.063.5.172l-.03.203L.593-.391C.547-.25.547-.234.547-.17c0 .234.203.28.297.28a.418.418 0 0 0 .328-.203c.047-.093.5-1.937.562-2.187.344.031 1.157.187 1.157.844 0 .078 0 .109-.032.218-.015.11-.03.235-.03.344 0 .578.39.984.905.984.297 0 .579-.156.797-.53.25-.438.36-.985.36-1 0-.11-.094-.11-.125-.11-.094 0-.11.047-.141.187-.203.719-.422 1.235-.86 1.235-.203 0-.328-.11-.328-.47 0-.171.047-.405.079-.562.046-.171.046-.203.046-.312 0-.64-.624-.922-1.484-1.047.313-.172.64-.484.86-.734.484-.532.937-.954 1.421-.954.063 0 .079 0 .094.016.125.016.125.016.219.078.016 0 .016.016.031.032a.569.569 0 0 0-.562.546c0 .157.109.344.375.344.265 0 .546-.219.546-.61 0-.296-.234-.624-.671-.624-.282 0-.735.078-1.454.875-.343.375-.734.781-1.109.922Zm0 0"/></symbol><symbol overflow="visible" id="i"><path style="stroke:none" d="M4.5-4.297c0-.047-.031-.094-.094-.094-.11 0-.515.391-.672.688-.218-.547-.609-.703-.937-.703-1.172 0-2.39 1.468-2.39 2.922C.406-.516.983.109 1.718.109c.422 0 .812-.234 1.172-.593-.094.343-.422 1.687-.454 1.78-.078.282-.156.313-.718.329-.125 0-.219 0-.219.203 0 0 0 .11.125.11.313 0 .672-.032 1-.032.328 0 .688.032 1.031.032.047 0 .172 0 .172-.204 0-.109-.094-.109-.265-.109-.47 0-.47-.063-.47-.156 0-.078.016-.14.032-.219ZM1.75-.109c-.61 0-.64-.766-.64-.938 0-.484.28-1.562.452-1.984.313-.735.829-1.156 1.235-1.156.656 0 .797.812.797.875 0 .062-.547 2.25-.578 2.28-.157.282-.72.923-1.266.923Zm0 0"/></symbol><symbol overflow="visible" id="e"><path style="stroke:none" d="M8.313-2.297c-.547.422-.813.828-.891.969-.453.687-.531 1.312-.531 1.312 0 .125.125.125.203.125.156 0 .172-.015.218-.203.22-.969.813-1.812 1.938-2.265.125-.047.156-.063.156-.141 0-.063-.062-.094-.078-.11-.453-.156-1.656-.656-2.031-2.328-.031-.125-.047-.156-.203-.156-.078 0-.203 0-.203.125 0 .016.093.64.5 1.313.203.297.5.64.921.969H.907c-.172 0-.36 0-.36.187 0 .203.188.203.36.203Zm0 0"/></symbol><symbol overflow="visible" id="g"><path style="stroke:none" d="M5.719-6.984c-.094-.141-.094-.157-.235-.157-.687 0-1.906.282-2.421 1.125-.157-.28-.641-1.015-1.391-1.015-.688 0-1.125.625-1.125 1.203 0 .375.234.625.515.906.547.563.547.719.547 1.094 0 .594-.046 1.187-.484 1.187-.266 0-.313-.375-.328-.546 0-.079-.016-.157-.125-.157-.125 0-.125.11-.125.14 0 .188.094.782.578.782.813 0 .813-1.281.813-1.5 0-.312-.032-.687-.704-1.312-.28-.25-.39-.391-.39-.625 0-.422.297-.954.812-.954.516 0 .922.782.922 1.954v2.937c0 .094 0 1.922-.656 1.922-.36 0-.734-.313-.938-.938.016 0 .22-.062.22-.156 0-.062-.079-.11-.11-.11a1.01 1.01 0 0 0-.203.063C.875-1.203.828-1.312.75-1.312c-.047 0-.125.093-.125.14a.21.21 0 0 0 .047.125c-.063.016-.219.063-.219.156 0 .047.063.11.11.11A.88.88 0 0 0 .75-.844C1.063.016 1.578.22 1.922.22c.703 0 1.5-.906 1.5-2.938v-.719h1.14l.125 2.188c0 .063-.03.14-.03.328 0 .594.484 1.14 1.155 1.14.125 0 .157 0 .344-.14l.719-.562C6.985-.578 7-.594 7-.625c0-.078-.156-.14-.188-.14-.046 0-.406.28-.859.656A.946.946 0 0 1 5.5-.922c0-.187.031-.219.031-.328 0-.297-.047-.813-.062-1.125-.016-.203-.063-1-.063-1.14.563-.172 1.64-.813 1.657-.829a.106.106 0 0 0 .062-.093c0-.016-.063-.141-.078-.141ZM6.28-4.25c-.922.5-1.125.5-1.422.5H3.422v-.484c0-.688-.094-1.079-.203-1.391.344-.953 1.64-1.14 1.64-1.14.032 0 .079.109.094.109Zm0 0"/></symbol><symbol overflow="visible" id="l"><path style="stroke:none" d="M2.86-3.344c0-.078-.063-.11-.094-.11C1.25-3.546.859-4.546.859-5.14c0-.984.907-1.671 1.813-1.671.562 0 .89.359 1.312.906.454.562.938 1.172 1.782 1.172.703 0 1.14-.313 1.14-.704 0-.125-.093-.125-.156-.125-.125 0-.14.047-.156.141-.078.469-.782.469-.797.469-.14 0-.203-.031-.36-.328-.89-1.64-2.312-1.75-2.718-1.75C1.5-7.03.547-6.187.547-5.14c0 1.235 1.234 1.907 2.14 1.907.063 0 .172 0 .172-.11ZM.812-1.828c-.172 0-.266 0-.266.11 0 .03 0 .109.094.109.343.03.671.046 1.437.75C3.141.109 3.36.109 4.156.109c.516 0 .938 0 1.422-.343.36-.235.64-.641.64-1.141 0-.36-.14-.563-.5-.969-.39-.437-.421-.61-.421-.844 0-.421.11-.89.469-.89.015 0 .75 0 .828.703.015.063.031.125.156.125s.156-.047.156-.14c0-.422-.453-.907-1.156-.907-.719 0-1.297.516-1.297 1.14 0 .407.234.657.531 1 .375.407.407.579.407.782 0 .922-1.032 1.25-1.22 1.25-.062 0-.327-.078-.655-.297-.172-.14-.454-.39-.5-.422-.72-.687-1.11-.984-1.797-.984Zm0 0"/></symbol><symbol overflow="visible" id="f"><path style="stroke:none" d="M4.578-3.188c0-.796-.047-1.593-.39-2.328C3.733-6.484 2.905-6.64 2.5-6.64c-.61 0-1.328.266-1.75 1.188-.313.687-.36 1.469-.36 2.266 0 .75.032 1.64.454 2.406a1.83 1.83 0 0 0 1.64 1c.532 0 1.297-.203 1.735-1.157.312-.687.36-1.468.36-2.25ZM2.484 0c-.39 0-.984-.25-1.156-1.203-.11-.594-.11-1.516-.11-2.11 0-.64 0-1.296.079-1.828.187-1.187.937-1.28 1.187-1.28.329 0 .985.187 1.172 1.171.11.563.11 1.313.11 1.938 0 .75 0 1.421-.11 2.062C3.5-.297 2.937 0 2.484 0Zm0 0"/></symbol><symbol overflow="visible" id="h"><path style="stroke:none" d="M3.297 2.39c0-.03 0-.046-.172-.218C1.891.922 1.562-.968 1.562-2.5c0-1.734.375-3.469 1.61-4.703.125-.125.125-.14.125-.172 0-.078-.031-.11-.094-.11-.11 0-1 .688-1.594 1.954C1.11-4.438.984-3.328.984-2.5c0 .781.11 1.984.657 3.125C2.25 1.844 3.094 2.5 3.203 2.5c.063 0 .094-.031.094-.11Zm0 0"/></symbol><symbol overflow="visible" id="k"><path style="stroke:none" d="M2.875-2.5c0-.766-.11-1.969-.656-3.11C1.625-6.827.766-7.483.672-7.483a.107.107 0 0 0-.11.109c0 .031 0 .047.188.234.984.985 1.547 2.563 1.547 4.641C2.297-.78 1.937.97.703 2.22c-.14.125-.14.14-.14.172 0 .062.046.109.109.109.094 0 1-.688 1.578-1.953.516-1.094.625-2.203.625-3.047Zm0 0"/></symbol><symbol overflow="visible" id="j"><path style="stroke:none" d="M3.594-2.219c0-.765-.094-1.328-.406-1.812-.22-.313-.657-.594-1.204-.594C.36-4.625.36-2.719.36-2.219c0 .5 0 2.36 1.625 2.36 1.61 0 1.61-1.86 1.61-2.36ZM1.984-.063c-.328 0-.75-.187-.89-.75C1-1.219 1-1.796 1-2.313c0-.515 0-1.046.094-1.421.156-.547.593-.704.89-.704.375 0 .735.235.86.641.11.375.125.875.125 1.485 0 .515 0 1.03-.094 1.468-.14.64-.61.781-.89.781Zm0 0"/></symbol><clipPath id="a"><path d="M30 2h2v160.2h-2Zm0 0"/></clipPath><clipPath id="b"><path d="M39 .395h179V42H39Zm0 0"/></clipPath><clipPath id="c"><path d="M39 121h179v40.8H39Zm0 0"/></clipPath></defs><path style="fill:none;stroke-width:.79701;stroke-linecap:butt;stroke-linejoin:miter;stroke:#000;stroke-opacity:1;stroke-miterlimit:10" d="M-.002 80.701h191.684" transform="matrix(1 0 0 -1 30.9 161.799)"/><path style="stroke:none;fill-rule:nonzero;fill:#000;fill-opacity:1" d="m225.172 81.098-4.145-2.07 1.555 2.07-1.555 2.07"/><g clip-path="url(#a)"><path style="fill:none;stroke-width:.79701;stroke-linecap:butt;stroke-linejoin:miter;stroke:#000;stroke-opacity:1;stroke-miterlimit:10" d="M-.002-.002v158.817" transform="matrix(1 0 0 -1 30.9 161.799)"/></g><path style="stroke:none;fill-rule:nonzero;fill:#000;fill-opacity:1" d="m30.898.395-2.07 4.144 2.07-1.555 2.075 1.555"/><path style="fill:none;stroke-width:.79701;stroke-linecap:butt;stroke-linejoin:miter;stroke:red;stroke-opacity:1;stroke-miterlimit:10" d="M19.428 121.053s4.68-1.484 6.477-1.98c1.797-.493 4.675-1.184 6.472-1.586 1.797-.407 4.68-.989 6.477-1.329 1.797-.343 4.68-.843 6.476-1.136 1.797-.297 4.68-.739 6.477-1a459.97 459.97 0 0 1 6.477-.883 609.326 609.326 0 0 1 12.949-1.516 908.83 908.83 0 0 1 6.476-.66c1.797-.172 4.68-.441 6.477-.605 1.797-.16 4.68-.41 6.476-.559a1282.002 1282.002 0 0 1 19.426-1.461c1.797-.125 4.68-.312 6.477-.43 1.797-.117 4.68-.296 6.476-.406 1.797-.11 4.676-.277 6.473-.383a3806.449 3806.449 0 0 1 12.953-.707c1.797-.093 4.68-.238 6.477-.328 1.797-.086 4.68-.226 6.476-.308a3431.818 3431.818 0 0 1 12.95-.59c1.796-.078 6.476-.274 6.476-.274" transform="matrix(1 0 0 -1 30.9 161.799)"/><g clip-path="url(#b)"><path style="fill:none;stroke-width:.79701;stroke-linecap:butt;stroke-linejoin:miter;stroke:red;stroke-opacity:1;stroke-miterlimit:10" d="M19.428 161.404s4.68-3.02 6.477-4.035c1.797-1.02 4.675-2.46 6.472-3.3 1.797-.84 4.68-2.047 6.477-2.754 1.797-.703 4.68-1.727 6.476-2.328a205.08 205.08 0 0 1 6.477-1.997c1.797-.515 4.68-1.277 6.477-1.726a295.26 295.26 0 0 1 6.472-1.516 354.43 354.43 0 0 1 6.477-1.336c1.797-.347 4.68-.87 6.476-1.183 1.797-.313 4.68-.782 6.477-1.063a537.76 537.76 0 0 1 6.476-.957 524.43 524.43 0 0 1 6.473-.863c1.797-.23 4.68-.578 6.477-.785a911.43 911.43 0 0 1 6.476-.719c1.797-.191 4.68-.484 6.477-.656a906.604 906.604 0 0 1 12.95-1.164c1.8-.153 4.679-.38 6.476-.52a1201.574 1201.574 0 0 1 12.953-.926c1.797-.12 4.68-.304 6.476-.418a1746.9 1746.9 0 0 1 12.95-.757c1.796-.098 6.476-.344 6.476-.344" transform="matrix(1 0 0 -1 30.9 161.799)"/></g><path style="fill:none;stroke-width:.79701;stroke-linecap:butt;stroke-linejoin:miter;stroke:#00f;stroke-opacity:1;stroke-miterlimit:10" d="M19.428 40.35s4.68 1.484 6.477 1.98c1.797.492 4.675 1.184 6.472 1.586 1.797.406 4.68.988 6.477 1.328 1.797.344 4.68.844 6.476 1.137 1.797.297 4.68.738 6.477 1 1.797.262 4.68.652 6.477.883a609.326 609.326 0 0 0 12.949 1.515c1.797.192 4.68.485 6.476.66 1.797.172 4.68.442 6.477.606 1.797.16 4.68.41 6.476.559a1282.002 1282.002 0 0 0 19.426 1.461c1.797.125 4.68.312 6.477.43 1.797.117 4.68.296 6.476.406 1.797.109 4.676.277 6.473.382a3806.449 3806.449 0 0 0 12.953.707c1.797.094 4.68.239 6.477.325a3430.979 3430.979 0 0 0 25.902 1.176" transform="matrix(1 0 0 -1 30.9 161.799)"/><g clip-path="url(#c)"><path style="fill:none;stroke-width:.79701;stroke-linecap:butt;stroke-linejoin:miter;stroke:#00f;stroke-opacity:1;stroke-miterlimit:10" d="M19.428-.002s4.68 3.02 6.477 4.035c1.797 1.02 4.675 2.461 6.472 3.301 1.797.84 4.68 2.047 6.477 2.754 1.797.703 4.68 1.727 6.476 2.328 1.797.598 4.68 1.477 6.477 1.996 1.797.516 4.68 1.278 6.477 1.727 1.796.45 4.675 1.12 6.472 1.515 1.797.395 4.68.985 6.477 1.332 1.797.352 4.68.875 6.476 1.188 1.797.313 4.68.781 6.477 1.063 1.797.28 4.68.703 6.476.957 1.797.25 4.676.636 6.473.863 1.797.23 4.68.578 6.477.785a729.154 729.154 0 0 0 12.953 1.379c1.797.172 4.68.441 6.476.601 1.797.165 4.676.41 6.473.559 1.8.152 4.68.383 6.477.52a1201.574 1201.574 0 0 0 12.953.926 1746.9 1746.9 0 0 0 25.902 1.52" transform="matrix(1 0 0 -1 30.9 161.799)"/></g><path style="fill:none;stroke-width:.79701;stroke-linecap:butt;stroke-linejoin:miter;stroke:#000;stroke-opacity:1;stroke-dasharray:2.98883,2.98883;stroke-miterlimit:10" d="M76.979 138.33c-5.117-20.351-7.262-33.715-8.719-53.941" transform="matrix(1 0 0 -1 30.9 161.799)"/><path style="fill:none;stroke-width:.6376;stroke-linecap:round;stroke-linejoin:round;stroke:#000;stroke-opacity:1;stroke-miterlimit:10" d="M-1.556 2.072C-1.426 1.295.002.128.387 0 0-.13-1.423-1.294-1.556-2.07" transform="matrix(-.07178 .99738 .99738 .07178 99.161 77.411)"/><use xlink:href="#d" x="104.036" y="68.282" style="fill:#000;fill-opacity:1"/><use xlink:href="#e" x="112.303" y="68.282" style="fill:#000;fill-opacity:1"/><use xlink:href="#f" x="125.033" y="68.282" style="fill:#000;fill-opacity:1"/><path style="fill:none;stroke-width:.79701;stroke-linecap:butt;stroke-linejoin:miter;stroke:#000;stroke-opacity:1;stroke-dasharray:2.98883,2.98883;stroke-miterlimit:10" d="M76.979 23.072c-5.117 20.356-7.262 33.715-8.719 53.942" transform="matrix(1 0 0 -1 30.9 161.799)"/><path style="fill:none;stroke-width:.6376;stroke-linecap:round;stroke-linejoin:round;stroke:#000;stroke-opacity:1;stroke-miterlimit:10" d="M-1.556 2.071C-1.424 1.294 0 .131.387.001 0-.13-1.426-1.295-1.553-2.073" transform="scale(-.99996 .99996) rotate(-85.884 -4.028 95.673)"/><use xlink:href="#d" x="70.619" y="100.834" style="fill:#000;fill-opacity:1"/><use xlink:href="#e" x="78.886" y="100.834" style="fill:#000;fill-opacity:1"/><use xlink:href="#f" x="91.616" y="100.834" style="fill:#000;fill-opacity:1"/><use xlink:href="#g" x="228.891" y="83.59" style="fill:#000;fill-opacity:1"/><use xlink:href="#h" x="236.086" y="83.59" style="fill:#000;fill-opacity:1"/><use xlink:href="#i" x="239.96" y="83.59" style="fill:#000;fill-opacity:1"/><use xlink:href="#j" x="244.408" y="85.084" style="fill:#000;fill-opacity:1"/><use xlink:href="#k" x="248.877" y="83.59" style="fill:#000;fill-opacity:1"/><use xlink:href="#l" x="3.321" y="11.59" style="fill:#000;fill-opacity:1"/><use xlink:href="#h" x="10.516" y="11.59" style="fill:#000;fill-opacity:1"/><use xlink:href="#i" x="14.39" y="11.59" style="fill:#000;fill-opacity:1"/><use xlink:href="#j" x="18.838" y="13.084" style="fill:#000;fill-opacity:1"/><use xlink:href="#k" x="23.307" y="11.59" style="fill:#000;fill-opacity:1"/></svg>