<svg xmlns="http://www.w3.org/2000/svg" xmlns:xlink="http://www.w3.org/1999/xlink" width="299.563" height="201.36"><defs><path id="a" d="M3.969-6.937c-.047-.125-.078-.204-.235-.204s-.187.063-.234.204L1.438-.984C1.25-.47.859-.312.313-.312V0a18 18 0 0 1 1.015-.031c.313 0 .828.015 1.156.031v-.312c-.5 0-.75-.25-.75-.5 0-.032.016-.141.016-.157l.469-1.297h2.453L5.203-.75a.6.6 0 0 1 .031.14c0 .298-.562.298-.828.298V0c.36-.031 1.063-.031 1.438-.031.422 0 .89.015 1.297.031v-.312h-.172c-.594 0-.735-.063-.844-.391Zm-.531 1.109 1.124 3.25H2.329Zm0 0"/><path id="b" d="M1.172-2.172c0-1.625.812-2.047 1.344-2.047.093 0 .718.016 1.062.375-.406.031-.469.328-.469.453 0 .266.188.454.454.454.265 0 .468-.157.468-.47 0-.671-.765-1.062-1.531-1.062C1.25-4.469.344-3.39.344-2.156c0 1.281.984 2.265 2.14 2.265 1.329 0 1.657-1.203 1.657-1.296 0-.094-.11-.094-.141-.094-.078 0-.11.031-.125.093C3.594-.265 2.938-.14 2.578-.14c-.531 0-1.406-.421-1.406-2.03m0 0"/><path id="c" d="M3.89-.781v.89L5.329 0v-.312c-.687 0-.766-.063-.766-.563v-3.531l-1.468.11v.312c.687 0 .781.062.781.562v1.766c0 .875-.484 1.547-1.219 1.547-.828 0-.875-.47-.875-.985v-3.312l-1.468.11v.312c.78 0 .78.03.78.906v1.5c0 .781 0 1.687 1.516 1.687.563 0 1-.28 1.282-.89m0 0"/><path id="d" d="M1.672-3.312v-1.094l-1.39.11v.312c.702 0 .78.062.78.562V-.75c0 .438-.109.438-.78.438V0c.39-.016.859-.031 1.14-.031.39 0 .86 0 1.266.031v-.312h-.22c-.734 0-.75-.11-.75-.47v-1.53c0-.985.423-1.876 1.173-1.876.062 0 .093 0 .109.016-.031 0-.234.125-.234.39 0 .266.218.423.437.423a.42.42 0 0 0 .422-.438c0-.312-.312-.61-.734-.61-.735 0-1.094.673-1.22 1.095m0 0"/><path id="e" d="M3.313-.75c.046.39.312.813.78.813.22 0 .829-.141.829-.954v-.562h-.25v.562c0 .579-.25.641-.36.641-.328 0-.375-.453-.375-.5v-1.984c0-.422 0-.813-.359-1.188a1.9 1.9 0 0 0-1.36-.547C1.391-4.469.703-4 .703-3.344c0 .297.203.469.469.469a.435.435 0 0 0 .453-.453c0-.125-.047-.453-.516-.453.282-.36.766-.469 1.079-.469.5 0 1.062.39 1.062 1.281v.36c-.516.03-1.203.062-1.828.359-.75.344-1 .86-1 1.297 0 .812.969 1.062 1.594 1.062.656 0 1.109-.406 1.297-.859M3.25-2.39v1c0 .937-.719 1.28-1.172 1.28-.484 0-.89-.343-.89-.843 0-.547.421-1.375 2.062-1.438m0 0"/><path id="f" d="M4.14-3.344c.25-.64.766-.64.923-.64v-.313c-.235.016-.516.031-.75.031-.172 0-.641-.015-.86-.03v.312c.313 0 .469.172.469.422 0 .109-.016.124-.063.25L2.844-.876 1.75-3.547c-.047-.11-.062-.14-.062-.187 0-.25.359-.25.562-.25v-.313c-.266.016-.922.031-1.094.031-.265 0-.672-.015-.968-.03v.312c.484 0 .671 0 .812.343L2.5 0a7 7 0 0 0-.25.594c-.219.547-.5 1.234-1.14 1.234-.048 0-.282 0-.47-.187.313-.032.391-.25.391-.422C1.031.969.844.812.61.812c-.203 0-.421.125-.421.422 0 .454.421.813.921.813.625 0 1.032-.578 1.266-1.14Zm0 0"/><path id="g" d="m3.484-3.875-1.28-.297c-.626-.156-1-.687-1-1.266 0-.703.53-1.312 1.312-1.312 1.656 0 1.875 1.64 1.937 2.078.016.063.016.125.125.125.125 0 .125-.047.125-.234v-2c0-.172 0-.25-.11-.25-.062 0-.077.015-.14.14l-.36.563c-.296-.297-.702-.703-1.593-.703-1.11 0-1.937.875-1.937 1.937 0 .828.53 1.563 1.296 1.828.11.032.625.157 1.329.329.265.062.562.14.843.5.203.265.313.593.313.921 0 .704-.5 1.422-1.344 1.422-.281 0-1.047-.047-1.578-.531-.578-.547-.61-1.172-.61-1.531-.015-.11-.093-.11-.125-.11-.125 0-.125.079-.125.25v2c0 .172 0 .235.11.235.062 0 .078-.016.14-.125 0-.016.032-.047.36-.578.312.343.953.703 1.844.703 1.156 0 1.953-.969 1.953-2.078 0-.985-.657-1.813-1.485-2.016m0 0"/><path id="h" d="M1.719-3.75v-.656l-1.438.11v.312c.703 0 .782.062.782.5v4.656c0 .453-.11.453-.782.453v.313c.344-.016.86-.032 1.11-.032.28 0 .78.016 1.125.032v-.313c-.657 0-.766 0-.766-.453V-.594c.047.172.469.703 1.219.703 1.187 0 2.219-.984 2.219-2.265 0-1.266-.954-2.25-2.079-2.25-.78 0-1.203.437-1.39.656m.031 2.61v-2.22c.281-.515.766-.796 1.281-.796.735 0 1.328.875 1.328 2C4.36-.953 3.672-.11 2.938-.11c-.407 0-.782-.203-1.047-.61-.141-.203-.141-.219-.141-.422m0 0"/><path id="i" d="M1.11-2.516C1.171-4 2.015-4.25 2.36-4.25c1.015 0 1.124 1.344 1.124 1.734Zm0 .22h2.78c.22 0 .25 0 .25-.22 0-.984-.546-1.953-1.78-1.953-1.158 0-2.08 1.032-2.08 2.282C.281-.86 1.328.108 2.47.108 3.688.11 4.14-1 4.14-1.187c0-.094-.079-.125-.141-.125-.078 0-.11.062-.125.14C3.531-.14 2.625-.14 2.531-.14c-.5 0-.89-.296-1.125-.671-.297-.47-.297-1.125-.297-1.485m0 0"/><path id="j" d="M3.781-.547V.11L5.25 0v-.312c-.687 0-.781-.063-.781-.563v-6.047l-1.422.11v.312c.687 0 .765.063.765.563v2.156a1.58 1.58 0 0 0-1.25-.625c-1.171 0-2.218.984-2.218 2.265 0 1.266.969 2.25 2.11 2.25.64 0 1.077-.343 1.327-.656m0-2.672v2.047c0 .172 0 .188-.11.36-.296.484-.733.703-1.171.703-.453 0-.812-.266-1.047-.641-.25-.406-.281-.969-.281-1.39 0-.36.016-.954.297-1.407.218-.312.593-.64 1.14-.64.344 0 .766.156 1.063.593.11.172.11.188.11.375m0 0"/><path id="k" d="M6.64-6.75H.548L.359-4.5h.25C.75-6.11.891-6.437 2.406-6.437c.172 0 .438 0 .531.015.22.047.22.156.22.375V-.78c0 .328 0 .469-1.048.469h-.406V0c.406-.031 1.422-.031 1.89-.031.454 0 1.485 0 1.891.031v-.312h-.406c-1.047 0-1.047-.141-1.047-.47v-5.265c0-.187 0-.328.188-.375.11-.016.375-.016.562-.016 1.516 0 1.657.329 1.797 1.938h.25Zm0 0"/><path id="l" d="M1.094-3.422V-.75c0 .438-.11.438-.782.438V0c.36-.016.86-.031 1.141-.031.25 0 .766.015 1.11.031v-.312c-.672 0-.782 0-.782-.438v-1.844c0-1.031.719-1.594 1.344-1.594.64 0 .75.532.75 1.11V-.75c0 .438-.11.438-.781.438V0c.344-.016.86-.031 1.125-.031.25 0 .781.015 1.11.031v-.312c-.516 0-.766 0-.766-.297v-1.907c0-.859 0-1.156-.313-1.515-.14-.172-.469-.375-1.047-.375-.734 0-1.203.422-1.484 1.047v-1.047l-1.406.11v.312c.703 0 .78.062.78.562m0 0"/><path id="m" d="M2.078-1.937c.219.046 1.031.203 1.031.921 0 .5-.343.907-1.125.907-.843 0-1.203-.563-1.39-1.422-.031-.125-.031-.157-.14-.157-.126 0-.126.063-.126.235v1.328c0 .172 0 .234.11.234C.484.11.5.094.688-.094.703-.109.703-.125.89-.312c.437.406.89.421 1.093.421 1.141 0 1.61-.671 1.61-1.39 0-.516-.297-.828-.422-.938-.328-.328-.719-.406-1.14-.484-.563-.11-1.22-.235-1.22-.813 0-.359.25-.765 1.11-.765 1.094 0 1.156.906 1.172 1.203 0 .094.094.094.11.094.14 0 .14-.047.14-.235v-1.015c0-.157 0-.235-.11-.235-.046 0-.078 0-.203.125a2 2 0 0 1-.172.157c-.375-.282-.78-.282-.937-.282-1.219 0-1.594.672-1.594 1.235 0 .343.156.625.422.843.328.25.61.313 1.328.454m0 0"/><path id="n" d="M1.75-4.297v-1.156c0-.875.469-1.36.906-1.36.031 0 .188 0 .328.079a.44.44 0 0 0-.296.422c0 .218.156.421.437.421s.438-.203.438-.437c0-.375-.376-.703-.907-.703-.687 0-1.547.531-1.547 1.593v1.141H.33v.313h.78V-.75c0 .438-.109.438-.765.438V0c.39-.016.86-.031 1.125-.031.406 0 .875 0 1.265.031v-.312h-.203c-.734 0-.75-.11-.75-.47v-3.202h1.125v-.313Zm0 0"/><path id="o" d="M1.719-3.766v-3.156l-1.438.11v.312c.703 0 .782.063.782.563V0h.25c0-.016.078-.156.359-.625.14.234.562.734 1.297.734 1.187 0 2.219-.984 2.219-2.265 0-1.266-.97-2.25-2.11-2.25-.781 0-1.203.468-1.36.64M1.75-1.14v-2.046c0-.188 0-.204.11-.36.39-.562.937-.64 1.171-.64.453 0 .813.265 1.047.64.266.406.281.969.281 1.39 0 .36-.015.954-.296 1.407-.22.313-.594.64-1.125.64-.454 0-.813-.234-1.047-.609-.141-.203-.141-.234-.141-.422m0 0"/><path id="p" d="m1.766-4.406-1.391.11v.312c.64 0 .734.062.734.547V-.75c0 .438-.109.438-.78.438V0c.312-.016.859-.031 1.093-.031.36 0 .703.015 1.047.031v-.312c-.672 0-.703-.047-.703-.438Zm.03-1.735a.514.514 0 0 0-.515-.53.537.537 0 0 0-.531.53c0 .266.219.532.531.532a.514.514 0 0 0 .516-.532m0 0"/><path id="q" d="m1.766-6.922-1.438.11v.312c.703 0 .781.063.781.563V-.75c0 .438-.109.438-.78.438V0c.327-.016.859-.031 1.109-.031s.734.015 1.109.031v-.312c-.672 0-.781 0-.781-.438Zm0 0"/><path id="r" d="M1.719-3.984h1.437v-.313H1.72v-1.828h-.25c0 .813-.297 1.875-1.281 1.922v.219h.843v2.75c0 1.218.938 1.343 1.297 1.343.703 0 .985-.703.985-1.343v-.563h-.25v.547c0 .734-.297 1.11-.672 1.11-.672 0-.672-.907-.672-1.079Zm0 0"/><path id="D" d="M5.797-6.781H.328v.312h.235c.765 0 .796.11.796.469v5.219c0 .36-.03.469-.796.469H.328V0c.344-.031 1.125-.031 1.516-.031.406 0 1.312 0 1.672.031v-.312h-.328c-.938 0-.938-.125-.938-.47v-2.452h.844c.969 0 1.062.312 1.062 1.156h.25v-2.64h-.25c0 .843-.093 1.171-1.062 1.171H2.25v-2.531c0-.328.016-.39.484-.39h1.188c1.5 0 1.75.562 1.906 1.937h.25Zm0 0"/><path id="E" d="M4.688-2.14c0-1.266-.985-2.329-2.188-2.329C1.25-4.469.281-3.375.281-2.14A2.22 2.22 0 0 0 2.484.11c1.204 0 2.204-.984 2.204-2.25M2.5-.14a1.28 1.28 0 0 1-1.14-.672c-.25-.438-.25-1.047-.25-1.407 0-.39 0-.922.234-1.36a1.35 1.35 0 0 1 1.14-.671c.438 0 .86.219 1.125.656.266.422.266 1 .266 1.375 0 .36 0 .906-.219 1.344-.234.453-.672.734-1.156.734m0 0"/><path id="F" d="M2.406-6.594c-.094-.218-.125-.218-.36-.218H.376v.312H.61c.766 0 .782.11.782.469v4.984c0 .266 0 .734-1.016.734V0c.344-.016.828-.031 1.156-.031S2.36-.016 2.703 0v-.312c-1.031 0-1.031-.47-1.031-.735v-5.375h.016L4.094-.219c.047.125.093.219.187.219.11 0 .14-.078.188-.187L6.922-6.5v5.719c0 .36-.016.469-.781.469h-.235V0c.36-.031 1.047-.031 1.438-.031.375 0 1.047 0 1.422.031v-.312h-.25c-.766 0-.782-.11-.782-.47v-5.25c0-.359.016-.468.782-.468h.25v-.312H7.078c-.266 0-.266.015-.328.187L4.563-1Zm0 0"/><path id="G" d="M5.797-2.578h-.25c-.11 1.015-.25 2.266-2 2.266h-.813c-.468 0-.484-.063-.484-.391v-5.313c0-.343 0-.484.938-.484h.328v-.312c-.36.03-1.266.03-1.672.03-.39 0-1.172 0-1.516-.03v.312h.235c.765 0 .796.11.796.469v5.25c0 .36-.03.469-.796.469H.328V0h5.188Zm0 0"/><path id="s" d="M-2.203-2.656c1.562 1.36 3.797 1.156 5.015-.25 1.063-1.219.641-2.86-.218-3.625-.078-.063-.14-.11-.219-.016-.078.078-.031.125.063.203 1 1 .921 2.328.203 3.157-.407.453-1.922 1.718-4.188-.235-2.234-1.953-1.219-3.656-.812-4.11.703-.812 1.984-.89 3.203-.093.125.078.156.094.25 0 .093-.125.062-.14-.094-.281L-.781-9.453c-.125-.11-.188-.156-.25-.078-.032.031-.063.062-.016.203l.234.86c-.5.03-1.234.093-1.859.812-1.219 1.422-1.062 3.672.469 5m0 0"/><path id="t" d="m-4.062-5.875-.86 1.156.234.203c.454-.53.563-.546.938-.218L.172-1.328c.328.281.25.375-.188.875L.22-.25c.203-.266.531-.656.687-.844.172-.203.5-.562.766-.828l-.234-.203c-.438.5-.516.594-.844.313Zm0 0"/><path id="u" d="M1.61-2.984c.327.218.812.297 1.124-.063.141-.156.438-.719-.171-1.25l-.422-.375-.172.188.422.375c.437.375.328.609.25.703-.22.25-.594-.031-.625-.047l-1.5-1.313c-.313-.28-.61-.53-1.125-.515-.547.047-1 .312-1.313.672-.547.625-.625 1.453-.14 1.89.234.188.484.14.656-.062.187-.203.14-.453-.047-.625-.094-.078-.375-.266-.672.078-.094-.438.156-.875.36-1.11.327-.375.984-.546 1.656.032l.265.234c-.312.422-.734.953-.922 1.625-.234.797 0 1.328.329 1.61.609.53 1.421-.032 1.843-.5.422-.5.422-1.11.203-1.547M.327-4.016l.75.657c.703.609.5 1.375.203 1.718-.312.36-.843.454-1.218.125-.407-.359-.75-1.234.265-2.5m0 0"/><path id="v" d="M-.11-2.828c.188-.14.844-.656 1.391-.188.375.329.453.844-.062 1.438-.547.64-1.203.547-1.985.125-.109-.063-.14-.078-.218 0-.079.094-.016.14.109.25l1 .875c.125.11.172.156.234.078.032-.031.047-.062.016-.328.016-.031 0-.031-.031-.297.61-.062.906-.39 1.031-.547.75-.86.563-1.672.016-2.14a1.23 1.23 0 0 0-.985-.282c-.468.031-.781.281-1.125.547-.437.344-.968.766-1.406.375-.266-.234-.406-.687.156-1.344.719-.828 1.438-.28 1.672-.078.078.063.14-.015.14-.031.095-.11.063-.14-.077-.266l-.782-.671c-.109-.094-.171-.157-.234-.063-.031.031-.047.063-.047.25a1 1 0 0 1 .016.219c-.469.093-.735.406-.828.515-.797.922-.532 1.657-.11 2.016.25.234.563.297.906.25.407-.094.641-.266 1.204-.703m0 0"/><path id="w" d="M-2.172-4.219-3-3.094l.25.203c.422-.484.531-.53.89-.203L.173-1.328c.328.281.25.375-.188.875L.22-.25c.186-.25.53-.656.686-.844.235-.265.469-.531.719-.765l-.234-.203c-.453.5-.5.5-.797.25ZM-3.469-5.39c-.234-.203-.531-.156-.719.047a.55.55 0 0 0 .032.75.56.56 0 0 0 .765-.062c.188-.203.157-.532-.078-.735m0 0"/><path id="x" d="M-.875-2.312c-1.219-1.063-1.016-1.954-.656-2.36.062-.062.484-.516.968-.547-.234.328-.046.563.047.657.204.171.454.156.641-.047.172-.203.188-.47-.062-.672-.5-.438-1.297-.125-1.797.453-.828.953-.61 2.344.328 3.14.968.844 2.36.766 3.11-.109.874-1 .187-2.047.124-2.11-.078-.062-.156.016-.172.048-.047.062-.047.109 0 .156.5.812.157 1.39-.078 1.656-.344.406-1.234.781-2.453-.265m0 0"/><path id="y" d="m-1.328-8.828-3.578 4.125.25.203.156-.172c.5-.578.594-.531.86-.297L.296-1.547c.281.234.344.344-.156.922l-.157.172.235.203c.187-.266.703-.86.953-1.156.266-.313.875-.985 1.14-1.25l-.234-.203-.219.25c-.625.703-.718.625-.984.39L-.97-3.829l.563-.624c.64-.734.937-.61 1.578-.047l.156-.187-2-1.735-.156.188c.64.547.828.843.187 1.578l-.562.625-1.922-1.657c-.234-.218-.266-.265.047-.625l.781-.89c.985-1.14 1.563-.953 2.703-.172l.156-.187Zm0 0"/><path id="z" d="M1.469-4.937c-.969-.829-2.422-.797-3.203.109-.828.953-.625 2.39.312 3.203.969.86 2.36.719 3.125-.172a2.216 2.216 0 0 0-.234-3.14m.062 2.953c-.281.328-.734.547-1.25.422-.484-.094-.953-.5-1.219-.735-.296-.265-.703-.61-.89-1.062-.156-.5-.016-.985.25-1.297a1.29 1.29 0 0 1 1.234-.422c.5.078.938.453 1.219.703.266.234.688.594.875 1.031.188.485.094 1-.219 1.36m0 0"/><path id="A" d="m-1.406-3.437-.828-.72-.828 1.126.25.203c.453-.531.562-.547.937-.219L.141-1.28c.328.281.25.36-.188.86l.235.202c.234-.297.53-.656.718-.875.25-.297.563-.64.86-.937l-.235-.203-.14.172c-.485.546-.578.484-.86.25l-1.156-1c-.734-.641-1.125-1.547-.64-2.125.046-.047.062-.063.077-.063a.43.43 0 0 0 .141.422.423.423 0 0 0 .61-.047c.125-.125.187-.39-.047-.594-.235-.218-.672-.172-.953.14-.47.563-.204 1.266.03 1.641m0 0"/><path id="B" d="M-1.172-2.5c-1.078-1.016-.703-1.797-.484-2.062.672-.766 1.75.03 2.031.28Zm.172.156L.813-4.437c.156-.157.171-.188 0-.344-.735-.64-1.829-.875-2.641.062-.75.875-.578 2.25.36 3.063 1 .875 2.421.734 3.171-.125.797-.922.266-2 .125-2.125-.078-.063-.14-.016-.187.031-.047.063-.032.125.015.188.547.921-.047 1.609-.11 1.687-.327.375-.796.484-1.233.406-.547-.093-1.047-.515-1.313-.75m0 0"/><path id="C" d="m2.078-3.219.485.438.874-1.188-.234-.203c-.437.531-.547.547-.922.219L-2.28-7.922l-.86 1.156.235.204c.453-.516.547-.532.922-.204L-.36-5.359a1.57 1.57 0 0 0-1.282.53c-.78.891-.718 2.313.25 3.157.954.828 2.329.766 3.079-.094.421-.484.453-1.062.39-1.453M.063-4.969l1.53 1.344c.141.11.141.125.204.328.172.531.047 1-.234 1.328-.297.344-.735.438-1.172.39-.47-.093-.922-.437-1.235-.718-.281-.234-.703-.625-.86-1.14-.093-.376-.093-.876.266-1.282.22-.265.61-.468 1.126-.406.218.016.218.031.375.156m0 0"/><path id="H" d="m6.078-3.11-.281.157.125.219c.375.656.297.734-.016.906L1.36.797C1.047.984.938 1.016.563.359L.438.141.172.297 2 3.469c.828 1.437 2.781 1.906 4.406.969C8.063 3.484 8.75 1.53 7.906.063ZM1.625 2.204c-.234-.406-.187-.453.094-.61L6.39-1.108c.297-.172.359-.188.593.218l.5.86c.313.547.47 1.25.11 2.047-.297.672-1 1.156-1.688 1.547-.937.546-1.562.703-2.156.624-.344-.03-1.125-.25-1.625-1.109Zm0 0"/><path id="I" d="M8.766 1.625 6.03-3.109l-.265.156.125.203c.375.672.28.75-.016.922L1.344.782C1.03.968.922 1 .547.327L.422.125.156.281C.36.563.75 1.25.953 1.578c.203.36.656 1.14.797 1.469l.266-.156-.157-.282c-.468-.812-.359-.875-.062-1.046L3.922.343l.422.72c.484.843.265 1.078-.469 1.5L4 2.78l2.297-1.328-.125-.219c-.734.422-1.063.516-1.547-.328L4.203.188l2.188-1.266c.28-.172.343-.188.578.219L7.562.156c.75 1.313.375 1.797-.734 2.625L6.953 3Zm0 0"/><path id="J" d="M9.156 2.375 6.11-2.906l-2.046.969.125.218c1.484-.672 1.828-.734 2.593.578.078.157.219.391.25.485.063.203-.031.265-.218.375L2.25 2.344c-.281.172-.406.234-.937-.672l-.204-.36-.265.157c.234.343.75 1.219.984 1.625.219.39.734 1.281.906 1.656L3 4.594l-.203-.36c-.516-.906-.39-.968-.11-1.14L7.25.469c.172-.094.281-.172.422-.016.062.078.203.313.297.469.75 1.312.547 1.61-.797 2.531l.125.203Zm0 0"/></defs><path fill="none" stroke="#7F7F7F" stroke-miterlimit="10" stroke-width=".399" d="M130.77 128.973V15.586m0 113.387-98.196 56.691m98.196-56.691 98.19 56.691"/><path fill="none" stroke="#7F7F7F" stroke-dasharray="0.79701 1.99255" stroke-miterlimit="10" stroke-width=".797" d="m130.77 100.625-24.547 42.52h49.093Zm0 0"/><path fill="none" stroke="#7F7F7F" stroke-dasharray="0.79701 1.99255" stroke-miterlimit="10" stroke-width=".797" d="m130.77 72.277-49.098 85.04h98.195Zm0 0"/><path fill="none" stroke="#7F7F7F" stroke-dasharray="0.79701 1.99255" stroke-miterlimit="10" stroke-width=".797" d="M130.77 43.93 57.125 171.492h147.29Zm0 0"/><path fill="none" stroke="#7F7F7F" stroke-dasharray="0.79701 1.99255" stroke-miterlimit="10" stroke-width=".797" d="M130.77 15.586 32.574 185.664h196.387Zm0 0"/><use xlink:href="#a" x="110.553" y="10.128"/><use xlink:href="#b" x="118.025" y="10.128"/><use xlink:href="#b" x="122.452" y="10.128"/><use xlink:href="#c" x="126.88" y="10.128"/><use xlink:href="#d" x="132.415" y="10.128"/><use xlink:href="#e" x="136.317" y="10.128"/><use xlink:href="#b" x="141.299" y="10.128"/><use xlink:href="#f" x="145.726" y="10.128"/><use xlink:href="#g" x="3.32" y="196.102"/><use xlink:href="#h" x="8.855" y="196.102"/><use xlink:href="#i" x="14.669" y="196.102"/><use xlink:href="#i" x="19.097" y="196.102"/><use xlink:href="#j" x="23.524" y="196.102"/><use xlink:href="#k" x="232.481" y="196.102"/><use xlink:href="#d" x="238.849" y="196.102"/><use xlink:href="#e" x="242.751" y="196.102"/><use xlink:href="#l" x="247.733" y="196.102"/><use xlink:href="#m" x="253.268" y="196.102"/><use xlink:href="#n" x="257.197" y="196.102"/><use xlink:href="#i" x="260.242" y="196.102"/><use xlink:href="#d" x="264.669" y="196.102"/><use xlink:href="#e" x="268.572" y="196.102"/><use xlink:href="#o" x="273.553" y="196.102"/><use xlink:href="#p" x="279.088" y="196.102"/><use xlink:href="#q" x="281.856" y="196.102"/><use xlink:href="#p" x="284.623" y="196.102"/><use xlink:href="#r" x="287.391" y="196.102"/><use xlink:href="#f" x="290.986" y="196.102"/><path fill="red" fill-opacity=".2" stroke="red" stroke-miterlimit="10" stroke-opacity=".2" stroke-width=".797" d="M130.77 72.277 32.574 185.664l122.856-42.52Zm0 0"/><path fill="#00F" fill-opacity=".2" stroke="#00F" stroke-miterlimit="10" stroke-opacity=".2" stroke-width=".797" d="M130.77 43.93 57.125 171.492h147.29Zm0 0"/><path fill="#0C0" fill-opacity=".2" stroke="#0C0" stroke-miterlimit="10" stroke-opacity=".2" stroke-width=".797" d="m130.77 15.586-24.547 127.559 122.738 42.52Zm0 0"/><g fill="red"><use xlink:href="#s" x="48.27" y="162.032"/><use xlink:href="#t" x="52.99" y="156.602"/><use xlink:href="#u" x="54.806" y="154.513"/><use xlink:href="#v" x="58.074" y="150.754"/><use xlink:href="#v" x="60.652" y="147.788"/><use xlink:href="#w" x="63.23" y="144.823"/><use xlink:href="#x" x="65.046" y="142.734"/><use xlink:href="#u" x="67.95" y="139.393"/><use xlink:href="#t" x="71.218" y="135.633"/></g><use xlink:href="#y" x="75.211" y="131.041" fill="red"/><g fill="red"><use xlink:href="#z" x="78.935" y="126.756"/><use xlink:href="#A" x="82.203" y="122.997"/><use xlink:href="#x" x="84.763" y="120.052"/><use xlink:href="#B" x="87.668" y="116.71"/></g><g fill="red"><use xlink:href="#y" x="92.749" y="110.865"/><use xlink:href="#w" x="97.016" y="105.957"/><use xlink:href="#B" x="98.832" y="103.868"/><use xlink:href="#t" x="101.736" y="100.527"/><use xlink:href="#C" x="103.552" y="98.438"/><use xlink:href="#v" x="107.184" y="94.261"/></g><use xlink:href="#D" x="64.864" y="182.144" fill="#00F"/><g fill="#00F"><use xlink:href="#E" x="70.541" y="182.144"/><use xlink:href="#c" x="75.522" y="182.144"/><use xlink:href="#l" x="81.057" y="182.144"/><use xlink:href="#j" x="86.592" y="182.144"/></g><g fill="#00F"><use xlink:href="#e" x="92.118" y="182.144"/><use xlink:href="#r" x="97.099" y="182.144"/><use xlink:href="#p" x="100.973" y="182.144"/><use xlink:href="#E" x="103.741" y="182.144"/><use xlink:href="#l" x="108.722" y="182.144"/><use xlink:href="#e" x="114.258" y="182.144"/><use xlink:href="#q" x="119.239" y="182.144"/></g><g fill="#00F"><use xlink:href="#F" x="125.334" y="182.144"/><use xlink:href="#G" x="134.467" y="182.144"/></g><use xlink:href="#D" x="144.011" y="182.144" fill="#00F"/><g fill="#00F"><use xlink:href="#E" x="149.688" y="182.144"/><use xlink:href="#d" x="154.669" y="182.144"/><use xlink:href="#b" x="158.571" y="182.144"/><use xlink:href="#i" x="162.999" y="182.144"/></g><g fill="#00F"><use xlink:href="#D" x="170.744" y="182.144"/><use xlink:href="#p" x="177.247" y="182.144"/><use xlink:href="#i" x="180.015" y="182.144"/><use xlink:href="#q" x="184.442" y="182.144"/><use xlink:href="#j" x="187.21" y="182.144"/><use xlink:href="#m" x="192.745" y="182.144"/></g><g fill="#0C0"><use xlink:href="#H" x="165.594" y="96.561"/><use xlink:href="#I" x="169.399" y="103.152"/><use xlink:href="#J" x="172.651" y="108.784"/></g></svg>