<svg xmlns="http://www.w3.org/2000/svg" xmlns:xlink="http://www.w3.org/1999/xlink" width="228.365" height="160.909" viewBox="0 0 171.274 120.682"><defs><symbol overflow="visible" id="a"><path d="M.875-.594c-.031.156-.094.39-.094.438 0 .172.14.265.297.265a.414.414 0 0 0 .375-.28c0-.016.125-.485.188-.735l.218-.89c.047-.235.11-.454.172-.673.031-.172.11-.469.125-.5.14-.312.672-1.219 1.625-1.219.453 0 .531.375.531.704 0 .25-.062.53-.14.828L3.89-1.5l-.204.75c-.03.203-.124.547-.124.594 0 .172.14.265.28.265.313 0 .376-.25.454-.562.14-.563.516-2.016.594-2.406.03-.125.562-1.329 1.656-1.329.422 0 .531.344.531.704 0 .562-.422 1.703-.625 2.234-.078.234-.125.344-.125.547 0 .469.344.812.813.812.937 0 1.312-1.453 1.312-1.53 0-.11-.094-.11-.125-.11-.094 0-.094.031-.14.187-.157.532-.47 1.235-1.016 1.235-.172 0-.25-.094-.25-.329 0-.25.094-.484.187-.703.188-.53.61-1.625.61-2.203 0-.64-.407-1.062-1.157-1.062-.734 0-1.25.437-1.625.968 0-.124-.03-.468-.312-.703-.25-.218-.563-.265-.813-.265-.906 0-1.39.64-1.562.875-.047-.578-.469-.875-.922-.875-.453 0-.64.39-.734.562-.172.36-.297.938-.297.969 0 .11.094.11.11.11.109 0 .109-.016.171-.235.172-.703.375-1.188.735-1.188.156 0 .296.079.296.454 0 .218-.03.328-.156.843zm0 0"/></symbol><symbol overflow="visible" id="e"><path d="M.406-2.531C.796-3.671 1.891-3.687 2-3.687c1.5 0 1.61 1.75 1.61 2.53 0 .61-.047.782-.126.985-.218.719-.515 1.875-.515 2.14 0 .11.047.173.125.173.14 0 .219-.22.328-.594.234-.844.328-1.406.36-1.719.03-.125.046-.25.093-.39.313-.985.953-2.47 1.344-3.25.078-.126.187-.344.187-.391 0-.094-.093-.094-.11-.094-.03 0-.093 0-.124.063-.516.953-.922 1.953-1.313 2.953-.015-.297-.015-1.063-.406-2.032-.25-.609-.64-1.093-1.328-1.093-1.25 0-1.953 1.515-1.953 1.828 0 .094.094.094.203.094zm0 0"/></symbol><symbol overflow="visible" id="f"><path d="M4.5-4.297c0-.047-.031-.094-.094-.094-.11 0-.515.391-.672.688-.218-.547-.609-.703-.937-.703-1.172 0-2.39 1.468-2.39 2.922C.406-.516.983.109 1.718.109c.422 0 .812-.234 1.172-.593-.094.343-.422 1.687-.454 1.78-.078.282-.156.313-.718.329-.125 0-.219 0-.219.203 0 0 0 .11.125.11.313 0 .672-.032 1-.032.328 0 .688.032 1.031.032.047 0 .172 0 .172-.204 0-.109-.094-.109-.265-.109-.47 0-.47-.063-.47-.156 0-.078.016-.14.032-.219zM1.75-.109c-.61 0-.64-.766-.64-.938 0-.484.28-1.562.452-1.984.313-.735.829-1.156 1.235-1.156.656 0 .797.812.797.875 0 .062-.547 2.25-.578 2.28-.157.282-.72.923-1.266.923zm0 0"/></symbol><symbol overflow="visible" id="b"><path d="M3.516-1.266H3.28c-.015.157-.094.563-.187.625-.047.047-.578.047-.688.047H1.125c.734-.64.984-.844 1.39-1.172.516-.406 1-.843 1-1.5 0-.843-.734-1.359-1.624-1.359-.86 0-1.454.61-1.454 1.25 0 .344.297.39.376.39.156 0 .359-.124.359-.374 0-.125-.047-.375-.406-.375.218-.485.687-.641 1.015-.641.703 0 1.063.547 1.063 1.11 0 .609-.438 1.078-.656 1.328L.516-.266C.437-.203.437-.187.437 0h2.876zm0 0"/></symbol><symbol overflow="visible" id="c"><path d="M2.328-4.438c0-.187 0-.187-.203-.187-.453.438-1.078.438-1.36.438v.25c.157 0 .626 0 1-.188v3.547c0 .234 0 .328-.687.328H.812V0c.125 0 .985-.031 1.235-.031.219 0 1.094.031 1.25.031v-.25H3.03c-.703 0-.703-.094-.703-.328zm0 0"/></symbol><symbol overflow="visible" id="g"><path d="M3.594-2.219c0-.765-.094-1.328-.406-1.812-.22-.313-.657-.594-1.204-.594C.36-4.625.36-2.719.36-2.219c0 .5 0 2.36 1.625 2.36 1.61 0 1.61-1.86 1.61-2.36zM1.984-.063c-.328 0-.75-.187-.89-.75C1-1.219 1-1.796 1-2.313c0-.515 0-1.046.094-1.421.156-.547.593-.704.89-.704.375 0 .735.235.86.641.11.375.125.875.125 1.485 0 .515 0 1.03-.094 1.468-.14.64-.61.781-.89.781zm0 0"/></symbol><symbol overflow="visible" id="d"><path d="M2.031-.016c0-.625-.25-1.046-.64-1.046-.36 0-.532.28-.532.53 0 .266.172.532.532.532a.578.578 0 0 0 .375-.14l.015-.016c.016 0 .016 0 .016.14 0 .641-.266 1.25-.703 1.72-.063.062-.078.077-.078.109 0 .078.046.109.093.109.125 0 .922-.781.922-1.938zm0 0"/></symbol><clipPath id="h"><path d="M0 41h171.273v39H0zm0 0"/></clipPath></defs><path d="M128.156 60.34c0-23.48-19.035-42.52-42.52-42.52-23.484 0-42.519 19.04-42.519 42.52 0 23.484 19.035 42.52 42.52 42.52 23.484 0 42.52-19.036 42.52-42.52zm0 0" fill="none" stroke-width="1.19553" stroke="rgb(0%,0%,0%)" stroke-miterlimit="10"/><use xlink:href="#a" x="70.894" y="11.43" fill="rgb(0%,0%,0%)"/><use xlink:href="#b" x="79.642" y="7.815" fill="rgb(0%,0%,0%)"/><use xlink:href="#c" x="79.642" y="13.903" fill="rgb(0%,0%,0%)"/><use xlink:href="#d" x="84.111" y="11.43" fill="rgb(0%,0%,0%)"/><use xlink:href="#e" x="90.199" y="11.43" fill="rgb(0%,0%,0%)"/><use xlink:href="#b" x="95.911" y="7.815" fill="rgb(0%,0%,0%)"/><use xlink:href="#c" x="95.357" y="13.903" fill="rgb(0%,0%,0%)"/><use xlink:href="#a" x="70.894" y="114.889" fill="rgb(0%,0%,0%)"/><use xlink:href="#b" x="79.641" y="111.273" fill="rgb(0%,0%,0%)"/><use xlink:href="#b" x="79.641" y="117.361" fill="rgb(0%,0%,0%)"/><use xlink:href="#d" x="84.111" y="114.889" fill="rgb(0%,0%,0%)"/><use xlink:href="#e" x="90.199" y="114.889" fill="rgb(0%,0%,0%)"/><use xlink:href="#b" x="95.911" y="111.273" fill="rgb(0%,0%,0%)"/><use xlink:href="#b" x="95.357" y="117.361" fill="rgb(0%,0%,0%)"/><path d="M64.41 31.047c4.121-4.91 15.547-9.07 26.766-7.094 7.383 1.3 14.07 5.164 15.312 6.645" fill="none" stroke-width="0.59776" stroke="rgb(0%,0%,54.499817%)" stroke-miterlimit="10"/><path d="M107.012 28.367c-.453.531-.434 2.156-.301 2.496-.309-.191-1.91-.492-2.508-.14" fill="none" stroke-width=".478190436" stroke-linecap="round" stroke-linejoin="round" stroke="rgb(0%,0%,54.499817%)" stroke-miterlimit="10"/><use xlink:href="#f" x="81.179" y="31.379" fill="rgb(0%,0%,54.499817%)"/><use xlink:href="#g" x="85.626" y="32.874" fill="rgb(0%,0%,54.499817%)"/><path d="M.598 60.34h42.52m1.991 0a1.993 1.993 0 1 0-3.986.001 1.993 1.993 0 0 0 3.986-.001zm85.04 0a1.993 1.993 0 1 0-3.987.001 1.993 1.993 0 0 0 3.986-.001zm-1.993 0h42.52" fill="rgb(0%,0%,0%)"/><g clip-path="url(#h)"><path d="M.598 60.34h42.52m1.991 0a1.993 1.993 0 1 0-3.986.001 1.993 1.993 0 0 0 3.986-.001zm85.04 0a1.993 1.993 0 1 0-3.987.001 1.993 1.993 0 0 0 3.986-.001zm-1.993 0h42.52" fill="none" stroke-width="1.19553" stroke="rgb(0%,0%,0%)" stroke-miterlimit="10"/></g><path d="M5.578 55.36h31.973" fill="none" stroke-width="0.59776" stroke="rgb(0%,0%,54.499817%)" stroke-miterlimit="10"/><path d="M36.18 53.527c.113.688 1.37 1.72 1.715 1.832-.344.114-1.602 1.145-1.715 1.832" fill="none" stroke-width="0.4782" stroke-linecap="round" stroke-linejoin="round" stroke="rgb(0%,0%,54.499817%)" stroke-miterlimit="10"/><use xlink:href="#f" x="17.399" y="49.803" fill="rgb(0%,0%,54.499817%)"/><use xlink:href="#g" x="21.847" y="51.298" fill="rgb(0%,0%,54.499817%)"/><path d="M133.137 55.36h31.976" fill="none" stroke-width="0.59776" stroke="rgb(0%,0%,54.499817%)" stroke-miterlimit="10"/><path d="M163.738 53.527c.114.688 1.375 1.72 1.719 1.832-.344.114-1.605 1.145-1.719 1.832" fill="none" stroke-width="0.4782" stroke-linecap="round" stroke-linejoin="round" stroke="rgb(0%,0%,54.499817%)" stroke-miterlimit="10"/><use xlink:href="#f" x="144.958" y="49.803" fill="rgb(0%,0%,54.499817%)"/><use xlink:href="#g" x="149.406" y="51.298" fill="rgb(0%,0%,54.499817%)"/></svg>