<svg xmlns="http://www.w3.org/2000/svg" xmlns:xlink="http://www.w3.org/1999/xlink" width="672.308" height="247.175" viewBox="0 0 504.231 185.381"><defs><symbol overflow="visible" id="d"><path d="M4.984-9.844v.625c.875 0 .985 0 .985.563v2.89c-.313-.265-.953-.687-1.938-.687C2-6.453.547-5.187.547-3.187c0 2.046 1.422 3.28 3.328 3.28.781 0 1.453-.28 2.016-.75v.75L8.453 0v-.61c-.89 0-1 0-1-.562v-8.781zm.907 8.39C5.297-.577 4.562-.39 4.047-.39c-1.781 0-1.781-1.812-1.781-2.765 0-.672 0-1.39.312-1.938.453-.797 1.297-.89 1.625-.89.594 0 1.219.265 1.688.89zm0 0"/></symbol><symbol overflow="visible" id="e"><path d="M2.984-3.234c0-.47.094-2.75 1.782-2.75a.83.83 0 0 0-.313.656c0 .594.484.844.844.844s.828-.25.828-.844c0-.719-.75-1.125-1.438-1.125-1.125 0-1.625.984-1.812 1.594h-.016v-1.594L.5-6.343v.624c.89 0 .984 0 .984.563V-.61H.5V0c.328-.031 1.406-.031 1.813-.031.406 0 1.578 0 1.921.031v-.61h-1.25zm0 0"/></symbol><symbol overflow="visible" id="f"><path d="M7.61-3.14C7.61-5.079 6.28-6.5 4.03-6.5 1.688-6.5.438-5 .438-3.14.438-1.267 1.766.093 4.015.093c2.343 0 3.593-1.422 3.593-3.235zM4.03-.438c-1.86 0-1.86-1.672-1.86-2.844 0-.672 0-1.39.267-1.906.312-.579.968-.844 1.578-.844.812 0 1.328.39 1.578.797.281.515.281 1.265.281 1.953 0 1.187 0 2.844-1.844 2.844zm0 0"/></symbol><symbol overflow="visible" id="g"><path d="M4.047 2.172h-.984V-.594c.343.328.984.688 1.843.688 1.969 0 3.5-1.203 3.5-3.297 0-1.969-1.328-3.25-3.265-3.25-.86 0-1.579.281-2.157.75v-.75L.5-6.343v.624c.89 0 .984 0 .984.563v7.328H.5v.61c.328-.032 1.36-.032 1.766-.032.406 0 1.453 0 1.78.031zm-.984-7.188a2.328 2.328 0 0 1 1.843-.921c.938 0 1.782.843 1.782 2.734 0 2.078-1.032 2.812-1.954 2.812-.625 0-1.234-.312-1.671-.984zm0 0"/></symbol><symbol overflow="visible" id="h"><path d="M5.063-6.344v.625c.89 0 .984 0 .984.563v2.797c0 1.093-.64 1.968-1.766 1.968-1.062 0-1.125-.359-1.125-1.14v-4.922l-2.547.11v.624c.875 0 .985 0 .985.563v3.39c0 1.438.953 1.86 2.5 1.86.343 0 1.406 0 2.015-1.172h.016V.094L8.609 0v-.61c-.89 0-1 0-1-.562v-5.281zm0 0"/></symbol><symbol overflow="visible" id="i"><path d="M3.031-5.75h2.063v-.625H3.03v-2.734h-.61C2.407-7.688 1.72-6.266.298-6.22v.469h1.172v3.984C1.469-.25 2.64.094 3.672.094c1.062 0 1.687-.813 1.687-1.875v-.75h-.593v.734c0 .953-.438 1.36-.875 1.36-.86 0-.86-.954-.86-1.282zm0 0"/></symbol><symbol overflow="visible" id="k"><path d="M8.031-5.75L3.906-9.86c-.25-.234-.297-.28-.453-.28-.203 0-.422.187-.422.406 0 .156.047.187.281.421l4.126 4.141-4.125 4.156c-.235.235-.282.266-.282.422 0 .219.219.406.422.406.156 0 .203-.046.453-.28l4.11-4.11 4.28 4.266c.032.015.173.124.298.124.25 0 .422-.187.422-.406 0-.047 0-.125-.063-.234-.015-.047-3.312-3.281-4.344-4.344l3.782-3.766c.109-.124.421-.406.515-.515.031-.047.11-.125.11-.281a.407.407 0 0 0-.422-.407c-.156 0-.235.079-.469.313zm0 0"/></symbol><clipPath id="a"><path d="M0 159h22v26.383H0zm0 0"/></clipPath><clipPath id="b"><path d="M56 159h32v26.383H56zm0 0"/></clipPath><clipPath id="c"><path d="M122 159h33v26.383h-33zm0 0"/></clipPath><clipPath id="j"><path d="M282 159h33v26.383h-33zm0 0"/></clipPath><clipPath id="l"><path d="M349 159h33v26.383h-33zm0 0"/></clipPath><clipPath id="m"><path d="M416 159h33v26.383h-33zm0 0"/></clipPath><clipPath id="n"><path d="M483 116h21.23v33H483zm0 0"/></clipPath><clipPath id="o"><path d="M483 31h21.23v33H483zm0 0"/></clipPath><clipPath id="p"><path d="M423 43h81.23v139H423zm0 0"/></clipPath><clipPath id="q"><path d="M423 0h81.23v138H423zm0 0"/></clipPath></defs><g clip-path="url(#a)"><path d="M9.793 175.172a4.698 4.698 0 0 0-9.395 0 4.698 4.698 0 0 0 9.395 0zm0 0" fill="none" stroke-width="0.79701" stroke="rgb(0%,0%,0%)" stroke-miterlimit="10"/></g><g clip-path="url(#b)"><path d="M76.676 175.172a4.698 4.698 0 0 0-9.395 0 4.698 4.698 0 0 0 9.395 0zm0 0" fill="none" stroke-width="0.79701" stroke="rgb(0%,0%,0%)" stroke-miterlimit="10"/></g><g clip-path="url(#c)"><path d="M143.559 175.172a4.698 4.698 0 0 0-9.395 0 4.698 4.698 0 0 0 9.395 0zm0 0" fill="none" stroke-width="0.79701" stroke="rgb(0%,0%,0%)" stroke-miterlimit="10"/></g><path d="M9.793 132.652a4.698 4.698 0 0 0-9.395 0 4.698 4.698 0 0 0 9.395 0zM.397 302.734C5.095 45.017 2.99 42.915.396 42.915A4.695 4.695 0 0 0-4.3 47.612a4.698 4.698 0 0 0 9.395 0zm-133.766 0c66.883-2.594 64.782-4.696 62.188-4.696a4.698 4.698 0 0 0-4.7 4.695 4.698 4.698 0 0 0 9.395 0zm-143.16 170.08c71.58-87.634 69.474-89.736 66.88-89.736a4.695 4.695 0 0 0-4.695 4.696 4.698 4.698 0 0 0 9.395 0zm133.764 85.04c-66.882-45.113-68.988-47.214-71.582-47.214a4.695 4.695 0 0 0-4.695 4.695 4.698 4.698 0 0 0 9.395 0zM-419.69 302.734c138.463-87.635 136.361-89.737 133.768-89.737a4.698 4.698 0 0 0-4.7 4.696 4.698 4.698 0 0 0 9.395 0zm0 85.038c0-45.113-2.106-47.218-4.7-47.218a4.698 4.698 0 1 0 4.7 4.699zm-9.398 255.12c4.7-130.154 2.594-132.26 0-132.26a4.698 4.698 0 1 0 4.7 4.7zm-133.762 85.04c66.88-45.113 64.779-47.218 62.185-47.218a4.698 4.698 0 1 0 4.695 4.7zm-143.166 255.12C-634.432 2.498-636.538.392-639.13.392a4.698 4.698 0 1 0 4.699 4.7zm133.77 170.08c-66.885-87.633-68.99-89.739-71.584-89.739a4.698 4.698 0 1 0 4.699 4.7zm-276.932 255.12C-710.71 2.497-712.811.392-715.406.392a4.698 4.698 0 1 0 4.695 4.7zm.006 170.076c-.003-87.631-2.105-89.733-4.699-89.733a4.698 4.698 0 0 0-4.699 4.695 4.698 4.698 0 0 0 9.395 0zm-410.7.006c205.35-2.597 203.249-4.702 200.655-4.702a4.698 4.698 0 1 0 4.695 4.7zm.008 340.152l54.097-170.076" fill="none" stroke-width="0.79701" stroke="rgb(0%,0%,0%)" stroke-miterlimit="10"/><path d="M66.883 175.172l-4.145-2.07 1.555 2.07-1.555 2.074" fill="rgb(0%,0%,0%)"/><path d="M77.074 175.172h54.102" fill="none" stroke-width="0.79701" stroke="rgb(0%,0%,0%)" stroke-miterlimit="10"/><path d="M133.766 175.172l-4.145-2.07 1.555 2.07-1.555 2.074" fill="rgb(0%,0%,0%)"/><path d="M9.395 172.441l56.097-35.668" fill="none" stroke-width="0.79701" stroke="rgb(0%,0%,0%)" stroke-miterlimit="10"/><path d="M67.68 135.387l-4.61.472 2.422.914-.199 2.586" fill="rgb(0%,0%,0%)"/><path d="M76.277 172.441l56.098-35.668" fill="none" stroke-width="0.79701" stroke="rgb(0%,0%,0%)" stroke-miterlimit="10"/><path d="M134.563 135.387l-4.61.472 2.422.914-.2 2.586" fill="rgb(0%,0%,0%)"/><path d="M8.246 171.168l58.98-74.996" fill="none" stroke-width="0.79701" stroke="rgb(0%,0%,0%)" stroke-miterlimit="10"/><path d="M68.828 94.137l-4.191 1.976 2.59.059.668 2.504" fill="rgb(0%,0%,0%)"/><path d="M75.129 171.168l58.98-74.996" fill="none" stroke-width="0.79701" stroke="rgb(0%,0%,0%)" stroke-miterlimit="10"/><path d="M135.71 94.137l-4.19 1.976 2.59.059.667 2.504" fill="rgb(0%,0%,0%)"/><path d="M7.46 170.66L68.41 54.418" fill="none" stroke-width="0.79701" stroke="rgb(0%,0%,0%)" stroke-miterlimit="10"/><path d="M69.613 52.125l-3.761 2.707 2.558-.414 1.113 2.34" fill="rgb(0%,0%,0%)"/><path d="M74.344 170.66l60.949-116.242" fill="none" stroke-width="0.79701" stroke="rgb(0%,0%,0%)" stroke-miterlimit="10"/><path d="M136.496 52.125l-3.762 2.707 2.559-.414 1.113 2.34" fill="rgb(0%,0%,0%)"/><path d="M6.96 170.434L69.169 12.242" fill="none" stroke-width="0.79701" stroke="rgb(0%,0%,0%)" stroke-miterlimit="10"/><path d="M70.113 9.832l-3.445 3.098 2.496-.688 1.363 2.207" fill="rgb(0%,0%,0%)"/><path d="M73.844 170.434L136.05 12.242" fill="none" stroke-width="0.79701" stroke="rgb(0%,0%,0%)" stroke-miterlimit="10"/><path d="M136.996 9.832l-3.445 3.098 2.5-.688 1.36 2.207" fill="rgb(0%,0%,0%)"/><path d="M9.395 135.387l56.097 35.664" fill="none" stroke-width="0.79701" stroke="rgb(0%,0%,0%)" stroke-miterlimit="10"/><path d="M67.68 172.441l-2.387-3.972.2 2.582-2.423.914" fill="rgb(0%,0%,0%)"/><path d="M76.277 135.387l56.098 35.664" fill="none" stroke-width="0.79701" stroke="rgb(0%,0%,0%)" stroke-miterlimit="10"/><path d="M134.563 172.441l-2.387-3.972.199 2.582-2.422.914" fill="rgb(0%,0%,0%)"/><path d="M10.191 132.652h54.102" fill="none" stroke-width="0.79701" stroke="rgb(0%,0%,0%)" stroke-miterlimit="10"/><path d="M66.883 132.652l-4.145-2.07 1.555 2.07-1.555 2.075" fill="rgb(0%,0%,0%)"/><path d="M77.074 132.652h54.102" fill="none" stroke-width="0.79701" stroke="rgb(0%,0%,0%)" stroke-miterlimit="10"/><path d="M133.766 132.652l-4.145-2.07 1.555 2.07-1.555 2.075" fill="rgb(0%,0%,0%)"/><path d="M9.395 129.918l56.097-35.664" fill="none" stroke-width="0.79701" stroke="rgb(0%,0%,0%)" stroke-miterlimit="10"/><path d="M67.68 92.867l-4.61.473 2.422.914-.199 2.582" fill="rgb(0%,0%,0%)"/><path d="M76.277 129.918l56.098-35.664" fill="none" stroke-width="0.79701" stroke="rgb(0%,0%,0%)" stroke-miterlimit="10"/><path d="M134.563 92.867l-4.61.473 2.422.914-.2 2.582" fill="rgb(0%,0%,0%)"/><path d="M8.246 128.648l58.98-74.996" fill="none" stroke-width="0.79701" stroke="rgb(0%,0%,0%)" stroke-miterlimit="10"/><path d="M68.828 51.617l-4.191 1.977 2.59.058.668 2.504" fill="rgb(0%,0%,0%)"/><path d="M75.129 128.648l58.98-74.996" fill="none" stroke-width="0.79701" stroke="rgb(0%,0%,0%)" stroke-miterlimit="10"/><path d="M135.71 51.617l-4.19 1.977 2.59.058.667 2.504" fill="rgb(0%,0%,0%)"/><path d="M7.46 128.14L68.41 11.899" fill="none" stroke-width="0.79701" stroke="rgb(0%,0%,0%)" stroke-miterlimit="10"/><path d="M69.613 9.605l-3.761 2.707 2.558-.414 1.113 2.336" fill="rgb(0%,0%,0%)"/><path d="M74.344 128.14l60.949-116.242" fill="none" stroke-width="0.79701" stroke="rgb(0%,0%,0%)" stroke-miterlimit="10"/><path d="M136.496 9.605l-3.762 2.707 2.559-.414 1.113 2.336" fill="rgb(0%,0%,0%)"/><path d="M8.246 94.137l58.98 74.996" fill="none" stroke-width="0.79701" stroke="rgb(0%,0%,0%)" stroke-miterlimit="10"/><path d="M68.828 171.168l-.933-4.54-.668 2.505-2.59.058" fill="rgb(0%,0%,0%)"/><path d="M75.129 94.137l58.98 74.996" fill="none" stroke-width="0.79701" stroke="rgb(0%,0%,0%)" stroke-miterlimit="10"/><path d="M135.71 171.168l-.933-4.54-.668 2.505-2.59.058" fill="rgb(0%,0%,0%)"/><path d="M9.395 92.867l56.097 35.664" fill="none" stroke-width="0.79701" stroke="rgb(0%,0%,0%)" stroke-miterlimit="10"/><path d="M67.68 129.918l-2.387-3.969.2 2.582-2.423.914" fill="rgb(0%,0%,0%)"/><path d="M76.277 92.867l56.098 35.664" fill="none" stroke-width="0.79701" stroke="rgb(0%,0%,0%)" stroke-miterlimit="10"/><path d="M134.563 129.918l-2.387-3.969.199 2.582-2.422.914" fill="rgb(0%,0%,0%)"/><path d="M10.191 90.133h54.102" fill="none" stroke-width="0.79701" stroke="rgb(0%,0%,0%)" stroke-miterlimit="10"/><path d="M66.883 90.133l-4.145-2.074 1.555 2.074-1.555 2.07" fill="rgb(0%,0%,0%)"/><path d="M77.074 90.133h54.102" fill="none" stroke-width="0.79701" stroke="rgb(0%,0%,0%)" stroke-miterlimit="10"/><path d="M133.766 90.133l-4.145-2.074 1.555 2.074-1.555 2.07" fill="rgb(0%,0%,0%)"/><path d="M9.395 87.398l56.097-35.664" fill="none" stroke-width="0.79701" stroke="rgb(0%,0%,0%)" stroke-miterlimit="10"/><path d="M67.68 50.344l-4.61.476 2.422.914-.199 2.582" fill="rgb(0%,0%,0%)"/><path d="M76.277 87.398l56.098-35.664" fill="none" stroke-width="0.79701" stroke="rgb(0%,0%,0%)" stroke-miterlimit="10"/><path d="M134.563 50.344l-4.61.476 2.422.914-.2 2.582" fill="rgb(0%,0%,0%)"/><path d="M8.246 86.129l58.98-74.996" fill="none" stroke-width="0.79701" stroke="rgb(0%,0%,0%)" stroke-miterlimit="10"/><path d="M68.828 9.098l-4.191 1.976 2.59.059.668 2.5" fill="rgb(0%,0%,0%)"/><path d="M75.129 86.129l58.98-74.996" fill="none" stroke-width="0.79701" stroke="rgb(0%,0%,0%)" stroke-miterlimit="10"/><path d="M135.71 9.098l-4.19 1.976 2.59.059.667 2.5" fill="rgb(0%,0%,0%)"/><path d="M7.46 52.125l60.95 116.242" fill="none" stroke-width="0.79701" stroke="rgb(0%,0%,0%)" stroke-miterlimit="10"/><path d="M69.613 170.66l-.09-4.633-1.113 2.34-2.558-.414" fill="rgb(0%,0%,0%)"/><path d="M74.344 52.125l60.949 116.242" fill="none" stroke-width="0.79701" stroke="rgb(0%,0%,0%)" stroke-miterlimit="10"/><path d="M136.496 170.66l-.09-4.633-1.113 2.34-2.559-.414" fill="rgb(0%,0%,0%)"/><path d="M8.246 51.617l58.98 74.996" fill="none" stroke-width="0.79701" stroke="rgb(0%,0%,0%)" stroke-miterlimit="10"/><path d="M68.828 128.648l-.933-4.539-.668 2.504-2.59.059" fill="rgb(0%,0%,0%)"/><path d="M75.129 51.617l58.98 74.996" fill="none" stroke-width="0.79701" stroke="rgb(0%,0%,0%)" stroke-miterlimit="10"/><path d="M135.71 128.648l-.933-4.539-.668 2.504-2.59.059" fill="rgb(0%,0%,0%)"/><path d="M9.395 50.344l56.097 35.664" fill="none" stroke-width="0.79701" stroke="rgb(0%,0%,0%)" stroke-miterlimit="10"/><path d="M67.68 87.398l-2.387-3.972.2 2.582-2.423.918" fill="rgb(0%,0%,0%)"/><path d="M76.277 50.344l56.098 35.664" fill="none" stroke-width="0.79701" stroke="rgb(0%,0%,0%)" stroke-miterlimit="10"/><path d="M134.563 87.398l-2.387-3.972.199 2.582-2.422.918" fill="rgb(0%,0%,0%)"/><path d="M10.191 47.613h54.102" fill="none" stroke-width="0.79701" stroke="rgb(0%,0%,0%)" stroke-miterlimit="10"/><path d="M66.883 47.613l-4.145-2.074 1.555 2.074-1.555 2.07" fill="rgb(0%,0%,0%)"/><path d="M77.074 47.613h54.102" fill="none" stroke-width="0.79701" stroke="rgb(0%,0%,0%)" stroke-miterlimit="10"/><path d="M133.766 47.613l-4.145-2.074 1.555 2.074-1.555 2.07" fill="rgb(0%,0%,0%)"/><path d="M9.395 44.879L65.492 9.215" fill="none" stroke-width="0.79701" stroke="rgb(0%,0%,0%)" stroke-miterlimit="10"/><path d="M67.68 7.824l-4.61.477 2.422.914-.199 2.582" fill="rgb(0%,0%,0%)"/><path d="M76.277 44.879l56.098-35.664" fill="none" stroke-width="0.79701" stroke="rgb(0%,0%,0%)" stroke-miterlimit="10"/><path d="M134.563 7.824l-4.61.477 2.422.914-.2 2.582" fill="rgb(0%,0%,0%)"/><path d="M6.96 9.832L69.169 168.02" fill="none" stroke-width="0.79701" stroke="rgb(0%,0%,0%)" stroke-miterlimit="10"/><path d="M70.113 170.434l.414-4.618-1.363 2.204-2.496-.688" fill="rgb(0%,0%,0%)"/><path d="M73.844 9.832L136.05 168.02" fill="none" stroke-width="0.79701" stroke="rgb(0%,0%,0%)" stroke-miterlimit="10"/><path d="M136.996 170.434l.414-4.618-1.36 2.204-2.5-.688" fill="rgb(0%,0%,0%)"/><path d="M7.46 9.605l60.95 116.243" fill="none" stroke-width="0.79701" stroke="rgb(0%,0%,0%)" stroke-miterlimit="10"/><path d="M69.613 128.14l-.09-4.632-1.113 2.34-2.558-.414" fill="rgb(0%,0%,0%)"/><path d="M74.344 9.605l60.949 116.243" fill="none" stroke-width="0.79701" stroke="rgb(0%,0%,0%)" stroke-miterlimit="10"/><path d="M136.496 128.14l-.09-4.632-1.113 2.34-2.559-.414" fill="rgb(0%,0%,0%)"/><path d="M8.246 9.098l58.98 74.996" fill="none" stroke-width="0.79701" stroke="rgb(0%,0%,0%)" stroke-miterlimit="10"/><path d="M68.828 86.129l-.933-4.54-.668 2.505-2.59.058" fill="rgb(0%,0%,0%)"/><path d="M75.129 9.098l58.98 74.996" fill="none" stroke-width="0.79701" stroke="rgb(0%,0%,0%)" stroke-miterlimit="10"/><path d="M135.71 86.129l-.933-4.54-.668 2.505-2.59.058" fill="rgb(0%,0%,0%)"/><path d="M9.395 7.824l56.097 35.664" fill="none" stroke-width="0.79701" stroke="rgb(0%,0%,0%)" stroke-miterlimit="10"/><path d="M67.68 44.879l-2.387-3.973.2 2.582-2.423.914" fill="rgb(0%,0%,0%)"/><path d="M76.277 7.824l56.098 35.664" fill="none" stroke-width="0.79701" stroke="rgb(0%,0%,0%)" stroke-miterlimit="10"/><path d="M134.563 44.879l-2.387-3.973.199 2.582-2.422.914" fill="rgb(0%,0%,0%)"/><path d="M10.191 5.094h54.102" fill="none" stroke-width="0.79701" stroke="rgb(0%,0%,0%)" stroke-miterlimit="10"/><path d="M66.883 5.094L62.738 3.02l1.555 2.074-1.555 2.07" fill="rgb(0%,0%,0%)"/><path d="M77.074 5.094h54.102" fill="none" stroke-width="0.79701" stroke="rgb(0%,0%,0%)" stroke-miterlimit="10"/><path d="M133.766 5.094L129.62 3.02l1.555 2.074-1.555 2.07" fill="rgb(0%,0%,0%)"/><path d="M143.16 172.441l56.098-35.668" fill="none" stroke-width="0.79701" stroke="rgb(0%,0%,0%)" stroke-miterlimit="10"/><path d="M201.445 135.387l-4.61.472 2.423.914-.2 2.586" fill="rgb(0%,0%,0%)"/><path d="M141.227 170.66l60.949-116.242" fill="none" stroke-width="0.79701" stroke="rgb(0%,0%,0%)" stroke-miterlimit="10"/><path d="M203.379 52.125l-3.758 2.707 2.555-.414 1.113 2.34" fill="rgb(0%,0%,0%)"/><path d="M143.957 132.652h54.102" fill="none" stroke-width="0.79701" stroke="rgb(0%,0%,0%)" stroke-miterlimit="10"/><path d="M200.648 132.652l-4.144-2.07 1.555 2.07-1.555 2.075" fill="rgb(0%,0%,0%)"/><path d="M142.012 128.648l58.984-74.996" fill="none" stroke-width="0.79701" stroke="rgb(0%,0%,0%)" stroke-miterlimit="10"/><path d="M202.594 51.617l-4.188 1.977 2.586.058.672 2.504" fill="rgb(0%,0%,0%)"/><path d="M143.16 92.867l56.098 35.664" fill="none" stroke-width="0.79701" stroke="rgb(0%,0%,0%)" stroke-miterlimit="10"/><path d="M201.445 129.918l-2.386-3.969.199 2.582-2.422.914" fill="rgb(0%,0%,0%)"/><path d="M143.16 87.398l56.098-35.664" fill="none" stroke-width="0.79701" stroke="rgb(0%,0%,0%)" stroke-miterlimit="10"/><path d="M201.445 50.344l-4.61.476 2.423.914-.2 2.582" fill="rgb(0%,0%,0%)"/><path d="M142.012 51.617l58.984 74.996" fill="none" stroke-width="0.79701" stroke="rgb(0%,0%,0%)" stroke-miterlimit="10"/><path d="M202.594 128.648l-.93-4.539-.672 2.504-2.586.059" fill="rgb(0%,0%,0%)"/><path d="M143.957 47.613h54.102" fill="none" stroke-width="0.79701" stroke="rgb(0%,0%,0%)" stroke-miterlimit="10"/><path d="M200.648 47.613l-4.144-2.074 1.555 2.074-1.555 2.07" fill="rgb(0%,0%,0%)"/><path d="M141.227 9.605l60.949 116.243" fill="none" stroke-width="0.79701" stroke="rgb(0%,0%,0%)" stroke-miterlimit="10"/><path d="M203.379 128.14l-.09-4.632-1.113 2.34-2.555-.414" fill="rgb(0%,0%,0%)"/><path d="M143.16 7.824l56.098 35.664" fill="none" stroke-width="0.79701" stroke="rgb(0%,0%,0%)" stroke-miterlimit="10"/><path d="M201.445 44.879l-2.386-3.973.199 2.582-2.422.914" fill="rgb(0%,0%,0%)"/><path d="M217.695 90.133h54.106" fill="none" stroke-width="0.79701" stroke="rgb(0%,0%,0%)" stroke-miterlimit="10"/><path d="M274.39 90.133l-4.144-2.074 1.555 2.074-1.555 2.07" fill="rgb(0%,0%,0%)"/><g fill="rgb(0%,0%,0%)"><use xlink:href="#d" x="217.862" y="83.625"/><use xlink:href="#e" x="226.828" y="83.625"/><use xlink:href="#f" x="233.42" y="83.625"/><use xlink:href="#g" x="241.49" y="83.625"/></g><g fill="rgb(0%,0%,0%)"><use xlink:href="#f" x="250.901" y="83.625"/><use xlink:href="#h" x="258.971" y="83.625"/><use xlink:href="#i" x="267.937" y="83.625"/></g><g clip-path="url(#j)"><path d="M303.188 175.172a4.695 4.695 0 0 0-4.696-4.695 4.695 4.695 0 0 0-4.695 4.695 4.695 4.695 0 0 0 4.695 4.695 4.695 4.695 0 0 0 4.695-4.695zm0 0" fill="none" stroke-width="0.79701" stroke="rgb(0%,0%,0%)" stroke-miterlimit="10"/></g><path d="M303.188 132.652a4.695 4.695 0 0 0-4.696-4.695 4.695 4.695 0 0 0-4.695 4.695 4.695 4.695 0 0 0 4.695 4.696 4.695 4.695 0 0 0 4.695-4.696zm-596.186 170.082C5.096 45.017 2.994 42.915.4 42.915a4.695 4.695 0 0 0-4.696 4.696A4.695 4.695 0 0 0 .4 52.307a4.695 4.695 0 0 0 4.695-4.695zm0 85.038c0-45.113-2.101-47.218-4.695-47.218a4.698 4.698 0 0 0 0 9.394 4.695 4.695 0 0 0 4.696-4.695zm-596.184 255.12C-591.09 2.498-593.192.392-595.785.392a4.698 4.698 0 0 0 0 9.395 4.695 4.695 0 0 0 4.695-4.695zM-591.09 5.092" fill="none" stroke-width="0.79701" stroke="rgb(0%,0%,0%)" stroke-miterlimit="10"/><use xlink:href="#k" x="290.454" y="180.339" fill="rgb(100%,0%,0%)"/><use xlink:href="#k" x="290.454" y="95.299" fill="rgb(100%,0%,0%)"/><g clip-path="url(#l)"><path d="M370.074 175.172a4.698 4.698 0 0 0-9.394 0 4.698 4.698 0 0 0 9.395 0zm0 0" fill="none" stroke-width="0.79701" stroke="rgb(0%,0%,0%)" stroke-miterlimit="10"/></g><path d="M370.074 132.652a4.698 4.698 0 0 0-9.394 0 4.698 4.698 0 0 0 9.395 0zm-729.958 170.082C5.095 45.017 2.99 42.915.396 42.915A4.695 4.695 0 0 0-4.3 47.612a4.698 4.698 0 0 0 9.395 0zm0 85.038c0-45.113-2.106-47.218-4.7-47.218a4.698 4.698 0 1 0 4.7 4.699zm-729.96 255.12C-724.863 2.498-726.968.392-729.562.392a4.698 4.698 0 1 0 4.7 4.7zm364.98-127.56" fill="none" stroke-width="0.79701" stroke="rgb(0%,0%,0%)" stroke-miterlimit="10"/><use xlink:href="#k" x="357.336" y="180.339" fill="rgb(100%,0%,0%)"/><use xlink:href="#k" x="357.336" y="95.299" fill="rgb(100%,0%,0%)"/><use xlink:href="#k" x="357.336" y="52.78" fill="rgb(100%,0%,0%)"/><g clip-path="url(#m)"><path d="M436.957 175.172a4.698 4.698 0 0 0-9.394 0 4.698 4.698 0 0 0 9.395 0zm0 0" fill="none" stroke-width="0.79701" stroke="rgb(0%,0%,0%)" stroke-miterlimit="10"/></g><path d="M436.957 132.652a4.698 4.698 0 0 0-9.394 0 4.698 4.698 0 0 0 9.395 0zm-863.724 170.082C5.095 45.017 2.99 42.915.396 42.915A4.695 4.695 0 0 0-4.3 47.612a4.698 4.698 0 0 0 9.395 0zm0 85.038c0-45.113-2.106-47.218-4.7-47.218a4.698 4.698 0 1 0 4.7 4.699zm-863.724 255.12C-858.63 2.498-860.735.392-863.328.392a4.698 4.698 0 1 0 4.699 4.7zM-858.63 5.092" fill="none" stroke-width="0.79701" stroke="rgb(0%,0%,0%)" stroke-miterlimit="10"/><use xlink:href="#k" x="424.218" y="137.819" fill="rgb(100%,0%,0%)"/><use xlink:href="#k" x="424.218" y="52.78" fill="rgb(100%,0%,0%)"/><g clip-path="url(#n)"><path d="M503.84 132.652a4.698 4.698 0 0 0-9.395 0 4.698 4.698 0 0 0 9.395 0zm0 0" fill="none" stroke-width="0.79701" stroke="rgb(0%,0%,0%)" stroke-miterlimit="10"/></g><g clip-path="url(#o)"><path d="M503.84 47.613a4.698 4.698 0 1 0-9.396-.002 4.698 4.698 0 0 0 9.396.002zm0 0" fill="none" stroke-width="0.79701" stroke="rgb(0%,0%,0%)" stroke-miterlimit="10"/></g><path d="M303.586 132.652h54.105" fill="none" stroke-width="0.79701" stroke="rgb(0%,0%,0%)" stroke-miterlimit="10"/><path d="M360.281 132.652l-4.144-2.07 1.554 2.07-1.554 2.075" fill="rgb(0%,0%,0%)"/><path d="M300.86 128.14l60.949-116.242" fill="none" stroke-width="0.79701" stroke="rgb(0%,0%,0%)" stroke-miterlimit="10"/><path d="M363.012 9.605l-3.762 2.707 2.559-.414 1.113 2.336" fill="rgb(0%,0%,0%)"/><path d="M301.64 51.617l58.985 74.996" fill="none" stroke-width="0.79701" stroke="rgb(0%,0%,0%)" stroke-miterlimit="10"/><path d="M362.227 128.648l-.934-4.539-.668 2.504-2.59.059" fill="rgb(0%,0%,0%)"/><path d="M302.793 44.879l56.098-35.664" fill="none" stroke-width="0.79701" stroke="rgb(0%,0%,0%)" stroke-miterlimit="10"/><path d="M361.078 7.824l-4.61.477 2.423.914-.2 2.582" fill="rgb(0%,0%,0%)"/><path d="M300.86 9.605l60.949 116.243" fill="none" stroke-width="0.79701" stroke="rgb(0%,0%,0%)" stroke-miterlimit="10"/><path d="M363.012 128.14l-.09-4.632-1.113 2.34-2.559-.414" fill="rgb(0%,0%,0%)"/><path d="M303.586 5.094h54.105" fill="none" stroke-width="0.79701" stroke="rgb(0%,0%,0%)" stroke-miterlimit="10"/><path d="M360.281 5.094l-4.144-2.074 1.554 2.074-1.554 2.07" fill="rgb(0%,0%,0%)"/><path d="M369.676 135.387l56.097 35.664" fill="none" stroke-width="0.79701" stroke="rgb(0%,0%,0%)" stroke-miterlimit="10"/><path d="M427.96 172.441l-2.386-3.972.2 2.582-2.422.914" fill="rgb(0%,0%,0%)"/><path d="M369.676 129.918l56.097-35.664" fill="none" stroke-width="0.79701" stroke="rgb(0%,0%,0%)" stroke-miterlimit="10"/><path d="M427.96 92.867l-4.608.473 2.421.914-.199 2.582" fill="rgb(0%,0%,0%)"/><path d="M367.742 128.14l60.95-116.242" fill="none" stroke-width="0.79701" stroke="rgb(0%,0%,0%)" stroke-miterlimit="10"/><path d="M429.895 9.605l-3.762 2.707 2.558-.414 1.114 2.336" fill="rgb(0%,0%,0%)"/><path d="M367.242 9.832l62.203 158.188" fill="none" stroke-width="0.79701" stroke="rgb(0%,0%,0%)" stroke-miterlimit="10"/><path d="M430.395 170.434l.414-4.618-1.364 2.204-2.496-.688" fill="rgb(0%,0%,0%)"/><path d="M368.527 9.098l58.98 74.996" fill="none" stroke-width="0.79701" stroke="rgb(0%,0%,0%)" stroke-miterlimit="10"/><path d="M429.11 86.129l-.934-4.54-.668 2.505-2.59.058" fill="rgb(0%,0%,0%)"/><path d="M370.473 5.094h54.101" fill="none" stroke-width="0.79701" stroke="rgb(0%,0%,0%)" stroke-miterlimit="10"/><path d="M427.164 5.094L423.02 3.02l1.554 2.074-1.554 2.07" fill="rgb(0%,0%,0%)"/><path d="M436.559 172.441l56.097-35.668" fill="none" stroke-width="0.79701" stroke="rgb(0%,0%,0%)" stroke-miterlimit="10"/><path d="M494.844 135.387l-4.61.472 2.422.914-.199 2.586" fill="rgb(0%,0%,0%)"/><g clip-path="url(#p)"><path d="M434.625 170.66l60.95-116.242" fill="none" stroke-width="0.79701" stroke="rgb(0%,0%,0%)" stroke-miterlimit="10"/></g><path d="M496.777 52.125l-3.761 2.707 2.558-.414 1.113 2.34" fill="rgb(0%,0%,0%)"/><path d="M436.559 92.867l56.097 35.664" fill="none" stroke-width="0.79701" stroke="rgb(0%,0%,0%)" stroke-miterlimit="10"/><path d="M494.844 129.918l-2.387-3.969.2 2.582-2.423.914" fill="rgb(0%,0%,0%)"/><path d="M436.559 87.398l56.097-35.664" fill="none" stroke-width="0.79701" stroke="rgb(0%,0%,0%)" stroke-miterlimit="10"/><path d="M494.844 50.344l-4.61.476 2.422.914-.199 2.582" fill="rgb(0%,0%,0%)"/><g clip-path="url(#q)"><path d="M434.625 9.605l60.95 116.243" fill="none" stroke-width="0.79701" stroke="rgb(0%,0%,0%)" stroke-miterlimit="10"/></g><path d="M496.777 128.14l-.09-4.632-1.113 2.34-2.558-.414" fill="rgb(0%,0%,0%)"/><path d="M436.559 7.824l56.097 35.664" fill="none" stroke-width="0.79701" stroke="rgb(0%,0%,0%)" stroke-miterlimit="10"/><path d="M494.844 44.879l-2.387-3.973.2 2.582-2.423.914" fill="rgb(0%,0%,0%)"/></svg>