<svg height="247.175" viewBox="0 0 504.231 185.381" width="672.308" xmlns="http://www.w3.org/2000/svg" xmlns:xlink="http://www.w3.org/1999/xlink"><clipPath id="a"><path d="m0 159h22v26.383h-22zm0 0"/></clipPath><clipPath id="b"><path d="m56 159h32v26.383h-32zm0 0"/></clipPath><clipPath id="c"><path d="m122 159h33v26.383h-33zm0 0"/></clipPath><clipPath id="d"><path d="m282 159h33v26.383h-33zm0 0"/></clipPath><clipPath id="e"><path d="m349 159h33v26.383h-33zm0 0"/></clipPath><clipPath id="f"><path d="m416 159h33v26.383h-33zm0 0"/></clipPath><clipPath id="g"><path d="m483 116h21.23v33h-21.23zm0 0"/></clipPath><clipPath id="h"><path d="m483 31h21.23v33h-21.23zm0 0"/></clipPath><clipPath id="i"><path d="m423 43h81.23v139h-81.23zm0 0"/></clipPath><clipPath id="j"><path d="m423 0h81.23v138h-81.23zm0 0"/></clipPath><symbol id="k" overflow="visible"><path d="m4.984-9.844v.625c.875 0 .985 0 .985.563v2.89a2.95 2.95 0 0 0 -1.938-.687c-2.031 0-3.484 1.266-3.484 3.266 0 2.046 1.422 3.28 3.328 3.28.781 0 1.453-.28 2.016-.75v.75l2.562-.093v-.61c-.89 0-1 0-1-.562v-8.781zm.907 8.39c-.594.877-1.329 1.064-1.844 1.064-1.781 0-1.781-1.812-1.781-2.765 0-.672 0-1.39.312-1.938.453-.797 1.297-.89 1.625-.89.594 0 1.219.265 1.688.89zm0 0"/></symbol><symbol id="l" overflow="visible"><path d="m2.984-3.234c0-.47.094-2.75 1.782-2.75a.83.83 0 0 0 -.313.656c0 .594.484.844.844.844s.828-.25.828-.844c0-.719-.75-1.125-1.438-1.125-1.125 0-1.625.984-1.812 1.594h-.016v-1.594l-2.359.11v.624c.89 0 .984 0 .984.563v4.546h-.984v.61c.328-.031 1.406-.031 1.813-.031.406 0 1.578 0 1.921.031v-.61h-1.25zm0 0"/></symbol><symbol id="m" overflow="visible"><path d="m7.61-3.14c0-1.939-1.33-3.36-3.58-3.36-2.342 0-3.592 1.5-3.592 3.36 0 1.873 1.328 3.233 3.577 3.233 2.343 0 3.593-1.422 3.593-3.235zm-3.58 2.702c-1.86 0-1.86-1.672-1.86-2.844 0-.672 0-1.39.267-1.906.312-.579.968-.844 1.578-.844.812 0 1.328.39 1.578.797.281.515.281 1.265.281 1.953 0 1.187 0 2.844-1.844 2.844zm0 0"/></symbol><symbol id="n" overflow="visible"><path d="m4.047 2.172h-.984v-2.766c.343.328.984.688 1.843.688 1.969 0 3.5-1.203 3.5-3.297 0-1.969-1.328-3.25-3.265-3.25-.86 0-1.579.281-2.157.75v-.75l-2.484.11v.624c.89 0 .984 0 .984.563v7.328h-.984v.61c.328-.032 1.36-.032 1.766-.032s1.453 0 1.78.031zm-.984-7.188a2.328 2.328 0 0 1 1.843-.921c.938 0 1.782.843 1.782 2.734 0 2.078-1.032 2.812-1.954 2.812-.625 0-1.234-.312-1.671-.984zm0 0"/></symbol><symbol id="o" overflow="visible"><path d="m5.063-6.344v.625c.89 0 .984 0 .984.563v2.797c0 1.093-.64 1.968-1.766 1.968-1.062 0-1.125-.359-1.125-1.14v-4.922l-2.547.11v.624c.875 0 .985 0 .985.563v3.39c0 1.438.953 1.86 2.5 1.86.343 0 1.406 0 2.015-1.172h.016v1.172l2.484-.094v-.61c-.89 0-1 0-1-.562v-5.281zm0 0"/></symbol><symbol id="p" overflow="visible"><path d="m3.031-5.75h2.063v-.625h-2.064v-2.734h-.61c-.013 1.421-.7 2.843-2.122 2.889v.469h1.172v3.984c-.001 1.517 1.17 1.861 2.202 1.861 1.062 0 1.687-.813 1.687-1.875v-.75h-.593v.734c0 .953-.438 1.36-.875 1.36-.86 0-.86-.954-.86-1.282zm0 0"/></symbol><symbol id="q" overflow="visible"><path d="m8.031-5.75-4.125-4.11c-.25-.234-.297-.28-.453-.28-.203 0-.422.187-.422.406 0 .156.047.187.281.421l4.126 4.141-4.125 4.156c-.235.235-.282.266-.282.422 0 .219.219.406.422.406.156 0 .203-.046.453-.28l4.11-4.11 4.28 4.266c.032.015.173.124.298.124.25 0 .422-.187.422-.406 0-.047 0-.125-.063-.234-.015-.047-3.312-3.281-4.344-4.344l3.782-3.766c.109-.124.421-.406.515-.515.031-.047.11-.125.11-.281a.407.407 0 0 0 -.422-.407c-.156 0-.235.079-.469.313zm0 0"/></symbol><g clip-path="url(#a)"><path d="m4.698 42.521a4.698 4.698 0 0 1 -9.395 0 4.698 4.698 0 0 1 9.395 0zm0 0" fill="none" stroke="#000" stroke-miterlimit="10" stroke-width=".79701" transform="matrix(1 0 0 -1 5.095 217.693)"/></g><g clip-path="url(#b)"><path d="m71.58 42.521a4.698 4.698 0 0 1 -9.394 0 4.698 4.698 0 0 1 9.395 0zm0 0" fill="none" stroke="#000" stroke-miterlimit="10" stroke-width=".79701" transform="matrix(1 0 0 -1 5.095 217.693)"/></g><g clip-path="url(#c)"><path d="m138.464 42.521a4.697 4.697 0 0 1 -9.395 0 4.698 4.698 0 0 1 9.395 0zm0 0" fill="none" stroke="#000" stroke-miterlimit="10" stroke-width=".79701" transform="matrix(1 0 0 -1 5.095 217.693)"/></g><path d="m4.698 85.04a4.698 4.698 0 0 1 -9.395 0 4.698 4.698 0 0 1 9.395 0zm66.882 0a4.698 4.698 0 0 1 -9.394 0 4.698 4.698 0 0 1 9.395 0zm66.884 0a4.697 4.697 0 0 1 -9.395 0 4.698 4.698 0 0 1 9.395 0zm-133.766 42.52a4.698 4.698 0 0 1 -9.395 0 4.698 4.698 0 0 1 9.395 0zm66.882 0a4.698 4.698 0 0 1 -9.394 0 4.698 4.698 0 0 1 9.395 0zm66.884 0a4.697 4.697 0 0 1 -9.395 0 4.698 4.698 0 0 1 9.395 0zm-133.766 42.52a4.698 4.698 0 1 1 -9.393.003 4.698 4.698 0 0 1 9.393-.003zm66.882 0a4.7 4.7 0 0 1 -4.698 4.699 4.698 4.698 0 1 1 4.699-4.7zm66.884 0a4.7 4.7 0 0 1 -4.696 4.699 4.698 4.698 0 1 1 4.695-4.7zm-133.766 42.52a4.699 4.699 0 0 1 -4.7 4.698 4.695 4.695 0 0 1 -4.695-4.699 4.698 4.698 0 0 1 9.395 0zm66.882 0a4.698 4.698 0 0 1 -4.698 4.698 4.695 4.695 0 0 1 -4.696-4.699 4.698 4.698 0 0 1 9.395 0zm66.884 0a4.698 4.698 0 1 1 -9.396.002 4.698 4.698 0 0 1 9.396-.003zm66.882-127.56a4.698 4.698 0 0 1 -9.395 0 4.698 4.698 0 0 1 9.395 0zm0 85.04a4.698 4.698 0 1 1 -9.395.002 4.698 4.698 0 0 1 9.395-.002zm-200.25-127.559h54.102" fill="none" stroke="#000" stroke-miterlimit="10" stroke-width=".79701" transform="matrix(1 0 0 -1 5.095 217.693)"/><path d="m66.883 175.172-4.145-2.07 1.555 2.07-1.555 2.074"/><path d="m71.98 42.521h54.1" fill="none" stroke="#000" stroke-miterlimit="10" stroke-width=".79701" transform="matrix(1 0 0 -1 5.095 217.693)"/><path d="m133.766 175.172-4.145-2.07 1.555 2.07-1.555 2.074"/><path d="m4.3 45.252 56.097 35.664" fill="none" stroke="#000" stroke-miterlimit="10" stroke-width=".79701" transform="matrix(1 0 0 -1 5.095 217.693)"/><path d="m67.68 135.387-4.61.472 2.422.918-.199 2.582"/><path d="m71.182 45.252 56.098 35.664" fill="none" stroke="#000" stroke-miterlimit="10" stroke-width=".79701" transform="matrix(1 0 0 -1 5.095 217.693)"/><path d="m134.563 135.387-4.61.472 2.422.918-.2 2.582"/><path d="m3.151 46.525 58.98 74.996" fill="none" stroke="#000" stroke-miterlimit="10" stroke-width=".79701" transform="matrix(1 0 0 -1 5.095 217.693)"/><path d="m68.828 94.137-4.191 1.976 2.59.059.668 2.504"/><path d="m70.034 46.525 58.98 74.996" fill="none" stroke="#000" stroke-miterlimit="10" stroke-width=".79701" transform="matrix(1 0 0 -1 5.095 217.693)"/><path d="m135.71 94.137-4.187 1.976 2.586.059.668 2.504"/><path d="m2.366 47.033 60.95 116.242" fill="none" stroke="#000" stroke-miterlimit="10" stroke-width=".79701" transform="matrix(1 0 0 -1 5.095 217.693)"/><path d="m69.613 52.125-3.761 2.707 2.558-.414 1.113 2.34"/><path d="m69.249 47.033 60.949 116.242" fill="none" stroke="#000" stroke-miterlimit="10" stroke-width=".79701" transform="matrix(1 0 0 -1 5.095 217.693)"/><path d="m136.496 52.125-3.762 2.707 2.559-.414 1.113 2.34"/><path d="m1.866 47.26 62.203 158.19" fill="none" stroke="#000" stroke-miterlimit="10" stroke-width=".79701" transform="matrix(1 0 0 -1 5.095 217.693)"/><path d="m70.113 9.832-3.445 3.098 2.496-.688 1.363 2.207"/><path d="m68.749 47.26 62.207 158.19" fill="none" stroke="#000" stroke-miterlimit="10" stroke-width=".79701" transform="matrix(1 0 0 -1 5.095 217.693)"/><path d="m136.996 9.832-3.445 3.098 2.5-.688 1.36 2.207"/><path d="m4.3 82.306 56.097-35.664" fill="none" stroke="#000" stroke-miterlimit="10" stroke-width=".79701" transform="matrix(1 0 0 -1 5.095 217.693)"/><path d="m67.68 172.441-2.387-3.972.2 2.582-2.423.914"/><path d="m71.182 82.306 56.098-35.664" fill="none" stroke="#000" stroke-miterlimit="10" stroke-width=".79701" transform="matrix(1 0 0 -1 5.095 217.693)"/><path d="m134.563 172.441-2.387-3.972.199 2.582-2.422.914"/><path d="m5.096 85.04h54.102" fill="none" stroke="#000" stroke-miterlimit="10" stroke-width=".79701" transform="matrix(1 0 0 -1 5.095 217.693)"/><path d="m66.883 132.652-4.145-2.07 1.555 2.07-1.555 2.075"/><path d="m71.98 85.04h54.1" fill="none" stroke="#000" stroke-miterlimit="10" stroke-width=".79701" transform="matrix(1 0 0 -1 5.095 217.693)"/><path d="m133.766 132.652-4.145-2.07 1.555 2.07-1.555 2.075"/><path d="m4.3 87.775 56.097 35.664" fill="none" stroke="#000" stroke-miterlimit="10" stroke-width=".79701" transform="matrix(1 0 0 -1 5.095 217.693)"/><path d="m67.68 92.867-4.61.473 2.422.914-.199 2.582"/><path d="m71.182 87.775 56.098 35.664" fill="none" stroke="#000" stroke-miterlimit="10" stroke-width=".79701" transform="matrix(1 0 0 -1 5.095 217.693)"/><path d="m134.563 92.867-4.61.473 2.422.914-.2 2.582"/><path d="m3.151 89.045 58.98 74.996" fill="none" stroke="#000" stroke-miterlimit="10" stroke-width=".79701" transform="matrix(1 0 0 -1 5.095 217.693)"/><path d="m68.828 51.617-4.191 1.977 2.59.058.668 2.504"/><path d="m70.034 89.045 58.98 74.996" fill="none" stroke="#000" stroke-miterlimit="10" stroke-width=".79701" transform="matrix(1 0 0 -1 5.095 217.693)"/><path d="m135.71 51.617-4.187 1.977 2.586.058.668 2.504"/><path d="m2.366 89.552 60.95 116.243" fill="none" stroke="#000" stroke-miterlimit="10" stroke-width=".79701" transform="matrix(1 0 0 -1 5.095 217.693)"/><path d="m69.613 9.605-3.761 2.707 2.558-.414 1.113 2.34"/><path d="m69.249 89.552 60.949 116.243" fill="none" stroke="#000" stroke-miterlimit="10" stroke-width=".79701" transform="matrix(1 0 0 -1 5.095 217.693)"/><path d="m136.496 9.605-3.762 2.707 2.559-.414 1.113 2.34"/><path d="m3.151 123.556 58.98-74.996" fill="none" stroke="#000" stroke-miterlimit="10" stroke-width=".79701" transform="matrix(1 0 0 -1 5.095 217.693)"/><path d="m68.828 171.168-.933-4.54-.668 2.505-2.59.058"/><path d="m70.034 123.556 58.98-74.996" fill="none" stroke="#000" stroke-miterlimit="10" stroke-width=".79701" transform="matrix(1 0 0 -1 5.095 217.693)"/><path d="m135.71 171.168-.933-4.54-.668 2.505-2.586.058"/><path d="m4.3 124.826 56.097-35.664" fill="none" stroke="#000" stroke-miterlimit="10" stroke-width=".79701" transform="matrix(1 0 0 -1 5.095 217.693)"/><path d="m67.68 129.918-2.387-3.969.2 2.582-2.423.914"/><path d="m71.182 124.826 56.098-35.664" fill="none" stroke="#000" stroke-miterlimit="10" stroke-width=".79701" transform="matrix(1 0 0 -1 5.095 217.693)"/><path d="m134.563 129.918-2.387-3.969.199 2.582-2.422.914"/><path d="m5.096 127.56h54.102" fill="none" stroke="#000" stroke-miterlimit="10" stroke-width=".79701" transform="matrix(1 0 0 -1 5.095 217.693)"/><path d="m66.883 90.133-4.145-2.074 1.555 2.074-1.555 2.07"/><path d="m71.98 127.56h54.1" fill="none" stroke="#000" stroke-miterlimit="10" stroke-width=".79701" transform="matrix(1 0 0 -1 5.095 217.693)"/><path d="m133.766 90.133-4.145-2.074 1.555 2.074-1.555 2.07"/><path d="m4.3 130.295 56.097 35.664" fill="none" stroke="#000" stroke-miterlimit="10" stroke-width=".79701" transform="matrix(1 0 0 -1 5.095 217.693)"/><path d="m67.68 50.344-4.61.476 2.422.914-.199 2.582"/><path d="m71.182 130.295 56.098 35.664" fill="none" stroke="#000" stroke-miterlimit="10" stroke-width=".79701" transform="matrix(1 0 0 -1 5.095 217.693)"/><path d="m134.563 50.344-4.61.476 2.422.914-.2 2.582"/><path d="m3.151 131.564 58.98 74.996" fill="none" stroke="#000" stroke-miterlimit="10" stroke-width=".79701" transform="matrix(1 0 0 -1 5.095 217.693)"/><path d="m68.828 9.098-4.191 1.976 2.59.059.668 2.5"/><path d="m70.034 131.564 58.98 74.996" fill="none" stroke="#000" stroke-miterlimit="10" stroke-width=".79701" transform="matrix(1 0 0 -1 5.095 217.693)"/><path d="m135.71 9.098-4.187 1.976 2.586.059.668 2.5"/><path d="m2.366 165.568 60.95-116.242" fill="none" stroke="#000" stroke-miterlimit="10" stroke-width=".79701" transform="matrix(1 0 0 -1 5.095 217.693)"/><path d="m69.613 170.66-.09-4.633-1.113 2.34-2.558-.414"/><path d="m69.249 165.568 60.949-116.242" fill="none" stroke="#000" stroke-miterlimit="10" stroke-width=".79701" transform="matrix(1 0 0 -1 5.095 217.693)"/><path d="m136.496 170.66-.09-4.633-1.113 2.34-2.559-.414"/><path d="m3.151 166.076 58.98-74.996" fill="none" stroke="#000" stroke-miterlimit="10" stroke-width=".79701" transform="matrix(1 0 0 -1 5.095 217.693)"/><path d="m68.828 128.648-.933-4.539-.668 2.504-2.59.059"/><path d="m70.034 166.076 58.98-74.996" fill="none" stroke="#000" stroke-miterlimit="10" stroke-width=".79701" transform="matrix(1 0 0 -1 5.095 217.693)"/><path d="m135.71 128.648-.933-4.539-.668 2.504-2.586.059"/><path d="m4.3 167.35 56.097-35.669" fill="none" stroke="#000" stroke-miterlimit="10" stroke-width=".79701" transform="matrix(1 0 0 -1 5.095 217.693)"/><path d="m67.68 87.398-2.387-3.972.2 2.586-2.423.914"/><path d="m71.182 167.35 56.098-35.669" fill="none" stroke="#000" stroke-miterlimit="10" stroke-width=".79701" transform="matrix(1 0 0 -1 5.095 217.693)"/><path d="m134.563 87.398-2.387-3.972.199 2.586-2.422.914"/><path d="m5.096 170.08h54.102" fill="none" stroke="#000" stroke-miterlimit="10" stroke-width=".79701" transform="matrix(1 0 0 -1 5.095 217.693)"/><path d="m66.883 47.613-4.145-2.074 1.555 2.074-1.555 2.07"/><path d="m71.98 170.08h54.1" fill="none" stroke="#000" stroke-miterlimit="10" stroke-width=".79701" transform="matrix(1 0 0 -1 5.095 217.693)"/><path d="m133.766 47.613-4.145-2.074 1.555 2.074-1.555 2.07"/><path d="m4.3 172.814 56.097 35.664" fill="none" stroke="#000" stroke-miterlimit="10" stroke-width=".79701" transform="matrix(1 0 0 -1 5.095 217.693)"/><path d="m67.68 7.824-4.61.477 2.422.914-.199 2.582"/><path d="m71.182 172.814 56.098 35.664" fill="none" stroke="#000" stroke-miterlimit="10" stroke-width=".79701" transform="matrix(1 0 0 -1 5.095 217.693)"/><path d="m134.563 7.824-4.61.477 2.422.914-.2 2.582"/><path d="m1.866 207.861 62.203-158.188" fill="none" stroke="#000" stroke-miterlimit="10" stroke-width=".79701" transform="matrix(1 0 0 -1 5.095 217.693)"/><path d="m70.113 170.434.414-4.618-1.363 2.204-2.496-.688"/><path d="m68.749 207.861 62.207-158.188" fill="none" stroke="#000" stroke-miterlimit="10" stroke-width=".79701" transform="matrix(1 0 0 -1 5.095 217.693)"/><path d="m136.996 170.434.414-4.618-1.36 2.204-2.5-.688"/><path d="m2.366 208.088 60.95-116.243" fill="none" stroke="#000" stroke-miterlimit="10" stroke-width=".79701" transform="matrix(1 0 0 -1 5.095 217.693)"/><path d="m69.613 128.14-.09-4.632-1.113 2.34-2.558-.414"/><path d="m69.249 208.088 60.949-116.243" fill="none" stroke="#000" stroke-miterlimit="10" stroke-width=".79701" transform="matrix(1 0 0 -1 5.095 217.693)"/><path d="m136.496 128.14-.09-4.632-1.113 2.34-2.559-.414"/><path d="m3.151 208.595 58.98-74.996" fill="none" stroke="#000" stroke-miterlimit="10" stroke-width=".79701" transform="matrix(1 0 0 -1 5.095 217.693)"/><path d="m68.828 86.129-.933-4.54-.668 2.505-2.59.058"/><path d="m70.034 208.595 58.98-74.996" fill="none" stroke="#000" stroke-miterlimit="10" stroke-width=".79701" transform="matrix(1 0 0 -1 5.095 217.693)"/><path d="m135.71 86.129-.933-4.54-.668 2.505-2.586.058"/><path d="m4.3 209.869 56.097-35.664" fill="none" stroke="#000" stroke-miterlimit="10" stroke-width=".79701" transform="matrix(1 0 0 -1 5.095 217.693)"/><path d="m67.68 44.879-2.387-3.973.2 2.582-2.423.914"/><path d="m71.182 209.869 56.098-35.664" fill="none" stroke="#000" stroke-miterlimit="10" stroke-width=".79701" transform="matrix(1 0 0 -1 5.095 217.693)"/><path d="m134.563 44.879-2.387-3.973.199 2.582-2.422.914"/><path d="m5.096 212.6h54.102" fill="none" stroke="#000" stroke-miterlimit="10" stroke-width=".79701" transform="matrix(1 0 0 -1 5.095 217.693)"/><path d="m66.883 5.094-4.145-2.074 1.555 2.074-1.555 2.07"/><path d="m71.98 212.6h54.1" fill="none" stroke="#000" stroke-miterlimit="10" stroke-width=".79701" transform="matrix(1 0 0 -1 5.095 217.693)"/><path d="m133.766 5.094-4.146-2.074 1.555 2.074-1.555 2.07"/><path d="m138.065 45.252 56.102 35.664" fill="none" stroke="#000" stroke-miterlimit="10" stroke-width=".79701" transform="matrix(1 0 0 -1 5.095 217.693)"/><path d="m201.445 135.387-4.61.472 2.427.918-.203 2.582"/><path d="m136.132 47.033 60.949 116.242" fill="none" stroke="#000" stroke-miterlimit="10" stroke-width=".79701" transform="matrix(1 0 0 -1 5.095 217.693)"/><path d="m203.379 52.125-3.758 2.707 2.555-.414 1.113 2.34"/><path d="m138.862 85.04h54.102" fill="none" stroke="#000" stroke-miterlimit="10" stroke-width=".79701" transform="matrix(1 0 0 -1 5.095 217.693)"/><path d="m200.648 132.652-4.144-2.07 1.555 2.07-1.555 2.075"/><path d="m136.917 89.045 58.98 74.996" fill="none" stroke="#000" stroke-miterlimit="10" stroke-width=".79701" transform="matrix(1 0 0 -1 5.095 217.693)"/><path d="m202.594 51.617-4.188 1.977 2.586.058.668 2.504"/><path d="m138.065 124.826 56.102-35.664" fill="none" stroke="#000" stroke-miterlimit="10" stroke-width=".79701" transform="matrix(1 0 0 -1 5.095 217.693)"/><path d="m201.445 129.918-2.386-3.969.203 2.582-2.426.914"/><path d="m138.065 130.295 56.102 35.664" fill="none" stroke="#000" stroke-miterlimit="10" stroke-width=".79701" transform="matrix(1 0 0 -1 5.095 217.693)"/><path d="m201.445 50.344-4.61.476 2.427.914-.203 2.582"/><path d="m136.917 166.076 58.98-74.996" fill="none" stroke="#000" stroke-miterlimit="10" stroke-width=".79701" transform="matrix(1 0 0 -1 5.095 217.693)"/><path d="m202.594 128.648-.934-4.539-.668 2.504-2.586.059"/><path d="m138.862 170.08h54.102" fill="none" stroke="#000" stroke-miterlimit="10" stroke-width=".79701" transform="matrix(1 0 0 -1 5.095 217.693)"/><path d="m200.648 47.613-4.144-2.074 1.555 2.074-1.555 2.07"/><path d="m136.132 208.088 60.948-116.243" fill="none" stroke="#000" stroke-miterlimit="10" stroke-width=".79701" transform="matrix(1 0 0 -1 5.095 217.693)"/><path d="m203.379 128.14-.09-4.632-1.113 2.34-2.555-.414"/><path d="m138.065 209.869 56.102-35.664" fill="none" stroke="#000" stroke-miterlimit="10" stroke-width=".79701" transform="matrix(1 0 0 -1 5.095 217.693)"/><path d="m201.445 44.879-2.386-3.973.203 2.582-2.426.914"/><path d="m212.6 127.56h54.106" fill="none" stroke="#000" stroke-miterlimit="10" stroke-width=".79701" transform="matrix(1 0 0 -1 5.095 217.693)"/><path d="m274.39 90.133-4.144-2.074 1.555 2.074-1.555 2.07"/><g><use x="217.862" xlink:href="#k" y="83.625"/><use x="226.828" xlink:href="#l" y="83.625"/><use x="233.42" xlink:href="#m" y="83.625"/><use x="241.49" xlink:href="#n" y="83.625"/></g><g><use x="250.901" xlink:href="#m" y="83.625"/><use x="258.971" xlink:href="#o" y="83.625"/><use x="267.937" xlink:href="#p" y="83.625"/></g><g clip-path="url(#d)"><path d="m298.092 42.521a4.695 4.695 0 0 1 -4.695 4.695 4.695 4.695 0 0 1 -4.695-4.695 4.695 4.695 0 0 1 4.695-4.695 4.695 4.695 0 0 1 4.695 4.695zm0 0" fill="none" stroke="#000" stroke-miterlimit="10" stroke-width=".79701" transform="matrix(1 0 0 -1 5.095 217.693)"/></g><path d="m298.092 85.04a4.695 4.695 0 0 1 -4.695 4.696 4.695 4.695 0 0 1 -4.695-4.695 4.695 4.695 0 0 1 4.695-4.696 4.695 4.695 0 0 1 4.695 4.696zm0 42.52a4.695 4.695 0 0 1 -4.695 4.696 4.695 4.695 0 0 1 -4.695-4.696 4.695 4.695 0 0 1 4.695-4.695 4.695 4.695 0 0 1 4.695 4.695zm0 42.52a4.698 4.698 0 0 1 -4.695 4.699 4.698 4.698 0 0 1 0-9.395 4.695 4.695 0 0 1 4.695 4.696zm0 42.52a4.695 4.695 0 1 1 -9.39 0 4.695 4.695 0 0 1 4.695-4.696 4.695 4.695 0 0 1 4.695 4.695zm0 0" fill="none" stroke="#000" stroke-miterlimit="10" stroke-width=".79701" transform="matrix(1 0 0 -1 5.095 217.693)"/><use fill="#f00" x="290.454" xlink:href="#q" y="180.339"/><use fill="#f00" x="290.454" xlink:href="#q" y="95.299"/><g clip-path="url(#e)"><path d="m364.975 42.521a4.695 4.695 0 0 1 -4.695 4.695 4.695 4.695 0 0 1 -4.695-4.695 4.695 4.695 0 0 1 4.695-4.695 4.695 4.695 0 0 1 4.695 4.695zm0 0" fill="none" stroke="#000" stroke-miterlimit="10" stroke-width=".79701" transform="matrix(1 0 0 -1 5.095 217.693)"/></g><path d="m364.975 85.04a4.695 4.695 0 0 1 -4.695 4.696 4.695 4.695 0 0 1 -4.695-4.695 4.695 4.695 0 0 1 4.695-4.696 4.695 4.695 0 0 1 4.695 4.696zm0 42.52a4.695 4.695 0 0 1 -4.695 4.696 4.695 4.695 0 0 1 -4.695-4.696 4.695 4.695 0 0 1 4.695-4.695 4.695 4.695 0 0 1 4.695 4.695zm0 42.52a4.698 4.698 0 0 1 -4.695 4.699 4.698 4.698 0 0 1 0-9.395 4.695 4.695 0 0 1 4.695 4.696zm0 42.52a4.695 4.695 0 1 1 -9.39 0 4.695 4.695 0 0 1 4.695-4.696 4.695 4.695 0 0 1 4.695 4.695zm0 0" fill="none" stroke="#000" stroke-miterlimit="10" stroke-width=".79701" transform="matrix(1 0 0 -1 5.095 217.693)"/><g fill="#f00"><use x="357.336" xlink:href="#q" y="180.339"/><use x="357.336" xlink:href="#q" y="95.299"/><use x="357.336" xlink:href="#q" y="52.78"/></g><g clip-path="url(#f)"><path d="m431.862 42.521a4.698 4.698 0 0 1 -9.395 0 4.698 4.698 0 0 1 9.395 0zm0 0" fill="none" stroke="#000" stroke-miterlimit="10" stroke-width=".79701" transform="matrix(1 0 0 -1 5.095 217.693)"/></g><path d="m431.862 85.04a4.698 4.698 0 0 1 -9.395 0 4.698 4.698 0 0 1 9.395 0zm0 42.52a4.698 4.698 0 0 1 -9.395 0 4.698 4.698 0 0 1 9.395 0zm0 42.52a4.698 4.698 0 1 1 -9.393.003 4.698 4.698 0 0 1 9.393-.003zm0 42.52a4.698 4.698 0 0 1 -4.7 4.698 4.695 4.695 0 0 1 -4.695-4.699 4.698 4.698 0 0 1 9.395 0zm0 0" fill="none" stroke="#000" stroke-miterlimit="10" stroke-width=".79701" transform="matrix(1 0 0 -1 5.095 217.693)"/><use fill="#f00" x="424.218" xlink:href="#q" y="137.819"/><use fill="#f00" x="424.218" xlink:href="#q" y="52.78"/><g clip-path="url(#g)"><path d="m498.745 85.04a4.697 4.697 0 0 1 -9.395 0 4.698 4.698 0 0 1 9.395 0zm0 0" fill="none" stroke="#000" stroke-miterlimit="10" stroke-width=".79701" transform="matrix(1 0 0 -1 5.095 217.693)"/></g><g clip-path="url(#h)"><path d="m498.745 170.08a4.7 4.7 0 0 1 -4.695 4.699 4.698 4.698 0 1 1 4.695-4.7zm0 0" fill="none" stroke="#000" stroke-miterlimit="10" stroke-width=".79701" transform="matrix(1 0 0 -1 5.095 217.693)"/></g><path d="m298.495 85.04h54.101" fill="none" stroke="#000" stroke-miterlimit="10" stroke-width=".79701" transform="matrix(1 0 0 -1 5.095 217.693)"/><path d="m360.281 132.652-4.144-2.07 1.554 2.07-1.554 2.075"/><path d="m295.764 89.552 60.95 116.243" fill="none" stroke="#000" stroke-miterlimit="10" stroke-width=".79701" transform="matrix(1 0 0 -1 5.095 217.693)"/><path d="m363.012 9.605-3.762 2.707 2.559-.414 1.113 2.34"/><path d="m296.546 166.076 58.984-74.996" fill="none" stroke="#000" stroke-miterlimit="10" stroke-width=".79701" transform="matrix(1 0 0 -1 5.095 217.693)"/><path d="m362.227 128.648-.934-4.539-.668 2.504-2.59.059"/><path d="m297.698 172.814 56.098 35.664" fill="none" stroke="#000" stroke-miterlimit="10" stroke-width=".79701" transform="matrix(1 0 0 -1 5.095 217.693)"/><path d="m361.078 7.824-4.61.477 2.423.914-.2 2.582"/><path d="m295.764 208.088 60.95-116.243" fill="none" stroke="#000" stroke-miterlimit="10" stroke-width=".79701" transform="matrix(1 0 0 -1 5.095 217.693)"/><path d="m363.012 128.14-.09-4.632-1.113 2.34-2.559-.414"/><path d="m298.495 212.6h54.101" fill="none" stroke="#000" stroke-miterlimit="10" stroke-width=".79701" transform="matrix(1 0 0 -1 5.095 217.693)"/><path d="m360.281 5.094-4.144-2.074 1.554 2.074-1.554 2.07"/><path d="m364.58 82.306 56.098-35.664" fill="none" stroke="#000" stroke-miterlimit="10" stroke-width=".79701" transform="matrix(1 0 0 -1 5.095 217.693)"/><path d="m427.96 172.441-2.386-3.972.2 2.582-2.422.914"/><path d="m364.58 87.775 56.098 35.664" fill="none" stroke="#000" stroke-miterlimit="10" stroke-width=".79701" transform="matrix(1 0 0 -1 5.095 217.693)"/><path d="m427.96 92.867-4.608.473 2.421.914-.199 2.582"/><path d="m362.647 89.552 60.95 116.243" fill="none" stroke="#000" stroke-miterlimit="10" stroke-width=".79701" transform="matrix(1 0 0 -1 5.095 217.693)"/><path d="m429.895 9.605-3.762 2.707 2.558-.414 1.114 2.34"/><path d="m362.147 207.861 62.203-158.188" fill="none" stroke="#000" stroke-miterlimit="10" stroke-width=".79701" transform="matrix(1 0 0 -1 5.095 217.693)"/><path d="m430.395 170.434.41-4.618-1.36 2.204-2.496-.688"/><path d="m363.432 208.595 58.98-74.996" fill="none" stroke="#000" stroke-miterlimit="10" stroke-width=".79701" transform="matrix(1 0 0 -1 5.095 217.693)"/><path d="m429.11 86.129-.934-4.54-.668 2.505-2.59.058"/><path d="m365.378 212.6h54.101" fill="none" stroke="#000" stroke-miterlimit="10" stroke-width=".79701" transform="matrix(1 0 0 -1 5.095 217.693)"/><path d="m427.164 5.094-4.144-2.074 1.554 2.074-1.554 2.07"/><path d="m431.464 45.252 56.097 35.664" fill="none" stroke="#000" stroke-miterlimit="10" stroke-width=".79701" transform="matrix(1 0 0 -1 5.095 217.693)"/><path d="m494.844 135.387-4.61.472 2.422.918-.199 2.582"/><g clip-path="url(#i)"><path d="m429.53 47.033 60.95 116.242" fill="none" stroke="#000" stroke-miterlimit="10" stroke-width=".79701" transform="matrix(1 0 0 -1 5.095 217.693)"/></g><path d="m496.777 52.125-3.761 2.707 2.558-.414 1.113 2.34"/><path d="m431.464 124.826 56.097-35.664" fill="none" stroke="#000" stroke-miterlimit="10" stroke-width=".79701" transform="matrix(1 0 0 -1 5.095 217.693)"/><path d="m494.844 129.918-2.387-3.969.2 2.582-2.423.914"/><path d="m431.464 130.295 56.097 35.664" fill="none" stroke="#000" stroke-miterlimit="10" stroke-width=".79701" transform="matrix(1 0 0 -1 5.095 217.693)"/><path d="m494.844 50.344-4.61.476 2.422.914-.199 2.582"/><g clip-path="url(#j)"><path d="m429.53 208.088 60.95-116.243" fill="none" stroke="#000" stroke-miterlimit="10" stroke-width=".79701" transform="matrix(1 0 0 -1 5.095 217.693)"/></g><path d="m496.777 128.14-.09-4.632-1.113 2.34-2.558-.414"/><path d="m431.464 209.869 56.097-35.664" fill="none" stroke="#000" stroke-miterlimit="10" stroke-width=".79701" transform="matrix(1 0 0 -1 5.095 217.693)"/><path d="m494.844 44.879-2.387-3.973.2 2.582-2.423.914"/></svg>