<svg xmlns="http://www.w3.org/2000/svg" xmlns:xlink="http://www.w3.org/1999/xlink" width="217.46" height="38.104" viewBox="0 0 163.095 28.578"><defs><symbol overflow="visible" id="a"><path d="M1.688 1.688c-.032.14-.047.156-.047.203 0 .218.187.28.296.28a.413.413 0 0 0 .36-.265c.031-.078.078-.406.36-1.812.077 0 .155.015.327.015 1.657 0 3.188-1.562 3.188-3.14 0-.781-.39-1.375-1.14-1.375-1.438 0-2.048 1.937-2.641 3.875C1.312-.734.75-1.281.75-2c0-.281.234-1.375.828-2.063.094-.093.094-.109.094-.14 0-.031-.031-.094-.125-.094C1.266-4.297.5-2.844.5-1.89c0 .938.656 1.657 1.719 1.907zM3.077-.47c-.094 0-.11 0-.187-.015-.125 0-.125 0-.125-.032 0-.015.171-.937.187-1.078.313-1.281 1.094-2.234 1.985-2.234.687 0 .953.531.953 1.015 0 1.126-1.282 2.344-2.813 2.344zm0 0"/></symbol><symbol overflow="visible" id="d"><path d="M.453 1.219c-.078.343-.11.406-.547.406-.11 0-.218 0-.218.188 0 .078.046.125.124.125.266 0 .563-.032.829-.032.343 0 .671.032 1 .032.046 0 .171 0 .171-.204 0-.109-.093-.109-.234-.109-.5 0-.5-.063-.5-.156 0-.125.422-1.75.484-2 .125.297.407.64.922.64 1.157 0 2.407-1.453 2.407-2.921 0-.938-.579-1.594-1.329-1.594-.5 0-.984.36-1.312.75-.094-.547-.531-.75-.89-.75-.47 0-.657.39-.735.562-.188.344-.313.938-.313.969 0 .11.094.11.11.11.11 0 .11-.016.172-.235.172-.703.375-1.188.734-1.188.172 0 .313.079.313.454 0 .234-.032.343-.079.515zm1.75-4.328c.063-.266.344-.547.516-.704.36-.296.64-.374.812-.374.39 0 .64.343.64.937 0 .594-.327 1.734-.515 2.11-.344.702-.812 1.03-1.187 1.03-.656 0-.781-.828-.781-.89 0-.016 0-.031.03-.156zm0 0"/></symbol><symbol overflow="visible" id="j"><path d="M4.61-3.375C4.515-4 4.11-4.563 3.327-4.563c-.61 0-1.25.172-2.031.938a2.953 2.953 0 0 0-.89 2.063c0 .625.437 1.78 1.827 1.78 2.375 0 3.407-3.343 3.407-4.78 0-1.579-.922-2.579-2.157-2.579-1.437 0-1.906 1.297-1.906 1.579 0 .14.094.343.39.343a.544.544 0 0 0 .532-.515c0-.36-.313-.36-.469-.36.438-.734 1.156-.797 1.438-.797.734 0 1.422.516 1.422 1.813 0 .39-.063.89-.266 1.703zM2.265-.062c-1.094 0-1.094-1.032-1.094-1.125 0-.266.25-1.657.656-2.266.39-.563.89-.89 1.5-.89 1.094 0 1.11 1.124 1.11 1.327 0 .72-.641 2.954-2.172 2.954zm0 0"/></symbol><symbol overflow="visible" id="l"><path d="M3.734-6.125c.063-.234.094-.328.282-.36.093-.015.406-.015.609-.015.703 0 1.813 0 1.813.984 0 .344-.157 1.032-.547 1.422-.266.25-.782.578-1.688.578h-1.11zm1.438 2.734c1.016-.218 2.187-.921 2.187-1.921 0-.86-.89-1.5-2.203-1.5H2.328c-.203 0-.297 0-.297.203 0 .109.094.109.281.109.016 0 .204 0 .376.016.187.03.265.03.265.171 0 .032 0 .063-.031.188L1.578-.781c-.094.39-.11.469-.906.469-.172 0-.266 0-.266.203C.406 0 .531 0 .546 0c.282 0 .985-.031 1.25-.031.282 0 1 .031 1.282.031.078 0 .188 0 .188-.203 0-.11-.079-.11-.282-.11-.359 0-.64 0-.64-.171 0-.063.015-.11.031-.172l.656-2.64H4.22c.906 0 1.078.562 1.078.905 0 .141-.078.454-.14.688-.063.281-.157.64-.157.844C5 .219 6.203.219 6.328.219c.844 0 1.203-1 1.203-1.14 0-.126-.11-.126-.125-.126-.093 0-.11.063-.125.14-.25.735-.687.907-.906.907-.328 0-.406-.219-.406-.61 0-.312.062-.812.11-1.14.015-.14.03-.328.03-.469 0-.765-.671-1.078-.937-1.172zm0 0"/></symbol><symbol overflow="visible" id="p"><path d="M2.031-.016c0-.656-.25-1.046-.64-1.046a.517.517 0 0 0-.532.53c0 .266.204.532.532.532a.58.58 0 0 0 .343-.125c.032-.031.047-.031.047-.031.016 0 .016 0 .016.14 0 .75-.344 1.344-.672 1.672-.11.11-.11.125-.11.157 0 .078.048.109.094.109.11 0 .922-.766.922-1.938zm0 0"/></symbol><symbol overflow="visible" id="b"><path d="M2.938-2.656c-.141-.235-.376-.422-.72-.422-.89 0-1.796.984-1.796 1.984C.422-.406.875.063 1.484.063c.375 0 .704-.204.985-.485.125.422.531.484.719.484.25 0 .421-.14.546-.359.157-.281.25-.672.25-.703 0-.094-.093-.094-.109-.094-.11 0-.11.032-.156.219-.094.344-.219.75-.516.75-.172 0-.234-.156-.234-.344 0-.11.062-.375.11-.547.046-.187.124-.468.155-.625l.141-.53c.047-.188.125-.517.125-.548 0-.156-.125-.219-.234-.219-.125 0-.282.079-.329.282zM2.5-.875c-.047.203-.203.344-.36.469-.062.062-.343.281-.64.281-.266 0-.516-.188-.516-.672 0-.375.204-1.14.375-1.422.313-.562.672-.656.86-.656.484 0 .625.531.625.61 0 .015-.016.078-.016.093zm0 0"/></symbol><symbol overflow="visible" id="c"><path d="M1.844-4.625c0-.016.031-.11.031-.11 0-.046-.031-.109-.125-.109-.14 0-.719.063-.89.078-.047 0-.157.016-.157.157 0 .093.11.093.188.093.328 0 .328.063.328.11s-.063.328-.11.484l-.156.64C.891-3.031.516-1.515.5-1.421c-.047.172-.047.266-.047.344 0 .703.453 1.14 1.031 1.14.875 0 1.797-.937 1.797-1.968 0-.813-.562-1.172-1.047-1.172-.359 0-.671.203-.875.39zm-.36 4.5c-.328 0-.53-.297-.53-.719 0-.25.062-.484.265-1.281.031-.125.031-.14.172-.297.265-.297.578-.453.828-.453.265 0 .5.203.5.672 0 .281-.14 1-.36 1.406-.171.344-.515.672-.875.672zm0 0"/></symbol><symbol overflow="visible" id="k"><path d="M1.719-2.75h.703c.14 0 .219 0 .219-.156C2.64-3 2.562-3 2.437-3h-.656l.25-1.031a.324.324 0 0 0 .031-.094c0-.14-.109-.234-.25-.234-.171 0-.265.125-.328.296-.046.188.047-.156-.265 1.063H.516c-.125 0-.22 0-.22.156 0 .094.079.094.204.094h.656L.75-1.11c-.047.173-.11.423-.11.516 0 .406.36.656.75.656.782 0 1.22-.968 1.22-1.062 0-.094-.094-.094-.11-.094-.094 0-.094.016-.156.14-.188.438-.547.829-.922.829-.156 0-.25-.094-.25-.344 0-.062.031-.219.047-.281zm0 0"/></symbol><symbol overflow="visible" id="m"><path d="M2.188-4.625c0-.016.015-.11.015-.11 0-.046-.015-.109-.11-.109-.14 0-.718.063-.89.078-.047 0-.156.016-.156.157 0 .093.11.093.187.093.329 0 .329.063.329.11s-.016.093-.016.156L.563-.312c-.047.124-.047.14-.047.156 0 .11.093.218.25.218.187 0 .265-.124.312-.28.016-.032.313-1.266.344-1.36.5.047.89.219.89.578 0 .031 0 .063-.015.14-.031.094-.031.141-.031.22 0 .484.406.703.75.703.671 0 .875-1.047.875-1.063 0-.094-.079-.094-.11-.094-.094 0-.11.047-.14.172-.079.297-.266.797-.61.797-.187 0-.25-.172-.25-.36 0-.124 0-.14.047-.312a.724.724 0 0 0 .031-.219c0-.625-.828-.718-1.125-.734.204-.125.454-.36.579-.469.359-.328.703-.656 1.093-.656.078 0 .172.016.235.094a.396.396 0 0 0-.36.39c0 .141.11.25.266.25.203 0 .406-.156.406-.437a.5.5 0 0 0-.531-.5c-.406 0-.766.297-1.125.625-.297.265-.516.484-.813.61zm0 0"/></symbol><symbol overflow="visible" id="n"><path d="M1.469-.11c0 .376-.063.829-.547 1.266-.016.032-.047.063-.047.094 0 .047.063.094.094.094.11 0 .703-.563.703-1.39 0-.423-.172-.75-.5-.75a.387.387 0 0 0-.39.39c0 .219.155.406.405.406.172 0 .282-.11.282-.11zm0 0"/></symbol><symbol overflow="visible" id="e"><path d="M2.328-4.438c0-.187 0-.187-.203-.187-.453.438-1.078.438-1.36.438v.25c.157 0 .626 0 1-.188v3.547c0 .234 0 .328-.687.328H.812V0c.125 0 .985-.031 1.235-.031.219 0 1.094.031 1.25.031v-.25H3.03c-.703 0-.703-.094-.703-.328zm0 0"/></symbol><symbol overflow="visible" id="f"><path d="M3.516-1.266H3.28c-.015.157-.094.563-.187.625-.047.047-.578.047-.688.047H1.125c.734-.64.984-.844 1.39-1.172.516-.406 1-.843 1-1.5 0-.843-.734-1.359-1.624-1.359-.86 0-1.454.61-1.454 1.25 0 .344.297.39.376.39.156 0 .359-.124.359-.374 0-.125-.047-.375-.406-.375.218-.485.687-.641 1.015-.641.703 0 1.063.547 1.063 1.11 0 .609-.438 1.078-.656 1.328L.516-.266C.437-.203.437-.187.437 0h2.876zm0 0"/></symbol><symbol overflow="visible" id="o"><path d="M3.297 2.39c0-.03 0-.046-.172-.218C1.891.922 1.562-.968 1.562-2.5c0-1.734.375-3.469 1.61-4.703.125-.125.125-.14.125-.172 0-.078-.031-.11-.094-.11-.11 0-1 .688-1.594 1.954C1.11-4.438.984-3.328.984-2.5c0 .781.11 1.984.657 3.125C2.25 1.844 3.094 2.5 3.203 2.5c.063 0 .094-.031.094-.11zm0 0"/></symbol><symbol overflow="visible" id="q"><path d="M2.875-2.5c0-.766-.11-1.969-.656-3.11C1.625-6.827.766-7.483.672-7.483a.107.107 0 0 0-.11.109c0 .031 0 .047.188.234.984.985 1.547 2.563 1.547 4.641 0 1.719-.36 3.469-1.594 4.719-.14.125-.14.14-.14.172 0 .062.046.109.109.109.094 0 1-.688 1.578-1.953.516-1.094.625-2.203.625-3.047zm0 0"/></symbol><clipPath id="g"><path d="M76 16h12v12H76zm0 0"/></clipPath><clipPath id="h"><path d="M87.625 22.145a5.665 5.665 0 0 0-5.668-5.668 5.665 5.665 0 0 0-5.668 5.668 5.667 5.667 0 0 0 5.668 5.668 5.667 5.667 0 0 0 5.668-5.668zm0 0"/></clipPath><clipPath id="i"><path d="M70 10h24v18.578H70zm0 0"/></clipPath></defs><path d="M18.176 22.145h127.562" fill="none" stroke-width="0.3985" stroke="rgb(0%,0%,0%)" stroke-miterlimit="10"/><use xlink:href="#a" x="3.321" y="23.32" fill="rgb(0%,0%,0%)"/><use xlink:href="#b" x="9.838" y="24.815" fill="rgb(0%,0%,0%)"/><use xlink:href="#a" x="149.256" y="23.32" fill="rgb(0%,0%,0%)"/><use xlink:href="#c" x="155.773" y="24.815" fill="rgb(0%,0%,0%)"/><path d="M25.262 17.164h27.89" fill="none" stroke-width="0.3985" stroke="rgb(0%,0%,0%)" stroke-miterlimit="10"/><path d="M51.957 15.57c.098.598 1.195 1.493 1.492 1.594-.297.098-1.394.996-1.492 1.594" fill="none" stroke-width="0.31879" stroke-linecap="round" stroke-linejoin="round" stroke="rgb(0%,0%,0%)" stroke-miterlimit="10"/><use xlink:href="#d" x="34.696" y="11.706" fill="rgb(0%,0%,0%)"/><use xlink:href="#e" x="39.708" y="13.2" fill="rgb(0%,0%,0%)"/><path d="M110.305 17.164h27.886" fill="none" stroke-width="0.3985" stroke="rgb(0%,0%,0%)" stroke-miterlimit="10"/><path d="M136.996 15.57c.102.598 1.195 1.493 1.496 1.594-.3.098-1.394.996-1.496 1.594" fill="none" stroke-width="0.31879" stroke-linecap="round" stroke-linejoin="round" stroke="rgb(0%,0%,0%)" stroke-miterlimit="10"/><use xlink:href="#d" x="119.735" y="11.706" fill="rgb(0%,0%,0%)"/><use xlink:href="#f" x="124.748" y="13.2" fill="rgb(0%,0%,0%)"/><path d="M87.625 22.145a5.665 5.665 0 0 0-5.668-5.668 5.665 5.665 0 0 0-5.668 5.668 5.667 5.667 0 0 0 5.668 5.668 5.667 5.667 0 0 0 5.668-5.668zm0 0" fill="rgb(100%,100%,100%)"/><g clip-path="url(#g)"><g clip-path="url(#h)"><path d="M87.625 27.813L76.289 16.477m0 11.335l11.336-11.335" fill="none" stroke-width="0.3985" stroke="rgb(0%,0%,0%)" stroke-miterlimit="10"/></g></g><g clip-path="url(#i)"><path d="M87.625 22.145a5.665 5.665 0 0 0-5.668-5.668 5.665 5.665 0 0 0-5.668 5.668 5.667 5.667 0 0 0 5.668 5.668 5.667 5.667 0 0 0 5.668-5.668zm0 0" fill="none" stroke-width="0.3985" stroke="rgb(0%,0%,0%)" stroke-miterlimit="10"/></g><use xlink:href="#j" x="50.659" y="10.793" fill="rgb(0%,0%,0%)"/><use xlink:href="#k" x="55.949" y="12.287" fill="rgb(0%,0%,0%)"/><use xlink:href="#l" x="59.456" y="10.793" fill="rgb(0%,0%,0%)"/><use xlink:href="#m" x="67.021" y="12.287" fill="rgb(0%,0%,0%)"/><g fill="rgb(0%,0%,0%)"><use xlink:href="#n" x="71.424" y="12.287"/><use xlink:href="#b" x="73.79" y="12.287"/><use xlink:href="#c" x="78.111" y="12.287"/></g><use xlink:href="#o" x="82.114" y="10.793" fill="rgb(0%,0%,0%)"/><use xlink:href="#d" x="85.988" y="10.793" fill="rgb(0%,0%,0%)"/><use xlink:href="#e" x="91" y="12.287" fill="rgb(0%,0%,0%)"/><use xlink:href="#p" x="95.47" y="10.793" fill="rgb(0%,0%,0%)"/><use xlink:href="#d" x="99.901" y="10.793" fill="rgb(0%,0%,0%)"/><use xlink:href="#f" x="104.91" y="12.287" fill="rgb(0%,0%,0%)"/><use xlink:href="#q" x="109.379" y="10.793" fill="rgb(0%,0%,0%)"/></svg>