<svg xmlns="http://www.w3.org/2000/svg" xmlns:xlink="http://www.w3.org/1999/xlink" width="359.967" height="76.653" viewBox="0 0 269.975 57.49"><defs><symbol overflow="visible" id="a"><path d="M5.719-6.984c-.094-.141-.094-.157-.235-.157-.687 0-1.906.282-2.421 1.125-.157-.28-.641-1.015-1.391-1.015-.688 0-1.125.625-1.125 1.203 0 .375.234.625.515.906.547.563.547.719.547 1.094 0 .594-.046 1.187-.484 1.187-.266 0-.313-.375-.328-.546 0-.079-.016-.157-.125-.157-.125 0-.125.11-.125.14 0 .188.094.782.578.782.813 0 .813-1.281.813-1.5 0-.312-.032-.687-.704-1.312-.28-.25-.39-.391-.39-.625 0-.422.297-.954.812-.954.516 0 .922.782.922 1.954v2.937c0 .094 0 1.922-.656 1.922-.36 0-.734-.313-.938-.938.016 0 .22-.062.22-.156 0-.062-.079-.11-.11-.11a1.01 1.01 0 0 0-.203.063C.875-1.203.828-1.312.75-1.312c-.047 0-.125.093-.125.14 0 .031.016.094.047.125-.063.016-.219.063-.219.156 0 .047.063.11.11.11A.88.88 0 0 0 .75-.844C1.063.016 1.578.22 1.922.22c.703 0 1.5-.906 1.5-2.938v-.719h1.14l.125 2.188c0 .063-.03.14-.03.328 0 .594.484 1.14 1.155 1.14.125 0 .157 0 .344-.14l.719-.562C6.985-.578 7-.594 7-.625c0-.078-.156-.14-.188-.14-.046 0-.406.28-.859.656A.946.946 0 0 1 5.5-.922c0-.187.031-.219.031-.328 0-.297-.047-.813-.062-1.125-.016-.203-.063-1-.063-1.14.563-.172 1.64-.813 1.657-.829a.106.106 0 0 0 .062-.093c0-.016-.063-.141-.078-.141zM6.28-4.25c-.922.5-1.125.5-1.422.5H3.422v-.484c0-.688-.094-1.079-.203-1.391.344-.953 1.64-1.14 1.64-1.14.032 0 .079.109.094.109zm0 0"/></symbol><symbol overflow="visible" id="g"><path d="M2.86-3.344c0-.078-.063-.11-.094-.11C1.25-3.546.859-4.546.859-5.14c0-.984.907-1.671 1.813-1.671.562 0 .89.359 1.312.906.454.562.938 1.172 1.782 1.172.703 0 1.14-.313 1.14-.704 0-.125-.093-.125-.156-.125-.125 0-.14.047-.156.141-.078.469-.782.469-.797.469-.14 0-.203-.031-.36-.328-.89-1.64-2.312-1.75-2.718-1.75-1.219 0-2.172.843-2.172 1.89 0 1.235 1.234 1.907 2.14 1.907.063 0 .172 0 .172-.11zM.812-1.828c-.172 0-.266 0-.266.11 0 .03 0 .109.094.109.343.03.671.046 1.437.75C3.141.109 3.36.109 4.156.109c.516 0 .938 0 1.422-.343.36-.235.64-.641.64-1.141 0-.36-.14-.563-.5-.969-.39-.437-.421-.61-.421-.844 0-.421.11-.89.469-.89.015 0 .75 0 .828.703.015.063.031.125.156.125s.156-.047.156-.14c0-.422-.453-.907-1.156-.907-.719 0-1.297.516-1.297 1.14 0 .407.234.657.531 1 .375.407.407.579.407.782 0 .922-1.032 1.25-1.22 1.25-.062 0-.327-.078-.655-.297-.172-.14-.454-.39-.5-.422-.72-.687-1.11-.984-1.797-.984zm0 0"/></symbol><symbol overflow="visible" id="b"><path d="M3.297 2.39c0-.03 0-.046-.172-.218C1.891.922 1.562-.968 1.562-2.5c0-1.734.375-3.469 1.61-4.703.125-.125.125-.14.125-.172 0-.078-.031-.11-.094-.11-.11 0-1 .688-1.594 1.954C1.11-4.438.984-3.328.984-2.5c0 .781.11 1.984.657 3.125C2.25 1.844 3.094 2.5 3.203 2.5c.063 0 .094-.031.094-.11zm0 0"/></symbol><symbol overflow="visible" id="e"><path d="M2.875-2.5c0-.766-.11-1.969-.656-3.11C1.625-6.827.766-7.483.672-7.483a.107.107 0 0 0-.11.109c0 .031 0 .047.188.234.984.985 1.547 2.563 1.547 4.641 0 1.719-.36 3.469-1.594 4.719-.14.125-.14.14-.14.172 0 .062.046.109.109.109.094 0 1-.688 1.578-1.953.516-1.094.625-2.203.625-3.047zm0 0"/></symbol><symbol overflow="visible" id="c"><path d="M.453 1.219c-.078.343-.11.406-.547.406-.11 0-.218 0-.218.188 0 .078.046.125.124.125.266 0 .563-.032.829-.032.343 0 .671.032 1 .032.046 0 .171 0 .171-.204 0-.109-.093-.109-.234-.109-.5 0-.5-.063-.5-.156 0-.125.422-1.75.484-2 .125.297.407.64.922.64 1.157 0 2.407-1.453 2.407-2.921 0-.938-.579-1.594-1.329-1.594-.5 0-.984.36-1.312.75-.094-.547-.531-.75-.89-.75-.47 0-.657.39-.735.562-.188.344-.313.938-.313.969 0 .11.094.11.11.11.11 0 .11-.016.172-.235.172-.703.375-1.188.734-1.188.172 0 .313.079.313.454 0 .234-.032.343-.079.515zm1.75-4.328c.063-.266.344-.547.516-.704.36-.296.64-.374.812-.374.39 0 .64.343.64.937 0 .594-.327 1.734-.515 2.11-.344.702-.812 1.03-1.187 1.03-.656 0-.781-.828-.781-.89 0-.016 0-.031.03-.156zm0 0"/></symbol><symbol overflow="visible" id="h"><path d="M7.578-6.922c0-.031-.016-.11-.11-.11-.03 0-.046.016-.155.126l-.688.765c-.094-.14-.547-.89-1.656-.89C2.734-7.031.5-4.828.5-2.516.5-.875 1.672.22 3.203.22c.86 0 1.625-.39 2.156-.86.922-.812 1.094-1.718 1.094-1.75 0-.109-.11-.109-.125-.109-.062 0-.11.031-.125.11-.094.28-.328 1-1.016 1.578-.687.546-1.312.718-1.828.718-.89 0-1.953-.515-1.953-2.062 0-.578.203-2.188 1.203-3.36.61-.703 1.547-1.203 2.438-1.203 1.016 0 1.61.766 1.61 1.922 0 .406-.032.406-.032.516 0 .093.11.093.14.093.126 0 .126-.015.188-.203zm0 0"/></symbol><symbol overflow="visible" id="d"><path d="M3.594-2.219c0-.765-.094-1.328-.406-1.812-.22-.313-.657-.594-1.204-.594C.36-4.625.36-2.719.36-2.219c0 .5 0 2.36 1.625 2.36 1.61 0 1.61-1.86 1.61-2.36zM1.984-.063c-.328 0-.75-.187-.89-.75C1-1.219 1-1.796 1-2.313c0-.515 0-1.046.094-1.421.156-.547.593-.704.89-.704.375 0 .735.235.86.641.11.375.125.875.125 1.485 0 .515 0 1.03-.094 1.468-.14.64-.61.781-.89.781zm0 0"/></symbol><symbol overflow="visible" id="i"><path d="M1.844-4.625c0-.016.031-.11.031-.11 0-.046-.031-.109-.125-.109-.14 0-.719.063-.89.078-.047 0-.157.016-.157.157 0 .093.11.093.188.093.328 0 .328.063.328.11s-.063.328-.11.484l-.156.64C.891-3.031.516-1.515.5-1.421c-.047.172-.047.266-.047.344 0 .703.453 1.14 1.031 1.14.875 0 1.797-.937 1.797-1.968 0-.813-.562-1.172-1.047-1.172-.359 0-.671.203-.875.39zm-.36 4.5c-.328 0-.53-.297-.53-.719 0-.25.062-.484.265-1.281.031-.125.031-.14.172-.297.265-.297.578-.453.828-.453.265 0 .5.203.5.672 0 .281-.14 1-.36 1.406-.171.344-.515.672-.875.672zm0 0"/></symbol><clipPath id="f"><path d="M119 0h1v57.488h-1zm0 0"/></clipPath></defs><path d="M.398 28.746l.997-.996 1.992 1.992 1.992-1.992 1.992 1.992 1.992-1.992 1.992 1.992 1.993-1.992 1.992 1.992 1.992-1.992 1.996 1.992 1.992-1.992 1.992 1.992 1.993-1.992 1.992 1.992 1.992-1.992 1.992 1.992 1.992-1.992 1.993 1.992 1.992-1.992 1.992 1.992 1.996-1.992 1.992 1.992 1.992-1.992 1.993 1.992 1.992-1.992 1.992 1.992 1.992-1.992 1.992 1.992 1.993-1.992 1.992 1.992 1.996-1.992 1.992 1.992 1.992-1.992 1.992 1.992 1.993-1.992 1.992 1.992 1.992-1.992 1.992 1.992 1.992-1.992 1.993 1.992 1.992-1.992 1.996 1.992 1.992-1.992 1.992 1.992 1.992-1.992 1.993 1.992 1.992-1.992 1.992 1.992 1.992-1.992 1.992 1.992 1.993-1.992 1.992 1.992 1-.996h15.441m0 0h14.945l.997-.996 1.992 1.992 1.992-1.992 1.992 1.992 1.992-1.992 1.992 1.992 1.997-1.992 1.992 1.992 1.992-1.992 1.992 1.992 1.992-1.992 1.993 1.992 1.992-1.992 1.992 1.992 1.992-1.992 1.992 1.992 1.992-1.992 1.997 1.992 1.992-1.992 1.992 1.992 1.992-1.992 1.992 1.992 1.992-1.992 1.993 1.992 1.992-1.992 1.992 1.992 1.992-1.992 1.996 1.992 1.993-1.992 1.992 1.992 1.992-1.992 1.992 1.992 1.992-1.992 1.992 1.992 1.993-1.992 1.992 1.992 1.992-1.992 1.992 1.992 1.996-1.992 1.992 1.992 1.993-1.992 1.992 1.992 1.992-1.992 1.992 1.992 1.992-1.992 1.993 1.992 1.992-1.992 1.992 1.992 1.992-1.992 1.996 1.992.996-.996h3.778" fill="none" stroke-width="0.79701" stroke="rgb(0%,0%,0%)" stroke-miterlimit="10"/><path d="M236.25 26.672c.129.777 1.555 1.945 1.941 2.074-.386.129-1.812 1.293-1.941 2.07" fill="none" stroke-width="0.6376" stroke-linecap="round" stroke-linejoin="round" stroke="rgb(0%,0%,0%)" stroke-miterlimit="10"/><use xlink:href="#a" x="242.228" y="31.236" fill="rgb(0%,0%,0%)"/><use xlink:href="#b" x="249.424" y="31.236" fill="rgb(0%,0%,0%)"/><use xlink:href="#c" x="253.298" y="31.236" fill="rgb(0%,0%,0%)"/><use xlink:href="#d" x="258.31" y="32.73" fill="rgb(0%,0%,0%)"/><use xlink:href="#e" x="262.78" y="31.236" fill="rgb(0%,0%,0%)"/><g clip-path="url(#f)"><path d="M119.453 57.094V1.105" fill="none" stroke-width="0.79701" stroke="rgb(0%,0%,0%)" stroke-miterlimit="10"/></g><path d="M117.383 2.66c.777-.129 1.941-1.555 2.07-1.941.129.386 1.297 1.812 2.074 1.941" fill="none" stroke-width="0.6376" stroke-linecap="round" stroke-linejoin="round" stroke="rgb(0%,0%,0%)" stroke-miterlimit="10"/><use xlink:href="#g" x="123.173" y="11.59" fill="rgb(0%,0%,0%)"/><use xlink:href="#b" x="130.368" y="11.59" fill="rgb(0%,0%,0%)"/><use xlink:href="#c" x="134.243" y="11.59" fill="rgb(0%,0%,0%)"/><use xlink:href="#d" x="139.255" y="13.084" fill="rgb(0%,0%,0%)"/><use xlink:href="#e" x="143.724" y="11.59" fill="rgb(0%,0%,0%)"/><path d="M237.824 35.832h-106.3a7.088 7.088 0 0 1-7.09-7.086 7.088 7.088 0 0 1 7.09-7.086m0 0h106.3" fill="none" stroke-width="0.79701" stroke="rgb(0%,0%,54.499817%)" stroke-miterlimit="10"/><path d="M210.727 37.902c-.13-.777-1.555-1.941-1.942-2.07.387-.129 1.813-1.297 1.942-2.074" fill="none" stroke-width="0.6376" stroke-linecap="round" stroke-linejoin="round" stroke="rgb(0%,0%,54.499817%)" stroke-miterlimit="10"/><path d="M152.012 37.902c-.13-.777-1.555-1.941-1.942-2.07.387-.129 1.813-1.297 1.942-2.074" fill="none" stroke-width="0.6376" stroke-linecap="round" stroke-linejoin="round" stroke="rgb(0%,0%,54.499817%)" stroke-miterlimit="10"/><path d="M147.488 19.586c.13.777 1.555 1.941 1.946 2.074-.391.13-1.817 1.293-1.946 2.07" fill="none" stroke-width="0.6376" stroke-linecap="round" stroke-linejoin="round" stroke="rgb(0%,0%,54.499817%)" stroke-miterlimit="10"/><path d="M206.203 19.586c.129.777 1.555 1.941 1.942 2.074-.387.13-1.813 1.293-1.942 2.07" fill="none" stroke-width="0.6376" stroke-linecap="round" stroke-linejoin="round" stroke="rgb(0%,0%,54.499817%)" stroke-miterlimit="10"/><use xlink:href="#h" x="222.98" y="16.445" fill="rgb(0%,0%,54.499817%)"/><use xlink:href="#i" x="230.1" y="17.939" fill="rgb(0%,0%,54.499817%)"/><path d="M1.086 21.66h106.3a7.085 7.085 0 0 1 7.087 7.086 7.085 7.085 0 0 1-7.086 7.086m0 0H1.086" fill="none" stroke-width="0.79701" stroke="rgb(0%,0%,54.499817%)" stroke-miterlimit="10"/><path d="M28.18 19.586c.133.777 1.554 1.941 1.945 2.074-.39.13-1.813 1.293-1.945 2.07" fill="none" stroke-width="0.6376" stroke-linecap="round" stroke-linejoin="round" stroke="rgb(0%,0%,54.499817%)" stroke-miterlimit="10"/><path d="M86.895 19.586c.128.777 1.554 1.941 1.945 2.074-.39.13-1.817 1.293-1.945 2.07" fill="none" stroke-width="0.6376" stroke-linecap="round" stroke-linejoin="round" stroke="rgb(0%,0%,54.499817%)" stroke-miterlimit="10"/><path d="M91.418 37.902c-.129-.777-1.555-1.941-1.941-2.07.386-.129 1.812-1.297 1.941-2.074" fill="none" stroke-width="0.6376" stroke-linecap="round" stroke-linejoin="round" stroke="rgb(0%,0%,54.499817%)" stroke-miterlimit="10"/><path d="M32.703 37.902c-.129-.777-1.555-1.941-1.941-2.07.386-.129 1.812-1.297 1.941-2.074" fill="none" stroke-width="0.6376" stroke-linecap="round" stroke-linejoin="round" stroke="rgb(0%,0%,54.499817%)" stroke-miterlimit="10"/></svg>