<svg xmlns="http://www.w3.org/2000/svg" xmlns:xlink="http://www.w3.org/1999/xlink" width="249.708" height="243.869" viewBox="0 0 187.281 182.902"><defs><symbol overflow="visible" id="a"><path style="stroke:none" d="M5.36-5.938c-.141.141-.47.422-.47.594 0 .094.094.203.188.203s.14-.078.203-.14c.11-.14.344-.422.782-.64.062-.048.171-.095.171-.204 0-.11-.078-.156-.14-.203a1.034 1.034 0 0 1-.407-.563c-.03-.093-.062-.234-.203-.234-.14 0-.203.14-.203.219 0 .047.078.36.235.578h-3.36c-.156 0-.344 0-.344.203 0 .188.188.188.344.188Zm0 0"/></symbol><symbol overflow="visible" id="b"><path style="stroke:none" d="M3.719-3.766c-.188-.375-.469-.64-.922-.64-1.156 0-2.39 1.468-2.39 2.922C.406-.547.952.109 1.718.109c.203 0 .703-.046 1.297-.75a.91.91 0 0 0 .906.75c.36 0 .578-.234.75-.546a6.49 6.49 0 0 0 .297-.985c0-.11-.094-.11-.125-.11-.094 0-.11.048-.14.188-.173.64-.345 1.235-.75 1.235-.282 0-.298-.266-.298-.454 0-.218.016-.312.125-.75.11-.406.125-.515.219-.89l.36-1.39c.062-.282.062-.298.062-.345 0-.171-.11-.265-.281-.265-.25 0-.391.219-.422.437Zm-.64 2.579c-.063.187-.063.203-.204.375-.438.546-.844.703-1.125.703-.5 0-.64-.547-.64-.938 0-.5.312-1.719.546-2.187.313-.579.75-.954 1.157-.954.64 0 .78.813.78.875a.562.562 0 0 1-.03.172Zm0 0"/></symbol><symbol overflow="visible" id="d"><path style="stroke:none" d="M3.328-3.016c.063-.25.297-1.171.985-1.171.046 0 .296 0 .5.125a.578.578 0 0 0-.47.546c0 .157.11.344.376.344a.546.546 0 0 0 .531-.578c0-.516-.578-.656-.922-.656-.578 0-.922.531-1.047.75-.25-.656-.781-.75-1.078-.75-1.031 0-1.61 1.281-1.61 1.531 0 .11.11.11.126.11.078 0 .11-.032.125-.11.344-1.063 1-1.313 1.344-1.313.187 0 .53.094.53.672 0 .313-.171.97-.53 2.375-.157.61-.516 1.032-.954 1.032-.062 0-.28 0-.5-.125.25-.063.47-.266.47-.547 0-.266-.22-.344-.36-.344-.313 0-.547.25-.547.578 0 .453.484.656.922.656.672 0 1.031-.703 1.047-.75.125.36.484.75 1.078.75 1.031 0 1.594-1.28 1.594-1.53 0-.11-.079-.11-.11-.11-.094 0-.11.047-.14.11-.329 1.077-1 1.312-1.313 1.312-.39 0-.547-.313-.547-.657 0-.218.047-.437.156-.875Zm0 0"/></symbol><symbol overflow="visible" id="h"><path style="stroke:none" d="M4.36-6.672c0-.031.03-.14.03-.14 0-.016 0-.11-.124-.11-.094 0-.11.031-.157.203l-.578 2.297C1.953-4.359.484-3.047.484-1.688c0 .954.704 1.735 1.922 1.813-.078.297-.156.625-.234.938-.125.468-.219.843-.219.875 0 .093.078.109.125.109s.063-.016.094-.047a3 3 0 0 0 .11-.39L2.655.124C4.266.062 5.72-1.281 5.72-2.609c0-.797-.532-1.704-1.922-1.813ZM2.452-.094C1.858-.125 1.14-.484 1.14-1.469c0-1.203.859-2.593 2.343-2.734Zm1.281-4.11c.766.048 1.329.5 1.329 1.376 0 1.187-.86 2.61-2.344 2.734Zm0 0"/></symbol><symbol overflow="visible" id="i"><path style="stroke:none" d="M4.531-4.984c0-.657-.172-2.047-1.187-2.047-1.39 0-2.922 2.812-2.922 5.093C.422-1 .703.11 1.609.11c1.407 0 2.922-2.859 2.922-5.093ZM1.47-3.625c.172-.625.375-1.422.781-2.14.266-.485.625-1.048 1.078-1.048.485 0 .547.641.547 1.204 0 .5-.078 1-.313 1.984Zm2 .328c-.11.453-.313 1.297-.703 2.016-.344.687-.72 1.172-1.157 1.172-.328 0-.53-.297-.53-1.22 0-.421.062-1 .312-1.968Zm0 0"/></symbol><symbol overflow="visible" id="e"><path style="stroke:none" d="M2.328-4.438c0-.187 0-.187-.203-.187-.453.438-1.078.438-1.36.438v.25c.157 0 .626 0 1-.188v3.547c0 .234 0 .328-.687.328H.812V0c.125 0 .985-.031 1.235-.031.219 0 1.094.031 1.25.031v-.25H3.03c-.703 0-.703-.094-.703-.328Zm0 0"/></symbol><symbol overflow="visible" id="f"><path style="stroke:none" d="M3.516-1.266H3.28c-.015.157-.094.563-.187.625-.047.047-.578.047-.688.047h-1.28c.734-.64.984-.844 1.39-1.172.516-.406 1-.843 1-1.5 0-.843-.734-1.359-1.624-1.359-.86 0-1.454.61-1.454 1.25 0 .344.297.39.376.39a.365.365 0 0 0 .359-.374c0-.125-.047-.375-.406-.375.218-.485.687-.641 1.015-.641.703 0 1.063.547 1.063 1.11 0 .609-.438 1.078-.656 1.328L.516-.266C.437-.203.437-.187.437 0h2.876Zm0 0"/></symbol><symbol overflow="visible" id="g"><path style="stroke:none" d="M1.906-2.328c.547 0 .938.375.938 1.125 0 .86-.516 1.125-.906 1.125-.282 0-.907-.078-1.188-.5.328 0 .406-.235.406-.39 0-.22-.172-.376-.39-.376a.38.38 0 0 0-.391.407C.375-.281 1.094.14 1.938.14c.968 0 1.64-.657 1.64-1.344 0-.547-.437-1.094-1.203-1.25.719-.266.984-.781.984-1.219 0-.547-.625-.953-1.406-.953-.766 0-1.36.375-1.36.938 0 .234.157.359.36.359.219 0 .36-.156.36-.344 0-.203-.141-.36-.36-.375.25-.297.719-.375.985-.375.312 0 .75.156.75.75 0 .297-.094.625-.282.828-.219.266-.422.281-.765.313-.172.015-.188.015-.22.015-.015 0-.077.016-.077.094 0 .094.062.094.187.094Zm0 0"/></symbol><clipPath id="c"><path d="M0 6h176v176.902H0Zm0 0"/></clipPath></defs><path style="fill:none;stroke-width:.3985;stroke-linecap:butt;stroke-linejoin:miter;stroke:#000;stroke-opacity:1;stroke-miterlimit:10" d="m0-.001 28.347 42.52" transform="matrix(1 0 0 -1 85.239 97.663)"/><path style="stroke:none;fill-rule:nonzero;fill:#000;fill-opacity:1" d="M86.648 97.664c0-.777-.632-1.41-1.41-1.41a1.409 1.409 0 1 0 0 2.816c.778 0 1.41-.629 1.41-1.406Zm27.922-42.519a.986.986 0 1 0-1.972-.005.986.986 0 0 0 1.972.005Zm0 0"/><use xlink:href="#a" x="110.328" y="50.438" style="fill:#000;fill-opacity:1"/><use xlink:href="#b" x="110.956" y="50.438" style="fill:#000;fill-opacity:1"/><path style="fill:none;stroke-width:.3985;stroke-linecap:butt;stroke-linejoin:miter;stroke:#000;stroke-opacity:1;stroke-dasharray:2.98883,2.98883;stroke-miterlimit:10" d="m1.378-.83 26.969-16.179v58.344" transform="matrix(1 0 0 -1 85.239 97.663)"/><g clip-path="url(#c)"><path style="fill:none;stroke-width:.3985;stroke-linecap:butt;stroke-linejoin:miter;stroke:#000;stroke-opacity:1;stroke-miterlimit:10" d="M85.042-.001c0 46.969-38.074 85.043-85.043 85.043-46.965 0-85.039-38.074-85.039-85.043 0-46.965 38.074-85.04 85.04-85.04 46.968 0 85.042 38.075 85.042 85.04Zm0 0" transform="matrix(1 0 0 -1 85.239 97.663)"/></g><path style="fill:none;stroke-width:.3985;stroke-linecap:butt;stroke-linejoin:miter;stroke:#000;stroke-opacity:1;stroke-dasharray:2.98883,2.98883;stroke-miterlimit:10" d="M85.042-.001c0 15.656-38.074 28.348-85.043 28.348-46.965 0-85.039-12.692-85.039-28.348C-85.04-15.657-46.966-28.35 0-28.35c46.968 0 85.042 12.692 85.042 28.348Zm0 0" transform="matrix(1 0 0 -1 85.239 97.663)"/><path style="fill:none;stroke-width:.3985;stroke-linecap:butt;stroke-linejoin:miter;stroke:#000;stroke-opacity:1;stroke-miterlimit:10" d="M-.829-1.38-16.77-27.954" transform="matrix(1 0 0 -1 85.239 97.663)"/><path style="fill:none;stroke-width:.31879;stroke-linecap:round;stroke-linejoin:round;stroke:#000;stroke-opacity:1;stroke-miterlimit:10" d="M-1.197 1.593C-1.095 1 0 .098.3 0 0-.098-1.096-.997-1.194-1.593" transform="scale(-.99997 .99997) rotate(59.036 -145.169 2.346)"/><use xlink:href="#d" x="63.149" y="133.819" style="fill:#000;fill-opacity:1"/><use xlink:href="#e" x="68.843" y="135.313" style="fill:#000;fill-opacity:1"/><path style="fill:none;stroke-width:.3985;stroke-linecap:butt;stroke-linejoin:miter;stroke:#000;stroke-opacity:1;stroke-miterlimit:10" d="M1.609-.001H84.58" transform="matrix(1 0 0 -1 85.239 97.663)"/><path style="fill:none;stroke-width:.31879;stroke-linecap:round;stroke-linejoin:round;stroke:#000;stroke-opacity:1;stroke-miterlimit:10" d="M-1.196 1.593C-1.095.995-.001.1.3-.001 0-.1-1.095-.997-1.196-1.595" transform="matrix(1 0 0 -1 169.821 97.663)"/><use xlink:href="#d" x="173.798" y="99.061" style="fill:#000;fill-opacity:1"/><use xlink:href="#f" x="179.492" y="100.555" style="fill:#000;fill-opacity:1"/><path style="fill:none;stroke-width:.3985;stroke-linecap:butt;stroke-linejoin:miter;stroke:#000;stroke-opacity:1;stroke-miterlimit:10" d="M0 1.608v82.973" transform="matrix(1 0 0 -1 85.239 97.663)"/><path style="fill:none;stroke-width:.31879;stroke-linecap:round;stroke-linejoin:round;stroke:#000;stroke-opacity:1;stroke-miterlimit:10" d="M-1.196 1.594C-1.095.997-.001.098.3.001c-.301-.102-1.395-.996-1.496-1.594" transform="matrix(0 -1 -1 0 85.239 13.08)"/><use xlink:href="#d" x="80.157" y="7.61" style="fill:#000;fill-opacity:1"/><use xlink:href="#g" x="85.851" y="9.104" style="fill:#000;fill-opacity:1"/><path style="fill:none;stroke-width:.3985;stroke-linecap:butt;stroke-linejoin:miter;stroke:gray;stroke-opacity:1;stroke-miterlimit:10" d="M-6.231-12.732c6.61-3.234 14.597-.87 18.148 5.047" transform="matrix(1 0 0 -1 85.239 97.663)"/><path style="fill:none;stroke-width:.31879;stroke-linecap:round;stroke-linejoin:round;stroke:gray;stroke-opacity:1;stroke-miterlimit:10" d="M-1.197 1.592C-1.095.997 0 .1.3.002.001-.099-1.097-.995-1.193-1.595" transform="scale(.99998 -.99998) rotate(59.035 141.615 33.127)"/><use xlink:href="#h" x="84.683" y="108.308" style="fill:gray;fill-opacity:1"/><path style="fill:none;stroke-width:.3985;stroke-linecap:butt;stroke-linejoin:miter;stroke:gray;stroke-opacity:1;stroke-miterlimit:10" d="M7.48 12.046C5.534 13.343 2.796 14.175 0 14.175" transform="matrix(1 0 0 -1 85.239 97.663)"/><path style="fill:none;stroke-width:.31879;stroke-linecap:round;stroke-linejoin:round;stroke:gray;stroke-opacity:1;stroke-miterlimit:10" d="M-1.196 1.596C-1.096.996 0 .098.299.001 0-.099-1.097-.996-1.195-1.596" transform="matrix(.83202 .55466 .55466 -.83202 92.72 85.616)"/><use xlink:href="#i" x="88.511" y="82.133" style="fill:gray;fill-opacity:1"/></svg>