<svg height="243.869" viewBox="0 0 187.281 182.902" width="249.708" xmlns="http://www.w3.org/2000/svg" xmlns:xlink="http://www.w3.org/1999/xlink"><symbol id="a" overflow="visible"><path d="m5.36-5.938c-.141.141-.47.422-.47.594 0 .094.094.203.188.203s.14-.078.203-.14c.11-.14.344-.422.782-.64.062-.048.171-.095.171-.204 0-.11-.078-.156-.14-.203a1.034 1.034 0 0 1 -.407-.563c-.03-.093-.062-.234-.203-.234-.14 0-.203.14-.203.219 0 .047.078.36.235.578h-3.36c-.156 0-.344 0-.344.203 0 .188.188.188.344.188zm0 0"/></symbol><symbol id="b" overflow="visible"><path d="m3.719-3.766c-.188-.375-.469-.64-.922-.64-1.156 0-2.39 1.468-2.39 2.922-.001.937.545 1.593 1.311 1.593.203 0 .703-.046 1.297-.75a.91.91 0 0 0 .906.75c.36 0 .578-.234.75-.546a6.49 6.49 0 0 0 .297-.985c0-.11-.094-.11-.125-.11-.094 0-.11.048-.14.188-.173.64-.345 1.235-.75 1.235-.282 0-.298-.266-.298-.454 0-.218.016-.312.125-.75.11-.406.125-.515.219-.89l.36-1.39c.062-.282.062-.298.062-.345 0-.171-.11-.265-.281-.265-.25 0-.391.219-.422.437zm-.64 2.579c-.063.187-.063.203-.204.375-.438.546-.844.703-1.125.703-.5 0-.64-.547-.64-.938 0-.5.312-1.719.546-2.187.313-.579.75-.954 1.157-.954.64 0 .78.813.78.875a.562.562 0 0 1 -.03.172zm0 0"/></symbol><symbol id="c" overflow="visible"><path d="m3.328-3.016c.063-.25.297-1.171.985-1.171.046 0 .296 0 .5.125a.578.578 0 0 0 -.47.546c0 .157.11.344.376.344a.546.546 0 0 0 .531-.578c0-.516-.578-.656-.922-.656-.578 0-.922.531-1.047.75-.25-.656-.781-.75-1.078-.75-1.031 0-1.61 1.281-1.61 1.531 0 .11.11.11.126.11.078 0 .11-.032.125-.11.344-1.063 1-1.313 1.344-1.313.187 0 .53.094.53.672 0 .313-.171.97-.53 2.375-.157.61-.516 1.032-.954 1.032-.062 0-.28 0-.5-.125.25-.063.47-.266.47-.547 0-.266-.22-.344-.36-.344-.313 0-.547.25-.547.578 0 .453.484.656.922.656.672 0 1.031-.703 1.047-.75.125.36.484.75 1.078.75 1.031 0 1.594-1.28 1.594-1.53 0-.11-.079-.11-.11-.11-.094 0-.11.047-.14.11-.329 1.077-1 1.312-1.313 1.312-.39 0-.547-.313-.547-.657 0-.218.047-.437.156-.875zm0 0"/></symbol><symbol id="d" overflow="visible"><path d="m4.36-6.672c0-.031.03-.14.03-.14 0-.016 0-.11-.124-.11-.094 0-.11.031-.157.203l-.578 2.297c-1.578.063-3.047 1.375-3.047 2.734 0 .954.704 1.735 1.922 1.813-.078.297-.156.625-.234.938-.125.468-.219.843-.219.875 0 .093.078.109.125.109s.063-.016.094-.047a3 3 0 0 0 .11-.39l.373-1.486c1.611-.062 3.065-1.405 3.065-2.733 0-.797-.532-1.704-1.922-1.813zm-1.908 6.578c-.594-.031-1.312-.39-1.312-1.375 0-1.203.859-2.593 2.343-2.734zm1.281-4.11c.766.048 1.329.5 1.329 1.376 0 1.187-.86 2.61-2.344 2.734zm0 0"/></symbol><symbol id="e" overflow="visible"><path d="m4.531-4.984c0-.657-.172-2.047-1.187-2.047-1.39 0-2.922 2.812-2.922 5.093 0 .938.281 2.048 1.187 2.048 1.407 0 2.922-2.859 2.922-5.093zm-3.061 1.359c.172-.625.375-1.422.781-2.14.266-.485.625-1.048 1.078-1.048.485 0 .547.641.547 1.204 0 .5-.078 1-.313 1.984zm2 .328c-.11.453-.313 1.297-.703 2.016-.344.687-.72 1.172-1.157 1.172-.328 0-.53-.297-.53-1.22 0-.421.062-1 .312-1.968zm0 0"/></symbol><symbol id="f" overflow="visible"><path d="m2.328-4.438c0-.187 0-.187-.203-.187-.453.438-1.078.438-1.36.438v.25c.157 0 .626 0 1-.188v3.547c0 .234 0 .328-.687.328h-.266v.25c.125 0 .985-.031 1.235-.031.219 0 1.094.031 1.25.031v-.25h-.267c-.703 0-.703-.094-.703-.328zm0 0"/></symbol><symbol id="g" overflow="visible"><path d="m3.516-1.266h-.236c-.015.157-.094.563-.187.625-.047.047-.578.047-.688.047h-1.28c.734-.64.984-.844 1.39-1.172.516-.406 1-.843 1-1.5 0-.843-.734-1.359-1.624-1.359-.86 0-1.454.61-1.454 1.25 0 .344.297.39.376.39a.365.365 0 0 0 .359-.374c0-.125-.047-.375-.406-.375.218-.485.687-.641 1.015-.641.703 0 1.063.547 1.063 1.11 0 .609-.438 1.078-.656 1.328l-1.672 1.671c-.079.063-.079.079-.079.266h2.876zm0 0"/></symbol><symbol id="h" overflow="visible"><path d="m1.906-2.328c.547 0 .938.375.938 1.125 0 .86-.516 1.125-.906 1.125-.282 0-.907-.078-1.188-.5.328 0 .406-.235.406-.39 0-.22-.172-.376-.39-.376a.38.38 0 0 0 -.391.407c0 .656.719 1.077 1.563 1.077.968 0 1.64-.657 1.64-1.344 0-.547-.437-1.094-1.203-1.25.719-.266.984-.781.984-1.219 0-.547-.625-.953-1.406-.953-.766 0-1.36.375-1.36.938 0 .234.157.359.36.359.219 0 .36-.156.36-.344 0-.203-.141-.36-.36-.375.25-.297.719-.375.985-.375.312 0 .75.156.75.75 0 .297-.094.625-.282.828-.219.266-.422.281-.765.313-.172.015-.188.015-.22.015-.015 0-.077.016-.077.094 0 .094.062.094.187.094zm0 0"/></symbol><clipPath id="i"><path d="m0 6h176v176.902h-176zm0 0"/></clipPath><path d="m0-.001 28.347 42.52" fill="none" stroke="#000" stroke-miterlimit="10" stroke-width=".3985" transform="matrix(1 0 0 -1 85.239 97.663)"/><path d="m86.648 97.664c0-.777-.632-1.41-1.41-1.41a1.409 1.409 0 1 0 0 2.816c.778 0 1.41-.629 1.41-1.406zm27.922-42.519a.986.986 0 1 0 -1.972-.005.986.986 0 0 0 1.972.005zm0 0"/><use x="110.328" xlink:href="#a" y="50.438"/><use x="110.956" xlink:href="#b" y="50.438"/><path d="m1.378-.83 26.969-16.179v58.344" fill="none" stroke="#000" stroke-dasharray="2.98883 2.98883" stroke-miterlimit="10" stroke-width=".3985" transform="matrix(1 0 0 -1 85.239 97.663)"/><g clip-path="url(#i)"><path d="m85.042-.001c0 46.969-38.074 85.043-85.043 85.043-46.965 0-85.039-38.074-85.039-85.043 0-46.965 38.074-85.04 85.04-85.04 46.968 0 85.042 38.075 85.042 85.04zm0 0" fill="none" stroke="#000" stroke-miterlimit="10" stroke-width=".3985" transform="matrix(1 0 0 -1 85.239 97.663)"/></g><g fill="none" stroke="#000" stroke-miterlimit="10"><path d="m85.042-.001c0 15.656-38.074 28.348-85.043 28.348-46.965 0-85.039-12.692-85.039-28.348s38.074-28.349 85.04-28.349c46.968 0 85.042 12.692 85.042 28.348zm0 0" stroke-dasharray="2.98883 2.98883" stroke-width=".3985" transform="matrix(1 0 0 -1 85.239 97.663)"/><path d="m-.829-1.38-15.941-26.574" stroke-width=".3985" transform="matrix(1 0 0 -1 85.239 97.663)"/><path d="m-1.197 1.593c.102-.593 1.197-1.495 1.497-1.593-.3-.098-1.396-.997-1.494-1.593" stroke-linecap="round" stroke-linejoin="round" stroke-width=".31879" transform="matrix(-.51448396 .85746501 .85746501 .51448396 68.465909 125.616289)"/></g><use x="63.149" xlink:href="#c" y="133.819"/><use x="68.843" xlink:href="#f" y="135.313"/><path d="m1.609-.001h82.971" fill="none" stroke="#000" stroke-miterlimit="10" stroke-width=".3985" transform="matrix(1 0 0 -1 85.239 97.663)"/><path d="m-1.196 1.593c.101-.598 1.195-1.493 1.496-1.594-.3-.099-1.395-.996-1.496-1.594" style="fill:none;stroke-width:.31879;stroke-linecap:round;stroke-linejoin:round;stroke:#000;stroke-miterlimit:10" transform="matrix(1 0 0 -1 169.821 97.663)"/><use x="173.798" xlink:href="#c" y="99.061"/><use x="179.492" xlink:href="#g" y="100.555"/><path d="m0 1.608v82.973" fill="none" stroke="#000" stroke-miterlimit="10" stroke-width=".3985" transform="matrix(1 0 0 -1 85.239 97.663)"/><path d="m-1.196 1.594c.101-.597 1.195-1.496 1.496-1.593-.301-.102-1.395-.996-1.496-1.594" style="fill:none;stroke-width:.31879;stroke-linecap:round;stroke-linejoin:round;stroke:#000;stroke-miterlimit:10" transform="matrix(0 -1 -1 0 85.239 13.08)"/><use x="80.157" xlink:href="#c" y="7.61"/><use x="85.851" xlink:href="#h" y="9.104"/><path d="m-6.231-12.732c6.61-3.234 14.597-.87 18.148 5.047" fill="none" stroke="#808080" stroke-miterlimit="10" stroke-width=".3985" transform="matrix(1 0 0 -1 85.239 97.663)"/><path d="m-1.197 1.592c.102-.595 1.197-1.492 1.497-1.59-.299-.101-1.397-.997-1.493-1.597" style="fill:none;stroke-width:.31879;stroke-linecap:round;stroke-linejoin:round;stroke:#808080;stroke-miterlimit:10" transform="matrix(.51450407 -.85746461 -.85746461 -.51450407 97.155903 105.34749)"/><use fill="#808080" x="84.683" xlink:href="#d" y="108.308"/><path d="m7.48 12.046c-1.946 1.297-4.684 2.129-7.48 2.129" fill="none" stroke="#808080" stroke-miterlimit="10" stroke-width=".3985" transform="matrix(1 0 0 -1 85.239 97.663)"/><path d="m-1.196 1.596c.1-.6 1.196-1.498 1.495-1.595-.299-.1-1.396-.997-1.494-1.597" style="fill:none;stroke-width:.31879;stroke-linecap:round;stroke-linejoin:round;stroke:#808080;stroke-miterlimit:10" transform="matrix(.83202 .55466 .55466 -.83202 92.72 85.616)"/><use fill="#808080" x="88.511" xlink:href="#e" y="82.133"/></svg>