<svg height="216.185" viewBox="0 0 580.758 162.139" width="774.344" xmlns="http://www.w3.org/2000/svg" xmlns:xlink="http://www.w3.org/1999/xlink"><symbol id="a" overflow="visible"><path d="m2.938-6.375c0-.25 0-.266-.235-.266-.625.641-1.5.641-1.812.641v.313c.203 0 .78 0 1.296-.266v5.172c0 .36-.03.469-.921.469h-.313v.312c.344-.031 1.203-.031 1.61-.031.39 0 1.265 0 1.609.031v-.313h-.313c-.906 0-.921-.109-.921-.468zm0 0"/></symbol><symbol id="b" overflow="visible"><path d="m1.906-.531a.534.534 0 0 0 -.515-.531.537.537 0 0 0 -.532.53.524.524 0 1 0 1.047 0zm0 0"/></symbol><symbol id="c" overflow="visible"><path d="m4.578-3.188c0-.796-.047-1.593-.39-2.328-.455-.968-1.283-1.124-1.688-1.124-.61 0-1.328.266-1.75 1.188-.313.687-.36 1.469-.36 2.266 0 .75.032 1.64.454 2.406a1.83 1.83 0 0 0 1.64 1c.532 0 1.297-.203 1.735-1.157.312-.687.36-1.468.36-2.25zm-2.094 3.188c-.39 0-.984-.25-1.156-1.203-.11-.594-.11-1.516-.11-2.11 0-.64 0-1.296.079-1.828.187-1.187.937-1.28 1.187-1.28.329 0 .985.187 1.172 1.171.11.563.11 1.313.11 1.938 0 .75 0 1.421-.11 2.062-.156.953-.719 1.25-1.172 1.25zm0 0"/></symbol><symbol id="d" overflow="visible"><path d="m1.266-.766 1.062-1.03c1.547-1.376 2.14-1.907 2.14-2.907 0-1.14-.89-1.938-2.109-1.938a1.843 1.843 0 0 0 -1.859 1.813c0 .547.5.547.531.547.172 0 .516-.11.516-.532a.513.513 0 0 0 -.531-.515c-.079 0-.094 0-.125.016.218-.657.765-1.016 1.343-1.016.907 0 1.329.812 1.329 1.625 0 .797-.485 1.578-1.047 2.203l-1.907 2.125c-.109.11-.109.14-.109.375h3.703l.266-1.734h-.235c-.062.296-.124.734-.234.89-.063.078-.719.078-.938.078zm0 0"/></symbol><symbol id="e" overflow="visible"><path d="m2.89-3.516c.813-.265 1.391-.953 1.391-1.75 0-.812-.875-1.375-1.828-1.375-1 0-1.765.594-1.765 1.36 0 .328.218.515.515.515s.5-.218.5-.515c0-.485-.469-.485-.61-.485.298-.5.954-.625 1.313-.625.422 0 .969.22.969 1.11 0 .125-.031.703-.281 1.14-.297.485-.64.516-.89.516a3.29 3.29 0 0 1 -.392.031c-.078.016-.14.031-.14.125 0 .11.062.11.234.11h.438c.812 0 1.187.671 1.187 1.656 0 1.36-.687 1.64-1.125 1.64-.437 0-1.187-.171-1.531-.75.344.047.656-.171.656-.546a.537.537 0 0 0 -.547-.563c-.25 0-.562.14-.562.578 0 .907.922 1.564 2.015 1.564 1.22 0 2.126-.906 2.126-1.922 0-.813-.641-1.594-1.672-1.813zm0 0"/></symbol><symbol id="f" overflow="visible"><path d="m2.938-1.64v.859c0 .36-.032.469-.766.469h-.203v.312c.406-.031.922-.031 1.343-.031.422 0 .938 0 1.36.031v-.313h-.219c-.734 0-.75-.109-.75-.468v-.86h.985v-.312h-.985v-4.531c0-.204 0-.266-.172-.266-.078 0-.11 0-.187.125l-3.064 4.672v.312zm.046-.313h-2.421l2.421-3.719zm0 0"/></symbol><symbol id="g" overflow="visible"><path d="m4.469-2c0-1.188-.813-2.188-1.89-2.188-.47 0-.907.157-1.267.516v-1.953c.204.063.532.125.844.125 1.235 0 1.938-.906 1.938-1.031 0-.063-.032-.11-.11-.11 0 0-.03 0-.078.032a3.22 3.22 0 0 1 -1.36.296 3.4 3.4 0 0 1 -1.327-.28c-.078-.032-.094-.032-.11-.032-.109 0-.109.078-.109.234v2.954c0 .171 0 .25.14.25.079 0 .094-.016.141-.079.11-.156.469-.703 1.282-.703.515 0 .765.453.843.64.156.376.188.75.188 1.25 0 .36 0 .954-.25 1.376-.235.39-.61.64-1.063.64-.719 0-1.297-.53-1.469-1.109.032 0 .063.016.172.016.329 0 .5-.25.5-.485 0-.25-.171-.5-.5-.5-.14 0-.484.079-.484.532 0 .859.688 1.828 1.797 1.828 1.156 0 2.172-.953 2.172-2.219zm0 0"/></symbol><symbol id="h" overflow="visible"><path d="m1.313-3.266v-.25c0-2.515 1.234-2.875 1.75-2.875.234 0 .656.063.874.407-.156 0-.546 0-.546.437 0 .313.234.469.453.469.156 0 .469-.094.469-.484 0-.594-.438-1.079-1.266-1.079-1.281.001-2.625 1.282-2.625 3.485 0 2.672 1.156 3.375 2.078 3.375 1.11 0 2.063-.938 2.063-2.25 0-1.266-.891-2.219-2-2.219-.672 0-1.047.5-1.25.984zm1.187 3.204c-.625 0-.922-.594-.984-.75-.188-.47-.188-1.266-.188-1.438 0-.781.328-1.781 1.219-1.781.172 0 .625 0 .937.625.172.36.172.875.172 1.36 0 .483 0 .983-.172 1.343-.296.594-.75.64-.984.64zm0 0"/></symbol><symbol id="i" overflow="visible"><path d="m2.672-3.125h.36l1.5 2.313c.093.156.327.546.437.687.078.125.11.125.328.125h1.375c.187 0 .344 0 .344-.172 0-.094-.063-.156-.157-.172-.375-.078-.859-.75-1.093-1.062-.079-.094-.579-.75-1.235-1.828.875-.172 1.735-.547 1.735-1.735 0-1.375-1.454-1.86-2.641-1.86h-3.125c-.188 0-.344 0-.344.173 0 .172.188.172.266.172.578 0 .625.078.625.578v4.984c0 .5-.047.578-.625.578-.078 0-.266 0-.266.172s.157.172.344.172h2.734c.172 0 .329 0 .329-.172s-.173-.172-.283-.172c-.562 0-.61-.078-.61-.578zm1.922-.5c.281-.36.312-.89.312-1.328 0-.484-.062-1.016-.375-1.422.407.094 1.39.406 1.39 1.406 0 .657-.296 1.157-1.327 1.344zm-1.922-2.313c0-.218 0-.546.625-.546.844 0 1.265.359 1.265 1.53 0 1.282-.312 1.47-1.89 1.47zm-1.36 5.595c.079-.187.079-.469.079-.547v-5.046c0-.094 0-.36-.079-.547h1.141c-.125.171-.125.359-.125.515v5.078c0 .094 0 .36.078.547zm2.125-2.781c.079-.016.11-.031.188-.031.156 0 .375-.016.516-.031.156.234 1.234 2.015 2.062 2.843h-.969zm0 0"/></symbol><symbol id="j" overflow="visible"><path d="m6.563-2.297c.171 0 .359 0 .359-.203 0-.188-.188-.188-.36-.188h-5.39c-.172 0-.344 0-.344.188 0 .203.172.203.344.203zm0 0"/></symbol><symbol id="k" overflow="visible"><path d="m5.063-2.703c-.532-.672-.657-.828-.97-1.078-.562-.453-1.109-.625-1.624-.625-1.156 0-1.922 1.093-1.922 2.265 0 1.141.733 2.251 1.89 2.251 1.141 0 1.97-.906 2.454-1.703.546.672.656.828.968 1.078.563.454 1.125.625 1.625.625 1.172 0 1.922-1.093 1.922-2.265 0-1.14-.734-2.25-1.875-2.25-1.156 0-1.984.906-2.468 1.703zm.265.344c.406-.72 1.14-1.735 2.266-1.735 1.062 0 1.593 1.047 1.593 1.938 0 .984-.671 1.781-1.546 1.781-.579 0-1.016-.406-1.235-.625-.25-.266-.468-.578-1.078-1.36zm-.687.421c-.407.72-1.157 1.735-2.282 1.735-1.046 0-1.593-1.047-1.593-1.938 0-.984.671-1.78 1.546-1.78.579 0 1.032.405 1.235.624.25.266.484.578 1.094 1.36zm0 0"/></symbol><symbol id="l" overflow="visible"><path d="m4.844-3.797c.047-.14.047-.156.047-.234 0-.172-.141-.266-.297-.266a.455.455 0 0 0 -.344.203c-.016.063-.11.36-.14.547-.079.25-.141.531-.204.797l-.453 1.797c-.031.14-.469.844-1.125.844-.5 0-.61-.438-.61-.813 0-.453.173-1.078.5-1.953.157-.406.204-.516.204-.719 0-.437-.313-.812-.813-.812-.953 0-1.312 1.453-1.312 1.531 0 .11.094.11.11.11.109 0 .109-.032.156-.188.28-.938.671-1.235 1.015-1.235.078 0 .25 0 .25.313 0 .25-.11.516-.172.703-.406 1.063-.578 1.625-.578 2.094 0 .89.625 1.187 1.219 1.187.39 0 .719-.171 1-.453-.125.516-.25 1.016-.64 1.547-.266.328-.641.625-1.095.625-.14 0-.593-.031-.765-.422.156 0 .297 0 .422-.125a.493.493 0 0 0 .203-.406c0-.313-.266-.344-.36-.344-.233 0-.562.156-.562.64 0 .5.438.876 1.063.876 1.015 0 2.046-.906 2.328-2.031zm0 0"/></symbol><symbol id="m" overflow="visible"><path d="m2.328-4.438c0-.187 0-.187-.203-.187-.453.438-1.078.438-1.36.438v.25c.157 0 .626 0 1-.188v3.547c0 .234 0 .328-.687.328h-.266v.25c.125 0 .985-.031 1.235-.031.219 0 1.094.031 1.25.031v-.25h-.267c-.703 0-.703-.094-.703-.328zm0 0"/></symbol><symbol id="n" overflow="visible"><path d="m3.516-1.266h-.236c-.015.157-.094.563-.187.625-.047.047-.578.047-.688.047h-1.28c.734-.64.984-.844 1.39-1.172.516-.406 1-.843 1-1.5 0-.843-.734-1.359-1.624-1.359-.86 0-1.454.61-1.454 1.25 0 .344.297.39.376.39a.365.365 0 0 0 .359-.374c0-.125-.047-.375-.406-.375.218-.485.687-.641 1.015-.641.703 0 1.063.547 1.063 1.11 0 .609-.438 1.078-.656 1.328l-1.672 1.671c-.079.063-.079.079-.079.266h2.876zm0 0"/></symbol><symbol id="o" overflow="visible"><path d="m1.906-2.328c.547 0 .938.375.938 1.125 0 .86-.516 1.125-.906 1.125-.282 0-.907-.078-1.188-.5.328 0 .406-.235.406-.39 0-.22-.172-.376-.39-.376a.38.38 0 0 0 -.391.407c0 .656.719 1.077 1.563 1.077.968 0 1.64-.657 1.64-1.344 0-.547-.437-1.094-1.203-1.25.719-.266.984-.781.984-1.219 0-.547-.625-.953-1.406-.953-.766 0-1.36.375-1.36.938 0 .234.157.359.36.359.219 0 .36-.156.36-.344 0-.203-.141-.36-.36-.375.25-.297.719-.375.985-.375.312 0 .75.156.75.75 0 .297-.094.625-.282.828-.219.266-.422.281-.765.313-.172.015-.188.015-.22.015-.015 0-.077.016-.077.094 0 .094.062.094.187.094zm0 0"/></symbol><symbol id="p" overflow="visible"><path d="m3.688-1.14v-.25h-.782v-3.11c0-.14 0-.203-.14-.203-.094 0-.125 0-.188.11l-2.312 3.201v.25h2.062v.563c0 .25 0 .328-.578.328h-.188v.251c.36-.016.797-.031 1.047-.031.266 0 .704.015 1.063.031v-.25h-.188c-.578 0-.578-.078-.578-.328v-.563zm-1.313-2.799v2.547h-1.844zm0 0"/></symbol><path d="m0-.002h226.773" fill="none" stroke="#000" stroke-miterlimit="10" stroke-width=".79701" transform="matrix(1 0 0 -1 23.778 25.553)"/><g><use x="6.641" xlink:href="#a" y="28.763"/><use x="11.622" xlink:href="#b" y="28.763"/></g><use x="259.938" xlink:href="#i" y="28.984"/><path d="m26.613 25.555a2.836 2.836 0 1 0 -5.672 0 2.835 2.835 0 0 0 2.836 2.832 2.835 2.835 0 0 0 2.836-2.832zm85.04 0a2.835 2.835 0 1 0 -5.669 0 2.835 2.835 0 0 0 5.668 0zm56.695 0a2.836 2.836 0 1 0 -5.672 0 2.835 2.835 0 0 0 2.836 2.832 2.835 2.835 0 0 0 2.836-2.832zm85.039 0a2.835 2.835 0 1 0 -2.836 2.832 2.835 2.835 0 0 0 2.836-2.832zm0 0"/><g><use x="14.922" xlink:href="#j" y="37.719"/><use x="22.671" xlink:href="#k" y="37.719"/></g><use x="104.14" xlink:href="#l" y="11.129"/><use x="109.025" xlink:href="#m" y="12.624"/><use x="106.327" xlink:href="#c" y="38.328"/><use x="160.833" xlink:href="#l" y="11.129"/><use x="165.718" xlink:href="#n" y="12.624"/><use x="163.02" xlink:href="#a" y="38.328"/><use x="245.873" xlink:href="#l" y="11.129"/><use x="250.757" xlink:href="#o" y="12.624"/><use x="245.568" xlink:href="#k" y="36.197"/><path d="m0 4.983c.744 1.492 2.491 2.487 4.98 2.487h32.558c2.493 0 4.235.996 4.98 2.492.75-1.496 2.493-2.492 4.985-2.492h32.555c2.492 0 4.234-.996 4.984-2.488" fill="none" stroke="#000" stroke-miterlimit="10" stroke-width=".79701" transform="matrix(1 0 0 -1 23.778 25.553)"/><use x="61.621" xlink:href="#l" y="10.93"/><use x="66.505" xlink:href="#p" y="12.425"/><path d="m0-.002h226.773" fill="none" stroke="#000" stroke-miterlimit="10" stroke-width=".79701" transform="matrix(1 0 0 -1 330.762 25.553)"/><g><use x="313.625" xlink:href="#d" y="28.763"/><use x="318.606" xlink:href="#b" y="28.763"/></g><use x="566.922" xlink:href="#i" y="28.984"/><path d="m333.598 25.555a2.836 2.836 0 1 0 -5.672 0 2.835 2.835 0 0 0 2.836 2.832 2.835 2.835 0 0 0 2.836-2.832zm85.039 0a2.835 2.835 0 1 0 -2.836 2.832 2.835 2.835 0 0 0 2.836-2.832zm56.695 0a2.836 2.836 0 1 0 -5.672 0 2.835 2.835 0 0 0 2.836 2.832 2.835 2.835 0 0 0 2.836-2.832zm85.04 0a2.835 2.835 0 1 0 -2.836 2.832 2.835 2.835 0 0 0 2.835-2.832zm0 0"/><g><use x="321.906" xlink:href="#j" y="37.719"/><use x="329.655" xlink:href="#k" y="37.719"/></g><use x="411.124" xlink:href="#l" y="11.129"/><use x="416.009" xlink:href="#n" y="12.624"/><use x="413.311" xlink:href="#c" y="38.328"/><use x="467.817" xlink:href="#l" y="11.129"/><use x="472.702" xlink:href="#m" y="12.624"/><use x="470.003" xlink:href="#a" y="38.328"/><use x="552.856" xlink:href="#l" y="11.129"/><use x="557.741" xlink:href="#o" y="12.624"/><use x="552.552" xlink:href="#k" y="36.197"/><path d="m0 4.983c.746 1.492 2.492 2.487 4.98 2.487h32.56c2.492 0 4.234.996 4.98 2.492.75-1.496 2.492-2.492 4.98-2.492h32.56c2.492 0 4.234-.996 4.98-2.488" fill="none" stroke="#000" stroke-miterlimit="10" stroke-width=".79701" transform="matrix(1 0 0 -1 330.762 25.553)"/><use x="368.605" xlink:href="#l" y="10.93"/><use x="373.489" xlink:href="#p" y="12.425"/><path d="m0 0h226.773" fill="none" stroke="#000" stroke-miterlimit="10" stroke-width=".79701" transform="matrix(1 0 0 -1 23.778 84.027)"/><g><use x="6.641" xlink:href="#e" y="87.237"/><use x="11.622" xlink:href="#b" y="87.237"/></g><use x="259.938" xlink:href="#i" y="87.459"/><path d="m26.613 84.027a2.836 2.836 0 1 0 -5.671 0 2.836 2.836 0 0 0 5.671 0zm85.04 0a2.835 2.835 0 1 0 -2.833 2.836 2.835 2.835 0 0 0 2.832-2.836zm56.695 0a2.836 2.836 0 1 0 -5.672 0 2.836 2.836 0 0 0 5.672 0zm85.039 0a2.835 2.835 0 1 0 -5.668 0 2.835 2.835 0 1 0 5.668 0zm0 0"/><g><use x="14.922" xlink:href="#j" y="96.193"/><use x="22.671" xlink:href="#k" y="96.193"/></g><use x="104.14" xlink:href="#l" y="69.604"/><use x="109.025" xlink:href="#m" y="71.098"/><use x="106.327" xlink:href="#c" y="96.802"/><use x="160.833" xlink:href="#l" y="69.604"/><use x="165.718" xlink:href="#n" y="71.098"/><use x="163.02" xlink:href="#a" y="96.802"/><use x="245.873" xlink:href="#l" y="69.604"/><use x="250.757" xlink:href="#o" y="71.098"/><use x="245.568" xlink:href="#k" y="94.671"/><path d="m85.042 4.98c.746 1.496 2.489 2.492 4.98 2.492h18.384c2.492 0 4.234.996 4.98 2.492.746-1.496 2.492-2.492 4.984-2.492h18.383c2.489 0 4.235-.996 4.98-2.492" fill="none" stroke="#000" stroke-miterlimit="10" stroke-width=".79701" transform="matrix(1 0 0 -1 23.778 84.027)"/><use x="132.487" xlink:href="#l" y="69.405"/><use x="137.371" xlink:href="#p" y="70.899"/><path d="m0 0h226.773" fill="none" stroke="#000" stroke-miterlimit="10" stroke-width=".79701" transform="matrix(1 0 0 -1 330.762 84.027)"/><g><use x="313.625" xlink:href="#f" y="87.237"/><use x="318.606" xlink:href="#b" y="87.237"/></g><use x="566.922" xlink:href="#i" y="87.459"/><path d="m333.598 84.027a2.836 2.836 0 1 0 -5.672 0 2.836 2.836 0 0 0 5.672 0zm85.039 0a2.835 2.835 0 1 0 -5.668 0 2.835 2.835 0 1 0 5.668 0zm56.695 0a2.836 2.836 0 1 0 -5.671 0 2.836 2.836 0 0 0 5.671 0zm85.04 0a2.835 2.835 0 1 0 -5.668 0 2.835 2.835 0 1 0 5.667 0zm0 0"/><g><use x="321.906" xlink:href="#j" y="96.193"/><use x="329.655" xlink:href="#k" y="96.193"/></g><use x="411.124" xlink:href="#l" y="69.604"/><use x="416.009" xlink:href="#n" y="71.098"/><use x="413.311" xlink:href="#c" y="96.802"/><use x="467.817" xlink:href="#l" y="69.604"/><use x="472.702" xlink:href="#m" y="71.098"/><use x="470.003" xlink:href="#a" y="96.802"/><use x="552.856" xlink:href="#l" y="69.604"/><use x="557.741" xlink:href="#o" y="71.098"/><use x="552.552" xlink:href="#k" y="94.671"/><path d="m85.039 4.98c.75 1.496 2.492 2.492 4.984 2.492h18.383c2.492 0 4.234.996 4.98 2.492.747-1.496 2.493-2.492 4.985-2.492h18.383c2.488 0 4.234-.996 4.98-2.492" fill="none" stroke="#000" stroke-miterlimit="10" stroke-width=".79701" transform="matrix(1 0 0 -1 330.762 84.027)"/><use x="439.471" xlink:href="#l" y="69.405"/><use x="444.355" xlink:href="#p" y="70.899"/><path d="m0-.002h226.773" fill="none" stroke="#000" stroke-miterlimit="10" stroke-width=".79701" transform="matrix(1 0 0 -1 23.778 142.502)"/><g><use x="6.641" xlink:href="#g" y="145.712"/><use x="11.622" xlink:href="#b" y="145.712"/></g><use x="259.938" xlink:href="#i" y="145.933"/><path d="m26.613 142.504a2.836 2.836 0 1 0 -5.672 0 2.835 2.835 0 0 0 2.836 2.832 2.835 2.835 0 0 0 2.836-2.832zm85.04 0a2.835 2.835 0 1 0 -5.669 0 2.835 2.835 0 0 0 5.668 0zm56.695 0a2.836 2.836 0 1 0 -5.672 0 2.835 2.835 0 0 0 2.836 2.832 2.835 2.835 0 0 0 2.836-2.832zm85.039 0a2.835 2.835 0 1 0 -2.836 2.832 2.835 2.835 0 0 0 2.836-2.832zm0 0"/><g><use x="14.922" xlink:href="#j" y="154.668"/><use x="22.671" xlink:href="#k" y="154.668"/></g><use x="104.14" xlink:href="#l" y="128.078"/><use x="109.025" xlink:href="#m" y="129.573"/><use x="106.327" xlink:href="#c" y="155.277"/><use x="160.833" xlink:href="#l" y="128.078"/><use x="165.718" xlink:href="#n" y="129.573"/><use x="163.02" xlink:href="#a" y="155.277"/><use x="245.873" xlink:href="#l" y="128.078"/><use x="250.757" xlink:href="#o" y="129.573"/><use x="245.568" xlink:href="#k" y="153.146"/><path d="m141.734 4.982c.746 1.493 2.492 2.489 4.98 2.489h32.559c2.492 0 4.234.996 4.98 2.492.746-1.496 2.492-2.492 4.985-2.492h32.554c2.493 0 4.235-.996 4.98-2.489" fill="none" stroke="#000" stroke-miterlimit="10" stroke-width=".79701" transform="matrix(1 0 0 -1 23.778 142.502)"/><use x="203.353" xlink:href="#l" y="127.879"/><use x="208.237" xlink:href="#p" y="129.374"/><path d="m0-.002h226.773" fill="none" stroke="#000" stroke-miterlimit="10" stroke-width=".79701" transform="matrix(1 0 0 -1 330.762 142.502)"/><g><use x="313.625" xlink:href="#h" y="145.712"/><use x="318.606" xlink:href="#b" y="145.712"/></g><use x="566.922" xlink:href="#i" y="145.933"/><path d="m333.598 142.504a2.836 2.836 0 1 0 -5.672 0 2.835 2.835 0 0 0 2.836 2.832 2.835 2.835 0 0 0 2.836-2.832zm85.039 0a2.835 2.835 0 1 0 -2.836 2.832 2.835 2.835 0 0 0 2.836-2.832zm56.695 0a2.836 2.836 0 1 0 -5.672 0 2.835 2.835 0 0 0 2.836 2.832 2.835 2.835 0 0 0 2.836-2.832zm85.04 0a2.835 2.835 0 1 0 -2.836 2.832 2.835 2.835 0 0 0 2.835-2.832zm0 0"/><g><use x="321.906" xlink:href="#j" y="154.668"/><use x="329.655" xlink:href="#k" y="154.668"/></g><use x="411.124" xlink:href="#l" y="128.078"/><use x="416.009" xlink:href="#n" y="129.573"/><use x="413.311" xlink:href="#c" y="155.277"/><use x="467.817" xlink:href="#l" y="128.078"/><use x="472.702" xlink:href="#m" y="129.573"/><use x="470.003" xlink:href="#a" y="155.277"/><use x="552.856" xlink:href="#l" y="128.078"/><use x="557.741" xlink:href="#o" y="129.573"/><use x="552.552" xlink:href="#k" y="153.146"/><path d="m141.734 4.982c.746 1.493 2.492 2.489 4.98 2.489h32.56c2.491 0 4.234.996 4.98 2.492.746-1.496 2.492-2.492 4.98-2.492h32.559c2.492 0 4.234-.996 4.98-2.489" fill="none" stroke="#000" stroke-miterlimit="10" stroke-width=".79701" transform="matrix(1 0 0 -1 330.762 142.502)"/><use x="510.337" xlink:href="#l" y="127.879"/><use x="515.221" xlink:href="#p" y="129.374"/></svg>