<svg xmlns="http://www.w3.org/2000/svg" xmlns:xlink="http://www.w3.org/1999/xlink" width="366.053" height="76.653" viewBox="0 0 274.54 57.49"><defs><symbol overflow="visible" id="a"><path d="M2.234-3.516v-2.578c0-.234 0-.36.22-.39.093-.016.39-.016.593-.016.89 0 2 .047 2 1.484 0 .688-.234 1.5-1.703 1.5zm2.11.125c.953-.234 1.734-.843 1.734-1.625 0-.953-1.14-1.796-2.594-1.796H.344v.312h.25c.765 0 .781.11.781.469v5.25c0 .36-.016.469-.781.469h-.25V0c.36-.031 1.078-.031 1.453-.031.39 0 1.11 0 1.469.031v-.313h-.25c-.766 0-.782-.109-.782-.468v-2.516h1.141c.156 0 .578 0 .938.344.375.344.375.656.375 1.328 0 .64 0 1.047.406 1.422.406.36.953.422 1.25.422.781 0 .953-.813.953-1.094 0-.063 0-.172-.125-.172-.11 0-.11.094-.125.156C6.984-.17 6.64 0 6.39 0c-.485 0-.563-.516-.704-1.438l-.14-.796c-.172-.641-.656-.97-1.203-1.157zm0 0"/></symbol><symbol overflow="visible" id="b"><path d="M1.11-2.516C1.171-4 2.015-4.25 2.36-4.25c1.015 0 1.124 1.344 1.124 1.734zm0 .22h2.78c.22 0 .25 0 .25-.22 0-.984-.546-1.953-1.78-1.953C1.202-4.469.28-3.437.28-2.187.281-.86 1.328.108 2.47.108 3.688.11 4.14-1 4.14-1.187c0-.094-.079-.125-.141-.125-.078 0-.11.062-.125.14C3.531-.14 2.625-.14 2.531-.14c-.5 0-.89-.296-1.125-.671-.297-.47-.297-1.125-.297-1.485zm0 0"/></symbol><symbol overflow="visible" id="c"><path d="M3.297 2.39c0-.03 0-.046-.172-.218C1.891.922 1.562-.968 1.562-2.5c0-1.734.375-3.469 1.61-4.703.125-.125.125-.14.125-.172 0-.078-.031-.11-.094-.11-.11 0-1 .688-1.594 1.954C1.11-4.438.984-3.328.984-2.5c0 .781.11 1.984.657 3.125C2.25 1.844 3.094 2.5 3.203 2.5c.063 0 .094-.031.094-.11zm0 0"/></symbol><symbol overflow="visible" id="f"><path d="M2.875-2.5c0-.766-.11-1.969-.656-3.11C1.625-6.827.766-7.483.672-7.483a.107.107 0 00-.11.109c0 .031 0 .047.188.234.984.985 1.547 2.563 1.547 4.641 0 1.719-.36 3.469-1.594 4.719-.14.125-.14.14-.14.172 0 .062.046.109.109.109.094 0 1-.688 1.578-1.953.516-1.094.625-2.203.625-3.047zm0 0"/></symbol><symbol overflow="visible" id="h"><path d="M2.25-6.031c0-.36.016-.469.813-.469h.25v-.313c-.344.032-1.126.032-1.516.032-.375 0-1.172 0-1.516-.032v.313h.25c.797 0 .828.11.828.469v5.25c0 .36-.03.469-.828.469h-.25V0c.344-.031 1.14-.031 1.516-.031.39 0 1.172 0 1.516.031v-.313h-.25c-.797 0-.813-.109-.813-.468zm0 0"/></symbol><symbol overflow="visible" id="i"><path d="M1.094-3.422V-.75c0 .438-.11.438-.782.438V0c.36-.016.86-.031 1.141-.031.25 0 .766.015 1.11.031v-.313c-.672 0-.782 0-.782-.437v-1.844c0-1.031.719-1.594 1.344-1.594.64 0 .75.532.75 1.11V-.75c0 .438-.11.438-.781.438V0c.344-.016.86-.031 1.125-.031.25 0 .781.015 1.11.031v-.313c-.657 0-.766 0-.766-.437v-1.844c0-1.031.703-1.594 1.343-1.594.625 0 .735.532.735 1.11V-.75c0 .438-.11.438-.782.438V0c.344-.016.86-.031 1.125-.031.266 0 .782.015 1.125.031v-.313c-.515 0-.765 0-.78-.296v-1.907c0-.859 0-1.156-.313-1.515-.141-.172-.47-.375-1.047-.375-.828 0-1.282.593-1.438.984-.14-.875-.875-.984-1.328-.984-.734 0-1.203.422-1.484 1.047v-1.047l-1.407.11v.312c.704 0 .782.062.782.562zm0 0"/></symbol><symbol overflow="visible" id="d"><path d="M.453 1.219c-.078.343-.11.406-.547.406-.11 0-.218 0-.218.188 0 .078.046.125.124.125.266 0 .563-.032.829-.032.343 0 .671.032 1 .032.046 0 .171 0 .171-.204 0-.109-.093-.109-.234-.109-.5 0-.5-.063-.5-.156 0-.125.422-1.75.484-2 .125.297.407.64.922.64 1.157 0 2.407-1.453 2.407-2.921 0-.938-.579-1.594-1.329-1.594-.5 0-.984.36-1.312.75-.094-.547-.531-.75-.89-.75-.47 0-.657.39-.735.562-.188.344-.313.938-.313.969 0 .11.094.11.11.11.11 0 .11-.016.172-.235.172-.703.375-1.188.734-1.188.172 0 .313.079.313.454 0 .234-.032.343-.079.515zm1.75-4.328c.063-.266.344-.547.516-.704.36-.296.64-.374.812-.374.39 0 .64.343.64.937 0 .594-.327 1.734-.515 2.11-.344.702-.812 1.03-1.187 1.03-.656 0-.781-.828-.781-.89 0-.016 0-.031.03-.156zm0 0"/></symbol><symbol overflow="visible" id="j"><path d="M7.578-6.922c0-.031-.016-.11-.11-.11-.03 0-.046.016-.155.126l-.688.765c-.094-.14-.547-.89-1.656-.89C2.734-7.031.5-4.828.5-2.516.5-.875 1.672.22 3.203.22c.86 0 1.625-.39 2.156-.86.922-.812 1.094-1.718 1.094-1.75 0-.109-.11-.109-.125-.109-.062 0-.11.031-.125.11-.094.28-.328 1-1.016 1.578-.687.546-1.312.718-1.828.718-.89 0-1.953-.515-1.953-2.062 0-.578.203-2.188 1.203-3.36.61-.703 1.547-1.203 2.438-1.203 1.016 0 1.61.766 1.61 1.922 0 .406-.032.406-.032.516 0 .093.11.093.14.093.126 0 .126-.015.188-.203zm0 0"/></symbol><symbol overflow="visible" id="e"><path d="M3.594-2.219c0-.765-.094-1.328-.406-1.812-.22-.313-.657-.594-1.204-.594C.36-4.625.36-2.719.36-2.219c0 .5 0 2.36 1.625 2.36 1.61 0 1.61-1.86 1.61-2.36zM1.984-.063c-.328 0-.75-.187-.89-.75C1-1.219 1-1.796 1-2.313c0-.515 0-1.046.094-1.421.156-.547.593-.704.89-.704.375 0 .735.235.86.641.11.375.125.875.125 1.485 0 .515 0 1.03-.094 1.468-.14.64-.61.781-.89.781zm0 0"/></symbol><symbol overflow="visible" id="k"><path d="M1.844-4.625c0-.016.031-.11.031-.11 0-.046-.031-.109-.125-.109-.14 0-.719.063-.89.078-.047 0-.157.016-.157.157 0 .093.11.093.188.093.328 0 .328.063.328.11s-.063.328-.11.484l-.156.64C.891-3.031.516-1.515.5-1.421c-.047.172-.047.266-.047.344 0 .703.453 1.14 1.031 1.14.875 0 1.797-.937 1.797-1.968 0-.813-.562-1.172-1.047-1.172-.359 0-.671.203-.875.39zm-.36 4.5c-.328 0-.53-.297-.53-.719 0-.25.062-.484.265-1.281.031-.125.031-.14.172-.297.265-.297.578-.453.828-.453.265 0 .5.203.5.672 0 .281-.14 1-.36 1.406-.171.344-.515.672-.875.672zm0 0"/></symbol><clipPath id="g"><path d="M119 0h1v57.488h-1zm0 0"/></clipPath></defs><path d="M.398 28.746l.997-.996 1.992 1.992 1.992-1.992 1.992 1.992 1.992-1.992 1.992 1.992 1.993-1.992 1.992 1.992 1.996-1.992 1.992 1.992 1.992-1.992 1.992 1.992 1.993-1.992 1.992 1.992 1.992-1.992 1.992 1.992 1.992-1.992 1.993 1.992 1.992-1.992 1.996 1.992 1.992-1.992 1.992 1.992 1.992-1.992 1.993 1.992 1.992-1.992 1.992 1.992 1.992-1.992 1.992 1.992 1.993-1.992 1.992 1.992 1.992-1.992 1.996 1.992 1.992-1.992 1.992 1.992 1.993-1.992 1.992 1.992 1.992-1.992 1.992 1.992 1.992-1.992 1.993 1.992 1.992-1.992 1.996 1.992 1.992-1.992 1.992 1.992 1.992-1.992 1.993 1.992 1.992-1.992 1.992 1.992 1.992-1.992 1.992 1.992 1.993-1.992 1.996 1.992.996-.996h15.441M119.453 28.746h14.945l.997-.996 1.992 1.992 1.992-1.992 1.992 1.992 1.992-1.992 1.992 1.992 1.997-1.992 1.992 1.992 1.992-1.992 1.992 1.992 1.992-1.992 1.993 1.992 1.992-1.992 1.992 1.992 1.992-1.992 1.992 1.992 1.992-1.992 1.997 1.992 1.992-1.992 1.992 1.992 1.992-1.992 1.992 1.992 1.992-1.992 1.993 1.992 1.992-1.992 1.992 1.992 1.992-1.992 1.992 1.992 1.997-1.992 1.992 1.992 1.992-1.992 1.992 1.992 1.992-1.992 1.992 1.992 1.993-1.992 1.992 1.992 1.996-1.992 1.988 1.992 1.992-1.992 1.996 1.992 1.993-1.992 1.992 1.992 1.992-1.992 1.992 1.992 1.992-1.992 1.993 1.992 1.992-1.992 1.996 1.992 1.988-1.992 1.996 1.992.996-.996h3.778" fill="none" stroke-width=".797" stroke="#000" stroke-miterlimit="10"/><path d="M236.25 26.672c.129.777 1.555 1.945 1.941 2.074-.386.129-1.812 1.293-1.941 2.07" fill="none" stroke-width=".6376000000000001" stroke-linecap="round" stroke-linejoin="round" stroke="#000" stroke-miterlimit="10"/><use xlink:href="#a" x="242.228" y="31.236"/><use xlink:href="#b" x="249.561" y="31.236"/><use xlink:href="#c" x="253.989" y="31.236"/><use xlink:href="#d" x="257.864" y="31.236"/><use xlink:href="#e" x="262.877" y="32.73"/><use xlink:href="#f" x="267.346" y="31.236"/><g clip-path="url(#g)"><path d="M119.453 57.094V1.105" fill="none" stroke-width=".797" stroke="#000" stroke-miterlimit="10"/></g><path d="M117.383 2.66c.777-.129 1.941-1.555 2.07-1.941.133.386 1.297 1.812 2.074 1.941" fill="none" stroke-width=".6376000000000001" stroke-linecap="round" stroke-linejoin="round" stroke="#000" stroke-miterlimit="10"/><use xlink:href="#h" x="123.173" y="11.59"/><use xlink:href="#i" x="126.77" y="11.59"/><use xlink:href="#c" x="135.072" y="11.59"/><use xlink:href="#d" x="138.947" y="11.59"/><use xlink:href="#e" x="143.96" y="13.084"/><use xlink:href="#f" x="148.429" y="11.59"/><path d="M237.824 35.832h-106.3a7.085 7.085 0 01-7.087-7.086 7.085 7.085 0 017.086-7.086m0 0h106.301" fill="none" stroke-width=".797" stroke="#009" stroke-miterlimit="10"/><path d="M210.727 37.902c-.13-.777-1.555-1.941-1.942-2.07.387-.129 1.813-1.297 1.942-2.074M152.012 37.902c-.13-.777-1.555-1.941-1.942-2.07.387-.129 1.813-1.297 1.942-2.074M147.488 19.586c.13.777 1.555 1.941 1.946 2.074-.391.13-1.817 1.293-1.946 2.07M206.203 19.586c.129.777 1.555 1.941 1.942 2.074-.387.13-1.813 1.293-1.942 2.07" fill="none" stroke-width=".6376000000000001" stroke-linecap="round" stroke-linejoin="round" stroke="#009" stroke-miterlimit="10"/><use xlink:href="#j" x="222.98" y="16.445" fill="#009"/><use xlink:href="#k" x="230.1" y="17.939" fill="#009"/><path d="M1.086 21.66h106.3a7.085 7.085 0 017.087 7.086 7.085 7.085 0 01-7.086 7.086m0 0H1.086" fill="none" stroke-width=".797" stroke="#009" stroke-miterlimit="10"/><path d="M28.18 19.586c.129.777 1.554 1.941 1.945 2.074-.39.13-1.816 1.293-1.945 2.07M86.895 19.586c.132.777 1.554 1.941 1.945 2.074-.39.13-1.813 1.293-1.945 2.07M91.418 37.902c-.129-.777-1.555-1.941-1.941-2.07.386-.129 1.812-1.297 1.941-2.074M32.703 37.902c-.129-.777-1.555-1.941-1.941-2.07.386-.129 1.812-1.297 1.941-2.074" fill="none" stroke-width=".6376000000000001" stroke-linecap="round" stroke-linejoin="round" stroke="#009" stroke-miterlimit="10"/></svg>