<svg xmlns="http://www.w3.org/2000/svg" xmlns:xlink="http://www.w3.org/1999/xlink" width="359.79" height="347.457"><defs><path id="a" d="M7.297-1.281c.047.89 0 .906-.703.937-.078.063-.078.297 0 .36C7 .016 7.437 0 7.766 0s.843.016 1.203.016c.062-.063.062-.297 0-.36-.75-.031-.781-.078-.844-.984l-.344-4.64c-.031-.594.016-.735.766-.782.062-.062.062-.297 0-.36l-1.438.016-2.328 5.578c-.047.11-.078.157-.11.157-.015 0-.046-.063-.077-.141L2.328-7.094.734-7.109c-.062.062-.062.297 0 .359.766.047.829.063.75.89l-.437 4.532c-.063.656-.203.937-.828.984-.063.063-.063.297 0 .36C.547.016.906 0 1.172 0s.703.016 1.031.016c.063-.063.063-.297 0-.36-.734-.047-.781-.39-.734-1.015l.422-4.407h.015L4.188-.062c.03.078.109.171.171.171s.11-.078.157-.171l2.468-5.813H7Zm0 0"/><path id="b" d="M4.25-1.016c-.406.407-.734.594-1.375.594-.39 0-.844-.234-1.187-.797-.22-.36-.36-.875-.36-1.515l2.922.03c.14 0 .219-.062.219-.187 0-.921-.328-1.921-1.86-1.921-.953 0-2.203.921-2.203 2.593 0 .61.156 1.203.516 1.625.375.438.89.703 1.687.703.829 0 1.422-.39 1.875-.953-.046-.11-.109-.172-.234-.172M1.36-3.109c.218-1.235.984-1.328 1.25-1.328.421 0 .906.218.906 1.156 0 .094-.047.14-.157.14Zm0 0"/><path id="c" d="M4.375-1c-.047-.094-.125-.14-.234-.156-.375.484-.844.734-1.313.734-.797 0-1.469-.828-1.469-2.11 0-1.202.516-1.937 1.25-1.937.641 0 .735.39.782.766.03.297.187.406.422.406.218 0 .53-.14.53-.484 0-.61-.624-1.047-1.687-1.047-1.078 0-2.25.984-2.25 2.547 0 1.406.797 2.39 2.172 2.39C3.25.11 3.828-.094 4.375-1m0 0"/><path id="d" d="M1.844-3.14c0-.235.093-.376.187-.47.406-.406.969-.64 1.406-.64.22 0 .454.14.579.39.109.22.125.516.125.844v1.672c0 .907-.11.953-.672 1-.063.063-.063.297 0 .36C3.766.016 4.14 0 4.594 0 5.03 0 5.39.016 5.75.016c.063-.063.063-.297 0-.36-.61-.047-.734-.094-.734-1v-1.64c0-.61-.047-1.141-.297-1.47-.188-.25-.532-.374-.907-.374-.546 0-1.203.14-1.874.89 0 .016-.016.016-.032.016-.031.047-.078.11-.078-.015l.016-2.47c0-.718.031-1.155.031-1.155 0-.079-.031-.11-.14-.11-.266.11-1.094.266-1.532.297-.031.078 0 .266.063.328h.093c.485.031.61.031.61.89v4.813c0 .922-.125.953-.766 1-.078.063-.078.297 0 .36C.563.016.97 0 1.406 0c.422 0 .782.016 1.094.016.063-.063.063-.297 0-.36-.562-.047-.656-.078-.656-1Zm0 0"/><path id="e" d="M3.219-.531c.062.344.187.64.734.64.422 0 .828-.187 1.047-.406-.016-.125-.062-.234-.187-.297-.079.063-.266.172-.407.172-.312 0-.328-.422-.328-.937v-1.61c0-1.562-.86-1.86-1.656-1.86-.906 0-1.813.595-1.813 1.22 0 .265.125.39.375.39.329 0 .516-.219.516-.375 0-.062 0-.14-.031-.187 0-.031-.016-.11-.016-.219 0-.344.453-.469.875-.469.375 0 .89.188.89 1.438 0 .078-.03.11-.062.125l-.937.234C1.156-2.406.39-1.828.39-1.078c0 .906.625 1.187 1.39 1.187.39 0 .719-.093 1.203-.468l.22-.172Zm0-2.031v1.453c0 .14-.063.218-.156.28-.282.235-.657.485-.97.485-.546 0-.78-.437-.78-.781 0-.484.234-1 1.046-1.203Zm0 0"/><path id="f" d="M2.031-3.937c-.078.078-.14.093-.14 0-.016-.297-.032-.72-.094-.844-.016-.047-.031-.078-.125-.078-.313.125-.594.218-1.36.312-.015.063 0 .25.032.313.594.046.719.109.719.75v2.14c0 .907-.11.953-.782 1-.062.063-.062.297 0 .36C.61.016 1.063 0 1.5 0s.766.016 1.094.016c.062-.063.062-.297 0-.36-.563-.047-.672-.094-.672-1V-3.14a.7.7 0 0 1 .187-.468c.422-.407.922-.641 1.344-.641.219 0 .453.14.578.39.11.22.14.516.14.844v1.672c0 .907-.109.953-.687 1-.046.063-.046.297 0 .36C3.813.016 4.172 0 4.61 0s.829.016 1.172.016c.047-.063.047-.297 0-.36-.625-.047-.75-.094-.75-1v-1.64c0-.61-.031-1.125-.297-1.47-.187-.25-.515-.374-.906-.374-.547 0-1.156.14-1.797.89m0 0"/><path id="g" d="M1.984-1.344V-3.53c0-.547.047-1.25.047-1.25 0-.047-.047-.078-.14-.078-.313.125-.75.218-1.5.312-.032.063 0 .25.015.313.61.046.719.125.719.75v2.14c0 .922-.125.953-.797 1-.062.063-.062.297 0 .36C.688.016 1.125 0 1.563 0 2 0 2.422.016 2.78.016c.063-.063.063-.297 0-.36-.672-.047-.797-.078-.797-1m-1-5.25c0 .297.266.578.532.578.312 0 .578-.296.578-.53 0-.266-.235-.563-.531-.563-.266 0-.579.25-.579.515m0 0"/><path id="h" d="M1.047-1.344c0 .922-.125.969-.797 1-.062.063-.062.297 0 .36C.64.016 1.047 0 1.484 0c.438 0 .86.016 1.22.016.062-.063.062-.297 0-.36-.673-.031-.798-.078-.798-1v-5.062c0-.719.047-1.157.047-1.157 0-.078-.047-.109-.14-.109-.266.11-1.094.266-1.532.297-.031.078 0 .266.063.328.64.047.703.078.703.89Zm0 0"/><path id="D" d="M3.844-1.344v-4.203c0-.703.11-1.125.515-1.125h.235c.828 0 1.343.297 1.531 1.14.125 0 .281-.015.375-.062a13 13 0 0 1-.14-1.562s-.016-.032-.032-.032c-.375.032-1.594.094-2.469.094h-.937c-.86 0-2.156-.062-2.563-.093-.03 0-.046.03-.046.03-.047.5-.157 1.079-.282 1.595.11.046.25.062.375.062.219-.875.735-1.172 1.453-1.172h.532c.422 0 .53.422.53 1.094v4.234c0 .922-.187.969-1.077 1-.063.063-.063.297 0 .36C2.39.016 2.954 0 3.39 0c.422 0 .968.016 1.53.016.063-.063.063-.297 0-.36-.89-.031-1.077-.078-1.077-1m0 0"/><path id="E" d="M1.938-3.937c-.032-.438-.032-.72-.094-.844-.016-.047-.047-.078-.125-.078-.313.125-.594.218-1.36.312-.015.063 0 .25.032.313.593.046.703.109.703.75v2.14c0 .922-.125.953-.813 1-.062.063-.062.297 0 .36C.671.016 1.094 0 1.547 0c.437 0 .937.016 1.328.016.063-.063.063-.297 0-.36-.781-.047-.906-.078-.906-1v-1.531c0-.281.125-.531.265-.734.125-.172.375-.532.5-.532.11 0 .204.016.297.141.078.11.203.25.39.25.267 0 .517-.281.517-.547 0-.219-.204-.531-.657-.531-.515 0-.969.484-1.219.906-.078.125-.124.031-.124-.015m0 0"/><path id="F" d="M1.875-3.937c-.016-.329-.031-.72-.094-.844-.015-.047-.047-.078-.125-.078-.312.125-.593.218-1.36.312-.015.063 0 .25.017.313.593.046.718.109.718.75v2.14c0 .907-.14.953-.75 1-.062.063-.062.297 0 .36C.61.016 1.031 0 1.47 0s.781.016 1.11.016c.077-.063.077-.297 0-.36-.548-.047-.673-.094-.673-1V-3.14c0-.234.094-.375.188-.468.437-.422.844-.641 1.187-.641.422 0 .719.25.719 1v1.906c0 .907-.078.953-.672 1-.062.063-.062.297 0 .36C3.594.016 4 0 4.438 0c.453 0 .812.016 1.078.016.062-.063.062-.297 0-.36-.547-.047-.641-.094-.641-1v-1.75c0-.156 0-.312-.016-.437.532-.578 1.032-.719 1.454-.719s.656.234.656.969v1.937c0 .907-.11.953-.672 1-.063.063-.063.297 0 .36.266 0 .672-.016 1.11-.016.452 0 .827.016 1.14.016.062-.063.062-.297 0-.36-.61-.047-.703-.094-.703-1v-1.734c0-.985-.172-1.75-1.14-1.75-.548 0-1.235.203-1.813.812-.032.032-.094.094-.11-.015-.11-.453-.531-.797-1.11-.797-.64 0-1.202.375-1.671.89-.047.047-.125.126-.125 0m0 0"/><path id="J" d="M3.922.11C5 .11 5.969-.39 6.719-1.376c-.047-.094-.125-.172-.25-.172-.782.86-1.532 1.203-2.547 1.203-1.485 0-2.516-1.672-2.516-3.281 0-.937.25-1.734.657-2.234.546-.657 1.187-.97 1.75-.97 1.515 0 2.125.907 2.406 1.845.14.046.25.015.375-.047-.063-.578-.14-1.11-.25-1.719-.563-.047-1.047-.484-2.407-.484-.937 0-1.718.343-2.359.937-.734.672-1.172 1.75-1.172 2.89C.406-1.5 1.562.11 3.922.11m0 0"/><path id="i" d="M2.188-7.219c0 .11.124.172.359.172q.656 0 .656.14c0 .032-.031.11-.062.25L1.719-.906c-.063.25-.172.391-.328.438-.079.031-.282.047-.625.047-.235 0-.344.016-.344.25 0 .11.062.172.203.172L2.063-.03 3.687 0c.172 0 .266-.094.266-.25 0-.187-.125-.172-.406-.172-.485 0-.766-.031-.828-.078-.031-.016-.047-.062-.047-.11l.703-2.921h1.031c.5 0 .86.015.86.437 0 .14-.032.328-.079.531-.015.032-.03.079-.046.126 0 .109.062.171.187.171.047-.015.125-.093.203-.25l.594-2.375c.031-.078.031-.14.031-.187-.031-.094-.093-.14-.172-.14-.093 0-.156.077-.203.25-.11.421-.265.671-.437.812-.172.125-.485.203-.922.203h-.938l.688-2.719c.078-.375.078-.375.547-.375h1.437c1.063 0 1.547.156 1.547 1.14 0 .22-.016.423-.031.579-.016.125-.031.187-.031.203 0 .125.062.172.172.172s.171-.094.203-.313l.218-1.875c.032-.312-.046-.343-.343-.343H2.563c-.25 0-.376.015-.376.265m0 0"/><path id="m" d="M7.672-4.031H.875c-.172 0-.266.078-.266.25 0 .156.094.25.266.25h6.797c.187 0 .266-.094.266-.25 0-.14-.11-.25-.266-.25m0 2.062H.875c-.172 0-.266.094-.266.25 0 .172.094.25.266.25h6.797c.187 0 .266-.078.266-.25 0-.14-.11-.25-.266-.25m0 0"/><path id="n" d="M7.672-2.969H.875c-.172 0-.266.078-.266.219 0 .14.094.219.266.219h6.797c.187 0 .266-.078.266-.219 0-.125-.125-.219-.266-.219m0 0"/><path id="o" d="M6.11-7.516H2.577c-.25 0-.36.016-.36.25 0 .125.11.188.36.188.219 0 .656-.031.656.14q0 .024-.046.188L1.734-.906c-.062.25-.171.39-.328.437-.078.031-.265.047-.61.047-.25 0-.359.016-.359.25 0 .11.063.172.22.172L2.03-.031l.703.015c.11 0 .547.016.704.016.171 0 .265-.094.265-.266 0-.109-.125-.156-.36-.156-.437 0-.655-.047-.655-.156 0 0 0-.031.03-.172l.657-2.687h1.813c.718 0 1.406-.22 2.046-.641.704-.469 1.063-1.063 1.063-1.75 0-1.094-1.031-1.688-2.188-1.688m-.344.438c.953 0 1.422.328 1.422.984 0 .61-.297 1.438-.625 1.735-.407.359-.97.547-1.641.547H3.438l.734-2.891c.078-.375.078-.375.547-.375Zm0 0"/><path id="p" d="M6.297-7.516c-.156 0-.25.094-.25.25 0 .11.078.172.219.188.312 0 .468.11.468.297 0 .11-.062.234-.156.406L3.297-1.172l-.719-5.64c0-.188.235-.266.703-.266.219 0 .313-.078.313-.266 0-.11-.063-.172-.188-.172-.25 0-1.11.032-1.344.032-.218 0-.968-.032-1.187-.032-.172 0-.266.094-.266.25q0 .188.329.188c.187 0 .312.016.406.031.172.063.156.078.203.297L2.39-.047c.046.188.125.281.265.281.156 0 .266-.062.344-.218l3.922-6.22c.25-.39.484-.655.734-.75a1.5 1.5 0 0 1 .61-.124c.125-.016.187-.094.187-.266.016-.11-.047-.172-.187-.172-.157 0-.72.032-.891.032-.203 0-.86-.032-1.078-.032m0 0"/><path id="G" d="M9.688-7.344c0-.11-.063-.172-.188-.172l-1.406.032-1.39-.032c-.188 0-.25.11-.25.266 0 .078.03.14.077.14.11.016.203.032.25.032.344 0 .532.031.594.031.047.016.078.047.078.11a.8.8 0 0 1-.047.187l-.64 2.625H3.53l.64-2.5c.048-.234.157-.375.298-.422.078-.031.265-.031.562-.031s.422 0 .422-.266c0-.11-.062-.172-.187-.172l-1.407.032-1.406-.032c-.172 0-.25.11-.25.266 0 .078.031.14.094.14.11.016.203.032.25.032.344 0 .547.031.594.031.062.016.078.047.078.11 0 .015 0 .078-.047.187L1.719-.906c-.063.25-.172.39-.328.437-.079.031-.282.047-.625.047-.235 0-.344.016-.344.25C.422-.062.5 0 .625 0l1.39-.031.688.015c.125 0 .578.016.703.016.188 0 .266-.094.266-.266 0-.109-.125-.156-.344-.156-.453 0-.672-.047-.672-.156 0 0 .016-.031.031-.172l.75-2.953h3.22L5.921-.75c-.031.172-.172.281-.39.313-.048.015-.235.015-.563.015-.203 0-.313.078-.313.25 0 .11.078.172.203.172L6.25-.031l.688.015c.125 0 .578.016.718.016.172 0 .266-.094.266-.266 0-.109-.125-.156-.36-.156-.453 0-.671-.047-.671-.156 0 0 .015-.031.046-.172l1.47-5.875c.046-.234.155-.375.296-.422.063-.031.25-.031.563-.031.297 0 .422 0 .422-.266m0 0"/><path id="H" d="M3.781-6.937c0 .03-.015.109-.047.218L2.281-.906a.8.8 0 0 1-.11.297c-.108.125-.483.187-1.14.187-.343 0-.5-.047-.5.25 0 .11.078.172.235.172.547 0 1.343-.047 1.812-.031l.906.015c.157 0 .766.016.954.016s.265-.094.265-.266c0-.109-.125-.156-.406-.156-.563 0-.89-.031-1-.078Q3.25-.547 3.25-.64l1.484-6c.032-.141.063-.25.094-.282q.07-.093.797-.094c.594 0 1.016.047 1.234.141.204.094.313.328.313.703a5.6 5.6 0 0 1-.094.86c-.016.093-.031.156-.031.203q0 .187.187.187.141 0 .188-.281l.297-1.89c.015-.063.031-.126.031-.188 0-.11-.11-.172-.344-.172H1.375c-.281 0-.312.047-.39.25L.327-5.297c-.031.11-.047.172-.062.219 0 .11.046.156.172.156.093 0 .171-.078.218-.25.282-.797.547-1.297.813-1.5.281-.234.828-.344 1.64-.344h.422c.125 0 .25-.015.25.079m0 0"/><path id="I" d="M1.469-1.734c0-.25.031-.485.078-.657 0-.109-.047-.156-.172-.156-.062 0-.094.016-.125.031C1.203-2.453.578-.094.578.094c0 .094.047.14.156.14C.797.234.875.187.97.063l.5-.579c.375.5 1 .75 1.828.75.734 0 1.36-.296 1.937-.875.579-.578.86-1.234.86-1.953a1.78 1.78 0 0 0-.532-1.312 2.1 2.1 0 0 0-.671-.36c-.25-.062-.485-.125-.735-.187l-.718-.203c-.376-.094-.641-.5-.641-.938 0-.484.187-.89.562-1.234.391-.36.829-.531 1.297-.531 1.016 0 1.516.547 1.516 1.64 0 .203-.047.422-.047.61v.03c.031.079.094.11.172.11.11 0 .172-.078.219-.25l.578-2.375c0-.11-.047-.156-.157-.156-.062 0-.14.047-.234.172L6.22-7c-.297-.5-.813-.75-1.563-.75-.687 0-1.312.266-1.86.781-.577.516-.858 1.125-.858 1.828 0 .782.515 1.407 1.171 1.594l1.141.297c.594.156.969.375.969 1.11 0 .5-.188.953-.578 1.343q-.586.61-1.313.61c-1.078 0-1.86-.47-1.86-1.547m0 0"/><path id="K" d="M3.563.234q1.453 0 2.296-.89c.063.156.344.64.5.64a.12.12 0 0 0 .11-.078 8 8 0 0 0 .203-.656l.187-.828c.079-.266.11-.453.141-.563.125-.484.125-.484.719-.484.14 0 .218-.094.218-.266 0-.109-.062-.171-.187-.171-.203 0-.937.046-1.14.03l-1.532-.03c-.172 0-.266.093-.266.265 0 .11.079.14.204.156.625.032.953.063.984.079.031.015.047.062.047.124 0 .079-.078.407-.219.97-.219.796-1.031 1.28-2.062 1.28-1.328 0-2.141-.89-2.141-2.234 0-.203.031-.469.063-.765.109-.907.703-2.172 1.187-2.75.547-.704 1.563-1.391 2.688-1.391 1.14 0 1.703.875 1.703 2.062 0 .094-.032.454-.032.547s.063.157.204.157a.3.3 0 0 0 .125-.032.4.4 0 0 0 .109-.218l.687-2.782c0-.11-.046-.156-.171-.156-.032 0-.11.031-.188.14l-.719.798C6.86-7.437 6.25-7.75 5.47-7.75c-.61 0-1.203.14-1.813.406q-1.83.868-2.673 2.719a4.1 4.1 0 0 0-.437 1.844c0 1.765 1.25 3.015 3.016 3.015m0 0"/><path id="L" d="M6.297-1.562c0-.094-.063-.157-.188-.157-.078 0-.14.078-.187.219-.219.89-.484 1.328-.781 1.328-.172 0-.282-.156-.282-.469 0-.187.063-.562.22-1.109l.296-1.172c.11-.406.188-.672.25-1.015l.078-.313c.016-.078.031-.125.031-.156 0-.219-.125-.328-.359-.328-.25 0-.406.125-.469.406l-.797 3.14c0 .125-.171.344-.515.672-.25.235-.531.344-.844.344-.5 0-.766-.297-.766-.906 0-.203.047-.5.157-.906l.453-1.828c.094-.344.14-.594.172-.704 0-.234-.125-.343-.375-.343q-.352 0-.47.422L.36 1.859c-.015.094-.03.141-.03.172 0 .235.124.344.359.344.156 0 .296-.094.406-.25.047-.078.218-.844.593-2.281.266.203.594.297 1.016.297.656 0 1.078-.344 1.422-.735.125.407.484.735 1 .735.766 0 .984-.891 1.172-1.703m0 0"/><path id="M" d="M9.5-7.516c-.203 0-.89.032-1.094.032-.219 0-.906-.032-1.11-.032-.171 0-.25.094-.25.266 0 .094.079.156.25.172.454 0 .688.14.688.422 0 .062-.015.14-.015.218L6.78-1.734 4.406-7.281c-.078-.203-.11-.235-.375-.235H2.563c-.266 0-.36.032-.36.266 0 .11.125.172.344.172.469 0 .703 0 .703.031L1.797-1.203c-.11.422-.36.672-.75.734-.281.047-.625 0-.625.297C.422-.062.5 0 .609 0 .813 0 1.5-.031 1.703-.031S2.625 0 2.828 0c.156 0 .235-.094.235-.266 0-.093-.079-.156-.25-.156-.454-.016-.672-.156-.672-.437 0-.047 0-.125.03-.235l1.423-5.625 2.75 6.485c.062.156.14.234.25.234.093 0 .156-.094.203-.266l1.531-6.046c.14-.563.453-.766 1.125-.766q.235-.024.235-.281c-.032-.094-.047-.157-.188-.157m0 0"/><path id="aa" d="M7.672-3.016H4.547v-3.14c0-.172-.094-.25-.266-.25s-.265.078-.265.25v3.14H.875c-.172 0-.266.094-.266.266s.094.266.266.266h3.14v3.14c0 .172.094.25.266.25s.266-.078.266-.25v-3.14h3.125c.187 0 .266-.094.266-.266 0-.14-.11-.266-.266-.266m0 0"/><path id="j" d="M1.797 1.563h-.578v-6.97h.578c.11 0 .172-.062.172-.187s-.063-.187-.172-.187H.875v7.703h.922c.11 0 .172-.063.172-.188 0-.078-.078-.171-.172-.171m0 0"/><path id="k" d="M4.188-3.312a.38.38 0 0 0-.344.187c0 .031-.047.172-.125.453l-.39 1.578c-.032.125-.063.235-.11.297-.297.406-.625.625-.985.625-.39 0-.593-.219-.593-.656 0-.11.03-.344.125-.703l.39-1.594c0-.172-.094-.266-.297-.266-.187 0-.312.11-.39.375L.422 1.204c-.031.093-.031.14-.031.171q0 .281.28.281c.204 0 .329-.14.407-.406l.328-1.36c.219.126.485.204.797.204.297 0 .578-.094.86-.313.03-.031.109-.093.218-.203q.187.516.797.516c.266 0 .469-.14.625-.422.063-.11.266-.625.266-.766 0-.093-.047-.125-.14-.125-.048 0-.079 0-.095.016a.8.8 0 0 0-.109.234q-.187.798-.516.797c-.156 0-.234-.125-.234-.36 0-.077.047-.28.125-.577l.156-.688.188-.672c.078-.344.125-.531.125-.578 0-.156-.125-.265-.282-.265m0 0"/><path id="l" d="M.344 1.922h.922v-7.703H.344c-.11 0-.172.062-.172.187s.062.188.172.188h.578v6.969H.344c-.11 0-.172.062-.172.171 0 .125.062.188.172.188m0 0"/><path id="q" d="M.39-2.219c0 .39.032 2.438 1.86 4.016a.24.24 0 0 0 .188-.156C2.14 1.313 1.125.094 1.125-2.22s1.031-3.53 1.313-3.842a.22.22 0 0 0-.188-.157c-1.047.89-1.86 2.36-1.86 4m0 0"/><path id="r" d="M3.313-5.781c-1.47 0-2.985 1.14-2.985 3.078C.328-1.125 1.422.094 3.094.094c1.047 0 1.86-.219 2.453-.735-.094-.078-.14-.156-.14-.25v-1.015c0-.313.155-.407.406-.422.062-.063.062-.266 0-.313-.204 0-.422.016-.782.016-.297 0-.703-.016-1.093-.016-.047.047-.047.25 0 .313.484.031.718.062.718.422v1.344c-.297.28-.875.328-1.36.328-1.39 0-2.124-1.485-2.124-2.641 0-1.547 1-2.594 2.016-2.594 1.28 0 1.64.735 1.874 1.485.094.015.188-.016.282-.047-.016-.375-.063-.735-.203-1.36-.516-.093-.844-.39-1.828-.39m0 0"/><path id="s" d="M1.547-3.156c-.016-.344-.031-.578-.063-.656-.03-.047-.046-.079-.109-.079-.25.094-.484.172-1.078.25-.031.063 0 .204.016.25.468.047.562.094.562.61v1.703c0 .734-.094.766-.64.812-.063.047-.063.235 0 .282.296 0 .64-.016 1-.016.343 0 .75.016 1.062.016.047-.047.047-.235 0-.282-.61-.046-.719-.078-.719-.812v-1.219c0-.234.11-.437.203-.594.094-.14.297-.421.407-.421.078 0 .156.015.234.109.062.094.172.203.312.203.22 0 .422-.219.422-.437 0-.172-.172-.422-.531-.422-.422 0-.781.39-.984.734-.047.094-.094.016-.094-.031m0 0"/><path id="t" d="M2.578-.422c.047.266.156.516.594.516.328 0 .64-.156.828-.328-.016-.11-.047-.188-.14-.235-.063.047-.22.14-.329.14-.265 0-.265-.343-.265-.75v-1.296c0-1.25-.688-1.484-1.328-1.484-.72 0-1.454.468-1.454.968 0 .22.11.329.313.329.25 0 .406-.188.406-.313 0-.047 0-.11-.031-.156 0-.016-.016-.078-.016-.172 0-.266.375-.375.703-.375.297 0 .72.156.72 1.156 0 .063-.032.094-.048.094l-.765.187C.922-1.92.313-1.453.313-.859c0 .718.5.953 1.109.953.312 0 .578-.078.969-.375l.172-.14Zm0-1.625V-.89c0 .11-.047.172-.125.235-.234.187-.531.39-.765.39a.617.617 0 0 1-.641-.625c0-.406.187-.812.828-.968Zm0 0"/><path id="u" d="M1.625-3.156c-.062.062-.11.094-.11 0-.015-.235-.03-.578-.077-.656-.016-.047-.032-.079-.094-.079-.25.094-.485.172-1.094.25a.7.7 0 0 0 .016.25c.484.047.578.094.578.61v1.703c0 .719-.094.766-.61.812-.062.047-.062.235 0 .282C.5.016.844 0 1.204 0c.343 0 .609.016.874.016.047-.047.047-.235 0-.282-.453-.046-.531-.093-.531-.812v-1.438c0-.187.078-.296.14-.375.329-.312.735-.515 1.079-.515.172 0 .359.11.468.312.079.188.094.422.094.688v1.328c0 .719-.078.766-.547.812-.031.047-.031.235 0 .282.266 0 .547-.016.906-.016.344 0 .672.016.938.016.031-.047.031-.235 0-.282-.5-.046-.594-.093-.594-.812v-1.313c0-.484-.031-.906-.234-1.171-.156-.188-.422-.297-.735-.297-.437 0-.921.109-1.437.703m0 0"/><path id="v" d="M2.938-.437c.046-.032.124-.063.124 0 .032.218.11.53.11.53.062.016.11.016.156 0 .203-.171.5-.296 1.047-.359.047-.046.047-.187 0-.234-.562-.047-.64-.219-.64-.64v-3.985c0-.578.03-.922.03-.922 0-.062-.03-.094-.109-.094-.219.094-.89.22-1.234.235-.016.078 0 .218.047.265h.078c.39.032.484.032.484.72v1.124c0 .063-.015.078-.078.078-.031 0-.39-.14-.687-.14-.578 0-.97.187-1.313.53-.375.376-.61.892-.61 1.548 0 1.078.548 1.875 1.5 1.875.345 0 .657-.188 1.095-.531m.093-.657c0 .172-.015.235-.14.344-.328.281-.61.422-.828.422-.47 0-.97-.516-.97-1.61 0-.64.126-.984.266-1.171a.89.89 0 0 1 .813-.438.91.91 0 0 1 .719.313c.125.14.14.203.14.468Zm0 0"/><path id="w" d="M1.375-3.234c-.016-.266-.031-.5-.078-.578-.016-.047-.031-.079-.094-.079-.25.094-.484.172-1.094.25a.7.7 0 0 0 .016.25c.484.047.578.094.578.61v3.75c0 .734-.094.765-.625.797-.062.062-.062.234 0 .297.297-.016.625-.016.985-.016.343 0 .765 0 1.062.015.047-.062.047-.234 0-.296-.625-.032-.719-.063-.719-.797V.016c0-.11.032-.11.11-.063.218.078.484.14.765.14.5 0 .938-.155 1.297-.5.422-.405.656-.952.656-1.655 0-.938-.656-1.797-1.562-1.797-.406 0-.844.265-1.203.656-.047.047-.094.047-.094-.031m.172.328c.219-.281.625-.547.875-.547.562 0 1.047.625 1.047 1.625 0 .719-.25 1.61-1.235 1.61-.156 0-.468-.032-.625-.173-.171-.156-.203-.218-.203-.53v-1.61c0-.172.032-.25.14-.375m0 0"/><path id="x" d="M.36-1.797c0 .89.593 1.89 1.843 1.89.563 0 1-.202 1.297-.5.39-.39.578-.937.578-1.468 0-.922-.5-1.984-1.86-1.984-.577 0-1.046.234-1.374.609-.313.375-.485.89-.485 1.453m1.734-1.75c.75 0 1.219.672 1.219 1.953 0 1.094-.563 1.375-.985 1.375-.906 0-1.203-1.11-1.203-1.781 0-.766.172-1.547.969-1.547m0 0"/><path id="y" d="M.375-3.781c-.125 0-.156.11-.156.187v.11c0 .046.015.046.047.046H.78V-.78c0 .625.282.875.672.875.406 0 .86-.203 1.188-.594-.016-.078-.063-.14-.157-.14-.218.171-.484.25-.718.25-.235 0-.282-.266-.282-.813v-2.234h.907c.093 0 .218-.032.218-.11v-.172c0-.031-.03-.062-.078-.062H1.484v-.328c0-.578.032-.938.032-.938 0-.047-.032-.078-.079-.078-.03 0-.109.047-.187.078a.7.7 0 0 1-.297.125c-.11.047-.203.063-.203.125 0 .11.031.047.031 1.016Zm0 0"/><path id="z" d="M3.39-.812c-.328.328-.578.468-1.078.468-.328 0-.687-.187-.968-.625-.172-.297-.282-.703-.282-1.219l2.344.032c.11 0 .172-.063.172-.156 0-.735-.265-1.532-1.5-1.532-.765 0-1.75.735-1.75 2.063 0 .5.125.968.406 1.312.297.344.72.563 1.344.563.672 0 1.156-.313 1.5-.766-.031-.094-.078-.14-.187-.14M1.095-2.484c.172-.985.781-1.063.984-1.063.344 0 .735.172.735.922 0 .078-.032.125-.126.125Zm0 0"/><path id="A" d="M1.594-1.078v-1.75c0-.438.031-1 .031-1 0-.031-.047-.063-.11-.063-.25.094-.593.172-1.202.25a.7.7 0 0 0 .015.25c.485.047.563.094.563.61v1.703c0 .734-.094.766-.625.812-.047.047-.047.235 0 .282C.546.016.89 0 1.25 0c.344 0 .688.016.969.016.062-.047.062-.235 0-.282-.531-.046-.625-.078-.625-.812M.797-5.266c0 .22.203.454.422.454.234 0 .453-.235.453-.422 0-.203-.188-.453-.422-.453-.219 0-.453.203-.453.421m0 0"/><path id="B" d="M.828-1.078c0 .734-.094.781-.625.812-.047.047-.047.235 0 .282C.516.016.828 0 1.187 0c.36 0 .688.016.97.016.062-.047.062-.235 0-.282-.532-.03-.626-.078-.626-.812v-4.047c0-.578.032-.922.032-.922 0-.062-.032-.094-.11-.094-.219.094-.875.22-1.234.235-.016.078 0 .218.047.265.515.032.562.063.562.72Zm0 0"/><path id="C" d="M2.234-2.219c0-.39-.03-2.422-1.859-4.015-.094.03-.156.078-.187.156.28.328 1.312 1.547 1.312 3.86S.469 1.311.188 1.624c.03.094.078.156.187.156 1.047-.89 1.86-2.36 1.86-4m0 0"/><path id="ab" d="M1.469-3.469c-.047.063-.094.031-.094-.047v-1.609c0-.578.047-.922.047-.922 0-.062-.047-.094-.125-.094-.219.094-.875.22-1.219.235-.031.078 0 .218.047.265h.078c.39.032.485.032.485.72v4.296c0 .344-.016.5-.032.625.031.078.078.11.188.11.047-.063.14-.141.219-.22.078-.109.14-.109.234-.015.203.156.469.219.766.219.906 0 1.953-.828 1.953-2.219 0-1.078-.797-1.734-1.563-1.734-.375 0-.719.14-.984.39m.062.281a1.1 1.1 0 0 1 .75-.28c.531 0 .969.64.969 1.5 0 1-.406 1.75-1.234 1.75-.282 0-.453-.188-.641-.407v-2.203c0-.188.047-.266.156-.36m0 0"/><path id="ac" d="M.422-1.219C.453-.78.484-.375.484 0c.094-.016.172-.031.22-.031a.7.7 0 0 1 .171.015c.25.063.484.11.813.11.484 0 1.39-.25 1.39-1.11 0-.609-.437-.953-1.031-1.171-.531-.204-.875-.344-.875-.829 0-.359.312-.562.61-.562.202 0 .702.078.827.828.047.047.22.047.282-.016.015-.312.03-.64.046-.921-.265-.047-.687-.172-1.156-.172-.64 0-1.234.422-1.234.984 0 .64.281.906.969 1.188.734.312.89.484.89.875 0 .421-.422.609-.75.609-.343 0-.531-.11-.625-.203C.844-.61.75-1 .688-1.22c-.047-.062-.22-.047-.266 0m0 0"/><path id="ad" d="M2.39-1.969c.11 0 .235-.234.235-.343 0-.094-.031-.172-.125-.172H.578c-.11 0-.219.203-.219.359 0 .078.047.156.125.156Zm0 0"/><path id="ae" d="M1.297-5.672c-.313 0-.781-.016-1.125-.016-.063.047-.063.235 0 .282.61.031.766.078.766.812v3.516c0 .734-.157.781-.766.812-.063.047-.063.235 0 .282C.516.016.969 0 1.312 0c.33 0 .688.016 1.595.016 1.25 0 2.875-.563 2.875-2.72 0-1.64-1.343-2.983-3.031-2.983-.625 0-1.11.015-1.453.015m.39 4.938V-4.97c0-.297.297-.422.735-.422 1.89 0 2.516 1.532 2.516 2.891 0 1.781-1.063 2.219-2.297 2.219-.86 0-.953-.172-.953-.453m0 0"/><path id="af" d="M1.906.094c.344 0 .766-.188 1.188-.531.047-.032.125-.063.14 0 .016.218.094.53.094.53.063.016.11.016.172 0 .188-.171.5-.296 1.031-.359.047-.046.047-.187 0-.234-.562-.047-.64-.219-.64-.64v-1.688c0-.266.03-.906.03-.906a.07.07 0 0 0-.062-.063c-.046.016-.187.016-.312.016-.281 0-.594 0-.906-.016-.047.063-.047.25 0 .297.437.031.547.125.547.719v1.687c0 .172-.016.235-.141.344-.313.281-.656.422-.875.422-.266 0-.703-.125-.703-.906v-1.594c0-.266.031-.906.031-.906 0-.032-.016-.063-.062-.063-.047.016-.172.016-.313.016-.281 0-.594 0-.89-.016-.063.063-.063.25 0 .297.421.031.546.125.546.703v1.688c0 .609.25 1.203 1.125 1.203m0 0"/><path id="ag" d="M1.469-2.516c0-.187.078-.296.156-.375.328-.312.781-.515 1.125-.515.172 0 .36.11.453.312.094.188.11.422.11.688v1.328c0 .719-.079.766-.547.812-.032.047-.032.235 0 .282.25 0 .547-.016.906-.016.344 0 .64.016.922.016.047-.047.047-.235 0-.282-.485-.046-.578-.093-.578-.812v-1.313c0-.484-.047-.906-.235-1.171-.156-.188-.422-.297-.734-.297-.438 0-.969.109-1.5.703 0 .015 0 .015-.016.031-.031.031-.078.078-.078-.031l.016-1.969c0-.578.031-.922.031-.922 0-.062-.031-.094-.11-.094-.218.094-.874.22-1.234.235-.015.078 0 .218.063.265h.078c.375.032.484.032.484.72v3.843c0 .734-.11.766-.625.812C.11-.219.11-.03.156.016.453.016.781 0 1.125 0c.328 0 .625.016.875.016.047-.047.047-.235 0-.282-.453-.046-.531-.078-.531-.812Zm0 0"/><path id="ah" d="M1.5-3.156c-.016-.25-.031-.578-.078-.656-.016-.047-.031-.079-.11-.079-.234.094-.468.172-1.078.25a.7.7 0 0 0 .016.25c.484.047.578.094.578.61v1.703c0 .719-.11.766-.594.812-.062.047-.062.235 0 .282C.5.016.828 0 1.172 0c.36 0 .625.016.89.016.063-.047.063-.235 0-.282-.437-.046-.546-.093-.546-.812v-1.438c0-.187.078-.296.156-.375.344-.343.672-.515.953-.515.328 0 .578.219.578.797v1.53c0 .72-.078.767-.547.813-.047.047-.047.235 0 .282.219 0 .547-.016.89-.016.36 0 .657.016.876.016.031-.047.031-.235 0-.282-.453-.046-.531-.093-.531-.812v-1.75c.422-.469.812-.578 1.156-.578s.531.203.531.781v1.547c0 .719-.094.766-.547.812-.047.047-.047.235 0 .282.219 0 .547-.016.89-.016.36 0 .673.016.907.016.047-.047.047-.235 0-.282-.484-.046-.562-.093-.562-.812v-1.39c0-.782-.125-1.391-.907-1.391-.437 0-.984.172-1.437.656-.031.015-.094.062-.11-.016-.078-.36-.421-.64-.874-.64-.516 0-.97.297-1.344.703-.032.047-.094.11-.094 0m0 0"/><path id="N" d="M4.75-6.016c-.125 0-.187.079-.187.22 0 .077.062.124.171.124.391 0 .563.125.563.344 0 .062 0 .125-.016.187L4.5-2.047c-.14.5-.39.938-.766 1.313-.421.39-.875.578-1.375.578-.64 0-1.015-.438-1.015-1.078v-.079c0-.171.031-.375.093-.593l.844-3.39c.047-.188.125-.298.235-.345.046-.015.203-.03.453-.03.234 0 .328 0 .328-.204q0-.14-.14-.14l-1.126.03-1.11-.03c-.14 0-.202.093-.202.218 0 .063.015.11.062.11.094.015.156.015.203.015q.423.024.47.047c.046 0 .062.031.062.078 0 .016 0 .078-.032.172l-.828 3.36a1.8 1.8 0 0 0-.062.5C.594-.5 1.313.187 2.328.187q.868 0 1.594-.657c.453-.422.765-.922.906-1.5l.766-3.078c.11-.453.36-.61.906-.625.125 0 .188-.078.188-.203v-.031c-.032-.063-.079-.11-.157-.11-.156 0-.718.032-.89.032-.157 0-.72-.032-.891-.032m0 0"/><path id="R" d="M6.14-3.234H.704c-.14 0-.203.078-.203.203 0 .14.063.203.203.203h5.438c.14 0 .203-.063.203-.203 0-.094-.094-.203-.203-.203m0 1.656H.704c-.14 0-.203.078-.203.203 0 .14.063.203.203.203h5.438c.14 0 .203-.062.203-.203a.207.207 0 0 0-.203-.203m0 0"/><path id="S" d="M3.031-5.547a1 1 0 0 1-.047.172L1.828-.735c-.031.141-.062.22-.094.25-.078.094-.375.141-.906.141-.281 0-.39-.031-.39.203C.438-.047.5 0 .609 0c.454 0 1.079-.031 1.454-.031l.718.015c.125 0 .61.016.766.016.14 0 .219-.078.219-.219 0-.078-.11-.125-.328-.125-.454 0-.72-.015-.797-.062-.032-.016-.047-.047-.047-.11l1.187-4.78c.031-.126.047-.204.078-.235.032-.063.25-.078.641-.078.484 0 .813.03.984.109.157.078.25.266.25.563 0 .156-.03.39-.062.687-.031.078-.031.125-.031.172q0 .14.14.14c.078 0 .125-.078.157-.218l.234-1.516c.016-.047.016-.094.016-.156 0-.078-.079-.125-.266-.125H1.094c-.219 0-.235.031-.313.187L.266-4.234a.6.6 0 0 0-.047.172c0 .093.031.125.14.125.063 0 .125-.063.172-.204.219-.64.438-1.03.64-1.203.235-.187.673-.265 1.313-.265h.344c.094 0 .203-.016.203.062m0 0"/><path id="T" d="M1.172-1.375c0-.219.031-.39.062-.531 0-.094-.03-.14-.14-.14-.032 0-.078.03-.094.046C.953-1.969.453-.078.453.078c0 .078.047.11.14.11.048 0 .095-.032.188-.141l.39-.453c.313.39.798.594 1.47.594q.867 0 1.547-.704c.453-.453.687-.984.687-1.562 0-.406-.14-.766-.437-1.047a1.6 1.6 0 0 0-.516-.281c-.203-.047-.406-.11-.594-.156L2.75-3.72c-.297-.078-.516-.406-.516-.765 0-.375.157-.703.454-.985q.468-.422 1.03-.422c.813 0 1.22.454 1.22 1.313 0 .156-.032.344-.032.484v.032q.024.093.14.093c.079 0 .126-.062.157-.203l.469-1.906c0-.078-.047-.125-.125-.125q-.07 0-.188.14l-.375.454c-.25-.391-.671-.594-1.25-.594-.562 0-1.062.219-1.5.625-.453.422-.687.906-.687 1.469 0 .625.422 1.125.937 1.265l.922.235c.469.14.766.297.766.89 0 .407-.156.766-.453 1.078-.313.329-.672.485-1.063.485-.86 0-1.484-.375-1.484-1.219m0 0"/><path id="U" d="M6.14-2.375H.704c-.14 0-.203.063-.203.172 0 .125.063.187.203.187h5.438c.14 0 .203-.062.203-.187 0-.11-.094-.172-.203-.172m0 0"/><path id="V" d="M4.875-6.016H2.063c-.204 0-.297.016-.297.204 0 .109.093.14.297.14.171 0 .53-.016.53.125a1 1 0 0 1-.046.156L1.39-.719c-.047.188-.141.313-.266.344a2.5 2.5 0 0 1-.484.031c-.203 0-.282.016-.282.203C.36-.047.406 0 .516 0l1.109-.031.563.015c.093 0 .437.016.562.016.14 0 .203-.078.203-.219 0-.078-.094-.125-.281-.125-.344 0-.531-.031-.531-.11 0 0 .015-.03.03-.14l.532-2.156h1.453c.563 0 1.11-.172 1.625-.516.563-.375.86-.843.86-1.39 0-.875-.828-1.36-1.766-1.36m-.266.344c.766 0 1.141.266 1.141.797 0 .5-.25 1.156-.5 1.375-.328.313-.766.453-1.312.453H2.75l.578-2.312c.078-.313.078-.313.453-.313Zm0 0"/><path id="W" d="M5.047-6.016c-.14 0-.203.079-.203.204 0 .093.062.14.172.14.25.016.375.11.375.25 0 .078-.047.188-.125.313L2.64-.937l-.578-4.5q0-.235.562-.235c.172 0 .25-.062.25-.203 0-.094-.047-.14-.156-.14-.188 0-.875.03-1.078.03-.172 0-.766-.03-.953-.03-.125 0-.188.077-.188.202 0 .11.078.141.25.141.14 0 .25.031.328.047.14.031.125.063.156.219l.688 5.375c.016.14.094.219.203.219.125 0 .203-.063.281-.172L5.531-4.97c.203-.312.39-.515.594-.593.125-.063.297-.094.484-.11.11 0 .141-.062.157-.203.015-.094-.047-.14-.157-.14-.125 0-.578.03-.703.03-.172 0-.703-.03-.86-.03m0 0"/><path id="X" d="M6.14-2.406h-2.5v-2.516c0-.14-.078-.203-.218-.203s-.219.063-.219.203v2.516h-2.5c-.14 0-.203.062-.203.203 0 .14.063.219.203.219h2.5v2.5c0 .14.078.218.219.218.14 0 .219-.078.219-.218v-2.5h2.5c.14 0 .203-.079.203-.22a.207.207 0 0 0-.203-.202m0 0"/><path id="Y" d="M5.031-1.25c0-.078-.047-.125-.14-.125-.063 0-.125.063-.157.172C4.563-.5 4.36-.141 4.11-.141c-.14 0-.218-.125-.218-.375 0-.14.046-.437.172-.89l.234-.938c.078-.312.156-.531.203-.812l.063-.235c.015-.062.015-.109.015-.125q0-.28-.281-.28-.305 0-.375.327L3.297-.953c0 .094-.14.281-.422.547a1 1 0 0 1-.672.265c-.406 0-.61-.234-.61-.718 0-.172.032-.407.11-.735l.375-1.453c.063-.281.11-.469.125-.562q0-.282-.281-.282c-.203 0-.328.11-.375.344L.297 1.484c-.031.079-.031.11-.031.141q0 .281.28.281c.126 0 .235-.078.329-.203q.047-.094.469-1.828c.218.156.484.234.812.234.531 0 .875-.265 1.14-.578a.82.82 0 0 0 .798.578c.61 0 .797-.703.937-1.359m0 0"/><path id="Z" d="M7.594-6.016c-.157 0-.703.032-.875.032s-.719-.032-.89-.032c-.126 0-.188.079-.188.22 0 .077.062.124.187.124.375 0 .563.125.563.344 0 .062-.016.125-.016.187l-.953 3.766-1.89-4.453c-.079-.156-.095-.188-.313-.188H2.047c-.203 0-.281.032-.281.22 0 .093.093.124.28.124q.54 0 .563.047L1.438-.969c-.079.344-.282.532-.61.594-.219.031-.484 0-.484.25C.344-.047.39 0 .5 0c.156 0 .703-.031.86-.031.171 0 .734.031.906.031.125 0 .187-.078.187-.219 0-.078-.062-.11-.203-.125-.375-.015-.547-.125-.547-.343 0-.047.016-.11.031-.188l1.141-4.5L5.063-.187c.062.125.125.187.203.187s.14-.078.172-.219l1.218-4.828c.125-.453.36-.61.907-.625.125 0 .187-.078.187-.219-.031-.078-.031-.125-.156-.125m0 0"/><path id="O" d="M1.438 1.25H.984v-5.578h.454q.14 0 .14-.14 0-.142-.14-.141H.703v6.14h.735q.14 0 .14-.14a.14.14 0 0 0-.14-.141m0 0"/><path id="P" d="M3.344-2.656c-.125 0-.203.062-.266.156-.015.031-.047.14-.11.36L2.657-.876q-.023.165-.094.234c-.218.329-.484.5-.78.5q-.47 0-.47-.515 0-.14.094-.563L1.72-2.5c0-.14-.078-.219-.235-.219s-.25.11-.312.313L.328.969c-.016.062-.016.11-.016.125 0 .156.063.218.22.218.171 0 .265-.093.327-.312l.266-1.094c.172.11.39.172.64.172.235 0 .47-.078.673-.25.03-.031.093-.078.187-.172.094.282.313.422.64.422.204 0 .36-.11.5-.344.047-.078.22-.5.22-.609 0-.078-.047-.11-.126-.11a.12.12 0 0 0-.078.032c-.047.062-.078.125-.078.172-.11.437-.25.64-.422.64-.11 0-.172-.093-.172-.28 0-.063.032-.22.079-.47l.14-.546.14-.532c.063-.281.11-.437.11-.468 0-.126-.11-.22-.234-.22m0 0"/><path id="Q" d="M.281 1.531h.735v-6.14H.28q-.14 0-.14.14t.14.14h.453V1.25H.281q-.14 0-.14.14t.14.141m0 0"/></defs><path fill="#FFF" stroke="#000" d="M8 8v331.457h343.79V8zm0 0"/><path fill="#B10DC9" fill-opacity=".6" d="M156.246 146.785a70.86 70.86 0 0 1 23.649-66.8 70.86 70.86 0 0 1 23.648 66.8 70.9 70.9 0 0 0-47.297 0m0 0"/><path fill="#39CCCC" fill-opacity=".6" d="M179.895 187.75a70.88 70.88 0 0 1-69.676 12.922 70.86 70.86 0 0 1 46.027-53.887 70.86 70.86 0 0 0 23.649 40.965m0 0"/><path fill="#FFDC00" fill-opacity=".6" d="M203.543 146.785a70.87 70.87 0 0 1 46.031 53.887 70.89 70.89 0 0 1-69.68-12.922 70.84 70.84 0 0 0 23.649-40.965m0 0"/><path fill="#AAA" fill-opacity=".302" stroke="#000" d="M179.895 187.75a70.84 70.84 0 0 0 23.648-40.965 70.9 70.9 0 0 0-47.297 0 70.86 70.86 0 0 0 23.649 40.965Zm0 0"/><path fill="#0074D9" fill-opacity=".6" stroke="#000" d="M179.895 79.984c-21.625-18.472-52.196-22.23-77.649-9.539-25.45 12.688-40.851 39.364-39.113 67.75s20.273 52.985 47.086 62.477a70.86 70.86 0 0 1 46.027-53.887 70.86 70.86 0 0 1 23.649-66.8Zm0 0"/><path fill="#2ECC40" fill-opacity=".6" stroke="#000" d="M110.219 200.672c-5.188 27.96 6.847 56.312 30.562 72.012 23.711 15.699 54.516 15.699 78.23 0 23.716-15.7 35.747-44.051 30.563-72.012a70.89 70.89 0 0 1-69.68-12.922 70.88 70.88 0 0 1-69.675 12.922Zm0 0"/><path fill="#FF4136" fill-opacity=".6" stroke="#000" d="M249.574 200.672c26.809-9.492 45.348-34.09 47.082-62.477 1.739-28.386-13.664-55.062-39.113-67.75-25.453-12.691-56.023-8.933-77.648 9.54a70.86 70.86 0 0 1 23.648 66.8 70.87 70.87 0 0 1 46.031 53.887Zm0 0"/><use xlink:href="#a" x="80.6" y="113.757"/><use xlink:href="#b" x="89.829" y="113.757"/><use xlink:href="#c" x="94.823" y="113.757"/><use xlink:href="#d" x="99.531" y="113.757"/><use xlink:href="#e" x="105.449" y="113.757"/><use xlink:href="#f" x="110.476" y="113.757"/><use xlink:href="#g" x="116.438" y="113.757"/><use xlink:href="#c" x="119.419" y="113.757"/><use xlink:href="#e" x="124.127" y="113.757"/><use xlink:href="#h" x="129.154" y="113.757"/><use xlink:href="#i" x="80.6" y="128.42"/><use xlink:href="#j" x="87.673" y="131.137"/><use xlink:href="#k" x="89.86" y="131.137"/><use xlink:href="#l" x="95.211" y="131.137"/><use xlink:href="#m" x="101.023" y="128.42"/><use xlink:href="#n" x="112.637" y="128.42"/><use xlink:href="#o" x="121.195" y="128.42"/><use xlink:href="#p" x="129.797" y="128.42"/><use xlink:href="#q" x="92.242" y="142.962"/><use xlink:href="#r" x="94.776" y="142.962"/><use xlink:href="#s" x="100.804" y="142.962"/><use xlink:href="#t" x="104.078" y="142.962"/><use xlink:href="#u" x="108.099" y="142.962"/><use xlink:href="#v" x="112.869" y="142.962"/><use xlink:href="#w" x="92.242" y="154.473"/><use xlink:href="#x" x="96.87" y="154.473"/><use xlink:href="#y" x="101.305" y="154.473"/><use xlink:href="#z" x="104.086" y="154.473"/><use xlink:href="#u" x="108.02" y="154.473"/><use xlink:href="#y" x="112.79" y="154.473"/><use xlink:href="#A" x="115.57" y="154.473"/><use xlink:href="#t" x="117.955" y="154.473"/><use xlink:href="#B" x="121.977" y="154.473"/><use xlink:href="#C" x="124.3" y="154.473"/><use xlink:href="#D" x="225.428" y="113.757"/><use xlink:href="#d" x="231.995" y="113.757"/><use xlink:href="#b" x="237.913" y="113.757"/><use xlink:href="#E" x="242.83" y="113.757"/><use xlink:href="#F" x="246.922" y="113.757"/><use xlink:href="#e" x="255.612" y="113.757"/><use xlink:href="#h" x="260.639" y="113.757"/><use xlink:href="#G" x="225.428" y="128.42"/><use xlink:href="#j" x="234.569" y="131.137"/><use xlink:href="#k" x="236.756" y="131.137"/><use xlink:href="#l" x="242.107" y="131.137"/><use xlink:href="#m" x="247.919" y="128.42"/><use xlink:href="#H" x="259.533" y="128.42"/><use xlink:href="#I" x="267.585" y="128.42"/><use xlink:href="#J" x="158.77" y="236.676"/><use xlink:href="#d" x="165.876" y="236.676"/><use xlink:href="#b" x="171.794" y="236.676"/><use xlink:href="#F" x="176.711" y="236.676"/><use xlink:href="#g" x="185.401" y="236.676"/><use xlink:href="#c" x="188.382" y="236.676"/><use xlink:href="#e" x="193.09" y="236.676"/><use xlink:href="#h" x="198.117" y="236.676"/><use xlink:href="#K" x="158.77" y="251.339"/><use xlink:href="#m" x="170.472" y="251.339"/><use xlink:href="#L" x="182.085" y="251.339"/><use xlink:href="#M" x="188.718" y="251.339"/><use xlink:href="#N" x="168.127" y="112.933"/><use xlink:href="#O" x="174.137" y="115.107"/><use xlink:href="#P" x="175.887" y="115.107"/><use xlink:href="#Q" x="180.168" y="115.107"/><use xlink:href="#R" x="184.817" y="112.933"/><use xlink:href="#S" x="161.387" y="128.571"/><use xlink:href="#T" x="167.829" y="128.571"/><use xlink:href="#U" x="175.707" y="128.571"/><use xlink:href="#V" x="184.508" y="128.571"/><use xlink:href="#W" x="191.39" y="128.571"/><use xlink:href="#N" x="159.977" y="154.629"/><use xlink:href="#R" x="169.356" y="154.629"/><use xlink:href="#S" x="178.647" y="154.629"/><use xlink:href="#T" x="185.088" y="154.629"/><use xlink:href="#U" x="192.966" y="154.629"/><use xlink:href="#V" x="160.916" y="166.553"/><use xlink:href="#W" x="167.797" y="166.553"/><use xlink:href="#X" x="176.766" y="166.553"/><use xlink:href="#Y" x="185.568" y="166.553"/><use xlink:href="#Z" x="190.875" y="166.553"/><use xlink:href="#i" x="134.659" y="173.457"/><use xlink:href="#m" x="146.261" y="173.457"/><use xlink:href="#n" x="116.736" y="188.12"/><use xlink:href="#o" x="125.294" y="188.12"/><use xlink:href="#p" x="133.896" y="188.12"/><use xlink:href="#aa" x="145.107" y="188.12"/><use xlink:href="#L" x="156.11" y="188.12"/><use xlink:href="#M" x="162.743" y="188.12"/><use xlink:href="#G" x="204.246" y="173.352"/><use xlink:href="#m" x="217.3" y="173.352"/><use xlink:href="#H" x="192.285" y="188.257"/><use xlink:href="#I" x="200.337" y="188.257"/><use xlink:href="#aa" x="210.184" y="188.257"/><use xlink:href="#L" x="221.187" y="188.257"/><use xlink:href="#M" x="227.82" y="188.257"/><use xlink:href="#K" x="170.425" y="48.491"/><use xlink:href="#j" x="179.071" y="51.208"/><use xlink:href="#k" x="181.258" y="51.208"/><use xlink:href="#l" x="186.609" y="51.208"/><use xlink:href="#q" x="152.338" y="63.226"/><use xlink:href="#r" x="154.872" y="63.226"/><use xlink:href="#A" x="160.9" y="63.226"/><use xlink:href="#ab" x="163.285" y="63.226"/><use xlink:href="#ab" x="167.624" y="63.226"/><use xlink:href="#ac" x="171.962" y="63.226"/><use xlink:href="#ad" x="175.394" y="63.226"/><use xlink:href="#ae" x="178.368" y="63.226"/><use xlink:href="#af" x="184.537" y="63.226"/><use xlink:href="#ag" x="189.21" y="63.226"/><use xlink:href="#z" x="193.944" y="63.226"/><use xlink:href="#ah" x="197.878" y="63.226"/><use xlink:href="#C" x="204.83" y="63.226"/><path fill="#B2B2E5" fill-opacity=".2" stroke="#000" d="M179.895 36.426c-68.43 0-124.016 55.586-124.016 124.015 0 68.43 55.586 124.016 124.016 124.016S303.91 228.871 303.91 160.441 248.324 36.426 179.895 36.426Zm0 0"/></svg>