<svg xmlns="http://www.w3.org/2000/svg" xmlns:xlink="http://www.w3.org/1999/xlink" width="288.753" height="236.505" viewBox="0 0 216.565 177.379"><defs><symbol overflow="visible" id="b"><path d="M4.578-3.188c0-.796-.047-1.593-.39-2.328C3.733-6.484 2.905-6.64 2.5-6.64c-.61 0-1.328.266-1.75 1.188-.313.687-.36 1.469-.36 2.266 0 .75.032 1.64.454 2.406a1.83 1.83 0 0 0 1.64 1c.532 0 1.297-.203 1.735-1.157.312-.687.36-1.468.36-2.25zM2.484 0c-.39 0-.984-.25-1.156-1.203-.11-.594-.11-1.516-.11-2.11 0-.64 0-1.296.079-1.828.187-1.187.937-1.28 1.187-1.28.329 0 .985.187 1.172 1.171.11.563.11 1.313.11 1.938 0 .75 0 1.421-.11 2.062C3.5-.297 2.937 0 2.484 0zm0 0"/></symbol><symbol overflow="visible" id="d"><path d="M1.266-.766l1.062-1.03c1.547-1.376 2.14-1.907 2.14-2.907 0-1.14-.89-1.938-2.109-1.938C1.234-6.64.5-5.719.5-4.828c0 .547.5.547.531.547.172 0 .516-.11.516-.532a.513.513 0 0 0-.531-.515c-.079 0-.094 0-.125.016.218-.657.765-1.016 1.343-1.016.907 0 1.329.812 1.329 1.625 0 .797-.485 1.578-1.047 2.203L.609-.375C.5-.265.5-.235.5 0h3.703l.266-1.734h-.235C4.172-1.438 4.11-1 4-.844c-.063.078-.719.078-.938.078zm0 0"/></symbol><symbol overflow="visible" id="e"><path d="M2.938-1.64v.859c0 .36-.032.469-.766.469h-.203V0c.406-.031.922-.031 1.343-.031.422 0 .938 0 1.36.031v-.313h-.219c-.734 0-.75-.109-.75-.468v-.86h.985v-.312h-.985v-4.531c0-.204 0-.266-.172-.266-.078 0-.11 0-.187.125L.28-1.953v.312zm.046-.313H.563l2.421-3.719zm0 0"/></symbol><symbol overflow="visible" id="f"><path d="M1.313-3.266v-.25c0-2.515 1.234-2.875 1.75-2.875.234 0 .656.063.874.407-.156 0-.546 0-.546.437 0 .313.234.469.453.469.156 0 .469-.094.469-.484 0-.594-.438-1.079-1.266-1.079C1.766-6.64.422-5.359.422-3.156.422-.484 1.578.219 2.5.219c1.11 0 2.063-.938 2.063-2.25 0-1.266-.891-2.219-2-2.219-.672 0-1.047.5-1.25.984zM2.5-.062c-.625 0-.922-.594-.984-.75-.188-.47-.188-1.266-.188-1.438 0-.781.328-1.781 1.219-1.781.172 0 .625 0 .937.625.172.36.172.875.172 1.36 0 .483 0 .983-.172 1.343-.296.594-.75.64-.984.64zm0 0"/></symbol><symbol overflow="visible" id="g"><path d="M1.625-4.563c-.453-.296-.5-.625-.5-.796 0-.61.656-1.032 1.36-1.032.718 0 1.359.516 1.359 1.235 0 .578-.39 1.047-.985 1.39zm1.453.954c.719-.375 1.203-.891 1.203-1.547 0-.922-.875-1.485-1.781-1.485-1 0-1.813.735-1.813 1.672 0 .172.016.625.438 1.094.11.11.484.36.734.531C1.281-3.047.422-2.5.422-1.5.422-.453 1.438.219 2.484.219c1.125 0 2.079-.828 2.079-1.89 0-.36-.11-.813-.5-1.235-.188-.203-.344-.297-.985-.703zm-1 .421l1.235.782c.28.187.75.484.75 1.094 0 .734-.75 1.25-1.563 1.25C1.64-.063.922-.672.922-1.5c0-.578.312-1.219 1.156-1.688zm0 0"/></symbol><symbol overflow="visible" id="h"><path d="M2.938-6.375c0-.25 0-.266-.235-.266C2.078-6 1.203-6 .891-6v.313c.203 0 .78 0 1.296-.266v5.172c0 .36-.03.469-.921.469H.953V0c.344-.031 1.203-.031 1.61-.031.39 0 1.265 0 1.609.031v-.313h-.313c-.906 0-.921-.109-.921-.468zm0 0"/></symbol><symbol overflow="visible" id="i"><path d="M4.469-2c0-1.188-.813-2.188-1.89-2.188-.47 0-.907.157-1.267.516v-1.953c.204.063.532.125.844.125 1.235 0 1.938-.906 1.938-1.031 0-.063-.032-.11-.11-.11 0 0-.03 0-.078.032a3.22 3.22 0 0 1-1.36.296c-.39 0-.858-.078-1.327-.28-.078-.032-.094-.032-.11-.032C1-6.625 1-6.547 1-6.391v2.954c0 .171 0 .25.14.25.079 0 .094-.016.141-.079.11-.156.469-.703 1.282-.703.515 0 .765.453.843.64.156.376.188.75.188 1.25 0 .36 0 .954-.25 1.376-.235.39-.61.64-1.063.64-.719 0-1.297-.53-1.469-1.109.032 0 .063.016.172.016.329 0 .5-.25.5-.485 0-.25-.171-.5-.5-.5-.14 0-.484.079-.484.532C.5-.75 1.188.219 2.297.219 3.453.219 4.469-.734 4.469-2zm0 0"/></symbol><symbol overflow="visible" id="c"><path d="M1.906-.531a.534.534 0 0 0-.515-.531.537.537 0 0 0-.532.53.524.524 0 1 0 1.047 0zm0 0"/></symbol><symbol overflow="visible" id="m"><path d="M4.25-6.047c.078-.281.11-.344.234-.375.094-.016.422-.016.625-.016 1.016 0 1.454.032 1.454.813 0 .156-.032.547-.079.797 0 .047-.03.156-.03.187 0 .063.03.141.124.141.11 0 .125-.078.156-.234L7-6.47c.016-.047.016-.14.016-.172 0-.109-.094-.109-.266-.109H1.219c-.235 0-.25.016-.328.203l-.594 1.75c0 .016-.063.156-.063.188 0 .046.063.109.125.109.094 0 .11-.063.172-.219.531-1.547.797-1.718 2.266-1.718h.39c.282 0 .282.03.282.125a.775.775 0 0 1-.047.203L2.094-.781C2-.421 1.969-.312.906-.312c-.36 0-.422 0-.422.187C.484 0 .594 0 .656 0c.266 0 .547-.016.813-.016.281 0 .578-.015.86-.015.28 0 .546.015.827.015.281 0 .578.016.86.016.093 0 .218 0 .218-.203 0-.11-.078-.11-.343-.11-.235 0-.375 0-.625-.015-.297-.031-.375-.063-.375-.219 0-.015 0-.062.046-.203zm0 0"/></symbol><symbol overflow="visible" id="n"><path d="M2.672 4.156L1.562 2.22c-.046-.063-.046-.078-.093-.078a.557.557 0 0 0-.203.093l-.485.282a.106.106 0 0 0-.062.093c0 .032.031.079.078.079.031 0 .14-.063.203-.094l.203-.125 1.234 2.156c.047.078.047.078.126.078.093 0 .124-.031.156-.094L5.563-.03c.046-.063.046-.078.046-.11a.14.14 0 0 0-.14-.14c-.078 0-.11.062-.14.11zm0 0"/></symbol><symbol overflow="visible" id="t"><path d="M4.39-1.11c.079 0 .204 0 .204-.14s-.125-.14-.203-.14H1.016c-.079 0-.22 0-.22.14s.141.14.22.14zm0 0"/></symbol><symbol overflow="visible" id="o"><path d="M1.64-1.656c.47 0 .766.297.766.781 0 .516-.312.781-.75.781-.062 0-.656 0-.906-.265.203-.032.266-.172.266-.297A.304.304 0 0 0 .703-.97c-.156 0-.297.11-.297.328 0 .516.578.75 1.266.75.812 0 1.312-.5 1.312-.984 0-.406-.359-.75-.921-.875.593-.203.75-.578.75-.86 0-.406-.5-.703-1.126-.703-.625 0-1.109.25-1.109.704a.28.28 0 0 0 .281.296c.141 0 .282-.109.282-.296 0-.11-.063-.25-.235-.282.203-.218.656-.234.766-.234.36 0 .61.172.61.516 0 .296-.188.75-.704.78-.14 0-.156 0-.297.016-.047 0-.11 0-.11.079 0 .078.048.078.141.078zm0 0"/></symbol><symbol overflow="visible" id="p"><path d="M2.203-3.625s.016-.016.016-.047c0-.015-.016-.062-.094-.062-.094 0-1.375.796-1.375 2.484s1.281 2.5 1.375 2.5c.078 0 .094-.047.094-.078s-.031-.047-.047-.063C1.297.406 1.125-.609 1.125-1.25c0-1.219.563-2.016 1.078-2.375zm0 0"/></symbol><symbol overflow="visible" id="u"><path d="M1.984-3.172c0-.14-.015-.14-.187-.14C1.453-3 .89-3 .797-3H.719v.219h.078c.11 0 .437-.016.734-.14v2.5c0 .14 0 .202-.531.202H.75V0c.266-.016.719-.016 1-.016.297 0 .734 0 1.016.016v-.219h-.25c-.532 0-.532-.062-.532-.203zm0 0"/></symbol><symbol overflow="visible" id="v"><path d="M1.953-1.25c0-1.688-1.281-2.484-1.39-2.484-.079 0-.079.062-.079.062 0 .016 0 .031.032.063.75.593 1.046 1.468 1.046 2.359 0 .453-.078.922-.25 1.328C1.079.641.75.922.516 1.125c-.016 0-.032.031-.032.047s0 .078.079.078c.109 0 1.39-.797 1.39-2.5zm0 0"/></symbol><symbol overflow="visible" id="w"><path d="M2.938-.969h-.22c0 .094-.062.406-.14.453-.031.032-.453.032-.531.032h-.969c.328-.235.688-.516.984-.72.454-.312.876-.593.876-1.124 0-.64-.61-.985-1.313-.985-.672 0-1.172.376-1.172.876 0 .25.219.296.297.296a.283.283 0 0 0 .281-.296.27.27 0 0 0-.281-.282c.14-.234.438-.375.766-.375.484 0 .89.281.89.766 0 .422-.297.75-.672 1.062L.516-.234c-.047.047-.063.047-.063.078V0h2.313zm0 0"/></symbol><symbol overflow="visible" id="q"><path d="M2.89-2.969c.047-.156.047-.172.25-.172h.532c.562 0 .64.157.64.47 0 .03 0 .124-.046.358v.047c0 .047.03.094.109.094.094 0 .094-.047.11-.14l.124-.891c.016-.047.016-.063.016-.078 0-.078-.078-.078-.172-.078H.97c-.14 0-.14 0-.188.093l-.328.922c0 .016-.031.078-.031.078 0 .032.031.094.11.094.077 0 .093-.015.124-.14.235-.594.375-.829 1.047-.829h.547c.031 0 .11 0 .156.016v.031L1.734-.438c-.03.157-.046.22-.578.22h-.11c-.093 0-.109 0-.124.015a.177.177 0 0 0-.047.125c0 .015.016.078.094.078.156 0 .312-.016.469-.016h.937c.156 0 .313.016.469.016.031 0 .125 0 .125-.14 0-.079-.078-.079-.156-.079h-.11c-.14 0-.265 0-.406-.031-.031 0-.063-.016-.063-.063 0-.03 0-.03.016-.109zm0 0"/></symbol><symbol overflow="visible" id="r"><path d="M2.563-1.922a.314.314 0 0 0-.22.297c0 .125.095.203.22.203.109 0 .296-.094.296-.344 0-.375-.484-.437-.75-.437-.843 0-1.578.687-1.578 1.344 0 .437.328.921 1.078.921.094 0 .485 0 .829-.14.328-.125.53-.36.53-.406 0-.047-.062-.125-.109-.125-.015 0-.03.015-.109.093-.219.25-.64.407-1.14.407-.423 0-.626-.235-.626-.579 0-.515.344-1.343 1.125-1.343.047 0 .297 0 .454.11zm0 0"/></symbol><symbol overflow="visible" id="s"><path d="M3.016-3.484c.03-.079.03-.094.03-.11a.14.14 0 0 0-.14-.14c-.078 0-.125.046-.156.125L.656 1c-.031.078-.031.094-.031.11 0 .077.063.14.14.14.079 0 .11-.063.141-.125zm0 0"/></symbol><symbol overflow="visible" id="x"><path d="M2.688-.438a2.93 2.93 0 0 0-.079.313c0 .11.094.188.188.188a.29.29 0 0 0 .25-.172c0-.032.062-.266.094-.391.156-.672.156-.688.171-.703.063-.125.422-.828 1.032-.828.25 0 .343.125.343.36 0 .28-.203.796-.312 1.077a.433.433 0 0 0-.047.203c0 .266.25.454.531.454.532 0 .813-.657.813-.782 0-.062-.078-.062-.11-.062-.078 0-.078.015-.109.11-.094.296-.328.562-.562.562-.125 0-.157-.079-.157-.188 0-.11.016-.156.063-.266.094-.203.312-.765.312-1.046 0-.375-.265-.594-.734-.594s-.781.281-.984.547c-.047-.5-.547-.547-.75-.547-.485 0-.766.297-.938.5-.016-.438-.484-.5-.61-.5-.5 0-.64.765-.64.765 0 .079.078.079.11.079.078 0 .093-.032.109-.094.078-.297.187-.578.406-.578.156 0 .203.156.203.265 0 .063-.062.25-.078.391a2.557 2.557 0 0 0-.11.438L.97-.484a5.845 5.845 0 0 0-.078.359c0 .11.093.188.187.188.063 0 .172-.047.234-.172 0-.032.063-.266.094-.391.016-.078.078-.297.094-.344.016-.11.047-.219.078-.328 0-.031.188-.39.438-.61.078-.062.28-.25.609-.25.25 0 .344.141.344.36 0 .11-.047.313-.094.453zm0 0"/></symbol><clipPath id="a"><path d="M212 159h4.566v5H212zm0 0"/></clipPath><clipPath id="j"><path d="M21.895.395H210v161.398H21.895zm0 0"/></clipPath><clipPath id="k"><path d="M21.895 35h194.273v126.793H21.895zm0 0"/></clipPath><clipPath id="l"><path d="M21.895 112H210v49.793H21.895zm0 0"/></clipPath></defs><path d="M57.219 163.918v-4.25m35.324 4.25v-4.25m35.32 4.25v-4.25m35.325 4.25v-4.25m35.32 4.25v-4.25M19.77 132.973h4.253m-4.253-28.82h4.253M19.77 75.331h4.253M19.77 46.508h4.253m-4.253-28.82h4.253m-2.128 144.105h191.683" fill="none" stroke-width="0.79701" stroke="rgb(0%,0%,0%)" stroke-miterlimit="10"/><g clip-path="url(#a)"><path d="M216.168 161.793l-4.145-2.07 1.555 2.07-1.555 2.07" fill="rgb(0%,0%,0%)"/></g><path d="M21.895 161.793V2.988" fill="none" stroke-width="0.79701" stroke="rgb(0%,0%,0%)" stroke-miterlimit="10"/><path d="M21.895.395l-2.07 4.144 2.07-1.55 2.074 1.55" fill="rgb(0%,0%,0%)"/><use xlink:href="#b" x="50.853" y="174.058" fill="rgb(0%,0%,0%)"/><use xlink:href="#c" x="55.834" y="174.058" fill="rgb(0%,0%,0%)"/><use xlink:href="#d" x="58.602" y="174.058" fill="rgb(0%,0%,0%)"/><use xlink:href="#b" x="86.175" y="174.058" fill="rgb(0%,0%,0%)"/><use xlink:href="#c" x="91.156" y="174.058" fill="rgb(0%,0%,0%)"/><use xlink:href="#e" x="93.924" y="174.058" fill="rgb(0%,0%,0%)"/><use xlink:href="#b" x="121.497" y="174.058" fill="rgb(0%,0%,0%)"/><use xlink:href="#c" x="126.479" y="174.058" fill="rgb(0%,0%,0%)"/><use xlink:href="#f" x="129.246" y="174.058" fill="rgb(0%,0%,0%)"/><use xlink:href="#b" x="156.82" y="174.058" fill="rgb(0%,0%,0%)"/><use xlink:href="#c" x="161.801" y="174.058" fill="rgb(0%,0%,0%)"/><use xlink:href="#g" x="164.568" y="174.058" fill="rgb(0%,0%,0%)"/><use xlink:href="#h" x="196.016" y="174.058" fill="rgb(0%,0%,0%)"/><use xlink:href="#b" x="3.321" y="136.183" fill="rgb(0%,0%,0%)"/><use xlink:href="#c" x="8.302" y="136.183" fill="rgb(0%,0%,0%)"/><use xlink:href="#i" x="11.069" y="136.183" fill="rgb(0%,0%,0%)"/><use xlink:href="#h" x="11.069" y="107.362" fill="rgb(0%,0%,0%)"/><use xlink:href="#h" x="3.321" y="78.542" fill="rgb(0%,0%,0%)"/><use xlink:href="#c" x="8.302" y="78.542" fill="rgb(0%,0%,0%)"/><use xlink:href="#i" x="11.069" y="78.542" fill="rgb(0%,0%,0%)"/><use xlink:href="#d" x="11.069" y="49.722" fill="rgb(0%,0%,0%)"/><use xlink:href="#d" x="3.321" y="20.901" fill="rgb(0%,0%,0%)"/><use xlink:href="#c" x="8.302" y="20.901" fill="rgb(0%,0%,0%)"/><use xlink:href="#i" x="11.069" y="20.901" fill="rgb(0%,0%,0%)"/><g clip-path="url(#j)"><path d="M24.52-650.918s1.898 193.73 2.625 242.379c.73 48.648 1.898 84.191 2.628 108.238.727 24.043 1.895 49.828 2.625 65.059.727 15.23 1.895 33.887 2.625 44.71.727 10.825 1.895 25.071 2.625 33.31.727 8.234 1.895 19.503 2.625 26.062.727 6.562 1.895 15.824 2.625 21.226.727 5.403 1.895 13.149 2.625 17.704a693.629 693.629 0 0 0 2.625 15.105 588.648 588.648 0 0 0 2.625 13.113c.727 3.422 1.895 8.52 2.625 11.547a450.907 450.907 0 0 0 2.625 10.274 431.172 431.172 0 0 0 2.625 9.25 407.26 407.26 0 0 0 2.625 8.367c.73 2.222 1.899 5.617 2.625 7.656.73 2.035 1.899 5.152 2.625 7.031.73 1.88 1.899 4.758 2.625 6.5.73 1.742 1.899 4.422 2.625 6.043.73 1.625 1.899 4.13 2.625 5.649a319.47 319.47 0 0 0 2.625 5.293c.73 1.422 1.899 3.632 2.625 4.976.73 1.348 1.899 3.446 2.625 4.719a262.489 262.489 0 0 0 5.254 8.684 232.935 232.935 0 0 0 2.625 4.03 244.422 244.422 0 0 0 2.625 3.852 243.505 243.505 0 0 0 2.625 3.692 245.551 245.551 0 0 0 5.25 6.957c.727.926 1.895 2.387 2.625 3.285a233.672 233.672 0 0 0 5.25 6.25c.727.84 1.895 2.145 2.625 2.957.727.816 1.899 2.113 2.625 2.906a265.01 265.01 0 0 0 2.625 2.817c.73.773 1.899 1.996 2.625 2.746a430.069 430.069 0 0 0 5.25 5.304c.73.72 1.899 1.86 2.625 2.563.73.707 1.899 1.82 2.625 2.512.73.691 1.899 1.793 2.625 2.472.73.684 1.899 1.766 2.625 2.438a704.565 704.565 0 0 0 5.25 4.785c.73.652 1.899 1.687 2.63 2.336.726.648 1.894 1.683 2.624 2.328.727.64 1.895 1.676 2.625 2.316.727.637 1.895 1.649 2.625 2.286a1576.28 1576.28 0 0 0 5.25 4.582c.727.632 1.895 1.644 2.625 2.277.727.637 1.895 1.656 2.625 2.297.727.64 1.895 1.672 2.625 2.316l2.625 2.348a717.96 717.96 0 0 1 2.625 2.367c.727.66 1.899 1.723 2.625 2.395.73.675 1.899 1.765 2.625 2.457a209.171 209.171 0 0 1 5.25 5.184c.73.745 1.899 1.952 2.625 2.738.73.78 1.899 2.078 2.625 2.914.73.836 1.899 2.21 2.625 3.117.73.902 1.899 2.39 2.625 3.406.73 1.016 1.899 2.703 2.625 3.914.73 1.207 1.899 3.11 2.625 4.8.73 1.696 2.63 7.403 2.63 7.403" fill="none" stroke-width="0.79701" stroke="rgb(0%,0%,100%)" stroke-miterlimit="10"/></g><g clip-path="url(#k)"><path d="M21.895 161.793s5.851-.594 8.097-.98c2.246-.383 5.848-1.22 8.094-1.79 2.246-.57 5.848-1.617 8.094-2.32a235.11 235.11 0 0 0 8.093-2.746 264.923 264.923 0 0 0 8.098-3.121c2.246-.91 5.848-2.445 8.094-3.441 2.246-1 5.847-2.668 8.094-3.747a409.765 409.765 0 0 0 8.093-4.023 450.208 450.208 0 0 0 8.098-4.285 466.9 466.9 0 0 0 8.094-4.524c2.246-1.289 5.847-3.41 8.094-4.765a565.569 565.569 0 0 0 8.093-4.98 626.48 626.48 0 0 0 8.098-5.204 692.567 692.567 0 0 0 8.094-5.39 718.68 718.68 0 0 0 8.093-5.606 798.055 798.055 0 0 0 8.094-5.781 765.211 765.211 0 0 0 8.098-5.961 924.503 924.503 0 0 0 8.094-6.16c2.246-1.735 5.847-4.543 8.093-6.32a981.401 981.401 0 0 0 8.094-6.493c2.246-1.824 5.852-4.785 8.098-6.652a1130.81 1130.81 0 0 0 8.093-6.793c2.247-1.91 5.848-5.016 8.094-6.969 2.246-1.957 8.094-7.12 8.094-7.12" fill="none" stroke-width="0.79701" stroke="rgb(100%,0%,0%)" stroke-miterlimit="10"/></g><g clip-path="url(#l)"><path d="M21.895 161.793l2.625-1.473a434.993 434.993 0 0 1 15.754-8.36 545.357 545.357 0 0 1 5.25-2.598c.726-.35 1.894-.913 2.624-1.26.727-.344 1.895-.895 2.625-1.235.727-.34 1.895-.879 2.625-1.21.727-.333 1.895-.86 2.625-1.188.727-.324 1.899-.844 2.625-1.16a481.935 481.935 0 0 1 5.25-2.23c.73-.306 1.899-.798 2.625-1.095.73-.297 1.899-.754 2.625-1.039.73-.285 1.899-.746 2.625-1.027.73-.277 1.899-.723 2.625-.996.73-.27 1.899-.7 2.625-.965.73-.262 1.899-.68 2.625-.937.73-.254 1.899-.657 2.625-.907.73-.246 1.899-.64 2.63-.879.726-.238 1.894-.605 2.624-.836.727-.23 1.895-.601 2.625-.824a202.67 202.67 0 0 1 2.625-.785c.727-.21 1.895-.535 2.625-.738.727-.203 1.895-.531 2.625-.727.727-.191 1.895-.484 2.625-.668.727-.183 1.895-.469 2.625-.64.727-.176 1.895-.45 2.625-.614.727-.164 1.895-.414 2.625-.566.727-.156 1.895-.395 2.625-.535a154.82 154.82 0 0 1 2.625-.492c.727-.133 1.899-.332 2.625-.45.73-.12 1.899-.3 2.625-.41.73-.105 1.899-.273 2.625-.37a208.448 208.448 0 0 1 5.25-.59c.73-.071 1.899-.177 2.625-.235.73-.059 1.899-.137 2.625-.18.73-.043 1.899-.097 2.625-.125a148.153 148.153 0 0 1 5.25-.094c.73.004 1.899.02 2.63.036.726.02 1.894.066 2.624.101.727.04 1.895.11 2.625.164.727.055 1.895.153 2.625.227a123.037 123.037 0 0 1 5.25.683c.727.114 1.895.309 2.625.446.727.136 1.895.386 2.625.55.727.16 1.895.43 2.625.622.727.187 1.895.523 2.625.742.727.219 1.899.59 2.625.84.727.25 1.899.671 2.625.957.73.28 1.899.765 2.625 1.093.73.325 1.899.883 2.625 1.258.73.375 1.899 1.016 2.625 1.442a54.3 54.3 0 0 1 2.625 1.625c.73.488 1.899 1.328 2.625 1.898.73.566 1.899 1.531 2.625 2.195.73.664 1.899 1.79 2.625 2.598.73.809 1.899 2.188 2.625 3.223.73 1.039 1.899 2.691 2.625 4.257.73 1.57 2.63 7.051 2.63 7.051" fill="none" stroke-width="0.79701" stroke="rgb(100%,50%,0%)" stroke-miterlimit="10"/></g><use xlink:href="#m" x="205.242" y="158.074" fill="rgb(0%,0%,0%)"/><path d="M129.094 39.676h82.789V4.023h-82.79zm0 0" fill="rgb(100%,100%,100%)" stroke-width="0.79701" stroke="rgb(0%,0%,0%)" stroke-miterlimit="10"/><path d="M132.48 11.633h17.008" fill="none" stroke-width="0.79701" stroke="rgb(0%,0%,100%)" stroke-miterlimit="10"/><use xlink:href="#n" x="151.878" y="9.552" fill="rgb(0%,0%,0%)"/><path d="M157.344 9.41h3.39" fill="none" stroke-width="0.279" stroke="rgb(0%,0%,0%)" stroke-miterlimit="10"/><use xlink:href="#o" x="157.344" y="13.757" fill="rgb(0%,0%,0%)"/><use xlink:href="#p" x="161.955" y="13.757" fill="rgb(0%,0%,0%)"/><use xlink:href="#q" x="164.654" y="13.757" fill="rgb(0%,0%,0%)"/><use xlink:href="#r" x="168.8" y="14.753" fill="rgb(0%,0%,0%)"/><g fill="rgb(0%,0%,0%)"><use xlink:href="#s" x="172.533" y="13.757"/><use xlink:href="#q" x="176.2" y="13.757"/></g><use xlink:href="#t" x="182.841" y="13.757" fill="rgb(0%,0%,0%)"/><g fill="rgb(0%,0%,0%)"><use xlink:href="#u" x="189.867" y="13.757"/><use xlink:href="#v" x="193.257" y="13.757"/></g><use xlink:href="#u" x="195.955" y="11.747" fill="rgb(0%,0%,0%)"/><use xlink:href="#s" x="199.345" y="11.747" fill="rgb(0%,0%,0%)"/><use xlink:href="#w" x="203.012" y="11.747" fill="rgb(0%,0%,0%)"/><path d="M132.48 22.855h17.008" fill="none" stroke-width="0.79701" stroke="rgb(100%,0%,0%)" stroke-miterlimit="10"/><use xlink:href="#n" x="151.878" y="20.777" fill="rgb(0%,0%,0%)"/><path d="M157.344 20.637h3.39" fill="none" stroke-width="0.279" stroke="rgb(0%,0%,0%)" stroke-miterlimit="10"/><use xlink:href="#o" x="157.344" y="24.983" fill="rgb(0%,0%,0%)"/><use xlink:href="#p" x="161.955" y="24.983" fill="rgb(0%,0%,0%)"/><use xlink:href="#q" x="164.654" y="24.983" fill="rgb(0%,0%,0%)"/><g fill="rgb(0%,0%,0%)"><use xlink:href="#s" x="169.492" y="24.983"/><use xlink:href="#q" x="173.159" y="24.983"/></g><use xlink:href="#r" x="177.305" y="25.979" fill="rgb(0%,0%,0%)"/><use xlink:href="#v" x="181.038" y="24.983" fill="rgb(0%,0%,0%)"/><use xlink:href="#o" x="183.736" y="22.972" fill="rgb(0%,0%,0%)"/><use xlink:href="#s" x="187.126" y="22.972" fill="rgb(0%,0%,0%)"/><use xlink:href="#w" x="190.793" y="22.972" fill="rgb(0%,0%,0%)"/><path d="M132.48 33.078h17.008" fill="none" stroke-width="0.79701" stroke="rgb(100%,50%,0%)" stroke-miterlimit="10"/><use xlink:href="#x" x="151.878" y="34.198" fill="rgb(0%,0%,0%)"/><use xlink:href="#r" x="157.995" y="35.194" fill="rgb(0%,0%,0%)"/><use xlink:href="#p" x="161.728" y="34.198" fill="rgb(0%,0%,0%)"/><use xlink:href="#q" x="164.427" y="34.198" fill="rgb(0%,0%,0%)"/><use xlink:href="#v" x="169.437" y="34.198" fill="rgb(0%,0%,0%)"/></svg>