<svg height="236.507" viewBox="0 0 208.816 177.38" width="278.421" xmlns="http://www.w3.org/2000/svg" xmlns:xlink="http://www.w3.org/1999/xlink"><symbol id="a" overflow="visible"><path d="m1.266-.766 1.062-1.03c1.547-1.376 2.14-1.907 2.14-2.907 0-1.14-.89-1.938-2.109-1.938a1.843 1.843 0 0 0 -1.859 1.813c0 .547.5.547.531.547.172 0 .516-.11.516-.532a.513.513 0 0 0 -.531-.515c-.079 0-.094 0-.125.016.218-.657.765-1.016 1.343-1.016.907 0 1.329.812 1.329 1.625 0 .797-.485 1.578-1.047 2.203l-1.907 2.125c-.109.11-.109.14-.109.375h3.703l.266-1.734h-.235c-.062.296-.124.734-.234.89-.063.078-.719.078-.938.078zm0 0"/></symbol><symbol id="b" overflow="visible"><path d="m2.938-1.64v.859c0 .36-.032.469-.766.469h-.203v.312c.406-.031.922-.031 1.343-.031.422 0 .938 0 1.36.031v-.313h-.219c-.734 0-.75-.109-.75-.468v-.86h.985v-.312h-.985v-4.531c0-.204 0-.266-.172-.266-.078 0-.11 0-.187.125l-3.064 4.672v.312zm.046-.313h-2.421l2.421-3.719zm0 0"/></symbol><symbol id="c" overflow="visible"><path d="m1.313-3.266v-.25c0-2.515 1.234-2.875 1.75-2.875.234 0 .656.063.874.407-.156 0-.546 0-.546.437 0 .313.234.469.453.469.156 0 .469-.094.469-.484 0-.594-.438-1.079-1.266-1.079-1.281.001-2.625 1.282-2.625 3.485 0 2.672 1.156 3.375 2.078 3.375 1.11 0 2.063-.938 2.063-2.25 0-1.266-.891-2.219-2-2.219-.672 0-1.047.5-1.25.984zm1.187 3.204c-.625 0-.922-.594-.984-.75-.188-.47-.188-1.266-.188-1.438 0-.781.328-1.781 1.219-1.781.172 0 .625 0 .937.625.172.36.172.875.172 1.36 0 .483 0 .983-.172 1.343-.296.594-.75.64-.984.64zm0 0"/></symbol><symbol id="d" overflow="visible"><path d="m1.625-4.563c-.453-.296-.5-.625-.5-.796 0-.61.656-1.032 1.36-1.032.718 0 1.359.516 1.359 1.235 0 .578-.39 1.047-.985 1.39zm1.453.954c.719-.375 1.203-.891 1.203-1.547 0-.922-.875-1.485-1.781-1.485-1 0-1.813.735-1.813 1.672 0 .172.016.625.438 1.094.11.11.484.36.734.531-.578.297-1.437.844-1.437 1.844 0 1.047 1.016 1.719 2.062 1.719 1.125 0 2.079-.828 2.079-1.89 0-.36-.11-.813-.5-1.235-.188-.203-.344-.297-.985-.703zm-1 .421 1.235.782c.28.187.75.484.75 1.094 0 .734-.75 1.25-1.563 1.25-.86-.001-1.578-.61-1.578-1.438 0-.578.312-1.219 1.156-1.688zm0 0"/></symbol><symbol id="e" overflow="visible"><path d="m2.938-6.375c0-.25 0-.266-.235-.266-.625.641-1.5.641-1.812.641v.313c.203 0 .78 0 1.296-.266v5.172c0 .36-.03.469-.921.469h-.313v.312c.344-.031 1.203-.031 1.61-.031.39 0 1.265 0 1.609.031v-.313h-.313c-.906 0-.921-.109-.921-.468zm0 0"/></symbol><symbol id="f" overflow="visible"><path d="m4.578-3.188c0-.796-.047-1.593-.39-2.328-.455-.968-1.283-1.124-1.688-1.124-.61 0-1.328.266-1.75 1.188-.313.687-.36 1.469-.36 2.266 0 .75.032 1.64.454 2.406a1.83 1.83 0 0 0 1.64 1c.532 0 1.297-.203 1.735-1.157.312-.687.36-1.468.36-2.25zm-2.094 3.188c-.39 0-.984-.25-1.156-1.203-.11-.594-.11-1.516-.11-2.11 0-.64 0-1.296.079-1.828.187-1.187.937-1.28 1.187-1.28.329 0 .985.187 1.172 1.171.11.563.11 1.313.11 1.938 0 .75 0 1.421-.11 2.062-.156.953-.719 1.25-1.172 1.25zm0 0"/></symbol><symbol id="g" overflow="visible"><path d="m2.89-3.516c.813-.265 1.391-.953 1.391-1.75 0-.812-.875-1.375-1.828-1.375-1 0-1.765.594-1.765 1.36 0 .328.218.515.515.515s.5-.218.5-.515c0-.485-.469-.485-.61-.485.298-.5.954-.625 1.313-.625.422 0 .969.22.969 1.11 0 .125-.031.703-.281 1.14-.297.485-.64.516-.89.516a3.29 3.29 0 0 1 -.392.031c-.078.016-.14.031-.14.125 0 .11.062.11.234.11h.438c.812 0 1.187.671 1.187 1.656 0 1.36-.687 1.64-1.125 1.64-.437 0-1.187-.171-1.531-.75.344.047.656-.171.656-.546a.537.537 0 0 0 -.547-.563c-.25 0-.562.14-.562.578 0 .907.922 1.564 2.015 1.564 1.22 0 2.126-.906 2.126-1.922 0-.813-.641-1.594-1.672-1.813zm0 0"/></symbol><symbol id="h" overflow="visible"><path d="m4.469-2c0-1.188-.813-2.188-1.89-2.188-.47 0-.907.157-1.267.516v-1.953c.204.063.532.125.844.125 1.235 0 1.938-.906 1.938-1.031 0-.063-.032-.11-.11-.11 0 0-.03 0-.078.032a3.22 3.22 0 0 1 -1.36.296 3.4 3.4 0 0 1 -1.327-.28c-.078-.032-.094-.032-.11-.032-.109 0-.109.078-.109.234v2.954c0 .171 0 .25.14.25.079 0 .094-.016.141-.079.11-.156.469-.703 1.282-.703.515 0 .765.453.843.64.156.376.188.75.188 1.25 0 .36 0 .954-.25 1.376-.235.39-.61.64-1.063.64-.719 0-1.297-.53-1.469-1.109.032 0 .063.016.172.016.329 0 .5-.25.5-.485 0-.25-.171-.5-.5-.5-.14 0-.484.079-.484.532 0 .859.688 1.828 1.797 1.828 1.156 0 2.172-.953 2.172-2.219zm0 0"/></symbol><symbol id="i" overflow="visible"><path d="m6.031-3.703c0-.453-.172-.703-.406-.703-.25 0-.516.234-.516.468 0 .094.047.204.141.297a1.1 1.1 0 0 1 .36.844c0 .39-.204.969-.5 1.422-.298.422-.673.766-1.141.766-.563 0-.875-.36-.969-.891.11-.266.344-.906.344-1.188 0-.109-.047-.218-.188-.218-.078 0-.187.031-.265.172-.11.203-.235.843-.235 1.203-.328.468-.719.922-1.344.922-.671 0-.875-.594-.875-1.141 0-1.25 1.016-2.297 1.016-2.422a.18.18 0 0 0 -.187-.187c-.125 0-.204.125-.266.218-.5.735-.875 1.922-.875 2.829 0 .687.219 1.421 1.047 1.421.703 0 1.172-.5 1.531-1.046.094.578.485 1.046 1.094 1.046.781 0 1.25-.609 1.61-1.359.25-.484.624-1.844.624-2.453zm0 0"/></symbol><symbol id="j" overflow="visible"><path d="m7.063-2.328c.015-.047.046-.11.046-.14 0 0 0-.11-.125-.11-.093 0-.109.062-.125.125-.656 1.469-1.015 2.14-2.718 2.14h-1.672c-.11-.015-.14-.03-.14-.109 0-.031 0-.047.046-.219l.688-2.734h.984c.844 0 .844.219.844.469 0 .062 0 .187-.063.484-.016.047-.031.078-.031.11 0 .046.031.109.125.109.078 0 .11-.047.156-.203l.563-2.328c0-.063-.047-.11-.125-.11-.079 0-.11.063-.125.172-.22.766-.391 1-1.313 1h-.937l.593-2.406c.094-.36.11-.39.547-.39h1.407c1.203 0 1.515.28 1.515 1.109 0 .234 0 .25-.047.53 0 .048-.015.126-.015.173s.03.125.125.125c.109 0 .125-.063.14-.25l.203-1.735c.032-.265-.015-.265-.265-.265h-5.047c-.188 0-.297 0-.297.203 0 .11.094.11.281.11.375 0 .656 0 .656.171 0 .047 0 .063-.062.25l-1.313 5.267c-.093.39-.109.469-.906.469-.172 0-.281 0-.281.187 0 .124.094.124.281.124h5.172c.234 0 .25-.016.313-.172zm0 0"/></symbol><symbol id="k" overflow="visible"><path d="m4.375-7.094c.047-.14.047-.172.047-.187 0-.11-.078-.203-.188-.203-.078 0-.14.03-.171.093l-3.47 9.5c-.046.141-.046.172-.046.188 0 .11.094.203.203.203.125 0 .156-.078.219-.25zm0 0"/></symbol><symbol id="l" overflow="visible"><path d="m2.86-6.813s0-.109-.126-.109c-.234 0-.953.078-1.218.11-.079 0-.188.015-.188.187 0 .125.094.125.234.125.485 0 .5.063.5.172l-.03.203-1.439 5.734c-.046.141-.046.157-.046.221 0 .234.203.28.297.28a.418.418 0 0 0 .328-.203c.047-.093.5-1.937.562-2.187.344.031 1.157.187 1.157.844 0 .078 0 .109-.032.218-.015.11-.03.235-.03.344 0 .578.39.984.905.984.297 0 .579-.156.797-.53.25-.438.36-.985.36-1 0-.11-.094-.11-.125-.11-.094 0-.11.047-.141.187-.203.719-.422 1.235-.86 1.235-.203 0-.328-.11-.328-.47 0-.171.047-.405.079-.562.046-.171.046-.203.046-.312 0-.64-.624-.922-1.484-1.047.313-.172.64-.484.86-.734.484-.532.937-.954 1.421-.954.063 0 .079 0 .094.016.125.016.125.016.219.078.016 0 .016.016.031.032a.569.569 0 0 0 -.562.546c0 .157.109.344.375.344.265 0 .546-.219.546-.61 0-.296-.234-.624-.671-.624-.282 0-.735.078-1.454.875-.343.375-.734.781-1.109.922zm0 0"/></symbol><symbol id="m" overflow="visible"><path d="m4.25-6.047c.078-.281.11-.344.234-.375.094-.016.422-.016.625-.016 1.016 0 1.454.032 1.454.813 0 .156-.032.547-.079.797 0 .047-.03.156-.03.187 0 .063.03.141.124.141.11 0 .125-.078.156-.234l.266-1.736c.016-.047.016-.14.016-.172 0-.109-.094-.109-.266-.109h-5.531c-.235 0-.25.016-.328.203l-.594 1.75c0 .016-.063.156-.063.188 0 .046.063.109.125.109.094 0 .11-.063.172-.219.531-1.547.797-1.718 2.266-1.718h.39c.282 0 .282.03.282.125a.775.775 0 0 1 -.047.203l-1.328 5.329c-.094.36-.125.469-1.188.469-.36 0-.422 0-.422.187 0 .125.11.125.172.125.266 0 .547-.016.813-.016.281 0 .578-.015.86-.015.28 0 .546.015.827.015s.578.016.86.016c.093 0 .218 0 .218-.203 0-.11-.078-.11-.343-.11-.235 0-.375 0-.625-.015-.297-.031-.375-.063-.375-.219 0-.015 0-.062.046-.203zm0 0"/></symbol><symbol id="n" overflow="visible"><path d="m3.266-7.094c.046-.11.046-.14.046-.187 0-.11-.078-.203-.187-.203-.094 0-.172.062-.234.234l-1.751 4.578c-.016.063-.047.125-.047.172 0 .031 0 .063.047.172l1.75 4.578c.046.11.093.25.234.25.11 0 .188-.094.188-.203 0-.031 0-.047-.047-.156l-1.765-4.641zm0 0"/></symbol><symbol id="o" overflow="visible"><path d="m2.719-2.328c.047-.11.047-.14.047-.172 0-.016 0-.047-.047-.156l-1.735-4.594c-.062-.172-.124-.234-.234-.234a.207.207 0 0 0 -.203.203c0 .031 0 .047.047.156l1.765 4.625-1.765 4.61c-.047.109-.047.14-.047.187 0 .11.094.203.203.203.125 0 .172-.11.203-.203zm0 0"/></symbol><symbol id="p" overflow="visible"><path d="m.422-4.766v.25h.156c.547 0 .563.079.563.329v3.625c0 .234-.016.312-.563.312h-.156v.25h2.953c.984 0 1.703-.61 1.703-1.281 0-.594-.625-1.11-1.469-1.203.688-.125 1.25-.547 1.25-1.094 0-.625-.734-1.188-1.703-1.188zm1.328 2.188v-1.656c0-.22 0-.282.328-.282h1.032c.704 0 1.063.5 1.063.938 0 .5-.469 1-1.266 1zm.328 2.328c-.328 0-.328-.063-.328-.266v-1.859h1.484c.735 0 1.125.594 1.125 1.078.001.517-.468 1.047-1.234 1.047zm0 0"/></symbol><clipPath id="q"><path d="m204 159h4.816v5h-4.816zm0 0"/></clipPath><clipPath id="r"><path d="m14.148.395h194.274v125.605h-194.274zm0 0"/></clipPath><path d="m35.177-2.124v4.25m35.356-4.25v4.25m35.351-4.25v4.25m35.356-4.25v4.25m35.355-4.25v4.25m-178.722 27.214h4.253m-4.253 29.345h4.253m-4.253 29.343h4.253m-4.253 29.344h4.253m-4.253 29.344h4.253m-2.125-146.715h191.68" fill="none" stroke="#000" stroke-miterlimit="10" stroke-width=".79701" transform="matrix(1 0 0 -1 14.147 161.794)"/><g clip-path="url(#q)"><path d="m208.422 161.793-4.145-2.07 1.551 2.07-1.55 2.074"/></g><path d="m.001.001v158.805" fill="none" stroke="#000" stroke-miterlimit="10" stroke-width=".79701" transform="matrix(1 0 0 -1 14.147 161.794)"/><path d="m14.148.398-2.074 4.145 2.074-1.555 2.07 1.555"/><use x="46.833" xlink:href="#a" y="174.059"/><use x="82.187" xlink:href="#b" y="174.059"/><use x="117.541" xlink:href="#c" y="174.059"/><use x="152.895" xlink:href="#d" y="174.059"/><g><use x="185.758" xlink:href="#e" y="174.059"/><use x="190.739" xlink:href="#f" y="174.059"/></g><use x="3.321" xlink:href="#e" y="135.662"/><use x="3.321" xlink:href="#a" y="106.319"/><use x="3.321" xlink:href="#g" y="76.977"/><use x="3.321" xlink:href="#b" y="47.634"/><use x="3.321" xlink:href="#h" y="18.292"/><g clip-path="url(#r)"><path d="m.001 58.599s5.848-4.407 8.094-5.703c2.246-1.297 5.848-2.903 8.094-3.657s5.848-1.515 8.094-1.773 5.851-.262 8.097-.078c2.246.183 5.848.84 8.094 1.398 2.246.559 5.848 1.766 8.094 2.637s5.848 2.523 8.094 3.644c2.246 1.122 5.851 3.125 8.097 4.446 2.246 1.316 5.848 3.59 8.094 5.058 2.246 1.47 5.848 3.942 8.094 5.524a501.905 501.905 0 0 1 8.093 5.87 734.815 734.815 0 0 1 8.098 6.122c2.246 1.723 5.848 4.535 8.094 6.3 2.246 1.766 5.848 4.634 8.094 6.43a2433.29 2433.29 0 0 1 8.093 6.52c2.246 1.82 5.848 4.75 8.098 6.586 2.246 1.832 5.848 4.781 8.094 6.625a7671.581 7671.581 0 0 1 16.187 13.332c2.246 1.855 5.852 4.832 8.098 6.691 2.246 1.856 5.848 4.836 8.094 6.7l8.093 6.703 8.094 6.71c2.246 1.864 8.098 6.715 8.098 6.715" fill="none" stroke="#00f" stroke-miterlimit="10" stroke-width=".79701" transform="matrix(1 0 0 -1 14.147 161.794)"/></g><use x="198.14" xlink:href="#i" y="158.075"/><use x="17.866" xlink:href="#n" y="11.59"/><use x="21.74" xlink:href="#j" y="11.59"/><use x="29.669" xlink:href="#o" y="11.59"/><g><use x="33.543" xlink:href="#k" y="11.59"/><use x="38.524" xlink:href="#l" y="11.59"/></g><use x="43.711" xlink:href="#p" y="13.084"/><use x="49.779" xlink:href="#m" y="11.59"/></svg>