<svg height="340.157" viewBox="0 0 255.118 255.118" width="340.157" xmlns="http://www.w3.org/2000/svg" xmlns:xlink="http://www.w3.org/1999/xlink"><clipPath id="a"><path d="m0 0h255.117v255.117h-255.117zm0 0"/></clipPath><clipPath id="b"><path d="m125 139h125v116.117h-125zm0 0"/></clipPath><clipPath id="c"><path d="m5 139h125v116.117h-125zm0 0"/></clipPath><clipPath id="d"><path d="m43 170h164v85.117h-164zm0 0"/></clipPath><g clip-path="url(#a)"><path d="m255.121 127.559c0-70.45-57.113-127.559-127.561-127.559-70.451 0-127.564 57.11-127.564 127.559 0 70.453 57.113 127.562 127.563 127.562 70.449 0 127.562-57.11 127.562-127.562zm0 0" fill="#0d1117"/></g><g stroke="#fff" stroke-miterlimit="10" stroke-width="2.98883" transform="matrix(1 0 0 -1 127.559 56.693)"><path d="m19.925.002c0 11.004-8.921 19.925-19.925 19.925s-19.926-8.921-19.926-19.925c0-11.008 8.922-19.926 19.926-19.926s19.925 8.918 19.925 19.926zm0 0" fill="#399"/><path d="m-40.207-60.131c0 11.004-8.922 19.926-19.926 19.926s-19.926-8.922-19.926-19.926c0-11.008 8.922-19.926 19.926-19.926s19.926 8.918 19.926 19.926zm0 0" fill="#ffa64c"/><path d="m80.058-60.131c0 11.004-8.922 19.926-19.926 19.926-11.003 0-19.925-8.922-19.925-19.926 0-11.008 8.922-19.926 19.925-19.926 11.004 0 19.926 8.918 19.926 19.926zm0 0" fill="#66f"/></g><path d="m207.617 201.867c0-11.008-8.922-19.926-19.926-19.926s-19.925 8.918-19.925 19.926c0 11.004 8.922 19.926 19.925 19.926 11.004 0 19.926-8.922 19.926-19.926zm0 0" fill="#ff4c4c"/><g clip-path="url(#b)"><path d="m80.058-145.174c0 11.008-8.922 19.926-19.926 19.926-11.003 0-19.925-8.918-19.925-19.926 0-11.004 8.922-19.926 19.925-19.926 11.004 0 19.926 8.922 19.926 19.926zm0 0" fill="none" stroke="#fff" stroke-miterlimit="10" stroke-width="2.98883" transform="matrix(1 0 0 -1 127.559 56.693)"/></g><path d="m87.352 201.867c0-11.008-8.922-19.926-19.926-19.926s-19.926 8.918-19.926 19.926c0 11.004 8.922 19.926 19.926 19.926s19.926-8.922 19.926-19.926zm0 0" fill="#d24c79"/><g clip-path="url(#c)"><path d="m-40.207-145.174c0 11.008-8.922 19.926-19.926 19.926s-19.926-8.918-19.926-19.926c0-11.004 8.922-19.926 19.926-19.926s19.926 8.922 19.926 19.926zm0 0" fill="none" stroke="#fff" stroke-miterlimit="10" stroke-width="2.98883" transform="matrix(1 0 0 -1 127.559 56.693)"/></g><path d="m-5.543 20.69c-8.954 33.41 20.039 33.41 12.867 6.64" fill="none" stroke="#fff" stroke-miterlimit="10" stroke-width="2.98883" transform="matrix(1 0 0 -1 127.559 56.693)"/><path d="m133.36 35.04 6.976-7.868-5.453 2.191-3.633-4.625" fill="#fff"/><path d="m20.691-5.545c18.129-4.856 29.04-15.766 32.375-28.219" fill="none" stroke="#fff" stroke-miterlimit="10" stroke-width="2.98883" transform="matrix(1 0 0 -1 127.559 56.693)"/><path d="m182.148 96.137 2.11-10.301-3.633 4.621-5.453-2.187" fill="#fff"/><path d="m-54.59-39.444c4.86 18.134 15.77 29.044 28.222 32.38" fill="none" stroke="#fff" stroke-miterlimit="10" stroke-width="2.98883" transform="matrix(1 0 0 -1 127.559 56.693)"/><path d="m106.871 62.238-10.305-2.11 4.625 3.63-2.191 5.457" fill="#fff"/><path d="m41.582-49.424c-28.086 16.219-55.078 16.219-78.075 2.941" fill="none" stroke="#fff" stroke-miterlimit="10" stroke-width="2.98883" transform="matrix(1 0 0 -1 127.559 56.693)"/><path d="m85.977 106.117 10.496-.633-5.407-2.308.704-5.836" fill="#fff"/><path d="m-41.582-70.842c28.086-16.215 55.078-16.215 78.074-2.938" fill="none" stroke="#fff" stroke-miterlimit="10" stroke-width="2.98883" transform="matrix(1 0 0 -1 127.559 56.693)"/><path d="m169.14 127.535-10.495.63 5.406 2.308-.703 5.836" fill="#fff"/><path d="m-60.133-81.553v-36.32" fill="none" stroke="#fff" stroke-miterlimit="10" stroke-width="2.98883" transform="matrix(1 0 0 -1 127.559 56.693)"/><path d="m67.426 180.445 4.703-9.402-4.703 3.523-4.703-3.523" fill="#fff"/><path d="m60.132-81.553v-36.32" fill="none" stroke="#fff" stroke-miterlimit="10" stroke-width="2.98883" transform="matrix(1 0 0 -1 127.559 56.693)"/><path d="m187.691 180.445 4.704-9.402-4.704 3.523-4.703-3.523" fill="#fff"/><g clip-path="url(#d)"><path d="m-41.582-155.881c28.086-16.219 55.078-16.219 78.074-2.942" fill="none" stroke="#fff" stroke-miterlimit="10" stroke-width="2.98883" transform="matrix(1 0 0 -1 127.559 56.693)"/></g><path d="m169.14 212.574-10.495.633 5.406 2.309-.703 5.836" fill="#fff"/><path d="m41.582-134.463c-28.086 16.215-55.078 16.215-78.075 2.937" fill="none" stroke="#fff" stroke-miterlimit="10" stroke-width="2.98883" transform="matrix(1 0 0 -1 127.559 56.693)"/><path d="m85.977 191.156 10.496-.629-5.407-2.308.704-5.836" fill="#fff"/></svg>