<svg height="226.773" viewBox="0 0 170.08 170.08" width="226.773" xmlns="http://www.w3.org/2000/svg" xmlns:xlink="http://www.w3.org/1999/xlink"><symbol id="a" overflow="visible"><path d="m2.938-6.375c0-.25 0-.266-.235-.266-.625.641-1.5.641-1.812.641v.313c.203 0 .78 0 1.296-.266v5.172c0 .36-.03.469-.921.469h-.313v.312c.344-.031 1.203-.031 1.61-.031.39 0 1.265 0 1.609.031v-.313h-.313c-.906 0-.921-.109-.921-.468zm0 0"/></symbol><symbol id="b" overflow="visible"><path d="m4.75-6.078c.078-.11.078-.125.078-.344h-2.422c-1.203 0-1.234-.125-1.265-.312h-.251l-.328 2.046h.25c.032-.156.11-.78.25-.906.063-.062.844-.062.97-.062h2.062c-.11.156-.89 1.25-1.11 1.578-.906 1.344-1.234 2.734-1.234 3.75 0 .094 0 .547.469.547.453 0 .453-.453.453-.547v-.516c0-.547.031-1.094.11-1.625.046-.234.171-1.094.624-1.703zm0 0"/></symbol><symbol id="c" overflow="visible"><path d="m2.938-1.64v.859c0 .36-.032.469-.766.469h-.203v.312c.406-.031.922-.031 1.343-.031.422 0 .938 0 1.36.031v-.313h-.219c-.734 0-.75-.109-.75-.468v-.86h.985v-.312h-.985v-4.531c0-.204 0-.266-.172-.266-.078 0-.11 0-.187.125l-3.064 4.672v.312zm.046-.313h-2.421l2.421-3.719zm0 0"/></symbol><symbol id="d" overflow="visible"><path d="m1.266-.766 1.062-1.03c1.547-1.376 2.14-1.907 2.14-2.907 0-1.14-.89-1.938-2.109-1.938a1.843 1.843 0 0 0 -1.859 1.813c0 .547.5.547.531.547.172 0 .516-.11.516-.532a.513.513 0 0 0 -.531-.515c-.079 0-.094 0-.125.016.218-.657.765-1.016 1.343-1.016.907 0 1.329.812 1.329 1.625 0 .797-.485 1.578-1.047 2.203l-1.907 2.125c-.109.11-.109.14-.109.375h3.703l.266-1.734h-.235c-.062.296-.124.734-.234.89-.063.078-.719.078-.938.078zm0 0"/></symbol><symbol id="e" overflow="visible"><path d="m4.469-2c0-1.188-.813-2.188-1.89-2.188-.47 0-.907.157-1.267.516v-1.953c.204.063.532.125.844.125 1.235 0 1.938-.906 1.938-1.031 0-.063-.032-.11-.11-.11 0 0-.03 0-.078.032a3.22 3.22 0 0 1 -1.36.296 3.4 3.4 0 0 1 -1.327-.28c-.078-.032-.094-.032-.11-.032-.109 0-.109.078-.109.234v2.954c0 .171 0 .25.14.25.079 0 .094-.016.141-.079.11-.156.469-.703 1.282-.703.515 0 .765.453.843.64.156.376.188.75.188 1.25 0 .36 0 .954-.25 1.376-.235.39-.61.64-1.063.64-.719 0-1.297-.53-1.469-1.109.032 0 .063.016.172.016.329 0 .5-.25.5-.485 0-.25-.171-.5-.5-.5-.14 0-.484.079-.484.532 0 .859.688 1.828 1.797 1.828 1.156 0 2.172-.953 2.172-2.219zm0 0"/></symbol><symbol id="f" overflow="visible"><path d="m2.89-3.516c.813-.265 1.391-.953 1.391-1.75 0-.812-.875-1.375-1.828-1.375-1 0-1.765.594-1.765 1.36 0 .328.218.515.515.515s.5-.218.5-.515c0-.485-.469-.485-.61-.485.298-.5.954-.625 1.313-.625.422 0 .969.22.969 1.11 0 .125-.031.703-.281 1.14-.297.485-.64.516-.89.516a3.29 3.29 0 0 1 -.392.031c-.078.016-.14.031-.14.125 0 .11.062.11.234.11h.438c.812 0 1.187.671 1.187 1.656 0 1.36-.687 1.64-1.125 1.64-.437 0-1.187-.171-1.531-.75.344.047.656-.171.656-.546a.537.537 0 0 0 -.547-.563c-.25 0-.562.14-.562.578 0 .907.922 1.564 2.015 1.564 1.22 0 2.126-.906 2.126-1.922 0-.813-.641-1.594-1.672-1.813zm0 0"/></symbol><symbol id="g" overflow="visible"><path d="m3.656-3.172v.328c0 2.328-1.031 2.781-1.61 2.781-.171 0-.718-.015-.983-.359.437 0 .515-.281.515-.453 0-.313-.234-.453-.453-.453-.156 0-.453.078-.453.469 0 .671.531 1.078 1.375 1.078 1.297 0 2.515-1.36 2.515-3.5 0-2.688-1.156-3.36-2.046-3.36-.547 0-1.032.188-1.454.625-.421.454-.64.875-.64 1.625 0 1.235.875 2.22 1.984 2.22.61 0 1.016-.423 1.25-1zm-1.234.766c-.156 0-.625 0-.922-.625-.188-.375-.188-.86-.188-1.36 0-.53 0-1 .22-1.375.265-.5.64-.625.984-.625.468 0 .796.344.968.782.11.328.157.953.157 1.406 0 .828-.344 1.797-1.22 1.797zm0 0"/></symbol><symbol id="h" overflow="visible"><path d="m4.578-3.188c0-.796-.047-1.593-.39-2.328-.455-.968-1.283-1.124-1.688-1.124-.61 0-1.328.266-1.75 1.188-.313.687-.36 1.469-.36 2.266 0 .75.032 1.64.454 2.406a1.83 1.83 0 0 0 1.64 1c.532 0 1.297-.203 1.735-1.157.312-.687.36-1.468.36-2.25zm-2.094 3.188c-.39 0-.984-.25-1.156-1.203-.11-.594-.11-1.516-.11-2.11 0-.64 0-1.296.079-1.828.187-1.187.937-1.28 1.187-1.28.329 0 .985.187 1.172 1.171.11.563.11 1.313.11 1.938 0 .75 0 1.421-.11 2.062-.156.953-.719 1.25-1.172 1.25zm0 0"/></symbol><symbol id="i" overflow="visible"><path d="m1.313-3.266v-.25c0-2.515 1.234-2.875 1.75-2.875.234 0 .656.063.874.407-.156 0-.546 0-.546.437 0 .313.234.469.453.469.156 0 .469-.094.469-.484 0-.594-.438-1.079-1.266-1.079-1.281.001-2.625 1.282-2.625 3.485 0 2.672 1.156 3.375 2.078 3.375 1.11 0 2.063-.938 2.063-2.25 0-1.266-.891-2.219-2-2.219-.672 0-1.047.5-1.25.984zm1.187 3.204c-.625 0-.922-.594-.984-.75-.188-.47-.188-1.266-.188-1.438 0-.781.328-1.781 1.219-1.781.172 0 .625 0 .937.625.172.36.172.875.172 1.36 0 .483 0 .983-.172 1.343-.296.594-.75.64-.984.64zm0 0"/></symbol><symbol id="j" overflow="visible"><path d="m1.625-4.563c-.453-.296-.5-.625-.5-.796 0-.61.656-1.032 1.36-1.032.718 0 1.359.516 1.359 1.235 0 .578-.39 1.047-.985 1.39zm1.453.954c.719-.375 1.203-.891 1.203-1.547 0-.922-.875-1.485-1.781-1.485-1 0-1.813.735-1.813 1.672 0 .172.016.625.438 1.094.11.11.484.36.734.531-.578.297-1.437.844-1.437 1.844 0 1.047 1.016 1.719 2.062 1.719 1.125 0 2.079-.828 2.079-1.89 0-.36-.11-.813-.5-1.235-.188-.203-.344-.297-.985-.703zm-1 .421 1.235.782c.28.187.75.484.75 1.094 0 .734-.75 1.25-1.563 1.25-.86-.001-1.578-.61-1.578-1.438 0-.578.312-1.219 1.156-1.688zm0 0"/></symbol><symbol id="k" overflow="visible"><path d="m3.313-.75c.046.39.312.813.78.813.22 0 .829-.141.829-.954v-.562h-.25v.562c0 .579-.25.641-.36.641-.328 0-.375-.453-.375-.5v-1.984c0-.422 0-.813-.359-1.188a1.9 1.9 0 0 0 -1.36-.547c-.827 0-1.515.469-1.515 1.125 0 .297.203.469.469.469a.435.435 0 0 0 .453-.453c0-.125-.047-.453-.516-.453.282-.36.766-.469 1.079-.469.5 0 1.062.39 1.062 1.281v.36c-.516.03-1.203.062-1.828.359-.75.344-1 .86-1 1.297 0 .812.969 1.062 1.594 1.062a1.38 1.38 0 0 0 1.296-.859zm-.063-1.64v1c0 .937-.719 1.28-1.172 1.28-.484 0-.89-.343-.89-.843 0-.547.421-1.375 2.062-1.438zm0 0"/></symbol><symbol id="l" overflow="visible"><path d="m1.719-3.766v-3.156l-1.438.11v.312c.703 0 .781.063.781.563v5.937h.25c0-.016.079-.156.36-.625.14.234.562.734 1.297.734 1.187 0 2.219-.984 2.219-2.265 0-1.266-.97-2.25-2.11-2.25-.781 0-1.203.468-1.36.64zm.031 2.626v-2.046c0-.188 0-.204.11-.36.39-.562.937-.64 1.171-.64.453 0 .813.265 1.047.64.266.406.281.969.281 1.39 0 .36-.015.954-.296 1.407-.22.313-.594.64-1.125.64-.454 0-.813-.234-1.047-.609-.141-.203-.141-.234-.141-.422zm0 0"/></symbol><symbol id="m" overflow="visible"><path d="m1.172-2.172c0-1.625.812-2.047 1.344-2.047.093 0 .718.016 1.062.375-.406.031-.469.328-.469.453 0 .266.188.454.454.454.265 0 .468-.157.468-.47 0-.671-.765-1.062-1.531-1.062-1.25 0-2.156 1.079-2.156 2.313 0 1.281.984 2.265 2.14 2.265 1.329 0 1.657-1.203 1.657-1.296 0-.094-.11-.094-.141-.094-.078 0-.11.031-.125.093-.281.923-.938 1.048-1.297 1.048-.531 0-1.406-.421-1.406-2.03zm0 0"/></symbol><symbol id="n" overflow="visible"><path d="m3.781-.547v.657l1.469-.11v-.313c-.688 0-.781-.062-.781-.562v-6.047l-1.422.11v.312c.687 0 .765.063.765.563v2.156a1.582 1.582 0 0 0 -1.25-.625c-1.171 0-2.218.984-2.218 2.265 0 1.266.969 2.25 2.11 2.25.64 0 1.077-.343 1.327-.656zm0-2.672v2.047c0 .172 0 .188-.11.36-.296.484-.733.703-1.171.703-.453 0-.813-.266-1.047-.641-.25-.406-.281-.969-.281-1.39 0-.36.016-.954.297-1.407.218-.312.593-.64 1.14-.64.344 0 .766.156 1.063.593.11.172.11.188.11.375zm0 0"/></symbol><symbol id="o" overflow="visible"><path d="m1.11-2.516c.061-1.484.905-1.734 1.25-1.734 1.015 0 1.124 1.344 1.124 1.734zm0 .22h2.78c.22 0 .25 0 .25-.22 0-.984-.546-1.953-1.78-1.953-1.158 0-2.08 1.032-2.08 2.282.001 1.327 1.048 2.295 2.19 2.295 1.218.002 1.67-1.108 1.67-1.295 0-.094-.079-.125-.141-.125-.078 0-.11.062-.125.14-.343 1.032-1.249 1.032-1.343 1.032-.5 0-.89-.296-1.125-.671-.297-.47-.297-1.125-.297-1.485zm0 0"/></symbol><symbol id="p" overflow="visible"><path d="m1.75-4.297v-1.156c0-.875.469-1.36.906-1.36.031 0 .188 0 .328.079a.443.443 0 0 0 -.296.421c0 .22.156.422.437.422s.438-.203.438-.437c0-.375-.376-.703-.907-.703-.687 0-1.547.531-1.547 1.593v1.141h-.779v.313h.78v3.234c0 .438-.109.438-.765.438v.312c.39-.016.86-.031 1.125-.031.406 0 .875 0 1.265.031v-.313h-.203c-.734 0-.75-.109-.75-.468v-3.203h1.125v-.313zm0 0"/></symbol><symbol id="q" overflow="visible"><path d="m2.219-1.719c-.875 0-.875-1-.875-1.218 0-.266.015-.594.156-.844.078-.11.313-.39.719-.39.86 0 .86.984.86 1.218 0 .265 0 .594-.157.844-.078.109-.313.39-.703.39zm-1.156.39a.8.8 0 0 1 .156-.468c.39.281.812.313 1 .313.922 0 1.61-.688 1.61-1.454 0-.374-.157-.734-.407-.968.36-.344.719-.39.89-.39.032 0 .079 0 .11.015-.11.031-.172.14-.172.265 0 .172.14.282.297.282a.28.28 0 0 0 .281-.297c0-.172-.11-.485-.5-.485-.203 0-.64.063-1.062.47a1.652 1.652 0 0 0 -1.047-.36c-.938 0-1.625.687-1.625 1.453 0 .437.219.812.469 1.031-.125.14-.313.469-.313.828 0 .313.14.688.453.89-.61.157-.922.595-.922.985 0 .719.985 1.266 2.203 1.266 1.172 0 2.204-.5 2.204-1.281 0-.344-.125-.86-.641-1.141-.531-.266-1.11-.266-1.719-.266-.25 0-.672 0-.75-.015-.312-.047-.516-.344-.516-.672zm1.437 3.158c-1.016-.001-1.703-.517-1.703-1.048 0-.453.375-.828.812-.844h.594c.86 0 1.969 0 1.969.844 0 .547-.703 1.047-1.672 1.047zm0 0"/></symbol><symbol id="r" overflow="visible"><path d="m1.094-.75c0 .438-.11.438-.782.438v.312c.36-.016.86-.031 1.141-.031.25 0 .766.015 1.11.031v-.313c-.672 0-.782 0-.782-.437v-1.844c0-1.031.719-1.594 1.344-1.594.64 0 .75.532.75 1.11v2.328c0 .438-.11.438-.781.438v.312c.344-.016.86-.031 1.125-.031.25 0 .781.015 1.11.031v-.313c-.516 0-.766 0-.766-.296v-1.907c0-.859 0-1.156-.313-1.515-.14-.172-.469-.375-1.047-.375-.844 0-1.281.593-1.453.984v-3.5l-1.438.11v.312c.704 0 .782.063.782.563zm0 0"/></symbol><symbol id="s" overflow="visible"><path d="m1.766-4.406-1.391.11v.312c.64 0 .734.062.734.546v2.688c0 .438-.109.438-.78.438v.312c.312-.016.859-.031 1.093-.031.36 0 .703.015 1.047.031v-.313c-.672 0-.703-.046-.703-.437zm.03-1.735a.514.514 0 0 0 -.515-.53.537.537 0 0 0 -.531.53c0 .266.219.532.531.532a.514.514 0 0 0 .516-.532zm0 0"/></symbol><clipPath id="t"><path d="m153 17h17.078v18h-17.078zm0 0"/></clipPath><clipPath id="u"><path d="m153 34h17.078v18h-17.078zm0 0"/></clipPath><clipPath id="v"><path d="m153 51h17.078v18h-17.078zm0 0"/></clipPath><clipPath id="w"><path d="m153 68h17.078v18h-17.078zm0 0"/></clipPath><clipPath id="x"><path d="m153 85h17.078v18h-17.078zm0 0"/></clipPath><clipPath id="y"><path d="m153 102h17.078v18h-17.078zm0 0"/></clipPath><clipPath id="z"><path d="m153 119h17.078v18h-17.078zm0 0"/></clipPath><clipPath id="A"><path d="m153 136h17.078v18h-17.078zm0 0"/></clipPath><clipPath id="B"><path d="m17 153h18v17.078h-18zm0 0"/></clipPath><clipPath id="C"><path d="m34 153h18v17.078h-18zm0 0"/></clipPath><clipPath id="D"><path d="m51 153h18v17.078h-18zm0 0"/></clipPath><clipPath id="E"><path d="m68 153h18v17.078h-18zm0 0"/></clipPath><clipPath id="F"><path d="m85 153h18v17.078h-18zm0 0"/></clipPath><clipPath id="G"><path d="m102 153h18v17.078h-18zm0 0"/></clipPath><clipPath id="H"><path d="m119 153h18v17.078h-18zm0 0"/></clipPath><clipPath id="I"><path d="m136 153h18v17.078h-18zm0 0"/></clipPath><clipPath id="J"><path d="m153 153h17.078v17.078h-17.078zm0 0"/></clipPath><use x="23.021" xlink:href="#a" y="11.714"/><path d="m17.008 34.016h17.008v-17.008h-17.008zm0 0" fill="#edbd22"/><g fill="#fff"><use x="20.531" xlink:href="#b" y="28.722"/><use x="25.512" xlink:href="#c" y="28.722"/></g><path d="m34.016 34.016h17.007v-17.008h-17.007zm0 0" fill="#cd6245"/><g fill="#fff"><use x="37.539" xlink:href="#d" y="28.722"/><use x="42.52" xlink:href="#e" y="28.722"/></g><path d="m51.023 34.016h17.008v-17.008h-17.008zm0 0" fill="#d67b3f"/><g fill="#fff"><use x="54.547" xlink:href="#f" y="28.722"/><use x="59.528" xlink:href="#g" y="28.722"/></g><path d="m68.031 34.016h17.012v-17.008h-17.012zm0 0" fill="#ca5947"/><g fill="#fff"><use x="71.555" xlink:href="#d" y="28.722"/><use x="76.536" xlink:href="#h" y="28.722"/></g><path d="m85.043 34.016h17.008v-17.008h-17.008zm0 0" fill="#bf3d4a"/><use fill="#fff" x="91.053" xlink:href="#f" y="28.722"/><path d="m102.05 34.016h17.009v-17.008h-17.009zm0 0" fill="#bf3d4a"/><use fill="#fff" x="108.062" xlink:href="#f" y="28.722"/><path d="m119.059 34.016h17.007v-17.008h-17.006zm0 0" fill="#bf3d4a"/><use fill="#fff" x="125.07" xlink:href="#f" y="28.722"/><path d="m136.066 34.016h17.008v-17.008h-17.008zm0 0" fill="#bf3d4a"/><use fill="#fff" x="142.078" xlink:href="#f" y="28.722"/><g clip-path="url(#t)"><path d="m153.074 34.016h17.008v-17.008h-17.008zm0 0" fill="#bf3d4a"/></g><use fill="#fff" x="159.086" xlink:href="#f" y="28.722"/><use x="40.029" xlink:href="#d" y="11.714"/><path d="m17.008 51.023h17.008v-17.007h-17.008zm0 0" fill="#cd6245"/><g fill="#fff"><use x="20.531" xlink:href="#d" y="45.73"/><use x="25.512" xlink:href="#e" y="45.73"/></g><path d="m34.016 51.023h17.007v-17.007h-17.007zm0 0" fill="#df9536"/><g fill="#fff"><use x="37.539" xlink:href="#e" y="45.73"/><use x="42.52" xlink:href="#f" y="45.73"/></g><path d="m51.023 51.023h17.008v-17.007h-17.008zm0 0" fill="#d16d43"/><g fill="#fff"><use x="54.547" xlink:href="#f" y="45.73"/><use x="59.528" xlink:href="#a" y="45.73"/></g><path d="m68.031 51.023h17.012v-17.007h-17.012zm0 0" fill="#c85448"/><g fill="#fff"><use x="71.555" xlink:href="#a" y="45.73"/><use x="76.536" xlink:href="#b" y="45.73"/></g><path d="m85.043 51.023h17.008v-17.007h-17.008zm0 0" fill="#c2444a"/><use fill="#fff" x="91.054" xlink:href="#b" y="45.73"/><path d="m102.05 51.023h17.009v-17.007h-17.009zm0 0" fill="#c2444a"/><use fill="#fff" x="108.062" xlink:href="#b" y="45.73"/><path d="m119.059 51.023h17.007v-17.007h-17.006zm0 0" fill="#bf3b4a"/><use fill="#fff" x="125.07" xlink:href="#d" y="45.73"/><path d="m136.066 51.023h17.008v-17.007h-17.008zm0 0" fill="#bf3d4a"/><use fill="#fff" x="142.078" xlink:href="#f" y="45.73"/><g clip-path="url(#u)"><path d="m153.074 51.023h17.008v-17.007h-17.008zm0 0" fill="#bf3b4a"/></g><use fill="#fff" x="159.086" xlink:href="#d" y="45.73"/><use x="57.037" xlink:href="#f" y="11.714"/><path d="m17.008 68.031h17.008v-17.008h-17.008zm0 0" fill="#d67b3f"/><g fill="#fff"><use x="20.531" xlink:href="#f" y="62.738"/><use x="25.512" xlink:href="#g" y="62.738"/></g><path d="m34.016 68.031h17.007v-17.008h-17.007zm0 0" fill="#d16d43"/><g fill="#fff"><use x="37.539" xlink:href="#f" y="62.738"/><use x="42.52" xlink:href="#a" y="62.738"/></g><path d="m51.023 68.031h17.008v-17.008h-17.008zm0 0" fill="#d57740"/><g fill="#fff"><use x="54.547" xlink:href="#f" y="62.738"/><use x="59.528" xlink:href="#b" y="62.738"/></g><path d="m68.031 68.031h17.012v-17.008h-17.012zm0 0" fill="#cc6046"/><g fill="#fff"><use x="71.555" xlink:href="#d" y="62.738"/><use x="76.536" xlink:href="#c" y="62.738"/></g><path d="m85.043 68.031h17.008v-17.008h-17.008zm0 0" fill="#bf3d4a"/><use fill="#fff" x="91.054" xlink:href="#f" y="62.738"/><path d="m102.05 68.031h17.009v-17.008h-17.009zm0 0" fill="#bf3d4a"/><use fill="#fff" x="108.062" xlink:href="#f" y="62.738"/><path d="m119.059 68.031h17.007v-17.008h-17.006zm0 0" fill="#bf3d4a"/><use fill="#fff" x="125.07" xlink:href="#f" y="62.738"/><path d="m136.066 68.031h17.008v-17.008h-17.008zm0 0" fill="#bf3d4a"/><use fill="#fff" x="142.078" xlink:href="#f" y="62.738"/><g clip-path="url(#v)"><path d="m153.074 68.031h17.008v-17.008h-17.008zm0 0" fill="#bf3d4a"/></g><use fill="#fff" x="159.086" xlink:href="#f" y="62.738"/><use x="74.045" xlink:href="#c" y="11.714"/><path d="m17.008 85.043h17.008v-17.012h-17.008zm0 0" fill="#ca5947"/><g fill="#fff"><use x="20.531" xlink:href="#d" y="79.746"/><use x="25.512" xlink:href="#h" y="79.746"/></g><path d="m34.016 85.043h17.007v-17.012h-17.007zm0 0" fill="#c85448"/><g fill="#fff"><use x="37.539" xlink:href="#a" y="79.746"/><use x="42.52" xlink:href="#b" y="79.746"/></g><path d="m51.023 85.043h17.008v-17.012h-17.008zm0 0" fill="#cc6046"/><g fill="#fff"><use x="54.547" xlink:href="#d" y="79.746"/><use x="59.528" xlink:href="#c" y="79.746"/></g><path d="m68.031 85.043h17.012v-17.012h-17.012zm0 0" fill="#d57740"/><g fill="#fff"><use x="71.555" xlink:href="#f" y="79.746"/><use x="76.536" xlink:href="#b" y="79.746"/></g><path d="m85.043 85.043h17.008v-17.012h-17.008zm0 0" fill="#bf3b4a"/><use fill="#fff" x="91.054" xlink:href="#d" y="79.746"/><path d="m102.05 85.043h17.009v-17.012h-17.009zm0 0" fill="#bf3b4a"/><use fill="#fff" x="108.062" xlink:href="#d" y="79.746"/><path d="m119.059 85.043h17.007v-17.012h-17.006zm0 0" fill="#c1424a"/><use fill="#fff" x="125.07" xlink:href="#i" y="79.746"/><path d="m136.066 85.043h17.008v-17.012h-17.008zm0 0" fill="#c0404a"/><use fill="#fff" x="142.078" xlink:href="#e" y="79.746"/><g clip-path="url(#w)"><path d="m153.074 85.043h17.008v-17.012h-17.008zm0 0" fill="#c0404a"/></g><use fill="#fff" x="159.086" xlink:href="#e" y="79.746"/><use x="91.054" xlink:href="#e" y="11.714"/><path d="m17.008 102.05h17.008v-17.006h-17.008zm0 0" fill="#bf3d4a"/><use fill="#fff" x="23.021" xlink:href="#f" y="96.754"/><path d="m34.016 102.05h17.007v-17.006h-17.007zm0 0" fill="#c2444a"/><use fill="#fff" x="40.029" xlink:href="#b" y="96.754"/><path d="m51.023 102.05h17.008v-17.006h-17.008zm0 0" fill="#bf3d4a"/><use fill="#fff" x="57.037" xlink:href="#f" y="96.754"/><path d="m68.031 102.05h17.012v-17.006h-17.012zm0 0" fill="#bf3b4a"/><use fill="#fff" x="74.045" xlink:href="#d" y="96.754"/><path d="m85.043 102.05h17.008v-17.006h-17.008zm0 0" fill="#c54c49"/><g fill="#fff"><use x="88.563" xlink:href="#a" y="96.754"/><use x="93.544" xlink:href="#d" y="96.754"/></g><path d="m102.05 102.05h17.009v-17.006h-17.009zm0 0" fill="#be3a4a"/><use fill="#fff" x="108.062" xlink:href="#a" y="96.754"/><path d="m119.059 102.05h17.007v-17.006h-17.006zm0 0" fill="#bf0040"/><use fill="#fff" x="125.07" xlink:href="#h" y="96.754"/><path d="m136.066 102.05h17.008v-17.006h-17.008zm0 0" fill="#bf0040"/><use fill="#fff" x="142.078" xlink:href="#h" y="96.754"/><g clip-path="url(#x)"><path d="m153.074 102.05h17.008v-17.006h-17.008zm0 0" fill="#bf0040"/></g><use fill="#fff" x="159.086" xlink:href="#h" y="96.754"/><use x="108.062" xlink:href="#i" y="11.714"/><path d="m17.008 119.059h17.008v-17.009h-17.008zm0 0" fill="#bf3d4a"/><use fill="#fff" x="23.021" xlink:href="#f" y="113.762"/><path d="m34.016 119.059h17.007v-17.009h-17.007zm0 0" fill="#c2444a"/><use fill="#fff" x="40.029" xlink:href="#b" y="113.762"/><path d="m51.023 119.059h17.008v-17.009h-17.008zm0 0" fill="#bf3d4a"/><use fill="#fff" x="57.037" xlink:href="#f" y="113.762"/><path d="m68.031 119.059h17.012v-17.009h-17.012zm0 0" fill="#bf3b4a"/><use fill="#fff" x="74.045" xlink:href="#d" y="113.762"/><path d="m85.043 119.059h17.008v-17.009h-17.008zm0 0" fill="#be3a4a"/><use fill="#fff" x="91.053" xlink:href="#a" y="113.762"/><path d="m102.05 119.059h17.009v-17.009h-17.009zm0 0" fill="#d47540"/><g fill="#fff"><use x="105.571" xlink:href="#f" y="113.762"/><use x="110.552" xlink:href="#i" y="113.762"/></g><path d="m119.059 119.059h17.007v-17.009h-17.006zm0 0" fill="#bf0040"/><use fill="#fff" x="125.07" xlink:href="#h" y="113.762"/><path d="m136.066 119.059h17.008v-17.009h-17.008zm0 0" fill="#bf0040"/><use fill="#fff" x="142.078" xlink:href="#h" y="113.762"/><g clip-path="url(#y)"><path d="m153.074 119.059h17.008v-17.009h-17.008zm0 0" fill="#bf0040"/></g><use fill="#fff" x="159.086" xlink:href="#h" y="113.762"/><use x="125.07" xlink:href="#b" y="11.714"/><path d="m17.008 136.066h17.008v-17.006h-17.008zm0 0" fill="#bf3d4a"/><use fill="#fff" x="23.021" xlink:href="#f" y="130.77"/><path d="m34.016 136.066h17.007v-17.006h-17.007zm0 0" fill="#bf3b4a"/><use fill="#fff" x="40.029" xlink:href="#d" y="130.77"/><path d="m51.023 136.066h17.008v-17.006h-17.008zm0 0" fill="#bf3d4a"/><use fill="#fff" x="57.037" xlink:href="#f" y="130.77"/><path d="m68.031 136.066h17.012v-17.006h-17.012zm0 0" fill="#c1424a"/><use fill="#fff" x="74.045" xlink:href="#i" y="130.77"/><path d="m85.043 136.066h17.008v-17.006h-17.008zm0 0" fill="#bf0040"/><use fill="#fff" x="91.053" xlink:href="#h" y="130.77"/><path d="m102.05 136.066h17.009v-17.006h-17.009zm0 0" fill="#bf0040"/><use fill="#fff" x="108.061" xlink:href="#h" y="130.77"/><path d="m119.059 136.066h17.007v-17.006h-17.006zm0 0" fill="#da863b"/><g fill="#fff"><use x="122.579" xlink:href="#c" y="130.77"/><use x="127.56" xlink:href="#e" y="130.77"/></g><path d="m136.066 136.066h17.008v-17.006h-17.008zm0 0" fill="#be3a4a"/><use fill="#fff" x="142.078" xlink:href="#a" y="130.77"/><g clip-path="url(#z)"><path d="m153.074 136.066h17.008v-17.006h-17.008zm0 0" fill="#be3a4a"/></g><use fill="#fff" x="159.086" xlink:href="#a" y="130.77"/><use x="142.078" xlink:href="#j" y="11.714"/><path d="m17.008 153.074h17.008v-17.008h-17.008zm0 0" fill="#bf3d4a"/><use fill="#fff" x="23.021" xlink:href="#f" y="147.778"/><path d="m34.016 153.074h17.007v-17.008h-17.007zm0 0" fill="#bf3d4a"/><use fill="#fff" x="40.029" xlink:href="#f" y="147.778"/><path d="m51.023 153.074h17.008v-17.008h-17.008zm0 0" fill="#bf3d4a"/><use fill="#fff" x="57.037" xlink:href="#f" y="147.778"/><path d="m68.031 153.074h17.012v-17.008h-17.012zm0 0" fill="#c0404a"/><use fill="#fff" x="74.045" xlink:href="#e" y="147.778"/><path d="m85.043 153.074h17.008v-17.008h-17.008zm0 0" fill="#bf0040"/><use fill="#fff" x="91.053" xlink:href="#h" y="147.778"/><path d="m102.05 153.074h17.009v-17.008h-17.009zm0 0" fill="#bf0040"/><use fill="#fff" x="108.061" xlink:href="#h" y="147.778"/><path d="m119.059 153.074h17.007v-17.008h-17.006zm0 0" fill="#be3a4a"/><use fill="#fff" x="125.07" xlink:href="#a" y="147.778"/><path d="m136.066 153.074h17.008v-17.008h-17.008zm0 0" fill="#cc5f46"/><g fill="#fff"><use x="139.587" xlink:href="#d" y="147.778"/><use x="144.568" xlink:href="#f" y="147.778"/></g><g clip-path="url(#A)"><path d="m153.074 153.074h17.008v-17.008h-17.008zm0 0" fill="#be3a4a"/></g><use fill="#fff" x="159.086" xlink:href="#a" y="147.778"/><use x="159.086" xlink:href="#g" y="11.714"/><g clip-path="url(#B)"><path d="m17.008 170.082h17.008v-17.008h-17.008zm0 0" fill="#bf3d4a"/></g><use fill="#fff" x="23.021" xlink:href="#f" y="164.786"/><g clip-path="url(#C)"><path d="m34.016 170.082h17.007v-17.008h-17.007zm0 0" fill="#bf3b4a"/></g><use fill="#fff" x="40.029" xlink:href="#d" y="164.786"/><g clip-path="url(#D)"><path d="m51.023 170.082h17.008v-17.008h-17.008zm0 0" fill="#bf3d4a"/></g><use fill="#fff" x="57.037" xlink:href="#f" y="164.786"/><g clip-path="url(#E)"><path d="m68.031 170.082h17.012v-17.008h-17.012zm0 0" fill="#c0404a"/></g><use fill="#fff" x="74.045" xlink:href="#e" y="164.786"/><g clip-path="url(#F)"><path d="m85.043 170.082h17.008v-17.008h-17.008zm0 0" fill="#bf0040"/></g><use fill="#fff" x="91.053" xlink:href="#h" y="164.786"/><g clip-path="url(#G)"><path d="m102.05 170.082h17.009v-17.008h-17.009zm0 0" fill="#bf0040"/></g><use fill="#fff" x="108.061" xlink:href="#h" y="164.786"/><g clip-path="url(#H)"><path d="m119.059 170.082h17.007v-17.008h-17.006zm0 0" fill="#be3a4a"/></g><use fill="#fff" x="125.07" xlink:href="#a" y="164.786"/><g clip-path="url(#I)"><path d="m136.066 170.082h17.008v-17.008h-17.008zm0 0" fill="#be3a4a"/></g><use fill="#fff" x="142.078" xlink:href="#a" y="164.786"/><g clip-path="url(#J)"><path d="m153.074 170.082h17.008v-17.008h-17.008zm0 0" fill="#f0c51e"/></g><g fill="#fff"><use x="156.595" xlink:href="#b" y="164.786"/><use x="161.576" xlink:href="#j" y="164.786"/></g><use x="6.013" xlink:href="#k" y="27.656"/><use x="5.737" xlink:href="#l" y="45.979"/><use x="6.29" xlink:href="#m" y="61.673"/><use x="5.737" xlink:href="#n" y="79.995"/><use x="6.29" xlink:href="#o" y="95.689"/><use x="6.982" xlink:href="#p" y="114.011"/><use x="6.013" xlink:href="#q" y="128.736"/><use x="5.737" xlink:href="#r" y="148.027"/><use x="7.12" xlink:href="#s" y="164.903"/></svg>