<svg xmlns="http://www.w3.org/2000/svg" xmlns:xlink="http://www.w3.org/1999/xlink" width="226.773" height="226.773" viewBox="0 0 170.08 170.08"><defs><symbol overflow="visible" id="a"><path style="stroke:none" d="M2.938-6.375c0-.25 0-.266-.235-.266C2.078-6 1.203-6 .891-6v.313c.203 0 .78 0 1.296-.266v5.172c0 .36-.03.469-.921.469H.953V0c.344-.031 1.203-.031 1.61-.031.39 0 1.265 0 1.609.031v-.313h-.313c-.906 0-.921-.109-.921-.468Zm0 0"/></symbol><symbol overflow="visible" id="b"><path style="stroke:none" d="M4.75-6.078c.078-.11.078-.125.078-.344H2.406c-1.203 0-1.234-.125-1.265-.312H.89L.562-4.688h.25c.032-.156.11-.78.25-.906.063-.062.844-.062.97-.062h2.062c-.11.156-.89 1.25-1.11 1.578C2.078-2.734 1.75-1.344 1.75-.328c0 .094 0 .547.469.547.453 0 .453-.453.453-.547v-.516c0-.547.031-1.094.11-1.625.046-.234.171-1.094.624-1.703Zm0 0"/></symbol><symbol overflow="visible" id="c"><path style="stroke:none" d="M2.938-1.64v.859c0 .36-.032.469-.766.469h-.203V0c.406-.031.922-.031 1.343-.031.422 0 .938 0 1.36.031v-.313h-.219c-.734 0-.75-.109-.75-.468v-.86h.985v-.312h-.985v-4.531c0-.204 0-.266-.172-.266-.078 0-.11 0-.187.125L.28-1.953v.312Zm.046-.313H.563l2.421-3.719Zm0 0"/></symbol><symbol overflow="visible" id="d"><path style="stroke:none" d="m1.266-.766 1.062-1.03c1.547-1.376 2.14-1.907 2.14-2.907 0-1.14-.89-1.938-2.109-1.938A1.843 1.843 0 0 0 .5-4.828c0 .547.5.547.531.547.172 0 .516-.11.516-.532a.513.513 0 0 0-.531-.515c-.079 0-.094 0-.125.016.218-.657.765-1.016 1.343-1.016.907 0 1.329.812 1.329 1.625 0 .797-.485 1.578-1.047 2.203L.609-.375C.5-.265.5-.235.5 0h3.703l.266-1.734h-.235C4.172-1.438 4.11-1 4-.844c-.063.078-.719.078-.938.078Zm0 0"/></symbol><symbol overflow="visible" id="e"><path style="stroke:none" d="M4.469-2c0-1.188-.813-2.188-1.89-2.188-.47 0-.907.157-1.267.516v-1.953c.204.063.532.125.844.125 1.235 0 1.938-.906 1.938-1.031 0-.063-.032-.11-.11-.11 0 0-.03 0-.078.032a3.22 3.22 0 0 1-1.36.296 3.4 3.4 0 0 1-1.327-.28c-.078-.032-.094-.032-.11-.032C1-6.625 1-6.547 1-6.391v2.954c0 .171 0 .25.14.25.079 0 .094-.016.141-.079.11-.156.469-.703 1.282-.703.515 0 .765.453.843.64.156.376.188.75.188 1.25 0 .36 0 .954-.25 1.376-.235.39-.61.64-1.063.64-.719 0-1.297-.53-1.469-1.109.032 0 .063.016.172.016.329 0 .5-.25.5-.485 0-.25-.171-.5-.5-.5-.14 0-.484.079-.484.532C.5-.75 1.188.219 2.297.219 3.453.219 4.469-.734 4.469-2Zm0 0"/></symbol><symbol overflow="visible" id="f"><path style="stroke:none" d="M2.89-3.516c.813-.265 1.391-.953 1.391-1.75 0-.812-.875-1.375-1.828-1.375-1 0-1.765.594-1.765 1.36 0 .328.218.515.515.515.297 0 .5-.218.5-.515 0-.485-.469-.485-.61-.485.298-.5.954-.625 1.313-.625.422 0 .969.22.969 1.11 0 .125-.031.703-.281 1.14-.297.485-.64.516-.89.516a3.29 3.29 0 0 1-.392.031c-.078.016-.14.031-.14.125 0 .11.062.11.234.11h.438c.812 0 1.187.671 1.187 1.656 0 1.36-.687 1.64-1.125 1.64-.437 0-1.187-.171-1.531-.75.344.047.656-.171.656-.546a.537.537 0 0 0-.547-.563c-.25 0-.562.14-.562.578C.422-.437 1.344.22 2.437.22c1.22 0 2.126-.906 2.126-1.922 0-.813-.641-1.594-1.672-1.813Zm0 0"/></symbol><symbol overflow="visible" id="g"><path style="stroke:none" d="M3.656-3.172v.328c0 2.328-1.031 2.781-1.61 2.781-.171 0-.718-.015-.983-.359.437 0 .515-.281.515-.453 0-.313-.234-.453-.453-.453-.156 0-.453.078-.453.469 0 .671.531 1.078 1.375 1.078 1.297 0 2.515-1.36 2.515-3.5 0-2.688-1.156-3.36-2.046-3.36-.547 0-1.032.188-1.454.625-.421.454-.64.875-.64 1.625 0 1.235.875 2.22 1.984 2.22.61 0 1.016-.423 1.25-1Zm-1.234.766c-.156 0-.625 0-.922-.625-.188-.375-.188-.86-.188-1.36 0-.53 0-1 .22-1.375.265-.5.64-.625.984-.625.468 0 .796.344.968.782.11.328.157.953.157 1.406 0 .828-.344 1.797-1.22 1.797Zm0 0"/></symbol><symbol overflow="visible" id="h"><path style="stroke:none" d="M4.578-3.188c0-.796-.047-1.593-.39-2.328C3.733-6.484 2.905-6.64 2.5-6.64c-.61 0-1.328.266-1.75 1.188-.313.687-.36 1.469-.36 2.266 0 .75.032 1.64.454 2.406a1.83 1.83 0 0 0 1.64 1c.532 0 1.297-.203 1.735-1.157.312-.687.36-1.468.36-2.25ZM2.484 0c-.39 0-.984-.25-1.156-1.203-.11-.594-.11-1.516-.11-2.11 0-.64 0-1.296.079-1.828.187-1.187.937-1.28 1.187-1.28.329 0 .985.187 1.172 1.171.11.563.11 1.313.11 1.938 0 .75 0 1.421-.11 2.062C3.5-.297 2.937 0 2.484 0Zm0 0"/></symbol><symbol overflow="visible" id="l"><path style="stroke:none" d="M1.313-3.266v-.25c0-2.515 1.234-2.875 1.75-2.875.234 0 .656.063.874.407-.156 0-.546 0-.546.437 0 .313.234.469.453.469.156 0 .469-.094.469-.484 0-.594-.438-1.079-1.266-1.079C1.766-6.64.422-5.359.422-3.156.422-.484 1.578.219 2.5.219c1.11 0 2.063-.938 2.063-2.25 0-1.266-.891-2.219-2-2.219-.672 0-1.047.5-1.25.984ZM2.5-.062c-.625 0-.922-.594-.984-.75-.188-.47-.188-1.266-.188-1.438 0-.781.328-1.781 1.219-1.781.172 0 .625 0 .937.625.172.36.172.875.172 1.36 0 .483 0 .983-.172 1.343-.296.594-.75.64-.984.64Zm0 0"/></symbol><symbol overflow="visible" id="q"><path style="stroke:none" d="M1.625-4.563c-.453-.296-.5-.625-.5-.796 0-.61.656-1.032 1.36-1.032.718 0 1.359.516 1.359 1.235 0 .578-.39 1.047-.985 1.39Zm1.453.954c.719-.375 1.203-.891 1.203-1.547 0-.922-.875-1.485-1.781-1.485-1 0-1.813.735-1.813 1.672 0 .172.016.625.438 1.094.11.11.484.36.734.531C1.281-3.047.422-2.5.422-1.5.422-.453 1.438.219 2.484.219c1.125 0 2.079-.828 2.079-1.89 0-.36-.11-.813-.5-1.235-.188-.203-.344-.297-.985-.703Zm-1 .421 1.235.782c.28.187.75.484.75 1.094 0 .734-.75 1.25-1.563 1.25C1.64-.063.922-.672.922-1.5c0-.578.312-1.219 1.156-1.688Zm0 0"/></symbol><symbol overflow="visible" id="B"><path style="stroke:none" d="M3.313-.75c.046.39.312.813.78.813.22 0 .829-.141.829-.954v-.562h-.25v.562c0 .579-.25.641-.36.641-.328 0-.375-.453-.375-.5v-1.984c0-.422 0-.813-.359-1.188a1.9 1.9 0 0 0-1.36-.547C1.391-4.469.703-4 .703-3.344c0 .297.203.469.469.469a.435.435 0 0 0 .453-.453c0-.125-.047-.453-.516-.453.282-.36.766-.469 1.079-.469.5 0 1.062.39 1.062 1.281v.36c-.516.03-1.203.062-1.828.359-.75.344-1 .86-1 1.297 0 .812.969 1.062 1.594 1.062A1.38 1.38 0 0 0 3.312-.75ZM3.25-2.39v1c0 .937-.719 1.28-1.172 1.28-.484 0-.89-.343-.89-.843 0-.547.421-1.375 2.062-1.438Zm0 0"/></symbol><symbol overflow="visible" id="C"><path style="stroke:none" d="M1.719-3.766v-3.156l-1.438.11v.312c.703 0 .781.063.781.563V0h.25c0-.016.079-.156.36-.625.14.234.562.734 1.297.734 1.187 0 2.219-.984 2.219-2.265 0-1.266-.97-2.25-2.11-2.25-.781 0-1.203.468-1.36.64ZM1.75-1.14v-2.046c0-.188 0-.204.11-.36.39-.562.937-.64 1.171-.64.453 0 .813.265 1.047.64.266.406.281.969.281 1.39 0 .36-.015.954-.296 1.407-.22.313-.594.64-1.125.64-.454 0-.813-.234-1.047-.609-.141-.203-.141-.234-.141-.422Zm0 0"/></symbol><symbol overflow="visible" id="D"><path style="stroke:none" d="M1.172-2.172c0-1.625.812-2.047 1.344-2.047.093 0 .718.016 1.062.375-.406.031-.469.328-.469.453 0 .266.188.454.454.454.265 0 .468-.157.468-.47 0-.671-.765-1.062-1.531-1.062C1.25-4.469.344-3.39.344-2.156c0 1.281.984 2.265 2.14 2.265 1.329 0 1.657-1.203 1.657-1.296 0-.094-.11-.094-.141-.094-.078 0-.11.031-.125.093C3.594-.265 2.937-.14 2.578-.14c-.531 0-1.406-.421-1.406-2.03Zm0 0"/></symbol><symbol overflow="visible" id="E"><path style="stroke:none" d="M3.781-.547V.11L5.25 0v-.313c-.688 0-.781-.062-.781-.562v-6.047l-1.422.11v.312c.687 0 .765.063.765.563v2.156a1.582 1.582 0 0 0-1.25-.625c-1.171 0-2.218.984-2.218 2.265 0 1.266.969 2.25 2.11 2.25.64 0 1.077-.343 1.327-.656Zm0-2.672v2.047c0 .172 0 .188-.11.36-.296.484-.733.703-1.171.703-.453 0-.813-.266-1.047-.641-.25-.406-.281-.969-.281-1.39 0-.36.016-.954.297-1.407.218-.312.593-.64 1.14-.64.344 0 .766.156 1.063.593.11.172.11.188.11.375Zm0 0"/></symbol><symbol overflow="visible" id="F"><path style="stroke:none" d="M1.11-2.516C1.171-4 2.015-4.25 2.36-4.25c1.015 0 1.124 1.344 1.124 1.734Zm0 .22h2.78c.22 0 .25 0 .25-.22 0-.984-.546-1.953-1.78-1.953-1.158 0-2.08 1.032-2.08 2.282C.281-.86 1.328.108 2.47.108 3.688.11 4.14-1 4.14-1.187c0-.094-.079-.125-.141-.125-.078 0-.11.062-.125.14C3.531-.14 2.625-.14 2.531-.14c-.5 0-.89-.296-1.125-.671-.297-.47-.297-1.125-.297-1.485Zm0 0"/></symbol><symbol overflow="visible" id="G"><path style="stroke:none" d="M1.75-4.297v-1.156c0-.875.469-1.36.906-1.36.031 0 .188 0 .328.079a.443.443 0 0 0-.296.421c0 .22.156.422.437.422s.438-.203.438-.437c0-.375-.376-.703-.907-.703-.687 0-1.547.531-1.547 1.593v1.141H.33v.313h.78V-.75c0 .438-.109.438-.765.438V0c.39-.016.86-.031 1.125-.031.406 0 .875 0 1.265.031v-.313h-.203c-.734 0-.75-.109-.75-.468v-3.203h1.125v-.313Zm0 0"/></symbol><symbol overflow="visible" id="H"><path style="stroke:none" d="M2.219-1.719c-.875 0-.875-1-.875-1.218 0-.266.015-.594.156-.844.078-.11.313-.39.719-.39.86 0 .86.984.86 1.218 0 .265 0 .594-.157.844-.078.109-.313.39-.703.39Zm-1.156.39a.8.8 0 0 1 .156-.468c.39.281.812.313 1 .313.922 0 1.61-.688 1.61-1.454 0-.374-.157-.734-.407-.968.36-.344.719-.39.89-.39.032 0 .079 0 .11.015-.11.031-.172.14-.172.265 0 .172.14.282.297.282a.28.28 0 0 0 .281-.297c0-.172-.11-.485-.5-.485-.203 0-.64.063-1.062.47a1.652 1.652 0 0 0-1.047-.36c-.938 0-1.625.687-1.625 1.453 0 .437.219.812.469 1.031-.125.14-.313.469-.313.828 0 .313.14.688.453.89-.61.157-.922.595-.922.985 0 .719.985 1.266 2.203 1.266 1.172 0 2.204-.5 2.204-1.281 0-.344-.125-.86-.641-1.141-.531-.266-1.11-.266-1.719-.266-.25 0-.672 0-.75-.015-.312-.047-.516-.344-.516-.672ZM2.5 1.829C1.484 1.828.797 1.312.797.781c0-.453.375-.828.812-.844h.594c.86 0 1.969 0 1.969.844 0 .547-.703 1.047-1.672 1.047Zm0 0"/></symbol><symbol overflow="visible" id="I"><path style="stroke:none" d="M1.094-.75c0 .438-.11.438-.782.438V0c.36-.016.86-.031 1.141-.031.25 0 .766.015 1.11.031v-.313c-.672 0-.782 0-.782-.437v-1.844c0-1.031.719-1.594 1.344-1.594.64 0 .75.532.75 1.11V-.75c0 .438-.11.438-.781.438V0c.344-.016.86-.031 1.125-.031.25 0 .781.015 1.11.031v-.313c-.516 0-.766 0-.766-.296v-1.907c0-.859 0-1.156-.313-1.515-.14-.172-.469-.375-1.047-.375-.844 0-1.281.593-1.453.984v-3.5l-1.438.11v.312c.704 0 .782.063.782.563Zm0 0"/></symbol><symbol overflow="visible" id="J"><path style="stroke:none" d="m1.766-4.406-1.391.11v.312c.64 0 .734.062.734.546V-.75c0 .438-.109.438-.78.438V0c.312-.016.859-.031 1.093-.031.36 0 .703.015 1.047.031v-.313c-.672 0-.703-.046-.703-.437Zm.03-1.735a.514.514 0 0 0-.515-.53.537.537 0 0 0-.531.53c0 .266.219.532.531.532a.514.514 0 0 0 .516-.532Zm0 0"/></symbol><clipPath id="i"><path d="M153 17h17.078v18H153Zm0 0"/></clipPath><clipPath id="j"><path d="M153 34h17.078v18H153Zm0 0"/></clipPath><clipPath id="k"><path d="M153 51h17.078v18H153Zm0 0"/></clipPath><clipPath id="m"><path d="M153 68h17.078v18H153Zm0 0"/></clipPath><clipPath id="n"><path d="M153 85h17.078v18H153Zm0 0"/></clipPath><clipPath id="o"><path d="M153 102h17.078v18H153Zm0 0"/></clipPath><clipPath id="p"><path d="M153 119h17.078v18H153Zm0 0"/></clipPath><clipPath id="r"><path d="M153 136h17.078v18H153Zm0 0"/></clipPath><clipPath id="s"><path d="M17 153h18v17.078H17Zm0 0"/></clipPath><clipPath id="t"><path d="M34 153h18v17.078H34Zm0 0"/></clipPath><clipPath id="u"><path d="M51 153h18v17.078H51Zm0 0"/></clipPath><clipPath id="v"><path d="M68 153h18v17.078H68Zm0 0"/></clipPath><clipPath id="w"><path d="M85 153h18v17.078H85Zm0 0"/></clipPath><clipPath id="x"><path d="M102 153h18v17.078h-18Zm0 0"/></clipPath><clipPath id="y"><path d="M119 153h18v17.078h-18Zm0 0"/></clipPath><clipPath id="z"><path d="M136 153h18v17.078h-18Zm0 0"/></clipPath><clipPath id="A"><path d="M153 153h17.078v17.078H153Zm0 0"/></clipPath></defs><use xlink:href="#a" x="23.021" y="11.714" style="fill:#000;fill-opacity:1"/><path style="stroke:none;fill-rule:nonzero;fill:#edbd22;fill-opacity:1" d="M17.008 34.016h17.008V17.008H17.008Zm0 0"/><g style="fill:#fff;fill-opacity:1"><use xlink:href="#b" x="20.531" y="28.722"/><use xlink:href="#c" x="25.512" y="28.722"/></g><path style="stroke:none;fill-rule:nonzero;fill:#cd6245;fill-opacity:1" d="M34.016 34.016h17.007V17.008H34.016Zm0 0"/><g style="fill:#fff;fill-opacity:1"><use xlink:href="#d" x="37.539" y="28.722"/><use xlink:href="#e" x="42.52" y="28.722"/></g><path style="stroke:none;fill-rule:nonzero;fill:#d67b3f;fill-opacity:1" d="M51.023 34.016h17.008V17.008H51.023Zm0 0"/><g style="fill:#fff;fill-opacity:1"><use xlink:href="#f" x="54.547" y="28.722"/><use xlink:href="#g" x="59.528" y="28.722"/></g><path style="stroke:none;fill-rule:nonzero;fill:#ca5947;fill-opacity:1" d="M68.031 34.016h17.012V17.008H68.031Zm0 0"/><g style="fill:#fff;fill-opacity:1"><use xlink:href="#d" x="71.555" y="28.722"/><use xlink:href="#h" x="76.536" y="28.722"/></g><path style="stroke:none;fill-rule:nonzero;fill:#bf3d4a;fill-opacity:1" d="M85.043 34.016h17.008V17.008H85.043Zm0 0"/><use xlink:href="#f" x="91.053" y="28.722" style="fill:#fff;fill-opacity:1"/><path style="stroke:none;fill-rule:nonzero;fill:#bf3d4a;fill-opacity:1" d="M102.05 34.016h17.009V17.008H102.05Zm0 0"/><use xlink:href="#f" x="108.062" y="28.722" style="fill:#fff;fill-opacity:1"/><path style="stroke:none;fill-rule:nonzero;fill:#bf3d4a;fill-opacity:1" d="M119.059 34.016h17.007V17.008H119.06Zm0 0"/><use xlink:href="#f" x="125.07" y="28.722" style="fill:#fff;fill-opacity:1"/><path style="stroke:none;fill-rule:nonzero;fill:#bf3d4a;fill-opacity:1" d="M136.066 34.016h17.008V17.008h-17.008Zm0 0"/><use xlink:href="#f" x="142.078" y="28.722" style="fill:#fff;fill-opacity:1"/><g clip-path="url(#i)"><path style="stroke:none;fill-rule:nonzero;fill:#bf3d4a;fill-opacity:1" d="M153.074 34.016h17.008V17.008h-17.008Zm0 0"/></g><use xlink:href="#f" x="159.086" y="28.722" style="fill:#fff;fill-opacity:1"/><use xlink:href="#d" x="40.029" y="11.714" style="fill:#000;fill-opacity:1"/><path style="stroke:none;fill-rule:nonzero;fill:#cd6245;fill-opacity:1" d="M17.008 51.023h17.008V34.016H17.008Zm0 0"/><g style="fill:#fff;fill-opacity:1"><use xlink:href="#d" x="20.531" y="45.73"/><use xlink:href="#e" x="25.512" y="45.73"/></g><path style="stroke:none;fill-rule:nonzero;fill:#df9536;fill-opacity:1" d="M34.016 51.023h17.007V34.016H34.016Zm0 0"/><g style="fill:#fff;fill-opacity:1"><use xlink:href="#e" x="37.539" y="45.73"/><use xlink:href="#f" x="42.52" y="45.73"/></g><path style="stroke:none;fill-rule:nonzero;fill:#d16d43;fill-opacity:1" d="M51.023 51.023h17.008V34.016H51.023Zm0 0"/><g style="fill:#fff;fill-opacity:1"><use xlink:href="#f" x="54.547" y="45.73"/><use xlink:href="#a" x="59.528" y="45.73"/></g><path style="stroke:none;fill-rule:nonzero;fill:#c85448;fill-opacity:1" d="M68.031 51.023h17.012V34.016H68.031Zm0 0"/><g style="fill:#fff;fill-opacity:1"><use xlink:href="#a" x="71.555" y="45.73"/><use xlink:href="#b" x="76.536" y="45.73"/></g><path style="stroke:none;fill-rule:nonzero;fill:#c2444a;fill-opacity:1" d="M85.043 51.023h17.008V34.016H85.043Zm0 0"/><use xlink:href="#b" x="91.054" y="45.73" style="fill:#fff;fill-opacity:1"/><path style="stroke:none;fill-rule:nonzero;fill:#c2444a;fill-opacity:1" d="M102.05 51.023h17.009V34.016H102.05Zm0 0"/><use xlink:href="#b" x="108.062" y="45.73" style="fill:#fff;fill-opacity:1"/><path style="stroke:none;fill-rule:nonzero;fill:#bf3b4a;fill-opacity:1" d="M119.059 51.023h17.007V34.016H119.06Zm0 0"/><use xlink:href="#d" x="125.07" y="45.73" style="fill:#fff;fill-opacity:1"/><path style="stroke:none;fill-rule:nonzero;fill:#bf3d4a;fill-opacity:1" d="M136.066 51.023h17.008V34.016h-17.008Zm0 0"/><use xlink:href="#f" x="142.078" y="45.73" style="fill:#fff;fill-opacity:1"/><g clip-path="url(#j)"><path style="stroke:none;fill-rule:nonzero;fill:#bf3b4a;fill-opacity:1" d="M153.074 51.023h17.008V34.016h-17.008Zm0 0"/></g><use xlink:href="#d" x="159.086" y="45.73" style="fill:#fff;fill-opacity:1"/><use xlink:href="#f" x="57.037" y="11.714" style="fill:#000;fill-opacity:1"/><path style="stroke:none;fill-rule:nonzero;fill:#d67b3f;fill-opacity:1" d="M17.008 68.031h17.008V51.023H17.008Zm0 0"/><g style="fill:#fff;fill-opacity:1"><use xlink:href="#f" x="20.531" y="62.738"/><use xlink:href="#g" x="25.512" y="62.738"/></g><path style="stroke:none;fill-rule:nonzero;fill:#d16d43;fill-opacity:1" d="M34.016 68.031h17.007V51.023H34.016Zm0 0"/><g style="fill:#fff;fill-opacity:1"><use xlink:href="#f" x="37.539" y="62.738"/><use xlink:href="#a" x="42.52" y="62.738"/></g><path style="stroke:none;fill-rule:nonzero;fill:#d57740;fill-opacity:1" d="M51.023 68.031h17.008V51.023H51.023Zm0 0"/><g style="fill:#fff;fill-opacity:1"><use xlink:href="#f" x="54.547" y="62.738"/><use xlink:href="#b" x="59.528" y="62.738"/></g><path style="stroke:none;fill-rule:nonzero;fill:#cc6046;fill-opacity:1" d="M68.031 68.031h17.012V51.023H68.031Zm0 0"/><g style="fill:#fff;fill-opacity:1"><use xlink:href="#d" x="71.555" y="62.738"/><use xlink:href="#c" x="76.536" y="62.738"/></g><path style="stroke:none;fill-rule:nonzero;fill:#bf3d4a;fill-opacity:1" d="M85.043 68.031h17.008V51.023H85.043Zm0 0"/><use xlink:href="#f" x="91.054" y="62.738" style="fill:#fff;fill-opacity:1"/><path style="stroke:none;fill-rule:nonzero;fill:#bf3d4a;fill-opacity:1" d="M102.05 68.031h17.009V51.023H102.05Zm0 0"/><use xlink:href="#f" x="108.062" y="62.738" style="fill:#fff;fill-opacity:1"/><path style="stroke:none;fill-rule:nonzero;fill:#bf3d4a;fill-opacity:1" d="M119.059 68.031h17.007V51.023H119.06Zm0 0"/><use xlink:href="#f" x="125.07" y="62.738" style="fill:#fff;fill-opacity:1"/><path style="stroke:none;fill-rule:nonzero;fill:#bf3d4a;fill-opacity:1" d="M136.066 68.031h17.008V51.023h-17.008Zm0 0"/><use xlink:href="#f" x="142.078" y="62.738" style="fill:#fff;fill-opacity:1"/><g clip-path="url(#k)"><path style="stroke:none;fill-rule:nonzero;fill:#bf3d4a;fill-opacity:1" d="M153.074 68.031h17.008V51.023h-17.008Zm0 0"/></g><use xlink:href="#f" x="159.086" y="62.738" style="fill:#fff;fill-opacity:1"/><use xlink:href="#c" x="74.045" y="11.714" style="fill:#000;fill-opacity:1"/><path style="stroke:none;fill-rule:nonzero;fill:#ca5947;fill-opacity:1" d="M17.008 85.043h17.008V68.031H17.008Zm0 0"/><g style="fill:#fff;fill-opacity:1"><use xlink:href="#d" x="20.531" y="79.746"/><use xlink:href="#h" x="25.512" y="79.746"/></g><path style="stroke:none;fill-rule:nonzero;fill:#c85448;fill-opacity:1" d="M34.016 85.043h17.007V68.031H34.016Zm0 0"/><g style="fill:#fff;fill-opacity:1"><use xlink:href="#a" x="37.539" y="79.746"/><use xlink:href="#b" x="42.52" y="79.746"/></g><path style="stroke:none;fill-rule:nonzero;fill:#cc6046;fill-opacity:1" d="M51.023 85.043h17.008V68.031H51.023Zm0 0"/><g style="fill:#fff;fill-opacity:1"><use xlink:href="#d" x="54.547" y="79.746"/><use xlink:href="#c" x="59.528" y="79.746"/></g><path style="stroke:none;fill-rule:nonzero;fill:#d57740;fill-opacity:1" d="M68.031 85.043h17.012V68.031H68.031Zm0 0"/><g style="fill:#fff;fill-opacity:1"><use xlink:href="#f" x="71.555" y="79.746"/><use xlink:href="#b" x="76.536" y="79.746"/></g><path style="stroke:none;fill-rule:nonzero;fill:#bf3b4a;fill-opacity:1" d="M85.043 85.043h17.008V68.031H85.043Zm0 0"/><use xlink:href="#d" x="91.054" y="79.746" style="fill:#fff;fill-opacity:1"/><path style="stroke:none;fill-rule:nonzero;fill:#bf3b4a;fill-opacity:1" d="M102.05 85.043h17.009V68.031H102.05Zm0 0"/><use xlink:href="#d" x="108.062" y="79.746" style="fill:#fff;fill-opacity:1"/><path style="stroke:none;fill-rule:nonzero;fill:#c1424a;fill-opacity:1" d="M119.059 85.043h17.007V68.031H119.06Zm0 0"/><use xlink:href="#l" x="125.07" y="79.746" style="fill:#fff;fill-opacity:1"/><path style="stroke:none;fill-rule:nonzero;fill:#c0404a;fill-opacity:1" d="M136.066 85.043h17.008V68.031h-17.008Zm0 0"/><use xlink:href="#e" x="142.078" y="79.746" style="fill:#fff;fill-opacity:1"/><g clip-path="url(#m)"><path style="stroke:none;fill-rule:nonzero;fill:#c0404a;fill-opacity:1" d="M153.074 85.043h17.008V68.031h-17.008Zm0 0"/></g><use xlink:href="#e" x="159.086" y="79.746" style="fill:#fff;fill-opacity:1"/><use xlink:href="#e" x="91.054" y="11.714" style="fill:#000;fill-opacity:1"/><path style="stroke:none;fill-rule:nonzero;fill:#bf3d4a;fill-opacity:1" d="M17.008 102.05h17.008V85.044H17.008Zm0 0"/><use xlink:href="#f" x="23.021" y="96.754" style="fill:#fff;fill-opacity:1"/><path style="stroke:none;fill-rule:nonzero;fill:#c2444a;fill-opacity:1" d="M34.016 102.05h17.007V85.044H34.016Zm0 0"/><use xlink:href="#b" x="40.029" y="96.754" style="fill:#fff;fill-opacity:1"/><path style="stroke:none;fill-rule:nonzero;fill:#bf3d4a;fill-opacity:1" d="M51.023 102.05h17.008V85.044H51.023Zm0 0"/><use xlink:href="#f" x="57.037" y="96.754" style="fill:#fff;fill-opacity:1"/><path style="stroke:none;fill-rule:nonzero;fill:#bf3b4a;fill-opacity:1" d="M68.031 102.05h17.012V85.044H68.031Zm0 0"/><use xlink:href="#d" x="74.045" y="96.754" style="fill:#fff;fill-opacity:1"/><path style="stroke:none;fill-rule:nonzero;fill:#c54c49;fill-opacity:1" d="M85.043 102.05h17.008V85.044H85.043Zm0 0"/><g style="fill:#fff;fill-opacity:1"><use xlink:href="#a" x="88.563" y="96.754"/><use xlink:href="#d" x="93.544" y="96.754"/></g><path style="stroke:none;fill-rule:nonzero;fill:#be3a4a;fill-opacity:1" d="M102.05 102.05h17.009V85.044H102.05Zm0 0"/><use xlink:href="#a" x="108.062" y="96.754" style="fill:#fff;fill-opacity:1"/><path style="stroke:none;fill-rule:nonzero;fill:#bf0040;fill-opacity:1" d="M119.059 102.05h17.007V85.044H119.06Zm0 0"/><use xlink:href="#h" x="125.07" y="96.754" style="fill:#fff;fill-opacity:1"/><path style="stroke:none;fill-rule:nonzero;fill:#bf0040;fill-opacity:1" d="M136.066 102.05h17.008V85.044h-17.008Zm0 0"/><use xlink:href="#h" x="142.078" y="96.754" style="fill:#fff;fill-opacity:1"/><g clip-path="url(#n)"><path style="stroke:none;fill-rule:nonzero;fill:#bf0040;fill-opacity:1" d="M153.074 102.05h17.008V85.044h-17.008Zm0 0"/></g><use xlink:href="#h" x="159.086" y="96.754" style="fill:#fff;fill-opacity:1"/><use xlink:href="#l" x="108.062" y="11.714" style="fill:#000;fill-opacity:1"/><path style="stroke:none;fill-rule:nonzero;fill:#bf3d4a;fill-opacity:1" d="M17.008 119.059h17.008V102.05H17.008Zm0 0"/><use xlink:href="#f" x="23.021" y="113.762" style="fill:#fff;fill-opacity:1"/><path style="stroke:none;fill-rule:nonzero;fill:#c2444a;fill-opacity:1" d="M34.016 119.059h17.007V102.05H34.016Zm0 0"/><use xlink:href="#b" x="40.029" y="113.762" style="fill:#fff;fill-opacity:1"/><path style="stroke:none;fill-rule:nonzero;fill:#bf3d4a;fill-opacity:1" d="M51.023 119.059h17.008V102.05H51.023Zm0 0"/><use xlink:href="#f" x="57.037" y="113.762" style="fill:#fff;fill-opacity:1"/><path style="stroke:none;fill-rule:nonzero;fill:#bf3b4a;fill-opacity:1" d="M68.031 119.059h17.012V102.05H68.031Zm0 0"/><use xlink:href="#d" x="74.045" y="113.762" style="fill:#fff;fill-opacity:1"/><path style="stroke:none;fill-rule:nonzero;fill:#be3a4a;fill-opacity:1" d="M85.043 119.059h17.008V102.05H85.043Zm0 0"/><use xlink:href="#a" x="91.053" y="113.762" style="fill:#fff;fill-opacity:1"/><path style="stroke:none;fill-rule:nonzero;fill:#d47540;fill-opacity:1" d="M102.05 119.059h17.009V102.05H102.05Zm0 0"/><g style="fill:#fff;fill-opacity:1"><use xlink:href="#f" x="105.571" y="113.762"/><use xlink:href="#l" x="110.552" y="113.762"/></g><path style="stroke:none;fill-rule:nonzero;fill:#bf0040;fill-opacity:1" d="M119.059 119.059h17.007V102.05H119.06Zm0 0"/><use xlink:href="#h" x="125.07" y="113.762" style="fill:#fff;fill-opacity:1"/><path style="stroke:none;fill-rule:nonzero;fill:#bf0040;fill-opacity:1" d="M136.066 119.059h17.008V102.05h-17.008Zm0 0"/><use xlink:href="#h" x="142.078" y="113.762" style="fill:#fff;fill-opacity:1"/><g clip-path="url(#o)"><path style="stroke:none;fill-rule:nonzero;fill:#bf0040;fill-opacity:1" d="M153.074 119.059h17.008V102.05h-17.008Zm0 0"/></g><use xlink:href="#h" x="159.086" y="113.762" style="fill:#fff;fill-opacity:1"/><use xlink:href="#b" x="125.07" y="11.714" style="fill:#000;fill-opacity:1"/><path style="stroke:none;fill-rule:nonzero;fill:#bf3d4a;fill-opacity:1" d="M17.008 136.066h17.008V119.06H17.008Zm0 0"/><use xlink:href="#f" x="23.021" y="130.77" style="fill:#fff;fill-opacity:1"/><path style="stroke:none;fill-rule:nonzero;fill:#bf3b4a;fill-opacity:1" d="M34.016 136.066h17.007V119.06H34.016Zm0 0"/><use xlink:href="#d" x="40.029" y="130.77" style="fill:#fff;fill-opacity:1"/><path style="stroke:none;fill-rule:nonzero;fill:#bf3d4a;fill-opacity:1" d="M51.023 136.066h17.008V119.06H51.023Zm0 0"/><use xlink:href="#f" x="57.037" y="130.77" style="fill:#fff;fill-opacity:1"/><path style="stroke:none;fill-rule:nonzero;fill:#c1424a;fill-opacity:1" d="M68.031 136.066h17.012V119.06H68.031Zm0 0"/><use xlink:href="#l" x="74.045" y="130.77" style="fill:#fff;fill-opacity:1"/><path style="stroke:none;fill-rule:nonzero;fill:#bf0040;fill-opacity:1" d="M85.043 136.066h17.008V119.06H85.043Zm0 0"/><use xlink:href="#h" x="91.053" y="130.77" style="fill:#fff;fill-opacity:1"/><path style="stroke:none;fill-rule:nonzero;fill:#bf0040;fill-opacity:1" d="M102.05 136.066h17.009V119.06H102.05Zm0 0"/><use xlink:href="#h" x="108.061" y="130.77" style="fill:#fff;fill-opacity:1"/><path style="stroke:none;fill-rule:nonzero;fill:#da863b;fill-opacity:1" d="M119.059 136.066h17.007V119.06H119.06Zm0 0"/><g style="fill:#fff;fill-opacity:1"><use xlink:href="#c" x="122.579" y="130.77"/><use xlink:href="#e" x="127.56" y="130.77"/></g><path style="stroke:none;fill-rule:nonzero;fill:#be3a4a;fill-opacity:1" d="M136.066 136.066h17.008V119.06h-17.008Zm0 0"/><use xlink:href="#a" x="142.078" y="130.77" style="fill:#fff;fill-opacity:1"/><g clip-path="url(#p)"><path style="stroke:none;fill-rule:nonzero;fill:#be3a4a;fill-opacity:1" d="M153.074 136.066h17.008V119.06h-17.008Zm0 0"/></g><use xlink:href="#a" x="159.086" y="130.77" style="fill:#fff;fill-opacity:1"/><use xlink:href="#q" x="142.078" y="11.714" style="fill:#000;fill-opacity:1"/><path style="stroke:none;fill-rule:nonzero;fill:#bf3d4a;fill-opacity:1" d="M17.008 153.074h17.008v-17.008H17.008Zm0 0"/><use xlink:href="#f" x="23.021" y="147.778" style="fill:#fff;fill-opacity:1"/><path style="stroke:none;fill-rule:nonzero;fill:#bf3d4a;fill-opacity:1" d="M34.016 153.074h17.007v-17.008H34.016Zm0 0"/><use xlink:href="#f" x="40.029" y="147.778" style="fill:#fff;fill-opacity:1"/><path style="stroke:none;fill-rule:nonzero;fill:#bf3d4a;fill-opacity:1" d="M51.023 153.074h17.008v-17.008H51.023Zm0 0"/><use xlink:href="#f" x="57.037" y="147.778" style="fill:#fff;fill-opacity:1"/><path style="stroke:none;fill-rule:nonzero;fill:#c0404a;fill-opacity:1" d="M68.031 153.074h17.012v-17.008H68.031Zm0 0"/><use xlink:href="#e" x="74.045" y="147.778" style="fill:#fff;fill-opacity:1"/><path style="stroke:none;fill-rule:nonzero;fill:#bf0040;fill-opacity:1" d="M85.043 153.074h17.008v-17.008H85.043Zm0 0"/><use xlink:href="#h" x="91.053" y="147.778" style="fill:#fff;fill-opacity:1"/><path style="stroke:none;fill-rule:nonzero;fill:#bf0040;fill-opacity:1" d="M102.05 153.074h17.009v-17.008H102.05Zm0 0"/><use xlink:href="#h" x="108.061" y="147.778" style="fill:#fff;fill-opacity:1"/><path style="stroke:none;fill-rule:nonzero;fill:#be3a4a;fill-opacity:1" d="M119.059 153.074h17.007v-17.008H119.06Zm0 0"/><use xlink:href="#a" x="125.07" y="147.778" style="fill:#fff;fill-opacity:1"/><path style="stroke:none;fill-rule:nonzero;fill:#cc5f46;fill-opacity:1" d="M136.066 153.074h17.008v-17.008h-17.008Zm0 0"/><g style="fill:#fff;fill-opacity:1"><use xlink:href="#d" x="139.587" y="147.778"/><use xlink:href="#f" x="144.568" y="147.778"/></g><g clip-path="url(#r)"><path style="stroke:none;fill-rule:nonzero;fill:#be3a4a;fill-opacity:1" d="M153.074 153.074h17.008v-17.008h-17.008Zm0 0"/></g><use xlink:href="#a" x="159.086" y="147.778" style="fill:#fff;fill-opacity:1"/><use xlink:href="#g" x="159.086" y="11.714" style="fill:#000;fill-opacity:1"/><g clip-path="url(#s)"><path style="stroke:none;fill-rule:nonzero;fill:#bf3d4a;fill-opacity:1" d="M17.008 170.082h17.008v-17.008H17.008Zm0 0"/></g><use xlink:href="#f" x="23.021" y="164.786" style="fill:#fff;fill-opacity:1"/><g clip-path="url(#t)"><path style="stroke:none;fill-rule:nonzero;fill:#bf3b4a;fill-opacity:1" d="M34.016 170.082h17.007v-17.008H34.016Zm0 0"/></g><use xlink:href="#d" x="40.029" y="164.786" style="fill:#fff;fill-opacity:1"/><g clip-path="url(#u)"><path style="stroke:none;fill-rule:nonzero;fill:#bf3d4a;fill-opacity:1" d="M51.023 170.082h17.008v-17.008H51.023Zm0 0"/></g><use xlink:href="#f" x="57.037" y="164.786" style="fill:#fff;fill-opacity:1"/><g clip-path="url(#v)"><path style="stroke:none;fill-rule:nonzero;fill:#c0404a;fill-opacity:1" d="M68.031 170.082h17.012v-17.008H68.031Zm0 0"/></g><use xlink:href="#e" x="74.045" y="164.786" style="fill:#fff;fill-opacity:1"/><g clip-path="url(#w)"><path style="stroke:none;fill-rule:nonzero;fill:#bf0040;fill-opacity:1" d="M85.043 170.082h17.008v-17.008H85.043Zm0 0"/></g><use xlink:href="#h" x="91.053" y="164.786" style="fill:#fff;fill-opacity:1"/><g clip-path="url(#x)"><path style="stroke:none;fill-rule:nonzero;fill:#bf0040;fill-opacity:1" d="M102.05 170.082h17.009v-17.008H102.05Zm0 0"/></g><use xlink:href="#h" x="108.061" y="164.786" style="fill:#fff;fill-opacity:1"/><g clip-path="url(#y)"><path style="stroke:none;fill-rule:nonzero;fill:#be3a4a;fill-opacity:1" d="M119.059 170.082h17.007v-17.008H119.06Zm0 0"/></g><use xlink:href="#a" x="125.07" y="164.786" style="fill:#fff;fill-opacity:1"/><g clip-path="url(#z)"><path style="stroke:none;fill-rule:nonzero;fill:#be3a4a;fill-opacity:1" d="M136.066 170.082h17.008v-17.008h-17.008Zm0 0"/></g><use xlink:href="#a" x="142.078" y="164.786" style="fill:#fff;fill-opacity:1"/><g clip-path="url(#A)"><path style="stroke:none;fill-rule:nonzero;fill:#f0c51e;fill-opacity:1" d="M153.074 170.082h17.008v-17.008h-17.008Zm0 0"/></g><g style="fill:#fff;fill-opacity:1"><use xlink:href="#b" x="156.595" y="164.786"/><use xlink:href="#q" x="161.576" y="164.786"/></g><use xlink:href="#B" x="6.013" y="27.656" style="fill:#000;fill-opacity:1"/><use xlink:href="#C" x="5.737" y="45.979" style="fill:#000;fill-opacity:1"/><use xlink:href="#D" x="6.29" y="61.673" style="fill:#000;fill-opacity:1"/><use xlink:href="#E" x="5.737" y="79.995" style="fill:#000;fill-opacity:1"/><use xlink:href="#F" x="6.29" y="95.689" style="fill:#000;fill-opacity:1"/><use xlink:href="#G" x="6.982" y="114.011" style="fill:#000;fill-opacity:1"/><use xlink:href="#H" x="6.013" y="128.736" style="fill:#000;fill-opacity:1"/><use xlink:href="#I" x="5.737" y="148.027" style="fill:#000;fill-opacity:1"/><use xlink:href="#J" x="7.12" y="164.903" style="fill:#000;fill-opacity:1"/></svg>