<svg xmlns="http://www.w3.org/2000/svg" xmlns:xlink="http://www.w3.org/1999/xlink" width="204.096" height="204.096" viewBox="0 0 153.072 153.072"><defs><clipPath id="h"><path d="M136 0h17.07v18H136zm0 0"/></clipPath><clipPath id="j"><path d="M136 17h17.07v18H136zm0 0"/></clipPath><clipPath id="k"><path d="M136 34h17.07v18H136zm0 0"/></clipPath><clipPath id="m"><path d="M136 51h17.07v18H136zm0 0"/></clipPath><clipPath id="n"><path d="M136 68h17.07v18H136zm0 0"/></clipPath><clipPath id="o"><path d="M136 85h17.07v18H136zm0 0"/></clipPath><clipPath id="p"><path d="M136 102h17.07v18H136zm0 0"/></clipPath><clipPath id="q"><path d="M136 119h17.07v18H136zm0 0"/></clipPath><clipPath id="r"><path d="M0 136h18v17.07H0zm0 0"/></clipPath><clipPath id="s"><path d="M17 136h18v17.07H17zm0 0"/></clipPath><clipPath id="t"><path d="M34 136h18v17.07H34zm0 0"/></clipPath><clipPath id="u"><path d="M51 136h18v17.07H51zm0 0"/></clipPath><clipPath id="v"><path d="M68 136h18v17.07H68zm0 0"/></clipPath><clipPath id="w"><path d="M85 136h18v17.07H85zm0 0"/></clipPath><clipPath id="x"><path d="M102 136h18v17.07h-18zm0 0"/></clipPath><clipPath id="y"><path d="M119 136h18v17.07h-18zm0 0"/></clipPath><clipPath id="z"><path d="M136 136h17.07v17.07H136zm0 0"/></clipPath><symbol overflow="visible" id="a"><path d="M4.75-6.078c.078-.11.078-.125.078-.344H2.406c-1.203 0-1.234-.125-1.265-.312H.89L.562-4.688h.25c.032-.156.11-.78.25-.906.063-.062.844-.062.97-.062h2.062c-.11.156-.89 1.25-1.11 1.578C2.078-2.734 1.75-1.344 1.75-.328c0 .094 0 .547.469.547.453 0 .453-.453.453-.547v-.516c0-.547.031-1.094.11-1.625.046-.234.171-1.094.624-1.703zm0 0"/></symbol><symbol overflow="visible" id="b"><path d="M2.938-1.64v.859c0 .36-.032.469-.766.469h-.203V0c.406-.031.922-.031 1.343-.031.422 0 .938 0 1.36.031v-.313h-.219c-.734 0-.75-.109-.75-.468v-.86h.985v-.312h-.985v-4.531c0-.204 0-.266-.172-.266-.078 0-.11 0-.187.125L.28-1.953v.312zm.046-.313H.563l2.421-3.719zm0 0"/></symbol><symbol overflow="visible" id="c"><path d="M1.266-.766l1.062-1.03c1.547-1.376 2.14-1.907 2.14-2.907 0-1.14-.89-1.938-2.109-1.938C1.234-6.64.5-5.719.5-4.828c0 .547.5.547.531.547.172 0 .516-.11.516-.532a.513.513 0 00-.531-.515c-.079 0-.094 0-.125.016.218-.657.765-1.016 1.343-1.016.907 0 1.329.812 1.329 1.625 0 .797-.485 1.578-1.047 2.203L.609-.375C.5-.265.5-.235.5 0h3.703l.266-1.734h-.235C4.172-1.438 4.11-1 4-.844c-.063.078-.719.078-.938.078zm0 0"/></symbol><symbol overflow="visible" id="d"><path d="M4.469-2c0-1.188-.813-2.188-1.89-2.188-.47 0-.907.157-1.267.516v-1.953c.204.063.532.125.844.125 1.235 0 1.938-.906 1.938-1.031 0-.063-.032-.11-.11-.11 0 0-.03 0-.078.032a3.22 3.22 0 01-1.36.296c-.39 0-.858-.078-1.327-.28-.078-.032-.094-.032-.11-.032C1-6.625 1-6.547 1-6.391v2.954c0 .171 0 .25.14.25.079 0 .094-.016.141-.079.11-.156.469-.703 1.282-.703.515 0 .765.453.843.64.156.376.188.75.188 1.25 0 .36 0 .954-.25 1.376-.235.39-.61.64-1.063.64-.719 0-1.297-.53-1.469-1.109.032 0 .063.016.172.016.329 0 .5-.25.5-.485 0-.25-.171-.5-.5-.5-.14 0-.484.079-.484.532C.5-.75 1.188.219 2.297.219 3.453.219 4.469-.734 4.469-2zm0 0"/></symbol><symbol overflow="visible" id="e"><path d="M2.89-3.516c.813-.265 1.391-.953 1.391-1.75 0-.812-.875-1.375-1.828-1.375-1 0-1.765.594-1.765 1.36 0 .328.218.515.515.515.297 0 .5-.218.5-.515 0-.485-.469-.485-.61-.485.298-.5.954-.625 1.313-.625.422 0 .969.22.969 1.11 0 .125-.031.703-.281 1.14-.297.485-.64.516-.89.516a3.29 3.29 0 01-.392.031c-.078.016-.14.031-.14.125 0 .11.062.11.234.11h.438c.812 0 1.187.671 1.187 1.656 0 1.36-.687 1.64-1.125 1.64-.437 0-1.187-.171-1.531-.75.344.047.656-.171.656-.546a.537.537 0 00-.547-.563c-.25 0-.562.14-.562.578C.422-.437 1.344.22 2.437.22c1.22 0 2.126-.906 2.126-1.922 0-.813-.641-1.594-1.672-1.813zm0 0"/></symbol><symbol overflow="visible" id="f"><path d="M3.656-3.172v.328c0 2.328-1.031 2.781-1.61 2.781-.171 0-.718-.015-.983-.359.437 0 .515-.281.515-.453 0-.313-.234-.453-.453-.453-.156 0-.453.078-.453.469 0 .671.531 1.078 1.375 1.078 1.297 0 2.515-1.36 2.515-3.5 0-2.688-1.156-3.36-2.046-3.36-.547 0-1.032.188-1.454.625-.421.454-.64.875-.64 1.625 0 1.235.875 2.22 1.984 2.22.61 0 1.016-.423 1.25-1zm-1.234.766c-.156 0-.625 0-.922-.625-.188-.375-.188-.86-.188-1.36 0-.53 0-1 .22-1.375.265-.5.64-.625.984-.625.468 0 .796.344.968.782.11.328.157.953.157 1.406 0 .828-.344 1.797-1.22 1.797zm0 0"/></symbol><symbol overflow="visible" id="g"><path d="M4.578-3.188c0-.796-.047-1.593-.39-2.328C3.733-6.484 2.905-6.64 2.5-6.64c-.61 0-1.328.266-1.75 1.188-.313.687-.36 1.469-.36 2.266 0 .75.032 1.64.454 2.406a1.83 1.83 0 001.64 1c.532 0 1.297-.203 1.735-1.157.312-.687.36-1.468.36-2.25zM2.484 0c-.39 0-.984-.25-1.156-1.203-.11-.594-.11-1.516-.11-2.11 0-.64 0-1.296.079-1.828.187-1.187.937-1.28 1.187-1.28.329 0 .985.187 1.172 1.171.11.563.11 1.313.11 1.938 0 .75 0 1.421-.11 2.062C3.5-.297 2.937 0 2.484 0zm0 0"/></symbol><symbol overflow="visible" id="i"><path d="M2.938-6.375c0-.25 0-.266-.235-.266C2.078-6 1.203-6 .891-6v.313c.203 0 .78 0 1.296-.266v5.172c0 .36-.03.469-.921.469H.953V0c.344-.031 1.203-.031 1.61-.031.39 0 1.265 0 1.609.031v-.313h-.313c-.906 0-.921-.109-.921-.468zm0 0"/></symbol><symbol overflow="visible" id="l"><path d="M1.313-3.266v-.25c0-2.515 1.234-2.875 1.75-2.875.234 0 .656.063.874.407-.156 0-.546 0-.546.437 0 .313.234.469.453.469.156 0 .469-.094.469-.484 0-.594-.438-1.079-1.266-1.079C1.766-6.64.422-5.359.422-3.156.422-.484 1.578.219 2.5.219c1.11 0 2.063-.938 2.063-2.25 0-1.266-.891-2.219-2-2.219-.672 0-1.047.5-1.25.984zM2.5-.062c-.625 0-.922-.594-.984-.75-.188-.47-.188-1.266-.188-1.438 0-.781.328-1.781 1.219-1.781.172 0 .625 0 .937.625.172.36.172.875.172 1.36 0 .483 0 .983-.172 1.343-.296.594-.75.64-.984.64zm0 0"/></symbol><symbol overflow="visible" id="A"><path d="M1.625-4.563c-.453-.296-.5-.625-.5-.796 0-.61.656-1.032 1.36-1.032.718 0 1.359.516 1.359 1.235 0 .578-.39 1.047-.985 1.39zm1.453.954c.719-.375 1.203-.891 1.203-1.547 0-.922-.875-1.485-1.781-1.485-1 0-1.813.735-1.813 1.672 0 .172.016.625.438 1.094.11.11.484.36.734.531C1.281-3.047.422-2.5.422-1.5.422-.453 1.438.219 2.484.219c1.125 0 2.079-.828 2.079-1.89 0-.36-.11-.813-.5-1.235-.188-.203-.344-.297-.985-.703zm-1 .421l1.235.782c.28.187.75.484.75 1.094 0 .734-.75 1.25-1.563 1.25C1.64-.063.922-.672.922-1.5c0-.578.312-1.219 1.156-1.688zm0 0"/></symbol></defs><path d="M0 17.008h17.008V0H0zm0 0" fill="#edbd22"/><g fill="#fff"><use xlink:href="#a" x="3.523" y="11.714"/><use xlink:href="#b" x="8.504" y="11.714"/></g><path d="M17.008 17.008h17.008V0H17.008zm0 0" fill="#cd6245"/><g fill="#fff"><use xlink:href="#c" x="20.531" y="11.714"/><use xlink:href="#d" x="25.512" y="11.714"/></g><path d="M34.016 17.008h17.007V0H34.016zm0 0" fill="#d67b3f"/><g fill="#fff"><use xlink:href="#e" x="37.539" y="11.714"/><use xlink:href="#f" x="42.52" y="11.714"/></g><path d="M51.023 17.008h17.008V0H51.023zm0 0" fill="#ca5947"/><g fill="#fff"><use xlink:href="#c" x="54.547" y="11.714"/><use xlink:href="#g" x="59.528" y="11.714"/></g><path d="M68.035 17.008h17.008V0H68.035zm0 0" fill="#bf3d4a"/><use xlink:href="#e" x="74.045" y="11.714" fill="#fff"/><path d="M85.043 17.008h17.008V0H85.043zm0 0" fill="#bf3d4a"/><use xlink:href="#e" x="91.054" y="11.714" fill="#fff"/><path d="M102.05 17.008h17.009V0H102.05zm0 0" fill="#bf3d4a"/><use xlink:href="#e" x="108.062" y="11.714" fill="#fff"/><path d="M119.059 17.008h17.007V0H119.06zm0 0" fill="#bf3d4a"/><use xlink:href="#e" x="125.07" y="11.714" fill="#fff"/><g clip-path="url(#h)"><path d="M136.066 17.008h17.008V0h-17.008zm0 0" fill="#bf3d4a"/></g><use xlink:href="#e" x="142.078" y="11.714" fill="#fff"/><path d="M0 34.016h17.008V17.008H0zm0 0" fill="#cd6245"/><g fill="#fff"><use xlink:href="#c" x="3.523" y="28.722"/><use xlink:href="#d" x="8.504" y="28.722"/></g><path d="M17.008 34.016h17.008V17.008H17.008zm0 0" fill="#df9536"/><g fill="#fff"><use xlink:href="#d" x="20.531" y="28.722"/><use xlink:href="#e" x="25.512" y="28.722"/></g><path d="M34.016 34.016h17.007V17.008H34.016zm0 0" fill="#d16d43"/><g fill="#fff"><use xlink:href="#e" x="37.539" y="28.722"/><use xlink:href="#i" x="42.52" y="28.722"/></g><path d="M51.023 34.016h17.008V17.008H51.023zm0 0" fill="#c85448"/><g fill="#fff"><use xlink:href="#i" x="54.547" y="28.722"/><use xlink:href="#a" x="59.528" y="28.722"/></g><path d="M68.035 34.016h17.008V17.008H68.035zm0 0" fill="#c2444a"/><use xlink:href="#a" x="74.046" y="28.722" fill="#fff"/><path d="M85.043 34.016h17.008V17.008H85.043zm0 0" fill="#c2444a"/><use xlink:href="#a" x="91.054" y="28.722" fill="#fff"/><path d="M102.05 34.016h17.009V17.008H102.05zm0 0" fill="#bf3b4a"/><use xlink:href="#c" x="108.062" y="28.722" fill="#fff"/><path d="M119.059 34.016h17.007V17.008H119.06zm0 0" fill="#bf3d4a"/><use xlink:href="#e" x="125.07" y="28.722" fill="#fff"/><g clip-path="url(#j)"><path d="M136.066 34.016h17.008V17.008h-17.008zm0 0" fill="#bf3b4a"/></g><use xlink:href="#c" x="142.078" y="28.722" fill="#fff"/><path d="M0 51.023h17.008V34.016H0zm0 0" fill="#d67b3f"/><g fill="#fff"><use xlink:href="#e" x="3.523" y="45.73"/><use xlink:href="#f" x="8.504" y="45.73"/></g><path d="M17.008 51.023h17.008V34.016H17.008zm0 0" fill="#d16d43"/><g fill="#fff"><use xlink:href="#e" x="20.531" y="45.73"/><use xlink:href="#i" x="25.512" y="45.73"/></g><path d="M34.016 51.023h17.007V34.016H34.016zm0 0" fill="#d57740"/><g fill="#fff"><use xlink:href="#e" x="37.539" y="45.73"/><use xlink:href="#a" x="42.52" y="45.73"/></g><path d="M51.023 51.023h17.008V34.016H51.023zm0 0" fill="#cc6046"/><g fill="#fff"><use xlink:href="#c" x="54.547" y="45.73"/><use xlink:href="#b" x="59.528" y="45.73"/></g><path d="M68.035 51.023h17.008V34.016H68.035zm0 0" fill="#bf3d4a"/><use xlink:href="#e" x="74.046" y="45.73" fill="#fff"/><path d="M85.043 51.023h17.008V34.016H85.043zm0 0" fill="#bf3d4a"/><use xlink:href="#e" x="91.054" y="45.73" fill="#fff"/><path d="M102.05 51.023h17.009V34.016H102.05zm0 0" fill="#bf3d4a"/><use xlink:href="#e" x="108.062" y="45.73" fill="#fff"/><path d="M119.059 51.023h17.007V34.016H119.06zm0 0" fill="#bf3d4a"/><use xlink:href="#e" x="125.07" y="45.73" fill="#fff"/><g clip-path="url(#k)"><path d="M136.066 51.023h17.008V34.016h-17.008zm0 0" fill="#bf3d4a"/></g><use xlink:href="#e" x="142.078" y="45.73" fill="#fff"/><path d="M0 68.031h17.008V51.023H0zm0 0" fill="#ca5947"/><g fill="#fff"><use xlink:href="#c" x="3.523" y="62.738"/><use xlink:href="#g" x="8.504" y="62.738"/></g><path d="M17.008 68.031h17.008V51.023H17.008zm0 0" fill="#c85448"/><g fill="#fff"><use xlink:href="#i" x="20.531" y="62.738"/><use xlink:href="#a" x="25.512" y="62.738"/></g><path d="M34.016 68.031h17.007V51.023H34.016zm0 0" fill="#cc6046"/><g fill="#fff"><use xlink:href="#c" x="37.539" y="62.738"/><use xlink:href="#b" x="42.52" y="62.738"/></g><path d="M51.023 68.031h17.008V51.023H51.023zm0 0" fill="#d57740"/><g fill="#fff"><use xlink:href="#e" x="54.547" y="62.738"/><use xlink:href="#a" x="59.528" y="62.738"/></g><path d="M68.035 68.031h17.008V51.023H68.035zm0 0" fill="#bf3b4a"/><use xlink:href="#c" x="74.046" y="62.738" fill="#fff"/><path d="M85.043 68.031h17.008V51.023H85.043zm0 0" fill="#bf3b4a"/><use xlink:href="#c" x="91.054" y="62.738" fill="#fff"/><path d="M102.05 68.031h17.009V51.023H102.05zm0 0" fill="#c1424a"/><use xlink:href="#l" x="108.062" y="62.738" fill="#fff"/><path d="M119.059 68.031h17.007V51.023H119.06zm0 0" fill="#c0404a"/><use xlink:href="#d" x="125.07" y="62.738" fill="#fff"/><g clip-path="url(#m)"><path d="M136.066 68.031h17.008V51.023h-17.008zm0 0" fill="#c0404a"/></g><use xlink:href="#d" x="142.078" y="62.738" fill="#fff"/><path d="M0 85.043h17.008V68.031H0zm0 0" fill="#bf3d4a"/><use xlink:href="#e" x="6.013" y="79.746" fill="#fff"/><path d="M17.008 85.043h17.008V68.031H17.008zm0 0" fill="#c2444a"/><use xlink:href="#a" x="23.021" y="79.746" fill="#fff"/><path d="M34.016 85.043h17.007V68.031H34.016zm0 0" fill="#bf3d4a"/><use xlink:href="#e" x="40.029" y="79.746" fill="#fff"/><path d="M51.023 85.043h17.008V68.031H51.023zm0 0" fill="#bf3b4a"/><use xlink:href="#c" x="57.037" y="79.746" fill="#fff"/><path d="M68.035 85.043h17.008V68.031H68.035zm0 0" fill="#c54c49"/><g fill="#fff"><use xlink:href="#i" x="71.555" y="79.746"/><use xlink:href="#c" x="76.536" y="79.746"/></g><path d="M85.043 85.043h17.008V68.031H85.043zm0 0" fill="#be3a4a"/><use xlink:href="#i" x="91.054" y="79.746" fill="#fff"/><path d="M102.05 85.043h17.009V68.031H102.05zm0 0" fill="#bf0040"/><use xlink:href="#g" x="108.062" y="79.746" fill="#fff"/><path d="M119.059 85.043h17.007V68.031H119.06zm0 0" fill="#bf0040"/><use xlink:href="#g" x="125.07" y="79.746" fill="#fff"/><g clip-path="url(#n)"><path d="M136.066 85.043h17.008V68.031h-17.008zm0 0" fill="#bf0040"/></g><use xlink:href="#g" x="142.078" y="79.746" fill="#fff"/><path d="M0 102.05h17.008V85.044H0zm0 0" fill="#bf3d4a"/><use xlink:href="#e" x="6.013" y="96.754" fill="#fff"/><path d="M17.008 102.05h17.008V85.044H17.008zm0 0" fill="#c2444a"/><use xlink:href="#a" x="23.021" y="96.754" fill="#fff"/><path d="M34.016 102.05h17.007V85.044H34.016zm0 0" fill="#bf3d4a"/><use xlink:href="#e" x="40.029" y="96.754" fill="#fff"/><path d="M51.023 102.05h17.008V85.044H51.023zm0 0" fill="#bf3b4a"/><use xlink:href="#c" x="57.037" y="96.754" fill="#fff"/><path d="M68.035 102.05h17.008V85.044H68.035zm0 0" fill="#be3a4a"/><use xlink:href="#i" x="74.045" y="96.754" fill="#fff"/><path d="M85.043 102.05h17.008V85.044H85.043zm0 0" fill="#d47540"/><g fill="#fff"><use xlink:href="#e" x="88.563" y="96.754"/><use xlink:href="#l" x="93.544" y="96.754"/></g><path d="M102.05 102.05h17.009V85.044H102.05zm0 0" fill="#bf0040"/><use xlink:href="#g" x="108.062" y="96.754" fill="#fff"/><path d="M119.059 102.05h17.007V85.044H119.06zm0 0" fill="#bf0040"/><use xlink:href="#g" x="125.07" y="96.754" fill="#fff"/><g clip-path="url(#o)"><path d="M136.066 102.05h17.008V85.044h-17.008zm0 0" fill="#bf0040"/></g><use xlink:href="#g" x="142.078" y="96.754" fill="#fff"/><path d="M0 119.059h17.008V102.05H0zm0 0" fill="#bf3d4a"/><use xlink:href="#e" x="6.013" y="113.762" fill="#fff"/><path d="M17.008 119.059h17.008V102.05H17.008zm0 0" fill="#bf3b4a"/><use xlink:href="#c" x="23.021" y="113.762" fill="#fff"/><path d="M34.016 119.059h17.007V102.05H34.016zm0 0" fill="#bf3d4a"/><use xlink:href="#e" x="40.029" y="113.762" fill="#fff"/><path d="M51.023 119.059h17.008V102.05H51.023zm0 0" fill="#c1424a"/><use xlink:href="#l" x="57.037" y="113.762" fill="#fff"/><path d="M68.035 119.059h17.008V102.05H68.035zm0 0" fill="#bf0040"/><use xlink:href="#g" x="74.045" y="113.762" fill="#fff"/><path d="M85.043 119.059h17.008V102.05H85.043zm0 0" fill="#bf0040"/><use xlink:href="#g" x="91.053" y="113.762" fill="#fff"/><path d="M102.05 119.059h17.009V102.05H102.05zm0 0" fill="#da863b"/><g fill="#fff"><use xlink:href="#b" x="105.571" y="113.762"/><use xlink:href="#d" x="110.552" y="113.762"/></g><path d="M119.059 119.059h17.007V102.05H119.06zm0 0" fill="#be3a4a"/><use xlink:href="#i" x="125.07" y="113.762" fill="#fff"/><g clip-path="url(#p)"><path d="M136.066 119.059h17.008V102.05h-17.008zm0 0" fill="#be3a4a"/></g><use xlink:href="#i" x="142.078" y="113.762" fill="#fff"/><path d="M0 136.066h17.008V119.06H0zm0 0" fill="#bf3d4a"/><use xlink:href="#e" x="6.013" y="130.77" fill="#fff"/><path d="M17.008 136.066h17.008V119.06H17.008zm0 0" fill="#bf3d4a"/><use xlink:href="#e" x="23.021" y="130.77" fill="#fff"/><path d="M34.016 136.066h17.007V119.06H34.016zm0 0" fill="#bf3d4a"/><use xlink:href="#e" x="40.029" y="130.77" fill="#fff"/><path d="M51.023 136.066h17.008V119.06H51.023zm0 0" fill="#c0404a"/><use xlink:href="#d" x="57.037" y="130.77" fill="#fff"/><path d="M68.035 136.066h17.008V119.06H68.035zm0 0" fill="#bf0040"/><use xlink:href="#g" x="74.045" y="130.77" fill="#fff"/><path d="M85.043 136.066h17.008V119.06H85.043zm0 0" fill="#bf0040"/><use xlink:href="#g" x="91.053" y="130.77" fill="#fff"/><path d="M102.05 136.066h17.009V119.06H102.05zm0 0" fill="#be3a4a"/><use xlink:href="#i" x="108.061" y="130.77" fill="#fff"/><path d="M119.059 136.066h17.007V119.06H119.06zm0 0" fill="#cc5f46"/><g fill="#fff"><use xlink:href="#c" x="122.579" y="130.77"/><use xlink:href="#e" x="127.56" y="130.77"/></g><g clip-path="url(#q)"><path d="M136.066 136.066h17.008V119.06h-17.008zm0 0" fill="#be3a4a"/></g><use xlink:href="#i" x="142.078" y="130.77" fill="#fff"/><g clip-path="url(#r)"><path d="M0 153.074h17.008v-17.008H0zm0 0" fill="#bf3d4a"/></g><use xlink:href="#e" x="6.013" y="147.778" fill="#fff"/><g clip-path="url(#s)"><path d="M17.008 153.074h17.008v-17.008H17.008zm0 0" fill="#bf3b4a"/></g><use xlink:href="#c" x="23.021" y="147.778" fill="#fff"/><g clip-path="url(#t)"><path d="M34.016 153.074h17.007v-17.008H34.016zm0 0" fill="#bf3d4a"/></g><use xlink:href="#e" x="40.029" y="147.778" fill="#fff"/><g clip-path="url(#u)"><path d="M51.023 153.074h17.008v-17.008H51.023zm0 0" fill="#c0404a"/></g><use xlink:href="#d" x="57.037" y="147.778" fill="#fff"/><g clip-path="url(#v)"><path d="M68.035 153.074h17.008v-17.008H68.035zm0 0" fill="#bf0040"/></g><use xlink:href="#g" x="74.045" y="147.778" fill="#fff"/><g clip-path="url(#w)"><path d="M85.043 153.074h17.008v-17.008H85.043zm0 0" fill="#bf0040"/></g><use xlink:href="#g" x="91.053" y="147.778" fill="#fff"/><g clip-path="url(#x)"><path d="M102.05 153.074h17.009v-17.008H102.05zm0 0" fill="#be3a4a"/></g><use xlink:href="#i" x="108.061" y="147.778" fill="#fff"/><g clip-path="url(#y)"><path d="M119.059 153.074h17.007v-17.008H119.06zm0 0" fill="#be3a4a"/></g><use xlink:href="#i" x="125.07" y="147.778" fill="#fff"/><g clip-path="url(#z)"><path d="M136.066 153.074h17.008v-17.008h-17.008zm0 0" fill="#f0c51e"/></g><g fill="#fff"><use xlink:href="#a" x="139.587" y="147.778"/><use xlink:href="#A" x="144.568" y="147.778"/></g></svg>