<svg height="107.748" viewBox="0 0 377.067 80.811" width="502.756" xmlns="http://www.w3.org/2000/svg" xmlns:xlink="http://www.w3.org/1999/xlink"><clipPath id="a"><path d="m67 29h81v51.813h-81zm0 0"/></clipPath><clipPath id="b"><path d="m1 29h82v51.813h-82zm0 0"/></clipPath><clipPath id="c"><path d="m294 29h81v51.813h-81zm0 0"/></clipPath><clipPath id="d"><path d="m228 29h81v51.813h-81zm0 0"/></clipPath><symbol id="e" overflow="visible"><path d="m26.578-13.266c.61 0 1.235 0 1.235-.703 0-.75-.704-.75-1.407-.75h-23.093c-.704 0-1.407 0-1.407.75 0 .703.61.703 1.235.703zm-.172 7.36c.703 0 1.407 0 1.407-.75 0-.703-.625-.703-1.235-.703h-23.437c-.625 0-1.235 0-1.235.703 0 .75.703.75 1.407.75zm0 0"/></symbol><symbol id="f" overflow="visible"><path d="m.89 2.625c-.14.625-.234.781-1.078.781-.25 0-.453 0-.453.39 0 .048.016.204.25.204.266 0 .563-.031.829-.031h.89c.422 0 1.484.031 1.922.031.11 0 .36 0 .36-.36 0-.234-.141-.234-.485-.234-.953 0-1.016-.14-1.016-.312 0-.25.922-3.797 1.047-4.266.235.578.797 1.375 1.86 1.375 2.343 0 4.859-3.031 4.859-6.062 0-1.907-1.078-3.25-2.625-3.25-1.328 0-2.438 1.28-2.672 1.562-.156-1.031-.969-1.562-1.797-1.562-.594 0-1.062.296-1.453 1.078-.375.734-.672 2-.672 2.078 0 .094.094.187.235.187.156 0 .187-.015.312-.5.313-1.218.703-2.437 1.531-2.437.47 0 .625.344.625.953 0 .5-.046.703-.14 1.078zm3.58-9.063c.14-.578.718-1.187 1.047-1.468.234-.219.906-.797 1.687-.797.922 0 1.328.922 1.328 1.984 0 1-.578 3.328-1.094 4.407-.515 1.108-1.468 2.108-2.421 2.108-1.407 0-1.625-1.781-1.625-1.86 0-.062.03-.234.062-.328zm0 0"/></symbol><symbol id="g" overflow="visible"><path d="m5.797-13.813a1.11 1.11 0 0 0 .062-.312c0-.203-.203-.203-.234-.203s-.766.047-1.14.094c-.36.015-.657.062-1.032.078-.5.047-.64.062-.64.437 0 .203.203.203.406.203 1.062 0 1.062.188 1.062.407 0 .078 0 .109-.11.484l-2.951 11.813c-.078.312-.078.359-.078.484 0 .453.343.531.546.531.579 0 .704-.453.875-1.094l.97-3.859c1.484.172 2.374.781 2.374 1.781 0 .125 0 .203-.062.516-.078.312-.078.547-.078.656 0 1.203.78 2 1.828 2 .953 0 1.453-.86 1.625-1.156.422-.766.703-1.922.703-2 0-.11-.094-.188-.219-.188-.187 0-.203.079-.281.407-.297 1.078-.719 2.53-1.781 2.53-.407 0-.672-.202-.672-1 0-.39.078-.843.156-1.155.078-.375.078-.391.078-.641 0-1.219-1.094-1.89-2.984-2.14.734-.454 1.484-1.266 1.765-1.579 1.187-1.311 1.985-1.984 2.937-1.984.484 0 .594.125.75.25-.766.094-1.063.625-1.063 1.031 0 .5.391.672.688.672.562 0 1.047-.484 1.047-1.14 0-.594-.469-1.22-1.406-1.22-1.126 0-2.063.813-3.532 2.454-.203.25-.968 1.031-1.734 1.328zm0 0"/></symbol><symbol id="h" overflow="visible"><path d="m3.625-6.813c.078-.171.14-.296.14-.453 0-.406-.374-.75-.828-.75-.406 0-.656.266-.75.641l-1.717 6.266c0 .03-.047.187-.047.203 0 .156.36.265.484.265.078 0 .094-.046.188-.234zm0 0"/></symbol><use x="173.66" xlink:href="#e" y="48.757"/><g stroke-miterlimit="10"><path d="m-105.916 0a7.472 7.472 0 1 1 -14.941 0 7.472 7.472 0 1 1 14.941 0zm226.774 0a7.472 7.472 0 1 1 -7.47-7.473 7.472 7.472 0 0 1 7.471 7.473zm0 0" fill="#d9d9d9" stroke="#8c8c8c" stroke-width="1.19553" transform="matrix(1 0 0 -1 188.533 41.41)"/><path d="m-104.388 4.5 46.84 23.418" fill="none" stroke="#000" stroke-width="1.19553" transform="matrix(1 0 0 -1 188.533 41.41)"/><path d="m-1.913 2.55c.16-.956 1.915-2.39 2.39-2.55-.477-.159-2.23-1.593-2.39-2.552" fill="none" stroke="#000" stroke-linecap="round" stroke-linejoin="round" stroke-width=".9564" transform="matrix(.89435604 -.44717702 -.44717702 -.89435604 130.986115 13.49051)"/></g><use x="135.759" xlink:href="#f" y="18.789"/><use x="145.913" xlink:href="#h" y="11.291"/><g clip-path="url(#a)"><path d="m-104.388-4.5 46.84-23.418" fill="none" stroke="#000" stroke-miterlimit="10" stroke-width="1.19553" transform="matrix(1 0 0 -1 188.533 41.41)"/></g><path d="m-1.913 2.552c.16-.96 1.913-2.394 2.39-2.553-.475-.159-2.231-1.591-2.39-2.549" style="fill:none;stroke-width:.9564;stroke-linecap:round;stroke-linejoin:round;stroke:#000;stroke-miterlimit:10" transform="matrix(.89436 .44717 .44717 -.89436 130.984 69.33)"/><use x="135.759" xlink:href="#g" y="77.491"/><use x="146.975" xlink:href="#h" y="69.992"/><path d="m-123.244 4.926-46.836 23.422" fill="none" stroke="#000" stroke-miterlimit="10" stroke-width="1.19553" transform="matrix(1 0 0 -1 188.533 41.41)"/><path d="m-1.91 2.55c.157-.956 1.91-2.39 2.387-2.549-.479-.16-2.23-1.595-2.389-2.552" style="fill:none;stroke-width:.9564;stroke-linecap:round;stroke-linejoin:round;stroke:#000;stroke-miterlimit:10" transform="matrix(.89436 .44717 .44717 -.89436 65.291 36.483)"/><use x="4.382" xlink:href="#f" y="15.503"/><g clip-path="url(#b)"><path d="m-123.244-4.926-46.836-23.422" fill="none" stroke="#000" stroke-miterlimit="10" stroke-width="1.19553" transform="matrix(1 0 0 -1 188.533 41.41)"/></g><path d="m-1.91 2.551c.157-.957 1.908-2.392 2.387-2.552-.477-.16-2.229-1.594-2.388-2.55" style="fill:none;stroke-width:.9564;stroke-linecap:round;stroke-linejoin:round;stroke:#000;stroke-miterlimit:10" transform="matrix(.89435604 -.44717702 -.44717702 -.89435604 65.292362 46.337858)"/><use x="3.321" xlink:href="#g" y="76.931"/><path d="m122.389 4.5 46.836 23.418" fill="none" stroke="#000" stroke-miterlimit="10" stroke-width="1.19553" transform="matrix(1 0 0 -1 188.533 41.41)"/><path d="m-1.914 2.55c.16-.954 1.915-2.39 2.394-2.551-.48-.157-2.233-1.592-2.394-2.55" style="fill:none;stroke-width:.9564;stroke-linecap:round;stroke-linejoin:round;stroke:#000;stroke-miterlimit:10" transform="matrix(.89435604 -.44717702 -.44717702 -.89435604 357.763941 13.489573)"/><use x="362.53" xlink:href="#f" y="15.503"/><g clip-path="url(#c)"><path d="m122.389-4.5 46.836-23.418" fill="none" stroke="#000" stroke-miterlimit="10" stroke-width="1.19553" transform="matrix(1 0 0 -1 188.533 41.41)"/></g><path d="m-1.914 2.552c.161-.96 1.914-2.394 2.394-2.552-.48-.16-2.235-1.593-2.394-2.55" style="fill:none;stroke-width:.9564;stroke-linecap:round;stroke-linejoin:round;stroke:#000;stroke-miterlimit:10" transform="matrix(.89436 .44717 .44717 -.89436 357.758 69.33)"/><use x="362.53" xlink:href="#g" y="76.931"/><path d="m103.533 4.926-46.84 23.422" fill="none" stroke="#000" stroke-miterlimit="10" stroke-width="1.19553" transform="matrix(1 0 0 -1 188.533 41.41)"/><path d="m-1.911 2.55c.159-.956 1.911-2.39 2.388-2.55-.477-.16-2.23-1.593-2.387-2.551" style="fill:none;stroke-width:.9564;stroke-linecap:round;stroke-linejoin:round;stroke:#000;stroke-miterlimit:10" transform="matrix(.89436 .44717 .44717 -.89436 292.065 36.483)"/><use x="226.711" xlink:href="#f" y="18.789"/><use x="236.865" xlink:href="#h" y="11.291"/><g clip-path="url(#d)"><path d="m103.533-4.926-46.84-23.422" fill="none" stroke="#000" stroke-miterlimit="10" stroke-width="1.19553" transform="matrix(1 0 0 -1 188.533 41.41)"/></g><path d="m-1.911 2.551c.159-.957 1.91-2.391 2.388-2.551-.477-.161-2.23-1.594-2.387-2.551" style="fill:none;stroke-width:.9564;stroke-linecap:round;stroke-linejoin:round;stroke:#000;stroke-miterlimit:10" transform="matrix(.89435604 -.44717702 -.44717702 -.89435604 292.070188 46.336921)"/><use x="225.649" xlink:href="#g" y="77.491"/><use x="236.865" xlink:href="#h" y="69.992"/></svg>