<svg xmlns="http://www.w3.org/2000/svg" xmlns:xlink="http://www.w3.org/1999/xlink" width="502.756" height="107.748" viewBox="0 0 377.067 80.811"><defs><clipPath id="d"><path d="M67 29h81v51.813H67Zm0 0"/></clipPath><clipPath id="f"><path d="M1 29h82v51.813H1Zm0 0"/></clipPath><clipPath id="g"><path d="M294 29h81v51.813h-81Zm0 0"/></clipPath><clipPath id="h"><path d="M228 29h81v51.813h-81Zm0 0"/></clipPath><symbol overflow="visible" id="a"><path style="stroke:none" d="M26.578-13.266c.61 0 1.235 0 1.235-.703 0-.75-.704-.75-1.407-.75H3.313c-.704 0-1.407 0-1.407.75 0 .703.61.703 1.235.703Zm-.172 7.36c.703 0 1.407 0 1.407-.75 0-.703-.625-.703-1.235-.703H3.141c-.625 0-1.235 0-1.235.703 0 .75.703.75 1.407.75Zm0 0"/></symbol><symbol overflow="visible" id="b"><path style="stroke:none" d="M.89 2.625c-.14.625-.234.781-1.078.781-.25 0-.453 0-.453.39 0 .048.016.204.25.204.266 0 .563-.031.829-.031h.89C1.75 3.969 2.812 4 3.25 4c.11 0 .36 0 .36-.36 0-.234-.141-.234-.485-.234-.953 0-1.016-.14-1.016-.312 0-.25.922-3.797 1.047-4.266.235.578.797 1.375 1.86 1.375 2.343 0 4.859-3.031 4.859-6.062 0-1.907-1.078-3.25-2.625-3.25-1.328 0-2.438 1.28-2.672 1.562-.156-1.031-.969-1.562-1.797-1.562-.594 0-1.062.296-1.453 1.078-.375.734-.672 2-.672 2.078 0 .094.094.187.235.187.156 0 .187-.015.312-.5.313-1.218.703-2.437 1.531-2.437.47 0 .625.344.625.953 0 .5-.046.703-.14 1.078Zm3.58-9.063c.14-.578.718-1.187 1.047-1.468.234-.219.906-.797 1.687-.797.922 0 1.328.922 1.328 1.984 0 1-.578 3.328-1.094 4.407C6.923-1.204 5.97-.204 5.017-.204c-1.407 0-1.625-1.781-1.625-1.86 0-.062.03-.234.062-.328Zm0 0"/></symbol><symbol overflow="visible" id="e"><path style="stroke:none" d="M5.797-13.813a1.11 1.11 0 0 0 .062-.312c0-.203-.203-.203-.234-.203s-.766.047-1.14.094c-.36.015-.657.062-1.032.078-.5.047-.64.062-.64.437 0 .203.203.203.406.203 1.062 0 1.062.188 1.062.407 0 .078 0 .109-.11.484L1.22-.812c-.078.312-.078.359-.078.484 0 .453.343.531.546.531.579 0 .704-.453.875-1.094l.97-3.859c1.484.172 2.374.781 2.374 1.781 0 .125 0 .203-.062.516-.078.312-.078.547-.078.656 0 1.203.78 2 1.828 2 .953 0 1.453-.86 1.625-1.156.422-.766.703-1.922.703-2 0-.11-.094-.188-.219-.188-.187 0-.203.079-.281.407-.297 1.078-.719 2.53-1.781 2.53-.407 0-.672-.202-.672-1 0-.39.078-.843.156-1.155.078-.375.078-.391.078-.641 0-1.219-1.094-1.89-2.984-2.14.734-.454 1.484-1.266 1.765-1.579C7.172-8.03 7.97-8.703 8.922-8.703c.484 0 .594.125.75.25-.766.094-1.063.625-1.063 1.031 0 .5.391.672.688.672.562 0 1.047-.484 1.047-1.14 0-.594-.469-1.22-1.406-1.22-1.126 0-2.063.813-3.532 2.454-.203.25-.968 1.031-1.734 1.328Zm0 0"/></symbol><symbol overflow="visible" id="c"><path style="stroke:none" d="M3.625-6.813c.078-.171.14-.296.14-.453 0-.406-.374-.75-.828-.75-.406 0-.656.266-.75.641L.47-1.109c0 .03-.047.187-.047.203 0 .156.36.265.484.265.078 0 .094-.046.188-.234Zm0 0"/></symbol></defs><use xlink:href="#a" x="173.66" y="48.757" style="fill:#000;fill-opacity:1"/><path style="fill-rule:nonzero;fill:#d9d9d9;fill-opacity:1;stroke-width:1.19553;stroke-linecap:butt;stroke-linejoin:miter;stroke:#8c8c8c;stroke-opacity:1;stroke-miterlimit:10" d="M-105.916 0a7.472 7.472 0 1 1-14.941 0 7.472 7.472 0 1 1 14.941 0Zm226.774 0a7.472 7.472 0 1 1-7.47-7.473A7.472 7.472 0 0 1 120.859 0Zm0 0" transform="matrix(1 0 0 -1 188.533 41.41)"/><path style="fill:none;stroke-width:1.19553;stroke-linecap:butt;stroke-linejoin:miter;stroke:#000;stroke-opacity:1;stroke-miterlimit:10" d="m-104.388 4.5 46.84 23.418" transform="matrix(1 0 0 -1 188.533 41.41)"/><path style="fill:none;stroke-width:.9564;stroke-linecap:round;stroke-linejoin:round;stroke:#000;stroke-opacity:1;stroke-miterlimit:10" d="M-1.913 2.55C-1.753 1.594.002.16.477 0 0-.159-1.753-1.593-1.913-2.552" transform="scale(.99992 -.99992) rotate(26.565 94.074 270.71)"/><use xlink:href="#b" x="135.759" y="18.789" style="fill:#000;fill-opacity:1"/><use xlink:href="#c" x="145.913" y="11.291" style="fill:#000;fill-opacity:1"/><g clip-path="url(#d)"><path style="fill:none;stroke-width:1.19553;stroke-linecap:butt;stroke-linejoin:miter;stroke:#000;stroke-opacity:1;stroke-miterlimit:10" d="m-104.388-4.5 46.84-23.418" transform="matrix(1 0 0 -1 188.533 41.41)"/></g><path style="fill:none;stroke-width:.9564;stroke-linecap:round;stroke-linejoin:round;stroke:#000;stroke-opacity:1;stroke-miterlimit:10" d="M-1.913 2.552C-1.753 1.592 0 .158.477-.001.002-.16-1.754-1.592-1.913-2.55" transform="matrix(.89436 .44717 .44717 -.89436 130.984 69.33)"/><use xlink:href="#e" x="135.759" y="77.491" style="fill:#000;fill-opacity:1"/><use xlink:href="#c" x="146.975" y="69.992" style="fill:#000;fill-opacity:1"/><path style="fill:none;stroke-width:1.19553;stroke-linecap:butt;stroke-linejoin:miter;stroke:#000;stroke-opacity:1;stroke-miterlimit:10" d="m-123.244 4.926-46.836 23.422" transform="matrix(1 0 0 -1 188.533 41.41)"/><path style="fill:none;stroke-width:.9564;stroke-linecap:round;stroke-linejoin:round;stroke:#000;stroke-opacity:1;stroke-miterlimit:10" d="M-1.91 2.55C-1.753 1.594 0 .16.477.001c-.479-.16-2.23-1.595-2.389-2.552" transform="matrix(.89436 .44717 .44717 -.89436 65.291 36.483)"/><use xlink:href="#b" x="4.382" y="15.503" style="fill:#000;fill-opacity:1"/><g clip-path="url(#f)"><path style="fill:none;stroke-width:1.19553;stroke-linecap:butt;stroke-linejoin:miter;stroke:#000;stroke-opacity:1;stroke-miterlimit:10" d="m-123.244-4.926-46.836-23.422" transform="matrix(1 0 0 -1 188.533 41.41)"/></g><path style="fill:none;stroke-width:.9564;stroke-linecap:round;stroke-linejoin:round;stroke:#000;stroke-opacity:1;stroke-miterlimit:10" d="M-1.91 2.551C-1.753 1.594-.002.159.477-.001 0-.161-1.752-1.595-1.911-2.551" transform="scale(.99992 -.99992) rotate(26.565 130.802 115.132)"/><use xlink:href="#e" x="3.321" y="76.931" style="fill:#000;fill-opacity:1"/><path style="fill:none;stroke-width:1.19553;stroke-linecap:butt;stroke-linejoin:miter;stroke:#000;stroke-opacity:1;stroke-miterlimit:10" d="m122.389 4.5 46.836 23.418" transform="matrix(1 0 0 -1 188.533 41.41)"/><path style="fill:none;stroke-width:.9564;stroke-linecap:round;stroke-linejoin:round;stroke:#000;stroke-opacity:1;stroke-miterlimit:10" d="M-1.914 2.55C-1.754 1.596.001.16.48-.001 0-.158-1.753-1.593-1.914-2.551" transform="scale(.99992 -.99992) rotate(26.565 207.47 751.073)"/><use xlink:href="#b" x="362.53" y="15.503" style="fill:#000;fill-opacity:1"/><g clip-path="url(#g)"><path style="fill:none;stroke-width:1.19553;stroke-linecap:butt;stroke-linejoin:miter;stroke:#000;stroke-opacity:1;stroke-miterlimit:10" d="m122.389-4.5 46.836-23.418" transform="matrix(1 0 0 -1 188.533 41.41)"/></g><path style="fill:none;stroke-width:.9564;stroke-linecap:round;stroke-linejoin:round;stroke:#000;stroke-opacity:1;stroke-miterlimit:10" d="M-1.914 2.552C-1.753 1.592 0 .158.48 0 0-.16-1.755-1.593-1.914-2.55" transform="matrix(.89436 .44717 .44717 -.89436 357.758 69.33)"/><use xlink:href="#e" x="362.53" y="76.931" style="fill:#000;fill-opacity:1"/><path style="fill:none;stroke-width:1.19553;stroke-linecap:butt;stroke-linejoin:miter;stroke:#000;stroke-opacity:1;stroke-miterlimit:10" d="m103.533 4.926-46.84 23.422" transform="matrix(1 0 0 -1 188.533 41.41)"/><path style="fill:none;stroke-width:.9564;stroke-linecap:round;stroke-linejoin:round;stroke:#000;stroke-opacity:1;stroke-miterlimit:10" d="M-1.911 2.55C-1.752 1.594 0 .16.477 0 0-.16-1.753-1.593-1.91-2.551" transform="matrix(.89436 .44717 .44717 -.89436 292.065 36.483)"/><use xlink:href="#b" x="226.711" y="18.789" style="fill:#000;fill-opacity:1"/><use xlink:href="#c" x="236.865" y="11.291" style="fill:#000;fill-opacity:1"/><g clip-path="url(#h)"><path style="fill:none;stroke-width:1.19553;stroke-linecap:butt;stroke-linejoin:miter;stroke:#000;stroke-opacity:1;stroke-miterlimit:10" d="m103.533-4.926-46.84-23.422" transform="matrix(1 0 0 -1 188.533 41.41)"/></g><path style="fill:none;stroke-width:.9564;stroke-linecap:round;stroke-linejoin:round;stroke:#000;stroke-opacity:1;stroke-miterlimit:10" d="M-1.911 2.551C-1.752 1.594-.001.16.477 0 0-.161-1.753-1.594-1.91-2.551" transform="scale(.99992 -.99992) rotate(26.565 244.198 595.495)"/><use xlink:href="#e" x="225.649" y="77.491" style="fill:#000;fill-opacity:1"/><use xlink:href="#c" x="236.865" y="69.992" style="fill:#000;fill-opacity:1"/></svg>