<svg height="289.54" viewBox="0 0 510.634 217.155" width="680.845" xmlns="http://www.w3.org/2000/svg" xmlns:xlink="http://www.w3.org/1999/xlink"><symbol id="a" overflow="visible"><path d="m.64-.844c-.093.094-.093.11-.093.281v.079c0 .359.11.484.484.484h3.422c.375 0 .469-.125.469-.484v-.11c0-.156 0-.36-.203-.437-.078-.047-.39-.047-.594-.047-.219 0-.453.016-.672.016h-1.625l1.328-1.25c.14-.126.516-.438.672-.579.547-.53 1.094-1.062 1.094-1.953 0-1.218-.875-2.297-2.344-2.297-.344 0-.906.047-1.39.438-.094.078-.547.437-.735 1.094l.5.64c.063.078.094.125.156.125.094 0 .11-.078.141-.187.203-.688.547-1.11 1.188-1.11.765 0 1.093.704 1.093 1.313 0 .64-.375 1.312-.984 1.953zm0 0"/></symbol><symbol id="b" overflow="visible"><path d="m5.047-3.422c0-1.36 0-3.719-2.313-3.719-2.312.001-2.312 2.329-2.312 3.721 0 1.374 0 3.64 2.312 3.64 2.313 0 2.313-2.25 2.313-3.64zm-2.313 2.922c-.734 0-.843-.922-.874-1.188-.078-.53-.078-1.468-.078-1.875 0-.578 0-1.218.063-1.718.031-.266.125-1.14.89-1.14.735 0 .86.843.891 1.03.063.516.063 1.297.063 1.829 0 .578 0 1.343-.063 1.89-.031.266-.14 1.172-.89 1.172zm0 0"/></symbol><symbol id="c" overflow="visible"><path d="m3.531-6.656c0-.188 0-.485-.437-.485-.188 0-.235.016-.36.141-.171.156-.546.531-1.53.547-.188 0-.454.078-.454.36 0 .359.36.359.484.359.297 0 .657-.047.938-.125v5.14h-.782c-.125 0-.47 0-.47.36 0 .359.345.359.47.359h2.843c.11 0 .485 0 .485-.36 0-.359-.375-.359-.485-.359h-.703zm0 0"/></symbol><symbol id="d" overflow="visible"><path d="m3.625-3.047c-.016.094 0 .281-.031.719-.063.61-.235 1.61-1.328 1.61-.313 0-.594-.079-.875-.329-.047-.062-.079-.078-.125-.078-.079 0-.094.047-.157.125-.187.328-.328.547-.328.61 0 .078.531.609 1.5.609 2.735 0 2.735-2.875 2.735-3.766 0-1.062-.016-3.593-2.282-3.593-.609 0-1.265.11-1.78.75-.423.547-.5 1.047-.5 1.813 0 .625.03 1.203.452 1.766.406.515.86.671 1.5.671.735 0 1.078-.593 1.219-.906zm-.969.188c-.797 0-.797-.72-.797-1.704 0-.968 0-1.687.907-1.687.687 0 .843.766.843 1.813 0 .14 0 1.578-.953 1.578zm0 0"/></symbol><symbol id="e" overflow="visible"><path d="m6.406 1.063c.125 0 .36 0 .36-.22 0-.093-.032-.109-.157-.28l-.64-.844c1.265-.766 1.328-2.406 1.328-3.125 0-2-.734-3.735-3.344-3.735-2.75.001-3.343 1.907-3.343 3.735 0 1.86.641 3.625 3.344 3.625.156 0 .39 0 .719-.047.11.172.234.36.36.531.218.328.25.36.577.36zm-2.593-3c-.141 0-.36 0-.36.234 0 .11.313.562.5.812.031.047.188.282.188.313 0 .015-.157.015-.188.015-1.906 0-1.906-1.968-1.906-2.859 0-.875 0-2.937 1.906-2.937s1.907 2.046 1.907 2.937c0 .625 0 1.672-.562 2.313l-.547-.72c-.094-.109-.14-.109-.328-.109zm0 0"/></symbol><symbol id="f" overflow="visible"><path d="m.39-2.61c-.078.141-.078.172-.078.36v.25c0 .313.063.469.47.469h2.25v1.047c0 .328.062.484.484.484h.265c.39 0 .485-.125.485-.484v-1.047h.421c.313 0 .47-.063.47-.469 0-.36-.126-.469-.47-.469h-.421v-3.969c0-.359-.11-.484-.485-.484h-.719c-.187 0-.343 0-.453.234zm.954.141c1.593-2.921 1.686-3.234 1.734-3.406h.016v3.406zm0 0"/></symbol><symbol id="g" overflow="visible"><path d="m.953-5.531c.078.125.14.125.156.125.063 0 .094-.047.141-.11.5-.734 1.219-.734 1.344-.734.64 0 .719.328.719.813 0 .14 0 .625-.297 1-.25.28-.5.296-.797.328-.11 0-.297.015-.328.03-.063.032-.063.095-.063.25v.173c0 .265 0 .281.266.281h.437c.906 0 1.016.563 1.016 1.328 0 .672-.063 1.328-.969 1.328a2.483 2.483 0 0 1 -1.734-.703c-.094-.078-.094-.094-.14-.094-.095 0-.11.094-.126.11 0 .015-.125.64-.125.687 0 .125.86.938 2.172.938 1.719 0 2.39-.922 2.39-2.25 0-.89-.484-1.5-1.374-1.735.812-.437 1.078-1.078 1.078-1.64 0-1.61-1.422-1.735-2.078-1.735-1.36 0-2.032.985-2.032 1.063 0 .062.063.14.063.14zm0 0"/></symbol><symbol id="h" overflow="visible"><path d="m2.922-5.86v5.376c0 .359.11.484.484.484h.5c.375 0 .485-.125.485-.484v-5.376c.437 0 1.546.03 1.984.03.281 0 .516 0 .516-.468v-.078c0-.328-.063-.484-.47-.484h-5.545c-.36 0-.469.109-.469.484v.078c0 .469.235.469.516.469zm0 0"/></symbol><symbol id="i" overflow="visible"><path d="m4.984-3.234c0-1.032-.437-1.438-1.453-1.438-1 0-1.453.688-1.594.969h-.015v-2.735c0-.328-.063-.484-.469-.484h-.375c-.36 0-.484.11-.484.484v5.954c0 .359.11.484.484.484h.39c.391 0 .485-.125.485-.484v-2.204c0-.859.578-1.265 1.094-1.265.484 0 .578.219.578.734v2.735c0 .328.078.484.484.484h.391c.39 0 .484-.125.484-.484zm0 0"/></symbol><symbol id="j" overflow="visible"><path d="m4.297-2.14c.234 0 .484 0 .484-.454 0-1.281-.61-2.14-2.093-2.14-1.594 0-2.376.89-2.376 2.406 0 1.64.938 2.437 2.516 2.437.375 0 .938-.046 1.594-.375.219-.109.297-.14.297-.265 0-.063-.032-.36-.047-.438-.031-.312-.047-.312-.14-.312-.032 0-.063 0-.173.093a2.197 2.197 0 0 1 -1.5.579c-1.125 0-1.25-.891-1.28-1.532zm-2.703-.516c.031-.61.234-1.36 1.093-1.36.797 0 .954.579.985 1.36zm0 0"/></symbol><symbol id="k" overflow="visible"><path d="m1.938-2.297c0-.937.78-1.328 1.406-1.375.187 0 .203 0 .203-.265v-.47c0-.202 0-.265-.172-.265-.281 0-1.016.094-1.484 1.172v-.64c0-.329-.079-.485-.485-.485h-.312c-.36 0-.485.11-.485.484v3.657c0 .359.11.484.485.484h.36c.374 0 .484-.125.484-.484zm0 0"/></symbol><symbol id="l" overflow="visible"><path d="m8.031-3.234c0-1.032-.437-1.438-1.453-1.438-.703 0-1.25.328-1.61.984-.155-.953-1.015-.984-1.437-.984-.187 0-.594 0-1.047.328a2.002 2.002 0 0 0 -.578.688h-.015v-.485c0-.328-.063-.484-.47-.484h-.343c-.36 0-.484.11-.484.484v3.657c0 .359.11.484.484.484h.39c.391 0 .485-.125.485-.484v-2.204c0-.89.61-1.265 1.094-1.265s.594.203.594.734v2.735c0 .359.109.484.468.484h.407c.374 0 .484-.125.484-.484v-2.204c0-.89.61-1.265 1.094-1.265.468 0 .578.203.578.734v2.735c0 .359.11.484.484.484h.407c.375 0 .468-.125.468-.484zm0 0"/></symbol><symbol id="m" overflow="visible"><path d="m5.156-2.25c0-1.625-.797-2.484-2.422-2.484-1.656 0-2.421.89-2.421 2.484 0 1.625.859 2.36 2.421 2.36 1.563 0 2.422-.72 2.422-2.36zm-2.422 1.578c-1.062 0-1.062-.89-1.062-1.687 0-.766 0-1.657 1.062-1.657 1.079 0 1.079.875 1.079 1.657 0 .78 0 1.687-1.079 1.687zm0 0"/></symbol><symbol id="n" overflow="visible"><path d="m1.938-6.438c0-.328-.079-.484-.485-.484h-.36c-.359 0-.484.11-.484.484v5.954c0 .359.11.484.485.484h.36c.374 0 .484-.125.484-.484zm0 0"/></symbol><symbol id="o" overflow="visible"><path d="m4.563-.5c0-.11-.047-.563-.063-.703 0-.016-.031-.125-.125-.125-.031 0-.063 0-.156.11-.172.14-.64.546-1.453.546-1.047 0-1.047-1-1.047-1.64 0-.813.062-1.641 1.078-1.641.64 0 .906.156 1.265.453.125.11.141.11.188.11.094 0 .11-.094.125-.126.016-.078.125-.64.125-.687 0-.094-.078-.14-.25-.219-.469-.219-.766-.312-1.469-.312-1.484 0-2.406.703-2.406 2.437 0 1.657.844 2.407 2.36 2.407.265 0 .859-.015 1.53-.343.282-.157.298-.172.298-.266zm0 0"/></symbol><symbol id="p" overflow="visible"><path d="m2.172-3.844h.89c.126 0 .47 0 .47-.36 0-.359-.345-.359-.47-.359h-.89v-.828c0-.328-.063-.484-.485-.484h-.296c-.36 0-.485.11-.485.484v.829h-.234c-.11 0-.469 0-.469.359 0 .36.36.36.469.36h.203v2.515c0 1.016.36 1.437 1.047 1.437.094 0 .531 0 1.047-.156.172-.047.75-.234.75-.422 0-.031-.016-.094-.078-.312-.047-.203-.079-.25-.157-.25-.062 0-.062 0-.125.062-.109.078-.375.297-.796.297-.235 0-.391-.172-.391-.828zm0 0"/></symbol><symbol id="q" overflow="visible"><path d="m1.016-6.922c-.313 0-.485.047-.485.453v.453c0 .329.11.454.469.454h.531c.469-.001.469-.204.469-.672 0-.485 0-.688-.469-.688zm.921 2.828c0-.312-.078-.468-.484-.468h-.36c-.359 0-.484.109-.484.468v3.61c0 .359.11.484.485.484h.36c.374 0 .484-.125.484-.484zm0 0"/></symbol><symbol id="r" overflow="visible"><path d="m3.953-1.406c0-.563-.297-.907-.484-1.063-.39-.36-.75-.422-1.172-.5-.547-.11-.938-.187-.938-.562 0-.422.329-.5.72-.5.655 0 1.015.25 1.28.468.094.11.125.11.157.11.109 0 .125-.094.14-.14.016-.079.11-.641.11-.688 0-.157-.532-.297-.641-.328a3.484 3.484 0 0 0 -.969-.125c-.453 0-1.781 0-1.781 1.421 0 .485.219.797.484 1.032.344.312.735.39 1.297.5.297.047.797.14.797.578 0 .469-.375.531-.765.531-.438 0-1-.125-1.47-.687-.046-.047-.077-.079-.14-.079-.094 0-.125.094-.125.157-.031.14-.14.703-.14.797 0 .187.734.421.75.421a3.57 3.57 0 0 0 1.125.172c.5 0 1.765-.046 1.765-1.515zm0 0"/></symbol><symbol id="s" overflow="visible"><path d="m2.688-4.39c-.22-.063-.829-.282-.829-.86 0-.844.844-.86 1.188-.86.547 0 1.047.126 1.531.61.172.14.172.156.219.156.062 0 .11-.031.14-.172l.141-.875c.031-.078.031-.093.031-.125 0-.078-.015-.093-.265-.218-.703-.36-1.297-.407-1.797-.407-.89 0-2.438.22-2.438 2.079 0 .703.375 1.171.563 1.359.5.515.969.625 1.75.797.562.14.781.187 1 .39.094.094.312.297.312.688 0 .937-.859.953-1.187.953-.844 0-1.578-.328-2.063-.781-.125-.125-.14-.125-.187-.125-.063 0-.11.031-.14.187l-.141.86c-.032.093-.032.109-.032.14 0 .203 1.047.563 1.094.578a4.648 4.648 0 0 0 1.469.236c1.483-.001 2.422-.673 2.422-2.22 0-1.11-.828-1.953-1.813-2.172zm0 0"/></symbol><symbol id="t" overflow="visible"><path d="m4.625-3.156c0-1.563-1.516-1.578-2.016-1.578-.468 0-.968.046-1.625.312-.218.094-.265.125-.265.234 0 .079.062.657.062.735.016.047.063.11.14.11.048 0 .079-.032.11-.063a2.002 2.002 0 0 1 1.547-.672c.531 0 .688.328.688.922v.344c-.344 0-2.954.015-2.954 1.484.001.703.563 1.437 1.438 1.437.328 0 1.078-.093 1.547-.78v.187c0 .328.078.484.484.484h.36c.39 0 .484-.125.484-.484zm-1.36 1.625c0 .922-.937.922-.968.922-.422 0-.688-.36-.688-.735 0-.984 1.375-1.047 1.657-1.062zm0 0"/></symbol><symbol id="u" overflow="visible"><path d="m6.375-1.422c0-.078-.063-.125-.11-.125-.234 0-.53.656-1.921.656-1.766 0-2.266-1.078-2.266-2.578 0-1.484.547-2.562 2.172-2.562.89 0 1.36.343 1.625.562.063.063.094.094.172.094.031 0 .078-.047.094-.094l.203-1.093c0-.047 0-.094-.078-.11a5.483 5.483 0 0 0 -1.985-.36c-2.421.001-3.671 1.174-3.671 3.549 0 2.452 1.265 3.577 3.687 3.577.844 0 1.375-.11 2.11-.563.077-.047.046-.125.046-.125zm0 0"/></symbol><symbol id="v" overflow="visible"><path d="m1.39-6.922c-.359 0-.484.11-.484.484v5.954c0 .359.11.484.485.484h2.718c.75 0 2.579-.125 2.579-1.938 0-1.406-1.391-1.625-1.75-1.687.921-.203 1.437-.719 1.437-1.5 0-1.797-2.125-1.797-2.531-1.797zm.923 2.969v-2.11h1.171c.391 0 1.547.032 1.547.97 0 1.14-1.312 1.14-1.562 1.14zm0 3.094v-2.375h1.25c.359 0 1.734 0 1.734 1.28 0 1.032-1.063 1.095-1.531 1.095zm0 0"/></symbol><symbol id="w" overflow="visible"><path d="m4.016-6.219h-.72v2.625c-.5-.422-1.077-.484-1.374-.484-.906 0-1.594.937-1.594 2.094 0 1.156.688 2.078 1.563 2.078.265 0 .828-.063 1.375-.563v.469h.75zm-.75 4.953c0 .172 0 .188-.094.313-.25.328-.547.469-.875.469-.578 0-1.235-.422-1.235-1.5 0-1.141.766-1.516 1.329-1.516.421 0 .703.234.875.469zm0 0"/></symbol><symbol id="x" overflow="visible"><path d="m3.688-2.594c0-.89-.641-1.547-1.532-1.547-.594 0-1.015.157-1.453.407l.063.625a2.2 2.2 0 0 1 1.375-.454c.5 0 .812.391.812.985v.375c-1.547.031-2.562.437-2.562 1.156 0 .422.28 1.14 1.062 1.14.172 0 .953-.015 1.531-.437v.344h.704zm-.735 1.344c0 .188 0 .406-.328.594-.219.14-.516.172-.703.172-.453 0-.844-.22-.844-.579 0-.625 1.75-.656 1.875-.656zm0 0"/></symbol><symbol id="y" overflow="visible"><path d="m1.625-3.422h1.297v-.562h-1.297v-1.141h-.672v1.14h-.781v.563h.766v2.297c0 .531.109 1.219.765 1.219.39 0 .86-.078 1.36-.328l-.141-.563a1.467 1.467 0 0 1 -.828.281c-.36 0-.469-.312-.469-.78zm0 0"/></symbol><symbol id="z" overflow="visible"><path d="m3.781-.969a2.503 2.503 0 0 1 -1.453.453c-.765 0-1.265-.624-1.265-1.484 0-.688.343-1.531 1.312-1.531.563 0 .844.11 1.297.422l.11-.625c-.5-.297-.782-.407-1.423-.407-1.279.001-2.029 1.079-2.029 2.157 0 1.109.827 2.078 2 2.078.624 0 1.093-.188 1.5-.422zm0 0"/></symbol><symbol id="A" overflow="visible"><path d="m4.016-4.078h-.72v.61c-.171-.173-.577-.61-1.28-.61-.907 0-1.688.89-1.688 2.094 0 1.124.64 2.078 1.532 2.078.579 0 1.094-.266 1.407-.531v2.171h.75zm-.72 2.812c0 .125 0 .282-.312.532-.187.156-.437.25-.671.25-.688 0-1.25-.672-1.25-1.5 0-.891.656-1.485 1.328-1.485.593 0 .906.594.906.969zm0 0"/></symbol><symbol id="B" overflow="visible"><path d="m4.031-3.984h-.75v2.593c0 .72-.562.954-1.11.954-.64 0-.702-.204-.702-.579v-2.968h-.75v3c0 .765.312 1.078.953 1.078.516 0 1.219-.14 1.64-.531v.437h.72zm0 0"/></symbol><symbol id="C" overflow="visible"><path d="m1.531-6.14h-.875v.859h.875zm-.078 2.156h-.719v3.984h.72zm0 0"/></symbol><symbol id="D" overflow="visible"><path d="m3.172-3.844c-.563-.25-.969-.297-1.344-.297-.203 0-1.516 0-1.516 1.188 0 .437.25.703.344.797.344.297.578.344 1.188.469.297.046.797.14.797.609 0 .578-.72.578-.844.578a2.604 2.604 0 0 1 -1.422-.453l-.11.656a3.32 3.32 0 0 0 1.532.39c.594 0 1.516-.187 1.516-1.25 0-.312-.126-.624-.438-.89-.297-.265-.563-.328-1.125-.422-.328-.062-.766-.156-.766-.578 0-.515.625-.515.766-.515a2.45 2.45 0 0 1 1.297.343zm0 0"/></symbol><symbol id="E" overflow="visible"><path d="m4.328-1.969c0-1.172-.89-2.172-2.031-2.172-1.11 0-2.031.97-2.031 2.172 0 1.172.937 2.063 2.03 2.063 1.11 0 2.032-.906 2.032-2.063zm-2.016 1.453c-.703 0-1.296-.53-1.296-1.546 0-1.047.671-1.485 1.28-1.485.642 0 1.298.453 1.298 1.485 0 1.046-.64 1.546-1.281 1.546zm0 0"/></symbol><symbol id="F" overflow="visible"><path d="m4.031-2.656c0-.672-.187-1.422-1.265-1.422a1.65 1.65 0 0 0 -1.344.672v-.625h-.703v4.031h.75v-2.188c0-.593.234-1.312.922-1.312.89 0 .89.64.89.906v2.594h.75zm0 0"/></symbol><symbol id="G" overflow="visible"><path d="m.875-6.219v6.219h2.469c1.344 0 2.281-.828 2.281-1.688 0-.796-.813-1.421-1.766-1.562.891-.234 1.516-.766 1.516-1.406 0-.828-1-1.563-2.281-1.563zm.813 2.688v-2.156h1.14c.922 0 1.797.406 1.797 1.046 0 .516-.64 1.11-1.89 1.11zm0 3v-2.406h1.312c.953 0 1.86.53 1.86 1.25 0 .625-.782 1.156-1.782 1.156zm0 0"/></symbol><symbol id="H" overflow="visible"><path d="m2.516-5.344a5.006 5.006 0 0 0 -.22-.422c-.046-.093-.187-.359-.233-.453h-1.188v6.219h.734v-5.531h.016l2.36 4.64c.078.141.187.36.234.422.047.11.172.375.234.469h1.172v-6.219h-.734v5.516zm0 0"/></symbol><symbol id="I" overflow="visible"><path d="m5.531-2.688h-1.937v.594h1.172v1.406c-.375.079-.75.172-1.157.172-1.359 0-2.156-1.375-2.156-2.609 0-1.266.797-2.594 2.172-2.594.656 0 1.281.25 1.688.61l.14-.782c-.406-.25-1.078-.437-1.89-.437-1.72 0-2.97 1.547-2.97 3.203 0 1.688 1.25 3.219 2.97 3.219.718 0 1.328-.157 1.968-.438zm0 0"/></symbol><symbol id="J" overflow="visible"><path d="m3.188-2.563c1.265 0 2.187-.859 2.187-1.843 0-.953-.906-1.813-2.188-1.813h-2.311v6.219h.86v-2.563zm-.204-3.124c1.032 0 1.61.562 1.61 1.28 0 .72-.578 1.298-1.61 1.298h-1.28v-2.579zm0 0"/></symbol><symbol id="K" overflow="visible"><path d="m3.89-2.922c.922-.25 1.563-.89 1.563-1.625 0-.922-1.047-1.672-2.328-1.672h-2.25v6.219h.828v-2.828h1.438l1.703 2.828h.86zm-2.187-.484v-2.281h1.313c1.046 0 1.656.5 1.656 1.14 0 .578-.547 1.14-1.656 1.14zm0 0"/></symbol><symbol id="L" overflow="visible"><path d="m5.656-6.219h-.86v2.688h-3.076v-2.689h-.86v6.22h.86v-2.938h3.078v2.938h.86zm0 0"/></symbol><symbol id="M" overflow="visible"><path d="m4.86-3.156c-.235.594-.72 1.844-.829 2.281h-.015c-.094-.375-.5-1.453-.672-1.89l-1.188-3.064-.172-.39h-1.062v6.219h.734v-5.531c.11.468.625 1.797.735 2.047l.984 2.53c.063.188.234.626.297.75h.672l1.25-3.155c.125-.329.672-1.75.797-2.172v5.531h.734v-6.219h-1.078zm0 0"/></symbol><symbol id="N" overflow="visible"><path d="m5.36-1.063c-.532.407-1.032.547-1.766.547-1.344 0-2.14-1.375-2.14-2.578 0-1.328.827-2.625 2.14-2.625.61 0 1.156.172 1.594.485l.14-.782c-.469-.203-1.047-.312-1.672-.312-1.765 0-3.062 1.453-3.062 3.218 0 1.703 1.25 3.203 3.062 3.203.828 0 1.156-.125 1.766-.5zm0 0"/></symbol><symbol id="O" overflow="visible"><path d="m3.422-3.766 2.468-2.453h-.89l-3.313 3.297v-3.297h-.812v6.219h.813v-2.047l1.202-1.187 2.235 3.234h.89zm0 0"/></symbol><symbol id="P" overflow="visible"><path d="m2.188-3.766c-.454-.109-.907-.468-.907-.984s.485-1.031 1.297-1.031c.656 0 1.094.187 1.563.578l.14-.781c-.437-.22-.875-.438-1.687-.438-1.281 0-2.078.89-2.078 1.781 0 .235.046.594.343 1 .422.532 1 .672 1.36.766.125.031.687.172.765.188.407.124.86.515.86 1.078 0 .593-.516 1.14-1.313 1.14-.734 0-1.406-.281-1.969-.734l-.156.781a4.07 4.07 0 0 0 2.125.625c1.235 0 2.063-.922 2.063-1.922s-.828-1.672-1.5-1.828zm0 0"/></symbol><symbol id="Q" overflow="visible"><path d="m.875-6.219v6.219h2.438c1.562 0 2.827-1.36 2.827-3.063 0-1.75-1.266-3.156-2.829-3.156zm.828 5.689v-5.157h1.375c1.25 0 2.235 1 2.235 2.625 0 1.579-1 2.532-2.22 2.532zm0 0"/></symbol><symbol id="R" overflow="visible"><path d="m4.11-3.984h-.704l-.703 1.828c-.187.469-.515 1.328-.562 1.656h-.016c-.016-.14-.047-.313-.531-1.61-.282-.718-.719-1.812-.735-1.874h-.734l1.578 3.984h.828zm0 0"/></symbol><symbol id="S" overflow="visible"><path d="m3.828-1.969c0-.281 0-.953-.36-1.5-.374-.562-.952-.672-1.296-.672-1.031 0-1.86.97-1.86 2.11 0 1.187.875 2.125 2 2.125.438 0 .954-.11 1.47-.438l-.048-.61c-.562.391-1.093.47-1.406.47-.75 0-1.328-.657-1.344-1.486zm-2.797-.531c.14-.563.578-1.047 1.14-1.047.345 0 .954.14 1.126 1.047zm0 0"/></symbol><symbol id="T" overflow="visible"><path d="m1.719-6.219h-.86v6.219h3.766v-.625h-.39c-.735 0-1.454.016-2.188.016h-.328zm0 0"/></symbol><symbol id="U" overflow="visible"><path d="m1.656-.766h-.765v.766h.765zm0 0"/></symbol><symbol id="V" overflow="visible"><path d="m3.781-2.047h2.547c.125 0 .313 0 .313-.203 0-.188-.172-.188-.313-.188h-2.547v-2.562c0-.14 0-.313-.203-.313-.187 0-.187.188-.187.313v2.563h-2.563c-.125 0-.312 0-.312.187 0 .203.171.203.312.203h2.563v2.563c0 .14 0 .312.203.312.187 0 .187-.187.187-.312zm0 0"/></symbol><symbol id="W" overflow="visible"><path d="m1.64-3.422h1v-.562h-1.03v-1.032c0-.656.593-.718.843-.718.078 0 .375 0 .735.14v-.625a2.686 2.686 0 0 0 -.735-.11c-.86 0-1.531.657-1.531 1.563v.782h-.672v.562h.672v3.422h.719zm0 0"/></symbol><symbol id="X" overflow="visible"><path d="m1.469-1.906c0-.953.734-1.516 1.547-1.532v-.64a1.98 1.98 0 0 0 -1.61.86v-.813h-.656v4.031h.719zm0 0"/></symbol><symbol id="Y" overflow="visible"><path d="m1.484-.406c.344.312.782.5 1.25.5.907 0 1.704-.89 1.704-2.094 0-1.078-.579-2.078-1.438-2.078-.25 0-.922.047-1.531.531v-.437h-.719v5.718h.734zm0-2.578c.125-.157.454-.485.97-.485.671 0 1.233.64 1.233 1.485 0 .859-.624 1.5-1.328 1.5-.28 0-.609-.11-.875-.563zm0 0"/></symbol><symbol id="Z" overflow="visible"><path d="m6.578-2.656c0-.672-.172-1.422-1.266-1.422-.75 0-1.171.453-1.39.734-.063-.187-.25-.734-1.156-.734a1.65 1.65 0 0 0 -1.344.672v-.625h-.703v4.031h.75v-2.188c0-.593.234-1.312.922-1.312.89 0 .89.64.89.906v2.594h.75v-2.188c0-.593.235-1.312.907-1.312.906 0 .906.64.906.906v2.594h.734zm0 0"/></symbol><symbol id="aa" overflow="visible"><path d="m3.672-3.61v-.374h-3.282v.562h2.266l-2.39 3.032v.39h3.437v-.594h-1.343c-.109 0-.218.016-.328.016h-.75zm0 0"/></symbol><symbol id="ab" overflow="visible"><path d="m1.453-6.219h-.719v6.219h.72zm0 0"/></symbol><symbol id="ac" overflow="visible"><path d="m4.11-3.984h-.704c-.686 1.64-1.172 2.828-1.219 3.453-.03-.406-.406-1.328-.515-1.594-.36-.922-.516-1.219-.797-1.86h-.75l1.797 3.985-.328.797c-.235.5-.407.5-.532.5-.14 0-.468-.031-.734-.156l.063.625c.015.015.359.078.656.078.25 0 .625 0 1.078-1.078zm0 0"/></symbol><symbol id="ad" overflow="visible"><path d="m3.578-5.563c.61 0 1.235.016 1.844.016h.531v-.625h-5.625v.625h.547c.61 0 1.234-.016 1.844-.016v5.563h.86zm0 0"/></symbol><symbol id="ae" overflow="visible"><path d="m4.75-2.938v-.578h-3.031v-2.078h.328c.734 0 1.469.032 2.203.032h.766v-.641h-4.157v6.203h4.282v-.688h-.891c-.844 0-1.688.032-2.531.032v-2.281zm0 0"/></symbol><symbol id="af" overflow="visible"><path d="m1.656-3.984h-.765v.78h.765zm-.765 3.218v.766h.765v-.766zm0 0"/></symbol><symbol id="ag" overflow="visible"><path d="m6.156-3.984h-.686c-.203.64-.938 2.937-1 3.484h-.016c-.047-.375-.234-.984-.39-1.484l-.625-2h-.659c-.281.875-.922 2.89-.953 3.453h-.016c-.03-.328-.265-1.14-.437-1.703l-.531-1.75h-.718l1.266 3.984h.75c.14-.5.484-1.531.53-1.734.188-.641.407-1.344.438-1.735.016.172.094.516.125.61.094.39.094.406.172.64l.672 2.219h.813zm0 0"/></symbol><symbol id="ah" overflow="visible"><path d="m2.594-2.438 1.546-1.546h-.86l-1.843 1.843v-4.078h-.671v6.219h.656v-1.281l.719-.703 1.421 1.984h.782zm0 0"/></symbol><symbol id="ai" overflow="visible"><path d="m4.375-4.078c-.172 0-.781 0-1.438.281a1.643 1.643 0 0 0 -.89-.281c-.828 0-1.485.672-1.485 1.453 0 .234.063.563.313.906-.172.235-.266.5-.266.75s.094.5.22.672c-.455.297-.564.688-.564.938 0 .656.875 1.203 2.03 1.203 1.157 0 2.048-.547 2.048-1.219 0-1.25-1.485-1.266-1.89-1.266h-.829c-.11 0-.516 0-.516-.468 0-.172.032-.235.079-.297.25.156.546.265.859.265a1.49 1.49 0 0 0 1.484-1.468c0-.313-.094-.563-.234-.797-.047-.047-.047-.063-.047-.063 0-.047.438-.047.563-.047.078 0 .406 0 .656.032zm-2.328 2.39c-.422 0-.813-.265-.813-.921 0-.735.454-.938.813-.938.406 0 .812.266.812.922 0 .734-.453.938-.812.938zm.406 1.736c.188 0 1.219 0 1.219.594 0 .39-.656.671-1.36.671-.703 0-1.39-.265-1.39-.687 0-.016 0-.578.687-.578zm0 0"/></symbol><clipPath id="aj"><path d="m0 1h510.633v216h-510.633zm0 0"/></clipPath><clipPath id="ak"><path d="m0 1h510.633v216.156h-510.633zm0 0"/></clipPath><clipPath id="al"><path d="m14 32h1v185.156h-1zm0 0"/></clipPath><clipPath id="am"><path d="m28 32h1v185.156h-1zm0 0"/></clipPath><clipPath id="an"><path d="m42 32h1v185.156h-1zm0 0"/></clipPath><clipPath id="ao"><path d="m56 32h2v185.156h-2zm0 0"/></clipPath><clipPath id="ap"><path d="m70 32h2v185.156h-2zm0 0"/></clipPath><clipPath id="aq"><path d="m85 32h1v185.156h-1zm0 0"/></clipPath><clipPath id="ar"><path d="m99 32h1v185.156h-1zm0 0"/></clipPath><clipPath id="as"><path d="m113 32h1v185.156h-1zm0 0"/></clipPath><clipPath id="at"><path d="m127 32h1v185.156h-1zm0 0"/></clipPath><clipPath id="au"><path d="m141 32h2v185.156h-2zm0 0"/></clipPath><clipPath id="av"><path d="m155 32h2v185.156h-2zm0 0"/></clipPath><clipPath id="aw"><path d="m170 32h1v185.156h-1zm0 0"/></clipPath><clipPath id="ax"><path d="m184 32h1v185.156h-1zm0 0"/></clipPath><clipPath id="ay"><path d="m198 32h1v185.156h-1zm0 0"/></clipPath><clipPath id="az"><path d="m212 32h1v185.156h-1zm0 0"/></clipPath><clipPath id="aA"><path d="m226 32h2v185.156h-2zm0 0"/></clipPath><clipPath id="aB"><path d="m240 32h2v185.156h-2zm0 0"/></clipPath><clipPath id="aC"><path d="m255 32h1v185.156h-1zm0 0"/></clipPath><clipPath id="aD"><path d="m269 32h1v185.156h-1zm0 0"/></clipPath><clipPath id="aE"><path d="m283 32h1v185.156h-1zm0 0"/></clipPath><clipPath id="aF"><path d="m297 32h2v185.156h-2zm0 0"/></clipPath><clipPath id="aG"><path d="m311 32h2v185.156h-2zm0 0"/></clipPath><clipPath id="aH"><path d="m325 32h2v185.156h-2zm0 0"/></clipPath><clipPath id="aI"><path d="m340 32h1v185.156h-1zm0 0"/></clipPath><clipPath id="aJ"><path d="m354 32h1v185.156h-1zm0 0"/></clipPath><clipPath id="aK"><path d="m368 32h1v185.156h-1zm0 0"/></clipPath><clipPath id="aL"><path d="m382 32h2v185.156h-2zm0 0"/></clipPath><clipPath id="aM"><path d="m396 32h2v185.156h-2zm0 0"/></clipPath><clipPath id="aN"><path d="m411 32h1v185.156h-1zm0 0"/></clipPath><clipPath id="aO"><path d="m425 32h1v185.156h-1zm0 0"/></clipPath><clipPath id="aP"><path d="m439 32h1v185.156h-1zm0 0"/></clipPath><clipPath id="aQ"><path d="m453 32h1v185.156h-1zm0 0"/></clipPath><clipPath id="aR"><path d="m467 32h2v185.156h-2zm0 0"/></clipPath><clipPath id="aS"><path d="m481 32h2v185.156h-2zm0 0"/></clipPath><clipPath id="aT"><path d="m496 32h1v185.156h-1zm0 0"/></clipPath><clipPath id="aU"><path d="m0 32h510.633v1h-510.633zm0 0"/></clipPath><clipPath id="aV"><path d="m0 46h510.633v2h-510.633zm0 0"/></clipPath><clipPath id="aW"><path d="m0 60h510.633v2h-510.633zm0 0"/></clipPath><clipPath id="aX"><path d="m0 75h510.633v1h-510.633zm0 0"/></clipPath><clipPath id="aY"><path d="m0 89h510.633v1h-510.633zm0 0"/></clipPath><clipPath id="aZ"><path d="m0 103h510.633v1h-510.633zm0 0"/></clipPath><clipPath id="a0"><path d="m0 117h510.633v1h-510.633zm0 0"/></clipPath><clipPath id="a1"><path d="m0 131h510.633v2h-510.633zm0 0"/></clipPath><clipPath id="a2"><path d="m0 145h510.633v2h-510.633zm0 0"/></clipPath><clipPath id="a3"><path d="m0 160h510.633v1h-510.633zm0 0"/></clipPath><clipPath id="a4"><path d="m0 174h510.633v1h-510.633zm0 0"/></clipPath><clipPath id="a5"><path d="m0 188h510.633v1h-510.633zm0 0"/></clipPath><clipPath id="a6"><path d="m0 202h510.633v1h-510.633zm0 0"/></clipPath><clipPath id="a7"><path d="m382 1h128.633v17h-128.633zm0 0"/></clipPath><clipPath id="a8"><path d="m467 17h43.633v16h-43.633zm0 0"/></clipPath><clipPath id="a9"><path d="m467 16h43.633v17h-43.633zm0 0"/></clipPath><clipPath id="ba"><path d="m282 133h228.633v14h-228.633zm0 0"/></clipPath><clipPath id="bb"><path d="m312 162h198.633v11h-198.633zm0 0"/></clipPath><clipPath id="bc"><path d="m324 175h186.633v14h-186.633zm0 0"/></clipPath><clipPath id="bd"><path d="m326 190h184.633v11h-184.633zm0 0"/></clipPath><clipPath id="be"><path d="m354 204h156.633v11h-156.633zm0 0"/></clipPath><g clip-path="url(#aj)"><path d="m.2 216.938h510.24v-215.434h-510.24zm0 0" fill="#fff"/></g><g clip-path="url(#ak)"><path d="m0-215.435h510.242v215.435h-510.242zm0 0" fill="none" stroke="#000" stroke-miterlimit="10" stroke-width=".3985" transform="matrix(1 0 0 -1 .199 1.503)"/></g><g clip-path="url(#al)"><path d="m14.172-31.18v-184.255" fill="none" stroke="#000" stroke-dasharray=".3985 1.99255" stroke-miterlimit="10" stroke-width=".3985" transform="matrix(1 0 0 -1 .199 1.503)"/></g><g clip-path="url(#am)"><path d="m28.348-31.18v-184.255" fill="none" stroke="#000" stroke-dasharray=".3985 1.99255" stroke-miterlimit="10" stroke-width=".3985" transform="matrix(1 0 0 -1 .199 1.503)"/></g><g clip-path="url(#an)"><path d="m42.52-31.18v-184.255" fill="none" stroke="#000" stroke-dasharray=".3985 1.99255" stroke-miterlimit="10" stroke-width=".3985" transform="matrix(1 0 0 -1 .199 1.503)"/></g><g clip-path="url(#ao)"><path d="m56.696-31.18v-184.255" fill="none" stroke="#000" stroke-dasharray=".3985 1.99255" stroke-miterlimit="10" stroke-width=".3985" transform="matrix(1 0 0 -1 .199 1.503)"/></g><g clip-path="url(#ap)"><path d="m70.867-31.18v-184.255" fill="none" stroke="#000" stroke-dasharray=".3985 1.99255" stroke-miterlimit="10" stroke-width=".3985" transform="matrix(1 0 0 -1 .199 1.503)"/></g><g clip-path="url(#aq)"><path d="m85.04-31.18v-184.255" fill="none" stroke="#000" stroke-dasharray=".3985 1.99255" stroke-miterlimit="10" stroke-width=".3985" transform="matrix(1 0 0 -1 .199 1.503)"/></g><g clip-path="url(#ar)"><path d="m99.215-31.18v-184.255" fill="none" stroke="#000" stroke-dasharray=".3985 1.99255" stroke-miterlimit="10" stroke-width=".3985" transform="matrix(1 0 0 -1 .199 1.503)"/></g><g clip-path="url(#as)"><path d="m113.387-31.18v-184.255" fill="none" stroke="#000" stroke-dasharray=".3985 1.99255" stroke-miterlimit="10" stroke-width=".3985" transform="matrix(1 0 0 -1 .199 1.503)"/></g><g clip-path="url(#at)"><path d="m127.563-31.18v-184.255" fill="none" stroke="#000" stroke-dasharray=".3985 1.99255" stroke-miterlimit="10" stroke-width=".3985" transform="matrix(1 0 0 -1 .199 1.503)"/></g><g clip-path="url(#au)"><path d="m141.735-31.18v-184.255" fill="none" stroke="#000" stroke-dasharray=".3985 1.99255" stroke-miterlimit="10" stroke-width=".3985" transform="matrix(1 0 0 -1 .199 1.503)"/></g><g clip-path="url(#av)"><path d="m155.906-31.18v-184.255" fill="none" stroke="#000" stroke-dasharray=".3985 1.99255" stroke-miterlimit="10" stroke-width=".3985" transform="matrix(1 0 0 -1 .199 1.503)"/></g><g clip-path="url(#aw)"><path d="m170.082-31.18v-184.255" fill="none" stroke="#000" stroke-dasharray=".3985 1.99255" stroke-miterlimit="10" stroke-width=".3985" transform="matrix(1 0 0 -1 .199 1.503)"/></g><g clip-path="url(#ax)"><path d="m184.254-31.18v-184.255" fill="none" stroke="#000" stroke-dasharray=".3985 1.99255" stroke-miterlimit="10" stroke-width=".3985" transform="matrix(1 0 0 -1 .199 1.503)"/></g><g clip-path="url(#ay)"><path d="m198.43-31.18v-184.255" fill="none" stroke="#000" stroke-dasharray=".3985 1.99255" stroke-miterlimit="10" stroke-width=".3985" transform="matrix(1 0 0 -1 .199 1.503)"/></g><g clip-path="url(#az)"><path d="m212.602-31.18v-184.255" fill="none" stroke="#000" stroke-dasharray=".3985 1.99255" stroke-miterlimit="10" stroke-width=".3985" transform="matrix(1 0 0 -1 .199 1.503)"/></g><g clip-path="url(#aA)"><path d="m226.774-31.18v-184.255" fill="none" stroke="#000" stroke-dasharray=".3985 1.99255" stroke-miterlimit="10" stroke-width=".3985" transform="matrix(1 0 0 -1 .199 1.503)"/></g><g clip-path="url(#aB)"><path d="m240.95-31.18v-184.255" fill="none" stroke="#000" stroke-dasharray=".3985 1.99255" stroke-miterlimit="10" stroke-width=".3985" transform="matrix(1 0 0 -1 .199 1.503)"/></g><g clip-path="url(#aC)"><path d="m255.121-31.18v-184.255" fill="none" stroke="#000" stroke-dasharray=".3985 1.99255" stroke-miterlimit="10" stroke-width=".3985" transform="matrix(1 0 0 -1 .199 1.503)"/></g><g clip-path="url(#aD)"><path d="m269.293-31.18v-184.255" fill="none" stroke="#000" stroke-dasharray=".3985 1.99255" stroke-miterlimit="10" stroke-width=".3985" transform="matrix(1 0 0 -1 .199 1.503)"/></g><g clip-path="url(#aE)"><path d="m283.469-31.18v-184.255" fill="none" stroke="#000" stroke-dasharray=".3985 1.99255" stroke-miterlimit="10" stroke-width=".3985" transform="matrix(1 0 0 -1 .199 1.503)"/></g><g clip-path="url(#aF)"><path d="m297.64-31.18v-184.255" fill="none" stroke="#000" stroke-dasharray=".3985 1.99255" stroke-miterlimit="10" stroke-width=".3985" transform="matrix(1 0 0 -1 .199 1.503)"/></g><g clip-path="url(#aG)"><path d="m311.817-31.18v-184.255" fill="none" stroke="#000" stroke-dasharray=".3985 1.99255" stroke-miterlimit="10" stroke-width=".3985" transform="matrix(1 0 0 -1 .199 1.503)"/></g><g clip-path="url(#aH)"><path d="m325.988-31.18v-184.255" fill="none" stroke="#000" stroke-dasharray=".3985 1.99255" stroke-miterlimit="10" stroke-width=".3985" transform="matrix(1 0 0 -1 .199 1.503)"/></g><g clip-path="url(#aI)"><path d="m340.16-31.18v-184.255" fill="none" stroke="#000" stroke-dasharray=".3985 1.99255" stroke-miterlimit="10" stroke-width=".3985" transform="matrix(1 0 0 -1 .199 1.503)"/></g><g clip-path="url(#aJ)"><path d="m354.336-31.18v-184.255" fill="none" stroke="#000" stroke-dasharray=".3985 1.99255" stroke-miterlimit="10" stroke-width=".3985" transform="matrix(1 0 0 -1 .199 1.503)"/></g><g clip-path="url(#aK)"><path d="m368.508-31.18v-184.255" fill="none" stroke="#000" stroke-dasharray=".3985 1.99255" stroke-miterlimit="10" stroke-width=".3985" transform="matrix(1 0 0 -1 .199 1.503)"/></g><g clip-path="url(#aL)"><path d="m382.684-31.18v-184.255" fill="none" stroke="#000" stroke-dasharray=".3985 1.99255" stroke-miterlimit="10" stroke-width=".3985" transform="matrix(1 0 0 -1 .199 1.503)"/></g><g clip-path="url(#aM)"><path d="m396.856-31.18v-184.255" fill="none" stroke="#000" stroke-dasharray=".3985 1.99255" stroke-miterlimit="10" stroke-width=".3985" transform="matrix(1 0 0 -1 .199 1.503)"/></g><g clip-path="url(#aN)"><path d="m411.028-31.18v-184.255" fill="none" stroke="#000" stroke-dasharray=".3985 1.99255" stroke-miterlimit="10" stroke-width=".3985" transform="matrix(1 0 0 -1 .199 1.503)"/></g><g clip-path="url(#aO)"><path d="m425.203-31.18v-184.255" fill="none" stroke="#000" stroke-dasharray=".3985 1.99255" stroke-miterlimit="10" stroke-width=".3985" transform="matrix(1 0 0 -1 .199 1.503)"/></g><g clip-path="url(#aP)"><path d="m439.375-31.18v-184.255" fill="none" stroke="#000" stroke-dasharray=".3985 1.99255" stroke-miterlimit="10" stroke-width=".3985" transform="matrix(1 0 0 -1 .199 1.503)"/></g><g clip-path="url(#aQ)"><path d="m453.547-31.18v-184.255" fill="none" stroke="#000" stroke-dasharray=".3985 1.99255" stroke-miterlimit="10" stroke-width=".3985" transform="matrix(1 0 0 -1 .199 1.503)"/></g><g clip-path="url(#aR)"><path d="m467.723-31.18v-184.255" fill="none" stroke="#000" stroke-dasharray=".3985 1.99255" stroke-miterlimit="10" stroke-width=".3985" transform="matrix(1 0 0 -1 .199 1.503)"/></g><g clip-path="url(#aS)"><path d="m481.895-31.18v-184.255" fill="none" stroke="#000" stroke-dasharray=".3985 1.99255" stroke-miterlimit="10" stroke-width=".3985" transform="matrix(1 0 0 -1 .199 1.503)"/></g><g clip-path="url(#aT)"><path d="m496.07-31.18v-184.255" fill="none" stroke="#000" stroke-dasharray=".3985 1.99255" stroke-miterlimit="10" stroke-width=".3985" transform="matrix(1 0 0 -1 .199 1.503)"/></g><g clip-path="url(#aU)"><path d="m0-31.18h510.242" fill="none" stroke="#000" stroke-dasharray=".3985 1.99255" stroke-miterlimit="10" stroke-width=".3985" transform="matrix(1 0 0 -1 .199 1.503)"/></g><g clip-path="url(#aV)"><path d="m0-45.356h510.242" fill="none" stroke="#000" stroke-dasharray=".3985 1.99255" stroke-miterlimit="10" stroke-width=".3985" transform="matrix(1 0 0 -1 .199 1.503)"/></g><g clip-path="url(#aW)"><path d="m0-59.528h510.242" fill="none" stroke="#000" stroke-dasharray=".3985 1.99255" stroke-miterlimit="10" stroke-width=".3985" transform="matrix(1 0 0 -1 .199 1.503)"/></g><g clip-path="url(#aX)"><path d="m0-73.7h510.242" fill="none" stroke="#000" stroke-dasharray=".3985 1.99255" stroke-miterlimit="10" stroke-width=".3985" transform="matrix(1 0 0 -1 .199 1.503)"/></g><g clip-path="url(#aY)"><path d="m0-87.876h510.242" fill="none" stroke="#000" stroke-dasharray=".3985 1.99255" stroke-miterlimit="10" stroke-width=".3985" transform="matrix(1 0 0 -1 .199 1.503)"/></g><g clip-path="url(#aZ)"><path d="m0-102.048h510.242" fill="none" stroke="#000" stroke-dasharray=".3985 1.99255" stroke-miterlimit="10" stroke-width=".3985" transform="matrix(1 0 0 -1 .199 1.503)"/></g><g clip-path="url(#a0)"><path d="m0-116.224h510.242" fill="none" stroke="#000" stroke-dasharray=".3985 1.99255" stroke-miterlimit="10" stroke-width=".3985" transform="matrix(1 0 0 -1 .199 1.503)"/></g><g clip-path="url(#a1)"><path d="m0-130.395h510.242" fill="none" stroke="#000" stroke-dasharray=".3985 1.99255" stroke-miterlimit="10" stroke-width=".3985" transform="matrix(1 0 0 -1 .199 1.503)"/></g><g clip-path="url(#a2)"><path d="m0-144.567h510.242" fill="none" stroke="#000" stroke-dasharray=".3985 1.99255" stroke-miterlimit="10" stroke-width=".3985" transform="matrix(1 0 0 -1 .199 1.503)"/></g><g clip-path="url(#a3)"><path d="m0-158.743h510.242" fill="none" stroke="#000" stroke-dasharray=".3985 1.99255" stroke-miterlimit="10" stroke-width=".3985" transform="matrix(1 0 0 -1 .199 1.503)"/></g><g clip-path="url(#a4)"><path d="m0-172.915h510.242" fill="none" stroke="#000" stroke-dasharray=".3985 1.99255" stroke-miterlimit="10" stroke-width=".3985" transform="matrix(1 0 0 -1 .199 1.503)"/></g><g clip-path="url(#a5)"><path d="m0-187.09h510.242" fill="none" stroke="#000" stroke-dasharray=".3985 1.99255" stroke-miterlimit="10" stroke-width=".3985" transform="matrix(1 0 0 -1 .199 1.503)"/></g><g clip-path="url(#a6)"><path d="m0-201.263h510.242" fill="none" stroke="#000" stroke-dasharray=".3985 1.99255" stroke-miterlimit="10" stroke-width=".3985" transform="matrix(1 0 0 -1 .199 1.503)"/></g><path d="m0-15.59h42.52v15.59h-42.52zm0 0" fill="#fff" stroke="#000" stroke-miterlimit="10" stroke-width=".3985" transform="matrix(1 0 0 -1 .199 1.503)"/><g><use x="10.5" xlink:href="#a" y="11.689"/><use x="15.979" xlink:href="#b" y="11.689"/><use x="21.459" xlink:href="#c" y="11.689"/><use x="26.938" xlink:href="#d" y="11.689"/></g><path d="m42.52-15.59h170.082v15.59h-170.082zm0 0" fill="#fff" stroke="#000" stroke-miterlimit="10" stroke-width=".3985" transform="matrix(1 0 0 -1 .199 1.503)"/><g><use x="116.799" xlink:href="#a" y="11.689"/><use x="122.278" xlink:href="#b" y="11.689"/><use x="127.758" xlink:href="#a" y="11.689"/><use x="133.237" xlink:href="#b" y="11.689"/></g><path d="m212.602-15.59h170.082v15.59h-170.082zm0 0" fill="#fff" stroke="#000" stroke-miterlimit="10" stroke-width=".3985" transform="matrix(1 0 0 -1 .199 1.503)"/><g><use x="286.878" xlink:href="#a" y="11.689"/><use x="292.357" xlink:href="#b" y="11.689"/><use x="297.837" xlink:href="#a" y="11.689"/><use x="303.316" xlink:href="#c" y="11.689"/></g><g clip-path="url(#a7)"><path d="m382.684-15.59h127.558v15.59h-127.558zm0 0" fill="#fff" stroke="#000" stroke-miterlimit="10" stroke-width=".3985" transform="matrix(1 0 0 -1 .199 1.503)"/></g><g><use x="435.696" xlink:href="#a" y="11.689"/><use x="441.175" xlink:href="#b" y="11.689"/><use x="446.655" xlink:href="#a" y="11.689"/><use x="452.134" xlink:href="#a" y="11.689"/></g><path d="m0-31.18h42.52v15.59h-42.52zm0 0" fill="#fff" stroke="#000" stroke-miterlimit="10" stroke-width=".3985" transform="matrix(1 0 0 -1 .199 1.503)"/><g><use x="14.762" xlink:href="#e" y="27.28"/><use x="22.677" xlink:href="#f" y="27.28"/></g><path d="m42.52-31.18h42.52v15.59h-42.52zm0 0" fill="#fff" stroke="#000" stroke-miterlimit="10" stroke-width=".3985" transform="matrix(1 0 0 -1 .199 1.503)"/><g><use x="57.281" xlink:href="#e" y="27.28"/><use x="65.196" xlink:href="#c" y="27.28"/></g><path d="m85.04-31.18h42.519v15.59h-42.52zm0 0" fill="#fff" stroke="#000" stroke-miterlimit="10" stroke-width=".3985" transform="matrix(1 0 0 -1 .199 1.503)"/><g><use x="99.801" xlink:href="#e" y="27.28"/><use x="107.716" xlink:href="#a" y="27.28"/></g><path d="m127.563-31.18h42.52v15.59h-42.52zm0 0" fill="#fff" stroke="#000" stroke-miterlimit="10" stroke-width=".3985" transform="matrix(1 0 0 -1 .199 1.503)"/><g><use x="142.321" xlink:href="#e" y="27.28"/><use x="150.236" xlink:href="#g" y="27.28"/></g><path d="m170.082-31.18h42.52v15.59h-42.52zm0 0" fill="#fff" stroke="#000" stroke-miterlimit="10" stroke-width=".3985" transform="matrix(1 0 0 -1 .199 1.503)"/><g><use x="184.84" xlink:href="#e" y="27.28"/><use x="192.755" xlink:href="#f" y="27.28"/></g><path d="m212.602-31.18h42.52v15.59h-42.52zm0 0" fill="#fff" stroke="#000" stroke-miterlimit="10" stroke-width=".3985" transform="matrix(1 0 0 -1 .199 1.503)"/><g><use x="227.36" xlink:href="#e" y="27.28"/><use x="235.275" xlink:href="#c" y="27.28"/></g><path d="m255.121-31.18h42.52v15.59h-42.52zm0 0" fill="#fff" stroke="#000" stroke-miterlimit="10" stroke-width=".3985" transform="matrix(1 0 0 -1 .199 1.503)"/><g><use x="269.88" xlink:href="#e" y="27.28"/><use x="277.795" xlink:href="#a" y="27.28"/></g><path d="m297.64-31.18h42.52v15.59h-42.52zm0 0" fill="#fff" stroke="#000" stroke-miterlimit="10" stroke-width=".3985" transform="matrix(1 0 0 -1 .199 1.503)"/><g><use x="312.399" xlink:href="#e" y="27.28"/><use x="320.314" xlink:href="#g" y="27.28"/></g><path d="m340.16-31.18h42.524v15.59h-42.524zm0 0" fill="#fff" stroke="#000" stroke-miterlimit="10" stroke-width=".3985" transform="matrix(1 0 0 -1 .199 1.503)"/><g><use x="354.919" xlink:href="#e" y="27.28"/><use x="362.834" xlink:href="#f" y="27.28"/></g><path d="m382.684-31.18h42.52v15.59h-42.52zm0 0" fill="#fff" stroke="#000" stroke-miterlimit="10" stroke-width=".3985" transform="matrix(1 0 0 -1 .199 1.503)"/><g><use x="397.439" xlink:href="#e" y="27.28"/><use x="405.354" xlink:href="#c" y="27.28"/></g><path d="m425.203-31.18h42.52v15.59h-42.52zm0 0" fill="#fff" stroke="#000" stroke-miterlimit="10" stroke-width=".3985" transform="matrix(1 0 0 -1 .199 1.503)"/><g><use x="439.958" xlink:href="#e" y="27.28"/><use x="447.873" xlink:href="#a" y="27.28"/></g><g clip-path="url(#a8)"><path d="m467.922 32.684h42.52v-15.59h-42.52zm0 0" fill="#fff"/></g><g clip-path="url(#a9)"><path d="m467.723-31.18h42.52v15.59h-42.52zm0 0" fill="none" stroke="#000" stroke-miterlimit="10" stroke-width=".3985" transform="matrix(1 0 0 -1 .199 1.503)"/></g><g><use x="482.478" xlink:href="#e" y="27.28"/><use x="490.393" xlink:href="#g" y="27.28"/></g><path d="m-1.219 34.102h328.824v11.34l-2.835 1.417-2.836-1.418h-317.485l-2.832 1.419-2.836-1.418zm0 0" fill="#ff9f40"/><g fill="#fff"><use x="126.657" xlink:href="#h" y="43.295"/><use x="133.963" xlink:href="#i" y="43.295"/><use x="139.553" xlink:href="#j" y="43.295"/><use x="144.644" xlink:href="#k" y="43.295"/><use x="148.353" xlink:href="#l" y="43.295"/><use x="156.987" xlink:href="#m" y="43.295"/></g><g fill="#fff"><use x="162.775" xlink:href="#j" y="43.295"/><use x="167.867" xlink:href="#n" y="43.295"/><use x="170.414" xlink:href="#j" y="43.295"/><use x="175.506" xlink:href="#o" y="43.295"/><use x="180.376" xlink:href="#p" y="43.295"/><use x="184.403" xlink:href="#k" y="43.295"/><use x="188.111" xlink:href="#q" y="43.295"/><use x="190.658" xlink:href="#o" y="43.295"/><use x="195.528" xlink:href="#r" y="43.295"/></g><path d="m.2 58.906h255.12v-9.922h-255.12zm0 0" fill="#009"/><use fill="#fff" x="98.636" xlink:href="#w" y="56.186"/><use fill="#fff" x="103.208" xlink:href="#x" y="56.186"/><use fill="#fff" x="107.456" xlink:href="#y" y="56.186"/><use fill="#fff" x="110.595" xlink:href="#x" y="56.186"/><use fill="#fff" x="117.856" xlink:href="#x" y="56.186"/><use fill="#fff" x="122.096" xlink:href="#z" y="56.186"/><use fill="#fff" x="126.003" xlink:href="#A" y="56.186"/><use fill="#fff" x="130.584" xlink:href="#B" y="56.186"/><use fill="#fff" x="135.156" xlink:href="#C" y="56.186"/><use fill="#fff" x="137.177" xlink:href="#D" y="56.186"/><use fill="#fff" x="140.522" xlink:href="#C" y="56.186"/><use fill="#fff" x="142.534" xlink:href="#y" y="56.186"/><use fill="#fff" x="145.682" xlink:href="#C" y="56.186"/><use fill="#fff" x="147.694" xlink:href="#E" y="56.186"/><use fill="#fff" x="152.122" xlink:href="#F" y="56.186"/><path d="m.2 73.078h85.038v-9.922h-85.038zm0 0" fill="#009"/><use fill="#fff" x="33.311" xlink:href="#G" y="71.231"/><use fill="#fff" x="39.274" xlink:href="#H" y="71.231"/><use fill="#fff" x="45.611" xlink:href="#H" y="71.231"/><path d="m56.895 87.254h56.69v-9.922h-56.69zm0 0" fill="#009"/><use fill="#fff" x="76.418" xlink:href="#I" y="85.404"/><use fill="#fff" x="82.373" xlink:href="#J" y="85.404"/><use fill="#fff" x="88.089" xlink:href="#K" y="85.404"/><path d="m99.414 101.426h99.211v-9.922h-99.21zm0 0" fill="#009"/><use fill="#fff" x="138.973" xlink:href="#L" y="99.577"/><use fill="#fff" x="145.31" xlink:href="#M" y="99.577"/><use fill="#fff" x="153.175" xlink:href="#N" y="99.577"/><path d="m156.105 115.598h99.215v-9.922h-99.215zm0 0" fill="#009"/><use fill="#fff" x="196.797" xlink:href="#O" y="113.75"/><use fill="#fff" x="203.022" xlink:href="#P" y="113.75"/><use fill="#fff" x="207.963" xlink:href="#Q" y="113.75"/><path d="m226.973 129.773h99.214v-9.921h-99.214zm0 0" fill="#009"/><use fill="#fff" x="257.981" xlink:href="#x" y="127.923"/><use fill="#fff" x="262.22" xlink:href="#z" y="127.923"/><use fill="#fff" x="266.137" xlink:href="#y" y="127.923"/><use fill="#fff" x="269.276" xlink:href="#C" y="127.923"/><use fill="#fff" x="271.297" xlink:href="#R" y="127.923"/><use fill="#fff" x="275.357" xlink:href="#S" y="127.923"/><use fill="#fff" x="282.277" xlink:href="#M" y="127.923"/><use fill="#fff" x="290.151" xlink:href="#T" y="127.923"/><g clip-path="url(#ba)"><path d="m282.25 133.316h229.61v11.34l-2.837 1.414-2.836-1.414h-218.269l-2.832 1.414-2.836-1.414zm0 0" fill="#ff9f40"/></g><g fill="#fff"><use x="373.155" xlink:href="#s" y="142.507"/><use x="379.243" xlink:href="#m" y="142.507"/><use x="384.723" xlink:href="#n" y="142.507"/><use x="387.269" xlink:href="#t" y="142.507"/></g><use fill="#fff" x="392.191" xlink:href="#k" y="142.507"/><g fill="#fff"><use x="399.555" xlink:href="#u" y="142.507"/><use x="406.557" xlink:href="#j" y="142.507"/><use x="411.648" xlink:href="#n" y="142.507"/><use x="414.195" xlink:href="#n" y="142.507"/><use x="416.741" xlink:href="#r" y="142.507"/></g><path d="m283.668 158.117h198.426v-9.917h-198.426zm0 0" fill="#009"/><g fill="#fff"><use x="302.169" xlink:href="#w" y="155.398"/><use x="306.741" xlink:href="#x" y="155.398"/><use x="310.989" xlink:href="#y" y="155.398"/><use x="314.128" xlink:href="#x" y="155.398"/><use x="321.389" xlink:href="#x" y="155.398"/><use x="325.629" xlink:href="#z" y="155.398"/><use x="329.536" xlink:href="#A" y="155.398"/><use x="334.117" xlink:href="#U" y="155.398"/><use x="340.524" xlink:href="#V" y="155.398"/><use x="350.516" xlink:href="#y" y="155.398"/><use x="353.664" xlink:href="#S" y="155.398"/><use x="357.571" xlink:href="#D" y="155.398"/><use x="360.925" xlink:href="#y" y="155.398"/><use x="367.077" xlink:href="#w" y="155.398"/><use x="371.649" xlink:href="#C" y="155.398"/><use x="373.67" xlink:href="#W" y="155.398"/><use x="376.297" xlink:href="#W" y="155.398"/><use x="378.933" xlink:href="#S" y="155.398"/><use x="382.841" xlink:href="#X" y="155.398"/><use x="385.809" xlink:href="#S" y="155.398"/><use x="389.717" xlink:href="#F" y="155.398"/><use x="394.289" xlink:href="#y" y="155.398"/><use x="400.45" xlink:href="#E" y="155.398"/><use x="404.869" xlink:href="#Y" y="155.398"/><use x="409.441" xlink:href="#y" y="155.398"/><use x="412.589" xlink:href="#C" y="155.398"/><use x="414.601" xlink:href="#Z" y="155.398"/><use x="421.741" xlink:href="#C" y="155.398"/><use x="423.753" xlink:href="#aa" y="155.398"/><use x="427.58" xlink:href="#x" y="155.398"/><use x="431.82" xlink:href="#y" y="155.398"/><use x="434.968" xlink:href="#C" y="155.398"/><use x="436.98" xlink:href="#E" y="155.398"/><use x="441.399" xlink:href="#F" y="155.398"/><use x="448.993" xlink:href="#z" y="155.398"/><use x="452.9" xlink:href="#X" y="155.398"/><use x="455.86" xlink:href="#C" y="155.398"/><use x="457.881" xlink:href="#y" y="155.398"/><use x="461.02" xlink:href="#U" y="155.398"/></g><g clip-path="url(#bb)"><path d="m312.016 172.293h198.424v-9.922h-198.424zm0 0" fill="#009"/></g><use fill="#fff" x="343.573" xlink:href="#x" y="169.571"/><use fill="#fff" x="347.812" xlink:href="#Y" y="169.571"/><use fill="#fff" x="352.393" xlink:href="#Y" y="169.571"/><use fill="#fff" x="356.965" xlink:href="#ab" y="169.571"/><use fill="#fff" x="358.986" xlink:href="#ac" y="169.571"/><use fill="#fff" x="366.059" xlink:href="#M" y="169.571"/><use fill="#fff" x="373.923" xlink:href="#T" y="169.571"/><use fill="#fff" x="381.771" xlink:href="#Y" y="169.571"/><use fill="#fff" x="386.352" xlink:href="#C" y="169.571"/><use fill="#fff" x="388.364" xlink:href="#Y" y="169.571"/><use fill="#fff" x="393.196" xlink:href="#S" y="169.571"/><use fill="#fff" x="397.112" xlink:href="#ab" y="169.571"/><use fill="#fff" x="399.124" xlink:href="#C" y="169.571"/><use fill="#fff" x="401.136" xlink:href="#F" y="169.571"/><use fill="#fff" x="405.717" xlink:href="#S" y="169.571"/><use fill="#fff" x="412.638" xlink:href="#w" y="169.571"/><use fill="#fff" x="417.21" xlink:href="#S" y="169.571"/><use fill="#fff" x="421.126" xlink:href="#R" y="169.571"/><use fill="#fff" x="425.186" xlink:href="#S" y="169.571"/><use fill="#fff" x="429.103" xlink:href="#ab" y="169.571"/><use fill="#fff" x="431.115" xlink:href="#E" y="169.571"/><use fill="#fff" x="435.543" xlink:href="#Y" y="169.571"/><use fill="#fff" x="440.375" xlink:href="#S" y="169.571"/><use fill="#fff" x="444.283" xlink:href="#w" y="169.571"/><use fill="#fff" x="451.867" xlink:href="#E" y="169.571"/><use fill="#fff" x="456.296" xlink:href="#F" y="169.571"/><use fill="#fff" x="463.881" xlink:href="#ad" y="169.571"/><use fill="#fff" x="469.988" xlink:href="#ae" y="169.571"/><use fill="#fff" x="475.335" xlink:href="#D" y="169.571"/><g clip-path="url(#bc)"><path d="m324.77 175.836h187.09v11.34l-2.837 1.418-2.836-1.418h-175.75l-2.832 1.418-2.835-1.418zm0 0" fill="#ff9f40"/></g><g fill="#fff"><use x="397.694" xlink:href="#v" y="185.027"/><use x="405" xlink:href="#t" y="185.027"/><use x="410.23" xlink:href="#p" y="185.027"/><use x="414.257" xlink:href="#p" y="185.027"/><use x="418.284" xlink:href="#j" y="185.027"/><use x="423.376" xlink:href="#k" y="185.027"/><use x="427.084" xlink:href="#q" y="185.027"/><use x="429.63" xlink:href="#j" y="185.027"/><use x="434.722" xlink:href="#r" y="185.027"/></g><g clip-path="url(#bd)"><path d="m326.188 200.64h184.252v-9.921h-184.252zm0 0" fill="#009"/></g><use fill="#fff" x="337.602" xlink:href="#w" y="197.918"/><use fill="#fff" x="342.174" xlink:href="#x" y="197.918"/><use fill="#fff" x="346.422" xlink:href="#y" y="197.918"/><use fill="#fff" x="349.561" xlink:href="#x" y="197.918"/><use fill="#fff" x="356.822" xlink:href="#x" y="197.918"/><use fill="#fff" x="361.062" xlink:href="#z" y="197.918"/><use fill="#fff" x="364.969" xlink:href="#A" y="197.918"/><use fill="#fff" x="369.55" xlink:href="#U" y="197.918"/><use fill="#fff" x="375.957" xlink:href="#V" y="197.918"/><use fill="#fff" x="385.949" xlink:href="#y" y="197.918"/><use fill="#fff" x="389.097" xlink:href="#S" y="197.918"/><use fill="#fff" x="393.004" xlink:href="#D" y="197.918"/><use fill="#fff" x="396.358" xlink:href="#y" y="197.918"/><use fill="#fff" x="402.51" xlink:href="#w" y="197.918"/><use fill="#fff" x="407.082" xlink:href="#C" y="197.918"/><use fill="#fff" x="409.103" xlink:href="#W" y="197.918"/><use fill="#fff" x="411.73" xlink:href="#W" y="197.918"/><use fill="#fff" x="414.366" xlink:href="#S" y="197.918"/><use fill="#fff" x="418.274" xlink:href="#X" y="197.918"/><use fill="#fff" x="421.242" xlink:href="#S" y="197.918"/><use fill="#fff" x="425.15" xlink:href="#F" y="197.918"/><use fill="#fff" x="429.722" xlink:href="#y" y="197.918"/><use fill="#fff" x="435.883" xlink:href="#E" y="197.918"/><use fill="#fff" x="440.302" xlink:href="#Y" y="197.918"/><use fill="#fff" x="444.874" xlink:href="#y" y="197.918"/><use fill="#fff" x="448.022" xlink:href="#C" y="197.918"/><use fill="#fff" x="450.034" xlink:href="#Z" y="197.918"/><use fill="#fff" x="457.174" xlink:href="#C" y="197.918"/><use fill="#fff" x="459.186" xlink:href="#aa" y="197.918"/><use fill="#fff" x="463.013" xlink:href="#x" y="197.918"/><use fill="#fff" x="467.253" xlink:href="#y" y="197.918"/><use fill="#fff" x="470.401" xlink:href="#C" y="197.918"/><use fill="#fff" x="472.413" xlink:href="#E" y="197.918"/><use fill="#fff" x="476.832" xlink:href="#F" y="197.918"/><use fill="#fff" x="484.426" xlink:href="#z" y="197.918"/><use fill="#fff" x="488.333" xlink:href="#X" y="197.918"/><use fill="#fff" x="491.293" xlink:href="#C" y="197.918"/><use fill="#fff" x="493.314" xlink:href="#y" y="197.918"/><use fill="#fff" x="496.453" xlink:href="#U" y="197.918"/><g clip-path="url(#be)"><path d="m354.535 214.813h155.906v-9.922h-155.906zm0 0" fill="#009"/></g><use fill="#fff" x="364.833" xlink:href="#x" y="212.091"/><use fill="#fff" x="369.072" xlink:href="#Y" y="212.091"/><use fill="#fff" x="373.653" xlink:href="#Y" y="212.091"/><use fill="#fff" x="378.225" xlink:href="#ab" y="212.091"/><use fill="#fff" x="380.246" xlink:href="#ac" y="212.091"/><use fill="#fff" x="387.319" xlink:href="#M" y="212.091"/><use fill="#fff" x="395.183" xlink:href="#T" y="212.091"/><use fill="#fff" x="403.031" xlink:href="#Y" y="212.091"/><use fill="#fff" x="407.612" xlink:href="#C" y="212.091"/><use fill="#fff" x="409.624" xlink:href="#Y" y="212.091"/><use fill="#fff" x="414.456" xlink:href="#S" y="212.091"/><use fill="#fff" x="418.372" xlink:href="#ab" y="212.091"/><use fill="#fff" x="420.384" xlink:href="#C" y="212.091"/><use fill="#fff" x="422.396" xlink:href="#F" y="212.091"/><use fill="#fff" x="426.977" xlink:href="#S" y="212.091"/><use fill="#fff" x="433.898" xlink:href="#w" y="212.091"/><use fill="#fff" x="438.47" xlink:href="#S" y="212.091"/><use fill="#fff" x="442.386" xlink:href="#R" y="212.091"/><use fill="#fff" x="446.446" xlink:href="#S" y="212.091"/><use fill="#fff" x="450.363" xlink:href="#ab" y="212.091"/><use fill="#fff" x="452.375" xlink:href="#E" y="212.091"/><use fill="#fff" x="456.803" xlink:href="#Y" y="212.091"/><use fill="#fff" x="461.626" xlink:href="#S" y="212.091"/><use fill="#fff" x="465.543" xlink:href="#w" y="212.091"/><use fill="#fff" x="473.127" xlink:href="#E" y="212.091"/><use fill="#fff" x="477.547" xlink:href="#F" y="212.091"/><use fill="#fff" x="485.141" xlink:href="#ad" y="212.091"/><use fill="#fff" x="491.248" xlink:href="#ae" y="212.091"/><use fill="#fff" x="496.595" xlink:href="#D" y="212.091"/><path d="m10.16 206.996h137.852v-47.488h-137.852zm0 0" fill="#4c4c4c"/><g fill="#fff"><use x="13.482" xlink:href="#G" y="169.052"/><use x="19.633" xlink:href="#H" y="169.052"/><use x="26.15" xlink:href="#H" y="169.052"/><use x="32.667" xlink:href="#af" y="169.052"/></g><g fill="#fff"><use x="38.302" xlink:href="#G" y="169.052"/><use x="44.453" xlink:href="#x" y="169.052"/></g><use fill="#fff" x="48.62" xlink:href="#ac" y="169.052"/><g fill="#fff"><use x="52.609" xlink:href="#S" y="169.052"/><use x="56.705" xlink:href="#D" y="169.052"/><use x="60.237" xlink:href="#C" y="169.052"/><use x="62.438" xlink:href="#x" y="169.052"/><use x="66.865" xlink:href="#F" y="169.052"/></g><g fill="#fff"><use x="74.701" xlink:href="#F" y="169.052"/><use x="79.461" xlink:href="#S" y="169.052"/><use x="83.557" xlink:href="#B" y="169.052"/><use x="88.317" xlink:href="#X" y="169.052"/><use x="91.465" xlink:href="#x" y="169.052"/><use x="95.893" xlink:href="#ab" y="169.052"/></g><g fill="#fff"><use x="101.16" xlink:href="#F" y="169.052"/><use x="105.92" xlink:href="#S" y="169.052"/><use x="110.016" xlink:href="#y" y="169.052"/></g><use fill="#fff" x="113.092" xlink:href="#ag" y="169.052"/><use fill="#fff" x="119.129" xlink:href="#E" y="169.052"/><g fill="#fff"><use x="123.485" xlink:href="#X" y="169.052"/><use x="126.633" xlink:href="#ah" y="169.052"/></g><g fill="#fff"><use x="13.482" xlink:href="#I" y="180.011"/><use x="19.626" xlink:href="#J" y="180.011"/><use x="25.52" xlink:href="#K" y="180.011"/><use x="31.491" xlink:href="#af" y="180.011"/></g><g fill="#fff"><use x="37.126" xlink:href="#I" y="180.011"/><use x="43.27" xlink:href="#x" y="180.011"/><use x="47.698" xlink:href="#B" y="180.011"/><use x="52.458" xlink:href="#D" y="180.011"/><use x="55.991" xlink:href="#D" y="180.011"/></g><g fill="#fff"><use x="59.515" xlink:href="#C" y="180.011"/><use x="61.715" xlink:href="#x" y="180.011"/><use x="66.143" xlink:href="#F" y="180.011"/></g><use fill="#fff" x="73.978" xlink:href="#Y" y="180.011"/><g fill="#fff"><use x="78.479" xlink:href="#X" y="180.011"/><use x="81.627" xlink:href="#E" y="180.011"/></g><g fill="#fff"><use x="86.494" xlink:href="#z" y="180.011"/><use x="90.59" xlink:href="#S" y="180.011"/><use x="94.686" xlink:href="#D" y="180.011"/><use x="98.219" xlink:href="#D" y="180.011"/></g><g fill="#fff"><use x="104.818" xlink:href="#X" y="180.011"/><use x="107.966" xlink:href="#S" y="180.011"/><use x="112.062" xlink:href="#ai" y="180.011"/><use x="116.67" xlink:href="#X" y="180.011"/><use x="119.818" xlink:href="#S" y="180.011"/><use x="123.914" xlink:href="#D" y="180.011"/><use x="127.447" xlink:href="#D" y="180.011"/><use x="130.979" xlink:href="#C" y="180.011"/><use x="133.18" xlink:href="#E" y="180.011"/><use x="137.788" xlink:href="#F" y="180.011"/></g><g fill="#fff"><use x="13.482" xlink:href="#L" y="190.97"/><use x="19.999" xlink:href="#M" y="190.97"/><use x="28.052" xlink:href="#N" y="190.97"/><use x="33.939" xlink:href="#af" y="190.97"/></g><g fill="#fff"><use x="39.574" xlink:href="#L" y="190.97"/><use x="46.091" xlink:href="#x" y="190.97"/><use x="50.519" xlink:href="#Z" y="190.97"/><use x="57.838" xlink:href="#C" y="190.97"/><use x="60.038" xlink:href="#ab" y="190.97"/><use x="62.239" xlink:href="#y" y="190.97"/><use x="65.566" xlink:href="#E" y="190.97"/><use x="70.174" xlink:href="#F" y="190.97"/><use x="74.934" xlink:href="#C" y="190.97"/><use x="77.134" xlink:href="#x" y="190.97"/><use x="81.562" xlink:href="#F" y="190.97"/></g><g fill="#fff"><use x="89.389" xlink:href="#M" y="190.97"/><use x="97.442" xlink:href="#E" y="190.97"/><use x="102.049" xlink:href="#F" y="190.97"/><use x="106.81" xlink:href="#y" y="190.97"/><use x="110.137" xlink:href="#S" y="190.97"/></g><g fill="#fff"><use x="117.308" xlink:href="#N" y="190.97"/><use x="123.196" xlink:href="#x" y="190.97"/></g><g fill="#fff"><use x="127.363" xlink:href="#X" y="190.97"/><use x="130.511" xlink:href="#ab" y="190.97"/><use x="132.712" xlink:href="#E" y="190.97"/></g><g fill="#fff"><use x="13.482" xlink:href="#O" y="201.929"/><use x="19.896" xlink:href="#P" y="201.929"/><use x="25.015" xlink:href="#Q" y="201.929"/><use x="31.678" xlink:href="#af" y="201.929"/></g><use fill="#fff" x="37.313" xlink:href="#ah" y="201.929"/><g fill="#fff"><use x="41.557" xlink:href="#S" y="201.929"/><use x="45.653" xlink:href="#X" y="201.929"/><use x="48.801" xlink:href="#F" y="201.929"/><use x="53.561" xlink:href="#S" y="201.929"/><use x="57.657" xlink:href="#ab" y="201.929"/><use x="59.857" xlink:href="#C" y="201.929"/><use x="62.057" xlink:href="#aa" y="201.929"/><use x="66.064" xlink:href="#S" y="201.929"/><use x="70.16" xlink:href="#w" y="201.929"/></g><g fill="#fff"><use x="77.986" xlink:href="#P" y="201.929"/><use x="83.106" xlink:href="#y" y="201.929"/><use x="86.434" xlink:href="#S" y="201.929"/><use x="90.529" xlink:href="#C" y="201.929"/><use x="92.73" xlink:href="#F" y="201.929"/></g><g fill="#fff"><use x="100.565" xlink:href="#w" y="201.929"/><use x="105.326" xlink:href="#C" y="201.929"/><use x="107.526" xlink:href="#D" y="201.929"/><use x="111.059" xlink:href="#z" y="201.929"/><use x="115.155" xlink:href="#X" y="201.929"/><use x="118.303" xlink:href="#S" y="201.929"/><use x="122.399" xlink:href="#Y" y="201.929"/><use x="127.159" xlink:href="#x" y="201.929"/><use x="131.587" xlink:href="#F" y="201.929"/><use x="136.347" xlink:href="#z" y="201.929"/><use x="140.443" xlink:href="#ac" y="201.929"/></g></svg>