<svg xmlns="http://www.w3.org/2000/svg" xmlns:xlink="http://www.w3.org/1999/xlink" width="680.845" height="289.54" viewBox="0 0 510.634 217.155"><defs><symbol overflow="visible" id="Y"><path d="M.64-.844c-.093.094-.093.11-.093.281v.079c0 .359.11.484.484.484h3.422c.375 0 .469-.125.469-.484v-.11c0-.156 0-.36-.203-.437-.078-.047-.39-.047-.594-.047-.219 0-.453.016-.672.016H1.828l1.328-1.25c.14-.126.516-.438.672-.579.547-.53 1.094-1.062 1.094-1.953 0-1.218-.875-2.297-2.344-2.297-.344 0-.906.047-1.39.438-.094.078-.547.437-.735 1.094l.5.64c.063.078.094.125.156.125.094 0 .11-.078.141-.187.203-.688.547-1.11 1.188-1.11.765 0 1.093.704 1.093 1.313 0 .64-.375 1.312-.984 1.953zm0 0"/></symbol><symbol overflow="visible" id="Z"><path d="M5.047-3.422c0-1.36 0-3.719-2.313-3.719C.422-7.14.422-4.812.422-3.42c0 1.374 0 3.64 2.312 3.64 2.313 0 2.313-2.25 2.313-3.64zM2.734-.5C2-.5 1.891-1.422 1.86-1.688c-.078-.53-.078-1.468-.078-1.875 0-.578 0-1.218.063-1.718.031-.266.125-1.14.89-1.14.735 0 .86.843.891 1.03.063.516.063 1.297.063 1.829 0 .578 0 1.343-.063 1.89-.031.266-.14 1.172-.89 1.172zm0 0"/></symbol><symbol overflow="visible" id="aa"><path d="M3.531-6.656c0-.188 0-.485-.437-.485-.188 0-.235.016-.36.141-.171.156-.546.531-1.53.547-.188 0-.454.078-.454.36 0 .359.36.359.484.359.297 0 .657-.047.938-.125v5.14H1.39c-.125 0-.47 0-.47.36 0 .359.345.359.47.359h2.843c.11 0 .485 0 .485-.36 0-.359-.375-.359-.485-.359h-.703zm0 0"/></symbol><symbol overflow="visible" id="ab"><path d="M3.625-3.047c-.016.094 0 .281-.031.719-.063.61-.235 1.61-1.328 1.61-.313 0-.594-.079-.875-.329-.047-.062-.079-.078-.125-.078-.079 0-.094.047-.157.125-.187.328-.328.547-.328.61 0 .078.531.609 1.5.609 2.735 0 2.735-2.875 2.735-3.766C5.016-4.609 5-7.14 2.734-7.14c-.609 0-1.265.11-1.78.75-.423.547-.5 1.047-.5 1.813 0 .625.03 1.203.452 1.766.406.515.86.671 1.5.671.735 0 1.078-.593 1.219-.906zm-.969.188c-.797 0-.797-.72-.797-1.704 0-.968 0-1.687.907-1.687.687 0 .843.766.843 1.813 0 .14 0 1.578-.953 1.578zm0 0"/></symbol><symbol overflow="visible" id="ad"><path d="M6.406 1.063c.125 0 .36 0 .36-.22 0-.093-.032-.109-.157-.28l-.64-.844c1.265-.766 1.328-2.406 1.328-3.125 0-2-.734-3.735-3.344-3.735C1.203-7.14.61-5.234.61-3.406c0 1.86.641 3.625 3.344 3.625.156 0 .39 0 .719-.047.11.172.234.36.36.531.218.328.25.36.577.36zm-2.593-3c-.141 0-.36 0-.36.234 0 .11.313.562.5.812.031.047.188.282.188.313 0 .015-.157.015-.188.015-1.906 0-1.906-1.968-1.906-2.859 0-.875 0-2.937 1.906-2.937S5.86-4.313 5.86-3.422c0 .625 0 1.672-.562 2.313l-.547-.72c-.094-.109-.14-.109-.328-.109zm0 0"/></symbol><symbol overflow="visible" id="ae"><path d="M.39-2.61c-.078.141-.078.172-.078.36V-2c0 .313.063.469.47.469h2.25v1.047c0 .328.062.484.484.484h.265c.39 0 .485-.125.485-.484v-1.047h.421c.313 0 .47-.063.47-.469 0-.36-.126-.469-.47-.469h-.421v-3.969c0-.359-.11-.484-.485-.484h-.719c-.187 0-.343 0-.453.234zm.954.141C2.937-5.39 3.03-5.703 3.078-5.875h.016v3.406zm0 0"/></symbol><symbol overflow="visible" id="af"><path d="M.953-5.531c.078.125.14.125.156.125.063 0 .094-.047.141-.11.5-.734 1.219-.734 1.344-.734.64 0 .719.328.719.813 0 .14 0 .625-.297 1-.25.28-.5.296-.797.328-.11 0-.297.015-.328.03-.063.032-.063.095-.063.25v.173c0 .265 0 .281.266.281h.437c.906 0 1.016.563 1.016 1.328 0 .672-.063 1.328-.969 1.328a2.483 2.483 0 0 1-1.734-.703C.75-1.5.75-1.516.704-1.516c-.095 0-.11.094-.126.11 0 .015-.125.64-.125.687 0 .125.86.938 2.172.938 1.719 0 2.39-.922 2.39-2.25 0-.89-.484-1.5-1.374-1.735.812-.437 1.078-1.078 1.078-1.64 0-1.61-1.422-1.735-2.078-1.735-1.36 0-2.032.985-2.032 1.063 0 .062.063.14.063.14zm0 0"/></symbol><symbol overflow="visible" id="ai"><path d="M2.922-5.86v5.376c0 .359.11.484.484.484h.5c.375 0 .485-.125.485-.484V-5.86c.437 0 1.546.03 1.984.03.281 0 .516 0 .516-.468v-.078c0-.328-.063-.484-.47-.484H.876c-.36 0-.469.109-.469.484v.078c0 .469.235.469.516.469zm0 0"/></symbol><symbol overflow="visible" id="aj"><path d="M4.984-3.234c0-1.032-.437-1.438-1.453-1.438-1 0-1.453.688-1.594.969h-.015v-2.735c0-.328-.063-.484-.469-.484h-.375c-.36 0-.484.11-.484.484v5.954c0 .359.11.484.484.484h.39c.391 0 .485-.125.485-.484v-2.204c0-.859.578-1.265 1.094-1.265.484 0 .578.219.578.734v2.735c0 .328.078.484.484.484H4.5c.39 0 .484-.125.484-.484zm0 0"/></symbol><symbol overflow="visible" id="ak"><path d="M4.297-2.14c.234 0 .484 0 .484-.454 0-1.281-.61-2.14-2.093-2.14-1.594 0-2.376.89-2.376 2.406 0 1.64.938 2.437 2.516 2.437.375 0 .938-.046 1.594-.375.219-.109.297-.14.297-.265 0-.063-.032-.36-.047-.438-.031-.312-.047-.312-.14-.312-.032 0-.063 0-.173.093a2.197 2.197 0 0 1-1.5.579c-1.125 0-1.25-.891-1.28-1.532zm-2.703-.516c.031-.61.234-1.36 1.093-1.36.797 0 .954.579.985 1.36zm0 0"/></symbol><symbol overflow="visible" id="al"><path d="M1.938-2.297c0-.937.78-1.328 1.406-1.375.187 0 .203 0 .203-.265v-.47c0-.202 0-.265-.172-.265-.281 0-1.016.094-1.484 1.172v-.64c0-.329-.079-.485-.485-.485h-.312c-.36 0-.485.11-.485.484v3.657c0 .359.11.484.485.484h.36c.374 0 .484-.125.484-.484zm0 0"/></symbol><symbol overflow="visible" id="am"><path d="M8.031-3.234c0-1.032-.437-1.438-1.453-1.438-.703 0-1.25.328-1.61.984-.155-.953-1.015-.984-1.437-.984-.187 0-.594 0-1.047.328a2.002 2.002 0 0 0-.578.688h-.015v-.485c0-.328-.063-.484-.47-.484h-.343c-.36 0-.484.11-.484.484v3.657c0 .359.11.484.484.484h.39c.391 0 .485-.125.485-.484v-2.204c0-.89.61-1.265 1.094-1.265.484 0 .594.203.594.734v2.735c0 .359.109.484.468.484h.407C4.89 0 5-.125 5-.484v-2.204c0-.89.61-1.265 1.094-1.265.468 0 .578.203.578.734v2.735c0 .359.11.484.484.484h.407c.375 0 .468-.125.468-.484zm0 0"/></symbol><symbol overflow="visible" id="an"><path d="M5.156-2.25c0-1.625-.797-2.484-2.422-2.484-1.656 0-2.421.89-2.421 2.484 0 1.625.859 2.36 2.421 2.36 1.563 0 2.422-.72 2.422-2.36zM2.734-.672c-1.062 0-1.062-.89-1.062-1.687 0-.766 0-1.657 1.062-1.657 1.079 0 1.079.875 1.079 1.657 0 .78 0 1.687-1.079 1.687zm0 0"/></symbol><symbol overflow="visible" id="ao"><path d="M1.938-6.438c0-.328-.079-.484-.485-.484h-.36c-.359 0-.484.11-.484.484v5.954c0 .359.11.484.485.484h.36c.374 0 .484-.125.484-.484zm0 0"/></symbol><symbol overflow="visible" id="ap"><path d="M4.563-.5c0-.11-.047-.563-.063-.703 0-.016-.031-.125-.125-.125-.031 0-.063 0-.156.11-.172.14-.64.546-1.453.546-1.047 0-1.047-1-1.047-1.64 0-.813.062-1.641 1.078-1.641.64 0 .906.156 1.265.453.125.11.141.11.188.11.094 0 .11-.094.125-.126.016-.078.125-.64.125-.687 0-.094-.078-.14-.25-.219-.469-.219-.766-.312-1.469-.312-1.484 0-2.406.703-2.406 2.437C.375-.64 1.219.11 2.735.11c.265 0 .859-.015 1.53-.343.282-.157.298-.172.298-.266zm0 0"/></symbol><symbol overflow="visible" id="aq"><path d="M2.172-3.844h.89c.126 0 .47 0 .47-.36 0-.359-.345-.359-.47-.359h-.89v-.828c0-.328-.063-.484-.485-.484h-.296c-.36 0-.485.11-.485.484v.829H.672c-.11 0-.469 0-.469.359 0 .36.36.36.469.36h.203v2.515c0 1.016.36 1.437 1.047 1.437.094 0 .531 0 1.047-.156.172-.047.75-.234.75-.422 0-.031-.016-.094-.078-.312-.047-.203-.079-.25-.157-.25-.062 0-.062 0-.125.062-.109.078-.375.297-.796.297-.235 0-.391-.172-.391-.828zm0 0"/></symbol><symbol overflow="visible" id="ar"><path d="M1.016-6.922c-.313 0-.485.047-.485.453v.453c0 .329.11.454.469.454h.531C2-5.563 2-5.766 2-6.234c0-.485 0-.688-.469-.688zm.921 2.828c0-.312-.078-.468-.484-.468h-.36c-.359 0-.484.109-.484.468v3.61c0 .359.11.484.485.484h.36c.374 0 .484-.125.484-.484zm0 0"/></symbol><symbol overflow="visible" id="as"><path d="M3.953-1.406c0-.563-.297-.907-.484-1.063-.39-.36-.75-.422-1.172-.5-.547-.11-.938-.187-.938-.562 0-.422.329-.5.72-.5.655 0 1.015.25 1.28.468.094.11.125.11.157.11.109 0 .125-.094.14-.14.016-.079.11-.641.11-.688 0-.157-.532-.297-.641-.328a3.484 3.484 0 0 0-.969-.125c-.453 0-1.781 0-1.781 1.421 0 .485.219.797.484 1.032.344.312.735.39 1.297.5.297.047.797.14.797.578 0 .469-.375.531-.765.531-.438 0-1-.125-1.47-.687-.046-.047-.077-.079-.14-.079-.094 0-.125.094-.125.157-.031.14-.14.703-.14.797 0 .187.734.421.75.421.546.172.953.172 1.125.172.5 0 1.765-.046 1.765-1.515zm0 0"/></symbol><symbol overflow="visible" id="aS"><path d="M2.688-4.39c-.22-.063-.829-.282-.829-.86 0-.844.844-.86 1.188-.86.547 0 1.047.126 1.531.61.172.14.172.156.219.156.062 0 .11-.031.14-.172l.141-.875c.031-.078.031-.093.031-.125 0-.078-.015-.093-.265-.218-.703-.36-1.297-.407-1.797-.407-.89 0-2.438.22-2.438 2.079 0 .703.375 1.171.563 1.359.5.515.969.625 1.75.797.562.14.781.187 1 .39.094.094.312.297.312.688 0 .937-.859.953-1.187.953-.844 0-1.578-.328-2.063-.781-.125-.125-.14-.125-.187-.125-.063 0-.11.031-.14.187l-.141.86c-.032.093-.032.109-.032.14 0 .203 1.047.563 1.094.578A4.648 4.648 0 0 0 3.047.22C4.53.219 5.469-.453 5.469-2c0-1.11-.828-1.953-1.813-2.172zm0 0"/></symbol><symbol overflow="visible" id="aT"><path d="M4.625-3.156c0-1.563-1.516-1.578-2.016-1.578-.468 0-.968.046-1.625.312-.218.094-.265.125-.265.234 0 .079.062.657.062.735.016.047.063.11.14.11.048 0 .079-.032.11-.063a2.002 2.002 0 0 1 1.547-.672c.531 0 .688.328.688.922v.344c-.344 0-2.954.015-2.954 1.484C.313-.625.875.109 1.75.109c.328 0 1.078-.093 1.547-.78v.187c0 .328.078.484.484.484h.36c.39 0 .484-.125.484-.484zm-1.36 1.625c0 .922-.937.922-.968.922-.422 0-.688-.36-.688-.735 0-.984 1.375-1.047 1.657-1.062zm0 0"/></symbol><symbol overflow="visible" id="aU"><path d="M6.375-1.422c0-.078-.063-.125-.11-.125-.234 0-.53.656-1.921.656-1.766 0-2.266-1.078-2.266-2.578 0-1.484.547-2.562 2.172-2.562.89 0 1.36.343 1.625.562.063.063.094.094.172.094.031 0 .078-.047.094-.094l.203-1.093c0-.047 0-.094-.078-.11a5.483 5.483 0 0 0-1.985-.36C1.86-7.031.61-5.858.61-3.483.61-1.031 1.875.094 4.297.094c.844 0 1.375-.11 2.11-.563.077-.047.046-.125.046-.125zm0 0"/></symbol><symbol overflow="visible" id="bi"><path d="M1.39-6.922c-.359 0-.484.11-.484.484v5.954c0 .359.11.484.485.484h2.718c.75 0 2.579-.125 2.579-1.938 0-1.406-1.391-1.625-1.75-1.687.921-.203 1.437-.719 1.437-1.5 0-1.797-2.125-1.797-2.531-1.797zm.923 2.969v-2.11h1.171c.391 0 1.547.032 1.547.97 0 1.14-1.312 1.14-1.562 1.14zm0 3.094v-2.375h1.25c.359 0 1.734 0 1.734 1.28 0 1.032-1.063 1.095-1.531 1.095zm0 0"/></symbol><symbol overflow="visible" id="at"><path d="M4.016-6.219h-.72v2.625c-.5-.422-1.077-.484-1.374-.484-.906 0-1.594.937-1.594 2.094 0 1.156.688 2.078 1.563 2.078.265 0 .828-.063 1.375-.563V0h.75zm-.75 4.953c0 .172 0 .188-.094.313-.25.328-.547.469-.875.469-.578 0-1.235-.422-1.235-1.5 0-1.141.766-1.516 1.329-1.516.421 0 .703.234.875.469zm0 0"/></symbol><symbol overflow="visible" id="au"><path d="M3.688-2.594c0-.89-.641-1.547-1.532-1.547-.594 0-1.015.157-1.453.407l.063.625a2.2 2.2 0 0 1 1.375-.454c.5 0 .812.391.812.985v.375C1.406-2.172.391-1.766.391-1.047c0 .422.28 1.14 1.062 1.14.172 0 .953-.015 1.531-.437V0h.704zM2.953-1.25c0 .188 0 .406-.328.594-.219.14-.516.172-.703.172-.453 0-.844-.22-.844-.579 0-.625 1.75-.656 1.875-.656zm0 0"/></symbol><symbol overflow="visible" id="av"><path d="M1.625-3.422h1.297v-.562H1.625v-1.141H.953v1.14H.172v.563h.766v2.297c0 .531.109 1.219.765 1.219.39 0 .86-.078 1.36-.328l-.141-.563a1.467 1.467 0 0 1-.828.281c-.36 0-.469-.312-.469-.78zm0 0"/></symbol><symbol overflow="visible" id="aw"><path d="M3.781-.969a2.503 2.503 0 0 1-1.453.453C1.563-.516 1.063-1.14 1.063-2c0-.688.343-1.531 1.312-1.531.563 0 .844.11 1.297.422l.11-.625c-.5-.297-.782-.407-1.423-.407C1.08-4.14.33-3.062.33-1.984c0 1.109.827 2.078 2 2.078.624 0 1.093-.188 1.5-.422zm0 0"/></symbol><symbol overflow="visible" id="ax"><path d="M4.016-4.078h-.72v.61c-.171-.173-.577-.61-1.28-.61-.907 0-1.688.89-1.688 2.094C.328-.86.968.094 1.86.094c.579 0 1.094-.266 1.407-.531v2.171h.75zm-.72 2.812c0 .125 0 .282-.312.532-.187.156-.437.25-.671.25-.688 0-1.25-.672-1.25-1.5 0-.891.656-1.485 1.328-1.485.593 0 .906.594.906.969zm0 0"/></symbol><symbol overflow="visible" id="ay"><path d="M4.031-3.984h-.75v2.593c0 .72-.562.954-1.11.954-.64 0-.702-.204-.702-.579v-2.968h-.75v3c0 .765.312 1.078.953 1.078.516 0 1.219-.14 1.64-.531V0h.72zm0 0"/></symbol><symbol overflow="visible" id="az"><path d="M1.531-6.14H.656v.859h.875zm-.078 2.156H.734V0h.72zm0 0"/></symbol><symbol overflow="visible" id="aA"><path d="M3.172-3.844c-.563-.25-.969-.297-1.344-.297-.203 0-1.516 0-1.516 1.188 0 .437.25.703.344.797.344.297.578.344 1.188.469.297.046.797.14.797.609 0 .578-.72.578-.844.578A2.604 2.604 0 0 1 .375-.953l-.11.656a3.32 3.32 0 0 0 1.532.39c.594 0 1.516-.187 1.516-1.25 0-.312-.126-.624-.438-.89-.297-.265-.563-.328-1.125-.422-.328-.062-.766-.156-.766-.578 0-.515.625-.515.766-.515a2.45 2.45 0 0 1 1.297.343zm0 0"/></symbol><symbol overflow="visible" id="aB"><path d="M4.328-1.969c0-1.172-.89-2.172-2.031-2.172-1.11 0-2.031.97-2.031 2.172 0 1.172.937 2.063 2.03 2.063 1.11 0 2.032-.906 2.032-2.063zM2.312-.516c-.703 0-1.296-.53-1.296-1.546 0-1.047.671-1.485 1.28-1.485.642 0 1.298.453 1.298 1.485 0 1.046-.64 1.546-1.281 1.546zm0 0"/></symbol><symbol overflow="visible" id="aC"><path d="M4.031-2.656c0-.672-.187-1.422-1.265-1.422-.72 0-1.141.406-1.344.672v-.625H.719V0h.75v-2.188c0-.593.234-1.312.922-1.312.89 0 .89.64.89.906V0h.75zm0 0"/></symbol><symbol overflow="visible" id="aD"><path d="M.875-6.219V0h2.469c1.344 0 2.281-.828 2.281-1.688 0-.796-.813-1.421-1.766-1.562.891-.234 1.516-.766 1.516-1.406 0-.828-1-1.563-2.281-1.563zm.813 2.688v-2.156h1.14c.922 0 1.797.406 1.797 1.046 0 .516-.64 1.11-1.89 1.11zm0 3v-2.406H3c.953 0 1.86.53 1.86 1.25 0 .625-.782 1.156-1.782 1.156zm0 0"/></symbol><symbol overflow="visible" id="aE"><path d="M2.516-5.344a5.006 5.006 0 0 0-.22-.422c-.046-.093-.187-.359-.233-.453H.875V0h.734v-5.531h.016l2.36 4.64c.078.141.187.36.234.422.047.11.172.375.234.469h1.172v-6.219h-.734v5.516zm0 0"/></symbol><symbol overflow="visible" id="aF"><path d="M5.531-2.688H3.594v.594h1.172v1.406c-.375.079-.75.172-1.157.172-1.359 0-2.156-1.375-2.156-2.609 0-1.266.797-2.594 2.172-2.594.656 0 1.281.25 1.688.61l.14-.782c-.406-.25-1.078-.437-1.89-.437-1.72 0-2.97 1.547-2.97 3.203 0 1.688 1.25 3.219 2.97 3.219.718 0 1.328-.157 1.968-.438zm0 0"/></symbol><symbol overflow="visible" id="aG"><path d="M3.188-2.563c1.265 0 2.187-.859 2.187-1.843 0-.953-.906-1.813-2.188-1.813H.876V0h.86v-2.563zm-.204-3.124c1.032 0 1.61.562 1.61 1.28 0 .72-.578 1.298-1.61 1.298h-1.28v-2.579zm0 0"/></symbol><symbol overflow="visible" id="aH"><path d="M3.89-2.922c.922-.25 1.563-.89 1.563-1.625 0-.922-1.047-1.672-2.328-1.672H.875V0h.828v-2.828h1.438L4.844 0h.86zm-2.187-.484v-2.281h1.313c1.046 0 1.656.5 1.656 1.14 0 .578-.547 1.14-1.656 1.14zm0 0"/></symbol><symbol overflow="visible" id="aI"><path d="M5.656-6.219h-.86v2.688H1.72V-6.22h-.86V0h.86v-2.938h3.078V0h.86zm0 0"/></symbol><symbol overflow="visible" id="aJ"><path d="M4.86-3.156c-.235.594-.72 1.844-.829 2.281h-.015c-.094-.375-.5-1.453-.672-1.89L2.156-5.829l-.172-.39H.922V0h.734v-5.531c.11.468.625 1.797.735 2.047l.984 2.53c.063.188.234.626.297.75h.672l1.25-3.155c.125-.329.672-1.75.797-2.172V0h.734v-6.219H6.047zm0 0"/></symbol><symbol overflow="visible" id="aK"><path d="M5.36-1.063c-.532.407-1.032.547-1.766.547-1.344 0-2.14-1.375-2.14-2.578 0-1.328.827-2.625 2.14-2.625.61 0 1.156.172 1.594.485l.14-.782c-.469-.203-1.047-.312-1.672-.312C1.891-6.328.594-4.875.594-3.11c0 1.703 1.25 3.203 3.062 3.203.828 0 1.156-.125 1.766-.5zm0 0"/></symbol><symbol overflow="visible" id="aL"><path d="M3.422-3.766L5.89-6.219H5L1.687-2.922v-3.297H.875V0h.813v-2.047L2.89-3.234 5.125 0h.89zm0 0"/></symbol><symbol overflow="visible" id="aM"><path d="M2.188-3.766c-.454-.109-.907-.468-.907-.984s.485-1.031 1.297-1.031c.656 0 1.094.187 1.563.578l.14-.781c-.437-.22-.875-.438-1.687-.438-1.281 0-2.078.89-2.078 1.781 0 .235.046.594.343 1 .422.532 1 .672 1.36.766.125.031.687.172.765.188.407.124.86.515.86 1.078 0 .593-.516 1.14-1.313 1.14-.734 0-1.406-.281-1.969-.734l-.156.781c.89.547 1.703.625 2.125.625 1.235 0 2.063-.922 2.063-1.922 0-1-.828-1.672-1.5-1.828zm0 0"/></symbol><symbol overflow="visible" id="aN"><path d="M.875-6.219V0h2.438C4.875 0 6.14-1.36 6.14-3.063c0-1.75-1.266-3.156-2.829-3.156zM1.703-.53v-5.157h1.375c1.25 0 2.235 1 2.235 2.625 0 1.579-1 2.532-2.22 2.532zm0 0"/></symbol><symbol overflow="visible" id="aO"><path d="M4.11-3.984h-.704l-.703 1.828c-.187.469-.515 1.328-.562 1.656h-.016c-.016-.14-.047-.313-.531-1.61-.282-.718-.719-1.812-.735-1.874H.125L1.703 0h.828zm0 0"/></symbol><symbol overflow="visible" id="aP"><path d="M3.828-1.969c0-.281 0-.953-.36-1.5-.374-.562-.952-.672-1.296-.672-1.031 0-1.86.97-1.86 2.11 0 1.187.875 2.125 2 2.125.438 0 .954-.11 1.47-.438l-.048-.61c-.562.391-1.093.47-1.406.47C1.578-.484 1-1.141.984-1.97zM1.031-2.5c.14-.563.578-1.047 1.14-1.047.345 0 .954.14 1.126 1.047zm0 0"/></symbol><symbol overflow="visible" id="aQ"><path d="M1.719-6.219h-.86V0h3.766v-.625h-.39c-.735 0-1.454.016-2.188.016h-.328zm0 0"/></symbol><symbol overflow="visible" id="aV"><path d="M1.656-.766H.891V0h.765zm0 0"/></symbol><symbol overflow="visible" id="aW"><path d="M3.781-2.047h2.547c.125 0 .313 0 .313-.203 0-.188-.172-.188-.313-.188H3.781V-5c0-.14 0-.313-.203-.313-.187 0-.187.188-.187.313v2.563H.828c-.125 0-.312 0-.312.187 0 .203.171.203.312.203h2.563V.516c0 .14 0 .312.203.312.187 0 .187-.187.187-.312zm0 0"/></symbol><symbol overflow="visible" id="aX"><path d="M1.64-3.422h1v-.562H1.61v-1.032c0-.656.593-.718.843-.718.078 0 .375 0 .735.14v-.625c-.11-.031-.391-.11-.735-.11-.86 0-1.531.657-1.531 1.563v.782H.25v.562h.672V0h.719zm0 0"/></symbol><symbol overflow="visible" id="aY"><path d="M1.469-1.906c0-.953.734-1.516 1.547-1.532v-.64a1.98 1.98 0 0 0-1.61.86v-.813H.75V0h.719zm0 0"/></symbol><symbol overflow="visible" id="aZ"><path d="M1.484-.406c.344.312.782.5 1.25.5.907 0 1.704-.89 1.704-2.094 0-1.078-.579-2.078-1.438-2.078-.25 0-.922.047-1.531.531v-.437H.75v5.718h.734zm0-2.578c.125-.157.454-.485.97-.485.671 0 1.233.64 1.233 1.485 0 .859-.624 1.5-1.328 1.5-.28 0-.609-.11-.875-.563zm0 0"/></symbol><symbol overflow="visible" id="ba"><path d="M6.578-2.656c0-.672-.172-1.422-1.266-1.422-.75 0-1.171.453-1.39.734-.063-.187-.25-.734-1.156-.734-.72 0-1.141.406-1.344.672v-.625H.719V0h.75v-2.188c0-.593.234-1.312.922-1.312.89 0 .89.64.89.906V0h.75v-2.188c0-.593.235-1.312.907-1.312.906 0 .906.64.906.906V0h.734zm0 0"/></symbol><symbol overflow="visible" id="bb"><path d="M3.672-3.61v-.374H.39v.562H2.656L.266-.39V0h3.437v-.594H2.36c-.109 0-.218.016-.328.016h-.75zm0 0"/></symbol><symbol overflow="visible" id="bd"><path d="M1.453-6.219H.734V0h.72zm0 0"/></symbol><symbol overflow="visible" id="be"><path d="M4.11-3.984h-.704C2.72-2.344 2.234-1.156 2.187-.531c-.03-.406-.406-1.328-.515-1.594-.36-.922-.516-1.219-.797-1.86h-.75L1.922 0l-.328.797c-.235.5-.407.5-.532.5-.14 0-.468-.031-.734-.156l.063.625c.015.015.359.078.656.078.25 0 .625 0 1.078-1.078zm0 0"/></symbol><symbol overflow="visible" id="bf"><path d="M3.578-5.563c.61 0 1.235.016 1.844.016h.531v-.625H.328v.625h.547c.61 0 1.234-.016 1.844-.016V0h.86zm0 0"/></symbol><symbol overflow="visible" id="bg"><path d="M4.75-2.938v-.578H1.719v-2.078h.328c.734 0 1.469.032 2.203.032h.766v-.641H.859V0h4.282v-.688H4.25c-.844 0-1.688.032-2.531.032v-2.281zm0 0"/></symbol><symbol overflow="visible" id="bl"><path d="M1.656-3.984H.891v.78h.765zM.891-.766V0h.765v-.766zm0 0"/></symbol><symbol overflow="visible" id="bm"><path d="M6.156-3.984H5.47c-.203.64-.938 2.937-1 3.484h-.016c-.047-.375-.234-.984-.39-1.484l-.625-2H2.78c-.281.875-.922 2.89-.953 3.453h-.016c-.03-.328-.265-1.14-.437-1.703l-.531-1.75H.125L1.391 0h.75c.14-.5.484-1.531.53-1.734.188-.641.407-1.344.438-1.735.016.172.094.516.125.61.094.39.094.406.172.64L4.078 0h.813zm0 0"/></symbol><symbol overflow="visible" id="bn"><path d="M2.594-2.438L4.14-3.984h-.86L1.437-2.141v-4.078H.766V0h.656v-1.281l.719-.703L3.562 0h.782zm0 0"/></symbol><symbol overflow="visible" id="bo"><path d="M4.375-4.078c-.172 0-.781 0-1.438.281a1.643 1.643 0 0 0-.89-.281c-.828 0-1.485.672-1.485 1.453 0 .234.063.563.313.906-.172.235-.266.5-.266.75s.094.5.22.672C.374 0 .265.391.265.641c0 .656.875 1.203 2.03 1.203 1.157 0 2.048-.547 2.048-1.219 0-1.25-1.485-1.266-1.89-1.266h-.829c-.11 0-.516 0-.516-.468 0-.172.032-.235.079-.297.25.156.546.265.859.265A1.49 1.49 0 0 0 3.53-2.609c0-.313-.094-.563-.234-.797-.047-.047-.047-.063-.047-.063 0-.047.438-.047.563-.047.078 0 .406 0 .656.032zm-2.328 2.39c-.422 0-.813-.265-.813-.921 0-.735.454-.938.813-.938.406 0 .812.266.812.922 0 .734-.453.938-.812.938zM2.453.048c.188 0 1.219 0 1.219.594 0 .39-.656.671-1.36.671-.703 0-1.39-.265-1.39-.687 0-.016 0-.578.687-.578zm0 0"/></symbol><clipPath id="a"><path d="M0 1h510.633v216H0zm0 0"/></clipPath><clipPath id="b"><path d="M0 1h510.633v216.156H0zm0 0"/></clipPath><clipPath id="c"><path d="M14 32h1v185.156h-1zm0 0"/></clipPath><clipPath id="d"><path d="M28 32h1v185.156h-1zm0 0"/></clipPath><clipPath id="e"><path d="M42 32h1v185.156h-1zm0 0"/></clipPath><clipPath id="f"><path d="M56 32h2v185.156h-2zm0 0"/></clipPath><clipPath id="g"><path d="M70 32h2v185.156h-2zm0 0"/></clipPath><clipPath id="h"><path d="M85 32h1v185.156h-1zm0 0"/></clipPath><clipPath id="i"><path d="M99 32h1v185.156h-1zm0 0"/></clipPath><clipPath id="j"><path d="M113 32h1v185.156h-1zm0 0"/></clipPath><clipPath id="k"><path d="M127 32h1v185.156h-1zm0 0"/></clipPath><clipPath id="l"><path d="M141 32h2v185.156h-2zm0 0"/></clipPath><clipPath id="m"><path d="M155 32h2v185.156h-2zm0 0"/></clipPath><clipPath id="n"><path d="M170 32h1v185.156h-1zm0 0"/></clipPath><clipPath id="o"><path d="M184 32h1v185.156h-1zm0 0"/></clipPath><clipPath id="p"><path d="M198 32h1v185.156h-1zm0 0"/></clipPath><clipPath id="q"><path d="M212 32h1v185.156h-1zm0 0"/></clipPath><clipPath id="r"><path d="M226 32h2v185.156h-2zm0 0"/></clipPath><clipPath id="s"><path d="M240 32h2v185.156h-2zm0 0"/></clipPath><clipPath id="t"><path d="M255 32h1v185.156h-1zm0 0"/></clipPath><clipPath id="u"><path d="M269 32h1v185.156h-1zm0 0"/></clipPath><clipPath id="v"><path d="M283 32h1v185.156h-1zm0 0"/></clipPath><clipPath id="w"><path d="M297 32h2v185.156h-2zm0 0"/></clipPath><clipPath id="x"><path d="M311 32h2v185.156h-2zm0 0"/></clipPath><clipPath id="y"><path d="M325 32h2v185.156h-2zm0 0"/></clipPath><clipPath id="z"><path d="M340 32h1v185.156h-1zm0 0"/></clipPath><clipPath id="A"><path d="M354 32h1v185.156h-1zm0 0"/></clipPath><clipPath id="B"><path d="M368 32h1v185.156h-1zm0 0"/></clipPath><clipPath id="C"><path d="M382 32h2v185.156h-2zm0 0"/></clipPath><clipPath id="D"><path d="M396 32h2v185.156h-2zm0 0"/></clipPath><clipPath id="E"><path d="M411 32h1v185.156h-1zm0 0"/></clipPath><clipPath id="F"><path d="M425 32h1v185.156h-1zm0 0"/></clipPath><clipPath id="G"><path d="M439 32h1v185.156h-1zm0 0"/></clipPath><clipPath id="H"><path d="M453 32h1v185.156h-1zm0 0"/></clipPath><clipPath id="I"><path d="M467 32h2v185.156h-2zm0 0"/></clipPath><clipPath id="J"><path d="M481 32h2v185.156h-2zm0 0"/></clipPath><clipPath id="K"><path d="M496 32h1v185.156h-1zm0 0"/></clipPath><clipPath id="L"><path d="M0 32h510.633v1H0zm0 0"/></clipPath><clipPath id="M"><path d="M0 46h510.633v2H0zm0 0"/></clipPath><clipPath id="N"><path d="M0 60h510.633v2H0zm0 0"/></clipPath><clipPath id="O"><path d="M0 75h510.633v1H0zm0 0"/></clipPath><clipPath id="P"><path d="M0 89h510.633v1H0zm0 0"/></clipPath><clipPath id="Q"><path d="M0 103h510.633v1H0zm0 0"/></clipPath><clipPath id="R"><path d="M0 117h510.633v1H0zm0 0"/></clipPath><clipPath id="S"><path d="M0 131h510.633v2H0zm0 0"/></clipPath><clipPath id="T"><path d="M0 145h510.633v2H0zm0 0"/></clipPath><clipPath id="U"><path d="M0 160h510.633v1H0zm0 0"/></clipPath><clipPath id="V"><path d="M0 174h510.633v1H0zm0 0"/></clipPath><clipPath id="W"><path d="M0 188h510.633v1H0zm0 0"/></clipPath><clipPath id="X"><path d="M0 202h510.633v1H0zm0 0"/></clipPath><clipPath id="ac"><path d="M382 1h128.633v17H382zm0 0"/></clipPath><clipPath id="ag"><path d="M467 17h43.633v16H467zm0 0"/></clipPath><clipPath id="ah"><path d="M467 16h43.633v17H467zm0 0"/></clipPath><clipPath id="aR"><path d="M282 133h228.633v14H282zm0 0"/></clipPath><clipPath id="bc"><path d="M312 162h198.633v11H312zm0 0"/></clipPath><clipPath id="bh"><path d="M324 175h186.633v14H324zm0 0"/></clipPath><clipPath id="bj"><path d="M326 190h184.633v11H326zm0 0"/></clipPath><clipPath id="bk"><path d="M354 204h156.633v11H354zm0 0"/></clipPath></defs><g clip-path="url(#a)"><path d="M.2 216.938H510.44V1.504H.2zm0 0" fill="rgb(100%,100%,100%)"/></g><g clip-path="url(#b)"><path d="M.2 216.938H510.44V1.504H.2zm0 0" fill="none" stroke-width="0.3985" stroke="rgb(0%,0%,0%)" stroke-miterlimit="10"/></g><g clip-path="url(#c)"><path d="M14.371 32.684v184.254" fill="none" stroke-width="0.3985" stroke="rgb(0%,0%,0%)" stroke-dasharray="0.3985,1.99255" stroke-miterlimit="10"/></g><g clip-path="url(#d)"><path d="M28.547 32.684v184.254" fill="none" stroke-width="0.3985" stroke="rgb(0%,0%,0%)" stroke-dasharray="0.3985,1.99255" stroke-miterlimit="10"/></g><g clip-path="url(#e)"><path d="M42.719 32.684v184.254" fill="none" stroke-width="0.3985" stroke="rgb(0%,0%,0%)" stroke-dasharray="0.3985,1.99255" stroke-miterlimit="10"/></g><g clip-path="url(#f)"><path d="M56.895 32.684v184.254" fill="none" stroke-width="0.3985" stroke="rgb(0%,0%,0%)" stroke-dasharray="0.3985,1.99255" stroke-miterlimit="10"/></g><g clip-path="url(#g)"><path d="M71.066 32.684v184.254" fill="none" stroke-width="0.3985" stroke="rgb(0%,0%,0%)" stroke-dasharray="0.3985,1.99255" stroke-miterlimit="10"/></g><g clip-path="url(#h)"><path d="M85.238 32.684v184.254" fill="none" stroke-width="0.3985" stroke="rgb(0%,0%,0%)" stroke-dasharray="0.3985,1.99255" stroke-miterlimit="10"/></g><g clip-path="url(#i)"><path d="M99.414 32.684v184.254" fill="none" stroke-width="0.3985" stroke="rgb(0%,0%,0%)" stroke-dasharray="0.3985,1.99255" stroke-miterlimit="10"/></g><g clip-path="url(#j)"><path d="M113.586 32.684v184.254" fill="none" stroke-width="0.3985" stroke="rgb(0%,0%,0%)" stroke-dasharray="0.3985,1.99255" stroke-miterlimit="10"/></g><g clip-path="url(#k)"><path d="M127.758 32.684v184.254" fill="none" stroke-width="0.3985" stroke="rgb(0%,0%,0%)" stroke-dasharray="0.3985,1.99255" stroke-miterlimit="10"/></g><g clip-path="url(#l)"><path d="M141.934 32.684v184.254" fill="none" stroke-width="0.3985" stroke="rgb(0%,0%,0%)" stroke-dasharray="0.3985,1.99255" stroke-miterlimit="10"/></g><g clip-path="url(#m)"><path d="M156.105 32.684v184.254" fill="none" stroke-width="0.3985" stroke="rgb(0%,0%,0%)" stroke-dasharray="0.3985,1.99255" stroke-miterlimit="10"/></g><g clip-path="url(#n)"><path d="M170.281 32.684v184.254" fill="none" stroke-width="0.3985" stroke="rgb(0%,0%,0%)" stroke-dasharray="0.3985,1.99255" stroke-miterlimit="10"/></g><g clip-path="url(#o)"><path d="M184.453 32.684v184.254" fill="none" stroke-width="0.3985" stroke="rgb(0%,0%,0%)" stroke-dasharray="0.3985,1.99255" stroke-miterlimit="10"/></g><g clip-path="url(#p)"><path d="M198.625 32.684v184.254" fill="none" stroke-width="0.3985" stroke="rgb(0%,0%,0%)" stroke-dasharray="0.3985,1.99255" stroke-miterlimit="10"/></g><g clip-path="url(#q)"><path d="M212.8 32.684v184.254" fill="none" stroke-width="0.3985" stroke="rgb(0%,0%,0%)" stroke-dasharray="0.3985,1.99255" stroke-miterlimit="10"/></g><g clip-path="url(#r)"><path d="M226.973 32.684v184.254" fill="none" stroke-width="0.3985" stroke="rgb(0%,0%,0%)" stroke-dasharray="0.3985,1.99255" stroke-miterlimit="10"/></g><g clip-path="url(#s)"><path d="M241.148 32.684v184.254" fill="none" stroke-width="0.3985" stroke="rgb(0%,0%,0%)" stroke-dasharray="0.3985,1.99255" stroke-miterlimit="10"/></g><g clip-path="url(#t)"><path d="M255.32 32.684v184.254" fill="none" stroke-width="0.3985" stroke="rgb(0%,0%,0%)" stroke-dasharray="0.3985,1.99255" stroke-miterlimit="10"/></g><g clip-path="url(#u)"><path d="M269.492 32.684v184.254" fill="none" stroke-width="0.3985" stroke="rgb(0%,0%,0%)" stroke-dasharray="0.3985,1.99255" stroke-miterlimit="10"/></g><g clip-path="url(#v)"><path d="M283.668 32.684v184.254" fill="none" stroke-width="0.3985" stroke="rgb(0%,0%,0%)" stroke-dasharray="0.3985,1.99255" stroke-miterlimit="10"/></g><g clip-path="url(#w)"><path d="M297.84 32.684v184.254" fill="none" stroke-width="0.3985" stroke="rgb(0%,0%,0%)" stroke-dasharray="0.3985,1.99255" stroke-miterlimit="10"/></g><g clip-path="url(#x)"><path d="M312.016 32.684v184.254" fill="none" stroke-width="0.3985" stroke="rgb(0%,0%,0%)" stroke-dasharray="0.3985,1.99255" stroke-miterlimit="10"/></g><g clip-path="url(#y)"><path d="M326.188 32.684v184.254" fill="none" stroke-width="0.3985" stroke="rgb(0%,0%,0%)" stroke-dasharray="0.3985,1.99255" stroke-miterlimit="10"/></g><g clip-path="url(#z)"><path d="M340.36 32.684v184.254" fill="none" stroke-width="0.3985" stroke="rgb(0%,0%,0%)" stroke-dasharray="0.3985,1.99255" stroke-miterlimit="10"/></g><g clip-path="url(#A)"><path d="M354.535 32.684v184.254" fill="none" stroke-width="0.3985" stroke="rgb(0%,0%,0%)" stroke-dasharray="0.3985,1.99255" stroke-miterlimit="10"/></g><g clip-path="url(#B)"><path d="M368.707 32.684v184.254" fill="none" stroke-width="0.3985" stroke="rgb(0%,0%,0%)" stroke-dasharray="0.3985,1.99255" stroke-miterlimit="10"/></g><g clip-path="url(#C)"><path d="M382.879 32.684v184.254" fill="none" stroke-width="0.3985" stroke="rgb(0%,0%,0%)" stroke-dasharray="0.3985,1.99255" stroke-miterlimit="10"/></g><g clip-path="url(#D)"><path d="M397.055 32.684v184.254" fill="none" stroke-width="0.3985" stroke="rgb(0%,0%,0%)" stroke-dasharray="0.3985,1.99255" stroke-miterlimit="10"/></g><g clip-path="url(#E)"><path d="M411.227 32.684v184.254" fill="none" stroke-width="0.3985" stroke="rgb(0%,0%,0%)" stroke-dasharray="0.3985,1.99255" stroke-miterlimit="10"/></g><g clip-path="url(#F)"><path d="M425.402 32.684v184.254" fill="none" stroke-width="0.3985" stroke="rgb(0%,0%,0%)" stroke-dasharray="0.3985,1.99255" stroke-miterlimit="10"/></g><g clip-path="url(#G)"><path d="M439.574 32.684v184.254" fill="none" stroke-width="0.3985" stroke="rgb(0%,0%,0%)" stroke-dasharray="0.3985,1.99255" stroke-miterlimit="10"/></g><g clip-path="url(#H)"><path d="M453.746 32.684v184.254" fill="none" stroke-width="0.3985" stroke="rgb(0%,0%,0%)" stroke-dasharray="0.3985,1.99255" stroke-miterlimit="10"/></g><g clip-path="url(#I)"><path d="M467.922 32.684v184.254" fill="none" stroke-width="0.3985" stroke="rgb(0%,0%,0%)" stroke-dasharray="0.3985,1.99255" stroke-miterlimit="10"/></g><g clip-path="url(#J)"><path d="M482.094 32.684v184.254" fill="none" stroke-width="0.3985" stroke="rgb(0%,0%,0%)" stroke-dasharray="0.3985,1.99255" stroke-miterlimit="10"/></g><g clip-path="url(#K)"><path d="M496.27 32.684v184.254" fill="none" stroke-width="0.3985" stroke="rgb(0%,0%,0%)" stroke-dasharray="0.3985,1.99255" stroke-miterlimit="10"/></g><g clip-path="url(#L)"><path d="M.2 32.684H510.44" fill="none" stroke-width="0.3985" stroke="rgb(0%,0%,0%)" stroke-dasharray="0.3985,1.99255" stroke-miterlimit="10"/></g><g clip-path="url(#M)"><path d="M.2 46.86H510.44" fill="none" stroke-width="0.3985" stroke="rgb(0%,0%,0%)" stroke-dasharray="0.3985,1.99255" stroke-miterlimit="10"/></g><g clip-path="url(#N)"><path d="M.2 61.031H510.44" fill="none" stroke-width="0.3985" stroke="rgb(0%,0%,0%)" stroke-dasharray="0.3985,1.99255" stroke-miterlimit="10"/></g><g clip-path="url(#O)"><path d="M.2 75.203H510.44" fill="none" stroke-width="0.3985" stroke="rgb(0%,0%,0%)" stroke-dasharray="0.3985,1.99255" stroke-miterlimit="10"/></g><g clip-path="url(#P)"><path d="M.2 89.379H510.44" fill="none" stroke-width="0.3985" stroke="rgb(0%,0%,0%)" stroke-dasharray="0.3985,1.99255" stroke-miterlimit="10"/></g><g clip-path="url(#Q)"><path d="M.2 103.55H510.44" fill="none" stroke-width="0.3985" stroke="rgb(0%,0%,0%)" stroke-dasharray="0.3985,1.99255" stroke-miterlimit="10"/></g><g clip-path="url(#R)"><path d="M.2 117.727H510.44" fill="none" stroke-width="0.3985" stroke="rgb(0%,0%,0%)" stroke-dasharray="0.3985,1.99255" stroke-miterlimit="10"/></g><g clip-path="url(#S)"><path d="M.2 131.898H510.44" fill="none" stroke-width="0.3985" stroke="rgb(0%,0%,0%)" stroke-dasharray="0.3985,1.99255" stroke-miterlimit="10"/></g><g clip-path="url(#T)"><path d="M.2 146.07H510.44" fill="none" stroke-width="0.3985" stroke="rgb(0%,0%,0%)" stroke-dasharray="0.3985,1.99255" stroke-miterlimit="10"/></g><g clip-path="url(#U)"><path d="M.2 160.246H510.44" fill="none" stroke-width="0.3985" stroke="rgb(0%,0%,0%)" stroke-dasharray="0.3985,1.99255" stroke-miterlimit="10"/></g><g clip-path="url(#V)"><path d="M.2 174.418H510.44" fill="none" stroke-width="0.3985" stroke="rgb(0%,0%,0%)" stroke-dasharray="0.3985,1.99255" stroke-miterlimit="10"/></g><g clip-path="url(#W)"><path d="M.2 188.594H510.44" fill="none" stroke-width="0.3985" stroke="rgb(0%,0%,0%)" stroke-dasharray="0.3985,1.99255" stroke-miterlimit="10"/></g><g clip-path="url(#X)"><path d="M.2 202.766H510.44" fill="none" stroke-width="0.3985" stroke="rgb(0%,0%,0%)" stroke-dasharray="0.3985,1.99255" stroke-miterlimit="10"/></g><path d="M.2 17.094h42.519V1.504H.199zm0 0" fill="rgb(100%,100%,100%)" stroke-width="0.3985" stroke="rgb(0%,0%,0%)" stroke-miterlimit="10"/><g fill="rgb(0%,0%,0%)"><use xlink:href="#Y" x="10.5" y="11.689"/><use xlink:href="#Z" x="15.979" y="11.689"/><use xlink:href="#aa" x="21.459" y="11.689"/><use xlink:href="#ab" x="26.938" y="11.689"/></g><path d="M42.719 17.094H212.8V1.504H42.719zm0 0" fill="rgb(100%,100%,100%)" stroke-width="0.3985" stroke="rgb(0%,0%,0%)" stroke-miterlimit="10"/><g fill="rgb(0%,0%,0%)"><use xlink:href="#Y" x="116.799" y="11.689"/><use xlink:href="#Z" x="122.278" y="11.689"/><use xlink:href="#Y" x="127.758" y="11.689"/><use xlink:href="#Z" x="133.237" y="11.689"/></g><path d="M212.8 17.094H382.88V1.504H212.8zm0 0" fill="rgb(100%,100%,100%)" stroke-width="0.3985" stroke="rgb(0%,0%,0%)" stroke-miterlimit="10"/><g fill="rgb(0%,0%,0%)"><use xlink:href="#Y" x="286.878" y="11.689"/><use xlink:href="#Z" x="292.357" y="11.689"/><use xlink:href="#Y" x="297.837" y="11.689"/><use xlink:href="#aa" x="303.316" y="11.689"/></g><g clip-path="url(#ac)"><path d="M382.879 17.094H510.44V1.504H382.88zm0 0" fill="rgb(100%,100%,100%)" stroke-width="0.3985" stroke="rgb(0%,0%,0%)" stroke-miterlimit="10"/></g><g fill="rgb(0%,0%,0%)"><use xlink:href="#Y" x="435.696" y="11.689"/><use xlink:href="#Z" x="441.175" y="11.689"/><use xlink:href="#Y" x="446.655" y="11.689"/><use xlink:href="#Y" x="452.134" y="11.689"/></g><path d="M.2 32.684h42.519v-15.59H.199zm0 0" fill="rgb(100%,100%,100%)" stroke-width="0.3985" stroke="rgb(0%,0%,0%)" stroke-miterlimit="10"/><g fill="rgb(0%,0%,0%)"><use xlink:href="#ad" x="14.762" y="27.28"/><use xlink:href="#ae" x="22.677" y="27.28"/></g><path d="M42.719 32.684h42.52v-15.59h-42.52zm0 0" fill="rgb(100%,100%,100%)" stroke-width="0.3985" stroke="rgb(0%,0%,0%)" stroke-miterlimit="10"/><g fill="rgb(0%,0%,0%)"><use xlink:href="#ad" x="57.281" y="27.28"/><use xlink:href="#aa" x="65.196" y="27.28"/></g><path d="M85.238 32.684h42.52v-15.59h-42.52zm0 0" fill="rgb(100%,100%,100%)" stroke-width="0.3985" stroke="rgb(0%,0%,0%)" stroke-miterlimit="10"/><g fill="rgb(0%,0%,0%)"><use xlink:href="#ad" x="99.801" y="27.28"/><use xlink:href="#Y" x="107.716" y="27.28"/></g><path d="M127.758 32.684h42.523v-15.59h-42.523zm0 0" fill="rgb(100%,100%,100%)" stroke-width="0.3985" stroke="rgb(0%,0%,0%)" stroke-miterlimit="10"/><g fill="rgb(0%,0%,0%)"><use xlink:href="#ad" x="142.321" y="27.28"/><use xlink:href="#af" x="150.236" y="27.28"/></g><path d="M170.281 32.684h42.52v-15.59h-42.52zm0 0" fill="rgb(100%,100%,100%)" stroke-width="0.3985" stroke="rgb(0%,0%,0%)" stroke-miterlimit="10"/><g fill="rgb(0%,0%,0%)"><use xlink:href="#ad" x="184.84" y="27.28"/><use xlink:href="#ae" x="192.755" y="27.28"/></g><path d="M212.8 32.684h42.52v-15.59H212.8zm0 0" fill="rgb(100%,100%,100%)" stroke-width="0.3985" stroke="rgb(0%,0%,0%)" stroke-miterlimit="10"/><g fill="rgb(0%,0%,0%)"><use xlink:href="#ad" x="227.36" y="27.28"/><use xlink:href="#aa" x="235.275" y="27.28"/></g><path d="M255.32 32.684h42.52v-15.59h-42.52zm0 0" fill="rgb(100%,100%,100%)" stroke-width="0.3985" stroke="rgb(0%,0%,0%)" stroke-miterlimit="10"/><g fill="rgb(0%,0%,0%)"><use xlink:href="#ad" x="269.88" y="27.28"/><use xlink:href="#Y" x="277.795" y="27.28"/></g><path d="M297.84 32.684h42.52v-15.59h-42.52zm0 0" fill="rgb(100%,100%,100%)" stroke-width="0.3985" stroke="rgb(0%,0%,0%)" stroke-miterlimit="10"/><g fill="rgb(0%,0%,0%)"><use xlink:href="#ad" x="312.399" y="27.28"/><use xlink:href="#af" x="320.314" y="27.28"/></g><path d="M340.36 32.684h42.519v-15.59h-42.52zm0 0" fill="rgb(100%,100%,100%)" stroke-width="0.3985" stroke="rgb(0%,0%,0%)" stroke-miterlimit="10"/><g fill="rgb(0%,0%,0%)"><use xlink:href="#ad" x="354.919" y="27.28"/><use xlink:href="#ae" x="362.834" y="27.28"/></g><path d="M382.879 32.684h42.523v-15.59H382.88zm0 0" fill="rgb(100%,100%,100%)" stroke-width="0.3985" stroke="rgb(0%,0%,0%)" stroke-miterlimit="10"/><g fill="rgb(0%,0%,0%)"><use xlink:href="#ad" x="397.439" y="27.28"/><use xlink:href="#aa" x="405.354" y="27.28"/></g><path d="M425.402 32.684h42.52v-15.59h-42.52zm0 0" fill="rgb(100%,100%,100%)" stroke-width="0.3985" stroke="rgb(0%,0%,0%)" stroke-miterlimit="10"/><g fill="rgb(0%,0%,0%)"><use xlink:href="#ad" x="439.958" y="27.28"/><use xlink:href="#Y" x="447.873" y="27.28"/></g><g clip-path="url(#ag)"><path d="M467.922 32.684h42.52v-15.59h-42.52zm0 0" fill="rgb(100%,100%,100%)"/></g><g clip-path="url(#ah)"><path d="M467.922 32.684h42.52v-15.59h-42.52zm0 0" fill="none" stroke-width="0.3985" stroke="rgb(0%,0%,0%)" stroke-miterlimit="10"/></g><g fill="rgb(0%,0%,0%)"><use xlink:href="#ad" x="482.478" y="27.28"/><use xlink:href="#af" x="490.393" y="27.28"/></g><path d="M-1.219 34.102h328.824v11.34l-2.835 1.417-2.836-1.418H4.449L1.617 46.86l-2.836-1.418zm0 0" fill="rgb(100%,62.5%,25%)"/><g fill="rgb(100%,100%,100%)"><use xlink:href="#ai" x="126.657" y="43.295"/><use xlink:href="#aj" x="133.963" y="43.295"/><use xlink:href="#ak" x="139.553" y="43.295"/><use xlink:href="#al" x="144.644" y="43.295"/><use xlink:href="#am" x="148.353" y="43.295"/><use xlink:href="#an" x="156.987" y="43.295"/></g><g fill="rgb(100%,100%,100%)"><use xlink:href="#ak" x="162.775" y="43.295"/><use xlink:href="#ao" x="167.867" y="43.295"/><use xlink:href="#ak" x="170.414" y="43.295"/><use xlink:href="#ap" x="175.506" y="43.295"/><use xlink:href="#aq" x="180.376" y="43.295"/><use xlink:href="#al" x="184.403" y="43.295"/><use xlink:href="#ar" x="188.111" y="43.295"/><use xlink:href="#ap" x="190.658" y="43.295"/><use xlink:href="#as" x="195.528" y="43.295"/></g><path d="M.2 58.906h255.12v-9.922H.2zm0 0" fill="rgb(0%,0%,59.999084%)"/><use xlink:href="#at" x="98.636" y="56.186" fill="rgb(100%,100%,100%)"/><use xlink:href="#au" x="103.208" y="56.186" fill="rgb(100%,100%,100%)"/><use xlink:href="#av" x="107.456" y="56.186" fill="rgb(100%,100%,100%)"/><use xlink:href="#au" x="110.595" y="56.186" fill="rgb(100%,100%,100%)"/><use xlink:href="#au" x="117.856" y="56.186" fill="rgb(100%,100%,100%)"/><use xlink:href="#aw" x="122.096" y="56.186" fill="rgb(100%,100%,100%)"/><use xlink:href="#ax" x="126.003" y="56.186" fill="rgb(100%,100%,100%)"/><use xlink:href="#ay" x="130.584" y="56.186" fill="rgb(100%,100%,100%)"/><use xlink:href="#az" x="135.156" y="56.186" fill="rgb(100%,100%,100%)"/><use xlink:href="#aA" x="137.177" y="56.186" fill="rgb(100%,100%,100%)"/><use xlink:href="#az" x="140.522" y="56.186" fill="rgb(100%,100%,100%)"/><use xlink:href="#av" x="142.534" y="56.186" fill="rgb(100%,100%,100%)"/><use xlink:href="#az" x="145.682" y="56.186" fill="rgb(100%,100%,100%)"/><use xlink:href="#aB" x="147.694" y="56.186" fill="rgb(100%,100%,100%)"/><use xlink:href="#aC" x="152.122" y="56.186" fill="rgb(100%,100%,100%)"/><path d="M.2 73.078h85.038v-9.922H.2zm0 0" fill="rgb(0%,0%,59.999084%)"/><use xlink:href="#aD" x="33.311" y="71.231" fill="rgb(100%,100%,100%)"/><use xlink:href="#aE" x="39.274" y="71.231" fill="rgb(100%,100%,100%)"/><use xlink:href="#aE" x="45.611" y="71.231" fill="rgb(100%,100%,100%)"/><path d="M56.895 87.254h56.69v-9.922h-56.69zm0 0" fill="rgb(0%,0%,59.999084%)"/><use xlink:href="#aF" x="76.418" y="85.404" fill="rgb(100%,100%,100%)"/><use xlink:href="#aG" x="82.373" y="85.404" fill="rgb(100%,100%,100%)"/><use xlink:href="#aH" x="88.089" y="85.404" fill="rgb(100%,100%,100%)"/><path d="M99.414 101.426h99.211v-9.922h-99.21zm0 0" fill="rgb(0%,0%,59.999084%)"/><use xlink:href="#aI" x="138.973" y="99.577" fill="rgb(100%,100%,100%)"/><use xlink:href="#aJ" x="145.31" y="99.577" fill="rgb(100%,100%,100%)"/><use xlink:href="#aK" x="153.175" y="99.577" fill="rgb(100%,100%,100%)"/><path d="M156.105 115.598h99.215v-9.922h-99.215zm0 0" fill="rgb(0%,0%,59.999084%)"/><use xlink:href="#aL" x="196.797" y="113.75" fill="rgb(100%,100%,100%)"/><use xlink:href="#aM" x="203.022" y="113.75" fill="rgb(100%,100%,100%)"/><use xlink:href="#aN" x="207.963" y="113.75" fill="rgb(100%,100%,100%)"/><path d="M226.973 129.773h99.214v-9.921h-99.214zm0 0" fill="rgb(0%,0%,59.999084%)"/><use xlink:href="#au" x="257.981" y="127.923" fill="rgb(100%,100%,100%)"/><use xlink:href="#aw" x="262.22" y="127.923" fill="rgb(100%,100%,100%)"/><use xlink:href="#av" x="266.137" y="127.923" fill="rgb(100%,100%,100%)"/><use xlink:href="#az" x="269.276" y="127.923" fill="rgb(100%,100%,100%)"/><use xlink:href="#aO" x="271.297" y="127.923" fill="rgb(100%,100%,100%)"/><use xlink:href="#aP" x="275.357" y="127.923" fill="rgb(100%,100%,100%)"/><use xlink:href="#aJ" x="282.277" y="127.923" fill="rgb(100%,100%,100%)"/><use xlink:href="#aQ" x="290.151" y="127.923" fill="rgb(100%,100%,100%)"/><g clip-path="url(#aR)"><path d="M282.25 133.316h229.61v11.34l-2.837 1.414-2.836-1.414H287.918l-2.832 1.414-2.836-1.414zm0 0" fill="rgb(100%,62.5%,25%)"/></g><g fill="rgb(100%,100%,100%)"><use xlink:href="#aS" x="373.155" y="142.507"/><use xlink:href="#an" x="379.243" y="142.507"/><use xlink:href="#ao" x="384.723" y="142.507"/><use xlink:href="#aT" x="387.269" y="142.507"/></g><use xlink:href="#al" x="392.191" y="142.507" fill="rgb(100%,100%,100%)"/><g fill="rgb(100%,100%,100%)"><use xlink:href="#aU" x="399.555" y="142.507"/><use xlink:href="#ak" x="406.557" y="142.507"/><use xlink:href="#ao" x="411.648" y="142.507"/><use xlink:href="#ao" x="414.195" y="142.507"/><use xlink:href="#as" x="416.741" y="142.507"/></g><path d="M283.668 158.117h198.426V148.2H283.668zm0 0" fill="rgb(0%,0%,59.999084%)"/><use xlink:href="#at" x="302.169" y="155.398" fill="rgb(100%,100%,100%)"/><use xlink:href="#au" x="306.741" y="155.398" fill="rgb(100%,100%,100%)"/><use xlink:href="#av" x="310.989" y="155.398" fill="rgb(100%,100%,100%)"/><use xlink:href="#au" x="314.128" y="155.398" fill="rgb(100%,100%,100%)"/><use xlink:href="#au" x="321.389" y="155.398" fill="rgb(100%,100%,100%)"/><use xlink:href="#aw" x="325.629" y="155.398" fill="rgb(100%,100%,100%)"/><use xlink:href="#ax" x="329.536" y="155.398" fill="rgb(100%,100%,100%)"/><use xlink:href="#aV" x="334.117" y="155.398" fill="rgb(100%,100%,100%)"/><use xlink:href="#aW" x="340.524" y="155.398" fill="rgb(100%,100%,100%)"/><use xlink:href="#av" x="350.516" y="155.398" fill="rgb(100%,100%,100%)"/><use xlink:href="#aP" x="353.664" y="155.398" fill="rgb(100%,100%,100%)"/><use xlink:href="#aA" x="357.571" y="155.398" fill="rgb(100%,100%,100%)"/><use xlink:href="#av" x="360.925" y="155.398" fill="rgb(100%,100%,100%)"/><use xlink:href="#at" x="367.077" y="155.398" fill="rgb(100%,100%,100%)"/><use xlink:href="#az" x="371.649" y="155.398" fill="rgb(100%,100%,100%)"/><use xlink:href="#aX" x="373.67" y="155.398" fill="rgb(100%,100%,100%)"/><use xlink:href="#aX" x="376.297" y="155.398" fill="rgb(100%,100%,100%)"/><use xlink:href="#aP" x="378.933" y="155.398" fill="rgb(100%,100%,100%)"/><use xlink:href="#aY" x="382.841" y="155.398" fill="rgb(100%,100%,100%)"/><use xlink:href="#aP" x="385.809" y="155.398" fill="rgb(100%,100%,100%)"/><use xlink:href="#aC" x="389.717" y="155.398" fill="rgb(100%,100%,100%)"/><use xlink:href="#av" x="394.289" y="155.398" fill="rgb(100%,100%,100%)"/><use xlink:href="#aB" x="400.45" y="155.398" fill="rgb(100%,100%,100%)"/><use xlink:href="#aZ" x="404.869" y="155.398" fill="rgb(100%,100%,100%)"/><use xlink:href="#av" x="409.441" y="155.398" fill="rgb(100%,100%,100%)"/><use xlink:href="#az" x="412.589" y="155.398" fill="rgb(100%,100%,100%)"/><use xlink:href="#ba" x="414.601" y="155.398" fill="rgb(100%,100%,100%)"/><use xlink:href="#az" x="421.741" y="155.398" fill="rgb(100%,100%,100%)"/><use xlink:href="#bb" x="423.753" y="155.398" fill="rgb(100%,100%,100%)"/><use xlink:href="#au" x="427.58" y="155.398" fill="rgb(100%,100%,100%)"/><use xlink:href="#av" x="431.82" y="155.398" fill="rgb(100%,100%,100%)"/><use xlink:href="#az" x="434.968" y="155.398" fill="rgb(100%,100%,100%)"/><use xlink:href="#aB" x="436.98" y="155.398" fill="rgb(100%,100%,100%)"/><use xlink:href="#aC" x="441.399" y="155.398" fill="rgb(100%,100%,100%)"/><use xlink:href="#aw" x="448.993" y="155.398" fill="rgb(100%,100%,100%)"/><use xlink:href="#aY" x="452.9" y="155.398" fill="rgb(100%,100%,100%)"/><use xlink:href="#az" x="455.86" y="155.398" fill="rgb(100%,100%,100%)"/><use xlink:href="#av" x="457.881" y="155.398" fill="rgb(100%,100%,100%)"/><use xlink:href="#aV" x="461.02" y="155.398" fill="rgb(100%,100%,100%)"/><g clip-path="url(#bc)"><path d="M312.016 172.293H510.44v-9.922H312.016zm0 0" fill="rgb(0%,0%,59.999084%)"/></g><use xlink:href="#au" x="343.573" y="169.571" fill="rgb(100%,100%,100%)"/><use xlink:href="#aZ" x="347.812" y="169.571" fill="rgb(100%,100%,100%)"/><use xlink:href="#aZ" x="352.393" y="169.571" fill="rgb(100%,100%,100%)"/><use xlink:href="#bd" x="356.965" y="169.571" fill="rgb(100%,100%,100%)"/><use xlink:href="#be" x="358.986" y="169.571" fill="rgb(100%,100%,100%)"/><use xlink:href="#aJ" x="366.059" y="169.571" fill="rgb(100%,100%,100%)"/><use xlink:href="#aQ" x="373.923" y="169.571" fill="rgb(100%,100%,100%)"/><use xlink:href="#aZ" x="381.771" y="169.571" fill="rgb(100%,100%,100%)"/><use xlink:href="#az" x="386.352" y="169.571" fill="rgb(100%,100%,100%)"/><use xlink:href="#aZ" x="388.364" y="169.571" fill="rgb(100%,100%,100%)"/><use xlink:href="#aP" x="393.196" y="169.571" fill="rgb(100%,100%,100%)"/><use xlink:href="#bd" x="397.112" y="169.571" fill="rgb(100%,100%,100%)"/><use xlink:href="#az" x="399.124" y="169.571" fill="rgb(100%,100%,100%)"/><use xlink:href="#aC" x="401.136" y="169.571" fill="rgb(100%,100%,100%)"/><use xlink:href="#aP" x="405.717" y="169.571" fill="rgb(100%,100%,100%)"/><use xlink:href="#at" x="412.638" y="169.571" fill="rgb(100%,100%,100%)"/><use xlink:href="#aP" x="417.21" y="169.571" fill="rgb(100%,100%,100%)"/><use xlink:href="#aO" x="421.126" y="169.571" fill="rgb(100%,100%,100%)"/><use xlink:href="#aP" x="425.186" y="169.571" fill="rgb(100%,100%,100%)"/><use xlink:href="#bd" x="429.103" y="169.571" fill="rgb(100%,100%,100%)"/><use xlink:href="#aB" x="431.115" y="169.571" fill="rgb(100%,100%,100%)"/><use xlink:href="#aZ" x="435.543" y="169.571" fill="rgb(100%,100%,100%)"/><use xlink:href="#aP" x="440.375" y="169.571" fill="rgb(100%,100%,100%)"/><use xlink:href="#at" x="444.283" y="169.571" fill="rgb(100%,100%,100%)"/><use xlink:href="#aB" x="451.867" y="169.571" fill="rgb(100%,100%,100%)"/><use xlink:href="#aC" x="456.296" y="169.571" fill="rgb(100%,100%,100%)"/><use xlink:href="#bf" x="463.881" y="169.571" fill="rgb(100%,100%,100%)"/><use xlink:href="#bg" x="469.988" y="169.571" fill="rgb(100%,100%,100%)"/><use xlink:href="#aA" x="475.335" y="169.571" fill="rgb(100%,100%,100%)"/><g clip-path="url(#bh)"><path d="M324.77 175.836h187.09v11.34l-2.837 1.418-2.836-1.418h-175.75l-2.832 1.418-2.835-1.418zm0 0" fill="rgb(100%,62.5%,25%)"/></g><g fill="rgb(100%,100%,100%)"><use xlink:href="#bi" x="397.694" y="185.027"/><use xlink:href="#aT" x="405" y="185.027"/><use xlink:href="#aq" x="410.23" y="185.027"/><use xlink:href="#aq" x="414.257" y="185.027"/><use xlink:href="#ak" x="418.284" y="185.027"/><use xlink:href="#al" x="423.376" y="185.027"/><use xlink:href="#ar" x="427.084" y="185.027"/><use xlink:href="#ak" x="429.63" y="185.027"/><use xlink:href="#as" x="434.722" y="185.027"/></g><g clip-path="url(#bj)"><path d="M326.188 200.64H510.44v-9.921H326.188zm0 0" fill="rgb(0%,0%,59.999084%)"/></g><use xlink:href="#at" x="337.602" y="197.918" fill="rgb(100%,100%,100%)"/><use xlink:href="#au" x="342.174" y="197.918" fill="rgb(100%,100%,100%)"/><use xlink:href="#av" x="346.422" y="197.918" fill="rgb(100%,100%,100%)"/><use xlink:href="#au" x="349.561" y="197.918" fill="rgb(100%,100%,100%)"/><use xlink:href="#au" x="356.822" y="197.918" fill="rgb(100%,100%,100%)"/><use xlink:href="#aw" x="361.062" y="197.918" fill="rgb(100%,100%,100%)"/><use xlink:href="#ax" x="364.969" y="197.918" fill="rgb(100%,100%,100%)"/><use xlink:href="#aV" x="369.55" y="197.918" fill="rgb(100%,100%,100%)"/><use xlink:href="#aW" x="375.957" y="197.918" fill="rgb(100%,100%,100%)"/><use xlink:href="#av" x="385.949" y="197.918" fill="rgb(100%,100%,100%)"/><use xlink:href="#aP" x="389.097" y="197.918" fill="rgb(100%,100%,100%)"/><use xlink:href="#aA" x="393.004" y="197.918" fill="rgb(100%,100%,100%)"/><use xlink:href="#av" x="396.358" y="197.918" fill="rgb(100%,100%,100%)"/><use xlink:href="#at" x="402.51" y="197.918" fill="rgb(100%,100%,100%)"/><use xlink:href="#az" x="407.082" y="197.918" fill="rgb(100%,100%,100%)"/><use xlink:href="#aX" x="409.103" y="197.918" fill="rgb(100%,100%,100%)"/><use xlink:href="#aX" x="411.73" y="197.918" fill="rgb(100%,100%,100%)"/><use xlink:href="#aP" x="414.366" y="197.918" fill="rgb(100%,100%,100%)"/><use xlink:href="#aY" x="418.274" y="197.918" fill="rgb(100%,100%,100%)"/><use xlink:href="#aP" x="421.242" y="197.918" fill="rgb(100%,100%,100%)"/><use xlink:href="#aC" x="425.15" y="197.918" fill="rgb(100%,100%,100%)"/><use xlink:href="#av" x="429.722" y="197.918" fill="rgb(100%,100%,100%)"/><use xlink:href="#aB" x="435.883" y="197.918" fill="rgb(100%,100%,100%)"/><use xlink:href="#aZ" x="440.302" y="197.918" fill="rgb(100%,100%,100%)"/><use xlink:href="#av" x="444.874" y="197.918" fill="rgb(100%,100%,100%)"/><use xlink:href="#az" x="448.022" y="197.918" fill="rgb(100%,100%,100%)"/><use xlink:href="#ba" x="450.034" y="197.918" fill="rgb(100%,100%,100%)"/><use xlink:href="#az" x="457.174" y="197.918" fill="rgb(100%,100%,100%)"/><use xlink:href="#bb" x="459.186" y="197.918" fill="rgb(100%,100%,100%)"/><use xlink:href="#au" x="463.013" y="197.918" fill="rgb(100%,100%,100%)"/><use xlink:href="#av" x="467.253" y="197.918" fill="rgb(100%,100%,100%)"/><use xlink:href="#az" x="470.401" y="197.918" fill="rgb(100%,100%,100%)"/><use xlink:href="#aB" x="472.413" y="197.918" fill="rgb(100%,100%,100%)"/><use xlink:href="#aC" x="476.832" y="197.918" fill="rgb(100%,100%,100%)"/><use xlink:href="#aw" x="484.426" y="197.918" fill="rgb(100%,100%,100%)"/><use xlink:href="#aY" x="488.333" y="197.918" fill="rgb(100%,100%,100%)"/><use xlink:href="#az" x="491.293" y="197.918" fill="rgb(100%,100%,100%)"/><use xlink:href="#av" x="493.314" y="197.918" fill="rgb(100%,100%,100%)"/><use xlink:href="#aV" x="496.453" y="197.918" fill="rgb(100%,100%,100%)"/><g clip-path="url(#bk)"><path d="M354.535 214.813h155.906v-9.922H354.535zm0 0" fill="rgb(0%,0%,59.999084%)"/></g><use xlink:href="#au" x="364.833" y="212.091" fill="rgb(100%,100%,100%)"/><use xlink:href="#aZ" x="369.072" y="212.091" fill="rgb(100%,100%,100%)"/><use xlink:href="#aZ" x="373.653" y="212.091" fill="rgb(100%,100%,100%)"/><use xlink:href="#bd" x="378.225" y="212.091" fill="rgb(100%,100%,100%)"/><use xlink:href="#be" x="380.246" y="212.091" fill="rgb(100%,100%,100%)"/><use xlink:href="#aJ" x="387.319" y="212.091" fill="rgb(100%,100%,100%)"/><use xlink:href="#aQ" x="395.183" y="212.091" fill="rgb(100%,100%,100%)"/><use xlink:href="#aZ" x="403.031" y="212.091" fill="rgb(100%,100%,100%)"/><use xlink:href="#az" x="407.612" y="212.091" fill="rgb(100%,100%,100%)"/><use xlink:href="#aZ" x="409.624" y="212.091" fill="rgb(100%,100%,100%)"/><use xlink:href="#aP" x="414.456" y="212.091" fill="rgb(100%,100%,100%)"/><use xlink:href="#bd" x="418.372" y="212.091" fill="rgb(100%,100%,100%)"/><use xlink:href="#az" x="420.384" y="212.091" fill="rgb(100%,100%,100%)"/><use xlink:href="#aC" x="422.396" y="212.091" fill="rgb(100%,100%,100%)"/><use xlink:href="#aP" x="426.977" y="212.091" fill="rgb(100%,100%,100%)"/><use xlink:href="#at" x="433.898" y="212.091" fill="rgb(100%,100%,100%)"/><use xlink:href="#aP" x="438.47" y="212.091" fill="rgb(100%,100%,100%)"/><use xlink:href="#aO" x="442.386" y="212.091" fill="rgb(100%,100%,100%)"/><use xlink:href="#aP" x="446.446" y="212.091" fill="rgb(100%,100%,100%)"/><use xlink:href="#bd" x="450.363" y="212.091" fill="rgb(100%,100%,100%)"/><use xlink:href="#aB" x="452.375" y="212.091" fill="rgb(100%,100%,100%)"/><use xlink:href="#aZ" x="456.803" y="212.091" fill="rgb(100%,100%,100%)"/><use xlink:href="#aP" x="461.626" y="212.091" fill="rgb(100%,100%,100%)"/><use xlink:href="#at" x="465.543" y="212.091" fill="rgb(100%,100%,100%)"/><use xlink:href="#aB" x="473.127" y="212.091" fill="rgb(100%,100%,100%)"/><use xlink:href="#aC" x="477.547" y="212.091" fill="rgb(100%,100%,100%)"/><use xlink:href="#bf" x="485.141" y="212.091" fill="rgb(100%,100%,100%)"/><use xlink:href="#bg" x="491.248" y="212.091" fill="rgb(100%,100%,100%)"/><use xlink:href="#aA" x="496.595" y="212.091" fill="rgb(100%,100%,100%)"/><path d="M10.16 206.996h137.852v-47.488H10.16zm0 0" fill="rgb(29.998779%,29.998779%,29.998779%)"/><g fill="rgb(100%,100%,100%)"><use xlink:href="#aD" x="13.482" y="169.052"/><use xlink:href="#aE" x="19.633" y="169.052"/><use xlink:href="#aE" x="26.15" y="169.052"/><use xlink:href="#bl" x="32.667" y="169.052"/></g><g fill="rgb(100%,100%,100%)"><use xlink:href="#aD" x="38.302" y="169.052"/><use xlink:href="#au" x="44.453" y="169.052"/></g><use xlink:href="#be" x="48.62" y="169.052" fill="rgb(100%,100%,100%)"/><g fill="rgb(100%,100%,100%)"><use xlink:href="#aP" x="52.609" y="169.052"/><use xlink:href="#aA" x="56.705" y="169.052"/><use xlink:href="#az" x="60.237" y="169.052"/><use xlink:href="#au" x="62.438" y="169.052"/><use xlink:href="#aC" x="66.865" y="169.052"/></g><g fill="rgb(100%,100%,100%)"><use xlink:href="#aC" x="74.701" y="169.052"/><use xlink:href="#aP" x="79.461" y="169.052"/><use xlink:href="#ay" x="83.557" y="169.052"/><use xlink:href="#aY" x="88.317" y="169.052"/><use xlink:href="#au" x="91.465" y="169.052"/><use xlink:href="#bd" x="95.893" y="169.052"/></g><g fill="rgb(100%,100%,100%)"><use xlink:href="#aC" x="101.16" y="169.052"/><use xlink:href="#aP" x="105.92" y="169.052"/><use xlink:href="#av" x="110.016" y="169.052"/></g><use xlink:href="#bm" x="113.092" y="169.052" fill="rgb(100%,100%,100%)"/><use xlink:href="#aB" x="119.129" y="169.052" fill="rgb(100%,100%,100%)"/><g fill="rgb(100%,100%,100%)"><use xlink:href="#aY" x="123.485" y="169.052"/><use xlink:href="#bn" x="126.633" y="169.052"/></g><g fill="rgb(100%,100%,100%)"><use xlink:href="#aF" x="13.482" y="180.011"/><use xlink:href="#aG" x="19.626" y="180.011"/><use xlink:href="#aH" x="25.52" y="180.011"/><use xlink:href="#bl" x="31.491" y="180.011"/></g><g fill="rgb(100%,100%,100%)"><use xlink:href="#aF" x="37.126" y="180.011"/><use xlink:href="#au" x="43.27" y="180.011"/><use xlink:href="#ay" x="47.698" y="180.011"/><use xlink:href="#aA" x="52.458" y="180.011"/><use xlink:href="#aA" x="55.991" y="180.011"/></g><g fill="rgb(100%,100%,100%)"><use xlink:href="#az" x="59.515" y="180.011"/><use xlink:href="#au" x="61.715" y="180.011"/><use xlink:href="#aC" x="66.143" y="180.011"/></g><use xlink:href="#aZ" x="73.978" y="180.011" fill="rgb(100%,100%,100%)"/><g fill="rgb(100%,100%,100%)"><use xlink:href="#aY" x="78.479" y="180.011"/><use xlink:href="#aB" x="81.627" y="180.011"/></g><g fill="rgb(100%,100%,100%)"><use xlink:href="#aw" x="86.494" y="180.011"/><use xlink:href="#aP" x="90.59" y="180.011"/><use xlink:href="#aA" x="94.686" y="180.011"/><use xlink:href="#aA" x="98.219" y="180.011"/></g><g fill="rgb(100%,100%,100%)"><use xlink:href="#aY" x="104.818" y="180.011"/><use xlink:href="#aP" x="107.966" y="180.011"/><use xlink:href="#bo" x="112.062" y="180.011"/><use xlink:href="#aY" x="116.67" y="180.011"/><use xlink:href="#aP" x="119.818" y="180.011"/><use xlink:href="#aA" x="123.914" y="180.011"/><use xlink:href="#aA" x="127.447" y="180.011"/><use xlink:href="#az" x="130.979" y="180.011"/><use xlink:href="#aB" x="133.18" y="180.011"/><use xlink:href="#aC" x="137.788" y="180.011"/></g><g fill="rgb(100%,100%,100%)"><use xlink:href="#aI" x="13.482" y="190.97"/><use xlink:href="#aJ" x="19.999" y="190.97"/><use xlink:href="#aK" x="28.052" y="190.97"/><use xlink:href="#bl" x="33.939" y="190.97"/></g><g fill="rgb(100%,100%,100%)"><use xlink:href="#aI" x="39.574" y="190.97"/><use xlink:href="#au" x="46.091" y="190.97"/><use xlink:href="#ba" x="50.519" y="190.97"/><use xlink:href="#az" x="57.838" y="190.97"/><use xlink:href="#bd" x="60.038" y="190.97"/><use xlink:href="#av" x="62.239" y="190.97"/><use xlink:href="#aB" x="65.566" y="190.97"/><use xlink:href="#aC" x="70.174" y="190.97"/><use xlink:href="#az" x="74.934" y="190.97"/><use xlink:href="#au" x="77.134" y="190.97"/><use xlink:href="#aC" x="81.562" y="190.97"/></g><g fill="rgb(100%,100%,100%)"><use xlink:href="#aJ" x="89.389" y="190.97"/><use xlink:href="#aB" x="97.442" y="190.97"/><use xlink:href="#aC" x="102.049" y="190.97"/><use xlink:href="#av" x="106.81" y="190.97"/><use xlink:href="#aP" x="110.137" y="190.97"/></g><g fill="rgb(100%,100%,100%)"><use xlink:href="#aK" x="117.308" y="190.97"/><use xlink:href="#au" x="123.196" y="190.97"/></g><g fill="rgb(100%,100%,100%)"><use xlink:href="#aY" x="127.363" y="190.97"/><use xlink:href="#bd" x="130.511" y="190.97"/><use xlink:href="#aB" x="132.712" y="190.97"/></g><g fill="rgb(100%,100%,100%)"><use xlink:href="#aL" x="13.482" y="201.929"/><use xlink:href="#aM" x="19.896" y="201.929"/><use xlink:href="#aN" x="25.015" y="201.929"/><use xlink:href="#bl" x="31.678" y="201.929"/></g><use xlink:href="#bn" x="37.313" y="201.929" fill="rgb(100%,100%,100%)"/><g fill="rgb(100%,100%,100%)"><use xlink:href="#aP" x="41.557" y="201.929"/><use xlink:href="#aY" x="45.653" y="201.929"/><use xlink:href="#aC" x="48.801" y="201.929"/><use xlink:href="#aP" x="53.561" y="201.929"/><use xlink:href="#bd" x="57.657" y="201.929"/><use xlink:href="#az" x="59.857" y="201.929"/><use xlink:href="#bb" x="62.057" y="201.929"/><use xlink:href="#aP" x="66.064" y="201.929"/><use xlink:href="#at" x="70.16" y="201.929"/></g><g fill="rgb(100%,100%,100%)"><use xlink:href="#aM" x="77.986" y="201.929"/><use xlink:href="#av" x="83.106" y="201.929"/><use xlink:href="#aP" x="86.434" y="201.929"/><use xlink:href="#az" x="90.529" y="201.929"/><use xlink:href="#aC" x="92.73" y="201.929"/></g><g fill="rgb(100%,100%,100%)"><use xlink:href="#at" x="100.565" y="201.929"/><use xlink:href="#az" x="105.326" y="201.929"/><use xlink:href="#aA" x="107.526" y="201.929"/><use xlink:href="#aw" x="111.059" y="201.929"/><use xlink:href="#aY" x="115.155" y="201.929"/><use xlink:href="#aP" x="118.303" y="201.929"/><use xlink:href="#aZ" x="122.399" y="201.929"/><use xlink:href="#au" x="127.159" y="201.929"/><use xlink:href="#aC" x="131.587" y="201.929"/><use xlink:href="#aw" x="136.347" y="201.929"/><use xlink:href="#be" x="140.443" y="201.929"/></g></svg>