<svg height="279.876" viewBox="0 0 240.082 209.907" width="320.109" xmlns="http://www.w3.org/2000/svg" xmlns:xlink="http://www.w3.org/1999/xlink"><symbol id="a" overflow="visible"><path d="m4.578-3.188c0-.796-.047-1.593-.39-2.328-.455-.968-1.283-1.124-1.688-1.124-.61 0-1.328.266-1.75 1.188-.313.687-.36 1.469-.36 2.266 0 .75.032 1.64.454 2.406a1.83 1.83 0 0 0 1.64 1c.532 0 1.297-.203 1.735-1.157.312-.687.36-1.468.36-2.25zm-2.094 3.188c-.39 0-.984-.25-1.156-1.203-.11-.594-.11-1.516-.11-2.11 0-.64 0-1.296.079-1.828.187-1.187.937-1.28 1.187-1.28.329 0 .985.187 1.172 1.171.11.563.11 1.313.11 1.938 0 .75 0 1.421-.11 2.062-.156.953-.719 1.25-1.172 1.25zm0 0"/></symbol><symbol id="b" overflow="visible"><path d="m1.266-.766 1.062-1.03c1.547-1.376 2.14-1.907 2.14-2.907 0-1.14-.89-1.938-2.109-1.938a1.843 1.843 0 0 0 -1.859 1.813c0 .547.5.547.531.547.172 0 .516-.11.516-.532a.513.513 0 0 0 -.531-.515c-.079 0-.094 0-.125.016.218-.657.765-1.016 1.343-1.016.907 0 1.329.812 1.329 1.625 0 .797-.485 1.578-1.047 2.203l-1.907 2.125c-.109.11-.109.14-.109.375h3.703l.266-1.734h-.235c-.062.296-.124.734-.234.89-.063.078-.719.078-.938.078zm0 0"/></symbol><symbol id="c" overflow="visible"><path d="m2.938-1.64v.859c0 .36-.032.469-.766.469h-.203v.312c.406-.031.922-.031 1.343-.031.422 0 .938 0 1.36.031v-.313h-.219c-.734 0-.75-.109-.75-.468v-.86h.985v-.312h-.985v-4.531c0-.204 0-.266-.172-.266-.078 0-.11 0-.187.125l-3.064 4.672v.312zm.046-.313h-2.421l2.421-3.719zm0 0"/></symbol><symbol id="d" overflow="visible"><path d="m1.313-3.266v-.25c0-2.515 1.234-2.875 1.75-2.875.234 0 .656.063.874.407-.156 0-.546 0-.546.437 0 .313.234.469.453.469.156 0 .469-.094.469-.484 0-.594-.438-1.079-1.266-1.079-1.281.001-2.625 1.282-2.625 3.485 0 2.672 1.156 3.375 2.078 3.375 1.11 0 2.063-.938 2.063-2.25 0-1.266-.891-2.219-2-2.219-.672 0-1.047.5-1.25.984zm1.187 3.204c-.625 0-.922-.594-.984-.75-.188-.47-.188-1.266-.188-1.438 0-.781.328-1.781 1.219-1.781.172 0 .625 0 .937.625.172.36.172.875.172 1.36 0 .483 0 .983-.172 1.343-.296.594-.75.64-.984.64zm0 0"/></symbol><symbol id="e" overflow="visible"><path d="m1.625-4.563c-.453-.296-.5-.625-.5-.796 0-.61.656-1.032 1.36-1.032.718 0 1.359.516 1.359 1.235 0 .578-.39 1.047-.985 1.39zm1.453.954c.719-.375 1.203-.891 1.203-1.547 0-.922-.875-1.485-1.781-1.485-1 0-1.813.735-1.813 1.672 0 .172.016.625.438 1.094.11.11.484.36.734.531-.578.297-1.437.844-1.437 1.844 0 1.047 1.016 1.719 2.062 1.719 1.125 0 2.079-.828 2.079-1.89 0-.36-.11-.813-.5-1.235-.188-.203-.344-.297-.985-.703zm-1 .421 1.235.782c.28.187.75.484.75 1.094 0 .734-.75 1.25-1.563 1.25-.86-.001-1.578-.61-1.578-1.438 0-.578.312-1.219 1.156-1.688zm0 0"/></symbol><symbol id="f" overflow="visible"><path d="m2.938-6.375c0-.25 0-.266-.235-.266-.625.641-1.5.641-1.812.641v.313c.203 0 .78 0 1.296-.266v5.172c0 .36-.03.469-.921.469h-.313v.312c.344-.031 1.203-.031 1.61-.031.39 0 1.265 0 1.609.031v-.313h-.313c-.906 0-.921-.109-.921-.468zm0 0"/></symbol><symbol id="g" overflow="visible"><path d="m2.547 2.5v-.406h-.969v-9.172h.969v-.406h-1.375v9.984zm0 0"/></symbol><symbol id="h" overflow="visible"><path d="m1.094-3.422v2.672c0 .438-.11.438-.782.438v.312c.36-.016.86-.031 1.141-.031.25 0 .766.015 1.11.031v-.313c-.672 0-.782 0-.782-.437v-1.844c0-1.031.719-1.594 1.344-1.594.64 0 .75.532.75 1.11v2.328c0 .438-.11.438-.781.438v.312c.344-.016.86-.031 1.125-.031.25 0 .781.015 1.11.031v-.313c-.657 0-.766 0-.766-.437v-1.844c0-1.031.703-1.594 1.343-1.594.625 0 .735.532.735 1.11v2.328c0 .438-.11.438-.782.438v.312c.344-.016.86-.031 1.125-.031.266 0 .782.015 1.125.031v-.313c-.515 0-.765 0-.78-.296v-1.907c0-.859 0-1.156-.313-1.515-.141-.172-.47-.375-1.047-.375-.828 0-1.282.593-1.438.984-.14-.875-.875-.984-1.328-.984-.734 0-1.203.422-1.484 1.047v-1.047l-1.407.11v.312c.704 0 .782.062.782.562zm0 0"/></symbol><symbol id="i" overflow="visible"><path d="m2.078-1.938c.219.047 1.031.204 1.031.922 0 .5-.343.907-1.125.907-.843 0-1.203-.563-1.39-1.422-.031-.125-.031-.157-.14-.157-.126 0-.126.063-.126.235v1.328c0 .172 0 .234.11.234.045.001.062-.015.25-.203.015-.015.015-.031.202-.218.437.406.89.421 1.093.421 1.141 0 1.61-.671 1.61-1.39 0-.516-.297-.828-.422-.938-.328-.328-.719-.406-1.14-.484-.563-.11-1.22-.235-1.22-.813 0-.359.25-.765 1.11-.765 1.094 0 1.156.906 1.172 1.203 0 .094.094.094.11.094.14 0 .14-.047.14-.235v-1.015c0-.157 0-.235-.11-.235-.046 0-.078 0-.203.125a1.676 1.676 0 0 1 -.172.157c-.375-.282-.78-.282-.937-.282-1.219 0-1.594.672-1.594 1.235 0 .343.156.625.422.843.328.25.61.313 1.328.454zm0 0"/></symbol><symbol id="j" overflow="visible"><path d="m1.578-7.484h-1.36v.406h.97v9.172h-.97v.406h1.36zm0 0"/></symbol><symbol id="k" overflow="visible"><path d="m3.984-4.172 1.797-1.734a2.17 2.17 0 0 1 1.422-.594v-.313c-.266.032-.578.032-.86.032-.359 0-.921 0-1.265-.032v.313c.406.016.469.234.469.328 0 .156-.11.266-.188.328l-3.109 2.985v-3.172c0-.36.016-.469.781-.469h.235v-.313c-.344.032-1.079.032-1.47.032-.374 0-1.124 0-1.468-.032v.313h.234c.766 0 .797.11.797.469v5.25c0 .36-.03.469-.796.469h-.235v.312c.344-.031 1.094-.031 1.469-.031s1.125 0 1.469.031v-.313h-.236c-.765 0-.781-.109-.781-.468v-1.735l1.156-1.109 1.798 2.672c.063.094.156.219.156.344 0 .296-.39.296-.593.296v.313c.343-.031 1.046-.031 1.421-.031.36 0 .735.015 1.157.031v-.313c-.547 0-.75-.03-1.047-.468zm0 0"/></symbol><symbol id="l" overflow="visible"><path d="m2.89-3.516c.813-.265 1.391-.953 1.391-1.75 0-.812-.875-1.375-1.828-1.375-1 0-1.765.594-1.765 1.36 0 .328.218.515.515.515s.5-.218.5-.515c0-.485-.469-.485-.61-.485.298-.5.954-.625 1.313-.625.422 0 .969.22.969 1.11 0 .125-.031.703-.281 1.14-.297.485-.64.516-.89.516a3.29 3.29 0 0 1 -.392.031c-.078.016-.14.031-.14.125 0 .11.062.11.234.11h.438c.812 0 1.187.671 1.187 1.656 0 1.36-.687 1.64-1.125 1.64-.437 0-1.187-.171-1.531-.75.344.047.656-.171.656-.546a.537.537 0 0 0 -.547-.563c-.25 0-.562.14-.562.578 0 .907.922 1.564 2.015 1.564 1.22 0 2.126-.906 2.126-1.922 0-.813-.641-1.594-1.672-1.813zm0 0"/></symbol><symbol id="m" overflow="visible"><path d="m2.031-.016c0-.656-.25-1.046-.64-1.046a.517.517 0 0 0 -.532.53c0 .266.204.532.532.532a.58.58 0 0 0 .343-.125c.032-.031.047-.031.047-.031.016 0 .016 0 .016.14 0 .75-.344 1.344-.672 1.672-.11.11-.11.125-.11.157 0 .078.048.109.094.109.11 0 .922-.766.922-1.938zm0 0"/></symbol><symbol id="n" overflow="visible"><path d="m4.672-3.703c0-.547-.266-.703-.438-.703-.25 0-.5.265-.5.484 0 .125.047.188.157.297.218.203.343.453.343.813 0 .421-.609 2.703-1.765 2.703-.516 0-.75-.344-.75-.875 0-.547.281-1.282.578-2.11.078-.172.125-.312.125-.5 0-.437-.313-.812-.813-.812-.937 0-1.312 1.453-1.312 1.531 0 .11.094.11.11.11.109 0 .109-.032.156-.188.296-1 .718-1.235 1.015-1.235.078 0 .25 0 .25.313 0 .25-.11.531-.172.703-.437 1.156-.562 1.61-.562 2.047 0 1.078.875 1.234 1.328 1.234 1.672 0 2.25-3.296 2.25-3.812zm0 0"/></symbol><symbol id="o" overflow="visible"><path d="m1.906-2.5a.524.524 0 1 0 -1.047.016.524.524 0 0 0 1.047-.016zm0 0"/></symbol><symbol id="p" overflow="visible"><path d="m5.188-1.578c.109 0 .28 0 .28-.156 0-.188-.171-.188-.28-.188h-4.158c-.11 0-.281 0-.281.172s.156.172.281.172zm0 0"/></symbol><symbol id="q" overflow="visible"><path d="m3.688-1.14v-.25h-.782v-3.11c0-.14 0-.203-.14-.203-.094 0-.125 0-.188.11l-2.312 3.201v.25h2.062v.563c0 .25 0 .328-.578.328h-.188v.251c.36-.016.797-.031 1.047-.031.266 0 .704.015 1.063.031v-.25h-.188c-.578 0-.578-.078-.578-.328v-.563zm-1.313-2.799v2.547h-1.844zm0 0"/></symbol><symbol id="r" overflow="visible"><path d="m2.328-4.438c0-.187 0-.187-.203-.187-.453.438-1.078.438-1.36.438v.25c.157 0 .626 0 1-.188v3.547c0 .234 0 .328-.687.328h-.266v.25c.125 0 .985-.031 1.235-.031.219 0 1.094.031 1.25.031v-.25h-.267c-.703 0-.703-.094-.703-.328zm0 0"/></symbol><symbol id="s" overflow="visible"><path d="m-3.156-3.016v-1.703c0-1.406-1.031-2.797-2.14-2.797-.782 0-1.516.657-1.516 1.97v3.218c0 .187 0 .297.187.297.125 0 .125-.078.125-.281 0-.126.016-.313.016-.422.03-.172.046-.22.171-.22a.67.67 0 0 1 .188.032l5.344 1.344c.39.094.469.11.469.906 0 .156 0 .266.187.266.125 0 .125-.11.125-.14 0-.282-.031-.985-.031-1.266 0-.22.015-.438.015-.641 0-.219.016-.438.016-.64 0-.079 0-.204-.203-.204-.11 0-.11.094-.11.281 0 .36 0 .641-.171.641-.063 0-.11-.016-.172-.031zm-2.969-.718c-.344-.094-.375-.11-.375-.547v-.953c0-.829.266-1.36.953-1.36.39 0 1.25.203 1.61.594.453.5.53 1.094.53 1.531v1.407zm0 0"/></symbol><symbol id="t" overflow="visible"><path d="m-3.703-4.672c-.547 0-.703.266-.703.438 0 .25.265.5.484.5.125 0 .188-.047.297-.157.203-.218.453-.343.813-.343.421 0 2.703.609 2.703 1.765 0 .516-.344.75-.875.75-.547 0-1.282-.281-2.11-.578a1.127 1.127 0 0 0 -.5-.125c-.437 0-.812.313-.812.813 0 .937 1.453 1.312 1.531 1.312.11 0 .11-.094.11-.11 0-.109-.032-.109-.188-.156-1-.296-1.235-.718-1.235-1.015 0-.078 0-.25.313-.25.25 0 .531.11.703.172 1.156.437 1.61.562 2.047.562 1.078 0 1.234-.875 1.234-1.328 0-1.672-3.296-2.25-3.812-2.25zm0 0"/></symbol><symbol id="u" overflow="visible"><path d="m2.39-3.297c-.03 0-.046 0-.218.172-1.25 1.234-3.14 1.563-4.672 1.563-1.734 0-3.469-.375-4.703-1.61-.125-.125-.14-.125-.172-.125-.078 0-.11.031-.11.094 0 .11.688 1 1.954 1.594 1.093.5 2.203.625 3.031.625.781 0 1.984-.11 3.125-.657 1.219-.609 1.875-1.453 1.875-1.562 0-.063-.031-.094-.11-.094zm0 0"/></symbol><symbol id="v" overflow="visible"><path d="m-2.5-2.875c-.766 0-1.969.11-3.11.656-1.218.594-1.874 1.453-1.874 1.547 0 .063.046.11.109.11.031 0 .047 0 .234-.188.985-.984 2.563-1.547 4.641-1.547 1.719 0 3.469.36 4.719 1.594.125.14.14.14.172.14a.106.106 0 0 0 .109-.109c0-.094-.688-1-1.953-1.578-1.094-.516-2.203-.625-3.047-.625zm0 0"/></symbol><clipPath id="w"><path d="m31.148 13.348h194.27v161.394h-194.27zm0 0"/></clipPath><clipPath id="x"><path d="m31.148 70h194.27v104.742h-194.27zm0 0"/></clipPath><clipPath id="y"><path d="m31.148 112h194.27v62.742h-194.27zm0 0"/></clipPath><path d="m0-2.127v4.254m48.566-4.254v4.254m48.57-4.254v4.254m48.567-4.254v4.254m48.566-4.254v4.254m-196.395-2.125h4.25m-4.25 50.125h4.25m-4.25 50.129h4.25m-4.25 50.125h4.25m-2.124-150.379h191.68" fill="none" stroke="#000" stroke-miterlimit="10" stroke-width=".79701" transform="matrix(1 0 0 -1 31.149 174.744)"/><path d="m225.418 174.742-4.145-2.07 1.555 2.07-1.555 2.074"/><path d="m0 .002v158.804" fill="none" stroke="#000" stroke-miterlimit="10" stroke-width=".79701" transform="matrix(1 0 0 -1 31.149 174.744)"/><path d="m31.148 13.348-2.07 4.144 2.07-1.555 2.075 1.555"/><use x="28.658" xlink:href="#a" y="187.01"/><use x="68.369" xlink:href="#b" y="187.01"/><use x="73.351" xlink:href="#m" y="187.01"/><g><use x="76.118" xlink:href="#a" y="187.01"/><use x="81.099" xlink:href="#a" y="187.01"/><use x="86.081" xlink:href="#a" y="187.01"/></g><use x="116.936" xlink:href="#c" y="187.01"/><use x="121.917" xlink:href="#m" y="187.01"/><g><use x="124.685" xlink:href="#a" y="187.01"/><use x="129.666" xlink:href="#a" y="187.01"/><use x="134.648" xlink:href="#a" y="187.01"/></g><use x="165.503" xlink:href="#d" y="187.01"/><use x="170.484" xlink:href="#m" y="187.01"/><g><use x="173.251" xlink:href="#a" y="187.01"/><use x="178.232" xlink:href="#a" y="187.01"/><use x="183.214" xlink:href="#a" y="187.01"/></g><use x="214.069" xlink:href="#e" y="187.01"/><use x="219.051" xlink:href="#m" y="187.01"/><g><use x="221.818" xlink:href="#a" y="187.01"/><use x="226.799" xlink:href="#a" y="187.01"/><use x="231.781" xlink:href="#a" y="187.01"/></g><use x="20.323" xlink:href="#a" y="177.954"/><use x="20.323" xlink:href="#b" y="127.828"/><use x="20.323" xlink:href="#c" y="77.702"/><use x="20.323" xlink:href="#d" y="27.575"/><use x="34.536" xlink:href="#o" y="8.11"/><g><use x="37.304" xlink:href="#f" y="8.11"/><use x="42.285" xlink:href="#a" y="8.11"/></g><use x="47.266" xlink:href="#p" y="4.495"/><use x="53.493" xlink:href="#q" y="4.495"/><g clip-path="url(#w)"><path d="m0 .002s1.417.773 1.96 1.715c.547.941 1.418 3.23 1.965 5.066.543 1.84 1.418 5.535 1.961 8.184.547 2.652 1.418 7.582 1.965 10.922.543 3.343 1.414 9.277 1.96 13.156.544 3.879 1.419 10.558 1.962 14.804.547 4.243 1.418 11.368 1.965 15.797.543 4.426 1.418 11.692 1.96 16.114.544 4.425 1.419 11.535 1.962 15.777.546 4.242 1.418 10.906 1.964 14.8a841.06 841.06 0 0 0 1.961 13.278c.543 3.414 1.418 8.496 1.961 11.316.547 2.82 1.418 6.856 1.965 9 .543 2.149 1.418 5.043 1.961 6.465.543 1.426 1.418 3.106 1.961 3.797.547.696 1.418 1.223 1.965 1.203.543-.02 1.418-.656 1.96-1.355.544-.695 1.419-2.363 1.962-3.668.547-1.305 1.418-3.899 1.965-5.723.543-1.828 1.418-5.183 1.96-7.437.544-2.25 1.419-6.211 1.961-8.793.547-2.586 1.418-7.016 1.965-9.832a1510.1 1510.1 0 0 0 1.961-10.469c.543-2.953 1.418-7.816 1.961-10.816.547-3.004 1.418-7.848 1.965-10.82.543-2.973 1.418-7.727 1.961-10.61.547-2.887 1.418-7.434 1.96-10.172a843.608 843.608 0 0 1 1.966-9.57 589.452 589.452 0 0 1 1.96-8.852 419.345 419.345 0 0 1 1.966-8.055 285.895 285.895 0 0 1 1.96-7.218c.543-1.89 1.418-4.73 1.961-6.39a159.427 159.427 0 0 1 1.965-5.567 113.957 113.957 0 0 1 1.961-4.793 80.59 80.59 0 0 1 1.961-4.078 60.92 60.92 0 0 1 1.965-3.43 47.183 47.183 0 0 1 1.96-2.844 36.304 36.304 0 0 1 1.962-2.336 29.526 29.526 0 0 1 1.964-1.898 27.85 27.85 0 0 1 1.96-1.528c.544-.378 1.419-.91 1.962-1.21.546-.301 1.418-.72 1.964-.954a30.862 30.862 0 0 1 1.961-.742 33.755 33.755 0 0 1 1.961-.574 44.23 44.23 0 0 1 1.965-.434 48.91 48.91 0 0 1 1.961-.332 67.187 67.187 0 0 1 1.962-.246c.547-.058 1.418-.14 1.965-.183a110.13 110.13 0 0 1 3.922-.23c.547-.024 1.418-.055 1.965-.071.543-.02 1.418-.04 1.96-.05a334.26 334.26 0 0 1 1.962-.036c.547-.012 1.418-.02 1.965-.027l1.961-.016c.543-.004 1.418-.012 1.961-.012.547-.004 1.418-.008 1.965-.008.543-.003 1.418-.003 1.96-.007.548 0 1.419 0 1.966-.004h1.96c.544 0 1.419-.004 1.962-.004h74.565" fill="none" stroke="#f00" stroke-miterlimit="10" stroke-width=".79701" transform="matrix(1 0 0 -1 31.149 174.744)"/></g><g clip-path="url(#x)"><path d="m0 .002s5.847 2.652 8.093 5.515c2.246 2.864 5.852 10.125 8.098 15.125s5.848 15.004 8.094 20.91c2.246 5.903 5.847 16.208 8.093 21.653 2.246 5.45 5.848 13.75 8.094 17.617 2.246 3.863 5.848 8.59 8.094 10.25 2.246 1.664 5.851 2.328 8.097 1.73 2.247-.597 5.848-3.59 8.094-6.035s5.848-7.98 8.094-11.59c2.246-3.609 5.848-10.386 8.094-14.421 2.246-4.04 5.847-10.801 8.094-14.672 2.246-3.871 5.851-9.903 8.097-13.23 2.246-3.329 5.848-8.153 8.094-10.762 2.246-2.61 5.848-6.157 8.094-8.051 2.246-1.89 5.847-4.313 8.093-5.594 2.246-1.277 5.848-2.82 8.094-3.629 2.246-.808 5.852-1.726 8.098-2.21 2.246-.481 5.847-.997 8.094-1.266 2.246-.274 5.847-.543 8.093-.688 2.246-.144 5.848-.277 8.094-.351 2.246-.07 5.848-.133 8.094-.168 2.246-.036 5.851-.063 8.097-.079 2.247-.015 5.848-.027 8.094-.035l8.095-.011" fill="none" stroke="#fff200" stroke-miterlimit="10" stroke-width=".79701" transform="matrix(1 0 0 -1 31.149 174.744)"/></g><g clip-path="url(#y)"><path d="m0 .002s5.846.418 8.092.918c2.246.504 5.852 1.73 8.098 2.691s5.848 2.899 8.094 4.246c2.246 1.348 5.847 3.844 8.093 5.473 2.246 1.633 5.848 4.492 8.094 6.281 2.246 1.793 5.848 4.805 8.094 6.63 2.246 1.82 5.851 4.773 8.097 6.5 2.247 1.73 5.848 4.425 8.094 5.948 2.246 1.52 5.848 3.793 8.094 5.02 2.246 1.226 5.848 2.95 8.094 3.816 2.246.867 5.847 1.961 8.094 2.442 2.246.484 5.851.941 8.097 1.035 2.246.09 5.848-.086 8.094-.36 2.246-.273 5.848-1.023 8.094-1.617 2.246-.59 5.847-1.8 8.093-2.652s5.848-2.438 8.094-3.484c2.246-1.047 5.852-2.895 8.098-4.063 2.246-1.172 5.847-3.145 8.094-4.371 2.246-1.227 5.847-3.246 8.093-4.477 2.246-1.226 5.848-3.199 8.094-4.382 2.246-1.18 5.848-3.04 8.094-4.137a279.07 279.07 0 0 1 8.097-3.793 236.884 236.884 0 0 1 8.094-3.371c2.246-.875 8.094-2.926 8.094-2.926" fill="none" stroke="#00f" stroke-miterlimit="10" stroke-width=".79701" transform="matrix(1 0 0 -1 31.149 174.744)"/></g><use x="108.967" xlink:href="#n" y="204.096"/><g><use x="117.474" xlink:href="#g" y="204.096"/><use x="120.242" xlink:href="#h" y="204.096"/></g><use x="130.207" xlink:href="#i" y="204.096"/><use x="134.134" xlink:href="#p" y="200.48"/><use x="140.361" xlink:href="#r" y="200.48"/><use x="144.83" xlink:href="#j" y="204.096"/><use x="10.793" xlink:href="#s" y="104.405"/><use x="10.793" xlink:href="#u" y="96.626"/><use x="10.793" xlink:href="#t" y="92.751"/><use x="10.793" xlink:href="#v" y="87.565"/><path d="m132.882 116.924h57.102v40.843h-57.102zm0 0" fill="#fff" stroke="#000" stroke-miterlimit="10" stroke-width=".79701" transform="matrix(1 0 0 -1 31.149 174.744)"/><path d="m-.002 0h17.012" fill="none" stroke="#f00" stroke-miterlimit="10" stroke-width=".79701" transform="matrix(1 0 0 -1 167.416 25.113)"/><g><use x="189.306" xlink:href="#f" y="27.77"/><use x="194.287" xlink:href="#a" y="27.77"/><use x="199.269" xlink:href="#a" y="27.77"/></g><use x="205.914" xlink:href="#k" y="27.77"/><path d="m-.002-.001h17.012" fill="none" stroke="#fff200" stroke-miterlimit="10" stroke-width=".79701" transform="matrix(1 0 0 -1 167.416 37.401)"/><g><use x="189.306" xlink:href="#l" y="40.057"/><use x="194.287" xlink:href="#a" y="40.057"/><use x="199.269" xlink:href="#a" y="40.057"/></g><use x="205.914" xlink:href="#k" y="40.057"/><path d="m-.002 0h17.012" fill="none" stroke="#00f" stroke-miterlimit="10" stroke-width=".79701" transform="matrix(1 0 0 -1 167.416 49.688)"/><g><use x="186.815" xlink:href="#f" y="52.344"/><use x="191.796" xlink:href="#a" y="52.344"/><use x="196.778" xlink:href="#a" y="52.344"/><use x="201.759" xlink:href="#a" y="52.344"/></g><use x="208.404" xlink:href="#k" y="52.344"/></svg>