<svg xmlns="http://www.w3.org/2000/svg" xmlns:xlink="http://www.w3.org/1999/xlink" width="454.757" height="294.485" viewBox="0 0 341.068 220.864"><defs><symbol overflow="visible" id="a"><path d="M2.938-6.375c0-.25 0-.266-.235-.266C2.078-6 1.203-6 .891-6v.313c.203 0 .78 0 1.296-.266v5.172c0 .36-.03.469-.921.469H.953V0c.344-.031 1.203-.031 1.61-.031.39 0 1.265 0 1.609.031v-.313h-.313c-.906 0-.921-.109-.921-.468zm0 0"/></symbol><symbol overflow="visible" id="b"><path d="M4.578-3.188c0-.796-.047-1.593-.39-2.328C3.733-6.484 2.905-6.64 2.5-6.64c-.61 0-1.328.266-1.75 1.188-.313.687-.36 1.469-.36 2.266 0 .75.032 1.64.454 2.406a1.83 1.83 0 0 0 1.64 1c.532 0 1.297-.203 1.735-1.157.312-.687.36-1.468.36-2.25zM2.484 0c-.39 0-.984-.25-1.156-1.203-.11-.594-.11-1.516-.11-2.11 0-.64 0-1.296.079-1.828.187-1.187.937-1.28 1.187-1.28.329 0 .985.187 1.172 1.171.11.563.11 1.313.11 1.938 0 .75 0 1.421-.11 2.062C3.5-.297 2.937 0 2.484 0zm0 0"/></symbol><symbol overflow="visible" id="h"><path d="M1.266-.766l1.062-1.03c1.547-1.376 2.14-1.907 2.14-2.907 0-1.14-.89-1.938-2.109-1.938C1.234-6.64.5-5.719.5-4.828c0 .547.5.547.531.547.172 0 .516-.11.516-.532a.513.513 0 0 0-.531-.515c-.079 0-.094 0-.125.016.218-.657.765-1.016 1.343-1.016.907 0 1.329.812 1.329 1.625 0 .797-.485 1.578-1.047 2.203L.609-.375C.5-.265.5-.235.5 0h3.703l.266-1.734h-.235C4.172-1.438 4.11-1 4-.844c-.063.078-.719.078-.938.078zm0 0"/></symbol><symbol overflow="visible" id="i"><path d="M2.938-1.64v.859c0 .36-.032.469-.766.469h-.203V0c.406-.031.922-.031 1.343-.031.422 0 .938 0 1.36.031v-.313h-.219c-.734 0-.75-.109-.75-.468v-.86h.985v-.312h-.985v-4.531c0-.204 0-.266-.172-.266-.078 0-.11 0-.187.125L.28-1.953v.312zm.046-.313H.563l2.421-3.719zm0 0"/></symbol><symbol overflow="visible" id="j"><path d="M1.313-3.266v-.25c0-2.515 1.234-2.875 1.75-2.875.234 0 .656.063.874.407-.156 0-.546 0-.546.437 0 .313.234.469.453.469.156 0 .469-.094.469-.484 0-.594-.438-1.079-1.266-1.079C1.766-6.64.422-5.359.422-3.156.422-.484 1.578.219 2.5.219c1.11 0 2.063-.938 2.063-2.25 0-1.266-.891-2.219-2-2.219-.672 0-1.047.5-1.25.984zM2.5-.062c-.625 0-.922-.594-.984-.75-.188-.47-.188-1.266-.188-1.438 0-.781.328-1.781 1.219-1.781.172 0 .625 0 .937.625.172.36.172.875.172 1.36 0 .483 0 .983-.172 1.343-.296.594-.75.64-.984.64zm0 0"/></symbol><symbol overflow="visible" id="k"><path d="M1.625-4.563c-.453-.296-.5-.625-.5-.796 0-.61.656-1.032 1.36-1.032.718 0 1.359.516 1.359 1.235 0 .578-.39 1.047-.985 1.39zm1.453.954c.719-.375 1.203-.891 1.203-1.547 0-.922-.875-1.485-1.781-1.485-1 0-1.813.735-1.813 1.672 0 .172.016.625.438 1.094.11.11.484.36.734.531C1.281-3.047.422-2.5.422-1.5.422-.453 1.438.219 2.484.219c1.125 0 2.079-.828 2.079-1.89 0-.36-.11-.813-.5-1.235-.188-.203-.344-.297-.985-.703zm-1 .421l1.235.782c.28.187.75.484.75 1.094 0 .734-.75 1.25-1.563 1.25C1.64-.063.922-.672.922-1.5c0-.578.312-1.219 1.156-1.688zm0 0"/></symbol><symbol overflow="visible" id="v"><path d="M.563-3.406C.563-1.344 2.171.219 4.03.219c1.625 0 2.594-1.39 2.594-2.547 0-.094 0-.172-.125-.172-.11 0-.11.063-.125.172C6.297-.906 5.235-.094 4.141-.094c-.61 0-2.563-.328-2.563-3.312 0-2.969 1.953-3.313 2.563-3.313 1.078 0 1.968.907 2.171 2.36.016.14.016.171.157.171.156 0 .156-.03.156-.234v-2.36c0-.171 0-.25-.11-.25-.03 0-.077 0-.156.126l-.5.734c-.359-.36-.875-.86-1.828-.86-1.875 0-3.468 1.595-3.468 3.626zm0 0"/></symbol><symbol overflow="visible" id="w"><path d="M3.313-.75c.046.39.312.813.78.813.22 0 .829-.141.829-.954v-.562h-.25v.562c0 .579-.25.641-.36.641-.328 0-.375-.453-.375-.5v-1.984c0-.422 0-.813-.359-1.188-.39-.39-.89-.547-1.36-.547-.827 0-1.515.469-1.515 1.125 0 .297.203.469.469.469a.435.435 0 0 0 .453-.453c0-.125-.047-.453-.516-.453.282-.36.766-.469 1.079-.469.5 0 1.062.39 1.062 1.281v.36c-.516.03-1.203.062-1.828.359-.75.344-1 .86-1 1.297 0 .812.969 1.062 1.594 1.062.656 0 1.109-.406 1.296-.859zM3.25-2.39v1c0 .937-.719 1.28-1.172 1.28-.484 0-.89-.343-.89-.843 0-.547.421-1.375 2.062-1.438zm0 0"/></symbol><symbol overflow="visible" id="x"><path d="M1.672-3.313v-1.093l-1.39.11v.312c.702 0 .78.062.78.562V-.75c0 .438-.109.438-.78.438V0c.39-.016.859-.031 1.14-.031.39 0 .86 0 1.266.031v-.313h-.22c-.734 0-.75-.109-.75-.468v-1.531c0-.985.423-1.876 1.173-1.876.062 0 .093 0 .109.016-.031 0-.234.125-.234.39 0 .266.218.423.437.423a.421.421 0 0 0 .422-.438c0-.312-.313-.61-.734-.61-.735 0-1.094.673-1.22 1.095zm0 0"/></symbol><symbol overflow="visible" id="y"><path d="M1.766-4.406l-1.391.11v.312c.64 0 .734.062.734.546V-.75c0 .438-.109.438-.78.438V0c.312-.016.859-.031 1.093-.031.36 0 .703.015 1.047.031v-.313c-.672 0-.703-.046-.703-.437zm.03-1.735a.514.514 0 0 0-.515-.53.537.537 0 0 0-.531.53c0 .266.219.532.531.532a.514.514 0 0 0 .516-.532zm0 0"/></symbol><symbol overflow="visible" id="z"><path d="M1.11-2.516C1.171-4 2.015-4.25 2.36-4.25c1.015 0 1.124 1.344 1.124 1.734zm0 .22h2.78c.22 0 .25 0 .25-.22 0-.984-.546-1.953-1.78-1.953C1.202-4.469.28-3.437.28-2.187.281-.86 1.328.108 2.47.108 3.688.11 4.14-1 4.14-1.187c0-.094-.079-.125-.141-.125-.078 0-.11.062-.125.14C3.531-.14 2.625-.14 2.531-.14c-.5 0-.89-.296-1.125-.671-.297-.47-.297-1.125-.297-1.485zm0 0"/></symbol><symbol overflow="visible" id="A"><path d="M1.172-2.172c0-1.625.812-2.047 1.344-2.047.093 0 .718.016 1.062.375-.406.031-.469.328-.469.453 0 .266.188.454.454.454.265 0 .468-.157.468-.47 0-.671-.765-1.062-1.531-1.062C1.25-4.469.344-3.39.344-2.156c0 1.281.984 2.265 2.14 2.265 1.329 0 1.657-1.203 1.657-1.296 0-.094-.11-.094-.141-.094-.078 0-.11.031-.125.093C3.594-.265 2.937-.14 2.578-.14c-.531 0-1.406-.421-1.406-2.03zm0 0"/></symbol><symbol overflow="visible" id="B"><path d="M4.688-2.14c0-1.266-.985-2.329-2.188-2.329C1.25-4.469.281-3.375.281-2.14A2.22 2.22 0 0 0 2.484.11c1.204 0 2.204-.984 2.204-2.25zM2.5-.14c-.438 0-.875-.204-1.14-.672-.25-.438-.25-1.047-.25-1.407 0-.39 0-.922.234-1.36a1.347 1.347 0 0 1 1.14-.671c.438 0 .86.219 1.125.656.266.422.266 1 .266 1.375 0 .36 0 .906-.219 1.344-.234.453-.672.734-1.156.734zm0 0"/></symbol><symbol overflow="visible" id="C"><path d="M1.094-3.422V-.75c0 .438-.11.438-.782.438V0c.36-.016.86-.031 1.141-.031.25 0 .766.015 1.11.031v-.313c-.672 0-.782 0-.782-.437v-1.844c0-1.031.719-1.594 1.344-1.594.64 0 .75.532.75 1.11V-.75c0 .438-.11.438-.781.438V0c.344-.016.86-.031 1.125-.031.25 0 .781.015 1.11.031v-.313c-.516 0-.766 0-.766-.296v-1.907c0-.859 0-1.156-.313-1.515-.14-.172-.469-.375-1.047-.375-.734 0-1.203.422-1.484 1.047v-1.047l-1.407.11v.312c.704 0 .782.062.782.562zm0 0"/></symbol><symbol overflow="visible" id="D"><path d="M1.719-3.984h1.437v-.313H1.72v-1.828h-.25c0 .813-.297 1.875-1.282 1.922v.219h.844v2.75c0 1.218.938 1.343 1.297 1.343.703 0 .985-.703.985-1.343v-.563h-.25v.547c0 .734-.297 1.11-.672 1.11-.672 0-.672-.907-.672-1.079zm0 0"/></symbol><symbol overflow="visible" id="F"><path d="M3.297 2.39c0-.03 0-.046-.172-.218C1.891.922 1.562-.968 1.562-2.5c0-1.734.375-3.469 1.61-4.703.125-.125.125-.14.125-.172 0-.078-.031-.11-.094-.11-.11 0-1 .688-1.594 1.954C1.11-4.438.984-3.328.984-2.5c0 .781.11 1.984.657 3.125C2.25 1.844 3.094 2.5 3.203 2.5c.063 0 .094-.031.094-.11zm0 0"/></symbol><symbol overflow="visible" id="G"><path d="M1.094-3.422V-.75c0 .438-.11.438-.782.438V0c.36-.016.86-.031 1.141-.031.25 0 .766.015 1.11.031v-.313c-.672 0-.782 0-.782-.437v-1.844c0-1.031.719-1.594 1.344-1.594.64 0 .75.532.75 1.11V-.75c0 .438-.11.438-.781.438V0c.344-.016.86-.031 1.125-.031.25 0 .781.015 1.11.031v-.313c-.657 0-.766 0-.766-.437v-1.844c0-1.031.703-1.594 1.343-1.594.625 0 .735.532.735 1.11V-.75c0 .438-.11.438-.782.438V0c.344-.016.86-.031 1.125-.031.266 0 .782.015 1.125.031v-.313c-.515 0-.765 0-.78-.296v-1.907c0-.859 0-1.156-.313-1.515-.141-.172-.47-.375-1.047-.375-.828 0-1.282.593-1.438.984-.14-.875-.875-.984-1.328-.984-.734 0-1.203.422-1.484 1.047v-1.047l-1.407.11v.312c.704 0 .782.062.782.562zm0 0"/></symbol><symbol overflow="visible" id="J"><path d="M2.875-2.5c0-.766-.11-1.969-.656-3.11C1.625-6.827.766-7.483.672-7.483a.107.107 0 0 0-.11.109c0 .031 0 .047.188.234.984.985 1.547 2.563 1.547 4.641 0 1.719-.36 3.469-1.594 4.719-.14.125-.14.14-.14.172 0 .062.046.109.109.109.094 0 1-.688 1.578-1.953.516-1.094.625-2.203.625-3.047zm0 0"/></symbol><symbol overflow="visible" id="c"><path d="M2.328-4.438c0-.187 0-.187-.203-.187-.453.438-1.078.438-1.36.438v.25c.157 0 .626 0 1-.188v3.547c0 .234 0 .328-.687.328H.812V0c.125 0 .985-.031 1.235-.031.219 0 1.094.031 1.25.031v-.25H3.03c-.703 0-.703-.094-.703-.328zm0 0"/></symbol><symbol overflow="visible" id="d"><path d="M2.906-2.078c0 1.734-.844 2-1.265 2-.157 0-.532-.016-.72-.234a.315.315 0 0 0 .313-.329.32.32 0 0 0-.328-.328c-.203 0-.328.14-.328.344 0 .469.39.766 1.063.766 1 0 1.937-.938 1.937-2.438 0-1.719-.765-2.328-1.578-2.328a1.55 1.55 0 0 0-1.11.422c-.234.234-.515.5-.515 1.125 0 .89.703 1.547 1.516 1.547.562 0 .859-.375 1.015-.688zm-.969.344c-.28 0-.53-.079-.734-.407-.156-.25-.156-.546-.156-.937 0-.406 0-.672.203-.953.172-.25.39-.39.75-.39s.578.218.688.405c.187.282.203.782.203 1.016 0 .906-.516 1.266-.954 1.266zm0 0"/></symbol><symbol overflow="visible" id="e"><path d="M3.516-1.266H3.28c-.015.157-.094.563-.187.625-.047.047-.578.047-.688.047H1.125c.734-.64.984-.844 1.39-1.172.516-.406 1-.843 1-1.5 0-.843-.734-1.359-1.624-1.359-.86 0-1.454.61-1.454 1.25 0 .344.297.39.376.39.156 0 .359-.124.359-.374 0-.125-.047-.375-.406-.375.218-.485.687-.641 1.015-.641.703 0 1.063.547 1.063 1.11 0 .609-.438 1.078-.656 1.328L.516-.266C.437-.203.437-.187.437 0h2.876zm0 0"/></symbol><symbol overflow="visible" id="f"><path d="M3.594-2.219c0-.765-.094-1.328-.406-1.812-.22-.313-.657-.594-1.204-.594C.36-4.625.36-2.719.36-2.219c0 .5 0 2.36 1.625 2.36 1.61 0 1.61-1.86 1.61-2.36zM1.984-.063c-.328 0-.75-.187-.89-.75C1-1.219 1-1.796 1-2.313c0-.515 0-1.046.094-1.421.156-.547.593-.704.89-.704.375 0 .735.235.86.641.11.375.125.875.125 1.485 0 .515 0 1.03-.094 1.468-.14.64-.61.781-.89.781zm0 0"/></symbol><symbol overflow="visible" id="I"><path d="M1.906-2.328c.547 0 .938.375.938 1.125 0 .86-.516 1.125-.906 1.125-.282 0-.907-.078-1.188-.5.328 0 .406-.235.406-.39 0-.22-.172-.376-.39-.376a.38.38 0 0 0-.391.407C.375-.281 1.094.14 1.938.14c.968 0 1.64-.657 1.64-1.344 0-.547-.437-1.094-1.203-1.25.719-.266.984-.781.984-1.219 0-.547-.625-.953-1.406-.953-.766 0-1.36.375-1.36.938 0 .234.157.359.36.359.219 0 .36-.156.36-.344 0-.203-.141-.36-.36-.375.25-.297.719-.375.985-.375.312 0 .75.156.75.75 0 .297-.094.625-.282.828-.219.266-.422.281-.765.313-.172.015-.188.015-.22.015-.015 0-.077.016-.077.094 0 .094.062.094.187.094zm0 0"/></symbol><symbol overflow="visible" id="g"><path d="M1.906-.531a.534.534 0 0 0-.515-.531.537.537 0 0 0-.532.53.524.524 0 1 0 1.047 0zm0 0"/></symbol><symbol overflow="visible" id="m"><path d="M1.328-.828c.531-.578.828-.828 1.188-1.14 0 0 .609-.532.968-.891.954-.922 1.172-1.407 1.172-1.454 0-.093-.093-.093-.11-.093-.077 0-.093.015-.155.11-.297.484-.5.64-.735.64-.25 0-.36-.156-.515-.328-.188-.22-.36-.422-.688-.422-.75 0-1.203.922-1.203 1.14 0 .047.031.11.11.11.093 0 .109-.047.14-.11.188-.468.766-.468.844-.468.203 0 .39.062.625.14.406.156.515.156.765.156-.359.422-1.187 1.141-1.375 1.297l-.906.844C.781-.625.422-.063.422.016c0 .093.11.093.125.093C.625.11.64.094.703-.016c.235-.359.531-.625.86-.625.218 0 .328.094.578.375.156.22.343.375.625.375 1 0 1.578-1.265 1.578-1.53 0-.048-.047-.11-.125-.11-.094 0-.11.062-.14.14-.235.641-.876.829-1.204.829-.188 0-.375-.063-.578-.125-.344-.125-.5-.172-.703-.172-.016 0-.172 0-.266.03zm0 0"/></symbol><symbol overflow="visible" id="n"><path d="M4.25-6.047c.078-.281.11-.344.234-.375.094-.016.422-.016.625-.016 1.016 0 1.454.032 1.454.813 0 .156-.032.547-.079.797 0 .047-.03.156-.03.187 0 .063.03.141.124.141.11 0 .125-.078.156-.234L7-6.47c.016-.047.016-.14.016-.172 0-.109-.094-.109-.266-.109H1.219c-.235 0-.25.016-.328.203l-.594 1.75c0 .016-.063.156-.063.188 0 .046.063.109.125.109.094 0 .11-.063.172-.219.531-1.547.797-1.718 2.266-1.718h.39c.282 0 .282.03.282.125a.775.775 0 0 1-.047.203L2.094-.781C2-.421 1.969-.312.906-.312c-.36 0-.422 0-.422.187C.484 0 .594 0 .656 0c.266 0 .547-.016.813-.016.281 0 .578-.015.86-.015.28 0 .546.015.827.015.281 0 .578.016.86.016.093 0 .218 0 .218-.203 0-.11-.078-.11-.343-.11-.235 0-.375 0-.625-.015-.297-.031-.375-.063-.375-.219 0-.015 0-.062.046-.203zm0 0"/></symbol><symbol overflow="visible" id="p"><path d="M5.156-3.719c.14 0 .5 0 .5-.344 0-.234-.218-.234-.39-.234H2.984c-1.5 0-2.609 1.64-2.609 2.828C.375-.594.969.11 1.875.11c1.172 0 2.5-1.203 2.5-2.734 0-.172 0-.656-.313-1.094zM1.891-.109C1.39-.11 1-.47 1-1.188c0-.296.11-1.109.469-1.703.422-.687 1.015-.828 1.36-.828.827 0 .905.656.905.969 0 .469-.203 1.281-.53 1.797-.392.578-.938.844-1.313.844zm0 0"/></symbol><symbol overflow="visible" id="r"><path d="M.594-.39c-.047.14-.047.156-.047.234 0 .172.14.265.297.265.297 0 .36-.234.437-.562.094-.36.032-.172.469-1.844.828.031 1.703.203 1.703.844 0 .078 0 .125-.031.234a1.909 1.909 0 0 0-.047.344c0 .578.406.984.922.984.312 0 .578-.171.781-.515.25-.422.36-1 .36-1.016 0-.11-.079-.11-.11-.11-.11 0-.11.048-.14.188C5-.656 4.766-.109 4.313-.109 4.109-.11 4-.234 4-.594c0-.14.031-.39.078-.547.016-.093.047-.218.047-.328 0-.937-1.375-1.015-1.938-1.031.329-.188.657-.453.922-.688.454-.374.75-.624 1.141-.796-.016.062-.047.171-.047.218 0 .125.078.36.375.36.328 0 .547-.297.547-.547 0-.078-.047-.344-.406-.344-.61 0-1.188.5-1.625.875-.688.578-.922.719-1.281.844.03-.11.156-.61.203-.781.062-.266.171-.735.171-.782 0-.171-.109-.265-.28-.265-.032 0-.313 0-.407.36zm0 0"/></symbol><symbol overflow="visible" id="t"><path d="M6.438-6.922a.12.12 0 0 0-.125-.11c-.047 0-.047.016-.172.157l-.485.563c-.25-.47-.765-.72-1.422-.72-1.265 0-2.453 1.157-2.453 2.36 0 .797.516 1.266 1.032 1.406l1.062.282c.375.093.922.25.922 1.062 0 .89-.813 1.828-1.797 1.828-.64 0-1.75-.218-1.75-1.453 0-.234.063-.484.063-.531.015-.047.015-.063.015-.078 0-.094-.062-.11-.11-.11a.142.142 0 0 0-.109.047C1.08-2.188.516.094.516.125c0 .047.046.094.109.094.047 0 .063-.016.188-.157L1.296-.5c.422.578 1.11.719 1.687.719 1.36 0 2.532-1.328 2.532-2.563 0-.687-.344-1.031-.485-1.172-.234-.218-.39-.265-1.265-.484-.235-.063-.579-.172-.672-.188a.928.928 0 0 1-.61-.906c0-.812.797-1.656 1.75-1.656.813 0 1.422.438 1.422 1.547 0 .312-.031.5-.031.562 0 0 0 .094.11.094.109 0 .124-.031.156-.203zm0 0"/></symbol><symbol overflow="visible" id="E"><path d="M.875-.594c-.031.156-.094.39-.094.438 0 .172.14.265.297.265a.414.414 0 0 0 .375-.28c0-.016.125-.485.188-.735l.218-.89c.047-.235.11-.454.172-.673.031-.172.11-.469.125-.5.14-.312.672-1.219 1.625-1.219.453 0 .531.375.531.704 0 .609-.484 1.89-.64 2.312-.094.234-.11.36-.11.469 0 .469.36.812.829.812.937 0 1.296-1.453 1.296-1.53 0-.11-.078-.11-.109-.11-.11 0-.11.031-.156.187-.203.672-.531 1.235-1.016 1.235-.172 0-.234-.094-.234-.329 0-.25.078-.484.172-.703.187-.53.61-1.625.61-2.203 0-.656-.423-1.062-1.141-1.062-.907 0-1.391.64-1.563.875-.047-.563-.453-.875-.922-.875-.453 0-.64.39-.734.562-.172.344-.297.938-.297.969 0 .11.094.11.11.11.109 0 .109-.016.171-.235.172-.703.375-1.188.735-1.188.187 0 .296.125.296.454 0 .218-.03.328-.156.843zm0 0"/></symbol><symbol overflow="visible" id="H"><path d="M5.188-1.578c.109 0 .28 0 .28-.156 0-.188-.171-.188-.28-.188H1.03c-.11 0-.281 0-.281.172s.156.172.281.172zm0 0"/></symbol><symbol overflow="visible" id="K"><path d="M-.828-1.328c-.578-.531-.828-.828-1.14-1.188 0 0-.532-.609-.891-.968-.922-.954-1.407-1.172-1.454-1.172-.093 0-.093.093-.093.11 0 .077.015.093.11.155.484.297.64.5.64.735 0 .25-.156.36-.328.515-.22.188-.422.36-.422.688 0 .75.922 1.203 1.14 1.203.047 0 .11-.031.11-.11 0-.093-.047-.109-.11-.14-.468-.188-.468-.766-.468-.844 0-.203.062-.39.14-.625.156-.406.156-.515.156-.765.422.359 1.141 1.187 1.297 1.375l.844.906C-.625-.781-.063-.422.016-.422c.093 0 .093-.11.093-.125 0-.078-.015-.094-.125-.156-.359-.235-.625-.531-.625-.86 0-.218.094-.328.375-.578.22-.156.375-.343.375-.625 0-1-1.265-1.578-1.53-1.578-.048 0-.11.047-.11.125 0 .094.062.11.14.14.641.235.829.876.829 1.204 0 .188-.063.375-.125.578-.125.344-.172.5-.172.703 0 .016 0 .172.03.266zm0 0"/></symbol><symbol overflow="visible" id="L"><path d="M-6.047-4.25c-.281-.078-.344-.11-.375-.234-.016-.094-.016-.422-.016-.625 0-1.016.032-1.454.813-1.454.156 0 .547.032.797.079.047 0 .156.03.187.03.063 0 .141-.03.141-.124 0-.11-.078-.125-.234-.156L-6.47-7c-.047-.016-.14-.016-.172-.016-.109 0-.109.094-.109.266v5.531c0 .235.016.25.203.328l1.75.594c.016 0 .156.063.188.063.046 0 .109-.063.109-.125 0-.094-.063-.11-.219-.172-1.547-.531-1.718-.797-1.718-2.266v-.39c0-.282.03-.282.125-.282.046 0 .171.031.203.047l5.328 1.328c.36.094.469.125.469 1.188 0 .36 0 .422.187.422C0-.484 0-.594 0-.656c0-.266-.016-.547-.016-.813 0-.281-.015-.578-.015-.86 0-.28.015-.546.015-.827 0-.281.016-.578.016-.86 0-.093 0-.218-.203-.218-.11 0-.11.078-.11.343 0 .235 0 .375-.015.625-.031.297-.063.375-.219.375-.015 0-.062 0-.203-.046zm0 0"/></symbol><clipPath id="l"><path d="M33.242 6.527h295.332v181.946H33.242zm0 0"/></clipPath><clipPath id="o"><path d="M33.242 6.527H283v181.946H33.242zm0 0"/></clipPath><clipPath id="q"><path d="M33.242 6.527H323v181.946H33.242zm0 0"/></clipPath><clipPath id="s"><path d="M33.242 6.527h295.332v181.946H33.242zm0 0"/></clipPath><clipPath id="u"><path d="M33.242 102h295.332v86.473H33.242zm0 0"/></clipPath></defs><path d="M57.078 188.473V6.527M74.79 188.473V6.527m12.57 181.946V6.527m9.746 181.946V6.527m7.965 181.946V6.527m6.735 181.946V6.527m5.836 181.946V6.527m5.144 181.946V6.527m4.602 181.946V6.527m30.281 181.946V6.527m17.715 181.946V6.527m12.566 181.946V6.527m9.75 181.946V6.527m7.965 181.946V6.527m6.734 181.946V6.527m5.832 181.946V6.527m5.149 181.946V6.527m4.601 181.946V6.527m30.282 181.946V6.527m17.715 181.946V6.527m12.566 181.946V6.527m9.75 181.946V6.527m7.965 181.946V6.527m6.734 181.946V6.527m5.832 181.946V6.527m5.145 181.946V6.527M127.387 188.473V6.527M227.98 188.473V6.527m100.594 181.946V6.527M33.242 152.918h295.332M33.242 116.32h295.332M33.242 79.723h295.332M33.242 43.125h295.332M33.242 6.527h295.332" fill="none" stroke-width="0.3985" stroke="rgb(75%,75%,75%)" stroke-miterlimit="10"/><path d="M57.078 188.473v-2.832m17.711 2.832v-2.832m12.57 2.832v-2.832m9.746 2.832v-2.832m7.965 2.832v-2.832m6.735 2.832v-2.832m5.836 2.832v-2.832m5.144 2.832v-2.832m4.602 2.832v-2.832m30.281 2.832v-2.832m17.715 2.832v-2.832m12.566 2.832v-2.832m9.75 2.832v-2.832m7.965 2.832v-2.832m6.734 2.832v-2.832m5.832 2.832v-2.832m5.149 2.832v-2.832m4.601 2.832v-2.832m30.282 2.832v-2.832m17.715 2.832v-2.832m12.566 2.832v-2.832m9.75 2.832v-2.832m7.965 2.832v-2.832m6.734 2.832v-2.832m5.832 2.832v-2.832m5.145 2.832v-2.832M57.079 6.527v2.836m17.71-2.836v2.836m12.57-2.836v2.836m9.746-2.836v2.836m7.965-2.836v2.836m6.735-2.836v2.836m5.836-2.836v2.836m5.144-2.836v2.836m4.602-2.836v2.836m30.281-2.836v2.836m17.715-2.836v2.836m12.566-2.836v2.836m9.75-2.836v2.836m7.965-2.836v2.836m6.734-2.836v2.836m5.832-2.836v2.836m5.149-2.836v2.836m4.601-2.836v2.836m30.282-2.836v2.836m17.715-2.836v2.836m12.566-2.836v2.836m9.75-2.836v2.836m7.965-2.836v2.836m6.734-2.836v2.836m5.832-2.836v2.836m5.145-2.836v2.836m-196.582 179.11v-4.25m100.593 4.25v-4.25m100.594 4.25v-4.25M127.387 6.527v4.254M227.98 6.527v4.254m100.594-4.254v4.254M33.242 152.918h4.25m-4.25-36.598h4.25m-4.25-36.597h4.25m-4.25-36.598h4.25m-4.25-36.598h4.25m291.082 146.391h-4.25m4.25-36.598h-4.25m4.25-36.597h-4.25m4.25-36.598h-4.25m4.25-36.598h-4.25" fill="none" stroke-width="0.19925" stroke="rgb(50%,50%,50%)" stroke-miterlimit="10"/><path d="M33.242 188.473V6.527h295.332v181.946zm0 0" fill="none" stroke-width="0.3985" stroke="rgb(0%,0%,0%)" stroke-miterlimit="10"/><g fill="rgb(0%,0%,0%)"><use xlink:href="#a" x="118.162" y="200.103"/><use xlink:href="#b" x="123.143" y="200.103"/></g><g fill="rgb(0%,0%,0%)"><use xlink:href="#c" x="128.124" y="196.488"/><use xlink:href="#d" x="132.096" y="196.488"/></g><g fill="rgb(0%,0%,0%)"><use xlink:href="#a" x="218.753" y="200.103"/><use xlink:href="#b" x="223.734" y="200.103"/></g><g fill="rgb(0%,0%,0%)"><use xlink:href="#e" x="228.715" y="196.488"/><use xlink:href="#f" x="232.687" y="196.488"/></g><g fill="rgb(0%,0%,0%)"><use xlink:href="#a" x="319.344" y="200.103"/><use xlink:href="#b" x="324.325" y="200.103"/></g><g fill="rgb(0%,0%,0%)"><use xlink:href="#e" x="329.307" y="196.488"/><use xlink:href="#c" x="333.279" y="196.488"/></g><use xlink:href="#b" x="16.969" y="156.128" fill="rgb(0%,0%,0%)"/><use xlink:href="#g" x="21.95" y="156.128" fill="rgb(0%,0%,0%)"/><use xlink:href="#h" x="24.717" y="156.128" fill="rgb(0%,0%,0%)"/><use xlink:href="#b" x="16.969" y="119.531" fill="rgb(0%,0%,0%)"/><use xlink:href="#g" x="21.95" y="119.531" fill="rgb(0%,0%,0%)"/><use xlink:href="#i" x="24.717" y="119.531" fill="rgb(0%,0%,0%)"/><use xlink:href="#b" x="16.969" y="82.934" fill="rgb(0%,0%,0%)"/><use xlink:href="#g" x="21.95" y="82.934" fill="rgb(0%,0%,0%)"/><use xlink:href="#j" x="24.717" y="82.934" fill="rgb(0%,0%,0%)"/><use xlink:href="#b" x="16.969" y="46.338" fill="rgb(0%,0%,0%)"/><use xlink:href="#g" x="21.95" y="46.338" fill="rgb(0%,0%,0%)"/><use xlink:href="#k" x="24.717" y="46.338" fill="rgb(0%,0%,0%)"/><use xlink:href="#a" x="24.717" y="9.741" fill="rgb(0%,0%,0%)"/><g clip-path="url(#l)"><path d="M33.805 147.117s8.886-6.105 12.164-8.601c3.277-2.496 8.445-6.774 11.457-9.387 3.011-2.613 7.5-6.82 10.246-9.441 2.746-2.622 6.973-6.836 9.535-9.442 2.563-2.605 6.555-6.691 8.938-9.332 2.382-2.644 6-7.05 8.23-9.719 2.234-2.664 5.695-6.879 7.86-9.496 2.163-2.617 5.597-6.75 7.75-9.367 2.148-2.617 5.55-6.844 7.745-9.5 2.2-2.652 5.766-7 8.102-9.64 2.332-2.641 6.2-6.758 8.711-9.387 2.516-2.633 6.578-7.032 9.406-9.57 2.828-2.544 7.758-6.739 10.965-8.75 3.211-2.008 8.79-4.844 12.168-5.743 3.379-.902 8.805-1.293 12.184-.734 3.382.562 9.035 2.879 12.187 4.777 3.152 1.895 7.922 6.324 10.527 8.89 2.606 2.571 6.18 6.958 8.254 9.626 2.075 2.672 4.973 6.972 6.7 9.625 1.726 2.656 4.171 6.851 5.75 9.5 1.582 2.648 4.097 6.93 5.644 9.586 1.543 2.66 3.996 6.965 5.488 9.57 1.496 2.61 3.86 6.566 5.29 9.223 1.425 2.66 3.605 7.207 5.015 9.937a737.38 737.38 0 0 0 5.149 9.735c1.445 2.68 3.722 6.93 5.27 9.59 1.546 2.656 4.16 6.902 5.874 9.57 1.711 2.668 4.535 7.004 6.461 9.66 1.926 2.656 5.063 6.824 7.418 9.48 2.36 2.653 6.648 7.098 9.57 9.66 2.918 2.563 8.196 6.633 11.48 8.82 3.286 2.188 8.805 5.298 12.188 6.942 3.383 1.64 9.274 3.903 12.196 4.899 2.918.992 8.847 2.27 8.847 2.27" fill="none" stroke-width="1.59404" stroke="rgb(84.999084%,0%,0%)" stroke-miterlimit="10"/></g><use xlink:href="#m" x="170.163" y="30.112" fill="rgb(84.999084%,0%,0%)"/><use xlink:href="#n" x="175.235" y="30.112" fill="rgb(84.999084%,0%,0%)"/><g clip-path="url(#o)"><path d="M33.875 188.473s8.797-.344 12.176-.434c3.379-.094 8.808-.121 12.187-.223 3.383-.105 8.793-.367 12.172-.527 3.38-.16 8.805-.383 12.188-.629 3.379-.25 8.797-.793 12.175-1.152 3.38-.363 8.797-.992 12.176-1.453 3.38-.461 8.797-1.34 12.176-1.883 3.379-.543 8.809-1.324 12.188-2.04 3.375-.71 8.777-2.081 12.156-3.097 3.379-1.012 8.836-2.918 12.183-4.207 3.348-1.293 8.582-3.379 11.957-5.105 3.375-1.73 9.047-5.121 12.368-7.356 3.324-2.238 8.613-6.242 11.578-8.765 2.96-2.524 7.222-6.758 9.77-9.426 2.546-2.668 6.35-6.883 8.585-9.809 2.23-2.922 5.68-8.367 7.496-11.27 1.82-2.902 4.13-7.003 5.606-9.644 1.472-2.64 3.691-6.738 5.011-9.387 1.32-2.652 3.297-7.062 4.516-9.718 1.219-2.653 3.152-6.743 4.27-9.403 1.12-2.664 2.804-7.078 3.793-9.793.992-2.71 2.43-7.062 3.335-9.77.91-2.706 2.356-7.027 3.215-9.734.856-2.71 2.176-7.117 2.965-9.789.79-2.675 1.988-6.816 2.73-9.48.743-2.664 1.907-7.04 2.614-9.715.707-2.676 1.863-7.055 2.488-9.57.63-2.516 2.024-8.567 2.024-8.567" fill="none" stroke-width="1.59404" stroke="rgb(0%,0%,69.999695%)" stroke-miterlimit="10"/></g><use xlink:href="#p" x="241.073" y="42.012" fill="rgb(0%,0%,69.999695%)"/><g clip-path="url(#q)"><path d="M33.84 174.535s8.8-.008 12.183-.058c3.383-.047 8.813-.23 12.196-.293 3.379-.067 8.797-.094 12.176-.172 3.378-.078 8.796-.274 12.175-.387 3.38-.113 8.805-.309 12.184-.426 3.379-.117 8.797-.289 12.176-.414 3.379-.125 8.8-.297 12.18-.492 3.378-.195 8.78-.617 12.163-.914 3.38-.3 8.817-.852 12.196-1.242 3.379-.39 8.781-1.075 12.16-1.575 3.379-.5 8.809-1.406 12.187-2.03 3.38-.626 8.797-1.657 12.176-2.47 3.38-.812 8.793-2.273 12.172-3.386 3.375-1.113 8.797-3.156 12.172-4.649 3.379-1.492 8.793-4.144 12.172-6.109 3.375-1.969 8.972-5.688 12.164-8.07 3.191-2.383 8.125-6.496 10.836-9.094 2.71-2.602 6.469-7 8.699-9.645 2.234-2.644 5.473-6.836 7.39-9.406 1.923-2.57 4.794-6.476 6.45-9.113 1.652-2.633 4.035-7.156 5.469-9.88 1.437-2.726 3.574-7.05 4.879-9.753 1.304-2.703 3.34-7.027 4.527-9.734 1.187-2.707 2.953-7.07 4.039-9.774 1.09-2.699 2.781-7.043 3.805-9.695 1.02-2.656 2.64-6.703 3.562-9.445.926-2.739 2.274-7.47 3.098-10.301.824-2.832 2.05-7.317 2.84-10.117.789-2.805 2.058-7.399 2.855-10.086.797-2.684 2.883-9.278 2.883-9.278" fill="none" stroke-width="1.59404" stroke="rgb(0%,69.999695%,0%)" stroke-miterlimit="10"/></g><use xlink:href="#r" x="293.456" y="45.011" fill="rgb(0%,69.999695%,0%)"/><g clip-path="url(#s)"><path d="M48.668 6.527l6.867 4.961c2.649 1.91 8.82 6.383 12.207 8.801 3.383 2.418 8.809 6.219 12.192 8.617 3.382 2.403 8.812 6.254 12.199 8.696 3.383 2.437 8.851 6.476 12.195 8.89A2339.89 2339.89 0 0 0 116.218 55c3.384 2.414 9.075 6.453 12.505 8.875 3.425 2.422 8.808 6.125 12.191 8.582 3.387 2.461 8.813 6.648 12.2 9.152 3.382 2.5 8.808 6.438 12.19 8.875 3.383 2.438 8.81 6.301 12.192 8.692 3.383 2.386 8.805 6.09 12.188 8.527 3.382 2.438 8.949 6.574 12.199 9.04 3.254 2.464 8.129 6.105 11.234 8.726 3.102 2.625 7.84 7.472 11.13 10.176 3.284 2.699 9.128 6.945 12.562 9.296 3.437 2.348 8.808 5.727 12.191 7.63 3.379 1.902 8.793 4.476 12.176 6.074 3.379 1.601 8.804 4.117 12.187 5.453 3.383 1.336 8.813 3.093 12.196 4.172 3.382 1.078 9 2.683 12.187 3.593 3.188.91 7.438 2.207 10.785 2.973 3.348.766 10.559 2.043 13.34 2.559 2.781.511 6.703 1.14 6.703 1.14" fill="none" stroke-width="1.59404" stroke="rgb(100%,50%,0%)" stroke-miterlimit="10"/></g><use xlink:href="#t" x="80.677" y="22.424" fill="rgb(100%,50%,0%)"/><g clip-path="url(#u)"><path d="M33.242 182.184s8.805-.887 12.188-1.34c3.383-.453 8.808-1.356 12.187-1.922 3.383-.57 9.063-1.598 12.18-2.168 3.117-.57 6.894-1.188 10.277-1.938 3.383-.75 10.45-2.523 14.098-3.468 3.644-.946 8.8-2.371 12.183-3.352 3.383-.98 8.805-2.617 12.192-3.715 3.383-1.097 8.82-2.96 12.203-4.191 3.383-1.23 8.793-3.328 12.172-4.684 3.375-1.355 8.797-3.648 12.176-5.086 3.379-1.437 8.797-3.82 12.18-5.27a2032.52 2032.52 0 0 1 12.187-5.179c3.383-1.418 8.797-3.738 12.18-5.05 3.378-1.313 8.808-3.31 12.187-4.41 3.383-1.098 8.8-2.759 12.18-3.513 3.383-.757 8.87-1.718 12.187-1.941 3.313-.219 8.324-.164 11.711.348 3.383.511 9.227 2.18 12.688 3.347 3.464 1.168 8.894 3.676 12.277 5.07 3.387 1.395 8.746 3.673 12.121 4.977 3.375 1.305 8.82 3.227 12.207 4.43 3.387 1.2 8.813 3.11 12.2 4.226 3.382 1.118 8.421 2.672 12.195 3.825 3.77 1.152 14.976 4.484 14.976 4.484" fill="none" stroke-width="1.59404" stroke="rgb(0%,67.83905%,93.728638%)" stroke-miterlimit="10"/></g><use xlink:href="#t" x="130.114" y="147.722" fill="rgb(0%,67.83905%,93.728638%)"/><use xlink:href="#e" x="136.797" y="144.107" fill="rgb(0%,67.83905%,93.728638%)"/><use xlink:href="#p" x="141.267" y="147.722" fill="rgb(0%,67.83905%,93.728638%)"/><g fill="rgb(0%,0%,0%)"><use xlink:href="#v" x="112.298" y="215.053"/><use xlink:href="#w" x="119.493" y="215.053"/><use xlink:href="#x" x="124.474" y="215.053"/><use xlink:href="#x" x="128.377" y="215.053"/><use xlink:href="#y" x="132.279" y="215.053"/><use xlink:href="#z" x="135.047" y="215.053"/><use xlink:href="#x" x="139.474" y="215.053"/></g><g fill="rgb(0%,0%,0%)"><use xlink:href="#A" x="146.694" y="215.053"/><use xlink:href="#B" x="151.121" y="215.053"/><use xlink:href="#C" x="156.103" y="215.053"/><use xlink:href="#A" x="161.638" y="215.053"/><use xlink:href="#z" x="166.065" y="215.053"/><use xlink:href="#C" x="170.493" y="215.053"/></g><g fill="rgb(0%,0%,0%)"><use xlink:href="#D" x="175.759" y="215.053"/><use xlink:href="#x" x="179.633" y="215.053"/></g><g fill="rgb(0%,0%,0%)"><use xlink:href="#w" x="183.526" y="215.053"/><use xlink:href="#D" x="188.507" y="215.053"/><use xlink:href="#y" x="192.381" y="215.053"/><use xlink:href="#B" x="195.149" y="215.053"/><use xlink:href="#C" x="200.13" y="215.053"/></g><use xlink:href="#E" x="208.991" y="215.053" fill="rgb(0%,0%,0%)"/><g fill="rgb(0%,0%,0%)"><use xlink:href="#F" x="218.292" y="215.053"/><use xlink:href="#A" x="222.166" y="215.053"/><use xlink:href="#G" x="226.594" y="215.053"/></g><use xlink:href="#H" x="234.896" y="211.438" fill="rgb(0%,0%,0%)"/><use xlink:href="#I" x="241.123" y="211.438" fill="rgb(0%,0%,0%)"/><use xlink:href="#J" x="245.592" y="215.053" fill="rgb(0%,0%,0%)"/><use xlink:href="#K" x="10.128" y="103.641" fill="rgb(0%,0%,0%)"/><use xlink:href="#L" x="10.128" y="98.569" fill="rgb(0%,0%,0%)"/></svg>