<svg height="294.485" viewBox="0 0 341.068 220.864" width="454.757" xmlns="http://www.w3.org/2000/svg" xmlns:xlink="http://www.w3.org/1999/xlink"><symbol id="a" overflow="visible"><path d="m2.938-6.375c0-.25 0-.266-.235-.266-.625.641-1.5.641-1.812.641v.313c.203 0 .78 0 1.296-.266v5.172c0 .36-.03.469-.921.469h-.313v.312c.344-.031 1.203-.031 1.61-.031.39 0 1.265 0 1.609.031v-.313h-.313c-.906 0-.921-.109-.921-.468zm0 0"/></symbol><symbol id="b" overflow="visible"><path d="m4.578-3.188c0-.796-.047-1.593-.39-2.328-.455-.968-1.283-1.124-1.688-1.124-.61 0-1.328.266-1.75 1.188-.313.687-.36 1.469-.36 2.266 0 .75.032 1.64.454 2.406a1.83 1.83 0 0 0 1.64 1c.532 0 1.297-.203 1.735-1.157.312-.687.36-1.468.36-2.25zm-2.094 3.188c-.39 0-.984-.25-1.156-1.203-.11-.594-.11-1.516-.11-2.11 0-.64 0-1.296.079-1.828.187-1.187.937-1.28 1.187-1.28.329 0 .985.187 1.172 1.171.11.563.11 1.313.11 1.938 0 .75 0 1.421-.11 2.062-.156.953-.719 1.25-1.172 1.25zm0 0"/></symbol><symbol id="c" overflow="visible"><path d="m1.266-.766 1.062-1.03c1.547-1.376 2.14-1.907 2.14-2.907 0-1.14-.89-1.938-2.109-1.938a1.843 1.843 0 0 0 -1.859 1.813c0 .547.5.547.531.547.172 0 .516-.11.516-.532a.513.513 0 0 0 -.531-.515c-.079 0-.094 0-.125.016.218-.657.765-1.016 1.343-1.016.907 0 1.329.812 1.329 1.625 0 .797-.485 1.578-1.047 2.203l-1.907 2.125c-.109.11-.109.14-.109.375h3.703l.266-1.734h-.235c-.062.296-.124.734-.234.89-.063.078-.719.078-.938.078zm0 0"/></symbol><symbol id="d" overflow="visible"><path d="m2.938-1.64v.859c0 .36-.032.469-.766.469h-.203v.312c.406-.031.922-.031 1.343-.031.422 0 .938 0 1.36.031v-.313h-.219c-.734 0-.75-.109-.75-.468v-.86h.985v-.312h-.985v-4.531c0-.204 0-.266-.172-.266-.078 0-.11 0-.187.125l-3.064 4.672v.312zm.046-.313h-2.421l2.421-3.719zm0 0"/></symbol><symbol id="e" overflow="visible"><path d="m1.313-3.266v-.25c0-2.515 1.234-2.875 1.75-2.875.234 0 .656.063.874.407-.156 0-.546 0-.546.437 0 .313.234.469.453.469.156 0 .469-.094.469-.484 0-.594-.438-1.079-1.266-1.079-1.281.001-2.625 1.282-2.625 3.485 0 2.672 1.156 3.375 2.078 3.375 1.11 0 2.063-.938 2.063-2.25 0-1.266-.891-2.219-2-2.219-.672 0-1.047.5-1.25.984zm1.187 3.204c-.625 0-.922-.594-.984-.75-.188-.47-.188-1.266-.188-1.438 0-.781.328-1.781 1.219-1.781.172 0 .625 0 .937.625.172.36.172.875.172 1.36 0 .483 0 .983-.172 1.343-.296.594-.75.64-.984.64zm0 0"/></symbol><symbol id="f" overflow="visible"><path d="m1.625-4.563c-.453-.296-.5-.625-.5-.796 0-.61.656-1.032 1.36-1.032.718 0 1.359.516 1.359 1.235 0 .578-.39 1.047-.985 1.39zm1.453.954c.719-.375 1.203-.891 1.203-1.547 0-.922-.875-1.485-1.781-1.485-1 0-1.813.735-1.813 1.672 0 .172.016.625.438 1.094.11.11.484.36.734.531-.578.297-1.437.844-1.437 1.844 0 1.047 1.016 1.719 2.062 1.719 1.125 0 2.079-.828 2.079-1.89 0-.36-.11-.813-.5-1.235-.188-.203-.344-.297-.985-.703zm-1 .421 1.235.782c.28.187.75.484.75 1.094 0 .734-.75 1.25-1.563 1.25-.86-.001-1.578-.61-1.578-1.438 0-.578.312-1.219 1.156-1.688zm0 0"/></symbol><symbol id="g" overflow="visible"><path d="m.563-3.406c0 2.062 1.608 3.625 3.467 3.625 1.625 0 2.594-1.39 2.594-2.547 0-.094 0-.172-.125-.172-.11 0-.11.063-.125.172-.077 1.422-1.139 2.234-2.233 2.234-.61 0-2.563-.328-2.563-3.312 0-2.969 1.953-3.313 2.563-3.313 1.078 0 1.968.907 2.171 2.36.016.14.016.171.157.171.156 0 .156-.03.156-.234v-2.36c0-.171 0-.25-.11-.25-.03 0-.077 0-.156.126l-.5.734c-.359-.36-.875-.86-1.828-.86-1.875 0-3.468 1.595-3.468 3.626zm0 0"/></symbol><symbol id="h" overflow="visible"><path d="m3.313-.75c.046.39.312.813.78.813.22 0 .829-.141.829-.954v-.562h-.25v.562c0 .579-.25.641-.36.641-.328 0-.375-.453-.375-.5v-1.984c0-.422 0-.813-.359-1.188a1.9 1.9 0 0 0 -1.36-.547c-.827 0-1.515.469-1.515 1.125 0 .297.203.469.469.469a.435.435 0 0 0 .453-.453c0-.125-.047-.453-.516-.453.282-.36.766-.469 1.079-.469.5 0 1.062.39 1.062 1.281v.36c-.516.03-1.203.062-1.828.359-.75.344-1 .86-1 1.297 0 .812.969 1.062 1.594 1.062a1.38 1.38 0 0 0 1.296-.859zm-.063-1.64v1c0 .937-.719 1.28-1.172 1.28-.484 0-.89-.343-.89-.843 0-.547.421-1.375 2.062-1.438zm0 0"/></symbol><symbol id="i" overflow="visible"><path d="m1.672-3.313v-1.093l-1.39.11v.312c.702 0 .78.062.78.562v2.672c0 .438-.109.438-.78.438v.312c.39-.016.859-.031 1.14-.031.39 0 .86 0 1.266.031v-.313h-.22c-.734 0-.75-.109-.75-.468v-1.531c0-.985.423-1.876 1.173-1.876.062 0 .093 0 .109.016-.031 0-.234.125-.234.39 0 .266.218.423.437.423a.421.421 0 0 0 .422-.438c0-.312-.313-.61-.734-.61-.735 0-1.094.673-1.22 1.095zm0 0"/></symbol><symbol id="j" overflow="visible"><path d="m1.766-4.406-1.391.11v.312c.64 0 .734.062.734.546v2.688c0 .438-.109.438-.78.438v.312c.312-.016.859-.031 1.093-.031.36 0 .703.015 1.047.031v-.313c-.672 0-.703-.046-.703-.437zm.03-1.735a.514.514 0 0 0 -.515-.53.537.537 0 0 0 -.531.53c0 .266.219.532.531.532a.514.514 0 0 0 .516-.532zm0 0"/></symbol><symbol id="k" overflow="visible"><path d="m1.11-2.516c.061-1.484.905-1.734 1.25-1.734 1.015 0 1.124 1.344 1.124 1.734zm0 .22h2.78c.22 0 .25 0 .25-.22 0-.984-.546-1.953-1.78-1.953-1.158 0-2.08 1.032-2.08 2.282.001 1.327 1.048 2.295 2.19 2.295 1.218.002 1.67-1.108 1.67-1.295 0-.094-.079-.125-.141-.125-.078 0-.11.062-.125.14-.343 1.032-1.249 1.032-1.343 1.032-.5 0-.89-.296-1.125-.671-.297-.47-.297-1.125-.297-1.485zm0 0"/></symbol><symbol id="l" overflow="visible"><path d="m1.172-2.172c0-1.625.812-2.047 1.344-2.047.093 0 .718.016 1.062.375-.406.031-.469.328-.469.453 0 .266.188.454.454.454.265 0 .468-.157.468-.47 0-.671-.765-1.062-1.531-1.062-1.25 0-2.156 1.079-2.156 2.313 0 1.281.984 2.265 2.14 2.265 1.329 0 1.657-1.203 1.657-1.296 0-.094-.11-.094-.141-.094-.078 0-.11.031-.125.093-.281.923-.938 1.048-1.297 1.048-.531 0-1.406-.421-1.406-2.03zm0 0"/></symbol><symbol id="m" overflow="visible"><path d="m4.688-2.14c0-1.266-.985-2.329-2.188-2.329-1.25 0-2.219 1.094-2.219 2.329a2.22 2.22 0 0 0 2.203 2.25c1.204 0 2.204-.984 2.204-2.25zm-2.188 2c-.438 0-.875-.204-1.14-.672-.25-.438-.25-1.047-.25-1.407 0-.39 0-.922.234-1.36a1.347 1.347 0 0 1 1.14-.671c.438 0 .86.219 1.125.656.266.422.266 1 .266 1.375 0 .36 0 .906-.219 1.344-.234.453-.672.734-1.156.734zm0 0"/></symbol><symbol id="n" overflow="visible"><path d="m1.094-3.422v2.672c0 .438-.11.438-.782.438v.312c.36-.016.86-.031 1.141-.031.25 0 .766.015 1.11.031v-.313c-.672 0-.782 0-.782-.437v-1.844c0-1.031.719-1.594 1.344-1.594.64 0 .75.532.75 1.11v2.328c0 .438-.11.438-.781.438v.312c.344-.016.86-.031 1.125-.031.25 0 .781.015 1.11.031v-.313c-.516 0-.766 0-.766-.296v-1.907c0-.859 0-1.156-.313-1.515-.14-.172-.469-.375-1.047-.375-.734 0-1.203.422-1.484 1.047v-1.047l-1.407.11v.312c.704 0 .782.062.782.562zm0 0"/></symbol><symbol id="o" overflow="visible"><path d="m1.719-3.984h1.437v-.313h-1.436v-1.828h-.25c0 .813-.297 1.875-1.282 1.922v.219h.844v2.75c0 1.218.938 1.343 1.297 1.343.703 0 .985-.703.985-1.343v-.563h-.25v.547c0 .734-.297 1.11-.672 1.11-.672 0-.672-.907-.672-1.079zm0 0"/></symbol><symbol id="p" overflow="visible"><path d="m3.297 2.39c0-.03 0-.046-.172-.218-1.234-1.25-1.563-3.14-1.563-4.672 0-1.734.375-3.469 1.61-4.703.125-.125.125-.14.125-.172 0-.078-.031-.11-.094-.11-.11 0-1 .688-1.594 1.954-.499 1.093-.625 2.203-.625 3.031 0 .781.11 1.984.657 3.125.609 1.219 1.453 1.875 1.562 1.875.063 0 .094-.031.094-.11zm0 0"/></symbol><symbol id="q" overflow="visible"><path d="m1.094-3.422v2.672c0 .438-.11.438-.782.438v.312c.36-.016.86-.031 1.141-.031.25 0 .766.015 1.11.031v-.313c-.672 0-.782 0-.782-.437v-1.844c0-1.031.719-1.594 1.344-1.594.64 0 .75.532.75 1.11v2.328c0 .438-.11.438-.781.438v.312c.344-.016.86-.031 1.125-.031.25 0 .781.015 1.11.031v-.313c-.657 0-.766 0-.766-.437v-1.844c0-1.031.703-1.594 1.343-1.594.625 0 .735.532.735 1.11v2.328c0 .438-.11.438-.782.438v.312c.344-.016.86-.031 1.125-.031.266 0 .782.015 1.125.031v-.313c-.515 0-.765 0-.78-.296v-1.907c0-.859 0-1.156-.313-1.515-.141-.172-.47-.375-1.047-.375-.828 0-1.282.593-1.438.984-.14-.875-.875-.984-1.328-.984-.734 0-1.203.422-1.484 1.047v-1.047l-1.407.11v.312c.704 0 .782.062.782.562zm0 0"/></symbol><symbol id="r" overflow="visible"><path d="m2.875-2.5c0-.766-.11-1.969-.656-3.11-.594-1.217-1.453-1.873-1.547-1.873a.107.107 0 0 0 -.11.109c0 .031 0 .047.188.234.984.985 1.547 2.563 1.547 4.641 0 1.719-.36 3.469-1.594 4.719-.14.125-.14.14-.14.172 0 .062.046.109.109.109.094 0 1-.688 1.578-1.953.516-1.094.625-2.203.625-3.047zm0 0"/></symbol><symbol id="s" overflow="visible"><path d="m2.328-4.438c0-.187 0-.187-.203-.187-.453.438-1.078.438-1.36.438v.25c.157 0 .626 0 1-.188v3.547c0 .234 0 .328-.687.328h-.266v.25c.125 0 .985-.031 1.235-.031.219 0 1.094.031 1.25.031v-.25h-.267c-.703 0-.703-.094-.703-.328zm0 0"/></symbol><symbol id="t" overflow="visible"><path d="m2.906-2.078c0 1.734-.844 2-1.265 2-.157 0-.532-.016-.72-.234a.315.315 0 0 0 .313-.329.32.32 0 0 0 -.328-.328c-.203 0-.328.14-.328.344 0 .469.39.766 1.063.766 1 0 1.937-.938 1.937-2.438 0-1.719-.765-2.328-1.578-2.328a1.55 1.55 0 0 0 -1.11.422c-.234.234-.515.5-.515 1.125 0 .89.703 1.547 1.516 1.547.562 0 .859-.375 1.015-.688zm-.969.344c-.28 0-.53-.079-.734-.407-.156-.25-.156-.546-.156-.937 0-.406 0-.672.203-.953.172-.25.39-.39.75-.39s.578.218.688.405c.187.282.203.782.203 1.016 0 .906-.516 1.266-.954 1.266zm0 0"/></symbol><symbol id="u" overflow="visible"><path d="m3.516-1.266h-.236c-.015.157-.094.563-.187.625-.047.047-.578.047-.688.047h-1.28c.734-.64.984-.844 1.39-1.172.516-.406 1-.843 1-1.5 0-.843-.734-1.359-1.624-1.359-.86 0-1.454.61-1.454 1.25 0 .344.297.39.376.39a.365.365 0 0 0 .359-.374c0-.125-.047-.375-.406-.375.218-.485.687-.641 1.015-.641.703 0 1.063.547 1.063 1.11 0 .609-.438 1.078-.656 1.328l-1.672 1.671c-.079.063-.079.079-.079.266h2.876zm0 0"/></symbol><symbol id="v" overflow="visible"><path d="m3.594-2.219c0-.765-.094-1.328-.406-1.812-.22-.313-.657-.594-1.204-.594-1.624 0-1.624 1.906-1.624 2.406s0 2.36 1.625 2.36c1.61 0 1.61-1.86 1.61-2.36zm-1.61 2.156c-.328 0-.75-.187-.89-.75-.094-.406-.094-.983-.094-1.5 0-.515 0-1.046.094-1.421.156-.547.593-.704.89-.704.375 0 .735.235.86.641.11.375.125.875.125 1.485 0 .515 0 1.03-.094 1.468-.14.64-.61.781-.89.781zm0 0"/></symbol><symbol id="w" overflow="visible"><path d="m1.906-2.328c.547 0 .938.375.938 1.125 0 .86-.516 1.125-.906 1.125-.282 0-.907-.078-1.188-.5.328 0 .406-.235.406-.39 0-.22-.172-.376-.39-.376a.38.38 0 0 0 -.391.407c0 .656.719 1.077 1.563 1.077.968 0 1.64-.657 1.64-1.344 0-.547-.437-1.094-1.203-1.25.719-.266.984-.781.984-1.219 0-.547-.625-.953-1.406-.953-.766 0-1.36.375-1.36.938 0 .234.157.359.36.359.219 0 .36-.156.36-.344 0-.203-.141-.36-.36-.375.25-.297.719-.375.985-.375.312 0 .75.156.75.75 0 .297-.094.625-.282.828-.219.266-.422.281-.765.313-.172.015-.188.015-.22.015-.015 0-.077.016-.077.094 0 .094.062.094.187.094zm0 0"/></symbol><symbol id="x" overflow="visible"><path d="m1.906-.531a.534.534 0 0 0 -.515-.531.537.537 0 0 0 -.532.53.524.524 0 1 0 1.047 0zm0 0"/></symbol><symbol id="y" overflow="visible"><path d="m1.328-.828c.531-.578.828-.828 1.188-1.14 0 0 .609-.532.968-.891.954-.922 1.172-1.407 1.172-1.454 0-.093-.093-.093-.11-.093-.077 0-.093.015-.155.11-.297.484-.5.64-.735.64-.25 0-.36-.156-.515-.328-.188-.22-.36-.422-.688-.422-.75 0-1.203.922-1.203 1.14 0 .047.031.11.11.11.093 0 .109-.047.14-.11.188-.468.766-.468.844-.468.203 0 .39.062.625.14.406.156.515.156.765.156-.359.422-1.187 1.141-1.375 1.297l-.906.844c-.672.672-1.031 1.234-1.031 1.313 0 .093.11.093.125.093.078.001.093-.015.156-.125.235-.359.531-.625.86-.625.218 0 .328.094.578.375.156.22.343.375.625.375 1 0 1.578-1.265 1.578-1.53 0-.048-.047-.11-.125-.11-.094 0-.11.062-.14.14-.235.641-.876.829-1.204.829-.188 0-.375-.063-.578-.125-.344-.125-.5-.172-.703-.172-.016 0-.172 0-.266.03zm0 0"/></symbol><symbol id="z" overflow="visible"><path d="m4.25-6.047c.078-.281.11-.344.234-.375.094-.016.422-.016.625-.016 1.016 0 1.454.032 1.454.813 0 .156-.032.547-.079.797 0 .047-.03.156-.03.187 0 .063.03.141.124.141.11 0 .125-.078.156-.234l.266-1.736c.016-.047.016-.14.016-.172 0-.109-.094-.109-.266-.109h-5.531c-.235 0-.25.016-.328.203l-.594 1.75c0 .016-.063.156-.063.188 0 .046.063.109.125.109.094 0 .11-.063.172-.219.531-1.547.797-1.718 2.266-1.718h.39c.282 0 .282.03.282.125a.775.775 0 0 1 -.047.203l-1.328 5.329c-.094.36-.125.469-1.188.469-.36 0-.422 0-.422.187 0 .125.11.125.172.125.266 0 .547-.016.813-.016.281 0 .578-.015.86-.015.28 0 .546.015.827.015s.578.016.86.016c.093 0 .218 0 .218-.203 0-.11-.078-.11-.343-.11-.235 0-.375 0-.625-.015-.297-.031-.375-.063-.375-.219 0-.015 0-.062.046-.203zm0 0"/></symbol><symbol id="A" overflow="visible"><path d="m5.156-3.719c.14 0 .5 0 .5-.344 0-.234-.218-.234-.39-.234h-2.282c-1.5 0-2.609 1.64-2.609 2.828 0 .875.594 1.579 1.5 1.579 1.172 0 2.5-1.203 2.5-2.734 0-.172 0-.656-.313-1.094zm-3.265 3.61c-.501-.001-.891-.361-.891-1.079 0-.296.11-1.109.469-1.703.422-.687 1.015-.828 1.36-.828.827 0 .905.656.905.969 0 .469-.203 1.281-.53 1.797-.392.578-.938.844-1.313.844zm0 0"/></symbol><symbol id="B" overflow="visible"><path d="m.594-.39c-.047.14-.047.156-.047.234 0 .172.14.265.297.265.297 0 .36-.234.437-.562.094-.36.032-.172.469-1.844.828.031 1.703.203 1.703.844 0 .078 0 .125-.031.234a1.909 1.909 0 0 0 -.047.344c0 .578.406.984.922.984.312 0 .578-.171.781-.515.25-.422.36-1 .36-1.016 0-.11-.079-.11-.11-.11-.11 0-.11.048-.14.188-.188.688-.422 1.235-.875 1.235-.204-.001-.313-.125-.313-.485 0-.14.031-.39.078-.547.016-.093.047-.218.047-.328 0-.937-1.375-1.015-1.938-1.031.329-.188.657-.453.922-.688.454-.374.75-.624 1.141-.796-.016.062-.047.171-.047.218 0 .125.078.36.375.36.328 0 .547-.297.547-.547 0-.078-.047-.344-.406-.344-.61 0-1.188.5-1.625.875-.688.578-.922.719-1.281.844.03-.11.156-.61.203-.781.062-.266.171-.735.171-.782 0-.171-.109-.265-.28-.265-.032 0-.313 0-.407.36zm0 0"/></symbol><symbol id="C" overflow="visible"><path d="m6.438-6.922a.12.12 0 0 0 -.125-.11c-.047 0-.047.016-.172.157l-.485.563c-.25-.47-.765-.72-1.422-.72-1.265 0-2.453 1.157-2.453 2.36 0 .797.516 1.266 1.032 1.406l1.062.282c.375.093.922.25.922 1.062 0 .89-.813 1.828-1.797 1.828-.64 0-1.75-.218-1.75-1.453 0-.234.063-.484.063-.531.015-.047.015-.063.015-.078 0-.094-.062-.11-.11-.11a.142.142 0 0 0 -.109.047c-.029.031-.593 2.313-.593 2.344 0 .047.046.094.109.094.047 0 .063-.016.188-.157l.483-.562c.422.578 1.11.719 1.687.719 1.36 0 2.532-1.328 2.532-2.563 0-.687-.344-1.031-.485-1.172-.234-.218-.39-.265-1.265-.484-.235-.063-.579-.172-.672-.188a.928.928 0 0 1 -.61-.906c0-.812.797-1.656 1.75-1.656.813 0 1.422.438 1.422 1.547 0 .312-.031.5-.031.562 0 0 0 .094.11.094.109 0 .124-.031.156-.203zm0 0"/></symbol><symbol id="D" overflow="visible"><path d="m.875-.594c-.031.156-.094.39-.094.438 0 .172.14.265.297.265a.414.414 0 0 0 .375-.28c0-.016.125-.485.188-.735l.218-.89c.047-.235.11-.454.172-.673.031-.172.11-.469.125-.5.14-.312.672-1.219 1.625-1.219.453 0 .531.375.531.704 0 .609-.484 1.89-.64 2.312-.094.234-.11.36-.11.469 0 .469.36.812.829.812.937 0 1.296-1.453 1.296-1.53 0-.11-.078-.11-.109-.11-.11 0-.11.031-.156.187-.203.672-.531 1.235-1.016 1.235-.172 0-.234-.094-.234-.329 0-.25.078-.484.172-.703.187-.53.61-1.625.61-2.203 0-.656-.423-1.062-1.141-1.062-.907 0-1.391.64-1.563.875-.047-.563-.453-.875-.922-.875-.453 0-.64.39-.734.562-.172.344-.297.938-.297.969 0 .11.094.11.11.11.109 0 .109-.016.171-.235.172-.703.375-1.188.735-1.188.187 0 .296.125.296.454 0 .218-.03.328-.156.843zm0 0"/></symbol><symbol id="E" overflow="visible"><path d="m5.188-1.578c.109 0 .28 0 .28-.156 0-.188-.171-.188-.28-.188h-4.158c-.11 0-.281 0-.281.172s.156.172.281.172zm0 0"/></symbol><symbol id="F" overflow="visible"><path d="m-.828-1.328c-.578-.531-.828-.828-1.14-1.188 0 0-.532-.609-.891-.968-.922-.954-1.407-1.172-1.454-1.172-.093 0-.093.093-.093.11 0 .077.015.093.11.155.484.297.64.5.64.735 0 .25-.156.36-.328.515-.22.188-.422.36-.422.688 0 .75.922 1.203 1.14 1.203.047 0 .11-.031.11-.11 0-.093-.047-.109-.11-.14-.468-.188-.468-.766-.468-.844 0-.203.062-.39.14-.625.156-.406.156-.515.156-.765.422.359 1.141 1.187 1.297 1.375l.844.906c.672.672 1.234 1.031 1.313 1.031.093 0 .093-.11.093-.125 0-.078-.015-.094-.125-.156-.359-.235-.625-.531-.625-.86 0-.218.094-.328.375-.578.22-.156.375-.343.375-.625 0-1-1.265-1.578-1.53-1.578-.048 0-.11.047-.11.125 0 .094.062.11.14.14.641.235.829.876.829 1.204 0 .188-.063.375-.125.578-.125.344-.172.5-.172.703 0 .016 0 .172.03.266zm0 0"/></symbol><symbol id="G" overflow="visible"><path d="m-6.047-4.25c-.281-.078-.344-.11-.375-.234-.016-.094-.016-.422-.016-.625 0-1.016.032-1.454.813-1.454.156 0 .547.032.797.079.047 0 .156.03.187.03.063 0 .141-.03.141-.124 0-.11-.078-.125-.234-.156l-1.736-.266c-.047-.016-.14-.016-.172-.016-.109 0-.109.094-.109.266v5.531c0 .235.016.25.203.328l1.75.594c.016 0 .156.063.188.063.046 0 .109-.063.109-.125 0-.094-.063-.11-.219-.172-1.547-.531-1.718-.797-1.718-2.266v-.39c0-.282.03-.282.125-.282.046 0 .171.031.203.047l5.328 1.328c.36.094.469.125.469 1.188 0 .36 0 .422.187.422.126 0 .126-.11.126-.172 0-.266-.016-.547-.016-.813 0-.281-.015-.578-.015-.86 0-.28.015-.546.015-.827s.016-.578.016-.86c0-.093 0-.218-.203-.218-.11 0-.11.078-.11.343 0 .235 0 .375-.015.625-.031.297-.063.375-.219.375-.015 0-.062 0-.203-.046zm0 0"/></symbol><clipPath id="H"><path d="m33.238 6.527h295.332v181.946h-295.332zm0 0"/></clipPath><clipPath id="I"><path d="m33.238 6.527h249.762v181.946h-249.762zm0 0"/></clipPath><clipPath id="J"><path d="m33.238 6.527h289.762v181.946h-289.762zm0 0"/></clipPath><clipPath id="K"><path d="m33.238 6.527h295.332v181.946h-295.332zm0 0"/></clipPath><clipPath id="L"><path d="m33.238 102h295.332v86.473h-295.332zm0 0"/></clipPath><g fill="none" stroke-miterlimit="10" transform="matrix(1 0 0 -1 -1783.87 188.474)"><path d="m1840.94.001v181.946m17.72-181.947v181.946m12.561-181.946v181.946m9.751-181.946v181.946m7.968-181.946v181.946m6.73-181.946v181.946m5.84-181.946v181.946m5.142-181.946v181.946m4.598-181.946v181.946m30.292-181.946v181.946m17.707-181.946v181.946m12.57-181.946v181.946m9.742-181.946v181.946m7.97-181.946v181.946m6.729-181.946v181.946m5.84-181.946v181.946m5.14-181.946v181.946m4.611-181.946v181.946m30.279-181.946v181.946m17.71-181.946v181.946m12.569-181.946v181.946m9.751-181.946v181.946m7.96-181.946v181.946m6.738-181.946v181.946m5.832-181.946v181.946m5.15-181.946v181.946m-196.591-181.945v181.946m100.601-181.947v181.946m100.59-181.946v181.946m-295.332-146.39h295.332m-295.332 36.598h295.332m-295.332 36.597h295.332m-295.332 36.598h295.332m-295.332 36.598h295.332" stroke="#bfbfbf" stroke-width=".3985"/><path d="m1840.94.001v2.832m17.72-2.832v2.832m12.562-2.832v2.832m9.75-2.832v2.832m7.968-2.832v2.832m6.73-2.832v2.832m5.84-2.832v2.832m5.141-2.832v2.832m4.598-2.832v2.832m30.293-2.832v2.832m17.707-2.832v2.832m12.57-2.832v2.832m9.742-2.832v2.832m7.97-2.832v2.832m6.73-2.832v2.832m5.84-2.832v2.832m5.14-2.832v2.832m4.61-2.832v2.832m30.28-2.832v2.832m17.709-2.832v2.832m12.57-2.832v2.832m9.75-2.832v2.832m7.961-2.832v2.832m6.738-2.832v2.832m5.832-2.832v2.832m5.149-2.832v2.832m-266.9 179.114v-2.836m17.72 2.836v-2.836m12.562 2.836v-2.836m9.75 2.836v-2.836m7.968 2.836v-2.836m6.73 2.836v-2.836m5.84 2.836v-2.836m5.141 2.836v-2.836m4.598 2.836v-2.836m30.293 2.836v-2.836m17.707 2.836v-2.836m12.57 2.836v-2.836m9.742 2.836v-2.836m7.97 2.836v-2.836m6.73 2.836v-2.836m5.84 2.836v-2.836m5.14 2.836v-2.836m4.61 2.836v-2.836m30.28 2.836v-2.836m17.708 2.836v-2.836m12.57 2.836v-2.836m9.75 2.836v-2.836m7.961 2.836v-2.836m6.738 2.836v-2.836m5.832 2.836v-2.836m5.149 2.836v-2.836m-196.59-179.11v4.25m100.601-4.25v4.25m100.59-4.25v4.25m-201.19 177.696v-4.254m100.601 4.254v-4.254m100.59 4.254v-4.254m-295.333-142.137h4.25m-4.25 36.598h4.25m-4.25 36.597h4.25m-4.25 36.598h4.25m-4.25 36.598h4.25m291.082-146.391h-4.25m4.25 36.598h-4.25m4.25 36.597h-4.25m4.25 36.598h-4.25m4.25 36.598h-4.25" stroke="#808080" stroke-width=".19925"/><path d="m1817.108.001v181.946h295.332v-181.947zm0 0" stroke="#000" stroke-width=".3985"/></g><g><use x="118.16" xlink:href="#a" y="200.103"/><use x="123.141" xlink:href="#b" y="200.103"/></g><g><use x="128.122" xlink:href="#s" y="196.488"/><use x="132.094" xlink:href="#t" y="196.488"/></g><g><use x="218.75" xlink:href="#a" y="200.103"/><use x="223.731" xlink:href="#b" y="200.103"/></g><g><use x="228.712" xlink:href="#u" y="196.488"/><use x="232.684" xlink:href="#v" y="196.488"/></g><g><use x="319.34" xlink:href="#a" y="200.103"/><use x="324.321" xlink:href="#b" y="200.103"/></g><g><use x="329.303" xlink:href="#u" y="196.488"/><use x="333.275" xlink:href="#s" y="196.488"/></g><use x="16.96" xlink:href="#b" y="156.128"/><use x="21.941" xlink:href="#x" y="156.128"/><use x="24.708" xlink:href="#c" y="156.128"/><use x="16.96" xlink:href="#b" y="119.531"/><use x="21.941" xlink:href="#x" y="119.531"/><use x="24.708" xlink:href="#d" y="119.531"/><use x="16.96" xlink:href="#b" y="82.934"/><use x="21.941" xlink:href="#x" y="82.934"/><use x="24.708" xlink:href="#e" y="82.934"/><use x="16.96" xlink:href="#b" y="46.338"/><use x="21.941" xlink:href="#x" y="46.338"/><use x="24.708" xlink:href="#f" y="46.338"/><use x="24.71" xlink:href="#a" y="9.741"/><g clip-path="url(#H)"><path d="m1817.67 41.357s8.891 6.105 12.16 8.601c3.278 2.496 8.45 6.774 11.462 9.387 3.008 2.613 7.5 6.82 10.25 9.442 2.738 2.62 6.969 6.835 9.527 9.44 2.57 2.606 6.563 6.692 8.942 9.333 2.379 2.644 6 7.05 8.23 9.719 2.23 2.664 5.7 6.879 7.86 9.496 2.167 2.617 5.597 6.75 7.75 9.367 2.148 2.617 5.55 6.844 7.75 9.496 2.199 2.656 5.757 7.004 8.097 9.645 2.332 2.64 6.203 6.757 8.711 9.386 2.512 2.633 6.582 7.032 9.402 9.57 2.829 2.544 7.758 6.739 10.97 8.75 3.21 2.008 8.788 4.844 12.167 5.747 3.383.894 8.8 1.293 12.184.73 3.379-.562 9.039-2.879 12.187-4.777 3.153-1.895 7.922-6.324 10.531-8.895 2.598-2.566 6.18-6.953 8.25-9.625 2.079-2.668 4.97-6.968 6.7-9.625 1.73-2.652 4.172-6.847 5.75-9.496a1002.82 1002.82 0 0 0 5.64-9.586c1.551-2.66 4-6.965 5.489-9.57 1.5-2.61 3.863-6.566 5.293-9.223 1.43-2.66 3.609-7.207 5.02-9.937 1.41-2.73 3.698-7.055 5.14-9.735 1.449-2.68 3.726-6.93 5.277-9.59 1.54-2.656 4.16-6.902 5.871-9.57s4.54-7.004 6.461-9.66c1.93-2.656 5.059-6.824 7.418-9.48 2.36-2.653 6.652-7.098 9.57-9.66 2.922-2.563 8.2-6.633 11.48-8.82 3.282-2.188 8.802-5.298 12.192-6.942 3.38-1.64 9.27-3.903 12.188-4.899 2.922-.992 8.851-2.27 8.851-2.27" fill="none" stroke="#d90000" stroke-miterlimit="10" stroke-width="1.59404" transform="matrix(1 0 0 -1 -1783.87 188.474)"/></g><use fill="#d90000" x="170.16" xlink:href="#y" y="30.112"/><use fill="#d90000" x="175.232" xlink:href="#z" y="30.112"/><g clip-path="url(#I)"><path d="m1817.741.001s8.8.344 12.18.434c3.379.094 8.808.121 12.187.223 3.383.105 8.793.367 12.172.527 3.38.16 8.8.383 12.18.629 3.379.25 8.8.793 12.18 1.152 3.378.363 8.8.992 12.171 1.453 3.38.461 8.797 1.34 12.18 1.883 3.379.543 8.809 1.324 12.188 2.04 3.382.71 8.78 2.081 12.16 3.097 3.37 1.012 8.832 2.918 12.18 4.207 3.351 1.293 8.581 3.379 11.953 5.105 3.378 1.73 9.046 5.121 12.367 7.356 3.332 2.238 8.62 6.242 11.582 8.765 2.96 2.524 7.219 6.758 9.77 9.426 2.55 2.668 6.35 6.883 8.59 9.809 2.23 2.922 5.679 8.367 7.487 11.27 1.82 2.902 4.133 7.003 5.614 9.644 1.468 2.64 3.687 6.738 5.008 9.387 1.32 2.652 3.3 7.062 4.511 9.718 1.219 2.653 3.16 6.743 4.278 9.403 1.113 2.664 2.8 7.078 3.793 9.793.988 2.71 2.43 7.062 3.328 9.77.91 2.706 2.36 7.027 3.218 9.734.852 2.71 2.172 7.117 2.961 9.789.79 2.675 1.993 6.816 2.73 9.48.75 2.664 1.911 7.04 2.622 9.715.7 2.676 1.86 7.055 2.488 9.57.621 2.516 2.02 8.567 2.02 8.567" fill="none" stroke="#0000b2" stroke-miterlimit="10" stroke-width="1.59404" transform="matrix(1 0 0 -1 -1783.87 188.474)"/></g><use fill="#0000b2" x="241.07" xlink:href="#A" y="42.012"/><g clip-path="url(#J)"><path d="m1817.71 13.939s8.8.008 12.18.058c3.378.047 8.808.23 12.19.293 3.392.067 8.802.094 12.18.172 3.38.078 8.801.274 12.18.387 3.371.113 8.801.309 12.18.426s8.8.289 12.18.414c3.37.125 8.8.297 12.18.492 3.37.195 8.78.617 12.16.914 3.378.3 8.82.852 12.199 1.242 3.37.39 8.781 1.075 12.16 1.575 3.371.5 8.8 1.406 12.18 2.03 3.382.626 8.8 1.657 12.18 2.47 3.382.812 8.792 2.273 12.171 3.386 3.38 1.114 8.8 3.156 12.168 4.649 3.383 1.492 8.8 4.144 12.172 6.109 3.379 1.969 8.98 5.688 12.172 8.07 3.187 2.383 8.117 6.496 10.84 9.094 2.707 2.602 6.457 7 8.687 9.645 2.242 2.644 5.473 6.836 7.39 9.406 1.923 2.57 4.802 6.476 6.45 9.113 1.652 2.633 4.04 7.156 5.473 9.88 1.437 2.726 3.578 7.05 4.879 9.753 1.308 2.703 3.34 7.027 4.53 9.734 1.188 2.707 2.95 7.07 4.04 9.774 1.09 2.699 2.777 7.043 3.8 9.695 1.02 2.656 2.637 6.703 3.567 9.445.922 2.739 2.274 7.47 3.094 10.301.816 2.832 2.047 7.317 2.84 10.117.789 2.805 2.058 7.399 2.86 10.086.788 2.684 2.878 9.278 2.878 9.278" fill="none" stroke="#00b200" stroke-miterlimit="10" stroke-width="1.59404" transform="matrix(1 0 0 -1 -1783.87 188.474)"/></g><use fill="#00b200" x="293.45" xlink:href="#B" y="45.011"/><g clip-path="url(#K)"><path d="m1832.53 181.947s4.23-3.051 6.871-4.961c2.649-1.91 8.82-6.383 12.207-8.801 3.383-2.418 8.813-6.219 12.192-8.617 3.379-2.403 8.808-6.254 12.199-8.696 3.383-2.437 8.851-6.476 12.191-8.89 3.352-2.414 8.508-6.098 11.89-8.512 3.392-2.41 9.08-6.45 12.509-8.875 3.422-2.422 8.812-6.121 12.191-8.582 3.39-2.457 8.809-6.644 12.2-9.148 3.378-2.5 8.812-6.438 12.19-8.875 3.38-2.438 8.81-6.301 12.188-8.692 3.383-2.386 8.813-6.09 12.192-8.527a778.437 778.437 0 0 0 12.199-9.04c3.25-2.464 8.133-6.105 11.23-8.726 3.102-2.625 7.84-7.472 11.13-10.176 3.292-2.699 9.132-6.945 12.57-9.296 3.43-2.348 8.8-5.727 12.18-7.63 3.39-1.902 8.8-4.476 12.183-6.074 3.379-1.601 8.808-4.117 12.187-5.453 3.38-1.336 8.813-3.093 12.192-4.172 3.39-1.078 9-2.683 12.187-3.593 3.192-.91 7.442-2.207 10.793-2.973 3.34-.766 10.559-2.043 13.34-2.559 2.777-.511 6.7-1.14 6.7-1.14" fill="none" stroke="#ff8000" stroke-miterlimit="10" stroke-width="1.59404" transform="matrix(1 0 0 -1 -1783.87 188.474)"/></g><use fill="#ff8000" x="80.67" xlink:href="#C" y="22.424"/><g clip-path="url(#L)"><path d="m1817.108 6.29s8.801.887 12.192 1.34c3.379.453 8.8 1.356 12.18 1.922 3.39.57 9.07 1.598 12.18 2.168 3.12.57 6.901 1.188 10.28 1.938 3.38.75 10.45 2.523 14.102 3.468 3.637.946 8.797 2.371 12.18 3.352 3.378.98 8.808 2.617 12.187 3.715 3.39 1.097 8.82 2.96 12.211 4.191 3.379 1.23 8.79 3.328 12.172 4.684 3.367 1.355 8.797 3.648 12.168 5.086 3.379 1.437 8.8 3.82 12.18 5.27 3.378 1.448 8.808 3.76 12.19 5.179 3.38 1.418 8.802 3.738 12.18 5.05 3.38 1.313 8.81 3.31 12.188 4.41 3.383 1.098 8.8 2.759 12.184 3.513 3.379.757 8.867 1.718 12.18 1.941 3.32.219 8.328.164 11.706-.348 3.391-.511 9.23-2.18 12.704-3.347 3.457-1.168 8.886-3.676 12.27-5.07 3.39-1.395 8.75-3.673 12.116-4.977 3.383-1.305 8.82-3.227 12.211-4.43 3.38-1.2 8.813-3.11 12.2-4.226 3.382-1.118 8.421-2.672 12.19-3.825 3.77-1.152 14.981-4.484 14.981-4.484" fill="none" stroke="#00adef" stroke-miterlimit="10" stroke-width="1.59404" transform="matrix(1 0 0 -1 -1783.87 188.474)"/></g><use fill="#00adef" x="130.11" xlink:href="#C" y="147.722"/><use fill="#00adef" x="136.793" xlink:href="#u" y="144.107"/><use fill="#00adef" x="141.263" xlink:href="#A" y="147.722"/><g><use x="112.29" xlink:href="#g" y="215.053"/><use x="119.485" xlink:href="#h" y="215.053"/><use x="124.466" xlink:href="#i" y="215.053"/><use x="128.369" xlink:href="#i" y="215.053"/><use x="132.271" xlink:href="#j" y="215.053"/><use x="135.039" xlink:href="#k" y="215.053"/><use x="139.466" xlink:href="#i" y="215.053"/></g><g><use x="146.686" xlink:href="#l" y="215.053"/><use x="151.113" xlink:href="#m" y="215.053"/><use x="156.095" xlink:href="#n" y="215.053"/><use x="161.63" xlink:href="#l" y="215.053"/><use x="166.057" xlink:href="#k" y="215.053"/><use x="170.485" xlink:href="#n" y="215.053"/></g><g><use x="175.751" xlink:href="#o" y="215.053"/><use x="179.625" xlink:href="#i" y="215.053"/></g><g><use x="183.518" xlink:href="#h" y="215.053"/><use x="188.499" xlink:href="#o" y="215.053"/><use x="192.373" xlink:href="#j" y="215.053"/><use x="195.141" xlink:href="#m" y="215.053"/><use x="200.122" xlink:href="#n" y="215.053"/></g><use x="208.983" xlink:href="#D" y="215.053"/><g><use x="218.284" xlink:href="#p" y="215.053"/><use x="222.158" xlink:href="#l" y="215.053"/><use x="226.586" xlink:href="#q" y="215.053"/></g><use x="234.888" xlink:href="#E" y="211.438"/><use x="241.115" xlink:href="#w" y="211.438"/><use x="245.584" xlink:href="#r" y="215.053"/><use x="10.12" xlink:href="#F" y="103.641"/><use x="10.12" xlink:href="#G" y="98.569"/></svg>