<svg xmlns="http://www.w3.org/2000/svg" xmlns:xlink="http://www.w3.org/1999/xlink" width="288.753" height="236.504" viewBox="0 0 216.565 177.378"><defs><symbol overflow="visible" id="b"><path style="stroke:none" d="M4.578-3.188c0-.796-.047-1.593-.39-2.328C3.733-6.484 2.905-6.64 2.5-6.64c-.61 0-1.328.266-1.75 1.188-.313.687-.36 1.469-.36 2.266 0 .75.032 1.64.454 2.406a1.83 1.83 0 0 0 1.64 1c.532 0 1.297-.203 1.735-1.157.312-.687.36-1.468.36-2.25ZM2.484 0c-.39 0-.984-.25-1.156-1.203-.11-.594-.11-1.516-.11-2.11 0-.64 0-1.296.079-1.828.187-1.187.937-1.28 1.187-1.28.329 0 .985.187 1.172 1.171.11.563.11 1.313.11 1.938 0 .75 0 1.421-.11 2.062C3.5-.297 2.937 0 2.484 0Zm0 0"/></symbol><symbol overflow="visible" id="d"><path style="stroke:none" d="M4.469-2c0-1.188-.813-2.188-1.89-2.188-.47 0-.907.157-1.267.516v-1.953c.204.063.532.125.844.125 1.235 0 1.938-.906 1.938-1.031 0-.063-.032-.11-.11-.11 0 0-.03 0-.078.032a3.22 3.22 0 0 1-1.36.296 3.4 3.4 0 0 1-1.327-.28c-.078-.032-.094-.032-.11-.032C1-6.625 1-6.547 1-6.391v2.954c0 .171 0 .25.14.25.079 0 .094-.016.141-.079.11-.156.469-.703 1.282-.703.515 0 .765.453.843.64.156.376.188.75.188 1.25 0 .36 0 .954-.25 1.376-.235.39-.61.64-1.063.64-.719 0-1.297-.53-1.469-1.109.032 0 .063.016.172.016.329 0 .5-.25.5-.485 0-.25-.171-.5-.5-.5-.14 0-.484.079-.484.532C.5-.75 1.188.219 2.297.219 3.453.219 4.469-.734 4.469-2Zm0 0"/></symbol><symbol overflow="visible" id="e"><path style="stroke:none" d="M2.938-6.375c0-.25 0-.266-.235-.266C2.078-6 1.203-6 .891-6v.313c.203 0 .78 0 1.296-.266v5.172c0 .36-.03.469-.921.469H.953V0c.344-.031 1.203-.031 1.61-.031.39 0 1.265 0 1.609.031v-.313h-.313c-.906 0-.921-.109-.921-.468Zm0 0"/></symbol><symbol overflow="visible" id="f"><path style="stroke:none" d="m1.266-.766 1.062-1.03c1.547-1.376 2.14-1.907 2.14-2.907 0-1.14-.89-1.938-2.109-1.938A1.843 1.843 0 0 0 .5-4.828c0 .547.5.547.531.547.172 0 .516-.11.516-.532a.513.513 0 0 0-.531-.515c-.079 0-.094 0-.125.016.218-.657.765-1.016 1.343-1.016.907 0 1.329.812 1.329 1.625 0 .797-.485 1.578-1.047 2.203L.609-.375C.5-.265.5-.235.5 0h3.703l.266-1.734h-.235C4.172-1.438 4.11-1 4-.844c-.063.078-.719.078-.938.078Zm0 0"/></symbol><symbol overflow="visible" id="p"><path style="stroke:none" d="M3.297 2.39c0-.03 0-.046-.172-.218C1.891.922 1.562-.968 1.562-2.5c0-1.734.375-3.469 1.61-4.703.125-.125.125-.14.125-.172 0-.078-.031-.11-.094-.11-.11 0-1 .688-1.594 1.954C1.11-4.438.984-3.328.984-2.5c0 .781.11 1.984.657 3.125C2.25 1.844 3.094 2.5 3.203 2.5c.063 0 .094-.031.094-.11Zm0 0"/></symbol><symbol overflow="visible" id="q"><path style="stroke:none" d="M2.875-2.5c0-.766-.11-1.969-.656-3.11C1.625-6.827.766-7.483.672-7.483a.107.107 0 0 0-.11.109c0 .031 0 .047.188.234.984.985 1.547 2.563 1.547 4.641C2.297-.78 1.937.97.703 2.22c-.14.125-.14.14-.14.172 0 .062.046.109.109.109.094 0 1-.688 1.578-1.953.516-1.094.625-2.203.625-3.047Zm0 0"/></symbol><symbol overflow="visible" id="u"><path style="stroke:none" d="M6.844-3.266c.156 0 .343 0 .343-.187 0-.203-.187-.203-.328-.203H.891c-.141 0-.329 0-.329.203 0 .187.188.187.329.187Zm.015 1.938c.141 0 .329 0 .329-.203 0-.188-.188-.188-.344-.188H.89c-.141 0-.329 0-.329.188 0 .203.188.203.329.203Zm0 0"/></symbol><symbol overflow="visible" id="c"><path style="stroke:none" d="M1.906-.531a.534.534 0 0 0-.515-.531.537.537 0 0 0-.532.53.524.524 0 1 0 1.047 0Zm0 0"/></symbol><symbol overflow="visible" id="k"><path style="stroke:none" d="M4.375-7.094c.047-.14.047-.172.047-.187 0-.11-.078-.203-.188-.203-.078 0-.14.03-.171.093l-3.47 9.5c-.046.141-.046.172-.046.188 0 .11.094.203.203.203.125 0 .156-.078.219-.25Zm0 0"/></symbol><symbol overflow="visible" id="l"><path style="stroke:none" d="M5.734-5.672c0-.75-.546-1.36-1.359-1.36-.578 0-.86.157-1.203.407C2.625-6.219 2.078-5.25 1.89-4.5L.297 1.828c0 .047.047.11.125.11s.11-.032.11-.047l.702-2.766c.188.61.625.969 1.36.969.719 0 1.469-.344 1.922-.781a2.486 2.486 0 0 0 .796-1.829c0-.718-.375-1.25-.734-1.484.578-.344 1.156-.953 1.156-1.672ZM3.938-4.016c-.126.047-.235.063-.485.063-.14 0-.328.015-.437-.031.03-.11.39-.079.5-.079.203 0 .296 0 .421.047Zm1.234-1.89c0 .703-.375 1.422-.89 1.734-.282-.11-.47-.125-.766-.125-.22 0-.782-.016-.782.313 0 .28.516.25.688.25.375 0 .531 0 .828-.125.375.359.422.671.438 1.125.015.578-.22 1.328-.5 1.718-.391.532-1.063.891-1.625.891-.766 0-1.141-.578-1.141-1.281 0-.094 0-.25.047-.438l.64-2.515c.22-.86.938-2.454 2.141-2.454.578 0 .922.313.922.907Zm0 0"/></symbol><symbol overflow="visible" id="m"><path style="stroke:none" d="M2.969-2.25c.156 0 .344 0 .344-.172 0-.14-.126-.14-.297-.14h-1.61c.235-.844.797-1.422 1.703-1.422h.313c.172 0 .328 0 .328-.172 0-.14-.125-.14-.297-.14h-.36c-1.296 0-2.624 1-2.624 2.515 0 1.11.75 1.89 1.797 1.89.656 0 1.296-.406 1.296-.515 0-.016 0-.125-.093-.125-.016 0-.047 0-.125.047-.313.203-.688.375-1.047.375-.578 0-1.078-.422-1.078-1.297a3.8 3.8 0 0 1 .11-.844Zm0 0"/></symbol><symbol overflow="visible" id="n"><path style="stroke:none" d="M2.297-3.5a6.05 6.05 0 0 0 .156-.64c0-.173-.125-.266-.297-.266-.015 0-.297.015-.39.36L.328 1.718c-.031.125-.031.14-.031.172 0 .14.11.265.281.265.203 0 .328-.187.344-.219.047-.078.172-.609.547-2.14.328.266.781.312.968.312.704 0 1.094-.453 1.329-.734a.904.904 0 0 0 .906.734c.344 0 .578-.234.734-.546.172-.36.297-.97.297-.985 0-.11-.094-.11-.125-.11-.094 0-.11.048-.14.188-.157.64-.344 1.235-.75 1.235-.266 0-.297-.266-.297-.454 0-.218.109-.687.187-1.046l.281-1.079c.032-.14.141-.515.172-.671.047-.235.157-.61.157-.672 0-.172-.141-.266-.297-.266-.047 0-.313.016-.391.344l-.469 1.875c-.11.5-.218.906-.25 1.015-.015.047-.484.954-1.297.954-.5 0-.734-.329-.734-.875 0-.282.063-.563.14-.844Zm0 0"/></symbol><symbol overflow="visible" id="o"><path style="stroke:none" d="M.875-.594c-.031.156-.094.39-.094.438 0 .172.14.265.297.265a.414.414 0 0 0 .375-.28c0-.016.125-.485.188-.735l.218-.89c.047-.235.11-.454.172-.673.031-.172.11-.469.125-.5.14-.312.672-1.219 1.625-1.219.453 0 .531.375.531.704 0 .609-.484 1.89-.64 2.312-.094.234-.11.36-.11.469 0 .469.36.812.829.812.937 0 1.296-1.453 1.296-1.53 0-.11-.078-.11-.109-.11-.11 0-.11.031-.156.187-.203.672-.531 1.235-1.016 1.235-.172 0-.234-.094-.234-.329 0-.25.078-.484.172-.703.187-.53.61-1.625.61-2.203 0-.656-.423-1.062-1.141-1.062-.907 0-1.391.64-1.563.875-.047-.563-.453-.875-.922-.875-.453 0-.64.39-.734.562-.172.344-.297.938-.297.969 0 .11.094.11.11.11.109 0 .109-.016.171-.235.172-.703.375-1.188.735-1.188.187 0 .296.125.296.454 0 .218-.03.328-.156.843Zm0 0"/></symbol><symbol overflow="visible" id="r"><path style="stroke:none" d="M2.86-6.813s0-.109-.126-.109c-.234 0-.953.078-1.218.11-.079 0-.188.015-.188.187 0 .125.094.125.234.125.485 0 .5.063.5.172l-.03.203L.593-.391C.547-.25.547-.234.547-.17c0 .234.203.28.297.28a.418.418 0 0 0 .328-.203c.047-.093.5-1.937.562-2.187.344.031 1.157.187 1.157.844 0 .078 0 .109-.032.218-.015.11-.03.235-.03.344 0 .578.39.984.905.984.297 0 .579-.156.797-.53.25-.438.36-.985.36-1 0-.11-.094-.11-.125-.11-.094 0-.11.047-.141.187-.203.719-.422 1.235-.86 1.235-.203 0-.328-.11-.328-.47 0-.171.047-.405.079-.562.046-.171.046-.203.046-.312 0-.64-.624-.922-1.484-1.047.313-.172.64-.484.86-.734.484-.532.937-.954 1.421-.954.063 0 .079 0 .094.016.125.016.125.016.219.078.016 0 .016.016.031.032a.569.569 0 0 0-.562.546c0 .157.109.344.375.344.265 0 .546-.219.546-.61 0-.296-.234-.624-.671-.624-.282 0-.735.078-1.454.875-.343.375-.734.781-1.109.922Zm0 0"/></symbol><symbol overflow="visible" id="t"><path style="stroke:none" d="M4.25-6.047c.078-.281.11-.344.234-.375.094-.016.422-.016.625-.016 1.016 0 1.454.032 1.454.813 0 .156-.032.547-.079.797 0 .047-.03.156-.03.187 0 .063.03.141.124.141.11 0 .125-.078.156-.234L7-6.47c.016-.047.016-.14.016-.172 0-.109-.094-.109-.266-.109H1.219c-.235 0-.25.016-.328.203l-.594 1.75c0 .016-.063.156-.063.188 0 .046.063.109.125.109.094 0 .11-.063.172-.219.531-1.547.797-1.718 2.266-1.718h.39c.282 0 .282.03.282.125a.775.775 0 0 1-.047.203L2.094-.781C2-.421 1.969-.312.906-.312c-.36 0-.422 0-.422.187C.484 0 .594 0 .656 0c.266 0 .547-.016.813-.016.281 0 .578-.015.86-.015.28 0 .546.015.827.015.281 0 .578.016.86.016.093 0 .218 0 .218-.203 0-.11-.078-.11-.343-.11-.235 0-.375 0-.625-.015-.297-.031-.375-.063-.375-.219 0-.015 0-.062.046-.203Zm0 0"/></symbol><symbol overflow="visible" id="j"><path style="stroke:none" d="M7.203-.313c-.047 0-.203.016-.234.016-.782 0-1.313-.781-1.657-1.297-.093-.172-.375-.578-.484-.75.25-.531.906-1.765 2.094-1.765.078 0 .172 0 .281.015 0-.25-.016-.265-.031-.281a1.923 1.923 0 0 0-.313-.031c-1.265 0-2 1.218-2.25 1.718-.39-.609-.53-.828-.906-1.14-.61-.531-1.156-.578-1.406-.578-1.094 0-1.735 1.11-1.735 2.265 0 1.11.61 2.25 1.704 2.25 1.265 0 2.015-1.218 2.25-1.718.406.609.53.828.906 1.14.61.531 1.156.578 1.406.578.125 0 .281-.015.375-.046Zm-2.906-1.64c-.234.531-.906 1.781-2.094 1.781C1.234-.172.781-1.234.781-2.14c0-.985.547-1.86 1.375-1.86.797 0 1.328.781 1.656 1.297.11.172.376.578.485.75Zm0 0"/></symbol><symbol overflow="visible" id="s"><path style="stroke:none" d="M.422-4.766v.25h.156c.547 0 .563.079.563.329v3.625c0 .234-.016.312-.563.312H.422V0h2.953c.984 0 1.703-.61 1.703-1.281 0-.594-.625-1.11-1.469-1.203.688-.125 1.25-.547 1.25-1.094 0-.625-.734-1.188-1.703-1.188ZM1.75-2.578v-1.656c0-.22 0-.282.328-.282H3.11c.704 0 1.063.5 1.063.938 0 .5-.469 1-1.266 1ZM2.078-.25c-.328 0-.328-.063-.328-.266v-1.859h1.484c.735 0 1.125.594 1.125 1.078C4.36-.78 3.891-.25 3.125-.25Zm0 0"/></symbol><symbol overflow="visible" id="v"><path style="stroke:none" d="M2.328-4.438c0-.187 0-.187-.203-.187-.453.438-1.078.438-1.36.438v.25c.157 0 .626 0 1-.188v3.547c0 .234 0 .328-.687.328H.812V0c.125 0 .985-.031 1.235-.031.219 0 1.094.031 1.25.031v-.25H3.03c-.703 0-.703-.094-.703-.328Zm0 0"/></symbol><symbol overflow="visible" id="w"><path style="stroke:none" d="M1.078-3.89c.36.093.563.093.672.093.922 0 1.469-.625 1.469-.734 0-.078-.047-.094-.078-.094-.016 0-.032 0-.063.016-.172.062-.531.203-1.047.203-.203 0-.562-.016-1.015-.188-.079-.031-.094-.031-.094-.031-.094 0-.094.078-.094.188v2.046c0 .125 0 .204.11.204.062 0 .078 0 .14-.094.297-.375.734-.438.969-.438a.72.72 0 0 1 .64.39c.126.235.172.5.172.907 0 .203 0 .61-.218.922a.984.984 0 0 1-.813.422c-.453 0-.922-.25-1.094-.719.266.016.407-.156.407-.344 0-.296-.266-.343-.36-.343 0 0-.344 0-.344.375 0 .625.579 1.25 1.407 1.25.89 0 1.672-.657 1.672-1.547 0-.782-.594-1.5-1.454-1.5-.312 0-.671.062-.984.328Zm0 0"/></symbol><symbol overflow="visible" id="x"><path style="stroke:none" d="M3.516-1.266H3.28c-.015.157-.094.563-.187.625-.047.047-.578.047-.688.047h-1.28c.734-.64.984-.844 1.39-1.172.516-.406 1-.843 1-1.5 0-.843-.734-1.359-1.624-1.359-.86 0-1.454.61-1.454 1.25 0 .344.297.39.376.39a.365.365 0 0 0 .359-.374c0-.125-.047-.375-.406-.375.218-.485.687-.641 1.015-.641.703 0 1.063.547 1.063 1.11 0 .609-.438 1.078-.656 1.328L.516-.266C.437-.203.437-.187.437 0h2.876Zm0 0"/></symbol><clipPath id="a"><path d="M212 159h4.566v5H212Zm0 0"/></clipPath><clipPath id="g"><path d="M21.895 16h194.273v145.793H21.895Zm0 0"/></clipPath><clipPath id="h"><path d="M21.895 26h194.273v135.793H21.895Zm0 0"/></clipPath><clipPath id="i"><path d="M85 13h43v148.793H85Zm0 0"/></clipPath></defs><path style="fill:none;stroke-width:.79701;stroke-linecap:butt;stroke-linejoin:miter;stroke:#000;stroke-opacity:1;stroke-miterlimit:10" d="M42.234-2.126v4.254m42.234-4.254v4.254m42.23-4.254v4.254m42.235-4.254v4.254M-2.125 67.249h4.25m-4.25 67.246h4.25M0-.001h191.683" transform="matrix(1 0 0 -1 21.895 161.792)"/><g clip-path="url(#a)"><path style="stroke:none;fill-rule:nonzero;fill:#000;fill-opacity:1" d="m216.168 161.793-4.145-2.074 1.555 2.074-1.555 2.07"/></g><path style="fill:none;stroke-width:.79701;stroke-linecap:butt;stroke-linejoin:miter;stroke:#000;stroke-opacity:1;stroke-miterlimit:10" d="M0-.001v158.805" transform="matrix(1 0 0 -1 21.895 161.792)"/><path style="stroke:none;fill-rule:nonzero;fill:#000;fill-opacity:1" d="m21.895.398-2.07 4.145 2.07-1.555 2.074 1.555"/><use xlink:href="#b" x="57.763" y="174.057" style="fill:#000;fill-opacity:1"/><use xlink:href="#c" x="62.745" y="174.057" style="fill:#000;fill-opacity:1"/><use xlink:href="#d" x="65.512" y="174.057" style="fill:#000;fill-opacity:1"/><use xlink:href="#e" x="103.87" y="174.057" style="fill:#000;fill-opacity:1"/><use xlink:href="#e" x="142.229" y="174.057" style="fill:#000;fill-opacity:1"/><use xlink:href="#c" x="147.21" y="174.057" style="fill:#000;fill-opacity:1"/><use xlink:href="#d" x="149.978" y="174.057" style="fill:#000;fill-opacity:1"/><use xlink:href="#f" x="188.336" y="174.057" style="fill:#000;fill-opacity:1"/><use xlink:href="#b" x="3.32" y="97.755" style="fill:#000;fill-opacity:1"/><use xlink:href="#c" x="8.302" y="97.755" style="fill:#000;fill-opacity:1"/><use xlink:href="#d" x="11.069" y="97.755" style="fill:#000;fill-opacity:1"/><use xlink:href="#e" x="11.069" y="30.507" style="fill:#000;fill-opacity:1"/><g clip-path="url(#g)"><path style="fill:none;stroke-width:.79701;stroke-linecap:butt;stroke-linejoin:miter;stroke:red;stroke-opacity:1;stroke-miterlimit:10" d="M0 133.593s5.847-.348 8.093-.543c2.246-.2 5.852-.563 8.098-.875 2.246-.317 5.848-.895 8.094-1.39 2.246-.493 5.847-1.407 8.093-2.18 2.247-.77 5.848-2.2 8.094-3.372 2.246-1.175 5.852-3.351 8.098-5.082 2.246-1.734 5.847-4.957 8.094-7.398 2.246-2.441 5.847-6.973 8.093-10.2 2.246-3.226 5.848-9.132 8.094-13.062 2.246-3.933 5.852-10.93 8.098-15.273 2.246-4.34 5.847-11.711 8.094-16.02 2.246-4.312 5.847-11.195 8.093-15.047 2.246-3.847 5.848-9.582 8.094-12.707 2.246-3.125 5.852-7.472 8.098-9.812 2.246-2.34 5.847-5.414 8.093-7.063 2.246-1.648 5.848-3.718 8.094-4.828 2.246-1.113 5.848-2.465 8.094-3.191 2.246-.727 5.848-1.59 8.098-2.059 2.246-.465 5.847-1.012 8.093-1.308 2.246-.293 5.848-.637 8.094-.82 2.246-.188 5.848-.4 8.094-.516 2.246-.117 5.847-.25 8.094-.32a685.68 685.68 0 0 1 8.097-.2c2.246-.047 8.094-.125 8.094-.125" transform="matrix(1 0 0 -1 21.895 161.792)"/><path style="fill:none;stroke-width:.79701;stroke-linecap:butt;stroke-linejoin:miter;stroke:#ff8000;stroke-opacity:1;stroke-miterlimit:10" d="M0 134.495h43.17c.543 0 1.418-.004 1.961-.004h3.926c.543-.004 1.418-.004 1.961-.004.547 0 1.418 0 1.965-.004.543 0 1.418-.004 1.96-.007.548-.004 1.419-.016 1.962-.024.547-.008 1.418-.015 1.965-.027.543-.012 1.418-.031 1.96-.055.547-.02 1.419-.055 1.965-.094a37.277 37.277 0 0 0 1.961-.175c.543-.067 1.418-.188 1.961-.305.547-.121 1.418-.34 1.965-.547.543-.21 1.418-.598 1.961-.965.543-.37 1.418-1.054 1.961-1.691.547-.64 1.418-1.832 1.965-2.914.543-1.086 1.418-3.133 1.96-4.907.544-1.773 1.419-5.144 1.962-7.882.547-2.735 1.418-7.973 1.965-11.84.543-3.867 1.418-11.172 1.96-16.024.543-4.847 1.418-13.656 1.961-18.925.547-5.27 1.418-14.141 1.965-19.055.543-4.91 1.418-12.39 1.961-16.356.547-3.96 1.418-9.375 1.965-12.207.543-2.832 1.414-6.351 1.961-8.199.543-1.847 1.418-3.988 1.96-5.125.548-1.133 1.419-2.387 1.966-3.058.543-.668 1.418-1.387 1.96-1.774.544-.387 1.419-.797 1.962-1.015.547-.22 1.418-.45 1.965-.575.542-.125 1.417-.254 1.96-.324a41.54 41.54 0 0 1 1.961-.18 66.177 66.177 0 0 1 1.965-.105 164.244 164.244 0 0 1 3.922-.086 321.82 321.82 0 0 1 1.965-.02l1.96-.011c.548 0 1.419-.004 1.966-.004.543 0 1.418-.004 1.96-.004h3.926c.543 0 1.418-.004 1.961-.004h68.68" transform="matrix(1 0 0 -1 21.895 161.792)"/></g><g clip-path="url(#h)"><path style="fill:none;stroke-width:.79701;stroke-linecap:butt;stroke-linejoin:miter;stroke:#00f;stroke-opacity:1;stroke-miterlimit:10" d="M0 134.495h84.468V0h109.805" transform="matrix(1 0 0 -1 21.895 161.792)"/></g><g clip-path="url(#i)"><path style="fill:none;stroke-width:.3985;stroke-linecap:butt;stroke-linejoin:miter;stroke:#000;stroke-opacity:1;stroke-dasharray:2.98883,2.98883;stroke-miterlimit:10" d="M63.351 147.944V0h42.23v147.945" transform="matrix(1 0 0 -1 21.895 161.792)"/></g><path style="fill:none;stroke-width:.3985;stroke-linecap:butt;stroke-linejoin:miter;stroke:#000;stroke-opacity:1;stroke-miterlimit:10" d="M64.804 141.222h39.324" transform="matrix(1 0 0 -1 21.895 161.792)"/><path style="fill:none;stroke-width:.31879;stroke-linecap:round;stroke-linejoin:round;stroke:#000;stroke-opacity:1;stroke-miterlimit:10" d="M-1.195 1.593C-1.097.995 0 .101.297 0 0-.098-1.097-.997-1.195-1.594" transform="matrix(-1 0 0 1 86.7 20.571)"/><path style="fill:none;stroke-width:.31879;stroke-linecap:round;stroke-linejoin:round;stroke:#000;stroke-opacity:1;stroke-miterlimit:10" d="M-1.196 1.594C-1.094.997 0 .098.3.001 0-.101-1.094-.995-1.196-1.593" transform="matrix(1 0 0 -1 126.024 20.571)"/><use xlink:href="#j" x="93.041" y="14.562" style="fill:#000;fill-opacity:1"/><use xlink:href="#e" x="103.557" y="14.562" style="fill:#000;fill-opacity:1"/><g style="fill:#000;fill-opacity:1"><use xlink:href="#k" x="108.539" y="14.562"/><use xlink:href="#l" x="113.52" y="14.562"/></g><g style="fill:#000;fill-opacity:1"><use xlink:href="#m" x="197.419" y="155.582"/><use xlink:href="#k" x="201.463" y="155.582"/><use xlink:href="#n" x="206.444" y="155.582"/></g><use xlink:href="#o" x="25.614" y="11.589" style="fill:#000;fill-opacity:1"/><use xlink:href="#p" x="31.594" y="11.589" style="fill:#000;fill-opacity:1"/><use xlink:href="#m" x="35.469" y="11.589" style="fill:#000;fill-opacity:1"/><use xlink:href="#q" x="39.512" y="11.589" style="fill:#000;fill-opacity:1"/><path style="fill-rule:nonzero;fill:#fff;fill-opacity:1;stroke-width:.79701;stroke-linecap:butt;stroke-linejoin:miter;stroke:#000;stroke-opacity:1;stroke-miterlimit:10" d="M114.14 113.702h75.848v44.067H114.14Zm0 0" transform="matrix(1 0 0 -1 21.895 161.792)"/><path style="fill:none;stroke-width:.79701;stroke-linecap:butt;stroke-linejoin:miter;stroke:red;stroke-opacity:1;stroke-miterlimit:10" d="M0 .001h17.008" transform="matrix(1 0 0 -1 139.422 12.966)"/><use xlink:href="#r" x="158.821" y="16.427" style="fill:#000;fill-opacity:1"/><use xlink:href="#s" x="164.007" y="17.922" style="fill:#000;fill-opacity:1"/><use xlink:href="#t" x="170.075" y="16.427" style="fill:#000;fill-opacity:1"/><use xlink:href="#u" x="180.048" y="16.427" style="fill:#000;fill-opacity:1"/><use xlink:href="#v" x="191.759" y="12.505" style="fill:#000;fill-opacity:1"/><path style="fill:none;stroke-width:.398;stroke-linecap:butt;stroke-linejoin:miter;stroke:#000;stroke-opacity:1;stroke-miterlimit:10" d="M-.001-.002H3.97" transform="matrix(1 0 0 -1 191.759 13.936)"/><use xlink:href="#w" x="191.759" y="19.863" style="fill:#000;fill-opacity:1"/><use xlink:href="#n" x="196.926" y="16.427" style="fill:#000;fill-opacity:1"/><path style="fill:none;stroke-width:.79701;stroke-linecap:butt;stroke-linejoin:miter;stroke:#ff8000;stroke-opacity:1;stroke-miterlimit:10" d="M0-.001h17.008" transform="matrix(1 0 0 -1 139.422 26.862)"/><use xlink:href="#r" x="158.821" y="30.323" style="fill:#000;fill-opacity:1"/><use xlink:href="#s" x="164.007" y="31.818" style="fill:#000;fill-opacity:1"/><use xlink:href="#t" x="170.075" y="30.323" style="fill:#000;fill-opacity:1"/><use xlink:href="#u" x="180.048" y="30.323" style="fill:#000;fill-opacity:1"/><use xlink:href="#v" x="193.745" y="26.401" style="fill:#000;fill-opacity:1"/><path style="fill:none;stroke-width:.398;stroke-linecap:butt;stroke-linejoin:miter;stroke:#000;stroke-opacity:1;stroke-miterlimit:10" d="M-.001.001H7.94" transform="matrix(1 0 0 -1 191.759 27.833)"/><g style="fill:#000;fill-opacity:1"><use xlink:href="#x" x="191.759" y="33.759"/><use xlink:href="#w" x="195.731" y="33.759"/></g><use xlink:href="#n" x="200.897" y="30.323" style="fill:#000;fill-opacity:1"/><path style="fill:none;stroke-width:.79701;stroke-linecap:butt;stroke-linejoin:miter;stroke:#00f;stroke-opacity:1;stroke-miterlimit:10" d="M0 0h17.008" transform="matrix(1 0 0 -1 139.422 39.954)"/><use xlink:href="#t" x="158.821" y="42.611" style="fill:#000;fill-opacity:1"/><use xlink:href="#u" x="168.794" y="42.611" style="fill:#000;fill-opacity:1"/><use xlink:href="#b" x="179.313" y="42.611" style="fill:#000;fill-opacity:1"/></svg>