<svg height="236.504" viewBox="0 0 216.565 177.378" width="288.753" xmlns="http://www.w3.org/2000/svg" xmlns:xlink="http://www.w3.org/1999/xlink"><symbol id="a" overflow="visible"><path d="m4.578-3.188c0-.796-.047-1.593-.39-2.328-.455-.968-1.283-1.124-1.688-1.124-.61 0-1.328.266-1.75 1.188-.313.687-.36 1.469-.36 2.266 0 .75.032 1.64.454 2.406a1.83 1.83 0 0 0 1.64 1c.532 0 1.297-.203 1.735-1.157.312-.687.36-1.468.36-2.25zm-2.094 3.188c-.39 0-.984-.25-1.156-1.203-.11-.594-.11-1.516-.11-2.11 0-.64 0-1.296.079-1.828.187-1.187.937-1.28 1.187-1.28.329 0 .985.187 1.172 1.171.11.563.11 1.313.11 1.938 0 .75 0 1.421-.11 2.062-.156.953-.719 1.25-1.172 1.25zm0 0"/></symbol><symbol id="b" overflow="visible"><path d="m4.469-2c0-1.188-.813-2.188-1.89-2.188-.47 0-.907.157-1.267.516v-1.953c.204.063.532.125.844.125 1.235 0 1.938-.906 1.938-1.031 0-.063-.032-.11-.11-.11 0 0-.03 0-.078.032a3.22 3.22 0 0 1 -1.36.296 3.4 3.4 0 0 1 -1.327-.28c-.078-.032-.094-.032-.11-.032-.109 0-.109.078-.109.234v2.954c0 .171 0 .25.14.25.079 0 .094-.016.141-.079.11-.156.469-.703 1.282-.703.515 0 .765.453.843.64.156.376.188.75.188 1.25 0 .36 0 .954-.25 1.376-.235.39-.61.64-1.063.64-.719 0-1.297-.53-1.469-1.109.032 0 .063.016.172.016.329 0 .5-.25.5-.485 0-.25-.171-.5-.5-.5-.14 0-.484.079-.484.532 0 .859.688 1.828 1.797 1.828 1.156 0 2.172-.953 2.172-2.219zm0 0"/></symbol><symbol id="c" overflow="visible"><path d="m2.938-6.375c0-.25 0-.266-.235-.266-.625.641-1.5.641-1.812.641v.313c.203 0 .78 0 1.296-.266v5.172c0 .36-.03.469-.921.469h-.313v.312c.344-.031 1.203-.031 1.61-.031.39 0 1.265 0 1.609.031v-.313h-.313c-.906 0-.921-.109-.921-.468zm0 0"/></symbol><symbol id="d" overflow="visible"><path d="m1.266-.766 1.062-1.03c1.547-1.376 2.14-1.907 2.14-2.907 0-1.14-.89-1.938-2.109-1.938a1.843 1.843 0 0 0 -1.859 1.813c0 .547.5.547.531.547.172 0 .516-.11.516-.532a.513.513 0 0 0 -.531-.515c-.079 0-.094 0-.125.016.218-.657.765-1.016 1.343-1.016.907 0 1.329.812 1.329 1.625 0 .797-.485 1.578-1.047 2.203l-1.907 2.125c-.109.11-.109.14-.109.375h3.703l.266-1.734h-.235c-.062.296-.124.734-.234.89-.063.078-.719.078-.938.078zm0 0"/></symbol><symbol id="e" overflow="visible"><path d="m3.297 2.39c0-.03 0-.046-.172-.218-1.234-1.25-1.563-3.14-1.563-4.672 0-1.734.375-3.469 1.61-4.703.125-.125.125-.14.125-.172 0-.078-.031-.11-.094-.11-.11 0-1 .688-1.594 1.954-.499 1.093-.625 2.203-.625 3.031 0 .781.11 1.984.657 3.125.609 1.219 1.453 1.875 1.562 1.875.063 0 .094-.031.094-.11zm0 0"/></symbol><symbol id="f" overflow="visible"><path d="m2.875-2.5c0-.766-.11-1.969-.656-3.11-.594-1.217-1.453-1.873-1.547-1.873a.107.107 0 0 0 -.11.109c0 .031 0 .047.188.234.984.985 1.547 2.563 1.547 4.641 0 1.719-.36 3.469-1.594 4.719-.14.125-.14.14-.14.172 0 .062.046.109.109.109.094 0 1-.688 1.578-1.953.516-1.094.625-2.203.625-3.047zm0 0"/></symbol><symbol id="g" overflow="visible"><path d="m6.844-3.266c.156 0 .343 0 .343-.187 0-.203-.187-.203-.328-.203h-5.968c-.141 0-.329 0-.329.203 0 .187.188.187.329.187zm.015 1.938c.141 0 .329 0 .329-.203 0-.188-.188-.188-.344-.188h-5.954c-.141 0-.329 0-.329.188 0 .203.188.203.329.203zm0 0"/></symbol><symbol id="h" overflow="visible"><path d="m1.906-.531a.534.534 0 0 0 -.515-.531.537.537 0 0 0 -.532.53.524.524 0 1 0 1.047 0zm0 0"/></symbol><symbol id="i" overflow="visible"><path d="m4.375-7.094c.047-.14.047-.172.047-.187 0-.11-.078-.203-.188-.203-.078 0-.14.03-.171.093l-3.47 9.5c-.046.141-.046.172-.046.188 0 .11.094.203.203.203.125 0 .156-.078.219-.25zm0 0"/></symbol><symbol id="j" overflow="visible"><path d="m5.734-5.672c0-.75-.546-1.36-1.359-1.36-.578 0-.86.157-1.203.407-.547.406-1.094 1.375-1.282 2.125l-1.593 6.328c0 .047.047.11.125.11s.11-.032.11-.047l.702-2.766c.188.61.625.969 1.36.969.719 0 1.469-.344 1.922-.781a2.486 2.486 0 0 0 .796-1.829c0-.718-.375-1.25-.734-1.484.578-.344 1.156-.953 1.156-1.672zm-1.796 1.656c-.126.047-.235.063-.485.063-.14 0-.328.015-.437-.031.03-.11.39-.079.5-.079.203 0 .296 0 .421.047zm1.234-1.89c0 .703-.375 1.422-.89 1.734-.282-.11-.47-.125-.766-.125-.22 0-.782-.016-.782.313 0 .28.516.25.688.25.375 0 .531 0 .828-.125.375.359.422.671.438 1.125.015.578-.22 1.328-.5 1.718-.391.532-1.063.891-1.625.891-.766 0-1.141-.578-1.141-1.281 0-.094 0-.25.047-.438l.64-2.515c.22-.86.938-2.454 2.141-2.454.578 0 .922.313.922.907zm0 0"/></symbol><symbol id="k" overflow="visible"><path d="m2.969-2.25c.156 0 .344 0 .344-.172 0-.14-.126-.14-.297-.14h-1.61c.235-.844.797-1.422 1.703-1.422h.313c.172 0 .328 0 .328-.172 0-.14-.125-.14-.297-.14h-.36c-1.296 0-2.624 1-2.624 2.515 0 1.11.75 1.89 1.797 1.89.656 0 1.296-.406 1.296-.515 0-.016 0-.125-.093-.125-.016 0-.047 0-.125.047-.313.203-.688.375-1.047.375-.578 0-1.078-.422-1.078-1.297a3.8 3.8 0 0 1 .11-.844zm0 0"/></symbol><symbol id="l" overflow="visible"><path d="m2.297-3.5a6.05 6.05 0 0 0 .156-.64c0-.173-.125-.266-.297-.266-.015 0-.297.015-.39.36l-1.438 5.764c-.031.125-.031.14-.031.172 0 .14.11.265.281.265.203 0 .328-.187.344-.219.047-.078.172-.609.547-2.14.328.266.781.312.968.312.704 0 1.094-.453 1.329-.734a.904.904 0 0 0 .906.734c.344 0 .578-.234.734-.546.172-.36.297-.97.297-.985 0-.11-.094-.11-.125-.11-.094 0-.11.048-.14.188-.157.64-.344 1.235-.75 1.235-.266 0-.297-.266-.297-.454 0-.218.109-.687.187-1.046l.281-1.079c.032-.14.141-.515.172-.671.047-.235.157-.61.157-.672 0-.172-.141-.266-.297-.266-.047 0-.313.016-.391.344l-.469 1.875c-.11.5-.218.906-.25 1.015-.015.047-.484.954-1.297.954-.5 0-.734-.329-.734-.875 0-.282.063-.563.14-.844zm0 0"/></symbol><symbol id="m" overflow="visible"><path d="m.875-.594c-.031.156-.094.39-.094.438 0 .172.14.265.297.265a.414.414 0 0 0 .375-.28c0-.016.125-.485.188-.735l.218-.89c.047-.235.11-.454.172-.673.031-.172.11-.469.125-.5.14-.312.672-1.219 1.625-1.219.453 0 .531.375.531.704 0 .609-.484 1.89-.64 2.312-.094.234-.11.36-.11.469 0 .469.36.812.829.812.937 0 1.296-1.453 1.296-1.53 0-.11-.078-.11-.109-.11-.11 0-.11.031-.156.187-.203.672-.531 1.235-1.016 1.235-.172 0-.234-.094-.234-.329 0-.25.078-.484.172-.703.187-.53.61-1.625.61-2.203 0-.656-.423-1.062-1.141-1.062-.907 0-1.391.64-1.563.875-.047-.563-.453-.875-.922-.875-.453 0-.64.39-.734.562-.172.344-.297.938-.297.969 0 .11.094.11.11.11.109 0 .109-.016.171-.235.172-.703.375-1.188.735-1.188.187 0 .296.125.296.454 0 .218-.03.328-.156.843zm0 0"/></symbol><symbol id="n" overflow="visible"><path d="m2.86-6.813s0-.109-.126-.109c-.234 0-.953.078-1.218.11-.079 0-.188.015-.188.187 0 .125.094.125.234.125.485 0 .5.063.5.172l-.03.203-1.439 5.734c-.046.141-.046.157-.046.221 0 .234.203.28.297.28a.418.418 0 0 0 .328-.203c.047-.093.5-1.937.562-2.187.344.031 1.157.187 1.157.844 0 .078 0 .109-.032.218-.015.11-.03.235-.03.344 0 .578.39.984.905.984.297 0 .579-.156.797-.53.25-.438.36-.985.36-1 0-.11-.094-.11-.125-.11-.094 0-.11.047-.141.187-.203.719-.422 1.235-.86 1.235-.203 0-.328-.11-.328-.47 0-.171.047-.405.079-.562.046-.171.046-.203.046-.312 0-.64-.624-.922-1.484-1.047.313-.172.64-.484.86-.734.484-.532.937-.954 1.421-.954.063 0 .079 0 .094.016.125.016.125.016.219.078.016 0 .016.016.031.032a.569.569 0 0 0 -.562.546c0 .157.109.344.375.344.265 0 .546-.219.546-.61 0-.296-.234-.624-.671-.624-.282 0-.735.078-1.454.875-.343.375-.734.781-1.109.922zm0 0"/></symbol><symbol id="o" overflow="visible"><path d="m4.25-6.047c.078-.281.11-.344.234-.375.094-.016.422-.016.625-.016 1.016 0 1.454.032 1.454.813 0 .156-.032.547-.079.797 0 .047-.03.156-.03.187 0 .063.03.141.124.141.11 0 .125-.078.156-.234l.266-1.736c.016-.047.016-.14.016-.172 0-.109-.094-.109-.266-.109h-5.531c-.235 0-.25.016-.328.203l-.594 1.75c0 .016-.063.156-.063.188 0 .046.063.109.125.109.094 0 .11-.063.172-.219.531-1.547.797-1.718 2.266-1.718h.39c.282 0 .282.03.282.125a.775.775 0 0 1 -.047.203l-1.328 5.329c-.094.36-.125.469-1.188.469-.36 0-.422 0-.422.187 0 .125.11.125.172.125.266 0 .547-.016.813-.016.281 0 .578-.015.86-.015.28 0 .546.015.827.015s.578.016.86.016c.093 0 .218 0 .218-.203 0-.11-.078-.11-.343-.11-.235 0-.375 0-.625-.015-.297-.031-.375-.063-.375-.219 0-.015 0-.062.046-.203zm0 0"/></symbol><symbol id="p" overflow="visible"><path d="m7.203-.313c-.047 0-.203.016-.234.016-.782 0-1.313-.781-1.657-1.297-.093-.172-.375-.578-.484-.75.25-.531.906-1.765 2.094-1.765.078 0 .172 0 .281.015 0-.25-.016-.265-.031-.281a1.923 1.923 0 0 0 -.313-.031c-1.265 0-2 1.218-2.25 1.718-.39-.609-.53-.828-.906-1.14-.61-.531-1.156-.578-1.406-.578-1.094 0-1.735 1.11-1.735 2.265 0 1.11.61 2.25 1.704 2.25 1.265 0 2.015-1.218 2.25-1.718.406.609.53.828.906 1.14.61.531 1.156.578 1.406.578.125 0 .281-.015.375-.046zm-2.906-1.64c-.234.531-.906 1.781-2.094 1.781-.969 0-1.422-1.062-1.422-1.968 0-.985.547-1.86 1.375-1.86.797 0 1.328.781 1.656 1.297.11.172.376.578.485.75zm0 0"/></symbol><symbol id="q" overflow="visible"><path d="m.422-4.766v.25h.156c.547 0 .563.079.563.329v3.625c0 .234-.016.312-.563.312h-.156v.25h2.953c.984 0 1.703-.61 1.703-1.281 0-.594-.625-1.11-1.469-1.203.688-.125 1.25-.547 1.25-1.094 0-.625-.734-1.188-1.703-1.188zm1.328 2.188v-1.656c0-.22 0-.282.328-.282h1.032c.704 0 1.063.5 1.063.938 0 .5-.469 1-1.266 1zm.328 2.328c-.328 0-.328-.063-.328-.266v-1.859h1.484c.735 0 1.125.594 1.125 1.078.001.517-.468 1.047-1.234 1.047zm0 0"/></symbol><symbol id="r" overflow="visible"><path d="m2.328-4.438c0-.187 0-.187-.203-.187-.453.438-1.078.438-1.36.438v.25c.157 0 .626 0 1-.188v3.547c0 .234 0 .328-.687.328h-.266v.25c.125 0 .985-.031 1.235-.031.219 0 1.094.031 1.25.031v-.25h-.267c-.703 0-.703-.094-.703-.328zm0 0"/></symbol><symbol id="s" overflow="visible"><path d="m1.078-3.89c.36.093.563.093.672.093.922 0 1.469-.625 1.469-.734 0-.078-.047-.094-.078-.094-.016 0-.032 0-.063.016-.172.062-.531.203-1.047.203-.203 0-.562-.016-1.015-.188-.079-.031-.094-.031-.094-.031-.094 0-.094.078-.094.188v2.046c0 .125 0 .204.11.204.062 0 .078 0 .14-.094.297-.375.734-.438.969-.438a.72.72 0 0 1 .64.39c.126.235.172.5.172.907 0 .203 0 .61-.218.922a.984.984 0 0 1 -.813.422c-.453 0-.922-.25-1.094-.719.266.016.407-.156.407-.344 0-.296-.266-.343-.36-.343 0 0-.344 0-.344.375 0 .625.579 1.25 1.407 1.25.89 0 1.672-.657 1.672-1.547 0-.782-.594-1.5-1.454-1.5-.312 0-.671.062-.984.328zm0 0"/></symbol><symbol id="t" overflow="visible"><path d="m3.516-1.266h-.236c-.015.157-.094.563-.187.625-.047.047-.578.047-.688.047h-1.28c.734-.64.984-.844 1.39-1.172.516-.406 1-.843 1-1.5 0-.843-.734-1.359-1.624-1.359-.86 0-1.454.61-1.454 1.25 0 .344.297.39.376.39a.365.365 0 0 0 .359-.374c0-.125-.047-.375-.406-.375.218-.485.687-.641 1.015-.641.703 0 1.063.547 1.063 1.11 0 .609-.438 1.078-.656 1.328l-1.672 1.671c-.079.063-.079.079-.079.266h2.876zm0 0"/></symbol><clipPath id="u"><path d="m212 159h4.566v5h-4.566zm0 0"/></clipPath><clipPath id="v"><path d="m21.895 16h194.273v145.793h-194.273zm0 0"/></clipPath><clipPath id="w"><path d="m21.895 26h194.273v135.793h-194.273zm0 0"/></clipPath><clipPath id="x"><path d="m85 13h43v148.793h-43zm0 0"/></clipPath><path d="m42.234-2.126v4.254m42.234-4.254v4.254m42.23-4.254v4.254m42.235-4.254v4.254m-171.058 65.121h4.25m-4.25 67.246h4.25m-2.125-134.496h191.683" fill="none" stroke="#000" stroke-miterlimit="10" stroke-width=".79701" transform="matrix(1 0 0 -1 21.895 161.792)"/><g clip-path="url(#u)"><path d="m216.168 161.793-4.145-2.074 1.555 2.074-1.555 2.07"/></g><path d="m0-.001v158.805" fill="none" stroke="#000" stroke-miterlimit="10" stroke-width=".79701" transform="matrix(1 0 0 -1 21.895 161.792)"/><path d="m21.895.398-2.07 4.145 2.07-1.555 2.074 1.555"/><use x="57.763" xlink:href="#a" y="174.057"/><use x="62.745" xlink:href="#h" y="174.057"/><use x="65.512" xlink:href="#b" y="174.057"/><use x="103.87" xlink:href="#c" y="174.057"/><use x="142.229" xlink:href="#c" y="174.057"/><use x="147.21" xlink:href="#h" y="174.057"/><use x="149.978" xlink:href="#b" y="174.057"/><use x="188.336" xlink:href="#d" y="174.057"/><use x="3.32" xlink:href="#a" y="97.755"/><use x="8.302" xlink:href="#h" y="97.755"/><use x="11.069" xlink:href="#b" y="97.755"/><use x="11.069" xlink:href="#c" y="30.507"/><g clip-path="url(#v)" fill="none" stroke-miterlimit="10" stroke-width=".79701"><path d="m0 133.593s5.847-.348 8.093-.543c2.246-.2 5.852-.563 8.098-.875 2.246-.317 5.848-.895 8.094-1.39 2.246-.493 5.847-1.407 8.093-2.18 2.247-.77 5.848-2.2 8.094-3.372 2.246-1.175 5.852-3.351 8.098-5.082 2.246-1.734 5.847-4.957 8.094-7.398 2.246-2.441 5.847-6.973 8.093-10.2 2.246-3.226 5.848-9.132 8.094-13.062 2.246-3.933 5.852-10.93 8.098-15.273 2.246-4.34 5.847-11.711 8.094-16.02 2.246-4.312 5.847-11.195 8.093-15.047 2.246-3.847 5.848-9.582 8.094-12.707s5.852-7.472 8.098-9.812 5.847-5.414 8.093-7.063c2.246-1.648 5.848-3.718 8.094-4.828 2.246-1.113 5.848-2.465 8.094-3.191 2.246-.727 5.848-1.59 8.098-2.059 2.246-.465 5.847-1.012 8.093-1.308 2.246-.293 5.848-.637 8.094-.82 2.246-.188 5.848-.4 8.094-.516 2.246-.117 5.847-.25 8.094-.32a685.68 685.68 0 0 1 8.097-.2c2.246-.047 8.094-.125 8.094-.125" stroke="#f00" transform="matrix(1 0 0 -1 21.895 161.792)"/><path d="m0 134.495h43.17c.543 0 1.418-.004 1.961-.004h3.926c.543-.004 1.418-.004 1.961-.004.547 0 1.418 0 1.965-.004.543 0 1.418-.004 1.96-.007.548-.004 1.419-.016 1.962-.024.547-.008 1.418-.015 1.965-.027.543-.012 1.418-.031 1.96-.055.547-.02 1.419-.055 1.965-.094a37.277 37.277 0 0 0 1.961-.175c.543-.067 1.418-.188 1.961-.305.547-.121 1.418-.34 1.965-.547.543-.21 1.418-.598 1.961-.965.543-.37 1.418-1.054 1.961-1.691.547-.64 1.418-1.832 1.965-2.914.543-1.086 1.418-3.133 1.96-4.907.544-1.773 1.419-5.144 1.962-7.882.547-2.735 1.418-7.973 1.965-11.84.543-3.867 1.418-11.172 1.96-16.024.543-4.847 1.418-13.656 1.961-18.925.547-5.27 1.418-14.141 1.965-19.055.543-4.91 1.418-12.39 1.961-16.356.547-3.96 1.418-9.375 1.965-12.207.543-2.832 1.414-6.351 1.961-8.199.543-1.847 1.418-3.988 1.96-5.125.548-1.133 1.419-2.387 1.966-3.058.543-.668 1.418-1.387 1.96-1.774.544-.387 1.419-.797 1.962-1.015.547-.22 1.418-.45 1.965-.575.542-.125 1.417-.254 1.96-.324a41.54 41.54 0 0 1 1.961-.18 66.177 66.177 0 0 1 1.965-.105 164.244 164.244 0 0 1 3.922-.086 321.82 321.82 0 0 1 1.965-.02l1.96-.011c.548 0 1.419-.004 1.966-.004.543 0 1.418-.004 1.96-.004h3.926c.543 0 1.418-.004 1.961-.004h68.68" stroke="#ff8000" transform="matrix(1 0 0 -1 21.895 161.792)"/></g><g clip-path="url(#w)"><path d="m0 134.495h84.468v-134.495h109.805" fill="none" stroke="#00f" stroke-miterlimit="10" stroke-width=".79701" transform="matrix(1 0 0 -1 21.895 161.792)"/></g><g clip-path="url(#x)"><path d="m63.351 147.944v-147.944h42.23v147.945" fill="none" stroke="#000" stroke-dasharray="2.98883 2.98883" stroke-miterlimit="10" stroke-width=".3985" transform="matrix(1 0 0 -1 21.895 161.792)"/></g><g fill="none" stroke="#000" stroke-miterlimit="10"><path d="m64.804 141.222h39.324" stroke-width=".3985" transform="matrix(1 0 0 -1 21.895 161.792)"/><path d="m-1.195 1.593c.098-.598 1.195-1.492 1.492-1.593-.297-.098-1.394-.997-1.492-1.594" stroke-linecap="round" stroke-linejoin="round" stroke-width=".31879" transform="matrix(-1 0 0 1 86.7 20.571)"/><path d="m-1.196 1.594c.102-.597 1.196-1.496 1.496-1.593-.3-.102-1.394-.996-1.496-1.594" stroke-linecap="round" stroke-linejoin="round" stroke-width=".31879" transform="matrix(1 0 0 -1 126.024 20.571)"/></g><use x="93.041" xlink:href="#p" y="14.562"/><use x="103.557" xlink:href="#c" y="14.562"/><g><use x="108.539" xlink:href="#i" y="14.562"/><use x="113.52" xlink:href="#j" y="14.562"/></g><g><use x="197.419" xlink:href="#k" y="155.582"/><use x="201.463" xlink:href="#i" y="155.582"/><use x="206.444" xlink:href="#l" y="155.582"/></g><use x="25.614" xlink:href="#m" y="11.589"/><use x="31.594" xlink:href="#e" y="11.589"/><use x="35.469" xlink:href="#k" y="11.589"/><use x="39.512" xlink:href="#f" y="11.589"/><path d="m114.14 113.702h75.848v44.067h-75.848zm0 0" fill="#fff" stroke="#000" stroke-miterlimit="10" stroke-width=".79701" transform="matrix(1 0 0 -1 21.895 161.792)"/><path d="m0 .001h17.008" fill="none" stroke="#f00" stroke-miterlimit="10" stroke-width=".79701" transform="matrix(1 0 0 -1 139.422 12.966)"/><use x="158.821" xlink:href="#n" y="16.427"/><use x="164.007" xlink:href="#q" y="17.922"/><use x="170.075" xlink:href="#o" y="16.427"/><use x="180.048" xlink:href="#g" y="16.427"/><use x="191.759" xlink:href="#r" y="12.505"/><path d="m-.001-.002h3.971" fill="none" stroke="#000" stroke-miterlimit="10" stroke-width=".398" transform="matrix(1 0 0 -1 191.759 13.936)"/><use x="191.759" xlink:href="#s" y="19.863"/><use x="196.926" xlink:href="#l" y="16.427"/><path d="m0-.001h17.008" fill="none" stroke="#ff8000" stroke-miterlimit="10" stroke-width=".79701" transform="matrix(1 0 0 -1 139.422 26.862)"/><use x="158.821" xlink:href="#n" y="30.323"/><use x="164.007" xlink:href="#q" y="31.818"/><use x="170.075" xlink:href="#o" y="30.323"/><use x="180.048" xlink:href="#g" y="30.323"/><use x="193.745" xlink:href="#r" y="26.401"/><path d="m-.001.001h7.941" fill="none" stroke="#000" stroke-miterlimit="10" stroke-width=".398" transform="matrix(1 0 0 -1 191.759 27.833)"/><g><use x="191.759" xlink:href="#t" y="33.759"/><use x="195.731" xlink:href="#s" y="33.759"/></g><use x="200.897" xlink:href="#l" y="30.323"/><path d="m0 0h17.008" fill="none" stroke="#00f" stroke-miterlimit="10" stroke-width=".79701" transform="matrix(1 0 0 -1 139.422 39.954)"/><use x="158.821" xlink:href="#o" y="42.611"/><use x="168.794" xlink:href="#g" y="42.611"/><use x="179.313" xlink:href="#a" y="42.611"/></svg>