<svg xmlns="http://www.w3.org/2000/svg" xmlns:xlink="http://www.w3.org/1999/xlink" width="271.817" height="216.025" viewBox="0 0 203.863 162.019"><defs><symbol overflow="visible" id="a"><path d="M2.86-6.813s0-.109-.126-.109c-.234 0-.953.078-1.218.11-.079 0-.188.015-.188.187 0 .125.094.125.234.125.485 0 .5.063.5.172l-.03.203L.593-.391C.547-.25.547-.234.547-.17c0 .234.203.28.297.28a.418.418 0 0 0 .328-.203c.047-.093.5-1.937.562-2.187.344.031 1.157.187 1.157.844 0 .078 0 .109-.032.218-.015.11-.03.235-.03.344 0 .578.39.984.905.984.297 0 .579-.156.797-.53.25-.438.36-.985.36-1 0-.11-.094-.11-.125-.11-.094 0-.11.047-.141.187-.203.719-.422 1.235-.86 1.235-.203 0-.328-.11-.328-.47 0-.171.047-.405.079-.562.046-.171.046-.203.046-.312 0-.64-.624-.922-1.484-1.047.313-.172.64-.484.86-.734.484-.532.937-.954 1.421-.954.063 0 .079 0 .094.016.125.016.125.016.219.078.016 0 .016.016.031.032a.569.569 0 0 0-.562.546c0 .157.109.344.375.344.265 0 .546-.219.546-.61 0-.296-.234-.624-.671-.624-.282 0-.735.078-1.454.875-.343.375-.734.781-1.109.922zm0 0"/></symbol><symbol overflow="visible" id="i"><path d="M7.531-5.766c.11-.39.282-.703 1.078-.734.047 0 .172-.016.172-.203 0 0 0-.11-.125-.11-.328 0-.687.032-1.015.032-.329 0-.688-.032-1.016-.032-.063 0-.172 0-.172.204 0 .109.094.109.172.109.578.016.688.219.688.438 0 .03-.032.187-.032.203L6.156-1.422 3.953-6.625c-.078-.172-.078-.188-.312-.188H2.297c-.188 0-.281 0-.281.204 0 .109.093.109.28.109.048 0 .673 0 .673.094L1.64-1.063c-.11.407-.282.72-1.079.75-.062 0-.171.016-.171.204C.39-.047.437 0 .516 0c.328 0 .671-.031 1-.031.343 0 .703.031 1.03.031.048 0 .173 0 .173-.203 0-.094-.094-.11-.203-.11-.579-.015-.657-.234-.657-.437 0-.063.016-.125.047-.234l1.313-5.25c.047.046.047.078.094.171L5.796-.188c.062.172.094.188.187.188.11 0 .11-.031.157-.203zm0 0"/></symbol><symbol overflow="visible" id="b"><path d="M1.734-.734c-.062.234-.296.609-.656.609-.016 0-.234 0-.375-.094a.437.437 0 0 0 .313-.39c0-.157-.125-.25-.282-.25a.407.407 0 0 0-.406.421c0 .344.39.5.734.5.329 0 .61-.187.782-.484.172.36.547.484.828.484.812 0 1.234-.859 1.234-1.062 0-.094-.094-.094-.11-.094-.108 0-.108.047-.14.125-.14.485-.562.844-.953.844-.281 0-.422-.188-.422-.453 0-.188.172-.813.36-1.594.14-.531.453-.703.687-.703.016 0 .219 0 .375.094a.431.431 0 0 0-.312.39c0 .141.125.25.28.25.157 0 .392-.125.392-.421 0-.391-.454-.516-.72-.516-.359 0-.64.234-.78.5-.126-.281-.454-.5-.844-.5C.937-3.078.5-2.218.5-2c0 .078.094.078.11.078.093 0 .093-.016.14-.11.172-.546.61-.843.953-.843.234 0 .422.125.422.453 0 .14-.094.485-.156.735zm0 0"/></symbol><symbol overflow="visible" id="c"><path d="M3.875-2.625c.031-.094.031-.11.031-.156 0-.14-.11-.219-.234-.219a.33.33 0 0 0-.281.156c-.032.047-.079.266-.11.406l-.156.579a19.65 19.65 0 0 1-.281 1.125S2.53-.125 2-.125c-.484 0-.484-.453-.484-.578 0-.375.156-.813.375-1.36.078-.218.109-.296.109-.421 0-.329-.281-.594-.656-.594C.64-3.078.328-2.125.328-2c0 .078.094.078.125.078.094 0 .094-.031.125-.11.172-.577.469-.843.75-.843.11 0 .172.078.172.234 0 .172-.063.313-.094.407C1.063-1.375 1-1.125 1-.813c0 .11 0 .438.266.672.218.172.515.203.703.203.281 0 .531-.093.75-.312-.078.39-.156.688-.453 1.031-.188.219-.47.438-.844.438-.047 0-.375 0-.516-.219.375-.047.375-.375.375-.39 0-.22-.203-.266-.265-.266-.172 0-.407.14-.407.469 0 .343.329.609.829.609C2.14 1.422 3 .875 3.218 0zm0 0"/></symbol><symbol overflow="visible" id="e"><path d="M2.172-2.531H3c-.11.422-.266 1.047-.266 1.61 0 .28.047.468.079.609.109.359.203.374.312.374.172 0 .328-.14.328-.312 0-.047-.015-.078-.047-.14-.14-.266-.265-.657-.265-1.235 0-.125 0-.406.093-.906h.875c.125 0 .188 0 .266-.047a.31.31 0 0 0 .11-.219C4.484-3 4.311-3 4.186-3H1.563c-.28 0-.484.063-.796.36-.188.156-.454.53-.454.593 0 .078.094.078.126.078.078 0 .078-.015.124-.078.344-.484.782-.484.938-.484h.422c-.219.765-.594 1.594-.797 2.015-.047.079-.11.235-.14.25 0 .032-.016.063-.016.11 0 .11.078.218.25.218.265 0 .343-.312.515-.937zm0 0"/></symbol><symbol overflow="visible" id="f"><path d="M2.875-4.188c.063-.25.078-.328.719-.328.219 0 .281 0 .281-.14 0-.016 0-.11-.11-.11a6.07 6.07 0 0 0-.515.032H2.203c-.14 0-.312-.032-.453-.032-.031 0-.14 0-.14.157 0 .093.077.093.218.093.016 0 .14 0 .266.016.156.016.172.031.172.11 0 0 0 .046-.032.14L1.297-.547c-.063.235-.078.297-.61.297-.109 0-.203 0-.203.14 0 .11.079.11.204.11h3.5c.187 0 .187 0 .25-.14.062-.188.593-1.532.593-1.594 0-.016-.015-.094-.125-.094-.078 0-.093.031-.14.14C4.5-1.03 4.187-.25 2.922-.25h-.797c-.203 0-.219-.016-.219-.078 0 0 0-.031.032-.14zm0 0"/></symbol><symbol overflow="visible" id="d"><path d="M3.516-1.266H3.28c-.015.157-.094.563-.187.625-.047.047-.578.047-.688.047H1.125c.734-.64.984-.844 1.39-1.172.516-.406 1-.843 1-1.5 0-.843-.734-1.359-1.624-1.359-.86 0-1.454.61-1.454 1.25 0 .344.297.39.376.39.156 0 .359-.124.359-.374 0-.125-.047-.375-.406-.375.218-.485.687-.641 1.015-.641.703 0 1.063.547 1.063 1.11 0 .609-.438 1.078-.656 1.328L.516-.266C.437-.203.437-.187.437 0h2.876zm0 0"/></symbol><symbol overflow="visible" id="g"><path d="M3.094-1.953c-.235.062-.235.281-.235.297 0 .078.063.203.235.203.14 0 .312-.125.312-.344 0-.297-.328-.406-.594-.406a.78.78 0 0 0-.64.344c-.156-.282-.485-.344-.656-.344-.625 0-.985.594-.985.765 0 .079.078.079.11.079.046 0 .078 0 .109-.063.14-.484.547-.61.734-.61.172 0 .36.063.36.329 0 .125-.094.469-.266 1.14-.062.282-.297.454-.516.454-.03 0-.171 0-.296-.079.218-.093.218-.28.218-.296 0-.141-.109-.204-.218-.204-.125 0-.297.094-.297.329 0 .312.328.421.594.421.265 0 .5-.171.609-.343a.806.806 0 0 0 .672.344c.625 0 .984-.594.984-.782 0-.062-.078-.062-.11-.062-.077 0-.093.031-.109.062-.14.453-.515.61-.734.61-.156 0-.36-.063-.36-.344 0-.063 0-.094.032-.266.094-.344.219-.89.265-.984.063-.125.235-.328.485-.328.015 0 .187 0 .297.078zm0 0"/></symbol><symbol overflow="visible" id="h"><path d="M3.297-1.86c.015-.077.015-.109.015-.109 0-.11-.078-.172-.171-.172-.204 0-.25.172-.282.297l-.109.422-.14.625c-.032.063-.047.156-.063.188 0 .03-.266.5-.688.5-.234 0-.406-.11-.406-.438 0-.265.14-.64.281-1a.452.452 0 0 0 .063-.219c0-.25-.234-.437-.547-.437-.516 0-.797.64-.797.765 0 .079.078.079.11.079.078 0 .078-.032.109-.094.11-.344.344-.578.562-.578.094 0 .157.047.157.187 0 .094-.032.172-.063.266-.25.594-.297.766-.297.969 0 .546.469.671.797.671.281 0 .5-.14.625-.25-.078.282-.125.5-.36.735-.124.11-.359.312-.655.312-.094 0-.282-.015-.391-.125a.326.326 0 0 0 .25-.296c0-.141-.125-.204-.219-.204A.324.324 0 0 0 .75.578c0 .25.266.438.688.438C2 1.016 2.671.64 2.827 0zm0 0"/></symbol><symbol overflow="visible" id="j"><path d="M3.297 2.39c0-.03 0-.046-.172-.218C1.891.922 1.562-.968 1.562-2.5c0-1.734.375-3.469 1.61-4.703.125-.125.125-.14.125-.172 0-.078-.031-.11-.094-.11-.11 0-1 .688-1.594 1.954C1.11-4.438.984-3.328.984-2.5c0 .781.11 1.984.657 3.125C2.25 1.844 3.094 2.5 3.203 2.5c.063 0 .094-.031.094-.11zm0 0"/></symbol><symbol overflow="visible" id="k"><path d="M2.875-2.5c0-.766-.11-1.969-.656-3.11C1.625-6.827.766-7.483.672-7.483a.107.107 0 0 0-.11.109c0 .031 0 .047.188.234.984.985 1.547 2.563 1.547 4.641 0 1.719-.36 3.469-1.594 4.719-.14.125-.14.14-.14.172 0 .062.046.109.109.109.094 0 1-.688 1.578-1.953.516-1.094.625-2.203.625-3.047zm0 0"/></symbol></defs><path d="M16.563 142.133a1.99 1.99 0 0 0-1.993-1.992 1.993 1.993 0 1 0 1.992 1.992zm0-42.524c16.563 141.032 15.672 140.14 14.57 140.14a1.99 1.99 0 0 0-1.992 1.993 1.99 1.99 0 0 0 1.992 1.992 1.99 1.99 0 0 0 1.992-1.992zM33.126 220.48c0-22.36-.891-23.254-1.993-23.254a1.994 1.994 0 1 0 0 3.988 1.994 1.994 0 0 0 1.992-1.996zm0-85.04C16.563 77.25 15.672 76.36 14.57 76.36a1.99 1.99 0 0 0-1.992 1.992 1.99 1.99 0 0 0 1.992 1.992 1.99 1.99 0 0 0 1.992-1.992zM33.126 156.7c0-43.618-.891-44.512-1.993-44.512a1.993 1.993 0 1 0 1.992 1.992zm0-127.556C16.563 34.73 15.672 33.84 14.57 33.84a1.993 1.993 0 1 0 1.992 1.992zM33.126 92.919c0-64.88-.891-65.77-1.993-65.77a1.99 1.99 0 0 0-1.992 1.992 1.99 1.99 0 0 0 1.992 1.992 1.99 1.99 0 0 0 1.992-1.992zm56.694 127.57c16.563 77.246 15.673 76.356 14.571 76.356a1.993 1.993 0 1 0 1.992 1.992zm33.126 114.172c28.347 62.684 27.457 61.793 26.355 61.793a1.99 1.99 0 0 0-1.992 1.992 1.99 1.99 0 0 0 1.992 1.992 1.99 1.99 0 0 0 1.992-1.992zm56.694 85.046C44.91 98.512 44.02 97.617 42.919 97.617a1.994 1.994 0 1 0 0 3.988 1.994 1.994 0 0 0 1.992-1.996zm33.126 71.658C44.91 77.25 44.02 76.358 42.918 76.358a1.99 1.99 0 0 0-1.992 1.993 1.99 1.99 0 0 0 1.992 1.992 1.99 1.99 0 0 0 1.992-1.992zm56.694 42.52C44.91 55.994 44.02 55.1 42.919 55.1a1.993 1.993 0 1 0 1.992 1.992zm33.126 29.144C44.91 34.728 44.02 33.838 42.918 33.838a1.993 1.993 0 1 0 1.992 1.992zm56.694-.004C44.91 13.47 44.02 12.58 42.919 12.58a1.99 1.99 0 0 0-1.992 1.992 1.99 1.99 0 0 0 1.992 1.992 1.99 1.99 0 0 0 1.992-1.992zm89.82 284.27c28.348-1.104 27.453-1.994 26.356-1.994a1.993 1.993 0 1 0 1.992 1.992zm56.696-42.528c44.91 141.034 44.015 140.143 42.918 140.143a1.99 1.99 0 0 0-1.993 1.992 1.993 1.993 0 0 0 3.984 0zm89.82 241.746C73.258 98.51 72.363 97.615 71.266 97.615a1.994 1.994 0 1 0 0 3.988 1.996 1.996 0 0 0 1.992-1.996zm56.696-85.042C73.258 77.251 72.363 76.36 71.266 76.36a1.99 1.99 0 0 0-1.993 1.993 1.993 1.993 0 0 0 3.984 0zm89.82 199.22c28.348-43.618 27.453-44.512 26.356-44.512a1.993 1.993 0 1 0 1.992 1.992zm56.696-127.556C73.258 34.73 72.363 33.84 71.266 33.84a1.993 1.993 0 1 0 1.992 1.992zm89.82 156.696c28.348-64.88 27.453-65.77 26.356-65.77a1.99 1.99 0 0 0-1.993 1.992 1.993 1.993 0 0 0 3.984 0zm113.39 127.57c44.91 77.246 44.016 76.356 42.914 76.356a1.993 1.993 0 1 0 1.996 1.992zm89.82 114.172c56.695 62.684 55.8 61.793 54.7 61.793a1.993 1.993 0 1 0 1.995 1.992zm113.39 85.046c44.91 55.989 44.016 55.094 42.914 55.094a1.996 1.996 0 0 0-1.992 1.992c0 1.102.895 1.996 1.992 1.996a1.997 1.997 0 0 0 1.996-1.996zm89.82 71.658c56.695 41.421 55.8 40.53 54.7 40.53a1.993 1.993 0 1 0 1.995 1.993zm113.39 42.52C101.605 55.994 100.711 55.1 99.61 55.1a1.993 1.993 0 0 0 0 3.984c1.102 0 1.996-.89 1.996-1.992zm89.82 29.144c56.695 20.158 55.8 19.268 54.7 19.268a1.993 1.993 0 1 0 1.995 1.992zm113.39-.004c44.91 13.47 44.016 12.58 42.914 12.58a1.993 1.993 0 1 0 1.996 1.992zm146.508 284.27c56.695-1.104 55.805-1.994 54.703-1.994a1.993 1.993 0 1 0 1.992 1.992zm113.39-42.528c73.254 141.034 72.364 140.143 71.262 140.143a1.99 1.99 0 0 0-1.992 1.992 1.99 1.99 0 0 0 1.992 1.992 1.99 1.99 0 0 0 1.992-1.992zm146.508 241.746c56.695-22.361 55.805-23.256 54.703-23.256a1.994 1.994 0 1 0 0 3.988 1.994 1.994 0 0 0 1.992-1.996zm113.39-85.042C129.95 77.251 129.06 76.36 127.957 76.36a1.99 1.99 0 0 0-1.992 1.993 1.99 1.99 0 0 0 1.992 1.992 1.99 1.99 0 0 0 1.992-1.992zM203.203 156.7c56.695-43.618 55.805-44.512 54.703-44.512a1.993 1.993 0 1 0 1.992 1.992zm113.39-127.556C129.95 34.73 129.06 33.84 127.957 33.84a1.993 1.993 0 1 0 1.992 1.992zM203.203 92.919c56.695-64.88 55.805-65.77 54.703-65.77a1.99 1.99 0 0 0-1.992 1.992 1.99 1.99 0 0 0 1.992 1.992 1.99 1.99 0 0 0 1.992-1.992zm170.086 127.57c73.254 77.246 72.363 76.356 71.262 76.356a1.993 1.993 0 1 0 1.992 1.992zm146.508 114.172c85.043 62.684 84.152 61.793 83.05 61.793a1.99 1.99 0 0 0-1.992 1.992 1.99 1.99 0 0 0 1.993 1.992 1.99 1.99 0 0 0 1.992-1.992zm170.086 85.046c73.254 55.989 72.363 55.094 71.262 55.094a1.994 1.994 0 1 0 0 3.988 1.994 1.994 0 0 0 1.992-1.996zm146.508 71.658c85.043 41.421 84.152 40.53 83.05 40.53a1.99 1.99 0 0 0-1.992 1.993 1.99 1.99 0 0 0 1.993 1.992 1.99 1.99 0 0 0 1.992-1.992zm170.086 42.52C158.297 55.994 157.406 55.1 156.305 55.1a1.993 1.993 0 1 0 1.992 1.992zm146.508 29.144c85.043 20.158 84.152 19.268 83.05 19.268a1.993 1.993 0 1 0 1.992 1.992zm170.086-.004c73.254 13.47 72.363 12.58 71.262 12.58a1.99 1.99 0 0 0-1.993 1.992 1.99 1.99 0 0 0 1.993 1.992 1.99 1.99 0 0 0 1.992-1.992zm203.204 284.27c85.043-1.104 84.148-1.994 83.05-1.994a1.993 1.993 0 1 0 1.992 1.992zm170.086-42.528c101.602 141.034 100.707 140.143 99.61 140.143a1.99 1.99 0 0 0-1.993 1.992 1.993 1.993 0 0 0 3.984 0zm203.204 241.746c85.043-22.361 84.148-23.256 83.05-23.256a1.994 1.994 0 1 0 0 3.988 1.996 1.996 0 0 0 1.993-1.996zM271.688 35.83C186.645 77.251 185.75 76.36 184.653 76.36a1.99 1.99 0 0 0-1.993 1.993 1.993 1.993 0 0 0 3.984 0zM288.247 156.7c85.043-43.618 84.148-44.512 83.05-44.512a1.993 1.993 0 1 0 1.993 1.992zM271.688-27.947C186.645 34.73 185.75 33.84 184.653 33.84a1.993 1.993 0 1 0 1.992 1.992zM288.247 92.919c85.043-64.88 84.148-65.77 83.05-65.77a1.99 1.99 0 0 0-1.992 1.992 1.993 1.993 0 0 0 3.984 0zm85.043-63.778" fill="rgb(0%,0%,0%)"/><path d="M.398 78.352h197.72" fill="none" stroke-width="0.79701" stroke="rgb(0%,0%,0%)" stroke-miterlimit="10"/><path d="M196.563 76.277c.128.778 1.554 1.946 1.945 2.075-.39.128-1.817 1.293-1.946 2.07" fill="none" stroke-width="0.6376" stroke-linecap="round" stroke-linejoin="round" stroke="rgb(0%,0%,0%)" stroke-miterlimit="10"/><use xlink:href="#a" x="184.902" y="73.138" fill="rgb(0%,0%,0%)"/><use xlink:href="#b" x="190.089" y="74.632" fill="rgb(0%,0%,0%)"/><path d="M99.61 156.305V1.105" fill="none" stroke-width="0.79701" stroke="rgb(0%,0%,0%)" stroke-miterlimit="10"/><path d="M97.54 2.66c.776-.133 1.94-1.555 2.07-1.945.132.39 1.296 1.812 2.074 1.945" fill="none" stroke-width="0.6376" stroke-linecap="round" stroke-linejoin="round" stroke="rgb(0%,0%,0%)" stroke-miterlimit="10"/><use xlink:href="#a" x="103.33" y="11.036" fill="rgb(0%,0%,0%)"/><use xlink:href="#c" x="108.517" y="12.53" fill="rgb(0%,0%,0%)"/><path d="M160 142.133h20.957" fill="none" stroke-width="0.79701" stroke="rgb(0%,0%,0%)" stroke-miterlimit="10"/><path d="M161.555 144.203c-.13-.777-1.555-1.941-1.942-2.07.387-.133 1.813-1.297 1.942-2.074" fill="none" stroke-width="0.6376" stroke-linecap="round" stroke-linejoin="round" stroke="rgb(0%,0%,0%)" stroke-miterlimit="10"/><path d="M179.402 140.059c.13.777 1.555 1.941 1.942 2.074-.387.129-1.813 1.293-1.942 2.07" fill="none" stroke-width="0.6376" stroke-linecap="round" stroke-linejoin="round" stroke="rgb(0%,0%,0%)" stroke-miterlimit="10"/><use xlink:href="#d" x="166.037" y="150.344" fill="rgb(0%,0%,0%)"/><use xlink:href="#e" x="170.008" y="150.344" fill="rgb(0%,0%,0%)"/><path d="M165.523 151.777h9.907" fill="none" stroke-width="0.398" stroke="rgb(0%,0%,0%)" stroke-miterlimit="10"/><use xlink:href="#f" x="165.523" y="157.702" fill="rgb(0%,0%,0%)"/><use xlink:href="#g" x="170.989" y="158.698" fill="rgb(0%,0%,0%)"/><path d="M184.652 138.434v-13.868" fill="none" stroke-width="0.79701" stroke="rgb(0%,0%,0%)" stroke-miterlimit="10"/><path d="M186.723 136.883c-.778.129-1.942 1.55-2.07 1.941-.13-.39-1.298-1.812-2.075-1.941" fill="none" stroke-width="0.6376" stroke-linecap="round" stroke-linejoin="round" stroke="rgb(0%,0%,0%)" stroke-miterlimit="10"/><path d="M182.578 126.121c.777-.129 1.945-1.555 2.074-1.941.13.386 1.293 1.812 2.07 1.941" fill="none" stroke-width="0.6376" stroke-linecap="round" stroke-linejoin="round" stroke="rgb(0%,0%,0%)" stroke-miterlimit="10"/><use xlink:href="#d" x="190.016" y="129.087" fill="rgb(0%,0%,0%)"/><use xlink:href="#e" x="193.987" y="129.087" fill="rgb(0%,0%,0%)"/><path d="M189.566 130.52h9.782" fill="none" stroke-width="0.398" stroke="rgb(0%,0%,0%)" stroke-miterlimit="10"/><use xlink:href="#f" x="189.565" y="136.445" fill="rgb(0%,0%,0%)"/><use xlink:href="#h" x="195.031" y="137.441" fill="rgb(0%,0%,0%)"/><path d="M156.305 78.352c0-31.313-25.383-56.692-56.696-56.692-31.308 0-56.691 25.38-56.691 56.692 0 31.308 25.383 56.691 56.691 56.691 31.313 0 56.696-25.383 56.696-56.691zm0 0" fill="rgb(0%,0%,100%)" fill-opacity="0.1" stroke-width="0.79701" stroke="rgb(0%,0%,100%)" stroke-miterlimit="10"/><use xlink:href="#i" x="44.711" y="28.728" fill="rgb(0%,0%,100%)"/><use xlink:href="#j" x="53.802" y="28.728" fill="rgb(0%,0%,100%)"/><use xlink:href="#a" x="57.676" y="28.728" fill="rgb(0%,0%,100%)"/><use xlink:href="#k" x="63.177" y="28.728" fill="rgb(0%,0%,100%)"/></svg>