<svg xmlns="http://www.w3.org/2000/svg" xmlns:xlink="http://www.w3.org/1999/xlink" width="464.16" height="170.072" viewBox="0 0 348.12 127.554"><defs><symbol overflow="visible" id="a"><path style="stroke:none" d="M2.938-3.719h1.671c.125 0 .485 0 .485-.344 0-.234-.203-.234-.407-.234h-2.78c-.204 0-.595 0-1.032.469-.328.36-.61.844-.61.89 0 .016 0 .11.126.11.078 0 .093-.047.156-.125.484-.766 1.062-.766 1.265-.766h.829L1.67-.516c-.046.11-.109.329-.109.36 0 .11.079.281.297.281.329 0 .375-.281.407-.438Zm0 0"/></symbol><symbol overflow="visible" id="d"><path style="stroke:none" d="M5.156-3.719c.14 0 .5 0 .5-.344 0-.234-.218-.234-.39-.234H2.984c-1.5 0-2.609 1.64-2.609 2.828C.375-.594.969.11 1.875.11c1.172 0 2.5-1.203 2.5-2.734 0-.172 0-.656-.313-1.094ZM1.891-.109C1.39-.11 1-.47 1-1.188c0-.296.11-1.109.469-1.703.422-.687 1.015-.828 1.36-.828.827 0 .905.656.905.969 0 .469-.203 1.281-.53 1.797-.392.578-.938.844-1.313.844Zm0 0"/></symbol><symbol overflow="visible" id="b"><path style="stroke:none" d="M2.328-4.438c0-.187 0-.187-.203-.187-.453.438-1.078.438-1.36.438v.25c.157 0 .626 0 1-.188v3.547c0 .234 0 .328-.687.328H.812V0c.125 0 .985-.031 1.235-.031.219 0 1.094.031 1.25.031v-.25H3.03c-.703 0-.703-.094-.703-.328Zm0 0"/></symbol><symbol overflow="visible" id="c"><path style="stroke:none" d="M3.516-1.266H3.28c-.015.157-.094.563-.187.625-.047.047-.578.047-.688.047h-1.28c.734-.64.984-.844 1.39-1.172.516-.406 1-.843 1-1.5 0-.843-.734-1.359-1.624-1.359-.86 0-1.454.61-1.454 1.25 0 .344.297.39.376.39a.365.365 0 0 0 .359-.374c0-.125-.047-.375-.406-.375.218-.485.687-.641 1.015-.641.703 0 1.063.547 1.063 1.11 0 .609-.438 1.078-.656 1.328L.516-.266C.437-.203.437-.187.437 0h2.876Zm0 0"/></symbol><clipPath id="e"><path d="M240 0h108.121v108H240Zm0 0"/></clipPath></defs><path style="fill:none;stroke-width:.3985;stroke-linecap:butt;stroke-linejoin:miter;stroke:#000;stroke-opacity:1;stroke-dasharray:2.98883,2.98883;stroke-miterlimit:10" d="M73.701 0C65.873 0 59.53 19.035 59.53 42.52c0 23.484 6.343 42.519 14.171 42.519M39.686 0C31.858 0 25.51 19.035 25.51 42.52c0 23.484 6.348 42.519 14.176 42.519" transform="matrix(1 0 0 -1 41.779 93.742)"/><path style="fill:none;stroke-width:.3985;stroke-linecap:butt;stroke-linejoin:miter;stroke:#000;stroke-opacity:1;stroke-miterlimit:10" d="M-14.174 0c-7.828 0-14.171 19.035-14.171 42.52 0 23.484 6.343 42.519 13.714 42.519" transform="matrix(1 0 0 -1 41.779 93.742)"/><path style="fill:none;stroke-width:.31879;stroke-linecap:round;stroke-linejoin:round;stroke:#000;stroke-opacity:1;stroke-miterlimit:10" d="M-1.194 1.592C-1.097.995 0 .1.298-.002.001-.099-1.097-.998-1.194-1.595" transform="matrix(1 0 0 -1 27.147 8.702)"/><path style="fill:none;stroke-width:.3985;stroke-linecap:butt;stroke-linejoin:miter;stroke:#000;stroke-opacity:1;stroke-miterlimit:10" d="M-.002 0h113.387M-.002 85.039h113.387M-.002 0C-7.83 0-14.174 19.035-14.174 42.52c0 23.484 6.344 42.519 14.172 42.519M127.56 42.52c0 23.484-6.347 42.519-14.175 42.519-7.824 0-14.172-19.035-14.172-42.52 0-23.484 6.348-42.52 14.172-42.52 7.828 0 14.176 19.036 14.176 42.52Zm0 0" transform="matrix(1 0 0 -1 41.779 93.742)"/><use xlink:href="#a" x="54.374" y="52.62" style="fill:#000;fill-opacity:1"/><use xlink:href="#b" x="58.73" y="54.115" style="fill:#000;fill-opacity:1"/><use xlink:href="#a" x="88.39" y="52.62" style="fill:#000;fill-opacity:1"/><use xlink:href="#c" x="92.745" y="54.115" style="fill:#000;fill-opacity:1"/><use xlink:href="#d" x="3.321" y="53.367" style="fill:#000;fill-opacity:1"/><path style="fill:none;stroke-width:.3985;stroke-linecap:butt;stroke-linejoin:miter;stroke:#000;stroke-opacity:1;stroke-miterlimit:10" d="M14.174-14.172h84.582" transform="matrix(1 0 0 -1 41.779 93.742)"/><path style="fill:none;stroke-width:.31879;stroke-linecap:round;stroke-linejoin:round;stroke:#000;stroke-opacity:1;stroke-miterlimit:10" d="M-1.195 1.595C-1.097.997.001.1.298.001 0-.1-1.097-.995-1.195-1.592" transform="matrix(1 0 0 -1 140.535 107.915)"/><use xlink:href="#a" x="95.73" y="124.233" style="fill:#000;fill-opacity:1"/><path style="fill:none;stroke-width:.79701;stroke-linecap:butt;stroke-linejoin:miter;stroke:#000;stroke-opacity:1;stroke-miterlimit:10" d="M141.733 42.52h27.64" transform="matrix(1 0 0 -1 41.779 93.742)"/><path style="fill:none;stroke-width:.6376;stroke-linecap:round;stroke-linejoin:round;stroke:#000;stroke-opacity:1;stroke-miterlimit:10" d="M-1.554 2.073C-1.425 1.296 0 .128.387 0 0-.13-1.425-1.294-1.554-2.07" transform="matrix(1 0 0 -1 211.152 51.222)"/><path style="fill:none;stroke-width:.3985;stroke-linecap:butt;stroke-linejoin:miter;stroke:#000;stroke-opacity:1;stroke-dasharray:2.98883,2.98883;stroke-miterlimit:10" d="M277.8 42.52c0 12.527-10.153 22.679-22.68 22.679-12.524 0-22.676-10.152-22.676-22.68 0-12.523 10.152-22.675 22.675-22.675 12.528 0 22.68 10.152 22.68 22.675Zm0 0" transform="matrix(1 0 0 -1 41.779 93.742)"/><g clip-path="url(#e)"><path style="fill:none;stroke-width:.3985;stroke-linecap:butt;stroke-linejoin:miter;stroke:#000;stroke-opacity:1;stroke-dasharray:2.98883,2.98883;stroke-miterlimit:10" d="M306.147 42.52c0 28.179-22.844 51.023-51.028 51.023-28.18 0-51.023-22.844-51.023-51.024S226.94-8.504 255.119-8.504c28.184 0 51.028 22.844 51.028 51.023Zm0 0" transform="matrix(1 0 0 -1 41.779 93.742)"/></g><path style="fill:none;stroke-width:.3985;stroke-linecap:butt;stroke-linejoin:miter;stroke:#000;stroke-opacity:1;stroke-miterlimit:10" d="m192.756 42.52.14-4.079.4-4.058.663-4.028.922-3.976 1.188-3.903 1.437-3.82 1.688-3.715 1.918-3.601 2.16-3.465 2.375-3.317 2.59-3.156 2.789-2.98 2.976-2.785 3.156-2.59 3.317-2.375 3.465-2.16 3.601-1.922 3.715-1.684 3.82-1.437 3.907-1.188 3.972-.922 4.028-.664 4.058-.402 3.621-.121" transform="matrix(1 0 0 -1 41.779 93.742)"/><path style="fill:none;stroke-width:.31879;stroke-linecap:round;stroke-linejoin:round;stroke:#000;stroke-opacity:1;stroke-miterlimit:10" d="M-1.195 1.593C-1.097.994 0 .101.3.001c-.3-.1-1.397-.996-1.494-1.593" transform="matrix(.99942 .03336 .03336 -.99942 296.442 113.57)"/><use xlink:href="#d" x="234.344" y="90.218" style="fill:#000;fill-opacity:1"/><use xlink:href="#a" x="309.492" y="27.108" style="fill:#000;fill-opacity:1"/><use xlink:href="#b" x="313.848" y="28.603" style="fill:#000;fill-opacity:1"/><use xlink:href="#a" x="332.169" y="10.1" style="fill:#000;fill-opacity:1"/><use xlink:href="#c" x="336.524" y="11.595" style="fill:#000;fill-opacity:1"/><path style="stroke:none;fill-rule:nonzero;fill:#000;fill-opacity:1" d="M298.309 51.223a1.409 1.409 0 1 0-2.815-.003 1.409 1.409 0 0 0 2.815.003Zm0 0"/></svg>