<svg height="170.072" viewBox="0 0 348.12 127.554" width="464.16" xmlns="http://www.w3.org/2000/svg" xmlns:xlink="http://www.w3.org/1999/xlink"><symbol id="a" overflow="visible"><path d="m2.938-3.719h1.671c.125 0 .485 0 .485-.344 0-.234-.203-.234-.407-.234h-2.78c-.204 0-.595 0-1.032.469-.328.36-.61.844-.61.89 0 .016 0 .11.126.11.078 0 .093-.047.156-.125.484-.766 1.062-.766 1.265-.766h.829l-.971 3.203c-.046.11-.109.329-.109.36 0 .11.079.281.297.281.329 0 .375-.281.407-.438zm0 0"/></symbol><symbol id="b" overflow="visible"><path d="m5.156-3.719c.14 0 .5 0 .5-.344 0-.234-.218-.234-.39-.234h-2.282c-1.5 0-2.609 1.64-2.609 2.828 0 .875.594 1.579 1.5 1.579 1.172 0 2.5-1.203 2.5-2.734 0-.172 0-.656-.313-1.094zm-3.265 3.61c-.501-.001-.891-.361-.891-1.079 0-.296.11-1.109.469-1.703.422-.687 1.015-.828 1.36-.828.827 0 .905.656.905.969 0 .469-.203 1.281-.53 1.797-.392.578-.938.844-1.313.844zm0 0"/></symbol><symbol id="c" overflow="visible"><path d="m2.328-4.438c0-.187 0-.187-.203-.187-.453.438-1.078.438-1.36.438v.25c.157 0 .626 0 1-.188v3.547c0 .234 0 .328-.687.328h-.266v.25c.125 0 .985-.031 1.235-.031.219 0 1.094.031 1.25.031v-.25h-.267c-.703 0-.703-.094-.703-.328zm0 0"/></symbol><symbol id="d" overflow="visible"><path d="m3.516-1.266h-.236c-.015.157-.094.563-.187.625-.047.047-.578.047-.688.047h-1.28c.734-.64.984-.844 1.39-1.172.516-.406 1-.843 1-1.5 0-.843-.734-1.359-1.624-1.359-.86 0-1.454.61-1.454 1.25 0 .344.297.39.376.39a.365.365 0 0 0 .359-.374c0-.125-.047-.375-.406-.375.218-.485.687-.641 1.015-.641.703 0 1.063.547 1.063 1.11 0 .609-.438 1.078-.656 1.328l-1.672 1.671c-.079.063-.079.079-.079.266h2.876zm0 0"/></symbol><clipPath id="e"><path d="m240 0h108.121v108h-108.121zm0 0"/></clipPath><g fill="none" stroke="#000" stroke-miterlimit="10"><path d="m73.701 0c-7.828 0-14.171 19.035-14.171 42.52 0 23.484 6.343 42.519 14.171 42.519m-34.015-85.039c-7.828 0-14.176 19.035-14.176 42.52 0 23.484 6.348 42.519 14.176 42.519" stroke-dasharray="2.98883 2.98883" stroke-width=".3985" transform="matrix(1 0 0 -1 41.779 93.742)"/><path d="m-14.174 0c-7.828 0-14.171 19.035-14.171 42.52 0 23.484 6.343 42.519 13.714 42.519" stroke-width=".3985" transform="matrix(1 0 0 -1 41.779 93.742)"/><path d="m-1.194 1.592c.097-.597 1.194-1.492 1.492-1.594-.297-.097-1.395-.996-1.492-1.593" stroke-linecap="round" stroke-linejoin="round" stroke-width=".31879" transform="matrix(1 0 0 -1 27.147 8.702)"/><path d="m-.002 0h113.387m-113.387 85.039h113.387m-113.387-85.039c-7.828 0-14.172 19.035-14.172 42.52 0 23.484 6.344 42.519 14.172 42.519m127.562-42.519c0 23.484-6.347 42.519-14.175 42.519-7.824 0-14.172-19.035-14.172-42.52 0-23.484 6.348-42.52 14.172-42.52 7.828 0 14.176 19.036 14.176 42.52zm0 0" stroke-width=".3985" transform="matrix(1 0 0 -1 41.779 93.742)"/></g><use x="54.374" xlink:href="#a" y="52.62"/><use x="58.73" xlink:href="#c" y="54.115"/><use x="88.39" xlink:href="#a" y="52.62"/><use x="92.745" xlink:href="#d" y="54.115"/><use x="3.321" xlink:href="#b" y="53.367"/><path d="m14.174-14.172h84.582" fill="none" stroke="#000" stroke-miterlimit="10" stroke-width=".3985" transform="matrix(1 0 0 -1 41.779 93.742)"/><path d="m-1.195 1.595c.098-.598 1.196-1.495 1.493-1.594-.298-.101-1.395-.996-1.493-1.593" style="fill:none;stroke-width:.31879;stroke-linecap:round;stroke-linejoin:round;stroke:#000;stroke-miterlimit:10" transform="matrix(1 0 0 -1 140.535 107.915)"/><use x="95.73" xlink:href="#a" y="124.233"/><path d="m141.733 42.52h27.64" fill="none" stroke="#000" stroke-miterlimit="10" stroke-width=".79701" transform="matrix(1 0 0 -1 41.779 93.742)"/><path d="m-1.554 2.073c.129-.777 1.554-1.945 1.941-2.073-.387-.13-1.812-1.294-1.941-2.07" style="fill:none;stroke-width:.6376;stroke-linecap:round;stroke-linejoin:round;stroke:#000;stroke-miterlimit:10" transform="matrix(1 0 0 -1 211.152 51.222)"/><path d="m277.8 42.52c0 12.527-10.153 22.679-22.68 22.679-12.524 0-22.676-10.152-22.676-22.68 0-12.523 10.152-22.675 22.675-22.675 12.528 0 22.68 10.152 22.68 22.675zm0 0" fill="none" stroke="#000" stroke-dasharray="2.98883 2.98883" stroke-miterlimit="10" stroke-width=".3985" transform="matrix(1 0 0 -1 41.779 93.742)"/><g clip-path="url(#e)"><path d="m306.147 42.52c0 28.179-22.844 51.023-51.028 51.023-28.18 0-51.023-22.844-51.023-51.024s22.844-51.023 51.023-51.023c28.184 0 51.028 22.844 51.028 51.023zm0 0" fill="none" stroke="#000" stroke-dasharray="2.98883 2.98883" stroke-miterlimit="10" stroke-width=".3985" transform="matrix(1 0 0 -1 41.779 93.742)"/></g><path d="m192.756 42.52.14-4.079.4-4.058.663-4.028.922-3.976 1.188-3.903 1.437-3.82 1.688-3.715 1.918-3.601 2.16-3.465 2.375-3.317 2.59-3.156 2.789-2.98 2.976-2.785 3.156-2.59 3.317-2.375 3.465-2.16 3.601-1.922 3.715-1.684 3.82-1.437 3.907-1.188 3.972-.922 4.028-.664 4.058-.402 3.621-.121" fill="none" stroke="#000" stroke-miterlimit="10" stroke-width=".3985" transform="matrix(1 0 0 -1 41.779 93.742)"/><path d="m-1.195 1.593c.098-.599 1.195-1.492 1.495-1.592-.3-.1-1.397-.996-1.494-1.593" style="fill:none;stroke-width:.31879;stroke-linecap:round;stroke-linejoin:round;stroke:#000;stroke-miterlimit:10" transform="matrix(.99942 .03336 .03336 -.99942 296.442 113.57)"/><use x="234.344" xlink:href="#b" y="90.218"/><use x="309.492" xlink:href="#a" y="27.108"/><use x="313.848" xlink:href="#c" y="28.603"/><use x="332.169" xlink:href="#a" y="10.1"/><use x="336.524" xlink:href="#d" y="11.595"/><path d="m298.309 51.223a1.409 1.409 0 1 0 -2.815-.003 1.409 1.409 0 0 0 2.815.003zm0 0"/></svg>