<svg xmlns="http://www.w3.org/2000/svg" xmlns:xlink="http://www.w3.org/1999/xlink" width="757.5" height="303.956" viewBox="0 0 568.125 227.967"><defs><clipPath id="a"><path d="M56 0h2v227.969h-2Zm0 0"/></clipPath><clipPath id="b"><path d="M0 0h228v227.969H0Zm0 0"/></clipPath><clipPath id="c"><path d="M.598.594H227.37V227.37H.598Zm0 0"/></clipPath><clipPath id="d"><path d="M.598 10H14v15H.598Zm0 0"/></clipPath><clipPath id="e"><path d="M89 .594h4V3h-4Zm0 0"/></clipPath><clipPath id="f"><path d="M84 .594h15V8H84Zm0 0"/></clipPath><clipPath id="g"><path d="M203 214h15v13.371h-15Zm0 0"/></clipPath><clipPath id="h"><path d="M225 135h2.371v4H225Zm0 0"/></clipPath><clipPath id="i"><path d="M220 129h7.371v15H220Zm0 0"/></clipPath><clipPath id="u"><path d="M396 0h3v227.969h-3Zm0 0"/></clipPath><clipPath id="v"><path d="M340 0h228v227.969H340Zm0 0"/></clipPath><clipPath id="w"><path d="M340.758.594h226.777V227.37H340.758Zm0 0"/></clipPath><clipPath id="x"><path d="M345 .594h3V3h-3Zm0 0"/></clipPath><clipPath id="y"><path d="M340.758.594H354V8h-13.242Zm0 0"/></clipPath><clipPath id="z"><path d="M430 .594h3V3h-3Zm0 0"/></clipPath><clipPath id="A"><path d="M424 .594h15V8h-15Zm0 0"/></clipPath><clipPath id="B"><path d="M515 .594h3V3h-3Zm0 0"/></clipPath><clipPath id="C"><path d="M509 .594h15V8h-15Zm0 0"/></clipPath><clipPath id="D"><path d="M566 169h1.535v4H566Zm0 0"/></clipPath><clipPath id="E"><path d="M560 163h7.535v15H560Zm0 0"/></clipPath><symbol overflow="visible" id="j"><path style="stroke:none" d="m1.266-.766 1.062-1.03c1.547-1.376 2.14-1.907 2.14-2.907 0-1.14-.89-1.938-2.109-1.938A1.843 1.843 0 0 0 .5-4.828c0 .547.5.547.531.547.172 0 .516-.11.516-.532a.513.513 0 0 0-.531-.515c-.079 0-.094 0-.125.016.218-.657.765-1.016 1.343-1.016.907 0 1.329.812 1.329 1.625 0 .797-.485 1.578-1.047 2.203L.609-.375C.5-.265.5-.235.5 0h3.703l.266-1.734h-.235C4.172-1.438 4.11-1 4-.844c-.063.078-.719.078-.938.078Zm0 0"/></symbol><symbol overflow="visible" id="n"><path style="stroke:none" d="M3.297 2.39c0-.03 0-.046-.172-.218C1.891.922 1.562-.968 1.562-2.5c0-1.734.375-3.469 1.61-4.703.125-.125.125-.14.125-.172 0-.078-.031-.11-.094-.11-.11 0-1 .688-1.594 1.954C1.11-4.438.984-3.328.984-2.5c0 .781.11 1.984.657 3.125C2.25 1.844 3.094 2.5 3.203 2.5c.063 0 .094-.031.094-.11Zm0 0"/></symbol><symbol overflow="visible" id="o"><path style="stroke:none" d="M4.078-2.297H6.86c.141 0 .329 0 .329-.203 0-.188-.188-.188-.329-.188H4.08v-2.796c0-.141 0-.329-.204-.329-.203 0-.203.188-.203.329v2.796H.89c-.141 0-.329 0-.329.188 0 .203.188.203.329.203h2.78V.5c0 .14 0 .328.204.328.203 0 .203-.187.203-.328Zm0 0"/></symbol><symbol overflow="visible" id="p"><path style="stroke:none" d="M2.875-2.5c0-.766-.11-1.969-.656-3.11C1.625-6.827.766-7.483.672-7.483a.107.107 0 0 0-.11.109c0 .031 0 .047.188.234.984.985 1.547 2.563 1.547 4.641C2.297-.78 1.937.97.703 2.22c-.14.125-.14.14-.14.172 0 .062.046.109.109.109.094 0 1-.688 1.578-1.953.516-1.094.625-2.203.625-3.047Zm0 0"/></symbol><symbol overflow="visible" id="q"><path style="stroke:none" d="M6.844-3.266c.156 0 .343 0 .343-.187 0-.203-.187-.203-.328-.203H.891c-.141 0-.329 0-.329.203 0 .187.188.187.329.187Zm.015 1.938c.141 0 .329 0 .329-.203 0-.188-.188-.188-.344-.188H.89c-.141 0-.329 0-.329.188 0 .203.188.203.329.203Zm0 0"/></symbol><symbol overflow="visible" id="r"><path style="stroke:none" d="M2.938-6.375c0-.25 0-.266-.235-.266C2.078-6 1.203-6 .891-6v.313c.203 0 .78 0 1.296-.266v5.172c0 .36-.03.469-.921.469H.953V0c.344-.031 1.203-.031 1.61-.031.39 0 1.265 0 1.609.031v-.313h-.313c-.906 0-.921-.109-.921-.468Zm0 0"/></symbol><symbol overflow="visible" id="t"><path style="stroke:none" d="M4.578-3.188c0-.796-.047-1.593-.39-2.328C3.733-6.484 2.905-6.64 2.5-6.64c-.61 0-1.328.266-1.75 1.188-.313.687-.36 1.469-.36 2.266 0 .75.032 1.64.454 2.406a1.83 1.83 0 0 0 1.64 1c.532 0 1.297-.203 1.735-1.157.312-.687.36-1.468.36-2.25ZM2.484 0c-.39 0-.984-.25-1.156-1.203-.11-.594-.11-1.516-.11-2.11 0-.64 0-1.296.079-1.828.187-1.187.937-1.28 1.187-1.28.329 0 .985.187 1.172 1.171.11.563.11 1.313.11 1.938 0 .75 0 1.421-.11 2.062C3.5-.297 2.937 0 2.484 0Zm0 0"/></symbol><symbol overflow="visible" id="F"><path style="stroke:none" d="M2.547 2.5v-.406h-.969v-9.172h.969v-.406H1.172V2.5Zm0 0"/></symbol><symbol overflow="visible" id="G"><path style="stroke:none" d="M1.578-7.484H.218v.406h.97v9.172h-.97V2.5h1.36Zm0 0"/></symbol><symbol overflow="visible" id="k"><path style="stroke:none" d="M2.64-3.719h1.126c-.329 1.469-.422 1.906-.422 2.578 0 .141 0 .407.078.75.11.438.219.5.36.5.202 0 .421-.171.421-.375 0-.062 0-.078-.062-.218-.297-.72-.297-1.375-.297-1.657 0-.515.078-1.062.187-1.578h1.125c.14 0 .5 0 .5-.344 0-.234-.218-.234-.406-.234H1.906c-.218 0-.593 0-1.031.469-.344.39-.61.844-.61.89 0 .016 0 .11.126.11.078 0 .093-.047.156-.125.484-.766 1.062-.766 1.265-.766h.563c-.313 1.203-.844 2.406-1.266 3.313-.078.156-.078.172-.078.25 0 .187.157.265.282.265.296 0 .375-.28.5-.64.14-.469.14-.485.265-.985Zm0 0"/></symbol><symbol overflow="visible" id="s"><path style="stroke:none" d="M2.031-.016c0-.656-.25-1.046-.64-1.046a.517.517 0 0 0-.532.53c0 .266.204.532.532.532a.58.58 0 0 0 .343-.125c.032-.031.047-.031.047-.031.016 0 .016 0 .016.14 0 .75-.344 1.344-.672 1.672-.11.11-.11.125-.11.157 0 .078.048.109.094.109.11 0 .922-.766.922-1.938Zm0 0"/></symbol><symbol overflow="visible" id="l"><path style="stroke:none" d="M5.61-3.156c.077-.281.187-.766.187-.828 0-.22-.156-.438-.469-.438-.156 0-.516.078-.656.531-.031.125-.484 1.938-.563 2.266a8.482 8.482 0 0 0-.156.703c-.172.235-.562.64-1.078.64-.578 0-.594-.5-.594-.718 0-.61.313-1.39.594-2.11.094-.265.125-.328.125-.5 0-.578-.578-.89-1.125-.89C.812-4.5.312-3.156.312-2.953c0 .14.157.14.25.14.11 0 .188 0 .22-.124.327-1.11.874-1.204 1.03-1.204.079 0 .172 0 .172.204 0 .234-.125.515-.156.624-.422 1.047-.61 1.61-.61 2.094 0 1.14 1 1.297 1.579 1.297.297 0 .734-.031 1.265-.547.329.485.907.547 1.141.547.375 0 .656-.203.875-.562.234-.407.375-.938.375-.985 0-.14-.156-.14-.25-.14-.11 0-.14 0-.187.046-.032.016-.032.032-.079.282-.203.781-.421 1-.687 1-.14 0-.219-.094-.219-.36 0-.171.032-.343.125-.734.078-.281.172-.672.235-.89Zm0 0"/></symbol><symbol overflow="visible" id="m"><path style="stroke:none" d="M5.39-3.61c0-.906-.671-.906-.671-.906-.407 0-.766.422-.766.75 0 .282.219.407.297.454.422.25.5.437.5.624 0 .22-.578 2.407-1.734 2.407-.72 0-.72-.594-.72-.781 0-.579.282-1.297.595-2.094C2.969-3.36 3-3.453 3-3.61c0-.579-.578-.891-1.125-.891C.812-4.5.312-3.156.312-2.953c0 .14.157.14.25.14.11 0 .188 0 .22-.124.327-1.079.859-1.204 1.03-1.204.079 0 .172 0 .172.204 0 .234-.125.515-.156.593-.453 1.156-.61 1.61-.61 2.094 0 1.047.86 1.328 1.735 1.328 1.719 0 2.438-2.828 2.438-3.687Zm0 0"/></symbol></defs><path style="fill:none;stroke-width:1.19553;stroke-linecap:butt;stroke-linejoin:miter;stroke:#000;stroke-opacity:1;stroke-miterlimit:10" d="M-56.693 0h225.816" transform="matrix(1 0 0 -1 57.291 170.676)"/><path style="fill:none;stroke-width:.9564;stroke-linecap:round;stroke-linejoin:round;stroke:#000;stroke-opacity:1;stroke-miterlimit:10" d="M-1.911 2.551c.156-.957 1.91-2.39 2.39-2.55C0-.16-1.754-1.595-1.91-2.552" transform="matrix(1 0 0 -1 226.415 170.676)"/><g clip-path="url(#a)"><path style="fill:none;stroke-width:1.19553;stroke-linecap:butt;stroke-linejoin:miter;stroke:#000;stroke-opacity:1;stroke-miterlimit:10" d="M-.002-56.695v225.82" transform="matrix(1 0 0 -1 57.291 170.676)"/></g><path style="fill:none;stroke-width:.9564;stroke-linecap:round;stroke-linejoin:round;stroke:#000;stroke-opacity:1;stroke-miterlimit:10" d="M-1.913 2.549C-1.753 1.596.001.159.477.002c-.476-.16-2.23-1.598-2.39-2.55" transform="matrix(0 -1 -1 0 57.291 1.552)"/><g clip-path="url(#b)"><path style="fill:none;stroke-width:.3985;stroke-linecap:butt;stroke-linejoin:miter;stroke:#000;stroke-opacity:1;stroke-miterlimit:10" d="M-56.693-56.695v226.777H170.08V-56.695Zm0 0" transform="matrix(1 0 0 -1 57.291 170.676)"/></g><g clip-path="url(#c)"><path style="fill:none;stroke-width:.19925;stroke-linecap:butt;stroke-linejoin:miter;stroke:gray;stroke-opacity:1;stroke-dasharray:2.98883,2.98883;stroke-miterlimit:10" d="m-260.791-215.433 453.55 90.707m-436.542-5.668 453.55 90.707m-436.542-5.668 453.55 90.71m-436.543-5.667 453.551 90.707m-436.543-5.668 453.551 90.707M-215.436-260.79l90.708 453.547m-5.668-436.539 90.71 453.547m-5.667-436.54 90.707 453.548m-5.668-436.54 90.71 453.547m-5.667-436.539 90.707 453.547" transform="matrix(1 0 0 -1 57.291 170.676)"/></g><path style="stroke:none;fill-rule:nonzero;fill:#000;fill-opacity:1" d="M7.676 17.602c0-.778-.633-1.407-1.41-1.407a1.409 1.409 0 1 0 0 2.817 1.41 1.41 0 0 0 1.41-1.41Zm0 0"/><g clip-path="url(#d)"><path style="fill:none;stroke-width:.3985;stroke-linecap:butt;stroke-linejoin:miter;stroke:#000;stroke-opacity:1;stroke-miterlimit:10" d="M-49.615 153.074c0 .778-.633 1.407-1.41 1.407a1.409 1.409 0 1 1 0-2.817c.777 0 1.41.63 1.41 1.41Zm0 0" transform="matrix(1 0 0 -1 57.291 170.676)"/></g><path style="fill-rule:nonzero;fill:#000;fill-opacity:1;stroke-width:.3985;stroke-linecap:butt;stroke-linejoin:miter;stroke:#000;stroke-opacity:1;stroke-miterlimit:10" d="M1.408 0a1.409 1.409 0 1 1-2.816 0 1.409 1.409 0 1 1 2.816 0Zm17.008 85.04a1.407 1.407 0 1 1-2.816 0c0-.778.629-1.407 1.406-1.407.781 0 1.41.629 1.41 1.406Zm0 0" transform="matrix(1 0 0 -1 57.291 170.676)"/><g clip-path="url(#e)"><path style="stroke:none;fill-rule:nonzero;fill:#000;fill-opacity:1" d="M92.715.594c0-.778-.63-1.406-1.41-1.406a1.409 1.409 0 1 0 1.41 1.406Zm0 0"/></g><g clip-path="url(#f)"><path style="fill:none;stroke-width:.3985;stroke-linecap:butt;stroke-linejoin:miter;stroke:#000;stroke-opacity:1;stroke-miterlimit:10" d="M35.424 170.082c0 .778-.63 1.406-1.41 1.406a1.409 1.409 0 1 1 1.41-1.406Zm0 0" transform="matrix(1 0 0 -1 57.291 170.676)"/></g><path style="fill-rule:nonzero;fill:#000;fill-opacity:1;stroke-width:.3985;stroke-linecap:butt;stroke-linejoin:miter;stroke:#000;stroke-opacity:1;stroke-miterlimit:10" d="M86.451 17.008c0 .777-.633 1.41-1.41 1.41-.777 0-1.41-.633-1.41-1.41 0-.777.633-1.41 1.41-1.41.777 0 1.41.633 1.41 1.41Zm17.004 85.039a1.409 1.409 0 1 1-2.817.003 1.409 1.409 0 0 1 2.817-.003Zm0 0" transform="matrix(1 0 0 -1 57.291 170.676)"/><path style="stroke:none;fill-rule:nonzero;fill:#000;fill-opacity:1" d="M211.773 221.7c0-.778-.632-1.407-1.41-1.407a1.409 1.409 0 1 0 0 2.816 1.41 1.41 0 0 0 1.41-1.41Zm0 0"/><g clip-path="url(#g)"><path style="fill:none;stroke-width:.3985;stroke-linecap:butt;stroke-linejoin:miter;stroke:#000;stroke-opacity:1;stroke-miterlimit:10" d="M154.482-51.023c0 .777-.632 1.406-1.41 1.406a1.409 1.409 0 1 1 0-2.816c.778 0 1.41.629 1.41 1.41Zm0 0" transform="matrix(1 0 0 -1 57.291 170.676)"/></g><g clip-path="url(#h)"><path style="stroke:none;fill-rule:nonzero;fill:#000;fill-opacity:1" d="M228.781 136.66a1.409 1.409 0 1 0-2.816 0 1.409 1.409 0 1 0 2.816 0Zm0 0"/></g><g clip-path="url(#i)"><path style="fill:none;stroke-width:.3985;stroke-linecap:butt;stroke-linejoin:miter;stroke:#000;stroke-opacity:1;stroke-miterlimit:10" d="M171.49 34.016a1.409 1.409 0 1 1-2.816 0 1.409 1.409 0 1 1 2.816 0Zm0 0" transform="matrix(1 0 0 -1 57.291 170.676)"/></g><path style="fill:none;stroke-width:1.59404;stroke-linecap:butt;stroke-linejoin:miter;stroke:#00008b;stroke-opacity:1;stroke-miterlimit:10" d="m-.002 0 78.36 15.672" transform="matrix(1 0 0 -1 57.291 170.676)"/><path style="stroke:none;fill-rule:nonzero;fill:#00008b;fill-opacity:1" d="M142.332 153.668c-2.055.023-5.496-.445-7.98-1.3l1.113 5.57c1.965-1.747 4.96-3.504 6.867-4.27"/><path style="fill-rule:nonzero;fill:#fff;fill-opacity:1;stroke-width:.09962;stroke-linecap:butt;stroke-linejoin:miter;stroke:#000;stroke-opacity:1;stroke-miterlimit:10" d="M88.08 10.477h24.442v13.062H88.08Zm0 0" transform="matrix(1 0 0 -1 57.291 170.676)"/><use xlink:href="#j" x="148.689" y="156.879" style="fill:#000;fill-opacity:1"/><use xlink:href="#k" x="153.671" y="156.879" style="fill:#000;fill-opacity:1"/><use xlink:href="#l" x="159.707" y="156.879" style="fill:#000;fill-opacity:1"/><path style="fill:none;stroke-width:1.59404;stroke-linecap:butt;stroke-linejoin:miter;stroke:#00008b;stroke-opacity:1;stroke-miterlimit:10" d="M-.002 0 15.67 78.36" transform="matrix(1 0 0 -1 57.291 170.676)"/><path style="stroke:none;fill-rule:nonzero;fill:#00008b;fill-opacity:1" d="M74.297 85.637c-.766 1.906-2.524 4.898-4.266 6.867l5.567 1.113c-.852-2.488-1.325-5.926-1.301-7.98"/><path style="fill-rule:nonzero;fill:#fff;fill-opacity:1;stroke-width:.09962;stroke-linecap:butt;stroke-linejoin:miter;stroke:#000;stroke-opacity:1;stroke-miterlimit:10" d="M5.17 88.078h23.676v13.063H5.17Zm0 0" transform="matrix(1 0 0 -1 57.291 170.676)"/><use xlink:href="#j" x="65.782" y="79.278" style="fill:#000;fill-opacity:1"/><use xlink:href="#k" x="70.764" y="79.278" style="fill:#000;fill-opacity:1"/><use xlink:href="#m" x="76.8" y="79.278" style="fill:#000;fill-opacity:1"/><path style="fill:none;stroke-width:1.59404;stroke-linecap:butt;stroke-linejoin:miter;stroke:#00008b;stroke-opacity:1;stroke-miterlimit:10" d="m-.002 0 97.23 97.23" transform="matrix(1 0 0 -1 57.291 170.676)"/><path style="stroke:none;fill-rule:nonzero;fill:#00008b;fill-opacity:1" d="M159.34 68.629c-1.695 1.16-4.82 2.676-7.363 3.344l4.015 4.015c.672-2.543 2.188-5.664 3.348-7.36"/><path style="fill-rule:nonzero;fill:#fff;fill-opacity:1;stroke-width:.09962;stroke-linecap:butt;stroke-linejoin:miter;stroke:#000;stroke-opacity:1;stroke-miterlimit:10" d="M105.088 93.746h50.383v16.606h-50.383Zm0 0" transform="matrix(1 0 0 -1 57.291 170.676)"/><use xlink:href="#j" x="165.697" y="71.12" style="fill:#000;fill-opacity:1"/><use xlink:href="#k" x="170.678" y="71.12" style="fill:#000;fill-opacity:1"/><use xlink:href="#n" x="176.715" y="71.12" style="fill:#000;fill-opacity:1"/><use xlink:href="#l" x="180.589" y="71.12" style="fill:#000;fill-opacity:1"/><use xlink:href="#o" x="189.588" y="71.12" style="fill:#000;fill-opacity:1"/><use xlink:href="#m" x="199.55" y="71.12" style="fill:#000;fill-opacity:1"/><use xlink:href="#p" x="205.565" y="71.12" style="fill:#000;fill-opacity:1"/><path style="fill-rule:nonzero;fill:gray;fill-opacity:.3;stroke-width:.3985;stroke-linecap:butt;stroke-linejoin:miter;stroke:#000;stroke-opacity:1;stroke-miterlimit:10" d="m-.002 0 17.008 85.04 85.043 17.007L85.04 17.008Zm0 0" transform="matrix(1 0 0 -1 57.291 170.676)"/><path style="fill:none;stroke-width:1.59404;stroke-linecap:butt;stroke-linejoin:miter;stroke:#000;stroke-opacity:1;stroke-miterlimit:10" d="M205.291 0h48.625" transform="matrix(1 0 0 -1 57.291 170.676)"/><path style="fill:none;stroke-width:1.59404;stroke-linecap:square;stroke-linejoin:miter;stroke:#000;stroke-opacity:1;stroke-miterlimit:10" d="M.4-4.383v8.766" transform="matrix(-1 0 0 1 262.583 170.676)"/><path style="fill:none;stroke-width:1.27522;stroke-linecap:round;stroke-linejoin:round;stroke:#000;stroke-opacity:1;stroke-miterlimit:10" d="M-2.273 3.028C-2.082 1.895 0 .188.567 0 0-.19-2.083-1.894-2.274-3.027" transform="matrix(1 0 0 -1 311.207 170.676)"/><use xlink:href="#l" x="265.793" y="164.068" style="fill:#000;fill-opacity:1"/><use xlink:href="#q" x="275.345" y="164.068" style="fill:#000;fill-opacity:1"/><g style="fill:#000;fill-opacity:1"><use xlink:href="#n" x="285.864" y="164.068"/><use xlink:href="#r" x="289.738" y="164.068"/></g><use xlink:href="#s" x="294.717" y="164.068" style="fill:#000;fill-opacity:1"/><g style="fill:#000;fill-opacity:1"><use xlink:href="#t" x="299.145" y="164.068"/><use xlink:href="#p" x="304.126" y="164.068"/></g><path style="fill:none;stroke-width:1.19553;stroke-linecap:butt;stroke-linejoin:miter;stroke:#000;stroke-opacity:1;stroke-miterlimit:10" d="M283.467 0h225.82" transform="matrix(1 0 0 -1 57.291 170.676)"/><path style="fill:none;stroke-width:.9564;stroke-linecap:round;stroke-linejoin:round;stroke:#000;stroke-opacity:1;stroke-miterlimit:10" d="M-1.913 2.551C-1.753 1.594.001.161.477.001c-.476-.16-2.23-1.595-2.39-2.552" transform="matrix(1 0 0 -1 566.577 170.676)"/><g clip-path="url(#u)"><path style="fill:none;stroke-width:1.19553;stroke-linecap:butt;stroke-linejoin:miter;stroke:#000;stroke-opacity:1;stroke-miterlimit:10" d="M340.162-56.695v225.82" transform="matrix(1 0 0 -1 57.291 170.676)"/></g><path style="fill:none;stroke-width:.9564;stroke-linecap:round;stroke-linejoin:round;stroke:#000;stroke-opacity:1;stroke-miterlimit:10" d="M-1.913 2.55C-1.753 1.595.001.16.477 0c-.476-.16-2.23-1.594-2.39-2.55" transform="matrix(0 -1 -1 0 397.453 1.552)"/><g clip-path="url(#v)"><path style="fill:none;stroke-width:.3985;stroke-linecap:butt;stroke-linejoin:miter;stroke:#000;stroke-opacity:1;stroke-miterlimit:10" d="M283.467-56.695v226.777h226.777V-56.695Zm0 0" transform="matrix(1 0 0 -1 57.291 170.676)"/></g><g clip-path="url(#w)"><path style="fill:none;stroke-width:.19925;stroke-linecap:butt;stroke-linejoin:miter;stroke:gray;stroke-opacity:1;stroke-dasharray:2.98883,2.98883;stroke-miterlimit:10" d="M79.373-170.082H532.92M96.38-85.039h453.548M113.388.001h453.548m-436.54 85.038h453.547m-436.539 85.043h453.547M124.73-226.773l90.707 453.547m-5.668-453.547 90.707 453.547m-5.668-453.547 90.71 453.547m-5.667-453.547 90.707 453.547m-5.668-453.547 90.707 453.547" transform="matrix(1 0 0 -1 57.291 170.676)"/></g><g clip-path="url(#x)"><path style="stroke:none;fill-rule:nonzero;fill:#000;fill-opacity:1" d="M347.836.594c0-.778-.629-1.406-1.406-1.406-.782 0-1.41.628-1.41 1.406a1.409 1.409 0 1 0 2.816 0Zm0 0"/></g><g clip-path="url(#y)"><path style="fill:none;stroke-width:.3985;stroke-linecap:butt;stroke-linejoin:miter;stroke:#000;stroke-opacity:1;stroke-miterlimit:10" d="M290.545 170.082c0 .778-.629 1.406-1.406 1.406-.782 0-1.41-.628-1.41-1.406a1.409 1.409 0 1 1 2.816 0Zm0 0" transform="matrix(1 0 0 -1 57.291 170.676)"/></g><path style="fill-rule:nonzero;fill:#000;fill-opacity:1;stroke-width:.3985;stroke-linecap:butt;stroke-linejoin:miter;stroke:#000;stroke-opacity:1;stroke-miterlimit:10" d="M341.572 0c0 .778-.633 1.41-1.41 1.41-.777 0-1.41-.632-1.41-1.41 0-.777.633-1.41 1.41-1.41.777 0 1.41.633 1.41 1.41Zm17.008 85.04a1.41 1.41 0 1 1-2.82 0c0-.778.633-1.407 1.41-1.407.777 0 1.41.629 1.41 1.406Zm0 0" transform="matrix(1 0 0 -1 57.291 170.676)"/><g clip-path="url(#z)"><path style="stroke:none;fill-rule:nonzero;fill:#000;fill-opacity:1" d="M432.879.594c0-.778-.633-1.406-1.41-1.406a1.409 1.409 0 1 0 0 2.816c.777 0 1.41-.633 1.41-1.41Zm0 0"/></g><g clip-path="url(#A)"><path style="fill:none;stroke-width:.3985;stroke-linecap:butt;stroke-linejoin:miter;stroke:#000;stroke-opacity:1;stroke-miterlimit:10" d="M375.588 170.082c0 .778-.633 1.406-1.41 1.406a1.409 1.409 0 1 1 0-2.816c.777 0 1.41.633 1.41 1.41Zm0 0" transform="matrix(1 0 0 -1 57.291 170.676)"/></g><path style="fill-rule:nonzero;fill:#000;fill-opacity:1;stroke-width:.3985;stroke-linecap:butt;stroke-linejoin:miter;stroke:#000;stroke-opacity:1;stroke-miterlimit:10" d="M426.611 0a1.409 1.409 0 1 1-2.816 0 1.409 1.409 0 1 1 2.816 0Zm17.009 85.04a1.41 1.41 0 0 1-1.411 1.41 1.406 1.406 0 0 1-1.406-1.41 1.409 1.409 0 0 1 2.816 0Zm0 0" transform="matrix(1 0 0 -1 57.291 170.676)"/><g clip-path="url(#B)"><path style="stroke:none;fill-rule:nonzero;fill:#000;fill-opacity:1" d="M517.918.594a1.409 1.409 0 1 0-2.817.005 1.409 1.409 0 0 0 2.817-.005Zm0 0"/></g><g clip-path="url(#C)"><path style="fill:none;stroke-width:.3985;stroke-linecap:butt;stroke-linejoin:miter;stroke:#000;stroke-opacity:1;stroke-miterlimit:10" d="M460.627 170.082a1.409 1.409 0 1 1-2.817-.005 1.409 1.409 0 0 1 2.817.005Zm0 0" transform="matrix(1 0 0 -1 57.291 170.676)"/></g><g clip-path="url(#D)"><path style="stroke:none;fill-rule:nonzero;fill:#000;fill-opacity:1" d="M568.941 170.676a1.409 1.409 0 1 0-2.816 0 1.409 1.409 0 1 0 2.816 0Zm0 0"/></g><g clip-path="url(#E)"><path style="fill:none;stroke-width:.3985;stroke-linecap:butt;stroke-linejoin:miter;stroke:#000;stroke-opacity:1;stroke-miterlimit:10" d="M511.65 0a1.409 1.409 0 1 1-2.816 0 1.409 1.409 0 1 1 2.816 0Zm0 0" transform="matrix(1 0 0 -1 57.291 170.676)"/></g><path style="fill:none;stroke-width:1.59404;stroke-linecap:butt;stroke-linejoin:miter;stroke:#00008b;stroke-opacity:1;stroke-miterlimit:10" d="M340.162 0h78.227" transform="matrix(1 0 0 -1 57.291 170.676)"/><path style="stroke:none;fill-rule:nonzero;fill:#00008b;fill-opacity:1" d="M482.492 170.676c-2.02-.38-5.3-1.516-7.57-2.84v5.68c2.27-1.325 5.55-2.461 7.57-2.84"/><path style="fill-rule:nonzero;fill:#fff;fill-opacity:1;stroke-width:.09962;stroke-linecap:butt;stroke-linejoin:miter;stroke:#000;stroke-opacity:1;stroke-miterlimit:10" d="M416.373-16.101h17.66V-3.04h-17.66Zm0 0" transform="matrix(1 0 0 -1 57.291 170.676)"/><use xlink:href="#j" x="476.979" y="183.455" style="fill:#000;fill-opacity:1"/><use xlink:href="#k" x="481.96" y="183.455" style="fill:#000;fill-opacity:1"/><path style="fill:none;stroke-width:1.59404;stroke-linecap:butt;stroke-linejoin:miter;stroke:#00008b;stroke-opacity:1;stroke-miterlimit:10" d="m340.162 0 15.672 78.36" transform="matrix(1 0 0 -1 57.291 170.676)"/><path style="stroke:none;fill-rule:nonzero;fill:#00008b;fill-opacity:1" d="M414.46 85.637c-.769 1.906-2.522 4.898-4.269 6.867l5.567 1.113c-.852-2.488-1.32-5.926-1.297-7.98"/><path style="fill-rule:nonzero;fill:#fff;fill-opacity:1;stroke-width:.09962;stroke-linecap:butt;stroke-linejoin:miter;stroke:#000;stroke-opacity:1;stroke-miterlimit:10" d="M345.334 88.078h23.672v13.063h-23.672Zm0 0" transform="matrix(1 0 0 -1 57.291 170.676)"/><use xlink:href="#j" x="405.94" y="79.278" style="fill:#000;fill-opacity:1"/><use xlink:href="#k" x="410.921" y="79.278" style="fill:#000;fill-opacity:1"/><use xlink:href="#m" x="416.958" y="79.278" style="fill:#000;fill-opacity:1"/><path style="fill:none;stroke-width:1.59404;stroke-linecap:butt;stroke-linejoin:miter;stroke:#00008b;stroke-opacity:1;stroke-miterlimit:10" d="m340.162 0 96.813 80.68" transform="matrix(1 0 0 -1 57.291 170.676)"/><path style="stroke:none;fill-rule:nonzero;fill:#00008b;fill-opacity:1" d="M499.5 85.637c-1.793 1-5.04 2.226-7.633 2.664l3.637 4.363c.894-2.473 2.687-5.445 3.996-7.027"/><path style="fill-rule:nonzero;fill:#fff;fill-opacity:1;stroke-width:.09962;stroke-linecap:butt;stroke-linejoin:miter;stroke:#000;stroke-opacity:1;stroke-miterlimit:10" d="M445.248 76.739h63.527v16.605h-63.527Zm0 0" transform="matrix(1 0 0 -1 57.291 170.676)"/><use xlink:href="#j" x="505.855" y="88.127" style="fill:#000;fill-opacity:1"/><use xlink:href="#k" x="510.836" y="88.127" style="fill:#000;fill-opacity:1"/><g style="fill:#000;fill-opacity:1"><use xlink:href="#F" x="516.872" y="88.127"/><use xlink:href="#n" x="519.64" y="88.127"/><use xlink:href="#r" x="523.514" y="88.127"/></g><use xlink:href="#s" x="528.495" y="88.127" style="fill:#000;fill-opacity:1"/><g style="fill:#000;fill-opacity:1"><use xlink:href="#t" x="532.923" y="88.127"/><use xlink:href="#p" x="537.904" y="88.127"/></g><use xlink:href="#o" x="543.99" y="88.127" style="fill:#000;fill-opacity:1"/><use xlink:href="#m" x="553.955" y="88.127" style="fill:#000;fill-opacity:1"/><use xlink:href="#G" x="559.97" y="88.127" style="fill:#000;fill-opacity:1"/><path style="fill-rule:nonzero;fill:gray;fill-opacity:.3;stroke-width:.3985;stroke-linecap:butt;stroke-linejoin:miter;stroke:#000;stroke-opacity:1;stroke-miterlimit:10" d="m340.162 0 17.008 85.04h85.039L425.201 0Zm0 0" transform="matrix(1 0 0 -1 57.291 170.676)"/></svg>