<svg height="303.956" viewBox="0 0 568.125 227.967" width="757.5" xmlns="http://www.w3.org/2000/svg" xmlns:xlink="http://www.w3.org/1999/xlink"><clipPath id="a"><path d="m56 0h2v227.969h-2zm0 0"/></clipPath><clipPath id="b"><path d="m0 0h228v227.969h-228zm0 0"/></clipPath><clipPath id="c"><path d="m.598.594h226.772v226.776h-226.772zm0 0"/></clipPath><clipPath id="d"><path d="m.598 10h13.402v15h-13.402zm0 0"/></clipPath><clipPath id="e"><path d="m89 .594h4v2.406h-4zm0 0"/></clipPath><clipPath id="f"><path d="m84 .594h15v7.406h-15zm0 0"/></clipPath><clipPath id="g"><path d="m203 214h15v13.371h-15zm0 0"/></clipPath><clipPath id="h"><path d="m225 135h2.371v4h-2.371zm0 0"/></clipPath><clipPath id="i"><path d="m220 129h7.371v15h-7.371zm0 0"/></clipPath><clipPath id="j"><path d="m396 0h3v227.969h-3zm0 0"/></clipPath><clipPath id="k"><path d="m340 0h228v227.969h-228zm0 0"/></clipPath><clipPath id="l"><path d="m340.758.594h226.777v226.776h-226.777zm0 0"/></clipPath><clipPath id="m"><path d="m345 .594h3v2.406h-3zm0 0"/></clipPath><clipPath id="n"><path d="m340.758.594h13.242v7.406h-13.242zm0 0"/></clipPath><clipPath id="o"><path d="m430 .594h3v2.406h-3zm0 0"/></clipPath><clipPath id="p"><path d="m424 .594h15v7.406h-15zm0 0"/></clipPath><clipPath id="q"><path d="m515 .594h3v2.406h-3zm0 0"/></clipPath><clipPath id="r"><path d="m509 .594h15v7.406h-15zm0 0"/></clipPath><clipPath id="s"><path d="m566 169h1.535v4h-1.535zm0 0"/></clipPath><clipPath id="t"><path d="m560 163h7.535v15h-7.535zm0 0"/></clipPath><symbol id="u" overflow="visible"><path d="m1.266-.766 1.062-1.03c1.547-1.376 2.14-1.907 2.14-2.907 0-1.14-.89-1.938-2.109-1.938a1.843 1.843 0 0 0 -1.859 1.813c0 .547.5.547.531.547.172 0 .516-.11.516-.532a.513.513 0 0 0 -.531-.515c-.079 0-.094 0-.125.016.218-.657.765-1.016 1.343-1.016.907 0 1.329.812 1.329 1.625 0 .797-.485 1.578-1.047 2.203l-1.907 2.125c-.109.11-.109.14-.109.375h3.703l.266-1.734h-.235c-.062.296-.124.734-.234.89-.063.078-.719.078-.938.078zm0 0"/></symbol><symbol id="v" overflow="visible"><path d="m3.297 2.39c0-.03 0-.046-.172-.218-1.234-1.25-1.563-3.14-1.563-4.672 0-1.734.375-3.469 1.61-4.703.125-.125.125-.14.125-.172 0-.078-.031-.11-.094-.11-.11 0-1 .688-1.594 1.954-.499 1.093-.625 2.203-.625 3.031 0 .781.11 1.984.657 3.125.609 1.219 1.453 1.875 1.562 1.875.063 0 .094-.031.094-.11zm0 0"/></symbol><symbol id="w" overflow="visible"><path d="m4.078-2.297h2.782c.141 0 .329 0 .329-.203 0-.188-.188-.188-.329-.188h-2.78v-2.796c0-.141 0-.329-.204-.329-.203 0-.203.188-.203.329v2.796h-2.783c-.141 0-.329 0-.329.188 0 .203.188.203.329.203h2.78v2.797c0 .14 0 .328.204.328.203 0 .203-.187.203-.328zm0 0"/></symbol><symbol id="x" overflow="visible"><path d="m2.875-2.5c0-.766-.11-1.969-.656-3.11-.594-1.217-1.453-1.873-1.547-1.873a.107.107 0 0 0 -.11.109c0 .031 0 .047.188.234.984.985 1.547 2.563 1.547 4.641 0 1.719-.36 3.469-1.594 4.719-.14.125-.14.14-.14.172 0 .062.046.109.109.109.094 0 1-.688 1.578-1.953.516-1.094.625-2.203.625-3.047zm0 0"/></symbol><symbol id="y" overflow="visible"><path d="m6.844-3.266c.156 0 .343 0 .343-.187 0-.203-.187-.203-.328-.203h-5.968c-.141 0-.329 0-.329.203 0 .187.188.187.329.187zm.015 1.938c.141 0 .329 0 .329-.203 0-.188-.188-.188-.344-.188h-5.954c-.141 0-.329 0-.329.188 0 .203.188.203.329.203zm0 0"/></symbol><symbol id="z" overflow="visible"><path d="m2.938-6.375c0-.25 0-.266-.235-.266-.625.641-1.5.641-1.812.641v.313c.203 0 .78 0 1.296-.266v5.172c0 .36-.03.469-.921.469h-.313v.312c.344-.031 1.203-.031 1.61-.031.39 0 1.265 0 1.609.031v-.313h-.313c-.906 0-.921-.109-.921-.468zm0 0"/></symbol><symbol id="A" overflow="visible"><path d="m4.578-3.188c0-.796-.047-1.593-.39-2.328-.455-.968-1.283-1.124-1.688-1.124-.61 0-1.328.266-1.75 1.188-.313.687-.36 1.469-.36 2.266 0 .75.032 1.64.454 2.406a1.83 1.83 0 0 0 1.64 1c.532 0 1.297-.203 1.735-1.157.312-.687.36-1.468.36-2.25zm-2.094 3.188c-.39 0-.984-.25-1.156-1.203-.11-.594-.11-1.516-.11-2.11 0-.64 0-1.296.079-1.828.187-1.187.937-1.28 1.187-1.28.329 0 .985.187 1.172 1.171.11.563.11 1.313.11 1.938 0 .75 0 1.421-.11 2.062-.156.953-.719 1.25-1.172 1.25zm0 0"/></symbol><symbol id="B" overflow="visible"><path d="m2.547 2.5v-.406h-.969v-9.172h.969v-.406h-1.375v9.984zm0 0"/></symbol><symbol id="C" overflow="visible"><path d="m1.578-7.484h-1.36v.406h.97v9.172h-.97v.406h1.36zm0 0"/></symbol><symbol id="D" overflow="visible"><path d="m2.64-3.719h1.126c-.329 1.469-.422 1.906-.422 2.578 0 .141 0 .407.078.75.11.438.219.5.36.5.202 0 .421-.171.421-.375 0-.062 0-.078-.062-.218-.297-.72-.297-1.375-.297-1.657 0-.515.078-1.062.187-1.578h1.125c.14 0 .5 0 .5-.344 0-.234-.218-.234-.406-.234h-3.344c-.218 0-.593 0-1.031.469-.344.39-.61.844-.61.89 0 .016 0 .11.126.11.078 0 .093-.047.156-.125.484-.766 1.062-.766 1.265-.766h.563c-.313 1.203-.844 2.406-1.266 3.313-.078.156-.078.172-.078.25 0 .187.157.265.282.265.296 0 .375-.28.5-.64.14-.469.14-.485.265-.985zm0 0"/></symbol><symbol id="E" overflow="visible"><path d="m2.031-.016c0-.656-.25-1.046-.64-1.046a.517.517 0 0 0 -.532.53c0 .266.204.532.532.532a.58.58 0 0 0 .343-.125c.032-.031.047-.031.047-.031.016 0 .016 0 .016.14 0 .75-.344 1.344-.672 1.672-.11.11-.11.125-.11.157 0 .078.048.109.094.109.11 0 .922-.766.922-1.938zm0 0"/></symbol><symbol id="F" overflow="visible"><path d="m5.61-3.156c.077-.281.187-.766.187-.828 0-.22-.156-.438-.469-.438-.156 0-.516.078-.656.531-.031.125-.484 1.938-.563 2.266a8.482 8.482 0 0 0 -.156.703c-.172.235-.562.64-1.078.64-.578 0-.594-.5-.594-.718 0-.61.313-1.39.594-2.11.094-.265.125-.328.125-.5 0-.578-.578-.89-1.125-.89-1.063 0-1.563 1.344-1.563 1.547 0 .14.157.14.25.14.11 0 .188 0 .22-.124.327-1.11.874-1.204 1.03-1.204.079 0 .172 0 .172.204 0 .234-.125.515-.156.624-.422 1.047-.61 1.61-.61 2.094 0 1.14 1 1.297 1.579 1.297.297 0 .734-.031 1.265-.547.329.485.907.547 1.141.547.375 0 .656-.203.875-.562.234-.407.375-.938.375-.985 0-.14-.156-.14-.25-.14-.11 0-.14 0-.187.046-.032.016-.032.032-.079.282-.203.781-.421 1-.687 1-.14 0-.219-.094-.219-.36 0-.171.032-.343.125-.734.078-.281.172-.672.235-.89zm0 0"/></symbol><symbol id="G" overflow="visible"><path d="m5.39-3.61c0-.906-.671-.906-.671-.906-.407 0-.766.422-.766.75 0 .282.219.407.297.454.422.25.5.437.5.624 0 .22-.578 2.407-1.734 2.407-.72 0-.72-.594-.72-.781 0-.579.282-1.297.595-2.094.078-.204.109-.297.109-.454 0-.579-.578-.891-1.125-.891-1.063.001-1.563 1.345-1.563 1.548 0 .14.157.14.25.14.11 0 .188 0 .22-.124.327-1.079.859-1.204 1.03-1.204.079 0 .172 0 .172.204 0 .234-.125.515-.156.593-.453 1.156-.61 1.61-.61 2.094 0 1.047.86 1.328 1.735 1.328 1.719 0 2.438-2.828 2.438-3.687zm0 0"/></symbol><path d="m-56.693 0h225.816" fill="none" stroke="#000" stroke-miterlimit="10" stroke-width="1.19553" transform="matrix(1 0 0 -1 57.291 170.676)"/><path d="m-1.911 2.551c.156-.957 1.91-2.39 2.39-2.55-.479-.161-2.233-1.596-2.389-2.553" style="fill:none;stroke-width:.9564;stroke-linecap:round;stroke-linejoin:round;stroke:#000;stroke-miterlimit:10" transform="matrix(1 0 0 -1 226.415 170.676)"/><g clip-path="url(#a)"><path d="m-.002-56.695v225.82" fill="none" stroke="#000" stroke-miterlimit="10" stroke-width="1.19553" transform="matrix(1 0 0 -1 57.291 170.676)"/></g><path d="m-1.913 2.549c.16-.953 1.914-2.39 2.39-2.547-.476-.16-2.23-1.598-2.39-2.55" style="fill:none;stroke-width:.9564;stroke-linecap:round;stroke-linejoin:round;stroke:#000;stroke-miterlimit:10" transform="matrix(0 -1 -1 0 57.291 1.552)"/><g clip-path="url(#b)"><path d="m-56.693-56.695v226.777h226.773v-226.777zm0 0" fill="none" stroke="#000" stroke-miterlimit="10" stroke-width=".3985" transform="matrix(1 0 0 -1 57.291 170.676)"/></g><g clip-path="url(#c)"><path d="m-260.791-215.433 453.55 90.707m-436.542-5.668 453.55 90.707m-436.542-5.668 453.55 90.71m-436.543-5.667 453.551 90.707m-436.543-5.668 453.551 90.707m-476.227-476.224 90.708 453.547m-5.668-436.539 90.71 453.547m-5.667-436.54 90.707 453.548m-5.668-436.54 90.71 453.547m-5.667-436.539 90.707 453.547" fill="none" stroke="#808080" stroke-dasharray="2.98883 2.98883" stroke-miterlimit="10" stroke-width=".19925" transform="matrix(1 0 0 -1 57.291 170.676)"/></g><path d="m7.676 17.602c0-.778-.633-1.407-1.41-1.407a1.409 1.409 0 1 0 0 2.817 1.41 1.41 0 0 0 1.41-1.41zm0 0"/><g clip-path="url(#d)"><path d="m-49.615 153.074c0 .778-.633 1.407-1.41 1.407a1.409 1.409 0 1 1 0-2.817c.777 0 1.41.63 1.41 1.41zm0 0" fill="none" stroke="#000" stroke-miterlimit="10" stroke-width=".3985" transform="matrix(1 0 0 -1 57.291 170.676)"/></g><path d="m1.408 0a1.409 1.409 0 1 1 -2.816 0 1.409 1.409 0 1 1 2.816 0zm17.008 85.04a1.407 1.407 0 1 1 -2.816 0c0-.778.629-1.407 1.406-1.407.781 0 1.41.629 1.41 1.406zm0 0" stroke="#000" stroke-miterlimit="10" stroke-width=".3985" transform="matrix(1 0 0 -1 57.291 170.676)"/><g clip-path="url(#e)"><path d="m92.715.594c0-.778-.63-1.406-1.41-1.406a1.409 1.409 0 1 0 1.41 1.406zm0 0"/></g><g clip-path="url(#f)"><path d="m35.424 170.082c0 .778-.63 1.406-1.41 1.406a1.409 1.409 0 1 1 1.41-1.406zm0 0" fill="none" stroke="#000" stroke-miterlimit="10" stroke-width=".3985" transform="matrix(1 0 0 -1 57.291 170.676)"/></g><path d="m86.451 17.008c0 .777-.633 1.41-1.41 1.41s-1.41-.633-1.41-1.41.633-1.41 1.41-1.41 1.41.633 1.41 1.41zm17.004 85.039a1.409 1.409 0 1 1 -2.817.003 1.409 1.409 0 0 1 2.817-.003zm0 0" stroke="#000" stroke-miterlimit="10" stroke-width=".3985" transform="matrix(1 0 0 -1 57.291 170.676)"/><path d="m211.773 221.7c0-.778-.632-1.407-1.41-1.407a1.409 1.409 0 1 0 0 2.816 1.41 1.41 0 0 0 1.41-1.41zm0 0"/><g clip-path="url(#g)"><path d="m154.482-51.023c0 .777-.632 1.406-1.41 1.406a1.409 1.409 0 1 1 0-2.816c.778 0 1.41.629 1.41 1.41zm0 0" fill="none" stroke="#000" stroke-miterlimit="10" stroke-width=".3985" transform="matrix(1 0 0 -1 57.291 170.676)"/></g><g clip-path="url(#h)"><path d="m228.781 136.66a1.409 1.409 0 1 0 -2.816 0 1.409 1.409 0 1 0 2.816 0zm0 0"/></g><g clip-path="url(#i)"><path d="m171.49 34.016a1.409 1.409 0 1 1 -2.816 0 1.409 1.409 0 1 1 2.816 0zm0 0" fill="none" stroke="#000" stroke-miterlimit="10" stroke-width=".3985" transform="matrix(1 0 0 -1 57.291 170.676)"/></g><path d="m-.002 0 78.36 15.672" fill="none" stroke="#00008b" stroke-miterlimit="10" stroke-width="1.59404" transform="matrix(1 0 0 -1 57.291 170.676)"/><path d="m142.332 153.668c-2.055.023-5.496-.445-7.98-1.3l1.113 5.57c1.965-1.747 4.96-3.504 6.867-4.27" fill="#00008b"/><path d="m88.08 10.477h24.442v13.062h-24.442zm0 0" fill="#fff" stroke="#000" stroke-miterlimit="10" stroke-width=".09962" transform="matrix(1 0 0 -1 57.291 170.676)"/><use x="148.689" xlink:href="#u" y="156.879"/><use x="153.671" xlink:href="#D" y="156.879"/><use x="159.707" xlink:href="#F" y="156.879"/><path d="m-.002 0 15.672 78.36" fill="none" stroke="#00008b" stroke-miterlimit="10" stroke-width="1.59404" transform="matrix(1 0 0 -1 57.291 170.676)"/><path d="m74.297 85.637c-.766 1.906-2.524 4.898-4.266 6.867l5.567 1.113c-.852-2.488-1.325-5.926-1.301-7.98" fill="#00008b"/><path d="m5.17 88.078h23.676v13.063h-23.676zm0 0" fill="#fff" stroke="#000" stroke-miterlimit="10" stroke-width=".09962" transform="matrix(1 0 0 -1 57.291 170.676)"/><use x="65.782" xlink:href="#u" y="79.278"/><use x="70.764" xlink:href="#D" y="79.278"/><use x="76.8" xlink:href="#G" y="79.278"/><path d="m-.002 0 97.23 97.23" fill="none" stroke="#00008b" stroke-miterlimit="10" stroke-width="1.59404" transform="matrix(1 0 0 -1 57.291 170.676)"/><path d="m159.34 68.629c-1.695 1.16-4.82 2.676-7.363 3.344l4.015 4.015c.672-2.543 2.188-5.664 3.348-7.36" fill="#00008b"/><path d="m105.088 93.746h50.383v16.606h-50.383zm0 0" fill="#fff" stroke="#000" stroke-miterlimit="10" stroke-width=".09962" transform="matrix(1 0 0 -1 57.291 170.676)"/><use x="165.697" xlink:href="#u" y="71.12"/><use x="170.678" xlink:href="#D" y="71.12"/><use x="176.715" xlink:href="#v" y="71.12"/><use x="180.589" xlink:href="#F" y="71.12"/><use x="189.588" xlink:href="#w" y="71.12"/><use x="199.55" xlink:href="#G" y="71.12"/><use x="205.565" xlink:href="#x" y="71.12"/><g stroke="#000" stroke-miterlimit="10"><path d="m-.002 0 17.008 85.04 85.043 17.007-17.009-85.039zm0 0" fill="#808080" fill-opacity=".3" stroke-width=".3985" transform="matrix(1 0 0 -1 57.291 170.676)"/><path d="m205.291 0h48.625" fill="none" stroke-width="1.59404" transform="matrix(1 0 0 -1 57.291 170.676)"/><path d="m.4-4.383v8.766" fill="none" stroke-linecap="square" stroke-width="1.59404" transform="matrix(-1 0 0 1 262.583 170.676)"/><path d="m-2.273 3.028c.191-1.133 2.273-2.84 2.84-3.028-.567-.19-2.65-1.894-2.841-3.027" fill="none" stroke-linecap="round" stroke-linejoin="round" stroke-width="1.27522" transform="matrix(1 0 0 -1 311.207 170.676)"/></g><use x="265.793" xlink:href="#F" y="164.068"/><use x="275.345" xlink:href="#y" y="164.068"/><g><use x="285.864" xlink:href="#v" y="164.068"/><use x="289.738" xlink:href="#z" y="164.068"/></g><use x="294.717" xlink:href="#E" y="164.068"/><g><use x="299.145" xlink:href="#A" y="164.068"/><use x="304.126" xlink:href="#x" y="164.068"/></g><path d="m283.467 0h225.82" fill="none" stroke="#000" stroke-miterlimit="10" stroke-width="1.19553" transform="matrix(1 0 0 -1 57.291 170.676)"/><path d="m-1.913 2.551c.16-.957 1.914-2.39 2.39-2.55-.476-.16-2.23-1.595-2.39-2.552" style="fill:none;stroke-width:.9564;stroke-linecap:round;stroke-linejoin:round;stroke:#000;stroke-miterlimit:10" transform="matrix(1 0 0 -1 566.577 170.676)"/><g clip-path="url(#j)"><path d="m340.162-56.695v225.82" fill="none" stroke="#000" stroke-miterlimit="10" stroke-width="1.19553" transform="matrix(1 0 0 -1 57.291 170.676)"/></g><path d="m-1.913 2.55c.16-.955 1.914-2.39 2.39-2.55-.476-.16-2.23-1.594-2.39-2.55" style="fill:none;stroke-width:.9564;stroke-linecap:round;stroke-linejoin:round;stroke:#000;stroke-miterlimit:10" transform="matrix(0 -1 -1 0 397.453 1.552)"/><g clip-path="url(#k)"><path d="m283.467-56.695v226.777h226.777v-226.777zm0 0" fill="none" stroke="#000" stroke-miterlimit="10" stroke-width=".3985" transform="matrix(1 0 0 -1 57.291 170.676)"/></g><g clip-path="url(#l)"><path d="m79.373-170.082h453.547m-436.54 85.043h453.548m-436.54 85.04h453.548m-436.54 85.038h453.547m-436.539 85.043h453.547m-476.221-396.855 90.707 453.547m-5.668-453.547 90.707 453.547m-5.668-453.547 90.71 453.547m-5.667-453.547 90.707 453.547m-5.668-453.547 90.707 453.547" fill="none" stroke="#808080" stroke-dasharray="2.98883 2.98883" stroke-miterlimit="10" stroke-width=".19925" transform="matrix(1 0 0 -1 57.291 170.676)"/></g><g clip-path="url(#m)"><path d="m347.836.594c0-.778-.629-1.406-1.406-1.406-.782 0-1.41.628-1.41 1.406a1.409 1.409 0 1 0 2.816 0zm0 0"/></g><g clip-path="url(#n)"><path d="m290.545 170.082c0 .778-.629 1.406-1.406 1.406-.782 0-1.41-.628-1.41-1.406a1.409 1.409 0 1 1 2.816 0zm0 0" fill="none" stroke="#000" stroke-miterlimit="10" stroke-width=".3985" transform="matrix(1 0 0 -1 57.291 170.676)"/></g><path d="m341.572 0c0 .778-.633 1.41-1.41 1.41s-1.41-.632-1.41-1.41c0-.777.633-1.41 1.41-1.41s1.41.633 1.41 1.41zm17.008 85.04a1.41 1.41 0 1 1 -2.82 0c0-.778.633-1.407 1.41-1.407s1.41.629 1.41 1.406zm0 0" stroke="#000" stroke-miterlimit="10" stroke-width=".3985" transform="matrix(1 0 0 -1 57.291 170.676)"/><g clip-path="url(#o)"><path d="m432.879.594c0-.778-.633-1.406-1.41-1.406a1.409 1.409 0 1 0 0 2.816c.777 0 1.41-.633 1.41-1.41zm0 0"/></g><g clip-path="url(#p)"><path d="m375.588 170.082c0 .778-.633 1.406-1.41 1.406a1.409 1.409 0 1 1 0-2.816c.777 0 1.41.633 1.41 1.41zm0 0" fill="none" stroke="#000" stroke-miterlimit="10" stroke-width=".3985" transform="matrix(1 0 0 -1 57.291 170.676)"/></g><path d="m426.611 0a1.409 1.409 0 1 1 -2.816 0 1.409 1.409 0 1 1 2.816 0zm17.009 85.04a1.41 1.41 0 0 1 -1.411 1.41 1.406 1.406 0 0 1 -1.406-1.41 1.409 1.409 0 0 1 2.816 0zm0 0" stroke="#000" stroke-miterlimit="10" stroke-width=".3985" transform="matrix(1 0 0 -1 57.291 170.676)"/><g clip-path="url(#q)"><path d="m517.918.594a1.409 1.409 0 1 0 -2.817.005 1.409 1.409 0 0 0 2.817-.005zm0 0"/></g><g clip-path="url(#r)"><path d="m460.627 170.082a1.409 1.409 0 1 1 -2.817-.005 1.409 1.409 0 0 1 2.817.005zm0 0" fill="none" stroke="#000" stroke-miterlimit="10" stroke-width=".3985" transform="matrix(1 0 0 -1 57.291 170.676)"/></g><g clip-path="url(#s)"><path d="m568.941 170.676a1.409 1.409 0 1 0 -2.816 0 1.409 1.409 0 1 0 2.816 0zm0 0"/></g><g clip-path="url(#t)"><path d="m511.65 0a1.409 1.409 0 1 1 -2.816 0 1.409 1.409 0 1 1 2.816 0zm0 0" fill="none" stroke="#000" stroke-miterlimit="10" stroke-width=".3985" transform="matrix(1 0 0 -1 57.291 170.676)"/></g><path d="m340.162 0h78.227" fill="none" stroke="#00008b" stroke-miterlimit="10" stroke-width="1.59404" transform="matrix(1 0 0 -1 57.291 170.676)"/><path d="m482.492 170.676c-2.02-.38-5.3-1.516-7.57-2.84v5.68c2.27-1.325 5.55-2.461 7.57-2.84" fill="#00008b"/><path d="m416.373-16.101h17.66v13.061h-17.66zm0 0" fill="#fff" stroke="#000" stroke-miterlimit="10" stroke-width=".09962" transform="matrix(1 0 0 -1 57.291 170.676)"/><use x="476.979" xlink:href="#u" y="183.455"/><use x="481.96" xlink:href="#D" y="183.455"/><path d="m340.162 0 15.672 78.36" fill="none" stroke="#00008b" stroke-miterlimit="10" stroke-width="1.59404" transform="matrix(1 0 0 -1 57.291 170.676)"/><path d="m414.46 85.637c-.769 1.906-2.522 4.898-4.269 6.867l5.567 1.113c-.852-2.488-1.32-5.926-1.297-7.98" fill="#00008b"/><path d="m345.334 88.078h23.672v13.063h-23.672zm0 0" fill="#fff" stroke="#000" stroke-miterlimit="10" stroke-width=".09962" transform="matrix(1 0 0 -1 57.291 170.676)"/><use x="405.94" xlink:href="#u" y="79.278"/><use x="410.921" xlink:href="#D" y="79.278"/><use x="416.958" xlink:href="#G" y="79.278"/><path d="m340.162 0 96.813 80.68" fill="none" stroke="#00008b" stroke-miterlimit="10" stroke-width="1.59404" transform="matrix(1 0 0 -1 57.291 170.676)"/><path d="m499.5 85.637c-1.793 1-5.04 2.226-7.633 2.664l3.637 4.363c.894-2.473 2.687-5.445 3.996-7.027" fill="#00008b"/><path d="m445.248 76.739h63.527v16.605h-63.527zm0 0" fill="#fff" stroke="#000" stroke-miterlimit="10" stroke-width=".09962" transform="matrix(1 0 0 -1 57.291 170.676)"/><use x="505.855" xlink:href="#u" y="88.127"/><use x="510.836" xlink:href="#D" y="88.127"/><g><use x="516.872" xlink:href="#B" y="88.127"/><use x="519.64" xlink:href="#v" y="88.127"/><use x="523.514" xlink:href="#z" y="88.127"/></g><use x="528.495" xlink:href="#E" y="88.127"/><g><use x="532.923" xlink:href="#A" y="88.127"/><use x="537.904" xlink:href="#x" y="88.127"/></g><use x="543.99" xlink:href="#w" y="88.127"/><use x="553.955" xlink:href="#G" y="88.127"/><use x="559.97" xlink:href="#C" y="88.127"/><path d="m340.162 0 17.008 85.04h85.039l-17.008-85.04zm0 0" fill="#808080" fill-opacity=".3" stroke="#000" stroke-miterlimit="10" stroke-width=".3985" transform="matrix(1 0 0 -1 57.291 170.676)"/></svg>