<svg xmlns="http://www.w3.org/2000/svg" xmlns:xlink="http://www.w3.org/1999/xlink" width="288.8" height="212.617" viewBox="0 0 216.6 159.463"><defs><symbol overflow="visible" id="a"><path style="stroke:none" d="m4-4.125-1.438-.313c-.406-.093-.953-.421-.953-1.03 0-.438.282-1.048 1.266-1.048.797 0 1.813.329 2.047 1.688.031.25.031.266.234.266.25 0 .25-.047.25-.282v-1.828c0-.187 0-.281-.187-.281-.078 0-.078.016-.188.11l-.453.437C4-6.86 3.344-6.953 2.875-6.953c-1.516 0-2.234.969-2.234 2.016 0 .64.328 1.093.53 1.312.5.5.829.563 1.923.797.875.203 1.047.219 1.265.437.141.141.391.407.391.86 0 .484-.25 1.172-1.297 1.172-.75 0-2.265-.204-2.344-1.688-.015-.172-.015-.219-.234-.219-.234 0-.234.047-.234.282v1.812C.64.016.64.11.812.11.906.11.922.094 1 .016l.469-.454C2.125.047 3.047.11 3.453.11 5.11.11 5.72-1.016 5.72-2.03c0-1.094-.797-1.906-1.719-2.094Zm0 0"/></symbol><symbol overflow="visible" id="b"><path style="stroke:none" d="M2.234-4.484.5-4.406v.468c.594 0 .656 0 .656.391v3.078H.47V0a26.26 26.26 0 0 1 1.219-.031c.296 0 .812.015 1.156.031v-.469h-.61Zm.094-1.672a.767.767 0 0 0-.765-.766.774.774 0 1 0 0 1.547.78.78 0 0 0 .765-.781Zm0 0"/></symbol><symbol overflow="visible" id="c"><path style="stroke:none" d="M1.14-3.547v3.078H.454V0c.281-.016.875-.031 1.25-.031.39 0 .984.015 1.25.031v-.469h-.687v-2.078c0-1.094.859-1.578 1.5-1.578.328 0 .546.203.546.969V-.47h-.687V0c.266-.016.875-.031 1.25-.031.39 0 .984.015 1.25.031v-.469h-.688v-2.578c0-1.047-.53-1.437-1.53-1.437-.954 0-1.485.562-1.75 1.078v-1.078l-1.704.078v.468c.61 0 .688 0 .688.391Zm0 0"/></symbol><symbol overflow="visible" id="d"><path style="stroke:none" d="M2.547-1.89c-.875 0-.875-.673-.875-1.126 0-.437 0-1.109.875-1.109s.875.672.875 1.11c0 .453 0 1.124-.875 1.124Zm-1.219.093c.453.234.969.266 1.219.266 1.437 0 1.984-.782 1.984-1.485 0-.468-.25-.796-.406-.953.297-.156.516-.172.625-.187a.433.433 0 0 0-.047.203c0 .25.172.422.438.422a.41.41 0 0 0 .421-.422c0-.235-.171-.578-.625-.578-.156 0-.625.031-1.062.375-.172-.125-.594-.328-1.328-.328-1.438 0-1.985.78-1.985 1.468 0 .407.188.829.516 1.047-.281.36-.344.688-.344.89 0 .157.047.641.438.954-.125.031-.86.25-.86.875C.313 1.25.875 2 2.86 2 4.625 2 5.406 1.422 5.406.719c0-.297-.078-.922-.75-1.266-.562-.281-1.156-.281-2.11-.281-.265 0-.718 0-.765-.016a.625.625 0 0 1-.562-.625.63.63 0 0 1 .11-.328Zm.61 1.922h1.171c.313 0 1.438 0 1.438.625 0 .36-.39.89-1.688.89-1.187 0-1.687-.452-1.687-.906 0-.609.625-.609.766-.609Zm0 0"/></symbol><symbol overflow="visible" id="e"><path style="stroke:none" d="M2.234-6.922.47-6.844v.469c.625 0 .687 0 .687.39v5.516H.47V0a26.26 26.26 0 0 1 1.219-.031c.437 0 .89.015 1.234.031v-.469h-.688Zm0 0"/></symbol><symbol overflow="visible" id="f"><path style="stroke:none" d="M4.61-2.172c.218 0 .312 0 .312-.265 0-.313-.063-1.047-.563-1.547-.359-.36-.89-.532-1.578-.532C1.187-4.516.312-3.484.312-2.25c0 1.344 1 2.313 2.61 2.313 1.578 0 2-1.063 2-1.235 0-.172-.188-.172-.234-.172-.172 0-.188.047-.25.203-.204.485-.782.797-1.422.797-1.407 0-1.422-1.328-1.422-1.828ZM1.593-2.5c.015-.39.031-.813.234-1.14.266-.391.672-.516.953-.516 1.172 0 1.188 1.312 1.203 1.656Zm0 0"/></symbol><symbol overflow="visible" id="g"><path style="stroke:none" d="M3.172-1.734v-.97H.125v.97Zm0 0"/></symbol><symbol overflow="visible" id="h"><path style="stroke:none" d="M1.14-.469H.454V0c.281-.016.875-.031 1.25-.031.39 0 .984.015 1.25.031v-.469h-.687v-2.078c0-1.094.859-1.578 1.5-1.578.328 0 .546.203.546.969V-.47h-.687V0c.266-.016.875-.031 1.25-.031.39 0 .984.015 1.25.031v-.469h-.688v-2.578c0-1.047-.53-1.437-1.53-1.437-.954 0-1.47.578-1.688.968v-3.406l-1.766.078v.469c.61 0 .688 0 .688.39Zm0 0"/></symbol><symbol overflow="visible" id="i"><path style="stroke:none" d="M3.734-.766c0 .313 0 .766 1.032.766h.484c.188 0 .313 0 .313-.234 0-.235-.125-.235-.266-.235-.61-.015-.61-.14-.61-.375v-2.14c0-.891-.703-1.532-2.187-1.532-.563 0-1.781.047-1.781.922 0 .438.344.625.61.625.312 0 .64-.219.64-.625 0-.297-.188-.469-.219-.5.281-.047.594-.062.719-.062.734 0 1.094.422 1.094 1.172v.343c-.72.032-3.25.125-3.25 1.563 0 .953 1.25 1.14 1.937 1.14.797 0 1.266-.406 1.484-.828Zm-.171-1.562v.937c0 .97-.922 1.094-1.172 1.094-.5 0-.907-.344-.907-.797 0-1.062 1.579-1.203 2.079-1.234Zm0 0"/></symbol><symbol overflow="visible" id="j"><path style="stroke:none" d="M4.172-.422v.484L5.984 0v-.469c-.609 0-.687 0-.687-.39v-6.063l-1.766.078v.469c.625 0 .703 0 .703.39v1.954a2.178 2.178 0 0 0-1.359-.453c-1.453 0-2.5.875-2.5 2.28 0 1.313.922 2.267 2.39 2.267.61 0 1.094-.235 1.407-.485Zm0-3.094v2.485c-.14.187-.547.734-1.297.734-1.219 0-1.219-1.203-1.219-1.906 0-.485 0-1.016.25-1.406.297-.422.766-.516 1.078-.516.563 0 .97.313 1.188.61Zm0 0"/></symbol><symbol overflow="visible" id="k"><path style="stroke:none" d="M1.031-3.953v2.734c0 1.063.86 1.282 1.578 1.282.75 0 1.204-.579 1.204-1.297v-.532h-.47v.516c0 .672-.327.906-.609.906-.578 0-.578-.64-.578-.86v-2.75h1.469v-.468H2.156v-1.906h-.469c0 1-.484 1.984-1.484 2.016v.359Zm0 0"/></symbol><symbol overflow="visible" id="l"><path style="stroke:none" d="M5.406-2.172c0-1.344-.922-2.344-2.547-2.344C1.22-4.516.313-3.5.313-2.172c0 1.235.89 2.235 2.546 2.235 1.672 0 2.547-1.016 2.547-2.235ZM2.86-.344c-1.265 0-1.265-1.078-1.265-1.937 0-.453 0-.953.172-1.297.187-.375.609-.578 1.093-.578.422 0 .844.156 1.063.5.203.344.203.89.203 1.375 0 .86 0 1.937-1.266 1.937Zm0 0"/></symbol><symbol overflow="visible" id="m"><path style="stroke:none" d="M3.969-6.938c-.047-.125-.078-.203-.235-.203-.156 0-.187.063-.234.204L1.437-.984C1.25-.47.86-.313.313-.313V0c.235-.016.672-.031 1.016-.031.313 0 .828.015 1.156.031v-.313c-.5 0-.75-.25-.75-.5 0-.03.016-.14.016-.156l.469-1.297h2.453l.53 1.516a.58.58 0 0 1 .031.14c0 .297-.562.297-.828.297V0c.36-.031 1.063-.031 1.438-.031.422 0 .89.015 1.297.031v-.313h-.172c-.594 0-.735-.062-.844-.39Zm-.531 1.11 1.124 3.25H2.329Zm0 0"/></symbol><symbol overflow="visible" id="n"><path style="stroke:none" d="M1.719-3.984h1.437v-.313H1.72v-1.828h-.25c0 .813-.297 1.875-1.282 1.922v.219h.844v2.75c0 1.218.938 1.343 1.297 1.343.703 0 .985-.703.985-1.343v-.563h-.25v.547c0 .734-.297 1.11-.672 1.11-.672 0-.672-.907-.672-1.079Zm0 0"/></symbol><symbol overflow="visible" id="o"><path style="stroke:none" d="M1.11-2.516C1.171-4 2.015-4.25 2.36-4.25c1.015 0 1.124 1.344 1.124 1.734Zm0 .22h2.78c.22 0 .25 0 .25-.22 0-.984-.546-1.953-1.78-1.953-1.158 0-2.08 1.032-2.08 2.282C.281-.86 1.328.108 2.47.108 3.688.11 4.14-1 4.14-1.187c0-.094-.079-.125-.141-.125-.078 0-.11.062-.125.14C3.531-.14 2.625-.14 2.531-.14c-.5 0-.89-.296-1.125-.671-.297-.47-.297-1.125-.297-1.485Zm0 0"/></symbol><symbol overflow="visible" id="p"><path style="stroke:none" d="M1.094-3.422V-.75c0 .438-.11.438-.782.438V0c.36-.016.86-.031 1.141-.031.25 0 .766.015 1.11.031v-.313c-.672 0-.782 0-.782-.437v-1.844c0-1.031.719-1.594 1.344-1.594.64 0 .75.532.75 1.11V-.75c0 .438-.11.438-.781.438V0c.344-.016.86-.031 1.125-.031.25 0 .781.015 1.11.031v-.313c-.516 0-.766 0-.766-.296v-1.907c0-.859 0-1.156-.313-1.515-.14-.172-.469-.375-1.047-.375-.734 0-1.203.422-1.484 1.047v-1.047l-1.407.11v.312c.704 0 .782.062.782.562Zm0 0"/></symbol><symbol overflow="visible" id="q"><path style="stroke:none" d="m1.766-4.406-1.391.11v.312c.64 0 .734.062.734.546V-.75c0 .438-.109.438-.78.438V0c.312-.016.859-.031 1.093-.031.36 0 .703.015 1.047.031v-.313c-.672 0-.703-.046-.703-.437Zm.03-1.735a.514.514 0 0 0-.515-.53.537.537 0 0 0-.531.53c0 .266.219.532.531.532a.514.514 0 0 0 .516-.532Zm0 0"/></symbol><symbol overflow="visible" id="r"><path style="stroke:none" d="M4.688-2.14c0-1.266-.985-2.329-2.188-2.329C1.25-4.469.281-3.375.281-2.14A2.22 2.22 0 0 0 2.484.11c1.204 0 2.204-.984 2.204-2.25ZM2.5-.14c-.438 0-.875-.204-1.14-.672-.25-.438-.25-1.047-.25-1.407 0-.39 0-.922.234-1.36a1.347 1.347 0 0 1 1.14-.671c.438 0 .86.219 1.125.656.266.422.266 1 .266 1.375 0 .36 0 .906-.219 1.344-.234.453-.672.734-1.156.734Zm0 0"/></symbol><symbol overflow="visible" id="s"><path style="stroke:none" d="M3.297 2.39c0-.03 0-.046-.172-.218C1.891.922 1.562-.968 1.562-2.5c0-1.734.375-3.469 1.61-4.703.125-.125.125-.14.125-.172 0-.078-.031-.11-.094-.11-.11 0-1 .688-1.594 1.954C1.11-4.438.984-3.328.984-2.5c0 .781.11 1.984.657 3.125C2.25 1.844 3.094 2.5 3.203 2.5c.063 0 .094-.031.094-.11Zm0 0"/></symbol><symbol overflow="visible" id="x"><path style="stroke:none" d="M2.875-2.5c0-.766-.11-1.969-.656-3.11C1.625-6.827.766-7.483.672-7.483a.107.107 0 0 0-.11.109c0 .031 0 .047.188.234.984.985 1.547 2.563 1.547 4.641C2.297-.78 1.937.97.703 2.22c-.14.125-.14.14-.14.172 0 .062.046.109.109.109.094 0 1-.688 1.578-1.953.516-1.094.625-2.203.625-3.047Zm0 0"/></symbol><symbol overflow="visible" id="y"><path style="stroke:none" d="M6.844-3.266c.156 0 .343 0 .343-.187 0-.203-.187-.203-.328-.203H.891c-.141 0-.329 0-.329.203 0 .187.188.187.329.187Zm.015 1.938c.141 0 .329 0 .329-.203 0-.188-.188-.188-.344-.188H.89c-.141 0-.329 0-.329.188 0 .203.188.203.329.203Zm0 0"/></symbol><symbol overflow="visible" id="z"><path style="stroke:none" d="M2.078-1.938c.219.047 1.031.204 1.031.922 0 .5-.343.907-1.125.907-.843 0-1.203-.563-1.39-1.422-.031-.125-.031-.157-.14-.157-.126 0-.126.063-.126.235v1.328c0 .172 0 .234.11.234C.483.11.5.094.688-.094.703-.109.703-.125.89-.312c.437.406.89.421 1.093.421 1.141 0 1.61-.671 1.61-1.39 0-.516-.297-.828-.422-.938-.328-.328-.719-.406-1.14-.484-.563-.11-1.22-.235-1.22-.813 0-.359.25-.765 1.11-.765 1.094 0 1.156.906 1.172 1.203 0 .094.094.094.11.094.14 0 .14-.047.14-.235v-1.015c0-.157 0-.235-.11-.235-.046 0-.078 0-.203.125a1.676 1.676 0 0 1-.172.157c-.375-.282-.78-.282-.937-.282-1.219 0-1.594.672-1.594 1.235 0 .343.156.625.422.843.328.25.61.313 1.328.454Zm0 0"/></symbol><symbol overflow="visible" id="A"><path style="stroke:none" d="M1.75-4.297v-1.156c0-.875.469-1.36.906-1.36.031 0 .188 0 .328.079a.443.443 0 0 0-.296.421c0 .22.156.422.437.422s.438-.203.438-.437c0-.375-.376-.703-.907-.703-.687 0-1.547.531-1.547 1.593v1.141H.33v.313h.78V-.75c0 .438-.109.438-.765.438V0c.39-.016.86-.031 1.125-.031.406 0 .875 0 1.265.031v-.313h-.203c-.734 0-.75-.109-.75-.468v-3.203h1.125v-.313Zm0 0"/></symbol><symbol overflow="visible" id="B"><path style="stroke:none" d="M1.094-3.422V-.75c0 .438-.11.438-.782.438V0c.36-.016.86-.031 1.141-.031.25 0 .766.015 1.11.031v-.313c-.672 0-.782 0-.782-.437v-1.844c0-1.031.719-1.594 1.344-1.594.64 0 .75.532.75 1.11V-.75c0 .438-.11.438-.781.438V0c.344-.016.86-.031 1.125-.031.25 0 .781.015 1.11.031v-.313c-.657 0-.766 0-.766-.437v-1.844c0-1.031.703-1.594 1.343-1.594.625 0 .735.532.735 1.11V-.75c0 .438-.11.438-.782.438V0c.344-.016.86-.031 1.125-.031.266 0 .782.015 1.125.031v-.313c-.515 0-.765 0-.78-.296v-1.907c0-.859 0-1.156-.313-1.515-.141-.172-.47-.375-1.047-.375-.828 0-1.282.593-1.438.984-.14-.875-.875-.984-1.328-.984-.734 0-1.203.422-1.484 1.047v-1.047l-1.407.11v.312c.704 0 .782.062.782.562Zm0 0"/></symbol><symbol overflow="visible" id="C"><path style="stroke:none" d="M3.313-.75c.046.39.312.813.78.813.22 0 .829-.141.829-.954v-.562h-.25v.562c0 .579-.25.641-.36.641-.328 0-.375-.453-.375-.5v-1.984c0-.422 0-.813-.359-1.188a1.9 1.9 0 0 0-1.36-.547C1.391-4.469.703-4 .703-3.344c0 .297.203.469.469.469a.435.435 0 0 0 .453-.453c0-.125-.047-.453-.516-.453.282-.36.766-.469 1.079-.469.5 0 1.062.39 1.062 1.281v.36c-.516.03-1.203.062-1.828.359-.75.344-1 .86-1 1.297 0 .812.969 1.062 1.594 1.062A1.38 1.38 0 0 0 3.312-.75ZM3.25-2.39v1c0 .937-.719 1.28-1.172 1.28-.484 0-.89-.343-.89-.843 0-.547.421-1.375 2.062-1.438Zm0 0"/></symbol><symbol overflow="visible" id="D"><path style="stroke:none" d="M2.86-2.344c.296-.375.671-.86.921-1.125.313-.36.719-.515 1.188-.515v-.313a14.35 14.35 0 0 1-.828.031c-.297 0-.829-.015-.954-.03v.312c.22.015.297.14.297.312 0 .156-.109.281-.156.344l-.61.781-.78-1.015c-.094-.094-.094-.11-.094-.172 0-.157.156-.25.343-.25v-.313c-.25.016-.906.031-1.078.031-.203 0-.671-.015-.937-.03v.312c.703 0 .703 0 1.172.609l.984 1.281-.937 1.188a1.566 1.566 0 0 1-1.266.594V0c.25-.016.563-.031.828-.031.281 0 .703.015.938.031v-.313c-.22-.03-.282-.156-.282-.312 0-.219.282-.547.891-1.266l.766 1c.078.11.203.266.203.329 0 .093-.094.25-.36.25V0c.297-.016.86-.031 1.079-.031.265 0 .656.015.953.031v-.313c-.532 0-.72-.015-.938-.312Zm0 0"/></symbol><symbol overflow="visible" id="t"><path style="stroke:none" d="M4.36-.063c1.546-.578 3.015-2.359 3.015-4.28 0-1.61-1.063-2.688-2.547-2.688-2.14 0-4.344 2.265-4.344 4.593C.484-.78 1.61.22 3.047.22c.25 0 .578-.047.969-.157-.032.625-.032.641-.032.782 0 .312 0 1.094.829 1.094C5.984 1.938 6.468.109 6.468 0c0-.063-.063-.094-.11-.094-.078 0-.093.047-.125.11C6 .719 5.422.969 5.078.969c-.469 0-.61-.266-.719-1.031ZM2.483-.14C1.704-.453 1.36-1.219 1.36-2.125c0-.688.266-2.11 1.016-3.172.734-1.016 1.672-1.484 2.406-1.484.985 0 1.719.781 1.719 2.11 0 1-.516 3.343-2.188 4.265-.046-.344-.14-1.063-.875-1.063-.53 0-1.015.485-1.015 1.016 0 .187.062.297.062.312Zm.61.11c-.14 0-.453 0-.453-.422 0-.406.375-.797.796-.797.422 0 .61.234.61.844 0 .14-.016.156-.11.203-.265.11-.562.172-.843.172Zm0 0"/></symbol><symbol overflow="visible" id="u"><path style="stroke:none" d="M2.031-.016c0-.656-.25-1.046-.64-1.046a.517.517 0 0 0-.532.53c0 .266.204.532.532.532a.58.58 0 0 0 .343-.125c.032-.031.047-.031.047-.031.016 0 .016 0 .016.14 0 .75-.344 1.344-.672 1.672-.11.11-.11.125-.11.157 0 .078.048.109.094.109.11 0 .922-.766.922-1.938Zm0 0"/></symbol><symbol overflow="visible" id="v"><path style="stroke:none" d="M5.078-4.031a.497.497 0 0 1-.047-.14s.172-.141.282-.22l1.75-1.343C8-6.438 8.39-6.47 8.688-6.5c.078-.016.171-.016.171-.203 0-.031-.03-.11-.109-.11-.219 0-.469.032-.703.032-.36 0-.75-.032-1.11-.032-.062 0-.187 0-.187.204 0 .062.047.093.125.109.219.016.297.063.297.203 0 .188-.297.422-.36.469L2.938-2.844l.797-3.203c.079-.36.11-.453.829-.453.25 0 .343 0 .343-.203 0-.078-.078-.11-.14-.11-.282 0-1 .032-1.282.032-.28 0-.984-.032-1.28-.032-.063 0-.204 0-.204.188 0 .125.094.125.297.125.125 0 .312.016.422.016.156.03.219.046.219.171 0 .032 0 .063-.032.188L1.562-.781c-.093.39-.109.469-.906.469-.172 0-.281 0-.281.187C.375 0 .5 0 .531 0c.281 0 .985-.031 1.266-.031.203 0 .422.015.64.015.22 0 .438.016.641.016.078 0 .203 0 .203-.203 0-.11-.094-.11-.281-.11-.375 0-.64 0-.64-.171 0-.079.046-.297.078-.438.14-.531.28-1.047.406-1.578l1.484-1.156L5.484-.97c.125.266.125.297.125.344 0 .313-.437.313-.53.313-.11 0-.22 0-.22.203C4.86 0 4.984 0 5 0c.406 0 .828-.031 1.219-.031.218 0 .765.031.984.031.047 0 .172 0 .172-.203 0-.11-.11-.11-.203-.11-.406 0-.531-.093-.688-.437Zm0 0"/></symbol><symbol overflow="visible" id="w"><path style="stroke:none" d="M6.266-5.672c.484-.781.906-.812 1.265-.828.125-.016.14-.172.14-.188 0-.078-.062-.125-.14-.125-.25 0-.547.032-.812.032-.328 0-.672-.032-.985-.032-.062 0-.187 0-.187.188 0 .11.078.125.156.125.266.016.453.125.453.328 0 .156-.14.375-.14.375L2.953-.922l-.687-5.281c0-.172.234-.297.687-.297.14 0 .25 0 .25-.203 0-.078-.078-.11-.125-.11-.406 0-.828.032-1.25.032h-.547c-.172 0-.36-.032-.531-.032-.078 0-.188 0-.188.188 0 .125.079.125.25.125.547 0 .563.094.594.344l.782 6.14c.03.204.078.235.203.235.156 0 .203-.047.28-.172Zm0 0"/></symbol><symbol overflow="visible" id="K"><path style="stroke:none" d="M5.14-6.813s0-.109-.124-.109c-.157 0-1.094.094-1.266.11-.078.015-.14.062-.14.187s.093.125.234.125c.484 0 .5.063.5.172l-.032.203-.593 2.36c-.188-.376-.469-.641-.922-.641-1.156 0-2.39 1.468-2.39 2.922C.406-.547.952.109 1.718.109c.203 0 .703-.046 1.297-.75a.91.91 0 0 0 .906.75c.36 0 .578-.234.75-.546a6.49 6.49 0 0 0 .297-.985c0-.11-.094-.11-.125-.11-.094 0-.11.048-.14.188-.173.64-.345 1.235-.75 1.235-.282 0-.298-.266-.298-.454 0-.25.016-.312.047-.484ZM3.079-1.188c-.062.188-.062.204-.203.375-.438.547-.844.704-1.125.704-.5 0-.64-.547-.64-.938 0-.5.312-1.719.546-2.187.313-.579.75-.954 1.157-.954.64 0 .78.813.78.875a.562.562 0 0 1-.03.172Zm0 0"/></symbol><symbol overflow="visible" id="E"><path style="stroke:none" d="M1.39-1.594c0-.578.266-1.281.938-1.281a.325.325 0 0 0-.125.25c0 .234.188.313.313.313.171 0 .328-.11.328-.313 0-.234-.235-.453-.563-.453-.344 0-.734.219-.937.75v-.75L.344-3v.25c.469 0 .515.047.515.39v1.813C.86-.25.797-.25.344-.25V0c.031 0 .5-.031.797-.031.296 0 .593.015.906.031v-.25h-.14c-.516 0-.516-.078-.516-.313Zm0 0"/></symbol><symbol overflow="visible" id="F"><path style="stroke:none" d="M3.688-1.484c0-.875-.75-1.625-1.704-1.625-.968 0-1.718.75-1.718 1.625 0 .859.765 1.546 1.718 1.546.938 0 1.704-.687 1.704-1.546ZM1.984-.156c-.265 0-.64-.078-.875-.422-.187-.281-.203-.64-.203-.969 0-.297 0-.719.25-1.016.172-.203.469-.343.828-.343.407 0 .704.187.86.406.187.266.203.625.203.953 0 .328-.016.703-.219.984-.187.266-.5.407-.844.407Zm0 0"/></symbol><symbol overflow="visible" id="G"><path style="stroke:none" d="M4.875-2.328c.14-.344.375-.422.594-.422V-3c-.188.016-.313.031-.5.031-.219 0-.485-.015-.688-.031v.25c.235 0 .36.14.36.297 0 .062 0 .078-.047.172L3.922-.547l-.75-1.906a.294.294 0 0 1-.031-.125c0-.156.171-.172.375-.172V-3c-.25.016-.5.031-.75.031-.204 0-.422-.015-.625-.031v.25c.171 0 .312 0 .406.047.094.078.156.312.156.312a.165.165 0 0 1-.031.079L2.016-.641l-.704-1.812c-.03-.094-.03-.094-.03-.125 0-.172.25-.172.374-.172V-3c-.015 0-.515.031-.797.031-.218 0-.437-.015-.656-.031v.25c.281 0 .438 0 .5.203l.969 2.453c.047.11.062.157.203.157.125 0 .14-.047.172-.141l.797-1.984.765 1.968c.047.094.063.157.204.157.124 0 .14-.047.187-.157Zm0 0"/></symbol><symbol overflow="visible" id="R"><path style="stroke:none" d="M2.64-2.922c0-.125 0-.187-.093-.187-.031 0-.047 0-.14.078-.016.015-.079.078-.126.11-.219-.142-.469-.188-.734-.188-1 0-1.234.53-1.234.875 0 .218.093.406.265.546.266.22.531.266.969.344.344.063.906.157.906.625 0 .266-.187.594-.86.594-.671 0-.905-.438-1.03-.906C.53-1.125.53-1.156.438-1.156c-.126 0-.126.047-.126.187v.86c0 .109 0 .171.094.171.063 0 .203-.14.344-.296.297.296.672.296.844.296.906 0 1.25-.484 1.25-.968a.823.823 0 0 0-.313-.64c-.265-.25-.578-.313-.828-.345-.547-.109-1-.187-1-.562 0-.219.188-.485.844-.485.812 0 .844.563.86.766 0 .078.093.078.109.078.125 0 .125-.047.125-.187Zm0 0"/></symbol><symbol overflow="visible" id="S"><path style="stroke:none" d="M1.438-2.75h.875V-3h-.907v-.781c0-.64.375-.922.672-.922.063 0 .14 0 .203.031-.094.047-.156.156-.156.281 0 .188.14.313.328.313s.328-.125.328-.313c0-.312-.312-.515-.687-.515-.547 0-1.188.39-1.188 1.125V-3H.312v.25h.594v2.203c0 .297-.062.297-.515.297V0c.03 0 .515-.031.796-.031.297 0 .61.015.907.031v-.25h-.14c-.516 0-.516-.078-.516-.313Zm0 0"/></symbol><symbol overflow="visible" id="T"><path style="stroke:none" d="M1.406-2.75h1.078V-3H1.406v-1.281h-.25c0 .625-.281 1.312-.953 1.328v.203h.64v1.875c0 .781.595.938.985.938.469 0 .781-.391.781-.938v-.39h-.234v.374c0 .485-.219.735-.5.735-.469 0-.469-.578-.469-.703Zm0 0"/></symbol><symbol overflow="visible" id="U"><path style="stroke:none" d="M5.734-2.11c0-.609-.312-.968-1.046-.968-.563 0-.938.297-1.125.656-.141-.5-.516-.656-1.016-.656-.578 0-.938.312-1.14.687v-.687L.374-3v.25c.469 0 .531.047.531.39v1.813c0 .297-.078.297-.531.297V0c.016 0 .5-.031.797-.031.25 0 .734.031.797.031v-.25c-.453 0-.516 0-.516-.297v-1.265c0-.72.578-1.063 1.031-1.063.485 0 .547.375.547.734v1.594c0 .297-.062.297-.515.297V0c.015 0 .5-.031.796-.031.25 0 .735.031.797.031v-.25c-.453 0-.515 0-.515-.297v-1.265c0-.72.578-1.063 1.031-1.063.484 0 .547.375.547.734v1.594c0 .297-.063.297-.516.297V0c.016 0 .5-.031.797-.031.25 0 .734.031.797.031v-.25c-.453 0-.516 0-.516-.297Zm0 0"/></symbol><symbol overflow="visible" id="V"><path style="stroke:none" d="M3.11-1.875c0-.36 0-.625-.329-.89C2.5-3 2.171-3.11 1.75-3.11c-.656 0-1.125.25-1.125.671 0 .235.156.344.344.344a.32.32 0 0 0 .328-.328.319.319 0 0 0-.25-.312c.25-.172.656-.172.687-.172.391 0 .829.25.829.844v.203c-.391.015-.844.046-1.36.234-.625.219-.812.61-.812.922 0 .594.718.765 1.218.765.547 0 .875-.312 1.032-.578.015.282.203.547.53.547.017 0 .688 0 .688-.656v-.39h-.234v.374c0 .079 0 .407-.266.407-.25 0-.25-.329-.25-.407Zm-.547.89c0 .672-.594.86-.907.86-.36 0-.687-.234-.687-.578 0-.39.328-.922 1.594-.969Zm0 0"/></symbol><symbol overflow="visible" id="W"><path style="stroke:none" d="m2.36-1.563-.047-.062c0-.031.453-.516.515-.578.25-.281.485-.547 1.047-.547V-3a7.76 7.76 0 0 1-.594.031c-.203 0-.484-.015-.687-.031v.25c.11.016.14.094.14.156 0 .016 0 .125-.109.235l-.484.546-.579-.656c-.078-.078-.078-.11-.078-.14 0-.094.094-.141.188-.141V-3c-.25.016-.516.031-.781.031-.204 0-.47-.015-.672-.031v.25c.312 0 .5 0 .687.203l.86 1c.015.016.062.063.062.078 0 .016-.531.594-.594.672-.265.281-.5.531-1.046.547V0C.39-.016.546-.031.765-.031c.203 0 .484.015.687.031v-.25c-.078-.016-.14-.063-.14-.156 0-.14.078-.235.187-.344l.5-.547.594.703c.14.14.14.156.14.203 0 .125-.156.141-.187.141V0c.062 0 .562-.031.781-.031.219 0 .453.015.672.031v-.25c-.469 0-.516-.047-.688-.219Zm0 0"/></symbol><symbol overflow="visible" id="H"><path style="stroke:none" d="M6.984 23.422c0-.047-.03-.063-.046-.094-.375-.375-1.032-1.031-1.704-2.11-1.609-2.577-2.328-5.812-2.328-9.655 0-2.688.36-6.141 2-9.11C5.688 1.031 6.516.22 6.953-.219c.031-.031.031-.047.031-.078 0-.11-.078-.11-.218-.11-.141 0-.157 0-.313.157-3.328 3.047-4.375 7.61-4.375 11.797 0 3.922.89 7.875 3.422 10.86.203.218.578.624.984.984.125.125.141.125.282.125.14 0 .218 0 .218-.094Zm0 0"/></symbol><symbol overflow="visible" id="L"><path style="stroke:none" d="M5.25 11.563c0-3.922-.89-7.86-3.422-10.844a11.34 11.34 0 0 0-.984-1C.719-.406.704-.406.563-.406c-.125 0-.22 0-.22.11 0 .03.048.077.063.093.344.36 1.016 1.031 1.688 2.11 1.61 2.562 2.328 5.812 2.328 9.64 0 2.687-.36 6.14-2 9.125C1.64 22.078.812 22.906.39 23.328c-.016.031-.047.063-.047.094 0 .094.094.094.219.094.14 0 .156 0 .312-.157 3.328-3.03 4.375-7.593 4.375-11.797Zm0 0"/></symbol><symbol overflow="visible" id="I"><path style="stroke:none" d="M3.281-4.5h2.125c.11 0 .282 0 .282-.156 0-.188-.157-.188-.282-.188H.813c-.11 0-.282 0-.282.172s.172.172.281.172h2.125v4.234c0 .11 0 .266.172.266s.172-.172.172-.266Zm0 0"/></symbol><symbol overflow="visible" id="P"><path style="stroke:none" d="M1.578-1.734a.39.39 0 0 0-.39-.407.4.4 0 0 0-.407.391.4.4 0 0 0 .39.406.4.4 0 0 0 .407-.39Zm0 0"/></symbol><symbol overflow="visible" id="J"><path style="stroke:none" d="M3.875 8.516 2.125 4.64c-.078-.157-.125-.157-.156-.157 0 0-.063 0-.172.079l-.938.718c-.125.11-.125.125-.125.157 0 .062.016.109.094.109.063 0 .235-.14.344-.219.047-.047.203-.156.312-.234l1.97 4.312c.062.156.108.156.202.156.156 0 .188-.046.25-.187L8.437 0C8.5-.14 8.5-.172 8.5-.203a.206.206 0 0 0-.203-.203c-.078 0-.14.062-.219.219Zm0 0"/></symbol><symbol overflow="visible" id="M"><path style="stroke:none" d="M3.984-2.797c-.03-.062-.046-.078-.046-.094 0-.015.015-.015.171-.125l.704-.5c.921-.64 1.359-.953 1.843-1 .078 0 .172 0 .172-.14 0-.063-.047-.094-.094-.094-.156 0-.328.016-.484.016-.188 0-.656-.032-.844-.032-.047 0-.14 0-.14.157 0 .015 0 .093.093.093.094.016.188.032.188.11 0 .125-.219.281-.313.343L2.328-2.015l.547-2.203c.063-.234.078-.297.61-.297.124 0 .218 0 .218-.14a.107.107 0 0 0-.11-.11c-.202 0-.718.032-.921.032h-.485a3.841 3.841 0 0 0-.437-.032c-.031 0-.14 0-.14.157 0 .093.077.093.234.093.11 0 .14 0 .265.016.141.016.157.031.157.11 0 0 0 .046-.032.14L1.297-.547c-.047.235-.063.297-.61.297-.125 0-.203 0-.203.156 0 0 0 .094.11.094.203 0 .703-.031.906-.031.11 0 .36 0 .484.015.141 0 .313.016.438.016.047 0 .156 0 .156-.156 0-.094-.094-.094-.234-.094 0 0-.14 0-.266-.016-.156-.015-.156-.03-.156-.109 0-.047.078-.313.328-1.328l1.156-.813L4.422-.562c.047.093.047.093.047.125 0 .171-.203.187-.328.187-.079 0-.172 0-.172.156 0 0 0 .094.11.094.202 0 .702-.031.89-.031.218 0 .5.031.687.031.094 0 .14-.047.14-.14 0-.11-.093-.11-.155-.11-.125 0-.344-.016-.47-.234Zm0 0"/></symbol><symbol overflow="visible" id="N"><path style="stroke:none" d="M3.234.422c0 .453.094.937.672.937.844 0 1.25-1.203 1.25-1.359 0-.047-.047-.094-.11-.094-.062 0-.077.063-.093.094a.939.939 0 0 1-.86.625c-.28 0-.421-.125-.546-.688C4.78-.5 5.78-1.734 5.78-2.969c0-1.094-.797-1.937-2.031-1.937-1.656 0-3.266 1.562-3.266 3.14C.484-.64 1.313.141 2.516.141c.125 0 .359-.016.718-.094ZM2.031-.172c-.36-.125-.875-.484-.875-1.422 0-.453.14-1.375.782-2.156.437-.547 1.109-.922 1.765-.922.75 0 1.39.5 1.39 1.516 0 .703-.327 2.203-1.609 2.828-.109-.438-.296-.719-.703-.719-.39 0-.781.328-.781.688 0 .125.016.14.031.187Zm1.203-.031c-.14.047-.406.125-.671.125-.11 0-.36 0-.36-.281 0-.266.281-.5.578-.5.25 0 .438.109.453.656Zm0 0"/></symbol><symbol overflow="visible" id="O"><path style="stroke:none" d="M4.984-3.938c.25-.374.485-.546.86-.578.078 0 .156 0 .156-.14 0-.032-.016-.11-.094-.11-.172 0-.39.032-.562.032-.219 0-.516-.032-.719-.032-.063 0-.14.032-.14.157 0 .093.093.093.124.093.22.016.282.11.282.204 0 .109-.047.171-.125.28L2.484-.655l-.64-3.563c-.016-.062-.016-.078-.016-.11 0-.187.39-.187.438-.187.125 0 .218 0 .218-.14a.117.117 0 0 0-.125-.11c-.203 0-.687.032-.89.032-.172 0-.61-.032-.782-.032-.062 0-.14.032-.14.157 0 .093.094.093.172.093.39 0 .406.047.437.235l.766 4.234c.016.14.031.188.156.188.14 0 .172-.047.25-.157Zm0 0"/></symbol><symbol overflow="visible" id="X"><path style="stroke:none" d="M1.438-.844c-.25.39-.47.563-.875.594-.079 0-.172 0-.172.14C.39-.03.453 0 .5 0c.172 0 .406-.031.594-.031.218 0 .515.031.718.031.032 0 .141 0 .141-.156 0-.094-.094-.094-.125-.094-.047-.016-.297-.016-.297-.203 0-.094.063-.203.094-.266l.563-.875h2l.156 1.157c-.016.078-.063.187-.469.187-.094 0-.188 0-.188.156 0 .032.016.094.11.094C4 0 4.5-.031 4.703-.031c.125 0 .281.015.406.015S5.375 0 5.5 0c.094 0 .14-.063.14-.14 0-.11-.077-.11-.187-.11-.406 0-.422-.063-.437-.219L4.39-4.78c-.016-.14-.032-.188-.157-.188-.14 0-.171.063-.234.157Zm.921-1 1.454-2.281.328 2.281Zm0 0"/></symbol><symbol overflow="visible" id="Y"><path style="stroke:none" d="M4.719-3.922c.14-.14.281-.265.437-.375.282-.187.532-.203.625-.219.078 0 .157 0 .157-.14 0-.047-.032-.11-.094-.11-.172 0-.375.032-.563.032-.218 0-.515-.032-.718-.032-.047 0-.141 0-.141.157 0 .093.094.093.125.093.203.016.203.094.203.141 0 .063-.047.11-.094.188-.047.062-.078.109-.125.14L2.797-2.219l-.922-2.047c-.047-.093-.047-.109-.047-.125 0-.125.328-.125.375-.125.094 0 .188 0 .188-.14 0-.016 0-.11-.125-.11-.204 0-.72.032-.922.032-.188 0-.625-.032-.797-.032-.063 0-.14.032-.14.157 0 .093.093.093.187.093.406 0 .437.063.5.22l1.078 2.39-.313 1.265c-.093.36-.093.375-.64.391-.125 0-.203 0-.203.14 0 .079.046.11.109.11.125 0 .297-.016.422-.016.14 0 .344-.015.469-.015.14 0 .296.015.437.015.156 0 .328.016.469.016.047 0 .156 0 .156-.156C3.078-.25 3-.25 2.844-.25c-.11 0-.14 0-.266-.016-.125-.015-.156-.03-.156-.093 0-.047.094-.375.14-.563.047-.234.204-.828.22-.86.015-.109.015-.124.093-.187Zm0 0"/></symbol><symbol overflow="visible" id="Q"><path style="stroke:none" d="M2.844-3.188h1.719c.078 0 .218 0 .218-.124 0-.141-.14-.141-.218-.141H.842c-.077 0-.218 0-.218.14 0 .126.14.126.219.126h1.719V-.22c0 .078 0 .219.14.219s.14-.14.14-.219Zm0 0"/></symbol></defs><g style="fill:#000;fill-opacity:1"><use xlink:href="#a" x="61.992" y="10.239"/><use xlink:href="#b" x="68.357" y="10.239"/><use xlink:href="#c" x="71.539" y="10.239"/><use xlink:href="#d" x="77.904" y="10.239"/><use xlink:href="#e" x="83.633" y="10.239"/><use xlink:href="#f" x="86.815" y="10.239"/><use xlink:href="#g" x="92.066" y="10.239"/><use xlink:href="#h" x="95.885" y="10.239"/><use xlink:href="#f" x="102.25" y="10.239"/><use xlink:href="#i" x="107.501" y="10.239"/><use xlink:href="#j" x="113.07" y="10.239"/></g><g style="fill:#000;fill-opacity:1"><use xlink:href="#i" x="123.251" y="10.239"/><use xlink:href="#k" x="128.82" y="10.239"/><use xlink:href="#k" x="133.275" y="10.239"/><use xlink:href="#f" x="137.731" y="10.239"/><use xlink:href="#c" x="142.982" y="10.239"/></g><g style="fill:#000;fill-opacity:1"><use xlink:href="#k" x="149.028" y="10.239"/><use xlink:href="#b" x="153.484" y="10.239"/></g><g style="fill:#000;fill-opacity:1"><use xlink:href="#l" x="156.676" y="10.239"/><use xlink:href="#c" x="162.404" y="10.239"/></g><use xlink:href="#m" x="17.477" y="146.678" style="fill:#000;fill-opacity:1"/><g style="fill:#000;fill-opacity:1"><use xlink:href="#n" x="24.67" y="146.678"/><use xlink:href="#n" x="28.544" y="146.678"/><use xlink:href="#o" x="32.419" y="146.678"/><use xlink:href="#p" x="36.846" y="146.678"/></g><g style="fill:#000;fill-opacity:1"><use xlink:href="#n" x="42.103" y="146.678"/><use xlink:href="#q" x="45.977" y="146.678"/><use xlink:href="#r" x="48.745" y="146.678"/><use xlink:href="#p" x="53.726" y="146.678"/><use xlink:href="#s" x="59.261" y="146.678"/></g><g style="fill:#000;fill-opacity:1"><use xlink:href="#t" x="63.139" y="146.678"/><use xlink:href="#u" x="71.015" y="146.678"/></g><use xlink:href="#v" x="75.447" y="146.678" style="fill:#000;fill-opacity:1"/><use xlink:href="#u" x="84.067" y="146.678" style="fill:#000;fill-opacity:1"/><use xlink:href="#w" x="88.489" y="146.678" style="fill:#000;fill-opacity:1"/><use xlink:href="#x" x="96.516" y="146.678" style="fill:#000;fill-opacity:1"/><use xlink:href="#y" x="103.16" y="146.678" style="fill:#000;fill-opacity:1"/><g style="fill:#000;fill-opacity:1"><use xlink:href="#z" x="113.679" y="146.678"/><use xlink:href="#r" x="117.608" y="146.678"/><use xlink:href="#A" x="122.589" y="146.678"/><use xlink:href="#n" x="125.634" y="146.678"/><use xlink:href="#B" x="129.508" y="146.678"/><use xlink:href="#C" x="137.81" y="146.678"/><use xlink:href="#D" x="142.791" y="146.678"/></g><g style="fill:#000;fill-opacity:1"><use xlink:href="#E" x="148.045" y="148.172"/><use xlink:href="#F" x="151.158" y="148.172"/></g><use xlink:href="#G" x="154.913" y="148.172" style="fill:#000;fill-opacity:1"/><use xlink:href="#H" x="162.761" y="132.63" style="fill:#000;fill-opacity:1"/><g style="fill:#000;fill-opacity:1"><use xlink:href="#t" x="171.29" y="139.938"/><use xlink:href="#v" x="179.166" y="139.938"/></g><use xlink:href="#I" x="188.34" y="136.323" style="fill:#000;fill-opacity:1"/><path style="fill:none;stroke-width:.398;stroke-linecap:butt;stroke-linejoin:miter;stroke:#000;stroke-opacity:1;stroke-miterlimit:10" d="M0 0h23.776" transform="matrix(1 0 0 -1 171.29 144.187)"/><use xlink:href="#J" x="176.434" y="146.379" style="fill:#000;fill-opacity:1"/><path style="fill:none;stroke-width:.398;stroke-linecap:butt;stroke-linejoin:miter;stroke:#000;stroke-opacity:1;stroke-miterlimit:10" d="M-.002 0h5.188" transform="matrix(1 0 0 -1 184.736 146.18)"/><use xlink:href="#K" x="184.736" y="154.869" style="fill:#000;fill-opacity:1"/><use xlink:href="#L" x="196.26" y="132.63" style="fill:#000;fill-opacity:1"/><use xlink:href="#w" x="205.254" y="146.678" style="fill:#000;fill-opacity:1"/><path style="fill-rule:nonzero;fill:#fff;fill-opacity:1;stroke-width:.79701;stroke-linecap:butt;stroke-linejoin:miter;stroke:gray;stroke-opacity:1;stroke-miterlimit:10" d="M-9.92-11.34H9.92v22.68H-9.92Zm0 0" transform="matrix(1 0 0 -1 16.166 72.945)"/><use xlink:href="#M" x="12.574" y="75.328" style="fill:#000;fill-opacity:1"/><path style="fill-rule:nonzero;fill:#fff;fill-opacity:1;stroke-width:.79701;stroke-linecap:butt;stroke-linejoin:miter;stroke:gray;stroke-opacity:1;stroke-miterlimit:10" d="M-9.92 26.308H9.92v34.016H-9.92Zm0 0" transform="matrix(1 0 0 -1 16.166 72.945)"/><use xlink:href="#N" x="13.029" y="31.333" style="fill:#000;fill-opacity:1"/><path style="fill-rule:nonzero;fill:#fff;fill-opacity:1;stroke-width:.79701;stroke-linecap:butt;stroke-linejoin:miter;stroke:gray;stroke-opacity:1;stroke-miterlimit:10" d="M-14.174-48.989h28.348v22.68h-28.348Zm0 0" transform="matrix(1 0 0 -1 16.166 72.945)"/><use xlink:href="#O" x="12.956" y="112.975" style="fill:#000;fill-opacity:1"/><path style="fill-rule:nonzero;fill:#b2d9d9;fill-opacity:1;stroke-width:.79701;stroke-linecap:butt;stroke-linejoin:miter;stroke:gray;stroke-opacity:1;stroke-miterlimit:10" d="M24.893-6.223H39.13V6.222H24.893Zm0 0" transform="matrix(1 0 0 -1 16.166 72.945)"/><use xlink:href="#P" x="44.046" y="76.178" style="fill:#000;fill-opacity:1"/><use xlink:href="#Q" x="46.412" y="73.171" style="fill:#000;fill-opacity:1"/><path style="fill-rule:nonzero;fill:#b2d9d9;fill-opacity:1;stroke-width:.79701;stroke-linecap:butt;stroke-linejoin:miter;stroke:gray;stroke-opacity:1;stroke-miterlimit:10" d="M47.014-5.668h33.39V5.668h-33.39Zm0 0" transform="matrix(1 0 0 -1 16.166 72.945)"/><g style="fill:#000;fill-opacity:1"><use xlink:href="#R" x="66.168" y="75.366"/><use xlink:href="#F" x="69.324" y="75.366"/><use xlink:href="#S" x="73.296" y="75.366"/><use xlink:href="#T" x="75.766" y="75.366"/><use xlink:href="#U" x="78.879" y="75.366"/><use xlink:href="#V" x="85.424" y="75.366"/><use xlink:href="#W" x="89.396" y="75.366"/></g><path style="fill-rule:nonzero;fill:#fff;fill-opacity:1;stroke-width:.79701;stroke-linecap:butt;stroke-linejoin:miter;stroke:gray;stroke-opacity:1;stroke-miterlimit:10" d="M95.373-17.008h22.68v34.016h-22.68Zm0 0" transform="matrix(1 0 0 -1 16.166 72.945)"/><use xlink:href="#X" x="119.882" y="75.328" style="fill:#000;fill-opacity:1"/><path style="fill-rule:nonzero;fill:#b2d9d9;fill-opacity:1;stroke-width:.79701;stroke-linecap:butt;stroke-linejoin:miter;stroke:gray;stroke-opacity:1;stroke-miterlimit:10" d="M133.022-5.668h11.34V5.668h-11.34Zm0 0" transform="matrix(1 0 0 -1 16.166 72.945)"/><use xlink:href="#P" x="153.673" y="74.567" style="fill:#000;fill-opacity:1"/><path style="fill-rule:nonzero;fill:#fff;fill-opacity:1;stroke-width:.79701;stroke-linecap:butt;stroke-linejoin:miter;stroke:gray;stroke-opacity:1;stroke-miterlimit:10" d="M159.33-17.008h28.348v34.016H159.33Zm0 0" transform="matrix(1 0 0 -1 16.166 72.945)"/><use xlink:href="#Y" x="186.469" y="75.328" style="fill:#000;fill-opacity:1"/><path style="fill:none;stroke-width:.79701;stroke-linecap:butt;stroke-linejoin:miter;stroke:gray;stroke-opacity:1;stroke-miterlimit:10" d="M11.666 0h12.828" transform="matrix(1 0 0 -1 16.166 72.945)"/><path style="fill:none;stroke-width:.79701;stroke-linecap:butt;stroke-linejoin:miter;stroke:gray;stroke-opacity:1;stroke-miterlimit:10" d="M-.001 2.125v-4.25" transform="matrix(-1 0 0 1 27.632 72.945)"/><path style="fill:none;stroke-width:.79701;stroke-linecap:butt;stroke-linejoin:miter;stroke:gray;stroke-opacity:1;stroke-miterlimit:10" d="M11.666 43.316h17.512a2.834 2.834 0 0 0 2.832-2.832V6.621" transform="matrix(1 0 0 -1 16.166 72.945)"/><path style="fill:none;stroke-width:.79701;stroke-linecap:butt;stroke-linejoin:miter;stroke:gray;stroke-opacity:1;stroke-miterlimit:10" d="M-.001 2.126v-4.254" transform="matrix(-1 0 0 1 27.632 29.628)"/><path style="fill:none;stroke-width:.79701;stroke-linecap:butt;stroke-linejoin:miter;stroke:gray;stroke-opacity:1;stroke-miterlimit:10" d="M39.53 0h7.085m34.188 0h11.633" transform="matrix(1 0 0 -1 16.166 72.945)"/><path style="fill:none;stroke-width:.79701;stroke-linecap:round;stroke-linejoin:round;stroke:gray;stroke-opacity:1;stroke-miterlimit:10" d="M-2.551 3.11C-2.086 1.245-1.047.362-.001 0c-1.046-.364-2.085-1.242-2.55-3.11" transform="matrix(1 0 0 -1 109 72.945)"/><path style="fill:none;stroke-width:.79701;stroke-linecap:butt;stroke-linejoin:miter;stroke:gray;stroke-opacity:1;stroke-miterlimit:10" d="M119.795 0h12.828" transform="matrix(1 0 0 -1 16.166 72.945)"/><path style="fill:none;stroke-width:.79701;stroke-linecap:butt;stroke-linejoin:miter;stroke:gray;stroke-opacity:1;stroke-miterlimit:10" d="M.001 2.125v-4.25" transform="matrix(-1 0 0 1 135.763 72.945)"/><path style="fill:none;stroke-width:.79701;stroke-linecap:butt;stroke-linejoin:miter;stroke:gray;stroke-opacity:1;stroke-miterlimit:10" d="M15.916-37.649h119.941a2.836 2.836 0 0 1 2.836 2.836v28.746" transform="matrix(1 0 0 -1 16.166 72.945)"/><path style="fill:none;stroke-width:.79701;stroke-linecap:butt;stroke-linejoin:miter;stroke:gray;stroke-opacity:1;stroke-miterlimit:10" d="M0 2.126v-4.25" transform="matrix(-1 0 0 1 31.884 110.593)"/><path style="fill:none;stroke-width:.79701;stroke-linecap:butt;stroke-linejoin:miter;stroke:gray;stroke-opacity:1;stroke-miterlimit:10" d="M144.76 0h11.633" transform="matrix(1 0 0 -1 16.166 72.945)"/><path style="fill:none;stroke-width:.79701;stroke-linecap:round;stroke-linejoin:round;stroke:gray;stroke-opacity:1;stroke-miterlimit:10" d="M-2.55 3.11C-2.087 1.245-1.048.362 0 0c-1.047-.364-2.086-1.242-2.55-3.11" transform="matrix(1 0 0 -1 172.957 72.945)"/><path style="fill:none;stroke-width:1.19553;stroke-linecap:butt;stroke-linejoin:miter;stroke:#fff200;stroke-opacity:1;stroke-miterlimit:10" d="M-10.318 61.718h20.636m-20.636-48.984h20.636" transform="matrix(1 0 0 -1 16.166 72.945)"/><path style="fill:none;stroke-width:1.19553;stroke-linecap:butt;stroke-linejoin:miter;stroke:#ff8000;stroke-opacity:1;stroke-miterlimit:10" d="M-14.572-24.914h29.144m144.36 43.316h29.144" transform="matrix(1 0 0 -1 16.166 72.945)"/><path style="fill:none;stroke-width:1.19553;stroke-linecap:butt;stroke-linejoin:miter;stroke:red;stroke-opacity:1;stroke-miterlimit:10" d="M-15.568-25.91v-23.477m4.254 61.125v-23.477" transform="matrix(1 0 0 -1 16.166 72.945)"/><path style="fill:none;stroke-width:1.19553;stroke-linecap:butt;stroke-linejoin:miter;stroke:#00adef;stroke-opacity:1;stroke-miterlimit:10" d="M-11.314 60.722V25.91m169.25-8.504v-34.813M93.979 17.406v-34.813" transform="matrix(1 0 0 -1 16.166 72.945)"/><path style="fill:none;stroke-width:1.19553;stroke-linecap:butt;stroke-linejoin:miter;stroke:red;stroke-opacity:1;stroke-miterlimit:10" d="M94.975 18.402h23.476" transform="matrix(1 0 0 -1 16.166 72.945)"/></svg>