<svg xmlns="http://www.w3.org/2000/svg" xmlns:xlink="http://www.w3.org/1999/xlink" width="266.986" height="152.01"><defs><path id="a" d="M3.313-.75c.046.39.312.813.78.813.22 0 .829-.141.829-.954v-.562h-.25v.562c0 .579-.25.641-.36.641-.328 0-.375-.453-.375-.5v-1.984c0-.422 0-.813-.359-1.188a1.9 1.9 0 0 0-1.36-.547C1.391-4.469.703-4 .703-3.344c0 .297.203.469.469.469a.435.435 0 0 0 .453-.453c0-.125-.047-.453-.516-.453.282-.36.766-.469 1.079-.469.5 0 1.062.39 1.062 1.281v.36c-.516.03-1.203.062-1.828.359-.75.344-1 .86-1 1.297 0 .812.969 1.062 1.594 1.062.656 0 1.109-.406 1.297-.859M3.25-2.39v1c0 .937-.719 1.28-1.172 1.28-.484 0-.89-.343-.89-.843 0-.547.421-1.375 2.062-1.438m0 0"/><path id="b" d="M1.172-2.172c0-1.625.812-2.047 1.344-2.047.093 0 .718.016 1.062.375-.406.031-.469.328-.469.453 0 .266.188.454.454.454.265 0 .468-.157.468-.47 0-.671-.765-1.062-1.531-1.062C1.25-4.469.344-3.39.344-2.156c0 1.281.984 2.265 2.14 2.265 1.329 0 1.657-1.203 1.657-1.296 0-.094-.11-.094-.141-.094-.078 0-.11.031-.125.093C3.594-.265 2.938-.14 2.578-.14c-.531 0-1.406-.421-1.406-2.03m0 0"/><path id="c" d="M3.89-.781v.89L5.329 0v-.312c-.687 0-.766-.063-.766-.563v-3.531l-1.468.11v.312c.687 0 .781.062.781.562v1.766c0 .875-.484 1.547-1.219 1.547-.828 0-.875-.47-.875-.985v-3.312l-1.468.11v.312c.78 0 .78.03.78.906v1.5c0 .781 0 1.687 1.516 1.687.563 0 1-.28 1.282-.89m0 0"/><path id="d" d="M1.672-3.312v-1.094l-1.39.11v.312c.702 0 .78.062.78.562V-.75c0 .438-.109.438-.78.438V0c.39-.016.859-.031 1.14-.031.39 0 .86 0 1.266.031v-.312h-.22c-.734 0-.75-.11-.75-.47v-1.53c0-.985.423-1.876 1.173-1.876.062 0 .093 0 .109.016-.031 0-.234.125-.234.39 0 .266.218.423.437.423a.42.42 0 0 0 .422-.438c0-.312-.312-.61-.734-.61-.735 0-1.094.673-1.22 1.095m0 0"/><path id="e" d="M4.14-3.344c.25-.64.766-.64.923-.64v-.313c-.235.016-.516.031-.75.031-.172 0-.641-.015-.86-.03v.312c.313 0 .469.172.469.422 0 .109-.016.124-.063.25L2.844-.876 1.75-3.547c-.047-.11-.062-.14-.062-.187 0-.25.359-.25.562-.25v-.313c-.266.016-.922.031-1.094.031-.265 0-.672-.015-.968-.03v.312c.484 0 .671 0 .812.343L2.5 0a7 7 0 0 0-.25.594c-.219.547-.5 1.234-1.14 1.234-.048 0-.282 0-.47-.187.313-.032.391-.25.391-.422C1.031.969.844.812.61.812c-.203 0-.421.125-.421.422 0 .454.421.813.921.813.625 0 1.032-.578 1.266-1.14Zm0 0"/><path id="f" d="M4.688-2.14c0-1.266-.985-2.329-2.188-2.329C1.25-4.469.281-3.375.281-2.14A2.22 2.22 0 0 0 2.484.11c1.204 0 2.204-.984 2.204-2.25M2.5-.14a1.28 1.28 0 0 1-1.14-.672c-.25-.438-.25-1.047-.25-1.407 0-.39 0-.922.234-1.36a1.35 1.35 0 0 1 1.14-.671c.438 0 .86.219 1.125.656.266.422.266 1 .266 1.375 0 .36 0 .906-.219 1.344-.234.453-.672.734-1.156.734m0 0"/><path id="g" d="M1.094-3.422V-.75c0 .438-.11.438-.782.438V0c.36-.016.86-.031 1.141-.031.25 0 .766.015 1.11.031v-.312c-.672 0-.782 0-.782-.438v-1.844c0-1.031.719-1.594 1.344-1.594.64 0 .75.532.75 1.11V-.75c0 .438-.11.438-.781.438V0c.344-.016.86-.031 1.125-.031.25 0 .781.015 1.11.031v-.312c-.657 0-.766 0-.766-.438v-1.844c0-1.031.703-1.594 1.343-1.594.625 0 .735.532.735 1.11V-.75c0 .438-.11.438-.782.438V0c.344-.016.86-.031 1.125-.031.266 0 .782.015 1.125.031v-.312c-.515 0-.765 0-.78-.297v-1.907c0-.859 0-1.156-.313-1.515-.141-.172-.47-.375-1.047-.375-.828 0-1.282.593-1.438.984-.14-.875-.875-.984-1.328-.984-.734 0-1.203.422-1.484 1.047v-1.047l-1.406.11v.312c.703 0 .78.062.78.562m0 0"/><path id="h" d="M1.719-3.75v-.656l-1.438.11v.312c.703 0 .782.062.782.5v4.656c0 .453-.11.453-.782.453v.313c.344-.016.86-.032 1.11-.032.28 0 .78.016 1.125.032v-.313c-.657 0-.766 0-.766-.453V-.594c.047.172.469.703 1.219.703 1.187 0 2.219-.984 2.219-2.265 0-1.266-.954-2.25-2.079-2.25-.78 0-1.203.437-1.39.656m.031 2.61v-2.22c.281-.515.766-.796 1.281-.796.735 0 1.328.875 1.328 2C4.36-.953 3.672-.11 2.938-.11c-.407 0-.782-.203-1.047-.61-.141-.203-.141-.219-.141-.422m0 0"/><path id="i" d="M1.719-3.984h1.437v-.313H1.72v-1.828h-.25c0 .813-.297 1.875-1.281 1.922v.219h.843v2.75c0 1.218.938 1.343 1.297 1.343.703 0 .985-.703.985-1.343v-.563h-.25v.547c0 .734-.297 1.11-.672 1.11-.672 0-.672-.907-.672-1.079Zm0 0"/><path id="j" d="m1.766-4.406-1.391.11v.312c.64 0 .734.062.734.547V-.75c0 .438-.109.438-.78.438V0c.312-.016.859-.031 1.093-.031.36 0 .703.015 1.047.031v-.312c-.672 0-.703-.047-.703-.438Zm.03-1.735a.514.514 0 0 0-.515-.53.537.537 0 0 0-.531.53c0 .266.219.532.531.532a.514.514 0 0 0 .516-.532m0 0"/><path id="k" d="M1.094-3.422V-.75c0 .438-.11.438-.782.438V0c.36-.016.86-.031 1.141-.031.25 0 .766.015 1.11.031v-.312c-.672 0-.782 0-.782-.438v-1.844c0-1.031.719-1.594 1.344-1.594.64 0 .75.532.75 1.11V-.75c0 .438-.11.438-.781.438V0c.344-.016.86-.031 1.125-.031.25 0 .781.015 1.11.031v-.312c-.516 0-.766 0-.766-.297v-1.907c0-.859 0-1.156-.313-1.515-.14-.172-.469-.375-1.047-.375-.734 0-1.203.422-1.484 1.047v-1.047l-1.406.11v.312c.703 0 .78.062.78.562m0 0"/><path id="l" d="m1.766-6.922-1.438.11v.312c.703 0 .781.063.781.563V-.75c0 .438-.109.438-.78.438V0c.327-.016.859-.031 1.109-.031s.734.015 1.109.031v-.312c-.672 0-.781 0-.781-.438Zm0 0"/><path id="m" d="M1.11-2.516C1.171-4 2.015-4.25 2.36-4.25c1.015 0 1.124 1.344 1.124 1.734Zm0 .22h2.78c.22 0 .25 0 .25-.22 0-.984-.546-1.953-1.78-1.953-1.158 0-2.08 1.032-2.08 2.282C.281-.86 1.328.108 2.47.108 3.688.11 4.14-1 4.14-1.187c0-.094-.079-.125-.141-.125-.078 0-.11.062-.125.14C3.531-.14 2.625-.14 2.531-.14c-.5 0-.89-.296-1.125-.671-.297-.47-.297-1.125-.297-1.485m0 0"/><path id="n" d="M2.86-2.344c.296-.375.671-.86.921-1.125.313-.36.719-.515 1.188-.515v-.313a14 14 0 0 1-.828.031c-.297 0-.828-.015-.953-.03v.312c.218.015.296.14.296.312 0 .156-.109.281-.156.344l-.61.781-.78-1.015c-.094-.094-.094-.11-.094-.172 0-.157.156-.25.343-.25v-.313c-.25.016-.906.031-1.078.031-.203 0-.671-.015-.937-.03v.312c.703 0 .703 0 1.172.609l.984 1.281-.937 1.188a1.57 1.57 0 0 1-1.266.594V0c.25-.016.563-.031.828-.031.281 0 .703.015.938.031v-.312c-.22-.032-.282-.157-.282-.313 0-.219.282-.547.891-1.266l.766 1c.078.11.203.266.203.329 0 .093-.094.25-.36.25V0c.297-.016.86-.031 1.079-.031.265 0 .656.015.953.031v-.312c-.532 0-.72-.016-.938-.313Zm0 0"/><path id="x" d="M2.078-1.937c.219.046 1.031.203 1.031.921 0 .5-.343.907-1.125.907-.843 0-1.203-.563-1.39-1.422-.031-.125-.031-.157-.14-.157-.126 0-.126.063-.126.235v1.328c0 .172 0 .234.11.234C.484.11.5.094.688-.094.703-.109.703-.125.89-.312c.437.406.89.421 1.093.421 1.141 0 1.61-.671 1.61-1.39 0-.516-.297-.828-.422-.938-.328-.328-.719-.406-1.14-.484-.563-.11-1.22-.235-1.22-.813 0-.359.25-.765 1.11-.765 1.094 0 1.156.906 1.172 1.203 0 .094.094.094.11.094.14 0 .14-.047.14-.235v-1.015c0-.157 0-.235-.11-.235-.046 0-.078 0-.203.125a2 2 0 0 1-.172.157c-.375-.282-.78-.282-.937-.282-1.219 0-1.594.672-1.594 1.235 0 .343.156.625.422.843.328.25.61.313 1.328.454m0 0"/><path id="y" d="M2.75-1.86v-.577H.11v.578Zm0 0"/><path id="z" d="M6.11-6.031c0-.36.015-.469.78-.469h.25v-.312c-.359.03-1.093.03-1.468.03s-1.125 0-1.469-.03v.312h.234c.766 0 .782.11.782.469v2.328H2.25v-2.328c0-.36.016-.469.781-.469h.235v-.312c-.344.03-1.078.03-1.47.03-.374 0-1.124 0-1.468-.03v.312h.235c.765 0 .796.11.796.469v5.25c0 .36-.03.469-.796.469H.328V0c.344-.031 1.094-.031 1.469-.031s1.125 0 1.469.031v-.312H3.03c-.765 0-.781-.11-.781-.47V-3.39h2.969v2.61c0 .36-.016.469-.782.469h-.234V0c.344-.031 1.078-.031 1.453-.031.39 0 1.125 0 1.485.031v-.312h-.25c-.766 0-.782-.11-.782-.47Zm0 0"/><path id="A" d="M5.797-6.781H.328v.312h.235c.765 0 .796.11.796.469v5.219c0 .36-.03.469-.796.469H.328V0c.344-.031 1.125-.031 1.516-.031.406 0 1.312 0 1.672.031v-.312h-.328c-.938 0-.938-.125-.938-.47v-2.452h.844c.969 0 1.062.312 1.062 1.156h.25v-2.64h-.25c0 .843-.093 1.171-1.062 1.171H2.25v-2.531c0-.328.016-.39.484-.39h1.188c1.5 0 1.75.562 1.906 1.937h.25Zm0 0"/><path id="B" d="M1.063-.75c0 .438-.11.438-.782.438V0a27 27 0 0 1 1.078-.031c.313 0 .704.015 1.11.031v-.312c-.672 0-.781 0-.781-.438v-1.031l.64-.547c.766 1.047 1.188 1.61 1.188 1.797s-.172.219-.36.219V0c.266-.016.86-.031 1.078-.031.282 0 .579.015.86.031v-.312c-.375 0-.594 0-.969-.532L2.859-2.625c-.015-.016-.062-.078-.062-.11 0-.03.719-.64.812-.718.625-.5 1.047-.531 1.25-.531v-.313c-.28.031-.406.031-.687.031-.36 0-.984-.015-1.125-.03v.312c.187 0 .297.109.297.25 0 .203-.14.312-.219.39L1.719-2.14v-4.78L.28-6.813v.312c.703 0 .782.063.782.563Zm0 0"/><path id="C" d="M2.406-6.594c-.094-.218-.125-.218-.36-.218H.376v.312H.61c.766 0 .782.11.782.469v4.984c0 .266 0 .734-1.016.734V0c.344-.016.828-.031 1.156-.031S2.36-.016 2.703 0v-.312c-1.031 0-1.031-.47-1.031-.735v-5.375h.016L4.094-.219c.047.125.093.219.187.219.11 0 .14-.078.188-.187L6.922-6.5v5.719c0 .36-.016.469-.781.469h-.235V0c.36-.031 1.047-.031 1.438-.031.375 0 1.047 0 1.422.031v-.312h-.25c-.766 0-.782-.11-.782-.47v-5.25c0-.359.016-.468.782-.468h.25v-.312H7.078c-.266 0-.266.015-.328.187L4.563-1Zm0 0"/><path id="D" d="M2.266-3.156h1.687c1.188 0 2.266-.797 2.266-1.797 0-.984-.985-1.86-2.344-1.86H.344v.313h.25c.765 0 .781.11.781.469v5.25c0 .36-.016.469-.781.469h-.25V0c.36-.031 1.094-.031 1.469-.031s1.125 0 1.484.031v-.312h-.25c-.766 0-.781-.11-.781-.47Zm-.032-.25v-2.688c0-.343.016-.406.485-.406h.89c1.579 0 1.579 1.063 1.579 1.547 0 .469 0 1.547-1.579 1.547Zm0 0"/><path id="E" d="m1.266-.766 1.062-1.03c1.547-1.376 2.14-1.907 2.14-2.907 0-1.14-.89-1.938-2.109-1.938A1.843 1.843 0 0 0 .5-4.828c0 .547.5.547.531.547.172 0 .516-.11.516-.532a.513.513 0 0 0-.531-.515c-.079 0-.094 0-.125.016.218-.657.765-1.016 1.343-1.016.907 0 1.329.812 1.329 1.625 0 .797-.485 1.578-1.047 2.203L.609-.375C.5-.265.5-.235.5 0h3.703l.266-1.734h-.235C4.172-1.437 4.11-1 4-.844c-.062.078-.719.078-.937.078Zm0 0"/><path id="F" d="M3.781-.547V.11L5.25 0v-.312c-.687 0-.781-.063-.781-.563v-6.047l-1.422.11v.312c.687 0 .765.063.765.563v2.156a1.58 1.58 0 0 0-1.25-.625c-1.171 0-2.218.984-2.218 2.265 0 1.266.969 2.25 2.11 2.25.64 0 1.077-.343 1.327-.656m0-2.672v2.047c0 .172 0 .188-.11.36-.296.484-.733.703-1.171.703-.453 0-.812-.266-1.047-.641-.25-.406-.281-.969-.281-1.39 0-.36.016-.954.297-1.407.218-.312.593-.64 1.14-.64.344 0 .766.156 1.063.593.11.172.11.188.11.375m0 0"/><path id="G" d="M.563-3.406C.563-1.344 2.172.219 4.03.219c1.625 0 2.594-1.39 2.594-2.547 0-.094 0-.172-.125-.172-.11 0-.11.063-.125.172C6.297-.906 5.235-.094 4.141-.094c-.61 0-2.563-.328-2.563-3.312 0-2.969 1.953-3.313 2.563-3.313 1.078 0 1.968.907 2.172 2.36.015.14.015.172.156.172.156 0 .156-.032.156-.235v-2.36c0-.171 0-.25-.11-.25-.03 0-.077 0-.156.126l-.5.734c-.359-.36-.875-.86-1.828-.86-1.875 0-3.468 1.595-3.468 3.626m0 0"/><path id="H" d="M3.297-3.984c.453 0 .515.125.515.53V-.75c0 .438-.109.438-.765.438V0c.328-.016.844-.031 1.094-.031S4.89-.016 5.25 0v-.312c-.672 0-.781 0-.781-.438v-3.672l-1.25.094c-.156.016-.172.016-.172.016-.031.015-.047.015-.188.015H1.688v-1.125c0-.984.859-1.39 1.468-1.39.297 0 .656.109.86.328-.407.03-.47.297-.47.468 0 .329.267.454.454.454.234 0 .453-.157.453-.454 0-.593-.547-1.015-1.281-1.015-.922 0-2.11.515-2.11 1.593v1.141H.266v.313h.797V-.75c0 .438-.11.438-.782.438V0c.328-.016.86-.031 1.11-.031S2.125-.016 2.5 0v-.312c-.672 0-.781 0-.781-.438v-3.234Zm0 0"/><path id="I" d="M2.219-1.719c-.875 0-.875-1-.875-1.218 0-.266.015-.594.156-.844.078-.11.313-.39.719-.39.86 0 .86.984.86 1.218 0 .265 0 .594-.157.844-.078.109-.313.39-.703.39m-1.156.39a.8.8 0 0 1 .156-.468c.39.281.812.313 1 .313.922 0 1.61-.688 1.61-1.453 0-.376-.157-.735-.407-.97.36-.343.719-.39.89-.39a.3.3 0 0 1 .11.016c-.11.031-.172.14-.172.265 0 .172.14.282.297.282a.28.28 0 0 0 .281-.297c0-.172-.11-.485-.5-.485-.203 0-.64.063-1.062.47a1.65 1.65 0 0 0-1.047-.36c-.938 0-1.625.687-1.625 1.453 0 .437.219.812.469 1.031-.125.14-.313.469-.313.828 0 .313.14.688.453.89-.61.157-.922.595-.922.985 0 .719.985 1.266 2.203 1.266 1.172 0 2.204-.5 2.204-1.281 0-.344-.125-.86-.641-1.141-.531-.266-1.11-.266-1.719-.266-.25 0-.672 0-.75-.015-.312-.047-.516-.344-.516-.672M2.5 1.829C1.484 1.828.797 1.312.797.781c0-.453.375-.828.812-.843h.594c.86 0 1.969 0 1.969.843 0 .547-.703 1.047-1.672 1.047m0 0"/><path id="J" d="M2.25-6.031c0-.36.016-.469.813-.469h.25v-.312c-.344.03-1.126.03-1.516.03-.375 0-1.172 0-1.516-.03v.312h.25c.797 0 .828.11.828.469v5.25c0 .36-.03.469-.828.469h-.25V0c.344-.031 1.14-.031 1.516-.031.39 0 1.172 0 1.516.031v-.312h-.25c-.797 0-.813-.11-.813-.47Zm0 0"/><path id="K" d="M.344-6.812v.312h.25c.765 0 .781.11.781.469v5.25c0 .36-.016.469-.781.469h-.25V0H4c1.672 0 3.047-1.469 3.047-3.344C7.047-5.25 5.703-6.812 4-6.812Zm2.375 6.5c-.469 0-.485-.063-.485-.391v-5.39c0-.344.016-.407.485-.407h1c.625 0 1.312.219 1.812.922.438.594.516 1.453.516 2.234 0 1.094-.188 1.703-.547 2.188a2.2 2.2 0 0 1-1.766.843Zm0 0"/><path id="L" d="M6.64-6.75H.548L.359-4.5h.25C.75-6.11.891-6.437 2.406-6.437c.172 0 .438 0 .531.015.22.047.22.156.22.375V-.78c0 .328 0 .469-1.048.469h-.406V0c.406-.031 1.422-.031 1.89-.031.454 0 1.485 0 1.891.031v-.312h-.406c-1.047 0-1.047-.141-1.047-.47v-5.265c0-.187 0-.328.188-.375.11-.016.375-.016.562-.016 1.516 0 1.657.329 1.797 1.938h.25Zm0 0"/><path id="o" d="M7.531-5.766c.11-.39.282-.703 1.078-.734.047 0 .172-.016.172-.203 0 0 0-.11-.125-.11-.328 0-.687.032-1.015.032s-.688-.032-1.016-.032c-.062 0-.172 0-.172.204 0 .109.094.109.172.109.578.016.688.219.688.438 0 .03-.032.187-.032.203L6.156-1.422 3.953-6.625c-.078-.172-.078-.187-.312-.187H2.297c-.188 0-.281 0-.281.203 0 .109.093.109.28.109.048 0 .673 0 .673.094L1.64-1.062c-.11.406-.282.718-1.078.75C.5-.312.39-.297.39-.11c0 .063.047.11.126.11.328 0 .672-.031 1-.031.343 0 .703.031 1.03.031.048 0 .173 0 .173-.203 0-.094-.094-.11-.203-.11-.578-.015-.657-.234-.657-.437 0-.062.016-.125.047-.234l1.313-5.25c.047.046.047.078.094.172L5.797-.187c.062.171.094.187.187.187.11 0 .11-.031.157-.203Zm0 0"/><path id="p" d="M2.328-4.437c0-.188 0-.188-.203-.188-.453.438-1.078.438-1.36.438v.25c.157 0 .626 0 1-.188v3.547c0 .234 0 .328-.687.328H.812V0c.125 0 .985-.031 1.235-.031.219 0 1.094.031 1.25.031v-.25H3.03c-.703 0-.703-.094-.703-.328Zm0 0"/><path id="q" d="M3.516-1.266H3.28c-.015.157-.094.563-.187.625-.047.047-.578.047-.688.047h-1.28c.734-.64.984-.843 1.39-1.172.516-.406 1-.843 1-1.5 0-.843-.734-1.359-1.624-1.359-.86 0-1.453.61-1.453 1.25 0 .344.296.39.375.39a.365.365 0 0 0 .359-.374c0-.125-.047-.375-.406-.375.218-.485.687-.641 1.015-.641.703 0 1.063.547 1.063 1.11 0 .609-.438 1.078-.656 1.328L.516-.266C.437-.203.437-.187.437 0h2.876Zm0 0"/><path id="r" d="M1.906-2.328c.547 0 .938.375.938 1.125 0 .86-.516 1.125-.906 1.125-.282 0-.907-.078-1.188-.5.328 0 .406-.235.406-.39 0-.22-.172-.376-.39-.376a.38.38 0 0 0-.391.407C.375-.281 1.094.14 1.938.14c.968 0 1.64-.657 1.64-1.344 0-.547-.437-1.094-1.203-1.25.719-.266.984-.781.984-1.219 0-.547-.625-.953-1.406-.953-.766 0-1.36.375-1.36.938 0 .234.157.359.36.359.219 0 .36-.156.36-.344 0-.203-.141-.36-.36-.375.25-.297.719-.375.985-.375.312 0 .75.156.75.75 0 .297-.094.625-.282.828-.219.266-.422.281-.765.313-.172.015-.188.015-.22.015-.015 0-.077.016-.077.094 0 .094.062.094.187.094Zm0 0"/><path id="s" d="M3.688-1.14v-.25h-.782V-4.5c0-.14 0-.203-.14-.203-.094 0-.125 0-.188.11L.266-1.392v.25h2.062v.563c0 .25 0 .328-.578.328h-.187V0c.359-.016.796-.031 1.046-.031.266 0 .704.015 1.063.031v-.25h-.188c-.578 0-.578-.078-.578-.328v-.563ZM2.375-3.939v2.547H.531Zm0 0"/><path id="t" d="M1.078-3.89c.36.093.563.093.672.093.922 0 1.469-.625 1.469-.734 0-.078-.047-.094-.078-.094-.016 0-.032 0-.063.016-.172.062-.531.203-1.047.203-.203 0-.562-.016-1.015-.188-.079-.031-.094-.031-.094-.031-.094 0-.094.078-.094.188v2.046c0 .125 0 .204.11.204.062 0 .078 0 .14-.094.297-.375.734-.438.969-.438a.72.72 0 0 1 .64.39c.126.235.172.5.172.907 0 .203 0 .61-.218.922a.98.98 0 0 1-.813.422c-.453 0-.922-.25-1.094-.719.266.016.407-.156.407-.344 0-.296-.266-.343-.36-.343 0 0-.343 0-.343.375 0 .625.578 1.25 1.406 1.25.89 0 1.672-.657 1.672-1.547 0-.782-.594-1.5-1.453-1.5-.313 0-.672.062-.985.328Zm0 0"/><path id="u" d="M1.047-2.281c0-.563.047-1.078.312-1.516.235-.375.61-.625 1.063-.625.203 0 .484.047.625.234-.172.016-.328.141-.328.344a.32.32 0 0 0 .328.328c.219 0 .344-.14.344-.343 0-.407-.297-.766-.985-.766-1 0-2.031.922-2.031 2.422C.375-.406 1.219.14 2 .14c.844 0 1.578-.657 1.578-1.563 0-.89-.703-1.547-1.515-1.547-.563 0-.86.375-1.016.688M2-.078c-.36 0-.625-.203-.781-.516-.094-.203-.157-.562-.157-.968 0-.688.407-1.204.97-1.204a.79.79 0 0 1 .702.375c.172.266.172.563.172.97 0 .39 0 .687-.187.968A.82.82 0 0 1 2-.078m0 0"/><path id="v" d="M3.734-4.203c.063-.094.063-.11.063-.281H1.969c-.282 0-.36-.016-.61-.032C1-4.546.984-4.594.97-4.703H.734L.484-3.22H.72c.015-.11.094-.562.203-.64.047-.032.625-.032.719-.032h1.515c-.219.282-.578.72-.719.922-.906 1.188-1 2.297-1 2.703 0 .079 0 .407.329.407.343 0 .343-.313.343-.407v-.28c0-1.345.282-1.97.579-2.345Zm0 0"/><path id="w" d="M2.469-2.516c.547-.265.89-.593.89-1.078 0-.672-.703-1.031-1.375-1.031-.765 0-1.39.5-1.39 1.156 0 .328.156.563.281.703.125.157.172.188.578.422-.39.172-1.078.547-1.078 1.281 0 .766.797 1.204 1.594 1.204.89 0 1.61-.563 1.61-1.313 0-.469-.267-.86-.673-1.094-.094-.062-.328-.187-.437-.25m-1.125-.656c-.188-.11-.375-.297-.375-.562 0-.438.5-.688 1-.688.547 0 1.031.344 1.031.828 0 .625-.734.938-.734.938-.016 0-.032 0-.079-.031Zm.328.969.969.547c.172.11.515.312.515.718 0 .532-.578.86-1.172.86-.64 0-1.187-.422-1.187-.984 0-.516.375-.922.875-1.141m0 0"/></defs><path fill="none" stroke="#000" stroke-miterlimit="10" stroke-width="1.196" d="M11.938 148V1.555"/><path fill="none" stroke="#000" stroke-linecap="round" stroke-linejoin="round" stroke-miterlimit="10" stroke-width=".956" d="M9.387 3.465c.957-.16 2.39-1.91 2.55-2.39.157.48 1.594 2.23 2.551 2.39"/><use xlink:href="#a" x="15.855" y="8.806"/><use xlink:href="#b" x="20.836" y="8.806"/><use xlink:href="#b" x="25.264" y="8.806"/><use xlink:href="#c" x="29.691" y="8.806"/><use xlink:href="#d" x="35.226" y="8.806"/><use xlink:href="#a" x="39.129" y="8.806"/><use xlink:href="#b" x="44.11" y="8.806"/><use xlink:href="#e" x="48.537" y="8.806"/><path fill="none" stroke="#000" stroke-miterlimit="10" stroke-width="1.196" d="M.598 136.66h214.48"/><path fill="none" stroke="#000" stroke-linecap="round" stroke-linejoin="round" stroke-miterlimit="10" stroke-width=".956" d="M213.164 134.113c.16.953 1.914 2.39 2.39 2.547-.476.16-2.23 1.598-2.39 2.55"/><use xlink:href="#b" x="184.76" y="118.851"/><use xlink:href="#f" x="189.187" y="118.851"/><use xlink:href="#g" x="194.169" y="118.851"/><use xlink:href="#h" x="202.471" y="118.851"/><use xlink:href="#c" x="208.006" y="118.851"/><use xlink:href="#i" x="213.541" y="118.851"/><use xlink:href="#a" x="217.415" y="118.851"/><use xlink:href="#i" x="222.397" y="118.851"/><use xlink:href="#j" x="226.271" y="118.851"/><use xlink:href="#f" x="229.039" y="118.851"/><use xlink:href="#k" x="234.02" y="118.851"/><use xlink:href="#a" x="239.555" y="118.851"/><use xlink:href="#l" x="244.537" y="118.851"/><use xlink:href="#b" x="192.37" y="130.806"/><use xlink:href="#f" x="196.797" y="130.806"/><use xlink:href="#g" x="201.779" y="130.806"/><use xlink:href="#h" x="210.081" y="130.806"/><use xlink:href="#l" x="215.616" y="130.806"/><use xlink:href="#m" x="218.383" y="130.806"/><use xlink:href="#n" x="222.811" y="130.806"/><use xlink:href="#j" x="228.069" y="130.806"/><use xlink:href="#i" x="230.837" y="130.806"/><use xlink:href="#e" x="234.432" y="130.806"/><use xlink:href="#o" x="27.833" y="148.689"/><use xlink:href="#p" x="36.924" y="145.074"/><use xlink:href="#o" x="50.511" y="148.689"/><use xlink:href="#q" x="59.602" y="145.074"/><use xlink:href="#o" x="73.188" y="148.689"/><use xlink:href="#r" x="82.279" y="145.074"/><use xlink:href="#o" x="95.865" y="148.689"/><use xlink:href="#s" x="104.956" y="145.074"/><use xlink:href="#o" x="118.542" y="148.689"/><use xlink:href="#t" x="127.633" y="145.074"/><use xlink:href="#o" x="141.22" y="148.689"/><use xlink:href="#u" x="150.311" y="145.074"/><use xlink:href="#o" x="163.897" y="148.689"/><use xlink:href="#v" x="172.988" y="145.074"/><use xlink:href="#o" x="186.574" y="148.689"/><use xlink:href="#w" x="195.665" y="145.074"/><path fill="none" stroke="#7F7F7F" stroke-dasharray="2.98883 2.98883" stroke-miterlimit="10" stroke-width="1.196" d="M16.082 133.898 215.238 1.128"/><path fill="none" stroke="#7F7F7F" stroke-linecap="round" stroke-linejoin="round" stroke-miterlimit="10" stroke-width=".956" d="M212.23.066c.665.707 2.918.93 3.407.797-.309.395-.973 2.563-.574 3.446"/><path fill="#009" d="M59.559 106.426a2.268 2.268 0 1 0-4.536 0 2.268 2.268 0 1 0 4.535 0m0 0"/><use xlink:href="#x" x="62.205" y="118.259"/><use xlink:href="#m" x="66.134" y="118.259"/><use xlink:href="#g" x="70.562" y="118.259"/><use xlink:href="#j" x="78.863" y="118.259"/><use xlink:href="#y" x="81.631" y="118.259"/><use xlink:href="#m" x="84.952" y="118.259"/><use xlink:href="#g" x="89.379" y="118.259"/><use xlink:href="#h" x="97.681" y="118.259"/><use xlink:href="#j" x="103.216" y="118.259"/><use xlink:href="#d" x="105.984" y="118.259"/><use xlink:href="#j" x="109.886" y="118.259"/><use xlink:href="#b" x="112.654" y="118.259"/><use xlink:href="#a" x="117.081" y="118.259"/><use xlink:href="#l" x="122.062" y="118.259"/><path fill="#009" d="M104.914 76.191a2.268 2.268 0 1 0-4.534-.003 2.268 2.268 0 0 0 4.534.003m0 0"/><use xlink:href="#z" x="107.56" y="88.023"/><use xlink:href="#a" x="115.032" y="88.023"/><use xlink:href="#d" x="120.013" y="88.023"/><use xlink:href="#i" x="123.916" y="88.023"/><use xlink:href="#d" x="127.79" y="88.023"/><use xlink:href="#m" x="131.692" y="88.023"/><use xlink:href="#m" x="136.12" y="88.023"/><use xlink:href="#y" x="140.547" y="88.023"/><use xlink:href="#A" x="143.868" y="88.023"/><use xlink:href="#f" x="149.544" y="88.023"/><use xlink:href="#b" x="154.795" y="88.023"/><use xlink:href="#B" x="158.953" y="88.023"/><path fill="#009" d="M127.59 61.07a2.267 2.267 0 1 0-4.535.004 2.267 2.267 0 0 0 4.535-.004m0 0"/><use xlink:href="#C" x="130.237" y="72.905"/><use xlink:href="#f" x="139.37" y="72.905"/><use xlink:href="#l" x="144.351" y="72.905"/><use xlink:href="#l" x="147.119" y="72.905"/><use xlink:href="#m" x="149.886" y="72.905"/><use xlink:href="#d" x="154.314" y="72.905"/><use xlink:href="#y" x="158.216" y="72.905"/><use xlink:href="#D" x="161.536" y="72.905"/><use xlink:href="#l" x="168.317" y="72.905"/><use xlink:href="#m" x="171.085" y="72.905"/><use xlink:href="#x" x="175.512" y="72.905"/><use xlink:href="#x" x="179.441" y="72.905"/><use xlink:href="#m" x="183.371" y="72.905"/><use xlink:href="#i" x="187.798" y="72.905"/><use xlink:href="#E" x="194.99" y="72.905"/><use xlink:href="#k" x="199.971" y="72.905"/><use xlink:href="#F" x="205.506" y="72.905"/><use xlink:href="#f" x="214.369" y="72.905"/><use xlink:href="#d" x="219.35" y="72.905"/><use xlink:href="#F" x="223.253" y="72.905"/><use xlink:href="#m" x="228.788" y="72.905"/><use xlink:href="#d" x="233.215" y="72.905"/><path fill="#009" d="M150.27 45.953a2.268 2.268 0 1 0-4.535 0 2.268 2.268 0 1 0 4.535 0m0 0"/><use xlink:href="#G" x="152.914" y="57.787"/><use xlink:href="#f" x="160.109" y="57.787"/><use xlink:href="#k" x="165.09" y="57.787"/><use xlink:href="#H" x="170.626" y="57.787"/><use xlink:href="#I" x="176.161" y="57.787"/><use xlink:href="#c" x="181.142" y="57.787"/><use xlink:href="#d" x="186.677" y="57.787"/><use xlink:href="#a" x="190.58" y="57.787"/><use xlink:href="#i" x="195.561" y="57.787"/><use xlink:href="#j" x="199.435" y="57.787"/><use xlink:href="#f" x="202.203" y="57.787"/><use xlink:href="#k" x="207.184" y="57.787"/><use xlink:href="#J" x="216.037" y="57.787"/><use xlink:href="#k" x="219.635" y="57.787"/><use xlink:href="#i" x="224.891" y="57.787"/><use xlink:href="#m" x="228.765" y="57.787"/><use xlink:href="#d" x="233.193" y="57.787"/><use xlink:href="#a" x="237.095" y="57.787"/><use xlink:href="#b" x="242.076" y="57.787"/><use xlink:href="#i" x="246.504" y="57.787"/><use xlink:href="#j" x="250.378" y="57.787"/><use xlink:href="#f" x="253.146" y="57.787"/><use xlink:href="#k" x="258.127" y="57.787"/><path fill="#009" d="M172.945 30.836a2.268 2.268 0 1 0-4.536-.003 2.268 2.268 0 0 0 4.536.003m0 0"/><use xlink:href="#G" x="175.592" y="42.669"/><use xlink:href="#f" x="182.787" y="42.669"/><use xlink:href="#c" x="187.768" y="42.669"/><use xlink:href="#h" x="193.304" y="42.669"/><use xlink:href="#l" x="198.839" y="42.669"/><use xlink:href="#m" x="201.606" y="42.669"/><use xlink:href="#F" x="206.034" y="42.669"/><use xlink:href="#G" x="214.886" y="42.669"/><use xlink:href="#l" x="222.081" y="42.669"/><use xlink:href="#c" x="224.849" y="42.669"/><use xlink:href="#x" x="230.384" y="42.669"/><use xlink:href="#i" x="234.314" y="42.669"/><use xlink:href="#m" x="238.188" y="42.669"/><use xlink:href="#d" x="242.615" y="42.669"/><path fill="#C00" d="M82.691 61.07a2.722 2.722 0 1 0-5.444 0 2.722 2.722 0 0 0 5.444 0m0 0"/><use xlink:href="#K" x="50.451" y="64.475"/><use xlink:href="#A" x="58.061" y="64.475"/><use xlink:href="#L" x="64.565" y="64.475"/></svg>