<svg xmlns="http://www.w3.org/2000/svg" xmlns:xlink="http://www.w3.org/1999/xlink" width="536.469" height="308.68" viewBox="0 0 402.352 231.51"><defs><symbol overflow="visible" id="b"><path style="stroke:none" d="M3.313-.75c.046.39.312.813.78.813.22 0 .829-.141.829-.954v-.562h-.25v.562c0 .579-.25.641-.36.641-.328 0-.375-.453-.375-.5v-1.984c0-.422 0-.813-.359-1.188a1.9 1.9 0 0 0-1.36-.547C1.391-4.469.703-4 .703-3.344c0 .297.203.469.469.469a.435.435 0 0 0 .453-.453c0-.125-.047-.453-.516-.453.282-.36.766-.469 1.079-.469.5 0 1.062.39 1.062 1.281v.36c-.516.03-1.203.062-1.828.359-.75.344-1 .86-1 1.297 0 .812.969 1.062 1.594 1.062A1.38 1.38 0 0 0 3.312-.75ZM3.25-2.39v1c0 .937-.719 1.28-1.172 1.28-.484 0-.89-.343-.89-.843 0-.547.421-1.375 2.062-1.438Zm0 0"/></symbol><symbol overflow="visible" id="c"><path style="stroke:none" d="M1.172-2.172c0-1.625.812-2.047 1.344-2.047.093 0 .718.016 1.062.375-.406.031-.469.328-.469.453 0 .266.188.454.454.454.265 0 .468-.157.468-.47 0-.671-.765-1.062-1.531-1.062C1.25-4.469.344-3.39.344-2.156c0 1.281.984 2.265 2.14 2.265 1.329 0 1.657-1.203 1.657-1.296 0-.094-.11-.094-.141-.094-.078 0-.11.031-.125.093C3.594-.265 2.937-.14 2.578-.14c-.531 0-1.406-.421-1.406-2.03Zm0 0"/></symbol><symbol overflow="visible" id="d"><path style="stroke:none" d="M3.89-.781v.89L5.329 0v-.313c-.687 0-.766-.062-.766-.562v-3.531l-1.468.11v.312c.687 0 .781.062.781.562v1.766c0 .875-.484 1.547-1.219 1.547-.828 0-.875-.47-.875-.985v-3.312l-1.468.11v.312c.78 0 .78.03.78.906v1.5c0 .781 0 1.687 1.516 1.687.563 0 1-.28 1.282-.89Zm0 0"/></symbol><symbol overflow="visible" id="e"><path style="stroke:none" d="M1.672-3.313v-1.093l-1.39.11v.312c.702 0 .78.062.78.562V-.75c0 .438-.109.438-.78.438V0c.39-.016.859-.031 1.14-.031.39 0 .86 0 1.266.031v-.313h-.22c-.734 0-.75-.109-.75-.468v-1.531c0-.985.423-1.876 1.173-1.876.062 0 .093 0 .109.016-.031 0-.234.125-.234.39 0 .266.218.423.437.423a.421.421 0 0 0 .422-.438c0-.312-.313-.61-.734-.61-.735 0-1.094.673-1.22 1.095Zm0 0"/></symbol><symbol overflow="visible" id="f"><path style="stroke:none" d="M4.14-3.344c.25-.64.766-.64.923-.64v-.313c-.235.016-.516.031-.75.031-.172 0-.641-.015-.86-.03v.312c.313 0 .469.171.469.421 0 .11-.016.126-.063.25L2.844-.874 1.75-3.547c-.047-.11-.063-.14-.063-.187 0-.25.36-.25.563-.25v-.313c-.266.016-.922.031-1.094.031-.265 0-.672-.015-.968-.03v.312c.484 0 .671 0 .812.343L2.5 0a6.764 6.764 0 0 0-.25.594c-.219.547-.5 1.234-1.14 1.234-.048 0-.282 0-.47-.187.313-.032.391-.25.391-.422C1.031.969.844.812.61.812c-.203 0-.421.125-.421.422 0 .454.421.813.921.813.625 0 1.032-.578 1.266-1.14Zm0 0"/></symbol><symbol overflow="visible" id="g"><path style="stroke:none" d="M4.688-2.14c0-1.266-.985-2.329-2.188-2.329C1.25-4.469.281-3.375.281-2.14A2.22 2.22 0 0 0 2.484.11c1.204 0 2.204-.984 2.204-2.25ZM2.5-.14c-.438 0-.875-.204-1.14-.672-.25-.438-.25-1.047-.25-1.407 0-.39 0-.922.234-1.36a1.347 1.347 0 0 1 1.14-.671c.438 0 .86.219 1.125.656.266.422.266 1 .266 1.375 0 .36 0 .906-.219 1.344-.234.453-.672.734-1.156.734Zm0 0"/></symbol><symbol overflow="visible" id="h"><path style="stroke:none" d="M1.094-3.422V-.75c0 .438-.11.438-.782.438V0c.36-.016.86-.031 1.141-.031.25 0 .766.015 1.11.031v-.313c-.672 0-.782 0-.782-.437v-1.844c0-1.031.719-1.594 1.344-1.594.64 0 .75.532.75 1.11V-.75c0 .438-.11.438-.781.438V0c.344-.016.86-.031 1.125-.031.25 0 .781.015 1.11.031v-.313c-.657 0-.766 0-.766-.437v-1.844c0-1.031.703-1.594 1.343-1.594.625 0 .735.532.735 1.11V-.75c0 .438-.11.438-.782.438V0c.344-.016.86-.031 1.125-.031.266 0 .782.015 1.125.031v-.313c-.515 0-.765 0-.78-.296v-1.907c0-.859 0-1.156-.313-1.515-.141-.172-.47-.375-1.047-.375-.828 0-1.282.593-1.438.984-.14-.875-.875-.984-1.328-.984-.734 0-1.203.422-1.484 1.047v-1.047l-1.407.11v.312c.704 0 .782.062.782.562Zm0 0"/></symbol><symbol overflow="visible" id="i"><path style="stroke:none" d="M1.719-3.75v-.656l-1.438.11v.312c.703 0 .781.062.781.5v4.656c0 .453-.109.453-.78.453v.313c.343-.016.859-.032 1.109-.032.28 0 .78.016 1.125.032v-.313c-.657 0-.766 0-.766-.453V-.594c.047.172.469.703 1.219.703 1.187 0 2.219-.984 2.219-2.265 0-1.266-.954-2.25-2.079-2.25-.78 0-1.203.437-1.39.656Zm.031 2.61v-2.22c.281-.515.766-.796 1.281-.796.735 0 1.328.875 1.328 2C4.36-.953 3.672-.11 2.938-.11c-.407 0-.782-.204-1.047-.61-.141-.203-.141-.219-.141-.422Zm0 0"/></symbol><symbol overflow="visible" id="j"><path style="stroke:none" d="M1.719-3.984h1.437v-.313H1.72v-1.828h-.25c0 .813-.297 1.875-1.282 1.922v.219h.844v2.75c0 1.218.938 1.343 1.297 1.343.703 0 .985-.703.985-1.343v-.563h-.25v.547c0 .734-.297 1.11-.672 1.11-.672 0-.672-.907-.672-1.079Zm0 0"/></symbol><symbol overflow="visible" id="k"><path style="stroke:none" d="m1.766-4.406-1.391.11v.312c.64 0 .734.062.734.546V-.75c0 .438-.109.438-.78.438V0c.312-.016.859-.031 1.093-.031.36 0 .703.015 1.047.031v-.313c-.672 0-.703-.046-.703-.437Zm.03-1.735a.514.514 0 0 0-.515-.53.537.537 0 0 0-.531.53c0 .266.219.532.531.532a.514.514 0 0 0 .516-.532Zm0 0"/></symbol><symbol overflow="visible" id="l"><path style="stroke:none" d="M1.094-3.422V-.75c0 .438-.11.438-.782.438V0c.36-.016.86-.031 1.141-.031.25 0 .766.015 1.11.031v-.313c-.672 0-.782 0-.782-.437v-1.844c0-1.031.719-1.594 1.344-1.594.64 0 .75.532.75 1.11V-.75c0 .438-.11.438-.781.438V0c.344-.016.86-.031 1.125-.031.25 0 .781.015 1.11.031v-.313c-.516 0-.766 0-.766-.296v-1.907c0-.859 0-1.156-.313-1.515-.14-.172-.469-.375-1.047-.375-.734 0-1.203.422-1.484 1.047v-1.047l-1.407.11v.312c.704 0 .782.062.782.562Zm0 0"/></symbol><symbol overflow="visible" id="m"><path style="stroke:none" d="m1.766-6.922-1.438.11v.312c.703 0 .781.063.781.563V-.75c0 .438-.109.438-.78.438V0c.327-.016.859-.031 1.109-.031s.734.015 1.109.031v-.313c-.672 0-.781 0-.781-.437Zm0 0"/></symbol><symbol overflow="visible" id="n"><path style="stroke:none" d="M1.11-2.516C1.171-4 2.015-4.25 2.36-4.25c1.015 0 1.124 1.344 1.124 1.734Zm0 .22h2.78c.22 0 .25 0 .25-.22 0-.984-.546-1.953-1.78-1.953-1.158 0-2.08 1.032-2.08 2.282C.281-.86 1.328.108 2.47.108 3.688.11 4.14-1 4.14-1.187c0-.094-.079-.125-.141-.125-.078 0-.11.062-.125.14C3.531-.14 2.625-.14 2.531-.14c-.5 0-.89-.296-1.125-.671-.297-.47-.297-1.125-.297-1.485Zm0 0"/></symbol><symbol overflow="visible" id="o"><path style="stroke:none" d="M2.86-2.344c.296-.375.671-.86.921-1.125.313-.36.719-.515 1.188-.515v-.313a14.35 14.35 0 0 1-.828.031c-.297 0-.829-.015-.954-.03v.312c.22.015.297.14.297.312 0 .156-.109.281-.156.344l-.61.781-.78-1.015c-.094-.094-.094-.11-.094-.172 0-.157.156-.25.343-.25v-.313c-.25.016-.906.031-1.078.031-.203 0-.671-.015-.937-.03v.312c.703 0 .703 0 1.172.609l.984 1.281-.937 1.188a1.566 1.566 0 0 1-1.266.594V0c.25-.016.563-.031.828-.031.281 0 .703.015.938.031v-.313c-.22-.03-.282-.156-.282-.312 0-.219.282-.547.891-1.266l.766 1c.078.11.203.266.203.329 0 .093-.094.25-.36.25V0c.297-.016.86-.031 1.079-.031.265 0 .656.015.953.031v-.313c-.532 0-.72-.015-.938-.312Zm0 0"/></symbol><symbol overflow="visible" id="y"><path style="stroke:none" d="M2.078-1.938c.219.047 1.031.204 1.031.922 0 .5-.343.907-1.125.907-.843 0-1.203-.563-1.39-1.422-.031-.125-.031-.157-.14-.157-.126 0-.126.063-.126.235v1.328c0 .172 0 .234.11.234C.483.11.5.094.688-.094.703-.109.703-.125.89-.312c.437.406.89.421 1.093.421 1.141 0 1.61-.671 1.61-1.39 0-.516-.297-.828-.422-.938-.328-.328-.719-.406-1.14-.484-.563-.11-1.22-.235-1.22-.813 0-.359.25-.765 1.11-.765 1.094 0 1.156.906 1.172 1.203 0 .094.094.094.11.094.14 0 .14-.047.14-.235v-1.015c0-.157 0-.235-.11-.235-.046 0-.078 0-.203.125a1.676 1.676 0 0 1-.172.157c-.375-.282-.78-.282-.937-.282-1.219 0-1.594.672-1.594 1.235 0 .343.156.625.422.843.328.25.61.313 1.328.454Zm0 0"/></symbol><symbol overflow="visible" id="z"><path style="stroke:none" d="M2.75-1.86v-.577H.11v.578Zm0 0"/></symbol><symbol overflow="visible" id="A"><path style="stroke:none" d="M6.11-6.031c0-.36.015-.469.78-.469h.25v-.313c-.359.032-1.093.032-1.468.032s-1.125 0-1.469-.032v.313h.234c.766 0 .782.11.782.469v2.328H2.25v-2.328c0-.36.016-.469.781-.469h.235v-.313c-.344.032-1.079.032-1.47.032-.374 0-1.124 0-1.468-.032v.313h.234c.766 0 .797.11.797.469v5.25c0 .36-.03.469-.796.469H.328V0c.344-.031 1.094-.031 1.469-.031s1.125 0 1.469.031v-.313H3.03c-.765 0-.781-.109-.781-.468v-2.61h2.969v2.61c0 .36-.016.469-.782.469h-.234V0c.344-.031 1.078-.031 1.453-.031.39 0 1.125 0 1.485.031v-.313h-.25c-.766 0-.782-.109-.782-.468Zm0 0"/></symbol><symbol overflow="visible" id="B"><path style="stroke:none" d="M5.797-6.781H.328v.312h.234c.766 0 .797.11.797.469v5.219c0 .36-.03.469-.796.469H.328V0c.344-.031 1.125-.031 1.516-.031.406 0 1.312 0 1.672.031v-.313h-.329c-.937 0-.937-.124-.937-.468v-2.453h.844c.969 0 1.062.312 1.062 1.156h.25v-2.64h-.25c0 .843-.093 1.171-1.062 1.171H2.25v-2.531c0-.328.016-.39.484-.39h1.188c1.5 0 1.75.562 1.906 1.937h.25Zm0 0"/></symbol><symbol overflow="visible" id="C"><path style="stroke:none" d="M1.063-.75c0 .438-.11.438-.782.438V0a26.45 26.45 0 0 1 1.078-.031c.313 0 .704.015 1.11.031v-.313c-.672 0-.781 0-.781-.437v-1.031l.64-.547c.766 1.047 1.188 1.61 1.188 1.797 0 .187-.172.219-.36.219V0c.266-.016.86-.031 1.078-.031.282 0 .579.015.86.031v-.313c-.375 0-.594 0-.969-.53L2.859-2.626c-.015-.016-.062-.078-.062-.11 0-.03.719-.64.812-.718.625-.5 1.047-.531 1.25-.531v-.313c-.28.031-.406.031-.687.031-.36 0-.984-.015-1.125-.03v.312c.187 0 .297.109.297.25 0 .203-.14.312-.219.39L1.719-2.14v-4.78L.28-6.813v.312c.703 0 .781.063.781.563Zm0 0"/></symbol><symbol overflow="visible" id="D"><path style="stroke:none" d="M2.406-6.594c-.094-.218-.125-.218-.36-.218H.376v.312H.61c.766 0 .782.11.782.469v4.984c0 .266 0 .734-1.016.734V0c.344-.016.828-.031 1.156-.031.328 0 .828.015 1.172.031v-.313c-1.031 0-1.031-.468-1.031-.734v-5.375h.016L4.094-.219c.047.125.093.219.187.219.11 0 .14-.078.188-.188L6.922-6.5v5.719c0 .36-.016.469-.781.469h-.235V0c.36-.031 1.047-.031 1.438-.031.375 0 1.047 0 1.422.031v-.313h-.25c-.766 0-.782-.109-.782-.468v-5.25c0-.36.016-.469.782-.469h.25v-.313H7.078c-.266 0-.266.016-.328.188L4.562-1Zm0 0"/></symbol><symbol overflow="visible" id="E"><path style="stroke:none" d="M2.266-3.156h1.687c1.188 0 2.266-.797 2.266-1.797 0-.984-.985-1.86-2.344-1.86H.344v.313h.25c.765 0 .781.11.781.469v5.25c0 .36-.016.469-.781.469h-.25V0c.36-.031 1.094-.031 1.469-.031s1.125 0 1.484.031v-.313h-.25c-.766 0-.781-.109-.781-.468Zm-.032-.25v-2.688c0-.343.016-.406.485-.406h.89c1.579 0 1.579 1.063 1.579 1.547 0 .469 0 1.547-1.579 1.547Zm0 0"/></symbol><symbol overflow="visible" id="F"><path style="stroke:none" d="m1.266-.766 1.062-1.03c1.547-1.376 2.14-1.907 2.14-2.907 0-1.14-.89-1.938-2.109-1.938A1.843 1.843 0 0 0 .5-4.828c0 .547.5.547.531.547.172 0 .516-.11.516-.532a.513.513 0 0 0-.531-.515c-.079 0-.094 0-.125.016.218-.657.765-1.016 1.343-1.016.907 0 1.329.812 1.329 1.625 0 .797-.485 1.578-1.047 2.203L.609-.375C.5-.265.5-.235.5 0h3.703l.266-1.734h-.235C4.172-1.438 4.11-1 4-.844c-.063.078-.719.078-.938.078Zm0 0"/></symbol><symbol overflow="visible" id="G"><path style="stroke:none" d="M3.781-.547V.11L5.25 0v-.313c-.688 0-.781-.062-.781-.562v-6.047l-1.422.11v.312c.687 0 .765.063.765.563v2.156a1.582 1.582 0 0 0-1.25-.625c-1.171 0-2.218.984-2.218 2.265 0 1.266.969 2.25 2.11 2.25.64 0 1.077-.343 1.327-.656Zm0-2.672v2.047c0 .172 0 .188-.11.36-.296.484-.733.703-1.171.703-.453 0-.813-.266-1.047-.641-.25-.406-.281-.969-.281-1.39 0-.36.016-.954.297-1.407.218-.312.593-.64 1.14-.64.344 0 .766.156 1.063.593.11.172.11.188.11.375Zm0 0"/></symbol><symbol overflow="visible" id="H"><path style="stroke:none" d="M3.297 2.39c0-.03 0-.046-.172-.218C1.891.922 1.562-.968 1.562-2.5c0-1.734.375-3.469 1.61-4.703.125-.125.125-.14.125-.172 0-.078-.031-.11-.094-.11-.11 0-1 .688-1.594 1.954C1.11-4.438.984-3.328.984-2.5c0 .781.11 1.984.657 3.125C2.25 1.844 3.094 2.5 3.203 2.5c.063 0 .094-.031.094-.11Zm0 0"/></symbol><symbol overflow="visible" id="I"><path style="stroke:none" d="M2.875-2.5c0-.766-.11-1.969-.656-3.11C1.625-6.827.766-7.483.672-7.483a.107.107 0 0 0-.11.109c0 .031 0 .047.188.234.984.985 1.547 2.563 1.547 4.641C2.297-.78 1.937.97.703 2.22c-.14.125-.14.14-.14.172 0 .062.046.109.109.109.094 0 1-.688 1.578-1.953.516-1.094.625-2.203.625-3.047Zm0 0"/></symbol><symbol overflow="visible" id="J"><path style="stroke:none" d="M.563-3.406C.563-1.344 2.171.219 4.03.219c1.625 0 2.594-1.39 2.594-2.547 0-.094 0-.172-.125-.172-.11 0-.11.063-.125.172C6.297-.906 5.235-.094 4.141-.094c-.61 0-2.563-.328-2.563-3.312 0-2.969 1.953-3.313 2.563-3.313 1.078 0 1.968.907 2.171 2.36.016.14.016.171.157.171.156 0 .156-.03.156-.234v-2.36c0-.171 0-.25-.11-.25-.03 0-.077 0-.156.126l-.5.734c-.359-.36-.875-.86-1.828-.86-1.875 0-3.468 1.595-3.468 3.626Zm0 0"/></symbol><symbol overflow="visible" id="K"><path style="stroke:none" d="M3.297-3.984c.453 0 .515.125.515.53V-.75c0 .438-.109.438-.765.438V0c.328-.016.844-.031 1.094-.031.25 0 .75.015 1.109.031v-.313c-.672 0-.781 0-.781-.437v-3.672l-1.25.094c-.156.016-.172.016-.172.016-.031.015-.047.015-.188.015H1.688v-1.125c0-.984.859-1.39 1.468-1.39.297 0 .656.109.86.328-.407.03-.47.296-.47.468 0 .329.267.454.454.454.234 0 .453-.157.453-.454 0-.593-.547-1.015-1.281-1.015-.922 0-2.11.515-2.11 1.593v1.141H.266v.313h.796V-.75c0 .438-.109.438-.78.438V0c.327-.016.859-.031 1.109-.031S2.125-.016 2.5 0v-.313c-.672 0-.781 0-.781-.437v-3.234Zm0 0"/></symbol><symbol overflow="visible" id="L"><path style="stroke:none" d="M2.219-1.719c-.875 0-.875-1-.875-1.218 0-.266.015-.594.156-.844.078-.11.313-.39.719-.39.86 0 .86.984.86 1.218 0 .265 0 .594-.157.844-.078.109-.313.39-.703.39Zm-1.156.39a.8.8 0 0 1 .156-.468c.39.281.812.313 1 .313.922 0 1.61-.688 1.61-1.454 0-.374-.157-.734-.407-.968.36-.344.719-.39.89-.39.032 0 .079 0 .11.015-.11.031-.172.14-.172.265 0 .172.14.282.297.282a.28.28 0 0 0 .281-.297c0-.172-.11-.485-.5-.485-.203 0-.64.063-1.062.47a1.652 1.652 0 0 0-1.047-.36c-.938 0-1.625.687-1.625 1.453 0 .437.219.812.469 1.031-.125.14-.313.469-.313.828 0 .313.14.688.453.89-.61.157-.922.595-.922.985 0 .719.985 1.266 2.203 1.266 1.172 0 2.204-.5 2.204-1.281 0-.344-.125-.86-.641-1.141-.531-.266-1.11-.266-1.719-.266-.25 0-.672 0-.75-.015-.312-.047-.516-.344-.516-.672ZM2.5 1.829C1.484 1.828.797 1.312.797.781c0-.453.375-.828.812-.844h.594c.86 0 1.969 0 1.969.844 0 .547-.703 1.047-1.672 1.047Zm0 0"/></symbol><symbol overflow="visible" id="M"><path style="stroke:none" d="M2.25-6.031c0-.36.016-.469.813-.469h.25v-.313c-.344.032-1.126.032-1.516.032-.375 0-1.172 0-1.516-.032v.313h.25c.797 0 .828.11.828.469v5.25c0 .36-.03.469-.828.469h-.25V0c.344-.031 1.14-.031 1.516-.031.39 0 1.172 0 1.516.031v-.313h-.25c-.797 0-.813-.109-.813-.468Zm0 0"/></symbol><symbol overflow="visible" id="N"><path style="stroke:none" d="m3.484-3.875-1.28-.297c-.626-.156-1-.687-1-1.266 0-.703.53-1.312 1.312-1.312 1.656 0 1.875 1.64 1.937 2.078.016.063.016.125.125.125.125 0 .125-.047.125-.234v-2c0-.172 0-.25-.11-.25-.062 0-.077.015-.14.14l-.36.563c-.296-.297-.702-.703-1.593-.703-1.11 0-1.938.875-1.938 1.937 0 .828.532 1.563 1.297 1.828.11.032.625.157 1.329.329.265.062.562.14.843.5.203.265.313.593.313.921 0 .704-.5 1.422-1.344 1.422-.281 0-1.047-.047-1.578-.531-.578-.547-.61-1.172-.61-1.531-.015-.11-.093-.11-.125-.11-.125 0-.125.079-.125.25v2c0 .172 0 .235.11.235.062 0 .078-.016.14-.125 0-.016.032-.047.36-.578.312.343.953.703 1.844.703 1.156 0 1.953-.969 1.953-2.078 0-.985-.657-1.813-1.485-2.016Zm0 0"/></symbol><symbol overflow="visible" id="O"><path style="stroke:none" d="M.344-6.813v.313h.25c.765 0 .781.11.781.469v5.25c0 .36-.016.469-.781.469h-.25V0H4c1.672 0 3.047-1.469 3.047-3.344C7.047-5.25 5.703-6.813 4-6.813Zm2.375 6.5c-.469 0-.485-.062-.485-.39v-5.39c0-.345.016-.407.485-.407h1c.625 0 1.312.219 1.812.922.438.594.516 1.453.516 2.234 0 1.094-.188 1.703-.547 2.188a2.192 2.192 0 0 1-1.766.843Zm0 0"/></symbol><symbol overflow="visible" id="P"><path style="stroke:none" d="M6.64-6.75H.548L.359-4.5h.25C.75-6.11.891-6.438 2.406-6.438c.172 0 .438 0 .531.016.22.047.22.156.22.375V-.78c0 .328 0 .469-1.048.469h-.406V0c.406-.031 1.422-.031 1.89-.031.454 0 1.485 0 1.891.031v-.313h-.406c-1.047 0-1.047-.14-1.047-.468v-5.266c0-.187 0-.328.188-.375.11-.016.375-.016.562-.016 1.516 0 1.657.329 1.797 1.938h.25Zm0 0"/></symbol><symbol overflow="visible" id="Q"><path style="stroke:none" d="M3.203-.156c-.531-.203-1.64-.938-1.64-3.219 0-2.594 1.39-3.406 2.312-3.406.953 0 2.313.86 2.313 3.406 0 .766-.11 2.172-1.172 2.953-.22-.562-.547-1.047-1.125-1.047-.516 0-.813.422-.813.828 0 .266.125.47.125.485Zm1.547-.11a1.634 1.634 0 0 1-.875.235c-.5 0-.578-.453-.578-.61 0-.28.203-.609.594-.609.53 0 .75.406.859.984Zm.406.204c1.188-.532 2.032-1.813 2.032-3.313 0-2.031-1.5-3.656-3.313-3.656-1.797 0-3.313 1.593-3.313 3.656 0 2.016 1.5 3.594 3.313 3.594.313 0 .656-.063.953-.157.14.954.281 1.875 1.219 1.875C7.063 1.938 7.25.61 7.25.095c0-.094 0-.203-.11-.203-.093 0-.109.078-.109.171-.062.547-.484.844-.906.844-.469 0-.719-.344-.969-.969Zm0 0"/></symbol><symbol overflow="visible" id="p"><path style="stroke:none" d="M7.531-5.766c.11-.39.282-.703 1.078-.734.047 0 .172-.016.172-.203 0 0 0-.11-.125-.11-.328 0-.687.032-1.015.032-.329 0-.688-.032-1.016-.032-.063 0-.172 0-.172.204 0 .109.094.109.172.109.578.016.688.219.688.438 0 .03-.032.187-.032.203L6.156-1.422 3.953-6.625c-.078-.172-.078-.188-.312-.188H2.297c-.188 0-.281 0-.281.204 0 .109.093.109.28.109.048 0 .673 0 .673.094L1.64-1.063c-.11.407-.282.72-1.079.75-.062 0-.171.016-.171.204C.39-.047.437 0 .516 0c.328 0 .671-.031 1-.031.343 0 .703.031 1.03.031.048 0 .173 0 .173-.203 0-.094-.094-.11-.203-.11-.579-.015-.657-.234-.657-.437 0-.063.016-.125.047-.234l1.313-5.25c.047.046.047.078.094.171L5.796-.188c.062.172.094.188.187.188.11 0 .11-.031.157-.203Zm0 0"/></symbol><symbol overflow="visible" id="q"><path style="stroke:none" d="M2.328-4.438c0-.187 0-.187-.203-.187-.453.438-1.078.438-1.36.438v.25c.157 0 .626 0 1-.188v3.547c0 .234 0 .328-.687.328H.812V0c.125 0 .985-.031 1.235-.031.219 0 1.094.031 1.25.031v-.25H3.03c-.703 0-.703-.094-.703-.328Zm0 0"/></symbol><symbol overflow="visible" id="r"><path style="stroke:none" d="M3.516-1.266H3.28c-.015.157-.094.563-.187.625-.047.047-.578.047-.688.047h-1.28c.734-.64.984-.844 1.39-1.172.516-.406 1-.843 1-1.5 0-.843-.734-1.359-1.624-1.359-.86 0-1.454.61-1.454 1.25 0 .344.297.39.376.39a.365.365 0 0 0 .359-.374c0-.125-.047-.375-.406-.375.218-.485.687-.641 1.015-.641.703 0 1.063.547 1.063 1.11 0 .609-.438 1.078-.656 1.328L.516-.266C.437-.203.437-.187.437 0h2.876Zm0 0"/></symbol><symbol overflow="visible" id="s"><path style="stroke:none" d="M1.906-2.328c.547 0 .938.375.938 1.125 0 .86-.516 1.125-.906 1.125-.282 0-.907-.078-1.188-.5.328 0 .406-.235.406-.39 0-.22-.172-.376-.39-.376a.38.38 0 0 0-.391.407C.375-.281 1.094.14 1.938.14c.968 0 1.64-.657 1.64-1.344 0-.547-.437-1.094-1.203-1.25.719-.266.984-.781.984-1.219 0-.547-.625-.953-1.406-.953-.766 0-1.36.375-1.36.938 0 .234.157.359.36.359.219 0 .36-.156.36-.344 0-.203-.141-.36-.36-.375.25-.297.719-.375.985-.375.312 0 .75.156.75.75 0 .297-.094.625-.282.828-.219.266-.422.281-.765.313-.172.015-.188.015-.22.015-.015 0-.077.016-.077.094 0 .094.062.094.187.094Zm0 0"/></symbol><symbol overflow="visible" id="t"><path style="stroke:none" d="M3.688-1.14v-.25h-.782V-4.5c0-.14 0-.203-.14-.203-.094 0-.125 0-.188.11L.266-1.392v.25h2.062v.563c0 .25 0 .328-.578.328h-.188V0c.36-.016.797-.031 1.047-.031.266 0 .704.015 1.063.031v-.25h-.188c-.578 0-.578-.078-.578-.328v-.563ZM2.375-3.939v2.547H.531Zm0 0"/></symbol><symbol overflow="visible" id="u"><path style="stroke:none" d="M1.078-3.89c.36.093.563.093.672.093.922 0 1.469-.625 1.469-.734 0-.078-.047-.094-.078-.094-.016 0-.032 0-.063.016-.172.062-.531.203-1.047.203-.203 0-.562-.016-1.015-.188-.079-.031-.094-.031-.094-.031-.094 0-.094.078-.094.188v2.046c0 .125 0 .204.11.204.062 0 .078 0 .14-.094.297-.375.734-.438.969-.438a.72.72 0 0 1 .64.39c.126.235.172.5.172.907 0 .203 0 .61-.218.922a.984.984 0 0 1-.813.422c-.453 0-.922-.25-1.094-.719.266.016.407-.156.407-.344 0-.296-.266-.343-.36-.343 0 0-.344 0-.344.375 0 .625.579 1.25 1.407 1.25.89 0 1.672-.657 1.672-1.547 0-.782-.594-1.5-1.454-1.5-.312 0-.671.062-.984.328Zm0 0"/></symbol><symbol overflow="visible" id="v"><path style="stroke:none" d="M1.047-2.281c0-.563.047-1.078.312-1.516.235-.375.61-.625 1.063-.625.203 0 .484.047.625.234-.172.016-.328.141-.328.344a.32.32 0 0 0 .328.328c.219 0 .344-.14.344-.343 0-.407-.297-.766-.985-.766-1 0-2.031.922-2.031 2.422C.375-.406 1.219.14 2 .14c.844 0 1.578-.657 1.578-1.563 0-.89-.703-1.547-1.515-1.547-.563 0-.86.375-1.016.688ZM2-.078c-.36 0-.625-.203-.781-.516-.094-.203-.157-.562-.157-.969 0-.687.407-1.203.97-1.203a.79.79 0 0 1 .702.375c.172.266.172.563.172.97 0 .39 0 .687-.187.968A.815.815 0 0 1 2-.078Zm0 0"/></symbol><symbol overflow="visible" id="w"><path style="stroke:none" d="M3.734-4.203c.063-.094.063-.11.063-.281H1.969c-.282 0-.36-.016-.61-.032C1-4.546.984-4.594.97-4.703H.734L.484-3.22H.72c.015-.11.094-.562.203-.64.047-.032.625-.032.719-.032h1.515c-.219.282-.578.72-.719.922-.906 1.188-1 2.297-1 2.703 0 .079 0 .407.329.407.343 0 .343-.313.343-.407v-.28c0-1.345.282-1.97.579-2.345Zm0 0"/></symbol><symbol overflow="visible" id="x"><path style="stroke:none" d="M2.469-2.516c.547-.265.89-.593.89-1.078 0-.672-.703-1.031-1.375-1.031-.765 0-1.39.5-1.39 1.156 0 .328.156.563.281.703.125.157.172.188.578.422-.39.172-1.078.547-1.078 1.281 0 .766.797 1.204 1.594 1.204.89 0 1.61-.563 1.61-1.313 0-.469-.267-.86-.673-1.094-.094-.062-.328-.187-.437-.25Zm-1.125-.656c-.188-.11-.375-.297-.375-.562 0-.438.5-.688 1-.688.547 0 1.031.344 1.031.828 0 .625-.734.938-.734.938-.016 0-.032 0-.079-.031Zm.328.969.969.547c.171.11.515.312.515.718 0 .532-.578.86-1.172.86-.64 0-1.187-.422-1.187-.985 0-.515.375-.921.875-1.14Zm0 0"/></symbol><clipPath id="a"><path d="M17 0h2v231.512h-2Zm0 0"/></clipPath></defs><g clip-path="url(#a)"><path style="fill:none;stroke-width:1.19553;stroke-linecap:butt;stroke-linejoin:miter;stroke:#000;stroke-opacity:1;stroke-miterlimit:10" d="M-.002-17.718v229.363" transform="matrix(1 0 0 -1 18.314 213.196)"/></g><path style="fill:none;stroke-width:.9564;stroke-linecap:round;stroke-linejoin:round;stroke:#000;stroke-opacity:1;stroke-miterlimit:10" d="M-1.914 2.552C-1.754 1.595 0 .158.476.002 0-.158-1.753-1.593-1.913-2.55" transform="matrix(0 -1 -1 0 18.314 1.551)"/><g style="fill:#000;fill-opacity:1"><use xlink:href="#b" x="22.233" y="8.805"/><use xlink:href="#c" x="27.214" y="8.805"/><use xlink:href="#c" x="31.642" y="8.805"/><use xlink:href="#d" x="36.069" y="8.805"/><use xlink:href="#e" x="41.604" y="8.805"/><use xlink:href="#b" x="45.507" y="8.805"/><use xlink:href="#c" x="50.488" y="8.805"/><use xlink:href="#f" x="54.915" y="8.805"/></g><path style="fill:none;stroke-width:1.19553;stroke-linecap:butt;stroke-linejoin:miter;stroke:#000;stroke-opacity:1;stroke-miterlimit:10" d="M-17.716 0h335.66" transform="matrix(1 0 0 -1 18.314 213.196)"/><path style="fill:none;stroke-width:.9564;stroke-linecap:round;stroke-linejoin:round;stroke:#000;stroke-opacity:1;stroke-miterlimit:10" d="M-1.911 2.551c.156-.957 1.91-2.39 2.39-2.55C0-.16-1.755-1.593-1.91-2.55" transform="matrix(1 0 0 -1 336.259 213.196)"/><g style="fill:#000;fill-opacity:1"><use xlink:href="#c" x="305.94" y="195.385"/><use xlink:href="#g" x="310.367" y="195.385"/><use xlink:href="#h" x="315.349" y="195.385"/><use xlink:href="#i" x="323.651" y="195.385"/><use xlink:href="#d" x="329.186" y="195.385"/><use xlink:href="#j" x="334.721" y="195.385"/><use xlink:href="#b" x="338.595" y="195.385"/><use xlink:href="#j" x="343.577" y="195.385"/><use xlink:href="#k" x="347.451" y="195.385"/><use xlink:href="#g" x="350.219" y="195.385"/><use xlink:href="#l" x="355.2" y="195.385"/><use xlink:href="#b" x="360.735" y="195.385"/><use xlink:href="#m" x="365.717" y="195.385"/></g><g style="fill:#000;fill-opacity:1"><use xlink:href="#c" x="313.55" y="207.34"/><use xlink:href="#g" x="317.977" y="207.34"/><use xlink:href="#h" x="322.959" y="207.34"/><use xlink:href="#i" x="331.261" y="207.34"/><use xlink:href="#m" x="336.796" y="207.34"/><use xlink:href="#n" x="339.563" y="207.34"/><use xlink:href="#o" x="343.991" y="207.34"/><use xlink:href="#k" x="349.249" y="207.34"/><use xlink:href="#j" x="352.017" y="207.34"/></g><use xlink:href="#f" x="355.612" y="207.34" style="fill:#000;fill-opacity:1"/><use xlink:href="#p" x="46.967" y="225.224" style="fill:#000;fill-opacity:1"/><use xlink:href="#q" x="56.058" y="221.608" style="fill:#000;fill-opacity:1"/><use xlink:href="#p" x="82.4" y="225.224" style="fill:#000;fill-opacity:1"/><use xlink:href="#r" x="91.491" y="221.608" style="fill:#000;fill-opacity:1"/><use xlink:href="#p" x="117.833" y="225.224" style="fill:#000;fill-opacity:1"/><use xlink:href="#s" x="126.924" y="221.608" style="fill:#000;fill-opacity:1"/><use xlink:href="#p" x="153.266" y="225.224" style="fill:#000;fill-opacity:1"/><use xlink:href="#t" x="162.357" y="221.608" style="fill:#000;fill-opacity:1"/><use xlink:href="#p" x="188.699" y="225.224" style="fill:#000;fill-opacity:1"/><use xlink:href="#u" x="197.79" y="221.608" style="fill:#000;fill-opacity:1"/><use xlink:href="#p" x="224.132" y="225.224" style="fill:#000;fill-opacity:1"/><use xlink:href="#v" x="233.223" y="221.608" style="fill:#000;fill-opacity:1"/><use xlink:href="#p" x="259.565" y="225.224" style="fill:#000;fill-opacity:1"/><use xlink:href="#w" x="268.656" y="221.608" style="fill:#000;fill-opacity:1"/><use xlink:href="#p" x="294.998" y="225.224" style="fill:#000;fill-opacity:1"/><use xlink:href="#x" x="304.089" y="221.608" style="fill:#000;fill-opacity:1"/><path style="fill:none;stroke-width:1.19553;stroke-linecap:butt;stroke-linejoin:miter;stroke:gray;stroke-opacity:1;stroke-dasharray:2.98883,2.98883;stroke-miterlimit:10" d="m4.143 2.762 313.965 209.309" transform="matrix(1 0 0 -1 18.314 213.196)"/><path style="fill:none;stroke-width:.9564;stroke-linecap:round;stroke-linejoin:round;stroke:gray;stroke-opacity:1;stroke-miterlimit:10" d="M-1.912 2.552C-1.752 1.595 0 .159.478.002-.002-.16-1.757-1.596-1.915-2.55" transform="scale(.99996 -.99996) rotate(33.69 170.075 555.029)"/><path style="stroke:none;fill-rule:nonzero;fill:#009;fill-opacity:1" d="M92.723 165.953a3.543 3.543 0 1 0-7.086 0 3.543 3.543 0 0 0 7.086 0Zm0 0"/><g style="fill:#000;fill-opacity:1"><use xlink:href="#y" x="97.388" y="168.443"/><use xlink:href="#n" x="101.317" y="168.443"/><use xlink:href="#h" x="105.745" y="168.443"/><use xlink:href="#k" x="114.046" y="168.443"/><use xlink:href="#z" x="116.814" y="168.443"/><use xlink:href="#n" x="120.135" y="168.443"/><use xlink:href="#h" x="124.562" y="168.443"/><use xlink:href="#i" x="132.864" y="168.443"/><use xlink:href="#k" x="138.399" y="168.443"/><use xlink:href="#e" x="141.167" y="168.443"/><use xlink:href="#k" x="145.069" y="168.443"/><use xlink:href="#c" x="147.837" y="168.443"/><use xlink:href="#b" x="152.264" y="168.443"/><use xlink:href="#m" x="157.245" y="168.443"/></g><path style="stroke:none;fill-rule:nonzero;fill:#009;fill-opacity:1" d="M163.59 118.707a3.543 3.543 0 1 0-7.085 0 3.543 3.543 0 0 0 7.085 0Zm0 0"/><g style="fill:#000;fill-opacity:1"><use xlink:href="#A" x="168.254" y="122.168"/><use xlink:href="#b" x="175.726" y="122.168"/><use xlink:href="#e" x="180.707" y="122.168"/><use xlink:href="#j" x="184.61" y="122.168"/><use xlink:href="#e" x="188.484" y="122.168"/><use xlink:href="#n" x="192.386" y="122.168"/><use xlink:href="#n" x="196.814" y="122.168"/><use xlink:href="#z" x="201.241" y="122.168"/><use xlink:href="#B" x="204.562" y="122.168"/></g><use xlink:href="#g" x="210.238" y="122.168" style="fill:#000;fill-opacity:1"/><use xlink:href="#c" x="215.489" y="122.168" style="fill:#000;fill-opacity:1"/><use xlink:href="#C" x="219.647" y="122.168" style="fill:#000;fill-opacity:1"/><path style="stroke:none;fill-rule:nonzero;fill:#009;fill-opacity:1" d="M199.023 95.086a3.543 3.543 0 1 0-7.085 0 3.543 3.543 0 0 0 7.085 0Zm0 0"/><g style="fill:#000;fill-opacity:1"><use xlink:href="#D" x="203.687" y="97.578"/><use xlink:href="#g" x="212.82" y="97.578"/><use xlink:href="#m" x="217.801" y="97.578"/><use xlink:href="#m" x="220.569" y="97.578"/><use xlink:href="#n" x="223.336" y="97.578"/><use xlink:href="#e" x="227.764" y="97.578"/><use xlink:href="#z" x="231.666" y="97.578"/><use xlink:href="#E" x="234.987" y="97.578"/><use xlink:href="#m" x="241.767" y="97.578"/><use xlink:href="#n" x="244.535" y="97.578"/><use xlink:href="#y" x="248.962" y="97.578"/><use xlink:href="#y" x="252.891" y="97.578"/><use xlink:href="#n" x="256.821" y="97.578"/><use xlink:href="#j" x="261.248" y="97.578"/></g><g style="fill:#000;fill-opacity:1"><use xlink:href="#F" x="268.44" y="97.578"/><use xlink:href="#l" x="273.421" y="97.578"/><use xlink:href="#G" x="278.956" y="97.578"/></g><g style="fill:#000;fill-opacity:1"><use xlink:href="#g" x="287.819" y="97.578"/><use xlink:href="#e" x="292.8" y="97.578"/><use xlink:href="#G" x="296.703" y="97.578"/><use xlink:href="#n" x="302.238" y="97.578"/><use xlink:href="#e" x="306.665" y="97.578"/></g><g style="fill:#000;fill-opacity:1"><use xlink:href="#H" x="313.885" y="97.578"/><use xlink:href="#D" x="317.76" y="97.578"/><use xlink:href="#E" x="326.892" y="97.578"/><use xlink:href="#F" x="333.673" y="97.578"/><use xlink:href="#I" x="338.654" y="97.578"/></g><path style="stroke:none;fill-rule:nonzero;fill:#009;fill-opacity:1" d="M234.457 71.465a3.543 3.543 0 1 0-7.085 0 3.543 3.543 0 0 0 7.085 0Zm0 0"/><g style="fill:#000;fill-opacity:1"><use xlink:href="#J" x="239.12" y="73.956"/><use xlink:href="#g" x="246.315" y="73.956"/><use xlink:href="#l" x="251.296" y="73.956"/><use xlink:href="#K" x="256.832" y="73.956"/><use xlink:href="#L" x="262.367" y="73.956"/><use xlink:href="#d" x="267.348" y="73.956"/><use xlink:href="#e" x="272.883" y="73.956"/><use xlink:href="#b" x="276.786" y="73.956"/><use xlink:href="#j" x="281.767" y="73.956"/><use xlink:href="#k" x="285.641" y="73.956"/><use xlink:href="#g" x="288.409" y="73.956"/><use xlink:href="#l" x="293.39" y="73.956"/></g><g style="fill:#000;fill-opacity:1"><use xlink:href="#M" x="302.243" y="73.956"/><use xlink:href="#l" x="305.841" y="73.956"/></g><g style="fill:#000;fill-opacity:1"><use xlink:href="#j" x="311.097" y="73.956"/><use xlink:href="#n" x="314.971" y="73.956"/><use xlink:href="#e" x="319.399" y="73.956"/><use xlink:href="#b" x="323.301" y="73.956"/><use xlink:href="#c" x="328.282" y="73.956"/><use xlink:href="#j" x="332.71" y="73.956"/><use xlink:href="#k" x="336.584" y="73.956"/><use xlink:href="#g" x="339.352" y="73.956"/><use xlink:href="#l" x="344.333" y="73.956"/></g><g style="fill:#000;fill-opacity:1"><use xlink:href="#H" x="353.196" y="73.956"/><use xlink:href="#J" x="357.07" y="73.956"/><use xlink:href="#M" x="364.265" y="73.956"/><use xlink:href="#N" x="367.863" y="73.956"/><use xlink:href="#O" x="373.398" y="73.956"/><use xlink:href="#I" x="381.008" y="73.956"/></g><path style="stroke:none;fill-rule:nonzero;fill:#009;fill-opacity:1" d="M269.89 47.844a3.543 3.543 0 1 0-7.085-.001 3.543 3.543 0 0 0 7.086 0Zm0 0"/><g style="fill:#000;fill-opacity:1"><use xlink:href="#J" x="274.553" y="50.335"/><use xlink:href="#g" x="281.748" y="50.335"/><use xlink:href="#d" x="286.729" y="50.335"/><use xlink:href="#i" x="292.265" y="50.335"/><use xlink:href="#m" x="297.8" y="50.335"/><use xlink:href="#n" x="300.567" y="50.335"/><use xlink:href="#G" x="304.995" y="50.335"/></g><g style="fill:#000;fill-opacity:1"><use xlink:href="#J" x="313.847" y="50.335"/><use xlink:href="#m" x="321.042" y="50.335"/><use xlink:href="#d" x="323.81" y="50.335"/><use xlink:href="#y" x="329.345" y="50.335"/><use xlink:href="#j" x="333.275" y="50.335"/><use xlink:href="#n" x="337.149" y="50.335"/><use xlink:href="#e" x="341.576" y="50.335"/></g><g style="fill:#000;fill-opacity:1"><use xlink:href="#H" x="348.806" y="50.335"/><use xlink:href="#J" x="352.681" y="50.335"/><use xlink:href="#J" x="359.876" y="50.335"/><use xlink:href="#N" x="367.071" y="50.335"/><use xlink:href="#O" x="372.606" y="50.335"/><use xlink:href="#H" x="380.216" y="50.335"/><use xlink:href="#P" x="384.091" y="50.335"/><use xlink:href="#I" x="391.286" y="50.335"/><use xlink:href="#I" x="395.16" y="50.335"/></g><path style="fill:none;stroke-width:.79701;stroke-linecap:butt;stroke-linejoin:miter;stroke:red;stroke-opacity:1;stroke-miterlimit:10" d="m167.71 87.13-44.723-31.121" transform="matrix(1 0 0 -1 18.314 213.196)"/><path style="fill:none;stroke-width:.6376;stroke-linecap:round;stroke-linejoin:round;stroke:red;stroke-opacity:1;stroke-miterlimit:10" d="M-1.554 2.075C-1.426 1.295 0 .13.389-.001 0-.131-1.424-1.295-1.555-2.071" transform="scale(-.99997 .99997) rotate(34.836 -321.18 -146.61)"/><path style="stroke:none;fill-rule:nonzero;fill:#009;fill-opacity:1" d="M128.156 95.086a3.546 3.546 0 0 0-3.543-3.547 3.546 3.546 0 0 0 0 7.09 3.545 3.545 0 0 0 3.543-3.543Zm0 0"/><g style="fill:#000;fill-opacity:1"><use xlink:href="#O" x="95.096" y="98.49"/><use xlink:href="#B" x="102.706" y="98.49"/><use xlink:href="#P" x="109.21" y="98.49"/></g><path style="stroke:none;fill-rule:nonzero;fill:#009;fill-opacity:1" d="M181.309 59.652a3.543 3.543 0 1 0-7.086 0 3.543 3.543 0 0 0 7.086 0Zm0 0"/><g style="fill:#000;fill-opacity:1"><use xlink:href="#O" x="120.157" y="62.088"/><use xlink:href="#n" x="127.767" y="62.088"/><use xlink:href="#n" x="132.195" y="62.088"/><use xlink:href="#i" x="136.622" y="62.088"/></g><g style="fill:#000;fill-opacity:1"><use xlink:href="#Q" x="145.475" y="62.088"/><use xlink:href="#D" x="153.224" y="62.088"/><use xlink:href="#J" x="162.357" y="62.088"/></g></svg>