<svg height="253.027" viewBox="0 0 241.54 189.77" width="322.053" xmlns="http://www.w3.org/2000/svg" xmlns:xlink="http://www.w3.org/1999/xlink"><symbol id="a" overflow="visible"><path d="m3.563-2.906c.406 1.047.89 2.562 1.046 2.797.157.218.25.218.532.218h.218c.094-.015.11-.062.11-.093 0-.032-.032-.063-.063-.094-.093-.11-.156-.266-.218-.453l-2.033-5.672c-.219-.578-.75-.719-1.219-.719-.046 0-.187 0-.187.11 0 .078.078.109.094.109.328.047.406.11.656.797l.953 2.703-2.749 2.733c-.11.125-.172.172-.172.313 0 .172.14.281.297.281.156 0 .25-.11.328-.203zm0 0"/></symbol><symbol id="b" overflow="visible"><path d="m3.734-6.125c.063-.234.094-.328.282-.36.093-.015.406-.015.609-.015.703 0 1.813 0 1.813.984 0 .344-.157 1.032-.547 1.422-.266.25-.782.578-1.688.578h-1.11zm1.438 2.734c1.016-.218 2.187-.921 2.187-1.921 0-.86-.89-1.5-2.203-1.5h-2.828c-.203 0-.297 0-.297.203 0 .109.094.109.281.109.016 0 .204 0 .376.016.187.03.265.03.265.171 0 .032 0 .063-.031.188l-1.344 5.344c-.094.39-.11.469-.906.469-.172 0-.266 0-.266.203 0 .109.125.109.14.109.282 0 .985-.031 1.25-.031.282 0 1 .031 1.282.031.078 0 .188 0 .188-.203 0-.11-.079-.11-.282-.11-.359 0-.64 0-.64-.171 0-.063.015-.11.031-.172l.656-2.64h1.189c.906 0 1.078.562 1.078.905 0 .141-.078.454-.14.688-.063.281-.157.64-.157.844-.001 1.078 1.202 1.078 1.327 1.078.844 0 1.203-1 1.203-1.14 0-.126-.11-.126-.125-.126-.093 0-.11.063-.125.14-.25.735-.687.907-.906.907-.328 0-.406-.219-.406-.61 0-.312.062-.812.11-1.14a4.9 4.9 0 0 0 .03-.469c0-.765-.671-1.078-.937-1.172zm0 0"/></symbol><symbol id="c" overflow="visible"><path d="m6.438-6.922a.12.12 0 0 0 -.125-.11c-.047 0-.047.016-.172.157l-.485.563c-.25-.47-.765-.72-1.422-.72-1.265 0-2.453 1.157-2.453 2.36 0 .797.516 1.266 1.032 1.406l1.062.282c.375.093.922.25.922 1.062 0 .89-.813 1.828-1.797 1.828-.64 0-1.75-.218-1.75-1.453 0-.234.063-.484.063-.531.015-.047.015-.063.015-.078 0-.094-.062-.11-.11-.11a.142.142 0 0 0 -.109.047c-.029.031-.593 2.313-.593 2.344 0 .047.046.094.109.094.047 0 .063-.016.188-.157l.483-.562c.422.578 1.11.719 1.687.719 1.36 0 2.532-1.328 2.532-2.563 0-.687-.344-1.031-.485-1.172-.234-.218-.39-.265-1.265-.484-.235-.063-.579-.172-.672-.188a.928.928 0 0 1 -.61-.906c0-.812.797-1.656 1.75-1.656.813 0 1.422.438 1.422 1.547 0 .312-.031.5-.031.562 0 0 0 .094.11.094.109 0 .124-.031.156-.203zm0 0"/></symbol><symbol id="d" overflow="visible"><path d="m2.328-4.438c0-.187 0-.187-.203-.187-.453.438-1.078.438-1.36.438v.25c.157 0 .626 0 1-.188v3.547c0 .234 0 .328-.687.328h-.266v.25c.125 0 .985-.031 1.235-.031.219 0 1.094.031 1.25.031v-.25h-.267c-.703 0-.703-.094-.703-.328zm0 0"/></symbol><symbol id="e" overflow="visible"><path d="m3.516-1.266h-.236c-.015.157-.094.563-.187.625-.047.047-.578.047-.688.047h-1.28c.734-.64.984-.844 1.39-1.172.516-.406 1-.843 1-1.5 0-.843-.734-1.359-1.624-1.359-.86 0-1.454.61-1.454 1.25 0 .344.297.39.376.39a.365.365 0 0 0 .359-.374c0-.125-.047-.375-.406-.375.218-.485.687-.641 1.015-.641.703 0 1.063.547 1.063 1.11 0 .609-.438 1.078-.656 1.328l-1.672 1.671c-.079.063-.079.079-.079.266h2.876zm0 0"/></symbol><symbol id="f" overflow="visible"><path d="m1.906-2.328c.547 0 .938.375.938 1.125 0 .86-.516 1.125-.906 1.125-.282 0-.907-.078-1.188-.5.328 0 .406-.235.406-.39 0-.22-.172-.376-.39-.376a.38.38 0 0 0 -.391.407c0 .656.719 1.077 1.563 1.077.968 0 1.64-.657 1.64-1.344 0-.547-.437-1.094-1.203-1.25.719-.266.984-.781.984-1.219 0-.547-.625-.953-1.406-.953-.766 0-1.36.375-1.36.938 0 .234.157.359.36.359.219 0 .36-.156.36-.344 0-.203-.141-.36-.36-.375.25-.297.719-.375.985-.375.312 0 .75.156.75.75 0 .297-.094.625-.282.828-.219.266-.422.281-.765.313-.172.015-.188.015-.22.015-.015 0-.077.016-.077.094 0 .094.062.094.187.094zm0 0"/></symbol><symbol id="g" overflow="visible"><path d="m3.688-1.14v-.25h-.782v-3.11c0-.14 0-.203-.14-.203-.094 0-.125 0-.188.11l-2.312 3.201v.25h2.062v.563c0 .25 0 .328-.578.328h-.188v.251c.36-.016.797-.031 1.047-.031.266 0 .704.015 1.063.031v-.25h-.188c-.578 0-.578-.078-.578-.328v-.563zm-1.313-2.799v2.547h-1.844zm0 0"/></symbol><symbol id="h" overflow="visible"><path d="m5.36-2.344c.093 0 .25 0 .25-.172 0-.171-.157-.171-.25-.171h-4.61c-.094 0-.266 0-.266.171 0 .172.157.172.266.172zm0 1.531c.093 0 .25 0 .25-.156 0-.187-.157-.187-.25-.187h-4.61c-.11 0-.266 0-.266.187 0 .156.172.156.266.156zm0 0"/></symbol><symbol id="i" overflow="visible"><path d="m3.594-2.219c0-.765-.094-1.328-.406-1.812-.22-.313-.657-.594-1.204-.594-1.624 0-1.624 1.906-1.624 2.406s0 2.36 1.625 2.36c1.61 0 1.61-1.86 1.61-2.36zm-1.61 2.156c-.328 0-.75-.187-.89-.75-.094-.406-.094-.983-.094-1.5 0-.515 0-1.046.094-1.421.156-.547.593-.704.89-.704.375 0 .735.235.86.641.11.375.125.875.125 1.485 0 .515 0 1.03-.094 1.468-.14.64-.61.781-.89.781zm0 0"/></symbol><symbol id="j" overflow="visible"><path d="m2.906-4.828c-.047-.14-.125-.14-.187-.14-.14 0-.156.062-.188.155l-1.5 4.11c-.125.375-.421.437-.718.453v.25c.217-.016.437-.031.656-.031s.719.031.828.031v-.25c-.375-.016-.516-.172-.516-.344 0-.047 0-.047.032-.14l1.187-3.266 1.25 3.422c.047.094.047.11.047.125 0 .203-.39.203-.578.203v.25a27.56 27.56 0 0 1 1.047-.031c.28 0 .78.031.859.031v-.25c-.438 0-.547 0-.656-.281zm0 0"/></symbol><symbol id="k" overflow="visible"><path d="m5.516-6.781h-5.188v.312h.234c.766 0 .797.11.797.469v5.219c0 .36-.03.469-.796.469h-.235v.312c.344-.031 1.125-.031 1.516-.031.406 0 1.312 0 1.672.031v-.313h-.329c-.937 0-.937-.124-.937-.468v-5.297c0-.328.016-.39.484-.39h1.032c1.421 0 1.625.593 1.78 1.937h.25zm0 0"/></symbol><symbol id="l" overflow="visible"><path d="m6.844-3.266c.156 0 .343 0 .343-.187 0-.203-.187-.203-.328-.203h-5.968c-.141 0-.329 0-.329.203 0 .187.188.187.329.187zm.015 1.938c.141 0 .329 0 .329-.203 0-.188-.188-.188-.344-.188h-5.954c-.141 0-.329 0-.329.188 0 .203.188.203.329.203zm0 0"/></symbol><symbol id="m" overflow="visible"><path d="m2.188-4.625c0-.016.015-.11.015-.11 0-.046-.015-.109-.11-.109-.14 0-.718.063-.89.078-.047 0-.156.016-.156.157 0 .093.11.093.187.093.329 0 .329.063.329.11s-.016.093-.016.156l-.984 3.938c-.047.124-.047.14-.047.156 0 .11.093.218.25.218.187 0 .265-.124.312-.28.016-.032.313-1.266.344-1.36.5.047.89.219.89.578 0 .031 0 .063-.015.14-.031.094-.031.141-.031.22 0 .484.406.703.75.703.671 0 .875-1.047.875-1.063 0-.094-.079-.094-.11-.094-.094 0-.11.047-.14.172-.079.297-.266.797-.61.797-.187 0-.25-.172-.25-.36 0-.124 0-.14.047-.312a.724.724 0 0 0 .031-.219c0-.625-.828-.718-1.125-.734.204-.125.454-.36.579-.469.359-.328.703-.656 1.093-.656.078 0 .172.016.235.094a.396.396 0 0 0 -.36.39c0 .141.11.25.266.25.203 0 .406-.156.406-.437a.5.5 0 0 0 -.531-.5c-.406 0-.766.297-1.125.625-.297.265-.516.484-.813.61zm0 0"/></symbol><symbol id="n" overflow="visible"><path d="m1.984-3.172c0-.14-.015-.14-.187-.14-.344.312-.907.312-1 .312h-.078v.219h.078c.11 0 .437-.016.734-.14v2.5c0 .14 0 .202-.531.202h-.25v.219c.266-.016.719-.016 1-.016.297 0 .734 0 1.016.016v-.219h-.25c-.532 0-.532-.062-.532-.203zm0 0"/></symbol><symbol id="o" overflow="visible"><path d="m2.938-.969h-.22c0 .094-.062.406-.14.453-.031.032-.453.032-.531.032h-.969c.328-.235.688-.516.984-.72.454-.312.876-.593.876-1.124 0-.64-.61-.985-1.313-.985-.672 0-1.172.376-1.172.876 0 .25.219.296.297.296a.283.283 0 0 0 .281-.296.27.27 0 0 0 -.281-.282c.14-.234.438-.375.766-.375.484 0 .89.281.89.766 0 .422-.297.75-.672 1.062l-1.218 1.032c-.047.047-.063.047-.063.078v.156h2.313zm0 0"/></symbol><symbol id="p" overflow="visible"><path d="m1.64-1.656c.47 0 .766.297.766.781 0 .516-.312.781-.75.781-.062 0-.656 0-.906-.265.203-.032.266-.172.266-.297a.304.304 0 0 0 -.313-.314c-.156 0-.297.11-.297.328 0 .516.578.75 1.266.75.812 0 1.312-.5 1.312-.984 0-.406-.359-.75-.921-.875.593-.203.75-.578.75-.86 0-.406-.5-.703-1.126-.703-.625 0-1.109.25-1.109.704a.28.28 0 0 0 .281.296.284.284 0 0 0 .282-.296c0-.11-.063-.25-.235-.282.203-.218.656-.234.766-.234.36 0 .61.172.61.516 0 .296-.188.75-.704.78-.14 0-.156 0-.297.016-.047 0-.11 0-.11.079 0 .078.048.078.141.078zm0 0"/></symbol><clipPath id="q"><path d="m59 83h44v106.77h-44zm0 0"/></clipPath><clipPath id="r"><path d="m88 186h6v3.77h-6zm0 0"/></clipPath><path d="m0-.002v93.782" fill="none" stroke="#000" stroke-miterlimit="10" stroke-width=".79701" transform="matrix(1 0 0 -1 71.265 94.885)"/><path d="m-1.556 2.074c.133-.778 1.556-1.946 1.946-2.075-.391-.129-1.813-1.293-1.946-2.069" style="fill:none;stroke-width:.6376;stroke-linecap:round;stroke-linejoin:round;stroke:#000;stroke-miterlimit:10" transform="matrix(0 -1 -1 0 71.265 1.105)"/><use x="74.984" xlink:href="#a" y="11.036"/><use x="80.795" xlink:href="#d" y="12.53"/><path d="m0-.002-70.367-70.363" fill="none" stroke="#000" stroke-miterlimit="10" stroke-width=".79701" transform="matrix(1 0 0 -1 71.265 94.885)"/><path d="m-1.554 2.07c.13-.775 1.555-1.94 1.942-2.067-.387-.134-1.812-1.3-1.942-2.076" style="fill:none;stroke-width:.6376;stroke-linecap:round;stroke-linejoin:round;stroke:#000;stroke-miterlimit:10" transform="matrix(-.70710678 .70710678 .70710678 .70710678 .898654 165.253543)"/><use x="4.118" xlink:href="#a" y="176.388"/><use x="9.929" xlink:href="#e" y="177.883"/><g clip-path="url(#q)"><path d="m0-.002 20.098-93.793" fill="none" stroke="#000" stroke-miterlimit="10" stroke-width=".79701" transform="matrix(1 0 0 -1 71.265 94.885)"/></g><g clip-path="url(#r)"><path d="m-1.555 2.07c.13-.773 1.554-1.937 1.945-2.07-.391-.128-1.815-1.293-1.942-2.073" style="fill:none;stroke-width:.6376;stroke-linecap:round;stroke-linejoin:round;stroke:#000;stroke-miterlimit:10" transform="matrix(.20952 .97778 .97778 -.20952 91.364 188.681)"/></g><use x="77.511" xlink:href="#a" y="184.158"/><use x="83.323" xlink:href="#f" y="185.652"/><path d="m0-.002 117.505-70.5" fill="none" stroke="#000" stroke-miterlimit="10" stroke-width=".79701" transform="matrix(1 0 0 -1 71.265 94.885)"/><path d="m-1.553 2.072c.128-.775 1.553-1.942 1.943-2.074-.389-.128-1.813-1.292-1.942-2.071" style="fill:none;stroke-width:.6376;stroke-linecap:round;stroke-linejoin:round;stroke:#000;stroke-miterlimit:10" transform="matrix(.85747 .5145 .5145 -.85747 188.769 165.388)"/><use x="175.374" xlink:href="#a" y="176.388"/><use x="181.186" xlink:href="#g" y="177.883"/><path d="m0-.002h141.028" fill="none" stroke="#000" stroke-miterlimit="10" stroke-width=".79701" transform="matrix(1 0 0 -1 71.265 94.885)"/><path d="m-1.554 2.072c.13-.777 1.555-1.94 1.942-2.074-.388-.128-1.813-1.293-1.942-2.07" style="fill:none;stroke-width:.6376;stroke-linecap:round;stroke-linejoin:round;stroke:#000;stroke-miterlimit:10" transform="matrix(1 0 0 -1 212.292 94.885)"/><path d="m106.301-42.517c8.118 8.82 11.262 16.37 11.809 28.343" style="fill:none;stroke-width:1.99255;stroke-linecap:round;stroke:#000;stroke-dasharray:0 9.96277;stroke-miterlimit:10" transform="matrix(1 0 0 -1 71.265 94.885)"/><path d="m23.622 35.432c-21.043-36.45-19.727-67.434-51.969-94.484m85.039 129.917c-16.445-9.492-20.863-20.882-32.617-34.89" fill="none" stroke="#000" stroke-dasharray="2.98883 2.98883" stroke-miterlimit="10" stroke-width=".79701" transform="matrix(1 0 0 -1 71.265 94.885)"/><path d="m-1.554 2.071c.13-.774 1.552-1.94 1.944-2.071-.388-.127-1.816-1.294-1.945-2.07" style="fill:none;stroke-width:.6376;stroke-linecap:round;stroke-linejoin:round;stroke:#000;stroke-miterlimit:10" transform="matrix(-.64278 .76602 .76602 .64278 95.34 58.91)"/><use x="98.604" xlink:href="#b" y="69.979"/><use x="106.169" xlink:href="#d" y="71.473"/><path d="m56.692 14.17c-15.023-41.28-43.754-58.2-85.039-73.222m113.387 106.296c-13.02-10.924-19.848-18.351-27.993-32.46" fill="none" stroke="#000" stroke-dasharray="2.98883 2.98883" stroke-miterlimit="10" stroke-width=".79701" transform="matrix(1 0 0 -1 71.265 94.885)"/><path d="m-1.555 2.071c.132-.776 1.555-1.943 1.944-2.07-.389-.131-1.814-1.297-1.942-2.075" style="fill:none;stroke-width:.6376;stroke-linecap:round;stroke-linejoin:round;stroke:#000;stroke-miterlimit:10" transform="matrix(-.49998 .86601 .86601 .49998 128.311 80.1)"/><use x="131.676" xlink:href="#b" y="83.37"/><use x="139.24" xlink:href="#e" y="84.864"/><path d="m70.868-28.345c-31.09-26.09-58.63-30.708-99.215-30.708m170.082 129.918c-23.79-41.199-34.422-68.628-70.324-98.757" fill="none" stroke="#000" stroke-dasharray="2.98883 2.98883" stroke-miterlimit="10" stroke-width=".79701" transform="matrix(1 0 0 -1 71.265 94.885)"/><path d="m-1.554 2.07c.128-.776 1.553-1.94 1.944-2.07-.39-.131-1.816-1.296-1.943-2.072" style="fill:none;stroke-width:.6376;stroke-linecap:round;stroke-linejoin:round;stroke:#000;stroke-miterlimit:10" transform="matrix(-.76602 .64278 .64278 .76602 142.674 122.777)"/><use x="145.85" xlink:href="#b" y="133.758"/><use x="153.414" xlink:href="#f" y="135.252"/><path d="m45.754 153.938a2.835 2.835 0 0 0 -2.836-2.833 2.835 2.835 0 1 0 2.836 2.833zm0 0" fill="#8b0000"/><use fill="#8b0000" x="22.556" xlink:href="#k" y="164.465"/><use fill="#8b0000" x="28.782" xlink:href="#m" y="165.96"/><g fill="#8b0000"><use x="33.186" xlink:href="#h" y="165.96"/><use x="39.302" xlink:href="#i" y="165.96"/></g><use fill="#8b0000" x="46.539" xlink:href="#l" y="164.465"/><use fill="#8b0000" x="57.058" xlink:href="#k" y="164.465"/><g fill="#00008b"><path d="m130.793 24.02a2.836 2.836 0 1 0 -5.672 0 2.835 2.835 0 0 0 2.836 2.832 2.835 2.835 0 0 0 2.836-2.832zm0 0"/><use x="102.734" xlink:href="#k" y="17.809"/><use x="108.96" xlink:href="#m" y="19.303"/><g><use x="113.364" xlink:href="#h" y="19.303"/><use x="119.48" xlink:href="#j" y="19.303"/></g><use x="124.932" xlink:href="#n" y="20.3"/><use x="132.085" xlink:href="#l" y="17.809"/><use x="142.601" xlink:href="#c" y="17.809"/><use x="148.71" xlink:href="#d" y="19.303"/><path d="m159.14 47.64a2.836 2.836 0 1 0 -5.67 0 2.836 2.836 0 0 0 5.67 0zm0 0"/><use x="131.08" xlink:href="#k" y="41.432"/><use x="137.306" xlink:href="#m" y="42.926"/><g><use x="141.71" xlink:href="#h" y="42.926"/><use x="147.826" xlink:href="#j" y="42.926"/></g><use x="153.278" xlink:href="#o" y="43.922"/><use x="160.431" xlink:href="#l" y="41.432"/><use x="170.947" xlink:href="#c" y="41.432"/><use x="177.056" xlink:href="#e" y="42.926"/><path d="m215.836 24.02a2.836 2.836 0 1 0 -5.672 0 2.835 2.835 0 0 0 2.836 2.832 2.835 2.835 0 0 0 2.836-2.832zm0 0"/><use x="187.774" xlink:href="#k" y="17.809"/><use x="194" xlink:href="#m" y="19.303"/><g><use x="198.404" xlink:href="#h" y="19.303"/><use x="204.52" xlink:href="#j" y="19.303"/></g><use x="209.972" xlink:href="#p" y="20.3"/><use x="217.126" xlink:href="#l" y="17.809"/><use x="227.642" xlink:href="#c" y="17.809"/><use x="233.751" xlink:href="#f" y="19.303"/></g></svg>