<svg xmlns="http://www.w3.org/2000/svg" xmlns:xlink="http://www.w3.org/1999/xlink" width="322.053" height="253.027" viewBox="0 0 241.54 189.77"><defs><symbol overflow="visible" id="a"><path d="M3.563-2.906c.406 1.047.89 2.562 1.046 2.797.157.218.25.218.532.218h.218c.094-.015.11-.062.11-.093 0-.032-.032-.063-.063-.094-.093-.11-.156-.266-.218-.453L3.155-6.203c-.219-.578-.75-.719-1.219-.719-.046 0-.187 0-.187.11 0 .078.078.109.094.109.328.047.406.11.656.797l.953 2.703L.703-.47c-.11.125-.172.172-.172.313 0 .172.14.281.297.281.156 0 .25-.11.328-.203zm0 0"/></symbol><symbol overflow="visible" id="h"><path d="M3.734-6.125c.063-.234.094-.328.282-.36.093-.015.406-.015.609-.015.703 0 1.813 0 1.813.984 0 .344-.157 1.032-.547 1.422-.266.25-.782.578-1.688.578h-1.11zm1.438 2.734c1.016-.218 2.187-.921 2.187-1.921 0-.86-.89-1.5-2.203-1.5H2.328c-.203 0-.297 0-.297.203 0 .109.094.109.281.109.016 0 .204 0 .376.016.187.03.265.03.265.171 0 .032 0 .063-.031.188L1.578-.781c-.094.39-.11.469-.906.469-.172 0-.266 0-.266.203C.406 0 .531 0 .546 0c.282 0 .985-.031 1.25-.031.282 0 1 .031 1.282.031.078 0 .188 0 .188-.203 0-.11-.079-.11-.282-.11-.359 0-.64 0-.64-.171 0-.063.015-.11.031-.172l.656-2.64H4.22c.906 0 1.078.562 1.078.905 0 .141-.078.454-.14.688-.063.281-.157.64-.157.844C5 .219 6.203.219 6.328.219c.844 0 1.203-1 1.203-1.14 0-.126-.11-.126-.125-.126-.093 0-.11.063-.125.14-.25.735-.687.907-.906.907-.328 0-.406-.219-.406-.61 0-.312.062-.812.11-1.14.015-.14.03-.328.03-.469 0-.765-.671-1.078-.937-1.172zm0 0"/></symbol><symbol overflow="visible" id="p"><path d="M6.438-6.922a.12.12 0 0 0-.125-.11c-.047 0-.047.016-.172.157l-.485.563c-.25-.47-.765-.72-1.422-.72-1.265 0-2.453 1.157-2.453 2.36 0 .797.516 1.266 1.032 1.406l1.062.282c.375.093.922.25.922 1.062 0 .89-.813 1.828-1.797 1.828-.64 0-1.75-.218-1.75-1.453 0-.234.063-.484.063-.531.015-.047.015-.063.015-.078 0-.094-.062-.11-.11-.11a.142.142 0 0 0-.109.047C1.08-2.188.516.094.516.125c0 .047.046.094.109.094.047 0 .063-.016.188-.157L1.296-.5c.422.578 1.11.719 1.687.719 1.36 0 2.532-1.328 2.532-2.563 0-.687-.344-1.031-.485-1.172-.234-.218-.39-.265-1.265-.484-.235-.063-.579-.172-.672-.188a.928.928 0 0 1-.61-.906c0-.812.797-1.656 1.75-1.656.813 0 1.422.438 1.422 1.547 0 .312-.031.5-.031.562 0 0 0 .094.11.094.109 0 .124-.031.156-.203zm0 0"/></symbol><symbol overflow="visible" id="b"><path d="M2.328-4.438c0-.187 0-.187-.203-.187-.453.438-1.078.438-1.36.438v.25c.157 0 .626 0 1-.188v3.547c0 .234 0 .328-.687.328H.812V0c.125 0 .985-.031 1.235-.031.219 0 1.094.031 1.25.031v-.25H3.03c-.703 0-.703-.094-.703-.328zm0 0"/></symbol><symbol overflow="visible" id="c"><path d="M3.516-1.266H3.28c-.015.157-.094.563-.187.625-.047.047-.578.047-.688.047H1.125c.734-.64.984-.844 1.39-1.172.516-.406 1-.843 1-1.5 0-.843-.734-1.359-1.624-1.359-.86 0-1.454.61-1.454 1.25 0 .344.297.39.376.39.156 0 .359-.124.359-.374 0-.125-.047-.375-.406-.375.218-.485.687-.641 1.015-.641.703 0 1.063.547 1.063 1.11 0 .609-.438 1.078-.656 1.328L.516-.266C.437-.203.437-.187.437 0h2.876zm0 0"/></symbol><symbol overflow="visible" id="f"><path d="M1.906-2.328c.547 0 .938.375.938 1.125 0 .86-.516 1.125-.906 1.125-.282 0-.907-.078-1.188-.5.328 0 .406-.235.406-.39 0-.22-.172-.376-.39-.376a.38.38 0 0 0-.391.407C.375-.281 1.094.14 1.938.14c.968 0 1.64-.657 1.64-1.344 0-.547-.437-1.094-1.203-1.25.719-.266.984-.781.984-1.219 0-.547-.625-.953-1.406-.953-.766 0-1.36.375-1.36.938 0 .234.157.359.36.359.219 0 .36-.156.36-.344 0-.203-.141-.36-.36-.375.25-.297.719-.375.985-.375.312 0 .75.156.75.75 0 .297-.094.625-.282.828-.219.266-.422.281-.765.313-.172.015-.188.015-.22.015-.015 0-.077.016-.077.094 0 .094.062.094.187.094zm0 0"/></symbol><symbol overflow="visible" id="g"><path d="M3.688-1.14v-.25h-.782V-4.5c0-.14 0-.203-.14-.203-.094 0-.125 0-.188.11L.266-1.392v.25h2.062v.563c0 .25 0 .328-.578.328h-.188V0c.36-.016.797-.031 1.047-.031.266 0 .704.015 1.063.031v-.25h-.188c-.578 0-.578-.078-.578-.328v-.563zM2.375-3.939v2.547H.531zm0 0"/></symbol><symbol overflow="visible" id="k"><path d="M5.36-2.344c.093 0 .25 0 .25-.172 0-.171-.157-.171-.25-.171H.75c-.094 0-.266 0-.266.171 0 .172.157.172.266.172zm0 1.531c.093 0 .25 0 .25-.156 0-.187-.157-.187-.25-.187H.75c-.11 0-.266 0-.266.187 0 .156.172.156.266.156zm0 0"/></symbol><symbol overflow="visible" id="l"><path d="M3.594-2.219c0-.765-.094-1.328-.406-1.812-.22-.313-.657-.594-1.204-.594C.36-4.625.36-2.719.36-2.219c0 .5 0 2.36 1.625 2.36 1.61 0 1.61-1.86 1.61-2.36zM1.984-.063c-.328 0-.75-.187-.89-.75C1-1.219 1-1.796 1-2.313c0-.515 0-1.046.094-1.421.156-.547.593-.704.89-.704.375 0 .735.235.86.641.11.375.125.875.125 1.485 0 .515 0 1.03-.094 1.468-.14.64-.61.781-.89.781zm0 0"/></symbol><symbol overflow="visible" id="n"><path d="M2.906-4.828c-.047-.14-.125-.14-.187-.14-.14 0-.156.062-.188.155l-1.5 4.11C.906-.328.61-.266.313-.25V0C.53-.016.75-.031.969-.031c.219 0 .719.031.828.031v-.25c-.375-.016-.516-.172-.516-.344 0-.047 0-.047.032-.14L2.5-4 3.75-.578c.047.094.047.11.047.125 0 .203-.39.203-.578.203V0c.344-.016.797-.031 1.047-.031.28 0 .78.031.859.031v-.25c-.438 0-.547 0-.656-.281zm0 0"/></symbol><symbol overflow="visible" id="i"><path d="M5.516-6.781H.328v.312h.234c.766 0 .797.11.797.469v5.219c0 .36-.03.469-.796.469H.328V0c.344-.031 1.125-.031 1.516-.031.406 0 1.312 0 1.672.031v-.313h-.329c-.937 0-.937-.124-.937-.468v-5.297c0-.328.016-.39.484-.39h1.032c1.421 0 1.625.593 1.78 1.937h.25zm0 0"/></symbol><symbol overflow="visible" id="m"><path d="M6.844-3.266c.156 0 .343 0 .343-.187 0-.203-.187-.203-.328-.203H.891c-.141 0-.329 0-.329.203 0 .187.188.187.329.187zm.015 1.938c.141 0 .329 0 .329-.203 0-.188-.188-.188-.344-.188H.89c-.141 0-.329 0-.329.188 0 .203.188.203.329.203zm0 0"/></symbol><symbol overflow="visible" id="j"><path d="M2.188-4.625c0-.016.015-.11.015-.11 0-.046-.015-.109-.11-.109-.14 0-.718.063-.89.078-.047 0-.156.016-.156.157 0 .093.11.093.187.093.329 0 .329.063.329.11s-.016.093-.016.156L.563-.312c-.047.124-.047.14-.047.156 0 .11.093.218.25.218.187 0 .265-.124.312-.28.016-.032.313-1.266.344-1.36.5.047.89.219.89.578 0 .031 0 .063-.015.14-.031.094-.031.141-.031.22 0 .484.406.703.75.703.671 0 .875-1.047.875-1.063 0-.094-.079-.094-.11-.094-.094 0-.11.047-.14.172-.079.297-.266.797-.61.797-.187 0-.25-.172-.25-.36 0-.124 0-.14.047-.312a.724.724 0 0 0 .031-.219c0-.625-.828-.718-1.125-.734.204-.125.454-.36.579-.469.359-.328.703-.656 1.093-.656.078 0 .172.016.235.094a.396.396 0 0 0-.36.39c0 .141.11.25.266.25.203 0 .406-.156.406-.437a.5.5 0 0 0-.531-.5c-.406 0-.766.297-1.125.625-.297.265-.516.484-.813.61zm0 0"/></symbol><symbol overflow="visible" id="o"><path d="M1.984-3.172c0-.14-.015-.14-.187-.14C1.453-3 .89-3 .797-3H.719v.219h.078c.11 0 .437-.016.734-.14v2.5c0 .14 0 .202-.531.202H.75V0c.266-.016.719-.016 1-.016.297 0 .734 0 1.016.016v-.219h-.25c-.532 0-.532-.062-.532-.203zm0 0"/></symbol><symbol overflow="visible" id="q"><path d="M2.938-.969h-.22c0 .094-.062.406-.14.453-.031.032-.453.032-.531.032h-.969c.328-.235.688-.516.984-.72.454-.312.876-.593.876-1.124 0-.64-.61-.985-1.313-.985-.672 0-1.172.376-1.172.876 0 .25.219.296.297.296a.283.283 0 0 0 .281-.296.27.27 0 0 0-.281-.282c.14-.234.438-.375.766-.375.484 0 .89.281.89.766 0 .422-.297.75-.672 1.062L.516-.234c-.047.047-.063.047-.063.078V0h2.313zm0 0"/></symbol><symbol overflow="visible" id="r"><path d="M1.64-1.656c.47 0 .766.297.766.781 0 .516-.312.781-.75.781-.062 0-.656 0-.906-.265.203-.032.266-.172.266-.297A.304.304 0 0 0 .703-.97c-.156 0-.297.11-.297.328 0 .516.578.75 1.266.75.812 0 1.312-.5 1.312-.984 0-.406-.359-.75-.921-.875.593-.203.75-.578.75-.86 0-.406-.5-.703-1.126-.703-.625 0-1.109.25-1.109.704a.28.28 0 0 0 .281.296c.141 0 .282-.109.282-.296 0-.11-.063-.25-.235-.282.203-.218.656-.234.766-.234.36 0 .61.172.61.516 0 .296-.188.75-.704.78-.14 0-.156 0-.297.016-.047 0-.11 0-.11.079 0 .078.048.078.141.078zm0 0"/></symbol><clipPath id="d"><path d="M59 83h44v106.77H59zm0 0"/></clipPath><clipPath id="e"><path d="M88 186h6v3.77h-6zm0 0"/></clipPath></defs><path d="M71.266 94.887V1.105" fill="none" stroke-width="0.79701" stroke="rgb(0%,0%,0%)" stroke-miterlimit="10"/><path d="M69.191 2.66c.778-.133 1.946-1.555 2.075-1.945.129.39 1.293 1.812 2.07 1.945" fill="none" stroke-width="0.6376" stroke-linecap="round" stroke-linejoin="round" stroke="rgb(0%,0%,0%)" stroke-miterlimit="10"/><use xlink:href="#a" x="74.984" y="11.036" fill="rgb(0%,0%,0%)"/><use xlink:href="#b" x="80.795" y="12.53" fill="rgb(0%,0%,0%)"/><path d="M71.266 94.887L.898 165.25" fill="none" stroke-width="0.79701" stroke="rgb(0%,0%,0%)" stroke-miterlimit="10"/><path d="M3.46 165.617c-.64-.457-2.472-.273-2.835-.09.18-.367.363-2.199-.094-2.84" fill="none" stroke-width=".637593624" stroke-linecap="round" stroke-linejoin="round" stroke="rgb(0%,0%,0%)" stroke-miterlimit="10"/><use xlink:href="#a" x="4.118" y="176.388" fill="rgb(0%,0%,0%)"/><use xlink:href="#c" x="9.929" y="177.883" fill="rgb(0%,0%,0%)"/><g clip-path="url(#d)"><path d="M71.266 94.887l20.097 93.793" fill="none" stroke-width="0.79701" stroke="rgb(0%,0%,0%)" stroke-miterlimit="10"/></g><g clip-path="url(#e)"><path d="M93.063 186.727c-.731.289-1.57 1.925-1.618 2.335-.207-.355-1.644-1.503-2.433-1.464" fill="none" stroke-width=".6375872479999999" stroke-linecap="round" stroke-linejoin="round" stroke="rgb(0%,0%,0%)" stroke-miterlimit="10"/></g><use xlink:href="#a" x="77.511" y="184.158" fill="rgb(0%,0%,0%)"/><use xlink:href="#f" x="83.323" y="185.652" fill="rgb(0%,0%,0%)"/><path d="M71.266 94.887l117.504 70.5" fill="none" stroke-width="0.79701" stroke="rgb(0%,0%,0%)" stroke-miterlimit="10"/><path d="M188.504 162.813c-.29.73.332 2.464.598 2.777-.399-.09-2.22.176-2.73.777" fill="none" stroke-width=".6375872479999999" stroke-linecap="round" stroke-linejoin="round" stroke="rgb(0%,0%,0%)" stroke-miterlimit="10"/><use xlink:href="#a" x="175.374" y="176.388" fill="rgb(0%,0%,0%)"/><use xlink:href="#g" x="181.186" y="177.883" fill="rgb(0%,0%,0%)"/><path d="M71.266 94.887h141.027" fill="none" stroke-width="0.79701" stroke="rgb(0%,0%,0%)" stroke-miterlimit="10"/><path d="M210.738 92.813c.13.777 1.555 1.94 1.942 2.074-.387.129-1.813 1.293-1.942 2.07" fill="none" stroke-width="0.6376" stroke-linecap="round" stroke-linejoin="round" stroke="rgb(0%,0%,0%)" stroke-miterlimit="10"/><path d="M177.566 137.402c8.118-8.82 11.262-16.37 11.809-28.343" fill="none" stroke-width="1.99255" stroke-linecap="round" stroke="rgb(0%,0%,0%)" stroke-dasharray="0,9.96277" stroke-miterlimit="10"/><path d="M94.887 59.453c-21.043 36.45-19.727 67.434-51.969 94.484M127.957 24.02c-16.445 9.492-20.863 20.882-32.617 34.89" fill="none" stroke-width="0.79701" stroke="rgb(0%,0%,0%)" stroke-dasharray="2.98883,2.98883" stroke-miterlimit="10"/><path d="M97.926 59.05c-.676-.398-2.485-.058-2.836.157.152-.379.176-2.223-.336-2.82" fill="none" stroke-width=".6375872479999999" stroke-linecap="round" stroke-linejoin="round" stroke="rgb(0%,0%,0%)" stroke-miterlimit="10"/><use xlink:href="#h" x="98.604" y="69.979" fill="rgb(0%,0%,0%)"/><use xlink:href="#b" x="106.169" y="71.473" fill="rgb(0%,0%,0%)"/><path d="M127.957 80.715c-15.023 41.281-43.754 58.2-85.039 73.222M156.305 47.641c-13.02 10.925-19.848 18.351-27.993 32.46" fill="none" stroke-width="0.79701" stroke="rgb(0%,0%,0%)" stroke-dasharray="2.98883,2.98883" stroke-miterlimit="10"/><path d="M130.883 79.79c-.738-.274-2.461.374-2.766.647.082-.402-.215-2.218-.824-2.718" fill="none" stroke-width=".6375872479999999" stroke-linecap="round" stroke-linejoin="round" stroke="rgb(0%,0%,0%)" stroke-miterlimit="10"/><use xlink:href="#h" x="131.676" y="83.37" fill="rgb(0%,0%,0%)"/><use xlink:href="#c" x="139.24" y="84.864" fill="rgb(0%,0%,0%)"/><path d="M142.133 123.23c-31.09 26.09-58.63 30.707-99.215 30.707M213 24.02c-23.79 41.199-34.422 68.628-70.324 98.757" fill="none" stroke-width="0.79701" stroke="rgb(0%,0%,0%)" stroke-dasharray="2.98883,2.98883" stroke-miterlimit="10"/><path d="M145.195 123.363c-.597-.511-2.437-.488-2.82-.336.215-.351.559-2.16.156-2.836" fill="none" stroke-width=".6375872479999999" stroke-linecap="round" stroke-linejoin="round" stroke="rgb(0%,0%,0%)" stroke-miterlimit="10"/><use xlink:href="#h" x="145.85" y="133.758" fill="rgb(0%,0%,0%)"/><use xlink:href="#f" x="153.414" y="135.252" fill="rgb(0%,0%,0%)"/><path d="M45.754 153.938a2.835 2.835 0 0 0-2.836-2.833 2.835 2.835 0 1 0 2.836 2.833zm0 0" fill="rgb(54.499817%,0%,0%)"/><use xlink:href="#i" x="22.556" y="164.465" fill="rgb(54.499817%,0%,0%)"/><use xlink:href="#j" x="28.782" y="165.96" fill="rgb(54.499817%,0%,0%)"/><g fill="rgb(54.499817%,0%,0%)"><use xlink:href="#k" x="33.186" y="165.96"/><use xlink:href="#l" x="39.302" y="165.96"/></g><use xlink:href="#m" x="46.539" y="164.465" fill="rgb(54.499817%,0%,0%)"/><use xlink:href="#i" x="57.058" y="164.465" fill="rgb(54.499817%,0%,0%)"/><path d="M130.793 24.02a2.836 2.836 0 1 0-5.672 0 2.835 2.835 0 0 0 2.836 2.832 2.835 2.835 0 0 0 2.836-2.832zm0 0" fill="rgb(0%,0%,54.499817%)"/><use xlink:href="#i" x="102.734" y="17.809" fill="rgb(0%,0%,54.499817%)"/><use xlink:href="#j" x="108.96" y="19.303" fill="rgb(0%,0%,54.499817%)"/><g fill="rgb(0%,0%,54.499817%)"><use xlink:href="#k" x="113.364" y="19.303"/><use xlink:href="#n" x="119.48" y="19.303"/></g><use xlink:href="#o" x="124.932" y="20.3" fill="rgb(0%,0%,54.499817%)"/><use xlink:href="#m" x="132.085" y="17.809" fill="rgb(0%,0%,54.499817%)"/><use xlink:href="#p" x="142.601" y="17.809" fill="rgb(0%,0%,54.499817%)"/><use xlink:href="#b" x="148.71" y="19.303" fill="rgb(0%,0%,54.499817%)"/><path d="M159.14 47.64a2.836 2.836 0 1 0-5.67 0 2.836 2.836 0 0 0 5.67 0zm0 0" fill="rgb(0%,0%,54.499817%)"/><use xlink:href="#i" x="131.08" y="41.432" fill="rgb(0%,0%,54.499817%)"/><use xlink:href="#j" x="137.306" y="42.926" fill="rgb(0%,0%,54.499817%)"/><g fill="rgb(0%,0%,54.499817%)"><use xlink:href="#k" x="141.71" y="42.926"/><use xlink:href="#n" x="147.826" y="42.926"/></g><use xlink:href="#q" x="153.278" y="43.922" fill="rgb(0%,0%,54.499817%)"/><use xlink:href="#m" x="160.431" y="41.432" fill="rgb(0%,0%,54.499817%)"/><use xlink:href="#p" x="170.947" y="41.432" fill="rgb(0%,0%,54.499817%)"/><use xlink:href="#c" x="177.056" y="42.926" fill="rgb(0%,0%,54.499817%)"/><path d="M215.832 24.02A2.832 2.832 0 0 0 213 21.184a2.835 2.835 0 1 0 2.832 2.836zm0 0" fill="rgb(0%,0%,54.499817%)"/><use xlink:href="#i" x="187.774" y="17.809" fill="rgb(0%,0%,54.499817%)"/><use xlink:href="#j" x="194" y="19.303" fill="rgb(0%,0%,54.499817%)"/><g fill="rgb(0%,0%,54.499817%)"><use xlink:href="#k" x="198.404" y="19.303"/><use xlink:href="#n" x="204.52" y="19.303"/></g><use xlink:href="#r" x="209.972" y="20.3" fill="rgb(0%,0%,54.499817%)"/><use xlink:href="#m" x="217.126" y="17.809" fill="rgb(0%,0%,54.499817%)"/><use xlink:href="#p" x="227.642" y="17.809" fill="rgb(0%,0%,54.499817%)"/><use xlink:href="#f" x="233.751" y="19.303" fill="rgb(0%,0%,54.499817%)"/></svg>