<svg xmlns="http://www.w3.org/2000/svg" xmlns:xlink="http://www.w3.org/1999/xlink" width="636.212" height="280.385" viewBox="0 0 477.159 210.289"><defs><symbol overflow="visible" id="d"><path style="stroke:none" d="M2.297-3.5a6.05 6.05 0 0 0 .156-.64c0-.173-.125-.266-.297-.266-.015 0-.297.015-.39.36L.328 1.718c-.031.125-.031.14-.031.172 0 .14.11.265.281.265.203 0 .328-.187.344-.219.047-.078.172-.609.547-2.14.328.266.781.312.968.312.704 0 1.094-.453 1.329-.734a.904.904 0 0 0 .906.734c.344 0 .578-.234.734-.546.172-.36.297-.97.297-.985 0-.11-.094-.11-.125-.11-.094 0-.11.048-.14.188-.157.64-.344 1.235-.75 1.235-.266 0-.297-.266-.297-.454 0-.218.109-.687.187-1.046l.281-1.079c.032-.14.141-.515.172-.671.047-.235.157-.61.157-.672 0-.172-.141-.266-.297-.266-.047 0-.313.016-.391.344l-.469 1.875c-.11.5-.218.906-.25 1.015-.015.047-.484.954-1.297.954-.5 0-.734-.329-.734-.875 0-.282.063-.563.14-.844Zm0 0"/></symbol><symbol overflow="visible" id="e"><path style="stroke:none" d="M5.156-3.719c.14 0 .5 0 .5-.344 0-.234-.218-.234-.39-.234H2.984c-1.5 0-2.609 1.64-2.609 2.828C.375-.594.969.11 1.875.11c1.172 0 2.5-1.203 2.5-2.734 0-.172 0-.656-.313-1.094ZM1.891-.109C1.39-.11 1-.47 1-1.188c0-.296.11-1.109.469-1.703.422-.687 1.015-.828 1.36-.828.827 0 .905.656.905.969 0 .469-.203 1.281-.53 1.797-.392.578-.938.844-1.313.844Zm0 0"/></symbol><symbol overflow="visible" id="l"><path style="stroke:none" d="M3.328-3.016c.063-.25.297-1.171.985-1.171.046 0 .296 0 .5.125a.578.578 0 0 0-.47.546c0 .157.11.344.376.344a.546.546 0 0 0 .531-.578c0-.516-.578-.656-.922-.656-.578 0-.922.531-1.047.75-.25-.656-.781-.75-1.078-.75-1.031 0-1.61 1.281-1.61 1.531 0 .11.11.11.126.11.078 0 .11-.032.125-.11.344-1.063 1-1.313 1.344-1.313.187 0 .53.094.53.672 0 .313-.171.97-.53 2.375-.157.61-.516 1.032-.954 1.032-.062 0-.28 0-.5-.125.25-.063.47-.266.47-.547 0-.266-.22-.344-.36-.344-.313 0-.547.25-.547.578 0 .453.484.656.922.656.672 0 1.031-.703 1.047-.75.125.36.484.75 1.078.75 1.031 0 1.594-1.28 1.594-1.53 0-.11-.079-.11-.11-.11-.094 0-.11.047-.14.11-.329 1.077-1 1.312-1.313 1.312-.39 0-.547-.313-.547-.657 0-.218.047-.437.156-.875Zm0 0"/></symbol><symbol overflow="visible" id="f"><path style="stroke:none" d="M2.078-1.938c.219.047 1.031.204 1.031.922 0 .5-.343.907-1.125.907-.843 0-1.203-.563-1.39-1.422-.031-.125-.031-.157-.14-.157-.126 0-.126.063-.126.235v1.328c0 .172 0 .234.11.234C.483.11.5.094.688-.094.703-.109.703-.125.89-.312c.437.406.89.421 1.093.421 1.141 0 1.61-.671 1.61-1.39 0-.516-.297-.828-.422-.938-.328-.328-.719-.406-1.14-.484-.563-.11-1.22-.235-1.22-.813 0-.359.25-.765 1.11-.765 1.094 0 1.156.906 1.172 1.203 0 .094.094.094.11.094.14 0 .14-.047.14-.235v-1.015c0-.157 0-.235-.11-.235-.046 0-.078 0-.203.125a1.676 1.676 0 0 1-.172.157c-.375-.282-.78-.282-.937-.282-1.219 0-1.594.672-1.594 1.235 0 .343.156.625.422.843.328.25.61.313 1.328.454Zm0 0"/></symbol><symbol overflow="visible" id="g"><path style="stroke:none" d="M3.313-.75c.046.39.312.813.78.813.22 0 .829-.141.829-.954v-.562h-.25v.562c0 .579-.25.641-.36.641-.328 0-.375-.453-.375-.5v-1.984c0-.422 0-.813-.359-1.188a1.9 1.9 0 0 0-1.36-.547C1.391-4.469.703-4 .703-3.344c0 .297.203.469.469.469a.435.435 0 0 0 .453-.453c0-.125-.047-.453-.516-.453.282-.36.766-.469 1.079-.469.5 0 1.062.39 1.062 1.281v.36c-.516.03-1.203.062-1.828.359-.75.344-1 .86-1 1.297 0 .812.969 1.062 1.594 1.062A1.38 1.38 0 0 0 3.312-.75ZM3.25-2.39v1c0 .937-.719 1.28-1.172 1.28-.484 0-.89-.343-.89-.843 0-.547.421-1.375 2.062-1.438Zm0 0"/></symbol><symbol overflow="visible" id="h"><path style="stroke:none" d="M1.094-3.422V-.75c0 .438-.11.438-.782.438V0c.36-.016.86-.031 1.141-.031.25 0 .766.015 1.11.031v-.313c-.672 0-.782 0-.782-.437v-1.844c0-1.031.719-1.594 1.344-1.594.64 0 .75.532.75 1.11V-.75c0 .438-.11.438-.781.438V0c.344-.016.86-.031 1.125-.031.25 0 .781.015 1.11.031v-.313c-.657 0-.766 0-.766-.437v-1.844c0-1.031.703-1.594 1.343-1.594.625 0 .735.532.735 1.11V-.75c0 .438-.11.438-.782.438V0c.344-.016.86-.031 1.125-.031.266 0 .782.015 1.125.031v-.313c-.515 0-.765 0-.78-.296v-1.907c0-.859 0-1.156-.313-1.515-.141-.172-.47-.375-1.047-.375-.828 0-1.282.593-1.438.984-.14-.875-.875-.984-1.328-.984-.734 0-1.203.422-1.484 1.047v-1.047l-1.407.11v.312c.704 0 .782.062.782.562Zm0 0"/></symbol><symbol overflow="visible" id="i"><path style="stroke:none" d="M1.719-3.75v-.656l-1.438.11v.312c.703 0 .781.062.781.5v4.656c0 .453-.109.453-.78.453v.313c.343-.016.859-.032 1.109-.032.28 0 .78.016 1.125.032v-.313c-.657 0-.766 0-.766-.453V-.594c.047.172.469.703 1.219.703 1.187 0 2.219-.984 2.219-2.265 0-1.266-.954-2.25-2.079-2.25-.78 0-1.203.437-1.39.656Zm.031 2.61v-2.22c.281-.515.766-.796 1.281-.796.735 0 1.328.875 1.328 2C4.36-.953 3.672-.11 2.938-.11c-.407 0-.782-.204-1.047-.61-.141-.203-.141-.219-.141-.422Zm0 0"/></symbol><symbol overflow="visible" id="j"><path style="stroke:none" d="m1.766-6.922-1.438.11v.312c.703 0 .781.063.781.563V-.75c0 .438-.109.438-.78.438V0c.327-.016.859-.031 1.109-.031s.734.015 1.109.031v-.313c-.672 0-.781 0-.781-.437Zm0 0"/></symbol><symbol overflow="visible" id="k"><path style="stroke:none" d="M1.11-2.516C1.171-4 2.015-4.25 2.36-4.25c1.015 0 1.124 1.344 1.124 1.734Zm0 .22h2.78c.22 0 .25 0 .25-.22 0-.984-.546-1.953-1.78-1.953-1.158 0-2.08 1.032-2.08 2.282C.281-.86 1.328.108 2.47.108 3.688.11 4.14-1 4.14-1.187c0-.094-.079-.125-.141-.125-.078 0-.11.062-.125.14C3.531-.14 2.625-.14 2.531-.14c-.5 0-.89-.296-1.125-.671-.297-.47-.297-1.125-.297-1.485Zm0 0"/></symbol><symbol overflow="visible" id="n"><path style="stroke:none" d="m2.5-6.922-1.344 1.36.172.171L2.5-6.406l1.14 1.015.172-.171Zm0 0"/></symbol><symbol overflow="visible" id="s"><path style="stroke:none" d="m1.766-4.406-1.391.11v.312c.64 0 .734.062.734.546V-.75c0 .438-.109.438-.78.438V0c.312-.016.859-.031 1.093-.031.36 0 .703.015 1.047.031v-.313c-.672 0-.703-.046-.703-.437Zm.03-1.735a.514.514 0 0 0-.515-.53.537.537 0 0 0-.531.53c0 .266.219.532.531.532a.514.514 0 0 0 .516-.532Zm0 0"/></symbol><symbol overflow="visible" id="t"><path style="stroke:none" d="M1.094-3.422V-.75c0 .438-.11.438-.782.438V0c.36-.016.86-.031 1.141-.031.25 0 .766.015 1.11.031v-.313c-.672 0-.782 0-.782-.437v-1.844c0-1.031.719-1.594 1.344-1.594.64 0 .75.532.75 1.11V-.75c0 .438-.11.438-.781.438V0c.344-.016.86-.031 1.125-.031.25 0 .781.015 1.11.031v-.313c-.516 0-.766 0-.766-.296v-1.907c0-.859 0-1.156-.313-1.515-.14-.172-.469-.375-1.047-.375-.734 0-1.203.422-1.484 1.047v-1.047l-1.407.11v.312c.704 0 .782.062.782.562Zm0 0"/></symbol><symbol overflow="visible" id="u"><path style="stroke:none" d="M3.89-.781v.89L5.329 0v-.313c-.687 0-.766-.062-.766-.562v-3.531l-1.468.11v.312c.687 0 .781.062.781.562v1.766c0 .875-.484 1.547-1.219 1.547-.828 0-.875-.47-.875-.985v-3.312l-1.468.11v.312c.78 0 .78.03.78.906v1.5c0 .781 0 1.687 1.516 1.687.563 0 1-.28 1.282-.89Zm0 0"/></symbol><symbol overflow="visible" id="v"><path style="stroke:none" d="M1.719-3.984h1.437v-.313H1.72v-1.828h-.25c0 .813-.297 1.875-1.282 1.922v.219h.844v2.75c0 1.218.938 1.343 1.297 1.343.703 0 .985-.703.985-1.343v-.563h-.25v.547c0 .734-.297 1.11-.672 1.11-.672 0-.672-.907-.672-1.079Zm0 0"/></symbol><symbol overflow="visible" id="w"><path style="stroke:none" d="M4.688-2.14c0-1.266-.985-2.329-2.188-2.329C1.25-4.469.281-3.375.281-2.14A2.22 2.22 0 0 0 2.484.11c1.204 0 2.204-.984 2.204-2.25ZM2.5-.14c-.438 0-.875-.204-1.14-.672-.25-.438-.25-1.047-.25-1.407 0-.39 0-.922.234-1.36a1.347 1.347 0 0 1 1.14-.671c.438 0 .86.219 1.125.656.266.422.266 1 .266 1.375 0 .36 0 .906-.219 1.344-.234.453-.672.734-1.156.734Zm0 0"/></symbol><symbol overflow="visible" id="m"><path style="stroke:none" d="M2.328-4.438c0-.187 0-.187-.203-.187-.453.438-1.078.438-1.36.438v.25c.157 0 .626 0 1-.188v3.547c0 .234 0 .328-.687.328H.812V0c.125 0 .985-.031 1.235-.031.219 0 1.094.031 1.25.031v-.25H3.03c-.703 0-.703-.094-.703-.328Zm0 0"/></symbol><symbol overflow="visible" id="o"><path style="stroke:none" d="M3.516-1.266H3.28c-.015.157-.094.563-.187.625-.047.047-.578.047-.688.047h-1.28c.734-.64.984-.844 1.39-1.172.516-.406 1-.843 1-1.5 0-.843-.734-1.359-1.624-1.359-.86 0-1.454.61-1.454 1.25 0 .344.297.39.376.39a.365.365 0 0 0 .359-.374c0-.125-.047-.375-.406-.375.218-.485.687-.641 1.015-.641.703 0 1.063.547 1.063 1.11 0 .609-.438 1.078-.656 1.328L.516-.266C.437-.203.437-.187.437 0h2.876Zm0 0"/></symbol><symbol overflow="visible" id="p"><path style="stroke:none" d="M1.906-2.328c.547 0 .938.375.938 1.125 0 .86-.516 1.125-.906 1.125-.282 0-.907-.078-1.188-.5.328 0 .406-.235.406-.39 0-.22-.172-.376-.39-.376a.38.38 0 0 0-.391.407C.375-.281 1.094.14 1.938.14c.968 0 1.64-.657 1.64-1.344 0-.547-.437-1.094-1.203-1.25.719-.266.984-.781.984-1.219 0-.547-.625-.953-1.406-.953-.766 0-1.36.375-1.36.938 0 .234.157.359.36.359.219 0 .36-.156.36-.344 0-.203-.141-.36-.36-.375.25-.297.719-.375.985-.375.312 0 .75.156.75.75 0 .297-.094.625-.282.828-.219.266-.422.281-.765.313-.172.015-.188.015-.22.015-.015 0-.077.016-.077.094 0 .094.062.094.187.094Zm0 0"/></symbol><symbol overflow="visible" id="q"><path style="stroke:none" d="M3.688-1.14v-.25h-.782V-4.5c0-.14 0-.203-.14-.203-.094 0-.125 0-.188.11L.266-1.392v.25h2.062v.563c0 .25 0 .328-.578.328h-.188V0c.36-.016.797-.031 1.047-.031.266 0 .704.015 1.063.031v-.25h-.188c-.578 0-.578-.078-.578-.328v-.563ZM2.375-3.939v2.547H.531Zm0 0"/></symbol><symbol overflow="visible" id="r"><path style="stroke:none" d="M1.078-3.89c.36.093.563.093.672.093.922 0 1.469-.625 1.469-.734 0-.078-.047-.094-.078-.094-.016 0-.032 0-.063.016-.172.062-.531.203-1.047.203-.203 0-.562-.016-1.015-.188-.079-.031-.094-.031-.094-.031-.094 0-.094.078-.094.188v2.046c0 .125 0 .204.11.204.062 0 .078 0 .14-.094.297-.375.734-.438.969-.438a.72.72 0 0 1 .64.39c.126.235.172.5.172.907 0 .203 0 .61-.218.922a.984.984 0 0 1-.813.422c-.453 0-.922-.25-1.094-.719.266.016.407-.156.407-.344 0-.296-.266-.343-.36-.343 0 0-.344 0-.344.375 0 .625.579 1.25 1.407 1.25.89 0 1.672-.657 1.672-1.547 0-.782-.594-1.5-1.454-1.5-.312 0-.671.062-.984.328Zm0 0"/></symbol><clipPath id="a"><path d="M6 181h40v29.29H6Zm0 0"/></clipPath><clipPath id="b"><path d="M431 181h41v29.29h-41Zm0 0"/></clipPath><clipPath id="c"><path d="M194 175h40v35.29h-40Zm0 0"/></clipPath></defs><path style="fill:none;stroke-width:.79701;stroke-linecap:butt;stroke-linejoin:miter;stroke:#000;stroke-opacity:1;stroke-miterlimit:10" d="M65.275 17.01c0 4.738-3.844 8.578-8.583 8.578a8.577 8.577 0 0 1-8.578-8.578c0-4.739 3.84-8.582 8.578-8.582a8.584 8.584 0 0 1 8.583 8.582Zm0-39.688c0 4.738-3.844 8.578-8.583 8.578a8.577 8.577 0 0 1-8.578-8.578 8.577 8.577 0 0 1 8.578-8.578c4.739 0 8.583 3.84 8.583 8.578Zm0-39.683c0 4.738-3.844 8.578-8.583 8.578a8.577 8.577 0 0 1-8.578-8.578c0-4.739 3.84-8.582 8.578-8.582a8.584 8.584 0 0 1 8.583 8.582Zm0-39.688a8.584 8.584 0 0 1-8.583 8.582c-4.738 0-8.578-3.844-8.578-8.582a8.577 8.577 0 0 1 8.578-8.578c4.739 0 8.583 3.84 8.583 8.578Zm0 0" transform="matrix(1 0 0 -1 -30.712 59.58)"/><g clip-path="url(#a)"><path style="fill:none;stroke-width:.79701;stroke-linecap:butt;stroke-linejoin:miter;stroke:#000;stroke-opacity:1;stroke-miterlimit:10" d="M65.275-141.732c0 4.738-3.844 8.578-8.583 8.578a8.577 8.577 0 0 1-8.578-8.578 8.577 8.577 0 0 1 8.578-8.579c4.739 0 8.583 3.84 8.583 8.579Zm0 0" transform="matrix(1 0 0 -1 -30.712 59.58)"/></g><path style="fill:none;stroke-width:.79701;stroke-linecap:butt;stroke-linejoin:miter;stroke:#000;stroke-opacity:1;stroke-miterlimit:10" d="M121.966 2.834a8.577 8.577 0 0 1-8.578 8.578 8.577 8.577 0 0 1-8.578-8.578 8.577 8.577 0 0 1 8.578-8.578 8.577 8.577 0 0 1 8.578 8.578Zm0-39.684a8.577 8.577 0 0 1-8.578 8.578 8.577 8.577 0 0 1-8.578-8.578 8.577 8.577 0 0 1 8.578-8.578 8.577 8.577 0 0 1 8.578 8.578Zm0-39.687c0 4.738-3.84 8.582-8.578 8.582-4.739 0-8.578-3.844-8.578-8.582a8.577 8.577 0 0 1 8.578-8.578 8.577 8.577 0 0 1 8.578 8.578Zm0-39.683a8.577 8.577 0 0 1-8.578 8.577 8.577 8.577 0 0 1-8.578-8.578 8.577 8.577 0 0 1 8.578-8.578 8.577 8.577 0 0 1 8.578 8.578Zm56.695 104.882c0 4.738-3.844 8.578-8.582 8.578a8.58 8.58 0 0 1-8.578-8.578 8.58 8.58 0 0 1 8.578-8.578c4.738 0 8.582 3.84 8.582 8.578Zm0-39.687a8.584 8.584 0 0 1-8.582 8.582 8.58 8.58 0 0 1 0-17.16c4.738 0 8.582 3.84 8.582 8.578Zm0-39.685c0 4.74-3.844 8.58-8.582 8.58a8.58 8.58 0 0 1-8.578-8.58 8.58 8.58 0 0 1 8.578-8.577c4.738 0 8.582 3.84 8.582 8.578Zm0 0" transform="matrix(1 0 0 -1 -30.712 59.58)"/><path style="fill:none;stroke-width:.3985;stroke-linecap:butt;stroke-linejoin:miter;stroke:#000;stroke-opacity:1;stroke-miterlimit:10" d="m66.368 14.588 36.899-9.223" transform="matrix(1 0 0 -1 -30.712 59.58)"/><path style="fill:none;stroke-width:.31879;stroke-linecap:round;stroke-linejoin:round;stroke:#000;stroke-opacity:1;stroke-miterlimit:10" d="M-1.196 1.594C-1.095.995-.001.1.298-.002.001-.1-1.097-.994-1.196-1.595" transform="matrix(.97012 .24252 .24252 -.97012 72.555 54.215)"/><path style="fill:none;stroke-width:.3985;stroke-linecap:butt;stroke-linejoin:miter;stroke:#000;stroke-opacity:1;stroke-miterlimit:10" d="m65.79-18.584 38.082 17.137" transform="matrix(1 0 0 -1 -30.712 59.58)"/><path style="fill:none;stroke-width:.31879;stroke-linecap:round;stroke-linejoin:round;stroke:#000;stroke-opacity:1;stroke-miterlimit:10" d="M-1.195 1.594C-1.095.997 0 .101.298.001 0-.1-1.096-.995-1.194-1.593" transform="scale(.99995 -.99995) rotate(24.227 178.754 139.93)"/><path style="fill:none;stroke-width:.3985;stroke-linecap:butt;stroke-linejoin:miter;stroke:#000;stroke-opacity:1;stroke-miterlimit:10" d="m63.24-54.838 43.3 49.8" transform="matrix(1 0 0 -1 -30.712 59.58)"/><path style="fill:none;stroke-width:.31879;stroke-linecap:round;stroke-linejoin:round;stroke:#000;stroke-opacity:1;stroke-miterlimit:10" d="M-1.194 1.594C-1.094.997 0 .1.3 0 0-.101-1.095-.997-1.195-1.596" transform="matrix(.65617 -.7546 -.7546 -.65617 75.83 64.617)"/><path style="fill:none;stroke-width:.3985;stroke-linecap:butt;stroke-linejoin:miter;stroke:#000;stroke-opacity:1;stroke-miterlimit:10" d="m61.435-93.275 46.992 86.933" transform="matrix(1 0 0 -1 -30.712 59.58)"/><path style="fill:none;stroke-width:.31879;stroke-linecap:round;stroke-linejoin:round;stroke:#000;stroke-opacity:1;stroke-miterlimit:10" d="M-1.194 1.593C-1.094.998 0 .098.296 0 0-.098-1.095-.996-1.195-1.592" transform="scale(.99993 -.99993) rotate(61.607 94.148 32.216)"/><path style="fill:none;stroke-width:.3985;stroke-linecap:butt;stroke-linejoin:miter;stroke:#000;stroke-opacity:1;stroke-miterlimit:10" d="M60.333-132.447 109.58-6.877" transform="matrix(1 0 0 -1 -30.712 59.58)"/><path style="fill:none;stroke-width:.31879;stroke-linecap:round;stroke-linejoin:round;stroke:#000;stroke-opacity:1;stroke-miterlimit:10" d="M-1.197 1.595C-1.097.997-.002.1.298 0 0-.1-1.095-.996-1.196-1.594" transform="scale(.99994 -.99994) rotate(68.587 88.161 24.595)"/><path style="fill:none;stroke-width:.3985;stroke-linecap:butt;stroke-linejoin:miter;stroke:#000;stroke-opacity:1;stroke-miterlimit:10" d="m63.923 10.139 41.902-39.805" transform="matrix(1 0 0 -1 -30.712 59.58)"/><path style="fill:none;stroke-width:.31879;stroke-linecap:round;stroke-linejoin:round;stroke:#000;stroke-opacity:1;stroke-miterlimit:10" d="M-1.196 1.595C-1.096.996-.002.1.299 0 0-.1-1.094-.996-1.195-1.593" transform="matrix(.72496 .6887 .6887 -.72496 75.112 89.246)"/><path style="fill:none;stroke-width:.3985;stroke-linecap:butt;stroke-linejoin:miter;stroke:#000;stroke-opacity:1;stroke-miterlimit:10" d="m66.368-25.096 36.899-9.226" transform="matrix(1 0 0 -1 -30.712 59.58)"/><path style="fill:none;stroke-width:.31879;stroke-linecap:round;stroke-linejoin:round;stroke:#000;stroke-opacity:1;stroke-miterlimit:10" d="M-1.196 1.596C-1.096.996-.001.099.298 0 0-.098-1.096-.997-1.196-1.593" transform="matrix(.97012 .24252 .24252 -.97012 72.555 93.9)"/><path style="fill:none;stroke-width:.3985;stroke-linecap:butt;stroke-linejoin:miter;stroke:#000;stroke-opacity:1;stroke-miterlimit:10" d="m65.79-58.272 38.082 17.141" transform="matrix(1 0 0 -1 -30.712 59.58)"/><path style="fill:none;stroke-width:.31879;stroke-linecap:round;stroke-linejoin:round;stroke:#000;stroke-opacity:1;stroke-miterlimit:10" d="M-1.196 1.592C-1.096.995 0 .1.297 0 .001-.099-1.097-.997-1.195-1.595" transform="scale(.99995 -.99995) rotate(24.227 271.21 120.086)"/><path style="fill:none;stroke-width:.3985;stroke-linecap:butt;stroke-linejoin:miter;stroke:#000;stroke-opacity:1;stroke-miterlimit:10" d="m63.24-94.522 43.3 49.801" transform="matrix(1 0 0 -1 -30.712 59.58)"/><path style="fill:none;stroke-width:.31879;stroke-linecap:round;stroke-linejoin:round;stroke:#000;stroke-opacity:1;stroke-miterlimit:10" d="M-1.196 1.592C-1.096.995-.002.1.299-.002 0-.1-1.094-.996-1.194-1.595" transform="matrix(.65617 -.7546 -.7546 -.65617 75.83 104.302)"/><path style="fill:none;stroke-width:.3985;stroke-linecap:butt;stroke-linejoin:miter;stroke:#000;stroke-opacity:1;stroke-miterlimit:10" d="m61.435-132.96 46.992 86.935" transform="matrix(1 0 0 -1 -30.712 59.58)"/><path style="fill:none;stroke-width:.31879;stroke-linecap:round;stroke-linejoin:round;stroke:#000;stroke-opacity:1;stroke-miterlimit:10" d="M-1.196 1.592C-1.096.997.002.099.298.002c-.3-.1-1.392-.997-1.496-1.595" transform="scale(.99993 -.99993) rotate(61.607 127.432 12.372)"/><path style="fill:none;stroke-width:.3985;stroke-linecap:butt;stroke-linejoin:miter;stroke:#000;stroke-opacity:1;stroke-miterlimit:10" d="m61.864 8.478 46.118-76.093" transform="matrix(1 0 0 -1 -30.712 59.58)"/><path style="fill:none;stroke-width:.31879;stroke-linecap:round;stroke-linejoin:round;stroke:#000;stroke-opacity:1;stroke-miterlimit:10" d="M-1.195 1.593C-1.095.997.002.1.3.003 0-.1-1.096-.997-1.194-1.596" transform="matrix(.51828 .85516 .85516 -.51828 77.269 127.195)"/><path style="fill:none;stroke-width:.3985;stroke-linecap:butt;stroke-linejoin:miter;stroke:#000;stroke-opacity:1;stroke-miterlimit:10" d="m63.923-29.545 41.902-39.805" transform="matrix(1 0 0 -1 -30.712 59.58)"/><path style="fill:none;stroke-width:.31879;stroke-linecap:round;stroke-linejoin:round;stroke:#000;stroke-opacity:1;stroke-miterlimit:10" d="M-1.194 1.594C-1.096.997 0 .099.298 0 0-.1-1.095-.995-1.196-1.592" transform="matrix(.72496 .6887 .6887 -.72496 75.112 128.931)"/><path style="fill:none;stroke-width:.3985;stroke-linecap:butt;stroke-linejoin:miter;stroke:#000;stroke-opacity:1;stroke-miterlimit:10" d="m66.368-64.78 36.899-9.226" transform="matrix(1 0 0 -1 -30.712 59.58)"/><path style="fill:none;stroke-width:.31879;stroke-linecap:round;stroke-linejoin:round;stroke:#000;stroke-opacity:1;stroke-miterlimit:10" d="M-1.196 1.594C-1.095.994-.001.1.298-.002.001-.1-1.097-.995-1.196-1.595" transform="matrix(.97012 .24252 .24252 -.97012 72.555 133.586)"/><path style="fill:none;stroke-width:.3985;stroke-linecap:butt;stroke-linejoin:miter;stroke:#000;stroke-opacity:1;stroke-miterlimit:10" d="m65.79-97.955 38.082 17.137" transform="matrix(1 0 0 -1 -30.712 59.58)"/><path style="fill:none;stroke-width:.31879;stroke-linecap:round;stroke-linejoin:round;stroke:#000;stroke-opacity:1;stroke-miterlimit:10" d="M-1.195 1.594C-1.095.996 0 .1.298 0 0-.101-1.097-.995-1.195-1.594" transform="scale(.99995 -.99995) rotate(24.227 363.662 100.243)"/><path style="fill:none;stroke-width:.3985;stroke-linecap:butt;stroke-linejoin:miter;stroke:#000;stroke-opacity:1;stroke-miterlimit:10" d="m63.24-134.205 43.3 49.797" transform="matrix(1 0 0 -1 -30.712 59.58)"/><path style="fill:none;stroke-width:.31879;stroke-linecap:round;stroke-linejoin:round;stroke:#000;stroke-opacity:1;stroke-miterlimit:10" d="M-1.195 1.593C-1.095.997 0 .101.3 0 0-.1-1.096-.997-1.196-1.596" transform="scale(.99999 -.99999) rotate(48.991 195.926 11.22)"/><path style="fill:none;stroke-width:.3985;stroke-linecap:butt;stroke-linejoin:miter;stroke:#000;stroke-opacity:1;stroke-miterlimit:10" d="m60.599 7.83 48.703-114.453" transform="matrix(1 0 0 -1 -30.712 59.58)"/><path style="fill:none;stroke-width:.31879;stroke-linecap:round;stroke-linejoin:round;stroke:#000;stroke-opacity:1;stroke-miterlimit:10" d="M-1.197 1.595C-1.095.995.001.1.298-.001.001-.099-1.097-.995-1.195-1.594" transform="matrix(.39154 .92014 .92014 -.39154 78.591 166.202)"/><path style="fill:none;stroke-width:.3985;stroke-linecap:butt;stroke-linejoin:miter;stroke:#000;stroke-opacity:1;stroke-miterlimit:10" d="m61.864-31.205 46.118-76.094" transform="matrix(1 0 0 -1 -30.712 59.58)"/><path style="fill:none;stroke-width:.31879;stroke-linecap:round;stroke-linejoin:round;stroke:#000;stroke-opacity:1;stroke-miterlimit:10" d="M-1.196 1.593C-1.096.998 0 .101.3.001c-.303-.1-1.396-1-1.497-1.596" transform="matrix(.51828 .85516 .85516 -.51828 77.269 166.88)"/><path style="fill:none;stroke-width:.3985;stroke-linecap:butt;stroke-linejoin:miter;stroke:#000;stroke-opacity:1;stroke-miterlimit:10" d="m63.923-69.233 41.902-39.804" transform="matrix(1 0 0 -1 -30.712 59.58)"/><path style="fill:none;stroke-width:.31879;stroke-linecap:round;stroke-linejoin:round;stroke:#000;stroke-opacity:1;stroke-miterlimit:10" d="M-1.196 1.595C-1.096.996-.002.1.299 0 0-.1-1.094-.996-1.195-1.593" transform="matrix(.72496 .6887 .6887 -.72496 75.112 168.617)"/><path style="fill:none;stroke-width:.3985;stroke-linecap:butt;stroke-linejoin:miter;stroke:#000;stroke-opacity:1;stroke-miterlimit:10" d="m66.368-104.467 36.899-9.223" transform="matrix(1 0 0 -1 -30.712 59.58)"/><path style="fill:none;stroke-width:.31879;stroke-linecap:round;stroke-linejoin:round;stroke:#000;stroke-opacity:1;stroke-miterlimit:10" d="M-1.196 1.595C-1.095.996-.001.098.298-.001 0-.099-1.096-.997-1.196-1.594" transform="matrix(.97012 .24252 .24252 -.97012 72.555 173.271)"/><path style="fill:none;stroke-width:.3985;stroke-linecap:butt;stroke-linejoin:miter;stroke:#000;stroke-opacity:1;stroke-miterlimit:10" d="m65.79-137.643 38.082 17.141" transform="matrix(1 0 0 -1 -30.712 59.58)"/><path style="fill:none;stroke-width:.31879;stroke-linecap:round;stroke-linejoin:round;stroke:#000;stroke-opacity:1;stroke-miterlimit:10" d="M-1.195 1.596C-1.097.995 0 .099.297-.001.001-.1-1.097-.997-1.195-1.595" transform="scale(.99995 -.99995) rotate(24.227 456.117 80.399)"/><path style="fill:none;stroke-width:.3985;stroke-linecap:butt;stroke-linejoin:miter;stroke:#000;stroke-opacity:1;stroke-miterlimit:10" d="m123.064.416 36.894-9.223" transform="matrix(1 0 0 -1 -30.712 59.58)"/><path style="fill:none;stroke-width:.31879;stroke-linecap:round;stroke-linejoin:round;stroke:#000;stroke-opacity:1;stroke-miterlimit:10" d="M-1.194 1.596C-1.097.996 0 .099.3 0c-.301-.099-1.398-.997-1.494-1.593" transform="matrix(.97012 .24252 .24252 -.97012 129.248 68.389)"/><path style="fill:none;stroke-width:.3985;stroke-linecap:butt;stroke-linejoin:miter;stroke:#000;stroke-opacity:1;stroke-miterlimit:10" d="m122.482-32.76 38.085 17.14" transform="matrix(1 0 0 -1 -30.712 59.58)"/><path style="fill:none;stroke-width:.31879;stroke-linecap:round;stroke-linejoin:round;stroke:#000;stroke-opacity:1;stroke-miterlimit:10" d="M-1.193 1.595C-1.095.995 0 .098.299-.002.002-.099-1.096-.997-1.194-1.596" transform="matrix(.91188 -.41034 -.41034 -.91188 129.856 75.2)"/><path style="fill:none;stroke-width:.3985;stroke-linecap:butt;stroke-linejoin:miter;stroke:#000;stroke-opacity:1;stroke-miterlimit:10" d="m119.93-69.01 43.305 49.8" transform="matrix(1 0 0 -1 -30.712 59.58)"/><path style="fill:none;stroke-width:.31879;stroke-linecap:round;stroke-linejoin:round;stroke:#000;stroke-opacity:1;stroke-miterlimit:10" d="M-1.198 1.594C-1.096.994 0 .098.297 0c-.298-.098-1.39-.997-1.493-1.593" transform="matrix(.65617 -.7546 -.7546 -.65617 132.524 78.79)"/><path style="fill:none;stroke-width:.3985;stroke-linecap:butt;stroke-linejoin:miter;stroke:#000;stroke-opacity:1;stroke-miterlimit:10" d="m118.13-107.447 46.992 86.933" transform="matrix(1 0 0 -1 -30.712 59.58)"/><path style="fill:none;stroke-width:.31879;stroke-linecap:round;stroke-linejoin:round;stroke:#000;stroke-opacity:1;stroke-miterlimit:10" d="M-1.197 1.594C-1.097.996 0 .101.299 0 .001-.098-1.094-.997-1.197-1.594" transform="scale(.99993 -.99993) rotate(61.607 134.384 72.678)"/><path style="fill:none;stroke-width:.3985;stroke-linecap:butt;stroke-linejoin:miter;stroke:#000;stroke-opacity:1;stroke-miterlimit:10" d="m120.618-4.033 41.899-39.805" transform="matrix(1 0 0 -1 -30.712 59.58)"/><path style="fill:none;stroke-width:.31879;stroke-linecap:round;stroke-linejoin:round;stroke:#000;stroke-opacity:1;stroke-miterlimit:10" d="M-1.196 1.592C-1.096.998 0 .099.299 0 .001-.1-1.097-.997-1.198-1.594" transform="matrix(.72496 .6887 .6887 -.72496 131.806 103.42)"/><path style="fill:none;stroke-width:.3985;stroke-linecap:butt;stroke-linejoin:miter;stroke:#000;stroke-opacity:1;stroke-miterlimit:10" d="m123.064-39.268 36.894-9.226" transform="matrix(1 0 0 -1 -30.712 59.58)"/><path style="fill:none;stroke-width:.31879;stroke-linecap:round;stroke-linejoin:round;stroke:#000;stroke-opacity:1;stroke-miterlimit:10" d="M-1.194 1.594C-1.097.998.001.1.3.002 0-.1-1.098-.995-1.194-1.595" transform="matrix(.97012 .24252 .24252 -.97012 129.248 108.074)"/><path style="fill:none;stroke-width:.3985;stroke-linecap:butt;stroke-linejoin:miter;stroke:#000;stroke-opacity:1;stroke-miterlimit:10" d="m122.482-72.443 38.085 17.14" transform="matrix(1 0 0 -1 -30.712 59.58)"/><path style="fill:none;stroke-width:.31879;stroke-linecap:round;stroke-linejoin:round;stroke:#000;stroke-opacity:1;stroke-miterlimit:10" d="M-1.194 1.593C-1.094.996 0 .1.299 0 .001-.1-1.096-.996-1.193-1.594" transform="scale(.99995 -.99995) rotate(24.227 332.576 245.078)"/><path style="fill:none;stroke-width:.3985;stroke-linecap:butt;stroke-linejoin:miter;stroke:#000;stroke-opacity:1;stroke-miterlimit:10" d="m119.93-108.693 43.305 49.796" transform="matrix(1 0 0 -1 -30.712 59.58)"/><path style="fill:none;stroke-width:.31879;stroke-linecap:round;stroke-linejoin:round;stroke:#000;stroke-opacity:1;stroke-miterlimit:10" d="M-1.196 1.595C-1.094.995 0 .1.298.001c-.3-.1-1.393-.999-1.496-1.595" transform="scale(.99999 -.99999) rotate(48.991 196.277 86.192)"/><path style="fill:none;stroke-width:.3985;stroke-linecap:butt;stroke-linejoin:miter;stroke:#000;stroke-opacity:1;stroke-miterlimit:10" d="m118.556-5.693 46.117-76.094" transform="matrix(1 0 0 -1 -30.712 59.58)"/><path style="fill:none;stroke-width:.31879;stroke-linecap:round;stroke-linejoin:round;stroke:#000;stroke-opacity:1;stroke-miterlimit:10" d="M-1.195 1.595C-1.096.997 0 .1.3 0c-.302-.1-1.394-.996-1.495-1.593" transform="matrix(.51828 .85516 .85516 -.51828 133.962 141.368)"/><path style="fill:none;stroke-width:.3985;stroke-linecap:butt;stroke-linejoin:miter;stroke:#000;stroke-opacity:1;stroke-miterlimit:10" d="m120.618-43.72 41.899-39.805" transform="matrix(1 0 0 -1 -30.712 59.58)"/><path style="fill:none;stroke-width:.31879;stroke-linecap:round;stroke-linejoin:round;stroke:#000;stroke-opacity:1;stroke-miterlimit:10" d="M-1.197 1.593C-1.094.996 0 .101.298.002 0-.098-1.098-.996-1.196-1.596" transform="matrix(.72496 .6887 .6887 -.72496 131.806 143.105)"/><path style="fill:none;stroke-width:.3985;stroke-linecap:butt;stroke-linejoin:miter;stroke:#000;stroke-opacity:1;stroke-miterlimit:10" d="m123.064-78.955 36.894-9.223" transform="matrix(1 0 0 -1 -30.712 59.58)"/><path style="fill:none;stroke-width:.31879;stroke-linecap:round;stroke-linejoin:round;stroke:#000;stroke-opacity:1;stroke-miterlimit:10" d="M-1.194 1.596C-1.097.996.002.099.3 0c-.301-.1-1.397-.998-1.494-1.593" transform="matrix(.97012 .24252 .24252 -.97012 129.248 147.76)"/><path style="fill:none;stroke-width:.3985;stroke-linecap:butt;stroke-linejoin:miter;stroke:#000;stroke-opacity:1;stroke-miterlimit:10" d="m122.482-112.13 38.085 17.14" transform="matrix(1 0 0 -1 -30.712 59.58)"/><path style="fill:none;stroke-width:.31879;stroke-linecap:round;stroke-linejoin:round;stroke:#000;stroke-opacity:1;stroke-miterlimit:10" d="M-1.194 1.595C-1.094.997.001.098.298-.002.002-.1-1.096-.998-1.194-1.596" transform="scale(.99995 -.99995) rotate(24.227 425.03 225.235)"/><path style="fill:none;stroke-width:.79701;stroke-linecap:butt;stroke-linejoin:miter;stroke:#000;stroke-opacity:1;stroke-miterlimit:10" d="M377.087-11.338a8.577 8.577 0 0 1-8.578 8.578 8.577 8.577 0 0 1-8.578-8.578 8.577 8.577 0 0 1 8.578-8.578 8.577 8.577 0 0 1 8.578 8.578Zm0-39.687c0 4.738-3.84 8.582-8.578 8.582-4.738 0-8.578-3.844-8.578-8.582a8.577 8.577 0 0 1 8.578-8.579 8.577 8.577 0 0 1 8.578 8.579Zm0-39.685a8.577 8.577 0 0 1-8.578 8.58 8.577 8.577 0 0 1-8.578-8.58 8.577 8.577 0 0 1 8.578-8.577 8.577 8.577 0 0 1 8.578 8.578Zm56.695 93.544c0 4.738-3.843 8.578-8.582 8.578a8.58 8.58 0 0 1-8.578-8.578 8.58 8.58 0 0 1 8.578-8.578c4.739 0 8.582 3.84 8.582 8.578Zm0-39.684c0 4.739-3.843 8.578-8.582 8.578a8.58 8.58 0 0 1-8.578-8.578 8.58 8.58 0 0 1 8.578-8.578c4.739 0 8.582 3.84 8.582 8.578Zm0-39.687a8.584 8.584 0 0 1-8.582 8.582 8.58 8.58 0 0 1 0-17.16c4.739 0 8.582 3.84 8.582 8.578Zm0-39.683c0 4.737-3.843 8.577-8.582 8.577a8.58 8.58 0 0 1-8.578-8.578 8.58 8.58 0 0 1 8.578-8.578c4.739 0 8.582 3.84 8.582 8.578Zm56.692 133.23a8.577 8.577 0 0 1-8.578 8.578 8.577 8.577 0 0 1-8.579-8.578 8.58 8.58 0 0 1 8.579-8.582c4.738 0 8.578 3.843 8.578 8.582Zm0-39.688a8.577 8.577 0 0 1-8.578 8.578 8.577 8.577 0 0 1-8.579-8.578 8.577 8.577 0 0 1 8.579-8.578 8.577 8.577 0 0 1 8.578 8.578Zm0-39.683a8.577 8.577 0 0 1-8.578 8.578 8.577 8.577 0 0 1-8.579-8.578 8.58 8.58 0 0 1 8.579-8.582c4.738 0 8.578 3.843 8.578 8.582Zm0-39.688c0 4.738-3.84 8.582-8.578 8.582-4.739 0-8.579-3.844-8.579-8.582a8.577 8.577 0 0 1 8.579-8.578 8.577 8.577 0 0 1 8.578 8.578Zm0 0" transform="matrix(1 0 0 -1 -30.712 59.58)"/><g clip-path="url(#b)"><path style="fill:none;stroke-width:.79701;stroke-linecap:butt;stroke-linejoin:miter;stroke:#000;stroke-opacity:1;stroke-miterlimit:10" d="M490.474-141.732a8.577 8.577 0 0 1-8.578 8.578 8.577 8.577 0 0 1-8.579-8.578 8.577 8.577 0 0 1 8.579-8.579 8.577 8.577 0 0 1 8.578 8.579Zm0 0" transform="matrix(1 0 0 -1 -30.712 59.58)"/></g><path style="fill:none;stroke-width:.3985;stroke-linecap:butt;stroke-linejoin:miter;stroke:#000;stroke-opacity:1;stroke-miterlimit:10" d="M378.185-8.92 415.083.307" transform="matrix(1 0 0 -1 -30.712 59.58)"/><path style="fill:none;stroke-width:.31879;stroke-linecap:round;stroke-linejoin:round;stroke:#000;stroke-opacity:1;stroke-miterlimit:10" d="M-1.195 1.593C-1.095.996 0 .098.299-.001 0-.099-1.098-.996-1.195-1.596" transform="matrix(.97012 -.24252 -.24252 -.97012 384.37 59.275)"/><path style="fill:none;stroke-width:.3985;stroke-linecap:butt;stroke-linejoin:miter;stroke:#000;stroke-opacity:1;stroke-miterlimit:10" d="M375.74-44.154 417.637-4.35" transform="matrix(1 0 0 -1 -30.712 59.58)"/><path style="fill:none;stroke-width:.31879;stroke-linecap:round;stroke-linejoin:round;stroke:#000;stroke-opacity:1;stroke-miterlimit:10" d="M-1.197 1.595C-1.096.998 0 .098.3 0 0-.1-1.094-.997-1.198-1.594" transform="matrix(.72496 -.6887 -.6887 -.72496 386.927 63.93)"/><path style="fill:none;stroke-width:.3985;stroke-linecap:butt;stroke-linejoin:miter;stroke:#000;stroke-opacity:1;stroke-miterlimit:10" d="m373.677-82.182 46.12 76.094" transform="matrix(1 0 0 -1 -30.712 59.58)"/><path style="fill:none;stroke-width:.31879;stroke-linecap:round;stroke-linejoin:round;stroke:#000;stroke-opacity:1;stroke-miterlimit:10" d="M-1.196 1.593C-1.095.997.002.1.299.001c-.3-.1-1.396-.997-1.495-1.596" transform="scale(.99996 -.99996) rotate(58.782 252.844 312.567)"/><path style="fill:none;stroke-width:.3985;stroke-linecap:butt;stroke-linejoin:miter;stroke:#000;stroke-opacity:1;stroke-miterlimit:10" d="m377.603-15.432 38.086-17.136" transform="matrix(1 0 0 -1 -30.712 59.58)"/><path style="fill:none;stroke-width:.31879;stroke-linecap:round;stroke-linejoin:round;stroke:#000;stroke-opacity:1;stroke-miterlimit:10" d="M-1.197 1.592C-1.095.995.001.101.3-.001.002-.1-1.094-.996-1.194-1.594" transform="matrix(.91188 .41034 .41034 -.91188 384.977 92.15)"/><path style="fill:none;stroke-width:.3985;stroke-linecap:butt;stroke-linejoin:miter;stroke:#000;stroke-opacity:1;stroke-miterlimit:10" d="m378.185-48.604 36.898 9.223" transform="matrix(1 0 0 -1 -30.712 59.58)"/><path style="fill:none;stroke-width:.31879;stroke-linecap:round;stroke-linejoin:round;stroke:#000;stroke-opacity:1;stroke-miterlimit:10" d="M-1.195 1.595C-1.095.998.002.1.3 0 0-.1-1.097-.995-1.195-1.594" transform="scale(.99997 -.99997) rotate(14.036 594.15 1511.76)"/><path style="fill:none;stroke-width:.3985;stroke-linecap:butt;stroke-linejoin:miter;stroke:#000;stroke-opacity:1;stroke-miterlimit:10" d="m375.74-83.842 41.898 39.809" transform="matrix(1 0 0 -1 -30.712 59.58)"/><path style="fill:none;stroke-width:.31879;stroke-linecap:round;stroke-linejoin:round;stroke:#000;stroke-opacity:1;stroke-miterlimit:10" d="M-1.196 1.596C-1.097.996.001.1.3 0 0-.101-1.096-1-1.197-1.593" transform="scale(.99994 -.99994) rotate(43.531 323.24 432.762)"/><path style="fill:none;stroke-width:.3985;stroke-linecap:butt;stroke-linejoin:miter;stroke:#000;stroke-opacity:1;stroke-miterlimit:10" d="m375.052-18.865 43.305-49.797" transform="matrix(1 0 0 -1 -30.712 59.58)"/><path style="fill:none;stroke-width:.31879;stroke-linecap:round;stroke-linejoin:round;stroke:#000;stroke-opacity:1;stroke-miterlimit:10" d="M-1.195 1.593C-1.098.996 0 .098.298-.001 0-.099-1.095-.995-1.197-1.594" transform="matrix(.65617 .7546 .7546 -.65617 387.645 128.244)"/><path style="fill:none;stroke-width:.3985;stroke-linecap:butt;stroke-linejoin:miter;stroke:#000;stroke-opacity:1;stroke-miterlimit:10" d="m377.603-55.115 38.086-17.14" transform="matrix(1 0 0 -1 -30.712 59.58)"/><path style="fill:none;stroke-width:.31879;stroke-linecap:round;stroke-linejoin:round;stroke:#000;stroke-opacity:1;stroke-miterlimit:10" d="M-1.197 1.594C-1.096.997.003.099.299 0 .001-.1-1.095-.995-1.195-1.592" transform="matrix(.91188 .41034 .41034 -.91188 384.977 131.835)"/><path style="fill:none;stroke-width:.3985;stroke-linecap:butt;stroke-linejoin:miter;stroke:#000;stroke-opacity:1;stroke-miterlimit:10" d="m378.185-88.291 36.898 9.226" transform="matrix(1 0 0 -1 -30.712 59.58)"/><path style="fill:none;stroke-width:.31879;stroke-linecap:round;stroke-linejoin:round;stroke:#000;stroke-opacity:1;stroke-miterlimit:10" d="M-1.195 1.593C-1.095.996 0 .098.299-.001 0-.1-1.098-.997-1.194-1.593" transform="scale(.99997 -.99997) rotate(14.036 755.344 1491.917)"/><path style="fill:none;stroke-width:.3985;stroke-linecap:butt;stroke-linejoin:miter;stroke:#000;stroke-opacity:1;stroke-miterlimit:10" d="m373.251-20.111 46.992-86.934" transform="matrix(1 0 0 -1 -30.712 59.58)"/><path style="fill:none;stroke-width:.31879;stroke-linecap:round;stroke-linejoin:round;stroke:#000;stroke-opacity:1;stroke-miterlimit:10" d="M-1.195 1.593C-1.095.997 0 .1.298 0c-.299-.1-1.395-.995-1.493-1.595" transform="matrix(.47548 .87965 .87965 -.47548 389.53 166.625)"/><path style="fill:none;stroke-width:.3985;stroke-linecap:butt;stroke-linejoin:miter;stroke:#000;stroke-opacity:1;stroke-miterlimit:10" d="m375.052-58.549 43.305-49.8" transform="matrix(1 0 0 -1 -30.712 59.58)"/><path style="fill:none;stroke-width:.31879;stroke-linecap:round;stroke-linejoin:round;stroke:#000;stroke-opacity:1;stroke-miterlimit:10" d="M-1.196 1.594C-1.096.994-.001.099.299-.002.002-.1-1.096-.994-1.195-1.596" transform="matrix(.65617 .7546 .7546 -.65617 387.645 167.929)"/><path style="fill:none;stroke-width:.3985;stroke-linecap:butt;stroke-linejoin:miter;stroke:#000;stroke-opacity:1;stroke-miterlimit:10" d="m377.603-94.803 38.086-17.137" transform="matrix(1 0 0 -1 -30.712 59.58)"/><path style="fill:none;stroke-width:.31879;stroke-linecap:round;stroke-linejoin:round;stroke:#000;stroke-opacity:1;stroke-miterlimit:10" d="M-1.197 1.592C-1.095.995.001.101.3 0 .002-.1-1.094-.996-1.194-1.594" transform="matrix(.91188 .41034 .41034 -.91188 384.977 171.521)"/><path style="fill:none;stroke-width:.3985;stroke-linecap:butt;stroke-linejoin:miter;stroke:#000;stroke-opacity:1;stroke-miterlimit:10" d="m434.876 5.252 36.899 9.226" transform="matrix(1 0 0 -1 -30.712 59.58)"/><path style="fill:none;stroke-width:.31879;stroke-linecap:round;stroke-linejoin:round;stroke:#000;stroke-opacity:1;stroke-miterlimit:10" d="M-1.196 1.596C-1.096.995 0 .1.298.002c-.3-.102-1.393-.997-1.494-1.595" transform="scale(.99997 -.99997) rotate(14.036 403.732 1768.967)"/><path style="fill:none;stroke-width:.3985;stroke-linecap:butt;stroke-linejoin:miter;stroke:#000;stroke-opacity:1;stroke-miterlimit:10" d="m432.435-29.983 41.898 39.805" transform="matrix(1 0 0 -1 -30.712 59.58)"/><path style="fill:none;stroke-width:.31879;stroke-linecap:round;stroke-linejoin:round;stroke:#000;stroke-opacity:1;stroke-miterlimit:10" d="M-1.197 1.593C-1.096.996 0 .101.297.001.002-.101-1.097-.996-1.195-1.593" transform="matrix(.72496 -.6887 -.6887 -.72496 443.621 49.756)"/><path style="fill:none;stroke-width:.3985;stroke-linecap:butt;stroke-linejoin:miter;stroke:#000;stroke-opacity:1;stroke-miterlimit:10" d="M430.372-68.006 476.49 8.088" transform="matrix(1 0 0 -1 -30.712 59.58)"/><path style="fill:none;stroke-width:.31879;stroke-linecap:round;stroke-linejoin:round;stroke:#000;stroke-opacity:1;stroke-miterlimit:10" d="M-1.195 1.596C-1.097.997 0 .1.3-.002.002-.1-1.094-.997-1.195-1.592" transform="scale(.99996 -.99996) rotate(58.782 268.61 369.982)"/><path style="fill:none;stroke-width:.3985;stroke-linecap:butt;stroke-linejoin:miter;stroke:#000;stroke-opacity:1;stroke-miterlimit:10" d="M429.107-107.045 477.81 7.408" transform="matrix(1 0 0 -1 -30.712 59.58)"/><path style="fill:none;stroke-width:.31879;stroke-linecap:round;stroke-linejoin:round;stroke:#000;stroke-opacity:1;stroke-miterlimit:10" d="M-1.197 1.593C-1.096.996-.001.1.299.002 0-.101-1.097-.996-1.195-1.594" transform="scale(.99998 -.99998) rotate(66.949 263.003 311.993)"/><path style="fill:none;stroke-width:.3985;stroke-linecap:butt;stroke-linejoin:miter;stroke:#000;stroke-opacity:1;stroke-miterlimit:10" d="m434.298-1.256 38.086-17.14" transform="matrix(1 0 0 -1 -30.712 59.58)"/><path style="fill:none;stroke-width:.31879;stroke-linecap:round;stroke-linejoin:round;stroke:#000;stroke-opacity:1;stroke-miterlimit:10" d="M-1.196 1.595C-1.095.998 0 .098.3.002c-.301-.101-1.398-.997-1.497-1.595" transform="matrix(.91188 .41034 .41034 -.91188 441.671 77.976)"/><path style="fill:none;stroke-width:.3985;stroke-linecap:butt;stroke-linejoin:miter;stroke:#000;stroke-opacity:1;stroke-miterlimit:10" d="m434.876-34.432 36.899 9.227" transform="matrix(1 0 0 -1 -30.712 59.58)"/><path style="fill:none;stroke-width:.31879;stroke-linecap:round;stroke-linejoin:round;stroke:#000;stroke-opacity:1;stroke-miterlimit:10" d="M-1.197 1.594C-1.097.997 0 .099.297 0 0-.099-1.095-.997-1.197-1.595" transform="scale(.99997 -.99997) rotate(14.036 564.927 1749.124)"/><path style="fill:none;stroke-width:.3985;stroke-linecap:butt;stroke-linejoin:miter;stroke:#000;stroke-opacity:1;stroke-miterlimit:10" d="m432.435-69.666 41.898 39.805" transform="matrix(1 0 0 -1 -30.712 59.58)"/><path style="fill:none;stroke-width:.31879;stroke-linecap:round;stroke-linejoin:round;stroke:#000;stroke-opacity:1;stroke-miterlimit:10" d="M-1.196 1.594C-1.095.997-.002.1.3.002 0-.102-1.096-.995-1.197-1.595" transform="scale(.99994 -.99994) rotate(43.531 333.838 510.85)"/><path style="fill:none;stroke-width:.3985;stroke-linecap:butt;stroke-linejoin:miter;stroke:#000;stroke-opacity:1;stroke-miterlimit:10" d="M430.372-107.693 476.49-31.6" transform="matrix(1 0 0 -1 -30.712 59.58)"/><path style="fill:none;stroke-width:.31879;stroke-linecap:round;stroke-linejoin:round;stroke:#000;stroke-opacity:1;stroke-miterlimit:10" d="M-1.197 1.595C-1.096.998.001.1.3-.001c-.3-.1-1.396-.997-1.497-1.592" transform="scale(.99996 -.99996) rotate(58.782 303.84 350.139)"/><path style="fill:none;stroke-width:.3985;stroke-linecap:butt;stroke-linejoin:miter;stroke:#000;stroke-opacity:1;stroke-miterlimit:10" d="m431.747-4.69 43.305-49.8" transform="matrix(1 0 0 -1 -30.712 59.58)"/><path style="fill:none;stroke-width:.31879;stroke-linecap:round;stroke-linejoin:round;stroke:#000;stroke-opacity:1;stroke-miterlimit:10" d="M-1.196 1.595C-1.096.995-.001.1.3 0 .002-.099-1.096-.998-1.195-1.594" transform="matrix(.65617 .7546 .7546 -.65617 444.339 114.07)"/><path style="fill:none;stroke-width:.3985;stroke-linecap:butt;stroke-linejoin:miter;stroke:#000;stroke-opacity:1;stroke-miterlimit:10" d="m434.298-40.943 38.086-17.137" transform="matrix(1 0 0 -1 -30.712 59.58)"/><path style="fill:none;stroke-width:.31879;stroke-linecap:round;stroke-linejoin:round;stroke:#000;stroke-opacity:1;stroke-miterlimit:10" d="M-1.196 1.593C-1.094.996 0 .1.301 0c-.302-.1-1.398-.997-1.497-1.595" transform="matrix(.91188 .41034 .41034 -.91188 441.671 117.662)"/><path style="fill:none;stroke-width:.3985;stroke-linecap:butt;stroke-linejoin:miter;stroke:#000;stroke-opacity:1;stroke-miterlimit:10" d="m434.876-74.115 36.899 9.222" transform="matrix(1 0 0 -1 -30.712 59.58)"/><path style="fill:none;stroke-width:.31879;stroke-linecap:round;stroke-linejoin:round;stroke:#000;stroke-opacity:1;stroke-miterlimit:10" d="M-1.196 1.595C-1.096.995 0 .1.298.002c-.3-.103-1.393-.997-1.494-1.596" transform="scale(.99997 -.99997) rotate(14.036 726.121 1729.28)"/><path style="fill:none;stroke-width:.3985;stroke-linecap:butt;stroke-linejoin:miter;stroke:#000;stroke-opacity:1;stroke-miterlimit:10" d="m432.435-109.354 41.898 39.805" transform="matrix(1 0 0 -1 -30.712 59.58)"/><path style="fill:none;stroke-width:.31879;stroke-linecap:round;stroke-linejoin:round;stroke:#000;stroke-opacity:1;stroke-miterlimit:10" d="M-1.194 1.596C-1.096.996-.001.1.297 0 .001-.101-1.098-.997-1.196-1.593" transform="scale(.99994 -.99994) rotate(43.531 383.538 491.007)"/><path style="fill:none;stroke-width:.3985;stroke-linecap:butt;stroke-linejoin:miter;stroke:#000;stroke-opacity:1;stroke-miterlimit:10" d="m429.946-5.94 46.989-86.933" transform="matrix(1 0 0 -1 -30.712 59.58)"/><path style="fill:none;stroke-width:.31879;stroke-linecap:round;stroke-linejoin:round;stroke:#000;stroke-opacity:1;stroke-miterlimit:10" d="M-1.196 1.595C-1.098.996-.001.101.3.001.001-.1-1.095-.995-1.196-1.593" transform="matrix(.47548 .87965 .87965 -.47548 446.224 152.451)"/><path style="fill:none;stroke-width:.3985;stroke-linecap:butt;stroke-linejoin:miter;stroke:#000;stroke-opacity:1;stroke-miterlimit:10" d="m431.747-44.377 43.305-49.8" transform="matrix(1 0 0 -1 -30.712 59.58)"/><path style="fill:none;stroke-width:.31879;stroke-linecap:round;stroke-linejoin:round;stroke:#000;stroke-opacity:1;stroke-miterlimit:10" d="M-1.195 1.594C-1.098.997.001.099.298 0 .001-.098-1.097-.997-1.196-1.593" transform="matrix(.65617 .7546 .7546 -.65617 444.339 153.756)"/><path style="fill:none;stroke-width:.3985;stroke-linecap:butt;stroke-linejoin:miter;stroke:#000;stroke-opacity:1;stroke-miterlimit:10" d="m434.298-80.627 38.086-17.14" transform="matrix(1 0 0 -1 -30.712 59.58)"/><path style="fill:none;stroke-width:.31879;stroke-linecap:round;stroke-linejoin:round;stroke:#000;stroke-opacity:1;stroke-miterlimit:10" d="M-1.196 1.594C-1.095.997 0 .098.3.002 0-.1-1.097-.996-1.197-1.593" transform="matrix(.91188 .41034 .41034 -.91188 441.671 157.347)"/><path style="fill:none;stroke-width:.3985;stroke-linecap:butt;stroke-linejoin:miter;stroke:#000;stroke-opacity:1;stroke-miterlimit:10" d="m434.876-113.803 36.899 9.227" transform="matrix(1 0 0 -1 -30.712 59.58)"/><path style="fill:none;stroke-width:.31879;stroke-linecap:round;stroke-linejoin:round;stroke:#000;stroke-opacity:1;stroke-miterlimit:10" d="M-1.197 1.593C-1.097.997 0 .098.297 0 0-.1-1.095-.997-1.197-1.596" transform="scale(.99997 -.99997) rotate(14.036 887.317 1709.437)"/><path style="fill:none;stroke-width:.3985;stroke-linecap:butt;stroke-linejoin:miter;stroke:#000;stroke-opacity:1;stroke-miterlimit:10" d="m428.845-6.451 49.242-125.57" transform="matrix(1 0 0 -1 -30.712 59.58)"/><path style="fill:none;stroke-width:.31879;stroke-linecap:round;stroke-linejoin:round;stroke:#000;stroke-opacity:1;stroke-miterlimit:10" d="M-1.197 1.593C-1.096.995.001.099.297 0 0-.097-1.097-.998-1.196-1.592" transform="scale(.99994 -.99994) rotate(-68.587 83.219 -423.82)"/><path style="fill:none;stroke-width:.3985;stroke-linecap:butt;stroke-linejoin:miter;stroke:#000;stroke-opacity:1;stroke-miterlimit:10" d="m429.946-45.623 46.989-86.934" transform="matrix(1 0 0 -1 -30.712 59.58)"/><path style="fill:none;stroke-width:.31879;stroke-linecap:round;stroke-linejoin:round;stroke:#000;stroke-opacity:1;stroke-miterlimit:10" d="M-1.195 1.594C-1.097.995.001.1.298.002 0-.098-1.094-.996-1.195-1.594" transform="scale(.99993 -.99993) rotate(-61.607 61.983 -470.32)"/><path style="fill:none;stroke-width:.3985;stroke-linecap:butt;stroke-linejoin:miter;stroke:#000;stroke-opacity:1;stroke-miterlimit:10" d="m431.747-84.06 43.305-49.801" transform="matrix(1 0 0 -1 -30.712 59.58)"/><path style="fill:none;stroke-width:.31879;stroke-linecap:round;stroke-linejoin:round;stroke:#000;stroke-opacity:1;stroke-miterlimit:10" d="M-1.196 1.595C-1.096.995 0 .1.3-.001.002-.099-1.095-.998-1.195-1.595" transform="matrix(.65617 .7546 .7546 -.65617 444.339 193.441)"/><path style="fill:none;stroke-width:.3985;stroke-linecap:butt;stroke-linejoin:miter;stroke:#000;stroke-opacity:1;stroke-miterlimit:10" d="m434.298-120.315 38.086-17.136" transform="matrix(1 0 0 -1 -30.712 59.58)"/><path style="fill:none;stroke-width:.31879;stroke-linecap:round;stroke-linejoin:round;stroke:#000;stroke-opacity:1;stroke-miterlimit:10" d="M-1.196 1.593C-1.094.996 0 .1.301 0c-.302-.1-1.398-.997-1.497-1.595" transform="matrix(.91188 .41034 .41034 -.91188 441.671 197.033)"/><path style="fill-rule:nonzero;fill:#fff200;fill-opacity:.2;stroke-width:.79701;stroke-linecap:butt;stroke-linejoin:miter;stroke:#000;stroke-opacity:1;stroke-miterlimit:10" d="M253.31-22.678a8.577 8.577 0 0 1-8.578 8.578 8.578 8.578 0 1 1 0-17.156 8.577 8.577 0 0 1 8.578 8.578Zm0 0" transform="matrix(1 0 0 -1 -30.712 59.58)"/><path style="fill-rule:nonzero;fill:#00f;fill-opacity:.1;stroke-width:.79701;stroke-linecap:butt;stroke-linejoin:miter;stroke:#000;stroke-opacity:1;stroke-miterlimit:10" d="M253.31-79.37a8.577 8.577 0 0 1-8.578 8.579 8.578 8.578 0 0 1-8.583-8.578 8.581 8.581 0 0 1 8.583-8.582c4.738 0 8.578 3.843 8.578 8.582Zm0 0" transform="matrix(1 0 0 -1 -30.712 59.58)"/><path style="fill-rule:nonzero;fill:#0f0;fill-opacity:.1;stroke-width:.79701;stroke-linecap:butt;stroke-linejoin:miter;stroke:#000;stroke-opacity:1;stroke-miterlimit:10" d="M310.001-79.37a8.577 8.577 0 0 1-8.578 8.579 8.577 8.577 0 0 1-8.578-8.578c0-4.739 3.84-8.582 8.578-8.582 4.738 0 8.578 3.843 8.578 8.582Zm0 0" transform="matrix(1 0 0 -1 -30.712 59.58)"/><path style="fill-rule:nonzero;fill:#fff200;fill-opacity:.2;stroke-width:.79701;stroke-linecap:butt;stroke-linejoin:miter;stroke:#000;stroke-opacity:1;stroke-miterlimit:10" d="M253.31 5.67a8.577 8.577 0 0 1-8.578 8.578 8.578 8.578 0 1 1 0-17.156 8.577 8.577 0 0 1 8.578 8.578Zm0 0" transform="matrix(1 0 0 -1 -30.712 59.58)"/><path style="fill-rule:nonzero;fill:#00f;fill-opacity:.1;stroke-width:.79701;stroke-linecap:butt;stroke-linejoin:miter;stroke:#000;stroke-opacity:1;stroke-miterlimit:10" d="M253.31-107.717a8.577 8.577 0 0 1-8.578 8.578 8.578 8.578 0 0 1-8.583-8.578 8.581 8.581 0 0 1 8.583-8.582c4.738 0 8.578 3.844 8.578 8.582Zm0 0" transform="matrix(1 0 0 -1 -30.712 59.58)"/><path style="fill-rule:nonzero;fill:#0f0;fill-opacity:.1;stroke-width:.79701;stroke-linecap:butt;stroke-linejoin:miter;stroke:#000;stroke-opacity:1;stroke-miterlimit:10" d="M310.001-51.025c0 4.738-3.84 8.582-8.578 8.582-4.738 0-8.578-3.844-8.578-8.582a8.577 8.577 0 0 1 8.578-8.579A8.577 8.577 0 0 1 310-51.025Zm0 0" transform="matrix(1 0 0 -1 -30.712 59.58)"/><path style="fill-rule:nonzero;fill:#fff200;fill-opacity:.2;stroke-width:.79701;stroke-linecap:butt;stroke-linejoin:miter;stroke:#000;stroke-opacity:1;stroke-miterlimit:10" d="M253.31 34.017a8.577 8.577 0 0 1-8.578 8.579 8.578 8.578 0 1 1 0-17.157 8.577 8.577 0 0 1 8.578 8.578Zm0 0" transform="matrix(1 0 0 -1 -30.712 59.58)"/><path style="stroke:none;fill-rule:nonzero;fill:#00f;fill-opacity:.1" d="M222.598 195.645a8.577 8.577 0 0 0-8.578-8.579 8.578 8.578 0 1 0 0 17.157 8.577 8.577 0 0 0 8.578-8.578Zm0 0"/><g clip-path="url(#c)"><path style="fill:none;stroke-width:.79701;stroke-linecap:butt;stroke-linejoin:miter;stroke:#000;stroke-opacity:1;stroke-miterlimit:10" d="M253.31-136.065a8.577 8.577 0 0 1-8.578 8.579 8.578 8.578 0 1 1 0-17.157 8.577 8.577 0 0 1 8.578 8.578Zm0 0" transform="matrix(1 0 0 -1 -30.712 59.58)"/></g><path style="fill-rule:nonzero;fill:#0f0;fill-opacity:.1;stroke-width:.79701;stroke-linecap:butt;stroke-linejoin:miter;stroke:#000;stroke-opacity:1;stroke-miterlimit:10" d="M310.001-22.678a8.577 8.577 0 0 1-8.578 8.578 8.577 8.577 0 0 1-8.578-8.578 8.577 8.577 0 0 1 8.578-8.578A8.577 8.577 0 0 1 310-22.678Zm0 0" transform="matrix(1 0 0 -1 -30.712 59.58)"/><path style="fill-rule:nonzero;fill:#fff200;fill-opacity:.45;stroke-width:.3985;stroke-linecap:butt;stroke-linejoin:miter;stroke:#000;stroke-opacity:.45;stroke-miterlimit:10" d="M232.43-34.975h24.598v81.29h-24.597Zm0 0" transform="matrix(1 0 0 -1 -30.712 59.58)"/><use xlink:href="#d" x="211.013" y="7.61" style="fill:#000;fill-opacity:1"/><path style="fill-rule:nonzero;fill:#00f;fill-opacity:.3;stroke-width:.3985;stroke-linecap:butt;stroke-linejoin:miter;stroke:#000;stroke-opacity:.3;stroke-miterlimit:10" d="M232.43-148.361h24.598v81.289h-24.597Zm0 0" transform="matrix(1 0 0 -1 -30.712 59.58)"/><use xlink:href="#e" x="210.989" y="122.933" style="fill:#000;fill-opacity:1"/><path style="fill-rule:nonzero;fill:#0f0;fill-opacity:.3;stroke-width:.3985;stroke-linecap:butt;stroke-linejoin:miter;stroke:#000;stroke-opacity:.3;stroke-miterlimit:10" d="M289.126-91.67h24.594v81.29h-24.594Zm0 0" transform="matrix(1 0 0 -1 -30.712 59.58)"/><g style="fill:#000;fill-opacity:1"><use xlink:href="#f" x="255.736" y="64.303"/><use xlink:href="#g" x="259.665" y="64.303"/><use xlink:href="#h" x="264.647" y="64.303"/><use xlink:href="#i" x="272.948" y="64.303"/><use xlink:href="#j" x="278.484" y="64.303"/><use xlink:href="#k" x="281.251" y="64.303"/></g><path style="fill:none;stroke-width:.3985;stroke-linecap:butt;stroke-linejoin:miter;stroke:#000;stroke-opacity:1;stroke-miterlimit:10" d="m257.712-106.85 30.504 54.555" transform="matrix(1 0 0 -1 -30.712 59.58)"/><path style="fill:none;stroke-width:.31879;stroke-linecap:round;stroke-linejoin:round;stroke:#000;stroke-opacity:1;stroke-miterlimit:10" d="M-1.196 1.592C-1.095.995.001.099.298 0 0-.1-1.096-.997-1.196-1.595" transform="matrix(.488 -.87279 -.87279 -.488 257.504 111.873)"/><path style="fill:none;stroke-width:.3985;stroke-linecap:butt;stroke-linejoin:miter;stroke:#000;stroke-opacity:1;stroke-miterlimit:10" d="m257.712 4.799 30.504-54.555" transform="matrix(1 0 0 -1 -30.712 59.58)"/><path style="fill:none;stroke-width:.31879;stroke-linecap:round;stroke-linejoin:round;stroke:#000;stroke-opacity:1;stroke-miterlimit:10" d="M-1.196 1.595C-1.096.998-.001.1.297 0 0-.1-1.096-.994-1.193-1.593" transform="matrix(.488 .87279 .87279 -.488 257.504 109.334)"/><path style="fill:none;stroke-width:.3985;stroke-linecap:butt;stroke-linejoin:miter;stroke:#000;stroke-opacity:1;stroke-miterlimit:10" d="m179.942-12.838 54.473-8.273" transform="matrix(1 0 0 -1 -30.712 59.58)"/><path style="fill:none;stroke-width:.31879;stroke-linecap:round;stroke-linejoin:round;stroke:#000;stroke-opacity:1;stroke-miterlimit:10" d="M-1.196 1.596C-1.096.994 0 .098.3 0 0-.1-1.093-.998-1.196-1.594" transform="matrix(.9886 .15016 .15016 -.9886 203.704 80.69)"/><path style="fill:none;stroke-width:.3985;stroke-linecap:butt;stroke-linejoin:miter;stroke:#000;stroke-opacity:1;stroke-miterlimit:10" d="m177.45-18.057 59.57-54.289" transform="matrix(1 0 0 -1 -30.712 59.58)"/><path style="fill:none;stroke-width:.31879;stroke-linecap:round;stroke-linejoin:round;stroke:#000;stroke-opacity:1;stroke-miterlimit:10" d="M-1.194 1.595C-1.097.995.001.099.297-.001 0-.097-1.095-.995-1.195-1.593" transform="matrix(.73906 .67355 .67355 -.73906 206.308 131.924)"/><path style="fill:none;stroke-width:.3985;stroke-linecap:butt;stroke-linejoin:miter;stroke:#000;stroke-opacity:1;stroke-miterlimit:10" d="m308.427-72.268 52.758 53.5" transform="matrix(1 0 0 -1 -30.712 59.58)"/><path style="fill:none;stroke-width:.31879;stroke-linecap:round;stroke-linejoin:round;stroke:#000;stroke-opacity:1;stroke-miterlimit:10" d="M-1.197 1.595C-1.096.998 0 .098.301 0c-.302-.1-1.397-.993-1.495-1.594" transform="matrix(.70209 -.712 -.712 -.70209 330.472 78.346)"/><path style="fill:none;stroke-width:.3985;stroke-linecap:butt;stroke-linejoin:miter;stroke:#000;stroke-opacity:1;stroke-miterlimit:10" d="M179.806-9.123 234.56 3.353" transform="matrix(1 0 0 -1 -30.712 59.58)"/><path style="fill:none;stroke-width:.31879;stroke-linecap:round;stroke-linejoin:round;stroke:#000;stroke-opacity:1;stroke-miterlimit:10" d="M-1.194 1.595C-1.094.995 0 .101.297.001c-.299-.1-1.393-.997-1.493-1.595" transform="scale(.99994 -.99994) rotate(12.834 351.907 878.154)"/><path style="fill:none;stroke-width:.3985;stroke-linecap:butt;stroke-linejoin:miter;stroke:#000;stroke-opacity:1;stroke-miterlimit:10" d="M176.189-19.225 238.34-99.47" transform="matrix(1 0 0 -1 -30.712 59.58)"/><path style="fill:none;stroke-width:.31879;stroke-linecap:round;stroke-linejoin:round;stroke:#000;stroke-opacity:1;stroke-miterlimit:10" d="M-1.197 1.593C-1.096.996-.002.099.297 0 .001-.101-1.096-.995-1.196-1.595" transform="matrix(.61232 .79056 .79056 -.61232 207.63 159.05)"/><path style="fill:none;stroke-width:.3985;stroke-linecap:butt;stroke-linejoin:miter;stroke:#000;stroke-opacity:1;stroke-miterlimit:10" d="m310.61-75.49 48.29 20.406" transform="matrix(1 0 0 -1 -30.712 59.58)"/><path style="fill:none;stroke-width:.31879;stroke-linecap:round;stroke-linejoin:round;stroke:#000;stroke-opacity:1;stroke-miterlimit:10" d="M-1.197 1.596C-1.097.998 0 .098.301 0 0-.098-1.096-.996-1.196-1.594" transform="scale(.99996 -.99996) rotate(22.906 447.1 752.657)"/><path style="fill:none;stroke-width:.3985;stroke-linecap:butt;stroke-linejoin:miter;stroke:#000;stroke-opacity:1;stroke-miterlimit:10" d="m178.603-6.158 57.21 34.758" transform="matrix(1 0 0 -1 -30.712 59.58)"/><path style="fill:none;stroke-width:.31879;stroke-linecap:round;stroke-linejoin:round;stroke:#000;stroke-opacity:1;stroke-miterlimit:10" d="M-1.194 1.594C-1.097.994 0 .1.297 0c-.299-.1-1.391-.995-1.493-1.59" transform="scale(.99994 -.99994) rotate(31.283 157.885 350.807)"/><path style="fill:none;stroke-width:.3985;stroke-linecap:butt;stroke-linejoin:miter;stroke:#000;stroke-opacity:1;stroke-miterlimit:10" d="m175.204-19.897 64.168-107.214" transform="matrix(1 0 0 -1 -30.712 59.58)"/><path style="fill:none;stroke-width:.31879;stroke-linecap:round;stroke-linejoin:round;stroke:#000;stroke-opacity:1;stroke-miterlimit:10" d="M-1.196 1.595C-1.094.997-.001.1.298-.001.002-.1-1.095-.997-1.196-1.592" transform="matrix(.51353 .85803 .85803 -.51353 208.66 186.693)"/><path style="fill:none;stroke-width:.3985;stroke-linecap:butt;stroke-linejoin:miter;stroke:#000;stroke-opacity:1;stroke-miterlimit:10" d="m311.259-81.033 46.965-7.938" transform="matrix(1 0 0 -1 -30.712 59.58)"/><path style="fill:none;stroke-width:.31879;stroke-linecap:round;stroke-linejoin:round;stroke:#000;stroke-opacity:1;stroke-miterlimit:10" d="M-1.196 1.593C-1.095.996 0 .099.298-.001.002-.099-1.095-.997-1.196-1.593" transform="matrix(.98596 .16663 .16663 -.98596 327.511 148.551)"/><path style="fill:none;stroke-width:.3985;stroke-linecap:butt;stroke-linejoin:miter;stroke:#000;stroke-opacity:1;stroke-miterlimit:10" d="m179.403-47.483 55.575 21.102" transform="matrix(1 0 0 -1 -30.712 59.58)"/><path style="fill:none;stroke-width:.31879;stroke-linecap:round;stroke-linejoin:round;stroke:#000;stroke-opacity:1;stroke-miterlimit:10" d="M-1.195 1.594C-1.096.996 0 .099.297-.001 0-.1-1.097-.997-1.194-1.595" transform="scale(.99993 -.99993) rotate(20.794 336.408 513.7)"/><path style="fill:none;stroke-width:.3985;stroke-linecap:butt;stroke-linejoin:miter;stroke:#000;stroke-opacity:1;stroke-miterlimit:10" d="m179.403-54.565 55.575-21.101" transform="matrix(1 0 0 -1 -30.712 59.58)"/><path style="fill:none;stroke-width:.31879;stroke-linecap:round;stroke-linejoin:round;stroke:#000;stroke-opacity:1;stroke-miterlimit:10" d="M-1.194 1.595C-1.097.997 0 .098.298-.002.001-.1-1.096-.996-1.195-1.593" transform="matrix(.93481 .35498 .35498 -.93481 204.265 135.248)"/><path style="fill:none;stroke-width:.3985;stroke-linecap:butt;stroke-linejoin:miter;stroke:#000;stroke-opacity:1;stroke-miterlimit:10" d="m310.009-45.947 49.523 29.297" transform="matrix(1 0 0 -1 -30.712 59.58)"/><path style="fill:none;stroke-width:.31879;stroke-linecap:round;stroke-linejoin:round;stroke:#000;stroke-opacity:1;stroke-miterlimit:10" d="M-1.193 1.595C-1.097.998.001.099.3-.001c-.3-.1-1.396-.995-1.496-1.594" transform="scale(.99994 -.99994) rotate(30.607 303.717 562.75)"/><path style="fill:none;stroke-width:.3985;stroke-linecap:butt;stroke-linejoin:miter;stroke:#000;stroke-opacity:1;stroke-miterlimit:10" d="M178.024-44.99 236.423-.64" transform="matrix(1 0 0 -1 -30.712 59.58)"/><path style="fill:none;stroke-width:.31879;stroke-linecap:round;stroke-linejoin:round;stroke:#000;stroke-opacity:1;stroke-miterlimit:10" d="M-1.195 1.596C-1.097.996-.001.1.3-.001c-.302-.1-1.395-.996-1.494-1.593" transform="matrix(.79634 -.6048 -.6048 -.79634 205.71 60.22)"/><path style="fill:none;stroke-width:.3985;stroke-linecap:butt;stroke-linejoin:miter;stroke:#000;stroke-opacity:1;stroke-miterlimit:10" d="m178.024-57.057 58.399-44.351" transform="matrix(1 0 0 -1 -30.712 59.58)"/><path style="fill:none;stroke-width:.31879;stroke-linecap:round;stroke-linejoin:round;stroke:#000;stroke-opacity:1;stroke-miterlimit:10" d="M-1.195 1.594C-1.095.998 0 .098.3.001c-.3-.1-1.396-.996-1.495-1.596" transform="matrix(.79634 .6048 .6048 -.79634 205.71 160.988)"/><path style="fill:none;stroke-width:.3985;stroke-linecap:butt;stroke-linejoin:miter;stroke:#000;stroke-opacity:1;stroke-miterlimit:10" d="M311.396-51.025h46.68" transform="matrix(1 0 0 -1 -30.712 59.58)"/><path style="fill:none;stroke-width:.31879;stroke-linecap:round;stroke-linejoin:round;stroke:#000;stroke-opacity:1;stroke-miterlimit:10" d="M-1.197 1.592C-1.095.995-.002.1.299-.002 0-.099-1.095-.998-1.197-1.595" transform="matrix(1 0 0 -1 327.365 110.604)"/><path style="fill:none;stroke-width:.3985;stroke-linecap:butt;stroke-linejoin:miter;stroke:#000;stroke-opacity:1;stroke-miterlimit:10" d="m176.661-43.53 61.188 69.708" transform="matrix(1 0 0 -1 -30.712 59.58)"/><path style="fill:none;stroke-width:.31879;stroke-linecap:round;stroke-linejoin:round;stroke:#000;stroke-opacity:1;stroke-miterlimit:10" d="M-1.196 1.595C-1.096.996.002.1.297 0 0-.1-1.096-.994-1.193-1.594" transform="scale(.99997 -.99997) rotate(48.724 140.457 212.025)"/><path style="fill:none;stroke-width:.3985;stroke-linecap:butt;stroke-linejoin:miter;stroke:#000;stroke-opacity:1;stroke-miterlimit:10" d="m176.661-58.518 61.188-69.707" transform="matrix(1 0 0 -1 -30.712 59.58)"/><path style="fill:none;stroke-width:.31879;stroke-linecap:round;stroke-linejoin:round;stroke:#000;stroke-opacity:1;stroke-miterlimit:10" d="M-1.194 1.595C-1.097.995-.001.1.299-.002.001-.099-1.098-.995-1.197-1.594" transform="matrix(.65967 .75151 .75151 -.65967 207.136 187.805)"/><path style="fill:none;stroke-width:.3985;stroke-linecap:butt;stroke-linejoin:miter;stroke:#000;stroke-opacity:1;stroke-miterlimit:10" d="m310.009-56.104 49.523-29.293" transform="matrix(1 0 0 -1 -30.712 59.58)"/><path style="fill:none;stroke-width:.31879;stroke-linecap:round;stroke-linejoin:round;stroke:#000;stroke-opacity:1;stroke-miterlimit:10" d="M-1.196 1.595C-1.096.996 0 .102.3.002c-.3-.1-1.397-.999-1.493-1.596" transform="matrix(.86063 .50912 .50912 -.86063 328.819 144.978)"/><path style="fill:none;stroke-width:.3985;stroke-linecap:butt;stroke-linejoin:miter;stroke:#000;stroke-opacity:1;stroke-miterlimit:10" d="m177.45-83.99 59.57 54.285" transform="matrix(1 0 0 -1 -30.712 59.58)"/><path style="fill:none;stroke-width:.31879;stroke-linecap:round;stroke-linejoin:round;stroke:#000;stroke-opacity:1;stroke-miterlimit:10" d="M-1.195 1.594C-1.095.996 0 .098.298 0 0-.099-1.097-.995-1.193-1.594" transform="scale(.99994 -.99994) rotate(42.345 218.425 221.699)"/><path style="fill:none;stroke-width:.3985;stroke-linecap:butt;stroke-linejoin:miter;stroke:#000;stroke-opacity:1;stroke-miterlimit:10" d="m179.942-89.213 54.473 8.277" transform="matrix(1 0 0 -1 -30.712 59.58)"/><path style="fill:none;stroke-width:.31879;stroke-linecap:round;stroke-linejoin:round;stroke:#000;stroke-opacity:1;stroke-miterlimit:10" d="M-1.197 1.594C-1.094.997-.001.1.299-.001 0-.1-1.097-.998-1.195-1.595" transform="matrix(.9886 -.15016 -.15016 -.9886 203.704 140.517)"/><path style="fill:none;stroke-width:.3985;stroke-linecap:butt;stroke-linejoin:miter;stroke:#000;stroke-opacity:1;stroke-miterlimit:10" d="m311.259-21.014 46.965 7.938" transform="matrix(1 0 0 -1 -30.712 59.58)"/><path style="fill:none;stroke-width:.31879;stroke-linecap:round;stroke-linejoin:round;stroke:#000;stroke-opacity:1;stroke-miterlimit:10" d="M-1.196 1.593C-1.094.998.002.1.298.002 0-.098-1.095-.995-1.195-1.592" transform="scale(.99994 -.99994) rotate(9.593 596.753 1915.427)"/><path style="fill:none;stroke-width:.3985;stroke-linecap:butt;stroke-linejoin:miter;stroke:#000;stroke-opacity:1;stroke-miterlimit:10" d="m176.189-82.826 62.152 80.25" transform="matrix(1 0 0 -1 -30.712 59.58)"/><path style="fill:none;stroke-width:.31879;stroke-linecap:round;stroke-linejoin:round;stroke:#000;stroke-opacity:1;stroke-miterlimit:10" d="M-1.195 1.596C-1.095.996-.001.099.298 0c-.3-.098-1.393-.995-1.494-1.592" transform="scale(.99996 -.99996) rotate(52.241 167.204 180.65)"/><path style="fill:none;stroke-width:.3985;stroke-linecap:butt;stroke-linejoin:miter;stroke:#000;stroke-opacity:1;stroke-miterlimit:10" d="M179.806-92.924 234.56-105.4" transform="matrix(1 0 0 -1 -30.712 59.58)"/><path style="fill:none;stroke-width:.31879;stroke-linecap:round;stroke-linejoin:round;stroke:#000;stroke-opacity:1;stroke-miterlimit:10" d="M-1.196 1.594C-1.096.996-.002.1.297 0 0-.1-1.095-.995-1.195-1.595" transform="matrix(.97496 .22212 .22212 -.97496 203.847 164.98)"/><path style="fill:none;stroke-width:.3985;stroke-linecap:butt;stroke-linejoin:miter;stroke:#000;stroke-opacity:1;stroke-miterlimit:10" d="m310.61-26.56 48.29-20.403" transform="matrix(1 0 0 -1 -30.712 59.58)"/><path style="fill:none;stroke-width:.31879;stroke-linecap:round;stroke-linejoin:round;stroke:#000;stroke-opacity:1;stroke-miterlimit:10" d="M-1.196 1.595C-1.096.997 0 .098.3 0 0-.1-1.097-.997-1.197-1.595" transform="matrix(.92111 .3892 .3892 -.92111 328.188 106.544)"/><path style="fill:none;stroke-width:.3985;stroke-linecap:butt;stroke-linejoin:miter;stroke:#000;stroke-opacity:1;stroke-miterlimit:10" d="m175.204-82.15 64.168 107.214" transform="matrix(1 0 0 -1 -30.712 59.58)"/><path style="fill:none;stroke-width:.31879;stroke-linecap:round;stroke-linejoin:round;stroke:#000;stroke-opacity:1;stroke-miterlimit:10" d="M-1.196 1.592C-1.094.997 0 .1.3.001 0-.101-1.093-.996-1.195-1.595" transform="scale(.99996 -.99996) rotate(59.1 134.775 166.778)"/><path style="fill:none;stroke-width:.3985;stroke-linecap:butt;stroke-linejoin:miter;stroke:#000;stroke-opacity:1;stroke-miterlimit:10" d="m178.603-95.889 57.21-34.758" transform="matrix(1 0 0 -1 -30.712 59.58)"/><path style="fill:none;stroke-width:.31879;stroke-linecap:round;stroke-linejoin:round;stroke:#000;stroke-opacity:1;stroke-miterlimit:10" d="M-1.196 1.592C-1.095.996 0 .097.297 0 0-.099-1.095-.997-1.195-1.593" transform="matrix(.85457 .51923 .51923 -.85457 205.102 190.228)"/><path style="fill:none;stroke-width:.3985;stroke-linecap:butt;stroke-linejoin:miter;stroke:#000;stroke-opacity:1;stroke-miterlimit:10" d="m308.427-29.78 52.758-53.503" transform="matrix(1 0 0 -1 -30.712 59.58)"/><path style="fill:none;stroke-width:.31879;stroke-linecap:round;stroke-linejoin:round;stroke:#000;stroke-opacity:1;stroke-miterlimit:10" d="M-1.195 1.596C-1.096.994.001.099.3 0 0-.097-1.096-.997-1.197-1.595" transform="matrix(.70209 .712 .712 -.70209 330.472 142.862)"/><use xlink:href="#l" x="3.32" y="43.97" style="fill:#000;fill-opacity:1"/><use xlink:href="#m" x="9.014" y="45.464" style="fill:#000;fill-opacity:1"/><use xlink:href="#n" x="464.308" y="45.284" style="fill:#000;fill-opacity:1"/><use xlink:href="#l" x="463.675" y="45.284" style="fill:#000;fill-opacity:1"/><use xlink:href="#m" x="469.369" y="46.778" style="fill:#000;fill-opacity:1"/><use xlink:href="#l" x="3.32" y="83.654" style="fill:#000;fill-opacity:1"/><use xlink:href="#o" x="9.014" y="85.149" style="fill:#000;fill-opacity:1"/><use xlink:href="#n" x="464.308" y="84.969" style="fill:#000;fill-opacity:1"/><use xlink:href="#l" x="463.675" y="84.969" style="fill:#000;fill-opacity:1"/><use xlink:href="#o" x="469.369" y="86.463" style="fill:#000;fill-opacity:1"/><use xlink:href="#l" x="3.32" y="123.339" style="fill:#000;fill-opacity:1"/><use xlink:href="#p" x="9.014" y="124.834" style="fill:#000;fill-opacity:1"/><use xlink:href="#n" x="464.308" y="124.654" style="fill:#000;fill-opacity:1"/><use xlink:href="#l" x="463.675" y="124.654" style="fill:#000;fill-opacity:1"/><use xlink:href="#p" x="469.369" y="126.148" style="fill:#000;fill-opacity:1"/><use xlink:href="#l" x="3.32" y="163.024" style="fill:#000;fill-opacity:1"/><use xlink:href="#q" x="9.014" y="164.518" style="fill:#000;fill-opacity:1"/><use xlink:href="#n" x="464.308" y="164.339" style="fill:#000;fill-opacity:1"/><use xlink:href="#l" x="463.675" y="164.339" style="fill:#000;fill-opacity:1"/><use xlink:href="#q" x="469.369" y="165.833" style="fill:#000;fill-opacity:1"/><use xlink:href="#l" x="3.32" y="202.709" style="fill:#000;fill-opacity:1"/><use xlink:href="#r" x="9.014" y="204.203" style="fill:#000;fill-opacity:1"/><use xlink:href="#n" x="464.308" y="204.023" style="fill:#000;fill-opacity:1"/><use xlink:href="#l" x="463.675" y="204.023" style="fill:#000;fill-opacity:1"/><use xlink:href="#r" x="469.369" y="205.518" style="fill:#000;fill-opacity:1"/><g style="fill:#000;fill-opacity:1"><use xlink:href="#s" x="14.358" y="25.303"/><use xlink:href="#t" x="17.126" y="25.303"/><use xlink:href="#i" x="22.661" y="25.303"/><use xlink:href="#u" x="28.196" y="25.303"/><use xlink:href="#v" x="33.731" y="25.303"/></g><g style="fill:#000;fill-opacity:1"><use xlink:href="#w" x="436.51" y="25.303"/><use xlink:href="#u" x="441.491" y="25.303"/><use xlink:href="#v" x="447.027" y="25.303"/><use xlink:href="#i" x="450.901" y="25.303"/><use xlink:href="#u" x="456.436" y="25.303"/><use xlink:href="#v" x="461.971" y="25.303"/></g></svg>