<svg xmlns="http://www.w3.org/2000/svg" xmlns:xlink="http://www.w3.org/1999/xlink" width="636.213" height="280.387" viewBox="0 0 477.16 210.29"><defs><symbol overflow="visible" id="d"><path d="M2.297-3.5c.062-.203.156-.594.156-.64 0-.173-.125-.266-.297-.266-.015 0-.297.015-.39.36L.328 1.718c-.031.125-.031.14-.031.172 0 .14.11.265.281.265.203 0 .328-.187.344-.219.047-.078.172-.609.547-2.14.328.266.781.312.968.312.704 0 1.094-.453 1.329-.734a.904.904 0 00.906.734c.344 0 .578-.234.734-.546.172-.36.297-.97.297-.985 0-.11-.094-.11-.125-.11-.094 0-.11.048-.14.188-.157.64-.344 1.235-.75 1.235-.266 0-.297-.266-.297-.454 0-.218.109-.687.187-1.046l.281-1.079c.032-.14.141-.515.172-.671.047-.235.157-.61.157-.672 0-.172-.141-.266-.297-.266-.047 0-.313.016-.391.344l-.469 1.875c-.11.5-.218.906-.25 1.015-.015.047-.484.954-1.297.954-.5 0-.734-.329-.734-.875 0-.282.063-.563.14-.844zm0 0"/></symbol><symbol overflow="visible" id="e"><path d="M5.156-3.719c.14 0 .5 0 .5-.344 0-.234-.218-.234-.39-.234H2.984c-1.5 0-2.609 1.64-2.609 2.828C.375-.594.969.11 1.875.11c1.172 0 2.5-1.203 2.5-2.734 0-.172 0-.656-.313-1.094zM1.891-.109C1.39-.11 1-.47 1-1.188c0-.296.11-1.109.469-1.703.422-.687 1.015-.828 1.36-.828.827 0 .905.656.905.969 0 .469-.203 1.281-.53 1.797-.392.578-.938.844-1.313.844zm0 0"/></symbol><symbol overflow="visible" id="l"><path d="M3.328-3.016c.063-.25.297-1.171.985-1.171.046 0 .296 0 .5.125a.578.578 0 00-.47.546c0 .157.11.344.376.344a.546.546 0 00.531-.578c0-.516-.578-.656-.922-.656-.578 0-.922.531-1.047.75-.25-.656-.781-.75-1.078-.75-1.031 0-1.61 1.281-1.61 1.531 0 .11.11.11.126.11.078 0 .11-.032.125-.11.344-1.063 1-1.313 1.344-1.313.187 0 .53.094.53.672 0 .313-.171.97-.53 2.375-.157.61-.516 1.032-.954 1.032-.062 0-.28 0-.5-.125.25-.063.47-.266.47-.547 0-.266-.22-.344-.36-.344-.313 0-.547.25-.547.578 0 .453.484.656.922.656.672 0 1.031-.703 1.047-.75.125.36.484.75 1.078.75 1.031 0 1.594-1.28 1.594-1.53 0-.11-.079-.11-.11-.11-.094 0-.11.047-.14.11-.329 1.077-1 1.312-1.313 1.312-.39 0-.547-.313-.547-.657 0-.218.047-.437.156-.875zm0 0"/></symbol><symbol overflow="visible" id="f"><path d="M2.078-1.938c.219.047 1.031.204 1.031.922 0 .5-.343.907-1.125.907-.843 0-1.203-.563-1.39-1.422-.031-.125-.031-.157-.14-.157-.126 0-.126.063-.126.235v1.328c0 .172 0 .234.11.234C.483.11.5.094.688-.094.703-.109.703-.125.89-.312c.437.406.89.421 1.093.421 1.141 0 1.61-.671 1.61-1.39 0-.516-.297-.828-.422-.938-.328-.328-.719-.406-1.14-.484-.563-.11-1.22-.235-1.22-.813 0-.359.25-.765 1.11-.765 1.094 0 1.156.906 1.172 1.203 0 .094.094.094.11.094.14 0 .14-.047.14-.235v-1.015c0-.157 0-.235-.11-.235-.046 0-.078 0-.203.125-.031.032-.125.125-.172.157-.375-.282-.78-.282-.937-.282-1.219 0-1.594.672-1.594 1.235 0 .343.156.625.422.843.328.25.61.313 1.328.454zm0 0"/></symbol><symbol overflow="visible" id="g"><path d="M3.313-.75c.046.39.312.813.78.813.22 0 .829-.141.829-.954v-.562h-.25v.562c0 .579-.25.641-.36.641-.328 0-.375-.453-.375-.5v-1.984c0-.422 0-.813-.359-1.188-.39-.39-.89-.547-1.36-.547-.827 0-1.515.469-1.515 1.125 0 .297.203.469.469.469a.435.435 0 00.453-.453c0-.125-.047-.453-.516-.453.282-.36.766-.469 1.079-.469.5 0 1.062.39 1.062 1.281v.36c-.516.03-1.203.062-1.828.359-.75.344-1 .86-1 1.297 0 .812.969 1.062 1.594 1.062.656 0 1.109-.406 1.296-.859zM3.25-2.39v1c0 .937-.719 1.28-1.172 1.28-.484 0-.89-.343-.89-.843 0-.547.421-1.375 2.062-1.438zm0 0"/></symbol><symbol overflow="visible" id="h"><path d="M1.094-3.422V-.75c0 .438-.11.438-.782.438V0c.36-.016.86-.031 1.141-.031.25 0 .766.015 1.11.031v-.313c-.672 0-.782 0-.782-.437v-1.844c0-1.031.719-1.594 1.344-1.594.64 0 .75.532.75 1.11V-.75c0 .438-.11.438-.781.438V0c.344-.016.86-.031 1.125-.031.25 0 .781.015 1.11.031v-.313c-.657 0-.766 0-.766-.437v-1.844c0-1.031.703-1.594 1.343-1.594.625 0 .735.532.735 1.11V-.75c0 .438-.11.438-.782.438V0c.344-.016.86-.031 1.125-.031.266 0 .782.015 1.125.031v-.313c-.515 0-.765 0-.78-.296v-1.907c0-.859 0-1.156-.313-1.515-.141-.172-.47-.375-1.047-.375-.828 0-1.282.593-1.438.984-.14-.875-.875-.984-1.328-.984-.734 0-1.203.422-1.484 1.047v-1.047l-1.407.11v.312c.704 0 .782.062.782.562zm0 0"/></symbol><symbol overflow="visible" id="i"><path d="M1.719-3.75v-.656l-1.438.11v.312c.703 0 .781.062.781.5v4.656c0 .453-.109.453-.78.453v.313c.343-.016.859-.032 1.109-.032.28 0 .78.016 1.125.032v-.313c-.657 0-.766 0-.766-.453V-.594c.047.172.469.703 1.219.703 1.187 0 2.219-.984 2.219-2.265 0-1.266-.954-2.25-2.079-2.25-.78 0-1.203.437-1.39.656zm.031 2.61v-2.22c.281-.515.766-.796 1.281-.796.735 0 1.328.875 1.328 2C4.36-.953 3.672-.11 2.938-.11c-.407 0-.782-.204-1.047-.61-.141-.203-.141-.219-.141-.422zm0 0"/></symbol><symbol overflow="visible" id="j"><path d="M1.766-6.922l-1.438.11v.312c.703 0 .781.063.781.563V-.75c0 .438-.109.438-.78.438V0c.327-.016.859-.031 1.109-.031s.734.015 1.109.031v-.313c-.672 0-.781 0-.781-.437zm0 0"/></symbol><symbol overflow="visible" id="k"><path d="M1.11-2.516C1.171-4 2.015-4.25 2.36-4.25c1.015 0 1.124 1.344 1.124 1.734zm0 .22h2.78c.22 0 .25 0 .25-.22 0-.984-.546-1.953-1.78-1.953C1.202-4.469.28-3.437.28-2.187.281-.86 1.328.108 2.47.108 3.688.11 4.14-1 4.14-1.187c0-.094-.079-.125-.141-.125-.078 0-.11.062-.125.14C3.531-.14 2.625-.14 2.531-.14c-.5 0-.89-.296-1.125-.671-.297-.47-.297-1.125-.297-1.485zm0 0"/></symbol><symbol overflow="visible" id="n"><path d="M2.5-6.922l-1.344 1.36.172.171L2.5-6.406l1.14 1.015.172-.171zm0 0"/></symbol><symbol overflow="visible" id="s"><path d="M1.766-4.406l-1.391.11v.312c.64 0 .734.062.734.546V-.75c0 .438-.109.438-.78.438V0c.312-.016.859-.031 1.093-.031.36 0 .703.015 1.047.031v-.313c-.672 0-.703-.046-.703-.437zm.03-1.735a.514.514 0 00-.515-.53.537.537 0 00-.531.53c0 .266.219.532.531.532a.514.514 0 00.516-.532zm0 0"/></symbol><symbol overflow="visible" id="t"><path d="M1.094-3.422V-.75c0 .438-.11.438-.782.438V0c.36-.016.86-.031 1.141-.031.25 0 .766.015 1.11.031v-.313c-.672 0-.782 0-.782-.437v-1.844c0-1.031.719-1.594 1.344-1.594.64 0 .75.532.75 1.11V-.75c0 .438-.11.438-.781.438V0c.344-.016.86-.031 1.125-.031.25 0 .781.015 1.11.031v-.313c-.516 0-.766 0-.766-.296v-1.907c0-.859 0-1.156-.313-1.515-.14-.172-.469-.375-1.047-.375-.734 0-1.203.422-1.484 1.047v-1.047l-1.407.11v.312c.704 0 .782.062.782.562zm0 0"/></symbol><symbol overflow="visible" id="u"><path d="M3.89-.781v.89L5.329 0v-.313c-.687 0-.766-.062-.766-.562v-3.531l-1.468.11v.312c.687 0 .781.062.781.562v1.766c0 .875-.484 1.547-1.219 1.547-.828 0-.875-.47-.875-.985v-3.312l-1.468.11v.312c.78 0 .78.03.78.906v1.5c0 .781 0 1.687 1.516 1.687.563 0 1-.28 1.282-.89zm0 0"/></symbol><symbol overflow="visible" id="v"><path d="M1.719-3.984h1.437v-.313H1.72v-1.828h-.25c0 .813-.297 1.875-1.282 1.922v.219h.844v2.75c0 1.218.938 1.343 1.297 1.343.703 0 .985-.703.985-1.343v-.563h-.25v.547c0 .734-.297 1.11-.672 1.11-.672 0-.672-.907-.672-1.079zm0 0"/></symbol><symbol overflow="visible" id="w"><path d="M4.688-2.14c0-1.266-.985-2.329-2.188-2.329C1.25-4.469.281-3.375.281-2.14A2.22 2.22 0 002.484.11c1.204 0 2.204-.984 2.204-2.25zM2.5-.14c-.438 0-.875-.204-1.14-.672-.25-.438-.25-1.047-.25-1.407 0-.39 0-.922.234-1.36a1.347 1.347 0 011.14-.671c.438 0 .86.219 1.125.656.266.422.266 1 .266 1.375 0 .36 0 .906-.219 1.344-.234.453-.672.734-1.156.734zm0 0"/></symbol><symbol overflow="visible" id="m"><path d="M2.328-4.438c0-.187 0-.187-.203-.187-.453.438-1.078.438-1.36.438v.25c.157 0 .626 0 1-.188v3.547c0 .234 0 .328-.687.328H.812V0c.125 0 .985-.031 1.235-.031.219 0 1.094.031 1.25.031v-.25H3.03c-.703 0-.703-.094-.703-.328zm0 0"/></symbol><symbol overflow="visible" id="o"><path d="M3.516-1.266H3.28c-.015.157-.094.563-.187.625-.047.047-.578.047-.688.047H1.125c.734-.64.984-.844 1.39-1.172.516-.406 1-.843 1-1.5 0-.843-.734-1.359-1.624-1.359-.86 0-1.454.61-1.454 1.25 0 .344.297.39.376.39.156 0 .359-.124.359-.374 0-.125-.047-.375-.406-.375.218-.485.687-.641 1.015-.641.703 0 1.063.547 1.063 1.11 0 .609-.438 1.078-.656 1.328L.516-.266C.437-.203.437-.187.437 0h2.876zm0 0"/></symbol><symbol overflow="visible" id="p"><path d="M1.906-2.328c.547 0 .938.375.938 1.125 0 .86-.516 1.125-.906 1.125-.282 0-.907-.078-1.188-.5.328 0 .406-.235.406-.39 0-.22-.172-.376-.39-.376a.38.38 0 00-.391.407C.375-.281 1.094.14 1.938.14c.968 0 1.64-.657 1.64-1.344 0-.547-.437-1.094-1.203-1.25.719-.266.984-.781.984-1.219 0-.547-.625-.953-1.406-.953-.766 0-1.36.375-1.36.938 0 .234.157.359.36.359.219 0 .36-.156.36-.344 0-.203-.141-.36-.36-.375.25-.297.719-.375.985-.375.312 0 .75.156.75.75 0 .297-.094.625-.282.828-.219.266-.422.281-.765.313-.172.015-.188.015-.22.015-.015 0-.077.016-.077.094 0 .094.062.094.187.094zm0 0"/></symbol><symbol overflow="visible" id="q"><path d="M3.688-1.14v-.25h-.782V-4.5c0-.14 0-.203-.14-.203-.094 0-.125 0-.188.11L.266-1.392v.25h2.062v.563c0 .25 0 .328-.578.328h-.188V0c.36-.016.797-.031 1.047-.031.266 0 .704.015 1.063.031v-.25h-.188c-.578 0-.578-.078-.578-.328v-.563zM2.375-3.939v2.547H.531zm0 0"/></symbol><symbol overflow="visible" id="r"><path d="M1.078-3.89c.36.093.563.093.672.093.922 0 1.469-.625 1.469-.734 0-.078-.047-.094-.078-.094-.016 0-.032 0-.063.016-.172.062-.531.203-1.047.203-.203 0-.562-.016-1.015-.188-.079-.031-.094-.031-.094-.031-.094 0-.094.078-.094.188v2.046c0 .125 0 .204.11.204.062 0 .078 0 .14-.094.297-.375.734-.438.969-.438.422 0 .61.328.64.39.126.235.172.5.172.907 0 .203 0 .61-.218.922a.984.984 0 01-.813.422c-.453 0-.922-.25-1.094-.719.266.016.407-.156.407-.344 0-.296-.266-.343-.36-.343 0 0-.344 0-.344.375 0 .625.579 1.25 1.407 1.25.89 0 1.672-.657 1.672-1.547 0-.782-.594-1.5-1.454-1.5-.312 0-.671.062-.984.328zm0 0"/></symbol><clipPath id="a"><path d="M6 181h40v29.29H6zm0 0"/></clipPath><clipPath id="b"><path d="M431 181h41v29.29h-41zm0 0"/></clipPath><clipPath id="c"><path d="M194 175h40v35.29h-40zm0 0"/></clipPath></defs><path d="M34.559 42.574c0-4.738-3.84-8.582-8.579-8.582-4.738 0-8.578 3.844-8.578 8.582a8.577 8.577 0 008.578 8.578 8.577 8.577 0 008.579-8.578zm0 0M34.559 82.258a8.577 8.577 0 00-8.579-8.578 8.577 8.577 0 00-8.578 8.578 8.577 8.577 0 008.578 8.578 8.577 8.577 0 008.579-8.578zm0 0M34.559 121.945c0-4.738-3.84-8.582-8.579-8.582-4.738 0-8.578 3.844-8.578 8.582a8.58 8.58 0 008.578 8.578 8.58 8.58 0 008.579-8.578zm0 0M34.559 161.629a8.577 8.577 0 00-8.579-8.578 8.577 8.577 0 00-8.578 8.578 8.577 8.577 0 008.578 8.578 8.577 8.577 0 008.579-8.578zm0 0" fill="none" stroke-width=".797" stroke="#000" stroke-miterlimit="10"/><g clip-path="url(#a)"><path d="M34.559 201.313a8.577 8.577 0 00-8.579-8.579 8.577 8.577 0 00-8.578 8.578c0 4.739 3.84 8.583 8.578 8.583 4.739 0 8.579-3.844 8.579-8.583zm0 0" fill="none" stroke-width=".797" stroke="#000" stroke-miterlimit="10"/></g><path d="M91.254 56.746a8.577 8.577 0 00-8.578-8.578 8.577 8.577 0 00-8.578 8.578 8.577 8.577 0 008.578 8.578 8.577 8.577 0 008.578-8.578zm0 0M91.254 96.43a8.58 8.58 0 00-8.578-8.578 8.58 8.58 0 00-8.578 8.578 8.578 8.578 0 1017.156 0zm0 0M91.254 136.117a8.577 8.577 0 00-8.578-8.578 8.577 8.577 0 00-8.578 8.578 8.577 8.577 0 008.578 8.578 8.577 8.577 0 008.578-8.578zm0 0M91.254 175.8a8.577 8.577 0 00-8.578-8.577 8.577 8.577 0 00-8.578 8.578c0 4.738 3.84 8.582 8.578 8.582 4.738 0 8.578-3.844 8.578-8.582zm0 0M147.95 70.922a8.58 8.58 0 10-17.16-.003 8.58 8.58 0 0017.16.003zm0 0M147.95 110.605c0-4.738-3.845-8.578-8.583-8.578a8.58 8.58 0 00-8.578 8.578 8.58 8.58 0 008.578 8.579c4.738 0 8.582-3.84 8.582-8.579zm0 0M147.95 150.29c0-4.74-3.845-8.58-8.583-8.58a8.58 8.58 0 108.582 8.58zm0 0" fill="none" stroke-width=".797" stroke="#000" stroke-miterlimit="10"/><path d="M35.656 44.992l36.899 9.223" fill="none" stroke-width=".3985" stroke="#000" stroke-miterlimit="10"/><path d="M71.781 52.379c-.047.605.797 1.742 1.063 1.91-.313.023-1.594.629-1.836 1.184" fill="none" stroke-width=".31880000000000003" stroke-linecap="round" stroke-linejoin="round" stroke="#000" stroke-miterlimit="10"/><path d="M35.078 78.164l38.086-17.137" fill="none" stroke-width=".3985" stroke="#000" stroke-miterlimit="10"/><path d="M71.418 60.062c.336.504 1.703.875 2.016.84-.23.215-.864 1.485-.707 2.07" fill="none" stroke-width=".31880000000000003" stroke-linecap="round" stroke-linejoin="round" stroke="#000" stroke-miterlimit="10"/><path d="M32.527 114.418l43.305-49.8" fill="none" stroke-width=".3985" stroke="#000" stroke-miterlimit="10"/><path d="M73.844 64.473c.515.316 1.91.082 2.183-.078-.12.289-.164 1.703.223 2.171" fill="none" stroke-width=".31880000000000003" stroke-linecap="round" stroke-linejoin="round" stroke="#000" stroke-miterlimit="10"/><path d="M30.723 152.855l46.992-86.933" fill="none" stroke-width=".3985" stroke="#000" stroke-miterlimit="10"/><path d="M75.746 66.219c.57.195 1.883-.344 2.11-.559-.055.309.214 1.7.69 2.07" fill="none" stroke-width=".31880000000000003" stroke-linecap="round" stroke-linejoin="round" stroke="#000" stroke-miterlimit="10"/><path d="M29.621 192.031L78.867 66.457" fill="none" stroke-width=".3985" stroke="#000" stroke-miterlimit="10"/><path d="M76.945 66.988c.594.125 1.828-.566 2.032-.808-.016.312.418 1.664.937 1.972" fill="none" stroke-width=".31880000000000003" stroke-linecap="round" stroke-linejoin="round" stroke="#000" stroke-miterlimit="10"/><path d="M33.21 49.441l41.903 39.805" fill="none" stroke-width=".3985" stroke="#000" stroke-miterlimit="10"/><path d="M75.344 87.27c-.34.5-.164 1.906-.016 2.183-.285-.133-1.695-.238-2.18.125" fill="none" stroke-width=".31880000000000003" stroke-linecap="round" stroke-linejoin="round" stroke="#000" stroke-miterlimit="10"/><path d="M35.656 84.676l36.899 9.226" fill="none" stroke-width=".3985" stroke="#000" stroke-miterlimit="10"/><path d="M71.781 92.066c-.047.602.797 1.739 1.063 1.907-.313.023-1.594.629-1.836 1.183" fill="none" stroke-width=".31880000000000003" stroke-linecap="round" stroke-linejoin="round" stroke="#000" stroke-miterlimit="10"/><path d="M35.078 117.852l38.086-17.141" fill="none" stroke-width=".3985" stroke="#000" stroke-miterlimit="10"/><path d="M71.418 99.75c.336.504 1.703.871 2.016.84-.23.215-.864 1.48-.707 2.066" fill="none" stroke-width=".31880000000000003" stroke-linecap="round" stroke-linejoin="round" stroke="#000" stroke-miterlimit="10"/><path d="M32.527 154.102l43.305-49.797" fill="none" stroke-width=".3985" stroke="#000" stroke-miterlimit="10"/><path d="M73.844 104.16c.515.317 1.91.078 2.183-.082-.12.29-.164 1.707.223 2.172" fill="none" stroke-width=".31880000000000003" stroke-linecap="round" stroke-linejoin="round" stroke="#000" stroke-miterlimit="10"/><path d="M30.723 192.54l46.992-86.93" fill="none" stroke-width=".3985" stroke="#000" stroke-miterlimit="10"/><path d="M75.746 105.902c.57.196 1.883-.34 2.11-.558-.055.312.214 1.703.69 2.074" fill="none" stroke-width=".31880000000000003" stroke-linecap="round" stroke-linejoin="round" stroke="#000" stroke-miterlimit="10"/><path d="M31.152 51.102l46.118 76.093" fill="none" stroke-width=".3985" stroke="#000" stroke-miterlimit="10"/><path d="M78.012 125.348c-.461.394-.66 1.797-.59 2.105-.238-.207-1.574-.68-2.137-.453" fill="none" stroke-width=".31880000000000003" stroke-linecap="round" stroke-linejoin="round" stroke="#000" stroke-miterlimit="10"/><path d="M33.21 89.129l41.903 39.805" fill="none" stroke-width=".3985" stroke="#000" stroke-miterlimit="10"/><path d="M75.344 126.953c-.34.504-.164 1.906-.016 2.184-.285-.133-1.695-.239-2.18.129" fill="none" stroke-width=".31880000000000003" stroke-linecap="round" stroke-linejoin="round" stroke="#000" stroke-miterlimit="10"/><path d="M35.656 124.363l36.899 9.223" fill="none" stroke-width=".3985" stroke="#000" stroke-miterlimit="10"/><path d="M71.781 131.75c-.047.605.797 1.742 1.063 1.91-.313.024-1.594.63-1.836 1.184" fill="none" stroke-width=".31880000000000003" stroke-linecap="round" stroke-linejoin="round" stroke="#000" stroke-miterlimit="10"/><path d="M35.078 157.535l38.086-17.137" fill="none" stroke-width=".3985" stroke="#000" stroke-miterlimit="10"/><path d="M71.418 139.434c.336.503 1.703.875 2.016.84-.23.214-.864 1.48-.707 2.066" fill="none" stroke-width=".31880000000000003" stroke-linecap="round" stroke-linejoin="round" stroke="#000" stroke-miterlimit="10"/><path d="M32.527 193.79l43.305-49.802" fill="none" stroke-width=".3985" stroke="#000" stroke-miterlimit="10"/><path d="M73.844 143.844c.515.316 1.91.078 2.183-.082-.12.293-.164 1.707.223 2.175" fill="none" stroke-width=".31880000000000003" stroke-linecap="round" stroke-linejoin="round" stroke="#000" stroke-miterlimit="10"/><path d="M29.887 51.75L78.59 166.203" fill="none" stroke-width=".3985" stroke="#000" stroke-miterlimit="10"/><path d="M79.59 164.48c-.512.325-.906 1.684-.883 1.997-.207-.235-1.46-.891-2.05-.75" fill="none" stroke-width=".31880000000000003" stroke-linecap="round" stroke-linejoin="round" stroke="#000" stroke-miterlimit="10"/><path d="M31.152 90.785l46.118 76.098" fill="none" stroke-width=".3985" stroke="#000" stroke-miterlimit="10"/><path d="M78.012 165.031c-.461.395-.66 1.797-.59 2.106-.238-.203-1.574-.676-2.137-.453" fill="none" stroke-width=".31880000000000003" stroke-linecap="round" stroke-linejoin="round" stroke="#000" stroke-miterlimit="10"/><path d="M33.21 128.813l41.903 39.804" fill="none" stroke-width=".3985" stroke="#000" stroke-miterlimit="10"/><path d="M75.344 166.64c-.34.5-.164 1.907-.016 2.184-.285-.133-1.695-.238-2.18.125" fill="none" stroke-width=".31880000000000003" stroke-linecap="round" stroke-linejoin="round" stroke="#000" stroke-miterlimit="10"/><path d="M35.656 164.047l36.899 9.226" fill="none" stroke-width=".3985" stroke="#000" stroke-miterlimit="10"/><path d="M71.781 171.438c-.047.601.797 1.738 1.063 1.906-.313.023-1.594.629-1.836 1.183" fill="none" stroke-width=".31880000000000003" stroke-linecap="round" stroke-linejoin="round" stroke="#000" stroke-miterlimit="10"/><path d="M35.078 197.223l38.086-17.141" fill="none" stroke-width=".3985" stroke="#000" stroke-miterlimit="10"/><path d="M71.418 179.121c.336.504 1.703.871 2.016.84-.23.21-.864 1.48-.707 2.066" fill="none" stroke-width=".31880000000000003" stroke-linecap="round" stroke-linejoin="round" stroke="#000" stroke-miterlimit="10"/><path d="M92.352 59.164l36.894 9.227" fill="none" stroke-width=".3985" stroke="#000" stroke-miterlimit="10"/><path d="M128.477 66.555c-.051.601.796 1.738 1.062 1.906-.316.023-1.594.629-1.836 1.184" fill="none" stroke-width=".31880000000000003" stroke-linecap="round" stroke-linejoin="round" stroke="#000" stroke-miterlimit="10"/><path d="M91.77 92.34l38.085-17.14" fill="none" stroke-width=".3985" stroke="#000" stroke-miterlimit="10"/><path d="M128.113 74.238c.336.504 1.703.871 2.016.84-.23.211-.863 1.48-.707 2.067" fill="none" stroke-width=".31880000000000003" stroke-linecap="round" stroke-linejoin="round" stroke="#000" stroke-miterlimit="10"/><path d="M89.219 128.59l43.304-49.797" fill="none" stroke-width=".3985" stroke="#000" stroke-miterlimit="10"/><path d="M130.535 78.648c.52.317 1.914.079 2.184-.082-.121.29-.164 1.707.222 2.172" fill="none" stroke-width=".31880000000000003" stroke-linecap="round" stroke-linejoin="round" stroke="#000" stroke-miterlimit="10"/><path d="M87.418 167.027l46.992-86.93" fill="none" stroke-width=".3985" stroke="#000" stroke-miterlimit="10"/><path d="M132.438 80.39c.574.196 1.882-.34 2.113-.558-.055.313.215 1.703.691 2.074" fill="none" stroke-width=".31880000000000003" stroke-linecap="round" stroke-linejoin="round" stroke="#000" stroke-miterlimit="10"/><path d="M89.906 63.613l41.899 39.809" fill="none" stroke-width=".3985" stroke="#000" stroke-miterlimit="10"/><path d="M132.035 101.441c-.336.5-.16 1.907-.012 2.184-.285-.133-1.699-.238-2.183.129" fill="none" stroke-width=".31880000000000003" stroke-linecap="round" stroke-linejoin="round" stroke="#000" stroke-miterlimit="10"/><path d="M92.352 98.852l36.894 9.222" fill="none" stroke-width=".3985" stroke="#000" stroke-miterlimit="10"/><path d="M128.477 106.238c-.051.606.796 1.739 1.062 1.91-.316.024-1.594.63-1.836 1.184" fill="none" stroke-width=".31880000000000003" stroke-linecap="round" stroke-linejoin="round" stroke="#000" stroke-miterlimit="10"/><path d="M91.77 132.023l38.085-17.136" fill="none" stroke-width=".3985" stroke="#000" stroke-miterlimit="10"/><path d="M128.113 113.922c.336.504 1.703.871 2.016.84-.23.215-.863 1.48-.707 2.066" fill="none" stroke-width=".31880000000000003" stroke-linecap="round" stroke-linejoin="round" stroke="#000" stroke-miterlimit="10"/><path d="M89.219 168.277l43.304-49.8" fill="none" stroke-width=".3985" stroke="#000" stroke-miterlimit="10"/><path d="M130.535 118.332c.52.316 1.914.078 2.184-.082-.121.293-.164 1.707.222 2.176" fill="none" stroke-width=".31880000000000003" stroke-linecap="round" stroke-linejoin="round" stroke="#000" stroke-miterlimit="10"/><path d="M87.844 65.277l46.117 76.094" fill="none" stroke-width=".3985" stroke="#000" stroke-miterlimit="10"/><path d="M134.703 139.52c-.457.394-.656 1.796-.586 2.105-.238-.203-1.574-.676-2.137-.453" fill="none" stroke-width=".31880000000000003" stroke-linecap="round" stroke-linejoin="round" stroke="#000" stroke-miterlimit="10"/><path d="M89.906 103.3l41.899 39.805" fill="none" stroke-width=".3985" stroke="#000" stroke-miterlimit="10"/><path d="M132.035 141.125c-.336.504-.16 1.91-.012 2.188-.285-.133-1.699-.239-2.183.125" fill="none" stroke-width=".31880000000000003" stroke-linecap="round" stroke-linejoin="round" stroke="#000" stroke-miterlimit="10"/><path d="M92.352 138.535l36.894 9.227" fill="none" stroke-width=".3985" stroke="#000" stroke-miterlimit="10"/><path d="M128.477 145.926c-.051.601.796 1.738 1.062 1.906-.316.023-1.594.629-1.836 1.184" fill="none" stroke-width=".31880000000000003" stroke-linecap="round" stroke-linejoin="round" stroke="#000" stroke-miterlimit="10"/><path d="M91.77 171.71l38.085-17.14" fill="none" stroke-width=".3985" stroke="#000" stroke-miterlimit="10"/><path d="M128.113 153.61c.336.503 1.703.87 2.016.84-.23.21-.863 1.48-.707 2.066" fill="none" stroke-width=".31880000000000003" stroke-linecap="round" stroke-linejoin="round" stroke="#000" stroke-miterlimit="10"/><path d="M346.375 70.922a8.578 8.578 0 10-17.156 0 8.58 8.58 0 008.578 8.578 8.58 8.58 0 008.578-8.578zm0 0M346.375 110.605a8.577 8.577 0 00-8.578-8.578 8.577 8.577 0 00-8.578 8.578 8.577 8.577 0 008.578 8.579 8.577 8.577 0 008.578-8.579zm0 0M346.375 150.29a8.577 8.577 0 00-8.578-8.58 8.577 8.577 0 00-8.578 8.58c0 4.737 3.84 8.581 8.578 8.581 4.738 0 8.578-3.844 8.578-8.582zm0 0M403.07 56.746a8.578 8.578 0 00-8.582-8.578 8.58 8.58 0 00-8.578 8.578 8.58 8.58 0 008.578 8.578 8.578 8.578 0 008.582-8.578zm0 0M403.07 96.43a8.58 8.58 0 10-17.16.005 8.58 8.58 0 0017.16-.005zm0 0M403.07 136.117a8.578 8.578 0 00-8.582-8.578 8.58 8.58 0 00-8.578 8.578 8.58 8.58 0 008.578 8.578 8.578 8.578 0 008.582-8.578zm0 0M403.07 175.8a8.578 8.578 0 00-8.582-8.577 8.58 8.58 0 000 17.16 8.581 8.581 0 008.582-8.582zm0 0M459.762 42.574c0-4.738-3.84-8.582-8.578-8.582-4.739 0-8.579 3.844-8.579 8.582a8.577 8.577 0 008.579 8.578 8.577 8.577 0 008.578-8.578zm0 0M459.762 82.258a8.577 8.577 0 00-8.578-8.578 8.577 8.577 0 00-8.579 8.578 8.577 8.577 0 008.579 8.578 8.577 8.577 0 008.578-8.578zm0 0M459.762 121.945c0-4.738-3.84-8.582-8.578-8.582-4.739 0-8.579 3.844-8.579 8.582a8.58 8.58 0 008.579 8.578 8.58 8.58 0 008.578-8.578zm0 0M459.762 161.629a8.577 8.577 0 00-8.578-8.578 8.577 8.577 0 00-8.579 8.578 8.577 8.577 0 008.579 8.578 8.577 8.577 0 008.578-8.578zm0 0" fill="none" stroke-width=".797" stroke="#000" stroke-miterlimit="10"/><g clip-path="url(#b)"><path d="M459.762 201.313a8.577 8.577 0 00-8.578-8.579 8.577 8.577 0 00-8.579 8.578c0 4.739 3.84 8.583 8.579 8.583 4.738 0 8.578-3.844 8.578-8.583zm0 0" fill="none" stroke-width=".797" stroke="#000" stroke-miterlimit="10"/></g><path d="M347.473 68.5l36.898-9.223" fill="none" stroke-width=".3985" stroke="#000" stroke-miterlimit="10"/><path d="M382.824 58.02c.242.554 1.524 1.16 1.836 1.183-.265.168-1.113 1.305-1.062 1.91" fill="none" stroke-width=".31880000000000003" stroke-linecap="round" stroke-linejoin="round" stroke="#000" stroke-miterlimit="10"/><path d="M345.027 103.734l41.899-39.804" fill="none" stroke-width=".3985" stroke="#000" stroke-miterlimit="10"/><path d="M384.965 63.598c.48.367 1.894.261 2.18.129-.149.277-.325 1.68.015 2.183" fill="none" stroke-width=".31880000000000003" stroke-linecap="round" stroke-linejoin="round" stroke="#000" stroke-miterlimit="10"/><path d="M342.965 141.762l46.12-76.094" fill="none" stroke-width=".3985" stroke="#000" stroke-miterlimit="10"/><path d="M387.102 65.863c.562.227 1.894-.246 2.136-.453-.07.309.13 1.711.59 2.106" fill="none" stroke-width=".31880000000000003" stroke-linecap="round" stroke-linejoin="round" stroke="#000" stroke-miterlimit="10"/><path d="M346.89 75.012l38.087 17.14" fill="none" stroke-width=".3985" stroke="#000" stroke-miterlimit="10"/><path d="M384.54 90.207c-.153.586.48 1.852.71 2.066-.313-.03-1.68.336-2.016.84" fill="none" stroke-width=".31880000000000003" stroke-linecap="round" stroke-linejoin="round" stroke="#000" stroke-miterlimit="10"/><path d="M347.473 108.187l36.898-9.226" fill="none" stroke-width=".3985" stroke="#000" stroke-miterlimit="10"/><path d="M382.824 97.703c.242.559 1.524 1.16 1.836 1.188-.265.168-1.113 1.304-1.062 1.906" fill="none" stroke-width=".31880000000000003" stroke-linecap="round" stroke-linejoin="round" stroke="#000" stroke-miterlimit="10"/><path d="M345.027 143.422l41.899-39.805" fill="none" stroke-width=".3985" stroke="#000" stroke-miterlimit="10"/><path d="M384.965 103.285c.48.363 1.894.258 2.18.125-.149.277-.325 1.684.015 2.184" fill="none" stroke-width=".31880000000000003" stroke-linecap="round" stroke-linejoin="round" stroke="#000" stroke-miterlimit="10"/><path d="M344.34 78.445l43.305 49.801" fill="none" stroke-width=".3985" stroke="#000" stroke-miterlimit="10"/><path d="M388.063 126.297c-.383.469-.344 1.883-.223 2.172-.27-.16-1.664-.399-2.184-.078" fill="none" stroke-width=".31880000000000003" stroke-linecap="round" stroke-linejoin="round" stroke="#000" stroke-miterlimit="10"/><path d="M346.89 114.7l38.087 17.136" fill="none" stroke-width=".3985" stroke="#000" stroke-miterlimit="10"/><path d="M384.54 129.89c-.153.587.48 1.856.71 2.067-.313-.031-1.68.34-2.016.844" fill="none" stroke-width=".31880000000000003" stroke-linecap="round" stroke-linejoin="round" stroke="#000" stroke-miterlimit="10"/><path d="M347.473 147.871l36.898-9.223" fill="none" stroke-width=".3985" stroke="#000" stroke-miterlimit="10"/><path d="M382.824 137.39c.242.555 1.524 1.16 1.836 1.184-.265.168-1.113 1.305-1.062 1.91" fill="none" stroke-width=".31880000000000003" stroke-linecap="round" stroke-linejoin="round" stroke="#000" stroke-miterlimit="10"/><path d="M342.54 79.691l46.991 86.934" fill="none" stroke-width=".3985" stroke="#000" stroke-miterlimit="10"/><path d="M390.363 164.816c-.476.371-.746 1.762-.691 2.07-.23-.214-1.54-.75-2.113-.554" fill="none" stroke-width=".31880000000000003" stroke-linecap="round" stroke-linejoin="round" stroke="#000" stroke-miterlimit="10"/><path d="M344.34 118.133l43.305 49.797" fill="none" stroke-width=".3985" stroke="#000" stroke-miterlimit="10"/><path d="M388.063 165.98c-.383.47-.344 1.883-.223 2.176-.27-.16-1.664-.398-2.184-.082" fill="none" stroke-width=".31880000000000003" stroke-linecap="round" stroke-linejoin="round" stroke="#000" stroke-miterlimit="10"/><path d="M346.89 154.383l38.087 17.14" fill="none" stroke-width=".3985" stroke="#000" stroke-miterlimit="10"/><path d="M384.54 169.578c-.153.586.48 1.852.71 2.067-.313-.032-1.68.335-2.016.84" fill="none" stroke-width=".31880000000000003" stroke-linecap="round" stroke-linejoin="round" stroke="#000" stroke-miterlimit="10"/><path d="M404.164 54.328l36.899-9.226" fill="none" stroke-width=".3985" stroke="#000" stroke-miterlimit="10"/><path d="M439.516 43.848c.242.554 1.523 1.16 1.836 1.183-.262.168-1.11 1.305-1.063 1.906" fill="none" stroke-width=".31880000000000003" stroke-linecap="round" stroke-linejoin="round" stroke="#000" stroke-miterlimit="10"/><path d="M401.723 89.562l41.898-39.804" fill="none" stroke-width=".3985" stroke="#000" stroke-miterlimit="10"/><path d="M441.656 49.426c.485.363 1.895.258 2.184.125-.152.277-.328 1.683.012 2.183" fill="none" stroke-width=".31880000000000003" stroke-linecap="round" stroke-linejoin="round" stroke="#000" stroke-miterlimit="10"/><path d="M399.66 127.586l46.117-76.094" fill="none" stroke-width=".3985" stroke="#000" stroke-miterlimit="10"/><path d="M443.797 51.691c.558.223 1.894-.25 2.137-.453-.07.309.128 1.707.586 2.106" fill="none" stroke-width=".31880000000000003" stroke-linecap="round" stroke-linejoin="round" stroke="#000" stroke-miterlimit="10"/><path d="M398.395 166.625l48.703-114.453" fill="none" stroke-width=".3985" stroke="#000" stroke-miterlimit="10"/><path d="M445.164 52.648c.59.141 1.844-.515 2.05-.75-.023.313.372 1.672.884 1.997" fill="none" stroke-width=".31880000000000003" stroke-linecap="round" stroke-linejoin="round" stroke="#000" stroke-miterlimit="10"/><path d="M403.586 60.84l38.086 17.137" fill="none" stroke-width=".3985" stroke="#000" stroke-miterlimit="10"/><path d="M441.234 76.031c-.156.586.477 1.856.711 2.07-.316-.035-1.683.336-2.02.84" fill="none" stroke-width=".31880000000000003" stroke-linecap="round" stroke-linejoin="round" stroke="#000" stroke-miterlimit="10"/><path d="M404.164 94.012l36.899-9.223" fill="none" stroke-width=".3985" stroke="#000" stroke-miterlimit="10"/><path d="M439.516 83.531c.242.555 1.523 1.16 1.836 1.184-.262.172-1.11 1.305-1.063 1.91" fill="none" stroke-width=".31880000000000003" stroke-linecap="round" stroke-linejoin="round" stroke="#000" stroke-miterlimit="10"/><path d="M401.723 129.246l41.898-39.805" fill="none" stroke-width=".3985" stroke="#000" stroke-miterlimit="10"/><path d="M441.656 89.11c.485.367 1.895.261 2.184.128-.152.278-.328 1.684.012 2.184" fill="none" stroke-width=".31880000000000003" stroke-linecap="round" stroke-linejoin="round" stroke="#000" stroke-miterlimit="10"/><path d="M399.66 167.273l46.117-76.093" fill="none" stroke-width=".3985" stroke="#000" stroke-miterlimit="10"/><path d="M443.797 91.375c.558.227 1.894-.246 2.137-.45-.07.305.128 1.708.586 2.102" fill="none" stroke-width=".31880000000000003" stroke-linecap="round" stroke-linejoin="round" stroke="#000" stroke-miterlimit="10"/><path d="M401.035 64.273l43.305 49.797" fill="none" stroke-width=".3985" stroke="#000" stroke-miterlimit="10"/><path d="M444.758 112.125c-.387.465-.344 1.883-.223 2.172-.273-.16-1.668-.399-2.183-.082" fill="none" stroke-width=".31880000000000003" stroke-linecap="round" stroke-linejoin="round" stroke="#000" stroke-miterlimit="10"/><path d="M403.586 100.523l38.086 17.141" fill="none" stroke-width=".3985" stroke="#000" stroke-miterlimit="10"/><path d="M441.234 115.719c-.156.586.477 1.851.711 2.066-.316-.031-1.683.336-2.02.84" fill="none" stroke-width=".31880000000000003" stroke-linecap="round" stroke-linejoin="round" stroke="#000" stroke-miterlimit="10"/><path d="M404.164 133.7l36.899-9.227" fill="none" stroke-width=".3985" stroke="#000" stroke-miterlimit="10"/><path d="M439.516 123.219c.242.554 1.523 1.156 1.836 1.183-.262.168-1.11 1.305-1.063 1.907" fill="none" stroke-width=".31880000000000003" stroke-linecap="round" stroke-linejoin="round" stroke="#000" stroke-miterlimit="10"/><path d="M401.723 168.934l41.898-39.805" fill="none" stroke-width=".3985" stroke="#000" stroke-miterlimit="10"/><path d="M441.656 128.797c.485.363 1.895.258 2.184.125-.152.277-.328 1.683.012 2.183" fill="none" stroke-width=".31880000000000003" stroke-linecap="round" stroke-linejoin="round" stroke="#000" stroke-miterlimit="10"/><path d="M399.234 65.52l46.989 86.933" fill="none" stroke-width=".3985" stroke="#000" stroke-miterlimit="10"/><path d="M447.059 150.645c-.48.37-.747 1.761-.692 2.07-.23-.215-1.543-.754-2.113-.555" fill="none" stroke-width=".31880000000000003" stroke-linecap="round" stroke-linejoin="round" stroke="#000" stroke-miterlimit="10"/><path d="M401.035 103.957l43.305 49.8" fill="none" stroke-width=".3985" stroke="#000" stroke-miterlimit="10"/><path d="M444.758 151.809c-.387.468-.344 1.882-.223 2.171-.273-.16-1.668-.398-2.183-.078" fill="none" stroke-width=".31880000000000003" stroke-linecap="round" stroke-linejoin="round" stroke="#000" stroke-miterlimit="10"/><path d="M403.586 140.21l38.086 17.138" fill="none" stroke-width=".3985" stroke="#000" stroke-miterlimit="10"/><path d="M441.234 155.402c-.156.586.477 1.856.711 2.07-.316-.035-1.683.337-2.02.84" fill="none" stroke-width=".31880000000000003" stroke-linecap="round" stroke-linejoin="round" stroke="#000" stroke-miterlimit="10"/><path d="M404.164 173.383l36.899-9.223" fill="none" stroke-width=".3985" stroke="#000" stroke-miterlimit="10"/><path d="M439.516 162.902c.242.555 1.523 1.16 1.836 1.184-.262.168-1.11 1.305-1.063 1.91" fill="none" stroke-width=".31880000000000003" stroke-linecap="round" stroke-linejoin="round" stroke="#000" stroke-miterlimit="10"/><path d="M398.133 66.031l49.242 125.57" fill="none" stroke-width=".3985" stroke="#000" stroke-miterlimit="10"/><path d="M448.422 189.906c-.52.313-.953 1.66-.938 1.973-.203-.238-1.437-.934-2.03-.809" fill="none" stroke-width=".31880000000000003" stroke-linecap="round" stroke-linejoin="round" stroke="#000" stroke-miterlimit="10"/><path d="M399.234 105.203l46.989 86.934" fill="none" stroke-width=".3985" stroke="#000" stroke-miterlimit="10"/><path d="M447.059 190.328c-.48.371-.747 1.762-.692 2.074-.23-.218-1.543-.754-2.113-.558" fill="none" stroke-width=".31880000000000003" stroke-linecap="round" stroke-linejoin="round" stroke="#000" stroke-miterlimit="10"/><path d="M401.035 143.645l43.305 49.796" fill="none" stroke-width=".3985" stroke="#000" stroke-miterlimit="10"/><path d="M444.758 191.496c-.387.465-.344 1.879-.223 2.172-.273-.16-1.668-.398-2.183-.082" fill="none" stroke-width=".31880000000000003" stroke-linecap="round" stroke-linejoin="round" stroke="#000" stroke-miterlimit="10"/><path d="M403.586 179.895l38.086 17.14" fill="none" stroke-width=".3985" stroke="#000" stroke-miterlimit="10"/><path d="M441.234 195.09c-.156.586.477 1.851.711 2.066-.316-.031-1.683.336-2.02.84" fill="none" stroke-width=".31880000000000003" stroke-linecap="round" stroke-linejoin="round" stroke="#000" stroke-miterlimit="10"/><path d="M222.598 82.258a8.577 8.577 0 00-8.578-8.578 8.578 8.578 0 100 17.156 8.577 8.577 0 008.578-8.578zm0 0" fill="#fff100" fill-opacity=".2" stroke-width=".797" stroke="#000" stroke-miterlimit="10"/><path d="M222.598 138.953c0-4.738-3.84-8.582-8.578-8.582a8.581 8.581 0 00-8.583 8.582 8.578 8.578 0 008.583 8.578 8.577 8.577 0 008.578-8.578zm0 0" fill="#00f" fill-opacity=".1" stroke-width=".797" stroke="#000" stroke-miterlimit="10"/><path d="M279.29 138.953c0-4.738-3.84-8.582-8.58-8.582-4.737 0-8.577 3.844-8.577 8.582a8.577 8.577 0 008.578 8.578 8.577 8.577 0 008.578-8.578zm0 0" fill="#0f0" fill-opacity=".1" stroke-width=".797" stroke="#000" stroke-miterlimit="10"/><path d="M222.598 53.91a8.577 8.577 0 00-8.578-8.578 8.578 8.578 0 100 17.156 8.577 8.577 0 008.578-8.578zm0 0" fill="#fff100" fill-opacity=".2" stroke-width=".797" stroke="#000" stroke-miterlimit="10"/><path d="M222.598 167.297a8.577 8.577 0 00-8.578-8.578 8.578 8.578 0 00-8.583 8.578 8.581 8.581 0 008.583 8.582c4.738 0 8.578-3.844 8.578-8.582zm0 0" fill="#00f" fill-opacity=".1" stroke-width=".797" stroke="#000" stroke-miterlimit="10"/><path d="M279.29 110.605a8.577 8.577 0 00-8.58-8.578 8.577 8.577 0 00-8.577 8.578 8.577 8.577 0 008.578 8.579 8.577 8.577 0 008.578-8.579zm0 0" fill="#0f0" fill-opacity=".1" stroke-width=".797" stroke="#000" stroke-miterlimit="10"/><path d="M222.598 25.566a8.578 8.578 0 00-8.578-8.582 8.58 8.58 0 108.578 8.582zm0 0" fill="#fff100" fill-opacity=".2" stroke-width=".797" stroke="#000" stroke-miterlimit="10"/><path d="M222.598 195.645a8.577 8.577 0 00-8.578-8.579 8.578 8.578 0 100 17.157 8.577 8.577 0 008.578-8.578zm0 0" fill="#00f" fill-opacity=".1"/><g clip-path="url(#c)"><path d="M222.598 195.645a8.577 8.577 0 00-8.578-8.579 8.578 8.578 0 100 17.157 8.577 8.577 0 008.578-8.578zm0 0" fill="none" stroke-width=".797" stroke="#000" stroke-miterlimit="10"/></g><path d="M279.29 82.258a8.577 8.577 0 00-8.58-8.578 8.577 8.577 0 00-8.577 8.578 8.577 8.577 0 008.578 8.578 8.577 8.577 0 008.578-8.578zm0 0" fill="#0f0" fill-opacity=".1" stroke-width=".797" stroke="#000" stroke-miterlimit="10"/><path d="M201.719 94.555h24.597v-81.29H201.72zm0 0" fill="#fff100" fill-opacity=".45" stroke-width=".3985" stroke="#000" stroke-opacity=".45" stroke-miterlimit="10"/><use xlink:href="#d" x="211.013" y="7.611"/><path d="M201.719 207.945h24.597v-81.293H201.72zm0 0" fill="#00f" fill-opacity=".3" stroke-width=".3985" stroke="#000" stroke-opacity=".3" stroke-miterlimit="10"/><use xlink:href="#e" x="210.989" y="122.934"/><path d="M258.414 151.25h24.594V69.96h-24.594zm0 0" fill="#0f0" fill-opacity=".3" stroke-width=".3985" stroke="#000" stroke-opacity=".3" stroke-miterlimit="10"/><use xlink:href="#f" x="255.736" y="64.304"/><use xlink:href="#g" x="259.665" y="64.304"/><use xlink:href="#h" x="264.647" y="64.304"/><use xlink:href="#i" x="272.948" y="64.304"/><use xlink:href="#j" x="278.484" y="64.304"/><use xlink:href="#k" x="281.251" y="64.304"/><path d="M227 166.43l30.504-54.555" fill="none" stroke-width=".3985" stroke="#000" stroke-miterlimit="10"/><path d="M255.527 112.14c.575.204 1.891-.316 2.121-.527-.058.309.192 1.703.664 2.082" fill="none" stroke-width=".31880000000000003" stroke-linecap="round" stroke-linejoin="round" stroke="#000" stroke-miterlimit="10"/><path d="M227 54.781l30.504 54.555" fill="none" stroke-width=".3985" stroke="#000" stroke-miterlimit="10"/><path d="M258.313 107.516c-.473.379-.723 1.77-.665 2.082-.23-.215-1.546-.735-2.12-.528" fill="none" stroke-width=".31880000000000003" stroke-linecap="round" stroke-linejoin="round" stroke="#000" stroke-miterlimit="10"/><path d="M149.23 72.418l54.473 8.273" fill="none" stroke-width=".3985" stroke="#000" stroke-miterlimit="10"/><path d="M202.762 78.937c.008.606.957 1.657 1.238 1.797-.312.055-1.527.778-1.719 1.356" fill="none" stroke-width=".31880000000000003" stroke-linecap="round" stroke-linejoin="round" stroke="#000" stroke-miterlimit="10"/><path d="M146.738 77.637l59.57 54.289" fill="none" stroke-width=".3985" stroke="#000" stroke-miterlimit="10"/><path d="M206.496 129.941c-.328.508-.121 1.91.031 2.184-.285-.125-1.699-.203-2.175.172" fill="none" stroke-width=".31880000000000003" stroke-linecap="round" stroke-linejoin="round" stroke="#000" stroke-miterlimit="10"/><path d="M277.715 131.852l52.758-53.504" fill="none" stroke-width=".3985" stroke="#000" stroke-miterlimit="10"/><path d="M328.496 78.078c.496.352 1.906.2 2.188.059-.141.281-.27 1.691.086 2.18" fill="none" stroke-width=".31880000000000003" stroke-linecap="round" stroke-linejoin="round" stroke="#000" stroke-miterlimit="10"/><path d="M149.094 68.703l54.754-12.473" fill="none" stroke-width=".3985" stroke="#000" stroke-miterlimit="10"/><path d="M202.328 54.941c.23.559 1.496 1.192 1.809 1.22-.27.163-1.137 1.28-1.102 1.886" fill="none" stroke-width=".31880000000000003" stroke-linecap="round" stroke-linejoin="round" stroke="#000" stroke-miterlimit="10"/><path d="M145.477 78.805l62.152 80.246" fill="none" stroke-width=".3985" stroke="#000" stroke-miterlimit="10"/><path d="M208.156 157.129c-.41.445-.445 1.863-.344 2.16-.261-.176-1.64-.492-2.175-.207" fill="none" stroke-width=".31880000000000003" stroke-linecap="round" stroke-linejoin="round" stroke="#000" stroke-miterlimit="10"/><path d="M279.898 135.07l48.29-20.406" fill="none" stroke-width=".3985" stroke="#000" stroke-miterlimit="10"/><path d="M326.465 113.664c.324.512 1.683.91 2 .887-.238.207-.899 1.457-.758 2.047" fill="none" stroke-width=".31880000000000003" stroke-linecap="round" stroke-linejoin="round" stroke="#000" stroke-miterlimit="10"/><path d="M147.89 65.742l57.212-34.762" fill="none" stroke-width=".3985" stroke="#000" stroke-miterlimit="10"/><path d="M203.254 30.238c.394.461 1.797.657 2.105.586-.207.242-.675 1.578-.449 2.14" fill="none" stroke-width=".31880000000000003" stroke-linecap="round" stroke-linejoin="round" stroke="#000" stroke-miterlimit="10"/><path d="M144.492 79.477l64.168 107.218" fill="none" stroke-width=".3985" stroke="#000" stroke-miterlimit="10"/><path d="M209.414 184.852c-.46.39-.668 1.793-.601 2.097-.239-.203-1.57-.683-2.133-.46" fill="none" stroke-width=".31880000000000003" stroke-linecap="round" stroke-linejoin="round" stroke="#000" stroke-miterlimit="10"/><path d="M280.547 140.613l46.965 7.938" fill="none" stroke-width=".3985" stroke="#000" stroke-miterlimit="10"/><path d="M326.598 146.781c0 .606.93 1.672 1.207 1.82-.309.047-1.54.75-1.739 1.325" fill="none" stroke-width=".31880000000000003" stroke-linecap="round" stroke-linejoin="round" stroke="#000" stroke-miterlimit="10"/><path d="M148.691 107.062l55.575-21.101" fill="none" stroke-width=".3985" stroke="#000" stroke-miterlimit="10"/><path d="M202.582 84.895c.305.523 1.648.972 1.965.96-.246.2-.953 1.426-.832 2.02" fill="none" stroke-width=".31880000000000003" stroke-linecap="round" stroke-linejoin="round" stroke="#000" stroke-miterlimit="10"/><path d="M148.691 114.145l55.575 21.105" fill="none" stroke-width=".3985" stroke="#000" stroke-miterlimit="10"/><path d="M203.715 133.336c-.121.594.586 1.82.832 2.02-.317-.016-1.66.433-1.965.956" fill="none" stroke-width=".31880000000000003" stroke-linecap="round" stroke-linejoin="round" stroke="#000" stroke-miterlimit="10"/><path d="M279.297 105.527l49.52-29.297" fill="none" stroke-width=".3985" stroke="#000" stroke-miterlimit="10"/><path d="M326.977 75.469c.39.46 1.793.676 2.097.61-.207.237-.691 1.566-.472 2.132" fill="none" stroke-width=".31880000000000003" stroke-linecap="round" stroke-linejoin="round" stroke="#000" stroke-miterlimit="10"/><path d="M147.313 104.574L205.71 60.22" fill="none" stroke-width=".3985" stroke="#000" stroke-miterlimit="10"/><path d="M203.793 59.676c.441.414 1.855.465 2.156.363-.18.262-.508 1.637-.226 2.176" fill="none" stroke-width=".31880000000000003" stroke-linecap="round" stroke-linejoin="round" stroke="#000" stroke-miterlimit="10"/><path d="M147.313 116.637l58.398 44.351" fill="none" stroke-width=".3985" stroke="#000" stroke-miterlimit="10"/><path d="M205.723 158.996c-.282.535.047 1.914.226 2.176-.3-.102-1.715-.05-2.156.363" fill="none" stroke-width=".31880000000000003" stroke-linecap="round" stroke-linejoin="round" stroke="#000" stroke-miterlimit="10"/><path d="M280.684 110.605h46.68" fill="none" stroke-width=".3985" stroke="#000" stroke-miterlimit="10"/><path d="M326.168 109.012c.102.597 1.195 1.492 1.496 1.593-.3.098-1.394.997-1.496 1.594" fill="none" stroke-width=".31880000000000003" stroke-linecap="round" stroke-linejoin="round" stroke="#000" stroke-miterlimit="10"/><path d="M145.95 103.11l61.187-69.708" fill="none" stroke-width=".3985" stroke="#000" stroke-miterlimit="10"/><path d="M205.148 33.25c.516.32 1.915.09 2.184-.07-.121.289-.172 1.707.215 2.175" fill="none" stroke-width=".31880000000000003" stroke-linecap="round" stroke-linejoin="round" stroke="#000" stroke-miterlimit="10"/><path d="M145.95 118.102l61.187 69.703" fill="none" stroke-width=".3985" stroke="#000" stroke-miterlimit="10"/><path d="M207.547 185.855c-.387.47-.336 1.883-.215 2.176-.27-.16-1.668-.39-2.184-.074" fill="none" stroke-width=".31880000000000003" stroke-linecap="round" stroke-linejoin="round" stroke="#000" stroke-miterlimit="10"/><path d="M279.297 115.684l49.52 29.296" fill="none" stroke-width=".3985" stroke="#000" stroke-miterlimit="10"/><path d="M328.602 143c-.22.563.265 1.895.472 2.133-.304-.067-1.707.144-2.097.61" fill="none" stroke-width=".31880000000000003" stroke-linecap="round" stroke-linejoin="round" stroke="#000" stroke-miterlimit="10"/><path d="M146.738 143.574l59.57-54.289" fill="none" stroke-width=".3985" stroke="#000" stroke-miterlimit="10"/><path d="M204.352 88.91c.476.375 1.89.3 2.175.172-.152.277-.359 1.676-.03 2.188" fill="none" stroke-width=".31880000000000003" stroke-linecap="round" stroke-linejoin="round" stroke="#000" stroke-miterlimit="10"/><path d="M149.23 148.793l54.473-8.273" fill="none" stroke-width=".3985" stroke="#000" stroke-miterlimit="10"/><path d="M202.281 139.121c.192.578 1.406 1.297 1.719 1.352-.281.144-1.23 1.195-1.238 1.8" fill="none" stroke-width=".31880000000000003" stroke-linecap="round" stroke-linejoin="round" stroke="#000" stroke-miterlimit="10"/><path d="M280.547 80.598l46.965-7.942" fill="none" stroke-width=".3985" stroke="#000" stroke-miterlimit="10"/><path d="M326.066 71.285c.2.574 1.43 1.274 1.739 1.324-.278.149-1.207 1.215-1.207 1.82" fill="none" stroke-width=".31880000000000003" stroke-linecap="round" stroke-linejoin="round" stroke="#000" stroke-miterlimit="10"/><path d="M145.477 142.406l62.152-80.25" fill="none" stroke-width=".3985" stroke="#000" stroke-miterlimit="10"/><path d="M205.637 62.129c.535.285 1.914-.031 2.176-.207-.102.297-.067 1.715.343 2.156" fill="none" stroke-width=".31880000000000003" stroke-linecap="round" stroke-linejoin="round" stroke="#000" stroke-miterlimit="10"/><path d="M149.094 152.504l54.754 12.476" fill="none" stroke-width=".3985" stroke="#000" stroke-miterlimit="10"/><path d="M203.035 163.16c-.035.606.832 1.723 1.102 1.887-.313.031-1.578.664-1.809 1.223" fill="none" stroke-width=".31880000000000003" stroke-linecap="round" stroke-linejoin="round" stroke="#000" stroke-miterlimit="10"/><path d="M279.898 86.14l48.29 20.407" fill="none" stroke-width=".3985" stroke="#000" stroke-miterlimit="10"/><path d="M327.707 104.61c-.14.59.52 1.843.758 2.05-.317-.023-1.676.375-2 .887" fill="none" stroke-width=".31880000000000003" stroke-linecap="round" stroke-linejoin="round" stroke="#000" stroke-miterlimit="10"/><path d="M144.492 141.734L208.66 34.516" fill="none" stroke-width=".3985" stroke="#000" stroke-miterlimit="10"/><path d="M206.68 34.723c.562.222 1.894-.258 2.132-.465-.066.308.141 1.71.602 2.101" fill="none" stroke-width=".31880000000000003" stroke-linecap="round" stroke-linejoin="round" stroke="#000" stroke-miterlimit="10"/><path d="M147.89 155.469l57.212 34.761" fill="none" stroke-width=".3985" stroke="#000" stroke-miterlimit="10"/><path d="M204.91 188.246c-.226.563.242 1.899.45 2.137-.31-.07-1.712.129-2.106.586" fill="none" stroke-width=".31880000000000003" stroke-linecap="round" stroke-linejoin="round" stroke="#000" stroke-miterlimit="10"/><path d="M277.715 89.36l52.758 53.503" fill="none" stroke-width=".3985" stroke="#000" stroke-miterlimit="10"/><path d="M330.77 140.89c-.356.493-.227 1.903-.086 2.184-.282-.14-1.692-.293-2.188.055" fill="none" stroke-width=".31880000000000003" stroke-linecap="round" stroke-linejoin="round" stroke="#000" stroke-miterlimit="10"/><use xlink:href="#l" x="3.32" y="43.971"/><use xlink:href="#m" x="9.014" y="45.465"/><use xlink:href="#n" x="464.308" y="45.285"/><use xlink:href="#l" x="463.675" y="45.285"/><use xlink:href="#m" x="469.369" y="46.779"/><use xlink:href="#l" x="3.32" y="83.655"/><use xlink:href="#o" x="9.014" y="85.15"/><use xlink:href="#n" x="464.308" y="84.97"/><use xlink:href="#l" x="463.675" y="84.97"/><use xlink:href="#o" x="469.369" y="86.464"/><use xlink:href="#l" x="3.32" y="123.34"/><use xlink:href="#p" x="9.014" y="124.835"/><use xlink:href="#n" x="464.308" y="124.655"/><use xlink:href="#l" x="463.675" y="124.655"/><use xlink:href="#p" x="469.369" y="126.149"/><use xlink:href="#l" x="3.32" y="163.025"/><use xlink:href="#q" x="9.014" y="164.519"/><use xlink:href="#n" x="464.308" y="164.34"/><use xlink:href="#l" x="463.675" y="164.34"/><use xlink:href="#q" x="469.369" y="165.834"/><use xlink:href="#l" x="3.32" y="202.71"/><use xlink:href="#r" x="9.014" y="204.204"/><use xlink:href="#n" x="464.308" y="204.024"/><use xlink:href="#l" x="463.675" y="204.024"/><use xlink:href="#r" x="469.369" y="205.519"/><use xlink:href="#s" x="14.358" y="25.304"/><use xlink:href="#t" x="17.126" y="25.304"/><use xlink:href="#i" x="22.661" y="25.304"/><use xlink:href="#u" x="28.196" y="25.304"/><use xlink:href="#v" x="33.732" y="25.304"/><use xlink:href="#w" x="436.51" y="25.304"/><use xlink:href="#u" x="441.492" y="25.304"/><use xlink:href="#v" x="447.027" y="25.304"/><use xlink:href="#i" x="450.901" y="25.304"/><g><use xlink:href="#u" x="456.436" y="25.304"/></g><g><use xlink:href="#v" x="461.972" y="25.304"/></g></svg>