<svg xmlns="http://www.w3.org/2000/svg" xmlns:xlink="http://www.w3.org/1999/xlink" width="297.811" height="284.527" viewBox="0 0 223.358 213.395"><defs><symbol overflow="visible" id="b"><path d="M5.719-6.984c-.094-.141-.094-.157-.235-.157-.687 0-1.906.282-2.421 1.125-.157-.28-.641-1.015-1.391-1.015-.688 0-1.125.625-1.125 1.203 0 .375.234.625.515.906.547.563.547.719.547 1.094 0 .594-.046 1.187-.484 1.187-.266 0-.313-.375-.328-.546 0-.079-.016-.157-.125-.157-.125 0-.125.11-.125.14 0 .188.094.782.578.782.813 0 .813-1.281.813-1.5 0-.312-.032-.687-.704-1.312-.28-.25-.39-.391-.39-.625 0-.422.297-.954.812-.954.516 0 .922.782.922 1.954v2.937c0 .094 0 1.922-.656 1.922-.36 0-.734-.313-.938-.938.016 0 .22-.062.22-.156 0-.062-.079-.11-.11-.11a1.01 1.01 0 0 0-.203.063C.875-1.203.828-1.312.75-1.312c-.047 0-.125.093-.125.14 0 .031.016.094.047.125-.063.016-.219.063-.219.156 0 .047.063.11.11.11A.88.88 0 0 0 .75-.844C1.063.016 1.578.22 1.922.22c.703 0 1.5-.906 1.5-2.938v-.719h1.14l.125 2.188c0 .063-.03.14-.03.328 0 .594.484 1.14 1.155 1.14.125 0 .157 0 .344-.14l.719-.562C6.985-.578 7-.594 7-.625c0-.078-.156-.14-.188-.14-.046 0-.406.28-.859.656A.946.946 0 0 1 5.5-.922c0-.187.031-.219.031-.328 0-.297-.047-.813-.062-1.125-.016-.203-.063-1-.063-1.14.563-.172 1.64-.813 1.657-.829a.106.106 0 0 0 .062-.093c0-.016-.063-.141-.078-.141zM6.28-4.25c-.922.5-1.125.5-1.422.5H3.422v-.484c0-.688-.094-1.079-.203-1.391.344-.953 1.64-1.14 1.64-1.14.032 0 .079.109.094.109zm0 0"/></symbol><symbol overflow="visible" id="g"><path d="M2.86-3.344c0-.078-.063-.11-.094-.11C1.25-3.546.859-4.546.859-5.14c0-.984.907-1.671 1.813-1.671.562 0 .89.359 1.312.906.454.562.938 1.172 1.782 1.172.703 0 1.14-.313 1.14-.704 0-.125-.093-.125-.156-.125-.125 0-.14.047-.156.141-.078.469-.782.469-.797.469-.14 0-.203-.031-.36-.328-.89-1.64-2.312-1.75-2.718-1.75-1.219 0-2.172.843-2.172 1.89 0 1.235 1.234 1.907 2.14 1.907.063 0 .172 0 .172-.11zM.812-1.828c-.172 0-.266 0-.266.11 0 .03 0 .109.094.109.343.03.671.046 1.437.75C3.141.109 3.36.109 4.156.109c.516 0 .938 0 1.422-.343.36-.235.64-.641.64-1.141 0-.36-.14-.563-.5-.969-.39-.437-.421-.61-.421-.844 0-.421.11-.89.469-.89.015 0 .75 0 .828.703.015.063.031.125.156.125s.156-.047.156-.14c0-.422-.453-.907-1.156-.907-.719 0-1.297.516-1.297 1.14 0 .407.234.657.531 1 .375.407.407.579.407.782 0 .922-1.032 1.25-1.22 1.25-.062 0-.327-.078-.655-.297-.172-.14-.454-.39-.5-.422-.72-.687-1.11-.984-1.797-.984zm0 0"/></symbol><symbol overflow="visible" id="u"><path d="M6.563-2.297c.171 0 .359 0 .359-.203 0-.188-.188-.188-.36-.188h-5.39c-.172 0-.344 0-.344.188 0 .203.172.203.344.203zm0 0"/></symbol><symbol overflow="visible" id="c"><path d="M3.297 2.39c0-.03 0-.046-.172-.218C1.891.922 1.562-.968 1.562-2.5c0-1.734.375-3.469 1.61-4.703.125-.125.125-.14.125-.172 0-.078-.031-.11-.094-.11-.11 0-1 .688-1.594 1.954C1.11-4.438.984-3.328.984-2.5c0 .781.11 1.984.657 3.125C2.25 1.844 3.094 2.5 3.203 2.5c.063 0 .094-.031.094-.11zm0 0"/></symbol><symbol overflow="visible" id="f"><path d="M2.875-2.5c0-.766-.11-1.969-.656-3.11C1.625-6.827.766-7.483.672-7.483a.107.107 0 0 0-.11.109c0 .031 0 .047.188.234.984.985 1.547 2.563 1.547 4.641 0 1.719-.36 3.469-1.594 4.719-.14.125-.14.14-.14.172 0 .062.046.109.109.109.094 0 1-.688 1.578-1.953.516-1.094.625-2.203.625-3.047zm0 0"/></symbol><symbol overflow="visible" id="n"><path d="M4.578-3.188c0-.796-.047-1.593-.39-2.328C3.733-6.484 2.905-6.64 2.5-6.64c-.61 0-1.328.266-1.75 1.188-.313.687-.36 1.469-.36 2.266 0 .75.032 1.64.454 2.406a1.83 1.83 0 0 0 1.64 1c.532 0 1.297-.203 1.735-1.157.312-.687.36-1.468.36-2.25zM2.484 0c-.39 0-.984-.25-1.156-1.203-.11-.594-.11-1.516-.11-2.11 0-.64 0-1.296.079-1.828.187-1.187.937-1.28 1.187-1.28.329 0 .985.187 1.172 1.171.11.563.11 1.313.11 1.938 0 .75 0 1.421-.11 2.062C3.5-.297 2.937 0 2.484 0zm0 0"/></symbol><symbol overflow="visible" id="d"><path d="M.453 1.219c-.078.343-.11.406-.547.406-.11 0-.218 0-.218.188 0 .078.046.125.124.125.266 0 .563-.032.829-.032.343 0 .671.032 1 .032.046 0 .171 0 .171-.204 0-.109-.093-.109-.234-.109-.5 0-.5-.063-.5-.156 0-.125.422-1.75.484-2 .125.297.407.64.922.64 1.157 0 2.407-1.453 2.407-2.921 0-.938-.579-1.594-1.329-1.594-.5 0-.984.36-1.312.75-.094-.547-.531-.75-.89-.75-.47 0-.657.39-.735.562-.188.344-.313.938-.313.969 0 .11.094.11.11.11.11 0 .11-.016.172-.235.172-.703.375-1.188.734-1.188.172 0 .313.079.313.454 0 .234-.032.343-.079.515zm1.75-4.328c.063-.266.344-.547.516-.704.36-.296.64-.374.812-.374.39 0 .64.343.64.937 0 .594-.327 1.734-.515 2.11-.344.702-.812 1.03-1.187 1.03-.656 0-.781-.828-.781-.89 0-.016 0-.031.03-.156zm0 0"/></symbol><symbol overflow="visible" id="p"><path d="M7.578-6.922c0-.031-.016-.11-.11-.11-.03 0-.046.016-.155.126l-.688.765c-.094-.14-.547-.89-1.656-.89C2.734-7.031.5-4.828.5-2.516.5-.875 1.672.22 3.203.22c.86 0 1.625-.39 2.156-.86.922-.812 1.094-1.718 1.094-1.75 0-.109-.11-.109-.125-.109-.062 0-.11.031-.125.11-.094.28-.328 1-1.016 1.578-.687.546-1.312.718-1.828.718-.89 0-1.953-.515-1.953-2.062 0-.578.203-2.188 1.203-3.36.61-.703 1.547-1.203 2.438-1.203 1.016 0 1.61.766 1.61 1.922 0 .406-.032.406-.032.516 0 .093.11.093.14.093.126 0 .126-.015.188-.203zm0 0"/></symbol><symbol overflow="visible" id="t"><path d="M7.063-2.328c.015-.047.046-.11.046-.14 0 0 0-.11-.125-.11-.093 0-.109.062-.125.125-.656 1.469-1.015 2.14-2.718 2.14H2.469c-.11-.015-.14-.03-.14-.109 0-.031 0-.047.046-.219l.688-2.734h.984c.844 0 .844.219.844.469 0 .062 0 .187-.063.484-.016.047-.031.078-.031.11 0 .046.031.109.125.109.078 0 .11-.047.156-.203l.563-2.328c0-.063-.047-.11-.125-.11-.079 0-.11.063-.125.172-.22.766-.391 1-1.313 1h-.937l.593-2.406c.094-.36.11-.39.547-.39h1.407c1.203 0 1.515.28 1.515 1.109 0 .234 0 .25-.047.53 0 .048-.015.126-.015.173 0 .047.03.125.125.125.109 0 .125-.063.14-.25l.203-1.735c.032-.265-.015-.265-.265-.265H2.297c-.188 0-.297 0-.297.203 0 .11.094.11.281.11.375 0 .656 0 .656.171 0 .047 0 .063-.062.25L1.562-.78c-.093.39-.109.469-.906.469-.172 0-.281 0-.281.187C.375 0 .469 0 .656 0h5.172c.234 0 .25-.016.313-.172zm0 0"/></symbol><symbol overflow="visible" id="e"><path d="M3.594-2.219c0-.765-.094-1.328-.406-1.812-.22-.313-.657-.594-1.204-.594C.36-4.625.36-2.719.36-2.219c0 .5 0 2.36 1.625 2.36 1.61 0 1.61-1.86 1.61-2.36zM1.984-.063c-.328 0-.75-.187-.89-.75C1-1.219 1-1.796 1-2.313c0-.515 0-1.046.094-1.421.156-.547.593-.704.89-.704.375 0 .735.235.86.641.11.375.125.875.125 1.485 0 .515 0 1.03-.094 1.468-.14.64-.61.781-.89.781zm0 0"/></symbol><symbol overflow="visible" id="q"><path d="M2.328-4.438c0-.187 0-.187-.203-.187-.453.438-1.078.438-1.36.438v.25c.157 0 .626 0 1-.188v3.547c0 .234 0 .328-.687.328H.812V0c.125 0 .985-.031 1.235-.031.219 0 1.094.031 1.25.031v-.25H3.03c-.703 0-.703-.094-.703-.328zm0 0"/></symbol><symbol overflow="visible" id="s"><path d="M3.516-1.266H3.28c-.015.157-.094.563-.187.625-.047.047-.578.047-.688.047H1.125c.734-.64.984-.844 1.39-1.172.516-.406 1-.843 1-1.5 0-.843-.734-1.359-1.624-1.359-.86 0-1.454.61-1.454 1.25 0 .344.297.39.376.39.156 0 .359-.124.359-.374 0-.125-.047-.375-.406-.375.218-.485.687-.641 1.015-.641.703 0 1.063.547 1.063 1.11 0 .609-.438 1.078-.656 1.328L.516-.266C.437-.203.437-.187.437 0h2.876zm0 0"/></symbol><symbol overflow="visible" id="h"><path d="M2.375-4.969a.304.304 0 0 0-.313-.312c-.203 0-.437.203-.437.437 0 .172.125.297.313.297.203 0 .437-.187.437-.422zM1.219-2.047L.78-.953a.927.927 0 0 0-.078.36c0 .39.297.671.719.671.781 0 1.11-1.11 1.11-1.219 0-.078-.063-.109-.126-.109-.094 0-.11.063-.14.14-.172.641-.5.97-.829.97-.093 0-.187-.047-.187-.25 0-.204.063-.344.156-.594.078-.204.157-.422.25-.641l.25-.64c.063-.188.172-.438.172-.579 0-.39-.328-.672-.734-.672-.766 0-1.11 1.11-1.11 1.22 0 .077.063.108.125.108.11 0 .11-.046.141-.124.219-.766.578-.985.828-.985.11 0 .188.047.188.266 0 .078-.016.187-.094.437zm0 0"/></symbol><symbol overflow="visible" id="i"><path d="M5.11-2.922c0-.234-.079-.594-.391-.594a.441.441 0 0 0-.422.422c0 .11.094.188.187.266.11.125.235.328.235.625 0 .531-.547 1.656-1.344 1.656-.422 0-.703-.234-.797-.625.125-.266.297-.703.297-.937 0-.125-.063-.235-.219-.235-.36 0-.406.89-.406 1.14-.281.329-.61.657-1.078.657-.5 0-.734-.406-.734-.875 0-.375.093-.703.25-1.016.234-.468.546-.765.546-.89a.157.157 0 0 0-.156-.156c-.156 0-.266.234-.36.375-.343.562-.593 1.312-.593 1.968 0 .61.234 1.22.938 1.22.687 0 1.078-.563 1.25-.782.124.437.437.781.937.781.64 0 .969-.422 1.297-.969.266-.421.562-1.53.562-2.03zm0 0"/></symbol><symbol overflow="visible" id="j"><path d="M4.39-1.11c.079 0 .204 0 .204-.14s-.125-.14-.203-.14H1.016c-.079 0-.22 0-.22.14s.141.14.22.14zm0 0"/></symbol><symbol overflow="visible" id="k"><path d="M1.64-1.656c.47 0 .766.297.766.781 0 .516-.312.781-.75.781-.062 0-.656 0-.906-.265.203-.032.266-.172.266-.297A.304.304 0 0 0 .703-.97c-.156 0-.297.11-.297.328 0 .516.578.75 1.266.75.812 0 1.312-.5 1.312-.984 0-.406-.359-.75-.921-.875.593-.203.75-.578.75-.86 0-.406-.5-.703-1.126-.703-.625 0-1.109.25-1.109.704a.28.28 0 0 0 .281.296c.141 0 .282-.109.282-.296 0-.11-.063-.25-.235-.282.203-.218.656-.234.766-.234.36 0 .61.172.61.516 0 .296-.188.75-.704.78-.14 0-.156 0-.297.016-.047 0-.11 0-.11.079 0 .078.048.078.141.078zm0 0"/></symbol><symbol overflow="visible" id="l"><path d="M2.938-.969h-.22c0 .094-.062.406-.14.453-.031.032-.453.032-.531.032h-.969c.328-.235.688-.516.984-.72.454-.312.876-.593.876-1.124 0-.64-.61-.985-1.313-.985-.672 0-1.172.376-1.172.876 0 .25.219.296.297.296a.283.283 0 0 0 .281-.296.27.27 0 0 0-.281-.282c.14-.234.438-.375.766-.375.484 0 .89.281.89.766 0 .422-.297.75-.672 1.062L.516-.234c-.047.047-.063.047-.063.078V0h2.313zm0 0"/></symbol><symbol overflow="visible" id="m"><path d="M1.984-3.172c0-.14-.015-.14-.187-.14C1.453-3 .89-3 .797-3H.719v.219h.078c.11 0 .437-.016.734-.14v2.5c0 .14 0 .202-.531.202H.75V0c.266-.016.719-.016 1-.016.297 0 .734 0 1.016.016v-.219h-.25c-.532 0-.532-.062-.532-.203zm0 0"/></symbol><clipPath id="a"><path d="M100 93h123.36v27H100zm0 0"/></clipPath><clipPath id="o"><path d="M105 0h118.36v213.395H105zm0 0"/></clipPath><clipPath id="r"><path d="M0 0h118v213.395H0zm0 0"/></clipPath></defs><path d="M1.125 106.695l1.496-1.992 2.988 3.988 2.989-3.988 2.988 3.988 2.992-3.988 2.988 3.988 2.989-3.988 2.988 3.988 2.988-3.988 2.989 3.988 2.988-3.988 2.992 3.988 2.988-3.988 2.989 3.988 2.988-3.988 2.988 3.988 2.988-3.988 2.989 3.988 2.992-3.988 2.988 3.988 2.988-3.988 2.989 3.988 2.988-3.988 2.988 3.988 2.989-3.988 2.992 3.988 2.988-3.988 2.988 3.988 2.989-3.988 2.988 3.988 2.988-3.988 2.988 3.988 2.989-3.988 1.496 1.992h11.922" fill="none" stroke-width="0.79701" stroke="rgb(0%,0%,0%)" stroke-miterlimit="10"/><g clip-path="url(#a)"><path d="M111.68 106.695h9.96l1.497-1.992 2.988 3.988 2.988-3.988 2.989 3.988 2.988-3.988 2.992 3.988 2.988-3.988 2.989 3.988 2.988-3.988 2.988 3.988 2.988-3.988 2.989 3.988 2.992-3.988 2.988 3.988 2.988-3.988 2.989 3.988 2.988-3.988 2.988 3.988 2.989-3.988 2.992 3.988 2.988-3.988 2.988 3.988 2.989-3.988 2.988 3.988 2.988-3.988 2.988 3.988 2.993-3.988 2.988 3.988 2.988-3.988 2.988 3.988 2.989-3.988 2.988 3.988 1.496-1.996h4.238" fill="none" stroke-width="0.79701" stroke="rgb(0%,0%,0%)" stroke-miterlimit="10"/></g><path d="M219.969 104.625c.129.777 1.554 1.941 1.945 2.07-.39.133-1.816 1.297-1.945 2.075" fill="none" stroke-width="0.6376" stroke-linecap="round" stroke-linejoin="round" stroke="rgb(0%,0%,0%)" stroke-miterlimit="10"/><use xlink:href="#b" x="194.085" y="100.488" fill="rgb(0%,0%,0%)"/><use xlink:href="#c" x="201.28" y="100.488" fill="rgb(0%,0%,0%)"/><use xlink:href="#d" x="205.155" y="100.488" fill="rgb(0%,0%,0%)"/><use xlink:href="#e" x="210.167" y="101.982" fill="rgb(0%,0%,0%)"/><use xlink:href="#f" x="214.637" y="100.488" fill="rgb(0%,0%,0%)"/><path d="M111.68 211.582V2.52" fill="none" stroke-width="0.79701" stroke="rgb(0%,0%,0%)" stroke-miterlimit="10"/><path d="M109.605 4.074c.778-.129 1.946-1.554 2.075-1.941.129.387 1.293 1.812 2.07 1.941" fill="none" stroke-width="0.6376" stroke-linecap="round" stroke-linejoin="round" stroke="rgb(0%,0%,0%)" stroke-miterlimit="10"/><use xlink:href="#g" x="81.53" y="15.011" fill="rgb(0%,0%,0%)"/><use xlink:href="#c" x="88.725" y="15.011" fill="rgb(0%,0%,0%)"/><use xlink:href="#d" x="92.599" y="15.011" fill="rgb(0%,0%,0%)"/><use xlink:href="#e" x="97.612" y="16.505" fill="rgb(0%,0%,0%)"/><use xlink:href="#f" x="102.081" y="15.011" fill="rgb(0%,0%,0%)"/><path d="M112.676 191.738a.995.995 0 1 0-1.99-.001.995.995 0 0 0 1.99.001zm0 0" fill="rgb(0%,0%,0%)" stroke-width="0.79701" stroke="rgb(0%,0%,0%)" stroke-miterlimit="10"/><g fill="rgb(0%,0%,0%)"><use xlink:href="#h" x="118.233" y="192.827"/><use xlink:href="#i" x="121.116" y="192.827"/></g><use xlink:href="#j" x="126.381" y="195.085" fill="rgb(0%,0%,0%)"/><use xlink:href="#k" x="131.778" y="195.085" fill="rgb(0%,0%,0%)"/><path d="M112.676 163.39a.995.995 0 1 0-1.99-.001.995.995 0 0 0 1.99.002zm0 0" fill="rgb(0%,0%,0%)" stroke-width="0.79701" stroke="rgb(0%,0%,0%)" stroke-miterlimit="10"/><g fill="rgb(0%,0%,0%)"><use xlink:href="#h" x="118.233" y="164.48"/><use xlink:href="#i" x="121.116" y="164.48"/></g><use xlink:href="#j" x="126.382" y="166.739" fill="rgb(0%,0%,0%)"/><use xlink:href="#l" x="131.778" y="166.739" fill="rgb(0%,0%,0%)"/><path d="M112.676 135.043a.995.995 0 1 0-1.99-.002.995.995 0 0 0 1.99.002zm0 0" fill="rgb(0%,0%,0%)" stroke-width="0.79701" stroke="rgb(0%,0%,0%)" stroke-miterlimit="10"/><g fill="rgb(0%,0%,0%)"><use xlink:href="#h" x="118.233" y="136.134"/><use xlink:href="#i" x="121.116" y="136.134"/></g><use xlink:href="#j" x="126.382" y="138.392" fill="rgb(0%,0%,0%)"/><use xlink:href="#m" x="131.778" y="138.392" fill="rgb(0%,0%,0%)"/><path d="M112.676 78.352a.995.995 0 1 0-1.99-.002.995.995 0 0 0 1.99.002zm0 0" fill="rgb(0%,0%,0%)" stroke-width="0.79701" stroke="rgb(0%,0%,0%)" stroke-miterlimit="10"/><g fill="rgb(0%,0%,0%)"><use xlink:href="#h" x="118.233" y="79.912"/><use xlink:href="#i" x="121.116" y="79.912"/></g><use xlink:href="#m" x="126.382" y="82.059" fill="rgb(0%,0%,0%)"/><path d="M112.676 50.004a.995.995 0 1 0-1.99-.002.995.995 0 0 0 1.99.002zm0 0" fill="rgb(0%,0%,0%)" stroke-width="0.79701" stroke="rgb(0%,0%,0%)" stroke-miterlimit="10"/><g fill="rgb(0%,0%,0%)"><use xlink:href="#h" x="118.233" y="51.565"/><use xlink:href="#i" x="121.116" y="51.565"/></g><use xlink:href="#l" x="126.382" y="53.713" fill="rgb(0%,0%,0%)"/><path d="M112.676 21.656a.995.995 0 1 0-1.99-.001.995.995 0 0 0 1.99.001zm0 0" fill="rgb(0%,0%,0%)" stroke-width="0.79701" stroke="rgb(0%,0%,0%)" stroke-miterlimit="10"/><g fill="rgb(0%,0%,0%)"><use xlink:href="#h" x="118.233" y="23.219"/><use xlink:href="#i" x="121.116" y="23.219"/></g><use xlink:href="#k" x="126.382" y="25.366" fill="rgb(0%,0%,0%)"/><path d="M112.676 106.695a.998.998 0 0 0-.996-.996.995.995 0 1 0 .996.996zm0 0" fill="rgb(0%,0%,0%)" stroke-width="0.79701" stroke="rgb(0%,0%,0%)" stroke-miterlimit="10"/><use xlink:href="#n" x="117.403" y="100.974" fill="rgb(0%,0%,0%)"/><g clip-path="url(#o)"><path d="M116.66 212.996V.395c58.711 0 106.3 47.593 106.3 106.3 0 58.711-47.589 106.301-106.3 106.301" fill="none" stroke-width="0.79701" stroke="rgb(0%,0%,54.499817%)" stroke-miterlimit="10"/></g><path d="M114.59 160.598c.777-.133 1.941-1.555 2.07-1.946.13.391 1.297 1.813 2.074 1.946" fill="none" stroke-width="0.6376" stroke-linecap="round" stroke-linejoin="round" stroke="rgb(0%,0%,54.499817%)" stroke-miterlimit="10"/><path d="M114.59 23.95c.777-.134 1.941-1.555 2.07-1.946.13.39 1.297 1.812 2.074 1.945" fill="none" stroke-width="0.6376" stroke-linecap="round" stroke-linejoin="round" stroke="rgb(0%,0%,54.499817%)" stroke-miterlimit="10"/><path d="M211.46 54.094c-.624.48-.991 2.285-.92 2.687-.298-.281-1.997-.996-2.743-.746" fill="none" stroke-width=".6375808719999999" stroke-linecap="round" stroke-linejoin="round" stroke="rgb(0%,0%,54.499817%)" stroke-miterlimit="10"/><path d="M193.812 182.836c-.632-.469-2.468-.309-2.835-.133.187-.363.398-2.191-.051-2.84" fill="none" stroke-width=".63756812" stroke-linecap="round" stroke-linejoin="round" stroke="rgb(0%,0%,54.499817%)" stroke-miterlimit="10"/><use xlink:href="#p" x="120.379" y="207.783" fill="rgb(0%,0%,54.499817%)"/><use xlink:href="#q" x="127.5" y="209.277" fill="rgb(0%,0%,54.499817%)"/><g clip-path="url(#r)"><path d="M106.7.395v212.601c-58.712 0-106.302-47.59-106.302-106.3C.398 47.987 47.988.394 106.7.394" fill="none" stroke-width="0.79701" stroke="rgb(0%,0%,54.499817%)" stroke-miterlimit="10"/></g><path d="M108.77 52.797c-.778.129-1.942 1.555-2.07 1.945-.134-.39-1.298-1.816-2.075-1.945" fill="none" stroke-width="0.6376" stroke-linecap="round" stroke-linejoin="round" stroke="rgb(0%,0%,54.499817%)" stroke-miterlimit="10"/><path d="M108.77 189.445c-.778.133-1.942 1.555-2.07 1.946-.134-.391-1.298-1.813-2.075-1.946" fill="none" stroke-width="0.6376" stroke-linecap="round" stroke-linejoin="round" stroke="rgb(0%,0%,54.499817%)" stroke-miterlimit="10"/><path d="M11.898 159.297c.625-.477.989-2.281.922-2.684.297.282 1.993.996 2.742.746" fill="none" stroke-width=".6375808719999999" stroke-linecap="round" stroke-linejoin="round" stroke="rgb(0%,0%,54.499817%)" stroke-miterlimit="10"/><path d="M29.543 30.559c.637.464 2.469.308 2.84.132-.192.364-.399 2.192.05 2.84" fill="none" stroke-width=".63756812" stroke-linecap="round" stroke-linejoin="round" stroke="rgb(0%,0%,54.499817%)" stroke-miterlimit="10"/><use xlink:href="#p" x="91.389" y="207.783" fill="rgb(0%,0%,54.499817%)"/><use xlink:href="#s" x="98.509" y="209.277" fill="rgb(0%,0%,54.499817%)"/><path d="M162.781 85.438c0-.825-.672-1.497-1.496-1.497a1.495 1.495 0 0 0 0 2.989c.824 0 1.496-.668 1.496-1.493zm0 0" fill="rgb(0%,0%,0%)" stroke-width="0.79701" stroke="rgb(0%,0%,0%)" stroke-miterlimit="10"/><use xlink:href="#t" x="165.004" y="88.841" fill="rgb(0%,0%,0%)"/><path d="M63.566 127.957c0-.824-.668-1.496-1.496-1.496a1.495 1.495 0 1 0 1.496 1.496zm0 0" fill="rgb(0%,0%,0%)" stroke-width="0.79701" stroke="rgb(0%,0%,0%)" stroke-miterlimit="10"/><use xlink:href="#u" x="42.676" y="130.946" fill="rgb(0%,0%,0%)"/><use xlink:href="#t" x="50.425" y="130.946" fill="rgb(0%,0%,0%)"/></svg>