<svg xmlns="http://www.w3.org/2000/svg" xmlns:xlink="http://www.w3.org/1999/xlink" width="297.813" height="213.4pt" viewBox="0 0 223.36 213.4"><defs><symbol overflow="visible" id="b"><path d="M2.234-3.516v-2.578c0-.234 0-.36.22-.39.093-.016.39-.016.593-.016.89 0 2 .047 2 1.484 0 .688-.234 1.5-1.703 1.5zm2.11.125c.953-.234 1.734-.843 1.734-1.625 0-.953-1.14-1.796-2.594-1.796H.344v.312h.25c.765 0 .781.11.781.469v5.25c0 .36-.016.469-.781.469h-.25V0c.36-.031 1.078-.031 1.453-.031.39 0 1.11 0 1.469.031v-.313h-.25c-.766 0-.782-.109-.782-.468v-2.516h1.141c.156 0 .578 0 .938.344.375.344.375.656.375 1.328 0 .64 0 1.047.406 1.422.406.36.953.422 1.25.422.781 0 .953-.813.953-1.094 0-.063 0-.172-.125-.172-.11 0-.11.094-.125.156C6.984-.17 6.64 0 6.39 0c-.485 0-.563-.516-.704-1.438l-.14-.796c-.172-.641-.656-.97-1.203-1.157zm0 0"/></symbol><symbol overflow="visible" id="c"><path d="M1.11-2.516C1.171-4 2.015-4.25 2.36-4.25c1.015 0 1.124 1.344 1.124 1.734zm0 .22h2.78c.22 0 .25 0 .25-.22 0-.984-.546-1.953-1.78-1.953C1.202-4.469.28-3.437.28-2.187.281-.86 1.328.108 2.47.108 3.688.11 4.14-1 4.14-1.187c0-.094-.079-.125-.141-.125-.078 0-.11.062-.125.14C3.531-.14 2.625-.14 2.531-.14c-.5 0-.89-.296-1.125-.671-.297-.47-.297-1.125-.297-1.485zm0 0"/></symbol><symbol overflow="visible" id="d"><path d="M3.297 2.39c0-.03 0-.046-.172-.218C1.891.922 1.562-.968 1.562-2.5c0-1.734.375-3.469 1.61-4.703.125-.125.125-.14.125-.172 0-.078-.031-.11-.094-.11-.11 0-1 .688-1.594 1.954C1.11-4.438.984-3.328.984-2.5c0 .781.11 1.984.657 3.125C2.25 1.844 3.094 2.5 3.203 2.5c.063 0 .094-.031.094-.11zm0 0"/></symbol><symbol overflow="visible" id="g"><path d="M2.875-2.5c0-.766-.11-1.969-.656-3.11C1.625-6.827.766-7.483.672-7.483a.107.107 0 00-.11.109c0 .031 0 .047.188.234.984.985 1.547 2.563 1.547 4.641 0 1.719-.36 3.469-1.594 4.719-.14.125-.14.14-.14.172 0 .062.046.109.109.109.094 0 1-.688 1.578-1.953.516-1.094.625-2.203.625-3.047zm0 0"/></symbol><symbol overflow="visible" id="h"><path d="M2.25-6.031c0-.36.016-.469.813-.469h.25v-.313c-.344.032-1.126.032-1.516.032-.375 0-1.172 0-1.516-.032v.313h.25c.797 0 .828.11.828.469v5.25c0 .36-.03.469-.828.469h-.25V0c.344-.031 1.14-.031 1.516-.031.39 0 1.172 0 1.516.031v-.313h-.25c-.797 0-.813-.109-.813-.468zm0 0"/></symbol><symbol overflow="visible" id="i"><path d="M1.094-3.422V-.75c0 .438-.11.438-.782.438V0c.36-.016.86-.031 1.141-.031.25 0 .766.015 1.11.031v-.313c-.672 0-.782 0-.782-.437v-1.844c0-1.031.719-1.594 1.344-1.594.64 0 .75.532.75 1.11V-.75c0 .438-.11.438-.781.438V0c.344-.016.86-.031 1.125-.031.25 0 .781.015 1.11.031v-.313c-.657 0-.766 0-.766-.437v-1.844c0-1.031.703-1.594 1.343-1.594.625 0 .735.532.735 1.11V-.75c0 .438-.11.438-.782.438V0c.344-.016.86-.031 1.125-.031.266 0 .782.015 1.125.031v-.313c-.515 0-.765 0-.78-.296v-1.907c0-.859 0-1.156-.313-1.515-.141-.172-.47-.375-1.047-.375-.828 0-1.282.593-1.438.984-.14-.875-.875-.984-1.328-.984-.734 0-1.203.422-1.484 1.047v-1.047l-1.407.11v.312c.704 0 .782.062.782.562zm0 0"/></symbol><symbol overflow="visible" id="p"><path d="M4.578-3.188c0-.796-.047-1.593-.39-2.328C3.733-6.484 2.905-6.64 2.5-6.64c-.61 0-1.328.266-1.75 1.188-.313.687-.36 1.469-.36 2.266 0 .75.032 1.64.454 2.406a1.83 1.83 0 001.64 1c.532 0 1.297-.203 1.735-1.157.312-.687.36-1.468.36-2.25zM2.484 0c-.39 0-.984-.25-1.156-1.203-.11-.594-.11-1.516-.11-2.11 0-.64 0-1.296.079-1.828.187-1.187.937-1.28 1.187-1.28.329 0 .985.187 1.172 1.171.11.563.11 1.313.11 1.938 0 .75 0 1.421-.11 2.062C3.5-.297 2.937 0 2.484 0zm0 0"/></symbol><symbol overflow="visible" id="e"><path d="M.453 1.219c-.078.343-.11.406-.547.406-.11 0-.218 0-.218.188 0 .078.046.125.124.125.266 0 .563-.032.829-.032.343 0 .671.032 1 .032.046 0 .171 0 .171-.204 0-.109-.093-.109-.234-.109-.5 0-.5-.063-.5-.156 0-.125.422-1.75.484-2 .125.297.407.64.922.64 1.157 0 2.407-1.453 2.407-2.921 0-.938-.579-1.594-1.329-1.594-.5 0-.984.36-1.312.75-.094-.547-.531-.75-.89-.75-.47 0-.657.39-.735.562-.188.344-.313.938-.313.969 0 .11.094.11.11.11.11 0 .11-.016.172-.235.172-.703.375-1.188.734-1.188.172 0 .313.079.313.454 0 .234-.032.343-.079.515zm1.75-4.328c.063-.266.344-.547.516-.704.36-.296.64-.374.812-.374.39 0 .64.343.64.937 0 .594-.327 1.734-.515 2.11-.344.702-.812 1.03-1.187 1.03-.656 0-.781-.828-.781-.89 0-.016 0-.031.03-.156zm0 0"/></symbol><symbol overflow="visible" id="r"><path d="M7.578-6.922c0-.031-.016-.11-.11-.11-.03 0-.046.016-.155.126l-.688.765c-.094-.14-.547-.89-1.656-.89C2.734-7.031.5-4.828.5-2.516.5-.875 1.672.22 3.203.22c.86 0 1.625-.39 2.156-.86.922-.812 1.094-1.718 1.094-1.75 0-.109-.11-.109-.125-.109-.062 0-.11.031-.125.11-.094.28-.328 1-1.016 1.578-.687.546-1.312.718-1.828.718-.89 0-1.953-.515-1.953-2.062 0-.578.203-2.188 1.203-3.36.61-.703 1.547-1.203 2.438-1.203 1.016 0 1.61.766 1.61 1.922 0 .406-.032.406-.032.516 0 .093.11.093.14.093.126 0 .126-.015.188-.203zm0 0"/></symbol><symbol overflow="visible" id="v"><path d="M7.063-2.328c.015-.047.046-.11.046-.14 0 0 0-.11-.125-.11-.093 0-.109.062-.125.125-.656 1.469-1.015 2.14-2.718 2.14H2.469c-.11-.015-.14-.03-.14-.109 0-.031 0-.047.046-.219l.688-2.734h.984c.844 0 .844.219.844.469 0 .062 0 .187-.063.484-.016.047-.031.078-.031.11 0 .046.031.109.125.109.078 0 .11-.047.156-.203l.563-2.328c0-.063-.047-.11-.125-.11-.079 0-.11.063-.125.172-.22.766-.391 1-1.313 1h-.937l.593-2.406c.094-.36.11-.39.547-.39h1.407c1.203 0 1.515.28 1.515 1.109 0 .234 0 .25-.047.53 0 .048-.015.126-.015.173 0 .047.03.125.125.125.109 0 .125-.063.14-.25l.203-1.735c.032-.265-.015-.265-.265-.265H2.297c-.188 0-.297 0-.297.203 0 .11.094.11.281.11.375 0 .656 0 .656.171 0 .047 0 .063-.062.25L1.562-.78c-.093.39-.109.469-.906.469-.172 0-.281 0-.281.187C.375 0 .469 0 .656 0h5.172c.234 0 .25-.016.313-.172zm0 0"/></symbol><symbol overflow="visible" id="f"><path d="M3.594-2.219c0-.765-.094-1.328-.406-1.812-.22-.313-.657-.594-1.204-.594C.36-4.625.36-2.719.36-2.219c0 .5 0 2.36 1.625 2.36 1.61 0 1.61-1.86 1.61-2.36zM1.984-.063c-.328 0-.75-.187-.89-.75C1-1.219 1-1.796 1-2.313c0-.515 0-1.046.094-1.421.156-.547.593-.704.89-.704.375 0 .735.235.86.641.11.375.125.875.125 1.485 0 .515 0 1.03-.094 1.468-.14.64-.61.781-.89.781zm0 0"/></symbol><symbol overflow="visible" id="s"><path d="M2.328-4.438c0-.187 0-.187-.203-.187-.453.438-1.078.438-1.36.438v.25c.157 0 .626 0 1-.188v3.547c0 .234 0 .328-.687.328H.812V0c.125 0 .985-.031 1.235-.031.219 0 1.094.031 1.25.031v-.25H3.03c-.703 0-.703-.094-.703-.328zm0 0"/></symbol><symbol overflow="visible" id="u"><path d="M3.516-1.266H3.28c-.015.157-.094.563-.187.625-.047.047-.578.047-.688.047H1.125c.734-.64.984-.844 1.39-1.172.516-.406 1-.843 1-1.5 0-.843-.734-1.359-1.624-1.359-.86 0-1.454.61-1.454 1.25 0 .344.297.39.376.39.156 0 .359-.124.359-.374 0-.125-.047-.375-.406-.375.218-.485.687-.641 1.015-.641.703 0 1.063.547 1.063 1.11 0 .609-.438 1.078-.656 1.328L.516-.266C.437-.203.437-.187.437 0h2.876zm0 0"/></symbol><symbol overflow="visible" id="j"><path d="M2.375-4.969a.304.304 0 00-.313-.312c-.203 0-.437.203-.437.437 0 .172.125.297.313.297.203 0 .437-.187.437-.422zM1.219-2.047L.78-.953a.927.927 0 00-.078.36c0 .39.297.671.719.671.781 0 1.11-1.11 1.11-1.219 0-.078-.063-.109-.126-.109-.094 0-.11.063-.14.14-.172.641-.5.97-.829.97-.093 0-.187-.047-.187-.25 0-.204.063-.344.156-.594.078-.204.157-.422.25-.641l.25-.64c.063-.188.172-.438.172-.579 0-.39-.328-.672-.734-.672-.766 0-1.11 1.11-1.11 1.22 0 .077.063.108.125.108.11 0 .11-.046.141-.124.219-.766.578-.985.828-.985.11 0 .188.047.188.266 0 .078-.016.187-.094.437zm0 0"/></symbol><symbol overflow="visible" id="k"><path d="M5.11-2.922c0-.234-.079-.594-.391-.594a.441.441 0 00-.422.422c0 .11.094.188.187.266.11.125.235.328.235.625 0 .531-.547 1.656-1.344 1.656-.422 0-.703-.234-.797-.625.125-.266.297-.703.297-.937 0-.125-.063-.235-.219-.235-.36 0-.406.89-.406 1.14-.281.329-.61.657-1.078.657-.5 0-.734-.406-.734-.875 0-.375.093-.703.25-1.016.234-.468.546-.765.546-.89a.157.157 0 00-.156-.156c-.156 0-.266.234-.36.375-.343.562-.593 1.312-.593 1.968 0 .61.234 1.22.938 1.22.687 0 1.078-.563 1.25-.782.124.437.437.781.937.781.64 0 .969-.422 1.297-.969.266-.421.562-1.53.562-2.03zm0 0"/></symbol><symbol overflow="visible" id="l"><path d="M4.39-1.11c.079 0 .204 0 .204-.14s-.125-.14-.203-.14H1.016c-.079 0-.22 0-.22.14s.141.14.22.14zm0 0"/></symbol><symbol overflow="visible" id="m"><path d="M1.64-1.656c.47 0 .766.297.766.781 0 .516-.312.781-.75.781-.062 0-.656 0-.906-.265.203-.032.266-.172.266-.297A.304.304 0 00.703-.97c-.156 0-.297.11-.297.328 0 .516.578.75 1.266.75.812 0 1.312-.5 1.312-.984 0-.406-.359-.75-.921-.875.593-.203.75-.578.75-.86 0-.406-.5-.703-1.126-.703-.625 0-1.109.25-1.109.704a.28.28 0 00.281.296c.141 0 .282-.109.282-.296 0-.11-.063-.25-.235-.282.203-.218.656-.234.766-.234.36 0 .61.172.61.516 0 .296-.188.75-.704.78-.14 0-.156 0-.297.016-.047 0-.11 0-.11.079 0 .078.048.078.141.078zm0 0"/></symbol><symbol overflow="visible" id="n"><path d="M2.938-.969h-.22c0 .094-.062.406-.14.453-.031.032-.453.032-.531.032h-.969c.328-.235.688-.516.984-.72.454-.312.876-.593.876-1.124 0-.64-.61-.985-1.313-.985-.672 0-1.172.376-1.172.876 0 .25.219.296.297.296a.283.283 0 00.281-.296.27.27 0 00-.281-.282c.14-.234.438-.375.766-.375.484 0 .89.281.89.766 0 .422-.297.75-.672 1.062L.516-.234c-.047.047-.063.047-.063.078V0h2.313zm0 0"/></symbol><symbol overflow="visible" id="o"><path d="M1.984-3.172c0-.14-.015-.14-.187-.14C1.453-3 .89-3 .797-3H.719v.219h.078c.11 0 .437-.016.734-.14v2.5c0 .14 0 .202-.531.202H.75V0c.266-.016.719-.016 1-.016.297 0 .734 0 1.016.016v-.219h-.25c-.532 0-.532-.062-.532-.203zm0 0"/></symbol><symbol overflow="visible" id="w"><path d="M6.563-2.297c.171 0 .359 0 .359-.203 0-.188-.188-.188-.36-.188h-5.39c-.172 0-.344 0-.344.188 0 .203.172.203.344.203zm0 0"/></symbol><clipPath id="a"><path d="M100 93h123.36v27H100zm0 0"/></clipPath><clipPath id="q"><path d="M105 0h118.36v213.398H105zm0 0"/></clipPath><clipPath id="t"><path d="M0 0h118v213.398H0zm0 0"/></clipPath></defs><path d="M1.125 106.703l1.496-1.992 2.988 3.984 2.989-3.984 2.988 3.984 2.992-3.984 2.988 3.984 2.989-3.984 2.988 3.984 2.988-3.984 2.989 3.984 2.988-3.984 2.988 3.984 2.992-3.984 2.989 3.984 2.988-3.984 2.988 3.984 2.988-3.984 2.989 3.984 2.988-3.984 2.992 3.984 2.988-3.984 2.989 3.984 2.988-3.984 2.988 3.984 2.989-3.984 2.992 3.984 2.988-3.984 2.988 3.984 2.989-3.984 2.988 3.984 2.988-3.984 2.988 3.984 2.993-3.984 1.492 1.992h11.922" fill="none" stroke-width=".797" stroke="#000" stroke-miterlimit="10"/><g clip-path="url(#a)"><path d="M111.68 106.703h9.96l1.497-1.992 2.988 3.984 2.988-3.984 2.989 3.984 2.988-3.984 2.988 3.984 2.992-3.984 2.989 3.984 2.988-3.984 2.988 3.984 2.988-3.984 2.989 3.984 2.992-3.984 2.988 3.984 2.988-3.984 2.989 3.984 2.988-3.984 2.988 3.984 2.989-3.984 2.992 3.984 2.988-3.984 2.988 3.984 2.989-3.984 2.988 3.984 2.988-3.984 2.988 3.984 2.993-3.984 2.988 3.984 2.988-3.984 2.988 3.984 2.989-3.984 2.988 3.984 1.496-1.992h4.238" fill="none" stroke-width=".797" stroke="#000" stroke-miterlimit="10"/></g><path d="M219.969 104.629c.129.777 1.554 1.945 1.945 2.074-.39.129-1.816 1.293-1.945 2.07" fill="none" stroke-width=".6376000000000001" stroke-linecap="round" stroke-linejoin="round" stroke="#000" stroke-miterlimit="10"/><use xlink:href="#b" x="189.519" y="100.493"/><use xlink:href="#c" x="196.852" y="100.493"/><use xlink:href="#d" x="201.28" y="100.493"/><use xlink:href="#e" x="205.155" y="100.493"/><use xlink:href="#f" x="210.167" y="101.987"/><use xlink:href="#g" x="214.637" y="100.493"/><path d="M111.68 211.586V2.527" fill="none" stroke-width=".797" stroke="#000" stroke-miterlimit="10"/><path d="M109.605 4.078c.778-.129 1.946-1.55 2.075-1.941.129.39 1.293 1.812 2.07 1.941" fill="none" stroke-width=".6376000000000001" stroke-linecap="round" stroke-linejoin="round" stroke="#000" stroke-miterlimit="10"/><use xlink:href="#h" x="76.825" y="15.016"/><use xlink:href="#i" x="80.422" y="15.016"/><use xlink:href="#d" x="88.724" y="15.016"/><use xlink:href="#e" x="92.599" y="15.016"/><use xlink:href="#f" x="97.612" y="16.51"/><use xlink:href="#g" x="102.081" y="15.016"/><path d="M112.676 191.742a.995.995 0 10-1.99-.001.995.995 0 001.99.001zm0 0" stroke-width=".797" stroke="#000" stroke-miterlimit="10"/><use xlink:href="#j" x="118.233" y="192.832"/><use xlink:href="#k" x="122.056" y="192.832"/><use xlink:href="#l" x="127.322" y="195.09"/><use xlink:href="#m" x="132.719" y="195.09"/><path d="M112.676 163.395a.995.995 0 10-1.99-.002.995.995 0 001.99.002zm0 0" stroke-width=".797" stroke="#000" stroke-miterlimit="10"/><use xlink:href="#j" x="118.233" y="164.485"/><use xlink:href="#k" x="122.056" y="164.485"/><use xlink:href="#l" x="127.322" y="166.744"/><use xlink:href="#n" x="132.719" y="166.744"/><path d="M112.676 135.047a.998.998 0 00-.996-.996.995.995 0 10.996.996zm0 0" stroke-width=".797" stroke="#000" stroke-miterlimit="10"/><use xlink:href="#j" x="118.233" y="136.139"/><use xlink:href="#k" x="122.056" y="136.139"/><use xlink:href="#l" x="127.322" y="138.397"/><use xlink:href="#o" x="132.719" y="138.397"/><path d="M112.676 78.355a.995.995 0 10-1.99-.001.995.995 0 001.99.001zm0 0" stroke-width=".797" stroke="#000" stroke-miterlimit="10"/><use xlink:href="#j" x="118.233" y="79.917"/><use xlink:href="#k" x="122.056" y="79.917"/><use xlink:href="#o" x="127.322" y="82.064"/><path d="M112.676 50.008a.995.995 0 10-1.99-.002.995.995 0 001.99.002zm0 0" stroke-width=".797" stroke="#000" stroke-miterlimit="10"/><use xlink:href="#j" x="118.233" y="51.57"/><use xlink:href="#k" x="122.056" y="51.57"/><use xlink:href="#n" x="127.322" y="53.718"/><path d="M112.676 21.66a.995.995 0 10-1.99-.002.995.995 0 001.99.002zm0 0" stroke-width=".797" stroke="#000" stroke-miterlimit="10"/><use xlink:href="#j" x="118.233" y="23.224"/><use xlink:href="#k" x="122.056" y="23.224"/><use xlink:href="#m" x="127.322" y="25.371"/><path d="M112.676 106.703a.995.995 0 10-1.99-.002.995.995 0 001.99.002zm0 0" stroke-width=".797" stroke="#000" stroke-miterlimit="10"/><use xlink:href="#p" x="117.403" y="100.979"/><g clip-path="url(#q)"><path d="M116.66 213.004V.402c58.707 0 106.3 47.59 106.3 106.301 0 58.707-47.593 106.3-106.3 106.3" fill="none" stroke-width=".797" stroke="#009" stroke-miterlimit="10"/></g><path d="M114.59 160.602c.773-.13 1.941-1.555 2.07-1.942.13.387 1.293 1.813 2.07 1.942M114.59 23.953c.773-.129 1.941-1.555 2.07-1.941.13.386 1.293 1.812 2.07 1.941M211.46 54.102c-.624.476-.991 2.28-.92 2.683-.298-.281-1.993-.996-2.743-.746M193.813 182.84c-.633-.465-2.465-.309-2.836-.13.187-.366.398-2.194-.051-2.843" fill="none" stroke-width=".6376000000000001" stroke-linecap="round" stroke-linejoin="round" stroke="#009" stroke-miterlimit="10"/><use xlink:href="#r" x="120.379" y="207.788" fill="#009"/><use xlink:href="#s" x="127.5" y="209.282" fill="#009"/><g clip-path="url(#t)"><path d="M106.7.402v212.602C47.987 213.004.397 165.41.397 106.704.398 47.991 47.988.401 106.7.401" fill="none" stroke-width=".797" stroke="#009" stroke-miterlimit="10"/></g><path d="M108.77 52.805c-.778.129-1.942 1.55-2.07 1.941-.134-.39-1.298-1.812-2.075-1.941M108.77 189.453c-.778.129-1.942 1.555-2.07 1.942-.134-.387-1.298-1.813-2.075-1.942M11.898 159.305c.625-.48.989-2.285.922-2.688.297.281 1.992.996 2.739.75M29.543 30.563c.637.468 2.469.308 2.84.132-.192.364-.399 2.192.05 2.84" fill="none" stroke-width=".6376000000000001" stroke-linecap="round" stroke-linejoin="round" stroke="#009" stroke-miterlimit="10"/><use xlink:href="#r" x="91.389" y="207.788" fill="#009"/><use xlink:href="#u" x="98.509" y="209.282" fill="#009"/><path d="M162.781 85.441a1.495 1.495 0 10-1.496 1.496c.824 0 1.496-.671 1.496-1.496zm0 0" stroke-width=".797" stroke="#000" stroke-miterlimit="10"/><use xlink:href="#v" x="165.004" y="88.846"/><path d="M63.566 127.96c0-.823-.668-1.491-1.492-1.491a1.494 1.494 0 101.492 1.492zm0 0" stroke-width=".797" stroke="#000" stroke-miterlimit="10"/><use xlink:href="#w" x="42.676" y="130.951"/><use xlink:href="#v" x="50.425" y="130.951"/></svg>