<svg xmlns="http://www.w3.org/2000/svg" xmlns:xlink="http://www.w3.org/1999/xlink" width="468.013" height="327.293" viewBox="0 0 351.01 245.47"><defs><symbol overflow="visible" id="a"><path d="M3.328-3.016c.063-.25.297-1.171.985-1.171.046 0 .296 0 .5.125a.578.578 0 00-.47.546c0 .157.11.344.376.344a.546.546 0 00.531-.578c0-.516-.578-.656-.922-.656-.578 0-.922.531-1.047.75-.25-.656-.781-.75-1.078-.75-1.031 0-1.61 1.281-1.61 1.531 0 .11.11.11.126.11.078 0 .11-.032.125-.11.344-1.063 1-1.313 1.344-1.313.187 0 .53.094.53.672 0 .313-.171.97-.53 2.375-.157.61-.516 1.032-.954 1.032-.062 0-.28 0-.5-.125.25-.063.47-.266.47-.547 0-.266-.22-.344-.36-.344-.313 0-.547.25-.547.578 0 .453.484.656.922.656.672 0 1.031-.703 1.047-.75.125.36.484.75 1.078.75 1.031 0 1.594-1.28 1.594-1.53 0-.11-.079-.11-.11-.11-.094 0-.11.047-.14.11-.329 1.077-1 1.312-1.313 1.312-.39 0-.547-.313-.547-.657 0-.218.047-.437.156-.875zm0 0"/></symbol><symbol overflow="visible" id="b"><path d="M2.328-4.438c0-.187 0-.187-.203-.187-.453.438-1.078.438-1.36.438v.25c.157 0 .626 0 1-.188v3.547c0 .234 0 .328-.687.328H.812V0c.125 0 .985-.031 1.235-.031.219 0 1.094.031 1.25.031v-.25H3.03c-.703 0-.703-.094-.703-.328zm0 0"/></symbol><symbol overflow="visible" id="c"><path d="M3.516-1.266H3.28c-.015.157-.094.563-.187.625-.047.047-.578.047-.688.047H1.125c.734-.64.984-.844 1.39-1.172.516-.406 1-.843 1-1.5 0-.843-.734-1.359-1.624-1.359-.86 0-1.454.61-1.454 1.25 0 .344.297.39.376.39.156 0 .359-.124.359-.374 0-.125-.047-.375-.406-.375.218-.485.687-.641 1.015-.641.703 0 1.063.547 1.063 1.11 0 .609-.438 1.078-.656 1.328L.516-.266C.437-.203.437-.187.437 0h2.876zm0 0"/></symbol><symbol overflow="visible" id="d"><path d="M1.906-2.328c.547 0 .938.375.938 1.125 0 .86-.516 1.125-.906 1.125-.282 0-.907-.078-1.188-.5.328 0 .406-.235.406-.39 0-.22-.172-.376-.39-.376a.38.38 0 00-.391.407C.375-.281 1.094.14 1.938.14c.968 0 1.64-.657 1.64-1.344 0-.547-.437-1.094-1.203-1.25.719-.266.984-.781.984-1.219 0-.547-.625-.953-1.406-.953-.766 0-1.36.375-1.36.938 0 .234.157.359.36.359.219 0 .36-.156.36-.344 0-.203-.141-.36-.36-.375.25-.297.719-.375.985-.375.312 0 .75.156.75.75 0 .297-.094.625-.282.828-.219.266-.422.281-.765.313-.172.015-.188.015-.22.015-.015 0-.077.016-.077.094 0 .094.062.094.187.094zm0 0"/></symbol><symbol overflow="visible" id="e"><path d="M3.688-1.14v-.25h-.782V-4.5c0-.14 0-.203-.14-.203-.094 0-.125 0-.188.11L.266-1.392v.25h2.062v.563c0 .25 0 .328-.578.328h-.188V0c.36-.016.797-.031 1.047-.031.266 0 .704.015 1.063.031v-.25h-.188c-.578 0-.578-.078-.578-.328v-.563zM2.375-3.939v2.547H.531zm0 0"/></symbol><symbol overflow="visible" id="f"><path d="M1.078-3.89c.36.093.563.093.672.093.922 0 1.469-.625 1.469-.734 0-.078-.047-.094-.078-.094-.016 0-.032 0-.063.016-.172.062-.531.203-1.047.203-.203 0-.562-.016-1.015-.188-.079-.031-.094-.031-.094-.031-.094 0-.094.078-.094.188v2.046c0 .125 0 .204.11.204.062 0 .078 0 .14-.094.297-.375.734-.438.969-.438.422 0 .61.328.64.39.126.235.172.5.172.907 0 .203 0 .61-.218.922a.984.984 0 01-.813.422c-.453 0-.922-.25-1.094-.719.266.016.407-.156.407-.344 0-.296-.266-.343-.36-.343 0 0-.344 0-.344.375 0 .625.579 1.25 1.407 1.25.89 0 1.672-.657 1.672-1.547 0-.782-.594-1.5-1.454-1.5-.312 0-.671.062-.984.328zm0 0"/></symbol><symbol overflow="visible" id="g"><path d="M1.047-2.281c0-.563.047-1.078.312-1.516.235-.375.61-.625 1.063-.625.203 0 .484.047.625.234-.172.016-.328.141-.328.344a.32.32 0 00.328.328c.219 0 .344-.14.344-.343 0-.407-.297-.766-.985-.766-1 0-2.031.922-2.031 2.422C.375-.406 1.219.14 2 .14c.844 0 1.578-.657 1.578-1.563 0-.89-.703-1.547-1.515-1.547-.563 0-.86.375-1.016.688zM2-.078c-.36 0-.625-.203-.781-.516-.094-.203-.157-.562-.157-.969 0-.687.407-1.203.97-1.203.312 0 .53.125.702.375.172.266.172.563.172.97 0 .39 0 .687-.187.968A.815.815 0 012-.078zm0 0"/></symbol><symbol overflow="visible" id="h"><path d="M3.734-4.203c.063-.094.063-.11.063-.281H1.969c-.282 0-.36-.016-.61-.032C1-4.546.984-4.594.97-4.703H.734L.484-3.22H.72c.015-.11.094-.562.203-.64.047-.032.625-.032.719-.032h1.515c-.219.282-.578.72-.719.922-.906 1.188-1 2.297-1 2.703 0 .079 0 .407.329.407.343 0 .343-.313.343-.407v-.28c0-1.345.282-1.97.579-2.345zm0 0"/></symbol><symbol overflow="visible" id="j"><path d="M2.469-2.516c.547-.265.89-.593.89-1.078 0-.672-.703-1.031-1.375-1.031-.765 0-1.39.5-1.39 1.156 0 .328.156.563.281.703.125.157.172.188.578.422-.39.172-1.078.547-1.078 1.281 0 .766.797 1.204 1.594 1.204.89 0 1.61-.563 1.61-1.313 0-.469-.267-.86-.673-1.094-.094-.062-.328-.187-.437-.25zm-1.125-.656c-.188-.11-.375-.297-.375-.562 0-.438.5-.688 1-.688.547 0 1.031.344 1.031.828 0 .625-.734.938-.734.938-.016 0-.032 0-.079-.031zm.328.969l.969.547c.171.11.515.312.515.718 0 .532-.578.86-1.172.86-.64 0-1.187-.422-1.187-.985 0-.515.375-.921.875-1.14zm0 0"/></symbol><symbol overflow="visible" id="k"><path d="M2.25-6.031c0-.36.016-.469.813-.469h.25v-.313c-.344.032-1.126.032-1.516.032-.375 0-1.172 0-1.516-.032v.313h.25c.797 0 .828.11.828.469v5.25c0 .36-.03.469-.828.469h-.25V0c.344-.031 1.14-.031 1.516-.031.39 0 1.172 0 1.516.031v-.313h-.25c-.797 0-.813-.109-.813-.468zm0 0"/></symbol><symbol overflow="visible" id="l"><path d="M1.094-3.422V-.75c0 .438-.11.438-.782.438V0c.36-.016.86-.031 1.141-.031.25 0 .766.015 1.11.031v-.313c-.672 0-.782 0-.782-.437v-1.844c0-1.031.719-1.594 1.344-1.594.64 0 .75.532.75 1.11V-.75c0 .438-.11.438-.781.438V0c.344-.016.86-.031 1.125-.031.25 0 .781.015 1.11.031v-.313c-.516 0-.766 0-.766-.296v-1.907c0-.859 0-1.156-.313-1.515-.14-.172-.469-.375-1.047-.375-.734 0-1.203.422-1.484 1.047v-1.047l-1.407.11v.312c.704 0 .782.062.782.562zm0 0"/></symbol><symbol overflow="visible" id="m"><path d="M1.719-3.75v-.656l-1.438.11v.312c.703 0 .781.062.781.5v4.656c0 .453-.109.453-.78.453v.313c.343-.016.859-.032 1.109-.032.28 0 .78.016 1.125.032v-.313c-.657 0-.766 0-.766-.453V-.594c.047.172.469.703 1.219.703 1.187 0 2.219-.984 2.219-2.265 0-1.266-.954-2.25-2.079-2.25-.78 0-1.203.437-1.39.656zm.031 2.61v-2.22c.281-.515.766-.796 1.281-.796.735 0 1.328.875 1.328 2C4.36-.953 3.672-.11 2.938-.11c-.407 0-.782-.204-1.047-.61-.141-.203-.141-.219-.141-.422zm0 0"/></symbol><symbol overflow="visible" id="n"><path d="M3.89-.781v.89L5.329 0v-.313c-.687 0-.766-.062-.766-.562v-3.531l-1.468.11v.312c.687 0 .781.062.781.562v1.766c0 .875-.484 1.547-1.219 1.547-.828 0-.875-.47-.875-.985v-3.312l-1.468.11v.312c.78 0 .78.03.78.906v1.5c0 .781 0 1.687 1.516 1.687.563 0 1-.28 1.282-.89zm0 0"/></symbol><symbol overflow="visible" id="o"><path d="M1.719-3.984h1.437v-.313H1.72v-1.828h-.25c0 .813-.297 1.875-1.282 1.922v.219h.844v2.75c0 1.218.938 1.343 1.297 1.343.703 0 .985-.703.985-1.343v-.563h-.25v.547c0 .734-.297 1.11-.672 1.11-.672 0-.672-.907-.672-1.079zm0 0"/></symbol><symbol overflow="visible" id="p"><path d="M5.797-2.578h-.25c-.11 1.015-.25 2.265-2 2.265h-.813c-.468 0-.484-.062-.484-.39v-5.313c0-.343 0-.484.938-.484h.328v-.313c-.36.032-1.266.032-1.672.032-.39 0-1.172 0-1.516-.032v.313h.234c.766 0 .797.11.797.469v5.25c0 .36-.03.469-.796.469H.328V0h5.188zm0 0"/></symbol><symbol overflow="visible" id="q"><path d="M3.313-.75c.046.39.312.813.78.813.22 0 .829-.141.829-.954v-.562h-.25v.562c0 .579-.25.641-.36.641-.328 0-.375-.453-.375-.5v-1.984c0-.422 0-.813-.359-1.188-.39-.39-.89-.547-1.36-.547-.827 0-1.515.469-1.515 1.125 0 .297.203.469.469.469a.435.435 0 00.453-.453c0-.125-.047-.453-.516-.453.282-.36.766-.469 1.079-.469.5 0 1.062.39 1.062 1.281v.36c-.516.03-1.203.062-1.828.359-.75.344-1 .86-1 1.297 0 .812.969 1.062 1.594 1.062.656 0 1.109-.406 1.296-.859zM3.25-2.39v1c0 .937-.719 1.28-1.172 1.28-.484 0-.89-.343-.89-.843 0-.547.421-1.375 2.062-1.438zm0 0"/></symbol><symbol overflow="visible" id="r"><path d="M4.14-3.344c.25-.64.766-.64.923-.64v-.313c-.235.016-.516.031-.75.031-.172 0-.641-.015-.86-.03v.312c.313 0 .469.171.469.421 0 .11-.016.126-.063.25L2.844-.874 1.75-3.547c-.047-.11-.063-.14-.063-.187 0-.25.36-.25.563-.25v-.313c-.266.016-.922.031-1.094.031-.265 0-.672-.015-.968-.03v.312c.484 0 .671 0 .812.343L2.5 0a6.764 6.764 0 00-.25.594c-.219.547-.5 1.234-1.14 1.234-.048 0-.282 0-.47-.187.313-.032.391-.25.391-.422C1.031.969.844.812.61.812c-.203 0-.421.125-.421.422 0 .454.421.813.921.813.625 0 1.032-.578 1.266-1.14zm0 0"/></symbol><symbol overflow="visible" id="s"><path d="M1.11-2.516C1.171-4 2.015-4.25 2.36-4.25c1.015 0 1.124 1.344 1.124 1.734zm0 .22h2.78c.22 0 .25 0 .25-.22 0-.984-.546-1.953-1.78-1.953C1.202-4.469.28-3.437.28-2.187.281-.86 1.328.108 2.47.108 3.688.11 4.14-1 4.14-1.187c0-.094-.079-.125-.141-.125-.078 0-.11.062-.125.14C3.531-.14 2.625-.14 2.531-.14c-.5 0-.89-.296-1.125-.671-.297-.47-.297-1.125-.297-1.485zm0 0"/></symbol><symbol overflow="visible" id="t"><path d="M1.672-3.313v-1.093l-1.39.11v.312c.702 0 .78.062.78.562V-.75c0 .438-.109.438-.78.438V0c.39-.016.859-.031 1.14-.031.39 0 .86 0 1.266.031v-.313h-.22c-.734 0-.75-.109-.75-.468v-1.531c0-.985.423-1.876 1.173-1.876.062 0 .093 0 .109.016-.031 0-.234.125-.234.39 0 .266.218.423.437.423a.421.421 0 00.422-.438c0-.312-.313-.61-.734-.61-.735 0-1.094.673-1.22 1.095zm0 0"/></symbol><symbol overflow="visible" id="u"><path d="M2.234-3.516v-2.578c0-.234 0-.36.22-.39.093-.016.39-.016.593-.016.89 0 2 .047 2 1.484 0 .688-.234 1.5-1.703 1.5zm2.11.125c.953-.234 1.734-.843 1.734-1.625 0-.953-1.14-1.796-2.594-1.796H.344v.312h.25c.765 0 .781.11.781.469v5.25c0 .36-.016.469-.781.469h-.25V0c.36-.031 1.078-.031 1.453-.031.39 0 1.11 0 1.469.031v-.313h-.25c-.766 0-.782-.109-.782-.468v-2.516h1.141c.156 0 .578 0 .938.344.375.344.375.656.375 1.328 0 .64 0 1.047.406 1.422.406.36.953.422 1.25.422.781 0 .953-.813.953-1.094 0-.063 0-.172-.125-.172-.11 0-.11.094-.125.156C6.984-.17 6.64 0 6.39 0c-.485 0-.563-.516-.704-1.438l-.14-.796c-.172-.641-.656-.97-1.203-1.157zm0 0"/></symbol><symbol overflow="visible" id="v"><path d="M2.078-1.938c.219.047 1.031.204 1.031.922 0 .5-.343.907-1.125.907-.843 0-1.203-.563-1.39-1.422-.031-.125-.031-.157-.14-.157-.126 0-.126.063-.126.235v1.328c0 .172 0 .234.11.234C.483.11.5.094.688-.094.703-.109.703-.125.89-.312c.437.406.89.421 1.093.421 1.141 0 1.61-.671 1.61-1.39 0-.516-.297-.828-.422-.938-.328-.328-.719-.406-1.14-.484-.563-.11-1.22-.235-1.22-.813 0-.359.25-.765 1.11-.765 1.094 0 1.156.906 1.172 1.203 0 .094.094.094.11.094.14 0 .14-.047.14-.235v-1.015c0-.157 0-.235-.11-.235-.046 0-.078 0-.203.125-.031.032-.125.125-.172.157-.375-.282-.78-.282-.937-.282-1.219 0-1.594.672-1.594 1.235 0 .343.156.625.422.843.328.25.61.313 1.328.454zm0 0"/></symbol><symbol overflow="visible" id="w"><path d="M1.766-4.406l-1.391.11v.312c.64 0 .734.062.734.546V-.75c0 .438-.109.438-.78.438V0c.312-.016.859-.031 1.093-.031.36 0 .703.015 1.047.031v-.313c-.672 0-.703-.046-.703-.437zm.03-1.735a.514.514 0 00-.515-.53.537.537 0 00-.531.53c0 .266.219.532.531.532a.514.514 0 00.516-.532zm0 0"/></symbol><symbol overflow="visible" id="x"><path d="M4.688-2.14c0-1.266-.985-2.329-2.188-2.329C1.25-4.469.281-3.375.281-2.14A2.22 2.22 0 002.484.11c1.204 0 2.204-.984 2.204-2.25zM2.5-.14c-.438 0-.875-.204-1.14-.672-.25-.438-.25-1.047-.25-1.407 0-.39 0-.922.234-1.36a1.347 1.347 0 011.14-.671c.438 0 .86.219 1.125.656.266.422.266 1 .266 1.375 0 .36 0 .906-.219 1.344-.234.453-.672.734-1.156.734zm0 0"/></symbol><symbol overflow="visible" id="y"><path d="M2.5-6.922l-1.344 1.36.172.171L2.5-6.406l1.14 1.015.172-.171zm0 0"/></symbol><symbol overflow="visible" id="A"><path d="M7.188-3.375c0-2.031-1.5-3.656-3.313-3.656-1.797 0-3.313 1.593-3.313 3.656C.563-1.328 2.095.219 3.876.219c1.813 0 3.313-1.578 3.313-3.594zM3.874-.047c-.953 0-2.297-.875-2.297-3.469 0-2.578 1.469-3.265 2.297-3.265.86 0 2.281.703 2.281 3.265 0 2.641-1.36 3.47-2.281 3.47zm0 0"/></symbol><clipPath id="i"><path d="M25 228h18v17.469H25zm0 0"/></clipPath><clipPath id="z"><path d="M308 228h18v17.469h-18zm0 0"/></clipPath></defs><path d="M42.238 38.578c0-4.68-3.789-8.469-8.465-8.469a8.466 8.466 0 00-8.468 8.47 8.468 8.468 0 1016.933 0zm0 0" fill="#ffa64d"/><use xlink:href="#a" x="28.691" y="39.974"/><use xlink:href="#b" x="34.385" y="41.469"/><path d="M42.238 66.926c0-4.68-3.789-8.469-8.465-8.469a8.466 8.466 0 00-8.468 8.469 8.465 8.465 0 008.468 8.465 8.464 8.464 0 008.465-8.465zm0 0" fill="#ffa64d"/><use xlink:href="#a" x="28.691" y="68.321"/><use xlink:href="#c" x="34.385" y="69.815"/><path d="M42.238 95.27a8.468 8.468 0 10-16.934 0c0 4.68 3.79 8.468 8.47 8.468a8.465 8.465 0 008.464-8.468zm0 0" fill="#ffa64d"/><use xlink:href="#a" x="28.691" y="96.667"/><use xlink:href="#d" x="34.385" y="98.161"/><path d="M42.238 123.617a8.468 8.468 0 10-16.934 0 8.468 8.468 0 1016.934 0zm0 0" fill="#ffa64d"/><use xlink:href="#a" x="28.691" y="125.014"/><use xlink:href="#e" x="34.385" y="126.508"/><path d="M42.238 151.965a8.468 8.468 0 10-16.934 0 8.468 8.468 0 1016.934 0zm0 0" fill="#ffa64d"/><use xlink:href="#a" x="28.691" y="153.36"/><use xlink:href="#f" x="34.385" y="154.854"/><path d="M42.238 180.313c0-4.68-3.789-8.47-8.465-8.47a8.466 8.466 0 00-8.468 8.47 8.468 8.468 0 1016.933 0zm0 0" fill="#ffa64d"/><use xlink:href="#a" x="28.691" y="181.706"/><use xlink:href="#g" x="34.385" y="183.201"/><path d="M42.238 208.656a8.464 8.464 0 00-8.465-8.465 8.465 8.465 0 00-8.468 8.465c0 4.68 3.789 8.469 8.468 8.469a8.465 8.465 0 008.465-8.469zm0 0" fill="#ffa64d"/><use xlink:href="#a" x="28.691" y="210.053"/><use xlink:href="#h" x="34.385" y="211.547"/><g clip-path="url(#i)"><path d="M42.238 237.004a8.468 8.468 0 10-16.934 0c0 4.68 3.79 8.469 8.47 8.469a8.465 8.465 0 008.464-8.47zm0 0" fill="#ffa64d"/></g><use xlink:href="#a" x="28.691" y="238.399"/><use xlink:href="#j" x="34.385" y="239.894"/><use xlink:href="#k" x="7.953" y="16.105"/><use xlink:href="#l" x="11.551" y="16.105"/><use xlink:href="#m" x="17.086" y="16.105"/><use xlink:href="#n" x="22.621" y="16.105"/><use xlink:href="#o" x="28.156" y="16.105"/><use xlink:href="#p" x="35.348" y="16.105"/><use xlink:href="#q" x="41.575" y="16.105"/><use xlink:href="#r" x="46.277" y="16.105"/><use xlink:href="#s" x="51.267" y="16.105"/><use xlink:href="#t" x="55.694" y="16.105"/><path d="M113.105 81.098c0-4.676-3.789-8.47-8.464-8.47a8.468 8.468 0 00-8.47 8.47 8.468 8.468 0 1016.934 0zm0 0M113.105 109.445c0-4.68-3.789-8.468-8.464-8.468a8.466 8.466 0 00-8.47 8.468 8.465 8.465 0 008.47 8.465 8.464 8.464 0 008.464-8.465zm0 0M113.105 137.79c0-4.677-3.789-8.47-8.464-8.47a8.468 8.468 0 00-8.47 8.47c0 4.679 3.79 8.468 8.47 8.468a8.465 8.465 0 008.464-8.469zm0 0M113.105 166.137c0-4.676-3.789-8.469-8.464-8.469a8.468 8.468 0 00-8.47 8.469c0 4.68 3.79 8.468 8.47 8.468a8.465 8.465 0 008.464-8.468zm0 0M113.105 194.484c0-4.675-3.789-8.468-8.464-8.468a8.468 8.468 0 00-8.47 8.468 8.468 8.468 0 1016.934 0zm0 0" fill="#99f"/><path d="M41.203 43.035l54.758 32.856" fill="none" stroke-width=".3985" stroke="#8c8c8c" stroke-miterlimit="10"/><path d="M95.754 73.906c-.223.567.258 1.899.46 2.137-.308-.066-1.706.137-2.1.598" fill="none" stroke-width=".31880000000000003" stroke-linecap="round" stroke-linejoin="round" stroke="#8c8c8c" stroke-miterlimit="10"/><path d="M39.902 44.707l57.578 57.578" fill="none" stroke-width=".3985" stroke="#8c8c8c" stroke-miterlimit="10"/><path d="M97.762 100.313c-.352.496-.211 1.902-.07 2.183-.282-.14-1.688-.281-2.184.07" fill="none" stroke-width=".31880000000000003" stroke-linecap="round" stroke-linejoin="round" stroke="#8c8c8c" stroke-miterlimit="10"/><path d="M38.809 45.629l59.949 83.926" fill="none" stroke-width=".3985" stroke="#8c8c8c" stroke-miterlimit="10"/><path d="M99.36 127.656c-.43.43-.524 1.84-.43 2.14-.254-.183-1.621-.554-2.164-.288" fill="none" stroke-width=".31880000000000003" stroke-linecap="round" stroke-linejoin="round" stroke="#8c8c8c" stroke-miterlimit="10"/><path d="M37.98 46.152L99.723 157.29" fill="none" stroke-width=".3985" stroke="#8c8c8c" stroke-miterlimit="10"/><path d="M100.535 155.469c-.472.379-.726 1.773-.668 2.082-.23-.215-1.547-.735-2.117-.531" fill="none" stroke-width=".31880000000000003" stroke-linecap="round" stroke-linejoin="round" stroke="#8c8c8c" stroke-miterlimit="10"/><path d="M37.36 46.469l63.09 138.8" fill="none" stroke-width=".3985" stroke="#8c8c8c" stroke-miterlimit="10"/><path d="M101.406 183.523c-.504.336-.867 1.707-.832 2.02-.215-.23-1.484-.86-2.07-.703" fill="none" stroke-width=".31880000000000003" stroke-linecap="round" stroke-linejoin="round" stroke="#8c8c8c" stroke-miterlimit="10"/><path d="M42.27 68.625l52.445 10.488" fill="none" stroke-width=".3985" stroke="#8c8c8c" stroke-miterlimit="10"/><path d="M93.855 77.316c-.02.606.88 1.7 1.153 1.856-.313.039-1.563.703-1.778 1.27" fill="none" stroke-width=".31880000000000003" stroke-linecap="round" stroke-linejoin="round" stroke="#8c8c8c" stroke-miterlimit="10"/><path d="M41.203 71.383l54.758 32.851" fill="none" stroke-width=".3985" stroke="#8c8c8c" stroke-miterlimit="10"/><path d="M95.754 102.254c-.223.562.258 1.898.46 2.137-.308-.07-1.706.136-2.1.597" fill="none" stroke-width=".31880000000000003" stroke-linecap="round" stroke-linejoin="round" stroke="#8c8c8c" stroke-miterlimit="10"/><path d="M39.902 73.055l57.578 57.578" fill="none" stroke-width=".3985" stroke="#8c8c8c" stroke-miterlimit="10"/><path d="M97.762 128.66c-.352.492-.211 1.902-.07 2.184-.282-.14-1.688-.281-2.184.07" fill="none" stroke-width=".31880000000000003" stroke-linecap="round" stroke-linejoin="round" stroke="#8c8c8c" stroke-miterlimit="10"/><path d="M38.809 73.977l59.949 83.925" fill="none" stroke-width=".3985" stroke="#8c8c8c" stroke-miterlimit="10"/><path d="M99.36 156.004c-.43.426-.524 1.84-.43 2.14-.254-.183-1.621-.554-2.164-.289" fill="none" stroke-width=".31880000000000003" stroke-linecap="round" stroke-linejoin="round" stroke="#8c8c8c" stroke-miterlimit="10"/><path d="M37.98 74.5l61.743 111.137" fill="none" stroke-width=".3985" stroke="#8c8c8c" stroke-miterlimit="10"/><path d="M100.535 183.816c-.472.38-.726 1.774-.668 2.082-.23-.214-1.547-.734-2.117-.53" fill="none" stroke-width=".31880000000000003" stroke-linecap="round" stroke-linejoin="round" stroke="#8c8c8c" stroke-miterlimit="10"/><path d="M42.27 93.57l52.445-10.488" fill="none" stroke-width=".3985" stroke="#8c8c8c" stroke-miterlimit="10"/><path d="M93.23 81.754c.215.566 1.465 1.23 1.778 1.27-.274.156-1.172 1.25-1.153 1.855" fill="none" stroke-width=".31880000000000003" stroke-linecap="round" stroke-linejoin="round" stroke="#8c8c8c" stroke-miterlimit="10"/><path d="M42.27 96.969l52.445 10.492" fill="none" stroke-width=".3985" stroke="#8c8c8c" stroke-miterlimit="10"/><path d="M93.855 105.66c-.02.606.88 1.7 1.153 1.86-.313.039-1.563.703-1.778 1.27" fill="none" stroke-width=".31880000000000003" stroke-linecap="round" stroke-linejoin="round" stroke="#8c8c8c" stroke-miterlimit="10"/><path d="M41.203 99.73l54.758 32.852" fill="none" stroke-width=".3985" stroke="#8c8c8c" stroke-miterlimit="10"/><path d="M95.754 130.602c-.223.562.258 1.894.46 2.136-.308-.07-1.706.137-2.1.598" fill="none" stroke-width=".31880000000000003" stroke-linecap="round" stroke-linejoin="round" stroke="#8c8c8c" stroke-miterlimit="10"/><path d="M39.902 101.398L97.48 158.98" fill="none" stroke-width=".3985" stroke="#8c8c8c" stroke-miterlimit="10"/><path d="M97.762 157.008c-.352.492-.211 1.902-.07 2.183-.282-.14-1.688-.28-2.184.07" fill="none" stroke-width=".31880000000000003" stroke-linecap="round" stroke-linejoin="round" stroke="#8c8c8c" stroke-miterlimit="10"/><path d="M38.809 102.324l59.949 83.926" fill="none" stroke-width=".3985" stroke="#8c8c8c" stroke-miterlimit="10"/><path d="M99.36 184.348c-.43.43-.524 1.843-.43 2.144-.254-.187-1.621-.558-2.164-.289" fill="none" stroke-width=".31880000000000003" stroke-linecap="round" stroke-linejoin="round" stroke="#8c8c8c" stroke-miterlimit="10"/><path d="M41.203 119.156l54.758-32.851" fill="none" stroke-width=".3985" stroke="#8c8c8c" stroke-miterlimit="10"/><path d="M94.113 85.555c.395.46 1.793.664 2.102.597-.203.239-.684 1.57-.461 2.133" fill="none" stroke-width=".31880000000000003" stroke-linecap="round" stroke-linejoin="round" stroke="#8c8c8c" stroke-miterlimit="10"/><path d="M42.27 121.918l52.445-10.488" fill="none" stroke-width=".3985" stroke="#8c8c8c" stroke-miterlimit="10"/><path d="M93.23 110.102c.215.566 1.465 1.23 1.778 1.27-.274.155-1.172 1.25-1.153 1.855" fill="none" stroke-width=".31880000000000003" stroke-linecap="round" stroke-linejoin="round" stroke="#8c8c8c" stroke-miterlimit="10"/><path d="M42.27 125.316l52.445 10.489" fill="none" stroke-width=".3985" stroke="#8c8c8c" stroke-miterlimit="10"/><path d="M93.855 134.008c-.02.605.88 1.699 1.153 1.855-.313.04-1.563.703-1.778 1.27" fill="none" stroke-width=".31880000000000003" stroke-linecap="round" stroke-linejoin="round" stroke="#8c8c8c" stroke-miterlimit="10"/><path d="M41.203 128.078l54.758 32.852" fill="none" stroke-width=".3985" stroke="#8c8c8c" stroke-miterlimit="10"/><path d="M95.754 158.95c-.223.562.258 1.894.46 2.132-.308-.066-1.706.137-2.1.602" fill="none" stroke-width=".31880000000000003" stroke-linecap="round" stroke-linejoin="round" stroke="#8c8c8c" stroke-miterlimit="10"/><path d="M39.902 129.746l57.578 57.582" fill="none" stroke-width=".3985" stroke="#8c8c8c" stroke-miterlimit="10"/><path d="M97.762 185.355c-.352.493-.211 1.903-.07 2.184-.282-.14-1.688-.281-2.184.07" fill="none" stroke-width=".31880000000000003" stroke-linecap="round" stroke-linejoin="round" stroke="#8c8c8c" stroke-miterlimit="10"/><path d="M39.902 145.836L97.48 88.254" fill="none" stroke-width=".3985" stroke="#8c8c8c" stroke-miterlimit="10"/><path d="M95.508 87.973c.496.351 1.902.21 2.183.07-.14.281-.28 1.691.07 2.184" fill="none" stroke-width=".31880000000000003" stroke-linecap="round" stroke-linejoin="round" stroke="#8c8c8c" stroke-miterlimit="10"/><path d="M41.203 147.504l54.758-32.852" fill="none" stroke-width=".3985" stroke="#8c8c8c" stroke-miterlimit="10"/><path d="M94.113 113.898c.395.461 1.793.668 2.102.598-.203.242-.684 1.574-.461 2.137" fill="none" stroke-width=".31880000000000003" stroke-linecap="round" stroke-linejoin="round" stroke="#8c8c8c" stroke-miterlimit="10"/><path d="M42.27 150.266l52.445-10.489" fill="none" stroke-width=".3985" stroke="#8c8c8c" stroke-miterlimit="10"/><path d="M93.23 138.445c.215.57 1.465 1.235 1.778 1.274-.274.156-1.172 1.25-1.153 1.855" fill="none" stroke-width=".31880000000000003" stroke-linecap="round" stroke-linejoin="round" stroke="#8c8c8c" stroke-miterlimit="10"/><path d="M42.27 153.664l52.445 10.488" fill="none" stroke-width=".3985" stroke="#8c8c8c" stroke-miterlimit="10"/><path d="M93.855 162.355c-.02.606.88 1.7 1.153 1.856-.313.039-1.563.703-1.778 1.27" fill="none" stroke-width=".31880000000000003" stroke-linecap="round" stroke-linejoin="round" stroke="#8c8c8c" stroke-miterlimit="10"/><path d="M41.203 156.422l54.758 32.855" fill="none" stroke-width=".3985" stroke="#8c8c8c" stroke-miterlimit="10"/><path d="M95.754 187.297c-.223.562.258 1.894.46 2.133-.308-.067-1.706.136-2.1.597" fill="none" stroke-width=".31880000000000003" stroke-linecap="round" stroke-linejoin="round" stroke="#8c8c8c" stroke-miterlimit="10"/><path d="M38.809 173.258l59.949-83.926" fill="none" stroke-width=".3985" stroke="#8c8c8c" stroke-miterlimit="10"/><path d="M96.766 89.379c.543.266 1.91-.106 2.164-.29-.094.302 0 1.716.43 2.141" fill="none" stroke-width=".31880000000000003" stroke-linecap="round" stroke-linejoin="round" stroke="#8c8c8c" stroke-miterlimit="10"/><path d="M39.902 174.184l57.578-57.582" fill="none" stroke-width=".3985" stroke="#8c8c8c" stroke-miterlimit="10"/><path d="M95.508 116.32c.496.352 1.902.211 2.183.07-.14.282-.28 1.692.07 2.184" fill="none" stroke-width=".31880000000000003" stroke-linecap="round" stroke-linejoin="round" stroke="#8c8c8c" stroke-miterlimit="10"/><path d="M41.203 175.852L95.961 143" fill="none" stroke-width=".3985" stroke="#8c8c8c" stroke-miterlimit="10"/><path d="M94.113 142.246c.395.461 1.793.668 2.102.598-.203.242-.684 1.57-.461 2.136" fill="none" stroke-width=".31880000000000003" stroke-linecap="round" stroke-linejoin="round" stroke="#8c8c8c" stroke-miterlimit="10"/><path d="M42.27 178.613l52.445-10.492" fill="none" stroke-width=".3985" stroke="#8c8c8c" stroke-miterlimit="10"/><path d="M93.23 166.793c.215.566 1.465 1.23 1.778 1.27-.274.156-1.172 1.253-1.153 1.859" fill="none" stroke-width=".31880000000000003" stroke-linecap="round" stroke-linejoin="round" stroke="#8c8c8c" stroke-miterlimit="10"/><path d="M42.27 182.012L94.715 192.5" fill="none" stroke-width=".3985" stroke="#8c8c8c" stroke-miterlimit="10"/><path d="M93.855 190.703c-.02.606.88 1.7 1.153 1.856-.313.039-1.563.703-1.778 1.27" fill="none" stroke-width=".31880000000000003" stroke-linecap="round" stroke-linejoin="round" stroke="#8c8c8c" stroke-miterlimit="10"/><path d="M37.98 201.082L99.723 89.945" fill="none" stroke-width=".3985" stroke="#8c8c8c" stroke-miterlimit="10"/><path d="M97.75 90.215c.57.207 1.887-.317 2.117-.531-.058.308.195 1.703.668 2.082" fill="none" stroke-width=".31880000000000003" stroke-linecap="round" stroke-linejoin="round" stroke="#8c8c8c" stroke-miterlimit="10"/><path d="M38.809 201.605l59.949-83.925" fill="none" stroke-width=".3985" stroke="#8c8c8c" stroke-miterlimit="10"/><path d="M96.766 117.727c.543.265 1.91-.106 2.164-.29-.094.301 0 1.715.43 2.141" fill="none" stroke-width=".31880000000000003" stroke-linecap="round" stroke-linejoin="round" stroke="#8c8c8c" stroke-miterlimit="10"/><path d="M39.902 202.527L97.48 144.95" fill="none" stroke-width=".3985" stroke="#8c8c8c" stroke-miterlimit="10"/><path d="M95.508 144.664c.496.356 1.902.215 2.183.074-.14.282-.28 1.688.07 2.184" fill="none" stroke-width=".31880000000000003" stroke-linecap="round" stroke-linejoin="round" stroke="#8c8c8c" stroke-miterlimit="10"/><path d="M41.203 204.2l54.758-32.856" fill="none" stroke-width=".3985" stroke="#8c8c8c" stroke-miterlimit="10"/><path d="M94.113 170.594c.395.46 1.793.668 2.102.597-.203.239-.684 1.57-.461 2.137" fill="none" stroke-width=".31880000000000003" stroke-linecap="round" stroke-linejoin="round" stroke="#8c8c8c" stroke-miterlimit="10"/><path d="M42.27 206.957l52.445-10.488" fill="none" stroke-width=".3985" stroke="#8c8c8c" stroke-miterlimit="10"/><path d="M93.23 195.14c.215.567 1.465 1.231 1.778 1.27-.274.156-1.172 1.25-1.153 1.856" fill="none" stroke-width=".31880000000000003" stroke-linecap="round" stroke-linejoin="round" stroke="#8c8c8c" stroke-miterlimit="10"/><path d="M37.36 229.113l63.09-138.8" fill="none" stroke-width=".3985" stroke="#8c8c8c" stroke-miterlimit="10"/><path d="M98.504 90.738c.586.16 1.855-.468 2.07-.699-.035.313.328 1.684.832 2.02" fill="none" stroke-width=".31880000000000003" stroke-linecap="round" stroke-linejoin="round" stroke="#8c8c8c" stroke-miterlimit="10"/><path d="M37.98 229.43l61.743-111.137" fill="none" stroke-width=".3985" stroke="#8c8c8c" stroke-miterlimit="10"/><path d="M97.75 118.562c.57.204 1.887-.32 2.117-.53-.058.308.195 1.702.668 2.077" fill="none" stroke-width=".31880000000000003" stroke-linecap="round" stroke-linejoin="round" stroke="#8c8c8c" stroke-miterlimit="10"/><path d="M38.809 229.953l59.949-83.926" fill="none" stroke-width=".3985" stroke="#8c8c8c" stroke-miterlimit="10"/><path d="M96.766 146.074c.543.266 1.91-.105 2.164-.289-.094.3 0 1.711.43 2.14" fill="none" stroke-width=".31880000000000003" stroke-linecap="round" stroke-linejoin="round" stroke="#8c8c8c" stroke-miterlimit="10"/><path d="M39.902 230.875l57.578-57.578" fill="none" stroke-width=".3985" stroke="#8c8c8c" stroke-miterlimit="10"/><path d="M95.508 173.012c.496.355 1.902.215 2.183.07-.14.285-.28 1.691.07 2.188" fill="none" stroke-width=".31880000000000003" stroke-linecap="round" stroke-linejoin="round" stroke="#8c8c8c" stroke-miterlimit="10"/><path d="M41.203 232.547l54.758-32.856" fill="none" stroke-width=".3985" stroke="#8c8c8c" stroke-miterlimit="10"/><path d="M94.113 198.941c.395.461 1.793.664 2.102.598-.203.238-.684 1.57-.461 2.137" fill="none" stroke-width=".31880000000000003" stroke-linecap="round" stroke-linejoin="round" stroke="#8c8c8c" stroke-miterlimit="10"/><path d="M183.977 109.445a8.468 8.468 0 00-8.47-8.468 8.466 8.466 0 00-8.468 8.468 8.465 8.465 0 008.469 8.465c4.676 0 8.469-3.789 8.469-8.465zm0 0M183.977 137.79a8.47 8.47 0 00-8.47-8.47 8.468 8.468 0 00-8.468 8.47c0 4.679 3.79 8.468 8.469 8.468a8.468 8.468 0 008.469-8.469zm0 0M183.977 166.137a8.47 8.47 0 00-8.47-8.469 8.468 8.468 0 00-8.468 8.469c0 4.68 3.79 8.468 8.469 8.468a8.468 8.468 0 008.469-8.468zm0 0" fill="#99f"/><use xlink:href="#p" x="161.183" y="10.128"/><use xlink:href="#q" x="167.41" y="10.128"/><use xlink:href="#o" x="172.391" y="10.128"/><use xlink:href="#s" x="176.265" y="10.128"/><use xlink:href="#l" x="180.693" y="10.128"/><use xlink:href="#o" x="185.949" y="10.128"/><use xlink:href="#u" x="145.053" y="22.083"/><use xlink:href="#s" x="152.386" y="22.083"/><use xlink:href="#m" x="156.814" y="22.083"/><use xlink:href="#t" x="162.349" y="22.083"/><use xlink:href="#s" x="166.251" y="22.083"/><use xlink:href="#v" x="170.679" y="22.083"/><use xlink:href="#s" x="174.608" y="22.083"/><use xlink:href="#l" x="179.035" y="22.083"/><use xlink:href="#o" x="184.292" y="22.083"/><use xlink:href="#q" x="188.166" y="22.083"/><use xlink:href="#o" x="193.147" y="22.083"/><use xlink:href="#w" x="197.022" y="22.083"/><use xlink:href="#x" x="199.789" y="22.083"/><use xlink:href="#l" x="204.771" y="22.083"/><path d="M112.688 84.316l53.421 21.368" fill="none" stroke-width=".3985" stroke="#8c8c8c" stroke-miterlimit="10"/><path d="M165.59 103.762c-.13.59.555 1.832.797 2.035-.317-.02-1.664.406-1.98.926" fill="none" stroke-width=".31880000000000003" stroke-linecap="round" stroke-linejoin="round" stroke="#8c8c8c" stroke-miterlimit="10"/><path d="M111.406 86.512l56.196 44.957" fill="none" stroke-width=".3985" stroke="#8c8c8c" stroke-miterlimit="10"/><path d="M167.664 129.477c-.297.53 0 1.914.172 2.175-.297-.105-1.711-.09-2.164.313" fill="none" stroke-width=".31880000000000003" stroke-linecap="round" stroke-linejoin="round" stroke="#8c8c8c" stroke-miterlimit="10"/><path d="M110.188 87.758l58.84 70.605" fill="none" stroke-width=".3985" stroke="#8c8c8c" stroke-miterlimit="10"/><path d="M169.484 156.422c-.394.46-.382 1.875-.265 2.168-.27-.164-1.66-.434-2.184-.125" fill="none" stroke-width=".31880000000000003" stroke-linecap="round" stroke-linejoin="round" stroke="#8c8c8c" stroke-miterlimit="10"/><path d="M113.309 109.445h52.074" fill="none" stroke-width=".3985" stroke="#8c8c8c" stroke-miterlimit="10"/><path d="M164.188 107.852c.101.597 1.195 1.492 1.496 1.593-.301.098-1.395.996-1.497 1.594" fill="none" stroke-width=".31880000000000003" stroke-linecap="round" stroke-linejoin="round" stroke="#8c8c8c" stroke-miterlimit="10"/><path d="M112.688 112.664l53.421 21.367" fill="none" stroke-width=".3985" stroke="#8c8c8c" stroke-miterlimit="10"/><path d="M165.59 132.11c-.13.59.555 1.827.797 2.035-.317-.02-1.664.406-1.98.921" fill="none" stroke-width=".31880000000000003" stroke-linecap="round" stroke-linejoin="round" stroke="#8c8c8c" stroke-miterlimit="10"/><path d="M111.406 114.86l56.196 44.956" fill="none" stroke-width=".3985" stroke="#8c8c8c" stroke-miterlimit="10"/><path d="M167.664 157.824c-.297.528 0 1.914.172 2.176-.297-.11-1.711-.094-2.164.312" fill="none" stroke-width=".31880000000000003" stroke-linecap="round" stroke-linejoin="round" stroke="#8c8c8c" stroke-miterlimit="10"/><path d="M112.688 134.57l53.421-21.367" fill="none" stroke-width=".3985" stroke="#8c8c8c" stroke-miterlimit="10"/><path d="M164.406 112.168c.317.516 1.664.941 1.98.926-.241.203-.925 1.441-.796 2.035" fill="none" stroke-width=".31880000000000003" stroke-linecap="round" stroke-linejoin="round" stroke="#8c8c8c" stroke-miterlimit="10"/><path d="M113.309 137.79h52.074" fill="none" stroke-width=".3985" stroke="#8c8c8c" stroke-miterlimit="10"/><path d="M164.188 136.195c.101.602 1.195 1.496 1.496 1.594-.301.102-1.395.996-1.497 1.598" fill="none" stroke-width=".31880000000000003" stroke-linecap="round" stroke-linejoin="round" stroke="#8c8c8c" stroke-miterlimit="10"/><path d="M112.688 141.008l53.421 21.37" fill="none" stroke-width=".3985" stroke="#8c8c8c" stroke-miterlimit="10"/><path d="M165.59 160.453c-.13.594.555 1.832.797 2.035-.317-.015-1.664.41-1.98.926" fill="none" stroke-width=".31880000000000003" stroke-linecap="round" stroke-linejoin="round" stroke="#8c8c8c" stroke-miterlimit="10"/><path d="M111.406 160.723l56.196-44.957" fill="none" stroke-width=".3985" stroke="#8c8c8c" stroke-miterlimit="10"/><path d="M165.672 115.27c.453.406 1.867.417 2.164.308-.172.266-.469 1.652-.172 2.18" fill="none" stroke-width=".31880000000000003" stroke-linecap="round" stroke-linejoin="round" stroke="#8c8c8c" stroke-miterlimit="10"/><path d="M112.688 162.918l53.421-21.367" fill="none" stroke-width=".3985" stroke="#8c8c8c" stroke-miterlimit="10"/><path d="M164.406 140.516c.317.515 1.664.941 1.98.922-.241.203-.925 1.445-.796 2.035" fill="none" stroke-width=".31880000000000003" stroke-linecap="round" stroke-linejoin="round" stroke="#8c8c8c" stroke-miterlimit="10"/><path d="M113.309 166.137h52.074" fill="none" stroke-width=".3985" stroke="#8c8c8c" stroke-miterlimit="10"/><path d="M164.188 164.543c.101.598 1.195 1.496 1.496 1.594-.301.101-1.395.996-1.497 1.593" fill="none" stroke-width=".31880000000000003" stroke-linecap="round" stroke-linejoin="round" stroke="#8c8c8c" stroke-miterlimit="10"/><path d="M110.188 187.824l58.84-70.605" fill="none" stroke-width=".3985" stroke="#8c8c8c" stroke-miterlimit="10"/><path d="M167.035 117.117c.524.309 1.914.04 2.184-.129-.117.293-.13 1.711.265 2.168" fill="none" stroke-width=".31880000000000003" stroke-linecap="round" stroke-linejoin="round" stroke="#8c8c8c" stroke-miterlimit="10"/><path d="M111.406 189.07l56.196-44.957" fill="none" stroke-width=".3985" stroke="#8c8c8c" stroke-miterlimit="10"/><path d="M165.672 143.617c.453.403 1.867.418 2.164.309-.172.265-.469 1.652-.172 2.18" fill="none" stroke-width=".31880000000000003" stroke-linecap="round" stroke-linejoin="round" stroke="#8c8c8c" stroke-miterlimit="10"/><path d="M112.688 191.266l53.421-21.368" fill="none" stroke-width=".3985" stroke="#8c8c8c" stroke-miterlimit="10"/><path d="M164.406 168.86c.317.519 1.664.945 1.98.925-.241.203-.925 1.445-.796 2.035" fill="none" stroke-width=".31880000000000003" stroke-linecap="round" stroke-linejoin="round" stroke="#8c8c8c" stroke-miterlimit="10"/><path d="M254.84 81.098a8.468 8.468 0 10-16.934 0 8.468 8.468 0 1016.934 0zm0 0M254.84 109.445c0-4.68-3.79-8.468-8.469-8.468a8.465 8.465 0 00-8.465 8.468 8.464 8.464 0 008.465 8.465c4.68 0 8.469-3.789 8.469-8.465zm0 0M254.84 137.79a8.468 8.468 0 10-16.934 0c0 4.679 3.79 8.468 8.465 8.468 4.68 0 8.469-3.79 8.469-8.469zm0 0M254.84 166.137a8.468 8.468 0 10-16.934 0c0 4.68 3.79 8.468 8.465 8.468 4.68 0 8.469-3.789 8.469-8.468zm0 0M254.84 194.484a8.468 8.468 0 10-16.934 0 8.468 8.468 0 1016.934 0zm0 0" fill="#99f"/><path d="M183.555 106.227l53.422-21.372" fill="none" stroke-width=".3985" stroke="#8c8c8c" stroke-miterlimit="10"/><path d="M235.273 83.82c.317.52 1.665.946 1.98.926-.241.203-.925 1.441-.796 2.035" fill="none" stroke-width=".31880000000000003" stroke-linecap="round" stroke-linejoin="round" stroke="#8c8c8c" stroke-miterlimit="10"/><path d="M184.176 109.445h52.074" fill="none" stroke-width=".3985" stroke="#8c8c8c" stroke-miterlimit="10"/><path d="M235.055 107.852c.101.597 1.195 1.492 1.496 1.593-.301.098-1.395.996-1.496 1.594" fill="none" stroke-width=".31880000000000003" stroke-linecap="round" stroke-linejoin="round" stroke="#8c8c8c" stroke-miterlimit="10"/><path d="M183.555 112.664l53.422 21.367" fill="none" stroke-width=".3985" stroke="#8c8c8c" stroke-miterlimit="10"/><path d="M236.457 132.11c-.129.59.555 1.827.797 2.035-.316-.02-1.664.406-1.98.921" fill="none" stroke-width=".31880000000000003" stroke-linecap="round" stroke-linejoin="round" stroke="#8c8c8c" stroke-miterlimit="10"/><path d="M182.273 114.86l56.196 44.956" fill="none" stroke-width=".3985" stroke="#8c8c8c" stroke-miterlimit="10"/><path d="M238.531 157.824c-.297.528 0 1.914.172 2.176-.297-.11-1.71-.094-2.164.312" fill="none" stroke-width=".31880000000000003" stroke-linecap="round" stroke-linejoin="round" stroke="#8c8c8c" stroke-miterlimit="10"/><path d="M181.055 116.102l58.84 70.605" fill="none" stroke-width=".3985" stroke="#8c8c8c" stroke-miterlimit="10"/><path d="M240.352 184.77c-.395.46-.383 1.875-.266 2.167-.27-.164-1.66-.433-2.184-.125" fill="none" stroke-width=".31880000000000003" stroke-linecap="round" stroke-linejoin="round" stroke="#8c8c8c" stroke-miterlimit="10"/><path d="M182.273 132.375l56.196-44.953" fill="none" stroke-width=".3985" stroke="#8c8c8c" stroke-miterlimit="10"/><path d="M236.54 86.922c.452.406 1.866.422 2.163.312-.172.262-.469 1.649-.172 2.176" fill="none" stroke-width=".31880000000000003" stroke-linecap="round" stroke-linejoin="round" stroke="#8c8c8c" stroke-miterlimit="10"/><path d="M183.555 134.57l53.422-21.367" fill="none" stroke-width=".3985" stroke="#8c8c8c" stroke-miterlimit="10"/><path d="M235.273 112.168c.317.516 1.665.941 1.98.926-.241.203-.925 1.441-.796 2.035" fill="none" stroke-width=".31880000000000003" stroke-linecap="round" stroke-linejoin="round" stroke="#8c8c8c" stroke-miterlimit="10"/><path d="M184.176 137.79h52.074" fill="none" stroke-width=".3985" stroke="#8c8c8c" stroke-miterlimit="10"/><path d="M235.055 136.195c.101.602 1.195 1.496 1.496 1.594-.301.102-1.395.996-1.496 1.598" fill="none" stroke-width=".31880000000000003" stroke-linecap="round" stroke-linejoin="round" stroke="#8c8c8c" stroke-miterlimit="10"/><path d="M183.555 141.008l53.422 21.37" fill="none" stroke-width=".3985" stroke="#8c8c8c" stroke-miterlimit="10"/><path d="M236.457 160.453c-.129.594.555 1.832.797 2.035-.316-.015-1.664.41-1.98.926" fill="none" stroke-width=".31880000000000003" stroke-linecap="round" stroke-linejoin="round" stroke="#8c8c8c" stroke-miterlimit="10"/><path d="M182.273 143.203l56.196 44.957" fill="none" stroke-width=".3985" stroke="#8c8c8c" stroke-miterlimit="10"/><path d="M238.531 186.172c-.297.527 0 1.91.172 2.176-.297-.11-1.71-.094-2.164.312" fill="none" stroke-width=".31880000000000003" stroke-linecap="round" stroke-linejoin="round" stroke="#8c8c8c" stroke-miterlimit="10"/><path d="M181.055 159.48l58.84-70.609" fill="none" stroke-width=".3985" stroke="#8c8c8c" stroke-miterlimit="10"/><path d="M237.902 88.77c.524.308 1.914.039 2.184-.125-.117.292-.129 1.707.266 2.167" fill="none" stroke-width=".31880000000000003" stroke-linecap="round" stroke-linejoin="round" stroke="#8c8c8c" stroke-miterlimit="10"/><path d="M182.273 160.723l56.196-44.957" fill="none" stroke-width=".3985" stroke="#8c8c8c" stroke-miterlimit="10"/><path d="M236.54 115.27c.452.406 1.866.417 2.163.308-.172.266-.469 1.652-.172 2.18" fill="none" stroke-width=".31880000000000003" stroke-linecap="round" stroke-linejoin="round" stroke="#8c8c8c" stroke-miterlimit="10"/><path d="M183.555 162.918l53.422-21.367" fill="none" stroke-width=".3985" stroke="#8c8c8c" stroke-miterlimit="10"/><path d="M235.273 140.516c.317.515 1.665.941 1.98.922-.241.203-.925 1.445-.796 2.035" fill="none" stroke-width=".31880000000000003" stroke-linecap="round" stroke-linejoin="round" stroke="#8c8c8c" stroke-miterlimit="10"/><path d="M184.176 166.137h52.074" fill="none" stroke-width=".3985" stroke="#8c8c8c" stroke-miterlimit="10"/><path d="M235.055 164.543c.101.598 1.195 1.496 1.496 1.594-.301.101-1.395.996-1.496 1.593" fill="none" stroke-width=".31880000000000003" stroke-linecap="round" stroke-linejoin="round" stroke="#8c8c8c" stroke-miterlimit="10"/><path d="M183.555 169.355l53.422 21.372" fill="none" stroke-width=".3985" stroke="#8c8c8c" stroke-miterlimit="10"/><path d="M236.457 188.8c-.129.595.555 1.833.797 2.036-.316-.02-1.664.406-1.98.926" fill="none" stroke-width=".31880000000000003" stroke-linecap="round" stroke-linejoin="round" stroke="#8c8c8c" stroke-miterlimit="10"/><path d="M325.71 38.578a8.469 8.469 0 00-8.472-8.469 8.465 8.465 0 00-8.465 8.47c0 4.675 3.79 8.468 8.465 8.468 4.68 0 8.473-3.793 8.473-8.469zm0 0" fill="#009"/><use xlink:href="#y" x="312.788" y="41.289" fill="#fff"/><use xlink:href="#a" x="312.155" y="41.289" fill="#fff"/><use xlink:href="#b" x="317.849" y="42.783" fill="#fff"/><path d="M325.71 66.926a8.469 8.469 0 00-8.472-8.469 8.465 8.465 0 00-8.465 8.469 8.464 8.464 0 008.465 8.465c4.68 0 8.473-3.79 8.473-8.465zm0 0" fill="#009"/><use xlink:href="#y" x="312.788" y="69.635" fill="#fff"/><use xlink:href="#a" x="312.155" y="69.635" fill="#fff"/><use xlink:href="#c" x="317.849" y="71.13" fill="#fff"/><path d="M325.71 95.27c0-4.676-3.792-8.47-8.472-8.47-4.675 0-8.465 3.794-8.465 8.47 0 4.68 3.79 8.468 8.465 8.468 4.68 0 8.473-3.789 8.473-8.468zm0 0" fill="#009"/><use xlink:href="#y" x="312.788" y="97.982" fill="#fff"/><use xlink:href="#a" x="312.155" y="97.982" fill="#fff"/><use xlink:href="#d" x="317.849" y="99.476" fill="#fff"/><path d="M325.71 123.617c0-4.676-3.792-8.469-8.472-8.469-4.675 0-8.465 3.793-8.465 8.47 0 4.675 3.79 8.468 8.465 8.468 4.68 0 8.473-3.793 8.473-8.469zm0 0" fill="#009"/><use xlink:href="#y" x="312.788" y="126.328" fill="#fff"/><use xlink:href="#a" x="312.155" y="126.328" fill="#fff"/><use xlink:href="#e" x="317.849" y="127.822" fill="#fff"/><path d="M325.71 151.965c0-4.676-3.792-8.469-8.472-8.469-4.675 0-8.465 3.793-8.465 8.469 0 4.676 3.79 8.469 8.465 8.469 4.68 0 8.473-3.793 8.473-8.47zm0 0" fill="#009"/><use xlink:href="#y" x="312.788" y="154.674" fill="#fff"/><use xlink:href="#a" x="312.155" y="154.674" fill="#fff"/><use xlink:href="#f" x="317.849" y="156.169" fill="#fff"/><path d="M325.71 180.313a8.469 8.469 0 00-8.472-8.47 8.465 8.465 0 00-8.465 8.47c0 4.675 3.79 8.468 8.465 8.468 4.68 0 8.473-3.793 8.473-8.469zm0 0" fill="#009"/><use xlink:href="#y" x="312.788" y="183.021" fill="#fff"/><use xlink:href="#a" x="312.155" y="183.021" fill="#fff"/><use xlink:href="#g" x="317.849" y="184.515" fill="#fff"/><path d="M325.71 208.656c0-4.676-3.792-8.465-8.472-8.465a8.464 8.464 0 00-8.465 8.465c0 4.68 3.79 8.469 8.465 8.469 4.68 0 8.473-3.79 8.473-8.469zm0 0" fill="#009"/><use xlink:href="#y" x="312.788" y="211.367" fill="#fff"/><use xlink:href="#a" x="312.155" y="211.367" fill="#fff"/><use xlink:href="#h" x="317.849" y="212.862" fill="#fff"/><g clip-path="url(#z)"><path d="M325.71 237.004c0-4.676-3.792-8.469-8.472-8.469-4.675 0-8.465 3.793-8.465 8.469 0 4.68 3.79 8.469 8.465 8.469 4.68 0 8.473-3.79 8.473-8.47zm0 0" fill="#009"/></g><use xlink:href="#y" x="312.788" y="239.714" fill="#fff"/><use xlink:href="#a" x="312.155" y="239.714" fill="#fff"/><use xlink:href="#j" x="317.849" y="241.208" fill="#fff"/><use xlink:href="#A" x="287.404" y="16.105"/><use xlink:href="#n" x="295.153" y="16.105"/><use xlink:href="#o" x="300.688" y="16.105"/><use xlink:href="#m" x="304.563" y="16.105"/><use xlink:href="#n" x="310.098" y="16.105"/><use xlink:href="#o" x="315.633" y="16.105"/><use xlink:href="#p" x="322.825" y="16.105"/><use xlink:href="#q" x="329.052" y="16.105"/><use xlink:href="#r" x="333.754" y="16.105"/><use xlink:href="#s" x="338.743" y="16.105"/><use xlink:href="#t" x="343.171" y="16.105"/><path d="M253.805 76.637l54.757-32.852" fill="none" stroke-width=".3985" stroke="#8c8c8c" stroke-miterlimit="10"/><path d="M306.715 43.031c.394.461 1.793.668 2.101.602-.203.238-.683 1.57-.46 2.133" fill="none" stroke-width=".31880000000000003" stroke-linecap="round" stroke-linejoin="round" stroke="#8c8c8c" stroke-miterlimit="10"/><path d="M254.871 79.398l52.445-10.488" fill="none" stroke-width=".3985" stroke="#8c8c8c" stroke-miterlimit="10"/><path d="M305.828 67.578c.219.57 1.469 1.234 1.781 1.274-.273.156-1.171 1.25-1.156 1.855" fill="none" stroke-width=".31880000000000003" stroke-linecap="round" stroke-linejoin="round" stroke="#8c8c8c" stroke-miterlimit="10"/><path d="M254.871 82.797l52.445 10.488" fill="none" stroke-width=".3985" stroke="#8c8c8c" stroke-miterlimit="10"/><path d="M306.453 91.488c-.015.606.883 1.7 1.156 1.856-.312.039-1.562.703-1.78 1.27" fill="none" stroke-width=".31880000000000003" stroke-linecap="round" stroke-linejoin="round" stroke="#8c8c8c" stroke-miterlimit="10"/><path d="M253.805 85.559l54.757 32.851" fill="none" stroke-width=".3985" stroke="#8c8c8c" stroke-miterlimit="10"/><path d="M308.355 116.43c-.222.562.258 1.894.461 2.132-.308-.066-1.707.137-2.101.598" fill="none" stroke-width=".31880000000000003" stroke-linecap="round" stroke-linejoin="round" stroke="#8c8c8c" stroke-miterlimit="10"/><path d="M252.504 87.227l57.578 57.582" fill="none" stroke-width=".3985" stroke="#8c8c8c" stroke-miterlimit="10"/><path d="M310.363 142.836c-.351.492-.21 1.898-.07 2.184-.281-.141-1.688-.286-2.184.07" fill="none" stroke-width=".31880000000000003" stroke-linecap="round" stroke-linejoin="round" stroke="#8c8c8c" stroke-miterlimit="10"/><path d="M251.41 88.148l59.945 83.926" fill="none" stroke-width=".3985" stroke="#8c8c8c" stroke-miterlimit="10"/><path d="M311.96 170.176c-.429.43-.522 1.84-.429 2.14-.254-.183-1.62-.554-2.168-.289" fill="none" stroke-width=".31880000000000003" stroke-linecap="round" stroke-linejoin="round" stroke="#8c8c8c" stroke-miterlimit="10"/><path d="M250.582 88.676l61.742 111.133" fill="none" stroke-width=".3985" stroke="#8c8c8c" stroke-miterlimit="10"/><path d="M313.137 197.992c-.473.375-.727 1.77-.668 2.078-.23-.21-1.547-.734-2.117-.53" fill="none" stroke-width=".31880000000000003" stroke-linecap="round" stroke-linejoin="round" stroke="#8c8c8c" stroke-miterlimit="10"/><path d="M249.96 88.988l63.09 138.801" fill="none" stroke-width=".3985" stroke="#8c8c8c" stroke-miterlimit="10"/><path d="M314.008 226.043c-.504.336-.863 1.707-.832 2.02-.215-.231-1.485-.856-2.07-.7" fill="none" stroke-width=".31880000000000003" stroke-linecap="round" stroke-linejoin="round" stroke="#8c8c8c" stroke-miterlimit="10"/><path d="M252.504 103.316l57.578-57.582" fill="none" stroke-width=".3985" stroke="#8c8c8c" stroke-miterlimit="10"/><path d="M308.11 45.453c.495.352 1.902.211 2.183.07-.14.282-.281 1.692.07 2.184" fill="none" stroke-width=".31880000000000003" stroke-linecap="round" stroke-linejoin="round" stroke="#8c8c8c" stroke-miterlimit="10"/><path d="M253.805 104.984l54.757-32.851" fill="none" stroke-width=".3985" stroke="#8c8c8c" stroke-miterlimit="10"/><path d="M306.715 71.379c.394.46 1.793.668 2.101.598-.203.242-.683 1.574-.46 2.136" fill="none" stroke-width=".31880000000000003" stroke-linecap="round" stroke-linejoin="round" stroke="#8c8c8c" stroke-miterlimit="10"/><path d="M254.871 107.742l52.445-10.484" fill="none" stroke-width=".3985" stroke="#8c8c8c" stroke-miterlimit="10"/><path d="M305.828 95.926c.219.566 1.469 1.23 1.781 1.27-.273.156-1.171 1.25-1.156 1.859" fill="none" stroke-width=".31880000000000003" stroke-linecap="round" stroke-linejoin="round" stroke="#8c8c8c" stroke-miterlimit="10"/><path d="M254.871 111.145l52.445 10.488" fill="none" stroke-width=".3985" stroke="#8c8c8c" stroke-miterlimit="10"/><path d="M306.453 119.836c-.015.605.883 1.7 1.156 1.855-.312.04-1.562.704-1.78 1.27" fill="none" stroke-width=".31880000000000003" stroke-linecap="round" stroke-linejoin="round" stroke="#8c8c8c" stroke-miterlimit="10"/><path d="M253.805 113.902l54.757 32.856" fill="none" stroke-width=".3985" stroke="#8c8c8c" stroke-miterlimit="10"/><path d="M308.355 144.773c-.222.567.258 1.899.461 2.137-.308-.066-1.707.137-2.101.598" fill="none" stroke-width=".31880000000000003" stroke-linecap="round" stroke-linejoin="round" stroke="#8c8c8c" stroke-miterlimit="10"/><path d="M252.504 115.574l57.578 57.578" fill="none" stroke-width=".3985" stroke="#8c8c8c" stroke-miterlimit="10"/><path d="M310.363 171.18c-.351.496-.21 1.902-.07 2.183-.281-.14-1.688-.281-2.184.07" fill="none" stroke-width=".31880000000000003" stroke-linecap="round" stroke-linejoin="round" stroke="#8c8c8c" stroke-miterlimit="10"/><path d="M251.41 116.496l59.945 83.926" fill="none" stroke-width=".3985" stroke="#8c8c8c" stroke-miterlimit="10"/><path d="M311.96 198.523c-.429.426-.522 1.84-.429 2.141-.254-.184-1.62-.555-2.168-.289" fill="none" stroke-width=".31880000000000003" stroke-linecap="round" stroke-linejoin="round" stroke="#8c8c8c" stroke-miterlimit="10"/><path d="M250.582 117.02l61.742 111.136" fill="none" stroke-width=".3985" stroke="#8c8c8c" stroke-miterlimit="10"/><path d="M313.137 226.336c-.473.379-.727 1.773-.668 2.082-.23-.215-1.547-.734-2.117-.531" fill="none" stroke-width=".31880000000000003" stroke-linecap="round" stroke-linejoin="round" stroke="#8c8c8c" stroke-miterlimit="10"/><path d="M251.41 130.738l59.945-83.926" fill="none" stroke-width=".3985" stroke="#8c8c8c" stroke-miterlimit="10"/><path d="M309.363 46.86c.547.265 1.914-.106 2.168-.29-.093.301 0 1.715.43 2.145" fill="none" stroke-width=".31880000000000003" stroke-linecap="round" stroke-linejoin="round" stroke="#8c8c8c" stroke-miterlimit="10"/><path d="M252.504 131.66l57.578-57.578" fill="none" stroke-width=".3985" stroke="#8c8c8c" stroke-miterlimit="10"/><path d="M308.11 73.8c.495.352 1.902.212 2.183.071-.14.281-.281 1.691.07 2.184" fill="none" stroke-width=".31880000000000003" stroke-linecap="round" stroke-linejoin="round" stroke="#8c8c8c" stroke-miterlimit="10"/><path d="M253.805 133.332l54.757-32.855" fill="none" stroke-width=".3985" stroke="#8c8c8c" stroke-miterlimit="10"/><path d="M306.715 99.727c.394.46 1.793.668 2.101.597-.203.239-.683 1.57-.46 2.137" fill="none" stroke-width=".31880000000000003" stroke-linecap="round" stroke-linejoin="round" stroke="#8c8c8c" stroke-miterlimit="10"/><path d="M254.871 136.09l52.445-10.488" fill="none" stroke-width=".3985" stroke="#8c8c8c" stroke-miterlimit="10"/><path d="M305.828 124.273c.219.567 1.469 1.23 1.781 1.27-.273.156-1.171 1.25-1.156 1.855" fill="none" stroke-width=".31880000000000003" stroke-linecap="round" stroke-linejoin="round" stroke="#8c8c8c" stroke-miterlimit="10"/><path d="M254.871 139.492l52.445 10.488" fill="none" stroke-width=".3985" stroke="#8c8c8c" stroke-miterlimit="10"/><path d="M306.453 148.184c-.015.605.883 1.699 1.156 1.855-.312.04-1.562.703-1.78 1.27" fill="none" stroke-width=".31880000000000003" stroke-linecap="round" stroke-linejoin="round" stroke="#8c8c8c" stroke-miterlimit="10"/><path d="M253.805 142.25l54.757 32.852" fill="none" stroke-width=".3985" stroke="#8c8c8c" stroke-miterlimit="10"/><path d="M308.355 173.121c-.222.563.258 1.899.461 2.137-.308-.07-1.707.137-2.101.597" fill="none" stroke-width=".31880000000000003" stroke-linecap="round" stroke-linejoin="round" stroke="#8c8c8c" stroke-miterlimit="10"/><path d="M252.504 143.922l57.578 57.578" fill="none" stroke-width=".3985" stroke="#8c8c8c" stroke-miterlimit="10"/><path d="M310.363 199.527c-.351.493-.21 1.903-.07 2.184-.281-.14-1.688-.281-2.184.07" fill="none" stroke-width=".31880000000000003" stroke-linecap="round" stroke-linejoin="round" stroke="#8c8c8c" stroke-miterlimit="10"/><path d="M251.41 144.844l59.945 83.926" fill="none" stroke-width=".3985" stroke="#8c8c8c" stroke-miterlimit="10"/><path d="M311.96 226.871c-.429.426-.522 1.84-.429 2.14-.254-.183-1.62-.554-2.168-.288" fill="none" stroke-width=".31880000000000003" stroke-linecap="round" stroke-linejoin="round" stroke="#8c8c8c" stroke-miterlimit="10"/><path d="M250.582 158.563l61.742-111.137" fill="none" stroke-width=".3985" stroke="#8c8c8c" stroke-miterlimit="10"/><path d="M310.352 47.695c.57.203 1.886-.316 2.117-.53-.059.308.195 1.702.668 2.077" fill="none" stroke-width=".31880000000000003" stroke-linecap="round" stroke-linejoin="round" stroke="#8c8c8c" stroke-miterlimit="10"/><path d="M251.41 159.086l59.945-83.926" fill="none" stroke-width=".3985" stroke="#8c8c8c" stroke-miterlimit="10"/><path d="M309.363 75.207c.547.266 1.914-.105 2.168-.289-.093.3 0 1.715.43 2.14" fill="none" stroke-width=".31880000000000003" stroke-linecap="round" stroke-linejoin="round" stroke="#8c8c8c" stroke-miterlimit="10"/><path d="M252.504 160.008l57.578-57.578" fill="none" stroke-width=".3985" stroke="#8c8c8c" stroke-miterlimit="10"/><path d="M308.11 102.145c.495.355 1.902.21 2.183.074-.14.281-.281 1.687.07 2.18" fill="none" stroke-width=".31880000000000003" stroke-linecap="round" stroke-linejoin="round" stroke="#8c8c8c" stroke-miterlimit="10"/><path d="M253.805 161.68l54.757-32.856" fill="none" stroke-width=".3985" stroke="#8c8c8c" stroke-miterlimit="10"/><path d="M306.715 128.074c.394.461 1.793.664 2.101.598-.203.238-.683 1.57-.46 2.137" fill="none" stroke-width=".31880000000000003" stroke-linecap="round" stroke-linejoin="round" stroke="#8c8c8c" stroke-miterlimit="10"/><path d="M254.871 164.438l52.445-10.489" fill="none" stroke-width=".3985" stroke="#8c8c8c" stroke-miterlimit="10"/><path d="M305.828 152.621c.219.566 1.469 1.23 1.781 1.27-.273.156-1.171 1.25-1.156 1.855" fill="none" stroke-width=".31880000000000003" stroke-linecap="round" stroke-linejoin="round" stroke="#8c8c8c" stroke-miterlimit="10"/><path d="M254.871 167.836l52.445 10.488" fill="none" stroke-width=".3985" stroke="#8c8c8c" stroke-miterlimit="10"/><path d="M306.453 176.527c-.015.606.883 1.7 1.156 1.856-.312.039-1.562.707-1.78 1.273" fill="none" stroke-width=".31880000000000003" stroke-linecap="round" stroke-linejoin="round" stroke="#8c8c8c" stroke-miterlimit="10"/><path d="M253.805 170.598l54.757 32.851" fill="none" stroke-width=".3985" stroke="#8c8c8c" stroke-miterlimit="10"/><path d="M308.355 201.469c-.222.562.258 1.894.461 2.136-.308-.07-1.707.137-2.101.598" fill="none" stroke-width=".31880000000000003" stroke-linecap="round" stroke-linejoin="round" stroke="#8c8c8c" stroke-miterlimit="10"/><path d="M252.504 172.266l57.578 57.582" fill="none" stroke-width=".3985" stroke="#8c8c8c" stroke-miterlimit="10"/><path d="M310.363 227.875c-.351.492-.21 1.902-.07 2.184-.281-.141-1.688-.282-2.184.07" fill="none" stroke-width=".31880000000000003" stroke-linecap="round" stroke-linejoin="round" stroke="#8c8c8c" stroke-miterlimit="10"/><path d="M249.96 186.594l63.09-138.805" fill="none" stroke-width=".3985" stroke="#8c8c8c" stroke-miterlimit="10"/><path d="M311.105 48.219c.586.16 1.856-.469 2.07-.7-.03.313.329 1.68.833 2.02" fill="none" stroke-width=".31880000000000003" stroke-linecap="round" stroke-linejoin="round" stroke="#8c8c8c" stroke-miterlimit="10"/><path d="M250.582 186.906l61.742-111.133" fill="none" stroke-width=".3985" stroke="#8c8c8c" stroke-miterlimit="10"/><path d="M310.352 76.043c.57.203 1.886-.32 2.117-.531-.059.308.195 1.703.668 2.078" fill="none" stroke-width=".31880000000000003" stroke-linecap="round" stroke-linejoin="round" stroke="#8c8c8c" stroke-miterlimit="10"/><path d="M251.41 187.434l59.945-83.926" fill="none" stroke-width=".3985" stroke="#8c8c8c" stroke-miterlimit="10"/><path d="M309.363 103.555c.547.265 1.914-.106 2.168-.29-.093.301 0 1.712.43 2.141" fill="none" stroke-width=".31880000000000003" stroke-linecap="round" stroke-linejoin="round" stroke="#8c8c8c" stroke-miterlimit="10"/><path d="M252.504 188.355l57.578-57.582" fill="none" stroke-width=".3985" stroke="#8c8c8c" stroke-miterlimit="10"/><path d="M308.11 130.492c.495.352 1.902.211 2.183.07-.14.282-.281 1.692.07 2.184" fill="none" stroke-width=".31880000000000003" stroke-linecap="round" stroke-linejoin="round" stroke="#8c8c8c" stroke-miterlimit="10"/><path d="M253.805 190.023l54.757-32.851" fill="none" stroke-width=".3985" stroke="#8c8c8c" stroke-miterlimit="10"/><path d="M306.715 156.422c.394.46 1.793.664 2.101.598-.203.238-.683 1.57-.46 2.132" fill="none" stroke-width=".31880000000000003" stroke-linecap="round" stroke-linejoin="round" stroke="#8c8c8c" stroke-miterlimit="10"/><path d="M254.871 192.785l52.445-10.488" fill="none" stroke-width=".3985" stroke="#8c8c8c" stroke-miterlimit="10"/><path d="M305.828 180.969c.219.566 1.469 1.23 1.781 1.27-.273.156-1.171 1.25-1.156 1.855" fill="none" stroke-width=".31880000000000003" stroke-linecap="round" stroke-linejoin="round" stroke="#8c8c8c" stroke-miterlimit="10"/><path d="M254.871 196.184l52.445 10.488" fill="none" stroke-width=".3985" stroke="#8c8c8c" stroke-miterlimit="10"/><path d="M306.453 204.875c-.015.605.883 1.7 1.156 1.855-.312.04-1.562.704-1.78 1.27" fill="none" stroke-width=".31880000000000003" stroke-linecap="round" stroke-linejoin="round" stroke="#8c8c8c" stroke-miterlimit="10"/><path d="M253.805 198.945l54.757 32.852" fill="none" stroke-width=".3985" stroke="#8c8c8c" stroke-miterlimit="10"/><path d="M308.355 229.816c-.222.563.258 1.895.461 2.133-.308-.066-1.707.137-2.101.602" fill="none" stroke-width=".31880000000000003" stroke-linecap="round" stroke-linejoin="round" stroke="#8c8c8c" stroke-miterlimit="10"/></svg>