<svg xmlns="http://www.w3.org/2000/svg" xmlns:xlink="http://www.w3.org/1999/xlink" width="468.012" height="327.295" viewBox="0 0 351.009 245.471"><defs><symbol overflow="visible" id="a"><path style="stroke:none" d="M3.328-3.016c.063-.25.297-1.171.985-1.171.046 0 .296 0 .5.125a.578.578 0 0 0-.47.546c0 .157.11.344.376.344a.546.546 0 0 0 .531-.578c0-.516-.578-.656-.922-.656-.578 0-.922.531-1.047.75-.25-.656-.781-.75-1.078-.75-1.031 0-1.61 1.281-1.61 1.531 0 .11.11.11.126.11.078 0 .11-.032.125-.11.344-1.063 1-1.313 1.344-1.313.187 0 .53.094.53.672 0 .313-.171.97-.53 2.375-.157.61-.516 1.032-.954 1.032-.062 0-.28 0-.5-.125.25-.063.47-.266.47-.547 0-.266-.22-.344-.36-.344-.313 0-.547.25-.547.578 0 .453.484.656.922.656.672 0 1.031-.703 1.047-.75.125.36.484.75 1.078.75 1.031 0 1.594-1.28 1.594-1.53 0-.11-.079-.11-.11-.11-.094 0-.11.047-.14.11-.329 1.077-1 1.312-1.313 1.312-.39 0-.547-.313-.547-.657 0-.218.047-.437.156-.875Zm0 0"/></symbol><symbol overflow="visible" id="b"><path style="stroke:none" d="M2.328-4.438c0-.187 0-.187-.203-.187-.453.438-1.078.438-1.36.438v.25c.157 0 .626 0 1-.188v3.547c0 .234 0 .328-.687.328H.812V0c.125 0 .985-.031 1.235-.031.219 0 1.094.031 1.25.031v-.25H3.03c-.703 0-.703-.094-.703-.328Zm0 0"/></symbol><symbol overflow="visible" id="c"><path style="stroke:none" d="M3.516-1.266H3.28c-.015.157-.094.563-.187.625-.047.047-.578.047-.688.047h-1.28c.734-.64.984-.844 1.39-1.172.516-.406 1-.843 1-1.5 0-.843-.734-1.359-1.624-1.359-.86 0-1.454.61-1.454 1.25 0 .344.297.39.376.39a.365.365 0 0 0 .359-.374c0-.125-.047-.375-.406-.375.218-.485.687-.641 1.015-.641.703 0 1.063.547 1.063 1.11 0 .609-.438 1.078-.656 1.328L.516-.266C.437-.203.437-.187.437 0h2.876Zm0 0"/></symbol><symbol overflow="visible" id="d"><path style="stroke:none" d="M1.906-2.328c.547 0 .938.375.938 1.125 0 .86-.516 1.125-.906 1.125-.282 0-.907-.078-1.188-.5.328 0 .406-.235.406-.39 0-.22-.172-.376-.39-.376a.38.38 0 0 0-.391.407C.375-.281 1.094.14 1.938.14c.968 0 1.64-.657 1.64-1.344 0-.547-.437-1.094-1.203-1.25.719-.266.984-.781.984-1.219 0-.547-.625-.953-1.406-.953-.766 0-1.36.375-1.36.938 0 .234.157.359.36.359.219 0 .36-.156.36-.344 0-.203-.141-.36-.36-.375.25-.297.719-.375.985-.375.312 0 .75.156.75.75 0 .297-.094.625-.282.828-.219.266-.422.281-.765.313-.172.015-.188.015-.22.015-.015 0-.077.016-.077.094 0 .094.062.094.187.094Zm0 0"/></symbol><symbol overflow="visible" id="e"><path style="stroke:none" d="M3.688-1.14v-.25h-.782V-4.5c0-.14 0-.203-.14-.203-.094 0-.125 0-.188.11L.266-1.392v.25h2.062v.563c0 .25 0 .328-.578.328h-.188V0c.36-.016.797-.031 1.047-.031.266 0 .704.015 1.063.031v-.25h-.188c-.578 0-.578-.078-.578-.328v-.563ZM2.375-3.939v2.547H.531Zm0 0"/></symbol><symbol overflow="visible" id="f"><path style="stroke:none" d="M1.078-3.89c.36.093.563.093.672.093.922 0 1.469-.625 1.469-.734 0-.078-.047-.094-.078-.094-.016 0-.032 0-.063.016-.172.062-.531.203-1.047.203-.203 0-.562-.016-1.015-.188-.079-.031-.094-.031-.094-.031-.094 0-.094.078-.094.188v2.046c0 .125 0 .204.11.204.062 0 .078 0 .14-.094.297-.375.734-.438.969-.438a.72.72 0 0 1 .64.39c.126.235.172.5.172.907 0 .203 0 .61-.218.922a.984.984 0 0 1-.813.422c-.453 0-.922-.25-1.094-.719.266.016.407-.156.407-.344 0-.296-.266-.343-.36-.343 0 0-.344 0-.344.375 0 .625.579 1.25 1.407 1.25.89 0 1.672-.657 1.672-1.547 0-.782-.594-1.5-1.454-1.5-.312 0-.671.062-.984.328Zm0 0"/></symbol><symbol overflow="visible" id="g"><path style="stroke:none" d="M1.047-2.281c0-.563.047-1.078.312-1.516.235-.375.61-.625 1.063-.625.203 0 .484.047.625.234-.172.016-.328.141-.328.344a.32.32 0 0 0 .328.328c.219 0 .344-.14.344-.343 0-.407-.297-.766-.985-.766-1 0-2.031.922-2.031 2.422C.375-.406 1.219.14 2 .14c.844 0 1.578-.657 1.578-1.563 0-.89-.703-1.547-1.515-1.547-.563 0-.86.375-1.016.688ZM2-.078c-.36 0-.625-.203-.781-.516-.094-.203-.157-.562-.157-.969 0-.687.407-1.203.97-1.203a.79.79 0 0 1 .702.375c.172.266.172.563.172.97 0 .39 0 .687-.187.968A.815.815 0 0 1 2-.078Zm0 0"/></symbol><symbol overflow="visible" id="h"><path style="stroke:none" d="M3.734-4.203c.063-.094.063-.11.063-.281H1.969c-.282 0-.36-.016-.61-.032C1-4.546.984-4.594.97-4.703H.734L.484-3.22H.72c.015-.11.094-.562.203-.64.047-.032.625-.032.719-.032h1.515c-.219.282-.578.72-.719.922-.906 1.188-1 2.297-1 2.703 0 .079 0 .407.329.407.343 0 .343-.313.343-.407v-.28c0-1.345.282-1.97.579-2.345Zm0 0"/></symbol><symbol overflow="visible" id="j"><path style="stroke:none" d="M2.469-2.516c.547-.265.89-.593.89-1.078 0-.672-.703-1.031-1.375-1.031-.765 0-1.39.5-1.39 1.156 0 .328.156.563.281.703.125.157.172.188.578.422-.39.172-1.078.547-1.078 1.281 0 .766.797 1.204 1.594 1.204.89 0 1.61-.563 1.61-1.313 0-.469-.267-.86-.673-1.094-.094-.062-.328-.187-.437-.25Zm-1.125-.656c-.188-.11-.375-.297-.375-.562 0-.438.5-.688 1-.688.547 0 1.031.344 1.031.828 0 .625-.734.938-.734.938-.016 0-.032 0-.079-.031Zm.328.969.969.547c.171.11.515.312.515.718 0 .532-.578.86-1.172.86-.64 0-1.187-.422-1.187-.985 0-.515.375-.921.875-1.14Zm0 0"/></symbol><symbol overflow="visible" id="k"><path style="stroke:none" d="M2.25-6.031c0-.36.016-.469.813-.469h.25v-.313c-.344.032-1.126.032-1.516.032-.375 0-1.172 0-1.516-.032v.313h.25c.797 0 .828.11.828.469v5.25c0 .36-.03.469-.828.469h-.25V0c.344-.031 1.14-.031 1.516-.031.39 0 1.172 0 1.516.031v-.313h-.25c-.797 0-.813-.109-.813-.468Zm0 0"/></symbol><symbol overflow="visible" id="l"><path style="stroke:none" d="M1.094-3.422V-.75c0 .438-.11.438-.782.438V0c.36-.016.86-.031 1.141-.031.25 0 .766.015 1.11.031v-.313c-.672 0-.782 0-.782-.437v-1.844c0-1.031.719-1.594 1.344-1.594.64 0 .75.532.75 1.11V-.75c0 .438-.11.438-.781.438V0c.344-.016.86-.031 1.125-.031.25 0 .781.015 1.11.031v-.313c-.516 0-.766 0-.766-.296v-1.907c0-.859 0-1.156-.313-1.515-.14-.172-.469-.375-1.047-.375-.734 0-1.203.422-1.484 1.047v-1.047l-1.407.11v.312c.704 0 .782.062.782.562Zm0 0"/></symbol><symbol overflow="visible" id="m"><path style="stroke:none" d="M1.719-3.75v-.656l-1.438.11v.312c.703 0 .781.062.781.5v4.656c0 .453-.109.453-.78.453v.313c.343-.016.859-.032 1.109-.032.28 0 .78.016 1.125.032v-.313c-.657 0-.766 0-.766-.453V-.594c.047.172.469.703 1.219.703 1.187 0 2.219-.984 2.219-2.265 0-1.266-.954-2.25-2.079-2.25-.78 0-1.203.437-1.39.656Zm.031 2.61v-2.22c.281-.515.766-.796 1.281-.796.735 0 1.328.875 1.328 2C4.36-.953 3.672-.11 2.938-.11c-.407 0-.782-.204-1.047-.61-.141-.203-.141-.219-.141-.422Zm0 0"/></symbol><symbol overflow="visible" id="n"><path style="stroke:none" d="M3.89-.781v.89L5.329 0v-.313c-.687 0-.766-.062-.766-.562v-3.531l-1.468.11v.312c.687 0 .781.062.781.562v1.766c0 .875-.484 1.547-1.219 1.547-.828 0-.875-.47-.875-.985v-3.312l-1.468.11v.312c.78 0 .78.03.78.906v1.5c0 .781 0 1.687 1.516 1.687.563 0 1-.28 1.282-.89Zm0 0"/></symbol><symbol overflow="visible" id="o"><path style="stroke:none" d="M1.719-3.984h1.437v-.313H1.72v-1.828h-.25c0 .813-.297 1.875-1.282 1.922v.219h.844v2.75c0 1.218.938 1.343 1.297 1.343.703 0 .985-.703.985-1.343v-.563h-.25v.547c0 .734-.297 1.11-.672 1.11-.672 0-.672-.907-.672-1.079Zm0 0"/></symbol><symbol overflow="visible" id="p"><path style="stroke:none" d="M5.797-2.578h-.25c-.11 1.015-.25 2.265-2 2.265h-.813c-.468 0-.484-.062-.484-.39v-5.313c0-.343 0-.484.938-.484h.328v-.313c-.36.032-1.266.032-1.672.032-.39 0-1.172 0-1.516-.032v.313h.234c.766 0 .797.11.797.469v5.25c0 .36-.03.469-.796.469H.328V0h5.188Zm0 0"/></symbol><symbol overflow="visible" id="q"><path style="stroke:none" d="M3.313-.75c.046.39.312.813.78.813.22 0 .829-.141.829-.954v-.562h-.25v.562c0 .579-.25.641-.36.641-.328 0-.375-.453-.375-.5v-1.984c0-.422 0-.813-.359-1.188a1.9 1.9 0 0 0-1.36-.547C1.391-4.469.703-4 .703-3.344c0 .297.203.469.469.469a.435.435 0 0 0 .453-.453c0-.125-.047-.453-.516-.453.282-.36.766-.469 1.079-.469.5 0 1.062.39 1.062 1.281v.36c-.516.03-1.203.062-1.828.359-.75.344-1 .86-1 1.297 0 .812.969 1.062 1.594 1.062A1.38 1.38 0 0 0 3.312-.75ZM3.25-2.39v1c0 .937-.719 1.28-1.172 1.28-.484 0-.89-.343-.89-.843 0-.547.421-1.375 2.062-1.438Zm0 0"/></symbol><symbol overflow="visible" id="r"><path style="stroke:none" d="M4.14-3.344c.25-.64.766-.64.923-.64v-.313c-.235.016-.516.031-.75.031-.172 0-.641-.015-.86-.03v.312c.313 0 .469.171.469.421 0 .11-.016.126-.063.25L2.844-.874 1.75-3.547c-.047-.11-.063-.14-.063-.187 0-.25.36-.25.563-.25v-.313c-.266.016-.922.031-1.094.031-.265 0-.672-.015-.968-.03v.312c.484 0 .671 0 .812.343L2.5 0a6.764 6.764 0 0 0-.25.594c-.219.547-.5 1.234-1.14 1.234-.048 0-.282 0-.47-.187.313-.032.391-.25.391-.422C1.031.969.844.812.61.812c-.203 0-.421.125-.421.422 0 .454.421.813.921.813.625 0 1.032-.578 1.266-1.14Zm0 0"/></symbol><symbol overflow="visible" id="s"><path style="stroke:none" d="M1.11-2.516C1.171-4 2.015-4.25 2.36-4.25c1.015 0 1.124 1.344 1.124 1.734Zm0 .22h2.78c.22 0 .25 0 .25-.22 0-.984-.546-1.953-1.78-1.953-1.158 0-2.08 1.032-2.08 2.282C.281-.86 1.328.108 2.47.108 3.688.11 4.14-1 4.14-1.187c0-.094-.079-.125-.141-.125-.078 0-.11.062-.125.14C3.531-.14 2.625-.14 2.531-.14c-.5 0-.89-.296-1.125-.671-.297-.47-.297-1.125-.297-1.485Zm0 0"/></symbol><symbol overflow="visible" id="t"><path style="stroke:none" d="M1.672-3.313v-1.093l-1.39.11v.312c.702 0 .78.062.78.562V-.75c0 .438-.109.438-.78.438V0c.39-.016.859-.031 1.14-.031.39 0 .86 0 1.266.031v-.313h-.22c-.734 0-.75-.109-.75-.468v-1.531c0-.985.423-1.876 1.173-1.876.062 0 .093 0 .109.016-.031 0-.234.125-.234.39 0 .266.218.423.437.423a.421.421 0 0 0 .422-.438c0-.312-.313-.61-.734-.61-.735 0-1.094.673-1.22 1.095Zm0 0"/></symbol><symbol overflow="visible" id="u"><path style="stroke:none" d="M2.234-3.516v-2.578c0-.234 0-.36.22-.39.093-.016.39-.016.593-.016.89 0 2 .047 2 1.484 0 .688-.234 1.5-1.703 1.5Zm2.11.125c.953-.234 1.734-.843 1.734-1.625 0-.953-1.14-1.796-2.594-1.796H.344v.312h.25c.765 0 .781.11.781.469v5.25c0 .36-.016.469-.781.469h-.25V0c.36-.031 1.078-.031 1.453-.031.39 0 1.11 0 1.469.031v-.313h-.25c-.766 0-.782-.109-.782-.468v-2.516h1.141c.156 0 .578 0 .938.344.375.344.375.656.375 1.328 0 .64 0 1.047.406 1.422.406.36.953.422 1.25.422.781 0 .953-.813.953-1.094 0-.063 0-.172-.125-.172-.11 0-.11.094-.125.156C6.984-.17 6.64 0 6.39 0c-.485 0-.563-.516-.704-1.438l-.14-.796c-.172-.641-.656-.97-1.203-1.157Zm0 0"/></symbol><symbol overflow="visible" id="v"><path style="stroke:none" d="M2.078-1.938c.219.047 1.031.204 1.031.922 0 .5-.343.907-1.125.907-.843 0-1.203-.563-1.39-1.422-.031-.125-.031-.157-.14-.157-.126 0-.126.063-.126.235v1.328c0 .172 0 .234.11.234C.483.11.5.094.688-.094.703-.109.703-.125.89-.312c.437.406.89.421 1.093.421 1.141 0 1.61-.671 1.61-1.39 0-.516-.297-.828-.422-.938-.328-.328-.719-.406-1.14-.484-.563-.11-1.22-.235-1.22-.813 0-.359.25-.765 1.11-.765 1.094 0 1.156.906 1.172 1.203 0 .094.094.094.11.094.14 0 .14-.047.14-.235v-1.015c0-.157 0-.235-.11-.235-.046 0-.078 0-.203.125a1.676 1.676 0 0 1-.172.157c-.375-.282-.78-.282-.937-.282-1.219 0-1.594.672-1.594 1.235 0 .343.156.625.422.843.328.25.61.313 1.328.454Zm0 0"/></symbol><symbol overflow="visible" id="w"><path style="stroke:none" d="m1.766-4.406-1.391.11v.312c.64 0 .734.062.734.546V-.75c0 .438-.109.438-.78.438V0c.312-.016.859-.031 1.093-.031.36 0 .703.015 1.047.031v-.313c-.672 0-.703-.046-.703-.437Zm.03-1.735a.514.514 0 0 0-.515-.53.537.537 0 0 0-.531.53c0 .266.219.532.531.532a.514.514 0 0 0 .516-.532Zm0 0"/></symbol><symbol overflow="visible" id="x"><path style="stroke:none" d="M4.688-2.14c0-1.266-.985-2.329-2.188-2.329C1.25-4.469.281-3.375.281-2.14A2.22 2.22 0 0 0 2.484.11c1.204 0 2.204-.984 2.204-2.25ZM2.5-.14c-.438 0-.875-.204-1.14-.672-.25-.438-.25-1.047-.25-1.407 0-.39 0-.922.234-1.36a1.347 1.347 0 0 1 1.14-.671c.438 0 .86.219 1.125.656.266.422.266 1 .266 1.375 0 .36 0 .906-.219 1.344-.234.453-.672.734-1.156.734Zm0 0"/></symbol><symbol overflow="visible" id="y"><path style="stroke:none" d="m2.5-6.922-1.344 1.36.172.171L2.5-6.406l1.14 1.015.172-.171Zm0 0"/></symbol><symbol overflow="visible" id="A"><path style="stroke:none" d="M7.188-3.375c0-2.031-1.5-3.656-3.313-3.656-1.797 0-3.313 1.593-3.313 3.656C.563-1.328 2.095.219 3.876.219c1.813 0 3.313-1.578 3.313-3.594ZM3.874-.047c-.953 0-2.297-.875-2.297-3.469 0-2.578 1.469-3.265 2.297-3.265.86 0 2.281.703 2.281 3.265 0 2.641-1.36 3.47-2.281 3.47Zm0 0"/></symbol><clipPath id="i"><path d="M25 228h18v17.473H25Zm0 0"/></clipPath><clipPath id="z"><path d="M308 228h18v17.473h-18Zm0 0"/></clipPath></defs><path style="stroke:none;fill-rule:nonzero;fill:#ffa64c;fill-opacity:1" d="M42.242 38.578a8.47 8.47 0 0 0-8.469-8.469 8.468 8.468 0 0 0-8.468 8.47 8.468 8.468 0 0 0 8.468 8.468 8.47 8.47 0 0 0 8.47-8.469Zm0 0"/><use xlink:href="#a" x="28.691" y="39.975" style="fill:#000;fill-opacity:1"/><use xlink:href="#b" x="34.385" y="41.47" style="fill:#000;fill-opacity:1"/><path style="stroke:none;fill-rule:nonzero;fill:#ffa64c;fill-opacity:1" d="M42.242 66.926a8.468 8.468 0 0 0-8.469-8.469 8.466 8.466 0 0 0-8.468 8.469 8.468 8.468 0 0 0 8.468 8.469 8.47 8.47 0 0 0 8.47-8.47Zm0 0"/><use xlink:href="#a" x="28.691" y="68.322" style="fill:#000;fill-opacity:1"/><use xlink:href="#c" x="34.385" y="69.816" style="fill:#000;fill-opacity:1"/><path style="stroke:none;fill-rule:nonzero;fill:#ffa64c;fill-opacity:1" d="M42.242 95.273a8.468 8.468 0 0 0-8.469-8.468 8.466 8.466 0 0 0-8.468 8.468 8.465 8.465 0 0 0 8.468 8.465c4.676 0 8.47-3.789 8.47-8.465Zm0 0"/><use xlink:href="#a" x="28.691" y="96.668" style="fill:#000;fill-opacity:1"/><use xlink:href="#d" x="34.385" y="98.162" style="fill:#000;fill-opacity:1"/><path style="stroke:none;fill-rule:nonzero;fill:#ffa64c;fill-opacity:1" d="M42.242 123.617a8.47 8.47 0 0 0-8.469-8.469 8.468 8.468 0 0 0-8.468 8.47 8.465 8.465 0 0 0 8.468 8.468 8.468 8.468 0 0 0 8.47-8.469Zm0 0"/><use xlink:href="#a" x="28.691" y="125.015" style="fill:#000;fill-opacity:1"/><use xlink:href="#e" x="34.385" y="126.509" style="fill:#000;fill-opacity:1"/><path style="stroke:none;fill-rule:nonzero;fill:#ffa64c;fill-opacity:1" d="M42.242 151.965a8.47 8.47 0 0 0-8.469-8.469 8.468 8.468 0 0 0-8.468 8.469 8.468 8.468 0 0 0 8.468 8.469 8.47 8.47 0 0 0 8.47-8.47Zm0 0"/><use xlink:href="#a" x="28.691" y="153.361" style="fill:#000;fill-opacity:1"/><use xlink:href="#f" x="34.385" y="154.855" style="fill:#000;fill-opacity:1"/><path style="stroke:none;fill-rule:nonzero;fill:#ffa64c;fill-opacity:1" d="M42.242 180.313a8.47 8.47 0 0 0-8.469-8.47 8.468 8.468 0 0 0-8.468 8.47 8.468 8.468 0 0 0 8.468 8.468 8.47 8.47 0 0 0 8.47-8.469Zm0 0"/><use xlink:href="#a" x="28.691" y="181.707" style="fill:#000;fill-opacity:1"/><use xlink:href="#g" x="34.385" y="183.202" style="fill:#000;fill-opacity:1"/><path style="stroke:none;fill-rule:nonzero;fill:#ffa64c;fill-opacity:1" d="M42.242 208.66a8.468 8.468 0 0 0-8.469-8.469 8.466 8.466 0 0 0-8.468 8.47 8.468 8.468 0 0 0 8.468 8.468 8.47 8.47 0 0 0 8.47-8.469Zm0 0"/><use xlink:href="#a" x="28.691" y="210.054" style="fill:#000;fill-opacity:1"/><use xlink:href="#h" x="34.385" y="211.548" style="fill:#000;fill-opacity:1"/><g clip-path="url(#i)"><path style="stroke:none;fill-rule:nonzero;fill:#ffa64c;fill-opacity:1" d="M42.242 237.008a8.469 8.469 0 1 0-16.938 0 8.465 8.465 0 0 0 8.47 8.465c4.675 0 8.468-3.79 8.468-8.465Zm0 0"/></g><use xlink:href="#a" x="28.691" y="238.4" style="fill:#000;fill-opacity:1"/><use xlink:href="#j" x="34.385" y="239.895" style="fill:#000;fill-opacity:1"/><g style="fill:#000;fill-opacity:1"><use xlink:href="#k" x="7.953" y="16.106"/><use xlink:href="#l" x="11.55" y="16.106"/><use xlink:href="#m" x="17.086" y="16.106"/><use xlink:href="#n" x="22.621" y="16.106"/><use xlink:href="#o" x="28.156" y="16.106"/></g><g style="fill:#000;fill-opacity:1"><use xlink:href="#p" x="35.348" y="16.106"/><use xlink:href="#q" x="41.575" y="16.106"/></g><use xlink:href="#r" x="46.277" y="16.106" style="fill:#000;fill-opacity:1"/><g style="fill:#000;fill-opacity:1"><use xlink:href="#s" x="51.266" y="16.106"/><use xlink:href="#t" x="55.694" y="16.106"/></g><path style="stroke:none;fill-rule:nonzero;fill:#99f;fill-opacity:1" d="M113.105 81.098c0-4.676-3.789-8.47-8.464-8.47a8.468 8.468 0 0 0-8.47 8.47 8.468 8.468 0 1 0 16.934 0Zm0 28.347c0-4.675-3.789-8.468-8.464-8.468a8.468 8.468 0 0 0-8.47 8.468 8.468 8.468 0 1 0 16.934 0Zm0 28.348a8.464 8.464 0 0 0-8.464-8.469 8.466 8.466 0 0 0-8.47 8.469 8.468 8.468 0 1 0 16.934 0Zm0 28.347a8.464 8.464 0 0 0-8.464-8.468 8.466 8.466 0 0 0-8.47 8.469 8.465 8.465 0 0 0 8.47 8.464 8.464 8.464 0 0 0 8.464-8.464Zm0 28.344c0-4.675-3.789-8.468-8.464-8.468a8.468 8.468 0 0 0-8.47 8.468 8.468 8.468 0 1 0 16.934 0Zm0 0"/><path style="fill:none;stroke-width:.3985;stroke-linecap:butt;stroke-linejoin:miter;stroke:#8c8c8c;stroke-opacity:1;stroke-miterlimit:10" d="M7.431-29.368 62.19-62.22" transform="matrix(1 0 0 -1 33.772 13.671)"/><path style="fill:none;stroke-width:.31879;stroke-linecap:round;stroke-linejoin:round;stroke:#8c8c8c;stroke-opacity:1;stroke-miterlimit:10" d="M-1.195 1.592C-1.097.995 0 .1.297.001.002-.1-1.096-.995-1.197-1.593" transform="matrix(.85747 .51448 .51448 -.85747 95.96 75.89)"/><path style="fill:none;stroke-width:.3985;stroke-linecap:butt;stroke-linejoin:miter;stroke:#8c8c8c;stroke-opacity:1;stroke-miterlimit:10" d="m6.13-31.036 57.578-57.582" transform="matrix(1 0 0 -1 33.772 13.671)"/><path style="fill:none;stroke-width:.31879;stroke-linecap:round;stroke-linejoin:round;stroke:#8c8c8c;stroke-opacity:1;stroke-miterlimit:10" d="M-1.196 1.592C-1.096.995 0 .098.3-.002c-.3-.1-1.394-.994-1.496-1.594" transform="scale(1 -1) rotate(-45 -74.732 -168.816)"/><path style="fill:none;stroke-width:.3985;stroke-linecap:butt;stroke-linejoin:miter;stroke:#8c8c8c;stroke-opacity:1;stroke-miterlimit:10" d="m5.037-31.958 59.949-83.926" transform="matrix(1 0 0 -1 33.772 13.671)"/><path style="fill:none;stroke-width:.31879;stroke-linecap:round;stroke-linejoin:round;stroke:#8c8c8c;stroke-opacity:1;stroke-miterlimit:10" d="M-1.195 1.595C-1.095.995-.002.099.298 0 0-.1-1.096-.996-1.195-1.592" transform="matrix(.58119 .81369 .81369 -.58119 98.756 129.555)"/><path style="fill:none;stroke-width:.3985;stroke-linecap:butt;stroke-linejoin:miter;stroke:#8c8c8c;stroke-opacity:1;stroke-miterlimit:10" d="m4.208-32.485 61.743-111.133" transform="matrix(1 0 0 -1 33.772 13.671)"/><path style="fill:none;stroke-width:.31879;stroke-linecap:round;stroke-linejoin:round;stroke:#8c8c8c;stroke-opacity:1;stroke-miterlimit:10" d="M-1.194 1.592C-1.096.997 0 .098.298 0 .002-.1-1.095-.996-1.195-1.594" transform="scale(1 -1) rotate(-60.945 -83.797 -163.387)"/><path style="fill:none;stroke-width:.3985;stroke-linecap:butt;stroke-linejoin:miter;stroke:#8c8c8c;stroke-opacity:1;stroke-miterlimit:10" d="m3.587-32.798 63.09-138.8" transform="matrix(1 0 0 -1 33.772 13.671)"/><path style="fill:none;stroke-width:.31879;stroke-linecap:round;stroke-linejoin:round;stroke:#8c8c8c;stroke-opacity:1;stroke-miterlimit:10" d="M-1.196 1.593C-1.098.995.001.101.3 0 0-.1-1.093-.998-1.194-1.596" transform="matrix(.41377 .91031 .91031 -.41377 100.45 185.271)"/><path style="fill:none;stroke-width:.3985;stroke-linecap:butt;stroke-linejoin:miter;stroke:#8c8c8c;stroke-opacity:1;stroke-miterlimit:10" d="m8.498-54.954 52.445-10.488" transform="matrix(1 0 0 -1 33.772 13.671)"/><path style="fill:none;stroke-width:.31879;stroke-linecap:round;stroke-linejoin:round;stroke:#8c8c8c;stroke-opacity:1;stroke-miterlimit:10" d="M-1.194 1.594C-1.094.996.001.1.3 0 0-.1-1.094-.996-1.194-1.593" transform="matrix(.98055 .1961 .1961 -.98055 94.714 79.113)"/><path style="fill:none;stroke-width:.3985;stroke-linecap:butt;stroke-linejoin:miter;stroke:#8c8c8c;stroke-opacity:1;stroke-miterlimit:10" d="M7.431-57.712 62.19-90.567" transform="matrix(1 0 0 -1 33.772 13.671)"/><path style="fill:none;stroke-width:.31879;stroke-linecap:round;stroke-linejoin:round;stroke:#8c8c8c;stroke-opacity:1;stroke-miterlimit:10" d="M-1.197 1.595C-1.097.995.001.1.298 0 .002-.1-1.096-.996-1.197-1.594" transform="matrix(.85747 .51448 .51448 -.85747 95.96 104.237)"/><path style="fill:none;stroke-width:.3985;stroke-linecap:butt;stroke-linejoin:miter;stroke:#8c8c8c;stroke-opacity:1;stroke-miterlimit:10" d="m6.13-59.384 57.578-57.578" transform="matrix(1 0 0 -1 33.772 13.671)"/><path style="fill:none;stroke-width:.31879;stroke-linecap:round;stroke-linejoin:round;stroke:#8c8c8c;stroke-opacity:1;stroke-miterlimit:10" d="M-1.198 1.594C-1.095.994-.002.099.297 0c-.299-.1-1.392-.994-1.495-1.594" transform="scale(1 -1) rotate(-45 -108.95 -182.99)"/><path style="fill:none;stroke-width:.3985;stroke-linecap:butt;stroke-linejoin:miter;stroke:#8c8c8c;stroke-opacity:1;stroke-miterlimit:10" d="m5.037-60.306 59.949-83.925" transform="matrix(1 0 0 -1 33.772 13.671)"/><path style="fill:none;stroke-width:.31879;stroke-linecap:round;stroke-linejoin:round;stroke:#8c8c8c;stroke-opacity:1;stroke-miterlimit:10" d="M-1.194 1.594C-1.097.997-.001.1.298 0 .001-.1-1.095-.997-1.195-1.593" transform="matrix(.58119 .81369 .81369 -.58119 98.756 157.902)"/><path style="fill:none;stroke-width:.3985;stroke-linecap:butt;stroke-linejoin:miter;stroke:#8c8c8c;stroke-opacity:1;stroke-miterlimit:10" d="m4.208-60.829 61.743-111.137" transform="matrix(1 0 0 -1 33.772 13.671)"/><path style="fill:none;stroke-width:.31879;stroke-linecap:round;stroke-linejoin:round;stroke:#8c8c8c;stroke-opacity:1;stroke-miterlimit:10" d="M-1.197 1.594C-1.096.997 0 .097.298-.001c-.3-.097-1.393-.996-1.492-1.593" transform="scale(1 -1) rotate(-60.945 -107.886 -177.56)"/><path style="fill:none;stroke-width:.3985;stroke-linecap:butt;stroke-linejoin:miter;stroke:#8c8c8c;stroke-opacity:1;stroke-miterlimit:10" d="m8.498-79.9 52.445 10.49" transform="matrix(1 0 0 -1 33.772 13.671)"/><path style="fill:none;stroke-width:.31879;stroke-linecap:round;stroke-linejoin:round;stroke:#8c8c8c;stroke-opacity:1;stroke-miterlimit:10" d="M-1.194 1.594C-1.094.997.001.101.3.001.001-.1-1.094-.995-1.194-1.593" transform="matrix(.98055 -.1961 -.1961 -.98055 94.714 83.083)"/><path style="fill:none;stroke-width:.3985;stroke-linecap:butt;stroke-linejoin:miter;stroke:#8c8c8c;stroke-opacity:1;stroke-miterlimit:10" d="M8.498-83.302 60.943-93.79" transform="matrix(1 0 0 -1 33.772 13.671)"/><path style="fill:none;stroke-width:.31879;stroke-linecap:round;stroke-linejoin:round;stroke:#8c8c8c;stroke-opacity:1;stroke-miterlimit:10" d="M-1.194 1.593C-1.094.995.001.099.3-.001.001-.1-1.094-.997-1.194-1.594" transform="matrix(.98055 .1961 .1961 -.98055 94.714 107.46)"/><path style="fill:none;stroke-width:.3985;stroke-linecap:butt;stroke-linejoin:miter;stroke:#8c8c8c;stroke-opacity:1;stroke-miterlimit:10" d="m7.431-86.06 54.758-32.855" transform="matrix(1 0 0 -1 33.772 13.671)"/><path style="fill:none;stroke-width:.31879;stroke-linecap:round;stroke-linejoin:round;stroke:#8c8c8c;stroke-opacity:1;stroke-miterlimit:10" d="M-1.196 1.594C-1.098.997 0 .1.298 0 .001-.097-1.095-.996-1.196-1.595" transform="matrix(.85747 .51448 .51448 -.85747 95.96 132.584)"/><path style="fill:none;stroke-width:.3985;stroke-linecap:butt;stroke-linejoin:miter;stroke:#8c8c8c;stroke-opacity:1;stroke-miterlimit:10" d="m6.13-87.731 57.578-57.578" transform="matrix(1 0 0 -1 33.772 13.671)"/><path style="fill:none;stroke-width:.31879;stroke-linecap:round;stroke-linejoin:round;stroke:#8c8c8c;stroke-opacity:1;stroke-miterlimit:10" d="M-1.197 1.593C-1.097.997-.001.1.297 0 0-.1-1.095-.995-1.197-1.594" transform="scale(1 -1) rotate(-45 -143.168 -197.163)"/><path style="fill:none;stroke-width:.3985;stroke-linecap:butt;stroke-linejoin:miter;stroke:#8c8c8c;stroke-opacity:1;stroke-miterlimit:10" d="m5.037-88.653 59.949-83.926" transform="matrix(1 0 0 -1 33.772 13.671)"/><path style="fill:none;stroke-width:.31879;stroke-linecap:round;stroke-linejoin:round;stroke:#8c8c8c;stroke-opacity:1;stroke-miterlimit:10" d="M-1.193 1.594C-1.097.997 0 .098.299 0 .002-.1-1.095-.997-1.194-1.593" transform="matrix(.58119 .81369 .81369 -.58119 98.756 186.249)"/><path style="fill:none;stroke-width:.3985;stroke-linecap:butt;stroke-linejoin:miter;stroke:#8c8c8c;stroke-opacity:1;stroke-miterlimit:10" d="M7.431-105.49 62.19-72.633" transform="matrix(1 0 0 -1 33.772 13.671)"/><path style="fill:none;stroke-width:.31879;stroke-linecap:round;stroke-linejoin:round;stroke:#8c8c8c;stroke-opacity:1;stroke-miterlimit:10" d="M-1.197 1.594C-1.096.996.003.1.298 0 0-.1-1.096-.995-1.197-1.595" transform="matrix(.85747 -.51448 -.51448 -.85747 95.96 86.306)"/><path style="fill:none;stroke-width:.3985;stroke-linecap:butt;stroke-linejoin:miter;stroke:#8c8c8c;stroke-opacity:1;stroke-miterlimit:10" d="m8.498-108.247 52.445 10.488" transform="matrix(1 0 0 -1 33.772 13.671)"/><path style="fill:none;stroke-width:.31879;stroke-linecap:round;stroke-linejoin:round;stroke:#8c8c8c;stroke-opacity:1;stroke-miterlimit:10" d="M-1.194 1.594C-1.094.996 0 .1.3 0 0-.1-1.094-.996-1.194-1.593" transform="matrix(.98055 -.1961 -.1961 -.98055 94.714 111.43)"/><path style="fill:none;stroke-width:.3985;stroke-linecap:butt;stroke-linejoin:miter;stroke:#8c8c8c;stroke-opacity:1;stroke-miterlimit:10" d="m8.498-111.645 52.445-10.493" transform="matrix(1 0 0 -1 33.772 13.671)"/><path style="fill:none;stroke-width:.31879;stroke-linecap:round;stroke-linejoin:round;stroke:#8c8c8c;stroke-opacity:1;stroke-miterlimit:10" d="M-1.195 1.596C-1.095.998.001.098.3-.001c-.299-.1-1.394-.996-1.494-1.594" transform="matrix(.98055 .1961 .1961 -.98055 94.714 135.807)"/><path style="fill:none;stroke-width:.3985;stroke-linecap:butt;stroke-linejoin:miter;stroke:#8c8c8c;stroke-opacity:1;stroke-miterlimit:10" d="M7.431-114.407 62.19-147.26" transform="matrix(1 0 0 -1 33.772 13.671)"/><path style="fill:none;stroke-width:.31879;stroke-linecap:round;stroke-linejoin:round;stroke:#8c8c8c;stroke-opacity:1;stroke-miterlimit:10" d="M-1.196 1.594C-1.098.997 0 .102.299-.002 0-.098-1.095-.997-1.196-1.595" transform="matrix(.85747 .51448 .51448 -.85747 95.96 160.931)"/><path style="fill:none;stroke-width:.3985;stroke-linecap:butt;stroke-linejoin:miter;stroke:#8c8c8c;stroke-opacity:1;stroke-miterlimit:10" d="m6.13-116.075 57.578-57.582" transform="matrix(1 0 0 -1 33.772 13.671)"/><path style="fill:none;stroke-width:.31879;stroke-linecap:round;stroke-linejoin:round;stroke:#8c8c8c;stroke-opacity:1;stroke-miterlimit:10" d="M-1.197 1.593C-1.097.996 0 .099.298-.001c-.299-.1-1.393-.994-1.495-1.594" transform="scale(1 -1) rotate(-45 -177.386 -211.337)"/><path style="fill:none;stroke-width:.3985;stroke-linecap:butt;stroke-linejoin:miter;stroke:#8c8c8c;stroke-opacity:1;stroke-miterlimit:10" d="m6.13-132.165 57.578 57.582" transform="matrix(1 0 0 -1 33.772 13.671)"/><path style="fill:none;stroke-width:.31879;stroke-linecap:round;stroke-linejoin:round;stroke:#8c8c8c;stroke-opacity:1;stroke-miterlimit:10" d="M-1.196 1.596C-1.093.996 0 .1.3.002c-.3-.1-1.396-.997-1.496-1.594" transform="scale(1 -1) rotate(45 155.276 73.544)"/><path style="fill:none;stroke-width:.3985;stroke-linecap:butt;stroke-linejoin:miter;stroke:#8c8c8c;stroke-opacity:1;stroke-miterlimit:10" d="M7.431-133.837 62.19-100.98" transform="matrix(1 0 0 -1 33.772 13.671)"/><path style="fill:none;stroke-width:.31879;stroke-linecap:round;stroke-linejoin:round;stroke:#8c8c8c;stroke-opacity:1;stroke-miterlimit:10" d="M-1.197 1.594C-1.096.995.003.1.298 0 0-.1-1.097-.995-1.197-1.595" transform="scale(.99997 -.99997) rotate(30.964 254.954 115.9)"/><path style="fill:none;stroke-width:.3985;stroke-linecap:butt;stroke-linejoin:miter;stroke:#8c8c8c;stroke-opacity:1;stroke-miterlimit:10" d="m8.498-136.595 52.445 10.489" transform="matrix(1 0 0 -1 33.772 13.671)"/><path style="fill:none;stroke-width:.31879;stroke-linecap:round;stroke-linejoin:round;stroke:#8c8c8c;stroke-opacity:1;stroke-miterlimit:10" d="M-1.194 1.593C-1.094.995 0 .099.3-.001 0-.1-1.095-.996-1.194-1.594" transform="matrix(.98055 -.1961 -.1961 -.98055 94.714 139.777)"/><path style="fill:none;stroke-width:.3985;stroke-linecap:butt;stroke-linejoin:miter;stroke:#8c8c8c;stroke-opacity:1;stroke-miterlimit:10" d="m8.498-139.993 52.445-10.488" transform="matrix(1 0 0 -1 33.772 13.671)"/><path style="fill:none;stroke-width:.31879;stroke-linecap:round;stroke-linejoin:round;stroke:#8c8c8c;stroke-opacity:1;stroke-miterlimit:10" d="M-1.194 1.595C-1.094.998 0 .101.299.002c-.298-.1-1.394-.996-1.493-1.597" transform="matrix(.98055 .1961 .1961 -.98055 94.714 164.154)"/><path style="fill:none;stroke-width:.3985;stroke-linecap:butt;stroke-linejoin:miter;stroke:#8c8c8c;stroke-opacity:1;stroke-miterlimit:10" d="m7.431-142.755 54.758-32.851" transform="matrix(1 0 0 -1 33.772 13.671)"/><path style="fill:none;stroke-width:.31879;stroke-linecap:round;stroke-linejoin:round;stroke:#8c8c8c;stroke-opacity:1;stroke-miterlimit:10" d="M-1.196 1.593C-1.097.996 0 .101.3-.002 0-.1-1.095-.998-1.196-1.596" transform="matrix(.85747 .51448 .51448 -.85747 95.96 189.278)"/><path style="fill:none;stroke-width:.3985;stroke-linecap:butt;stroke-linejoin:miter;stroke:#8c8c8c;stroke-opacity:1;stroke-miterlimit:10" d="m5.037-159.587 59.949 83.922" transform="matrix(1 0 0 -1 33.772 13.671)"/><path style="fill:none;stroke-width:.31879;stroke-linecap:round;stroke-linejoin:round;stroke:#8c8c8c;stroke-opacity:1;stroke-miterlimit:10" d="M-1.193 1.594C-1.097.995 0 .099.3.001 0-.098-1.096-.996-1.195-1.595" transform="scale(1 -1) rotate(54.463 136.18 51.284)"/><path style="fill:none;stroke-width:.3985;stroke-linecap:butt;stroke-linejoin:miter;stroke:#8c8c8c;stroke-opacity:1;stroke-miterlimit:10" d="m6.13-160.513 57.578 57.582" transform="matrix(1 0 0 -1 33.772 13.671)"/><path style="fill:none;stroke-width:.31879;stroke-linecap:round;stroke-linejoin:round;stroke:#8c8c8c;stroke-opacity:1;stroke-miterlimit:10" d="M-1.197 1.595C-1.094.995 0 .1.298 0 0-.099-1.097-.996-1.197-1.593" transform="scale(1 -1) rotate(45 189.494 59.37)"/><path style="fill:none;stroke-width:.3985;stroke-linecap:butt;stroke-linejoin:miter;stroke:#8c8c8c;stroke-opacity:1;stroke-miterlimit:10" d="m7.431-162.18 54.759 32.85" transform="matrix(1 0 0 -1 33.772 13.671)"/><path style="fill:none;stroke-width:.31879;stroke-linecap:round;stroke-linejoin:round;stroke:#8c8c8c;stroke-opacity:1;stroke-miterlimit:10" d="M-1.196 1.596C-1.095.997.001.098.3.002 0-.101-1.097-.996-1.196-1.593" transform="matrix(.85747 -.51448 -.51448 -.85747 95.96 143)"/><path style="fill:none;stroke-width:.3985;stroke-linecap:butt;stroke-linejoin:miter;stroke:#8c8c8c;stroke-opacity:1;stroke-miterlimit:10" d="m8.498-164.942 52.445 10.488" transform="matrix(1 0 0 -1 33.772 13.671)"/><path style="fill:none;stroke-width:.31879;stroke-linecap:round;stroke-linejoin:round;stroke:#8c8c8c;stroke-opacity:1;stroke-miterlimit:10" d="M-1.194 1.592C-1.094.995 0 .098.3 0 0-.1-1.095-.996-1.194-1.594" transform="matrix(.98055 -.1961 -.1961 -.98055 94.714 168.124)"/><path style="fill:none;stroke-width:.3985;stroke-linecap:butt;stroke-linejoin:miter;stroke:#8c8c8c;stroke-opacity:1;stroke-miterlimit:10" d="m8.498-168.34 52.445-10.489" transform="matrix(1 0 0 -1 33.772 13.671)"/><path style="fill:none;stroke-width:.31879;stroke-linecap:round;stroke-linejoin:round;stroke:#8c8c8c;stroke-opacity:1;stroke-miterlimit:10" d="M-1.194 1.594C-1.094.996 0 .1.3 0 0-.1-1.095-.996-1.194-1.593" transform="matrix(.98055 .1961 .1961 -.98055 94.714 192.5)"/><path style="fill:none;stroke-width:.3985;stroke-linecap:butt;stroke-linejoin:miter;stroke:#8c8c8c;stroke-opacity:1;stroke-miterlimit:10" d="M4.208-187.411 65.951-76.274" transform="matrix(1 0 0 -1 33.772 13.671)"/><path style="fill:none;stroke-width:.31879;stroke-linecap:round;stroke-linejoin:round;stroke:#8c8c8c;stroke-opacity:1;stroke-miterlimit:10" d="M-1.196 1.593C-1.097.996 0 .099.3.002c-.302-.1-1.394-.998-1.496-1.595" transform="scale(1 -1) rotate(60.945 126.295 39.768)"/><path style="fill:none;stroke-width:.3985;stroke-linecap:butt;stroke-linejoin:miter;stroke:#8c8c8c;stroke-opacity:1;stroke-miterlimit:10" d="m5.037-187.934 59.949 83.925" transform="matrix(1 0 0 -1 33.772 13.671)"/><path style="fill:none;stroke-width:.31879;stroke-linecap:round;stroke-linejoin:round;stroke:#8c8c8c;stroke-opacity:1;stroke-miterlimit:10" d="M-1.194 1.593C-1.094.997-.001.098.299 0 0-.098-1.096-.997-1.196-1.596" transform="scale(1 -1) rotate(54.463 163.724 37.11)"/><path style="fill:none;stroke-width:.3985;stroke-linecap:butt;stroke-linejoin:miter;stroke:#8c8c8c;stroke-opacity:1;stroke-miterlimit:10" d="m6.13-188.86 57.578 57.582" transform="matrix(1 0 0 -1 33.772 13.671)"/><path style="fill:none;stroke-width:.31879;stroke-linecap:round;stroke-linejoin:round;stroke:#8c8c8c;stroke-opacity:1;stroke-miterlimit:10" d="M-1.197 1.594C-1.095.995-.001.1.297.001 0-.1-1.098-.996-1.197-1.593" transform="scale(1 -1) rotate(45 223.712 45.197)"/><path style="fill:none;stroke-width:.3985;stroke-linecap:butt;stroke-linejoin:miter;stroke:#8c8c8c;stroke-opacity:1;stroke-miterlimit:10" d="m7.431-190.528 54.758 32.851" transform="matrix(1 0 0 -1 33.772 13.671)"/><path style="fill:none;stroke-width:.31879;stroke-linecap:round;stroke-linejoin:round;stroke:#8c8c8c;stroke-opacity:1;stroke-miterlimit:10" d="M-1.196 1.595C-1.096.997 0 .098.298.001c-.296-.1-1.396-.998-1.494-1.595" transform="scale(.99997 -.99997) rotate(30.964 357.297 87.552)"/><path style="fill:none;stroke-width:.3985;stroke-linecap:butt;stroke-linejoin:miter;stroke:#8c8c8c;stroke-opacity:1;stroke-miterlimit:10" d="m8.498-193.29 52.445 10.492" transform="matrix(1 0 0 -1 33.772 13.671)"/><path style="fill:none;stroke-width:.31879;stroke-linecap:round;stroke-linejoin:round;stroke:#8c8c8c;stroke-opacity:1;stroke-miterlimit:10" d="M-1.194 1.595C-1.094.997.001.1.3 0 .001-.1-1.094-.996-1.194-1.593" transform="matrix(.98055 -.1961 -.1961 -.98055 94.714 196.47)"/><path style="fill:none;stroke-width:.3985;stroke-linecap:butt;stroke-linejoin:miter;stroke:#8c8c8c;stroke-opacity:1;stroke-miterlimit:10" d="m3.587-215.442 63.09 138.8" transform="matrix(1 0 0 -1 33.772 13.671)"/><path style="fill:none;stroke-width:.31879;stroke-linecap:round;stroke-linejoin:round;stroke:#8c8c8c;stroke-opacity:1;stroke-miterlimit:10" d="M-1.197 1.595C-1.097.997.001.1.3 0c-.301-.103-1.397-.996-1.494-1.593" transform="scale(.99993 -.99993) rotate(65.556 120.36 32.846)"/><path style="fill:none;stroke-width:.3985;stroke-linecap:butt;stroke-linejoin:miter;stroke:#8c8c8c;stroke-opacity:1;stroke-miterlimit:10" d="m4.208-215.759 61.743 111.137" transform="matrix(1 0 0 -1 33.772 13.671)"/><path style="fill:none;stroke-width:.31879;stroke-linecap:round;stroke-linejoin:round;stroke:#8c8c8c;stroke-opacity:1;stroke-miterlimit:10" d="M-1.194 1.594C-1.094.997 0 .098.3.001 0-.097-1.095-.997-1.197-1.594" transform="scale(1 -1) rotate(60.945 150.383 25.594)"/><path style="fill:none;stroke-width:.3985;stroke-linecap:butt;stroke-linejoin:miter;stroke:#8c8c8c;stroke-opacity:1;stroke-miterlimit:10" d="m5.037-216.282 59.949 83.926" transform="matrix(1 0 0 -1 33.772 13.671)"/><path style="fill:none;stroke-width:.31879;stroke-linecap:round;stroke-linejoin:round;stroke:#8c8c8c;stroke-opacity:1;stroke-miterlimit:10" d="M-1.195 1.593C-1.095.997.002.1.3 0 0-.099-1.096-.997-1.193-1.594" transform="scale(1 -1) rotate(54.463 191.265 22.937)"/><path style="fill:none;stroke-width:.3985;stroke-linecap:butt;stroke-linejoin:miter;stroke:#8c8c8c;stroke-opacity:1;stroke-miterlimit:10" d="m6.13-217.208 57.578 57.582" transform="matrix(1 0 0 -1 33.772 13.671)"/><path style="fill:none;stroke-width:.31879;stroke-linecap:round;stroke-linejoin:round;stroke:#8c8c8c;stroke-opacity:1;stroke-miterlimit:10" d="M-1.197 1.594C-1.095.994-.001.1.297 0c-.298-.1-1.392-.994-1.494-1.594" transform="scale(1 -1) rotate(45 257.93 31.023)"/><path style="fill:none;stroke-width:.3985;stroke-linecap:butt;stroke-linejoin:miter;stroke:#8c8c8c;stroke-opacity:1;stroke-miterlimit:10" d="M7.431-218.876 62.19-186.02" transform="matrix(1 0 0 -1 33.772 13.671)"/><path style="fill:none;stroke-width:.31879;stroke-linecap:round;stroke-linejoin:round;stroke:#8c8c8c;stroke-opacity:1;stroke-miterlimit:10" d="M-1.197 1.594C-1.095.996.001.097.298.001.001-.1-1.096-.994-1.197-1.594" transform="scale(.99997 -.99997) rotate(30.964 408.47 73.378)"/><path style="stroke:none;fill-rule:nonzero;fill:#99f;fill-opacity:1" d="M183.973 109.445a8.468 8.468 0 1 0-16.934 0 8.468 8.468 0 1 0 16.934 0Zm0 28.348c0-4.68-3.79-8.469-8.465-8.469a8.466 8.466 0 0 0-8.469 8.469 8.468 8.468 0 1 0 16.934 0Zm0 28.347c0-4.68-3.79-8.468-8.465-8.468a8.466 8.466 0 0 0-8.469 8.469 8.465 8.465 0 0 0 8.469 8.464 8.464 8.464 0 0 0 8.465-8.464Zm0 0"/><g style="fill:#000;fill-opacity:1"><use xlink:href="#p" x="161.183" y="10.129"/><use xlink:href="#q" x="167.41" y="10.129"/><use xlink:href="#o" x="172.391" y="10.129"/><use xlink:href="#s" x="176.265" y="10.129"/><use xlink:href="#l" x="180.693" y="10.129"/></g><use xlink:href="#o" x="185.949" y="10.129" style="fill:#000;fill-opacity:1"/><g style="fill:#000;fill-opacity:1"><use xlink:href="#u" x="145.053" y="22.084"/><use xlink:href="#s" x="152.386" y="22.084"/><use xlink:href="#m" x="156.814" y="22.084"/><use xlink:href="#t" x="162.349" y="22.084"/><use xlink:href="#s" x="166.251" y="22.084"/><use xlink:href="#v" x="170.679" y="22.084"/><use xlink:href="#s" x="174.608" y="22.084"/><use xlink:href="#l" x="179.035" y="22.084"/></g><g style="fill:#000;fill-opacity:1"><use xlink:href="#o" x="184.292" y="22.084"/><use xlink:href="#q" x="188.166" y="22.084"/><use xlink:href="#o" x="193.147" y="22.084"/><use xlink:href="#w" x="197.022" y="22.084"/><use xlink:href="#x" x="199.79" y="22.084"/><use xlink:href="#l" x="204.771" y="22.084"/></g><path style="fill:none;stroke-width:.3985;stroke-linecap:butt;stroke-linejoin:miter;stroke:#8c8c8c;stroke-opacity:1;stroke-miterlimit:10" d="m78.915-70.645 53.422-21.371" transform="matrix(1 0 0 -1 33.772 13.671)"/><path style="fill:none;stroke-width:.31879;stroke-linecap:round;stroke-linejoin:round;stroke:#8c8c8c;stroke-opacity:1;stroke-miterlimit:10" d="M-1.196 1.594C-1.095.995 0 .1.3 0c-.301-.099-1.398-.996-1.495-1.595" transform="matrix(.92844 .37137 .37137 -.92844 166.108 105.686)"/><path style="fill:none;stroke-width:.3985;stroke-linecap:butt;stroke-linejoin:miter;stroke:#8c8c8c;stroke-opacity:1;stroke-miterlimit:10" d="m77.634-72.84 56.196-44.958" transform="matrix(1 0 0 -1 33.772 13.671)"/><path style="fill:none;stroke-width:.31879;stroke-linecap:round;stroke-linejoin:round;stroke:#8c8c8c;stroke-opacity:1;stroke-miterlimit:10" d="M-1.196 1.595C-1.096.995 0 .1.3 0 0-.1-1.095-.996-1.195-1.596" transform="matrix(.78082 .62466 .62466 -.78082 167.602 131.469)"/><path style="fill:none;stroke-width:.3985;stroke-linecap:butt;stroke-linejoin:miter;stroke:#8c8c8c;stroke-opacity:1;stroke-miterlimit:10" d="m76.415-74.087 58.84-70.605" transform="matrix(1 0 0 -1 33.772 13.671)"/><path style="fill:none;stroke-width:.31879;stroke-linecap:round;stroke-linejoin:round;stroke:#8c8c8c;stroke-opacity:1;stroke-miterlimit:10" d="M-1.195 1.592C-1.096.997.001.098.301 0c-.302-.1-1.396-.997-1.497-1.595" transform="matrix(.64015 .76819 .76819 -.64015 169.026 158.363)"/><path style="fill:none;stroke-width:.3985;stroke-linecap:butt;stroke-linejoin:miter;stroke:#8c8c8c;stroke-opacity:1;stroke-miterlimit:10" d="M79.537-95.774h52.074" transform="matrix(1 0 0 -1 33.772 13.671)"/><path style="fill:none;stroke-width:.31879;stroke-linecap:round;stroke-linejoin:round;stroke:#8c8c8c;stroke-opacity:1;stroke-miterlimit:10" d="M-1.196 1.593C-1.095.996-.001.101.3 0c-.301-.098-1.395-.996-1.496-1.594" transform="matrix(1 0 0 -1 165.384 109.445)"/><path style="fill:none;stroke-width:.3985;stroke-linecap:butt;stroke-linejoin:miter;stroke:#8c8c8c;stroke-opacity:1;stroke-miterlimit:10" d="m78.915-98.993 53.422-21.367" transform="matrix(1 0 0 -1 33.772 13.671)"/><path style="fill:none;stroke-width:.31879;stroke-linecap:round;stroke-linejoin:round;stroke:#8c8c8c;stroke-opacity:1;stroke-miterlimit:10" d="M-1.196 1.594C-1.096.998 0 .099.3 0 0-.1-1.098-.997-1.195-1.595" transform="matrix(.92844 .37137 .37137 -.92844 166.108 134.033)"/><path style="fill:none;stroke-width:.3985;stroke-linecap:butt;stroke-linejoin:miter;stroke:#8c8c8c;stroke-opacity:1;stroke-miterlimit:10" d="m77.634-101.188 56.196-44.957" transform="matrix(1 0 0 -1 33.772 13.671)"/><path style="fill:none;stroke-width:.31879;stroke-linecap:round;stroke-linejoin:round;stroke:#8c8c8c;stroke-opacity:1;stroke-miterlimit:10" d="M-1.196 1.594C-1.096.994 0 .1.3 0 0-.1-1.095-.996-1.197-1.594" transform="matrix(.78082 .62466 .62466 -.78082 167.602 159.816)"/><path style="fill:none;stroke-width:.3985;stroke-linecap:butt;stroke-linejoin:miter;stroke:#8c8c8c;stroke-opacity:1;stroke-miterlimit:10" d="m78.915-120.903 53.422 21.37" transform="matrix(1 0 0 -1 33.772 13.671)"/><path style="fill:none;stroke-width:.31879;stroke-linecap:round;stroke-linejoin:round;stroke:#8c8c8c;stroke-opacity:1;stroke-miterlimit:10" d="M-1.195 1.594C-1.098.996-.001.098.3-.001 0-.1-1.095-.996-1.196-1.595" transform="scale(.99996 -.99996) rotate(21.801 376.985 374.685)"/><path style="fill:none;stroke-width:.3985;stroke-linecap:butt;stroke-linejoin:miter;stroke:#8c8c8c;stroke-opacity:1;stroke-miterlimit:10" d="M79.537-124.122h52.074" transform="matrix(1 0 0 -1 33.772 13.671)"/><path style="fill:none;stroke-width:.31879;stroke-linecap:round;stroke-linejoin:round;stroke:#8c8c8c;stroke-opacity:1;stroke-miterlimit:10" d="M-1.196 1.593C-1.095.995-.001.1.3-.001c-.301-.098-1.395-.996-1.496-1.594" transform="matrix(1 0 0 -1 165.384 137.792)"/><path style="fill:none;stroke-width:.3985;stroke-linecap:butt;stroke-linejoin:miter;stroke:#8c8c8c;stroke-opacity:1;stroke-miterlimit:10" d="m78.915-127.34 53.422-21.368" transform="matrix(1 0 0 -1 33.772 13.671)"/><path style="fill:none;stroke-width:.31879;stroke-linecap:round;stroke-linejoin:round;stroke:#8c8c8c;stroke-opacity:1;stroke-miterlimit:10" d="M-1.195 1.593C-1.095.998 0 .098.3 0 0-.1-1.097-.997-1.196-1.592" transform="matrix(.92844 .37137 .37137 -.92844 166.108 162.38)"/><path style="fill:none;stroke-width:.3985;stroke-linecap:butt;stroke-linejoin:miter;stroke:#8c8c8c;stroke-opacity:1;stroke-miterlimit:10" d="m77.634-147.052 56.196 44.953" transform="matrix(1 0 0 -1 33.772 13.671)"/><path style="fill:none;stroke-width:.31879;stroke-linecap:round;stroke-linejoin:round;stroke:#8c8c8c;stroke-opacity:1;stroke-miterlimit:10" d="M-1.196 1.595C-1.096.995 0 .1.3 0 0-.1-1.096-.994-1.194-1.592" transform="scale(.99994 -.99994) rotate(38.66 248.83 181.024)"/><path style="fill:none;stroke-width:.3985;stroke-linecap:butt;stroke-linejoin:miter;stroke:#8c8c8c;stroke-opacity:1;stroke-miterlimit:10" d="m78.915-149.25 53.422 21.37" transform="matrix(1 0 0 -1 33.772 13.671)"/><path style="fill:none;stroke-width:.31879;stroke-linecap:round;stroke-linejoin:round;stroke:#8c8c8c;stroke-opacity:1;stroke-miterlimit:10" d="M-1.196 1.593C-1.096 1 0 .101.3-.002 0-.1-1.095-.996-1.196-1.595" transform="scale(.99996 -.99996) rotate(21.801 450.586 360.51)"/><path style="fill:none;stroke-width:.3985;stroke-linecap:butt;stroke-linejoin:miter;stroke:#8c8c8c;stroke-opacity:1;stroke-miterlimit:10" d="M79.537-152.47h52.074" transform="matrix(1 0 0 -1 33.772 13.671)"/><path style="fill:none;stroke-width:.31879;stroke-linecap:round;stroke-linejoin:round;stroke:#8c8c8c;stroke-opacity:1;stroke-miterlimit:10" d="M-1.196 1.592C-1.095.994-.001.1.3-.002c-.301-.097-1.395-.996-1.496-1.593" transform="matrix(1 0 0 -1 165.384 166.139)"/><path style="fill:none;stroke-width:.3985;stroke-linecap:butt;stroke-linejoin:miter;stroke:#8c8c8c;stroke-opacity:1;stroke-miterlimit:10" d="m76.415-174.157 58.84 70.605" transform="matrix(1 0 0 -1 33.772 13.671)"/><path style="fill:none;stroke-width:.31879;stroke-linecap:round;stroke-linejoin:round;stroke:#8c8c8c;stroke-opacity:1;stroke-miterlimit:10" d="M-1.195 1.596C-1.097.996.001.1.3-.002 0-.099-1.095-.995-1.196-1.594" transform="scale(.99995 -.99995) rotate(50.195 209.657 121.832)"/><path style="fill:none;stroke-width:.3985;stroke-linecap:butt;stroke-linejoin:miter;stroke:#8c8c8c;stroke-opacity:1;stroke-miterlimit:10" d="m77.634-175.4 56.196 44.958" transform="matrix(1 0 0 -1 33.772 13.671)"/><path style="fill:none;stroke-width:.31879;stroke-linecap:round;stroke-linejoin:round;stroke:#8c8c8c;stroke-opacity:1;stroke-miterlimit:10" d="M-1.196 1.595C-1.096.995-.002.099.298-.001.001-.098-1.097-.996-1.195-1.593" transform="scale(.99994 -.99994) rotate(38.66 289.237 166.85)"/><path style="fill:none;stroke-width:.3985;stroke-linecap:butt;stroke-linejoin:miter;stroke:#8c8c8c;stroke-opacity:1;stroke-miterlimit:10" d="m78.915-177.595 53.422 21.368" transform="matrix(1 0 0 -1 33.772 13.671)"/><path style="fill:none;stroke-width:.31879;stroke-linecap:round;stroke-linejoin:round;stroke:#8c8c8c;stroke-opacity:1;stroke-miterlimit:10" d="M-1.196 1.593C-1.097.998 0 .1.301 0c-.302-.1-1.397-.997-1.496-1.592" transform="scale(.99996 -.99996) rotate(21.801 524.187 346.337)"/><path style="stroke:none;fill-rule:nonzero;fill:#99f;fill-opacity:1" d="M254.84 81.098a8.468 8.468 0 1 0-16.934 0 8.468 8.468 0 1 0 16.934 0Zm0 28.347a8.468 8.468 0 1 0-16.934 0 8.468 8.468 0 1 0 16.934 0Zm0 28.348c0-4.68-3.79-8.469-8.469-8.469a8.465 8.465 0 0 0-8.465 8.469 8.468 8.468 0 1 0 16.934 0Zm0 28.347c0-4.68-3.79-8.468-8.469-8.468a8.465 8.465 0 0 0-8.465 8.469 8.464 8.464 0 0 0 8.465 8.464 8.464 8.464 0 0 0 8.469-8.464Zm0 28.344a8.468 8.468 0 1 0-16.934 0 8.468 8.468 0 1 0 16.934 0Zm0 0"/><path style="fill:none;stroke-width:.3985;stroke-linecap:butt;stroke-linejoin:miter;stroke:#8c8c8c;stroke-opacity:1;stroke-miterlimit:10" d="m149.783-92.556 53.422 21.372" transform="matrix(1 0 0 -1 33.772 13.671)"/><path style="fill:none;stroke-width:.31879;stroke-linecap:round;stroke-linejoin:round;stroke:#8c8c8c;stroke-opacity:1;stroke-miterlimit:10" d="M-1.195 1.595C-1.098.996 0 .099.3 0 0-.1-1.095-.995-1.196-1.594" transform="scale(.99996 -.99996) rotate(21.801 338.819 572.86)"/><path style="fill:none;stroke-width:.3985;stroke-linecap:butt;stroke-linejoin:miter;stroke:#8c8c8c;stroke-opacity:1;stroke-miterlimit:10" d="M150.404-95.774h52.074" transform="matrix(1 0 0 -1 33.772 13.671)"/><path style="fill:none;stroke-width:.31879;stroke-linecap:round;stroke-linejoin:round;stroke:#8c8c8c;stroke-opacity:1;stroke-miterlimit:10" d="M-1.196 1.593C-1.095.996-.001.101.3 0c-.301-.098-1.395-.996-1.496-1.594" transform="matrix(1 0 0 -1 236.251 109.445)"/><path style="fill:none;stroke-width:.3985;stroke-linecap:butt;stroke-linejoin:miter;stroke:#8c8c8c;stroke-opacity:1;stroke-miterlimit:10" d="m149.783-98.993 53.422-21.367" transform="matrix(1 0 0 -1 33.772 13.671)"/><path style="fill:none;stroke-width:.31879;stroke-linecap:round;stroke-linejoin:round;stroke:#8c8c8c;stroke-opacity:1;stroke-miterlimit:10" d="M-1.195 1.594C-1.096.998 0 .099.3 0 0-.1-1.097-.997-1.195-1.595" transform="matrix(.92844 .37137 .37137 -.92844 236.975 134.033)"/><path style="fill:none;stroke-width:.3985;stroke-linecap:butt;stroke-linejoin:miter;stroke:#8c8c8c;stroke-opacity:1;stroke-miterlimit:10" d="m148.501-101.188 56.196-44.957" transform="matrix(1 0 0 -1 33.772 13.671)"/><path style="fill:none;stroke-width:.31879;stroke-linecap:round;stroke-linejoin:round;stroke:#8c8c8c;stroke-opacity:1;stroke-miterlimit:10" d="M-1.197 1.594C-1.093.996 0 .099.3-.001c-.3-.1-1.394-.996-1.497-1.593" transform="matrix(.78082 .62466 .62466 -.78082 238.47 159.816)"/><path style="fill:none;stroke-width:.3985;stroke-linecap:butt;stroke-linejoin:miter;stroke:#8c8c8c;stroke-opacity:1;stroke-miterlimit:10" d="m147.283-102.43 58.84-70.61" transform="matrix(1 0 0 -1 33.772 13.671)"/><path style="fill:none;stroke-width:.31879;stroke-linecap:round;stroke-linejoin:round;stroke:#8c8c8c;stroke-opacity:1;stroke-miterlimit:10" d="M-1.197 1.595C-1.096.996-.002.1.3 0 0-.1-1.095-.998-1.196-1.595" transform="matrix(.64015 .76819 .76819 -.64015 239.893 186.71)"/><path style="fill:none;stroke-width:.3985;stroke-linecap:butt;stroke-linejoin:miter;stroke:#8c8c8c;stroke-opacity:1;stroke-miterlimit:10" d="m148.501-118.708 56.196 44.957" transform="matrix(1 0 0 -1 33.772 13.671)"/><path style="fill:none;stroke-width:.31879;stroke-linecap:round;stroke-linejoin:round;stroke:#8c8c8c;stroke-opacity:1;stroke-miterlimit:10" d="M-1.196 1.596C-1.096.996-.001.1.299 0c-.3-.1-1.393-.997-1.496-1.595" transform="scale(.99994 -.99994) rotate(38.66 243.858 296.218)"/><path style="fill:none;stroke-width:.3985;stroke-linecap:butt;stroke-linejoin:miter;stroke:#8c8c8c;stroke-opacity:1;stroke-miterlimit:10" d="m149.783-120.903 53.422 21.37" transform="matrix(1 0 0 -1 33.772 13.671)"/><path style="fill:none;stroke-width:.31879;stroke-linecap:round;stroke-linejoin:round;stroke:#8c8c8c;stroke-opacity:1;stroke-miterlimit:10" d="M-1.195 1.594C-1.098.995-.001.098.3-.001 0-.1-1.095-.996-1.196-1.595" transform="scale(.99996 -.99996) rotate(21.801 412.42 558.687)"/><path style="fill:none;stroke-width:.3985;stroke-linecap:butt;stroke-linejoin:miter;stroke:#8c8c8c;stroke-opacity:1;stroke-miterlimit:10" d="M150.404-124.122h52.074" transform="matrix(1 0 0 -1 33.772 13.671)"/><path style="fill:none;stroke-width:.31879;stroke-linecap:round;stroke-linejoin:round;stroke:#8c8c8c;stroke-opacity:1;stroke-miterlimit:10" d="M-1.196 1.593C-1.095.995-.001.1.3-.001c-.301-.098-1.395-.996-1.496-1.594" transform="matrix(1 0 0 -1 236.251 137.792)"/><path style="fill:none;stroke-width:.3985;stroke-linecap:butt;stroke-linejoin:miter;stroke:#8c8c8c;stroke-opacity:1;stroke-miterlimit:10" d="m149.783-127.34 53.422-21.368" transform="matrix(1 0 0 -1 33.772 13.671)"/><path style="fill:none;stroke-width:.31879;stroke-linecap:round;stroke-linejoin:round;stroke:#8c8c8c;stroke-opacity:1;stroke-miterlimit:10" d="M-1.195 1.593C-1.095.998 0 .098.3 0 0-.1-1.097-.997-1.196-1.592" transform="matrix(.92844 .37137 .37137 -.92844 236.975 162.38)"/><path style="fill:none;stroke-width:.3985;stroke-linecap:butt;stroke-linejoin:miter;stroke:#8c8c8c;stroke-opacity:1;stroke-miterlimit:10" d="m148.501-129.536 56.196-44.953" transform="matrix(1 0 0 -1 33.772 13.671)"/><path style="fill:none;stroke-width:.31879;stroke-linecap:round;stroke-linejoin:round;stroke:#8c8c8c;stroke-opacity:1;stroke-miterlimit:10" d="M-1.195 1.592C-1.095.998 0 .098.298.001c-.3-.1-1.395-.996-1.495-1.596" transform="matrix(.78082 .62466 .62466 -.78082 238.47 188.162)"/><path style="fill:none;stroke-width:.3985;stroke-linecap:butt;stroke-linejoin:miter;stroke:#8c8c8c;stroke-opacity:1;stroke-miterlimit:10" d="m147.283-145.81 58.84 70.606" transform="matrix(1 0 0 -1 33.772 13.671)"/><path style="fill:none;stroke-width:.31879;stroke-linecap:round;stroke-linejoin:round;stroke:#8c8c8c;stroke-opacity:1;stroke-miterlimit:10" d="M-1.197 1.594C-1.097.996 0 .1.3-.001 0-.1-1.094-.995-1.196-1.593" transform="scale(.99995 -.99995) rotate(50.195 214.83 211.661)"/><path style="fill:none;stroke-width:.3985;stroke-linecap:butt;stroke-linejoin:miter;stroke:#8c8c8c;stroke-opacity:1;stroke-miterlimit:10" d="m148.501-147.052 56.196 44.953" transform="matrix(1 0 0 -1 33.772 13.671)"/><path style="fill:none;stroke-width:.31879;stroke-linecap:round;stroke-linejoin:round;stroke:#8c8c8c;stroke-opacity:1;stroke-miterlimit:10" d="M-1.196 1.596C-1.096.996-.002.1.298 0c-.3-.1-1.393-.997-1.493-1.592" transform="scale(.99994 -.99994) rotate(38.66 284.266 282.044)"/><path style="fill:none;stroke-width:.3985;stroke-linecap:butt;stroke-linejoin:miter;stroke:#8c8c8c;stroke-opacity:1;stroke-miterlimit:10" d="m149.783-149.25 53.422 21.37" transform="matrix(1 0 0 -1 33.772 13.671)"/><path style="fill:none;stroke-width:.31879;stroke-linecap:round;stroke-linejoin:round;stroke:#8c8c8c;stroke-opacity:1;stroke-miterlimit:10" d="M-1.195 1.593C-1.097.998 0 .101.3-.002 0-.1-1.095-.996-1.196-1.596" transform="scale(.99996 -.99996) rotate(21.801 486.02 544.513)"/><path style="fill:none;stroke-width:.3985;stroke-linecap:butt;stroke-linejoin:miter;stroke:#8c8c8c;stroke-opacity:1;stroke-miterlimit:10" d="M150.404-152.47h52.074" transform="matrix(1 0 0 -1 33.772 13.671)"/><path style="fill:none;stroke-width:.31879;stroke-linecap:round;stroke-linejoin:round;stroke:#8c8c8c;stroke-opacity:1;stroke-miterlimit:10" d="M-1.196 1.592C-1.095.994-.001.1.3-.002c-.301-.097-1.395-.996-1.496-1.593" transform="matrix(1 0 0 -1 236.251 166.139)"/><path style="fill:none;stroke-width:.3985;stroke-linecap:butt;stroke-linejoin:miter;stroke:#8c8c8c;stroke-opacity:1;stroke-miterlimit:10" d="m149.783-155.684 53.422-21.372" transform="matrix(1 0 0 -1 33.772 13.671)"/><path style="fill:none;stroke-width:.31879;stroke-linecap:round;stroke-linejoin:round;stroke:#8c8c8c;stroke-opacity:1;stroke-miterlimit:10" d="M-1.196 1.595C-1.096.996-.001.1.3.002 0-.101-1.098-.995-1.195-1.594" transform="matrix(.92844 .37137 .37137 -.92844 236.975 190.726)"/><path style="stroke:none;fill-rule:nonzero;fill:#009;fill-opacity:1" d="M325.71 38.578a8.47 8.47 0 0 0-8.472-8.469c-4.675 0-8.465 3.793-8.465 8.47 0 4.675 3.79 8.468 8.465 8.468 4.68 0 8.473-3.793 8.473-8.469Zm0 0"/><use xlink:href="#y" x="312.788" y="41.29" style="fill:#fff;fill-opacity:1"/><use xlink:href="#a" x="312.155" y="41.29" style="fill:#fff;fill-opacity:1"/><use xlink:href="#b" x="317.849" y="42.784" style="fill:#fff;fill-opacity:1"/><path style="stroke:none;fill-rule:nonzero;fill:#009;fill-opacity:1" d="M325.71 66.926a8.469 8.469 0 0 0-8.472-8.469 8.465 8.465 0 0 0-8.465 8.469c0 4.676 3.79 8.469 8.465 8.469a8.472 8.472 0 0 0 8.473-8.47Zm0 0"/><use xlink:href="#y" x="312.788" y="69.636" style="fill:#fff;fill-opacity:1"/><use xlink:href="#a" x="312.155" y="69.636" style="fill:#fff;fill-opacity:1"/><use xlink:href="#c" x="317.849" y="71.131" style="fill:#fff;fill-opacity:1"/><path style="stroke:none;fill-rule:nonzero;fill:#009;fill-opacity:1" d="M325.71 95.273a8.469 8.469 0 0 0-8.472-8.468 8.465 8.465 0 0 0-8.465 8.468 8.464 8.464 0 0 0 8.465 8.465c4.68 0 8.473-3.789 8.473-8.465Zm0 0"/><use xlink:href="#y" x="312.788" y="97.983" style="fill:#fff;fill-opacity:1"/><use xlink:href="#a" x="312.155" y="97.983" style="fill:#fff;fill-opacity:1"/><use xlink:href="#d" x="317.849" y="99.477" style="fill:#fff;fill-opacity:1"/><path style="stroke:none;fill-rule:nonzero;fill:#009;fill-opacity:1" d="M325.71 123.617a8.47 8.47 0 0 0-8.472-8.469c-4.675 0-8.465 3.793-8.465 8.47a8.465 8.465 0 0 0 8.465 8.468 8.47 8.47 0 0 0 8.473-8.469Zm0 0"/><use xlink:href="#y" x="312.788" y="126.329" style="fill:#fff;fill-opacity:1"/><use xlink:href="#a" x="312.155" y="126.329" style="fill:#fff;fill-opacity:1"/><use xlink:href="#e" x="317.849" y="127.823" style="fill:#fff;fill-opacity:1"/><path style="stroke:none;fill-rule:nonzero;fill:#009;fill-opacity:1" d="M325.71 151.965a8.47 8.47 0 0 0-8.472-8.469c-4.675 0-8.465 3.793-8.465 8.469 0 4.676 3.79 8.469 8.465 8.469a8.472 8.472 0 0 0 8.473-8.47Zm0 0"/><use xlink:href="#y" x="312.788" y="154.675" style="fill:#fff;fill-opacity:1"/><use xlink:href="#a" x="312.155" y="154.675" style="fill:#fff;fill-opacity:1"/><use xlink:href="#f" x="317.849" y="156.17" style="fill:#fff;fill-opacity:1"/><path style="stroke:none;fill-rule:nonzero;fill:#009;fill-opacity:1" d="M325.71 180.313a8.472 8.472 0 0 0-8.472-8.47c-4.675 0-8.465 3.794-8.465 8.47 0 4.675 3.79 8.468 8.465 8.468 4.68 0 8.473-3.793 8.473-8.469Zm0 0"/><use xlink:href="#y" x="312.788" y="183.022" style="fill:#fff;fill-opacity:1"/><use xlink:href="#a" x="312.155" y="183.022" style="fill:#fff;fill-opacity:1"/><use xlink:href="#g" x="317.849" y="184.516" style="fill:#fff;fill-opacity:1"/><path style="stroke:none;fill-rule:nonzero;fill:#009;fill-opacity:1" d="M325.71 208.66a8.469 8.469 0 0 0-8.472-8.469 8.465 8.465 0 0 0-8.465 8.47c0 4.675 3.79 8.468 8.465 8.468 4.68 0 8.473-3.793 8.473-8.469Zm0 0"/><use xlink:href="#y" x="312.788" y="211.368" style="fill:#fff;fill-opacity:1"/><use xlink:href="#a" x="312.155" y="211.368" style="fill:#fff;fill-opacity:1"/><use xlink:href="#h" x="317.849" y="212.863" style="fill:#fff;fill-opacity:1"/><g clip-path="url(#z)"><path style="stroke:none;fill-rule:nonzero;fill:#009;fill-opacity:1" d="M325.71 237.008a8.472 8.472 0 0 0-8.472-8.473c-4.675 0-8.465 3.793-8.465 8.473a8.464 8.464 0 0 0 8.465 8.465c4.68 0 8.473-3.79 8.473-8.465Zm0 0"/></g><use xlink:href="#y" x="312.788" y="239.715" style="fill:#fff;fill-opacity:1"/><use xlink:href="#a" x="312.155" y="239.715" style="fill:#fff;fill-opacity:1"/><use xlink:href="#j" x="317.849" y="241.209" style="fill:#fff;fill-opacity:1"/><g style="fill:#000;fill-opacity:1"><use xlink:href="#A" x="287.404" y="16.106"/><use xlink:href="#n" x="295.153" y="16.106"/><use xlink:href="#o" x="300.688" y="16.106"/><use xlink:href="#m" x="304.563" y="16.106"/><use xlink:href="#n" x="310.098" y="16.106"/><use xlink:href="#o" x="315.633" y="16.106"/></g><g style="fill:#000;fill-opacity:1"><use xlink:href="#p" x="322.825" y="16.106"/><use xlink:href="#q" x="329.052" y="16.106"/></g><use xlink:href="#r" x="333.754" y="16.106" style="fill:#000;fill-opacity:1"/><g style="fill:#000;fill-opacity:1"><use xlink:href="#s" x="338.743" y="16.106"/><use xlink:href="#t" x="343.171" y="16.106"/></g><path style="fill:none;stroke-width:.3985;stroke-linecap:butt;stroke-linejoin:miter;stroke:#8c8c8c;stroke-opacity:1;stroke-miterlimit:10" d="m220.033-62.97 54.758 32.856" transform="matrix(1 0 0 -1 33.772 13.671)"/><path style="fill:none;stroke-width:.31879;stroke-linecap:round;stroke-linejoin:round;stroke:#8c8c8c;stroke-opacity:1;stroke-miterlimit:10" d="M-1.197 1.593C-1.096.995-.001.101.298 0 0-.1-1.097-.995-1.195-1.592" transform="scale(.99997 -.99997) rotate(30.964 233.327 535.125)"/><path style="fill:none;stroke-width:.3985;stroke-linecap:butt;stroke-linejoin:miter;stroke:#8c8c8c;stroke-opacity:1;stroke-miterlimit:10" d="m221.1-65.727 52.444 10.488" transform="matrix(1 0 0 -1 33.772 13.671)"/><path style="fill:none;stroke-width:.31879;stroke-linecap:round;stroke-linejoin:round;stroke:#8c8c8c;stroke-opacity:1;stroke-miterlimit:10" d="M-1.194 1.593C-1.094.995.001.099.3-.001.001-.1-1.094-.997-1.194-1.594" transform="matrix(.98055 -.1961 -.1961 -.98055 307.315 68.91)"/><path style="fill:none;stroke-width:.3985;stroke-linecap:butt;stroke-linejoin:miter;stroke:#8c8c8c;stroke-opacity:1;stroke-miterlimit:10" d="m221.1-69.126 52.444-10.488" transform="matrix(1 0 0 -1 33.772 13.671)"/><path style="fill:none;stroke-width:.31879;stroke-linecap:round;stroke-linejoin:round;stroke:#8c8c8c;stroke-opacity:1;stroke-miterlimit:10" d="M-1.194 1.595C-1.094.998.001.101.3.002c-.3-.1-1.394-.996-1.494-1.594" transform="matrix(.98055 .1961 .1961 -.98055 307.315 93.287)"/><path style="fill:none;stroke-width:.3985;stroke-linecap:butt;stroke-linejoin:miter;stroke:#8c8c8c;stroke-opacity:1;stroke-miterlimit:10" d="m220.033-71.888 54.758-32.851" transform="matrix(1 0 0 -1 33.772 13.671)"/><path style="fill:none;stroke-width:.31879;stroke-linecap:round;stroke-linejoin:round;stroke:#8c8c8c;stroke-opacity:1;stroke-miterlimit:10" d="M-1.196 1.593C-1.097.996 0 .101.3-.002 0-.1-1.093-.997-1.195-1.596" transform="matrix(.85747 .51448 .51448 -.85747 308.561 118.411)"/><path style="fill:none;stroke-width:.3985;stroke-linecap:butt;stroke-linejoin:miter;stroke:#8c8c8c;stroke-opacity:1;stroke-miterlimit:10" d="m218.732-73.556 57.578-57.582" transform="matrix(1 0 0 -1 33.772 13.671)"/><path style="fill:none;stroke-width:.31879;stroke-linecap:round;stroke-linejoin:round;stroke:#8c8c8c;stroke-opacity:1;stroke-miterlimit:10" d="M-1.196 1.593C-1.096.996 0 .098.298-.001 0-.101-1.094-.995-1.196-1.595" transform="scale(1 -1) rotate(-45 -19.757 -446.712)"/><path style="fill:none;stroke-width:.3985;stroke-linecap:butt;stroke-linejoin:miter;stroke:#8c8c8c;stroke-opacity:1;stroke-miterlimit:10" d="m217.638-74.481 59.945-83.922" transform="matrix(1 0 0 -1 33.772 13.671)"/><path style="fill:none;stroke-width:.31879;stroke-linecap:round;stroke-linejoin:round;stroke:#8c8c8c;stroke-opacity:1;stroke-miterlimit:10" d="M-1.195 1.596C-1.095.996 0 .098.3 0 0-.098-1.097-.995-1.195-1.596" transform="matrix(.58119 .81369 .81369 -.58119 311.357 172.076)"/><path style="fill:none;stroke-width:.3985;stroke-linecap:butt;stroke-linejoin:miter;stroke:#8c8c8c;stroke-opacity:1;stroke-miterlimit:10" d="m216.81-75.005 61.742-111.137" transform="matrix(1 0 0 -1 33.772 13.671)"/><path style="fill:none;stroke-width:.31879;stroke-linecap:round;stroke-linejoin:round;stroke:#8c8c8c;stroke-opacity:1;stroke-miterlimit:10" d="M-1.195 1.594C-1.094.997-.001.099.297 0 .001-.1-1.096-.995-1.196-1.592" transform="scale(1 -1) rotate(-60.945 -13.63 -365.308)"/><path style="fill:none;stroke-width:.3985;stroke-linecap:butt;stroke-linejoin:miter;stroke:#8c8c8c;stroke-opacity:1;stroke-miterlimit:10" d="m216.189-75.317 63.09-138.801" transform="matrix(1 0 0 -1 33.772 13.671)"/><path style="fill:none;stroke-width:.31879;stroke-linecap:round;stroke-linejoin:round;stroke:#8c8c8c;stroke-opacity:1;stroke-miterlimit:10" d="M-1.196 1.594C-1.095.994.001.1.298 0 0-.1-1.095-.997-1.195-1.595" transform="matrix(.41377 .91031 .91031 -.41377 313.052 227.791)"/><path style="fill:none;stroke-width:.3985;stroke-linecap:butt;stroke-linejoin:miter;stroke:#8c8c8c;stroke-opacity:1;stroke-miterlimit:10" d="m218.732-89.645 57.578 57.582" transform="matrix(1 0 0 -1 33.772 13.671)"/><path style="fill:none;stroke-width:.31879;stroke-linecap:round;stroke-linejoin:round;stroke:#8c8c8c;stroke-opacity:1;stroke-miterlimit:10" d="M-1.196 1.595C-1.094.995 0 .101.298.001 0-.098-1.097-.996-1.196-1.592" transform="scale(1 -1) rotate(45 210.251 351.439)"/><path style="fill:none;stroke-width:.3985;stroke-linecap:butt;stroke-linejoin:miter;stroke:#8c8c8c;stroke-opacity:1;stroke-miterlimit:10" d="m220.033-91.313 54.758 32.851" transform="matrix(1 0 0 -1 33.772 13.671)"/><path style="fill:none;stroke-width:.31879;stroke-linecap:round;stroke-linejoin:round;stroke:#8c8c8c;stroke-opacity:1;stroke-miterlimit:10" d="M-1.195 1.596C-1.096.994-.002.101.297-.001 0-.101-1.097-.996-1.195-1.593" transform="scale(.99997 -.99997) rotate(30.964 284.5 520.952)"/><path style="fill:none;stroke-width:.3985;stroke-linecap:butt;stroke-linejoin:miter;stroke:#8c8c8c;stroke-opacity:1;stroke-miterlimit:10" d="m221.1-94.075 52.444 10.488" transform="matrix(1 0 0 -1 33.772 13.671)"/><path style="fill:none;stroke-width:.31879;stroke-linecap:round;stroke-linejoin:round;stroke:#8c8c8c;stroke-opacity:1;stroke-miterlimit:10" d="M-1.194 1.592C-1.094.994.001.098.3-.001c-.3-.1-1.394-.996-1.494-1.594" transform="matrix(.98055 -.1961 -.1961 -.98055 307.315 97.257)"/><path style="fill:none;stroke-width:.3985;stroke-linecap:butt;stroke-linejoin:miter;stroke:#8c8c8c;stroke-opacity:1;stroke-miterlimit:10" d="m221.1-97.474 52.444-10.488" transform="matrix(1 0 0 -1 33.772 13.671)"/><path style="fill:none;stroke-width:.31879;stroke-linecap:round;stroke-linejoin:round;stroke:#8c8c8c;stroke-opacity:1;stroke-miterlimit:10" d="M-1.194 1.594C-1.094.996.001.1.3 0 .001-.1-1.094-.995-1.194-1.593" transform="matrix(.98055 .1961 .1961 -.98055 307.315 121.633)"/><path style="fill:none;stroke-width:.3985;stroke-linecap:butt;stroke-linejoin:miter;stroke:#8c8c8c;stroke-opacity:1;stroke-miterlimit:10" d="m220.033-100.231 54.758-32.856" transform="matrix(1 0 0 -1 33.772 13.671)"/><path style="fill:none;stroke-width:.31879;stroke-linecap:round;stroke-linejoin:round;stroke:#8c8c8c;stroke-opacity:1;stroke-miterlimit:10" d="M-1.195 1.593C-1.097.996 0 .1.297 0 0-.101-1.096-.995-1.197-1.593" transform="matrix(.85747 .51448 .51448 -.85747 308.561 146.758)"/><path style="fill:none;stroke-width:.3985;stroke-linecap:butt;stroke-linejoin:miter;stroke:#8c8c8c;stroke-opacity:1;stroke-miterlimit:10" d="m218.732-101.903 57.578-57.582" transform="matrix(1 0 0 -1 33.772 13.671)"/><path style="fill:none;stroke-width:.31879;stroke-linecap:round;stroke-linejoin:round;stroke:#8c8c8c;stroke-opacity:1;stroke-miterlimit:10" d="M-1.196 1.592C-1.096.996 0 .098.3-.002 0-.1-1.094-.996-1.196-1.595" transform="scale(1 -1) rotate(-45 -53.976 -460.885)"/><path style="fill:none;stroke-width:.3985;stroke-linecap:butt;stroke-linejoin:miter;stroke:#8c8c8c;stroke-opacity:1;stroke-miterlimit:10" d="m217.638-102.825 59.945-83.926" transform="matrix(1 0 0 -1 33.772 13.671)"/><path style="fill:none;stroke-width:.31879;stroke-linecap:round;stroke-linejoin:round;stroke:#8c8c8c;stroke-opacity:1;stroke-miterlimit:10" d="M-1.195 1.596C-1.095.996-.002.1.301-.001 0-.098-1.096-.995-1.198-1.595" transform="matrix(.58119 .81369 .81369 -.58119 311.357 200.423)"/><path style="fill:none;stroke-width:.3985;stroke-linecap:butt;stroke-linejoin:miter;stroke:#8c8c8c;stroke-opacity:1;stroke-miterlimit:10" d="m216.81-103.352 61.742-111.133" transform="matrix(1 0 0 -1 33.772 13.671)"/><path style="fill:none;stroke-width:.31879;stroke-linecap:round;stroke-linejoin:round;stroke:#8c8c8c;stroke-opacity:1;stroke-miterlimit:10" d="M-1.197 1.595C-1.096.998 0 .098.298 0 .002-.1-1.095-.996-1.194-1.593" transform="scale(1 -1) rotate(-60.945 -37.717 -379.481)"/><path style="fill:none;stroke-width:.3985;stroke-linecap:butt;stroke-linejoin:miter;stroke:#8c8c8c;stroke-opacity:1;stroke-miterlimit:10" d="m217.638-117.067 59.945 83.925" transform="matrix(1 0 0 -1 33.772 13.671)"/><path style="fill:none;stroke-width:.31879;stroke-linecap:round;stroke-linejoin:round;stroke:#8c8c8c;stroke-opacity:1;stroke-miterlimit:10" d="M-1.196 1.596C-1.094.996 0 .098.3 0 0-.099-1.096-.997-1.196-1.596" transform="scale(1 -1) rotate(54.463 201.173 279.115)"/><path style="fill:none;stroke-width:.3985;stroke-linecap:butt;stroke-linejoin:miter;stroke:#8c8c8c;stroke-opacity:1;stroke-miterlimit:10" d="m218.732-117.993 57.578 57.582" transform="matrix(1 0 0 -1 33.772 13.671)"/><path style="fill:none;stroke-width:.31879;stroke-linecap:round;stroke-linejoin:round;stroke:#8c8c8c;stroke-opacity:1;stroke-miterlimit:10" d="M-1.197 1.595C-1.094.995 0 .1.298 0c-.299-.1-1.395-.997-1.495-1.594" transform="scale(1 -1) rotate(45 244.469 337.265)"/><path style="fill:none;stroke-width:.3985;stroke-linecap:butt;stroke-linejoin:miter;stroke:#8c8c8c;stroke-opacity:1;stroke-miterlimit:10" d="m220.033-119.661 54.758 32.852" transform="matrix(1 0 0 -1 33.772 13.671)"/><path style="fill:none;stroke-width:.31879;stroke-linecap:round;stroke-linejoin:round;stroke:#8c8c8c;stroke-opacity:1;stroke-miterlimit:10" d="M-1.196 1.595C-1.095.997-.002.1.3.001 0-.102-1.097-.997-1.196-1.594" transform="scale(.99997 -.99997) rotate(30.964 335.671 506.778)"/><path style="fill:none;stroke-width:.3985;stroke-linecap:butt;stroke-linejoin:miter;stroke:#8c8c8c;stroke-opacity:1;stroke-miterlimit:10" d="m221.1-122.423 52.444 10.492" transform="matrix(1 0 0 -1 33.772 13.671)"/><path style="fill:none;stroke-width:.31879;stroke-linecap:round;stroke-linejoin:round;stroke:#8c8c8c;stroke-opacity:1;stroke-miterlimit:10" d="M-1.193 1.595C-1.093.997.002.1.3 0 .002-.1-1.094-.996-1.194-1.597" transform="matrix(.98055 -.1961 -.1961 -.98055 307.315 125.603)"/><path style="fill:none;stroke-width:.3985;stroke-linecap:butt;stroke-linejoin:miter;stroke:#8c8c8c;stroke-opacity:1;stroke-miterlimit:10" d="m221.1-125.821 52.444-10.488" transform="matrix(1 0 0 -1 33.772 13.671)"/><path style="fill:none;stroke-width:.31879;stroke-linecap:round;stroke-linejoin:round;stroke:#8c8c8c;stroke-opacity:1;stroke-miterlimit:10" d="M-1.194 1.593C-1.094.996.001.1.3 0 .001-.1-1.094-.996-1.194-1.594" transform="matrix(.98055 .1961 .1961 -.98055 307.315 149.98)"/><path style="fill:none;stroke-width:.3985;stroke-linecap:butt;stroke-linejoin:miter;stroke:#8c8c8c;stroke-opacity:1;stroke-miterlimit:10" d="m220.033-128.579 54.758-32.855" transform="matrix(1 0 0 -1 33.772 13.671)"/><path style="fill:none;stroke-width:.31879;stroke-linecap:round;stroke-linejoin:round;stroke:#8c8c8c;stroke-opacity:1;stroke-miterlimit:10" d="M-1.196 1.595C-1.096.995 0 .099.298 0c-.3-.099-1.393-.996-1.494-1.594" transform="matrix(.85747 .51448 .51448 -.85747 308.561 175.104)"/><path style="fill:none;stroke-width:.3985;stroke-linecap:butt;stroke-linejoin:miter;stroke:#8c8c8c;stroke-opacity:1;stroke-miterlimit:10" d="m218.732-130.25 57.578-57.579" transform="matrix(1 0 0 -1 33.772 13.671)"/><path style="fill:none;stroke-width:.31879;stroke-linecap:round;stroke-linejoin:round;stroke:#8c8c8c;stroke-opacity:1;stroke-miterlimit:10" d="M-1.197 1.594C-1.095.994-.001.099.297 0c-.298-.1-1.392-.994-1.494-1.594" transform="scale(1 -1) rotate(-45 -88.193 -475.058)"/><path style="fill:none;stroke-width:.3985;stroke-linecap:butt;stroke-linejoin:miter;stroke:#8c8c8c;stroke-opacity:1;stroke-miterlimit:10" d="m217.638-131.173 59.945-83.926" transform="matrix(1 0 0 -1 33.772 13.671)"/><path style="fill:none;stroke-width:.31879;stroke-linecap:round;stroke-linejoin:round;stroke:#8c8c8c;stroke-opacity:1;stroke-miterlimit:10" d="M-1.193 1.595C-1.097.997 0 .099.299 0 .002-.1-1.095-.996-1.197-1.596" transform="matrix(.58119 .81369 .81369 -.58119 311.357 228.769)"/><path style="fill:none;stroke-width:.3985;stroke-linecap:butt;stroke-linejoin:miter;stroke:#8c8c8c;stroke-opacity:1;stroke-miterlimit:10" d="m216.81-144.892 61.742 111.137" transform="matrix(1 0 0 -1 33.772 13.671)"/><path style="fill:none;stroke-width:.31879;stroke-linecap:round;stroke-linejoin:round;stroke:#8c8c8c;stroke-opacity:1;stroke-miterlimit:10" d="M-1.193 1.594C-1.093.996 0 .098.299 0 .001-.098-1.095-.997-1.196-1.594" transform="scale(1 -1) rotate(60.945 196.464 241.689)"/><path style="fill:none;stroke-width:.3985;stroke-linecap:butt;stroke-linejoin:miter;stroke:#8c8c8c;stroke-opacity:1;stroke-miterlimit:10" d="m217.638-145.415 59.945 83.926" transform="matrix(1 0 0 -1 33.772 13.671)"/><path style="fill:none;stroke-width:.31879;stroke-linecap:round;stroke-linejoin:round;stroke:#8c8c8c;stroke-opacity:1;stroke-miterlimit:10" d="M-1.196 1.596C-1.095.996.002.099.299 0 0-.1-1.096-.997-1.193-1.594" transform="scale(1 -1) rotate(54.463 228.716 264.942)"/><path style="fill:none;stroke-width:.3985;stroke-linecap:butt;stroke-linejoin:miter;stroke:#8c8c8c;stroke-opacity:1;stroke-miterlimit:10" d="m218.732-146.34 57.578 57.58" transform="matrix(1 0 0 -1 33.772 13.671)"/><path style="fill:none;stroke-width:.31879;stroke-linecap:round;stroke-linejoin:round;stroke:#8c8c8c;stroke-opacity:1;stroke-miterlimit:10" d="M-1.197 1.594C-1.095.994-.001.1.297 0 0-.1-1.098-.997-1.197-1.594" transform="scale(1 -1) rotate(45 278.687 323.092)"/><path style="fill:none;stroke-width:.3985;stroke-linecap:butt;stroke-linejoin:miter;stroke:#8c8c8c;stroke-opacity:1;stroke-miterlimit:10" d="m220.033-148.009 54.758 32.856" transform="matrix(1 0 0 -1 33.772 13.671)"/><path style="fill:none;stroke-width:.31879;stroke-linecap:round;stroke-linejoin:round;stroke:#8c8c8c;stroke-opacity:1;stroke-miterlimit:10" d="M-1.196 1.595C-1.096.996-.002.099.298 0 .002-.1-1.096-.994-1.196-1.594" transform="scale(.99997 -.99997) rotate(30.964 386.843 492.604)"/><path style="fill:none;stroke-width:.3985;stroke-linecap:butt;stroke-linejoin:miter;stroke:#8c8c8c;stroke-opacity:1;stroke-miterlimit:10" d="m221.1-150.767 52.444 10.489" transform="matrix(1 0 0 -1 33.772 13.671)"/><path style="fill:none;stroke-width:.31879;stroke-linecap:round;stroke-linejoin:round;stroke:#8c8c8c;stroke-opacity:1;stroke-miterlimit:10" d="M-1.194 1.594C-1.094.996.002.1.3 0 .002-.1-1.094-.995-1.194-1.593" transform="scale(.99997 -.99997) rotate(11.309 931.1 1474.942)"/><path style="fill:none;stroke-width:.3985;stroke-linecap:butt;stroke-linejoin:miter;stroke:#8c8c8c;stroke-opacity:1;stroke-miterlimit:10" d="m221.1-154.169 52.444-10.488" transform="matrix(1 0 0 -1 33.772 13.671)"/><path style="fill:none;stroke-width:.31879;stroke-linecap:round;stroke-linejoin:round;stroke:#8c8c8c;stroke-opacity:1;stroke-miterlimit:10" d="M-1.194 1.593C-1.094.995.002.099.3-.001.002-.1-1.094-.997-1.194-1.594" transform="matrix(.98055 .1961 .1961 -.98055 307.315 178.327)"/><path style="fill:none;stroke-width:.3985;stroke-linecap:butt;stroke-linejoin:miter;stroke:#8c8c8c;stroke-opacity:1;stroke-miterlimit:10" d="m220.033-156.927 54.758-32.851" transform="matrix(1 0 0 -1 33.772 13.671)"/><path style="fill:none;stroke-width:.31879;stroke-linecap:round;stroke-linejoin:round;stroke:#8c8c8c;stroke-opacity:1;stroke-miterlimit:10" d="M-1.196 1.594C-1.098.997.002.1.298 0c-.3-.099-1.393-.996-1.494-1.594" transform="matrix(.85747 .51448 .51448 -.85747 308.561 203.451)"/><path style="fill:none;stroke-width:.3985;stroke-linecap:butt;stroke-linejoin:miter;stroke:#8c8c8c;stroke-opacity:1;stroke-miterlimit:10" d="m218.732-158.595 57.578-57.582" transform="matrix(1 0 0 -1 33.772 13.671)"/><path style="fill:none;stroke-width:.31879;stroke-linecap:round;stroke-linejoin:round;stroke:#8c8c8c;stroke-opacity:1;stroke-miterlimit:10" d="M-1.197 1.593C-1.097.997 0 .1.297 0 0-.1-1.095-.995-1.197-1.594" transform="scale(1 -1) rotate(-45 -122.41 -489.232)"/><path style="fill:none;stroke-width:.3985;stroke-linecap:butt;stroke-linejoin:miter;stroke:#8c8c8c;stroke-opacity:1;stroke-miterlimit:10" d="m216.189-172.923 63.09 138.801" transform="matrix(1 0 0 -1 33.772 13.671)"/><path style="fill:none;stroke-width:.31879;stroke-linecap:round;stroke-linejoin:round;stroke:#8c8c8c;stroke-opacity:1;stroke-miterlimit:10" d="M-1.197 1.594C-1.097.996 0 .1.299 0 .002-.1-1.098-.995-1.195-1.593" transform="matrix(.41377 -.9103 -.9103 -.41377 313.05 47.794)"/><path style="fill:none;stroke-width:.3985;stroke-linecap:butt;stroke-linejoin:miter;stroke:#8c8c8c;stroke-opacity:1;stroke-miterlimit:10" d="m216.81-173.24 61.742 111.138" transform="matrix(1 0 0 -1 33.772 13.671)"/><path style="fill:none;stroke-width:.31879;stroke-linecap:round;stroke-linejoin:round;stroke:#8c8c8c;stroke-opacity:1;stroke-miterlimit:10" d="M-1.194 1.593C-1.094.996 0 .097.3 0 0-.098-1.095-.997-1.197-1.595" transform="scale(1 -1) rotate(60.945 220.552 227.515)"/><path style="fill:none;stroke-width:.3985;stroke-linecap:butt;stroke-linejoin:miter;stroke:#8c8c8c;stroke-opacity:1;stroke-miterlimit:10" d="m217.638-173.763 59.945 83.926" transform="matrix(1 0 0 -1 33.772 13.671)"/><path style="fill:none;stroke-width:.31879;stroke-linecap:round;stroke-linejoin:round;stroke:#8c8c8c;stroke-opacity:1;stroke-miterlimit:10" d="M-1.197 1.595C-1.095.995.001.1.298 0 0-.1-1.097-.998-1.194-1.595" transform="scale(.99994 -.99994) rotate(54.463 256.26 250.77)"/><path style="fill:none;stroke-width:.3985;stroke-linecap:butt;stroke-linejoin:miter;stroke:#8c8c8c;stroke-opacity:1;stroke-miterlimit:10" d="m218.732-174.684 57.578 57.578" transform="matrix(1 0 0 -1 33.772 13.671)"/><path style="fill:none;stroke-width:.31879;stroke-linecap:round;stroke-linejoin:round;stroke:#8c8c8c;stroke-opacity:1;stroke-miterlimit:10" d="M-1.198 1.594C-1.095.994-.002.099.297 0c-.299-.1-1.392-.995-1.495-1.594" transform="scale(1 -1) rotate(45 312.905 308.918)"/><path style="fill:none;stroke-width:.3985;stroke-linecap:butt;stroke-linejoin:miter;stroke:#8c8c8c;stroke-opacity:1;stroke-miterlimit:10" d="m220.033-176.356 54.758 32.855" transform="matrix(1 0 0 -1 33.772 13.671)"/><path style="fill:none;stroke-width:.31879;stroke-linecap:round;stroke-linejoin:round;stroke:#8c8c8c;stroke-opacity:1;stroke-miterlimit:10" d="M-1.197 1.594C-1.095.996 0 .102.298 0 .001-.1-1.096-.995-1.197-1.595" transform="scale(.99997 -.99997) rotate(30.964 438.016 478.43)"/><path style="fill:none;stroke-width:.3985;stroke-linecap:butt;stroke-linejoin:miter;stroke:#8c8c8c;stroke-opacity:1;stroke-miterlimit:10" d="m221.1-179.114 52.444 10.488" transform="matrix(1 0 0 -1 33.772 13.671)"/><path style="fill:none;stroke-width:.31879;stroke-linecap:round;stroke-linejoin:round;stroke:#8c8c8c;stroke-opacity:1;stroke-miterlimit:10" d="M-1.194 1.593C-1.094.996.001.1.3 0 .001-.1-1.094-.996-1.194-1.594" transform="matrix(.98055 -.1961 -.1961 -.98055 307.315 182.297)"/><path style="fill:none;stroke-width:.3985;stroke-linecap:butt;stroke-linejoin:miter;stroke:#8c8c8c;stroke-opacity:1;stroke-miterlimit:10" d="m221.1-182.513 52.444-10.492" transform="matrix(1 0 0 -1 33.772 13.671)"/><path style="fill:none;stroke-width:.31879;stroke-linecap:round;stroke-linejoin:round;stroke:#8c8c8c;stroke-opacity:1;stroke-miterlimit:10" d="M-1.194 1.596C-1.094.998.002.098.3-.001c-.3-.1-1.395-.996-1.494-1.594" transform="matrix(.98055 .1961 .1961 -.98055 307.315 206.674)"/><path style="fill:none;stroke-width:.3985;stroke-linecap:butt;stroke-linejoin:miter;stroke:#8c8c8c;stroke-opacity:1;stroke-miterlimit:10" d="m220.033-185.274 54.758-32.852" transform="matrix(1 0 0 -1 33.772 13.671)"/><path style="fill:none;stroke-width:.31879;stroke-linecap:round;stroke-linejoin:round;stroke:#8c8c8c;stroke-opacity:1;stroke-miterlimit:10" d="M-1.196 1.594C-1.097.997 0 .102.3-.002-.002-.1-1.095-.997-1.196-1.595" transform="matrix(.85747 .51448 .51448 -.85747 308.561 231.798)"/></svg>