<svg height="327.295" viewBox="0 0 351.009 245.471" width="468.012" xmlns="http://www.w3.org/2000/svg" xmlns:xlink="http://www.w3.org/1999/xlink"><symbol id="a" overflow="visible"><path d="m3.328-3.016c.063-.25.297-1.171.985-1.171.046 0 .296 0 .5.125a.578.578 0 0 0 -.47.546c0 .157.11.344.376.344a.546.546 0 0 0 .531-.578c0-.516-.578-.656-.922-.656-.578 0-.922.531-1.047.75-.25-.656-.781-.75-1.078-.75-1.031 0-1.61 1.281-1.61 1.531 0 .11.11.11.126.11.078 0 .11-.032.125-.11.344-1.063 1-1.313 1.344-1.313.187 0 .53.094.53.672 0 .313-.171.97-.53 2.375-.157.61-.516 1.032-.954 1.032-.062 0-.28 0-.5-.125.25-.063.47-.266.47-.547 0-.266-.22-.344-.36-.344-.313 0-.547.25-.547.578 0 .453.484.656.922.656.672 0 1.031-.703 1.047-.75.125.36.484.75 1.078.75 1.031 0 1.594-1.28 1.594-1.53 0-.11-.079-.11-.11-.11-.094 0-.11.047-.14.11-.329 1.077-1 1.312-1.313 1.312-.39 0-.547-.313-.547-.657 0-.218.047-.437.156-.875zm0 0"/></symbol><symbol id="b" overflow="visible"><path d="m2.328-4.438c0-.187 0-.187-.203-.187-.453.438-1.078.438-1.36.438v.25c.157 0 .626 0 1-.188v3.547c0 .234 0 .328-.687.328h-.266v.25c.125 0 .985-.031 1.235-.031.219 0 1.094.031 1.25.031v-.25h-.267c-.703 0-.703-.094-.703-.328zm0 0"/></symbol><symbol id="c" overflow="visible"><path d="m3.516-1.266h-.236c-.015.157-.094.563-.187.625-.047.047-.578.047-.688.047h-1.28c.734-.64.984-.844 1.39-1.172.516-.406 1-.843 1-1.5 0-.843-.734-1.359-1.624-1.359-.86 0-1.454.61-1.454 1.25 0 .344.297.39.376.39a.365.365 0 0 0 .359-.374c0-.125-.047-.375-.406-.375.218-.485.687-.641 1.015-.641.703 0 1.063.547 1.063 1.11 0 .609-.438 1.078-.656 1.328l-1.672 1.671c-.079.063-.079.079-.079.266h2.876zm0 0"/></symbol><symbol id="d" overflow="visible"><path d="m1.906-2.328c.547 0 .938.375.938 1.125 0 .86-.516 1.125-.906 1.125-.282 0-.907-.078-1.188-.5.328 0 .406-.235.406-.39 0-.22-.172-.376-.39-.376a.38.38 0 0 0 -.391.407c0 .656.719 1.077 1.563 1.077.968 0 1.64-.657 1.64-1.344 0-.547-.437-1.094-1.203-1.25.719-.266.984-.781.984-1.219 0-.547-.625-.953-1.406-.953-.766 0-1.36.375-1.36.938 0 .234.157.359.36.359.219 0 .36-.156.36-.344 0-.203-.141-.36-.36-.375.25-.297.719-.375.985-.375.312 0 .75.156.75.75 0 .297-.094.625-.282.828-.219.266-.422.281-.765.313-.172.015-.188.015-.22.015-.015 0-.077.016-.077.094 0 .094.062.094.187.094zm0 0"/></symbol><symbol id="e" overflow="visible"><path d="m3.688-1.14v-.25h-.782v-3.11c0-.14 0-.203-.14-.203-.094 0-.125 0-.188.11l-2.312 3.201v.25h2.062v.563c0 .25 0 .328-.578.328h-.188v.251c.36-.016.797-.031 1.047-.031.266 0 .704.015 1.063.031v-.25h-.188c-.578 0-.578-.078-.578-.328v-.563zm-1.313-2.799v2.547h-1.844zm0 0"/></symbol><symbol id="f" overflow="visible"><path d="m1.078-3.89c.36.093.563.093.672.093.922 0 1.469-.625 1.469-.734 0-.078-.047-.094-.078-.094-.016 0-.032 0-.063.016-.172.062-.531.203-1.047.203-.203 0-.562-.016-1.015-.188-.079-.031-.094-.031-.094-.031-.094 0-.094.078-.094.188v2.046c0 .125 0 .204.11.204.062 0 .078 0 .14-.094.297-.375.734-.438.969-.438a.72.72 0 0 1 .64.39c.126.235.172.5.172.907 0 .203 0 .61-.218.922a.984.984 0 0 1 -.813.422c-.453 0-.922-.25-1.094-.719.266.016.407-.156.407-.344 0-.296-.266-.343-.36-.343 0 0-.344 0-.344.375 0 .625.579 1.25 1.407 1.25.89 0 1.672-.657 1.672-1.547 0-.782-.594-1.5-1.454-1.5-.312 0-.671.062-.984.328zm0 0"/></symbol><symbol id="g" overflow="visible"><path d="m1.047-2.281c0-.563.047-1.078.312-1.516.235-.375.61-.625 1.063-.625.203 0 .484.047.625.234-.172.016-.328.141-.328.344a.32.32 0 0 0 .328.328c.219 0 .344-.14.344-.343 0-.407-.297-.766-.985-.766-1 0-2.031.922-2.031 2.422 0 1.797.844 2.343 1.625 2.343.844 0 1.578-.657 1.578-1.563 0-.89-.703-1.547-1.515-1.547-.563 0-.86.375-1.016.688zm.953 2.203c-.36 0-.625-.203-.781-.516-.094-.203-.157-.562-.157-.969 0-.687.407-1.203.97-1.203a.79.79 0 0 1 .702.375c.172.266.172.563.172.97 0 .39 0 .687-.187.968a.815.815 0 0 1 -.719.375zm0 0"/></symbol><symbol id="h" overflow="visible"><path d="m3.734-4.203c.063-.094.063-.11.063-.281h-1.828c-.282 0-.36-.016-.61-.032-.359-.03-.375-.078-.389-.187h-.236l-.25 1.483h.236c.015-.11.094-.562.203-.64.047-.032.625-.032.719-.032h1.515c-.219.282-.578.72-.719.922-.906 1.188-1 2.297-1 2.703 0 .079 0 .407.329.407.343 0 .343-.313.343-.407v-.28c0-1.345.282-1.97.579-2.345zm0 0"/></symbol><symbol id="i" overflow="visible"><path d="m2.469-2.516c.547-.265.89-.593.89-1.078 0-.672-.703-1.031-1.375-1.031-.765 0-1.39.5-1.39 1.156 0 .328.156.563.281.703.125.157.172.188.578.422-.39.172-1.078.547-1.078 1.281 0 .766.797 1.204 1.594 1.204.89 0 1.61-.563 1.61-1.313 0-.469-.267-.86-.673-1.094-.094-.062-.328-.187-.437-.25zm-1.125-.656c-.188-.11-.375-.297-.375-.562 0-.438.5-.688 1-.688.547 0 1.031.344 1.031.828 0 .625-.734.938-.734.938-.016 0-.032 0-.079-.031zm.328.969.969.547c.171.11.515.312.515.718 0 .532-.578.86-1.172.86-.64 0-1.187-.422-1.187-.985 0-.515.375-.921.875-1.14zm0 0"/></symbol><symbol id="j" overflow="visible"><path d="m2.25-6.031c0-.36.016-.469.813-.469h.25v-.313c-.344.032-1.126.032-1.516.032-.375 0-1.172 0-1.516-.032v.313h.25c.797 0 .828.11.828.469v5.25c0 .36-.03.469-.828.469h-.25v.312c.344-.031 1.14-.031 1.516-.031.39 0 1.172 0 1.516.031v-.313h-.25c-.797 0-.813-.109-.813-.468zm0 0"/></symbol><symbol id="k" overflow="visible"><path d="m1.094-3.422v2.672c0 .438-.11.438-.782.438v.312c.36-.016.86-.031 1.141-.031.25 0 .766.015 1.11.031v-.313c-.672 0-.782 0-.782-.437v-1.844c0-1.031.719-1.594 1.344-1.594.64 0 .75.532.75 1.11v2.328c0 .438-.11.438-.781.438v.312c.344-.016.86-.031 1.125-.031.25 0 .781.015 1.11.031v-.313c-.516 0-.766 0-.766-.296v-1.907c0-.859 0-1.156-.313-1.515-.14-.172-.469-.375-1.047-.375-.734 0-1.203.422-1.484 1.047v-1.047l-1.407.11v.312c.704 0 .782.062.782.562zm0 0"/></symbol><symbol id="l" overflow="visible"><path d="m1.719-3.75v-.656l-1.438.11v.312c.703 0 .781.062.781.5v4.656c0 .453-.109.453-.78.453v.313c.343-.016.859-.032 1.109-.032.28 0 .78.016 1.125.032v-.313c-.657 0-.766 0-.766-.453v-1.766c.047.172.469.703 1.219.703 1.187 0 2.219-.984 2.219-2.265 0-1.266-.954-2.25-2.079-2.25-.78 0-1.203.437-1.39.656zm.031 2.61v-2.22c.281-.515.766-.796 1.281-.796.735 0 1.328.875 1.328 2 .001 1.203-.687 2.046-1.421 2.046-.407 0-.782-.204-1.047-.61-.141-.203-.141-.219-.141-.422zm0 0"/></symbol><symbol id="m" overflow="visible"><path d="m3.89-.781v.89l1.439-.109v-.313c-.687 0-.766-.062-.766-.562v-3.531l-1.468.11v.312c.687 0 .781.062.781.562v1.766c0 .875-.484 1.547-1.219 1.547-.828 0-.875-.47-.875-.985v-3.312l-1.468.11v.312c.78 0 .78.03.78.906v1.5c0 .781 0 1.687 1.516 1.687.563 0 1-.28 1.282-.89zm0 0"/></symbol><symbol id="n" overflow="visible"><path d="m1.719-3.984h1.437v-.313h-1.436v-1.828h-.25c0 .813-.297 1.875-1.282 1.922v.219h.844v2.75c0 1.218.938 1.343 1.297 1.343.703 0 .985-.703.985-1.343v-.563h-.25v.547c0 .734-.297 1.11-.672 1.11-.672 0-.672-.907-.672-1.079zm0 0"/></symbol><symbol id="o" overflow="visible"><path d="m5.797-2.578h-.25c-.11 1.015-.25 2.265-2 2.265h-.813c-.468 0-.484-.062-.484-.39v-5.313c0-.343 0-.484.938-.484h.328v-.313c-.36.032-1.266.032-1.672.032-.39 0-1.172 0-1.516-.032v.313h.234c.766 0 .797.11.797.469v5.25c0 .36-.03.469-.796.469h-.235v.312h5.188zm0 0"/></symbol><symbol id="p" overflow="visible"><path d="m3.313-.75c.046.39.312.813.78.813.22 0 .829-.141.829-.954v-.562h-.25v.562c0 .579-.25.641-.36.641-.328 0-.375-.453-.375-.5v-1.984c0-.422 0-.813-.359-1.188a1.9 1.9 0 0 0 -1.36-.547c-.827 0-1.515.469-1.515 1.125 0 .297.203.469.469.469a.435.435 0 0 0 .453-.453c0-.125-.047-.453-.516-.453.282-.36.766-.469 1.079-.469.5 0 1.062.39 1.062 1.281v.36c-.516.03-1.203.062-1.828.359-.75.344-1 .86-1 1.297 0 .812.969 1.062 1.594 1.062a1.38 1.38 0 0 0 1.296-.859zm-.063-1.64v1c0 .937-.719 1.28-1.172 1.28-.484 0-.89-.343-.89-.843 0-.547.421-1.375 2.062-1.438zm0 0"/></symbol><symbol id="q" overflow="visible"><path d="m4.14-3.344c.25-.64.766-.64.923-.64v-.313c-.235.016-.516.031-.75.031-.172 0-.641-.015-.86-.03v.312c.313 0 .469.171.469.421 0 .11-.016.126-.063.25l-1.015 2.439-1.094-2.673c-.047-.11-.063-.14-.063-.187 0-.25.36-.25.563-.25v-.313c-.266.016-.922.031-1.094.031-.265 0-.672-.015-.968-.03v.312c.484 0 .671 0 .812.343l1.5 3.641a6.764 6.764 0 0 0 -.25.594c-.219.547-.5 1.234-1.14 1.234-.048 0-.282 0-.47-.187.313-.032.391-.25.391-.422 0-.25-.187-.407-.421-.407-.203 0-.421.125-.421.422 0 .454.421.813.921.813.625 0 1.032-.578 1.266-1.14zm0 0"/></symbol><symbol id="r" overflow="visible"><path d="m1.11-2.516c.061-1.484.905-1.734 1.25-1.734 1.015 0 1.124 1.344 1.124 1.734zm0 .22h2.78c.22 0 .25 0 .25-.22 0-.984-.546-1.953-1.78-1.953-1.158 0-2.08 1.032-2.08 2.282.001 1.327 1.048 2.295 2.19 2.295 1.218.002 1.67-1.108 1.67-1.295 0-.094-.079-.125-.141-.125-.078 0-.11.062-.125.14-.343 1.032-1.249 1.032-1.343 1.032-.5 0-.89-.296-1.125-.671-.297-.47-.297-1.125-.297-1.485zm0 0"/></symbol><symbol id="s" overflow="visible"><path d="m1.672-3.313v-1.093l-1.39.11v.312c.702 0 .78.062.78.562v2.672c0 .438-.109.438-.78.438v.312c.39-.016.859-.031 1.14-.031.39 0 .86 0 1.266.031v-.313h-.22c-.734 0-.75-.109-.75-.468v-1.531c0-.985.423-1.876 1.173-1.876.062 0 .093 0 .109.016-.031 0-.234.125-.234.39 0 .266.218.423.437.423a.421.421 0 0 0 .422-.438c0-.312-.313-.61-.734-.61-.735 0-1.094.673-1.22 1.095zm0 0"/></symbol><symbol id="t" overflow="visible"><path d="m2.234-3.516v-2.578c0-.234 0-.36.22-.39.093-.016.39-.016.593-.016.89 0 2 .047 2 1.484 0 .688-.234 1.5-1.703 1.5zm2.11.125c.953-.234 1.734-.843 1.734-1.625 0-.953-1.14-1.796-2.594-1.796h-3.14v.312h.25c.765 0 .781.11.781.469v5.25c0 .36-.016.469-.781.469h-.25v.312c.36-.031 1.078-.031 1.453-.031.39 0 1.11 0 1.469.031v-.313h-.25c-.766 0-.782-.109-.782-.468v-2.516h1.141c.156 0 .578 0 .938.344.375.344.375.656.375 1.328 0 .64 0 1.047.406 1.422.406.36.953.422 1.25.422.781 0 .953-.813.953-1.094 0-.063 0-.172-.125-.172-.11 0-.11.094-.125.156-.063.721-.407.891-.657.891-.485 0-.563-.516-.704-1.438l-.14-.796c-.172-.641-.656-.97-1.203-1.157zm0 0"/></symbol><symbol id="u" overflow="visible"><path d="m2.078-1.938c.219.047 1.031.204 1.031.922 0 .5-.343.907-1.125.907-.843 0-1.203-.563-1.39-1.422-.031-.125-.031-.157-.14-.157-.126 0-.126.063-.126.235v1.328c0 .172 0 .234.11.234.045.001.062-.015.25-.203.015-.015.015-.031.202-.218.437.406.89.421 1.093.421 1.141 0 1.61-.671 1.61-1.39 0-.516-.297-.828-.422-.938-.328-.328-.719-.406-1.14-.484-.563-.11-1.22-.235-1.22-.813 0-.359.25-.765 1.11-.765 1.094 0 1.156.906 1.172 1.203 0 .094.094.094.11.094.14 0 .14-.047.14-.235v-1.015c0-.157 0-.235-.11-.235-.046 0-.078 0-.203.125a1.676 1.676 0 0 1 -.172.157c-.375-.282-.78-.282-.937-.282-1.219 0-1.594.672-1.594 1.235 0 .343.156.625.422.843.328.25.61.313 1.328.454zm0 0"/></symbol><symbol id="v" overflow="visible"><path d="m1.766-4.406-1.391.11v.312c.64 0 .734.062.734.546v2.688c0 .438-.109.438-.78.438v.312c.312-.016.859-.031 1.093-.031.36 0 .703.015 1.047.031v-.313c-.672 0-.703-.046-.703-.437zm.03-1.735a.514.514 0 0 0 -.515-.53.537.537 0 0 0 -.531.53c0 .266.219.532.531.532a.514.514 0 0 0 .516-.532zm0 0"/></symbol><symbol id="w" overflow="visible"><path d="m4.688-2.14c0-1.266-.985-2.329-2.188-2.329-1.25 0-2.219 1.094-2.219 2.329a2.22 2.22 0 0 0 2.203 2.25c1.204 0 2.204-.984 2.204-2.25zm-2.188 2c-.438 0-.875-.204-1.14-.672-.25-.438-.25-1.047-.25-1.407 0-.39 0-.922.234-1.36a1.347 1.347 0 0 1 1.14-.671c.438 0 .86.219 1.125.656.266.422.266 1 .266 1.375 0 .36 0 .906-.219 1.344-.234.453-.672.734-1.156.734zm0 0"/></symbol><symbol id="x" overflow="visible"><path d="m2.5-6.922-1.344 1.36.172.171 1.172-1.015 1.14 1.015.172-.171zm0 0"/></symbol><symbol id="y" overflow="visible"><path d="m7.188-3.375c0-2.031-1.5-3.656-3.313-3.656-1.797 0-3.313 1.593-3.313 3.656.001 2.047 1.533 3.594 3.314 3.594 1.813 0 3.313-1.578 3.313-3.594zm-3.314 3.328c-.953 0-2.297-.875-2.297-3.469 0-2.578 1.469-3.265 2.297-3.265.86 0 2.281.703 2.281 3.265 0 2.641-1.36 3.47-2.281 3.47zm0 0"/></symbol><clipPath id="z"><path d="m25 228h18v17.473h-18zm0 0"/></clipPath><clipPath id="A"><path d="m308 228h18v17.473h-18zm0 0"/></clipPath><path d="m42.242 38.578a8.47 8.47 0 0 0 -8.469-8.469 8.468 8.468 0 0 0 -8.468 8.47 8.468 8.468 0 0 0 8.468 8.468 8.47 8.47 0 0 0 8.47-8.469zm0 0" fill="#ffa64c"/><use x="28.691" xlink:href="#a" y="39.975"/><use x="34.385" xlink:href="#b" y="41.47"/><path d="m42.242 66.926a8.468 8.468 0 0 0 -8.469-8.469 8.466 8.466 0 0 0 -8.468 8.469 8.468 8.468 0 0 0 8.468 8.469 8.47 8.47 0 0 0 8.47-8.47zm0 0" fill="#ffa64c"/><use x="28.691" xlink:href="#a" y="68.322"/><use x="34.385" xlink:href="#c" y="69.816"/><path d="m42.242 95.273a8.468 8.468 0 0 0 -8.469-8.468 8.466 8.466 0 0 0 -8.468 8.468 8.465 8.465 0 0 0 8.468 8.465c4.676 0 8.47-3.789 8.47-8.465zm0 0" fill="#ffa64c"/><use x="28.691" xlink:href="#a" y="96.668"/><use x="34.385" xlink:href="#d" y="98.162"/><path d="m42.242 123.617a8.47 8.47 0 0 0 -8.469-8.469 8.468 8.468 0 0 0 -8.468 8.47 8.465 8.465 0 0 0 8.468 8.468 8.468 8.468 0 0 0 8.47-8.469zm0 0" fill="#ffa64c"/><use x="28.691" xlink:href="#a" y="125.015"/><use x="34.385" xlink:href="#e" y="126.509"/><path d="m42.242 151.965a8.47 8.47 0 0 0 -8.469-8.469 8.468 8.468 0 0 0 -8.468 8.469 8.468 8.468 0 0 0 8.468 8.469 8.47 8.47 0 0 0 8.47-8.47zm0 0" fill="#ffa64c"/><use x="28.691" xlink:href="#a" y="153.361"/><use x="34.385" xlink:href="#f" y="154.855"/><path d="m42.242 180.313a8.47 8.47 0 0 0 -8.469-8.47 8.468 8.468 0 0 0 -8.468 8.47 8.468 8.468 0 0 0 8.468 8.468 8.47 8.47 0 0 0 8.47-8.469zm0 0" fill="#ffa64c"/><use x="28.691" xlink:href="#a" y="181.707"/><use x="34.385" xlink:href="#g" y="183.202"/><path d="m42.242 208.66a8.468 8.468 0 0 0 -8.469-8.469 8.466 8.466 0 0 0 -8.468 8.47 8.468 8.468 0 0 0 8.468 8.468 8.47 8.47 0 0 0 8.47-8.469zm0 0" fill="#ffa64c"/><use x="28.691" xlink:href="#a" y="210.054"/><use x="34.385" xlink:href="#h" y="211.548"/><g clip-path="url(#z)"><path d="m42.242 237.008a8.469 8.469 0 1 0 -16.938 0 8.465 8.465 0 0 0 8.47 8.465c4.675 0 8.468-3.79 8.468-8.465zm0 0" fill="#ffa64c"/></g><use x="28.691" xlink:href="#a" y="238.4"/><use x="34.385" xlink:href="#i" y="239.895"/><g><use x="7.953" xlink:href="#j" y="16.106"/><use x="11.55" xlink:href="#k" y="16.106"/><use x="17.086" xlink:href="#l" y="16.106"/><use x="22.621" xlink:href="#m" y="16.106"/><use x="28.156" xlink:href="#n" y="16.106"/></g><g><use x="35.348" xlink:href="#o" y="16.106"/><use x="41.575" xlink:href="#p" y="16.106"/></g><use x="46.277" xlink:href="#q" y="16.106"/><g><use x="51.266" xlink:href="#r" y="16.106"/><use x="55.694" xlink:href="#s" y="16.106"/></g><path d="m113.105 81.098c0-4.676-3.789-8.47-8.464-8.47a8.468 8.468 0 0 0 -8.47 8.47 8.468 8.468 0 1 0 16.934 0zm0 28.347c0-4.675-3.789-8.468-8.464-8.468a8.468 8.468 0 0 0 -8.47 8.468 8.468 8.468 0 1 0 16.934 0zm0 28.348a8.464 8.464 0 0 0 -8.464-8.469 8.466 8.466 0 0 0 -8.47 8.469 8.468 8.468 0 1 0 16.934 0zm0 28.347a8.464 8.464 0 0 0 -8.464-8.468 8.466 8.466 0 0 0 -8.47 8.469 8.465 8.465 0 0 0 8.47 8.464 8.464 8.464 0 0 0 8.464-8.464zm0 28.344c0-4.675-3.789-8.468-8.464-8.468a8.468 8.468 0 0 0 -8.47 8.468 8.468 8.468 0 1 0 16.934 0zm0 0" fill="#99f"/><g fill="none" stroke="#8c8c8c" stroke-miterlimit="10"><path d="m7.431-29.368 54.759-32.852" stroke-width=".3985" transform="matrix(1 0 0 -1 33.772 13.671)"/><path d="m-1.195 1.592c.098-.597 1.195-1.492 1.492-1.591-.295-.101-1.393-.996-1.494-1.594" stroke-linecap="round" stroke-linejoin="round" stroke-width=".31879" transform="matrix(.85747 .51448 .51448 -.85747 95.96 75.89)"/><path d="m6.13-31.036 57.578-57.582" stroke-width=".3985" transform="matrix(1 0 0 -1 33.772 13.671)"/><path d="m-1.196 1.592c.1-.597 1.196-1.494 1.496-1.594-.3-.1-1.394-.994-1.496-1.594" stroke-linecap="round" stroke-linejoin="round" stroke-width=".31879" transform="matrix(.70710678 .70710678 .70710678 -.70710678 97.482442 102.288566)"/><path d="m5.037-31.958 59.949-83.926" stroke-width=".3985" transform="matrix(1 0 0 -1 33.772 13.671)"/><path d="m-1.195 1.595c.1-.6 1.193-1.496 1.493-1.595-.298-.1-1.394-.996-1.493-1.592" stroke-linecap="round" stroke-linejoin="round" stroke-width=".31879" transform="matrix(.58119 .81369 .81369 -.58119 98.756 129.555)"/><path d="m4.208-32.485 61.743-111.133" stroke-width=".3985" transform="matrix(1 0 0 -1 33.772 13.671)"/><path d="m-1.194 1.592c.098-.595 1.194-1.494 1.492-1.592-.296-.1-1.393-.996-1.493-1.594" stroke-linecap="round" stroke-linejoin="round" stroke-width=".31879" transform="matrix(.48564897 .87415392 .87415392 -.48564897 99.724313 157.289748)"/><path d="m3.587-32.798 63.09-138.8" stroke-width=".3985" transform="matrix(1 0 0 -1 33.772 13.671)"/><path d="m-1.196 1.593c.098-.598 1.197-1.492 1.496-1.593-.3-.1-1.393-.998-1.494-1.596" stroke-linecap="round" stroke-linejoin="round" stroke-width=".31879" transform="matrix(.41377 .91031 .91031 -.41377 100.45 185.271)"/><path d="m8.498-54.954 52.445-10.488" stroke-width=".3985" transform="matrix(1 0 0 -1 33.772 13.671)"/><path d="m-1.194 1.594c.1-.598 1.195-1.494 1.494-1.594-.3-.1-1.394-.996-1.494-1.593" stroke-linecap="round" stroke-linejoin="round" stroke-width=".31879" transform="matrix(.98055 .1961 .1961 -.98055 94.714 79.113)"/><path d="m7.431-57.712 54.759-32.855" stroke-width=".3985" transform="matrix(1 0 0 -1 33.772 13.671)"/><path d="m-1.197 1.595c.1-.6 1.198-1.495 1.495-1.595-.296-.1-1.394-.996-1.495-1.594" stroke-linecap="round" stroke-linejoin="round" stroke-width=".31879" transform="matrix(.85747 .51448 .51448 -.85747 95.96 104.237)"/><path d="m6.13-59.384 57.578-57.578" stroke-width=".3985" transform="matrix(1 0 0 -1 33.772 13.671)"/><path d="m-1.198 1.594c.103-.6 1.196-1.495 1.495-1.594-.299-.1-1.392-.994-1.495-1.594" stroke-linecap="round" stroke-linejoin="round" stroke-width=".31879" transform="matrix(.70710678 .70710678 .70710678 -.70710678 97.482754 130.635814)"/><path d="m5.037-60.306 59.949-83.925" stroke-width=".3985" transform="matrix(1 0 0 -1 33.772 13.671)"/><path d="m-1.194 1.594c.097-.597 1.193-1.494 1.492-1.594-.297-.1-1.393-.997-1.493-1.593" stroke-linecap="round" stroke-linejoin="round" stroke-width=".31879" transform="matrix(.58119 .81369 .81369 -.58119 98.756 157.902)"/><path d="m4.208-60.829 61.743-111.137" stroke-width=".3985" transform="matrix(1 0 0 -1 33.772 13.671)"/><path d="m-1.197 1.594c.101-.597 1.197-1.497 1.495-1.595-.3-.097-1.393-.996-1.492-1.593" stroke-linecap="round" stroke-linejoin="round" stroke-width=".31879" transform="matrix(.48564897 .87415392 .87415392 -.48564897 99.723495 185.637138)"/><path d="m8.498-79.9 52.445 10.49" stroke-width=".3985" transform="matrix(1 0 0 -1 33.772 13.671)"/><path d="m-1.194 1.594c.1-.597 1.195-1.493 1.494-1.593-.299-.101-1.394-.996-1.494-1.594" stroke-linecap="round" stroke-linejoin="round" stroke-width=".31879" transform="matrix(.98055 -.1961 -.1961 -.98055 94.714 83.083)"/><path d="m8.498-83.302 52.445-10.488" stroke-width=".3985" transform="matrix(1 0 0 -1 33.772 13.671)"/><path d="m-1.194 1.593c.1-.598 1.195-1.494 1.494-1.594-.299-.099-1.394-.996-1.494-1.593" stroke-linecap="round" stroke-linejoin="round" stroke-width=".31879" transform="matrix(.98055 .1961 .1961 -.98055 94.714 107.46)"/><path d="m7.431-86.06 54.758-32.855" stroke-width=".3985" transform="matrix(1 0 0 -1 33.772 13.671)"/><path d="m-1.196 1.594c.098-.597 1.196-1.494 1.494-1.594-.297-.097-1.393-.996-1.494-1.595" stroke-linecap="round" stroke-linejoin="round" stroke-width=".31879" transform="matrix(.85747 .51448 .51448 -.85747 95.96 132.584)"/><path d="m6.13-87.731 57.578-57.578" stroke-width=".3985" transform="matrix(1 0 0 -1 33.772 13.671)"/><path d="m-1.197 1.593c.1-.596 1.196-1.493 1.494-1.593-.297-.1-1.392-.995-1.494-1.594" stroke-linecap="round" stroke-linejoin="round" stroke-width=".31879" transform="matrix(.70710678 .70710678 .70710678 -.70710678 97.482358 158.982769)"/><path d="m5.037-88.653 59.949-83.926" stroke-width=".3985" transform="matrix(1 0 0 -1 33.772 13.671)"/><path d="m-1.193 1.594c.096-.597 1.193-1.496 1.492-1.594-.297-.1-1.394-.997-1.493-1.593" stroke-linecap="round" stroke-linejoin="round" stroke-width=".31879" transform="matrix(.58119 .81369 .81369 -.58119 98.756 186.249)"/><path d="m7.431-105.49 54.759 32.857" stroke-width=".3985" transform="matrix(1 0 0 -1 33.772 13.671)"/><path d="m-1.197 1.594c.101-.598 1.2-1.494 1.495-1.594-.298-.1-1.394-.995-1.495-1.595" stroke-linecap="round" stroke-linejoin="round" stroke-width=".31879" transform="matrix(.85747 -.51448 -.51448 -.85747 95.96 86.306)"/><path d="m8.498-108.247 52.445 10.488" stroke-width=".3985" transform="matrix(1 0 0 -1 33.772 13.671)"/><path d="m-1.194 1.594c.1-.598 1.194-1.494 1.494-1.594-.3-.1-1.394-.996-1.494-1.593" stroke-linecap="round" stroke-linejoin="round" stroke-width=".31879" transform="matrix(.98055 -.1961 -.1961 -.98055 94.714 111.43)"/><path d="m8.498-111.645 52.445-10.493" stroke-width=".3985" transform="matrix(1 0 0 -1 33.772 13.671)"/><path d="m-1.195 1.596c.1-.598 1.196-1.498 1.495-1.597-.299-.1-1.394-.996-1.494-1.594" stroke-linecap="round" stroke-linejoin="round" stroke-width=".31879" transform="matrix(.98055 .1961 .1961 -.98055 94.714 135.807)"/><path d="m7.431-114.407 54.759-32.853" stroke-width=".3985" transform="matrix(1 0 0 -1 33.772 13.671)"/><path d="m-1.196 1.594c.098-.597 1.196-1.492 1.495-1.596-.299-.096-1.394-.995-1.495-1.593" stroke-linecap="round" stroke-linejoin="round" stroke-width=".31879" transform="matrix(.85747 .51448 .51448 -.85747 95.96 160.931)"/><path d="m6.13-116.075 57.578-57.582" stroke-width=".3985" transform="matrix(1 0 0 -1 33.772 13.671)"/><path d="m-1.197 1.593c.1-.597 1.197-1.494 1.495-1.594-.299-.1-1.393-.994-1.495-1.594" stroke-linecap="round" stroke-linejoin="round" stroke-width=".31879" transform="matrix(.70710678 .70710678 .70710678 -.70710678 97.482669 187.330018)"/><path d="m6.13-132.165 57.578 57.582" stroke-width=".3985" transform="matrix(1 0 0 -1 33.772 13.671)"/><path d="m-1.196 1.596c.103-.6 1.196-1.496 1.496-1.594-.3-.1-1.396-.997-1.496-1.594" stroke-linecap="round" stroke-linejoin="round" stroke-width=".31879" transform="matrix(.70710678 -.70710678 -.70710678 -.70710678 97.482749 88.256174)"/><path d="m7.431-133.837 54.759 32.857" stroke-width=".3985" transform="matrix(1 0 0 -1 33.772 13.671)"/><path d="m-1.197 1.594c.101-.599 1.2-1.494 1.495-1.594-.298-.1-1.395-.995-1.495-1.595" stroke-linecap="round" stroke-linejoin="round" stroke-width=".31879" transform="matrix(.85746501 -.51448396 -.51448396 -.85746501 95.960907 114.653417)"/><path d="m8.498-136.595 52.445 10.489" stroke-width=".3985" transform="matrix(1 0 0 -1 33.772 13.671)"/><path d="m-1.194 1.593c.1-.598 1.194-1.494 1.494-1.594-.3-.099-1.395-.995-1.494-1.593" stroke-linecap="round" stroke-linejoin="round" stroke-width=".31879" transform="matrix(.98055 -.1961 -.1961 -.98055 94.714 139.777)"/><path d="m8.498-139.993 52.445-10.488" stroke-width=".3985" transform="matrix(1 0 0 -1 33.772 13.671)"/><path d="m-1.194 1.595c.1-.597 1.194-1.494 1.493-1.593-.298-.1-1.394-.996-1.493-1.597" stroke-linecap="round" stroke-linejoin="round" stroke-width=".31879" transform="matrix(.98055 .1961 .1961 -.98055 94.714 164.154)"/><path d="m7.431-142.755 54.758-32.851" stroke-width=".3985" transform="matrix(1 0 0 -1 33.772 13.671)"/><path d="m-1.196 1.593c.099-.597 1.196-1.492 1.496-1.595-.3-.098-1.395-.996-1.496-1.594" stroke-linecap="round" stroke-linejoin="round" stroke-width=".31879" transform="matrix(.85747 .51448 .51448 -.85747 95.96 189.278)"/><path d="m5.037-159.587 59.949 83.922" stroke-width=".3985" transform="matrix(1 0 0 -1 33.772 13.671)"/><path d="m-1.193 1.594c.096-.599 1.193-1.495 1.493-1.593-.3-.099-1.396-.997-1.495-1.596" stroke-linecap="round" stroke-linejoin="round" stroke-width=".31879" transform="matrix(.58122857 -.81374035 -.81374035 -.58122857 98.760154 89.338886)"/><path d="m6.13-160.513 57.578 57.582" stroke-width=".3985" transform="matrix(1 0 0 -1 33.772 13.671)"/><path d="m-1.197 1.595c.103-.6 1.197-1.495 1.495-1.595-.298-.099-1.395-.996-1.495-1.593" stroke-linecap="round" stroke-linejoin="round" stroke-width=".31879" transform="matrix(.70710678 -.70710678 -.70710678 -.70710678 97.482437 116.603422)"/><path d="m7.431-162.18 54.759 32.85" stroke-width=".3985" transform="matrix(1 0 0 -1 33.772 13.671)"/><path d="m-1.196 1.596c.101-.599 1.197-1.498 1.496-1.594-.3-.103-1.397-.998-1.496-1.595" stroke-linecap="round" stroke-linejoin="round" stroke-width=".31879" transform="matrix(.85747 -.51448 -.51448 -.85747 95.96 143)"/><path d="m8.498-164.942 52.445 10.488" stroke-width=".3985" transform="matrix(1 0 0 -1 33.772 13.671)"/><path d="m-1.194 1.592c.1-.597 1.194-1.494 1.494-1.592-.3-.1-1.395-.996-1.494-1.594" stroke-linecap="round" stroke-linejoin="round" stroke-width=".31879" transform="matrix(.98055 -.1961 -.1961 -.98055 94.714 168.124)"/><path d="m8.498-168.34 52.445-10.489" stroke-width=".3985" transform="matrix(1 0 0 -1 33.772 13.671)"/><path d="m-1.194 1.594c.1-.598 1.194-1.494 1.494-1.594-.3-.1-1.395-.996-1.494-1.593" stroke-linecap="round" stroke-linejoin="round" stroke-width=".31879" transform="matrix(.98055 .1961 .1961 -.98055 94.714 192.5)"/><path d="m4.208-187.411 61.743 111.137" stroke-width=".3985" transform="matrix(1 0 0 -1 33.772 13.671)"/><path d="m-1.196 1.593c.099-.597 1.196-1.494 1.496-1.591-.302-.1-1.394-.998-1.496-1.595" stroke-linecap="round" stroke-linejoin="round" stroke-width=".31879" transform="matrix(.48564897 -.87415392 -.87415392 -.48564897 99.723316 89.946558)"/><path d="m5.037-187.934 59.949 83.925" stroke-width=".3985" transform="matrix(1 0 0 -1 33.772 13.671)"/><path d="m-1.194 1.593c.1-.596 1.193-1.495 1.493-1.593-.299-.098-1.395-.997-1.495-1.596" stroke-linecap="round" stroke-linejoin="round" stroke-width=".31879" transform="matrix(.58122857 -.81374035 -.81374035 -.58122857 98.760838 117.688217)"/><path d="m6.13-188.86 57.578 57.582" stroke-width=".3985" transform="matrix(1 0 0 -1 33.772 13.671)"/><path d="m-1.197 1.594c.102-.599 1.196-1.494 1.494-1.593-.297-.101-1.395-.997-1.494-1.594" stroke-linecap="round" stroke-linejoin="round" stroke-width=".31879" transform="matrix(.70710678 -.70710678 -.70710678 -.70710678 97.482833 144.950377)"/><path d="m7.431-190.528 54.758 32.851" stroke-width=".3985" transform="matrix(1 0 0 -1 33.772 13.671)"/><path d="m-1.196 1.595c.1-.598 1.196-1.497 1.494-1.594-.296-.1-1.396-.998-1.494-1.595" stroke-linecap="round" stroke-linejoin="round" stroke-width=".31879" transform="matrix(.85746501 -.51448396 -.51448396 -.85746501 95.960704 171.34698)"/><path d="m8.498-193.29 52.445 10.492" stroke-width=".3985" transform="matrix(1 0 0 -1 33.772 13.671)"/><path d="m-1.194 1.595c.1-.598 1.195-1.495 1.494-1.595-.299-.1-1.394-.996-1.494-1.593" stroke-linecap="round" stroke-linejoin="round" stroke-width=".31879" transform="matrix(.98055 -.1961 -.1961 -.98055 94.714 196.47)"/><path d="m3.587-215.442 63.09 138.8" stroke-width=".3985" transform="matrix(1 0 0 -1 33.772 13.671)"/><path d="m-1.197 1.595c.1-.598 1.198-1.495 1.497-1.595-.301-.103-1.397-.996-1.494-1.593" stroke-linecap="round" stroke-linejoin="round" stroke-width=".31879" transform="matrix(.4137747 -.91030243 -.91030243 -.4137747 100.449446 90.311143)"/><path d="m4.208-215.759 61.743 111.137" stroke-width=".3985" transform="matrix(1 0 0 -1 33.772 13.671)"/><path d="m-1.194 1.594c.1-.597 1.194-1.496 1.494-1.593-.3-.098-1.395-.998-1.497-1.595" stroke-linecap="round" stroke-linejoin="round" stroke-width=".31879" transform="matrix(.48564897 -.87415392 -.87415392 -.48564897 99.722746 118.293589)"/><path d="m5.037-216.282 59.949 83.926" stroke-width=".3985" transform="matrix(1 0 0 -1 33.772 13.671)"/><path d="m-1.195 1.593c.1-.596 1.197-1.493 1.495-1.593-.3-.099-1.396-.997-1.493-1.594" stroke-linecap="round" stroke-linejoin="round" stroke-width=".31879" transform="matrix(.58122857 -.81374035 -.81374035 -.58122857 98.76108 146.034687)"/><path d="m6.13-217.208 57.578 57.582" stroke-width=".3985" transform="matrix(1 0 0 -1 33.772 13.671)"/><path d="m-1.197 1.594c.102-.6 1.196-1.494 1.494-1.594-.298-.1-1.392-.994-1.494-1.594" stroke-linecap="round" stroke-linejoin="round" stroke-width=".31879" transform="matrix(.70710678 -.70710678 -.70710678 -.70710678 97.482522 173.297626)"/><path d="m7.431-218.876 54.759 32.856" stroke-width=".3985" transform="matrix(1 0 0 -1 33.772 13.671)"/><path d="m-1.197 1.594c.102-.598 1.198-1.497 1.495-1.593-.297-.101-1.394-.995-1.495-1.595" stroke-linecap="round" stroke-linejoin="round" stroke-width=".31879" transform="matrix(.85746501 -.51448396 -.51448396 -.85746501 95.960816 199.694534)"/></g><path d="m183.973 109.445a8.468 8.468 0 1 0 -16.934 0 8.468 8.468 0 1 0 16.934 0zm0 28.348c0-4.68-3.79-8.469-8.465-8.469a8.466 8.466 0 0 0 -8.469 8.469 8.468 8.468 0 1 0 16.934 0zm0 28.347c0-4.68-3.79-8.468-8.465-8.468a8.466 8.466 0 0 0 -8.469 8.469 8.465 8.465 0 0 0 8.469 8.464 8.464 8.464 0 0 0 8.465-8.464zm0 0" fill="#99f"/><g><use x="161.183" xlink:href="#o" y="10.129"/><use x="167.41" xlink:href="#p" y="10.129"/><use x="172.391" xlink:href="#n" y="10.129"/><use x="176.265" xlink:href="#r" y="10.129"/><use x="180.693" xlink:href="#k" y="10.129"/></g><use x="185.949" xlink:href="#n" y="10.129"/><g><use x="145.053" xlink:href="#t" y="22.084"/><use x="152.386" xlink:href="#r" y="22.084"/><use x="156.814" xlink:href="#l" y="22.084"/><use x="162.349" xlink:href="#s" y="22.084"/><use x="166.251" xlink:href="#r" y="22.084"/><use x="170.679" xlink:href="#u" y="22.084"/><use x="174.608" xlink:href="#r" y="22.084"/><use x="179.035" xlink:href="#k" y="22.084"/></g><g><use x="184.292" xlink:href="#n" y="22.084"/><use x="188.166" xlink:href="#p" y="22.084"/><use x="193.147" xlink:href="#n" y="22.084"/><use x="197.022" xlink:href="#v" y="22.084"/><use x="199.79" xlink:href="#w" y="22.084"/><use x="204.771" xlink:href="#k" y="22.084"/></g><path d="m78.915-70.645 53.422-21.371" fill="none" stroke="#8c8c8c" stroke-miterlimit="10" stroke-width=".3985" transform="matrix(1 0 0 -1 33.772 13.671)"/><path d="m-1.196 1.594c.101-.599 1.196-1.494 1.496-1.594-.301-.099-1.398-.996-1.495-1.595" style="fill:none;stroke-width:.31879;stroke-linecap:round;stroke-linejoin:round;stroke:#8c8c8c;stroke-miterlimit:10" transform="matrix(.92844 .37137 .37137 -.92844 166.108 105.686)"/><path d="m77.634-72.84 56.196-44.958" fill="none" stroke="#8c8c8c" stroke-miterlimit="10" stroke-width=".3985" transform="matrix(1 0 0 -1 33.772 13.671)"/><path d="m-1.196 1.595c.1-.6 1.196-1.495 1.496-1.595-.3-.1-1.395-.996-1.495-1.596" style="fill:none;stroke-width:.31879;stroke-linecap:round;stroke-linejoin:round;stroke:#8c8c8c;stroke-miterlimit:10" transform="matrix(.78082 .62466 .62466 -.78082 167.602 131.469)"/><path d="m76.415-74.087 58.84-70.605" fill="none" stroke="#8c8c8c" stroke-miterlimit="10" stroke-width=".3985" transform="matrix(1 0 0 -1 33.772 13.671)"/><path d="m-1.195 1.592c.099-.595 1.196-1.494 1.496-1.592-.302-.1-1.396-.997-1.497-1.595" style="fill:none;stroke-width:.31879;stroke-linecap:round;stroke-linejoin:round;stroke:#8c8c8c;stroke-miterlimit:10" transform="matrix(.64015 .76819 .76819 -.64015 169.026 158.363)"/><path d="m79.537-95.774h52.074" fill="none" stroke="#8c8c8c" stroke-miterlimit="10" stroke-width=".3985" transform="matrix(1 0 0 -1 33.772 13.671)"/><path d="m-1.196 1.593c.101-.597 1.195-1.492 1.496-1.593-.301-.098-1.395-.996-1.496-1.594" style="fill:none;stroke-width:.31879;stroke-linecap:round;stroke-linejoin:round;stroke:#8c8c8c;stroke-miterlimit:10" transform="matrix(1 0 0 -1 165.384 109.445)"/><path d="m78.915-98.993 53.422-21.367" fill="none" stroke="#8c8c8c" stroke-miterlimit="10" stroke-width=".3985" transform="matrix(1 0 0 -1 33.772 13.671)"/><path d="m-1.196 1.594c.1-.596 1.196-1.495 1.496-1.594-.3-.1-1.398-.997-1.495-1.595" style="fill:none;stroke-width:.31879;stroke-linecap:round;stroke-linejoin:round;stroke:#8c8c8c;stroke-miterlimit:10" transform="matrix(.92844 .37137 .37137 -.92844 166.108 134.033)"/><path d="m77.634-101.188 56.196-44.957" fill="none" stroke="#8c8c8c" stroke-miterlimit="10" stroke-width=".3985" transform="matrix(1 0 0 -1 33.772 13.671)"/><path d="m-1.196 1.594c.1-.6 1.196-1.494 1.496-1.594-.3-.1-1.395-.996-1.497-1.594" style="fill:none;stroke-width:.31879;stroke-linecap:round;stroke-linejoin:round;stroke:#8c8c8c;stroke-miterlimit:10" transform="matrix(.78082 .62466 .62466 -.78082 167.602 159.816)"/><path d="m78.915-120.903 53.422 21.37" fill="none" stroke="#8c8c8c" stroke-miterlimit="10" stroke-width=".3985" transform="matrix(1 0 0 -1 33.772 13.671)"/><path d="m-1.195 1.594c.097-.598 1.194-1.496 1.495-1.595-.3-.099-1.395-.995-1.496-1.594" style="fill:none;stroke-width:.31879;stroke-linecap:round;stroke-linejoin:round;stroke:#8c8c8c;stroke-miterlimit:10" transform="matrix(.92844221 -.37136919 -.37136919 -.92844221 166.107599 113.203968)"/><path d="m79.537-124.122h52.074" fill="none" stroke="#8c8c8c" stroke-miterlimit="10" stroke-width=".3985" transform="matrix(1 0 0 -1 33.772 13.671)"/><path d="m-1.196 1.593c.101-.598 1.195-1.493 1.496-1.594-.301-.098-1.395-.996-1.496-1.594" style="fill:none;stroke-width:.31879;stroke-linecap:round;stroke-linejoin:round;stroke:#8c8c8c;stroke-miterlimit:10" transform="matrix(1 0 0 -1 165.384 137.792)"/><path d="m78.915-127.34 53.422-21.368" fill="none" stroke="#8c8c8c" stroke-miterlimit="10" stroke-width=".3985" transform="matrix(1 0 0 -1 33.772 13.671)"/><path d="m-1.195 1.593c.1-.595 1.195-1.495 1.495-1.593-.3-.1-1.397-.997-1.496-1.592" style="fill:none;stroke-width:.31879;stroke-linecap:round;stroke-linejoin:round;stroke:#8c8c8c;stroke-miterlimit:10" transform="matrix(.92844 .37137 .37137 -.92844 166.108 162.38)"/><path d="m77.634-147.052 56.196 44.953" fill="none" stroke="#8c8c8c" stroke-miterlimit="10" stroke-width=".3985" transform="matrix(1 0 0 -1 33.772 13.671)"/><path d="m-1.196 1.595c.1-.6 1.196-1.495 1.496-1.595-.3-.1-1.396-.994-1.494-1.592" style="fill:none;stroke-width:.31879;stroke-linecap:round;stroke-linejoin:round;stroke:#8c8c8c;stroke-miterlimit:10" transform="matrix(.78081987 -.62466018 -.62466018 -.78081987 167.602147 115.768189)"/><path d="m78.915-149.25 53.422 21.37" fill="none" stroke="#8c8c8c" stroke-miterlimit="10" stroke-width=".3985" transform="matrix(1 0 0 -1 33.772 13.671)"/><path d="m-1.196 1.593c.1-.593 1.196-1.492 1.496-1.595-.3-.098-1.395-.994-1.496-1.593" style="fill:none;stroke-width:.31879;stroke-linecap:round;stroke-linejoin:round;stroke:#8c8c8c;stroke-miterlimit:10" transform="matrix(.92844221 -.37136919 -.37136919 -.92844221 166.107222 141.550876)"/><path d="m79.537-152.47h52.074" fill="none" stroke="#8c8c8c" stroke-miterlimit="10" stroke-width=".3985" transform="matrix(1 0 0 -1 33.772 13.671)"/><path d="m-1.196 1.592c.101-.598 1.195-1.492 1.496-1.594-.301-.097-1.395-.996-1.496-1.593" style="fill:none;stroke-width:.31879;stroke-linecap:round;stroke-linejoin:round;stroke:#8c8c8c;stroke-miterlimit:10" transform="matrix(1 0 0 -1 165.384 166.139)"/><path d="m76.415-174.157 58.84 70.605" fill="none" stroke="#8c8c8c" stroke-miterlimit="10" stroke-width=".3985" transform="matrix(1 0 0 -1 33.772 13.671)"/><path d="m-1.195 1.596c.098-.6 1.196-1.496 1.495-1.598-.3-.097-1.395-.993-1.496-1.592" style="fill:none;stroke-width:.31879;stroke-linecap:round;stroke-linejoin:round;stroke:#8c8c8c;stroke-miterlimit:10" transform="matrix(.64014473 -.76818925 -.76818925 -.64014473 169.025725 117.220458)"/><path d="m77.634-175.4 56.196 44.958" fill="none" stroke="#8c8c8c" stroke-miterlimit="10" stroke-width=".3985" transform="matrix(1 0 0 -1 33.772 13.671)"/><path d="m-1.196 1.595c.1-.6 1.194-1.496 1.494-1.596-.297-.097-1.395-.995-1.493-1.592" style="fill:none;stroke-width:.31879;stroke-linecap:round;stroke-linejoin:round;stroke:#8c8c8c;stroke-miterlimit:10" transform="matrix(.78081987 -.62466018 -.62466018 -.78081987 167.602201 144.114642)"/><path d="m78.915-177.595 53.422 21.368" fill="none" stroke="#8c8c8c" stroke-miterlimit="10" stroke-width=".3985" transform="matrix(1 0 0 -1 33.772 13.671)"/><path d="m-1.196 1.593c.099-.595 1.196-1.493 1.497-1.593-.302-.1-1.397-.997-1.496-1.592" style="fill:none;stroke-width:.31879;stroke-linecap:round;stroke-linejoin:round;stroke:#8c8c8c;stroke-miterlimit:10" transform="matrix(.92844221 -.37136919 -.37136919 -.92844221 166.107587 169.897641)"/><path d="m254.84 81.098a8.468 8.468 0 1 0 -16.934 0 8.468 8.468 0 1 0 16.934 0zm0 28.347a8.468 8.468 0 1 0 -16.934 0 8.468 8.468 0 1 0 16.934 0zm0 28.348c0-4.68-3.79-8.469-8.469-8.469a8.465 8.465 0 0 0 -8.465 8.469 8.468 8.468 0 1 0 16.934 0zm0 28.347c0-4.68-3.79-8.468-8.469-8.468a8.465 8.465 0 0 0 -8.465 8.469 8.464 8.464 0 0 0 8.465 8.464 8.464 8.464 0 0 0 8.469-8.464zm0 28.344a8.468 8.468 0 1 0 -16.934 0 8.468 8.468 0 1 0 16.934 0zm0 0" fill="#99f"/><path d="m149.783-92.556 53.422 21.372" fill="none" stroke="#8c8c8c" stroke-miterlimit="10" stroke-width=".3985" transform="matrix(1 0 0 -1 33.772 13.671)"/><path d="m-1.195 1.595c.097-.599 1.195-1.496 1.495-1.595-.3-.1-1.395-.995-1.496-1.594" style="fill:none;stroke-width:.31879;stroke-linecap:round;stroke-linejoin:round;stroke:#8c8c8c;stroke-miterlimit:10" transform="matrix(.92844221 -.37136919 -.37136919 -.92844221 236.974139 84.857252)"/><path d="m150.404-95.774h52.074" fill="none" stroke="#8c8c8c" stroke-miterlimit="10" stroke-width=".3985" transform="matrix(1 0 0 -1 33.772 13.671)"/><path d="m-1.196 1.593c.101-.597 1.195-1.492 1.496-1.593-.301-.098-1.395-.996-1.496-1.594" style="fill:none;stroke-width:.31879;stroke-linecap:round;stroke-linejoin:round;stroke:#8c8c8c;stroke-miterlimit:10" transform="matrix(1 0 0 -1 236.251 109.445)"/><path d="m149.783-98.993 53.422-21.367" fill="none" stroke="#8c8c8c" stroke-miterlimit="10" stroke-width=".3985" transform="matrix(1 0 0 -1 33.772 13.671)"/><path d="m-1.195 1.594c.099-.596 1.195-1.495 1.495-1.594-.3-.1-1.397-.997-1.495-1.595" style="fill:none;stroke-width:.31879;stroke-linecap:round;stroke-linejoin:round;stroke:#8c8c8c;stroke-miterlimit:10" transform="matrix(.92844 .37137 .37137 -.92844 236.975 134.033)"/><path d="m148.501-101.188 56.196-44.957" fill="none" stroke="#8c8c8c" stroke-miterlimit="10" stroke-width=".3985" transform="matrix(1 0 0 -1 33.772 13.671)"/><path d="m-1.197 1.594c.104-.598 1.197-1.495 1.497-1.595-.3-.1-1.394-.996-1.497-1.593" style="fill:none;stroke-width:.31879;stroke-linecap:round;stroke-linejoin:round;stroke:#8c8c8c;stroke-miterlimit:10" transform="matrix(.78082 .62466 .62466 -.78082 238.47 159.816)"/><path d="m147.283-102.43 58.84-70.61" fill="none" stroke="#8c8c8c" stroke-miterlimit="10" stroke-width=".3985" transform="matrix(1 0 0 -1 33.772 13.671)"/><path d="m-1.197 1.595c.101-.599 1.195-1.495 1.497-1.595-.3-.1-1.395-.998-1.496-1.595" style="fill:none;stroke-width:.31879;stroke-linecap:round;stroke-linejoin:round;stroke:#8c8c8c;stroke-miterlimit:10" transform="matrix(.64015 .76819 .76819 -.64015 239.893 186.71)"/><path d="m148.501-118.708 56.196 44.957" fill="none" stroke="#8c8c8c" stroke-miterlimit="10" stroke-width=".3985" transform="matrix(1 0 0 -1 33.772 13.671)"/><path d="m-1.196 1.596c.1-.6 1.195-1.496 1.495-1.596-.3-.1-1.393-.997-1.496-1.595" style="fill:none;stroke-width:.31879;stroke-linecap:round;stroke-linejoin:round;stroke:#8c8c8c;stroke-miterlimit:10" transform="matrix(.78081987 -.62466018 -.62466018 -.78081987 238.469786 87.421054)"/><path d="m149.783-120.903 53.422 21.37" fill="none" stroke="#8c8c8c" stroke-miterlimit="10" stroke-width=".3985" transform="matrix(1 0 0 -1 33.772 13.671)"/><path d="m-1.195 1.594c.097-.599 1.194-1.496 1.495-1.595-.3-.099-1.395-.995-1.496-1.594" style="fill:none;stroke-width:.31879;stroke-linecap:round;stroke-linejoin:round;stroke:#8c8c8c;stroke-miterlimit:10" transform="matrix(.92844221 -.37136919 -.37136919 -.92844221 236.974505 113.204018)"/><path d="m150.404-124.122h52.074" fill="none" stroke="#8c8c8c" stroke-miterlimit="10" stroke-width=".3985" transform="matrix(1 0 0 -1 33.772 13.671)"/><path d="m-1.196 1.593c.101-.598 1.195-1.493 1.496-1.594-.301-.098-1.395-.996-1.496-1.594" style="fill:none;stroke-width:.31879;stroke-linecap:round;stroke-linejoin:round;stroke:#8c8c8c;stroke-miterlimit:10" transform="matrix(1 0 0 -1 236.251 137.792)"/><path d="m149.783-127.34 53.422-21.368" fill="none" stroke="#8c8c8c" stroke-miterlimit="10" stroke-width=".3985" transform="matrix(1 0 0 -1 33.772 13.671)"/><path d="m-1.195 1.593c.1-.595 1.195-1.495 1.495-1.593-.3-.1-1.397-.997-1.496-1.592" style="fill:none;stroke-width:.31879;stroke-linecap:round;stroke-linejoin:round;stroke:#8c8c8c;stroke-miterlimit:10" transform="matrix(.92844 .37137 .37137 -.92844 236.975 162.38)"/><path d="m148.501-129.536 56.196-44.953" fill="none" stroke="#8c8c8c" stroke-miterlimit="10" stroke-width=".3985" transform="matrix(1 0 0 -1 33.772 13.671)"/><path d="m-1.195 1.592c.1-.594 1.195-1.494 1.493-1.591-.3-.1-1.395-.996-1.495-1.596" style="fill:none;stroke-width:.31879;stroke-linecap:round;stroke-linejoin:round;stroke:#8c8c8c;stroke-miterlimit:10" transform="matrix(.78082 .62466 .62466 -.78082 238.47 188.162)"/><path d="m147.283-145.81 58.84 70.606" fill="none" stroke="#8c8c8c" stroke-miterlimit="10" stroke-width=".3985" transform="matrix(1 0 0 -1 33.772 13.671)"/><path d="m-1.197 1.594c.1-.598 1.197-1.494 1.497-1.595-.3-.099-1.394-.994-1.496-1.592" style="fill:none;stroke-width:.31879;stroke-linecap:round;stroke-linejoin:round;stroke:#8c8c8c;stroke-miterlimit:10" transform="matrix(.64014473 -.76818925 -.76818925 -.64014473 239.89267 88.873354)"/><path d="m148.501-147.052 56.196 44.953" fill="none" stroke="#8c8c8c" stroke-miterlimit="10" stroke-width=".3985" transform="matrix(1 0 0 -1 33.772 13.671)"/><path d="m-1.196 1.596c.1-.6 1.194-1.496 1.494-1.596-.3-.1-1.393-.997-1.493-1.592" style="fill:none;stroke-width:.31879;stroke-linecap:round;stroke-linejoin:round;stroke:#8c8c8c;stroke-miterlimit:10" transform="matrix(.78081987 -.62466018 -.62466018 -.78081987 238.470059 115.768132)"/><path d="m149.783-149.25 53.422 21.37" fill="none" stroke="#8c8c8c" stroke-miterlimit="10" stroke-width=".3985" transform="matrix(1 0 0 -1 33.772 13.671)"/><path d="m-1.195 1.593c.098-.595 1.195-1.492 1.495-1.595-.3-.098-1.395-.994-1.496-1.594" style="fill:none;stroke-width:.31879;stroke-linecap:round;stroke-linejoin:round;stroke:#8c8c8c;stroke-miterlimit:10" transform="matrix(.92844221 -.37136919 -.37136919 -.92844221 236.974427 141.550483)"/><path d="m150.404-152.47h52.074" fill="none" stroke="#8c8c8c" stroke-miterlimit="10" stroke-width=".3985" transform="matrix(1 0 0 -1 33.772 13.671)"/><path d="m-1.196 1.592c.101-.598 1.195-1.492 1.496-1.594-.301-.097-1.395-.996-1.496-1.593" style="fill:none;stroke-width:.31879;stroke-linecap:round;stroke-linejoin:round;stroke:#8c8c8c;stroke-miterlimit:10" transform="matrix(1 0 0 -1 236.251 166.139)"/><path d="m149.783-155.684 53.422-21.372" fill="none" stroke="#8c8c8c" stroke-miterlimit="10" stroke-width=".3985" transform="matrix(1 0 0 -1 33.772 13.671)"/><path d="m-1.196 1.595c.1-.599 1.195-1.495 1.496-1.593-.3-.103-1.398-.997-1.495-1.596" style="fill:none;stroke-width:.31879;stroke-linecap:round;stroke-linejoin:round;stroke:#8c8c8c;stroke-miterlimit:10" transform="matrix(.92844 .37137 .37137 -.92844 236.975 190.726)"/><path d="m325.71 38.578a8.47 8.47 0 0 0 -8.472-8.469c-4.675 0-8.465 3.793-8.465 8.47 0 4.675 3.79 8.468 8.465 8.468 4.68 0 8.473-3.793 8.473-8.469zm0 0" fill="#009"/><use fill="#fff" x="312.788" xlink:href="#x" y="41.29"/><use fill="#fff" x="312.155" xlink:href="#a" y="41.29"/><use fill="#fff" x="317.849" xlink:href="#b" y="42.784"/><path d="m325.71 66.926a8.469 8.469 0 0 0 -8.472-8.469 8.465 8.465 0 0 0 -8.465 8.469c0 4.676 3.79 8.469 8.465 8.469a8.472 8.472 0 0 0 8.473-8.47zm0 0" fill="#009"/><use fill="#fff" x="312.788" xlink:href="#x" y="69.636"/><use fill="#fff" x="312.155" xlink:href="#a" y="69.636"/><use fill="#fff" x="317.849" xlink:href="#c" y="71.131"/><path d="m325.71 95.273a8.469 8.469 0 0 0 -8.472-8.468 8.465 8.465 0 0 0 -8.465 8.468 8.464 8.464 0 0 0 8.465 8.465c4.68 0 8.473-3.789 8.473-8.465zm0 0" fill="#009"/><use fill="#fff" x="312.788" xlink:href="#x" y="97.983"/><use fill="#fff" x="312.155" xlink:href="#a" y="97.983"/><use fill="#fff" x="317.849" xlink:href="#d" y="99.477"/><path d="m325.71 123.617a8.47 8.47 0 0 0 -8.472-8.469c-4.675 0-8.465 3.793-8.465 8.47a8.465 8.465 0 0 0 8.465 8.468 8.47 8.47 0 0 0 8.473-8.469zm0 0" fill="#009"/><use fill="#fff" x="312.788" xlink:href="#x" y="126.329"/><use fill="#fff" x="312.155" xlink:href="#a" y="126.329"/><use fill="#fff" x="317.849" xlink:href="#e" y="127.823"/><path d="m325.71 151.965a8.47 8.47 0 0 0 -8.472-8.469c-4.675 0-8.465 3.793-8.465 8.469s3.79 8.469 8.465 8.469a8.472 8.472 0 0 0 8.473-8.47zm0 0" fill="#009"/><use fill="#fff" x="312.788" xlink:href="#x" y="154.675"/><use fill="#fff" x="312.155" xlink:href="#a" y="154.675"/><use fill="#fff" x="317.849" xlink:href="#f" y="156.17"/><path d="m325.71 180.313a8.472 8.472 0 0 0 -8.472-8.47c-4.675 0-8.465 3.794-8.465 8.47 0 4.675 3.79 8.468 8.465 8.468 4.68 0 8.473-3.793 8.473-8.469zm0 0" fill="#009"/><use fill="#fff" x="312.788" xlink:href="#x" y="183.022"/><use fill="#fff" x="312.155" xlink:href="#a" y="183.022"/><use fill="#fff" x="317.849" xlink:href="#g" y="184.516"/><path d="m325.71 208.66a8.469 8.469 0 0 0 -8.472-8.469 8.465 8.465 0 0 0 -8.465 8.47c0 4.675 3.79 8.468 8.465 8.468 4.68 0 8.473-3.793 8.473-8.469zm0 0" fill="#009"/><use fill="#fff" x="312.788" xlink:href="#x" y="211.368"/><use fill="#fff" x="312.155" xlink:href="#a" y="211.368"/><use fill="#fff" x="317.849" xlink:href="#h" y="212.863"/><g clip-path="url(#A)"><path d="m325.71 237.008a8.472 8.472 0 0 0 -8.472-8.473c-4.675 0-8.465 3.793-8.465 8.473a8.464 8.464 0 0 0 8.465 8.465c4.68 0 8.473-3.79 8.473-8.465zm0 0" fill="#009"/></g><use fill="#fff" x="312.788" xlink:href="#x" y="239.715"/><use fill="#fff" x="312.155" xlink:href="#a" y="239.715"/><use fill="#fff" x="317.849" xlink:href="#i" y="241.209"/><g><use x="287.404" xlink:href="#y" y="16.106"/><use x="295.153" xlink:href="#m" y="16.106"/><use x="300.688" xlink:href="#n" y="16.106"/><use x="304.563" xlink:href="#l" y="16.106"/><use x="310.098" xlink:href="#m" y="16.106"/><use x="315.633" xlink:href="#n" y="16.106"/></g><g><use x="322.825" xlink:href="#o" y="16.106"/><use x="329.052" xlink:href="#p" y="16.106"/></g><use x="333.754" xlink:href="#q" y="16.106"/><g><use x="338.743" xlink:href="#r" y="16.106"/><use x="343.171" xlink:href="#s" y="16.106"/></g><path d="m220.033-62.97 54.758 32.856" fill="none" stroke="#8c8c8c" stroke-miterlimit="10" stroke-width=".3985" transform="matrix(1 0 0 -1 33.772 13.671)"/><path d="m-1.197 1.593c.101-.598 1.196-1.492 1.495-1.593-.298-.1-1.395-.995-1.493-1.592" style="fill:none;stroke-width:.31879;stroke-linecap:round;stroke-linejoin:round;stroke:#8c8c8c;stroke-miterlimit:10" transform="matrix(.85746501 -.51448396 -.51448396 -.85746501 308.563492 43.78502)"/><path d="m221.1-65.727 52.444 10.488" fill="none" stroke="#8c8c8c" stroke-miterlimit="10" stroke-width=".3985" transform="matrix(1 0 0 -1 33.772 13.671)"/><path d="m-1.194 1.593c.1-.598 1.195-1.494 1.494-1.594-.299-.099-1.394-.996-1.494-1.593" style="fill:none;stroke-width:.31879;stroke-linecap:round;stroke-linejoin:round;stroke:#8c8c8c;stroke-miterlimit:10" transform="matrix(.98055 -.1961 -.1961 -.98055 307.315 68.91)"/><path d="m221.1-69.126 52.444-10.488" fill="none" stroke="#8c8c8c" stroke-miterlimit="10" stroke-width=".3985" transform="matrix(1 0 0 -1 33.772 13.671)"/><path d="m-1.194 1.595c.1-.597 1.195-1.494 1.494-1.593-.3-.1-1.394-.996-1.494-1.594" style="fill:none;stroke-width:.31879;stroke-linecap:round;stroke-linejoin:round;stroke:#8c8c8c;stroke-miterlimit:10" transform="matrix(.98055 .1961 .1961 -.98055 307.315 93.287)"/><path d="m220.033-71.888 54.758-32.851" fill="none" stroke="#8c8c8c" stroke-miterlimit="10" stroke-width=".3985" transform="matrix(1 0 0 -1 33.772 13.671)"/><path d="m-1.196 1.593c.099-.597 1.196-1.492 1.496-1.595-.3-.098-1.393-.995-1.495-1.594" style="fill:none;stroke-width:.31879;stroke-linecap:round;stroke-linejoin:round;stroke:#8c8c8c;stroke-miterlimit:10" transform="matrix(.85747 .51448 .51448 -.85747 308.561 118.411)"/><path d="m218.732-73.556 57.578-57.582" fill="none" stroke="#8c8c8c" stroke-miterlimit="10" stroke-width=".3985" transform="matrix(1 0 0 -1 33.772 13.671)"/><path d="m-1.196 1.593c.1-.597 1.196-1.495 1.494-1.594-.298-.1-1.392-.994-1.494-1.594" style="fill:none;stroke-width:.31879;stroke-linecap:round;stroke-linejoin:round;stroke:#8c8c8c;stroke-miterlimit:10" transform="matrix(.70710678 .70710678 .70710678 -.70710678 310.086393 144.809224)"/><path d="m217.638-74.481 59.945-83.922" fill="none" stroke="#8c8c8c" stroke-miterlimit="10" stroke-width=".3985" transform="matrix(1 0 0 -1 33.772 13.671)"/><path d="m-1.195 1.596c.1-.6 1.195-1.498 1.495-1.596-.3-.098-1.397-.995-1.495-1.596" style="fill:none;stroke-width:.31879;stroke-linecap:round;stroke-linejoin:round;stroke:#8c8c8c;stroke-miterlimit:10" transform="matrix(.58119 .81369 .81369 -.58119 311.357 172.076)"/><path d="m216.81-75.005 61.742-111.137" fill="none" stroke="#8c8c8c" stroke-miterlimit="10" stroke-width=".3985" transform="matrix(1 0 0 -1 33.772 13.671)"/><path d="m-1.195 1.594c.101-.597 1.194-1.495 1.492-1.594-.296-.1-1.393-.995-1.493-1.592" style="fill:none;stroke-width:.31879;stroke-linecap:round;stroke-linejoin:round;stroke:#8c8c8c;stroke-miterlimit:10" transform="matrix(.48564897 .87415392 .87415392 -.48564897 312.324816 199.811263)"/><path d="m216.189-75.317 63.09-138.801" fill="none" stroke="#8c8c8c" stroke-miterlimit="10" stroke-width=".3985" transform="matrix(1 0 0 -1 33.772 13.671)"/><path d="m-1.196 1.594c.101-.6 1.197-1.494 1.494-1.594-.298-.1-1.393-.997-1.493-1.595" style="fill:none;stroke-width:.31879;stroke-linecap:round;stroke-linejoin:round;stroke:#8c8c8c;stroke-miterlimit:10" transform="matrix(.41377 .91031 .91031 -.41377 313.052 227.791)"/><path d="m218.732-89.645 57.578 57.582" fill="none" stroke="#8c8c8c" stroke-miterlimit="10" stroke-width=".3985" transform="matrix(1 0 0 -1 33.772 13.671)"/><path d="m-1.196 1.595c.102-.6 1.196-1.494 1.494-1.594-.298-.099-1.395-.997-1.494-1.593" style="fill:none;stroke-width:.31879;stroke-linecap:round;stroke-linejoin:round;stroke:#8c8c8c;stroke-miterlimit:10" transform="matrix(.70710678 -.70710678 -.70710678 -.70710678 310.085992 45.735808)"/><path d="m220.033-91.313 54.758 32.851" fill="none" stroke="#8c8c8c" stroke-miterlimit="10" stroke-width=".3985" transform="matrix(1 0 0 -1 33.772 13.671)"/><path d="m-1.195 1.596c.099-.602 1.193-1.495 1.492-1.597-.297-.1-1.394-.995-1.492-1.592" style="fill:none;stroke-width:.31879;stroke-linecap:round;stroke-linejoin:round;stroke:#8c8c8c;stroke-miterlimit:10" transform="matrix(.85746501 -.51448396 -.51448396 -.85746501 308.564118 72.132431)"/><path d="m221.1-94.075 52.444 10.488" fill="none" stroke="#8c8c8c" stroke-miterlimit="10" stroke-width=".3985" transform="matrix(1 0 0 -1 33.772 13.671)"/><path d="m-1.194 1.592c.1-.598 1.195-1.494 1.494-1.593-.3-.1-1.394-.996-1.494-1.594" style="fill:none;stroke-width:.31879;stroke-linecap:round;stroke-linejoin:round;stroke:#8c8c8c;stroke-miterlimit:10" transform="matrix(.98055 -.1961 -.1961 -.98055 307.315 97.257)"/><path d="m221.1-97.474 52.444-10.488" fill="none" stroke="#8c8c8c" stroke-miterlimit="10" stroke-width=".3985" transform="matrix(1 0 0 -1 33.772 13.671)"/><path d="m-1.194 1.594c.1-.598 1.195-1.494 1.494-1.594-.299-.1-1.394-.995-1.494-1.593" style="fill:none;stroke-width:.31879;stroke-linecap:round;stroke-linejoin:round;stroke:#8c8c8c;stroke-miterlimit:10" transform="matrix(.98055 .1961 .1961 -.98055 307.315 121.633)"/><path d="m220.033-100.231 54.758-32.856" fill="none" stroke="#8c8c8c" stroke-miterlimit="10" stroke-width=".3985" transform="matrix(1 0 0 -1 33.772 13.671)"/><path d="m-1.195 1.593c.098-.597 1.195-1.493 1.492-1.593-.297-.101-1.393-.995-1.494-1.593" style="fill:none;stroke-width:.31879;stroke-linecap:round;stroke-linejoin:round;stroke:#8c8c8c;stroke-miterlimit:10" transform="matrix(.85747 .51448 .51448 -.85747 308.561 146.758)"/><path d="m218.732-101.903 57.578-57.582" fill="none" stroke="#8c8c8c" stroke-miterlimit="10" stroke-width=".3985" transform="matrix(1 0 0 -1 33.772 13.671)"/><path d="m-1.196 1.592c.1-.596 1.196-1.494 1.496-1.594-.3-.098-1.394-.994-1.496-1.593" style="fill:none;stroke-width:.31879;stroke-linecap:round;stroke-linejoin:round;stroke:#8c8c8c;stroke-miterlimit:10" transform="matrix(.70710678 .70710678 .70710678 -.70710678 310.085704 173.156887)"/><path d="m217.638-102.825 59.945-83.926" fill="none" stroke="#8c8c8c" stroke-miterlimit="10" stroke-width=".3985" transform="matrix(1 0 0 -1 33.772 13.671)"/><path d="m-1.195 1.596c.1-.6 1.193-1.496 1.496-1.597-.301-.097-1.397-.994-1.499-1.594" style="fill:none;stroke-width:.31879;stroke-linecap:round;stroke-linejoin:round;stroke:#8c8c8c;stroke-miterlimit:10" transform="matrix(.58119 .81369 .81369 -.58119 311.357 200.423)"/><path d="m216.81-103.352 61.742-111.133" fill="none" stroke="#8c8c8c" stroke-miterlimit="10" stroke-width=".3985" transform="matrix(1 0 0 -1 33.772 13.671)"/><path d="m-1.197 1.595c.101-.597 1.197-1.497 1.495-1.595-.296-.1-1.393-.996-1.492-1.593" style="fill:none;stroke-width:.31879;stroke-linecap:round;stroke-linejoin:round;stroke:#8c8c8c;stroke-miterlimit:10" transform="matrix(.48564897 .87415392 .87415392 -.48564897 312.325026 228.156906)"/><path d="m217.638-117.067 59.945 83.925" fill="none" stroke="#8c8c8c" stroke-miterlimit="10" stroke-width=".3985" transform="matrix(1 0 0 -1 33.772 13.671)"/><path d="m-1.196 1.596c.102-.6 1.196-1.498 1.496-1.596-.3-.099-1.396-.997-1.496-1.596" style="fill:none;stroke-width:.31879;stroke-linecap:round;stroke-linejoin:round;stroke:#8c8c8c;stroke-miterlimit:10" transform="matrix(.58122857 -.81374035 -.81374035 -.58122857 311.372642 46.817198)"/><path d="m218.732-117.993 57.578 57.582" fill="none" stroke="#8c8c8c" stroke-miterlimit="10" stroke-width=".3985" transform="matrix(1 0 0 -1 33.772 13.671)"/><path d="m-1.197 1.595c.103-.6 1.197-1.495 1.495-1.595-.299-.1-1.395-.997-1.495-1.594" style="fill:none;stroke-width:.31879;stroke-linecap:round;stroke-linejoin:round;stroke:#8c8c8c;stroke-miterlimit:10" transform="matrix(.70710678 -.70710678 -.70710678 -.70710678 310.085681 74.083056)"/><path d="m220.033-119.661 54.758 32.852" fill="none" stroke="#8c8c8c" stroke-miterlimit="10" stroke-width=".3985" transform="matrix(1 0 0 -1 33.772 13.671)"/><path d="m-1.196 1.595c.101-.598 1.194-1.495 1.496-1.594-.3-.103-1.397-.998-1.496-1.595" style="fill:none;stroke-width:.31879;stroke-linecap:round;stroke-linejoin:round;stroke:#8c8c8c;stroke-miterlimit:10" transform="matrix(.85746501 -.51448396 -.51448396 -.85746501 308.563945 100.478955)"/><path d="m221.1-122.423 52.444 10.492" fill="none" stroke="#8c8c8c" stroke-miterlimit="10" stroke-width=".3985" transform="matrix(1 0 0 -1 33.772 13.671)"/><path d="m-1.193 1.595c.1-.598 1.195-1.495 1.493-1.595-.298-.1-1.394-.996-1.494-1.597" style="fill:none;stroke-width:.31879;stroke-linecap:round;stroke-linejoin:round;stroke:#8c8c8c;stroke-miterlimit:10" transform="matrix(.98055 -.1961 -.1961 -.98055 307.315 125.603)"/><path d="m221.1-125.821 52.444-10.488" fill="none" stroke="#8c8c8c" stroke-miterlimit="10" stroke-width=".3985" transform="matrix(1 0 0 -1 33.772 13.671)"/><path d="m-1.194 1.593c.1-.597 1.195-1.493 1.494-1.593-.299-.1-1.394-.996-1.494-1.594" style="fill:none;stroke-width:.31879;stroke-linecap:round;stroke-linejoin:round;stroke:#8c8c8c;stroke-miterlimit:10" transform="matrix(.98055 .1961 .1961 -.98055 307.315 149.98)"/><path d="m220.033-128.579 54.758-32.855" fill="none" stroke="#8c8c8c" stroke-miterlimit="10" stroke-width=".3985" transform="matrix(1 0 0 -1 33.772 13.671)"/><path d="m-1.196 1.595c.1-.6 1.196-1.496 1.494-1.595-.3-.099-1.393-.996-1.494-1.594" style="fill:none;stroke-width:.31879;stroke-linecap:round;stroke-linejoin:round;stroke:#8c8c8c;stroke-miterlimit:10" transform="matrix(.85747 .51448 .51448 -.85747 308.561 175.104)"/><path d="m218.732-130.25 57.578-57.579" fill="none" stroke="#8c8c8c" stroke-miterlimit="10" stroke-width=".3985" transform="matrix(1 0 0 -1 33.772 13.671)"/><path d="m-1.197 1.594c.102-.6 1.196-1.495 1.494-1.594-.298-.1-1.392-.994-1.494-1.594" style="fill:none;stroke-width:.31879;stroke-linecap:round;stroke-linejoin:round;stroke:#8c8c8c;stroke-miterlimit:10" transform="matrix(.70710678 .70710678 .70710678 -.70710678 310.085602 201.503135)"/><path d="m217.638-131.173 59.945-83.926" fill="none" stroke="#8c8c8c" stroke-miterlimit="10" stroke-width=".3985" transform="matrix(1 0 0 -1 33.772 13.671)"/><path d="m-1.193 1.595c.096-.598 1.193-1.496 1.492-1.595-.297-.1-1.394-.996-1.496-1.596" style="fill:none;stroke-width:.31879;stroke-linecap:round;stroke-linejoin:round;stroke:#8c8c8c;stroke-miterlimit:10" transform="matrix(.58119 .81369 .81369 -.58119 311.357 228.769)"/><path d="m216.81-144.892 61.742 111.137" fill="none" stroke="#8c8c8c" stroke-miterlimit="10" stroke-width=".3985" transform="matrix(1 0 0 -1 33.772 13.671)"/><path d="m-1.193 1.594c.1-.598 1.193-1.496 1.492-1.594-.298-.098-1.394-.997-1.495-1.594" style="fill:none;stroke-width:.31879;stroke-linecap:round;stroke-linejoin:round;stroke:#8c8c8c;stroke-miterlimit:10" transform="matrix(.48564897 -.87415392 -.87415392 -.48564897 312.324847 47.42679)"/><path d="m217.638-145.415 59.945 83.926" fill="none" stroke="#8c8c8c" stroke-miterlimit="10" stroke-width=".3985" transform="matrix(1 0 0 -1 33.772 13.671)"/><path d="m-1.196 1.596c.101-.6 1.198-1.497 1.495-1.596-.299-.1-1.395-.997-1.492-1.594" style="fill:none;stroke-width:.31879;stroke-linecap:round;stroke-linejoin:round;stroke:#8c8c8c;stroke-miterlimit:10" transform="matrix(.58122857 -.81374035 -.81374035 -.58122857 311.373722 75.165296)"/><path d="m218.732-146.34 57.578 57.58" fill="none" stroke="#8c8c8c" stroke-miterlimit="10" stroke-width=".3985" transform="matrix(1 0 0 -1 33.772 13.671)"/><path d="m-1.197 1.594c.102-.6 1.196-1.494 1.494-1.594-.297-.1-1.395-.997-1.494-1.594" style="fill:none;stroke-width:.31879;stroke-linecap:round;stroke-linejoin:round;stroke:#8c8c8c;stroke-miterlimit:10" transform="matrix(.70710678 -.70710678 -.70710678 -.70710678 310.086077 102.430012)"/><path d="m220.033-148.009 54.758 32.856" fill="none" stroke="#8c8c8c" stroke-miterlimit="10" stroke-width=".3985" transform="matrix(1 0 0 -1 33.772 13.671)"/><path d="m-1.196 1.595c.1-.599 1.194-1.496 1.494-1.595-.296-.1-1.394-.994-1.494-1.594" style="fill:none;stroke-width:.31879;stroke-linecap:round;stroke-linejoin:round;stroke:#8c8c8c;stroke-miterlimit:10" transform="matrix(.85746501 -.51448396 -.51448396 -.85746501 308.563915 128.825994)"/><path d="m221.1-150.767 52.444 10.489" fill="none" stroke="#8c8c8c" stroke-miterlimit="10" stroke-width=".3985" transform="matrix(1 0 0 -1 33.772 13.671)"/><path d="m-1.194 1.594c.1-.598 1.196-1.494 1.494-1.594-.298-.1-1.394-.995-1.494-1.593" style="fill:none;stroke-width:.31879;stroke-linecap:round;stroke-linejoin:round;stroke:#8c8c8c;stroke-miterlimit:10" transform="matrix(.98055445 -.19609429 -.19609429 -.98055445 307.305528 153.946586)"/><path d="m221.1-154.169 52.444-10.488" fill="none" stroke="#8c8c8c" stroke-miterlimit="10" stroke-width=".3985" transform="matrix(1 0 0 -1 33.772 13.671)"/><path d="m-1.194 1.593c.1-.598 1.196-1.494 1.494-1.594-.298-.099-1.394-.996-1.494-1.593" style="fill:none;stroke-width:.31879;stroke-linecap:round;stroke-linejoin:round;stroke:#8c8c8c;stroke-miterlimit:10" transform="matrix(.98055 .1961 .1961 -.98055 307.315 178.327)"/><path d="m220.033-156.927 54.758-32.851" fill="none" stroke="#8c8c8c" stroke-miterlimit="10" stroke-width=".3985" transform="matrix(1 0 0 -1 33.772 13.671)"/><path d="m-1.196 1.594c.098-.597 1.198-1.494 1.494-1.594-.3-.099-1.393-.996-1.494-1.594" style="fill:none;stroke-width:.31879;stroke-linecap:round;stroke-linejoin:round;stroke:#8c8c8c;stroke-miterlimit:10" transform="matrix(.85747 .51448 .51448 -.85747 308.561 203.451)"/><path d="m218.732-158.595 57.578-57.582" fill="none" stroke="#8c8c8c" stroke-miterlimit="10" stroke-width=".3985" transform="matrix(1 0 0 -1 33.772 13.671)"/><path d="m-1.197 1.593c.1-.596 1.197-1.493 1.494-1.593-.297-.1-1.392-.995-1.494-1.594" style="fill:none;stroke-width:.31879;stroke-linecap:round;stroke-linejoin:round;stroke:#8c8c8c;stroke-miterlimit:10" transform="matrix(.70710678 .70710678 .70710678 -.70710678 310.086206 229.849676)"/><path d="m216.189-172.923 63.09 138.801" fill="none" stroke="#8c8c8c" stroke-miterlimit="10" stroke-width=".3985" transform="matrix(1 0 0 -1 33.772 13.671)"/><path d="m-1.197 1.594c.1-.598 1.197-1.494 1.496-1.594-.297-.1-1.397-.995-1.494-1.593" style="fill:none;stroke-width:.31879;stroke-linecap:round;stroke-linejoin:round;stroke:#8c8c8c;stroke-miterlimit:10" transform="matrix(.41377 -.9103 -.9103 -.41377 313.05 47.794)"/><path d="m216.81-173.24 61.742 111.138" fill="none" stroke="#8c8c8c" stroke-miterlimit="10" stroke-width=".3985" transform="matrix(1 0 0 -1 33.772 13.671)"/><path d="m-1.194 1.593c.1-.597 1.194-1.496 1.494-1.593-.3-.098-1.395-.997-1.497-1.595" style="fill:none;stroke-width:.31879;stroke-linecap:round;stroke-linejoin:round;stroke:#8c8c8c;stroke-miterlimit:10" transform="matrix(.48564897 -.87415392 -.87415392 -.48564897 312.324277 75.773821)"/><path d="m217.638-173.763 59.945 83.926" fill="none" stroke="#8c8c8c" stroke-miterlimit="10" stroke-width=".3985" transform="matrix(1 0 0 -1 33.772 13.671)"/><path d="m-1.197 1.595c.102-.6 1.198-1.495 1.495-1.595-.298-.1-1.395-.998-1.492-1.595" style="fill:none;stroke-width:.31879;stroke-linecap:round;stroke-linejoin:round;stroke:#8c8c8c;stroke-miterlimit:10" transform="matrix(.58119369 -.81369152 -.81369152 -.58119369 311.357352 103.507578)"/><path d="m218.732-174.684 57.578 57.578" fill="none" stroke="#8c8c8c" stroke-miterlimit="10" stroke-width=".3985" transform="matrix(1 0 0 -1 33.772 13.671)"/><path d="m-1.198 1.594c.103-.6 1.196-1.495 1.495-1.594-.299-.1-1.392-.995-1.495-1.594" style="fill:none;stroke-width:.31879;stroke-linecap:round;stroke-linejoin:round;stroke:#8c8c8c;stroke-miterlimit:10" transform="matrix(.70710678 -.70710678 -.70710678 -.70710678 310.085765 130.77726)"/><path d="m220.033-176.356 54.758 32.855" fill="none" stroke="#8c8c8c" stroke-miterlimit="10" stroke-width=".3985" transform="matrix(1 0 0 -1 33.772 13.671)"/><path d="m-1.197 1.594c.102-.598 1.197-1.492 1.495-1.594-.297-.1-1.394-.995-1.495-1.595" style="fill:none;stroke-width:.31879;stroke-linecap:round;stroke-linejoin:round;stroke:#8c8c8c;stroke-miterlimit:10" transform="matrix(.85746501 -.51448396 -.51448396 -.85746501 308.564027 157.173548)"/><path d="m221.1-179.114 52.444 10.488" fill="none" stroke="#8c8c8c" stroke-miterlimit="10" stroke-width=".3985" transform="matrix(1 0 0 -1 33.772 13.671)"/><path d="m-1.194 1.593c.1-.597 1.195-1.493 1.494-1.593-.299-.1-1.394-.996-1.494-1.594" style="fill:none;stroke-width:.31879;stroke-linecap:round;stroke-linejoin:round;stroke:#8c8c8c;stroke-miterlimit:10" transform="matrix(.98055 -.1961 -.1961 -.98055 307.315 182.297)"/><path d="m221.1-182.513 52.444-10.492" fill="none" stroke="#8c8c8c" stroke-miterlimit="10" stroke-width=".3985" transform="matrix(1 0 0 -1 33.772 13.671)"/><path d="m-1.194 1.596c.1-.598 1.196-1.498 1.494-1.597-.3-.1-1.395-.996-1.494-1.594" style="fill:none;stroke-width:.31879;stroke-linecap:round;stroke-linejoin:round;stroke:#8c8c8c;stroke-miterlimit:10" transform="matrix(.98055 .1961 .1961 -.98055 307.315 206.674)"/><path d="m220.033-185.274 54.758-32.852" fill="none" stroke="#8c8c8c" stroke-miterlimit="10" stroke-width=".3985" transform="matrix(1 0 0 -1 33.772 13.671)"/><path d="m-1.196 1.594c.099-.597 1.196-1.492 1.496-1.596-.302-.098-1.395-.995-1.496-1.593" style="fill:none;stroke-width:.31879;stroke-linecap:round;stroke-linejoin:round;stroke:#8c8c8c;stroke-miterlimit:10" transform="matrix(.85747 .51448 .51448 -.85747 308.561 231.798)"/></svg>